<?xml version="1.0" encoding="utf-8"?>
<!-- Generator: Adobe Illustrator 25.2.0, SVG Export Plug-In . SVG Version: 6.00 Build 0)  -->
<svg version="1.1" id="Слой_1" xmlns="http://www.w3.org/2000/svg" xmlns:xlink="http://www.w3.org/1999/xlink" x="0px" y="0px"
	 viewBox="0 0 313 259" style="enable-background:new 0 0 313 259;" xml:space="preserve">
<style type="text/css">
	.st0{clip-path:url(#SVGID_2_);}
	.st1{fill:#C90F91;}
	.st2{clip-path:url(#SVGID_4_);}
	.st3{fill:#5CF5FF;}
	.st4{clip-path:url(#SVGID_6_);}
	.st5{fill:#FFFFFF;}
</style>
<g>
	<g>
		<defs>
			<rect id="SVGID_1_" x="5.7" y="3.6" width="293.3" height="251.8"/>
		</defs>
		<clipPath id="SVGID_2_">
			<use xlink:href="#SVGID_1_"  style="overflow:visible;"/>
		</clipPath>
		<g class="st0">
			<path class="st1" d="M152.4,192.9l-19.5-33.7H96.8l55.5,96.2l55.5-96.2h-36L152.4,192.9z"/>
			<path class="st1" d="M61,34.6h182.7l-13.1,22.7h36l31-53.7H7l31,53.7h36.1L61,34.6z"/>
			<path class="st1" d="M295.8,70.3h-69.6h-3.1v3.2v15v3.2h3.1h23.3v51.5v3.2h3.1h16.7h3.1v-3.2V91.6h23.3h3.1v-3.2v-15v-3.2H295.8z
				"/>
			<path class="st1" d="M165.5,70.3h-3.1v3.2v15v54.7v3.2h3.1h16.7h3.1v-3.2v-20.6h25h3.1v-3.2v-15v-3.2h-3.1h-25v-9.6H218h3.1v-3.2
				v-15v-3.2H218H165.5z"/>
			<path class="st1" d="M137.3,70.3h-3.1v37.3c0,9.5-6.6,16.9-15.2,16.9c-8.5,0-15.3-7.4-15.3-16.9V70.3H80.4v37.3
				c0,11.5,4,21.9,11.2,29.3c7.1,7.2,16.8,11.2,27.4,11.2c10.6,0,20.3-4,27.3-11.2c7.2-7.4,11.2-17.8,11.2-29.3V70.3H137.3z"/>
			<path class="st1" d="M41.9,70.3H5.7v76h36.1c10.1,0,19.7-4.1,26.9-11.2c7.1-7.1,11.1-16.8,11.1-26.9
				C79.8,86.2,63.9,70.3,41.9,70.3z M43.4,123.3H28.7V93.3h14.7c7.4,0,13.3,6.6,13.3,14.9C56.8,117.3,50,123,43.4,123.3z"/>
		</g>
	</g>
	<g>
		<defs>
			<rect id="SVGID_3_" x="14" y="3.6" width="293.3" height="251.8"/>
		</defs>
		<clipPath id="SVGID_4_">
			<use xlink:href="#SVGID_3_"  style="overflow:visible;"/>
		</clipPath>
		<g class="st2">
			<path class="st3" d="M160.7,192.9l-19.5-33.7h-36.1l55.5,96.2l55.5-96.2h-36L160.7,192.9z"/>
			<path class="st3" d="M69.3,34.6H252l-13.1,22.7h36l31-53.7H15.3l31,53.7h36.1L69.3,34.6z"/>
			<path class="st3" d="M304.1,70.3h-69.6h-3.1v3.2v15v3.2h3.1h23.3v51.5v3.2h3.1h16.7h3.1v-3.2V91.6h23.3h3.1v-3.2v-15v-3.2H304.1z
				"/>
			<path class="st3" d="M173.8,70.3h-3.1v3.2v15v54.7v3.2h3.1h16.7h3.1v-3.2v-20.6h25h3.1v-3.2v-15v-3.2h-3.1h-25v-9.6h32.6h3.1
				v-3.2v-15v-3.2h-3.1H173.8z"/>
			<path class="st3" d="M145.6,70.3h-3.1v37.3c0,9.5-6.6,16.9-15.2,16.9c-8.5,0-15.3-7.4-15.3-16.9V70.3H88.7v37.3
				c0,11.5,4,21.9,11.2,29.3c7.1,7.2,16.8,11.2,27.4,11.2c10.6,0,20.3-4,27.3-11.2c7.2-7.4,11.2-17.8,11.2-29.3V70.3H145.6z"/>
			<path class="st3" d="M50.1,70.3H14v76h36.1c10.1,0,19.7-4.1,26.9-11.2c7.1-7.1,11.1-16.8,11.1-26.9
				C88.1,86.2,72.1,70.3,50.1,70.3z M51.7,123.3H37V93.3h14.7c7.4,0,13.3,6.6,13.3,14.9C65.1,117.3,58.3,123,51.7,123.3z"/>
		</g>
	</g>
	<g>
		<defs>
			<rect id="SVGID_5_" x="9.9" y="3.6" width="293.3" height="251.8"/>
		</defs>
		<clipPath id="SVGID_6_">
			<use xlink:href="#SVGID_5_"  style="overflow:visible;"/>
		</clipPath>
		<g class="st4">
			<path class="st5" d="M156.5,192.9l-19.5-33.7H101l55.5,96.2l55.5-96.2h-36L156.5,192.9z"/>
			<path class="st5" d="M65.1,34.6h182.7l-13.1,22.7h36l31-53.7H11.2l31,53.7h36.1L65.1,34.6z"/>
			<path class="st5" d="M300,70.3h-69.6h-3.1v3.2v15v3.2h3.1h23.3v51.5v3.2h3.1h16.7h3.1v-3.2V91.6H300h3.1v-3.2v-15v-3.2H300z"/>
			<path class="st5" d="M169.7,70.3h-3.1v3.2v15v54.7v3.2h3.1h16.7h3.1v-3.2v-20.6h25h3.1v-3.2v-15v-3.2h-3.1h-25v-9.6h32.6h3.1
				v-3.2v-15v-3.2h-3.1H169.7z"/>
			<path class="st5" d="M141.4,70.3h-3.1v37.3c0,9.5-6.6,16.9-15.2,16.9c-8.5,0-15.3-7.4-15.3-16.9V70.3H84.5v37.3
				c0,11.5,4,21.9,11.2,29.3c7.1,7.2,16.8,11.2,27.4,11.2c10.6,0,20.3-4,27.3-11.2c7.2-7.4,11.2-17.8,11.2-29.3V70.3H141.4z"/>
			<path class="st5" d="M46,70.3H9.9v76H46c10.1,0,19.7-4.1,26.9-11.2C80,127.9,84,118.3,84,108.2C84,86.2,68,70.3,46,70.3z
				 M47.5,123.3H32.9V93.3h14.7C55,93.3,61,100,61,108.2C61,117.3,54.1,123,47.5,123.3z"/>
		</g>
	</g>
</g>
</svg>
