<svg width="354" height="373" viewBox="0 0 354 373" fill="none" xmlns="http://www.w3.org/2000/svg">
<path d="M96.7313 137.817C99.8073 141.016 102.502 144.562 104.761 148.383C107.342 152.474 109.628 156.745 111.599 161.163C112.376 162.848 113.037 164.583 113.579 166.358C114.309 169.185 114.879 172.05 115.286 174.941C116.475 181.851 117.183 188.846 118.786 195.675C121.941 208.679 127.455 220.994 135.054 232.009C142.279 242.44 150.874 251.853 160.608 259.994C169.851 267.81 180.057 274.885 187.431 284.657C188.33 285.864 189.223 287.1 190.091 288.342C190.154 288.452 190.258 288.532 190.38 288.565C190.502 288.599 190.632 288.582 190.742 288.519C190.852 288.456 190.932 288.352 190.966 288.23C190.999 288.108 190.982 287.978 190.919 287.868C187.811 282.724 183.921 278.095 179.389 274.149C174.906 269.987 170.087 266.212 165.354 262.347C155.343 254.417 146.373 245.257 138.655 235.081C130.597 224.338 124.528 212.238 120.737 199.355C119.014 192.595 117.682 185.742 116.748 178.83C115.904 173.611 115.227 168.144 113.203 163.192C111.428 158.938 109.328 154.825 106.924 150.892C104.584 146.875 101.896 143.071 98.8897 139.525C98.2732 138.829 97.6346 138.152 97.0026 137.501C96.8416 137.353 96.5825 137.611 96.7562 137.756L96.7313 137.817Z" fill="url(#paint0_radial)"/>
<path d="M176.25 271.704C174.39 268.899 172.489 266.144 170.886 263.176C169.269 260.159 167.872 257.029 166.705 253.81C164.407 247.41 163.05 240.71 162.677 233.921C162.468 230.083 162.589 226.235 163.038 222.419C163.1 221.927 162.321 221.912 162.259 222.404C160.693 236.123 163.239 249.998 169.575 262.267C171.288 265.743 173.39 269.014 175.841 272.015C175.885 272.066 175.946 272.099 176.012 272.106C176.079 272.114 176.146 272.096 176.199 272.056C176.253 272.016 176.29 271.957 176.301 271.891C176.313 271.825 176.299 271.757 176.263 271.701L176.25 271.704Z" fill="url(#paint1_radial)"/>
<path d="M162.477 222.822C160.749 228.453 159.272 234.317 159.667 240.265C160.246 246.404 162.308 252.311 165.675 257.477C167.386 260.419 169.407 263.17 171.702 265.682C171.742 265.711 171.789 265.726 171.838 265.725C171.887 265.724 171.934 265.707 171.972 265.677C172.01 265.648 172.038 265.606 172.05 265.559C172.063 265.512 172.06 265.462 172.041 265.417C170.392 262.951 168.471 260.691 166.87 258.199C165.214 255.674 163.805 252.994 162.663 250.199C160.409 244.592 159.722 238.477 160.678 232.51C161.191 229.262 161.951 226.073 162.64 222.875C162.613 222.773 162.504 222.72 162.477 222.822Z" fill="url(#paint2_radial)"/>
<path d="M162.429 222.848C162.162 227.993 162.751 233.147 164.174 238.098C164.89 240.848 165.871 243.516 166.47 246.283C167.069 249.051 167.431 251.798 167.893 254.56C168.347 257.684 169.094 260.758 170.123 263.742C170.232 264.162 170.932 263.979 170.785 263.569C168.905 258.389 168.486 252.869 167.465 247.492C166.92 244.777 166.221 242.094 165.371 239.458C164.572 236.86 163.949 234.21 163.508 231.527C163.083 228.649 162.818 225.75 162.713 222.842C162.705 222.812 162.686 222.786 162.658 222.77C162.631 222.754 162.599 222.75 162.569 222.758C162.538 222.765 162.512 222.785 162.496 222.812C162.481 222.839 162.476 222.872 162.484 222.902L162.429 222.848Z" fill="url(#paint3_radial)"/>
<path d="M162.575 222.417C162.554 224.285 162.881 226.141 163.539 227.89C164.203 230.436 165.057 232.933 165.862 235.551C166.667 238.17 167.459 240.791 168.073 243.459C168.683 246.347 169.025 249.285 169.095 252.235C169.186 254.305 169.255 256.395 169.454 258.464C169.553 259.417 169.665 260.367 169.83 261.316C169.927 262.367 170.195 263.395 170.623 264.359C170.636 264.407 170.666 264.447 170.708 264.472C170.751 264.497 170.801 264.504 170.848 264.491C170.895 264.479 170.936 264.448 170.961 264.406C170.985 264.364 170.992 264.314 170.98 264.267C170.879 263.427 170.726 262.595 170.521 261.776C170.323 260.789 170.176 259.792 170.083 258.79C169.882 256.87 169.802 254.947 169.722 253.023C169.657 250.1 169.353 247.187 168.812 244.314C167.7 239.056 165.884 233.968 164.34 228.823C163.706 226.704 163.225 224.545 162.68 222.457C162.675 222.437 162.662 222.419 162.644 222.409C162.626 222.398 162.604 222.395 162.584 222.4C162.564 222.406 162.547 222.419 162.536 222.437C162.525 222.455 162.522 222.477 162.528 222.497L162.575 222.417Z" fill="url(#paint4_radial)"/>
<path d="M168.265 260.527C167.439 259.72 166.739 258.793 166.189 257.778C165.52 256.816 164.798 255.892 164.027 255.01C162.277 253.186 160.649 251.248 159.156 249.209C157.751 246.883 156.644 244.389 155.862 241.787C154.948 239.115 154.049 236.431 153.165 233.733C151.966 230.715 151.115 227.571 150.627 224.36L149.967 224.437C150.274 225.425 150.826 226.319 151.57 227.038C152.568 228.26 153.462 229.55 154.343 230.843C156.592 233.883 158.382 237.237 159.656 240.798C159.763 241.205 160.425 241.033 160.293 240.632C159.074 237.218 157.364 233.999 155.219 231.077C154.358 229.806 153.515 228.502 152.552 227.312C151.654 226.489 150.974 225.457 150.572 224.306C150.479 223.95 149.883 224.01 149.912 224.383C150.287 227.223 150.987 230.011 151.996 232.692C152.89 235.545 153.863 238.392 154.832 241.226C155.625 243.913 156.698 246.509 158.034 248.971C159.444 251.117 161.063 253.118 162.868 254.945C163.886 256.027 164.823 257.182 165.672 258.402C166.154 259.475 166.982 260.355 168.023 260.903C168.235 260.984 168.426 260.675 168.253 260.53L168.265 260.527Z" fill="url(#paint5_radial)"/>
<path d="M111.801 266.283C120.77 269.03 130.207 269.086 139.561 269.082C148.51 269.089 157.547 269.072 166.333 271.011C171.174 272.016 175.817 273.81 180.077 276.321C180.69 276.692 181.28 275.722 180.629 275.362C164.755 265.739 145.489 268.924 127.882 268.197C122.478 268.036 117.103 267.337 111.837 266.11C111.818 266.111 111.799 266.119 111.784 266.132C111.769 266.146 111.759 266.163 111.755 266.183C111.751 266.202 111.753 266.222 111.761 266.24C111.769 266.258 111.783 266.273 111.801 266.283Z" fill="url(#paint6_radial)"/>
<path d="M111.802 266.282C118.284 266.687 124.716 265.228 131.208 265.304C137.613 265.37 143.996 266.075 150.262 267.408C153.776 268.11 157.256 268.944 160.728 269.847C160.812 269.857 160.897 269.837 160.967 269.79C161.038 269.743 161.089 269.673 161.112 269.591C161.135 269.51 161.128 269.423 161.093 269.346C161.058 269.269 160.996 269.207 160.919 269.172C154.778 267.522 148.543 266.246 142.247 265.35C135.876 264.49 129.425 264.4 123.033 265.082C119.287 265.474 115.561 265.942 111.794 266.148C111.782 266.158 111.773 266.171 111.768 266.185C111.763 266.2 111.762 266.215 111.766 266.23C111.77 266.245 111.778 266.258 111.79 266.269C111.801 266.279 111.815 266.286 111.83 266.288L111.802 266.282Z" fill="url(#paint7_radial)"/>
<path d="M111.306 266.153C113.723 267.814 116.416 269.032 119.26 269.75C122.087 270.569 124.984 271.12 127.915 271.396C134.539 271.887 141.197 271.554 147.739 270.404C151.497 269.693 155.322 269.394 159.145 269.512C159.615 269.539 159.627 268.802 159.154 268.762C155.981 268.627 152.803 268.835 149.675 269.383C146.339 269.885 143.026 270.422 139.654 270.635C133.286 271.312 126.849 270.893 120.622 269.395C117.457 268.451 114.361 267.29 111.355 265.922C111.266 265.946 111.189 265.966 111.289 266.089L111.306 266.153Z" fill="url(#paint8_radial)"/>
<path d="M111.762 266.129C115.193 265.575 118.583 264.705 122.005 264.112C125.436 263.489 128.906 263.102 132.39 262.956C135.862 262.81 139.34 263.048 142.76 263.666C146.226 264.381 149.645 265.306 153 266.436L165.035 270.356C165.48 270.499 165.677 269.795 165.232 269.652L154.209 266.121C150.788 264.948 147.308 263.958 143.782 263.155C136.992 261.948 130.038 262.009 123.27 263.334C119.36 263.925 115.494 264.774 111.695 265.875C111.661 265.883 111.633 265.905 111.615 265.935C111.597 265.965 111.592 266.001 111.601 266.035C111.61 266.069 111.632 266.098 111.662 266.115C111.692 266.133 111.728 266.138 111.762 266.129Z" fill="url(#paint9_radial)"/>
<path d="M164.399 269.843C158.982 266.341 153.75 262.563 148.722 258.523C146.388 256.665 143.94 254.955 141.392 253.404C138.759 251.86 135.955 250.647 133.226 249.305C130.11 247.774 127.134 245.975 124.332 243.927C123.995 243.675 123.553 244.225 123.885 244.506C124.956 245.599 125.851 246.852 126.539 248.22C127.26 249.378 128.066 250.481 128.949 251.521C130.806 253.666 132.928 255.567 135.264 257.177C140.424 260.512 145.945 263.251 151.723 265.342C155.247 266.762 158.769 268.169 162.153 269.884C162.653 270.135 163.086 269.396 162.586 269.146C151.715 263.644 138.71 261.01 130.193 251.754C129.067 250.541 128.059 249.224 127.182 247.821C126.45 246.402 125.506 245.103 124.384 243.968L123.927 244.563C126.41 246.372 129.027 247.99 131.755 249.403C134.456 250.793 137.284 252.041 139.946 253.441C145.427 256.418 150.18 260.672 155.195 264.423C157.939 266.692 160.925 268.65 164.1 270.261C164.347 270.373 164.548 270.049 164.32 269.904L164.399 269.843Z" fill="url(#paint10_radial)"/>
<path d="M152.616 251.661C149.85 248.561 145.712 246.771 141.878 245.363C137.522 243.779 132.981 242.529 128.568 241.245C124.154 239.962 119.428 238.732 114.917 237.284C110.378 235.946 105.971 234.196 101.752 232.053C97.0264 229.573 93.5195 225.769 89.9644 221.937L89.3388 222.562C94.5282 227.396 101.244 229.738 107.893 231.826C115.443 234.061 122.848 236.759 130.067 239.903C134.052 241.729 137.928 243.783 141.678 246.055C142.13 246.331 142.535 245.641 142.092 245.348C135.523 241.236 128.51 237.882 121.185 235.351C117.604 234.027 113.985 232.822 110.355 231.674C106.725 230.526 103.505 229.598 100.195 228.271C96.3891 226.878 92.9078 224.723 89.9644 221.937C89.8783 221.873 89.7722 221.843 89.6655 221.851C89.5588 221.859 89.4585 221.905 89.3828 221.98C89.3071 222.056 89.261 222.156 89.253 222.263C89.2449 222.37 89.2753 222.476 89.3388 222.562C92.265 226.054 95.6517 229.132 99.4061 231.713C103.409 234.048 107.668 235.912 112.099 237.27C121.066 240.372 130.315 242.367 139.305 245.3C141.657 246.03 143.956 246.921 146.187 247.966C148.387 249.079 150.48 250.39 152.443 251.883C152.581 251.997 152.735 251.807 152.616 251.661Z" fill="url(#paint11_radial)"/>
<path d="M89.4793 221.954C89.9289 223.94 90.7735 225.814 91.9628 227.467C93.0537 229.188 94.3234 230.79 95.7507 232.245C98.505 235.047 101.789 237.274 105.412 238.796C112.655 241.857 120.685 242.198 128.357 243.204C132.686 243.659 136.955 244.565 141.095 245.908C141.559 246.072 141.75 245.343 141.302 245.187C127.028 240.137 109.665 243.792 97.6154 232.982C95.8947 231.426 94.3579 229.678 93.035 227.772C91.7335 225.908 90.8826 223.791 89.6188 221.864C89.6135 221.843 89.6004 221.826 89.5823 221.816C89.5643 221.805 89.5428 221.802 89.5225 221.807C89.5022 221.812 89.4849 221.826 89.4743 221.844C89.4637 221.862 89.4607 221.883 89.466 221.904L89.4793 221.954Z" fill="url(#paint12_radial)"/>
<path d="M89.5997 221.788C90.3782 222.909 91.5546 223.691 92.8895 223.976C94.6535 224.536 96.4645 225.016 98.2656 225.457C101.907 226.385 105.591 227.165 109.192 228.252C116.074 230.449 122.626 233.566 128.671 237.52C132.06 239.67 135.379 241.972 138.706 244.301C139.072 244.559 139.42 243.965 139.054 243.707C133.373 239.517 127.392 235.749 121.159 232.435C118.123 230.86 114.976 229.508 111.743 228.39C108.249 227.193 104.641 226.338 101.062 225.49C99.0302 225 97.0021 224.522 94.9957 223.971C93.2228 223.481 91.0774 223.075 89.8467 221.587C89.7271 221.442 89.5029 221.677 89.587 221.791L89.5997 221.788Z" fill="url(#paint13_radial)"/>
<path d="M118.6 231.484C115.609 228.578 113.505 224.882 112.532 220.828C111.653 217.141 111.465 213.342 110.965 209.597L110.519 209.713C111.809 212.694 113.34 215.564 115.095 218.297C116.812 220.868 118.691 223.329 120.557 225.793C123.91 230.498 127.54 235.001 131.427 239.276C131.497 239.346 131.593 239.386 131.692 239.385C131.791 239.385 131.886 239.345 131.956 239.274C132.026 239.204 132.065 239.108 132.065 239.009C132.065 238.91 132.025 238.815 131.954 238.745C128.05 234.473 124.399 229.977 121.021 225.278C119.078 222.779 117.176 220.283 115.469 217.751C113.745 215.127 112.216 212.381 110.894 209.534C110.824 209.267 110.415 209.469 110.448 209.65C111.075 213.566 111.143 217.532 112.078 221.381C113.021 225.382 115.282 228.95 118.498 231.51L118.587 231.487L118.6 231.484Z" fill="url(#paint14_radial)"/>
<path d="M161.343 178.561C156.404 186.374 150.08 193.203 145.494 201.224C141.601 207.668 139.005 214.811 137.853 222.251C137.267 226.753 137.33 231.316 138.039 235.8C138.166 236.283 138.863 236.088 138.791 235.604C137.771 227.848 138.595 219.961 141.194 212.583C144.042 205.038 147.987 197.953 152.901 191.557C156.091 187.456 159.064 183.191 161.808 178.78C161.958 178.523 161.561 178.3 161.407 178.544L161.343 178.561Z" fill="url(#paint15_radial)"/>
<path d="M160.864 179.487C155.64 183.498 151.004 188.222 147.09 193.519C143.542 198.632 141.061 204.407 139.795 210.5C138.973 214.44 138.451 218.437 137.839 222.404C137.761 222.832 138.423 223.027 138.486 222.589C139.499 216.043 140.288 209.365 142.747 203.15C145.148 197.257 148.671 191.887 153.121 187.338C155.667 184.69 158.409 182.221 161.032 179.661C161.152 179.548 160.962 179.394 160.864 179.487Z" fill="url(#paint16_radial)"/>
<path d="M161.479 178.662C159.505 184.547 156.113 189.742 152.576 194.743C148.889 199.928 145.536 205.344 142.538 210.956C141.753 212.465 141.009 213.992 140.305 215.535C139.487 217.174 138.754 218.853 138.109 220.567C137.975 220.942 138.574 221.207 138.753 220.848C139.51 219.373 140.063 217.787 140.737 216.252C141.411 214.717 141.986 213.479 142.664 212.119C144.178 209.005 145.92 206.09 147.7 203.165C149.292 200.561 150.894 197.995 152.605 195.483C154.316 192.97 155.913 190.541 157.468 188.056C159.249 185.113 160.656 181.96 161.657 178.67C161.657 178.67 161.624 178.543 161.543 178.7L161.479 178.662Z" fill="url(#paint17_radial)"/>
<path d="M161.361 178.624C160.804 181.661 159.849 184.612 158.522 187.399C157.437 189.654 156.153 191.824 154.959 194.025C153.396 197.025 151.672 199.938 149.796 202.754C148.019 205.324 145.939 207.675 144.146 210.236C143.168 211.701 142.124 213.224 141.146 214.743C140.202 216.108 139.382 217.555 138.697 219.067C138.641 219.217 138.882 219.358 138.983 219.223C139.849 218.093 140.644 216.909 141.363 215.679C142.249 214.279 143.132 212.866 144.053 211.498C145.846 208.828 147.921 206.41 149.759 203.756C151.658 200.96 153.393 198.056 154.957 195.059C156.176 192.797 157.484 190.566 158.623 188.257C160.124 185.262 161.173 182.06 161.735 178.757C161.768 178.517 161.413 178.406 161.367 178.649L161.361 178.624Z" fill="url(#paint18_radial)"/>
<path d="M138.906 218.985C138.481 213.127 137.762 207.291 138.565 201.398C138.985 198.42 139.645 195.474 140.33 192.522C141.016 189.569 141.569 186.841 142.422 184.063C143.397 180.894 144.599 177.8 146.019 174.804L145.679 174.648C145.279 177.023 144.766 179.387 144.397 181.781C144.038 184.108 143.906 186.465 144.002 188.818C144.208 190.988 144.167 193.175 143.878 195.336C143.454 197.568 142.811 199.693 142.457 201.988C142.385 202.388 143.003 202.567 143.075 202.167C143.439 199.965 144.053 197.833 144.475 195.643C144.801 193.594 144.866 191.512 144.668 189.447C144.493 187.072 144.546 184.686 144.824 182.322C145.156 179.788 145.559 177.263 145.993 174.757C146.023 174.558 145.75 174.398 145.653 174.6C143.155 179.914 141.256 185.489 139.992 191.223C138.62 197.019 137.361 202.936 137.654 208.964C137.812 212.324 138.176 215.671 138.743 218.987C138.773 219.102 138.961 219.093 138.947 218.934L138.906 218.985Z" fill="url(#paint19_radial)"/>
<path d="M75.4104 179.499C77.7801 183.215 80.6533 186.585 83.9481 189.512C86.9202 192.022 90.1258 194.241 93.5211 196.14C100.32 200.106 107.608 203.238 114.375 207.185C116.358 208.327 118.308 209.546 120.194 210.835C122.08 212.125 123.815 213.671 125.718 214.97C126.113 215.234 126.519 214.653 126.215 214.324C124.828 212.881 123.281 211.601 121.604 210.508C119.949 209.376 118.305 208.282 116.676 207.251C113.248 205.208 109.687 203.389 106.124 201.612C99.2636 198.192 92.1563 194.973 86.0807 190.234C82.0898 187.167 78.5718 183.53 75.6396 179.44C75.6031 179.3 75.3362 179.424 75.427 179.563L75.4104 179.499Z" fill="url(#paint20_radial)"/>
<path d="M75.156 179.567C76.4428 182.31 78.0302 184.901 79.8892 187.294C81.4925 189.468 83.3734 191.424 85.4841 193.11C89.8077 196.336 94.5983 198.884 99.6905 200.666C102.869 201.904 106.123 203.069 109.288 204.256C109.816 204.458 110.047 203.623 109.531 203.417C99.2994 199.53 88.1928 196.565 81.0869 187.716C79.0036 185.084 77.1488 182.278 75.543 179.33C75.4163 179.105 75.1024 179.309 75.2036 179.541L75.156 179.567Z" fill="url(#paint21_radial)"/>
<path d="M75.1385 179.448C77.4275 181.136 80.0067 182.476 82.4054 183.958C84.7585 185.404 87.0238 186.989 89.1896 188.703C93.4582 192.091 97.6892 195.543 102.018 198.848C104.449 200.73 106.976 202.486 109.589 204.108C110.022 204.362 110.405 203.692 109.984 203.434C105.349 200.5 100.903 197.276 96.6728 193.782C92.5231 190.264 88.1774 186.984 83.6564 183.958C80.957 182.217 78.1637 180.625 75.2891 179.191C75.2551 179.171 75.2145 179.165 75.1763 179.175C75.1381 179.185 75.1054 179.21 75.0854 179.244C75.0654 179.278 75.0598 179.319 75.0698 179.357C75.0797 179.395 75.1045 179.428 75.1385 179.448Z" fill="url(#paint22_radial)"/>
<path d="M75.284 179.534C77.8865 180.651 80.5698 181.556 83.1534 182.704C85.7462 183.85 88.2467 185.194 90.6325 186.724C93.0266 188.254 95.2596 190.023 97.2975 192.003C99.6146 194.268 101.694 196.718 104.106 198.876C106.701 201.268 109.465 203.469 112.377 205.464C112.717 205.674 113.127 205.159 112.811 204.888C110.378 202.803 107.704 200.944 105.213 198.846C102.722 196.749 100.62 194.319 98.3348 192.018C94.2713 188.051 89.5343 184.838 84.3453 182.53C81.4778 181.138 78.4635 180.072 75.3587 179.351C75.2696 179.375 75.1783 179.494 75.284 179.534Z" fill="url(#paint23_radial)"/>
<path d="M115.375 207.633C114.086 206.989 112.759 206.427 111.401 205.949C110.077 205.547 108.715 205.287 107.337 205.173C104.43 204.87 101.511 205.046 98.6036 205.001C93.022 205.005 87.4663 204.243 82.0916 202.737C79.0877 201.856 76.2022 200.613 73.4987 199.035L73.2213 199.692C78.8459 201.448 84.7447 200.292 90.5607 200.435C96.7284 200.71 102.81 201.985 108.569 204.212C109.004 204.371 109.192 203.683 108.769 203.521C103.115 201.343 97.1532 200.071 91.1028 199.75C85.2093 199.518 79.1394 200.801 73.4058 198.991C73.3626 198.973 73.3163 198.963 73.2695 198.963C73.2227 198.963 73.1762 198.972 73.1328 198.989C73.0895 199.007 73.05 199.033 73.0166 199.066C72.9833 199.099 72.9568 199.138 72.9385 199.181C72.9203 199.224 72.9108 199.27 72.9104 199.317C72.9101 199.364 72.919 199.41 72.9366 199.454C72.9722 199.541 73.0412 199.611 73.1283 199.648C77.8556 202.308 83.047 204.043 88.4241 204.758C91.0662 205.131 93.7283 205.345 96.396 205.4C99.2628 205.496 102.137 205.358 105 205.442C106.665 205.461 108.321 205.672 109.937 206.072C111.709 206.585 113.44 207.229 115.117 207.999C115.392 208.118 115.653 207.71 115.361 207.582L115.375 207.633Z" fill="url(#paint24_radial)"/>
<path d="M143.027 147.982C141.698 151.338 140.102 154.583 138.253 157.683C136.433 160.714 134.338 163.531 132.261 166.411C128.301 171.967 125.102 178.027 122.749 184.431C121.301 188.247 120.093 192.149 119.131 196.115C119.121 196.191 119.139 196.267 119.181 196.331C119.222 196.394 119.286 196.44 119.359 196.461C119.432 196.481 119.51 196.475 119.579 196.443C119.647 196.41 119.702 196.354 119.733 196.285C121.577 189.438 124.03 182.769 127.063 176.359C130.242 170.091 134.495 164.496 138.144 158.514C140.166 155.201 141.848 151.693 143.164 148.041C143.164 148.041 143.131 147.914 143.05 148.071L143.027 147.982Z" fill="url(#paint25_radial)"/>
<path d="M142.817 147.751C141.641 149.866 140.571 152.021 139.194 154.039C137.816 156.057 136.316 157.971 134.842 159.932C131.784 163.751 129.222 167.942 127.215 172.403C126.095 175.046 125.221 177.787 124.603 180.589C124.499 181.024 125.161 181.219 125.265 180.784C126.365 175.795 128.276 171.02 130.923 166.651C133.422 162.518 136.644 158.918 139.397 154.924C141.051 152.812 142.33 150.432 143.179 147.888C143.185 147.839 143.176 147.79 143.151 147.747C143.127 147.705 143.09 147.671 143.044 147.652C142.999 147.633 142.949 147.629 142.901 147.641C142.854 147.654 142.812 147.681 142.781 147.72L142.817 147.751Z" fill="url(#paint26_radial)"/>
<path d="M142.797 148.613C141.657 151.698 140.535 154.805 139.318 157.855C138.237 160.84 136.777 163.674 134.976 166.288C133.156 168.802 130.996 171.051 129.157 173.543C128.25 174.758 127.391 176.002 126.581 177.274C125.663 178.602 124.85 180.001 124.149 181.456C124.109 181.54 124.101 181.636 124.129 181.726C124.157 181.815 124.218 181.89 124.299 181.936C124.38 181.982 124.475 181.996 124.566 181.974C124.657 181.953 124.736 181.898 124.788 181.82C125.694 180.496 126.432 179.053 127.303 177.697C128.173 176.342 129.108 175.024 130.078 173.738C131.914 171.288 134.023 168.943 135.801 166.481C137.499 163.967 138.864 161.244 139.863 158.379C141.063 155.211 142.161 152.015 143.063 148.748C143.103 148.588 142.873 148.539 142.814 148.677L142.797 148.613Z" fill="url(#paint27_radial)"/>
<path d="M142.747 148.109C139.395 152.884 134.105 155.8 130.519 160.405C127.292 164.812 125.188 169.938 124.39 175.341C123.841 178.449 123.912 181.748 122.86 184.755C122.77 185.037 123.18 185.202 123.334 184.958C124.715 182.586 124.502 179.473 124.903 176.839C125.31 174.112 125.976 171.429 126.894 168.828C127.806 166.204 129.075 163.718 130.666 161.441C132.412 159.116 134.42 157.001 136.651 155.136C139.102 153.14 141.239 150.786 142.99 148.154C142.99 148.154 142.946 147.989 142.848 148.082L142.747 148.109Z" fill="url(#paint28_radial)"/>
<path d="M124.762 175.149C125.229 172.506 125.247 169.803 124.814 167.155C124.375 164.427 123.64 161.763 123.277 159.016C122.867 156.258 123.111 153.441 123.99 150.795C124.921 148.317 126.073 145.928 127.432 143.656L126.897 143.429C126.258 147.25 126.106 151.136 126.444 154.995C126.796 158.847 127.535 162.57 127.149 166.464C127.108 166.829 127.715 166.915 127.785 166.557C128.502 162.889 127.522 159.079 127.119 155.445C126.665 151.5 126.765 147.51 127.416 143.593C127.473 143.292 127.059 143.06 126.88 143.365C125.515 145.6 124.344 147.948 123.379 150.383C122.48 152.85 122.146 155.488 122.4 158.103C122.676 160.832 123.395 163.486 123.92 166.177C124.508 169.124 124.689 172.137 124.459 175.133C124.492 175.261 124.681 175.306 124.699 175.166L124.762 175.149Z" fill="url(#paint29_radial)"/>
<path d="M96.7915 137.841C98.5448 141.803 101.438 145.236 103.754 148.902C105.022 150.951 105.995 153.172 107.181 155.27C108.907 158.012 110.275 160.964 111.251 164.053C112.395 167.659 113.815 171.171 115.498 174.558C115.594 174.928 116.175 174.599 116.028 174.243C114.434 171.076 113.083 167.792 111.986 164.419C111.151 161.471 109.921 158.65 108.331 156.031C107.058 153.806 105.984 151.462 104.676 149.26C103.476 147.262 102.148 145.351 100.865 143.455C99.5827 141.559 98.1661 139.671 97.029 137.656C96.9925 137.516 96.7799 137.64 96.8419 137.773L96.7915 137.841Z" fill="url(#paint30_radial)"/>
<path d="M96.672 137.696C99.9045 140.864 103.191 143.978 106.19 147.452C107.768 149.217 109.176 151.126 110.396 153.155C111.997 156.15 113.179 159.351 113.908 162.668C114.416 164.488 114.816 166.336 115.106 168.203C115.394 170.248 115.405 172.272 115.505 174.326C115.505 174.4 115.534 174.471 115.586 174.524C115.638 174.577 115.709 174.607 115.783 174.607C115.857 174.608 115.928 174.579 115.981 174.527C116.033 174.475 116.063 174.404 116.064 174.33C116.156 170.862 115.775 167.398 114.93 164.033C114.238 160.683 113.164 157.423 111.732 154.316C109.211 149.861 106.008 145.827 102.239 142.363C100.559 140.609 98.7418 138.991 96.8043 137.525C96.7047 137.456 96.5751 137.585 96.672 137.696Z" fill="url(#paint31_radial)"/>
<path d="M96.7982 138.125C97.4697 139.667 97.9757 141.277 98.3077 142.926C98.5997 144.046 98.9714 145.159 99.3686 146.266C100.261 148.753 101.294 151.203 102.404 153.633C104.562 158.467 107.16 163.093 110.165 167.451C111.182 168.899 112.189 170.363 113.114 171.877C114.038 173.39 114.813 174.955 115.668 176.459C115.702 176.521 115.759 176.566 115.826 176.586C115.894 176.605 115.966 176.597 116.028 176.563C116.089 176.529 116.135 176.471 116.154 176.404C116.173 176.336 116.165 176.264 116.131 176.203C113.574 171.036 109.911 166.579 107.075 161.594C104.327 156.778 101.967 151.75 100.016 146.56C99.557 145.32 99.1654 144.13 98.802 142.892C98.4067 141.197 97.7928 139.561 96.9759 138.024C96.9636 138.007 96.9461 137.993 96.926 137.986C96.9058 137.979 96.8839 137.978 96.8631 137.983C96.8423 137.988 96.8236 138 96.8097 138.016C96.7957 138.033 96.787 138.053 96.7849 138.074L96.7982 138.125Z" fill="url(#paint32_radial)"/>
<path d="M98.5615 141.188C99.509 144.354 101.474 147.146 102.885 150.11C104.007 152.537 105 155.093 106.116 157.548C107.312 160.353 108.719 163.064 110.323 165.657C111.211 167.03 112.204 168.335 113.127 169.685C114.047 171.084 114.88 172.538 115.621 174.039C115.653 174.088 115.701 174.124 115.756 174.141C115.812 174.159 115.872 174.156 115.926 174.134C115.979 174.112 116.024 174.072 116.051 174.02C116.079 173.969 116.087 173.909 116.076 173.852C115.385 171.204 113.419 168.875 111.852 166.673C110.153 164.171 108.672 161.527 107.427 158.77C106.139 156.02 104.882 153.233 103.693 150.443C103.01 148.974 102.247 147.543 101.407 146.158C100.373 144.558 99.4482 142.892 98.6379 141.169L98.5615 141.188Z" fill="url(#paint33_radial)"/>
<path d="M114.179 173.205C112.63 171.021 110.667 169.162 108.402 167.735C106.018 166.052 103.533 164.516 100.962 163.134C98.283 161.725 95.6934 160.152 93.2083 158.424C90.8363 156.499 88.8415 154.152 87.3246 151.5L86.859 151.853C88.4527 153.395 90.2082 154.761 92.0951 155.927C94.1198 157.053 96.2406 157.998 98.4325 158.749C102.827 160.36 106.689 163.156 109.593 166.826C109.858 167.165 110.439 166.837 110.174 166.498C107.504 163.061 103.993 160.37 99.9796 158.685C97.6434 157.703 95.2201 156.962 92.9775 155.765C90.8648 154.64 88.9498 153.178 87.3081 151.437C87.0789 151.184 86.6991 151.5 86.8552 151.786C88.1598 154.318 89.9434 156.573 92.1073 158.426C94.4879 160.208 97.0073 161.798 99.6415 163.179C102.257 164.659 104.901 166.091 107.391 167.767C108.628 168.579 109.806 169.476 110.919 170.451C111.962 171.376 112.879 172.442 113.925 173.38C114.044 173.471 114.218 173.303 114.153 173.211L114.179 173.205Z" fill="url(#paint34_radial)"/>
<path d="M110.554 203.586C109.845 200.804 108.926 198.08 107.805 195.437C106.798 192.857 105.534 190.385 104.033 188.058C102.537 185.865 100.525 184.2 98.8425 182.177C97.183 179.908 95.8478 177.419 94.8754 174.781C94.8223 174.577 94.4403 174.677 94.4552 174.891C94.7579 180.216 96.5665 185.347 99.6705 189.685C100.421 190.74 101.261 191.718 102.082 192.727C102.971 193.925 103.735 195.212 104.36 196.566C105.649 198.952 107.293 201.127 109.237 203.018C109.459 203.246 109.746 202.886 109.572 202.686C107.731 200.625 106.099 198.386 104.702 196.001C104.198 194.856 103.581 193.764 102.86 192.742C102.052 191.675 101.139 190.675 100.34 189.592C97.046 185.366 95.1448 180.222 94.8986 174.87L94.4491 174.919C95.2353 177.496 96.4424 179.924 98.0216 182.106C99.6413 184.199 101.786 185.802 103.339 187.953C106.698 192.598 108.504 198.274 110.287 203.656C110.306 203.688 110.335 203.713 110.369 203.727C110.403 203.741 110.441 203.744 110.477 203.734C110.513 203.725 110.545 203.704 110.568 203.675C110.591 203.646 110.604 203.61 110.605 203.573L110.554 203.586Z" fill="url(#paint35_radial)"/>
<path d="M176.653 271.788C173.881 260.573 174.279 248.809 177.805 237.808L177.187 237.629C176.57 239.802 177.26 242.029 177.54 244.2C177.934 246.856 178.102 249.542 178.041 252.227C177.913 256.952 176.905 261.538 176.585 266.204C176.312 268.595 176.482 271.017 177.087 273.347C177.11 273.435 177.166 273.51 177.245 273.556C177.323 273.602 177.416 273.615 177.504 273.592C177.592 273.569 177.667 273.512 177.713 273.434C177.759 273.356 177.772 273.262 177.749 273.175C176.539 267.698 177.894 262.096 178.491 256.665C178.841 253.461 178.864 250.229 178.56 247.02C178.414 245.467 178.191 243.935 177.914 242.402C177.507 240.907 177.456 239.337 177.766 237.818C177.778 237.777 177.782 237.735 177.777 237.693C177.773 237.651 177.76 237.61 177.739 237.573C177.719 237.536 177.691 237.504 177.658 237.477C177.625 237.451 177.588 237.431 177.547 237.42C177.507 237.408 177.464 237.404 177.422 237.409C177.38 237.414 177.339 237.426 177.302 237.447C177.265 237.467 177.233 237.495 177.206 237.528C177.18 237.561 177.161 237.598 177.149 237.639C175.413 243.103 174.435 248.779 174.244 254.509C173.958 260.375 174.621 266.249 176.208 271.904C176.234 271.954 176.276 271.993 176.328 272.016C176.379 272.039 176.437 272.044 176.492 272.029C176.546 272.015 176.594 271.983 176.628 271.938C176.662 271.893 176.68 271.837 176.679 271.781L176.653 271.788Z" fill="url(#paint36_radial)"/>
<path d="M214.742 224.483C215.1 221.63 216.546 219.038 216.991 216.237C217.35 213.369 217.283 210.465 216.794 207.617C215.879 202.785 214.12 198.151 211.598 193.929C210.959 192.439 209.952 191.136 208.671 190.143C207.415 189.418 206.459 190.431 206.311 191.673C206.242 193.648 206.572 195.616 207.282 197.46C208.075 200.135 209.015 202.764 210.097 205.336C212.621 211.362 215.397 217.778 214.058 224.421C213.94 224.943 214.863 225.136 214.981 224.614C216.073 219.635 214.815 214.664 213.073 209.983C211.059 205.286 209.304 200.481 207.816 195.591C207.639 194.923 206.569 190.925 207.951 190.869C208.426 190.859 208.938 191.575 209.208 191.888C209.754 192.571 210.237 193.302 210.65 194.073C213.01 197.908 214.74 202.096 215.772 206.48C216.432 209.559 216.598 212.724 216.263 215.855C215.92 218.8 214.53 221.554 214.436 224.494C214.443 224.541 214.465 224.585 214.499 224.618C214.534 224.65 214.579 224.67 214.626 224.674C214.674 224.677 214.721 224.664 214.76 224.637C214.799 224.61 214.828 224.57 214.841 224.524L214.742 224.483Z" fill="url(#paint37_radial)"/>
<path d="M214.33 224.395C213.141 228.259 214.76 231.846 215.913 235.5C216.543 237.501 217.15 239.522 217.619 241.578C218.076 243.791 218.28 246.049 218.227 248.309C218.219 248.715 218.838 248.896 218.927 248.462C219.899 244.491 218.334 240.163 217.18 236.385C216.025 232.607 213.812 228.648 214.749 224.539C214.802 224.283 214.406 224.141 214.33 224.395Z" fill="url(#paint38_radial)"/>
<path d="M209.694 215.797C211.049 218.507 211.965 221.414 212.41 224.411C212.607 225.832 212.898 227.238 213.283 228.62C213.485 229.271 213.72 229.91 213.988 230.536C214.155 231.128 214.468 231.668 214.899 232.106C214.94 232.133 214.987 232.149 215.035 232.152C215.084 232.155 215.132 232.145 215.175 232.122C215.218 232.1 215.255 232.067 215.281 232.026C215.307 231.984 215.321 231.937 215.322 231.888C215.218 231.287 215 230.711 214.68 230.192C214.369 229.514 214.115 228.829 213.85 228.132C213.362 226.717 213.012 225.257 212.807 223.774C212.386 220.91 211.379 218.163 209.848 215.707C209.834 215.691 209.814 215.681 209.793 215.679C209.772 215.678 209.751 215.684 209.735 215.698C209.719 215.712 209.71 215.732 209.708 215.753C209.706 215.774 209.713 215.794 209.727 215.81L209.694 215.797Z" fill="url(#paint39_radial)"/>
<path d="M211.072 217.932C207.202 207.832 204.776 195.625 195.443 188.993C194.101 188.047 189.763 184.721 188.135 186.882C186.952 188.511 188.559 190.448 189.649 191.59C191.986 194.033 194.029 196.793 196.195 199.405C198.629 202.374 201.207 205.219 203.639 208.212C206.18 211.35 208.538 214.632 210.703 218.04C210.746 218.094 210.807 218.131 210.874 218.145C210.942 218.16 211.012 218.151 211.073 218.12C211.135 218.089 211.184 218.038 211.213 217.975C211.241 217.912 211.248 217.841 211.231 217.775C208.613 212.104 204.191 207.315 200.169 202.624C198.089 200.211 195.988 197.628 193.939 195.104C192.993 194.006 192.117 192.869 191.111 191.823C190.228 191.031 189.474 190.106 188.875 189.082C188.664 188.57 188.498 187.62 189.108 187.304C189.719 186.988 190.259 187.322 190.7 187.467C192.149 188.033 193.514 188.795 194.755 189.733C198.076 192.146 200.792 195.297 202.689 198.937C206.011 205.011 207.545 211.889 210.855 217.973C210.917 218.045 211.022 217.996 210.963 217.879L211.072 217.932Z" fill="url(#paint40_radial)"/>
<path d="M194.653 208.471C198.201 211.689 201.499 215.173 204.518 218.892C205.652 220.353 206.726 221.867 207.834 223.372C209.157 225.175 210.575 226.918 211.862 228.753C212.781 230.063 213.565 231.363 214.334 232.719C214.886 233.93 215.532 235.095 216.267 236.205C216.506 236.482 216.908 236.241 216.876 235.911C216.622 234.754 216.147 233.657 215.478 232.68C214.829 231.536 214.133 230.412 213.378 229.317C212.024 227.33 210.44 225.542 208.98 223.604C206.738 220.442 204.315 217.412 201.725 214.529C199.552 212.285 197.255 210.165 194.844 208.18C194.719 208.035 194.485 208.3 194.591 208.399L194.653 208.471Z" fill="url(#paint41_radial)"/>
<path d="M196.939 210.074C195.136 207.591 193.2 205.223 191.479 202.69C189.758 200.157 188.332 197.77 186.706 195.323C185.129 192.871 183.255 190.623 181.127 188.631C179.79 187.213 178.197 186.06 176.432 185.234C175.331 184.858 174.017 185.213 174.075 186.572C174.3 187.858 174.843 189.066 175.655 190.088C177.155 192.39 178.716 194.64 180.36 196.84C182.076 199.294 183.998 201.598 186.106 203.726C187.853 205.321 189.767 206.724 191.815 207.909C193.748 209.103 195.7 210.343 197.748 211.353C198.042 211.499 198.194 210.968 197.988 210.851C194.871 208.723 191.599 206.854 188.597 204.543C184.623 201.493 181.653 197.072 178.779 193.03C177.646 191.525 176.597 189.958 175.638 188.337C175.292 187.832 175.046 187.265 174.914 186.668C174.806 185.542 176.044 185.905 176.682 186.28C177.428 186.704 178.122 187.214 178.749 187.799C179.601 188.495 180.455 189.168 181.255 189.95C183.089 191.806 184.732 193.842 186.157 196.028C189.455 200.902 192.385 206.156 196.591 210.353C196.627 210.394 196.678 210.42 196.733 210.424C196.787 210.428 196.842 210.41 196.883 210.374C196.925 210.338 196.95 210.288 196.955 210.233C196.959 210.178 196.941 210.124 196.905 210.082L196.939 210.074Z" fill="url(#paint42_radial)"/>
<path d="M257.229 170.66C255.611 173.149 254.732 176.009 253.147 178.511C251.325 181.126 249.087 183.425 246.521 185.315C244.046 187.322 241.649 189.2 239.452 191.409C237.296 193.535 235.32 195.836 233.544 198.288C231.475 201.039 229.686 203.99 228.205 207.096C227.974 207.61 228.845 208.058 229.12 207.548C231.902 201.987 235.51 196.879 239.819 192.396C242.065 190.239 244.425 188.205 246.889 186.302C249.249 184.52 251.329 182.394 253.059 179.995C254.943 177.131 255.745 173.769 257.527 170.761C257.54 170.73 257.541 170.696 257.531 170.664C257.522 170.632 257.501 170.604 257.472 170.586C257.444 170.567 257.41 170.56 257.377 170.564C257.343 170.568 257.313 170.584 257.29 170.608L257.229 170.66Z" fill="url(#paint43_radial)"/>
<path d="M211.62 171.852C215.928 176.868 219.491 182.48 222.197 188.514C223.547 191.534 224.668 194.652 225.548 197.842C226.429 201.035 226.868 204.252 227.534 207.463C227.665 208.128 228.795 208.122 228.77 207.386C228.51 204.053 227.844 200.765 226.786 197.595C225.841 194.377 224.663 191.232 223.26 188.186C220.516 182.014 216.688 176.383 211.958 171.561C211.781 171.356 211.433 171.635 211.62 171.852Z" fill="url(#paint44_radial)"/>
<path d="M222.425 116.889C228.001 135.556 230.646 154.975 230.264 174.454C229.844 193.974 227.09 213.374 222.061 232.241C220.692 237.729 219.043 243.144 217.12 248.464C216.156 251.16 215.04 253.799 213.779 256.369C212.559 258.809 211.101 261.117 209.708 263.453C209.385 264.005 210.119 264.76 210.598 264.242C213.874 260.724 215.897 255.973 217.67 251.565C219.585 246.747 221.224 241.823 222.58 236.819C225.181 227.343 227.273 217.735 228.847 208.035C232.155 188.523 232.659 168.638 230.345 148.983C228.993 137.996 226.51 127.178 222.936 116.701C222.854 116.435 222.392 116.581 222.474 116.847L222.425 116.889Z" fill="url(#paint45_radial)"/>
<path d="M254.955 175.438C256.385 173.123 257.661 170.717 258.775 168.234C259.96 165.804 261.057 163.344 262.013 160.817C263.511 156.75 265.467 151.994 264.54 147.6C264.38 146.854 264.043 145.926 263.093 146.239C262.112 146.807 261.331 147.664 260.856 148.694C259.132 151.709 257.835 154.95 257.003 158.323C255.265 163.821 254.45 169.568 254.59 175.332C254.607 176.011 255.686 176.091 255.658 175.4C255.435 170.774 255.881 166.14 256.983 161.642C257.546 159.368 258.223 157.103 258.93 154.875C259.321 153.539 259.814 152.235 260.405 150.975C260.921 149.891 261.535 148.855 262.238 147.881C262.478 147.47 262.818 147.126 263.226 146.882C263.841 146.668 263.84 147.593 263.967 148.009C264.713 152.119 262.896 156.524 261.59 160.278C260.665 162.811 259.614 165.296 258.44 167.724C257.236 170.254 255.756 172.708 254.716 175.307C254.7 175.338 254.697 175.373 254.708 175.405C254.718 175.438 254.741 175.465 254.771 175.481C254.801 175.497 254.837 175.5 254.869 175.489C254.902 175.479 254.929 175.456 254.944 175.426L254.955 175.438Z" fill="url(#paint46_radial)"/>
<path d="M252.857 182.103C258.42 180.336 262.777 175.95 266.431 171.602C270.57 166.646 274.096 160.979 278.887 156.512C280.299 155.296 282.576 153.059 284.457 154.802C286.338 156.545 284.447 159.668 283.51 161.338C280.255 167.003 274.826 170.779 269.387 174.226C266.787 175.771 264.048 177.069 261.206 178.103C258.277 179.015 255.427 180.163 252.685 181.537C252.395 181.787 252.468 182.334 252.904 182.231C255.695 181.472 258.43 180.52 261.088 179.382C263.865 178.367 266.558 177.136 269.142 175.699C271.974 174.029 274.68 172.154 277.237 170.088C279.932 167.976 282.239 165.411 284.055 162.508C285.239 160.563 286.888 157.964 286.173 155.573C285.944 154.814 285.462 154.157 284.806 153.711C284.15 153.266 283.361 153.059 282.571 153.126C281.563 153.244 280.614 153.666 279.851 154.336C278.474 155.453 277.189 156.68 276.01 158.004C273.7 160.521 271.635 163.247 269.58 165.986C267.307 169.152 264.82 172.16 262.137 174.988C259.431 177.738 256.264 179.991 252.778 181.646C252.61 181.791 252.674 182.135 252.906 182.062L252.857 182.103Z" fill="url(#paint47_radial)"/>
<path d="M256.257 180.266C253.384 180.772 250.695 182.03 248.466 183.912C247.166 184.843 245.876 185.787 244.554 186.863L242.696 188.465C242.033 188.927 241.452 189.499 240.979 190.155C240.929 190.239 240.907 190.335 240.916 190.432C240.924 190.528 240.963 190.62 241.026 190.693C241.089 190.766 241.174 190.818 241.268 190.841C241.362 190.863 241.461 190.856 241.551 190.819C242.203 190.453 242.797 189.991 243.312 189.448L245.17 187.846C246.377 186.806 247.525 185.943 248.744 185.039C249.896 184.129 251.097 183.283 252.342 182.506C253.644 181.799 255.019 181.235 256.442 180.822C256.789 180.712 256.575 180.245 256.257 180.266Z" fill="url(#paint48_radial)"/>
<path d="M243.635 199.115C249.417 198.652 255.158 196.017 260.042 193.195C265.178 190.154 270.069 186.719 274.671 182.918C276.059 181.723 278.563 180.384 280.457 181.19C280.949 181.469 281.332 181.906 281.543 182.431C281.754 182.955 281.782 183.535 281.621 184.077C281.286 185.386 280.529 186.549 279.467 187.385C277.414 189.341 275.162 191.078 272.748 192.567C269.944 194.181 266.982 195.501 263.907 196.508C260.912 197.566 257.814 198.306 254.664 198.713C251.442 199.061 248.185 198.911 245.008 198.268C244.494 198.185 244.343 199.01 244.829 199.159C250.59 200.963 257.068 199.795 262.747 197.991C265.927 197.04 269.011 195.79 271.956 194.258C274.688 192.695 277.244 190.844 279.582 188.737C281.427 187.146 283.17 185.118 282.65 182.539C282.57 182.095 282.397 181.673 282.142 181.301C281.888 180.929 281.557 180.616 281.172 180.381C280.787 180.146 280.356 179.996 279.909 179.94C279.461 179.885 279.007 179.924 278.576 180.057C276.007 180.443 274.094 182.175 272.188 183.672C269.573 185.736 266.883 187.739 264.114 189.6C261.038 191.708 257.793 193.556 254.411 195.126C250.908 196.657 247.281 197.885 243.568 198.794C243.54 198.792 243.511 198.797 243.484 198.808C243.457 198.819 243.433 198.835 243.414 198.857C243.394 198.878 243.38 198.904 243.372 198.932C243.364 198.96 243.362 198.989 243.367 199.017C243.372 199.046 243.384 199.073 243.4 199.096C243.417 199.12 243.439 199.139 243.465 199.153C243.49 199.167 243.519 199.175 243.547 199.176C243.576 199.177 243.605 199.172 243.632 199.16L243.635 199.115Z" fill="url(#paint49_radial)"/>
<path d="M245.608 198.404C243.614 198.293 241.621 198.643 239.784 199.429C237.824 200.12 235.971 201.081 234.276 202.284C232.634 203.464 231.153 204.854 229.87 206.418C228.416 207.892 227.376 209.724 226.857 211.728C226.787 212.209 227.356 212.307 227.638 212.001C228.175 211.241 228.653 210.443 229.069 209.611C229.577 208.772 230.142 207.968 230.76 207.207C232.002 205.692 233.434 204.345 235.021 203.197C236.581 202.075 238.269 201.143 240.049 200.42C241.02 200.023 242.018 199.697 243.035 199.444C243.922 199.287 244.8 199.084 245.666 198.837C245.835 198.692 245.774 198.45 245.584 198.424L245.608 198.404Z" fill="url(#paint50_radial)"/>
<path d="M212.612 172.491C210.88 168.579 208.807 164.857 206.817 161.084C205.14 157.694 203.223 154.427 201.082 151.309C199.882 149.664 198.497 148.163 196.953 146.836C195.795 145.858 194.135 144.639 192.512 145.05C190.889 145.46 190.145 147.573 190.124 149.085C190.212 150.726 190.755 152.311 191.693 153.662C194.39 157.642 197.676 161.191 201.437 164.186C204.916 167.222 208.571 170.023 212.222 172.868C212.472 173.158 212.951 172.64 212.741 172.421C210.239 169.909 207.345 167.82 204.692 165.523C201.024 162.614 197.631 159.372 194.558 155.839C192.645 153.619 189.62 149.477 192.018 146.526C193.136 145.164 194.988 146.385 196.089 147.223C197.637 148.459 199.019 149.89 200.2 151.48C202.367 154.493 204.287 157.676 205.943 160.997C208.044 164.947 210.04 168.946 212.414 172.724C212.434 172.768 212.471 172.801 212.517 172.817C212.562 172.833 212.612 172.831 212.656 172.81C212.699 172.789 212.733 172.752 212.749 172.707C212.765 172.661 212.762 172.611 212.741 172.568L212.612 172.491Z" fill="url(#paint51_radial)"/>
<path d="M216.643 171.727C216.937 174.128 217.457 176.496 218.197 178.799C218.79 181.036 219.742 183.162 221.016 185.095C221.162 185.264 221.436 185.069 221.318 184.835C219.255 180.653 217.869 176.17 217.209 171.555C217.155 171.223 216.65 171.321 216.682 171.651L216.643 171.727Z" fill="url(#paint52_radial)"/>
<path d="M217.451 174.227C217.541 171.159 217.795 168.098 218.21 165.057C218.545 161.929 218.394 158.767 217.764 155.685C217.03 152.496 216.05 149.369 214.833 146.331C213.981 143.391 212.543 140.654 210.607 138.283C209.567 137.076 207.448 135.203 205.677 135.93C204.478 136.417 204.622 137.974 204.805 139.016C205.155 140.713 205.691 142.366 206.404 143.945L208.887 149.753C210.406 153.344 211.969 156.938 213.38 160.6C214.758 164.346 215.941 168.162 216.925 172.031C216.95 172.109 217.002 172.175 217.072 172.217C217.142 172.259 217.225 172.274 217.305 172.259C217.385 172.244 217.457 172.2 217.507 172.136C217.558 172.072 217.583 171.991 217.578 171.91C217.129 168.906 216.336 165.963 215.213 163.141C214.178 160.184 212.97 157.294 211.749 154.414C210 150.287 208.064 146.236 206.494 142.122C205.777 140.715 205.419 139.152 205.454 137.573C205.811 135.352 208.882 137.793 209.618 138.525C211.548 140.631 212.989 143.136 213.84 145.863C215.012 148.773 215.99 151.758 216.769 154.798C217.592 158.133 217.837 161.585 217.491 165.004C217.189 168.019 216.524 171.199 217.085 174.29C217.189 174.411 217.4 174.46 217.403 174.269L217.451 174.227Z" fill="url(#paint53_radial)"/>
<path d="M212.704 179.16C215.179 182.178 217.726 185.134 219.962 188.337C222.184 191.655 224.202 195.104 226.006 198.667C226.05 198.726 226.114 198.768 226.186 198.785C226.258 198.803 226.334 198.794 226.401 198.762C226.467 198.729 226.521 198.675 226.551 198.607C226.582 198.54 226.588 198.464 226.568 198.392C225.004 194.773 223.068 191.325 220.792 188.105C218.599 184.719 215.991 181.62 213.029 178.879C212.863 178.686 212.516 178.943 212.704 179.16Z" fill="url(#paint54_radial)"/>
<path d="M215.23 181.041C212.937 178.748 210.817 176.288 208.887 173.683C206.879 171.243 204.671 168.976 202.286 166.903C199.854 164.835 197.239 162.993 194.473 161.4C192.641 160.087 190.578 159.134 188.391 158.589C187.138 158.428 185.628 158.994 185.957 160.498C186.462 161.868 187.333 163.074 188.477 163.982C192.005 167.343 195.992 170.186 200.318 172.426C202.534 173.607 204.79 174.711 206.955 175.979C209.693 177.616 212.331 179.414 214.856 181.364C215.022 181.557 215.377 181.188 215.218 181.052C211.683 177.859 207.72 175.174 203.443 173.076C199.615 171.12 195.965 168.836 192.532 166.248C190.952 165.084 189.494 163.762 188.184 162.3C187.518 161.528 185.948 159.56 187.986 159.632C189.018 159.73 190.016 160.054 190.908 160.583C191.941 161.122 192.96 161.695 193.979 162.267C196.453 163.694 198.803 165.326 201.003 167.147C203.563 169.259 205.918 171.608 208.038 174.162C210.053 176.823 212.363 179.248 214.922 181.391C215.109 181.608 215.465 181.217 215.295 181.069L215.23 181.041Z" fill="url(#paint55_radial)"/>
<path d="M239.438 161.753C236.887 164.693 234.645 167.887 232.746 171.285C232.004 172.741 231.421 174.273 231.007 175.854C230.45 177.391 230.278 179.041 230.504 180.661C230.593 180.984 231.125 181.114 231.234 180.704C231.346 179.96 231.402 179.209 231.401 178.458C231.493 177.574 231.652 176.699 231.877 175.839C232.298 174.295 232.863 172.795 233.565 171.357C235.261 168.033 237.28 164.885 239.592 161.956C239.749 161.821 239.46 161.608 239.384 161.715L239.438 161.753Z" fill="url(#paint56_radial)"/>
<path d="M238.585 163.812C241.501 159.073 243.795 153.979 245.412 148.655C246.996 143.823 247.72 138.751 247.55 133.669C247.463 132.105 246.511 127.585 249.248 127.517C251.986 127.448 253.163 131.375 253.521 133.401C254.453 138.653 252.076 144.214 249.596 148.728C248.05 151.46 246.323 154.086 244.428 156.588C242.408 159.442 239.978 161.982 237.218 164.128C236.735 164.544 237.359 165.268 237.873 164.888C240.409 162.917 242.663 160.607 244.57 158.022C246.512 155.519 248.284 152.889 249.874 150.149C252.501 145.487 254.976 139.821 254.4 134.347C254.26 131.887 253.223 129.564 251.485 127.818C250.063 126.583 248.054 126.57 247.162 128.39C246.779 129.242 246.617 130.178 246.69 131.11C246.785 132.562 246.927 133.996 246.921 135.452C246.918 138.447 246.594 141.433 245.956 144.359C245.191 147.688 244.145 150.946 242.828 154.098C241.456 157.384 239.846 160.517 238.376 163.74C238.267 163.833 238.573 163.969 238.627 163.86L238.585 163.812Z" fill="url(#paint57_radial)"/>
<path d="M237.089 136.756C236.71 138.83 236.219 140.882 235.617 142.903C234.89 144.961 234.005 146.961 232.972 148.884C232.043 150.709 231.325 152.633 230.83 154.62C230.294 156.457 230.117 158.38 230.308 160.284C230.31 160.324 230.319 160.364 230.336 160.4C230.353 160.437 230.376 160.47 230.406 160.497C230.435 160.525 230.47 160.546 230.507 160.56C230.545 160.574 230.585 160.58 230.625 160.579C230.665 160.577 230.705 160.568 230.741 160.551C230.778 160.534 230.811 160.511 230.838 160.481C230.865 160.452 230.887 160.417 230.901 160.38C230.915 160.342 230.921 160.302 230.92 160.262C231.057 159.323 231.004 158.36 231.097 157.418C231.212 156.334 231.412 155.262 231.696 154.21C232.248 152.214 232.993 150.276 233.92 148.424C234.868 146.6 235.655 144.697 236.273 142.737C236.797 140.791 237.2 138.814 237.48 136.819C237.51 136.561 237.076 136.473 237.023 136.728L237.089 136.756Z" fill="url(#paint58_radial)"/>
<path d="M236.914 140.357C239.389 131.032 240.758 121.253 236.666 112.163C236.025 110.761 234.704 108.619 232.909 108.61C231.781 108.594 231.534 109.795 231.479 110.684C231.463 112.134 231.559 113.583 231.768 115.019C232.075 117.713 232.552 120.384 233.196 123.018C233.835 125.832 234.554 128.619 235.146 131.452C235.738 134.285 236.009 137.332 236.385 140.33C236.453 140.775 237.124 140.723 237.167 140.286C237.287 138.055 237.099 135.818 236.61 133.638C236.191 131.371 235.601 129.125 235.009 126.902C233.835 122.529 232.935 118.087 232.313 113.602C232.174 112.44 231.801 110.911 232.303 109.785C232.632 108.996 233.319 109.329 233.9 109.711C234.84 110.419 235.546 111.392 235.929 112.504C237.696 116.685 238.57 121.188 238.495 125.726C238.161 130.604 237.519 135.456 236.571 140.253C236.544 140.466 236.852 140.579 236.95 140.326L236.914 140.357Z" fill="url(#paint59_radial)"/>
<path d="M223.661 152.768C224.33 154.722 224.854 156.724 225.227 158.756C225.586 160.759 225.83 162.799 226.351 164.768C226.921 166.671 227.593 168.541 228.363 170.372L229.48 173.278C229.743 174.319 230.203 175.3 230.836 176.168C231.013 176.373 231.437 176.28 231.438 175.964C231.328 175.056 231.049 174.177 230.614 173.373C230.203 172.36 229.77 171.346 229.306 170.295C228.383 168.274 227.606 166.19 226.979 164.058C226.501 162.137 226.205 160.184 225.761 158.254C225.304 156.319 224.685 154.425 223.911 152.594C223.786 152.45 223.575 152.547 223.681 152.792L223.661 152.768Z" fill="url(#paint60_radial)"/>
<path d="M225.079 156.046C224.247 155.081 224.544 153.353 224.441 152.16C224.337 150.966 224.156 149.609 223.966 148.364C223.571 145.952 223.008 143.571 222.281 141.237C220.981 136.492 218.997 131.963 216.389 127.791C215.589 126.348 214.329 125.213 212.811 124.567C211.777 124.197 210.565 124.401 210.222 125.516C210.061 126.264 210.15 127.044 210.475 127.737C210.942 128.978 211.502 130.182 212.151 131.339C213.396 133.588 214.842 135.706 216.134 137.936C217.574 140.437 218.777 143.101 220.04 145.713C221.304 148.325 222.537 151.341 223.961 154.066C224.179 154.32 224.683 154.222 224.575 153.852C223.801 151.648 222.861 149.506 221.764 147.444C220.696 145.253 219.561 143.035 218.522 140.902C216.511 136.812 213.683 133.214 211.694 129.126C211.223 128.165 210.442 126.82 210.82 125.673C211.199 124.527 212.185 124.939 212.917 125.275C214.64 126.284 216.004 127.806 216.817 129.63C217.951 131.662 218.915 133.785 219.701 135.976C220.525 138.103 221.292 140.261 221.978 142.423C222.671 144.775 223.199 147.173 223.558 149.598C223.739 150.809 223.864 152.026 223.978 153.232C223.935 153.761 223.997 154.293 224.161 154.797C224.326 155.302 224.588 155.769 224.934 156.171C225.007 156.256 225.152 156.131 225.079 156.046Z" fill="url(#paint61_radial)"/>
<path d="M224.507 121.256C224.037 116.93 223.374 112.624 222.95 108.278C222.637 104.119 221.906 100.001 220.767 95.988C219.543 92.1806 217.827 88.5493 215.662 85.1862C214.624 83.531 213.498 81.9322 212.29 80.3965C211.537 79.3216 210.586 78.4003 209.488 77.6818C209.234 77.4831 208.935 77.3497 208.618 77.2931C208.3 77.2365 207.974 77.2585 207.667 77.3572C207.36 77.4559 207.082 77.6282 206.856 77.8591C206.631 78.09 206.466 78.3726 206.376 78.682C205.877 80.6255 205.941 82.6706 206.56 84.5792C207.283 86.9531 208.277 89.2358 209.522 91.3825C210.974 94.1892 212.485 96.9663 213.973 99.7417C215.854 103.314 217.723 106.897 219.405 110.556C221.087 114.216 222.483 117.786 223.861 121.434C223.993 121.783 224.571 121.6 224.474 121.243C222.983 115 219.864 109.088 216.918 103.427C214.24 98.2709 211.305 93.2312 208.756 88.0057C207.689 85.9847 207.05 83.7652 206.879 81.4861C206.835 80.5568 206.79 77.8205 208.349 78.1168C209.373 78.527 210.253 79.233 210.875 80.1448C212.019 81.517 213.07 82.9644 214.02 84.4773C216.229 87.7133 218.048 91.199 219.439 94.8619C220.799 98.9948 221.664 103.274 222.017 107.611C222.355 112.219 222.977 116.802 223.88 121.334C223.887 121.373 223.902 121.41 223.924 121.444C223.946 121.477 223.974 121.506 224.007 121.528C224.04 121.55 224.077 121.566 224.116 121.574C224.155 121.582 224.195 121.582 224.234 121.575C224.274 121.567 224.311 121.552 224.344 121.53C224.377 121.509 224.406 121.48 224.428 121.447C224.451 121.414 224.466 121.377 224.474 121.338C224.483 121.299 224.483 121.259 224.475 121.22L224.507 121.256Z" fill="url(#paint62_radial)"/>
<path d="M233.224 90.4849C231.598 97.1853 228.506 103.404 226.648 110.031C225.887 112.603 225.458 115.262 225.373 117.943C225.372 120.382 225.455 122.918 225.633 125.393C225.72 127.939 226.05 130.471 226.62 132.953C226.648 133.048 226.71 133.129 226.794 133.18C226.878 133.232 226.978 133.25 227.075 133.232C227.172 133.214 227.259 133.161 227.318 133.082C227.378 133.004 227.407 132.906 227.399 132.808C226.966 128.134 226.397 123.473 226.349 118.783C226.293 112.839 228.411 107.124 230.416 101.547C231.751 97.9852 232.869 94.346 233.765 90.6493C233.821 90.3485 233.38 90.2029 233.314 90.4916L233.224 90.4849Z" fill="url(#paint63_radial)"/>
<path d="M231.761 97.1307C233.344 94.101 234.748 90.9811 235.966 87.7871C237.304 84.7893 238.391 81.6857 239.217 78.5082C240.395 73.9854 240.263 69.2208 238.835 64.7704C238.382 63.4156 236.517 57.4954 234.165 59.5231C233.43 60.3328 232.987 61.3657 232.908 62.4564C232.679 63.7148 232.517 64.9844 232.423 66.26C232.238 69.0781 232.217 71.9045 232.36 74.725C232.79 81.0881 232.886 87.4694 232.648 93.8426C232.622 94.202 233.117 94.2161 233.187 93.8825C234.157 89.0307 233.536 83.8465 233.244 78.9463C232.731 73.7981 232.726 68.6119 233.229 63.4627C233.376 62.2426 233.508 60.4681 234.61 59.7706C235.191 59.3959 235.719 59.7399 236.112 60.2208C237.069 61.5541 237.744 63.0681 238.097 64.6705C239.374 68.828 239.56 73.244 238.637 77.4941C237.857 80.7604 236.785 83.9501 235.435 87.025C234.062 90.3111 232.3 93.5118 231.316 96.8832C231.251 97.1494 231.691 97.3175 231.785 97.1099L231.761 97.1307Z" fill="url(#paint64_radial)"/>
<path d="M238.482 91.9252C236.717 95.9275 233.814 99.1453 231.187 102.587C229.972 104.102 228.902 105.728 227.993 107.443C227.585 108.265 227.235 109.115 226.946 109.985C226.583 110.777 226.414 111.643 226.454 112.512C226.461 112.564 226.484 112.612 226.519 112.65C226.554 112.688 226.601 112.715 226.651 112.726C226.702 112.737 226.755 112.732 226.803 112.713C226.851 112.693 226.892 112.659 226.92 112.615C227.264 111.783 227.536 110.923 227.732 110.044C228.038 109.118 228.414 108.217 228.858 107.349C229.801 105.557 230.879 103.84 232.084 102.213C234.623 99.0448 236.809 95.6096 238.603 91.968C238.7 91.8848 238.426 91.7629 238.382 91.9064L238.482 91.9252Z" fill="url(#paint65_radial)"/>
<path d="M237.901 93.6661C240.581 90.1156 242.468 86.1336 244.726 82.3372C246.873 79.1756 248.171 75.5153 248.496 71.7077C248.673 70.4613 248.429 69.1914 247.803 68.0991C247.617 67.8827 247.389 67.7052 247.134 67.5771C246.878 67.449 246.6 67.3727 246.315 67.3526C246.03 67.3325 245.743 67.369 245.472 67.4601C245.202 67.5511 244.951 67.6949 244.736 67.8831C244.144 68.4882 243.696 69.2194 243.426 70.0219C243.004 70.9693 242.642 71.9418 242.34 72.934C241.728 74.9421 241.226 76.9821 240.837 79.0449C240.357 81.5615 239.913 84.0469 239.409 86.5843C238.904 89.1217 238.141 91.1882 237.451 93.486C237.332 93.8836 237.906 94.2085 238.116 93.8175C239.86 90.6945 240.414 86.7266 240.973 83.3012C241.525 79.4227 242.398 75.5968 243.583 71.863C243.994 70.7303 245.142 67.2808 246.911 68.4056C247.913 69.0559 247.758 70.998 247.651 71.9726C247.262 75.5407 246.037 78.9667 244.076 81.9727C241.861 85.795 239.93 89.7511 237.552 93.5047C237.525 93.5446 237.515 93.5936 237.524 93.6409C237.533 93.6882 237.561 93.7299 237.601 93.7568C237.641 93.7837 237.69 93.7936 237.737 93.7844C237.784 93.7752 237.826 93.7476 237.853 93.7077L237.901 93.6661Z" fill="url(#paint66_radial)"/>
<path d="M216.493 121.667C221.024 126.298 224.763 131.642 227.562 137.485C227.728 137.824 228.327 137.666 228.221 137.274C227.387 134.523 226.067 131.943 224.325 129.656C222.12 126.651 219.612 123.881 216.841 121.388C216.654 121.171 216.304 121.472 216.503 121.679L216.493 121.667Z" fill="url(#paint67_radial)"/>
<path d="M216.456 121.234C212.986 117.675 208.884 114.794 204.359 112.737C199.599 110.532 194.709 108.86 190.588 105.494C189.355 104.454 186.914 102.353 187.188 100.476C187.463 98.5993 190.484 99.738 191.548 100.167C196.034 102.061 200.162 104.712 203.75 108.005C208.252 112.187 212.421 116.714 216.219 121.544C216.416 121.773 216.732 121.48 216.569 121.242C212.951 116.269 208.82 111.689 204.245 107.579C200.635 104.118 196.436 101.329 191.846 99.3421C190.521 98.7809 188.56 97.9692 187.218 98.8522C185.877 99.7353 186.163 101.507 186.884 102.757C188.184 104.764 189.919 106.452 191.961 107.696C194.321 109.225 196.834 110.505 199.458 111.516C202.452 112.65 205.364 113.991 208.173 115.527C211.063 117.222 213.78 119.198 216.284 121.424C216.399 121.557 216.626 121.382 216.501 121.237L216.456 121.234Z" fill="url(#paint68_radial)"/>
<path d="M212.398 115.965C211.768 114.405 211.03 112.939 210.412 111.368C209.795 109.798 209.171 108.001 208.631 106.301C207.643 103.179 206.746 100.041 205.489 97.0452C204.256 93.9113 202.424 91.0481 200.095 88.6161C198.716 87.2604 197.045 85.42 195.102 84.9711C193.795 84.6258 192.672 85.1523 192.887 86.5234C193.271 88.1007 193.981 89.5803 194.97 90.8675C196.459 93.1799 198.042 95.4317 199.555 97.7233C201.219 100.263 202.905 102.805 204.581 105.335C206.687 108.461 208.67 111.713 210.966 114.718C211.009 114.764 211.066 114.793 211.129 114.801C211.191 114.809 211.254 114.796 211.307 114.762C211.361 114.729 211.401 114.678 211.42 114.618C211.44 114.558 211.438 114.494 211.416 114.435C209.951 111.808 208.202 109.341 206.535 106.846C205.043 104.578 203.517 102.32 202.001 100.073C200.485 97.8261 198.785 95.3173 197.201 92.9187C196.318 91.5772 195.423 90.246 194.699 88.8937C194.412 88.3417 192.878 85.879 194.096 85.7547C195.131 85.8129 196.108 86.2513 196.839 86.9857C197.645 87.6412 198.415 88.3391 199.146 89.0765C201.418 91.3915 203.214 94.1298 204.432 97.1363C205.788 100.32 206.76 103.667 207.826 106.953C208.668 110.284 210.098 113.438 212.048 116.266C212.077 116.284 212.11 116.291 212.144 116.289C212.177 116.286 212.209 116.272 212.234 116.251C212.26 116.229 212.277 116.199 212.285 116.167C212.293 116.134 212.29 116.1 212.277 116.069L212.398 115.965Z" fill="url(#paint69_radial)"/>
<defs>
<radialGradient id="paint0_radial" cx="0" cy="0" r="1" gradientUnits="userSpaceOnUse" gradientTransform="translate(138.774 82.4236) rotate(90.8599) scale(253.932 218.532)">
<stop stop-color="#DBD3C6"/>
<stop offset="0.14" stop-color="#D3C9B9"/>
<stop offset="0.43" stop-color="#C5B9A5"/>
<stop offset="0.71" stop-color="#BEB099"/>
<stop offset="1" stop-color="#BBAD95"/>
</radialGradient>
<radialGradient id="paint1_radial" cx="0" cy="0" r="1" gradientUnits="userSpaceOnUse" gradientTransform="translate(160.145 209.227) rotate(81.0367) scale(75.0503 24.5943)">
<stop stop-color="#DBD3C6"/>
<stop offset="0.14" stop-color="#D3C9B9"/>
<stop offset="0.43" stop-color="#C5B9A5"/>
<stop offset="0.71" stop-color="#BEB099"/>
<stop offset="1" stop-color="#BBAD95"/>
</radialGradient>
<radialGradient id="paint2_radial" cx="0" cy="0" r="1" gradientUnits="userSpaceOnUse" gradientTransform="translate(160.011 212.017) rotate(84.2392) scale(64.0437 32.5854)">
<stop stop-color="#DBD3C6"/>
<stop offset="0.14" stop-color="#D3C9B9"/>
<stop offset="0.43" stop-color="#C5B9A5"/>
<stop offset="0.71" stop-color="#BEB099"/>
<stop offset="1" stop-color="#BBAD95"/>
</radialGradient>
<radialGradient id="paint3_radial" cx="0" cy="0" r="1" gradientUnits="userSpaceOnUse" gradientTransform="translate(160.108 212.521) rotate(79.3589) scale(60.4968 13.9777)">
<stop stop-color="#DBD3C6"/>
<stop offset="0.14" stop-color="#D3C9B9"/>
<stop offset="0.43" stop-color="#C5B9A5"/>
<stop offset="0.71" stop-color="#BEB099"/>
<stop offset="1" stop-color="#BBAD95"/>
</radialGradient>
<radialGradient id="paint4_radial" cx="0" cy="0" r="1" gradientUnits="userSpaceOnUse" gradientTransform="translate(160.508 211.823) rotate(79.517) scale(61.8437 14.8544)">
<stop stop-color="#DBD3C6"/>
<stop offset="0.14" stop-color="#D3C9B9"/>
<stop offset="0.43" stop-color="#C5B9A5"/>
<stop offset="0.71" stop-color="#BEB099"/>
<stop offset="1" stop-color="#BBAD95"/>
</radialGradient>
<radialGradient id="paint5_radial" cx="0" cy="0" r="1" gradientUnits="userSpaceOnUse" gradientTransform="translate(155.911 212.144) rotate(86.507) scale(58.9915 37.3611)">
<stop stop-color="#DBD3C6"/>
<stop offset="0.14" stop-color="#D3C9B9"/>
<stop offset="0.43" stop-color="#C5B9A5"/>
<stop offset="0.71" stop-color="#BEB099"/>
<stop offset="1" stop-color="#BBAD95"/>
</radialGradient>
<radialGradient id="paint6_radial" cx="0" cy="0" r="1" gradientUnits="userSpaceOnUse" gradientTransform="translate(174.004 242.828) rotate(139.787) scale(90.8749 118.58)">
<stop stop-color="#DBD3C6"/>
<stop offset="0.14" stop-color="#D3C9B9"/>
<stop offset="0.43" stop-color="#C5B9A5"/>
<stop offset="0.71" stop-color="#BEB099"/>
<stop offset="1" stop-color="#BBAD95"/>
</radialGradient>
<radialGradient id="paint7_radial" cx="0" cy="0" r="1" gradientUnits="userSpaceOnUse" gradientTransform="translate(157.31 250.145) rotate(144.325) scale(63.9078 71.7751)">
<stop stop-color="#DBD3C6"/>
<stop offset="0.14" stop-color="#D3C9B9"/>
<stop offset="0.43" stop-color="#C5B9A5"/>
<stop offset="0.71" stop-color="#BEB099"/>
<stop offset="1" stop-color="#BBAD95"/>
</radialGradient>
<radialGradient id="paint8_radial" cx="0" cy="0" r="1" gradientUnits="userSpaceOnUse" gradientTransform="translate(155.793 250.304) rotate(144.386) scale(62.4777 70.0034)">
<stop stop-color="#DBD3C6"/>
<stop offset="0.14" stop-color="#D3C9B9"/>
<stop offset="0.43" stop-color="#C5B9A5"/>
<stop offset="0.71" stop-color="#BEB099"/>
<stop offset="1" stop-color="#BBAD95"/>
</radialGradient>
<radialGradient id="paint9_radial" cx="0" cy="0" r="1" gradientUnits="userSpaceOnUse" gradientTransform="translate(161.167 248.304) rotate(143.767) scale(69.8935 80.175)">
<stop stop-color="#DBD3C6"/>
<stop offset="0.14" stop-color="#D3C9B9"/>
<stop offset="0.43" stop-color="#C5B9A5"/>
<stop offset="0.71" stop-color="#BEB099"/>
<stop offset="1" stop-color="#BBAD95"/>
</radialGradient>
<radialGradient id="paint10_radial" cx="0" cy="0" r="1" gradientUnits="userSpaceOnUse" gradientTransform="translate(154.031 226.797) rotate(114.476) scale(66.2356 108.529)">
<stop stop-color="#DBD3C6"/>
<stop offset="0.14" stop-color="#D3C9B9"/>
<stop offset="0.43" stop-color="#C5B9A5"/>
<stop offset="0.71" stop-color="#BEB099"/>
<stop offset="1" stop-color="#BBAD95"/>
</radialGradient>
<radialGradient id="paint11_radial" cx="0" cy="0" r="1" gradientUnits="userSpaceOnUse" gradientTransform="translate(139.811 197.099) rotate(122) scale(94.2882 157.599)">
<stop stop-color="#DBD3C6"/>
<stop offset="0.14" stop-color="#D3C9B9"/>
<stop offset="0.43" stop-color="#C5B9A5"/>
<stop offset="0.71" stop-color="#BEB099"/>
<stop offset="1" stop-color="#BBAD95"/>
</radialGradient>
<radialGradient id="paint12_radial" cx="0" cy="0" r="1" gradientUnits="userSpaceOnUse" gradientTransform="translate(131.237 201.484) rotate(122.518) scale(77.0646 128.659)">
<stop stop-color="#DBD3C6"/>
<stop offset="0.14" stop-color="#D3C9B9"/>
<stop offset="0.43" stop-color="#C5B9A5"/>
<stop offset="0.71" stop-color="#BEB099"/>
<stop offset="1" stop-color="#BBAD95"/>
</radialGradient>
<radialGradient id="paint13_radial" cx="0" cy="0" r="1" gradientUnits="userSpaceOnUse" gradientTransform="translate(129.437 202.239) rotate(122.72) scale(73.31 122.323)">
<stop stop-color="#DBD3C6"/>
<stop offset="0.14" stop-color="#D3C9B9"/>
<stop offset="0.43" stop-color="#C5B9A5"/>
<stop offset="0.71" stop-color="#BEB099"/>
<stop offset="1" stop-color="#BBAD95"/>
</radialGradient>
<radialGradient id="paint14_radial" cx="0" cy="0" r="1" gradientUnits="userSpaceOnUse" gradientTransform="translate(121.679 197.631) rotate(96.3536) scale(52.9459 59.2202)">
<stop stop-color="#DBD3C6"/>
<stop offset="0.14" stop-color="#D3C9B9"/>
<stop offset="0.43" stop-color="#C5B9A5"/>
<stop offset="0.71" stop-color="#BEB099"/>
<stop offset="1" stop-color="#BBAD95"/>
</radialGradient>
<radialGradient id="paint15_radial" cx="0" cy="0" r="1" gradientUnits="userSpaceOnUse" gradientTransform="translate(159.517 166.003) rotate(108.858) scale(86.2552 132.853)">
<stop stop-color="#DBD3C6"/>
<stop offset="0.14" stop-color="#D3C9B9"/>
<stop offset="0.43" stop-color="#C5B9A5"/>
<stop offset="0.71" stop-color="#BEB099"/>
<stop offset="1" stop-color="#BBAD95"/>
</radialGradient>
<radialGradient id="paint16_radial" cx="0" cy="0" r="1" gradientUnits="userSpaceOnUse" gradientTransform="translate(159.544 170.402) rotate(114.404) scale(67.2295 110.099)">
<stop stop-color="#DBD3C6"/>
<stop offset="0.14" stop-color="#D3C9B9"/>
<stop offset="0.43" stop-color="#C5B9A5"/>
<stop offset="0.71" stop-color="#BEB099"/>
<stop offset="1" stop-color="#BBAD95"/>
</radialGradient>
<radialGradient id="paint17_radial" cx="0" cy="0" r="1" gradientUnits="userSpaceOnUse" gradientTransform="translate(160.222 169.842) rotate(115.311) scale(66.1285 108.969)">
<stop stop-color="#DBD3C6"/>
<stop offset="0.14" stop-color="#D3C9B9"/>
<stop offset="0.43" stop-color="#C5B9A5"/>
<stop offset="0.71" stop-color="#BEB099"/>
<stop offset="1" stop-color="#BBAD95"/>
</radialGradient>
<radialGradient id="paint18_radial" cx="0" cy="0" r="1" gradientUnits="userSpaceOnUse" gradientTransform="translate(160.326 170.056) rotate(115.726) scale(63.7785 105.358)">
<stop stop-color="#DBD3C6"/>
<stop offset="0.14" stop-color="#D3C9B9"/>
<stop offset="0.43" stop-color="#C5B9A5"/>
<stop offset="0.71" stop-color="#BEB099"/>
<stop offset="1" stop-color="#BBAD95"/>
</radialGradient>
<radialGradient id="paint19_radial" cx="0" cy="0" r="1" gradientUnits="userSpaceOnUse" gradientTransform="translate(143.753 164.288) rotate(96.5752) scale(63.9284 72.1177)">
<stop stop-color="#DBD3C6"/>
<stop offset="0.14" stop-color="#D3C9B9"/>
<stop offset="0.43" stop-color="#C5B9A5"/>
<stop offset="0.71" stop-color="#BEB099"/>
<stop offset="1" stop-color="#BBAD95"/>
</radialGradient>
<radialGradient id="paint20_radial" cx="0" cy="0" r="1" gradientUnits="userSpaceOnUse" gradientTransform="translate(112.497 157.483) rotate(112.44) scale(85.2438 137.243)">
<stop stop-color="#DBD3C6"/>
<stop offset="0.14" stop-color="#D3C9B9"/>
<stop offset="0.43" stop-color="#C5B9A5"/>
<stop offset="0.71" stop-color="#BEB099"/>
<stop offset="1" stop-color="#BBAD95"/>
</radialGradient>
<radialGradient id="paint21_radial" cx="0" cy="0" r="1" gradientUnits="userSpaceOnUse" gradientTransform="translate(100.221 164.225) rotate(111.757) scale(58.7744 93.9581)">
<stop stop-color="#DBD3C6"/>
<stop offset="0.14" stop-color="#D3C9B9"/>
<stop offset="0.43" stop-color="#C5B9A5"/>
<stop offset="0.71" stop-color="#BEB099"/>
<stop offset="1" stop-color="#BBAD95"/>
</radialGradient>
<radialGradient id="paint22_radial" cx="0" cy="0" r="1" gradientUnits="userSpaceOnUse" gradientTransform="translate(100.544 164.015) rotate(112.082) scale(59.1469 94.8809)">
<stop stop-color="#DBD3C6"/>
<stop offset="0.14" stop-color="#D3C9B9"/>
<stop offset="0.43" stop-color="#C5B9A5"/>
<stop offset="0.71" stop-color="#BEB099"/>
<stop offset="1" stop-color="#BBAD95"/>
</radialGradient>
<radialGradient id="paint23_radial" cx="0" cy="0" r="1" gradientUnits="userSpaceOnUse" gradientTransform="translate(102.783 163.192) rotate(112.715) scale(62.8742 101.501)">
<stop stop-color="#DBD3C6"/>
<stop offset="0.14" stop-color="#D3C9B9"/>
<stop offset="0.43" stop-color="#C5B9A5"/>
<stop offset="0.71" stop-color="#BEB099"/>
<stop offset="1" stop-color="#BBAD95"/>
</radialGradient>
<radialGradient id="paint24_radial" cx="0" cy="0" r="1" gradientUnits="userSpaceOnUse" gradientTransform="translate(110.381 184.25) rotate(136.062) scale(56.9536 81.4347)">
<stop stop-color="#DBD3C6"/>
<stop offset="0.14" stop-color="#D3C9B9"/>
<stop offset="0.43" stop-color="#C5B9A5"/>
<stop offset="0.71" stop-color="#BEB099"/>
<stop offset="1" stop-color="#BBAD95"/>
</radialGradient>
<radialGradient id="paint25_radial" cx="0" cy="0" r="1" gradientUnits="userSpaceOnUse" gradientTransform="translate(141.402 137.762) rotate(112.683) scale(74.2224 119.783)">
<stop stop-color="#DBD3C6"/>
<stop offset="0.14" stop-color="#D3C9B9"/>
<stop offset="0.43" stop-color="#C5B9A5"/>
<stop offset="0.71" stop-color="#BEB099"/>
<stop offset="1" stop-color="#BBAD95"/>
</radialGradient>
<radialGradient id="paint26_radial" cx="0" cy="0" r="1" gradientUnits="userSpaceOnUse" gradientTransform="translate(141.993 140.66) rotate(115.209) scale(52.1364 85.8568)">
<stop stop-color="#DBD3C6"/>
<stop offset="0.14" stop-color="#D3C9B9"/>
<stop offset="0.43" stop-color="#C5B9A5"/>
<stop offset="0.71" stop-color="#BEB099"/>
<stop offset="1" stop-color="#BBAD95"/>
</radialGradient>
<radialGradient id="paint27_radial" cx="0" cy="0" r="1" gradientUnits="userSpaceOnUse" gradientTransform="translate(141.922 141.652) rotate(115.719) scale(52.3188 86.424)">
<stop stop-color="#DBD3C6"/>
<stop offset="0.14" stop-color="#D3C9B9"/>
<stop offset="0.43" stop-color="#C5B9A5"/>
<stop offset="0.71" stop-color="#BEB099"/>
<stop offset="1" stop-color="#BBAD95"/>
</radialGradient>
<radialGradient id="paint28_radial" cx="0" cy="0" r="1" gradientUnits="userSpaceOnUse" gradientTransform="translate(141.701 140.355) rotate(114.801) scale(57.5184 94.4633)">
<stop stop-color="#DBD3C6"/>
<stop offset="0.14" stop-color="#D3C9B9"/>
<stop offset="0.43" stop-color="#C5B9A5"/>
<stop offset="0.71" stop-color="#BEB099"/>
<stop offset="1" stop-color="#BBAD95"/>
</radialGradient>
<radialGradient id="paint29_radial" cx="0" cy="0" r="1" gradientUnits="userSpaceOnUse" gradientTransform="translate(125.67 135.701) rotate(92.8639) scale(45.879 43.9913)">
<stop stop-color="#DBD3C6"/>
<stop offset="0.14" stop-color="#D3C9B9"/>
<stop offset="0.43" stop-color="#C5B9A5"/>
<stop offset="0.71" stop-color="#BEB099"/>
<stop offset="1" stop-color="#BBAD95"/>
</radialGradient>
<radialGradient id="paint30_radial" cx="0" cy="0" r="1" gradientUnits="userSpaceOnUse" gradientTransform="translate(103.525 125.32) rotate(86.9557) scale(59.7973 39.3181)">
<stop stop-color="#DBD3C6"/>
<stop offset="0.14" stop-color="#D3C9B9"/>
<stop offset="0.43" stop-color="#C5B9A5"/>
<stop offset="0.71" stop-color="#BEB099"/>
<stop offset="1" stop-color="#BBAD95"/>
</radialGradient>
<radialGradient id="paint31_radial" cx="0" cy="0" r="1" gradientUnits="userSpaceOnUse" gradientTransform="translate(105.044 124.766) rotate(88.9068) scale(60.3315 45.8985)">
<stop stop-color="#DBD3C6"/>
<stop offset="0.14" stop-color="#D3C9B9"/>
<stop offset="0.43" stop-color="#C5B9A5"/>
<stop offset="0.71" stop-color="#BEB099"/>
<stop offset="1" stop-color="#BBAD95"/>
</radialGradient>
<radialGradient id="paint32_radial" cx="0" cy="0" r="1" gradientUnits="userSpaceOnUse" gradientTransform="translate(103.134 125.397) rotate(86.1782) scale(61.854 38.0715)">
<stop stop-color="#DBD3C6"/>
<stop offset="0.14" stop-color="#D3C9B9"/>
<stop offset="0.43" stop-color="#C5B9A5"/>
<stop offset="0.71" stop-color="#BEB099"/>
<stop offset="1" stop-color="#BBAD95"/>
</radialGradient>
<radialGradient id="paint33_radial" cx="0" cy="0" r="1" gradientUnits="userSpaceOnUse" gradientTransform="translate(104.903 130.119) rotate(87.3491) scale(53.4019 36.2385)">
<stop stop-color="#DBD3C6"/>
<stop offset="0.14" stop-color="#D3C9B9"/>
<stop offset="0.43" stop-color="#C5B9A5"/>
<stop offset="0.71" stop-color="#BEB099"/>
<stop offset="1" stop-color="#BBAD95"/>
</radialGradient>
<radialGradient id="paint34_radial" cx="0" cy="0" r="1" gradientUnits="userSpaceOnUse" gradientTransform="translate(105.847 139.145) rotate(108.797) scale(48.5688 74.7386)">
<stop stop-color="#DBD3C6"/>
<stop offset="0.14" stop-color="#D3C9B9"/>
<stop offset="0.43" stop-color="#C5B9A5"/>
<stop offset="0.71" stop-color="#BEB099"/>
<stop offset="1" stop-color="#BBAD95"/>
</radialGradient>
<radialGradient id="paint35_radial" cx="0" cy="0" r="1" gradientUnits="userSpaceOnUse" gradientTransform="translate(100.72 164.756) rotate(89.1921) scale(47.6363 36.9459)">
<stop stop-color="#DBD3C6"/>
<stop offset="0.14" stop-color="#D3C9B9"/>
<stop offset="0.43" stop-color="#C5B9A5"/>
<stop offset="0.71" stop-color="#BEB099"/>
<stop offset="1" stop-color="#BBAD95"/>
</radialGradient>
<radialGradient id="paint36_radial" cx="0" cy="0" r="1" gradientUnits="userSpaceOnUse" gradientTransform="translate(175.714 228.752) rotate(89.7322) scale(52.1026 41.8599)">
<stop stop-color="#DBD3C6"/>
<stop offset="0.14" stop-color="#D3C9B9"/>
<stop offset="0.43" stop-color="#C5B9A5"/>
<stop offset="0.71" stop-color="#BEB099"/>
<stop offset="1" stop-color="#BBAD95"/>
</radialGradient>
<radialGradient id="paint37_radial" cx="0" cy="0" r="1" gradientUnits="userSpaceOnUse" gradientTransform="translate(203.361 182.975) rotate(76.9205) scale(50.9716 70.2066)">
<stop stop-color="#DBD3C6"/>
<stop offset="0.14" stop-color="#D3C9B9"/>
<stop offset="0.43" stop-color="#C5B9A5"/>
<stop offset="0.71" stop-color="#BEB099"/>
<stop offset="1" stop-color="#BBAD95"/>
</radialGradient>
<radialGradient id="paint38_radial" cx="0" cy="0" r="1" gradientUnits="userSpaceOnUse" gradientTransform="translate(211.29 219.894) rotate(77.6042) scale(34.9341 48.8967)">
<stop stop-color="#DBD3C6"/>
<stop offset="0.14" stop-color="#D3C9B9"/>
<stop offset="0.43" stop-color="#C5B9A5"/>
<stop offset="0.71" stop-color="#BEB099"/>
<stop offset="1" stop-color="#BBAD95"/>
</radialGradient>
<radialGradient id="paint39_radial" cx="0" cy="0" r="1" gradientUnits="userSpaceOnUse" gradientTransform="translate(207.301 212.488) rotate(70.0246) scale(24.6556 27.3877)">
<stop stop-color="#DBD3C6"/>
<stop offset="0.14" stop-color="#D3C9B9"/>
<stop offset="0.43" stop-color="#C5B9A5"/>
<stop offset="0.71" stop-color="#BEB099"/>
<stop offset="1" stop-color="#BBAD95"/>
</radialGradient>
<radialGradient id="paint40_radial" cx="0" cy="0" r="1" gradientUnits="userSpaceOnUse" gradientTransform="translate(185.579 176.192) rotate(59.6848) scale(56.6802 33.8345)">
<stop stop-color="#DBD3C6"/>
<stop offset="0.14" stop-color="#D3C9B9"/>
<stop offset="0.43" stop-color="#C5B9A5"/>
<stop offset="0.71" stop-color="#BEB099"/>
<stop offset="1" stop-color="#BBAD95"/>
</radialGradient>
<radialGradient id="paint41_radial" cx="0" cy="0" r="1" gradientUnits="userSpaceOnUse" gradientTransform="translate(189.793 200.532) rotate(53.7034) scale(51.5558 13.3933)">
<stop stop-color="#DBD3C6"/>
<stop offset="0.14" stop-color="#D3C9B9"/>
<stop offset="0.43" stop-color="#C5B9A5"/>
<stop offset="0.71" stop-color="#BEB099"/>
<stop offset="1" stop-color="#BBAD95"/>
</radialGradient>
<radialGradient id="paint42_radial" cx="0" cy="0" r="1" gradientUnits="userSpaceOnUse" gradientTransform="translate(171.277 176.649) rotate(58.4349) scale(50.9668 26.9184)">
<stop stop-color="#DBD3C6"/>
<stop offset="0.14" stop-color="#D3C9B9"/>
<stop offset="0.43" stop-color="#C5B9A5"/>
<stop offset="0.71" stop-color="#BEB099"/>
<stop offset="1" stop-color="#BBAD95"/>
</radialGradient>
<radialGradient id="paint43_radial" cx="0" cy="0" r="1" gradientUnits="userSpaceOnUse" gradientTransform="translate(256.709 167.916) rotate(125.967) scale(60.3644 45.1621)">
<stop stop-color="#DBD3C6"/>
<stop offset="0.14" stop-color="#D3C9B9"/>
<stop offset="0.43" stop-color="#C5B9A5"/>
<stop offset="0.71" stop-color="#BEB099"/>
<stop offset="1" stop-color="#BBAD95"/>
</radialGradient>
<radialGradient id="paint44_radial" cx="0" cy="0" r="1" gradientUnits="userSpaceOnUse" gradientTransform="translate(205.813 163.798) rotate(64.392) scale(57.51 48.5808)">
<stop stop-color="#DBD3C6"/>
<stop offset="0.14" stop-color="#D3C9B9"/>
<stop offset="0.43" stop-color="#C5B9A5"/>
<stop offset="0.71" stop-color="#BEB099"/>
<stop offset="1" stop-color="#BBAD95"/>
</radialGradient>
<radialGradient id="paint45_radial" cx="0" cy="0" r="1" gradientUnits="userSpaceOnUse" gradientTransform="translate(207.698 94.9169) rotate(91.2485) scale(201.68 335.793)">
<stop stop-color="#DBD3C6"/>
<stop offset="0.14" stop-color="#D3C9B9"/>
<stop offset="0.43" stop-color="#C5B9A5"/>
<stop offset="0.71" stop-color="#BEB099"/>
<stop offset="1" stop-color="#BBAD95"/>
</radialGradient>
<radialGradient id="paint46_radial" cx="0" cy="0" r="1" gradientUnits="userSpaceOnUse" gradientTransform="translate(261.1 142.021) rotate(102.017) scale(41.713 67.274)">
<stop stop-color="#DBD3C6"/>
<stop offset="0.14" stop-color="#D3C9B9"/>
<stop offset="0.43" stop-color="#C5B9A5"/>
<stop offset="0.71" stop-color="#BEB099"/>
<stop offset="1" stop-color="#BBAD95"/>
</radialGradient>
<radialGradient id="paint47_radial" cx="0" cy="0" r="1" gradientUnits="userSpaceOnUse" gradientTransform="translate(282.216 148.871) rotate(124.11) scale(56.6967 47.8313)">
<stop stop-color="#DBD3C6"/>
<stop offset="0.14" stop-color="#D3C9B9"/>
<stop offset="0.43" stop-color="#C5B9A5"/>
<stop offset="0.71" stop-color="#BEB099"/>
<stop offset="1" stop-color="#BBAD95"/>
</radialGradient>
<radialGradient id="paint48_radial" cx="0" cy="0" r="1" gradientUnits="userSpaceOnUse" gradientTransform="translate(254.422 177.229) rotate(127.959) scale(23.9278 15.3695)">
<stop stop-color="#DBD3C6"/>
<stop offset="0.14" stop-color="#D3C9B9"/>
<stop offset="0.43" stop-color="#C5B9A5"/>
<stop offset="0.71" stop-color="#BEB099"/>
<stop offset="1" stop-color="#BBAD95"/>
</radialGradient>
<radialGradient id="paint49_radial" cx="0" cy="0" r="1" gradientUnits="userSpaceOnUse" gradientTransform="translate(272.488 168.498) rotate(115.407) scale(56.9084 70.427)">
<stop stop-color="#DBD3C6"/>
<stop offset="0.14" stop-color="#D3C9B9"/>
<stop offset="0.43" stop-color="#C5B9A5"/>
<stop offset="0.71" stop-color="#BEB099"/>
<stop offset="1" stop-color="#BBAD95"/>
</radialGradient>
<radialGradient id="paint50_radial" cx="0" cy="0" r="1" gradientUnits="userSpaceOnUse" gradientTransform="translate(242.285 193.63) rotate(125.654) scale(30.1526 23.0508)">
<stop stop-color="#DBD3C6"/>
<stop offset="0.14" stop-color="#D3C9B9"/>
<stop offset="0.43" stop-color="#C5B9A5"/>
<stop offset="0.71" stop-color="#BEB099"/>
<stop offset="1" stop-color="#BBAD95"/>
</radialGradient>
<radialGradient id="paint51_radial" cx="0" cy="0" r="1" gradientUnits="userSpaceOnUse" gradientTransform="translate(188.762 136.535) rotate(62.2885) scale(50.9351 37.5101)">
<stop stop-color="#DBD3C6"/>
<stop offset="0.14" stop-color="#D3C9B9"/>
<stop offset="0.43" stop-color="#C5B9A5"/>
<stop offset="0.71" stop-color="#BEB099"/>
<stop offset="1" stop-color="#BBAD95"/>
</radialGradient>
<radialGradient id="paint52_radial" cx="0" cy="0" r="1" gradientUnits="userSpaceOnUse" gradientTransform="translate(214.918 168.605) rotate(70.9075) scale(20.6288 23.7)">
<stop stop-color="#DBD3C6"/>
<stop offset="0.14" stop-color="#D3C9B9"/>
<stop offset="0.43" stop-color="#C5B9A5"/>
<stop offset="0.71" stop-color="#BEB099"/>
<stop offset="1" stop-color="#BBAD95"/>
</radialGradient>
<radialGradient id="paint53_radial" cx="0" cy="0" r="1" gradientUnits="userSpaceOnUse" gradientTransform="translate(201.6 127.119) rotate(73.2435) scale(58.0833 72.2696)">
<stop stop-color="#DBD3C6"/>
<stop offset="0.14" stop-color="#D3C9B9"/>
<stop offset="0.43" stop-color="#C5B9A5"/>
<stop offset="0.71" stop-color="#BEB099"/>
<stop offset="1" stop-color="#BBAD95"/>
</radialGradient>
<radialGradient id="paint54_radial" cx="0" cy="0" r="1" gradientUnits="userSpaceOnUse" gradientTransform="translate(209.256 173.9) rotate(56.3548) scale(34.8514 14.3419)">
<stop stop-color="#DBD3C6"/>
<stop offset="0.14" stop-color="#D3C9B9"/>
<stop offset="0.43" stop-color="#C5B9A5"/>
<stop offset="0.71" stop-color="#BEB099"/>
<stop offset="1" stop-color="#BBAD95"/>
</radialGradient>
<radialGradient id="paint55_radial" cx="0" cy="0" r="1" gradientUnits="userSpaceOnUse" gradientTransform="translate(186.403 147.191) rotate(62.1613) scale(52.8233 38.5477)">
<stop stop-color="#DBD3C6"/>
<stop offset="0.14" stop-color="#D3C9B9"/>
<stop offset="0.43" stop-color="#C5B9A5"/>
<stop offset="0.71" stop-color="#BEB099"/>
<stop offset="1" stop-color="#BBAD95"/>
</radialGradient>
<radialGradient id="paint56_radial" cx="0" cy="0" r="1" gradientUnits="userSpaceOnUse" gradientTransform="translate(238.346 159.577) rotate(110.966) scale(27.7752 38.7961)">
<stop stop-color="#DBD3C6"/>
<stop offset="0.14" stop-color="#D3C9B9"/>
<stop offset="0.43" stop-color="#C5B9A5"/>
<stop offset="0.71" stop-color="#BEB099"/>
<stop offset="1" stop-color="#BBAD95"/>
</radialGradient>
<radialGradient id="paint57_radial" cx="0" cy="0" r="1" gradientUnits="userSpaceOnUse" gradientTransform="translate(246.868 121.078) rotate(103.935) scale(54.5004 86.0644)">
<stop stop-color="#DBD3C6"/>
<stop offset="0.14" stop-color="#D3C9B9"/>
<stop offset="0.43" stop-color="#C5B9A5"/>
<stop offset="0.71" stop-color="#BEB099"/>
<stop offset="1" stop-color="#BBAD95"/>
</radialGradient>
<radialGradient id="paint58_radial" cx="0" cy="0" r="1" gradientUnits="userSpaceOnUse" gradientTransform="translate(235.364 133.462) rotate(102) scale(33.3204 53.7475)">
<stop stop-color="#DBD3C6"/>
<stop offset="0.14" stop-color="#D3C9B9"/>
<stop offset="0.43" stop-color="#C5B9A5"/>
<stop offset="0.71" stop-color="#BEB099"/>
<stop offset="1" stop-color="#BBAD95"/>
</radialGradient>
<radialGradient id="paint59_radial" cx="0" cy="0" r="1" gradientUnits="userSpaceOnUse" gradientTransform="translate(229.312 102.276) rotate(80.965) scale(46.0592 68.9765)">
<stop stop-color="#DBD3C6"/>
<stop offset="0.14" stop-color="#D3C9B9"/>
<stop offset="0.43" stop-color="#C5B9A5"/>
<stop offset="0.71" stop-color="#BEB099"/>
<stop offset="1" stop-color="#BBAD95"/>
</radialGradient>
<radialGradient id="paint60_radial" cx="0" cy="0" r="1" gradientUnits="userSpaceOnUse" gradientTransform="translate(220.238 147.944) rotate(70.5836) scale(35.4052 40.1862)">
<stop stop-color="#DBD3C6"/>
<stop offset="0.14" stop-color="#D3C9B9"/>
<stop offset="0.43" stop-color="#C5B9A5"/>
<stop offset="0.71" stop-color="#BEB099"/>
<stop offset="1" stop-color="#BBAD95"/>
</radialGradient>
<radialGradient id="paint61_radial" cx="0" cy="0" r="1" gradientUnits="userSpaceOnUse" gradientTransform="translate(207.384 116.638) rotate(67.2295) scale(50.2228 49.395)">
<stop stop-color="#DBD3C6"/>
<stop offset="0.14" stop-color="#D3C9B9"/>
<stop offset="0.43" stop-color="#C5B9A5"/>
<stop offset="0.71" stop-color="#BEB099"/>
<stop offset="1" stop-color="#BBAD95"/>
</radialGradient>
<radialGradient id="paint62_radial" cx="0" cy="0" r="1" gradientUnits="userSpaceOnUse" gradientTransform="translate(201.791 67.442) rotate(68.9541) scale(68.1511 72.4614)">
<stop stop-color="#DBD3C6"/>
<stop offset="0.14" stop-color="#D3C9B9"/>
<stop offset="0.43" stop-color="#C5B9A5"/>
<stop offset="0.71" stop-color="#BEB099"/>
<stop offset="1" stop-color="#BBAD95"/>
</radialGradient>
<radialGradient id="paint63_radial" cx="0" cy="0" r="1" gradientUnits="userSpaceOnUse" gradientTransform="translate(229.495 84.2712) rotate(95.0564) scale(58.7447 98.3044)">
<stop stop-color="#DBD3C6"/>
<stop offset="0.14" stop-color="#D3C9B9"/>
<stop offset="0.43" stop-color="#C5B9A5"/>
<stop offset="0.71" stop-color="#BEB099"/>
<stop offset="1" stop-color="#BBAD95"/>
</radialGradient>
<radialGradient id="paint64_radial" cx="0" cy="0" r="1" gradientUnits="userSpaceOnUse" gradientTransform="translate(231.45 52.9288) rotate(91.9376) scale(52.7923 88.0943)">
<stop stop-color="#DBD3C6"/>
<stop offset="0.14" stop-color="#D3C9B9"/>
<stop offset="0.43" stop-color="#C5B9A5"/>
<stop offset="0.71" stop-color="#BEB099"/>
<stop offset="1" stop-color="#BBAD95"/>
</radialGradient>
<radialGradient id="paint65_radial" cx="0" cy="0" r="1" gradientUnits="userSpaceOnUse" gradientTransform="translate(237.59 89.8402) rotate(116.9) scale(31.185 36.709)">
<stop stop-color="#DBD3C6"/>
<stop offset="0.14" stop-color="#D3C9B9"/>
<stop offset="0.43" stop-color="#C5B9A5"/>
<stop offset="0.71" stop-color="#BEB099"/>
<stop offset="1" stop-color="#BBAD95"/>
</radialGradient>
<radialGradient id="paint66_radial" cx="0" cy="0" r="1" gradientUnits="userSpaceOnUse" gradientTransform="translate(244.338 63.135) rotate(103.943) scale(38.2671 60.4234)">
<stop stop-color="#DBD3C6"/>
<stop offset="0.14" stop-color="#D3C9B9"/>
<stop offset="0.43" stop-color="#C5B9A5"/>
<stop offset="0.71" stop-color="#BEB099"/>
<stop offset="1" stop-color="#BBAD95"/>
</radialGradient>
<radialGradient id="paint67_radial" cx="0" cy="0" r="1" gradientUnits="userSpaceOnUse" gradientTransform="translate(213.829 117.115) rotate(56.4213) scale(28.8267 11.9713)">
<stop stop-color="#DBD3C6"/>
<stop offset="0.14" stop-color="#D3C9B9"/>
<stop offset="0.43" stop-color="#C5B9A5"/>
<stop offset="0.71" stop-color="#BEB099"/>
<stop offset="1" stop-color="#BBAD95"/>
</radialGradient>
<radialGradient id="paint68_radial" cx="0" cy="0" r="1" gradientUnits="userSpaceOnUse" gradientTransform="translate(187.439 86.5736) rotate(63.9949) scale(54.1739 44.6731)">
<stop stop-color="#DBD3C6"/>
<stop offset="0.14" stop-color="#D3C9B9"/>
<stop offset="0.43" stop-color="#C5B9A5"/>
<stop offset="0.71" stop-color="#BEB099"/>
<stop offset="1" stop-color="#BBAD95"/>
</radialGradient>
<radialGradient id="paint69_radial" cx="0" cy="0" r="1" gradientUnits="userSpaceOnUse" gradientTransform="translate(189.815 76.289) rotate(61.7528) scale(52.9625 37.5074)">
<stop stop-color="#DBD3C6"/>
<stop offset="0.14" stop-color="#D3C9B9"/>
<stop offset="0.43" stop-color="#C5B9A5"/>
<stop offset="0.71" stop-color="#BEB099"/>
<stop offset="1" stop-color="#BBAD95"/>
</radialGradient>
</defs>
</svg>
