<svg width="171" height="316" viewBox="0 0 171 316" fill="none" xmlns="http://www.w3.org/2000/svg">
<path d="M71.4893 1.52017C75.5062 8.68897 78.6779 16.2995 80.9409 24.1993C83.6553 32.7348 85.7556 41.4535 87.2258 50.2888C87.8302 53.6699 88.2046 57.0881 88.3463 60.5199C88.3341 65.9252 88.0169 71.3254 87.3963 76.6949C86.3001 89.6301 84.3026 102.492 83.9859 115.476C83.5669 140.247 87.6952 164.885 96.1659 188.166C104.241 210.228 115.244 231.105 128.881 250.235C141.792 268.554 156.773 285.996 165.421 306.945C166.469 309.527 167.492 312.158 168.466 314.789C168.528 315.015 168.676 315.208 168.88 315.324C169.083 315.441 169.324 315.472 169.55 315.41C169.776 315.349 169.969 315.2 170.085 314.997C170.202 314.793 170.233 314.552 170.171 314.326C167.005 303.659 162.197 293.551 155.921 284.363C149.831 274.814 142.961 265.801 136.287 256.666C122.054 237.786 110.26 217.185 101.184 195.352C91.7624 172.342 86.5399 147.831 85.7642 122.979C85.8325 110.064 86.6459 97.1647 88.2002 84.344C89.1259 74.6 90.4657 64.4906 89.1502 54.6736C87.9568 46.222 86.1163 37.8744 83.6449 29.7046C81.329 21.415 78.2885 13.3451 74.5586 5.58828C73.7791 4.05361 72.9509 2.54329 72.1226 1.08169C71.9034 0.740654 71.3187 1.08169 71.5623 1.42273L71.4893 1.52017Z" fill="#E1DEDA"/>
<path d="M151.439 278.519C149.417 272.624 147.298 266.802 145.812 260.736C144.324 254.575 143.282 248.315 142.694 242.004C141.565 229.464 142.262 216.828 144.764 204.489C146.182 197.517 148.195 190.679 150.781 184.051C151.122 183.199 149.734 182.809 149.393 183.661C140.181 207.509 138.265 233.556 143.887 258.495C145.332 265.523 147.572 272.363 150.562 278.884C150.616 278.996 150.71 279.084 150.826 279.128C150.941 279.173 151.07 279.172 151.185 279.126C151.3 279.079 151.392 278.99 151.444 278.878C151.496 278.765 151.503 278.637 151.463 278.519H151.439Z" fill="#E1DEDA"/>
<path d="M149.588 184.513C143.863 193.794 138.48 203.611 136.409 214.451C134.58 225.72 135.517 237.265 139.138 248.092C140.829 254.162 143.165 260.034 146.104 265.607C146.162 265.677 146.24 265.726 146.327 265.747C146.415 265.768 146.507 265.76 146.589 265.724C146.672 265.689 146.741 265.627 146.785 265.549C146.829 265.47 146.847 265.38 146.835 265.29C145.033 260.102 142.645 255.157 140.94 249.944C139.153 244.646 137.88 239.189 137.14 233.647C135.719 222.549 137.344 211.273 141.841 201.029C144.277 195.45 147.128 190.091 149.856 184.683C149.856 184.488 149.685 184.342 149.588 184.513Z" fill="#E1DEDA"/>
<path d="M149.49 184.537C146.609 193.629 145.258 203.137 145.495 212.673C145.495 217.934 146.006 223.172 145.787 228.409C145.568 233.647 144.934 238.738 144.471 243.902C143.826 249.71 143.728 255.566 144.179 261.393C144.179 262.196 145.519 262.196 145.446 261.393C144.496 251.234 146.323 241.149 147.005 231.04C147.297 225.92 147.297 220.788 147.005 215.669C146.785 210.64 146.908 205.602 147.37 200.59C147.952 195.235 148.831 189.916 150.001 184.659C150.001 184.601 149.978 184.545 149.937 184.504C149.896 184.463 149.84 184.439 149.782 184.439C149.724 184.439 149.668 184.463 149.627 184.504C149.586 184.545 149.563 184.601 149.563 184.659L149.49 184.537Z" fill="#E1DEDA"/>
<path d="M149.954 183.831C149.044 187.169 148.763 190.646 149.125 194.087C149.125 198.959 149.491 203.831 149.71 208.897C149.929 213.964 150.124 219.031 149.978 224.098C149.723 229.556 148.964 234.979 147.713 240.297C146.909 244.049 146.056 247.825 145.447 251.625C145.179 253.379 144.935 255.133 144.789 256.911C144.473 258.839 144.473 260.805 144.789 262.733C144.789 262.823 144.825 262.91 144.889 262.974C144.953 263.038 145.04 263.074 145.13 263.074C145.221 263.074 145.308 263.038 145.372 262.974C145.435 262.91 145.471 262.823 145.471 262.733C145.683 261.182 145.797 259.62 145.812 258.056C145.918 256.195 146.121 254.341 146.421 252.502C146.957 248.969 147.713 245.486 148.468 242.003C149.717 236.735 150.531 231.374 150.904 225.974C151.367 216.035 150.49 206.072 150.124 196.133C149.978 192.04 150.124 187.948 150.124 183.953C150.124 183.914 150.109 183.877 150.081 183.849C150.054 183.822 150.017 183.807 149.978 183.807C149.939 183.807 149.902 183.822 149.875 183.849C149.847 183.877 149.832 183.914 149.832 183.953L149.954 183.831Z" fill="#E1DEDA"/>
<path d="M142.354 254.765C141.251 252.934 140.429 250.947 139.918 248.87C139.168 246.835 138.306 244.842 137.336 242.902C135.052 238.818 133.042 234.586 131.319 230.235C129.887 225.412 129.069 220.428 128.883 215.4C128.493 210.187 128.136 204.957 127.811 199.712C127.072 193.745 127.015 187.714 127.641 181.734L126.423 181.564C126.512 183.477 127.081 185.337 128.079 186.972C129.297 189.627 130.296 192.355 131.27 195.084C133.88 201.581 135.522 208.426 136.142 215.4C136.142 216.179 137.409 216.179 137.36 215.4C136.77 208.714 135.21 202.149 132.732 195.912C131.782 193.232 130.88 190.504 129.711 187.922C128.486 186.028 127.75 183.86 127.568 181.613C127.568 180.93 126.471 180.76 126.35 181.442C125.695 186.705 125.646 192.026 126.203 197.3C126.471 202.83 126.885 208.384 127.3 213.914C127.465 219.098 128.175 224.25 129.419 229.285C130.944 233.788 132.911 238.129 135.29 242.244C136.608 244.659 137.748 247.166 138.7 249.747C139.063 251.895 140.135 253.859 141.745 255.326C142.086 255.569 142.573 255.106 142.33 254.765H142.354Z" fill="#E1DEDA"/>
<path d="M38.506 238.713C53.2925 247.823 70.1739 252.33 86.9336 256.69C102.962 260.88 119.162 265.07 133.997 272.646C142.201 276.708 149.681 282.09 156.14 288.578C157.066 289.528 158.576 288.066 157.577 287.116C133.632 262.464 97.6276 259.175 66.4225 249.65C56.8156 246.839 47.5129 243.077 38.6522 238.421C38.616 238.414 38.5788 238.42 38.546 238.436C38.5132 238.453 38.4866 238.479 38.4702 238.512C38.4537 238.545 38.4483 238.582 38.4548 238.618C38.4613 238.655 38.4792 238.688 38.506 238.713Z" fill="#E1DEDA"/>
<path d="M38.5078 238.71C49.9326 242.462 62.1369 242.852 73.7322 246.018C85.1773 249.128 96.2837 253.371 106.886 258.686C112.854 261.584 118.701 264.702 124.498 267.942C124.644 268 124.806 268.003 124.954 267.952C125.102 267.9 125.227 267.798 125.306 267.663C125.385 267.528 125.414 267.369 125.386 267.215C125.359 267.061 125.277 266.921 125.156 266.822C114.924 260.998 104.349 255.8 93.4882 251.256C82.4758 246.741 70.9601 243.567 59.1894 241.804C52.2955 240.757 45.4016 239.855 38.5565 238.467C38.5304 238.478 38.5082 238.497 38.4926 238.521C38.4771 238.545 38.4688 238.572 38.4688 238.601C38.4688 238.629 38.4771 238.657 38.4926 238.681C38.5082 238.705 38.5304 238.723 38.5565 238.735L38.5078 238.71Z" fill="#E1DEDA"/>
<path d="M37.6787 238.25C41.2326 242.355 45.4889 245.795 50.2485 248.408C54.9307 251.196 59.8651 253.537 64.9862 255.4C76.6238 259.371 88.7094 261.884 100.966 262.878C108.031 263.359 115.023 264.609 121.818 266.605C122.646 266.873 123.012 265.558 122.183 265.265C116.562 263.543 110.772 262.432 104.912 261.952C98.7004 261.295 92.513 260.71 86.3743 259.516C74.6484 257.757 63.311 254 52.855 248.408C47.6258 245.239 42.6203 241.715 37.8736 237.86C37.7031 237.86 37.5569 237.86 37.6787 238.128V238.25Z" fill="#E1DEDA"/>
<path d="M38.5063 238.421C44.913 239.03 51.3927 239.054 57.7994 239.59C64.2379 240.075 70.6353 241.003 76.9463 242.367C83.2348 243.727 89.3537 245.778 95.1919 248.482C101.068 251.381 106.762 254.635 112.244 258.226L131.975 270.868C132.706 271.331 133.388 270.162 132.657 269.699L114.558 258.226C108.977 254.528 103.204 251.129 97.2625 248.043C85.6616 242.711 73.1737 239.572 60.4302 238.786C53.1489 238.021 45.8251 237.736 38.5063 237.934C38.4417 237.934 38.3797 237.959 38.334 238.005C38.2884 238.051 38.2627 238.113 38.2627 238.177C38.2627 238.242 38.2884 238.304 38.334 238.35C38.3797 238.395 38.4417 238.421 38.5063 238.421Z" fill="#E1DEDA"/>
<path d="M131.075 269.65C123.006 260.847 115.396 251.635 108.274 242.05C104.961 237.63 101.373 233.424 97.5314 229.456C93.5364 225.461 89.0785 221.977 84.8155 218.299C79.9488 214.102 75.4576 209.489 71.3932 204.511C70.906 203.902 69.8585 204.682 70.3214 205.339C71.7296 207.799 72.7485 210.461 73.342 213.232C74.0939 215.643 75.0221 217.997 76.119 220.272C78.4439 224.982 81.358 229.378 84.7912 233.353C92.4788 241.738 101.092 249.223 110.467 255.667C116.118 259.857 121.77 264.022 127.031 268.675C127.811 269.357 128.931 268.237 128.152 267.555C111.246 252.622 89.176 241.83 78.2384 221.271C76.7887 218.572 75.5978 215.741 74.6818 212.818C74.0312 209.935 72.947 207.167 71.4663 204.609L70.3701 205.461C73.9747 209.861 77.9079 213.982 82.136 217.787C86.3259 221.539 90.8081 225.095 94.9249 228.847C103.353 236.739 109.882 246.581 117.117 255.643C120.972 260.989 125.408 265.891 130.344 270.259C130.734 270.575 131.246 270.088 130.905 269.723L131.075 269.65Z" fill="#E1DEDA"/>
<path d="M118.455 231.574C114.948 224.729 108.37 219.589 102.159 215.277C95.0943 210.405 87.5427 206.045 80.2347 201.684C72.9267 197.324 65.0341 192.915 57.6287 188.213C50.1211 183.698 43.0434 178.504 36.4843 172.696C29.1763 166.046 24.6697 157.593 20.09 149.067L18.6771 149.895C25.7172 160.979 36.6548 168.311 47.5924 175.156C60.0749 182.686 72.0826 190.976 83.5477 199.979C89.8336 205.113 95.8197 210.603 101.477 216.422C102.159 217.128 103.206 216.081 102.548 215.35C92.7012 204.915 81.7013 195.631 69.7599 187.677C63.9623 183.633 58.0428 179.785 52.0746 176.033C46.1064 172.282 40.7716 169.115 35.4611 165.193C29.2929 160.92 24.0623 155.433 20.09 149.067C19.9653 148.913 19.7895 148.809 19.5946 148.773C19.3997 148.738 19.1985 148.773 19.0275 148.873C18.8566 148.974 18.7273 149.132 18.663 149.319C18.5987 149.507 18.6037 149.711 18.6771 149.895C22.2892 157.517 26.9193 164.614 32.4405 170.991C38.5221 177.043 45.2821 182.372 52.5862 186.873C67.2021 196.617 82.8412 204.51 97.579 213.962C101.452 216.369 105.155 219.038 108.663 221.952C112.084 224.973 115.223 228.3 118.041 231.891C118.236 232.158 118.602 231.891 118.455 231.574Z" fill="#E1DEDA"/>
<path d="M19.2148 148.873C19.0933 152.64 19.7312 156.393 21.0905 159.909C22.2411 163.502 23.768 166.964 25.6458 170.237C29.2716 176.545 34.1158 182.068 39.8964 186.485C51.443 195.352 65.6692 199.713 78.9454 205.096C86.4875 207.933 93.7128 211.55 100.504 215.888C101.259 216.399 101.941 215.181 101.21 214.694C77.9953 198.982 45.1825 197.423 28.6421 172.43C26.286 168.838 24.349 164.988 22.8688 160.956C21.4072 157.01 20.8713 152.82 19.5071 148.776C19.5071 148.737 19.4917 148.7 19.4643 148.673C19.4369 148.645 19.3997 148.63 19.3609 148.63C19.3222 148.63 19.285 148.645 19.2576 148.673C19.2302 148.7 19.2148 148.737 19.2148 148.776V148.873Z" fill="#E1DEDA"/>
<path d="M19.5073 148.631C20.3786 151.003 22.1207 152.954 24.3793 154.087C27.2781 155.914 30.2988 157.619 33.3194 159.252C39.4094 162.613 45.6455 165.731 51.5894 169.361C62.893 176.509 73.1769 185.154 82.1611 195.061C87.2279 200.493 92.0999 206.169 96.9719 211.893C97.5078 212.527 98.4092 211.625 97.8732 210.992C89.6524 200.832 80.6963 191.29 71.0773 182.442C66.3727 178.202 61.3657 174.311 56.0959 170.798C50.3957 167.022 44.3301 163.807 38.3132 160.616C34.9028 158.789 31.4924 156.986 28.1551 155.062C25.2075 153.356 21.5535 151.627 20.0432 148.387C19.8971 148.07 19.3855 148.387 19.4829 148.631H19.5073Z" fill="#E1DEDA"/>
<path d="M66.9344 179.542C62.9337 172.939 60.8894 165.337 61.0393 157.618C61.1854 150.602 62.6227 143.708 63.4753 136.766H62.6227C63.5429 142.708 64.9441 148.565 66.8126 154.281C68.6883 159.689 70.9051 164.975 73.0975 170.261C76.9088 180.257 81.3094 190.018 86.2762 199.493C86.3699 199.651 86.5226 199.766 86.7007 199.811C86.8789 199.857 87.0679 199.83 87.2262 199.736C87.3845 199.643 87.4991 199.49 87.5448 199.312C87.5905 199.134 87.5635 198.945 87.4698 198.786C82.4688 189.311 78.0277 179.55 74.1693 169.554C71.8551 164.171 69.614 158.812 67.7383 153.477C65.8749 147.972 64.4175 142.338 63.3778 136.62C63.3778 136.108 62.5496 136.279 62.5252 136.62C61.8188 143.928 60.0892 151.065 59.9674 158.398C59.788 166.006 62.1733 173.453 66.7395 179.542H66.91H66.9344Z" fill="#E1DEDA"/>
<path d="M168.222 104.686C155.725 116.379 141.207 125.66 129.246 137.888C119.262 147.615 111.276 159.201 105.739 171.992C102.586 179.784 100.568 187.987 99.7461 196.352C99.7461 197.278 101.086 197.254 101.183 196.352C102.978 181.981 108.136 168.236 116.238 156.231C124.864 144.043 135.239 133.191 147.029 124.028C154.659 118.171 161.977 111.918 168.953 105.295C169.342 104.905 168.733 104.32 168.344 104.686H168.222Z" fill="#E1DEDA"/>
<path d="M166.934 106.122C155.701 110.869 145.189 117.166 135.704 124.831C126.96 132.333 119.818 141.521 114.706 151.846C111.393 158.52 108.592 165.439 105.644 172.259C105.303 172.99 106.399 173.648 106.716 172.893C111.588 161.638 116.119 150.043 123.427 140.055C130.48 130.62 139.299 122.644 149.395 116.573C155.192 113.016 161.258 109.874 167.153 106.512C167.421 106.366 167.153 106 166.934 106.122Z" fill="#E1DEDA"/>
<path d="M168.42 104.928C162.135 114.55 153.633 122.272 144.961 129.58C135.935 137.15 127.4 145.286 119.407 153.94C117.296 156.279 115.25 158.666 113.269 161.102C111.037 163.655 108.94 166.322 106.984 169.092C106.57 169.701 107.52 170.456 108.007 169.896C110.053 167.606 111.783 165.024 113.707 162.588C115.632 160.152 117.239 158.203 119.091 156.084C123.256 151.212 127.738 146.803 132.294 142.393C136.362 138.471 140.43 134.623 144.669 130.92C148.907 127.217 152.902 123.612 156.849 119.885C161.412 115.444 165.405 110.452 168.736 105.025C168.736 105.025 168.736 104.782 168.517 105.025L168.42 104.928Z" fill="#E1DEDA"/>
<path d="M168.223 104.805C165.808 109.987 162.72 114.827 159.039 119.202C156.043 122.734 152.73 126.023 149.563 129.409C145.362 134.053 140.914 138.469 136.239 142.636C131.854 146.412 127.031 149.652 122.621 153.403C120.185 155.571 117.603 157.813 115.143 160.078C112.814 162.082 110.67 164.292 108.736 166.68C108.566 166.923 108.931 167.289 109.175 167.094C111.255 165.473 113.232 163.724 115.094 161.856C117.335 159.761 119.576 157.642 121.866 155.62C126.324 151.674 131.172 148.312 135.703 144.415C140.411 140.291 144.876 135.899 149.076 131.26C152.316 127.777 155.702 124.391 158.82 120.785C162.909 116.12 166.283 110.875 168.832 105.219C169.003 104.805 168.418 104.44 168.223 104.854V104.805Z" fill="#E1DEDA"/>
<path d="M109.151 166.633C111.124 155.939 112.561 145.147 116.751 134.965C118.895 129.825 121.452 124.856 124.059 119.886C126.666 114.917 128.931 110.288 131.757 105.709C134.982 100.486 138.58 95.5038 142.524 90.8003L141.988 90.3619C140.161 94.43 138.139 98.425 136.361 102.542C134.63 106.544 133.292 110.705 132.366 114.965C131.723 118.95 130.627 122.848 129.102 126.585C127.299 130.385 125.155 133.893 123.45 137.839C123.133 138.521 124.156 139.13 124.473 138.448C126.154 134.673 128.249 131.14 130.027 127.413C131.568 123.895 132.657 120.195 133.267 116.403C134.062 112.067 135.269 107.817 136.872 103.711C138.651 99.3263 140.551 94.9902 142.499 90.7029C142.646 90.3619 142.232 89.9477 141.964 90.2644C135.007 98.6177 129.002 107.719 124.059 117.401C118.895 127.145 113.877 137.157 111.587 148.095C110.302 154.188 109.39 160.355 108.858 166.56C108.858 166.779 109.199 166.852 109.248 166.56L109.151 166.633Z" fill="#E1DEDA"/>
<path d="M13.8312 66.243C16.3416 74.0066 19.9159 81.3848 24.4521 88.167C28.6049 94.0516 33.3116 99.5251 38.5078 104.512C48.8364 114.792 60.4317 123.806 70.7116 134.037C73.7323 137.009 76.6555 140.102 79.4325 143.294C82.2095 146.485 84.5968 150.066 87.3982 153.281C87.9828 153.939 88.9816 153.086 88.5918 152.355C86.7808 149.122 84.6068 146.107 82.1121 143.367C79.6761 140.565 77.2401 137.837 74.8041 135.23C69.6154 129.969 64.0857 125.048 58.5317 120.2C47.8377 110.87 36.6077 101.784 27.9356 90.4568C22.2175 83.0994 17.6128 74.9408 14.2697 66.243C14.2697 65.9751 13.7337 66.0725 13.8312 66.3648V66.243Z" fill="#E1DEDA"/>
<path d="M13.3428 66.244C14.3675 71.759 16.0015 77.143 18.2148 82.2972C20.0719 86.9416 22.5288 91.3229 25.5227 95.3298C31.7624 103.129 39.1554 109.931 47.4467 115.5C52.5623 119.203 57.8484 122.808 62.964 126.413C63.8166 127.022 64.6204 125.634 63.7922 125.025C47.2762 113.283 28.7626 102.784 20.1636 83.6127C17.6602 77.9239 15.6472 72.0318 14.1467 66.0004C14.0249 65.5376 13.3671 65.7568 13.4402 66.2197L13.3428 66.244Z" fill="#E1DEDA"/>
<path d="M13.3678 66.0232C16.6808 70.1157 20.6758 73.721 24.2811 77.4967C27.8214 81.1866 31.1402 85.0829 34.2199 89.1652C40.2856 97.2283 46.2538 105.389 52.4655 113.33C55.9431 117.838 59.6507 122.164 63.5737 126.29C64.2314 126.947 65.2301 125.924 64.5968 125.267C57.6622 117.845 51.2022 109.993 45.255 101.759C39.4632 93.5189 33.2089 85.6136 26.5222 78.0814C22.4992 73.7008 18.2378 69.5452 13.7576 65.6335C13.7059 65.5818 13.6358 65.5527 13.5627 65.5527C13.4896 65.5527 13.4195 65.5818 13.3678 65.6335C13.3161 65.6851 13.2871 65.7552 13.2871 65.8283C13.2871 65.9014 13.3161 65.9715 13.3678 66.0232Z" fill="#E1DEDA"/>
<path d="M13.5851 66.2445C17.7263 69.46 22.1111 72.3345 26.2036 75.5987C30.314 78.8613 34.1662 82.4366 37.7258 86.2927C41.3005 90.1521 44.4754 94.3635 47.2018 98.8624C50.2956 104.002 52.8777 109.362 56.1907 114.355C59.7232 119.852 63.6472 125.086 67.9322 130.019C68.4437 130.555 69.4181 129.824 68.9796 129.191C65.5936 124.319 61.6717 119.739 58.1882 114.818C54.7047 109.897 52.0738 104.563 49.0532 99.374C43.6256 90.3685 36.6391 82.4004 28.4203 75.8423C23.9328 72.0104 19.0302 68.693 13.8044 65.9521C13.6338 65.9521 13.4146 66.1227 13.5851 66.2445Z" fill="#E1DEDA"/>
<path d="M72.2947 135.307C70.2869 133.552 68.1716 131.925 65.9611 130.435C63.7778 129.097 61.4588 127.994 59.0429 127.146C53.976 125.246 48.6655 124.198 43.4769 122.761C33.4754 120.161 23.8776 116.202 14.9514 110.995C9.98103 108.015 5.39197 104.44 1.28544 100.35L0.481564 101.398C9.73834 107.171 20.8465 107.853 31.1994 110.825C42.1211 114.197 52.4218 119.322 61.6981 126.001C62.4045 126.488 63.0622 125.343 62.3802 124.856C53.2675 118.314 43.1805 113.25 32.4905 109.85C22.0401 106.684 10.5666 106.148 1.13928 100.228C1.0705 100.175 0.992002 100.137 0.90826 100.114C0.824518 100.092 0.737175 100.086 0.651217 100.097C0.56526 100.109 0.482373 100.137 0.407287 100.18C0.332201 100.224 0.266388 100.281 0.213604 100.35C0.160821 100.419 0.122102 100.497 0.0996563 100.581C0.0772112 100.665 0.0714802 100.752 0.0827903 100.838C0.105632 101.012 0.1965 101.169 0.335404 101.276C7.56256 108.249 16.0535 113.78 25.3531 117.573C29.9126 119.474 34.5818 121.101 39.3357 122.445C44.4269 123.955 49.6399 125.051 54.7311 126.537C57.7041 127.348 60.5733 128.501 63.2815 129.972C66.2163 131.718 69.0173 133.681 71.6613 135.842C72.0998 136.184 72.7575 135.575 72.2947 135.209V135.307Z" fill="#E1DEDA"/>
<path d="M149.685 41.3477C145.738 46.7406 141.363 51.8075 136.604 56.4995C131.927 61.0792 126.86 65.1473 121.793 69.3372C112.105 77.4425 103.544 86.8066 96.3369 97.1806C91.9626 103.341 87.9761 109.769 84.4005 116.425C84.3475 116.555 84.3433 116.7 84.3885 116.833C84.4337 116.966 84.5254 117.079 84.6467 117.15C84.768 117.221 84.9109 117.246 85.0491 117.22C85.1873 117.194 85.3116 117.12 85.3993 117.01C91.9001 105.603 99.4085 94.801 107.835 84.7327C116.458 74.9887 126.689 66.95 136.019 57.9368C141.19 52.9462 145.842 47.4454 149.904 41.5182C149.904 41.5182 149.904 41.2746 149.685 41.5182V41.3477Z" fill="#E1DEDA"/>
<path d="M149.418 40.8379C146.325 44.0778 143.401 47.4395 139.991 50.4114C136.581 53.3833 133 56.1116 129.443 58.9374C122.182 64.352 115.634 70.6625 109.955 77.7189C106.716 81.9315 103.87 86.4326 101.454 91.1655C101.064 91.8963 102.16 92.5541 102.55 91.8233C106.85 83.3988 112.503 75.7372 119.285 69.1442C125.692 62.908 133.146 57.963 139.942 52.0922C143.891 49.0805 147.294 45.414 150.003 41.252C150.037 41.168 150.043 41.0749 150.02 40.9872C149.996 40.8995 149.944 40.8219 149.872 40.7665C149.8 40.7112 149.712 40.681 149.621 40.6807C149.53 40.6804 149.442 40.7099 149.37 40.7648L149.418 40.8379Z" fill="#E1DEDA"/>
<path d="M148.978 42.3711C145.495 47.3649 142.036 52.4074 138.431 57.3037C135.099 62.1463 131.161 66.5425 126.713 70.385C122.28 74.039 117.359 77.0596 112.901 80.6649C110.709 82.4188 108.59 84.2458 106.543 86.1459C104.278 88.0982 102.169 90.2239 100.234 92.5038C100.122 92.6356 100.065 92.8048 100.073 92.9773C100.081 93.1499 100.155 93.3129 100.278 93.4335C100.402 93.554 100.567 93.6232 100.739 93.627C100.912 93.6308 101.08 93.5689 101.209 93.4539C103.45 91.5051 105.447 89.264 107.64 87.2421C109.832 85.2202 112.122 83.2958 114.46 81.4444C118.894 77.9122 123.766 74.6967 128.102 71.1158C132.318 67.4046 136.035 63.1632 139.161 58.4974C142.791 53.3818 146.25 48.1688 149.393 42.7365C149.539 42.4685 149.149 42.2737 148.978 42.4929V42.3711Z" fill="#E1DEDA"/>
<path d="M149.125 41.4459C140.891 48.4372 130.051 51.1898 121.476 57.767C113.637 64.1541 107.475 72.3569 103.523 81.6641C101.087 86.9746 99.6738 92.9184 96.3852 97.8148C96.0929 98.2776 96.7506 98.7648 97.1404 98.3994C100.721 94.7941 101.793 89.1183 103.742 84.5873C105.744 79.8901 108.191 75.3955 111.05 71.165C113.908 66.8888 117.342 63.0278 121.257 59.6914C125.47 56.3418 130.056 53.4891 134.923 51.1898C140.246 48.7586 145.174 45.5394 149.539 41.6407C149.539 41.6407 149.539 41.3241 149.319 41.4459H149.125Z" fill="#E1DEDA"/>
<path d="M104.279 81.4923C106.35 76.9751 107.643 72.1407 108.104 67.193C108.591 62.1018 108.518 56.9862 109.151 51.8949C109.704 46.7614 111.457 41.8298 114.267 37.4982C117.092 33.4936 120.271 29.7514 123.767 26.317L122.914 25.6593C119.986 32.2064 117.898 39.0984 116.703 46.1703C115.533 53.2347 115.119 60.2504 112.61 67.0468C112.367 67.6802 113.414 68.1187 113.706 67.5097C116.703 61.2735 116.727 53.9899 117.701 47.2909C118.73 40.0107 120.772 32.91 123.767 26.1952C124.011 25.6836 123.377 25.0746 122.914 25.5375C119.425 28.9039 116.23 32.5631 113.365 36.4751C110.602 40.4766 108.771 45.0464 108.006 49.8487C107.227 54.8668 107.275 59.9581 106.959 65.0249C106.636 70.5786 105.554 76.0618 103.743 81.3217C103.743 81.5653 104.06 81.7359 104.157 81.4923H104.279Z" fill="#E1DEDA"/>
<path d="M71.5879 1.59104C72.879 9.50802 76.4599 17.0109 78.8959 24.6599C80.2113 28.9229 80.9177 33.3564 82.0627 37.6681C83.8745 43.3868 84.9469 49.3138 85.2538 55.3047C85.6206 62.2982 86.5246 69.2532 87.9578 76.1081C87.9578 76.8146 89.1514 76.4979 89.054 75.7914C87.6776 69.3719 86.79 62.8572 86.3987 56.3035C86.2796 50.632 85.3946 45.0027 83.7679 39.5682C82.5255 34.9885 81.6973 30.2871 80.3818 25.7317C79.1638 21.5906 77.6779 17.5468 76.265 13.5518C74.8521 9.55674 73.1956 5.51299 72.0994 1.3718C72.0994 1.10384 71.661 1.22564 71.7097 1.4936L71.5879 1.59104Z" fill="#E1DEDA"/>
<path d="M71.4411 1.2754C75.7528 8.46158 80.1863 15.5747 83.9377 23.1993C85.9411 27.0971 87.5723 31.1752 88.8097 35.3793C90.2797 41.4931 90.9026 47.78 90.6611 54.0634C90.7218 57.5606 90.5754 61.0583 90.2226 64.5382C89.7841 68.3383 88.8584 71.9679 88.0789 75.695C88.0434 75.8274 88.0619 75.9686 88.1305 76.0874C88.199 76.2061 88.3119 76.2928 88.4443 76.3284C88.5768 76.3639 88.7179 76.3454 88.8367 76.2768C88.9555 76.2083 89.0422 76.0954 89.0777 75.963C90.8617 69.7931 91.796 63.4089 91.8547 56.9866C92.1778 50.6606 91.7773 44.3184 90.6611 38.0833C88.2251 28.9245 84.3702 20.2036 79.2363 12.2374C77.0453 8.30932 74.5445 4.56226 71.7578 1.0318C71.6116 0.861278 71.3193 1.0318 71.4411 1.2754Z" fill="#E1DEDA"/>
<path d="M71.4658 2.10439C71.9489 5.18111 72.104 8.30041 71.9287 11.4099C71.9287 13.5536 72.0748 15.7216 72.2697 17.8896C72.7082 22.7616 73.4146 27.6336 74.2672 32.5056C75.8766 42.1739 78.3719 51.6737 81.7214 60.8849C82.8663 63.9543 83.9868 67.048 84.9369 70.1904C85.8869 73.3328 86.5446 76.4996 87.3729 79.5933C87.4052 79.7193 87.4862 79.8273 87.5981 79.8936C87.71 79.9598 87.8437 79.9789 87.9697 79.9466C88.0957 79.9143 88.2037 79.8332 88.2699 79.7213C88.3361 79.6094 88.3552 79.4757 88.3229 79.3497C86.1549 68.8993 81.6726 59.2041 78.92 48.9485C76.2451 39.0369 74.3635 28.9281 73.2928 18.7179C73.0492 16.2819 72.9031 13.9677 72.83 11.5804C72.9131 8.35946 72.5774 5.14138 71.8312 2.00695C71.8174 1.96965 71.7925 1.93749 71.7598 1.91477C71.7271 1.89206 71.6883 1.87988 71.6485 1.87988C71.6087 1.87988 71.5699 1.89206 71.5373 1.91477C71.5046 1.93749 71.4797 1.96965 71.4658 2.00695V2.10439Z" fill="#E1DEDA"/>
<path d="M73.1953 8.41602C73.4146 14.5304 75.6313 20.4498 76.7762 26.418C77.6532 31.29 78.2378 36.3325 79.0904 41.2532C79.9243 46.837 81.1783 52.3499 82.8418 57.7449C83.7919 60.6194 84.9612 63.4208 85.9843 66.2709C86.9789 69.2064 87.7925 72.2002 88.4203 75.2353C88.4543 75.3376 88.523 75.4248 88.6145 75.4818C88.706 75.5389 88.8145 75.5622 88.9214 75.5478C89.0282 75.5333 89.1267 75.482 89.1997 75.4028C89.2728 75.3235 89.3159 75.2212 89.3216 75.1135C89.3216 70.0467 86.8856 64.9554 85.1073 60.2783C83.2309 55.0023 81.8128 49.5743 80.8687 44.0546C79.8456 38.5249 78.8955 32.9465 78.0673 27.3924C77.5303 24.441 76.8309 21.5215 75.9723 18.6472C74.8675 15.2995 73.9886 11.8814 73.3415 8.41602H73.1953Z" fill="#E1DEDA"/>
<path d="M86.2269 73.0673C84.4717 68.4316 81.8232 64.1857 78.4317 60.5707C74.9451 56.4424 71.2111 52.5295 67.2505 48.8536C63.1081 45.079 59.2031 41.0519 55.5577 36.7954C52.2071 32.2393 49.7293 27.102 48.2497 21.6435L47.251 22.0576C49.3859 25.5653 51.8932 28.8322 54.7295 31.8016C57.831 34.765 61.1896 37.447 64.7658 39.816C71.8859 44.7547 77.5009 51.5669 80.9895 59.4988C81.3062 60.2296 82.4998 59.913 82.1831 59.1822C79.0046 51.7773 73.9706 45.3169 67.5672 40.425C63.8401 37.5749 59.8451 35.1145 56.386 31.9234C53.1261 28.9218 50.3779 25.4084 48.2497 21.5217C47.9574 20.9614 47.1292 21.3512 47.2753 21.9358C48.4302 27.0817 50.5729 31.9544 53.5846 36.2838C57.0172 40.5895 60.7887 44.6136 64.8632 48.3176C68.8582 52.1909 72.9264 55.991 76.6047 60.1566C78.4412 62.1883 80.1342 64.3453 81.6716 66.6119C83.1088 68.7556 84.2537 71.0942 85.691 73.2622C85.8615 73.4814 86.2512 73.2622 86.1782 73.0673H86.2269Z" fill="#E1DEDA"/>
<path d="M65.5461 125.805C65.5747 120.49 65.2001 115.181 64.4255 109.922C63.8258 104.83 62.7159 99.8111 61.1125 94.9409C59.4561 90.3125 56.6303 86.3906 54.5597 81.9814C52.6461 77.1412 51.4163 72.0579 50.9057 66.8783C50.9057 66.4885 50.1749 66.4885 50.1018 66.8783C48.1575 76.5609 49.0022 86.5965 52.5378 95.8179C53.3904 98.059 54.4379 100.203 55.4367 102.395C56.4713 104.956 57.2386 107.618 57.7265 110.336C58.9217 115.212 60.852 119.878 63.4511 124.173C63.7434 124.684 64.4255 124.173 64.2062 123.734C61.8697 119.182 59.9928 114.408 58.6035 109.484C58.2354 107.197 57.6396 104.953 56.8252 102.785C55.8752 100.495 54.7059 98.2782 53.7802 95.964C49.8522 86.8555 48.8478 76.7524 50.9057 67.0488L50.0775 66.927C50.2831 71.9094 51.312 76.8235 53.1225 81.4699C55.0469 85.9764 58.1406 89.8497 59.9189 94.4293C63.7678 104.319 64.3524 115.33 65.0345 125.805C65.0534 125.871 65.0933 125.929 65.1483 125.971C65.2032 126.012 65.2702 126.035 65.339 126.035C65.4078 126.035 65.4748 126.012 65.5297 125.971C65.5846 125.929 65.6246 125.871 65.6435 125.805H65.5461Z" fill="#E1DEDA"/>
<path d="M152.121 278.857C152.39 257.471 158.597 236.58 170.05 218.517L169.027 217.908C166.908 221.513 167.102 225.825 166.591 229.844C166.057 234.788 165.103 239.678 163.741 244.46C161.305 252.865 157.358 260.611 154.606 268.82C153.001 272.978 152.175 277.396 152.17 281.853C152.17 282.021 152.237 282.182 152.355 282.301C152.474 282.419 152.635 282.486 152.803 282.486C152.971 282.486 153.132 282.419 153.251 282.301C153.37 282.182 153.437 282.021 153.437 281.853C153.826 271.476 158.869 262.073 162.474 252.621C164.598 247.044 166.149 241.265 167.102 235.374C167.565 232.524 167.882 229.674 168.101 226.799C168.07 223.93 168.712 221.093 169.977 218.517C170.017 218.45 170.043 218.375 170.055 218.298C170.066 218.221 170.062 218.142 170.042 218.066C170.023 217.99 169.989 217.919 169.942 217.856C169.896 217.794 169.837 217.741 169.77 217.701C169.703 217.661 169.628 217.635 169.551 217.623C169.474 217.612 169.395 217.616 169.319 217.635C169.243 217.655 169.172 217.689 169.109 217.735C169.047 217.782 168.994 217.841 168.954 217.908C163.293 226.886 158.891 236.599 155.873 246.775C152.621 257.151 151.066 267.984 151.268 278.857C151.292 278.958 151.35 279.049 151.432 279.114C151.513 279.179 151.615 279.214 151.719 279.214C151.824 279.214 151.925 279.179 152.007 279.114C152.089 279.049 152.146 278.958 152.17 278.857H152.121Z" fill="#E1DEDA"/>
</svg>
