<svg width="480" height="270" viewBox="0 0 480 270" fill="none" xmlns="http://www.w3.org/2000/svg">
<path d="M10.9441 256.553C11.4144 262.114 16.2433 265.675 22.9284 265.109C29.7741 264.53 33.438 260.398 32.9578 254.72C32.7406 252.151 31.7097 250.739 30.5487 249.353C30.3672 249.118 30.2623 248.921 30.2487 248.76C30.213 248.337 30.7357 248.087 31.9532 247.881L31.8952 247.195C30.3846 247.411 28.3435 247.613 24.7236 247.919L24.7817 248.605C27.2306 248.707 28.3864 248.815 29.6281 249.592C31.3434 250.579 32.1854 252.713 32.3372 254.508C32.663 258.362 29.2304 261.577 22.5599 262.141C16.0791 262.69 11.8187 260.462 11.4891 256.565C11.3151 254.507 11.8636 252.476 13.3777 251.084C14.3862 250.146 15.1693 249.845 17.6732 249.206L17.6152 248.52C14.1413 248.814 12.1975 248.949 10.7305 248.985L10.7885 249.671C12.0232 249.67 12.5989 249.871 12.6334 250.279C12.6482 250.455 12.5767 250.652 12.4201 250.886C11.524 252.284 10.7219 253.925 10.9441 256.553Z" fill="#B6985E"/>
<path d="M29.7818 231.734C28.6075 232.241 26.9064 232.643 25.8487 233.298C24.3501 234.243 23.8153 235.852 23.7617 237.917C23.2273 236.288 21.9114 235.755 20.5077 235.206C18.6068 234.465 17.5977 234.109 17.2932 233.448L17.5129 233.449C18.6555 233.455 19.4349 232.799 19.44 231.715C19.4446 230.719 18.759 230.115 17.8508 230.111C17.0158 230.107 16.2078 230.616 16.2012 232.022C16.1903 234.366 18.3113 235.006 19.9932 235.585C22.2602 236.357 23.619 237.096 23.8092 240.29L19.4001 240.27C17.7155 240.262 17.2347 239.717 17.2414 238.267L16.6116 238.264C16.6379 238.894 16.7337 240.345 16.7275 241.663C16.7214 242.982 16.6116 244.549 16.579 245.237L17.2089 245.24C17.2166 243.585 17.703 242.957 19.3875 242.965L29.2312 243.011C30.9011 243.019 31.3815 243.651 31.3738 245.306L32.0037 245.309C31.9776 244.62 31.897 243.052 31.9032 241.734C31.9093 240.416 32.004 238.966 32.0362 238.336L31.4063 238.333C31.3996 239.784 30.9136 240.323 29.2437 240.315L24.3219 240.293C24.288 238.139 24.5577 236.851 25.7776 235.978C26.9534 235.134 28.8451 234.703 29.8573 234.4C31.3681 233.953 32.2649 233.269 32.2733 231.467C32.2759 230.911 32.1909 230.28 32.0768 229.621L31.447 229.618C31.3241 230.833 30.8093 231.285 29.7818 231.734Z" fill="#B6985E"/>
<path d="M17.1296 219.219C16.8008 223.013 18.9204 226.211 24.6704 226.709C30.4057 227.206 33.0291 224.419 33.3578 220.625C33.6866 216.83 31.5816 213.634 25.8462 213.137C20.0963 212.639 17.4583 215.424 17.1296 219.219ZM17.7279 219.271C17.9251 216.994 20.2387 215.577 25.5946 216.041C30.9359 216.504 32.9567 218.296 32.7595 220.573C32.5635 222.835 30.2633 224.268 24.922 223.805C19.5661 223.341 17.5319 221.533 17.7279 219.271Z" fill="#B6985E"/>
<path d="M21.2286 193.865C21.1435 194.549 20.9851 196.112 20.7571 197.469C20.5339 198.799 20.398 199.608 20.2161 200.691L19.794 203.205C19.6291 204.187 19.4091 204.878 19.3244 205.205L19.9456 205.31C20.2027 203.778 20.7599 203.025 22.1901 203.265C22.2768 203.28 22.3755 203.311 22.4766 203.328C26.0445 204.195 29.5086 205.237 31.8044 206.603C32.7525 207.148 34.4128 208.318 34.1702 209.763C34.1605 209.82 34.1314 209.994 34.0928 210.047C33.9228 209.201 33.485 208.801 32.8349 208.692C31.8815 208.532 31.2956 209.102 31.1573 209.925C30.9972 210.879 31.4804 211.628 32.4627 211.793C33.6473 211.992 34.4094 211.08 34.5889 210.011C34.8873 208.234 33.3885 206.988 32.0433 206.153C29.5503 204.635 26.1799 203.742 22.5664 202.794C20.9293 202.37 20.4865 202.088 20.6515 201.106L20.6952 200.846C20.9353 199.416 21.5018 198.961 23.1631 199.24L32.8709 200.87C34.5467 201.151 34.815 202.296 34.5167 204.073L35.1378 204.177C35.2521 203.32 35.4589 201.557 35.7185 200.011C35.9756 198.48 36.2976 197.093 36.4405 196.419L35.8193 196.315C35.5452 197.947 34.9641 198.489 33.3173 198.212L23.6094 196.582C21.9481 196.303 21.5757 195.602 21.8498 193.969L21.2286 193.865Z" fill="#B6985E"/>
<path d="M29.3561 188.043L25.8313 187.163C24.1968 186.755 23.8803 186.027 24.2809 184.421L23.6698 184.269C23.5316 184.944 23.2446 186.518 22.9254 187.797C22.6063 189.076 22.1664 190.416 21.9855 191.02L22.5967 191.172C22.9442 189.78 23.5444 189.371 25.1789 189.778L34.7299 192.161C36.3501 192.565 36.6667 193.294 36.266 194.9L36.8772 195.052C37.0154 194.377 37.3166 192.807 37.6216 191.584C37.969 190.191 38.4267 188.841 38.6926 187.775C39.8556 183.113 37.8472 180.876 35.6869 180.337C33.3133 179.745 31.129 180.936 30.0759 185.157L29.3561 188.043ZM38.0035 187.935C37.6099 189.513 36.9457 189.936 35.3823 189.546L29.8393 188.163L30.1301 186.998C30.9881 183.558 32.5011 182.456 35.1873 183.126C37.1913 183.626 38.78 184.823 38.0035 187.935Z" fill="#B6985E"/>
<path d="M43.0405 166.088C41.7663 166.201 40.025 166.048 38.8152 166.336C37.0955 166.762 36.082 168.122 35.382 170.065C35.3866 168.351 34.3051 167.431 33.145 166.469C31.5735 165.168 30.7275 164.513 30.6461 163.79L30.8543 163.86C31.9373 164.224 32.8833 163.847 33.2289 162.819C33.5464 161.875 33.0853 161.086 32.2244 160.797C31.433 160.531 30.506 160.76 30.0577 162.093C29.3106 164.314 31.123 165.588 32.5376 166.667C34.4469 168.113 35.5046 169.241 34.6811 172.333L30.5019 170.928C28.9052 170.391 28.6198 169.723 29.0821 168.348L28.485 168.148C28.312 168.754 27.9469 170.161 27.5267 171.411C27.1064 172.66 26.5096 174.113 26.2624 174.756L26.8594 174.957C27.387 173.388 28.046 172.945 29.6427 173.482L38.9729 176.62C40.5557 177.153 40.8131 177.904 40.2855 179.473L40.8825 179.673C41.0742 179.012 41.4905 177.498 41.9108 176.248C42.331 174.999 42.8766 173.652 43.1052 173.065L42.5081 172.864C42.0459 174.238 41.4149 174.598 39.8321 174.066L35.167 172.497C35.8118 170.442 36.4726 169.304 37.9052 168.858C39.2867 168.427 41.2179 168.612 42.2739 168.643C43.8488 168.694 44.9152 168.326 45.4895 166.618C45.667 166.091 45.7845 165.466 45.8835 164.803L45.2865 164.603C44.7878 165.718 44.1571 165.985 43.0405 166.088Z" fill="#B6985E"/>
<path d="M34.9633 150.231C33.4585 153.729 34.4654 157.431 39.7673 159.712C45.0557 161.986 48.4222 160.165 49.927 156.667C51.4318 153.168 50.4383 149.472 45.1499 147.197C39.848 144.917 36.4681 146.732 34.9633 150.231ZM35.515 150.468C36.4179 148.369 39.0596 147.751 43.9982 149.875C48.9233 151.993 50.2782 154.33 49.3753 156.429C48.4782 158.515 45.8442 159.152 40.9191 157.034C35.9805 154.91 34.6179 152.554 35.515 150.468Z" fill="#B6985E"/>
<path d="M48.0657 124.845C45.9932 128.384 47.4803 132.599 51.7276 135.086C56.0002 137.588 60.0645 136.59 61.9446 133.379C63.5656 130.611 62.5102 128.007 61.1325 126.504L60.6669 126.893C62.0932 128.951 61.9203 130.87 61.1357 132.209C59.9662 134.207 57.3973 135.028 52.8087 132.341C47.9167 129.477 47.6326 126.628 48.6318 124.922C49.2092 123.936 50.2616 123.211 51.0809 123.232C50.8973 123.923 51.1016 124.704 51.8727 125.156C52.707 125.644 53.5522 125.274 54.0111 124.49C54.4627 123.719 54.2923 122.821 53.3569 122.273C52.5731 121.814 51.6188 121.85 50.649 122.317C49.617 122.833 48.7023 123.758 48.0657 124.845Z" fill="#B6985E"/>
<path d="M59.8261 107.828C59.0584 108.936 58.1961 110.334 57.3367 111.574C56.4856 112.803 55.5279 114.081 54.7603 115.189L53.1248 117.549C54.3761 118.238 55.5412 118.974 56.1071 119.366C56.697 119.775 57.2462 120.191 57.5861 120.498L57.9782 119.932C54.7379 117.33 54.7709 116.177 56.1727 114.154L57.0071 112.95L66.6509 119.634C68.2521 120.743 67.9893 122.023 66.8629 123.648L67.3806 124.007C67.8905 123.22 68.8029 121.749 69.8626 120.22C70.9223 118.691 71.9874 117.308 72.5455 116.554L72.0278 116.196C70.8931 117.833 69.7875 118.528 68.1862 117.418L58.5424 110.735L59.2099 109.772C60.6117 107.749 61.8229 107.056 65.4054 109.164L65.7976 108.598C65.391 108.388 64.8084 108.02 64.2185 107.611C63.6526 107.219 62.5542 106.386 61.4698 105.456L59.8261 107.828Z" fill="#B6985E"/>
<path d="M67.7332 97.1131C65.3207 100.06 65.2661 103.896 69.7321 107.552C74.1867 111.199 77.9251 110.378 80.3376 107.431C82.7501 104.484 82.816 100.657 78.3614 97.0106C73.8954 93.3548 70.1457 94.166 67.7332 97.1131ZM68.1979 97.4935C69.6454 95.7252 72.355 95.861 76.5149 99.2663C80.6635 102.662 81.3204 105.282 79.8729 107.051C78.4346 108.808 75.7271 108.693 71.5785 105.296C67.4186 101.891 66.7597 99.2504 68.1979 97.4935Z" fill="#B6985E"/>
<path d="M86.7755 77.145C86.3175 77.6599 85.2801 78.878 84.3628 79.8248C83.4454 80.7717 82.3933 81.7103 81.934 82.1423L82.3864 82.5806C83.3241 81.6127 84.0267 81.498 85.1195 82.4752L87.2036 94.3657L80.3862 87.7609C79.1763 86.5887 79.2062 85.8631 80.2153 84.8216L79.7629 84.3833C79.3457 84.856 78.4306 85.9479 77.5133 86.8948C76.596 87.8416 75.4113 88.9171 74.9112 89.3911L75.3636 89.8294C76.5154 88.6406 77.3009 88.5245 78.5107 89.6967L85.5807 96.5462C86.78 97.7081 86.6889 98.4969 85.5372 99.6857L85.9896 100.124C86.4476 99.6092 87.4955 98.4013 88.4128 97.4544C89.3301 96.5075 90.3819 95.5482 90.8413 95.1162L90.3889 94.6779C89.5123 95.5827 88.8518 95.7381 87.9184 95.0174L85.8244 83.1581L92.3894 89.5183C93.5887 90.6803 93.5588 91.4059 92.5599 92.4369L93.0123 92.8752C93.4296 92.4025 94.3449 91.3313 95.2623 90.3844C96.1796 89.4376 97.3537 88.352 97.8538 87.8779L97.4014 87.4396C96.2497 88.6284 95.4642 88.7445 94.2648 87.5825L87.1949 80.733C85.985 79.5609 86.0761 78.7721 87.2279 77.5833L86.7755 77.145Z" fill="#B6985E"/>
<path d="M97.6295 67.7874C96.6143 68.6737 95.4361 69.8188 94.2995 70.811C93.1739 71.7936 91.9325 72.7995 90.9172 73.6857L88.7543 75.5738C89.7991 76.5479 90.7487 77.5467 91.2015 78.0654C91.6735 78.6061 92.1042 79.144 92.3587 79.5247L92.8773 79.0719C90.3719 75.7562 90.686 74.6459 92.5399 73.0276L93.6434 72.0643L101.36 80.9036C102.641 82.3713 102.073 83.5474 100.583 84.8479L100.998 85.3224C101.685 84.6838 102.929 83.4809 104.33 82.2575C105.732 81.0341 107.103 79.954 107.828 79.3595L107.414 78.885C105.913 80.1951 104.671 80.5988 103.39 79.1311L95.6739 70.2918L96.5568 69.5211C98.4107 67.9027 99.7547 67.5267 102.713 70.4474L103.231 69.9947C102.889 69.6911 102.414 69.1917 101.942 68.651C101.489 68.1323 100.628 67.0565 99.8035 65.8897L97.6295 67.7874Z" fill="#B6985E"/>
<path d="M118.458 52.0576C116.692 53.237 115.868 55.1958 116.268 57.43L114.511 54.7985C113.955 55.5221 113.118 56.2214 112.144 56.8721C111.644 57.2056 111.104 57.5309 110.548 57.832L110.898 58.3558C112.347 57.3879 113.27 57.7936 114.27 59.2921L122.664 71.8648C123.461 73.0587 123.246 73.713 122.052 74.5101L122.402 75.0339C122.91 74.6598 123.974 73.8263 125.021 73.1268C126.471 72.1589 127.941 71.3007 128.688 70.837L128.339 70.3132C126.84 71.3136 125.687 71.5378 124.735 70.1124L122.604 66.9205C123.685 67.3261 125.127 67.191 126.431 66.3207C130.488 63.6123 129.639 58.7538 127.232 55.1477C124.548 51.1273 121.078 50.3089 118.458 52.0576ZM125.768 65.9352C124.452 66.8136 123.132 66.7089 122.051 66.0921L117.065 58.624C116.194 56.1584 116.822 54.2242 118.272 53.2563C120.173 51.9874 122.392 53.1479 125.035 57.1074C127.402 60.6526 128.534 64.0889 125.768 65.9352Z" fill="#B6985E"/>
<path d="M131.94 44.0223C130.266 44.96 129.292 46.1599 128.823 47.0608C128.374 47.9672 128.212 48.847 128.641 49.6139C129.171 50.5596 130.074 50.9435 130.969 50.4425C131.902 49.9199 132.209 49.0595 131.708 48.1649C131.228 47.3086 130.331 47.0556 129.586 47.2545C129.765 46.164 130.764 45.3695 131.658 44.8684C133.013 44.1097 134.33 43.943 135.561 46.1412L136.47 47.7643C137.057 48.8123 135.927 50.0327 134.584 51.7418C132.58 54.3083 131.498 56.1233 132.657 58.1937C133.803 60.2386 135.868 60.24 137.619 59.2594C138.872 58.5579 140.256 57.1617 140.342 54.6786C141.03 55.9055 142.067 56.7684 143.895 55.7449C145.007 55.1221 145.327 54.4053 145.748 53.4478L145.203 53.1651C145.017 53.6723 144.808 54.1083 144.335 54.3732C143.735 54.7096 143.308 54.4279 142.836 53.5844L138.763 46.3123C137.725 44.4592 136.964 43.6095 135.661 43.2313C134.723 42.967 133.41 43.1992 131.94 44.0223ZM139.949 53.9757C139.869 55.901 139.154 57.0232 138.106 57.6101C136.905 58.283 135.602 58.0555 134.722 56.4835C133.591 54.4642 134.561 52.9299 135.404 51.7362C136.602 50.0076 137.026 49.4171 137.071 48.8379L139.949 53.9757Z" fill="#B6985E"/>
<path d="M146.508 36.672C144.983 37.3863 144.389 38.295 143.938 39.0238C143.657 39.495 143.439 39.8235 143.226 39.9229C142.868 40.0906 142.543 39.7415 142.071 39.0084L141.447 39.3004C141.811 39.9061 142.421 40.931 143.178 42.5495C143.414 43.0536 143.662 43.617 143.921 44.2397L144.545 43.9478C143.142 41.1593 144.256 38.3571 146.207 37.4441C147.653 36.767 148.901 37.6708 149.727 39.4352C150.41 40.8946 150.56 42.4253 149.132 43.6926C148.704 43.7798 148.269 43.8866 147.91 44.0543C147.526 44.2344 147.336 44.4523 147.492 44.784C147.647 45.1156 147.948 45.1365 148.306 44.9688C148.691 44.7887 149.014 44.4432 149.279 44.0765C151.083 43.2645 152.871 44.3198 153.815 46.3363C154.778 48.3926 154.338 50.4259 152.136 51.4569C150.889 52.0407 149.213 52.2269 148.64 51.832C149.255 51.3826 149.489 50.6743 149.135 49.9182C148.7 48.9895 147.796 48.7499 146.947 49.1474C146.111 49.5387 145.793 50.4152 146.203 51.2908C146.582 52.1 147.406 52.4424 148.365 52.5916C149.429 52.7567 150.748 52.6728 152.327 51.9337C155.431 50.4803 157.427 47.5566 156.203 44.9431C155.123 42.6347 152.64 42.3413 149.605 43.6327C151.244 42.3316 153.003 40.2144 151.986 37.9732C151.11 36.1026 148.949 35.5292 146.508 36.672Z" fill="#B6985E"/>
<path d="M164.281 29.391C162.293 30.1387 161.047 31.8595 160.929 34.1262L159.815 31.1647C159.109 31.7431 158.136 32.2344 157.039 32.6469C156.477 32.8584 155.877 33.0527 155.267 33.2196L155.489 33.8091C157.12 33.1955 157.927 33.7999 158.561 35.4863L163.882 49.6359C164.388 50.9795 164.03 51.5679 162.686 52.0733L162.908 52.6628C163.487 52.4137 164.713 51.8433 165.892 51.3998C167.523 50.7862 169.15 50.284 169.983 50.002L169.761 49.4124C168.075 50.0467 166.9 50.0033 166.297 48.3991L164.946 44.8069C165.907 45.4472 167.342 45.6429 168.809 45.0912C173.375 43.374 173.651 38.4498 172.125 34.3914C170.423 29.8668 167.229 28.2823 164.281 29.391ZM168.251 44.5654C166.77 45.1223 165.508 44.7206 164.595 43.8746L161.434 35.4698C161.145 32.871 162.196 31.1298 163.828 30.5161C165.967 29.7117 167.865 31.3455 169.541 35.8015C171.041 39.7913 171.364 43.3948 168.251 44.5654Z" fill="#B6985E"/>
<path d="M179.236 24.6242C177.392 25.1575 176.172 26.1052 175.511 26.876C174.867 27.6568 174.51 28.477 174.754 29.3212C175.056 30.3625 175.848 30.9414 176.833 30.6564C177.86 30.3593 178.355 29.591 178.07 28.606C177.797 27.6632 176.981 27.2132 176.21 27.2379C176.631 26.2163 177.785 25.6693 178.77 25.3843C180.261 24.9528 181.582 25.0892 182.282 27.5095L182.799 29.2966C183.133 30.4505 181.755 31.3826 180.06 32.7424C177.525 34.7871 176.059 36.3091 176.719 38.5886C177.37 40.8401 179.382 41.3103 181.309 40.7526C182.688 40.3536 184.353 39.3078 185.001 36.9092C185.392 38.2601 186.206 39.3359 188.219 38.7538C189.443 38.3996 189.918 37.7743 190.545 36.9371L190.078 36.5383C189.782 36.99 189.48 37.3672 188.959 37.5179C188.298 37.7092 187.946 37.3381 187.678 36.4094L185.361 28.4028C184.771 26.3624 184.222 25.3622 183.039 24.6981C182.186 24.2281 180.854 24.156 179.236 24.6242ZM184.777 36.1353C184.262 37.9922 183.311 38.9229 182.158 39.2568C180.835 39.6394 179.618 39.1223 179.117 37.3915C178.474 35.1682 179.768 33.8943 180.859 32.9228C182.418 31.5112 182.965 31.0325 183.141 30.4786L184.777 36.1353Z" fill="#B6985E"/>
<path d="M196.615 21.0734C193.962 21.6259 191.734 23.2868 191.469 27.1874L191.449 27.1617C190.78 21.0018 191.578 18.8006 194.66 17.5754C195.628 17.1942 196.986 16.8215 197.597 16.6644C199.056 16.2708 199.914 15.7182 200.449 15.0532C201.095 14.2752 201.324 13.0754 201.468 11.6838L200.999 11.6617C200.645 13.0521 199.979 13.8043 197.832 14.416C197.084 14.6316 195.599 14.9709 194.436 15.4225C192.898 16.0121 191.859 16.9167 191.275 17.921C189.489 20.9862 190.646 26.9699 190.92 28.2892C192.381 35.3019 195.439 37.3433 199.168 36.5668C203.341 35.6978 205.497 31.8972 204.491 27.0643C203.7 23.264 201.233 20.1119 196.615 21.0734ZM199.547 35.8743C197.554 36.2894 195.177 34.7195 194.084 29.4708C192.976 24.1504 194.635 22.1291 196.629 21.714C198.751 21.272 200.622 22.7827 201.616 27.5582C202.24 30.5554 202.602 35.2382 199.547 35.8743Z" fill="#B6985E"/>
<path d="M213.45 17.8058C209.671 18.282 206.991 21.0265 207.712 26.7527C208.432 32.4643 211.708 34.4433 215.487 33.9671C219.266 33.4908 221.948 30.7609 221.228 25.0493C220.507 19.3231 217.229 17.3296 213.45 17.8058ZM213.525 18.4017C215.792 18.116 217.664 20.08 218.336 25.4138C219.007 30.733 217.679 33.0855 215.412 33.3712C213.159 33.6551 211.275 31.7074 210.604 26.3882C209.932 21.0544 211.273 18.6856 213.525 18.4017Z" fill="#B6985E"/>
<path d="M235.852 16.6309C234.505 16.6921 232.871 16.8544 231.363 16.9229C229.871 16.9908 228.273 17.0047 226.927 17.0659L224.059 17.1963C224.269 18.6091 224.391 19.982 224.422 20.6697C224.454 21.3868 224.456 22.0759 224.418 22.5321L225.106 22.5009C225.211 18.3463 226.148 17.6732 228.606 17.5615L230.07 17.495L230.602 29.2163C230.691 31.1625 229.514 31.7292 227.539 31.819L227.567 32.4482C228.502 32.3764 230.225 32.2101 232.084 32.1256C233.942 32.0412 235.687 32.0498 236.625 32.0365L236.597 31.4073C234.607 31.4977 233.383 31.0401 233.295 29.0939L232.762 17.3726L233.933 17.3194C236.391 17.2076 237.677 17.7504 238.172 21.8777L238.86 21.8464C238.781 21.3954 238.721 20.709 238.688 19.992C238.657 19.3042 238.653 17.926 238.735 16.4999L235.852 16.6309Z" fill="#B6985E"/>
<path d="M254.89 30.2194C254.421 29.0297 254.073 27.3167 253.452 26.2387C252.555 24.711 250.964 24.1255 248.901 24.0065C250.546 23.524 251.121 22.2256 251.713 20.84C252.515 18.9636 252.903 17.9663 253.573 17.6828L253.565 17.9024C253.523 19.0442 254.154 19.844 255.237 19.8834C256.232 19.9196 256.858 19.2534 256.891 18.3458C256.921 17.5113 256.438 16.6876 255.032 16.6365C252.69 16.5514 251.984 18.6511 251.351 20.3138C250.508 22.5551 249.726 23.8899 246.528 23.9789L246.688 19.5726C246.749 17.8891 247.308 17.4257 248.757 17.4784L248.78 16.849C248.15 16.8554 246.697 16.9051 245.379 16.8572C244.062 16.8094 242.499 16.6499 241.812 16.5957L241.789 17.2251C243.444 17.2853 244.056 17.7912 243.994 19.4747L243.637 29.3119C243.576 30.9807 242.929 31.4409 241.275 31.3808L241.252 32.0103C241.941 32.006 243.511 31.9751 244.828 32.023C246.146 32.0709 247.592 32.2114 248.22 32.2636L248.243 31.6341C246.794 31.5814 246.27 31.0787 246.33 29.4098L246.509 24.4912C248.663 24.5255 249.941 24.8359 250.775 26.0828C251.582 27.2848 251.952 29.1891 252.223 30.2104C252.622 31.7347 253.278 32.6527 255.078 32.7181C255.634 32.7383 256.267 32.6734 256.93 32.5802L256.953 31.9508C255.742 31.7895 255.307 31.2606 254.89 30.2194Z" fill="#B6985E"/>
<path d="M267.036 17.8756C265.13 17.6564 263.638 18.06 262.731 18.516C261.836 18.9882 261.19 19.6069 261.089 20.48C260.965 21.5569 261.473 22.3968 262.492 22.5139C263.554 22.6361 264.307 22.118 264.424 21.0994C264.536 20.1243 263.957 19.3942 263.236 19.1197C264.019 18.3397 265.294 18.2798 266.312 18.397C267.855 18.5743 269.021 19.2096 268.733 21.7127L268.52 23.5608C268.383 24.7542 266.753 25.0828 264.664 25.6831C261.537 26.5917 259.597 27.4303 259.326 29.7878C259.058 32.1162 260.733 33.3262 262.727 33.5554C264.153 33.7193 266.092 33.3967 267.615 31.4338C267.455 32.8308 267.791 34.1376 269.872 34.3768C271.138 34.5224 271.817 34.1286 272.719 33.5982L272.443 33.0504C271.995 33.3528 271.57 33.5842 271.032 33.5223C270.348 33.4436 270.167 32.9657 270.277 32.0053L271.229 23.7248C271.472 21.6147 271.352 20.4803 270.516 19.4111C269.911 18.6484 268.709 18.068 267.036 17.8756ZM267.707 30.6334C266.516 32.1479 265.28 32.6398 264.086 32.5026C262.718 32.3453 261.795 31.3987 262.001 29.6087C262.265 27.3094 263.95 26.6332 265.332 26.158C267.314 25.457 268.004 25.2267 268.38 24.7833L267.707 30.6334Z" fill="#B6985E"/>
<path d="M297.238 39.3032C295.145 38.7993 294.816 38.2231 295.207 36.5995L297.511 27.029C297.905 25.3912 298.63 25.0687 300.24 25.456L300.387 24.8436C299.697 24.7076 298.163 24.4439 296.824 24.1217C295.514 23.8063 294.747 23.4862 293.679 23.2291C292.597 22.9686 291.512 22.8431 290.544 22.6101C289.589 22.3804 288.916 22.1127 288.595 22.0054L288.447 22.6178C289.957 22.9812 290.669 23.5895 290.33 24.9995C290.31 25.0849 290.271 25.1812 290.247 25.2809C289.165 28.6514 287.909 32.0555 286.33 34.3575C285.671 35.3438 284.577 36.2559 283.353 35.9611L282.797 35.8274C282.625 37.2323 282.36 38.5848 282.195 39.2684C282.027 39.9662 281.837 40.6287 281.674 41.0565L282.344 41.2176C283.458 37.8397 284.088 36.786 286.481 37.3619C290.383 38.3011 291.436 38.434 293.302 38.883C295.694 39.4589 295.734 40.7944 295.204 44.3129L295.873 44.474C295.923 44.0188 296.055 43.3426 296.223 42.6447C296.388 41.9611 296.767 40.6361 297.238 39.3032ZM292.587 35.9688C292.196 37.5923 291.556 37.9355 290.146 37.5961L284.82 36.3142C285.63 36.0121 286.25 35.3174 286.762 34.6272C288.472 32.2815 289.739 28.5185 290.774 25.4077C291.311 23.8042 291.809 23.4268 293.204 23.7627L293.461 23.8244C294.871 24.1637 295.284 24.7605 294.89 26.3983L292.587 35.9688Z" fill="#B6985E"/>
<path d="M319.649 31.1204C318.986 30.933 317.437 30.5313 316.185 30.1191C314.932 29.707 313.629 29.1699 313.04 28.9452L312.843 29.5435C314.123 29.9648 314.533 30.5469 314.13 31.9567L304.341 39.021L307.309 30.0046C307.835 28.4045 308.501 28.1147 309.879 28.5681L310.076 27.9698C309.468 27.8007 308.087 27.4539 306.834 27.0418C305.582 26.6296 304.097 26.0331 303.453 25.79L303.256 26.3883C304.828 26.9058 305.275 27.5619 304.749 29.162L301.671 38.5124C301.149 40.0986 300.4 40.3608 298.827 39.8434L298.631 40.4417C299.294 40.6291 300.838 41.0447 302.09 41.4569C303.342 41.869 304.665 42.3967 305.254 42.6215L305.451 42.0232C304.254 41.6293 303.826 41.1029 304.067 39.9485L313.824 32.8889L310.966 41.5714C310.444 43.1576 309.778 43.4474 308.414 42.9986L308.217 43.5969C308.825 43.766 310.188 44.1221 311.44 44.5343C312.693 44.9464 314.182 45.529 314.827 45.7721L315.024 45.1738C313.451 44.6563 313.004 44.0002 313.526 42.414L316.604 33.0636C317.13 31.4635 317.88 31.2013 319.452 31.7187L319.649 31.1204Z" fill="#B6985E"/>
<path d="M328.132 34.3361C326.579 33.6834 325.507 33.8524 324.664 34.0064C324.126 34.1141 323.736 34.1726 323.52 34.0818C323.155 33.9285 323.196 33.4531 323.423 32.611L322.788 32.3442C322.583 33.0208 322.232 34.16 321.539 35.8075C321.324 36.3207 321.072 36.8822 320.784 37.492L321.418 37.7588C322.546 34.8484 325.372 33.7957 327.357 34.63C328.829 35.2487 328.996 36.7806 328.241 38.5766C327.616 40.0621 326.582 41.2003 324.684 40.9905C324.332 40.7313 323.961 40.48 323.596 40.3268C323.205 40.1622 322.916 40.1681 322.774 40.5057C322.632 40.8433 322.819 41.0805 323.183 41.2337C323.575 41.3983 324.048 41.4065 324.498 41.3572C326.31 42.1505 326.726 44.1845 325.863 46.2372C324.983 48.3303 323.181 49.3681 320.939 48.4259C319.67 47.8924 318.408 46.7741 318.316 46.0842C319.062 46.2386 319.744 45.9376 320.068 45.1679C320.465 44.2226 320.036 43.3908 319.172 43.0275C318.321 42.67 317.458 43.0222 317.083 43.9135C316.737 44.7373 317.036 45.5776 317.568 46.3895C318.159 47.2894 319.106 48.2118 320.713 48.8872C323.873 50.2154 327.38 49.735 328.498 47.0747C329.486 44.725 328.039 42.6866 325.046 41.3015C327.11 41.6448 329.86 41.5294 330.84 39.272C331.641 37.3679 330.617 35.3805 328.132 34.3361Z" fill="#B6985E"/>
<path d="M342.782 41.2555C341.072 40.3854 339.533 40.2438 338.524 40.3547C337.521 40.4853 336.699 40.8399 336.301 41.6233C335.809 42.5895 335.993 43.5538 336.907 44.0187C337.86 44.5035 338.746 44.2804 339.21 43.3664C339.655 42.4916 339.367 41.6052 338.787 41.0968C339.793 40.6386 341.009 41.027 341.923 41.4919C343.307 42.1959 344.177 43.1977 343.035 45.4434L342.192 47.1015C341.647 48.1721 340.004 47.9118 337.837 47.7462C334.589 47.5075 332.479 47.6174 331.403 49.7325C330.341 51.8215 331.488 53.5393 333.277 54.4492C334.557 55.1 336.487 55.4737 338.599 54.165C337.961 55.4184 337.821 56.7604 339.688 57.7102C340.824 58.288 341.598 58.1557 342.627 57.9729L342.56 57.3632C342.035 57.4905 341.556 57.5593 341.073 57.3136C340.459 57.0014 340.456 56.4904 340.894 55.6287L344.673 48.1996C345.636 46.3065 345.919 45.2013 345.509 43.9079C345.207 42.9821 344.284 42.0192 342.782 41.2555ZM338.964 53.4469C337.319 54.4509 335.989 54.4811 334.918 53.9365C333.691 53.3122 333.156 52.103 333.973 50.4971C335.022 48.4342 336.837 48.3878 338.298 48.4241C340.4 48.4583 341.127 48.483 341.634 48.1983L338.964 53.4469Z" fill="#B6985E"/>
<path d="M357.254 44.5106C357.68 45.4419 358.51 46.5532 360.195 47.5877C361.881 48.6222 363.248 48.8596 364.258 48.8095C365.281 48.7671 366.159 48.4292 366.603 47.7051C367.086 46.9186 366.869 46.012 366.07 45.5216C365.308 45.0541 364.345 45.1675 363.816 46.0289C363.372 46.753 363.525 47.4831 364.085 47.9988C362.947 48.3139 361.433 47.6429 360.51 47.0759C359.586 46.5088 358.29 45.4556 358.056 44.2976C358.769 44.5636 359.489 44.3699 359.934 43.6458C360.463 42.7844 360.14 41.8817 359.378 41.4143C358.579 40.9238 357.673 41.1408 357.19 41.9273C356.746 42.6514 356.842 43.5869 357.254 44.5106ZM365.649 55.1119C365.047 54.7767 363.633 54.0288 362.509 53.3391C361.385 52.6495 360.241 51.8264 359.719 51.472L359.39 52.0088C360.538 52.7138 360.803 53.3747 360.087 54.6538L348.933 59.2719L353.899 51.1821C354.78 49.7464 355.495 49.618 356.73 50.3766L357.06 49.8398C356.508 49.5352 355.243 48.8793 354.12 48.1897C352.996 47.5 351.689 46.5774 351.117 46.1922L350.788 46.7291C352.199 47.595 352.483 48.3364 351.601 49.7721L346.452 58.1616C345.578 59.5848 344.789 59.6672 343.378 58.8013L343.048 59.3382C343.651 59.6733 345.057 60.4337 346.181 61.1234C347.304 61.813 348.469 62.6312 348.991 62.9857L349.32 62.4489C348.247 61.7899 347.952 61.1789 348.452 60.1112L359.573 55.4902L354.791 63.2804C353.918 64.7036 353.203 64.832 351.98 64.0811L351.65 64.6179C352.202 64.9224 353.447 65.5832 354.57 66.2728C355.694 66.9625 357.009 67.8726 357.58 68.2578L357.91 67.7209C356.499 66.855 356.215 66.1136 357.089 64.6904L362.238 56.3009C363.119 54.8652 363.909 54.7828 365.32 55.6487L365.649 55.1119Z" fill="#B6985E"/>
<path d="M380.912 66.4924C380.341 66.106 378.997 65.2378 377.938 64.4529C376.879 63.668 375.81 62.7484 375.321 62.3498L374.946 62.8559C376.1 63.7106 376.247 64.4216 375.244 65.7751L372.637 69.2942L367.305 65.3435L369.913 61.8244C370.916 60.471 371.639 60.4052 372.804 61.2686L373.179 60.7626C372.656 60.4111 371.453 59.6475 370.394 58.8626C369.335 58.0777 368.113 57.0447 367.577 56.6113L367.202 57.1174C368.532 58.1029 368.75 58.8663 367.747 60.2197L361.887 68.1288C360.893 69.4705 360.099 69.4839 358.769 68.4984L358.394 69.0045C358.964 69.3908 360.3 70.2708 361.359 71.0557C362.418 71.8406 363.507 72.7572 363.996 73.1557L364.371 72.6496C363.206 71.7862 363.058 71.0752 364.052 69.7335L366.948 65.826L372.279 69.7767L369.384 73.6841C368.39 75.0258 367.666 75.0916 366.513 74.2369L366.138 74.743C366.662 75.0944 367.844 75.8611 368.903 76.646C369.962 77.4309 371.193 78.4521 371.728 78.8855L372.103 78.3794C370.774 77.3939 370.555 76.6305 371.549 75.2888L377.41 67.3798C378.413 66.0263 379.207 66.0129 380.537 66.9984L380.912 66.4924Z" fill="#B6985E"/>
<path d="M388.275 72.4437C386.829 71.1818 385.372 70.6681 384.366 70.5287C383.361 70.41 382.478 70.553 381.9 71.2151C381.187 72.0317 381.129 73.0116 381.901 73.6859C382.707 74.3891 383.621 74.3894 384.295 73.6169C384.94 72.8776 384.877 71.9475 384.44 71.3127C385.527 71.1144 386.611 71.7884 387.383 72.4627C388.553 73.4838 389.152 74.6682 387.495 76.5663L386.272 77.9677C385.482 78.8726 383.953 78.2185 381.892 77.5278C378.801 76.502 376.728 76.0924 375.168 77.8801C373.627 79.6458 374.319 81.5921 375.831 82.9119C376.912 83.8559 378.692 84.6903 381.06 83.9379C380.136 84.9973 379.671 86.2642 381.249 87.6417C382.209 88.4798 382.992 88.5409 384.035 88.6155L384.119 88.0077C383.579 88.0028 383.098 87.9524 382.689 87.596C382.171 87.1432 382.293 86.647 382.929 85.9186L388.41 79.6395C389.807 78.0394 390.351 77.037 390.27 75.6825C390.204 74.711 389.544 73.5515 388.275 72.4437ZM381.59 83.3309C379.75 83.9022 378.453 83.6061 377.548 82.8162C376.511 81.9106 376.287 80.6073 377.472 79.2499C378.994 77.5064 380.765 77.9053 382.173 78.2978C384.203 78.8452 384.902 79.047 385.463 78.8947L381.59 83.3309Z" fill="#B6985E"/>
<path d="M413.584 99.1893C413.105 98.6939 411.969 97.5679 411.093 96.5819C409.819 95.1468 409.218 94.2705 408.187 93.1093C407.147 91.9371 406.134 90.9948 404.86 89.5597C403.985 88.5738 403.002 87.3116 402.566 86.7772L402.095 87.1954C403.194 88.4333 403.251 89.2253 401.991 90.3436L394.629 96.8784C393.38 97.987 392.601 97.8368 391.502 96.5989L391.031 97.017C391.51 97.5125 392.635 98.6482 393.511 99.6342C394.386 100.62 395.263 101.741 395.66 102.232L396.131 101.813C395.168 100.729 395.17 100.003 396.418 98.8941L403.78 92.3593C405.04 91.241 405.761 91.3255 406.724 92.41L408.494 94.4038C409.447 95.4774 409.445 96.2037 408.185 97.322L400.824 103.857C399.575 104.965 398.853 104.881 397.9 103.807L397.429 104.225C397.869 104.677 398.869 105.67 399.744 106.656C400.619 107.642 401.613 108.895 402.048 109.429L402.52 109.011C401.421 107.773 401.364 106.981 402.613 105.872L409.975 99.3377C411.235 98.2194 412.014 98.3696 413.113 99.6075L413.584 99.1893Z" fill="#B6985E"/>
<path d="M421.359 108.941C420.089 107.238 418.09 106.517 415.88 107.032L418.417 105.141C417.665 104.623 416.924 103.824 416.223 102.885C415.864 102.403 415.511 101.88 415.182 101.34L414.677 101.717C415.719 103.115 415.361 104.057 413.917 105.134L401.796 114.168C400.645 115.026 399.981 114.846 399.123 113.695L398.618 114.071C399.018 114.559 399.906 115.578 400.658 116.588C401.7 117.986 402.634 119.409 403.135 120.131L403.64 119.755C402.564 118.31 402.28 117.17 403.654 116.146L406.731 113.852C406.382 114.952 406.592 116.386 407.528 117.642C410.444 121.553 415.252 120.454 418.728 117.863C422.604 114.974 423.241 111.466 421.359 108.941ZM407.879 116.961C406.934 115.692 406.97 114.368 407.53 113.257L414.729 107.89C417.146 106.892 419.11 107.419 420.152 108.817C421.518 110.649 420.474 112.925 416.657 115.771C413.239 118.318 409.866 119.627 407.879 116.961Z" fill="#B6985E"/>
<path d="M422.993 133.317C420.541 133.628 419.063 132.706 418.105 131.18C416.882 129.232 417.702 126.019 421.188 123.831C421.746 123.48 422.345 123.139 422.867 122.897L427.852 130.837C431.686 128.43 432.321 125.558 430.452 122.581C428.263 119.094 424.104 118.558 419.638 121.362C415.742 123.808 414.405 127.656 416.719 131.341C418.3 133.859 421.063 134.459 423.113 133.951L422.993 133.317ZM429.906 122.785C430.973 124.485 429.337 126.618 426.802 128.089L423.328 122.556C426.7 120.82 428.956 121.272 429.906 122.785Z" fill="#B6985E"/>
<path d="M438.946 137.615C437.03 133.988 432.664 133.031 428.312 135.331C423.935 137.644 422.642 141.625 424.38 144.914C425.879 147.751 428.648 148.226 430.651 147.846L430.566 147.245C428.065 147.374 426.526 146.216 425.8 144.843C424.719 142.797 425.374 140.18 430.076 137.696C435.088 135.048 437.659 136.307 438.583 138.055C439.116 139.066 439.178 140.342 438.728 141.027C438.238 140.507 437.466 140.269 436.676 140.686C435.821 141.138 435.691 142.052 436.115 142.855C436.533 143.645 437.385 143.973 438.344 143.467C439.147 143.042 439.62 142.213 439.733 141.142C439.838 139.993 439.535 138.728 438.946 137.615Z" fill="#B6985E"/>
<path d="M445.856 152.334C444.208 148.578 439.923 147.307 435.416 149.285C430.882 151.274 429.303 155.15 430.798 158.557C432.087 161.495 434.815 162.17 436.84 161.937L436.798 161.331C434.295 161.278 432.844 160.011 432.22 158.589C431.29 156.47 432.134 153.908 437.003 151.772C442.194 149.494 444.667 150.937 445.461 152.747C445.92 153.794 445.889 155.071 445.391 155.722C444.94 155.168 444.187 154.874 443.369 155.233C442.483 155.622 442.287 156.524 442.652 157.355C443.011 158.173 443.838 158.563 444.83 158.127C445.662 157.762 446.194 156.969 446.385 155.909C446.573 154.771 446.362 153.488 445.856 152.334Z" fill="#B6985E"/>
<path d="M447.742 181.104C449.058 183.875 450.959 184.867 452.629 184.369C454.693 183.753 455.696 181.941 454.436 177.716C454.13 176.691 453.597 175.367 453.187 173.991C452.827 172.784 452.469 171.225 452.3 170.557L451.696 170.737C452.17 172.323 451.887 173.065 450.272 173.546L440.839 176.36C439.239 176.838 438.596 176.372 438.123 174.786L437.519 174.966C437.744 175.617 438.284 177.122 438.645 178.33C439.063 179.733 439.332 181.044 439.68 182.209C441.095 186.954 443.469 188.095 445.771 187.409C447.862 186.785 448.676 184.952 447.742 181.104ZM453.748 177.615C454.552 180.31 453.382 181.255 451.599 181.787C449.424 182.436 448.163 182.002 447.077 178.566L446.733 177.415L451.043 176.129C452.601 175.664 453.284 176.057 453.748 177.615ZM440.2 181.748C439.71 180.106 440.01 179.421 441.61 178.943L446.242 177.561L447.017 180.158C447.641 182.25 447.381 183.993 444.939 184.722C443.044 185.287 441.158 184.963 440.2 181.748Z" fill="#B6985E"/>
<path d="M459.133 194.837C458.339 191.112 455.378 188.673 449.733 189.876C444.103 191.076 442.407 194.507 443.201 198.232C443.995 201.957 446.942 204.399 452.572 203.199C458.217 201.997 459.926 198.562 459.133 194.837ZM458.545 194.962C459.022 197.197 457.223 199.228 451.965 200.348C446.721 201.466 444.265 200.342 443.789 198.107C443.315 195.886 445.097 193.844 450.341 192.727C455.598 191.606 458.072 192.742 458.545 194.962Z" fill="#B6985E"/>
<path d="M462.617 220.283C462.499 219.604 462.194 218.063 462.015 216.698C461.841 215.362 461.734 214.548 461.592 213.459L461.261 210.932C461.132 209.944 461.141 209.219 461.126 208.881L460.502 208.963C460.703 210.502 460.39 211.385 458.952 211.573C458.865 211.585 458.761 211.583 458.66 211.597C454.994 211.81 451.377 211.825 448.782 211.189C447.716 210.945 445.787 210.311 445.597 208.858C445.589 208.8 445.566 208.626 445.588 208.564C445.997 209.323 446.533 209.578 447.186 209.492C448.145 209.367 448.539 208.651 448.431 207.823C448.305 206.864 447.624 206.288 446.637 206.418C445.446 206.573 444.983 207.668 445.124 208.743C445.357 210.529 447.155 211.284 448.685 211.69C451.513 212.413 454.997 212.283 458.73 212.134C460.419 212.061 460.925 212.202 461.054 213.189L461.089 213.451C461.277 214.889 460.868 215.489 459.197 215.707L449.437 216.984C447.752 217.204 447.161 216.188 446.927 214.401L446.303 214.483C446.444 215.336 446.761 217.082 446.964 218.636C447.165 220.176 447.262 221.596 447.323 222.283L447.947 222.201C447.733 220.56 448.13 219.873 449.786 219.656L459.547 218.38C461.217 218.161 461.778 218.723 461.993 220.365L462.617 220.283Z" fill="#B6985E"/>
<path d="M463.482 238.127C463.419 237.441 463.238 235.881 463.169 234.505C463.101 233.159 463.06 232.34 463.005 231.243L462.878 228.697C462.828 227.702 462.894 226.98 462.907 226.642L462.277 226.674C462.355 228.225 461.973 229.08 460.524 229.153C460.437 229.157 460.333 229.147 460.231 229.153C456.56 229.073 452.953 228.799 450.418 227.958C449.375 227.629 447.502 226.843 447.428 225.38C447.425 225.321 447.417 225.146 447.443 225.086C447.791 225.875 448.304 226.172 448.962 226.139C449.928 226.09 450.378 225.408 450.336 224.574C450.288 223.608 449.655 222.98 448.66 223.03C447.46 223.09 446.912 224.144 446.966 225.227C447.056 227.026 448.788 227.922 450.281 228.449C453.042 229.396 456.525 229.544 460.258 229.694C461.948 229.756 462.441 229.937 462.491 230.931L462.504 231.195C462.577 232.643 462.121 233.209 460.439 233.293L450.607 233.786C448.91 233.871 448.402 232.811 448.312 231.011L447.683 231.043C447.756 231.905 447.932 233.671 448.01 235.236C448.088 236.787 448.072 238.21 448.077 238.899L448.706 238.868C448.623 237.215 449.074 236.561 450.742 236.478L460.573 235.985C462.256 235.901 462.77 236.505 462.853 238.159L463.482 238.127Z" fill="#B6985E"/>
<path d="M463.619 247.424C463.67 245.506 463.136 244.056 462.602 243.192C462.053 242.342 461.379 241.753 460.501 241.73C459.417 241.701 458.625 242.281 458.599 243.307C458.57 244.375 459.153 245.079 460.178 245.106C461.159 245.132 461.835 244.49 462.045 243.749C462.891 244.459 463.063 245.724 463.036 246.749C462.995 248.301 462.465 249.518 459.947 249.452L458.087 249.404C456.886 249.372 456.415 247.777 455.633 245.749C454.452 242.714 453.446 240.856 451.074 240.794C448.731 240.732 447.673 242.507 447.621 244.513C447.583 245.948 448.075 247.851 450.165 249.196C448.759 249.159 447.487 249.609 447.432 251.703C447.399 252.977 447.851 253.619 448.459 254.47L448.98 254.147C448.639 253.728 448.371 253.325 448.386 252.783C448.404 252.095 448.864 251.873 449.83 251.898L458.162 252.116C460.286 252.172 461.405 251.952 462.396 251.026C463.103 250.356 463.575 249.108 463.619 247.424ZM450.97 249.217C449.357 248.164 448.758 246.976 448.789 245.775C448.825 244.398 449.687 243.395 451.488 243.442C453.802 243.503 454.624 245.122 455.219 246.456C456.092 248.369 456.382 249.036 456.857 249.371L450.97 249.217Z" fill="#B6985E"/>
<path d="M470.162 263.351C470.348 261.441 469.965 260.079 469.477 259.193C468.991 258.292 468.302 257.665 467.456 257.583C466.537 257.494 465.817 258.086 465.728 259.004C465.64 259.908 466.165 260.71 467.171 260.808C468.017 260.89 468.606 260.433 468.824 259.703C469.618 260.472 469.711 261.777 469.619 262.724C469.378 265.203 467.622 266.754 463.861 266.387C461.528 266.16 459.598 265.281 458.526 261.173L453.89 260.721L453.831 261.319L458.191 261.744C458.822 265.838 460.789 268.767 464.171 269.096C467.51 269.421 469.798 267.083 470.162 263.351ZM450.272 260.693C450.374 259.643 449.598 258.699 448.548 258.597C447.513 258.496 446.554 259.271 446.452 260.321C446.35 261.371 447.141 262.316 448.176 262.417C449.226 262.519 450.17 261.743 450.272 260.693Z" fill="#B6985E"/>
</svg>
