<svg xmlns="http://www.w3.org/2000/svg" viewBox="0 0 225.14 225.14">
  <g>
    <path d="M157.82,157.82c-28.37,28.38-59.14,49-85.93,59.28-13.4,5.17-25.78,7.77-36.36,7.52S16.22,221.28,10,215.1.76,200.18.52,189.6s2.35-23,7.51-36.35c10.34-26.79,30.91-57.56,59.28-85.94S126.46,18.37,153.25,8C166.65,2.87,179,.27,189.6.52S208.92,3.86,215.1,10s9.27,14.92,9.52,25.49-2.35,23-7.52,36.36C206.77,98.68,186.2,129.45,157.82,157.82Z" style="fill: none;stroke: #b6985e"/>
    <path d="M166.74,57.56a9.91,9.91,0,0,0-2.59-4.48,9.91,9.91,0,0,0-2.59,4.48,9.91,9.91,0,0,0-4.48,2.59,9.91,9.91,0,0,0,4.48,2.59,10,10,0,0,0,2.59,4.48,10,10,0,0,0,2.59-4.48,10.06,10.06,0,0,0,4.48-2.59A10,10,0,0,0,166.74,57.56Z" style="fill: #b6985e;fill-rule: evenodd"/>
  </g>
</svg>
