<?xml version="1.0" encoding="utf-8"?>
<!-- Generator: Adobe Illustrator 22.0.0, SVG Export Plug-In . SVG Version: 6.00 Build 0)  -->
<svg version="1.1" id="Layer_1" xmlns="http://www.w3.org/2000/svg" xmlns:xlink="http://www.w3.org/1999/xlink" x="0px" y="0px"
	 viewBox="0 0 90.132 25" style="enable-background:new 0 0 90.132 25;" xml:space="preserve">
<style type="text/css">
	.st0{fill-rule:evenodd;clip-rule:evenodd;fill:#A6AAAA;}
	.st1{fill-rule:evenodd;clip-rule:evenodd;fill:#F3792E;}
	.st2{fill-rule:evenodd;clip-rule:evenodd;fill:#F06022;}
	.st3{fill-rule:evenodd;clip-rule:evenodd;fill:#D95122;}
	.st4{fill-rule:evenodd;clip-rule:evenodd;fill:#F89A2C;}
	.st5{fill-rule:evenodd;clip-rule:evenodd;fill:#FFFFFF;}
	.st6{fill:#FFFFFF;}
	.st7{fill-rule:evenodd;clip-rule:evenodd;fill:#B4008D;}
	.st8{fill-rule:evenodd;clip-rule:evenodd;fill:#9DBC0A;}
	.st9{fill:none;stroke:#9DBC0A;stroke-width:0.1962;stroke-miterlimit:10;}
	.st10{fill-rule:evenodd;clip-rule:evenodd;fill:#DF3F17;}
	.st11{fill:none;stroke:#DF3F17;stroke-width:0.1962;stroke-miterlimit:10;}
	.st12{fill-rule:evenodd;clip-rule:evenodd;fill:#F5B208;}
	.st13{fill:none;stroke:#F5B208;stroke-width:0.1962;stroke-miterlimit:10;}
	.st14{fill:#9DBC0A;}
	.st15{fill:none;stroke:#9DBC0A;stroke-width:0.2023;stroke-miterlimit:10;}
	.st16{fill:none;stroke:#DF3F17;stroke-width:0.2023;stroke-miterlimit:10;}
	.st17{fill:none;stroke:#F5B208;stroke-width:0.2023;stroke-miterlimit:10;}
	.st18{fill-rule:evenodd;clip-rule:evenodd;fill:#85754E;}
	.st19{fill:#85754E;}
	.st20{fill-rule:evenodd;clip-rule:evenodd;fill:#1A171B;}
	.st21{fill:#016268;}
	.st22{fill:#00A9C2;}
	.st23{fill:#21427B;}
	.st24{fill:#FAE101;}
	.st25{fill-rule:evenodd;clip-rule:evenodd;fill:#32327F;}
	.st26{fill-rule:evenodd;clip-rule:evenodd;fill:#FCB813;}
	.st27{fill:#002169;}
	.st28{fill:#C6C7C8;}
	.st29{fill:#F79420;}
	.st30{fill:#FCB831;}
	.st31{fill:#FDDD2E;}
	.st32{fill:#F3C700;}
	.st33{fill:#DB6216;}
	.st34{fill:#EAA600;}
	.st35{fill:#E32427;}
	.st36{fill:#FFFFFF;stroke:#FFFFFF;stroke-width:0.1124;stroke-miterlimit:10;}
	.st37{fill:url(#SVGID_1_);}
	.st38{fill-rule:evenodd;clip-rule:evenodd;fill:#C1272D;}
	.st39{fill-rule:evenodd;clip-rule:evenodd;fill:url(#SVGID_2_);}
	.st40{fill-rule:evenodd;clip-rule:evenodd;fill:url(#SVGID_3_);}
	.st41{fill-rule:evenodd;clip-rule:evenodd;fill:url(#SVGID_4_);}
	.st42{fill-rule:evenodd;clip-rule:evenodd;fill:url(#SVGID_5_);}
	.st43{fill-rule:evenodd;clip-rule:evenodd;fill:url(#SVGID_6_);}
	.st44{fill-rule:evenodd;clip-rule:evenodd;fill:url(#SVGID_7_);}
	.st45{fill-rule:evenodd;clip-rule:evenodd;fill:url(#SVGID_8_);}
	.st46{fill:#006937;}
	.st47{fill:#929990;}
	.st48{fill:#FFFFFF;stroke:#FFFFFF;stroke-width:0.1949;stroke-miterlimit:10;}
	.st49{fill:#18428F;}
	.st50{fill:#EC1848;}
	.st51{fill:#29A151;}
	.st52{fill:#C1272D;}
	.st53{fill:#29ABE2;}
	.st54{fill:#F7BE3E;}
	.st55{fill:url(#SVGID_9_);}
	.st56{fill-rule:evenodd;clip-rule:evenodd;fill:none;}
	.st57{clip-path:url(#SVGID_11_);fill-rule:evenodd;clip-rule:evenodd;}
	.st58{fill:#EFAF1F;}
	.st59{fill:#EFB022;}
	.st60{fill:#0E0A08;}
	.st61{fill:#DA2A28;}
	.st62{fill:#F6F6F5;}
	.st63{fill:#C7B086;}
	.st64{fill:#F1F0EE;}
	.st65{fill-rule:evenodd;clip-rule:evenodd;fill:url(#SVGID_12_);}
	.st66{fill-rule:evenodd;clip-rule:evenodd;fill:#FAF9F9;}
	.st67{fill-rule:evenodd;clip-rule:evenodd;fill:#F8B132;}
	.st68{fill-rule:evenodd;clip-rule:evenodd;fill:#1A70B7;}
	.st69{fill-rule:evenodd;clip-rule:evenodd;fill:#36A834;}
	.st70{fill-rule:evenodd;clip-rule:evenodd;fill:#E2000F;}
	.st71{fill-rule:evenodd;clip-rule:evenodd;fill:#1A1A18;}
	.st72{fill:url(#SVGID_13_);}
	.st73{fill:url(#SVGID_14_);}
	.st74{fill:url(#SVGID_15_);}
	.st75{fill:url(#SVGID_16_);}
	.st76{fill:url(#SVGID_17_);}
	.st77{fill:url(#SVGID_18_);}
	.st78{fill:url(#SVGID_19_);}
	.st79{fill:url(#SVGID_20_);}
	.st80{fill:url(#SVGID_21_);}
	.st81{fill:url(#SVGID_22_);}
	.st82{fill:url(#SVGID_23_);}
	.st83{fill:url(#SVGID_24_);}
	.st84{fill:url(#SVGID_25_);}
	.st85{fill:url(#SVGID_26_);}
	.st86{fill:#00A85D;}
	.st87{fill:#FFFFFF;stroke:#FFFFFF;stroke-width:0.1;stroke-miterlimit:10;}
	.st88{fill:#9FD8F5;}
	.st89{fill:#274888;}
	.st90{fill:#267DBF;}
	.st91{fill:#2F91CF;}
	.st92{fill:#2955A0;}
	.st93{fill:#236EB3;}
	.st94{fill:#CFEBFA;}
	.st95{fill:#42B7E9;}
	.st96{fill:#3FAAE0;}
	.st97{fill:#ED171F;}
	.st98{opacity:0.25;fill:url(#SVGID_27_);}
	.st99{fill:#FFFFFF;stroke:#FFFFFF;stroke-width:1.0606;stroke-miterlimit:10;}
	.st100{fill:#FFAF10;}
	.st101{fill:#151416;}
	.st102{fill:#E57641;}
	.st103{fill:none;}
	.st104{fill:#1C191B;}
	.st105{fill:#19181A;}
	.st106{fill:#DD7340;}
	.st107{fill:#181617;}
	.st108{fill:#EA7944;}
	.st109{fill:#0C0E13;}
	.st110{fill:#181719;}
	.st111{fill:#F2F1F2;}
	.st112{fill:#F6F5F5;}
	.st113{fill:#BA673F;}
	.st114{fill:#4E362A;}
	.st115{fill:#6A6567;}
	.st116{fill:none;stroke:#EA7944;stroke-width:0.3013;stroke-linecap:round;stroke-miterlimit:10;}
	.st117{fill:none;stroke:#FF00FF;stroke-width:0.25;stroke-miterlimit:10;}
</style>
<g>
	<g>
		<path class="st58" d="M13.188,17.957c-2.828,0.005-5.272-2.024-5.781-4.8c-0.032-0.172-0.004-0.205,0.171-0.208
			c0.177-0.003,0.319,0.041,0.381,0.235c0.029,0.091,0.086,0.173,0.135,0.256c0.056,0.095,0.135,0.171,0.244,0.194
			c0.077,0.016,0.104,0.039,0.114,0.124c0.015,0.122,0.129,0.158,0.237,0.179c0.047,0.009,0.06-0.015,0.044-0.058
			c-0.043-0.116,0.032-0.169,0.116-0.217c0.126-0.073,0.295-0.055,0.394-0.189c0.01-0.014,0.059-0.011,0.083,0
			c0.181,0.078,0.372,0.051,0.56,0.054c0.219,0.003,0.293,0.09,0.238,0.304c-0.025,0.099-0.002,0.146,0.088,0.174
			c0.018,0.006,0.042,0.013,0.05,0.027c0.061,0.105,0.145,0.116,0.261,0.099c0.112-0.016,0.169,0.083,0.192,0.183
			c0.027,0.118,0.042,0.238,0.062,0.358c0.047,0.273,0.246,0.457,0.524,0.465c0.07,0.002,0.091,0.029,0.113,0.081
			c0.06,0.14,0.143,0.263,0.26,0.363c0.074,0.064,0.145,0.082,0.236,0.031c0.105-0.059,0.215-0.113,0.325-0.161
			c0.229-0.1,0.359-0.072,0.535,0.105c0.027,0.027,0.058,0.052,0.091,0.07c0.062,0.034,0.127,0.047,0.193,0.005
			c0.071-0.045,0.068-0.111,0.055-0.18c-0.018-0.097-0.073-0.2,0.065-0.261c0.131-0.059,0.251-0.038,0.352,0.08
			c0.06,0.07,0.106,0.15,0.163,0.222c0.102,0.129,0.194,0.149,0.324,0.051c0.08-0.061,0.144-0.055,0.224-0.014
			c0.112,0.058,0.223,0.118,0.34,0.163c0.143,0.055,0.263,0.012,0.331-0.124c0.077-0.152,0.2-0.2,0.357-0.199
			c0.092,0.001,0.184,0.005,0.276,0c0.132-0.008,0.208-0.084,0.209-0.214c0.001-0.094,0.013-0.183,0.039-0.272
			c0.024-0.084,0.02-0.16-0.031-0.235c-0.067-0.097-0.027-0.164,0.073-0.203c0.077-0.03,0.148-0.064,0.215-0.116
			c0.09-0.07,0.193-0.05,0.288,0.003c0.086,0.048,0.151,0.121,0.213,0.195c0.075,0.089,0.146,0.182,0.229,0.263
			c0.141,0.137,0.285,0.153,0.404,0.005c0.154-0.191,0.363-0.092,0.538-0.151c0.02-0.007,0.037,0.012,0.036,0.034
			c-0.009,0.226,0.115,0.432,0.103,0.658c-0.005,0.093,0.023,0.213-0.13,0.233c-0.039,0.005-0.027,0.057-0.033,0.088
			c-0.034,0.187-0.12,0.344-0.254,0.48c-0.97,0.992-2.139,1.583-3.514,1.768C13.681,17.938,13.435,17.957,13.188,17.957z"/>
		<path class="st58" d="M18.631,14.056c-0.033-0.063-0.046-0.144-0.02-0.197c0.054-0.11-0.007-0.164-0.07-0.23
			c-0.151-0.157-0.3-0.317-0.45-0.475c-0.022-0.023-0.043-0.068-0.079-0.049c-0.035,0.018-0.043,0.063-0.029,0.104
			c0.022,0.063,0.045,0.125,0.08,0.22c-0.106-0.064-0.185-0.113-0.266-0.159c-0.086-0.05-0.152-0.037-0.204,0.056
			c-0.086,0.153-0.171,0.184-0.33,0.105c-0.063-0.032-0.113-0.031-0.176-0.02c-0.405,0.072-0.81,0.078-1.212-0.024
			c-0.74-0.187-1.15-0.7-1.14-1.427c0.009-0.69,0.453-1.204,1.181-1.366c0.448-0.099,0.896-0.076,1.343,0.004
			c0.063,0.011,0.102,0.031,0.099,0.111c-0.007,0.184-0.005,0.369-0.001,0.553c0.002,0.083-0.024,0.098-0.102,0.075
			c-0.254-0.077-0.512-0.112-0.774-0.045c-0.343,0.088-0.564,0.382-0.542,0.715c0.026,0.396,0.256,0.636,0.642,0.683
			c0.231,0.029,0.455-0.003,0.674-0.068c0.086-0.025,0.112-0.009,0.105,0.079c-0.006,0.072-0.001,0.145-0.001,0.229
			c0.092-0.066,0.106-0.148,0.076-0.235c-0.052-0.149-0.047-0.306-0.076-0.458c-0.022-0.116,0.03-0.207,0.114-0.283
			c0.134-0.122,0.304-0.21,0.346-0.415c0.012-0.058,0.096-0.055,0.149-0.076c0.034-0.014,0.075,0.001,0.109-0.029
			c0.087-0.076,0.198-0.12,0.094-0.282c-0.096-0.15-0.062-0.349-0.099-0.524c-0.016-0.074,0.06-0.125,0.119-0.168
			c0.055-0.04,0.089-0.001,0.124,0.034c0.059,0.06,0.083,0.024,0.089-0.037c0.007-0.067,0.004-0.136,0.012-0.203
			c0.005-0.04,0.031-0.073,0.076-0.077c0.06-0.006,0.055,0.042,0.06,0.078c0.039,0.253,0.102,0.499,0.081,0.762
			c-0.025,0.31,0.109,0.566,0.355,0.757c0.05,0.039,0.061,0.077,0.062,0.133c0.016,0.68-0.079,1.343-0.289,1.99
			c-0.025,0.076-0.057,0.13-0.133,0.155C18.628,14.055,18.631,14.056,18.631,14.056z"/>
		<path class="st59" d="M14.946,22.71c0.009-0.335,0.013-0.668,0.224-0.963c2.468-3.445,4.935-6.891,7.398-10.339
			c0.082-0.114,0.122-0.104,0.21-0.014c0.182,0.189,0.187,0.185,0.037,0.395c-2.588,3.616-5.176,7.231-7.764,10.847
			c-0.022,0.031-0.046,0.06-0.069,0.09C14.97,22.72,14.958,22.715,14.946,22.71z"/>
		<path class="st59" d="M12.47,0.767c0.025,0.382-0.011,0.739-0.244,1.063C9.865,5.119,7.51,8.413,5.154,11.705
			c-0.031,0.043-0.063,0.085-0.104,0.141c-0.063-0.136-0.122-0.262-0.18-0.387c-0.032-0.069,0.023-0.109,0.055-0.154
			c0.646-0.903,1.292-1.806,1.938-2.709c1.837-2.567,3.675-5.134,5.512-7.7C12.406,0.852,12.438,0.809,12.47,0.767z"/>
		<path class="st58" d="M13.709,10.696c0.342,0.154,0.599,0.386,0.737,0.733c0.357,0.896-0.166,1.796-1.148,1.985
			c-0.432,0.083-0.858,0.051-1.284-0.038c-0.076-0.016-0.117-0.041-0.113-0.131c0.008-0.179,0.006-0.359,0.001-0.538
			c-0.003-0.088,0.02-0.106,0.106-0.079c0.29,0.091,0.586,0.133,0.887,0.058c0.171-0.042,0.309-0.135,0.403-0.288
			c0.056-0.091,0.056-0.135-0.071-0.132c-0.262,0.006-0.524-0.001-0.785,0.004c-0.091,0.002-0.132-0.019-0.124-0.12
			c0.009-0.116,0.008-0.233,0-0.349c-0.006-0.092,0.028-0.115,0.115-0.113c0.271,0.005,0.543-0.001,0.815,0.003
			c0.101,0.001,0.107-0.033,0.062-0.109c-0.157-0.266-0.415-0.333-0.696-0.345c-0.2-0.008-0.397,0.025-0.586,0.087
			c-0.094,0.031-0.131,0.026-0.126-0.085c0.007-0.169,0.006-0.339,0-0.509c-0.003-0.082,0.02-0.122,0.106-0.136
			c0.512-0.083,1.022-0.11,1.525,0.044c0.081,0.025,0.112-0.013,0.155-0.062c0.049-0.056,0.093-0.131,0.188-0.111
			c0.02,0.004,0.032,0.022,0.028,0.044c-0.016,0.086-0.071,0.134-0.153,0.156C13.74,10.67,13.729,10.682,13.709,10.696z"/>
		<path class="st59" d="M15.415,20.923c0.117-0.305,0.205-0.606,0.251-0.919c0.01-0.065,0.031-0.12,0.069-0.172
			c2.126-2.969,4.252-5.938,6.376-8.909c0.066-0.092,0.103-0.11,0.187-0.018c0.191,0.211,0.197,0.206,0.032,0.436
			c-2.261,3.159-4.522,6.318-6.784,9.476C15.515,20.859,15.502,20.929,15.415,20.923z"/>
		<path class="st59" d="M4.395,10.506c-0.016-0.014-0.02-0.017-0.023-0.021c-0.207-0.371-0.207-0.371,0.04-0.717
			C4.819,9.2,5.23,8.635,5.629,8.062C5.711,7.945,5.776,7.9,5.917,7.967C6.06,8.034,6.081,8.018,6.052,7.862
			C6.007,7.614,6.083,7.421,6.23,7.22c0.6-0.817,1.185-1.645,1.775-2.469C8.028,4.72,8.051,4.69,8.091,4.663
			C8.049,4.972,8.139,5.292,7.928,5.584c-1.156,1.6-2.301,3.208-3.45,4.813C4.453,10.432,4.426,10.466,4.395,10.506z"/>
		<path class="st59" d="M8.815,5.456C8.94,5.005,8.944,4.534,9.246,4.125c0.983-1.328,1.932-2.682,2.894-4.025
			c0.097-0.136,0.098-0.136,0.176,0.015c0.009,0.017,0.016,0.035,0.026,0.052c0.094,0.151,0.076,0.275-0.034,0.428
			c-1.135,1.571-2.261,3.149-3.39,4.726C8.885,5.366,8.85,5.411,8.815,5.456z"/>
		<path class="st59" d="M4.723,11.163c-0.067-0.127-0.125-0.243-0.188-0.357c-0.04-0.072,0.02-0.108,0.05-0.151
			C5.267,9.7,5.951,8.746,6.634,7.792c0.429-0.599,0.858-1.199,1.288-1.797c0.026-0.037,0.041-0.087,0.104-0.106
			c0.012,0.182,0.01,0.361,0.07,0.531c0.015,0.043-0.017,0.073-0.039,0.104c-1.095,1.53-2.19,3.059-3.286,4.588
			C4.762,11.124,4.751,11.134,4.723,11.163z"/>
		<path class="st59" d="M8.067,22.67c0.169-0.237,0.315-0.441,0.46-0.644c0.849-1.187,1.7-2.373,2.546-3.562
			c0.07-0.099,0.131-0.133,0.245-0.084c0.083,0.036,0.175,0.053,0.276,0.082c-0.254,0.355-0.502,0.701-0.75,1.048
			c-0.68,0.95-1.364,1.898-2.037,2.853c-0.104,0.148-0.222,0.231-0.395,0.251C8.311,22.626,8.211,22.646,8.067,22.67z"/>
		<path class="st59" d="M15.18,23.573c-0.084-0.157-0.108-0.315-0.149-0.467c-0.011-0.042,0.024-0.071,0.046-0.102
			c0.959-1.34,1.918-2.68,2.878-4.02c0.014-0.019,0.03-0.035,0.075-0.086c-0.026,0.362,0.03,0.679-0.193,0.982
			c-0.863,1.176-1.704,2.369-2.553,3.555C15.254,23.477,15.221,23.518,15.18,23.573z"/>
		<path class="st59" d="M11.95,2.681c-0.089,0.259-0.153,0.521-0.124,0.796c0.005,0.048-0.034,0.078-0.059,0.113
			c-0.69,0.966-1.381,1.931-2.072,2.896C9.661,6.535,9.623,6.576,9.573,6.609C9.248,6.822,8.945,7.064,8.663,7.331
			C8.633,7.36,8.608,7.403,8.541,7.378c1.127-1.574,2.251-3.144,3.376-4.715C11.927,2.669,11.939,2.675,11.95,2.681z"/>
		<path class="st59" d="M4.081,13.609c0.289-0.404,0.569-0.793,0.846-1.185c0.041-0.058,0.07-0.049,0.113-0.009
			c0.041,0.039,0.086,0.073,0.153,0.129c-0.006-0.102,0.002-0.18-0.018-0.251c-0.034-0.118-0.008-0.208,0.064-0.307
			c0.65-0.9,1.295-1.804,1.942-2.707c0.027-0.038,0.056-0.074,0.09-0.118c0.023,0.07-0.017,0.107-0.036,0.149
			c-0.16,0.354-0.3,0.714-0.394,1.092c-0.019,0.076-0.05,0.144-0.096,0.209c-0.721,1.005-1.443,2.009-2.158,3.018
			c-0.067,0.094-0.125,0.111-0.224,0.07C4.277,13.663,4.187,13.642,4.081,13.609z"/>
		<path class="st59" d="M9.05,22.422c0.35-0.49,0.682-0.954,1.014-1.418c0.564-0.788,1.13-1.575,1.69-2.366
			c0.064-0.091,0.125-0.138,0.235-0.097c0.094,0.035,0.202,0.015,0.304,0.068c-0.314,0.439-0.623,0.872-0.933,1.305
			c-0.482,0.674-0.967,1.346-1.446,2.022c-0.078,0.111-0.168,0.194-0.292,0.249C9.443,22.265,9.269,22.357,9.05,22.422z"/>
		<path class="st59" d="M19.374,9.827c-0.249-0.29-0.147-0.523,0.054-0.794c0.71-0.957,1.396-1.932,2.085-2.904
			c0.076-0.107,0.148-0.152,0.274-0.118c0.092,0.025,0.24-0.033,0.27,0.038c0.034,0.081-0.088,0.167-0.145,0.248
			c-0.807,1.132-1.617,2.262-2.427,3.392C19.449,9.738,19.424,9.798,19.374,9.827z"/>
		<path class="st59" d="M3.965,17.146c0.921-1.287,1.831-2.558,2.757-3.851c0.044,0.181,0.084,0.342,0.123,0.502
			c0.012,0.049-0.025,0.081-0.05,0.116c-0.753,1.052-1.505,2.104-2.258,3.156c-0.028,0.039-0.052,0.079-0.112,0.078
			C4.279,17.144,4.135,17.146,3.965,17.146z"/>
		<path class="st59" d="M16.483,6.411c0.303-0.422,0.602-0.84,0.901-1.258c0.463-0.647,0.927-1.293,1.388-1.941
			c0.045-0.063,0.094-0.103,0.171-0.119c0.184-0.04,0.356-0.115,0.538-0.194c0.006,0.054-0.026,0.079-0.046,0.107
			c-0.84,1.176-1.683,2.35-2.52,3.528c-0.066,0.093-0.111,0.092-0.192,0.03C16.65,6.509,16.568,6.465,16.483,6.411z"/>
		<path class="st59" d="M19.717,12.692c0.032-0.225,0.03-0.45,0.031-0.675c0-0.043,0.026-0.072,0.048-0.103
			c0.699-0.977,1.4-1.954,2.096-2.934c0.051-0.071,0.089-0.077,0.164-0.04c0.284,0.14,0.286,0.137,0.102,0.392
			c-0.102,0.142-0.204,0.283-0.305,0.426c-0.119,0.17-0.223,0.355-0.467,0.422c0.061,0.05,0.12,0.07,0.059,0.155
			c-0.561,0.772-1.115,1.55-1.669,2.327c-0.011,0.015-0.013,0.037-0.019,0.055C19.743,12.708,19.73,12.7,19.717,12.692z"/>
		<path class="st59" d="M16.029,2.138c-0.079,0.11-0.141,0.196-0.202,0.282c-0.713,0.997-1.428,1.993-2.138,2.992
			c-0.064,0.091-0.129,0.128-0.238,0.116c-0.108-0.012-0.219-0.003-0.33-0.003c-0.003-0.065,0.036-0.093,0.06-0.126
			c0.727-1.017,1.455-2.033,2.181-3.051c0.049-0.068,0.101-0.106,0.186-0.118C15.699,2.209,15.848,2.174,16.029,2.138z"/>
		<path class="st59" d="M17.878,20.226c-0.016,0.308-0.134,0.592-0.212,0.885c-0.042,0.157-0.119,0.293-0.214,0.424
			c-0.617,0.857-1.232,1.716-1.843,2.577c-0.074,0.105-0.11,0.094-0.175-0.003c-0.164-0.246-0.168-0.244,0.003-0.483
			c0.787-1.099,1.574-2.198,2.361-3.297c0.025-0.035,0.054-0.067,0.082-0.1L17.878,20.226z"/>
		<path class="st59" d="M7.273,22.701c-0.001-0.074,0.042-0.105,0.068-0.142c0.535-0.749,1.061-1.505,1.61-2.244
			c0.327-0.44,0.711-0.833,1.159-1.156c0.078-0.056,0.162-0.104,0.256-0.165c0.009,0.07-0.032,0.101-0.057,0.135
			c-0.817,1.143-1.637,2.284-2.451,3.43c-0.076,0.107-0.156,0.156-0.285,0.144C7.475,22.694,7.374,22.701,7.273,22.701z"/>
		<path class="st59" d="M19.389,14.317c0.09-0.347,0.186-0.685,0.251-1.033c0.009-0.049,0.047-0.095,0.077-0.138
			c0.634-0.887,1.271-1.773,1.902-2.663c0.074-0.105,0.12-0.1,0.21-0.025c0.204,0.172,0.208,0.168,0.051,0.387
			c-0.801,1.12-1.602,2.239-2.403,3.358C19.448,14.243,19.418,14.279,19.389,14.317z"/>
		<path class="st59" d="M15.859,18.118c-0.365,0.514-0.728,1.028-1.094,1.541c-0.487,0.683-0.976,1.364-1.464,2.046
			c-0.027,0.038-0.056,0.074-0.097,0.105c0.039-0.373,0.012-0.744,0.269-1.08c0.564-0.74,1.091-1.508,1.63-2.266
			c0.062-0.087,0.133-0.144,0.235-0.177c0.17-0.055,0.336-0.122,0.503-0.184C15.847,18.107,15.853,18.113,15.859,18.118z"/>
		<path class="st59" d="M15.057,2.351c-0.212,0.342-0.46,0.658-0.692,0.985c-0.494,0.695-0.994,1.386-1.486,2.083
			c-0.063,0.09-0.134,0.127-0.238,0.131c-0.123,0.004-0.246,0.02-0.397,0.033c0.212-0.297,0.408-0.571,0.605-0.846
			c0.502-0.701,1.006-1.401,1.504-2.106c0.075-0.105,0.156-0.177,0.285-0.198c0.141-0.023,0.273-0.098,0.422-0.08L15.057,2.351z"/>
		<path class="st59" d="M19.051,9.139c-0.061-0.11-0.118-0.221-0.184-0.328c-0.033-0.054-0.012-0.088,0.018-0.129
			c0.637-0.89,1.274-1.779,1.91-2.67c0.042-0.059,0.087-0.08,0.159-0.069c0.086,0.013,0.173,0.02,0.26,0.021
			c0.105,0.001,0.115,0.029,0.054,0.113c-0.329,0.455-0.655,0.912-0.982,1.369c-0.378,0.528-0.755,1.056-1.133,1.583
			C19.125,9.066,19.105,9.113,19.051,9.139z"/>
		<path class="st59" d="M18.5,3.184c-0.095,0.133-0.163,0.231-0.233,0.329c-0.634,0.886-1.27,1.771-1.9,2.659
			c-0.068,0.096-0.115,0.124-0.228,0.059c-0.236-0.135-0.241-0.127-0.079-0.354c0.6-0.839,1.201-1.677,1.799-2.517
			c0.052-0.072,0.106-0.117,0.197-0.124C18.19,3.225,18.324,3.205,18.5,3.184z"/>
		<path class="st59" d="M14.066,2.628c-0.07,0.098-0.113,0.159-0.157,0.221c-0.638,0.891-1.276,1.782-1.911,2.675
			c-0.063,0.089-0.133,0.141-0.243,0.159c-0.147,0.024-0.29,0.07-0.468,0.115c0.055-0.079,0.092-0.133,0.129-0.186
			c0.556-0.777,1.115-1.551,1.665-2.332c0.113-0.16,0.247-0.281,0.415-0.374C13.668,2.811,13.841,2.718,14.066,2.628z"/>
		<path class="st59" d="M16.659,1.911c-0.106,0.291-0.251,0.54-0.417,0.778c-0.164,0.234-0.335,0.463-0.497,0.698
			c-0.102,0.148-0.183,0.309-0.191,0.495c-0.002,0.054-0.032,0.09-0.059,0.129c-0.363,0.508-0.728,1.016-1.089,1.526
			c-0.046,0.065-0.095,0.092-0.169,0.071c-0.111-0.031-0.231-0.015-0.352-0.065c0.113-0.159,0.222-0.313,0.332-0.466
			c0.682-0.953,1.367-1.905,2.045-2.862C16.359,2.076,16.469,1.967,16.659,1.911z"/>
		<path class="st59" d="M14.353,20.66c0.122-0.221,0.283-0.415,0.429-0.619c0.505-0.711,1.014-1.418,1.522-2.127
			c0.034-0.048,0.068-0.093,0.121-0.123c0.279-0.157,0.543-0.336,0.796-0.533c0.018-0.014,0.035-0.037,0.075-0.012
			c-0.086,0.12-0.171,0.24-0.256,0.359c-0.564,0.788-1.128,1.575-1.69,2.364c-0.055,0.077-0.118,0.136-0.204,0.178
			c-0.283,0.14-0.526,0.341-0.784,0.52L14.353,20.66z"/>
		<path class="st59" d="M6.935,14.123c0.059,0.155,0.106,0.286,0.16,0.414c0.025,0.058-0.005,0.091-0.033,0.13
			c-0.562,0.784-1.124,1.568-1.683,2.354c-0.046,0.065-0.095,0.097-0.178,0.096c-0.128-0.002-0.257,0.011-0.422,0.02
			C5.505,16.12,6.213,15.131,6.935,14.123z"/>
		<path class="st59" d="M8.045,3.604C8.091,3.889,8.17,4.145,7.958,4.425c-0.609,0.808-1.185,1.64-1.774,2.463
			C6.153,6.931,6.121,6.973,6.075,7.01c0.07-0.359,0.021-0.736,0.262-1.062c0.547-0.739,1.074-1.494,1.61-2.241
			C7.972,3.672,7.989,3.629,8.045,3.604z"/>
		<path class="st59" d="M10.396,21.682c0.299-0.423,0.597-0.847,0.898-1.269c0.399-0.561,0.803-1.119,1.2-1.681
			c0.058-0.082,0.117-0.114,0.215-0.1c0.109,0.016,0.22,0.019,0.33,0.028c0.003,0.055-0.036,0.083-0.06,0.117
			c-0.468,0.655-0.937,1.309-1.404,1.965c-0.08,0.113-0.19,0.193-0.293,0.281c-0.28,0.24-0.559,0.481-0.869,0.682
			C10.408,21.695,10.403,21.688,10.396,21.682z"/>
		<path class="st59" d="M3.468,17.138c-0.083-0.006-0.21,0.03-0.244-0.035c-0.036-0.067,0.071-0.143,0.119-0.211
			c0.543-0.762,1.088-1.522,1.632-2.282c0.157-0.22,0.157-0.22,0.408-0.132c0.161,0.057,0.162,0.057,0.064,0.194
			c-0.55,0.768-1.103,1.535-1.648,2.307C3.712,17.1,3.63,17.189,3.468,17.138z"/>
		<path class="st59" d="M19.733,11.561c-0.024-0.174-0.043-0.337-0.069-0.499c-0.01-0.064,0.012-0.11,0.048-0.16
			c0.528-0.736,1.057-1.472,1.581-2.212c0.058-0.082,0.104-0.085,0.188-0.041c0.262,0.138,0.264,0.135,0.091,0.377
			c-0.578,0.808-1.157,1.615-1.736,2.422C19.807,11.487,19.791,11.536,19.733,11.561z"/>
		<path class="st59" d="M17.602,3.314c-0.116,0.164-0.222,0.313-0.328,0.462c-0.504,0.705-1.012,1.408-1.511,2.116
			c-0.071,0.101-0.129,0.112-0.237,0.067c-0.257-0.107-0.258-0.102-0.093-0.333c0.479-0.669,0.961-1.337,1.434-2.011
			c0.087-0.124,0.188-0.198,0.334-0.226C17.328,3.366,17.449,3.318,17.602,3.314z"/>
		<path class="st59" d="M4.807,14.437c-0.378,0.529-0.744,1.041-1.11,1.553c-0.225,0.315-0.457,0.626-0.674,0.947
			c-0.078,0.116-0.15,0.157-0.294,0.126c-0.278-0.061-0.28-0.049-0.119-0.274c0.451-0.63,0.902-1.261,1.353-1.891
			C4.128,14.667,4.487,14.467,4.807,14.437z"/>
		<path class="st59" d="M20.987,14.747c0.075,0.147,0.111,0.287,0.156,0.424c0.017,0.053-0.009,0.092-0.038,0.133
			c-0.522,0.728-1.044,1.456-1.563,2.185c-0.043,0.061-0.081,0.093-0.15,0.04c-0.019-0.014-0.045-0.019-0.064-0.033
			c-0.068-0.049-0.206-0.021-0.213-0.108c-0.005-0.067,0.085-0.144,0.136-0.215C19.825,16.371,20.4,15.568,20.987,14.747z"/>
		<path class="st59" d="M18.703,8.531c-0.08-0.113-0.144-0.209-0.214-0.301c-0.036-0.048-0.028-0.084,0.005-0.129
			c0.517-0.72,1.032-1.441,1.548-2.162c0.026-0.037,0.052-0.067,0.105-0.061c0.133,0.014,0.267,0.025,0.426,0.039
			C19.945,6.795,19.329,7.655,18.703,8.531z"/>
		<path class="st59" d="M6.676,11.12c-0.022,0.282-0.039,0.526-0.063,0.769c-0.004,0.039-0.037,0.077-0.062,0.112
			c-0.456,0.639-0.915,1.276-1.368,1.916C5.126,13.999,5.078,14.016,5,13.955c-0.076-0.059-0.224-0.063-0.235-0.143
			c-0.01-0.071,0.091-0.16,0.147-0.238c0.552-0.772,1.105-1.544,1.658-2.316C6.596,11.22,6.626,11.185,6.676,11.12z"/>
		<path class="st59" d="M19.66,4.94c-0.151,0.212-0.279,0.393-0.408,0.573c-0.44,0.615-0.883,1.228-1.318,1.846
			c-0.068,0.097-0.107,0.104-0.19,0.017c-0.195-0.201-0.199-0.197-0.034-0.429c0.446-0.623,0.895-1.243,1.334-1.871
			c0.074-0.106,0.151-0.147,0.274-0.138C19.418,4.947,19.52,4.94,19.66,4.94z"/>
		<path class="st59" d="M7.092,19.53c0.496-0.692,0.978-1.366,1.46-2.04c0.09-0.126,0.183-0.251,0.27-0.379
			c0.039-0.058,0.067-0.061,0.124-0.017c0.262,0.201,0.264,0.199,0.074,0.465c-0.437,0.611-0.877,1.22-1.31,1.834
			c-0.069,0.098-0.144,0.146-0.263,0.139C7.336,19.525,7.226,19.53,7.092,19.53z"/>
		<path class="st59" d="M8.394,16.587c0.318,0.275,0.317,0.275,0.087,0.597c-0.517,0.721-1.037,1.439-1.544,2.167
			c-0.098,0.14-0.191,0.182-0.354,0.152c-0.249-0.046-0.243-0.032-0.105-0.244c0.277-0.426,0.606-0.8,1.001-1.121
			c0.218-0.177,0.413-0.382,0.622-0.57c0.06-0.054,0.081-0.086-0.003-0.138c-0.069-0.042-0.192-0.063-0.193-0.131
			c-0.001-0.071,0.084-0.146,0.134-0.216C8.156,16.916,8.275,16.752,8.394,16.587z"/>
		<path class="st59" d="M22.872,6.08c-0.108,0.152-0.205,0.289-0.303,0.426c-0.389,0.543-0.781,1.085-1.165,1.632
			c-0.065,0.092-0.13,0.128-0.239,0.113c-0.105-0.015-0.211-0.016-0.318-0.023c-0.003-0.059,0.04-0.09,0.066-0.127
			c0.455-0.639,0.915-1.275,1.366-1.917c0.073-0.104,0.146-0.152,0.273-0.131C22.65,6.07,22.751,6.071,22.872,6.08z"/>
		<path class="st59" d="M21.608,8.254c0.178-0.249,0.332-0.465,0.487-0.681c0.327-0.457,0.656-0.912,0.978-1.372
			c0.063-0.09,0.128-0.131,0.238-0.117c0.108,0.014,0.218,0.013,0.35,0.02c-0.242,0.338-0.469,0.657-0.696,0.975
			c-0.242,0.339-0.487,0.675-0.725,1.017c-0.064,0.092-0.136,0.14-0.25,0.137C21.876,8.232,21.761,8.245,21.608,8.254z"/>
		<path class="st59" d="M12.202,4.067c0.011,0.057-0.034,0.088-0.06,0.125c-0.394,0.553-0.79,1.104-1.185,1.655
			c-0.025,0.035-0.045,0.076-0.088,0.095c-0.225,0.097-0.45,0.194-0.715,0.308c0.6-0.839,1.176-1.644,1.76-2.459
			c0.063,0.082,0.117,0.154,0.174,0.223c0.029,0.036,0.057,0.082,0.117,0.056L12.202,4.067z"/>
		<path class="st59" d="M21.241,15.525c0.039,0.177,0.071,0.322,0.104,0.467c0.014,0.062-0.006,0.111-0.042,0.161
			c-0.424,0.59-0.847,1.18-1.268,1.772c-0.048,0.067-0.075,0.079-0.138,0.013c-0.221-0.234-0.223-0.231-0.032-0.498
			c0.42-0.587,0.84-1.174,1.259-1.761C21.155,15.637,21.188,15.596,21.241,15.525z"/>
		<path class="st59" d="M19.596,10.657c-0.047-0.172-0.083-0.317-0.127-0.458c-0.018-0.057,0.007-0.092,0.035-0.131
			c0.411-0.575,0.823-1.149,1.232-1.725c0.047-0.067,0.082-0.069,0.151-0.028c0.272,0.164,0.273,0.161,0.088,0.419
			c-0.429,0.598-0.857,1.196-1.285,1.794C19.664,10.563,19.639,10.598,19.596,10.657z"/>
		<path class="st59" d="M5.624,17.08c0.534-0.746,1.06-1.48,1.597-2.231c0.072,0.138,0.134,0.257,0.197,0.375
			c0.024,0.045-0.003,0.073-0.025,0.104c-0.403,0.564-0.807,1.127-1.21,1.691C6.159,17.05,6.138,17.08,6.092,17.08
			C5.943,17.079,5.795,17.08,5.624,17.08z"/>
		<path class="st59" d="M19.424,5.679c0.031,0.285,0.245,0.108,0.36,0.194c0.014,0.033-0.026,0.057-0.047,0.086
			c-0.452,0.634-0.907,1.267-1.358,1.902c-0.062,0.088-0.096,0.108-0.174,0.011c-0.186-0.229-0.191-0.225-0.018-0.467
			C18.593,6.839,18.998,6.273,19.424,5.679z"/>
		<path class="st59" d="M4.062,9.852c-0.06-0.147-0.108-0.269-0.161-0.388C3.879,9.413,3.887,9.376,3.919,9.332
			c0.402-0.559,0.802-1.119,1.203-1.679c0.006-0.008,0.01-0.021,0.017-0.023c0.151-0.044,0.207,0.119,0.326,0.15
			c0.067,0.017,0.037,0.063,0.01,0.1C5.009,8.53,4.544,9.18,4.062,9.852z"/>
		<path class="st59" d="M22.111,13.823c-0.097-0.038-0.21-0.071-0.312-0.126c-0.072-0.039,0.003-0.085,0.025-0.116
			c0.302-0.427,0.608-0.852,0.913-1.278c0.118-0.165,0.24-0.329,0.354-0.498c0.047-0.069,0.079-0.071,0.146-0.023
			c0.258,0.184,0.259,0.181,0.075,0.438c-0.361,0.504-0.722,1.009-1.084,1.513C22.201,13.77,22.186,13.825,22.111,13.823z"/>
		<path class="st59" d="M6.362,5.463c0.197-0.519,0.23-1.073,0.598-1.512c0.251-0.3,0.463-0.633,0.688-0.954
			c0.056-0.081,0.087-0.094,0.148-0.004C7.97,3.249,7.974,3.262,7.791,3.518C7.358,4.124,6.924,4.731,6.489,5.337
			C6.459,5.378,6.441,5.431,6.362,5.463z"/>
		<path class="st59" d="M7.988,19.443c-0.007-0.057,0.033-0.085,0.057-0.119c0.422-0.591,0.846-1.179,1.265-1.772
			c0.061-0.086,0.099-0.102,0.19-0.037c0.235,0.168,0.238,0.163,0.068,0.401c-0.296,0.413-0.595,0.824-0.885,1.241
			c-0.071,0.103-0.155,0.166-0.274,0.191C8.269,19.377,8.135,19.437,7.988,19.443z"/>
		<path class="st59" d="M18.821,4.989c-0.205,0.287-0.385,0.539-0.565,0.79c-0.274,0.382-0.549,0.764-0.82,1.148
			c-0.049,0.07-0.081,0.102-0.165,0.033c-0.238-0.191-0.241-0.186-0.062-0.437c0.268-0.374,0.534-0.75,0.805-1.123
			c0.077-0.106,0.128-0.222,0.299-0.25C18.467,5.124,18.615,5.033,18.821,4.989z"/>
		<path class="st59" d="M16.515,3.692c-0.264,0.375-0.528,0.751-0.794,1.126c-0.207,0.292-0.418,0.581-0.624,0.875
			C15.051,5.76,15.01,5.785,14.922,5.76c-0.328-0.091-0.329-0.086-0.132-0.36c0.198-0.275,0.398-0.548,0.591-0.827
			c0.284-0.412,0.699-0.657,1.119-0.898C16.504,3.682,16.51,3.687,16.515,3.692z"/>
		<path class="st59" d="M22.397,13.904c0.301-0.421,0.585-0.818,0.869-1.215c0.121-0.169,0.245-0.337,0.362-0.509
			c0.042-0.061,0.074-0.083,0.149-0.039c0.28,0.162,0.282,0.159,0.095,0.422c-0.312,0.437-0.629,0.872-0.936,1.313
			c-0.068,0.098-0.133,0.136-0.248,0.095C22.602,13.941,22.51,13.929,22.397,13.904z"/>
		<path class="st59" d="M21.399,16.434c0.212,0.395,0.043,0.696-0.202,1c-0.267,0.332-0.503,0.689-0.748,1.038
			c-0.053,0.076-0.079,0.09-0.139,0.003c-0.186-0.269-0.19-0.267-0.001-0.531c0.338-0.473,0.677-0.946,1.015-1.419
			C21.35,16.49,21.379,16.459,21.399,16.434z"/>
		<path class="st59" d="M3.556,15.045c-0.361,0.51-0.722,1.02-1.083,1.53c-0.042,0.059-0.081,0.121-0.128,0.176
			c-0.052,0.06-0.075,0.18-0.157,0.172c-0.117-0.011-0.23-0.071-0.342-0.116c-0.052-0.021-0.014-0.056,0.003-0.081
			c0.333-0.466,0.666-0.931,0.999-1.396c0.011-0.016,0.022-0.039,0.038-0.043c0.232-0.06,0.439-0.19,0.674-0.242L3.556,15.045z"/>
		<path class="st59" d="M5.559,14.514c-0.072-0.118-0.129-0.22-0.215-0.3c-0.04-0.037-0.04-0.066-0.009-0.11
			c0.421-0.584,0.84-1.17,1.28-1.784c0.02,0.227,0.039,0.421,0.054,0.615c0.002,0.021-0.013,0.046-0.027,0.065
			C6.286,13.499,5.929,13.997,5.559,14.514z"/>
		<path class="st59" d="M22.487,8.152c0.398-0.556,0.772-1.079,1.147-1.603c0.068-0.095,0.145-0.184,0.201-0.285
			c0.076-0.138,0.18-0.187,0.331-0.159c0.084,0.016,0.171,0.02,0.278,0.033c-0.217,0.303-0.422,0.589-0.628,0.875
			c-0.013,0.018-0.038,0.034-0.059,0.038c-0.238,0.045-0.337,0.226-0.415,0.425C23.192,7.851,22.903,8.05,22.487,8.152z"/>
		<path class="st59" d="M3.778,9.125C3.732,8.946,3.697,8.801,3.657,8.659C3.643,8.611,3.655,8.575,3.682,8.538
			C4.038,8.042,4.393,7.546,4.749,7.05c0.007-0.01,0.021-0.016,0.039-0.028c0.051,0.12,0.096,0.237,0.173,0.335
			C4.994,7.399,4.99,7.433,4.96,7.474C4.573,8.013,4.188,8.552,3.778,9.125z"/>
		<path class="st59" d="M3.597,8.252c-0.04-0.227-0.043-0.423-0.028-0.62c0.003-0.033,0.009-0.07,0.027-0.096
			C3.958,7.027,4.321,6.52,4.721,6.019c0,0.209,0.001,0.419-0.001,0.628c0,0.026-0.015,0.056-0.031,0.079
			C4.332,7.226,3.974,7.725,3.597,8.252z"/>
		<path class="st59" d="M17.079,22.512c-0.093,0.286-0.164,0.576-0.184,0.877c-0.004,0.053-0.032,0.09-0.059,0.129
			c-0.251,0.35-0.505,0.698-0.75,1.052c-0.057,0.081-0.095,0.08-0.168,0.027c-0.245-0.176-0.247-0.174-0.069-0.421
			c0.375-0.523,0.75-1.046,1.125-1.569c0.028-0.039,0.061-0.073,0.091-0.11C17.069,22.502,17.074,22.507,17.079,22.512z"/>
		<path class="st59" d="M23.512,14.086c-0.114-0.012-0.215-0.025-0.316-0.033c-0.08-0.006-0.074-0.039-0.036-0.091
			c0.349-0.488,0.698-0.975,1.047-1.464c0.034-0.048,0.069-0.065,0.119-0.026c0.007,0.006,0.017,0.009,0.025,0.014
			c0.274,0.149,0.274,0.15,0.092,0.404c-0.262,0.366-0.524,0.732-0.785,1.098C23.618,14.044,23.586,14.108,23.512,14.086z"/>
		<path class="st59" d="M7.566,15.492c0.08,0.12,0.144,0.222,0.215,0.319c0.034,0.046,0.017,0.079-0.01,0.116
			c-0.262,0.365-0.524,0.731-0.786,1.097c-0.03,0.042-0.06,0.07-0.117,0.066c-0.111-0.008-0.222-0.009-0.334-0.01
			c-0.072-0.001-0.088-0.025-0.044-0.085c0.043-0.058,0.084-0.118,0.126-0.177C6.929,16.381,7.242,15.945,7.566,15.492z"/>
		<path class="st59" d="M20.749,19.151c-0.066-0.104-0.128-0.207-0.194-0.306c-0.028-0.042-0.031-0.075,0-0.117
			c0.333-0.463,0.665-0.928,1.015-1.418c0.034,0.201,0.063,0.374,0.092,0.547c0.006,0.038-0.014,0.065-0.034,0.093
			c-0.279,0.39-0.559,0.78-0.838,1.17C20.782,19.129,20.768,19.136,20.749,19.151z"/>
		<path class="st59" d="M3.403,13.43c0.228-0.319,0.447-0.625,0.667-0.931c0.076-0.106,0.157-0.209,0.226-0.32
			c0.055-0.09,0.112-0.108,0.213-0.071c0.284,0.106,0.285,0.101,0.112,0.342c-0.234,0.326-0.47,0.651-0.699,0.981
			c-0.062,0.089-0.12,0.123-0.227,0.079C3.607,13.475,3.511,13.459,3.403,13.43z"/>
		<path class="st59" d="M4.113,12.032c-0.312,0.436-0.611,0.853-0.908,1.27c-0.029,0.041-0.055,0.051-0.108,0.037
			c-0.362-0.096-0.365-0.1-0.152-0.397c0.178-0.248,0.36-0.493,0.531-0.745c0.071-0.105,0.151-0.165,0.279-0.168
			C3.866,12.026,3.976,12.013,4.113,12.032z"/>
		<path class="st59" d="M23.863,14.108c0.187-0.261,0.36-0.504,0.534-0.747c0.124-0.173,0.25-0.345,0.371-0.521
			c0.042-0.062,0.075-0.064,0.139-0.027c0.283,0.164,0.284,0.162,0.095,0.424c-0.187,0.259-0.376,0.517-0.556,0.781
			c-0.064,0.093-0.131,0.142-0.248,0.121C24.098,14.121,23.995,14.119,23.863,14.108z"/>
		<path class="st59" d="M12.348,20.064c0.324-0.452,0.647-0.905,0.971-1.357c0.02-0.028,0.04-0.052,0.08-0.055
			c0.153-0.009,0.306-0.02,0.464-0.03c-0.004,0.083-0.058,0.123-0.092,0.173c-0.065,0.096-0.137,0.188-0.201,0.284
			c-0.216,0.327-0.436,0.643-0.837,0.779c-0.131,0.044-0.241,0.151-0.361,0.229C12.364,20.079,12.356,20.072,12.348,20.064z"/>
		<path class="st59" d="M2.529,15.37c-0.304,0.426-0.605,0.846-0.905,1.267c-0.027,0.037-0.055,0.054-0.096,0.022
			c-0.004-0.003-0.008-0.005-0.013-0.007C1.2,16.504,1.2,16.504,1.402,16.224c0.184-0.255,0.369-0.51,0.549-0.768
			c0.043-0.061,0.086-0.093,0.165-0.089C2.246,15.375,2.377,15.37,2.529,15.37z"/>
		<path class="st59" d="M13.657,20.017c0.04-0.118,0.113-0.22,0.177-0.326c0.037-0.062,0.021-0.089-0.044-0.096
			c-0.086-0.009-0.173-0.012-0.271-0.019c0.029-0.083,0.087-0.142,0.133-0.207c0.165-0.233,0.335-0.464,0.497-0.7
			c0.048-0.07,0.103-0.107,0.185-0.121c0.152-0.027,0.303-0.059,0.489-0.096c-0.389,0.544-0.762,1.064-1.134,1.585
			C13.678,20.03,13.668,20.024,13.657,20.017z"/>
		<path class="st59" d="M10.315,17.997c-0.203,0.283-0.4,0.559-0.598,0.834c-0.014,0.019-0.03,0.042-0.05,0.05
			c-0.214,0.084-0.429,0.166-0.661,0.226c0.136-0.191,0.273-0.383,0.409-0.574c0.152-0.213,0.308-0.423,0.455-0.639
			c0.056-0.083,0.104-0.094,0.186-0.039C10.136,17.909,10.224,17.948,10.315,17.997z"/>
		<path class="st59" d="M19.037,17.503c0.05,0.167,0.062,0.339,0.092,0.508c0.009,0.049-0.021,0.082-0.046,0.117
			c-0.191,0.267-0.384,0.533-0.572,0.803c-0.05,0.072-0.087,0.1-0.142,0.008c-0.017-0.028-0.045-0.05-0.07-0.073
			c-0.156-0.144-0.156-0.144-0.028-0.323c0.228-0.318,0.456-0.636,0.684-0.954C18.977,17.558,18.99,17.518,19.037,17.503z"/>
		<path class="st59" d="M21.718,18.228c0.035,0.186,0.064,0.343,0.095,0.499c0.011,0.057-0.008,0.102-0.041,0.147
			c-0.19,0.262-0.379,0.525-0.565,0.79c-0.039,0.056-0.059,0.073-0.112,0.008c-0.217-0.267-0.22-0.265-0.021-0.544
			C21.281,18.838,21.489,18.548,21.718,18.228z"/>
		<path class="st59" d="M18.926,4.124c0.469-0.63,0.885-1.3,1.426-1.927c0.015,0.137-0.027,0.214-0.052,0.293
			c-0.227,0.712-0.704,1.223-1.313,1.627c-0.019,0.013-0.04,0.029-0.064,0.006L18.926,4.124z"/>
		<path class="st59" d="M7.959,16.068c0.283,0.323,0.283,0.323,0.05,0.65c-0.104,0.145-0.21,0.289-0.311,0.437
			c-0.036,0.052-0.071,0.072-0.131,0.047c-0.031-0.013-0.065-0.019-0.098-0.026c-0.26-0.059-0.261-0.059-0.109-0.272
			C7.559,16.625,7.758,16.348,7.959,16.068z"/>
		<path class="st59" d="M24.632,14.157c0.244-0.341,0.474-0.663,0.705-0.985c0.006-0.008,0.012-0.021,0.018-0.022
			c0.129-0.002,0.187,0.112,0.279,0.17c0.044,0.028,0.071,0.059,0.029,0.117c-0.174,0.238-0.346,0.479-0.516,0.721
			c-0.032,0.045-0.071,0.043-0.115,0.039C24.909,14.185,24.784,14.173,24.632,14.157z"/>
		<path class="st59" d="M1.739,15.349c-0.227,0.317-0.44,0.615-0.654,0.913c-0.011,0.016-0.029,0.044-0.037,0.041
			c-0.116-0.033-0.176-0.138-0.261-0.211c-0.047-0.04-0.045-0.072-0.009-0.121c0.157-0.214,0.312-0.431,0.464-0.649
			c0.038-0.055,0.077-0.059,0.135-0.045C1.488,15.303,1.603,15.322,1.739,15.349z"/>
		<path class="st59" d="M16.888,23.902c0,0.319-0.004,0.639,0.002,0.958c0.003,0.141-0.048,0.167-0.171,0.116
			c-0.138-0.058-0.279-0.107-0.419-0.161c-0.045-0.017-0.079-0.036-0.038-0.093c0.201-0.277,0.4-0.555,0.599-0.833
			C16.87,23.893,16.879,23.897,16.888,23.902z"/>
		<path class="st59" d="M3.237,12.131c-0.232,0.324-0.447,0.625-0.662,0.926c-0.026,0.037-0.052,0.037-0.085,0.013
			c-0.078-0.057-0.156-0.115-0.234-0.171c-0.048-0.034-0.038-0.067-0.007-0.109c0.109-0.148,0.215-0.299,0.322-0.448
			c0.02-0.028,0.041-0.052,0.077-0.061C2.835,12.234,3.021,12.186,3.237,12.131z"/>
		<path class="st59" d="M7.698,21.633c-0.207,0.339-0.458,0.647-0.682,0.974c-0.029,0.042-0.066,0.05-0.113,0.042
			c-0.119-0.022-0.238-0.041-0.383-0.066c0.17-0.206,0.25-0.457,0.517-0.558c0.241-0.091,0.436-0.266,0.653-0.401L7.698,21.633z"/>
		<path class="st59" d="M21.888,19.116c0.048,0.166,0.088,0.314,0.133,0.459c0.015,0.05-0.005,0.083-0.031,0.119
			c-0.108,0.149-0.216,0.298-0.32,0.45c-0.039,0.058-0.069,0.061-0.126,0.02c-0.249-0.18-0.256-0.209-0.079-0.457
			C21.601,19.516,21.739,19.324,21.888,19.116z"/>
		<path class="st59" d="M3.672,7.021C3.849,6.284,4.289,5.748,4.73,5.202c0.011,0.303-0.002,0.346-0.157,0.562
			C4.281,6.172,3.988,6.581,3.672,7.021z"/>
		<path class="st59" d="M21.449,14.76c-0.11-0.035-0.221-0.069-0.331-0.106c-0.053-0.018-0.028-0.05-0.008-0.078
			c0.169-0.236,0.338-0.472,0.506-0.71c0.04-0.057,0.068-0.059,0.098,0.007c0.044,0.097,0.089,0.193,0.137,0.288
			c0.02,0.039,0.021,0.07-0.005,0.107c-0.111,0.153-0.22,0.307-0.33,0.46C21.5,14.751,21.485,14.78,21.449,14.76z"/>
		<path class="st59" d="M6.854,3.7c0.028-0.21,0.069-0.374,0.048-0.538C6.88,2.979,6.945,2.839,7.053,2.699
			C7.227,2.472,7.219,2.471,7.456,2.64c0.079,0.056,0.098,0.095,0.033,0.181C7.28,3.099,7.081,3.385,6.854,3.7z"/>
		<path class="st59" d="M25.115,6.324c-0.137,0.191-0.258,0.36-0.377,0.529c-0.028,0.04-0.063,0.057-0.109,0.06
			c-0.149,0.011-0.298,0.024-0.477,0.038c0.18-0.252,0.348-0.486,0.514-0.72c0.029-0.042,0.062-0.032,0.102-0.019
			C24.876,6.25,24.987,6.283,25.115,6.324z"/>
		<path class="st59" d="M19.15,18.439c0.031,0.551-0.106,0.956-0.424,1.287c-0.049-0.148-0.097-0.293-0.145-0.438
			c-0.01-0.03,0.001-0.056,0.019-0.081C18.777,18.961,18.953,18.714,19.15,18.439z"/>
		<path class="st59" d="M10.932,18.26c-0.126,0.176-0.246,0.345-0.367,0.514c-0.019,0.026-0.034,0.062-0.079,0.039
			c-0.13-0.063-0.269-0.055-0.436-0.039c0.162-0.227,0.308-0.43,0.452-0.634c0.024-0.033,0.048-0.041,0.086-0.025
			C10.699,18.164,10.81,18.209,10.932,18.26z"/>
		<path class="st59" d="M25.785,14.328c-0.113-0.025-0.226-0.049-0.339-0.073c-0.067-0.014-0.043-0.049-0.019-0.082
			c0.135-0.189,0.271-0.376,0.404-0.567c0.041-0.059,0.073-0.05,0.11-0.002c0.003,0.004,0.006,0.007,0.01,0.011
			c0.226,0.229,0.226,0.229,0.038,0.492c-0.042,0.059-0.084,0.118-0.127,0.177C25.842,14.311,25.827,14.346,25.785,14.328z"/>
		<path class="st59" d="M0.581,15.84c-0.097-0.1-0.157-0.209-0.226-0.313c-0.052-0.078,0.018-0.119,0.053-0.16
			c0.088-0.102,0.117-0.277,0.264-0.296c0.099-0.013,0.209,0.063,0.314,0.099c0.043,0.015,0.048,0.04,0.021,0.077
			C0.866,15.442,0.726,15.638,0.581,15.84z"/>
		<path class="st59" d="M22.037,9.905c0.172-0.24,0.321-0.447,0.468-0.654c0.028-0.04,0.058-0.045,0.097-0.019
			c0.004,0.003,0.008,0.005,0.012,0.008c0.088,0.068,0.229,0.087,0.258,0.208c0.019,0.079-0.252,0.329-0.349,0.351
			C22.375,9.831,22.227,9.863,22.037,9.905z"/>
		<path class="st59" d="M18.631,14.056c0,0-0.003-0.001-0.003-0.001c0.044,0.249-0.108,0.438-0.196,0.647
			c-0.01,0.023-0.027,0.044-0.054,0.039c-0.031-0.006-0.029-0.035-0.025-0.058c0.05-0.302-0.07-0.571-0.166-0.844
			c-0.031-0.088-0.081-0.174-0.066-0.281c0.116,0.027,0.173,0.114,0.232,0.195c0.06,0.082,0.111,0.171,0.172,0.252
			C18.548,14.033,18.563,14.106,18.631,14.056z"/>
		<path class="st59" d="M10.637,1.795C10.194,2.412,9.752,3.029,9.31,3.646C9.428,3.169,10.085,2.253,10.637,1.795z"/>
		<path class="st59" d="M20.379,5.042c-0.079,0.166-0.174,0.276-0.352,0.309c-0.163,0.029-0.315,0.104-0.48,0.158
			c0.116-0.164,0.233-0.327,0.348-0.492c0.03-0.044,0.069-0.045,0.114-0.037C20.128,5.001,20.247,5.02,20.379,5.042z"/>
		<path class="st59" d="M25.001,6.89c0.108-0.151,0.206-0.285,0.301-0.422c0.029-0.041,0.058-0.043,0.097-0.018
			c0.02,0.013,0.043,0.021,0.065,0.031c0.282,0.134,0.286,0.164,0.065,0.394c-0.031,0.032-0.062,0.039-0.102,0.037
			C25.293,6.905,25.159,6.898,25.001,6.89z"/>
		<path class="st59" d="M22.136,19.894c0.107,0.196,0.206,0.371,0.436,0.449c-0.24,0.095-0.455,0.098-0.672,0.027
			c-0.061-0.02-0.074-0.047-0.032-0.103C21.955,20.152,22.037,20.033,22.136,19.894z"/>
		<path class="st59" d="M5.455,19.133c0.321,0.005,0.625-0.068,0.924-0.191c-0.022,0.071-0.216,0.369-0.256,0.413
			c-0.036,0.038-0.068,0.021-0.105,0.01C5.823,19.307,5.636,19.232,5.455,19.133z"/>
		<path class="st59" d="M21.986,14.478c0.114,0.242,0.175,0.477,0.232,0.739c-0.173-0.109-0.327-0.208-0.483-0.305
			c-0.035-0.022-0.03-0.043-0.011-0.07C21.808,14.727,21.891,14.611,21.986,14.478z"/>
		<path class="st59" d="M26.492,14.803c-0.111-0.139-0.24-0.251-0.392-0.335c-0.05-0.028-0.04-0.055-0.013-0.092
			c0.063-0.085,0.123-0.172,0.198-0.275C26.409,14.328,26.475,14.555,26.492,14.803z"/>
		<path class="st59" d="M13.991,15.125c0.161-0.233,0.346-0.455,0.369-0.754c0.003-0.036,0.021-0.051,0.056-0.05
			c0.037,0.001,0.049,0.025,0.052,0.057c0.01,0.098-0.006,0.193-0.04,0.285c-0.07,0.189-0.207,0.324-0.355,0.452
			C14.049,15.135,14.022,15.139,13.991,15.125z"/>
		<path class="st59" d="M6.475,22.236c-0.057,0.081-0.102,0.137-0.139,0.198c-0.04,0.065-0.086,0.081-0.157,0.05
			c-0.062-0.027-0.128-0.043-0.191-0.067c-0.038-0.014-0.104-0.012-0.098-0.063c0.007-0.061,0.076-0.048,0.121-0.05
			C6.155,22.298,6.297,22.272,6.475,22.236z"/>
		<path class="st59" d="M1.894,12.206c0.125,0.063,0.237,0.117,0.379,0.117c-0.052,0.131-0.143,0.221-0.22,0.334
			C1.963,12.517,1.905,12.379,1.894,12.206z"/>
		<path class="st59" d="M0.203,15.243C0.119,15.085,0.058,14.946,0,14.77c0.133,0.06,0.239,0.11,0.346,0.157
			c0.051,0.022,0.048,0.051,0.02,0.089C0.316,15.085,0.267,15.155,0.203,15.243z"/>
		<path class="st59" d="M26.28,6.946c-0.171,0-0.319,0-0.468-0.023c0.076-0.206,0.093-0.213,0.275-0.107
			C26.148,6.851,26.218,6.873,26.28,6.946z"/>
		<path class="st59" d="M8.008,9.918c-0.006,0.083,0.016,0.171-0.095,0.172c-0.06,0.001-0.144-0.008-0.132-0.092
			C7.794,9.907,7.817,9.791,7.932,9.78C8.046,9.768,7.969,9.885,8.008,9.918z"/>
		<path class="st59" d="M6.665,2.31C6.703,2.314,6.717,2.315,6.73,2.318c0.276,0.057,0.276,0.057,0.098,0.288
			C6.775,2.509,6.725,2.418,6.665,2.31z"/>
		<path class="st59" d="M20.566,5.201c0.139-0.168,0.266-0.041,0.384-0.034C20.833,5.177,20.717,5.187,20.566,5.201z"/>
		<path class="st59" d="M8.161,10.316c-0.004-0.05-0.008-0.07-0.006-0.089c0.006-0.051-0.02-0.107,0.02-0.151
			c0.005-0.006,0.034-0.002,0.039,0.005c0.037,0.055,0.014,0.112-0.002,0.167C8.208,10.264,8.192,10.277,8.161,10.316z"/>
		<polygon class="st59" points="19.353,14.353 19.356,14.362 19.349,14.361 		"/>
		<path class="st59" d="M12.205,4.07c0.004-0.008,0.008-0.015,0.012-0.023c0.003,0.006,0.006,0.011,0.009,0.017
			c-0.008,0.001-0.015,0.002-0.023,0.003C12.202,4.067,12.205,4.07,12.205,4.07z"/>
		<path class="st59" d="M16.499,3.676c0.011-0.01,0.023-0.019,0.035-0.001c0.001,0.001-0.012,0.011-0.019,0.018
			C16.51,3.687,16.504,3.682,16.499,3.676z"/>
		<polygon class="st59" points="11.957,2.619 11.964,2.629 11.955,2.638 11.948,2.628 		"/>
		<path class="st59" d="M15.06,2.353c0.002-0.005,0.004-0.011,0.006-0.016c0,0.002,0.002,0.006,0.001,0.007
			c-0.002,0.003-0.006,0.005-0.009,0.007C15.057,2.351,15.06,2.353,15.06,2.353z"/>
		<path class="st59" d="M18.923,4.122c0.001,0.007,0.002,0.014,0.003,0.021c-0.002-0.002-0.005-0.004-0.004-0.006
			c0.001-0.005,0.003-0.009,0.005-0.013C18.926,4.124,18.923,4.122,18.923,4.122z"/>
		<path class="st59" d="M13.652,20.063c0,0.004,0,0.007,0,0.011c-0.006-0.002-0.013-0.004-0.019-0.006
			c0.003-0.003,0.006-0.008,0.01-0.01C13.644,20.057,13.649,20.062,13.652,20.063z"/>
		<path class="st59" d="M14.362,20.669c-0.003,0.012-0.011,0.028-0.023,0.016c-0.012-0.012,0.002-0.021,0.015-0.025
			C14.353,20.66,14.362,20.669,14.362,20.669z"/>
		<path class="st59" d="M7.689,21.624c0.003-0.012,0.006-0.024,0.023-0.017c-0.005,0.009-0.01,0.017-0.015,0.026
			C7.698,21.633,7.689,21.624,7.689,21.624z"/>
		<path class="st59" d="M10.367,21.711c0.01-0.01,0.019-0.019,0.029-0.029c0.007,0.006,0.013,0.013,0.017,0.021
			c-0.015,0.011-0.031,0.021-0.049,0.006L10.367,21.711z"/>
		<path class="st59" d="M10.364,21.709c-0.001,0.007-0.001,0.013-0.002,0.02c-0.001-0.002-0.003-0.005-0.002-0.007
			c0.002-0.004,0.005-0.008,0.007-0.012C10.367,21.711,10.364,21.709,10.364,21.709z"/>
		<path class="st59" d="M15.842,18.101c0.006-0.006,0.016-0.017,0.019-0.016c0.018,0.011,0.007,0.022-0.002,0.032
			C15.853,18.113,15.847,18.107,15.842,18.101z"/>
		<polygon class="st59" points="17.116,22.431 17.108,22.434 17.109,22.424 		"/>
		<path class="st59" d="M17.064,22.497c0.004-0.011,0.003-0.029,0.022-0.02c0.003,0.001-0.005,0.023-0.008,0.035
			C17.074,22.507,17.069,22.502,17.064,22.497z"/>
		<path class="st59" d="M3.559,15.047c0-0.007-0.001-0.014-0.001-0.021c0.004,0,0.009,0,0.013,0.001
			c-0.005,0.006-0.01,0.012-0.015,0.018C3.556,15.045,3.559,15.047,3.559,15.047z"/>
		<polygon class="st59" points="17.88,20.228 17.889,20.22 17.878,20.226 		"/>
		<path class="st58" d="M17.543,8.372c0.05-0.093,0.036-0.168-0.041-0.247c-1.402-1.456-3.107-2.121-5.114-1.839
			c-2.05,0.289-3.536,1.416-4.481,3.255c-0.021,0.042-0.082,0.093-0.031,0.14c0.049,0.045,0.118,0.065,0.19,0.047
			C8.155,9.707,8.21,9.649,8.243,9.569c0.019-0.047,0.044-0.083,0.086-0.112c0.237-0.162,0.453-0.349,0.66-0.548
			c0.13-0.125,0.331-0.066,0.37,0.112c0.043,0.199,0.071,0.401,0.056,0.606C9.409,9.706,9.391,9.781,9.358,9.852
			c-0.06,0.13-0.203,0.149-0.285,0.03C9.03,9.819,9.006,9.743,8.978,9.671c-0.027-0.067-0.043-0.139-0.121-0.2
			c-0.075,0.2-0.336,0.324-0.208,0.632c0.046-0.089,0.058-0.176,0.122-0.174c0.053,0.001,0.066,0.086,0.099,0.133
			c0.021,0.029,0.039,0.06,0.06,0.092c0.135-0.144,0.181-0.151,0.354-0.065c0.017,0.009,0.039,0.015,0.049,0.03
			c0.063,0.083,0.102,0.046,0.149-0.02c0.046-0.064,0.117-0.1,0.187-0.136C9.71,9.941,9.731,9.959,9.746,9.996
			c0.014,0.033,0.005,0.057-0.028,0.07c-0.027,0.01-0.055,0.019-0.084,0.024c-0.082,0.014-0.124,0.052-0.093,0.141
			c0.032,0.091,0.094,0.108,0.17,0.06c0.081-0.051,0.161-0.042,0.251-0.03c0.232,0.032,0.39,0.196,0.574,0.319
			c-0.476,0-0.951,0.001-1.427-0.001c-0.081,0-0.122,0.013-0.122,0.11c0.003,0.873,0.003,1.747,0,2.62
			c0,0.082,0.024,0.108,0.107,0.107c0.815-0.003,1.63-0.002,2.446,0c0.076,0,0.102-0.024,0.1-0.1
			c-0.005-0.15-0.006-0.301,0.001-0.451c0.005-0.096-0.026-0.123-0.123-0.122c-0.359,0.006-0.718,0.002-1.077,0.002
			c-0.308,0-0.302,0-0.308-0.31c-0.002-0.116,0.038-0.134,0.141-0.132c0.378,0.006,0.757-0.001,1.135,0.004
			c0.098,0.001,0.14-0.021,0.133-0.127c-0.009-0.126-0.009-0.253,0-0.378c0.008-0.111-0.023-0.151-0.142-0.148
			c-0.33,0.008-0.66,0.003-0.99,0.003c-0.275,0-0.269,0-0.276-0.272c-0.003-0.115,0.029-0.147,0.144-0.145
			c0.403,0.007,0.805,0.003,1.208,0.002c0.048,0,0.126,0.02,0.114-0.066c-0.03-0.214,0.117-0.35,0.211-0.509
			c0.082-0.14,0.194-0.231,0.37-0.189c0.025,0.006,0.052,0.01,0.066-0.012c0.069-0.108,0.17-0.089,0.273-0.076
			c0.045,0.006,0.123,0.003,0.089-0.067c-0.047-0.099,0.026-0.121,0.075-0.156c0.097-0.067,0.211-0.097,0.323-0.127
			c0.218-0.059,0.428-0.128,0.536-0.369c0.079,0.131,0.192,0.147,0.311,0.156c0.174,0.014,0.234,0.119,0.169,0.283
			c-0.031,0.079-0.095,0.145-0.095,0.243c0.178-0.004,0.338,0.058,0.506,0.083c0.16,0.024,0.251-0.02,0.311-0.166
			c0.027-0.067,0.069-0.084,0.132-0.088c0.132-0.008,0.174,0.082,0.208,0.183c0.032,0.096,0.05,0.2,0.145,0.26
			c0.064,0.04,0.111,0.041,0.108-0.055c-0.002-0.089,0.004-0.158,0.115-0.202c0.072-0.028,0.144-0.094,0.208-0.154
			c0.045-0.042,0.116-0.084,0.022-0.158c-0.041-0.033-0.033-0.099-0.01-0.151c0.016-0.038,0.429-0.244,0.467-0.235
			c0.009,0.002,0.016,0.011,0.025,0.015c0.236,0.102,0.283,0.086,0.419-0.138c0.018-0.029,0.035-0.058,0.053-0.087
			c0.075-0.121,0.173-0.167,0.305-0.086c0.035,0.021,0.064,0.042,0.098-0.006c0.088-0.126,0.241-0.201,0.283-0.363
			c0.007-0.025,0.012-0.038,0.047-0.027c0.069,0.022,0.11-0.035,0.163-0.066c-0.149-0.139-0.16-0.198-0.076-0.373
			C17.485,8.484,17.513,8.427,17.543,8.372z M11.483,10.56c-0.056,0.004-0.113-0.007-0.197-0.013
			c0.094-0.092,0.166-0.163,0.239-0.233c0.074-0.071,0.108-0.03,0.122,0.048C11.664,10.459,11.589,10.553,11.483,10.56z
			 M10.606,10.098c-0.144-0.22-0.139-0.242,0.066-0.381c0.204-0.139,0.405-0.283,0.654-0.333c0.159-0.032,0.313-0.022,0.483,0.054
			C11.328,9.544,10.797,9.51,10.606,10.098z M11.939,8.757c-0.029,0.001-0.059,0.004-0.087,0c-0.098-0.015-0.125,0.028-0.12,0.121
			c0.003,0.059,0.037,0.147-0.024,0.174c-0.087,0.038-0.19,0.02-0.285,0.007c-0.044-0.006-0.031-0.054-0.031-0.086
			c-0.001-0.135,0-0.271,0-0.406c0-0.135,0-0.271,0-0.406c0-0.048-0.008-0.102,0.068-0.099c0.179,0.006,0.358-0.018,0.535,0.014
			c0.217,0.039,0.343,0.189,0.326,0.376C12.304,8.624,12.147,8.751,11.939,8.757z M13.273,9.339
			c-0.077-0.024-0.12-0.061-0.104-0.136c0.008-0.039,0.051-0.056,0.079-0.037C13.31,9.209,13.273,9.273,13.273,9.339z M13.64,9.066
			c-0.096-0.01-0.213,0.045-0.254-0.115c-0.008-0.03-0.083-0.051-0.16-0.047c-0.078,0.006-0.158,0.041-0.178,0.126
			c-0.005,0.042-0.166,0.06-0.261,0.049c-0.015-0.002-0.027-0.004-0.038-0.007c-0.001,0-0.002,0-0.002,0
			c-0.011-0.003-0.02-0.008-0.024-0.013c-0.024-0.027-0.001-0.056,0.008-0.081c0.098-0.277,0.203-0.552,0.296-0.831
			c0.039-0.117,0.125-0.077,0.196-0.082c0.155-0.046,0.203,0.041,0.243,0.168c0.077,0.243,0.165,0.483,0.258,0.721
			C13.763,9.054,13.731,9.076,13.64,9.066z M14.742,9.095c-0.319-0.005-0.533-0.216-0.533-0.525c0-0.311,0.232-0.544,0.539-0.54
			c0.291,0.003,0.529,0.246,0.533,0.542C15.284,8.871,15.049,9.1,14.742,9.095z"/>
		<path class="st59" d="M14.553,8.567c0.007-0.057,0.001-0.116,0.031-0.17c0.036-0.065,0.087-0.104,0.161-0.105
			c0.077-0.001,0.128,0.044,0.157,0.11c0.051,0.113,0.041,0.228-0.004,0.339c-0.025,0.061-0.071,0.101-0.144,0.104
			c-0.077,0.003-0.129-0.029-0.166-0.094C14.555,8.692,14.559,8.629,14.553,8.567z"/>
		<path class="st59" d="M11.829,8.516c-0.085,0.017-0.095-0.035-0.096-0.109c-0.001-0.075,0.012-0.118,0.102-0.112
			c0.08,0.006,0.153,0.023,0.154,0.114C11.991,8.505,11.914,8.519,11.829,8.516z"/>
		<path class="st59" d="M13.228,8.406c0.028,0.084,0.042,0.124,0.054,0.165c0.053,0.174,0.053,0.174-0.149,0.141
			C13.161,8.622,13.188,8.534,13.228,8.406z"/>
	</g>
	<g>
		<path class="st6" d="M30.719,9.074v1.801c0,0.972-0.018,1.936-0.072,2.746h0.036c0.315-0.711,0.72-1.512,1.081-2.161l1.305-2.386
			h1.405v6.068h-1.261V13.35c0-0.937,0.018-1.765,0.099-2.557h-0.027c-0.279,0.72-0.667,1.521-1.026,2.161l-1.233,2.188h-1.566
			V9.074H30.719z"/>
		<path class="st6" d="M36.983,10.739v1.594h1.386v-1.594h1.377v4.402h-1.377v-1.747h-1.386v1.747h-1.369v-4.402H36.983z"/>
		<path class="st6" d="M44.282,10.739v1.044h-1.278v3.358h-1.377v-3.358h-1.278v-1.044H44.282z"/>
		<path class="st6" d="M45.866,13.377c0.045,0.567,0.603,0.837,1.242,0.837c0.468,0,0.846-0.063,1.215-0.18l0.18,0.927
			c-0.45,0.18-1,0.27-1.593,0.27c-1.495,0-2.35-0.864-2.35-2.242c0-1.116,0.693-2.35,2.224-2.35c1.422,0,1.962,1.107,1.962,2.197
			c0,0.234-0.027,0.441-0.045,0.54H45.866z M47.477,12.441c0-0.333-0.144-0.892-0.774-0.892c-0.576,0-0.811,0.522-0.847,0.892
			H47.477z"/>
		<path class="st6" d="M49.565,12.216c0-0.576-0.018-1.071-0.036-1.477h1.188l0.063,0.612h0.018
			c0.324-0.468,0.828-0.711,1.467-0.711c0.963,0,1.828,0.837,1.828,2.242c0,1.603-1.018,2.359-1.999,2.359
			c-0.531,0-0.945-0.216-1.144-0.504h-0.018v2.188h-1.368V12.216z M50.933,13.251c0,0.108,0.009,0.207,0.027,0.288
			c0.09,0.369,0.405,0.648,0.801,0.648c0.594,0,0.945-0.495,0.945-1.243c0-0.702-0.315-1.233-0.927-1.233
			c-0.387,0-0.729,0.288-0.819,0.693c-0.018,0.072-0.027,0.162-0.027,0.243V13.251z"/>
		<path class="st6" d="M56.81,9.155c0.423-0.072,1.017-0.126,1.854-0.126c0.846,0,1.449,0.162,1.854,0.486
			c0.387,0.306,0.648,0.81,0.648,1.404s-0.198,1.098-0.559,1.44c-0.468,0.441-1.161,0.639-1.971,0.639
			c-0.18,0-0.342-0.009-0.468-0.027v2.169H56.81V9.155z M58.169,11.91c0.117,0.027,0.261,0.036,0.459,0.036
			c0.729,0,1.18-0.369,1.18-0.99c0-0.559-0.387-0.892-1.071-0.892c-0.279,0-0.468,0.027-0.567,0.054V11.91z"/>
		<path class="st6" d="M62.903,13.584l-0.432,1.558h-1.423l1.855-6.068h1.8l1.882,6.068h-1.477l-0.468-1.558H62.903z M64.442,12.558
			l-0.378-1.287c-0.108-0.36-0.216-0.811-0.306-1.17H63.74c-0.09,0.36-0.18,0.819-0.279,1.17l-0.36,1.287H64.442z"/>
		<path class="st6" d="M72.723,12.045c0,1.989-1.207,3.196-2.98,3.196c-1.801,0-2.854-1.359-2.854-3.088
			c0-1.819,1.162-3.178,2.953-3.178C71.706,8.975,72.723,10.37,72.723,12.045z M68.339,12.125c0,1.188,0.558,2.026,1.477,2.026
			c0.927,0,1.458-0.882,1.458-2.062c0-1.089-0.522-2.026-1.467-2.026C68.879,10.064,68.339,10.946,68.339,12.125z"/>
		<path class="st6" d="M79.049,12.576h-2.232v1.44h2.494v1.125H75.44V9.074h3.745v1.125h-2.368v1.26h2.232V12.576z"/>
		<path class="st6" d="M80.614,11.532h2.602c-0.09-0.811-0.657-1.45-1.675-1.45c-0.477,0-0.927,0.126-1.233,0.252l-0.27-1.017
			c0.369-0.162,0.963-0.342,1.612-0.342c2.133,0,3.042,1.458,3.042,3.142c0,2.043-1.386,3.124-3.169,3.124
			c-0.63,0-1.242-0.144-1.557-0.288l0.234-1.053c0.315,0.126,0.783,0.216,1.215,0.216c1.036,0,1.684-0.63,1.792-1.512h-2.593V11.532
			z"/>
		<path class="st6" d="M90.056,14.971c-0.252,0.126-0.819,0.261-1.557,0.261c-2.098,0-3.178-1.305-3.178-3.034
			c0-2.071,1.477-3.223,3.313-3.223c0.711,0,1.251,0.144,1.495,0.27l-0.279,1.089c-0.279-0.117-0.666-0.225-1.152-0.225
			c-1.089,0-1.936,0.657-1.936,2.008c0,1.215,0.72,1.98,1.945,1.98c0.414,0,0.873-0.09,1.143-0.198L90.056,14.971z"/>
	</g>
</g>
</svg>
