<?xml version="1.0" encoding="utf-8"?>
<!-- Generator: Adobe Illustrator 22.0.0, SVG Export Plug-In . SVG Version: 6.00 Build 0)  -->
<svg version="1.1" id="Layer_1" xmlns="http://www.w3.org/2000/svg" xmlns:xlink="http://www.w3.org/1999/xlink" x="0px" y="0px"
	 viewBox="0 0 85.762 25" style="enable-background:new 0 0 85.762 25;" xml:space="preserve">
<style type="text/css">
	.st0{fill-rule:evenodd;clip-rule:evenodd;fill:#A6AAAA;}
	.st1{fill-rule:evenodd;clip-rule:evenodd;fill:#F3792E;}
	.st2{fill-rule:evenodd;clip-rule:evenodd;fill:#F06022;}
	.st3{fill-rule:evenodd;clip-rule:evenodd;fill:#D95122;}
	.st4{fill-rule:evenodd;clip-rule:evenodd;fill:#F89A2C;}
	.st5{fill-rule:evenodd;clip-rule:evenodd;fill:#FFFFFF;}
	.st6{fill:#FFFFFF;}
	.st7{fill-rule:evenodd;clip-rule:evenodd;fill:#B4008D;}
	.st8{fill-rule:evenodd;clip-rule:evenodd;fill:#9DBC0A;}
	.st9{fill:none;stroke:#9DBC0A;stroke-width:0.1962;stroke-miterlimit:10;}
	.st10{fill-rule:evenodd;clip-rule:evenodd;fill:#DF3F17;}
	.st11{fill:none;stroke:#DF3F17;stroke-width:0.1962;stroke-miterlimit:10;}
	.st12{fill-rule:evenodd;clip-rule:evenodd;fill:#F5B208;}
	.st13{fill:none;stroke:#F5B208;stroke-width:0.1962;stroke-miterlimit:10;}
	.st14{fill:#9DBC0A;}
	.st15{fill:none;stroke:#9DBC0A;stroke-width:0.2023;stroke-miterlimit:10;}
	.st16{fill:none;stroke:#DF3F17;stroke-width:0.2023;stroke-miterlimit:10;}
	.st17{fill:none;stroke:#F5B208;stroke-width:0.2023;stroke-miterlimit:10;}
	.st18{fill-rule:evenodd;clip-rule:evenodd;fill:#85754E;}
	.st19{fill:#85754E;}
	.st20{fill-rule:evenodd;clip-rule:evenodd;fill:#1A171B;}
	.st21{fill:#016268;}
	.st22{fill:#00A9C2;}
	.st23{fill:#21427B;}
	.st24{fill:#FAE101;}
	.st25{fill-rule:evenodd;clip-rule:evenodd;fill:#32327F;}
	.st26{fill-rule:evenodd;clip-rule:evenodd;fill:#FCB813;}
	.st27{fill:#002169;}
	.st28{fill:#C6C7C8;}
	.st29{fill:#F79420;}
	.st30{fill:#FCB831;}
	.st31{fill:#FDDD2E;}
	.st32{fill:#F3C700;}
	.st33{fill:#DB6216;}
	.st34{fill:#EAA600;}
	.st35{fill:#E32427;}
	.st36{fill:#FFFFFF;stroke:#FFFFFF;stroke-width:0.1124;stroke-miterlimit:10;}
	.st37{fill:url(#SVGID_1_);}
	.st38{fill-rule:evenodd;clip-rule:evenodd;fill:#C1272D;}
	.st39{fill-rule:evenodd;clip-rule:evenodd;fill:url(#SVGID_2_);}
	.st40{fill-rule:evenodd;clip-rule:evenodd;fill:url(#SVGID_3_);}
	.st41{fill-rule:evenodd;clip-rule:evenodd;fill:url(#SVGID_4_);}
	.st42{fill-rule:evenodd;clip-rule:evenodd;fill:url(#SVGID_5_);}
	.st43{fill-rule:evenodd;clip-rule:evenodd;fill:url(#SVGID_6_);}
	.st44{fill-rule:evenodd;clip-rule:evenodd;fill:url(#SVGID_7_);}
	.st45{fill-rule:evenodd;clip-rule:evenodd;fill:url(#SVGID_8_);}
	.st46{fill:#006937;}
	.st47{fill:#929990;}
	.st48{fill:#FFFFFF;stroke:#FFFFFF;stroke-width:0.1949;stroke-miterlimit:10;}
	.st49{fill:#18428F;}
	.st50{fill:#EC1848;}
	.st51{fill:#29A151;}
	.st52{fill:#C1272D;}
	.st53{fill:#29ABE2;}
	.st54{fill:#F7BE3E;}
	.st55{fill:url(#SVGID_9_);}
	.st56{fill-rule:evenodd;clip-rule:evenodd;fill:none;}
	.st57{clip-path:url(#SVGID_11_);fill-rule:evenodd;clip-rule:evenodd;}
	.st58{fill:#EFAF1F;}
	.st59{fill:#EFB022;}
	.st60{fill:#0E0A08;}
	.st61{fill:#DA2A28;}
	.st62{fill:#F6F6F5;}
	.st63{fill:#C7B086;}
	.st64{fill:#F1F0EE;}
	.st65{fill-rule:evenodd;clip-rule:evenodd;fill:url(#SVGID_12_);}
	.st66{fill-rule:evenodd;clip-rule:evenodd;fill:#FAF9F9;}
	.st67{fill-rule:evenodd;clip-rule:evenodd;fill:#F8B132;}
	.st68{fill-rule:evenodd;clip-rule:evenodd;fill:#1A70B7;}
	.st69{fill-rule:evenodd;clip-rule:evenodd;fill:#36A834;}
	.st70{fill-rule:evenodd;clip-rule:evenodd;fill:#E2000F;}
	.st71{fill-rule:evenodd;clip-rule:evenodd;fill:#1A1A18;}
	.st72{fill:url(#SVGID_13_);}
	.st73{fill:url(#SVGID_14_);}
	.st74{fill:url(#SVGID_15_);}
	.st75{fill:url(#SVGID_16_);}
	.st76{fill:url(#SVGID_17_);}
	.st77{fill:url(#SVGID_18_);}
	.st78{fill:url(#SVGID_19_);}
	.st79{fill:url(#SVGID_20_);}
	.st80{fill:url(#SVGID_21_);}
	.st81{fill:url(#SVGID_22_);}
	.st82{fill:url(#SVGID_23_);}
	.st83{fill:url(#SVGID_24_);}
	.st84{fill:url(#SVGID_25_);}
	.st85{fill:url(#SVGID_26_);}
	.st86{fill:#00A85D;}
	.st87{fill:#FFFFFF;stroke:#FFFFFF;stroke-width:0.1;stroke-miterlimit:10;}
	.st88{fill:#9FD8F5;}
	.st89{fill:#274888;}
	.st90{fill:#267DBF;}
	.st91{fill:#2F91CF;}
	.st92{fill:#2955A0;}
	.st93{fill:#236EB3;}
	.st94{fill:#CFEBFA;}
	.st95{fill:#42B7E9;}
	.st96{fill:#3FAAE0;}
	.st97{fill:#ED171F;}
	.st98{opacity:0.25;fill:url(#SVGID_27_);}
	.st99{fill:#FFFFFF;stroke:#FFFFFF;stroke-width:1.0606;stroke-miterlimit:10;}
	.st100{fill:#FFAF10;}
	.st101{fill:#151416;}
	.st102{fill:#E57641;}
	.st103{fill:none;}
	.st104{fill:#1C191B;}
	.st105{fill:#19181A;}
	.st106{fill:#DD7340;}
	.st107{fill:#181617;}
	.st108{fill:#EA7944;}
	.st109{fill:#0C0E13;}
	.st110{fill:#181719;}
	.st111{fill:#F2F1F2;}
	.st112{fill:#F6F5F5;}
	.st113{fill:#BA673F;}
	.st114{fill:#4E362A;}
	.st115{fill:#6A6567;}
	.st116{fill:none;stroke:#EA7944;stroke-width:0.3013;stroke-linecap:round;stroke-miterlimit:10;}
	.st117{fill:none;stroke:#FF00FF;stroke-width:0.25;stroke-miterlimit:10;}
</style>
<g>
	<g>
		<g>
			<path class="st60" d="M0,15.88c0.371-0.095,0.723-0.185,1.075-0.274c0.142-0.036,0.284-0.074,0.427-0.1
				c0.094-0.017,0.094-0.046,0.046-0.119c-0.085-0.131-0.12-0.28-0.105-0.436c0.02-0.209-0.064-0.374-0.208-0.513
				c-0.171-0.164-0.345-0.325-0.519-0.486c-0.581-0.534-0.343-1.338,0.287-1.608c0.132-0.057,0.164-0.131,0.163-0.265
				c-0.006-0.705-0.005-1.411-0.001-2.116c0.001-0.115-0.023-0.174-0.145-0.218c-0.397-0.14-0.801-0.849-0.665-1.231
				c0.101-0.284,0.195-0.578,0.34-0.847c0.053-0.099,0.051-0.205,0.072-0.309c0.028-0.144,0.056-0.287,0.087-0.43
				c0.01-0.044,0.027-0.088,0.004-0.132C0.72,6.544,0.792,6.288,0.849,6.037c0.077-0.338,0.216-0.652,0.406-0.941
				C1.31,5.012,1.333,4.94,1.315,4.833C1.268,4.567,1.353,4.319,1.476,4.086c0.168-0.318,0.39-0.587,0.742-0.76
				C2.232,3.546,2.2,3.748,2.279,3.959c0.284-0.213,0.408-0.493,0.406-0.822C2.684,2.968,2.739,2.98,2.855,3.034
				c0.25,0.116,0.402,0.318,0.507,0.563c0.597-0.339,0.839-0.565,1.014-0.948c0.196,0.128,0.298,0.317,0.356,0.549
				C4.831,3.154,4.887,3.078,4.93,2.997c0.059-0.11,0.095-0.072,0.146,0.005C5.173,3.15,5.229,3.313,5.265,3.506
				C5.429,3.329,5.61,3.228,5.829,3.167c0.143-0.04,0.226-0.198,0.299-0.329c0.107-0.191,0.223-0.355,0.436-0.45
				c0.117-0.052,0.182-0.194,0.296-0.272c0.07-0.048-0.012-0.088-0.036-0.119C6.548,1.652,6.206,1.386,5.82,1.18
				C5.699,1.115,5.69,1.081,5.792,0.986c0.572-0.534,1.224-0.894,2.017-0.973C9.034-0.11,9.926,0.599,10.08,1.824
				c0.034,0.268,0.058,0.538,0.137,0.799c0.03,0.098,0.078,0.141,0.189,0.146c0.457,0.021,0.891,0.132,1.283,0.376
				c0.143,0.089,0.307,0.068,0.46,0.088c1.76,0.227,3.482,0.609,5.159,1.194c0.105,0.037,0.132,0.087,0.131,0.193
				c-0.006,0.497,0.001,0.993-0.005,1.49c-0.001,0.115,0.029,0.177,0.138,0.231c0.935,0.463,1.229,1.657,1.067,2.347
				c-0.063,0.269-0.213,0.495-0.399,0.697c-0.043,0.047-0.074,0.089-0.072,0.16c0.009,0.43-0.212,0.712-0.593,0.877
				c-0.103,0.044-0.143,0.093-0.141,0.209c0.008,0.497,0.007,0.993,0,1.49c-0.002,0.115,0.038,0.164,0.14,0.21
				c0.508,0.232,0.739,0.698,0.601,1.182c-0.047,0.164-0.148,0.292-0.264,0.407c-0.176,0.175-0.362,0.34-0.541,0.512
				c-0.149,0.143-0.235,0.312-0.214,0.528c0.014,0.143-0.015,0.283-0.094,0.405c-0.057,0.089-0.061,0.12,0.06,0.148
				c0.444,0.102,0.885,0.218,1.328,0.33c0.043,0.011,0.085,0.026,0.146,0.045c-0.238,0.327-0.467,0.647-0.703,0.961
				c-0.069,0.091-0.095,0.182-0.095,0.294c0.003,1.507,0,3.014,0.005,4.521c0,0.141-0.007,0.193-0.178,0.151
				c-0.892-0.217-1.795-0.387-2.7-0.544c-0.081-0.014-0.134,0.002-0.189,0.067c-1.448,1.698-3.277,2.838-5.336,3.64
				C9.34,25,9.288,25.012,9.223,24.987c-1.807-0.703-3.448-1.666-4.817-3.057C4.22,21.74,4.044,21.542,3.87,21.342
				c-0.06-0.069-0.116-0.086-0.204-0.071c-0.91,0.158-1.818,0.33-2.716,0.547c-0.149,0.036-0.152-0.014-0.152-0.132
				c0.003-1.513,0.001-3.025,0.004-4.538c0-0.119-0.028-0.214-0.101-0.309C0.468,16.53,0.243,16.213,0,15.88z M2.326,10.351
				c0,0.023,0.01,0.035,0.034,0.033l0,0c0.106,0.164,0.291,0.179,0.461,0.226c-0.05,0.085-0.15,0.057-0.226,0.138
				c0.042,0.03,0.083,0.052,0.115,0.083c0.277,0.27,0.505,0.565,0.495,0.98c-0.001,0.049,0.018,0.094,0.059,0.115
				c0.172,0.087,0.202,0.243,0.213,0.412c0.005,0.079,0.011,0.185,0.1,0.196c0.19,0.024,0.329,0.139,0.485,0.227
				c0.113,0.064,0.196,0.026,0.232-0.1c0.057-0.201,0.05-0.402-0.017-0.599c-0.02-0.058-0.05-0.132-0.114-0.135
				c-0.068-0.003-0.059,0.083-0.082,0.13c-0.055,0.119-0.095,0.252-0.276,0.27c0.024-0.081,0.048-0.143,0.06-0.207
				c0.02-0.102,0.018-0.202-0.059-0.286c-0.295-0.315-0.437-0.705-0.539-1.114c-0.022-0.09-0.029-0.169,0.024-0.257
				c0.067-0.111,0.084-0.252,0.011-0.356C3.193,9.952,3.22,9.833,3.34,9.711l-0.001,0c0.025,0.002,0.034-0.013,0.036-0.036
				c0.037-0.038,0.082-0.07,0.088-0.155C3.17,9.651,2.871,9.655,2.575,9.675c-0.15,0.01-0.279,0.053-0.344,0.201
				c-0.068,0.156-0.065,0.307,0.062,0.438C2.293,10.337,2.303,10.35,2.326,10.351L2.326,10.351z M4.935,10.384
				c-0.003,0.023,0.004,0.038,0.03,0.037l0-0.001c0.019,0.112,0.135,0.154,0.195,0.26c-0.044,0.006-0.077,0.019-0.106,0.013
				c-0.177-0.037-0.192,0.052-0.191,0.202c0.004,0.561-0.084,1.112-0.251,1.647c-0.038,0.123-0.027,0.231,0.032,0.341
				c0.2,0.372,0.496,0.452,0.831,0.196c0.286-0.218,0.565-0.419,0.944-0.445c0.179-0.012,0.257-0.173,0.216-0.353
				c-0.051-0.223-0.188-0.382-0.384-0.49c-0.175-0.096-0.342-0.103-0.485-0.03c0.241,0.156,0.33,0.326,0.272,0.529
				c-0.112-0.088-0.207-0.203-0.363-0.224c-0.013,0.191,0.051,0.384-0.089,0.552c-0.031-0.157-0.098-0.291-0.205-0.404
				c-0.033-0.035-0.047-0.074-0.043-0.122c0.031-0.388,0.056-0.777,0.212-1.141c0.024-0.056,0.037-0.127,0.096-0.155
				c0.217-0.105,0.386-0.262,0.519-0.469c0.086,0.171,0.035,0.312-0.034,0.452c-0.022,0.044-0.078,0.1,0.032,0.116
				c0.451,0.063,0.841,0.279,1.227,0.503c0.165,0.096,0.328,0.199,0.517,0.247c0.18,0.046,0.324-0.007,0.426-0.16
				c0.133-0.198,0.227-0.413,0.262-0.652c0.018-0.007,0.025-0.016,0.007-0.03c-0.001-0.001-0.012,0.012-0.019,0.019
				c-0.173,0.097-0.336,0.222-0.556,0.205c0.005-0.072,0.063-0.099,0.097-0.14c0.128-0.153,0.229-0.32,0.282-0.514
				c0.081-0.3,0.015-0.581-0.206-0.69c-0.175-0.086-0.202-0.216-0.22-0.376c-0.011-0.1-0.031-0.2-0.059-0.297
				C7.86,8.808,7.722,8.689,7.517,8.643C7.211,8.575,6.719,8.767,6.534,9.03c0.167,0.049,0.338,0.089,0.5,0.151
				c0.16,0.061,0.333,0.109,0.439,0.263C7.334,9.429,7.195,9.402,7.055,9.402C6.588,9.4,6.123,9.374,5.659,9.322
				C5.286,9.28,5.035,9.446,4.862,9.76c-0.107,0.194-0.12,0.382,0.028,0.563C4.892,10.353,4.902,10.377,4.935,10.384L4.935,10.384z
				 M11.463,4.701c-0.233-0.05-0.421,0.01-0.522,0.169c0.215,0,0.424,0.037,0.634,0.069c0.114,0.035,0.228,0.069,0.381,0.116
				C11.817,4.848,11.679,4.718,11.463,4.701z M7.88,2.668C8.045,2.31,8.303,2.106,8.739,2.18C8.688,2.097,8.625,2.093,8.567,2.086
				c-0.273-0.032-0.501,0.056-0.67,0.273C7.846,2.425,7.79,2.469,7.712,2.492C7.635,2.502,7.557,2.513,7.479,2.524
				C7.435,2.529,7.374,2.526,7.404,2.596c0.024,0.055,0.005,0.169,0.092,0.152C7.624,2.722,7.763,2.743,7.88,2.668z M6.929,2.869
				C6.927,2.846,6.913,2.839,6.892,2.842C6.695,2.755,6.636,2.77,6.541,2.954C6.475,3.08,6.397,3.195,6.302,3.299
				C6.221,3.387,6.134,3.47,6.232,3.625C6.137,3.593,6.073,3.579,6.007,3.579c-0.301,0.001-0.46,0.22-0.365,0.502
				c0.03,0.09,0.062,0.126,0.145,0.044c0.18-0.178,0.378-0.332,0.61-0.438c0.13-0.063,0.262-0.123,0.391-0.19
				c0.1-0.052,0.189-0.105,0.314-0.055C7.197,3.48,7.236,3.399,7.225,3.318c-0.027-0.194-0.096-0.367-0.297-0.45L6.929,2.869z
				 M9.026,9.642c0.012,0.014,0.025,0.029,0.037,0.043c0.61,0.657,1.354,0.934,2.242,0.793c-0.632-0.093-0.965-0.253-1.316-0.642
				C9.255,9.022,9.212,7.663,9.893,6.803c0.53-0.67,1.367-0.887,2.122-0.537c0.569,0.264,0.904,0.728,1.08,1.318
				c0.076,0.254,0.102,0.515,0.112,0.779c0.105-0.474,0.103-0.947-0.004-1.42c-0.049-0.218-0.085-0.443-0.246-0.617
				c-0.068-0.297-0.273-0.5-0.499-0.674c-0.949-0.729-2.232-0.662-3.115,0.143c-0.138,0.126-0.188,0.24-0.079,0.4
				C9.342,6.523,9.431,6.848,9.48,7.183c0.014,0.098,0.004,0.135-0.109,0.11C9.169,7.248,8.963,7.217,8.759,7.18
				c-0.09,0.022-0.218-0.145-0.271,0.056c-0.239,0.897-0.07,1.703,0.541,2.409L9.026,9.642z M1.909,8.886
				C1.876,8.932,1.847,8.981,1.81,9.022c-0.037,0.04-0.082,0.086-0.145,0.06C1.601,9.056,1.602,8.994,1.601,8.938
				C1.596,8.676,1.7,8.589,1.968,8.656C1.84,8.45,1.648,8.402,1.45,8.371C1.076,8.313,0.98,8.381,0.915,8.751
				C0.838,8.68,0.85,8.578,0.815,8.484C0.733,8.573,0.733,8.657,0.759,8.748c0.05,0.175,0.135,0.335,0.232,0.485
				c0.104,0.16,0.435,0.224,0.637,0.141c0.151-0.062,0.295-0.316,0.28-0.491c0.006,0.005,0.013,0.01,0.019,0.015
				C1.93,8.894,1.932,8.89,1.935,8.887C1.926,8.887,1.918,8.887,1.909,8.886z M8.392,6.301C8.01,6.264,7.692,6.12,7.464,5.794
				C7.348,5.628,7.206,5.481,7.069,5.332C7.019,5.276,6.947,5.18,6.881,5.221C6.808,5.266,6.876,5.366,6.904,5.435
				c0.125,0.302,0.3,0.578,0.452,0.866C7.432,6.443,7.54,6.536,7.687,6.595c0.488,0.193,0.995,0.313,1.51,0.401
				c0.076-0.015,0.037-0.071,0.03-0.104C9.148,6.541,9.061,6.192,8.916,5.86C8.849,5.705,8.751,5.585,8.602,5.498
				C8.146,5.229,7.694,4.953,7.24,4.681C7.191,4.652,7.144,4.604,7.074,4.644c0.31,0.24,0.606,0.493,0.926,0.71
				C8.3,5.559,8.431,5.841,8.497,6.18C8.519,6.296,8.475,6.303,8.392,6.301z M2.048,7.134C1.984,7.216,1.924,7.303,1.854,7.379
				C1.797,7.441,1.824,7.356,1.807,7.346c0.025-0.194,0.188-0.358,0.151-0.573C2.4,6.745,2.421,6.27,2.672,6.017
				c0.049,0.068,0.014,0.144,0.043,0.226c0.236-0.375,0.384-0.811,0.881-0.927C3.399,5.165,3.184,5.156,2.947,5.179
				c0.09-0.342,0.296-0.609,0.398-0.935c0.108,0.166,0.1,0.333,0.092,0.529c0.179-0.345,0.098-0.637-0.2-0.789
				C3.152,4.422,2.831,4.733,2.644,5.137C2.553,4.879,2.497,4.865,2.313,5.034C2.107,5.223,1.946,5.446,1.81,5.688
				c-0.039,0.069-0.08,0.136-0.12,0.204c-0.013-0.003-0.025-0.007-0.038-0.01c0-0.192,0-0.385,0-0.577
				C1.396,5.623,1.267,5.982,1.205,6.368C1.179,6.536,1.216,6.659,1.397,6.707c-0.185,0.285-0.194,0.61-0.251,0.928
				c0.158,0.01,0.309,0.019,0.46,0.028C1.617,7.665,1.629,7.667,1.64,7.669C1.663,7.67,1.686,7.67,1.709,7.671
				c0.011,0.003,0.022,0.005,0.032,0.01c0.292,0.145,0.51,0.089,0.681-0.208C2.515,7.31,2.667,7.18,2.862,7.081
				C2.795,7.329,2.806,7.42,2.899,7.495c0.105,0.084,0.265,0.068,0.404-0.04c0.409-0.319,0.458-1.049,0.103-1.43
				C3.328,5.941,3.262,5.954,3.187,6.011C2.975,6.172,2.834,6.385,2.742,6.633C2.67,6.788,2.566,6.927,2.383,6.91
				C2.193,6.893,2.113,6.989,2.048,7.134z M8.291,3.384c0.18-0.096,0.304-0.26,0.464-0.379c0.033,0.055,0.04,0.116,0.043,0.179
				C8.817,3.546,8.63,3.792,8.344,3.978C8.276,4.023,8.22,4.059,8.217,4.157C8.21,4.41,8.188,4.663,8.174,4.917
				C8.166,5.07,8.329,5.175,8.468,5.102C8.897,4.878,9.281,4.596,9.6,4.229c0.119-0.137,0.224-0.284,0.286-0.455
				c0.065-0.177,0.004-0.272-0.181-0.286c0.039,0.059,0.05,0.124,0.029,0.18C9.61,4.009,9.369,4.254,9.081,4.46
				c-0.011,0.008-0.033,0-0.05,0c0.193-0.212,0.368-0.436,0.488-0.698c0.036-0.079,0.069-0.157-0.013-0.229
				C9.39,3.432,9.344,3.293,9.3,3.153C9.24,2.96,9.187,2.764,9.074,2.594C8.924,2.37,8.692,2.283,8.453,2.36
				C8.226,2.401,8.098,2.558,8.042,2.76c-0.04,0.143-0.105,0.186-0.243,0.174C7.711,2.926,7.611,2.932,7.545,2.999
				C7.461,3.083,7.527,3.492,7.644,3.542c0.131,0.057,0.148,0.15,0.151,0.265c0.002,0.056,0.008,0.112,0.01,0.168
				c0.003,0.063,0.04,0.129,0.089,0.126c0.057-0.003,0.111-0.066,0.088-0.137C7.892,3.682,8.028,3.52,8.269,3.409
				C8.278,3.405,8.284,3.393,8.291,3.384z M4.928,6.834c0-0.008-0.001-0.015-0.001-0.023c-0.005,0.001-0.01,0.001-0.015,0.002
				c0.006,0.006,0.013,0.012,0.019,0.019C5.14,7.235,5.227,7.668,5.227,8.119c0,0.093,0.031,0.1,0.111,0.074
				c0.226-0.074,0.443-0.168,0.653-0.276c0.256-0.132,0.514-0.262,0.727-0.459C6.943,7.25,6.921,7.071,6.661,6.918
				c-0.221-0.13-0.462-0.207-0.713-0.256c-0.13-0.025-0.262-0.044-0.43-0.071C5.775,6.476,6.01,6.468,6.246,6.459
				C6.052,5.865,4.708,4.995,4.041,5.046c0.42,0.229,0.717,0.553,0.949,0.94C5.256,6.431,5.44,7.002,5.386,7.218
				C5.252,7.068,5.156,6.872,4.928,6.834z M10.354,9.782c0.156,0.165,0.358,0.245,0.566,0.336c0.007-0.089-0.055-0.099-0.092-0.127
				c-0.203-0.152-0.352-0.346-0.472-0.568c-0.053-0.099-0.052-0.15,0.068-0.199c0.251-0.101,0.485-0.239,0.713-0.386
				c0.251-0.162,0.483-0.349,0.725-0.556c0.055,0.186,0.105,0.353,0.155,0.52c0.036-0.213,0.051-0.421,0.062-0.629
				c0.004-0.077,0.024-0.141,0.077-0.199c0.14-0.155,0.258-0.326,0.356-0.549c0.293,0.604,0.319,1.196,0.137,1.808
				c0.224-0.371,0.28-0.771,0.23-1.191c-0.035-0.455-0.204-0.853-0.52-1.181c-0.642-0.666-1.648-0.614-2.224,0.11
				C9.896,7.271,9.759,7.615,9.72,7.992C9.649,8.686,9.825,9.298,10.354,9.782z M9.301,24.336c0.027-0.006,0.055-0.01,0.08-0.02
				c0.63-0.25,1.24-0.54,1.828-0.877c1.024-0.588,1.95-1.302,2.754-2.17c0.032-0.034,0.096-0.064,0.07-0.12
				c-0.02-0.043-0.081-0.024-0.124-0.03c-0.558-0.084-1.117-0.152-1.678-0.207c-0.103-0.01-0.189-0.014-0.283,0.057
				c-0.814,0.616-1.704,1.099-2.647,1.488c-0.802-0.325-1.578-0.71-2.273-1.225c-0.339-0.252-0.658-0.368-1.08-0.284
				c-0.46,0.092-0.932,0.125-1.406,0.184c0.029,0.094,0.09,0.138,0.139,0.189c0.999,1.058,2.168,1.884,3.472,2.523
				C8.528,24.028,8.902,24.211,9.301,24.336z M16.913,8.348c0.011,0.01,0.021,0.021,0.032,0.031
				c-0.108,0.145-0.268,0.206-0.432,0.246c-0.556,0.136-1.037-0.017-1.446-0.407c-0.412-0.392-0.674-0.886-0.925-1.387
				c-0.27-0.539-0.502-1.097-0.799-1.624c-0.398-0.706-0.995-1.134-1.787-1.299c-0.281-0.058-0.564-0.057-0.852-0.066
				c0.11-0.088,0.238-0.125,0.366-0.155c0.127-0.03,0.258-0.046,0.393-0.069c-0.173-0.282-1.106-0.422-1.436-0.336
				c0.311,0.315,0.323,0.44,0.074,0.818C9.989,4.27,9.858,4.425,9.718,4.572c-0.29,0.303-0.626,0.549-0.991,0.781
				c0.087,0.055,0.15,0.165,0.229,0.148c0.247-0.055,0.518-0.083,0.661-0.345c0.098-0.178,0.201-0.353,0.331-0.511
				c0.245-0.296,0.545-0.479,0.94-0.5c0.748-0.039,1.326,0.291,1.816,0.818c0.016,0.017,0.023,0.039,0.001,0.059
				c-0.202-0.119-0.4-0.251-0.643-0.244c0.199,0.476,0.661,0.671,0.978,1.027c0.049-0.12-0.035-0.213-0.004-0.339
				c0.069,0.095,0.131,0.173,0.183,0.257c0.248,0.394,0.415,0.825,0.585,1.255c0.202,0.514,0.388,1.036,0.702,1.498
				c0.287,0.423,0.663,0.72,1.178,0.813c0.09,0.016,0.182,0.023,0.273,0.034c-0.004,0.015-0.008,0.029-0.012,0.044
				c-0.743,0.078-1.38-0.163-1.922-0.717c-0.024,0.285-0.071,0.528-0.148,0.764c-0.029,0.088-0.018,0.16,0.02,0.241
				c0.161,0.348,0.4,0.625,0.719,0.836c0.042,0.028,0.098,0.041,0.131,0.114c-0.33-0.057-0.583-0.217-0.826-0.405
				c-0.087-0.068-0.158-0.222-0.252-0.193c-0.08,0.024-0.124,0.175-0.177,0.273c-0.038,0.07-0.123,0.126-0.083,0.226
				c0.223,0.561,0.595,0.966,1.193,1.127c0.096,0.026,0.202,0.033,0.297-0.02c0.037-0.02,0.062-0.052,0.058-0.095
				c-0.003-0.045-0.036-0.042-0.073-0.045c-0.161-0.012-0.211-0.105-0.128-0.243c0.091-0.152,0.237-0.225,0.409-0.233
				c0.18-0.008,0.361,0.004,0.541,0.001c0.173-0.003,0.337-0.04,0.471-0.157c0.066-0.057,0.119-0.128,0.089-0.222
				c-0.027-0.083-0.105-0.09-0.18-0.1c-0.387-0.051-0.767-0.13-1.122-0.299c-0.216-0.103-0.367-0.211-0.462-0.338
				c0.026,0.002,0.051-0.002,0.07,0.006c0.682,0.3,1.397,0.335,2.124,0.261c0.247-0.025,0.49-0.077,0.717-0.185
				c0.14-0.067,0.244-0.165,0.265-0.327c0.013-0.103-0.005-0.165-0.136-0.115c-0.145,0.055-0.297,0.083-0.506,0.047
				c0.222-0.074,0.389-0.151,0.541-0.256c0.331-0.23,0.606-0.51,0.613-0.94c0.009-0.538-0.152-1.023-0.554-1.405
				c-0.075-0.071-0.155-0.142-0.282-0.173c0.116,0.273-0.002,0.46-0.183,0.627c-0.152,0.14-0.33,0.235-0.526,0.298
				c-0.373,0.12-0.755,0.119-1.139,0.082c-0.086-0.008-0.232-0.06-0.246,0.005c-0.025,0.112,0.121,0.139,0.208,0.179
				c0.268,0.125,0.554,0.165,0.892,0.135c-0.117,0.102-0.217,0.136-0.314,0.173c-0.035,0.013-0.089,0.018-0.092,0.061
				c-0.003,0.058,0.056,0.062,0.098,0.072C16.348,8.496,16.634,8.46,16.913,8.348z M13.108,13.915
				c0.089,0.307,0.216,0.452,0.583,0.643c0.609,0.317,1.258,0.525,1.926,0.671c0.252,0.055,0.504,0.123,0.768,0.075
				c0.164-0.03,0.252-0.116,0.241-0.288c-0.022-0.364,0.124-0.658,0.381-0.904c0.159-0.152,0.324-0.297,0.483-0.449
				c0.112-0.107,0.199-0.232,0.231-0.386c0.035-0.166-0.053-0.312-0.207-0.358c-0.071-0.021-0.135-0.02-0.185,0.04
				c-0.049,0.059-0.019,0.114,0.014,0.17c0.102,0.175,0.062,0.276-0.133,0.343c-0.087,0.03-0.176,0.037-0.267,0.037
				c-0.407,0.002-0.791-0.109-1.167-0.25c-0.481-0.181-0.938-0.415-1.408-0.622c-0.829-0.365-1.677-0.639-2.602-0.517
				c-0.1,0.013-0.263-0.008-0.27,0.104c-0.005,0.083,0.162,0.081,0.26,0.099c0.439,0.078,0.88,0.153,1.264,0.402
				c0.086,0.056,0.218,0.122,0.158,0.243c-0.055,0.111-0.185,0.047-0.278,0.019c-0.389-0.118-0.785-0.202-1.188-0.261
				c-1.352-0.197-2.708-0.208-4.067-0.095c-0.277,0.023-0.563,0.019-0.774,0.258c-0.052,0.058-0.145,0.1-0.225,0.11
				c-0.408,0.051-0.738,0.252-1.046,0.506c-0.017,0.014-0.039,0.023-0.058,0.034c-0.35,0.192-0.681,0.157-0.984-0.107
				c-0.055-0.048-0.109-0.1-0.153-0.157c-0.047-0.06-0.096-0.083-0.173-0.072c-0.183,0.026-0.351-0.028-0.49-0.144
				c-0.128-0.107-0.242-0.098-0.387-0.031c-0.451,0.208-0.91,0.396-1.408,0.463c-0.202,0.027-0.406,0.045-0.602-0.028
				c-0.16-0.059-0.206-0.17-0.127-0.299c0.046-0.075,0.103-0.149,0.014-0.223c-0.084-0.07-0.173-0.028-0.25,0.023
				c-0.086,0.057-0.122,0.143-0.121,0.247c0.001,0.164,0.081,0.294,0.189,0.404c0.142,0.145,0.295,0.279,0.445,0.416
				c0.291,0.266,0.494,0.57,0.461,0.988c-0.013,0.161,0.074,0.252,0.229,0.285c0.094,0.02,0.188,0.027,0.285,0.014
				c0.773-0.1,1.507-0.331,2.213-0.653c0.341-0.155,0.688-0.315,0.806-0.759c0.025,0.089,0.038,0.144,0.055,0.197
				c0.053,0.175,0.001,0.347-0.01,0.521c-0.016,0.246,0.053,0.32,0.3,0.303c0.106-0.007,0.212-0.027,0.317-0.05
				c1.953-0.434,3.912-0.46,5.877-0.084c0.254,0.049,0.504,0.127,0.764,0.136c0.204,0.006,0.275-0.072,0.264-0.277
				c-0.003-0.05-0.015-0.1-0.02-0.151C13.016,14.306,13.005,14.116,13.108,13.915z M5.867,17.992
				c-0.029-0.094-0.044-0.136-0.056-0.179c-0.213-0.747-0.429-1.493-0.633-2.242c-0.036-0.131-0.088-0.157-0.208-0.137
				c-0.222,0.038-0.445,0.077-0.669,0.094c-0.131,0.01-0.151,0.061-0.151,0.178c0.004,1.174,0.003,2.347,0.003,3.521
				c0,0.017,0.002,0.034,0,0.051c-0.012,0.084,0.019,0.107,0.104,0.092c0.161-0.03,0.323-0.058,0.485-0.068
				c0.107-0.007,0.127-0.05,0.126-0.146c-0.004-0.542-0.002-1.083-0.002-1.625c0-0.046,0-0.092,0-0.138
				c0.179,0.435,0.322,0.872,0.468,1.307c0.055,0.164,0.055,0.388,0.183,0.475c0.13,0.088,0.336-0.024,0.511-0.021
				c0.006,0,0.011-0.001,0.017-0.001c0.087,0.002,0.125-0.041,0.149-0.126c0.083-0.286,0.176-0.57,0.266-0.854
				c0.09-0.286,0.182-0.572,0.273-0.858c0.011,0.002,0.021,0.003,0.032,0.005c0,0.054,0,0.107,0,0.161
				c0,0.491-0.001,0.982,0.001,1.473c0,0.06-0.03,0.144,0.09,0.132c0.191-0.018,0.382-0.028,0.574-0.038
				c0.077-0.004,0.106-0.032,0.106-0.113c-0.002-1.207-0.002-2.415,0-3.622c0-0.094-0.034-0.113-0.12-0.105
				c-0.253,0.023-0.506,0.046-0.759,0.054c-0.103,0.003-0.134,0.047-0.154,0.133c-0.081,0.345-0.165,0.69-0.25,1.034
				C6.127,16.935,6.002,17.443,5.867,17.992z M17.663,16.223c-0.037-0.015-0.062-0.03-0.088-0.036
				c-0.842-0.211-1.691-0.387-2.544-0.544c-0.131-0.024-0.135,0.036-0.134,0.134c0.002,1.219,0.001,2.438,0.001,3.658
				c0,0.367,0.001,0.734,0,1.101c0,0.076-0.005,0.135,0.104,0.153c0.711,0.119,1.418,0.261,2.118,0.433
				c0.088,0.022,0.13,0.013,0.13-0.098c-0.004-0.768-0.004-1.535,0-2.303c0.001-0.112-0.04-0.12-0.131-0.092
				c-0.172,0.054-0.344,0.112-0.52,0.147c-0.125,0.025-0.145,0.086-0.144,0.198c0.006,0.384-0.001,0.768,0.005,1.151
				c0.002,0.108-0.026,0.14-0.134,0.113c-0.147-0.038-0.296-0.07-0.446-0.093c-0.085-0.013-0.11-0.05-0.11-0.133
				c0.003-0.604,0.003-1.208,0-1.812c0-0.091,0.02-0.119,0.115-0.096c0.208,0.05,0.419,0.088,0.628,0.134
				c0.076,0.017,0.121,0.007,0.11-0.085c-0.005-0.039-0.001-0.079-0.001-0.118c0-0.437,0-0.436-0.417-0.527
				c-0.141-0.031-0.338-0.003-0.408-0.11c-0.068-0.105-0.029-0.284-0.022-0.429c0.006-0.117-0.021-0.203-0.12-0.274
				c-0.107-0.078-0.203-0.17-0.303-0.257c0.281,0.019,0.545,0.069,0.809,0.119c0.291,0.055,0.292,0.054,0.297,0.351
				c0.001,0.068-0.009,0.133,0.088,0.152c0.199,0.04,0.396,0.088,0.593,0.136c0.078,0.019,0.126,0.005,0.108-0.085
				c-0.049-0.254,0.075-0.442,0.225-0.624C17.538,16.404,17.596,16.315,17.663,16.223z M0.927,16.21
				c0.101,0.139,0.179,0.265,0.275,0.374c0.125,0.14,0.155,0.295,0.154,0.479c-0.007,1.309-0.003,2.618-0.004,3.927
				c0,0.089-0.016,0.169,0.128,0.133c0.699-0.176,1.406-0.314,2.117-0.436c0.076-0.013,0.106-0.038,0.106-0.117
				c-0.002-0.711-0.002-1.422,0-2.133c0-0.096-0.027-0.105-0.106-0.061c-0.182,0.101-0.364,0.203-0.553,0.29
				c-0.105,0.049-0.131,0.114-0.129,0.223c0.007,0.361-0.001,0.722,0.005,1.083c0.002,0.098-0.027,0.142-0.124,0.157
				c-0.139,0.021-0.279,0.045-0.413,0.084c-0.124,0.035-0.161,0.015-0.159-0.124c0.009-0.513,0.003-1.027,0.003-1.54
				c0-0.343,0-0.342,0.341-0.414c0.164-0.035,0.386-0.022,0.475-0.125c0.099-0.113,0.015-0.335,0.032-0.508
				c0.012-0.127-0.048-0.122-0.137-0.102c-0.198,0.044-0.397,0.08-0.595,0.125c-0.087,0.02-0.124,0.004-0.117-0.095
				c0.008-0.124-0.006-0.249,0.004-0.372c0.009-0.113-0.022-0.175-0.139-0.206c-0.116-0.031-0.226-0.085-0.384-0.147
				c0.33-0.069,0.608-0.128,0.887-0.184c0.304-0.061,0.308-0.059,0.322,0.251c0.004,0.084,0.024,0.107,0.108,0.089
				c0.187-0.04,0.375-0.078,0.565-0.102c0.099-0.013,0.117-0.057,0.116-0.144c-0.004-0.282-0.008-0.564,0.002-0.846
				c0.005-0.136-0.048-0.145-0.159-0.123c-0.508,0.103-1.017,0.196-1.524,0.303C1.66,16.028,1.302,16.121,0.927,16.21z
				 M14.456,20.231c0-0.085-0.006-0.17,0.002-0.254c0.009-0.096-0.034-0.125-0.123-0.138c-1.447-0.214-2.901-0.34-4.363-0.37
				c-1.842-0.037-3.676,0.081-5.5,0.34c-0.319,0.045-0.319,0.044-0.319,0.372c0,0.079,0.009,0.159-0.002,0.237
				c-0.02,0.145,0.029,0.18,0.174,0.157c1.283-0.205,2.575-0.317,3.872-0.357c1.972-0.061,3.936,0.038,5.889,0.325
				C14.456,20.598,14.456,20.594,14.456,20.231z M14.369,19.372c-0.108-0.294-0.206-0.558-0.302-0.821
				c-0.02-0.054-0.071-0.107,0.038-0.139c0.251-0.073,0.353-0.254,0.351-0.511c-0.004-0.598,0.001-1.196-0.002-1.793
				c-0.001-0.33-0.233-0.593-0.56-0.637c-0.547-0.073-1.095-0.139-1.646-0.184c-0.098-0.008-0.127,0.011-0.127,0.112
				c0.003,1.196,0.003,2.391,0,3.587c0,0.106,0.039,0.135,0.136,0.14c0.169,0.008,0.341,0.011,0.504,0.046
				c0.156,0.034,0.164-0.033,0.16-0.154c-0.007-0.203-0.003-0.406-0.001-0.609c0-0.034-0.022-0.095,0.038-0.092
				c0.11,0.006,0.236-0.028,0.287,0.136c0.074,0.236,0.169,0.465,0.258,0.696c0.019,0.049,0.023,0.108,0.1,0.118
				C13.85,19.296,14.094,19.333,14.369,19.372z M8.014,17.087c0,0.598,0.003,1.195-0.003,1.793
				c-0.001,0.114,0.032,0.145,0.144,0.135C8.329,19,8.504,18.994,8.679,18.997c0.102,0.002,0.139-0.027,0.135-0.133
				c-0.008-0.203,0.005-0.406-0.005-0.609c-0.006-0.124,0.039-0.15,0.153-0.147c0.282,0.008,0.564,0.005,0.846,0.002
				c0.314-0.004,0.544-0.23,0.546-0.545c0.004-0.62,0.004-1.24,0-1.861c-0.002-0.301-0.233-0.539-0.535-0.541
				c-0.552-0.004-1.105,0.008-1.657,0.008c-0.115,0-0.152,0.035-0.15,0.155C8.017,15.914,8.014,16.501,8.014,17.087z M13.039,4
				c0.395,0.33,0.716,0.71,0.941,1.167c0.034,0.068,0.095,0.07,0.155,0.083c0.489,0.108,0.977,0.223,1.461,0.352
				c0.127,0.034,0.171,0.082,0.168,0.215c-0.009,0.434-0.004,0.868-0.002,1.303c0,0.06-0.031,0.146,0.082,0.148
				c0.302,0.004,0.595-0.03,0.868-0.176c0.088-0.047,0.106-0.115,0.105-0.207c-0.003-0.609-0.006-1.218,0.002-1.827
				c0.002-0.123-0.048-0.161-0.151-0.196c-0.523-0.178-1.054-0.327-1.59-0.46C14.407,4.236,13.73,4.094,13.039,4z M11.637,17.16
				c0-0.598,0-1.196,0-1.794c0-0.067,0.016-0.134-0.094-0.136c-0.197-0.003-0.394-0.017-0.591-0.033
				c-0.084-0.007-0.105,0.023-0.105,0.103c0.002,1.207,0.002,2.415,0,3.622c0,0.079,0.022,0.107,0.104,0.109
				c0.18,0.004,0.361,0.012,0.54,0.032c0.12,0.014,0.15-0.023,0.149-0.143C11.634,18.334,11.637,17.747,11.637,17.16z M8.771,1.536
				c0.033-0.12,0.054-0.213,0.083-0.304c0.072-0.223,0.193-0.251,0.347-0.074c0.148,0.171,0.213,0.382,0.27,0.595
				C9.542,2.021,9.576,2.297,9.67,2.557c0.02,0.056,0.024,0.127,0.107,0.165C9.761,2.584,9.747,2.461,9.734,2.338
				C9.689,1.93,9.66,1.517,9.467,1.142C9.271,0.759,8.968,0.508,8.547,0.408c-0.125-0.03-0.222-0.03-0.202,0.149
				C8.353,0.638,8.328,0.723,8.313,0.85C8.256,0.715,8.211,0.63,8.184,0.539C8.141,0.401,8.055,0.374,7.925,0.406
				C7.687,0.466,7.47,0.567,7.273,0.714c-0.09,0.067-0.088,0.12-0.025,0.206c0.228,0.313,0.378,0.665,0.495,1.032
				C7.763,2.018,7.76,2.096,7.817,2.15C8.092,1.921,8.088,1.922,8.02,1.584C7.977,1.369,7.916,1.159,7.847,0.94
				C7.94,0.951,7.949,1.017,7.975,1.062C8.097,1.279,8.185,1.51,8.26,1.747c0.02,0.064,0.017,0.144,0.131,0.137
				c0.12-0.007,0.114-0.089,0.126-0.163c0.042-0.275,0.08-0.55,0.123-0.849C8.735,1.092,8.71,1.312,8.771,1.536z M6.914,8.017
				c0.242-0.174,0.449-0.376,0.613-0.621C7.56,7.347,7.606,7.278,7.545,7.228c-0.054-0.045-0.106,0.016-0.146,0.05
				c-0.143,0.119-0.276,0.25-0.422,0.365c-1.126,0.884-2.409,1.21-3.822,1.063C2.982,8.688,2.809,8.658,2.636,8.637
				c-0.054-0.006-0.129-0.026-0.15,0.039c-0.02,0.06,0.044,0.097,0.09,0.129C2.67,8.872,2.775,8.907,2.887,8.931
				c0.845,0.182,1.682,0.107,2.512-0.087c0.769-0.18,1.495-0.463,2.126-0.955c0.057-0.044,0.128-0.081,0.154-0.197
				C7.402,7.797,7.187,7.977,6.914,8.017z M1.784,10.526c0,0.782,0.001,1.563-0.001,2.345c0,0.098,0.053,0.098,0.12,0.083
				C2.05,12.919,2.2,12.89,2.345,12.845c0.502-0.157,0.503-0.159,0.492-0.688c-0.009-0.468-0.171-0.868-0.544-1.165
				C2.114,10.85,1.917,10.729,1.784,10.526z M16.816,10.839c-0.21,0.388-0.536,0.586-0.961,0.632
				c-0.089,0.01-0.094,0.056-0.094,0.124c0.001,0.321,0.003,0.642-0.001,0.963c-0.001,0.084,0.037,0.116,0.107,0.146
				c0.261,0.108,0.528,0.192,0.805,0.247c0.106,0.021,0.148,0.005,0.147-0.118C16.813,12.168,16.816,11.503,16.816,10.839z
				 M3.759,4.281C4.156,4.204,4.515,4.18,4.886,4.299c-0.085,0.052-0.179,0.043-0.24,0.119c0.89,0.284,1.558,0.856,2.115,1.582
				C6.729,5.791,6.598,5.635,6.488,5.47C6.378,5.305,6.234,5.166,6.085,5.01c0.281-0.024,0.321-0.047,0.389-0.207
				c-0.27,0.01-0.898-0.233-1.167-0.452C5.339,4.291,5.429,4.356,5.46,4.284c-0.2-0.161-0.447-0.186-0.696-0.228
				c0.176-0.22,0.19-0.268,0.137-0.473C4.804,3.745,4.646,3.793,4.494,3.85C4.346,3.905,4.196,3.954,4.05,4.015
				C3.937,4.062,3.834,4.129,3.759,4.281z M6.332,1.049C6.337,1.074,6.337,1.082,6.34,1.084C6.761,1.418,7.161,1.77,7.384,2.279
				c0.042,0.096,0.13,0.048,0.194,0.035c0.093-0.018,0.04-0.089,0.028-0.136c-0.107-0.389-0.28-0.746-0.507-1.08
				c-0.086-0.126-0.17-0.188-0.331-0.134C6.63,1.01,6.481,1.021,6.332,1.049z M4.042,7.675c0.004,0.158-0.007,0.296-0.015,0.433
				C4.02,8.225,3.904,8.376,4.007,8.445c0.091,0.061,0.251,0.019,0.378-0.014c0.011-0.003,0.022-0.005,0.033-0.005
				c0.075,0.001,0.109-0.037,0.121-0.11c0.084-0.509-0.015-0.984-0.257-1.434C4.267,6.854,4.244,6.814,4.206,6.835
				C4.163,6.858,4.202,6.888,4.211,6.918c0.104,0.338,0.111,0.68,0.039,1.056C4.175,7.865,4.147,7.758,4.042,7.675z M2.339,8.313
				C2.311,8.197,2.243,8.119,2.156,8.057C1.87,7.857,1.55,7.792,1.208,7.822C1.145,7.828,1.087,7.853,1.043,7.901
				c-0.07,0.077-0.099,0.174-0.067,0.267c0.033,0.094,0.128,0.043,0.194,0.04c0.271-0.011,0.53,0.021,0.761,0.176
				c0.077,0.051,0.146,0.115,0.227,0.179C2.149,8.266,2.149,8.266,2.339,8.313z M13.453,9.52c-0.703,1.292-1.745,1.938-3.25,1.715
				C11.591,11.781,13.101,10.739,13.453,9.52z M4.384,9.319c-0.176,0-0.345,0.001-0.514-0.001C3.805,9.318,3.787,9.347,3.782,9.41
				c-0.039,0.428,0.294,0.958,0.69,1.092C4.226,10.02,4.211,9.828,4.384,9.319z M1.931,5.089c0.2-0.255,0.428-0.472,0.722-0.64
				C2.659,4.523,2.664,4.574,2.669,4.64C3.051,4.078,3.124,3.712,2.91,3.46c0.024,0.213-0.089,0.368-0.214,0.516
				C2.546,4.152,2.389,4.321,2.241,4.499C2.097,4.672,1.977,4.86,1.931,5.089z M10.048,5.04c0.24-0.095,0.522-0.075,0.663-0.346
				c0.019-0.037,0.067-0.059,0.103-0.086c0.141-0.106,0.311-0.122,0.499-0.144C10.855,4.203,10.184,4.584,10.048,5.04z M8.211,6.028
				C8.227,6.02,8.243,6.013,8.258,6.005c-0.005-0.16-0.07-0.293-0.203-0.396C7.704,5.336,7.353,5.061,7,4.789
				C6.969,4.764,6.946,4.715,6.871,4.738C7.324,5.173,7.768,5.601,8.211,6.028z M5.91,4.35c0.032,0.018,0.056,0.033,0.08,0.045
				C6.076,4.436,6.132,4.46,6.14,4.314c0.008-0.156,0.228-0.286,0.392-0.227c0.135,0.048,0.208,0.001,0.29-0.083
				C6.897,3.927,6.98,3.859,7.057,3.785c0.031-0.03,0.083-0.058,0.055-0.11C7.08,3.615,7.024,3.638,6.978,3.66
				C6.795,3.748,6.617,3.847,6.43,3.925C6.215,4.016,6.06,4.171,5.91,4.35z M1.721,4.781c0.316-0.48,0.319-0.491,0.235-0.833
				C1.764,4.192,1.647,4.448,1.721,4.781z M4.473,3.2C4.346,3.364,4.185,3.433,4.039,3.522C3.828,3.65,3.763,3.711,3.676,3.893
				C3.881,3.726,4.143,3.66,4.35,3.497C4.432,3.433,4.486,3.35,4.473,3.2z M7.466,3.761C7.455,3.834,7.452,3.91,7.487,3.973
				c0.092,0.166,0.12,0.348,0.159,0.529C7.663,4.581,7.642,4.68,7.74,4.754C7.705,4.395,7.759,4.035,7.466,3.761z M7.291,2.925
				C7.28,2.762,7.23,2.634,7.16,2.511c-0.017-0.029-0.038-0.06-0.079-0.036C7.023,2.511,6.975,2.558,6.944,2.619
				C6.932,2.643,6.952,2.658,6.976,2.665C7.11,2.705,7.185,2.821,7.291,2.925z M7.212,0.473c-0.235,0.04-0.434,0.157-0.675,0.29
				C6.838,0.768,7.042,0.658,7.212,0.473z M2.402,9.076c0.019-0.068-0.011-0.118-0.072-0.13C2.265,8.933,2.276,9.004,2.263,9.039
				c-0.027,0.07-0.062,0.132-0.111,0.188c-0.027,0.03-0.052,0.068-0.027,0.106C2.16,9.385,2.208,9.349,2.247,9.334
				C2.366,9.29,2.391,9.186,2.402,9.076z"/>
			<path class="st61" d="M13.108,13.915c-0.103,0.201-0.092,0.391-0.071,0.582c0.006,0.05,0.018,0.1,0.02,0.151
				c0.011,0.204-0.06,0.283-0.264,0.277c-0.261-0.008-0.51-0.087-0.764-0.136c-1.965-0.376-3.923-0.35-5.877,0.084
				c-0.104,0.023-0.21,0.043-0.317,0.05c-0.247,0.017-0.316-0.057-0.3-0.303c0.011-0.173,0.063-0.346,0.01-0.521
				c-0.016-0.053-0.03-0.108-0.055-0.197c-0.118,0.444-0.465,0.604-0.806,0.759c-0.706,0.322-1.441,0.553-2.213,0.653
				c-0.097,0.013-0.191,0.005-0.285-0.014c-0.155-0.032-0.242-0.124-0.229-0.285c0.034-0.418-0.17-0.722-0.461-0.988
				c-0.15-0.137-0.302-0.272-0.445-0.416c-0.108-0.11-0.188-0.24-0.189-0.404c-0.001-0.104,0.035-0.19,0.121-0.247
				c0.077-0.051,0.166-0.093,0.25-0.023c0.089,0.074,0.031,0.148-0.014,0.223c-0.079,0.129-0.033,0.239,0.127,0.299
				c0.196,0.073,0.4,0.055,0.602,0.028c0.498-0.067,0.957-0.254,1.408-0.463c0.145-0.067,0.258-0.076,0.387,0.031
				c0.138,0.116,0.306,0.17,0.49,0.144c0.077-0.011,0.127,0.012,0.173,0.072c0.045,0.058,0.098,0.109,0.153,0.157
				c0.302,0.264,0.633,0.3,0.984,0.107c0.02-0.011,0.041-0.02,0.058-0.034c0.307-0.254,0.638-0.455,1.046-0.506
				c0.079-0.01,0.173-0.051,0.225-0.11c0.211-0.239,0.497-0.235,0.774-0.258c1.359-0.112,2.716-0.102,4.067,0.095
				c0.402,0.059,0.798,0.143,1.188,0.261c0.092,0.028,0.223,0.092,0.278-0.019c0.06-0.121-0.072-0.187-0.158-0.243
				c-0.384-0.249-0.824-0.324-1.264-0.402c-0.097-0.017-0.265-0.015-0.26-0.099c0.007-0.112,0.17-0.091,0.27-0.104
				c0.925-0.122,1.773,0.152,2.602,0.517c0.469,0.207,0.927,0.44,1.408,0.622c0.376,0.142,0.76,0.252,1.167,0.25
				c0.091,0,0.18-0.007,0.267-0.037c0.195-0.067,0.235-0.167,0.133-0.343c-0.033-0.056-0.063-0.111-0.014-0.17
				c0.05-0.06,0.114-0.061,0.185-0.04c0.154,0.046,0.241,0.193,0.207,0.358c-0.032,0.155-0.119,0.28-0.231,0.386
				c-0.159,0.152-0.325,0.297-0.483,0.449c-0.257,0.246-0.403,0.54-0.381,0.904c0.01,0.172-0.077,0.258-0.241,0.288
				c-0.264,0.049-0.516-0.02-0.768-0.075c-0.669-0.146-1.317-0.354-1.926-0.671C13.324,14.367,13.197,14.222,13.108,13.915z
				 M11.72,13.972c-0.116-0.273-0.218-0.517-0.322-0.76c-0.035-0.082-0.286-0.174-0.36-0.136c-0.032,0.017-0.03,0.045-0.03,0.072
				c-0.001,0.327-0.005,0.654,0.002,0.981c0.003,0.148,0.138,0.075,0.211,0.098c0.094,0.03,0.076-0.054,0.076-0.105
				c0.002-0.132,0.001-0.265,0.001-0.397c0.1,0.143,0.177,0.291,0.227,0.447c0.046,0.142,0.161,0.116,0.258,0.141
				c0.106,0.028,0.117-0.064,0.149-0.124c0.063-0.12,0.121-0.243,0.181-0.364c0.029,0.164,0.026,0.316,0.03,0.467
				c0.004,0.154,0.139,0.103,0.217,0.12c0.097,0.022,0.062-0.072,0.063-0.117c0.003-0.293,0-0.587,0.003-0.88
				c0.001-0.084-0.008-0.15-0.11-0.146c-0.097,0.004-0.212-0.114-0.285,0.059C11.944,13.536,11.836,13.734,11.72,13.972z
				 M10.693,13.543c-0.174,0.004-0.19-0.083-0.179-0.195c0.006-0.067-0.005-0.136,0.003-0.202c0.013-0.106-0.035-0.138-0.132-0.141
				c-0.242-0.008-0.483-0.023-0.725-0.033c-0.172-0.007-0.278,0.082-0.282,0.251c-0.007,0.264-0.002,0.529-0.002,0.794
				c0,0.047,0.004,0.082,0.066,0.096c0.224,0.049,0.296,0.002,0.292-0.219c-0.002-0.109,0.026-0.158,0.141-0.135
				c0.044,0.009,0.09,0.012,0.135,0.007c0.118-0.012,0.152,0.035,0.149,0.153c-0.007,0.239,0.004,0.24,0.259,0.234
				c0.072-0.002,0.106-0.02,0.098-0.095C10.495,13.872,10.525,13.7,10.693,13.543z M9.053,12.961
				c-0.414,0.025-0.812,0.05-1.21,0.074c-0.084,0.005-0.079,0.062-0.079,0.12c0,0.305,0.003,0.609-0.001,0.914
				c-0.001,0.09,0.026,0.116,0.117,0.109c0.303-0.025,0.607-0.048,0.911-0.058c0.134-0.004,0.099-0.087,0.106-0.16
				c0.007-0.081-0.011-0.126-0.108-0.118c-0.18,0.015-0.36,0.022-0.54,0.029c-0.054,0.002-0.131,0.037-0.132-0.072
				c0-0.1,0.072-0.082,0.13-0.087c0.056-0.005,0.113-0.006,0.169-0.008c0.242-0.01,0.284-0.044,0.355-0.295
				c-0.188,0.01-0.374,0.021-0.559,0.03c-0.045,0.002-0.091,0.01-0.095-0.061c-0.003-0.066,0.024-0.093,0.086-0.096
				c0.146-0.007,0.294-0.03,0.439-0.018C8.855,13.281,8.984,13.198,9.053,12.961z M7.407,13.089
				c-0.392,0.036-0.766,0.114-1.143,0.173c-0.162,0.025-0.131,0.125-0.126,0.22c0.008,0.145,0.107,0.038,0.163,0.05
				c0.03,0.006,0.066-0.009,0.098-0.019c0.098-0.03,0.127,0.006,0.124,0.105c-0.007,0.191-0.007,0.383,0.001,0.575
				c0.002,0.051-0.051,0.172,0.062,0.145c0.1-0.024,0.289,0.064,0.285-0.161c-0.004-0.192,0.008-0.384-0.004-0.575
				c-0.008-0.137,0.038-0.203,0.174-0.195C7.259,13.42,7.344,13.282,7.407,13.089z"/>
			<path class="st61" d="M16.913,8.348c-0.279,0.112-0.566,0.148-0.861,0.077c-0.042-0.01-0.101-0.014-0.098-0.072
				c0.002-0.044,0.056-0.048,0.092-0.061c0.098-0.037,0.197-0.071,0.314-0.173c-0.339,0.03-0.624-0.011-0.892-0.135
				c-0.087-0.04-0.233-0.068-0.208-0.179c0.014-0.065,0.16-0.013,0.246-0.005c0.384,0.037,0.766,0.038,1.139-0.082
				c0.196-0.063,0.374-0.158,0.526-0.298c0.181-0.166,0.3-0.354,0.183-0.627c0.127,0.031,0.207,0.102,0.282,0.173
				c0.402,0.382,0.563,0.867,0.554,1.405c-0.007,0.43-0.282,0.71-0.613,0.94c-0.152,0.105-0.319,0.183-0.541,0.256
				c0.209,0.036,0.362,0.008,0.506-0.047c0.131-0.05,0.15,0.012,0.136,0.115c-0.021,0.162-0.125,0.26-0.265,0.327
				c-0.227,0.108-0.47,0.16-0.717,0.185c-0.727,0.074-1.442,0.039-2.124-0.261c-0.019-0.008-0.044-0.004-0.07-0.006
				c0.094,0.127,0.246,0.235,0.462,0.338c0.356,0.169,0.735,0.249,1.122,0.299c0.075,0.01,0.153,0.016,0.18,0.1
				c0.03,0.094-0.023,0.164-0.089,0.222c-0.135,0.117-0.299,0.155-0.471,0.157c-0.18,0.003-0.361-0.009-0.541-0.001
				c-0.172,0.008-0.318,0.08-0.409,0.233c-0.083,0.139-0.034,0.231,0.128,0.243c0.037,0.003,0.069,0,0.073,0.045
				c0.003,0.044-0.022,0.075-0.058,0.095c-0.096,0.053-0.201,0.046-0.297,0.02c-0.599-0.161-0.971-0.566-1.193-1.127
				c-0.04-0.1,0.045-0.156,0.083-0.226c0.053-0.098,0.098-0.249,0.177-0.273c0.094-0.028,0.165,0.126,0.252,0.193
				c0.243,0.188,0.496,0.348,0.826,0.405c-0.033-0.073-0.09-0.086-0.131-0.114c-0.319-0.211-0.558-0.488-0.719-0.836
				c-0.038-0.081-0.049-0.154-0.02-0.241c0.077-0.236,0.124-0.479,0.148-0.764c0.542,0.555,1.179,0.795,1.922,0.717
				c0.004-0.015,0.008-0.029,0.012-0.044c-0.091-0.011-0.183-0.018-0.273-0.034c-0.515-0.093-0.891-0.389-1.178-0.813
				c-0.313-0.462-0.5-0.984-0.702-1.498c-0.169-0.43-0.337-0.862-0.585-1.255c-0.053-0.084-0.115-0.161-0.183-0.257
				c-0.031,0.126,0.054,0.22,0.004,0.339c-0.317-0.356-0.779-0.551-0.978-1.027c0.243-0.007,0.441,0.125,0.643,0.244
				c0.021-0.02,0.015-0.042-0.001-0.059c-0.491-0.528-1.068-0.857-1.816-0.818c-0.395,0.021-0.696,0.204-0.94,0.5
				c-0.13,0.157-0.233,0.332-0.331,0.511C9.474,5.418,9.203,5.446,8.956,5.501C8.877,5.519,8.814,5.409,8.727,5.353
				c0.365-0.232,0.7-0.478,0.991-0.781C9.858,4.425,9.989,4.27,10.101,4.1c0.25-0.378,0.237-0.504-0.074-0.818
				c0.33-0.085,1.263,0.054,1.436,0.336c-0.135,0.023-0.266,0.039-0.393,0.069c-0.128,0.03-0.256,0.067-0.366,0.155
				c0.287,0.008,0.571,0.007,0.852,0.066c0.792,0.165,1.389,0.593,1.787,1.299c0.297,0.526,0.529,1.085,0.799,1.624
				c0.251,0.5,0.513,0.994,0.925,1.387c0.409,0.39,0.89,0.543,1.446,0.407c0.163-0.04,0.324-0.101,0.431-0.246
				c0.02-0.008,0.043-0.024,0.031-0.041C16.957,8.311,16.931,8.325,16.913,8.348z"/>
			<path class="st62" d="M5.867,17.992c0.135-0.55,0.26-1.057,0.384-1.565c0.084-0.344,0.169-0.689,0.25-1.034
				c0.02-0.086,0.051-0.13,0.154-0.133c0.253-0.008,0.507-0.031,0.759-0.054c0.086-0.008,0.12,0.011,0.12,0.105
				c-0.003,1.207-0.002,2.415,0,3.622c0,0.081-0.029,0.11-0.106,0.113c-0.191,0.01-0.383,0.02-0.574,0.038
				c-0.121,0.011-0.09-0.072-0.09-0.132c-0.001-0.491-0.001-0.982-0.001-1.473c0-0.054,0-0.107,0-0.161
				c-0.011-0.002-0.021-0.003-0.032-0.005C6.64,17.6,6.549,17.886,6.458,18.172c-0.09,0.284-0.183,0.568-0.266,0.854
				c-0.024,0.085-0.062,0.128-0.149,0.126c-0.006,0-0.011,0.001-0.017,0.001c-0.175-0.003-0.38,0.11-0.511,0.021
				c-0.128-0.087-0.128-0.311-0.183-0.475c-0.146-0.436-0.289-0.872-0.468-1.307c0,0.046,0,0.092,0,0.138
				c0,0.542-0.002,1.083,0.002,1.625c0.001,0.097-0.019,0.139-0.126,0.146c-0.163,0.01-0.325,0.039-0.485,0.068
				c-0.085,0.016-0.116-0.007-0.104-0.092c0.002-0.017,0-0.034,0-0.051c0-1.174,0.002-2.347-0.003-3.521
				c0-0.117,0.02-0.168,0.151-0.178c0.224-0.017,0.447-0.056,0.669-0.094c0.12-0.02,0.173,0.006,0.208,0.137
				c0.204,0.749,0.42,1.495,0.633,2.242C5.823,17.856,5.838,17.899,5.867,17.992z"/>
			<path class="st62" d="M17.663,16.223c-0.067,0.092-0.125,0.182-0.192,0.263c-0.15,0.182-0.275,0.37-0.225,0.624
				c0.017,0.09-0.03,0.104-0.108,0.085c-0.197-0.048-0.394-0.097-0.593-0.136c-0.097-0.019-0.087-0.084-0.088-0.152
				c-0.005-0.297-0.006-0.296-0.297-0.351c-0.264-0.049-0.528-0.099-0.809-0.119c0.101,0.086,0.196,0.179,0.303,0.257
				c0.098,0.071,0.126,0.158,0.12,0.274c-0.007,0.146-0.046,0.325,0.022,0.429c0.07,0.108,0.267,0.08,0.408,0.11
				c0.417,0.09,0.417,0.089,0.417,0.527c0,0.04-0.004,0.079,0.001,0.118c0.011,0.092-0.034,0.102-0.11,0.085
				c-0.209-0.046-0.42-0.084-0.628-0.134c-0.095-0.023-0.115,0.005-0.115,0.096c0.003,0.604,0.003,1.208,0,1.812
				c0,0.083,0.025,0.12,0.11,0.133c0.15,0.024,0.299,0.055,0.446,0.093c0.107,0.027,0.135-0.004,0.134-0.113
				c-0.006-0.384,0.002-0.768-0.005-1.151c-0.002-0.112,0.019-0.173,0.144-0.198c0.176-0.035,0.348-0.093,0.52-0.147
				c0.09-0.028,0.131-0.02,0.131,0.092c-0.004,0.768-0.004,1.535,0,2.303c0.001,0.111-0.041,0.119-0.13,0.098
				c-0.7-0.172-1.407-0.314-2.118-0.433c-0.108-0.018-0.104-0.077-0.104-0.153c0.001-0.367,0-0.734,0-1.101
				c0-1.219,0.001-2.438-0.001-3.658c0-0.099,0.003-0.159,0.134-0.134c0.853,0.157,1.703,0.332,2.544,0.544
				C17.601,16.193,17.626,16.207,17.663,16.223z"/>
			<path class="st62" d="M0.927,16.21c0.376-0.089,0.734-0.182,1.095-0.259c0.507-0.107,1.016-0.2,1.524-0.303
				c0.11-0.022,0.163-0.013,0.159,0.123c-0.01,0.282-0.005,0.564-0.002,0.846c0.001,0.087-0.017,0.131-0.116,0.144
				c-0.19,0.024-0.378,0.062-0.565,0.102c-0.085,0.018-0.104-0.005-0.108-0.089c-0.015-0.31-0.018-0.312-0.322-0.251
				c-0.279,0.056-0.557,0.115-0.887,0.184c0.158,0.062,0.268,0.116,0.384,0.147c0.116,0.031,0.148,0.093,0.139,0.206
				c-0.01,0.123,0.004,0.248-0.004,0.372c-0.006,0.099,0.03,0.115,0.117,0.095c0.198-0.045,0.397-0.082,0.595-0.125
				c0.09-0.02,0.15-0.025,0.137,0.102c-0.017,0.173,0.067,0.395-0.032,0.508c-0.089,0.102-0.311,0.09-0.475,0.125
				c-0.341,0.072-0.341,0.071-0.341,0.414c0,0.513,0.005,1.027-0.003,1.54c-0.002,0.139,0.035,0.16,0.159,0.124
				c0.135-0.039,0.274-0.063,0.413-0.084c0.098-0.015,0.126-0.06,0.124-0.157c-0.006-0.361,0.002-0.722-0.005-1.083
				c-0.002-0.109,0.024-0.175,0.129-0.223c0.189-0.087,0.371-0.189,0.553-0.29c0.079-0.044,0.107-0.035,0.106,0.061
				c-0.002,0.711-0.002,1.422,0,2.133c0,0.079-0.029,0.104-0.106,0.117c-0.71,0.122-1.418,0.26-2.117,0.436
				c-0.144,0.036-0.128-0.044-0.128-0.133c0.001-1.309-0.002-2.618,0.004-3.927c0.001-0.184-0.03-0.339-0.154-0.479
				C1.105,16.475,1.028,16.349,0.927,16.21z"/>
			<path class="st63" d="M7.473,9.444C7.367,9.29,7.194,9.242,7.034,9.181C6.872,9.119,6.702,9.08,6.534,9.03
				c0.185-0.263,0.677-0.455,0.982-0.387C7.722,8.689,7.86,8.808,7.919,9.01c0.028,0.097,0.048,0.197,0.059,0.297
				c0.017,0.16,0.044,0.29,0.22,0.376c0.221,0.108,0.287,0.389,0.206,0.69c-0.052,0.194-0.154,0.361-0.282,0.514
				c-0.034,0.041-0.092,0.068-0.097,0.14c0.219,0.017,0.383-0.108,0.556-0.205l0.012,0.012c-0.035,0.238-0.129,0.453-0.262,0.652
				c-0.102,0.153-0.246,0.206-0.426,0.16c-0.189-0.048-0.351-0.151-0.517-0.247c-0.386-0.225-0.775-0.44-1.227-0.503
				c-0.111-0.016-0.054-0.071-0.032-0.116c0.069-0.14,0.12-0.281,0.034-0.452c-0.133,0.208-0.302,0.365-0.519,0.469
				c-0.059,0.028-0.072,0.099-0.096,0.155c-0.156,0.364-0.18,0.753-0.212,1.141c-0.004,0.048,0.01,0.088,0.043,0.122
				c0.108,0.113,0.174,0.247,0.205,0.404c0.14-0.168,0.076-0.361,0.089-0.552c0.156,0.021,0.251,0.137,0.363,0.224
				c0.058-0.203-0.031-0.373-0.272-0.529c0.143-0.073,0.309-0.066,0.485,0.03c0.197,0.108,0.333,0.267,0.384,0.49
				c0.042,0.18-0.037,0.341-0.216,0.353c-0.379,0.026-0.659,0.227-0.944,0.445c-0.335,0.256-0.631,0.175-0.831-0.196
				c-0.059-0.11-0.071-0.218-0.032-0.341c0.167-0.536,0.255-1.086,0.251-1.647c-0.001-0.15,0.014-0.239,0.191-0.202
				c0.029,0.006,0.063-0.007,0.106-0.013c-0.06-0.106-0.177-0.147-0.195-0.26c0.047-0.017,0.087,0.005,0.13,0.018
				c0.252,0.08,0.451-0.004,0.575-0.237c0.087-0.164,0.089-0.332,0.01-0.529C6.41,9.74,7.109,9.52,7.856,9.644
				C7.724,9.526,7.595,9.492,7.473,9.444z"/>
			<path class="st62" d="M14.456,20.231c0,0.362-0.001,0.366-0.37,0.312c-1.953-0.287-3.917-0.386-5.889-0.325
				c-1.297,0.04-2.589,0.152-3.872,0.357c-0.146,0.023-0.194-0.012-0.174-0.157c0.01-0.078,0.002-0.158,0.002-0.237
				c0-0.328,0-0.327,0.319-0.372c1.824-0.258,3.658-0.377,5.5-0.34c1.462,0.03,2.917,0.155,4.363,0.37
				c0.088,0.013,0.132,0.041,0.123,0.138C14.45,20.061,14.456,20.147,14.456,20.231z"/>
			<path class="st61" d="M9.301,24.336c-0.399-0.125-0.773-0.308-1.147-0.491c-1.304-0.639-2.473-1.465-3.472-2.523
				c-0.049-0.052-0.11-0.096-0.139-0.189c0.474-0.06,0.946-0.092,1.406-0.184c0.422-0.084,0.74,0.032,1.08,0.284
				c0.695,0.516,1.47,0.9,2.273,1.225C9.302,23.083,9.301,23.71,9.301,24.336z"/>
			<path class="st63" d="M9.301,24.336c0-0.626,0.001-1.253,0.001-1.879c0.943-0.388,1.832-0.872,2.647-1.488
				c0.094-0.071,0.179-0.067,0.283-0.057c0.561,0.055,1.121,0.123,1.678,0.207c0.043,0.006,0.104-0.013,0.124,0.03
				c0.026,0.056-0.039,0.086-0.07,0.12c-0.804,0.868-1.73,1.582-2.754,2.17c-0.588,0.337-1.198,0.627-1.828,0.877
				C9.356,24.327,9.328,24.33,9.301,24.336z"/>
			<path class="st62" d="M14.369,19.372c-0.275-0.039-0.519-0.076-0.764-0.106c-0.077-0.01-0.081-0.069-0.1-0.118
				c-0.089-0.231-0.184-0.46-0.258-0.696c-0.051-0.164-0.176-0.13-0.287-0.136c-0.06-0.003-0.038,0.059-0.038,0.092
				c-0.002,0.203-0.006,0.406,0.001,0.609c0.004,0.12-0.004,0.187-0.16,0.154c-0.164-0.035-0.336-0.038-0.504-0.046
				c-0.098-0.004-0.137-0.034-0.136-0.14c0.003-1.196,0.003-2.391,0-3.587c0-0.1,0.028-0.12,0.127-0.112
				c0.551,0.046,1.099,0.111,1.646,0.184c0.327,0.044,0.559,0.307,0.56,0.637c0.003,0.598-0.002,1.196,0.002,1.793
				c0.002,0.256-0.1,0.438-0.351,0.511c-0.109,0.032-0.058,0.085-0.038,0.139C14.163,18.814,14.26,19.078,14.369,19.372z
				 M12.477,16.014c0.123,0.089,0.222,0.17,0.329,0.236c0.093,0.058,0.119,0.13,0.117,0.237c-0.007,0.333,0.003,0.666-0.006,0.998
				c-0.003,0.114,0.037,0.144,0.142,0.151c0.163,0.01,0.326,0.03,0.486,0.058c0.103,0.018,0.124-0.014,0.123-0.11
				c-0.004-0.378-0.002-0.756-0.002-1.134c0-0.314,0.001-0.323-0.303-0.358C13.078,16.059,12.792,15.996,12.477,16.014z"/>
			<path class="st62" d="M8.014,17.087c0-0.586,0.003-1.173-0.003-1.759c-0.001-0.119,0.035-0.155,0.15-0.155
				c0.552,0,1.105-0.012,1.657-0.008c0.302,0.002,0.533,0.24,0.535,0.541c0.004,0.62,0.004,1.24,0,1.861
				c-0.002,0.314-0.233,0.541-0.546,0.545c-0.282,0.003-0.564,0.006-0.846-0.002c-0.114-0.003-0.16,0.023-0.153,0.147
				c0.01,0.202-0.003,0.406,0.005,0.609c0.004,0.106-0.032,0.135-0.135,0.133C8.504,18.994,8.329,19,8.155,19.015
				c-0.111,0.01-0.145-0.021-0.144-0.135C8.017,18.283,8.014,17.685,8.014,17.087z M8.379,15.844
				c-0.003,0.012-0.006,0.025-0.009,0.037c0.098,0.061,0.191,0.131,0.294,0.179c0.121,0.056,0.154,0.138,0.15,0.267
				c-0.01,0.316,0.001,0.632-0.005,0.948c-0.002,0.109,0.014,0.166,0.144,0.155c0.163-0.013,0.327-0.007,0.491-0.003
				c0.083,0.002,0.122-0.017,0.122-0.111c-0.004-0.457-0.002-0.914-0.002-1.371c0-0.054-0.001-0.102-0.077-0.102
				C9.117,15.845,8.748,15.844,8.379,15.844z"/>
			<path class="st63" d="M12.957,6.326c0.161,0.174,0.197,0.399,0.246,0.617c0.106,0.472,0.109,0.946,0.004,1.42
				c-0.011-0.264-0.037-0.525-0.112-0.779c-0.176-0.59-0.511-1.055-1.08-1.318c-0.754-0.349-1.591-0.132-2.122,0.537
				c-0.681,0.86-0.638,2.218,0.097,3.032c0.351,0.39,0.684,0.549,1.316,0.642c-0.889,0.141-1.632-0.135-2.242-0.793
				C9.051,9.671,9.039,9.656,9.026,9.642l0.002,0.004c0.014-0.067-0.026-0.118-0.053-0.173C8.76,9.045,8.661,8.591,8.651,8.112
				C8.644,7.794,8.726,7.491,8.759,7.18c0.204,0.037,0.41,0.068,0.613,0.113c0.112,0.025,0.123-0.012,0.109-0.11
				c-0.049-0.334-0.138-0.66-0.216-0.988c0.059-0.006,0.078-0.06,0.111-0.097c0.84-0.921,2.165-1.011,3.131-0.222
				C12.673,6.013,12.788,6.196,12.957,6.326z"/>
			<path class="st63" d="M12.878,8.043c0.05,0.421-0.006,0.821-0.23,1.191c0.182-0.612,0.156-1.205-0.137-1.808
				c-0.098,0.223-0.216,0.394-0.356,0.549c-0.053,0.058-0.073,0.122-0.077,0.199c-0.01,0.208-0.026,0.415-0.062,0.629
				c-0.05-0.167-0.1-0.335-0.155-0.52c-0.242,0.208-0.474,0.394-0.725,0.556c-0.228,0.147-0.462,0.285-0.713,0.386
				c-0.12,0.048-0.122,0.1-0.068,0.199c0.12,0.221,0.269,0.416,0.472,0.568c0.037,0.028,0.099,0.039,0.092,0.127
				c-0.208-0.091-0.41-0.171-0.566-0.336c0.039-0.054-0.014-0.081-0.036-0.113C9.802,8.915,9.776,8.13,10.218,7.345
				c0.441-0.785,1.35-0.945,2.053-0.385C12.618,7.237,12.768,7.63,12.878,8.043z"/>
			<path class="st63" d="M13.039,4c0.691,0.093,1.368,0.235,2.04,0.402c0.536,0.132,1.067,0.282,1.59,0.46
				c0.103,0.035,0.153,0.073,0.151,0.196c-0.008,0.609-0.005,1.218-0.002,1.827c0,0.093-0.017,0.16-0.105,0.207
				c-0.272,0.146-0.566,0.18-0.868,0.176c-0.113-0.001-0.082-0.087-0.082-0.148c-0.002-0.434-0.006-0.869,0.002-1.303
				c0.003-0.133-0.041-0.181-0.168-0.215c-0.484-0.129-0.972-0.244-1.461-0.352c-0.06-0.013-0.121-0.015-0.155-0.083
				C13.755,4.71,13.435,4.33,13.039,4z"/>
			<path class="st62" d="M1.606,7.663c-0.151-0.009-0.302-0.018-0.46-0.028c0.057-0.318,0.065-0.643,0.251-0.928
				c-0.18-0.048-0.218-0.171-0.192-0.339c0.061-0.387,0.191-0.745,0.447-1.063c0,0.192,0,0.385,0,0.577
				c0.013,0.003,0.025,0.007,0.038,0.01c0.04-0.068,0.081-0.136,0.12-0.204c0.137-0.242,0.298-0.465,0.503-0.654
				c0.184-0.169,0.24-0.155,0.331,0.102c0.186-0.404,0.508-0.714,0.593-1.153c0.298,0.151,0.379,0.444,0.2,0.789
				c0.008-0.195,0.016-0.362-0.092-0.529C3.243,4.57,3.038,4.837,2.947,5.179c0.237-0.023,0.452-0.015,0.649,0.136
				C3.099,5.431,2.951,5.868,2.715,6.242C2.687,6.161,2.722,6.085,2.672,6.017C2.421,6.27,2.4,6.745,1.958,6.773
				c0.037,0.216-0.126,0.38-0.151,0.573C1.774,7.454,1.741,7.563,1.709,7.671C1.686,7.67,1.663,7.67,1.64,7.669
				C1.632,7.651,1.62,7.648,1.606,7.663z"/>
			<path class="st63" d="M4.928,6.834c0.228,0.038,0.325,0.234,0.459,0.385C5.44,7.002,5.256,6.431,4.989,5.986
				c-0.232-0.387-0.528-0.71-0.949-0.94c0.667-0.051,2.011,0.819,2.206,1.413C6.01,6.468,5.775,6.476,5.518,6.591
				c0.169,0.028,0.3,0.046,0.43,0.071c0.25,0.049,0.492,0.126,0.713,0.256C6.921,7.071,6.943,7.25,6.719,7.457
				C6.505,7.654,6.247,7.785,5.991,7.916C5.781,8.025,5.564,8.119,5.338,8.193C5.259,8.219,5.228,8.212,5.227,8.119
				C5.227,7.668,5.14,7.235,4.931,6.831L4.928,6.834z"/>
			<path class="st6" d="M11.637,17.16c0,0.587-0.003,1.173,0.003,1.76c0.001,0.119-0.028,0.156-0.149,0.143
				c-0.179-0.02-0.36-0.028-0.54-0.032c-0.081-0.002-0.104-0.029-0.104-0.109c0.002-1.207,0.002-2.415,0-3.622
				c0-0.08,0.021-0.11,0.105-0.103c0.197,0.016,0.394,0.03,0.591,0.033c0.11,0.002,0.094,0.069,0.094,0.136
				C11.637,15.964,11.637,16.562,11.637,17.16z"/>
			<path class="st61" d="M8.771,1.536C8.71,1.312,8.735,1.092,8.64,0.873C8.597,1.172,8.559,1.447,8.517,1.722
				C8.506,1.796,8.512,1.878,8.391,1.885C8.277,1.891,8.28,1.811,8.26,1.747C8.185,1.51,8.097,1.279,7.975,1.062
				C7.949,1.017,7.94,0.951,7.847,0.94c0.069,0.218,0.13,0.429,0.173,0.644C8.088,1.922,8.092,1.921,7.817,2.15
				C7.76,2.096,7.763,2.018,7.742,1.952C7.625,1.585,7.475,1.234,7.247,0.92c-0.062-0.086-0.064-0.14,0.025-0.206
				C7.47,0.567,7.687,0.466,7.925,0.406c0.129-0.032,0.216-0.005,0.258,0.133c0.028,0.09,0.072,0.176,0.13,0.311
				c0.015-0.128,0.04-0.212,0.031-0.294c-0.02-0.179,0.077-0.179,0.202-0.149c0.422,0.1,0.724,0.351,0.921,0.734
				C9.66,1.517,9.689,1.93,9.734,2.338c0.013,0.123,0.027,0.245,0.043,0.384C9.694,2.685,9.69,2.613,9.67,2.557
				C9.576,2.297,9.542,2.021,9.471,1.754C9.414,1.541,9.349,1.33,9.201,1.159c-0.154-0.177-0.275-0.15-0.347,0.074
				C8.825,1.323,8.804,1.416,8.771,1.536z"/>
			<path class="st61" d="M6.914,8.017c0.272-0.04,0.488-0.22,0.765-0.325C7.653,7.808,7.582,7.845,7.525,7.889
				c-0.63,0.492-1.356,0.775-2.126,0.955c-0.831,0.195-1.667,0.27-2.512,0.087C2.775,8.907,2.67,8.872,2.576,8.805
				c-0.046-0.033-0.11-0.069-0.09-0.129c0.021-0.065,0.096-0.045,0.15-0.039c0.173,0.021,0.345,0.051,0.519,0.069
				c1.413,0.148,2.696-0.178,3.822-1.063c0.146-0.115,0.279-0.246,0.422-0.365c0.04-0.033,0.092-0.095,0.146-0.05
				c0.061,0.05,0.015,0.119-0.018,0.168C7.363,7.641,7.157,7.843,6.914,8.017z"/>
			<path class="st61" d="M1.784,10.526c0.133,0.203,0.33,0.324,0.509,0.466c0.373,0.297,0.536,0.697,0.544,1.165
				c0.01,0.529,0.01,0.531-0.492,0.688C2.2,12.89,2.05,12.919,1.902,12.953c-0.067,0.015-0.12,0.015-0.12-0.083
				C1.785,12.089,1.784,11.307,1.784,10.526z"/>
			<path class="st63" d="M16.816,10.839c0,0.664-0.003,1.328,0.003,1.993c0.001,0.123-0.041,0.14-0.147,0.118
				c-0.277-0.055-0.544-0.139-0.805-0.247c-0.07-0.029-0.109-0.061-0.107-0.146c0.004-0.321,0.002-0.642,0.001-0.963
				c0-0.068,0.005-0.114,0.094-0.124C16.28,11.425,16.607,11.227,16.816,10.839z"/>
			<path class="st63" d="M8.453,2.36c0.24-0.077,0.471,0.009,0.621,0.233C9.187,2.764,9.24,2.96,9.3,3.153
				c0.044,0.14,0.09,0.279,0.205,0.38c0.083,0.072,0.049,0.15,0.013,0.229C9.398,4.024,9.223,4.248,9.031,4.46
				C8.883,4.676,8.652,4.771,8.415,4.905C8.449,4.5,8.407,4.127,8.766,3.841C9.02,3.639,9.051,3.317,8.919,3.004
				C8.903,2.966,8.896,2.908,8.838,2.911c-0.052,0.003-0.07,0.05-0.083,0.094C8.594,3.125,8.47,3.289,8.291,3.384
				C8.28,3.33,8.264,3.275,8.26,3.22C8.24,2.915,8.186,2.602,8.453,2.36z"/>
			<path class="st63" d="M3.34,9.711c-0.12,0.122-0.147,0.24-0.037,0.396c0.073,0.104,0.056,0.245-0.011,0.356
				c-0.053,0.088-0.047,0.166-0.024,0.257c0.102,0.409,0.243,0.799,0.539,1.114c0.078,0.083,0.079,0.184,0.059,0.286
				c-0.013,0.064-0.036,0.126-0.06,0.207c0.181-0.019,0.221-0.152,0.276-0.27c0.022-0.048,0.013-0.133,0.082-0.13
				c0.064,0.002,0.094,0.076,0.114,0.135c0.067,0.197,0.074,0.398,0.017,0.599c-0.036,0.127-0.119,0.164-0.232,0.1
				c-0.156-0.088-0.295-0.203-0.485-0.227c-0.089-0.011-0.095-0.117-0.1-0.196c-0.011-0.17-0.041-0.325-0.213-0.412
				c-0.041-0.021-0.06-0.066-0.059-0.115c0.01-0.415-0.217-0.71-0.495-0.98c-0.032-0.031-0.073-0.053-0.115-0.083
				c0.075-0.081,0.175-0.053,0.226-0.138c-0.17-0.046-0.355-0.062-0.461-0.226c0.033,0.005,0.066,0.009,0.098,0.016
				c0.168,0.036,0.342,0.069,0.476-0.073c0.118-0.126,0.057-0.262-0.02-0.388C2.888,9.895,2.895,9.86,2.946,9.849
				C3.083,9.82,3.195,9.719,3.34,9.711z"/>
			<path class="st63" d="M1.709,7.671c0.033-0.109,0.066-0.217,0.098-0.326c0.017,0.01-0.01,0.095,0.046,0.034
				c0.071-0.076,0.13-0.163,0.195-0.246c0.038,0.01,0.075,0.022,0.114,0.028C2.476,7.208,2.78,6.93,2.742,6.633
				c0.092-0.248,0.232-0.461,0.445-0.622c0.075-0.057,0.141-0.07,0.218,0.014c0.356,0.381,0.306,1.111-0.103,1.43
				c-0.139,0.108-0.299,0.124-0.404,0.04C2.806,7.42,2.795,7.329,2.862,7.081C2.667,7.18,2.515,7.31,2.421,7.474
				C2.251,7.77,2.033,7.827,1.741,7.681C1.731,7.676,1.719,7.674,1.709,7.671z"/>
			<path class="st62" d="M7.473,9.444c0.121,0.048,0.25,0.082,0.383,0.2C7.109,9.52,6.41,9.74,5.68,9.673
				c0.079,0.197,0.077,0.365-0.01,0.529c-0.124,0.233-0.323,0.317-0.575,0.237c-0.043-0.013-0.083-0.035-0.13-0.018
				c0,0,0,0.001,0,0.001c0.007-0.027-0.007-0.036-0.03-0.037c0,0,0,0,0,0c0.006-0.035-0.015-0.051-0.045-0.061
				C4.742,10.143,4.755,9.954,4.862,9.76c0.173-0.314,0.424-0.48,0.797-0.438C6.123,9.374,6.588,9.4,7.055,9.402
				C7.195,9.402,7.334,9.429,7.473,9.444z"/>
			<path class="st64" d="M12.878,8.043c-0.11-0.413-0.26-0.806-0.607-1.083c-0.702-0.56-1.612-0.4-2.053,0.385
				c-0.442,0.785-0.416,1.57,0.101,2.324c0.022,0.032,0.075,0.06,0.036,0.113c-0.53-0.484-0.705-1.096-0.634-1.79
				c0.039-0.377,0.176-0.72,0.414-1.02c0.575-0.724,1.582-0.776,2.224-0.11C12.674,7.19,12.843,7.589,12.878,8.043z"/>
			<path class="st61" d="M3.759,4.281C3.834,4.129,3.937,4.062,4.05,4.015c0.145-0.061,0.295-0.11,0.443-0.165
				c0.152-0.057,0.31-0.105,0.407-0.267C4.954,3.788,4.94,3.836,4.764,4.056C5.013,4.098,5.26,4.123,5.46,4.284
				C5.429,4.356,5.339,4.291,5.307,4.352c0.269,0.219,0.897,0.462,1.167,0.452C6.406,4.963,6.366,4.986,6.085,5.01
				C6.234,5.166,6.378,5.305,6.488,5.47c0.11,0.166,0.241,0.321,0.272,0.531C6.204,5.274,5.535,4.703,4.646,4.418
				c0.061-0.076,0.155-0.067,0.24-0.119C4.515,4.18,4.156,4.204,3.759,4.281z"/>
			<path class="st62" d="M9.197,6.996c-0.516-0.088-1.022-0.208-1.51-0.401C7.54,6.536,7.432,6.443,7.356,6.301
				C7.204,6.013,7.029,5.737,6.904,5.435C6.876,5.366,6.808,5.266,6.881,5.221C6.947,5.18,7.019,5.276,7.069,5.332
				c0.137,0.149,0.279,0.297,0.394,0.462C7.692,6.12,8.01,6.264,8.391,6.301c0.05,0.053,0.13,0.004,0.184,0.061
				C8.778,6.578,9.008,6.767,9.197,6.996z"/>
			<path class="st64" d="M8.755,3.005c0.013-0.045,0.032-0.092,0.083-0.094c0.058-0.003,0.065,0.055,0.081,0.094
				C9.051,3.317,9.02,3.639,8.766,3.841C8.407,4.127,8.449,4.5,8.415,4.905C8.652,4.771,8.883,4.676,9.031,4.46
				c0.017,0,0.039,0.008,0.05,0c0.288-0.205,0.53-0.451,0.654-0.791c0.021-0.057,0.01-0.122-0.029-0.18
				c0.185,0.014,0.245,0.109,0.181,0.286C9.824,3.945,9.719,4.093,9.6,4.229C9.281,4.596,8.897,4.878,8.468,5.102
				C8.329,5.175,8.166,5.07,8.174,4.917C8.188,4.663,8.21,4.41,8.217,4.157C8.22,4.059,8.276,4.023,8.344,3.978
				C8.63,3.792,8.817,3.546,8.798,3.184C8.795,3.122,8.788,3.06,8.755,3.005z"/>
			<path class="st63" d="M9.197,6.996C9.008,6.767,8.778,6.578,8.575,6.362C8.521,6.305,8.441,6.354,8.391,6.301
				C8.475,6.303,8.519,6.296,8.497,6.18C8.431,5.841,8.3,5.559,7.999,5.354c-0.32-0.218-0.616-0.47-0.926-0.71
				c0.07-0.04,0.118,0.008,0.167,0.037c0.454,0.272,0.906,0.548,1.362,0.816C8.751,5.585,8.849,5.705,8.916,5.86
				c0.144,0.332,0.232,0.681,0.311,1.033C9.234,6.925,9.273,6.981,9.197,6.996z"/>
			<path class="st64" d="M1.907,8.882c0.016,0.176-0.128,0.43-0.279,0.492C1.426,9.457,1.095,9.393,0.991,9.233
				c-0.098-0.15-0.182-0.31-0.232-0.485C0.733,8.657,0.733,8.573,0.815,8.484c0.036,0.094,0.024,0.196,0.1,0.267
				C0.98,8.381,1.076,8.313,1.45,8.371C1.648,8.402,1.84,8.45,1.968,8.656C1.7,8.589,1.596,8.676,1.601,8.938
				c0.001,0.057,0.001,0.119,0.064,0.144c0.063,0.026,0.108-0.02,0.145-0.06c0.038-0.041,0.066-0.09,0.099-0.135L1.907,8.882z"/>
			<path class="st64" d="M12.957,6.326c-0.17-0.13-0.284-0.314-0.452-0.45c-0.966-0.788-2.291-0.698-3.131,0.222
				c-0.033,0.036-0.052,0.09-0.111,0.097c-0.109-0.16-0.059-0.274,0.079-0.4c0.884-0.804,2.167-0.872,3.115-0.143
				C12.684,5.826,12.89,6.029,12.957,6.326z"/>
			<path class="st62" d="M8.453,2.36C8.186,2.602,8.24,2.915,8.26,3.22C8.264,3.275,8.28,3.33,8.291,3.384
				c-0.007,0.008-0.013,0.02-0.022,0.024C8.028,3.52,7.892,3.682,7.982,3.965c0.023,0.071-0.031,0.134-0.088,0.137
				C7.845,4.105,7.808,4.039,7.805,3.976C7.803,3.92,7.797,3.864,7.795,3.807c-0.003-0.115-0.02-0.209-0.151-0.265
				c-0.117-0.05-0.183-0.459-0.099-0.544c0.066-0.066,0.166-0.072,0.254-0.065C7.937,2.946,8.002,2.903,8.042,2.76
				C8.098,2.558,8.226,2.401,8.453,2.36z"/>
			<path class="st61" d="M6.332,1.049C6.481,1.021,6.63,1.01,6.767,0.964c0.161-0.054,0.246,0.008,0.331,0.134
				c0.226,0.334,0.4,0.691,0.507,1.08c0.013,0.046,0.066,0.117-0.028,0.136C7.514,2.327,7.426,2.375,7.384,2.279
				C7.161,1.77,6.761,1.418,6.34,1.084C6.337,1.082,6.337,1.074,6.332,1.049z"/>
			<path class="st62" d="M3.34,9.711C3.195,9.719,3.083,9.82,2.946,9.849C2.895,9.86,2.888,9.895,2.914,9.939
				c0.077,0.126,0.138,0.262,0.02,0.388c-0.133,0.142-0.307,0.11-0.476,0.073c-0.032-0.007-0.065-0.011-0.098-0.016c0,0,0,0,0,0
				c0.002-0.024-0.012-0.033-0.034-0.033c0,0,0,0,0,0c0.002-0.023-0.012-0.033-0.033-0.036c-0.126-0.131-0.13-0.282-0.062-0.438
				c0.064-0.148,0.194-0.191,0.344-0.201c0.296-0.02,0.595-0.024,0.888-0.154C3.458,9.607,3.412,9.639,3.375,9.676
				C3.352,9.677,3.337,9.686,3.34,9.711L3.34,9.711z"/>
			<path class="st64" d="M8.759,7.18C8.726,7.491,8.644,7.794,8.651,8.112C8.661,8.591,8.76,9.045,8.975,9.473
				c0.027,0.054,0.067,0.105,0.053,0.173c-0.61-0.707-0.779-1.512-0.541-2.409C8.541,7.035,8.669,7.202,8.759,7.18z"/>
			<path class="st64" d="M6.397,3.687c-0.232,0.106-0.43,0.26-0.61,0.438C5.704,4.207,5.672,4.171,5.642,4.081
				c-0.095-0.282,0.064-0.5,0.365-0.502c0.067,0,0.13,0.014,0.225,0.046C6.134,3.47,6.221,3.387,6.302,3.299
				C6.397,3.195,6.475,3.08,6.541,2.954C6.636,2.77,6.695,2.755,6.892,2.842c0.005,0.019,0.016,0.031,0.038,0.028L6.928,2.868
				c0.028,0.137-0.025,0.238-0.13,0.324C6.681,3.29,6.573,3.397,6.457,3.496C6.394,3.549,6.366,3.607,6.397,3.687z"/>
			<path class="st64" d="M4.042,7.675c0.106,0.083,0.133,0.189,0.209,0.299c0.071-0.376,0.065-0.718-0.039-1.056
				c-0.009-0.03-0.049-0.06-0.005-0.083c0.038-0.02,0.06,0.019,0.076,0.048c0.242,0.45,0.341,0.925,0.257,1.434
				c-0.012,0.073-0.045,0.111-0.121,0.11c-0.011,0-0.023,0.002-0.033,0.005C4.258,8.464,4.097,8.506,4.007,8.445
				c-0.103-0.069,0.014-0.22,0.02-0.337C4.034,7.972,4.045,7.834,4.042,7.675z"/>
			<path class="st61" d="M2.339,8.313c-0.19-0.047-0.19-0.047-0.18,0.25c-0.081-0.065-0.15-0.128-0.227-0.179
				C1.701,8.23,1.441,8.197,1.171,8.208c-0.066,0.003-0.162,0.054-0.194-0.04c-0.032-0.093-0.003-0.19,0.067-0.267
				c0.044-0.048,0.102-0.073,0.165-0.079C1.55,7.792,1.87,7.857,2.156,8.057C2.243,8.119,2.311,8.197,2.339,8.313z"/>
			<path class="st63" d="M13.453,9.52c-0.351,1.219-1.862,2.261-3.25,1.715C11.708,11.458,12.75,10.812,13.453,9.52z"/>
			<path class="st64" d="M4.384,9.319c-0.172,0.509-0.157,0.701,0.088,1.183c-0.396-0.134-0.729-0.663-0.69-1.092
				C3.787,9.347,3.805,9.318,3.87,9.318C4.039,9.32,4.207,9.319,4.384,9.319z"/>
			<path class="st61" d="M1.931,5.089c0.047-0.229,0.167-0.417,0.311-0.59c0.148-0.178,0.305-0.347,0.454-0.523
				C2.821,3.828,2.934,3.672,2.91,3.46C3.124,3.712,3.051,4.078,2.669,4.64c-0.006-0.067-0.01-0.118-0.017-0.192
				C2.359,4.617,2.131,4.834,1.931,5.089z"/>
			<path class="st64" d="M10.048,5.04c0.136-0.456,0.807-0.837,1.264-0.575c-0.187,0.022-0.358,0.038-0.499,0.144
				c-0.036,0.027-0.084,0.049-0.103,0.086C10.57,4.965,10.288,4.945,10.048,5.04z"/>
			<path class="st63" d="M6.397,3.687c-0.031-0.08-0.003-0.138,0.061-0.192C6.573,3.397,6.681,3.29,6.798,3.193
				c0.105-0.087,0.158-0.188,0.13-0.324c0.201,0.083,0.269,0.255,0.297,0.45C7.236,3.399,7.197,3.48,7.101,3.442
				c-0.124-0.05-0.214,0.003-0.314,0.055C6.659,3.564,6.527,3.624,6.397,3.687z"/>
			<path class="st64" d="M8.211,6.028c-0.444-0.427-0.888-0.855-1.34-1.291C6.946,4.715,6.969,4.764,7,4.789
				c0.352,0.273,0.703,0.547,1.055,0.82c0.132,0.103,0.197,0.235,0.203,0.396C8.243,6.013,8.227,6.02,8.211,6.028z"/>
			<path class="st63" d="M5.91,4.35c0.15-0.179,0.305-0.334,0.52-0.425C6.617,3.847,6.795,3.748,6.978,3.66
				C7.024,3.638,7.08,3.615,7.112,3.675c0.028,0.052-0.023,0.081-0.055,0.11C6.98,3.859,6.897,3.927,6.822,4.004
				c-0.083,0.084-0.156,0.132-0.29,0.083C6.368,4.028,6.148,4.158,6.14,4.314C6.132,4.46,6.076,4.436,5.99,4.395
				C5.965,4.384,5.942,4.369,5.91,4.35z"/>
			<path class="st64" d="M2.742,6.633C2.78,6.93,2.476,7.208,2.162,7.162C2.124,7.156,2.086,7.143,2.048,7.134
				C2.113,6.989,2.193,6.893,2.383,6.91C2.566,6.927,2.67,6.788,2.742,6.633z"/>
			<path class="st64" d="M1.721,4.781C1.647,4.448,1.764,4.192,1.956,3.948C2.04,4.291,2.037,4.301,1.721,4.781z"/>
			<path class="st61" d="M4.473,3.2C4.486,3.35,4.432,3.433,4.35,3.497C4.143,3.66,3.881,3.726,3.676,3.893
				C3.763,3.711,3.828,3.65,4.039,3.522C4.185,3.433,4.346,3.364,4.473,3.2z"/>
			<path class="st63" d="M7.712,2.492C7.79,2.469,7.846,2.425,7.897,2.359c0.169-0.218,0.397-0.305,0.67-0.273
				C8.625,2.093,8.688,2.097,8.739,2.18C8.303,2.106,8.045,2.31,7.88,2.668C7.835,2.6,7.858,2.465,7.712,2.492z"/>
			<path class="st64" d="M11.575,4.938c-0.209-0.031-0.418-0.069-0.634-0.069c0.1-0.159,0.288-0.218,0.522-0.169
				C11.494,4.783,11.633,4.814,11.575,4.938z"/>
			<path class="st64" d="M7.466,3.761C7.759,4.035,7.705,4.395,7.74,4.754C7.642,4.68,7.663,4.581,7.646,4.502
				C7.607,4.321,7.579,4.139,7.487,3.973C7.452,3.91,7.455,3.834,7.466,3.761z"/>
			<path class="st64" d="M7.712,2.492C7.858,2.465,7.835,2.6,7.88,2.668C7.763,2.743,7.624,2.722,7.497,2.748
				C7.409,2.765,7.428,2.651,7.404,2.596c-0.03-0.07,0.031-0.067,0.075-0.072C7.557,2.513,7.635,2.502,7.712,2.492z"/>
			<path class="st63" d="M7.291,2.925c-0.106-0.104-0.18-0.22-0.315-0.26C6.952,2.658,6.932,2.643,6.944,2.619
				c0.031-0.061,0.079-0.108,0.137-0.143C7.122,2.452,7.144,2.482,7.16,2.511C7.23,2.634,7.28,2.762,7.291,2.925z"/>
			<path class="st61" d="M7.212,0.473c-0.17,0.185-0.374,0.295-0.675,0.29C6.778,0.63,6.977,0.513,7.212,0.473z"/>
			<path class="st63" d="M2.402,9.076C2.391,9.186,2.366,9.29,2.247,9.334C2.208,9.349,2.16,9.385,2.125,9.333
				c-0.026-0.038,0-0.076,0.027-0.106c0.049-0.056,0.085-0.118,0.111-0.188C2.276,9.004,2.265,8.933,2.33,8.945
				C2.392,8.958,2.421,9.008,2.402,9.076z"/>
			<path class="st63" d="M11.575,4.938c0.058-0.124-0.081-0.155-0.112-0.238c0.217,0.017,0.354,0.147,0.493,0.354
				C11.803,5.008,11.689,4.973,11.575,4.938z"/>
			<path class="st63" d="M4.89,10.323c0.03,0.009,0.05,0.025,0.045,0.061C4.902,10.377,4.892,10.353,4.89,10.323z"/>
			<path class="st64" d="M9.026,9.642c0.012,0.014,0.025,0.029,0.037,0.043C9.051,9.671,9.039,9.656,9.026,9.642z"/>
			<path class="st63" d="M3.339,9.712C3.337,9.686,3.352,9.677,3.375,9.676C3.374,9.699,3.365,9.714,3.339,9.712z"/>
			<path class="st63" d="M2.293,10.315c0.021,0.003,0.034,0.013,0.033,0.036C2.303,10.35,2.293,10.337,2.293,10.315z"/>
			<path class="st63" d="M2.326,10.351c0.022,0,0.036,0.009,0.034,0.033C2.336,10.386,2.325,10.374,2.326,10.351z"/>
			<path class="st63" d="M4.935,10.384c0.024,0.001,0.038,0.011,0.03,0.037C4.939,10.422,4.932,10.408,4.935,10.384z"/>
			<path class="st64" d="M1.909,8.886c0.009,0,0.017,0,0.026,0C1.932,8.89,1.93,8.894,1.927,8.898
				c-0.006-0.005-0.013-0.01-0.02-0.015C1.907,8.882,1.909,8.886,1.909,8.886z"/>
			<path class="st63" d="M8.581,10.821c0.006-0.007,0.018-0.019,0.019-0.019c0.018,0.014,0.011,0.024-0.007,0.03
				C8.593,10.833,8.581,10.821,8.581,10.821z"/>
			<path class="st63" d="M1.606,7.663C1.62,7.648,1.632,7.651,1.64,7.669C1.629,7.667,1.617,7.665,1.606,7.663z"/>
			<path class="st63" d="M4.931,6.831C4.925,6.825,4.919,6.819,4.912,6.813c0.005-0.001,0.01-0.001,0.015-0.002
				c0,0.008,0.001,0.015,0.001,0.023C4.928,6.834,4.931,6.831,4.931,6.831z"/>
			<path class="st63" d="M6.929,2.869C6.907,2.873,6.897,2.861,6.892,2.842C6.913,2.839,6.927,2.846,6.929,2.869z"/>
			<path class="st62" d="M11.72,13.972c0.116-0.237,0.223-0.436,0.31-0.643c0.073-0.173,0.188-0.056,0.285-0.059
				c0.102-0.004,0.111,0.063,0.11,0.146c-0.004,0.293,0,0.587-0.003,0.88c-0.001,0.045,0.034,0.139-0.063,0.117
				c-0.078-0.018-0.213,0.034-0.217-0.12c-0.004-0.152-0.001-0.303-0.03-0.467c-0.06,0.121-0.118,0.244-0.181,0.364
				c-0.031,0.06-0.043,0.152-0.149,0.124c-0.097-0.025-0.213,0.001-0.258-0.141c-0.051-0.156-0.128-0.304-0.227-0.447
				c0,0.132,0.001,0.265-0.001,0.397c-0.001,0.051,0.018,0.135-0.076,0.105c-0.073-0.023-0.208,0.05-0.211-0.098
				c-0.007-0.327-0.003-0.654-0.002-0.981c0-0.027-0.002-0.055,0.03-0.072c0.074-0.038,0.325,0.054,0.36,0.136
				C11.503,13.455,11.605,13.698,11.72,13.972z"/>
			<path class="st64" d="M10.693,13.543c-0.168,0.157-0.198,0.329-0.178,0.514c0.008,0.074-0.026,0.093-0.098,0.095
				c-0.256,0.006-0.266,0.005-0.259-0.234c0.003-0.117-0.031-0.165-0.149-0.153c-0.044,0.005-0.091,0.002-0.135-0.007
				c-0.115-0.023-0.143,0.026-0.141,0.135c0.004,0.221-0.069,0.268-0.292,0.219c-0.062-0.013-0.066-0.049-0.066-0.096
				c0-0.265-0.005-0.529,0.002-0.794c0.004-0.169,0.11-0.257,0.282-0.251c0.242,0.009,0.483,0.025,0.725,0.033
				c0.097,0.003,0.145,0.035,0.132,0.141c-0.008,0.067,0.004,0.135-0.003,0.202C10.503,13.46,10.519,13.548,10.693,13.543z
				 M9.969,13.497c0.043-0.064,0.172,0.09,0.188-0.093c0.015-0.174-0.102-0.134-0.194-0.141c-0.045-0.003-0.09,0.001-0.134-0.005
				c-0.077-0.01-0.091,0.027-0.095,0.096C9.719,13.555,9.877,13.447,9.969,13.497z"/>
			<path class="st62" d="M9.053,12.961c-0.069,0.237-0.198,0.32-0.411,0.303c-0.145-0.012-0.293,0.012-0.439,0.018
				c-0.062,0.003-0.09,0.03-0.086,0.096c0.004,0.07,0.05,0.063,0.095,0.061c0.185-0.01,0.371-0.02,0.559-0.03
				c-0.071,0.251-0.114,0.286-0.355,0.295c-0.056,0.002-0.113,0.003-0.169,0.008c-0.058,0.005-0.13-0.013-0.13,0.087
				c0,0.109,0.077,0.074,0.132,0.072c0.18-0.007,0.361-0.014,0.54-0.029c0.097-0.008,0.116,0.037,0.108,0.118
				c-0.007,0.073,0.028,0.155-0.106,0.16c-0.304,0.01-0.608,0.033-0.911,0.058c-0.091,0.007-0.118-0.019-0.117-0.109
				c0.004-0.305,0.002-0.609,0.001-0.914c0-0.058-0.004-0.115,0.079-0.12C8.241,13.011,8.639,12.986,9.053,12.961z"/>
			<path class="st62" d="M7.407,13.089c-0.063,0.192-0.147,0.33-0.365,0.317c-0.137-0.008-0.183,0.058-0.174,0.195
				c0.012,0.191,0,0.383,0.004,0.575c0.004,0.225-0.185,0.137-0.285,0.161c-0.113,0.027-0.059-0.094-0.062-0.145
				c-0.008-0.191-0.008-0.383-0.001-0.575c0.004-0.1-0.026-0.135-0.124-0.105c-0.032,0.01-0.068,0.026-0.098,0.019
				c-0.056-0.012-0.155,0.095-0.163-0.05c-0.005-0.095-0.036-0.195,0.126-0.22C6.641,13.204,7.014,13.125,7.407,13.089z"/>
			<path class="st60" d="M16.913,8.348c0.018-0.023,0.043-0.037,0.062-0.01c0.012,0.017-0.011,0.034-0.031,0.041
				C16.934,8.369,16.924,8.358,16.913,8.348z"/>
			<path class="st60" d="M12.477,16.014c0.315-0.018,0.601,0.046,0.887,0.079c0.304,0.035,0.303,0.044,0.303,0.358
				c0,0.378-0.003,0.756,0.002,1.134c0.001,0.096-0.021,0.129-0.123,0.11c-0.161-0.028-0.324-0.048-0.486-0.058
				c-0.105-0.007-0.145-0.038-0.142-0.151c0.008-0.333-0.002-0.666,0.006-0.998c0.002-0.107-0.024-0.18-0.117-0.237
				C12.699,16.183,12.6,16.103,12.477,16.014z"/>
			<path class="st60" d="M8.379,15.844c0.369,0,0.738,0.001,1.107-0.001c0.075,0,0.077,0.048,0.077,0.102
				c0,0.457-0.002,0.914,0.002,1.371c0.001,0.094-0.039,0.113-0.122,0.111c-0.163-0.004-0.328-0.01-0.491,0.003
				c-0.13,0.01-0.146-0.046-0.144-0.155c0.006-0.316-0.004-0.632,0.005-0.948c0.004-0.129-0.029-0.211-0.15-0.267
				c-0.103-0.048-0.196-0.119-0.294-0.179C8.373,15.869,8.376,15.857,8.379,15.844z"/>
			<path class="st61" d="M9.969,13.497c-0.091-0.049-0.249,0.058-0.235-0.143c0.005-0.069,0.018-0.106,0.095-0.096
				c0.044,0.006,0.09,0.002,0.134,0.005c0.092,0.007,0.209-0.033,0.194,0.141C10.141,13.587,10.011,13.433,9.969,13.497z"/>
		</g>
	</g>
	<g>
		<path class="st6" d="M24.904,9.722h-1.991V8.313h5.699v1.408h-2.024v6.007h-1.684V9.722z"/>
		<path class="st6" d="M29.843,13.572c0.056,0.693,0.737,1.023,1.519,1.023c0.572,0,1.034-0.077,1.485-0.22l0.22,1.133
			c-0.55,0.22-1.221,0.33-1.947,0.33c-1.826,0-2.871-1.057-2.871-2.739c0-1.365,0.847-2.872,2.717-2.872
			c1.738,0,2.398,1.354,2.398,2.685c0,0.286-0.033,0.539-0.055,0.66H29.843z M31.813,12.428c0-0.407-0.176-1.089-0.946-1.089
			c-0.704,0-0.99,0.638-1.034,1.089H31.813z"/>
		<path class="st6" d="M37.423,15.729l-0.099-0.539h-0.033c-0.353,0.429-0.902,0.66-1.54,0.66c-1.09,0-1.738-0.792-1.738-1.65
			c0-1.397,1.254-2.068,3.157-2.057v-0.077c0-0.286-0.154-0.693-0.979-0.693c-0.55,0-1.133,0.187-1.485,0.407l-0.308-1.078
			c0.374-0.209,1.111-0.473,2.09-0.473c1.794,0,2.366,1.056,2.366,2.321v1.871c0,0.517,0.021,1.012,0.076,1.309H37.423z
			 M37.225,13.188c-0.88-0.011-1.562,0.198-1.562,0.847c0,0.43,0.285,0.638,0.659,0.638c0.419,0,0.76-0.274,0.869-0.615
			c0.022-0.088,0.033-0.188,0.033-0.286V13.188z"/>
		<path class="st6" d="M40.172,12.065c0-0.671-0.021-1.243-0.044-1.716h1.408l0.077,0.726h0.033c0.23-0.341,0.704-0.847,1.628-0.847
			c0.693,0,1.243,0.352,1.475,0.913h0.021c0.198-0.275,0.44-0.495,0.693-0.649c0.297-0.176,0.627-0.264,1.023-0.264
			c1.034,0,1.815,0.726,1.815,2.333v3.168h-1.629v-2.926c0-0.781-0.253-1.232-0.792-1.232c-0.385,0-0.66,0.264-0.771,0.583
			c-0.044,0.121-0.065,0.297-0.065,0.429v3.146h-1.628v-3.015c0-0.682-0.242-1.144-0.771-1.144c-0.429,0-0.683,0.33-0.781,0.605
			c-0.055,0.132-0.065,0.286-0.065,0.418v3.135h-1.629V12.065z"/>
		<path class="st6" d="M56.32,12.593h-2.729v1.76h3.048v1.375h-4.73V8.313h4.576v1.375h-2.894v1.541h2.729V12.593z"/>
		<path class="st6" d="M57.728,12.065c0-0.671-0.021-1.243-0.044-1.716h1.408l0.077,0.726h0.033c0.23-0.341,0.704-0.847,1.628-0.847
			c0.693,0,1.243,0.352,1.475,0.913h0.021c0.198-0.275,0.44-0.495,0.693-0.649c0.297-0.176,0.627-0.264,1.023-0.264
			c1.034,0,1.814,0.726,1.814,2.333v3.168H64.23v-2.926c0-0.781-0.253-1.232-0.792-1.232c-0.385,0-0.66,0.264-0.771,0.583
			c-0.044,0.121-0.065,0.297-0.065,0.429v3.146h-1.628v-3.015c0-0.682-0.242-1.144-0.771-1.144c-0.429,0-0.682,0.33-0.781,0.605
			c-0.055,0.132-0.065,0.286-0.065,0.418v3.135h-1.629V12.065z"/>
		<path class="st6" d="M67.188,12.153c0-0.704-0.021-1.309-0.044-1.804h1.452l0.077,0.748h0.022
			c0.396-0.572,1.012-0.869,1.793-0.869c1.177,0,2.233,1.023,2.233,2.74c0,1.958-1.243,2.882-2.442,2.882
			c-0.649,0-1.155-0.264-1.397-0.616H68.86v2.674h-1.673V12.153z M68.86,13.418c0,0.133,0.011,0.254,0.032,0.353
			c0.11,0.451,0.495,0.792,0.979,0.792c0.727,0,1.155-0.605,1.155-1.519c0-0.858-0.385-1.507-1.133-1.507
			c-0.474,0-0.892,0.352-1.002,0.847c-0.021,0.088-0.032,0.198-0.032,0.297V13.418z"/>
		<path class="st6" d="M75.493,8.853c0,0.462-0.353,0.836-0.902,0.836c-0.528,0-0.88-0.374-0.869-0.836
			c-0.011-0.484,0.341-0.847,0.88-0.847S75.482,8.369,75.493,8.853z M73.766,15.729v-5.38h1.673v5.38H73.766z"/>
		<path class="st6" d="M76.779,12.12c0-0.792-0.021-1.309-0.044-1.771h1.441l0.055,0.99h0.044c0.275-0.781,0.936-1.111,1.452-1.111
			c0.154,0,0.231,0,0.353,0.022v1.573c-0.121-0.022-0.264-0.044-0.451-0.044c-0.616,0-1.034,0.33-1.145,0.847
			c-0.021,0.11-0.032,0.242-0.032,0.374v2.729h-1.673V12.12z"/>
		<path class="st6" d="M82.158,13.572c0.056,0.693,0.737,1.023,1.519,1.023c0.572,0,1.034-0.077,1.485-0.22l0.22,1.133
			c-0.55,0.22-1.221,0.33-1.947,0.33c-1.826,0-2.871-1.057-2.871-2.739c0-1.365,0.847-2.872,2.717-2.872
			c1.738,0,2.398,1.354,2.398,2.685c0,0.286-0.033,0.539-0.055,0.66H82.158z M84.128,12.428c0-0.407-0.176-1.089-0.946-1.089
			c-0.704,0-0.99,0.638-1.034,1.089H84.128z"/>
	</g>
</g>
</svg>
