<svg width="87" height="120" viewBox="0 0 87 120" fill="none" xmlns="http://www.w3.org/2000/svg">
<g clip-path="url(#clip0_1411_3093)">
<path opacity="0.945" fill-rule="evenodd" clip-rule="evenodd" d="M62.8913 42C63.2319 43.7288 63.2319 45.4829 62.8913 47.2623C59.9541 47.6329 57.045 48.1463 54.1636 48.8025C52.3077 49.7352 51.3235 51.2326 51.2116 53.2947C52.7289 51.6755 54.6113 50.9054 56.8589 50.9844C61.4823 51.3288 64.135 53.8102 64.8165 58.4286C65.5589 62.6186 64.4037 66.1695 61.3511 69.0815C58.2769 70.8981 55.0253 71.2403 51.5966 70.1083C48.8035 68.7688 47.0492 66.587 46.3343 63.5625C45.3653 58.7894 45.622 54.0832 47.1044 49.4442C48.1741 47.0056 49.9281 45.2515 52.3667 44.1819C55.8719 43.2852 59.3802 42.5579 62.8913 42ZM55.1904 55.6049C58.1021 56.0378 59.5568 57.7491 59.5542 60.7389C59.5352 62.6157 58.8509 64.1987 57.5006 65.4877C55.455 66.4632 53.7008 66.0781 52.2384 64.3326C50.7511 61.3402 51.1361 58.6449 53.3935 56.2467C54.0165 56.015 54.6154 55.8011 55.1904 55.6049Z" fill="black"/>
<path opacity="0.938" fill-rule="evenodd" clip-rule="evenodd" d="M0.256697 43.5396C2.4879 43.4546 4.71269 43.5401 6.93081 43.7963C8.62039 46.7482 10.3744 49.6574 12.1931 52.524C13.9312 49.5038 15.7707 46.5518 17.7121 43.668C19.771 43.4545 21.8246 43.4973 23.8728 43.7963C21.1346 48.2457 18.3967 52.6951 15.6585 57.1445C18.3967 61.5084 21.1346 65.8722 23.8728 70.2361C21.6531 70.5351 19.4283 70.578 17.1987 70.3644C15.4768 67.4766 13.7227 64.6101 11.9364 61.7651C10.1316 64.5547 8.37729 67.3783 6.67411 70.2361C4.45446 70.5351 2.22967 70.578 0 70.3644C2.80415 65.9537 5.54234 61.5043 8.21429 57.0162C5.46045 52.5774 2.808 48.0852 0.256697 43.5396Z" fill="black"/>
<path opacity="0.944" fill-rule="evenodd" clip-rule="evenodd" d="M33.3708 50.2132C35.7776 50.0973 38.0024 50.6535 40.045 51.8818C41.1983 52.8659 41.9255 54.1066 42.2269 55.6039C42.3552 60.5659 42.3981 65.5287 42.3552 70.4923C40.6438 70.4923 38.9327 70.4923 37.2213 70.4923C37.4521 68.852 37.1096 68.6379 36.1945 69.8505C33.232 71.4431 30.3226 71.3576 27.4668 69.5938C25.5834 67.7053 24.9417 65.4378 25.5416 62.7914C26.456 60.1664 28.2957 58.6691 31.0606 58.2992C33.0266 58.1709 34.9947 58.1281 36.9646 58.1708C37.2015 56.6019 36.6027 55.5323 35.1677 54.9621C33.6732 54.5763 32.4326 54.9614 31.4456 56.1173C31.3216 56.3606 31.279 56.6173 31.3173 56.8873C29.6059 56.8873 27.8947 56.8873 26.1833 56.8873C26.8508 52.7973 29.2465 50.5726 33.3708 50.2132ZM32.8575 62.278C34.2264 62.278 35.5956 62.278 36.9646 62.278C36.7752 65.7978 34.9783 67.0385 31.574 66.0001C30.3536 64.2034 30.7815 62.9626 32.8575 62.278Z" fill="black"/>
<path opacity="0.945" fill-rule="evenodd" clip-rule="evenodd" d="M78.0357 50.2148C83.5565 50.473 86.5085 53.3822 86.8918 58.9425C87.3317 62.6174 86.4333 65.9117 84.1964 68.8253C81.3905 71.1703 78.3101 71.5979 74.9554 70.1088C74.5472 69.8403 74.1622 69.5408 73.8002 69.2104C73.6719 72.1183 73.629 75.0277 73.6719 77.9381C71.875 77.9381 70.0781 77.9381 68.2812 77.9381C68.2812 68.8682 68.2812 59.7982 68.2812 50.7282C70.0781 50.7282 71.875 50.7282 73.6719 50.7282C73.63 51.3332 73.6726 51.9322 73.8002 52.5251C74.9551 51.2425 76.3669 50.4724 78.0357 50.2148ZM76.4955 55.3488C78.9953 54.9928 80.5783 56.0196 81.2444 58.4291C81.7106 60.473 81.4539 62.441 80.4743 64.3332C78.918 66.1078 77.164 66.3217 75.2121 64.9749C73.3264 62.2877 73.198 59.5068 74.827 56.6323C75.3314 56.106 75.8877 55.6781 76.4955 55.3488Z" fill="black"/>
</g>
<defs>
<clipPath id="clip0_1411_3093">
<rect width="87" height="120" fill="white"/>
</clipPath>
</defs>
</svg>
