<?xml version="1.0" encoding="utf-8"?>
<!-- Generator: Adobe Illustrator 25.2.0, SVG Export Plug-In . SVG Version: 6.00 Build 0)  -->
<svg version="1.1" id="Слой_1" xmlns="http://www.w3.org/2000/svg" xmlns:xlink="http://www.w3.org/1999/xlink" x="0px" y="0px"
	 viewBox="0 0 501.5 226.7" style="enable-background:new 0 0 501.5 226.7;" xml:space="preserve">
<style type="text/css">
	.st0{clip-path:url(#SVGID_2_);}
	.st1{fill:#FFFFFF;}
	.st2{fill:#E84444;}
</style>
<g>
	<g>
		<defs>
			<rect id="SVGID_1_" x="9.1" y="4.2" width="483.3" height="218.3"/>
		</defs>
		<clipPath id="SVGID_2_">
			<use xlink:href="#SVGID_1_"  style="overflow:visible;"/>
		</clipPath>
		<g class="st0">
			<path class="st1" d="M154.7,183.1c0.4,0,0.7,0.1,1,0.3c0.3,0.2,0.5,0.5,0.7,0.8c0.1,0.3,0.2,0.7,0.1,1.1
				c-0.1,0.4-0.3,0.7-0.5,0.9c-0.3,0.3-0.6,0.4-1,0.5c-0.4,0.1-0.7,0-1.1-0.1c-0.3-0.1-0.6-0.4-0.8-0.7c-0.2-0.3-0.3-0.7-0.3-1
				c0-0.2,0-0.5,0.1-0.7c0.1-0.2,0.2-0.4,0.4-0.6c0.2-0.2,0.4-0.3,0.6-0.4C154.2,183.2,154.5,183.1,154.7,183.1z M153.3,190.7h3
				v22.7h-2.9L153.3,190.7z"/>
			<path class="st1" d="M217,213.4h-2.9v-11.9c0-5.5-2.5-8.3-6.5-8.3c-4,0-6.5,2.9-6.5,8.3v11.9h-2.9v-11.9c0-5.5-2.5-8.3-6.5-8.3
				c-4,0-6.5,2.9-6.5,8.3v11.9h-2.8v-11.9c0-7.4,3.7-11.1,9.4-11.1c1.7-0.1,3.4,0.4,4.9,1.3c1.4,1,2.5,2.4,3,4.1
				c0.6-1.7,1.6-3.1,3.1-4.1c1.4-1,3.2-1.4,4.9-1.3c5.7,0,9.4,3.7,9.4,11.1V213.4z"/>
			<path class="st1" d="M265.6,202.1c0,3.1-1.2,6-3.4,8.2c-2.2,2.2-5.1,3.4-8.2,3.4c-1.7,0-3.5-0.4-5-1.3c-1.5-0.8-2.8-2.1-3.7-3.6
				v13.5h-2.9v-20.3c0-3.1,1.2-6.1,3.4-8.2c2.2-2.2,5.1-3.4,8.2-3.4c3.1,0,6,1.2,8.2,3.4C264.3,196.1,265.6,199,265.6,202.1z
				 M253.9,193.2c-2.4,0-4.6,0.9-6.3,2.6c-1.7,1.7-2.6,3.9-2.6,6.3c0,2.4,0.9,4.6,2.6,6.3c1.7,1.7,3.9,2.6,6.3,2.6
				c2.3,0,4.5-1,6.2-2.7c1.6-1.7,2.5-3.9,2.5-6.2c0-1.2-0.2-2.3-0.6-3.4c-0.4-1.1-1.1-2.1-1.9-2.9c-0.8-0.8-1.8-1.5-2.9-1.9
				C256.2,193.4,255.1,193.2,253.9,193.2L253.9,193.2z"/>
			<path class="st1" d="M313.4,201.8v0.4c0,0.3,0,0.5,0,0.8h-20c0.1,2.2,1,4.2,2.6,5.7c1.6,1.5,3.7,2.3,5.8,2.3
				c1.3,0,2.7-0.3,3.9-0.8c1.2-0.6,2.3-1.4,3.1-2.4h3.5c-1.1,1.8-2.6,3.4-4.4,4.4c-1.8,1.1-3.9,1.6-6,1.6c-3-0.1-5.8-1.4-7.9-3.6
				s-3.2-5.1-3.2-8.1c0-3,1.2-5.9,3.2-8.1c2.1-2.2,4.9-3.5,7.9-3.6c1.5,0,3,0.3,4.4,0.8c1.4,0.6,2.7,1.4,3.7,2.5
				c1.1,1.1,1.9,2.3,2.5,3.7C313.1,198.8,313.4,200.3,313.4,201.8z M310.2,200.6c-0.3-2-1.3-3.9-2.8-5.2c-1.5-1.4-3.5-2.2-5.5-2.2
				c-2.1,0-4.1,0.8-5.6,2.2c-1.5,1.3-2.6,3.2-2.9,5.2H310.2z"/>
			<path class="st1" d="M353.2,213.4l-7-9.4l-7.1,9.4h-3.4l8.8-11.7l-8.1-10.9h3.3l6.5,8.6l6.5-8.6h3.3l-8.1,10.9l8.7,11.7H353.2z"
				/>
			<path class="st2" d="M140.9,84.9c-6.7-0.7-13-3.2-18.3-7.4c-5-4.3-9.2-9.4-12.4-15.2c2.1,6.3,5.2,12.3,9.1,17.7
				c3,4,6.9,7.1,11.5,9.2c4.5,2.1,9.5,3,14.4,2.7c17.8-0.9,107-18.9,228.7-48.2C246.9,69.7,154.2,85.7,140.9,84.9z"/>
			<path class="st2" d="M482.4,72.3c5.7-12.2,9.1-25.4,10-38.9h-17.7l-2.7-0.8L445.3,26c-9.9-2.3-19.8-4.6-29.8-6.8
				c-19.9-4.4-39.9-8.2-60.1-11.2c-20.2-3.1-40.8-5.2-61.3-2.6c-10.2,1.5-20.2,4.4-29.6,8.6c-9.4,3.9-18.8,8.1-27.9,12.7
				s-18.1,9.5-26.8,14.7c-4.3,2.7-8.7,5-13.3,7.1c-4.6,1.9-9.4,3.3-14.4,4.2c-20,3.1-40.3,4-60.6,2.5c-5-0.3-10.1-1.1-15.2-1.2
				c-5.1,0-10.2,0-15.2,0.1c-10.3,0.3-20.5,1.9-30.4,4.7c-9.9,2.6-19.4,6.6-28.3,11.9c-8.7,5.3-16.6,11.9-23.3,19.6l0.3,0.3
				c6.8-7.6,14.8-14.1,23.6-19.2c8.8-5.1,18.2-9,28.1-11.5c9.8-2.6,19.9-4,30-4.2c5.1-0.1,10.2,0,15.2,0s10,0.9,15.2,1.3
				c10.2,0.8,20.4,1,30.6,0.9c10.2-0.2,20.4-1.1,30.4-2.8c5.1-0.9,10.1-2.3,14.9-4.2c4.7-2.1,9.3-4.5,13.7-7.2
				c8.7-5.1,17.7-9.9,26.8-14.4c9.1-4.5,18.4-8.5,27.8-12.3c9.2-4,18.9-6.7,28.9-8.1c10-1.1,20.1-1.3,30.1-0.5
				c10,0.6,20.1,2.2,30.1,3.7c20,3.3,39.9,7.3,59.8,11.6c12.7,2.7,25.3,5.6,37.9,8.6c-4.8,0.2-9.6,0.5-14.4,1
				c-9.5,1-23.8,3.8-57.5,16c-12.1,4.4-20.3,7.6-30.4,11.7c-5,2-10.5,4.2-17.4,6.9c-6,2.4-17.4,6.8-25.3,9.7
				c-19.3,7-30.3,10.9-45.2,12.9c-11.5,1.2-23.1,1.7-34.6,1.5c8.2,1.6,16.5,2.3,24.9,2.4c3.3,0,6.7-0.1,10-0.4
				c17-1.3,28.6-5.5,46.3-12.1c20.4-7.7,32.8-12.7,42.8-16.6c10-4,18.3-7.3,30.4-11.7c37.8-13.7,50.5-15.1,56.5-15.7
				c11.8-1.3,23.8-1.4,35.6-0.3h0.3h7.3l6.5-0.1c-0.6,12.3-3.4,24.3-8.2,35.6l-0.6,1.4h1.5l7-0.2c-0.2,4.6-0.9,9.2-2.2,13.6
				c-1.3,4.7-3.3,9.2-6,13.3c2.9-4,5.2-8.4,6.7-13.1c1.6-4.7,2.6-9.7,3-14.7v-0.8h-0.8L482.4,72.3z"/>
			<path class="st1" d="M9.5,173.8h51.3v-12H21.4v-20.1h6.7l25.8,0.1v-0.1v-0.2l0.1-11.7h-0.1v-0.1H21.4v-20h39.3v-12H9.5V173.8z"/>
			<path class="st1" d="M107.4,146.2c-0.2-0.2-0.3-0.3-0.4-0.5c0-0.2,0.2-0.3,0.3-0.5c7.8-9.2,15.6-18.3,23.4-27.5H115
				c-5.2,6.2-10.4,12.3-15.6,18.4c-0.1,0.2-0.2,0.3-0.3,0.3l-0.3-0.3c-5.2-6.1-10.3-12.2-15.5-18.4H67.5l23.4,27.7
				c0.4,0.3,0.4,0.3,0,0.7c-7.9,9.3-15.7,18.5-23.6,27.8H83c5.2-6.2,10.4-12.3,15.6-18.5l0.3-0.3c0,0,0.2,0,0.3,0.3
				c5.2,6.2,10.5,12.3,15.8,18.5h15.8c-0.4-0.5-0.9-1-1.2-1.4L107.4,146.2z"/>
			<path class="st1" d="M165.2,129.7c2.5,0,5,0.6,7.3,1.8c2.2,1.2,4.2,2.9,5.6,5h13.4c-1.8-4.9-4.9-9.2-8.9-12.5
				c-4-3.3-8.9-5.4-14-6.1c-1-0.1-2.1-0.1-3.2-0.2H165c-0.2,0.1-0.4,0.1-0.7,0c-6,0.2-11.7,2.3-16.4,6c-4.7,3.7-8.1,8.8-9.7,14.6
				c-0.6,2.3-1,4.6-0.9,7c-0.1,1-0.1,1.9,0,2.9c0.7,12.8,11.5,23.7,23.9,25.3c0.9,0.2,1.9,0.3,2.8,0.3h2.2
				c5.5-0.2,10.8-2.1,15.3-5.3c4.5-3.2,7.9-7.7,9.8-12.9c0.1-0.2,0.1-0.3,0.2-0.5h-13.4c-1.5,2.1-3.4,3.8-5.7,5
				c-2.3,1.2-4.8,1.8-7.4,1.8c-4.2,0-8.3-1.7-11.3-4.7s-4.7-7.1-4.7-11.3s1.7-8.3,4.7-11.3s7.1-4.7,11.3-4.7L165.2,129.7z"/>
			<path class="st1" d="M214.3,157.6V97.8h-12v59.8c0,4.3,1.7,8.4,4.8,11.4c3,3,7.1,4.7,11.4,4.7v-12c-0.6,0-1.1-0.1-1.6-0.3
				c-0.5-0.2-1-0.5-1.4-0.9c-0.4-0.4-0.7-0.8-0.9-1.4C214.4,158.7,214.3,158.1,214.3,157.6z"/>
			<path class="st1" d="M267.4,148.7c-0.1,3.4-1.5,6.7-3.9,9.2c-2.4,2.4-5.7,3.8-9.1,3.9c-3.5,0-6.8-1.4-9.2-3.8
				c-2.4-2.5-3.8-5.8-3.8-9.3v-31h-12v30.9c-0.2,3.4,0.3,6.8,1.5,10.1c1.2,3.2,3,6.2,5.3,8.7c2.3,2.5,5.2,4.5,8.3,5.8
				c3.1,1.4,6.5,2.1,9.9,2.1c3.4,0,6.8-0.7,9.9-2.1c3.1-1.4,6-3.3,8.3-5.8c2.3-2.5,4.1-5.4,5.3-8.7c1.2-3.2,1.7-6.6,1.5-10.1v-30.9
				h-12V148.7z"/>
			<path class="st1" d="M326.6,143.7c-3.9-1.9-8.1-3.2-12.4-3.7c-3.1-0.5-6.1-1.4-9-2.5c-1.6-0.9-1.6-1.4-1.6-2.2
				c0-3.4,5.7-5.3,8.3-5.3c0.5,0,1,0,1.5,0.1c7.1,0.8,7.2,5.6,7.2,6.5l11.9,0.4c0.2-4.4-1.3-8.8-4.2-12.1c-2-2.3-4.5-4.1-7.3-5.3
				c-2.8-1.2-5.8-1.8-8.9-1.7c-9.8,0-20.4,6.8-20.4,17.5c0,11.9,10.9,14.5,20.2,16.5c3.2,0.4,6.3,1.3,9.2,2.5
				c1.5,0.8,1.7,1.4,1.6,2.5c-0.1,1.1-0.6,2.1-1.4,2.8c-2,1.5-4.5,2.3-7,2.2c-3.3,0-6.6-0.9-9.5-2.6c-0.9-0.5-1.6-1.1-2-2
				c-0.5-0.9-0.7-1.8-0.6-2.8l-12-0.4c-0.1,3.2,0.6,6.4,2.2,9.2c4.3,7.4,13.5,10.7,21.7,10.7c9.8,0,20.4-6,20.4-16.9
				c0.1-2.8-0.6-5.5-2-7.9C331.2,146.8,329.1,144.9,326.6,143.7z"/>
			<path class="st1" d="M351.3,113c0.4,0,0.7,0,1.1-0.1c1.3-0.2,2.5-0.8,3.4-1.8c0.6-0.7,1.1-1.4,1.4-2.3c0.3-0.9,0.3-1.8,0.1-2.7
				c-0.2-1.4-0.9-2.6-2-3.5c-1-0.9-2.4-1.4-3.8-1.5c-0.4-0.1-0.7-0.1-1.1,0c-1.3,0.2-2.6,0.9-3.5,1.9c-0.8,0.9-1.3,2-1.5,3.3v1.2
				c0,0.2,0,0.4,0.1,0.5c0.2,1.4,0.9,2.7,1.9,3.6C348.5,112.5,349.9,113,351.3,113z"/>
			<path class="st1" d="M357.4,157.4v-39.4c0,0,0,0-0.2,0h-11.7v39.7c0.1,1.1,0.2,2.1,0.5,3.2c0.9,3.6,2.9,6.8,5.8,9.2
				c2.9,2.4,6.4,3.7,10.1,3.9h0.8v-12c-1.3,0-2.5-0.4-3.5-1.3C358.2,159.9,357.5,158.7,357.4,157.4z"/>
			<path class="st1" d="M411.9,124.1L399.5,147c0,0,0,0.2-0.3,0.3c-0.3,0.1-0.1-0.2-0.2-0.3c-0.9-1.7-1.8-3.4-2.7-5
				c-3.3-6-6.4-12-9.7-18l-3.3-6.3H369c2.3,4.3,4.6,8.5,6.7,12.7c6.6,12.1,13.2,24.3,19.6,36.5l3.6,6.5c0,0,0.1,0.2,0.2,0.3
				c0.1-0.1,0.2-0.3,0.2-0.4l30.4-55.6h-14.3C414.2,119.9,413.1,122,411.9,124.1z"/>
			<path class="st1" d="M491.9,142.4c-0.2-1.4-0.5-2.7-0.9-4c-1.6-5.8-5-10.9-9.7-14.6c-4.7-3.7-10.5-5.8-16.4-5.9
				c-0.2,0-0.4,0-0.7,0c-0.1,0-0.3,0-0.5,0c-6.2,0.1-12.2,2.4-17.1,6.3c-4.8,4-8.2,9.4-9.6,15.5c-0.2,1.3-0.4,2.5-0.5,3.7
				c0,0.5,0,1-0.1,1.5v1.6c0.1,0.5,0.1,0.9,0.1,1.4c0.4,6,2.8,11.7,6.7,16.2c3.9,4.6,9.1,7.7,15,9.1c1.3,0.2,2.6,0.4,3.8,0.5
				c0.5,0,1,0,1.6,0h1.4c5.3-0.2,10.5-1.8,15-4.8c4.4-3,7.9-7.2,10-12.2h-14c-1.5,1.6-3.4,2.8-5.4,3.7c-2,0.9-4.2,1.3-6.4,1.3
				c-3.1,0-6.2-1-8.8-2.8c-2.6-1.8-4.6-4.3-5.8-7.2h41.9c0.2-0.9,0.4-1.8,0.5-2.7c0-0.8,0.1-1.4,0.1-2.2v-2.6
				C492,143.6,491.9,143,491.9,142.4z M478.9,139.8h-29.1c-0.2,0-0.2,0-0.2-0.2c0.2-0.3,0.4-0.7,0.5-1.1c1-2,2.5-3.8,4.3-5.2
				c1.8-1.4,3.8-2.4,6-3c1.2-0.4,2.5-0.5,3.8-0.4c3.1,0,6.2,0.9,8.9,2.6c2.6,1.7,4.7,4.2,5.9,7.1C479,139.8,479,139.8,478.9,139.8
				L478.9,139.8z"/>
		</g>
	</g>
</g>
</svg>
