<svg width="271" height="32" viewBox="0 0 271 32" fill="none" xmlns="http://www.w3.org/2000/svg">
<g clip-path="url(#clip0)">
<path d="M28.4648 12.7431C29.4158 11.9993 30.197 11.0718 30.7588 10.0195C31.602 11.1326 32.2673 12.3626 32.7323 13.6682C33.2552 15.0469 32.2408 17.4651 29.9708 19.7278C30.001 17.3208 29.4869 14.9366 28.4648 12.7431Z" fill="#312D69"/>
<path d="M26.9355 13.7764C28.0576 15.8929 28.7832 18.186 29.0784 20.5487C27.1405 22.1926 24.8753 23.4332 22.4231 24.1937C22.5614 21.2939 22.4394 18.388 22.0586 15.5087C23.7729 15.2009 25.4216 14.6152 26.9355 13.7764Z" fill="#312D69"/>
<path d="M27.5246 11.1362C25.906 8.83027 23.5149 7.13857 20.757 6.3481C22.6329 5.65512 24.7048 5.64814 26.5857 6.32845C27.0023 6.56942 27.4054 6.83173 27.7934 7.11426C28.898 7.95901 28.771 9.54848 27.5246 11.1362Z" fill="#312D69"/>
<path d="M20.418 8.03516C22.7776 8.88195 24.7888 10.4512 26.1472 12.5054C24.8949 13.4834 23.4729 14.237 21.9479 14.7307C21.617 12.4639 21.1055 10.2254 20.418 8.03524" fill="#312D69"/>
<path d="M55.7482 28.9532H46.4492L58.7362 6.96484H70.1524L82.4708 28.9532H73.1717L71.2497 25.0474H57.6703L55.7482 28.9532ZM64.2943 11.6279L60.2238 19.8753H68.7109L64.6551 11.6279H64.2943Z" fill="#312D69"/>
<path d="M99.8255 20.9253V17.2231H115.132L115.027 19.2787C115.016 19.3364 115.011 19.3951 115.012 19.4537C115.01 19.5126 114.999 19.5709 114.981 19.627C114.731 21.0549 114.19 22.4204 113.391 23.6438C112.592 24.8671 111.549 25.924 110.325 26.7528C107.168 28.6817 103.477 29.6231 99.7501 29.4496C95.4444 29.6898 91.1636 28.6693 87.4631 26.5207C86.1007 25.6486 84.9909 24.4531 84.2392 23.0477C83.4874 21.6423 83.1187 20.0737 83.1679 18.4911V17.4428C83.1191 15.8489 83.4907 14.2693 84.2475 12.8538C85.0043 11.4383 86.1213 10.2337 87.4925 9.35432C91.2042 7.24983 95.4723 6.25166 99.7648 6.48424C103.279 6.33417 106.773 7.07203 109.905 8.62557C111.182 9.32633 112.296 10.274 113.18 11.4097C114.063 12.5454 114.697 13.8451 115.042 15.2281H107.952C107.317 13.7578 106.153 12.5614 104.677 11.8617C103.146 11.1432 101.465 10.7789 99.7647 10.7973C98.2167 10.7811 96.6774 11.0227 95.2137 11.5116C93.8876 11.9438 92.7086 12.7195 91.8041 13.7548C90.8935 14.8506 90.4146 16.225 90.4528 17.632V18.3017C90.4277 19.3243 90.6744 20.3359 91.169 21.2392C91.6636 22.1425 92.3895 22.9071 93.2769 23.4595C95.2235 24.6229 97.4795 25.206 99.7647 25.1365C101.765 25.1865 103.748 24.772 105.549 23.9274C106.895 23.3306 107.954 22.2562 108.508 20.9253L99.8255 20.9253Z" fill="#312D69"/>
<path d="M146.959 14.0033V14.2944C146.978 14.9573 146.853 15.6166 146.591 16.2294C146.33 16.8421 145.938 17.3944 145.442 17.8502C144.399 18.7689 143.15 19.4375 141.793 19.8022C142.481 20.0796 143.097 20.5025 143.595 21.0399C144.08 21.6283 144.465 22.2878 144.736 22.9938L145.878 25.7477C146.316 26.8982 146.928 27.9787 147.695 28.9534H141.312C140.682 28.1961 140.194 27.3379 139.869 26.4174L138.593 23.2563C138.293 22.4425 137.679 21.7735 136.881 21.39C135.807 20.9504 134.651 20.732 133.486 20.7489H125.45V28.9534H119.516V6.97919H136.203C138.978 6.83312 141.736 7.4815 144.135 8.8437C145.024 9.39476 145.751 10.1594 146.246 11.0634C146.741 11.9674 146.986 12.9801 146.959 14.0032L146.959 14.0033ZM140.891 14.1192V13.9585C140.917 13.5164 140.832 13.0749 140.644 12.6715C140.456 12.2681 140.17 11.9149 139.81 11.6421C138.675 10.9699 137.349 10.6641 136.023 10.7688H125.45V17.266H135.559C136.888 17.3209 138.21 17.0507 139.403 16.4802C139.854 16.2611 140.232 15.9236 140.495 15.5063C140.758 15.0889 140.895 14.6084 140.891 14.1192Z" fill="#312D69"/>
<path d="M150.398 18.4188V17.5294C150.381 16.0179 150.734 14.5239 151.429 13.1709C152.124 11.818 153.141 10.6447 154.395 9.74814C157.955 7.43755 162.195 6.31757 166.471 6.55847C170.746 6.32229 174.984 7.45348 178.533 9.7785C179.781 10.6732 180.792 11.8422 181.484 13.1895C182.176 14.5369 182.529 16.0242 182.513 17.5294V18.4188C182.531 19.9223 182.179 21.4082 181.487 22.7536C180.795 24.0989 179.782 25.2651 178.533 26.1555C174.978 28.4922 170.729 29.6293 166.441 29.3916C162.174 29.6325 157.944 28.5116 154.395 26.2001C153.141 25.3035 152.124 24.1302 151.429 22.7772C150.734 21.4242 150.381 19.9303 150.398 18.4187V18.4188ZM166.441 26.3161C169.334 26.4335 172.192 25.6691 174.614 24.1301C175.589 23.4834 176.384 22.6131 176.929 21.5965C177.474 20.5799 177.752 19.4484 177.738 18.3026V17.6474C177.751 16.4996 177.472 15.3663 176.927 14.3474C176.383 13.3284 175.588 12.4549 174.614 11.8038C172.187 10.2771 169.331 9.51828 166.441 9.63216C163.56 9.51245 160.713 10.272 158.3 11.8038C157.326 12.4549 156.531 13.3284 155.986 14.3474C155.441 15.3663 155.163 16.4996 155.176 17.6474V18.3171C155.162 19.463 155.439 20.5945 155.984 21.6111C156.529 22.6278 157.325 23.498 158.3 24.1446C160.713 25.6765 163.56 26.4359 166.441 26.3162" fill="#312D69"/>
<path d="M199.286 16.6664H187.691V6.81348H199.224V9.30663H191.657V10.4836H198.537V12.9714H191.657V14.1858H199.286V16.6664Z" fill="#312D69"/>
<path d="M200.198 6.81836H204.042L207.059 10.3384L210.08 6.81836H213.906L209.254 11.6779L214.322 16.666H210.506L207.05 13.0548L203.626 16.666H199.789L204.857 11.6707L200.198 6.81836Z" fill="#312D69"/>
<path d="M228.287 10.0586V10.2801C228.311 10.7886 228.207 11.2951 227.984 11.7559C227.761 12.2167 227.426 12.618 227.007 12.925C225.962 13.5869 224.726 13.9073 223.48 13.8394H218.761V16.6665H215.488V6.81892H223.331C224.598 6.75972 225.856 7.05677 226.954 7.67438C227.369 7.92656 227.71 8.27863 227.943 8.6964C228.177 9.11417 228.295 9.58342 228.287 10.0586ZM224.941 10.339V10.2015C224.941 9.34601 224.363 8.87631 222.983 8.87631H218.761V11.782H222.933C224.288 11.782 224.941 11.2266 224.941 10.339Z" fill="#312D69"/>
<path d="M229.08 11.9654V11.5279C229.063 10.832 229.224 10.1428 229.55 9.52257C229.876 8.90237 230.356 8.37073 230.947 7.97568C232.616 7.07747 234.493 6.60719 236.401 6.60938C238.309 6.61157 240.185 7.08614 241.852 7.98818C242.437 8.38473 242.913 8.91511 243.238 9.53246C243.562 10.1498 243.724 10.8351 243.711 11.5279V11.9637C243.725 12.655 243.563 13.339 243.238 13.9547C242.914 14.5704 242.437 15.0987 241.852 15.4927C240.184 16.3958 238.307 16.8716 236.397 16.875C234.488 16.8784 232.609 16.4094 230.938 15.5123C230.351 15.1157 229.874 14.5843 229.549 13.9654C229.225 13.3465 229.064 12.6594 229.08 11.9654ZM236.391 15.1587C237.543 15.1969 238.68 14.9009 239.657 14.3086C240.073 14.0477 240.413 13.6885 240.646 13.2649C240.879 12.8412 240.998 12.367 240.99 11.8869V11.5922C240.997 11.1112 240.878 10.6364 240.645 10.2117C240.412 9.78714 240.072 9.4265 239.657 9.16332C238.663 8.61555 237.539 8.32757 236.396 8.32757C235.252 8.32757 234.128 8.61555 233.134 9.16332C232.719 9.4264 232.379 9.78696 232.145 10.2116C231.912 10.6362 231.793 11.1111 231.8 11.5922V11.8922C231.791 12.373 231.909 12.8481 232.142 13.2723C232.376 13.6964 232.717 14.0556 233.134 14.3157C234.109 14.9061 235.243 15.1998 236.391 15.1587Z" fill="#312D69"/>
<path d="M251.466 12.8201H247.871V16.6652H245.777V6.82477H252.92C254.142 6.75535 255.357 7.03743 256.413 7.63558C256.793 7.87921 257.102 8.21268 257.312 8.60453C257.522 8.99637 257.626 9.43366 257.613 9.87513V9.98586C257.618 10.2901 257.557 10.5919 257.432 10.8712C257.308 11.1505 257.124 11.4009 256.892 11.6057C256.396 12.024 255.805 12.3215 255.167 12.4737C255.49 12.592 255.781 12.7794 256.019 13.0219C256.239 13.287 256.413 13.585 256.534 13.9042L257.122 15.3151C257.302 15.8057 257.569 16.2624 257.91 16.6652H255.647C255.375 16.3427 255.162 15.9764 255.019 15.5831L254.38 14.0079C254.299 13.7902 254.169 13.5923 254.001 13.4277C253.833 13.2631 253.63 13.1357 253.407 13.0542C252.78 12.8611 252.122 12.7818 251.466 12.8202V12.8201ZM255.472 9.92691V9.86262C255.488 9.63373 255.447 9.40445 255.35 9.1949C255.254 8.98534 255.106 8.80191 254.92 8.66069C254.306 8.29769 253.589 8.13322 252.873 8.19099H247.871V11.5521H252.596C253.313 11.5823 254.027 11.4439 254.677 11.1485C254.916 11.0398 255.118 10.867 255.259 10.6506C255.4 10.4341 255.474 10.1829 255.472 9.92691Z" fill="#312D69"/>
<path d="M270.999 8.1976H265.787V16.6665H263.687V8.1976H258.477V6.82422H270.999V8.1976Z" fill="#312D69"/>
<path d="M193.914 25.8192L193.936 25.812H192.134V29.45H187.691V18.5183H196.876C198.314 18.459 199.74 18.8005 200.984 19.5024C201.47 19.7874 201.871 20.1904 202.148 20.6717C202.425 21.1531 202.568 21.6961 202.563 22.2473V22.4599C202.582 23.0915 202.344 23.705 201.902 24.169C201.442 24.61 200.887 24.9462 200.277 25.153C200.931 25.4875 201.428 26.0534 201.665 26.7336L202.044 27.623C202.268 28.276 202.593 28.892 203.009 29.45H198.252C197.925 29.0282 197.67 28.5586 197.497 28.0587L197.042 26.8836C196.978 26.7095 196.879 26.5494 196.751 26.4127C196.622 26.2759 196.467 26.1653 196.295 26.0871C195.762 25.89 195.195 25.7966 194.625 25.812H194.069C194.017 25.818 193.966 25.8203 193.914 25.8192ZM198.02 22.3134V22.2188C198.029 22.0768 198.001 21.9348 197.937 21.8068C197.873 21.6787 197.776 21.569 197.655 21.4883C197.365 21.3312 197.035 21.2552 196.703 21.2686H192.134V23.3046H196.654C196.991 23.3128 197.324 23.2253 197.611 23.0528C197.738 22.9731 197.842 22.8635 197.913 22.7342C197.985 22.6049 198.021 22.4601 198.02 22.3134Z" fill="#B0D1B3"/>
<path d="M215.727 18.5244H219.365V24.1965C219.409 24.9401 219.279 25.6837 218.984 26.3714C218.689 27.0591 218.237 27.6729 217.662 28.1666C215.986 29.3085 213.954 29.849 211.912 29.6954C210.405 29.7484 208.903 29.5023 207.497 28.9721C206.513 28.5962 205.689 27.909 205.158 27.0219C204.678 26.1444 204.445 25.1604 204.48 24.1679V18.5244H208.116V24.1608C208.088 24.5848 208.15 25.0098 208.298 25.4096C208.446 25.8095 208.677 26.1758 208.976 26.4861C209.841 27.0765 210.874 27.3928 211.932 27.3915C212.99 27.3903 214.022 27.0715 214.886 26.4789C215.181 26.165 215.407 25.7963 215.552 25.3952C215.697 24.9941 215.756 24.5687 215.727 24.1447V18.5244Z" fill="#B0D1B3"/>
<path d="M234.539 26.232C234.539 28.4644 232.239 29.6949 227.821 29.6949C225.992 29.7959 224.17 29.4079 222.554 28.5733C222.047 28.3085 221.623 27.9178 221.324 27.4414C221.024 26.9651 220.861 26.42 220.851 25.8623H224.325C224.335 26.0966 224.409 26.3241 224.54 26.5212C224.671 26.7184 224.854 26.8781 225.07 26.9838C225.914 27.4054 226.859 27.5962 227.806 27.5357C228.615 27.5841 229.425 27.4578 230.177 27.166C230.361 27.1058 230.522 26.9938 230.64 26.8443C230.758 26.6947 230.827 26.5145 230.838 26.3266C230.83 26.1752 230.776 26.0295 230.684 25.9071C230.592 25.7847 230.465 25.691 230.319 25.6372C229.885 25.4503 229.422 25.3356 228.949 25.2979L224.73 24.7264C223.736 24.6444 222.789 24.2811 222.007 23.6816C221.493 23.2315 221.176 22.6074 221.122 21.9376C221.068 21.2679 221.28 20.6035 221.716 20.0812C222.269 19.4744 222.986 19.0306 223.787 18.8007C226.309 18.1184 228.973 18.103 231.503 18.7561C232.316 18.9816 233.046 19.4292 233.605 20.0455C234.044 20.5772 234.305 21.2266 234.353 21.9064H231.225C231.198 21.6738 231.107 21.4524 230.962 21.2653C230.817 21.0781 230.623 20.932 230.4 20.842C229.547 20.5217 228.633 20.3834 227.719 20.4366C226.932 20.3939 226.144 20.5201 225.413 20.8063C224.965 21.017 224.811 21.2903 224.811 21.5314C224.81 21.6861 224.859 21.8371 224.951 21.9631C225.044 22.0891 225.175 22.1836 225.326 22.2333C225.843 22.4249 226.385 22.5417 226.937 22.5797L230.514 23.0244C233.268 23.3709 234.539 24.3996 234.539 26.232Z" fill="#B0D1B3"/>
<path d="M248.954 26.2981C248.954 26.8287 248.796 27.3481 248.498 27.793C248.2 28.2378 247.775 28.589 247.275 28.8038C245.745 29.4661 244.076 29.7666 242.403 29.6807C240.626 29.7723 238.857 29.3946 237.283 28.5877C236.783 28.3339 236.363 27.9546 236.066 27.4893C235.768 27.0241 235.605 26.49 235.593 25.9427H238.425C238.436 26.2105 238.52 26.4707 238.668 26.697C238.816 26.9234 239.023 27.1079 239.268 27.2322C240.224 27.7325 241.306 27.9615 242.39 27.893C243.321 27.9378 244.25 27.7892 245.117 27.4572C245.349 27.3762 245.55 27.2302 245.696 27.0378C245.842 26.8454 245.925 26.6153 245.936 26.3767C245.932 26.1842 245.868 25.9973 245.754 25.8399C245.639 25.6825 245.479 25.5617 245.294 25.4927C244.752 25.2688 244.177 25.1319 243.591 25.0873L239.59 24.5586C237.178 24.248 235.893 23.262 235.893 21.6333C235.897 21.0546 236.108 20.4951 236.49 20.0509C237.035 19.4633 237.736 19.0326 238.517 18.8062C239.732 18.4349 241.002 18.2611 242.276 18.2918C243.975 18.1807 245.673 18.5268 247.183 19.2919C247.641 19.559 248.027 19.9285 248.308 20.3697C248.589 20.8108 248.758 21.3108 248.799 21.8279H246.236C246.2 21.5588 246.095 21.3027 245.931 21.0833C245.766 20.8638 245.547 20.6882 245.294 20.5724C244.347 20.1857 243.32 20.0176 242.295 20.0813C241.374 20.0267 240.454 20.191 239.614 20.5599C239.42 20.6399 239.251 20.7695 239.127 20.9349C239.002 21.1003 238.926 21.2954 238.907 21.4993C238.903 21.6859 238.957 21.8693 239.063 22.025C239.169 22.1808 239.321 22.3014 239.5 22.3709C240.077 22.6043 240.691 22.7413 241.315 22.7763L244.898 23.2049C245.976 23.2755 247.018 23.6118 247.925 24.1818C248.259 24.4278 248.528 24.7488 248.707 25.1174C248.886 25.4859 248.971 25.891 248.954 26.2981Z" fill="#B0D1B3"/>
<path d="M253.525 18.5312H251.203V29.4486H253.525V18.5312Z" fill="#B0D1B3"/>
<path d="M257.51 29.4496H255.075L261.535 18.5322H264.534L271.002 29.4496H268.568L266.955 26.5814H259.112L257.51 29.4496ZM262.886 19.8431L259.913 25.1455H266.154L263.183 19.8431H262.886Z" fill="#B0D1B3"/>
<path d="M4.57325 22.6094C3.4813 21.5971 2.03683 21.0202 0.526672 20.9932C0.699097 22.4489 1.42994 23.7884 2.57389 24.7454C3.66636 25.7581 5.11153 26.335 6.62231 26.3617C6.44872 24.9058 5.71732 23.5665 4.57325 22.6094Z" fill="#312D69"/>
<path d="M3.1952 15.866C2.73588 14.4699 1.75208 13.2924 0.439179 12.5674C-0.127368 13.9258 -0.146427 15.4412 0.385789 16.8125C0.845109 18.2087 1.82891 19.3861 3.14181 20.1111C3.70929 18.753 3.72836 17.2372 3.1952 15.866Z" fill="#312D69"/>
<path d="M5.56268 9.29784C5.48423 7.83401 4.8408 6.45242 3.76032 5.42773C2.85723 6.6024 2.44256 8.06356 2.59863 9.52108C2.67606 10.9848 3.31889 12.3666 4.39915 13.3913C5.30366 12.2172 5.71908 10.7557 5.56268 9.29784Z" fill="#312D69"/>
<path d="M10.5221 4.64163C11.1227 3.14904 11.1214 1.49169 10.5184 0C9.07389 0.776062 7.98348 2.05126 7.46418 3.57186C6.86354 5.06444 6.86485 6.7218 7.46786 8.21348C8.91285 7.43793 10.0034 6.16254 10.5221 4.64163Z" fill="#312D69"/>
<path d="M29.8894 21.9632C29.7882 23.1664 29.6173 24.363 29.3776 25.5476C29.3942 24.4206 29.3592 23.3652 29.2819 22.3758C27.1914 23.7475 24.84 24.7014 22.3651 25.1815C22.2805 26.4459 22.1381 27.7508 21.938 29.0962C21.9012 27.7961 21.8276 26.5263 21.7245 25.2922C18.9255 25.7111 16.0697 25.6031 13.3128 24.9743C16.1008 25.3281 18.9334 25.1393 21.6453 24.4189C21.3617 21.512 20.9049 18.6235 20.2774 15.7678C18.5108 15.9385 16.7305 15.9283 14.9661 15.7375C16.7114 15.7739 18.4549 15.6036 20.1577 15.2303C19.6251 12.4787 18.783 9.79207 17.6466 7.21858C17.6167 7.18201 17.5931 7.141 17.5766 7.09714C17.5085 7.04713 17.4956 6.97034 17.5711 6.85782C17.6098 6.76172 17.6724 6.67643 17.7534 6.60958C18.3532 5.94836 19.1067 5.43519 19.9516 5.11252C20.7964 4.78985 21.7083 4.66696 22.6118 4.754C19.7581 4.08568 16.7613 4.28915 14.0314 5.33655C11.3015 6.38395 8.97191 8.22411 7.36151 10.6052C5.75111 12.9863 4.93855 15.7919 5.03504 18.6382C5.13153 21.4845 6.13236 24.2323 7.90055 26.5056C9.66874 28.7789 12.1179 30.4666 14.9128 31.3378C17.7078 32.2089 20.712 32.2209 23.5142 31.3722C26.3165 30.5234 28.7799 28.8554 30.5674 26.5963C32.3548 24.3372 33.379 21.5975 33.4997 18.7521C32.4231 19.9494 31.2122 21.0264 29.8894 21.9632ZM11.5602 22.9669C10.9802 24.147 9.96434 25.0725 8.71393 25.5601C8.38137 24.2927 8.55361 22.9503 9.19628 21.8007C9.77617 20.6202 10.792 19.694 12.0425 19.2057C12.3741 20.4737 12.202 21.8164 11.5602 22.9669ZM6.55072 19.879C6.60237 18.6227 7.1393 17.4311 8.05484 16.5411C8.92258 15.6075 10.1207 15.0248 11.411 14.9088C11.3597 16.1651 10.822 17.3564 9.90507 18.2449C9.03817 19.1789 7.8407 19.7623 6.55072 19.879ZM11.0281 12.546C10.0289 13.4244 8.72578 13.9063 7.37734 13.8962C7.56816 12.6013 8.2527 11.423 9.29569 10.594C10.2946 9.71526 11.5981 9.23383 12.9464 9.24561C12.7576 10.5406 12.0726 11.719 11.0281 12.546Z" fill="#312D69"/>
</g>
<defs>
<clipPath id="clip0">
<rect width="271" height="32" fill="white"/>
</clipPath>
</defs>
</svg>
