<svg width="158" height="290" viewBox="0 0 158 290" fill="none" xmlns="http://www.w3.org/2000/svg">
<path d="M91.8798 288.648C88.178 282.057 85.2516 275.062 83.1593 267.802C80.6513 259.959 78.7069 251.948 77.3411 243.831C76.78 240.724 76.4301 237.584 76.2939 234.432C76.2956 229.468 76.5773 224.509 77.1378 219.579C78.1216 207.701 79.9334 195.892 80.2013 183.968C80.5423 161.219 76.7073 138.585 68.8866 117.188C61.4317 96.9119 51.2891 77.7193 38.731 60.1258C26.8414 43.2791 13.0517 27.2341 5.07251 7.97868C4.10594 5.60538 3.16165 3.18738 2.26211 0.769458C2.20535 0.561678 2.06844 0.384634 1.88153 0.277287C1.69462 0.169939 1.47302 0.141071 1.26546 0.197039C1.05789 0.253007 0.881378 0.389236 0.77475 0.575734C0.668123 0.762233 0.640108 0.983741 0.696875 1.19152C3.62357 10.9934 8.05692 20.2857 13.8376 28.7345C19.4475 37.5152 25.7724 45.8051 31.9185 54.2065C45.0235 71.5713 55.8916 90.5119 64.2652 110.579C72.9587 131.728 77.7984 154.249 78.5548 177.075C78.5149 188.935 77.7907 200.781 76.386 212.553C75.5531 221.5 74.3405 230.782 75.5659 239.8C76.6769 247.564 78.3821 255.234 80.6662 262.742C82.8078 270.359 85.6144 277.776 89.0537 284.906C89.7723 286.317 90.5356 287.706 91.2989 289.049C91.5008 289.363 92.0372 289.051 91.8128 288.737L91.8798 288.648Z" fill="#D0B5EF"/>
<path d="M17.9509 34.1331C19.8178 39.55 21.7741 44.8999 23.1492 50.4724C24.5266 56.1326 25.4944 61.8833 26.0451 67.6796C27.1036 79.1959 26.4852 90.7984 24.2094 102.124C22.9197 108.524 21.0832 114.8 18.7201 120.881C18.4084 121.664 19.6841 122.024 19.9957 121.242C28.413 99.3594 30.127 75.4441 24.9202 52.5337C23.5812 46.078 21.513 39.7928 18.7556 33.7991C18.7062 33.6963 18.6195 33.616 18.5132 33.5746C18.4069 33.5333 18.289 33.534 18.1835 33.5766C18.0781 33.6192 17.9929 33.7005 17.9456 33.8039C17.8982 33.9073 17.8921 34.025 17.9286 34.1331L17.9509 34.1331Z" fill="#D0B5EF"/>
<path d="M19.8176 120.461C25.0583 111.948 29.9849 102.942 31.8674 92.9912C33.5272 82.6456 32.6472 72.0421 29.3031 62.0929C27.7392 56.5158 25.5841 51.1196 22.8747 45.9964C22.8221 45.9324 22.7502 45.8871 22.6698 45.8675C22.5894 45.8479 22.505 45.855 22.4292 45.8877C22.3534 45.9205 22.2904 45.977 22.2498 46.0489C22.2092 46.1207 22.1931 46.2039 22.2041 46.2859C23.8686 51.054 26.0695 55.5993 27.6445 60.3896C29.2952 65.2576 30.4734 70.2716 31.1627 75.362C32.4875 85.556 31.0148 95.9077 26.9024 105.308C24.6751 110.426 22.0672 115.343 19.5712 120.304C19.5716 120.483 19.7284 120.618 19.8176 120.461V120.461Z" fill="#D0B5EF"/>
<path d="M19.9021 120.435C22.5317 112.091 23.7548 103.362 23.5214 94.6064C23.5122 89.7748 23.0333 84.9648 23.2255 80.1559C23.4177 75.3471 23.9904 70.6732 24.4064 65.9319C24.9886 60.5998 25.0683 55.2228 24.6443 49.8719C24.6429 49.1338 23.4127 49.1314 23.4812 49.8697C24.3712 59.199 22.7112 68.4563 22.1025 77.738C21.8431 82.4385 21.852 87.151 22.1293 91.8525C22.3396 96.4705 22.2363 101.096 21.8201 105.698C21.2951 110.614 20.4979 115.496 19.4321 120.322C19.4322 120.376 19.4535 120.427 19.4914 120.465C19.5292 120.503 19.5804 120.524 19.6338 120.524C19.6872 120.524 19.7384 120.503 19.776 120.465C19.8137 120.428 19.8348 120.376 19.8347 120.323L19.9021 120.435Z" fill="#D0B5EF"/>
<path d="M19.4785 121.082C20.3079 118.018 20.5597 114.825 20.2211 111.666C20.2126 107.192 19.8686 102.718 19.6584 98.0648C19.4483 93.4117 19.2605 88.7588 19.3859 84.1064C19.6109 79.095 20.2978 74.1169 21.4379 69.2353C22.1695 65.7919 22.9458 62.3263 23.4984 58.8379C23.7414 57.2278 23.962 55.6177 24.0931 53.9851C24.3806 52.2155 24.3772 50.4097 24.083 48.639C24.0828 48.5559 24.0497 48.4762 23.9908 48.4174C23.932 48.3585 23.8523 48.3254 23.7692 48.3252C23.6862 48.3251 23.6066 48.3579 23.548 48.4165C23.4893 48.4752 23.4565 48.5547 23.4567 48.6378C23.2653 50.0611 23.1634 51.4953 23.1517 52.932C23.0582 54.6404 22.8748 56.3424 22.6021 58.0309C22.1162 61.2734 21.4289 64.4708 20.7415 67.6682C19.6038 72.5027 18.865 77.424 18.5327 82.3824C18.125 91.5079 18.9476 100.658 19.3004 109.785C19.4418 113.543 19.3147 117.301 19.3217 120.969C19.3217 121.005 19.3359 121.039 19.3611 121.064C19.3864 121.09 19.4205 121.104 19.4561 121.104C19.4917 121.104 19.5258 121.09 19.5509 121.065C19.5761 121.04 19.5902 121.005 19.5901 120.97L19.4785 121.082Z" fill="#D0B5EF"/>
<path d="M26.3445 55.9558C27.3611 57.6398 28.1187 59.4663 28.592 61.3739C29.2843 63.2445 30.0795 65.0758 30.9738 66.8593C33.0784 70.6143 34.9318 74.504 36.5217 78.5028C37.845 82.9346 38.6054 87.5134 38.7849 92.131C39.152 96.919 39.4893 101.722 39.7968 106.54C40.4856 112.021 40.5488 117.56 39.9851 123.05L41.1039 123.209C41.0187 121.451 40.4922 119.742 39.5732 118.239C38.45 115.799 37.528 113.291 36.6283 110.784C34.22 104.813 32.7005 98.5239 32.1184 92.1182C32.117 91.4023 30.9537 91.4001 30.9999 92.116C31.554 98.2571 32.9974 104.288 35.2846 110.021C36.1618 112.483 36.9943 114.991 38.0727 117.364C39.2011 119.105 39.8813 121.097 40.0524 123.162C40.0536 123.788 41.0606 123.947 41.1712 123.321C41.7626 118.488 41.7983 113.602 41.2775 108.757C41.0217 103.679 40.6316 98.5773 40.2416 93.4984C40.0806 88.7375 39.4192 84.0048 38.2683 79.3786C36.8597 75.2409 35.0461 71.2509 32.8541 67.4669C31.6387 65.2476 30.5875 62.9426 29.709 60.5707C29.3718 58.5978 28.3839 56.7923 26.9028 55.4424C26.5892 55.218 26.1426 55.6422 26.3669 55.9559L26.3445 55.9558Z" fill="#D0B5EF"/>
<path d="M121.797 70.8989C108.195 62.5014 92.6754 58.3306 77.2682 54.2942C62.5328 50.4159 47.6407 46.5373 33.996 39.5498C26.4509 35.8029 19.5678 30.8443 13.6216 24.8721C12.7694 23.9975 11.3842 25.3378 12.3036 26.2125C34.3499 48.9066 67.4377 51.9922 96.1272 60.7993C104.959 63.3996 113.514 66.8727 121.664 71.1672C121.697 71.1731 121.731 71.1681 121.761 71.153C121.791 71.1379 121.816 71.1134 121.831 71.0833C121.846 71.0531 121.851 71.0189 121.845 70.9857C121.839 70.9524 121.822 70.922 121.797 70.8989V70.8989Z" fill="#D0B5EF"/>
<path d="M121.803 70.8928C111.298 67.4254 100.083 67.0457 89.4224 64.1152C78.9002 61.238 68.6873 57.3191 58.9355 52.4168C53.4463 49.7425 48.0686 46.867 42.7355 43.8797C42.6014 43.8268 42.453 43.8235 42.3171 43.8703C42.1811 43.9171 42.0665 44.0109 41.9939 44.1349C41.9213 44.2589 41.8954 44.4049 41.9209 44.5467C41.9464 44.6885 42.0217 44.8167 42.1331 44.9082C51.5454 50.2773 61.2721 55.0726 71.2598 59.2677C81.3869 63.436 91.9741 66.3723 102.793 68.0134C109.13 68.9881 115.466 69.8285 121.758 71.1165C121.782 71.1061 121.803 71.089 121.817 71.0671C121.831 71.0453 121.839 71.0197 121.839 70.9936C121.839 70.9674 121.831 70.9419 121.817 70.92C121.802 70.8981 121.782 70.8808 121.758 70.8703L121.803 70.8928Z" fill="#D0B5EF"/>
<path d="M122.568 71.3195C119.295 67.541 115.378 64.3728 111 61.9631C106.692 59.393 102.154 57.2334 97.4449 55.5128C86.7443 51.8424 75.6346 49.5127 64.3706 48.5772C57.8774 48.1227 51.4503 46.962 45.2034 45.1155C44.4418 44.8678 44.1084 46.0759 44.87 46.346C50.0381 47.9389 55.361 48.9698 60.7461 49.4208C66.4551 50.0361 72.1417 50.5843 77.7846 51.692C88.5624 53.3297 98.9867 56.8021 108.605 61.9585C113.415 64.8798 118.021 68.1271 122.389 71.6773C122.546 71.6776 122.68 71.6779 122.568 71.4314L122.568 71.3195Z" fill="#D0B5EF"/>
<path d="M121.803 71.163C115.915 70.5921 109.961 70.5582 104.073 70.0545C98.1561 69.5976 92.2759 68.7337 86.4745 67.4688C80.6938 66.208 75.0676 64.313 69.6982 61.8181C64.2937 59.1433 59.0554 56.1432 54.0123 52.8344L35.859 41.1822C35.1866 40.7556 34.562 41.8288 35.2343 42.2554L51.8858 52.8303C57.0206 56.238 62.3316 59.3714 67.7964 62.2174C78.4656 67.1378 89.946 70.0438 101.657 70.7885C108.349 71.5048 115.079 71.7794 121.804 71.6107C121.863 71.6108 121.92 71.5874 121.962 71.5455C122.004 71.5036 122.028 71.4467 122.027 71.3873C122.027 71.3279 122.004 71.271 121.962 71.2289C121.92 71.1869 121.863 71.1632 121.803 71.163V71.163Z" fill="#D0B5EF"/>
<path d="M36.6926 42.2989C44.1207 50.3995 51.1283 58.8756 57.6875 67.6936C60.7388 71.7593 64.0424 75.6298 67.5787 79.282C71.2558 82.9591 75.3571 86.1671 79.2798 89.5537C83.7581 93.4175 87.8921 97.6636 91.6346 102.243C92.0833 102.804 93.0441 102.09 92.6178 101.485C91.3198 99.2229 90.379 96.7754 89.8288 94.2288C89.1338 92.0121 88.2769 89.8489 87.2652 87.7567C85.1211 83.4256 82.4363 79.3824 79.2753 75.7243C72.1982 68.0085 64.2722 61.1166 55.6492 55.1805C50.4501 51.3215 45.251 47.4848 40.409 43.2013C39.6917 42.5733 38.6644 43.6007 39.3817 44.2286C54.9386 57.9763 75.2321 67.9291 85.3165 86.8354C86.6531 89.3174 87.7521 91.9195 88.5988 94.6068C89.2016 97.2566 90.2025 99.8012 91.5673 102.154L92.5728 101.373C89.2536 97.3239 85.6331 93.5316 81.7423 90.0284C77.8866 86.5748 73.7627 83.2997 69.9742 79.8461C62.2173 72.5807 56.2025 63.5285 49.5401 55.191C45.9891 50.2731 41.905 45.7621 37.3628 41.7408C37.0042 41.4492 36.5352 41.8958 36.8491 42.2321L36.6926 42.2989Z" fill="#D0B5EF"/>
<path d="M48.3613 77.273C51.5962 83.5679 57.6478 88.3016 63.3622 92.2738C69.8609 96.7623 76.8063 100.782 83.5279 104.801C90.2495 108.82 97.5083 112.884 104.32 117.217C111.225 121.378 117.737 126.163 123.773 131.51C130.499 137.633 134.654 145.406 138.877 153.247L140.173 152.489C133.686 142.294 123.624 135.538 113.564 129.23C102.083 122.29 91.0363 114.653 80.4874 106.361C74.7033 101.634 69.1941 96.5796 63.9868 91.2232C63.3589 90.573 62.3985 91.5335 63.004 92.206C72.0692 101.81 82.1914 110.359 93.1761 117.687C98.5096 121.413 103.955 124.959 109.444 128.416C114.934 131.873 119.841 134.792 124.726 138.405C130.401 142.341 135.216 147.392 138.877 153.247C138.991 153.389 139.153 153.485 139.332 153.518C139.511 153.551 139.696 153.518 139.853 153.427C140.01 153.335 140.128 153.19 140.187 153.018C140.246 152.846 140.241 152.658 140.173 152.489C136.841 145.48 132.575 138.952 127.491 133.084C121.893 127.513 115.673 122.605 108.955 118.457C95.5099 109.479 81.1283 102.2 67.5719 93.4905C64.0098 91.2721 60.6029 88.813 57.375 86.1303C54.2264 83.3484 51.3366 80.2866 48.7412 76.9828C48.5617 76.7363 48.2265 76.9818 48.3613 77.273Z" fill="#D0B5EF"/>
<path d="M139.686 153.422C139.79 149.962 139.198 146.513 137.943 143.281C136.879 139.977 135.47 136.794 133.739 133.784C130.397 127.983 125.937 122.9 120.618 118.832C109.995 110.665 96.9172 106.634 84.7108 101.664C77.7768 99.0441 71.1324 95.7085 64.8857 91.7115C64.191 91.2402 63.5666 92.3579 64.2388 92.8068C85.5945 107.283 115.742 108.774 130.983 131.764C133.154 135.068 134.94 138.608 136.307 142.315C137.657 145.944 138.157 149.794 139.417 153.511C139.417 153.547 139.432 153.581 139.457 153.606C139.482 153.631 139.516 153.646 139.552 153.646C139.587 153.646 139.622 153.632 139.647 153.607C139.672 153.581 139.686 153.547 139.686 153.512L139.686 153.422Z" fill="#D0B5EF"/>
<path d="M139.421 153.646C138.616 151.465 137.012 149.669 134.935 148.624C132.269 146.94 129.491 145.368 126.713 143.864C121.112 140.764 115.377 137.889 109.91 134.543C99.5125 127.957 90.0492 119.996 81.7777 110.879C77.1131 105.879 72.6271 100.656 68.141 95.388C67.6475 94.8052 66.821 95.6317 67.3145 96.2145C74.8851 105.563 83.1301 114.346 91.9829 122.491C96.3126 126.394 100.92 129.979 105.767 133.215C111.011 136.694 116.589 139.659 122.122 142.601C125.259 144.286 128.395 145.948 131.465 147.722C134.175 149.294 137.535 150.889 138.929 153.868C139.064 154.16 139.533 153.87 139.443 153.646L139.421 153.646Z" fill="#D0B5EF"/>
<path d="M95.7807 125.158C99.4669 131.229 101.358 138.215 101.234 145.305C101.112 151.748 99.8044 158.077 99.0336 164.452L99.8167 164.454C98.961 158.994 97.6636 153.612 95.9374 148.36C94.205 143.389 92.1596 138.53 90.1366 133.671C86.6183 124.484 82.5592 115.511 77.9806 106.799C77.8942 106.654 77.7538 106.548 77.59 106.506C77.4263 106.464 77.2528 106.488 77.1076 106.574C76.9623 106.66 76.8574 106.8 76.8157 106.963C76.7741 107.127 76.7992 107.3 76.8855 107.446C81.4956 116.158 85.5919 125.131 89.1534 134.318C91.2885 139.267 93.3564 144.193 95.0886 149.096C96.8098 154.156 98.1583 159.333 99.1234 164.587C99.1243 165.056 99.8847 164.901 99.9065 164.588C100.542 157.877 102.118 151.325 102.217 144.59C102.368 137.603 100.164 130.758 95.9597 125.158L95.8031 125.158L95.7807 125.158Z" fill="#D0B5EF"/>
<path d="M2.84123 193.735C14.2996 183.016 27.6195 174.517 38.5847 163.305C47.7385 154.388 55.0533 143.76 60.1173 132.02C62.9994 124.868 64.8386 117.336 65.5785 109.654C65.5769 108.803 64.3462 108.823 64.2583 109.651C62.6352 122.849 57.9219 135.466 50.5011 146.479C42.599 157.66 33.0879 167.609 22.2744 176.006C15.2758 181.372 8.56476 187.103 2.16884 193.174C1.81151 193.531 2.37197 194.07 2.72934 193.735L2.84123 193.735Z" fill="#D0B5EF"/>
<path d="M4.02106 192.416C14.3311 188.075 23.9765 182.309 32.676 175.286C40.6953 168.41 47.2395 159.982 51.9173 150.506C54.9488 144.381 57.5098 138.03 60.2054 131.77C60.5173 131.099 59.5092 130.493 59.2196 131.186C54.7642 141.516 50.6226 152.16 43.9271 161.321C37.4648 169.977 29.3774 177.287 20.1144 182.847C14.7948 186.104 9.22839 188.98 3.81897 192.057C3.57308 192.191 3.81988 192.527 4.02106 192.416Z" fill="#D0B5EF"/>
<path d="M2.65797 193.509C8.41432 184.681 16.2105 177.602 24.164 170.904C32.4423 163.967 40.2685 156.507 47.595 148.572C49.5303 146.427 51.4058 144.238 53.2215 142.004C55.2666 139.662 57.1889 137.216 58.9807 134.675C59.3601 134.116 58.486 133.421 58.0394 133.935C56.1638 136.034 54.5795 138.403 52.816 140.638C51.0525 142.872 49.579 144.659 47.8821 146.603C44.0642 151.071 39.9545 155.114 35.7777 159.156C32.0475 162.751 28.3173 166.28 24.4301 169.674C20.543 173.068 16.8794 176.372 13.2608 179.789C9.07647 183.861 5.41705 188.439 2.36689 193.419C2.36689 193.419 2.36732 193.642 2.56829 193.419L2.65797 193.509Z" fill="#D0B5EF"/>
<path d="M2.83398 193.619C5.04367 188.864 7.87161 184.422 11.2448 180.41C13.991 177.171 17.0285 174.156 19.9316 171.051C23.7832 166.792 27.8615 162.744 32.1488 158.923C36.1701 155.463 40.5951 152.495 44.6389 149.057C46.8728 147.069 49.2409 145.015 51.497 142.938C53.633 141.102 55.5987 139.076 57.3706 136.885C57.5268 136.662 57.1905 136.326 56.9671 136.504C55.0587 137.989 53.2457 139.593 51.5386 141.305C49.4836 143.225 47.4285 145.168 45.3286 147.022C41.2405 150.639 36.7933 153.718 32.6379 157.291C28.3204 161.07 24.2262 165.097 20.3759 169.351C17.4058 172.545 14.3013 175.65 11.4434 178.956C7.69571 183.234 4.60555 188.047 2.27379 193.238C2.11789 193.618 2.65561 193.955 2.8339 193.574L2.83398 193.619Z" fill="#D0B5EF"/>
<path d="M56.9947 136.932C55.2014 146.751 53.9006 156.66 50.0704 166.005C48.1106 170.722 45.7702 175.281 43.385 179.841C40.9999 184.401 38.9273 188.648 36.3401 192.849C33.3873 197.64 30.0912 202.209 26.4774 206.522L26.9704 206.926C28.6412 203.193 30.4911 199.527 32.1171 195.749C33.6993 192.076 34.9207 188.257 35.7643 184.346C36.348 180.687 37.3469 177.108 38.7418 173.679C40.3907 170.192 42.3533 166.974 43.9125 163.353C44.2021 162.727 43.2613 162.165 42.9717 162.791C41.4346 166.256 39.5168 169.497 37.8901 172.917C36.4809 176.146 35.4876 179.542 34.9339 183.024C34.2113 187.005 33.1101 190.906 31.6452 194.674C30.0197 198.698 28.2822 202.678 26.5 206.612C26.3663 206.925 26.7474 207.306 26.9929 207.016C33.3676 199.356 38.8669 191.007 43.3894 182.123C48.1154 173.183 52.7066 163.996 54.7903 153.954C55.9598 148.36 56.7857 142.698 57.2633 137C57.2629 136.798 56.9496 136.731 56.9054 136.999L56.9947 136.932Z" fill="#D0B5EF"/>
<path d="M144.776 229.302C142.456 222.166 139.16 215.382 134.981 209.143C131.155 203.73 126.822 198.694 122.04 194.103C112.533 184.641 101.865 176.341 92.4039 166.924C89.6238 164.189 86.933 161.342 84.3763 158.405C81.8196 155.469 79.6202 152.175 77.041 149.217C76.5028 148.611 75.5868 149.393 75.9462 150.065C77.6156 153.038 79.618 155.812 81.9146 158.334C84.1574 160.911 86.4 163.422 88.6424 165.821C93.4182 170.663 98.5066 175.193 103.617 179.656C113.458 188.246 123.79 196.613 131.776 207.034C137.042 213.803 141.287 221.305 144.373 229.301C144.374 229.547 144.866 229.459 144.776 229.19L144.776 229.302Z" fill="#D0B5EF"/>
<path d="M145.229 229.297C144.277 224.229 142.767 219.28 140.724 214.541C139.01 210.272 136.745 206.243 133.988 202.557C128.242 195.381 121.439 189.12 113.812 183.989C109.106 180.579 104.244 177.258 99.5385 173.937C98.7542 173.376 98.0183 174.65 98.7802 175.211C113.973 186.026 130.998 195.704 138.932 213.33C141.242 218.56 143.101 223.976 144.491 229.519C144.603 229.944 145.207 229.744 145.139 229.319L145.229 229.297Z" fill="#D0B5EF"/>
<path d="M145.205 229.496C142.154 225.731 138.478 222.412 135.159 218.937C131.9 215.541 128.845 211.956 126.008 208.2C120.422 200.783 114.925 193.276 109.204 185.97C106.002 181.822 102.588 177.842 98.9773 174.045C98.3719 173.44 97.4563 174.378 98.0392 174.983C104.423 181.813 110.371 189.037 115.849 196.612C121.184 204.192 126.943 211.465 133.099 218.396C136.803 222.427 140.725 226.252 144.847 229.853C144.895 229.901 144.959 229.928 145.026 229.928C145.094 229.928 145.158 229.901 145.205 229.854C145.253 229.807 145.279 229.742 145.279 229.675C145.279 229.608 145.252 229.543 145.205 229.496V229.496Z" fill="#D0B5EF"/>
<path d="M145.004 229.296C141.194 226.335 137.161 223.686 133.395 220.68C129.614 217.676 126.069 214.385 122.792 210.836C119.501 207.284 116.577 203.41 114.064 199.273C111.213 194.545 108.832 189.618 105.78 185.025C102.525 179.969 98.9106 175.154 94.9656 170.615C94.4947 170.122 93.6009 170.791 94.0049 171.374C97.124 175.855 100.735 180.069 103.944 184.596C107.153 189.122 109.579 194.028 112.363 198.799C117.365 207.082 123.797 214.414 131.359 220.453C135.488 223.981 139.997 227.037 144.803 229.564C144.959 229.564 145.161 229.408 145.004 229.296V229.296Z" fill="#D0B5EF"/>
<path d="M90.9483 165.757C92.7963 167.372 94.7427 168.871 96.7764 170.244C98.7848 171.477 100.918 172.494 103.139 173.278C107.798 175.033 112.679 176.005 117.449 177.335C126.643 179.741 135.468 183.396 143.679 188.196C148.251 190.944 152.474 194.236 156.255 198.001L156.991 197.04C148.476 191.719 138.268 191.073 128.751 188.324C118.71 185.206 109.236 180.478 100.701 174.325C100.051 173.877 99.4489 174.927 100.076 175.376C108.461 181.403 117.738 186.074 127.566 189.217C137.174 192.145 147.717 192.658 156.389 198.113C156.452 198.162 156.525 198.198 156.602 198.219C156.679 198.239 156.759 198.245 156.838 198.235C156.917 198.224 156.993 198.199 157.062 198.159C157.131 198.119 157.191 198.066 157.239 198.003C157.288 197.94 157.323 197.868 157.344 197.791C157.364 197.714 157.369 197.634 157.359 197.555C157.337 197.395 157.254 197.251 157.126 197.152C150.473 190.732 142.662 185.635 134.11 182.134C129.918 180.379 125.625 178.876 121.254 177.633C116.574 176.236 111.782 175.22 107.101 173.845C104.368 173.094 101.73 172.03 99.2392 170.674C96.5396 169.064 93.9625 167.256 91.5293 165.265C91.1258 164.951 90.5226 165.51 90.9485 165.846L90.9483 165.757Z" fill="#D0B5EF"/>
<path d="M19.9852 251.919C23.6018 246.972 27.6112 242.325 31.9749 238.024C36.2632 233.825 40.9104 230.097 45.5574 226.257C54.4428 218.829 62.2905 210.242 68.8922 200.725C72.8995 195.074 76.5501 189.177 79.8228 183.068C79.8712 182.949 79.8749 182.816 79.8331 182.693C79.7913 182.571 79.7069 182.468 79.5953 182.402C79.4838 182.337 79.3525 182.314 79.2256 182.337C79.0986 182.36 78.9846 182.429 78.9043 182.53C72.9529 192.996 66.0748 202.906 58.3523 212.14C50.448 221.075 41.0638 228.442 32.5094 236.705C27.7687 241.28 23.505 246.325 19.7835 251.762C19.7835 251.762 19.7839 251.986 19.9849 251.763L19.9852 251.919Z" fill="#D0B5EF"/>
<path d="M20.2289 252.385C23.0651 249.414 25.7445 246.331 28.8721 243.607C31.9997 240.883 35.2844 238.383 38.5465 235.794C45.2072 230.833 51.211 225.047 56.4154 218.575C59.3836 214.711 61.9899 210.581 64.2013 206.238C64.558 205.567 63.5499 204.961 63.1931 205.632C59.2581 213.363 54.0782 220.391 47.8599 226.436C41.9857 232.153 35.1468 236.682 28.9138 242.063C25.2919 244.823 22.1724 248.185 19.6911 252.004C19.6595 252.081 19.6543 252.166 19.6761 252.247C19.698 252.327 19.7457 252.399 19.8119 252.45C19.8782 252.501 19.9593 252.529 20.0427 252.529C20.1262 252.53 20.2074 252.503 20.2738 252.452L20.2289 252.385Z" fill="#D0B5EF"/>
<path d="M20.626 250.976C23.8172 246.394 26.9858 241.768 30.2891 237.277C33.3408 232.834 36.9503 228.803 41.0296 225.281C45.0958 221.932 49.6108 219.166 53.6996 215.862C55.7105 214.255 57.6541 212.58 59.5304 210.838C61.6076 209.049 63.5417 207.1 65.315 205.009C65.4174 204.888 65.4701 204.733 65.4622 204.574C65.4544 204.416 65.3868 204.266 65.273 204.155C65.1591 204.044 65.0076 203.98 64.8489 203.976C64.6903 203.972 64.5364 204.029 64.4182 204.134C62.3629 205.921 60.5319 207.976 58.5215 209.829C56.5111 211.683 54.411 213.446 52.266 215.143C48.1995 218.38 43.7296 221.325 39.7527 224.607C35.8867 228.009 32.4793 231.898 29.6156 236.179C26.2904 240.872 23.122 245.655 20.2449 250.639C20.1112 250.885 20.4695 251.065 20.6258 250.864L20.626 250.976Z" fill="#D0B5EF"/>
<path d="M20.496 251.829C28.0473 245.421 38.0006 242.912 45.8659 236.885C53.0555 231.032 58.702 223.507 62.3157 214.964C64.5441 210.09 65.8314 204.633 68.8437 200.141C69.1114 199.716 68.5063 199.267 68.1489 199.602C64.8658 202.908 63.8913 208.12 62.1091 212.279C60.2786 216.59 58.0385 220.715 55.4197 224.596C52.802 228.519 49.6537 232.06 46.0638 235.118C42.1992 238.187 37.9918 240.8 33.525 242.903C28.6387 245.127 24.1182 248.076 20.1153 251.649C20.1153 251.649 20.1158 251.94 20.317 251.829L20.496 251.829Z" fill="#D0B5EF"/>
<path d="M61.6262 215.119C59.7325 219.264 58.5535 223.702 58.139 228.245C57.7006 232.92 57.7768 237.618 57.2041 242.293C56.7052 247.007 55.1045 251.533 52.5313 255.506C49.944 259.179 47.0304 262.611 43.8258 265.759L44.61 266.364C47.2882 260.356 49.193 254.03 50.2787 247.537C51.3401 241.051 51.708 234.609 54.0003 228.371C54.2229 227.79 53.2601 227.385 52.9927 227.944C50.2519 233.666 50.2425 240.356 49.3594 246.507C48.4275 253.191 46.565 259.709 43.826 265.871C43.6032 266.34 44.186 266.9 44.6102 266.476C47.8092 263.391 50.7368 260.035 53.3609 256.448C55.8915 252.778 57.5653 248.584 58.2592 244.175C58.9663 239.567 58.9125 234.891 59.1944 230.238C59.4807 225.138 60.4646 220.104 62.1187 215.276C62.1182 215.053 61.8271 214.896 61.738 215.119L61.6262 215.119Z" fill="#D0B5EF"/>
<path d="M91.8121 288.55C90.6125 281.278 87.3108 274.381 85.0602 267.352C83.8447 263.435 83.1881 259.362 82.1291 255.4C80.4551 250.145 79.4599 244.7 79.1674 239.198C78.8183 232.775 77.9759 226.386 76.6476 220.088C76.6464 219.44 75.5508 219.728 75.6415 220.377C76.9168 226.275 77.7434 232.259 78.1143 238.279C78.2337 243.487 79.0563 248.659 80.5598 253.652C81.7088 257.86 82.4777 262.179 83.6937 266.365C84.8195 270.17 86.1913 273.887 87.4958 277.558C88.8004 281.229 90.3287 284.946 91.3427 288.751C91.3432 288.997 91.7456 288.886 91.7004 288.64L91.8121 288.55Z" fill="#D0B5EF"/>
<path d="M91.9468 288.842C87.9743 282.235 83.8901 275.694 80.4314 268.685C78.5847 265.102 77.0795 261.354 75.9356 257.491C74.5748 251.874 73.9916 246.099 74.2023 240.329C74.1404 237.117 74.2687 233.905 74.5865 230.71C74.9825 227.22 75.8262 223.889 76.5355 220.467C76.5679 220.346 76.5506 220.216 76.4875 220.107C76.4243 219.998 76.3205 219.918 76.1988 219.885C76.0771 219.852 75.9475 219.869 75.8386 219.932C75.7296 219.994 75.6502 220.098 75.6178 220.219C73.9903 225.882 73.1436 231.744 73.101 237.642C72.8154 243.451 73.1944 249.276 74.2306 255.004C76.4839 263.42 80.0396 271.436 84.7685 278.761C86.7876 282.372 89.0909 285.818 91.6564 289.065C91.7909 289.222 92.0591 289.066 91.9468 288.842V288.842Z" fill="#D0B5EF"/>
<path d="M91.924 288.08C91.475 285.254 91.3271 282.389 91.4826 279.534C91.4788 277.565 91.3408 275.574 91.158 273.583C90.7467 269.108 90.0894 264.632 89.2979 260.157C87.8028 251.275 85.4947 242.547 82.4024 234.082C81.3456 231.261 80.3111 228.418 79.4331 225.53C78.5551 222.643 77.9456 219.734 77.1795 216.891C77.1496 216.775 77.075 216.676 76.9721 216.615C76.8692 216.554 76.7464 216.536 76.6308 216.566C76.5152 216.595 76.4161 216.669 76.3555 216.772C76.2949 216.875 76.2776 216.997 76.3075 217.113C78.3169 226.714 82.4502 235.625 84.9961 245.048C87.47 254.155 89.2158 263.442 90.217 272.82C90.445 275.058 90.5833 277.183 90.6546 279.376C90.5839 282.334 90.8979 285.289 91.5887 288.169C91.6014 288.204 91.6244 288.233 91.6544 288.254C91.6844 288.275 91.7201 288.286 91.7567 288.286C91.7932 288.286 91.8288 288.275 91.8588 288.254C91.8887 288.234 91.9116 288.204 91.9242 288.17L91.924 288.08Z" fill="#D0B5EF"/>
<path d="M90.3228 282.283C90.1107 276.667 88.0645 271.227 87.0025 265.744C86.1886 261.268 85.6428 256.636 84.8511 252.116C84.0755 246.987 82.9141 241.922 81.3769 236.964C80.4994 234.323 79.4206 231.748 78.476 229.129C77.5574 226.431 76.805 223.68 76.2231 220.892C76.1916 220.798 76.1284 220.718 76.0443 220.665C75.9602 220.612 75.8605 220.591 75.7624 220.604C75.6643 220.617 75.574 220.664 75.507 220.737C75.44 220.809 75.4006 220.903 75.3956 221.002C75.4045 225.655 77.6506 230.335 79.2919 234.633C81.0245 239.482 82.3364 244.469 83.2131 249.54C84.1624 254.62 85.0447 259.745 85.8151 264.847C86.3135 267.558 86.9609 270.241 87.7545 272.882C88.775 275.958 89.5882 279.099 90.1886 282.282L90.3228 282.283Z" fill="#D0B5EF"/>
<path d="M78.2469 222.88C79.8674 227.141 82.3079 231.046 85.4297 234.373C88.6398 238.171 92.0767 241.772 95.7215 245.156C99.5333 248.631 103.128 252.337 106.484 256.253C109.57 260.444 111.855 265.168 113.224 270.185L114.14 269.806C112.173 266.58 109.864 263.575 107.253 260.842C104.399 258.114 101.309 255.645 98.02 253.462C91.4708 248.913 86.3008 242.645 83.082 235.353C82.7898 234.681 81.694 234.97 81.9862 235.642C84.9191 242.449 89.5547 248.393 95.4456 252.898C98.8743 255.523 102.548 257.79 105.732 260.727C108.731 263.49 111.262 266.722 113.224 270.296C113.493 270.812 114.254 270.455 114.118 269.918C113.048 265.189 111.071 260.709 108.297 256.727C105.136 252.766 101.665 249.062 97.9153 245.653C94.2387 242.088 90.495 238.59 87.1087 234.757C85.4181 232.887 83.859 230.903 82.4428 228.818C81.1188 226.846 80.0629 224.696 78.7388 222.702C78.5818 222.5 78.2242 222.701 78.2916 222.88L78.2469 222.88Z" fill="#D0B5EF"/>
<path d="M97.1597 174.497C97.1427 179.378 97.4961 184.255 98.2168 189.085C98.7766 193.763 99.8048 198.374 101.286 202.85C102.815 207.103 105.417 210.71 107.327 214.763C109.093 219.212 110.231 223.882 110.709 228.64C110.71 228.998 111.381 228.999 111.447 228.641C113.216 219.752 112.422 210.534 109.159 202.059C108.372 200 107.406 198.029 106.485 196.014C105.531 193.66 104.821 191.215 104.368 188.717C103.262 184.237 101.481 179.949 99.0865 175.999C98.8171 175.529 98.1916 175.998 98.3938 176.401C100.548 180.586 102.28 184.973 103.564 189.498C103.907 191.599 104.458 193.661 105.209 195.654C106.086 197.758 107.164 199.796 108.018 201.923C111.641 210.295 112.582 219.575 110.709 228.483L111.47 228.597C111.272 224.021 110.318 219.506 108.648 215.235C106.872 211.093 104.024 207.531 102.383 203.322C98.8308 194.232 98.2744 184.119 97.6295 174.498C97.612 174.437 97.5752 174.383 97.5247 174.345C97.4741 174.307 97.4126 174.286 97.3494 174.286C97.2862 174.286 97.2248 174.307 97.1744 174.345C97.124 174.383 97.0874 174.436 97.0702 174.497L97.1597 174.497Z" fill="#D0B5EF"/>
<path d="M17.3137 33.8201C17.1045 53.4605 11.4407 72.6352 0.95456 89.2039L1.89525 89.765C3.83523 86.4577 3.64864 82.4975 4.11136 78.8071C4.59298 74.2675 5.46 69.7786 6.70305 65.3889C8.9254 57.6748 12.536 50.5675 15.0495 43.033C16.5164 39.2174 17.267 35.1615 17.2637 31.0683C17.2634 30.914 17.2018 30.766 17.0925 30.6567C16.9832 30.5474 16.8352 30.4858 16.6809 30.4855C16.5266 30.4852 16.3788 30.5462 16.2699 30.6551C16.161 30.764 16.1 30.9118 16.1003 31.0661C15.7607 40.5958 11.1463 49.2225 7.85199 57.8965C5.91133 63.0147 4.49731 68.3191 3.63179 73.7277C3.21176 76.3444 2.92596 78.9614 2.72969 81.6009C2.76345 84.2363 2.17842 86.8404 1.02167 89.2041C0.985067 89.2657 0.960981 89.334 0.950799 89.405C0.940617 89.476 0.944545 89.5484 0.962337 89.6181C0.980129 89.6877 1.01144 89.7532 1.0545 89.8108C1.09756 89.8684 1.1515 89.917 1.21327 89.9539C1.27504 89.9907 1.34342 90.0151 1.41449 90.0255C1.48556 90.036 1.55794 90.0323 1.6275 90.0148C1.69706 89.9973 1.76243 89.9662 1.81989 89.9234C1.87734 89.8806 1.92575 89.8268 1.96236 89.7652C7.14552 81.5297 11.1707 72.6172 13.9251 63.2774C16.8931 53.7535 18.3018 43.8069 18.0967 33.8217C18.0747 33.7282 18.0217 33.6449 17.9465 33.5852C17.8712 33.5254 17.7781 33.4928 17.6822 33.4927C17.5863 33.4925 17.4933 33.5247 17.4183 33.5842C17.3432 33.6436 17.2906 33.7267 17.2689 33.8201L17.3137 33.8201Z" fill="#D0B5EF"/>
</svg>
