<svg width="228" height="243" viewBox="0 0 228 243" fill="none" xmlns="http://www.w3.org/2000/svg">
<path d="M185.472 196.974C182.489 193.677 180.908 189.374 178.073 186.028C175.074 182.716 171.603 179.863 167.772 177.56C161.187 173.753 153.984 171.132 146.494 169.816C144.104 169.059 141.563 168.92 139.108 169.414C136.992 170.148 137.217 172.287 138.523 173.714C140.768 175.786 143.407 177.386 146.283 178.418C150.218 180.191 154.247 181.747 158.351 183.078C167.956 186.211 178.274 189.444 184.71 197.71C185.203 198.374 186.359 197.491 185.866 196.827C181.131 190.529 174.037 186.981 166.797 184.293C159.261 181.905 151.861 179.106 144.631 175.909C143.67 175.441 137.906 172.656 139.233 170.987C139.7 170.422 141.054 170.547 141.695 170.547C143.045 170.599 144.388 170.773 145.708 171.069C152.58 172.182 159.232 174.389 165.409 177.606C169.684 179.942 173.56 182.942 176.892 186.493C179.998 189.864 181.825 194.266 185.177 197.342C185.239 197.382 185.312 197.4 185.386 197.393C185.459 197.385 185.527 197.353 185.579 197.301C185.631 197.249 185.663 197.181 185.671 197.108C185.678 197.035 185.66 196.962 185.62 196.9L185.472 196.974Z" fill="#D0B5EF"/>
<path d="M184.965 197.309C188.295 202.597 194.131 204.325 199.574 206.666C202.555 207.948 205.535 209.279 208.417 210.806C211.472 212.505 214.323 214.546 216.917 216.887C217.386 217.306 218.222 216.766 217.803 216.225C214.128 211.084 207.479 208.544 201.888 206.08C196.297 203.615 189.427 202.205 185.555 196.966C185.309 196.646 184.743 196.965 184.965 197.309Z" fill="#D0B5EF"/>
<path d="M170.207 194.068C174.749 195.221 179.08 197.085 183.041 199.591C184.905 200.795 186.847 201.873 188.855 202.819C189.821 203.24 190.807 203.61 191.811 203.929C192.672 204.331 193.621 204.51 194.569 204.449C194.642 204.429 194.708 204.391 194.76 204.337C194.812 204.283 194.849 204.216 194.867 204.143C194.884 204.071 194.882 203.994 194.86 203.923C194.837 203.851 194.796 203.786 194.741 203.736C193.931 203.25 193.037 202.924 192.105 202.774C190.997 202.453 189.938 202.058 188.854 201.663C186.703 200.806 184.64 199.741 182.695 198.484C178.914 196.084 174.679 194.488 170.256 193.797C170.223 193.797 170.192 193.81 170.169 193.833C170.146 193.856 170.133 193.888 170.133 193.92C170.133 193.953 170.146 193.984 170.169 194.007C170.192 194.03 170.223 194.043 170.256 194.043L170.207 194.068Z" fill="#D0B5EF"/>
<path d="M174.095 194.656C158.353 188.979 141.597 179.485 124.413 183.699C121.951 184.311 113.679 186.025 114.57 190.111C115.288 193.139 119.178 193.217 121.616 193.097C126.837 192.832 132.132 193.231 137.377 193.336C143.312 193.49 149.246 193.349 155.206 193.528C161.446 193.728 167.671 194.285 173.849 195.198C173.956 195.201 174.06 195.167 174.145 195.103C174.23 195.039 174.29 194.947 174.316 194.844C174.342 194.741 174.331 194.632 174.287 194.535C174.242 194.438 174.165 194.359 174.07 194.312C164.783 191.644 154.712 191.977 145.157 191.942C140.232 191.936 135.085 191.783 130.061 191.629C127.82 191.627 125.604 191.501 123.363 191.622C121.544 191.854 119.7 191.802 117.896 191.468C117.083 191.197 115.802 190.432 116.047 189.399C116.292 188.366 117.227 188.071 117.842 187.703C119.967 186.58 122.236 185.755 124.587 185.249C130.764 183.805 137.196 183.812 143.376 185.27C153.845 187.522 163.455 192.676 173.923 194.952C174.071 194.952 174.12 194.779 173.923 194.73L174.095 194.656Z" fill="#D0B5EF"/>
<path d="M146.446 204.246C153.797 203.345 161.206 203.006 168.611 203.231C171.468 203.382 174.325 203.655 177.207 203.88C180.655 204.154 184.128 204.256 187.577 204.604C190.04 204.853 192.355 205.249 194.72 205.72C196.696 206.298 198.714 206.72 200.755 206.982C201.322 206.982 201.444 206.268 201.025 205.972C199.413 205.099 197.648 204.545 195.827 204.341C193.832 203.945 191.812 203.622 189.767 203.399C186.073 202.976 182.378 203.022 178.634 202.772C172.667 202.2 166.672 201.972 160.679 202.09C155.858 202.365 151.056 202.912 146.297 203.728C146.002 203.728 146.076 204.27 146.298 204.245L146.446 204.246Z" fill="#D0B5EF"/>
<path d="M150.621 203.208C145.893 202.809 141.164 202.68 136.46 202.134C131.756 201.587 127.519 200.844 123.012 200.273C118.548 199.641 114.023 199.561 109.541 200.037C106.531 200.168 103.574 200.867 100.826 202.095C99.2755 203.004 98.3664 204.899 100.018 206.205C101.752 207.241 103.716 207.827 105.733 207.91C109.945 208.48 114.156 208.928 118.392 209.228C123 209.7 127.638 209.78 132.257 209.465C135.889 209.033 139.463 208.211 142.918 207.015C146.266 205.96 149.687 204.93 152.937 203.555C153.404 203.358 152.936 202.644 152.591 202.767C146.953 204.262 141.464 206.201 135.727 207.376C128.144 208.943 119.967 207.95 112.332 207.228C109.425 207.032 106.531 206.676 103.662 206.16C102.722 206.054 101.811 205.769 100.977 205.32C99.5478 204.309 101.221 203.228 102.304 202.86C103.554 202.416 104.851 202.12 106.17 201.978C107.844 201.684 109.494 201.366 111.217 201.22C115.242 200.949 119.285 201.086 123.285 201.627C132.324 202.695 141.437 204.576 150.597 203.897C150.682 203.897 150.764 203.863 150.824 203.803C150.884 203.743 150.917 203.662 150.917 203.577C150.917 203.492 150.883 203.411 150.823 203.351C150.763 203.291 150.682 203.257 150.597 203.257L150.621 203.208Z" fill="#D0B5EF"/>
<path d="M165.268 93.1751C166.55 97.5707 169.011 101.477 170.342 105.848C171.569 110.607 172.006 115.534 171.636 120.431C171.494 125.341 171.278 130.029 171.652 134.816C171.971 139.473 172.674 144.097 173.755 148.64C174.891 153.824 176.543 158.884 178.685 163.742C179.054 164.528 180.454 163.965 180.134 163.13C176.429 154.281 174.083 144.926 173.175 135.383C172.912 130.591 172.907 125.789 173.159 120.997C173.448 116.448 173.054 111.88 171.99 107.445C170.535 102.362 167.41 98.0381 165.685 92.9301C165.662 92.8837 165.623 92.8468 165.575 92.8261C165.528 92.8053 165.474 92.8019 165.425 92.8165C165.375 92.8311 165.332 92.8627 165.303 92.9058C165.274 92.9489 165.262 93.0008 165.268 93.0524L165.268 93.1751Z" fill="#D0B5EF"/>
<path d="M120.646 147.562C130.869 147.592 141.038 149.095 150.839 152.025C155.741 153.496 160.525 155.336 165.152 157.527C169.783 159.722 173.997 162.457 178.432 164.922C179.344 165.439 180.475 164.112 179.588 163.398C175.419 160.337 170.893 157.796 166.11 155.831C161.385 153.687 156.511 151.889 151.527 150.452C141.525 147.427 131.066 146.215 120.645 146.873C120.226 146.873 120.203 147.561 120.646 147.562Z" fill="#D0B5EF"/>
<path d="M67.144 79.5243C94.6314 91.8436 120.048 108.343 142.485 128.433C164.933 148.609 184.89 171.388 201.928 196.284C206.98 203.417 211.663 210.802 215.959 218.411C218.146 222.256 220.115 226.219 221.856 230.284C223.486 234.167 224.721 238.197 226.055 242.178C226.376 243.112 228 243.016 227.876 241.935C227.054 234.565 223.526 227.412 220.146 220.898C216.43 213.803 212.313 206.925 207.815 200.296C199.332 187.704 190.182 175.573 180.403 163.954C160.874 140.415 138.084 119.772 112.724 102.65C98.4891 93.1474 83.3134 85.1345 67.4382 78.7386C67.0443 78.5661 66.7499 79.2536 67.1438 79.426L67.144 79.5243Z" fill="#D0B5EF"/>
<path d="M168.571 100.676C167.3 96.6735 165.766 92.7582 163.98 88.9555C162.327 85.1222 160.551 81.3624 158.554 77.7006C155.299 71.8514 151.698 64.7738 145.618 61.4259C144.584 60.8597 143.156 60.3176 142.568 61.7413C142.245 63.4582 142.462 65.2342 143.189 66.8258C144.985 71.8784 147.475 76.659 150.588 81.0304C155.277 88.6006 161.188 95.3467 168.08 100.995C168.892 101.659 170.072 100.482 169.234 99.8173C163.591 95.4137 158.613 90.2209 154.454 84.3999C152.359 81.4501 150.387 78.3777 148.489 75.3054C147.318 73.5025 146.288 71.6127 145.407 69.6529C144.657 67.9569 144.062 66.1971 143.629 64.395C143.389 63.7004 143.328 62.9568 143.454 62.2336C143.822 61.3008 144.905 62.2355 145.521 62.5064C151.084 65.7799 154.414 72.3414 157.496 77.6501C159.532 81.2826 161.384 85.0145 163.045 88.8315C164.797 92.7878 166.18 96.9891 168.178 100.823C168.197 100.872 168.236 100.911 168.284 100.932C168.333 100.952 168.387 100.953 168.436 100.934C168.485 100.914 168.524 100.876 168.545 100.828C168.566 100.78 168.566 100.725 168.547 100.676L168.571 100.676Z" fill="#D0B5EF"/>
<path d="M174.296 109.82C177.824 101.551 177.076 92.0495 175.666 83.4065C174.033 73.5849 170.951 63.7617 170.546 53.6715C170.543 50.7992 170.217 45.889 174.148 45.4516C178.079 45.0142 179.829 50.3679 180.84 53.1432C184.192 62.6476 183.147 72.7852 181.709 82.6033C180.9 87.1925 179.663 91.695 178.014 96.0521C176.135 100.387 174.612 104.868 173.46 109.451C173.461 110.04 174.174 110.507 174.492 109.894C176.412 105.874 178.049 101.725 179.392 97.4775C180.998 93.216 182.266 88.8341 183.185 84.3725C184.081 79.3868 184.608 74.3412 184.765 69.2765C185.005 64.0045 184.325 58.7289 182.757 53.6854C181.672 50.3455 180.291 45.8023 176.775 44.2271C175.658 43.729 174.403 43.6297 173.223 43.9457C172.042 44.2617 171.007 44.9738 170.291 45.9627C169.414 47.2579 168.953 48.7901 168.97 50.3555C168.891 53.0872 169.034 55.8213 169.397 58.5309C170.017 63.7607 171.128 68.9173 172.265 74.0739C173.682 79.9163 174.698 85.8476 175.307 91.8265C175.802 97.7535 175.252 103.719 173.681 109.451C173.682 109.795 174.149 110.065 174.296 109.722L174.296 109.82Z" fill="#D0B5EF"/>
<path d="M175.532 103.991C173.234 107.852 172.001 112.255 171.96 116.752C171.742 119.207 171.548 121.661 171.477 124.288L171.481 128.068C171.355 129.309 171.439 130.562 171.731 131.775C171.778 131.917 171.869 132.04 171.991 132.127C172.112 132.215 172.257 132.262 172.407 132.262C172.556 132.262 172.702 132.215 172.823 132.128C172.944 132.041 173.034 131.918 173.082 131.777C173.31 130.646 173.367 129.488 173.25 128.34L173.246 124.56C173.243 122.105 173.388 119.896 173.557 117.564C173.652 115.303 173.871 113.05 174.213 110.814C174.697 108.583 175.419 106.411 176.367 104.335C176.588 103.82 175.826 103.598 175.532 103.991Z" fill="#D0B5EF"/>
<path d="M184.945 137.705C190.222 130.493 192.915 121.141 194.527 112.599C196.137 103.543 197.038 94.3748 197.222 85.1763C197.219 82.3527 198.172 78.0816 201.022 76.6856C201.844 76.393 202.74 76.3873 203.567 76.6692C204.393 76.9511 205.1 77.5041 205.573 78.238C206.768 79.9482 207.367 82.0027 207.276 84.0837C207.5 88.451 207.266 92.8285 206.579 97.145C205.647 102.042 204.211 106.829 202.295 111.43C200.52 115.99 198.267 120.349 195.574 124.434C192.738 128.544 189.285 132.192 185.335 135.25C184.721 135.765 185.534 136.772 186.197 136.356C194.108 131.455 199.26 122.72 202.864 114.278C204.951 109.61 206.591 104.753 207.763 99.7737C208.682 95.0118 209.088 90.1641 208.974 85.3134C208.969 81.5568 208.35 77.4803 204.807 75.4871C204.207 75.1327 203.54 74.9092 202.848 74.8315C202.156 74.7538 201.456 74.8236 200.794 75.0363C200.132 75.2491 199.523 75.5998 199.007 76.0654C198.492 76.5311 198.081 77.101 197.803 77.7374C195.668 81.1231 195.771 85.1008 195.604 88.8327C195.389 93.964 195.027 99.1197 194.418 104.226C193.789 109.938 192.686 115.587 191.12 121.114C189.388 126.743 187.174 132.211 184.502 137.459C184.471 137.49 184.447 137.529 184.433 137.571C184.419 137.613 184.414 137.658 184.42 137.702C184.426 137.747 184.441 137.789 184.466 137.826C184.49 137.864 184.523 137.895 184.561 137.918C184.599 137.941 184.642 137.955 184.687 137.959C184.731 137.963 184.776 137.957 184.818 137.941C184.86 137.925 184.897 137.9 184.928 137.868C184.958 137.835 184.981 137.796 184.994 137.754L184.945 137.705Z" fill="#D0B5EF"/>
<path d="M186.043 134.675C183.907 136.89 182.313 139.568 181.384 142.501C180.222 145.484 179.482 148.614 179.184 151.802C178.913 154.907 179.048 158.035 179.587 161.107C179.849 164.288 180.945 167.346 182.766 169.972C183.258 170.537 183.945 169.974 183.871 169.335C183.523 167.944 183.07 166.581 182.515 165.259C182.044 163.821 181.673 162.352 181.405 160.863C180.882 157.889 180.747 154.861 181.002 151.854C181.258 148.903 181.865 145.995 182.81 143.19C183.322 141.658 183.944 140.166 184.671 138.724C185.38 137.532 186.026 136.303 186.608 135.044C186.608 134.7 186.263 134.528 186.043 134.724L186.043 134.675Z" fill="#D0B5EF"/>
<path d="M122.382 147.101C116.052 145.174 109.599 143.838 103.17 142.355C97.5046 140.892 91.7433 139.833 85.9294 139.186C82.7918 138.927 79.6356 139.031 76.5234 139.495C74.2092 139.861 71.1074 140.571 69.9527 142.882C68.7981 145.193 70.5253 148.197 72.2754 149.749C74.2887 151.304 76.6943 152.269 79.2227 152.537C86.6083 153.403 94.0801 153.147 101.383 151.775C108.449 150.775 115.416 149.331 122.433 147.937C123.024 147.938 122.899 146.855 122.431 146.879C116.965 147.267 111.599 148.54 106.232 149.321C99.1225 150.671 91.9025 151.362 84.6632 151.387C80.1324 151.382 72.2273 150.733 71.1863 144.95C70.7154 142.268 74.0139 141.337 76.1064 140.897C79.1159 140.335 82.1864 140.165 85.2414 140.391C90.9573 140.9 96.6239 141.87 102.186 143.289C108.935 144.822 115.635 146.527 122.457 147.568C122.529 147.588 122.605 147.578 122.67 147.541C122.734 147.505 122.782 147.444 122.801 147.372C122.821 147.3 122.811 147.223 122.774 147.159C122.737 147.094 122.676 147.047 122.604 147.027L122.382 147.101Z" fill="#D0B5EF"/>
<path d="M125.566 141.597C128.676 143.677 131.976 145.459 135.421 146.92C138.641 148.485 142.093 149.519 145.642 149.981C145.986 149.981 146.035 149.465 145.641 149.366C138.661 147.554 132.01 144.65 125.934 140.762C125.491 140.491 125.098 141.179 125.517 141.474L125.566 141.597Z" fill="#D0B5EF"/>
<path d="M129.3 143.225C125.795 140.024 122.462 136.639 119.316 133.085C115.987 129.538 112.13 126.523 107.882 124.148C103.405 121.788 98.7518 119.777 93.9651 118.133C89.6604 116.161 85.0033 115.077 80.2732 114.945C77.8114 114.942 73.4793 115.526 72.5473 118.327C71.9097 120.219 73.8809 121.623 75.2852 122.46C77.6267 123.764 80.105 124.806 82.6747 125.567L91.9842 128.528C97.7227 130.379 103.51 132.18 109.224 134.228C115.005 136.399 120.67 138.868 126.196 141.623C126.312 141.673 126.442 141.679 126.561 141.639C126.681 141.6 126.782 141.518 126.845 141.41C126.909 141.301 126.93 141.173 126.906 141.05C126.881 140.926 126.812 140.816 126.712 140.739C122.739 138.231 118.49 136.188 114.05 134.652C109.543 132.876 104.937 131.371 100.332 129.89C93.7312 127.768 87.0326 125.941 80.6289 123.622C78.2567 123.04 76.0645 121.88 74.2484 120.247C72.0048 117.589 77.961 116.466 79.5611 116.345C83.9734 116.216 88.3624 117.061 92.415 118.819C97.0074 120.388 101.492 122.258 105.839 124.416C110.579 126.82 114.871 130.018 118.53 133.871C121.759 137.267 124.817 141.253 129.005 143.716C129.251 143.717 129.522 143.52 129.3 143.323L129.3 143.225Z" fill="#D0B5EF"/>
<path d="M130.303 153.676C136.336 153.83 142.37 153.836 148.38 154.458C154.509 155.212 160.588 156.336 166.583 157.826C166.697 157.834 166.811 157.802 166.904 157.735C166.997 157.668 167.064 157.571 167.093 157.46C167.122 157.349 167.112 157.232 167.063 157.128C167.015 157.024 166.932 156.94 166.828 156.89C161.008 155.063 155.015 153.844 148.945 153.252C142.763 152.396 136.501 152.315 130.302 153.011C129.908 153.011 129.859 153.676 130.303 153.676Z" fill="#D0B5EF"/>
<path d="M135.041 152.634C130.041 152.998 125.021 152.992 120.02 152.617C115.136 152.501 110.252 152.791 105.419 153.485C100.543 154.24 95.748 155.437 91.0919 157.061C87.7067 157.876 84.5083 159.325 81.6658 161.33C80.2145 162.633 79.3554 164.969 81.4498 166.103C83.565 166.897 85.8567 167.096 88.0743 166.676C95.5701 165.946 102.922 164.158 109.91 161.363C113.528 159.965 117.097 158.444 120.764 157.194C125.443 155.647 130.211 154.379 135.042 153.397C135.436 153.397 135.361 152.61 135.041 152.659C127.734 153.567 120.593 155.488 113.822 158.366C107.67 160.866 101.312 162.826 94.8185 164.224C91.861 164.897 88.8414 165.264 85.8073 165.321C84.2314 165.319 80.3406 165.167 82.4802 162.857C83.6354 161.749 85.0218 160.911 86.5403 160.401C88.214 159.739 89.9123 159.126 91.6107 158.513C95.7772 157.062 100.059 155.965 104.411 155.231C109.468 154.373 114.596 153.991 119.726 154.093C124.877 154.424 130.048 154.174 135.14 153.348C135.583 153.348 135.484 152.536 135.139 152.585L135.041 152.634Z" fill="#D0B5EF"/>
<path d="M136.877 104.967C137.752 110.906 139.234 116.742 141.301 122.382C142.26 124.715 143.466 126.939 144.9 129.016C146.14 131.215 147.898 133.08 150.021 134.449C150.489 134.671 151.177 134.18 150.807 133.64C150.049 132.76 149.226 131.938 148.345 131.181C147.403 130.183 146.539 129.115 145.759 127.986C144.375 125.939 143.186 123.767 142.21 121.499C140.026 116.17 138.371 110.641 137.27 104.992C137.27 104.673 136.729 104.795 136.779 104.991L136.877 104.967Z" fill="#D0B5EF"/>
<path d="M138.419 108.073C135.805 99.8937 132.149 92.0811 127.541 84.8275C123.478 78.1075 118.267 72.1493 112.144 67.2242C110.224 65.7483 103.971 62.3022 106.648 59.0394C109.325 55.7766 115.109 58.3626 117.842 59.9869C124.931 64.1954 129.05 72.575 131.839 80.0196C133.483 84.5778 134.82 89.2395 135.842 93.9737C137.15 99.2078 137.679 104.604 137.413 109.988C137.414 110.97 138.89 110.972 138.963 109.989C139.208 105.043 138.772 100.084 137.664 95.253C136.689 90.4639 135.392 85.7447 133.784 81.1272C130.97 73.3633 126.826 64.7627 119.834 59.9158C116.812 57.5992 113.048 56.4672 109.253 56.7343C106.375 57.1481 104.336 59.4785 105.57 62.3533C106.183 63.6602 107.115 64.7931 108.28 65.6476C110.078 67.0006 111.899 68.2799 113.599 69.7556C117.103 72.7787 120.274 76.1664 123.058 79.861C126.186 84.11 128.949 88.6157 131.315 93.3294C133.782 98.2441 135.83 103.281 138.124 108.245C138.124 108.466 138.591 108.245 138.517 108.073L138.419 108.073Z" fill="#D0B5EF"/>
<path d="M105.21 82.5342C107.257 85.0679 109.166 87.7102 110.927 90.4496C112.606 93.3738 114.057 96.4217 115.269 99.5666C116.471 102.49 118.001 105.268 119.83 107.849C121.442 110.327 123.516 112.472 125.939 114.169C125.988 114.207 126.044 114.236 126.103 114.253C126.163 114.271 126.225 114.276 126.287 114.269C126.349 114.263 126.408 114.244 126.463 114.214C126.517 114.184 126.565 114.144 126.604 114.096C126.642 114.047 126.671 113.992 126.688 113.932C126.705 113.873 126.711 113.811 126.704 113.749C126.697 113.687 126.678 113.628 126.648 113.573C126.618 113.519 126.577 113.471 126.529 113.432C125.568 112.326 124.386 111.416 123.376 110.359C122.223 109.132 121.168 107.817 120.222 106.425C118.44 103.768 116.921 100.944 115.685 97.9954C114.502 95.0512 113.067 92.2145 111.393 89.517C109.642 86.9435 107.733 84.4804 105.676 82.1419C105.406 81.8468 104.865 82.2636 105.111 82.5832L105.21 82.5342Z" fill="#D0B5EF"/>
<path d="M109.242 86.4147C100.808 74.1176 90.7258 62.6538 75.9515 58.2609C73.6615 57.5945 69.8209 56.9752 68.0021 59.0616C66.8469 60.3624 68.0058 61.8628 68.9916 62.8224C70.6744 64.3052 72.4702 65.6549 74.3627 66.8592C77.8297 69.2178 81.4415 71.3563 85.1767 73.262C89.1177 75.3557 93.1078 77.3267 97.0243 79.4941C100.941 81.6615 104.784 84.4186 108.677 87.0037C109.268 87.3731 109.882 86.5384 109.414 86.0463C106.92 83.6561 104.11 81.6185 101.062 79.9908C97.9826 78.193 94.7561 76.6162 91.5542 75.064C85.247 72.0224 79.1346 68.5923 73.2524 64.7937C71.7496 63.7843 69.5821 62.6757 68.7676 60.9546C68.1753 59.7744 69.2578 59.3089 70.2912 59.0154C72.0675 58.6335 73.919 58.7898 75.6085 59.4645C82.2881 61.619 88.4465 65.1422 93.6888 69.8082C99.0692 75.119 104.108 80.7639 108.775 86.709C108.997 86.955 109.439 86.7098 109.242 86.341L109.242 86.4147Z" fill="#D0B5EF"/>
<path d="M110.425 114.311C113.39 115.502 116.264 116.911 119.022 118.526C121.732 120.127 124.369 121.901 127.202 123.281C130.007 124.535 132.876 125.638 135.798 126.586L140.33 128.214C141.815 128.958 143.429 129.411 145.084 129.547C145.502 129.548 145.822 128.958 145.452 128.638C144.277 127.851 142.965 127.29 141.585 126.986C139.984 126.443 138.358 125.925 136.659 125.407C133.36 124.445 130.133 123.25 127.003 121.83C124.269 120.45 121.681 118.824 118.971 117.395C116.243 115.975 113.4 114.788 110.473 113.844C110.178 113.844 110.08 114.188 110.474 114.311L110.425 114.311Z" fill="#D0B5EF"/>
<path d="M115.692 116.017C113.722 116.015 111.996 113.922 110.493 112.839C108.989 111.755 107.215 110.597 105.564 109.562C102.339 107.588 98.9803 105.842 95.5122 104.337C88.6408 101.065 81.3305 98.8107 73.8124 97.6462C71.3141 97.124 68.7148 97.4498 66.427 98.5717C64.9508 99.406 63.9679 101.028 64.93 102.554C65.644 103.497 66.6485 104.181 67.7885 104.5C69.7138 105.208 71.6899 105.769 73.6997 106.179C77.5909 106.995 81.5309 107.443 85.4467 108.185C89.8304 109.027 94.1653 110.311 98.5001 111.472C102.835 112.633 107.614 114.237 112.244 115.324C112.761 115.325 113.154 114.637 112.612 114.39C109.248 113.07 105.79 112.006 102.267 111.206C98.6217 110.242 94.8781 109.328 91.3315 108.389C84.5091 106.61 77.4423 106.282 70.6446 104.479C69.0436 104.059 66.6794 103.613 65.7172 102.013C64.755 100.414 66.2314 99.678 67.3634 99.163C70.2822 98.1678 73.4421 98.1114 76.3993 99.0018C79.9245 99.7289 83.3845 100.745 86.7441 102.039C90.0695 103.223 93.3703 104.506 96.5974 105.887C100.053 107.452 103.395 109.256 106.6 111.285C108.202 112.295 109.755 113.379 111.282 114.463C111.859 115.046 112.546 115.51 113.303 115.828C114.06 116.145 114.872 116.31 115.692 116.312C115.864 116.312 115.864 116.017 115.692 116.017Z" fill="#D0B5EF"/>
<path d="M74.334 81.6703C68.7896 77.8525 63.0732 74.2803 57.5533 70.3887C52.3618 66.5559 46.7982 63.2541 40.9467 60.5334C35.2497 58.1206 29.2635 56.4601 23.1398 55.5941C20.1534 55.1361 17.145 54.8369 14.1275 54.6978C12.1086 54.4925 10.0699 54.6736 8.12076 55.2313C7.63194 55.3275 7.17443 55.5418 6.78819 55.8554C6.40195 56.1691 6.09873 56.5726 5.905 57.0308C5.71128 57.4889 5.63295 57.9878 5.67686 58.4837C5.72076 58.9796 5.88557 59.4576 6.15688 59.8758C7.93255 62.4198 10.394 64.4095 13.2548 65.6134C16.7664 67.1644 20.4441 68.3075 24.2152 69.0199C28.9684 70.1567 33.7461 71.1953 38.4992 72.2584C44.5823 73.6674 50.6654 75.1009 56.6503 76.8294C62.6353 78.5579 68.2267 80.5317 73.892 82.604C74.4339 82.8014 74.8021 81.9413 74.2848 81.6948C65.4649 77.1353 55.3922 74.8117 45.7873 72.5379C37.0444 70.4618 28.1789 68.8035 19.4849 66.5062C16.0402 65.7132 12.7946 64.2193 9.95125 62.1179C8.8176 61.2314 5.5643 58.5228 7.48282 57.0008C8.99637 56.2179 10.7102 55.9033 12.4058 56.0971C15.1675 56.1456 17.9233 56.379 20.6546 56.7958C26.674 57.4819 32.5929 58.8757 38.2882 60.9481C44.503 63.5315 50.3914 66.84 55.8304 70.8046C61.5729 75.0612 67.572 78.9607 73.7934 82.481C73.8468 82.5117 73.9057 82.5317 73.9667 82.5397C74.0278 82.5477 74.0898 82.5437 74.1492 82.5278C74.2086 82.5118 74.2643 82.4844 74.313 82.447C74.3618 82.4096 74.4026 82.3629 74.4333 82.3096C74.4639 82.2564 74.4838 82.1976 74.4917 82.1367C74.4995 82.0757 74.4953 82.0138 74.4793 81.9544C74.4632 81.8951 74.4356 81.8394 74.398 81.7906C74.3604 81.7418 74.3135 81.7009 74.2602 81.6702L74.334 81.6703Z" fill="#D0B5EF"/>
<path d="M47.0789 40.4395C53.2909 49.0936 57.4622 58.9731 63.3545 67.8233C65.601 71.3053 68.2844 74.4869 71.3391 77.2903C74.1966 79.7502 77.2509 82.2104 80.3296 84.4988C83.399 86.9654 86.6977 89.1329 90.1804 90.9715C90.3192 91.0343 90.4763 91.0435 90.6213 90.9973C90.7663 90.9512 90.8888 90.8529 90.9652 90.7216C91.0415 90.5903 91.0663 90.4352 91.0347 90.2864C91.0031 90.1376 90.9174 90.0057 90.7941 89.9161C84.8833 85.7082 78.8496 81.6721 73.3072 76.9981C66.2868 71.0694 61.724 62.835 57.2107 54.8708C54.3823 49.7216 51.2451 44.7468 47.8165 39.9737C47.5207 39.6049 46.9061 39.9726 47.1772 40.3413L47.0789 40.4395Z" fill="#D0B5EF"/>
<path d="M53.3802 48.9088C51.4248 44.0061 49.1837 39.2213 46.6681 34.579C44.5038 29.994 41.963 25.595 39.0717 21.4271C34.9595 15.4909 29.2437 10.8403 22.5915 8.01814C20.548 7.1803 11.7334 3.38593 11.7397 8.176C11.948 9.85041 12.7125 11.4082 13.911 12.6004C15.1543 14.137 16.4787 15.6065 17.8786 17.0026C20.9932 20.0613 24.2836 22.9363 27.733 25.6129C35.6206 31.5292 43.1938 37.8525 50.4216 44.557C50.8158 44.9506 51.3318 44.3862 51.0114 43.9682C46.3034 37.9438 39.6042 33.4399 33.5692 28.8385C27.0208 24.245 20.9394 19.0207 15.4129 13.241C14.1314 11.8392 12.1849 9.89609 12.4776 7.90675C12.6238 6.85067 13.5586 6.58168 14.5183 6.60749C17.0439 6.83601 19.4979 7.57464 21.7313 8.77851C27.8883 11.4814 33.2494 15.7179 37.2995 21.0809C40.3402 25.2857 42.9979 29.7532 45.2407 34.4297C47.7079 39.3458 49.6834 44.6297 52.6423 49.178C52.8888 49.5222 53.5282 49.1792 53.3801 48.8596L53.3802 48.9088Z" fill="#D0B5EF"/>
<path d="M54.0707 35.7828C56.979 41.8753 57.8229 48.5055 59.2076 55.0381C59.7577 57.9822 60.5843 60.8686 61.6765 63.659C62.2281 64.9631 62.8704 66.2273 63.5986 67.4424C64.1591 68.6632 65.0033 69.7333 66.0607 70.5635C66.1283 70.607 66.2075 70.6288 66.2878 70.6261C66.368 70.6233 66.4454 70.596 66.5096 70.548C66.5738 70.5 66.6216 70.4334 66.6468 70.3573C66.6719 70.2812 66.6731 70.1992 66.6502 70.1223C66.0227 68.8823 65.2893 67.6985 64.458 66.5841C63.6826 65.2943 63.007 63.9473 62.4372 62.555C61.2891 59.6491 60.365 56.6602 59.6729 53.6146C58.5196 47.4604 56.6988 41.4483 54.2427 35.6848C54.2424 35.4884 53.8248 35.6843 53.9479 35.8809L54.0707 35.7828Z" fill="#D0B5EF"/>
<path d="M55.5174 38.2434C54.0575 31.5371 51.2944 25.3203 49.1214 18.8587C47.58 13.1668 44.6001 7.9622 40.4678 3.74431C39.1867 2.28069 37.4541 1.28456 35.5445 0.913808C35.1031 0.913233 34.6661 0.999863 34.2589 1.16872C33.8516 1.33758 33.482 1.58533 33.1714 1.89768C32.8609 2.21003 32.6154 2.58082 32.4493 2.98867C32.2831 3.39651 32.1996 3.83336 32.2034 4.27403C32.3157 5.5752 32.721 6.83497 33.3889 7.95929C34.0739 9.40633 34.8479 10.8098 35.7066 12.1617C37.4419 14.9005 39.3258 17.5427 41.3498 20.0767C43.8137 23.1742 46.2774 26.198 48.7414 29.3446C51.2053 32.4912 52.8572 35.4649 54.8537 38.5864C55.1988 39.1271 56.1577 38.7845 55.9109 38.1457C54.0101 32.9614 49.9208 28.3147 46.4717 24.209C42.4847 19.6552 38.8829 14.7795 35.7033 9.6322C34.7911 8.01018 31.9068 3.19307 35.005 2.26381C36.7755 1.75035 38.8937 3.88963 39.9283 4.99608C43.7148 9.04802 46.4936 13.9314 48.0396 19.2503C50.2864 25.6874 52.9757 31.9287 54.9766 38.4883C54.9963 38.56 55.0436 38.621 55.1082 38.6579C55.1729 38.6948 55.2495 38.7047 55.3212 38.6852C55.393 38.6658 55.454 38.6186 55.4908 38.5542C55.5276 38.4898 55.5372 38.4133 55.5176 38.3416L55.5174 38.2434Z" fill="#D0B5EF"/>
<path d="M66.7397 91.3781C76.737 90.7571 86.7718 91.7823 96.4435 94.4128C97.0101 94.5612 97.4278 93.6997 96.8611 93.4283C92.7946 91.6242 88.4399 90.5606 84.0024 90.2876C78.2563 89.8317 72.4799 89.966 66.7636 90.6886C66.3203 90.6881 66.3211 91.4022 66.7643 91.3781L66.7397 91.3781Z" fill="#D0B5EF"/>
<path d="M66.1806 90.996C58.5113 91.458 50.9986 93.3424 44.0264 96.5532C36.6434 99.8895 29.7538 103.915 21.6544 105.332C19.1926 105.723 14.2688 106.455 12.3455 104.239C10.4223 102.023 14.8024 99.6422 16.3773 98.8324C23.1201 95.5016 30.3888 93.3554 37.8657 92.4874C47.3057 91.4496 56.8141 91.1484 66.3045 91.5865C66.7723 91.5871 66.7469 90.9229 66.3036 90.8732C56.8265 90.0789 47.2944 90.2819 37.8645 91.4789C30.1682 92.2029 22.6662 94.293 15.711 97.651C13.7177 98.6325 10.7893 100.105 10.4722 102.564C10.155 105.023 12.5206 106.477 14.7126 106.898C18.3752 107.405 22.103 107.081 25.6195 105.952C29.791 104.737 33.8241 103.093 37.6544 101.047C42.0024 98.6944 46.5085 96.6452 51.1405 94.9136C56.0417 93.2482 61.0959 92.0678 66.2304 91.3897C66.5012 91.39 66.5253 90.9473 66.2298 90.9469L66.1806 90.996Z" fill="#D0B5EF"/>
<path d="M55.9168 90.4567C53.4534 89.6174 50.9903 88.9994 48.5268 88.1355C46.0634 87.2715 43.3288 86.1859 40.7913 85.1004C36.1349 83.1022 31.5523 80.981 26.7734 79.4255C21.8572 77.7013 16.6536 76.9515 11.4545 77.2182C8.47524 77.4608 4.63395 77.5548 2.14901 79.3725C0.426669 80.5515 -0.0883009 82.3961 1.73522 83.53C3.97173 84.6736 6.42155 85.3384 8.92779 85.4819C13.1392 86.0773 17.3751 86.5004 21.5865 87.0465C26.2412 87.667 30.9206 88.2628 35.5753 88.8587C41.3628 89.5542 47.1753 90.5204 53.0116 90.8716C53.1087 90.8677 53.2014 90.8302 53.2736 90.7654C53.3459 90.7007 53.3933 90.6128 53.4078 90.5168C53.4222 90.4208 53.4028 90.3228 53.3528 90.2394C53.3028 90.156 53.2254 90.0925 53.1338 90.0598C48.5772 89.1197 43.9227 88.6715 39.3173 88.1003C35.1551 87.5542 30.9684 87.0573 26.8063 86.5605C22.6442 86.0636 17.9896 85.517 13.5812 84.946C11.1184 84.6233 8.65558 84.3253 6.34029 83.8059C5.40431 83.5834 0.971119 82.8894 2.05279 81.3407C3.16425 80.1897 4.66299 79.4905 6.26128 79.3773C7.8417 79.0976 9.4361 78.9023 11.0377 78.7923C16.0421 78.4742 21.0625 79.1404 25.8146 80.753C30.9137 82.3827 35.8166 84.6272 40.7439 86.6995C45.4976 89.0787 50.636 90.5927 55.9177 91.1702C55.9669 91.1541 56.0098 91.1228 56.0401 91.0809C56.0705 91.0389 56.0868 90.9885 56.0867 90.9367C56.0867 90.8848 56.0702 90.8343 56.0398 90.7923C56.0093 90.7503 55.9664 90.719 55.9171 90.7027L55.9168 90.4567Z" fill="#D0B5EF"/>
</svg>
