<svg width="219" height="44" viewBox="0 0 219 44" fill="none" xmlns="http://www.w3.org/2000/svg">
<path d="M198.844 0.400391V25.4373L206.946 25.4484L219 43.2725H210.651L198.844 25.9457V43.2725H192.304V0.400391H198.844Z" fill="#B3DCDB"/>
<path d="M186.074 0.400391V43.2725H179.434V0.400391H186.074Z" fill="#B3DCDB"/>
<path d="M51.7077 29.0031C51.691 26.995 52.0014 24.9975 52.6269 23.0885C53.2002 21.3258 54.1394 19.7029 55.3833 18.3252C56.6581 16.9454 58.2233 15.8632 59.9669 15.1562C61.7979 14.3887 63.9253 14.0049 66.3493 14.0049C68.76 14.0049 70.8809 14.3887 72.7119 15.1562C74.4554 15.8634 76.0206 16.9455 77.2955 18.3252C78.5409 19.7052 79.4861 21.327 80.0717 23.0885C80.7098 24.995 81.0271 26.9935 81.0107 29.0031C81.0272 30.9998 80.7098 32.9853 80.0717 34.8783C79.4845 36.6306 78.5393 38.2428 77.2955 39.6132C76.0707 40.9509 74.5429 42.0035 72.7119 42.771C70.8809 43.5386 68.76 43.9224 66.3493 43.9224C63.9262 43.9224 61.7987 43.5386 59.9669 42.771C58.1351 42.0035 56.6072 40.9509 55.3833 39.6132C54.1408 38.2452 53.2017 36.6319 52.6269 34.8783C52.0014 32.9828 51.6909 30.9983 51.7077 29.0031ZM58.5051 29.0031C58.5051 30.5127 58.7091 31.8414 59.1171 32.989C59.4735 34.049 60.0416 35.0261 60.787 35.8618C61.4772 36.6194 62.3277 37.215 63.277 37.6054C64.252 38.0022 65.2961 38.2027 66.3493 38.1953C67.3769 38.2002 68.3951 37.9996 69.3435 37.6054C70.2851 37.2113 71.1284 36.6161 71.8137 35.8618C72.5593 35.0248 73.13 34.0482 73.4923 32.989C73.9053 31.8414 74.1117 30.5127 74.1117 29.0031C74.1117 27.5346 73.9053 26.2258 73.4923 25.0765C73.1234 24.008 72.5538 23.0193 71.8137 22.163C71.1328 21.3872 70.2897 20.7693 69.3435 20.3527C68.4 19.94 67.3798 19.7297 66.3493 19.7357C65.2933 19.7271 64.2472 19.9372 63.277 20.3527C62.3229 20.7653 61.4725 21.3836 60.787 22.163C60.0471 23.0179 59.4801 24.0072 59.1171 25.0765C58.7099 26.2241 58.5059 27.533 58.5051 29.0031Z" fill="#B3DCDB"/>
<path d="M145.7 29.0029C145.684 26.9949 145.994 24.9975 146.619 23.0883C147.193 21.3259 148.132 19.7031 149.376 18.3251C150.65 16.9454 152.216 15.8634 153.959 15.1562C155.79 14.3887 157.917 14.0049 160.34 14.0049C162.763 14.0049 164.885 14.3887 166.704 15.1562C168.448 15.8632 170.013 16.9453 171.288 18.3251C172.533 19.7051 173.478 21.3268 174.064 23.0883C174.702 24.9948 175.019 26.9933 175.003 29.0029C175.019 30.9996 174.702 32.985 174.064 34.8779C173.477 36.6303 172.532 38.2424 171.288 39.6128C170.062 40.9504 168.534 42.003 166.704 42.7706C164.874 43.5381 162.753 43.9219 160.34 43.9219C157.917 43.9219 155.79 43.5381 153.959 42.7706C152.128 42.003 150.6 40.9504 149.376 39.6128C148.134 38.2445 147.194 36.6313 146.619 34.8779C145.994 32.9823 145.684 30.998 145.7 29.0029ZM152.497 29.0029C152.497 30.5125 152.704 31.8411 153.117 32.9887C153.472 34.0488 154.04 35.026 154.785 35.8614C155.476 36.6191 156.326 37.2146 157.276 37.6051C158.25 38.0017 159.295 38.2022 160.348 38.1949C161.375 38.1998 162.394 37.9992 163.342 37.6051C164.284 37.2109 165.127 36.6157 165.812 35.8614C166.559 35.0251 167.129 34.0483 167.491 32.9887C167.904 31.8411 168.11 30.5125 168.11 29.0029C168.11 27.5344 167.904 26.2256 167.491 25.0763C167.123 24.0074 166.553 23.0185 165.812 22.1628C165.131 21.3871 164.288 20.7692 163.342 20.3526C162.398 19.9399 161.378 19.7296 160.348 19.7356C159.292 19.7271 158.246 19.9372 157.276 20.3526C156.321 20.7652 155.471 21.3835 154.785 22.1628C154.042 23.0168 153.473 24.0062 153.108 25.0763C152.701 26.2239 152.497 27.5328 152.497 29.0029Z" fill="#B3DCDB"/>
<path d="M116.109 14.6553L126.7 43.2734H133.596L123.479 14.6553H116.109Z" fill="#B3DCDB"/>
<path d="M138.167 14.6553C137.066 14.6553 136.01 15.0909 135.232 15.8664C134.453 16.6419 134.016 17.6937 134.016 18.7904C134.016 21.6075 138.167 26.7915 138.167 26.7915C138.167 26.7915 142.319 21.6618 142.319 18.7904C142.319 18.2472 142.212 17.7094 142.003 17.2076C141.795 16.7059 141.489 16.25 141.103 15.866C140.718 15.482 140.26 15.1774 139.756 14.9697C139.252 14.7619 138.712 14.6551 138.167 14.6553Z" fill="#B3DCDB"/>
<path d="M12.1132 3.66699L25.8653 43.0122H33.4729L19.8 3.66699H12.1132Z" fill="#B3DCDB"/>
<path d="M37.1248 3.66699H29.4379L43.1913 43.0122H50.7989L37.1248 3.66699Z" fill="#B3DCDB"/>
<path d="M0 37.9482C0 39.3617 0.563704 40.7173 1.56711 41.7168C2.57052 42.7163 3.93144 43.2778 5.35047 43.2778C6.7695 43.2778 8.13041 42.7163 9.13382 41.7168C10.1372 40.7173 10.7009 39.3617 10.7009 37.9482C10.7009 34.319 5.3517 27.6382 5.3517 27.6382C5.3517 27.6382 0 34.2462 0 37.9482Z" fill="#B3DCDB"/>
<path d="M215.974 15.8654C215.196 15.0899 214.14 14.6543 213.039 14.6543C211.938 14.6543 210.882 15.0899 210.104 15.8654C208.104 17.8569 207.358 24.4473 207.358 24.4473C207.358 24.4473 213.937 23.7439 215.976 21.7141C216.754 20.9383 217.191 19.8863 217.191 18.7895C217.191 17.6927 216.753 16.6408 215.974 15.8654Z" fill="#B3DCDB"/>
<path d="M107.517 28.7078C106.541 28.0314 105.473 27.4978 104.345 27.1233C103.139 26.712 101.859 26.3418 100.505 26.0127L98.4892 25.5401C97.6328 25.3427 96.8197 25.1456 96.05 24.949C95.3554 24.778 94.675 24.5544 94.0146 24.2802C93.4995 24.0764 93.0244 23.784 92.611 23.4164C92.4442 23.2681 92.3111 23.086 92.2208 22.8824C92.1304 22.6787 92.0848 22.4581 92.087 22.2354C92.0741 21.7853 92.2371 21.3478 92.5416 21.015C92.8696 20.6701 93.2674 20.3984 93.7086 20.2178C94.217 20.0046 94.7514 19.859 95.298 19.7847C95.5829 19.7427 95.8641 19.7131 96.1441 19.6922V14.0293C95.4212 14.0512 94.7002 14.1155 93.9848 14.2218C93.0707 14.3604 92.1709 14.581 91.2966 14.8808C90.4597 15.1664 89.6581 15.5456 88.9069 16.0111C88.1855 16.4565 87.5356 17.0077 86.9793 17.6462C86.4265 18.2873 85.989 19.0187 85.686 19.8082C85.3596 20.683 85.1991 21.6107 85.2127 22.5439C85.1718 24.2912 85.8291 25.9832 87.04 27.248C87.617 27.8524 88.2793 28.37 89.006 28.7843C89.7739 29.2259 90.5769 29.604 91.4069 29.9147C92.2636 30.2393 93.1379 30.5157 94.0257 30.7427C94.9218 30.9722 95.7911 31.1721 96.6335 31.3424C97.5155 31.5398 98.3752 31.7398 99.2127 31.9421C99.9739 32.1228 100.72 32.3633 101.443 32.6616C102.024 32.8909 102.555 33.2322 103.003 33.666C103.194 33.8567 103.345 34.0839 103.445 34.3339C103.545 34.584 103.593 34.8517 103.587 35.1209C103.587 35.7651 103.406 36.2899 103.043 36.6955C102.659 37.1186 102.183 37.4487 101.651 37.6605C101.056 37.9038 100.431 38.0661 99.7925 38.143C99.5348 38.1751 99.2833 38.1961 99.0318 38.2171V43.8774C99.593 43.8454 100.147 43.7997 100.712 43.7331C101.722 43.6143 102.72 43.4079 103.695 43.1161C104.624 42.8384 105.519 42.4585 106.363 41.9832C108.029 41.0538 109.3 39.5538 109.94 37.7617C110.306 36.7113 110.484 35.6047 110.465 34.4928C110.465 33.1412 110.201 31.9997 109.675 31.0685C109.141 30.1308 108.404 29.3242 107.517 28.7078Z" fill="#B3DCDB"/>
<path d="M107.537 22.1215C108.072 21.9829 108.573 21.7396 109.012 21.4057C109.451 21.0718 109.818 20.6541 110.093 20.177C110.368 19.6999 110.545 19.1731 110.612 18.6272C110.68 18.0813 110.638 17.5275 110.489 16.998C110.339 16.4685 110.085 15.9741 109.741 15.5437C109.397 15.1132 108.971 14.7554 108.487 14.4911C108.002 14.2268 107.47 14.0614 106.921 14.0046C106.371 13.9477 105.816 14.0006 105.288 14.16C102.514 14.9398 98.6836 20.3125 98.6836 20.3125C98.6836 20.3125 104.816 22.8853 107.537 22.1215Z" fill="#B3DCDB"/>
<path d="M87.8627 35.0384C86.7715 35.1875 85.7845 35.7622 85.1188 36.6362C84.4531 37.5101 84.1632 38.6117 84.3128 39.6986C84.4625 40.7855 85.0395 41.7686 85.9168 42.4317C86.7942 43.0948 87.9001 43.3836 88.9912 43.2346C91.7922 42.852 96.3845 38.0518 96.3845 38.0518C96.3845 38.0518 90.7181 34.6485 87.8627 35.0384Z" fill="#B3DCDB"/>
</svg>
