<svg width="235" height="250" viewBox="0 0 235 250" fill="none" xmlns="http://www.w3.org/2000/svg">
<path d="M43.8741 202.451C46.939 199.069 48.5595 194.651 51.4724 191.218C54.5539 187.82 58.1218 184.895 62.061 182.536C68.8335 178.635 76.2428 175.953 83.9496 174.613C86.4076 173.839 89.0232 173.7 91.5503 174.211C93.7294 174.969 93.5018 177.165 92.1593 178.629C89.8521 180.754 87.138 182.394 84.1795 183.449C80.1329 185.265 75.9887 186.857 71.7659 188.218C61.8856 191.422 51.2705 194.727 44.6596 203.209C44.1531 203.89 42.9621 202.981 43.4686 202.3C48.3318 195.837 55.6277 192.204 63.0759 189.453C70.828 187.011 78.4397 184.148 85.8765 180.874C86.8645 180.395 92.7925 177.543 91.424 175.826C90.9425 175.246 89.549 175.372 88.8903 175.371C87.5003 175.422 86.118 175.599 84.7606 175.901C77.6888 177.034 70.8459 179.291 64.4933 182.587C60.0973 184.979 56.1125 188.055 52.6887 191.698C49.4971 195.156 47.6232 199.675 44.1782 202.83C44.1149 202.871 44.0392 202.89 43.9639 202.882C43.8886 202.874 43.8182 202.841 43.7646 202.787C43.7111 202.734 43.6776 202.664 43.6699 202.589C43.6621 202.514 43.6805 202.438 43.722 202.375L43.8741 202.451Z" fill="#E1DDD7"/>
<path d="M44.3955 202.857C40.9763 208.284 34.9721 210.05 29.3733 212.448C26.308 213.76 23.2426 215.122 20.2786 216.687C17.1374 218.428 14.2054 220.519 11.5391 222.921C11.0578 223.35 10.1963 222.795 10.6269 222.239C14.4008 216.964 21.2409 214.365 26.9916 211.841C32.7423 209.318 39.8108 207.88 43.7874 202.503C44.0406 202.175 44.6234 202.504 44.3955 202.857Z" fill="#E1DDD7"/>
<path d="M59.5737 199.527C54.9016 200.704 50.4466 202.612 46.3745 205.18C44.4579 206.413 42.4605 207.518 40.3958 208.486C39.4029 208.916 38.3881 209.295 37.3557 209.621C36.4698 210.033 35.4937 210.215 34.5181 210.151C34.4434 210.131 34.3756 210.091 34.3216 210.036C34.2677 209.98 34.2296 209.912 34.2115 209.837C34.1933 209.762 34.1957 209.684 34.2184 209.61C34.2411 209.536 34.2833 209.47 34.3406 209.418C35.1727 208.921 36.0929 208.587 37.0514 208.434C38.1914 208.106 39.2808 207.703 40.3955 207.299C42.6079 206.422 44.7291 205.331 46.729 204.043C50.6165 201.584 54.9721 199.952 59.5229 199.249C59.5565 199.249 59.5888 199.263 59.6125 199.286C59.6363 199.31 59.6496 199.342 59.6496 199.375C59.6497 199.409 59.6363 199.441 59.6126 199.465C59.5888 199.488 59.5566 199.502 59.523 199.502L59.5737 199.527Z" fill="#E1DDD7"/>
<path d="M55.5727 200.079C71.7621 194.273 88.9895 184.553 106.676 188.901C109.21 189.533 117.724 191.303 116.812 195.495C116.078 198.601 112.075 198.676 109.566 198.549C104.195 198.27 98.7474 198.673 93.3505 198.773C87.2442 198.923 81.1379 198.771 75.0062 198.946C68.5856 199.143 62.1817 199.706 55.8262 200.634C55.7165 200.637 55.6091 200.603 55.5218 200.537C55.4344 200.471 55.3722 200.377 55.3456 200.271C55.319 200.165 55.3295 200.053 55.3754 199.954C55.4213 199.854 55.4998 199.774 55.5979 199.725C65.1496 196.999 75.5127 197.355 85.3436 197.332C90.4111 197.333 95.7065 197.183 100.875 197.032C103.181 197.033 105.461 196.907 107.767 197.034C109.639 197.275 111.536 197.224 113.392 196.883C114.228 196.606 115.545 195.823 115.292 194.762C115.038 193.701 114.075 193.398 113.442 193.019C111.254 191.864 108.918 191.014 106.499 190.492C100.141 189.001 93.5236 189 87.1664 190.488C76.3985 192.784 66.518 198.06 55.7501 200.382C55.5981 200.382 55.5473 200.205 55.75 200.154L55.5727 200.079Z" fill="#E1DDD7"/>
<path d="M84.0261 210.006C76.4626 209.074 68.8391 208.718 61.2218 208.94C58.2826 209.091 55.3435 209.369 52.379 209.596C48.8318 209.873 45.2591 209.973 41.7119 210.327C39.1782 210.579 36.7965 210.983 34.3642 211.463C32.3321 212.054 30.2565 212.484 28.1566 212.75C27.5738 212.75 27.447 212.017 27.8777 211.714C29.5354 210.82 31.3506 210.254 33.2237 210.047C35.2759 209.643 37.3536 209.315 39.4566 209.088C43.2572 208.659 47.0579 208.71 50.9092 208.458C57.0479 207.878 63.2152 207.651 69.3804 207.779C74.3408 208.067 79.2812 208.633 84.178 209.475C84.4821 209.476 84.4062 210.032 84.1781 210.006L84.0261 210.006Z" fill="#E1DDD7"/>
<path d="M79.7222 208.911C84.5869 208.508 89.4517 208.382 94.291 207.828C99.1304 207.273 103.488 206.516 108.125 205.936C112.718 205.294 117.373 205.218 121.984 205.712C125.082 205.851 128.125 206.571 130.954 207.835C132.551 208.77 133.489 210.715 131.791 212.054C130.009 213.114 127.988 213.713 125.913 213.795C121.581 214.375 117.248 214.829 112.89 215.131C108.15 215.61 103.378 215.685 98.6253 215.355C94.8879 214.907 91.2095 214.06 87.6536 212.827C84.2075 211.741 80.6854 210.679 77.3405 209.264C76.8591 209.062 77.3403 208.329 77.6951 208.456C83.4977 209.998 89.1484 211.994 95.0523 213.208C102.857 214.826 111.268 213.817 119.123 213.086C122.114 212.89 125.091 212.528 128.041 212.002C129.009 211.895 129.946 211.604 130.803 211.144C132.272 210.109 130.549 208.997 129.434 208.618C128.148 208.161 126.813 207.855 125.456 207.708C123.733 207.405 122.035 207.076 120.262 206.924C116.12 206.641 111.961 206.775 107.846 207.325C98.5478 208.41 89.1734 210.327 79.7477 209.618C79.6603 209.618 79.5765 209.583 79.5147 209.522C79.4529 209.46 79.4182 209.377 79.4182 209.29C79.4182 209.203 79.4529 209.119 79.5146 209.058C79.5764 208.996 79.6602 208.961 79.7475 208.961L79.7222 208.911Z" fill="#E1DDD7"/>
<path d="M64.5729 95.7626C63.2571 100.28 60.7258 104.293 59.3594 108.786C58.1012 113.678 57.6575 118.743 58.0458 123.778C58.1988 128.827 58.4277 133.648 58.0489 138.57C57.7267 143.357 57.0078 148.11 55.8995 152.78C54.7358 158.109 53.0403 163.309 50.8384 168.302C50.4588 169.109 49.0153 168.528 49.3443 167.67C53.1509 158.577 55.5564 148.961 56.4791 139.15C56.744 134.223 56.7429 129.286 56.4759 124.359C56.1717 119.681 56.5719 114.985 57.6631 110.426C59.156 105.202 62.371 100.76 64.1424 95.5101C64.1663 95.4624 64.2062 95.4246 64.2552 95.4033C64.3043 95.382 64.3593 95.3786 64.4106 95.3936C64.4619 95.4087 64.5063 95.4412 64.536 95.4856C64.5657 95.53 64.5787 95.5834 64.5729 95.6364L64.5729 95.7626Z" fill="#E1DDD7"/>
<path d="M110.525 151.752C100.005 151.768 89.5433 153.297 79.4627 156.291C74.4207 157.794 69.5002 159.676 64.7431 161.919C59.9802 164.165 55.6482 166.967 51.0881 169.491C50.1507 170.021 48.9849 168.657 49.8969 167.925C54.1819 164.789 58.8356 162.187 63.7546 160.176C68.6131 157.981 73.6258 156.143 78.753 154.675C89.0403 151.584 99.8009 150.354 110.525 151.045C110.956 151.045 110.981 151.752 110.525 151.752Z" fill="#E1DDD7"/>
<path d="M165.51 81.9131C137.231 94.53 111.091 111.446 88.0232 132.056C64.9437 152.755 44.4341 176.133 26.9316 201.69C21.7419 209.012 16.9321 216.594 12.5212 224.406C10.2758 228.354 8.25513 232.424 6.4689 236.598C4.79769 240.586 3.5319 244.726 2.16471 248.815C1.83558 249.774 0.163481 249.673 0.289918 248.562C1.12432 240.989 4.74552 233.644 8.21489 226.955C12.0292 219.67 16.2569 212.609 20.8775 205.803C29.5909 192.877 38.9923 180.424 49.0413 168.499C69.1102 144.34 92.5401 123.162 118.621 105.607C133.262 95.8639 148.873 87.6532 165.206 81.1053C165.611 80.9286 165.916 81.6355 165.51 81.8121L165.51 81.9131Z" fill="#E1DDD7"/>
<path d="M61.1943 103.438C62.4972 99.3257 64.0703 95.3037 65.9036 91.3979C67.6001 87.4604 69.4232 83.5986 71.4743 79.8379C74.8169 73.8308 78.514 66.5617 84.7704 63.13C85.8343 62.5497 87.3035 61.9946 87.9118 63.4589C88.2469 65.2241 88.0261 67.0492 87.2796 68.684C85.4383 73.8745 82.8816 78.7844 79.6829 83.2727C74.8658 91.0465 68.7896 97.9713 61.7011 103.766C60.8652 104.447 59.649 103.235 60.5102 102.554C66.3142 98.0365 71.4325 92.7068 75.7064 86.7301C77.859 83.7014 79.885 80.5465 81.8349 77.3916C83.0377 75.5402 84.0959 73.5994 85.0002 71.5864C85.7699 69.8443 86.38 68.0365 86.823 66.1848C87.0693 65.4712 87.1302 64.707 86.9999 63.9635C86.6197 63.0042 85.5053 63.9632 84.872 64.2407C79.1475 67.5968 75.729 74.3359 72.5636 79.7876C70.4728 83.5182 68.5712 87.3511 66.8662 91.2719C65.0685 95.3356 63.6508 99.6518 61.5997 103.589C61.5796 103.639 61.5402 103.68 61.4903 103.701C61.4405 103.722 61.3841 103.723 61.3337 103.703C61.2833 103.683 61.243 103.643 61.2216 103.594C61.2002 103.544 61.1995 103.488 61.2197 103.438L61.1943 103.438Z" fill="#E1DDD7"/>
<path d="M55.3375 112.853C51.6891 104.346 52.4467 94.5775 53.8883 85.6931C55.5575 75.5971 58.7209 65.5014 59.1239 55.1275C59.1232 52.1743 59.4514 47.1262 55.3995 46.671C51.3476 46.2158 49.5508 51.7179 48.5131 54.5699C45.0711 64.3374 46.1623 74.7621 47.6585 84.8588C48.4988 89.5784 49.7799 94.2095 51.4853 98.6916C53.4289 103.151 55.0051 107.76 56.1984 112.474C56.1985 113.08 55.4643 113.559 55.1349 112.928C53.1511 108.793 51.4579 104.525 50.0675 100.155C48.4061 95.7714 47.0927 91.2644 46.1394 86.6758C45.2094 81.5484 44.6582 76.3599 44.4901 71.1523C44.2352 65.7315 44.9281 60.3082 46.538 55.1248C47.6515 51.6923 49.0686 47.023 52.6896 45.4084C53.841 44.8978 55.1337 44.7974 56.351 45.1239C57.5682 45.4505 58.636 46.1841 59.3754 47.2019C60.2812 48.5348 60.7585 50.1108 60.7438 51.7203C60.8285 54.529 60.6851 57.3399 60.3151 60.1254C59.6832 65.5016 58.5447 70.8019 57.3809 76.1023C55.9286 82.1073 54.8892 88.2043 54.27 94.3508C53.7676 100.444 54.3432 106.578 55.9705 112.474C55.9706 112.827 55.4895 113.105 55.3375 112.752L55.3375 112.853Z" fill="#E1DDD7"/>
<path d="M54.0211 106.868C56.3955 110.841 57.6719 115.37 57.7205 119.993C57.9489 122.517 58.1519 125.042 58.2285 127.742L58.2293 131.629C58.3616 132.905 58.2762 134.194 57.9769 135.441C57.928 135.586 57.8345 135.713 57.7096 135.802C57.5847 135.892 57.4347 135.94 57.2807 135.94C57.1268 135.94 56.9767 135.892 56.8517 135.802C56.7268 135.712 56.6332 135.586 56.5843 135.44C56.3474 134.278 56.2874 133.087 56.4064 131.907L56.4055 128.02C56.405 125.496 56.2526 123.224 56.0749 120.826C55.9746 118.501 55.7459 116.184 55.3898 113.885C54.888 111.59 54.1405 109.356 53.1604 107.221C52.9324 106.691 53.7172 106.464 54.0211 106.868Z" fill="#E1DDD7"/>
<path d="M44.4245 141.527C38.9772 134.105 36.1889 124.487 34.5153 115.703C32.8427 106.391 31.9007 96.9641 31.6977 87.5072C31.6971 84.6044 30.7083 80.2121 27.7698 78.7727C26.9233 78.4707 25.9993 78.4635 25.1483 78.7521C24.2974 79.0407 23.5698 79.6082 23.0843 80.3619C21.8554 82.1184 21.2416 84.2296 21.3379 86.3691C21.1138 90.8585 21.3609 95.3592 22.0753 99.7979C23.0435 104.834 24.53 109.757 26.511 114.49C28.346 119.181 30.6732 123.665 33.4541 127.869C36.382 132.098 39.9452 135.853 44.0187 139.003C44.652 139.533 43.8164 140.568 43.1324 140.139C34.9754 135.089 29.6544 126.101 25.9291 117.417C23.7719 112.614 22.0747 107.619 20.8601 102.498C19.9058 97.6017 19.4801 92.6174 19.5905 87.6308C19.5896 83.7688 20.222 79.5788 23.8689 77.535C24.4861 77.1715 25.1737 76.9428 25.8864 76.8639C26.599 76.7851 27.3204 76.8579 28.0028 77.0775C28.6852 77.2972 29.3131 77.6587 29.845 78.1382C30.3769 78.6176 30.8006 79.2041 31.0882 79.8588C33.2926 83.3426 33.1921 87.4318 33.3703 91.2686C33.5993 96.5441 33.9804 101.845 34.6148 107.095C35.2713 112.969 36.4163 118.778 38.0379 124.462C39.8306 130.252 42.1199 135.877 44.8804 141.275C44.9127 141.308 44.9371 141.347 44.9519 141.391C44.9667 141.434 44.9713 141.48 44.9656 141.526C44.9598 141.571 44.9437 141.615 44.9186 141.653C44.8934 141.692 44.8599 141.724 44.8204 141.747C44.781 141.771 44.7367 141.785 44.6909 141.789C44.645 141.793 44.5989 141.787 44.5559 141.771C44.5129 141.754 44.4741 141.728 44.4426 141.695C44.4111 141.662 44.3876 141.622 44.3739 141.578L44.4245 141.527Z" fill="#E1DDD7"/>
<path d="M43.2248 138.417C45.4292 140.697 47.0762 143.453 48.0377 146.47C49.2393 149.539 50.007 152.758 50.3187 156.037C50.6025 159.23 50.467 162.446 49.9155 165.603C49.6504 168.874 48.5243 172.017 46.6509 174.715C46.1446 175.295 45.4354 174.714 45.5113 174.058C45.868 172.628 46.3333 171.228 46.9031 169.868C47.3864 168.39 47.7668 166.881 48.0416 165.351C48.5762 162.293 48.7117 159.18 48.4449 156.087C48.1766 153.054 47.5469 150.062 46.5692 147.177C46.0387 145.601 45.3952 144.066 44.6437 142.583C43.9119 141.355 43.2439 140.092 42.6425 138.796C42.6424 138.443 42.9969 138.266 43.2248 138.468L43.2248 138.417Z" fill="#E1DDD7"/>
<path d="M108.725 151.218C115.237 149.249 121.875 147.887 128.487 146.373C134.315 144.879 140.242 143.801 146.223 143.145C149.451 142.883 152.699 142.994 155.902 143.475C158.283 143.854 161.476 144.587 162.667 146.961C163.859 149.335 162.086 152.416 160.287 154.006C158.218 155.6 155.744 156.587 153.143 156.858C145.544 157.737 137.856 157.463 130.339 156.045C123.067 155.008 115.896 153.517 108.675 152.076C108.067 152.076 108.193 150.965 108.675 150.99C114.3 151.396 119.823 152.71 125.347 153.519C132.664 154.915 140.094 155.635 147.543 155.67C152.205 155.671 160.338 155.016 161.401 149.082C161.882 146.33 158.486 145.369 156.333 144.914C153.235 144.334 150.076 144.155 146.932 144.382C141.052 144.898 135.222 145.884 129.501 147.333C122.559 148.897 115.668 150.638 108.649 151.697C108.576 151.717 108.497 151.707 108.43 151.67C108.364 151.632 108.315 151.569 108.295 151.495C108.275 151.422 108.285 151.343 108.323 151.277C108.361 151.21 108.423 151.162 108.497 151.142L108.725 151.218Z" fill="#E1DDD7"/>
<path d="M105.462 145.59C102.264 147.722 98.8714 149.547 95.3284 151.042C92.0168 152.644 88.466 153.701 84.8145 154.17C84.4597 154.17 84.409 153.64 84.8143 153.539C91.9949 151.688 98.8354 148.716 105.082 144.731C105.538 144.454 105.943 145.161 105.513 145.464L105.462 145.59Z" fill="#E1DDD7"/>
<path d="M101.611 147.206C105.213 143.924 108.638 140.452 111.87 136.807C115.291 133.168 119.256 130.078 123.624 127.645C128.228 125.227 133.014 123.168 137.937 121.487C142.365 119.468 147.156 118.362 152.024 118.233C154.557 118.234 159.017 118.841 159.98 121.719C160.639 123.663 158.613 125.102 157.169 125.96C154.761 127.296 152.212 128.363 149.568 129.14L139.992 132.167C134.089 134.06 128.135 135.901 122.258 137.996C116.312 140.217 110.486 142.744 104.803 145.566C104.683 145.617 104.55 145.622 104.426 145.582C104.303 145.541 104.199 145.457 104.134 145.346C104.068 145.234 104.046 145.102 104.071 144.975C104.097 144.849 104.167 144.735 104.27 144.657C108.356 142.087 112.725 139.995 117.292 138.424C121.928 136.607 126.666 135.068 131.403 133.554C138.193 131.384 145.084 129.517 151.671 127.146C154.111 126.551 156.366 125.363 158.232 123.688C160.537 120.962 154.406 119.799 152.759 119.673C148.217 119.534 143.702 120.395 139.534 122.195C134.81 123.799 130.197 125.713 125.727 127.923C120.853 130.385 116.44 133.663 112.681 137.615C109.362 141.098 106.221 145.188 101.915 147.711C101.661 147.711 101.383 147.509 101.611 147.307L101.611 147.206Z" fill="#E1DDD7"/>
<path d="M100.595 158.01C94.3873 158.16 88.1796 158.159 81.9974 158.789C75.6921 159.554 69.4393 160.7 63.2735 162.221C63.1558 162.229 63.039 162.196 62.9432 162.127C62.8473 162.059 62.7784 161.959 62.7484 161.845C62.7183 161.731 62.729 161.611 62.7786 161.504C62.8282 161.397 62.9135 161.311 63.0199 161.261C69.0061 159.394 75.1705 158.151 81.4143 157.551C87.7733 156.681 94.2166 156.606 100.595 157.327C101 157.328 101.051 158.01 100.595 158.01Z" fill="#E1DDD7"/>
<path d="M95.7074 156.915C100.852 157.295 106.018 157.296 111.163 156.919C116.188 156.806 121.214 157.111 126.188 157.831C131.206 158.612 136.142 159.847 140.935 161.521C144.42 162.362 147.713 163.854 150.64 165.917C152.136 167.256 153.023 169.655 150.87 170.817C148.694 171.629 146.336 171.829 144.054 171.396C136.34 170.636 128.773 168.789 121.579 165.911C117.854 164.471 114.18 162.904 110.404 161.616C105.587 160.021 100.68 158.713 95.7076 157.698C95.3022 157.698 95.3781 156.89 95.7074 156.941C103.227 157.883 110.578 159.865 117.549 162.829C123.882 165.404 130.427 167.425 137.111 168.869C140.155 169.564 143.263 169.945 146.385 170.008C148.006 170.008 152.01 169.857 149.805 167.483C148.614 166.344 147.187 165.482 145.624 164.957C143.9 164.274 142.152 163.643 140.404 163.011C136.114 161.516 131.707 160.383 127.228 159.624C122.023 158.736 116.746 158.337 111.468 158.434C106.168 158.767 100.847 158.503 95.6062 157.648C95.1502 157.648 95.2513 156.814 95.6061 156.865L95.7074 156.915Z" fill="#E1DDD7"/>
<path d="M93.7933 107.908C92.9012 114.012 91.3832 120.008 89.263 125.803C88.2788 128.2 87.0394 130.485 85.5662 132.618C84.292 134.876 82.4838 136.791 80.2986 138.195C79.8174 138.422 79.108 137.917 79.4878 137.362C80.2673 136.459 81.1138 135.615 82.0204 134.838C82.9889 133.814 83.8778 132.717 84.6794 131.557C86.102 129.456 87.3228 127.225 88.3255 124.894C90.5669 119.42 92.2625 113.739 93.388 107.933C93.3879 107.605 93.9452 107.731 93.8946 107.933L93.7933 107.908Z" fill="#E1DDD7"/>
<path d="M92.2145 111.062C94.8939 102.658 98.6468 94.6333 103.381 87.1846C107.554 80.2836 112.912 74.1673 119.21 69.1144C121.185 67.6003 127.619 64.0677 124.857 60.7099C122.095 57.352 116.143 60.0012 113.331 61.6666C106.036 65.9815 101.808 74.5883 98.9467 82.2362C97.2617 86.9189 95.8917 91.7085 94.8459 96.573C93.5076 101.951 92.971 107.496 93.2536 113.031C93.2538 114.04 91.7338 114.04 91.6576 113.03C91.3968 107.946 91.8389 102.849 92.9716 97.8852C93.969 92.9641 95.2967 88.1154 96.9457 83.3717C99.8318 75.3956 104.086 66.5617 111.279 61.5904C114.387 59.2139 118.263 58.0562 122.171 58.3365C125.135 58.7662 127.238 61.1647 125.972 64.1178C125.343 65.4602 124.385 66.6232 123.187 67.4997C121.338 68.8877 119.463 70.1999 117.716 71.7141C114.112 74.816 110.852 78.2933 107.99 82.0866C104.775 86.4493 101.937 91.0762 99.507 95.9177C96.9748 100.966 94.8733 106.14 92.5185 111.238C92.5186 111.466 92.0372 111.238 92.1132 111.062L92.2145 111.062Z" fill="#E1DDD7"/>
<path d="M126.354 84.8653C124.249 87.4663 122.288 90.1792 120.478 92.9921C118.754 95.995 117.265 99.1256 116.022 102.356C114.788 105.359 113.217 108.212 111.337 110.862C109.681 113.406 107.549 115.608 105.056 117.348C105.006 117.388 104.949 117.417 104.888 117.435C104.826 117.453 104.762 117.458 104.698 117.451C104.635 117.444 104.573 117.424 104.517 117.394C104.461 117.363 104.412 117.322 104.372 117.272C104.332 117.222 104.302 117.165 104.285 117.104C104.267 117.043 104.261 116.979 104.268 116.915C104.275 116.852 104.295 116.791 104.326 116.735C104.357 116.679 104.398 116.63 104.448 116.59C105.436 115.455 106.651 114.521 107.69 113.436C108.875 112.177 109.959 110.827 110.932 109.398C112.762 106.669 114.323 103.77 115.591 100.74C116.804 97.7162 118.278 94.8027 119.997 92.0328C121.797 89.3904 123.759 86.8617 125.872 84.4613C126.151 84.1584 126.708 84.5877 126.455 84.9158L126.354 84.8653Z" fill="#E1DDD7"/>
<path d="M122.206 88.8023C130.868 76.1818 141.228 64.4199 156.428 59.9296C158.784 59.2485 162.736 58.6182 164.612 60.7645C165.803 62.1027 164.612 63.6424 163.599 64.6267C161.869 66.1475 160.023 67.5313 158.077 68.7656C154.512 71.1834 150.798 73.3748 146.956 75.3269C142.903 77.4718 138.799 79.4905 134.771 81.7112C130.743 83.9319 126.791 86.7585 122.789 89.4083C122.181 89.7868 121.547 88.9284 122.029 88.4236C124.592 85.9718 127.481 83.8828 130.616 82.2152C133.783 80.373 137.101 78.7581 140.394 77.1684C146.882 74.0533 153.168 70.5388 159.217 66.6453C160.762 65.6106 162.991 64.4751 163.827 62.7081C164.435 61.4965 163.32 61.0166 162.256 60.7134C160.427 60.3184 158.521 60.4762 156.783 61.1667C149.911 63.3698 143.578 66.9799 138.189 71.7655C132.659 77.2132 127.482 83.0048 122.687 89.1053C122.459 89.3577 122.003 89.1052 122.206 88.7266L122.206 88.8023Z" fill="#E1DDD7"/>
<path d="M121.014 117.55C117.963 118.768 115.008 120.211 112.172 121.865C109.385 123.506 106.675 125.323 103.761 126.736C100.877 128.02 97.9255 129.149 94.9197 130.118L90.2581 131.783C88.731 132.545 87.071 133.008 85.3685 133.145C84.9377 133.145 84.6082 132.539 84.9882 132.211C86.1959 131.404 87.5451 130.83 88.9657 130.52C90.6124 129.965 92.2845 129.435 94.0326 128.905C97.4263 127.923 100.745 126.7 103.964 125.247C106.776 123.833 109.436 122.168 112.223 120.704C115.028 119.25 117.952 118.034 120.963 117.07C121.267 117.07 121.368 117.423 120.963 117.55L121.014 117.55Z" fill="#E1DDD7"/>
<path d="M115.593 119.24C117.62 119.241 119.394 117.095 120.939 115.984C122.484 114.874 124.308 113.687 126.006 112.627C129.321 110.605 132.775 108.817 136.342 107.276C143.408 103.927 150.927 101.623 158.662 100.438C161.232 99.9058 163.907 100.244 166.263 101.399C167.784 102.258 168.798 103.925 167.81 105.49C167.076 106.458 166.044 107.159 164.871 107.484C162.891 108.209 160.858 108.782 158.791 109.2C154.788 110.032 150.734 110.486 146.705 111.243C142.196 112.1 137.737 113.412 133.278 114.598C128.819 115.784 123.904 117.424 119.14 118.534C118.608 118.534 118.203 117.827 118.76 117.574C122.22 116.224 125.777 115.136 129.401 114.319C133.151 113.336 137.002 112.402 140.65 111.443C147.668 109.627 154.939 109.3 161.932 107.458C163.579 107.03 166.011 106.576 166.999 104.935C167.987 103.293 166.466 102.536 165.301 102.005C162.296 100.979 159.044 100.917 156.002 101.826C152.375 102.568 148.816 103.606 145.361 104.93C141.941 106.141 138.546 107.453 135.227 108.867C131.674 110.468 128.237 112.315 124.942 114.394C123.295 115.429 121.699 116.54 120.128 117.651C119.536 118.249 118.83 118.725 118.051 119.049C117.273 119.374 116.438 119.542 115.594 119.543C115.416 119.543 115.416 119.24 115.593 119.24Z" fill="#E1DDD7"/>
<path d="M158.114 83.9317C163.814 80.0194 169.691 76.3596 175.366 72.3715C180.703 68.4432 186.423 65.0609 192.441 62.2757C198.3 59.8064 204.458 58.1101 210.758 57.2298C213.831 56.7639 216.926 56.4612 220.031 56.3229C222.109 56.115 224.207 56.304 226.213 56.8796C226.717 56.9791 227.188 57.1998 227.586 57.5225C227.984 57.8452 228.296 58.2601 228.496 58.7308C228.696 59.2016 228.778 59.714 228.733 60.2232C228.689 60.7324 228.52 61.223 228.241 61.6521C226.418 64.2618 223.888 66.3014 220.946 67.5334C217.334 69.1211 213.551 70.2894 209.672 71.0154C204.782 72.1758 199.867 73.2351 194.977 74.3198C188.719 75.7576 182.461 77.2207 176.305 78.9868C170.148 80.7529 164.397 82.7716 158.571 84.8912C158.013 85.0931 157.633 84.2093 158.165 83.9569C167.234 79.2879 177.597 76.9167 187.477 74.5959C196.472 72.477 205.592 70.7872 214.536 68.441C218.079 67.6318 221.417 66.1026 224.34 63.9488C225.505 63.0401 228.849 60.2635 226.873 58.6977C225.314 57.8915 223.55 57.5659 221.805 57.7624C218.963 57.8081 216.128 58.0437 213.317 58.4676C207.124 59.1632 201.035 60.5857 195.177 62.7055C188.786 65.3491 182.731 68.7379 177.14 72.8011C171.237 77.1637 165.069 81.1592 158.672 84.765C158.617 84.7965 158.556 84.8169 158.494 84.825C158.431 84.8332 158.367 84.8289 158.306 84.8125C158.245 84.7961 158.187 84.7678 158.137 84.7293C158.087 84.6908 158.045 84.6428 158.013 84.5881C157.981 84.5334 157.961 84.473 157.953 84.4104C157.945 84.3478 157.949 84.2842 157.965 84.2233C157.982 84.1623 158.01 84.1052 158.049 84.0552C158.087 84.0051 158.135 83.9632 158.19 83.9317L158.114 83.9317Z" fill="#E1DDD7"/>
<path d="M186.124 41.6319C179.742 50.5161 175.463 60.663 169.41 69.7492C167.102 73.3243 164.344 76.5898 161.204 79.4661C158.265 81.9898 155.125 84.5135 151.958 86.8604C148.802 89.3906 145.409 91.6131 141.826 93.4972C141.683 93.5615 141.522 93.5707 141.372 93.5231C141.223 93.4754 141.097 93.3742 141.018 93.2392C140.939 93.1041 140.913 92.9447 140.946 92.7918C140.978 92.639 141.066 92.5035 141.193 92.4116C147.272 88.0963 153.478 83.9578 159.177 79.1628C166.396 73.0807 171.081 64.6252 175.715 56.4474C178.619 51.1598 181.841 46.0521 185.364 41.1521C185.668 40.7735 186.301 41.1523 186.023 41.5309L186.124 41.6319Z" fill="#E1DDD7"/>
<path d="M179.646 50.2641C181.651 45.2289 183.951 40.3153 186.534 35.5486C188.754 30.8402 191.363 26.3235 194.334 22.045C198.558 15.9511 204.435 11.1808 211.279 8.29091C213.382 7.43308 222.451 3.54752 222.452 8.47001C222.24 10.1904 221.455 11.7901 220.223 13.0134C218.946 14.5905 217.584 16.0986 216.145 17.5311C212.944 20.6694 209.561 23.6188 206.014 26.3641C197.902 32.4317 190.116 38.9181 182.685 45.7966C182.28 46.2004 181.747 45.6197 182.077 45.1907C186.914 39.007 193.804 34.389 200.01 29.6698C206.745 24.9595 212.997 19.6002 218.678 13.6694C219.995 12.2308 221.996 10.237 221.692 8.19217C221.539 7.10667 220.577 6.82878 219.589 6.85381C216.989 7.08472 214.463 7.83996 212.166 9.07364C205.832 11.8417 200.319 16.187 196.158 21.692C193.034 26.0083 190.304 30.5951 188.003 35.3974C185.471 40.4456 183.445 45.8725 180.406 50.5419C180.153 50.8953 179.494 50.5417 179.646 50.2136L179.646 50.2641Z" fill="#E1DDD7"/>
<path d="M178.927 36.8108C175.94 43.0701 175.08 49.8851 173.663 56.599C173.101 59.6249 172.253 62.591 171.132 65.4582C170.566 66.7981 169.906 68.0969 169.157 69.3449C168.582 70.5992 167.714 71.6981 166.625 72.55C166.556 72.5947 166.474 72.617 166.391 72.614C166.309 72.611 166.229 72.5829 166.163 72.5334C166.097 72.4839 166.047 72.4155 166.021 72.3372C165.995 72.2589 165.994 72.1746 166.017 72.0956C166.662 70.8217 167.416 69.6057 168.271 68.4613C169.068 67.1364 169.762 65.7526 170.347 64.3221C171.525 61.3363 172.473 58.2649 173.182 55.1349C174.361 48.8096 176.228 42.6315 178.75 36.7098C178.75 36.5079 179.18 36.7099 179.054 36.9118L178.927 36.8108Z" fill="#E1DDD7"/>
<path d="M177.442 39.3094C178.935 32.4185 181.771 26.0327 183.999 19.3944C185.577 13.5463 188.638 8.20124 192.887 3.87217C194.204 2.36973 195.987 1.34851 197.953 0.97035C198.407 0.970436 198.857 1.06015 199.277 1.23434C199.697 1.40853 200.078 1.66375 200.398 1.98528C200.718 2.30681 200.972 2.68831 201.144 3.10777C201.315 3.52723 201.402 3.97638 201.399 4.42933C201.285 5.76657 200.87 7.06082 200.184 8.21545C199.48 9.70176 198.685 11.1432 197.803 12.5314C196.02 15.3438 194.084 18.0568 192.004 20.6583C189.471 23.8383 186.939 26.9426 184.406 30.1731C181.874 33.4036 180.177 36.4576 178.126 39.663C177.771 40.2182 176.783 39.8646 177.037 39.2084C178.986 33.8826 183.19 29.1126 186.736 24.8979C190.835 20.2233 194.536 15.2173 197.803 9.93142C198.74 8.26561 201.703 3.3187 198.51 2.3588C196.686 1.82831 194.508 4.02395 193.445 5.15964C189.551 9.31867 186.697 14.3339 185.113 19.7986C182.81 26.4116 180.05 32.8226 177.999 39.562C177.979 39.6356 177.93 39.6982 177.864 39.7361C177.797 39.7739 177.719 39.7839 177.645 39.7638C177.571 39.7437 177.508 39.6952 177.47 39.6289C177.432 39.5626 177.422 39.484 177.442 39.4104L177.442 39.3094Z" fill="#E1DDD7"/>
<path d="M165.938 93.9792C155.651 93.3296 145.328 94.3687 135.381 97.055C134.798 97.2064 134.367 96.3222 134.95 96.0444C139.132 94.1988 143.61 93.1132 148.176 92.8388C154.087 92.3783 160.03 92.5234 165.912 93.2719C166.368 93.272 166.368 94.0046 165.912 93.9792L165.938 93.9792Z" fill="#E1DDD7"/>
<path d="M166.497 93.5698C174.389 94.055 182.122 96.0005 189.301 99.3068C196.903 102.743 203.998 106.886 212.334 108.352C214.868 108.756 219.936 109.515 221.912 107.243C223.887 104.971 219.377 102.52 217.755 101.686C210.812 98.2573 203.329 96.0434 195.635 95.1416C185.919 94.0625 176.135 93.7396 166.37 94.1758C165.889 94.1757 165.914 93.4939 166.37 93.4435C176.121 92.6416 185.929 92.8637 195.634 94.1062C203.555 94.8606 211.277 97.0171 218.439 100.475C220.492 101.485 223.507 103.001 223.837 105.526C224.167 108.051 221.735 109.541 219.48 109.97C215.712 110.484 211.875 110.147 208.255 108.982C203.961 107.729 199.809 106.036 195.864 103.929C191.387 101.508 186.747 99.3977 181.978 97.6134C176.933 95.8965 171.73 94.6774 166.446 93.9738C166.167 93.9738 166.142 93.5192 166.446 93.5193L166.497 93.5698Z" fill="#E1DDD7"/>
<path d="M177.062 92.9966C179.596 92.1385 182.129 91.5076 184.663 90.6242C187.196 89.7409 190.009 88.6303 192.618 87.5196C197.406 85.475 202.119 83.3041 207.034 81.7141C212.09 79.9511 217.443 79.1887 222.793 79.4697C225.859 79.7229 229.812 79.8248 232.371 81.6941C234.145 82.9067 234.677 84.8009 232.803 85.9622C230.503 87.133 227.983 87.812 225.405 87.9558C221.072 88.561 216.714 88.9894 212.382 89.5441C207.593 90.1745 202.779 90.7796 197.99 91.3847C192.036 92.0905 186.057 93.0742 180.052 93.4265C179.952 93.4224 179.857 93.3837 179.782 93.3172C179.708 93.2506 179.659 93.1603 179.644 93.0618C179.629 92.9633 179.649 92.8626 179.7 92.7771C179.751 92.6916 179.831 92.6265 179.925 92.5931C184.612 91.6344 189.401 91.1808 194.139 90.601C198.421 90.0463 202.728 89.5421 207.01 89.0379C211.292 88.5337 216.08 87.9791 220.616 87.3992C223.149 87.0714 225.683 86.7689 228.065 86.239C229.027 86.0119 233.588 85.3058 232.473 83.7145C231.328 82.5315 229.784 81.8117 228.14 81.6932C226.513 81.404 224.872 81.2013 223.224 81.0861C218.074 80.7526 212.91 81.4294 208.022 83.078C202.778 84.7437 197.736 87.0408 192.669 89.1612C187.781 91.5967 182.496 93.1435 177.062 93.729C177.012 93.7123 176.967 93.6802 176.936 93.6371C176.905 93.594 176.888 93.5422 176.888 93.489C176.888 93.4358 176.905 93.384 176.936 93.3409C176.967 93.2978 177.012 93.2657 177.062 93.2491L177.062 92.9966Z" fill="#E1DDD7"/>
</svg>
