<svg width="157" height="290" viewBox="0 0 157 290" fill="none" xmlns="http://www.w3.org/2000/svg">
<path d="M91.1259 0.940543C87.4275 7.52648 84.5041 14.5166 82.4145 21.7706C79.9095 29.6089 77.9678 37.6144 76.6044 45.7258C76.0443 48.83 75.6953 51.9679 75.5597 55.1179C75.5625 60.0789 75.8451 65.0348 76.4063 69.9621C77.3921 81.8324 79.2054 93.6343 79.4756 105.551C79.8213 128.285 75.993 150.904 68.181 172.286C60.7344 192.547 50.6012 211.726 38.0536 229.305C26.1738 246.139 12.3948 262.17 4.42396 281.412C3.45841 283.783 2.51514 286.2 1.61659 288.616C1.5599 288.823 1.4231 289 1.23631 289.107C1.04952 289.215 0.828045 289.244 0.620584 289.188C0.413123 289.132 0.236668 288.995 0.130055 288.809C0.0234493 288.623 -0.00459779 288.401 0.0520938 288.194C2.97516 278.399 7.40419 269.113 13.18 260.671C18.7851 251.897 25.1049 243.614 31.2459 235.219C44.3403 217.868 55.1986 198.942 63.5635 178.889C72.248 157.756 77.0803 135.25 77.8315 112.44C77.7891 100.587 77.0629 88.7484 75.6564 76.9837C74.822 68.042 73.6081 58.7656 74.8311 49.7533C75.9398 41.9944 77.6424 34.33 79.9238 26.8277C82.0626 19.2158 84.8662 11.8043 88.3021 4.67913C89.0201 3.26936 89.7827 1.88187 90.5452 0.539095C90.747 0.225739 91.2831 0.537833 91.059 0.851226L91.1259 0.940543Z" fill="#E1DDD7"/>
<path d="M17.2914 255.237C19.154 249.825 21.1058 244.48 22.477 238.913C23.8505 233.258 24.8149 227.512 25.3627 221.721C26.4153 210.214 25.7931 198.621 23.5154 187.304C22.2247 180.908 20.3879 174.637 18.0252 168.56C17.7136 167.778 18.9876 167.418 19.2992 168.2C27.7151 190.068 29.4366 213.964 24.2451 236.854C22.9103 243.304 20.847 249.583 18.0952 255.571C18.046 255.674 17.9594 255.754 17.8533 255.795C17.7471 255.836 17.6294 255.836 17.524 255.793C17.4186 255.75 17.3336 255.669 17.2862 255.566C17.2388 255.462 17.2327 255.345 17.2691 255.237L17.2914 255.237Z" fill="#E1DDD7"/>
<path d="M19.1325 168.978C24.371 177.486 29.2957 186.487 31.1795 196.431C32.8409 206.769 31.9649 217.364 28.627 227.304C27.0662 232.877 24.9148 238.268 22.2094 243.386C22.157 243.45 22.0851 243.496 22.0048 243.515C21.9245 243.535 21.8401 243.528 21.7644 243.495C21.6887 243.462 21.6257 243.406 21.5851 243.334C21.5445 243.262 21.5285 243.179 21.5394 243.097C23.2009 238.333 25.3984 233.792 26.9705 229.006C28.6182 224.142 29.7937 219.132 30.4808 214.046C31.8013 203.86 30.3268 193.516 26.2153 184.122C23.9886 179.007 21.3816 174.093 18.8864 169.135C18.8867 168.956 19.0434 168.822 19.1325 168.978Z" fill="#E1DDD7"/>
<path d="M19.2056 169.007C21.8354 177.346 23.0607 186.067 22.8314 194.815C22.8244 199.643 22.3484 204.448 22.5424 209.253C22.7365 214.058 23.3105 218.728 23.728 223.465C24.3118 228.793 24.3938 234.165 23.9727 239.511C23.9717 240.249 22.7431 240.251 22.8112 239.513C23.6959 230.192 22.034 220.942 21.422 211.668C21.1608 206.972 21.1677 202.263 21.4425 197.566C21.6505 192.952 21.5452 188.33 21.1276 183.733C20.6011 178.82 19.8028 173.942 18.7364 169.12C18.7364 169.067 18.7577 169.015 18.7955 168.978C18.8332 168.94 18.8844 168.919 18.9377 168.918C18.991 168.918 19.0421 168.94 19.0798 168.977C19.1174 169.015 19.1385 169.066 19.1384 169.119L19.2056 169.007Z" fill="#E1DDD7"/>
<path d="M18.7804 168.36C19.6101 171.421 19.863 174.611 19.5262 177.768C19.5197 182.238 19.1782 186.708 18.9703 191.357C18.7625 196.006 18.5771 200.655 18.7043 205.303C18.9312 210.311 19.6194 215.285 20.7601 220.163C21.4923 223.603 22.269 227.066 22.8224 230.552C23.0658 232.161 23.2868 233.77 23.4185 235.401C23.7064 237.169 23.7037 238.973 23.4107 240.743C23.4106 240.826 23.3775 240.905 23.3188 240.964C23.26 241.023 23.1805 241.056 23.0975 241.056C23.0146 241.056 22.9351 241.023 22.8765 240.965C22.818 240.906 22.7851 240.826 22.7852 240.743C22.5935 239.321 22.4911 237.888 22.4788 236.453C22.3847 234.746 22.2008 233.045 21.9277 231.358C21.441 228.118 20.7532 224.923 20.0654 221.728C18.927 216.897 18.1871 211.98 17.853 207.026C17.4418 197.908 18.2593 188.766 18.6076 179.647C18.7471 175.892 18.6186 172.137 18.6239 168.472C18.624 168.437 18.6381 168.402 18.6633 168.377C18.6885 168.352 18.7226 168.338 18.7581 168.338C18.7937 168.338 18.8277 168.352 18.8528 168.377C18.8779 168.402 18.892 168.436 18.892 168.472L18.7804 168.36Z" fill="#E1DDD7"/>
<path d="M25.6818 233.444C26.6971 231.762 27.4536 229.937 27.926 228.03C28.6173 226.161 29.4113 224.332 30.3045 222.55C32.4064 218.798 34.2573 214.911 35.8449 210.916C37.166 206.488 37.9246 201.912 38.1026 197.298C38.4681 192.513 38.8039 187.714 39.1098 182.9C39.7966 177.423 39.8582 171.888 39.2934 166.401L40.4114 166.243C40.3267 167.999 39.8011 169.707 38.8832 171.208C37.7615 173.647 36.8409 176.152 35.9426 178.657C33.5378 184.624 32.0211 190.908 31.4413 197.309C31.4401 198.024 30.2777 198.026 30.3236 197.311C30.8757 191.174 32.3163 185.148 34.6002 179.42C35.476 176.959 36.3072 174.454 37.3841 172.083C38.5111 170.343 39.1902 168.353 39.3607 166.29C39.3617 165.664 40.3679 165.505 40.4786 166.131C41.0709 170.96 41.1078 175.843 40.5888 180.684C40.3346 185.759 39.9462 190.857 39.5578 195.932C39.3983 200.689 38.7387 205.419 37.5899 210.041C36.1835 214.176 34.3725 218.162 32.1832 221.943C30.9693 224.16 29.9196 226.463 29.0424 228.833C28.706 230.805 27.7193 232.609 26.2398 233.957C25.9264 234.181 25.4801 233.757 25.7041 233.444L25.6818 233.444Z" fill="#E1DDD7"/>
<path d="M121.205 218.508C107.596 226.906 92.0689 231.075 76.6538 235.11C61.9108 238.987 47.0111 242.865 33.36 249.852C25.8112 253.599 18.9251 258.558 12.9766 264.531C12.1241 265.406 10.7379 264.065 11.6577 263.19C33.7125 240.492 66.8182 237.411 95.5222 228.606C104.359 226.007 112.917 222.534 121.071 218.239C121.104 218.233 121.139 218.238 121.169 218.253C121.199 218.269 121.223 218.293 121.238 218.323C121.253 218.353 121.258 218.388 121.252 218.421C121.246 218.454 121.23 218.485 121.205 218.508Z" fill="#E1DDD7"/>
<path d="M121.216 218.532C110.705 221.999 99.4833 222.376 88.8169 225.306C78.2887 228.182 68.0703 232.101 58.3134 237.004C52.8213 239.678 47.4409 242.554 42.1051 245.542C41.9709 245.595 41.8224 245.598 41.6864 245.551C41.5503 245.504 41.4357 245.41 41.363 245.286C41.2903 245.162 41.2644 245.016 41.2899 244.874C41.3154 244.732 41.3906 244.604 41.5021 244.513C50.9192 239.143 60.6509 234.347 70.644 230.152C80.7765 225.984 91.3697 223.048 102.195 221.409C108.535 220.435 114.875 219.595 121.171 218.308C121.195 218.318 121.216 218.335 121.23 218.357C121.244 218.379 121.252 218.405 121.252 218.431C121.252 218.457 121.244 218.483 121.23 218.504C121.215 218.526 121.195 218.544 121.171 218.554L121.216 218.532Z" fill="#E1DDD7"/>
<path d="M121.979 218.108C118.705 221.887 114.786 225.056 110.405 227.466C106.096 230.037 101.555 232.196 96.8435 233.917C86.1369 237.587 75.0208 239.915 63.75 240.849C57.2529 241.302 50.8221 242.462 44.5716 244.309C43.8096 244.556 43.4757 243.347 44.2377 243.077C49.4088 241.485 54.7347 240.454 60.123 240.004C65.8355 239.39 71.5255 238.843 77.1716 237.736C87.9558 236.099 98.386 232.627 108.009 227.47C112.822 224.549 117.43 221.301 121.8 217.75C121.957 217.749 122.091 217.749 121.979 217.996L121.979 218.108Z" fill="#E1DDD7"/>
<path d="M121.215 218.258C115.323 218.828 109.365 218.861 103.474 219.363C97.5535 219.819 91.6699 220.682 85.8652 221.947C80.0812 223.207 74.4519 225.102 69.0798 227.597C63.6724 230.272 58.4315 233.272 53.386 236.581L35.2239 248.235C34.5512 248.662 33.9259 247.588 34.5986 247.162L51.2582 236.585C56.3955 233.177 61.7091 230.043 67.1767 227.197C77.8515 222.276 89.3383 219.371 101.056 218.629C107.752 217.913 114.487 217.64 121.216 217.81C121.275 217.81 121.332 217.833 121.374 217.875C121.416 217.917 121.439 217.974 121.439 218.033C121.439 218.093 121.415 218.15 121.373 218.192C121.331 218.234 121.274 218.258 121.215 218.258Z" fill="#E1DDD7"/>
<path d="M36.0577 247.116C43.4863 239.018 50.4942 230.545 57.0537 221.73C60.1051 217.665 63.4088 213.796 66.9453 210.145C70.6227 206.469 74.7244 203.263 78.6474 199.877C83.1261 196.015 87.2603 191.77 91.0031 187.192C91.4517 186.632 92.4128 187.346 91.9864 187.951C90.6884 190.212 89.7477 192.659 89.1977 195.204C88.5028 197.42 87.646 199.583 86.6343 201.675C84.4902 206.004 81.8053 210.046 78.6442 213.703C71.5667 221.416 63.64 228.306 55.0162 234.24C49.8166 238.097 44.617 241.932 39.7747 246.214C39.0573 246.842 38.0297 245.815 38.747 245.187C54.3052 231.444 74.6011 221.496 84.6854 202.596C86.0219 200.114 87.1208 197.513 87.9674 194.826C88.5701 192.177 89.5709 189.633 90.9358 187.282L91.9415 188.063C88.6221 192.11 85.0013 195.901 81.1103 199.403C77.2543 202.855 73.13 206.129 69.3412 209.582C61.5838 216.844 55.5688 225.894 48.9061 234.228C45.3549 239.145 41.2706 243.654 36.7281 247.674C36.3694 247.966 35.9003 247.519 36.2142 247.183L36.0577 247.116Z" fill="#E1DDD7"/>
<path d="M47.716 212.206C50.9512 205.912 57.0041 201.179 62.7199 197.208C69.2201 192.721 76.1671 188.703 82.8903 184.685C89.6135 180.667 96.874 176.603 103.687 172.272C110.594 168.112 117.107 163.328 123.145 157.982C129.872 151.861 134.027 144.089 138.251 136.249L139.548 137.008C133.059 147.201 122.995 153.955 112.932 160.261C101.449 167.199 90.4 174.834 79.8487 183.124C74.0634 187.85 68.553 192.903 63.3447 198.259C62.7167 198.909 61.7559 197.948 62.3616 197.276C71.4285 187.674 81.5528 179.127 92.54 171.8C97.8748 168.076 103.321 164.531 108.812 161.074C114.303 157.618 119.211 154.7 124.098 151.089C129.773 147.153 134.589 142.104 138.251 136.249C138.365 136.108 138.527 136.012 138.706 135.979C138.885 135.946 139.07 135.978 139.227 136.07C139.384 136.162 139.503 136.307 139.562 136.479C139.62 136.651 139.615 136.839 139.548 137.008C136.215 144.016 131.948 150.542 126.864 156.409C121.265 161.979 115.043 166.886 108.323 171.033C94.8754 180.008 80.4902 187.285 66.9306 195.992C63.3677 198.21 59.96 200.668 56.7315 203.35C53.5822 206.132 50.6918 209.193 48.096 212.496C47.9165 212.742 47.5811 212.497 47.716 212.206Z" fill="#E1DDD7"/>
<path d="M139.064 136.082C139.169 139.542 138.576 142.991 137.321 146.222C136.258 149.525 134.849 152.708 133.118 155.718C129.775 161.518 125.314 166.6 119.994 170.667C109.368 178.832 96.2871 182.862 84.0775 187.83C77.1416 190.449 70.4956 193.783 64.2474 197.779C63.5525 198.25 62.9278 197.133 63.6002 196.684C84.9609 182.211 115.118 180.724 130.36 157.737C132.532 154.434 134.318 150.894 135.685 147.187C137.035 143.56 137.535 139.71 138.795 135.993C138.795 135.958 138.81 135.923 138.835 135.898C138.86 135.873 138.894 135.859 138.93 135.859C138.966 135.859 139 135.873 139.025 135.898C139.05 135.923 139.064 135.957 139.064 135.993L139.064 136.082Z" fill="#E1DDD7"/>
<path d="M138.797 135.862C137.992 138.043 136.388 139.838 134.31 140.883C131.643 142.566 128.865 144.138 126.086 145.642C120.484 148.74 114.747 151.615 109.279 154.959C98.879 161.545 89.4136 169.503 81.1406 178.619C76.475 183.618 71.9881 188.84 67.5012 194.107C67.0076 194.69 66.1808 193.863 66.6744 193.281C74.2464 183.934 82.493 175.153 91.3477 167.009C95.6784 163.106 100.286 159.523 105.135 156.287C110.38 152.809 115.96 149.845 121.494 146.904C124.632 145.22 127.769 143.558 130.839 141.784C133.55 140.213 136.911 138.618 138.305 135.639C138.44 135.348 138.909 135.638 138.819 135.862L138.797 135.862Z" fill="#E1DDD7"/>
<path d="M95.1312 164.341C98.8154 158.273 100.705 151.291 100.58 144.206C100.457 137.766 99.1486 131.44 98.3771 125.069L99.16 125.067C98.3054 130.523 97.0092 135.902 95.2843 141.152C93.5532 146.119 91.5092 150.975 89.4875 155.831C85.9717 165.013 81.9152 173.98 77.3394 182.686C77.2531 182.832 77.1127 182.937 76.949 182.979C76.7853 183.021 76.6118 182.997 76.4667 182.911C76.3215 182.826 76.2165 182.686 76.1749 182.522C76.1332 182.359 76.1583 182.185 76.2445 182.04C80.8519 173.333 84.9456 164.366 88.5046 155.184C90.6382 150.239 92.7047 145.316 94.4356 140.415C96.1555 135.359 97.5028 130.185 98.4668 124.934C98.4677 124.465 99.2278 124.62 99.2497 124.933C99.8864 131.64 101.463 138.189 101.563 144.92C101.715 151.904 99.5127 158.744 95.3101 164.34L95.1536 164.341L95.1312 164.341Z" fill="#E1DDD7"/>
<path d="M2.12351 95.7595C13.5835 106.476 26.9049 114.974 37.8717 126.183C47.0268 135.098 54.343 145.723 59.4085 157.46C62.2915 164.609 64.1315 172.139 64.8723 179.819C64.8707 180.669 63.64 180.649 63.552 179.821C61.9274 166.628 57.2127 154.014 49.7904 143.005C41.8868 131.827 32.3743 121.88 21.5594 113.485C14.5599 108.119 7.84798 102.39 1.45114 96.32C1.09376 95.9628 1.65419 95.4249 2.01161 95.7598L2.12351 95.7595Z" fill="#E1DDD7"/>
<path d="M3.28831 97.083C13.6005 101.424 23.248 107.189 31.9495 114.212C39.9708 121.087 46.5169 129.513 51.1964 138.987C54.229 145.112 56.7911 151.461 59.4876 157.72C59.7997 158.39 58.7914 158.996 58.5018 158.303C54.0446 147.976 49.9014 137.334 43.2039 128.174C36.7397 119.52 28.6502 112.21 19.3852 106.651C14.0645 103.395 8.49682 100.519 3.08623 97.4414C2.84028 97.3076 3.08709 96.9715 3.28831 97.083Z" fill="#E1DDD7"/>
<path d="M1.92288 95.9913C7.68109 104.818 15.4793 111.896 23.4349 118.593C31.7153 125.53 39.5436 132.988 46.8722 140.922C48.808 143.067 50.684 145.256 52.5003 147.49C54.546 149.831 56.4689 152.277 58.2613 154.817C58.6407 155.376 57.7666 156.071 57.3199 155.557C55.4437 153.458 53.8589 151.089 52.0949 148.855C50.3309 146.621 48.857 144.834 47.1595 142.891C43.3405 138.423 39.2297 134.381 35.0517 130.339C31.3206 126.744 27.5894 123.216 23.7012 119.823C19.813 116.429 16.1485 113.125 12.5289 109.709C8.34344 105.638 4.68293 101.06 1.63176 96.0813C1.63176 96.0813 1.63216 95.8576 1.83319 96.0809L1.92288 95.9913Z" fill="#E1DDD7"/>
<path d="M2.09923 95.8799C4.30978 100.635 7.13867 105.075 10.5128 109.087C13.2599 112.326 16.2983 115.34 19.2022 118.445C23.0549 122.703 27.1343 126.751 31.4228 130.571C35.4452 134.031 39.8713 136.999 43.9161 140.437C46.1507 142.424 48.5194 144.478 50.7761 146.554C52.9127 148.391 54.879 150.416 56.6514 152.606C56.8077 152.83 56.4714 153.166 56.2479 152.987C54.339 151.503 52.5255 149.899 50.8179 148.187C48.7623 146.267 46.7067 144.324 44.6062 142.471C40.517 138.854 36.0686 135.775 31.9122 132.203C27.5935 128.424 23.4982 124.398 19.6467 120.144C16.6758 116.951 13.5704 113.847 10.7116 110.541C6.96285 106.263 3.87166 101.451 1.53897 96.2612C1.383 95.8812 1.92079 95.5446 2.09915 95.9246L2.09923 95.8799Z" fill="#E1DDD7"/>
<path d="M56.2753 152.561C54.481 142.747 53.1789 132.844 49.3484 123.503C47.3885 118.788 45.048 114.231 42.6628 109.673C40.2777 105.116 38.2051 100.87 35.6179 96.6711C32.6653 91.8822 29.3694 87.3144 25.756 83.0032L26.2488 82.5998C27.9197 86.3312 29.7697 89.9953 31.3957 93.7715C32.978 97.4426 34.1997 101.26 35.0437 105.17C35.6277 108.826 36.6269 112.403 38.0219 115.831C39.6709 119.316 41.6335 122.533 43.1928 126.153C43.4824 126.778 42.542 127.339 42.2523 126.713C40.7152 123.25 38.7974 120.011 37.1706 116.593C35.7614 113.365 34.7678 109.971 34.2138 106.49C33.4907 102.512 32.3892 98.6124 30.9241 94.8457C29.2985 90.8235 27.5609 86.8462 25.7785 82.9137C25.6449 82.6009 26.0258 82.22 26.2713 82.5103C32.6453 90.167 38.1443 98.5124 42.6669 107.392C47.3928 116.329 51.9841 125.511 54.0688 135.548C55.2389 141.139 56.0654 146.798 56.5438 152.493C56.5434 152.695 56.2302 152.762 56.1859 152.494L56.2753 152.561Z" fill="#E1DDD7"/>
<path d="M144.112 60.281C141.793 67.4149 138.496 74.1967 134.317 80.4328C130.492 85.844 126.158 90.8785 121.376 95.4675C111.869 104.926 101.201 113.222 91.7394 122.636C88.9592 125.37 86.2684 128.216 83.7116 131.151C81.1549 134.087 78.9555 137.379 76.3764 140.337C75.8381 140.942 74.922 140.161 75.2813 139.489C76.9506 136.517 78.953 133.744 81.2497 131.223C83.4924 128.646 85.7351 126.136 87.9775 123.739C92.7534 118.898 97.8421 114.369 102.953 109.908C112.794 101.322 123.126 92.9587 131.113 82.5416C136.379 75.7753 140.623 68.275 143.709 60.2817C143.71 60.0357 144.202 60.1242 144.112 60.3929L144.112 60.281Z" fill="#E1DDD7"/>
<path d="M144.568 60.3021C143.617 65.3684 142.107 70.3156 140.065 75.0526C138.351 79.3208 136.086 83.3485 133.329 87.0332C127.583 94.2061 120.779 100.465 113.153 105.593C108.447 109.002 103.584 112.322 98.8784 115.641C98.0941 116.202 97.3579 114.928 98.1198 114.368C113.313 103.557 130.34 93.8841 138.272 76.2639C140.582 71.0355 142.441 65.6211 143.83 60.0798C143.942 59.6545 144.546 59.8547 144.478 60.2799L144.568 60.3021Z" fill="#E1DDD7"/>
<path d="M144.546 60.0999C141.495 63.8638 137.819 67.1814 134.5 70.655C131.241 74.0496 128.186 77.6333 125.349 81.3874C119.763 88.8024 114.266 96.3067 108.546 103.61C105.343 107.756 101.93 111.734 98.3188 115.53C97.7134 116.135 96.7976 115.197 97.3805 114.592C103.764 107.765 109.712 100.544 115.19 92.9718C120.525 85.3945 126.284 78.1242 132.44 71.1957C136.144 67.166 140.066 63.3425 144.188 59.7426C144.236 59.6951 144.3 59.6683 144.368 59.6682C144.435 59.6681 144.499 59.6946 144.547 59.742C144.594 59.7894 144.621 59.8537 144.62 59.9208C144.62 59.9879 144.593 60.0524 144.546 60.0999Z" fill="#E1DDD7"/>
<path d="M144.343 60.2983C140.533 63.2583 136.5 65.9056 132.734 68.9102C128.952 71.9135 125.407 75.2034 122.13 78.7507C118.839 82.3011 115.915 86.174 113.403 90.3103C110.552 95.0358 108.17 99.9619 105.118 104.554C101.863 109.607 98.2495 114.421 94.3044 118.958C93.8335 119.451 92.9395 118.782 93.3434 118.199C96.4626 113.719 100.074 109.507 103.282 104.982C106.491 100.457 108.917 95.5534 111.701 90.7832C116.703 82.5037 123.135 75.1743 130.697 69.1377C134.826 65.611 139.336 62.5562 144.142 60.0303C144.299 60.03 144.5 60.1862 144.343 60.2983Z" fill="#E1DDD7"/>
<path d="M90.2876 123.812C92.1362 122.196 94.0834 120.697 96.1179 119.324C98.1271 118.091 100.261 117.074 102.483 116.29C107.144 114.536 112.028 113.564 116.8 112.235C125.998 109.829 134.828 106.175 143.042 101.375C147.616 98.6276 151.84 95.3349 155.622 91.5696L156.359 92.531C147.84 97.8519 137.628 98.497 128.106 101.245C118.06 104.362 108.583 109.09 100.044 115.242C99.3939 115.691 98.7911 114.64 99.4189 114.191C107.807 108.165 117.088 103.494 126.92 100.352C136.532 97.4244 147.081 96.913 155.757 91.4575C155.82 91.4089 155.892 91.3731 155.969 91.3524C156.046 91.3316 156.127 91.3262 156.206 91.3365C156.285 91.3467 156.361 91.3724 156.43 91.4121C156.499 91.4518 156.559 91.5048 156.607 91.5679C156.656 91.631 156.691 91.7031 156.712 91.78C156.732 91.8569 156.737 91.9372 156.727 92.0162C156.706 92.1758 156.622 92.3206 156.494 92.4188C149.839 98.8394 142.024 103.936 133.469 107.437C129.274 109.192 124.979 110.695 120.607 111.937C115.924 113.334 111.13 114.35 106.448 115.724C103.713 116.474 101.074 117.538 98.5819 118.894C95.8811 120.504 93.303 122.312 90.8689 124.303C90.4653 124.617 89.8617 124.059 90.2877 123.722L90.2876 123.812Z" fill="#E1DDD7"/>
<path d="M19.2384 37.6452C22.8559 42.5911 26.8663 47.237 31.2309 51.5379C35.5202 55.7357 40.1684 59.4631 44.8164 63.3024C53.7035 70.7295 61.5531 79.3146 68.1565 88.8295C72.1649 94.48 75.8165 100.376 79.0902 106.483C79.1386 106.602 79.1423 106.735 79.1005 106.857C79.0587 106.98 78.9743 107.083 78.8627 107.149C78.7511 107.214 78.6198 107.237 78.4929 107.214C78.366 107.19 78.2519 107.122 78.1716 107.021C72.2184 96.5568 65.3385 86.6493 57.6141 77.4173C49.708 68.4835 40.322 61.1183 31.7656 52.8568C27.024 48.2824 22.7593 43.2385 19.0367 37.8021C19.0367 37.8021 19.0371 37.5784 19.2382 37.8018L19.2384 37.6452Z" fill="#E1DDD7"/>
<path d="M19.471 37.1823C22.308 40.1527 24.9881 43.2351 28.1165 45.9588C31.2449 48.6825 34.5304 51.1821 37.7933 53.7713C44.4556 58.732 50.4611 64.5165 55.6669 70.9876C58.636 74.8511 61.2431 78.9802 63.4553 83.3228C63.8122 83.9934 62.8039 84.5993 62.447 83.9288C58.5106 76.1989 53.3291 69.1719 47.1092 63.1282C41.2334 57.4117 34.393 52.8827 28.1584 47.5024C24.5355 44.7431 21.4152 41.3815 18.9331 37.5637C18.9016 37.4865 18.8963 37.4011 18.9181 37.3205C18.94 37.2399 18.9877 37.1686 19.0539 37.1176C19.1202 37.0666 19.2013 37.0387 19.2848 37.0383C19.3682 37.0378 19.4494 37.0648 19.5159 37.1151L19.471 37.1823Z" fill="#E1DDD7"/>
<path d="M19.8675 38.5906C23.0597 43.1711 26.2294 47.7965 29.5336 52.2874C32.5864 56.7294 36.197 60.7603 40.2773 64.2818C44.3446 67.6303 48.8607 70.3962 52.9505 73.6999C54.962 75.307 56.9061 76.9814 58.783 78.723C60.8607 80.5123 62.7953 82.461 64.5692 84.5517C64.6716 84.6725 64.7243 84.8278 64.7165 84.9863C64.7087 85.1448 64.641 85.2946 64.5272 85.4056C64.4134 85.5165 64.2618 85.5803 64.1031 85.5841C63.9445 85.5879 63.7905 85.5313 63.6723 85.4259C61.6164 83.6399 59.7849 81.5849 57.7739 79.7317C55.763 77.8784 53.6623 76.1148 51.5168 74.4185C47.4492 71.1819 42.9782 68.2369 39.0002 64.9554C35.1332 61.554 31.7248 57.6649 28.8601 53.3849C25.5339 48.6927 22.3645 43.9107 19.4864 38.9269C19.3526 38.681 19.711 38.5014 19.8673 38.7024L19.8675 38.5906Z" fill="#E1DDD7"/>
<path d="M19.7382 37.7388C27.2913 44.1457 37.2464 46.6555 45.1136 52.6815C52.305 58.5342 57.9531 66.0572 61.5683 74.5984C63.7974 79.4714 65.0854 84.9279 68.0986 89.4191C68.3664 89.8437 67.7613 90.2923 67.4038 89.9574C64.1198 86.6523 63.1447 81.4414 61.3619 77.2834C59.5306 72.9728 57.2898 68.8491 54.6702 64.9686C52.0517 61.0462 48.9025 57.506 45.3118 54.4485C41.4462 51.3793 37.2378 48.7672 32.7701 46.6637C27.8829 44.4398 23.3612 41.4917 19.3574 37.9185C19.3574 37.9185 19.3579 37.6276 19.5591 37.7391L19.7382 37.7388Z" fill="#E1DDD7"/>
<path d="M60.8756 74.4508C58.982 70.3079 57.8027 65.8726 57.3875 61.332C56.9484 56.6597 57.0237 51.9641 56.4504 47.292C55.9508 42.5809 54.35 38.0572 51.7772 34.0858C49.1903 30.4146 46.2773 26.9848 43.0735 23.838L43.8573 23.2329C46.5354 29.2377 48.4405 35.5603 49.527 42.0496C50.5892 48.5319 50.9581 54.9708 53.2506 61.205C53.4733 61.786 52.511 62.1901 52.2436 61.6316C49.5029 55.9124 49.4922 49.227 48.6084 43.0797C47.6756 36.399 45.8126 29.8848 43.0737 23.7262C42.8509 23.257 43.4333 22.697 43.8575 23.1211C47.0556 26.2055 49.9826 29.5592 52.6062 33.1453C55.1364 36.8137 56.8102 41.0054 57.5047 45.412C58.2123 50.0168 58.1594 54.69 58.442 59.3402C58.7292 64.4372 59.7137 69.4684 61.3679 74.2935C61.3675 74.5171 61.0765 74.6741 60.9875 74.4506L60.8756 74.4508Z" fill="#E1DDD7"/>
<path d="M91.0694 1.09091C89.8726 8.3583 86.5751 15.2491 84.3281 22.2723C83.1145 26.1865 82.4595 30.2562 81.4023 34.2148C79.731 39.4655 78.7379 44.9064 78.4471 50.4048C78.0999 56.8233 77.2598 63.2073 75.9342 69.5002C75.9331 70.1485 74.8382 69.8597 74.9287 69.2112C76.2015 63.3179 77.0259 57.3381 77.3949 51.3231C77.5129 46.1182 78.3335 40.9508 79.8346 35.9611C80.9816 31.7564 81.7488 27.4406 82.9629 23.2582C84.0869 19.456 85.4566 15.7428 86.7592 12.0744C88.0618 8.406 89.5881 4.69253 90.6003 0.890491C90.6007 0.644584 91.0029 0.755696 90.9578 1.00168L91.0694 1.09091Z" fill="#E1DDD7"/>
<path d="M91.2035 0.796618C87.2351 7.39849 83.1551 13.9335 79.7002 20.9369C77.8556 24.5172 76.3521 28.2625 75.2099 32.1228C73.8514 37.7361 73.2699 43.5069 73.4818 49.2732C73.4207 52.4829 73.5497 55.6927 73.8681 58.8859C74.2646 62.3729 75.1086 65.7026 75.8182 69.122C75.8507 69.2435 75.8334 69.373 75.7703 69.4821C75.7073 69.5913 75.6035 69.671 75.4819 69.7038C75.3603 69.7366 75.2308 69.7198 75.1219 69.6571C75.013 69.5944 74.9336 69.4909 74.9012 69.3694C73.2734 63.7097 72.4258 57.8519 72.3818 51.9579C72.0951 46.1526 72.4724 40.3313 73.5066 34.6072C75.7564 26.1978 79.308 18.1882 84.0322 10.8691C86.0491 7.26075 88.3501 3.81797 90.9132 0.573539C91.0476 0.416817 91.3157 0.572863 91.2035 0.796618Z" fill="#E1DDD7"/>
<path d="M91.1788 1.56076C90.7309 4.38497 90.5839 7.24776 90.7401 10.101C90.7369 12.0683 90.5995 14.0581 90.4175 16.048C90.0078 20.5196 89.3522 24.9916 88.5626 29.4639C87.0713 38.3388 84.7673 47.0604 81.68 55.5185C80.6248 58.337 79.5919 61.1777 78.7154 64.0629C77.8389 66.9481 77.2307 69.8553 76.466 72.6956C76.4362 72.8112 76.3617 72.9105 76.2589 72.9714C76.1561 73.0324 76.0334 73.0501 75.9178 73.0206C75.8023 72.9912 75.7033 72.917 75.6427 72.8144C75.5821 72.7117 75.5648 72.5891 75.5946 72.4734C77.5997 62.8799 81.7272 53.976 84.2685 44.5604C86.7378 35.4606 88.4796 26.181 89.4774 16.8096C89.7046 14.5737 89.8422 12.4498 89.9128 10.2589C89.8414 7.30316 90.1543 4.34945 90.8436 1.47189C90.8564 1.43764 90.8793 1.40809 90.9093 1.38719C90.9393 1.3663 90.975 1.35507 91.0115 1.35501C91.048 1.35495 91.0836 1.36606 91.1135 1.38686C91.1435 1.40766 91.1663 1.43714 91.1789 1.47134L91.1788 1.56076Z" fill="#E1DDD7"/>
<path d="M89.58 7.35278C89.3694 12.9644 87.3261 18.4001 86.2664 23.879C85.4542 28.3514 84.91 32.9799 84.12 37.497C83.3463 42.6226 82.1871 47.6838 80.6522 52.6375C79.776 55.2769 78.6987 57.8495 77.7555 60.4667C76.8382 63.1622 76.0871 65.9108 75.5063 68.6972C75.4749 68.7912 75.4117 68.8713 75.3277 68.9238C75.2436 68.9762 75.144 68.9978 75.046 68.9847C74.948 68.9716 74.8577 68.9247 74.7908 68.8521C74.7238 68.7794 74.6844 68.6856 74.6794 68.5868C74.6871 63.9369 76.9303 59.2608 78.5694 54.9659C80.2994 50.1211 81.6091 45.1376 82.4839 40.0706C83.4312 34.9944 84.3115 29.8735 85.0801 24.7752C85.5774 22.0658 86.2236 19.3855 87.0159 16.7463C88.0349 13.6724 88.8467 10.5342 89.4458 7.35301L89.58 7.35278Z" fill="#E1DDD7"/>
<path d="M77.5368 66.7239C79.1569 62.4641 81.5971 58.5608 84.7187 55.2356C87.9286 51.4389 91.3653 47.8395 95.0099 44.4574C98.8215 40.9843 102.416 37.2798 105.772 33.3651C108.857 29.1758 111.142 24.4543 112.51 19.4394L113.427 19.818C111.46 23.0426 109.151 26.0467 106.541 28.7781C103.687 31.5046 100.597 33.973 97.3077 36.1544C90.7586 40.7014 85.589 46.9662 82.3709 54.2557C82.0788 54.9273 80.9828 54.6385 81.2749 53.9669C84.2073 47.1619 88.8426 41.2212 94.7332 36.7183C98.1618 34.0949 101.836 31.8289 105.019 28.8928C108.019 26.1311 110.549 22.9002 112.511 19.3276C112.78 18.8126 113.54 19.1691 113.405 19.7062C112.335 24.4334 110.359 28.9115 107.585 32.8921C104.424 36.8515 100.953 40.5531 97.2038 43.9612C93.5273 47.5246 89.7838 51.021 86.3978 54.8522C84.7073 56.721 83.1484 58.7046 81.7323 60.7885C80.4084 62.7594 79.3527 64.9087 78.0287 66.902C77.8717 67.1036 77.514 66.9029 77.5815 66.7238L77.5368 66.7239Z" fill="#E1DDD7"/>
<path d="M96.4931 115.061C96.4751 110.183 96.8271 105.309 97.5462 100.482C98.1046 95.808 99.131 91.1999 100.61 86.7277C102.138 82.4773 104.737 78.8734 106.644 74.8236C108.408 70.3784 109.545 65.7112 110.022 60.9566C110.022 60.5989 110.693 60.5978 110.759 60.9554C112.529 69.8389 111.738 79.0507 108.479 87.5193C107.693 89.5774 106.728 91.5465 105.808 93.5602C104.854 95.9124 104.146 98.356 103.694 100.852C102.589 105.329 100.811 109.614 98.4184 113.56C98.1493 114.03 97.5241 113.561 97.726 113.158C99.8776 108.977 101.608 104.593 102.89 100.071C103.232 97.9717 103.782 95.9112 104.533 93.92C105.408 91.817 106.485 89.7807 107.338 87.6553C110.958 79.2897 111.895 70.0157 110.021 61.1131L110.782 61.0001C110.585 65.5732 109.633 70.0848 107.964 74.3519C106.191 78.4909 103.346 82.0505 101.706 86.2563C98.1586 95.3392 97.6049 105.445 96.9626 115.06C96.9452 115.121 96.9084 115.174 96.858 115.212C96.8075 115.251 96.746 115.271 96.6828 115.271C96.6197 115.271 96.5582 115.251 96.5079 115.213C96.4575 115.175 96.4209 115.122 96.4037 115.061L96.4931 115.061Z" fill="#E1DDD7"/>
<path d="M16.6332 255.546C16.4197 235.918 10.755 216.755 0.271434 200.195L1.21144 199.634C3.15102 202.94 2.96542 206.897 3.42868 210.585C3.91102 215.122 4.77853 219.608 6.02182 223.995C8.24457 231.705 11.8546 238.808 14.3683 246.338C15.8352 250.152 16.5862 254.205 16.5838 258.296C16.5835 258.45 16.5221 258.598 16.4129 258.707C16.3036 258.816 16.1557 258.878 16.0015 258.878C15.8473 258.878 15.6996 258.817 15.5907 258.708C15.4819 258.6 15.4209 258.452 15.4212 258.298C15.0796 248.774 10.4661 240.152 7.17174 231.483C5.23109 226.368 3.81672 221.067 2.95052 215.661C2.53015 213.046 2.24395 210.431 2.0472 207.793C2.08035 205.159 1.4951 202.557 0.338506 200.195C0.301909 200.133 0.277821 200.065 0.267629 199.994C0.257438 199.923 0.261347 199.85 0.279114 199.781C0.29688 199.711 0.328162 199.646 0.371181 199.588C0.414198 199.531 0.468104 199.482 0.529825 199.445C0.591549 199.408 0.659882 199.384 0.73091 199.374C0.80194 199.363 0.874274 199.367 0.943797 199.384C1.01332 199.402 1.07866 199.433 1.13609 199.476C1.19352 199.519 1.24192 199.572 1.27852 199.634C6.46045 207.865 10.4852 216.773 13.2401 226.107C16.2085 235.625 17.6185 245.566 17.4158 255.544C17.3938 255.638 17.3409 255.721 17.2657 255.781C17.1905 255.84 17.0974 255.873 17.0016 255.873C16.9057 255.873 16.8128 255.841 16.7378 255.781C16.6628 255.722 16.6102 255.639 16.5885 255.546L16.6332 255.546Z" fill="#E1DDD7"/>
</svg>
