<svg width="222" height="206" viewBox="0 0 222 206" fill="none" xmlns="http://www.w3.org/2000/svg">
<path d="M42.6649 38.5449C45.662 41.2447 49.5744 42.6745 52.6161 45.2406C55.6268 47.955 58.22 51.097 60.3121 54.5651C63.7713 60.5277 66.152 67.0494 67.3454 73.8318C68.033 75.9953 68.1579 78.2969 67.7083 80.52C67.0393 82.4367 65.0946 82.2345 63.7974 81.052C61.9137 79.02 60.4598 76.6304 59.5229 74.0263C57.9117 70.4641 56.4986 66.8162 55.29 63.0994C52.4446 54.4029 49.5093 45.0598 41.9949 39.2355C41.3911 38.7891 42.1949 37.742 42.7987 38.1883C48.5238 42.4731 51.7474 48.896 54.1887 55.452C56.3574 62.2752 58.8996 68.9752 61.8038 75.5217C62.2291 76.3915 64.7589 81.61 66.2778 80.4074C66.7915 79.9842 66.6788 78.758 66.6783 78.1784C66.6323 76.9554 66.4742 75.7389 66.2061 74.5443C65.1966 68.3208 63.1921 62.2978 60.2691 56.7052C58.1469 52.8352 55.4205 49.3262 52.1923 46.3103C49.1281 43.499 45.126 41.8462 42.3298 38.8122C42.2932 38.7564 42.2768 38.6898 42.2836 38.6235C42.2904 38.5573 42.3199 38.4954 42.367 38.4483C42.4142 38.4013 42.4763 38.3719 42.5427 38.3651C42.6092 38.3583 42.6759 38.3746 42.7318 38.4112L42.6649 38.5449Z" fill="#E1DDD7"/>
<path d="M42.3109 39.0341C37.503 36.0207 35.9343 30.736 33.807 25.8075C32.6426 23.1091 31.4335 20.4107 30.0457 17.8013C28.5018 15.0357 26.6476 12.454 24.5189 10.1058C24.1386 9.68192 24.6297 8.92433 25.1218 9.3037C29.7958 12.6291 32.1027 18.6501 34.3418 23.7124C36.5809 28.7747 37.8598 34.9955 42.6234 38.4993C42.9141 38.7225 42.624 39.235 42.3109 39.0341Z" fill="#E1DDD7"/>
<path d="M45.2663 52.3766C44.2203 48.265 42.5279 44.3438 40.2521 40.7589C39.1586 39.0716 38.1793 37.3133 37.3209 35.4959C36.9388 34.622 36.6025 33.7288 36.3133 32.8202C35.948 32.0404 35.7859 31.1815 35.8422 30.3231C35.8599 30.2575 35.895 30.1978 35.9438 30.1504C35.9926 30.103 36.0533 30.0696 36.1196 30.0537C36.1858 30.0378 36.2552 30.0399 36.3204 30.06C36.3856 30.08 36.4442 30.1172 36.49 30.1676C36.9311 30.9002 37.2275 31.7101 37.3633 32.5535C37.6546 33.5568 38.0128 34.5156 38.3711 35.4967C39.1496 37.444 40.1164 39.3112 41.2579 41.0718C43.4375 44.4942 44.8858 48.3278 45.512 52.3323C45.5121 52.3618 45.5003 52.3902 45.4794 52.411C45.4584 52.4319 45.43 52.4436 45.4004 52.4436C45.3708 52.4436 45.3423 52.4318 45.3214 52.4109C45.3004 52.39 45.2886 52.3616 45.2886 52.3321L45.2663 52.3766Z" fill="#E1DDD7"/>
<path d="M44.7764 48.8471C49.9215 63.0929 58.5276 78.2549 54.6988 93.8093C54.1423 96.0378 52.5849 103.525 48.8783 102.72C46.1318 102.072 46.0623 98.5506 46.1723 96.3441C46.4145 91.6192 46.0539 86.827 45.9612 82.0796C45.8234 76.708 45.9535 71.3367 45.7933 65.9428C45.6143 60.2947 45.1108 54.6611 44.2854 49.0696C44.2827 48.9732 44.313 48.8787 44.3713 48.8019C44.4296 48.7251 44.5125 48.6705 44.6063 48.6472C44.7 48.6239 44.7989 48.6332 44.8867 48.6736C44.9745 48.7141 45.0459 48.7832 45.089 48.8696C47.5062 57.2739 47.2001 66.3896 47.2287 75.0374C47.2319 79.495 47.3692 84.1534 47.5064 88.7002C47.5078 90.7285 47.6209 92.7345 47.5107 94.7626C47.2993 96.4088 47.3456 98.0781 47.6482 99.7107C47.8943 100.446 48.5873 101.606 49.5248 101.384C50.4623 101.161 50.7296 100.315 51.064 99.7577C52.0834 97.8344 52.8331 95.7801 53.2922 93.6523C54.6051 88.0609 54.6009 82.2398 53.28 76.6465C51.2416 67.1725 46.5694 58.4768 44.5086 49.0029C44.5085 48.8692 44.6648 48.8247 44.7096 49.003L44.7764 48.8471Z" fill="#E1DDD7"/>
<path d="M35.9946 73.8764C36.8115 67.2244 37.1204 60.5192 36.9188 53.819C36.7834 51.2337 36.5366 48.6483 36.3344 46.0407C36.0872 42.9204 35.9961 39.7779 35.6821 36.6576C35.4578 34.4288 35.0998 32.3336 34.6749 30.1939C34.1521 28.4061 33.7708 26.5802 33.5346 24.7329C33.5343 24.2204 34.1808 24.1093 34.4485 24.4883C35.238 25.9471 35.7386 27.5441 35.9228 29.1917C36.2806 30.9971 36.5716 32.8248 36.7733 34.6747C37.1544 38.018 37.1118 41.3609 37.3368 44.7486C37.8527 50.1485 38.057 55.5733 37.9487 60.9959C37.6984 65.3589 37.2023 69.7039 36.4629 74.0104C36.463 74.2779 35.9725 74.2107 35.9947 74.0101L35.9946 73.8764Z" fill="#E1DDD7"/>
<path d="M36.9418 70.0861C37.3019 74.3657 37.4165 78.645 37.9106 82.9024C38.4046 87.1597 39.077 90.9937 39.5932 95.0727C40.165 99.1132 40.2354 103.208 39.8027 107.264C39.6825 109.989 39.0483 112.665 37.9332 115.153C37.1084 116.557 35.3902 117.38 34.2061 115.886C33.2676 114.317 32.7368 112.539 32.6623 110.714C32.1463 106.902 31.7418 103.091 31.4713 99.2572C31.0444 95.0875 30.9743 90.8896 31.2616 86.709C31.6545 83.4217 32.4005 80.1867 33.4869 77.0598C34.4446 74.0294 35.3799 70.932 36.6278 67.9908C36.8061 67.5675 37.4537 67.9914 37.3423 68.3034C35.9843 73.4064 34.2244 78.3753 33.1566 83.5677C31.7329 90.4314 32.631 97.8316 33.2831 104.741C33.459 107.372 33.7813 109.992 34.2485 112.587C34.3439 113.438 34.6022 114.263 35.0091 115.017C35.9252 116.311 36.9062 114.796 37.2404 113.815C37.6435 112.685 37.9124 111.51 38.0415 110.317C38.3082 108.801 38.5974 107.308 38.7302 105.748C38.9772 102.105 38.8549 98.4461 38.3654 94.8267C37.3998 86.6464 35.6976 78.3987 36.3168 70.108C36.3167 70.0311 36.3473 69.9575 36.4016 69.9032C36.456 69.8489 36.5298 69.8184 36.6068 69.8184C36.6837 69.8185 36.7576 69.8491 36.812 69.9034C36.8665 69.9578 36.8971 70.0315 36.8971 70.1084L36.9418 70.0861Z" fill="#E1DDD7"/>
<path d="M137.229 56.8394C133.224 55.6754 129.666 53.4399 125.684 52.2313C121.348 51.1178 116.86 50.7224 112.397 51.0607C107.924 51.1915 103.652 51.3894 99.2904 51.0514C95.0474 50.7634 90.835 50.1255 86.6964 49.1444C81.9728 48.1138 77.3635 46.6145 72.9375 44.6687C72.2215 44.3332 72.735 43.0608 73.4957 43.3516C81.557 46.7159 90.0797 48.8449 98.7749 49.6666C103.141 49.9042 107.516 49.9073 111.882 49.6759C116.027 49.4114 120.189 49.7681 124.229 50.7342C128.86 52.0549 132.799 54.8936 137.452 56.46C137.495 56.4811 137.528 56.5163 137.547 56.5596C137.566 56.6028 137.569 56.6513 137.556 56.6966C137.543 56.7418 137.514 56.781 137.474 56.8071C137.435 56.8332 137.388 56.8447 137.341 56.8395L137.229 56.8394Z" fill="#E1DDD7"/>
<path d="M87.624 97.2089C87.601 87.9544 86.24 78.7496 83.5829 69.8791C82.2486 65.4423 80.5803 61.112 78.592 56.9252C76.6009 52.7333 74.1187 48.92 71.882 44.9062C71.4123 44.0811 72.6177 43.0567 73.2661 43.8596C76.0439 47.6319 78.3498 51.7281 80.1326 56.0571C82.0782 60.333 83.709 64.7444 85.0119 69.2561C87.755 78.3086 88.8515 87.776 88.2495 97.2094C88.2497 97.5883 87.6243 97.6102 87.624 97.2089Z" fill="#E1DDD7"/>
<path d="M149.54 145.682C138.34 120.781 123.335 97.759 105.06 77.4381C86.7069 57.1066 65.9834 39.0345 43.3319 23.6071C36.8425 19.0329 30.123 14.7929 23.1997 10.9037C19.7016 8.9239 16.0948 7.14185 12.3966 5.566C8.86285 4.09155 5.19526 2.97377 1.57232 1.76682C0.722493 1.47627 0.810744 0.0047076 1.79458 0.11697C8.50253 0.858124 15.0112 4.05185 20.9385 7.11133C27.3937 10.4749 33.6521 14.2022 39.6833 18.275C51.1399 25.9556 62.1773 34.2412 72.7481 43.0963C94.1634 60.7812 112.941 81.4215 128.513 104.392C137.155 117.286 144.441 131.033 150.255 145.415C150.412 145.772 149.786 146.039 149.63 145.682L149.54 145.682Z" fill="#E1DDD7"/>
<path d="M130.429 53.8079C134.073 54.9585 137.638 56.3471 141.099 57.9646C144.589 59.4617 148.011 61.0702 151.344 62.8793C156.669 65.8275 163.111 69.0888 166.157 74.6C166.672 75.5372 167.165 76.8311 165.869 77.3654C164.305 77.6589 162.688 77.4629 161.239 76.8042C156.64 75.1785 152.288 72.9232 148.309 70.1031C141.418 65.8552 135.279 60.4996 130.139 54.2537C129.535 53.5172 130.607 52.4475 131.212 53.2063C135.219 58.3202 139.945 62.8311 145.243 66.5991C147.928 68.497 150.724 70.2834 153.521 72.0029C155.162 73.0635 156.882 73.9969 158.666 74.7949C160.21 75.474 161.812 76.0127 163.453 76.4045C164.085 76.6219 164.762 76.6762 165.421 76.5621C166.27 76.2282 165.42 75.2462 165.173 74.6885C162.195 69.6457 156.222 66.6301 151.39 63.8384C148.083 61.9943 144.686 60.3168 141.212 58.8122C137.61 57.2259 133.785 55.9739 130.296 54.1646C130.251 54.1468 130.215 54.1122 130.197 54.0682C130.178 54.0243 130.177 53.9747 130.195 53.9303C130.213 53.886 130.247 53.8505 130.291 53.8318C130.335 53.813 130.385 53.8124 130.429 53.8302L130.429 53.8079Z" fill="#E1DDD7"/>
<path d="M122.09 48.6647C129.625 45.4552 138.281 46.1313 146.155 47.4096C155.103 48.8895 164.052 51.6867 173.245 52.0506C175.862 52.0525 180.335 52.346 180.735 48.7741C181.135 45.2023 176.258 43.6137 173.73 42.6965C165.072 39.6539 155.835 40.6072 146.89 41.918C142.708 42.6549 138.605 43.7805 134.635 45.2803C130.685 46.99 126.602 48.3759 122.426 49.424C121.889 49.4236 121.464 48.7759 122.023 48.486C125.686 46.7405 129.466 45.2513 133.337 44.0291C137.22 42.568 141.213 41.4139 145.278 40.5772C149.821 39.7616 154.418 39.2799 159.033 39.1361C163.836 38.9158 168.642 39.5312 173.237 40.9547C176.279 41.9393 180.418 43.1925 181.852 46.3861C182.305 47.4017 182.395 48.5414 182.107 49.6143C181.819 50.6872 181.169 51.628 180.268 52.2789C179.088 53.0764 177.692 53.4959 176.265 53.4816C173.777 53.5539 171.286 53.4252 168.817 53.0967C164.053 52.5351 159.355 51.527 154.657 50.4967C149.335 49.2113 143.931 48.2899 138.484 47.7389C133.084 47.2909 127.649 47.7933 122.426 49.2231C122.113 49.2229 121.866 48.7985 122.179 48.6648L122.09 48.6647Z" fill="#E1DDD7"/>
<path d="M127.385 47.5217C123.866 49.613 119.853 50.7353 115.756 50.7745C113.519 50.9739 111.283 51.151 108.89 51.2164L105.445 51.214C104.315 51.3297 103.173 51.2534 102.067 50.9883C101.938 50.9451 101.826 50.8625 101.747 50.7522C101.667 50.642 101.624 50.5096 101.624 50.3738C101.624 50.238 101.667 50.1056 101.746 49.9955C101.825 49.8853 101.938 49.8029 102.067 49.7599C103.096 49.5518 104.152 49.4998 105.198 49.6057L108.642 49.6081C110.879 49.6097 112.892 49.4771 115.017 49.3222C117.077 49.2356 119.13 49.0357 121.168 48.7234C123.2 48.2826 125.18 47.625 127.071 46.7621C127.541 46.5614 127.743 47.2539 127.385 47.5217Z" fill="#E1DDD7"/>
<path d="M96.6778 39.0681C103.249 34.2758 111.768 31.8279 119.55 30.3612C127.799 28.8958 136.151 28.0741 144.53 27.9035C147.102 27.9055 150.992 27.0383 152.265 24.4509C152.532 23.7055 152.538 22.8915 152.281 22.1416C152.025 21.3918 151.521 20.7503 150.853 20.322C149.296 19.2379 147.425 18.6954 145.529 18.7783C141.551 18.577 137.564 18.7908 133.631 19.4163C129.17 20.2649 124.81 21.57 120.618 23.3111C116.464 24.9235 112.492 26.9697 108.77 29.4158C105.025 31.9914 101.701 35.1271 98.914 38.7128C98.4448 39.2702 97.5272 38.5332 97.907 37.9311C102.374 30.7497 110.333 26.0701 118.024 22.7959C122.277 20.8998 126.702 19.409 131.238 18.3435C135.575 17.507 139.991 17.1364 144.41 17.2379C147.831 17.2405 151.544 17.8011 153.358 21.0156C153.681 21.5596 153.884 22.1656 153.955 22.7934C154.025 23.4212 153.961 24.0566 153.767 24.6576C153.573 25.2586 153.254 25.8114 152.829 26.2795C152.405 26.7477 151.886 27.1204 151.306 27.3732C148.221 29.3121 144.598 29.2201 141.198 29.3737C136.524 29.5709 131.828 29.902 127.177 30.4563C121.973 31.0295 116.827 32.0331 111.792 33.4568C106.664 35.031 101.682 37.0428 96.9018 39.4699C96.8728 39.4983 96.8378 39.5198 96.7994 39.5328C96.7609 39.5457 96.72 39.5498 96.6796 39.5447C96.6393 39.5396 96.6007 39.5254 96.5667 39.5032C96.5326 39.481 96.5041 39.4514 96.4831 39.4167C96.4622 39.3819 96.4495 39.3428 96.4459 39.3025C96.4423 39.2621 96.4479 39.2214 96.4623 39.1836C96.4767 39.1457 96.4996 39.1116 96.5292 39.0839C96.5587 39.0561 96.5943 39.0355 96.633 39.0234L96.6778 39.0681Z" fill="#E1DDD7"/>
<path d="M99.4132 38.0164C97.3949 39.9583 94.9542 41.4084 92.2812 42.2537C89.5633 43.3108 86.7107 43.9851 83.8055 44.2572C80.9765 44.5049 78.1266 44.3828 75.3282 43.8939C72.4296 43.6575 69.6436 42.6619 67.2516 41.0078C66.7368 40.5608 67.2508 39.936 67.8324 40.0034C69.0997 40.3191 70.3412 40.7306 71.5462 41.2341C72.8564 41.6615 74.1944 41.9982 75.5507 42.2418C78.2604 42.7156 81.0196 42.8377 83.7596 42.6049C86.4477 42.3708 89.0978 41.818 91.654 40.9582C93.0496 40.4918 94.4096 39.9256 95.7236 39.2642C96.8104 38.6199 97.9298 38.0319 99.0773 37.5026C99.3905 37.5028 99.5473 37.8156 99.3685 38.0164L99.4132 38.0164Z" fill="#E1DDD7"/>
<path d="M88.0853 95.6117C89.8315 101.341 91.0418 107.182 92.386 113C93.712 118.128 94.6711 123.342 95.2561 128.605C95.4898 131.445 95.3945 134.302 94.9721 137.119C94.6386 139.214 93.9931 142.022 91.8946 143.068C89.7962 144.114 87.0705 142.551 85.6624 140.968C84.2515 139.146 83.3761 136.969 83.1341 134.681C82.3503 127.996 82.5862 121.232 83.8339 114.621C84.7448 108.225 86.0578 101.918 87.326 95.5666C87.3256 95.0317 88.3083 95.1438 88.2863 95.5673C87.9326 100.515 86.775 105.373 86.0639 110.232C84.8357 116.667 84.205 123.203 84.1801 129.755C84.1832 133.857 84.7691 141.012 90.0179 141.952C92.4524 142.377 93.2988 139.391 93.6994 137.497C94.2104 134.772 94.366 131.993 94.1623 129.228C93.7015 124.054 92.824 118.925 91.538 113.891C90.1489 107.783 88.6035 101.719 87.661 95.5446C87.6432 95.4795 87.6519 95.4101 87.6854 95.3516C87.7189 95.2931 87.7743 95.2503 87.8394 95.2326C87.9045 95.215 87.9741 95.2238 88.0327 95.2573C88.0914 95.2908 88.1344 95.3462 88.1522 95.4112L88.0853 95.6117Z" fill="#E1DDD7"/>
<path d="M93.0842 92.7521C91.1947 89.9371 89.5764 86.9504 88.2506 83.832C86.8295 80.917 85.8913 77.7921 85.4726 74.5791C85.4724 74.267 85.9416 74.2228 86.0312 74.5795C87.6754 80.8986 90.3122 86.9194 93.8437 92.4183C94.0898 92.8197 93.4644 93.1759 93.1959 92.7968L93.0842 92.7521Z" fill="#E1DDD7"/>
<path d="M91.6509 89.3423C94.5597 92.5149 97.6355 95.5309 100.865 98.3777C104.089 101.391 106.828 104.882 108.986 108.727C111.13 112.781 112.956 116.993 114.448 121.327C116.239 125.224 117.223 129.44 117.341 133.723C117.343 135.952 116.809 139.875 114.262 140.72C112.542 141.298 111.267 139.514 110.506 138.243C109.321 136.123 108.375 133.88 107.685 131.553L104.997 123.125C103.317 117.929 101.681 112.69 99.8221 107.517C97.8505 102.283 95.6087 97.155 93.1057 92.1522C93.0607 92.0473 93.0556 91.9295 93.0914 91.8212C93.1272 91.7129 93.2015 91.6214 93.3003 91.564C93.3991 91.5066 93.5156 91.4871 93.6278 91.5094C93.7401 91.5316 93.8404 91.594 93.9099 91.6847C96.1884 95.2813 98.0436 99.1275 99.4388 103.147C101.051 107.228 102.417 111.397 103.762 115.567C105.688 121.543 107.347 127.607 109.452 133.405C109.98 135.553 111.034 137.537 112.518 139.181C114.933 141.211 115.957 135.817 116.068 134.368C116.187 130.373 115.42 126.399 113.824 122.73C112.399 118.573 110.701 114.513 108.741 110.577C106.558 106.287 103.652 102.401 100.151 99.0905C97.0644 96.1678 93.4419 93.4008 91.2042 89.6095C91.204 89.3866 91.3826 89.1415 91.5615 89.3423L91.6509 89.3423Z" fill="#E1DDD7"/>
<path d="M82.0782 88.4671C81.9406 83.0068 81.937 77.5465 81.3755 72.1082C80.6946 66.5615 79.6775 61.0607 78.33 55.6362C78.3227 55.5327 78.3519 55.43 78.4123 55.3457C78.4728 55.2614 78.5608 55.2009 78.6613 55.1746C78.7617 55.1482 78.8682 55.1577 78.9625 55.2014C79.0568 55.2451 79.1329 55.3203 79.1777 55.4139C80.8312 60.6807 81.934 66.1038 82.4684 71.5963C83.2417 77.1902 83.313 82.8578 82.6806 88.4675C82.6808 88.8241 82.0785 88.8683 82.0782 88.4671Z" fill="#E1DDD7"/>
<path d="M83.0119 84.1648C82.6802 88.6905 82.6836 93.2348 83.022 97.761C83.1256 102.181 82.86 106.602 82.2278 110.978C81.5412 115.391 80.4531 119.732 78.977 123.947C78.2358 127.012 76.9195 129.907 75.0975 132.481C73.9149 133.795 71.7939 134.574 70.7652 132.678C70.045 130.764 69.8657 128.69 70.2471 126.682C70.9127 119.897 72.5394 113.242 75.0786 106.916C76.3491 103.64 77.7313 100.409 78.8677 97.0893C80.2738 92.8533 81.4265 88.5374 82.3197 84.1643C82.3194 83.8077 83.0341 83.8751 82.9896 84.1648C82.1628 90.7787 80.4163 97.2439 77.8005 103.374C75.5292 108.943 73.7477 114.699 72.4758 120.577C71.8639 123.254 71.5292 125.987 71.4769 128.734C71.478 130.16 71.6146 133.682 73.7123 131.744C74.7182 130.698 75.4799 129.443 75.9428 128.068C76.5447 126.553 77.1018 125.016 77.659 123.478C78.9773 119.706 79.9755 115.83 80.6429 111.89C81.4242 107.313 81.7722 102.671 81.6823 98.0274C81.3832 93.3651 81.612 88.6848 82.3643 84.0752C82.364 83.674 83.101 83.7637 83.0565 84.0757L83.0119 84.1648Z" fill="#E1DDD7"/>
<path d="M126.479 82.5152C121.07 81.7242 115.756 80.382 110.62 78.5097C108.495 77.6409 106.47 76.5474 104.579 75.248C102.577 74.1239 100.879 72.5298 99.6329 70.6041C99.4313 70.18 99.8781 69.5558 100.37 69.8908C101.171 70.578 101.92 71.3243 102.609 72.1233C103.517 72.9772 104.49 73.761 105.518 74.468C107.381 75.7227 109.359 76.7998 111.424 77.6849C116.276 79.6637 121.311 81.162 126.456 82.1583C126.747 82.1585 126.635 82.6492 126.456 82.6044L126.479 82.5152Z" fill="#E1DDD7"/>
<path d="M123.689 81.0797C131.136 83.4463 138.248 86.7576 144.851 90.9323C150.968 94.6127 156.391 99.3353 160.873 104.885C162.216 106.625 165.351 112.293 168.324 109.864C171.296 107.435 168.944 102.192 167.466 99.7154C163.637 93.289 156.008 89.5582 149.231 87.0326C145.081 85.5449 140.837 84.3345 136.526 83.4094C131.761 82.2263 126.848 81.749 121.945 81.9928C121.051 81.9921 121.05 80.6539 121.944 80.5877C126.448 80.3626 130.963 80.7564 135.362 81.758C139.723 82.6406 144.019 83.8138 148.223 85.2698C155.291 87.818 163.121 91.5712 167.531 97.9089C169.639 100.648 170.669 104.061 170.424 107.502C170.046 110.111 167.923 111.96 165.305 110.843C164.116 110.288 163.085 109.444 162.307 108.387C161.076 106.758 159.912 105.107 158.569 103.567C155.818 100.391 152.734 97.5176 149.371 94.9951C145.504 92.16 141.402 89.6573 137.111 87.5137C132.637 85.2799 128.051 83.425 123.532 81.3473C123.331 81.3471 123.532 80.9235 123.689 80.9905L123.689 81.0797Z" fill="#E1DDD7"/>
<path d="M146.914 111.164C144.608 109.309 142.203 107.58 139.709 105.984C137.047 104.464 134.273 103.149 131.41 102.052C128.749 100.963 126.22 99.5773 123.871 97.9204C121.616 96.4604 119.663 94.5809 118.12 92.3849C118.084 92.3409 118.058 92.2905 118.042 92.2364C118.027 92.1824 118.022 92.1258 118.028 92.0699C118.034 92.014 118.051 91.9598 118.078 91.9106C118.106 91.8613 118.142 91.8179 118.186 91.7828C118.23 91.7477 118.281 91.7216 118.335 91.7059C118.389 91.6903 118.446 91.6855 118.502 91.6918C118.558 91.698 118.612 91.7152 118.662 91.7424C118.711 91.7696 118.755 91.8062 118.79 91.8502C119.797 92.7207 120.625 93.7919 121.587 94.7071C122.704 95.7519 123.901 96.7074 125.168 97.5646C127.586 99.1786 130.156 100.555 132.841 101.674C135.521 102.745 138.103 104.045 140.558 105.561C142.901 107.148 145.143 108.877 147.271 110.74C147.54 110.986 147.16 111.476 146.869 111.253L146.914 111.164Z" fill="#E1DDD7"/>
<path d="M143.423 107.478C154.605 115.111 165.029 124.237 169.019 137.617C169.624 139.691 170.185 143.169 168.287 144.817C167.103 145.864 165.738 144.815 164.866 143.923C163.518 142.399 162.291 140.773 161.196 139.06C159.052 135.921 157.108 132.65 155.376 129.268C153.474 125.7 151.683 122.087 149.713 118.54C147.743 114.994 145.236 111.514 142.886 107.99C142.551 107.455 143.31 106.898 143.758 107.322C145.931 109.58 147.783 112.124 149.263 114.884C150.897 117.672 152.33 120.593 153.74 123.493C156.504 129.204 159.622 134.739 163.075 140.064C163.992 141.425 165 143.388 166.565 144.125C167.638 144.661 168.062 143.68 168.33 142.744C168.678 141.135 168.536 139.458 167.924 137.928C165.967 131.879 162.764 126.303 158.522 121.557C153.693 116.686 148.561 112.125 143.155 107.901C142.931 107.7 143.154 107.299 143.49 107.478L143.423 107.478Z" fill="#E1DDD7"/>
<path d="M117.944 106.446C116.862 103.761 115.583 101.16 114.116 98.6635C112.662 96.2104 111.051 93.824 109.798 91.2596C108.659 88.7208 107.658 86.1231 106.798 83.4778L105.32 79.3751C104.644 78.031 104.233 76.5701 104.11 75.0721C104.11 74.6931 104.646 74.4038 104.936 74.7383C105.652 75.8015 106.16 76.9891 106.436 78.2392C106.929 79.6885 107.399 81.16 107.87 82.6984C108.742 85.685 109.827 88.606 111.117 91.439C112.37 93.9142 113.846 96.2559 115.144 98.7089C116.433 101.179 117.512 103.752 118.368 106.402C118.368 106.669 118.055 106.758 117.943 106.401L117.944 106.446Z" fill="#E1DDD7"/>
<path d="M116.442 101.658C116.443 103.441 118.344 105.003 119.328 106.363C120.312 107.723 121.363 109.329 122.302 110.823C124.094 113.742 125.679 116.782 127.046 119.921C130.016 126.141 132.06 132.758 133.115 139.564C133.589 141.825 133.292 144.178 132.271 146.25C131.513 147.587 130.039 148.477 128.653 147.607C127.796 146.961 127.175 146.052 126.886 145.02C126.243 143.277 125.734 141.489 125.363 139.669C124.623 136.147 124.218 132.58 123.545 129.035C122.783 125.067 121.618 121.143 120.565 117.219C119.512 113.295 118.056 108.97 117.07 104.779C117.07 104.311 117.695 103.954 117.919 104.445C119.117 107.49 120.082 110.62 120.808 113.809C121.682 117.109 122.511 120.497 123.362 123.708C124.976 129.884 125.271 136.281 126.907 142.434C127.288 143.884 127.691 146.024 129.144 146.894C130.597 147.765 131.266 146.428 131.735 145.403C132.64 142.76 132.692 139.899 131.885 137.222C131.226 134.031 130.304 130.899 129.13 127.858C128.055 124.848 126.891 121.86 125.637 118.94C124.217 115.812 122.58 112.787 120.738 109.886C119.821 108.436 118.837 107.031 117.853 105.649C117.322 105.127 116.901 104.505 116.613 103.82C116.325 103.135 116.176 102.4 116.174 101.657C116.174 101.501 116.442 101.502 116.442 101.658Z" fill="#E1DDD7"/>
<path d="M147.747 139.06C151.214 144.078 154.458 149.252 157.992 154.247C161.473 158.946 164.471 163.982 166.941 169.278C169.131 174.435 170.638 179.854 171.422 185.398C171.837 188.101 172.108 190.825 172.233 193.557C172.419 195.385 172.253 197.231 171.746 198.995C171.658 199.438 171.463 199.852 171.178 200.202C170.893 200.552 170.526 200.827 170.109 201.002C169.693 201.178 169.24 201.249 168.789 201.209C168.338 201.17 167.904 201.021 167.524 200.775C165.213 199.169 163.406 196.941 162.313 194.352C160.905 191.173 159.868 187.844 159.222 184.43C158.191 180.127 157.249 175.802 156.285 171.499C155.007 165.992 153.707 160.486 152.139 155.068C150.571 149.65 148.779 144.588 146.899 139.46C146.719 138.97 147.501 138.636 147.725 139.104C151.865 147.087 153.972 156.206 156.034 164.901C157.917 172.816 159.42 180.841 161.504 188.712C162.224 191.83 163.58 194.768 165.488 197.341C166.293 198.367 168.753 201.311 170.137 199.574C170.849 198.203 171.136 196.651 170.961 195.116C170.918 192.616 170.707 190.121 170.329 187.648C169.708 182.199 168.444 176.841 166.563 171.685C164.218 166.06 161.214 160.73 157.614 155.807C153.748 150.61 150.207 145.181 147.01 139.549C146.982 139.501 146.964 139.448 146.957 139.392C146.95 139.337 146.953 139.281 146.968 139.227C146.982 139.173 147.007 139.123 147.041 139.079C147.075 139.035 147.118 138.998 147.166 138.97C147.215 138.942 147.268 138.924 147.323 138.917C147.379 138.91 147.435 138.914 147.489 138.928C147.543 138.943 147.594 138.968 147.638 139.002C147.682 139.036 147.719 139.078 147.747 139.126L147.747 139.06Z" fill="#E1DDD7"/>
<path d="M185.25 163.755C177.375 158.129 168.383 154.353 160.33 149.018C157.161 146.983 154.266 144.553 151.716 141.786C149.478 139.197 147.239 136.431 145.158 133.642C142.914 130.861 140.942 127.873 139.27 124.717C139.213 124.591 139.205 124.449 139.247 124.318C139.289 124.186 139.378 124.075 139.498 124.006C139.618 123.937 139.759 123.914 139.894 123.943C140.03 123.971 140.15 124.049 140.231 124.161C144.059 129.515 147.73 134.982 151.982 140.002C157.376 146.362 164.87 150.493 172.117 154.579C176.803 157.14 181.331 159.981 185.674 163.086C186.009 163.354 185.675 163.911 185.339 163.666L185.25 163.755Z" fill="#E1DDD7"/>
<path d="M177.603 158.001C182.064 159.771 186.418 161.799 190.642 164.077C194.814 166.036 198.817 168.336 202.609 170.954C208.011 174.677 212.241 179.855 214.807 185.881C215.568 187.732 219.018 195.718 214.658 195.714C213.134 195.526 211.716 194.834 210.632 193.749C209.234 192.623 207.897 191.424 206.627 190.156C203.844 187.335 201.229 184.355 198.794 181.23C193.413 174.086 187.661 167.226 181.562 160.68C181.204 160.323 181.718 159.855 182.098 160.145C187.579 164.409 191.676 170.477 195.861 175.943C200.039 181.875 204.791 187.383 210.049 192.388C211.325 193.549 213.093 195.312 214.903 195.046C215.865 194.913 216.11 194.066 216.087 193.196C215.88 190.907 215.209 188.684 214.114 186.661C211.657 181.083 207.803 176.227 202.924 172.56C199.098 169.806 195.033 167.4 190.777 165.37C186.304 163.137 181.496 161.349 177.357 158.67C177.044 158.447 177.357 157.867 177.647 158.001L177.603 158.001Z" fill="#E1DDD7"/>
<path d="M189.522 157.416C183.973 154.779 177.934 154.016 171.984 152.762C169.302 152.264 166.673 151.514 164.132 150.524C162.944 150.024 161.793 149.442 160.686 148.781C159.575 148.273 158.6 147.507 157.844 146.547C157.805 146.486 157.785 146.414 157.788 146.341C157.79 146.269 157.815 146.198 157.859 146.14C157.902 146.082 157.963 146.038 158.032 146.015C158.102 145.993 158.176 145.991 158.247 146.012C159.376 146.581 160.454 147.247 161.469 148.001C162.643 148.704 163.87 149.317 165.138 149.833C167.784 150.874 170.507 151.712 173.281 152.339C178.886 153.383 184.362 155.033 189.611 157.26C189.79 157.26 189.611 157.64 189.432 157.528L189.522 157.416Z" fill="#E1DDD7"/>
<path d="M187.311 156.07C193.416 157.391 199.076 159.893 204.959 161.86C210.141 163.255 214.879 165.955 218.717 169.7C220.05 170.861 220.956 172.431 221.293 174.163C221.293 174.563 221.214 174.959 221.06 175.328C220.906 175.698 220.68 176.033 220.396 176.315C220.111 176.597 219.773 176.819 219.402 176.97C219.031 177.121 218.633 177.197 218.231 177.194C217.047 177.092 215.9 176.725 214.876 176.12C213.559 175.5 212.281 174.799 211.051 174.021C208.558 172.449 206.153 170.742 203.846 168.908C201.027 166.675 198.275 164.442 195.41 162.21C192.546 159.977 189.839 158.481 186.998 156.672C186.506 156.359 186.818 155.49 187.4 155.713C192.119 157.434 196.349 161.14 200.086 164.265C204.23 167.878 208.669 171.142 213.354 174.023C214.831 174.849 219.216 177.462 220.063 174.652C220.531 173.047 218.584 171.127 217.577 170.19C213.89 166.758 209.444 164.241 204.602 162.841C198.741 160.807 193.059 158.372 187.087 156.56C187.022 156.543 186.967 156.5 186.933 156.441C186.899 156.382 186.89 156.313 186.908 156.248C186.926 156.183 186.969 156.128 187.028 156.094C187.086 156.061 187.156 156.052 187.221 156.07L187.311 156.07Z" fill="#E1DDD7"/>
<path d="M138.854 145.956C139.42 136.908 138.494 127.827 136.114 119.075C135.98 118.563 136.76 118.184 137.006 118.697C138.64 122.377 139.602 126.317 139.848 130.333C140.259 135.533 140.135 140.761 139.479 145.934C139.479 146.335 138.832 146.335 138.854 145.934L138.854 145.956Z" fill="#E1DDD7"/>
<path d="M139.185 146.443C138.763 153.386 137.048 160.187 134.13 166.5C131.097 173.184 127.439 179.422 126.149 186.755C125.793 188.983 125.127 193.441 127.138 195.181C129.15 196.921 131.313 192.955 132.049 191.529C135.076 185.424 137.028 178.843 137.819 172.075C138.766 163.529 139.043 154.922 138.649 146.331C138.649 145.908 139.252 145.931 139.297 146.332C140.014 154.91 139.826 163.539 138.735 172.075C138.075 179.042 136.174 185.834 133.122 192.131C132.23 193.936 130.892 196.588 128.658 196.876C126.425 197.164 125.105 195.023 124.724 193.039C124.266 189.724 124.561 186.349 125.588 183.166C126.693 179.389 128.187 175.738 130.047 172.27C132.185 168.333 134.047 164.253 135.622 160.059C137.136 155.622 138.21 151.046 138.828 146.398C138.827 146.153 139.229 146.131 139.23 146.399L139.185 146.443Z" fill="#E1DDD7"/>
<path d="M139.718 155.729C140.479 157.959 141.039 160.188 141.822 162.417C142.605 164.647 143.59 167.121 144.574 169.418C146.386 173.632 148.309 177.779 149.719 182.104C151.283 186.553 151.961 191.263 151.717 195.969C151.496 198.666 151.409 202.142 149.758 204.392C148.688 205.952 147.013 206.419 145.985 204.769C144.947 202.745 144.345 200.527 144.216 198.259C143.677 194.447 143.294 190.613 142.8 186.802C142.239 182.589 141.7 178.353 141.161 174.141C140.532 168.902 139.657 163.642 139.34 158.359C139.344 158.271 139.378 158.187 139.437 158.122C139.496 158.056 139.576 158.013 139.663 158C139.75 157.987 139.839 158.005 139.914 158.05C139.99 158.095 140.048 158.165 140.077 158.248C140.929 162.372 141.334 166.585 141.851 170.753C142.345 174.52 142.794 178.31 143.244 182.077C143.693 185.844 144.187 190.057 144.704 194.047C144.996 196.276 145.265 198.505 145.736 200.6C145.937 201.448 146.566 205.46 147.972 204.48C149.017 203.474 149.652 202.117 149.755 200.67C150.01 199.24 150.188 197.796 150.288 196.347C150.579 191.817 149.976 187.273 148.514 182.972C147.037 178.357 145.002 173.92 143.123 169.461C140.965 165.159 139.593 160.509 139.071 155.729C139.085 155.684 139.114 155.645 139.152 155.618C139.19 155.59 139.236 155.575 139.283 155.576C139.33 155.576 139.375 155.59 139.414 155.618C139.452 155.646 139.48 155.684 139.495 155.729L139.718 155.729Z" fill="#E1DDD7"/>
</svg>
