<svg width="158" height="290" viewBox="0 0 158 290" fill="none" xmlns="http://www.w3.org/2000/svg">
<path d="M91.6576 288.409C87.9604 281.826 85.0385 274.84 82.9506 267.589C80.4474 259.754 78.5077 251.752 77.1464 243.644C76.5871 240.541 76.2389 237.404 76.1042 234.255C76.1084 229.296 76.3925 224.342 76.9552 219.416C77.9446 207.55 79.7616 195.752 80.0353 183.84C80.3875 161.113 76.5652 138.503 68.7579 117.132C61.3158 96.8794 51.1864 77.7111 38.6416 60.1414C26.7646 43.3175 12.9878 27.2954 5.02113 8.06321C4.05609 5.69277 3.11335 3.27764 2.21534 0.862583C2.15869 0.655044 2.02192 0.478245 1.83514 0.371107C1.64835 0.263969 1.42684 0.235243 1.21933 0.291253C1.01181 0.347262 0.835285 0.483455 0.728603 0.669827C0.621921 0.856168 0.59381 1.07747 0.65045 1.28501C3.57121 11.0757 7.99835 20.3565 13.7727 28.794C19.3763 37.5631 25.6948 45.8415 31.8345 54.2314C44.9262 71.5724 55.7809 90.4886 64.1415 110.532C72.8214 131.655 77.6481 154.151 78.3929 176.954C78.3471 188.802 77.6173 200.637 76.2072 212.397C75.3701 221.336 74.1534 230.61 75.3739 239.618C76.4806 247.374 78.1813 255.035 80.4609 262.534C82.5979 270.143 85.3999 277.551 88.8344 284.672C89.552 286.081 90.3144 287.468 91.0767 288.81C91.2784 289.123 91.8147 288.811 91.5906 288.498L91.6576 288.409Z" fill="#E1DDD7"/>
<path d="M17.8982 34.2219C19.7584 39.6313 21.7079 44.9737 23.077 50.5389C24.4483 56.1917 25.4105 61.9351 25.9563 67.7245C27.0049 79.2269 26.3792 90.8167 24.0987 102.131C22.8064 108.525 20.9682 114.794 18.6042 120.871C18.2925 121.653 19.566 122.012 19.8777 121.23C28.2979 99.3666 30.0265 75.4773 24.8439 52.5966C23.5115 46.1492 21.4509 39.8726 18.7019 33.8877C18.6527 33.785 18.5662 33.7049 18.4601 33.6637C18.354 33.6224 18.2362 33.6232 18.1309 33.6658C18.0255 33.7084 17.9405 33.7897 17.8931 33.893C17.8457 33.9964 17.8396 34.114 17.8759 34.2219L17.8982 34.2219Z" fill="#E1DDD7"/>
<path d="M19.7095 120.451C24.9501 111.944 29.8772 102.945 31.7639 93.004C33.4283 82.6687 32.5556 72.0774 29.2209 62.1411C27.662 56.5711 25.5124 51.1822 22.8088 46.0662C22.7563 46.0023 22.6845 45.9571 22.6042 45.9376C22.5239 45.9181 22.4395 45.9252 22.3638 45.958C22.2881 45.9907 22.2251 46.0472 22.1845 46.119C22.1439 46.1908 22.1278 46.274 22.1387 46.3558C23.7986 51.1176 25.9945 55.6567 27.565 60.4407C29.2111 65.3023 30.3851 70.3101 31.0706 75.3946C32.3878 85.5765 30.9103 95.9178 26.7964 105.31C24.5683 110.424 21.96 115.337 19.4635 120.295C19.4637 120.473 19.6203 120.608 19.7095 120.451Z" fill="#E1DDD7"/>
<path d="M19.7802 120.425C22.4116 112.088 23.6393 103.369 23.4131 94.6233C23.4077 89.7974 22.9336 84.9933 23.1292 80.1899C23.3248 75.3865 23.9001 70.7176 24.319 65.9815C24.9044 60.655 24.9881 55.2842 24.5691 49.9399C24.5683 49.2026 23.3403 49.2013 23.4081 49.9386C24.2892 59.2564 22.625 68.5043 22.0102 77.7757C21.7475 82.4709 21.7527 87.1779 22.0258 91.8737C22.2321 96.4862 22.1253 101.107 21.7063 105.703C21.1784 110.614 20.3788 115.491 19.3113 120.313C19.3113 120.366 19.3326 120.417 19.3703 120.455C19.408 120.492 19.4591 120.514 19.5124 120.514C19.5657 120.514 19.6168 120.493 19.6544 120.455C19.6921 120.417 19.7132 120.366 19.7131 120.313L19.7802 120.425Z" fill="#E1DDD7"/>
<path d="M19.3529 121.072C20.1833 118.011 20.4371 114.822 20.1015 111.666C20.0965 107.198 19.7567 102.729 19.5505 98.0811C19.3444 93.4336 19.1606 88.7861 19.2894 84.1389C19.5179 79.1332 20.2074 74.1602 21.3492 69.2833C22.0822 65.8433 22.8598 62.3811 23.4141 58.8962C23.6579 57.2878 23.8793 55.6794 24.0115 54.0485C24.2998 52.2807 24.2978 50.477 24.0055 48.7086C24.0054 48.6256 23.9724 48.546 23.9137 48.4873C23.855 48.4286 23.7755 48.3955 23.6926 48.3954C23.6097 48.3953 23.5302 48.4282 23.4717 48.4868C23.4131 48.5454 23.3803 48.6249 23.3804 48.7079C23.1882 50.1296 23.0854 51.5623 23.0726 52.9973C22.978 54.7039 22.7936 56.4041 22.5201 58.0909C22.0325 61.33 21.3439 64.5243 20.6553 67.7185C19.5159 72.5484 18.7746 77.4646 18.439 82.4176C18.025 91.533 18.8389 100.672 19.184 109.788C19.3222 113.542 19.1924 117.295 19.1965 120.96C19.1965 120.995 19.2107 121.029 19.2358 121.054C19.261 121.08 19.2951 121.094 19.3306 121.094C19.3661 121.094 19.4002 121.08 19.4253 121.055C19.4504 121.03 19.4645 120.995 19.4644 120.96L19.3529 121.072Z" fill="#E1DDD7"/>
<path d="M26.2795 56.0053C27.2943 57.6869 28.0504 59.5111 28.5222 61.4164C29.213 63.2846 30.0065 65.1135 30.8992 66.8946C33.0001 70.6445 34.8499 74.529 36.4364 78.5226C37.7563 82.949 38.5135 87.5225 38.6902 92.1351C39.0544 96.9179 39.3887 101.716 39.6933 106.528C40.3785 112.003 40.4385 117.536 39.8721 123.02L40.99 123.178C40.9058 121.423 40.3807 119.716 39.4632 118.215C38.3422 115.778 37.4223 113.274 36.5247 110.77C34.1216 104.806 32.6067 98.5247 32.0287 92.1261C32.0277 91.411 30.8653 91.4094 30.911 92.1246C31.4613 98.2588 32.9001 104.283 35.1824 110.008C36.0576 112.467 36.8881 114.971 37.9643 117.342C39.0909 119.08 39.7694 121.07 39.9393 123.132C39.9401 123.758 40.9463 123.916 41.0572 123.29C41.6509 118.463 41.6893 113.582 41.1716 108.742C40.9189 103.669 40.532 98.5735 40.1451 93.5002C39.9869 88.7445 39.3287 84.0172 38.1812 79.3965C36.776 75.264 34.966 71.2793 32.7777 67.5005C31.5645 65.2842 30.5154 62.9823 29.6389 60.6134C29.3031 58.6428 28.3168 56.8398 26.8377 55.4921C26.5244 55.2682 26.0779 55.6922 26.3019 56.0054L26.2795 56.0053Z" fill="#E1DDD7"/>
<path d="M121.837 70.904C108.226 62.5122 92.6935 58.3482 77.2738 54.3186C62.5263 50.4467 47.622 46.5746 33.9678 39.593C26.4172 35.8493 19.5299 30.8935 13.5809 24.9236C12.7282 24.0494 11.3412 25.3904 12.2611 26.2647C34.3177 48.9501 67.4351 52.0209 96.1474 60.8155C104.987 63.412 113.548 66.8814 121.703 71.1724C121.736 71.1783 121.771 71.1733 121.801 71.1582C121.831 71.143 121.855 71.1186 121.87 71.0884C121.885 71.0583 121.89 71.024 121.884 70.9908C121.878 70.9576 121.862 70.9271 121.837 70.904Z" fill="#E1DDD7"/>
<path d="M121.839 70.8774C111.326 67.4141 100.1 67.0398 89.4306 64.1137C78.8994 61.2408 68.6783 57.3258 58.9193 52.4269C53.426 49.7546 48.0444 46.8809 42.7075 43.8953C42.5733 43.8425 42.4248 43.8393 42.2886 43.8862C42.1525 43.933 42.0378 44.0269 41.965 44.151C41.8923 44.2751 41.8663 44.4211 41.8918 44.5629C41.9172 44.7047 41.9925 44.8329 42.104 44.9244C51.523 50.2905 61.2569 55.0823 71.2524 59.2737C81.3875 63.4382 91.9837 66.3702 102.813 68.0065C109.155 68.9784 115.497 69.8159 121.795 71.1012C121.819 71.0908 121.839 71.0736 121.854 71.0517C121.868 71.0299 121.875 71.0043 121.875 70.9782C121.875 70.952 121.868 70.9264 121.853 70.9045C121.839 70.8826 121.818 70.8654 121.794 70.8549L121.839 70.8774Z" fill="#E1DDD7"/>
<path d="M122.605 71.3018C119.331 67.5239 115.412 64.3566 111.03 61.9484C106.72 59.3797 102.178 57.2216 97.4654 55.5028C86.7561 51.8366 75.6365 49.5117 64.3619 48.5814C57.8625 48.1301 51.4296 46.9722 45.1774 45.1282C44.4152 44.8808 44.0809 46.0894 44.8431 46.3592C50.0155 47.95 55.3432 48.9786 60.7333 49.4271C66.4477 50.0398 72.1396 50.5854 77.7875 51.6906C88.5752 53.3235 99.0081 56.7918 108.633 61.9449C113.447 64.8648 118.056 68.1107 122.427 71.6598C122.583 71.6601 122.718 71.6603 122.605 71.4138L122.605 71.3018Z" fill="#E1DDD7"/>
<path d="M121.839 71.1518C115.945 70.5836 109.985 70.5526 104.092 70.0515C98.1694 69.5974 92.2839 68.7361 86.4775 67.4737C80.6917 66.2154 75.0608 64.3226 69.6875 61.8297C64.2789 59.1568 59.0369 56.1585 53.9905 52.8513L35.825 41.2049C35.1522 40.7786 34.5264 41.8524 35.1992 42.2787L51.8619 52.8482C57.0001 56.2543 62.3148 59.3859 67.7836 62.23C78.4609 67.1465 89.9511 70.0477 101.673 70.7869C108.372 71.5001 115.108 71.7716 121.84 71.5996C121.899 71.5997 121.956 71.5762 121.998 71.5342C122.04 71.4923 122.063 71.4354 122.063 71.376C122.063 71.3166 122.04 71.2597 121.997 71.2176C121.955 71.1756 121.898 71.1519 121.839 71.1518Z" fill="#E1DDD7"/>
<path d="M36.6573 42.3293C44.0865 50.4219 51.0947 58.8899 57.6542 67.6996C60.7056 71.7615 64.0095 75.6283 67.5463 79.2768C71.2241 82.9501 75.3265 86.1545 79.25 89.5374C83.7293 93.397 87.8639 97.6387 91.6068 102.214C92.0555 102.774 93.0172 102.06 92.5908 101.455C91.2929 99.1958 90.3526 96.7501 89.8031 94.2054C89.1085 91.9904 88.252 89.8289 87.2405 87.7384C85.0969 83.4109 82.4121 79.3714 79.2508 75.7169C72.1727 68.0087 64.245 61.1243 55.6195 55.1953C50.419 51.3408 45.2185 47.5086 40.3755 43.2297C39.658 42.6024 38.6297 43.6295 39.3472 44.2568C54.9074 57.9897 75.2084 67.9282 85.2911 86.8185C86.6275 89.2984 87.7261 91.8984 88.5722 94.5836C89.1744 97.2315 90.1749 99.7741 91.5395 102.125L92.5458 101.344C89.2264 97.2987 85.6053 93.5103 81.7137 90.0109C77.8572 86.5609 73.7323 83.2895 69.943 79.8396C62.1846 72.5819 56.1699 63.5377 49.507 55.2082C45.9559 50.2948 41.8713 45.7883 37.3282 41.7713C36.9695 41.48 36.5 41.9266 36.814 42.2625L36.6573 42.3293Z" fill="#E1DDD7"/>
<path d="M48.3003 77.2231C51.535 83.5136 57.589 88.2427 63.3059 92.2107C69.8073 96.6944 76.756 100.709 83.4807 104.723C90.2054 108.738 97.4677 112.798 104.282 117.125C111.191 121.282 117.705 126.062 123.743 131.404C130.471 137.521 134.627 145.289 138.849 153.124L140.147 152.366C133.659 142.178 123.593 135.43 113.528 129.129C102.042 122.197 90.9905 114.568 80.4375 106.284C74.6512 101.562 69.1401 96.5121 63.9313 91.1604C63.3032 90.5107 62.3417 91.4711 62.9474 92.143C72.0152 101.739 82.1411 110.279 93.1306 117.6C98.4664 121.321 103.914 124.864 109.406 128.317C114.898 131.77 119.807 134.686 124.695 138.295C130.372 142.227 135.188 147.273 138.849 153.124C138.964 153.266 139.126 153.362 139.305 153.395C139.484 153.428 139.669 153.395 139.826 153.303C139.983 153.212 140.102 153.067 140.161 152.895C140.219 152.723 140.215 152.535 140.147 152.366C136.815 145.362 132.548 138.839 127.463 132.976C121.864 127.41 115.641 122.506 108.92 118.363C95.4692 109.395 81.0804 102.125 67.518 93.4251C63.9543 91.2092 60.5459 88.7526 57.3169 86.0725C54.1672 83.2933 51.2765 80.2341 48.6806 76.9329C48.501 76.6866 48.1655 76.9321 48.3003 77.2231Z" fill="#E1DDD7"/>
<path d="M139.661 153.291C139.767 149.832 139.175 146.385 137.921 143.155C136.858 139.854 135.449 136.672 133.718 133.664C130.375 127.868 125.914 122.789 120.593 118.724C109.965 110.566 96.8804 106.542 84.6673 101.579C77.7294 98.9632 71.0817 95.6318 64.8321 91.6392C64.1371 91.1684 63.5118 92.2858 64.1844 92.7342C85.5495 107.195 115.718 108.673 130.96 131.647C133.131 134.948 134.918 138.486 136.284 142.191C137.634 145.817 138.132 149.665 139.392 153.38C139.392 153.415 139.407 153.45 139.432 153.475C139.457 153.5 139.491 153.514 139.527 153.514C139.562 153.514 139.597 153.5 139.622 153.475C139.647 153.45 139.661 153.416 139.661 153.38L139.661 153.291Z" fill="#E1DDD7"/>
<path d="M139.395 153.511C138.591 151.332 136.986 149.538 134.908 148.494C132.24 146.812 129.461 145.242 126.682 143.739C121.078 140.643 115.34 137.771 109.871 134.43C99.4685 127.85 90.0016 119.897 81.7279 110.787C77.0619 105.792 72.5747 100.573 68.0875 95.3093C67.5939 94.7269 66.7665 95.5533 67.2601 96.1357C74.8325 105.477 83.0799 114.252 91.9358 122.39C96.2671 126.29 100.876 129.871 105.726 133.104C110.971 136.579 116.552 139.54 122.089 142.479C125.227 144.162 128.365 145.822 131.435 147.594C134.148 149.164 137.51 150.757 138.903 153.734C139.037 154.025 139.507 153.735 139.417 153.512L139.395 153.511Z" fill="#E1DDD7"/>
<path d="M95.7184 125.059C99.4018 131.124 101.29 138.103 101.163 145.185C101.038 151.623 99.7275 157.946 98.954 164.316L99.737 164.317C98.8838 158.863 97.5888 153.486 95.8649 148.24C94.1348 143.275 92.0916 138.421 90.0708 133.568C86.5566 124.39 82.5016 115.427 77.9269 106.726C77.8407 106.581 77.7002 106.475 77.5365 106.433C77.3729 106.391 77.1993 106.416 77.054 106.501C76.9088 106.587 76.8038 106.727 76.762 106.89C76.7203 107.054 76.7454 107.227 76.8316 107.373C81.4377 116.074 85.53 125.037 89.0873 134.214C91.2201 139.157 93.2858 144.078 95.0158 148.976C96.7347 154.03 98.0809 159.202 99.0437 164.45C99.0444 164.919 99.8048 164.764 99.8267 164.451C100.466 157.746 102.044 151.199 102.146 144.471C102.3 137.49 100.099 130.653 95.8974 125.06L95.7408 125.06L95.7184 125.059Z" fill="#E1DDD7"/>
<path d="M2.65927 193.65C14.1266 182.935 27.4554 174.436 38.4295 163.228C47.5906 154.314 54.9126 143.691 59.9834 131.958C62.8695 124.81 64.7123 117.283 65.4556 109.606C65.4543 108.757 64.2231 108.777 64.1348 109.604C62.5058 122.793 57.7857 135.402 50.3575 146.41C42.4477 157.586 32.9288 167.531 22.1075 175.926C15.1039 181.291 8.38778 187.02 1.98681 193.09C1.62919 193.447 2.18968 193.985 2.54733 193.65L2.65927 193.65Z" fill="#E1DDD7"/>
<path d="M3.82559 192.329C14.143 187.987 23.7959 182.221 32.5029 175.198C40.5293 168.324 47.0804 159.899 51.7644 150.427C54.7999 144.304 57.3649 137.957 60.0643 131.7C60.3767 131.029 59.3682 130.424 59.0782 131.117C54.6163 141.442 50.4684 152.08 43.7657 161.239C37.2965 169.891 29.2017 177.2 19.9315 182.76C14.6078 186.017 9.03712 188.893 3.62353 191.971C3.37744 192.104 3.62425 192.44 3.82559 192.329Z" fill="#E1DDD7"/>
<path d="M2.46132 193.422C8.2243 184.597 16.0276 177.52 23.9882 170.823C32.2739 163.887 40.1073 156.43 47.4411 148.496C49.3782 146.352 51.2556 144.164 53.0733 141.93C55.1204 139.589 57.0448 137.144 58.8386 134.604C59.2183 134.045 58.344 133.351 57.897 133.864C56.0195 135.963 54.4335 138.332 52.6681 140.565C50.9027 142.799 49.4277 144.586 47.7291 146.529C43.9073 150.995 39.7937 155.037 35.613 159.078C31.8793 162.673 28.1456 166.201 24.2549 169.594C20.3643 172.987 16.6974 176.291 13.0754 179.707C8.88715 183.778 5.2239 188.355 2.1701 193.332C2.1701 193.332 2.17045 193.556 2.37161 193.333L2.46132 193.422Z" fill="#E1DDD7"/>
<path d="M2.63473 193.533C4.84752 188.779 7.67879 184.34 11.0554 180.329C13.8045 177.09 16.8449 174.076 19.7509 170.972C23.6064 166.714 27.6885 162.666 31.9797 158.847C36.0047 155.387 40.4335 152.419 44.4808 148.982C46.7168 146.995 49.0871 144.941 51.3453 142.865C53.4832 141.028 55.4509 139.003 57.2246 136.813C57.381 136.59 57.0446 136.254 56.821 136.432C54.911 137.917 53.0963 139.52 51.3875 141.232C49.3306 143.152 47.2736 145.095 45.1718 146.948C41.0799 150.564 36.6289 153.643 32.4698 157.215C28.1484 160.994 24.0503 165.02 20.196 169.273C17.223 172.466 14.1156 175.57 11.2547 178.875C7.50323 183.152 4.40946 187.963 2.07436 193.152C1.91822 193.531 2.45613 193.868 2.63466 193.488L2.63473 193.533Z" fill="#E1DDD7"/>
<path d="M56.8442 136.857C55.0466 146.668 53.7414 156.568 49.9072 165.906C47.9454 170.62 45.603 175.176 43.2158 179.733C40.8287 184.289 38.7543 188.533 36.1653 192.732C33.2105 197.52 29.9124 202.087 26.2968 206.397L26.7896 206.8C28.462 203.07 30.3135 199.407 31.9411 195.631C33.5249 191.961 34.748 188.145 35.5933 184.237C36.1785 180.581 37.179 177.006 38.5754 173.579C40.2258 170.094 42.1898 166.878 43.7506 163.259C44.0405 162.634 43.1 162.074 42.81 162.699C41.2715 166.162 39.3522 169.4 37.7241 172.818C36.3135 176.044 35.3187 179.438 34.7635 182.917C34.0392 186.894 32.9362 190.792 31.4697 194.558C29.8424 198.579 28.1032 202.555 26.3193 206.487C26.1855 206.799 26.5664 207.18 26.8121 206.89C33.19 199.234 38.6929 190.89 43.2192 182.013C47.949 173.079 52.5442 163.898 54.6323 153.865C55.8043 148.275 56.6326 142.618 57.1128 136.925C57.1125 136.724 56.7992 136.656 56.7548 136.924L56.8442 136.857Z" fill="#E1DDD7"/>
<path d="M144.683 229.068C142.364 221.938 139.069 215.16 134.89 208.927C131.064 203.519 126.731 198.488 121.948 193.902C112.44 184.451 101.77 176.16 92.3076 166.754C89.5272 164.021 86.8361 161.177 84.2792 158.243C81.7223 155.31 79.523 152.019 76.9437 149.064C76.4054 148.459 75.4887 149.24 75.848 149.912C77.5171 152.882 79.5195 155.654 81.8163 158.173C84.0592 160.748 86.302 163.256 88.5446 165.652C93.321 170.49 98.4103 175.015 103.522 179.473C113.364 188.052 123.698 196.409 131.685 206.82C136.951 213.582 141.195 221.078 144.28 229.068C144.28 229.314 144.772 229.225 144.683 228.956L144.683 229.068Z" fill="#E1DDD7"/>
<path d="M145.132 229.046C144.182 223.982 142.673 219.037 140.631 214.303C138.918 210.037 136.653 206.011 133.896 202.329C128.15 195.161 121.346 188.906 113.718 183.782C109.011 180.376 104.147 177.059 99.4408 173.742C98.6563 173.182 97.9195 174.455 98.6816 175.015C113.878 185.817 130.908 195.482 138.838 213.093C141.147 218.318 143.006 223.73 144.393 229.269C144.506 229.694 145.11 229.493 145.042 229.068L145.132 229.046Z" fill="#E1DDD7"/>
<path d="M145.111 229.248C142.06 225.486 138.383 222.171 135.064 218.7C131.805 215.308 128.749 211.726 125.913 207.974C120.327 200.564 114.83 193.064 109.109 185.766C105.907 181.623 102.493 177.647 98.8816 173.853C98.2761 173.249 97.3597 174.186 97.9427 174.791C104.327 181.614 110.275 188.83 115.753 196.398C121.088 203.97 126.847 211.236 133.004 218.16C136.707 222.187 140.63 226.008 144.753 229.605C144.801 229.652 144.865 229.679 144.932 229.679C145 229.679 145.064 229.653 145.111 229.605C145.159 229.558 145.185 229.494 145.185 229.427C145.185 229.36 145.158 229.295 145.111 229.248Z" fill="#E1DDD7"/>
<path d="M144.909 229.05C141.098 226.093 137.064 223.448 133.298 220.445C129.516 217.444 125.97 214.157 122.693 210.612C119.402 207.064 116.478 203.193 113.965 199.06C111.115 194.337 108.734 189.413 105.682 184.824C102.427 179.774 98.813 174.963 94.8677 170.429C94.3968 169.936 93.5023 170.606 93.9062 171.188C97.0252 175.665 100.636 179.875 103.845 184.397C107.054 188.919 109.479 193.82 112.263 198.587C117.265 206.862 123.697 214.187 131.26 220.219C135.39 223.743 139.901 226.795 144.708 229.318C144.865 229.319 145.066 229.162 144.909 229.05Z" fill="#E1DDD7"/>
<path d="M90.8506 165.573C92.6994 167.187 94.647 168.685 96.6819 170.058C98.6915 171.29 100.826 172.306 103.049 173.089C107.711 174.841 112.596 175.811 117.37 177.138C126.571 179.541 135.403 183.191 143.619 187.987C148.194 190.733 152.419 194.023 156.201 197.786L156.939 196.825C148.418 191.508 138.202 190.866 128.677 188.122C118.628 185.009 109.148 180.285 100.608 174.137C99.9581 173.688 99.3548 174.739 99.9827 175.188C108.372 181.21 117.655 185.877 127.491 189.015C137.106 191.939 147.658 192.447 156.336 197.899C156.399 197.947 156.471 197.983 156.548 198.004C156.625 198.024 156.706 198.03 156.785 198.019C156.864 198.009 156.94 197.983 157.009 197.944C157.078 197.904 157.138 197.851 157.187 197.788C157.235 197.725 157.271 197.653 157.291 197.576C157.312 197.499 157.317 197.419 157.307 197.34C157.285 197.18 157.201 197.035 157.074 196.937C150.418 190.521 142.601 185.427 134.044 181.93C129.848 180.177 125.552 178.676 121.178 177.435C116.494 176.041 111.699 175.026 107.015 173.654C104.279 172.904 101.639 171.841 99.1467 170.487C96.4454 168.878 93.8668 167.071 91.4323 165.081C91.0286 164.768 90.4245 165.326 90.8507 165.662L90.8506 165.573Z" fill="#E1DDD7"/>
<path d="M19.7542 251.742C23.3745 246.797 27.3878 242.152 31.7553 237.851C36.0474 233.654 40.6985 229.926 45.3494 226.087C54.2421 218.661 62.0971 210.077 68.7058 200.564C72.7173 194.915 76.3721 189.02 79.6488 182.915C79.6973 182.795 79.701 182.662 79.6592 182.54C79.6175 182.418 79.533 182.315 79.4214 182.249C79.3098 182.184 79.1785 182.161 79.0515 182.184C78.9245 182.208 78.8103 182.276 78.73 182.377C72.7715 192.839 65.8861 202.744 58.1561 211.975C50.2444 220.907 40.8526 228.272 32.2906 236.533C27.5458 241.106 23.278 246.15 19.5525 251.585C19.5525 251.585 19.5528 251.808 19.754 251.585L19.7542 251.742Z" fill="#E1DDD7"/>
<path d="M19.983 252.208C22.8219 249.238 25.504 246.156 28.6344 243.432C31.7648 240.709 35.0524 238.209 38.3173 235.62C44.9837 230.659 50.9931 224.875 56.2029 218.405C59.1743 214.542 61.7836 210.414 63.9979 206.073C64.3552 205.402 63.3466 204.797 62.9894 205.467C59.0492 213.195 53.8637 220.221 47.6396 226.264C41.7598 231.98 34.9154 236.509 28.6768 241.889C25.0517 244.648 21.9292 248.01 19.445 251.827C19.4134 251.904 19.4081 251.989 19.4299 252.07C19.4518 252.15 19.4995 252.222 19.5657 252.273C19.632 252.323 19.7132 252.351 19.7967 252.352C19.8802 252.352 19.9614 252.325 20.0279 252.275L19.983 252.208Z" fill="#E1DDD7"/>
<path d="M20.3808 250.799C23.5755 246.219 26.7478 241.595 30.0546 237.105C33.1098 232.664 36.7229 228.633 40.8059 225.112C44.8758 221.764 49.3944 218.998 53.4868 215.694C55.4995 214.087 57.4449 212.413 59.323 210.671C61.402 208.882 63.3379 206.934 65.1131 204.843C65.2156 204.723 65.2683 204.567 65.2606 204.409C65.2528 204.25 65.1852 204.101 65.0713 203.99C64.9575 203.879 64.8059 203.815 64.6472 203.812C64.4884 203.808 64.3344 203.864 64.2161 203.97C62.1589 205.756 60.3261 207.81 58.3138 209.663C56.3015 211.516 54.1995 213.28 52.0527 214.976C47.9826 218.213 43.509 221.158 39.5285 224.439C35.659 227.84 32.2482 231.729 29.3812 236.008C26.0523 240.699 22.8802 245.48 19.9996 250.463C19.8656 250.708 20.2242 250.888 20.3806 250.687L20.3808 250.799Z" fill="#E1DDD7"/>
<path d="M20.2568 251.651C27.8147 245.245 37.7745 242.733 45.6465 236.707C52.8424 230.855 58.4949 223.333 62.1139 214.794C64.3453 209.922 65.6354 204.468 68.6511 199.977C68.9191 199.553 68.3139 199.105 67.9561 199.44C64.6699 202.744 63.6929 207.953 61.9082 212.11C60.075 216.42 57.8321 220.542 55.2103 224.422C52.5897 228.344 49.4383 231.883 45.8452 234.941C41.9773 238.01 37.7665 240.622 33.2964 242.726C28.4066 244.95 23.8824 247.899 19.8759 251.472C19.8759 251.472 19.8764 251.762 20.0777 251.651L20.2568 251.651Z" fill="#E1DDD7"/>
<path d="M61.4097 214.941C59.5145 219.083 58.3337 223.517 57.9171 228.056C57.4765 232.727 57.5505 237.421 56.9757 242.091C56.4747 246.801 54.8722 251.323 52.2977 255.294C49.7093 258.964 46.7947 262.394 43.5893 265.54L44.373 266.145C47.0535 260.142 48.9608 253.821 50.0494 247.334C51.1136 240.853 51.4845 234.417 53.7793 228.184C54.0021 227.603 53.0397 227.2 52.7721 227.758C50.0292 233.476 50.0166 240.159 49.1308 246.304C48.1959 252.983 46.3307 259.495 43.5894 265.652C43.3664 266.121 43.9488 266.681 44.3732 266.257C47.5729 263.173 50.5015 259.819 53.1267 256.234C55.6585 252.566 57.3339 248.375 58.0297 243.97C58.7388 239.367 58.6873 234.695 58.9713 230.047C59.26 224.952 60.2461 219.922 61.902 215.098C61.9017 214.875 61.6107 214.718 61.5216 214.941L61.4097 214.941Z" fill="#E1DDD7"/>
<path d="M91.5859 288.261C90.3912 280.997 87.0956 274.109 84.8505 267.089C83.638 263.177 82.9841 259.109 81.928 255.152C80.2582 249.903 79.2666 244.464 78.9775 238.968C78.6322 232.552 77.7939 226.17 76.47 219.88C76.4692 219.232 75.3741 219.521 75.4644 220.169C76.7355 226.06 77.5583 232.037 77.9255 238.05C78.042 243.253 78.8611 248.419 80.3608 253.406C81.5066 257.609 82.2726 261.923 83.4855 266.104C84.6084 269.905 85.9771 273.616 87.2787 277.283C88.5803 280.95 90.1056 284.662 91.1167 288.462C91.1171 288.708 91.5193 288.597 91.4743 288.351L91.5859 288.261Z" fill="#E1DDD7"/>
<path d="M91.7214 288.556C87.7545 281.957 83.6758 275.426 80.2226 268.426C78.3787 264.847 76.8762 261.104 75.7349 257.245C74.3778 251.634 73.798 245.866 74.0116 240.101C73.9514 236.893 74.0813 233.684 74.4006 230.492C74.7982 227.006 75.6433 223.677 76.354 220.259C76.3864 220.137 76.3692 220.008 76.3062 219.899C76.2431 219.79 76.1394 219.71 76.0178 219.677C75.8962 219.645 75.7666 219.661 75.6577 219.724C75.5488 219.787 75.4693 219.89 75.4369 220.012C73.8073 225.67 72.9579 231.526 72.9122 237.418C72.6238 243.221 72.9995 249.04 74.0321 254.762C76.2798 263.168 79.8295 271.174 84.5521 278.489C86.5683 282.095 88.8686 285.536 91.431 288.779C91.5654 288.935 91.8335 288.779 91.7214 288.556Z" fill="#E1DDD7"/>
<path d="M91.6996 287.793C91.2526 284.97 91.1063 282.108 91.2634 279.256C91.2608 277.289 91.124 275.3 90.9425 273.311C90.5341 268.841 89.8798 264.371 89.0914 259.9C87.6027 251.029 85.3013 242.311 82.2163 233.857C81.1619 231.04 80.1298 228.2 79.2542 225.317C78.3785 222.433 77.7711 219.527 77.0072 216.688C76.9774 216.572 76.9029 216.473 76.8002 216.412C76.6974 216.351 76.5747 216.333 76.4591 216.363C76.3436 216.392 76.2446 216.467 76.1839 216.569C76.1233 216.672 76.106 216.794 76.1358 216.91C78.1381 226.499 82.2631 235.399 84.8017 244.81C87.2684 253.906 89.0075 263.182 90.0026 272.55C90.2291 274.785 90.3661 276.908 90.4361 279.098C90.3638 282.053 90.6759 285.005 91.3644 287.882C91.3772 287.916 91.4001 287.946 91.4301 287.966C91.4601 287.987 91.4957 287.999 91.5322 287.999C91.5687 287.999 91.6044 287.987 91.6343 287.967C91.6642 287.946 91.6871 287.916 91.6997 287.882L91.6996 287.793Z" fill="#E1DDD7"/>
<path d="M90.1036 282.005C89.8947 276.395 87.8528 270.962 86.7946 265.485C85.9837 261.015 85.4408 256.388 84.6521 251.872C83.8798 246.749 82.722 241.69 81.1886 236.738C80.3131 234.1 79.2364 231.528 78.2939 228.912C77.3773 226.218 76.627 223.471 76.047 220.685C76.0156 220.591 75.9524 220.511 75.8684 220.459C75.7844 220.406 75.6848 220.385 75.5867 220.398C75.4887 220.411 75.3984 220.458 75.3314 220.531C75.2645 220.603 75.2251 220.697 75.22 220.796C75.2263 225.444 77.4684 230.118 79.1062 234.411C80.835 239.254 82.1433 244.235 83.0166 249.3C83.9625 254.374 84.8414 259.493 85.6085 264.59C86.105 267.298 86.7506 269.977 87.5421 272.615C88.5603 275.688 89.3712 278.825 89.9694 282.005L90.1036 282.005Z" fill="#E1DDD7"/>
<path d="M78.0748 222.655C79.6944 226.913 82.1343 230.814 85.2562 234.137C88.4662 237.931 91.9031 241.528 95.5481 244.908C99.3602 248.378 102.955 252.08 106.311 255.992C109.396 260.179 111.681 264.898 113.048 269.911L113.965 269.532C111.998 266.309 109.69 263.307 107.079 260.577C104.224 257.853 101.134 255.386 97.8444 253.207C91.2942 248.663 86.1244 242.403 82.9072 235.117C82.6151 234.446 81.5187 234.735 81.8107 235.406C84.7422 242.207 89.3775 248.144 95.2691 252.644C98.6982 255.265 102.373 257.529 105.556 260.463C108.556 263.223 111.087 266.452 113.048 270.022C113.318 270.537 114.078 270.18 113.943 269.644C112.874 264.919 110.898 260.443 108.125 256.465C104.964 252.508 101.492 248.809 97.7427 245.403C94.0658 241.842 90.322 238.348 86.9357 234.519C85.2451 232.652 83.6862 230.67 82.2702 228.587C80.9464 226.617 79.8909 224.469 78.567 222.477C78.41 222.275 78.0521 222.476 78.1196 222.655L78.0748 222.655Z" fill="#E1DDD7"/>
<path d="M97.0612 174.325C97.0417 179.201 97.3924 184.073 98.1102 188.898C98.6673 193.571 99.6925 198.177 101.171 202.647C102.697 206.895 105.296 210.497 107.202 214.545C108.965 218.988 110.1 223.653 110.576 228.406C110.576 228.764 111.247 228.765 111.314 228.407C113.086 219.526 112.298 210.318 109.04 201.853C108.255 199.796 107.291 197.828 106.371 195.815C105.418 193.464 104.71 191.022 104.259 188.527C103.156 184.052 101.378 179.769 98.9863 175.825C98.7173 175.355 98.0919 175.824 98.2937 176.226C100.444 180.406 102.173 184.788 103.455 189.308C103.796 191.406 104.346 193.466 105.096 195.456C105.971 197.558 107.047 199.593 107.9 201.718C111.517 210.079 112.452 219.35 110.576 228.25L111.336 228.363C111.141 223.791 110.19 219.281 108.522 215.016C106.75 210.879 103.905 207.322 102.267 203.118C98.7212 194.039 98.1703 183.937 97.5308 174.326C97.5133 174.265 97.4766 174.212 97.4261 174.173C97.3756 174.135 97.3141 174.115 97.251 174.115C97.1878 174.115 97.1264 174.135 97.076 174.173C97.0256 174.211 96.989 174.264 96.9718 174.325L97.0612 174.325Z" fill="#E1DDD7"/>
<path d="M17.2346 33.9152C17.0155 53.5355 11.3445 72.6936 0.854637 89.2508L1.79462 89.8108C3.73541 86.5059 3.55093 82.5498 4.01531 78.8629C4.49902 74.3277 5.36794 69.843 6.61267 65.4571C8.83794 57.7498 12.4505 50.6479 14.9667 43.1198C16.4349 39.3073 17.1872 35.2552 17.186 31.1662C17.1858 31.012 17.1243 30.8642 17.0151 30.755C16.9059 30.6459 16.758 30.5845 16.6038 30.5843C16.4496 30.5841 16.3018 30.6451 16.1929 30.7539C16.084 30.8627 16.023 31.0104 16.0232 31.1645C15.6789 40.6847 11.0622 49.305 7.7649 57.9718C5.82251 63.0857 4.40642 68.3854 3.53854 73.789C3.11736 76.4032 2.83037 79.0177 2.63284 81.6546C2.66524 84.2873 2.07915 86.8891 0.92172 89.2509C0.885101 89.3124 0.860989 89.3807 0.850776 89.4516C0.840562 89.5226 0.844452 89.5949 0.862201 89.6645C0.879948 89.734 0.911216 89.7994 0.954224 89.857C0.997232 89.9145 1.05113 89.9631 1.11285 89.9998C1.17457 90.0366 1.24291 90.0609 1.31394 90.0713C1.38498 90.0817 1.45733 90.078 1.52686 90.0605C1.5964 90.043 1.66176 90.0119 1.71921 89.9691C1.77666 89.9262 1.82508 89.8725 1.8617 89.8109C7.04673 81.5812 11.0746 72.6758 13.8325 63.3441C16.8041 53.8284 18.2172 43.8912 18.0173 33.9163C17.9953 33.823 17.9424 33.7397 17.8672 33.6801C17.7921 33.6205 17.699 33.588 17.6031 33.5878C17.5073 33.5877 17.4143 33.6199 17.3393 33.6794C17.2642 33.7388 17.2116 33.8219 17.1899 33.9151L17.2346 33.9152Z" fill="#E1DDD7"/>
</svg>
