<svg width="286" height="199" viewBox="0 0 286 199" fill="none" xmlns="http://www.w3.org/2000/svg">
<path d="M41.2278 146.659C71.4813 131.147 99.1747 111.316 128.101 93.2961C142.267 84.292 156.977 76.168 172.145 68.97C188.363 61.598 205.171 55.5909 222.396 51.0109C232.16 48.3604 242.018 46.0116 251.922 43.8253C261.826 41.639 271.73 39.2207 281.751 37.8929C282.842 37.7556 283.355 39.2875 282.219 39.5871C273.521 41.8915 264.544 43.4763 255.73 45.3862C246.916 47.2961 238.056 49.3451 229.312 51.603C211.885 55.9183 194.827 61.589 178.294 68.5633C147.34 81.9633 119.39 100.936 91.0206 119.026C75.0545 129.407 58.4822 138.828 41.3912 147.24C41.0203 147.424 40.6712 146.867 41.0653 146.659L41.2278 146.659Z" fill="#E1DDD7"/>
<path d="M284.225 38.7538C278.201 42.2083 273.095 47.0564 269.336 52.8933C265.378 58.8326 260.951 64.4456 256.099 69.679C251.203 74.4874 245.912 78.8753 240.28 82.7967C234.617 86.8765 228.713 90.6132 222.601 93.9865C215.73 97.8194 208.37 100.707 200.72 102.572C200.537 102.609 200.347 102.581 200.181 102.494C200.016 102.407 199.885 102.266 199.811 102.095C199.737 101.923 199.725 101.731 199.776 101.552C199.827 101.373 199.938 101.217 200.091 101.11C205.855 97.0377 211.187 92.386 216.001 87.2274C221.249 81.8578 226.521 76.5037 231.815 71.1651C236.932 66.0503 242.026 60.8428 247.514 56.0996C252.386 51.7901 257.846 48.1937 263.732 45.4173C270.238 42.4175 276.927 39.8278 283.759 37.6632C284.895 37.2943 285.316 39.0108 284.25 39.4263C278.177 41.7338 271.987 43.7861 266.054 46.488C260.03 49.1553 254.414 52.6574 249.372 56.8914C243.998 61.5188 238.997 66.4483 233.973 71.4009C228.948 76.3536 223.414 81.9313 218.159 87.2545C212.9 92.9076 207.098 98.0302 200.836 102.549L200.23 101.11C214.142 97.9359 226.422 90.5387 237.937 82.6301C243.786 78.6511 249.294 74.1942 254.405 69.305C259.378 64.0215 263.928 58.355 268.013 52.3576C272.317 46.6154 277.271 41.1757 283.923 38.3591C284.248 38.2206 284.48 38.7775 284.156 38.9392L284.225 38.7538Z" fill="#E1DDD7"/>
<path d="M187.465 8.08067C196.384 14.8262 205.692 21.0394 215.342 26.6875C224.762 32.689 235.069 37.1622 245.879 39.9405C252.151 41.1872 258.551 41.6504 264.931 41.3194C265.137 41.3164 265.337 41.3893 265.493 41.5243C265.648 41.6593 265.749 41.8468 265.775 42.0508C265.801 42.2549 265.751 42.4612 265.635 42.6303C265.518 42.7993 265.343 42.9191 265.143 42.9668C259.637 43.9808 253.978 43.8762 248.505 42.6592C242.851 41.5533 237.342 39.7919 232.091 37.4109C221.749 32.5722 211.867 26.8012 202.568 20.1698C197.227 16.5667 192.077 12.6861 187.141 8.54404C186.908 8.35806 187.14 7.94091 187.465 8.12706L187.465 8.08067Z" fill="#E1DDD7"/>
<path d="M185.334 26.3158C193.345 27.6519 201.285 29.2199 209.25 30.7416C212.96 31.4048 216.703 31.8603 220.463 32.106C223.295 32.3427 227.59 32.4192 229.52 34.8134C229.59 34.8817 229.637 34.9693 229.657 35.0648C229.677 35.1603 229.667 35.2594 229.63 35.3493C229.592 35.4392 229.529 35.5158 229.447 35.5691C229.366 35.6225 229.271 35.6501 229.173 35.6486C227.6 35.4667 226.046 35.1457 224.529 34.6893C222.764 34.3696 220.98 34.1652 219.19 34.0772C215.566 33.8534 211.965 33.3509 208.417 32.5742C200.638 30.7975 192.859 28.9743 185.196 26.9656C185.11 26.9439 185.036 26.8889 184.99 26.8126C184.944 26.7364 184.93 26.6451 184.952 26.5589C184.973 26.4728 185.028 26.3988 185.104 26.3532C185.18 26.3076 185.271 26.2942 185.358 26.3158L185.334 26.3158Z" fill="#E1DDD7"/>
<path d="M172.593 124.615C173.035 113.864 175.175 103.256 178.934 93.1843C182.485 83.3664 187.01 73.0868 194.251 65.4071C197.946 61.0017 202.612 57.513 207.885 55.2132C209.251 54.7291 209.812 56.9081 208.468 57.3923C203.914 59.4614 199.858 62.4797 196.57 66.2454C193.018 69.9281 190.005 74.0961 187.623 78.6256C182.632 87.6082 178.809 97.194 176.247 107.151C174.834 112.882 173.914 118.726 173.497 124.617C173.497 125.127 172.686 125.125 172.708 124.615L172.593 124.615Z" fill="#E1DDD7"/>
<path d="M156.864 105.12C165.44 90.4168 175.363 76.0169 189.073 65.7732C190.902 64.3626 192.825 63.0448 194.77 61.8198C196.653 60.4756 198.721 59.4098 200.91 58.6554C201.629 58.4481 202.349 59.4925 201.678 60.0012C199.686 61.5507 197.276 62.5662 195.145 63.9299C193.014 65.2936 190.883 66.7733 188.869 68.3458C184.742 71.5731 180.871 75.1154 177.293 78.9412C169.897 87.2399 163.189 96.127 157.235 105.515C157.192 105.56 157.134 105.588 157.072 105.596C157.01 105.603 156.948 105.59 156.894 105.558C156.84 105.526 156.799 105.476 156.777 105.418C156.755 105.36 156.752 105.296 156.771 105.236L156.864 105.12Z" fill="#E1DDD7"/>
<path d="M187.585 62.8062C178.113 66.2564 168.404 69.0206 158.532 71.0776C149.317 73.1813 139.879 74.1577 130.422 73.9855C116.361 73.3425 102.377 71.4879 88.6265 68.4424C81.1434 67.0373 73.7698 65.0937 66.5634 62.6266C65.7504 62.3235 65.818 60.9998 66.7699 61.0476C81.3036 61.6266 95.9047 60.7657 110.413 60.044C127.011 59.1861 143.539 58.3745 160.162 59.096C170.562 59.4978 180.933 60.4746 191.229 62.0219C191.902 62.0229 191.741 63.2768 191.068 63.2062C172.471 61.0543 153.757 60.1189 135.045 60.4057C120.142 60.8017 105.285 61.9409 90.3819 62.4297C82.5588 62.6968 74.7123 62.871 66.8651 62.5574L67.0716 60.9784C73.2338 63.1335 79.5346 64.8655 85.9302 66.1623C93.2918 67.7758 100.699 69.0641 108.153 70.1435C114.817 71.1289 121.505 71.9284 128.214 72.2635C137.064 72.6545 145.925 71.9815 154.607 70.2589C160.154 69.222 165.631 67.9528 171.061 66.4512C176.491 64.9496 181.898 63.2622 187.305 61.9697C187.407 61.9421 187.515 61.956 187.607 62.0085C187.698 62.0609 187.765 62.1474 187.793 62.2491C187.821 62.3508 187.807 62.4592 187.755 62.5506C187.703 62.642 187.617 62.7088 187.515 62.7364L187.585 62.8062Z" fill="#E1DDD7"/>
<path d="M138.483 89.5452C131.535 92.6609 129.233 101.601 126.926 108.062C124.459 115.264 122.571 122.629 120.522 129.948C118.592 137.207 116.11 144.306 113.096 151.183C110.188 157.52 106.286 163.348 101.536 168.449C96.5478 173.981 90.6929 178.666 84.199 182.321C84.0702 182.402 83.9175 182.437 83.7659 182.42C83.6143 182.402 83.4729 182.334 83.3649 182.226C83.2568 182.118 83.1886 181.977 83.1714 181.825C83.1542 181.674 83.189 181.521 83.2701 181.392C90.2052 170.769 93.3816 158.239 97.3237 146.173C99.2083 140.167 101.602 134.334 104.478 128.737C107.686 123.057 111.425 117.695 115.646 112.722C120.434 106.869 125.569 101.154 130.52 95.5556C131.237 94.7227 132.421 95.9297 131.704 96.7395C123.076 106.92 113.404 116.495 106.703 128.162C100.371 139.227 97.473 151.827 93.1828 163.73C91.0284 170.183 88.0972 176.348 84.4536 182.09L83.5247 181.161C95.8436 174.341 105.699 163.823 111.705 151.088C118.216 136.988 120.785 121.514 125.997 106.948C128.303 100.418 130.884 91.756 138.019 88.9882C138.389 88.8498 138.669 89.476 138.298 89.6607L138.483 89.5452Z" fill="#E1DDD7"/>
<path d="M41.1635 90.8669C63.1182 98.2865 86.492 100.453 109.405 97.1908C115.823 96.1982 122.184 94.8661 128.459 93.2001C128.641 93.1797 128.825 93.2252 128.977 93.3286C129.128 93.4319 129.238 93.5861 129.286 93.7632C129.334 93.9403 129.317 94.1286 129.238 94.2939C129.159 94.4591 129.024 94.5905 128.856 94.664C117.7 98.0557 106.124 99.8837 94.4579 100.096C82.9854 100.389 71.5142 99.3357 60.2792 96.957C53.743 95.5576 47.3157 93.6851 41.0481 91.3545C40.7461 91.2379 40.8848 90.7735 41.1867 90.8669L41.1635 90.8669Z" fill="#E1DDD7"/>
<path d="M46.7642 73.0382C52.873 77.339 57.8243 82.9131 63.4471 87.7928C66.306 90.3748 69.4737 92.5927 72.8774 94.3953C74.9041 95.4265 77.0076 96.2986 79.1687 97.0037C81.2022 97.5541 83.2019 98.2236 85.1574 99.0087C85.5753 99.2182 85.3912 100.006 84.904 99.959C82.8238 99.5932 80.7861 99.0145 78.823 98.2321C76.8187 97.5795 74.857 96.8015 72.9497 95.9026C69.5958 94.2194 66.4729 92.1093 63.6592 89.625C57.7344 84.5129 52.6894 78.4053 46.4405 73.6405C46.1385 73.408 46.4391 72.8753 46.7643 73.1077L46.7642 73.0382Z" fill="#E1DDD7"/>
<path d="M35.9446 99.6507C50.5633 103.627 66.0301 103.083 80.3072 98.09C80.9337 97.8587 81.2138 98.8578 80.5873 99.066C66.1967 104.312 50.4641 104.656 35.8291 100.045C35.7852 100.023 35.7503 99.9867 35.7307 99.9417C35.711 99.8967 35.7078 99.8463 35.7215 99.7992C35.7353 99.7521 35.7652 99.7115 35.806 99.6843C35.8468 99.6572 35.8958 99.6453 35.9446 99.6507Z" fill="#E1DDD7"/>
<path d="M46.8962 189.584C47.3935 184.627 48.1584 179.702 49.1876 174.829C50.2895 170.195 51.882 165.693 53.9382 161.399C56.0393 156.908 58.558 152.579 60.984 148.297C63.4502 143.961 66.191 139.786 69.1897 135.8C72.1789 131.518 75.8066 127.719 79.9472 124.535C80.3176 124.281 80.6663 124.838 80.3887 125.139C77.4745 128.609 74.0728 131.638 71.1356 135.201C68.1268 139.027 65.3848 143.055 62.929 147.258C57.729 155.257 53.6138 163.914 50.6909 173.001C49.2547 178.445 48.2188 183.988 47.5915 189.585C47.5923 190.026 46.8275 190.047 46.873 189.584L46.8962 189.584Z" fill="#E1DDD7"/>
<path d="M64.5832 183.967C63.0965 177.071 62.2421 170.055 62.0306 163.007C61.7435 156.431 61.7328 148.975 64.3159 142.773C64.6157 142.056 65.7501 142.312 65.543 143.122C64.5803 146.386 63.8808 149.722 63.4513 153.099C63.1552 156.486 63.0673 159.888 63.1882 163.287C63.4064 170.234 64.3187 177.043 64.6989 183.944L64.5137 183.943L64.5832 183.967Z" fill="#E1DDD7"/>
<path d="M78.8153 124.993C73.2811 128.36 67.4974 131.299 61.5143 133.786C57.0351 135.506 52.3597 136.668 47.5933 137.245C37.2436 138.645 26.7057 138.604 16.3544 139.029C11.2565 139.112 6.1741 139.592 1.15355 140.466C0.997001 140.497 0.834563 140.473 0.693428 140.398C0.552293 140.323 0.441026 140.202 0.378252 140.055C0.315477 139.908 0.305005 139.744 0.348587 139.59C0.392169 139.437 0.48716 139.303 0.617662 139.212C3.67915 137.428 6.87362 135.881 10.173 134.585C14.812 132.643 19.6603 130.933 24.5089 129.385C35.2469 125.756 46.3874 123.436 57.6893 122.475C64.6892 122.323 71.689 122.879 78.5818 124.134C79.2317 124.135 79.2335 125.249 78.5834 125.156C72.3937 124.075 66.1291 123.49 59.8494 123.407C54.3761 123.691 48.9402 124.459 43.6055 125.702C32.9442 127.976 22.4979 131.151 12.3791 135.192C8.55518 136.623 4.85524 138.364 1.31592 140.397L0.780026 139.143C9.92213 137.3 19.4854 137.525 28.7693 137.261C38.7728 136.976 49.078 136.737 58.5664 133.712C65.4433 131.196 72.0927 128.1 78.443 124.459C78.4857 124.435 78.5327 124.419 78.5815 124.413C78.6302 124.407 78.6797 124.41 78.7271 124.423C78.7746 124.436 78.819 124.459 78.8579 124.489C78.8968 124.519 78.9295 124.556 78.9539 124.599C78.9784 124.642 78.9942 124.689 79.0005 124.738C79.0067 124.786 79.0034 124.836 78.9905 124.883C78.9776 124.931 78.9556 124.975 78.9255 125.014C78.8955 125.053 78.8581 125.085 78.8155 125.11L78.8153 124.993Z" fill="#E1DDD7"/>
<path d="M19.3503 156.412C24.242 154.101 29.041 151.79 33.8863 149.479C36.4365 148.254 38.9869 147.169 41.5369 145.851C43.6446 144.637 45.8849 143.668 48.2142 142.963C48.2936 142.944 48.3775 142.953 48.4511 142.989C48.5247 143.025 48.5834 143.086 48.6168 143.16C48.6501 143.235 48.6561 143.319 48.6336 143.398C48.6111 143.476 48.5616 143.545 48.4938 143.59C46.3775 144.852 44.1505 145.92 41.8402 146.779C39.2667 147.958 36.6932 149.09 34.1431 150.384C29.3442 152.695 24.5218 154.867 19.6528 156.923C19.305 157.062 18.9793 156.574 19.3503 156.412Z" fill="#E1DDD7"/>
<path d="M15.1864 174.192C19.3647 168.543 24.0096 163.256 29.0726 158.385C31.8278 155.816 34.6063 153.364 37.4545 150.959C40.3424 148.308 43.4403 145.895 46.7181 143.743C46.7918 143.688 46.8845 143.664 46.9759 143.677C47.0673 143.691 47.1498 143.74 47.2052 143.813C47.2607 143.887 47.2847 143.98 47.2718 144.071C47.2589 144.163 47.2103 144.245 47.1366 144.3C44.4048 146.984 41.0459 149.134 38.105 151.586C35.1642 154.038 32.4318 156.397 29.723 158.942C24.627 163.735 19.9142 168.919 15.6276 174.448C15.4887 174.633 15.1637 174.447 15.3024 174.192L15.1864 174.192Z" fill="#E1DDD7"/>
<path d="M185.23 26.4279C185.541 25.5787 185.596 24.6563 185.388 23.7743C185.18 22.8924 184.719 22.0896 184.061 21.465C183.41 20.7947 182.572 20.3358 181.657 20.148C180.742 19.9602 179.793 20.0524 178.934 20.4125C178.15 20.8055 177.484 21.397 177.001 22.1281C176.519 22.8592 176.236 23.7045 176.182 24.5801C176.169 25.3862 176.396 26.1788 176.835 26.8568C177.274 27.5347 177.905 28.0672 178.647 28.3863C179.609 28.8715 180.714 28.9943 181.757 28.7322C182.8 28.4702 183.712 27.8408 184.326 26.9594C184.766 26.3112 185.811 26.9621 185.371 27.5872C184.702 28.5915 183.719 29.3458 182.575 29.7335C181.431 30.1212 180.19 30.1205 179.044 29.7316C178.051 29.4334 177.165 28.8569 176.489 28.0707C175.813 27.2846 175.377 26.3219 175.232 25.297C175.16 24.2436 175.375 23.1914 175.855 22.253C176.336 21.3147 177.063 20.5256 177.959 19.9702C178.888 19.388 179.979 19.1158 181.075 19.1927C182.171 19.2697 183.216 19.6919 184.059 20.3986C184.979 21.0865 185.662 22.0443 186.012 23.1376C186.198 23.7045 186.259 24.3044 186.192 24.8963C186.125 25.4882 185.932 26.0582 185.624 26.5677C185.606 26.6138 185.57 26.6506 185.524 26.6701C185.479 26.6896 185.427 26.6901 185.381 26.6716C185.335 26.6531 185.298 26.617 185.278 26.5713C185.258 26.5256 185.258 26.4741 185.276 26.428L185.23 26.4279Z" fill="#E1DDD7"/>
<path d="M156.669 105.171C155.847 104.827 154.945 104.727 154.069 104.881C153.193 105.036 152.382 105.439 151.731 106.043C151.026 106.646 150.519 107.448 150.277 108.345C150.034 109.241 150.067 110.191 150.372 111.07C150.719 111.903 151.284 112.627 152.007 113.167C152.731 113.707 153.586 114.042 154.482 114.138C155.289 114.184 156.09 113.989 156.783 113.577C157.477 113.166 158.03 112.556 158.374 111.827C158.888 110.887 159.047 109.792 158.824 108.742C158.601 107.692 158.01 106.754 157.158 106.099C156.531 105.657 157.155 104.592 157.782 105.057C158.679 105.727 159.357 106.649 159.728 107.705C160.099 108.76 160.147 109.902 159.865 110.982C159.582 112.063 158.984 113.033 158.145 113.769C157.306 114.505 156.265 114.973 155.156 115.113C154.092 115.143 153.038 114.881 152.109 114.356C151.181 113.832 150.412 113.064 149.887 112.136C149.356 111.172 149.142 110.068 149.273 108.979C149.404 107.889 149.874 106.869 150.618 106.064C151.344 105.195 152.324 104.573 153.42 104.284C153.986 104.127 154.579 104.094 155.16 104.187C155.74 104.28 156.294 104.497 156.784 104.823C156.946 104.824 156.785 105.241 156.646 105.171L156.669 105.171Z" fill="#E1DDD7"/>
<path d="M41.4536 90.6869C41.9413 89.9357 42.2 89.0585 42.1984 88.1615C42.1967 87.2645 41.9348 86.3864 41.4443 85.6334C40.9886 84.8284 40.3033 84.1769 39.4761 83.7623C38.649 83.3478 37.7177 83.1892 36.8018 83.3068C35.9301 83.4944 35.126 83.9135 34.4741 84.5202C33.8222 85.1268 33.3466 85.8985 33.0974 86.754C32.9065 87.5158 32.9439 88.3176 33.2051 89.0599C33.4662 89.8022 33.9395 90.4522 34.5662 90.9293C35.3869 91.6449 36.438 92.0403 37.5251 92.0423C38.6123 92.0443 39.662 91.6527 40.48 90.9401C41.0357 90.4079 41.9185 91.2672 41.3397 91.7993C40.4453 92.6227 39.3005 93.1234 38.0867 93.2219C36.8729 93.3205 35.6594 93.0113 34.6383 92.3434C33.7676 91.8271 33.0591 91.0766 32.5939 90.1779C32.1288 89.2792 31.9259 88.2687 32.0084 87.262C32.1701 86.2075 32.618 85.2184 33.3034 84.4024C33.9888 83.5863 34.8854 82.9743 35.896 82.633C36.9541 82.2843 38.0973 82.284 39.1581 82.6322C40.2188 82.9804 41.1413 83.6587 41.7903 84.5677C42.503 85.4545 42.9188 86.5421 42.9787 87.6761C43.0147 88.2662 42.9241 88.8566 42.7132 89.4079C42.5022 89.9592 42.1757 90.4587 41.7555 90.8729C41.7221 90.8986 41.6809 90.9122 41.6387 90.9113C41.5964 90.9105 41.5557 90.8952 41.5232 90.8682C41.4907 90.8411 41.4684 90.8038 41.46 90.7624C41.4515 90.721 41.4574 90.678 41.4767 90.6405L41.4536 90.6869Z" fill="#E1DDD7"/>
<path d="M15.2613 173.875C14.4735 173.447 13.5827 173.248 12.6894 173.3C11.7962 173.352 10.9361 173.652 10.2062 174.167C9.42419 174.696 8.82378 175.453 8.48548 176.335C8.14718 177.217 8.08717 178.182 8.3135 179.101C8.58171 179.958 9.07425 180.729 9.74004 181.334C10.4058 181.938 11.2206 182.354 12.0999 182.539C12.8853 182.647 13.6845 182.528 14.4031 182.197C15.1217 181.865 15.7296 181.335 16.155 180.668C16.7488 179.781 17.0168 178.714 16.9134 177.65C16.81 176.585 16.3417 175.587 15.5877 174.826C15.007 174.291 15.8635 173.435 16.4442 173.969C17.3409 174.812 17.9316 175.929 18.1228 177.143C18.3141 178.357 18.0949 179.598 17.5 180.671C17.0508 181.574 16.3568 182.332 15.4969 182.859C14.637 183.386 13.6456 183.661 12.6354 183.652C11.5611 183.562 10.532 183.175 9.6628 182.535C8.79357 181.894 8.1183 181.026 7.71222 180.027C7.28108 178.991 7.19147 177.846 7.45645 176.758C7.72142 175.671 8.32714 174.697 9.18542 173.979C10.0446 173.225 11.1089 172.743 12.2441 172.594C12.8483 172.522 13.4616 172.584 14.0396 172.778C14.6175 172.971 15.1457 173.291 15.5857 173.713C15.7483 173.852 15.5864 174.084 15.3775 173.991L15.2613 173.875Z" fill="#E1DDD7"/>
<path d="M19.0479 156.358C18.7081 155.781 18.2223 155.302 17.6394 154.972C17.0565 154.641 16.3972 154.47 15.728 154.475C15.0466 154.461 14.3756 154.638 13.7903 154.985C13.2051 155.332 12.7289 155.835 12.4153 156.439C12.1713 157.036 12.0781 157.685 12.144 158.328C12.2099 158.97 12.4328 159.588 12.7931 160.125C13.1735 160.698 13.7339 161.129 14.3855 161.348C15.0371 161.568 15.7425 161.564 16.39 161.337C17.2213 161.057 17.9178 160.478 18.3448 159.712C18.7718 158.946 18.8989 158.048 18.7015 157.192C18.6678 157.042 18.693 156.884 18.772 156.752C18.851 156.62 18.9778 156.523 19.1263 156.482C19.2747 156.441 19.4336 156.458 19.5701 156.53C19.7067 156.602 19.8106 156.724 19.8605 156.87C20.1539 157.889 20.0785 158.977 19.6475 159.943C19.2165 160.909 18.4577 161.691 17.5047 162.151C16.6906 162.565 15.7654 162.711 14.8612 162.568C13.957 162.425 13.1203 162 12.4707 161.353C11.9155 160.732 11.5258 159.981 11.3378 159.17C11.1499 158.359 11.1696 157.515 11.3954 156.715C11.6655 155.919 12.1618 155.22 12.8239 154.702C13.486 154.185 14.2851 153.872 15.1238 153.801C16.0141 153.68 16.9212 153.835 17.7221 154.246C18.0965 154.463 18.4402 154.729 18.7439 155.036C19.0525 155.397 19.2683 155.827 19.3724 156.289C19.3762 156.328 19.3674 156.368 19.3474 156.401C19.3274 156.435 19.2972 156.462 19.2611 156.477C19.225 156.492 19.185 156.496 19.1467 156.487C19.1084 156.478 19.0738 156.458 19.048 156.428L19.0479 156.358Z" fill="#E1DDD7"/>
<path d="M47.3346 189.956C46.6116 189.888 45.8849 190.028 45.2403 190.36C44.5957 190.691 44.0602 191.2 43.697 191.828C43.3281 192.423 43.1431 193.114 43.165 193.814C43.1869 194.515 43.4148 195.195 43.8201 195.769C44.2427 196.277 44.7831 196.674 45.3941 196.926C46.0051 197.178 46.668 197.276 47.3247 197.212C47.9384 197.127 48.5125 196.862 48.9742 196.45C49.4358 196.039 49.7643 195.499 49.9179 194.899C50.1342 194.084 50.0484 193.217 49.6763 192.458C49.3042 191.699 48.6708 191.099 47.8927 190.769C47.1501 190.489 47.4726 189.308 48.2152 189.587C49.1439 189.933 49.9329 190.575 50.459 191.415C50.985 192.255 51.2184 193.244 51.1226 194.229C51.0296 195.064 50.6991 195.855 50.1701 196.507C49.6412 197.159 48.9359 197.646 48.1377 197.909C47.347 198.128 46.5116 198.134 45.7166 197.925C44.9217 197.716 44.1958 197.299 43.6132 196.719C42.983 196.099 42.5608 195.3 42.4055 194.431C42.2501 193.562 42.3692 192.668 42.7462 191.872C43.1177 190.981 43.7669 190.234 44.5977 189.743C45.0116 189.494 45.4759 189.341 45.9571 189.294C46.4382 189.247 46.9243 189.307 47.3801 189.47C47.5657 189.47 47.5432 189.841 47.3808 189.841L47.3346 189.956Z" fill="#E1DDD7"/>
<path d="M64.3719 184.121C63.7096 184.314 63.1125 184.683 62.6439 185.188C62.1753 185.693 61.8526 186.316 61.7101 186.991C61.5627 187.64 61.5955 188.318 61.8051 188.952C62.0147 189.586 62.3931 190.151 62.8994 190.586C63.4154 190.952 64.0108 191.19 64.6362 191.28C65.2616 191.369 65.8989 191.309 66.495 191.103C67.1576 190.877 67.7237 190.434 68.1015 189.846C68.4793 189.258 68.6466 188.558 68.5763 187.861C68.5163 186.975 68.1241 186.143 67.478 185.532C66.832 184.92 65.9797 184.574 65.0916 184.563C64.9317 184.563 64.7782 184.499 64.6649 184.386C64.5516 184.272 64.4878 184.119 64.4875 183.959C64.4873 183.799 64.5505 183.646 64.6634 183.533C64.7763 183.42 64.9295 183.357 65.0894 183.357C66.123 183.352 67.1282 183.702 67.9361 184.35C68.7439 184.997 69.3052 185.902 69.5254 186.912C69.7541 187.821 69.6845 188.777 69.3269 189.641C68.9693 190.504 68.3426 191.229 67.5397 191.707C66.827 192.087 66.0307 192.286 65.2216 192.284C64.4125 192.283 63.6156 192.082 62.9014 191.699C62.1901 191.261 61.6201 190.627 61.2607 189.873C60.9012 189.12 60.7676 188.279 60.8761 187.453C60.9549 186.538 61.3182 185.671 61.9152 184.974C62.1998 184.632 62.5527 184.352 62.9515 184.153C63.3504 183.955 63.7865 183.841 64.2322 183.82C64.4409 183.82 64.4647 184.121 64.2329 184.19L64.3719 184.121Z" fill="#E1DDD7"/>
<path d="M46.5153 72.7757C47.0078 72.0221 47.2692 71.1404 47.2676 70.2388C47.2659 69.3371 47.0012 68.4545 46.5059 67.6991C46.0502 66.8941 45.3649 66.2426 44.5377 65.8281C43.7106 65.4136 42.7793 65.2549 41.8633 65.3726C40.9909 65.5666 40.1873 65.9908 39.5359 66.6011C38.8845 67.2113 38.4091 67.9854 38.1591 68.8428C37.9742 69.6047 38.0146 70.4046 38.2753 71.1457C38.536 71.8867 39.0058 72.5371 39.6279 73.018C40.4486 73.7337 41.4997 74.129 42.5868 74.131C43.674 74.133 44.7236 73.7415 45.5417 73.0289C46.0974 72.5199 46.957 73.3792 46.4014 73.8881C45.5058 74.7079 44.3632 75.2079 43.1514 75.3105C41.9395 75.413 40.7262 75.1124 39.7001 74.4553C38.8331 73.935 38.1276 73.1838 37.663 72.2861C37.1984 71.3884 36.993 70.3799 37.0701 69.374C37.2342 68.3204 37.683 67.3326 38.368 66.5169C39.0531 65.7012 39.9484 65.0886 40.9577 64.745C42.0157 64.3963 43.159 64.3961 44.2197 64.7443C45.2805 65.0925 46.203 65.7708 46.8519 66.6798C47.5606 67.5689 47.9759 68.6551 48.0404 69.7882C48.0794 70.3785 47.9903 70.9698 47.7792 71.5216C47.568 72.0733 47.2399 72.5725 46.8172 72.9848C46.6783 73.1237 46.4229 72.9841 46.5385 72.7757L46.5153 72.7757Z" fill="#E1DDD7"/>
<path d="M35.8189 99.2027C35.9071 98.277 35.7229 97.3447 35.2888 96.5203C34.8547 95.6959 34.1896 95.0154 33.3752 94.5622C32.5853 94.101 31.6776 93.8827 30.7659 93.9346C29.8543 93.9865 28.9792 94.3064 28.2505 94.8541C27.6341 95.3823 27.1548 96.0519 26.8534 96.806C26.552 97.5601 26.4373 98.3764 26.5191 99.1856C26.6263 100.021 26.9937 100.803 27.5693 101.419C28.1448 102.036 28.8993 102.457 29.7259 102.622C30.7899 102.876 31.908 102.746 32.883 102.256C33.8579 101.766 34.6271 100.947 35.0549 99.9431C35.3087 99.2017 36.492 99.5284 36.2382 100.247C35.8207 101.399 35.0333 102.38 33.9985 103.036C32.9637 103.692 31.7396 103.987 30.5167 103.875C29.4606 103.801 28.4481 103.42 27.6026 102.781C26.7572 102.141 26.1155 101.27 25.7558 100.274C25.4826 99.2922 25.4684 98.2575 25.7145 97.2708C25.9606 96.284 26.4587 95.3788 27.1601 94.6435C27.9116 93.8757 28.8831 93.3599 29.9415 93.1668C30.9999 92.9736 32.0933 93.1127 33.0719 93.5648C34.2052 93.955 35.1522 94.7558 35.7254 95.8086C36.2985 96.8614 36.4561 98.0895 36.1668 99.2497C36.1672 99.4351 35.7961 99.4113 35.8189 99.249L35.8189 99.2027Z" fill="#E1DDD7"/>
<path d="M171.875 124.335C170.65 123.876 169.318 123.78 168.042 124.061C166.766 124.341 165.6 124.985 164.684 125.915C163.769 126.845 163.143 128.021 162.883 129.301C162.623 130.58 162.739 131.91 163.218 133.127C163.77 134.245 164.601 135.202 165.63 135.907C166.659 136.611 167.852 137.039 169.093 137.148C170.252 137.185 171.395 136.883 172.382 136.28C173.37 135.676 174.159 134.798 174.652 133.751C175.367 132.373 175.563 130.784 175.208 129.27C174.852 127.756 173.967 126.417 172.712 125.495C172.085 125.054 172.71 124.012 173.337 124.453C174.662 125.375 175.654 126.702 176.163 128.233C176.671 129.763 176.67 131.416 176.158 132.942C175.766 134.273 175.003 135.462 173.957 136.372C172.911 137.281 171.627 137.873 170.254 138.078C168.814 138.194 167.369 137.913 166.075 137.265C164.781 136.617 163.69 135.626 162.919 134.402C162.122 133.123 161.752 131.625 161.862 130.125C161.972 128.625 162.556 127.201 163.53 126.058C164.452 124.747 165.821 123.816 167.381 123.44C168.942 123.063 170.588 123.266 172.014 124.01C172.199 124.011 172.015 124.428 171.875 124.335Z" fill="#E1DDD7"/>
<path d="M187.233 7.80042C187.439 6.89457 187.376 5.9476 187.054 5.07461C186.731 4.20162 186.162 3.44019 185.415 2.88287C184.68 2.33121 183.798 2.00941 182.882 1.95822C181.965 1.90702 181.055 2.12872 180.266 2.59526C179.539 3.05985 178.944 3.70455 178.539 4.46715C178.134 5.22976 177.933 6.0845 177.955 6.94891C178.023 7.76427 178.337 8.54062 178.856 9.17499C179.375 9.80935 180.074 10.2717 180.861 10.5008C181.873 10.8654 182.98 10.8565 183.983 10.4757C184.987 10.0949 185.819 9.36733 186.33 8.42463C186.7 7.7299 187.745 8.42723 187.375 9.05242C186.796 10.1237 185.876 10.9706 184.76 11.4596C183.644 11.9485 182.395 12.0519 181.211 11.7532C180.238 11.5093 179.351 11 178.65 10.2824C177.948 9.56475 177.459 8.66697 177.238 7.68936C177.062 6.67266 177.16 5.62852 177.52 4.66387C177.881 3.69922 178.493 2.8487 179.292 2.1994C180.138 1.52287 181.174 1.12516 182.257 1.06075C183.341 0.996343 184.419 1.26839 185.344 1.83962C186.379 2.44401 187.193 3.36364 187.668 4.46326C187.921 5.00879 188.052 5.60218 188.053 6.20249C188.054 6.80279 187.925 7.39571 187.674 7.94031C187.675 8.12576 187.303 7.93963 187.349 7.80064L187.233 7.80042Z" fill="#E1DDD7"/>
</svg>
