<svg width="230" height="160" viewBox="0 0 230 160" fill="none" xmlns="http://www.w3.org/2000/svg">
<path d="M196.363 41.9008C172.032 54.3713 149.759 70.3105 126.495 84.7949C115.101 92.0323 103.272 98.563 91.0729 104.35C78.0306 110.277 64.5139 115.108 50.6628 118.793C42.8111 120.925 34.8845 122.815 26.9203 124.574C18.9561 126.334 10.9923 128.28 2.93387 129.35C2.05715 129.46 1.64502 128.23 2.55889 127.989C9.55275 126.135 16.7713 124.859 23.8588 123.322C30.9464 121.785 38.0712 120.136 45.1024 118.319C59.1156 114.847 72.833 110.286 86.1293 104.679C111.022 93.9046 133.501 78.6552 156.318 64.1142C169.159 55.7703 182.487 48.1971 196.232 41.4348C196.53 41.2861 196.81 41.7337 196.494 41.901L196.363 41.9008Z" fill="#E1DDD7"/>
<path d="M0.954482 128.669C5.80001 125.892 9.90666 121.996 12.9316 117.306C16.1165 112.534 19.6777 108.024 23.5814 103.819C27.5191 99.9552 31.7755 96.4289 36.3057 93.2772C40.8605 89.9982 45.6086 86.9949 50.5243 84.2832C56.0507 81.2022 61.9698 78.8802 68.1218 77.3798C68.2689 77.3502 68.4219 77.3721 68.5549 77.4419C68.688 77.5116 68.7931 77.625 68.8524 77.7628C68.9117 77.9007 68.9217 78.0546 68.8807 78.1987C68.8396 78.3428 68.7501 78.4682 68.6271 78.5538C63.9906 81.8268 59.7023 85.5649 55.829 89.7101C51.6074 94.0249 47.367 98.3272 43.108 102.617C38.9918 106.727 34.8943 110.912 30.4792 114.723C26.5603 118.187 22.1687 121.077 17.4351 123.309C12.2026 125.721 6.8233 127.803 1.32874 129.544C0.415223 129.841 0.0775535 128.462 0.935069 128.128C5.81921 126.273 10.7969 124.622 15.5687 122.45C20.4134 120.306 24.9301 117.491 28.9862 114.088C33.3082 110.369 37.3314 106.408 41.3732 102.428C45.415 98.4486 49.8665 93.9666 54.0944 89.689C58.3248 85.1465 62.9918 81.0299 68.0286 77.3983L68.5152 78.5536C57.3277 81.1081 47.4507 87.0539 38.1897 93.4102C33.4852 96.6082 29.0546 100.19 24.9434 104.119C20.9426 108.364 17.282 112.917 13.9953 117.736C10.5326 122.35 6.54725 126.721 1.1974 128.986C0.936423 129.097 0.749286 128.65 1.01023 128.52L0.954482 128.669Z" fill="#E1DDD7"/>
<path d="M78.7351 153.28C71.566 147.865 64.0834 142.877 56.3264 138.343C48.7546 133.525 40.4689 129.935 31.778 127.707C26.7354 126.708 21.5897 126.338 16.4591 126.606C16.2937 126.608 16.133 126.55 16.0079 126.441C15.8827 126.333 15.8019 126.182 15.7809 126.019C15.7599 125.855 15.8001 125.689 15.894 125.553C15.9878 125.417 16.1286 125.321 16.2894 125.283C20.7172 124.466 25.2666 124.548 29.6668 125.524C34.2131 126.411 38.6418 127.824 42.863 129.735C51.1769 133.618 59.1205 138.25 66.5949 143.574C70.8887 146.467 75.0281 149.582 78.9958 152.908C79.1825 153.057 78.9964 153.392 78.735 153.243L78.7351 153.28Z" fill="#E1DDD7"/>
<path d="M80.4489 138.63C74.0093 137.559 67.6254 136.302 61.2229 135.082C58.2402 134.55 55.2305 134.185 52.2079 133.989C49.9309 133.8 46.4784 133.74 44.9271 131.816C44.8711 131.762 44.8327 131.691 44.817 131.615C44.8013 131.538 44.809 131.458 44.8391 131.386C44.8691 131.314 44.9201 131.252 44.9856 131.209C45.051 131.166 45.1279 131.144 45.2062 131.145C46.4707 131.291 47.72 131.548 48.9395 131.915C50.3585 132.171 51.7925 132.335 53.2324 132.405C56.1453 132.583 59.0407 132.986 61.8929 133.609C68.1464 135.034 74.3999 136.497 80.5603 138.108C80.6296 138.126 80.6892 138.17 80.726 138.231C80.7628 138.292 80.7738 138.366 80.7566 138.435C80.7394 138.504 80.6953 138.563 80.6341 138.6C80.5729 138.637 80.4996 138.648 80.4303 138.63L80.4489 138.63Z" fill="#E1DDD7"/>
<path d="M90.7357 59.6551C90.3761 68.2914 88.6518 76.813 85.6266 84.9044C82.7674 92.7919 79.1259 101.051 73.3011 107.222C70.329 110.762 66.5761 113.566 62.3353 115.415C61.2363 115.804 60.7866 114.054 61.867 113.664C65.5292 112.001 68.7916 109.575 71.4365 106.549C74.2942 103.59 76.7178 100.241 78.6353 96.6017C82.6508 89.3847 85.7278 81.6835 87.7917 73.6844C88.9297 69.0803 89.6715 64.3865 90.0089 59.6541C90.0083 59.2446 90.6606 59.2455 90.6425 59.6549L90.7357 59.6551Z" fill="#E1DDD7"/>
<path d="M103.373 75.3087C96.4709 87.1221 88.4875 98.6918 77.4597 106.925C75.9882 108.058 74.4419 109.117 72.8769 110.102C71.3623 111.182 69.6992 112.039 67.9389 112.646C67.361 112.813 66.7818 111.974 67.322 111.565C68.9239 110.32 70.8621 109.503 72.5761 108.407C74.2902 107.311 76.0041 106.122 77.6246 104.858C80.9444 102.264 84.0576 99.4178 86.9364 96.3437C92.8861 89.6754 98.2829 82.5347 103.074 74.9918C103.109 74.9562 103.155 74.9334 103.205 74.9272C103.255 74.921 103.305 74.9316 103.348 74.9575C103.391 74.9833 103.424 75.0228 103.442 75.0697C103.46 75.1165 103.462 75.168 103.447 75.2158L103.373 75.3087Z" fill="#E1DDD7"/>
<path d="M78.6575 109.31C86.2736 106.534 94.0803 104.309 102.018 102.652C109.426 100.958 117.015 100.17 124.617 100.305C135.922 100.818 147.164 102.304 158.217 104.747C164.233 105.874 170.16 107.434 175.953 109.415C176.606 109.658 176.552 110.722 175.786 110.684C164.102 110.223 152.363 110.92 140.699 111.505C127.355 112.2 114.067 112.858 100.703 112.283C92.3421 111.964 84.0044 111.182 75.7279 109.942C75.1867 109.941 75.3162 108.933 75.8575 108.99C90.808 110.713 105.853 111.459 120.896 111.222C132.878 110.899 144.822 109.978 156.804 109.581C163.093 109.363 169.402 109.221 175.71 109.47L175.544 110.74C170.59 109.009 165.525 107.619 160.384 106.579C154.466 105.284 148.511 104.251 142.519 103.386C137.162 102.596 131.786 101.956 126.392 101.689C119.278 101.377 112.153 101.921 105.173 103.309C100.713 104.144 96.3091 105.166 91.9431 106.375C87.577 107.583 83.2298 108.942 78.8822 109.982C78.8005 110.004 78.7133 109.993 78.6398 109.951C78.5662 109.909 78.5124 109.84 78.49 109.758C78.4676 109.676 78.4786 109.589 78.5205 109.515C78.5625 109.442 78.6319 109.388 78.7135 109.366L78.6575 109.31Z" fill="#E1DDD7"/>
<path d="M118.138 87.7993C123.727 85.2942 125.581 78.1122 127.437 72.9217C129.424 67.1358 130.944 61.219 132.595 55.3396C134.149 49.5079 136.147 43.8047 138.573 38.2798C140.913 33.189 144.053 28.506 147.873 24.4073C151.886 19.962 156.596 16.1971 161.819 13.2587C161.922 13.1936 162.045 13.1655 162.167 13.1793C162.289 13.1931 162.402 13.2478 162.489 13.3345C162.576 13.4212 162.631 13.5347 162.645 13.6564C162.658 13.7782 162.63 13.9008 162.565 14.0043C156.985 22.54 154.427 32.606 151.253 42.299C149.736 47.1241 147.809 51.8103 145.494 56.3066C142.913 60.8705 139.905 65.179 136.509 69.1744C132.658 73.8782 128.526 78.4699 124.544 82.9688C123.967 83.638 123.015 82.6688 123.592 82.0182C130.533 73.838 138.313 66.143 143.706 56.7695C148.8 47.8795 151.135 37.7573 154.589 28.195C156.323 23.0107 158.682 18.0577 161.614 13.4446L162.36 14.1901C152.453 19.6728 144.524 28.1245 139.691 38.3558C134.451 49.6838 132.38 62.1144 128.184 73.8162C126.328 79.0625 124.25 86.0209 118.512 88.2465C118.214 88.3578 117.989 87.8549 118.287 87.7064L118.138 87.7993Z" fill="#E1DDD7"/>
<path d="M196.374 86.7107C178.726 80.7535 159.935 79.02 141.514 81.6496C136.353 82.4497 131.239 83.5226 126.194 84.864C126.047 84.8804 125.9 84.8438 125.778 84.7608C125.656 84.6778 125.568 84.5539 125.529 84.4115C125.49 84.2692 125.504 84.1178 125.568 83.985C125.631 83.8521 125.74 83.7465 125.875 83.6873C134.845 80.9571 144.152 79.4838 153.531 79.3094C162.755 79.0698 171.976 79.9128 181.008 81.8213C186.262 82.9441 191.429 84.4472 196.467 86.3186C196.71 86.4123 196.598 86.7856 196.355 86.7106L196.374 86.7107Z" fill="#E1DDD7"/>
<path d="M191.874 101.032C186.963 97.58 182.984 93.1045 178.464 89.1869C176.167 87.114 173.62 85.3336 170.884 83.8869C169.255 83.0593 167.564 82.3595 165.826 81.7938C164.191 81.3524 162.584 80.8154 161.011 80.1854C160.675 80.0173 160.824 79.3843 161.215 79.422C162.888 79.7152 164.526 80.1793 166.104 80.8071C167.716 81.3306 169.293 81.9548 170.826 82.6762C173.523 84.027 176.033 85.7208 178.295 87.7153C183.057 91.8194 187.111 96.7235 192.134 100.549C192.377 100.735 192.135 101.163 191.874 100.977L191.874 101.032Z" fill="#E1DDD7"/>
<path d="M200.575 79.6489C188.824 76.4576 176.389 76.8998 164.909 80.9175C164.406 81.1036 164.181 80.3006 164.684 80.1331C176.255 75.9118 188.904 75.6301 200.668 79.3317C200.703 79.3493 200.731 79.3788 200.747 79.415C200.763 79.4512 200.765 79.4917 200.754 79.5295C200.743 79.5674 200.719 79.6 200.686 79.6219C200.654 79.6437 200.614 79.6533 200.575 79.6489Z" fill="#E1DDD7"/>
<path d="M191.808 7.40299C191.406 11.3849 190.79 15.3418 189.96 19.2561C189.073 22.979 187.791 26.5959 186.136 30.0457C184.445 33.654 182.419 37.1317 180.466 40.5722C178.482 44.0565 176.277 47.4104 173.864 50.6135C171.459 54.0545 168.541 57.1071 165.211 59.6656C164.913 59.8699 164.633 59.4228 164.856 59.1812C167.2 56.3926 169.937 53.9582 172.3 51.0953C174.72 48.0212 176.926 44.7844 178.902 41.4076C183.086 34.9801 186.398 28.0254 188.751 20.7248C189.908 16.3515 190.742 11.8988 191.249 7.40222C191.248 7.0486 191.863 7.03083 191.826 7.40301L191.808 7.40299Z" fill="#E1DDD7"/>
<path d="M177.589 11.9188C178.781 17.4585 179.465 23.0945 179.633 28.7566C179.861 34.0401 179.867 40.0303 177.79 45.0138C177.549 45.5903 176.637 45.3847 176.804 44.7338C177.579 42.1115 178.142 39.4308 178.488 36.7176C178.727 33.9965 178.799 31.263 178.703 28.5325C178.53 22.9514 177.799 17.4814 177.496 11.9374L177.645 11.9375L177.589 11.9188Z" fill="#E1DDD7"/>
<path d="M166.119 59.3012C170.569 56.5946 175.22 54.2309 180.031 52.2308C183.633 50.8477 187.393 49.9127 191.225 49.4469C199.546 48.3193 208.019 48.3483 216.341 48.0041C220.44 47.9358 224.526 47.5479 228.563 46.844C228.689 46.8195 228.82 46.8389 228.933 46.8991C229.047 46.9593 229.136 47.0565 229.186 47.1746C229.237 47.2926 229.245 47.4243 229.21 47.5475C229.175 47.6708 229.099 47.7782 228.994 47.8517C226.532 49.2865 223.963 50.5304 221.31 51.5725C217.579 53.1346 213.681 54.51 209.782 55.7549C201.148 58.6742 192.19 60.5419 183.103 61.3176C177.475 61.4424 171.847 60.9981 166.306 59.9915C165.784 59.9909 165.783 59.0956 166.305 59.1709C171.281 60.0373 176.318 60.505 181.367 60.5694C185.767 60.3397 190.138 59.7209 194.427 58.7202C203 56.89 211.399 54.3359 219.536 51.0854C222.611 49.9342 225.586 48.5344 228.433 46.8998L228.863 47.9075C221.512 49.3906 213.824 49.2133 206.359 49.428C198.316 49.6607 190.031 49.8557 182.401 52.2897C176.872 54.3135 171.525 56.8027 166.418 59.7305C166.383 59.7501 166.346 59.7627 166.306 59.7676C166.267 59.7725 166.227 59.7697 166.189 59.7593C166.151 59.7488 166.115 59.731 166.084 59.7068C166.053 59.6826 166.027 59.6524 166.007 59.6181C165.987 59.5838 165.975 59.546 165.97 59.5068C165.965 59.4676 165.967 59.4278 165.978 59.3897C165.988 59.3517 166.006 59.316 166.03 59.2848C166.054 59.2536 166.084 59.2275 166.119 59.2079L166.119 59.3012Z" fill="#E1DDD7"/>
<path d="M213.939 34.0387C210.005 35.8967 206.145 37.7548 202.249 39.6128C200.198 40.5976 198.147 41.4706 196.096 42.5299C194.401 43.5056 192.599 44.2846 190.726 44.8518C190.662 44.8676 190.595 44.8604 190.535 44.8315C190.476 44.8026 190.429 44.7538 190.402 44.6937C190.376 44.6336 190.371 44.566 190.389 44.5029C190.407 44.4397 190.447 44.385 190.501 44.3484C192.203 43.3339 193.994 42.4757 195.852 41.7843C197.922 40.8368 199.992 39.9265 202.042 38.8858C205.902 37.0277 209.78 35.2815 213.696 33.6284C213.975 33.517 214.237 33.9086 213.939 34.0387Z" fill="#E1DDD7"/>
<path d="M217.3 19.7559C213.938 24.2944 210.201 28.5432 206.128 32.4577C203.912 34.5214 201.677 36.492 199.386 38.4252C197.063 40.5555 194.571 42.4948 191.935 44.2242C191.875 44.2686 191.801 44.2876 191.727 44.277C191.654 44.2664 191.588 44.2271 191.543 44.1678C191.498 44.1085 191.479 44.034 191.49 43.9607C191.5 43.8873 191.539 43.8212 191.598 43.7769C193.796 41.62 196.498 39.8922 198.863 37.9218C201.229 35.9514 203.427 34.0552 205.606 32.0101C209.705 28.1585 213.496 23.9927 216.945 19.5506C217.057 19.4018 217.318 19.5512 217.206 19.7558L217.3 19.7559Z" fill="#E1DDD7"/>
<path d="M80.5344 138.54C80.2841 139.222 80.2396 139.963 80.4063 140.672C80.573 141.38 80.9436 142.025 81.4724 142.526C81.996 143.064 82.6695 143.433 83.405 143.583C84.1404 143.734 84.9037 143.659 85.5949 143.37C86.225 143.054 86.7609 142.578 87.1493 141.991C87.5378 141.404 87.7653 140.725 87.8093 140.021C87.8201 139.374 87.6374 138.737 87.2846 138.193C86.9317 137.648 86.4247 137.221 85.8283 136.965C85.0544 136.576 84.1667 136.477 83.3279 136.688C82.4891 136.899 81.7553 137.405 81.261 138.113C80.9075 138.634 80.0675 138.111 80.4211 137.609C80.9596 136.802 81.7501 136.196 82.67 135.884C83.59 135.572 84.5881 135.573 85.5097 135.885C86.3074 136.124 87.0202 136.586 87.5632 137.218C88.1063 137.849 88.4568 138.622 88.5731 139.445C88.6311 140.291 88.4575 141.136 88.0709 141.89C87.6843 142.644 87.0994 143.278 86.3786 143.725C85.6313 144.193 84.7539 144.412 83.8726 144.35C82.9913 144.289 82.1514 143.95 81.4736 143.383C80.7338 142.83 80.185 142.061 79.904 141.183C79.755 140.728 79.7058 140.246 79.7598 139.771C79.8138 139.295 79.9698 138.837 80.2172 138.428C80.232 138.391 80.2609 138.361 80.2976 138.346C80.3343 138.33 80.3757 138.33 80.4129 138.344C80.45 138.359 80.4797 138.388 80.4955 138.425C80.5113 138.462 80.5118 138.503 80.4971 138.54L80.5344 138.54Z" fill="#E1DDD7"/>
<path d="M103.527 75.2605C104.188 75.5362 104.913 75.6167 105.617 75.4922C106.321 75.3677 106.974 75.0436 107.498 74.5585C108.065 74.0736 108.473 73.4292 108.668 72.7089C108.863 71.9887 108.837 71.226 108.593 70.5196C108.314 69.851 107.86 69.2694 107.278 68.836C106.697 68.4026 106.009 68.1336 105.288 68.0573C104.64 68.0202 103.996 68.1772 103.438 68.5081C102.88 68.839 102.435 69.3288 102.158 69.9148C101.745 70.6702 101.616 71.5491 101.795 72.3928C101.974 73.2364 102.449 73.9892 103.134 74.5151C103.638 74.8696 103.136 75.7254 102.632 75.3523C101.911 74.8144 101.366 74.0741 101.068 73.2263C100.77 72.3785 100.732 71.4618 100.959 70.5939C101.186 69.7259 101.668 68.9462 102.343 68.3548C103.018 67.7634 103.855 67.3872 104.746 67.2745C105.603 67.25 106.45 67.4597 107.196 67.8808C107.943 68.3019 108.561 68.9184 108.983 69.6637C109.409 70.4373 109.581 71.3243 109.475 72.1995C109.37 73.0747 108.991 73.8938 108.393 74.5411C107.808 75.2394 107.021 75.7391 106.139 75.9716C105.684 76.0982 105.207 76.1251 104.74 76.0505C104.273 75.9759 103.828 75.8017 103.434 75.5396C103.304 75.5394 103.434 75.2045 103.546 75.2605L103.527 75.2605Z" fill="#E1DDD7"/>
<path d="M196.138 86.8511C195.746 87.4546 195.538 88.1593 195.539 88.8797C195.54 89.6002 195.75 90.3054 196.144 90.91C196.51 91.5565 197.061 92.0795 197.726 92.4122C198.391 92.7449 199.14 92.8719 199.877 92.7771C200.577 92.6262 201.224 92.2893 201.749 91.8018C202.273 91.3144 202.656 90.6944 202.856 90.0072C203.01 89.3953 202.98 88.7513 202.771 88.1551C202.561 87.559 202.18 87.0371 201.677 86.6541C201.017 86.0796 200.172 85.7624 199.298 85.7611C198.424 85.7599 197.579 86.0747 196.921 86.6474C196.474 87.075 195.765 86.3851 196.23 85.9576C196.95 85.2959 197.871 84.8934 198.847 84.8139C199.823 84.7343 200.798 84.9822 201.619 85.5183C202.319 85.9327 202.889 86.5353 203.262 87.2569C203.636 87.9786 203.799 88.7902 203.732 89.5988C203.602 90.4458 203.241 91.2404 202.69 91.8961C202.139 92.5518 201.417 93.0436 200.605 93.3181C199.754 93.5985 198.834 93.5991 197.982 93.3198C197.129 93.0405 196.387 92.496 195.866 91.7661C195.293 91.0541 194.959 90.1807 194.911 89.2698C194.882 88.796 194.955 88.3217 195.125 87.8788C195.295 87.4359 195.558 87.0347 195.896 86.7018C195.923 86.6812 195.956 86.6702 195.99 86.6709C196.024 86.6716 196.056 86.6838 196.083 86.7056C196.109 86.7273 196.127 86.7573 196.133 86.7905C196.14 86.8237 196.135 86.8582 196.12 86.8883L196.138 86.8511Z" fill="#E1DDD7"/>
<path d="M217.23 20.003C217.863 20.3459 218.58 20.5055 219.298 20.4637C220.016 20.4219 220.708 20.1805 221.295 19.7667C221.924 19.3411 222.407 18.7334 222.679 18.0249C222.952 17.3164 223 16.5411 222.818 15.803C222.603 15.1144 222.207 14.4954 221.672 14.0101C221.137 13.5249 220.482 13.191 219.775 13.0432C219.143 12.9564 218.501 13.0519 217.923 13.3183C217.345 13.5848 216.856 14.011 216.514 14.5467C216.036 15.2596 215.82 16.1163 215.903 16.9715C215.986 17.8267 216.362 18.6279 216.968 19.2393C217.435 19.6682 216.746 20.3561 216.279 19.9272C215.558 19.2505 215.084 18.3537 214.93 17.3788C214.777 16.4039 214.953 15.4067 215.432 14.5452C215.794 13.8198 216.352 13.2108 217.044 12.7872C217.735 12.3637 218.532 12.1425 219.345 12.1488C220.209 12.2213 221.036 12.5318 221.735 13.0456C222.433 13.5594 222.976 14.2564 223.302 15.0589C223.649 15.8908 223.72 16.8105 223.507 17.6842C223.293 18.558 222.806 19.3401 222.116 19.9168C221.425 20.5228 220.569 20.9103 219.656 21.0305C219.17 21.089 218.677 21.0388 218.212 20.8836C217.747 20.7284 217.323 20.472 216.969 20.133C216.838 20.0211 216.969 19.8351 217.137 19.9098L217.23 20.003Z" fill="#E1DDD7"/>
<path d="M214.182 34.0804C214.455 34.5442 214.846 34.9282 215.314 35.1936C215.783 35.4591 216.313 35.5966 216.851 35.5923C217.399 35.603 217.938 35.4608 218.409 35.1819C218.88 34.903 219.263 34.4983 219.515 34.0133C219.712 33.5335 219.787 33.0125 219.734 32.4962C219.681 31.9799 219.502 31.4841 219.213 31.0524C218.907 30.5923 218.457 30.2468 217.933 30.0707C217.409 29.8946 216.842 29.8979 216.321 30.0802C215.652 30.3058 215.092 30.7712 214.749 31.3864C214.405 32.0016 214.302 32.7228 214.461 33.4105C214.488 33.5314 214.468 33.6579 214.404 33.7641C214.34 33.8702 214.239 33.9479 214.119 33.9811C214 34.0144 213.872 34.0006 213.762 33.9427C213.652 33.8848 213.569 33.7871 213.529 33.6698C213.293 32.8515 213.354 31.9773 213.701 31.2011C214.048 30.425 214.659 29.7968 215.425 29.4272C216.08 29.094 216.824 28.9763 217.551 29.091C218.278 29.2057 218.95 29.547 219.473 30.0659C219.919 30.5649 220.232 31.168 220.383 31.8192C220.534 32.4704 220.517 33.1487 220.336 33.7911C220.118 34.4306 219.719 34.9926 219.186 35.4084C218.654 35.8243 218.011 36.076 217.337 36.1329C216.621 36.2306 215.891 36.1061 215.247 35.7762C214.946 35.6026 214.67 35.3893 214.426 35.142C214.178 34.8526 214.005 34.5072 213.921 34.1359C213.918 34.1045 213.925 34.0729 213.941 34.0459C213.957 34.0188 213.982 33.9975 214.011 33.9851C214.04 33.9728 214.072 33.9699 214.103 33.977C214.133 33.984 214.161 34.0007 214.182 34.0245L214.182 34.0804Z" fill="#E1DDD7"/>
<path d="M191.457 7.09832C192.039 7.15297 192.623 7.0404 193.142 6.7739C193.66 6.5074 194.091 6.09811 194.383 5.59439C194.68 5.11639 194.829 4.56132 194.811 3.99843C194.794 3.43554 194.611 2.88974 194.285 2.42915C193.946 2.02103 193.511 1.70202 193.02 1.50007C192.529 1.29813 191.996 1.21943 191.468 1.27085C190.974 1.33919 190.512 1.55232 190.141 1.88324C189.77 2.21416 189.506 2.64799 189.382 3.12972C189.208 3.78434 189.276 4.48042 189.575 5.0898C189.874 5.69918 190.383 6.18084 191.009 6.44606C191.606 6.67032 191.346 7.61948 190.749 7.39522C190.003 7.11811 189.368 6.60202 188.946 5.92769C188.523 5.25336 188.336 4.45881 188.413 3.66828C188.488 2.99714 188.754 2.36201 189.179 1.83802C189.605 1.31403 190.172 0.923076 190.814 0.711378C191.45 0.534954 192.122 0.530374 192.761 0.698104C193.4 0.865834 193.984 1.19986 194.452 1.66605C194.958 2.16331 195.298 2.80537 195.422 3.50294C195.547 4.20051 195.451 4.9189 195.147 5.55822C194.848 6.27398 194.326 6.87387 193.658 7.26899C193.325 7.46866 192.952 7.59198 192.565 7.63007C192.178 7.66816 191.787 7.62006 191.421 7.48925C191.271 7.48904 191.29 7.19118 191.42 7.19137L191.457 7.09832Z" fill="#E1DDD7"/>
<path d="M177.757 11.7907C178.289 11.6356 178.769 11.3394 179.146 10.9334C179.523 10.5275 179.783 10.027 179.898 9.48493C180.017 8.96319 179.99 8.41858 179.822 7.9098C179.654 7.40101 179.35 6.94733 178.943 6.59766C178.528 6.30396 178.049 6.11319 177.546 6.04123C177.044 5.96928 176.531 6.01822 176.052 6.18398C175.519 6.3652 175.064 6.72106 174.76 7.1938C174.456 7.66654 174.321 8.22843 174.377 8.78828C174.425 9.49981 174.74 10.1678 175.259 10.6587C175.779 11.1496 176.464 11.4272 177.178 11.4361C177.307 11.4363 177.43 11.4875 177.521 11.5784C177.612 11.6693 177.663 11.7925 177.664 11.9209C177.664 12.0493 177.613 12.1723 177.522 12.263C177.431 12.3536 177.308 12.4045 177.179 12.4043C176.348 12.409 175.54 12.1279 174.891 11.6082C174.241 11.0885 173.79 10.3619 173.614 9.55059C173.43 8.82114 173.486 8.05271 173.774 7.35901C174.062 6.66531 174.566 6.08318 175.212 5.69872C175.785 5.39312 176.425 5.23371 177.076 5.23462C177.727 5.23553 178.367 5.39675 178.941 5.70396C179.513 6.05531 179.971 6.56436 180.26 7.16949C180.549 7.77462 180.656 8.44987 180.569 9.11349C180.505 9.84862 180.213 10.5448 179.732 11.1045C179.503 11.3798 179.22 11.6045 178.899 11.7643C178.578 11.9241 178.227 12.0156 177.869 12.0329C177.701 12.0326 177.682 11.7906 177.868 11.735L177.757 11.7907Z" fill="#E1DDD7"/>
<path d="M192.061 101.242C191.665 101.848 191.455 102.556 191.456 103.28C191.457 104.005 191.669 104.713 192.067 105.32C192.433 105.966 192.984 106.49 193.649 106.822C194.314 107.155 195.063 107.282 195.799 107.187C196.501 107.031 197.147 106.69 197.671 106.2C198.195 105.709 198.578 105.087 198.779 104.399C198.928 103.787 198.896 103.144 198.687 102.549C198.477 101.954 198.1 101.432 197.6 101.045C196.94 100.471 196.095 100.154 195.221 100.152C194.347 100.151 193.502 100.466 192.844 101.039C192.397 101.448 191.706 100.758 192.153 100.349C192.874 99.6902 193.793 99.2881 194.767 99.2053C195.742 99.1225 196.717 99.3636 197.542 99.891C198.239 100.309 198.806 100.912 199.179 101.633C199.553 102.354 199.717 103.164 199.655 103.972C199.523 104.818 199.162 105.611 198.61 106.267C198.059 106.922 197.339 107.415 196.527 107.691C195.677 107.971 194.757 107.972 193.904 107.693C193.052 107.413 192.31 106.869 191.789 106.139C191.219 105.425 190.885 104.553 190.834 103.643C190.803 103.168 190.875 102.693 191.045 102.25C191.215 101.807 191.479 101.406 191.819 101.075C191.93 100.963 192.136 101.075 192.043 101.242L192.061 101.242Z" fill="#E1DDD7"/>
<path d="M200.678 80.0075C200.606 80.751 200.754 81.4998 201.103 82.1618C201.452 82.8238 201.986 83.3702 202.641 83.734C203.276 84.1041 204.006 84.2791 204.739 84.2371C205.472 84.1951 206.176 83.9379 206.762 83.4977C207.258 83.0732 207.643 82.5353 207.886 81.9295C208.129 81.3237 208.221 80.668 208.156 80.018C208.07 79.347 207.775 78.7194 207.312 78.2242C206.849 77.729 206.243 77.3912 205.578 77.2588C204.723 77.0554 203.824 77.1599 203.04 77.5539C202.255 77.948 201.637 78.6062 201.292 79.4126C201.088 80.0081 200.137 79.7461 200.341 79.1692C200.677 78.2435 201.31 77.4555 202.143 76.928C202.975 76.4005 203.96 76.1631 204.943 76.2525C205.792 76.3122 206.606 76.6174 207.286 77.1308C207.965 77.6442 208.481 78.3437 208.77 79.1438C208.989 79.9321 209 80.7631 208.802 81.5558C208.604 82.3485 208.203 83.0757 207.639 83.6665C207.034 84.2835 206.253 84.6981 205.402 84.8536C204.551 85.009 203.671 84.8977 202.885 84.5349C201.973 84.2219 201.212 83.579 200.752 82.7336C200.291 81.8882 200.165 80.9018 200.398 79.9698C200.398 79.8209 200.696 79.8399 200.678 79.9702L200.678 80.0075Z" fill="#E1DDD7"/>
<path d="M91.3096 59.8719C92.2952 60.2402 93.3657 60.3162 94.3918 60.0905C95.418 59.8648 96.3559 59.3471 97.0924 58.5999C97.8288 57.8528 98.3323 56.9081 98.542 55.88C98.7516 54.8519 98.6586 53.7843 98.274 52.8062C97.8304 51.9088 97.1626 51.1401 96.3353 50.5746C95.508 50.0092 94.5491 49.6661 93.5515 49.5785C92.6197 49.5494 91.7003 49.7922 90.9061 50.2772C90.1119 50.7623 89.4772 51.4684 89.0798 52.3093C88.5051 53.416 88.3462 54.6926 88.6317 55.9085C88.9173 57.1244 89.6285 58.1996 90.6369 58.9399C91.1409 59.2944 90.6386 60.1316 90.1346 59.7771C89.0692 59.0368 88.2722 57.9719 87.8636 56.7424C87.4549 55.5129 87.4567 54.1853 87.8686 52.9592C88.1843 51.8907 88.7987 50.9349 89.6399 50.204C90.481 49.4731 91.5141 48.9973 92.618 48.8324C93.7758 48.7382 94.9381 48.9635 95.9781 49.4838C97.018 50.0041 97.8956 50.7993 98.515 51.7825C99.1552 52.8096 99.4523 54.0125 99.3635 55.2172C99.2747 56.422 98.8045 57.5663 98.0209 58.4848C97.2787 59.5385 96.178 60.2863 94.9231 60.5893C93.6683 60.8923 92.3446 60.7299 91.1981 60.1324C91.0489 60.1322 91.1976 59.7972 91.3096 59.8719Z" fill="#E1DDD7"/>
<path d="M78.9146 153.506C78.7491 154.233 78.799 154.994 79.0582 155.695C79.3174 156.396 79.7748 157.008 80.3747 157.455C80.9658 157.898 81.6748 158.156 82.4118 158.197C83.1488 158.238 83.8807 158.059 84.5149 157.684C85.1003 157.311 85.579 156.793 85.9048 156.18C86.2306 155.567 86.3925 154.881 86.3748 154.186C86.3205 153.531 86.068 152.908 85.651 152.399C85.234 151.889 84.6721 151.518 84.0398 151.334C83.2262 151.042 82.3356 151.049 81.5288 151.356C80.722 151.662 80.0525 152.246 79.6412 153.004C79.3436 153.562 78.5037 153.002 78.8013 152.5C79.2674 151.639 80.0076 150.959 80.9051 150.565C81.8027 150.172 82.8066 150.089 83.7586 150.328C84.5408 150.524 85.2536 150.933 85.8176 151.509C86.3815 152.085 86.7743 152.806 86.9521 153.591C87.093 154.408 87.0142 155.247 86.7237 156.022C86.4331 156.797 85.9413 157.48 85.2986 158.002C84.6179 158.546 83.7848 158.865 82.9136 158.917C82.0424 158.97 81.1755 158.751 80.4319 158.293C79.6 157.808 78.9453 157.069 78.5641 156.186C78.3611 155.748 78.2557 155.272 78.255 154.789C78.2543 154.307 78.3584 153.831 78.5601 153.393C78.5599 153.244 78.8585 153.394 78.8214 153.505L78.9146 153.506Z" fill="#E1DDD7"/>
</svg>
