<svg width="224" height="52" viewBox="0 0 224 52" fill="none" xmlns="http://www.w3.org/2000/svg">
<g clip-path="url(#clip0)">
<path d="M69.9958 35.7139C69.9796 37.4548 70.1562 39.1922 70.5224 40.8943C70.8234 42.3481 71.4593 43.7118 72.3796 44.8771C73.3268 46.0169 74.5474 46.8984 75.9275 47.4396C77.7165 48.1061 79.6182 48.4183 81.5265 48.3586C83.0356 48.3861 84.5427 48.2365 86.0168 47.913C87.1505 47.6438 88.2623 47.29 89.343 46.8546L88.1789 40.3931C87.3437 40.7065 86.4805 40.9396 85.601 41.0893C84.6955 41.2531 83.7772 41.337 82.857 41.34C81.0086 41.34 79.7798 40.82 79.1705 39.7802C78.5026 38.4925 78.1871 37.0513 78.2559 35.6025V25.2973H88.1789V18.39H78.2559V9.75586L69.9958 11.0928L69.9958 35.7139Z" fill="#12100B"/>
<path d="M98.8279 41.1449C98.3811 40.86 98.0225 40.4563 97.7924 39.9791C97.5623 39.5019 97.4698 38.97 97.5252 38.4432C97.5031 37.8544 97.6575 37.2725 97.9687 36.7721C98.2742 36.3176 98.6951 35.9523 99.1883 35.7137C99.7555 35.4392 100.364 35.2604 100.99 35.1845C101.716 35.0893 102.448 35.0428 103.18 35.0452C103.791 35.0488 104.402 35.086 105.009 35.1567C105.674 35.2315 106.173 35.3058 106.506 35.3796V41.6741C105.918 41.7629 105.326 41.8187 104.732 41.8411C103.992 41.8785 103.216 41.897 102.404 41.8968C101.167 41.9592 99.9348 41.7002 98.8279 41.1449ZM98.8833 17.7493C97.9409 17.8424 97.0447 17.9538 96.1948 18.0835C95.3442 18.2141 94.5588 18.3627 93.8386 18.5292C93.118 18.6962 92.5175 18.854 92.037 19.0026L93.0903 25.6871C94.2402 25.2786 95.4291 24.9892 96.6382 24.8237C98.0146 24.619 99.4043 24.5166 100.796 24.5173C102.902 24.5173 104.381 24.9444 105.231 25.7985C105.662 26.2492 105.998 26.7827 106.217 27.3668C106.436 27.9508 106.535 28.5733 106.506 29.1964V29.9763C105.842 29.8014 105.166 29.6803 104.482 29.6141C103.534 29.5157 102.581 29.4692 101.628 29.4748C100.081 29.4707 98.5391 29.6294 97.0263 29.9484C95.6362 30.2298 94.3048 30.7479 93.0903 31.4802C91.9501 32.1802 91.006 33.1576 90.3462 34.3211C89.627 35.6537 89.2732 37.1526 89.3207 38.666C89.2734 40.2175 89.5765 41.7597 90.2076 43.178C90.7781 44.3798 91.6583 45.4084 92.7577 46.1582C93.9593 46.9587 95.3057 47.5168 96.7214 47.8013C98.4079 48.151 100.127 48.3191 101.849 48.3028C104.41 48.3341 106.968 48.1571 109.5 47.7736C111.606 47.421 113.251 47.1146 114.433 46.8544V29.5863C114.452 27.914 114.247 26.2467 113.823 24.6286C113.455 23.2136 112.741 21.9121 111.745 20.8409C110.658 19.7346 109.316 18.9121 107.836 18.4455C105.863 17.8383 103.803 17.5561 101.738 17.61C100.777 17.61 99.8252 17.6564 98.8833 17.7493V17.7493Z" fill="#12100B"/>
<path d="M117.598 39.1394C118.131 40.9451 119.059 42.6098 120.314 44.0135C121.629 45.4415 123.249 46.5552 125.054 47.2721C127.244 48.119 129.58 48.526 131.928 48.4697C133.528 48.4826 135.126 48.3333 136.696 48.0241C137.928 47.7892 139.135 47.4347 140.299 46.9657L139.135 40.1698C138.122 40.5936 137.061 40.8929 135.975 41.0611C134.913 41.24 133.837 41.3332 132.76 41.3397C129.951 41.3397 127.983 40.6155 126.856 39.1671C125.728 37.7189 125.164 35.6765 125.165 33.0398C125.061 30.8877 125.697 28.7648 126.967 27.0238C128.167 25.5015 129.987 24.7402 132.427 24.7399C133.471 24.7288 134.513 24.841 135.531 25.0742C136.397 25.2794 137.249 25.5398 138.082 25.8541L139.8 19.2253C138.585 18.7069 137.322 18.3058 136.03 18.0277C134.626 17.7381 133.196 17.598 131.762 17.6099C129.593 17.5713 127.44 17.9888 125.442 18.8353C123.661 19.6054 122.057 20.7336 120.73 22.1497C119.421 23.5673 118.412 25.2347 117.764 27.0517C117.072 28.9719 116.725 30.999 116.739 33.0398C116.72 35.1044 117.01 37.1602 117.598 39.1394Z" fill="#12100B"/>
<path d="M141.602 35.7139C141.585 37.4548 141.762 39.1922 142.128 40.8943C142.429 42.3481 143.065 43.7117 143.985 44.8771C144.933 46.0169 146.153 46.8984 147.533 47.4396C149.322 48.1061 151.224 48.4183 153.132 48.3586C154.641 48.3861 156.148 48.2365 157.623 47.913C158.756 47.6438 159.868 47.29 160.949 46.8546L159.785 40.3931C158.95 40.7064 158.086 40.9396 157.207 41.0893C156.301 41.2531 155.383 41.337 154.463 41.34C152.614 41.34 151.385 40.82 150.776 39.7802C150.108 38.4925 149.793 37.0513 149.862 35.6025V25.2973H159.785V18.39H149.862V9.75586L141.602 11.0928L141.602 35.7139Z" fill="#12100B"/>
<path d="M170.947 18.3899H162.687V47.69H170.947V18.3899ZM170.271 7.94611C169.293 7.11411 168.051 6.65723 166.766 6.65723C165.482 6.65723 164.239 7.11411 163.261 7.94611C162.764 8.38712 162.373 8.93389 162.116 9.54613C161.858 10.1584 161.742 10.8205 161.775 11.4837C161.742 12.147 161.858 12.8092 162.115 13.4214C162.372 14.0337 162.764 14.5805 163.261 15.0214C164.239 15.8533 165.482 16.3102 166.766 16.3102C168.051 16.3102 169.293 15.8533 170.271 15.0214C170.768 14.5804 171.16 14.0336 171.417 13.4213C171.674 12.8091 171.791 12.147 171.758 11.4837C171.79 10.8205 171.674 10.1584 171.417 9.54622C171.159 8.934 170.768 8.38722 170.271 7.94611H170.271Z" fill="#12100B"/>
<path d="M179.003 41.2562C177.528 40.9418 176.081 40.5039 174.679 39.9471L173.293 46.6873C174.457 47.1441 175.652 47.5163 176.869 47.8013C178.986 48.2906 181.155 48.5151 183.327 48.4697C187.281 48.4697 190.34 47.7287 192.502 46.2468C193.562 45.5253 194.418 44.5423 194.986 43.3931C195.554 42.244 195.816 40.9676 195.745 39.6878C195.763 38.599 195.623 37.5134 195.329 36.4648C195.044 35.5246 194.552 34.6602 193.888 33.9354C193.078 33.0794 192.132 32.3625 191.088 31.8135C189.642 31.0409 188.141 30.3745 186.598 29.8195C185.711 29.4835 184.981 29.1748 184.408 28.8934C183.934 28.671 183.48 28.409 183.05 28.1102C182.765 27.9238 182.535 27.664 182.385 27.358C182.27 27.0753 182.213 26.772 182.219 26.4667C182.219 25.0185 183.512 24.2944 186.099 24.2944C187.376 24.2812 188.649 24.412 189.897 24.6843C190.956 24.9251 192.001 25.2226 193.029 25.5756L194.47 19.1139C193.208 18.6616 191.91 18.3168 190.59 18.0835C188.909 17.763 187.201 17.6044 185.489 17.61C181.941 17.61 179.151 18.4084 177.118 20.0053C176.127 20.7698 175.333 21.7603 174.802 22.8941C174.272 24.0278 174.021 25.272 174.07 26.5226C174.038 27.7574 174.245 28.9867 174.679 30.1433C175.066 31.1166 175.651 31.9988 176.398 32.7336C177.189 33.4944 178.097 34.1243 179.086 34.5997C180.234 35.1604 181.408 35.6624 182.607 36.1036C183.892 36.5596 185.135 37.1281 186.321 37.8025C186.662 37.9606 186.954 38.2064 187.168 38.5148C187.383 38.8231 187.511 39.1829 187.54 39.5572C187.578 39.9067 187.508 40.2595 187.34 40.5682C187.171 40.8769 186.913 41.1267 186.598 41.2841C185.567 41.6453 184.473 41.7968 183.383 41.7297C181.91 41.7265 180.442 41.5678 179.003 41.2562Z" fill="#12100B"/>
<path d="M197.531 39.2786C198.105 41.0742 199.071 42.72 200.359 44.0969C201.712 45.5051 203.358 46.5986 205.182 47.2999C207.368 48.1233 209.692 48.5204 212.028 48.4696C213.065 48.4695 214.101 48.4138 215.132 48.3026C216.167 48.1911 217.137 48.0518 218.043 47.8848C218.875 47.735 219.699 47.5398 220.51 47.2999C221.119 47.1268 221.712 46.9032 222.284 46.6315L221.175 39.8912C220.025 40.3665 218.826 40.7121 217.599 40.9218C216.128 41.2014 214.634 41.3413 213.137 41.3396C211.141 41.4425 209.163 40.9164 207.482 39.8356C206.809 39.3758 206.246 38.7727 205.834 38.0696C205.422 37.3665 205.171 36.5809 205.098 35.7692H223.836C223.872 35.3236 223.909 34.813 223.947 34.2373C223.983 33.6621 224.002 33.1329 224.002 32.6498C224.002 27.7114 222.801 23.97 220.399 21.4256C217.996 18.8823 214.725 17.6104 210.587 17.6099C208.811 17.6103 207.051 17.9506 205.403 18.6125C203.727 19.2772 202.208 20.2825 200.941 21.5649C199.582 22.9647 198.517 24.6219 197.809 26.439C196.973 28.6149 196.568 30.9324 196.617 33.2626C196.599 35.3038 196.908 37.3347 197.531 39.2786ZM205.098 30.0875C205.211 29.3767 205.387 28.6775 205.625 27.9985C205.851 27.3366 206.199 26.7226 206.651 26.1882C207.109 25.657 207.677 25.2297 208.314 24.9349C209.063 24.6021 209.878 24.4403 210.698 24.4613C211.53 24.4336 212.357 24.6055 213.109 24.9628C213.727 25.2747 214.275 25.7109 214.717 26.2438C215.145 26.7705 215.465 27.3762 215.659 28.0264C215.862 28.6964 215.983 29.3885 216.019 30.0875L205.098 30.0875Z" fill="#12100B"/>
<path d="M14.5428 40.916C14.1148 40.7047 13.7625 40.5276 13.4076 40.356C9.17674 38.3108 4.95044 36.2559 0.708081 34.2347C0.470422 34.1613 0.267931 34.0034 0.138972 33.7909C0.0100127 33.5783 -0.0364561 33.3258 0.00836926 33.0813C0.128655 31.792 0.195769 30.4979 0.293575 29.2064C0.451055 27.1266 0.617008 25.0475 0.776748 22.9679C0.833918 22.2237 0.904517 21.4795 0.928692 20.734C0.933306 20.5284 0.990309 20.3275 1.09431 20.1501C1.19831 19.9727 1.34587 19.8247 1.52303 19.7202C10.3447 13.3626 19.1615 6.99831 27.9735 0.627254C28.1516 0.498626 28.3301 0.370489 28.5068 0.240049C28.9385 -0.0785273 28.9383 -0.0792551 29.4079 0.233364C38.7335 6.44139 48.0619 12.6451 57.3932 18.8444C57.6044 18.972 57.7797 19.1512 57.9026 19.3651C58.0255 19.579 58.092 19.8206 58.0958 20.0672C58.4628 24.2663 58.8429 28.4641 59.2361 32.6608C59.2647 32.8308 59.233 33.0055 59.1465 33.1546C59.06 33.3038 58.924 33.4181 58.7622 33.4777C54.0626 36.1433 49.373 38.8265 44.6676 41.4817C44.4565 41.5616 44.2814 41.7151 44.1744 41.9138C44.0675 42.1126 44.036 42.3432 44.0857 42.5634C44.1636 43.1037 44.125 43.6599 44.1709 44.2063C44.1881 44.3031 44.1705 44.4029 44.1212 44.4879C44.0719 44.573 43.9941 44.6379 43.9015 44.6711C43.7829 44.7284 43.6655 44.7884 43.5475 44.847C38.9049 47.1502 34.2639 49.4565 29.6245 51.766C29.3717 51.9144 29.0847 51.9949 28.7915 51.9996C28.4983 52.0043 28.2089 51.9329 27.9515 51.7926C23.6528 49.686 19.3433 47.6016 15.023 45.5394C14.798 45.4686 14.6067 45.318 14.4852 45.1159C14.3637 44.9138 14.3205 44.6743 14.3637 44.4425C14.46 43.2857 14.4857 42.1231 14.5428 40.916ZM29.9065 23.1717C30.0738 23.4447 30.1561 23.5955 30.2536 23.7359C34.4935 29.846 38.7348 35.9551 42.9775 42.0634C42.9846 42.0735 43.0155 42.0712 43.0342 42.0682C43.0652 42.0591 43.0955 42.0477 43.1247 42.0339C43.1247 41.8948 43.1308 41.743 43.1238 41.5919C42.8394 35.4338 42.5537 29.2757 42.2667 23.1178C42.2578 23.0531 42.2404 22.9899 42.2149 22.9298C42.2056 22.9098 42.1921 22.8921 42.1753 22.8778C42.1606 22.8629 42.1426 22.8513 42.079 22.801L29.9065 23.1717ZM15.3179 43.4613L15.4698 43.5419L28.3761 29.7588L16.2015 24.4905C15.9032 30.8957 15.6105 37.1785 15.3179 43.4613ZM28.3568 1.44767C23.6112 4.84368 19.0016 8.14242 14.3121 11.4984L24.6743 16.6055C25.8169 15.6797 26.8965 14.7818 28.0048 13.9207C28.1634 13.8095 28.2903 13.659 28.3731 13.4839C28.4559 13.3088 28.4916 13.1152 28.4768 12.9221C28.4458 9.52124 28.4382 6.12013 28.4185 2.71912C28.4163 2.35003 28.3836 1.98118 28.3568 1.44767ZM29.0479 51.1208L42.5625 44.4184C41.5529 43.6894 29.9297 37.3533 29.4148 37.2569C29.2937 41.8341 29.1728 46.4019 29.0479 51.1208ZM15.8056 44.9894L28.3948 51.078C28.6005 50.4727 28.9267 37.7943 28.7508 37.2295L15.8056 44.9894ZM28.4193 28.9427C28.5819 27.8303 28.5191 14.7663 28.3478 14.3047L16.5974 23.839L28.4193 28.9427ZM41.7124 22.1153L41.7811 21.9705C37.7675 17.5514 33.7538 13.1323 29.6923 8.66035C29.5253 9.45001 29.6106 21.9047 29.773 22.3915L41.7124 22.1153ZM29.7978 24.0191L29.6372 24.0923C29.6372 24.2218 29.6362 24.3514 29.6374 24.4809C29.6694 28.1246 29.7107 31.7682 29.7223 35.4119C29.7073 35.5933 29.7503 35.7748 29.8452 35.9302C29.9401 36.0856 30.082 36.2068 30.2503 36.2764C34.2703 38.4881 38.2847 40.71 42.2935 42.942C42.4358 43.0209 42.5911 43.0762 42.7403 43.1424L42.815 43.0523L29.7978 24.0191ZM30.1301 8.14231L30.0489 8.26834C34.1434 12.7773 38.2379 17.2863 42.3324 21.7953L42.4737 21.7638C42.8656 18.0781 43.2334 14.3899 43.587 10.6644L30.1301 8.14231ZM44.4665 11.4551C44.5085 12.3108 47.3847 24.4747 47.6418 24.8955L56.9685 19.5756C52.7445 16.8319 48.6256 14.1565 44.4665 11.455V11.4551ZM57.4705 33.2608C56.7055 32.9876 44.133 31.2182 43.5815 31.3C43.7262 34.455 43.8711 37.6174 44.0223 40.9135L57.4705 33.2608ZM13.1704 12.4554C12.4628 12.7756 2.39958 20.0788 2.11529 20.4582C3.03531 21.2827 9.88399 26.18 10.3746 26.3479L13.1704 12.4554ZM14.9002 25.0725L14.784 24.9728C13.2901 25.911 11.7961 26.8493 10.3022 27.7877C8.77953 28.7447 7.25419 29.6977 5.73582 30.6616C4.25417 31.6022 2.74163 32.4967 1.21321 33.5477L9.63103 37.6113C11.4126 33.3718 13.1564 29.2221 14.9002 25.0725ZM47.9369 25.3252C48.3543 25.7715 57.8543 31.8292 58.4338 32.0057L57.3297 19.9148C54.1252 21.7606 51.0361 23.54 47.9369 25.3252V25.3252ZM16.2495 23.3053C16.9191 22.9709 23.8033 17.3537 24.0931 16.9101C22.4591 16.1037 20.8321 15.295 19.1999 14.4969C17.5642 13.6972 15.9491 12.8528 14.1767 12.0563L16.2495 23.3053ZM43.22 23.3484C43.3353 25.8775 43.4427 28.2338 43.5521 30.635L57.4853 32.631L57.5454 32.495L43.22 23.3484ZM1.76884 20.9137C1.44641 24.846 1.16482 28.6523 0.866899 32.6166C3.98873 30.6813 6.97803 28.8282 10.0525 26.9223C7.27724 24.9093 4.58338 22.9552 1.76884 20.9137V20.9137ZM41.7647 9.66057C41.0706 8.906 30.0414 1.61349 29.5658 1.45435V7.29783L41.7647 9.66057ZM16.8478 42.8327L16.9474 42.9435C17.0437 42.904 17.1379 42.8596 17.2297 42.8104C20.8821 40.6218 24.5351 38.4342 28.1886 36.2476C28.3247 36.1819 28.4376 36.0763 28.5121 35.9449C28.5867 35.8135 28.6194 35.6625 28.6059 35.5121C28.5841 33.9541 28.5898 32.3958 28.5831 30.8376C28.5827 30.7371 28.5611 30.6367 28.5304 30.3749C24.5604 34.5852 20.716 38.7201 16.8478 42.8327ZM14.5851 40.0089C14.7998 35.2642 15.0073 30.6781 15.2149 26.092L15.0584 26.0557C13.4117 29.9743 11.765 33.8929 10.1038 37.8458L14.5851 40.0089ZM13.6542 13.4431L13.5118 13.4335C12.6543 17.6908 11.7968 21.9482 10.9133 26.3348C11.1945 26.1833 11.3636 26.1029 11.522 26.0051C12.698 25.2795 13.8727 24.5518 15.0462 23.8221C15.614 23.469 15.609 23.4672 15.4851 22.8317C15.1038 20.8747 14.7239 18.9174 14.3455 16.9598C14.1172 15.7871 13.8868 14.6149 13.6542 13.4431ZM44.1133 12.638L44.0026 12.6333C43.9547 12.788 43.9175 12.9459 43.8912 13.1058C43.6036 16.0058 43.3294 18.9072 43.0269 21.8057C42.9965 21.9526 43.0157 22.1054 43.0816 22.2401C43.1475 22.3749 43.2564 22.4839 43.391 22.5501C44.4258 23.2108 45.4433 23.8984 46.4705 24.5711C46.6266 24.6577 46.7873 24.7357 46.9519 24.8048C45.9898 20.6814 45.0516 16.6597 44.1133 12.638Z" fill="black"/>
</g>
<defs>
<clipPath id="clip0">
<rect width="224" height="52" fill="white"/>
</clipPath>
</defs>
</svg>
