<svg xmlns="http://www.w3.org/2000/svg" width="603" height="78" fill="none"><path fill="#fff" d="M65.5 10.9V67h-10V31.3l-9.9 7.5-8.2 6.3-8.2-6.3-9.9-7.5V67h-10V10.9l10 7.7 18 13.9 18-13.9 10.2-7.7ZM83.6 26v5.2h36.1v10H83.6v10.6c0 2.8 2.3 5.1 5.1 5.1h41v10h-41c-8.3 0-15.1-6.8-15.1-15.1V26c0-8.3 6.7-15.1 15.1-15.1h41v10h-41c-2.8 0-5.1 2.3-5.1 5.1ZM183 57.1l5.1 10h-11.2l-5.1-10-5.4-10.5-.2-.5c-1.8-2.9-4.9-4.8-8.5-4.8h-10v25.8h-10V11h35.4c4.2 0 7.9 1.7 10.7 4.4 2.7 2.8 4.4 6.6 4.4 10.7 0 6.1-3.6 11.4-8.8 13.8-1.4.6-2.8 1-4.3 1.2l7.9 16Zm-10-25.8c.7 0 1.4-.2 2.1-.5 1.8-.8 3-2.6 3-4.6 0-1.8-1-3.1-1.5-3.7-.6-.6-1.8-1.4-3.6-1.4h-25.4v10.3l25.4-.1ZM205.4 38.9c0 9.9 8.1 18 18 18h28.1v10h-28.1c-15.5 0-28.1-12.6-28.1-28.1 0-15.5 12.6-28.1 28.1-28.1h28.1v10h-28.1c-9.9.2-18 8.3-18 18.2ZM315.6 10.9V39c0 15.5-12.6 28.1-28.1 28.1-15.5 0-28.1-12.6-28.1-28.1V10.9h10V39c0 9.9 8.1 18 18 18s18-8.1 18-18V10.9h10.2ZM368.9 57.1l5.1 10h-11.2l-5.1-10-5.4-10.5-.2-.5c-1.8-2.9-4.9-4.8-8.5-4.8h-10v25.8h-10V11H359c4.2 0 7.9 1.7 10.7 4.4 2.7 2.8 4.4 6.6 4.4 10.7 0 6.1-3.6 11.4-8.8 13.8-1.4.6-2.8 1-4.3 1.2l7.9 16ZM359 31.3c.7 0 1.4-.2 2.1-.5 1.8-.8 3-2.6 3-4.6 0-1.8-1-3.1-1.5-3.7-.6-.6-1.8-1.4-3.6-1.4h-25.4v10.3l25.4-.1ZM375.4 67h.2l-.2.2V67Zm56.1-56.2-21.7 28.1-1.2 1.5v26.5h-10V40.6l-1.4-1.7-21.7-28.1h12.7l15.4 20 15.4-20h12.5Zm-.1 56.2.1.2-.1-.2ZM503.4 11c15.5 0 28.1 12.5 28.1 28 0 6.9-2.5 13.2-6.7 18.1-.5.6-1 1.1-1.6 1.7-5 5.1-12 8.3-19.7 8.3h-28.1V10.9l28 .1Zm-18.1 46.1h18c9.9 0 18-8.1 18-18s-8.1-18-18-18h-18v36ZM593.5 10.9l-5.1 10L564.9 67l-23.5-46.1-5.1-10h11.2l5.1 10 12.3 24 12.3-24 5.1-10h11.2Z"/></svg>