<svg xmlns="http://www.w3.org/2000/svg" xml:space="preserve" id="Слой_1" x="0" y="0" style="enable-background:new 0 0 591.9841309 188.6216888" version="1.1" viewBox="0 0 591.984 188.622"><style>.st0,.st1,.st2{fill-rule:evenodd;clip-rule:evenodd;fill:#3f9a46}.st1,.st2{fill:#379847}.st2{fill:#fff}</style><path d="M461.387 115.256v7.178l-4.45-7.178h-3.67v12.025h3.391v-7.148l4.478 7.148h3.516v-12.025h-3.265zM498.496 115.256h-7.153v12.025h7.153v-2.828h-3.764v-1.895h3.515v-2.703h-3.515v-1.772h3.764v-2.827z" class="st0"/><path d="M581.984 130.948h-65.04l-.312 1.585-.282 1.616-.185.777-.156.807-.311 1.617-.747 3.17-.402 1.554-.128.372-.09.401-.187.81-.25.745-.126.375-.09.402-.47 1.554-.496 1.523-.467 1.552-.56 1.494-.28.745-.249.777-.56 1.493-.557 1.52-1.277 2.922-1.307 2.92-.716 1.431-.684 1.46-.745 1.429-.374.716-.342.743-1.588 2.797-1.648 2.796-.871 1.367-.871 1.4-.904 1.367-.87 1.398h84.142z" class="st1"/><path d="m497.841 178.583.871-1.398.904-1.366.87-1.4.872-1.368 1.648-2.796 1.588-2.797.342-.743.374-.716.745-1.428.684-1.46.716-1.432 1.308-2.92 1.276-2.922.558-1.52.559-1.493.249-.777.28-.745.56-1.494.467-1.552.496-1.523.47-1.554.09-.402.126-.375.25-.744.187-.81.09-.402.128-.372.402-1.555.747-3.169.31-1.617.157-.807.185-.777.282-1.616.311-1.585h-215.51 1.089-1.088l-.156.062-.124.123-.25.342-1.306 1.618-.684.808-.374.401-.343.437-1.43 1.616-1.555 1.615-.995.902-.498.435-.25.217-.217.248-1.991 1.742-2.052 1.615-1.059.746-1.026.744-1.089.684-1.057.683-2.178 1.276-2.24 1.15-.59.247-.56.282-1.12.526.622 1.896.684 1.926.715 1.865.778 1.896.778 1.833.84 1.865.84 1.833.933 1.866 1.866 3.604.996 1.771 1.057 1.802 1.058 1.74 1.12 1.77 1.12 1.71 1.213 1.74H497.84z" class="st1"/><path d="M201.767 100.092v-.684l.061-2.766.218-2.64.311-2.643.498-2.546.56-2.55.685-2.454.808-2.425.996-2.328 1.057-2.332 1.182-2.268 1.307-2.238 1.462-2.143 1.555-2.144 1.68-2.053 1.804-2.02 1.929-1.927 1.804-1.769 1.898-1.647 1.897-1.553 1.992-1.398 1.99-1.37 2.053-1.21 2.084-1.12 2.178-.993 2.146-.964 2.24-.808 2.27-.713 2.364-.593 2.333-.527 2.427-.404 2.457-.312 2.52-.155h.84l1.524-.123 1.587-.03h2.084l1.058.06 2.146.218-.342-.248-.373-.187-.467-.186-.467-.187-.56-.281-.466-.184-.466-.158-.405-.06-.436-.217-.31-.094-.219-.094h-.093l-1.617-.527-1.556-.468-1.617-.432-1.586-.345-2.769-.526-2.8-.405-.902-.155-.84-.123h-.56l-1.649-.218-1.648-.094-1.68-.094h-1.649l-.404-.06-.28.06-.81-.06-.808.06-1.929.03-1.897.095-3.764.342-3.732.528-1.836.342-1.804.405-1.867.402-1.803.529-3.578 1.15-1.804.652-1.742.714-3.485 1.584-3.016 1.307-2.893 1.43-2.894 1.554-2.768 1.708-2.769 1.802-2.644 1.99-2.582 2.05-2.52 2.238-2.612 2.328-2.458 2.425-2.301 2.456-2.116 2.579-2.022 2.579-1.836 2.64-1.679 2.704-1.493 2.827-1.057 1.96-.965 2.018-.902 2.02-.778 2.114-.747 2.081-.622 2.177-.56 2.174-.466 2.237-.124.278-.031.406-.56 3.138-.218 1.585-.156 1.648-.218 3.322-.062 3.45v1.555l.062 1.585.187 3.106.342 3.047.218 1.49.28 1.521.062.469.094.434.062.374v.094l.031.06.062.188.063.278.062.248v.093l.03.125.063.187.155.436.031.278.094.374.435 1.863.53 1.928.622 1.864.714 1.926.716 1.865.84 1.863.404.901.467.935.965 1.832.466.871.529.9 1.089 1.772 1.15 1.74 1.213 1.772 1.245 1.677 1.338 1.68 1.4 1.643 1.461 1.679 1.525 1.585 1.586 1.617 1.649 1.553.84.777.902.809 2.582 2.174 2.644 2.113 2.706 1.956 2.83 1.866 2.832 1.739 2.892 1.618 2.955 1.49 3.049 1.398h87.753l-1.213-1.739-1.12-1.71-1.12-1.77-1.058-1.74-1.057-1.802-.996-1.77-1.866-3.605-.933-1.866-.84-1.833-.84-1.865-.778-1.833-.778-1.896-.715-1.865-.684-1.926-.623-1.896-2.55.934-1.307.435-1.275.434-1.337.374-1.307.342-1.369.311-1.338.308-.372.033-.343.061-.684.125-1.37.217-1.43.187-1.368.154-2.863.188-1.462.06-1.43.033h-3.95l-2.52-.25-2.427-.309-2.426-.435-2.334-.5-2.332-.65-2.27-.716-2.24-.837-2.147-.902-2.178-1.058-2.083-1.118-2.085-1.244-1.991-1.335-1.99-1.461-1.93-1.522-1.897-1.648-1.804-1.708-1.026-1.025-.965-.994-1.804-2.05-.902-1.059-.809-1.025-.809-1.086-.746-1.058-.778-1.12-.716-1.084-1.306-2.239-.623-1.15-.56-1.12-.559-1.179-.498-1.15-.528-1.211-.436-1.183-.436-1.243-.373-1.209-.373-1.276-.31-1.242-.312-1.273-.249-1.245-.435-2.609-.187-1.335-.125-1.306-.124-1.367-.063-1.337-.061-1.368v-1.335z" class="st1"/><path d="m230.074 33.252-2.334-.466-2.394-.373-2.426-.374-2.458-.279-3.173-.248-3.11-.156-3.173-.094-3.142-.03-2.147-.062h-1.058l-.995.061-3.452.248-3.392.375-3.36.433-3.296.53-3.298.59-3.204.685-3.173.744-3.111.87v16.096L180.21 50l2.892-1.648 2.955-1.55 3.049-1.4 3.048-1.338 3.142-1.18 3.173-1.087 3.267-.931 3.265-.872 3.36-.714 3.391-.623 3.484-.496 3.515-.404 3.577-.248 3.64-.187h3.701l5.258.093 2.612.094 2.676.217 1.648.124 1.68.218 1.649.248 1.68.341-1.338-.652-1.213-.527-1.152-.468-.56-.215-.497-.157-1.026-.435-1.09-.373-1.212-.434-1.276-.373-.777-.248-.778-.187-.84-.248-.902-.187-.964-.248-.996-.217-1.088-.25-1.089-.186z" class="st1"/><path d="M177.378 51.802V35.707l-2.644.713-2.581.808-2.55.84-2.49.962-2.52.964-2.456 1.055-2.427 1.09-2.364 1.212-2.396 1.212-2.332 1.274-2.302 1.335-2.24 1.43-4.449 2.952-2.177 1.584-2.115 1.648-1.431 1.025-1.369 1.087-2.612 2.207-2.459 2.267-2.301 2.331-1.96 1.99-1.836 2.051-1.773 2.05-1.648 2.114-1.587 2.112-1.462 2.175-1.368 2.177-1.245 2.238-1.212 2.204-1.09 2.268-1.026 2.3-.902 2.363-.84 2.36-.716 2.392-.622 2.426-.497 2.485-.093.278-.032.406-.59 3.698-.219 1.863-.155 1.896-.187 2.423-.062 2.424-.03 2.052.092 2.081.094 2.05.218 2.053.217 1.986.343 2.021.342 1.99.466 1.989.466 1.926.56 1.925.592 1.897.716 1.926.714 1.832.81 1.866.84 1.832.964 1.836.963 1.769 1.028 1.771 1.088 1.743 1.151 1.769 1.213 1.678 1.276 1.711 1.337 1.677 1.4 1.676 1.43 1.618 1.525 1.615 1.587 1.584 1.648 1.618 1.65 1.522 1.773 1.554 1.834 1.523 1.898 1.551 1.4 1.12 1.493 1.117 1.493 1.09 1.586 1.088 1.587 1.025 1.65 1.056 1.647 1.025 1.742 1.025h26.534v-5.032l-2.83-1.896-2.769-1.96-2.737-2.08-2.644-2.173-1.587-1.432-1.524-1.399-1.493-1.428-1.4-1.43-1.4-1.491-1.275-1.46-1.275-1.493-1.182-1.49-1.214-1.555-1.088-1.521-1.09-1.584-.995-1.555-.964-1.618-.902-1.584-.87-1.645-.778-1.618-.779-1.709-.715-1.677-.684-1.71-.592-1.707-.59-1.773-.498-1.74-.467-1.77-.373-1.741-.404-1.834-.28-1.802-.28-1.864-.186-1.833-.187-1.896-.094-1.866-.062-1.925.031-1.896.062-3.17.25-3.075.372-3.078.56-2.98.032-.407.093-.278.59-2.86.748-2.797.87-2.764.996-2.673 1.12-2.703 1.244-2.609 1.369-2.58L151 77.937l1.555-2.518 1.742-2.455 1.866-2.423 1.991-2.331 2.116-2.331 2.24-2.268 2.364-2.238 2.488-2.143 2.396-2.05 2.457-1.927 2.52-1.802 2.643-1.648zM178.872 25.018h-3.142l-3.08.06-6.066.282-3.017.153-2.955.249-2.955.28-2.893.373-2.924.34-2.861.437-5.631.995-2.8.529-2.737.619-2.737.654-2.676.713v15.54l3.39-2.084 1.712-.994 1.773-.932 3.515-1.832 3.64-1.679 3.639-1.618 3.763-1.46 3.765-1.366 3.887-1.212 3.89-1.15 4.012-.995 4.013-.868 4.137-.746 4.137-.684 4.262-.5 4.262-.431 4.386-.251 4.635-.217 4.697-.061.902-.064h1.836l.932.064-3.142-.53-3.172-.402-3.204-.344-3.204-.215-3.982-.311-3.982-.187-2.02-.095-1.993-.03-4.012-.03z" class="st1"/><path d="m123.75 52.207 2.085-1.617 2.146-1.521 2.178-1.46 2.239-1.368V30.702l-4.449 1.183-4.324 1.367-4.26 1.49-4.138 1.617-2.551 1.211-2.488 1.305-2.49 1.306-2.394 1.398-2.395 1.4-2.333 1.491-2.334 1.521-2.27 1.617-1.493.995-1.432 1.056-2.768 2.143-3.266 2.58-3.08 2.673-2.924 2.703-2.706 2.766-2.582 2.764-2.395 2.891-2.24 2.89-2.053 2.982-1.929 2.951-1.742 3.079-1.586 3.075-1.369 3.168-1.275 3.173-1.058 3.262-.902 3.262-.715 3.387-.093.278-.032.406-.56 2.981-.373 3.078-.217 3.075-.063 3.17-.031 1.989.062 2.02.093 1.96.187 1.986.187 1.926.28 1.96.342 1.926.404 1.926.405 1.865.497 1.896.529 1.832.653 1.863.654 1.805.715 1.832.778 1.802.84 1.834.84 1.74.933 1.77.964 1.711 1.089 1.738 1.089 1.68 1.15 1.708 1.214 1.678 1.275 1.677 1.275 1.619 1.4 1.645 1.4 1.584 1.524 1.617 1.525 1.552 1.586 1.588 1.648 1.55 1.712 1.555 2.395 1.99 2.52 2.02 2.612 1.989 2.769 1.987.933.746.965.621h34.124v-.155l-.093-.154-.063-.094-.124-.154-2.24-1.43-2.022-1.367-1.897-1.336-1.68-1.277-2.022-1.615-1.96-1.584-1.897-1.614-1.804-1.617-1.773-1.68-1.65-1.644-1.648-1.712-1.524-1.677-1.524-1.77-1.4-1.742-1.4-1.77-1.275-1.77-1.275-1.835-1.152-1.803-1.089-1.863-1.026-1.835-1.027-1.925-.902-1.897-.84-1.956-.777-1.927-.716-1.99-.653-1.989-.591-2.019-.497-1.987-.467-2.083-.404-2.082-.343-2.113-.155-1.057-.094-1.025-.218-2.144-.093-2.145-.093-2.173.03-2.177.063-3.17.187-3.075.342-3.078.498-2.98.093-.407.063-.278.715-3.387.902-3.295 1.058-3.262 1.275-3.17 1.4-3.138 1.617-3.075 1.742-3.046 1.96-2.954 2.053-2.95 2.271-2.858 2.426-2.827 2.645-2.738 2.768-2.733 2.955-2.642 3.11-2.61 3.33-2.516zM154.889 10.257v8.11l2.861-.341 2.924-.28 5.94-.405 2.988-.155 3.048-.093 3.08-.062h6.688l3.515.095 3.484.122 3.484.219 3.422.217 3.39.31 3.36.342 3.36.435 3.266.436 3.266.529 3.235.558 3.235.654 3.142.65 3.142.746 3.11.777 3.08.901 3.018.872 2.986.962 2.955.994 2.955 1.089 2.893 1.086 2.861 1.181 2.831 1.212 2.83 1.338 2.738 1.303 2.738 1.4 2.707 1.46 2.706 1.521 2.613 1.523 2.613 1.647 2.582 1.648 2.582 1.771h-.125l1.462 1.025 1.524 1.15 1.587 1.212 1.68 1.336 1.68 1.367 1.773 1.49 1.804 1.554 1.897 1.68 4.2 4.069 2.363 2.518 1.152 1.303 1.152 1.37 1.088 1.335 1.088 1.399 2.085 2.89h.155l.155-.033.093-.06.156-.033.031-.155.063-.093.031-.155-.031-.31-.094-.249-1.585-2.331-1.588-2.268-1.71-2.207-.872-1.086-.84-1.025-1.803-2.083-.934-1.025-.902-.965-.964-.994-.934-.932-1.959-1.833-1.898-1.677-1.929-1.648-2.021-1.647-2.053-1.616-2.178-1.615-2.209-1.617-2.302-1.614-2.332-1.555-2.862-1.896-2.893-1.769-2.924-1.742-2.955-1.648-3.018-1.645-3.017-1.524-3.08-1.49-3.079-1.398-3.173-1.4-3.174-1.305-3.234-1.273-3.235-1.15-3.297-1.148-3.329-1.09-3.36-1.024-3.39-.932-3.453-.934-3.484-.839-3.515-.777-3.546-.713-3.61-.715-3.607-.591-3.671-.528-3.67-.465-3.764-.467-3.765-.342-3.794-.342-3.827-.218-3.887-.217-3.92-.124-3.952-.092-3.981.03-2.053-.095-2.022.033-2.053.032-1.99.154z" class="st1"/><path d="M154.889 18.368v-8.111l-3.702.094-3.64.185-3.64.218-3.546.31-3.578.312-3.514.403-3.484.405-3.422.528-3.453.528-3.39.59-3.36.622-3.298.714-3.328.714-3.266.81-3.235.839-3.173.932-3.204.9-3.141 1.027-3.112 1.025-3.048 1.15-3.08 1.148-2.986 1.213-2.986 1.243-2.924 1.337-2.955 1.335-2.894 1.428-2.86 1.46-2.8 1.554-2.8 1.555-2.738 1.648-2.738 1.644-2.675 1.773-3.608 2.36-3.452 2.426-3.298 2.455-3.142 2.547-3.017 2.518-2.862 2.61-2.737 2.64-2.55 2.736-2.645 2.857-2.458 2.954-2.302 2.982-2.115 3.075-1.99 3.048-1.775 3.136-1.616 3.172-1.431 3.262-1.307 3.233-1.12 3.323-.964 3.356-.747 3.45-.653 3.417-.436 3.512-.28 3.542-.093 3.636-.03 2.361.092 2.362.156 2.332.093 1.148.156 1.182.28 2.268.373 2.298.467 2.27.528 2.268.592 2.205.653 2.207.747 2.175.839 2.176.87 2.114.966 2.144 1.026 2.111 1.151 2.113 1.151 2.02 1.244 2.05 1.338 2.02 1.4 2.02 1.461 1.96 1.556 1.989 1.648 1.956 1.712 1.957 1.742 1.866 1.835 1.895 1.897 1.863 2.023 1.865 2.053 1.803 2.146 1.833 2.209 1.802 2.332 1.802h33.845l-.125-.373-.124-.184-1.96-1.43-1.835-1.43-1.835-1.46-1.742-1.432-1.711-1.49-1.648-1.46-3.143-2.982-1.524-1.554-1.462-1.524-1.43-1.554-1.338-1.521-1.337-1.618-1.214-1.551-1.214-1.618-1.12-1.584-.84-1.213-.777-1.18-1.462-2.394-.715-1.243-.654-1.209-1.243-2.425-1.183-2.485-1.058-2.487-.964-2.548-.809-2.55-.777-2.609-.622-2.61-.56-2.671-.405-2.674-.342-2.733-.218-2.704-.093-1.398-.03-1.368-.033-1.398.032-1.367v-1.648l.062-1.584.187-3.138.342-3.075.498-3.015.342-1.99.466-1.956.467-1.96.591-1.926 1.276-3.821 1.524-3.699 1.71-3.698 1.96-3.572 1.027-1.802 1.12-1.741 1.15-1.738 1.276-1.712 2.582-3.447 1.4-1.678 1.462-1.649 1.462-1.678 1.586-1.615 1.587-1.617 1.71-1.583 1.712-1.586 1.773-1.554 3.763-3.075 3.951-3.016 4.2-2.95 1.99-1.4 2.053-1.303 4.138-2.55 4.2-2.422 2.115-1.151 2.177-1.086 2.146-1.12 2.21-1.056 4.447-1.988 4.51-1.866 4.636-1.708 2.302-.84 2.364-.777 4.759-1.46 2.395-.714 2.458-.623 4.946-1.179 2.458-.56 2.519-.496 2.519-.498 2.583-.436 2.55-.435 2.613-.372 5.258-.621z" class="st1"/><path d="M356.306 115.256h-3.546v12.025h3.266v-7.148l4.48 7.148h3.514v-12.025h-3.265v7.178l-4.449-7.178zM326.226 123.77l.155-.623.123-.619.095-.623.032-.56-.032-.683-.095-.623-.123-.62-.155-.528-.25-.62-.278-.53-.344-.529-.342-.466-.467-.402-.465-.342-.529-.344-.56-.279-.342-.154-.312-.094-.683-.156-.746-.092-.78-.032-.808.032-.716.092-.715.156-.591.248-.622.28-.53.343-.497.342-.405.402-.404.466-.31.53-.28.529-.217.62-.218.529-.094.619-.094.623v.683l.094 1.183.094.619.218.623.217.496.28.53.31.495.404.5.405.372.498.371.529.312.622.312.59.154.716.157.716.124.808.09.373-.06.188-.03h.219l.746-.124.683-.157.312-.093.342-.061.56-.312.53-.312.464-.371.467-.372.342-.5.344-.496.123-.28.155-.249.25-.496zm-6.098-5.934.685.06.684.187.28.154.312.25.248.28.249.405.218.402.156.529.093.59.06.652-.06.56-.062.248-.031.124v.157l-.063.094-.031.123-.062.248-.125.218-.093.25-.25.34-.247.311-.311.218h-.095v.03l-.061.064-.125.123-.684.218-.685.185-.685-.185-.652-.218-.342-.217-.312-.218-.31-.31-.28-.342-.218-.467-.093-.465-.093-.53v-1.211l.093-.59.093-.53.218-.401.28-.405.31-.28.312-.25.342-.154.652-.187.685-.06zM423.34 115.256v12.025h3.393v-12.025h-3.392zM390.554 115.256v12.025h7.064v-2.828h-3.671v-9.197h-3.393z" class="st0"/><path d="m288.586 67.338-1.182-1.21-1.12-1.088-1.12-1.089-1.12-.962-2.27-1.835-1.12-.837-1.12-.714-1.151-.716-1.12-.652-1.12-.59-1.12-.466-1.12-.466-1.12-.406-2.208-.59-1.12-.28-1.058-.216-2.021-.404-1.93-.342-.932-.154-.872-.094-1.741-.218-1.587-.124-1.493-.093-1.337.03-2.396.031-2.301.187-2.271.248-2.21.404-2.208.466-2.114.59-2.085.685-2.022.809-2.022.868-1.96.995-1.928 1.088-1.836 1.242-1.866 1.304-1.773 1.43-1.742 1.525-1.649 1.644v.158l-1.68 1.708-1.555 1.771-1.462 1.803-1.306 1.896-1.244 1.863-1.12 1.958-1.027 1.988-.87 2.083-.84 2.05-.686 2.143-.59 2.178-.467 2.237-.404 2.235-.249 2.33-.155 2.332-.032 2.425.032 2.363.155 2.328.093 1.119.156 1.15.404 2.268.466 2.206.591 2.176.685 2.111.84 2.084.404.994.467 1.025 1.027 1.99 1.12 1.926 1.244 1.927 1.306 1.865 1.462 1.832.747.871.808.901 1.68 1.74 1.68 1.647 1.773 1.554 1.804 1.428 1.867 1.336 1.866 1.212 1.96 1.15 1.99 1.026 2.085.933 2.053.777 2.147.713 2.177.59 2.271.5 2.24.371 2.333.28 2.364.186 2.457.093 2.364-.093.56-.06.28-.034h.311l1.182-.093 1.12-.155 1.151-.124 1.12-.188 1.15-.184 1.09-.251 1.12-.248 2.177-.59 2.115-.713 2.115-.777.996-.468.498-.248.248-.124.28-.093.996-.527 1.026-.498.467-.313.498-.277.995-.56 1.929-1.213 1.866-1.336.435-.373.218-.187.25-.154.933-.714.87-.777.436-.405.467-.372.87-.84.903-.808.497-.59.53-.56 1.026-1.117.218-.312.249-.278.497-.56.218-.311.249-.281.497-.56.87-1.21.873-1.181.808-1.214.778-1.179.062-.187.093-.155.187-.31.374-.62.684-1.246.622-1.273.621-1.272.25-.684.124-.341.155-.312.53-1.307.218-.684.249-.652.435-1.337v-.557l-.032-.468-.092-.465-.157-.403-.311-.468-.341-.341-.405-.28-.436-.154-.56-.188h-.497l-.497.095-.468.248-.435.279-.343.374-.278.435-.157.526-.404 1.183-.125.278-.092.312-.187.622-.25.56-.123.278-.094.311-.467 1.18-.56 1.118-.56 1.152-.591 1.119-.622 1.116-.715 1.058-.373.53-.342.558-.747 1.025-.778 1.055-.84.997-.87 1.025-.902.994-.934.995v.123l-1.555 1.461-.81.683-.777.683-1.617 1.275-.436.28-.405.31-.808.622-.87.529-.842.559-1.74.995-.903.435-.87.465-1.806.838-1.866.683-.964.312-.933.311-1.93.527-.994.217-.498.094-.467.124-.528.063-.498.095-.995.154-2.053.247-1.058.065h-.28l-.249.03-.497.063-2.116.06-2.178-.06-2.115-.158-2.083-.247-1.992-.312-2.022-.435-1.929-.527-1.897-.623-1.835-.683-1.835-.838-1.774-.9-1.742-.995-1.68-1.088-1.68-1.212-1.585-1.275-1.556-1.366-1.493-1.461v-.123l-1.493-1.554-.715-.808-.654-.777-1.306-1.618-.622-.837-.56-.808-.592-.871-.529-.838-.995-1.741-.902-1.772-.777-1.802-.747-1.863-.342-.964-.28-.932-.53-1.925-.403-1.928-.343-2.019-.217-2.02-.156-2.083-.03-2.08v-2.178l.124-2.112.186-2.08.342-1.99.405-2.021.528-1.925.592-1.897.746-1.833.778-1.865.902-1.771.964-1.74 1.12-1.678 1.182-1.678 1.306-1.615 1.37-1.584 1.493-1.524h.155l1.462-1.46 1.556-1.367 1.555-1.273 1.648-1.151 1.649-1.086 1.71-.996 1.743-.9 1.804-.778 1.773-.747 1.867-.62 1.866-.529 1.96-.435 1.96-.372 2.022-.248 2.021-.157 2.116-.061h1.244l1.369.092 1.43.156 1.587.218 1.65.218 1.772.341 1.835.403 1.96.468.933.215.996.342 1.928.777 1.929.964.933.53.996.65 1.928 1.336 1.928 1.585 1.93 1.771.964.965.995 1.025 1.307 1.43 1.182 1.52 1.057 1.525.933 1.584.81 1.585.715 1.649.559 1.644.498 1.742.312 1.708.217 1.772.062 1.772v1.863l-.186 1.832-.25 1.928-.372 1.927-.499 1.987-.31.81-.094.185-.062.218-.124.435-.311.777-.312.807-.373.748-.341.743-.125.157-.093.188-.187.372-.373.744-.25.31-.124.159-.093.184-.436.683-.248.312-.125.156-.093.186-.249.31-.124.155-.094.187-.155.125-.124.154-.25.311-.528.622-.56.59-.156.124-.124.154-.25.312-.621.498-.623.528-.653.498-.622.529-.715.433-.685.468-.715.433-.715.435-.778.375-.778.372-.809.342-.808.372-.872.311-.84.311-.87.28-.871.31-1.493.341-1.494.342h-.404l-.466-.093-.343-.124-.28-.218-.218-.217-.217-.309-.093-.342-.063-.405.032-.465.03-.59.125-.654.155-.746.218-.808.248-.931.343-.994.343-1.12.435-1.18 9.207-29.77-20.032-.155h-1.525l-1.4.03-1.337.063-1.275.094-1.214.091-1.15.127-1.09.154-.994.218-.965.187-.902.215-.84.252-.747.308-.715.282-.622.34-.591.373-.467.405-.56.436-.497.496-.902 1.025-.778 1.088-.592 1.212-.497 1.273-.186.652-.125.716-.124.683-.063.746-.031 1.524-.03.433.03.468.094.901.155.838.28.777.124.342.187.371.404.684.467.653.249.28.312.31.59.499.311.217.373.248.778.405.404.185.468.218.901.281.467.123.528.155 1.09.218 1.181.187-1.306.465-1.089.53-.933.56-.747.62-.404.28-.435.372-.498.466-.529.529-.591.59-.623.654-.684.746-.715.838-3.36 4.193-.622.624-.56.652-.56.59-.497.59-.529.529-.466.529-.903.962-.84.807-.715.747-.653.622-.312.25-.248.277-.622.375-.312.153-.279.189-.343.124-.31.155-.654.248-.715.187-.374.063-.186.03-.156.06-.746.095-.747.063-.529 1.769h16.923l14.091-17.868.56-.743.622-.624.28-.309.311-.25.622-.403.56-.374.591-.218.56-.154.623-.03.28.124-1.743 7.054-.342.994-.28.962-.249.901-.155.901-.187.809-.094.777-.062.716v.683l.032.838.03.404.094.436.187.808.124.371.187.407.155.34.218.372.466.683.249.313.311.342.654.652.653.529.342.215.404.25.84.373.436.154.498.188.963.217.499.093.56.125 1.15.093.591.03.654.03 1.057-.03 1.12-.093h.405l1.244-.248 1.276-.248 2.487-.592 1.059-.342 1.057-.341 1.027-.373.497-.187.25-.091.28-.064.964-.434.217-.125.25-.093.497-.184.933-.47.933-.432.87-.53.872-.498.81-.56.186-.154.217-.124.436-.248.777-.622.374-.312.187-.155.217-.123.716-.623.746-.62.311-.372.155-.187.188-.155.684-.686.622-.744.622-.717.56-.807.125-.218.155-.185.311-.374.529-.808.529-.807.093-.248.124-.217.25-.435.466-.871.187-.466.217-.435.436-.901.373-.962.373-.966.311-.994.342-.995.56-2.328.25-1.12.217-1.117.311-2.239.125-1.118.093-1.058v-2.174l-.032-1.056-.06-1.058-.25-2.08-.373-2.02-.56-2.02-.685-1.959-.404-.995-.436-.962-.933-1.865-1.12-1.863-1.244-1.802-.684-.935-.716-.867-1.493-1.712zM259.47 81.293l1.026-.093.965-.033.84-.031h1.431l.56.03.466.034.373.093-5.257 16.095h-1.898l-.901-.03-.84-.064-.778-.123-.684-.125-.685-.187-.59-.217-.529-.248-.467-.28-.467-.343-.342-.371-.31-.403-.218-.435-.218-.5-.094-.526-.093-.56.032-.592V91.33l.124-1.026.186-1.025.311-.964.374-.994.528-.963.591-.934.716-.9.622-.745.685-.622.683-.56.747-.435.716-.372.777-.248.779-.187.839-.061zM430.743 80.577l-.029.529-.094.653-.155.714-.218.84-6.5 20.414-.313.716-.247.65-.25.593-.249.526-.313.435-.247.406-.095.06-.059.094-.128.156-.247.278-.342.188-.374.185-.436.126-.435.155-.496.093h-.156l-.126.03-.247.064H418.52l-.125.03-.62.031-.311.9h29.581l3.576-8.732h-1.025l-.81.81-.402.373-.376.404-.434.343-.406.372-.839.684-.249.123-.124.064-.064.03-.029.06-.436.312-.247.124-.125.064-.062.03-.031.063-.436.31-.933.528-.935.465-.994.375-.498.154-.467.187-.53.125-.497.154-.995.281-1.058.155-.529.062-.496.092-.56.032-.529.062-1.058.032-.558-.032h-.5l-.465-.062-.376-.032-.372-.092-.31-.062-.28-.125-.188-.093-.28-.188-.187-.184-.093-.248-.03-.218v-.405l.094-.466.154-.59.216-.622 3.3-10.626H438.305l.496.03h.405l.375.061.309.032.28.061.592.218.591.282.53.308.464.406.345.404.122.218.127.278.06.248.094.312.061.652-.028.373-.033.465-.095.529-.09.59h.9l3.887-12.337h-.963l-.218.311-.187.343-.219.31-.185.343-.434.589-.218.25-.188.279-.247.218-.22.248-.25.188-.122.093-.095.124-.496.372-.499.342-.31.094-.312.123-.187.03-.154.064-.31.124-.748.188-.778.184h-.435l-.032.033-.437.061-.496.03-.468.063-1.056.064H436.594l-.25.03h-1.15l3.825-12.273h4.2l.903.03.807.03.78.095.652.093.653.124.53.124.529.188.372.154.406.217.37.218.375.278.654.593.622.713.123.218.155.311.125.342.126.402.061.405.062.496.031.53.064.59h.963l2.24-7.924H427.26l-.342.871h.591l.53.061.465.064.438.09.342.065.31.092.25.124.216.154.282.219.218.31.124.343.059.466zM419.609 79.552l.313-.249.37-.187.406-.186.496-.126.47-.124.557-.06 1.213-.03.25-.872h-17.17l-.282.871h.593l.59.061.467.064.467.09.372.065.342.092.28.124.218.154.28.252.218.342.124.402.061.466-.03.218-.031.28-.093.653-.187.714-.124.405-.094.465-2.8 8.888h-12.66l2.923-8.888.22-.715.25-.651.247-.592.282-.526.247-.47.31-.371.282-.343.309-.216.28-.249.375-.187.372-.186.465-.126.437-.124.53-.06 1.119-.03.373-.872h-16.922l-.249.871h.59l.56.061.466.064.47.09.34.065.343.092.247.124.218.154.251.252.218.342.124.402.064.466-.064.529-.095.653-.216.713-.218.84-6.408 20.354-.062.06-.031.034v.06l-.061.188-.126.372-.25.653-.249.59-.246.529-.314.435-.247.402-.095.063-.06.094-.127.185-.247.28-.187.062h-.093v.032l-.062.06-.343.188-.404.124-.405.124-.467.063-.496.094-.56.03-.56.031-.25.9h16.61l.25-.9-.59-.03h-.498l-.466-.064-.375-.03-.373-.094-.28-.06-.28-.125-.185-.093-.218-.187-.156-.155-.249-.312-.157-.37-.031-.376.031-.56.033-.34.093-.312.062-.403.123-.371.282-.871 2.985-9.48h12.598l-2.986 9.48-.247.714-.25.653-.25.59-.248.529-.31.435-.25.402-.093.063-.064.094-.123.185-.249.28-.187.062h-.093v.032l-.062.06-.374.188-.404.124-.403.124-.498.063-.498.094-.56.03-.56.031-.375.9h16.86l.25-.9-.592-.03-.496-.03-.499-.065-.405-.03-.404-.124-.309-.094-.312-.123-.217-.125-.345-.28-.216-.31-.093-.186-.033-.157-.029-.403v-.248l.029-.28.033-.311.093-.312.061-.372.126-.402.123-.435.188-.436 6.438-20.354.438-1.336.529-1.088.28-.466.31-.404.653-.59zM466.021 80.577l-.033.28-.031.343-.093.402-.094.468-.155.526-.154.59-.216.653-.188.747-6.097 19.452-.218.529-.187.526-.185.468-.158.434-.187.343-.124.309-.154.281-.126.218-.31.31-.31.31-.376.248-.123.033-.095.061-.185.123-.28.064-.311.061H455.349l-.059.032-.342.061h-.406l-.436.063h-.467l-.496.031-.312.9h14.402l.095-.029h1.834l.902-.064h.872l.807-.06.811-.034.745-.06.748-.03 1.307-.188.589-.124.56-.063.498-.125.498-.093.437-.124.433-.093.716-.309.343-.187.373-.155.652-.374.624-.403.558-.465.56-.468.498-.527.5-.56.401-.622.406-.56.31-.62.283-.56.184-.622.063-.31v-.093l.03-.063.065-.124.092-.623.03-.559-.03-.65-.092-.623-.158-.589-.184-.56-.282-.56-.311-.528-.406-.527-.4-.467-.53-.496-.593-.466-.714-.437-.78-.404-.9-.403-.966-.374-1.058-.342-1.15-.279 1.09-.248 1.054-.25.967-.248.934-.248.776-.312.78-.248.31-.154.342-.124.62-.251.252-.184.123-.094.155-.063.5-.31.216-.187.249-.156.467-.31.373-.404.374-.372.062-.124.029-.063.064-.031.187-.187.342-.372.434-.902.374-.87.186-.87.064-.434.03-.374-.03-.527-.064-.498-.124-.496-.154-.466-.436-.903-.28-.403-.31-.372-.406-.435-.402-.342-.438-.342-.465-.282-.53-.277-.56-.219-.59-.217-.622-.125-.56-.123-.622-.094-.716-.063-.747-.06-.871-.064-.902-.03h-15.771l-.25.87h.592l.558.031.467.06.468.094.373.063.34.124.28.124.22.154.281.252.247.309.124.342.064.435zm12.786 6.99-.376.499-.34.496-.374.436-.374.435-.435.372-.436.342-.465.31-.437.282-.53.185-.556.217-.624.158-.342.06-.31.094-.376.03-.342.064-.747.093-.807.061-.84.063 3.888-12.336 1.399-.064h.467l.498.064.435.063.467.155.372.122.406.219.341.218.374.31.498.59.218.312.187.372.124.372.095.405.059.405.033.465-.033.466-.059.496-.095.498-.124.527-.374 1.058-.218.526-.247.56zm-4.76 6.434.62.248.282.155.31.218.53.465.218.282.247.342.341.589.282.684.155.716.063.807-.063.808-.095.807-.09.374-.064.185-.029.03v.187l-.218.808-.344.746-.185.374-.188.404-.465.745-.5.747-.311.31-.31.342-.373.279-.342.31-.435.249-.405.251-.25.09-.219.127-.435.215-.278.064-.25.094-.279.06-.249.094-.592.124-.558.124-.624.063-.622.063-.684.03h-.34l-.312.03-.126-.03h-.716l-.062-.03h-1.025l4.385-14.109h.778l.716.031.653.033.62.061.53.062.499.092.404.094.405.156zM514.642 76.941l-1.37.031-1.34.156-1.364.216-1.31.374-1.367.435-1.368.56-1.371.62-1.337.778-.716.372-.653.436-1.276.9-1.212.965-1.087 1.025-1.089 1.087-.966 1.15-.903 1.213-.807 1.336-.778 1.304-.655 1.306-.558 1.303-.436 1.306-.373 1.307-.249 1.303-.154 1.306-.033 1.337.062 1.273.25 1.306.373 1.336.59 1.367.312.62.375.623.402.59.498.559.465.498.562.496.59.435.653.436.652.341.716.31.747.28.84.248.843.157.93.124.965.095 1.056.03.314-.03H505.092l.653-.064.683-.03.623-.095.653-.062.59-.125.623-.094.56-.154.59-.123.53-.188.559-.154 1.058-.406 1.025-.435 1.246-.744 1.246-.807 1.181-.933 1.181-1.025 1.12-1.15 1.12-1.213 1.057-1.336.25-.373.124-.187.062-.093.092-.06.56-.717.935-1.522.809-1.49.684-1.494.623-1.49.435-1.492.31-1.49.188-1.493.06-.744.032-.683-.031-.688-.094-.619-.124-.684-.154-.622-.218-.684-.25-.62-.312-.684-.342-.621-.434-.654-.465-.59-.5-.59-.53-.497-.589-.527-.593-.436-.652-.436-.652-.34-1.431-.654-.748-.279-.716-.187-.776-.187-.747-.094-1.554-.06zm-4.262 2.61.713-.278.839-.188.904-.124.997-.03h.434l.466.06.405.094.436.188.375.155.4.248.345.28.372.373.282.342.278.465.218.466.217.592.127.59.123.683.062.713.033.777-.064 1.276-.094 1.368-.216 1.397-.249 1.46-.375 1.46-.4 1.524-.53 1.555-.562 1.645-.185.374-.095.185-.062.218-.313.777-.683 1.49-.745 1.4-.218.311-.188.342-.373.651-.434.592-.126.125-.062.06-.03.093-.188.312-.436.529-.403.56-.466.496-.436.496-.934.933-.53.373-.155.063-.125.091-.249.188-.558.28-.56.28-.623.153-.622.156-.683.094h-.342l-.311.031-.53-.03-.5-.064-.465-.124-.434-.155-.84-.435-.374-.28-.309-.312-.375-.432-.282-.435-.247-.5-.154-.496-.187-.59-.095-.591-.06-.65v-1.588l.09-.902.094-.96.187-.996.187-1.088.28-1.12.28-1.147.373-1.214.31-1.243.342-1.148.344-1.09.372-1.024.375-.961.373-.871.375-.842.434-.713.747-1.398.807-1.212.747-1.057.81-.838.341-.405.372-.342.748-.59.716-.529.747-.371zM340.814 77.843l-1.554-.406-.717-.154-.652-.094-1.243-.154-1.12-.033-1.433.033-1.43.124-1.432.217-1.368.342-1.431.403-1.431.5-1.43.588-1.369.714-1.4.717-1.307.838-1.244.87-1.12.965-1.09.961-.964 1.058-.9 1.086-.779 1.212-.715 1.183-.591 1.21-.529 1.212-.403 1.243-.344 1.242-.217 1.277-.155 1.303-.031 1.306.03 1.336.062.651.126.653.278 1.212.187.59.249.624.218.529.28.558.311.496.374.529.778.963.435.465.496.5.965.775.498.342.56.341.529.28.59.31.592.248.653.248 1.276.375.654.124.715.155 1.461.156.748.031.809.03 1.12-.03.527-.064.559-.03 1.058-.153.498-.095.53-.064.094-.06.124-.03.246-.064.5-.123.934-.28.87-.343.841-.373.746-.529.807-.558.81-.65.809-.686.778-.838.809-.871.81-.962.807-.994h-1.214l-.683.652-.622.59-.623.56-.622.529-.684.465-.624.403-.622.374-.621.342-.653.248-.623.248-.683.218-.655.187-.715.124-.685.093-.746.061H328.837l-.062.031-.962-.062-.84-.092-.84-.155-.748-.218-.715-.342-.652-.341-.624-.405-.528-.466-.53-.59-.247-.31-.187-.281-.405-.715-.28-.713-.156-.435-.092-.406-.156-.838-.094-.934-.03-.962.03-1.15.094-1.117.156-1.12.216-1.117.28-1.183.342-1.119.407-1.149.465-1.12.592-1.395.653-1.276.685-1.18.745-1.089.747-1.025.81-.93.806-.841.873-.714.871-.653.87-.56.871-.465.872-.372.87-.312.87-.218.872-.124.903-.03.779.03.745.095.716.153.683.219.622.279.624.343.56.403.56.499.464.526.407.592.342.65.156.343.185.404.218.777.093.402.125.47.155.9.094 1.025h.933l2.55-10.039h-.902l-.374.281-.309.248-.313.218-.31.187-.653.248-.311.061-.311.033-.125-.033h-.311l-.25-.06-.248-.032-.312-.093-.31-.063-.373-.094-.374-.06zM351.826 77.718l-.31.871h.56l.529.061.466.064.436.09.342.065.31.092.249.124.22.154.278.219.22.31.122.343.062.466-.03.529-.094.653-.156.714-.218.84-6.501 20.414-.062.063-.03.03v.064l-.062.184-.126.375-.25.65-.091.127-.062.154-.127.312-.249.526-.31.435-.246.406-.096.06-.062.094-.122.156-.25.278-.342.188-.375.185-.434.126-.436.155-.498.093h-.157l-.123.03-.25.064H343.088l-.126.03-.621.031-.311.9h29.582l3.576-8.732h-1.027l-.807.81-.405.373-.373.404-.434.343-.406.372-.84.684-.249.123-.124.064-.063.03-.03.06-.435.312-.249.124-.124.064-.064.03-.031.063-.434.31-.934.528-.933.465-.997.375-.498.154-.465.187-.529.125-.498.154-.994.281-1.058.155-.53.062-.498.092-.56.032-.529.062-1.057.032-.558-.032h-.498l-.468-.062-.372-.032-.376-.092-.31-.062-.28-.125-.188-.093-.279-.188-.155-.184-.093-.248-.03-.218v-.405l.092-.466.124-.59.218-.622 3.298-10.626H362.902l.496.03h.404l.374.061.28.032.28.061.591.218.59.282.53.308.465.406.343.404.125.218.125.278.062.248.093.312.062.652-.03.373-.032.465-.093.529-.093.59h.902l3.889-12.337h-.967l-.216.311-.187.343-.218.31-.187.343-.435.589-.218.25-.187.279-.247.218-.218.248-.25.188-.123.093-.094.124-.497.372-.5.342-.308.094-.314.123-.187.03-.155.064-.31.124-.748.188-.778.184h-.434l-.031.033-.436.061h-.434l-.031.03-.467.063-1.059.064H361.19l-.249.03h-1.151l3.797-12.273h4.199l.902.03.809.03.777.095.653.093.652.124.53.124.529.188.375.154.403.217.373.218.372.278.655.593.621.713.124.218.156.311.126.342.123.402.062.405.095.496.03.53.062.59h.933l2.24-7.924h-27.56z" class="st2"/></svg>