<svg width="28" height="28" viewBox="0 0 28 28" fill="none" xmlns="http://www.w3.org/2000/svg">
<path d="M14.0108 5.06689e-06C6.27835 -0.00650274 0.00651288 6.25669 5.06689e-06 13.9892C-0.00650274 21.7217 6.25669 27.9935 13.9892 28C21.7206 27.9935 27.9881 21.7314 28 14C28 6.27184 21.739 0.00651288 14.0108 5.06689e-06ZM13.9892 25.6703C7.54398 25.6703 2.31892 20.4452 2.31892 14C2.31892 7.55481 7.54398 2.32975 13.9892 2.32975C20.4322 2.33625 25.6529 7.557 25.6594 14C25.6594 20.4452 20.4344 25.6703 13.9892 25.6703Z" fill="#666666"/>
<path d="M17.7691 13.3177C18.7054 12.7899 19.2114 11.7335 19.0369 10.6737C18.8202 9.0375 16.8698 8.4198 15.331 8.28981V5.83008H13.814V8.26816H12.7955V5.83008H11.2784V8.26816H8.22266V9.83938H9.36043C9.86973 9.83938 10.1189 9.99108 10.1189 10.4028V17.1536C10.1189 17.7171 9.8372 17.8905 9.53379 17.8905H8.37436V19.4942H11.3217V21.9865H12.8496V19.4942H13.8682V21.9865H15.3527V19.4942H15.6778C18.7985 19.4942 19.8388 17.9663 19.8388 15.8858C19.8138 14.6592 18.9632 13.6037 17.7691 13.3177ZM12.7954 9.93689H13.879C14.6375 9.93689 16.1329 10.0669 16.1329 11.3022C16.1849 12.1084 15.6008 12.8149 14.8 12.9168H12.7954C12.7954 12.9168 12.7954 9.93689 12.7954 9.93689ZM14.475 17.7387V17.7279H12.7954V14.4771H14.7459C15.201 14.4771 16.913 14.6288 16.913 15.8424C16.913 17.0561 16.1004 17.7387 14.475 17.7387Z" fill="#666666"/>
</svg>
