<svg width="36" height="22" viewBox="0 0 36 22" fill="none" xmlns="http://www.w3.org/2000/svg">
<g clip-path="url(#clip0_931_229)">
<path d="M22.8673 2.35254H13.1328V19.65H22.8673V2.35254Z" fill="#666666"/>
<path d="M13.7502 10.9997C13.7486 9.33417 14.1302 7.6901 14.8662 6.19193C15.6022 4.69377 16.6733 3.38077 17.9984 2.35234C16.3571 1.07734 14.3861 0.284564 12.3107 0.064612C10.2353 -0.15534 8.1392 0.206403 6.2619 1.1085C4.38459 2.0106 2.80184 3.41666 1.69453 5.166C0.587211 6.91534 0 8.93739 0 11.0011C0 13.0647 0.587211 15.0868 1.69453 16.8361C2.80184 18.5855 4.38459 19.9915 6.2619 20.8936C8.1392 21.7957 10.2353 22.1575 12.3107 21.9375C14.3861 21.7175 16.3571 20.9248 17.9984 19.6498C16.6733 18.6207 15.6022 17.3072 14.8662 15.8087C14.1303 14.3101 13.7486 12.6656 13.7502 10.9997" fill="#272727"/>
<path d="M35.999 10.9997C35.9971 13.0629 35.4087 15.0841 34.3009 16.8326C33.1931 18.581 31.6104 19.9864 29.7335 20.8883C27.8567 21.7902 25.7611 22.1523 23.6861 21.9333C21.6111 21.7144 19.6401 20.9231 17.998 19.6498C19.3218 18.6199 20.3919 17.3064 21.1277 15.8083C21.8635 14.3102 22.2457 12.6665 22.2457 11.0011C22.2457 9.33569 21.8635 7.692 21.1277 6.19388C20.3919 4.69575 19.3218 3.38226 17.998 2.35237C19.6392 1.0767 21.6103 0.283306 23.686 0.0628991C25.7616 -0.157508 27.8582 0.203961 29.7359 1.10598C31.6136 2.00801 33.1967 3.41419 34.3043 5.16377C35.4118 6.91335 35.9991 8.93574 35.999 10.9997" fill="#484848"/>
</g>
<defs>
<clipPath id="clip0_931_229">
<rect width="36" height="22" fill="white"/>
</clipPath>
</defs>
</svg>
