<svg width="39" height="12" viewBox="0 0 39 12" fill="none" xmlns="http://www.w3.org/2000/svg">
<g clip-path="url(#clip0_931_225)">
<path d="M20.1703 3.83646C20.1475 5.5072 21.7334 6.44055 22.9277 6.99504C24.1556 7.56405 24.567 7.92984 24.5624 8.43789C24.5532 9.21737 23.5843 9.55994 22.6764 9.57445C21.092 9.59768 20.1718 9.16657 19.4406 8.84868L18.8693 11.3918C19.6036 11.714 20.964 11.9942 22.3732 12.0073C25.6836 12.0073 27.8484 10.4497 27.8576 8.03726C27.8698 4.97448 23.4107 4.80465 23.4396 3.43583C23.4503 3.02068 23.8662 2.57651 24.7772 2.46474C25.8427 2.36772 26.9159 2.54676 27.8835 2.98294L28.4426 0.515302C27.4995 0.177656 26.5007 0.0031511 25.4932 0C22.3793 0 20.1871 1.57784 20.1703 3.83646ZM33.7655 0.207572C33.4781 0.205212 33.1967 0.285189 32.9576 0.437125C32.7185 0.589061 32.5329 0.805944 32.4248 1.05963L27.7022 11.8142H31.0096L31.6677 10.081H35.7094L36.0918 11.8142H39L36.4559 0.201766H33.7655M34.2225 3.33712L35.1777 7.69179H32.568L34.2271 3.33712M16.1606 0.211927L13.5586 11.8186H16.7106L19.3157 0.206121H16.1606M11.4974 0.206121L8.21742 8.11274L6.89051 1.39494C6.83632 1.06493 6.66002 0.764269 6.39348 0.547303C6.12693 0.330336 5.78772 0.211378 5.43715 0.211927H0.0746484L0 0.548688C1.10145 0.776582 2.35219 1.14382 3.10934 1.5372C3.56637 1.7767 3.705 1.98573 3.85734 2.55328L6.37102 11.8157H9.70125L14.8078 0.203218H11.4974" fill="#666666"/>
</g>
<defs>
<clipPath id="clip0_931_225">
<rect width="39" height="12" fill="white"/>
</clipPath>
</defs>
</svg>
