<?xml version="1.0" encoding="utf-8"?>
<!-- Generator: Adobe Illustrator 22.1.0, SVG Export Plug-In . SVG Version: 6.00 Build 0)  -->
<svg version="1.1" id="Слой_1" xmlns="http://www.w3.org/2000/svg" xmlns:xlink="http://www.w3.org/1999/xlink" x="0px" y="0px"
	 viewBox="0 0 1036 174.5" style="enable-background:new 0 0 1036 174.5;" xml:space="preserve">
<style type="text/css">
	.st0{fill:#FFFFFF;}
</style>
<g>
	<path class="st0" d="M923,103.6V67.2H1034c0,0,2.3,27-28.4,36.4H923z"/>
	<g>
		<path class="st0" d="M220.1,156.1h-48.5V61.9c0-9.3,3.7-18.3,10.3-24.9l8.3-8.3c6.6-6.6,15.6-10.3,24.9-10.3h124.3v137.6h-49.1
			v-51h-59.7V70.3h59.7V52.9h-69.6L220.1,156.1z"/>
		<rect x="362.4" y="18.4" class="st0" width="52.2" height="137.6"/>
		<polygon class="st0" points="519,156.1 519,18.4 475.2,18.4 475.2,59.8 422.5,59.8 422.5,103.6 475.2,103.6 475.2,156.1 		"/>
		<polygon class="st0" points="541.8,156.1 541.8,18.4 675.6,18.4 675.6,59.8 593.1,59.8 593.1,156.1 		"/>
		<polygon class="st0" points="690.5,156.1 690.5,67.2 810.3,67.2 810.3,103.6 735.2,103.6 735.2,112.9 840.1,112.9 840.1,156.1 		
			"/>
		<rect x="690.5" y="18.4" class="st0" width="149.6" height="41.3"/>
		<path class="st0" d="M862.4,156.1V18.4h139.4c0,0,29.4,6.8,32.2,41.3H913.2v96.3H862.4z"/>
		<path class="st0" d="M4,59.8V18.4H116c4.5,0,8.9,1,12.8,3.1c8.7,4.6,22.1,15.2,25.6,38.3H4z"/>
		<path class="st0" d="M4,156.1v-43.2h97.9v-9.3H42.2V67.2h112.3c0,0,2.8,19.6-15.8,23.8v4.2c0,0,15.8,8.9,15.8,19.9v8.8
			c0,11.4-5.6,22.3-15.5,27.9c-3.7,2.1-8.1,3.7-13.4,4.3H4z"/>
	</g>
</g>
</svg>
