<?xml version="1.0" encoding="utf-8"?>
<!-- Generator: Adobe Illustrator 22.1.0, SVG Export Plug-In . SVG Version: 6.00 Build 0)  -->
<svg version="1.1" id="Слой_1" xmlns="http://www.w3.org/2000/svg" xmlns:xlink="http://www.w3.org/1999/xlink" x="0px" y="0px"
	 viewBox="0 0 1144.5 424.8999939" style="enable-background:new 0 0 1144.5 424.8999939;" xml:space="preserve">
<style type="text/css">
	.st0{fill:#FFFFFF;}
	.st1{fill:#F26522;}
</style>
<g>
	<g>
		<path class="st0" d="M335.9496765,233.4969635c0,0.635025-0.0231628,1.3034515,0.0039978,1.9698181
			c0.1169434,2.8674622,1.410553,4.4568481,4.2740173,4.7241364c2.28479,0.2132874,4.6209412,0.1986847,6.9071045-0.0110321
			c2.5288086-0.2318726,3.974884-1.8014984,4.1118164-4.3045044c0.1323547-2.4197235,0.0286865-4.8523102,0.0286865-7.4925232
			c-4.2575684,0-8.4080505,0-12.6937256,0c0-1.66539,0-3.117569,0-4.7907867c4.2084961,0,8.3565369,0,12.5860291,0
			c0-2.8777924,0.1681519-5.5525818-0.0552673-8.1942139c-0.1669006-1.9734344-1.5213623-3.3724976-3.5469666-3.5428772
			c-2.4726257-0.2080231-4.9875488-0.2822876-7.4556885-0.0750275c-2.6769409,0.2247772-3.883667,1.8287659-3.913208,4.5513611
			c-0.0093079,0.8562317-0.0014648,1.712616-0.0014648,2.5347137c-4.0446472,0.6132507-5.2183533-0.4101105-4.9838867-4.1369171
			c0.2304993-3.6634674,2.7098999-6.7039185,6.6947937-7.2005005c3.5497131-0.442276,7.2440491-0.5201416,10.7833557-0.0588684
			c5.0422363,0.657074,7.6349792,3.9313812,7.7122498,9.0058289c0.0921631,6.0543823,0.0375977,12.1111145,0.029541,18.1668243
			c-0.0082092,6.1525726-2.5934448,9.3831024-8.7043152,10.0389862c-3.3712769,0.3618469-6.8695068,0.1698303-10.2416687-0.2840576
			c-3.3001709-0.4441986-5.7348938-2.4074707-6.4830933-5.8978271
			C330.1554871,234.5506592,331.6394958,232.9815369,335.9496765,233.4969635z"/>
		<g>
			<path class="st1" d="M380.5193176,166.4272003c-9.8053894,0.0000458-19.6111145,0.052063-29.4160767-0.0140381
				c-10.5869141-0.0713806-18.8950195-8.3448334-18.9502869-18.9309692
				c-0.0730591-13.9896698-0.0748596-27.9803467,0.0016174-41.9699707
				c0.0523987-9.5879288,8.6819153-18.6811523,18.2287598-19.0389023c7.2348328-0.2711487,14.4861145-0.1324768,21.730072-0.1263657
				c13.0522156,0.0110016,26.1071167-0.0893097,39.1557007,0.1456451
				c8.367218,0.1506577,15.9738159,7.2527924,16.8695068,15.5814972c0.4025879,3.743721,0.5003967,7.6250687-0.0230103,11.3368759
				c-0.6507568,4.6147385-4.9604797,7.3148575-9.859314,6.9130707c-4.1908264-0.3437271-7.5799255-3.9384155-7.8483887-8.410202
				c-0.1083984-1.8055725-0.0391235-3.6211395-0.1070862-5.4300461c-0.057373-1.5267639-0.6883545-2.3249588-2.4376526-2.3201981
				c-18.236908,0.0497284-36.473999,0.0446701-54.710968,0.0083466c-1.7680359-0.0035248-2.5267639,0.7219086-2.5261536,2.4274673
				c0.0047302,13.1781387,0.0085449,26.3562775-0.0054321,39.5344086c-0.0018311,1.7212524,0.7971497,2.5143433,2.5042114,2.5137482
				c18.23703-0.0068054,36.4740601-0.0141296,54.7110596,0.0141449c1.6842041,0.0026093,2.4174194-0.7972107,2.4696655-2.3512878
				c0.0566406-1.6846466-0.0121155-3.3740845,0.0623169-5.0574951c0.2182617-4.9364319,4.0258179-8.8418427,8.7633667-9.0414581
				c4.6720276-0.1968384,9.0778503,3.6546478,9.3634644,8.636795c0.2414551,4.2111816,0.3929138,8.4722595-0.9502563,12.6106873
				c-2.4819031,7.6469269-9.40625,12.899353-17.4216919,12.9525146
				C400.2553406,166.4768829,390.3871765,166.4271088,380.5193176,166.4272003z"/>
			<path class="st1" d="M859.5787354,138.1507111c2.531189-2.1171112,4.6246948-3.8461761,6.6947021-5.6028595
				c16.8036499-14.2605591,33.6172485-28.5094986,50.3885498-42.8080597
				c2.5722046-2.1930618,5.2559814-3.7031021,8.7880249-3.3574753c4.4373779,0.4343185,8.3366699,4.4225159,8.3421631,8.8695221
				c0.0256348,20.7963257,0.02771,41.5927353-0.0007935,62.3890915c-0.0065308,4.7754974-4.3774414,8.8101044-9.3654175,8.7989044
				c-5.1154175-0.0114899-9.1367188-3.887619-9.1434937-8.8889465c-0.0181274-13.3646393-0.0066528-26.7292633-0.006958-40.0939102
				c-0.000061-0.8043747,0-1.6087265,0-2.8892059c-0.8034058,0.5188141-1.3143921,0.7737198-1.7371216,1.1326599
				c-18.2265625,15.4788742-36.4486084,30.9630966-54.6611938,46.4583664
				c-2.5817871,2.1965637-5.0928955,4.4000244-8.8334351,4.3030396c-4.9024048-0.1270599-8.9399414-4.0145264-8.9614868-8.9483337
				c-0.0427856-9.8047028-0.0158691-19.609726-0.0155029-29.4145966c0.0004272-10.9290161-0.0203857-21.8581161,0.017395-32.7869949
				c0.013855-4.0126724,2.697998-7.4725342,6.5341187-8.6465302c3.7642212-1.1519928,8.2109985,0.2066803,10.1710815,3.6459045
				c1.0576782,1.8557358,1.687439,4.2151489,1.7128906,6.3568039c0.1535034,12.9256363,0.076416,25.8540192,0.0764771,38.7814941
				C859.5787354,136.1620331,859.5787354,136.8744965,859.5787354,138.1507111z"/>
			<path class="st1" d="M714.0725098,114.4457321c-2.8207397,2.3719177-5.2999878,4.4398499-7.7611694,6.5289612
				c-16.7097168,14.1836319-33.4634399,28.3160019-50.097168,42.5882187
				c-5.9349976,5.0924225-13.0898438,2.8562317-15.385376-2.5093689c-0.5957031-1.3926086-0.9292603-3.0102844-0.9338379-4.5258789
				c-0.0602417-20.0505524-0.0482788-40.1013641-0.0341187-60.1521301c0.0032959-4.7432022,2.654541-8.5237122,6.7398071-9.745842
				c3.7459106-1.1206055,8.0734253,0.2989426,10.1549683,3.7652969c0.9411621,1.5673447,1.5244751,3.6015091,1.5422974,5.4309845
				c0.1279907,13.1160736,0.0687256,26.233963,0.0689087,39.3512726c0,0.7893372,0,1.5786896,0,2.8979187
				c0.9295654-0.6691742,1.4714355-1.0056,1.9527588-1.4134979c14.6726685-12.4345703,29.3394775-24.8761597,44.0070801-37.3167648
				c4.0952148-3.4734268,8.197937-6.9381409,12.2826538-10.4239197c3.1938477-2.7255325,6.7858276-3.433075,10.6181641-1.7617874
				c3.847168,1.6778107,5.4526367,4.8680573,5.4474487,9.0144653c-0.0239258,18.8639069-0.0082397,37.72789-0.0105591,56.5918427
				c-0.0001831,1.6860657,0.0411987,3.3760223-0.0548706,5.0574188c-0.2991333,5.2323303-4.3320923,8.7435913-9.812561,8.6051941
				c-4.7042236-0.1188202-8.4658813-3.9944916-8.4824219-8.9390869c-0.0446777-13.3670197-0.013855-26.7342682-0.0267334-40.1014328
				C714.2870483,116.5524139,714.1690674,115.7173157,714.0725098,114.4457321z"/>
			<path class="st1" d="M459.268158,138.1632233c4.4359741-3.7529449,8.4324951-7.1259003,12.420166-10.5092545
				c15.1846619-12.8836823,30.3607788-25.7774506,45.5525208-38.6526947
				c5.3482056-4.5327301,12.7559814-3.1595764,15.3286133,2.9146423c0.6132202,1.4478912,0.8954468,3.1428299,0.9000854,4.7254105
				c0.0588379,19.8573227,0.0528564,39.7149048,0.0311279,59.5723877
				c-0.0078125,7.1675568-5.9226074,11.8547211-12.2798462,9.8022766c-3.6714478-1.1852722-6.2107544-4.5821686-6.2160645-8.4498749
				c-0.0183105-13.3632202-0.0080566-26.7264404-0.008606-40.0896683c-0.000061-0.8045578,0-1.6091156,0-2.8949051
				c-0.894043,0.6067047-1.4981689,0.9405289-2.0144043,1.3780441
				c-18.8117065,15.9419632-37.6430664,31.8609848-56.4039612,47.8626785
				c-6.1026001,5.2050629-13.6388855,1.9491425-15.4239502-3.712616c-0.3302307-1.0473785-0.4352112-2.204422-0.4365845-3.3110962
				c-0.0249939-20.2321472-0.0044556-40.4643326-0.0300293-60.6964264c-0.0050354-4.010498,1.6360779-7.0397263,5.2112732-8.8072586
				c3.1955261-1.5798798,6.4386597-1.3951111,9.3870239,0.7138596c2.6812439,1.9178848,3.8183899,4.6167908,3.79776,7.9189529
				c-0.0518799,8.3048401-0.01651,16.6102524-0.0162048,24.9154358c0.0001526,4.8707123-0.0063782,9.7414474,0.0074158,14.612114
				C459.0765076,136.176651,459.1743164,136.8978271,459.268158,138.1632233z"/>
			<path class="st1" d="M966.7695923,135.6513824c0,3.2062073,0.0001221,6.2578278-0.0001221,9.3094788
				c-0.0003052,4.1223145,0.0563965,8.2455902-0.0167847,12.3666229c-0.0795288,4.4811401-3.6627197,8.4721985-8.0067749,9.0711212
				c-4.4418335,0.6122894-8.7213745-1.9723816-10.1384277-6.2326813c-0.3261719-0.9805756-0.4204712-2.0775146-0.4216919-3.1210938
				c-0.0234985-20.4240875-0.0316162-40.8482056-0.0076294-61.2722702c0.0064087-5.4773712,3.9398193-9.4301605,9.2377319-9.4210129
				c5.1328125,0.0089035,9.3094482,4.1993866,9.3430786,9.4757767c0.0422974,6.6203766,0.0588989,13.2418213-0.0233154,19.8614655
				c-0.0205078,1.654335,0.3612061,2.2698059,2.1540527,2.2628479c16.8012085-0.065033,33.6028442-0.0590134,50.4041748-0.0067673
				c1.6539307,0.0051498,2.1378784-0.5037231,2.1171875-2.1415405c-0.0824585-6.5571518-0.0415649-13.1159897-0.0310669-19.6741638
				c0.0090332-5.6453247,3.9914551-9.7929611,9.3648682-9.7783966c5.2817383,0.0143204,9.1240234,4.1184311,9.1248779,9.7670059
				c0.003418,20.2367172,0.00354,40.4734268-0.0002441,60.7101517c-0.0009766,5.4798431-3.9000244,9.600647-9.0761719,9.6150665
				c-5.4061279,0.0149994-9.4050903-4.1030121-9.4135742-9.7163544c-0.0096436-6.3708038-0.0510864-12.7422791,0.0315552-19.11203
				c0.020813-1.6020203-0.4052124-2.2005157-2.0776978-2.1959991c-16.8638306,0.045517-33.7277832,0.0258942-50.5916748,0.0358582
				C968.1379395,135.4548187,967.5341187,135.5720062,966.7695923,135.6513824z"/>
			<path class="st1" d="M787.6494141,112.5633011c-3.4539795,5.7413101-6.6686401,11.0790939-9.8777466,16.4202194
				c-6.4899902,10.8017578-12.9706421,21.6091156-19.4685059,32.4061127
				c-2.3641357,3.9283295-6.7119141,5.8855591-10.6387329,4.8377228c-5.809021-1.5500031-8.3341064-7.9869995-5.1747437-13.2785797
				c5.0848389-8.5165253,10.2036133-17.0127716,15.2982788-25.5234909
				c7.145752-11.9373703,14.2998047-23.8698349,21.413147-35.8265381c2.2697144-3.8151627,5.4599609-5.6617966,9.9521484-5.1851578
				c2.9805298,0.3162537,5.1242676,1.8686371,6.6178589,4.3417587
				c12.3845215,20.5073853,24.7722778,41.0129623,37.0942993,61.5578995
				c3.3915405,5.6548004,0.7312012,12.3580322-5.3486938,13.9147034c-3.885437,0.994812-8.043396-0.7785492-10.3717041-4.6013641
				c-3.8291016-6.2869415-7.5653687-12.6304779-11.3464355-18.9467316
				c-5.5758057-9.3143311-11.1553955-18.6264496-16.7382813-27.9365387
				C788.6870117,114.1208267,788.2723999,113.5231323,787.6494141,112.5633011z"/>
			<path class="st1" d="M587.1159058,86.3418732c11.8054199,0.0010757,23.6109009-0.0210648,35.4161987,0.0116882
				c4.8973999,0.013588,8.3874512,2.9467392,9.2800903,7.5563736c1.0030518,5.1798325-2.9589844,9.2444077-6.9282227,9.9109802
				c-1.4076538,0.2363968-2.8514404,0.3499298-4.27948,0.3568649c-7.1830444,0.0349503-14.3671875,0.0754852-21.5488892-0.0259018
				c-1.7766724-0.0250702-2.1906128,0.5615768-2.1856079,2.2325211c0.0505371,16.9271698,0.0393677,33.8545685,0.0234375,50.7819061
				c-0.0044556,4.6672974-3.5027466,8.7106476-7.9118042,9.2409515c-4.8771362,0.5866241-9.3214111-2.405365-10.4301147-7.1264801
				c-0.2521973-1.0738678-0.2062988-2.2302704-0.2070923-3.3487549
				c-0.0117798-16.4276123-0.0071411-32.8552246-0.0095825-49.2828369
				c-0.0003052-2.4508896-0.0076294-2.4541626-2.4501953-2.4547119c-7.6204224-0.0016937-15.2412109,0.0393448-22.8609619-0.032135
				c-1.6607056-0.0155792-3.3927612-0.1978531-4.961853-0.7054825c-4.1713867-1.3495026-6.2163086-4.9680023-5.6621704-9.5745544
				c0.4603271-3.8262787,4.0219116-7.3517456,7.9916382-7.4339905c7.7416992-0.1604004,15.4882202-0.0895538,23.2327271-0.1057281
				C578.1212769,86.3331833,582.6186523,86.3408203,587.1159058,86.3418732z"/>
			<path class="st1" d="M1103.9752197,126.5242844c4.8833008,3.1619797,9.4334717,6.1053238,13.9805908,9.0532913
				c7.4332275,4.8190308,14.8692627,9.6334991,22.2943115,14.4651794c3.4050293,2.2157745,4.7042236,5.4916992,4.1113281,9.365036
				c-0.5358887,3.500412-2.7489014,5.8650665-6.1894531,6.7859955c-2.979248,0.797348-5.7563477,0.1111298-8.3634033-1.5829468
				c-12.5545654-8.1575775-25.140625-16.26651-37.7145996-24.3941345c-3.0389404-1.9642944-6.0834961-3.9200592-9.1099854-5.9034424
				c-5.7728271-3.7830963-5.8837891-11.938858-0.123291-15.6855774
				c15.6889648-10.2043839,31.4204102-20.3435516,47.1412354-30.4987488
				c2.6452637-1.7087402,5.5308838-2.3023605,8.5749512-1.3908539c3.2937012,0.9862289,5.3206787,3.3068237,5.7923584,6.6725235
				c0.529541,3.778862-0.5629883,7.0730362-3.9171143,9.2712479c-5.4261475,3.5560303-10.8874512,7.0583725-16.3278809,10.5923462
				c-6.1213379,3.9762115-12.2373047,7.9604721-18.3515625,11.9474792
				C1105.2684326,125.5505371,1104.7955322,125.9275513,1103.9752197,126.5242844z"/>
			<path class="st1" d="M1073.2276611,126.6451111c0,10.175766,0.0054932,20.351532-0.0023193,30.5272675
				c-0.0039063,5.1715851-3.9752197,9.2473602-9.005127,9.2694244c-5.2738037,0.023056-9.454834-4.0279388-9.4603271-9.2848358
				c-0.0214844-20.4763794-0.0219727-40.9528351,0.0003662-61.4292221c0.0058594-5.2823563,4.1787109-9.3970795,9.3825684-9.3765869
				c5.1638184,0.02034,9.0788574,4.0570755,9.0827637,9.3920517
				C1073.2329102,106.0438538,1073.2276611,116.3444748,1073.2276611,126.6451111z"/>
			<path class="st0" d="M780.145874,240.4523315c-0.3997803-9.6379395,3.5257568-18.1312256,5.4892578-27.0283661
				c0.9524536-4.3160706,3.47229-6.0821991,7.9407959-6.2019806c1.7468262-0.0468445,3.4960938-0.0237885,5.2439575-0.0058441
				c2.4783325,0.025528,3.2382813,0.7829285,3.2401733,3.2512054c0.0072021,9.2398071,0.0029907,18.4796295,0.0029907,27.7194366
				c0,0.6759644,0,1.3519897,0,1.9288177c0.2756958,0.1560669,0.3763428,0.2594147,0.4840698,0.2673798
				c4.2105103,0.3114624,4.6381226,0.7674713,4.638855,4.9678345c0.000061,0.1873016,0.0001221,0.3745728,0,0.5618744
				c-0.0028076,4.1809692-0.477356,4.599823-4.9544067,4.1204376c0-1.6659851,0-3.3694763,0-5.2018127
				c-7.5823364,0-14.9100342,0-22.4857788,0c0,1.7575684,0,3.4695892,0,5.3570862
				c-1.0457764,0-1.8464966-0.0256195-2.6450195,0.0055389c-1.4648438,0.0570984-2.2649536-0.6999054-2.3463135-2.0843353
				c-0.0950317-1.6169281-0.1050415-3.2488708-0.0020142-4.8647156c0.1121216-1.7596283,1.197998-2.6742401,2.9360962-2.7846832
				C778.4291992,240.4131622,779.175293,240.4523315,780.145874,240.4523315z M796.984436,211.6023407
				c-0.65802-0.0312042-1.1484375-0.0706787-1.6391602-0.0751648c-4.0297241-0.0366974-4.4500732,0.2854919-5.4470825,4.2640533
				c-1.3920288,5.5549622-2.9211426,11.0821228-4.0855103,16.6847534c-0.5299683,2.5502167-0.3267212,5.2527771-0.4533691,7.8320923
				c4.1256714,0,7.8371582,0,11.6251221,0C796.984436,230.7155304,796.984436,221.2597656,796.984436,211.6023407z"/>
			<path class="st0" d="M724.2203369,234.7455139c0.4104004-0.6578522,0.7371216-1.1486206,1.0313721-1.6582031
				c4.6463623-8.0484924,9.2626343-16.114563,13.9711304-24.1264954c0.4771118-0.8118591,1.4174194-1.6557465,2.2925415-1.8683472
				c2.0454712-0.4969025,3.0684204,0.4569244,3.0719604,2.5708923c0.0171509,10.3041687,0.0245972,20.6083374-0.0018311,30.9124146
				c-0.0089722,3.4829865-1.2718506,4.4690094-4.9517212,3.929245c0-8.9812775,0-17.9794312,0-27.2510834
				c-0.3953857,0.6083984-0.6984253,1.0375977-0.9639282,1.4889221c-4.6167603,7.8493958-9.227417,15.7023926-13.8450928,23.551239
				c-0.347229,0.5901337-0.6105347,1.378479-1.1381836,1.6789246c-0.8015747,0.4564514-1.9211426,0.9509888-2.6812134,0.7127991
				c-0.7331543-0.2297211-1.3850708-1.2920074-1.6959839-2.1285248c-0.2861328-0.7699432-0.0761719-1.7262421-0.0762329-2.6004028
				c-0.0012817-9.0551605-0.0007935-18.110321-0.0007935-27.1654816c0-0.3746948-0.0014038-0.7494049,0.0003052-1.1240997
				c0.0183716-4.112854,0.7188721-4.7611847,4.9876709-4.4980316
				C724.2203369,216.2711639,724.2203369,225.3814392,724.2203369,234.7455139z"/>
			<path class="st0" d="M823.7636108,207.2194366c0,9.0671844,0,18.0315704,0,27.4650421
				c0.5610352-0.882309,0.9526978-1.4503937,1.2963867-2.0462189c4.5511475-7.8890991,9.0786743-15.7919159,13.6688232-23.6582336
				c0.4390259-0.7525177,1.1518555-1.5874786,1.9223022-1.8578644c2.0917969-0.7338409,3.382019,0.3061676,3.3842163,2.5227661
				c0.0098877,10.3059082,0.0100098,20.6118469,0.0012817,30.9177551c-0.0029907,3.5759125-1.1074219,4.4814606-4.8118896,3.9458618
				c0-9.0720978,0-18.152832,0-27.3742981c-0.354248,0.556015-0.6940308,1.0544739-0.9991455,1.5733032
				c-4.7439575,8.0660553-9.453125,16.1530762-14.2687378,24.1761322c-0.5102539,0.8501129-1.5518799,1.640686-2.501709,1.906723
				c-1.4373779,0.4026642-2.5705566-0.6531372-2.5740967-2.169693c-0.0253906-10.9304504-0.0408325-21.861145,0.0106201-32.7914581
				C818.9025879,207.5146179,820.1752319,206.882431,823.7636108,207.2194366z"/>
			<path class="st0" d="M573.3759155,226.016983c0.0001221,3.1186676,0.0231323,6.2375641-0.0050049,9.3559723
				c-0.0488281,5.4116669-3.3753052,9.07341-8.7891235,9.4780731c-2.5422974,0.1900024-5.1176758,0.1690063-7.6644897,0.0166626
				c-4.4017944-0.2634888-7.6660156-3.3603363-8.2834473-7.7592163c-0.2241821-1.5973511-0.2828979-3.2273407-0.2940674-4.8433075
				c-0.0354614-5.1143799-0.0511475-10.2295532-0.0020142-15.3437042c0.0516357-5.3709106,2.5563354-8.783905,7.8026123-9.596344
				c3.3228149-0.5146179,6.8707886-0.4285126,10.1947021,0.1259918c4.4725342,0.7461548,6.8690186,4.1011353,7.0371704,8.6485291
				c0.0045776,0.1246185,0.0033569,0.2494812,0.0033569,0.3742371
				C573.3757935,219.6549072,573.3757324,222.8359375,573.3759155,226.016983z M568.1868286,225.9032898
				c0-3.2471924,0.0515747-6.4954376-0.0157471-9.7412415c-0.0571899-2.7582092-1.8687134-4.5380249-4.619873-4.6248016
				c-1.7466431-0.0550842-3.4996338-0.072937-5.2442627,0.0097351c-2.7114868,0.1284332-4.7373047,1.9980927-4.7666626,4.5862427
				c-0.0721436,6.3685608-0.1071167,12.7402191,0.0197754,19.107132c0.0662231,3.3241425,2.1231079,5.1038666,5.4245605,5.1407471
				c1.3112183,0.0146332,2.6227417,0.0088196,3.934082,0.0012817c3.5699463-0.0205078,5.2380371-1.6837006,5.2665405-5.2995911
				C568.2094116,232.0231476,568.1902466,228.9631195,568.1868286,225.9032898z"/>
			<path class="st0" d="M650.571228,223.1659546c0-5.3283234,0-10.5004883,0-15.9521027
				c0.8283081,0,1.5524902-0.0180817,2.2754517,0.0033875c2.1586304,0.0640869,2.7871094,0.6745911,2.7924194,2.8358307
				c0.0167236,6.8063965,0.0065918,13.6128845,0.0067749,20.419342c0,3.371994,0.0001831,6.743988-0.0001221,10.1159821
				c-0.0004272,3.8802948-0.8953857,4.5948792-5.0186157,3.8768158c0-5.3850403,0-10.7964478,0-16.3587799
				c-5.019043,0-9.9066162,0-14.989502,0c0,5.440094,0,10.9019928,0,16.4959869
				c-0.7949829,0.0366058-1.4042969,0.0963593-2.0125122,0.0870667c-2.4397583-0.0374298-3.0895386-0.6884155-3.0916748-3.14534
				c-0.0081787-9.2417908-0.0033569-18.4835205-0.003418-27.725296c0-1.1240082-0.0049438-2.2480316,0.0010986-3.371994
				c0.0140381-2.6291351,0.5914917-3.2215729,3.1668091-3.2302551c0.5524292-0.0018311,1.1050415,0.0466156,1.8319702,0.0798798
				c0,5.2854462,0,10.4971008,0,15.8694763C640.5894165,223.1659546,645.4735107,223.1659546,650.571228,223.1659546z"/>
			<path class="st0" d="M1013.8051147,244.6942444c-0.8632813,0-1.5334473,0.0161438-2.2025757-0.0029755
				c-2.2814331-0.065155-3.0137329-0.7795563-3.0219727-3.0878448c-0.0214844-5.9964142-0.0075684-11.9930115-0.0076904-17.9895325
				c-0.0001221-4.0601349-0.0004272-8.1203156,0.000061-12.1804657c0.0005493-3.9676666,0.9824219-4.7502441,5.1895752-3.9728851
				c0,5.1867065,0,10.4077911,0,15.7465363c5.010437,0,9.8544312,0,14.9298706,0c0-5.2563019,0-10.5223083,0-15.9934998
				c0.9000244,0,1.5718994-0.0146942,2.243042,0.002655c2.2370605,0.0576935,2.8677979,0.6815948,2.8709717,2.9685059
				c0.0131836,9.3071136,0.0057373,18.6142273,0.0059814,27.9213409c0,0.812027,0.0002441,1.6240692,0,2.4361115
				c-0.0014648,3.90065-0.8813477,4.6146851-5.0102539,3.9318085c0-5.3860626,0-10.7980042,0-16.3642731
				c-5.0230103,0-9.911438,0-14.9970093,0C1013.8051147,233.5446014,1013.8051147,239.0078735,1013.8051147,244.6942444z"/>
			<path class="st0" d="M594.4649048,207.446991c0,5.2564392,0,10.421936,0,15.7326813c4.9827271,0,9.8210449,0,14.8527832,0
				c0-5.1842041,0-10.4011536,0-15.5535126c3.7745972-1.2328186,5.2241821-0.2089081,5.2243042,3.4937439
				c0.0004272,9.8032379,0.0002441,19.6064148,0.0001221,29.4096527c-0.000061,3.8818054-0.9098511,4.6225128-5.100769,3.9338226
				c0-5.4085083,0-10.8605499,0-16.4082794c-5.0667114,0-9.9091187,0-14.9725952,0c0,5.5019379,0,10.961792,0,16.6356659
				c-0.9515381,0-1.6865234,0.0338135-2.4172974-0.0065002c-1.9697876-0.1086121-2.6924438-0.7952881-2.7299194-2.7903137
				c-0.0562744-2.996109-0.0183716-5.9940338-0.0186157-8.9911957c-0.0006714-7.1806946-0.0012817-14.3613739,0.0001831-21.5420685
				C589.303894,207.4733887,590.1868896,206.7620087,594.4649048,207.446991z"/>
			<path class="st0" d="M414.2606812,240.0500488c5.8197937,0,11.534729,0,17.2047729,0
				c0.8042908,3.5580139-0.0515747,4.6434174-3.4876709,4.6452942c-5.1805725,0.0028839-10.3611755,0.0119781-15.5417175-0.004303
				c-2.7554626-0.0086517-3.40271-0.6673279-3.4052429-3.4531097c-0.0089417-9.7993927-0.0124512-19.5987854,0.0010986-29.3981781
				c0.0050964-3.691391,0.9580078-4.6179962,4.6803894-4.6252594c4.7436523-0.0092468,9.4873047-0.0039825,14.230957-0.0018768
				c3.5007935,0.0016022,4.2391968,0.9067383,3.586853,4.6009216c-5.6838684,0-11.4030457,0-17.2487183,0
				c0,3.8787231,0,7.5808716,0,11.4524231c4.9456787,0,9.7954712,0,14.8162537,0c0,1.6095734,0,3.0527496,0,4.706604
				c-4.957428,0-9.8538513,0-14.8369751,0C414.2606812,232.0750275,414.2606812,235.9705963,414.2606812,240.0500488z"/>
			<path class="st0" d="M1088.6577148,211.7967377c0,3.6100922-0.0025635,6.9104004,0.0037842,10.2106934
				c0.0007324,0.3617554,0.0537109,0.7234192,0.0996094,1.2991486c4.9820557,0,9.8818359,0,14.8554688,0
				c0,1.6278839,0,3.0325317,0,4.582901c-4.9389648,0-9.7896729,0-14.7996826,0c0,4.0855255,0,8.0284119,0,12.1555328
				c5.7462158,0,11.4622803,0,17.1304932,0c0.8419189,3.439209-0.0588379,4.6452026-3.3146973,4.649231
				c-5.2451172,0.0065002-10.4903564,0.0144043-15.7354736-0.003891c-2.7703857-0.0097046-3.4238281-0.679718-3.4251709-3.4354095
				c-0.0047607-9.8035126-0.0063477-19.6070251,0.0004883-29.4105377c0.0025635-3.6943512,0.9455566-4.6243744,4.6722412-4.6303253
				c4.8081055-0.0076904,9.6162109-0.0040741,14.4243164-0.001236c3.3179932,0.0019226,4.0880127,0.9741364,3.4693604,4.5838928
				C1100.3552246,211.7967377,1094.637085,211.7967377,1088.6577148,211.7967377z"/>
			<path class="st0" d="M913.2355957,224.909256c1.3264771,0.8522949,2.5534668,1.5855408,3.7219238,2.4024353
				c2.8023682,1.9591064,4.2594604,4.6355896,4.2319946,8.0952911c-0.0237427,2.9940033-0.0049438,5.988327-0.0049438,9.2862091
				c-0.802002,0-1.5205688,0.0252991-2.2368164-0.0048065c-2.1052856-0.0883484-2.7712402-0.7664642-2.8214111-2.8720703
				c-0.0535278-2.245285,0.1559448-4.5326996-0.2181396-6.7216187c-0.243042-1.4219513-1.0412598-3.0010986-2.0852661-3.9851074
				c-2.7506714-2.5923615-6.0872192-3.7679291-10.1381226-2.7701874c0,5.3153687,0,10.7167969,0,16.3113708
				c-1.1203613,0-2.0472412,0.0815735-2.9546509-0.0167389c-1.9779663-0.2141571-2.2327881-1.6474457-2.229248-3.2785339
				c0.015625-7.243042,0.0064087-14.486084,0.0062866-21.7291412c0-2.747345-0.015686-5.4948883,0.0044556-8.2420654
				c0.0270386-3.683609,1.1259155-4.567749,5.0674438-3.9546814c0,5.2460938,0,10.524231,0,15.7542725
				c3.8532104,0.9990692,4.7863159,0.6556091,6.7148438-2.4522247c1.3809814-2.2254181,2.7750244-4.4458618,4.0534668-6.7299805
				c0.432312-0.7723846,0.7177734-1.7271576,0.7449951-2.6086426c0.1202393-3.9007416,1.0401611-4.6813049,5.0570068-3.9410095
				c0.1767578,3.4554901,0.4503784,6.8569946-1.9492188,9.9230652
				C916.4008789,219.6741791,914.9628296,222.2560883,913.2355957,224.909256z"/>
			<path class="st0" d="M953.9824219,244.6408539c-0.1903687-2.6415863-0.3258057-5.0573883-0.5532837-7.4644928
				c-0.1248169-1.3207855-0.8664551-1.8150787-2.2802124-1.7642975c-3.305542,0.1186371-6.6207275,0.1134644-9.9267578,0.0013275
				c-1.3503418-0.0457458-1.9799805,0.4194489-2.09375,1.6883087c-0.1273193,1.4197083-0.2501221,2.8410492-0.3187256,4.2643738
				c-0.0502319,1.0416107-0.0097656,2.0876312-0.0097656,3.3208466c-0.9819336,0-1.7805176,0.0271301-2.5765381-0.0057678
				c-1.5613403-0.0646362-2.4365234-0.8752594-2.47229-2.4608612c-0.0701294-3.1157379,0.0385742-6.1366882,1.1978149-9.1753387
				c2.975708-7.7995758,5.65802-15.7113647,8.4396973-23.5845795c0.5019531-1.4206696,1.0897827-2.7124939,2.8745728-2.7338257
				c1.7976685-0.0214996,2.3865967,1.2593079,2.8930664,2.6881104c3.0603638,8.6338806,6.2895508,17.2120361,9.1283569,25.9177551
				c0.7592773,2.3286438,0.4801025,5.0423737,0.3867188,7.5685272c-0.0222168,0.6021271-1.1273804,1.4038239-1.8901978,1.6740723
				C955.9591675,244.8660889,954.9542847,244.6408539,953.9824219,244.6408539z M951.4325562,230.7233124
				c-1.7182007-5.2729187-3.3389282-10.2467499-4.9596558-15.2206421c-0.1340942,0.0156555-0.2682495,0.0312958-0.4023438,0.0469513
				c-1.6533203,5.0149536-3.3066406,10.0298767-5.0024414,15.1736908
				C944.6002808,230.7233124,947.8206177,230.7233124,951.4325562,230.7233124z"/>
			<path class="st0" d="M450.5065308,223.35495c0.3540344,0.0826721,0.4144897,0.0983582,0.475647,0.1109009
				c3.1165466,0.6373138,5.3195496-0.2806854,6.6838684-3.3730011c0.923584-2.0933075,2.4069824-3.9329987,3.5177307-5.9533691
				c0.4580383-0.8331757,0.8108215-1.8354492,0.8413696-2.7728882c0.1278076-3.923584,0.6929932-4.4502563,5.0316162-4.0062561
				c-0.0698547,3.1419678,0.7085571,6.3212585-1.4740601,9.2587585c-1.9299011,2.5973358-3.5697021,5.4102173-5.4416199,8.2879639
				c0.9053345,0.5788879,1.758728,1.1664124,2.6509399,1.6875763c3.5312195,2.0626373,5.3878174,5.0677643,5.3321838,9.2141418
				c-0.0384827,2.8665314-0.0074158,5.7339478-0.0074158,8.8485413c-1.0231934,0-1.9386292,0.067627-2.84021-0.0154114
				c-1.4569092-0.13414-2.2552795-0.9712067-2.268158-2.4660339c-0.0150452-1.7480164-0.0737915-3.4991913,0.0027771-5.2438202
				c0.1436462-3.2724457-1.2974548-5.4410858-4.0550842-7.2146759c-2.632843-1.6933899-5.307251-1.8271637-8.3900146-1.5177917
				c0,5.44841,0,10.8491974,0,16.4353638c-1.1179199,0-2.0427551,0.0795135-2.9483032-0.0186615
				c-1.3610535-0.1475983-2.1143494-0.9127808-2.1128845-2.3650665c0.0108337-10.6763916-0.0136414-21.35289,0.0205994-32.0291901
				c0.0083313-2.5951843,1.5453491-3.4327545,4.9810181-2.7434235
				C450.5065308,212.7232513,450.5065308,218.0054016,450.5065308,223.35495z"/>
			<path class="st0" d="M387.8668823,244.4446716c0-10.8467255,0-21.6245117,0-32.5653076
				c-1.559082,0-3.0484924-0.2661743-4.3683472,0.0921478c-0.9033508,0.2452698-1.9874268,1.2241211-2.2770386,2.1086731
				c-2.2476196,6.8643188-4.5383606,13.7293243-6.3494263,20.7150116c-0.7962036,3.071228-0.5063477,6.4240112-0.7254333,9.8997345
				c-0.5740356,0-1.2414856,0.0111084-1.9084473-0.0020599c-2.2949524-0.0453796-2.7897339-0.6274719-2.9561768-2.8963165
				c-0.3162537-4.3112335,0.5245056-8.3790588,1.9556885-12.4391479c1.9456482-5.519516,3.5579224-11.1556854,5.3757019-16.721405
				c1.3125305-4.0186462,3.243988-5.3792419,7.4685974-5.419632c2.1220703-0.0203247,4.2453918-0.0394897,6.3664856,0.0101471
				c1.8742065,0.0438843,2.6363831,0.7838135,2.6402283,2.6360474c0.0220032,10.6112976,0.0281677,21.2227173-0.0013733,31.8339691
				C393.079834,244.3997345,391.7633057,245.1055908,387.8668823,244.4446716z"/>
			<path class="st0" d="M1126.1359863,230.2997894c0,5.0231476,0,9.565918,0,14.0733643
				c-3.8656006,1.0032806-5.1243896,0.0591583-5.1247559-3.7187347c-0.0010986-9.4280396-0.0029297-18.8560638,0.0007324-28.2841034
				c0.0014648-4.0257721,1.1132813-5.1711578,5.0784912-5.1512451c3.3063965,0.0166016,6.6265869-0.0777893,9.9158936,0.1859741
				c4.5957031,0.368576,7.0371094,3.1789703,7.1125488,7.7921448c0.0306396,1.8726044,0.0128174,3.7462006,0.0043945,5.6192474
				c-0.0238037,5.3533478-3.001709,8.8646088-8.3703613,9.4320679
				C1131.9897461,230.5405731,1129.1702881,230.2997894,1126.1359863,230.2997894z M1126.2380371,225.7444763
				c2.5709229,0,5.0518799,0.1434326,7.5080566-0.0415344c2.3040771-0.1735382,3.875-1.6048584,4.1226807-3.8915558
				c0.2381592-2.1967773,0.1472168-4.458847-0.0681152-6.6659851c-0.1741943-1.7845612-1.4545898-3.0271149-3.2062988-3.1534882
				c-2.7591553-0.1990204-5.5430908-0.052887-8.3563232-0.052887
				C1126.2380371,216.6070557,1126.2380371,221.118988,1126.2380371,225.7444763z"/>
			<path class="st0" d="M879.1074829,218.0955353c0-1.2038116,0.0678101-2.263504-0.0154419-3.3111572
				c-0.1333618-1.6787872-0.954895-2.9103241-2.7470093-3.0031891c-2.4232788-0.1256409-4.8739624-0.2708893-7.2788696-0.0458527
				c-2.3966064,0.2243195-3.8510132,2.0084381-3.8793335,4.5384216c-0.0721436,6.4328918-0.0854492,12.867981,0.005127,19.3004456
				c0.0438843,3.1169891,1.5836792,4.5155487,4.6987305,4.6077423c1.6850586,0.0499115,3.3737793,0.045517,5.0591431,0.0017395
				c3.0905151-0.080246,4.3009033-1.3221588,4.3183594-4.3562469c0.0053101-0.9199219,0.0008545-1.8399658,0.0008545-2.9377747
				c0.9987793,0,1.7947388-0.0035706,2.5907593,0.0007782c1.5420532,0.0083771,2.2356567,0.8979187,2.3974609,2.3272705
				c0.600769,5.3066254-2.0771484,8.9176331-7.4293823,9.4720001c-3.0858765,0.3196564-6.2567139,0.2890625-9.3469849-0.0147247
				c-4.4998779-0.442276-7.2177124-3.2891998-7.3294678-7.7873993c-0.1798706-7.240036-0.1553955-14.4898071-0.0123291-21.7313843
				c0.0751953-3.8034363,2.6400757-7.0328217,6.5778198-7.5900269c3.8971558-0.5514374,7.9841919-0.6079407,11.8815308-0.0862427
				c4.4013672,0.5891876,6.6434326,4.7848816,5.4091187,9.0753784c-0.1778564,0.6183777-0.9946289,1.2969971-1.645752,1.4764404
				C881.4465332,218.2840729,880.409668,218.0955353,879.1074829,218.0955353z"/>
			<path class="st0" d="M676.927002,207.2973938c0,5.4411316,0,10.7907257,0,16.4066315
				c2.4403687,0,4.7293701-0.0367889,7.0167236,0.008194c3.9604492,0.0779114,7.479248,1.1458282,9.3251343,5.0304718
				c1.6000366,3.3674622,1.5834351,6.9542694,0.352356,10.3975372c-1.1951904,3.342865-4.105896,4.9474945-7.3879395,5.2583771
				c-4.0843506,0.3868713-8.223999,0.2714844-12.3381348,0.2244415c-1.8729858-0.0214081-2.2488403-1.5062103-2.2558594-3.0629425
				c-0.0155029-3.4333038-0.0056152-6.8666534-0.0056152-10.3000031
				c-0.0001221-6.6169891-0.0057373-13.2339325,0.0023193-19.8509216
				C671.6405029,207.6912231,672.8042603,206.733963,676.927002,207.2973938z M676.9868164,240.0695801
				c2.4551392,0,4.81073,0.0233307,7.1656494-0.0059052c2.9248657-0.0363312,4.6459351-1.6113129,4.9846191-4.5005341
				c0.4729614-4.0339813-0.6094971-6.4714203-3.6622314-6.9091187c-2.7756958-0.397934-5.6534424-0.0841827-8.4880371-0.0841827
				C676.9868164,232.4149475,676.9868164,236.136261,676.9868164,240.0695801z"/>
			<path class="st0" d="M520.2532959,230.4540558c0,4.8217163,0,9.4153137,0,14.2411957
				c-0.7991333,0-1.4057617,0.0081482-2.012146-0.0014648c-2.395874-0.0378876-3.0103149-0.6295319-3.0160522-2.9993591
				c-0.0133667-5.4933319-0.0044556-10.9867249-0.0044556-16.4800568c0-4.5570068-0.0102539-9.1139984,0.0037842-13.6709595
				c0.0092163-3.0074463,1.1929321-4.2942505,4.1317749-4.3123627c3.5549927-0.0219574,7.1254272-0.1075592,10.6625366,0.1713409
				c4.5140991,0.3559418,6.7902222,2.6588745,7.1941528,7.1263428c0.2236328,2.4736633,0.2399292,5.0041656-0.0050049,7.4739075
				c-0.4712524,4.7514343-3.4547119,7.6999969-8.2128296,8.2438049c-2.0983887,0.2398682-4.2344971,0.1537628-6.3536987,0.2048645
				C521.9099121,230.4689789,521.1775513,230.4540558,520.2532959,230.4540558z M520.3234863,225.828064
				c0.8193359,0,1.4370728,0.0029755,2.0546875-0.0005035c1.6797485-0.0094604,3.3654175,0.0638275,5.0379028-0.0517883
				c2.8411865-0.1962738,4.5516357-1.9428711,4.7147827-4.8088989c0.0951538-1.6728058,0.1051636-3.3638153-0.024353-5.0328064
				c-0.1730957-2.2306519-1.4699097-3.8148651-3.5290527-3.9633789c-2.7044678-0.1950836-5.4335938-0.0478973-8.2539673-0.0478973
				C520.3234863,216.5600281,520.3234863,221.0688934,520.3234863,225.828064z"/>
			<path class="st0" d="M982.263916,229.8382416c2.7240601-6.951004,5.4649048-13.9555054,8.2157593-20.956131
				c0.6427612-1.6357727,1.6702881-2.1083832,3.3113403-1.568985c1.2822266,0.4215088,1.9003296,1.8877411,1.2734375,3.4102936
				c-4.3405151,10.5420685-8.7149048,21.0702362-13.0820313,31.6013641
				c-0.6964111,1.6791687-1.8753052,2.5956116-3.7820435,2.3795624c-0.493042-0.0558624-0.9978027-0.0044708-1.4971313-0.0092773
				c-3.7349854-0.0361938-4.3453369-0.7159576-3.9675293-4.7488861c0.8113403,0,1.6557617,0.0001373,2.500061-0.0000916
				c3.312561-0.0008698,4.9248657-2.4707336,3.6568604-5.6410217c-2.6831665-6.7084503-5.3834229-13.4100189-8.0735474-20.1156769
				c-0.4638672-1.1561737-0.9384155-2.3090668-1.3613892-3.4803467c-0.5985107-1.6573334-0.1069946-2.9859467,1.2120972-3.4031525
				c1.8415527-0.5824127,3.0714111-0.0638123,3.6884766,1.5707855
				C977.0184937,215.9236755,979.6747437,222.9721985,982.263916,229.8382416z"/>
			<path class="st0" d="M1060.9498291,244.571579c-1.7879639,0-3.375,0-5.1640625,0c0-10.9985657,0-21.887207,0-32.9827728
				c-4.0942383,0-7.9932861,0-11.8594971,0c-0.4613037-3.6418457,0.1633301-4.3750916,3.5383301-4.3760529
				c7.1157227-0.0021515,14.2314453-0.002243,21.34729,0.0001373c3.1745605,0.0010529,3.8710938,0.838028,3.4102783,4.3435669
				c-3.6673584,0-7.3724365,0-11.2723389,0C1060.9498291,222.6710052,1060.9498291,233.559967,1060.9498291,244.571579z"/>
			<path class="st0" d="M488.5956116,244.4801788c0-10.9194794,0-21.7684937,0-32.8630981c-4.0320129,0-7.9248047,0-11.7765198,0
				c-0.5117188-3.7247467,0.058075-4.4030914,3.4766846-4.4042358c7.0570984-0.0023804,14.1141968-0.0024261,21.1712952,0.0000458
				c3.4460144,0.0011902,3.961792,0.6073456,3.5309143,4.3463593c-3.6881104,0-7.4050598,0-11.2926331,0
				c0,11.030365,0,21.868042,0,32.920929C491.9861145,244.4801788,490.4333191,244.4801788,488.5956116,244.4801788z"/>
			<path class="st0" d="M698.2265625,244.4767456c0-12.3604584,0-24.739212,0-37.1087189
				c3.5846558-0.8622742,5.015625,0.2005768,5.0168457,3.7045135c0.0033569,9.7893372,0.0023193,19.5786591,0.0006104,29.367981
				C703.2433472,244.2370911,702.1519165,245.1356506,698.2265625,244.4767456z"/>
			<path class="st0" d="M739.3969727,200.542099c0.6655884,3.3531494-0.1325684,4.4048767-3.5390625,4.4223938
				c-2.9751587,0.0153198-5.9503174,0.0032043-9.1259155,0.0032043c0-0.7287292-0.0129395-1.4584503,0.0027466-2.1875458
				c0.0285034-1.3201447,0.6796875-2.1953735,2.019043-2.2178802
				C732.289856,200.5027008,735.8275757,200.542099,739.3969727,200.542099z"/>
		</g>
	</g>
	<path class="st1" d="M94.5421982,219.4608307c0-1.7106018,0-2.6819916,0-3.6533966
		c0.0000534-23.3207397,0.1676941-46.643219-0.072113-69.9614868c-0.1158905-11.2712708,8.662262-23.3979187,21.9390717-24.9866486
		c16.064888-1.9223633,26.9342575,9.1620789,28.67939,21.1816559c0.681778,4.6956635,0.2727356,9.5559692,0.282074,14.3414459
		c0.0130615,6.7171783-0.0088806,13.4350128-0.1022034,20.1513824c-0.0236511,1.7041168,0.5564728,2.2794189,2.2763824,2.2657166
		c6.9918518-0.0558167,12.8379211,2.7199402,17.9314117,7.3875122c0.6481628,0.5939789,1.9138489,0.9986572,2.7551117,0.8241577
		c10.9204865-2.2652435,19.9105225,0.7834778,27.0416107,9.4069824c0.4870911,0.5890808,1.6747131,0.9566193,2.4786987,0.8726959
		c13.6439362-1.423645,24.7673187,5.2373657,28.6586456,17.4519043c0.7828369,2.4571075,1.1570892,5.1189117,1.2546539,7.7039032
		c0.1920776,5.0893707,0.0683136,10.1910706,0.0510712,15.2875977c-0.0039673,1.1764526,0.0548096,2.1773224,1.6504517,2.1444092
		c7.0938721-0.1464081,14.213089,0.0628662,21.2757416-0.4770813c7.1398773-0.5458221,11.633255-5.9224854,11.6742706-13.1366272
		c0.0539551-9.497879-0.0011292-18.9963226,0.0231323-28.4944458c0.0150452-5.8953857,3.0976868-10.2619019,8.2385864-11.7817535
		c7.3707275-2.1790314,14.6362,2.9320221,14.7081299,10.5892334c0.1001892,10.6539612,0.4378967,21.3392792-0.1984558,31.9588928
		c-1.0149536,16.9394226-12.1141663,31.291275-31.7927551,32.831192c-7.675354,0.600647-15.4176788,0.4066162-23.1299286,0.4300232
		c-1.9032135,0.0057983-2.5278473,0.512146-2.4789886,2.4590149c0.3065033,12.2189941-0.142807,24.4542847-3.7733307,36.1778564
		c-3.8453522,12.4171448-8.0589447,24.7665405-12.9787445,36.790741
		c-4.325592,10.5719604-13.1777191,15.6824341-24.5162506,15.8613586
		c-14.050705,0.2217407-28.1076965,0.0878906-42.1617432,0.0415039c-10.0466003-0.0331726-18.657402-3.5569763-24.9550934-11.5
		c-10.1173019-12.7605286-19.9814453-25.7221069-29.917366-38.625885
		c-10.0308228-13.0270691-20.0456924-26.0667419-29.9893608-39.1603394
		c-1.1626282-1.5309143-2.3678474-2.0751038-4.2513809-2.041748c-6.3301582,0.1122131-12.6679535,0.1930237-18.9945488,0.0054016
		c-8.4022579-0.2492371-16.3450871-2.1703796-23.0912666-7.5558014
		c-7.2380171-5.7780762-11.0808439-13.5001526-12.4982452-22.4958038c-0.4173218-2.6486359-0.512935-5.3703003-0.5151126-8.05867
		c-0.0311924-38.6104736-0.0894766-77.2211914,0.0195978-115.8313828
		C0.097109,95.9057159,4.3088436,85.6738434,14.1434355,78.3182678c5.6570749-4.2310715,12.2337179-6.0389404,19.1998253-6.5756226
		c0.6917763-0.053299,1.3892059-0.0450439,2.0840378-0.0450668c71.4294128-0.0018845,142.8588867-0.0314102,214.2882996,0.0303726
		c10.5639496,0.00914,19.8810577,3.4444962,26.9340973,11.6521683c6.0925598,7.0899658,8.6282043,15.5367661,8.670166,24.7820053
		c0.0420227,9.2663345,0.0306091,18.5330658,0.0025024,27.7994995c-0.0212708,7.0199585-4.714325,11.8931274-11.401947,11.9183655
		c-6.5549622,0.0247192-11.5090332-4.9749298-11.5669556-11.8846893c-0.0783386-9.3431015-0.0099487-18.6873474-0.023468-28.0310745
		c-0.0129089-8.8834076-5.3552551-14.2952271-14.2724304-14.2976837
		c-70.2711334-0.0193176-140.5422058-0.0198898-210.8133545,0.0008621
		c-8.9434185,0.0026321-14.3108826,5.5213394-14.3124657,14.5590134c-0.006731,38.764946-0.0038471,77.5298996-0.0023766,116.294838
		c0.0003395,9.7843475,5.049036,15.0210571,14.839653,15.3459778c2.3141174,0.0768127,4.6414719-0.1089783,6.9469376,0.0524139
		c2.1975479,0.1538696,2.9472961-0.5990295,2.9659042-2.8498383c0.071888-8.6993256,3.8665543-15.6140137,10.7597008-20.7664337
		c9.2759323-6.9335327,22.3345947-6.5267334,32.8347397,0.8457184
		C92.1465225,217.7601471,93.0122757,218.377594,94.5421982,219.4608307z M114.6473923,212.0077362
		c0,11.1940613,0.0152206,22.3881531-0.0067825,33.5821838c-0.0100708,5.1350403-2.8666458,8.5145569-7.6822052,9.0688477
		c-2.7015457,0.3109894-4.9343338-0.777298-6.8926392-2.5845947c-6.181633-5.7049713-12.300827-11.4823761-18.6298523-17.0195923
		c-1.7290726-1.5127258-4.0094757-2.5865784-6.2173233-3.3145599c-3.1165237-1.0275269-6.251709,0.9011536-7.2818756,4.0023956
		c-1.1510391,3.4651489,0.1441116,6.3239899,2.2012787,9.0102844
		c13.0431061,17.0325165,26.0780716,34.0712738,39.1214066,51.1036224
		c7.7886505,10.1705933,15.6662064,20.274353,23.3468323,30.5258179c3.5273132,4.7079773,7.8726349,6.8781433,13.8321075,6.7677612
		c12.8108673-0.2373047,25.6291656-0.0608521,38.4444427-0.0787048c5.1764679-0.0072021,6.9628906-1.2702942,8.751236-6.1870422
		c2.8949738-7.9589539,5.74086-15.9358215,8.6238556-23.8991699c3.2793579-9.0578918,5.1126709-18.4460144,5.2627106-28.0275574
		c0.270752-17.2886963,0.1154938-34.5843201,0.1046448-51.8770142c-0.0020905-3.3574677-2.2600555-5.8023834-5.267746-5.9011536
		c-3.0897827-0.1014557-5.4821167,2.3452301-5.6205139,5.8081665c-0.0677643,1.696228-0.0040741,3.3976593-0.0703583,5.0939789
		c-0.1698456,4.3525543-3.7342072,7.5555573-8.3239899,7.5222778c-4.5023346-0.0326538-7.970993-3.1913147-8.0568542-7.4978333
		c-0.0861969-4.3215485-0.0231781-8.6460419-0.0276031-12.9692535c-0.0010681-1.0807495,0.0520477-2.1660461-0.0270233-3.2413788
		c-0.2480164-3.3746948-2.5580597-5.6389618-5.6123657-5.5645447c-3.0675507,0.0747223-5.1926422,2.4375-5.2286224,5.8577423
		c-0.0341034,3.2420197-0.0306549,6.4844055-0.0495911,9.7266083c-0.0290833,4.9730835-3.5945129,8.9795837-8.1677094,8.837265
		c-4.7661285-0.1483154-8.570816-3.6758881-8.4024353-8.8382416c0.1811066-5.5524292,0.0782776-11.115921,0.0196838-16.6737518
		c-0.0406036-3.849823-2.3527985-6.3968658-5.5800171-6.3291321c-3.2273102,0.067749-5.2121429,2.4603271-5.221817,6.3467255
		c-0.0142059,5.7127838,0.0535583,11.4264069-0.0203094,17.1382751c-0.0823517,6.3609009-6.5578003,10.3442993-12.1362305,7.4802551
		c-3.3962708-1.7436829-4.6607666-4.7779083-4.6372375-8.4267578c0.0751724-11.6500244,0.2244263-23.2996826,0.2681503-34.9497833
		c0.0481339-12.8150787,0.014534-25.6305084,0.0032806-38.4457703c-0.0007935-0.9216156-0.0285034-1.8570099-0.183136-2.7621765
		c-0.5060349-2.961853-2.2701187-4.4255829-5.2473373-4.4439545c-3.1086044-0.0192108-4.9450226,1.4691315-5.4343185,4.5016479
		c-0.1708603,1.0591888-0.2373199,2.1473541-0.2292862,3.2213745c0.076973,10.260437,0.2197266,20.5204926,0.2650375,30.7810059
		C114.6848907,190.2370605,114.6476746,201.1224823,114.6473923,212.0077362z"/>
</g>
</svg>
