<?xml version="1.0" encoding="utf-8"?>
<!-- Generator: Adobe Illustrator 22.0.0, SVG Export Plug-In . SVG Version: 6.00 Build 0)  -->
<svg version="1.1" id="Layer_1" xmlns="http://www.w3.org/2000/svg" xmlns:xlink="http://www.w3.org/1999/xlink" x="0px" y="0px"
	 viewBox="0 0 47.474 25" style="enable-background:new 0 0 47.474 25;" xml:space="preserve">
<style type="text/css">
	.st0{fill-rule:evenodd;clip-rule:evenodd;fill:#A6AAAA;}
	.st1{fill-rule:evenodd;clip-rule:evenodd;fill:#F3792E;}
	.st2{fill-rule:evenodd;clip-rule:evenodd;fill:#F06022;}
	.st3{fill-rule:evenodd;clip-rule:evenodd;fill:#D95122;}
	.st4{fill-rule:evenodd;clip-rule:evenodd;fill:#F89A2C;}
	.st5{fill-rule:evenodd;clip-rule:evenodd;fill:#FFFFFF;}
	.st6{fill:#FFFFFF;}
	.st7{fill-rule:evenodd;clip-rule:evenodd;fill:#B4008D;}
	.st8{fill-rule:evenodd;clip-rule:evenodd;fill:#9DBC0A;}
	.st9{fill:none;stroke:#9DBC0A;stroke-width:0.1962;stroke-miterlimit:10;}
	.st10{fill-rule:evenodd;clip-rule:evenodd;fill:#DF3F17;}
	.st11{fill:none;stroke:#DF3F17;stroke-width:0.1962;stroke-miterlimit:10;}
	.st12{fill-rule:evenodd;clip-rule:evenodd;fill:#F5B208;}
	.st13{fill:none;stroke:#F5B208;stroke-width:0.1962;stroke-miterlimit:10;}
	.st14{fill:#9DBC0A;}
	.st15{fill:none;stroke:#9DBC0A;stroke-width:0.2023;stroke-miterlimit:10;}
	.st16{fill:none;stroke:#DF3F17;stroke-width:0.2023;stroke-miterlimit:10;}
	.st17{fill:none;stroke:#F5B208;stroke-width:0.2023;stroke-miterlimit:10;}
	.st18{fill-rule:evenodd;clip-rule:evenodd;fill:#85754E;}
	.st19{fill:#85754E;}
	.st20{fill-rule:evenodd;clip-rule:evenodd;fill:#1A171B;}
	.st21{fill:#016268;}
	.st22{fill:#00A9C2;}
	.st23{fill:#21427B;}
	.st24{fill:#FAE101;}
	.st25{fill-rule:evenodd;clip-rule:evenodd;fill:#32327F;}
	.st26{fill-rule:evenodd;clip-rule:evenodd;fill:#FCB813;}
	.st27{fill:#002169;}
	.st28{fill:#C6C7C8;}
	.st29{fill:#F79420;}
	.st30{fill:#FCB831;}
	.st31{fill:#FDDD2E;}
	.st32{fill:#F3C700;}
	.st33{fill:#DB6216;}
	.st34{fill:#EAA600;}
	.st35{fill:#E32427;}
	.st36{fill:#FFFFFF;stroke:#FFFFFF;stroke-width:0.1124;stroke-miterlimit:10;}
	.st37{fill:url(#SVGID_1_);}
	.st38{fill-rule:evenodd;clip-rule:evenodd;fill:#C1272D;}
	.st39{fill-rule:evenodd;clip-rule:evenodd;fill:url(#SVGID_2_);}
	.st40{fill-rule:evenodd;clip-rule:evenodd;fill:url(#SVGID_3_);}
	.st41{fill-rule:evenodd;clip-rule:evenodd;fill:url(#SVGID_4_);}
	.st42{fill-rule:evenodd;clip-rule:evenodd;fill:url(#SVGID_5_);}
	.st43{fill-rule:evenodd;clip-rule:evenodd;fill:url(#SVGID_6_);}
	.st44{fill-rule:evenodd;clip-rule:evenodd;fill:url(#SVGID_7_);}
	.st45{fill-rule:evenodd;clip-rule:evenodd;fill:url(#SVGID_8_);}
	.st46{fill:#006937;}
	.st47{fill:#929990;}
	.st48{fill:#FFFFFF;stroke:#FFFFFF;stroke-width:0.1949;stroke-miterlimit:10;}
	.st49{fill:#18428F;}
	.st50{fill:#EC1848;}
	.st51{fill:#29A151;}
	.st52{fill:#C1272D;}
	.st53{fill:#29ABE2;}
	.st54{fill:#F7BE3E;}
	.st55{fill:url(#SVGID_9_);}
	.st56{fill-rule:evenodd;clip-rule:evenodd;fill:none;}
	.st57{clip-path:url(#SVGID_11_);fill-rule:evenodd;clip-rule:evenodd;}
	.st58{fill:#EFAF1F;}
	.st59{fill:#EFB022;}
	.st60{fill:#0E0A08;}
	.st61{fill:#DA2A28;}
	.st62{fill:#F6F6F5;}
	.st63{fill:#C7B086;}
	.st64{fill:#F1F0EE;}
	.st65{fill-rule:evenodd;clip-rule:evenodd;fill:url(#SVGID_12_);}
	.st66{fill-rule:evenodd;clip-rule:evenodd;fill:#FAF9F9;}
	.st67{fill-rule:evenodd;clip-rule:evenodd;fill:#F8B132;}
	.st68{fill-rule:evenodd;clip-rule:evenodd;fill:#1A70B7;}
	.st69{fill-rule:evenodd;clip-rule:evenodd;fill:#36A834;}
	.st70{fill-rule:evenodd;clip-rule:evenodd;fill:#E2000F;}
	.st71{fill-rule:evenodd;clip-rule:evenodd;fill:#1A1A18;}
	.st72{fill:url(#SVGID_13_);}
	.st73{fill:url(#SVGID_14_);}
	.st74{fill:url(#SVGID_15_);}
	.st75{fill:url(#SVGID_16_);}
	.st76{fill:url(#SVGID_17_);}
	.st77{fill:url(#SVGID_18_);}
	.st78{fill:url(#SVGID_19_);}
	.st79{fill:url(#SVGID_20_);}
	.st80{fill:url(#SVGID_21_);}
	.st81{fill:url(#SVGID_22_);}
	.st82{fill:url(#SVGID_23_);}
	.st83{fill:url(#SVGID_24_);}
	.st84{fill:url(#SVGID_25_);}
	.st85{fill:url(#SVGID_26_);}
	.st86{fill:#00A85D;}
	.st87{fill:#FFFFFF;stroke:#FFFFFF;stroke-width:0.1;stroke-miterlimit:10;}
	.st88{fill:#9FD8F5;}
	.st89{fill:#274888;}
	.st90{fill:#267DBF;}
	.st91{fill:#2F91CF;}
	.st92{fill:#2955A0;}
	.st93{fill:#236EB3;}
	.st94{fill:#CFEBFA;}
	.st95{fill:#42B7E9;}
	.st96{fill:#3FAAE0;}
	.st97{fill:#ED171F;}
	.st98{opacity:0.25;fill:url(#SVGID_27_);}
	.st99{fill:#FFFFFF;stroke:#FFFFFF;stroke-width:1.0606;stroke-miterlimit:10;}
	.st100{fill:#FFAF10;}
	.st101{fill:#151416;}
	.st102{fill:#E57641;}
	.st103{fill:none;}
	.st104{fill:#1C191B;}
	.st105{fill:#19181A;}
	.st106{fill:#DD7340;}
	.st107{fill:#181617;}
	.st108{fill:#EA7944;}
	.st109{fill:#0C0E13;}
	.st110{fill:#181719;}
	.st111{fill:#F2F1F2;}
	.st112{fill:#F6F5F5;}
	.st113{fill:#BA673F;}
	.st114{fill:#4E362A;}
	.st115{fill:#6A6567;}
	.st116{fill:none;stroke:#EA7944;stroke-width:0.3013;stroke-linecap:round;stroke-miterlimit:10;}
	.st117{fill:none;stroke:#FF00FF;stroke-width:0.25;stroke-miterlimit:10;}
</style>
<g>
	<polygon class="st6" points="0,16.275 0,10.742 7.279,9.468 7.279,11.531 2.664,12.344 2.664,15.837 	"/>
	<polygon class="st6" points="0,10.004 7.279,8.699 7.279,5.942 0,7.2 	"/>
	<path class="st6" d="M7.977,14.932V9.365l8.091-1.391c0,0-0.119,0.742-0.617,1.067c0,0,0.509,0.419,0.563,0.866
		c0.054,0.448,0,3.596,0,3.596l-2.686,0.455v-3.401l-2.621,0.368v3.488L7.977,14.932z"/>
	<path class="st6" d="M7.977,8.579V5.822l6.152-1.071c0,0,1.473-0.152,1.928,1.343v1.089L7.977,8.579z"/>
	<polygon class="st6" points="16.718,7.047 16.718,4.285 23.964,3.083 23.98,5.78 	"/>
	<polygon class="st6" points="16.718,7.87 23.98,6.601 23.98,8.694 19.404,9.419 19.404,10.156 23.98,9.43 23.98,12.138 
		16.696,13.427 	"/>
	<path class="st6" d="M32.737,4.275V1.523l-6.065,1.04c0,0-1.441,0.214-2.025,1.891v1.207L32.737,4.275z"/>
	<path class="st6" d="M24.728,7.047c0,0,0.325,0.926,1.348,1.186l3.932-0.593v0.593l-5.329,0.942v2.859l6.044-1.056
		c0,0,1.17-0.432,1.608-1.202c0.439-0.77,0.406-1.31,0.406-1.31V6.95c0,0-0.211-0.877-0.471-1.056s-0.39-0.504-1.397-0.471
		c-1.007,0.032-6.239,1.024-6.239,1.024L24.728,7.047z"/>
	<polygon class="st6" points="33.474,4.177 33.474,1.418 36.084,0.949 36.095,3.744 	"/>
	<polygon class="st6" points="38.846,3.235 38.846,0.476 41.456,0.007 41.467,2.801 	"/>
	<polygon class="st6" points="33.474,4.961 41.467,3.592 41.467,9.131 38.846,9.582 38.846,6.089 36.095,6.587 36.095,10.058 
		33.485,10.492 	"/>
	<path class="st6" d="M9.992,18.712v-2.843l6.044-0.991c0,0,1.121,0.097,1.397,0.406c0.276,0.309,0.536,0.861,0.536,1.056
		s0,0.946,0,0.946L9.992,18.712z"/>
	<path class="st6" d="M9.976,19.379l7.993-1.391c0,0-0.114,1.089-0.682,1.797c-0.569,0.708-1.04,0.653-1.04,0.653l-3.591,0.614
		v3.444L9.992,25L9.976,19.379z"/>
	<path class="st6" d="M18.559,17.164v-1.04c0,0,0.184-0.747,0.672-1.191s1.198-0.846,1.419-0.888
		c0.221-0.042,3.932-0.693,3.932-0.693s0.975-0.054,1.386,0.347s0.693,0.906,0.693,1.105s0,0.975,0,0.975L18.559,17.164z"/>
	<path class="st6" d="M21.245,17.402l-2.675,0.487v3.823c0,0,0.206,0.812,0.639,1.116c0.433,0.303,1.462,0.347,1.462,0.347
		l4.051-0.737c0,0,0.931-0.46,1.3-0.945c0.368-0.485,0.596-1.215,0.617-1.373s0-3.63,0-3.63l-2.578,0.446v2.896l-2.805,0.429
		L21.245,17.402z"/>
	<polygon class="st6" points="27.365,12.885 30.008,12.409 30.019,15.203 27.387,15.68 	"/>
	<polygon class="st6" points="27.365,16.365 30.008,15.907 30.008,21.542 27.376,22.027 	"/>
	<polygon class="st6" points="30.723,21.426 30.723,15.788 33.355,15.317 33.355,20.966 	"/>
	<polygon class="st6" points="36.068,20.5 36.068,14.862 38.732,14.423 38.732,20.037 	"/>
	<path class="st6" d="M30.706,15.089v-2.778l6.223-1.056c0,0,0.991,0.032,1.348,0.536c0.357,0.504,0.439,0.861,0.455,1.072
		c0.016,0.211,0,0.837,0,0.837L30.706,15.089z"/>
	<polygon class="st6" points="42.03,13.838 44.809,13.384 44.809,18.987 42.03,19.476 	"/>
	<polygon class="st6" points="39.382,13.611 39.382,10.805 47.473,9.419 47.473,12.191 	"/>
</g>
</svg>
