<svg xmlns="http://www.w3.org/2000/svg" width="217" height="155" fill="none"><g fill-rule="evenodd" clip-path="url(#a)" clip-rule="evenodd"><path fill="url(#b)" d="M80.6 83.896c-4.5 0-5.8-.9-5.8-6.9 0-2.7.2-4.6 1.2-5.6.9-1 2.5-1.2 4.5-1.2h1.3l.2-1.3.2-.9.3-.9c.3-.9.7-1.8 1.2-2.7h-3.2c-5.8 0-9.1 1-11.3 3.2-1.9 2-2.8 5-2.8 9.4 0 8.8 4.2 12.6 14.1 12.6 1.4 0 2.8 0 4.2-.2h.7c-1.4-1.6-2.5-3.5-3.1-5.5h-1.7Zm-43.5-.4.1-16.4v-.5c0-1.2-.3-2.4 1.1-3.2v-6H22.5l-3.9 14.2h-.3l-3.9-14.2H0v6c1.4.8 1 2 1 3.2v.5l.1 17.1c0 1.1.4 2.2-.9 3v6h10.6v-6c-1.4-.8-1-2-1-3.2V69.796h.6l5.3 20.1h5.2c.2-.4 5.5-20.1 5.5-20.1h.6v14.2c0 1.2.3 2.3-1 3.2v6h12.1v-6c-1.3-.8-1-1.9-1-3v-.7Zm15.8-4.4 1.3-.5v4l-.1.1c-.8.6-1.8.9-2.8 1-.4.1-.7-.1-1-.3-.4-.4-.6-1-.6-1.5 0-1.7 1.7-2.2 3.2-2.8Zm-11.5-11.6v5.7h8.5v-.8c0-1.8.7-2.8 2.2-2.8.5 0 1 .2 1.3.5.4.5.7 1.2.7 2.2v1.1l-6.4 2c-4.1 1.3-7.2 2.7-7.3 7.6 0 2 .6 3.7 1.7 4.9 1.2 1.3 3.1 2 5.3 2 2.4.1 4.7-.8 6.5-2.4l.5-.4v2.2h9.9v-5.2c-1-.8-1.2-1.8-1.2-2.8v-8.6c0-2.8-.3-4.8-2.6-6.5-2.2-1.6-5.5-1.9-7.9-1.9-4.5.2-8.3 1.2-11.2 3.2Zm82.3 6.3v-.4c0-1 0-2.3.7-3.1.4-.4.9-.6 1.5-.6.5 0 1.1.2 1.4.6.7.7.7 2 .6 3V81.096c0 1 0 2.2-.7 2.9-.4.4-.9.6-1.5.5-.5 0-1-.2-1.4-.5-.7-.7-.7-2-.7-2.9v-.2l.1-7.1Zm-6.8-7.3c-2.3 1.8-2.4 4.7-2.4 7.2v6.5c0 3.3 0 6.2 3 8.1 1.7 1.1 4.4 1.6 8.5 1.6 3 0 6.3-.2 8.5-2.1 2.3-1.9 2.3-5.2 2.3-7.6v-6.5c0-3.2-.2-6-3.1-7.8-1.7-1-4.6-1.4-8.7-1.4-2.8 0-5.8.2-8.1 2Zm41.5-8.7c-1.5 1.3-2.2 3.4-2.2 6.8v1h-6.5v-.6c0-1.1.2-1.7.7-2.2.5-.5 1.4-.7 2.7-.8v-5.1c-1.6-.4-3.2-.6-4.8-.6-2.7-.1-4.5.4-5.7 1.4-1.5 1.3-2.1 3.4-2.2 6.8v1h-1.8v5.3h1.8v10.4c0 1.1 0 2.1-1.1 2.8v5.3h11.6v-5.3c-1.2-.5-1.3-1.7-1.3-2.5v-10.7h6.5v10.5c0 1.1 0 2.1-1.1 2.8v5.3h11.6v-5.3c-1.2-.5-1.3-1.7-1.3-2.5v-10.7h3.4v-5.3h-3.5v-.6c0-1.1.2-1.7.7-2.2.5-.5 1.4-.7 2.7-.8v-5.1c-1.6-.4-3.2-.6-4.8-.6-2.5 0-4.2.5-5.4 1.5Zm21.1 15.8v-1c0-1.9.7-2.8 2.2-2.8.6 0 1.1.2 1.5.6.6.6.6 1.6.6 2.2v1.2h-4.3v-.2Zm1.8-8.9c-4.7 0-7.5.8-9.1 2.5-1.3 1.4-1.8 3.4-1.8 6.7v6.7c0 3.1.2 5.6 2.6 7.4 1.9 1.4 5.7 2.1 9.7 1.8 4.1-.3 7.7-1.4 9.7-3v-5.8h-9v.6c0 1 0 3-2.1 3-.5 0-1.1-.2-1.4-.6-.5-.6-.6-1.5-.6-2.2v-2.9h13.1v-6.2c0-2.6-.5-4.3-1.7-5.5-1.4-1.7-4.5-2.5-9.4-2.5Zm23.2 8.9v-1c0-1.9.7-2.8 2.2-2.8.6 0 1.1.2 1.5.6.6.6.7 1.6.7 2.2v1.2h-4.3l-.1-.2Zm1.9-8.9c-4.7 0-7.5.8-9.1 2.5-1.3 1.4-1.8 3.4-1.8 6.7v6.7c0 3.1.2 5.6 2.6 7.4 1.9 1.4 5.7 2.1 9.7 1.8 4.1-.3 7.7-1.4 9.7-3v-5.8h-9v.6c0 1 0 3-2.1 3-.5 0-1.1-.2-1.4-.6-.5-.6-.6-1.5-.6-2.2v-2.9h13.1v-6.2c0-2.6-.5-4.3-1.7-5.5-1.5-1.7-4.5-2.5-9.4-2.5Zm-121.1 2.4-.3.9-.2.9-.3 1.8-.1.8v.1l-.1.8-.2 3.6c0 2.1.2 4.1.6 6.2 1.8 8.6 7.8 12.3 20.2 12.3 2.1 0 4.2-.1 6.3-.3h.5v-8.6l-.9.5c-1.1.6-2.8.9-5.9.9-7.2 0-8.6-1.9-8.6-11 0-4.8.3-7.5 1.8-9.1 1.2-1.3 3.2-1.8 6.8-1.8l6.5.1v-7.6h-6.5c-10-.1-17 1.6-19.6 9.5Z"/><path fill="url(#c)" d="M106.6 47.395c-4.9-.8-7.9-.9-10-2.4-7.1-5.1 4.4-10.7 14.5-10.4-11.4-2-22.9 1.1-20.9 8.4 1.2 5 7.5 5.4 13.1 6.2 5.6.7 6.8 1.5 6.2 2.6-.5 1.1-3.8 2.2-7.3 3 1.7-.3 3.2-.4 4.8-.9 1.6-.4 3.6-1 4.8-2.4 1.2-1.4 1.2-3.1-5.2-4.1Zm-4.9 4c1.2.6 1.5 1.3-.8 2.5 0 0 5.5-1.4 2.1-2.8-1.9-.7-5.7-1.5-7.5-2.1-1.9-.6-3.6-1.5-5.2-2.7 1.4 1.3 3.1 2.3 5 3 3.2 1.2 5 1.5 6.4 2.1Zm-.4-7.4s-4.7-1.2-4.2-3.2c.3-1.3 4.6-4.8 10.1-4.8 0 0-13.7 3.7-5.9 8Z"/></g><defs><linearGradient id="b" x1="-2.973" x2="215.413" y1="75.411" y2="75.411" gradientUnits="userSpaceOnUse"><stop stop-color="#1C8AE2"/><stop offset=".486" stop-color="#8B00B3"/><stop offset="1" stop-color="#6900B5"/></linearGradient><linearGradient id="c" x1="-2.973" x2="215.413" y1="44.343" y2="44.343" gradientUnits="userSpaceOnUse"><stop stop-color="#1C8AE2"/><stop offset=".486" stop-color="#8B00B3"/><stop offset="1" stop-color="#6900B5"/></linearGradient><clipPath id="a"><path fill="#fff" d="M0 0h217v155H0z"/></clipPath></defs></svg>