<?xml version="1.0" encoding="utf-8"?>
<!-- Generator: Adobe Illustrator 25.2.0, SVG Export Plug-In . SVG Version: 6.00 Build 0)  -->
<svg version="1.1" id="Слой_1" xmlns="http://www.w3.org/2000/svg" xmlns:xlink="http://www.w3.org/1999/xlink" x="0px" y="0px"
	 viewBox="0 0 920.3 259" style="enable-background:new 0 0 920.3 259;" xml:space="preserve">
<style type="text/css">
	.st0{fill:#FFFFFF;}
</style>
<g id="Page-1">
	<g id="SB_RUS_RGB">
		<polygon id="Path" class="st0" points="702.8,82.8 734.5,59.4 628.4,59.4 628.4,199.6 734.5,199.6 734.5,176.2 658.7,176.2 
			658.7,140.4 723.5,140.4 723.5,117 658.7,117 658.7,82.8 		"/>
		<path id="Shape" class="st0" d="M548.2,114h-36.8V82.8h58.8L602,59.4H481.1v140.1h63.2c35.4,0,55.8-16.1,55.8-44
			C600.1,128.7,581.8,114,548.2,114z M543.2,176.2h-31.7v-38.8h31.7c19.3,0,28.3,6.4,28.3,19.5S561.8,176.2,543.2,176.2z"/>
		<path id="Shape_1_" class="st0" d="M820.5,59.4h-57.7v140.1h30.3v-39.7h27.6c36.8,0,59.7-19.3,59.7-50.2S857.5,59.4,820.5,59.4z
			 M819.8,136.5h-26.9V82.8h26.9c19.5,0,30.1,9.6,30.1,26.8S839.3,136.5,819.8,136.5z"/>
		<path id="Path_1_" class="st0" d="M429.2,169.3c-8,4.4-17,6.7-26.2,6.7c-27.3,0-47.1-19.5-47.1-46.3s19.8-46.3,47.1-46.3
			c9.9-0.2,19.5,3,27.6,8.7L452.4,76l0,0l-1.4-1.4c-12.6-11.2-29.6-17-48.9-17c-20.9,0-40,7.1-53.8,20
			c-13.8,13.3-21.6,31.9-21.1,51.2c-0.2,19.5,7.4,38.3,21.1,52.1c14.5,13.5,33.8,21.1,53.5,20.6c21.8,0,40.9-7.6,53.8-21.3
			l-19.5-14.5L429.2,169.3z"/>
		<g id="Group">
			<path id="Path_2_" class="st0" d="M232.3,58.5c5.5,7.1,10.1,14.9,14,23.2l-106.1,78.2l-44.6-28V98.4l44.3,27.8L232.3,58.5z"/>
			<g id="Path_3_" transform="translate(0.000000, 0.155340)">
				<path class="st0" d="M50.4,129.5c0-1.6,0-3,0.2-4.6l-26.9-1.4c0,1.8-0.2,3.9-0.2,5.7c0,32.1,13.1,61.2,34.2,82.3l19.1-19
					C60.5,176.5,50.4,154.2,50.4,129.5z"/>
				<path class="st0" d="M140,40c1.6,0,3,0,4.6,0.2l1.4-26.8c-1.8,0-3.9-0.2-5.7-0.2c-32.2,0-61.3,13.1-82.5,34.2l19.1,19
					C92.9,50.1,115.4,40,140,40z"/>
				<path class="st0" d="M140,218.9c-1.6,0-3,0-4.6-0.2l-1.4,26.8c1.8,0,3.9,0.2,5.7,0.2c32.2,0,61.3-13.1,82.5-34.2l-19.1-19
					C187.1,209.1,164.8,218.9,140,218.9z"/>
			</g>
			<g id="Path_4_">
				<path class="st0" d="M190.5,55.8L213.3,39c-20-16.1-45.5-25.9-73.3-25.9l0,0v26.8C158.8,40.2,176.3,45.9,190.5,55.8z"/>
				<path class="st0" d="M256.7,129.6c0-7.1-0.7-14-1.8-20.9l-25,18.6c0,0.7,0,1.6,0,2.3c0,26.4-11.5,50-29.6,66.3l18.1,20
					C241.7,194.8,256.7,163.8,256.7,129.6z"/>
				<path class="st0" d="M140,219.1c-26.4,0-50.1-11.5-66.4-29.6l-20,18.1c21.4,23.6,52.2,38.3,86.4,38.3V219.1L140,219.1z"/>
				<path class="st0" d="M80,63.3l-18.1-20c-23.7,21.3-38.4,52.1-38.4,86.2h26.9C50.4,103.5,61.9,79.6,80,63.3z"/>
			</g>
		</g>
	</g>
</g>
</svg>
