<svg xmlns="http://www.w3.org/2000/svg" width="203" height="155" fill="none"><path fill="url(#a)" fill-rule="evenodd" d="M108.4 67.1h-13c-.7 0-1.3.6-1.3 1.3 0 .7.5 1.2 1.3 1.2h5.3v10.1c0 .7.6 1.3 1.3 1.3.7 0 1.3-.6 1.3-1.3V69.6h5.1c.7 0 1.3-.5 1.3-1.2s-.6-1.3-1.3-1.3Zm-17.4 0c-.4 0-.6.1-.8.3l-11.4 9.7v-8.7c0-.7-.5-1.3-1.3-1.3-.7 0-1.3.6-1.3 1.3v11.2c0 .7.6 1.3 1.3 1.3.4 0 .7-.2.9-.4l11.3-9.6v8.7c0 .7.6 1.3 1.3 1.3.7 0 1.3-.6 1.3-1.3V68.4c0-.7-.6-1.3-1.3-1.3Zm-31.4 0h10.3c1.8 0 3.2 1.3 3.2 3.2v1c0 .8-.6 1.3-1.3 1.3-.7 0-1.3-.6-1.3-1.3v-.9c0-.4-.3-.8-.6-.8H59.6c-.4 0-.7.4-.7.8v7.4c0 .4.3.7.7.7h10.3c.4 0 .6-.4.6-.7v-.9c0-.7.6-1.3 1.3-1.3.7 0 1.3.6 1.3 1.3v1c0 1.8-1.3 3.1-3.2 3.1H59.6c-2.1 0-3.3-1.5-3.3-3.2v-7.4c.1-1.8 1.6-3.3 3.3-3.3Zm128.1 0c-.7 0-1.3.6-1.3 1.3v11.2c0 .7.6 1.3 1.3 1.3.7 0 1.3-.6 1.3-1.3V68.4c-.1-.7-.6-1.3-1.3-1.3Zm-26.2.3c.3-.2.5-.3.8-.3.7 0 1.3.6 1.3 1.3v11.2c0 .7-.6 1.3-1.3 1.3-.7 0-1.3-.6-1.3-1.3V71l-11.3 9.6c-.2.2-.5.4-.9.4-.7 0-1.3-.6-1.3-1.3V68.5c0-.7.6-1.3 1.3-1.3.8 0 1.3.6 1.3 1.3v8.7l11.4-9.8Zm20.2-.3c-.7 0-1.3.6-1.3 1.3v4.5h-10.8v-4.5c0-.7-.6-1.3-1.3-1.3-.7 0-1.3.6-1.3 1.3v11.2c0 .7.6 1.3 1.3 1.3.7 0 1.3-.6 1.3-1.3v-4.4h10.8v4.4c0 .7.6 1.3 1.3 1.3.7 0 1.3-.6 1.3-1.3V68.4c-.1-.7-.6-1.3-1.3-1.3Zm11.5 7 7.2 4.7c.4.3.6.7.6 1.1 0 .6-.5 1.2-1.2 1.2-.2 0-.5-.1-.7-.2l-8.7-5.6c-.4-.2-.5-.6-.5-1s.2-.8.5-1.1l8.7-5.6c.3-.1.5-.2.8-.2.5 0 1.2.4 1.2 1.2 0 .4-.2.9-.6 1.1l-7.3 4.4Zm-54.4-6.3c-.3-.5-.7-.7-1.2-.7-.4 0-.9.2-1.1.6L129.7 79c-.1.2-.2.4-.2.7 0 .7.6 1.2 1.2 1.2.5 0 .9-.2 1.2-.6l5.8-9.6 5.7 9.6c.2.4.7.6 1.1.6.7 0 1.2-.6 1.2-1.3 0-.2-.1-.5-.2-.7l-6.7-11.1Zm-13.2-.4c.2-.2.4-.3.8-.3.7 0 1.3.6 1.3 1.3v11.2c0 .7-.6 1.3-1.3 1.3-.7 0-1.3-.6-1.3-1.3V71l-11.3 9.6c-.2.2-.5.4-.9.4-.7 0-1.3-.6-1.3-1.3V68.5c0-.7.6-1.3 1.3-1.3.7 0 1.3.6 1.3 1.3v8.7l11.4-9.8Z" clip-rule="evenodd"/><path fill="url(#b)" fill-rule="evenodd" d="M43.7 83.4c.7 0 1.2.5 1.2 1.2V89c0 2.8-1.6 5.4-5.5 5.4H33.8l.1-2.3h5.5c1.8 0 3-1.2 3-3v-4.5c0-.6.6-1.2 1.3-1.2ZM10.4 94.5l7.7 10.1c.5.6 1 1.3 1.7 1.7.8.5 1.6.5 2.5.5H28c.7 0 1.3-.1 1.9-.4.8-.4 1.2-1.1 1.5-1.9.4-1.2.9-2.4 1.3-3.6.3-.9.6-1.7.7-2.6.2-1 .3-2.1.3-3.1V88c0-.8-.3-1.6-.9-2.1-.6-.6-1.3-.9-2.1-.9-.4 0-.8.1-1.1.2l-.2.1-.1-.2-.6-.9c-.6-.6-1.3-.9-2.1-.9-.5 0-.9.1-1.3.3l-.2.1-.1-.2c-.1-.2-.2-.3-.4-.5-.6-.6-1.3-.9-2.1-.9-.3 0-.6.1-.9.1l-.3.1v-6.1c0-1.6-1.3-3-3-3-1.6 0-3 1.3-3 3v13.2l-1.4-1.3c-.9-.8-2.2-1.4-3.5-1-1.3.4-2.2 1.5-2.3 2.8-.1.8.2 1.6.6 2.2H5.6c-1.8 0-3-1.2-3-3V70.3c0-1.9 1.2-3 3-3h33.8c1.8 0 3 1.2 3 3v4.5c0 .7.5 1.2 1.2 1.2s1.2-.5 1.2-1.2v-4.4c0-2.8-1.6-5.4-5.5-5.4H5.4C1.6 65 0 67.6 0 70.4V89c0 2.8 1.6 5.4 5.4 5.4h5v.1Zm21.3 3.4c-.1.8-.4 1.6-.6 2.3l-1.3 3.5c-.2.4-.3.8-.7 1.1-.3.2-.7.2-1 .2h-5.7c-.5 0-1.1 0-1.6-.3-.4-.3-.8-.8-1.1-1.2 0 0 0-.1-.1-.1l-9.1-11.9c-.4-.5-.6-.8-.6-1.4 0-.4.2-.7.4-1 .7-.7 1.7-.3 2.3.3l2.8 2.6c.2.2.4.3.7.3.5 0 .9-.4.9-.9V76.2c0-1.5 2.4-1.6 2.4 0v11.6c0 .5.4.9.9.9s.9-.4.9-.9V85c0-.3.1-.6.4-.8.2-.2.5-.3.8-.3.3 0 .6.1.8.4.2.2.4.5.4.8v2.7c0 .5.4.9.9.9s.9-.4.9-.9v-1.7c0-.3.1-.5.3-.7.2-.2.5-.3.8-.3.3 0 .6.1.8.3.2.2.3.5.3.8v2.4c0 .5.4.9.9.9s.9-.4.9-.9v-.8c0-.3.1-.6.3-.8.2-.2.5-.4.8-.4.3 0 .6.1.8.4.2.2.4.5.4.8V95c.2 1 .1 2 0 2.9Z" clip-rule="evenodd"/><path fill="url(#c)" fill-rule="evenodd" d="M58.3 90.9h2.1c0 1.2-.7 1.8-1.5 1.8-.7 0-1.1-.4-1.3-.9h-.7c.2.9.9 1.6 2 1.6 1.3 0 2.2-.9 2.2-2.5v-.5c0-1.5-.9-2.4-2.2-2.4-1.2 0-1.8.7-2 1.5h.7c.2-.5.6-.8 1.3-.8.9 0 1.5.6 1.5 1.7h-2.1v.5Zm4.7 2.4h.2c1 0 1.6-.6 1.6-2.8v-1.9H67v4.6h.7V88h-3.5v2.5c0 1.7-.4 2.1-.9 2.1h-.2v.7H63Zm9.4 0c1.3 0 2-.7 2.2-1.6h-.7c-.2.5-.6.9-1.5.9s-1.5-.6-1.5-1.8h3.8v-.4c0-1.6-.9-2.5-2.2-2.5-1.4 0-2.2.9-2.2 2.5v.5c-.1 1.5.8 2.4 2.1 2.4Zm0-4.7c.9 0 1.5.5 1.5 1.6h-3.1c.1-1 .7-1.6 1.6-1.6Zm8.2 4.6h.9l-1.9-2.7 1.7-2.5h-.9l-1.5 2.2H78V88h-.7v5.2h.7v-2.4h.9l1.7 2.4Zm2.5-4.6h1.7v4.6h.7v-4.6h1.7V88H83v.6h.1Zm8.8 4.7c1.2 0 2-.9 2-2.5v-.5c0-1.6-.8-2.5-2-2.5-.8 0-1.4.3-1.7.9l-.1-.9h-.5v7.3h.7v-2.8c.3.7.9 1 1.6 1Zm-.1-.7c-.9 0-1.5-.6-1.5-1.8v-.5c0-1.1.7-1.7 1.5-1.7.9 0 1.5.6 1.5 1.8v.5c-.1 1.2-.6 1.7-1.5 1.7Zm6.7.7c1.4 0 2.301-.9 2.301-2.5v-.5c0-1.5-.9-2.5-2.3-2.5s-2.3.9-2.3 2.5v.5c0 1.6 1 2.5 2.3 2.5Zm0-.7c-.9 0-1.6-.7-1.6-1.8v-.5c0-1.2.6-1.8 1.6-1.8.9 0 1.601.7 1.601 1.8v.5c0 1.2-.6 1.8-1.6 1.8Zm8.5.6h.7V88h-.7v2.2h-2.899V88h-.701v5.2h.701v-2.3H107v2.3Zm7.2 0h.7V88h-.7v2.2h-2.899V88h-.7v5.2h.7v-2.3h2.899v2.3Zm3.601 0h1.8c1.4 0 2.099-.7 2.099-1.7s-.599-1.7-2.099-1.7H118.4V88h-.7v5.2h.101Zm1.899-2.7c1 0 1.401.4 1.401 1 0 .7-.401 1-1.401 1h-1.2v-2.1h1.2v.1Zm3.101 2.7h.699V88h-.699v5.2Zm7.199 0h.7V88h-.899l-2.101 3.3-.599 1.1V88h-.701v5.2h.901l2.099-3.3.6-1.1v4.4Zm-1.5-5.9c.9 0 1.4-.5 1.4-1.4h-.599c0 .6-.301.9-.801.9s-.699-.3-.699-.9h-.7c0 .9.599 1.4 1.399 1.4Zm12.801 7.3H142v-2h-.699V88h-3.5v1.6c0 1.7-.101 2.3-.601 3h-.599v2h.7v-1.4h4v1.4Zm-2.901-5v-.9h2.1v4h-2.6c.4-.8.5-1.4.5-3.1Zm9.401 3.6h.699V88h-.899l-2.101 3.3-.6 1.1V88h-.7v5.2h.901l2.099-3.3.601-1.1v4.4Zm5.5.1c1.2 0 1.8-.7 2-1.6h-.7c-.2.6-.6.9-1.3.9-.9 0-1.5-.7-1.5-1.8v-.5c0-1.2.6-1.8 1.5-1.8.7 0 1.1.4 1.3.8h.7c-.2-.8-.9-1.5-2-1.5-1.3 0-2.2.9-2.2 2.5v.5c0 1.6.9 2.5 2.2 2.5Zm7.8-.1H162l-1.899-2.7 1.7-2.5h-.901l-1.5 2.2h-.9V88h-.699v5.2h.699v-2.4h.9l1.701 2.4Zm4.299.1c.8 0 1.4-.4 1.8-1.1l.101 1h.5v-3.5c0-1.1-.601-1.7-1.901-1.7s-1.9.6-1.9 1.5h.7c.1-.5.4-.8 1.2-.8.8 0 1.201.3 1.201 1.1v.5H165.9c-1.6 0-2.2.6-2.2 1.6.1.8.7 1.4 1.7 1.4Zm.1-.7c-.6 0-1-.3-1-.9 0-.6.4-1 1.5-1h1.2v.2c0 1-.7 1.7-1.7 1.7Zm5.801 2.7H172l2.801-7.3h-.7l-1.601 4.4-1.8-4.4h-.8l2.201 5.2-.8 2.1Zm9.399-2.1h.7V88h-.7v2.2h-2.899V88h-.7v5.2h.7v-2.3h2.899v2.3Zm3-4.6h1.7v4.6h.701v-4.6h1.7V88h-4.2v.6h.099Zm8.2 4.7c1.3 0 2.001-.7 2.201-1.6h-.701c-.2.5-.6.9-1.5.9s-1.5-.6-1.5-1.8h3.8v-.4c0-1.6-.9-2.5-2.2-2.5-1.4 0-2.199.9-2.199 2.5v.5c-.2 1.5.699 2.4 2.099 2.4Zm0-4.7c.9 0 1.5.5 1.5 1.6h-3.099c.1-1 .699-1.6 1.599-1.6Zm7.201 4.7c1.2 0 2-.9 2-2.5v-.5c0-1.6-.8-2.5-2-2.5-.8 0-1.401.3-1.701.9l-.099-.9h-.5v7.3h.699v-2.8c.3.7.801 1 1.601 1Zm-.201-.7c-.9 0-1.5-.6-1.5-1.8v-.5c0-1.1.7-1.7 1.5-1.7.9 0 1.5.6 1.5 1.8v.5c0 1.2-.6 1.7-1.5 1.7Z" clip-rule="evenodd"/><defs><linearGradient id="a" x1="56.388" x2="200.988" y1="74.057" y2="74.057" gradientUnits="userSpaceOnUse"><stop stop-color="#1C8AE2"/><stop offset=".486" stop-color="#8B00B3"/><stop offset="1" stop-color="#6900B5"/></linearGradient><linearGradient id="b" x1=".142" x2="44.899" y1="85.919" y2="85.919" gradientUnits="userSpaceOnUse"><stop stop-color="#1C8AE2"/><stop offset=".486" stop-color="#8B00B3"/><stop offset="1" stop-color="#6900B5"/></linearGradient><linearGradient id="c" x1="56.878" x2="201.112" y1="90.613" y2="90.613" gradientUnits="userSpaceOnUse"><stop stop-color="#1C8AE2"/><stop offset=".486" stop-color="#8B00B3"/><stop offset="1" stop-color="#6900B5"/></linearGradient></defs></svg>