<svg width="201" height="155" fill="none" xmlns="http://www.w3.org/2000/svg"><path d="M30.6 67.8c6.3 0 11.4 5.1 11.4 11.4v21.1c0 1-.8 1.9-1.9 1.9-1 0-1.9-.8-1.9-1.9V79.2c-.2-4.2-3.8-7.5-8-7.3-4 .2-7.2 3.4-7.3 7.3v21.1c0 1-.8 1.9-1.9 1.9-1 0-1.9-.8-1.9-1.9V79.2c-.2-4.2-3.8-7.5-8-7.3-4 .2-7.2 3.4-7.3 7.3v21.1c0 1-.8 1.9-1.9 1.9-1 0-1.9-.8-1.9-1.9V79.2c0-6.3 5.1-11.4 11.4-11.4 3.9 0 7.4 1.9 9.5 5.2 2.3-3.2 5.9-5.2 9.7-5.2Zm155.7 0h-5.2c-6.3 0-11.4 5.1-11.4 11.3v21.1c0 1 .8 1.9 1.9 1.9 1.1 0 1.9-.8 1.9-1.9V79.1c0-4.2 3.4-7.7 7.7-7.7h5.2c1 0 1.9-.8 1.9-1.9-.1-.9-1-1.7-2-1.7ZM75.7 70.9c-7.8-5.4-18.5-3.4-23.8 4.5-5.4 7.8-3.4 18.5 4.5 23.8 7.8 5.4 18.5 3.4 23.8-4.5.6-.8.4-2-.5-2.6-.9-.6-2-.4-2.6.5-4.2 6.1-12.6 7.7-18.7 3.5s-7.7-12.6-3.5-18.7 12.6-7.7 18.7-3.5c2.8 1.9 4.8 4.9 5.6 8.2H58.1c-1 .1-1.8 1-1.7 2 .1.9.8 1.6 1.7 1.7h23.3c.5 0 1-.2 1.4-.6.4-.4.5-.9.5-1.4-.6-5.1-3.3-9.9-7.6-12.9ZM121.5 52c-1 0-1.9.8-1.9 1.9v31.2c0 7.4-6 13.4-13.4 13.4s-13.4-6-13.4-13.4 6-13.4 13.4-13.4c2.6 0 5.1.7 7.3 2.1.8.7 1.9.6 2.6-.2.7-.8.6-1.9-.2-2.6-.1-.1-.3-.2-.4-.3-8-5.1-18.6-2.8-23.7 5.1-5.1 8-2.8 18.6 5.1 23.7 7.9 5.1 18.6 2.8 23.7-5.1 1.8-2.8 2.7-6 2.7-9.3V53.9c0-1-.8-1.9-1.8-1.9ZM147 67.9c9.5 0 17.2 7.7 17.2 17.1 0 9.4-7.7 17.2-17.1 17.2-9.5 0-17.2-7.7-17.2-17.1-.1-9.5 7.6-17.1 17.1-17.2Zm0 30.6c7.4 0 13.5-6 13.5-13.4s-6-13.5-13.4-13.5-13.5 6-13.5 13.4c-.1 7.5 5.9 13.5 13.4 13.5Zm46.9-35.9v-2.1h1.1c.1 0 .2.1.3.1l.3.3c.1.2.3.4.5.7l.6 1h.8l-.8-1.3c-.1-.2-.3-.5-.5-.6-.1-.1-.2-.2-.4-.2.4 0 .8-.2 1-.4.2-.2.3-.6.3-.9 0-.3-.1-.5-.2-.7-.1-.2-.3-.4-.5-.5-.3-.1-.7-.1-1-.1h-2.2v4.9l.7-.2Zm0-4.3h1.5c.3 0 .6.1.8.2.2.1.3.3.2.6 0 .2 0 .3-.1.4-.1.1-.2.3-.4.3-.2.1-.5.1-.7.1h-1.4l.1-1.6Zm1.3 6.4c2.5 0 4.4-2 4.4-4.4 0-2.5-2-4.4-4.4-4.4-2.5 0-4.4 2-4.4 4.4-.1 2.4 1.9 4.4 4.4 4.4Zm0-8.3c2.2 0 3.9 1.7 4 3.9 0 2.2-1.7 3.9-3.9 4-2.2 0-3.9-1.7-4-3.9 0-2.2 1.7-4 3.9-4 0-.1 0-.1 0 0Z" fill="url(#a)"/><defs><linearGradient id="a" x1=".149" y1="77.154" x2="199.622" y2="77.154" gradientUnits="userSpaceOnUse"><stop stop-color="#1C8AE2"/><stop offset=".486" stop-color="#8B00B3"/><stop offset="1" stop-color="#6900B5"/></linearGradient></defs></svg>