<?xml version="1.0" encoding="utf-8"?>
<!-- Generator: Adobe Illustrator 22.0.0, SVG Export Plug-In . SVG Version: 6.00 Build 0)  -->
<svg version="1.1" id="Layer_1" xmlns="http://www.w3.org/2000/svg" xmlns:xlink="http://www.w3.org/1999/xlink" x="0px" y="0px"
	 viewBox="0 0 100 25" style="enable-background:new 0 0 100 25;" xml:space="preserve">
<style type="text/css">
	.st0{fill-rule:evenodd;clip-rule:evenodd;fill:#A6AAAA;}
	.st1{fill-rule:evenodd;clip-rule:evenodd;fill:#F3792E;}
	.st2{fill-rule:evenodd;clip-rule:evenodd;fill:#F06022;}
	.st3{fill-rule:evenodd;clip-rule:evenodd;fill:#D95122;}
	.st4{fill-rule:evenodd;clip-rule:evenodd;fill:#F89A2C;}
	.st5{fill-rule:evenodd;clip-rule:evenodd;fill:#FFFFFF;}
	.st6{fill:#FFFFFF;}
	.st7{fill-rule:evenodd;clip-rule:evenodd;fill:#B4008D;}
	.st8{fill-rule:evenodd;clip-rule:evenodd;fill:#9DBC0A;}
	.st9{fill:none;stroke:#9DBC0A;stroke-width:0.1962;stroke-miterlimit:10;}
	.st10{fill-rule:evenodd;clip-rule:evenodd;fill:#DF3F17;}
	.st11{fill:none;stroke:#DF3F17;stroke-width:0.1962;stroke-miterlimit:10;}
	.st12{fill-rule:evenodd;clip-rule:evenodd;fill:#F5B208;}
	.st13{fill:none;stroke:#F5B208;stroke-width:0.1962;stroke-miterlimit:10;}
	.st14{fill:#9DBC0A;}
	.st15{fill:none;stroke:#9DBC0A;stroke-width:0.2023;stroke-miterlimit:10;}
	.st16{fill:none;stroke:#DF3F17;stroke-width:0.2023;stroke-miterlimit:10;}
	.st17{fill:none;stroke:#F5B208;stroke-width:0.2023;stroke-miterlimit:10;}
	.st18{fill-rule:evenodd;clip-rule:evenodd;fill:#85754E;}
	.st19{fill:#85754E;}
	.st20{fill-rule:evenodd;clip-rule:evenodd;fill:#1A171B;}
	.st21{fill:#016268;}
	.st22{fill:#00A9C2;}
	.st23{fill:#21427B;}
	.st24{fill:#FAE101;}
	.st25{fill-rule:evenodd;clip-rule:evenodd;fill:#32327F;}
	.st26{fill-rule:evenodd;clip-rule:evenodd;fill:#FCB813;}
	.st27{fill:#F79420;}
	.st28{fill:#FCB831;}
	.st29{fill:#FDDD2E;}
	.st30{fill:#C6C7C8;}
	.st31{fill:#F3C700;}
	.st32{fill:#DB6216;}
	.st33{fill:#EAA600;}
	.st34{fill:#E32427;}
	.st35{fill:#FFFFFF;stroke:#FFFFFF;stroke-width:0.1124;stroke-miterlimit:10;}
	.st36{fill:url(#SVGID_1_);}
	.st37{fill-rule:evenodd;clip-rule:evenodd;fill:#C1272D;}
	.st38{fill-rule:evenodd;clip-rule:evenodd;fill:url(#SVGID_2_);}
	.st39{fill-rule:evenodd;clip-rule:evenodd;fill:url(#SVGID_3_);}
	.st40{fill-rule:evenodd;clip-rule:evenodd;fill:url(#SVGID_4_);}
	.st41{fill-rule:evenodd;clip-rule:evenodd;fill:url(#SVGID_5_);}
	.st42{fill-rule:evenodd;clip-rule:evenodd;fill:url(#SVGID_6_);}
	.st43{fill-rule:evenodd;clip-rule:evenodd;fill:url(#SVGID_7_);}
	.st44{fill-rule:evenodd;clip-rule:evenodd;fill:url(#SVGID_8_);}
	.st45{fill:#006937;}
	.st46{fill:#929990;}
	.st47{fill:#FFFFFF;stroke:#FFFFFF;stroke-width:0.1949;stroke-miterlimit:10;}
	.st48{fill:#86D2BF;}
	.st49{fill:#EC1848;}
	.st50{fill:#29A151;}
	.st51{fill:#C1272D;}
	.st52{fill:#29ABE2;}
	.st53{fill:#F7BE3E;}
	.st54{fill:url(#SVGID_9_);}
	.st55{fill-rule:evenodd;clip-rule:evenodd;fill:none;}
	.st56{clip-path:url(#SVGID_11_);fill-rule:evenodd;clip-rule:evenodd;}
	.st57{fill:#EFAF1F;}
	.st58{fill:#EFB022;}
	.st59{fill:#0E0A08;}
	.st60{fill:#DA2A28;}
	.st61{fill:#F6F6F5;}
	.st62{fill:#C7B086;}
	.st63{fill:#F1F0EE;}
	.st64{fill-rule:evenodd;clip-rule:evenodd;fill:url(#SVGID_12_);}
	.st65{fill-rule:evenodd;clip-rule:evenodd;fill:#FAF9F9;}
	.st66{fill-rule:evenodd;clip-rule:evenodd;fill:#F8B132;}
	.st67{fill-rule:evenodd;clip-rule:evenodd;fill:#1A70B7;}
	.st68{fill-rule:evenodd;clip-rule:evenodd;fill:#36A834;}
	.st69{fill-rule:evenodd;clip-rule:evenodd;fill:#E2000F;}
	.st70{fill-rule:evenodd;clip-rule:evenodd;fill:#1A1A18;}
	.st71{fill:url(#SVGID_13_);}
	.st72{fill:url(#SVGID_14_);}
	.st73{fill:url(#SVGID_15_);}
	.st74{fill:url(#SVGID_16_);}
	.st75{fill:url(#SVGID_17_);}
	.st76{fill:url(#SVGID_18_);}
	.st77{fill:url(#SVGID_19_);}
	.st78{fill:#00A85D;}
	.st79{fill:#FFFFFF;stroke:#FFFFFF;stroke-width:0.1;stroke-miterlimit:10;}
	.st80{fill:#9FD8F5;}
	.st81{fill:#274888;}
	.st82{fill:#267DBF;}
	.st83{fill:#2F91CF;}
	.st84{fill:#2955A0;}
	.st85{fill:#236EB3;}
	.st86{fill:#CFEBFA;}
	.st87{fill:#42B7E9;}
	.st88{fill:#3FAAE0;}
	.st89{fill:#FFAF10;}
	.st90{fill:#151416;}
	.st91{fill:#E57641;}
	.st92{fill:none;}
	.st93{fill:#1C191B;}
	.st94{fill:#19181A;}
	.st95{fill:#DD7340;}
	.st96{fill:#181617;}
	.st97{fill:#EA7944;}
	.st98{fill:#0C0E13;}
	.st99{fill:#181719;}
	.st100{fill:#F2F1F2;}
	.st101{fill:#F6F5F5;}
	.st102{fill:#BA673F;}
	.st103{fill:#4E362A;}
	.st104{fill:#6A6567;}
	.st105{fill:none;stroke:#EA7944;stroke-width:0.3013;stroke-linecap:round;stroke-miterlimit:10;}
	.st106{fill:none;stroke:#FF00FF;stroke-width:0.25;stroke-miterlimit:10;}
	.st107{fill:#002169;}
	.st108{fill:#FC9E22;}
</style>
<path class="st48" d="M87.68,4.327V1.426c0-0.219,0.196-0.384,0.412-0.351C94.214,2.021,99.05,6.858,99.996,12.98
	c0.033,0.216-0.132,0.412-0.351,0.412h-2.902c-0.168,0-0.315-0.117-0.347-0.282c-0.832-4.253-4.181-7.603-8.434-8.435
	C87.797,4.642,87.68,4.495,87.68,4.327z"/>
<ellipse transform="matrix(0.9871 -0.1602 0.1602 0.9871 -1.3217 13.9551)" class="st48" cx="85.896" cy="15.175" rx="1.783" ry="1.783"/>
<path class="st48" d="M87.898,10.213c1.345,0.543,2.418,1.616,2.961,2.961c0.054,0.133,0.184,0.218,0.327,0.218h3.003
	c0.231,0,0.402-0.218,0.345-0.441c-0.806-3.137-3.276-5.605-6.413-6.411c-0.224-0.057-0.441,0.114-0.441,0.345v3.002
	C87.68,10.029,87.765,10.159,87.898,10.213z"/>
<path class="st6" d="M91.237,15.511c-0.178,2.867-2.612,5.122-5.549,5.011c-2.773-0.105-5.033-2.365-5.138-5.138
	c-0.112-2.936,2.144-5.371,5.011-5.549c0.188-0.012,0.336-0.165,0.336-0.354V6.258V1.262c0-0.196-0.159-0.355-0.355-0.355h-2.858
	c-0.196,0-0.355,0.159-0.355,0.355v5.511c0,0.139-0.082,0.264-0.208,0.323c-3.059,1.432-5.172,4.547-5.142,8.154
	c0.039,4.785,3.918,8.727,8.701,8.84c4.899,0.116,8.929-3.72,9.126-8.545c0.008-0.202-0.153-0.37-0.355-0.37H91.59
	C91.402,15.175,91.248,15.323,91.237,15.511z"/>
<g>
	<g>
		<path class="st6" d="M0,23.164V6.632c0-0.398,0.084-0.654,0.251-0.767c0.167-0.113,0.391-0.17,0.672-0.17h2.965
			c0.173,0,0.319,0.062,0.437,0.185c0.119,0.124,0.178,0.272,0.178,0.444c0,0.215,0.07,0.328,0.209,0.339
			c0.043,0,0.15-0.059,0.321-0.178c0.482-0.398,0.953-0.672,1.414-0.823C6.91,5.512,7.402,5.436,7.928,5.436
			c0.614,0,1.189,0.119,1.728,0.355c0.377,0.172,0.796,0.463,1.259,0.872c0.248,0.194,0.425,0.291,0.533,0.291
			c0.086,0,0.28-0.097,0.581-0.291c0.635-0.484,1.219-0.81,1.752-0.977c0.533-0.167,1.144-0.25,1.832-0.25
			c1.173,0,2.131,0.35,2.874,1.049c0.904,0.861,1.356,2.153,1.356,3.875v12.803c0,0.398-0.084,0.651-0.25,0.759
			c-0.167,0.108-0.396,0.161-0.686,0.161h-2.631c-0.291,0-0.52-0.054-0.686-0.161c-0.167-0.107-0.25-0.36-0.25-0.759V11.313
			c0-0.441-0.138-0.81-0.412-1.106c-0.274-0.296-0.654-0.444-1.138-0.444c-0.711,0-1.184,0.312-1.421,0.936
			c-0.129,0.355-0.194,0.861-0.194,1.518v10.947c0,0.398-0.083,0.651-0.25,0.759c-0.167,0.108-0.396,0.161-0.686,0.161H8.59
			c-0.398,0-0.651-0.083-0.759-0.25c-0.107-0.167-0.161-0.39-0.161-0.67V11.313c0-0.441-0.136-0.81-0.409-1.106
			C6.987,9.912,6.609,9.763,6.127,9.763c-0.707,0-1.178,0.312-1.414,0.936c-0.129,0.355-0.198,0.861-0.209,1.518v10.947
			c0,0.398-0.081,0.651-0.243,0.759c-0.162,0.108-0.389,0.161-0.68,0.161H0.924c-0.399,0-0.654-0.081-0.761-0.242
			C0.054,23.681,0,23.455,0,23.164z"/>
	</g>
	<g>
		<path class="st6" d="M22.798,13.669v-2.84c0-0.385,0.083-0.632,0.25-0.741c0.167-0.109,0.395-0.164,0.686-0.164h2.939
			c0.291,0,0.517,0.055,0.678,0.164c0.161,0.109,0.242,0.356,0.242,0.741v2.84c0,0.281-0.054,0.499-0.161,0.655
			c-0.108,0.156-0.361,0.234-0.759,0.234h-2.939c-0.291,0-0.519-0.052-0.686-0.156C22.881,14.299,22.798,14.054,22.798,13.669z"/>
		<path class="st6" d="M22.798,23.195V20.34c0-0.385,0.083-0.629,0.25-0.733c0.167-0.104,0.395-0.156,0.686-0.156h2.939
			c0.398,0,0.651,0.081,0.759,0.242c0.107,0.161,0.161,0.377,0.161,0.647v2.855c0,0.385-0.081,0.63-0.242,0.733
			c-0.161,0.104-0.388,0.156-0.678,0.156h-2.939c-0.398,0-0.654-0.078-0.767-0.234C22.854,23.695,22.798,23.476,22.798,23.195z"/>
	</g>
	<g>
		<path class="st6" d="M30.886,22.922V2.094c0-0.398,0.048-0.662,0.145-0.791c0.171-0.248,0.509-0.371,1.014-0.371h2.575
			c0.504,0,0.823,0.094,0.957,0.282c0.134,0.188,0.201,0.482,0.201,0.88v6.281l4.65-6.668c0.355-0.506,0.807-0.764,1.356-0.775
			h3.681c0.42,0,0.624,0.199,0.614,0.597c0,0.151-0.022,0.272-0.064,0.363c-0.043,0.092-0.118,0.202-0.226,0.331l-5.231,7.12
			l6.329,12.949c0.215,0.42,0.323,0.775,0.323,1.066c0,0.484-0.264,0.726-0.791,0.726h-3.407c-0.312,0-0.568-0.105-0.767-0.315
			c-0.199-0.21-0.374-0.493-0.525-0.847l-4.489-9.187l-1.453,1.986v7.201c0,0.506-0.094,0.826-0.282,0.96
			c-0.188,0.135-0.48,0.202-0.877,0.202h-2.575c-0.504,0-0.823-0.094-0.957-0.282C30.953,23.614,30.886,23.321,30.886,22.922z"/>
	</g>
	<g>
		<path class="st6" d="M48.872,22.922V2.094c0-0.398,0.043-0.662,0.129-0.791c0.172-0.248,0.516-0.371,1.033-0.371h10.833
			c0.506,0,0.826,0.094,0.961,0.281c0.135,0.188,0.202,0.48,0.202,0.877v2.332c0,0.247-0.083,0.442-0.25,0.587
			c-0.167,0.145-0.422,0.217-0.767,0.217h-6.652c-0.398,0-0.597,0.174-0.597,0.52v3.496c0,0.401,0.124,0.602,0.371,0.602h5.215
			c0.215,0,0.396,0.056,0.541,0.169c0.145,0.113,0.218,0.266,0.218,0.458v3.008c0,0.44-0.221,0.659-0.662,0.659h-5.247
			c-0.291,0-0.436,0.183-0.436,0.549v4.699c0,0.269,0.124,0.403,0.371,0.403h7.427c0.377,0,0.622,0.07,0.735,0.21
			s0.17,0.344,0.17,0.614v2.309c0,0.398-0.049,0.662-0.145,0.791c-0.173,0.248-0.511,0.371-1.017,0.371h-11.27
			c-0.398,0-0.668-0.043-0.807-0.129C48.991,23.773,48.872,23.428,48.872,22.922z"/>
	</g>
	<g>
		<path class="st6" d="M63.775,1.4c0-0.194,0.072-0.32,0.218-0.38c0.145-0.059,0.315-0.089,0.508-0.089h3.843
			c0.291,0,0.511,0.081,0.662,0.242c0.086,0.086,0.172,0.226,0.258,0.42l2.616,6.684c0,0.043,0.054,0.129,0.161,0.258
			c0.086-0.086,0.14-0.161,0.161-0.226l2.987-6.652c0.129-0.269,0.266-0.458,0.412-0.565c0.145-0.108,0.304-0.161,0.476-0.161h3.875
			c0.506,0,0.759,0.188,0.759,0.565c0,0.129-0.022,0.239-0.065,0.331c-0.043,0.092-0.064,0.148-0.064,0.17l-5.699,11.043
			c-0.086,0.172-0.183,0.374-0.291,0.605c-0.108,0.232-0.161,0.503-0.161,0.815v8.46c0,0.506-0.095,0.826-0.283,0.96
			c-0.188,0.135-0.482,0.202-0.88,0.202h-2.583c-0.398,0-0.662-0.043-0.791-0.129c-0.248-0.172-0.366-0.517-0.355-1.033v-8.46
			c0-0.312-0.014-0.522-0.04-0.63c-0.027-0.107-0.137-0.371-0.331-0.791L63.936,1.998C63.829,1.729,63.775,1.529,63.775,1.4z"/>
	</g>
</g>
</svg>
