<?xml version="1.0" encoding="utf-8"?>
<!-- Generator: Adobe Illustrator 24.0.0, SVG Export Plug-In . SVG Version: 6.00 Build 0)  -->
<svg version="1.1" id="Слой_1" xmlns="http://www.w3.org/2000/svg" xmlns:xlink="http://www.w3.org/1999/xlink" x="0px" y="0px"
	 viewBox="0 0 333.3 104.4" style="enable-background:new 0 0 333.3 104.4;" xml:space="preserve">
<style type="text/css">
	.st0{fill:#EC8E63;}
</style>
<g>
	<g>
		<path class="st0" d="M23.7,23.7c-2.1,1.5-3.3,1-3.3,4.5c1.2,0.3,0.9-0.1,1.3,1.7c-0.4,0.3-0.5,0.3-1.1,0.8c-1,0.7,0,0-0.7,0.6
			c-2.1-1.1-4.7-3.9-4.7-6.6c0-7.9,25.8-15.8,31-17.2C52.6,5.6,58.9,4.4,65.7,3c1.6-0.3,3.3-0.7,5-1c2.2-0.6,7.8-0.9,10,0.5
			c1.5,1,1.9,1.7,2,3.6c-0.9,0.2-1.3,0.6-2.3,0.8c-1,0.1-1.6,0.1-2.6,0.3c-9.3,1.7-22.7,5.1-31.9,7.3c0.7,2.8,0.8,0.5-0.3,3.6
			L34.4,45.8c2.4,0,11-3.1,13.3-0.1c0.9,1.1,0.5,1.5,0.3,2.7c-5.6,0-8.6,2-13.1,3.6c-3.1,1-2.5,0-3.6,1.6l-10,23.5
			c-2.7,6.4-4.8,12.9-7,18.3l-2.8,5.1c-0.7-0.3-0.7-0.2-1.2-0.5c-0.1-0.1-0.2-0.1-0.3-0.1l-0.9-0.5C7,98.2,6.4,97.6,8.9,92l4-10.8
			c0.5-1.1,0.8-1.8,1.1-2.8l9.8-23.3l-7.6,2.6c-1.2,0-6-3.5,2-6.4c2.3-0.8,3.7-1.5,6.1-2c1.9-0.5,2.4-0.5,3.2-1.9L39,19.3
			c1.2-3.3,2-2.2,1-2.9C38.5,17.3,29.5,19.8,23.7,23.7z"/>
		<path class="st0" d="M45.5,69.2c2.3-5.9,5.3-13.7,8.7-18.7c0-0.1,1-1.5,1-1.6c1.9-2.2,3.3-0.6,3.3-0.6c3.3,1.7,2.1,2.7,0.8,6.1
			c-0.4,1.1-0.9,2-1.4,3.3c-1.6,3.4-8.4,18.7-8.6,21.4c3.4-2.4,14.3-18.4,14.8-20.8c1.7,0.1,2,0.2,2.7,1l0.7,0.8
			c-0.5,2.3-2.9,5-4,6.9c-0.7,1.2-1.1,2-1.7,3.3c-0.5,0.9-0.5,0.9-1.1,1.6l-1.1,1.5c-1.5,2.2-2.8,4.4-4.5,6.5
			c-8.5,10.5-11.8-0.9-11.8-1.7C43.3,75.3,44.7,71.5,45.5,69.2z M58.1,37.3c2.8,0,7.2,2.2,7.2,4.4c0,1.9-0.2,1.5-1.2,3.5
			c-3.9,0-6.9-2.3-6.9-5.8C57.2,38.1,57.6,39.1,58.1,37.3z"/>
		<path class="st0" d="M70.3,35.1c-4.6,2.2-2.4,4.1-4.7,4.1c0,0-6.2-3.5,3.4-8.4c10.8-5.4,7.5,0.7,12.1-7.3c1.6-2.7,3.3-6,5.8-7.7
			c2,0.5,5.1,1.2,4.4,4.1c-0.2,0.7-1.2,2.3-1.5,2.8l-1.4,2.5c0,0-0.2,0.2-0.2,0.3l0.4,0.3c0.1,0,0.2-0.1,0.3-0.1s0.2-0.1,0.3-0.1
			l6.3-0.9c1.2-0.1,11.9-2.2,11.1,2c-0.2,1.4-0.4,0.8-2,0.9l-13.2,1.7c-1.2,0.2-4,0.6-5,1c-1.9,0.8-4.9,9.5-6,11.8l-3.8,8.3
			c-1.2,2.6-2.5,5.8-3.5,8.7c-0.5,1.8-0.9,2.9-1.5,4.5c-1.4,3.2-3.4,10.9-3.4,14.5c0,2.8-0.5,7,6,1c3.7-3.4,5.9-8.1,8.5-12.3
			c1.5-2.4,2.4-4.3,3.7-6.8l2.5,0.5c0.8,3.6,0.5,1.5-1.4,5.6l-3.7,7.3c-3.4,6.2-12.9,19.5-19.2,9c-0.7-1.2-1.1-2-1.4-3.4
			c-2.1-8.8,3.4-25.1,6.6-32l4.3-9.8c0.5-0.9,0.8-1.1,1.2-2.3c1.3-2.8,1.9-1.8,0.9-2.6L70.3,35.1z"/>
		<path class="st0" d="M136.8,23.5c0-3.3,1.3-6.7,3.9-10.3c2.8-3.8,5.7-5.7,8.8-5.7c3.6,0,6.4,1.3,8.4,3.9c1.9,2.4,2.9,5.5,2.9,9.3
			c0,6.6-3.8,12.9-11.3,18.8c2.4,5.5,6.1,12.5,11.2,20.8c0.6-1.8,1.1-3.7,1.4-5.6c0.5-3.3,0.9-5.4,1.1-6.2c0.8-2.7,2.1-4,3.8-4
			c1.3,0,2.4,0.7,3.1,2.2c0.6,1.2,0.9,2.6,0.9,4.1c0,6.6-1.6,12.8-4.9,18.4c5.2,8.6,7.9,13.6,7.9,15.2c0,1.2-0.4,2.2-1.3,3
			c-0.9,0.8-1.9,1.3-3,1.3c-1.4,0-2.6-0.8-3.6-2.5l-5.4-9.7c-6.3,6.4-13.4,9.6-21.2,9.6c-5.9,0-10.9-1.9-15-5.6
			c-4.4-3.9-6.5-8.9-6.5-14.9c0-6.3,2.3-12.1,6.9-17.3c2.7-3,7.5-7,14.6-11.9C137.6,32,136.8,27.7,136.8,23.5z M142.7,44.4
			c-5.4,3.8-9.1,6.6-11,8.7c-3.8,4-5.7,8.1-5.7,12.5c0,3.6,1.4,6.5,4.1,8.7c2.5,2.1,5.6,3.1,9.1,3.1c6.3,0,11.8-2.8,16.4-8.4
			C153.2,65.3,148.9,57.1,142.7,44.4z M146.3,31c4-3.5,6-6.9,6-10.3c0-1.5-0.2-2.6-0.7-3.4c-0.5-0.7-1.2-1.1-2.2-1.1
			c-0.6,0-1.4,1-2.6,3.1c-1.1,2.1-1.7,3.5-1.7,4.1C145.1,25.7,145.5,28.2,146.3,31z"/>
		<path class="st0" d="M252,1.1c2.1-0.3,2.7,1.9,3.2,2.8l-0.7,0.7c-0.1,0-0.1,0.1-0.2,0.2c-3.1,2.6-4.3,2-7.3,6
			c-0.4,0.6-1,1.1-1.4,1.6c-1.1,0.9-2.3,2.2-3.6,2.5c0,4.4,0,7.7-1.7,11.5c-0.1,0.2-0.1,0.3-0.3,0.8c-1.4,3.2-2.3,4.3-4.9,6.4
			c-2.6,2-6.5,4.6-9-0.1c-3.6-6.7,2.1-13.8,7-17.8c0.9-0.7,1.1-1,1.9-1.6c0.4-0.5,1.7-1,1.7-1.7c0-3.3-5.9-3.1-8.7-2.5
			c-11,2-23,14.7-20.2,26.8c0.9,4.1,9.2,10.3,12.9,11.3c2.5,0.7,7.1,2,7.1,4.9c0,0.3-0.9,1.2-1.2,1.8c-2.1-0.2-2.7-0.9-5.1-0.9
			c-6,0-11.9,4.5-15.8,8.3l-1.5,1.4c-0.1,0.1-0.2,0.2-0.2,0.2c-0.1,0.1-0.2,0.1-0.2,0.2c-0.9,0.8-1,1.1-1.9,2.2
			c-0.9,1-1,1.2-1.9,2.5c-0.8,1.2-0.9,1-1.4,2.4c-2.9,6.4-5,11.8-5,19.9c0,10.2,11.7,7.4,16.8,4.8c7.6-4.1,6.4-3.5,4.5-8.8
			c-2.6-7.1-0.1-18.1,5.5-23.1c5.2-4.5,11-1.6,14.5,2.5c0.9,1,2.1,3.3,2.2,5.1c0.3,3.1-2.4,7.9-3.6,10.4l-2.8,4.1
			c-1.1,1.7-1.9,2.8-3.3,4.1l-3.3,3.7c0.5,0.8,0.9,1.1,1.6,1.8c9.2,7.6,11.3,4,13.3,4.1c4,0.2,1,7.5-11.2,1.2l-4.8-2.9
			c-3.5-2.7-1.3-0.1-9.5,3.3c-2.8,1.1-5.7,2.2-9.7,2.2c-6.5,0-13-4-15.2-8.5c-3.1-6.2-0.5-16.2,1.2-21.9c2.5-7.8,7.3-13.4,13.2-18.4
			c2.1-1.7,7.3-5.2,10-5.4c-0.2-1.1-0.2-0.8-1.7-2c-3.3-2.7-7.1-6.2-8.6-10.5c-2.9-8.3,0.2-13,3.7-18.9l3.6-4.3
			c0.2-0.2,0.3-0.5,0.7-0.7c1.2-1.1,2-2.2,3.3-3.1c5.1-4.1,10.2-5.3,16.6-5.3c2.7,0,8.9,2.7,9.7,5.8C243,8,249.1,1.7,252,1.1z
			 M223.6,83.3c3.5-4.3,8-10.9,6.6-16.8c-3.1-0.8-4.1-1-7,1.9l-1,1.2c-3.5,4.2-4.6,12.4-2.3,17.5C221.7,86.1,222.3,85,223.6,83.3z
			 M229.3,30.8c0.1-0.1,0.2-0.1,0.2-0.2c3.3-2.7,6.5-5.9,7-10.8c-2.8,1.9-5.7,5.6-7,9c-0.1,0.2-0.8,1.5-0.8,1.7L229.3,30.8z"/>
		<path class="st0" d="M278.3,42.3c4,1.4,2.9,4.3,1.9,7.1c-2.3,6.2-10.1,25-10.2,29.4c2.1-0.1,3.6-2.4,4.6-4
			c1.2-1.8,2.4-3.5,3.4-5.4c0.2-0.6,0.4-0.9,0.7-1.5l0.5-0.7l5.2-8.3c1.4,0.7,3.2,0.5,2.8,2.5c-0.1,0.5-1.7,3.2-2.1,3.6
			c-2.5,4.5-3.9,7.5-7.1,12.4c-3.4,5-7.5,9-12.5,2.6c-2.4-2.9-2-6-1.4-9.6c-3.1,3.7-3.8,7.6-8.5,11.5c-3.7,3.1-6,3.5-9.8-1.6
			c-1.5-2.2-1.4-4.5-1.2-7.1c0.7-8.1,6.6-18.6,11.8-23.9c3.8-4,8.2-9,14.8-6c1.3,0.6,1.6,1.2,3.5,1.7
			C275.1,42.6,276.2,41.6,278.3,42.3z M257.5,72.6l3.8-6.2c0.8-1.2,0.5-0.8,1.3-1.7l8.5-15c0.7-1,0.7-0.8,1-2.2
			c-4.1,0-6.6,1.2-8.9,4.4c-13.4,18.7-10.4,23.3-12.3,27.3C253.3,78.6,256.2,74.7,257.5,72.6z"/>
		<path class="st0" d="M291,35.1c-4.6,2.2-2.4,4.1-4.7,4.1c0,0-6.2-3.5,3.4-8.4c10.8-5.4,7.5,0.7,12.1-7.3c1.6-2.7,3.3-6,5.8-7.7
			c2,0.5,5.1,1.2,4.4,4.1c-0.2,0.7-1.2,2.3-1.5,2.8l-1.4,2.5c0,0-0.2,0.2-0.2,0.3l0.4,0.3c0.1,0,0.2-0.1,0.3-0.1
			c0.1,0,0.2-0.1,0.3-0.1l6.3-0.9c1.2-0.1,11.9-2.2,11.1,2c-0.2,1.4-0.4,0.8-2,0.9l-13.2,1.7c-1.2,0.2-4,0.6-5,1
			c-1.9,0.8-4.9,9.5-6,11.8l-3.8,8.3c-1.2,2.6-2.5,5.8-3.5,8.7c-0.5,1.8-0.9,2.9-1.5,4.5c-1.4,3.2-3.4,10.9-3.4,14.5
			c0,2.8-0.5,7,6,1c3.7-3.4,5.9-8.1,8.5-12.3c1.5-2.4,2.4-4.3,3.7-6.8l2.5,0.5c0.8,3.6,0.5,1.5-1.4,5.6l-3.7,7.3
			c-3.4,6.2-12.9,19.5-19.2,9c-0.7-1.2-1.1-2-1.4-3.4c-2.1-8.8,3.4-25.1,6.6-32l4.3-9.8c0.5-0.9,0.8-1.1,1.2-2.3
			c1.3-2.8,1.9-1.8,0.9-2.6L291,35.1z"/>
	</g>
</g>
</svg>
