<svg width="203" height="155" fill="none" xmlns="http://www.w3.org/2000/svg"><g clip-path="url(#a)"><path d="M26.7 44v6.5h-13v4.4h11.8v6.5H13.7v4.7H27v6.5H6.1V44h20.6Zm4.6 28.6V44h7.6v21.9h7.4V44h7.6v21.9h7.3V44h7.5v28.6H31.3Zm42.8 0V44h7.6v9h3.8c7.1 0 12.5 2.3 12.5 9.8 0 7.5-5.4 9.8-12.5 9.8H74.1Zm7.5-6.5h4.1c2.3 0 4.3-.7 4.3-3.3 0-2.6-2-3.3-4.3-3.3h-4.1v6.6Zm19.8 6.5V44h7.6v10.8h3.6l6.5-10.8h8.4l-9 13.9 9.5 14.7h-8.4l-7-11H109v11h-7.6Z" fill="url(#b)"/><path d="M127.6 72.6 138.9 44h8.1l11.2 28.6h-7.8l-1.6-4.5H137l-1.6 4.5h-7.8ZM139.2 62h7.4l-2.9-8.2c-.3-.9-.6-1.9-.7-2.9-.2 1-.4 2-.7 2.9l-3.1 8.2Z" fill="url(#c)"/><path d="M168.6 88v-.3.3ZM133 100.5s-.1-.1-.1-.3c0-.2.1.2.1.3Zm14.8-.8c.1-.3-.1-.4-.3-.5v.2c.1.1.1.2.3.3Zm-.3-.6h-.1l.1.1v-.1Zm7.9-3.6c-.3 0-.1-.4-.4-.4-.1.5.4.5.9.5 0-.5-.2-.5 0-.9-1 0-.2.5-.5.8Zm11.6-7.8s.2-.1.5-.2h-.5v.2Zm-27.3 11.4v-.3.3Z" fill="url(#d)"/><path d="M147.5 99.6v-.2s0-.1-.1-.1c-.3 0 .1.4.1.3Zm10.3-15s0 .1.2.2h-.1v.6c-.1.6.9.7.6 1.1.7 0 .1-.4.4-.5.8.1.9.1 1.1-.3.7-.3.9.1.3.4.9 0 1.4-.4 2.2 0 .1-.3-.7-.4-.1-.7.3.3.4.3.6-.1-.4-.1-.8-.2-1.1-.1.1-.6-.9-.2-.4-.8-.5-.2 0 .6-.6.4 0-.3-.1-.6-.3-.9-.4 0-.9 0-1-.3.3 0 .5-.1.4-.4-.6.2-.4-.4-.4-.8-.2.6-1 0-1.4.7.2 0 .5 0 .6.1-.7 0 .1.3 0 .7-.2-.2-.5-.1-.4.3.2.4.7-.5 1 0-.2 0-.1.2-.3.3-.2-.2-.6 0-.9.1-.3-.2.3-.9-.4-.8.1.4.1.6.2.8-.1.1-.1.2-.1.3h.3c-.3-.2-.3-.3-.4-.3Zm2.4-.3c.4.2 0 .4.3.7h1c0 .2-.2.3 0 .4-.3.2-.8-.3-1.4 0-.2-.1-.2-.5-.4-.7.1-.1.5 0 .5-.4Z" fill="url(#e)"/><path d="M157.4 85.3h-.1v.1l.1-.1Zm0 0c.1-.1.2-.3.2-.4h-.3c0-.1 0 .2.1.4Z" fill="url(#f)"/><path d="M157.4 85.299v.6h-.1v.4h.6v-.8l-.5-.2Zm11.3 2.3c0 .1.1.1.1.2-.1 0-.1-.2-.1-.2Z" fill="url(#g)"/><path d="M201.4 82.9c-.1-.4-.4.2-.7 0 0-.4.2-.3 0-.5-.7 0-.1.4-.4.5 0-.2-.2 0-.4 0-1.6-.2-3.3-.1-4.9.3.1 0 .2.1 0 .1s-.1-.1-.3-.1c-.1 0 .2-.2.1-.4-.7 0-1.8.5-2.3.3.2 0 .2.4 0 .4-.9-.1-.9-.4-1.4-1.1-.4.2.4.4 0 .5-.1-.3-.7-.2-.9-.5-.4.6-.7 0-1-.3-.1.4.3.5-.1.7-.5.1-.3-.3-.3-.7-.3.1-.7.2-1 .4.4.1.7.2 1 .4-.9.4-1.6-.4-2-.9-.4.2-.1.3-.3.4-.3-.1-.7-.2-1-.1 0 .4.6.3.6.7-.9-.2-.9.3-1 .4-.8-.3-2.1.2-2.7-.5.5.1.5-.1.7-.3.4.6.8.2 1.6.3 0-.5-.8-.2-.9-.5 0 .1 0 .3-.1.3-.8-.2-.7-.9-.6-1.7-.4.5-.7-.3-1 .3.4 0 .8 0 .7.4-.8-.3-1.7.5-2.6-.4-1.6 1.2-3.5-.2-4.8.7-1.2 0-1.4-1.2-.9-2 .7.3.6-.2 1.4 0-.4.4.4.2.4.5-.4-.1-.6.6-.3.7.1-.2.5-.2.6-.5-.3-.3.2-.5-.3-.8.3-.3 1.2 0 1.4-.5-1.5-.1-1.9.6-3.8-.3.4.1.5-.1.9-.1 0 .1 0 .3.1.3.2-.7-.7-.4-.7-.8.1-.2.2-.3.4-.3.9.4 1.9.3 2.7-.3.7.9 2-.4 2.7.1.1-.2.1-.5.3-.7-.3-.1-.9-.3-1.2-.8-.4-.1-.3.4-.7.3 0-.1 0-.3-.1-.4-.8.1-1.6.1-2.5 0-.1.2-.3.4-.4.5 0-.2-.2-.2 0-.4-.7-.1-.6.5-.7.7-.3-.1 0-.7-.6-.7.1.6-.3 1.1-1 1.4 0-.2-.2-.2-.1-.4.5.4.6-.4.6-.9-.2.1-.5.1-.7 0-.1.3.4.4 0 .5-.4.1-.4-.9-.9-.4.2 0 .4.2.1.3-.4-.1-.8-.3-1.1-.4-.1.4-1.1.4-1.5.1 0 .6-.7.8-.4 1.4-.4-.1-1.4.1-.9.4.3-.1 1.6.3 1.2-.7.4-.1.8-.2 1 .1-.3.1-.6.4-.1.5.2-.2.1-.6.6-.5.4 0 0 .3.3.7.9-.3 1.9-.4 2.9-.1-.6.3-.8.8-1.4 1.2.2-.3-.2-.6-.3-.3.4.2-.1-.1-.4 0-.3.4.6.4.1.5-.6-.3-.7-.7-.6-.7-.2-.2-.4.3-.7-.1-.4.3-.3.6-1 .4-.1.4.1.5.1.8-.6-.2-.2.6-.7.5.1-.5.5-.9.1-1.6-.3.1-.2.4-.4.5 0-.3-1-.2-1.4-.1.2.1 3.2.2 3.3.5-1.2 0 1.2.8 1.2.8v-.4c0 .3-4.8.3-5.4.7 2.2 0-1.5-1.8-1.5-1.7 0 .1-1.1-2-1.1-2h-1.4v3.2c0-.1-1.4.5-2 0 0 .1 0 .4-.2.4-.4-.4-.9 0-1.4-.4-.4.6-.9.4-1.8.4-.2.3.4.5 0 .7-.5-.1-.8-.5-1.4-.5.2.3-.6.5-.1.7.3-.4.3.2 0 .3 1.4-.3 2.3.2 3.5-.5 0 .2-.2.2-.3.4.7-.1 1.6-.2 1.9.1.3-.3 1.1-.2 1.4-.4.4.7 1.4 0 1.9-.1 0 .2-.2.2-.3.4.7.1 1.2.5 1.6 0 0 .2.7.4.3.5h.6l-.7.2c0-.1 0-.1.1-.1-.5 0-.9-.1-1.4-.3.2.4-.3.5-.5.8.5.2 1 .3 1.5.4 0 .1-.1.3-.2.3-.8-.2-1.1.3-1.9-.3 0 .7-1.2.2-1.4.7.7.1-.1.4 0 .5.7 1.1 3.6-.4 3.9.5-1.4.3-2.2-.5-3.1.5.3.1.4.4.7.5.4-.2-.3-.4.1-.5 1 0 1.6.5 2.5 0 .2 1.1.7-.4 1.6.5.7-.8 1.4.2 1.8-.5.4 0 .5.3.9.4 0-.1 0-.4.1-.4 0 .2.4 0 .4.3-.2.2 0 .4-.1.9.3.2.6-.4 1 .1-.2.3-.4.6-1 .5 0-.7-1.9 0-2.3-.5.3 0 .2.4.1.6.6 0 1.1.1 1.2.1-.1.5 0 .6.2.9-.3-.9-1 0-1.4-.6l-.3.9c-.9 0-.1-.5-.4-.8 0 .1 0 .2-.1.1-.1 0-.1-.1-.1 0s.3.9-.3.5c0 .7.7.2 1 .5-.2.3-.7.2-1 .4-.3-.1-.1-.7-.6-.7-.1.3.3.6.3 1.1.1-.2.7 0 .7 0-.6.2 0 .1 0 .5-.2.1 0 .5-.3.5s-.2-.1-.3-.3c-.1-.1.3-.1.3-.3-.3 0-.1-.5-.6-.4.1.5-.5.5 0 .8-.2.1-.4.1-.5 0-.1-.1-.1-.2-.1-.3-.8-.1-.1.5-.4.7-.5-.9-.5-.9-.6-.1-.2 0-.2-.1-.3-.3-.1-.2.3-.1.3-.3 0-.1-.2-.1-.1-.3-.4.2-1.2.4-1.4-.3.5.4.1-.8.9-.5 0-.7-.9-1.1-1.4-.8.9.1 0 .4-.1.7.2 0 .5 0 .6.1-.3.2.1 1.1-.6.9-.1-.5.3-.5.3-.9-.4-.2-.8-.1-1 .3-.1-.6-.5-.2-.9-.5-.2.4-.3.9-.4 1.4.4.1.3-.3.6-.3 0 .1 0 .3.1.4-1.1.2-1.8.6-2.6.3 0 .2 0 .4-.1.4-.5-.3-.3-.2-.9 0 .2-.8.1-1 .7-1.4-.4-.5-1.6 0-1.7.1.4 0 .7 0 .9.3-.8-.1-.3.5 0 .5-.3.2-.7.4-1 .5-.4-.1-.2-.2-.1-.5-.6 0 3.2.2 3.2.7-.4-.1 2.7.3 2.7 0v-.9c0 .4-4.2.7-5.1 1.4 0-.4-1.5-.5-1.5-.8-1-.1-.9.7-1.8.7 0-.2-.3-.3-.3-.5-.3-.3-.5 0-.8.1-.1-.7-1.1-1.2-.4-1.7-.1-.3-.3-.6-.5-.9.2.8-1.7.4-1.9 1.2.3 0 .2.4.6.3 0-.2 0-.4.3-.4-.2.3.2.5-.1.7-.2-.2-.6.2-.9-.3-.2-.4.3-.5.1-.9-.4 0-.3.2-.6 0-.1.4.2 1.1-.1 1.2 0-.5-.3-1-.7-1.4-1.2.1-2.4.1-3.6-.3.7.5 1.1-.8 1.9-.3-.3-.1-.7.2-.3.3.1-.4.5.2.9 0s.1-.7.1-1.1c-.6.5-1.8-.4-2.3.4.2 0 .5 0 .6.1-.1.5-.6 0-1 .3 0-.2-.4-1.1.3-1.1.6.6 1.8 0 1.9-.4.4 0 .2.5.6.5.2-.5.9-.1 1.4-.1.1-.4-.7-.7-.3-.9 0 .2 0 .3.3.3s.1-.2.3-.3c.2 0 .1.2.1.3-.4.2-.3.4-.1.8-.4.2-.7-.1-1 .1.1.2 0 .7.4.7s-.1-.6.3-.5c.4.1.9.1.7.7.4 0 .4-.5 1-.4-.1.5.2.5.3.8-.2 0-.4.2-.1.3.5-.5.4-.8.7-1.4-.5-.2 0 .6-.6.4.3-.3 0-.4-.1-.7.9-.7 1.9 1.2 2.7.1-.4-.2-.5.5-.6.1 0-.1-.1-.2-.1-.3.7.2.2-1.1.7-.7.2-.3-.4-.6 0-.8-.2.5.5.1.4.4-.4.1.2.4 0 .8-.3-.3 2.9-.4 3 .3.7-.3 5.2.4 5.2.1v-.8c0-.1-4.1-.2-4.3-.3-.1-.4-1.7-1.2-1.4-1.6.3.3-.6-.2-.2-.1.7.1-.4.6 0 .9.2-.5 2.8.3 3.1.1.9-.2 1.8-.4 2.7-.4v-.6c-1 .3-2.2.4-3.2.1 0-.1 1.6-.2 1.7-.3.1-.1 1.5 0 1.5 0v-.5l-3.2-.3c-.2.6-2.9.7-3.1.5.5-.4-1.1-.8-1.1-1.6.9.2-.4-1 .2-.5-.4-1.2-1.6-.4-2.7-.3-.1.4.1.4.2.7-.6-.1 0 .3-.3.3 0-.2-.3-.1-.3-.3-.4-1.7 1.2-1 1.9-1.4-.8 0-.8-.6-1.4-.5.2-.3.8-.1.9-.5-.8.3-.4-.2-.7-.7-.5-.1-.2.5-.7.4 0-.4.1-.5.2-.6l1.2-.1c.1-.2 0-.7.3-.8 0 .5.5-.1.7.3-.2.2-.7 0-.7.4.3.1 2.1.4 1.9-.1 0 .3-.5.1-.7.1 0-.2-.5-.5-.1-.7.3.1.4.7.9.3 0-.3-.2-.3-.3-.4.4-.2.8 0 1.1.3-.1.2-.5 0-.6.3.3.1 1.1.3 1.2-.1-.2 0-.3 0-.3-.3.2-.4 1.2 0 1.1-.4-.1-.4-.4.2-.7 0 0-.4.2-.3 0-.5-.7 0-.1.4-.4.5 0-.2-.2 0-.4 0-1.6-.2-3.3-.1-4.9.3.1 0 .2.1 0 .1s-.1-.1-.3-.1c0-.2.2-.2.1-.4-.4 0-.7.1-1 .2 0-.2 0-.5.2-.5 0 .2 0 .3.3.3.1-.3.2-.6.1-.9-.4.3-.2-1.1-.3-1.2.3.2 1 .2 1.2-.1-.9-.2-1.9-.1-2.7.3 0-.2 0-.4.1-.5-.3.1-.8.5-1.1.1-.1.1-.2.9-.3 1.1-.6-.7-2.9 0-2.5 0h-.6c-.1 0 .4-.1 0 0s-.5-.9-1.4-.7c0 .8-.9 0-1-.2-.1.2-.3.4-.6.4-.5-.5-.7-.2-1.6-.6-.1.5.5.2.6.5-.2.2-1 0-1.2 0 0-.2.4-.1.4-.3-.4 0 .4-.4-.1-.4.1.4-.6.7-.9.4 0-.2.4-.1.4-.3-.7-.1-.7.5-1.4.1-.4.3.3.7-.3.8-.1-.3-.7-.1-1.1-.2 0 0-.1 0-.1-.1.3-.1.6-.1.9 0 0-.3.3-.4.4-.5-.4 0-.2-.5-.6-.5.1.9-.9.5-1.4.7.1 0 .3 0 .3.1s-.9.3-.9.1c0-.2.5-.4 0-.5 0 .6-.8 0-.9-.1-.1.3 0 .5-.7.5.1-.6-.2-.4-.3-.5-.1-.2.2-.2.3-.3 0 .3 1 .6 1.4.5-.1-.4-.3-.7-.6-.9h-1c.3-.3.8 0 .8-.5-1.5 0-2.2.6-4.1-.3.4.1.4-.1.8-.1 0 .1 0 .3.1.3.2-.7-.7-.4-.8-.8.1-.2.2-.3.4-.3.9.4 1.9.3 2.7-.3.7.9 2-.4 2.7.1.1-.2.1-.5.3-.7-.3-.1-.9-.3-1.2-.8-.4-.1-.3.4-.7.3 0-.1-.1-.3-.1-.4-.8.1-1.6.1-2.5 0-.1.2-.3.4-.4.5 0-.2-.2-.2 0-.4-.8-.1-.6.5-.7.7-.3-.1 0-.8-.6-.7.1.6-.3 1.1-1 1.4 0-.2-.2-.2-.1-.4.5.4.6-.4.6-.9-.2.1-.5.1-.7 0-.1.3.4.4 0 .5-.4.1-.4-.9-.9-.4.1 0 .3.2.1.3-.2.1-.8-.3-1.1-.4-.1.4-1.1.4-1.4.1-.1.6-.7.8-.4 1.4-.4-.1-1.4.1-.9.4.3-.1 1.6.3 1.2-.7.4-.1.8-.2 1 .1-.3.1-.6.4-.1.5.2-.2.1-.6.6-.5.4 0 .1.3.3.7.9-.3 1.9-.4 2.9-.1-.6.3-.8.8-1.4 1.2.2-.3-.2-.6-.3-.3.4.2-.1-.1-.4 0-.3.4.6.4.1.5-.6-.3-.7-.7-.6-.7-.2-.2-.4.3-.7-.1-.4.3-.3.6-1 .4v.1c0 .1-.2.2-.4.3 0-.2 0-.4-.1-.6-.2.1-.2.4-.4.5l.2-.2c-.5.1-.6-.2-1-.1v.2c-.1 0-.3 0-.4.1-.2-.1-.3-.1-.5-.2-.3.3.5.7.7 1-.1 0 .8 0 .7.1-.3-.2.4-.5.4-.1v-.5c.5 0 1.1-.1 1.4-.5-1.4.3-1.4.4-1.4-.3v1.7c0 .2-5.6-.5-3.5-.5.4-.3-1.7-1-2.4-1.1-.4.2-.8.3-1.2.4-1-.7-2.9-.1-4.4-.5-.1.2.2.4-.3.5-.4-.3-.9-.5-1.4-.6 0 .3-.1.5-.4.7-.3 0-.5-.1-.5-.4.2 0 .4-.1.4-.3-.1 0-.2-.1-.2-.2-.4.1-1.1.2-1-.4-.8-.1-.3.2-.6.4-.5-.6-1.2-.3-2-.1 0 .2 0 .5-.1.5-.1-.4-.4.2-.7 0-.1-.2 0-.2 0-.3v-.2h.1c0 .1 0 .2.2.2s0-.1 0-.1h.3c0-.1-.2-.1-.3-.1.1-.2.1-.5.1-.7-.4.3-.2-1.1-.3-1.2.3.2 1 .2 1.2-.1-.9-.2-1.9-.1-2.7.3 0-.2 0-.4.1-.5-.3.1-.8.5-1.1.1-.1.2-.2-1.2-.3-1.1-.6-.7-2.9-2.1-2.5-2.1h-.6c-.1 0 .4 2 0 2.1-.4.1-.5.2-1.4.4 0 .8-.9.6-1 .4-.1.3-.3.5-.6.7-.5-.5-.7 0-1.6-.4-.1.5.5.3.6.6-.2.2-1 0-1.1 0 0-.2.4-.1.4-.3-.5 0 .4-.4-.1-.4.1.4-.6.8-.9.4 0-.2.4-.1.4-.3-.7 0-.7.5-1.4.1-.4.3.3.7-.3.8-.2-.3-1.1.1-1.4-.3.5 0 .5-.2 1 0 0-.3.3-.4.4-.5-.4 0-.2-.5-.6-.5.1.9-.9.5-1.4.7.1 0 .3 0 .3.1s-.9.3-.9.1c0-.2.5-.4 0-.5 0 .6-.8 0-.9-.1-.1.3 0 .5-.7.5.1-.6-.2-.4-.3-.5 0-.1.2-.2.3-.3 0 .3 0 .6.4.5-.1-.3-.4-.6-.7-.8-.4.2.3.4-.1.5-.3-.5-1.4-.5-1 0-.5 0-.4-.5-1-.4-.1.4.4.3.4.5-.6-.1-1.4-.1-1.4.3-.4 0-.8 0-.7-.4.2 0 .3.2.4 0-.3-.4-.8-.2-1.4-.1.1-.4-.3-.2-.6-.3.3-.3-.1-.4 0-.8-.2 0-.4.1-.6.3.6 0 0 .7-.3.7-.2-.3 0-.2-.1-.7-.5-.1-.3.4-.6.4 0-.3-.5 0-.6 0 0-.2.2-.2.3-.4-.5.1-.5-.2-1-.1 0 .2.2.3 0 .4-.3 0-.6-.2-.9-.4-.4.3 5.1.9 4.7 1.2-.5 0 3.2-.7 3.2-.3v-.4s-3.5 0-3.2-.5c-1.4.3-6.1.3-6.1-.3v-.5c0 .2-4.1.5-1.9.5.4-.3-.9-.5-1.6-.5-.4.2-.4.5-.8.7-1-.7-2.7 0-4.2-.3-.1.2.3.5-.2.6-.3-.3-.8-.5-1.2-.5 0 .3-.1.5-.3.7-.3 0-.5-.1-.5-.4.2 0 .4-.1.4-.3-.1 0-.2-.1-.1-.3-.4.1-1.1.3-1-.4-.8-.1-.3.2-.6.4-.5-.6-1.2-.3-2-.1 0 .2 0 .5-.1.5-.1-.4-.4.2-.7 0-.3-.6.1-.5.7-.4-.2-.7-1.1-.1-1.4.1-.9-.1-1.9-.9-2.7-.3.1 0 .4.4.1.4-.5-.5.5-.8-.1-.4-.5-.5 0-.3 0 0v-.4s.6.1.1.4c-.4-.4-.1-.2-.1-.1v-.5c0-.1-6.4.2-7.8.1-.7 0-3.1-.6-3.6-.7-.1 0-1.6.7-1.8.1-.1.3 0 .4-.4.5l-4.1-.4c0 .2 0 .5-.3.5 0-.2-.3-.2-.2-.5-1.4-.2-2.2.4-3.1 0-.4.2.2.5-.2.7-.3-.2 0-.8 0-1.1-.7-.2-.3.2-.6.2h-.7c.3 0-1.4-.2-.9.1 0-.3.6.1.6.3-.3.1-1.5.2-.9-.3-.6.4-1.1.5-1.6-.1-.3.3.3.9-.6.8.1-.4-.2-.3-.1-.6-.6-.1-1.1-.3-1.6-.7-.2.3-.3.5-.1.5-.6-.2-1.2-.4-1.8-.4 0 .3-.1.7-.3.7-.3-.1-.6-.3-.9-.4-1.2-.2-2.9 0-3.1.5-.2-.8-1-.2-1.8-.5-.1.2-.3.4-.4.5 0-.2 0-.4-.1-.4 0 .7-.4 0-.7 0-.5.3 0 .7-.4.8-.3-.1-.1-1-.6-1-.1.2.4.2 0 .2h-.3s0-.1.1-.3c-.9.3-1.8.5-2.7.6-.2.5.5.2.4.5-1.9-.4-4-.2-5.8.6l-1.8-.3c-.1 1.3-2.6.4-3.2 1.2.5.2 1.1-.2 1.6.1-.5.1-.8.2-.6.8-.5-.5-.5.9-1.1.3 0 .2.2.3 0 .4-.2.1-.6-.1-.7-.3.6 0 0-.2 0-.4.2-.1.5-.2.7-.1 0-.3-.9-.6-1-.8-.8-.1-1.6 0-2.3.3v.7c0 .3-.2.6-.5.7.1.6.3.9-.3.9-.2.7.4 1.1-.2 1.4.3 0 .3.5.5.5 0-.5.5.3.5-.1-.2 0-.3-.2-.1-.3.1.3.8 0 .9.3-1.2.5-.8 1.8-2 2.1-.1-.2-.4-.2-.6-.4-.1-.2.2-.9-.1-.9l-.4.8c0-.3-.8 0-.9-.3 0 .4-.5.3-.9.4.4.6-.7.5-.7 1.2.4-.1.8 0 1.2.3.1-.4.4-.8.7-1.1.2 0 .2.2.4.1s-.2-.3 0-.4c.2.4.6.4.1 0 1.2.1.8.9 1.4 1.4-.5-.2-1.5 0-1.1.5-.6-.2-1.2-.2-1.7.1-.3 0-.3-.4-.6-.4-.7.4-1.1 1.1-1.7 1.5.1.5 0 .5 0 1.1.6.1.6.6 1.1.8.3-.2 1.1-.4 1.4-.3-.4 1.3-1.4 2.2-1.4 3.4.4.2.8-.1 1.4-.1.4.6.1 1.1 0 1.8-.1-.1-.5-.6-.7-.3.1 0 .3 0 .3.1s-.2.1-.3.1c-.2-.2-.9-.1-1.4-.1-.5 1.3-.5 2.7.1 4-.7.3 0 .5-.6.9.6-.1 1.1-.4 1.8-.5-.2.5 0 1.4-.9 1.4-.1.5.2.6.4.8-.8.7-.4 2.2-.6 3.2.2.1.3.1.4.3-.2.4.1.6-.3 1.2.3.1.6 0 .9-.1-.2.3.1.5-.3.7.4.4.2.9.9 1.4 0-.2.5-.1.4-.4-.1-.3-.4.2-.4-.1-.1-.3.6-.1.4-.5-.2 0-.4-.1-.6-.3.6-.1.4-.5.1-.8 1-.5 1.4.2 2 .5-.2.4-.4.4.1.7-.8.5.4 1.7-.1 2.4.2.1.5.1.6.4-.2 1.2.3 2.4 1.4 3 .2-.8.3-1.4-.3-1.9.5-.8-.4-1.2-.1-2.1.6 0 .9.3 1.4.5 0 .3-.2.3-.3.4.3 0 .3-.1.6-.1 0 1 .6 1.4.6 2.4 1.1.1.2 1.4 1.4 1.6-.4-.9-.2-2.7-.9-3.4.3-.1.1-.6.4-.7 2 .4 1.1 3.4 2.9 4.4.4-.5-.1-1-.4-1.4.3-.5.4-.9.1-1.4 1.1-1.5 1.5 1.4 2.2 2 0-.2.2-.1.4-.1-.2-.4-.1-.6.3-.8-.9-.1.3-.8-.4-1.4-.3 0-.9.2-.9-.1 0-.5.5-.4.9-.3.3-.3.1-.6.3-.7.5.2.7.7 1.2.9-.2.3-.3.1-.4.3.7.2.5.6.6 1.4.5-.1.7.3.9-.1-.7-.2.2-.9 0-1.4-.4-.3-.7.1-.9-.1.2-.4.9-.1 1.4-.3 0 .4.2.8.6.9-.4.8.5.9.6 1.9.3.1.7.2 1 .3.3-.4-.4-.8-.6-1.1.4-.2 0-.8-.1-.9.4 0 .7 0 .7-.3-.3-.3-.3.1-.7 0 .2-.4-.2-.3-.3-.5 1 .1-.2-.5.3-.7 1.1.9 1.8 2.2 2.9 3.2.1-.7-.4-.9-.1-1.8-.2-.1-.8.1-.7-.1.3 0 .3-.4.6-.4-.1.5.5.2.6.1.2.8.7.2.9 0 .4.1.4.5 1 .4 0-.2-.2-.3 0-.4.5.6.4 0 1.4.1 0 .1.2.3.3.1-.4-.1-.2-.6-.6-.7.7.3 2.7-.3 2 .7.4.2.5-.1.9.1.2-.4-.5-.7-.1-.8.4-.1.1.4.4.4.1-.5.4 0 .9-.3.1.2.2.4.1.7 1.1-.2 2.3.6 3 .1 0-.2-.2-.3 0-.4.3.1.7.2 1 .1 0 .2-.2.2-.3.4 1.1-.2 3.1-.4 3.8.1.5-.5 1.2-.1 1.6.1.4-.7 1.5-.3 2-.4-.2 0-.3-.1-.4-.3.1 0 .2-.1.3-.1.3.5.1 0 .4 0 1.2 0 3.1.5 3.9-.4 0 .2 0 .4-.1.5.2-.1.4-.1.6-.1.1.4.3.8.7 1 0-.2.5-.1.4-.4-.1-.3-.4.2-.4-.1 0-.3.4-.2.4-.4l.7.1c0-.4.5-.2.6-.5l.1.1c.1 0 0 .2.3.3-.8.5.4 1.7-.1 2.4.2.1.5.1.6.4-.2 1.2.3 2.4 1.4 3 .2-.8.3-1.4-.3-1.9.5-.8-.4-1.2-.1-2.1.6 0 .9.3 1.4.5 0 .3-.2.3-.3.4.3 0 .3-.1.6-.1 0 1 .6 1.4.6 2.4 1.1.1.2 1.4 1.4 1.6-.4-.9-.2-2.7-.9-3.4.3-.1.1-.6.4-.7 2 .4 1.1 3.4 2.9 4.4.4-.5-.1-1-.4-1.4.3-.5.4-.9.1-1.4 1.1-1.5 1.5 1.4 2.2 2 0-.2.2-.1.4-.1-.2-.4-.1-.6.3-.8-.9-.1.3-.8-.4-1.4-.3 0-.9.2-.9-.1 0-.5.5-.4.9-.3.3-.3.1-.6.3-.7.5.2.7.7 1.2.9-.2.3-.3.1-.4.3.7.2.5.6.6 1.4.5-.1.7.3.9-.1-.7-.2.2-.9 0-1.4-.4-.3-.7.1-.9-.1.2-.4.9-.1 1.4-.3 0 .4.2.8.6.9-.4.8.5.9.6 1.9.3.1.7.2 1 .3.3-.4-.4-.8-.6-1.1.4-.2 0-.8-.1-.9.4 0 .7 0 .7-.3-.3-.3-.3.1-.7 0 .2-.4-.2-.3-.3-.5 1 .1-.2-.5.3-.7 1.1.9 1.8 2.2 2.9 3.2.1-.7-.4-.9-.1-1.8-.2-.1-.7.1-.7-.1.3 0 .3-.4.6-.4-.1.5.5.2.6.1.2.8.7.2.9 0 .4.1.4.5 1 .4 0-.2-.2-.3 0-.4.5.6.4 0 1.4.1 0 .1.2.3.3.1-.4-.1-.2-.6-.6-.7.7.3 2.7-.3 2 .7.4.2.5-.1.9.1.2-.4-.5-.7-.1-.8.4-.1.1.4.4.4.1-.5.4 0 .9-.3.1.2.2.4.1.7 1.1-.2 2.3.6 3 .1 0-.2-.2-.4 0-.4.3.1.7.2 1 .1 0 .2-.2.2-.3.4 1.2-.3 2.5-.3 3.8.1.5-.5 1.2-.1 1.6.1.4-.7 1.5-.3 2-.4-.2-.1-.3-.1-.4-.3.1 0 .2-.1.3-.1.3.5.1 0 .4 0 1.2 0 3.1.5 3.9-.4 0 .2 0 .4-.1.5.8-.2 1.7-.1 2.5.1 0-.4.5-.2.6-.5.3.1.5.3.7.5.4-.2-.3-.5.1-.7.3.7.9-.1 1.4.3-.2.3-.7-.1-.7.1.3.3 1.6.3 1.4-.1-.1.1-.1-.4-.4-.7.4.1.4.5 1 .5.3 0 .4-.3.6-.4-.1.3.7.3.6 0-.1-.3-.4.3-.4-.1s0-.8.4-.8c0 .3-.3.3-.1.7.1.4.4 0 .7 0-.3.3.2.5.4.7.1-.2-.2-.8.1-.8.1.9 1.4.4 2 .4.4-.7.5-.4 1-1.1.2.4-.5.5-.1.7h.6c.1.6-.4.2-.4.4.2 0 .1.3.1.5.8-.1 1.4 0 1.8-.7-.4-.2-.7.3-.7 0 .4-.1 1.4-.4 1.5 0-.4.2-.5 0-.6.1.3 0 .1.5.4.5 0-.5 1.4-.4.7-.8.9.2 1.8.2 2.6-.1-.2-.4-.4 0-.6-.3.2-.2.6-.1 1-.1-.2.6.6.9.7.4-.4.1-.7-.5-.4-.7.5.5 1.2.6 1.9.4.1.2.1.5.3.7 0-.4.5-.4.6-.7.1.4.1.3-.1.5.5-.2.9.1 1.5.1 0-.3-.2-.3-.3-.4.4-.2.8-.3 1.2-.4-.1.1-.4.6.1.5-.2-.7.5-.6.4-1.1-.5.1-.3.1-.6-.1 0 .3 0 .5-.3.5-.2-.3-1 0-1-.4.7-.1.4-1 .4-1.1.1.4.3-.1.4-.1-.2.3.2.6.3.3-.2 0-.1-.3-.1-.5.4.3.7 0 .9-.3 0 .3 0 .6.3.7.2-.2.4-.4.6-.7 0 .1 0 .3.1.4-.4.2-.8.3-.9.8.7.2 1.1-.1 1.2-.8.4.3.3-.3.9-.1 0 .2.2.2.1.4-.5.1-.4-.2-.7 0-.2.5.4.3.4.5-.1 0-.1.1-.1.1 0 .1.1.1.1.1 0-.6.8-.4 1.1-.7-.2-.1-.3-.3-.3-.5.3 0 .5.7.7.4-.4-.2.2 0 .4 0l-1.1-.9h1.6c.2-.4 1.6.2 1.6 0v-.3c0-.3-1.6-.1-1.6-.5 0 .2-.9.5-.5.8.2 0 0 0 0 .1s-.2 0-.2.1c1.3.1 1.9-.2 2.5.3 0-.6.9.2 1.2-.3-.1-.1-.5 0-.4-.4.1-.4.7 0 .9.1-.3.2.2.4-.3.5.3 0 .5 0 .7-.1-.4-.5-.1-.8-.7-1.2.4-.1.4.2.9.1-.5.4 1 .4.4.9.1.1.7.5.9.1-.4.2-.4-.4-.1-.4 0 .3.4.2.3.5-.2 0-.1.2-.3.3 0-.2-.5 0-.6.1.7 0 .5.3.3.7.6-.1.6-.9 1-1.2 0 .3.3.3.1.7.7.1.7-.4 1.2-.5 0 .3.7.7.9.4-.2-.7-1.4-.2-1.7-.7.6-.1-.2-.6.4-1.4.7-.1 0 1.1.9.5-.4-.1 0-.4.1-.1 0-.8-1.2-1.5-.1-2 0 .2.1 1.2.7.9-.4-.3.1-.2.3 0 0-.2 0-.5.1-.5.1-.1.4.3.4.5.3-.4.6.2.9.3-.5-.6-.2-.6-.7-.9.2 0 .1-.1 0-.3.5 0 1.1.1 1.6.3.2-1.4 1.5.6 1.6 0 0-.2-.2.1-.3-.1.3-.2-.2-.4.3-.5 0 .3.5.1.6.4-.1.3.1.7.3.9 0-.1.1-.1.3-.1.2-.4-.5-.5-.1-.7.4-.1.5.6.7.3-.5-.3.8.2.3-.1-.2-.1-.3-.1-.4-.3.3 0-.1-.2.1-.3.3.3.6 0 1 0 .6.4.6 2.5 1.4 1.9-.3 0-.3.5-.3.5h.9v-2.1h-.6c0 .3.7-3 .6-.2 0 .2 0 .3.3.2.4-.3-.5-.7-.1-.8.1.6.8-.1.9.4 0 .1-.2.2-.3.3.2.2.4.3.6.4.3-.1.2-.6.6-.7.2.2.1.6.6.5.2-.3.3-.8.7-.9l2.2-.1c0 .5.1 0 .4.1-.1.4.3.3.3.5.6-.1.8-2.7 1.4-3.1-.1-.2-.7-3-.7-3h.6c.2 0 .2 2.4.6 2.2-.2.8-.4 1.7-.4 2.5.1.3 1.8-.6 2.3.3.1-.4.4-.6.9-.6 0 .4-.3.2-.1.5 1-.4 1.6.4 2.7.2.3-.3 1.6-.3 2-.4.9 0 0-.3-.2-.4.9 0 1 .2 1.5-.1 0 .3.4.3.6.5-.2.4-.8-.3-.7.3 1.4.4 2.9.4 4.3-.1.2 0 .1.4.3.4.4-.3 1.4 0 1.6-.5-.9.1-.4.1-.6-.3 0 .2-.3.1-.4.3 0-.5-.5-.6 0-1.1-.2-.2-.9 0-.9-.5 1.4-.5 1.1-.1 2-1-.2-.4-.5-2.2-.7-2.2h2s0 2.2.3 2.2c0-.2 0 .4.1.3.4.1.4.5.3.9.4-.1.6.2.7.1-.2 0-.3-.1-.3-.3 2.2-.3 4.4-.3 6.6-.2.1-.3-.5-.6-.1-.8.2.1.3.3.3.5 2.4 0 4.8-.2 7.2-.6.1.2.2.3.3.4.4-.7.9-.2 1.6-.4.1-.5-.2-.6-.3-.9.2 0 .2-.2.4-.1.1.4.3.8.6 1.1.3-.6 1-.2 1.4-.7.1-.1-.2-.7.3-.1.3-.5 0-.8.3-1.2-.6.2-.3-.3-.6-.4-.1.2-.4.3-.6.3 0-.1-.1-.1-.1-.3.3-.5.3-.7-.1-1.1.4 0 .4-.2.6-.4-.2 0-.5 0-.6-.1 0-.1.8-.3.9-.7-.1.3-.2.5.3.5 0-.4 0-.8.6-.5 0 .2-.4.1-.4.3.7.3.7-.7 1-.9.3-.2.1.5.4.5.3 0 .5-.4.7-.7.2.3.2.6.7.5-.3-.4-.7-1-.1-1.5-.8.7-1.4 1.1-1.1-.1-.2-.3-.5.3-.7-.1.5-.3 1.2-.4 1.7-.1.1-.6.8 0 1-.5-.5-.3-1.5.3-1.2-.5l-1.2.3c-.1-.1-.4-2.4-.4-2.1-.1.3.4-1 .3-1h-.4c.2 0 .2-.2 0-.3-1 .1-1.9.2-2.9.3h-.3c.2 0 0 .3-.1.3s0 .2 0 .3c.5.1 1.1 0 1.6-.1.1.2.5.4.1.6.2.1.5 0 1 0-.9.3-2.3.6-2.9-.2 0 .2-.1.5-.3.4.1-.2 0-.3.3-.4v-.2c-.3 0-.6-.1-.8-.3 0 .2-.1.4-.3.4-.1-.2-.7 0-.7-.3.6-.1-.3-.9.6-.9.3.1.3.2.1.4.6.1.8-.3 1 .1 0-.1 0-.4.1-.4s.4.8.6.4c-.3-.5.8.1.6-.5.5-.1.4.2.7 0 0 .1-.1.2-.1.3.4-.1 1.9-.6 1.1.1 1.2-.3 2.5.3 3.2-.5.6.1.1.1.6.4.1-.8 1.4.1 1.6-.7.1.3.5.4.7.7-.3.1-.6.1-.7.3.2.3.5-.1.6.1 0 .3-.4 0-.4.3.2.5 1.6.3 1.4-.4-.3 0-.5 0-.6-.3.2-.1.3-.2.4-.4-.4-.2 3.1.4 3 0 .3-.2 4.8-.1 4.8-.5v.4c1.6-.5 3.4-.7 5.1-.5-.1-.3-2.1-.6-1.6-.7.1.4-1.1.4-1.1.7.5.1 0-.6.4-.3 0-.3-.3-.6 0-.7.1.3 0 .6-.1.8l3.7-.4c.1-.2 0-.7.3-.8 0 .5.5-.1.7.3-.2.2-.7 0-.7.4.3.1 2.1.4 1.9-.1 0 .3-.5 0-.7.1 0-.2-.5-.5-.1-.7.3.1.4.7.9.3 0-.3-.2-.3-.3-.4.4-.2.8 0 1.2.3-.1.2-.5 0-.6.3.3.1 1.1.3 1.2-.1-.2 0-.3 0-.3-.3-.3-.5.6-.1.6-.5l-1.7.3Zm-22.3-5.5c-.6-.2-.3.4-.9.3.1-.4.9-1 .9-.3Zm-2.4.1c-.8.2-.1-.8-.9-.7.3-.7.7.5.9.7Zm-6 0c0-.2.5-.5.4 0 .1 0 .1-.1.3-.1 0-.4-.4-.4-.6-.5.2-.4.5.2 1 0-.3.8.5.4.6.5-.1.5-1.4.2-1.7.1Zm-8 7.1c0-.3 1.3-.5 1.1 0-.4-.3-.5.2-1.1 0Zm6.1-1.5c0 .3-.6 0-.9.1.1-.3.7-.3.9-.1Zm-1.4-1.8c.2 0 .1.3.1.5-.3-.1-.7.1-.9.4-.2-.5.6-.7.8-.9Zm-.8 2.7c.4.1-1.4.1-.1.3 0 .2-.4.1-.6.1.3-.5-.3-.9.4-.8-.1-.2-.3-.3-.5-.4.4-.3.9.3.6-.5h.4c.3.5-.9.9-.2 1.3Zm.4-1v-.6h-.2c.1 0 .2 0 .2-.1.6-.1 1.2-.1 1.3.4-.8-.3-1.3 0-1.3.3Zm1.5 2.5c-.4-.1-.8-.4-1-.8.6.2.4-.4.9-.4 0 .2-.1.4-.3.4.2.4.4-.4.7-.3-.2.5.6 0 .4.5-.5-.2-1 0-.7.6Zm-32.4-12.4c-.6-.2-.3.4-.9.3.1-.4.9-1 .9-.3Zm-2.4.2c-.8.2-.1-.8-.9-.7.3-.8.7.4.9.7Zm-6 0c0-.2.5-.5.4 0 .1 0 .1-.1.3-.1 0-.4-.4-.4-.6-.5.2-.4.5.2 1 0-.3.8.5.4.6.5-.1.6-1.4.1-1.7.1Zm-120.3.1c.3 0 .6 0 .6.4-.3.1-.5-.4-.6 0-.3 0 0-.2 0-.4Zm-1.8 4.9c.2.1.4.8.7 0 .3 0 .9-.2.7.3-.9 0-.9.3-1.4.5-.3-.1.2-.3 0-.8Zm0 18.5c-.2.6-.9 0-1.2-.1.4-.4.7.2 1.2.1ZM3 91.1c.3 0 .1.5.6.4.4.2-1 .1-.1.4-.2.4-.5-.3-.9-.3.1-.2.6 0 .4-.5Zm-.8-6.2c-.3 0-.3-.2-.3-.5.1 0 .1.2.1.3.4 0 .5-.2.6-.4.5.3-.3.4-.4.6Zm.8 7.2c-.1.4.1.5.1.8-.4-.3-.9-.5-1.4-.5.3-.6 1 .3 1.3-.3ZM.7 90.9c.2-.2.9-.5 1.2-.3-.3.3-.7.4-1.2.3Zm1.2 5.5c.5 0 .8-.2 1.4 0-.2.3-.6.3-.7.4.3.3 1.4-.4 1.8 0-.8.1-2.4.8-2.5-.4Zm3.3 3.5c.1-.6-.1-.8-.7-.7.2-.2.4-.5.6-.7-.1-.4-.5-.2-.9-.1.3-.2.6-.4 1-.5 0-.3-.4-.1-.4-.4-.4.1.1.3 0 .5-.1-.1-.4-.2-.4 0-.4-.1.1-.4 0-.7.2-.1.7.1.7-.1.6.7.2.3.9.4-.1.5-.3.9.3 1.1-.4.1-.4.5-1 .4.1.2.2.3.3.5.3 0 .4-.3.7-.3-.1.4.1.5.1.8-.4.4-.6-.4-1.2-.2Zm.9.9c-.2-.5.5-.1.4-.4.2.1.3.4.3.7-.2-.2-.2-.4-.7-.3ZM5.8 97c.2-.2.4-.3.6-.4.4 0 .6.3.9.5-.5.5-.9-.2-1.5-.1Zm.9-1.7c0 .2 0 .2.1.3 0 .3-.7-.1-.4.4-.5-.1-.3-.9.3-.7Zm.6-13.5c-.1.4-.4-.2-.7 0 .4-.7.7-1.6 1-2 .4.8-1.1 1.3-.3 2Zm-.2-2.6c.2-.4.9.3.9-.3.5.6-.6.7-.9.3Zm8.4 22.9c.2-.2.3-.4.4-.7.3 0 .3.3.3.7-.2.1-.5.2-.7.1v-.1Zm2.2 0c-.4-.1 0-.7-.7-.8-.1-.4.7.1.6-.3.2.3.3.8.1 1.2v-.1Zm2.1-7.1c.3.2.9.1.9.7-.4 0-.8-.1-.9-.5V95Zm3.8 5.6H23c-.1-.2-.2-.4-.1-.7.3.3.9.2.7.8v-.1Zm-1-8.9c-.2.3-1-.3-.6.4-.2 0-.3-.2-.3-.5.3 0 .6.1.9.2v-.1Zm-.9 3.4c.3 0 .3.2.3.5-.1-.1-.4-.2-.4 0-.1 0-.1-.3-.3-.3-.4-.2.5.3.4-.2Zm-.4 4.1c.5-.1.3.3.6.4-.2.5-.8.2-.5-.2l-.1-.2Zm.7 3c.1-.3.5.2 1 0-.2.3-.6.4-1 .2h-.1v-.2h.1Zm1-.5c-.1.1-.4.1-.4.3.2-.1.2-.2.4-.3.2-.1.2-.3.4-.3 0-.6-.4-.1-.7-.4.2-.5.5 0 .9 0 0 .3 0 .6-.1.8-.1.2-.4.2-.4 0l-.1-.1Zm.7 1c-.7 0-.7-.8.1-.7.1.3.1.6-.1.8v-.1Zm.9-2.7c-.3 0-.3-.3-.3-.7.4.1.5.7.3.7Zm4.3-30.8c0 .3-.6 0-.9.1.1-.4.6-.2.9-.1Zm-.1 33.7c-.1.3-.2-.1 0-.1 0-.5-.5-.5-.9-.7.5-.3 1.2.3 1.6.5-.1.4-.7-.3-.7.3Zm1.6 0c.1-.2.3-.3.4-.3.1.1 0 .5.4.4-.2.6-.6 0-.8-.1Zm114.2-15.7c-.2.5-.5-.1-.9-.1 0-.3.1-.4.1-.5.4 0 .2.7.8.6Zm-1.1-6.1c-.4-.1-.3.3-.4.4-.1-.1-.5 0-.4-.4.4.3.5 0 .5-.4h.3v.4Zm-1.6.6c.4.2 1 .8 0 .8.3-.3-.1-.4 0-.8Zm-11.9-5c0-.1.3-.2.5-.2-.1.1-.3.1-.4.2h-.1Zm1.4-.7s.1 0 .1.1l-.1-.1s0 .1 0 0Zm6.5 1.6c.3.2.3.2.7.1 0 .4-.3.4-.6.4-.1-.2-.2-.4-.1-.5Zm3.7 1.5h-.6c.2 0 .4 0 .4-.2 0-.1 0-.2-.1-.3h.1c.1.2.2.3.2.5Zm-3.2 1.9.1.1h-.1V81Zm.7 0c-.1.1-.2.1-.3.1.1-.1.2-.1.3-.1Zm.2-3.1h.1c.1 0 0-.1-.1 0Zm-2.5 0c-.2.7-.9-.3-1.4.1v-.3c.3-.1.6 0 .9.2 0 0 .1 0 .1.1s.1-.1.1-.1h.3Zm-1 1.7c-.1 0-.3 0-.4-.1.1-.2.3-.1.4.1 0 0 0-.1 0 0Zm-15.7 21.8c0-.1.3-.1.3-.3.1.4.6.4.6.9-.4-.1-.7-.3-.7.3-.3-.1-.4-.4-.4-.7.2.5.9-.2.2-.2Zm17.6-20c.1.4.7.4 1 .6h-.1c-.3-.1-.7-.1-1-.1 0-.1.1-.3.1-.5Zm2.1-.4c0-.1.1-.1.2-.2h.5c-.2.3-.5.3-.7.2Zm12.1.2c-.1.1-.1.2-.1.4-.1-.1-.3-.2-.3 0-.2 0-.1-.3-.1-.5.2 0 .4-.1.4-.3-.3-.2-1.1.1-1.6-.3.4-.7.9.3 1.8 0 .1.4-.8.6-.1.7Zm.4.2c-.2.2-.2.6-.7.5-.1-.3.2-.5.7-.5ZM150 80c0-.2 0-.5.2-.5v.5h-.2Zm-.5-.8h-.1c0-.1 0-.2.1-.3.2 0 .2.2 0 .3Zm-.9.4c-.1.1-.4.1-.6.1 0 0 0-.1.1-.2h.4c-.1 0-.1.1.1.1Zm-2.2 7.3c.2-.3 1.1 0 1.2-.4.4.3.2.4.7.1.1.1.2.3.1.5-.4-.1-1.4 0-2-.2ZM148 82c.2-.2.1-.6.3-.8.4.2-.1.5.1.8h-.4Zm.7-2c0-.1.1-.1.2-.1s.2.1.2.2c-.1 0-.3 0-.4-.1Zm1.3 1.7c.5 0 .8.9.1.8.1-.4-.3-.4-.1-.8Zm.1 3.6c0-.4.3-.6.3-1.1.3.2.2 1.2-.3 1.1Zm1.6 1.7c0 .3-.4-.2-.6-.1.1-.2.1-.5.6-.4.1.3-.5.4 0 .5Zm3.2-2.4-.9.4c-.4-.3.3-.3.1-.8.3.1.6.2.8.4Zm0-1.8c-.1.3-.5.3-.7.5.2.2.6.2.6.5s-.1 0-.1-.1c-.2.1-.5.2-.7.1-.1-.7-.2-.8-.1-1.4.3.1.6.2 1 .4Zm-1.1 1.1v.5c-.3 0-.3-.2-.3-.4h-.5c0-.3.5-.1.8-.1Zm0 2.1c-.1.5-.7.5-1.2.7 0 .2.2.3.1.5.3.1.5-.4.6 0 0 .6-.6 0-1 .1-.1-.2.4-.5 0-.7.5-.1.7-.5 1.5-.6Zm-1.8-3.5c.1-.3.7-.9.6-1.1.2-.4.4.2.6.3-.5.2-.6.8-1.2.8Zm1.2-1.9c.2.4-.9.2-.3.5 0 .1-.3.1-.4.1-.1 0-.1-.1-.1-.1.1-.3.4-.5.8-.5Zm-.9-.4c-.1 0-.2 0-.2-.1l.2.1c.1-.1 0-.1 0 0Zm-1.6-3.6c.1 0 .1.1.1.2 0 0 0 .1-.1.1 0 .2.1.1.1 0 .5.5-.8.8-.3 1.4-.7 0 0-.6-.1-.9 0-.1-.1-.1-.1-.3-.5.3-1.1.3-1.6.1.5-.6 1.5 0 2-.6Zm-7.8.5c-.2.4-.9 0-1-.1-.2-.1.8 0 1 .1Zm-1.2.3c.1.1.1.4.4.4-.1.1-.1-.2-.1.6h-.5v.1c0-.1-.1-.1-.2-.2s-.1-.3-.1-.4c.7.1.6-.1.5-.5Zm-2.5-.7c-.1 0-.1.1-.1.1.3 0 .6 0 .6.2l-.1.1h-.5c0-.2 0-.4-.2-.4.1-.1.2 0 .3 0Zm-4.8-1c0 .3-.4.3-.7.3-.1-.6.3-.4.7-.3Zm-1.5-.2c-.2.2-.1.2 0 .3-.4-.2-1-.3-.7.1-.4 0-.5-.1-.6-.3-.1-.2 0-.1 0-.1.6.3.5-.2 1.3 0Zm-1.8.6h-.3c.1 0 .2-.1.3-.1 0-.1-.1 0 0 .1Zm-1-.4c.6.2 0 .3 0 .7-.4 0-.8 0-.7-.4.2 0 .3.2.4 0 .2.1.3.1.3-.3Zm-.5-.2c.1.1.2.3.3.4-.1-.2-.4-.2-.6-.2.1 0 .2 0 .3-.2Zm-2.7.3c-.1 0-.1 0-.2.1-.1-.1-.2-.2-.3-.2.2-.2.3-.1.5.1Zm-19.2-3.4c.1 0 .1.1.1.2 0 0 0 .1-.1.1 0 .2.1.1.1 0 .5.5-.8.8-.3 1.4-.7 0 0-.6-.1-.9 0-.1-.1-.1-.1-.3-.5.3-1.1.3-1.6.1.6-.6 1.5 0 2-.6Zm-7.8.5c-.2.4-.9 0-1-.1-.2-.1.8 0 1 .1Zm-1.2.3c.1.1.1.4.4.4-.1.1-.1 0-.1.5h-.2c-.1-.1-.3-.1-.4-.2 0-.1-.1-.1-.1-.3.7.2.6-.1.4-.4Zm-1.9-.5c-.2.2-.1.6-.6.5 0-.3 0-.6-.3-.7.3-.5.4.3.9.2Zm-1.1.8-.6.1v-.2c.2.1.1.2.6.1Zm-1.8 0-.2.1h-1s0-.3.1-.4c.3.3.7.1 1.1.3Zm-2.6-2c0 .3-.4.3-.7.3 0-.7.4-.5.7-.3ZM88 72.6c-.4.1-.5-.1-.9-.1.1-.3 1.1-.4.9.1Zm-3.9-.6c-.3-.1-.4-.4-.7-.5.3-.5.7.1.7.5Zm-19.2 28h-.1c0-.1 0-.3.1-.4.1.1.2.2.2.3-.1 0-.2.1-.2.1Zm-.6-.3h.1v.1s0-.1-.1-.1Zm2.3 5.2H66c-.1-.2-.2-.4-.1-.7.3.2.9.1.7.7Zm-19.7-2.5.1.1c0 .1-.1.2-.2.2-.2-.1 0-.2.1-.3Zm1.3 1.7c.1-.6-.1-.8-.7-.7.1-.2.3-.4.5-.5.3 0 .7-.3 1.1 0-.2.3-.7-.1-.7.1.1.1.3.2.5.2-.2.1-.4.2-.6.1.1.2.2.3.3.5.3-.1.4-.3.7-.3-.1.4.1.5.1.8-.4.4-.5-.3-1.2-.2Zm.9 1c-.2-.5.5-.1.4-.4.2.1.3.4.3.7-.1-.2-.2-.5-.7-.3Zm9.4 1.4c.2-.2.3-.5.4-.8.3 0 .3.3.3.7-.2.1-.4.2-.7.1Zm2.2 0c-.4-.1 0-.7-.7-.8-.1-.4.7.1.6-.3.1.4.2.8.1 1.1Zm3.6-2.9c.5-.1.3.3.6.4-.2.4-.8 0-.6-.4Zm.7 3.1c.1-.3.5.2 1 0-.2.2-.6.3-1 0 0 0 .1 0 0 0Zm1-.6c-.1.1-.4.1-.4.3.3 0 .3-.2.4-.3.2-.1.2-.3.4-.3 0-.6-.4-.1-.7-.4.2-.5.5 0 .9 0 0 .3 0 .6-.1.8-.1.2-.4.1-.5-.1Zm.8 1.1c-.7 0-.7-.8.1-.7.1.2 0 .5-.1.7Zm.8-2.7c-.3 0-.3-.3-.3-.7.4-.1.5.4.3.7Zm4.2 2.7c-.1.3-.2-.1 0-.1 0-.5-.5-.5-.9-.7.5-.3 1.2.3 1.6.5-.1.3-.6-.3-.7.3Zm1.6 0c.1-.2.2-.3.4-.3.2.1 0 .5.4.4-.2.6-.5 0-.8-.1Zm16.3-.3c0-.4.3-.8.6-.5-.3 0-.1.5-.6.5Zm3.7-1.7c-.5-.3.3-.4.3-.6.5.2-.3.3-.3.6Zm1.7 0c.2.2.5.2.6-.1.4 0-.4.4.1.4 0 .2-1 .2-.7-.3Zm.7.8.4.4c.4 0 .2-.5.4-.7.8.8-1.2 1-.8.3Zm7.6 0c-.6.3-1.5-.3-1.7.4-.2-.1-.2-.6-.3-.8.4.1 1 0 1.2.4.4-.3.9-.5.6-1.1.6-.1.3.4.9.1-.2.5-1 .2-.7 1Zm.3-2.9c-.1-.5.8-.2 1.1-.3-.2.5-.6 0-1.1.3Zm3 2.4c-.4 0 .2-.2 0-.5.5-.2.1.4.6.3-.1.4-.6-.1-.6.2Zm.1-1.4c0-.2.4-.1.6-.1 0 .3-.7.9.1.8-.3.7-.6-.4-.7-.7Zm.9.3c-.1-.4.3-.4.1-.8.2.2.5.8-.1.8Zm8.2-1.4c-.2-.1 0-.2-.1-.5.2 0 .5 0 .6-.1.3.2-.4.4-.5.6Zm1.4-.4c.4-.3.5-.5-.1-.7.1-.4.4.2.7 0-.1.4.1.5.1.8-.4.4-.4-.1-.7-.1Zm1.9-1.7c.7-.6.2.6.4.7-.9.4.2-.5-.4-.7Zm1.4 2.4c-.3-.2-.7-.2-.7-.7.4 0 .7.1 1 .3-.1.2-.3.2-.3.4Zm.4-.2c-.1-.4.3-.5-.1-.7-.1-.4.7.1.6-.3 0 .4 0 1-.5 1Zm.6-1.2c.7-.7-.4-.8-.6-1.4l.9.3c-.2.7.4.6.3 1.2h-.6v-.1Zm1.9-1v-.4c.3 0 .6.1.9.3-.3.2-.6-.2-.9.1Zm11.9-1.2c-.4 0-.3-.5-.1-.7.3.1.1.4.1.7Zm1-.7c-.3 0-.1.5-.6.4 0-.3.3-.4.1-.8.5-.1.2.4.6.4-.1.2-.2.1-.1 0Zm.8-9.8c-.1-.7.6.2.7-.3.6.5-.4.6-.7.3Zm.7 10.2c0-.1.2-.1.3-.1.1 0 .1-.6.7-.4-.2.3-.4.6-1 .5Zm.6-14.6v.4c-.2 0-.1-.3-.1-.5.3-.1.7-.4 1-.1-.2.5-.5.1-.9.2Zm1 3.4c-.1-.4-.2-.6.4-.5 0 .2 0 .5-.4.5Zm.6-4.8c-.1 0-.3.1-.3.3-.4-.3.5-.5.7-.7.4 0-.2.4-.1.5 0 .2-.2-.1-.3-.1Zm.3 4.8c0-.2.2-.3.3-.5.4 0 .2.7-.3.5Zm.8-5.4c-.2 0-.2-.2-.4-.3.5-.5-.1-.7.1-1.1.5.3.6.9.3 1.4Zm2.3-.2c0 .5-.8-.1-.9.5-.4-.3-.4-.1-1.2-.1.3-.6 1.6-.4 2.1-.4Zm-.1 4.3c0 .2-.3.2-.3.4-.4 0-.3-.2-.7-.1.3-.4.6-.1 1-.3Zm-.7-3.5c.2.2-.6.6-.9.8 0-.5.5-.6.9-.8Zm.6 15h-1.2c.4-.3-.3-.1-.1-.7.3-.2.3.1.7 0 .1.4-.3.3-.3.5.8 0 .5-.2 1.1-.4.1.3-.3.2-.2.6Zm-.5-8.9c0-.3.5-.1.4-.4.2 0 .1.3.1.5-.2.1-.3 0-.5-.1Zm-.1-.4c-.3-.2.3-.6.4-.8.1.5.9-.2 1.2.1-.3.5-1.5.1-1.6.7Zm1.4-1.3c.5 0 1 0 1 .4-.7-.2-.3.1-.3.5-.3 0-.2-.6-.7-.9Zm1.2 10.4c0-.1 0-.2-.1-.3.1-.5.4-.1.7 0-.1.2-.4.4-.6.3Zm4.5-.7c-.4 0 .2.2 0 .5-.7.1-1.3.2-2 .1-.2-.3 0-.2 0-.5-.4 0-.2.6-.7.5.2-.4-.6-.4-.4 0-.3 0-.3-.2-.6-.1-.1-.2 0-.5.1-.6.5-.1.4.3.9.3.5-.1.1-.4.3-.5.2-.1.1.2.1.4.3-.1.2-.5.7-.4 0 .4-.5.5-.1.8.5-.1.7-.6 1.2-.1.2-.2-.3-.3 0-.8.1.1.5.7.7.3.4.1.3.5.4.8-.6.1 0-.8-.6-.7Zm2.9-6.7v.5c-.4 0-.5-.4-.6-.7.2.2.4.2.6.2Zm-.6-1.2c.4.2.2.5.1.9-.1-.1-.3-.1-.4-.1 0-.3.5-.2.3-.8Zm-1.2 1.3c.1-.4.4.2.7 0 0 .1-.1.1-.1.3.3.1.3-.2.3-.4.2.2.6.4.3.7-.2-.2-.6-.1-1-.1 0-.2 0-.4-.2-.5Zm1.9 7.8c-.2.5-.7 0-1.1.3.4-.3.4-.3.4-.8-.3 0-1-.3-1-.1v-.4s.1.1.1.3c.2-.1.1-.4.2-.7.4.3 1.2.1 1.3.8-.3 0-.4-.3-.7-.3.4.5.1.8.8.9Zm5-4.1c-.3.5.1.3.1.8-.5.2-.7-.9-.1-.8Zm-.4-.6c-.2-.3.4-.5 0-.7 0-.2.3-.1.4-.1.2 0 0 .1.1.1-.4.1-.1.8-.5.7Zm1.3.9c-.3-.1.1-.7.4-.7.1.5-.4.4-.5.7h.1Zm16.3-.5c-.1.4.2.3.1.7-.6.1-.9-.7-.2-.7h.1Zm-4.4-5.4c.4.2.5.4.1.7-.5 0-.4-.5-.2-.7h.1Zm-.9.3c.2 0 .1-.4.6-.3 0 .2 0 .5-.1.7h-.4c-.2-.1 0-.5-.3-.5-.1-.3.2-.2.2.1Zm0 1s.7 0 1 .1c.3.1.3-.3.6-.3 0-.3-.5 0-.7-.1-.1-.5.8-.2.9-.1-.3.5.1.6.6.4 0 .4-.4.4-.3.9-.2-.2-.8-.7-.9 0-.5-.9-.5.5-.9-.4-.2 0-.3.2-.3.4-.3-.1-.5-.2-.4-.7.1.3.7.1.4-.2Zm-.4 1.7c.5.1 1 .2 1.4.3 0 .2-.9.2-.1.3-.2.3-.5.4-.8.3-.2-.1-.3-.2-.3-.4-.2.1 0 .4-.3.7-.4-.4-.4.2-.9.1-.1-.1-.1-.2-.3-.3.1-.5 1.2-.3 1.3-1Zm-2.5.2h.4c-.8.5.6.3.1.8-.2-.1-.3-.4-.7-.3.4-.3.1-.2.2-.5Zm-1.9-1.4c-.3.4-.6.1-1.2.1.2-.3.7-.2 1.2-.1Zm-2.1-.6c.5 0 .1.7.4.9-.1.3-.3-.3-.6-.3.1-.3-.1-.2.2-.6Zm-2.1 3.5c.2-.3.3.3.7 0 0 .5-.7.4-.7.8-.7-.5.4-.5 0-.8Zm-1 2c0-.2 0-.5-.1-.5 0-.2.9 0 .7.4-.2.1-.4.2-.6.1Zm0-.9c-.3-.3-.3-.5 0-.8.2 0 .4.2.1.3 0 .2.3.1.4.1-.1.4-.4.4-.7.4h.2Zm1.8.7c-.9 0-.4-.6-1-.7.1-.2.5-.2.7-.3 0 .3.7.6.3 1Zm-.5-2c0-.1 0-.2-.1-.3.6-.3-.5-.9.4-.9-.4.3.2.6.3.1.2.3-.3.9-.7 1.1h.1Zm2.2 1.6c.1-.1.2-.3.1-.5 0 0 0-.1-.1-.1-.2.3-1 .1-1 .7-.4 0-.3-.6-.6-.8.4-.5 1.5-.3 1.6-.9.3.1.3.5.7.5-.3.4-.2 1-.7 1.1Zm1.4-.6c-.1.4-.1.3-.4.4-.3-.2.1-.3-.1-.7.6.1 1.4.1 1.4.8-.2-.4-.9-.1-1-.5h.1Zm1.3-1.4h-.7c0-.4-.2-.3 0-.5.1 0 .1.2.1.3.3 0 .3-.2.6-.1 0-.2 0-.2-.1-.3.3-.4 0 .4 0 .7h.1v-.1Zm.9 1.3c.1.4-.1.5-.1.8-.3.1-.1-.8-.3-.3-.1-.3-.2-.5-.3-.8.6.5.5.1 1.4 0-.1.4-.6.5-.8.2l.1.1Zm1.3.4c-.2-.3 0-.2 0-.5-.5.2.1.7-.6.7 0-.4.3-.5.1-1.1.5.1.4-.3.9-.3-.7.4.2 1.2-.7 1.2h.3Zm.7 1.5c0-.3.5-.3.9-.3-.3.5-.7.4-1.1.2l.2.1Zm1.5-2.1c-.6.2-.9 0-1.4.1 0-.3.1-.4.1-.5.2 0 .2.2.4.3 0-.4-.2-.3 0-.5.5.1.6-.2.9 0-.5.5-.5.1-.2.7h.2v-.1Zm.6-1.1c0 .2.2.3.1.5-.5.1-.4-.2-.7-.3-.2-.2 0-.3.4-.3h.2v.1Zm.1.9c-.1 0-.3.1-.3.3-.4-.1.1-.3 0-.5.4 0 .8 0 .7.4-.5 0-.5-.2-.7-.2h.3Zm.4-.4c-.6-.4 0-1.1-.3-1.7.1 0 .1.2.1.3.3 0 .3-.2.6-.1-.1.1-.2.2 0 .3-.9.2-.4.9-.7 1.3h.3v-.1Zm.2-.5c0-.5.7-.4.7-.8l1 .1c-.1.5-.4.1-.9.1-.1.4.3.3.4.4-.7.3-1.1 0-1.6.1h.4v.1Zm1.3 1.3c-.5.4-.9-.3-1-.7.7 0 .5.3.4-.4.6.3.7-.5 1.4-.4 0 .2.1.4.3.4-.3.2-.3.3-.1.7-.4.1-.8.4-1 0-.5 0-.5.4-.3.4h.3Zm.6-2.8c.3.1.6.3.7.7-.6.3-1.1-.2-1-.7h.3Zm-.4 3.5c.3-.2.5-.5.6-.8.4 0 0 .4-.1.4 0 .3.6 0 .7.3-.4.4-.9-.1-1.4.1h.2Zm1.1-.7c.3-.1-.1-.8.4-.7-.3.3-.3.7-.7.6l.3.1Zm2.9-3.8c-.1.2-.4.3-.7.3 0-.2-.2-.3-.1-.5.3 0 .3.1.1.1-.1.4.3-.2.4.1h.3Zm-.9-1.2c.2.4-.6.8-.9 1.2-.3 0-.2-.4-.4-.4.4.1.4-.6 1-.8h.3Zm-2.1-.6c.5.1.9-.4 1.1 0-.1.3-.4.4-1.1.4v-.4Zm-.3 1.4c-.2.3-.3.2-.1.7-.3 0-.7-.6-.9-.3-.6-.5.3-.6.7-.5l.3.1Zm-.7-1.4c-.3.3-.7.5-1.2.4-.1-.4.7-.5.9-.4h.3Zm-2.7-6.2c.3 0 .4.1.6.1-.1.4-.6.2-.3.7-.1-.1-.3-.1-.4-.1.1-.3 0-.5-.2-.7h.3Zm.7.2c.4 0 .4.3.4.5-.3.1-.4-.1-.6-.1 0-.2-.1-.3-.2-.4h.4Zm.1 2c0-.4.7-.3.6.3-.5-.1-.7-.2-.9-.3h.3Zm-.2-1c-.2 0-.4 0-.4.1.1.1.2 0 .4-.1.5-.1 1 .1 1 .4-.4.3-.9.2-1.2-.2-.1-.1-.1-.2-.1-.3l.3.1Zm1.1 0c.5-.6.7.2 1 .7-.8-.1-.8-.7-1.4-.7h.4Zm.7-2.7c.1.1.2.2.1.4.2.2.5.2.7.4-.6.4-1.1-.3-1-.9.2-.1.4-.2.6-.1 0-.2-.2-.2-.3-.4-.1.5-.9.4-1.4.5.1.1.3.1.3.4.2 0 .1-.2.1-.4.3 0 .4.1.6.1-.2-.3-.4.3-.2.5-.5.2-.8 0-1.4-.5.8-.1 0-.7-.1-1.2.5.2 1.1.3 1.6.4.2 0 .2-.4 0-.4 0-.2.4 0 .4-.3.1.2.6.9.6.1.6.2 0 .3 0 .7 0 .4.4-.2.6.1 0-.2-.1-.3-.3-.3.1-.2.5-.2.7-.3-.4.8-1.2.9-1.9 1.1l.3.1Zm3.4 2.9c0-.2.2-.3.3-.4 0 0 0-.1.1-.1s0 .1-.1.1c0 .2.4.2.3.5-.6.1-.7-.1-.9-.1h.3Zm5.4-1.5c-.3-.4-1.6-.4-2 .1.3 0 1.2-.1 1.4.7-.3 0-.3-.2-.6-.1 0 .2.5.1.3.5-.7.1-.5-.7-1-.8-.1.3-.4.5-.4.9-.4.1-.7-.5-.1-.4 0-.2-.8-.2-.6.1-.2-.4-.2-.3-.6-.4-.1.1-.3.2-.5.2 0 0-.3 0-.3.1s.2-.1.3-.1c-.1-.2-.3-.3-.6-.2.1-.2.4-.3.6-.3-.1-.3-.7 0-.6-.5-.1.2-.7.8-.4.9-.6.4-.3-1.1-1.2-.9 0-.3.1-.4.1-.5.4-.1.7.6.7 0 .5.3.9 0 1.4.4.2 0 .1-.2.1-.4.5.6 2.1-.4 2.5.4.1-.5.7-.1.7-.5.8.4 1.4-.2 2.5.1 0 .1-.1.1-.1.3 0 .2-.1 0-.1.1-.8-.6-1.2.2-1.7.3h.2Zm9.5 1.4c.1-.4.5-.2.9-.1-.4.3-1 .1-1.3.1h.4Z" fill="url(#h)"/><path d="M168.7 86.899s-.1 0-.1-.1c.1.3-.5.5-1 .7l1.1.1c0-.2 0-.4-.2-.5.2-.1.2-.1.2-.2Z" fill="url(#i)"/><path d="m27.3 94.401.4.3c.1.1 0 .1-.1 0l-.4-.3-.3-.1-.4-.2c-.5-.3-1.1-.5-1.7-.7-.6-.1-1.1-.2-1.7-.2H22c-.2 0-.3.1-.5.1l-.1.2-1.1 3.1-.5 1.1-.4.7c-.5 1-1.3 1.8-2.2 2.5-.5.4-1.2.6-1.8.6h-.6c-.2 0-.4-.1-.6-.1-.4-.1-.7-.3-1-.6-.5-.6-.7-1.3-.7-2s.2-1.3.5-1.9c.6-1 1.4-1.8 2.3-2.4 1.3-.8 2.8-1.4 4.3-1.6.4-1.2.8-2.9 1.4-5.1l.1-.2v-.1H21v-.3c0 .1-.1.1-.1.2l-.1.2-.6.6v.1c-.3.4-.7.7-1.1 1l-.5.5-.6.5c-.1.1-.1.1-.1.2-.4.3-.9.6-1.4.9l-.4.2-.6.3c-.4.2-.9.2-1.4.1-.4-.1-.8-.3-1.1-.7-.3-.3-.4-.8-.4-1.2v-1.1c0-.1 0-.2.1-.3.1-.3.2-.6.3-.8.4-1 1-1.9 1.6-2.7.3-.4.7-.9 1.1-1.2l.3-.3.4-.3c.2-.2.5-.3.7-.5l.5-.2c.2-.1.5-.1.7-.2h.9c.3 0 .7.2 1 .3.3.2.5.5.7.8-.1-.2-.3-.4-.6-.6.3.2.5.5.6.8v.3l1.1-1.4c.4.1.8.2 1.2.1l.1.1.1.1.1.1.5.5-.7 3.8-.6 2.4-.9 3c1.9 0 3.8.4 5.5 1.4h-.1l.2.1.1.1h-.2Zm-9.5 3c.5-1 .9-2.1 1.2-3.2v-.4c-.3 0-.5.1-.8.2.2 0 .1.1-.1.2l-.4.2-.2.1-.3.1-.9.6c-.3.2-.4.3-.3.4-.7.4-1.2.9-1.7 1.4-.5.5-.7 1.3-.6 2 .1.4.3.7.7.9.2.1.4.1.5 0 .2 0 .4-.1.6-.2 1.1-.5 1.8-1.3 2.3-2.3Zm1.9-12.3 1.1-1.3c-.1-.5-.5-1-.9-1.2-.2-.1-.5-.2-.8-.2h-.7H19.3l.2.1c.1 0 .1.1-.1 0h-1c-.5.1-.9.3-1.4.6l.3-.1.3-.1.3-.1h.1c-.1.1-.2.1-.3.1h-.3l-.3.2-.6.3-.4.3s.1 0 .2-.1h.1l.1-.1.3-.2c.2-.1.5-.3.7-.3.1-.1.3-.1.5-.1-.5.1-.9.4-1.4.7l-.4.3c-.1.1 0 .1.1 0l.1-.1.1-.1.3-.2.6-.3c.2-.1.3-.1.3-.1-.5.2-.9.5-1.4.9.3-.2.4-.2.4-.2h.2c.3-.2.6-.2.9-.2.1 0 0 0 0 .1l-.1.1h.3l-.1.1-.4.3-.1.1h-.1c-.1.1-.2.2-.4.3-.3.3-.6.6-.9 1l.4-.4.4-.4c-.5.7-1 1.4-1.4 2.2-.2.4-.4.9-.6 1.4 0 .1-.1.2-.1.4V89.101H15c.5-.3.9-.6 1.4-1l.3-.2c.6-.5 1.1-1 1.7-1.5l.5-.5.4-.4.4-.4Zm1.2-1.4c-.1-.6-.6-1-1.1-1.2.1 0 .3.1.4.2.1.1.3.2.4.3.1.2.2.5.3.7Zm-.7-1.1c-.1-.1-.2-.1-.3-.2.1.1.2.2.3.2Zm13.1.9s0 .1.2 0h.2c-.1.1-.3.2-.5.2l-.2.1-.2.1-.3.1c-.9.4-1.4.8-1.4 1.1 0 0-.2.1-.5.1V86.601s0 .1 0 0c-.1.9-.4 1.7-.8 2.5-.3.4-.6.8-1 1.1v.1c-.5.4-1.1.8-1.8.9-.1 0-.1 0-.1.1-.4.1-.7.1-1.1 0-.4 0-.8-.2-1.1-.4-.4-.2-.7-.5-.9-.9-.2-.3-.3-.7-.4-1-.1-.6-.1-1.2 0-1.8.1-.5.3-1 .5-1.4.2-.4.4-.7.7-1l.1-.1.1-.1c-.3-.3-.4-.8-.3-1.2.1-.4.3-.8.7-1.1.3-.2.7-.4 1-.5.4-.1.7-.1 1.1-.1.4 0 .7.1 1.1.3l.9.6c.5.5.9 1.1 1.1 1.9v.1c1.1-.4 2-.7 2.9-1.1Zm-6 5.4c.3-.3.5-.6.7-.9.3-.6.5-1.3.6-2-.8-.1-1.5-.2-2.2-.6-.3-.1-.5-.2-.7-.4-.2-.1-.4-.3-.5-.5-.2.2-.3.5-.4.7.1-.1.2-.3.3-.4v.1c0 .1 0 .2-.1.4v.3l-.1.4c0-.1.1-.2.1-.3 0-.1.1-.2.1-.1 0 0 0 .2-.1.4l-.1.1-.1.1c0 .1 0 .2-.1.2s.1-.1.2-.4l.2-.4c0-.1.1-.2.1-.2-.1.1-.1.3-.2.5l-.1.2-.1.2c0 .1.1 0 .2-.3v-.3c0-.1.1-.1.1-.1l-.3.7c.1-.1.1-.2.2-.2h.1l.2-.2.1-.1.2-.1c.1 0 .1.1 0 .5 0 .1 0 .3-.1.4v.7c.1-.2.2-.3.2-.5v1.2c0 .5.1.8.3.9.1.1.2.1.3.1h.6l.2-.1c.1.2.1.1.2 0Zm-2.3-4.3-.1.2.1-.1v-.1Zm.1 0-.1.3c0-.1.1-.2.1-.3Zm1.4-1.1.3.3c.5.3 1.1.5 1.6.5l-.3-.6c-.2-.2-.5-.4-.8-.5-.2-.1-.5-.1-.7 0h-.1v.3Z" fill="#fff"/><path d="M43.6 91.6c-.1 0-.1.1-.2.1h-.2c-.1 0-.2-.1-.3-.2-.1-.1-.2-.1-.2-.2-.1-.1-.1-.2-.2-.3l-.3-.5c-.1-.2-.3-.4-.4-.5 0 0-.1-.2-.1-.6v-1c0 .1-.1.1-.2-.1s-.1-.4-.1-.6c0-.2-.1-.4-.1-.6 0-.1-.1-.1-.2 0 0-.2 0-.5.1-.7l.2-1.6v-.2l-.1.2-.5 1.1-.5.9-.3.5-.1.2-.1.1v.1l-.1.1c-.2.3-.5.5-.8.7-.3.3-.7.4-1.1.5-.5.1-1.1 0-1.5-.2-.4-.2-.7-.5-.9-.9l-.6-.9v-.2.1c0-.1 0-.2-.1-.2v.4c-.1.3-.2.6-.3 1-.3.7-.7 1.3-1.1 1.9-.3.7-.7 1.3-1.1 1.9-.5.6-1 1.2-1.7 1.6-.2.1-.5.2-.8.3-.3.1-.7.1-1.1.1h-.5.6H27.8h.6-.7.9c.3 0 .6-.1.8-.2-.2.1-.4.1-.7.1-.1 0-.1 0 0-.1.1 0 .1-.1.2-.1l.1-.1h.2c.3-.1.6-.3.8-.5-.1.1-.2.2-.4.2-.1.1-.2.1-.2.1s0-.1.2-.1h.2l.2-.1c.2-.1.4-.3.6-.4l-.2.1h-.2c-.1.1-.1.1-.2.1-.1.1-.3.2-.5.3-.1.1-.2.1-.3.1l.6-.3.3-.2.3-.2h-.1l-.1.1h-.1l-.1.1c-.1.1-.2.2-.4.2-.1 0-.2.1-.2 0l.9-.6c-.2.1-.3.1-.3.1h-.2l-.4.1h-.3v-.1l.4-.4.1-.2.1-.1c.2-.2.4-.4.5-.6l-.6.4c.3-.5.6-.9.8-1.5.3-.7.6-1.3.8-2l.4-1.2v-.3l.2-.6.3-1.1.1-.5c0-.4.1-.7.2-1.1l.2-1.5c.3 0 .5-.1.8-.2.1 0 .1-.1.2-.1l.1-.1c0 .1.1.2.3.3l.9.3c0 .3.1.7.1 1 .1.3 0 .3.1.4l.1.4c.1.5.2.9.4 1.4.1.4.3.8.4 1.2l.1.2v.1l.1.3c.1.2.3.5.5.6h.1c.2-.1.4-.2.5-.3.2-.1.4-.3.5-.5l.2-.2.1-.1.1-.1.4-.5.6-.9c.3-.6.6-1.1.9-1.7l.9.2h.6l.8.2L42 88v2.1c0 .5.1 1 .3 1.5 0 .1.1.1.1.2h.2c-.1 0 0 .1.1.1h.2l.7-.3Zm10.9-5-.3.2-.2.1-.3.3c-.3.2-.5.5-.7.8-.3.4-.6.9-.8 1.4-.1.2-.1.4-.1.6 0 0-.1.2-.4.4-.2.2-.5.3-.7.4.1 0 .1.1 0 .2s-.3.2-.4.2c-.1.1-.3 0-.4-.1l-.1-.1v-.2c-.1-.2-.2-.3-.3-.3-.1-.5-.1-1-.1-1.5v-2l-.1.2v.1l-.1.2-.5.7-.1.1-.1.1-.2.3v.1c-.3.4-.6.8-1 1.1-.2.2-.4.4-.6.5-.1.1-.2.2-.4.3l-.6.3c-.4.2-.9.3-1.4.2-.4 0-.8-.2-1-.5h-.1c-.3-.4-.5-.8-.5-1.4V87.7c.2-.6.4-1.2.7-1.8.3-.6.6-1.1.9-1.6.4-.5.8-1.1 1.2-1.5.3-.3.5-.5.9-.7.4-.3.8-.4 1.2-.5h.4c.2 0 .4.1.6.1.2.1.5.3.7.5.1-.2.2-.5.2-.7l2.1.7-.2.9c-.1.3 0 .2 0 .4v.3l-.5 3.7v2c.3-.2.6-.5.8-.7l.4-.5.2-.2.2-.3 1.1-1.1v.1l.1-.1h.1c.1 0 .2-.1.4-.1Zm-7.5.8c1.1-1.4 2-3 2.6-4.6h-.1l-.3-.1c-.3-.1-.5-.1-.8 0H49h-.7c-.1 0-.3 0-.4.1-.1 0-.2.1-.3.1h.4l.2-.1h.5c.2 0 .3.1.3.1-.2-.1-.5-.1-.7 0-.2.1-.4.1-.6.2h.1l.2-.1c.1-.1.3-.1.4-.1h.2c-.3 0-.7.1-1 .2h.3s.1.1.2.1.2 0 .3.1c.1 0 .1.1.2.1 0 0 0 .1-.1.1l-.2.1-.2.1c-.2.1-.4.3-.5.4.2-.1.4-.2.5-.3-.3.3-.6.7-.8 1.1-.3.5-.7 1.1-.9 1.7-.3.6-.6 1.2-.8 1.9v.4h.2l.1-.1.3-.2.5-.5.3-.7Zm2.7-4.8c-.2-.2-.4-.3-.6-.4.1.1.3.2.4.3l.2.1Z" fill="#fff"/><path d="M67.1 79.5c-.2.1-.4.1-.5.2-.1.1-.2.2-.4.3l-.3.3c-.3.4-.5.8-.7 1.2-.1.4-.2.8-.3 1.1-.1.2-.1.5-.1.7 0 .2 0 .5.1.7 0 .2-.1.4-.2.6l-.4 1.1c.2-.1.2.1 0 .9v.4l-.1.4v.3l-.8 1.6c-.2.3-.3.5-.5.8-.1.1-.2.2-.3.4-.1.1-.3.2-.4.3-.4.3-.9.4-1.4.4-.5-.1-.9-.5-1-1-.1-.2-.1-.4-.1-.6 0-.1 0-.3-.1-.5s0-.5-.1-.9v-.6l-.2.4-.1.2-.1.2-.4.6c-.1.1 0 .1 0 .1-.6.9-1.3 1.8-2 2.7l-.8.6c-.3.2-.6.5-1 .6l-.1.1h-.9c-.5-.1-.9-.5-1.1-1-.1-.2-.1-.3-.1-.5v-1.1h-.1c.1-.7.3-1.5.5-2.2l.3-1 .3-1 .6-1.9.5-1.9v-.6c.1-.2.1-.5.1-.7v-.3.4-.5c.1.2.1.3.1.5v-.5c.1.2.1.3.1.5v.6c0-.2.1-.3.1-.5h.1v.5c0 .3 0 .6-.1.9l-.1.2v.5s.1-.2.2-.6v-.5c0-.1 0-.2.1-.3v.7c0 .2-.1.4-.1.7 0 .1 0 .1 0 0s0-.2.1-.4v-.6c0 .3-.1.7-.2 1.1.1-.2.1-.3.2-.3 0 0 0-.1.1-.1l.1-.2.1-.2c0-.1.1-.2.1-.3 0 0 .1 0 .1.1v.7c-.1.6-.2 1.1-.4 1.6l.3-.8c-.1.7-.2 1.3-.3 2l-.9 3.6-.2 1.1c.2-.2.5-.4.7-.7l1-1.2c.7-.9 1.3-1.9 1.9-3l.8-1.5.3-.7c.1-.2.1-.2.1-.3v-.1h1.9v.1h.2l-.2 2.7V89.5h.1c.1-.1.2-.2.2-.3.3-.5.6-1 .8-1.5l.7-1.8.3-.9.3-.9.7-1.9c.1-.3.3-.7.4-1 .1-.2.2-.4.3-.5l.1-.1.1-.1.3-.3c-.1.1-.1.1 0 .1l.1-.1c.1-.1.2-.1.3-.1l.3-.1h.1l.9-.5Zm7.3 7.4s0 .1-.2.2v.1l-.2.1-.1.1c-.2.3-.2.7 0 1 0 0 0 .1-.1.2l-.3.3c.1 0 .1.2 0 .4v.4l-.4.4-.3.2c-.1.1-.2.1-.2.2l-.3.3c-.1.1-.2.2-.4.3-.3.2-.8.4-1.2.3-.4 0-.8-.2-1-.6-.2-.4-.4-.8-.4-1.2 0-.3-.1-.6-.1-.9v-.8h-1.1l-.2-.1v.1h-.8c-.1.5-.2.9-.2 1-.4 1-.6 2.1-.6 3.1h-.1v-.1.2-.1c-.1-.3-.3-.4-.6-.5v-.4c-.1 0-.2 0-.3-.2v-.2c0-.1-.1-.1-.2-.1v-.2l-.3-.3c0-.1.1-.3.1-.4v-.6c0-.3.1-.7.1-1.2V86c0-.3.1-.5.1-.8l.2-.4h-.1c0-.1 0-.2.1-.2v-.2l.6-1.9s0-.1.1-.1l.1-.1.1-.1.1-.1v.1-.1.2-.1.4c.1-.1.2-.2.2-.1v.4-.1V83.1s.1 0 .1-.1v-.1V83.2l.1-.1V83l-.1.3h.5c.1 0 .1.1.1.2v.4l.2-.2v.5c0 .4-.1.9-.2 1.3v.1c0 .2-.1.5-.2.9h.8l.9.1h.5v-.3c.1-.1.1-.2.1-.3h.4c.2-.9.5-1.8.9-2.7 0-.1.1-.2.2-.2V83l.1-.1.2-.1-.1.2c0-.1.1-.2.1-.2 0 .1-.1.2-.1.3l.1-.1.3-.7v-.1l-.1.1v.1l-.1.2c.3-.3.3-.2.2.4v-.2V83.1s.1 0 .1-.2v-.1s0-.1.1-.1v.2c0 .1 0 .1-.1.2 0 0 .1 0 .1-.1v-.1s0-.1 0 0l-.1.4h.6c.1 0 .1.1.1.3v.5l.2-.2v.7c0 .3-.1.6-.1.8-.1.3-.1.6-.2.9v.3h.7v.1h-.1c-.2.1-.3.4-.3.6H72c0 .1 0 .2-.1.3h-.1V87.9c-.1.3-.3.6-.4 1v.8l.1-.1c.3-.2.6-.5.9-.7l1.6-1.8h.3l.1-.2Z" fill="#fff"/><path d="M83.1 90.6c0 .1-.1.1-.1.2l-.2.201-.6.3c-.2.1-.4.1-.6.1h-.4c-.2-.1-.4-.1-.6-.1l-.1-.1c-.1-.1-.1-.2-.2-.3-.1-.3-.2-.6-.2-.9 0 .1-.1.1-.2 0-.1-.2-.2-.4-.2-.6V89c0-.1 0-.2-.1-.4-.5.8-1.1 1.6-1.7 2.3l-1.5 1.5c-.6.5-1.2.9-1.9 1.3H74c-.2 0-.4.1-.5.1-.5 0-1-.1-1.4-.4-.2-.2-.3-.4-.4-.6.1.1.2.2.3.4-.1-.1-.3-.3-.4-.5v-.2c.1.3.4.5.6.7l-.3-.3-.2-.3v-.2c.1.2.2.3.3.4l.4.4c.3.2.7.3 1.1.3-.2 0-.4 0-.6-.1l-.2-.1c-.1-.1 0-.1.1-.1h-.1.4c.3 0 .6-.1.9-.3-.1.1-.2.1-.4.1h-.2c.1-.1.1-.1.2-.1h.1l.2-.1.2-.1c.2-.1.5-.2.7-.3h-.4l-.2.1c-.2.1-.3.2-.5.2h-.3c.2 0 .5-.1.7-.2l.3-.2.1-.1h-.2c-.1.1-.3.1-.4.2h-.2c.4-.1.7-.3 1-.5-.2.1-.3.1-.4 0h-.2c-.2.1-.4.1-.6 0v-.1l.2-.1h.1l.2-.1.2-.1h.1l.1-.1c.2-.2.5-.3.7-.5l-.3.2-.3.2c.4-.4.8-.9 1.2-1.4l1-1.4c-.4 0-.8 0-1.1-.2-.6-.2-1-.7-1.2-1.4-.2-.5-.2-1-.1-1.6 0-.5.1-.9.3-1.4.1-.3.3-.5.4-.8V83l.2-.3c.4-.6.9-1 1.5-1.4.1 0 .1-.1 0-.1.7-.4 1.5-.6 2.2-.5.4.1.9.3 1.2.6.3.3.6.6.8 1 .1.2.1.4.2.6V83.6l.6.2c-.6 1.7-.9 3.4-.8 5.2 0 .2 0 .4.1.6 0 .1.1.3.1.4.1.2.3.4.5.6.4.2.9.1 1.2-.2 0 0 0 .1 0 0 .1 0 .1 0 .2-.1l.1.3Zm-6.8-3.9H76.6c.4 0 .7-.2 1-.5.1-.1.3-.2.4-.3.1-.1.2-.2.2-.3.2-.2.4-.5.6-.8l.1-.299c.1-.2.1-.4.1-.6v-.2c0-.1-.1-.2-.1-.3l-.3-.3c-.2-.1-.4-.1-.6 0-.6.3-1.1.7-1.4 1.4-.2.3-.3.6-.4.9-.1.3-.1.6-.1.9v.2c0 .1.1.2.2.2Zm16 3.9c0 .1-.1.1-.1.2l-.2.201-.6.3c-.2.1-.4.1-.6.1h-.5c-.2-.1-.4-.1-.6-.1 0 0-.1 0-.1-.1-.1-.1-.1-.2-.2-.3-.1-.3-.2-.6-.2-.9 0 .1-.1.1-.2 0-.1-.2-.2-.4-.2-.6V89c0-.2-.1-.3-.1-.4-.5.8-1.1 1.6-1.7 2.3l-1.5 1.5c-.6.5-1.2.9-1.9 1.3-.1.1-.3.1-.4.1-.2 0-.4.1-.5.1-.5 0-1-.1-1.4-.4-.2-.2-.3-.4-.4-.6.1.1.2.2.3.4-.1-.1-.3-.3-.4-.5v-.2c.1.3.3.5.6.7l-.3-.3c-.1-.1-.1-.2-.2-.3l-.3-.2v-.1c.1.2.2.3.3.4l.4.4c.3.2.7.3 1.1.3-.2 0-.4 0-.6-.1l-.2-.1c-.1-.1 0-.1.1-.1h.7c.3 0 .6-.1.9-.3-.1.1-.2.1-.4.1h-.2s.1-.1.2-.1h.2l.2-.1c.2-.1.5-.2.7-.3h-.4l-.3.1c-.2.1-.3.2-.5.2h-.3c.2 0 .5-.1.7-.2l.3-.2.1-.1h-.2c-.1.1-.3.1-.4.2-.1.1-.2.1-.2 0 .4-.1.7-.3 1-.5-.2.1-.3.1-.4 0h-.2c-.2.1-.4.1-.7 0v-.1l.2-.1h.1l.2-.1c.1-.1.1-.1.2-.1h.1l.1-.1c.2-.2.5-.3.7-.5l-.3.2-.4.2c.4-.4.8-.8 1.2-1.3l1-1.4c-.4 0-.8 0-1.1-.2-.6-.2-1-.7-1.2-1.4-.2-.5-.2-1-.1-1.6 0-.5.1-.9.3-1.4.1-.3.2-.5.4-.8v-.1l.2-.3c.4-.6.9-1 1.5-1.4.1 0 .1-.1 0-.1.7-.4 1.5-.6 2.2-.5.4.1.9.3 1.2.6.3.3.6.6.8 1 .1.2.1.4.2.6v.8l.6.2c-.6 1.7-.9 3.4-.7 5.2l.3.6c0 .1.1.3.1.4.1.2.2.4.4.6.4.2.9.1 1.2-.2 0 0 0 .1 0 0 .1 0 .1 0 .2-.1h.2Zm-6.9-3.9H85.7c.4 0 .7-.2 1-.5.1-.1.3-.2.4-.3l.2-.3c.2-.2.4-.5.6-.8l.1-.299c.1-.2.1-.4.1-.6v-.1c0-.1-.1-.2-.1-.3-.1-.2-.2-.3-.4-.4-.2-.1-.4-.1-.6 0-.6.3-1.1.7-1.4 1.4-.2.3-.3.6-.4.9-.1.3-.1.6-.1.9 0 .1 0 .2.1.2l.2.2Zm24.2-5.8h-.2c-.1 0-.3-.1-.4-.1-.3 0-.6 0-.9.1-.3.1-.5.2-.7.4-.1.1-.3.2-.4.3-.1.1-.2.3-.2.5 0 0-.1.1-.3.2l-.5.4c.1 0 .1 0 .1.2l-.1.2v.2c-.1.1-.2.3-.2.4v.2l-.3.3-.4.301c-.2.2-.5.4-.7.7l-.7 1c-.3.5-.6.9-.8 1.5.3.2.6.4.8.7l.1.3.3.3c.2.2.5.4.8.6.2.1.4.1.6.1h.1c.3-.2.6-.4.7-.8l.4-.6.2-.3.2-.3h.2l-.1.2-.1.1v.1c-.1.3.1.6.3.7v.4c.1 0 .2.1.2.3v.2c0 .1.1.1.1.1l-.3.3-.1.1-.1.2v.2c0 .1-.1.2-.1.3-.3.4-.8.7-1.4.8-.6.1-1.1 0-1.7-.3l-.2-.2-.1-.1-.1-.1-.2-.1c-.2-.1-.5-.3-.7-.5l-.3-.1-.1-.2c-.1 0-.1-.1-.1-.2v-.1l-.1-.1-.2 1.1v.6l-2.1-.4v-.9c0-.6.1-1.2.2-1.8l.2-.9h-.1c0-.2.1-.4.1-.6l.1-.3v-.4h-.1l.8-4.6c0-.1.1-.2.1-.4v-.2l.1-.2c0-.1.1-.2.2-.2v.3c0-.1.1-.2.1-.3v-.1l-.1.4v-.5c0 .1 0 .2-.1.4v.4c.1-.3.2-.4.2-.3v.8-.4.8s0-.1.1-.4v-.3c0-.1 0-.2.1-.2v.8c0 .1 0 0 .1-.2v-.3l-.1.6c.1-.1.1-.2.2-.2h.1l.1-.1.1-.1v-.1l.1-.1c.1 0 .1.1.1.5v1l.2-.4v1.1c0 .4 0 .8-.1 1.2l.5-.5 1.6-1.6c.6-.5 1.2-1 1.9-1.5.4-.2.8-.4 1.2-.5.5-.2 1.1-.2 1.6-.1-.1 0-.1 0 0 0h.3l.2.1-.2.2Z" fill="#fff"/><path d="M117.9 95.101c0 .1.1.3.1.4 0 .1 0 .1 0 0s-.1-.2-.2-.4c0-.1-.1-.2-.2-.3l-.2-.4c-.3-.5-.7-1-1.1-1.4-.4-.4-.9-.7-1.4-.9-.3-.2-.7-.3-1-.4H113c-.1.4-.3.7-.4 1.1-.4.9-.8 1.7-1.4 2.5-.5.7-1.1 1.4-1.9 1.9l-.9.6-.4.2-.5.2-.8.2h-.6c-.6 0-1.2-.1-1.7-.3-.6-.2-1.1-.6-1.5-1-.5-.5-.8-1.2-.7-2 0-.3.1-.7.2-1 .1-.3.3-.5.4-.8.6-.8 1.4-1.5 2.4-1.9.9-.4 1.8-.7 2.7-.9 1.1-.2 2.2-.2 3.3-.1l.3-.9v-.1l.1-.3.4-1.7-.7.8c-.4.4-.8.7-1.2 1-.1.1-.3.2-.4.2-.2.1-.3.2-.5.2h-.9c-.2 0-.3-.1-.5-.2l-.2-.1v-.1c-.1-.2-.2-.3-.3-.5v-.9c0-.3.1-.5.1-.8 0-.2.1-.4.1-.7l.2-.7.2-.6.1-.6.2-1.2v-.8c.1-.3.1-.6.1-1v-.4c.1.2.1.3.1.5 0-.2-.1-.4-.1-.5v-.3c.1.2.2.5.2.7 0-.1 0-.3-.1-.4 0-.1-.1-.2-.1-.3.1.2.2.4.2.7v.9c0-.2 0-.5.1-.7 0-.1 0-.1.1 0 .1.2.1.4.1.6 0 .4 0 .8-.1 1.1V82.401v.8l-.1.3v.3l-.1.4s.1-.2.2-.8v-.7c0-.1 0-.3.1-.4 0 .6-.1 1.2-.2 1.7 0 .1 0 .1 0 0 0-.2.1-.3.1-.5v-.8c0 .4-.1.9-.2 1.4.1-.3.1-.4.2-.4.1-.1.1-.1.1-.2l.1-.3v-.3c0-.1.1-.3.2-.4 0-.1 0 0 .1.1v.9c-.1.7-.2 1.4-.4 2.1l.4-1.1-.1.6-.1.6c-.1.5-.1.9-.2 1.2l.1-.1.1-.1c.8-.7 1.5-1.5 2.2-2.4l.2-.3.8-1.1.4-.7.1-.2.1-.5h.5l2 .4h.1c0 .2-.1.4-.2.5-.1.5-.2 1.2-.4 2.2l-.2 1.2-.2 1.2-.7 2.8c0 .3-.1.6-.3.9h.2c.9.4 1.7.9 2.5 1.6.8.6 1.4 1.4 1.9 2.3-.1-.1-.1-.1 0 0v.3l-.1.2Zm-7.7-2 .6-1.4v-.2l.1-.2h-.2c.1.1.1.1-.1.2h-.9c-.3 0-.6.1-1 .2-.3.1-.4.2-.3.2-.7.1-1.4.3-2 .5-.7.2-1.3.6-1.8 1.1-.3.3-.5.6-.7 1-.2.3-.2.7 0 1 .2.4.5.6.9.8.4.2.9.2 1.4.2.2 0 .4-.1.6-.1l.6-.3c.4-.2.8-.5 1.2-.8.6-.7 1.2-1.4 1.6-2.2Z" fill="#fff"/><path d="M124.8 80.7h.4s0 .1-.2.3l-.2.2-.2.1-.2.1.4-.1-.3.3-.3.3-.8.7-.5.4-.4.4-.1.1-1.2 1.1-1.6 1.6-.8.9c.1.4.3.7.4 1.1.2.4.4.8.8 1.1.1.1.2.1.3.1h.2c.3 0 .6 0 .8-.2l.9-.6c.6-.6 1.1-1.2 1.6-1.9h.1c0 .1-.1.2-.1.2v.2l-.1.2c-.2.3-.2.7 0 1.1 0 0 0 .1-.1.2l-.3.3c.1 0 .1.2 0 .4v.5c-.2.1-.4.3-.5.4l-.3.2-.1.1-.1.1-.2.1-.2.1c-.1.1-.3.2-.4.2-.4.2-.8.2-1.2.2-.4 0-.8-.1-1.2-.3-.7-.4-1.2-.9-1.6-1.6V89c-.7.9-1.3 1.8-1.9 2.7-.3.4-.5.9-.7 1.4-.2.4-.4.9-.4 1.4h-.1v-.7c0-.6 0-1-.2-1.2-.2-.2 0-.1 0-.3 0-.2.1-.3.2-.4-.1 0-.2-.1-.1-.5V91c0-.1 0-.2-.1-.2l.2-.3.2-.3.4-.6c.1-.1.1-.3.2-.4l.2-.5 1.1-1.7v-.7h-.1v-.7c-.2-1.1-.3-2.2-.2-3.3V82l.1-.2.1-.2c0-.1.1-.1.1-.2v.2-.2.3-.4.6c0-.2.1-.3.2-.2.1.2.1.4.1.6v-.2.5-.4.3-.4.4c0-.1 0-.1.1-.1v-.1l.1-.1v-.1l.1-.1s.1.1.2.3V82.9l.1-.3.2.7c.1.3.2.7.3 1.4l.2-.1.1-.1c.1-.1.2-.2.2-.3v-.1l1-1.1.7-.5v-.1c.1-.1.2-.2.4-.3l.2-.1c.1 0 .1-.1.2-.1v-.1c1-.9 2.1-1.6 3.3-2.2.3-.1.5-.2.8-.2h.3l-.3.1.3-.1h.1-.4l-.4.1h.3c-.2.2-.4.3-.6.4l.2-.1h.1s0 .1-.2.2h-.2l-.1.1s.1 0 .3-.1l.2-.1h.1l-.1.1-.1.1c-.1.1-.2.1-.3.1h.5l-.5.2H124.8v.3Z" fill="#fff"/><path d="M132.8 86.9s0 .1-.2.2v.1l-.1.1-.1.1c-.2.3-.2.7 0 1 0 0 0 .1-.1.2l-.3.3c.1 0 .1.2 0 .4v.5l-.5.4-.2.2-.2.2-.1.1-.1.1c-.1.1-.2.2-.4.3-.3.2-.8.4-1.2.3-.4 0-.8-.2-1-.6-.3-.4-.4-.8-.4-1.2-.1-.3-.1-.6-.1-1v-.8h-1.2l-.2-.1v.1H125.5c-.1.3-.2.7-.2 1-.4 1-.6 2.1-.6 3.1h-.1v-.1.2-.1c-.1-.3-.3-.4-.6-.5V91c-.1 0-.2 0-.3-.2v-.1l-.1-.1c0-.1-.1-.1-.1-.1 0-.1 0-.1.1-.2v-.2c0-.1.1-.3.1-.4v-.6c0-.3 0-.7.1-1.2v-1.2l.1-.2V86c0-.3.1-.5.1-.8l.2-.4c-.1-.1-.1-.2-.1-.3v-.2l.6-1.9c0-.1.1-.1.1-.1l.1-.1.1-.1.1-.1v.1-.1h.1v.5c.1-.1.2-.2.2-.1V83.1l.1-.1v-.1V83.2l.1-.1V83v.3h.5c.1 0 .1.1.1.2v.4c.1 0 .1-.1.2-.2v.5c0 .4-.1.9-.2 1.3v.1l-.2.9h.9l.9.1.5-.5V85.8c.1-.1.1-.2.1-.3h-.1c.2-.9.5-1.8.9-2.7 0-.1.1-.2.1-.2v-.1h.1l.1-.1.2-.1-.1.2c0-.1.1-.2.1-.2l-.1.3.1-.1v-.2l-.1.1v.1l-.1.2c.3-.3.3-.2.2.4v-.2V83.2s.1 0 .1-.2v-.1s0-.1.1-.1v.4l.1-.1V83s0-.1 0 0l-.1.4h.5c.1 0 .1.1.1.3v.5l.2-.2v.7c0 .2 0 .5-.1.8-.1.3-.1.5-.2.9V86.7h.7v.1c-.2.1-.3.4-.3.6h-.3c0 .1 0 .2-.1.3h-.1v.1c0 .1-.1.1-.1.2 0 .4-.1.8-.2 1.1v.8l.2-.1c.3-.2.6-.5.9-.7.6-.6 1.1-1.2 1.6-1.8h.3l-.2-.4Z" fill="#fff"/><path d="m141.6 90.6-.1.2-.3.2-.6.3c-.2.1-.4.1-.6.1h-.5c-.2-.1-.4-.1-.6-.1l-.1-.1c-.1-.1-.1-.2-.2-.3-.1-.3-.2-.6-.2-.9 0 .1-.1.1-.2 0-.1-.2-.2-.4-.2-.6V89c0-.2 0-.3-.1-.4-.6.8-1.2 1.5-1.8 2.2l-1.5 1.5c-.6.5-1.2.9-1.9 1.3l-.4.1c-.2 0-.4.1-.6.1-.5 0-1-.1-1.4-.4-.2-.2-.3-.4-.4-.6.1.1.2.2.3.4-.1-.1-.3-.3-.4-.5v-.2c.1.3.3.5.6.7l-.3-.3-.2-.3-.1-.1v-.1c.1.2.2.3.3.4.1.2.3.3.4.4.3.2.7.3 1.1.3-.2 0-.4 0-.6-.1l-.2-.1c-.1-.1 0-.1.1-.1h.7c.3 0 .6-.1.9-.3-.1.1-.3.1-.4.1h-.2s.1-.1.2-.1h.2l.2-.1c.2-.1.5-.2.7-.3h-.4l-.2.1c-.2.1-.3.2-.5.2h-.3c.2 0 .5-.1.7-.2.1 0 .2-.1.3-.2l.3-.2-.1.1h-.2c-.1.1-.3.1-.4.2l-.4.2c.4-.1.7-.3 1-.5-.2.1-.3.1-.4 0h-.2c-.4.1-.6.1-.6 0-.1-.1 0-.1 0-.1l.2-.1.2-.1c.1-.1.1-.1.2-.1l.1-.1.7-.5-.3.2-.3.2c.4-.4.8-.9 1.1-1.4.3-.4.7-.8 1-1.4-.4 0-.8 0-1.1-.2-.6-.2-1-.7-1.2-1.4-.2-.5-.2-1-.1-1.6.1-.5.2-.9.3-1.4.1-.3.3-.5.4-.8v-.1l.2-.3c.4-.6.9-1 1.5-1.4.1 0 .1-.1 0-.1.7-.4 1.5-.6 2.2-.5.4.1.9.3 1.2.6.3.3.6.6.8 1 .1.2.1.4.2.6v.8l.7.2c-.6 1.7-.9 3.4-.8 5.2 0 .2 0 .4.1.6 0 .1.1.3.1.4.1.2.3.4.5.6.4.2.9.1 1.2-.2 0 0 0 .1 0 0 .1 0 .1 0 .2-.1l.5-.1Zm-6.9-3.9H135c.4 0 .7-.2 1-.5.1-.1.3-.2.4-.3.1-.1.2-.2.2-.3.2-.2.4-.5.6-.8l.1-.3c.1-.2.1-.4.1-.6v-.1c0-.1-.1-.2-.1-.3l-.3-.3c-.2-.1-.4-.1-.6 0-.6.3-1.1.7-1.4 1.4-.2.3-.3.6-.4.9-.1.3-.1.6 0 .9 0 .1 0 .2.1.3-.1 0-.1 0 0 0Z" fill="#fff"/></g><defs><linearGradient id="b" x1="5.648" y1="58.343" x2="158.604" y2="58.343" gradientUnits="userSpaceOnUse"><stop stop-color="#1C8AE2"/><stop offset=".486" stop-color="#8B00B3"/><stop offset="1" stop-color="#6900B5"/></linearGradient><linearGradient id="c" x1="5.648" y1="58.343" x2="158.604" y2="58.343" gradientUnits="userSpaceOnUse"><stop stop-color="#1C8AE2"/><stop offset=".486" stop-color="#8B00B3"/><stop offset="1" stop-color="#6900B5"/></linearGradient><linearGradient id="d" x1="-.814" y1="92.648" x2="201.279" y2="92.648" gradientUnits="userSpaceOnUse"><stop stop-color="#1C8AE2"/><stop offset=".486" stop-color="#8B00B3"/><stop offset="1" stop-color="#6900B5"/></linearGradient><linearGradient id="e" x1="-.815" y1="90.957" x2="201.279" y2="90.957" gradientUnits="userSpaceOnUse"><stop stop-color="#1C8AE2"/><stop offset=".486" stop-color="#8B00B3"/><stop offset="1" stop-color="#6900B5"/></linearGradient><linearGradient id="f" x1="-.817" y1="85.127" x2="201.279" y2="85.127" gradientUnits="userSpaceOnUse"><stop stop-color="#1C8AE2"/><stop offset=".486" stop-color="#8B00B3"/><stop offset="1" stop-color="#6900B5"/></linearGradient><linearGradient id="g" x1="-.815" y1="86.515" x2="201.279" y2="86.515" gradientUnits="userSpaceOnUse"><stop stop-color="#1C8AE2"/><stop offset=".486" stop-color="#8B00B3"/><stop offset="1" stop-color="#6900B5"/></linearGradient><linearGradient id="h" x1="-.815" y1="89.056" x2="201.279" y2="89.056" gradientUnits="userSpaceOnUse"><stop stop-color="#1C8AE2"/><stop offset=".486" stop-color="#8B00B3"/><stop offset="1" stop-color="#6900B5"/></linearGradient><linearGradient id="i" x1="-.814" y1="87.151" x2="201.278" y2="87.151" gradientUnits="userSpaceOnUse"><stop stop-color="#1C8AE2"/><stop offset=".486" stop-color="#8B00B3"/><stop offset="1" stop-color="#6900B5"/></linearGradient><clipPath id="a"><path fill="#fff" d="M0 0h203v155H0z"/></clipPath></defs></svg>