<?xml version="1.0" encoding="utf-8"?>
<!-- Generator: Adobe Illustrator 25.2.0, SVG Export Plug-In . SVG Version: 6.00 Build 0)  -->
<svg version="1.1" id="Слой_1" xmlns="http://www.w3.org/2000/svg" xmlns:xlink="http://www.w3.org/1999/xlink" x="0px" y="0px"
	 viewBox="0 0 601 104.4471588" style="enable-background:new 0 0 601 104.4471588;" xml:space="preserve">
<style type="text/css">
	.st0{fill:#E94744;}
</style>
<g id="Слой_2_1_">
	<g id="Слой_5">
		<path class="st0" d="M36.6882515,52.2235794l13.1618156-13.1617432L49.840229,36.929924V10.7449427
			C49.840229,2.9846203,46.7043076,0,37.7503052,0H12.2333527C3.2872217,0,0,3.5819521,0,11.6360207v82.0663452
			c0,7.9116287,2.8333197,10.7449493,11.0396729,10.7449493h26.4161148c9.248661,0,12.3846512-2.5385971,12.3846512-10.8962402
			V67.6842804l0.0107536-2.297966L36.6882515,52.2235794z M33.4285049,91.0122604H16.4116535v-77.585228h17.0168514V91.0122604z"/>
		<path class="st0" d="M143.6848907,64.0069656v29.0989151c0,8.3566666-4.0267181,11.3412857-12.383667,11.3412857h-24.6177902
			c-9.8450089,0-12.8296967-2.9846191-12.8296967-10.7449417V68.893631l-0.1670456-16.5864944l0.166832-16.5867004V11.6360207
			C93.8535233,2.9846203,96.8379974,0,106.0868759,0h23.4233475c8.95401,0,12.9810028,2.6820896,12.9810028,10.7449427v23.120739
			h-16.2603683V13.4270325h-15.965683v25.5414772L97.0101089,52.2235794l13.2550735,13.2550735v25.5336075h17.0080643V64.0069656
			H143.6848907z"/>
		<polygon class="st0" points="233.2053223,0 233.2053223,13.4294214 217.0984344,13.4294214 217.0984344,39.2200928 
			204.0976868,52.2208443 217.0984344,65.2286148 217.0984344,104.4487076 200.6823425,104.4487076 200.6823425,13.4294214 
			184.7160339,13.4294214 184.7160339,0 		"/>
		<path class="st0" d="M300.3517761,0h-12.5359497l-24.0197449,104.4471588h15.8143311l4.9269104-21.9349289h18.0513611
			l4.3296814,21.9349289h17.0079956L300.3517761,0z M287.6733704,68.3365707l5.9614258-28.5015755l5.5235596,28.5015755H287.6733704
			z"/>
		<path class="st0" d="M413.2990417,49.5376282v44.1645966c0,7.609024-4.7756348,10.7449417-12.3836975,10.7449417h-26.4090881
			c-8.0539856,0-11.0386963-3.1359177-11.0386963-10.8962402V65.478653l13.2550659-13.2550697l-13.2549438-13.2550735V11.4847202
			C363.4676819,2.83339,366.4524231,0,375.7000427,0h24.3232727c8.5000916,0,12.3846436,2.83339,12.3846436,10.5936422v23.1286087
			h-16.5629578V13.4270306h-15.9656677v77.585228h17.0080566v-26.551384h-8.95401V49.5376282H413.2990417z"/>
		<path class="st0" d="M495.0626221,0h-25.5090637c-8.953949,0-12.2402649,3.5819521-12.2402649,11.6360207v27.3551178
			l13.232666,13.2326546l-13.232666,13.2326508v28.2461319c0,7.9116211,2.8412781,10.7449417,11.0466309,10.7449417h26.4079895
			c9.2487488,0,12.3846436-2.5385895,12.3846436-10.8962479V10.7449427C507.1525574,2.9846203,504.0166626,0,495.0626221,0z
			 M490.7407532,91.0122604h-17.015686v-77.585228h17.0158691L490.7407532,91.0122604z"/>
		<polygon class="st0" points="601,0 601,104.4487076 589.5101318,104.4487076 566.6850586,45.0598907 566.6850586,104.4487076 
			551.168457,104.4487076 551.168457,65.4605179 551.1965332,65.4956589 564.4643555,52.2208443 551.1965332,38.9530525 
			551.168457,38.9881859 551.168457,0 561.9133911,0 585.6309814,59.381794 585.6309814,0 		"/>
	</g>
</g>
</svg>
