<?xml version="1.0" encoding="utf-8"?>
<!-- Generator: Adobe Illustrator 22.1.0, SVG Export Plug-In . SVG Version: 6.00 Build 0)  -->
<svg version="1.1" id="Слой_1" xmlns="http://www.w3.org/2000/svg" xmlns:xlink="http://www.w3.org/1999/xlink" x="0px" y="0px"
	 viewBox="0 0 2459 424.9" style="enable-background:new 0 0 2459 424.9;" xml:space="preserve">
<style type="text/css">
	.st0{fill:#FFFFFF;}
</style>
<g>
	<rect x="727.4" y="3.5" class="st0" width="45.4" height="416.6"/>
	<polygon class="st0" points="661.9,3.5 617.7,3.5 407.6,3.5 407.6,48.9 617.7,48.9 617.7,374.7 574.7,374.7 574.7,93.5 546.2,93.5 
		528.9,93.5 362.2,93.5 362.2,139.3 528.9,139.3 528.9,374.7 528.9,420.1 574.7,420.1 617.7,420.1 661.9,420.1 663.1,420.1 
		663.1,3.5 	"/>
	<rect x="362.2" y="93.5" class="st0" width="45.4" height="236.2"/>
	<polygon class="st0" points="318.8,374.7 318.8,179.5 273.4,179.5 273.4,374.7 273.4,420.1 318.8,420.1 406.4,420.1 406.4,374.7 	
		"/>
	<polygon class="st0" points="318.8,48.9 318.8,3.5 45.6,3.5 0.2,3.5 0.2,48.9 0.2,93.5 0.2,139.3 45.6,139.3 87.8,139.3 
		87.8,374.7 87.8,420.1 133.2,420.1 181,420.1 220.8,420.1 226.8,420.1 226.8,139.3 318.8,139.3 318.8,93.5 226.8,93.5 181,93.5 
		181,139.3 181,374.7 133.2,374.7 133.2,139.3 133.2,93.5 87.8,93.5 45.6,93.5 45.6,48.9 	"/>
	<g>
		<g>
			<path class="st0" d="M892.5,29.2v150.2h-27.3V29.2H837V3.9h84v25.3H892.5z"/>
			<path class="st0" d="M941.5,179.5V3.9h77.9v25.3h-51V77h44.2v26.1h-44.2v50.6h50.6v25.3h-77.5V179.5z"/>
			<path class="st0" d="M1102.6,179.5l-20.1-60.3h-0.4l-20.1,60.3h-30.1l35.8-92c-5.6-14.1-11.2-27.7-16.5-41.8
				c-5.6-14.1-10.8-27.7-16.5-42.2h30.5c2.8,8.8,5.6,17.7,8.4,26.5c2.8,8.8,5.6,17.3,8.4,26.5l1.2-0.4l16.5-52.6h30.9l-34.1,84
				c6,15.7,12.1,30.9,18.5,46.2c6,15.3,12.1,30.5,18.5,45.8H1102.6z"/>
			<path class="st0" d="M1213.1,179.5v-76.7h-31.3v76.7h-27.3V3.9h27.3v73.5h31.3V3.9h27.3v175.6H1213.1z"/>
			<path class="st0" d="M1356.1,134.5c0,15.3-3.6,26.9-10.4,34.5c-6.8,7.6-17.7,11.6-32.5,11.6c-14.9,0-25.7-3.6-32.1-11.2
				c-6.8-7.6-10-18.5-10-32.5V48.5c0-6.8,0.8-13.3,2.4-18.9c1.6-5.6,4-10.4,7.2-14.9c3.2-4,7.6-7.2,13.3-9.6
				c5.6-2.4,12.1-3.2,19.7-3.2c8,0,14.9,1.2,20.1,3.2c5.6,2,9.6,5.2,13.3,9.2c3.2,4,5.6,8.8,7.2,14.5c1.6,5.6,2,12.1,2,19.3
				L1356.1,134.5L1356.1,134.5z M1328.8,46.9c0-4.8-1.2-9.2-3.2-13.3c-2-4-6-5.6-12.1-5.6c-3.2,0-5.6,0.8-7.6,2
				c-2,1.6-3.6,3.2-4.8,5.2c-1.2,2-2,4.4-2.4,7.2s-0.8,4.8-0.8,7.2v88.4c0,4.4,1.2,8.4,3.2,12.1c2.4,3.6,6,5.6,11.7,5.6
				s9.6-2,12.1-5.6s3.6-8.4,3.6-13.7V46.9H1328.8z"/>
			<path class="st0" d="M1475.4,3.9v175.6h-27.3V29.2h-26.5v67.9c0,14.1-0.4,26.1-1.6,35.8c-1.2,9.6-2.8,17.7-5.6,24.1
				c-2.8,6.4-6.4,12.1-10.8,16.1c-4.4,4-10.4,7.6-17.7,10.8l-10.4-20.1c4.4-2.4,8-5.2,10.8-8.4c2.8-3.2,4.8-6.8,6.8-11.2
				c1.6-4.4,2.8-9.6,3.2-16.1c0.4-6.4,0.8-14.1,0.8-23.7V3.5h78.3V3.9z"/>
			<path class="st0" d="M1591.9,134.5c0,15.3-3.6,26.9-10.4,34.5c-6.8,7.6-17.7,11.6-32.5,11.6s-25.7-3.6-32.1-11.2
				c-6.8-7.6-10-18.5-10-32.5V48.5c0-6.8,0.8-13.3,2.4-18.9c1.6-5.6,4-10.4,7.2-14.9c3.2-4,7.6-7.2,13.3-9.6
				c5.6-2.4,12.1-3.2,19.7-3.2c8,0,14.9,1.2,20.1,3.2c5.6,2,9.6,5.2,13.3,9.2c3.2,4,5.6,8.8,7.2,14.5c1.6,5.6,2,12.1,2,19.3
				L1591.9,134.5L1591.9,134.5z M1564.6,46.9c0-4.8-1.2-9.2-3.2-13.3s-6-5.6-12.1-5.6c-3.2,0-5.6,0.8-7.6,2c-2,1.6-3.6,3.2-4.8,5.2
				c-1.2,2-2,4.4-2.4,7.2s-0.8,4.8-0.8,7.2v88.4c0,4.4,1.2,8.4,3.2,12.1c2.4,3.6,6,5.6,11.7,5.6s9.6-2,12.1-5.6
				c2.4-3.6,3.6-8.4,3.6-13.7V46.9H1564.6z"/>
			<path class="st0" d="M1650.1,29.2v150.2h-26.9V3.9h75.9v25.3H1650.1z"/>
			<path class="st0" d="M1786.3,69.4l-37,110.1h-26.1V3.9h26.5v111.3h1.2l36.6-111.3h26.5v175.6h-26.9V69.4H1786.3z"/>
			<path class="st0" d="M1907.6,69.4l-37,110.1h-26.1V3.9h26.5v111.3h1.2l36.6-111.3h26.5v175.6h-26.9V69.4H1907.6z"/>
		</g>
	</g>
	<g>
		<g>
			<path class="st0" d="M904.1,420.1V270.7h-27.7v149.4h-27.3V244.5h82.4v175.6H904.1z"/>
			<path class="st0" d="M996.5,244.5c16.1,0,28.1,4,35.4,12.5c7.6,8.4,11.2,22.1,11.2,40.6c0,8.4-0.8,15.7-2.4,22.5
				c-1.6,6.8-4,12.5-7.6,17.3c-3.6,4.8-8.4,8.4-14.5,11.2c-6,2.8-13.7,4-22.5,4h-11.2v67.5h-27.3V244.5L996.5,244.5L996.5,244.5z
				 M984.9,269.8v56.6h9.6c8.4,0,14.5-2.4,17.7-7.2c3.2-4.8,4.8-12.1,4.8-21.7c0-8.4-1.6-15.3-4.8-20.5c-3.2-4.8-8.8-7.6-17.3-7.6
				h-10V269.8z"/>
			<path class="st0" d="M1123.9,310l-37,110.1h-26.1V244.5h26.5v111.3h1.2l36.6-111.3h26.5v175.6h-26.9V310H1123.9z"/>
			<path class="st0" d="M1203.8,312.4h11.7c9.2,0,16.5,1.2,22.5,3.6s10.8,6,14.5,10.4c3.6,4.4,6,10,7.6,16.5
				c1.6,6.4,2.4,14.1,2.4,22.1c0,18.5-3.6,32.1-11.2,41.4c-7.6,9.2-19.3,13.7-35,13.7h-39V244.5h77.1v25.3h-49.8v42.6H1203.8z
				 M1203.8,394.4h10.4c1.2,0,2.4-0.4,3.6-0.8c7.2-0.8,12.1-3.6,14.5-8.8c2.4-5.2,3.6-11.6,3.6-19.3c0-9.6-1.6-16.5-4.8-20.9
				c-3.2-4.4-9.2-6.8-17.3-6.8h-9.6v56.6H1203.8z"/>
			<path class="st0" d="M1364.1,375.1c0,15.3-3.6,26.9-10.4,34.5c-6.8,7.6-17.7,11.6-32.5,11.6s-25.7-3.6-32.1-11.2
				c-6.8-7.6-10-18.5-10-32.5v-88.4c0-6.8,0.8-13.3,2.4-18.9c1.6-5.6,4-10.8,7.2-14.9c3.2-4,7.6-7.2,13.3-9.6
				c5.6-2.4,12.1-3.2,19.7-3.2c8,0,14.9,1.2,20.1,3.2c5.6,2,9.6,5.2,13.3,9.2c3.2,4,5.6,8.8,7.2,14.5c1.6,5.6,2,12.1,2,19.3
				L1364.1,375.1L1364.1,375.1z M1336.8,287.5c0-4.8-1.2-9.2-3.2-13.3c-2-4-6-5.6-12.1-5.6c-3.2,0-5.6,0.8-7.6,2
				c-2,1.6-3.6,3.2-4.8,5.2c-1.2,2-2,4.4-2.4,7.2c-0.4,2.8-0.8,4.8-0.8,7.2v88.4c0,4.4,1.2,8.4,3.2,12.1c2.4,3.6,6,5.6,11.7,5.6
				s9.6-2,12.1-5.6c2.4-3.6,3.6-8.4,3.6-13.7v-89.6H1336.8z"/>
			<path class="st0" d="M1428,244.5c16.1,0,28.1,4,35.4,12.5c7.6,8.4,11.2,22.1,11.2,40.6c0,8.4-0.8,15.7-2.4,22.5
				c-1.6,6.8-4,12.5-7.6,17.3c-3.6,4.8-8.4,8.4-14.5,11.2c-6,2.8-13.7,4-22.5,4h-11.2v67.5H1389V244.5L1428,244.5L1428,244.5z
				 M1416.3,269.8v56.6h9.6c8.4,0,14.5-2.4,17.7-7.2c3.2-4.8,4.8-12.1,4.8-21.7c0-8.4-1.6-15.3-4.8-20.5c-3.2-4.8-8.8-7.6-17.3-7.6
				h-10V269.8z"/>
			<path class="st0" d="M1577,375.1c0,15.3-3.6,26.9-10.4,34.5c-6.8,7.6-17.7,11.6-32.5,11.6s-25.7-3.6-32.1-11.2
				c-6.8-7.6-10-18.5-10-32.5v-88.4c0-6.8,0.8-13.3,2.4-18.9c1.6-5.6,4-10.8,7.2-14.9c3.2-4,7.6-7.2,13.3-9.6s12.1-3.2,19.7-3.2
				c8,0,14.9,1.2,20.1,3.2c5.6,2,9.6,5.2,13.3,9.2c3.2,4,5.6,8.8,7.2,14.5c1.6,5.6,2,12.1,2,19.3L1577,375.1L1577,375.1z
				 M1549.7,287.5c0-4.8-1.2-9.2-3.2-13.3c-2-4-6-5.6-12.1-5.6c-3.2,0-5.6,0.8-7.6,2c-2,1.6-3.6,3.2-4.8,5.2c-1.2,2-2,4.4-2.4,7.2
				c-0.4,2.8-0.8,4.8-0.8,7.2v88.4c0,4.4,1.2,8.4,3.2,12.1c2.4,3.6,6,5.6,11.7,5.6s9.6-2,12.1-5.6c2.4-3.6,3.6-8.4,3.6-13.7v-89.6
				H1549.7z"/>
			<path class="st0" d="M1642.9,242.9c7.2,0,13.7,0.8,18.9,2.8c5.2,2,9.6,4.8,12.9,8.4c3.6,3.6,6,8,7.6,12.9
				c1.6,4.8,2.4,10.4,2.4,16.1l-26.5,6.8c0-6.4-1.2-11.6-3.6-15.7c-2.4-4-6.4-6-11.7-6c-3.2,0-5.6,0.8-7.6,2c-2,1.2-3.6,3.2-4.8,5.2
				c-1.2,2-2,4.4-2.4,6.8s-0.8,4.8-0.8,6.8v89.2c0,1.6,0,3.6,0.4,5.6c0.4,2,1.2,4,2,5.6c1.2,1.6,2.4,3.2,4.4,4.4
				c2,1.2,4.4,1.6,7.2,1.6c10,0,15.3-7.2,15.3-21.7c4.4,0.8,9.2,1.6,13.7,2c4.4,0.4,9.2,1.2,13.7,2c-0.4,13.3-4,23.7-10.8,31.7
				c-6.8,7.6-17.3,11.6-30.9,11.6c-14.5,0-25.3-3.6-32.1-10.8c-6.8-7.2-10.4-18.1-10.4-32.1v-87.6c0-6.4,0.8-12.9,2-18.5
				c1.6-5.6,4-10.8,7.2-15.3c3.2-4.4,7.6-7.6,13.3-10.4C1628.4,244.1,1635.3,242.9,1642.9,242.9z"/>
			<path class="st0" d="M1747.4,269.8v150.2H1720V269.8h-28.1v-25.3h84v25.3H1747.4z"/>
			<path class="st0" d="M1828.9,244.5c16.1,0,28.1,4,35.4,12.5c7.6,8.4,11.2,22.1,11.2,40.6c0,8.4-0.8,15.7-2.4,22.5
				c-1.6,6.8-4,12.5-7.6,17.3c-3.6,4.8-8.4,8.4-14.5,11.2c-6,2.8-13.7,4-22.5,4h-11.2v67.5h-27.3V244.5L1828.9,244.5L1828.9,244.5z
				 M1817.7,269.8v56.6h9.6c8.4,0,14.5-2.4,17.7-7.2c3.2-4.8,4.8-12.1,4.8-21.7c0-8.4-1.6-15.3-4.8-20.5c-3.2-4.8-8.8-7.6-17.3-7.6
				h-10V269.8z"/>
			<path class="st0" d="M1977.9,375.1c0,15.3-3.6,26.9-10.4,34.5s-17.7,11.6-32.5,11.6c-14.9,0-25.7-3.6-32.1-11.2
				c-6.8-7.6-10-18.5-10-32.5v-88.4c0-6.8,0.8-13.3,2.4-18.9c1.6-5.6,4-10.8,7.2-14.9c3.2-4,7.6-7.2,13.3-9.6
				c5.6-2.4,12.1-3.2,19.7-3.2c8,0,14.9,1.2,20.1,3.2c5.6,2,9.6,5.2,13.3,9.2c3.2,4,5.6,8.8,7.2,14.5c1.6,5.6,2,12.1,2,19.3
				L1977.9,375.1L1977.9,375.1z M1950.6,287.5c0-4.8-1.2-9.2-3.2-13.3c-2-4-6-5.6-12.1-5.6c-3.2,0-5.6,0.8-7.6,2
				c-2,1.6-3.6,3.2-4.8,5.2c-1.2,2-2,4.4-2.4,7.2c-0.4,2.8-0.8,4.8-0.8,7.2v88.4c0,4.4,1.2,8.4,3.2,12.1c2.4,3.6,6,5.6,11.6,5.6
				c5.6,0,9.6-2,12.1-5.6c2.4-3.6,3.6-8.4,3.6-13.7v-89.6H1950.6z"/>
			<path class="st0" d="M2002.8,420.1V244.5h77.9v25.3h-50.6v47.8h44.2v26.1h-44.2v50.6h50.6v25.3h-77.9V420.1z"/>
			<path class="st0" d="M2157.5,420.1v-76.7h-31.3v76.7h-27.3V244.5h27.3v73.5h31.3v-73.5h27.3v175.6H2157.5z"/>
			<path class="st0" d="M2272.8,310l-37,110.1h-26.1V244.5h26.5v111.3h1.2l36.6-111.3h26.5v175.6h-26.9V310H2272.8z"/>
			<path class="st0" d="M2319,420.1l10-55.8c1.2-6,3.2-11.2,5.6-16.1c2.4-4.8,6-8.4,10.4-11.2c-8-3.2-13.7-8.4-16.5-15.3
				c-3.2-6.8-4.4-14.9-4.4-24.5c0-17.3,4-30.5,12.5-39.4c8.4-8.8,19.7-13.3,34.1-13.3h40.2v175.6h-27.3V345h-7.2
				c-4.8,0-9.2,2-12.9,5.6c-4,3.6-6.8,10.4-8.4,19.7l-8.4,49.8H2319z M2372.8,269.8c-8.4,0-14.1,2.4-17.3,7.6
				c-3.2,4.8-4.8,11.6-4.8,19.7c0,8.4,2,14.5,6,17.7c4,3.2,9.2,4.8,15.7,4.8h10.8v-49.8H2372.8z"/>
		</g>
	</g>
</g>
</svg>
