<svg width="203" height="155" fill="none" xmlns="http://www.w3.org/2000/svg"><g clip-path="url(#a)"><path d="M81.005 34.1c1.2 2 2.4 4 3.5 6 .5.9.9.9 1.7.6 6.5-2.7 13.2-4.6 20.2-5.6 7.5-1 14.9-.8 21.8 2.8 6.6 3.3 11.2 9.6 12.3 16.8v.9c-.7-.8-1.2-1.4-1.7-2.1-7.8-8.7-17.4-11.4-28.6-8.7-6.3 1.5-12.2 4.3-17.5 8-.7.5-.9.9-.4 1.7.9 1.4 1.6 2.9 2.5 4.3.6 1 .6 1.3-.7 1.3h-29.3c-.5 0-1.1.2-1.3-.2-.2-.4.3-.9.6-1.3l16-23.4c.3-.4.7-.7.6-1.2h.3v.1Z" fill="url(#b)"/><path d="M203.304 115h-3.3c-1.1 0-1-.3-1-1.1v-6.8c0-2.2-1.1-3.3-3.5-3.4-2.8 0-4.2 1-4.2 3.3-.1 2.3 0 4.7 0 7 0 .8-.2 1-1 1.1-3.2 0-3.2.1-3.2-3v-4.9c0-1.6-1.1-3-2.8-3.3-1.1-.2-2.2-.2-3.3 0-1.5.3-2.6 1.7-2.5 3.3v6.8c0 .8-.2 1-1 1-3.1 0-3.1.1-3.1-3v-9.3c0-1 .2-1.6 1.4-1.4.4.1.8.1 1.3 0 1 0 1.7 0 1.2 1.7 2.4-1.8 5.5-2.4 8.4-1.7.9 0 1.8.3 2.5 1 .9 1.2 1.4.7 2.3 0 4-2.5 9.3-1.3 11.8 2.7v10Z" fill="url(#c)"/><path d="M63.405 68.2c2.4 3 5.3 5.6 8.5 7.7 7.4 4.5 15.3 4.7 23.3 2.5 5.6-1.6 10.9-4.2 15.7-7.5.8-.6 1-1 .5-1.9-1.1-1.7-2-3.5-3.1-5.2h32.3l-17.8 25.7c-1.2-2-2.4-3.9-3.5-5.8-.5-1-1-1.1-2.1-.7-6.9 2.9-14.2 4.9-21.6 5.7-7.1.7-14.1.3-20.6-3.3-6-3.2-10.2-9-11.6-15.7-.2-.5-.2-1 0-1.5Z" fill="url(#d)"/><path d="M26.005 113.8v5.799c0 .8-.2 1-1 1-3.5 0-3.5.1-3.5-3.4V102.5c0-1.1.3-1.501 1.4-1.401.8 0 1.7-.3 2.2 0 1.4 1.4 2.7 0 3.9 0 2.2-.3 4.4-.3 6.5.3 2 .5 3.5 2.101 3.9 4.101.4 1.6.4 3.299 0 4.899-.6 2.5-2.7 4.301-5.2 4.401-2.9.5-5.8.099-8.4-1.101m5.1-9.899c-.6 0-1.2.099-1.8.099-1.9 0-3.4 1.601-3.4 3.601 0 .2 0 .499.1.699 0 .4 0 .701.1 1.101.3 2 1.2 2.7 3.8 3 3.1.3 5-.501 5.6-2.201V110c1-4.7-.8-6.3-4.4-6.2Z" fill="url(#e)"/><path d="M85.805 115.2c-1.7-.3-3.8.1-5.5-1.1-.6-.3-1.1-.8-1.4-1.4-.7-1.5-.4-2 1.3-2h1.8c.3 0 .7 0 .8.2.3 1.3 1.5 1.4 2.5 1.5 1.8.3 3.7.1 5.5-.5.4-.1.6-.5.6-.9 0-.5-.3-.9-.8-1.1-1.1-.4-2.3-.6-3.5-.6-1.8 0-3.5-.2-5.2-.6-2.2-.5-3.2-1.7-3.2-3.6 0-1.8.9-3 3.2-3.5 3.5-.8 7.2-.8 10.8 0 1.4.1 2.5 1.2 2.7 2.5.1.6 0 1-.8 1h-3c-.3 0-.7 0-.8-.3-.4-1.3-1.4-1.3-2.4-1.3h-3.7c-.9 0-1.7.3-1.7 1.3s1 1.2 1.7 1.3c1.7.2 3.5.3 5.2.4 1.1.1 2.3.3 3.3.6 2.1.6 3.3 2.7 2.7 4.8-.4 1.4-1.5 2.5-3 2.8-2.2.4-4.6.5-7.1.5Z" fill="url(#f)"/><path d="M124.305 115.201c-2-.3-4.1.1-5.9-1.2-.4-.3-.8-.6-1.1-1.1-.4-.6-.5-1.3-.3-2 .3-.6 1-.3 1.5-.3 1.2 0 2.4-.4 3.1 1.1.3.5 1.1.5 1.7.6 1.6.2 3.2.2 4.8-.2.6-.2 1.4-.2 1.4-1.1 0-.9-.7-1.2-1.4-1.3-2.1-.3-4.2-.5-6.2-.6-.9-.1-1.9-.3-2.8-.6-1.4-.4-2.4-1.7-2.3-3.2-.1-1.5.9-2.9 2.3-3.3 4-1.1 8.2-1.1 12.2 0 1.2.2 2 1.2 2.1 2.4 0 .6-.1.9-.8.9h-3.1c-.3 0-.6 0-.7-.3-.4-1.2-1.4-1.3-2.4-1.3-1.4-.1-2.8-.1-4.1.1-.7.1-1.3.4-1.4 1.2-.1.7.7 1.1 1.3 1.2 1.9.2 3.8.3 5.7.5 1.3.1 2.5.3 3.7.8 1.5.5 2.5 2 2.5 3.6.1 1.6-1 3.1-2.6 3.6-2.3.4-4.8.7-7.2.5Z" fill="url(#g)"/><path d="M17.505 109.8v4.4c0 .6-.2.9-.8.8-.6 0-1.7.3-2.2 0-1.9-1.1-3.6.3-5.5.2-1.9 0-3.8-.1-5.7-.4-1.9-.1-3.4-1.8-3.3-3.7v-.4c0-2 1.5-3.6 3.5-3.7 3-.6 6.1-.6 9.1 0 .8.1.9 0 .9-.7s0-1.7-1-2c-2.3-1-5-1-7.3 0-1.3.6-2.7 1-4.1 1-1.1.1-1.1-.4-.7-1.1.9-1.6 2.5-2.7 4.4-2.8 3-.4 6-.4 8.9 0 2.2.2 3.8 2 3.8 4.2v4.2Zm-9.3 3.1c1.4 0 2.7-.1 4.1-.4.9-.1 1.6-.9 1.5-1.8-.1-.8-.7-1.4-1.5-1.5-1.3-.3-2.7-.4-4.1-.3-1.1-.1-2.2.1-3.2.5-.8.3-1.3 1.1-1.1 1.9.1.8.7 1.5 1.5 1.6h2.8Z" fill="url(#h)"/><path d="M60.505 108.7h-6.1c-.8 0-1 .2-.8 1 .1 1.4 1.3 2.5 2.7 2.6 1.8.3 3.6.2 5.4-.2.8-.2 1.5-.5 1.7-1.5.1-.5.4-.6.8-.6h1.9c1.7 0 1.9.3 1 1.9-.9 1.4-2.3 2.3-3.9 2.6-2.7.7-5.6.7-8.3.2-3.8-.7-5.8-2.8-5.4-8.1.1-2.6 2.1-4.8 4.6-5.2 3-.7 6.1-.7 9 0 3 .6 5 3.4 4.5 6.4 0 .7-.4.7-.9.7l-6.2.2Zm-2.2-2.3h4c.4 0 .9.2 1.1-.3.1-.5 0-1.1-.4-1.4-.4-.4-.9-.7-1.4-.8-1.9-.4-4-.4-5.9 0-.9.2-1.6.7-1.9 1.5-.2.6-.3 1 .6 1 1.3-.1 2.6-.1 3.9 0Z" fill="url(#i)"/><path d="M164.804 108.7h-6c-1.2 0-1.2.401-1 1.301.3 1.3 1.4 2.2 2.7 2.3 1.7.2 3.5.199 5.2-.201.9-.2 1.7-.6 1.9-1.5 0-.4.3-.5.7-.5h2c1.7 0 1.9.201 1.1 1.701-1.1 1.8-3 2.9-5.1 3-2.7.5-5.4.399-8.1-.201-2.3-.3-4.1-2.2-4.4-4.5-.8-4.8.3-8.3 6.3-9 2.4-.3 4.9-.2 7.3.3 3.4.8 4.4 3.201 4.5 6.401 0 .9-.5.7-1 .7l-6.1.199Zm-2.2-2.399h3.7c.4 0 1.1.3 1.3-.3.1-.6-.1-1.2-.6-1.5-.4-.4-.9-.6-1.4-.7-1.9-.4-4-.4-5.9 0-.8.2-1.4.7-1.7 1.5-.3.7-.3 1 .6 1 1.4-.1 2.8-.1 4 0Z" fill="url(#j)"/><path d="m97.505 101.499.3-.1c4-.2 4-.2 5.8 3.4 1.1 2.2 2.2 4.4 3.5 6.9 1.1-3 2.3-5.7 3.2-8.4.5-1.5 1.2-2.1 2.7-1.8h1.7c0 .2.1.4 0 .5-1.8 4.5-3.7 8.9-5.5 13.4-.6 1.3-1.4 2.5-2.3 3.5-1.3 1.2-3 1.8-4.8 1.6-.6 0-.7-.3-.7-.8v-1.7c0-.7.1-1 .9-.9.5.1.9 0 1.4-.2.9-.3 1.4-1.3 1.1-2.2 0-.1-.1-.3-.2-.4l-6.2-11.3c-.4-.7-.6-1.1-.9-1.5Z" fill="url(#k)"/><path d="M146.105 103.799h-3.1c-1 0-1 .3-1 1 0 1.6.1 3.2 0 4.8-.1 1.1.6 2.1 1.7 2.2 1.6.5 3.3-.2 4-1.7.1-.2.4-.4.7-.4h1.4c2.1 0 2.4.5 1.3 2.4-.9 1.5-2.4 2.5-4.1 2.7-1.8.3-3.6.3-5.4 0-2.3-.3-4-2.2-3.9-4.5v-5.5c0-.7 0-1.2-1-1.1-1.3.2-1-.7-1.1-1.4-.1-.7.1-1.3 1.1-1.1.9.2 1-.3 1-1.1 0-1.9 0-1.9 2-1.9h.3c1.9 0 2 0 1.9 1.9 0 .9.4 1.1 1.2 1.1h6c1.1 0 1 .6 1.1 1.3 0 .7-.1 1.4-1.1 1.3-1-.1-2 0-3 0" fill="url(#l)"/><path d="M46.504 105.401v8.4c0 .9-.2 1.3-1.2 1.3-2.9 0-2.9 0-2.9-2.9v-15.1c0-1.2.2-1.7 1.5-1.6 2.6.1 2.6 0 2.6 2.7v7.2Z" fill="url(#m)"/></g><defs><linearGradient id="h" x1="-1.481" y1="108.188" x2="201.781" y2="108.188" gradientUnits="userSpaceOnUse"><stop stop-color="#1C8AE2"/><stop offset=".486" stop-color="#8B00B3"/><stop offset="1" stop-color="#6900B5"/></linearGradient><linearGradient id="b" x1="-1.48" y1="47.109" x2="201.781" y2="47.109" gradientUnits="userSpaceOnUse"><stop stop-color="#1C8AE2"/><stop offset=".486" stop-color="#8B00B3"/><stop offset="1" stop-color="#6900B5"/></linearGradient><linearGradient id="d" x1="-1.48" y1="76.619" x2="201.781" y2="76.619" gradientUnits="userSpaceOnUse"><stop stop-color="#1C8AE2"/><stop offset=".486" stop-color="#8B00B3"/><stop offset="1" stop-color="#6900B5"/></linearGradient><linearGradient id="e" x1="-1.48" y1="110.912" x2="201.78" y2="110.912" gradientUnits="userSpaceOnUse"><stop stop-color="#1C8AE2"/><stop offset=".486" stop-color="#8B00B3"/><stop offset="1" stop-color="#6900B5"/></linearGradient><linearGradient id="f" x1="-1.481" y1="108.116" x2="201.781" y2="108.116" gradientUnits="userSpaceOnUse"><stop stop-color="#1C8AE2"/><stop offset=".486" stop-color="#8B00B3"/><stop offset="1" stop-color="#6900B5"/></linearGradient><linearGradient id="g" x1="-1.479" y1="108.176" x2="201.78" y2="108.176" gradientUnits="userSpaceOnUse"><stop stop-color="#1C8AE2"/><stop offset=".486" stop-color="#8B00B3"/><stop offset="1" stop-color="#6900B5"/></linearGradient><linearGradient id="c" x1="-1.482" y1="107.969" x2="201.78" y2="107.969" gradientUnits="userSpaceOnUse"><stop stop-color="#1C8AE2"/><stop offset=".486" stop-color="#8B00B3"/><stop offset="1" stop-color="#6900B5"/></linearGradient><linearGradient id="i" x1="-1.48" y1="108.125" x2="201.779" y2="108.125" gradientUnits="userSpaceOnUse"><stop stop-color="#1C8AE2"/><stop offset=".486" stop-color="#8B00B3"/><stop offset="1" stop-color="#6900B5"/></linearGradient><linearGradient id="j" x1="-1.48" y1="108.068" x2="201.78" y2="108.068" gradientUnits="userSpaceOnUse"><stop stop-color="#1C8AE2"/><stop offset=".486" stop-color="#8B00B3"/><stop offset="1" stop-color="#6900B5"/></linearGradient><linearGradient id="k" x1="-1.48" y1="110.798" x2="201.78" y2="110.798" gradientUnits="userSpaceOnUse"><stop stop-color="#1C8AE2"/><stop offset=".486" stop-color="#8B00B3"/><stop offset="1" stop-color="#6900B5"/></linearGradient><linearGradient id="l" x1="-1.481" y1="106.782" x2="201.781" y2="106.782" gradientUnits="userSpaceOnUse"><stop stop-color="#1C8AE2"/><stop offset=".486" stop-color="#8B00B3"/><stop offset="1" stop-color="#6900B5"/></linearGradient><linearGradient id="m" x1="-1.482" y1="105.287" x2="201.784" y2="105.287" gradientUnits="userSpaceOnUse"><stop stop-color="#1C8AE2"/><stop offset=".486" stop-color="#8B00B3"/><stop offset="1" stop-color="#6900B5"/></linearGradient><clipPath id="a"><path fill="#fff" d="M0 0h203v155H0z"/></clipPath></defs></svg>