<svg width="108" height="155" fill="none" xmlns="http://www.w3.org/2000/svg"><path fill-rule="evenodd" clip-rule="evenodd" d="m55.2 117.5.6.6.5.3 1 .6.5.2.6.2.6.2.6.2.6.2 1.3.3.7.1h14.1l.6-.1.7-.1.7-.1.7-.1.7-.1.7-.2.7-.2.7-.2.7-.2.7-.2 2.2-.7.7-.2.7-.2.7-.3 2.1-.8.7-.3.7-.3.6-.3.6-.3.6-.3.6-.3 1.2-.6 1.1-.6.5-.2.5-.3.5-.2.4-.3-.2-.2-.2-.2-.2-.2-.2-.2-.1-.2-.1-.5-.1-.2v-2.8l.1-.2.1-.2.1-.2.1-.2.1-.2.2-.2.2-.1.2-.1.2-.1.4-.2h.3l.2-.1.2-.2.3-.3.3-.3.4-.2h3.6l.1.1h.2l.1.1h.1l.2.2.3.2.2.2.2.2.2.2.2.2h.4l.2.1.2.2.2.2.1.5.1.2v3.1l-.1.2-.1.2-.1.2-.1.2-.2.2-.2.2-.2.2-.2.1-.2.1-.2.1h-.8v1.2l.7 2.8.3 1.4.3 1.4.3 1.4.5 2.1.1.7.3 1.3.1.6.1.6.2 1.2v5.4l-.2.5-.2.5-.2.5-.2.4-.3.4-.3.3-.3.3-.3.3-.3.3-.3.5-.3.2-.3.2-.3.2-.4.2-.4.2-.4.2-.4.2-.4.2-.4.1-.4.1-.4.1-.4.1-.5.2-.4.1-.9.2-.9.2-.9.2-.4.1-.4.2-.9.3-.9.3-.9.3-.9.3-.9.2-.9.2-.5.1-.5.1-.5.1-.5.1-1.9.4-1 .2-1 .2-1 .2-1.1.2-1.1.1-1.2.1H27.1l-1.2-.2-1.1-.1-1.1-.2-1-.2-1-.2-1-.2-1-.2-.9-.2-.5-.1-.5-.1-.5-.1-.5-.1-.9-.2-.9-.2-.9-.3-.9-.3-.9-.3-.9-.3-.4-.2-.4-.1-.4-.1-.4-.1-.9-.2-.9-.3h-.5l-.4-.1-.3-.2-.4-.1-.4-.1-.9-.3-.4-.2-.4-.2-.4-.2-.4-.2-.3-.2-.4-.2-.3-.2-.3-.3-.3-.3-.6-.7-.3-.3-.3-.4-.2-.4-.2-.5-.2-.5-.1-.5v-5.2l.1-.6.1-.6.1-.6.2-1.3.1-.6.1-.7.5-2.1.4-1.4.3-1.4.3-1.4.3-1.4.4-1.4v-1.3H1.8l-.2-.1-.1-.4-.2-.1-.2-.2-.2-.2-.2-.2-.1-.2-.1-.2-.2-.2-.1-.2v-2.6l.1-.2.1-.2.1-.2.1-.2.2-.2.2-.2.2-.1h.4l.2-.2.2-.2.2-.2.2-.2.2-.2.2-.2h.1v-.1h.2l.1-.1h3.5l.2.1.2.1.3.3.3.3.2.2.2.1h.4l.2.1.2.1.2.1.2.1.2.1.2.2.1.2.1.2.1.2.1.2.1.2v.2l.1.2v2.2l-.1.2v-.2l-.1.2-.1.2-.3.4-.2.2-.2.2.4.3.4.2.5.3.5.2.5.3 1.1.6.6.3.6.3.6.3.6.3.7.3.6.3.7.3 1.4.5 1.4.5 1.4.5 2.2.7.7.2.7.2.7.2.7.2.7.2 1.4.3.7.1.7.1.6.1h14.1l.6-.1.7.2.6-.1.6-.2.6-.2.6-.2.5-.2.5-.2.5-.3.5-.3.4-.3.6-.7c.5-.3 1.1-.5 1.7-.5.6 0 1.2.2 1.7.6" fill="#000F20"/><path fill-rule="evenodd" clip-rule="evenodd" d="M39 144.001h-3.7l-2.2-.1h-.7l-.7-.1H31l-.7-.1-.7-.1-.8-.1-.7-.1-.8-.1-1.2-.1-1.1-.2-1.1-.2-1-.2-1-.2-1-.2-.9-.2-.9-.2-1.4-.3-.9-.2-.4-.1-1-.2-.9-.3-.9-.3-.9-.3-.9-.3-.3-.1-.7-.2-.3-.1-.7-.2-.7-.2-.7-.2-.7-.2-.3-.1-.3-.1-.3-.1-.3-.1-.3-.1-.3-.1-.3-.1-.3-.1-.3-.1-.3-.1-.6-.3-.6-.3-.3-.2-.3-.2-.5-.5-.2-.2-.2-.3-.1-.2-.1-.2-.1-.2-.1-.2-.1-.1-.1-.2v-.2l-.1-.1v-.4l.2.3.1.2.1.2.2.2.2.2.2.2.2.2.2.2.2.2.2.2.5.4.2.2.2.2.8.5.2.1.2.1.2.1.2.1-.3-.2-.3-.2-.3-.2-.3-.2-.3-.2-.3-.2-.3-.2-.3-.2-.2-.2-.1-.1-.3-.3-.1-.1-.1-.2-.2-.3-.1-.2-.1-.2-.1-.2-.1-.2-.1-.2-.1-.2-.1-.2-.1-.2-.1-.3.2-.3.4.9.1.2.1.2.1.2.1.2.2.3.1.1.3.3.4.4.2.2.2.2.2.2.2.2.2.2.5.3.5.3.2.1.7.3-.6-.4-.2-.1-.2-.2-.2-.2-.5-.3-.2-.2-.2-.2-.2-.2-.5-.4-.2-.2-.2-.2-.2-.2-.2-.2-.2-.2-.2-.2-.2-.3-.5-1 .3-.2.2-.1.7 1.2.2.3.2.2.1.2.2.2.2.2.5.4.2.2.2.2.2.2.2.2.3.2.3.2.3.2.3.2.3.2.3.2.3.1.3.2-.3-.2-.3-.2-.3-.2-.3-.2-.3-.2-.3-.2-.3-.2-.3-.3-.3-.2-.3-.2-.3-.3-.5-.5-.2-.3-.1-.1-.2-.3-.1-.1-.1-.2-.1-.1-.1-.1-.1-.2-.1-.1-.1-.1-.1-.1-.1-.2.8-.2.5.9.2.3.2.2.2.3.2.2.2.2.5.5.2.2.6.5.6.4.6.4.6.3.3.1.5.3.3.1-.2-.1-.2-.1-.2-.1-.2-.1-.5-.3-.2-.1-.3-.2-.2-.1-.2-.1-.2-.1-.2-.1-.2-.1-.2-.1-.3-.3-.3-.3-.3-.3-.3-.3-.3-.3-.2-.3-.1-.2-.1-.2-.1-.1-.1-.2-.5-.8.9-.2.5.8.2.3.1.2.1.1.1.2.1.1.1.2.2.1.2.2.3.2.5.5.2.1.2.1.2.1.2.1.2.1.2.1.4.2-.2-.1-.2-.1-.2-.1-.2-.1-.2-.2-.3-.3-.2-.2-.2-.2-.5-.5-.2-.2-.2-.2-.2-.2-.2-.3-.2-.2-.7-1 1-.2.6.9.2.2.2.2.7.7.2.2.2.1.9.7.2.1.2.1-.6-.6-.6-.6-.3-.3-.3-.3-.3-.3-.3-.3-.6-.9.3-.1.4-.1.4-.1.2-.1.2-.1.4-.1.2-.1.2-.1.2-.1.5-.3.3-.2.1-.1v-.7l-.2-2.9-.1-.8-.1-.7-.1-.7-.1-.8-.1-.7-.1-.7-.2-2.2-.1-.7-.1-.7-.2-2 1.9 1.9.3.3.3.3.3.3.3.3.3.3.3.3.3.3.3.3-.2-.2-.4-.4-.2-.2-.2-.2-.2-.2-.2-.2-.2-.2-2.9-3-.1-.8 1.6 1.5.3.3.3.3.3.3.7.6.3.3.3.3.7.5.3.3.3.3.3.2.3.3.3.3.3.3.3.2-.3-.3-.3-.3-.3-.3-.3-.3-.3-.3-.3-.3-.3-.3-.3-.3-.3-.3-.3-.3-.3-.3-.3-.3-.3-.3-.1-.2-.3-.3-.3-.3-1.7-1.7.2-.1.6.5.3.2 1.2.9.3.2.3.2.3.2.3.3.3.3.7.5.3.3.3.2.3.2.7.5.4.2.3.2.4.2.4.2.3.2.4.2.3.2-1.1-.7-.3-.3-.3-.2-.3-.2-.7-.5-.3-.2-.3-.3-.3-.2-.3-.3-.3-.2-.3-.2-.3-.3-.3-.3-2.8-2.2.3.1.8.6.9.5.9.5.9.5.9.5.9.5.9.5.9.5.9.4.9.4.9.4.9.4.9.3.9.3.9.3 1.9.6 1.9.6 1.9.5.9.2.9.2.9.2.9.2 1.8.3 1.8.2.9.1H40.2l1.9-.2.7-.1.3-.1.3-.1.3-.1.3-.1.3-.1.3-.1.3-.1.3-.1.3-.1.3-.1.7-.2.3-.1.3-.1.3-.1.3-.1.9-.4.3-.1.3-.2.6-.3-.5.4-.1.1-.1.1-.2.1-.1.1-.2.1-.1.1-.3.1-.3.2-.3.1-.3.1-.3.1-.3.1-.7.2-.3.1-.3.1-.7.2-.3.1-.3.1-.3.1-.3.1-.3.1-.3.1-.3.1-.3.1-.3.1-.5.1-.4.1-.5.1-.5.1-.4.1-.5.1-.5.1-.5.1h.5l.4-.1h.5l.4-.1.5-.1.4-.1.5-.1.4-.1.9-.2.3-.1.3-.1.9-.2.5-.1.5-.1.5-.1.5-.2.5-.2.9-.4.5-.2.3-.2.3-.2.3-.2.3-.2.1-.1.2-.1.2-.1.1-.1.2-.1.1-.1.4-.4.1-.2.3-.3.2-.3.2-.2-.1.1-.1.2-.1.2-.1.2-.1.2-.1.2-.1.2-.1.2-.3.4-.3.4-.2.2-.2.3-.5.5-.3.2-.3.2-.3.2-.3.2-.3.2-.3.2-.3.2-.3.2-.3.2-.3.2-.3.2-.4.2-.3.2 1-.4.3-.2.3-.2 1-.5.3-.2.3-.2.3-.2.3-.2.3-.2.3-.2.2-.1.3-.3.1-.2.2-.2.2-.2.1-.1.1-.1.1-.1.1-.1.4-.7.1-.2.1-.2.1-.2.1-.2.1-.2.1-.1.1-.1v-.1l.1-.1.1-.3.5 1.2.2.6.3.6.1.3.2.3.1.3.1.3.2.3.1.3.5.9.2.3.2.3.2.3-.2-.4-.3-.8-.2-.4-.2-.4-.2-.4-.3-.8-.3-.6-.1-.2-.1-.2-.1-.2-.1-.2-.1-.2-.3-.9.5.6.2.2.2.2.4.4.4.4.4.4.4.4.4.4.4.4.4.3.4.3.4.3.4.3.4.3.4.3.4.3.5.3.4.3.4.3.5.3-.3-.2-.6-.5-.3-.2-.3-.3-.3-.3-.7-.6-.3-.3-.3-.3-.3-.3-.3-.3-.3-.2-.8-.8-.3-.3-.3-.3-.5-.6-.1-.1.6.5.3.2.3.2.3.2.3.2.3.2.3.2.3.2.3.2.3.2.3.1.3.1.3.2.6.2.6.2.6.2.3.1.3.1.3.1.3.1.3.1.3.1.3.1.3.1 1 .1h.3l-.4-.1-.4-.1-.8-.2-.4-.1-.4-.1-.4-.1-.4-.1-.4-.1-.4-.1-.4-.2-.8-.3-.3-.2-.4-.2-.3-.2-1.3-.8.7.3.5.2.5.2.5.2.5.1.5.1.5.1 1.1.2 1.1.2.6.1.6.1h.6l.6.1h4.2l.9-.1.9-.1.9-.1.9-.1.9-.1.9-.2.9-.2.9-.2.9-.2 1.9-.5 1.9-.6 1.9-.6.9-.3.9-.3.9-.3 1.9-.8.9-.4.9-.4.9-.5 1.8-.9.9-.5 1.7-1 .8-.5.9-.6.5-.3-.6.5-.5.3-1.4 1-.5.3-.9.7-.5.3-.5.3-.5.3-.5.3-.5.3-.5.3-.5.3-.5.3-.5.3.3-.1.5-.3.2-.1.3-.2.3-.1.2-.2.3-.1.4-.3.4-.2.4-.3.4-.2.4-.3.4-.2.4-.3.4-.3.3-.2.3-.3.3-.2.3-.2.7-.5.3-.2.3-.3.5-.4.3.1-.1.4-2.6 2.4-.9.7-.4.4-.4.3-.9.7-.4.3-.4.3.5-.3.5-.3.5-.3.5-.3.5-.3 1.4-1.1 2.3-2-.1 1.6-.8.9-.3.2-.3.3-.3.2-.5.5-.6.5-.3.2-1.3 1.2-.3.3-.3.3-.3.3-.3.3-1 .8-.3.3-.7.6-.7.5.2-.1.4-.3.2-.1.2-.2.2-.1.2-.1.2-.1.5-.3.4-.3.5-.3.4-.3.5-.3.4-.3.4-.3.4-.3 3.1-3-.1 1.3-.9 1-.2.2-.2.2-.2.2-.2.2-.5.5-.2.2-.2.2-.5.5-.3.2-.5.5-.5.5-.2.2.5-.4.5-.4.5-.4.5-.4.5-.4.5-.5.5-.5.5-.5.7-.8-.2 1.9-1.9 2.2-.3.3-.9.9-.6.6-1.3 1.2-.6.5-.6.6-.6.5.2-.2.3-.2 1-.8.2-.2.3-.2.2-.2 1.5-1.3.5-.5.2-.2.2-.2.5-.5.2-.2.2-.2.2-.2 1-1.1v.1l-.1 1.7-.9 1-.3.3-.6.6-.3.3-.3.3-.3.3-.6.6.3-.3.3-.3.3-.3.3-.3.3-.3.3-.3.3-.3.3-.3.7-.7-.1 1.2-2.2 2.1 2.1-1.9v.3l-.1.5-.1 2v.5l-.1 1 .1.1.1.1.1.1.3.2.2.1.2.1.3.1.6.2-1.1 1.2-.2.2-.2.2-.3.3-.2.2-.5.5-.4.3-.9.7-.4.3-.5.3-.5.3-.4.3-.5.3-.6.4-.6.4-.6.4-.6.4-.6.3-.6.3-.6.3-.6.3.2-.1.2-.1.2-.1.2-.1.2-.1.2-.1.2-.1.2-.1.5-.2.5-.2.4-.2.5-.2.5-.3.4-.2.4-.3.4-.3.9-.6.8-.6.4-.3.4-.3.4-.3.4-.3.7-.6.3-.3.3-.3.3-.3.9-1v-.1l.5.1.6.1-.2.4-.1.2-.2.2-.3.4-.3.4-.6.8-.3.4-.3.3-.3.4.6-.6.3-.3.2-.1.1-.2.3-.3.1-.2.2-.2.1-.2.2-.2.1-.2.1-.2.7-1 .7.1.3.1-.3.6-.3.5-.3.5-.2.2-.4.5-.2.2-.2.2-.6.7-.9.9.2-.1.2-.1.2-.1.3-.3.2-.1.2-.1.2-.2.4-.3.2-.2.2-.2.2-.2.2-.2.2-.2.3-.4.1-.2.3-.4.1-.2.3-.4.1-.2.8.2-.3.7-.1.2-.1.2-.1.2-.2.2-.1.2-.2.2-.2.2-.2.2-.2.2-.2.2-.3.4-.4.3-.3.3-.5.4-.2.2-.2.2-.2.2-.2.2-.2.2-.2.2.2-.2.2-.1.2-.1.5-.3.2-.2.5-.3.4-.3.2-.2.2-.2.2-.2.2-.2.2-.2.2-.2.2-.2.2-.2.2-.2.3-.4.2-.2.1-.2.1-.2.4-.9.8.2-.5 1-.1.2-.2.4-.1.2-.1.2-.3.3-.2.2-.2.2-.2.2-.4.4-.2.2-.2.2-.2.2-.2.2-.4.3-.8.6-.4.3.3-.2.3-.2.3-.2.3-.2.3-.2.6-.5.3-.2.3-.3.2-.3.3-.3.5-.6.2-.3.1-.2.1-.1.1-.2.1-.1.5-1.1.1.1.2.1.2.2-.4 1-.2.3-.2.3-.2.3-.2.3-.2.3-.2.3-.5.5-.1.1-.1.1-.1.1-.1.1-.2.2-.2.2-.2.1-.3.2-.1.1-.2.1-.2.1-.2.1-.2.1.2-.1.2-.1.2-.1.2-.1.2-.1.2-.1.4-.3.2-.1.2-.2.2-.2.2-.2.2-.2.3-.3.2-.2.2-.2.2-.2.1-.2.2-.2.1-.2.2-.4.1-.2.3-.7.2.4-.2.5-.1.1-.1.1-.1.2-.1.1-.3.4-.1.1-.4.5-.2.3-.5.5-.5.5-.3.2-.3.2-.3.2-.3.2-.3.2.2-.1.2-.1.2-.1.2-.1.2-.1.2-.1.4-.3.3-.2.3-.2.2-.2.3-.2.1-.1.1-.1.1-.1.1-.1.1-.1.1-.1.1-.1.1-.1.3-.5-.1.3-.2.5-.2.3-.2.3-.5.6-.3.2-.3.2-.3.2-.3.2-.3.2-.3.2-.3.2-.7.3-.3.1-.3.1-.3.1-.3.1-.3.1-.3.1-.4.1-1.5.4-.8.2-1.2.3-.3.1-.8.2-.9.3-.9.3-.9.3-.9.3-.9.2-.9.2-.4.1-.9.2-.5.1-.9.2-1 .2-1 .2-1 .2-1 .2-1.1.2-1.2.2-1.2.1-.6.1-.7.1-.6.1-1.3.1H73l-1.3.1-3.2.1H36.7l2.3-.6Z" fill="#EAE4CA"/><path fill-rule="evenodd" clip-rule="evenodd" d="M100.9 114.299h-1.5v-.3h1.7l-.2.3Zm-94.7 0H3.7v-.8h4.2l.3-.1H7.1l.7-.1H6.2v1Zm32.8 9.5h-3.6l-.9-.2-1.9-.2-1-.2-.9-.2-1-.2-1-.2-1-.2-1-.2-1-.3-1-.3-1-.3-1-.3-1-.3-1-.3-1-.4-1-.4-.9-.4-.9-.5-.9-.4-.9-.5-.9-.5-.9-.5-1.8-1-.9-.6-.9-.6-.9-.6-.5-.3v-.8l.5-.2.2.1.4.3.5.3.5.3 1.6.8.6.3.6.3.6.3.6.3.6.3 1.3.6.6.3.7.3.7.3 1.4.5 1.5.5.7.2.7.2.7.2.8.2 1.5.4.7.2.7.2.7.2.7.1.6.1.7.1h.6l.6.1h12.9l.7-.1.7-.1.7-.1.6-.2 1.2-.3.6-.2.6-.2.5-.3.5-.3.5-.3.5-.3.7-.8.4.2.1.1h.1l.1.1.1.1.1.1.1.1.1.1.1.2v-.2l.2-.3.1-.1.1-.1.1-.1h.1l.1-.1.3-.2.7.8.5.3.5.3.5.3.5.3.6.2.6.2.6.2.6.2.6.2.7.1.7.1.7.1h12.9l.6-.1h.6l.7-.1 1.4-.2.7-.2.7-.2.7-.2 1.5-.4.8-.2.7-.2.7-.2.8-.2.7-.2.7-.2 2.1-.7.8-.2.7-.3.7-.3.7-.3.6-.3.6-.3.6-.3.6-.3.6-.3 1.1-.6.5-.3.5-.3.5-.3.4-.3.2-.1.6.2-.2.5v.2l-.5.3-1.5.9-1.5.9-1.5.9-1.5.8-1.6.8-1.6.7-1.6.7-1.6.6-1.6.6-1.6.5-1.6.5-1.6.4-1.6.3-1.6.3-1.6.3-1.5.2-1.5.2-1.5.1h-4.3l-1.4-.2-1.3-.2-1.3-.2-1.2-.3-1.2-.4-1.1-.4-1-.5-1-.6-.9-.6-.9-.7-.8-.8h-.2l-.3.3-.3.3-.3.3-.3.3-.7.5-.3.2-.3.2-.7.4-.4.2-.4.2-.8.3-.8.3-.4.2-.4.1-.9.2-.5.1h-.5l-.5.1h-5.6l1.2.7Z" fill="#fff"/><path fill-rule="evenodd" clip-rule="evenodd" d="M101.2 112.799H99l-.6-.3h-.1l-.1-.1-.1-.1-.1-.1v-.1l.3.5v-.2l-1-.8h-.1v-3.3l.1-.1.1-.1.1-.1.1-.1.1-.1.4-.3.2-.1.2-.1h.5l.2-.2.2-.1.3-.3.3-.3.2-.1.2-.1h3l.3.3.3.5v1h.2l-.2-.4v-.2l.1.1.1.1h.2l.1.1v3.4l.2-.3v-3l1 .6v-.1l.2.5v3l-.1.2v.2l-.2.3.1-.1v-3.2l-.1-.1-.1-.1-.1-.1v3.1h-.2l.1-.2.1-.2v-1.9l.1.2v.1l-.8.1v2.1l-.1.1-.1.1h-1.3l.1-.5v-.3 1h-2.1v.2Zm-96.2-1.5v-.2 1.3l.1.4H3.4l-.9-.3-.1-.1-.1-.1-.1-.1-.6-.3v-.1l-.1-.1v-1l.1 1-.1-.1v-3.5l.1-.1-.6-.2v-.1h.2l.1-.1h.1l.1-.1h.1l.1-.1h.1l.1-.1.1-.1.1-.1.3-.4.3-.3h3.4l.2.1.2.1.3.6v.9H7l-.2-.5v-.2h.5l.2.1h.1l.2.1.1.1.1.1.1.1.1.1.3.3v3l-.1.1v.1l.1-.3v-2.8l.7-.6h-.1l-.1-.1.2.5v3l-.1.2v.2l-.1.2-.3.3.2-.3v-3.1l-.1-.1v-.1l-.1-.1-.1-.1-.3-.1.1.1v.1l.1.2v2.9l-.7.6.2-.2v-.7l.3.3v-.1.5l-.1.1-.1.1H5.3v-.8l-.5.1.2-.1Zm2.1 17v-.3l.5-.2h.7l.3-.6v.3l-.3.2h-.8l-.4.6Zm92.8 0h-1.2l-.2-.2v-.3h.5l.5.2.4.3Zm-96.5.6v-.3h3.3v.3l-.5.1H3.6l-.2-.1Zm100.3 0h-3.3v-.3h3.3v.3Zm-103.7.8v-1.6l.1-.5.2-1.1.2-1.2.1-.6.1-.6.1-.6.1-.6.2-.6.1-.6.2-.6.3-.7 1.4-5.6h.2l-1 4-.1.5-.1.5v.5l-.1.5-.1.5-.1.6-.1.5v.6l.1-.5.1-.5.1-.5.3-1 .1-.5.1-.5.1-.5 1-4.2h.2l-.7 3v.4l-.2.5v2l.1-.4.3-1.2.1-.4.2-.8v-.4l.5-2.1h.5v.5-.9h.2v.1h.3v.3l.5 6v3.4l.2 2.4 1.9.2h-.2l-.2.1h-.4l-.4.1-.2-2.1v2.4H3.6l-.3.1h-.2v-1.3l.1-.5v-2.2l.1-.5v-.1l-.1.5v1.4l-.1.5v2.3h-1l-.3.1-.6 1h-1l-.1.1-.1.4Zm107 0-.4-.4h-1.1l-.3-.1-.3-.1h-.9v-.9l-.1-.5v-1l-.1-.5v-.5l-.1-.5v-1l-.7-.4v4.6h-.3l.3-.1h-2.6v-2l-.1 1.5h-1.1l-.2-.2.2-2.4v-3.4l.5-5.8v-.8h.9v7.2l.1.3v-7.9h.3v.2l1.4 6 .1.4v.5l.1.5v.9l.1.5v.5l.1.5v.9l.1.5.1.5v.5l.1.5v.5l.1.5v-4.8l-.1-.5v-1.4l-.1-.5v-.5l-.1-.5v-.5l-.1-.5v-.5l-.2-.9-.1-.4.6-2.8h.2l1.3 5.2.1.6.1.5.1.6.1.6.1.6.1.6.1.6.1.6.1.6.1.6.2 1.2.2 1.1.1.6.1.6v-2.8l-.1-.5v-.5l-.1-.6-.1-.6-.1-.6-.1-.6-.1-.6-.1-.6-.1-.6-.1-.6-.1-.5-.6-.4v-.5l-.1-.4v-.5l-.1-.5-.1-.5-.3-.5-.5-2h.1l1.6 6.2.3 1.3.1.6.2.6.1.6.1.6.2 1.2.1.6.2 1.1v2l.5-.2Zm-107 .7v-.3l.3-.3.1-.1h.2l.1-.1h.1l.2-.1h1.5l.5-.1v.3l-.8.2H.9l-.3.2-.6.3Zm107 0-.2-.2-.2-.2H105l-.3-.8h-.6v-.3l.5.1h1.5l.2.1h.1l.1.1h.1l.1.1.3.3v.8Z" fill="#A84C44"/><path fill-rule="evenodd" clip-rule="evenodd" d="M8.2 130.1v-.8l-.1-.5-.1-.5h.4l.2-.101.1 1.901-.2.099-.3-.099Zm90.6 0-.3-.2-.2-.1.1-1.7h.4l-.2.9.2 1.1Zm-91.6.4v-1.9l.5-.2h.1v1.9l-.6.2Zm92.6 0-.6-.2v-1.8l.6.199v1.801Zm-93.8.199V129.3l-.3-.3h1v1.699H6Zm95.1 0h-.8V128.8h1l-.1.399v1l-.1.5Zm-96.4.101V129l.7-.1h.4v1.9H4.7Zm97.6 0-.9-.101V128.8h.3l.8.1v1.299l-.2.601Zm1.5.3-.4-.1h-.7v-1.801l.6.101.5.1v1.7Zm-100.5.099.1-1.399v-.4h.4l.6-.1v1.8l-1.1.099Zm101.6.301-.3-.1h-.3l-.1-1.5v-.4h.4l.4.1v1.7l-.1.2Zm-102.6 0v-1.7l.3-.101h.5v1.801h-.8Zm104.7 1.699v-.599l-.6-.3-.2-.2v-.3h-.2v-1.7l-.1-.401h1.3l.1.101.1.1h.1l.1.1v2.5l-.6.699ZM.4 133.3l-.1-.2v-2.3l-.1-.101v-.099l.1-.1h.1l.1-.1h.1l.1-.1H2l-.2.399v1.601h-.4v-1.7l-.1.2v1.899l-.2.201-.2.2v-.3 1.2l-.5-.7Zm0 .2v-.1.1Z" fill="#D7C07A"/><path fill-rule="evenodd" clip-rule="evenodd" d="m53.5 116.7-.1-.2-.1-.2-.1-.2-.1-.2-.1-.2-.1-.2-.1-.3-.1-.3-.1-.3-.1-.3-.1-.4-.1-.4-.1-.4-.1-.3-.1-.3-.1-.3-.1-.2.7.1H54.2l.6-.1v.2l-.1.3-.2.7-.1.4-.2.8-.1.3-.1.3-.1.3-.1.3-.1.2-.1.2-.1.2-.1.2-.1.2.2.1Z" fill="#B89B59"/><path fill-rule="evenodd" clip-rule="evenodd" d="m50.7 93.7-1.3-.2-1.3-.2-1.2-.2-1.2-.3-1.2-.3-1.2-.3-1.2-.4-1.2-.4-1.2-.5-1.1-.5-1.1-.5-1-.5-1-.6-1-.6-1-.6-1-.6-.9-.7-.9-.7-.8-.7-.8-.7-.7-.7-.7-.7-.6-.8-.6-.8-.5-.8-.5-.8-.4-.8-.3-.8-.2-.8-.2-.8-.1-.8V23.4h58.5v52.1l-.1.8-.2.8-.2.8-.3.8-.4.8-.5.8-.5.8-.6.8-.6.8-.7.7-.7.7-.8.7-.8.7-.9.7-.9.7-1 .6-1 .6-1 .6-1 .6-1.1.5-1.1.5-1.1.5-1.2.5-1.2.4-1.2.4-1.2.3-1.2.3-1.2.3-1.2.2-1.2.2-1.3.2H50.7v.1Z" fill="#A84C44"/><path fill-rule="evenodd" clip-rule="evenodd" d="M75.4 87.9 22.5 35V21.7h6.9l55 55.1-3.8 7.1-5.2 4Z" fill="#fff"/><path fill-rule="evenodd" clip-rule="evenodd" d="m17.1 29.3 62.7 62.6 9.8-9.8-62.7-62.7-9.8 9.9Zm62.6 63.3L16.4 29.3l10.5-10.5 63.3 63.3-10.5 10.5Z" fill="#000F20"/><path fill-rule="evenodd" clip-rule="evenodd" d="m53.5 102.999-.1-.2-.1-.4-.1-.4-.1-.4-.1-.4-.2-.4-.1-.3-.2-.4-.5-1-.3-.7-.2-.3-.5-.9-.1-.1h.1l.2.1h.2l.5.5.1.2.1.1.1.1.1.2.2.5.1.3.1.3.1.4.3.7.5 1.1.5-1.1.3-.7.1-.4.4-1 .1-.2.1-.2.1-.1.1-.1.1-.2.6-.5h.2l.2-.1-.1.1-.5.9-.2.3-.3.7-.5 1-.2.4-.1.3-.2.4-.1.4-.1.4-.3.9-.1.2h-.2Zm-.1-82.6H53.1l-.2-.1-.2-.1-.1-.1-.1-.1-.1-.1-.1-.1V19l.1-.1v-.1l.1-.1.1-.1.1-.1.1-.1.1-.1.1-.1h.7l.1.1h.1l.1.1.1.1.2.2.1.1.1.1.1.1v.1l.1.2v.4l-.1.2-.1.1-.1.1-.1.1-.1.1-.1.1-.1.1-.1.1h-.4l-.1-.2Z" fill="#fff"/><path fill-rule="evenodd" clip-rule="evenodd" d="M62.3 7.1V5.5l.1-.3.1-.3.1-.2.1-.3.1-.2.1-.2.1-.2.3-.4.1-.2.2-.2.2-.2.3-.3.2-.1.2-.1.2-.1.2-.1.2-.1h2.3l.1.1h.1v1.6h-.3l.2-.6v-1h-1.8l-.2.1-.2.1-.3.3-.2.2-.2.2-.2.2-.2.2-.1.2-.2.2-.1.2-.3.4-.1.2-1.1 2.5Zm-17.6.4-.8-2-.2-.5-.2-.2v-.2l-.3-.4L43 4l-.2-.2-.2-.2-.2-.2-.1-.1-.2-.1H42l-.1-.1h-.1l-.1-.2h-2.1l-.1.1v.7l.2.5h-.2V2.3l.1-.1h.1l.1-.1h2.3l.2.1.2.1.2.1.2.1.2.1.2.2.3.3.2.2.2.2.1.2.2.2.3.5.1.2.1.3.1.2.1.3v.3l.1.3v.9l-.4.6Zm-.1 2.3-.7-2.5v-.2l-.1-.2v-.3l-.3-.1v-.3l-.1-.1-.1-.2-.1-.1-.1-.2-.2-.3-.1-.2-.2-.3-.5-.5-.2-.2h-1.7v.5h-.3v-1h1l.2.1.2.1.2.1.2.1.2.1.2.2.2.1.3.3.2.2.2.2.1.2.1.2.1.2.2.4.1.2.1.2.1.2.1.2.1.2v.2l.1.2v2.8l.5-.5Zm17.8 0V6.5l.3-.7.1-.2.1-.2.1-.2.2-.3.1-.2.1-.2.1-.2.2-.3.1-.2.2-.3.2-.2.3-.2.7-.1.1-.1.1-.1h1.5V4h-.3v-.4h-1.4l-.2.1h-.2l-.2.1-.1.1-.1.1-.6.6-.1.1-.1.2-.1.2-.1.1-.1.2v.2l-.1.2-.3.5-.1.2v.2l-.1.2-.1.2V8l-.1.4v.3l-.1 1.1Zm14 7.8h-3.1l-.3-.5-.2-.1-.2-.1-.2-.1-.2-.1-.2-.1-.2-.1-.2-.2-.2-.1-.2-.1-.2-.2-.2-.2-.2-.2-.2-.2-.2-.2-.3-.2-.2-.2-.2-.2-.2-.2-.2-.2-.1-.2-.1-.2-.1-.2v-.2l-.1-.2v-1.9l-.2.3v2.8l.1.1v.1l.2.2.2.2.2.2.2.2.5.3.2.1.2.2.2.1.2.1-.2-.1-.2-.1-.2-.2-.2-.1-.2-.2-.2-.2-.2-.2-.2-.2-.2-.2-.2-.2-.1-.2-.2-.2-.1-.2.7-.7-.1-.2-.1-.2v-.1l.1.2v.3l.2.3.1.1.1.1.1.1.3.2.1.1.3.2-.3-.3-.1-.2-.1-.2V13l-.1-.2-.1-.2V12l.1.2.2.4.1.2-.2.3.2.2.3.4.2.2.2.2.4.3.2.1.2.2.2.2.2.1.2.1.5.2.3.1.8.3h4.7v.4h-1.7l-.1 1.5Zm-45.8 0h-1.3l-.2-.1-.2-.1-.2-.3v-.4h5.6l.2-.1.4-.2.2-.1.2-.1.2-.1.2-.1.2-.1.2-.1.2-.1.1-.1.2-.1.3-.3.1-.1.3-.3-.6.9.1-.1.1-.1.1-.1.5-.5.1-.1.1-.1.2-.9.1-.1.1-.2.1-.1v-.1.6l-.1.2-.2.3-.1.2-.1.2-.1.2-.3.3-.1.2-.2.1-.3.3-.3.3-.3.2.2-.1.5-.3.2-.3.2-.2.2-.2.2-.2.2-.2.2-.2.2-.2v-.1l.3-.3V14l.2-.1v-.1l-.1.2-.1.2-.1.2-.1.2-.2.2-.2.2-.2.2-.2.2-.2.2-.4.3-.6.5-.2.1-.2.1-.2.1-.2.1-.2.1-.2.1-.2.1-.2.1-.5.2h-3.1l-.5.2Zm10 1.2h.2-.2l-.2-.2v-.1.1l.2.2v.1h.1l.1.1h.8l-1-.2Zm25.6 0h.7V18l-.1.1-.1.1h-.1l-.3.2h-.1v.4Zm1.3.4h.7v-.6l-.1.1-.2.1-.2.1h-.3v.1h.3l-.2.2Zm-28 0h.1v-.1l-.1-.1-.2-.2H39l-.2-.1-.1-.1v-.2l.1.1.1.1v.1l.1.1h.9l-.4.4Zm29.7.2.3-.1.2-.2.1-.2.1-.2v-.8l-.1.2v.7l-.1.2-.1.2-.4.2Zm-31.4 0v-.3l-.1-.2-.3-.5v-.3l-.1-.2-.1.2v.6l.1.2.1.2.2.2.2.1Zm52.1.2 1.7-.9.1-.1.1-.1.1-.1.1-.1.2-.2.1-.1.2-.3v-.1l.1-.1v-.3l.1-.1v-.8l.1-.3v-1.7h-.2v.4h-.3v-1.5h.9l.1.1.1.1v.1l.1.1v.1l.1.1v2.7l-.2.4-.2.4-.3.3-.2.2-.1.2-.2.1-.2.2-.2.2-.3.3-.2.1-.2.1-.2.1-.2.1-.4.2h-.2l-.2.1h-.8l.6.1Zm-72.7.1h-1.3l-.2-.1h-.2l-.4-.2-.2-.1-.2-.4-.2-.1-.2-.1-.3-.3-.2-.2-.1-.2-.2-.1-.3-.3-.3-.3-.2-.4-.2-.4-.1-.2v-2.4l.1-.2v-.1l.1-.1.2-.2.1-.1.1-.1.2-.2h.7v1.6h-.3v-.4h-.1v2.5l.1.2v.2l.2.3.1.2.1.2.1.2.1.2.1.2.5.5.2.1.3.3 1.9.5Zm-.4 6h.9l.1-.1.1-.1v-.3l-.1.1-.1.1-.1.1h-2.5v.2h1.7Zm73.5 0h1.2l.1-.1v-.2h-2.7l-.1-.1V25l.1-.9v-.3.9l.1.1v.2l.1.1.1.1.1.1h1v.4Zm-73.4 1h.9l.2-.1.2-.1.2-.1.1-.2.1-.2v-.2h-.2l-.2.1h-2.1l.1.2h.5l.2.6Zm73.4 0h.7l.1-.2h-2.2l-.2-.1h-.2v.2l.1.2.1.2.2.1.2.1.2.1h1v-.6Zm-.5.8h.4l.2-.1-.2-.1h-1.4l.2.2.2.1.2.1h.2l.2-.2Zm-72.3.1h.4l.2-.1.2-.1.2-.2h-1.4l-.2.1.2.1.2.1.2.1ZM99.9 40l.1-.1.101-.2.1-.1.1-.2V38l.1-.3.099-.3v-7.5l.801-.5v-.1 6.5l-.1.6v1.4l-.201.8-.099.3-.1.4-.1.3-.8.4ZM7.1 40l-.1-.4-.2-.4v-.4l-.1-.3-.2-.4-.1-.4v-.8l-.3-.5v-.1 2l.1.2.1.2.2.5.1.2.1.2.4.4Zm89.4 3.3v-.9H96v.1l.1.1v.4l.4.3Zm-86 0v-.7h-.4l-.1.1v.9l.5-.3Zm87.7.6.2-.2.2-.2.2-.2.2-.2.3-.3.2-.2.2-.2.1-.2.1-.2.1-.2.101-.3.1-.2.1-.2.1-.2.099-.2.201-.3.299-.6.101-.1.1-.3.1-.3.1-.3.099-.3v-.3l.101-.3V26.7l-.3-1-.2-.3v-.8l-.101-.2v-.2l-.599-.2v1.8l.099.3V36l-.099.8v2l-.1.2v.2l-.2.3-.2.3-.2.3-.2.3-.4.7-.2.3-.2.3-.1.2-.1.2-.1.2-.3.3-.1.2-.1.2.3.9Zm-89.4 0-.2-.2-.1-.3-.2-.2-.2-.2-.2-.2-.2-.2-.3-.5-.2-.3-.2-.3-.2-.3-.2-.3-.2-.3-.2-.3L6 40l-.1-.3-.1-.3-.1-.3-.1-.3-.1-.3-.1-.2V35l-.5-.2v-6.1l.1-.3v-.7l.1-.3v-1.3l.1-.2v-1.4l-.1.2-.2.2-.1.3-.1.2-.1.3-.1.2-.1.3-.1.3-.1.4-.2.8-.1.4-.1.4-.2.9v7l.1.5v.5l.1.4.1.4v1l.2.4v.2l.1.2v.2l.1.2.1.2.1.2.3.5.1.2 1.9.2.3.4.2.2.2.2.2.2.2.2.2.2.2.2.2.2.2.2.1.2Zm87 .4v-1h-.2l.1.1h.2v.7l-.1.2Zm-84.5 0v-1h.1l.1-.1h.3l.1-.1h-.7l-.1.1h-.2v.9l.4.2ZM95 45.4V44h-.2v1.3l.2.1Zm-82.9 0v-1.3h.5-1v1.2l.5.1Zm84.5.6.4-.3.4-.3.4-.3.4-.3.3-.3.3-.3.2-.2.2-.2.3-.4.2-.2.2-.2.301-.4.1-.2.199-.2.601-.8.2-.4.1-.2.099-.2.201-.5.1-.3.1-.3.099-.3.101-.3v-2.1l.6-.3v-8.2l-.1-.4-.101-.4-.099-.4-.1-.4-.1-.4-.1-.4-.3-.7-.2-.3-.2-.3-.401-.3v-.2l-.099-.2-.1-.2-.1-.2-.5-.6-.1-.2-.3-.1-.1-.1-.2-.1.4.6.099.2v.1l.101.2v.1l.5.8.2.4.1.2v.2l.3.7.1.3.1.3.099.3.101.3v.3l.1.3v8.7l-.1.7v1.6l-.101.3-.099.3-.2.6-.1.3-.101.3.101.3-.101.3-.199.3-.2.3-.2.3-.2.3-.5.6-.2.3-.3.3-.3.3-.3.3-.3.3-.3.3-.3.3-.6.6-.5.4Zm-86.3 0-.7-.7-.3-.3-.3-.4-.3-.3-.3-.3-.3-.4-.3-.3-.2-.2-.2-.2-.3-.4v-.2l-.2-.2-.2-.2-.1-.2-.1-.2-.1-.2-.1-.2-.1-.2-.1-.2-.1-.2-.1-.2-.1-.2-.1-.3-.2-.4v-.3l-.1-.3-.1-.2v-9.3l.1-.4v-.5l.2-.8.1-.4.1-.4.1-.4.1-.4.2-.4.2-.5.1-.2.1-.2.2-.5.3-.5v-.1l.1-.2.1-.1.1-.2.1-.1.1-.2.1-.1.1-.1h-.1l-.2.2-.1.1-.1.1-.2.3-.2.3-.2.2-.1.2-.2.2-.1.2-.1.3-.1.2-.1.3-.1.3-.2.6-.1.3-.1.3-.1.3v.3l-.2.7v.3l-.1.3v8.2l.2.9V39l.2.4-.1.6.1.2.5.9.1.2.3.5.1.2.2.2.2.2.2.2.2.2.2.2.2.2.2.2.3.4.2.2.2.2.4.4.2.2.2.2.2.2.6.5.4.3h-.3Zm83.7.2v-1.5h-1.2v.1h-.2.7v1.5l.7-.1Zm-81 0v-1.3h.4v1.2l-.4.1Zm75.6.5.2-.1.2-.1.5-.5.1-.1.1-.1.2-.3.2-.3.2-.3.2-.3.1-.1.1-.1.4-.4.1-.1.1-.1.2-.1h.1l-.2.2-.1.2-.1.2-.1.2-.1.2-.1.2v.2l-.1.2v.2l-.2.4-.2.3-.2.4-.2.3.1-.2.1-.2.1-.2.1-.2.2-.3.2-.3.2-.3.2-.3.1-.2.1-.1.1-.2.1-.1.1-.1.1-.1.1-.1.2-.1.1-.1h1v-.2H90.3l-.1.1-.1.1-.3.2-.3.3-.1.2-.2.2.2-.2.2-.2.2-.2.2-.2.3-.1.2-.2.5-.2h.2l-.2.1-.2.1-.2.2-.3.3-.1.1v.2l-.2.2-.1.2-.2.2-.1.2-.1.2-.2.2-.2.3-.2.3-.1.1-.1.1-.1.1v.2Zm-70.3 0-.1-.1-.1-.1-.1-.1-.1-.1-.2-.2-.2-.2-.2-.2-.2-.2v-.3l-.2-.2-.2-.2-.2-.3-.2-.2-.2-.2-.2-.3-.2-.1-.2-.1-.2-.1h.5l.2.1.2.1.2.1.9.6.2.1-.1-.2-.2.1v-.1l-.2-.1-.1-.2-.2-.1-.2-.1-.2-.2h-.2l-.3-.2-.2-.1h-.2l-.2-.1h-1.8v.1h1.2l.1.1h.3l.2.2.2.2.2.2.1.2.1.2.1.2.2.4.3.4.1.2.2.4.1.2-.1-.3-.2-.3-.1-.3-.2-.3v-.3l-.1-.2-.1-.2-.1-.2-.1-.1-.1-.2-.1-.2-.3-.3.3.2h.1l.1.1h.1l.2.2.2.2.2.2.2.2.6.8.1.2.1.2.1.2.2.1.3.3.2.1v.4Zm69.3 9.5v-.3l.1-.3v-.2l.1-.3.2-.5.1-.2.1-.2V54l.1-.1.1-.2.1-.2.2-.3.2-.3.6-.6.3-.3.3-.3.3-.3.1-.1.4-.5.1-.2.1-.2-.1.3v.3l-.1.2v.1l.1-.2v-.4l.1-.1v-.2l1.2-.2v-.5h-.6l-.3.2-.2.1-.2.1h-.6l-.2.1-.1.1-.2.1-.2.2-.2.2-.1.1v.1l-.1.1v.1h.1l.3-.2.3-.2.2-.1.2-.1.2-.1.2-.1.2-.1.2-.2.3-.2-.3.4-.4.5-.2.2-.2.2-.3.3-.3.3-.3.3-.3.3-.6.8-.1.2-.1.2-.1.2v1.9l-.7.5Zm-68.2 0v-1.1l-.4-.3v-.9l-.5-.1-.1-.2-.1-.1-.2-.3-.2-.3-.2-.3-.3-.3-.2-.2-.3-.3-.2-.2-.2-.3-.2-.2-.2-.3-.2-.5h.1l.2.1.2.1.2.1.2.1.2.1.2.1.1.1.2.1.2.1h.6v-.3h-.1l-.1-.1-.1-.1-.2-.2-.2-.2-.3-.3-.2-.2-.2-.1h-.5l-.2-.1h-.8v.6l.1.2.1.2.1.2.1.2.1.2.1.2.1.2-.3.4v.2-1.3l.2.3.2.2.5.5.2.3.3.3.5.6.3.3.2.3.1.1.1.1.2.3.1.2.2.3.1.3.1.2.1.3.1.3.1.3v.1Zm75.2 5.4h-1.8l-.3-.8v-.2l-.1-.1v-.7l-.1-.2v-1l-.4.8v-3h-.7l-.1.1v.1l-2.1-.9v1.7l-.2.1h-1.2l-.1-.1h-.1v-.1l-.1-.1v-2.1l.1-.2.1-.2.1-.2.2-.2.2-.2.2-.2v-2.2h.1l.3-.2.2-.1.2-.1.5-.2.3-.1.2-.1.3-.1.3-.1.3-.1.3-.1.3-.2.3-.1.5-.3.1-.1.2-.9.2-.2.2-.2.2-.2.1-.2.1-.2.1-.2V46h-.6v.2l-.1.4-.4.5v.1h-3.9l-.3-.2.1-.2v-.2l.1-.2V46l.2-.8v-.4l.1-.2.1-.2V44l.1-.1v-.1l.1-.1.1-.1.1-.1.1-.2.2-.1.2-.1.3-.2.2-.1.2-.1h.2l.2-.1h.2l.2-.1h.2l.9-.3.9-.2 1 .2.4-.1h.6l.2-.1.2-.1.3-.2.2-.1.1-.1.1-.1.1-.1.1-.1v-.1l.1-.1v-2.4l-.1-.1v-.1h-3.1l-.1.1-.2.2-.1.1v.1l-.1.1v1.6h-.5l-.2-.2v-.8h-.5l-.4.3v.2l.2.3.2.3v.1h-.8v-2.4l-1.9.4v-.6l.3-.6.1-.2.1-.2.3-.3.2-.2.2-.1.2-.2.2-.1.1-.1h.1l.1-.1h.1l.3-.2.3-.1h-.3l-.3.1h-.6l-.2.1-.2.1-.2.1-.2.1-.2.1-.3.3-.1.2-.2.3-.1.2v.2l-.1.2V42h-.5v-2.9l.1-.3.1-.3.1-.3.1-.2.2-.3.2-.2.2-.2.2-.2.2-.2.5-.4.3-.2.3-.2.3-.2.6-.3.3-.1.6-.2.3-.1.3-.1h.3l.3-.1h2.8l.2-.1.3-.2.1-.1.1-.1.1-.1v-.1l.1-.1v-5.1l-.1-.1-.1-.1-.2-.2h-.1l-.1-.1h-1.2l-.5.1-.2-.1-.3-.2h-.2l-.3.5v.5h.5v.4h-2.3l-.3-.2v-.8l-.1-.1h-.5l-.3.3v.2l.2.3.2.3-.1.3-.1.2-.1.1-.1.1-.1.1-.3.2h-2.3l-.1-.1h-.1l-.2-.4-.1-.1-.1-.1-.1-.1-.1-.1V29l.3-.2.3-.2.1-.2-.3-.4-.7-.2-.1.1-.1.3-.2-.1h-.1v-1.9l.1-.1.3-.3.1-.1.2-.1.3-.2.2-.2.1-.1.1-.1v-.1l.1-.1v-2.6l-.1-.1V22l-.5-.3h-.1l-.2-.1-.2-.1-.2-.1-.2-.1H84l-1 .5h-.9v-1.5h-.4v1l.1.1.4.2h-1.3v-1.4H80v.9l.1.1v.1h.1l.3.2H79v-1.4h-.2l-.1.1v1l.1.1H54.5v-1.6h3.6l.1-.1v-2.9l-.1-.1v-.2l-.1-.1-.1-.1v-.1l1.1-.7h-.1l-.1-.1h1.6l.1.1h.1l.1.1.3.3.2.2.2.2.2.2.4.4.4.4.2.2.6.6.2.2.2.2.1.1h.8l-.2-.1-.2.5v-.1l-.1-.1-.1-.1-.2-.1-.3-.3-.2-.3-.1-.2-.1-.2-.2-.3-.1-.2-.1-.2-.1-.2-.1-.2-.1-.2-.1-.2-.3-.3-.1-.1v-.1l-.1-.1-.1-.1-.1-.1-.1-.1-.1-.1-.3-.1v-.2h-3.8l-.1.1h-.2l-.1.1-.1.1v1.7l.1.1v.1l.1.1h.6v-1.2H59v2.1l.3.3H58l-.5-.1h-.9v-4.8h4.7l.1.1h.3l.2.1.6.4.1.1.5.5.2.3.2.3.1.2.2.3.2.2.2.2.2.3.2.2.2.2.2.2.7.7.2.2.2.2.2.2.3.2.2.2.3.2h.3v-.9l-.2-.1-1-.4-.3-.2-.2-.2-.5-.4-.2-.2h-.1l-.1-.1-.1-.1-.1-.2-.1-.1-.3-.4-.1-.2-.1-.2v-.3l-.1-.2v-2.1l.1-.3v-.5l.1-.3.1-.2.2-.2.2-.2.1-.2.2-.2.2-.2.4-.3.2-.2.2-.1.2-.1.2-.1.2-.1.3-.1h3l1.3.7.3.2.1.1.1.1.1.1.1.1v2.3h-1v-1.2H70l-.2.2v.1l-.1.2v2.4l.1.2.1.2.1.2.1.2.1.2.2.2.2.2.2.2.2.2.2.2.2.2.2.2.2.2.3.2.2.2.3.2.3.1.3.1.3.1.6.2.3.1.3.1h.3l.3.1h6.8l.4-.1.3-.1.3-.1.3-.1.7-.3.6-.3.3-.2.3-.2.2-.2.2-.2.2-.2.2-.2.2-.2.2-.2.2-.2.1-.3.1-.3.1-.3V12l-.1-.1-.1-.2-.1-.1-.1-.1-.2-.2-.1-.1-1.9.1h-2v.6l.1.1.1.1v1.8l-.1.2-.1.1-.1.1-.1.1-.1.1-.1.1-.1.1-.1.1h-2l-.2-.1-.2-.1-.2-.1-.1.2-.2-.1-.2-.1-.2-.1-.2-.1-.2-.2-.1-.2-.1-.2-.1-.2V9l.1-.2v-.2l.1-.2.1-.2.2-.3.1-.1.1-.1.1-.1h.1l.1-.1h.9l.6-.8.2-.1h4l.4.1.4.1.4.1.3.1.3.2.3.2.3.2.3.2.3.2.3.2.3.3.2.3.2.3.2.3.2.3.2.4.2.4.1.4.1.5.1.5v3.4l-.1.4-.1.4-.3.6-.1.2-.1.2-.2.3-.2.2-.1.2-.3.3-.2.1h-.4l-.2.1-.2.1-.3.2-.2.1-.2.1-.2.1-.2.1-.2.1h-.2l-.2.1h-1.9v.4h4.3l.3.2.1.1.1.1.1.1.1.1.2 1.4.3.2.2.2v2.6h.5l.8.5h.1l1.1-1.5.2-.3.2-.2.2-.2.2-.2.3-.2.3-.2.3-.1.3-.1.3-.1.3-.1h3.1l.3.1.3.1.3.1.6.3.3.2.3.2.3.2.2.2.201.2.2.2.2.3.2.3.3.5.3.5.2.6.2.6.199.6.201.6.2.6.2.6.1.6.1.6.1.6v5.9l-.1.6-.1.6-.201.6-.199.6-.2.6-.2.6-.2.6-.3.6-.3.6-.3.5-.301.5-.299.5-.201.3-.3.3-.3.3-.3.3-1.3 1.3-.7.6-.7.7-.3.3-.3.3-.3.3-.3.3-.3.3-.3.4-.3.4-.6.8-.2.4-.2.4-.2.4-.2.4-.3.9-.1.5-.1.5v4.6l.1.1v.2h.1v.1h.2l.1.1h.1l-.2.1h.2-.2l-.2-.1-.3-.2-.1-.1-.2-.1-.1-.1-.2-.1v.1l.1.1v.3l.1.2.1.2h1.9l.1-.1h.1l.1-.1h.1v-.2l.1-.1v-.6h1l.2.2v.3l-.1.1v.1l-.1.1-.1.1-.2.2-.2.2-.1.1-.1.1 1.3.7-.1.1-.3.2h1.2v-.1l.1-.1.4-.6v.1l-.5.8-.1.1v.1l-.1.1-.1.1v.1h-.2l-.1.1H93l-.2-.1h-.1 2.9l.2-.1h.1l.2-.1.9-1-.1.3v.2l-.2.1-.2.2-.3.3-.2.1-.2.1-.2.1-.2.1H94h.6Zm-82.1 0H11l-.2-.1-.2-.1-.2-.1-.2-.5v-.2l-.2-.1-.2-.2-.2-.1v-.4l.3.5.1.1.1.1h.1l.1.1.1.1.1.1h.2l.1.1h3-.3.2v-.1h-.3l.1.1h-2.6l-.2-.1-.2-.1-.2-.1-.1-.1-.2-.3-.1-.1-.1-.2-.5-.8v-.4l.4.6.1.1h.1l.1.1h1.3l-.3-.2-.3-.2-.6-.6-.1.8-.1-.1-.1-.1V59l-.1-.1v-.1l-.1-.1.2-.2H11l.5.9.2.1.1.1.2.1.1.1h1.6l.1-.1h.1l.1-.1.2-.2v-.1l.1-.1.1-.1.1-.1v-.2l.1-.1v-.1l-.1.1-.1.1-.1.1-.1.1h-1v-.1h.2v-.1h.1v-5.2l-.2-.5.7-.8-.2-.5-.2-.4-.2-.4-.2-.4-.3-.4-.6-.8-.3-.4-.3-.4-.3-.3-.3-.3-.7-.7-1-1-.7-.6-.3-.3-.3-.3-.3-.3-.3-.3-.3-.3-.3-.3-.5-.6-.4-.5-.3-.5-.3-.5-.3-.6-.2-.6-.2-.6-.2-.6-.2-.6-.2-.6-.2-.6-.1-.7-.1-.6v-5.8l.1-.6.1-.6.1-.6.2-.6.2-.6.2-.6.2-.6.2-.6.2-.6.2-.5.3-.5.2-.3.2-.3.2-.2.3-.2.2-.2.3-.2.3-.2.3-.2.6-.3.3-.1.3-.1.3-.1h3.2l.3.1.3.1.3.1.3.1.3.2.3.2.2.2.2.2.2.2.2.3 1.1 1.5h.8V22l.1-.2.3-.3.1-.1.1-.1.3-.2.1-.1.2-.1.1-.1h4.5v-.3h-2.1l-.2-.1h-.2l-.2-.1.4-1.7-.2-.1-.2-.1-.2-.1-.2-.1-.2-.1-.2-.1-.2-.1-.3-.3-.2-.2-.2-.1-.1-.2-.1-.2-.1-.2-.3-.5-.1-.1-.2-.4-.2-.8v-3.3l-.2-.5.1-.5.1-.4.2-.4.2-.4.2-.3.2-.3.2-.3.3-.3.3-.3.3-.2.4-.2.3-.2.3-.2.3-.2.3-.2.3-.1.4-.1.4-.1.4-.1h4l.2.1.3.1h.9l.2.2.1.1.1.1.1.2.1.1.1.2.1.2.1.2.1.2.1.2.2.3v4.2l-.1.2-.1.2-.1.2-.2.2-.2.1-.3.3-.2.1-.2.1-.2.1-.2.1-.2.1h-2v-1.6l.1-.1.3-.3v-.6h-2l-1.2-.5-.1.1h-.2l-.1.1-.1.1-.1.1-.1.1-.1.2-.1.1v2.8l.1.3.2.5.2.3.2.2.2.2.2.2.2.2.5.4.3.2.3.2.6.3.7.3.3.1.7.2.4.1h6.9l.3-.1h.3l.3-.1.3-.1.6-.2.3-.1.3-.1.2-.1.3-.2.2-.2.3-.2.2-.2.2-.2.2-.2.2-.2.2-.2.2-.2.2-.2.2-.2.1-.2.1-.2.1-.2.1-.2.1-.2v-2.5l-.1-.2-.1-.1-.2-.2h-1.7v1h-1.1v-2.2l.2-.3.1-.1.1-.1.1-.1.3-.3 1.2-.6h3.3l.2.1.2.1.2.1.2.1.2.2.2.2.6.6.2.2.2.2.2.2.1.2.1.3.1.2.1.3v3l-.1.2v.3l-.1.1v.1l-.1.1-.1.1-.1.1-.2.2-.2.1-.1.1-.1.1-.1.1-.2.1-.2.1-.2.1h-.2l-.2.1-.2.1h-.3v.5h1l.1-.1.1-.1.2-.2.2-.2.2-.2.2-.2.6-.7.2-.3.4-.5.4-.5.2-.3.1-.2.2-.3.4-.4.1-.1.1-.1.3-.2.2-.1.1-.1.1-.1h.3l.1-.1h4.2l.1.1.2.2.1.1v.1l.1.1.1.1v1.2l-.4-.1v3.5H51l-.1.1h-2.6v-2.2h1.5v1.2h.4l.1-.1.1-.1V15l-.1-.1v-.1h-3.8l-.3.2-.2.1-.1.1-.1.1-.3.2-.1.1-.2.2-.2.2-.2.2-.1.2-.1.2-.2.2-.1.2-.1.2-.2.3-.1.2-.1.2-.1.2-.1.2-.2.1-.1.1-.1.1h-.1.3l.1-.1h.1l.1-.1-1.3-.6.4-.4.2-.2.7-.8.2-.3.1-.1.4-.4.1-.1.1-.1.2-.1.1-.1.2-.1.2-.1.2-.1.2-.1h.8l-.1.2-.1.2v.2l-.1.1v2.6l-.2-.2v.6h3.8v1.4h.1-22.4v-.1h.1v-1l-.1-.1h-.2v1h-1.6l.3-.1v-.7h-.5v.1l.1.1v.9l-.1.1v.2h-1.4l.3-.1v-.7H24v.1l.1.1v.9l-.1.1v.1l-.1.1v.2h-.6l-1-.5h-2.6l-.2.1-.2.1-.2.1-.2.1-.1.1v.1l-.1.1h-.1v2.4l.1.1.1.1.1.1.1.1.2.2.2.1.3.3.2.1.3.3.1.1v1.7l-.3.2v-.2l-.1-.3-.1-.1-.5.1-.3.4v.2l.3.2.3.2.1.2v.6l-.1.1-.1.1-.1.1-.1.1-.1.1h-2.3l-.2-.1h-.1L15.4 30l-.1-.1-.1-.1-.2-.3-.1-.2V29l.3-.3.2-.3v-.2l-.4-.3h-.5l-.1.2v.8h-.6v-.4h.3l.1-.5-.3-.5h-.2l-.3.2-.2.1h-2.6l-.1.1h-.1l-.2.2-.1.1v.1l-.1.1-.2-.1v.1l-.1.1v4.7l.1.1.1.1.1.1.1.1.1.1.3.2.2.1h2.8l.3.1h.3l.3.1.3.1.6.2.3.1.3.2.6.3.3.2.2.2.2.2.5.4.2.2.2.2.2.2.2.3.1.2.1.3.1.3.2.6V41h-.5l-.2-.1.3-1.2v-2.2l-.2-.5-.2-.4-.1-.2-.1-.2-.2-.2-.2-.2-.2-.2-.2-.2-1 .8h-.1l-.1-.1-.2-.1-.2-.1h-1.2l.3.1.2.1.1.1h.1l.1.1h.1l.2.1.3.3.2.2.1.2.3.3.1.2.1.2.2.4.1.2.1.2v2.3l-.2.9h-.6v-.3l.2-.3-.2-1.2v-.2l-.4-.3-.5.1v.9l-.2.1h-.6v-1.7l-.1-.2v-.3l-.1-.1-.1-.1-.1-.1-1.4-.6v-.1h-2.6l-.1.1-.2.2v.1l-.1.1v.1l-.1.1v2.2l.1.1.2.3.2.1.1.1.2.1h.2l.2.1.2.1h.6l.4.1.9.2.5.1.5.1.5.2h.9l.2.1.4.2.2.1.2.1.2.1.2.1.1.2.1.1.1.1.1.1v.1l.2.2v.2l.1.2.2.5v.2l.1.4.1.4v.4l.1.2.1.2.1.2-.4.2h-2.3l-.4.2-.4-.6-.1-.4-.1-.2v-.2h-.6l-.1.1V47l.1.2.2.4.1.2.2.2.1.1.2.2.1.1.1.1.1.1.5.3.3.1.3.2.3.1.3.1 1 .5.5.2.2.1.2.1.3.2v2.3l.2.2.2.2.2.2.1.2.1.2.1.2v2.1l-.2.2h-.1l-.1.1h-1.6l-.3.6v-1.9l-.1-.1-.2-.2h-.8v2.9h-.2V57l-.1-.1-.1-.1-.1-.1v1.6l-.1.1-.2.3v.1l-.1.1-.1.1-.3.3h-.1l-.1.1h-1.7l-.6 2.2Zm85.7 26-.2-.2-.2-.2-.1-.2v-5.4l.1-.2.2-.1.2-.2.2-.1.2-.1.2-.1.4-.2-.2.1-.1.2-.1.1-.1.2-.1.2-.1.2V86l.1.2.1.2v.2l.5.3h-.7l-.1.1h-.1l-.1.6Zm-89.4 0h-.2l-.1-.2h-.7l.5-.3v-.2h.1v-.1l.1-.2.1-.2.1-.2v-4l-.1-.2v-.2l-.1-.2v-.9l-.1-.2-.1-.1-.1-.1.3.2.4.2.2.1.2.2.2.1.2.2v5.2l-.1.1-.1.1-.3.3-.2.2-.2.4ZM31 99.3l1-.2.2-.1h.2l.2-.1.2-.1.2-.1.3-.4v-1.9l.3.1h1l-.6 1-.1.2-.1.2-.1.2-.2.2-.2.1-.2.1-.4.2h-.2l-.2.1H31v.5Zm45.5.1h-1.3l-.2-.1h-1.6l-.1-1h-.1v-.1l-.1-.1-.1-.1v-.1l-.1-.1v-.3l-.1-.1v-.8h.9l.5-.1v1.9l.3.4.2.1.2.1.2.1h.2l.2.1 1.7.3-.7-.1Z" fill="#F6EFAF"/><path fill-rule="evenodd" clip-rule="evenodd" d="M44.1 11.6v-1l-.1-.2-.3-.3-.2-.2v-.2l-.1-.2-.2-.2-.1-.2-.2-.2-.2-.2-.2-.2-.3-.2H42l-.2-.2-.2-.2-.2-.1-.2-.1-.2-.1-.2-.1h-2.6l-.6.2.7-.5.3-.3.3-.3.7-.7.2-.2.1-.2.1-.2.1-.2.1-.2.1-.2h.5l-1.2 1.6h.1l.1-.1.1-.1.1-.1.1-.1.1-.1.3-.3.1-.1v-.3l.3-.5.3.2.2.2-1.2 1.9h.2v-.1l.2-.1.1-.1.2-.2.1-.2.5-.5.2-.3.1-.2v-.1l.1.2.2.2-1 1.6h.2l.1-.1.8-1.1.2.3.1.2-.8 1.3h.1l.1-.1.6-.7V7l.2.3-.7 1.1h.1l.1-.1.1-.1.1-.1.3-.4.1.4-.6.9h.3l.1-.1.3-.3.1.4-.5.8.1-.1.1-.1.1-.1.1-.1.1.4-.3.6.4-.3v.4l-.2.4.3-.2v1.2h19.1v-1.3l.3.3-.3-1.2v-.5l.4.4-.4-.5V9l.1-.4.6.5-.5-.7.1-.3.7.6-.6-.9v-.2l.1-.3 1.2.8-.1-.2-.1-.2-.3-.4-.2-.3.2-.4 1 .9-.1-.1-.1-.1-.1-.2L64 7v-.2l-.1-.1v-.2l-.3-.1v-.1l.3-.5.2.4.1.1.3.3.1.1.3.2.2.1-.1-.1-.1-.1-.1-.1-.1-.2-.1-.2-.1-.2-.1-.1-.1-.2-.3-.5.3-.3.1-.1.4.8.1.1.1.1.1.1.1.1.1.1.1.1.2.1.1.1-.1-.1v-.2l-.1-.2-.1-.1-.1-.2-.1-.1-.1-.2-.1-.1-.5-.9.2-.2.6 1 .1.1.1.1.2.2.1.1.3.2.2.1-.2-.2-.1-.2-.3-.4-.7-1.3h.4v.4l.5.7.7.8.4.3.5.3.8.5-.7-.3h-2.7l-.2.1-.2.1-.2.1-.2.1-.2.1-.2.1-.2.2-.3.3-.2.2-.2.2-.2.2-.1.2-.1.2-.1.2-.1.2-.1.2-.1.2v.9l-17.9 1.2Zm10.5.7h-2.2l-.1-.2-.2-.2.2.1h2.6l-.1.1-.2.2Zm-1.1 1.1h.3l.3-.2-.3-.1h-.6l-.3.1.3.2h.3Zm25.9 2.1h-1.3l-.3-.2-.3-.2-.3-.2-.2-.2-.2-.2-.2-.6-.2-.3-.2-.3-.1-.3-.1-.3-.1-.3v-3l.1-.3.2-.6.2-.3.2-.3.4-.5.2-.2.2-.2.2-.2.3-.2-.1.2-.2.2-.1.2-.1.2-.2.4-.2.4-.1.3-.1.3v3.1l-.1.1v1.2l.1.1.2.2.2.2.2.2.2.2.4.3.2.1.2.1.2.1.2.1.2.1h1.2l.6-.2-.3.3-.2.1-.2.1h-.4l.5.4-.8-.1Zm-51.7 0h-1.4l-.2-.4-.2-.1-.3-.3.7.2h1.2l.5-.2.2-.1.2-.1.2-.1.2-.1.2-.1.2-.2.2-.2.2-.2.2-.2V8.9l.5-.5-.1-.3-1-1.5.3.2.2.2.2.2.2.2.2.3.3.5.3.6.2.6.1.3v1.8l.2.3v.3l-.1.3-.1.3-.1.3-.1.3-.2.3-.2.3-.2.3-.2.2-.2.2-.3.2-.3.2-.3.2H28l-.3.3Zm25.5 1h1.1l.3-.1-.3-.1h-1.7l-.3.1.3.1h.6Zm2 .6-.8-.2h-2.6l.2-.3v-3.8l-.1-.3.2.1h1.7l.2-.1-.1.3v3.6l.1.2v.3l.1.1.1.1.1.1.9-.1Zm-39.7.1h.3l.3-.1.3-.1.3-.1.3-.2.3-.2.2-.3h-.3l-.3.1-.6.2-.3.1-.3.1-.2.2-.2.2h.2v.1Zm76.1 0h.3l-.2-.1-.3-.1-.3-.1-.3-.1-.2-.2-.3-.1-.3-.1h-.3l.2.3.3.2.3.2.3.1.3.1.3.1.2-.2Zm-40.2.2v-.1l.1-.1h3.6l.1.1v.1l-1.7-.1h-2.2l.1.1Zm39.4.7h.3l-.3-.2-.2-.2-.3-.1-.3-.1-.7-.3-.3-.1-.4-.1.3.3.3.2.3.2.3.2.7.2h.3Zm-74.6 0h.3l.3-.1.3-.1.3-.2.3-.2.3-.2.3-.3-.4.1-1 .4-.3.1-.3.1-.3.2-.3.2h.5Zm74.5.6-.6-.2h-.8l-.2-.1-.2-.4h-.2l-.5-.3h-.4l.2-.2.2-.4.3-.3.1-.2.1-.2.1-.1.1-.2.1-.2.1-.2.2-.3.1-.2V15l.1-.2v-.4l.2-1 .2.3.3.2.2.1.1.1h.1l.2.1h.1l.1.1.3.1.6.2.3.1v1.9l-.1.2-.1.2-.1.2-.2.2-.2.2-.2.2-.4.3-.2.6Zm-74.3 0-.2-.1-.1-.1H16l-.1-.1h-.1l-.2-.2v-.1l-.1-.1-.1-.1-.2-.2v-.1l-.1-.1v-.1l-.1-.1v-2.2h1l.2-.1.3-.2.3-.2.3-.2.3-.2.3-.3.2 1v.2l.2.4v.2l.1.2.1.2.1.2.1.2.1.2.1.2.1.2.1.2.3.3.1.2.1.1.3.2-.2.1-.2.1-.2.1h-.2l-.2.1-.2.1-.2.1-.2.1-.2.1-.2.1h-.2l-.4.2-.7-.5Zm3.5.2.5-.2.3-.2.3.1h-.9l-.2.3Zm69.9.2-.4-.3h-.6l-.2-.1h-.2l-.3-.2h-.2l-.2-.1h-.3l.3-.2.2-.2.3.3.2.1.2.1.4.2.2.1.2.1h.2l.2.2.7.2-.3.2-.4-.4Zm-72.5 0-.5-.2h-.1l.7-.1h.6l.2-.1.4-.2.2-.1.2-.1.5-.3.1.1-.2.1-.2.1-.2.1-.2.1h-.2l-.2.1-.2.1H18l-.6.3-.1.1Zm71.8.3-.4-.2h-.6l-1.3-.6.3-.2.1-.1.3.2.2.1.2.1.2.1.2.1.2.1h.2l.2.1h.2l.6.1-.6.2Zm-71 0h-.5.9l.2-.1.2-.1.1-.3.2-.1.2-.1.2-.1.4-.3h.1-.2l-.2.1-.2.1-.2.1-.4.2.1.3h-.2l-.2.1h-.2l-.2.1-.1.1Zm70.2.1-.3-.2-.3-.1H86l.2.1h.4l.3.2.3.2h.1l.4.2.4.1.2-.5Zm-69.5 0h-.2.2l.4-.1h-.1l-.3.1Zm2.4 5.1-.7-.8-.4-.3-.3-.3v-1.9h.3v-.1h.9l.2 3.4Zm64.8.1v-4.1h.3l.4.2h.3v.1h.1v1.7l-.1.1.1.9-.4.3-.7.8Zm-75.4 7v-1.8l.1-.5-.1 2.3Zm86 .2v-.3.3Zm-85.4.8-.1-.1-.1-.2v-4.1l.2-.3.1-.1-.1 4.8Zm84.7.1V28l.2.2.1.2v4.2l-.3.2Zm-83.9.3-.2-.1-.2-.1v-5.4h.1l.3-.1v5.7Zm83.2 0v-5.6h.2v5.4h-.2v.2Zm-84.1 6.8-.1-.1-.1-.2v-1l.1-.1.2-.2v1.6h-.1Zm84.8.1v-2l.2.1v1.6l-.2.3Zm-83.9.6-.2-.1-.2-.1v-2.2l.3-.2h.1v2.6Zm83.2 0v-2.8h.4v2.5h-.1l-.3.3Zm-82.1.3-.6-.2v-3h.6v3.2Zm81.2 0v-3h.5V41l-.5-.1Zm-80.1.3-.6-.2v-3.1l.3.2v.4l.1.2.2 2.5Zm79 0v-1l.1-.6v-1.2l.1-.1v-.1 2.9l-.6.2.4-.1Zm-78.2.3h-.1l-.4-.1v-.9l.1.3.4.7Zm77.1 0v-.3h.3l.2-.1v.3l-.2.1h-.3Zm-76.2.3h-.2l-.4-.1v-.3h.6v.4Zm75.3 0V41h.3v.4h-.3v.4Zm-74.1.6-.5-.3-.2-.1v-1l.3.1.4 1.3Zm72.9 0v-.8h.2l.1-.2v1H90Zm-75 5.5v-.3l.1-.1-.1.4Zm77.1.1v-1.2h.3v.8l-.1.2-.2.2Zm-76.2.6h-.3l-.1-.2h-.1v-1l.2.3.3.9Zm75.3 0v-.8l.2-.2v-.1.9l-.3.2h.1Zm-74.1.5-.4-.2-.4-.2v-.8h.7l.1 1.2Zm72.9 0v-1h.8v.8l-.3.1-.5.1Zm.7 32.3v-.6l-.1-.2-.2-.1h-2.6l-.6-.5h-.1l-.1.1-.2.2v.8l.2-.2.2-.2.3-.3h2.6l.2.1.1.2v.1l.1.1v.1l.2.4Zm-74.5 0 .2-.2.1-.1.1-.1.1-.1.1-.1.1-.1.2-.1h2.7l.1.1.1.1v.2l.2.2.1.1v.1-.3h-2.7l-.5-.8H17l-.1.1-.1.1-.2.2v.8l-.4-.1Zm70.1 2.2v-1.2l.2-.2h1.6l.1.1h.1l.1.1.1.1v.1l.1.1v.1-.6l-.1-.1 1.1-.3v-.1H87v1.9h-.7Zm-69.5 0v-1.2h1.7l.1.1v.1l.1.1v-.3l-.1-.1h-2.4v1.4l.6-.1Zm86.9 1.7h.1v-.2h-.3v.3h.2v-.1Zm-100.5 0h.2v-.5h-.2v.5Zm100.5 1.9h.1v-.3h-.4v.1h.2l.1.2Zm-100.4 0h.2v-.5h-.2v.5Zm99.5 1.7h.1v-.4h-.4v.2h.2l.1.2Zm-98.6 0h.2v-.4H4v.2h.2v.2Zm91 1.2h.1v-.3h-.2l.1.3Zm-83.4 0h.2v-.2h-.3v.2h.1Zm89.3 0h.2v-.4h-.3v.3l.1.1Zm-95.3 0h.1v-.4h-.3v.4h.2Zm91.2.5v-.3h-.3v.2h.2l.1.1Zm-87.1 0h.2v-.3h-.3v.2l.1.1Zm89.2 0h.1v-.2h-.3v.1h.2v.1Zm-91.3 0H8v-.3h-.3v.2h.2l-.1.1Zm22.4 8.3h-2.4l-.2-.1-.2-.1-.2-.1-.3-.3-.2-.7-.1-.2-.2-.2-.2-.2-.1-.2-.1-.3-.1-.2-.1-.2-.1-.3-.2-.5-.2-.5v-4.5l.1-.3v3.1l.1.2v.2l.1.3.1.3.1.2.1.3.1.2.2.2v.1l.1.1.1.1.1.1.2.2.1.2.5.5.2.1h1.7v-1.3l.2-.2.1-.1h2l.1.1v.1l.1.2v2.3l-.1.1v.1h-.2l-.1.1h-.4l-.2.1h-1.5l1 1Zm47 0h-2.4l-.1-.1h-.1l-.1-.1-.1-.1-.1-.1v-2.4l.1-.2v-.1l.1-.1h1.9l.2.2v1.5h-1l-.3-.1.6.3h1.8l.2-.1h.3l.2-.1.2-.1.2-.1.2-.1.2-.1.2-.1.1-.2.2-.2.1-.2v-.1l.1-.1V96l.1-.1.2-.3.1-.3.1-.2v-.3l.1-.2v-2.3l.1-1.3.1.3v3.5l1.3-.7v.9l-.1.3v.5l-.1.2-.1.2-.2.5-.1.2-.1.2-.1.2-.3.3-.3.3-.2.2-.2.1-.2.1-.2.1h-2l-.6.5Zm-11.5 0v-.5h-.3v.1l.1.1.1.2v.3l.1-.2Zm-24.6 0v-.6h-.3l-.1.1-.1.1-.1.2v.4l.6-.2Zm23.6 1.1.2-.2v-1l-.1-.1-.3-.2-.1-.1-.2-.1h-.7v.2h.1l.1.1h.1v.1l.1.1.6.5v.5l.2.2Zm-22.5 0v-1h.2l.1-.1h.1l.1-.1H42l-.1.1-.1.1-.1.1-.1.1v1.2l.6-.4Zm11.3.3-.1-.3-.1-.3-.2-.3-.1-.4-.1-.3-.1-.3-.1-.2v-.4l1.2.6 1-.5-1.1 2.7-.3-.3Zm9.9.8v-1.3h-.3l-.4-.6v1.8l.7.1Zm-19.9 0V100l.1-.1h.1-.1l-.1-.6v1.8Zm30.2 9.7h-1.2l-.7-.1h-1l-.2-.1h-.2l-.2-.1-.2-.1-.3-.6h-.2l-.2-.2-.2-.1-.2-.2-.3-.3-.3-.3-.3-.4-.1-.2-.1-.2-.1-.2-.1-.2-.1-.2v-.2l-.1-.2v-5.2l.1-.3.1-.3.1-.3.1-.3.1-.3.2-.3.2-.2.2-.2.2-.2.2-.2.2-.2.2-.2.2-.2.2-.2.2-.2.3-.2.3-.1.3-.2.3-.1h.3l.3-.1h.2v.3l-.7.3-.3.2-.3.3-.3.3-.3.3-.3.3-.2.4-.2.4-.2.4-.2.4-.2.4-.1.5v2.8l.1.5.1.4.2.4.2.4.2.4.3.3.3.3.3.3.4.3.4.2.5.2.5.2.6.1h3.4v-3h-.6l-.4.6-.8.3h-.7l-.6-.4h-.1v-2.7l.1-.2v-.2l.1-.1-.1-.3.1-.1.2-.1.2-.1.2-.1.2-.1.2-.1h3.1l.2.1.2.1.4.3.2.2.2.2.2.2.2.2.1.2.1.2.1.2v.3l.1.3v2.6l-.1.2-.1.2-.1.2-.1.2-.1.2-.1.2-.2.2-.1.2-.2.2-.2.2-.2.2-.2.2-.2.1-.2.1-.2.1-.2.1-.2.1h-.2l-.2.1h-2.6l.2.6Zm-40.4 0h-2.6l-.2-.1h-.2l-.2-.1-.2-.1-.2-.1-.2-.6-.2-.1-.2-.2-.2-.2-.2-.2-.2-.2-.3-.4-.1-.2-.1-.2-.2-.2v-.2l-.2-.5v-2.8l.1-.3.1-.2.1-.2.1-.2.2-.2.2-.2.2-.2.2-.2.2-.1.2-.1.2-.1.2-.1h3.1l.2.1.2.1.2.1.2.1.2.2.2.3v2.9l-.1.1-.1.1h-.9l-.7-.3-.4-.6h-1v1.4h.1l.3 1.4h3.3l.6-.1.5-.2.5-.2.4-.2.4-.3.3-.3.3-.3.3-.3.3.2.2-.4.2-.4.1-.4.1-.5v-2.3l-.1-.5-.1-.5-.1-.4-.2-.4-.2-.4-.2-.4-.3-.4-.3-.3-.3-.3-.3-.3-.3-.3-.3-.2-.7-.3.1-.1v-.2h.2l.3.1h.2l.3.1.3.2.3.1.5.3.2.2.5.4.2.2.2.2.5.7.3.6.1.3.1.3.1.3.1.3v5.8l-.1.2v.2l-.1.2v.1l-.1.2-.1.1-.1.2-.1.1-.1.1-.1.1-.1.1-.1.1-.2.2-.1.1-.3.2-.1.1-.3.2h-1.9l-.6.1H34l-.7.6Zm2.6 4.7h-.2l-.1-.3-.1-.3-.1-.3-.1-.3-.1-.3-.2-.5-.2-.3v-.2l-.1-.3-.3-.5-.2-.2-.2-.2-.2-.2-.3-.2h.1l.2.3.5.5.2.3.2.2.2.2.2.3.2.3.1.2.1.2.1.3.1.2.1.3v.6l.1.2Zm35.1 0v-.8l.2-.5.1-.2.1-.3.1-.2v-.7l.1-.1.1-.1v-.1l.2-.2.1-.1.1-.1.1-.1.9-.1v-.2l.1-.1h.2l-.4.5-.2.2-.2.2-.2.2-.2.2-.2.3-.2.2-.1.3-.1.3-.1.3-.1.3-.1.3V115.8h-.2l-.1-.3Zm-34.2 0h-.6v-.5l-.2-.6-.1-.3-.1-.3-.1-.3-.1-.3-.2-.1-.1-.3-1.2-1.5h.4l.3.3.2.2.2.2.2.2.2.2.2.3.2.2.1.3.1.3.6 2Zm33.6 0h-.3l.2-.6.1-.3.1-.3.1-.3.1-.3.3-.6v-.2l.1-.1v-.3l.1-.1v-.1l.1-.1v-.1l.2-.2.2-.2.5-.5h.3l-.2.2-.2.2-.2.2-.2.2-.3.4-.1.2-.1.2.2.3-.1.2-.2.5-.1.2v1.4l-.6.1Zm-34.1 2.8h-2.7l-.5-.1-.5-.1-1.1-.6v-.4l-.3-.3.1.1.1.1h.3l.1.1h7.6l.3-.1.3-.1.6-.2.3-.1.3-.1.3-.2.3-.2.2-.2.3-.2.2-.2.2-.2.2-.2.2-.2.2-.2-.1.1-.1.1-.1.1-.1.1-.2.1-.1.1-.1.1h-.2l-.2.1H42l-.1.1h-.2l-.3.2-.3.1-.2.1-.3.1-.3.1h-.1l-.3.1h-7.6l-.1-.1H32l-.1-.1v-.1h-.1v-.6l.1-.2v.3l.1.1.1.1h1.3l-.2-.1H33l-.2-.1-.2-.1h-.2v-.6l.5-.3h2l.7.3.1.5h-.2 5.3l.2-.1h.2l.2-.1.2-.1h.2l.1-.2.2-.1.6-.4.2-.1.3-.2.5-.4.5-.5.2-.2.4-.5.2-.2.3-.5.2-.2.5-.9.1-.3.1-.3.1-.3.2-.6-.1.2v.5l-.1.3-.1.3-.1.3-.1.3-.3.5-.2.2-.2.3-.2.2-.2.2-.2.2-.2.2-.5.4-.2.2-.2.2-.3.2-.3.2-.2.1h-.2l-.2.1h-.2l-.2.1-.2.1H38v-2.1l-.1-.2v-.3l-.1-.1v-.2l-.1-.1-.1-.2v-.1l-.1-.2-.1-.1-.1-.1-.1-.1-.1-.1-1.5.9-.3-.2h.4l.4.5.2.2.2.3.3.5.5.8.1.3.2.5.1.2v.2l.1.2v.2l.1.2v.2-1.6l-.1-.3-.1-.3-.2-.2v-.3l-.1-.1v-.1l-.2-.3-.2-.3-.8-.9h.1l.5-.2.2.2.1.1.1.1.1.1.1.1.1.1.1.1.1.2.1.2.1.2.1.2.2.3.1.2.1.2v.2l.1.2v.5l.1.2v.7-1.5l-.1-.3-.2-.4v-.3l-.1-.3-.3-.5-.2-.3-.9-1 .3-.2.5-.3.8.9.3.5.2.2.1.3.1.2.2.5.1.3-.1-.3-.1-.3-.1-.3-.1-.3v-.3l-.1-.1v-.3l-.1-.1-.1-.1-.1-.1-.9-1 .3-.2.1-.1.1-.1.2-.2.4.4.2.2.2.2.3.4.2.2.3.5.1.2.1.2.2.5.1.3v-1.4l-.1-.2-.2-.4-.5-.3-.1-.2-.1-.2-.2-.1-.2-.2-.5-.5.2-.2.3-.5.1-.2.3-.5.1-.3.1-.2.2-.5v-5l-.1-.3.1-.3-.1-.3-.2-.3-.1-.3-.3-.6-.2-.3-.4-.5-.2-.2-.2-.2-.2-.2-.5-.4-.2-.1-.3-.2-.3-.2-.3-.1-.2-.2-.3-.1-.3-.1h-.2v-.7h-2.1v-.2l-.1-.2v-.3h-3.4v.1l-.1.1-.4-.8-.2-.2-.2-.2-.2-.2-.3-.4-.3-.4v.9l.1.1v.1l.2.2.2.2.1.1.1.1.1.1.1.1v.1l-.9-.8-.1-.1-.1-.1-.1-.1.3-.1H28v-.3l-.1-.2-.2-.3-.2-.6-.2-.3v-.1 1.7l.4.2v.3l.1.1.1.1.2.3.1.1.1.1.9.7v.3l-.2-.2h-.3v-.2l-.2-.2-.4-.4-.1-.1-.1-.1-.1-.1v-.1l-.1-.2v-.1l-.1-.1-.3-.2-.1-.3-.1-.3-.3-.8-.1-.4v-.2.6l.1.3.1.3.1.3v.9l.1.1v.1l.1.1.1.1.1.1.1.1.3.3.1.1.2.1.1.1.2.1.2.1.7.3h-.5l-.2-.1h-.2l-.1-.1h-.2l-.3-.2.1-.3-.1-.1-.1-.2-.1-.1-.1-.1-.1-.2-.1-.1-.1-.2-.1-.2-.1-.2-.1-.3-.1-.2-.1-.2-.1-.2-.1-.2v-1.9l-.2-2.9v-.5h-1.4v-1.7h-.7l-.2.1-.1.1-.2.1h-1.9l-.1-.1h-.1v-1.5l.1-.1v-1.2h-.8v1.6l-.1.7-.1.6-.2.6-.2.6-.3.6-.3.5-.3.5-.3.5-.4.4-.4.4-.5.4-.5.3-.5.3-.5.3-.5.3-.5.2-.6.2-.6.2-.6.1-.6.1H10l-.5-.1-.5-.2-.5-.2-.5-.2-.5-.2-.5-.3-.5-.3-3.8-.9-.3-.3-.3-.3-.3-.3-.2-.3-.2-.4-.2-.4-.2-.4-.1-.4-.1-.5-.1-.5v-3l.1-.4.1-.4.2-.4.2-.3.2-.3.2-.3.3-.3.3-.3.3-.2.3-.2.3-.2.3-.1.4-.1h2.9l.2.1h.9l.1.1v.1l.1.1v.5l.7.9v3.9l-.1.1v.1l-.1.1-.1.1-.1.1-.1.1H5.9v-1.6h.6l.2.2.1.1H7V84H4l-.1.1h-.1l-.1.1-.1.1v.1l-.1.1v.4l-.1.2-.1.2v1V85v2.4l.1.3.1.3.1.2.1.2.1.2.1.2.2.2.1.2.1.1.1.2.1.1.2.1.1.1.1.1.1.1.2.1.2.1h.1l.2.1.2.1h.5l.2.1h.3l.3.1h5.2l.2-.1h.3l.3-.1.2-.1.5-.3.2-.1.2-.2.5-.3.2-.2.2-.2.2-.2.2-.2.6-.6.3-.5.2-.2.1-.2.1-.2.1-.2.1-.2.1-.2.1-.2v-.8l-.1.3-.2.2-.1.2-.2.2-.2.2-.2.2-.2.2-.2.2-.2.2-.2.2-.2.2-.2.2-.2.2-.4.4-.2.2-.1.1-.2.1-.2.1-.2.1-.3.2-.2.1-.2.1-.2.1-.2.1h-.3l-.7.3H6.4l-.6-.2-.4-.1h-.2l-.2-.1h-.3l-.2.1-.2-.1-.3-.2-.3-.2-.1-.1-.2-.1-.1-.2-.2-.3-.1-.2-.1-.2v-.5l-.1-.2v-3.8l.1-.2v-.2l.1-.2-.1-.2.1-.2.1-.1.1-.1.2-.2h.2l.2-.1h2.3v.6h-.2l.1.1h-.1l-.1-.1H4.2v3.2l.1.2v.1l.1.2.1.1.2.3.1.1.1.1.3.3.6.3.2.1.5.2h.2l.3.1h5l.2-.1h.2l.2-.1h.2l.2-.1.2-.1.3-.2.2-.1.5-.3.1-.1.3-.3.1-.1.3-.3.1-.1v-.1l.1-.1v-.1l.1-.1.2-.3.2-.3.3-.6-1.3 1.6-.2.2-.6.5-.2.2-.2.2-.2.2-.2.1-.2.1-.2.1-.2.1-.2.1-.5.2-.2.1H7.3l-.2-.1h-.5l-.2-.1-.2-.1-.3-.2-.2-.1-.1-.1-.3-.2-.1-.1-.2-.3v-.1l-.2-.2h.6l.1.1h.1l.2.1.2.1.2.1h1.5l.8 1.3H12l.2-.1.2-.1.2-.1.2-.1.2-.1.2-.1-.3.2-.3.1-.2.1H7.5l-.2-.1h-.2l-.3-.2-.2-.1-.2-.1h.3l.8.4h3.7l.2-.1h.2l.2-.1.2-.1.2-.1.2-.1.2-.1.2-.1.2-.1.2-.2.2-.1-.2.1-.2.2-.2.1-.2.1-.2-.7-.2.1-.2.1-.3.1H9.9l.2-.2.1-.1h1.1l.2-.1h.2l.2-.1.2-.1.2-.1.2-.1.2-.1.2-.2.2-.2.2-.2.2-.2.2-.2.2-.2.1-.2.1-.2-.5.4-.2.2-.2.2-.5.3-.3.2-.2.2h-1.4l.2-.3h1.2l.2-.1.2-.1.2-.1.2-.1.3-.3.1-.2.2-.2.4-.5.1-.1.2-.2.1-.1.1-.2.2-.3v-.2l.1-.2v-.2l.1-.2v-.2l-.2.3-.2.3-.2.3-.2.3-.2.3-.2.3-.1.1-.1.1-.3.3-.2.2-.3.3-.2.1h-.9l.1-.2 1.5-1.2.2-.3.2-.3.2-.3.2-.3.2-.3.2-.3.2-.3.2-.3.3-.7.3-.9v-.2l-.2.4-.2.4-.2.4-.2.4-.2.4.2.7-.1.2-.1.2-.1.2-.1.2-.2.2-.3.4-.2.2-.2.2-.5.5-.4.3v-.2l.3-.4.7-.9.3-.5.3-.5.6-1 .3-.6.3-.6.2-.6.2-.6.2-.6.2-.7.2-.7.2-.7.2-.7.2-.7.2-.7.1-.8.1-.8.1-.8v-.8l.1-.8v-7.3l-.3-2.9.2-.2.3 3.5v7.6l.1-.5.1-.5v-9l-.2-1.5.5-.4v.1-2.8h.3v2.7l-.1-1h.3l.1 2.4v.3l-.1-2.6h.3l.2-.1.1 3.5v-3.8h.1l.1-.1v-.1l2-.3v-3l-.1-.1-.1-.2-.1-.1-.3-.2h-.1l-.3-.3v-2.4h-.1v-.1h-.2l-.4-.6-.4-.3-.2-.1-.2-.1-.2-.1-.2-.1-.2-.1h-.1v-1h.4l.5-.1v.8l.1.7.1-.7V48l.4-.2h.3l.2-.1.2-.1v-1.1l-.1-.5-.2-.5v-.3l-.4-.6v-.7l-.1-.2-.1-.1-.1-.1-.2-.3-.4-.1-.1-.2h-.2l-.2-.1v-1.3h.5l.2.2h.1v1l.1.7.1-.7v-1h1l.1-.1.2-.2v-3.3l-.2-.6-.1-.3-.2-.3-.2-.3-.2-.3v-.5l-.5-.5-.2-.2-.3-.2-.6-.4-.2-.2-.3-.2-.3-.2-.7-.3-.7-.2-.7-.2h-2.3V27h.3v.5l.2.3v2.8l.1 2 .3-1.9v-2.3l.3.2h.3v1.6l.1 1.7.1-1.7v-1.6h.7v.1l.2.3v.6l.1 1.7.1-1.7v-.2l.3.2.2.1h2.6l.5-.3.2-.1.1-.1.1-.1.2-.3.1-.1.1-.2.1-.2v-.5l1.2-.6.2-.3V76l.1 1 .2 1 .3 1 .3.9.4.9.5.9.6.9.6.9.7.9.8.8.8.8.9.8.9.8.9.8 1 .7 1 .7 1 .7 1.1.7 1.1.6 1.2.6 1.2.6 1.2.5 1.2.5 1.2.5 1.2.4 1.3.4 1.2.3 1.3.3 1.3.3 1.3.2 1.2.2.8.1.2.3.3.3.2.3.2.3.4.6v.2l.1.2v.3l.1.3.2.6.3.9.1.3.1.3.8 2.4h-.8l-.1.3h-.1v.9h-.8v-.1.4h1v-.5l.1-.1h1.8v.7h1.2v-.6h-.1 1v-.6h-.7l.8-2.5.1-.3.1-.3.3-.9.1-.3.1-.3.1-.3.2-.3.2-.3.2-.3.2-.3.2-.3.2-.3.5-.6.9-.1 1.3-.2 1.2-.2 1.3-.3 1.3-.3 1.2-.3 1.3-.4 1.2-.4 1.2-.5 1.2-.5 1.2-.5 1.2-.6 1.1-.6 1.1-.6 1.1-.7 1-.7 1-.7 1-.7.9-.8.9-.8.9-.8.8-.8.7-.8.7-.9.6-.9.6-.9.5-.9.4-.9.3-.9.3-1 .2-1 .1-1V26.7l.3.4.5.3v1.2l-1.3.2.1.1.1.1.1.1.1.1.1.1.1.1.2.1h3.1l.2-.1v.1l.1 1.7.1-1.7v-.3l.2-.2v-.3l.2.1.3.1v1.5l.1 1.7.1-1.7v-1.5h.5V31l.1 2 1-2.4v-2.4l.1-.2v-.9h.3v5.8h-2.1l-.7.2-.3.1-.3.1-.3.1v.3l-.3.2-.4.2-.6.4-.3.2-.3.2-.2.2-.5.5-.2.2-.2.3-.2.3-.2.3-.1.3-.1.3-.1.3V41l.1.1.1.1h.7v1l.1.7.1-.7v-1h.2l.2-.2h.3v1l-.1.2-.1.1-.1.2-.1.2v.3l-.1.1v.7l-.1.2v.3l-.1.5-.1.5v1.1l.2.1.2.1h.3l.3.1v1l.1.7.1-.7v-.9l.6.2h.3v1.1l-.2.1-.2.1-.2.1-.2.1-.2.1-.2.1-.2.2-.2.1h-.2v2.4l-1 1.7v.1l-.1.1v3l.4.5-.3 4 .1-3.7h.3v5.5l.2-5.5h.5l-.1 1.7v-3.1h.3v.3l-.3.5-.1.3v1.5l.1.2-.3 4.1v6.2l.1.5v.3-7l.3-3.8.2.1-.2 3.1v8.9l.1.8.1.8.1.8.1.7.2.7.2.7.2.7.4 1.3.2.6.2.6.2.6.3.6.3.6.3.5.3.5.3.5.3.5.3.4.3.4.3.4.1.3-.2-.2-.2-.2-.2-.2-.2-.2-.3-.4-.2-.2 2.2-.2-.2-.2-.5-.6-.4-.6-.1-.2-.2-.1-.1-.2-.1-.2-.1-.3-.1-.2-.1-.2-.2-.5.3.9.1.2.1.2.2.4.1.2.1.2.1.2.1.2.1.2.1.2.1.2.1.2.1.2.3.4.2.2.2.2.5.5.9.6v.3l-.3-.1-.2-.1-.5-.3-.2-.2-.2-.2-.2-.2-.4-.4-.6-.7-.2-.2-.2-.2-.2-.2-.2-.2-.1-.2.1.3.2.3v.2l.1.2v.2l.1.2v.2l.1.1.1.2.1.1.1.1.1.1.1.1.1.1.1.2.2.2.2.1.1.1.2.1.3.2.2.1 1.1.5.2.3h-.9l-.2-.1h-.2l-.2-.1-.2-.2-.2-.2-.3-.2-.2-.2-.2-.2.1-.5-.2-.2-.2-.2.1.2.4.5.2.2.2.2.2.2.2.2.2.1.2.2.2.1.2.1.2.1.3.1.2.1h1.1l.2.1.2.2-1.3-.2h-.8l-.2-.1-.2-.1h-.5l-.2-.1-.2-.2-.4-.3.2.2.2.2.2.1.2.1.6.3.2.1.2.1h.2l.2.1h3.5l.2-.1h.2l.2-.1.2-.1h.3l-.8.6-.2.1h-5.4l-.1-.6.3.2.2.1.2.1.2.1.2.1h2.1l.3.8h2.1l.2-.1h.2l1.3-1h.3l.1-.1v.1l-.1.1-.1.1-.2.2-.1.1-.2.1-.2.1-.3.2-.2.1-.2.1h-.4l-.2.1h-4.4l-.2-.1-.2-.1-.2-.1-.4-.2-.2-.1-.2-.1-.2-.1-.2-.1-.2-.1-.2-.1-.7-.6-.3-.3-.3-.3-.3-.3-.2-1-.3-.3-.3-.3.1.3.2.3.2.3.1.3.2.3.2.3v.1l.1.1v.1l.1.1.4.2.1.2.3.3.2.1.2.1.2.1.2.1.2.1.2.1.5.3h.2l.2.1h5.3l.3-.1h.2l.2-.1.4-.2.2-.1.2-.1.2-.1.5-.4.1-.1.2-.3.1-.1v-3.7H101v.1h-.1l-.1.1-.2-.2v-.4h2.1l.3.3.1.2.1.2.2.3.1.2V87l-.2.4-.2.3-.1.2-.1.2-.1.2-.2.2-.2.2-.2.2-.2.2-.4.3-.2.1-.2.1h-5.6l-.6-.2-.2.2-.3-.2-.3-.2-.6-.3-.5-.4-.3-.2-.2-.2-.2-.3-.2-.2-.2-.2-.4-.5-.1-.2-.1-.1-.1-.1-.1-.2-.9-1.4.1.3v.3l.1.3.1.3.1.2.1.2.1.2.3.4.1.2.2.2.2.2.2.2.2.2.2.2.2.2.6.5.2.1.2.1.8.5h.2l.2.1h.6l.3.1.3.1.3.1.3.1h4.8l.2-.1.2-.1.2-.1.2-.1.2-.1.2-.2h.4l.1-.1h.1l.2-.2.2-.2.3-.5.2-.2V83l-.1-.2.3-.3-.1-.2-.1-.2v-.2l-.1-.1v-.1h-.1l-.1-.1h-3.1v.9h.1v-.3h.5v1.5h-.1l-.1.1h-2.6l-.1-.1-.2-.2-.1-.1v-5.2h3.9l.4.1.4.1.3.2.3.2.3.2.3.3.3.3.2.3.2.3.2.3.2.4.1.4.1.4v3l1 1.2-.1.4-.2.4-.2.4-.2.4-.2.4-.3.3-.3.3-.3.3-.3.3-.3.3-.5.3-.5.3-.5.2-.5.2-.5.2-.5.2-.6.1H96.9l-.6-.1-.5-.2-.6-.2-.5-.2-.5-.3-.5-.3-.5-.3-.5-.3-.4-.4-.4-.4-.4-.4-.3-.5-.3-.5-.3-.5-.3-.6-.2-.6-.2-.6-.1-.6-.1-.7v-1.6h-.9v2.3l-.1.1v.1h-.1v.1h-2.1l-.2-.1-.2-.1-.2-.1h-.4v.9h-4.3v5l-.1.2v.4l-.1.2-1.2 2.1-.1.2-.1.2-.1.2-.1.2-.1.2-.1.2-.3.3-.2.1-.2.2-.2.2-.2.1-.2.1-.2.1h-.2l-.4.1.8-.4.2-.1.3-.2.1-.1.2-.2.1-.1.1-.1.1-.1.1-.1.1-.1.1-.1.2-.4.1-.2v-.2l.1-.2.2-.1v-1.2l-.1.3v.3l-.1.3-.1.3-.1.3-.1.3-.2.3-.1.3-.1.1-.1.1v.1l-.1.1v.1l-.1.1-.1.1-.1.1-.1.1-.3.2-.2.1-.1.1-.5.2v-.2l.5-.4.2-.2.2-.2.2-.2.2-.2.2-.2.1-.2.1-.2.1-.2.1-.2.1-.2.1-.2v-.5l-.1.2v.2l-.1.2-.1.2-.1.2-.1.2-.1.2-.1.2-.3.4-.2.2-.4.3-.3.2v-.2l.1-.2.3-.3.3-.4.1-.1-.1-.3v-.2l.1-.2v-.2l-.2.2-.2.2-.2.2-.2.2-.4.4-.2.2-.2.2v-.1l-.1-.1-.1-.1-.1-.1h-1.7l-.1-.6h-.2v.7l-1.6 1h-1.7v.6h-.2l-.3.1-.3.1-.3.1-.3.1-.3.2-.3.2-.3.2-.5.4-.2.2-.2.2-.2.2-.4.5-.2.3-.3.6-.1.3-.1.3-.1.3-.1.3v.3l-.1.3v4.4l.1.3v.3l.1.3.1.2.1.3.1.2.1.2.5.7.2.2-.7.8-.2.2-.1.2-.1.2-.2.4-.1.2-.1.2-.1.2v1l.1-.2.1-.2.1-.2.1-.2.1-.2.1-.2.2-.2.1-.2 1.2-1.4.3.3.2.2.3.2-.8.9-.2.2-.2.2-.2.3-.1.2v2.6l.1-.3v-.3l.1-.3.1-.3.3-.6.3-.6v-.6l.1-.1v-.1l.2-.2.2-.2.2-.2.2-.2.5.3.3.2-.9.9-.2.2-.2.2-.3.5v2.1l.2-.6.2-.6.1-.3.2-.3.2-.3.3-.5.2-.2.2-.2-.6-.2.2-.2.2-.2.2-.2.6.2h.1l-1.1 1.3-.2.2-.1.3-.1.2-.1.3-.1.3-.1.3v1.3l.1-.3.1-.3-.1-.2.1-.3.1-.3.3-.6.1-.1v-.4l.1-.1v-.2l.1-.1.2-.2.2-.2.2-.2.2-.2h.3l-.2.2-.4.5-.2.2-.2.3-.2.2-.2.3-.2.3-.1.3-.2.5v1.6h-3.9l-.2-.1-.2-.1-.2-.1-.2-.1-.2-.1-.2-.1-.2-.1-.2-.1-.1-1-.2-.2-.2-.2-.2-.2-.4-.4-.2-.2-.2-.2-.2-.2-.2-.2-.2-.2-.1-.3-.1-.2-.1-.2-.1-.2-.1-.2-.2-.5-.1-.2v-.5l-.1-.2v-1l-.5-.1v-.2 2.5l.1.2v.2l.2.4.1.2.1.2.1.2.1.2.2.4.1.2.1.2.2.2.1.2.2.2.5.5.2.2.2.1.2.2.2.1.2.1.2.1.2.1.2.1.2.1.2.1.2.1.2.1.2.1.2.1.2.1h6.3l.1-.1h.2-1.4l.8-.4.7-.3H73l.7.7v.3l-.2.1h-.2l-.2.1h-.5l-.4.7h-.1 1.5l.1-.1v-.5l-.2-.3h.1v.9l-.1.1-.1.1-.1.1.7-.3h-8.3l-.2-.1h-.2l-.2.1h-.4l-.8-.5-.2-.1-.2-.1-.2-.2-.2-.2-.2-.2-.2-.2.2.2.2.2.2.2.4.3.2.2.2.2.7.4.2.1.2.1.2.1.2.1h.3l.2.1h8.1l.1-.1.5-.9v.8l-.1.1-1 .6h-7.1l-.3-.1-.7-.2-.4-.2-.6-.3-.3-.2-.2-.2-.3-.2-.6-.4-.3-.2-.3-.2-.2-.2-.2-.2-.2-.3-.2-.2-.2-.3-.2-.3-.2-.3-.4-.6-.2-.3-.2-.3-.2-.3-.2-.3v-.3l-.1-.3-.1-.3-.1-.3v-.3l-.1-.3v-5.1l.1-.3v-.3l.1-.3.1-.3.1-.3v-.4l.1-.3.1-.3.5-1v-.5h-3.1l-.2-.1-.3-.2h-.6v.5l.2.3.1.3.1.3.1.3.1.3v.6l.1.3v3.7l-.1.2-.1.2-.1.1-.1.2-.3.3-.1.1-.3.2-.4.2-.2.1h-5.2l-.2-.1h-.2l-.5-.2-.4-.2-.1-.1-.1-.1-.1-.1-.1-.2-.1-.1-.1-.2v-4.4l.1-.3.1-.3.1-.3.1-.3.1-.3.2-.3v-.6h-.6l-.3.2-.1.1h-3.5v.5l.2.3.3.7.1.3.3 1 .1.3.1.3v6.2l-.1.3-.1.3-.1.3-.1.3-.1.3-.2.3-.2.3-.2.3-.2.3-.6.8-.2.3-.5.5-.2.2-.3.2-.2.2-.3.2-.3.2-.3.2-.3.2-.3.2-.3.2-.3.2-.3.2-.3.2-.3.1-.3.1-.3.1-.3.1h-.3l-.3.1h-2.4l.8.9Z" fill="#E3BF5E"/><path fill-rule="evenodd" clip-rule="evenodd" d="M53.6 110.199h-3v-.599H57v1l-.1.2H54l-.4-.601Zm0 1.201h-2.4v-.201h5.2v.201H53.6Z" fill="#B89B59"/><path fill-rule="evenodd" clip-rule="evenodd" d="M20.8 128.1v-.6c0-.2-.1-.3-.2-.4-.1 0-.6-.2-1.6-.3l-1.7-.3h-.2v3.3l.2-.3c.1-.1.2-.1.3-.1l.5.1.7.1.7.1.5.1c.2 0 .6-.5.6-.5l-.2.4-.2.6-.2.4c0 .2-.2.3-.2.6l-.6-.1c-.3-.1-.6-.1-.9-.2-.4-.1-.7-.2-1.1-.2v.6c0 .3-.1.6-.2.9-.5.5-1 .9-1.5 1.3l-1.1.9-.6.5c-.3 0-.7 0-1-.1l-.9-.2.3-.3.3-.3c.1-.1.2-.3.3-.4 0-.1.2-.3.2-.3h1.3c.3.1.6.1.9 0 .1 0 .2-1.1.2-1.1v.5V126.6c0-.1.4-.2.4-.2-.3-.1-.6-.2-1-.3h-1s-.2.2-.4.5-.1.1-.1.2l-.1.3 1.2-2.6 7 1.4-.6 2.2Zm2 0c-.2.3-.5.6-.9.8.2-.3.4-.7.4-1.1 0-.3-.1-.6-.2-.8v-.1l1-.5v.6c0 .4-.1.8-.3 1.1Zm.4 8.1c-.4 0-1.2-1.1-1.2-2.2v-3.3c0-.2-.1-.3-.4-.4h-.4l1.3-1c.3.1.6.3.7.6.1.3.1.6.1.9v3.7c0 .2.1.4.2.6.1.2.2.3.4.3s.3-.2.3-.2-.8 1-1.1 1.1m5.7-4.3c0-.1-.1-.2-.1-.4-.1-.2-.1-.6-.2-.6-.4-.2-1.9.9-1.9 2.4 0 .4.1.8.2 1.2.2.4.5.7.8.9.2.2.5.4.9.5.3 0 .5-.5.5-1.7 0-.8-.1-1.6-.2-2.3Zm1.4 3.4c-.5.4-1 .7-1.5.9-.4.2-.9.4-1.3.5-.7-.3-1.3-.8-1.7-1.5-.4-.6-.7-1.3-.7-2.1-.1-.9.3-1.8 1-2.4.8-.3 1.6-.4 2.5-.4-.5-1-1.4-1.7-2.4-2h-.6c-.2.1-.3.2-.5.3l1.5-1.7h.1c.9.2 1.6.7 2.2 1.3.6.6 1.1 1.4 1.4 2.2.4 1 .6 2 .6 3.1-.1.7-.3 1.3-.6 1.8Zm4.7-1.6c-.1-.4-.3-.8-.6-1.2-.4-.6-.8-.9-1-.9-.2 0-.6.8-.6 2v.7l2.2-.6Zm-1.9 1.1c0 .2.2.5.5.9.6.7 1.4 1.1 2.3 1.1.2 0 .5-.1.7-.2l-.8.6-.9.6h-.3c-1-.1-1.9-.6-2.4-1.4-.6-.8-.8-1.7-.8-2.7 0-.6.2-1.1.5-1.6.1-.2.6-.4 1.4-.7.5-.2 1.1-.3 1.6-.3.3 0 .8.4 1.3 1.2.3.4.6.9.7 1.5l-3.8 1ZM42.7 138.8s-.2-.1-.3-.3c-.1-.2-.4-.5-.4-.7v-3.101c0-.2-.2-.399-.5-.699-.2-.2-.4-.4-.7-.6-.1-.1-.2-.1-.3-.1 0 .1-.2.199-.3.399l-.3.601c-.2.3-.4.6-.5 1v2.1l-.6.4-.8.6v-5.3c0-.2-.1-.301-.2-.401l-.3-.199h-.2l-.2.1c-.1 0-.1.099-.1.099v.201c.2-.3.4-.501.6-.701h.1c.2-.3.5-.499.8-.599.2 0 .4.1.5.2.4.3.6.5.6.8v1.7c.2-.5.4-1 .8-1.4.5-.8.9-1.1 1-1.1.4.1.7.3 1 .5.3.2.6.5.9.8.2.3.3.8.3 1.2v3.1c0 .2.1.4.3.4h.1c.1 0 .3-.1.3-.2-.5.3-1 .7-1.4 1.2m5-5.4-.9-.1v3.5c0 .3.1.5.3.7.1.2.3.4.6.4.2 0 .5-.3.5-.3-.2.3-.4.5-.6.8v.1l-.6.6-.6-.401-.2-.199c-.3-.2-.5-.5-.6-.9v-4.5l-1.2-.2c1.3-.6 2.1-1.801 2.4-3.201v2.401l.9.099c.4 0 .7.001.8-.199v-.1l-.9 1.7m2.3-2.901c-.2.3-.5.601-.9.901.2-.3.4-.7.4-1.1 0-.3-.1-.601-.2-.801v-.099l1-.6v.6c.1.3 0 .699-.3 1.099Zm.5 8.101c-.4 0-1.2-1.001-1.2-2.101V133.5c0-.4-.1-.301-.4-.301-.1 0-.2.001-.3.101v.1l1.3-1.201c.3 0 .6.2.7.5.1.3.1.601.1.901v3.7c0 .2.1.4.2.5.1.2.3.2.4.2.2 0 .3-.301.3-.301s-.8 1.101-1.1 1.101Zm5.2-4.9c-.3 0-.5-.1-.8-.1l-.7-.101h-.6c-.3 0-.5.001-.5.101.1.7.4 1.299.7 1.899.5 1 .8 1.5 1.1 1.5.3 0 .4-.499.8-1.299.2-.5.4-1.1.5-1.6v-.2c-.2-.1-.3-.1-.5-.2Zm1.7 5.1c-.2 0-.4-.201-.6-.301-.3-.4-.5-1-.6-1.5V135.5l-.3.8c-.1.3-.3.7-.6 1.2-.5 1-.9 1.5-1.1 1.5-.2 0-1-.5-1.5-1.5-.4-.7-.6-1.4-.7-2.2.2-.6.5-1.2.9-1.7s.8-1 1.3-1.3h.3c.2 0 .6.1 1 .1l.9.1 1.2.199v3.901c0 .3.1.5.1.8.1.3.3.5.4.5.1 0 .3-.201.3-.201-.3.5-.7 1.001-1.2 1.401m18-11.901-.6.801-.5.699c-.2.2-.4.4-.7.5l-2.2.201v5.4c-.1.6-.3 1.1-.5 1.6l-.3.4-.8 1v.1l-.1.1-1.5 1.5c-.1 0-.5-.2-1-.6-.5-.4-.8-.7-.8-.8.2-.8.5-1.601.9-2.401.2 0 1.8 2.301 2.2 2.301.4 0 .5-.6.5-1.9v-5.901l.9-.799h-1.9c-1.6.1-2.3.3-2.3.6s.3.5.9.8c.4.2.9.399 1.4.399l-1.1 2c-.5-.1-1-.299-1.4-.599-.7-.5-1-.8-1-1 .3-.7.7-1.4 1.3-2l.6-.8.3-.4.3-.3c2-.4 4.1-.7 6.1-.8l1-.101.4-.099.3-.3c-.1.1-.1.299-.2.399m1.7 5.701v-.4c0-.2-.1-.3-.4-.5-.2-.1-.4-.2-.6-.2-.1 0-.3.2-.5.6-.1.3-.2.499-.2.799v3.5c-.1 0-.3.2-.7.5-.2.2-.4.301-.7.401v-5.3c0-.2 0-.4-.1-.5h-.2c-.1 0-.2.1-.3.2-.1.1-.2.2-.2.3l1.1-1.601c.3 0 .6.101.8.301.1.1.2.3.2.8v.399c.4-.6.9-1.199 1.4-1.699.2 0 .5.099.6.199.2.1.4.3.6.5l-.8 1.701Zm6.7 3.4c-.3-.1-.5-.3-.7-.5-.3-.3-.5-.5-.5-.7v-1.7c-.1.6-.3 1.2-.6 1.7-.5 1-.8 1.5-1 1.5-.3 0-.6-.1-.8-.3-.5-.3-.9-.9-1-1.5v-3.5c-.1-.1-.2-.2-.3-.2-.2 0-.5.1-.6.3l1.5-1.6c.2 0 .5.1.6.2.2.1.3.3.3.5v3.4c0 .2.1.4.3.6.1.2.3.299.5.199.1 0 .2-.099.3-.199 0-.2.2-.4.3-.6l.3-.6c.2-.4.3-.8.3-1.3v-1.301c0-.1 0-.199-.1-.299-.1-.1-.2-.1-.3-.1-.2 0-.3.1-.5.2l1.3-1.301.4.101.4.1c.2.1.3.4.3.9v3.6c0 .2 0 .3.1.4.1.2.2.2.3.2.1-.1.3-.101.3-.301.2.5-.7 2.001-1.1 2.101Zm6.3-2.5c-.3.9-.7 1.5-.9 1.5l-.3.1c-.6.1-1.3.1-1.9 0-.6-.1-1.2-.3-1.7-.6l1-1.7v.2c0 .3.4.5 1.2.6.6.1 1.2.1 1.7 0 .3 0 .5-.1.5-.3 0-.3-.5-.5-1.5-.7l-.9-.201-1-.099c-.5 0-.7-.3-.7-.7.1-.4.3-.901.5-1.201.2-.4.5-.899.7-1.299.2-.3.5-.5.9-.5 1-.1 1.9 0 2.9.2l-1.2 1.9v-.2c0-.2-.3-.4-1-.4-.5-.1-.9-.1-1.4 0-.1 0-.2.1-.3.2-.1.1-.1.2-.2.3 0 .2.3.3.8.4l1 .1h.6c.5.1 1.1.3 1.5.5v.1c-.1.6-.3 1.199-.5 1.699m4.4-5h-.9v3.401c0 .2.1.5.3.7.1.2.3.3.6.3.2 0 .5-.401.5-.401l-.6.901v.099L94 134l-.1.199s-.1.201-.2.201l-.6-.3h-.3c-.3-.1-.5-.4-.5-.7v-4.5l-1.2.1c1.3-.9 2.2-2.3 2.5-3.9v2.4l.9-.1c.3 0 .6-.2.8-.5v-.1l-.9 1.899Z" fill="#111417"/><path fill-rule="evenodd" clip-rule="evenodd" d="M58.7 56.8h-2.1l-.3-.1h-.5l-.3-.1h-.3l-.2-.1-.5-.2-.6-.9-.5-.2-.5-.2-3-1 .2-.2.9-.7.4-.3.4-.4.3-.3.4-.4.8-.8 1-1 .2-.2.2-.2.2-.2.2-.2.2-.2.3-.4.2-.2.2-.2.2-.2.2-.2h.1l.7-.2.3-.1h.3l.3-.1h5.6l.3.1h.3l.3.1.3.1.3.1.3.1.3.2.3.2.3.2.3.2.4.3.4.3.3.3.3.3.3.3.2.3.2.3.2.3.1.3.1.3v1.8l-.1.3-.1.3-.2.3-.2.3-.2.3-.3.3-.3.2-.3.2-.3.2-.3.2-.4.2-.4.2-.5.2-.5.2-.5.1-.5.1h-5.5l.1-.2Zm-7.2 13.7.6-.2.6-.2.5-.2.5-.2.9-.4.4-.2.8-.3.3-.2.3-.2.3-.1.6-.2h3l.4.1.6.2h.3l.2.1.4.3.2.1.1.1.1.2.1.2.1.2.1.2v2l-.1.2-.1.2-.1.2-.3.4-.2.2-.2.2-.4.4-.2.2-.2.2-.3.2-.2.1-.2.1-.2.1-.2.1-.2.1h-.2l-.2.1-.2.1-.2.1h-.6l-.2.1h-7.3l-.3-.1h-.3l-.3-.1h-.3l-.3-.1-.3-.1-.3.4-.6-.3-.3-.2-.2-.1-.3-.2-.3-.2-.3-.2-.2-.2-.2-.2-.2-.2-.4-.5-.2-.2-.2-.3-.2-.2-.1-.2-.1-.2 1-.1 1-.1.9-.1.9-.2.8-.2.8-.2.7-.2.4-.1ZM40 43.1h1l-.8.3H40v-.3Zm34.1 9.4v-.6l-.2-.7-.2-.6-.3-.6-.3-.6-.4-.6-.5-.6-.7-.6-.7-.6-.8-.6-.9-.6-.3-.2-.6-.3-.2-.1-.3-.1-.3-.1-.3-.1-.6-.2-.3-.1h-6.5l-.8.2.2-.2.2-.5.1-.2-.1-.3.1-.2v-.2l.1-.2v-5.1l-.1-.2v-.2l-.1-.2v-.1l-.1-.3-.2-.3-.2-.3-.2-.3-.2-.3-.3-.3-.3-.3-.3-.2-.3-.2-.3-.2-.3-.2-.3-.2-.4-.1-.3-.1-.3-.1-.3-.1-.3-.1h-3.9l-.3.1-.3.1-.3.1-.3.1-.3.1-.3.1h-4.4l-.2.1h-.2l-.4.3-.2.2-.2.2-.2.2-.1.2H43l-.2.2-.1.2-.3.4-.3.4v.2l-.2.2-.2.2-.5 1.3-.2.2-.1.2-.3.3-.2.1-.2.2-.2.2h-.5v1.9h.3v.3l.1.1h-4v.2l.2-.1.2-.1h.6v3.4h3.5l.7-.3h.2l-.2-1.1h3.1l.1-.1.1-.1h.1l.1-.1.1-.1h.1v-.1h3.3v-3.2l.1-.1.3-.2.1-.1h.1l.3-.2h2.8l.1.1.1.1.2.3.1.2v3.1l-.1.2-.1.3 1.7-.3v.3l-.1.2v.2l-.1.2-.1.2-.2.3-.1.2-.1.2-.1.2-.1.2-.1.2-.1.2-.1.1-1.2 1.2-1.2.4-.3.1h-.4l-.4.1-.8.2-.4.1-.4.1-.4.1h-1.3l-.4.1h-9.2l-.5-.1h-.5l.3.2h.1l.2.1.3.2.3.2h.1l.2.1.3.2.3.1h.3l.3.1h6.7l1.9-.2-1.4.9-.2.2-.2.2-.2.1-.2 1.5-.2.2-.2.2-.5.3-.9.1-.9.2-.8.2-.8.3-.8.3-.7.3-.7.4-.6.4-.6.5-.6.5-.5.5-.5.6-.4.6-.3.6-.3.5v.1l-.3.7v.2l-.1.4-.1.4-.1.2-.1.7v1.4l.1.7v.7l.2.7.3.7.3.7.2.3.2.3.4.6.5.6.6.6.6.6.7.6.3.8.3.6v.3l.3.6.4.7.4.7.4.6.4.6.4.6.5.6.5.5.5.5.5.5.5.5.5.4.5.4.5.3.5.3.7.5.5.3.5.3.5.3.5.2.5.2.5.2.6.2.5.2 1.1.2H57l.4-.1.4-.1.4-.1.3-.1.4-.1.4-.1.4-.1.4-.2.4-.2.4-.2.3-.2.4-.2.3-.2.3-.2.3-.2.3-.2.7-.5.3-.2.7-.5.3-.3.3-.2.5-.5.4-.5.4-.5.4-.5.3-.5.3-.5.3-.5.2-.5.2-.5.2-.5.1-.5.1-.5.1-.5v-2.3l-.1-.5v-.8l-.1-.5-.2-.5-.2-.4-.2-.3-.3-.5-.3-.4-.3-.4-.3-.3-.3-.3-.4-.3-.3-.2-.2-.1-.5-.3-.5-.2-.7-.3-.7-.2-.7-.2-.7-.1h-4.1l-.7.1-.7.2-.7.2-.7.2-.7.2-.7.2-2.1.7-.7.3h-.3l-.4.1-.7.2-1.3.4-.6.2-.6.2-.6.1-.6.1-.6.1h-1.7l-.1.1V62l.1-.2.1-.2.1-.2v-.1l.1-.2.3-.5.2-.2.2-.2.2-.2.2-.2.2-.2.3-.4 3.7.8.9.2 1.8.5.6.2.3.1.5.1.5.1.5.1.5.1.9.2.5.1.5.1h.5l.5.1h8.2l.8-.1.8-.2.7-.2.7-.2.7-.3.6-.3.6-.3.6-.4.6-.4.5-.5.5-.5.4-.5.4-.5.3-.6.3-.6.2-.6.2-.6v-1.3l-.2-1.3Z" fill="#000F20"/><path fill-rule="evenodd" clip-rule="evenodd" d="m68.8 69.2-.1-.5v-.2l-.1-.3-.2-.7-.1-.2-.1-.2-.1-.2-.2-.5-.1-.2-.3-.4-.2-.2-.2-.2-.2-.2-.3-.4-.1-.1-.1-.1-.2-.1-.2-.1-.2-.2-.2-.1-.1-.1-.1-.1-.2-.1-.3-.1-.2-.1h-.1l-.6-.3-.6-.2-.6-.2-.6-.1-.7-.1H60.2l-.6.1-.7.1-.7.1H58l-.5.1-.7.2-.7.2-.7.2-1.3.4-.7.2-.6.2-.7.2-.7.2-.6.2-.3.1-.4.1-1.9.6-.6.2-.6.2-.6.1-.6.1-.6.1h-1.8l-.9-.1-.2-.1-.3-.1-.5-.1-.2-.1-.2-.1-.2-.1-.2-.1-.2-.1-.2-.1-.2-.1-.5-.4-.2-.1-.1-.1-.1-.1-.1-.1-.1-.1-.1-.2-.1-.2-.1-.2-.1-.2-.1-.2-.1-.2-.1-.2-.1-.1-.1-.3V62.2L38 62v-1.5l.1-.5.1-.2.1-.2.2-.4.1-.3.1-.3.1-.2.1-.3.1-.2.2-.5.1-.2.1-.3.2-.2.2-.3.2-.2.2-.3.2-.2.2-.2.2-.3.5-.5.3-.2.2-.2.3-.2.3-.2.7-.5h-1.2l-.4.1h-.2l-.6.1-.1.1h-.1l-.1.1-.1.1h-.1l-.1.1-.1.1-.1.1-.1.1-.2.1-.1.1-.1.1-.1.1-.1.1-.1.1-.3.2-.9.6h.8l-.1.1h-.1l-.1.1-.1.1-.1.1-.1.1-.1.1-.1.1-.1.1-.1.1-.1.1-.1.1-.4.3 1-.1-.1.1-.3.1-.1.1-.1.1-.1.1-.1.1-.1.1-.1.1-.1.1-.1.1-.1.1-.3.3-.1.1.2-.1.1-.1.1-.1.1-.1H37.9l-.1.1-.1.1-.1.1-.2.1-.1.1-.1.1-.1.1-.1.1-.1.1-.1.1-.1.1-.1.1-.1.1-.1.1-.2.1-.1.1-.2.1-.1.1-.1.1-.1.1-.1.1-.1.1-.1.1v.1l-.1.1v.1l-.1.1v.1l.2-.2.1-.1.1-.1.2-.1.1-.1.1-.1.2-.1.1-.1.1-.1h.1l.1-.1H38.1l-.3.1-.2.1-.1.1-.1.1-.1.1-.1.1-.1.1-.1.1-.1.1-.1.1-.4.3-.3.3-.1.1-.1.1-.1.1-.1.2-.1.1-.1.1-.1.1-.1.1v.1l-.1.1V62.8l.1-.1.1-.1v-.1l.1-.1.1-.1.1-.1.1-.1.1-.1.1-.1.2-.2h.1l.1-.1.1-.1h.1l.1-.1.2-.1.1-.1H37.8l-.3.3-.1.1-.1.1-.1.1-.1.1-.1.1-.2.2-.1.1-.1.1-.1.1-.1.1v.1l-.1.1-.1.1v.1l-.1.1V64.1l.1-.1.1-.1.1-.1.1-.1.1-.1.2-.1.1-.1.1-.1h.1l.1-.1h.5l-.1.2-.1.2-.3.6-.1.2-.2.3-.1.1-.1.3v1l.2-.2.1-.1.1-.2.1-.2.1-.1.1-.1.1-.1.1-.1v-.2l.1-.1V65l-.1.3v.2l-.1.2-.1.2-.1.2-.1.2V67.7l.1-.2.1-.2.1-.2.1-.1.1-.1.1-.1.2-.3.1-.1h.1l-.1.5v1.6l.1.1v.1l.1.1h.1V67.3 69.1l.1.2v.1l.1.2V69.9l.1.1V70.3l.1.1v-1.2l.1-.2V68.7 70.7l.1.1.1.1.1.1h.2V69.5l.1-.1v-.2l.1-.1h.1l.1-.1V70l.1.2v.5l.1.1v.1l.1.1v.1l.1.1v.1l.1.1.1.1.1.1.1.1.1.1h.1l.1.1h.1l.1.1h.1v-.5.1V70.2l.1-.1.1-.1.1.8V71.6l.1.1v.1l.1.1.1.1v.1h.1l.1.1.2.1H42.5V70.5l.1-.1h.2V71.5l.1.1v.4l.1.1.1.1v.1l.1.1.2.2h.2l.1.1.3.1h.1l-.1-.1-.1-.1-.1-.1-.1-.1-.1-.1V72l-.1-.1v-.1l-.1-.3V70h.1l.1.3v.6l.1.1v.4l.1.1.1.1.1.1.1.1.1.1.1.1.1.1.1.1.1.1.1.1h.1l.1.1h.8l-.1-.1-.1-.1-.1-.1-.1-.1-.1-.1-.1-.1v-.1l-.1-.1v-1.3h.3v-.1l.1-.1.1.1v.1l.1.1v.2l.1.1v.1l.1.1.1.1v.1l.1.1.1.1.1.1v.1l.1.1.1.1.2.2h.1l.1.1.1.1H47.7l-.1-.1-.1-.1v-.2l-.1-.1v-.1l-.1-.1V70.9l-.1-.2v-.5l.1.2.1.1.1.1.2.2.1.2.1.1.1.1.1.1.1.1.1.1.1.1.1.1h.1l.1.1.2.1h.4l-.1-.1v-.2l-.1-.1-.1-.1v-.2l-.1-.1-.1-.2v-.5l.1.1v.1l.1.1.1.1.1.1.1.1v.1l.2.2.1.1.1.1.1.1.1.1.1.1.1.1H50.4V71.6l-.1-.2-.1-.2v-.4l.1.1.1.1.1.1.1.1h.1l.1.1.1.1h.6l.2.1h.6l-.1-.1-.1-.1-.1-.1v-.1l-.1-.1-.1-.1v-.2l-.1-.1v-.1l-.1-.1v-.1l-.1-.1h.4l.2.1.3.2.1.1.2.1.3.2h.5l-.1-.1-.1-.1-.1-.1-.1-.1-.1-.1-.1-.1-.1-.1v-.4h.4l.2.1.4.2H54.1l.2.1h.4l-.1-.1V69.5l.2.1.2.1h.1l.1.1.1.1h.5v-.1l-.1-.1v-.4l.1.1h.1l.1.1h.1l.1.1h.2l.3.1h.6l-.1-.1h-.1v-.4l.1.1h.1l.3.1H60.4l.3-.1.3-.1.3-.1.3-.1.3-.1.4-.2.1-.1h.1l.1-.1.4-.1h.2l.4-.1H65.2l.2.1v-.8h.1l.1.1.1.1h.1l.1.1.2-.4.3.6.1-.1V67.7l.1-.4.1.1.1.1v.1l.1.1.1.1v.5l.1.1v.1h.1v-.1l.1-.1.1-.2V67.2l.1.1.1.1.1.2V68.6l.1-.1v-.6l.1-.1v-.1V68l.1.2V68.5l.1.4v.2-.2l.1-.1v-1 .2l.1.2v1.2h.2l.1-.1h.1l.1-.1.2-.3.1-.1V70.3l-.1.1-.1.1-.1.1-.1.1-.1.1-.1.1h.1l.1-.1h.1l.4-.2.1-.1-.1.1-.2.3-.2.3-.4.5h.7l-.3.3-.1.1-.1.1v.1l-.1.1-.5.4-.2.2-.1.1-.5.3-.1.1-.1.1-.1.1-.1.1-.1.1-.1.1-.1.1-.1.1-.1.1-.1.1-.1.1-.1.1-.1.1-.1.1-.1.1-.1.1-.3.2-.2.1-.4.2-.2.1-.4.2-.2.1-.2.1-.4.2-.2.1-.2.1-.2.1-.2.1-.2.1-.2.1-.5.1-.2.1h-.2l-.2.1h-.2l-.2.1H57l-.6-.1h-.3l-.3-.1h-.3l-.3-.1-.3-.1-.3-.1-.3-.1-.3-.1-.3-.1-.5-.2-.2-.1-.3-.1-.3-.1-.5-.2-.7-.4-.2-.2-.2-.1-.2-.2-.2-.2-.3-.3-.2-.2-1-.5-.1-.1-.1-.1-.1-.1h-.1l-.1-.1h-.1l-.1-.1H46.3l-.1.1h-.1l-.3.2H47.6l.2.1h.1l.2.1h.1l.1.1H46.4l-.2.1h-.1l-.1.1-.1.1h-.1l-.2.2v.6l.1-.1.1-.1h.1l.1-.1H48.5l-.6.1h-.1l-.1.1h-.2l-.1.1h-.2l-.1.1-.3.1-.1.1-.1.1-.1.1v.1h-.1l-.1.1v.4l.1.2.2-.1.1-.1.1-.1.3-.2.1-.1h.2l.1-.1H49.1l-.2.1-.3.2-.3.2-.1.1-.1.1-.1.1-.1.1-.1.1-.1.1-.2.2-.1.2v.1l-.1.1v.6l.2-.2.2-.2.2-.1.1-.1.1-.1.1-.1.1-.1.1-.1.3-.2h.1l.1-.1h1.2l-.2.2-.4.4-.8.8-.2.2H49.5l.1-.1.1-.1.3-.2h.1l.1-.1H51.1v.5H51l-.1.1-.1.1-.2.2-.1.1-.1.1-.1.1-.1.2v.2l.1-.1.1-.1.1-.1.1-.1.1-.1.1-.1.1-.1.1-.1.1-.1.1-.1.1-.1.1-.1h.1l.1-.1h.2v.6l-.1.1-.1.1-.1.2-.1.1-.1.1-.1.1-.1.1-.1.1v.1l-.1.1-.1.1v.4H51.1v-.1h.1l.1-.1.1-.1.1-.1.1-.1.3-.3v-.1l.1-.1h.1l.1-.1h.5V79.7l-.1.1-.2.4-.1.1-.1.1V81.4H52.5v-.1l.1-.1.1-.1.2-.3.1-.1.3-.3.1-.1.1-.1h.1l.1-.1h.4v.6l-.1.1v.1l-.1.1-.1.1-.1.1-.1.1V82.1h.1l.1-.1h.2l.1-.1.1-.1.1-.1.2-.2.1-.1.1-.1v-.1l.1-.1v-.2h.1l.1-.1-.3 1.8.1-.3.1-.1.2-.3.3-.4.1-.1.1-.1.1-.1.1-.1.1-.1.1-.1v1.4l-.1.3v.5l.1-.2.1-.1.2-.5.2-.5.1-.1v-.1l.1-.1v-.2l.1-.1h.1v1.2l-.1.2-.1.2v1H57l.1-.1v-.1l.1-.1V83.2l.1-.1v-.2l.1-.2v-.1l.1-.3.1-.3.1-.3v-.4l.1.1V83.8l.1.1h.2l.1-.2v-.5l.1-.2v-.2l.1-.2.1-.2v-.1l.1-.2V81.8l.1-.1v-.1.1l.1.1V82.8l-.1.5v.5l.1.1h.2l.1-.1v-.5l.1-.2V82.8l.1-.4.1-.2v-.5l.1-.1.1-.1.1-.1v-.1h.2v1.8l-.1.3-.1.1-.1.2h.1l.1-.1.1-.1v-.1h.1l.1-.1.1-.1v-.1l.1-.1v-2.1h.1l.1.1h.1l.1.1V83.4h.1l.1-.1.1-.1v-.1l.1-.1V81.9l.1-.4.1-.5v-.3H61.6l.1.1.1.1V82.9h.5l.1-.1.1-.1.1-.2.1-.1V81H63l.1.1.1.1v1.7h.1l.1-.1h.1l.1-.1.1-.1v-.1l.1-.1V80.5h.1l.1.1.1.1.1.1.1.1v.1l.1.1.1.2v1l.1-.1.1-.1.1-.1.1-.2.1-.1v-.2l.1-.1v-1.5l.1.1.1.1V80l.1.1v1.2h.1v-.1h.1V81l.1-.1v-.2l.1-.3v-1h.1l.1.1.1.2v.8l.1-.1.1-.1.1-.1.1-.1.1-.2v-.1l.1-.1.1-.2V78.9h.1V79.8l.1-.1v.1-.2l.1-.3v-1.2l.1-.1h.1v.1l.1.2v.1l.1.3V79.3l.1-.1v-.7l.1-.3v-1.4l.2.2.1.1.1.1.1.1.1.1v.1l.1.2v.1l.1.2v.1V77.8l.1-.3V75.8h.2l.1.1v.1l.1.1.1.1.1.1.1.1.1.1v.1-1.1l-.1-.2-.1-.3h.5v.1l.1.1v.2l.1.1.1.2.1.1.1.2V74.4l-.1-.1V74l-.1-.1v-.2l.1-.1h.4v.2l.1.1.1.1.1.1.1-.2v-1.1l-.1-.2-.1-.1H71.5l.1.1.1.1v.1l.1.1v-1.1h.2l.1.1h.1v.1h.1v-.4l-.1-.2v-.1l-.1-.1V70.9l-.1-.1H72.3l.1.1.1.1.1-.8v-.8h-3.8v-.2ZM38.001 49.3l.7.3.5.1.5.1.2.1.2.1h.2l.2.1.7.1h1.4l.5-.5h.1l.1-.1h.1v.5l.1-.1h.1l.1-.1.1-.1.1-.1.1-.1.1-.1h.1v.5h.1l.1-.1v-.1l.1-.1.1-.1h.4v.4l.2-.2.1-.1.1-.1.1-.1.1-.1.2-.1v.7h.1l.3-.2.3-.3.1-.1-.1.6h.2l.1-.1.1-.1.2-.2.1-.1.1-.1.1-.1.1-.1.1-.1H47.901v.6h.5l.2-.2.2-.3.1-.2.1-.1.1-.1h.1l.1-.1v.5l.4-.3.1-.1.3-.2.1-.1.1-.1.1-.1.1-.1.4-.3-1.7.5-.5.1-.2.1-.2.1-.2.1-.3.1-.2.1-.5.1-.3.1h-.2l-.2.1h-.1l-.2.1h-.5l-.3.1-.8.1h-.3l-.5.1h-2.9l-1-.1-1.8-.3ZM73.7 52.6v-.3l-.1-.3-.1-.3-.1-.3-.1-.3-.1-.3-.1-.3-.3-.6-.2-.3-.2-.3-.5-.6-.6-.6-.3-.3-.3-.3-.4-.3-.4-.3-.4-.3-.5-.3-.3-.2-.3-.1-.3-.2-.8-.3-.3-.1-.8-.3-.3-.1-.6-.1-.3-.1-.3-.1h-.3l-.6-.1H60.5l-.3.1h-.3l-.6.1-.1.3.6-.3-.2.6.1-.1.1-.1.1-.1.1-.1.1-.1.3-.1.1-.1-.3.7.2-.2.2-.1.1-.1.1-.1.1-.1h.1l.1-.1h.2l-.5.8.2-.2.3-.2.1-.1.1-.1.2-.1.2-.1h.2l-.7 1 .6-.4.2-.1.1-.1.1-.1.1-.1.1-.1.1-.1.1-.1.1-.1h.1v.5l-.1.1-.1.1v.1l-.1.1v.2h.1l.1-.1.1-.1.2-.1.2-.2.1-.1.1-.1.1-.1.1-.1h.5v.1l-.1.2v.2l-.1.2-.1.1-.1.1-.1.1.2-.1.2-.1.2-.1.2-.1.2-.1.1-.1.3-.1-.6.8.1-.1.1-.1.1-.1.1-.1.1-.1.1-.1.2-.1h.1l.1-.1.1-.1h.2l-.1.1-.1.1-.1.1-.2.2-.1.1.2-.1.3-.1.2-.1.2-.1.2-.1.1-.1h.2l-.1.1-.2.3-.1.1-.1.1-.1.1-.1.1.3-.1.2-.1.2-.1.2-.1.2-.1.3-.1-.1.1v.2l-.1.1v.1l-.3.3.2-.1.2-.1.2-.1h.4-.1.2v.1l-.1.1v.1l-.1.1h-.1l-.1.1-.2.1-.2.1.4-.1.3-.1.2-.1h.5l-.1.1-.1.1-.1.1v.1l-.1.1-.1.1H68l-.1.1.1-.1.1-.1.1-.1.2-.1h.2v.1l-.1.1-.1.1-.1.1-.1.1.1-.1.1-.1h.1l.1-.1h.1V46.8l-.1.1v.1l-.1.1.1-.1.1-.1H69V47.2l-.1.2h.6V47.7l-.1.1-.1.1h.4v.2l-.1.1H69.9v.1l-.1.1-.1.1-.1.1h.4v.1H69.7l-.2.1h-.1l.1.1.1.2.1.2.1.2.1.3V50.7l-.1.5-.1.2-.1.2-.1.2-.1.2-.1.2-.2.2-.2.2-.2.2-.2.2-.2.2-.5.4-.3.2-.9.5-.3.1-.3.2-.3.1-.3.1-.3.1-.4.1-.4.1-.4.1-.8.1h-.4l-.4.4h-1.6l-.8-.1h-.3l-.3-.1-.3-.1-.3-.1-.3-.1-.3-.1-.3-.1-.3-.1-.7-.2-.3-.1-.3-.1-.3-.1-1-.3-.3-.1-.7-.3-.7-.3-.8-.3-.7.3-.2.1-.2.1-.2.1-.1.1-.2.1-.1.1-.1.1-.1.1-.1.1h-.1l-.1.1H50l-.1.1h-.1l-.3.3v.1l-.1.1v.1h.1l.3-.1.2-.1.2-.1.2-.1h.1l.1-.1h1.3l.2.1h.2l.1.1-.2.1h-.1l-.2.1-.2.1-.2.1-.2.1-.2.1-.2.1H50.6l-.1.1h-.4v.4H51.2l.2-.1.1-.1.2-.1.2-.1.2-.1.2-.1H53.1v.1l-.1.2v.1l-.3.3-.1.1-.1.1-.1.1-.3.2-.1.1-.1.1-.1.1-.1.1-.1.1v.2l.1.1h.5l.1-.1.1-.1.3-.2.1-.1.1-.1.2-.1h.2l.1-.1H54.3l-.3.2-.3.2-.1.1-.2.2v.1l-.1.1v.4H53.6l.1-.2.4-.4.1-.1.1-.1.1-.1.2-.2.1-.1H55.8l-.1.2-.1.2-.2.3-.1.1v.1l-.1.3V58.9h.1l.1-.1.1-.1.3-.3.1-.1.1-.1.1-.1.1-.1.1-.1.1-.1.1-.1.1-.1.1-.1.1-.1.1-.1-.1.2-.1.1-.1.2-.1.1v.1l-.1.1v.1l-.1.2-.1.3v.2h.2l.1-.1.3-.2.1-.1.2-.2.1-.1.1-.1.3-.4V59.3h.2l.1-.1v-.1l.1-.1.3-.3.1-.1.1-.1h.1v-.1h.1l.1-.1h.1-.1.4l-.1.1-.1.2-.1.1-.2.4v.6h.2l.2-.1h.2l.1-.1.1-.1.1-.1.1-.1.1-.1.1-.1.4-.5-.1.2-.1.2-.1.3v.7h.1l.1-.1v-.1l.1-.1.2-.2.1-.2.1-.2.1-.2V60h.5l.2-.2.1-.1.1-.1.1-.2.1-.1.1-.1.1-.1.1-.1.1.1v1.1H63.1l.1-.1h.1l.1-.1.1-.1.1-.1.1-.1.2-.1.1-.1V60.3l.1-.1.1-.1.1-.1.1-.1.1-.1.1-.1.2-.1V60.4h.1v-.1h.1v-.1h.1v-.1l.1-.1.1-.1.1-.1.1-.1.1-.1.1-.1v-.1l.1-.1.1-.2.1.1V60h.2l.1-.1.1-.1.1-.1.1-.1.1-.1.1-.1.1-.1.1-.2.1-.2.1-.2v1.2l.1-.1.1-.1.1-.1.1-.1.2-.2.1-.2.1-.1.2-.3.1-.3.1-.1V59.3l.1-.1.1-.1.1-.1.1-.1.1-.2.1-.2v-.1l.1-.1v-.1l.1-.1V58l.1-.2v-.1l.1.1V58.7l-.1.1-.1.1h.4l.2-.1.1-.1h.1v-.1l.1-.1v-.1l.1-.1v-.1l.1-.1v-.2l.1-.1.1-.1.1-.1.1-.1.1-.3.1.1V58.2l-.1.1v.2h.1l.2-.2.1-.1.1-.1.1-.1.1-.1v-.1l.1-.1v-.1l.1-.1.1-.1.1-.2.1-.2.1-.2.1-.2.1-.2.1-.2.1-.2.1-.2.1-.1v1.6-.1h.1v-.1l.1-.1.1-.1v-.4l.1-.1v-1l.1.1.1.2.1.1V56.7l.2-.3.1-.2.1-.3v-.2l.1-.4v-.2V56.4l.1-.1v-.1l.1-.1v-1.7l.1-.2v-.1l.1-.1.1.1.1.1.1.2v.1l.1.2v.6V54.3l.1-.5v-.2l.5.8.3-.6.1-.3.1-.3.1-.3.1-.3.1-.3v-1.2l-2.4 1.5Z" fill="#fff"/><path fill-rule="evenodd" clip-rule="evenodd" d="M39.8 41.5v-.1h.9v.1h.1v-.2h-.4v.1h-.5v.1h-.1Zm3.8-2.6v-.4h.7v.9h-.1l-.3.3v.8l.3-.4v.3h-1.7l1.1-1.5Zm-5.2 2.2v.3l.1.2h.2-.3v.2h3.3l.7-.1h.6l.1-.1h.3l.1-.1.1-.1h.1v-.1l.1-.1.1-.2.1-.2h.8v1.3H42v.2h2.9l.1-.1h.1l.1-.1h.1l.2-.2V40h-.3 1l.5-.3v2.2h.1v-3h.1l.2-.1h.1v-.1h.1v-.8h.2l.4-.2.6-.7.1-.2.1-.2.1-.2.3-.5.2-.3v1.8h.1l.3-.3.1-.1.1-.1.1-.1.1-.1.2-.2v-.1l.1-.1v-.1 1.2h.5l.3-.3v1.2h-.1v.1l-.1.1h1.6v.9h-.1v.1l-.2.2h3.6v.1h-.5 1.2-3v.3l.1.1.1.2h-1v.1l.1.1.2.3.1.2.1.1h-.5l-.4-.1.5.8h-.8l.6.8h-1l.4.8h-.7l.2.8-.6-.3v.8h-.5v.9h-.7v.8h-.3v.5H49v.6h-.9v3.3h-.5v.8h-1.2v.9h-.1l.1-.4-.1-.1h-.7v.5l-.1-.1h-.7l.1.1.1.2v1.8l-.1-.1-.1-.1-.1-.1-.1-.1.1-.2-.1-.1h-.1l-.1-.1h-.8v.2l.1.2.1.2v.6l-.1-.1-.1-.1h-1.1v1H41v.2h.1l.2.1v1.6H40v.1l.1.1.2.1.2.1h.2l.1.1h.1v1h-1v.2l-.2-.1h-.2l-.2-.1H39l-.2-.1h-.1.2-1.7v.1h.9v.1h1.4l-.3.4h.9l1.1 6.4h1l-.3-.7-.1-.4v-2.9l.1-.3.1-.3.5-1 .2-.3.2-.3.5-.7.6-.7.3-.4 1.1-1.1.4-.4.4-.4.9-.8.5-.4.5-.4.5-.4.5-.4.6-.5.6-.5.6-.5 1.1-1 1.6-1.6.5-.5.5-.5.9-1 .8-1 .4-.5.7-1 .3-.5.3-.5.2-.5.4-1 .1-.5.1-.5v-2.1l-.1-.5-.1-.5-.1-.3-.2-.5-.2-.3-.2-.3-.2-.3-.2-.3-.5-.5-.5-.4-.3-.2-.3-.2-.6-.3-.3-.1-.3-.1-.3-.1h-.3l-.3-.1h-3.3l-.3.1-.3.1-.3.1-.2.1-.3.1-.3.1-.3.1h-4.7l-.2.1-.2.1-.2.1-.1.1-.1.1-.1.1-.2.2-.2.2-.2.3-1.3 1.7-.2.2-.2.2-.2.2-.2.2-.2.2-.2.2-.2.2-.2.2-.2.1h-.3v.5l-.5.6Zm1.4 2.5v-.1h.5v.6l-.5-.5Zm2 .6v-.5h.6v.9l-.6-.4Z" fill="#fff"/><path fill-rule="evenodd" clip-rule="evenodd" d="M44.801 39H44.501V38.7l.1-.1v-.1l.1-.1v-.2.4l.2.2h.1v-1.2l.1-.1h.7l.1.1V38.2l-.1.1v.1l-.1.1h-.1l-.1.1h-.2l-.1.1h-.7l.3.3Z" fill="#fff"/><path fill-rule="evenodd" clip-rule="evenodd" d="M36.3 45.4v-.6l.1-.1.1-.1.1-.2h-.8H38.8l.7-.1.2-.1h.4l.1-.1.3-.1.2-.1.1-.1.2-.1V44l-.1.1-.1.1-.1.1h-.1l-.1.1h-.1l-.3.1H36.7l-.1.1-.1.1-.1.1-.1.1v.1l-.1.1-.1.1v.1l.2.1Z" fill="#D7C07A"/><path fill-rule="evenodd" clip-rule="evenodd" d="M17.1 148.799h3.7v1.1h-.3c-.1 0 0-.3-.1-.5s-.1-.3-.3-.3h-1.3l-.1.1v1.6H20c.1 0 .2 0 .2-.2v-.3h.4v1.6h-.3c0-.2 0-.2-.1-.3-.1-.1-.1-.3-.3-.3h-1.2v1.3c0 .3 0 .3.3.3h.6v.3h-2.4c-.1-.1-.1-.2 0-.3h.4c.2 0 .3-.1.3-.4v-3.2c0-.2 0-.3-.2-.3h-.5v-.3m7.2 1-.5 1.5H25l-.6-1.5Zm-1.4 2.8 1.2-3.1c.1-.2.1-.3.1-.5h.6c0 .1.1.3.1.4l1.3 3.3c.3.7.3.6.9.6v.3h-2v-.3h.4v-.2c0-.3-.3-.8-.4-1.1h-1.5c-.1.3-.3.7-.3 1 0 .1 0 .2.2.3h.4v.3h-1.9v-.3c.6 0 .7-.1.9-.7Zm6.1-3.7h1.5c0 .2.1.3.1.4l1.4 2.9c.1.2 0 0 0 0l1.4-3c0-.1.1-.2.1-.4h1.5v.3h-.5c-.1 0-.2.2-.2.3v3.2c0 .5 0 .3.3.4.3.1.2 0 .4 0v.3H33v-.3h.5c.1 0 .2-.2.2-.3v-3l-1.6 3.6h-.3c-.2-.6-1.2-2.8-1.5-3.6 0 .7-.1 2-.1 2.8 0 .2 0 .3.2.4.2.1.4.1.5.1v.3h-2.1v-.3h.4c.2 0 .3-.2.3-.5 0-.6.2-2.4.3-3.1 0-.1-.1-.3-.2-.3l-.6-.1s0-.1.1-.1Zm8 0h2.1v.3h-.5c-.2 0-.2.1-.2.3v3.2c0 .3 0 .3.3.4h.5v.3h-2.2v-.3h.4c.2 0 .3-.2.3-.3v-3.3c0-.3 0-.3-.2-.3h-.5v-.3Zm4.2 0h2.1v.3H43c-.1 0-.2.2-.2.3v3.3c0 .2.1.2.2.2h1.2c.2 0 .3 0 .5-.3s.3-.6.4-.9c.1 0 .2.1.3.1-.1.5-.2.9-.4 1.3 0 0-.1.1-.3.1h-3.4v-.3h.6c.1 0 .2-.1.2-.3v-3.2c0-.2 0-.4-.2-.4h-.5s0-.1-.1-.2Zm5.3 0h1.9v.3h-.3c-.1 0 0 .1 0 .2l.9 1.7c.2.3 0 0 0 0 .3-.5.6-1.1.9-1.6.1-.3 0-.2-.1-.3h-.4v-.3h1.7v.3h-.3c-.2 0-.3.1-.6.5l-1 1.7v1.2c0 .4 0 .4.2.5h.5v.3h-2.4v-.3c.2 0 .4-.1.6-.1.2 0 .3-.1.3-.4v-1.2l-.9-1.7c-.3-.6-.3-.5-.6-.6h-.3v-.3m12.9 4.2c.4-.4.7-1 .6-1.6.1-.8-.3-1.5-.9-2-.3-.2-.6-.3-.9-.3-.2 0-.4.1-.6.2-.6.4-.9 1.1-.8 1.7 0 .8.3 1.6 1 2 .3.2.6.2.9.2.2.1.5 0 .7-.2Zm-2.8.1c-.4-.5-.7-1.1-.7-1.7 0-.5.2-1.1.5-1.5.5-.6 1.2-.9 2-.9 1.2 0 2.2.9 2.3 2.1v.1c0 .6-.1 1.1-.5 1.6-.5.6-1.2 1-2 1-.6-.1-1.2-.3-1.6-.7Zm6.4-4.2h3.6c-.1.4-.1.7-.1 1.1h-.3s0-.3-.1-.5-.1-.3-.3-.3h-1.3V150.799H66c.1 0 .2 0 .2-.2v-.3h.4v1.6h-.3c0-.2 0-.2-.1-.3-.1-.1-.1-.3-.3-.3h-1.2v1.3c0 .3 0 .3.3.3h.6v.3h-2.3c-.1-.1-.1-.2 0-.3h.4c.2 0 .3-.1.3-.4v-3.2c0-.2 0-.3-.2-.3h-.4v-.3m5.7.1h3.6c-.1.4-.1.7-.1 1.1h-.3s0-.3-.1-.5-.1-.3-.3-.3h-1.3V150.799h1.3c.1 0 .2 0 .2-.2v-.3h.4v1.6h-.3c0-.2 0-.2-.1-.3-.1-.1-.1-.3-.3-.3h-1.2v1.3c0 .3 0 .3.3.3h.6v.3h-2.3c-.1-.1-.1-.2 0-.3h.4c.2 0 .3-.1.3-.4v-3.2c0-.2 0-.3-.2-.3h-.4v-.3m5.5.1h2.1v.3h-.4c-.1 0-.2.1-.2.3v3.2c0 .3 0 .3.3.4h.5v.3h-2.2v-.3h.4c.2 0 .3-.2.3-.3v-3.3c0-.3 0-.3-.2-.3h-.5c-.1-.1-.1-.2-.1-.3Zm7.7.4c-.3-.1-.6-.2-.9-.2-1 0-1.6.8-1.6 2-.1 1.1.7 2 1.7 2.1h.2c.3 0 .5-.1.8-.2.2-.2.4-.5.6-.8.1 0 .2.1.2.2-.1.4-.3.7-.6 1-.4.1-.8.2-1.2.2-1.3.1-2.5-.9-2.6-2.3-.1-.9.4-1.8 1.2-2.3.5-.2 1-.4 1.5-.3.5 0 1.1.1 1.6.2-.1.4-.1.8-.1 1.2H83c-.1-.5-.2-.7-.5-.8Zm3.2-.4h3.5c-.1.4-.1.7-.1 1.1h-.3v-.4c0-.2-.2-.3-.3-.3h-1.2s-.1.1-.1.2v1.5h1.1c.1 0 .2-.1.2-.2v-.3h.3v1.4h-.3v-.3c0-.1-.1-.2-.2-.2h-1.1v1.4c0 .1.1.3.2.3h1.3c.2 0 .3 0 .5-.3.1-.2.3-.4.3-.6.1 0 .2 0 .3.1-.1.4-.2.7-.3 1.1 0 0-.1.2-.5.2h-3.4v-.3h.6c.2 0 .2-.1.2-.4V149.699c0-.2 0-.3-.2-.3h-.4c-.2-.4-.2-.5-.1-.6ZM53.4 94h2.8l1.3-.2 1.2-.2 1.3-.2 1.2-.3 1.2-.3 1.2-.3 1.2-.4 1.2-.4 1.2-.5 1.2-.5 1.1-.5 1.1-.5 1-.6 1-.6 1-.6 1-.7.9-.7.9-.7.9-.7.8-.7.8-.7.7-.8.6-.8.6-.8.5-.8.5-.8.4-.8.3-.8.3-.8.2-.8.1-.8v-53H23.5v52.8l.1.8.2.8.3.8.3.8.4.8.5.8.5.8.6.8.6.8.7.8.8.7.8.7.8.7.9.7.9.7 1 .7 1 .6 1 .6 1 .6 1.1.6 1.1.5 1.2.5 1.2.5 1.2.4 1.2.4 1.2.3 1.2.3 1.2.3 1.3.2 1.3.2 1.3.2h2.8l.2.1Zm0 2.8-1.2-.6-1.7-.5-1.3-.2-1.3-.2-2.7-.5-1.3-.3-1.3-.3-1.3-.4-1.3-.5-1.2-.5-1.2-.5-1.2-.6-1.2-.6-1-.6-1.1-.6-1.1-.7-1-.7-1-.7-1-.7-.9-.8-.9-.8-.8-.8-.8-.9-.7-.9-.6-.9-.6-.9-.5-.9-.4-.9-.4-1-.3-.9-.2-1-.1-1V20.7h63.6v54.8l-.1 1-.2 1-.3.9-.3.9-.5.9-.5.9-.6.9-.6.9-.7.9-.8.9-.8.8-.9.8-.9.8-1 .8-1 .7-1 .7-1.1.7-1.1.6-1.2.6-1.2.6-1.2.6-1.2.5-1.2.5-1.3.5-1.3.4-1.3.3-1.3.3-1.3.3-1.3.3-1.3.2-1.3.2-1.7.5-1.5.4Z" fill="#fff"/><path d="M53.4 94h2.8l1.3-.2 1.2-.2 1.3-.2 1.2-.3 1.2-.3 1.2-.3 1.2-.4 1.2-.4 1.2-.5 1.2-.5 1.1-.5 1.1-.5 1-.6 1-.6 1-.6 1-.7.9-.7.9-.7.9-.7.8-.7.8-.7.7-.8.6-.8.6-.8.5-.8.5-.8.4-.8.3-.8.3-.8.2-.8.1-.8v-53H23.5v52.8l.1.8.2.8.3.8.3.8.4.8.5.8.5.8.6.8.6.8.7.8.8.7.8.7.8.7.9.7.9.7 1 .7 1 .6 1 .6 1 .6 1.1.6 1.1.5 1.2.5 1.2.5 1.2.4 1.2.4 1.2.3 1.2.3 1.2.3 1.3.2 1.3.2 1.3.2h2.8l.2.1Zm0 2.8-1.2-.6-1.7-.5-1.3-.2-1.3-.2-2.7-.5-1.3-.3-1.3-.3-1.3-.4-1.3-.5-1.2-.5-1.2-.5-1.2-.6-1.2-.6-1-.6-1.1-.6-1.1-.7-1-.7-1-.7-1-.7-.9-.8-.9-.8-.8-.8-.8-.9-.7-.9-.6-.9-.6-.9-.5-.9-.4-.9-.4-1-.3-.9-.2-1-.1-1V20.7h63.6v54.8l-.1 1-.2 1-.3.9-.3.9-.5.9-.5.9-.6.9-.6.9-.7.9-.8.9-.8.8-.9.8-.9.8-1 .8-1 .7-1 .7-1.1.7-1.1.6-1.2.6-1.2.6-1.2.6-1.2.5-1.2.5-1.3.5-1.3.4-1.3.3-1.3.3-1.3.3-1.3.3-1.3.2-1.3.2-1.7.5-1.5.4Z" stroke="#111417" stroke-width=".25" stroke-miterlimit="10"/></svg>