<?xml version="1.0" encoding="utf-8"?>
<!-- Generator: Adobe Illustrator 23.0.1, SVG Export Plug-In . SVG Version: 6.00 Build 0)  -->
<svg version="1.1" id="Layer_1" xmlns="http://www.w3.org/2000/svg" xmlns:xlink="http://www.w3.org/1999/xlink" x="0px" y="0px"
	 viewBox="0 0 591 408" enable-background="new 0 0 591 408" xml:space="preserve">
<path id="Combined-Shape-Copy" fill="#FFFFFF" d="M591,153H174v10h417v153H0V0h591V153z"/>
<path id="СИМПЛЕКС-Copy-3" fill="#FFFFFF" d="M36.503,408C13.533,408,0,398.276,0,376c0-22.188,13.533-32,36.503-32
	c19.766,0,32.23,7.16,35.524,22.983l-18.607-0.089c-2.226-5.48-7.212-8.662-16.917-8.662c-14.245,0-18.251,7.16-18.251,17.68
	c0,10.607,4.006,17.768,18.251,17.768c9.794,0,14.779-3.536,17.006-9.105h18.607C69,400.752,56.447,408,36.503,408z M82.356,406.762
	v-61.701h17.094v53.746h1.959c0.801-4.066,2.226-9.193,3.205-12.994c5.521-22.365,10.149-40.752,10.149-40.752h30.005v61.701
	h-17.095v-53.745h-1.959c-0.801,4.066-2.137,8.84-3.027,12.641c-5.253,22.364-10.327,41.105-10.327,41.105H82.356z M159.013,406.762
	v-61.701h29.202c2.048,16.178,3.739,37.569,5.432,53.746h1.602c1.691-16.177,3.383-37.568,5.431-53.746h29.203v61.701h-15.938
	v-53.745h-1.958c-1.959,15.47-4.274,35.005-6.945,53.745h-21.19c-2.671-18.74-4.985-38.275-6.944-53.745h-1.959v53.745H159.013z
	 M244.128,406.762v-61.701h60.542v61.701h-17.45v-47.381h-25.642v47.381H244.128z M318.826,407.381
	c-3.116,0-4.986-0.176-5.965-0.176v-13.791h1.068c7.924,0,9.17-4.331,10.061-20.773c0.534-9.635,0.445-19.006,0.712-27.58h53.242
	v61.701h-17.451V358.32h-20.121c-0.178,4.508-0.357,12.729-0.445,14.32C338.413,397.923,335.831,407.381,318.826,407.381z
	 M442.76,359.205h-33.298v9.723h32.586v13.349h-32.586v10.343h33.298v14.143h-50.57v-61.701h50.57V359.205z M491.55,374.232
	l24.662,32.529h-20.655l-18.964-24.839h-3.561v24.839h-17.272v-61.701h17.272v23.338h4.273l19.053-23.338h19.32L491.55,374.232z
	 M555.387,408c-22.971,0-36.504-9.724-36.504-32c0-22.188,13.533-32,36.504-32c19.765,0,32.23,7.16,35.523,22.983l-18.607-0.089
	c-2.226-5.48-7.212-8.662-16.916-8.662c-14.246,0-18.252,7.16-18.252,17.68c0,10.607,4.006,17.768,18.252,17.768
	c9.793,0,14.779-3.536,17.005-9.105H591C587.884,400.752,575.33,408,555.387,408z"/>
</svg>
