<?xml version="1.0" encoding="utf-8"?>
<!-- Generator: Adobe Illustrator 22.0.0, SVG Export Plug-In . SVG Version: 6.00 Build 0)  -->
<svg version="1.1" id="Layer_1" xmlns="http://www.w3.org/2000/svg" xmlns:xlink="http://www.w3.org/1999/xlink" x="0px" y="0px"
	 viewBox="0 0 100 25" style="enable-background:new 0 0 100 25;" xml:space="preserve">
<style type="text/css">
	.st0{fill-rule:evenodd;clip-rule:evenodd;fill:#A6AAAA;}
	.st1{fill-rule:evenodd;clip-rule:evenodd;fill:#F3792E;}
	.st2{fill-rule:evenodd;clip-rule:evenodd;fill:#F06022;}
	.st3{fill-rule:evenodd;clip-rule:evenodd;fill:#D95122;}
	.st4{fill-rule:evenodd;clip-rule:evenodd;fill:#F89A2C;}
	.st5{fill-rule:evenodd;clip-rule:evenodd;fill:#FFFFFF;}
	.st6{fill:#FFFFFF;}
	.st7{fill-rule:evenodd;clip-rule:evenodd;fill:#B4008D;}
	.st8{fill-rule:evenodd;clip-rule:evenodd;fill:#9DBC0A;}
	.st9{fill:none;stroke:#9DBC0A;stroke-width:0.1962;stroke-miterlimit:10;}
	.st10{fill-rule:evenodd;clip-rule:evenodd;fill:#DF3F17;}
	.st11{fill:none;stroke:#DF3F17;stroke-width:0.1962;stroke-miterlimit:10;}
	.st12{fill-rule:evenodd;clip-rule:evenodd;fill:#F5B208;}
	.st13{fill:none;stroke:#F5B208;stroke-width:0.1962;stroke-miterlimit:10;}
	.st14{fill:#9DBC0A;}
	.st15{fill:none;stroke:#9DBC0A;stroke-width:0.2023;stroke-miterlimit:10;}
	.st16{fill:none;stroke:#DF3F17;stroke-width:0.2023;stroke-miterlimit:10;}
	.st17{fill:none;stroke:#F5B208;stroke-width:0.2023;stroke-miterlimit:10;}
	.st18{fill-rule:evenodd;clip-rule:evenodd;fill:#85754E;}
	.st19{fill:#85754E;}
	.st20{fill-rule:evenodd;clip-rule:evenodd;fill:#1A171B;}
	.st21{fill:#016268;}
	.st22{fill:#00A9C2;}
	.st23{fill:#21427B;}
	.st24{fill:#FAE101;}
	.st25{fill-rule:evenodd;clip-rule:evenodd;fill:#32327F;}
	.st26{fill-rule:evenodd;clip-rule:evenodd;fill:#FCB813;}
	.st27{fill:#002169;}
	.st28{fill:#C6C7C8;}
	.st29{fill:#F79420;}
	.st30{fill:#FCB831;}
	.st31{fill:#FDDD2E;}
	.st32{fill:#F3C700;}
	.st33{fill:#DB6216;}
	.st34{fill:#EAA600;}
	.st35{fill:#E32427;}
	.st36{fill:#FFFFFF;stroke:#FFFFFF;stroke-width:0.1124;stroke-miterlimit:10;}
	.st37{fill:url(#SVGID_1_);}
	.st38{fill-rule:evenodd;clip-rule:evenodd;fill:#C1272D;}
	.st39{fill-rule:evenodd;clip-rule:evenodd;fill:url(#SVGID_2_);}
	.st40{fill-rule:evenodd;clip-rule:evenodd;fill:url(#SVGID_3_);}
	.st41{fill-rule:evenodd;clip-rule:evenodd;fill:url(#SVGID_4_);}
	.st42{fill-rule:evenodd;clip-rule:evenodd;fill:url(#SVGID_5_);}
	.st43{fill-rule:evenodd;clip-rule:evenodd;fill:url(#SVGID_6_);}
	.st44{fill-rule:evenodd;clip-rule:evenodd;fill:url(#SVGID_7_);}
	.st45{fill-rule:evenodd;clip-rule:evenodd;fill:url(#SVGID_8_);}
	.st46{fill:#006937;}
	.st47{fill:#929990;}
	.st48{fill:#FFFFFF;stroke:#FFFFFF;stroke-width:0.1949;stroke-miterlimit:10;}
	.st49{fill:#18428F;}
	.st50{fill:#EC1848;}
	.st51{fill:#29A151;}
	.st52{fill:#C1272D;}
	.st53{fill:#29ABE2;}
	.st54{fill:#F7BE3E;}
	.st55{fill:url(#SVGID_9_);}
	.st56{fill-rule:evenodd;clip-rule:evenodd;fill:none;}
	.st57{clip-path:url(#SVGID_11_);fill-rule:evenodd;clip-rule:evenodd;}
	.st58{fill:#EFAF1F;}
	.st59{fill:#EFB022;}
	.st60{fill:#0E0A08;}
	.st61{fill:#DA2A28;}
	.st62{fill:#F6F6F5;}
	.st63{fill:#C7B086;}
	.st64{fill:#F1F0EE;}
	.st65{fill-rule:evenodd;clip-rule:evenodd;fill:url(#SVGID_12_);}
	.st66{fill-rule:evenodd;clip-rule:evenodd;fill:#FAF9F9;}
	.st67{fill-rule:evenodd;clip-rule:evenodd;fill:#F8B132;}
	.st68{fill-rule:evenodd;clip-rule:evenodd;fill:#1A70B7;}
	.st69{fill-rule:evenodd;clip-rule:evenodd;fill:#36A834;}
	.st70{fill-rule:evenodd;clip-rule:evenodd;fill:#E2000F;}
	.st71{fill-rule:evenodd;clip-rule:evenodd;fill:#1A1A18;}
	.st72{fill:url(#SVGID_13_);}
	.st73{fill:url(#SVGID_14_);}
	.st74{fill:url(#SVGID_15_);}
	.st75{fill:url(#SVGID_16_);}
	.st76{fill:url(#SVGID_17_);}
	.st77{fill:url(#SVGID_18_);}
	.st78{fill:url(#SVGID_19_);}
	.st79{fill:url(#SVGID_20_);}
	.st80{fill:url(#SVGID_21_);}
	.st81{fill:url(#SVGID_22_);}
	.st82{fill:url(#SVGID_23_);}
	.st83{fill:url(#SVGID_24_);}
	.st84{fill:url(#SVGID_25_);}
	.st85{fill:url(#SVGID_26_);}
	.st86{fill:#00A85D;}
	.st87{fill:#FFFFFF;stroke:#FFFFFF;stroke-width:0.1;stroke-miterlimit:10;}
	.st88{fill:#9FD8F5;}
	.st89{fill:#274888;}
	.st90{fill:#267DBF;}
	.st91{fill:#2F91CF;}
	.st92{fill:#2955A0;}
	.st93{fill:#236EB3;}
	.st94{fill:#CFEBFA;}
	.st95{fill:#42B7E9;}
	.st96{fill:#3FAAE0;}
	.st97{fill:#ED171F;}
	.st98{opacity:0.25;fill:url(#SVGID_27_);}
	.st99{fill:#FFFFFF;stroke:#FFFFFF;stroke-width:1.0606;stroke-miterlimit:10;}
	.st100{fill:#FFAF10;}
	.st101{fill:#151416;}
	.st102{fill:#E57641;}
	.st103{fill:none;}
	.st104{fill:#1C191B;}
	.st105{fill:#19181A;}
	.st106{fill:#DD7340;}
	.st107{fill:#181617;}
	.st108{fill:#EA7944;}
	.st109{fill:#0C0E13;}
	.st110{fill:#181719;}
	.st111{fill:#F2F1F2;}
	.st112{fill:#F6F5F5;}
	.st113{fill:#BA673F;}
	.st114{fill:#4E362A;}
	.st115{fill:#6A6567;}
	.st116{fill:none;stroke:#EA7944;stroke-width:0.3013;stroke-linecap:round;stroke-miterlimit:10;}
	.st117{fill:none;stroke:#FF00FF;stroke-width:0.25;stroke-miterlimit:10;}
</style>
<g>
	<path class="st6" d="M51.661,12.486c0.113,0.069,0.17,0.111,0.233,0.142c1.722,0.837,2.259,2.327,2.041,4.107
		c-0.259,2.107-1.386,3.187-3.507,3.494c-0.535,0.077-1.072,0.109-1.611,0.109c-2.83,0-5.66-0.006-8.489,0.007
		c-0.336,0.002-0.436-0.076-0.436-0.428c0.012-4.945,0.013-9.89-0.001-14.834c-0.001-0.372,0.128-0.425,0.451-0.424
		c2.742,0.011,5.485-0.004,8.227,0.013c0.946,0.006,1.892,0.082,2.805,0.373c1.465,0.468,2.466,1.838,2.542,3.373
		C54.003,10.221,53.355,11.598,51.661,12.486z M46.108,13.916c0-0.006,0-0.013,0-0.019c-0.86,0-1.72,0.008-2.58-0.005
		c-0.25-0.004-0.322,0.075-0.319,0.322c0.013,0.991,0.017,1.982-0.001,2.973c-0.006,0.304,0.078,0.395,0.387,0.391
		c1.385-0.016,2.769-0.003,4.154-0.01c0.392-0.002,0.787-0.018,1.176-0.066c0.507-0.063,0.953-0.256,1.226-0.731
		c0.756-1.32,0.002-2.772-1.507-2.848C47.8,13.881,46.953,13.916,46.108,13.916z M46.099,7.517c-0.831,0-1.663,0.019-2.493-0.009
		c-0.343-0.012-0.407,0.1-0.399,0.415c0.022,0.903,0.025,1.808-0.001,2.711c-0.01,0.366,0.057,0.497,0.466,0.489
		c1.428-0.031,2.857-0.014,4.286-0.01c0.351,0.001,0.7-0.017,1.043-0.087c0.593-0.121,1.084-0.399,1.237-1.025
		c0.169-0.694,0.214-1.404-0.331-1.975c-0.384-0.403-0.911-0.5-1.446-0.506C47.674,7.51,46.886,7.518,46.099,7.517z"/>
	<path class="st6" d="M23.523,12.485c0-2.451,0.006-4.902-0.007-7.354c-0.002-0.341,0.056-0.477,0.443-0.475
		c4.012,0.015,8.025,0.014,12.037,0.002c0.344-0.001,0.453,0.084,0.439,0.435c-0.028,0.685-0.019,1.371-0.003,2.057
		c0.006,0.249-0.07,0.342-0.319,0.319c-0.188-0.018-0.379-0.004-0.569-0.004c-2.611,0.011-5.222,0.03-7.833,0.024
		c-0.358-0.001-0.432,0.113-0.424,0.443c0.022,0.889,0.03,1.781-0.003,2.669c-0.014,0.384,0.116,0.442,0.462,0.44
		c2.743-0.014,5.486-0.001,8.229-0.016c0.359-0.002,0.478,0.081,0.459,0.453c-0.032,0.655-0.027,1.313-0.001,1.969
		c0.013,0.324-0.073,0.416-0.408,0.414c-2.743-0.015-5.486-0.001-8.229-0.017c-0.39-0.002-0.528,0.084-0.512,0.501
		c0.034,0.933,0.027,1.868,0.002,2.801c-0.01,0.356,0.109,0.433,0.445,0.431c2.743-0.013,5.486,0.002,8.229-0.018
		c0.391-0.003,0.495,0.096,0.475,0.48c-0.034,0.655-0.019,1.313-0.006,1.969c0.004,0.231-0.035,0.335-0.304,0.334
		c-4.1-0.008-8.2-0.009-12.3,0.001c-0.317,0.001-0.307-0.153-0.306-0.375C23.524,17.475,23.523,14.98,23.523,12.485z"/>
	<path class="st6" d="M56.938,12.491c0-2.465,0.007-4.931-0.008-7.396c-0.002-0.342,0.085-0.44,0.433-0.438
		c2.508,0.015,5.017-0.004,7.525,0.016c0.873,0.007,1.749,0.071,2.606,0.255c1.893,0.407,3.231,1.924,3.469,3.908
		c0.105,0.876,0.092,1.749-0.123,2.606c-0.495,1.977-2.074,3.185-4.328,3.363c-1.894,0.149-3.79,0.041-5.685,0.074
		c-0.584,0.01-0.584,0.002-0.585,0.565c0,1.503-0.009,3.005,0.006,4.507c0.003,0.298-0.062,0.403-0.379,0.395
		c-0.845-0.022-1.693-0.026-2.538,0.001c-0.341,0.011-0.403-0.101-0.402-0.417C56.943,17.451,56.937,14.971,56.938,12.491z
		 M62.967,7.499c-0.877,0-1.606,0.013-2.334-0.006c-0.293-0.008-0.403,0.054-0.398,0.376c0.019,1.283,0.019,2.566,0,3.848
		c-0.005,0.323,0.109,0.38,0.401,0.376c1.253-0.015,2.507-0.006,3.761-0.007c0.438,0,0.872-0.041,1.298-0.15
		c1.099-0.281,1.696-1.069,1.657-2.189c-0.045-1.292-0.534-1.885-1.742-2.136C64.684,7.418,63.749,7.538,62.967,7.499z"/>
	<path class="st6" d="M97.911,12.504c1.095,0.611,1.831,1.483,1.998,2.73c0.267,1.989-0.152,3.63-2.007,4.559
		c-0.769,0.385-1.598,0.541-2.453,0.542c-2.612,0.005-5.225-0.004-7.837,0.01c-0.328,0.002-0.381-0.115-0.372-0.402
		c0.02-0.627,0.026-1.256-0.002-1.882c-0.014-0.326,0.074-0.417,0.406-0.414c1.999,0.016,3.999,0.011,5.998,0.007
		c0.437-0.001,0.873-0.033,1.298-0.15c0.87-0.239,1.306-0.809,1.318-1.721c0.013-0.941-0.415-1.532-1.282-1.795
		c-0.439-0.133-0.887-0.158-1.34-0.158c-1.459-0.001-2.919-0.008-4.378,0.006c-0.287,0.003-0.373-0.074-0.364-0.362
		c0.021-0.656,0.022-1.314-0.001-1.97c-0.01-0.303,0.072-0.393,0.384-0.389c1.415,0.017,2.831,0.008,4.247,0.007
		c0.364,0,0.726-0.016,1.087-0.083c1.036-0.192,1.54-0.751,1.539-1.741c-0.001-1.069-0.525-1.687-1.586-1.852
		c-0.374-0.058-0.751-0.09-1.132-0.089c-1.941,0.007-3.882-0.001-5.823,0.009c-0.27,0.001-0.383-0.046-0.372-0.352
		c0.025-0.67,0.02-1.343,0.002-2.014c-0.008-0.278,0.093-0.342,0.352-0.341c2.525,0.008,5.05-0.008,7.574,0.012
		c0.785,0.006,1.567,0.107,2.319,0.373c1.535,0.543,2.347,1.643,2.472,3.26c0.124,1.604-0.45,2.874-1.693,3.866
		c-0.103,0.082-0.202,0.167-0.302,0.252C97.952,12.433,97.947,12.448,97.911,12.504z"/>
	<path class="st6" d="M84.565,20.338c-0.496,0-0.993-0.016-1.488,0.006c-0.265,0.012-0.38-0.088-0.469-0.329
		c-0.38-1.023-0.788-2.035-1.169-3.057c-0.087-0.234-0.183-0.343-0.461-0.341c-2.043,0.014-4.086,0.013-6.13,0.001
		c-0.261-0.001-0.38,0.082-0.466,0.323c-0.369,1.026-0.765,2.043-1.134,3.07c-0.086,0.239-0.196,0.338-0.463,0.332
		c-0.919-0.018-1.839-0.021-2.758,0c-0.358,0.008-0.419-0.059-0.273-0.4c1.769-4.147,3.524-8.3,5.284-12.452
		c0.358-0.844,0.726-1.683,1.07-2.533c0.091-0.223,0.202-0.306,0.447-0.302c0.948,0.015,1.897,0.015,2.846,0.002
		c0.252-0.004,0.388,0.066,0.491,0.309c2.127,5.007,4.261,10.012,6.402,15.013c0.126,0.295,0.083,0.374-0.24,0.36
		C85.558,20.322,85.061,20.338,84.565,20.338z M77.861,7.836c-0.778,2.047-1.519,3.994-2.274,5.979c1.495,0,2.923-0.004,4.351,0.003
		c0.247,0.001,0.263-0.083,0.18-0.284c-0.2-0.483-0.384-0.973-0.577-1.459C78.997,10.7,78.451,9.324,77.861,7.836z"/>
	<path class="st32" d="M8.866,4.646c2.773,0,5.546,0.009,8.319-0.01c0.424-0.003,0.547,0.11,0.535,0.533
		c-0.031,1.006-0.02,2.014-0.004,3.021c0.005,0.33-0.081,0.465-0.441,0.465c-5.619-0.01-11.237-0.01-16.856-0.002
		c-0.303,0-0.404-0.079-0.399-0.389c0.017-1.08,0.019-2.16-0.001-3.24C0.013,4.706,0.118,4.638,0.416,4.64
		C3.233,4.65,6.049,4.646,8.866,4.646z"/>
	<path class="st33" d="M8.879,16.398c2.773,0,5.546,0.008,8.319-0.009c0.385-0.002,0.504,0.097,0.494,0.486
		c-0.026,1.036-0.016,2.072-0.004,3.108c0.003,0.281-0.084,0.382-0.375,0.381c-5.648-0.009-11.296-0.01-16.944-0.005
		c-0.268,0-0.35-0.082-0.347-0.35c0.013-1.08,0.018-2.16-0.002-3.24c-0.006-0.329,0.124-0.378,0.41-0.377
		C3.246,16.401,6.063,16.398,8.879,16.398z"/>
	<path class="st34" d="M8.855,14.462c-2.802,0.001-5.604-0.006-8.406,0.009c-0.348,0.002-0.439-0.093-0.431-0.436
		c0.023-1.021,0.018-2.043,0.004-3.064c-0.004-0.283,0.04-0.405,0.37-0.405c5.633,0.01,11.266,0.009,16.899,0
		c0.319,0,0.428,0.077,0.42,0.414c-0.023,1.036-0.021,2.072-0.002,3.108c0.006,0.322-0.112,0.38-0.404,0.379
		C14.488,14.457,11.671,14.461,8.855,14.462z"/>
</g>
</svg>
