<?xml version="1.0" encoding="utf-8"?>
<!-- Generator: Adobe Illustrator 25.2.0, SVG Export Plug-In . SVG Version: 6.00 Build 0)  -->
<svg version="1.1" id="Слой_1" xmlns="http://www.w3.org/2000/svg" xmlns:xlink="http://www.w3.org/1999/xlink" x="0px" y="0px"
	 viewBox="0 0 835.1 226.7" style="enable-background:new 0 0 835.1 226.7;" xml:space="preserve">
<style type="text/css">
	.st0{clip-path:url(#SVGID_2_);}
	.st1{fill:#D3AF60;}
	.st2{fill:#272E4C;}
	.st3{clip-path:url(#SVGID_4_);}
	.st4{fill:url(#SVGID_5_);}
	.st5{clip-path:url(#SVGID_7_);}
	.st6{fill:url(#SVGID_8_);}
	.st7{clip-path:url(#SVGID_10_);}
	.st8{fill:url(#SVGID_11_);}
	.st9{clip-path:url(#SVGID_13_);}
	.st10{fill:url(#SVGID_14_);}
	.st11{clip-path:url(#SVGID_16_);}
	.st12{fill:url(#SVGID_17_);}
	.st13{clip-path:url(#SVGID_19_);}
	.st14{fill:url(#SVGID_20_);}
	.st15{clip-path:url(#SVGID_22_);}
	.st16{fill:url(#SVGID_23_);}
	.st17{clip-path:url(#SVGID_25_);}
	.st18{fill:url(#SVGID_26_);}
	.st19{clip-path:url(#SVGID_28_);}
	.st20{fill:url(#SVGID_29_);}
	.st21{clip-path:url(#SVGID_31_);}
	.st22{fill:url(#SVGID_32_);}
	.st23{clip-path:url(#SVGID_34_);}
	.st24{fill:#2E5180;}
</style>
<g>
	<g>
		<defs>
			<rect id="SVGID_1_" x="13.3" y="7.5" width="810.6" height="213.5"/>
		</defs>
		<clipPath id="SVGID_2_">
			<use xlink:href="#SVGID_1_"  style="overflow:visible;"/>
		</clipPath>
		<g class="st0">
			<path class="st1" d="M420.2,99.3c-8.2,0.3-16.2-2.9-22.1-8.6c-5.8-5.8-9-13.7-8.7-21.9c-0.3-8.2,2.9-16.2,8.7-22
				c12.5-11.5,31.8-11.5,44.4,0c5.8,5.8,9,13.8,8.7,22c0.3,8.2-2.9,16.2-8.7,22C436.5,96.6,428.5,99.7,420.2,99.3 M407.3,82.7
				c7,7.2,18.5,7.3,25.7,0.3c0.1-0.1,0.2-0.2,0.3-0.3c3.4-3.8,5.2-8.8,5-13.9c0.2-5.1-1.6-10.1-5-13.9c-7-7.2-18.5-7.3-25.7-0.3
				c-0.1,0.1-0.2,0.2-0.3,0.3c-3.4,3.8-5.1,8.8-4.9,13.9C402.2,73.9,403.9,78.9,407.3,82.7"/>
			<polygon class="st1" points="519.2,98.3 507.1,98.3 478.9,59.7 478.9,98.3 466.3,98.3 466.3,39.1 479.2,39.1 506.7,76.3 
				506.7,39.1 519.2,39.1 			"/>
			<polygon class="st1" points="579,98.3 537.2,98.3 537.2,39.1 579,39.1 579,50.2 549.7,50.2 549.7,62.7 578.4,62.7 578.4,73.8 
				549.7,73.8 549.7,87.2 579,87.2 			"/>
			<polygon class="st1" points="418.6,204.7 405.9,204.7 405.9,156.7 388.6,156.7 388.6,145.6 435.8,145.6 435.8,156.7 418.6,156.7 
							"/>
			<polygon class="st1" points="491.9,204.7 450.1,204.7 450.1,145.6 491.9,145.6 491.9,156.7 462.6,156.7 462.6,169.2 491.3,169.2 
				491.3,180.3 462.6,180.3 462.6,193.6 491.9,193.6 			"/>
			<polygon class="st1" points="545.6,204.7 508,204.7 508,145.6 520.6,145.6 520.6,193.6 545.6,193.6 			"/>
			<polygon class="st1" points="602.4,204.7 560.6,204.7 560.6,145.6 602.4,145.6 602.4,156.7 573.2,156.7 573.2,169.2 601.8,169.2 
				601.8,180.3 573.2,180.3 573.2,193.6 602.4,193.6 			"/>
			<path class="st1" d="M647.2,205.8c-8.3,0.2-16.4-2.8-22.5-8.5c-12-12.2-12-31.9,0-44.1c6-5.7,14.1-8.8,22.5-8.6
				c10.4-0.4,20,5.2,24.7,14.5l-10.8,5.4c-1.4-2.5-3.3-4.6-5.8-6.1c-2.4-1.6-5.3-2.4-8.2-2.4c-5-0.2-9.9,1.8-13.3,5.5
				c-6.9,8-6.9,19.9,0,27.8c3.4,3.7,8.3,5.7,13.3,5.5c2.9,0,5.7-0.8,8.2-2.4c2.4-1.5,4.4-3.7,5.8-6.2l10.8,5.2
				c-4.8,9.2-14.4,14.8-24.7,14.6"/>
			<path class="st1" d="M713.7,205.8c-8.2,0.3-16.2-2.9-22.1-8.6c-11.7-12.3-11.7-31.6,0-43.9c12.5-11.5,31.8-11.5,44.3,0
				c11.7,12.3,11.7,31.6,0,44C730,203,721.9,206.1,713.7,205.8 M700.5,189.1c7,7.2,18.5,7.4,25.7,0.4c0.1-0.1,0.3-0.3,0.4-0.4
				c6.6-8.1,6.6-19.7,0-27.8c-7-7.2-18.5-7.4-25.7-0.4c-0.1,0.1-0.3,0.3-0.4,0.4C694,169.4,694,181,700.5,189.1"/>
			<polygon class="st1" points="823.8,204.7 811.2,204.7 811.2,163.3 794.5,204.7 789,204.7 772.3,163.3 772.3,204.7 759.7,204.7 
				759.7,145.6 777.3,145.6 791.7,181.3 806.1,145.6 823.8,145.6 			"/>
			<path class="st2" d="M162.8,79c66.6-15.1,139.6-29.1,161.5,3.1c-3.2-7.6-5.7-15.5-7.7-23.5c-5.6-20.7-78-19.1-161.5,3.6
				S10.6,124.9,13.3,135.9c2.6,5.3,4.4,10.9,5.5,16.7C14.2,125.5,84,96.8,162.8,79"/>
		</g>
	</g>
	<g>
		<defs>
			<path id="SVGID_3_" d="M81.9,122.8c-7.5-0.3-15-1-22.4-1.8c0.4,9.3,2,18.4,4.7,27.3c0.6,0,1.2,0,1.8,0
				c70.5,3.7,140.5-13.5,201.3-49.4c-0.9-5.1-2.2-10-3.9-14.9c-56.2,28.6-118.9,41.9-181.8,38.6"/>
		</defs>
		<clipPath id="SVGID_4_">
			<use xlink:href="#SVGID_3_"  style="overflow:visible;"/>
		</clipPath>
		<g class="st3">
			
				<linearGradient id="SVGID_5_" gradientUnits="userSpaceOnUse" x1="-765.474" y1="576.3887" x2="-761.6131" y2="576.3887" gradientTransform="matrix(-53.7794 9.9383 -9.9383 -53.7794 -35171.3711 38704.3086)">
				<stop  offset="0" style="stop-color:#E4C885"/>
				<stop  offset="1.000000e-02" style="stop-color:#E4C885"/>
				<stop  offset="0.19" style="stop-color:#DBBF83"/>
				<stop  offset="0.6" style="stop-color:#B48424"/>
				<stop  offset="0.87" style="stop-color:#E3C589"/>
				<stop  offset="1" style="stop-color:#EEE3CF"/>
			</linearGradient>
			<polygon class="st4" points="47.4,86.4 260.5,47 279.5,149.8 66.4,189.2 			"/>
		</g>
	</g>
	<g>
		<defs>
			<path id="SVGID_6_" d="M98.2,161.5c-7.2,0-14.4,0-21.5-0.6c5.8,10.5,13.4,19.9,22.4,27.8l0,0c61.4-4.5,120.6-24.8,171.9-58.9
				c0.9-4.4,1.4-8.8,1.7-13.2C219.3,146.1,159.2,161.5,98.2,161.5"/>
		</defs>
		<clipPath id="SVGID_7_">
			<use xlink:href="#SVGID_6_"  style="overflow:visible;"/>
		</clipPath>
		<g class="st5">
			
				<linearGradient id="SVGID_8_" gradientUnits="userSpaceOnUse" x1="-734.0555" y1="598.8096" x2="-730.1946" y2="598.8096" gradientTransform="matrix(50.81 0 0 50.81 37373.8711 -30272.9707)">
				<stop  offset="0" style="stop-color:#E4C885"/>
				<stop  offset="1.000000e-02" style="stop-color:#E4C885"/>
				<stop  offset="0.19" style="stop-color:#DBBF83"/>
				<stop  offset="0.6" style="stop-color:#B48424"/>
				<stop  offset="0.87" style="stop-color:#E3C589"/>
				<stop  offset="1" style="stop-color:#EEE3CF"/>
			</linearGradient>
			<rect x="76.5" y="116.5" class="st6" width="196.2" height="72.1"/>
		</g>
	</g>
	<g>
		<defs>
			<path id="SVGID_9_" d="M113.7,202.5h-1.2c15.5,10.3,33.6,16.3,52.2,17.3c27.1-6.6,53.3-16.3,78.1-29c5.7-5.5,10.8-11.7,15.2-18.3
				C212.4,192.4,163.3,202.6,113.7,202.5"/>
		</defs>
		<clipPath id="SVGID_10_">
			<use xlink:href="#SVGID_9_"  style="overflow:visible;"/>
		</clipPath>
		<g class="st7">
			
				<linearGradient id="SVGID_11_" gradientUnits="userSpaceOnUse" x1="-737.4542" y1="607.2082" x2="-733.5933" y2="607.2082" gradientTransform="matrix(42.0799 -16.8819 16.8819 42.0799 20905.998 -37780.5313)">
				<stop  offset="0" style="stop-color:#E4C885"/>
				<stop  offset="1.000000e-02" style="stop-color:#E4C885"/>
				<stop  offset="0.19" style="stop-color:#DBBF83"/>
				<stop  offset="0.6" style="stop-color:#B48424"/>
				<stop  offset="0.87" style="stop-color:#E3C589"/>
				<stop  offset="1" style="stop-color:#EEE3CF"/>
			</linearGradient>
			<polygon class="st8" points="96.1,179.1 237.7,122.3 274.2,213.2 132.6,270 			"/>
		</g>
	</g>
	<g>
		<defs>
			<path id="SVGID_12_" d="M148.1,219.2c1.9,0.3,3.9,0.6,5.6,0.9c26.7,3.6,53.8-3.3,75.6-19.3c-26.2,9.3-53.4,15.5-81.1,18.5"/>
		</defs>
		<clipPath id="SVGID_13_">
			<use xlink:href="#SVGID_12_"  style="overflow:visible;"/>
		</clipPath>
		<g class="st9">
			
				<linearGradient id="SVGID_14_" gradientUnits="userSpaceOnUse" x1="-763.936" y1="575.4824" x2="-760.0751" y2="575.4824" gradientTransform="matrix(-57.0442 12.5107 -12.5107 -57.0442 -36104.7578 42578.8672)">
				<stop  offset="0" style="stop-color:#E4C885"/>
				<stop  offset="1.000000e-02" style="stop-color:#E4C885"/>
				<stop  offset="0.19" style="stop-color:#DBBF83"/>
				<stop  offset="0.6" style="stop-color:#B48424"/>
				<stop  offset="0.87" style="stop-color:#E3C589"/>
				<stop  offset="1" style="stop-color:#EEE3CF"/>
			</linearGradient>
			<polygon class="st10" points="143.3,201.7 225.6,183.7 234.2,222.7 151.9,240.7 			"/>
		</g>
	</g>
	<g>
		<defs>
			<path id="SVGID_15_" d="M76.5,200.4c4.2,3.6,8.6,6.8,13.2,9.8h1.4c56.6-1,112.4-13.7,163.9-37.3c8.3-13.2,14-27.9,16.6-43.2
				C213.7,169.6,146.5,194,76.5,200.4"/>
		</defs>
		<clipPath id="SVGID_16_">
			<use xlink:href="#SVGID_15_"  style="overflow:visible;"/>
		</clipPath>
		<g class="st11">
			
				<linearGradient id="SVGID_17_" gradientUnits="userSpaceOnUse" x1="-762.0745" y1="572.8275" x2="-758.2136" y2="572.8275" gradientTransform="matrix(-50.1589 22.4897 -22.4897 -50.1589 -25068.3965 45996.4375)">
				<stop  offset="0" style="stop-color:#E4C885"/>
				<stop  offset="1.000000e-02" style="stop-color:#E4C885"/>
				<stop  offset="0.19" style="stop-color:#DBBF83"/>
				<stop  offset="0.6" style="stop-color:#B48424"/>
				<stop  offset="0.87" style="stop-color:#E3C589"/>
				<stop  offset="1" style="stop-color:#EEE3CF"/>
			</linearGradient>
			<polygon class="st12" points="46.4,143.1 239,56.7 301.7,196.7 109.2,283 			"/>
		</g>
	</g>
	<g>
		<defs>
			<path id="SVGID_18_" d="M65,111.3c0,0.4,0,0.9,0,1.3c0,3.2,0,6.3,0.4,9.4c7.4,0.5,14.9,0.7,22.4,0.7
				c63,0.1,124.9-16.4,179.6-47.8c-3.7-9.6-8.8-18.7-15.2-26.8C196.9,86.3,132.1,108.1,65,111.3"/>
		</defs>
		<clipPath id="SVGID_19_">
			<use xlink:href="#SVGID_18_"  style="overflow:visible;"/>
		</clipPath>
		<g class="st13">
			
				<linearGradient id="SVGID_20_" gradientUnits="userSpaceOnUse" x1="-744.3898" y1="597.5993" x2="-740.5289" y2="597.5993" gradientTransform="matrix(79.3826 -39.0783 39.0783 79.3826 35810.5977 -76396.7422)">
				<stop  offset="0" style="stop-color:#E4C885"/>
				<stop  offset="1.000000e-02" style="stop-color:#E4C885"/>
				<stop  offset="0.19" style="stop-color:#DBBF83"/>
				<stop  offset="0.6" style="stop-color:#B48424"/>
				<stop  offset="0.87" style="stop-color:#E3C589"/>
				<stop  offset="1" style="stop-color:#EEE3CF"/>
			</linearGradient>
			<polygon class="st14" points="35.4,62.7 227.9,-32.1 296.9,108.2 104.5,202.9 			"/>
		</g>
	</g>
	<g>
		<defs>
			<path id="SVGID_21_" d="M70.3,66.8c-3.9-0.3-7.7-0.7-11.4-1.1c-5.3,11.7-8.5,24.2-9.5,36.9c0-0.5,0-1,0-1.4
				c71.4,2.4,142.1-15.2,203.9-51c0.4,0.7,0.5,0.7,0,0c-2.4-3.6-5-7.1-7.7-10.4C190.1,62.5,130,71.8,70.3,66.9"/>
		</defs>
		<clipPath id="SVGID_22_">
			<use xlink:href="#SVGID_21_"  style="overflow:visible;"/>
		</clipPath>
		<g class="st15">
			
				<linearGradient id="SVGID_23_" gradientUnits="userSpaceOnUse" x1="-739.0296" y1="599.668" x2="-735.1687" y2="599.668" gradientTransform="matrix(57.0542 -13.8872 13.8872 57.0542 33876.2695 -44377.5313)">
				<stop  offset="0" style="stop-color:#E4C885"/>
				<stop  offset="1.000000e-02" style="stop-color:#E4C885"/>
				<stop  offset="0.19" style="stop-color:#DBBF83"/>
				<stop  offset="0.6" style="stop-color:#B48424"/>
				<stop  offset="0.87" style="stop-color:#E3C589"/>
				<stop  offset="1" style="stop-color:#EEE3CF"/>
			</linearGradient>
			<polygon class="st16" points="34.7,43.5 242.4,-7.1 268.4,100.1 60.8,150.6 			"/>
		</g>
	</g>
	<g>
		<defs>
			<path id="SVGID_24_" d="M73.5,71.1c-0.8,1.9-1.6,3.9-2.3,5.7c3.6,0,7.2,0,10.8,0c56.4,0,112-13.2,162.4-38.6
				c-7.6-7.6-16.3-14.1-25.8-19.1c-44,27.5-93.5,45.2-145.1,51.7"/>
		</defs>
		<clipPath id="SVGID_25_">
			<use xlink:href="#SVGID_24_"  style="overflow:visible;"/>
		</clipPath>
		<g class="st17">
			
				<linearGradient id="SVGID_26_" gradientUnits="userSpaceOnUse" x1="-762.97" y1="580.4766" x2="-759.1091" y2="580.4766" gradientTransform="matrix(-67.8095 6.8041 -6.8041 -67.8095 -47544.3633 44592.8047)">
				<stop  offset="0" style="stop-color:#E4C885"/>
				<stop  offset="1.000000e-02" style="stop-color:#E4C885"/>
				<stop  offset="0.19" style="stop-color:#DBBF83"/>
				<stop  offset="0.6" style="stop-color:#B48424"/>
				<stop  offset="0.87" style="stop-color:#E3C589"/>
				<stop  offset="1" style="stop-color:#EEE3CF"/>
			</linearGradient>
			<polygon class="st18" points="65.5,19.9 242.6,2.1 250,76.4 72.9,94.1 			"/>
		</g>
	</g>
	<g>
		<defs>
			<path id="SVGID_27_" d="M169.9,7.5c-30.3,0-59.2,13.1-79,36.1c41.7-1.9,82.7-11,121.2-27C198.8,10.6,184.5,7.5,169.9,7.5z"/>
		</defs>
		<clipPath id="SVGID_28_">
			<use xlink:href="#SVGID_27_"  style="overflow:visible;"/>
		</clipPath>
		<g class="st19">
			
				<linearGradient id="SVGID_29_" gradientUnits="userSpaceOnUse" x1="-740.1367" y1="599.7492" x2="-736.2758" y2="599.7492" gradientTransform="matrix(58.6816 -22.057 22.057 58.6816 30306.709 -51475.5859)">
				<stop  offset="0" style="stop-color:#E4C885"/>
				<stop  offset="1.000000e-02" style="stop-color:#E4C885"/>
				<stop  offset="0.19" style="stop-color:#DBBF83"/>
				<stop  offset="0.6" style="stop-color:#B48424"/>
				<stop  offset="0.87" style="stop-color:#E3C589"/>
				<stop  offset="1" style="stop-color:#EEE3CF"/>
			</linearGradient>
			<polygon class="st20" points="79,12 197.1,-32.4 224,39.1 105.9,83.5 			"/>
		</g>
	</g>
	<g>
		<defs>
			<path id="SVGID_30_" d="M80.6,31.9c-8.6,6.7-16.2,14.8-22.4,23.8C110,59.2,162,51.4,210.5,32.8c-1.9-1.5-3.9-2.9-5.8-4.3
				C163.8,36.8,121.8,37.9,80.6,31.9"/>
		</defs>
		<clipPath id="SVGID_31_">
			<use xlink:href="#SVGID_30_"  style="overflow:visible;"/>
		</clipPath>
		<g class="st21">
			
				<linearGradient id="SVGID_32_" gradientUnits="userSpaceOnUse" x1="-729.8079" y1="599.7908" x2="-725.947" y2="599.7908" gradientTransform="matrix(39.45 0 0 39.45 28849.1309 -23617.8496)">
				<stop  offset="0" style="stop-color:#E4C885"/>
				<stop  offset="1.000000e-02" style="stop-color:#E4C885"/>
				<stop  offset="0.19" style="stop-color:#DBBF83"/>
				<stop  offset="0.6" style="stop-color:#B48424"/>
				<stop  offset="0.87" style="stop-color:#E3C589"/>
				<stop  offset="1" style="stop-color:#EEE3CF"/>
			</linearGradient>
			<rect x="58.2" y="28.5" class="st22" width="152.3" height="30.7"/>
		</g>
	</g>
	<g>
		<defs>
			<rect id="SVGID_33_" x="13.3" y="7.5" width="810.6" height="213.5"/>
		</defs>
		<clipPath id="SVGID_34_">
			<use xlink:href="#SVGID_33_"  style="overflow:visible;"/>
		</clipPath>
		<g class="st23">
			<path class="st24" d="M324.4,82.1c-2.4-8.5-5.3-16.9-8.5-25.1c4.9,13.5-72.6,61.8-140.6,80.1c-73.7,20-151,23.2-161.9-1.2
				c1.1,4.2,3.4,10,5.1,15.4c6.4,20.5,77.6,23.6,162.2,4.5s147.1-64.1,143.8-73.9"/>
		</g>
	</g>
</g>
</svg>
