<?xml version="1.0" encoding="utf-8"?>
<!-- Generator: Adobe Illustrator 22.0.0, SVG Export Plug-In . SVG Version: 6.00 Build 0)  -->
<svg version="1.1" id="Layer_1" xmlns="http://www.w3.org/2000/svg" xmlns:xlink="http://www.w3.org/1999/xlink" x="0px" y="0px"
	 viewBox="0 0 71.465 25" style="enable-background:new 0 0 71.465 25;" xml:space="preserve">
<style type="text/css">
	.st0{fill-rule:evenodd;clip-rule:evenodd;fill:#A6AAAA;}
	.st1{fill-rule:evenodd;clip-rule:evenodd;fill:#F3792E;}
	.st2{fill-rule:evenodd;clip-rule:evenodd;fill:#F06022;}
	.st3{fill-rule:evenodd;clip-rule:evenodd;fill:#D95122;}
	.st4{fill-rule:evenodd;clip-rule:evenodd;fill:#F89A2C;}
	.st5{fill-rule:evenodd;clip-rule:evenodd;fill:#FFFFFF;}
	.st6{fill:#FFFFFF;}
	.st7{fill-rule:evenodd;clip-rule:evenodd;fill:#B4008D;}
	.st8{fill-rule:evenodd;clip-rule:evenodd;fill:#9DBC0A;}
	.st9{fill:none;stroke:#9DBC0A;stroke-width:0.1962;stroke-miterlimit:10;}
	.st10{fill-rule:evenodd;clip-rule:evenodd;fill:#DF3F17;}
	.st11{fill:none;stroke:#DF3F17;stroke-width:0.1962;stroke-miterlimit:10;}
	.st12{fill-rule:evenodd;clip-rule:evenodd;fill:#F5B208;}
	.st13{fill:none;stroke:#F5B208;stroke-width:0.1962;stroke-miterlimit:10;}
	.st14{fill:#9DBC0A;}
	.st15{fill:none;stroke:#9DBC0A;stroke-width:0.2023;stroke-miterlimit:10;}
	.st16{fill:none;stroke:#DF3F17;stroke-width:0.2023;stroke-miterlimit:10;}
	.st17{fill:none;stroke:#F5B208;stroke-width:0.2023;stroke-miterlimit:10;}
	.st18{fill-rule:evenodd;clip-rule:evenodd;fill:#85754E;}
	.st19{fill:#85754E;}
	.st20{fill-rule:evenodd;clip-rule:evenodd;fill:#1A171B;}
	.st21{fill:#016268;}
	.st22{fill:#00A9C2;}
	.st23{fill:#21427B;}
	.st24{fill:#FAE101;}
	.st25{fill-rule:evenodd;clip-rule:evenodd;fill:#32327F;}
	.st26{fill-rule:evenodd;clip-rule:evenodd;fill:#FCB813;}
	.st27{fill:#002169;}
	.st28{fill:#C6C7C8;}
	.st29{fill:#F79420;}
	.st30{fill:#FCB831;}
	.st31{fill:#FDDD2E;}
	.st32{fill:#F3C700;}
	.st33{fill:#DB6216;}
	.st34{fill:#EAA600;}
	.st35{fill:#E32427;}
	.st36{fill:#FFFFFF;stroke:#FFFFFF;stroke-width:0.1124;stroke-miterlimit:10;}
	.st37{fill:url(#SVGID_1_);}
	.st38{fill-rule:evenodd;clip-rule:evenodd;fill:#C1272D;}
	.st39{fill-rule:evenodd;clip-rule:evenodd;fill:url(#SVGID_2_);}
	.st40{fill-rule:evenodd;clip-rule:evenodd;fill:url(#SVGID_3_);}
	.st41{fill-rule:evenodd;clip-rule:evenodd;fill:url(#SVGID_4_);}
	.st42{fill-rule:evenodd;clip-rule:evenodd;fill:url(#SVGID_5_);}
	.st43{fill-rule:evenodd;clip-rule:evenodd;fill:url(#SVGID_6_);}
	.st44{fill-rule:evenodd;clip-rule:evenodd;fill:url(#SVGID_7_);}
	.st45{fill-rule:evenodd;clip-rule:evenodd;fill:url(#SVGID_8_);}
	.st46{fill:#006937;}
	.st47{fill:#929990;}
	.st48{fill:#FFFFFF;stroke:#FFFFFF;stroke-width:0.1949;stroke-miterlimit:10;}
	.st49{fill:#18428F;}
	.st50{fill:#EC1848;}
	.st51{fill:#29A151;}
	.st52{fill:#C1272D;}
	.st53{fill:#29ABE2;}
	.st54{fill:#F7BE3E;}
	.st55{fill:url(#SVGID_9_);}
	.st56{fill-rule:evenodd;clip-rule:evenodd;fill:none;}
	.st57{clip-path:url(#SVGID_11_);fill-rule:evenodd;clip-rule:evenodd;}
	.st58{fill:#EFAF1F;}
	.st59{fill:#EFB022;}
	.st60{fill:#0E0A08;}
	.st61{fill:#DA2A28;}
	.st62{fill:#F6F6F5;}
	.st63{fill:#C7B086;}
	.st64{fill:#F1F0EE;}
	.st65{fill-rule:evenodd;clip-rule:evenodd;fill:url(#SVGID_12_);}
	.st66{fill-rule:evenodd;clip-rule:evenodd;fill:#FAF9F9;}
	.st67{fill-rule:evenodd;clip-rule:evenodd;fill:#F8B132;}
	.st68{fill-rule:evenodd;clip-rule:evenodd;fill:#1A70B7;}
	.st69{fill-rule:evenodd;clip-rule:evenodd;fill:#36A834;}
	.st70{fill-rule:evenodd;clip-rule:evenodd;fill:#E2000F;}
	.st71{fill-rule:evenodd;clip-rule:evenodd;fill:#1A1A18;}
	.st72{fill:url(#SVGID_13_);}
	.st73{fill:url(#SVGID_14_);}
	.st74{fill:url(#SVGID_15_);}
	.st75{fill:url(#SVGID_16_);}
	.st76{fill:url(#SVGID_17_);}
	.st77{fill:url(#SVGID_18_);}
	.st78{fill:url(#SVGID_19_);}
	.st79{fill:url(#SVGID_20_);}
	.st80{fill:url(#SVGID_21_);}
	.st81{fill:url(#SVGID_22_);}
	.st82{fill:url(#SVGID_23_);}
	.st83{fill:url(#SVGID_24_);}
	.st84{fill:url(#SVGID_25_);}
	.st85{fill:url(#SVGID_26_);}
	.st86{fill:#00A85D;}
	.st87{fill:#FFFFFF;stroke:#FFFFFF;stroke-width:0.1;stroke-miterlimit:10;}
	.st88{fill:#9FD8F5;}
	.st89{fill:#274888;}
	.st90{fill:#267DBF;}
	.st91{fill:#2F91CF;}
	.st92{fill:#2955A0;}
	.st93{fill:#236EB3;}
	.st94{fill:#CFEBFA;}
	.st95{fill:#42B7E9;}
	.st96{fill:#3FAAE0;}
	.st97{fill:#ED171F;}
	.st98{opacity:0.25;fill:url(#SVGID_27_);}
	.st99{fill:#FFFFFF;stroke:#FFFFFF;stroke-width:1.0606;stroke-miterlimit:10;}
	.st100{fill:#FFAF10;}
	.st101{fill:#151416;}
	.st102{fill:#E57641;}
	.st103{fill:none;}
	.st104{fill:#1C191B;}
	.st105{fill:#19181A;}
	.st106{fill:#DD7340;}
	.st107{fill:#181617;}
	.st108{fill:#EA7944;}
	.st109{fill:#0C0E13;}
	.st110{fill:#181719;}
	.st111{fill:#F2F1F2;}
	.st112{fill:#F6F5F5;}
	.st113{fill:#BA673F;}
	.st114{fill:#4E362A;}
	.st115{fill:#6A6567;}
	.st116{fill:none;stroke:#EA7944;stroke-width:0.3013;stroke-linecap:round;stroke-miterlimit:10;}
	.st117{fill:none;stroke:#FF00FF;stroke-width:0.25;stroke-miterlimit:10;}
</style>
<g>
	<path class="st51" d="M16.801,9.22c0,0,0.287-1.261,0-2.332c0,0-1.816,3.803-3.88,5.294c0,0,2.79-3.784,3.268-5.81
		s-0.382-3.058-0.382-3.058s-0.803,4.664-3.154,6.9c0,0,2.37-3.536,2.485-7.702c0,0-0.172-1.246-1.089-2.391
		c0,0-0.497,3.557-2.313,7.513s-2.217,3.937-2.217,3.937s-2.561-1.3-4.052-0.975s-1.758,0.554-1.911,0.726s-0.053,0.401-0.053,0.401
		S2.548,12.331,2.6,12.981c0.053,0.65,0.506,0.865,0.506,0.865s-0.038-0.435,0.301-0.664c0.339-0.229,0.535-0.244,0.659-0.22
		c0.124,0.024,0.922,0.42,1.128,1.018s-0.081,0.698-0.043,1.29c0.038,0.592,1.405,2.628,2.198,3.421s1.959,1.835,2.685,2.074
		l-1.739,1.242v1.644c-1.916-0.875-5.216-2.77-6.345-6.135c-0.404-1.206-0.553-2.667-0.659-3.707
		C1.074,11.663,1.148,9.86,1.263,8.589C3.575,7.984,5.888,7.379,8.2,6.774l2.79,0.745l0.382-1.07L8.277,5.627L0.173,7.672
		C0.076,8.548-0.011,9.7,0.001,11.055c0.012,1.354,0.118,2.404,0.172,2.886c0.155,1.369,0.596,4.347,1.854,6.212
		c0.049,0.072,0.106,0.154,0.106,0.154c0.287,0.409,0.966,1.311,2.049,2.227c1.028,0.87,2.25,1.564,4.037,2.345
		c0,0,4.014-1.325,5.734-3.733s2.217-5.027,2.217-5.027s-2.408,1.472-3.708,1.835l3.861-2.701c0,0,0.344-0.854,0.325-2.039
		c0,0-1.835,1.816-3.88,2.771c0,0,3.287-2.81,4.033-3.823v-1.911c0,0-2.007,2.79-3.842,3.651
		C12.96,13.903,16.323,10.596,16.801,9.22z M5.066,11.966l-0.637-0.408l1.128-0.37L5.066,11.966z"/>
	<g>
		<g>
			<path class="st6" d="M25.709,11.825v0.772h-0.859c-0.293,0-0.492,0.049-0.594,0.148c-0.103,0.099-0.154,0.309-0.154,0.631v7.567
				c0,0.322,0.05,0.53,0.15,0.624c0.1,0.094,0.3,0.141,0.598,0.141h0.859v0.786h-5.907v-0.786h0.829
				c0.303,0,0.506-0.048,0.609-0.144s0.154-0.303,0.154-0.62v-7.567c0-0.322-0.051-0.533-0.154-0.631
				c-0.103-0.098-0.306-0.148-0.609-0.148h-0.829v-0.772H25.709z"/>
			<path class="st6" d="M32.991,11.825v0.772h-0.859c-0.293,0-0.492,0.049-0.594,0.148c-0.103,0.099-0.154,0.309-0.154,0.631v7.567
				c0,0.322,0.05,0.53,0.15,0.624c0.1,0.094,0.3,0.141,0.598,0.141h0.859v0.786h-5.907v-0.786h0.829
				c0.303,0,0.506-0.048,0.609-0.144c0.103-0.096,0.154-0.303,0.154-0.62v-7.567c0-0.322-0.051-0.533-0.154-0.631
				c-0.103-0.098-0.306-0.148-0.609-0.148h-0.829v-0.772H32.991z"/>
			<path class="st6" d="M43.607,18.873c-0.264,1.265-0.803,2.232-1.618,2.9c-0.815,0.668-1.865,1.003-3.152,1.003
				c-0.646,0-1.25-0.087-1.813-0.26c-0.563-0.173-1.074-0.43-1.534-0.772c-0.714-0.539-1.256-1.198-1.625-1.977
				c-0.369-0.779-0.554-1.647-0.554-2.604c0-0.745,0.121-1.443,0.363-2.092c0.242-0.649,0.6-1.238,1.075-1.767
				c0.524-0.577,1.129-1.006,1.816-1.288c0.687-0.281,1.476-0.422,2.367-0.422c0.543,0,1.046,0.067,1.508,0.202
				c0.462,0.135,0.892,0.342,1.288,0.62l0.837-0.765h0.631l0.213,4.299l-0.763,0.058c-0.323-1.207-0.779-2.12-1.369-2.738
				c-0.59-0.618-1.303-0.927-2.139-0.927c-0.983,0-1.7,0.373-2.15,1.118c-0.45,0.746-0.675,1.948-0.675,3.607
				c0,1.698,0.235,2.908,0.704,3.632c0.47,0.724,1.248,1.086,2.334,1.086c0.841,0,1.556-0.272,2.143-0.815
				c0.587-0.543,1.02-1.332,1.299-2.366L43.607,18.873z"/>
		</g>
		<g>
			<path class="st6" d="M48.551,11.223c0.004,0.13-0.093,0.235-0.248,0.235c-0.137,0-0.234-0.104-0.234-0.235
				c0-0.135,0.102-0.239,0.243-0.239C48.459,10.984,48.551,11.088,48.551,11.223z M48.118,13.916v-2.103h0.389v2.103H48.118z"/>
			<path class="st6" d="M49.152,12.382c0-0.217-0.004-0.395-0.018-0.569h0.345l0.022,0.347h0.009c0.106-0.2,0.354-0.395,0.707-0.395
				c0.296,0,0.756,0.174,0.756,0.895v1.255h-0.389v-1.212c0-0.339-0.128-0.621-0.495-0.621c-0.256,0-0.455,0.178-0.521,0.391
				c-0.018,0.048-0.026,0.113-0.026,0.178v1.264h-0.389V12.382z"/>
			<path class="st6" d="M52.054,11.21v0.604h0.557v0.291h-0.557v1.134c0,0.261,0.075,0.408,0.292,0.408
				c0.102,0,0.177-0.013,0.225-0.026l0.018,0.287c-0.075,0.03-0.194,0.052-0.345,0.052c-0.181,0-0.327-0.056-0.42-0.161
				c-0.11-0.113-0.15-0.3-0.15-0.547v-1.147h-0.331v-0.291h0.331v-0.504L52.054,11.21z"/>
			<path class="st6" d="M53.238,12.934c0.009,0.517,0.345,0.73,0.734,0.73c0.278,0,0.446-0.048,0.592-0.109l0.066,0.274
				c-0.137,0.061-0.371,0.13-0.711,0.13c-0.658,0-1.052-0.426-1.052-1.06c0-0.634,0.38-1.134,1.003-1.134
				c0.698,0,0.884,0.604,0.884,0.99c0,0.078-0.009,0.139-0.013,0.178H53.238z M54.378,12.66c0.004-0.243-0.102-0.621-0.539-0.621
				c-0.393,0-0.566,0.356-0.597,0.621H54.378z"/>
			<path class="st6" d="M55.234,12.469c0-0.248-0.004-0.46-0.018-0.656h0.34l0.013,0.413h0.018c0.097-0.283,0.331-0.46,0.592-0.46
				c0.044,0,0.075,0.004,0.11,0.013v0.361c-0.04-0.009-0.079-0.013-0.133-0.013c-0.274,0-0.468,0.204-0.521,0.491
				c-0.009,0.052-0.018,0.113-0.018,0.178v1.121h-0.384V12.469z"/>
			<path class="st6" d="M56.696,12.382c0-0.217-0.004-0.395-0.018-0.569h0.345l0.022,0.347h0.009c0.106-0.2,0.354-0.395,0.707-0.395
				c0.296,0,0.756,0.174,0.756,0.895v1.255h-0.389v-1.212c0-0.339-0.128-0.621-0.495-0.621c-0.256,0-0.455,0.178-0.521,0.391
				c-0.018,0.048-0.026,0.113-0.026,0.178v1.264h-0.389V12.382z"/>
			<path class="st6" d="M60.332,13.916l-0.031-0.265h-0.013c-0.119,0.165-0.349,0.313-0.654,0.313c-0.433,0-0.654-0.3-0.654-0.604
				c0-0.508,0.46-0.786,1.286-0.782v-0.043c0-0.174-0.049-0.486-0.486-0.486c-0.199,0-0.406,0.061-0.557,0.156l-0.088-0.252
				c0.177-0.113,0.433-0.187,0.703-0.187c0.654,0,0.813,0.439,0.813,0.86v0.786c0,0.182,0.009,0.361,0.035,0.504H60.332z
				 M60.274,12.843c-0.424-0.009-0.906,0.065-0.906,0.473c0,0.248,0.168,0.365,0.367,0.365c0.278,0,0.455-0.174,0.517-0.352
				c0.013-0.039,0.022-0.082,0.022-0.122V12.843z"/>
			<path class="st6" d="M61.727,11.21v0.604h0.557v0.291h-0.557v1.134c0,0.261,0.075,0.408,0.292,0.408
				c0.102,0,0.177-0.013,0.225-0.026l0.018,0.287c-0.075,0.03-0.194,0.052-0.345,0.052c-0.181,0-0.327-0.056-0.42-0.161
				c-0.11-0.113-0.15-0.3-0.15-0.547v-1.147h-0.331v-0.291h0.331v-0.504L61.727,11.21z"/>
			<path class="st6" d="M63.154,11.223c0.004,0.13-0.093,0.235-0.248,0.235c-0.137,0-0.234-0.104-0.234-0.235
				c0-0.135,0.102-0.239,0.243-0.239C63.061,10.984,63.154,11.088,63.154,11.223z M62.721,13.916v-2.103h0.389v2.103H62.721z"/>
			<path class="st6" d="M65.69,12.847c0,0.778-0.548,1.116-1.065,1.116c-0.579,0-1.025-0.417-1.025-1.082
				c0-0.704,0.468-1.116,1.06-1.116C65.274,11.766,65.69,12.204,65.69,12.847z M63.993,12.869c0,0.46,0.27,0.808,0.65,0.808
				c0.371,0,0.65-0.343,0.65-0.817c0-0.356-0.181-0.808-0.641-0.808C64.192,12.052,63.993,12.469,63.993,12.869z"/>
			<path class="st6" d="M66.179,12.382c0-0.217-0.004-0.395-0.018-0.569h0.345l0.022,0.347h0.009c0.106-0.2,0.354-0.395,0.707-0.395
				c0.296,0,0.756,0.174,0.756,0.895v1.255h-0.389v-1.212c0-0.339-0.128-0.621-0.495-0.621c-0.256,0-0.455,0.178-0.521,0.391
				c-0.018,0.048-0.026,0.113-0.026,0.178v1.264h-0.389V12.382z"/>
			<path class="st6" d="M69.815,13.916l-0.031-0.265h-0.013c-0.119,0.165-0.349,0.313-0.654,0.313c-0.433,0-0.654-0.3-0.654-0.604
				c0-0.508,0.46-0.786,1.286-0.782v-0.043c0-0.174-0.049-0.486-0.486-0.486c-0.199,0-0.406,0.061-0.557,0.156l-0.088-0.252
				c0.177-0.113,0.433-0.187,0.703-0.187c0.654,0,0.813,0.439,0.813,0.86v0.786c0,0.182,0.009,0.361,0.035,0.504H69.815z
				 M69.757,12.843c-0.424-0.009-0.906,0.065-0.906,0.473c0,0.248,0.168,0.365,0.367,0.365c0.278,0,0.455-0.174,0.517-0.352
				c0.013-0.039,0.022-0.082,0.022-0.122V12.843z"/>
			<polygon class="st6" points="71.148,13.527 71.148,10.831 70.759,10.831 70.759,13.527 70.759,13.916 71.148,13.916 
				71.464,13.916 71.464,13.527 			"/>
		</g>
		<g>
			<path class="st6" d="M49.643,22.228c-0.102,0.052-0.327,0.122-0.614,0.122c-0.645,0-1.065-0.43-1.065-1.073
				c0-0.647,0.451-1.116,1.149-1.116c0.23,0,0.433,0.056,0.539,0.109l-0.088,0.295c-0.093-0.052-0.239-0.1-0.451-0.1
				c-0.491,0-0.756,0.356-0.756,0.795c0,0.487,0.318,0.786,0.742,0.786c0.221,0,0.367-0.056,0.477-0.104L49.643,22.228z"/>
			<path class="st6" d="M52.006,21.238c0,0.778-0.548,1.116-1.065,1.116c-0.579,0-1.025-0.417-1.025-1.082
				c0-0.704,0.468-1.116,1.06-1.116C51.591,20.156,52.006,20.595,52.006,21.238z M50.309,21.259c0,0.46,0.27,0.808,0.65,0.808
				c0.371,0,0.65-0.343,0.65-0.817c0-0.356-0.181-0.808-0.641-0.808C50.508,20.443,50.309,20.86,50.309,21.259z"/>
			<path class="st6" d="M52.496,20.773c0-0.217-0.004-0.395-0.018-0.569h0.34l0.018,0.339h0.013c0.119-0.2,0.318-0.387,0.672-0.387
				c0.292,0,0.513,0.174,0.605,0.421h0.009c0.066-0.117,0.15-0.209,0.239-0.274c0.128-0.096,0.27-0.148,0.473-0.148
				c0.283,0,0.703,0.182,0.703,0.912v1.238h-0.38v-1.19c0-0.404-0.15-0.647-0.464-0.647c-0.221,0-0.393,0.161-0.46,0.348
				c-0.018,0.052-0.031,0.122-0.031,0.191v1.299h-0.38v-1.26c0-0.334-0.15-0.578-0.446-0.578c-0.243,0-0.42,0.191-0.482,0.382
				c-0.022,0.056-0.031,0.122-0.031,0.187v1.268h-0.38V20.773z"/>
			<path class="st6" d="M56.179,20.89c0-0.269-0.009-0.486-0.018-0.686h0.349l0.018,0.36h0.009c0.159-0.256,0.411-0.408,0.76-0.408
				c0.517,0,0.906,0.43,0.906,1.069c0,0.756-0.468,1.129-0.972,1.129c-0.283,0-0.53-0.122-0.658-0.33h-0.009v1.143h-0.384V20.89z
				 M56.564,21.451c0,0.056,0.009,0.109,0.018,0.156c0.071,0.265,0.305,0.448,0.583,0.448c0.411,0,0.65-0.33,0.65-0.812
				c0-0.421-0.225-0.782-0.636-0.782c-0.265,0-0.513,0.187-0.588,0.473c-0.013,0.048-0.027,0.104-0.027,0.156V21.451z"/>
			<path class="st6" d="M59.877,22.306l-0.031-0.265h-0.013c-0.119,0.165-0.349,0.313-0.654,0.313c-0.433,0-0.654-0.3-0.654-0.604
				c0-0.508,0.46-0.786,1.286-0.782v-0.043c0-0.174-0.049-0.486-0.486-0.486c-0.199,0-0.406,0.061-0.557,0.156l-0.088-0.252
				c0.177-0.113,0.433-0.187,0.703-0.187c0.654,0,0.813,0.439,0.813,0.86v0.786c0,0.182,0.009,0.361,0.035,0.504H59.877z
				 M59.819,21.233c-0.424-0.009-0.906,0.065-0.906,0.473c0,0.248,0.168,0.365,0.367,0.365c0.278,0,0.455-0.174,0.517-0.352
				c0.013-0.039,0.022-0.082,0.022-0.122V21.233z"/>
			<path class="st6" d="M60.821,20.773c0-0.217-0.004-0.395-0.018-0.569h0.345l0.022,0.347h0.009c0.106-0.2,0.354-0.395,0.707-0.395
				c0.296,0,0.756,0.174,0.756,0.895v1.255h-0.389v-1.212c0-0.339-0.128-0.621-0.495-0.621c-0.256,0-0.455,0.178-0.521,0.391
				c-0.018,0.048-0.026,0.113-0.026,0.178v1.264h-0.389V20.773z"/>
			<path class="st6" d="M63.357,20.204l0.468,1.242c0.049,0.139,0.102,0.304,0.137,0.43h0.009c0.04-0.126,0.084-0.287,0.137-0.439
				l0.424-1.234h0.411l-0.583,1.499c-0.278,0.721-0.468,1.09-0.733,1.316c-0.19,0.165-0.38,0.23-0.477,0.248l-0.097-0.321
				c0.097-0.03,0.225-0.091,0.34-0.187c0.106-0.083,0.239-0.23,0.327-0.426c0.018-0.039,0.031-0.07,0.031-0.091
				c0-0.022-0.009-0.052-0.026-0.1l-0.791-1.937H63.357z"/>
		</g>
		<g>
			<g>
				<path class="st6" d="M48.551,15.383c0.004,0.13-0.093,0.235-0.248,0.235c-0.137,0-0.234-0.104-0.234-0.235
					c0-0.135,0.102-0.239,0.243-0.239C48.459,15.144,48.551,15.248,48.551,15.383z M48.118,18.076v-2.103h0.389v2.103H48.118z"/>
				<path class="st6" d="M49.152,16.543c0-0.217-0.004-0.395-0.018-0.569h0.345l0.022,0.347h0.009
					c0.106-0.2,0.354-0.395,0.707-0.395c0.296,0,0.756,0.174,0.756,0.895v1.255h-0.389v-1.212c0-0.339-0.128-0.621-0.495-0.621
					c-0.256,0-0.455,0.178-0.521,0.391c-0.018,0.048-0.026,0.113-0.026,0.178v1.264h-0.389V16.543z"/>
				<path class="st6" d="M51.55,17.685c0.115,0.074,0.318,0.152,0.513,0.152c0.283,0,0.415-0.139,0.415-0.313
					c0-0.182-0.11-0.282-0.398-0.387c-0.384-0.135-0.566-0.343-0.566-0.595c0-0.339,0.278-0.617,0.738-0.617
					c0.217,0,0.406,0.061,0.526,0.13l-0.097,0.278c-0.084-0.052-0.239-0.122-0.438-0.122c-0.23,0-0.358,0.13-0.358,0.287
					c0,0.174,0.128,0.252,0.407,0.356c0.371,0.139,0.561,0.321,0.561,0.634c0,0.369-0.292,0.63-0.8,0.63
					c-0.234,0-0.451-0.056-0.601-0.143L51.55,17.685z"/>
				<path class="st6" d="M55.142,17.503c0,0.217,0.004,0.408,0.018,0.573h-0.345l-0.022-0.343h-0.009
					c-0.102,0.169-0.327,0.391-0.707,0.391c-0.336,0-0.738-0.182-0.738-0.921v-1.229h0.389v1.164c0,0.4,0.124,0.669,0.477,0.669
					c0.261,0,0.442-0.178,0.513-0.347c0.022-0.057,0.035-0.126,0.035-0.196v-1.29h0.389V17.503z"/>
				<path class="st6" d="M55.786,16.63c0-0.248-0.004-0.46-0.018-0.656h0.34l0.013,0.413h0.018c0.097-0.283,0.331-0.46,0.592-0.46
					c0.044,0,0.075,0.004,0.11,0.013v0.361c-0.04-0.009-0.079-0.013-0.133-0.013c-0.274,0-0.468,0.204-0.521,0.491
					c-0.009,0.052-0.018,0.113-0.018,0.178v1.121h-0.384V16.63z"/>
				<path class="st6" d="M58.393,18.076l-0.031-0.265h-0.013c-0.119,0.165-0.349,0.313-0.654,0.313c-0.433,0-0.654-0.3-0.654-0.604
					c0-0.508,0.46-0.786,1.286-0.782v-0.043c0-0.174-0.049-0.486-0.486-0.486c-0.199,0-0.406,0.061-0.557,0.156l-0.088-0.252
					c0.177-0.113,0.433-0.187,0.703-0.187c0.654,0,0.813,0.439,0.813,0.86v0.786c0,0.182,0.009,0.361,0.035,0.504H58.393z
					 M58.335,17.003c-0.424-0.009-0.906,0.065-0.906,0.473c0,0.248,0.168,0.365,0.367,0.365c0.278,0,0.455-0.174,0.517-0.352
					c0.013-0.039,0.022-0.082,0.022-0.122V17.003z"/>
				<path class="st6" d="M59.337,16.543c0-0.217-0.004-0.395-0.018-0.569h0.345l0.022,0.347h0.009
					c0.106-0.2,0.354-0.395,0.707-0.395c0.296,0,0.756,0.174,0.756,0.895v1.255h-0.389v-1.212c0-0.339-0.128-0.621-0.495-0.621
					c-0.256,0-0.455,0.178-0.521,0.391c-0.018,0.048-0.026,0.113-0.026,0.178v1.264h-0.389V16.543z"/>
				<path class="st6" d="M63.313,17.998c-0.102,0.052-0.327,0.122-0.614,0.122c-0.645,0-1.065-0.43-1.065-1.073
					c0-0.647,0.451-1.116,1.149-1.116c0.23,0,0.433,0.056,0.539,0.109l-0.088,0.295c-0.093-0.052-0.239-0.1-0.451-0.1
					c-0.491,0-0.756,0.356-0.756,0.795c0,0.487,0.318,0.786,0.742,0.786c0.221,0,0.367-0.056,0.477-0.104L63.313,17.998z"/>
				<path class="st6" d="M63.958,17.094c0.009,0.517,0.345,0.73,0.734,0.73c0.278,0,0.446-0.048,0.592-0.109l0.066,0.274
					c-0.137,0.061-0.371,0.13-0.711,0.13c-0.658,0-1.052-0.426-1.052-1.06s0.38-1.134,1.003-1.134c0.698,0,0.884,0.604,0.884,0.99
					c0,0.078-0.009,0.139-0.013,0.178H63.958z M65.098,16.821c0.004-0.243-0.102-0.621-0.539-0.621
					c-0.393,0-0.566,0.356-0.597,0.621H65.098z"/>
			</g>
			<rect x="47.874" y="15.975" class="st6" width="0.621" height="0.258"/>
		</g>
	</g>
</g>
</svg>
