<svg width="16" height="21" viewBox="0 0 16 21" fill="none" xmlns="http://www.w3.org/2000/svg">
<path d="M8.66308 0.5H7.33692C6.26834 0.5 5.84723 0.589348 5.41558 0.770177C4.98393 0.951007 4.62364 1.22332 4.33189 1.58924C4.04013 1.95517 3.83927 2.33592 3.54768 3.36394L3.36727 4H1C0.447715 4 0 4.44772 0 5C0 5.55228 0.447715 6 1 6H1.5625L2.26559 17.2495C2.34813 18.5701 2.38939 19.2303 2.67281 19.7312C2.92232 20.1721 3.29991 20.5269 3.75556 20.7484C4.27313 21 4.93469 21 6.2578 21H9.7422C11.0653 21 11.7269 21 12.2444 20.7484C12.7001 20.5269 13.0777 20.1721 13.3272 19.7312C13.6106 19.2303 13.6519 18.5701 13.7344 17.2495L14.4375 6H15C15.5523 6 16 5.55228 16 5C16 4.44772 15.5523 4 15 4H12.6327L12.4523 3.36394C12.1607 2.33592 11.9599 1.95517 11.6681 1.58924C11.3764 1.22332 11.0161 0.951007 10.5844 0.770177C10.1528 0.589348 9.73166 0.5 8.66308 0.5ZM10.5538 4H5.44617L5.47178 3.90969C5.675 3.19321 5.76106 3.0049 5.89568 2.83606C5.97812 2.73265 6.06638 2.66595 6.18836 2.61485C6.38753 2.53141 6.59218 2.5 7.33691 2.5H8.66308C9.40782 2.5 9.61247 2.53141 9.81164 2.61485C9.93362 2.66595 10.0219 2.73265 10.1043 2.83606C10.2389 3.0049 10.325 3.19321 10.5282 3.90969L10.5538 4ZM5.60954 7.50617C6.0235 7.49172 6.37081 7.81558 6.38526 8.22954L6.68191 16.7244C6.69636 17.1383 6.3725 17.4856 5.95854 17.5001C5.54458 17.5145 5.19728 17.1907 5.18282 16.7767L4.88617 8.28189C4.87172 7.86793 5.19558 7.52063 5.60954 7.50617ZM9.61772 8.22954C9.63218 7.81558 9.97948 7.49172 10.3934 7.50617C10.8074 7.52063 11.1313 7.86793 11.1168 8.28189L10.8202 16.7767C10.8057 17.1907 10.4584 17.5145 10.0444 17.5001C9.63048 17.4856 9.30662 17.1383 9.32107 16.7244L9.61772 8.22954Z" fill="#2F3747"/>
</svg>
