<svg xmlns="http://www.w3.org/2000/svg" xml:space="preserve" id="Слой_1" x="0" y="0" style="enable-background:new 0 0 601 104.4471588" version="1.1" viewBox="0 0 601 104.447"><style>.st0{fill:#e94744}</style><g id="Слой_2_1_"><g id="Слой_5"><path d="M36.688 52.224 49.85 39.062l-.01-2.132V10.745C49.84 2.985 46.704 0 37.75 0H12.233C3.287 0 0 3.582 0 11.636v82.066c0 7.912 2.833 10.745 11.04 10.745h26.416c9.248 0 12.384-2.538 12.384-10.896V67.684l.011-2.298-13.163-13.162zm-3.26 38.788H16.413V13.427h17.017v77.585zM143.685 64.007v29.099c0 8.357-4.027 11.341-12.384 11.341h-24.618c-9.845 0-12.83-2.984-12.83-10.745V68.894l-.166-16.587.167-16.587V11.636C93.854 2.985 96.838 0 106.087 0h23.423c8.954 0 12.981 2.682 12.981 10.745v23.12h-16.26V13.428h-15.966v25.542L97.01 52.224l13.255 13.255v25.533h17.008V64.007h16.412zM233.205 0v13.43h-16.107v25.79l-13 13 13 13.009v39.22h-16.416v-91.02h-15.966V0zM300.352 0h-12.536l-24.02 104.447h15.814l4.927-21.935h18.052l4.33 21.935h17.007L300.352 0zm-12.679 68.337 5.962-28.502 5.523 28.502h-11.485zM413.299 49.538v44.164c0 7.61-4.776 10.745-12.384 10.745h-26.409c-8.054 0-11.038-3.136-11.038-10.896V65.479l13.255-13.255-13.255-13.255V11.485C363.468 2.833 366.452 0 375.7 0h24.323c8.5 0 12.385 2.833 12.385 10.594v23.128h-16.563V13.427h-15.966v77.585h17.008V64.461h-8.954V49.538H413.3zM495.063 0h-25.51c-8.953 0-12.24 3.582-12.24 11.636v27.355l13.233 13.233-13.233 13.232v28.247c0 7.911 2.842 10.745 11.047 10.745h26.408c9.249 0 12.385-2.54 12.385-10.897V10.745c0-7.76-3.136-10.745-12.09-10.745zm-4.322 91.012h-17.016V13.427h17.016v77.585zM601 0v104.449h-11.49l-22.825-59.39v59.39h-15.517V65.46l.029.035 13.267-13.275-13.267-13.268-.029.035V0h10.745l23.718 59.382V0z" class="st0"/></g></g></svg>