<svg xmlns="http://www.w3.org/2000/svg" width="200" height="155" fill="none"><path fill="url(#a)" d="M0 63.91c2.9-.4 5.9-.7 8.9-.6 4 0 6.9.8 8.9 2.3 1.9 1.7 3 4.1 3 6.7.1 2.5-.9 5-2.6 6.8-2.6 2.2-6 3.3-9.4 3.1-.7 0-1.5 0-2.2-.1v10.3H.1v-28.5H0Zm6.4 13.1c.7.1 1.5.2 2.2.2 3.5 0 5.6-1.8 5.6-4.7 0-2.6-1.8-4.2-5.1-4.2-.9 0-1.8.1-2.7.3v8.4Z"/><path fill="url(#b)" d="M25.6 63.91c2.9-.4 5.8-.6 8.7-.6 4.3 0 7.3.7 9.3 2.3 1.8 1.5 2.8 3.7 2.7 6 0 3.2-2.1 6-5.1 7.1v.1c2 .8 3.1 2.7 3.9 5.4.9 3.3 1.8 7 2.4 8.1h-6.7c-.9-2.2-1.6-4.4-2-6.7-.8-3.6-2-4.6-4.7-4.6h-2v11.4h-6.5v-28.5Zm6.5 12.4h2.6c3.3 0 5.2-1.6 5.2-4.2s-1.8-4-4.8-4c-1 0-2 0-3 .2v8Z"/><path fill="url(#c)" d="M61.4 78.91v4.3H50.2v-4.3h11.2Z"/><path fill="url(#d)" d="m72.8 84.91-2.1 7.4h-6.8l8.9-28.9h8.5l9 28.9h-7l-2.2-7.4h-8.3Zm7.4-4.9-1.8-6.1c-.5-1.7-1-3.8-1.5-5.6h-.1c-.4 1.7-.9 3.9-1.3 5.6l-1.7 6.1h6.4Z"/><path fill="url(#e)" d="M95.1 85.61c2.2 1.1 4.7 1.8 7.2 1.8 3 0 4.599-1.2 4.599-3.1 0-1.9-1.4-2.8-4.8-4.1-4.8-1.7-7.9-4.3-7.9-8.5 0-4.9 4.1-8.7 10.9-8.7 2.5-.1 5.101.5 7.401 1.5l-1.5 5.3c-1.9-.9-4.001-1.4-6.101-1.4-2.8 0-4.2 1.3-4.2 2.8 0 1.8 1.6 2.7 5.4 4.1 5.1 1.9 7.5 4.5 7.5 8.6 0 4.8-3.699 8.9-11.599 8.9-2.8.1-5.6-.5-8.1-1.6l1.2-5.6Z"/><path fill="url(#f)" d="M119 85.61c2.2 1.1 4.7 1.8 7.2 1.8 3 0 4.6-1.2 4.6-3.1 0-1.9-1.4-2.8-4.8-4.1-4.8-1.7-7.9-4.3-7.9-8.5 0-4.9 4.1-8.7 10.9-8.7 2.5-.1 5.1.5 7.4 1.5l-1.5 5.3c-1.9-.9-3.9-1.4-6-1.4-2.8 0-4.2 1.3-4.2 2.8 0 1.8 1.6 2.7 5.4 4.1 5.1 1.9 7.5 4.5 7.5 8.6 0 4.8-3.7 8.9-11.6 8.9-2.8.1-5.6-.5-8.2-1.6l1.2-5.6Z"/><path fill="url(#g)" d="M149.2 63.512v28.9h-6.6v-28.9h6.6Z"/><path fill="url(#h)" d="M155.8 85.61c2.2 1.1 4.7 1.8 7.2 1.8 3 0 4.6-1.2 4.6-3.1 0-1.9-1.4-2.8-4.8-4.1-4.8-1.7-7.9-4.3-7.9-8.5 0-4.9 4.1-8.7 10.9-8.7 2.5-.1 5.1.5 7.4 1.5l-1.5 5.3c-1.9-.9-3.9-1.4-6-1.4-2.8 0-4.2 1.3-4.2 2.8 0 1.8 1.6 2.7 5.4 4.1 5.1 1.9 7.5 4.5 7.5 8.6 0 4.8-3.7 8.9-11.6 8.9-2.8.1-5.6-.5-8.2-1.6l1.2-5.6Z"/><path fill="url(#i)" d="M185 68.912h-7.7v-5.4h22.2v5.4h-7.9v23.4h-6.5v-23.4h-.1Z"/><defs><linearGradient id="a" x1="-.8" x2="196.313" y1="77.853" y2="77.853" gradientUnits="userSpaceOnUse"><stop stop-color="#1C8AE2"/><stop offset=".486" stop-color="#8B00B3"/><stop offset="1" stop-color="#6900B5"/></linearGradient><linearGradient id="b" x1="-.801" x2="196.314" y1="77.804" y2="77.804" gradientUnits="userSpaceOnUse"><stop stop-color="#1C8AE2"/><stop offset=".486" stop-color="#8B00B3"/><stop offset="1" stop-color="#6900B5"/></linearGradient><linearGradient id="c" x1="-.8" x2="196.313" y1="81.1" y2="81.1" gradientUnits="userSpaceOnUse"><stop stop-color="#1C8AE2"/><stop offset=".486" stop-color="#8B00B3"/><stop offset="1" stop-color="#6900B5"/></linearGradient><linearGradient id="d" x1="-.801" x2="196.313" y1="77.907" y2="77.907" gradientUnits="userSpaceOnUse"><stop stop-color="#1C8AE2"/><stop offset=".486" stop-color="#8B00B3"/><stop offset="1" stop-color="#6900B5"/></linearGradient><linearGradient id="e" x1="-.8" x2="196.312" y1="77.858" y2="77.858" gradientUnits="userSpaceOnUse"><stop stop-color="#1C8AE2"/><stop offset=".486" stop-color="#8B00B3"/><stop offset="1" stop-color="#6900B5"/></linearGradient><linearGradient id="f" x1="-.799" x2="196.312" y1="77.858" y2="77.858" gradientUnits="userSpaceOnUse"><stop stop-color="#1C8AE2"/><stop offset=".486" stop-color="#8B00B3"/><stop offset="1" stop-color="#6900B5"/></linearGradient><linearGradient id="g" x1="-.803" x2="196.313" y1="77.916" y2="77.916" gradientUnits="userSpaceOnUse"><stop stop-color="#1C8AE2"/><stop offset=".486" stop-color="#8B00B3"/><stop offset="1" stop-color="#6900B5"/></linearGradient><linearGradient id="h" x1="-.801" x2="196.313" y1="77.865" y2="77.865" gradientUnits="userSpaceOnUse"><stop stop-color="#1C8AE2"/><stop offset=".486" stop-color="#8B00B3"/><stop offset="1" stop-color="#6900B5"/></linearGradient><linearGradient id="i" x1="-.8" x2="196.313" y1="77.916" y2="77.916" gradientUnits="userSpaceOnUse"><stop stop-color="#1C8AE2"/><stop offset=".486" stop-color="#8B00B3"/><stop offset="1" stop-color="#6900B5"/></linearGradient></defs></svg>