<svg width="184" height="155" fill="none" xmlns="http://www.w3.org/2000/svg"><g clip-path="url(#a)"><path d="M58.346 136.764H21.034v8.779h37.312v-8.779Z" fill="url(#b)"/><path d="M51.122 125.697H21.034v8.78h30.088v-8.78Z" fill="url(#c)"/><path d="M42.068 114.906H21.034v8.78h21.034v-8.78Z" fill="url(#d)"/><path d="M30.91 104.205h-9.876v8.779h9.877v-8.779Z" fill="url(#e)"/><path d="M21.034 29.033H5.213v8.78h15.82v-8.78Z" fill="url(#f)"/><path d="M39.05 18.334H21.034v8.78H39.05v-8.78Z" fill="url(#g)"/><path d="M53.042 8H21.034v8.78h32.008V8Z" fill="url(#h)"/><path d="M21.034 83.356H0v8.779h21.034v-8.78Z" fill="url(#i)"/><path d="M21.034 94.055h-9.877v8.779h9.877v-8.78Z" fill="url(#j)"/><path d="M62.736 145.542v-36.489a41.764 41.764 0 0 0-5.305-16.736c-5.03-9.145-14.723-19.844-33.562-26.154-.366-.092-.64.09-.823.365-.092.274 0 .64.366.823 18.473 6.219 28.075 16.644 32.83 25.606a42.28 42.28 0 0 1 4.39 11.432c.275 1.097.457 2.286.64 3.475 0 .457 0 .732.092.915v36.763c0 .366.274.64.64.64.457 0 .732-.274.732-.64Z" fill="url(#k)"/><path d="M122.178 16.048v25.515c0 1.28-.274 1.738-1.737 1.738-4.298 0-4.298 0-4.298-4.39V11.75c0-1.738.548-2.104 2.103-2.012 2.286.183 4.573.183 6.859 0 1.737-.092 2.103.549 2.378 2.012 1.188 5.487 2.469 10.974 3.749 16.461.091.457.366.915.732 1.189.823-3.201 1.737-6.493 2.56-9.694.732-2.835 1.463-5.67 2.104-8.596.091-.823.823-1.464 1.646-1.464H145.956c1.097 0 1.554.275 1.554 1.464v30.544c0 1.19-.274 1.555-1.463 1.555-5.304.183-5.304.274-5.304-5.213V17.511h-.457c-.915 3.567-1.738 7.042-2.652 10.609-1.098 4.572-2.287 9.053-3.293 13.626-.274 1.28-.731 1.737-2.103 1.737-3.75 0-3.75 0-4.573-3.658-1.554-7.041-3.109-14.083-4.755-21.216-.183-.64-.366-1.28-.732-2.47" fill="url(#l)"/><path d="M85.233 44.032v5.213c0 .915-.275 1.189-1.19 1.189-5.12-.275-4.206 1.189-4.572-4.116-.183-2.103-.64-2.835-2.926-2.743-3.75.183-7.5.091-11.34 0-1.19 0-1.738.366-1.738 1.463 0 .457 0 .823-.091 1.28-.458 5.122.365 3.841-4.664 4.024-.915 0-1.19-.274-1.19-1.189v-10.7c0-.548-.182-1.28.732-1.097 1.555.183 1.555-.823 1.83-1.829 2.103-8.047 4.298-16.095 6.401-24.234.366-1.28.823-1.738 2.103-1.555 2.104 0 4.207.091 6.31 0 1.28 0 1.738.457 1.92 1.555 1.921 8.139 3.842 16.278 5.854 24.326.183 1.006.274 1.92 1.737 1.737.915-.091.732.64.732 1.098 0 1.829 0 3.658.091 5.578ZM66.484 37.54h8.14c.822 0 1.097-.183.914-1.097-1.28-6.127-2.47-12.255-3.658-18.382-.092-.457-.092-.915-.64-.915-.55 0-.55.458-.64.915-1.373 6.402-2.744 12.803-4.116 19.48Z" fill="url(#m)"/><path d="M111.571 26.474c.091 3.475-.549 7.041-1.738 10.334-1.463 4.206-5.487 7.041-9.877 7.041-4.755.183-8.688-1.371-10.79-5.944-3.293-7.316-3.202-15.821.273-23.046 2.104-4.664 6.31-5.944 10.975-5.67 4.572.183 8.413 3.293 9.693 7.682 1.098 3.018 1.647 6.31 1.464 9.603Zm-7.865-1.098c0-2.012-.092-4.024-.457-6.036-.641-3.475-2.47-4.664-5.396-3.658-1.189.458-2.012 1.555-2.195 2.835-1.28 5.305-1.189 10.883.092 16.096.365 1.646 1.737 2.835 3.292 3.018 1.646.091 3.109-1.006 3.566-2.652 1.189-2.744 1.098-5.67 1.098-9.603Z" fill="url(#n)"/><path d="M159.674 57.749a3.207 3.207 0 0 0-1.555 1.738l-5.67 9.968c-.457.64-.732 1.371-.732 2.103.183 1.28-.457 1.463-1.554 1.463-2.652 0-2.652 0-2.652-2.652V49.701c0-1.829.914-1.737 2.103-1.737 1.28 0 2.286-.183 2.195 1.737-.183 4.024-.092 8.048-.092 12.163-.182.732 0 1.555.366 2.195 1.738-3.018 3.475-5.761 4.847-8.688 1.098-2.103 2.652-3.932 2.835-6.584 0-1.463 2.012-.457 3.018-.732 1.006-.274 1.097.457 1.097 1.28v22.589c0 1.92-1.371 1.097-2.194 1.189-.823.091-2.012.548-1.921-1.19V60.219l-.091-2.47Z" fill="url(#o)"/><path d="M91.086 60.402v-10.7c0-1.28.183-1.829 1.737-1.829 4.024.092 8.048 0 12.163 0 1.098 0 1.555.274 1.555 1.463V71.56c0 2.195-1.463 1.372-2.378 1.463-1.006.183-1.92 0-1.92-1.555.091-6.035 0-12.163 0-18.198 0-1.738-.549-2.104-2.104-2.012-4.847 0-4.847 0-4.847 4.847v15.272c0 1.737-.823 1.737-2.012 1.737-1.188 0-2.286.366-2.286-1.646.183-3.658 0-7.407 0-11.065" fill="url(#p)"/><path d="m174.49 54.458-3.018 12.437c-.458 1.738-.915 3.476-1.189 5.122-.183 1.006-.64 1.189-1.555 1.189-3.201.091-3.201.183-2.378-2.927 1.738-6.767 3.475-13.443 5.122-20.21.365-1.555 1.006-2.287 2.652-2.012a9.563 9.563 0 0 0 2.286 0c.64-.092 1.28.274 1.463.914v.183c2.012 7.956 4.115 15.913 6.127 23.777-.182.092-.182.183-.182.183-4.024.457-4.024.457-4.939-3.475-1.097-4.39-2.103-8.78-3.201-13.169-.183-.732-.457-1.372-.64-2.103l-.548.091Z" fill="url(#q)"/><path d="M128.763 60.585V49.519c0-1.189.274-1.646 1.554-1.554 2.652 0 5.305.091 7.957.365 2.835.275 5.212 2.378 5.852 5.122.915 3.017-.091 6.31-2.652 8.322-1.92 1.28-4.298 1.829-6.584 1.554-1.738 0-2.012.549-1.921 2.012.092 2.195 0 4.298 0 6.493 0 2.195-1.371 1.098-2.194 1.19-.823.09-2.012.548-2.012-1.19V60.585Zm4.115-4.938v1.737c0 2.926 0 2.926 3.018 2.47 2.012-.184 3.658-1.83 3.841-3.842 0-2.286-1.555-4.298-3.75-4.755-2.652-.457-3.109-.183-3.109 2.56v1.83Z" fill="url(#r)"/><path d="M111.204 60.401V49.52c0-1.28.366-1.738 1.738-1.646 3.749.091 7.499.091 11.34 0 1.28 0 1.737.365 1.737 1.737 0 1.28-.366 1.829-1.737 1.738-2.47-.092-4.847 0-7.316 0-1.006 0-1.281.366-1.281 1.28-.274 5.853-.274 5.853 5.487 5.944 1.006 0 2.652-.731 2.652 1.555 0 1.463-.457 1.92-1.92 1.829-1.463-.091-3.201 0-4.847 0-1.097 0-1.463.366-1.372 1.463.183 2.104-.823 4.756.366 6.036 1.189 1.372 3.841.274 5.761.366a9.572 9.572 0 0 0 2.287 0c1.737-.275 2.103.548 2.012 2.103 0 1.006-.275 1.28-1.281 1.28h-11.888c-1.281 0-1.464-.457-1.464-1.554V60.584" fill="url(#s)"/><path d="M128.031 121.856c-.823 0-1.463-.548-1.737-1.371-.183-.641-.366-1.281-.64-1.921-.275-.549-.824-.823-1.372-.64-.732.091-.366.732-.549 1.189-.366.823.823 2.56-.732 2.56-1.554 0-.457-1.737-.731-2.56-.183-.457.183-1.006-.549-1.189-.549-.183-1.189.183-1.28.732l-.732 1.92a1.828 1.828 0 0 1-2.103 1.28c-.457 0-.915-.731-.366-1.006 1.738-.548 1.555-2.286 2.103-3.475.549-1.189-.457-2.286-1.371-3.2-.275-.275-.823-.275-.549-.915.274-.549.914-.275 1.28-.183 1.006.274 1.189 1.189 1.463 2.103.275.915.458 1.555 1.464 1.372 1.006-.183.457-1.189.548-1.737.092-.549 0-.824 0-1.281 0-.457.549-.548.915-.548s.64.274.64.64v1.463c0 .549-.366 1.372.64 1.463 1.006.092 1.281-.457 1.463-1.189.183-.731.366-1.737 1.189-2.103.458-.274 1.281-.64 1.738 0 .457.64-.366.64-.732.915-.914.731-.731 2.103-1.737 2.834 1.097.915 1.006 2.561 2.103 3.476.274.182 1.006 0 .64.731-.183.366-.64.64-1.006.457" fill="url(#t)"/><path d="M138 117.193c.274 1.189-.732 2.926 1.189 4.024.366.183.091 1.737 0 2.652 0 .457-.457.457-.823.457-.366 0-.823-.274-.732-.823.366-1.829-.823-1.829-2.103-1.738a9.51 9.51 0 0 1-2.287 0c-1.097-.091-1.737.183-1.554 1.464.091.548.091 1.189-.823 1.097-.915-.091-.732-.64-.732-1.189-.091-1.006.183-2.012.915-2.743 1.371-1.372 1.189-3.475 1.189-5.396 0-1.372.365-1.92 1.737-1.737h.183c3.749 0 3.749 0 3.749 3.932m-1.463.457v-1.463c0-1.006.092-1.92-1.463-1.92-1.555 0-1.372.731-1.372 1.737 0 .823-.091 1.646-.366 2.469-.823 2.195 1.006 1.738 2.012 1.921 1.738.366 1.006-1.006 1.098-1.738.091-.366.091-.731.091-1.097v.091Z" fill="url(#u)"/><path d="M166.716 116.643c-1.006 1.463-2.012 2.927-2.927 4.39-.274.64-1.006 1.006-1.737.823-.823-.275-.549-1.006-.549-1.555v-5.853c0-.64 0-1.189.914-1.28.915 0 .823.731.823 1.28 0 1.463.092 2.927.366 4.299 1.006-1.464 1.921-2.836 2.927-4.299.457-.731 1.006-1.554 1.92-1.188.915.365.457 1.188.457 1.829v5.578c0 .549 0 1.189-.731 1.28-.732.092-1.006-.548-1.006-1.189v-3.932l-.457-.183Z" fill="url(#v)"/><path d="M99.864 121.582v2.835c0 .64-.457.823-.914.915-.823.091-.64-.549-.64-1.006-.275-3.475.457-6.859-.366-10.334-.092-.549.457-.915.731-.732 1.28 1.006 2.287 0 3.476-.183a3.27 3.27 0 0 1 2.377.64c1.463 1.738 1.921 4.116.915 6.219-.732 1.646-2.652 2.561-4.298 1.921l-1.28-.275Zm4.298-3.749v-1.006c-.182-1.189-.182-2.652-2.011-2.561-1.83.091-2.561.915-2.195 2.652a5.548 5.548 0 0 1 0 1.738c-.275 1.737.823 2.195 2.195 2.103 2.194 0 1.737-1.829 2.011-2.926Z" fill="url(#w)"/><path d="M127.484 88.751c0 1.372-.183 2.744-.275 4.116 0 .548.275 1.463-.731 1.463s-.732-1.006-.732-1.555c0-1.829.183-3.75.366-5.67 0-.549 0-1.189.823-1.189.549 0 1.006 0 1.28.732.458 1.372 1.098 2.652 1.738 4.207.64-1.555 1.097-2.835 1.646-4.115.183-.55.732-.915 1.28-.824.823 0 .732.64.823 1.098l.458 6.218c0 .55.091 1.007-.641 1.007-.731 0-.731-.458-.731-1.007-.092-1.554-.275-3.109-.457-5.304-.549 1.463-.915 2.378-1.281 3.201-.274.549-.183 1.372-1.097 1.372-.915 0-.915-.732-1.098-1.28-.365-.915-.731-1.738-1.097-2.652l-.274.182Z" fill="url(#x)"/><path d="M177.873 115.729c-1.372 2.103-2.469 3.658-3.475 5.304-.366.549-.732 1.006-1.463.914-.732-.091-.64-1.006-.64-1.555v-5.852c0-.823.365-1.189 1.097-1.189s.549.731.549 1.097v5.213c1.372-2.012 2.378-3.567 3.475-5.121.457-.64 1.006-1.372 1.738-1.189.731.183.365 1.189.457 1.738v5.669c0 .549.091 1.189-.732 1.098-.914-.092-.823-.549-.823-1.189-.183-1.463-.183-2.926-.183-4.938Z" fill="url(#y)"/><path d="M129.221 106.035c1.372-2.103 2.561-3.75 3.567-5.396.457-.64 1.006-1.189 1.737-1.006.732.183.458 1.006.458 1.646v5.67c0 .732 0 1.281-.915 1.281s-.64-.732-.64-1.281v-4.847l-3.475 4.939c-.458.64-.823 1.463-1.738 1.097-.914-.365-.457-1.097-.457-1.737v-5.03c0-.732-.274-1.738.823-1.738s.549 1.098.549 1.646c.183 1.372.091 2.835.091 4.756Z" fill="url(#z)"/><path d="M111.387 112.986c2.287 0 3.11.823 3.201 3.11-.091 1.554 0 3.017.366 4.572.366 1.006-.366 1.555-1.006 1.006-.914-.823-1.372-.183-1.92.092-1.555.731-3.293.091-4.024-1.464-.457-1.554.457-2.926 2.377-3.475.458-.091.915-.183 1.464-.183.64 0 1.28 0 1.28-.914.091-.64-.366-1.28-1.097-1.372h-.183c-.732 0-1.372.092-2.104.183-.457 0-1.097.366-1.189-.366-.091-.731.549-.732 1.006-.823.549-.183 1.189-.274 1.829-.366Zm1.647 5.487c0-.274 0-1.006-1.006-.914-1.006.091-2.561.549-2.744 2.012-.091.823.64 1.28 1.555 1.28 1.189-.091 2.195-.457 2.195-2.378Z" fill="url(#A)"/><path d="M145.407 117.833h-.64c-.732.275-2.103-.731-2.286.64-.092 1.281 1.097 2.104 2.469 2.378h1.28c.549 0 1.372-1.097 1.738 0 .366 1.097-.915 1.006-1.555 1.189-1.737.64-3.749 0-4.847-1.555-1.097-1.646-1.097-3.658-.091-5.395a3.698 3.698 0 0 1 4.207-1.738c1.737.457 2.926 2.012 2.926 3.841 0 .732-.457.732-1.006.732l-2.195-.092Zm-.914-.914c.731-.549 2.103.64 2.103-.823.092-.915-.549-1.829-1.555-1.921h-.548c-1.189 0-2.104.732-2.012 1.921.091 1.189 1.372.183 1.92.64v.183h.092Z" fill="url(#B)"/><path d="M90.628 91.952c2.103-2.195 2.652-5.03 5.487-6.585v8.23c0 .458-.183.824-.731.732-.55 0-.64-.457-.64-.823.09-1.646-.092-3.383-.275-5.03l-3.018 4.481c-.457.64-.823 1.738-1.829 1.28-1.006-.365-.457-1.37-.549-2.011v-5.03c0-1.097 0-1.097 1.555-1.555v6.31Z" fill="url(#C)"/><path d="M94.743 108.413c-1.829.183-3.475-.823-4.115-2.56-.732-1.646-.457-3.567.64-4.847 1.006-1.28 2.835-1.738 4.298-1.098 1.464.549 2.378 2.012 2.287 3.567.091.914-.549.823-1.098.823H93.19c-1.738-.091-1.555.732-.915 1.738.732 1.188 2.103 1.737 3.475 1.28.549-.183 1.464-1.097 1.738 0s-1.006.823-1.555 1.097h-1.189Zm-.457-5.212c.457-.823 1.92.731 1.92-.915 0-.914-.731-1.738-1.737-1.738h-.183c-1.28 0-2.286.732-2.195 2.012.092 1.281 1.372.275 2.195.641Z" fill="url(#D)"/><path d="M87.885 117.285c.365 2.194-1.19 4.298-3.384 4.572h-.457c-2.195.092-4.024-1.555-4.207-3.75v-.457c-.274-2.286 1.28-4.298 3.475-4.572h.457c2.195-.092 4.024 1.646 4.116 3.841v.366Zm-1.738.365c0-2.195-.914-3.566-2.378-3.475-2.012.183-2.286 1.738-2.286 3.475 0 1.738.183 3.201 2.286 3.293 1.555-.092 2.47-1.281 2.378-3.293Z" fill="url(#E)"/><path d="M120.533 90.399h-1.281c-.64.183-1.737-.55-1.92.64-.092.823.457 1.646 1.189 2.012a3.316 3.316 0 0 0 3.2 0c.458-.183.824-.366 1.006.183.275.548 0 .823-.548.914-1.555.64-3.384.549-4.847-.183-1.555-1.097-2.286-3.11-1.738-5.03.183-1.463 1.281-2.743 2.835-3.018 1.921-.64 4.024.458 4.573 2.378.091.366.183.732.183 1.098 0 .731-.183 1.006-.915 1.006h-1.92m-.823-1.006c.457-.732 1.92.64 2.012-.915.091-.914-.641-1.737-1.555-1.829h-.366c-1.28 0-2.286.64-2.195 2.012.092 1.28 1.372.366 2.104.915v-.183Z" fill="url(#F)"/><path d="M155.01 103.84v3.475c0 .549-.183.915-.823.915-.64 0-.732-.458-.732-1.006v-.823c.366-1.738-.457-1.921-1.92-1.921-1.464 0-2.378.183-2.104 2.012 0 .549.549 1.738-.731 1.738-1.281 0-.641-1.098-.641-1.738v-5.67c0-.64.183-1.189.915-1.189 1.006 0 .549.823.549 1.189-.183 1.738 0 2.744 2.195 2.561 1.646-.092 2.103-.549 1.829-2.012-.092-.366-.092-.732 0-1.006a.948.948 0 0 1 1.097-.732c.549 0 .457.64.457 1.006v3.475" fill="url(#G)"/><path d="M150.986 117.284v-2.926c0-1.006.183-1.189 1.006-1.189s.549.823.64 1.28c.183 1.006-.731 2.47 1.464 2.378 1.737 0 2.835-.183 2.469-2.286-.092-.549-.183-1.28.731-1.372 1.006-.091.732.732.732 1.28v6.036c0 .549 0 1.189-.823 1.189s-.732-.64-.823-1.189c-.092-1.189.732-2.835-1.738-2.652-1.737 0-2.286.549-2.103 2.195 0 .64.366 1.555-.732 1.646-1.371 0-.823-1.006-.823-1.738.092-.914.092-1.829 0-2.652Z" fill="url(#H)"/><path d="M87.702 103.931v3.11c0 .457 0 1.005-.64 1.097-.64.091-.915-.457-.915-1.097v-5.03c0-.823-.183-1.281-1.189-1.281s-1.463.092-1.463 1.189c.091 1.281-.091 2.652-.366 3.933a3.208 3.208 0 0 1-1.463 2.103c-.549.274-1.28.64-1.737-.091-.458-.732.548-.641.914-.915.64-.549 1.097-1.28 1.006-2.195 0-1.28.183-2.469.183-3.749 0-.915.183-1.28 1.28-1.372 4.39-.091 4.39-.092 4.39 4.298Z" fill="url(#I)"/><path d="M117.332 104.116v-3.11c0-.732.183-1.372.915-1.372s.549.915.457 1.281c-.366 2.103.458 2.652 2.469 2.469 1.189-.092 1.829-.275 1.647-1.738a3.912 3.912 0 0 1 0-1.463c0-.457.457-.64.914-.64s.457.457.457.731v6.859c0 .549 0 1.006-.823.915-.823-.092-.64-.458-.64-.915v-.457c-.183-.732.457-1.92-.457-2.195a8.872 8.872 0 0 0-3.109 0c-1.006.092-.366 1.006-.549 1.555-.183.549.549 2.012-.64 2.012-1.281 0-.549-1.372-.732-2.103.091-.641.091-1.281.091-1.829Z" fill="url(#J)"/><path d="M173.757 102.835c.732-.915 1.372-1.738 2.012-2.561.457-.548 1.006-.731 1.463-.274.458.457-.091.823-.365 1.189-2.104 2.743-2.104 2.744 0 5.396.274.365 1.28.823.548 1.463-.731.64-1.28 0-1.737-.64a30.242 30.242 0 0 0-2.012-2.47l-2.286 2.836c-.366.457-.915.731-1.464.274-.548-.458.183-.823.366-1.189.183-.366.183-.183.275-.366 2.286-2.561 2.286-2.56.182-5.395-.274-.366-1.006-.641-.365-1.19.365-.365 1.006-.274 1.371.092 0 .092.092.092.092.183.64.915 1.28 1.829 1.92 2.652Z" fill="url(#K)"/><path d="M137.543 90.031v-3.475c0-.64.457-.823.914-.914.824-.092.732.548.641 1.006-.275 1.737.183 2.652 2.194 2.56 1.372-.183 2.561.823 2.744 2.104v.64c-.183 1.646-1.463 2.195-3.018 2.286-3.384.275-3.384.274-3.475-4.207Zm1.646 1.738c0 .823-.183 1.738 1.189 1.555 1.006-.092 2.195 0 2.195-1.555s-1.006-1.372-2.104-1.463c-1.097-.092-1.371.457-1.28 1.463Z" fill="url(#L)"/><path d="M104.621 108.322c-1.829.366-3.658-.64-4.298-2.378-.732-1.92-.183-4.115 1.28-5.487 1.372-1.097 3.201-1.188 4.664-.457.366.183.823.457.549.915-.183.548-.732.365-1.189.182-1.098-.731-2.561-.457-3.292.549a4.338 4.338 0 0 0-.183 4.573c.731 1.28 2.012 1.28 3.292.823.457-.183 1.097-.732 1.372.091.274.823-.549.823-1.006 1.006-.366.092-.732.183-1.189.183Z" fill="url(#M)"/><path d="M144.584 103.841v3.109c0 .549 0 1.189-.823 1.189s-.914-.64-.823-1.189c.274-1.737-.183-2.195-2.012-1.92a3.323 3.323 0 0 1-3.475-3.018c-.091-.732.091-1.372.457-2.012.183-.274.458-.457.823-.549.549 0 .458.366.458.732v2.286c.091 1.28 1.006 1.463 2.103 1.463 1.097 0 1.555-.366 1.646-1.737 0-1.006-.732-2.744.823-2.652 1.555.091.366 1.737.64 2.652.183.548.183 1.097.183 1.646Z" fill="url(#N)"/><path d="M102.974 94.514c-1.646.183-3.2-.823-3.566-2.47-.732-1.92-.183-4.114 1.28-5.578 1.372-1.006 3.201-1.189 4.664-.366.366.183.823.366.549.915-.275.549-.549.457-1.006.274-1.006-.823-2.561-.731-3.475.366-1.006 1.28-1.189 3.11-.366 4.573.548 1.097 1.829 1.646 3.018 1.097.548-.183 1.463-1.097 1.737 0 .275 1.097-.914.915-1.554 1.097a3.027 3.027 0 0 1-1.281 0" fill="url(#O)"/><path d="M158.394 103.932v-3.11c0-.64.183-1.188.823-1.28 1.006-.091.64.732.64 1.189-.183 1.555.091 2.378 2.012 2.378 1.555 0 3.109.731 2.926 2.743-.183 2.012-1.554 2.287-3.2 2.287h-1.281c-1.554.274-2.195-.366-1.92-1.921a9.605 9.605 0 0 0 0-2.286Zm2.743 3.109c1.189 0 2.287-.183 2.195-1.463-.091-1.28-1.097-1.463-2.103-1.463-1.372-.092-1.281.64-1.372 1.737-.091 1.006.366 1.372 1.28 1.189Z" fill="url(#P)"/><path d="M84.135 86.007c.366 0 .823.091 1.189.183.549.183 1.646.183 1.28 1.189-.365 1.005-1.097.09-1.554-.092-1.006-.549-2.195-.274-2.835.64-1.006 1.28-1.098 3.11-.366 4.573.457 1.006 1.646 1.463 2.652 1.097.366-.091.823-.183 1.189-.366.366-.091.731-.091.914.275.183.365-.183.731-.548.914-1.555.823-3.476.64-4.939-.457-1.463-1.372-1.829-3.566-.914-5.396.548-1.737 2.194-2.835 3.932-2.56Z" fill="url(#Q)"/><path d="M111.845 99.816h2.743c.275 0 .732-.182.824.366.091.275-.092.549-.366.64h-.275c-2.652-.457-2.194 1.372-2.194 2.927.091.914.091 1.829 0 2.743 0 .64.548 1.738-.824 1.738-1.371 0-.731-1.189-.731-1.829a23.084 23.084 0 0 1 0-3.567c0-1.28 0-2.194-1.738-1.92-.366 0-.914.183-1.006-.457-.091-.64.64-.55 1.098-.55.823-.09 1.646-.09 2.469-.09Z" fill="url(#R)"/><path d="M114.497 86.008c0 .823-.366 1.006-.64 1.006-2.378-.458-2.286 1.097-2.195 2.652v3.75c0 .548-.091 1.005-.823 1.005s-.823-.457-.823-1.006v-4.39c0-1.463-.091-2.377-1.829-2.103-.366 0-.915 0-.915-.457s.549-.457.915-.457h6.31Z" fill="url(#S)"/><path d="M93.555 113.261c.64.366 2.286-.64 2.286.457s-1.555.64-2.378.731c-.823 0-1.189.366-1.189 1.189v4.847c0 .641 0 1.372-.914 1.281-.915-.092-.732-.732-.732-1.281v-4.389c0-3.293-.366-2.835 2.927-2.835Z" fill="url(#T)"/><path d="M146.779 90.03v3.293c0 .457.092 1.006-.64 1.006-.731 0-.914-.366-.914-1.006v-6.401c-.092-.55.365-1.098.914-1.098h.274c.732 0 .366.732.458 1.189-.092.914-.092 2.012-.092 3.018Z" fill="url(#U)"/><path d="M167.448 103.84v3.383c0 .549-.183 1.006-.823 1.006-.641 0-.641-.548-.641-1.006v-6.31c0-.731.275-1.28 1.006-1.28.732 0 .458.914.458 1.372v2.835Z" fill="url(#V)"/><path d="M175.861 112.347c-.732 0-1.372-.274-1.921-.731-.366-.366-1.189-.915-.457-1.464.731-.64.823 0 1.189.549.365.64 1.097.823 1.737.549.183-.092.366-.275.549-.549.366-.549.732-1.006 1.28-.549.549.458 0 1.098-.457 1.464-.549.457-1.28.731-1.92.731Z" fill="url(#W)"/></g><defs><linearGradient id="z" x1="-4.474" y1="103.885" x2="179.123" y2="103.885" gradientUnits="userSpaceOnUse"><stop stop-color="#1C8AE2"/><stop offset=".486" stop-color="#8B00B3"/><stop offset="1" stop-color="#6900B5"/></linearGradient><linearGradient id="b" x1="-4.474" y1="141.172" x2="179.123" y2="141.172" gradientUnits="userSpaceOnUse"><stop stop-color="#1C8AE2"/><stop offset=".486" stop-color="#8B00B3"/><stop offset="1" stop-color="#6900B5"/></linearGradient><linearGradient id="d" x1="-4.474" y1="119.249" x2="179.123" y2="119.249" gradientUnits="userSpaceOnUse"><stop stop-color="#1C8AE2"/><stop offset=".486" stop-color="#8B00B3"/><stop offset="1" stop-color="#6900B5"/></linearGradient><linearGradient id="e" x1="-4.474" y1="108.587" x2="179.123" y2="108.587" gradientUnits="userSpaceOnUse"><stop stop-color="#1C8AE2"/><stop offset=".486" stop-color="#8B00B3"/><stop offset="1" stop-color="#6900B5"/></linearGradient><linearGradient id="f" x1="-4.474" y1="33.449" x2="179.123" y2="33.449" gradientUnits="userSpaceOnUse"><stop stop-color="#1C8AE2"/><stop offset=".486" stop-color="#8B00B3"/><stop offset="1" stop-color="#6900B5"/></linearGradient><linearGradient id="g" x1="-4.474" y1="22.686" x2="179.123" y2="22.686" gradientUnits="userSpaceOnUse"><stop stop-color="#1C8AE2"/><stop offset=".486" stop-color="#8B00B3"/><stop offset="1" stop-color="#6900B5"/></linearGradient><linearGradient id="h" x1="-4.474" y1="12.352" x2="179.123" y2="12.352" gradientUnits="userSpaceOnUse"><stop stop-color="#1C8AE2"/><stop offset=".486" stop-color="#8B00B3"/><stop offset="1" stop-color="#6900B5"/></linearGradient><linearGradient id="i" x1="-4.474" y1="87.765" x2="179.123" y2="87.765" gradientUnits="userSpaceOnUse"><stop stop-color="#1C8AE2"/><stop offset=".486" stop-color="#8B00B3"/><stop offset="1" stop-color="#6900B5"/></linearGradient><linearGradient id="j" x1="-4.474" y1="98.425" x2="179.123" y2="98.425" gradientUnits="userSpaceOnUse"><stop stop-color="#1C8AE2"/><stop offset=".486" stop-color="#8B00B3"/><stop offset="1" stop-color="#6900B5"/></linearGradient><linearGradient id="k" x1="-4.474" y1="106.162" x2="179.123" y2="106.162" gradientUnits="userSpaceOnUse"><stop stop-color="#1C8AE2"/><stop offset=".486" stop-color="#8B00B3"/><stop offset="1" stop-color="#6900B5"/></linearGradient><linearGradient id="l" x1="-4.475" y1="26.603" x2="179.122" y2="26.603" gradientUnits="userSpaceOnUse"><stop stop-color="#1C8AE2"/><stop offset=".486" stop-color="#8B00B3"/><stop offset="1" stop-color="#6900B5"/></linearGradient><linearGradient id="m" x1="-4.474" y1="30.085" x2="179.123" y2="30.085" gradientUnits="userSpaceOnUse"><stop stop-color="#1C8AE2"/><stop offset=".486" stop-color="#8B00B3"/><stop offset="1" stop-color="#6900B5"/></linearGradient><linearGradient id="n" x1="-4.474" y1="26.493" x2="179.123" y2="26.493" gradientUnits="userSpaceOnUse"><stop stop-color="#1C8AE2"/><stop offset=".486" stop-color="#8B00B3"/><stop offset="1" stop-color="#6900B5"/></linearGradient><linearGradient id="o" x1="-4.474" y1="60.487" x2="179.123" y2="60.487" gradientUnits="userSpaceOnUse"><stop stop-color="#1C8AE2"/><stop offset=".486" stop-color="#8B00B3"/><stop offset="1" stop-color="#6900B5"/></linearGradient><linearGradient id="p" x1="-4.474" y1="60.562" x2="179.123" y2="60.562" gradientUnits="userSpaceOnUse"><stop stop-color="#1C8AE2"/><stop offset=".486" stop-color="#8B00B3"/><stop offset="1" stop-color="#6900B5"/></linearGradient><linearGradient id="q" x1="-4.474" y1="60.629" x2="179.123" y2="60.629" gradientUnits="userSpaceOnUse"><stop stop-color="#1C8AE2"/><stop offset=".486" stop-color="#8B00B3"/><stop offset="1" stop-color="#6900B5"/></linearGradient><linearGradient id="r" x1="-4.475" y1="60.585" x2="179.122" y2="60.585" gradientUnits="userSpaceOnUse"><stop stop-color="#1C8AE2"/><stop offset=".486" stop-color="#8B00B3"/><stop offset="1" stop-color="#6900B5"/></linearGradient><linearGradient id="s" x1="-4.475" y1="60.575" x2="179.122" y2="60.575" gradientUnits="userSpaceOnUse"><stop stop-color="#1C8AE2"/><stop offset=".486" stop-color="#8B00B3"/><stop offset="1" stop-color="#6900B5"/></linearGradient><linearGradient id="t" x1="-4.475" y1="117.486" x2="179.122" y2="117.486" gradientUnits="userSpaceOnUse"><stop stop-color="#1C8AE2"/><stop offset=".486" stop-color="#8B00B3"/><stop offset="1" stop-color="#6900B5"/></linearGradient><linearGradient id="u" x1="-4.474" y1="118.755" x2="179.123" y2="118.755" gradientUnits="userSpaceOnUse"><stop stop-color="#1C8AE2"/><stop offset=".486" stop-color="#8B00B3"/><stop offset="1" stop-color="#6900B5"/></linearGradient><linearGradient id="v" x1="-4.474" y1="117.543" x2="179.123" y2="117.543" gradientUnits="userSpaceOnUse"><stop stop-color="#1C8AE2"/><stop offset=".486" stop-color="#8B00B3"/><stop offset="1" stop-color="#6900B5"/></linearGradient><linearGradient id="w" x1="-4.475" y1="119.226" x2="179.122" y2="119.226" gradientUnits="userSpaceOnUse"><stop stop-color="#1C8AE2"/><stop offset=".486" stop-color="#8B00B3"/><stop offset="1" stop-color="#6900B5"/></linearGradient><linearGradient id="x" x1="-4.474" y1="90.179" x2="179.123" y2="90.179" gradientUnits="userSpaceOnUse"><stop stop-color="#1C8AE2"/><stop offset=".486" stop-color="#8B00B3"/><stop offset="1" stop-color="#6900B5"/></linearGradient><linearGradient id="y" x1="-4.474" y1="117.621" x2="179.123" y2="117.621" gradientUnits="userSpaceOnUse"><stop stop-color="#1C8AE2"/><stop offset=".486" stop-color="#8B00B3"/><stop offset="1" stop-color="#6900B5"/></linearGradient><linearGradient id="c" x1="-4.474" y1="130.047" x2="179.123" y2="130.047" gradientUnits="userSpaceOnUse"><stop stop-color="#1C8AE2"/><stop offset=".486" stop-color="#8B00B3"/><stop offset="1" stop-color="#6900B5"/></linearGradient><linearGradient id="A" x1="-4.474" y1="117.52" x2="179.123" y2="117.52" gradientUnits="userSpaceOnUse"><stop stop-color="#1C8AE2"/><stop offset=".486" stop-color="#8B00B3"/><stop offset="1" stop-color="#6900B5"/></linearGradient><linearGradient id="B" x1="-4.474" y1="117.665" x2="179.122" y2="117.665" gradientUnits="userSpaceOnUse"><stop stop-color="#1C8AE2"/><stop offset=".486" stop-color="#8B00B3"/><stop offset="1" stop-color="#6900B5"/></linearGradient><linearGradient id="C" x1="-4.474" y1="89.894" x2="179.123" y2="89.894" gradientUnits="userSpaceOnUse"><stop stop-color="#1C8AE2"/><stop offset=".486" stop-color="#8B00B3"/><stop offset="1" stop-color="#6900B5"/></linearGradient><linearGradient id="D" x1="-4.474" y1="103.962" x2="179.123" y2="103.962" gradientUnits="userSpaceOnUse"><stop stop-color="#1C8AE2"/><stop offset=".486" stop-color="#8B00B3"/><stop offset="1" stop-color="#6900B5"/></linearGradient><linearGradient id="E" x1="-4.474" y1="117.508" x2="179.123" y2="117.508" gradientUnits="userSpaceOnUse"><stop stop-color="#1C8AE2"/><stop offset=".486" stop-color="#8B00B3"/><stop offset="1" stop-color="#6900B5"/></linearGradient><linearGradient id="F" x1="-4.474" y1="90.089" x2="179.123" y2="90.089" gradientUnits="userSpaceOnUse"><stop stop-color="#1C8AE2"/><stop offset=".486" stop-color="#8B00B3"/><stop offset="1" stop-color="#6900B5"/></linearGradient><linearGradient id="G" x1="-4.474" y1="103.905" x2="179.123" y2="103.905" gradientUnits="userSpaceOnUse"><stop stop-color="#1C8AE2"/><stop offset=".486" stop-color="#8B00B3"/><stop offset="1" stop-color="#6900B5"/></linearGradient><linearGradient id="H" x1="-4.474" y1="117.446" x2="179.123" y2="117.446" gradientUnits="userSpaceOnUse"><stop stop-color="#1C8AE2"/><stop offset=".486" stop-color="#8B00B3"/><stop offset="1" stop-color="#6900B5"/></linearGradient><linearGradient id="I" x1="-4.474" y1="104.054" x2="179.123" y2="104.054" gradientUnits="userSpaceOnUse"><stop stop-color="#1C8AE2"/><stop offset=".486" stop-color="#8B00B3"/><stop offset="1" stop-color="#6900B5"/></linearGradient><linearGradient id="J" x1="-4.474" y1="103.822" x2="179.123" y2="103.822" gradientUnits="userSpaceOnUse"><stop stop-color="#1C8AE2"/><stop offset=".486" stop-color="#8B00B3"/><stop offset="1" stop-color="#6900B5"/></linearGradient><linearGradient id="K" x1="-4.474" y1="104.009" x2="179.123" y2="104.009" gradientUnits="userSpaceOnUse"><stop stop-color="#1C8AE2"/><stop offset=".486" stop-color="#8B00B3"/><stop offset="1" stop-color="#6900B5"/></linearGradient><linearGradient id="L" x1="-4.474" y1="90.05" x2="179.123" y2="90.05" gradientUnits="userSpaceOnUse"><stop stop-color="#1C8AE2"/><stop offset=".486" stop-color="#8B00B3"/><stop offset="1" stop-color="#6900B5"/></linearGradient><linearGradient id="M" x1="-4.474" y1="103.947" x2="179.123" y2="103.947" gradientUnits="userSpaceOnUse"><stop stop-color="#1C8AE2"/><stop offset=".486" stop-color="#8B00B3"/><stop offset="1" stop-color="#6900B5"/></linearGradient><linearGradient id="N" x1="-4.474" y1="103.868" x2="179.122" y2="103.868" gradientUnits="userSpaceOnUse"><stop stop-color="#1C8AE2"/><stop offset=".486" stop-color="#8B00B3"/><stop offset="1" stop-color="#6900B5"/></linearGradient><linearGradient id="O" x1="-4.474" y1="90.113" x2="179.123" y2="90.113" gradientUnits="userSpaceOnUse"><stop stop-color="#1C8AE2"/><stop offset=".486" stop-color="#8B00B3"/><stop offset="1" stop-color="#6900B5"/></linearGradient><linearGradient id="P" x1="-4.474" y1="103.898" x2="179.123" y2="103.898" gradientUnits="userSpaceOnUse"><stop stop-color="#1C8AE2"/><stop offset=".486" stop-color="#8B00B3"/><stop offset="1" stop-color="#6900B5"/></linearGradient><linearGradient id="Q" x1="-4.474" y1="90.425" x2="179.123" y2="90.425" gradientUnits="userSpaceOnUse"><stop stop-color="#1C8AE2"/><stop offset=".486" stop-color="#8B00B3"/><stop offset="1" stop-color="#6900B5"/></linearGradient><linearGradient id="R" x1="-4.474" y1="103.945" x2="179.123" y2="103.945" gradientUnits="userSpaceOnUse"><stop stop-color="#1C8AE2"/><stop offset=".486" stop-color="#8B00B3"/><stop offset="1" stop-color="#6900B5"/></linearGradient><linearGradient id="S" x1="-4.474" y1="90.169" x2="179.123" y2="90.169" gradientUnits="userSpaceOnUse"><stop stop-color="#1C8AE2"/><stop offset=".486" stop-color="#8B00B3"/><stop offset="1" stop-color="#6900B5"/></linearGradient><linearGradient id="T" x1="-4.474" y1="117.451" x2="179.123" y2="117.451" gradientUnits="userSpaceOnUse"><stop stop-color="#1C8AE2"/><stop offset=".486" stop-color="#8B00B3"/><stop offset="1" stop-color="#6900B5"/></linearGradient><linearGradient id="U" x1="-4.473" y1="90.069" x2="179.122" y2="90.069" gradientUnits="userSpaceOnUse"><stop stop-color="#1C8AE2"/><stop offset=".486" stop-color="#8B00B3"/><stop offset="1" stop-color="#6900B5"/></linearGradient><linearGradient id="V" x1="-4.473" y1="103.858" x2="179.123" y2="103.858" gradientUnits="userSpaceOnUse"><stop stop-color="#1C8AE2"/><stop offset=".486" stop-color="#8B00B3"/><stop offset="1" stop-color="#6900B5"/></linearGradient><linearGradient id="W" x1="-4.475" y1="111.126" x2="179.122" y2="111.126" gradientUnits="userSpaceOnUse"><stop stop-color="#1C8AE2"/><stop offset=".486" stop-color="#8B00B3"/><stop offset="1" stop-color="#6900B5"/></linearGradient><clipPath id="a"><path fill="#fff" d="M0 0h184v155H0z"/></clipPath></defs></svg>