<svg xmlns="http://www.w3.org/2000/svg" width="199" height="155" fill="none"><g clip-path="url(#a)"><path fill="url(#b)" d="M174.5 76.3v2.8l-1.7-2.8h-1.4v4.6h1.3v-2.7l1.7 2.7h1.3v-4.6h-1.2Zm14.2 0H186v4.6h2.7v-1.1h-1.5v-.7h1.3v-1h-1.3v-.7h1.5v-1.1Z"/><path fill="url(#c)" d="m188.5 100.6.3-.5.3-.5.3-.5.3-.5.6-1.1.6-1.1.3-.6.3-.5.5-1.1.5-1.1.5-1.1.4-1.2.1-.3.1-.3.2-.6.2-.6.2-.6.2-.6v-.3l.1-.3.1-.3v-.1l.1-.1.1-.6.3-1.2.1-.6.1-.3.1-.3.1-.6.1-.6h-82.8l-.1.1-.5.6-.3.3-.1.2-.1.2-.5.6-.6.6-.4.3-.2.2-.1.1-.1.1-.8.7-.8.6-.4.3-.4.3-.4.3-.4.3-.8.5-.9.4-.2.1-.2.1-.4.2.2.7.3.7.3.7.3.7.3.7.6 1.4.4.7.7 1.4.4.7.4.7.4.7.4.7.4.7.5.7 78.8-.2Z"/><path fill="url(#d)" d="M74.9 70.5v-1.3l.1-1 .1-1 .2-1 .2-1 .3-.9.3-.9.4-.9.4-.9.5-.9.5-.9.6-.8.6-.8.6-.8.7-.8 1.4-1.4.7-.6.7-.6.8-.5.8-.5.8-.5.8-.4.8-.4.8-.4.9-.3.9-.3.9-.2.9-.2.9-.2.9-.1 1-.1h.3l.6-.1h1.8l.8.1-.1-.1-.1-.1-.2-.1-.2-.1-.2-.1-.3-.1h-.2l-.2-.1h-.2l-.6-.2-.6-.2-.6-.2-.6-.1-1.1-.2-1.1-.1-.3-.1h-.5l-.6-.1h-4.1l-1.5.1-1.4.2-.7.1-.7.1-.7.2-.7.2-1.4.4-.7.3-.7.3-1.3.6-1.2.5-1.1.5-1.1.6-2.2 1.3-1 .8-1 .8-1 .9-1 .9-.9.9-.9.9-.8 1-.8 1-.7 1-.6 1-.6 1.1-.4.8-.4.8-.3.8-.6 1.6-.2.8-.2.8-.2.9v.2l-.2 1.2-.1.6-.1.6-.1 1.3v2.5l.1 1.2.1 1.2.1.6.1.6v1l.1.2v.2l.2.7.2.8.2.7.3.7.3.7.3.7.1.3.2.3.4.7.2.3.2.3.9 1.3.5.7.5.6.5.6.5.6.5.6 1.2 1.2.6.6.3.3.3.3 1 .8 1 .8 1 .8 1.1.7 1.1.7 1.1.6 1.1.6 1.2.499h33.7l-.5-.7-.9-1.3-.4-.7-.4-.7-.4-.7-.7-1.4-.4-.7-.6-1.4-.3-.7-.3-.7-.5-1.5-.2-.7-1 .4-.5.2-.5.2-.5.1-.5.1-.5.1-.5.1h-.2l-1.3.2-.5.1-1.1.1h-2.6l-1-.1-.9-.1-.9-.2-.9-.2-.9-.2-.9-.3-.8-.3-.8-.3-.8-.4-.8-.4-.8-.5-.8-.5-.8-.6-.7-.6-.7-.6-1.4-1.4-1-1.2-.6-.8-.6-.8-.3-.4-.5-.9-.2-.4-.2-.4-.2-.5-.2-.4-.2-.5-.2-.5-.2-.5-.1-.5-.3-1-.2-1-.2-1-.1-.5-.1-.5v-.5l-.1-1V70l-.2.5Zm10.9-25.6-.9-.2-.9-.1-.9-.1-.9-.1-1.2-.1-1.2-.1h-4l-1.3.1-1.3.1-1.3.2-1.3.2-1.3.2-1.2.3-1.2.3-1.2.3v6.2l1.1-.7 1.1-.6 1.1-.6 1.2-.5 1.2-.5 1.2-.4 1.2-.4 1.3-.3 1.3-.3 1.3-.3 1.3-.2 1.3-.2 1.3-.2 1.4-.1 1.4-.1h4.4l1 .1.6.1.6.1.6.1.6.1-.5-.3-.5-.2-.4-.2-.2-.1-.2-.1-.4-.2-.9-.3-.5-.1-.3-.1-.3-.1-.3-.1-.3-.1-.4-.1-.4-.1-.4-.1-.4-.1Z"/><path fill="url(#e)" d="M65.6 52v-6.2l-1 .3-1 .3-1 .3-.9.4-1 .4-1.9.8-.9.5-.9.5-.9.5-.9.5-.9.5-1.7 1.1-.8.6-.8.6-1.1.8-1 .8-.9.9-.9.9-.8.8-.7.8-.7.8-.6.8-.6.8-.6.8-.5.8-.5.9-.5.8-.8 1.7-.3.9-.3.9-.3.9-.2.9-.2.9v.2l-.2 1.4-.1.7-.1.7-.1.9v1.7l.1 1.6.1.8.1.8.1.8.1.8.2.8.2.7.2.7.2.7.3.7.3.7.3.7.3.7.4.7.4.7.8 1.3.4.7.5.6.5.7.5.6.5.6.5.6.6.6.6.6.6.6.6.6.7.6.7.6.7.6.5.4.6.4.6.4.6.4.6.4 1.3.8.7.4h10.2v-1.9l-1.1-.7-1.1-.8-1-.8-1-.8-.6-.5-1.2-1.1-.5-.5-.5-.6-.5-.5-.5-.6-.4-.6-.5-.6-.4-.6-.4-.6-.4-.6-.4-.6-.3-.6-.3-.6-.3-.6-.3-.7-.3-.6-.3-.7-.2-.6-.2-.7-.2-.7-.2-.7-.1-.7-.1-.7-.1-.7-.1-.7-.1-.7-.1-.7v-3.4l.1-1.2.1-1.2.2-1.1v-.2l.2-1.1.3-1.1.3-1.1.4-1 .4-1 .5-1 .5-1 .6-.9.6-1 .7-.9.7-.9.8-.9.8-.9.9-.9.9-.9 1.9-1.6.9-.7 1-.7.9-.2Zm.5-10.3h-2.4l-2.3.1-1.2.1-1.1.1-1.1.1-1.1.1-1.1.1-1.1.2-2.2.4-1.1.2-2.1.5-1 .3v6l1.3-.8.7-.4.7-.3 1.3-.7 1.4-.6 1.4-.6 1.5-.5 1.4-.5 1.5-.5 1.5-.4 1.5-.4 1.5-.3 3.2-.5 1.6-.2 1.6-.2 1.7-.1 1.8-.1h3.2l-1.2-.2-1.2-.2-1.2-.1-1.2-.1-1.5-.1-1.5-.1h-1.6l-1.6-.3ZM45 52.1l.8-.6.8-.6.8-.6.9-.5v-5.9l-1.7.5-1.7.5-1.6.6-1.6.6-1 .5-1.9 1-.9.5-.9.5-.9.6-.9.6-.9.6-.6.4-1.6 1.2-1.3 1-1.2 1-1.1 1-1 1.1-1 1.1-.9 1.1-.9 1.1-.8 1.1-.7 1.1-.7 1.2-.6 1.2-.5 1.2-.5 1.2-.4 1.3-.3 1.3-.3 1.3v.2l-.2 1.1-.1 1.2-.1 1.2v2l.1 1.5.1.8.1.7.1.8.3 1.5.2.7.2.7.2.7.3.7.2.7.3.7.3.7.3.7.3.7.3.7.4.7.4.7.4.6.4.7.5.6.5.6.5.6.5.6.5.6.6.6.6.6.6.6.6.6.6.6.9.8 1 .8 1 .8 1.1.8.4.3.4.2h13.1v-.2l-.1-.1-.9-.5-.8-.5-.7-.5-.6-.5-.8-.6-.8-.6-.7-.6-.7-.6-.7-.6-.6-.6-.6-.7-.6-.6-.6-.7-1.1-1.3-.5-.7-.5-.7-.4-.7-.4-.7-.8-1.5-.3-.7-.3-.8-.3-.7-.3-.8-.3-.8-.2-.8-.2-.8-.2-.8-.3-2v-.4l-.1-.8v-3.6l.1-1.2.1-1.2.2-1.1v-.2l.3-1.3.3-1.3.4-1.3.5-1.2.5-1.2.6-1.2.7-1.2.8-1.1.8-1.1.9-1.1.9-1.1 1-1 1.1-1 1.1-1 1.2-1 1.1-1.3ZM56.9 36v3.1L58 39l1.1-.1 2.3-.2 1.1-.1h6.2l1.3.1 2.6.2 2.6.3 1.3.2 1.3.2 1.3.2 1.2.2 1.2.2 2.4.5 1.2.3 1.2.3 1.2.3 1.2.4 2.3.8 1.1.4 1.1.5 1.1.5 1.1.5 1 .5 1 .5 1 .6 1 .6 1 .6 1 .6 1 .6 1 .7.6.4.6.4.6.5.6.5.6.5.7.6.7.6.7.6 1.6 1.6.9 1 .4.5.4.5.4.5.4.5.8 1.1h.3v-.4l-.6-.9-.6-.9-.7-.8-.3-.4-.3-.4-1-1.2-.3-.4-.4-.4-.4-.4-.8-.7-.7-.6-.7-.6-.8-.6-.8-.6-.8-.6-.8-.6-.9-.6-.9-.6-1.1-.7-1.1-.7-1.1-.7-1.1-.6-1.2-.6-1.2-.6-1.2-.6-1.2-.5-1.2-.5-1.2-.5-1.2-.5-1.3-.4-1.3-.4-1.3-.4-1.3-.4-1.3-.4-1.3-.4-1.3-.3-1.3-.3-1.3-.3-1.4-.3-1.4-.2-1.3-.3-1.4-.2-1.4-.2-1.4-.1-1.5-.1-3-.2-1.5-.1h-6.2Z"/><path fill="url(#f)" d="M56.9 39.2v-3.1l-1.4.1-1.4.1-1.4.1-1.3.1-1.4.1-1.3.2-1.3.1-2.6.4-1.3.2-1.3.2-1.3.3-1.3.3-1.3.3-1.2.3-2.4.7-1.2.4-1.2.4-1.2.4-1.2.4-1.1.5-1.2.5-1.1.5-1.1.5-1.1.5-1.1.6-1.1.6-1.1.6-2.1 1.3-1 .7-1.4.9-1.3.9-1.3.9-1.2 1-1.2 1-1.1 1-1 1-1 1-1 1.1-.9 1.1-.9 1.1-.8 1.2-.8 1.2-.7 1.2-.6 1.2-.5 1.3-.5 1.3-.4 1.3-.4 1.3-.3 1.3-.3 1.3-.2 1.3-.1 1.4V77l.1.9v.4l.1.5.1.9.1.9.2.9.2.9.2.8.3.8.3.8.3.8.3.8.4.8.4.8.4.8.4.8.5.8.5.8.5.8.6.8.6.8.6.8.7.8.7.7.7.7.7.7.8.7.8.7.8.7.8.7.9.7h13v-.1l-.1-.1-.8-.5-.7-.5-.7-.6-.7-.5-.7-.6-.6-.6-1.2-1.1-.6-.6-.6-.6-.5-.6-.5-.6-.5-.6-.5-.6-.5-.6-.4-.6-.3-.5-.3-.5-.6-.9-.3-.5-.2-.5-.5-.9-.4-.9-.4-.9-.4-1-.3-1-.3-1-.2-1-.2-1-.2-1-.1-1-.1-1v-3.3l.1-1.2.1-1.2.2-1.2.1-.8.2-.8.2-.7.2-.7.5-1.5.6-1.4.7-1.4.8-1.4.4-.7.4-.7.4-.7.5-.7 1-1.3.5-.6.6-.6.5-.6.6-.6.6-.6 1.3-1.2.7-.6 1.5-1.2 1.5-1.2 2.4-1.7.8-.5 1.6-1 1.6-.9.8-.4.8-.4.8-.4.8-.4 1.7-.8 1.7-.7 1.8-.7.9-.3.9-.3 1.8-.6.9-.3.9-.2 1.9-.5.9-.2 1.9-.4 1-.2 1-.2 1-.1 2.2-.5Z"/><path fill="url(#g)" d="M134.2 76.3h-1.4v4.6h1.3v-2.7l1.7 2.7h1.3v-4.6h-1.3v2.8l-1.6-2.8Zm-11.6 3.3v-1.9l-.1-.2-.1-.2-.1-.2-.1-.2-.3-.3-.2-.1-.2-.1h-.3l-.2-.1h-1.5l-.2.1-.2.1-.2.1-.2.1-.1.1-.2.2-.1.2-.1.2-.1.2-.1.2v1.4l.1.2.1.2.1.2.1.2.2.2.1.1.2.1.2.1.2.1h.2l.3.1h1.2l.3-.1h.3l.2-.1.2-.1.2-.1.2-.2.1-.2.1-.2v-.2.1Zm-2.3-2.3h.3l.3.1h.1l.1.1.1.1.1.2.1.1v1.4l-.2.3-.1.1-.3.1-.3.1-.3-.1-.3-.1-.1-.1-.3.1-.1-.1-.1-.1-.1-.2V78l.1-.1.1-.2h.1l.1-.1h.1l.3-.1.3-.2Zm39.6-1v4.6h1.3v-4.6h-1.3Zm-12.6 0v4.6h2.7v-1.1h-1.4v-3.5h-1.3Z"/><path fill="url(#h)" d="m108.2 57.9-.5-.5-.9-.8-.4-.4-.9-.7-.4-.3-.4-.3-.4-.3-.4-.2-.5-.2-.4-.2-.4-.2-1.3-.4h-.4l-.4-.1-.8-.2-.7-.1h-.7l-.7-.1H95l-.9.1-.9.1-.8.1-.8.2-.8.2-.8.3-.8.3-.8.3-.7.4-.8.4-.7.5-.7.5-.7.5-.7.6-.6.6-.6.7-.6.7-.6.7-.5.7-.5.6-.4.8-.4.8-.3.8-.3.8-.3.8-.2.8-.2.9-.2.8-.1.9v4.5l.2.9.2.8.2.8.3.8.3.8.2.4.2.4.4.8.4.7.5.7.5.7.6.7.3.3.3.3.6.7.6.6.7.6.7.5.7.5.7.5.8.4.8.4.8.4.8.3.8.3.8.2.9.2.9.1.9.1H98l.4-.1h.4l.4-.1.4-.1.4-.1.4-.1.8-.2.8-.3.8-.3.5-.3.2-.1h.2l.4-.2.4-.2.2-.1.6-.3.8-.5.7-.5.2-.1h.2l.4-.3.3-.3.2-.1.2-.1.3-.3.3-.4.2-.2.6-.6.1-.1.3-.3.1-.1.1-.1.2-.2.3-.5.3-.5.6-.9v-.2l.1-.2.3-.5.2-.5.2-.5.1-.3v-.3l.2-.5.2-.5.2-.5V75l.2-.3-.1-.2-.1-.1-.1-.1h-.2l-.2-.1h-.4l-.2.1-.2.1-.1.1-.1.2v.2l-.1.5v.5l-.3.2v.2l-.2.5-.6 1.3-.2.4-.4.6-.1.2-.3.4-.4.4-.3.4-.3.4-.3.4-.4.4-.6.5-.3.3-.3.3-.6.5-.2.1-.2.1-.3.2-.3.2-.3.2-.7.4-.3.2-.3.2-.7.3-.7.3-.7.2-.7.2-.4.1h-1.1l-.8.1h-3.2l-.8-.1-.8-.1-.8-.2-.7-.2h-.8l-.7-.3-.7-.3-.6-.3-1.3-.8-.6-.5-.6-.5-.6-.5-.6-.5-.6-.6-.3-.3-.2-.3-.8-1-.2-.3-.2-.3-.2-.3-.4-.7-.3-.7-.3-.7-.3-.7-.1-.4-.1-.3-.2-.7-.2-.7-.1-.8-.1-.8v-4l.1-.8.1-.8.2-.7.2-.7.3-.7.3-.7.3-.7.4-.7.4-.6.5-.6.5-.6.5-.6.6-.6.6-.6.6-.5.6-.5.7-.4.6-.4.7-.4.7-.3.7-.3.7-.3.7-.2.7-.2.8-.2.8-.1.8-.1.8-.1h2.4l.6.1.6.1.7.1.7.1.8.2.4.1.4.1.7.3.7.4.4.2.4.3.7.5.7.6.7.7.8.8.5.5.5.6.4.6.3.6.3.6.3.6.2.6.2.7.1.7.1.7v2.2l-.1.7-.1.7-.2.8-.1.3v.2l-.3.4-.1.3-.3.5v.1l-.2.4-.1.1v.1l-.2.3-.1.1v.1l-.2.2-.2.2-.2.2h-.1l-.1.1-.2.2-.7.6-.2.2-.2.2-.5.3-.3.2-.3.2-.6.3-.6.3-.3.1-.3.1-.3.1-.3.1-.6.1-.6.1h-.4l-.1-.1-.1-.1-.1-.1v-1.2l.2-.7.1-.4.1-.4.2-.5 3.5-11.4H94.1l-.4.1h-.4l-.3.1-.3.1-.3.1-.3.1-.5.3-.2.2-.2.2-.2.2-.3.4-.3.4-.2.5-.2.5-.1.3v2.4l.1.3v.3l.2.3.2.3.1.1.1.1.2.2.1.1.1.1.3.2.1.1.2.1.3.1h.4l.4.1.4.1-.5.2-.4.2-.4.2-.3.2-.1.1-.2.1-.9.9-.3.3-.3.3-1.3 1.6-.2.2-.2.3-.2.2-.2.2-.2.2-.2.2-.3.4-.3.3-.3.3-.3.2-.1.1-.1.1-.2.1h-.1l-.1.1h-.3l-.1.5h-1.1l-.2.7h6.5l5.6-7.1.2-.4.1-.1.1-.1.2-.1.2-.1.2-.1h.6l-.7 2.7-.1.4-.1.4-.1.3V77l.1.2v.1l.1.1.3.4.4.4.3.2.1.1.1.1.3.1.2.1h.2l.4.1h2.3l.5-.1.5-.1.9-.2 1.2-.4.2-.1h.2l.4-.2h.2l.2-.1.3-.2.4-.2.7-.4.3-.2h.1l.2-.1.3-.2.1-.1v-.1h.1l.3-.2.3-.2.1-.1v-.1l.3-.3.2-.3.2-.3.2-.3v-.2l.1-.1.2-.3.2-.3v-.2l.1-.2.2-.3v-.2l.1-.2.2-.3.1-.4.4-1.1.2-.9.1-.4.1-.4.1-.9v-2.7l.4-.8-.1-.8-.2-.8-.3-.8-.3-.8-.4-.7-.4-.7-.7-1-.2-.3-1.3-.7Zm-11.1 5.4h2.2l-2 6.2h-2.2l-.2-.1-.2-.1-.2-.1-.2-.1-.1-.1-.1-.4-.1-.2-.1-.2v-1.5l.1-.4.3-.8.2-.4.2-.3.3-.3.2-.3.3-.2.3-.2.3-.2.3-.1.3-.1.3-.1h.1Zm65.6-.3v.5l-.1.6-2.5 7.8-.2.5-.1.2-.1.2-.1.2-.1.2-.1.1-.1.1-.1.1-.3.1-.2.1-.2.1h-.9l-.1.3h11.3l1.4-3.4h-.4l-.6.6-.2.1-.1.1-.3.3-.1.1h-.1l-.2.1h-.1l-.2.1-.4.2-.4.2-.4.1-.2.1-.2.1-.2.1-.2.1-.4.1-.4.1h-1.9l-.3-.1-.1-.1h-.1l-.1-.1-.1-.1v-.6l.1-.2.1-.2 1.3-4.1h2.1l.2.1.2.1.2.1.2.2.1.1.1.1v1.2h.3l1.5-4.7h-.4l-.1.1-.1.1-.1.1-.1.1-.2.2-.1.1-.1.1-.1.1-.1.1-.1.1v.1l-.2.1-.2.1h-.1l-.1.1h-.2l-.1.1-.3.1-.3.1h-2.1l1.5-4.7h2.8l.2.1h.2l.3.1.2.1.1.1.1.1.3.2.2.3.1.2v.1l.1.1v.8h.4l.9-3h-10.6l-.1.3h1l.2.1.1.1.1.1v.1l.8 1.1Z"/><path fill="url(#i)" d="m158.5 62.6.1-.1.1-.1.1-.1h.2l.2-.1h.7l.1-.3h-6.6l-.1.3h1l.1.1.1.1.1.1.1.1v.8l-.1.3v.4l-1.1 3.4h-4.8l1.1-3.4.1-.3.1-.2.1-.2.1-.2.1-.2.1-.1.1-.1.1-.1.1-.1.1-.1.1-.1h.2l.2-.1h.6l.1-.3h-6.5l-.1.3h1l.1.1.1.1.1.1.1.1v.7l-.1.3-.1.3-2.5 7.8v.1l-.1.1-.1.3-.1.2-.1.2-.1.2-.1.2-.1.1-.1.1h-.1l-.1.1-.2.1h-1l-.1.3h6.4l.1-.3h-1.1l-.1-.1-.1-.1-.1-.1-.1-.1v-.7l.1-.1.1-.3 1.1-3.6h4.8l-1.1 3.6-.2.5-.1.2-.1.2-.1.2-.1.2-.1.1-.1.1h-.1l-.1.1-.1.1h-1l-.1.3h6.5l.1-.3h-.7l-.2-.1h-.1l-.1-.1h-.1l-.1-.1-.1-.1v-.7l.1-.3.1-.1V72l.1-.2 2.5-7.8.2-.5.2-.4.1-.2.1-.1.3-.2Zm17.8.4v1l-.1.2-.1.3-2.3 7.5-.1.2v.2l-.1.3v.4l-.1.1-.1.1-.1.1H172l-.1.3h8.1l.5-.1h1.2l.3-.1h.1l.4-.2.2-.2.4-.3.2-.2.2-.2.2-.2.1-.2.2-.5.1-.2v-1.1l-.1-.2-.1-.2-.1-.2-.3-.4-.2-.2-.2-.2-.2-.2-.3-.2-.6-.3-.4-.1-.4-.1-.4-.1.8-.2.4-.1.4-.1.3-.1.3-.1h.3l.2-.1.1-.1.2-.1h.1l.1-.1.2-.1.5-.5.2-.3.1-.3v-1.9l-.2-.3-.1-.1-.1-.1-.1-.2-.3-.3-.2-.1-.2-.1-.2-.1-.2-.1h-8l-.1.3h1.3l.1.1.1.1v.3l-.5-.1Zm4.9 2.7-.3.4-.1.2-.1.2-.2.1-.3.2-.2.1-.2.1-.2.1h-1.7l1.5-4.7h1.1l.2.1h.1l.2.1.1.1.1.1.2.2.2.3v1.4l-.1.4-.1.2-.1.2-.1.2Zm-1.8 2.5.2.1h.1l.1.1.2.2.1.1.1.1.1.2.1.3v1.5l-.1.3-.1.3-.1.1-.1.2-.4.6-.3.3-.1.1-.1.1-.3.2h-.2l-.2.1h-2.6l1.7-5.4h1.7l.2.5Zm15.5-6.6h-1l-.5.1-.5.1-.5.2-.5.2-.5.2-.5.4-.3.1-.2.2-.5.3-.5.4-.4.4-.4.4-.4.4-.3.5-.3.5-.3.5-.3.5-.2.5-.2.5-.1.5-.1.5v1.5l.1.5.1.5.2.5.1.2.1.2.1.2.2.2.2.2.2.2.2.2.2.2.5.3.3.1.3.1h3.9l.2-.1h.2l.4-.1.4-.2.5-.3.5-.3.4-.3.5-.4.4-.4.4-.5.3-.7.1-.1v-.1l.2-.3.4-.6.3-.6.3-.6.2-.6.2-.6.1-.6.1-.6v-1.6l-.1-.3-.1-.2-.1-.3-.1-.2-.2-.2-.4-.5-.2-.2-.2-.2-.2-.2-.2-.2-.3-.1-.5-.2-.3-.1-.3-.1-.3-.1h-.9l.1.2Zm-1.6 1 .3-.1.3-.1h1.3l.2.1h.1l.1.1.1.1.1.1.1.1.1.2.1.2.1.2v2.1l-.1.5v.7l-.1.6-.2.6-.2.6-.2.6v.3l-.1.3-.3.6-.3.5-.1.1v.1l-.1.3-.2.2v.1l-.4.5-.2.2-.2.2-.4.4-.2.1-.1.1-.4.2h-.2l-.2.1h-1.6l-.3-.2-.1-.1-.1-.1-.1-.2-.1-.2-.1-.2-.1-.2v-2l.1-.4.1-.4.1-.4.1-.4.1-.5.1-.5.1-.4.3-.8.1-.4.1-.3v-.3l.2-.3.3-.5.3-.5.3-.4.3-.3.1-.2.1-.1.3-.2.3-.2.3-.1.1-.1Zm-65-.6-.9-.2h-.3l-.5-.1h-.9l-.5.1-.5.1-1.1.3-.5.2-.5.2-1.1.5-.5.3-.5.3-.4.4-.4.4-.4.4-.3.4-.3.5-.3.5-.2.5-.2.5-.2.5-.1.5-.1.5-.1.5v1.6l.1.5.1.2.1.2.1.2.1.2.1.2.1.2.3.4.4.4.4.3.2.1.2.1.2.1.2.1.2.1.2.1.5.1.2.1.3.1.6.1h1.4l.4-.1h.5l.3-.1.4-.1.6-.3.3-.2.3-.2.6-.5.3-.3.3-.3.6-.8h-.5l-.5.5-.2.2-.2.2-.3.2-.5.3-.2.1-.5.2-.3.1-.2.1-.3.1h-1.5l-.3-.1-.3-.1-.5-.3-.2-.2-.2-.2-.2-.2-.1-.1-.1-.1-.2-.3-.1-.3-.1-.2v-.1l-.1-.3v-1.6l.1-.4.1-.4.1-.5.1-.4.2-.4.2-.4.2-.5.2-.5.3-.5.3-.4.3-.4.3-.3.3-.3.3-.3.3-.2.3-.2.3-.2.7-.3.3-.1.3-.1h.9l.3.1.3.1.2.1.2.1.2.2.2.2.2.2.1.2.1.2.1.1.1.2.1.4v.2l.1.3v.4h.4l1-3.9h-.3l-.1.1-.1.1-.1.1-.1.1-.3.1h-.8l-.1-.5Z"/><path fill="url(#j)" d="m132.5 61.9-.1.3h1l.1.1.1.1.1.1.1.1v.8l-.1.6-2.5 7.9v.1l-.1.1-.1.3v.1l-.1.1-.1.2-.1.2-.1.2-.1.1-.1.1-.1.1-.1.1-.1.1-.2.1-.2.1h-.8l-.1.3h11.4l1.3-3.4h-.4l-.6.6-.2.1-.2.1-.3.3-.1.1h-.1l-.2.1h-.1l-.2.1-.4.2-.4.2-.4.1-.2.1-.2.1-.2.1-.2.1-.4.1-.4.1h-2.1l-.1-.1h-.1l-.1-.1-.1-.1v-.8l.1-.2 1.3-4.1h2.2l.2.1.2.1.2.1.2.2.1.1.1.1v1.2h.3l1.5-4.7h-.4l-.1.1-.1.1-.1.1-.1.1-.2.2-.1.1-.1.1-.1.1-.1.1-.1.1v.1l-.2.1-.2.1h-.1l-.1.1h-.2l-.1.1-.3.1-.3.1h-2.1l1.5-4.7h2.8l.2.1h.2l.3.1.2.1.1.1.1.1.3.2.2.3v.1l.1.1v.1l.1.1v.8h.3l.9-3h-9.9v.5Z"/></g><defs><linearGradient id="b" x1="-1.545" x2="196.7" y1="78.626" y2="78.626" gradientUnits="userSpaceOnUse"><stop stop-color="#1C8AE2"/><stop offset=".486" stop-color="#8B00B3"/><stop offset="1" stop-color="#6900B5"/></linearGradient><linearGradient id="c" x1="-1.545" x2="196.7" y1="91.522" y2="91.522" gradientUnits="userSpaceOnUse"><stop stop-color="#1C8AE2"/><stop offset=".486" stop-color="#8B00B3"/><stop offset="1" stop-color="#6900B5"/></linearGradient><linearGradient id="d" x1="-1.545" x2="196.7" y1="72.287" y2="72.287" gradientUnits="userSpaceOnUse"><stop stop-color="#1C8AE2"/><stop offset=".486" stop-color="#8B00B3"/><stop offset="1" stop-color="#6900B5"/></linearGradient><linearGradient id="e" x1="-1.545" x2="196.7" y1="68.303" y2="68.303" gradientUnits="userSpaceOnUse"><stop stop-color="#1C8AE2"/><stop offset=".486" stop-color="#8B00B3"/><stop offset="1" stop-color="#6900B5"/></linearGradient><linearGradient id="f" x1="-1.544" x2="196.7" y1="68.329" y2="68.329" gradientUnits="userSpaceOnUse"><stop stop-color="#1C8AE2"/><stop offset=".486" stop-color="#8B00B3"/><stop offset="1" stop-color="#6900B5"/></linearGradient><linearGradient id="g" x1="-1.545" x2="196.7" y1="78.626" y2="78.626" gradientUnits="userSpaceOnUse"><stop stop-color="#1C8AE2"/><stop offset=".486" stop-color="#8B00B3"/><stop offset="1" stop-color="#6900B5"/></linearGradient><linearGradient id="h" x1="-1.545" x2="196.7" y1="70.743" y2="70.743" gradientUnits="userSpaceOnUse"><stop stop-color="#1C8AE2"/><stop offset=".486" stop-color="#8B00B3"/><stop offset="1" stop-color="#6900B5"/></linearGradient><linearGradient id="i" x1="-1.545" x2="196.7" y1="67.994" y2="67.994" gradientUnits="userSpaceOnUse"><stop stop-color="#1C8AE2"/><stop offset=".486" stop-color="#8B00B3"/><stop offset="1" stop-color="#6900B5"/></linearGradient><linearGradient id="j" x1="-1.544" x2="196.7" y1="68.028" y2="68.028" gradientUnits="userSpaceOnUse"><stop stop-color="#1C8AE2"/><stop offset=".486" stop-color="#8B00B3"/><stop offset="1" stop-color="#6900B5"/></linearGradient><clipPath id="a"><path fill="#fff" d="M0 0h199v155H0z"/></clipPath></defs></svg>