<svg width="144" height="120" viewBox="0 0 144 120" fill="none" xmlns="http://www.w3.org/2000/svg">
<path d="M28.3608 62.8926C27.2842 61.8354 24.6251 58.0932 24.9494 57.0555C25.2422 56.0011 25.3497 54.9039 25.2672 53.8127C25.3969 53.9295 27.7771 53.0993 28.1339 52.9761C27.935 52.0169 27.5228 51.1149 26.9277 50.3368C26.3327 49.5587 25.5701 48.9246 24.6965 48.4816C24.7115 47.4554 24.9114 46.4404 25.2867 45.4852C20.0982 42.6121 13.8007 44.6745 11.9393 45.8614C12.1511 45.2191 12.418 44.5963 12.737 44C9.16345 44.0713 6.18655 47.4503 5.8947 48.5399C5.59636 47.8914 5.74553 44.7004 5.71959 44.6486C5.18777 44.3827 3.00212 47.0547 2.84646 47.5865C2.49624 48.7345 2.88538 49.2274 3.18371 50.2327C1.2964 51.2898 -0.26663 53.4041 0.0381933 55.8168C0.573312 55.285 1.1937 54.8466 1.87362 54.5197C1.28992 57.075 1.17318 60.8042 4.46786 63.379C4.9932 63.7876 5.31748 67.2704 5.39531 68.4702C6.02547 68.3792 6.66543 68.3792 7.29559 68.4702C9.38396 68.9242 12.99 74.3073 14.1963 76C15.4934 75.2996 19.6507 73.2955 21.0775 73.3604C21.2915 73.3604 21.8169 73.73 22.2644 73.8014C23.0493 73.7725 23.8253 73.626 24.5668 73.3668C25.9871 72.9907 25.6953 73.2501 25.5591 71.8233C25.5006 70.9032 25.5006 69.9804 25.5591 69.0604C25.5591 68.561 26.1363 68.6453 26.052 68.2238C25.9421 67.8867 25.7872 67.566 25.5915 67.2704C25.8315 67.1731 26.4995 67.1861 26.506 66.985C26.5514 66.2132 26.506 65.4544 26.506 64.6826C26.7654 64.4556 28.2441 63.4244 28.3608 62.8926ZM15.4999 55.1098C15.6945 54.7337 15.8825 54.3381 16.0901 53.9424C16.1614 53.7998 16.5635 52.801 16.6414 52.7296C17.3846 53.4841 18.0575 54.3047 18.6519 55.1812C19.0096 55.2589 19.3759 55.2894 19.7415 55.272C19.8702 54.412 19.8702 53.5377 19.7415 52.6777V52.6777C19.9944 53.1188 20.0722 54.8634 20.1566 55.3174C20.9348 55.4341 22.2709 55.726 22.9519 55.7779C23.2307 54.8699 23.0945 52.9501 23.0232 51.9514C23.5789 52.1985 24.0679 52.5742 24.45 53.0474C24.6025 54.0752 24.6025 55.1198 24.45 56.1475C23.9831 56.18 23.5161 56.1475 23.0556 56.1865C21.8817 56.2773 20.4614 56.4524 19.3329 56.6599C18.6454 56.7896 15.234 57.5614 14.6568 57.5614L14.5206 56.8026C14.553 56.6729 15.3442 55.3758 15.4999 55.0839V55.1098ZM23.2826 57.6328C23.4837 57.6328 23.8404 57.5484 24.0155 57.5355C24.0223 58.4687 23.9812 59.4017 23.8923 60.3308C23.7824 60.54 23.6219 60.7184 23.4253 60.8496C23.2048 60.9923 23.2242 58.0608 23.3086 57.6068L23.2826 57.6328ZM14.3195 75.0401C12.9056 72.9972 10.8497 70.0722 8.70297 68.3729C8.92564 67.4427 9.09668 66.5008 9.21533 65.5517C9.21533 65.2209 7.13994 62.6137 6.62109 60.6875C6.16061 58.891 6.18655 57.5355 7.91821 57.3863C9.64987 57.2371 10.4022 58.0673 11.0832 59.5201H11.9069C11.9069 62.0754 11.7123 62.938 10.8756 65.5711C10.6097 66.2197 11.5242 68.3146 11.7642 68.9047C11.9133 69.2355 11.9587 69.3717 12.0431 69.4366C12.4322 69.7608 18.1784 71.7779 19.5728 72.5497C17.7396 73.1942 15.9789 74.0289 14.3195 75.0401V75.0401ZM23.3475 68.8204C23.25 69.2611 23.1221 69.6945 22.9648 70.1176C22.7767 70.0527 21.3564 69.1901 21.1424 69.0345C22.3857 68.3082 23.7147 67.7396 25.0986 67.3417C25.3247 67.641 25.4879 67.983 25.5785 68.347L23.3475 68.8204ZM26.1168 64.2805C25.5591 64.3908 23.4642 64.5399 22.5433 64.741C21.136 65.244 19.7753 65.869 18.4768 66.6088C17.9644 66.2846 15.8371 63.2752 15.3702 62.6202C15.0394 62.1532 15.1302 62.244 15.0589 61.5047C14.981 60.6421 14.8643 59.773 14.8254 58.9104C16.7386 58.5472 20.2084 58.0413 22.0439 57.7884C21.9336 59.4203 22.0163 61.0595 22.2903 62.6721C22.3552 62.7953 23.0621 62.8083 23.2437 62.6721C23.315 62.6267 24.8197 61.1026 24.8262 61.0896C24.8716 60.9274 24.8262 60.655 24.8586 59.8833C25.2542 60.5318 25.7731 61.4852 26.2271 62.1792C26.5086 62.5988 26.8117 63.0037 27.1351 63.392C26.8514 63.7377 26.5061 64.028 26.1168 64.2481V64.2805Z" fill="black"/>
<path d="M56.9716 47.4365V52.7807H53.878L53.7094 50.5237H50.0061V64.7272L52.1593 65.1422V67.5614H43.7799V65.1422L45.9396 64.7272V50.5431H42.2493L42.0547 52.7807H39V47.4365H56.9716Z" fill="black"/>
<path d="M56.8154 55.0381V52.606H62.6525L62.847 54.3441C63.2542 53.7307 63.7981 53.2201 64.436 52.8525C65.0953 52.4916 65.8379 52.3105 66.5892 52.3271C67.4334 52.2938 68.2721 52.4757 69.0266 52.8558C69.7811 53.2359 70.4265 53.8016 70.9022 54.4998C71.9981 56.195 72.5356 58.1908 72.4393 60.2071V60.499C72.5319 62.3993 71.9913 64.2766 70.9022 65.8366C70.405 66.4956 69.7549 67.0235 69.008 67.375C68.261 67.7264 67.4398 67.8907 66.6152 67.8537C65.8976 67.865 65.1864 67.7166 64.5333 67.4191C63.9151 67.1195 63.3787 66.6744 62.9703 66.122V70.4479L64.916 70.863V73.3016H57.023V70.876L58.9687 70.4609V55.4532L56.8154 55.0381ZM68.4247 60.2266C68.4731 59.0431 68.2327 57.8655 67.7242 56.7957C67.5279 56.3941 67.2195 56.0579 66.8362 55.8277C66.453 55.5975 66.0113 55.4832 65.5645 55.4986C65.0212 55.4811 64.4833 55.6111 64.008 55.8747C63.5754 56.1245 63.224 56.4938 62.9962 56.9384V63.4889C63.2327 63.9022 63.5842 64.2379 64.008 64.4552C64.5018 64.6895 65.0442 64.8028 65.5905 64.786C66.0204 64.8126 66.4493 64.7193 66.8295 64.5167C67.2096 64.314 67.5261 64.0098 67.7437 63.638C68.2318 62.6784 68.4557 61.6062 68.3922 60.5314L68.4247 60.2266Z" fill="black"/>
<path d="M74.5666 65.1423L76.5123 64.7272V55.4528L74.3721 55.0377V52.6056H80.274L80.4491 54.7913C80.7468 54.0849 81.212 53.4616 81.8046 52.9753C82.3595 52.5423 83.0465 52.3133 83.7503 52.3267C83.9673 52.3297 84.184 52.3471 84.3988 52.3786C84.5959 52.4036 84.791 52.4426 84.9825 52.4954L84.5545 56.1727L82.9136 56.1273C82.4022 56.1073 81.8951 56.2285 81.4479 56.4775C81.0601 56.7073 80.7504 57.0486 80.5593 57.4568V64.7272L82.505 65.1423V67.5614H74.5666V65.1423Z" fill="black"/>
<path d="M85.8972 59.9471C85.818 57.9488 86.4862 55.9926 87.7715 54.4603C89.1523 53.0931 91.0169 52.3262 92.96 52.3262C94.9031 52.3262 96.7677 53.0931 98.1485 54.4603C99.4347 55.9943 100.101 57.9536 100.016 59.9536V60.239C100.103 62.2464 99.4346 64.2134 98.142 65.7518C96.758 67.1127 94.8946 67.8754 92.9535 67.8754C91.0124 67.8754 89.1491 67.1127 87.765 65.7518C86.4761 64.2165 85.8076 62.2548 85.8907 60.252L85.8972 59.9471ZM89.9377 60.2325C89.8873 61.3718 90.1331 62.5047 90.6511 63.5207C90.8852 63.9232 91.2275 64.2521 91.639 64.4699C92.0506 64.6877 92.515 64.7858 92.9795 64.753C93.4342 64.7755 93.8862 64.6709 94.2848 64.4509C94.6835 64.231 95.013 63.9044 95.2365 63.5077C95.7649 62.4998 96.0156 61.3694 95.9629 60.2325V59.9471C96.0159 58.8103 95.7652 57.6798 95.2365 56.6719C95.0091 56.2661 94.6717 55.9328 94.2633 55.7102C93.8548 55.4876 93.3919 55.3848 92.9276 55.4137C92.4682 55.388 92.0109 55.4924 91.6082 55.715C91.2055 55.9376 90.8738 56.2692 90.6511 56.6719C90.1388 57.6736 89.8931 58.7904 89.9377 59.9147V60.2325Z" fill="black"/>
<path d="M102.014 60.207C101.92 58.19 102.46 56.1941 103.558 54.4996C104.035 53.8018 104.682 53.2365 105.437 52.8565C106.193 52.4766 107.032 52.2944 107.877 52.327C108.652 52.3108 109.416 52.5058 110.089 52.8912C110.751 53.2871 111.311 53.8338 111.723 54.4867L112.009 52.6058H115.524V67.1206C115.563 67.9943 115.418 68.8665 115.097 69.6801C114.776 70.4937 114.287 71.2305 113.662 71.8422C112.257 73.074 110.424 73.7051 108.558 73.5998C107.747 73.5932 106.939 73.4887 106.152 73.2885C105.338 73.0955 104.548 72.8105 103.798 72.4388L104.544 69.6046C105.174 69.873 105.824 70.0899 106.489 70.2532C107.158 70.4142 107.844 70.4947 108.532 70.4931C108.946 70.5247 109.361 70.4597 109.744 70.3032C110.128 70.1468 110.47 69.9032 110.744 69.5916C111.261 68.8708 111.511 67.9926 111.451 67.1077V66.1218C111.038 66.6699 110.503 67.1141 109.888 67.419C109.247 67.7271 108.543 67.8804 107.832 67.8665C107.005 67.9036 106.181 67.7381 105.433 67.3843C104.685 67.0305 104.034 66.4991 103.538 65.8365C102.449 64.2813 101.906 62.4086 101.995 60.5118L102.014 60.207ZM106.055 60.4988C105.996 61.567 106.22 62.6317 106.703 63.586C106.922 63.9557 107.239 64.2572 107.619 64.4566C108 64.6559 108.428 64.7452 108.857 64.7145C109.397 64.729 109.933 64.6133 110.42 64.3772C110.85 64.1497 111.207 63.8058 111.451 63.3849V56.8993C111.21 56.4611 110.853 56.0976 110.42 55.8486C109.951 55.5866 109.419 55.4566 108.882 55.4725C108.434 55.4533 107.99 55.566 107.605 55.7965C107.22 56.0271 106.911 56.3654 106.716 56.7696C106.232 57.846 106.01 59.0217 106.068 60.2005L106.055 60.4988Z" fill="black"/>
<path d="M125.103 67.8536C124.14 67.8993 123.178 67.7377 122.283 67.3796C121.388 67.0216 120.58 66.4754 119.914 65.7782C118.6 64.3457 117.902 62.4545 117.969 60.5118V59.9606C117.888 57.9687 118.541 56.0165 119.804 54.4737C121.039 53.1609 122.743 52.3904 124.544 52.3309C126.345 52.2713 128.097 52.9275 129.416 54.156C130.586 55.523 131.185 57.288 131.089 59.085V61.2836H122.184V61.3679C122.207 62.2649 122.539 63.1264 123.125 63.8065C123.43 64.1279 123.802 64.3795 124.214 64.544C124.626 64.7086 125.068 64.7822 125.511 64.7599C126.262 64.777 127.011 64.6875 127.736 64.494C128.411 64.2765 129.063 63.9919 129.682 63.6444L130.778 66.1284C130.054 66.6734 129.242 67.0902 128.378 67.3607C127.32 67.7019 126.214 67.8684 125.103 67.8536ZM124.739 55.4401C124.397 55.4281 124.057 55.4998 123.748 55.649C123.44 55.7982 123.172 56.0203 122.969 56.2962C122.504 56.9601 122.228 57.7381 122.171 58.5467L122.21 58.618H127.159V58.2613C127.198 57.5282 126.988 56.8034 126.562 56.2054C126.34 55.9428 126.06 55.7365 125.743 55.6035C125.426 55.4705 125.082 55.4145 124.739 55.4401V55.4401Z" fill="black"/>
<path d="M133.326 65.1424L135.272 64.7273V55.4529L133.132 55.0379V52.6057H139.034L139.215 54.7914C139.511 54.0838 139.977 53.4601 140.571 52.9754C141.125 52.541 141.813 52.3118 142.517 52.3269C142.734 52.3299 142.95 52.3472 143.165 52.3787C143.364 52.4039 143.561 52.4429 143.755 52.4955L143.327 56.1728L141.667 56.1274C141.156 56.1081 140.649 56.2292 140.201 56.4777C139.814 56.7059 139.506 57.0478 139.319 57.457V64.7273L141.265 65.1424V67.5616H133.326V65.1424Z" fill="black"/>
</svg>
