<?xml version="1.0" encoding="utf-8"?>
<!-- Generator: Adobe Illustrator 22.0.0, SVG Export Plug-In . SVG Version: 6.00 Build 0)  -->
<svg version="1.1" id="Layer_1" xmlns="http://www.w3.org/2000/svg" xmlns:xlink="http://www.w3.org/1999/xlink" x="0px" y="0px"
	 viewBox="0 0 49.743 25" style="enable-background:new 0 0 49.743 25;" xml:space="preserve">
<style type="text/css">
	.st0{fill-rule:evenodd;clip-rule:evenodd;fill:#A6AAAA;}
	.st1{fill-rule:evenodd;clip-rule:evenodd;fill:#F3792E;}
	.st2{fill-rule:evenodd;clip-rule:evenodd;fill:#F06022;}
	.st3{fill-rule:evenodd;clip-rule:evenodd;fill:#D95122;}
	.st4{fill-rule:evenodd;clip-rule:evenodd;fill:#F89A2C;}
	.st5{fill-rule:evenodd;clip-rule:evenodd;fill:#FFFFFF;}
	.st6{fill:#FFFFFF;}
	.st7{fill-rule:evenodd;clip-rule:evenodd;fill:#B4008D;}
	.st8{fill-rule:evenodd;clip-rule:evenodd;fill:#9DBC0A;}
	.st9{fill:none;stroke:#9DBC0A;stroke-width:0.1962;stroke-miterlimit:10;}
	.st10{fill-rule:evenodd;clip-rule:evenodd;fill:#DF3F17;}
	.st11{fill:none;stroke:#DF3F17;stroke-width:0.1962;stroke-miterlimit:10;}
	.st12{fill-rule:evenodd;clip-rule:evenodd;fill:#F5B208;}
	.st13{fill:none;stroke:#F5B208;stroke-width:0.1962;stroke-miterlimit:10;}
	.st14{fill:#9DBC0A;}
	.st15{fill:none;stroke:#9DBC0A;stroke-width:0.2023;stroke-miterlimit:10;}
	.st16{fill:none;stroke:#DF3F17;stroke-width:0.2023;stroke-miterlimit:10;}
	.st17{fill:none;stroke:#F5B208;stroke-width:0.2023;stroke-miterlimit:10;}
	.st18{fill-rule:evenodd;clip-rule:evenodd;fill:#85754E;}
	.st19{fill:#85754E;}
	.st20{fill-rule:evenodd;clip-rule:evenodd;fill:#1A171B;}
	.st21{fill:#016268;}
	.st22{fill:#00A9C2;}
	.st23{fill:#21427B;}
	.st24{fill:#FAE101;}
	.st25{fill-rule:evenodd;clip-rule:evenodd;fill:#32327F;}
	.st26{fill-rule:evenodd;clip-rule:evenodd;fill:#FCB813;}
	.st27{fill:#002169;}
	.st28{fill:#C6C7C8;}
	.st29{fill:#F79420;}
	.st30{fill:#FCB831;}
	.st31{fill:#FDDD2E;}
	.st32{fill:#F3C700;}
	.st33{fill:#DB6216;}
	.st34{fill:#EAA600;}
	.st35{fill:#E32427;}
	.st36{fill:#FFFFFF;stroke:#FFFFFF;stroke-width:0.1124;stroke-miterlimit:10;}
	.st37{fill:url(#SVGID_1_);}
	.st38{fill-rule:evenodd;clip-rule:evenodd;fill:#C1272D;}
	.st39{fill-rule:evenodd;clip-rule:evenodd;fill:url(#SVGID_2_);}
	.st40{fill-rule:evenodd;clip-rule:evenodd;fill:url(#SVGID_3_);}
	.st41{fill-rule:evenodd;clip-rule:evenodd;fill:url(#SVGID_4_);}
	.st42{fill-rule:evenodd;clip-rule:evenodd;fill:url(#SVGID_5_);}
	.st43{fill-rule:evenodd;clip-rule:evenodd;fill:url(#SVGID_6_);}
	.st44{fill-rule:evenodd;clip-rule:evenodd;fill:url(#SVGID_7_);}
	.st45{fill-rule:evenodd;clip-rule:evenodd;fill:url(#SVGID_8_);}
	.st46{fill:#006937;}
	.st47{fill:#929990;}
	.st48{fill:#FFFFFF;stroke:#FFFFFF;stroke-width:0.1949;stroke-miterlimit:10;}
	.st49{fill:#18428F;}
	.st50{fill:#EC1848;}
	.st51{fill:#29A151;}
	.st52{fill:#C1272D;}
	.st53{fill:#29ABE2;}
	.st54{fill:#F7BE3E;}
	.st55{fill:url(#SVGID_9_);}
	.st56{fill-rule:evenodd;clip-rule:evenodd;fill:none;}
	.st57{clip-path:url(#SVGID_11_);fill-rule:evenodd;clip-rule:evenodd;}
	.st58{fill:#EFAF1F;}
	.st59{fill:#EFB022;}
	.st60{fill:#0E0A08;}
	.st61{fill:#DA2A28;}
	.st62{fill:#F6F6F5;}
	.st63{fill:#C7B086;}
	.st64{fill:#F1F0EE;}
	.st65{fill-rule:evenodd;clip-rule:evenodd;fill:url(#SVGID_12_);}
	.st66{fill-rule:evenodd;clip-rule:evenodd;fill:#FAF9F9;}
	.st67{fill-rule:evenodd;clip-rule:evenodd;fill:#F8B132;}
	.st68{fill-rule:evenodd;clip-rule:evenodd;fill:#1A70B7;}
	.st69{fill-rule:evenodd;clip-rule:evenodd;fill:#36A834;}
	.st70{fill-rule:evenodd;clip-rule:evenodd;fill:#E2000F;}
	.st71{fill-rule:evenodd;clip-rule:evenodd;fill:#1A1A18;}
	.st72{fill:url(#SVGID_13_);}
	.st73{fill:url(#SVGID_14_);}
	.st74{fill:url(#SVGID_15_);}
	.st75{fill:url(#SVGID_16_);}
	.st76{fill:url(#SVGID_17_);}
	.st77{fill:url(#SVGID_18_);}
	.st78{fill:url(#SVGID_19_);}
	.st79{fill:url(#SVGID_20_);}
	.st80{fill:url(#SVGID_21_);}
	.st81{fill:url(#SVGID_22_);}
	.st82{fill:url(#SVGID_23_);}
	.st83{fill:url(#SVGID_24_);}
	.st84{fill:url(#SVGID_25_);}
	.st85{fill:url(#SVGID_26_);}
	.st86{fill:#00A85D;}
	.st87{fill:#FFFFFF;stroke:#FFFFFF;stroke-width:0.1;stroke-miterlimit:10;}
	.st88{fill:#9FD8F5;}
	.st89{fill:#274888;}
	.st90{fill:#267DBF;}
	.st91{fill:#2F91CF;}
	.st92{fill:#2955A0;}
	.st93{fill:#236EB3;}
	.st94{fill:#CFEBFA;}
	.st95{fill:#42B7E9;}
	.st96{fill:#3FAAE0;}
	.st97{fill:#ED171F;}
	.st98{opacity:0.25;fill:url(#SVGID_27_);}
	.st99{fill:#FFFFFF;stroke:#FFFFFF;stroke-width:1.0606;stroke-miterlimit:10;}
	.st100{fill:#FFAF10;}
	.st101{fill:#151416;}
	.st102{fill:#E57641;}
	.st103{fill:none;}
	.st104{fill:#1C191B;}
	.st105{fill:#19181A;}
	.st106{fill:#DD7340;}
	.st107{fill:#181617;}
	.st108{fill:#EA7944;}
	.st109{fill:#0C0E13;}
	.st110{fill:#181719;}
	.st111{fill:#F2F1F2;}
	.st112{fill:#F6F5F5;}
	.st113{fill:#BA673F;}
	.st114{fill:#4E362A;}
	.st115{fill:#6A6567;}
	.st116{fill:none;stroke:#EA7944;stroke-width:0.3013;stroke-linecap:round;stroke-miterlimit:10;}
	.st117{fill:none;stroke:#FF00FF;stroke-width:0.25;stroke-miterlimit:10;}
</style>
<g>
	<linearGradient id="SVGID_1_" gradientUnits="userSpaceOnUse" x1="18.2896" y1="14.1743" x2="16.5525" y2="10.7512">
		<stop  offset="2.165098e-07" style="stop-color:#B91D25"/>
		<stop  offset="1" style="stop-color:#6E272D"/>
	</linearGradient>
	<polygon class="st37" points="17.021,8.195 19.402,15.154 17.021,15.154 15.375,11.008 	"/>
	<g>
		<g>
			<linearGradient id="SVGID_2_" gradientUnits="userSpaceOnUse" x1="16.7881" y1="13.021" x2="13.1017" y2="5.7567">
				<stop  offset="2.165098e-07" style="stop-color:#B91D25"/>
				<stop  offset="1" style="stop-color:#6E272D"/>
			</linearGradient>
			<polygon style="fill:url(#SVGID_2_);" points="14.613,0.07 18.66,11.9 14.613,17.4 10.514,7.075 			"/>
			<linearGradient id="SVGID_3_" gradientUnits="userSpaceOnUse" x1="30.6854" y1="13.021" x2="26.999" y2="5.7567">
				<stop  offset="2.165098e-07" style="stop-color:#B91D25"/>
				<stop  offset="1" style="stop-color:#6E272D"/>
			</linearGradient>
			<polygon style="fill:url(#SVGID_3_);" points="28.511,0.07 32.558,11.9 28.511,17.4 24.412,7.075 			"/>
			<linearGradient id="SVGID_4_" gradientUnits="userSpaceOnUse" x1="45.5573" y1="14.9612" x2="41.2309" y2="6.4358">
				<stop  offset="2.165098e-07" style="stop-color:#B91D25"/>
				<stop  offset="1" style="stop-color:#6E272D"/>
			</linearGradient>
			<polygon style="fill:url(#SVGID_4_);" points="42.398,0.07 48.327,17.4 42.398,17.4 38.299,7.075 			"/>
			<linearGradient id="SVGID_5_" gradientUnits="userSpaceOnUse" x1="4.7618" y1="14.0963" x2="11.3299" y2="1.8396">
				<stop  offset="1.030999e-07" style="stop-color:#D95012"/>
				<stop  offset="1" style="stop-color:#B51617"/>
			</linearGradient>
			<polygon style="fill:url(#SVGID_5_);" points="8.153,0.07 14.587,0.07 7.116,17.4 0.682,17.4 			"/>
			<linearGradient id="SVGID_6_" gradientUnits="userSpaceOnUse" x1="14.6133" y1="8.7354" x2="28.5189" y2="8.7354">
				<stop  offset="1.030999e-07" style="stop-color:#D95012"/>
				<stop  offset="1" style="stop-color:#B51617"/>
			</linearGradient>
			<polygon style="fill:url(#SVGID_6_);" points="22.085,0.07 28.519,0.07 21.047,17.4 14.613,17.4 			"/>
			<linearGradient id="SVGID_7_" gradientUnits="userSpaceOnUse" x1="28.5189" y1="8.7354" x2="42.4244" y2="8.7354">
				<stop  offset="1.030999e-07" style="stop-color:#D95012"/>
				<stop  offset="1" style="stop-color:#B51617"/>
			</linearGradient>
			<polygon style="fill:url(#SVGID_7_);" points="35.991,0.07 42.424,0.07 34.953,17.4 28.519,17.4 			"/>
		</g>
		<g>
			<path class="st6" d="M3.731,20.802c0.066,0,0.102,0.029,0.107,0.088c0.049,0.698,0.09,1.374,0.119,2.028
				c0.032,0.654,0.056,1.301,0.071,1.941H3.724c-0.073,0-0.109-0.029-0.109-0.088c-0.005-0.263-0.015-0.535-0.024-0.82
				c-0.012-0.285-0.027-0.572-0.041-0.861c-0.015-0.289-0.029-0.574-0.044-0.856c-0.015-0.285-0.027-0.557-0.036-0.817L2.23,23.811
				H1.853c-0.034,0-0.058-0.007-0.073-0.019c-0.015-0.015-0.029-0.034-0.044-0.063l-1.194-2.311c-0.01,0.27-0.022,0.55-0.036,0.839
				c-0.015,0.292-0.029,0.584-0.044,0.88c-0.015,0.297-0.027,0.591-0.039,0.883c-0.012,0.289-0.022,0.569-0.027,0.839H0.107
				C0.034,24.859,0,24.83,0,24.772c0.015-0.645,0.036-1.289,0.071-1.938c0.034-0.647,0.075-1.323,0.124-2.031h0.348
				c0.058,0,0.1,0.027,0.124,0.083l1.355,2.581l1.399-2.663H3.731z"/>
			<path class="st6" d="M6.713,21.843c0.523,0,0.9,0.126,1.131,0.379c0.231,0.251,0.348,0.637,0.348,1.16
				c0,0.528-0.117,0.917-0.348,1.17c-0.231,0.251-0.608,0.377-1.131,0.377c-0.52,0-0.897-0.126-1.129-0.377
				c-0.233-0.253-0.348-0.642-0.348-1.17c0-0.523,0.114-0.91,0.348-1.16C5.815,21.97,6.192,21.843,6.713,21.843z M6.713,24.643
				c0.18,0,0.336-0.022,0.469-0.068c0.131-0.044,0.243-0.117,0.333-0.216c0.088-0.1,0.156-0.229,0.199-0.389
				c0.041-0.161,0.063-0.355,0.063-0.586c0-0.229-0.022-0.423-0.063-0.581c-0.044-0.158-0.112-0.287-0.199-0.387
				c-0.09-0.1-0.202-0.17-0.333-0.216c-0.134-0.044-0.289-0.068-0.469-0.068c-0.178,0-0.333,0.024-0.467,0.068
				c-0.131,0.046-0.243,0.117-0.333,0.216c-0.088,0.1-0.156,0.229-0.199,0.387C5.672,22.96,5.65,23.154,5.65,23.383
				c0,0.231,0.022,0.426,0.063,0.586c0.044,0.161,0.112,0.289,0.199,0.389c0.09,0.1,0.202,0.173,0.333,0.216
				C6.38,24.621,6.535,24.643,6.713,24.643z"/>
			<path class="st6" d="M9.807,22.12c0.131-0.075,0.282-0.139,0.455-0.195c0.17-0.054,0.379-0.083,0.625-0.083
				c0.44,0,0.769,0.129,0.99,0.382c0.219,0.253,0.328,0.628,0.328,1.124c0,0.289-0.029,0.533-0.09,0.732s-0.151,0.36-0.275,0.482
				c-0.124,0.124-0.28,0.214-0.467,0.27c-0.19,0.056-0.413,0.085-0.674,0.085c-0.107,0-0.219-0.005-0.338-0.015
				c-0.117-0.01-0.231-0.022-0.341-0.039c-0.107-0.015-0.207-0.032-0.292-0.049c-0.088-0.017-0.153-0.034-0.197-0.051
				c-0.063-0.019-0.1-0.039-0.112-0.063c-0.012-0.024-0.017-0.054-0.017-0.088v-3.957h0.224c0.068,0,0.114,0.01,0.141,0.029
				c0.027,0.019,0.039,0.058,0.039,0.117V22.12z M9.807,24.543c0.122,0.024,0.253,0.044,0.396,0.066
				c0.141,0.019,0.292,0.029,0.452,0.029c0.192,0,0.362-0.019,0.506-0.056c0.146-0.039,0.265-0.102,0.355-0.197
				c0.092-0.092,0.161-0.221,0.207-0.387c0.046-0.163,0.071-0.375,0.071-0.632c0-0.44-0.083-0.756-0.248-0.949
				c-0.163-0.19-0.409-0.287-0.732-0.287c-0.226,0-0.421,0.029-0.581,0.09c-0.163,0.058-0.304,0.124-0.426,0.197V24.543z"/>
			<path class="st6" d="M13.642,21.342c-0.102,0-0.178-0.019-0.224-0.054c-0.049-0.036-0.073-0.097-0.073-0.187
				s0.024-0.153,0.073-0.187c0.046-0.036,0.122-0.054,0.224-0.054c0.102,0,0.175,0.017,0.224,0.054
				c0.049,0.034,0.073,0.097,0.073,0.187s-0.024,0.151-0.073,0.187C13.817,21.323,13.744,21.342,13.642,21.342z M13.433,21.914
				h0.297c0.071,0,0.107,0.029,0.107,0.088v2.858H13.54c-0.073,0-0.107-0.029-0.107-0.088V21.914z"/>
			<path class="st6" d="M16.162,24.842c-0.049,0.007-0.112,0.017-0.185,0.027c-0.075,0.01-0.146,0.015-0.214,0.015
				c-0.209,0-0.362-0.051-0.46-0.151c-0.1-0.1-0.148-0.231-0.148-0.394v-3.682h0.297c0.071,0,0.107,0.029,0.107,0.088v3.583
				c0,0.124,0.029,0.202,0.085,0.231c0.054,0.029,0.143,0.044,0.263,0.044h0.153c0.039,0,0.066,0.01,0.08,0.027
				s0.022,0.036,0.022,0.056V24.842z"/>
			<path class="st6" d="M19.907,24.772c-0.039-0.187-0.083-0.377-0.131-0.572c-0.049-0.192-0.102-0.392-0.161-0.593h-1.999
				c-0.063,0.212-0.119,0.418-0.17,0.625c-0.051,0.209-0.097,0.416-0.141,0.628h-0.289c-0.083,0-0.119-0.029-0.109-0.088
				c0.097-0.472,0.214-0.919,0.348-1.338c0.136-0.421,0.272-0.8,0.413-1.141c0.141-0.343,0.275-0.642,0.406-0.897
				c0.131-0.255,0.241-0.452,0.333-0.593h0.348c0.034,0,0.061,0.005,0.083,0.012c0.022,0.007,0.046,0.032,0.068,0.071
				c0.092,0.161,0.204,0.372,0.338,0.637c0.134,0.265,0.268,0.572,0.401,0.917c0.136,0.345,0.265,0.722,0.392,1.133
				c0.126,0.409,0.231,0.839,0.319,1.287h-0.333C19.958,24.859,19.92,24.83,19.907,24.772z M18.616,21.143
				c-0.187,0.348-0.358,0.7-0.506,1.058c-0.151,0.36-0.285,0.73-0.406,1.107h1.819c-0.117-0.37-0.251-0.737-0.404-1.102
				C18.969,21.838,18.801,21.486,18.616,21.143z"/>
			<path class="st6" d="M21.357,24.813c-0.063-0.019-0.095-0.056-0.095-0.112v-0.163c0.126,0.019,0.28,0.039,0.465,0.058
				c0.182,0.019,0.375,0.029,0.579,0.029c0.202,0,0.367-0.012,0.496-0.036c0.126-0.022,0.229-0.058,0.302-0.105
				c0.071-0.046,0.122-0.105,0.148-0.17c0.024-0.066,0.039-0.143,0.039-0.233c0-0.105-0.022-0.19-0.061-0.253
				c-0.041-0.061-0.105-0.114-0.185-0.158c-0.083-0.041-0.187-0.078-0.311-0.107c-0.126-0.029-0.275-0.061-0.443-0.097
				c-0.146-0.032-0.282-0.063-0.413-0.1c-0.131-0.034-0.243-0.08-0.341-0.141c-0.097-0.058-0.173-0.131-0.229-0.224
				s-0.083-0.209-0.083-0.348c0-0.251,0.1-0.445,0.302-0.584c0.199-0.139,0.508-0.207,0.922-0.207c0.044,0,0.109,0,0.192,0.002
				c0.085,0.002,0.175,0.007,0.27,0.015c0.092,0.007,0.187,0.017,0.277,0.029c0.092,0.012,0.168,0.024,0.226,0.041
				c0.061,0.019,0.092,0.056,0.092,0.112v0.158c-0.148-0.019-0.309-0.039-0.482-0.054c-0.17-0.017-0.338-0.024-0.503-0.024
				c-0.173,0-0.319,0.012-0.435,0.032c-0.114,0.022-0.207,0.054-0.277,0.095c-0.071,0.041-0.119,0.092-0.146,0.153
				c-0.027,0.058-0.039,0.131-0.039,0.212c0,0.09,0.015,0.163,0.046,0.221c0.032,0.056,0.083,0.105,0.156,0.146
				s0.165,0.075,0.28,0.105c0.114,0.029,0.253,0.061,0.416,0.09c0.165,0.032,0.319,0.066,0.46,0.105
				c0.143,0.036,0.268,0.085,0.375,0.146c0.105,0.061,0.19,0.141,0.251,0.238c0.058,0.1,0.09,0.229,0.09,0.384
				c0,0.304-0.114,0.52-0.345,0.649c-0.229,0.129-0.55,0.195-0.958,0.195c-0.058,0-0.136-0.002-0.233-0.007
				c-0.095-0.002-0.195-0.01-0.297-0.017c-0.102-0.007-0.199-0.017-0.292-0.029C21.476,24.847,21.403,24.832,21.357,24.813z"/>
			<path class="st6" d="M24.762,24.813c-0.063-0.019-0.095-0.056-0.095-0.112v-0.163c0.126,0.019,0.28,0.039,0.465,0.058
				c0.182,0.019,0.375,0.029,0.579,0.029c0.202,0,0.367-0.012,0.496-0.036c0.126-0.022,0.229-0.058,0.302-0.105
				c0.071-0.046,0.122-0.105,0.148-0.17c0.024-0.066,0.039-0.143,0.039-0.233c0-0.105-0.022-0.19-0.061-0.253
				c-0.041-0.061-0.105-0.114-0.185-0.158c-0.083-0.041-0.187-0.078-0.311-0.107c-0.126-0.029-0.275-0.061-0.443-0.097
				c-0.146-0.032-0.282-0.063-0.413-0.1c-0.131-0.034-0.243-0.08-0.341-0.141c-0.097-0.058-0.173-0.131-0.229-0.224
				c-0.056-0.092-0.083-0.209-0.083-0.348c0-0.251,0.1-0.445,0.302-0.584c0.199-0.139,0.508-0.207,0.922-0.207
				c0.044,0,0.109,0,0.192,0.002c0.085,0.002,0.175,0.007,0.27,0.015c0.092,0.007,0.187,0.017,0.277,0.029
				c0.092,0.012,0.168,0.024,0.226,0.041c0.061,0.019,0.092,0.056,0.092,0.112v0.158c-0.148-0.019-0.309-0.039-0.482-0.054
				c-0.17-0.017-0.338-0.024-0.503-0.024c-0.173,0-0.319,0.012-0.435,0.032c-0.114,0.022-0.207,0.054-0.277,0.095
				c-0.071,0.041-0.119,0.092-0.146,0.153c-0.027,0.058-0.039,0.131-0.039,0.212c0,0.09,0.015,0.163,0.046,0.221
				c0.032,0.056,0.083,0.105,0.156,0.146s0.165,0.075,0.28,0.105c0.114,0.029,0.253,0.061,0.416,0.09
				c0.165,0.032,0.319,0.066,0.46,0.105c0.143,0.036,0.268,0.085,0.375,0.146c0.105,0.061,0.19,0.141,0.251,0.238
				c0.058,0.1,0.09,0.229,0.09,0.384c0,0.304-0.114,0.52-0.345,0.649c-0.229,0.129-0.55,0.195-0.958,0.195
				c-0.058,0-0.136-0.002-0.233-0.007c-0.095-0.002-0.195-0.01-0.297-0.017c-0.102-0.007-0.199-0.017-0.292-0.029
				C24.881,24.847,24.808,24.832,24.762,24.813z"/>
			<path class="st6" d="M28.486,21.342c-0.102,0-0.178-0.019-0.224-0.054c-0.049-0.036-0.073-0.097-0.073-0.187
				s0.024-0.153,0.073-0.187c0.046-0.036,0.122-0.054,0.224-0.054c0.102,0,0.175,0.017,0.224,0.054
				c0.049,0.034,0.073,0.097,0.073,0.187s-0.024,0.151-0.073,0.187C28.661,21.323,28.588,21.342,28.486,21.342z M28.276,21.914
				h0.297c0.071,0,0.107,0.029,0.107,0.088v2.858h-0.297c-0.073,0-0.107-0.029-0.107-0.088V21.914z"/>
			<path class="st6" d="M29.972,24.813c-0.063-0.019-0.095-0.056-0.095-0.112v-0.163c0.126,0.019,0.28,0.039,0.465,0.058
				c0.182,0.019,0.375,0.029,0.579,0.029c0.202,0,0.367-0.012,0.496-0.036c0.126-0.022,0.229-0.058,0.302-0.105
				c0.071-0.046,0.122-0.105,0.148-0.17c0.024-0.066,0.039-0.143,0.039-0.233c0-0.105-0.022-0.19-0.061-0.253
				c-0.041-0.061-0.105-0.114-0.185-0.158c-0.083-0.041-0.187-0.078-0.311-0.107c-0.126-0.029-0.275-0.061-0.443-0.097
				c-0.146-0.032-0.282-0.063-0.413-0.1c-0.131-0.034-0.243-0.08-0.341-0.141c-0.097-0.058-0.173-0.131-0.229-0.224
				c-0.056-0.092-0.083-0.209-0.083-0.348c0-0.251,0.1-0.445,0.302-0.584c0.199-0.139,0.508-0.207,0.922-0.207
				c0.044,0,0.109,0,0.192,0.002c0.085,0.002,0.175,0.007,0.27,0.015c0.092,0.007,0.187,0.017,0.277,0.029
				c0.092,0.012,0.168,0.024,0.226,0.041c0.061,0.019,0.092,0.056,0.092,0.112v0.158c-0.148-0.019-0.309-0.039-0.482-0.054
				c-0.17-0.017-0.338-0.024-0.503-0.024c-0.173,0-0.319,0.012-0.435,0.032c-0.114,0.022-0.207,0.054-0.277,0.095
				c-0.071,0.041-0.119,0.092-0.146,0.153c-0.027,0.058-0.039,0.131-0.039,0.212c0,0.09,0.015,0.163,0.046,0.221
				c0.032,0.056,0.083,0.105,0.156,0.146c0.073,0.041,0.165,0.075,0.28,0.105c0.114,0.029,0.253,0.061,0.416,0.09
				c0.165,0.032,0.319,0.066,0.46,0.105c0.143,0.036,0.268,0.085,0.375,0.146c0.105,0.061,0.19,0.141,0.251,0.238
				c0.058,0.1,0.09,0.229,0.09,0.384c0,0.304-0.114,0.52-0.345,0.649c-0.229,0.129-0.55,0.195-0.958,0.195
				c-0.058,0-0.136-0.002-0.233-0.007c-0.095-0.002-0.195-0.01-0.297-0.017c-0.102-0.007-0.199-0.017-0.292-0.029
				C30.091,24.847,30.018,24.832,29.972,24.813z"/>
			<path class="st6" d="M34.817,24.609c0.058,0,0.097,0.007,0.117,0.024c0.019,0.019,0.029,0.039,0.029,0.063v0.158
				c-0.185,0.029-0.355,0.046-0.516,0.046c-0.158,0-0.292-0.015-0.396-0.044c-0.107-0.029-0.192-0.071-0.255-0.124
				c-0.061-0.051-0.107-0.114-0.134-0.187c-0.027-0.071-0.039-0.151-0.039-0.236v-2.114h-0.326c-0.073,0-0.109-0.029-0.109-0.088
				v-0.195h0.435v-0.79h0.297c0.073,0,0.109,0.029,0.109,0.09v0.7h0.825c0.073,0,0.109,0.029,0.109,0.088v0.195h-0.934v2.072
				c0,0.054,0.005,0.102,0.015,0.143c0.01,0.041,0.032,0.078,0.068,0.107c0.036,0.032,0.09,0.056,0.161,0.071
				c0.068,0.017,0.165,0.024,0.285,0.024c0.054,0,0.105,0,0.153-0.002C34.758,24.609,34.792,24.609,34.817,24.609z"/>
			<path class="st6" d="M38.222,24.538c-0.058,0.046-0.126,0.092-0.209,0.136c-0.083,0.046-0.173,0.085-0.272,0.122
				c-0.1,0.034-0.204,0.063-0.319,0.088c-0.114,0.022-0.233,0.034-0.358,0.034c-0.401,0-0.696-0.083-0.885-0.246
				c-0.187-0.163-0.282-0.389-0.282-0.679c0-0.333,0.117-0.569,0.353-0.715c0.233-0.143,0.569-0.216,1.009-0.216h0.949v-0.229
				c0-0.129-0.017-0.238-0.051-0.328c-0.034-0.088-0.09-0.161-0.17-0.212c-0.078-0.054-0.182-0.092-0.311-0.114
				c-0.126-0.024-0.285-0.036-0.474-0.036c-0.221,0-0.421,0.012-0.598,0.036c-0.175,0.022-0.294,0.034-0.358,0.034
				c-0.078,0-0.117-0.032-0.117-0.1v-0.141c0.19-0.041,0.384-0.071,0.589-0.088c0.202-0.015,0.389-0.022,0.564-0.022
				c0.265,0,0.486,0.024,0.659,0.073c0.175,0.049,0.311,0.117,0.409,0.204c0.1,0.088,0.168,0.192,0.207,0.311
				c0.039,0.119,0.058,0.251,0.058,0.394v2.014h-0.268c-0.073,0-0.109-0.029-0.109-0.088L38.222,24.538z M38.207,23.332h-0.963
				c-0.187,0-0.345,0.017-0.472,0.051c-0.124,0.036-0.224,0.085-0.297,0.143c-0.071,0.061-0.122,0.131-0.151,0.212
				c-0.029,0.08-0.044,0.163-0.044,0.248c0,0.238,0.075,0.409,0.224,0.508c0.151,0.097,0.35,0.148,0.601,0.148
				c0.248,0,0.462-0.041,0.642-0.126c0.182-0.083,0.336-0.175,0.46-0.277V23.332z"/>
			<path class="st6" d="M40.279,22.237c0.049-0.044,0.112-0.088,0.19-0.136c0.078-0.046,0.165-0.088,0.268-0.124
				c0.102-0.039,0.214-0.068,0.341-0.095c0.126-0.024,0.263-0.039,0.413-0.039c0.353,0,0.632,0.083,0.839,0.243
				c0.209,0.163,0.311,0.423,0.311,0.783v1.99h-0.297c-0.071,0-0.107-0.029-0.107-0.088v-1.892c0-0.268-0.078-0.46-0.229-0.576
				c-0.153-0.114-0.355-0.173-0.606-0.173c-0.131,0-0.253,0.015-0.365,0.039c-0.114,0.027-0.219,0.058-0.311,0.1
				c-0.095,0.041-0.178,0.085-0.251,0.134c-0.073,0.049-0.134,0.095-0.182,0.139v2.318h-0.297c-0.073,0-0.107-0.029-0.107-0.088
				v-2.858h0.268c0.073,0,0.107,0.029,0.107,0.088L40.279,22.237z"/>
			<path class="st6" d="M46.163,24.801c-0.107,0.032-0.251,0.058-0.43,0.078c-0.182,0.022-0.35,0.034-0.503,0.034
				c-0.268,0-0.489-0.036-0.671-0.109c-0.18-0.073-0.326-0.175-0.435-0.306c-0.107-0.134-0.185-0.292-0.231-0.477
				c-0.046-0.187-0.068-0.392-0.068-0.618c0-0.547,0.117-0.941,0.355-1.18c0.236-0.241,0.586-0.36,1.051-0.36
				c0.071,0,0.151,0.002,0.236,0.007c0.083,0.007,0.163,0.015,0.238,0.022c0.075,0.007,0.141,0.017,0.202,0.027
				c0.061,0.01,0.105,0.019,0.134,0.032c0.063,0.019,0.095,0.054,0.095,0.105v0.165c-0.156-0.019-0.302-0.036-0.438-0.051
				c-0.139-0.015-0.277-0.019-0.416-0.019c-0.175,0-0.326,0.019-0.457,0.061s-0.238,0.107-0.326,0.202
				c-0.088,0.092-0.153,0.219-0.197,0.377c-0.041,0.158-0.063,0.355-0.063,0.589c0,0.258,0.024,0.467,0.075,0.63
				c0.051,0.161,0.122,0.289,0.214,0.379c0.09,0.092,0.202,0.156,0.333,0.187c0.129,0.034,0.272,0.051,0.428,0.051
				c0.173,0,0.328-0.012,0.467-0.034c0.136-0.019,0.233-0.032,0.292-0.032c0.044,0,0.075,0.01,0.092,0.029
				c0.015,0.019,0.024,0.039,0.024,0.058V24.801z"/>
			<path class="st6" d="M48.595,24.913c-0.27,0-0.503-0.027-0.703-0.08c-0.197-0.051-0.36-0.139-0.489-0.258
				c-0.126-0.119-0.224-0.275-0.285-0.467c-0.063-0.195-0.095-0.428-0.095-0.705c0-0.285,0.032-0.525,0.095-0.725
				c0.061-0.197,0.156-0.355,0.277-0.479c0.124-0.122,0.275-0.212,0.457-0.27c0.18-0.056,0.389-0.085,0.627-0.085
				c0.265,0,0.484,0.034,0.654,0.097c0.173,0.066,0.304,0.153,0.399,0.265c0.095,0.109,0.158,0.241,0.195,0.394
				c0.036,0.153,0.056,0.316,0.056,0.491c0,0.078-0.005,0.156-0.015,0.233c-0.01,0.08-0.022,0.141-0.036,0.187H47.43
				c0.015,0.199,0.039,0.37,0.078,0.511s0.105,0.255,0.192,0.345c0.09,0.09,0.212,0.156,0.367,0.195
				c0.153,0.041,0.353,0.063,0.593,0.063c0.236,0,0.426-0.012,0.569-0.034c0.141-0.019,0.243-0.032,0.299-0.032
				c0.044,0,0.075,0.01,0.092,0.029c0.017,0.019,0.024,0.039,0.024,0.058v0.153c-0.107,0.032-0.255,0.056-0.445,0.075
				C49.008,24.896,48.809,24.908,48.595,24.913z M48.481,22.13c-0.204,0-0.372,0.029-0.503,0.083
				c-0.134,0.056-0.241,0.131-0.321,0.231c-0.078,0.1-0.136,0.216-0.17,0.353c-0.032,0.134-0.051,0.282-0.056,0.44h1.948
				c0.005-0.027,0.007-0.054,0.007-0.078c0-0.027,0-0.051,0-0.073c0-0.156-0.012-0.294-0.036-0.416s-0.071-0.221-0.139-0.299
				c-0.066-0.078-0.158-0.136-0.275-0.178C48.821,22.152,48.668,22.13,48.481,22.13z"/>
		</g>
	</g>
</g>
</svg>
