<svg width="200" height="155" viewBox="0 0 200 155" fill="none" xmlns="http://www.w3.org/2000/svg">
<path d="M65.8 22.5C64.8 15.1 56.8 10.2 56.8 10.2C59 13.2 60.5 16.6 61.2 20.3C61.7 23 61.5 25.8 60.7 28.5C59.4 23.4 56.8 18.6 53.2 14.7C48.5 9.70001 40.9 6.5 40.9 6.5C40.9 6.5 37.5 18.7 47 31C45 29.6 42.9 28.5 40.6 27.7C37.1 26.7 33.5 26.5 29.9 26.8C29.9 26.8 33.8 38.6 48.8 42.2C38.9 35.3 36 29.3 36 29.3C38.6 29.7 41.1 30.5 43.4 31.6C46.4 32.9 53.9 37.1 61.1 41.4C57.7 38.6 54.6 35.5 51.7 32.3C43.8 23 46.4 13.6 46.4 13.6C49.8 15.6 52.7 18.4 54.9 21.7C57.5 25.4 61 35.1 61 35.1C61 35.1 67 31.4 65.8 22.5ZM95.9 41.1C91.6 39.9 87.2 39.1 82.8 38.7C82.8 38.7 86.6 38 91 37.5C95.5 37.1 100 37.6 104.3 38.7C103.9 40.3 103.3 41.8 102.5 43.3C103.4 42.9 104.3 42.4 105.2 41.8C107 40.7 108.2 38.9 108.6 36.8C104.2 34.8 99.3 34.1 94.5 34.7C94.3 34.7 93.8 34.8 93.8 34.8C94.3 34.6 94.8 34.3 95.3 33.9C98.1 31.7 100.1 28.6 101 25.1C97.4 24.7 93.8 24.8 90.2 25.3C84.9 26.4 80.4 29.9 78 34.8C80.5 33 83.1 31.5 85.9 30.3C88.4 29.5 91.1 29.1 93.8 29C91.2 32.5 87.5 35 83.4 36.3C80.2 37.2 76.9 37.9 73.5 38.2C73.5 38.2 76.3 26.8 90.1 23.2C98.5 21.1 110.6 23.5 110.6 23.5C110.6 23.5 96.2 16.1 83.4 22C92.1 12.7 85.5 0 85.5 0C85.5 0 76.9 1.7 71.5 6.5C66.9 10.6 65.6 16.2 66.4 19.4C68.1 16.4 70.2 13.7 72.7 11.4C75.1 9.09999 77.8 7.00002 80.8 5.30002C81.6 11.5 80.8 17.8 78.4 23.6C72.1 38.1 64 42.3 64 42.3C64 42.3 79.2 40.6 88.6 42.9C92.8 43.8 96.8 45.4 100.4 47.7C100.4 47.7 88.9 55.7 70 51.7C57.4 49 51.2 44.1 51.2 44.1C58 50.4 66.5 54.7 75.6 56.4C100.2 60.8 108.3 49 108.3 49C104.9 45.4 100.7 42.6 95.9 41.1ZM31.1 58.2C35.5 58 39.9 57.4 44.2 56.3C42.4 57.5 40.6 58.7 38.7 59.7C36.3 61.1 33.5 61.7 30.8 61.3C26.3 60.7 22 58.9 18.4 56.2C18.3 56.1 21.9 58.4 31.1 58.2ZM28.8 52.3C22.4 50.3 16.7 46.4 12.4 41.2C17.8 43 23.4 44.5 29 45.6C36 46.9 45.4 49.8 50.3 54C46.6 47.3 38.7 42.5 28.5 41.2C6.4 38.4 1 33 0 32C1.1 35.3 6.49996 49.5 20.4 54C31.7 57.7 45.5 54.6 45.5 54.6C45.5 54.6 38.6 55.6 28.8 52.3Z" fill="url(#paint0_linear_1407_2485)"/>
<path d="M55.0998 75.6996H52.0998L51.2998 77.9996H50.2998L53.3998 69.6996H53.7998L56.8998 77.9996H55.8998L55.0998 75.6996ZM52.3998 74.8996H54.7998L53.8998 72.3996L53.5998 71.0996L53.2998 72.3996L52.3998 74.8996ZM62.4998 70.5996H59.0998V77.8996H58.0998V69.6996H62.4998V70.5996ZM63.2998 69.7996H67.7998V70.6996H64.2998V73.3996H67.4998V74.2996H64.2998V77.1996H67.8998V78.0996H63.3998V69.7996H63.2998ZM74.4998 74.1996H70.5998V77.9996H69.5998V69.7996H70.5998V73.3996H74.5998V69.7996H75.5998V77.9996H74.5998L74.4998 74.1996ZM82.6998 70.5996H80.0998V77.8996H79.0998V70.5996H76.4998V69.6996H82.5998V70.5996H82.6998ZM88.5998 77.5996C88.2998 77.7996 87.9998 77.8996 87.6998 77.9996C87.2998 78.0996 86.8998 78.0996 86.5998 78.0996C86.0998 78.0996 85.6998 77.9996 85.2998 77.7996C84.8998 77.5996 84.4998 77.3996 84.1998 76.9996C83.8998 76.5996 83.5998 76.1996 83.3998 75.6996C83.1998 75.0996 83.0998 74.3996 83.0998 73.7996C83.0998 73.0996 83.1998 72.4996 83.3998 71.8996C83.5998 71.3996 83.8998 70.9996 84.1998 70.5996C84.4998 70.2996 84.8998 69.9996 85.2998 69.8996C85.6998 69.7996 86.0998 69.6996 86.4998 69.6996C86.8998 69.6996 87.2998 69.6996 87.5998 69.7996C87.8998 69.7996 88.0998 69.8996 88.3998 69.9996L88.1998 70.8996C87.6998 70.6996 87.0998 70.5996 86.5998 70.5996C86.2998 70.5996 85.9998 70.6996 85.6998 70.7996C85.3998 70.8996 85.0998 71.0996 84.8998 71.3996C84.5998 71.6996 84.3998 72.0996 84.2998 72.3996C84.0998 72.8996 84.0998 73.3996 84.0998 73.9996C84.0998 74.4996 84.1998 74.9996 84.2998 75.4996C84.3998 75.8996 84.5998 76.1996 84.8998 76.5996C85.0998 76.8996 85.3998 77.0996 85.7998 77.1996C86.0998 77.2996 86.4998 77.3996 86.8998 77.3996C87.1998 77.3996 87.4998 77.3996 87.7998 77.2996C87.9998 77.1996 88.2998 77.0996 88.4998 76.9996L88.5998 77.5996ZM95.2998 70.5996H92.6998V77.8996H91.6998V70.5996H89.1998V69.6996H95.2998V70.5996ZM101.4 71.5996C101.4 71.7996 101.4 71.9996 101.3 72.1996C101.2 72.5996 100.9 72.9996 100.5 73.1996C100.3 73.3996 100.1 73.4996 99.7998 73.4996C99.9998 73.4996 100.3 73.5996 100.5 73.6996C100.7 73.7996 100.9 73.8996 101.1 74.0996C101.3 74.2996 101.4 74.4996 101.5 74.6996C101.7 75.2996 101.7 75.9996 101.4 76.5996C101.2 76.8996 101 77.1996 100.7 77.3996C100.4 77.5996 100.1 77.7996 99.6998 77.7996C99.2998 77.8996 98.8998 77.8996 98.5998 77.8996H96.9998C96.7998 77.8996 96.6998 77.8996 96.4998 77.7996V69.6996C96.7998 69.5996 97.1998 69.5996 97.4998 69.5996C97.8998 69.5996 98.2998 69.5996 98.7998 69.5996C99.0998 69.5996 99.3998 69.5996 99.6998 69.6996C99.9998 69.6996 100.3 69.7996 100.6 69.9996C100.9 70.0996 101.1 70.3996 101.2 70.5996C101.4 70.9996 101.4 71.2996 101.4 71.5996ZM97.9998 73.3996H98.9998L99.4998 73.1996C99.6998 73.0996 99.7998 72.9996 99.8998 72.8996C99.9998 72.7996 100.1 72.5996 100.2 72.4996C100.4 72.0996 100.4 71.6996 100.2 71.2996C100.1 71.0996 99.9998 70.9996 99.7998 70.8996C99.5998 70.7996 99.3998 70.6996 99.1998 70.6996C98.9998 70.6996 98.7998 70.6996 98.5998 70.6996H97.8998C97.6998 70.6996 97.5998 70.6996 97.3998 70.6996V73.4996L97.9998 73.3996ZM98.6998 77.1996C98.8998 77.1996 99.1998 77.1996 99.3998 77.0996C99.5998 77.0996 99.7998 76.9996 99.9998 76.7996C100.2 76.6996 100.3 76.4996 100.4 76.2996C100.5 76.0996 100.6 75.8996 100.6 75.5996C100.6 75.0996 100.3 74.5996 99.8998 74.3996C99.6998 74.2996 99.3998 74.1996 99.1998 74.1996C98.8998 74.1996 98.6998 74.1996 98.3998 74.1996H97.3998V77.0996L98.6998 77.1996ZM103 73.8996C102.9 72.7996 103.3 71.6996 103.9 70.7996C104.5 70.0996 105.4 69.6996 106.3 69.6996C106.8 69.6996 107.3 69.7996 107.8 69.9996C108.2 70.1996 108.6 70.4996 108.9 70.8996C109.2 71.2996 109.4 71.7996 109.5 72.1996C109.6 72.7996 109.7 73.2996 109.7 73.8996C109.8 74.9996 109.5 76.0996 108.8 76.9996C108.2 77.6996 107.3 78.1996 106.3 78.0996C105.8 78.0996 105.3 77.9996 104.8 77.7996C104.4 77.5996 104 77.2996 103.8 76.8996C103.5 76.4996 103.3 75.9996 103.2 75.5996C103 74.9996 103 74.4996 103 73.8996ZM104 73.8996C104 74.2996 104 74.7996 104.1 75.1996C104.2 75.5996 104.3 75.8996 104.5 76.2996C104.7 76.5996 104.9 76.8996 105.2 76.9996C105.5 77.1996 105.9 77.2996 106.2 77.2996C106.9 77.2996 107.5 76.9996 107.9 76.4996C108.4 75.6996 108.6 74.7996 108.5 73.8996C108.5 73.4996 108.5 72.9996 108.4 72.5996C108.3 72.1996 108.2 71.8996 108 71.4996C107.8 71.1996 107.6 70.8996 107.3 70.7996C107 70.5996 106.6 70.4996 106.2 70.4996C105.5 70.4996 104.9 70.7996 104.5 71.2996C104.1 72.0996 103.9 72.9996 104 73.8996ZM119.2 70.5996H115.4V77.8996H114.4V69.6996H120.1V77.8996H119.1V70.5996H119.2ZM121.8 73.8996C121.7 72.7996 122 71.6996 122.7 70.7996C123.3 69.9996 124.2 69.5996 125.2 69.6996C125.7 69.6996 126.2 69.7996 126.7 69.9996C127.1 70.1996 127.5 70.4996 127.7 70.8996C128 71.2996 128.2 71.7996 128.3 72.1996C128.4 72.7996 128.5 73.3996 128.5 73.8996C128.6 74.9996 128.3 76.0996 127.6 76.9996C127 77.6996 126.1 78.1996 125.1 78.0996C124.6 78.0996 124.1 77.9996 123.6 77.7996C123.2 77.5996 122.8 77.2996 122.5 76.8996C122.2 76.4996 122 75.9996 121.9 75.5996C121.9 74.9996 121.9 74.4996 121.8 73.8996ZM122.9 73.8996C122.9 74.2996 122.9 74.7996 123 75.1996C123.1 75.5996 123.2 75.8996 123.4 76.2996C123.6 76.5996 123.8 76.8996 124.1 76.9996C124.4 77.1996 124.8 77.2996 125.1 77.2996C125.8 77.2996 126.4 76.9996 126.8 76.4996C127.3 75.6996 127.5 74.7996 127.4 73.8996C127.4 73.4996 127.4 72.9996 127.3 72.5996C127.2 72.1996 127.1 71.8996 126.9 71.4996C126.7 71.1996 126.5 70.8996 126.2 70.7996C125.9 70.5996 125.5 70.4996 125.1 70.4996C124.4 70.4996 123.8 70.7996 123.4 71.2996C123 72.0996 122.8 72.9996 122.9 73.8996ZM133.3 69.7996C133.6 69.6996 133.9 69.6996 134.3 69.6996H135.3C135.7 69.6996 136 69.6996 136.4 69.7996C136.8 69.8996 137.1 69.9996 137.4 70.1996C137.7 70.3996 138 70.6996 138.1 70.9996C138.3 71.3996 138.4 71.7996 138.4 72.2996C138.4 72.7996 138.3 73.1996 138.1 73.5996C137.9 73.8996 137.7 74.1996 137.4 74.3996C137.1 74.5996 136.8 74.7996 136.4 74.8996C136 74.9996 135.6 74.9996 135.2 74.9996H134.3V78.0996H133.3V69.7996ZM135.3 70.4996H134.7C134.5 70.4996 134.4 70.4996 134.2 70.4996V73.8996H135.1C135.4 73.8996 135.6 73.8996 135.9 73.7996C136.2 73.6996 136.4 73.6996 136.6 73.4996C136.8 73.3996 137 73.1996 137.1 72.8996C137.2 72.5996 137.3 72.2996 137.3 71.9996C137.3 71.6996 137.2 71.3996 137.1 71.1996C137 70.9996 136.8 70.7996 136.6 70.6996C136.4 70.5996 136.2 70.4996 135.9 70.3996C135.9 70.4996 135.6 70.4996 135.3 70.4996ZM143.1 75.6996H140.1L139.3 77.9996H138.3L141.4 69.5996H141.9L145 77.8996H143.9L143.1 75.6996ZM140.4 74.8996H142.8L141.9 72.3996L141.6 71.0996L141.3 72.3996L140.4 74.8996ZM146.7 74.0996V73.2996H148C148.2 73.2996 148.4 73.1996 148.6 73.0996C148.8 72.9996 148.9 72.8996 149.1 72.7996C149.2 72.6996 149.3 72.5996 149.4 72.3996C149.5 72.1996 149.5 72.0996 149.5 71.8996C149.5 71.6996 149.5 71.4996 149.4 71.2996C149.3 71.0996 149.2 70.9996 149 70.8996C148.8 70.7996 148.7 70.6996 148.5 70.6996C148.3 70.5996 148.1 70.5996 147.9 70.5996C147.5 70.5996 147.2 70.5996 146.8 70.6996C146.6 70.6996 146.3 70.7996 146.1 70.8996L145.8 70.0996C146.1 69.9996 146.3 69.8996 146.6 69.7996C147 69.6996 147.5 69.6996 147.9 69.6996C148.2 69.6996 148.5 69.6996 148.8 69.7996C149.1 69.8996 149.4 69.9996 149.6 70.0996C149.8 70.2996 150 70.4996 150.2 70.6996C150.4 70.9996 150.4 71.2996 150.4 71.6996C150.4 72.0996 150.3 72.4996 150 72.7996C149.7 73.1996 149.3 73.4996 148.8 73.5996C149.3 73.5996 149.8 73.8996 150.1 74.1996C150.4 74.5996 150.6 74.9996 150.6 75.4996C150.6 75.8996 150.5 76.2996 150.3 76.6996C150.1 76.9996 149.9 77.2996 149.6 77.4996C149.3 77.6996 149 77.8996 148.6 77.9996C148.2 78.0996 147.8 78.0996 147.5 78.0996C147.1 78.0996 146.6 78.0996 146.2 77.9996C145.9 77.9996 145.6 77.8996 145.4 77.7996L145.7 76.8996C145.9 76.9996 146.2 77.0996 146.5 77.0996C146.9 77.1996 147.3 77.1996 147.7 77.1996C147.9 77.1996 148.2 77.1996 148.4 77.0996C148.6 76.9996 148.8 76.8996 149 76.7996C149.2 76.6996 149.3 76.4996 149.4 76.2996C149.5 76.0996 149.6 75.7996 149.6 75.5996C149.6 75.1996 149.4 74.7996 149.1 74.4996C148.7 74.2996 148.2 74.0996 147.8 74.0996H146.7ZM157.3 71.6996C157.3 71.8996 157.2 72.0996 157.2 72.2996C157.1 72.4996 157 72.6996 156.9 72.8996C156.8 73.0996 156.6 73.1996 156.4 73.3996C156.2 73.4996 156 73.5996 155.7 73.6996C155.9 73.6996 156.2 73.7996 156.4 73.8996C156.6 73.9996 156.8 74.0996 157 74.2996C157.4 74.6996 157.6 75.1996 157.5 75.6996C157.5 76.0996 157.4 76.4996 157.2 76.7996C157 77.0996 156.8 77.3996 156.5 77.5996C156.2 77.7996 155.9 77.9996 155.5 77.9996C155.1 78.0996 154.8 78.0996 154.4 78.0996H152.8C152.6 78.0996 152.5 78.0996 152.3 77.9996V69.8996C152.6 69.7996 153 69.7996 153.3 69.7996C153.7 69.7996 154.1 69.7996 154.6 69.7996C154.9 69.7996 155.2 69.7996 155.5 69.8996C155.8 69.8996 156.1 69.9996 156.4 70.1996C156.7 70.2996 156.9 70.5996 157 70.7996C157.2 70.9996 157.3 71.2996 157.3 71.6996ZM154 73.3996H155C155.2 73.2996 155.4 73.2996 155.5 73.1996C155.7 73.0996 155.8 72.9996 155.9 72.8996C156 72.7996 156.1 72.5996 156.2 72.4996C156.3 72.2996 156.3 72.1996 156.3 71.9996C156.3 71.7996 156.3 71.5996 156.2 71.3996C156.1 71.1996 156 71.0996 155.8 70.9996C155.6 70.8996 155.4 70.7996 155.2 70.7996C155 70.7996 154.8 70.7996 154.5 70.7996H153.8C153.6 70.7996 153.5 70.7996 153.3 70.7996V73.5996L154 73.3996ZM154.6 77.2996C154.8 77.2996 155.1 77.2996 155.3 77.1996C155.5 77.1996 155.7 77.0996 155.9 76.8996C156.1 76.7996 156.2 76.5996 156.3 76.3996C156.4 76.1996 156.5 75.9996 156.5 75.6996C156.5 75.1996 156.3 74.6996 155.8 74.4996C155.6 74.3996 155.3 74.2996 155.1 74.2996C154.8 74.2996 154.6 74.2996 154.3 74.2996H153.3V77.1996L154.6 77.2996ZM164.3 72.3996V71.4996L163.8 72.4996L159.8 77.9996H159.2V69.7996H160.2V75.3996L160.1 76.2996L160.6 75.2996L164.6 69.6996H165.2V77.8996H164.2L164.3 72.3996ZM172.5 70.5996H170V77.8996H169V70.5996H166.4V69.6996H172.5V70.5996ZM178.8 72.3996L178.9 71.4996L178.4 72.4996L174.4 77.9996H173.8V69.7996H174.8V75.3996L174.7 76.2996L175.2 75.2996L179.2 69.6996H179.8V77.8996H178.8V72.3996ZM182.7 73.3996H184.2C184.2 72.3996 184.5 71.3996 185.1 70.5996C185.7 69.8996 186.5 69.5996 187.4 69.5996C187.9 69.5996 188.4 69.6996 188.9 69.8996C189.3 70.0996 189.6 70.3996 189.9 70.7996C190.2 71.1996 190.4 71.6996 190.5 72.0996C190.6 72.6996 190.7 73.2996 190.7 73.7996C190.8 74.8996 190.5 75.9996 189.9 76.8996C189.3 77.6996 188.4 78.0996 187.5 77.9996C187 77.9996 186.5 77.8996 186.1 77.6996C185.7 77.4996 185.4 77.2996 185.1 76.8996C184.8 76.4996 184.6 76.0996 184.5 75.6996C184.4 75.1996 184.3 74.5996 184.3 74.0996H182.9V77.8996H181.9V69.6996H182.9L182.7 73.3996ZM185.2 73.8996C185.2 74.2996 185.2 74.7996 185.3 75.1996C185.4 75.5996 185.5 75.8996 185.7 76.2996C185.9 76.5996 186.1 76.8996 186.4 76.9996C187.3 77.4996 188.5 77.2996 189.1 76.4996C189.5 75.6996 189.7 74.7996 189.6 73.8996C189.6 73.4996 189.6 72.9996 189.5 72.5996C189.4 72.1996 189.3 71.8996 189.1 71.4996C188.9 71.1996 188.7 70.8996 188.4 70.7996C188.1 70.5996 187.7 70.4996 187.4 70.4996C186.7 70.4996 186.1 70.7996 185.8 71.2996C185.3 72.0996 185.2 72.9996 185.2 73.8996ZM51.9998 83.8996V86.5996C51.9998 87.6996 52.4998 88.1996 53.4998 88.1996C53.7998 88.1996 54.1998 88.1996 54.4998 88.0996C54.7998 87.9996 55.0998 87.8996 55.2998 87.6996V83.9996H56.2998V92.1996H55.2998V88.6996C54.9998 88.7996 54.7998 88.9996 54.4998 89.0996C54.0998 89.1996 53.6998 89.2996 53.2998 89.2996C52.9998 89.2996 52.6998 89.2996 52.3998 89.1996C52.0998 89.0996 51.8998 88.9996 51.6998 88.7996C51.4998 88.5996 51.2998 88.3996 51.1998 88.0996C51.0998 87.6996 50.9998 87.3996 50.9998 86.9996V84.0996L51.9998 83.8996ZM58.2998 83.8996H62.7998V84.7996H59.2998V87.4996H62.5998V88.3996H59.3998V91.2996H62.8998V92.1996H58.2998V83.8996ZM68.8998 84.6996H66.4998L66.1998 88.5996C66.0998 89.3996 65.8998 90.1996 65.5998 90.9996C65.4998 91.2996 65.2998 91.5996 64.9998 91.7996C64.7998 91.9996 64.4998 92.0996 64.1998 92.0996C64.0998 92.0996 63.9998 92.0996 63.7998 92.0996C63.6998 92.0996 63.5998 92.0996 63.4998 91.9996L63.5998 91.0996C63.6998 91.0996 63.7998 91.0996 63.8998 91.0996C63.9998 91.0996 64.1998 91.0996 64.2998 90.9996C64.4998 90.8996 64.5998 90.6996 64.6998 90.4996C64.7998 90.1996 64.8998 89.8996 64.9998 89.6996C65.0998 89.2996 65.1998 88.7996 65.2998 88.3996C65.2998 87.8996 65.3998 87.1996 65.4998 86.4996L65.5998 83.7996H69.8998V91.9996H68.8998V84.6996ZM71.5998 87.9996C71.4998 86.8996 71.7998 85.7996 72.4998 84.8996C73.0998 84.1996 73.9998 83.6996 74.9998 83.7996C75.4998 83.7996 75.9998 83.8996 76.4998 84.0996C76.8998 84.2996 77.2998 84.5996 77.5998 84.9996C77.8998 85.3996 78.0998 85.8996 78.1998 86.2996C78.2998 86.8996 78.3998 87.4996 78.3998 87.9996C78.4998 89.0996 78.1998 90.1996 77.4998 91.0996C76.8998 91.7996 75.9998 92.2996 74.9998 92.1996C74.4998 92.1996 73.9998 92.0996 73.4998 91.8996C73.0998 91.6996 72.6998 91.3996 72.4998 90.9996C72.1998 90.5996 71.9998 90.0996 71.8998 89.6996C71.5998 89.0996 71.5998 88.5996 71.5998 87.9996ZM72.5998 87.9996C72.5998 88.3996 72.5998 88.8996 72.6998 89.2996C72.7998 89.6996 72.8998 89.9996 73.0998 90.3996C73.2998 90.6996 73.4998 90.9996 73.7998 91.0996C74.0998 91.2996 74.4998 91.3996 74.7998 91.3996C75.4998 91.3996 76.0998 91.0996 76.4998 90.5996C76.9998 89.7996 77.1998 88.8996 77.0998 87.9996C77.0998 87.5996 77.0998 87.0996 76.9998 86.6996C76.8998 86.2996 76.7998 85.9996 76.5998 85.5996C76.3998 85.2996 76.1998 84.9996 75.8998 84.8996C75.5998 84.6996 75.1998 84.5996 74.8998 84.5996C74.1998 84.5996 73.5998 84.8996 73.1998 85.3996C72.6998 86.0996 72.4998 87.0996 72.5998 87.9996ZM84.8998 85.6996C84.8998 85.8996 84.8998 86.0996 84.7998 86.2996C84.6998 86.4996 84.5998 86.6996 84.4998 86.8996C84.3998 87.0996 84.1998 87.1996 83.9998 87.3996C83.7998 87.4996 83.5998 87.5996 83.2998 87.6996C83.4998 87.6996 83.7998 87.7996 83.9998 87.8996C84.1998 87.9996 84.3998 88.0996 84.5998 88.2996C84.7998 88.4996 84.8998 88.6996 84.9998 88.8996C85.0998 89.1996 85.1998 89.4996 85.0998 89.6996C85.0998 90.0996 84.9998 90.4996 84.7998 90.7996C84.5998 91.0996 84.3998 91.3996 84.0998 91.5996C83.7998 91.7996 83.4998 91.8996 83.0998 91.9996C82.6998 92.0996 82.2998 92.0996 81.9998 92.0996H80.3998C80.1998 92.0996 80.0998 92.0996 79.8998 91.9996V83.8996C80.1998 83.8996 80.4998 83.7996 80.8998 83.7996C81.2998 83.7996 81.6998 83.7996 82.1998 83.7996C82.4998 83.7996 82.7998 83.7996 83.0998 83.8996C83.3998 83.8996 83.6998 83.9996 83.9998 84.1996C84.2998 84.2996 84.4998 84.5996 84.5998 84.7996C84.7998 85.0996 84.8998 85.3996 84.8998 85.6996ZM81.4998 87.4996H82.3998C82.5998 87.3996 82.7998 87.3996 82.8998 87.2996C83.0998 87.1996 83.1998 87.0996 83.2998 86.9996C83.5998 86.7996 83.6998 86.3996 83.6998 86.0996C83.6998 85.8996 83.6998 85.6996 83.5998 85.4996C83.4998 85.2996 83.3998 85.1996 83.1998 85.0996C82.9998 84.9996 82.7998 84.8996 82.5998 84.8996C82.3998 84.8996 82.1998 84.7996 81.9998 84.7996H81.2998C81.0998 84.7996 80.9998 84.7996 80.7998 84.7996V87.5996L81.4998 87.4996ZM82.0998 91.2996C82.2998 91.2996 82.5998 91.2996 82.7998 91.1996C82.9998 91.1996 83.1998 91.0996 83.3998 90.8996C83.5998 90.7996 83.6998 90.5996 83.7998 90.3996C83.8998 90.1996 83.9998 89.9996 83.9998 89.6996C83.9998 89.1996 83.6998 88.6996 83.2998 88.4996C83.0998 88.3996 82.7998 88.2996 82.5998 88.2996C82.2998 88.2996 82.0998 88.2996 81.7998 88.2996H80.7998V91.1996L82.0998 91.2996ZM86.7998 83.8996H91.2998V84.7996H87.7998V87.4996H90.9998V88.3996H87.7998V91.2996H91.3998V92.1996H86.8998L86.7998 83.8996ZM93.8998 83.8996V86.5996C93.8998 87.6996 94.3998 88.1996 95.3998 88.1996C95.7998 88.1996 96.0998 88.1996 96.3998 88.0996C96.6998 87.9996 96.8998 87.8996 97.1998 87.6996V83.9996H98.1998V92.1996H97.1998V88.6996C96.8998 88.7996 96.6998 88.9996 96.3998 89.0996C95.9998 89.1996 95.5998 89.2996 95.1998 89.2996C94.8998 89.2996 94.5998 89.2996 94.2998 89.1996C93.9998 89.0996 93.7998 88.9996 93.5998 88.7996C93.3998 88.5996 93.1998 88.3996 93.0998 88.0996C92.9998 87.6996 92.8998 87.3996 92.8998 86.9996V84.0996L93.8998 83.8996ZM100.2 83.8996H104.7V84.7996H101.3V87.4996H104.5V88.3996H101.3V91.2996H104.9V92.1996H100.4L100.2 83.8996ZM111.7 91.6996C111.4 91.8996 111.1 91.9996 110.8 92.0996C110.4 92.1996 110 92.1996 109.7 92.1996C109.2 92.1996 108.8 92.0996 108.4 91.8996C108 91.6996 107.6 91.4996 107.3 91.0996C106.9 90.6996 106.7 90.2996 106.5 89.7996C106.3 89.1996 106.2 88.4996 106.2 87.8996C106.2 87.1996 106.3 86.5996 106.5 85.9996C106.7 85.4996 107 84.9996 107.3 84.6996C107.6 84.3996 108 84.0996 108.4 83.9996C108.8 83.7996 109.3 83.7996 109.7 83.7996C110.1 83.7996 110.5 83.7996 110.8 83.7996C111.1 83.7996 111.3 83.8996 111.6 83.9996L111.4 84.8996C110.9 84.6996 110.3 84.5996 109.8 84.5996C109.5 84.5996 109.2 84.6996 108.9 84.7996C108.6 84.8996 108.3 85.0996 108.1 85.3996C107.8 85.6996 107.6 86.0996 107.5 86.3996C107.3 86.8996 107.3 87.3996 107.3 87.9996C107.3 88.4996 107.4 88.9996 107.5 89.4996C107.6 89.8996 107.8 90.1996 108.1 90.5996C108.3 90.8996 108.6 91.0996 109 91.1996C109.3 91.2996 109.7 91.3996 110.1 91.3996C110.4 91.3996 110.7 91.3996 111 91.2996C111.2 91.2996 111.4 91.1996 111.6 91.0996L111.7 91.6996ZM114.7 88.2996H114.1V92.0996H113.2V83.8996H114.2V87.6996L114.7 87.4996L117.5 83.7996H118.6L115.9 87.2996L115.4 87.6996L116 88.1996L119 91.9996H117.8L114.7 88.2996ZM119.8 87.9996C119.7 86.8996 120 85.7996 120.7 84.8996C121.3 84.1996 122.2 83.7996 123.2 83.7996C123.7 83.7996 124.2 83.8996 124.7 84.0996C125.1 84.2996 125.5 84.5996 125.8 84.9996C126.1 85.3996 126.3 85.8996 126.4 86.2996C126.5 86.8996 126.6 87.4996 126.6 87.9996C126.7 89.0996 126.4 90.1996 125.7 91.0996C125.1 91.7996 124.2 92.2996 123.2 92.1996C122.7 92.1996 122.2 92.0996 121.7 91.8996C121.3 91.6996 120.9 91.3996 120.7 90.9996C120.4 90.5996 120.2 90.0996 120.1 89.6996C119.8 89.0996 119.8 88.4996 119.8 87.9996ZM120.8 87.9996C120.8 88.3996 120.8 88.8996 120.9 89.2996C121 89.6996 121.1 89.9996 121.3 90.3996C121.5 90.6996 121.7 90.9996 122 91.0996C122.3 91.2996 122.7 91.3996 123 91.3996C123.7 91.3996 124.3 91.0996 124.7 90.5996C125.2 89.7996 125.4 88.8996 125.3 88.0996C125.3 87.6996 125.3 87.1996 125.2 86.7996C125.1 86.3996 125 86.0996 124.8 85.6996C124.6 85.3996 124.4 85.0996 124.1 84.9996C123.8 84.7996 123.4 84.6996 123 84.6996C122.3 84.6996 121.7 84.9996 121.3 85.4996C120.9 86.1996 120.7 87.0996 120.8 87.9996ZM132.5 84.6996H129.1V91.9996H128.1V83.7996H132.5V84.6996ZM132.7 87.9996C132.6 86.8996 132.9 85.7996 133.6 84.8996C134.2 84.1996 135.1 83.7996 136.1 83.7996C136.6 83.7996 137.1 83.8996 137.6 84.0996C138 84.2996 138.4 84.5996 138.7 84.9996C139 85.3996 139.2 85.8996 139.3 86.2996C139.4 86.8996 139.5 87.4996 139.5 87.9996C139.6 89.0996 139.3 90.1996 138.6 91.0996C138 91.7996 137.1 92.2996 136.1 92.1996C135.6 92.1996 135.1 92.0996 134.6 91.8996C134.2 91.6996 133.8 91.3996 133.6 90.9996C133.3 90.5996 133.1 90.0996 133 89.6996C132.8 89.0996 132.7 88.4996 132.7 87.9996ZM133.7 87.9996C133.7 88.3996 133.7 88.8996 133.8 89.2996C133.9 89.6996 134 89.9996 134.2 90.3996C134.4 90.6996 134.6 90.9996 134.9 91.0996C135.2 91.2996 135.6 91.3996 135.9 91.3996C136.6 91.3996 137.2 91.0996 137.6 90.5996C138.1 89.7996 138.3 88.8996 138.2 88.0996C138.2 87.6996 138.2 87.1996 138.1 86.7996C138 86.3996 137.9 86.0996 137.7 85.6996C137.5 85.3996 137.3 85.0996 137 84.9996C136.7 84.7996 136.3 84.6996 135.9 84.6996C135.2 84.6996 134.6 84.9996 134.2 85.4996C133.9 86.1996 133.7 87.0996 133.7 87.9996ZM145.7 88.2996H145.2V92.0996H144.2V83.8996H145.2V87.6996L145.7 87.4996L148.5 83.7996H149.6L146.9 87.2996L146.4 87.6996L147 88.1996L150 91.9996H148.8L145.7 88.2996ZM155.3 89.7996H152.3L151.5 92.0996H150.5L153.6 83.7996H154L157.1 92.0996H156.1L155.3 89.7996ZM152.6 88.8996H155L154.1 86.3996L153.8 85.0996L153.5 86.3996L152.6 88.8996ZM163 84.6996H159.2V91.9996H158.2V83.7996H163.9V91.9996H162.9V84.6996H163ZM171 86.4996L171.1 85.5996L170.6 86.5996L166.6 92.0996H166V83.8996H167V89.4996L166.9 90.3996L167.4 89.3996L171.4 83.7996H172V91.9996H171V86.4996ZM179.3 84.6996H176.7V91.9996H175.7V84.6996H173.2V83.7996H179.3V84.6996ZM183.6 89.7996H180.6L179.8 92.0996H178.8L181.9 83.7996H182.3L185.4 92.0996H184.4L183.6 89.7996ZM180.9 88.8996H183.3L182.4 86.3996L182.1 85.0996L181.8 86.3996L180.9 88.8996Z" fill="url(#paint1_linear_1407_2485)"/>
<path d="M190.8 84.7007H188.3L188.1 88.6008C188 89.4008 187.8 90.2008 187.5 91.0008C187.4 91.3008 187.2 91.6008 186.9 91.8008C186.7 92.0008 186.4 92.1008 186.1 92.1008C186 92.1008 185.9 92.1008 185.7 92.1008C185.6 92.1008 185.5 92.1008 185.4 92.0008L185.5 91.1008C185.6 91.1008 185.7 91.1008 185.7 91.1008C185.8 91.1008 186 91.1008 186.1 91.0008C186.3 90.9008 186.4 90.7008 186.5 90.5008C186.6 90.2008 186.7 89.9007 186.8 89.7007C186.9 89.3007 187 88.8008 187.1 88.4008C187.2 87.9008 187.2 87.2008 187.3 86.5008L187.4 83.8008H191.7V92.0008H190.7V84.7007H190.8ZM197.7 89.8008H194.7L193.9 92.1008H192.9L196 83.8008H196.5L199.6 92.1008H198.6L197.7 89.8008ZM195.1 88.9008H197.5L196.6 86.4008L196.3 85.1008L196 86.4008L195.1 88.9008ZM56.0996 102.401H52.0996V106.201H51.0996V98.0008H52.0996V101.601H56.0996V98.0008H57.0996V106.201H56.0996V102.401ZM62.9996 103.901H59.9996L59.1996 106.201H58.1996L61.2996 97.9008H61.7996L64.8996 106.201H63.8996L62.9996 103.901ZM60.2996 103.001H62.6996L61.7996 100.501L61.4996 99.3008L61.1996 100.601L60.2996 103.001ZM74.8996 107.701H74.1996L73.9996 106.201H68.1996L67.9996 107.701H67.2996V105.301H68.0996C68.1996 105.101 68.2996 104.901 68.3996 104.701C68.5996 104.301 68.6996 103.801 68.7996 103.401C68.8996 102.801 68.9996 102.101 69.0996 101.201C69.1996 100.201 69.2996 99.1008 69.1996 98.0008H73.5996V105.301H74.6996L74.8996 107.701ZM72.7996 105.301V98.8008H70.2996C70.2996 99.7008 70.1996 100.401 70.1996 101.101L69.9996 102.901C69.8996 103.401 69.7996 103.801 69.6996 104.201C69.5996 104.501 69.4996 104.801 69.2996 105.201L72.7996 105.301ZM80.0996 103.901H77.0996L76.2996 106.201H75.2996L78.3996 97.9008H78.8996L81.9996 106.201H80.9996L80.0996 103.901ZM77.3996 103.001H79.7996L78.8996 100.501L78.5996 99.3008L78.2996 100.601L77.3996 103.001Z" fill="url(#paint2_linear_1407_2485)"/>
<path d="M87.2998 98.7999H84.7998L84.4998 102.7C84.3998 103.5 84.1998 104.3 83.8998 105.1C83.7998 105.4 83.5998 105.7 83.2998 105.9C83.0998 106.1 82.7998 106.2 82.4998 106.2C82.3998 106.2 82.2998 106.2 82.0998 106.2C81.9998 106.2 81.8998 106.2 81.7998 106.1L81.8998 105.2C81.9998 105.2 82.0998 105.2 82.1998 105.2C82.2998 105.2 82.4998 105.2 82.5998 105.1C82.7998 105 82.8998 104.8 82.9998 104.6C83.0998 104.3 83.1998 104 83.2998 103.8C83.3998 103.4 83.4998 102.9 83.5998 102.5C83.5998 102 83.6998 101.3 83.7998 100.6L83.8998 97.8998H88.1998V106.1H87.1998L87.2998 98.7999ZM90.2998 97.8998H91.2998V101.1H92.4998C92.8998 101.1 93.1998 101.1 93.5998 101.2C93.8998 101.3 94.2998 101.4 94.4998 101.6C94.7998 101.8 94.9998 102.1 95.1998 102.4C95.3998 102.8 95.4998 103.2 95.4998 103.6C95.4998 104 95.3998 104.4 95.1998 104.8C94.9998 105.1 94.7998 105.4 94.4998 105.7C94.1998 105.9 93.8998 106.1 93.4998 106.2C93.0998 106.3 92.6998 106.4 92.1998 106.4H90.7998L90.2998 106.3V97.8998V97.8998ZM92.2998 105.4C92.5998 105.4 92.7998 105.4 93.0998 105.3C93.2998 105.2 93.5998 105.1 93.7998 105C93.9998 104.8 94.0998 104.6 94.1998 104.4C94.2998 104.1 94.3998 103.9 94.3998 103.6C94.3998 103.3 94.2998 103 94.1998 102.8C94.0998 102.6 93.8998 102.4 93.6998 102.3C93.4998 102.2 93.2998 102.1 92.9998 102C92.6998 102 92.4998 102 92.1998 102H91.1998V105.3C91.3998 105.3 91.4998 105.3 91.6998 105.3L92.2998 105.4ZM101.7 102.4H97.6998V106.2H96.6998V97.9999H97.6998V101.6H101.7V97.9999H102.7V106.2H101.7V102.4ZM104.7 97.8998H109.2V98.7999H105.6V101.5H108.8V102.4H105.6V105.3H109.2V106.2H104.7V97.8998ZM117.3 100.6L117.4 99.3998L117 100.5L114.8 104.3H114.5L112.2 100.6L111.8 99.4999L112 100.7V106.2H111.1V97.8998H111.8L114.4 102.1L114.8 103L115.2 102.1L117.7 97.8998H118.5V106.1H117.5L117.3 100.6ZM128.4 99.7999C128.4 99.9999 128.4 100.2 128.3 100.4C128.2 100.6 128.1 100.8 128 101C127.9 101.2 127.7 101.3 127.5 101.5C127.3 101.6 127.1 101.7 126.8 101.8C127 101.8 127.3 101.9 127.5 102C127.7 102.1 127.9 102.2 128.1 102.4C128.3 102.6 128.4 102.8 128.5 103C128.6 103.3 128.7 103.6 128.6 103.8C128.6 104.2 128.5 104.6 128.3 104.9C128.1 105.2 127.9 105.5 127.6 105.7C127.3 105.9 127 106 126.6 106.1C126.2 106.2 125.9 106.2 125.5 106.2H123.8C123.6 106.2 123.5 106.2 123.3 106.1V97.9999L124.3 97.8998H125.6C125.9 97.8998 126.2 97.8999 126.5 97.9999C126.8 97.9999 127.1 98.0999 127.4 98.2999C127.7 98.3999 127.9 98.6998 128 98.8998C128.3 99.0998 128.4 99.4999 128.4 99.7999ZM125 101.6H125.5C125.7 101.6 125.8 101.6 126 101.6C126.2 101.5 126.4 101.5 126.5 101.4C126.7 101.3 126.8 101.2 126.9 101.1C127 101 127.1 100.8 127.2 100.7C127.4 100.3 127.4 99.8999 127.2 99.4999C127.1 99.2999 127 99.1998 126.8 99.0998C126.6 98.9998 126.4 98.8998 126.2 98.8998C126 98.8998 125.8 98.8998 125.5 98.8998H124.8C124.6 98.8998 124.5 98.8998 124.3 98.8998V101.7L125 101.6ZM125.7 105.4C125.9 105.4 126.2 105.4 126.4 105.3C126.6 105.3 126.8 105.2 127 105C127.2 104.9 127.3 104.7 127.4 104.5C127.5 104.3 127.6 104.1 127.6 103.8C127.6 103.5 127.5 103.3 127.4 103C127.3 102.8 127.1 102.6 126.9 102.5C126.7 102.4 126.4 102.3 126.2 102.3C125.9 102.3 125.7 102.3 125.4 102.3H124.4V105.2C124.5 105.2 124.6 105.2 124.6 105.2L125.7 105.4ZM129.9 102C129.8 100.9 130.1 99.7998 130.8 98.8998C131.4 98.1998 132.3 97.6999 133.3 97.7999C133.8 97.7999 134.3 97.8998 134.8 98.0998C135.2 98.2998 135.6 98.5999 135.9 98.9999C136.2 99.3999 136.4 99.8999 136.5 100.3C136.6 100.9 136.7 101.5 136.7 102C136.8 103.1 136.5 104.2 135.8 105.1C135.2 105.8 134.3 106.2 133.3 106.2C132.8 106.2 132.3 106.1 131.8 105.9C131.4 105.7 131 105.4 130.8 105C130.5 104.6 130.3 104.1 130.2 103.7C130 103.3 129.9 102.6 129.9 102ZM131 102C131 102.4 131 102.9 131.1 103.3C131.2 103.7 131.3 104 131.5 104.4C131.7 104.7 131.9 105 132.2 105.1C132.5 105.3 132.9 105.4 133.2 105.4C133.9 105.4 134.5 105.1 134.9 104.6C135.4 103.8 135.6 102.9 135.5 102.1C135.5 101.7 135.5 101.2 135.4 100.8C135.3 100.4 135.2 100.1 135 99.6998C134.8 99.3998 134.6 99.0999 134.3 98.9999C134 98.7999 133.6 98.6998 133.3 98.6998C132.6 98.6998 132 98.9999 131.6 99.4999C131.1 100.2 130.9 101.1 131 102ZM143.6 105.8C143.3 106 143 106.1 142.7 106.2C142.3 106.3 141.9 106.3 141.5 106.3C141 106.3 140.6 106.2 140.2 106.1C139.8 105.9 139.4 105.7 139.1 105.3C138.8 104.9 138.5 104.5 138.3 104C138.1 103.4 138 102.7 138 102.1C138 101.4 138.1 100.8 138.3 100.1C138.5 99.5998 138.8 99.0999 139.1 98.7999C139.4 98.4999 139.8 98.1998 140.2 98.0998C140.6 97.8998 141.1 97.8998 141.5 97.8998C141.9 97.8998 142.3 97.8999 142.6 97.9999C142.9 97.9999 143.1 98.0998 143.4 98.1998L143.2 99.0998C142.7 98.8998 142.1 98.7999 141.6 98.7999C141.3 98.7999 140.9 98.8999 140.6 98.9999C140.3 99.0999 140 99.2998 139.8 99.5998C139.5 99.8998 139.3 100.3 139.2 100.6C139 101.1 139 101.6 139 102.2C139 102.7 139.1 103.2 139.2 103.7C139.3 104.1 139.5 104.4 139.8 104.8C140 105.1 140.3 105.3 140.7 105.4C141 105.5 141.4 105.6 141.8 105.6C142.1 105.6 142.4 105.6 142.7 105.5C142.9 105.4 143.2 105.4 143.4 105.2L143.6 105.8ZM150.2 98.7999H147.6V106.1H146.5V98.7999H143.9V97.8998H150L150.2 98.7999ZM150.5 102C150.4 100.9 150.7 99.7998 151.4 98.8998C152 98.1998 152.9 97.6999 153.9 97.7999C154.4 97.7999 154.9 97.8998 155.4 98.0998C155.8 98.2998 156.2 98.5999 156.5 98.9999C156.8 99.3999 157 99.8999 157.1 100.3C157.2 100.9 157.3 101.5 157.3 102C157.4 103.1 157.1 104.2 156.4 105.1C155.8 105.8 154.9 106.3 153.9 106.2C153.4 106.2 152.9 106.1 152.4 105.9C152 105.7 151.6 105.4 151.4 105C151.1 104.6 150.9 104.1 150.8 103.7C150.6 103.2 150.5 102.6 150.5 102ZM151.5 102C151.5 102.4 151.5 102.9 151.6 103.3C151.7 103.7 151.8 104 152 104.4C152.2 104.7 152.4 105 152.7 105.1C153 105.3 153.4 105.4 153.7 105.4C154.4 105.4 155 105.1 155.4 104.6C155.9 103.8 156.1 102.9 156 102.1C156 101.7 156 101.2 155.9 100.8C155.8 100.4 155.7 100.1 155.5 99.6998C155.3 99.3998 155.1 99.0999 154.8 98.9999C154.5 98.7999 154.1 98.6998 153.7 98.6998C153 98.6998 152.4 98.9999 152 99.4999C151.7 100.2 151.4 101.1 151.5 102ZM160.4 102.4H159.9V106.2H158.9V97.9999H159.9V101.8L160.4 101.6L163.1 97.8998H164.2L161.5 101.4L161 101.8L161.6 102.3L164.6 106.1H163.4L160.4 102.4ZM166 97.9999H170.5V98.8998H167V101.6H170.2V102.5H167V105.4H170.6V106.3H166.1L166 97.9999Z" fill="url(#paint3_linear_1407_2485)"/>
<defs>
<linearGradient id="paint0_linear_1407_2485" x1="-0.6778" y1="30.8138" x2="211.863" y2="30.8138" gradientUnits="userSpaceOnUse">
<stop stop-color="#1C8AE2"/>
<stop offset="0.4865" stop-color="#8B00B3"/>
<stop offset="1" stop-color="#6900B5"/>
</linearGradient>
<linearGradient id="paint1_linear_1407_2485" x1="-0.677985" y1="80.9248" x2="211.863" y2="80.9248" gradientUnits="userSpaceOnUse">
<stop stop-color="#1C8AE2"/>
<stop offset="0.4865" stop-color="#8B00B3"/>
<stop offset="1" stop-color="#6900B5"/>
</linearGradient>
<linearGradient id="paint2_linear_1407_2485" x1="-0.678189" y1="95.678" x2="211.863" y2="95.678" gradientUnits="userSpaceOnUse">
<stop stop-color="#1C8AE2"/>
<stop offset="0.4865" stop-color="#8B00B3"/>
<stop offset="1" stop-color="#6900B5"/>
</linearGradient>
<linearGradient id="paint3_linear_1407_2485" x1="-0.677985" y1="102.054" x2="211.863" y2="102.054" gradientUnits="userSpaceOnUse">
<stop stop-color="#1C8AE2"/>
<stop offset="0.4865" stop-color="#8B00B3"/>
<stop offset="1" stop-color="#6900B5"/>
</linearGradient>
</defs>
</svg>
