<svg xmlns="http://www.w3.org/2000/svg" xml:space="preserve" id="Слой_1" x="0" y="0" style="enable-background:new 0 0 561.4 226.7" version="1.1" viewBox="0 0 561.4 226.7"><style>.st0{fill:#fff}</style><path d="M57.8 100.9c-3.7-2.5-7.5-4.7-11.2-6.7-3.8-2-8-3-12.7-3-6.2.3-11.8 2.3-16.9 5.9-1.2.8-2.3 2.1-3.3 3.9-.5 1-1 1.9-1.3 2.8l-1.2 2.4c-.9 1.6-2.2 2.2-3.7 1.8-1.9-.8-2.7-1.9-2.5-3.5 0-1.6.3-3 .8-3.9 1.4-4.7 3.8-8.2 7.3-10.5 7.6-5.3 15.2-7.5 22.7-6.7 3.4.3 6.3 1 8.5 2.1 4.3 2.4 8.7 4.5 13 6.5.7.2 2.4.7 5.2 1.5 1.1-1.3 1.9-2.5 2.4-3.5 3-5.6 6-11.3 9-16.8 2.9-5.6 5.9-11.2 9-16.8 3-6.4 6.3-12.6 9.7-18.7 3.4-6.1 6.9-12.3 10.4-18.5 1.5-2.8 3.5-5.6 6-8.4 2.9-3.4 6.5-4.3 11-2.8 3.1 1.4 4.9 3.5 5.5 6.5.4 2.7.7 5.3 1 8 .3 2.7.1 5.3-.7 7.8-.2.8-.4 1.8-.5 2.8-.1 1-.1 2-.2 2.9-1.4 7.3-2.6 12.8-3.4 16.5-.9 3.9-1.8 7.8-2.7 11.6-.9 3.8-1.7 7.8-2.4 11.8-2.1 9.5-3.8 19-5.2 28.6-1.4 7.3-2 12.8-1.7 16.7 1 .7 2.1 1 3.3.8 1.2-.2 2.4-.4 3.4-.6 1.6 0 2.6 1 2.7 2.8-.1 2.5-1.1 4.2-3.2 5-.8.2-3.5 1-8 2.2-.7 1.5-1.1 2.5-1.3 3.2-2.3 8.7-3.8 17.5-4.6 26.4-.7 8.9-1.3 17.8-1.8 26.8-.2 3-.3 6.1-.4 9.1-.1 3.2.2 6.2 1 9.2.1.5.1 1 .1 1.5s.1 1 .4 1.5c1.2 4.8 4.3 6.4 9.1 4.7 2.8-.8 5.1-2.5 6.8-5 1.2-1.8 2.4-3.5 3.7-5.3 1.2-1.8 2.4-3.6 3.4-5.6 2.2-3.6 4.4-7.2 6.5-10.9 2.1-3.7 3.9-7.6 5.3-11.6.8-2.8 1.8-5.5 2.9-8.1 1.1-2.6 2.1-5.2 3.1-7.7.4-.6.9-1.5 1.5-2.7 1.3-1.5 2.7-1.2 4 .8.9 1.7 1 3.6.1 5.6-.8 2.8-1.7 5.6-2.6 8.4-.9 2.8-2 5.5-3.3 8.2-1.5 3.5-3 7-4.6 10.4-1.6 3.4-3.4 6.7-5.5 9.8-1.9 2.5-3.8 5.2-5.9 7.9-2 2.8-4 5.7-6 8.6-2.4 3.3-6.4 5.2-12 5.6-5.7.5-10-1.4-13-5.5-5.9-7.1-8.7-14.4-8.4-22 .1-5.8.1-11.7.2-17.6.1-5.9.4-11.8 1-17.8.9-8.8 2.3-18.7 4.1-29.6.6-3.8-.6-6.8-3.7-9.1-2.6-1.7-5.1-3.5-7.4-5.3-2.4-1.9-4.8-3.6-7.1-5.2-1-.7-2.1-1.4-3.3-2-1.6-.9-2.8-.5-3.6 1.4-.2-.1-.8 1.2-1.8 3.7-2.2 4.2-4.3 8.4-6.3 12.5s-4 8.2-5.9 12.3c-.8 1.9-1.7 3.5-2.7 5-1 1.5-1.9 3-2.6 4.7-2 3.6-2.9 5.3-2.6 5.2-1.4 3.1-2.7 6.2-4.1 9.1-1.3 3-2.6 5.9-3.7 8.9-.7 1.6-1.3 2.8-1.7 3.3-1.4 1.5-2.9 1.8-4.6 1.2-1.7-.5-2.3-1.7-1.8-3.6.4-1.3 1-3.3 1.8-6.1 2-4.5 4-9.1 6-13.7 2-4.5 4-9.3 6-14 2-4.5 4.8-10.4 8.3-17.6 1-2.7 2.1-5.6 3.4-8.5 1.2-2.9 2.4-5.9 3.5-8.8v-2.2zm14.3-1.5c3.5 2.4 8.4 6.1 14.5 10.8.7.9 1.5 1.5 2.3 1.7.8.5 1.4.8 1.8.9 1.5.4 2.6.1 3.2-1.2.8-1.2 1.3-2.3 1.3-3.5 1-5.8 2-11.6 3-17.5s2.2-11.8 3.4-17.8c1.1-6.2 2.3-12.5 3.4-18.8 1.2-6.3 2.7-12.5 4.8-18.7.7-1.5.7-2.6 0-3.5-1.8 2.2-2.6 3.3-2.3 3.2-2.1 3.3-4.2 6.8-6.2 10.3-2 3.5-3.8 7-5.5 10.5-2.1 3.8-4 7.6-5.6 11.3-1.7 3.7-3.6 7.3-5.9 10.9-2.7 3.6-5.3 7.7-7.8 12.1-2.3 4.1-3.8 7.1-4.4 9.3zM184.2 174.5v-7.3l-3.6 6h-.6l-3.6-6v7.2H175v-9.9h1.2l4.2 7 4.1-7h1.2v9.9l-1.5.1zM200.2 173.9c-.8-.5-1.4-1-1.9-1.8s-.7-1.6-.7-2.6c0-.9.2-1.8.7-2.6.5-.8 1.1-1.4 1.9-1.8.8-.5 1.7-.6 2.8-.6 1 0 1.9.2 2.8.6.8.5 1.4 1 1.9 1.8s.7 1.6.7 2.6c0 .9-.2 1.8-.7 2.6-.5.8-1.1 1.4-1.9 1.8-.8.5-1.7.6-2.8.6-1.1 0-2-.2-2.8-.6zm4.7-1.2c.6-.3 1-.8 1.4-1.4.3-.5.5-1.3.5-2s-.2-1.4-.5-2c-.3-.5-.8-1-1.4-1.4-.6-.4-1.3-.5-2-.5s-1.4.2-2 .5c-.6.3-1.1.8-1.4 1.4-.3.5-.5 1.3-.5 2s.2 1.4.5 2c.3.5.8 1 1.4 1.4.6.3 1.3.5 2 .5.7.1 1.4-.1 2-.5zM220.2 164.4h4.3c1 0 2 .2 2.8.6.8.4 1.5 1 1.9 1.7.5.8.7 1.6.7 2.6 0 .9-.2 1.9-.7 2.6-.5.8-1.1 1.3-1.9 1.7-.8.4-1.7.6-2.8.6h-4.3v-9.8zm4.1 8.8c.8 0 1.5-.2 2.1-.5.6-.3 1.1-.8 1.4-1.3.3-.5.5-1.3.5-2s-.2-1.4-.5-2c-.3-.5-.8-1-1.4-1.3-.6-.3-1.3-.5-2.1-.5h-2.7v7.5h2.7zM249 173.2v1.3h-7.3v-9.9h7.1v1.3h-5.7v3.1h5v1.2h-5v3.2h5.9zM267.8 174.5l-2.1-3.1h-3v3.1h-1.4v-9.9h3.9c1.3 0 2.3.3 3.1.9.8.6 1.1 1.5 1.1 2.6 0 .8-.2 1.4-.6 2-.4.5-.9.9-1.7 1.2l2.4 3.4-1.7-.2zm-.7-4.9c.5-.4.7-.9.7-1.6 0-.7-.2-1.3-.7-1.6-.5-.4-1.2-.5-2-.5h-2.4v4.5h2.4c.8-.2 1.5-.4 2-.8zM289.9 164.4v9.9h-1.2l-6-7.4v7.4h-1.4v-9.9h1.2l6 7.4v-7.4h1.4zM322.6 172h-5.4l-1.1 2.5h-1.5l4.6-9.9h1.4l4.6 9.9h-1.5l-1.1-2.5zm-.4-1.2-2.1-4.9-2.1 4.9h4.2zM343.2 174.5l-2.1-3.1H338v3.1h-1.5v-9.9h3.9c1.3 0 2.3.3 3.1.9.7.6 1.1 1.5 1.1 2.6 0 .8-.2 1.4-.6 2-.4.5-.9.9-1.7 1.2l2.4 3.4-1.5-.2zm-.8-4.9c.5-.4.7-.9.7-1.6 0-.7-.2-1.3-.7-1.6-.5-.4-1.2-.5-2.1-.5h-2.4v4.5h2.4c.9-.2 1.6-.4 2.1-.8zM358.5 165.7H355v-1.3h8.3v1.3h-3.5v8.7h-1.4l.1-8.7zM397.6 174.5v-7.3l-3.6 6h-.7l-3.6-6v7.2h-1.3v-9.9h1.2l4.2 7 4.1-7h1.2v9.9l-1.5.1zM418.1 172h-5.4l-1.1 2.5h-1.5l4.6-9.9h1.4l4.6 9.9h-1.5l-1.1-2.5zm-.5-1.2-2.1-4.9-2.1 4.9h4.2zM433.5 165.7H430v-1.3h8.3v1.3h-3.5v8.7h-1.3v-8.7zM456.9 173.2v1.3h-7.3v-9.9h7.1v1.3H451v3.1h5v1.2h-5v3.2h5.9zM475.6 174.5l-2.1-3.1h-3v3.1H469v-9.9h3.9c1.3 0 2.3.3 3.1.9.7.6 1.1 1.5 1.1 2.6 0 .8-.2 1.4-.6 2-.4.5-.9.9-1.7 1.2l2.4 3.4-1.6-.2zm-.7-4.9c.5-.4.7-.9.7-1.6 0-.7-.2-1.3-.7-1.6-.5-.4-1.2-.5-2.1-.5h-2.4v4.5h2.4c.9-.2 1.6-.4 2.1-.8zM489.1 164.4h1.4v9.9h-1.4v-9.9zM509.7 172h-5.3l-1.1 2.5h-1.5l4.6-9.9h1.4l4.6 9.9h-1.5l-1.2-2.5zm-.5-1.2-2.1-4.9-2.1 4.9h4.2zM523.6 164.4h1.4v8.7h5.4v1.3h-6.9v-10zM542.5 174.2c-.7-.2-1.3-.5-1.7-.9l.6-1.1c.4.3.9.6 1.5.9.6.2 1.2.3 1.8.3.9 0 1.4-.2 1.9-.4.4-.3.6-.6.6-1.1 0-.3-.1-.6-.3-.9-.2-.2-.5-.4-.9-.5-.3-.1-.8-.2-1.4-.4-.8-.2-1.3-.4-1.8-.5-.5-.2-.9-.5-1.2-.9-.3-.4-.5-.9-.5-1.5 0-.5.2-1 .4-1.4.2-.4.7-.8 1.3-1 .6-.2 1.3-.4 2.1-.4.6 0 1.2.1 1.7.2.6.2 1.1.4 1.5.6l-.5 1.2c-.4-.2-.9-.5-1.3-.6-.5-.2-.9-.2-1.4-.2-.8 0-1.4.2-1.8.5-.4.3-.6.7-.6 1.2 0 .3.1.6.3.9s.6.4.9.5c.3.2.8.2 1.4.4.8.2 1.3.4 1.8.5.5.2.9.5 1.2.9.3.4.5.9.5 1.5 0 .5-.2 1-.4 1.4-.3.5-.7.8-1.3 1-.6.2-1.3.4-2.1.4-.9-.3-1.6-.3-2.3-.6z" class="st0"/><path d="m159 137.6-6.6-9.5h-7.2v9.5h-7.9v-34H152c3 0 5.7.5 7.9 1.5s3.9 2.4 5.1 4.3c1.2 1.9 1.8 4 1.8 6.6 0 2.5-.6 4.7-1.8 6.5-1.2 1.8-2.9 3.2-5.2 4.2l7.6 10.9H159zm-2-26c-1.3-1-3.1-1.6-5.4-1.6h-6.5v11.8h6.5c2.4 0 4.2-.5 5.4-1.6s1.9-2.5 1.9-4.4c0-1.8-.7-3.2-1.9-4.2zM212.9 110h-11v-6.4h29.8v6.4h-11v27.6h-7.9V110zM269.3 103.6h7.9v34h-7.9v-34zM321.8 137c-2.5-.7-4.6-1.6-6.1-2.8l2.7-6c1.5 1.1 3.2 2 5.2 2.6 2 .6 4 .9 6.1.9 2.2 0 3.9-.3 5-1 1.1-.6 1.6-1.6 1.6-2.7 0-.8-.3-1.5-.9-2-.6-.5-1.4-.9-2.4-1.3-1-.3-2.4-.7-4-1.1-2.6-.6-4.7-1.3-6.4-1.9-1.7-.6-3.1-1.6-4.3-3-1.2-1.4-1.8-3.1-1.8-5.4 0-2 .6-3.8 1.6-5.3 1.1-1.6 2.7-2.9 4.9-3.8 2.1-.9 4.8-1.4 8-1.4 2.2 0 4.3.2 6.4.8 2 .5 3.9 1.3 5.4 2.3l-2.4 6c-3.2-1.8-6.3-2.7-9.5-2.7-2.2 0-3.9.4-4.9 1.1-1 .7-1.6 1.6-1.6 2.8 0 1.2.6 2 1.8 2.6 1.2.5 3.1 1.1 5.6 1.6 2.6.6 4.7 1.3 6.4 1.9 1.7.6 3.1 1.6 4.3 2.9 1.2 1.3 1.8 3.1 1.8 5.4 0 2-.6 3.7-1.7 5.3-1.1 1.6-2.8 2.9-4.9 3.8-2.2.9-4.8 1.4-8 1.4-2.7.1-5.3-.2-7.9-1zM389.4 110h-11v-6.4h29.8v6.4h-11v27.6h-7.9V110zM467.5 137.6l-6.6-9.5H453.6v9.5h-7.9v-34h14.8c3 0 5.7.5 7.9 1.5s3.9 2.4 5.1 4.3c1.2 1.9 1.8 4 1.8 6.6 0 2.5-.6 4.7-1.8 6.5-1.2 1.8-2.9 3.2-5.2 4.2l7.6 10.9h-8.4zm-2-26c-1.3-1-3.1-1.6-5.4-1.6h-6.5v11.8h6.5c2.4 0 4.2-.5 5.4-1.6 1.3-1 1.9-2.5 1.9-4.4 0-1.8-.7-3.2-1.9-4.2zM521.8 135.9c-2.8-1.5-5-3.6-6.7-6.3-1.7-2.7-2.4-5.6-2.4-9 0-3.4.8-6.3 2.4-9 1.7-2.7 3.9-4.8 6.7-6.3 2.8-1.5 6.1-2.3 9.6-2.3s6.7.8 9.5 2.3c2.8 1.5 5 3.6 6.7 6.3 1.7 2.7 2.4 5.6 2.4 9 0 3.4-.8 6.3-2.4 9-1.7 2.7-3.9 4.8-6.7 6.3-2.8 1.5-6 2.3-9.5 2.3-3.6-.1-6.7-.8-9.6-2.3zm15.1-5.8c1.7-.9 2.9-2.2 3.9-3.8.9-1.6 1.4-3.5 1.4-5.6s-.5-4-1.4-5.6c-.9-1.6-2.2-2.9-3.9-3.8-1.7-.9-3.5-1.4-5.4-1.4-2 0-3.9.5-5.4 1.4-1.6.9-2.9 2.2-3.9 3.8-.9 1.6-1.4 3.5-1.4 5.6s.5 4 1.4 5.6c.9 1.6 2.2 2.9 3.9 3.8 1.7.9 3.5 1.4 5.4 1.4 1.9 0 3.7-.5 5.4-1.4z" class="st0"/></svg>