<svg xmlns="http://www.w3.org/2000/svg" width="75" height="155" fill="none"><path fill="url(#a)" fill-rule="evenodd" d="M48.9 52.3c5.9 0 10.7 24.9 10.7 55.6h8.6c0-33-8.6-59.8-19.2-59.9-6 0-11.4 8.1-14.9 20.6C30.6 56 25.2 48 19.2 48 8.6 48 0 74.8 0 107.9h8.6c0-30.7 4.8-55.6 10.7-55.6 5.9 0 10.7 23 10.7 51.3h8.5c-.3-28.4 4.5-51.3 10.4-51.3Z" clip-rule="evenodd"/><path fill="url(#b)" fill-rule="evenodd" d="M72 105.6h.4c.3 0 .7 0 .7-.4 0-.3-.3-.4-.5-.4h-.5v.8H72Zm-.4-1.1h1c.6 0 .9.2.9.7 0 .5-.3.6-.7.7l.7 1.1h-.4l-.7-1.1H72v1.1h-.4v-2.5Zm.8 3c-1 0-1.8-.8-1.8-1.8s.8-1.8 1.8-1.8 1.7.8 1.7 1.8c.1 1-.7 1.8-1.7 1.8Zm0-3.9c1.2 0 2.1.9 2.1 2.1 0 1.2-1 2.1-2.1 2.1-1.2 0-2.1-.9-2.1-2.1 0-1.2.9-2.1 2.1-2.1Z" clip-rule="evenodd"/><defs><linearGradient id="a" x1="-.288" x2="68.125" y1="77.918" y2="77.918" gradientUnits="userSpaceOnUse"><stop stop-color="#1C8AE2"/><stop offset=".486" stop-color="#8B00B3"/><stop offset="1" stop-color="#6900B5"/></linearGradient><linearGradient id="b" x1="70.262" x2="74.539" y1="105.71" y2="105.71" gradientUnits="userSpaceOnUse"><stop stop-color="#1C8AE2"/><stop offset=".486" stop-color="#8B00B3"/><stop offset="1" stop-color="#6900B5"/></linearGradient></defs></svg>