<svg width="137" height="155" fill="none" xmlns="http://www.w3.org/2000/svg"><path d="M110.487 42.612c-1.171-4.516-5.102-7.778-9.786-7.862l2.175 7.36 7.611.502Z" fill="url(#a)"/><path d="M111.072 38.097c-.753-1.087-1.673-2.09-2.677-2.843a14.682 14.682 0 0 0-3.512-2.008c-1.422-.585-3.011-.753-4.517-.585l.335 1.422a8.74 8.74 0 0 1 2.091 0c.418.083.836.167 1.254.334 1.255.418 2.509 1.087 3.513 1.924a14.825 14.825 0 0 1 2.676 2.927c.251.418.502.92.67 1.338.334.67.501 1.339.585 2.091h1.422c-.251-1.672-.92-3.262-1.84-4.6Zm-3.597-8.113 8.364 2.175 1.506-1.84-8.364-2.175-1.506 1.84Zm-1.84 2.258c.837.335 1.59.67 2.259 1.172l5.687 1.505 1.506-1.84-8.364-2.175-1.088 1.338Zm4.015-5.018 8.364 2.175 1.505-1.84-8.364-2.175-1.505 1.84Zm.335 7.779c.669.669 1.338 1.338 1.84 2.174l1.087-1.338-2.927-.836Zm11.458-11.208-5.52-4.433-2.007 2.426 7.527 2.007Zm-9.618.753 8.363 2.258 1.506-1.84-8.364-2.175-1.505 1.757Zm13.8-1.004c-.502.586-1.422.67-2.091.167l-7.611-6.105c-.669-.502-.753-1.422-.251-2.091.502-.586 1.422-.753 2.091-.251l7.611 6.105c.669.502.753 1.422.251 2.175Z" fill="url(#b)"/><path d="m125.876 20.199-6.942-5.52c1.506-1.924 4.349-2.259 6.189-.67 1.924 1.506 2.259 4.35.753 6.19ZM97.523 47.716l-2.593 3.262c-1.422-1.422-2.677-3.095-3.597-4.851l3.931-5.019.335.251 1.924 6.357Zm8.113 1.505-4.935 5.855a18.553 18.553 0 0 1-4.767-3.262l2.676-3.345 6.691.501.335.251Zm12.796-7.025c-1.589-1.255-3.931-1.004-5.185.585-.251.335-.419.67-.586 1.004l-2.927-.251-7.611-.586-2.928-9.953c.335-.25.67-.501.92-.752 1.255-1.59 1.004-3.931-.585-5.27-1.59-1.254-3.931-1.003-5.27.586a3.84 3.84 0 0 0-.418 4.098l1.757 5.855.836 2.76 1.924 6.44.25.753h.837l6.691.502 2.76.167 6.273.418a3.833 3.833 0 0 0 4.6-2.593c.419-1.422-.083-2.927-1.254-3.847l-.084.084ZM96.519 30.654c-.418-.335-.502-1.004-.084-1.506.335-.418 1.004-.502 1.506-.084.418.335.502 1.004.167 1.422-.418.502-1.087.586-1.59.168 0 .083 0 .083 0 0Zm18.986 15.222c-.502-.335-.586-1.004-.167-1.506.334-.502 1.087-.502 1.505-.167.502.335.586 1.004.167 1.505-.334.502-1.003.586-1.505.168 0 .083 0 .083 0 0Zm-7.611 14.302s6.691 50.35-39.227 71.845c-45.834-21.578-39.226-71.845-39.226-71.845 18.819-2.76 20.324-18.4 20.324-18.4H87.32c.167 0 1.756 15.556 20.575 18.4Zm-4.6 27.35c2.258-8.28 3.094-16.895 2.509-25.51-9.535-1.84-14.553-6.858-17.146-10.957-1.422-2.174-2.426-4.6-3.011-7.109h-34.04c-.586 2.51-1.674 4.935-3.012 7.11-2.593 4.014-7.611 9.116-17.062 10.956a80.925 80.925 0 0 0 2.509 25.343c4.517 18.567 17.313 34.04 34.626 42.07a62.929 62.929 0 0 0 34.627-41.903Zm-85.312 14.135s3.346-2.342 5.186.752c0 0 2.258-1.505 4.433 1.673 0 0 9.284-2.927 4.098 12.128 0 0 4.35-7.109 2.342-12.797-2.091-5.604-10.957-9.284-16.059-1.756Z" fill="url(#c)"/><path d="M31.783 116.132s2.76-9.284-6.942-10.288c0 0 2.091 2.593.586 4.349 0 0 3.01-1.087 3.68 1.673.083-.084 2.425-.753 2.676 4.266ZM11.46 70.047l.585.334c-.25-.083-.418-.25-.585-.334Z" fill="url(#d)"/><path d="M29.524 84.6s-3.68 1.337-3.512 4.014c0 0-.753-7.36 2.09-11.208 0 0-2.425-.92-3.01 1.088 0 0-.753-7.612 2.174-9.953-6.19 3.178-8.866 10.538-6.273 16.895-.25-.335-4.684-8.03-1.087-13.299 3.596-5.27 2.927-8.113 2.927-8.113s-3.429.67-4.349 3.262v-2.174a6.415 6.415 0 0 0-2.342 4.014c0-1.84-.585-3.596-1.756-5.018l-.753 2.007c-.25-2.09-1.924-3.847-4.015-4.098 0 0-.585 3.345 1.506 5.185l-1.506-.92c.335 1.422 1.004 2.677 2.008 3.68l.334.168h-.334l-.168-.084c-1.505-.836-3.262-1.004-4.85-.418l1.254 1.087c-.251-.083-3.178-1.254-4.935.335 0 0 2.259 3.178 4.517 3.01l-1.84 1.088c1.673.837 3.513 1.338 5.436 1.506 1.757.334 3.346 1.422 4.182 3.01a23.611 23.611 0 0 0-5.855-1.254c-1.17-.084-2.341-.502-3.261-1.255 0 0-.586 2.091.752 2.76 0 0-3.01-.669-4.433 1.339 0 0 3.179 2.425 4.935 1.338-.334.25-2.425 1.673-1.673 2.844 2.259-.92 4.684-1.088 7.026-.67 0 0-2.51-.083-3.178 1.255 3.345-.084 6.69.67 9.785 2.091 4.182 2.258 6.357 7.862 14.135 9.117-.167.083-7.36-5.939-3.93-12.63Zm-14.218-8.532s-5.186-4.516-9.284-4.014c3.095-.92 9.117 3.512 9.117 3.512-.753-2.342-1.422-4.85-2.091-7.862 2.592 9.702 5.687 18.15 11.625 23.67a28.298 28.298 0 0 1-1.505-3.68c0-.167-.084-.335-.167-.586l-.168-.585c-.334-1.171-.669-2.258-.836-3.43 0-.25 0-.501-.084-.752-.083-.25-.083-.585-.083-.836-.335-2.342.083-4.851 1.087-6.942-3.178 7.694 1.756 16.727 2.007 17.146 1.673 1.589 3.597 2.843 5.604 3.847-1.422-.418-9.618-2.927-15.222-19.488Zm12.713-26.095s-2.091.25-2.844 1.59l.251-1.423c-1.255-.084-2.425.586-3.01 1.757v-1.171c-1.34.418-2.26 1.505-2.594 2.843-.585 2.259-2.174 1.422-1.756-.585.334-1.087.084-2.175-.586-3.011l-.585.92s-.418-1.673-1.338-2.007l-.168 1.087c-.836-1.171-2.174-1.84-3.68-1.84 0 0 .67 2.425 1.506 2.927l-1.338-.502c.083.837.585 1.673 1.338 2.091l-1.338-.25s0 1.254 1.84 2.007c1.84.752 2.843 1.422 2.509 3.513-.335 2.09-.92 4.265.418 6.607 0 0 0-7.527 5.27-8.113 5.268-.753 6.021-6.44 6.105-6.44ZM49.43 125.33c-2.76-1.924-5.018-4.433-6.69-7.36-.837 1.255.334 3.262.417 3.429-1.589-1.756-2.592-4.015-2.927-6.356-1.338 0-1.589 2.425-1.673 2.843 0-2.007-3.68-3.512-3.68-3.512-1.087 2.341 1.088 4.516 1.088 4.516-1.088-.836-2.677.753-2.677.753 1.087.418 2.007 1.171 2.677 2.174 1.254 1.59 2.592 3.095 4.098 4.433-1.84.084-3.597-.669-4.768-2.091-1.17-1.505-2.509-2.843-4.014-3.931v2.091c-1.004-2.091-4.935-2.425-4.935-2.425-.502 2.425 2.258 4.433 2.258 4.433l-1.589-.502c.335 1.672 1.338 3.094 2.844 4.014.167.084.334.168.502.335l-.502-.335a7.867 7.867 0 0 0-4.182.168l1.506.836c-2.593-.836-5.186 1.338-5.186 1.338a4.443 4.443 0 0 0 5.52 1.422l-1.338 1.673c1.84.251 3.68-.084 5.185-1.004a6.417 6.417 0 0 0-2.341 4.015l1.84-1.087c-1.757 2.091-.67 5.436-.67 5.436s2.844-.585 5.604-6.524c2.76-5.938 12.044-5.771 12.044-5.771-6.858 1.004-11.793 7.026-11.458 13.884.585-3.68 7.527-6.942 7.527-6.942-1.422 1.506.586 3.178.586 3.178 1.84-4.265 8.196-7.192 8.614-7.443-2.258 1.254-1.672 5.102-1.672 5.102 3.93-6.19 12.545-3.179 12.796-3.011-4.85-6.273-10.789-5.27-14.804-7.779Zm-20.24-2.76c1.672 2.677 4.433 4.517 7.61 4.851-3.261.084-6.272-1.84-7.61-4.851Zm9.367-2.76c1.171 2.509 1.59 4.517 7.862 6.273-4.349-.418-7.61-3.429-7.862-6.273Zm-14.72-8.531c-6.942-4.098-13.633-12.88-13.633-12.88-1.338 4.934 1.17 6.356 1.254 6.44C1.255 100.741 0 112.033 0 112.033a21.918 21.918 0 0 1 15.222-2.342c-3.429-.753-4.098 4.516-4.098 4.516 8.531-3.931 20.575 4.015 20.826 4.266 0-.167-1.422-3.178-8.113-7.193Zm-20.324-3.513c.083-.585 1.087-4.098 11.876-.585-10.789-2.509-11.793.251-11.876.585Zm41.317-9.033v-.502c.67 0 1.339-.167 2.008-.334a2.972 2.972 0 0 0 1.338-.92c.502-.502.836-1.088.92-1.757.167-1.087.25-2.174.25-3.262V75.984c0-1.087-.083-2.174-.25-3.261-.167-.67-.502-1.255-.92-1.757a2.972 2.972 0 0 0-1.338-.92c-.67-.25-1.339-.334-2.008-.334v-.502h17.063c1.421.083 2.843.502 4.098 1.17.92.586 1.672 1.339 2.174 2.259 1.339 2.593.92 5.687-1.003 7.862-.419.418-.92.836-1.422 1.087-.753.418-1.506.753-2.342 1.004 1.087.167 2.175.418 3.262.753.753.25 1.422.669 2.09 1.17.92.753 1.674 1.673 2.175 2.844a8.95 8.95 0 0 1 .753 3.597c0 1.254-.25 2.509-.753 3.596-.501 1.087-1.254 1.924-2.174 2.593-.92.586-1.924 1.087-3.011 1.255-1.673.25-3.346.418-4.935.334H44.83Zm9.284-28.939v12.88h1.757c.836 0 1.672-.083 2.592-.167.67-.083 1.255-.25 1.84-.418.419-.167.92-.335 1.255-.669.753-.586 1.338-1.255 1.673-2.091.418-.92.585-1.84.585-2.844 0-1.087-.25-2.174-.585-3.094-.335-.92-.92-1.673-1.673-2.342a4.557 4.557 0 0 0-2.007-1.004 24.536 24.536 0 0 0-3.43-.25h-2.007Zm0 13.55v8.949c0 .92.084 1.756.251 2.593.418 2.09 2.425 3.513 4.516 3.178 2.008.084 4.015-.585 5.52-1.924 1.422-1.338 2.092-3.262 2.008-5.185 0-1.171-.251-2.342-.67-3.43-.334-.92-.92-1.84-1.672-2.508a9.736 9.736 0 0 0-6.106-1.59l-3.847-.083Z" fill="url(#e)"/><path d="M60.638 99.07H44.496v-1.087h.251c.67 0 1.338-.167 1.924-.334.502-.168.92-.502 1.254-.837.418-.418.753-1.003.837-1.589a21.42 21.42 0 0 0 .25-3.262V75.986a21.42 21.42 0 0 0-.25-3.262c-.251-1.087-1.088-2.007-2.091-2.425-.67-.168-1.255-.335-1.924-.335h-.25v-1.087h17.396c1.505.084 2.927.502 4.182 1.255.92.585 1.756 1.421 2.258 2.425.502 1.004.837 2.175.837 3.262.083 1.84-.586 3.513-1.84 4.851-.419.502-.92.836-1.506 1.17-.418.252-.92.503-1.422.67.753.167 1.506.335 2.258.585.753.251 1.506.67 2.175 1.171.92.753 1.756 1.757 2.258 2.928.502 1.17.837 2.425.837 3.763 0 1.255-.251 2.593-.837 3.764-.502 1.088-1.338 2.007-2.258 2.76-.92.67-2.007 1.088-3.178 1.255-1.673.25-3.346.334-5.019.334Zm-15.055-.585h15.139c1.673 0 3.262-.084 4.851-.335 1.087-.167 2.007-.585 2.927-1.17.92-.67 1.673-1.506 2.091-2.51a8.28 8.28 0 0 0 .753-3.513c0-1.254-.25-2.425-.753-3.512-.502-1.088-1.17-2.008-2.09-2.677-.586-.502-1.255-.836-2.008-1.087a19.564 19.564 0 0 0-3.178-.753l-1.088-.167 1.004-.335c.753-.25 1.506-.585 2.258-1.003a4.253 4.253 0 0 0 1.338-1.088c1.84-2.09 2.175-5.018.92-7.527-.501-.92-1.17-1.673-2.09-2.175-1.255-.669-2.593-1.087-4.015-1.17H45.416c.418.083.92.167 1.338.25.586.168 1.088.502 1.506 1.004.502.502.836 1.17 1.003 1.924a22.52 22.52 0 0 1 .251 3.345v15.975a22.52 22.52 0 0 1-.25 3.346c-.168.752-.502 1.338-1.004 1.923-.418.419-.92.753-1.422.92-.25.168-.753.335-1.255.335Zm13.299-.084a4.79 4.79 0 0 1-4.015-1.505c-.418-.502-.669-1.171-.836-1.84a14.492 14.492 0 0 1-.251-2.677v-9.284h4.182a9.76 9.76 0 0 1 6.273 1.673c.836.67 1.422 1.59 1.756 2.593.418 1.171.67 2.342.67 3.596.083 2.008-.67 4.015-2.092 5.437-1.505 1.422-3.596 2.091-5.687 2.007Zm-4.433-14.72v8.698c0 .837.084 1.757.251 2.593.167.586.334 1.088.67 1.506a4.182 4.182 0 0 0 3.596 1.338c1.923.084 3.847-.586 5.352-1.84 1.339-1.338 2.008-3.095 1.924-5.019 0-1.17-.167-2.341-.585-3.429a5.83 5.83 0 0 0-1.59-2.342c-1.756-1.17-3.847-1.672-5.938-1.505h-3.68Zm1.506-.67h-2.091V69.547h2.258c1.17 0 2.342.084 3.513.251a5.702 5.702 0 0 1 2.174 1.004 7.227 7.227 0 0 1 1.757 2.425 8.418 8.418 0 0 1 .669 3.262c0 1.004-.168 2.091-.586 3.011-.418.92-1.003 1.673-1.84 2.258-.418.335-.836.502-1.338.67-.585.167-1.254.334-1.924.417-.836.084-1.756.084-2.592.084v.084Zm-1.506-.585h1.506c.836 0 1.672-.083 2.509-.167.585-.084 1.254-.25 1.84-.418.418-.167.836-.335 1.254-.585a5.304 5.304 0 0 0 1.59-2.008c.418-.836.585-1.756.585-2.76 0-1.004-.167-2.09-.585-3.01-.335-.837-.837-1.59-1.506-2.175-.586-.419-1.255-.753-1.924-.92a22.812 22.812 0 0 0-3.429-.251h-1.84v12.294Zm25.51.837v8.698c0 1.088.083 2.175.25 3.262.168.67.419 1.255.92 1.757.419.418.837.752 1.423.92.669.25 1.338.334 2.007.334v.502H70.675v-.502c.67 0 1.338-.084 2.007-.334.586-.168 1.088-.502 1.506-.92.418-.502.752-1.171.836-1.84a21.42 21.42 0 0 0 .251-3.263v-15.89c0-.92-.084-1.924-.167-2.844-.084-1.171-.837-2.259-1.84-2.844-.753-.335-1.673-.586-2.51-.586v-.501h22.667l.585 7.025-.502.084a12.344 12.344 0 0 0-1.003-2.426c-.67-1.254-1.59-2.258-2.844-2.927-.753-.418-1.59-.67-2.426-.837a28.785 28.785 0 0 0-3.847-.25h-3.43v12.796h.837c2.007.168 4.015-.418 5.604-1.756.502-.502.92-1.087 1.17-1.757.335-.836.503-1.756.586-2.592h.502l-.167 13.131h-.502c-.084-1.171-.334-2.342-.836-3.43-.418-.836-1.004-1.505-1.757-1.923-.669-.418-1.338-.67-2.09-.753-1.088-.25-2.259-.334-3.346-.334Z" fill="url(#f)"/><path d="M84.81 99.07H70.34v-1.088h.335c.67 0 1.255-.084 1.924-.335.501-.167.92-.418 1.338-.836.418-.502.669-1.087.836-1.757.168-1.087.251-2.09.251-3.178V75.985c0-.92-.083-1.924-.167-2.844a3.204 3.204 0 0 0-1.757-2.593c-.752-.334-1.589-.585-2.425-.585h-.25v-1.087h23.167l.669 7.61-1.004.252-.083-.251a12.344 12.344 0 0 0-1.004-2.426c-1.004-1.924-2.927-3.345-5.102-3.68a28.442 28.442 0 0 0-3.764-.25h-3.01v12.21h.585a7.676 7.676 0 0 0 5.353-1.589 4.456 4.456 0 0 0 1.087-1.672 6.815 6.815 0 0 0 .502-2.593v-.251h1.004l-.084 13.633h-1.087v-.251a11.436 11.436 0 0 0-.753-3.346 3.956 3.956 0 0 0-1.673-1.84c-.585-.334-1.338-.585-2.007-.752a17.294 17.294 0 0 0-2.928-.251v8.364c0 1.087.084 2.174.251 3.178.168.585.419 1.17.837 1.673.334.334.752.669 1.254.836.67.167 1.255.334 1.924.334h.25v1.255Zm-13.215-.586h12.128c-.502-.084-.92-.168-1.339-.335-.585-.167-1.087-.502-1.505-1.004-.502-.501-.837-1.17-1.004-1.923a21.703 21.703 0 0 1-.25-3.346v-9.033h.334c1.087 0 2.258.084 3.345.251a8.25 8.25 0 0 1 2.259.837c.836.501 1.421 1.254 1.84 2.09a10.34 10.34 0 0 1 .752 3.262l.084-12.127a8.821 8.821 0 0 1-.502 2.007c-.25.67-.669 1.338-1.254 1.84-1.59 1.338-3.597 2.091-5.688 1.924h-1.17V69.545h3.68c1.254 0 2.592.083 3.847.25.92.168 1.756.419 2.509.92a7.455 7.455 0 0 1 3.01 3.012c.335.752.67 1.505.92 2.258l-.584-6.524H71.344c.67.084 1.338.251 1.924.586a3.66 3.66 0 0 1 2.007 3.01c.084 1.004.167 1.924.167 2.928V91.96a21.42 21.42 0 0 1-.25 3.262c-.168.753-.419 1.422-.92 2.007-.419.418-.92.753-1.506 1.004-.335.083-.753.167-1.171.25ZM54.031 64.527h2.09v4.767h-2.09v-4.767Zm5.102 0h2.09v4.767h-2.09v-4.767ZM54.03 98.4h2.09v5.018h-2.09V98.4Zm5.102 0h2.09v5.018h-2.09V98.4Zm28.52 7.946c-3.68 10.371-19.069 18.567-19.069 18.567s-16.56-9.033-19.906-18.567c13.633 4.934 26.095 5.018 38.976 0Zm3.179-46.002H46.169c5.436-3.847 6.942-6.105 8.531-11.793h27.517c1.757 5.688 3.178 7.946 8.615 11.793ZM88.49 25.133l-1.255 14.302h-37.47l-1.17-14.302s2.09 5.604 5.854 6.105c-.334.586-.502 1.255-.502 2.008 0 2.258 1.84 4.014 4.015 4.014 2.258 0 4.015-1.84 4.015-4.014 0-.753-.168-1.422-.586-2.091 4.517-1.506 7.026-9.368 7.026-9.368s2.593 7.862 7.109 9.368c-.418.585-.585 1.338-.585 2.09-.168 2.259 1.589 4.183 3.763 4.266 2.175.084 4.182-1.589 4.266-3.764v-.501c0-.67-.167-1.339-.502-2.008 3.931-.502 6.022-6.105 6.022-6.105ZM68.668 127.506l-.168-.083c-16.476-7.612-28.52-22.332-32.87-39.896-2.09-7.862-2.843-15.975-2.341-24.088v-.334l.334-.084c6.44-1.004 12.211-4.684 15.808-10.12 1.338-2.008 2.258-4.266 2.844-6.608l.083-.334h32.62l.083.334c.585 2.342 1.589 4.6 2.843 6.608 3.597 5.436 9.368 9.116 15.808 10.12h.335v.334c.502 8.113-.335 16.31-2.426 24.172-4.349 17.564-16.393 32.201-32.786 39.812l-.167.167ZM34.125 63.774c-.418 7.862.334 15.807 2.425 23.418 4.266 17.314 16.06 31.783 32.201 39.311 16.059-7.528 27.936-21.914 32.201-39.143 2.091-7.695 2.844-15.64 2.426-23.586a23.936 23.936 0 0 1-16.059-10.455 25.518 25.518 0 0 1-2.927-6.524H53.027c-.585 2.342-1.589 4.517-2.927 6.524-3.68 5.52-9.451 9.367-15.975 10.455Zm65.154 55.954c-.25 2.927-3.513 5.855-7.862 6.273 6.19-1.673 6.691-3.764 7.862-6.273Zm3.68-16.393c-2.09 5.603 2.342 12.796 2.342 12.796-5.185-15.055 4.099-12.127 4.099-12.127 2.174-3.178 4.432-1.673 4.432-1.673 1.924-3.011 5.186-.753 5.186-.753-5.102-7.444-14.051-3.847-16.059 1.757Z" fill="url(#g)"/><path d="M107.894 111.783c.585-2.761 3.68-1.673 3.68-1.673-1.506-1.757.585-4.35.585-4.35-9.702 1.004-6.942 10.288-6.942 10.288.335-4.935 2.677-4.265 2.677-4.265Zm17.648-41.736-.586.334c.251-.083.418-.25.586-.334Z" fill="url(#h)"/><path d="M103.712 97.312c7.778-1.255 9.953-6.859 14.135-9.117 3.094-1.422 6.356-2.175 9.785-2.09-.669-1.34-3.178-1.255-3.178-1.255 2.342-.502 4.768-.251 7.026.669.753-1.171-1.338-2.677-1.673-2.844 1.756 1.087 4.935-1.338 4.935-1.338-1.506-2.091-4.433-1.338-4.433-1.338 1.254-.502.753-2.677.753-2.677-.92.753-2.091 1.171-3.346 1.255-2.007.25-3.931.669-5.855 1.338.837-1.59 2.342-2.677 4.182-3.011 1.84-.167 3.68-.753 5.437-1.506l-1.84-1.087c2.258.167 4.516-3.01 4.516-3.01-1.756-1.506-4.684-.42-4.934-.335l1.254-1.088c-1.589-.585-3.345-.418-4.851.418l-.167.084h-.084l-.251.084h.084l.334-.168c1.004-1.003 1.673-2.341 1.924-3.68l-1.505.92c2.007-1.84 1.505-5.185 1.505-5.185-2.175.25-3.847 1.923-4.015 4.098l-.752-2.007c-1.088 1.422-1.757 3.178-1.757 5.018-.251-1.59-1.003-3.01-2.342-4.015v2.175c-.92-2.593-4.349-3.262-4.349-3.262s-.92 2.76 2.76 8.113c3.764 5.353-.836 12.964-1.087 13.298 2.593-6.44-.167-13.716-6.273-16.895 2.927 2.342 2.258 9.954 2.258 9.954-.585-2.008-3.011-1.088-3.011-1.088 2.844 3.848 2.091 11.208 2.091 11.208.084-2.593-3.512-4.015-3.512-4.015 3.345 6.357-3.848 12.379-3.764 12.379Zm2.843-1.757c2.008-1.003 3.932-2.258 5.521-3.847.251-.418 5.185-9.451 2.007-17.146a11.99 11.99 0 0 1 1.171 7.026l-.084.836c0 .25-.083.418-.083.753-.168 1.17-.502 2.342-.837 3.429 0 .167-.083.418-.167.585l-.167.586a28.33 28.33 0 0 1-1.506 3.68c5.938-5.604 9.117-14.051 11.626-23.837-.669 2.927-1.338 5.52-2.091 7.862 0 0 6.106-4.433 9.117-3.513-4.182-.585-9.284 4.015-9.284 4.015-5.688 16.644-13.884 19.153-15.223 19.571Zm8.615-39.226c5.269.669 5.27 8.113 5.27 8.113 1.338-2.342.752-4.517.418-6.608-.335-2.09.752-2.676 2.509-3.513 1.756-.752 1.84-2.007 1.84-2.007l-1.338.251a3.062 3.062 0 0 0 1.338-2.258l-1.338.502c.836-.502 1.505-2.928 1.505-2.928-1.422.084-2.76.753-3.596 2.008l-.168-1.088c-1.003.335-1.421 2.008-1.421 2.008l-.502-.92c-.753.836-1.004 2.007-.586 3.01.418 2.092-1.171 2.928-1.756.586-.335-1.338-1.338-2.425-2.76-2.844v1.171c-.586-1.087-1.757-1.756-3.011-1.756l.251 1.422c-.669-1.339-2.76-1.59-2.76-1.59s.836 5.772 6.105 6.44Zm-42.572 76.78c.251-.084 8.866-3.011 12.797 3.011 0 0 .585-3.847-1.673-5.102.418.167 6.775 3.178 8.615 7.444 0 0 2.007-1.673.585-3.178 0 0 6.942 3.178 7.528 6.941.334-6.942-4.6-12.963-11.459-13.883 0 0 9.284-.168 12.044 5.771 2.76 5.938 5.604 6.523 5.604 6.523s1.171-3.261-.669-5.436l1.924 1.087c-.168-1.589-1.004-3.011-2.342-4.014a8.09 8.09 0 0 0 5.185 1.003l-1.338-1.673a4.443 4.443 0 0 0 5.52-1.421s-2.592-2.175-5.185-1.339l1.505-.836c-1.338-.418-2.843-.502-4.182-.167l-.502.334c.168-.167.335-.251.502-.334 1.506-.837 2.509-2.342 2.844-4.015l-1.589.502s2.76-2.007 2.258-4.433c0 0-3.847.335-4.935 2.426v-2.091a16.293 16.293 0 0 0-4.014 3.931c-1.171 1.338-2.928 2.091-4.768 2.091 1.506-1.339 2.928-2.76 4.099-4.433.669-1.004 1.589-1.757 2.676-2.175 0 0-1.505-1.505-2.676-.753 0 0 2.091-2.258 1.087-4.516 0 0-3.68 1.505-3.68 3.513 0-.419-.335-2.928-1.673-2.844-.334 2.342-1.338 4.6-2.927 6.357.084-.168 1.254-2.175.502-3.43-1.673 2.928-3.931 5.437-6.691 7.361-4.015 2.509-9.953 1.505-14.972 7.778Zm27.685-5.687c3.178-.335 5.938-2.092 7.611-4.852-1.338 3.011-4.35 4.935-7.611 4.852ZM90.664 126c6.19-1.673 6.691-3.764 7.862-6.273-.25 2.927-3.596 5.854-7.862 6.273Zm14.386-7.528c.335-.167 12.379-8.113 20.826-4.182 0 0-.669-5.353-4.098-4.516 5.185-1.088 10.538-.251 15.222 2.342 0 0-1.255-11.292-11.375-7.193.084 0 2.593-1.506 1.255-6.44 0 0-6.775 8.698-13.633 12.88-6.942 4.098-8.113 6.942-8.197 7.109Zm16.56-11.207c10.79-3.513 11.793.083 11.877.585 0-.418-1.004-3.178-11.877-.585ZM26.932 42.612c1.17-4.516 5.101-7.778 9.785-7.862l-2.174 7.36-7.611.502Z" fill="url(#i)"/><path d="M26.346 38.097c1.506-2.174 3.68-3.93 6.19-4.85 1.421-.586 3.01-.754 4.516-.586l-.335 1.422a8.064 8.064 0 0 0-2.007 0c-.418.083-.837.167-1.255.334-1.254.418-2.509 1.087-3.512 1.924a14.858 14.858 0 0 0-2.677 2.927c-.25.418-.502.92-.753 1.338-.334.67-.502 1.339-.585 2.091h-1.422c.25-1.756.836-3.262 1.84-4.6Zm3.596-8.113L21.58 32.16l-1.506-1.84 8.364-2.175 1.505 1.84Zm1.84 2.258c-.836.335-1.589.67-2.258 1.172l-5.687 1.505-1.506-1.84 8.364-2.175 1.088 1.338Zm-4.014-5.018L19.404 29.4l-1.506-1.84 8.364-2.175c0 .084 1.506 1.84 1.506 1.84Zm-.418 7.779c-.67.669-1.338 1.338-1.84 2.174l-1.088-1.338 2.928-.836ZM15.975 23.795l5.436-4.433 2.008 2.426-7.444 2.007Zm9.618.753-8.363 2.258-1.506-1.84 8.364-2.175 1.505 1.757ZM11.71 23.544c.586.586 1.422.67 2.091.167l7.611-6.105c.67-.502.753-1.422.251-2.091-.502-.586-1.422-.753-2.09-.251l-7.612 6.105c-.669.502-.753 1.506-.25 2.175Z" fill="url(#j)"/><path d="m11.542 20.199 6.942-5.52c-1.505-1.924-4.349-2.259-6.189-.67-1.84 1.59-2.258 4.35-.753 6.19Zm28.354 27.517 2.593 3.262c1.421-1.422 2.676-3.095 3.596-4.851l-3.931-5.019-.335.251-1.923 6.357Zm-8.113 1.505 4.934 5.855a18.558 18.558 0 0 0 4.768-3.262l-2.677-3.345-6.69.501-.335.251ZM18.4 47.465c.92 1.17 2.425 1.673 3.847 1.254l9.033-.669 6.607-.501h.837l.25-.753 2.008-6.524.837-2.76 1.756-5.855a3.691 3.691 0 0 0-1.506-5.018 3.691 3.691 0 0 0-5.018 1.506c-.67 1.338-.585 2.927.418 4.098.251.334.502.585.837.752l-2.928 9.953-10.455.753c-.167-.334-.334-.753-.585-1.004-1.17-1.672-3.513-2.007-5.186-.836-1.672 1.171-2.007 3.513-.836 5.186 0 .25.084.334.084.418ZM39.394 30.57a1.06 1.06 0 0 1 0-1.506 1.06 1.06 0 0 1 1.505 0l.168.168c.334.418.25 1.087-.168 1.505-.418.418-1.17.251-1.505-.167ZM20.408 45.709c-.418-.419-.335-1.088.084-1.506h.083c.502-.335 1.171-.167 1.506.335.25.418.25 1.003-.168 1.338-.501.334-1.17.334-1.505-.167Z" fill="url(#k)"/><defs><linearGradient id="f" x1="-5.269" y1="83.956" x2="137.021" y2="83.956" gradientUnits="userSpaceOnUse"><stop stop-color="#1C8AE2"/><stop offset=".486" stop-color="#8B00B3"/><stop offset="1" stop-color="#6900B5"/></linearGradient><linearGradient id="a" x1="-5.269" y1="38.67" x2="137.021" y2="38.67" gradientUnits="userSpaceOnUse"><stop stop-color="#1C8AE2"/><stop offset=".486" stop-color="#8B00B3"/><stop offset="1" stop-color="#6900B5"/></linearGradient><linearGradient id="c" x1="-5.269" y1="72.527" x2="137.021" y2="72.527" gradientUnits="userSpaceOnUse"><stop stop-color="#1C8AE2"/><stop offset=".486" stop-color="#8B00B3"/><stop offset="1" stop-color="#6900B5"/></linearGradient><linearGradient id="d" x1="-5.269" y1="93.082" x2="137.021" y2="93.082" gradientUnits="userSpaceOnUse"><stop stop-color="#1C8AE2"/><stop offset=".486" stop-color="#8B00B3"/><stop offset="1" stop-color="#6900B5"/></linearGradient><linearGradient id="e" x1="-5.269" y1="95.094" x2="137.02" y2="95.094" gradientUnits="userSpaceOnUse"><stop stop-color="#1C8AE2"/><stop offset=".486" stop-color="#8B00B3"/><stop offset="1" stop-color="#6900B5"/></linearGradient><linearGradient id="b" x1="-5.269" y1="28.817" x2="137.02" y2="28.817" gradientUnits="userSpaceOnUse"><stop stop-color="#1C8AE2"/><stop offset=".486" stop-color="#8B00B3"/><stop offset="1" stop-color="#6900B5"/></linearGradient><linearGradient id="g" x1="-5.269" y1="74.61" x2="137.021" y2="74.61" gradientUnits="userSpaceOnUse"><stop stop-color="#1C8AE2"/><stop offset=".486" stop-color="#8B00B3"/><stop offset="1" stop-color="#6900B5"/></linearGradient><linearGradient id="h" x1="-5.269" y1="93.051" x2="137.021" y2="93.051" gradientUnits="userSpaceOnUse"><stop stop-color="#1C8AE2"/><stop offset=".486" stop-color="#8B00B3"/><stop offset="1" stop-color="#6900B5"/></linearGradient><linearGradient id="i" x1="-5.269" y1="88.455" x2="137.02" y2="88.455" gradientUnits="userSpaceOnUse"><stop stop-color="#1C8AE2"/><stop offset=".486" stop-color="#8B00B3"/><stop offset="1" stop-color="#6900B5"/></linearGradient><linearGradient id="j" x1="-5.269" y1="28.809" x2="137.02" y2="28.809" gradientUnits="userSpaceOnUse"><stop stop-color="#1C8AE2"/><stop offset=".486" stop-color="#8B00B3"/><stop offset="1" stop-color="#6900B5"/></linearGradient><linearGradient id="k" x1="-5.269" y1="34.066" x2="137.021" y2="34.066" gradientUnits="userSpaceOnUse"><stop stop-color="#1C8AE2"/><stop offset=".486" stop-color="#8B00B3"/><stop offset="1" stop-color="#6900B5"/></linearGradient></defs></svg>