<?xml version="1.0" encoding="utf-8"?>
<!-- Generator: Adobe Illustrator 24.0.1, SVG Export Plug-In . SVG Version: 6.00 Build 0)  -->
<svg version="1.1" id="Слой_1" xmlns="http://www.w3.org/2000/svg" xmlns:xlink="http://www.w3.org/1999/xlink" x="0px" y="0px"
	 viewBox="0 0 878 163.2" style="enable-background:new 0 0 878 163.2;" xml:space="preserve">
<style type="text/css">
	.st0{fill:#FFFFFF;}
</style>
<g>
	<path class="st0" d="M41.7,70.4c-0.8,6.8-2.1,13.6-2.3,20.4c-0.2,10.9,0.3,21.9,0.6,32.8c0.1,3.2-1.3,4.8-4.3,5.5
		c-8,1.9-14.5-1.4-16.2-8.9c-2.1-9.3-2.2-18.7-1.7-28c0.6-9.7,1.4-19.5,3.6-28.8c2.4-10,6.4-19.8,10.2-29.4
		c2.5-6.2,8.4-7.1,14.3-6.7c5.7,0.4,8.2,4.9,9.8,9.5c3.8,10.5,7.2,21.1,10.7,31.7c0.2,0.5,0.4,0.9,1,2.3c1.7-4.1,3-7.5,4.4-10.9
		C76.7,48.3,82,37.1,90.3,27.5c6.3-7.3,22.5-3.8,26.3,5c0.4,0.9,0.3,2,0.2,3c-1,8.3-2.3,16.5-3,24.9c-0.8,9.7-1.8,19.4-1.6,29.1
		c0.3,12.1,1.4,24.2,2.9,36.2c1,7.9-0.2,10.6-7.1,11.9c-8.4,1.5-13.9-1.7-15-8.8c-1.5-9.5-3.2-19-4.3-28.6
		C88,94,88.1,87.8,87.8,81.5c0-0.6-0.3-1.2-1.3-2c-1.9,6.2-4.1,12.4-5.6,18.7c-2.3,10.1-3.8,20.5-6.1,30.6c-0.4,1.9-2.7,4.4-4.6,4.8
		c-6.7,1.4-13.4-0.7-15.3-9.1c-3.8-17.2-7.5-34.3-11.3-51.5c-0.2-0.9-0.6-1.8-0.9-2.7C42.5,70.4,42.1,70.4,41.7,70.4z"/>
	<path class="st0" d="M281.3,70.1c2-10.8,3.7-21.1,5.8-31.3c1.6-7.6,8.5-11,16-8.1c7.9,3,8.8,5.4,7.1,13.7
		c-2.1,9.8-3.6,19.7-5.1,29.6c-2.4,16.1-1.3,32.1,0.3,48.2c0.3,3.2,1.2,6.4,1.6,9.7c0.5,3.5-0.8,5.8-4.2,6.4
		c-9.8,1.8-17.9-2.2-19.8-12.7c-1.4-7.6-2-15.5-2.6-23.2c-0.3-3.2,0.3-6.5,0.5-10.2c-5-0.5-9.7-0.9-15.4-1.4
		c1.1,9.9,2.1,19.2,3.2,28.4c0.4,3.4,1.1,6.7,1,10.1c0,1.2-1.7,3-3,3.5c-6.4,2.7-14.1,0-17.1-6.3c-2.1-4.4-3.7-9.1-4.6-13.8
		c-3-15.3-4.4-30.7-3.1-46.3c0.7-9.2,1.5-18.3,2.5-27.5c0.4-3.4,1.2-6.9,2.2-10.2c1.7-5.6,6.5-8.4,12.7-7.7
		c8,0.9,12.3,7.1,10.8,14.9c-1.8,9.8-3.6,19.6-3.2,29.7c0.1,2.9,1,3.9,3.9,3.9C274.7,69.4,278.3,69.8,281.3,70.1z"/>
	<path class="st0" d="M440.4,98.5c0.3,1.9,0.6,3.8,0.9,5.6c1.7,9.1,3.4,18.3,5.2,27.4c0.6,2.8-0.3,4.8-2.6,6.2
		c-6,3.7-12.5,5.1-19.4,3.8c-2.7-0.5-4.3-2.3-4.6-5.3c-1.1-11.5-1.9-23-3.6-34.5c-1.8-12.3-4.5-24.5-6.6-36.8
		c-1.3-7.5-2.6-14.9-3.4-22.4c-0.4-4.2,1.4-6.4,5.5-6.9c9.1-1.2,18.2-2.8,27.3-2.6c6.3,0.2,12.9,2.3,18.8,4.9
		c13.3,6.1,16.2,20.5,9.2,33.3c-2.6,4.8-6.6,9-10.3,13.9c0.2,0.2,0.9,1.1,1.7,1.7c12.2,9.1,22.2,20.3,30.6,32.9
		c2.4,3.6,2.2,6.7-2,9.4c-4.7,3-9.7,5-15.3,4.6c-1.9-0.1-4.2-1.4-5.3-2.9c-6.5-8.9-12.7-18.1-19.2-27.1c-1.6-2.2-3.8-4.1-5.7-6.1
		C441.3,97.9,440.8,98.2,440.4,98.5z M428.2,48.2c-0.1,0.4-0.2,0.7-0.1,0.9c1.9,7.9,3.9,15.9,6,23.8c0.1,0.5,2.4,1.1,2.8,0.8
		c3-2.9,6.2-5.8,8.6-9.2c1.5-2.2,2.8-4.9,1.2-8C443.4,49.9,436.6,46.7,428.2,48.2z"/>
	<path class="st0" d="M333.3,103.8c0.8,5.4,1.2,10,2.2,14.5c1.1,5.2,2.8,10.2,4,15.4c1.1,4.5-3.3,9-9.3,9.8
		c-6.3,0.8-12-2.3-14.3-8.6c-1.7-4.5-3-9.3-3.6-14.1c-0.9-8.3-1.7-16.8-1.5-25.2c0.2-16.3,2.3-32.4,9-47.5
		c8.9-20,30.9-18.4,41.5-6.5c2.8,3.1,4.7,7.6,5.5,11.7c2.2,11.7,4.1,23.5,5,35.3c1.1,15,1,30.1,1.5,45.1c0.3,7.8-5.1,10.1-11.6,9
		c-6.1-1-11.3-6.8-9.8-13.7c1.4-6.7,0-13.9-0.3-20.9c0-0.7-0.9-1.7-1.6-1.8C344.9,105.4,339.7,104.7,333.3,103.8z M351.4,87.8
		c-0.5-8.3-0.7-16.2-1.5-23.9c-0.4-3.3-1.7-6.7-3.2-9.8c-0.9-1.9-2.8-3.5-4.9-1.2c-1.5,1.5-3,3.3-3.8,5.2c-1.4,3.5-2.5,7.2-3.1,10.8
		c-0.8,4.8-0.9,9.7-1.2,14.5c0,0.7,0.9,1.9,1.5,2C340.6,86.3,345.8,87,351.4,87.8z"/>
	<path class="st0" d="M170.2,84.9c3.6,2.3,7.1,4.2,10.4,6.5c8.4,5.9,13.4,14.1,15.9,23.9c1.1,4.3,2.1,8.6,2.6,12.9
		c0.5,4.2-1.6,7.1-6.3,8.8c-4.4,1.5-8.6,2.3-13.3,1.5c-3.3-0.5-4.8-1.7-5.1-5c-0.9-9.2-3.5-17.9-8.9-25.6
		c-3.9-5.4-9.2-8.9-15.3-11.2c-0.5-0.2-1.2,0.1-2.3,0.2c1.4,6.1,2.5,12,4.1,17.8c1.6,5.9,4.2,11.7,5.5,17.7c0.8,3.6-2.5,6.1-5.4,7
		c-3.5,1.1-7.5,1.7-11.2,1.3c-4.9-0.6-6.9-4.9-8.5-9.1c-7-19.2-10.2-39-10.3-59.4c0-11.1,1-22,4.3-32.6c1.2-3.7,3-7.2,4.6-10.8
		c1.8-4,5.3-4.9,9.2-4.2c14.5,2.4,26.4,9.3,34.3,21.8c3.7,5.9,4.4,12.7,3.4,19.8C177.2,73.3,174.6,79.3,170.2,84.9z M144.9,48.3
		c0,10.3,0.1,20.4,0.1,30.6c5.7-0.6,10.6-7.6,11-14.4C156.5,57.2,151.1,48.5,144.9,48.3z"/>
	<path class="st0" d="M500.8,51.9c0.1-0.2,0.8-1,1-1.8c1.5-8.7,4.6-16.8,9.1-24.5c4.2-7,13.4-6.9,18.6-3.1c2.9,2.1,3.2,4.4,1.5,8.4
		c-3.9,9.2-7.9,18.3-11.5,27.6c-3.7,9.7-4.7,19.8-2.5,30.1c1.9,9.1,3.3,18.3,4.5,27.6c0.3,2-0.8,4.6-2.1,6.2
		c-3.2,3.9-12.8,7-18.4,4.4c-2.7-1.3-4.1-3-4.4-6c-0.8-8-1.6-16-2.7-24c-1.3-9.5-3.8-18.8-8.1-27.5c-5.3-10.7-10.9-21.2-16.4-31.7
		c-2.4-4.6,0.8-10.1,6.8-11c4.7-0.7,9,0.6,11.6,4.6C492.3,37.8,496.3,44.7,500.8,51.9z"/>
	<path class="st0" d="M395.1,145.2c-2.1-0.4-4.3-0.6-6.4-1.2c-4.2-1.2-5.7-3.1-6-7.5c-1-15.6-1.6-31.3-3-46.9
		c-1-11.5-3-22.8-4.8-34.2c-0.6-3.7-1.8-7.4-2.8-11.1c-0.7-2.8,1.4-5.9,5-6.5c5.7-1,11.3-0.2,16.3,2.7c1.3,0.7,2.4,2.5,2.7,4
		c1.3,7,2.3,14.1,3.2,21.1c1.2,8.9,2.2,17.8,3.4,26.7c1.7,12.6,3.4,25.1,5.1,37.7c0.3,2.3,1.1,4.9,0.6,7
		C407.2,141.8,402.1,144.5,395.1,145.2z"/>
	<g>
		<path class="st0" d="M706.8,116.2c-0.4,6.7-0.6,13.5-1.3,20.2c-0.5,5.1-5.6,7.7-10.6,6.4c-7.3-2-8.8-5.4-9.5-12.6
			c-0.7-7-1.8-14-2.9-21c-0.1-0.9-1.5-2.2-2.4-2.2c-5.4-0.3-10.7-0.4-16.1-0.3c-0.6,0-1.9,1.9-1.8,2.8c0.9,7,1.8,14.1,3.3,21
			c0.7,3.1,1.2,5.7-1.4,8c-2.8,2.4-6.1,3.3-9.8,2.3c-6.4-1.6-9.6-6.5-11.6-12.2c-4.2-12-6.1-24.3-5.8-37
			c0.4-14.3,2.3-28.3,10.1-40.9c4.1-6.6,9.3-12.2,17.1-14.3c7.1-1.9,13.3,0.6,18.7,5c7.6,6.3,11.9,14.7,15.2,23.8
			C705,84.7,706.2,99.7,706.8,116.2z M679.5,88.9c-0.3-8.8-1.6-17.1-5.6-24.7c-2.4-4.7-7-4.8-10-0.4c-0.7,0.9-1.3,2-1.6,3.1
			c-2.4,7.3-1.6,14.7-1.3,22.4C667.2,89.1,673.1,89,679.5,88.9z"/>
		<path class="st0" d="M605.3,87c-0.3-7.1-1.1-14.1-0.8-21c0.4-8.2,1.6-16.4,3.1-24.5c1.8-10.2,11.8-10.9,18.9-7.6
			c4.8,2.3,6.6,7.4,5.5,12.9c-1,4.9-1.5,9.8-2.3,14.7c-2.4,14.1-1.5,28.4-0.6,42.5c0.4,6.2,1.8,12.4,2.5,18.6c0.4,3,0.7,6.1,0.4,9.1
			c-0.3,3.6-3.6,4.3-6.4,4.7c-6.4,0.9-12-1.3-16.2-6c-6.3-7-12.7-14-18.1-21.7c-9-12.8-17.2-26.2-25.8-39.3
			c-5.8-8.9-8-18.6-6.6-29.1c0.9-6.8,2.4-12,9.5-14.1c7-2,12.2,1.1,14.2,8.2c5,17.5,11,34.6,20.7,50.1c0.4,0.6,0.8,1.1,1.2,1.6
			C604.7,86.5,605,86.7,605.3,87z"/>
		<path class="st0" d="M739.6,103.7c0.5-1.9,1.2-3.7,1.3-5.6c0.8-16.4,1.5-32.9,2.2-49.3c0-0.4,0-0.7,0-1.1
			c-0.3-10,6.6-12.1,14.7-9.6c7.1,2.2,8.8,6,8,13.5c-0.6,6-0.7,12.1-1.4,18.1c-1.3,10.7-2.7,21.5-4.3,32.1c-1.2,7.7-2.7,15.3-4.3,23
			c-1.2,5.6-3,11.1-8.2,14.5c-6.8,4.5-16.6,2.2-20.8-5.3c-2-3.5-3.2-7.5-4.3-11.4c-2.8-9.5-5.3-19-7.9-28.5
			c-2.1-7.6-4.2-15.3-6.3-22.9c-2-6.9-3.9-13.8-6.1-20.6c-2.3-7.4,0.8-12.3,8.5-12.7c3.2-0.1,6.5,0.3,9.6,0.9
			c3.9,0.8,5.6,3.9,6.3,7.4c2.1,10.1,3.8,20.3,5.9,30.5c1.6,7.7,3.5,15.3,5.3,23c0.3,1.2,0.4,2.5,0.5,3.8
			C738.9,103.5,739.3,103.6,739.6,103.7z"/>
		<path class="st0" d="M791.2,116.9c8.1-1.9,14.8-3.5,21.5-5c2.8-0.6,4.4,1.4,5.3,3.5c2,4.9,2.6,10,0.2,14.8c-0.8,1.6-3,2.9-4.8,3.5
			c-11.9,3.8-24.2,6-36.7,6.6c-2.2,0.1-4.7,0.2-6.5-0.7c-1.5-0.7-3.2-2.9-3.2-4.5c0-4.6,0.6-9.2,1.2-13.9c1-8,2.4-15.9,3-23.9
			c1-13.9,1.6-27.7,2.3-41.6c0.1-2.4-0.2-4.9-0.5-7.3c-0.7-7.4,2-10.4,8.4-12.5c5.4-1.8,11.3-2.3,16.9-3.3c3.3-0.6,6.7-0.9,10-1.4
			c3.3-0.5,5.6,1.2,5.8,4c0.4,4.8,0.1,9.7-0.4,14.4c-0.2,1.3-2.3,3-3.8,3.4c-4.3,1.1-8.7,1.8-13.1,2.3c-2.2,0.3-3.3,1-3.2,3.5
			c0,4.4-0.3,8.9-0.4,13.3c-0.1,3.2,0.5,3.4,3.7,2.6c4.2-1,8.4-1.8,12.7-2c1.4-0.1,3.7,1.6,4.4,3.1c2.6,5.8,1.7,11.7-1.2,17.1
			c-0.9,1.6-3.4,2.7-5.4,3.3c-4.1,1.3-8.3,2.1-12.5,3.1c-0.7,0.2-1.7,0.8-1.7,1.3C792.4,105.9,791.9,111.1,791.2,116.9z"/>
		<path class="st0" d="M846,103.1c5.7-2.3,10.6-4.2,15.3-6.3c2.4-1,4-0.2,5.3,1.8c4.6,7,2,18.1-5.5,21.8c-9.1,4.5-18.5,8.1-28.9,8
			c-5.1,0-7-1.8-7-6.9c0.1-14.3,0.4-28.5,0.3-42.7c-0.1-10.2-0.7-20.3-1.3-30.5c-0.2-2.9-1-5.8-1.2-8.7c-0.6-7,3.2-11.7,10.3-12.6
			c2.2-0.3,4.5-0.4,6.6,0.1c4.1,0.9,6.6,4,6.7,9c0.3,16.9,0.5,33.9,0.4,50.8C847.1,92.1,846.4,97.3,846,103.1z"/>
		<path class="st0" d="M555.4,95c0.4-3.9,0.5-7.1,1.2-10.1c1.3-5.4,6.8-6.9,10-3.6c3.9,4,7.5,8.7,10.1,13.7
			c2.8,5.4,4.7,11.3,6.3,17.2c0.8,2.8,0.6,6.4-0.4,9.1c-2.7,7.2-10.3,8.6-16.1,3.5c-4.3-3.8-6.3-9-7.9-14.2
			C556.8,105.4,556.3,99.8,555.4,95z"/>
	</g>
	<path class="st0" d="M206.9,117.9c-1.6-7.8-0.3-9.6,7.5-10.5c9.5-1.1,17.3,6.9,15.9,16.6c-0.1,1-0.8,2.4-1.7,2.9
		c-4.3,2.8-8.8,4.7-14.1,3.6c-4.3-0.8-5.6-4.2-6.7-7.7C207.4,121.3,207.2,119.6,206.9,117.9z"/>
</g>
</svg>
