<svg width="201" height="155" fill="none" xmlns="http://www.w3.org/2000/svg"><g clip-path="url(#a)"><path fill-rule="evenodd" clip-rule="evenodd" d="M84.3 22.146c1.1.1-.4.4 0 0Zm23 1c-.3 0-.3-.3.3-.2v.2c0 .2 0 0-.2 0h-.1Zm3 0c.3.2-.5.2-.6.2 0-.5.5-.3.6-.2Zm-3 .5s-.2.2-.3 0c-.1-.2.2-.2.3-.2v.2Zm23.9.5h-.8c-.2.1-.4.2-.6.2.3 0 .2 0 .3.2.2.2.2 0 .2 0s.2 0 .2.2.2 0-.2 0h-.5c-.2 0-.2 0-.2-.2h-.3c-.2 0 0 0-.2.2s.2 0-.2.2c-.3.2 0 0-.3 0h-1.1c.2.3.2 0 .8.2 0 .2-.2.2-.3.2h-.8c-.4 0-.2 0-.3-.2l.2-.5v.2c0-.2-.2 0 .3-.2h1.3v-.2h-1.5c-.2-.2-.2-.2-.2-.3.5-.1 1-.1 1.5 0h.6c.8.2.5-.2.9 0 .5.2.2 0 .3 0h.6c.3 0 0-.2 0 .2h.3v-.2Zm-24.1.1v-.3c.4 0 .7.1 1.1.2l-.2.2c-.2.2-.2 0-.3.2-.1.2 0 .2-.3.3 0 0-.2 0-.2-.3l-.1-.3Zm-.6 0c-.2 0-.5 0-.5-.2s.2-.2.5-.2c0 .2 0 .2-.2.3h.2v.1Zm25.2.2c.2 0 .6 0 .5.2-.2.2-.5-.2-.5-.3v.1Zm-6.1.1c-.2-.3-.2-.3.3-.3 0 .2 0 .2-.3.2v.1Zm7.3 0c0-.2-.2 0 .2-.2s.3 0 .3.2h-.5Zm-1.5-.1c-.2.1-.5.1-.8 0 0-.2 0-.2.5-.2s.5 0 .5.2h-.2Zm-5 .1c0-.1.1-.2.2-.2h.3v.2h-.5Zm5.5.2c.5 0 .6 0 .6.3-.5 0-.6 0-.5-.3h-.1Zm.7.1c.3-.2.8-.2.6.2-.4 0-.6 0-.6-.2Zm-59.3.3c-.5-.2-.2-.2-.2-.2.3-.2.8-.2.6.2 0 .1-.2.1-.4 0Zm1.6.6v-.3h-.2c0 .1-.1.2-.2.2s-.2-.1-.2-.2c-.2 0-.3.3.3.3h.3Zm0-.4v-.2c-.2-.1-.4-.1-.6 0l.2-.2c.2-.2.5 0 .5 0v.4h-.1Zm58-.2v.2c-.5.1-1 .1-1.5 0 0-.3.3-.3.6-.2.3-.1.6-.1.9 0Zm-5.6 0s.3.2-.3.3c-.2-.2-.2 0-.2-.3h.5Zm2.7.3h-.2c-.4 0-.3 0-.3-.3.5 0 .6 0 .5.2v.1Zm.6.6c0 .2 0 .2-.3.2 0-.2.2-.3.5-.2h-.2Zm-6.1 1.6c.2 0 .2 0 .3-.2-.3-.2-.2-.2-.3-.3 0 .2 0 .2-.2.3-.2.1.2 0 .3 0l-.1.2Zm-.7.6h-.3v.2c.5 0 .5-.2.3-.3v.1Zm-1.3-.8h.5v-.2c-.2 0 0-.2-.3-.2h-1l.3.3c0-.2 0-.2.2-.2h.2l.1.3Zm-52.2 1.1c0-.3 0 0 .2-.2.3 0 .3 0 .3.3 1.2 0-.5.3-.3-.2h-.2v.1Zm.9 6.1c.2 0 .2 0 .2.2s0 0-.3.2-.2 0 0-.2c.1-.2 0-.2.1-.2Zm57.6 4.3c-.2 0-.2 0-.2-.2h.5l-.3.2Zm2.6-9.2c0 .2 0 0 .2.2h.3s.2.2 0-.2c.5 0 0 .2 0 0h-.5Zm-4.6-1.5v.3c.2-.2.3-.3 0-.3Zm4.6 0c.2 0 .3.2.5 0-.2 0-.2 0-.2-.2h-.3v.2Zm.8-.6h.9c.2-.2 0-.5-.5-.3s.2.2-.8.2c0 .5-.2.5.2.6h.3l-.1-.5Zm2.1-.8h.5-.5Zm0-.1h.3-.3Zm-61.9-1.9h-.5c.2.2-.2 0 .3.2.1-.1.2-.1.2-.2Zm.5.5c0 .2 0 0 .2 0h.7c.6-.2.2-.2.2-.3 0-.1 0-.2.2-.2H74c-.1.1-.2.1-.3.2-.5 0-.3-.2-.8 0h.5-.3c-.2.3 0 .2 0 .2v.1h-.2Zm-2.2-.2c.2.1.4.1.6.2v-.2h-.6Zm-.3.2c.3 0 .2 0 .2-.2h-.4.3l-.1.2Zm0 .7v-.3h.9c.2-.2 0-.5-.5-.3s0 .2-.6.2c-.2 0 0 .2-.3.2.2.5 0 .5.5.5v-.3Zm-.9-.4c-.1 0-.2.1-.2.2.3 0 .3 0 .3-.2h-.1Zm-.6.9c.6 0 .6-.2.5-.3h-.3s.2.2 0 .2h-.2v.1Zm66 13.8c-.2 0-.3.2-.3.2l.2.3v.2h.5c0-.3 0 0-.2-.2s0 0 0-.2 0 0 .2-.2c-.1-.1-.3-.2-.5-.2h.1v.1Zm-6.9.6c0 .2 0 .3-.2.3h.2c.3 0 .2-.2.3-.3h-.3Zm3.4-.5c-.2.2-.2.2-.2.5 0 .1.1.1.2.2h.2v-.3l-.2-.4Zm10.4-3.7h-.3c-.3.2-1.2.2-1.1.3h-.5l.2.5h.2c0-.2 0 0 .2 0v-.2c.5 0 .5-.2.8-.2h.3c.3 0 .5-.2.3-.3v-.1h-.1Zm-.2-.3-.2.2h.5v-.2h-.3Zm-15.7 4.6h.3c.3.3-.3.3-.3.2v-.2Zm-3.1-14.5c.3-.2.3 0 .3 0s.2.2-.5.2c.1-.2.1-.2.2-.2Zm5.4.3c-.3 0-.3 0-.2-.2.1-.1.3-.1.5 0 0 .2 0 .2-.3.2Zm-3.4 0h-.3c0-.3 0 0 .2-.2.4.1.3.1.1.2Zm4.3-.1v.2h-.5c0-.4 0-.4.5-.2Zm-2.1.6c.2-.2 0-.2.5-.2s.2.2-.2.3c-.4.1-.2 0-.3-.1Zm-1.6 0v-.3c.3 0 .5 0 .5.2s0 .2-.2.2h-.3v-.1Zm.7.4c.2.2 0 .2 0 .3 0 .5 0 .2-.2.5s0 .2-.2.3c-.2.2-.2 0-.2-.3s-.2-.8.3-.9c.2 0 .2 0 .3.2v-.1Zm-1 .6c-.3.2-.8-.2-.2-.3.2.2.2.2.2.3Zm-.3.8s-.2 0 0-.2l.2-.2c.2-.2 0 0 0 .2v.3c0 .1-.1.1-.2.2l-.3.2c0-.3.2-.2 0-.3l.3-.2Zm-.4.2c-.3 0-.3 0-.3-.2h.5l-.2.2Zm-28.6-1.1.2-.3c.2 0 .2.2.5.2.3-.1.6-.1.9 0 0 .5-.5.3-.9.3-.2.2-.2 0-.3.2.6.2 1.2 0 1.5.2h.2c-.4.1-.7.1-1.1 0h-1.1l.2-.2s.2 0 .2-.2l-.3-.2Zm-19.4-3.1v.3c-.5 0-.6 0-.6-.3h.6Zm-.3.6c-.2-.2-.2-.2-.2-.3l.5-.2c.2 0 .3.2.3.3v.2h-.6Zm-1.1-.3h.5c.2.2.2.2.2.3-.6 0-.8 0-.8-.3h.1Zm-1 .2h-.6c-.6 0-.3 0-.6-.2.2-.2-.2-.2.2-.2h.3c.2-.1.4-.1.6 0l.1.4Zm-1 .4-.2-.2s-.3-.2 0-.2h.2c.4 0 .5-.2.6.3.1.5 0 .5-.2.5s0 0 .2.3h-.3c-.6 0-.5-.3-.5-.3H72c.2-.1.4-.1.6-.2h.6v-.2H73Zm-2.4 0c0 .3 0 .3-.3.5-.5-.2-.8-.5.3-.3v-.2Zm3.5.7c0-.2.1-.3.2-.5h.3c0 .3.1.5-.5.5Zm4-.5v.5c0 .3 0 .2-.5.3-.3-.3 0-.2 0-.3 0-.1-.3-.2.3-.3h.2v-.2Zm-4.6.8c0 .2-.2.2-.5.2s-.2 0-.3-.2c.2-.2 0 0 .3-.2h.3v.2h.2Zm-1.5 0c.3 0 .5 0 .5.3-.5 0-.5 0-.5-.3Zm-.8.6c-.2-.2-.2-.2 0-.2.6 0 .2 0 .5.2-.3.2 0 0-.5.2v-.2Zm67.2 8.4c-.3.2-.2.2-.6.2h-.8c0 .5.5.3.9.3.2.2.2 0 .3.2-.6.2-1.2 0-1.5.2h2.4c-.2-.3-.2 0-.3-.3.2 0 .8-.2 0-.5h-.4v-.1Zm-61.1 19.8c-.2 0-.6-.2-.5-.3.4 0 .5.2.5.3Zm-1.1-.4c0 .2.2.2 0 .2s-.3 0-.3-.2h.3Zm1.6.4c.3 0 .5 0 .8.2 0 .2 0 .2-.3 0s-.5-.2-.5-.2Zm-.3-.3c-.5-.2-.6-.2-.6-.5.5.2.6.3.5.5h.1Zm-.8-.3c-.3.2-.8-.2-.6-.3.5 0 .5.2.6.3Zm-.6-.6v-.5c.5.1 1 .2 1.5.5 0 .3-.3.2-.6 0-.3.1-.6 0-.9-.2v.2Zm2.7.5c.2 0-.2-.2.2 0 .3.2.3.2.3.3-.5-.2-.6-.2-.5-.3Zm-.9-.9c0-.2 0-.2.5 0 0 .1 0 .1-.5 0Zm60.7 13.2c0 .2 0 0-.2.2-.3-.2-.3 0-.3-.3-1.2-.5.5-.3.5.1Zm-1.1-6.4c-.2 0-.3 0-.2-.2.1-.2 0 0 .3 0s.2 0 0 .2.2 0-.1 0Zm-60-9.1c-.1-.1-.3-.1-.5-.2.2 0 .2.2.2.2h.3Zm-.6.3c-.3 0-.6-.1-.9-.2-.2.2 0 .5.5.5s-.2-.2.8.2c0-.5.2-.5-.2-.6l-.3.2h.1v-.1Zm-2 .4h-.5.5Zm0 .2h-.3l.3.2v-.2Zm63.2 18.2-.6-.3v.2h.3c.1-.1.2 0 .3.1Zm.3-.2h.5-.5Zm.8-.1h.2c-.2-.2-.2 0-.2 0Zm.4-.8c-.5-.2-.6 0-.5.2h.3s-.2-.2 0-.2h.2Zm-70.8-28.6c0-.2 0-.3.2-.3 0 .1.1.1.2.2-.1 0-.3.1-.4.1Zm71.8 13.8c0 .2 0 .3-.3.2-.3-.2 0-.2.3-.2Zm-8.7-5.5c.2-.5.3.2.6.2s.2 0 .5-.2c1.5 1.2-1.6 1.2-1.1 0Zm-10.1 14.5.2.3s0-.2.6 0c0 .2 0 .2-.2.2s-.3 0-.5-.2c-.3-.1-.5-.1-.8-.2 0-.2-.2-.2 0-.3l.7.2Zm2.4 1.1c-.2 0-.6-.2-.5-.3.2-.2.3 0 .5 0 .2-.1 0 .3 0 .3Zm-2.1-1.6c0-.2 0-.2.5-.2.2.2.2.2 0 .3l-.5-.1Zm16.3 6.1c0-.3 0-.3.3-.3.5.2.8.6-.3.3Zm-3.5-1.5c0 .2 0 .3-.2.5l-.3-.2c.1-.3-.1-.4.5-.3Zm.8-.1c0-.2.2-.2.5 0s.2 0 .3.2c-.2.2 0 .2-.3 0l-.3-.2v-.2l-.2.2Zm1.5.4c-.3-.2-.5-.2-.5-.3.5 0 .5.2.5.3Zm.8-.4c.2.2.2.2 0 .2-.6-.2-.2 0-.3-.2.3-.2-.2-.2.5 0h-.2Zm-59.6 11.7h.6c.3 0 0-.3-.5-.3l-.1.3Zm17.7 1.5c-.3 0-.5.2.2.2 0-.2.2-.2 0-.2h-.2Zm.3-.3c-.1-.1-.2-.1-.3 0-.2.2.2.2.3.2v-.2Zm24.9 2.2c-.5 0-.5-.2-.8-.2-.2-.1-.4-.2-.6-.2h.7-.5c-.2 0-.2.2-.3.3-.8 0-.2 0-.3-.2-.1-.2.2 0 0-.2s.2 0-.2-.2c-.3-.2 0 0-.3 0s-.2 0-.5-.2l-.6-.2c.3-.3.2.2.8 0 0-.2 0-.2-.3-.2l-.5-.2h-.2c-.1 0-.2 0-.3.2v.6c0 .2-.2 0 .2.2h1.4l-.2.2h-.3c-.3-.1-.6-.1-.9-.2-.2 0-.2.2-.2.2.5.1 1 .2 1.5.2h.6c.9 0 .3.2.9.2h1v-.3h-.1v.2Zm-25-3.1h-.5s.2.2.5.2c0 0 .1-.2 0-.2Zm25.9 2.8c.2 0 .6.2.6-.2 0-.3-.4 0-.6.2Zm-6.4-.9c-.3.2-.2.3.3.3.2-.2.2-.3-.3-.3Zm7.7.7c-.2.2-.2 0 0 .2s.3 0 .3-.2h-.3Zm-1.6 0c-.2-.1-.5-.2-.8-.2 0 .2 0 .2.3.2s.3 0 .5-.2v.2Zm-5.2-.6v.2h.3v-.2h-.3Zm5.7.5c.5 0 .6 0 .8-.3-.5-.2-.8 0-.8.2v.1Zm.9 0c.3.2.6.2.8 0-.5-.3-.6-.3-.8-.2v.2Zm-61.1-6.9c-.5 0-.3 0-.3.2.3.2.8.2.8 0-.2-.1-.4-.1-.6-.2h.1Zm1.5-.3v.2h-.2c-.1-.1-.2-.1-.3 0-.2-.2-.3-.5.5-.3v.1Zm-.1.4v.2c-.2.1-.4.1-.6 0l.2-.2c0 .2 0 0 .2.2l.3-.3v.1h-.1Zm60 6.2v-.2c-.5-.1-1-.2-1.5-.2-.2.3.3.3.6.2.2.1.5.2.8.2h.1Zm-6-.3s.3-.2-.2-.3c-.3.2-.2 0-.2.2l.4.1Zm3.1 0h-.2c-.5 0-.3 0-.3.2.5.2.6.2.6-.2h-.1Zm.9-.5c0-.2 0-.2-.3-.2 0 .2 0 .3.3.2Zm-5.5-2c.2 0 .2 0 .3.2-.3.2-.2.2-.5.2.2-.2 0-.2 0-.3 0-.2.2 0 .3-.2l-.1.1Zm-.4-.6h-.3v-.2c.4-.1.4 0 .3.2Zm-55.3-6.1c0 .2 0 0 .2.2.5 0 .3 0 .3-.2 1.4 0-.5-.5-.5 0Zm3-5.7c.2 0 .2.2.3-.2.2-.3 0 0-.3-.2s-.2 0-.2.2 0 0 .2 0v.2Zm59.9 11.2.2-.2h.3s.2-.2 0 .2c.5.2 0-.2 0 0h-.5.2-.2Zm-5 .9s0-.2.2-.2.1.2-.2.2Zm-.7 0v-.2.2Zm5.2.6h.5c-.2 0-.2 0-.2.2l-.3-.3v.1Zm.5.6c.3.1.6.1.9.2 0 .2-.2.5-.6.3-.4-.2.2-.2-.8-.2.2-.3.2-.5.3-.5 0 .1.2.2.2.2Zm2 .9c.2 0 .3.1.5.2h-.2l-.3-.2Zm0 .2h.3-.3Zm-64.2-5.2h-.5c.2-.2-.2-.2.3 0h.2Zm.6-.3c0-.2 0-.2.2 0h.5l.3.2c.5.2.2.2.2.3v.2h-.2c0-.1-.1-.1-.2-.2h-.8.5l-.3-.2h.2c0-.3 0-.2.2-.3h-.6Zm-2.1-.2c.3-.1.5-.1.8 0h-.3c-.1-.1-.2-.1-.3-.2l-.2.2Zm-.3-.1c.3.2.2 0 .2.2h.2c-.3-.2-.3-.2-.4-.2h.3-.3Zm.3-.8v.3c.3.1.6.1.9.2 0 .2-.2.5-.6.3-.4-.2 0-.2-.6-.2l-.2-.2c.2-.4 0-.4.5-.4Zm-1.1.3c-.2 0-.2 0-.2-.2.2.1.2.1.2.2Zm-.3-.9c.6 0 .6.2.3.3h-.3s.2 0 .2-.2 0 .1-.2-.1Zm78.2-1.5h-.3c-.2 0-1.2-.2-.9-.5h-.5l.3-.5h.3v.5c.5.2.5.2.8.2h.3c.3.2.3.2.3.3h-.3Zm-.3.1h.5l-.2.2-.3-.2Zm-12.3-7c0-.2-.2 0 0-.3h-.2c-.2.2 0 .2 0 .2l-.2-.2h-.2v.2c.1.1.3.3.5.3v-.2h.1Zm5.8 2.3c.2.3.3.3.5.2 0-.2 0-.2-.3-.2h-.2Zm4.2.6c-.2-.1-.3-.2-.5-.3h-.5c-.6-.2-.3-.2-.3-.2s-.2 0 0-.3.2.2 0-.2c-.2-.3-.2-.2-.2-.5l-.5-.2h-.2c0 .3.6.6.2.8-.2-.2 0 0 0-.2-.5-.2-.2 0-.6-.2-.4-.2-.2 0-.3-.2-.6-.3-.2 0-.8-.2h.1c-.1-.2-.1-.4 0-.6h.2v-.3c.2-.2 0 0 0-.2l-.2-.2h-.2.2l.2.2c-.2 0 0 .2 0 .3h-.3c-.2-.2-.2 0-.2-.2s0-.2-.3-.3l.3.2v.2c0-.1-.1-.2-.2-.3-.2 0 0 0-.3-.2v.4c-.3.2-.2.2-.2.3l-.2.2c-.2-.3 0-.3-.2-.5s.3 0-.3-.2h-.2c-.2 0-.2-.2-.2.2 0 .3 0 .2.2.2v-.3l.5.2v.3l.3.3h-.2c.3.2 0 0 0 0 .5.2.5 0 .5-.2v-.5c.5 0 .2 0 .3-.2v.5h.8c-.5.2-.3 0-.8 0-.2.3 0 .2.2.5s0 .2-.3.2c.2 0 0 0 .2.2s-.2.3-.3.5l.2.2v-.2h.5c0 .2 0 .2.2.2v-.3l-.2-.2c-.2-.2 0 0 0-.2 0-.3 0-.5.6-.3h.2l-.2.2c.2.8-.2.5-.2.9.5.2.3.2.6 0-.2 0-.3-.2-.2-.2.1 0 0 0 .3-.2s0-.2 0-.2v-.3c0-.2 0-.2.5-.2.3.3 0 .2 0 .3v.2h.2c0 .2 0 0-.2.2s-.2 0 0 .2l.2.2h-.6c0 .2.2.2 0 .3v.2c.2 0 0 0 .3-.2l.3.3c0-.2-.2-.3.2-.3h.3c0-.2 0-.2-.2-.2-.6-.2-.5 0-.6-.2h.7s-.2 0 .3.2.3 0 .3 0h1.1l-.2.2v.4h-.1Zm-14.2-4.6c-.2.2-.2.2 0 .3h.3c.2-.1.4-.1.6-.2-.2-.1-.5-.2-.8-.3l-.1.2Zm.3.6h.6c.5.3 1 .4 1.5.5.2 0 .4.1.6.2h.3l-.2-.2h-.2l-1.5-.5c.3.2-.2-.2-.2-.2h-1.4l.5.2Zm-56.9-4.2c-.2.2-.2.2.2.3.2.1-.1-.2-.2-.3Zm9.7-2.2c0-.5-.3 0-.6-.2s-.2 0-.3-.3c-1.8.6.9 1.5 1.1.5h-.2Zm41.3 21.7c.3.2.3 0 .3 0s.2-.2-.3-.2v.2Zm5.5.3c-.3 0-.3 0-.3.2.1.1.3.1.5 0-.1-.2-.1-.2-.2-.2Zm-3.5-.3h-.3c-.3 0 0 0 .2.2.5 0 .2-.2.1-.2Zm4.6.6v-.3c-.3-.2 0 0-.5 0s0 .2.5.2v.1Zm-2-.7c.2.2 0 .2.3.2s.2-.2 0-.3c-.2-.1-.2 0-.3 0v.1Zm-1.6-.2-.2.3h.6c.2 0 0-.2-.2-.3h-.2Zm.8-.3c.2-.2 0-.2 0-.3.3-.5 0-.2 0-.5s.2-.2-.2-.3c-.4-.1-.2 0-.3.2-.1.2-.5.6 0 .9.2 0 .2 0 .3-.2l.2.2Zm-.8-.6c-.3-.2-.8 0-.2.2.4 0 .4 0 .2-.2Zm-.1-.8s-.2 0-.2.2 0 .2.2.2 0 0 .2-.2l.3-.3v-.2c-.2-.2.2 0-.3-.2-.3.2 0 .2-.2.3v.2Zm-.5-.1c-.3 0-.3 0-.5.2h.5v-.2Zm-38.6-2.5-.3.2s.2 0-.6-.2v.3h.5c.3 0 .5.1.8.2.2-.2.2-.2.2-.3l-.6-.2Zm-2.6.2c.2 0 .6.2.6-.2 0-.3-.3-.2-.5-.2s-.1.2-.1.4Zm11.6.8c.5 0 .2-.2.6-.2.3.1.6.2.9.2.2-.3-.5-.3-.9-.3l-.2-.2c.6 0 1.2.2 1.8 0h-.2c-.3-.1-.7-.1-1.1-.2h-1.1c0 .3.2 0 .3.3.2.3-.9 0-.2.3h.1v.1Zm-9.2-1.6c0-.2 0-.2-.3-.3-.3-.2-.2 0-.2.2l.5.1Zm-11.9 1.6.2-.2c-.5-.2-.6 0-.6.2h.4Zm-.1-.8c-.2.2-.3 0-.3.2l.5.2c.2 0 .3-.2.5-.3.2-.1 0 0 0-.2l-.7.1Zm-1.3.1h.5c.2 0 .3 0 .3-.2-.6-.1-.8-.1-.8.2Zm-1-.3h-.6c-.6 0-.3-.2-.6 0 .2.2-.2 0 .2.2s0 0 .3 0c.2.1.4.2.6.2l.1-.4Zm-.8-.4h-.3s-.3 0 0 .2-.2 0 .2 0 .5.2.8-.2c.3-.3 0-.3 0-.5s0 0 .2-.3h-.6c-.6 0-.5.2-.5.2l-.2.3h-.9c.2.1.4.2.6.2.2.2.2 0 .5 0h.2v.2-.1Zm-2.4-.3c.2-.2.2-.3-.2-.3s-.9.3.2.5v-.2Zm3.8-.2c-.1.1-.2.3-.2.5h.3c.2-.3.3-.5-.3-.5h.2Zm3.8.9.2-.3c0-.2 0-.2-.3-.3-.3.3-.2.2 0 .3.1.2-.4.2.1.3h.2-.2Zm-4.6-1.2c0-.2-.2-.2-.5-.2h-.3c.2.2 0 0 .3.2h.3c.2 0 .1.2.2 0Zm-1.5-.1c.5 0 .5 0 .5-.2-.4 0-.5 0-.5.2Zm-.6-.6c-.2 0-.2 0-.2.2.6 0 .2.2.5 0-.2-.2.1-.2-.3-.2Zm71.9-.8c-.3-.2-.2-.2-.6-.2-.3 0-.6-.1-.9-.2.2-.3.6-.2 1.1-.2.1 0 .2-.1.3-.2-.6-.2-1.2-.2-1.5-.3h.2c.4 0 .7.1 1.1.2.5.2 0 0 .5 0h.6c-.2.3-.3 0-.5.3 0 .2.8.3-.2.6h-.1Zm-35.6.1.5-.2c.1 0 .2.1.3.2-.3.1-.5.1-.8.2v-.2Zm20.8-30.1c0-1.5-.8-2.6-2-2.6-.9.1-1.7.7-2 1.5-.1.2-.1.5-.2.8-.2 1.2.5 2.3 1.7 2.6l-.3.3h.5c.2 0 .3-.1.5-.2 0-.1.1-.2.2-.3.4-.2.7-.4.9-.8h.2c.2-.4.3-.9.3-1.4h.2v.1Zm3.5 8.3c.8.2 1.5-.6 1.8-1.5.3-.8-.1-1.7-.9-1.9h-.1c-.5-.1-.9.1-1.2.5h-.5v.3c-.2.3-.3.6-.3.9v.2c0 .6.3 1.1.8 1.4 0 .1-.1.2-.2.3h.6v-.2Zm-24.9 29.5c0-.1.1-.2.2-.3.2-.3.3-.3.3-.3s0 .2.3.3c.3.1 0 0 .3.2v.2h-1.1v-.1Zm-16.8-53.5c0-.2 0-.3.5-.3 0 0-.2 0 0 0h-.2c0 .2 0 .2.2.2l-.2.2c0 .2.2 0-.2.3.1-.2-.1-.2-.1-.4Zm0 .5h-.5s-.2 0 0 0h.5Zm.6-.2c.3-.5.8-.8 1.4-.8 1.3.2 2.2 1.3 2.1 2.6.3 1.2-.5 2.5-1.7 2.7h-.1c.1 0 .1-.1.2-.2-1.1-.3-1.9-1.4-1.8-2.6-.1-.6.1-1.3.5-1.8h-.6v.1Zm-2.6 3.2c1.1.2 2 1.1 2 2.3.2 1.2-.6 2.3-1.5 2.3.1-.1.1-.2.2-.3-.8-.4-1.4-1.2-1.4-2.1 0-.5.1-1 .3-1.4-.1-.1-.3-.1-.5-.2.3-.3.6-.6 1.1-.6h-.2Zm-2.6 4h.2c.8.1 1.4.7 1.5 1.5.3.8-.1 1.7-.9 1.9h-.4c.1-.1.1-.2.2-.3-.5-.3-.8-.8-.9-1.4-.1-.4-.1-.7 0-1.1-.1-.1-.3-.1-.5-.2.1-.1.4-.4.8-.4Zm13.8-7.6h.3-.3Zm1.2-3.1c-1.1 3.7.9 6.1 3.1 6.1.4-.1.9-.2 1.2-.5.5 0 .2 0 .3-.2l.2-.3.3-.5h.9c1.5.2 1.2 0 2 0h.2s-.2 0 0 0h-.3c-.6 0-.6 0-1.2-.2h-1.1c.3.5-.3.3-.5.3s0-.2 0-.3h.5c-.2-.2.2 0-.3-.2s-.5.8.3.8h.7c-.2.2-.3.2-.2.3.2.1.4.1.6 0 .2-.3-.2-.2 0-.3-.6 0-.6 0-.6-.3.4-.1.8 0 1.2.2-.2 0-.3.1-.5.2h1.2v-.2c.5 0 1.1.2 0 .3 0-.2.2 0 0 0s-.2.2 0 0c-.2.2-.2.2 0 .3 1.2 0-.2-.5.9-.3 0-.5 0-.3 1.1-.3v.2h-.1.2c.3-.3 0-.2 0-.5-.8 0-.3-.3-.3-.5h-.6c0-.2 0-.2-.2-.3-.6-.2-.5.6-.5.6-.3.2 0 0-.3 0h-.3c.3-.8-.3-.2 0-.8h.8c.3 0 .3 0 .3-.2h-1.1c-.6 0-.6.3-.9 0-.5 0-.3.2-.9 0h-.5l.2-.2h.5c.4-.1.7-.1 1.1 0l1.1-.2c.2.2-.2.2.2.2s.3 0 .6-.2.3.2.8.2h.9c.5 0 .3-.3 0-.3h-.9c-1.1 0-2.3-.2-2.7-.2h-1.1l.3-.6c1.5-4.9-2.4-7.6-5-5.2l.5-.2c-.7.7-1.3 1.6-1.5 2.6l-.6.7Zm-.1 52.7c.2 0 .2-.2.3-.2h.8c-.5.1-.9.1-1.4 0-.1.1-.1.2.3.2Zm-3.6-1.1h.3-.5c0-.2 0-.2.2-.2s.8 0 .5.3c.5 0 .5.2.9.2l-.2-.2H87c-.3-.1-.5-.3-.8-.5-.5-.2-.6.3-.2.3h.6v.1Zm-4.1-15.2c.2-.2.2 0-.2 0s.1.1.2 0h.3c-.2 0 0 0 0 0h-.3Zm-1.5-3.7h-.8c-.2 0-.2 0-.2.2s0 0-.2.2.3.2-.3 0c0-.2 0-.2-.2-.3 0-.1-.1-.1-.2-.2h.1c-.2 0-.2-.2-.2 0s0 0 .2.2-.2 0 .2.2l.3.2c-.2-.1-.4-.1-.6 0-.3 0-.3 0-.8-.2 0 .3 0 0 .2.2.1.1.3.2.5.2 0 .2 0 0 .2.2.2 0-.2 0 .3.2s.2-.2.9.3h.6c.3.1.7.2 1.1.3 0-.2-.2-.3-.2-.5-.2-.1-.5-.1-.8-.2h-.3v-.2c.3 0 .5.1.8.2h.2c0-.2-.2-.3-.2-.5l-.6-.5Zm-.2-.3c.1.1.2.1.3.2l-.2-.3c0-.1-.1-.1-.2-.1s-.1.1-.1.2h.2Zm42.2 7.3h.5v.3c0 .1 0 .2.2.3.3-.2.2-.2.5 0s.2.6.2.9h-.5c0-.2.2 0-.2 0-.2 0 0-.2 0 0s-.2-.2 0 0c-.3-.2-.2-.2-.2 0 .5.2.2 0 .2 0s.2 0 0 0c0 0-.2 0 0 0h.2c.3 0-.2.2-.2.2s0 .2.2.3c.2.2 0 0 .3.2h.3v-.6h-.6c.5.3.2 0 .2 0s.2 0 .2-.2v-.9c-.1 0-.2-.1-.3-.2-.2 0 0 0-.2.2s.2 0-.2.2v-.2c0-.1-.1-.1-.2-.2-.8-.3-.5 0-.9-.2-.5-.2-.5-.3-.6 0 0-.2 0 0-.2-.2-.5-.2-.3 0-.6-.2s-.3-.2-.8-.2c0 .3-.2.2.3.3.5.1 1.1.3 1.5.5-.3 0-.5 0-.8-.2l-1.5-.3c.4-.8.8-1.7 1.1-2.6 2.6-8.1-3.1-12.5-8.9-14.7-4.6-1.5-7.9-1.2-9.6.9-1.5 2-1.5 5.2 0 9.2.8 2.1 3.1 6.7 2.6 9.2-.1.6-.3 1.2-.6 1.8-.9 2.7-3.1 5-4.6 8.2-.8 2.1-1 4.5-.8 6.7.6 4.6 4.6 7.2 7.9 6.1-4 2.6-9.2 0-9.8-5.5v-.6s.2 0-.2-.2c-.3-.2-.3.2-.3.5-.3-.2-.2 0-.3-.2l-.2-.2h-.6c-.3-.2 0-.2-.5-.2s-.2.2-.6-.2c.2-.3.2-.2.9-.2.2-.3-.2-.3-.6-.3-.2-.2 0-.2-.3-.3-.8.2-.3.3-.3.6-.3 0-.3.2-.3.2v.2c0 .2 0 0 .2.2s-.3.2-.2.6h-.5c-.2-.2-.3-.2-.8-.2l.2-.6c0 .2.2.2 0 .3 0 .1-.1.1-.2.2 0 .2-.2 0 .2.2.6.2.5-.3.6-.5h.4c.2-.2.2.2.2-.2v-.2c0-.2 0 0 0 0-.2 0 .2 0 0 0h-1c.2-.2.2 0 .3-.2h.3c.2 0 .2 0 .2-.2v-.2h-.5c-.2 0-.2.2-.3.5v-.5c0-.2.2 0 0-.3s0-.2-.2-.2v-.2c-.3-.2-.2 0-.3 0-.1 0-.2.1-.3.2-.3-.2-.2 0-.3-.2v-.2h.3l.2-.2c.2-.2.2 0 .2-.2h-1.1s-.2 0 0 .2l-.2.3h.2c0 .2-.1.5-.3.6h.5c-.8 0-.2-.2-.9-.2h-1.1v.2c0 .2.2 0 0 .2-.3-.3.5-.3.5-.8H89c-.3 0 0 0-.5-.2s-.2 0-.6 0h-.6c-.3 0-.3 0-.3-.2.5-.2.6.2.8-.2.2-.3-.5-.2-.6-.2-.1 0 .2-.2-.5-.3h-.8c0 .3.3.3.5.2h-.6c-.3 0-.6-.3-.8 0-.2-.2-.5-.2-.6-.5h-.5l-.2-.2h-.3c-.3 0-.3.2-.3.5l.2.2c-.8 0-.3-.2-.3-.5-.6-.3 0-.3-.6-.3-.2.2 0 0-.2.3l-.3.2c0-.2.2 0 0-.2s-.2-.2-.5-.2l-.6.3c-.1 0-.1.1-.2.2l.2-.6h-.6c-.2-.2 0 0-.3-.2-.5.2 0 .3-.2.5s-.3.2-.3.5 0 0 .2 0h.3s-.2 0 0 0H81v.3l-.2-.3h-1.4c-.5 0-1-.1-1.5-.3.2-.2.2 0 .2-.2s.2 0 0-.2 0-.3 0-.5.3-.3-.3-.3v.3h-.5l.2-.2c.2-.2.2 0 0 0h-.2c-.3-.6-2.6-.5-2.6 1.2-.6-.2-.6-.2-.9 0-.3.2-.2 0-.3.3-.8-.2-.6 0-.6.2s.2.2-.2.2-.3-.2-.3-.2.3 0 .3-.2h-.5c-.2.2-.2.2-.2.3 0 .2-.2.2-.2.3h.6c1.5.3 1.5 0 1.5.6-.2 0 0 0-.2-.2v-.2h-1.4c-.2-.2-.5-.2-.9-.3-.2-.1-.4-.2-.6-.2v.2h-.3c.2-.2.2 0-.2 0-.5-.1-.9-.2-1.4-.5h-.5v-.2c0-.2 0 0-.2-.2s0-.2.3-.3c-.5-.2-1.2-.2-.6-.5l.5.3c.3-.3-.8-.9-1.1-1.5-.2-.2-.2 0-.5-.3s-.5-.2-.6-.5c-.2-.3 0 0-.2-.2-.3 0-.6-.1-.9-.2 0-.3.3-.5-.3-.5-.3.2 0 .2-.2.3H64c0-.3.2-.2.2-.3-.2.2 0 .2-.2.3-.8-.2.3 0-.6-.5h-.3c.2-.3.8 0 .9.2.1.2.2-.2.2-.3v-.2c.8 0 .3.2.5.5h.6c.2 0 .5.2.6.2 0-.3 0-.2.2-.3.2-.1-.3-.6.5-.3.3.2 0 .2 0 .3v.2c0 .3-.2.3.3.5l.3-.3c.2-.2.2 0 0-.3s0-.2.2-.3c.1-.1.2-.1.3 0 .3.2.2.2.6.2 0-.5-.3-.3.2-.9v-.3h.2c.8.2.6.2.5.5 0 .2 0 0-.2 0 0 .2-.3.9.3.5 0-.2-.2-.2.2 0h.2s-.2-.3 0-.5 0-.2.2-.2c-.3-.2-.5 0-.3-.3s.2 0 .3-.3c-.5-.2-.5 0-.8-.3h.8l.2-.3c.2.2-.2 0 .3.2 0 .2-.1.3-.2.5 0 .2 0 .3.3.3 0 0-.2 0 0 0 .2-.2.2 0 .3-.2l.2-.5h.5l-.2.3c.2 0 .2 0 .2-.2v-.2s.2 0-.2-.2c-.6-.2-.2 0-.3 0-.1 0-.2.2-.3.5v-.2c0-.2.2 0 0-.3s0-.2-.2-.2c-.3-.2-.2 0-.3 0-.1 0-.2.1-.3.2-.3 0-.2 0-.3-.2h-.5.3c-.5 0-.6 0-.5.2.1.2 0 0-.2.2h-.2c.2-.2.2-.2.2-.3-.2 0-.2 0 0 .2l-.2.3h.2c0 .2-.1.5-.3.6h-.2c-.8 0-.2-.2-.9-.2h-1.1v.2c0 .2.2 0 0 .2-.3-.3.5-.3.5-.8h-.6c-.2.5 0 .2-.3.5-.2.2 0 0 0 .2 0 .3-.2 0-.2.3s.3.2-.3 0l-.2-.2c-.1.1-.3.1-.5.2h-.4c0-.5.8-.3.9-.2v-1.4c-.3 0 0 0-.5-.2s-.2 0-.6 0h-.6c-.3 0-.3 0-.3-.2.5-.2.6.2.8-.2.2-.3-.5-.2-.6-.2-.1 0 .2-.2-.5-.3H62c0 .3.3.3.5.2-.6 0-.2 0-.6.2-.4.2-.6-.3-.8 0-.2-.2-.5-.2-.6-.5.2.1.4.1.6 0l.2-.2s0-.2-.2-.2-.2 0-.3.2c-.6 0-.3-.2-.5.2H60l-.2-.2c-.2-.2.2 0-.2-.2h-.2c-.3 0-.3.2-.3.5v.2-.5l.2-.2h.3s.2-.2 0 .2c.5.2 0-.2 0 0v.4h-.2v.6c0 .2.2 0 0 .2-.5 0-.9.2-.8-.3-.2.2-.2.2-.3.2v-.2h-.2v-.2l.2-.2h-1l-.3-.2.3-.3c.1-.1.2-.1.3-.2l.3.2c-.2.2 0-.2-.2.2v.2c.8.2.8 0 .9-.5-.2-.5.2-.2.2-.5-.3-.2-1.1-.3-1.1-.5-.1-.1-.1-.2 0-.3 0-.2 0-.3.2-.5h.3s-.2 0 0-.2.2 0 .6 0h-.3c-.3.2.2.3.3.3.1 0 .3.2.6-.5s-.9-.3-1.1-.3l-.2-.2.3-.3c0-.1.1-.2.2-.3l.2-.3c0-.2 0-.2.2-.3.2-.2.2 0 .2 0s.2 0 .2.2-.2-.2 0 .3-.2.3.3.3.2-.2.3-.3c.1-.1-.2-.5.3-.9.5-.5.2-.3-.5-.3-.6 0-.3.5-.5.6-.2 0-.2-.2-.3-.3.5 0 .3 0 .5-.3s0-.5.5-.3c0 .2.3.2.5.2.4-.1.6-.5.5-.9 0-.3.2-.5.5-.6.5.2 0 .2.6.2.2-.2 0 0 .3-.2 0-.3 0-.5.2-.8.2-.3.2 0 .2.2l.2.6c.6 0 .3-.2.3-.3 0-.1.3-.2.2-.5-.2-.3 0 0 0 0l.2-.3h.5c0 .2-.2.3.3.3s.3-.2.3-.2-.2 0 .2-.3c.3-.3 0-.2 0-.3 0-.1.2-.5.2-.6 0-.1-.2-.2 0-.3.2-.2.2 0 .2-.3h-1.2l-.6-.2h.4c0-.2 0 .2-.3-.2 0-.1 0-.2-.2-.3-.2 0 0 0-.2-.2-.1 0-.2-.1-.3-.2-1.5-.6.2-.9-.6-1.5s-.8 0-1.2-.5c-.2-.2 0-.2-.2-.3-.2-.2-.6-.5-.8-.8-.2-.3-.3-.3-.6-.5.8-.6.5-.2.6-.8.1-.6 0-.2 0-.5s.2-.3.5-.5c.2-.1.5-.2.8-.2h.9c.9-.1 1.8-.2 2.7-.5h.9c.7-.1 1.3-.2 2-.2h2.1c.9 0 1.5.3 2.1.2.6-.2.3.2 1.1.2 1.5 0 1.5 1.2.6.5h-.2c-1.5 1.1 5.7.8 6.1.5 1.1.2-.6.5 1.5.5h.2c-.2-.5-.3-.8-.6-1.2-.3-.2-.3 0-.6-.2 0-.2.2 0 0-.2s.3 0-.3-.2-.2 0-.3 0h-.2c-.2-.2.3 0-.3-.2s-.2 0-.3 0h-.3v.2c0 .3 0 0-.2 0 0-.3-.3-.5-.8-.5l-1.8-.5c-.3-.2-.6-.3-.9-.3-.3 0-.5-.1-.8-.2h.6-.7l-.2-.2h.3c.5.2-.2 0 .3.2.2.1.5.1.8.2 0-.3 0-.2-.6-.3-.6-.1-.3-.2-.5-.3-.3 0-.5 0-.8-.2-.6-.2-.5-.2-.9-.3.2-.2.2 0 .3 0 .1 0-.2 0 .5.2l.5.2c.3.1.6.2.9.2.2-.2 0-.2 0-.2-.3-.2-.6-.3-.9-.3.1-.1.2-.1.3-.2.5.3.3.2.8.3.5.1.3.2.8.2v-.3c-.5-.2-.5-.2-.8-.2-.3-.2 0-.2-.5-.2-.3 0-.5-.1-.8-.2.3-.2.2 0 .6 0 .4 0 .2 0 .6.2l.2.2c.1.1.2.1.3.2.2 0 0 0 .2-.2h-.2c-.2-.2.2 0-.3-.2-.2-.3 1.1.3.9-.2-.2-.2-.4-.3-.6-.3l-2.1-.6-.5-.2c.6.2 1.2.2 1.5.3.3.2.2.2.5.2h.3c.3 0 0 .2.6.2 0-.2 0-.2-.3-.3-.8-.3-.2 0-.6-.3l-.2-.2c-.8-.2-.6-.2-.3-.2-.1 0-.2-.1-.3-.2h.5c.5.6 1.1.8 1.2.5l-.3-.2c.2-.2.2 0 .3-.2h.2c0 .2.2.3 0 .3s-.2.2.3.3l.2-.2v-.4h.2l.6.3-.3.2s.2.2 0 .3c.3 0 0 0 .3-.3.2-.2 0-.2 0-.3 0-.1-.2 0 .2 0 .3 0 0 0 .3.2.1.2.1.4 0 .6 0 .2-.5.2.5.3v-.5c0-.3 0-.3.3-.5-.2-.2-.3-.5.3-.3.2.5-.2.2 0 .6 0 .3-.2.5-.2.6h.3c.2-.2.2-.5.2-.6l.5.2.2.3h-.4l.2.3h.5l-2.6-4c-.1-.1-.3-.1-.5-.2l-.2.2-.8-.2c-.3 0-.2-.2-.2.2l-.5-.2-.3-.2c0 .2.5.2.5 0 0 0-.6-.2-.8-.3-.6-.2-.2.2-.5.2s-.6-.2-.6-.2c-.5-.2-1.1-.3-1.5-.5-.8-.3-.8-.5-1.5-.6-.3-.1-.5-.2-.8-.3-.3-.2 0-.2-.6-.3 0-.2 0-.2 1.1 0-.6-.3-.5-.2-1.2-.3 0-.2.2-.2.2-.2v-.2c0-.2-.6.2-.9.2H68l-.2-.2c-.1-.1-.2-.1-.3-.2l-.3-.2H67c.2-.3.6-.3.9-.1l.1.1c.2.2-.2 0 .3.3.3-.2-.5-.8-1.1-.8-.6 0-.5.2-.6.2.3 0 .5 0 .5-.2s-.2-.3-.2-.5.5-.3.2-.8 0-.2 0-.3l-.3-.2c0-.2.2-.3.2-.5-.2 0-.4-.1-.6-.3-.3-.2-.3-.2-.2-.5.2-.3 0 0 .2-.5s.2-.2-.3-.9c.2-.1.5-.2.6-.5.1-.1.3-.2.5-.3h.2-.2c0-.2 0-.2.3-.2.2-.2 0-.2.2-.2h-.5v-.9c0-.3.2-.2.2-.5s0-.3-.2-.8v-.3c-1.2-.5-.5-.5-.3-.5s0 0 .3-.2.8.3.9 0c-.3-.2-1.1-.3-.8-.3.8 0 1.5.5 2.3.5.4.1.8.1 1.2.2v-.2c.3-.2.2 0 .3-.2l-.2-.2h-.2l.8-.2c0-.3 0-.2-.2-.3-.2-.2.2-.2.2-.3 0-.2-.2-.3 0-.6s.3 0 .2-.3c-.2-.3 0 0 0-.3s0-.2-.2-.3c-.2-.1-.3 0-.3.2h-.5v-1.1c.3-.3 0-.2 0-.5s.3-.3-.2-.3l-.3.6c-.2.2 0 .2-.2.2-.2-.2 0-.5 0-.8-.3 0-.2 0-.2-.2-.5 0 0 0-.6.2v-.5c.2-.3.3-.8-.2-.9 0 0-.3-.2-.5 0-.5.2-.3 0-.3-.3s.2-.3-.3-.3c.3-.2.3-.2.5-.3.2.3-.2.6.2.8.3.2.6 0 .5-.3-.2-.3.2-.5 0-.9-.2-.5.2-.2-.2-.3-.3-.2-.2 0-.5.3s0 0 0 .3 0 0-.2.2H68v-1.1c0-.2 0-.2-.2-.3l.3-.2s1.1.3 1.1-.2-.2-.5-.5-.5-.6 0-.5.3c.1.1.2.1.3.2H68v-.4h-.3c-.2-.2 0-.3 0-.5v-.3c.2-.3.9-.3 1.2-.3 0-.3-.3-.2 0-.5.2-.5.2-.6-.6-.6v.5c0 .3 0 0 .2.2h-.3l-.3-.3-.2-.3h1.5v-.3h.2v-.8c.2 0 0 .2.2.3 0-.6.5-.5.8-.3 0 .3 0 0-.2.2s-.2.5-.2.6h.2v.4c0 .2.3 0 0 0h-.3c-.2 0 0 0-.2-.2v-.5l-.2.2c-.2.3-.2.5.2.5h.5c.3 0 .2 0 .3-.2l.2-.2c.1.1.2.1.3.2 0 .3-.2.2.5.2 0 .3 0 .2.2.2s-.2.3-.2.3v-.2c-.2-.1-.4-.2-.6-.2.2-.3.5-.2.6-.3.2.2.5.2.8 0 .3-.2-.2.2.5.2-.1-.1-.3-.1-.4.1v.1h.8c.5 0 .2-.2.5-.3.3-.2.8.2.6-.2-.2-.3-.3 0-.6-.2 0-.2 0 0 .3 0h.6c.3 0 .2.2.6 0 .4-.2 0 0 .5 0v-.6c-.2 0-.9.2-.8-.3.3-.2.3 0 .3 0 .3 0 .5.2.5.2l.3-.2c.6 0 .3 0 .3.2s.2 0 0 .3c0 0-.2-.2 0 .2.2.3.2 0 0 .5h.6c0-.3-.6-.5-.2-.8.2.2 0 0 0 .2h1.1c.6.2.2 0 .8 0h.2c.2.2 0 .5 0 .6h-.2v.5c-.2.2 0 0 0 .2.2 0 0-.2 0-.3h.3c.2.2.2-.2.2.2 0 .3 0 .2.3.2h-.2v-.2h.3c0 .1.1.1.2.2v-.3h-.8c.5-.3.5-.2.8-.2.2-.3 0-.2-.2-.5s0-.2.3-.3c-.2 0 0 .2-.2-.2-.2-.3.2-.5.3-.5h-.5c-.2 0-.2 0-.2-.2-.5-.5-.5.3-.5.5h.2c.2 0 0 0 0 .2 0 .3 0 .5-.6.5h-.1l.2-.5c-.2-.6.2-.5.2-.9H78s-.2.2-.3 0c-.2-.2-.2-.2 0-.3.2-.1 0 0 0-.3s.3 0 .3 0c-.5 0-.3 0-.5.3v.2c0 .2.2.2-.2.3-.6.2-.3-.2-.3-.3 0-.1-.2 0 0-.3h-1.2c-.3 0 .2.5-.6.3h-.3v-.3c0-.2-.8.3-.9 0h.3c1.1-.3-.2-.3.8-.3.2.2-.2.2 0 .3h.6c.2-.2-.2-.2 0-.3h.6c.2.3-.2.2 0 .3.6 0 .3-.2.5-.5h.9c.3-.2 0 0 .2-.2s.3 0 .8-.5.3-.2.6-.3c.3-.2 1.5-1.1 1.5-1.5l-.5.2c-.6-.5.2-.3.6-.5-.2-.2-.3-.2-.2-.3.2-.2.2 0 .2-.2v-.2h.6c.4-.2.9-.3 1.4-.3h.5c.3 0 0-.2 0 0v.2c.2.1.4.1.6 0 .5-.2.8 0 1.1-.3.3.2 0 .2.5.2.2.1.5.1.8.2l.2-.2c0-.2 0 0 .2-.2.2.6-.2.3-1.5.5h-.9v.6h.5c0-.2-.2-.2-.3-.3-.2-.2 0-.3.3-.2.3.2.2 0 .2.2s-.2.5.6.3c0 .3 0 .3.2.3.8-.8 2.2-.8 3 0 .2.2.4.5.5.8 1.8-6.1 8.1-4.6 7.9.9h.2c.6 0 .2-.2.5-.3.3-.1.8.2.6-.2-.2-.3-.3 0-.6-.2.2-.2 0-.2.3-.2h.6c.3 0 .2.2.6 0 .5-.2 0 0 .5 0h1.1c0-.3-.6-.5-.3-.8.2.2 0 0 0 .2v.2h.9c.6.2.2 0 .9 0h.2c.2.2 0 .5 0 .6h.2v.5c-.2.2 0 0 0 .2h.9c0-.3 0-.2-.2-.2h-.5.3c0 .1.1.1.2.2h.3l.5-.5h.2c.3-.2.2-.2.2-.3l.2-.2s0 .3.2.5-.3.2.3 0 0 0 .2 0 .2 0 .2-.2 0-.2-.2-.2h-.3c-.2-.2-.2 0-.3-.3h.5c-.2 0 .2 0 0 0h.2s.2 0 .2-.2 0 0-.2-.2 0 0 0-.2c0 0 .3-.6-.5-.5-.3.2 0-.2-.2.2 0 0 0 .2-.2.3v-.6c.5 0 .5.2.8-.2.2 0 .3.2.5.2-.3.3.2.5-.2.6-.4.1-.2 0-.2.2v.2c0 .2 0 .3.2.3 0 .3-.6.5.2.6.3 0 .2 0 .3-.2.5 0 .8.2.8-.3-.6 0-.8.2-.8-.2.5-.2.3 0 .6 0s.2 0 .5-.2l.5.2.3-.2c.3-.2 0-.2.3-.2 0 .2-.2.5.2.5h.2c.3-.2 0-.2.3-.2 0 .2 0 .2.2.3.2.2 0 0 .3 0h.5c.2 0 0-.2-.2-.2.3 0 0 .2.5.3.2 0 .4 0 .6-.2h1.5c-.3-.2.2.2.2.2h.2c.5 0 0 0 .5-.2.8 0 .3-.2.8 0s.8 0 .8.2-.3.2-.5.2c-.5 0-.2-.3-1.1-.2l-.2.2h-2c-.2-.1-.4-.1-.6 0-.2.2-.2.3.5.3h.2c.2 0 .2 0 .2.2h-.3s.2-.2-.2 0h-.2s-.2 0 0 0c0-.2.2 0-.2 0 0-.2.2 0-.2 0l.3-.6c.1 0 .1-.1.1-.2s-.1-.1-.2-.1h-1.8v.2c.2 0 .3.1.5.2-.5-.2-.3 0-.3 0l-.2.2v1.4c.2 0 .3.1.5.2.2 0 0 0 .2-.2s-.2 0 .2-.2c0 .1.1.1.2.2.8.2.5-.2.9 0 .5.2.5.2.6-.2 0 .2 0 0 .2.2h.6c.3 0 .3.2.8 0 0-.3.2-.2-.3-.2s-1.1 0-1.5-.2c.2-.1.5-.1.8 0h2.1c.6 0 .6 0 .8.2h-.5c0 .1 0 .2.2.3l.2.2c.2.2.2 0 .3-.2.2-.2.2-.2 0-.3.3.2 0 .2.5.2.2.2 0 .2.3.2s.2 0 .2-.2v-.2c0-.2 0 0 .2-.2s.2 0 .2 0h.8c.2.2 1.2 0 1.1.3-.5 0-.5-.2-.8-.2h-.2c-.9.2-.5-.2-.6.3.5.1.9.1 1.4 0h.2v.2c0 .2 0 0 .2 0h.2c.3 0 .2 0 .2-.2s0-.2.2-.2h.2c.2 0-.2 0 0 .3.5 0 .2 0 .3-.2v-.2h-.5c-.3 0-.5 0-.5-.2s.2-.2.5-.2c.4-.1.8-.1 1.2 0h.6c1.5.2 1.2 0 2 0h.2c0 .2 0 0 .2 0h-1.6c-.4 0-.8-.1-1.2-.2h-1.1c-.2-.2.2-.2-.3-.2s-.5.8.5.8l.2-.3h.3l.2.2c.2.1.4.1.6 0 .2-.3-.2-.2 0-.3h1.3c0 .2-.2.2.2.2-.2.2-.2.2 0 .3 1.2 0-.2-.5.9-.3.3.1.6.1.9 0 .2-.3-.2-.2-.6-.2 0-.2.2-.3.6-.2h.2c.3-.3 0-.2 0-.5s.2-.2 0-.3c.5-.3.6-.3-.3-.6h-.3c.3-.2.2 0 .5 0h.8c-.3.2-.3.2-.3.3.8.2.9-.2.5-.3h.3s0 .2.2.3l.3.3c.6-.2.3-.3.6-.6h.2c.6.2.5 0 .8 0 0 .2-.2 0 .2 0h.8c.2.2-.3 0 .3 0h.3c-.2 0 .2 0 .2-.2h.2c0 .2.3.5.8.3h2.1c.3.1.6.1.9 0h1.1l.5.2c.2 0 0 0 .2.2h-1.4c0 .3 0 .2.5.2s.3 0 .5.2c.5-.2.3-.2.8 0s.5 0 .9.2c-.2.2-.2.2-.3.2-.1 0 .2 0-.5-.2h-.5c-.3-.1-.6-.1-.9 0-.2.2 0 .2 0 .2.3.2.5.2.9.2-.1.1-.2.1-.3.2-.5-.2-.2-.2-.6-.2h-.8v.6c.5.2.5 0 .8 0 .3 0 0 .2.5.2h.6c-.3.2-.2.2-.6.2h-1.1c-.2 0 0 0-.2.2l.2.2h.8c.2.3-1.1-.2-.9.3.2.1.4.1.6 0h2.4c-.6 0-1.2.2-1.5.2h-1.2c0 .2 0 .2.3.2h.9c.8 0 .6 0 .3.2h.2-.5c-.3-.5-1.1-.5-1.2-.2h.3c-.2.2-.2 0-.3.2h-.2c-.1 0-.2-.1-.2-.2s.1-.2.2-.2c0-.3.2-.2-.3-.3v1.3h-.2c-.2 0-.4-.1-.6-.2l.3-.3s-.2-.2 0-.3c-.3 0 0 0-.3.5-.2.2 0 .2 0 .3 0 .2.2 0-.2.2-.3.2 0 0-.3 0-.1-.2-.1-.4 0-.6 0 0 .5-.2-.5-.3v.3c0 .2 0 .3-.3.5.2.2.3.5-.3.3-.2-.3.2-.2 0-.6 0-.3.2-.5.2-.6h-.3c-.2.3-.2.5-.2.8h-.8v-.3h.2-.2c-.8 0-.2.2-1.5.3-.5 0-.5.2-.8 0 .2-.2-.2 0 .5-.2h-.6l-.2.2-.2.2h-1.3c-.3 0 .2-.2-.3 0 0 .2 0 0-.2 0-.8 0-.8 0-1.1.3-.2-.2 0-.2 0-.5.5 0 .5 0 .6-.2H122c-.3 0-.2.2-.5.2h-.6v.2h-.2.5v.2c.2.1.4.1.6 0 .6-.2.8 0 1.1-.3.3.2 0 0 .5.2h.8l.2-.2c-.2.2-.2 0-.2.3v.2h-2c.5 0 .3.2.5.2v.2c0 .2 0 .3.2.3.8.2.5 0 .8.2h.2c0 .3.2.3.2.3h.5c0 .1.1.2.2.2s.2-.1.3-.2c-.2.3.2.3-.3.5-.5-.2.3-.3-.5-.3l-.2.2v.5h.2-.2.5c.2.2 0 .2 0 .3h.5c-.2.3-.8.9.3.8.1-.1.2-.3.2-.5 0-.3-.2-.2.2-.3v.2c.3.5-.5.5.6.3v.2c.2.2-.2 0 .2 0-.5 0-.2 0-.6.2-.4.2-.3 0-.6.2.3.2.3 0 .6 0h.8c0-.2.2-.3-.2-.3.2 0 .2 0 .2-.2s0 0 .2 0 .2 0 0 0-.2 0 0 0h-.8c-.1-.3-.1-.6 0-.9.6 0 .5.2.5.3-.2 0-.2 0 0 0 0 0 .2-.2 0 0h.5v.3c.6 0 .5-.2.5-.3 0-.2.2-.2.2-.5v-.4c0 .2 0 0 .2.3s.2.2.2.2c.2.2.6.2.8.3l.2.2c.6 0 .3-.2.6 0 .2 0 .3.1.5.2h-.2.5l.9-.2c.2 0 .2 0 .3-.2.3 0 .5 0 .8.2-.2.2-.3 0-.2.3h.2c0 .2 0 .2.3.3h.3c.3-.2.2 0 .3-.2l.2-.2c.1.1.3.1.5.2 0-.1.1-.1.2-.2h.8c.3 0 .2 0 .2-.2h.8c-.1-.1-.3-.1-.4.1v.1h.8c.6 0 .2-.2.5-.3.3-.2.6 0 .6 0h1.5c.8 0 .8.3 1.5.3.3 0 .5.1.8.2.3.2 0 .2.6.2 0 .2 0 .2-1.1.3.5.2.5 0 1.2 0 0 .2-.2.2-.2.3 0 .1 0 0 0 0l1.1-.5.2.2c.1.1.2.1.3.2l.3.2h.2c-.3.3-.6.5-.9.2-.3-.3.2 0-.3-.2-.3.3.5.6 1.1.5.6-.2.5-.3.6-.3v.3c-.3 0-.5.2-.5.3 0 .1.2.3.2.5s-.5.5-.2.8c.3.3 0 0 0 .3v.2c0 .2 0 .3-.2.5-.2.3-.2 0-.5.3 0 .2.2.2.3.3.2.2-.2.5-.2.8v.3h-.2c-.2 0-.3-.1-.5-.2-.3.3.2 0-1.1.2-.1-.1-.2-.1-.3-.2l-.3.2h-.8c0 .1-.1.2-.2.3-.5-.2-.2.2-.5-.2h-.2c-.2-.1-.4-.1-.6 0h-.8c-.6 0-1.5.2-2.7.2-.5 0-.6-.2-.9 0-.3.2-.3.3 0 .3h.9c.5 0 .3 0 .8-.2s.2.2.6.2c.4 0 0 0 .2-.2h1.1c-.3 0-.2 0 0 0 .4-.1.7-.1 1.1 0h1.4c.3-.2.3 0 .6 0s1.5-.2 2.1 0c-.1 0-.1.1-.2.2h-.5c0 .3.2.2.2.3h.5v.2h-3c-.2-.3.6-.2.9-.2l.2-.3c-.5-.2-.5 0-.8 0-.3 0 0-.2-.8 0H138c-.3.3-.3 0-.9 0h-1.4c0 .2 0 .2.3.2h.8c.3.6-.3 0 0 .8h-.2s-.2 0 0 0h-1.4c-.3-.2 0 0-.3 0 0 0 .2-.8-.5-.6-.2 0-.2.2-.2.2h-.6c0 .3.6.5-.3.5 0 .3-.3.2 0 .5 1.1 0 1.1-.2 1.1.3 1.1-.2-.3.3.9.3.2-.2 0-.2 0-.3-.9 0-.3-.3 0-.3h1.2c-.1-.1-.3-.1-.5-.2.4-.2.8-.2 1.2-.2 0 .3 0 .3-.6.3.2.3-.2.2 0 .3.2.1.5.1.8 0 .2-.2 0-.2-.2-.3h.3v.3c.8.2 1.1-.8.3-.8s-.2 0-.3.2h.5c0 .2-.8.2-.5-.3-.6 0-.6-.2-1.1 0-.4.1-.8.1-1.2.2h.2c.8 0 .6.2 2 0h.6c.5-.1.9-.1 1.4 0 .2 0 .3 0 .5.2s-.2.2-.5.2h-.5.3-.5l.2.5c.2.2 0 0 .3.2.2-.3 0-.3 0-.3h.2c-.2 0 0 .2.2.2s0 .2.3.2c0 0-.2.2.2 0 .3-.2.2 0 .2 0s.2 0 0-.2l.2-.2h1.1c0 .3 0 .3-.2.5s0 .3.2.6v.3c1.2.2.5.5.3.5s0 .2-.3.2c-.5.2-.8 0-.9.3.3 0 1.1 0 .8.2-.8.2-1.5 0-2.3.2-1.2.2-1.2 0-1.5.5h-1.5s.2-.2-.3 0-.2 0-.3.2h-.2l.6-.5h.9c.2 0 .2-.2.2-.3v-.2l-.2-.2c-.2.1-.3.2-.5.3-.2-.2 0-.2-.3-.2s0 0-.3.2c-.9 0-.3-.5-.3-.6 0-.1 0-.2-.2-.3.3 0 .5 0 .5-.2v-.2c-.6-.2-.3 0-.5 0s-.2.3-.3.6c-.3 0-.5-.2-.6 0-.5.3.3.5 0 .8-.3.3-.2 0-.2.2s0 .2.2.2c.3 0 .3 0 .5-.2s0-.2.2-.3c.5 0 .2.3.2.6 0-.2 0-.2-.3-.2s-.2 0-.3.2h-.5v-.3c-.5 0-.3 0-.6.2h-.3v-.2h-.5v-.5c0-.5-.3-.3-.2-.6.2-.3-.2-.3-.6-.2.2.2.2 0 .3.2.1.2-.6.2-.9.3h-.3c-.3-.3 0-.3-.5-.3l-.2.6c-.6 0 .2 0-.6-.2l-.5.2c-.1 0-.2-.1-.3-.2.6-.3.6-.2.9-.3-.3-.2-.3 0-.5 0-.3 0-.6.1-.9.2h-.5c-.3 0-.3.3-.3.5h-.5c.5 0 0-.3-.2-.5-.5 0-.3 0-.8.2-.2-.2.3 0-.3-.2h-.5s.2-.2-.2 0c0-.2 0 0-.2 0s-.2.2.2 0c.3-.2-.2 0 .2 0 .2.3.2.2.8.2 0 .2 0 .3-.3.3-.2-.1-.4-.1-.6 0 0 .2 0 .2 1.1.3l.3-.2c.3 0 .5 0 .8.2-.2.2-.2 0-.3.3h.5l.2-.2c.2-.2.3.2.3.3-.3 0-.3.2-.6.5s-.2.3 0 .5h-.2c.2.2.2 0 .3.2-.5.3-.3.5-1.1.3.2-.3.8-.3.5-.8-.8-.6.2-.3-.3-.8-.3 0-.3 0-.3.2s.2.2-.3.3l-.3-.5c-.2-.3.2-.3-.3-.5-.2.2 0 .3 0 .5s0 0-.5.2 0 0-.2 0c0-.3.2 0 .2-.3h-.2l-.3.2c-5-1.8-.2.5-1.5 1.2.2.2.2.3.3.6.8 0 .9-.2 1.1.3-.5 0-.3-.2-.6-.2-.8.3-.2.3-.3.8.3.3-.3 0 .3.5-.2.1-.3.3-.5.5h.3-.5c-.2-.2.2-.2-.5-.3-.6-.2-.5 0-.6.2-.1.2 0 0 0 0h-.2c-.1.2-.2.3-.3.5.1-.9-.6-1.7-1.5-1.8-1 .1-1.8 1-1.8 2-.1.9.4 1.8 1.2 2.1l-.2.3c.2.1.4.1.6.2.7-.1 1.4-.5 1.7-1.2h.2c.1-.8.9-1.4 1.7-1.4.8.2 1.3 1 1.1 1.9v.1c.5 0-.2-.5.6-.2 0 .5 6.9 3.1 5.7 1.5v-.2c-1.1.5-.8-.8.8-.2.8.3.5.2 1.1.3.6.2 1.5.3 2.1.6.3.2.6.2.9.3.3.1.6.2 1.1.3.6.2 1.2.5 1.8.8.3.2.6.3.9.5.9.5 1.8.9 2.7 1.2.3.1.6.3.9.5.2.1.4.3.6.5.2.2.3.3.2.5-.2.2 0 0-.2.5-.2.8-.2.2.3.9-.3 0-.6.1-.8.3-.2.2-.8.3-.9.5-.2.2 0 .2-.3.2-.6.3-.6 0-1.2 0s.5.9-.9 1.1h-.5c-.1 0-.1.1-.2.2-.3.2-.2-.2-.3.2l.3.2h-1.8c0 .3 0 .2.2.3.2.1-.2.2-.2.3 0 .2.2.5 0 .6-.2.2-.3 0-.2.3.2.3 0 0 0 .3s0 .2.2.3c.2.1.3 0 .3-.2l.5.2v.3c-.3.2 0 .2 0 .5s-.3.2.2.3l.3-.5.2-.2c.2.3 0 .5 0 .8.3.2.2.2.3.2.5.2 0 0 .6 0v.5c-.3.3-.2.8.2 1.1 0 0 .3.2.5 0 .5 0 .3.2.3.5s-.2.3.3.5c-.3 0-.3.2-.5.2-.2-.3.2-.5-.2-.8-.3-.3-.6-.2-.5.2.2.3 0 .5 0 .9s-.2.2.2.5c.5 0 .2 0 .5-.2s0 0 0-.3 0 0 .2 0h.2v1.3c0 .2 0 .2.2.3l-.3.2s-1.1-.6-1.1 0 .2.5.5.6c.3.1.6.2.5-.2-.1-.1-.2-.1-.3-.2.3 0 .5.2.5.2v.2l-.2.2.3.2c.1.1.1.3 0 .5.1.1.1.2 0 .3-.2.2-.9 0-1.2 0 0 .3.3.2 0 .6-.2.5-.2.6.6.8v-.2c0-.3 0 0-.2-.2h.3l.3.3.2.3h-.3c-.2-.1-.5-.1-.8-.2h-.3v.5h-.2c-.2 0-.2 0 0 0v.6c-.2 0 0-.2-.2-.3 0 .5-.5.3-.8.2 0-.3 0-.2.2-.2s.2-.3.2-.6h-.2v-.4c0-.2-.3 0 0 0 0-.2-.2-.2 0 0 0-.2 0 0 0 0h.3l.2.2v.5-.2c.2-.2.2-.3-.2-.5h-.6c-.1-.1-.2-.1-.3-.2 0-.3.2-.2-.5-.3 0-.3 0-.2-.2-.3-.2-.2-.2-.2-.2.2v.2c.2.1.4.3.6.3-.2.2-.5 0-.6.2-.2-.3-.5-.3-.8-.3-.3 0 .2-.2-.5-.3 0 .2.5.2.5-.2 0 0-.6-.2-.8-.2-.5-.2-.2.2-.5.2s-.8-.3-.6 0c.2.3.3 0 .6.5h-1.4c-.3-.2-.2-.2-.6-.2h-.5.2l.2.2v.6c.2 0 .9.2.8.6h-.2.3c0 .3 0 .3 1.2.6h.2v-.2c-.2-.6 0-.3.2-.5s0 0-.2-.3h.5c.6.2.5.3.5.3l.2.3.6.2c-.2.1-.4.1-.6 0h-.6v.2l1.8.3c.3.2-.5 0-.9 0 0 .3.3.2.9.3.6.2.2 0 .3.2.1 0 .2.1.3.2h.3v-.3c.5.2.3.2.3.6h-.3c-.6-.2-.2 0-.6 0h-.5l-.2.3c-.3.3-.5.2-.5.6 0 .4.2.3 0 .5h-1.1l-.2-.2v-.2c0-.2 0 0-.2 0h-.2c-.3 0-.2 0-.3.2l-.2.2c-.2 0 .2 0 0-.3-.5 0-.2 0-.5.2l-.3.5.3.2.3-.2h-.3v-.2h.3s-.2 0 0 0v.3c.3 0 .5 0 .5.2s-.2.2-.5.2c-.4 0-.8 0-1.2-.2h-.6c-1.5-.3-1.2-.2-2-.2 0 0 .2 0 0 0h.2l1.2.3c.5.2.6 0 1.1 0-.2-.5.5-.3.6-.2.1.1 0 .2 0 .2h-1.1c0 .2-.3 0 .3.2s.8-.8-.2-.8v.3h-.3c.2-.2.5-.2.2-.3-.3-.1-.3-.2-.8-.2s.2.2-.2.3c.6 0 .6 0 .6.3-.6 0-.9 0-1.1-.3.2 0 .3-.1.5-.2l-1.2-.2v.2c-.5 0-.9-.3 0-.3-.2 0-.2 0 0 0s.2-.2 0 0c.2-.2.3-.2.2-.3-1.5-.2 0 .5-1.1.2-.2.5-.2.2-1.1.2-.2 0-.2.2-.2.3h.5c.5.5 0 .3-.5.3h-.3l.2.2h.5c0 .2 0 .2.2.2.5.3.6-.5.6-.5h.6s-.2 0 0 0c-.6.6.3.2-.3.8h-.5c-.3 0-.3 0-.5.2l1.1.2c.6.2.8-.2.9.2.6 0 .3-.2.9 0 .6.2.6 0 .9.2.8.2.3 0 .9 0 .6 0 .2.2.8 0v-.3c-.5 0-1.2.2-.9-.2.3 0 .5.1.8.2.6 0 0-.2.6 0 .2.1.5.1.8.2.8.2.2 0 .6 0h.2v.2h-.6c-.2.2-.2 0-.3.3h.5v.2c-.8 0-2-.3-2.1-.3-.1 0-.3.2-.6 0l-.2-.2c-.5 0-.9-.1-1.4-.2-.4.1-.7.1-1.1 0-.2 0-.3 0 0 0h-1.2c0-.2.2-.2-.2-.2h-.6c-.3 0-.3-.2-.8-.2-.3 0-.6-.1-.9-.2-.5 0-.5.2-.2.3.3.1.5 0 .9.2 1.2.2 2.3.5 3.1.5h.9c.2.1.4.1.6 0h.2c.5-.2 0-.2.5-.2v.3h.6l.3.3c.2 0 .3-.1.5-.2 1.2.3.8 0 1.1.3h.8c-.1.1-.1.2-.2.3 0 .3.3.5-.2.8-.5.3-.3 0-.5.3.3.2.3 0 .3.3s.2.3 0 .5h-.3c0 .2.2.2 0 .3-.2.1 0 .6 0 .8 0 .2-.2.3-.3.3-.1 0 0 .3.3.5v.2c-.2 0-.2-.3-.6-.5-.5-.2-1.5 0-1.2.3.5 0 .2 0 .5-.2s.7-.1.8.2l.1.1h-1.1c-.3-.2-.5-.6-.9-.5-.2 0 0 0 0 0s.2.2.2.3c-.8-.2-.6-.3-1.2-.2 1.1.3 1.1.3 1.1.5-.6 0-.3 0-.8.2h-.9c-.8 0-.6.2-1.5.2-.6 0-1.1-.1-1.7-.2 0-.2-.5 0-.6-.2-.2-.2.2-.2-.5-.3h-.8c0 .3.3.3.5.2h-.9c0-.2 0 0-.2-.2h-.8v-.2h-.5l-.2-.2-.2-.2h-.5c-.2 0-.3.2-.3.2h-.2c-.2.2 0 .2.2.3-.2.1-.5.1-.8 0 0-.2 0 0-.2-.2l-.9-.2v-.2h-1 .6l-.2.2h-.5c-.5 0 0 0-.6-.2-.3 0-.2.2-.3.2-.1 0-.6 0-.9.2h-.2c-.2.2-.2 0-.2.2h.2v-.2c0-.1.1-.1.2-.2.2-.3 0-.3 0-.5s.3-.3-.3-.3v.3h-.5s.2 0 0 0-.2 0 0 0c-.2.3-.2.3-.6.3 0-.3.1-.6.3-.9l.3.2c0 .2 0 0 .2 0s-.2 0 0 0h-.2c-.2 0 0 0-.2-.2.3 0 .3-.2.3-.3h-.8c-.3 0-.3-.2-.8 0 .2.2.2 0 .6.2.4.2.2 0 .5.2h-.5c-1.1-.3-.3-.2-.8.3-.2.2-.2.2-.2.3-.2-.2-.2-.2 0-.3.1-.1.1-.3 0-.5-1.1-.2-.6.5-.6.8h-.5c.2.2.2.2 0 .3h-.8v-.3c-.1 0-.1.1-.2.2v.5c.9 0 .2 0 .6-.2.3.2 0 .2 0 .5 0 0-.2-.2-.3-.2-.1 0-.2 0-.2.2h-.3l-.2.2c-.2 0-.2 0-.3.3h-.2c-.3.2-.2.2-.3.2v.3s0 .2.2.2h1.1v.2h-1v.2c.5.2.8 0 .9.2-.1 0-.1.1-.2.2-.2.2 0 .2 0 .3v-.3h-.8v.5h.6c.3.2.5.2.5 0 .3.1.6.1.9.2 0-.2-.2-.2-.6-.2 0-.2 0-.3.2-.5.3.3.2.3 1.1.5h.2c.3.2 0 0 .3 0h1.3c.3.2 0 0 .2.2l.2.2h.6c-.5-.2-.3 0-.3-.2.3-.2.3 0 .8.2h.2c1.5.2.6.3 1.5.5l.3-.3h-.6l.2-.3h.5c0 .2-.2.5-.2.6h.3c.2-.2 0-.3.2-.6s0-.3.3-.6c.6 0 .5.2.2.3.2.2.3.2.2.5-.2.3-.2.3-.2.5.9 0 .5-.2.5-.2 0-.2 0-.3.2-.5h.3c.2 0 .2 0 .2.2s-.2.2 0 .3c.2.5 0 .3.2.5-.2-.3.2-.3.2-.3v-.3c.3-.1.5-.1.8 0h.2v.6c.5 0 .3 0 .3-.2s0-.2.2-.3h.3c.2.2.2.2.2.3h-.3c0 .3.8.5 1.5 0h.5v.2l-.3.2c.3.2.5.2-.3.2H125c-.5 0-.3 0-.3.2h1.4c.5 0 1.1.2 1.5.3h-.5l-2.1-.2c-.3-.1-.5-.1-.8 0-.2.5 1.2.2.9.5-.5-.2-.2 0-.3 0h-.5l-.2.2v.2h.5c.5.2.2.2.6.2.4 0 .5 0 .6.2h-1.2c-.3-.2-.2-.2-.8-.2l-.2.3c.5.2.3 0 .8.2s.3 0 .8 0c.1 0 .2.1.3.2-.4-.1-.7-.1-1.1 0 0 0-.2 0 0 .2.3.1.6.2.9.2h.9c.2.2.2 0 .3.2-.5.2-.3 0-.9 0-.3 0-.5 0-.8-.2-.3.2-.2.2-.6.2-.4 0-.6-.2-.6.2.3.1.5.1.8.2h.6-1c-.3 0-.5-.1-.8-.2-.4-.1-.7-.1-1.1 0h.1l-1.5-.2c-.3-.2-.7-.1-.9.2v-1.5c0-.2.2 0 0 0h-.6c-.2-.2.3 0-.3-.2s-.2 0-.3 0h-.2c-.5 0-.2-.2-.9-.2h-.3c-.2-.3.2-.5-.5-.6-.2 0-.3 0-.3.2s0 .2-.2.3h-.2v-.2c.5-.2.5-.6-.3-.5-.2.3 0 .2.2.5h-2c1.1-.2.8-.2.5-.5.3-.2.3-.2.2-.3-.1-.1.3-.2.2-.5h-.2c-.5 0-.6 0-.6-.3.5 0 .6.2.6-.2-.3-.1-.6-.1-.9 0l-.2.3c-1.1 0 0-.2-.5-.3-.1.4-.2.7-.3 1.1.6-3.7-.8-7.3 3.5-14.2 1.1-1.5 2.3-3.1 3.4-5l.3.3c-.8.3 0 0-.5.3v.2h.3c1.5.3 1.1.3 1.1.5h-.5l1.1.3c.6.2.2 0 .5 0s.2.2.6.2c.2-.2.2-.3-.5-.5s0 0-.2 0-.2 0-.2-.2h.3s-.2 0 .2.2h.2l.8.2c-.2-.2 0 0-.3-.2h-.6s.2 0-.2-.2.2 0-.3-.2l-.5-.2c-.6-.2 0 .2-.8-.2-.2-.3 0-.3.5-.2l.9.3 2 .5c.2 0 0-.2-.2-.3-.3-.4-.8-.5-.6-.7Zm-45.7-16.8c1.1 2.7 2.6 5.3 4.4 7.6 5.8 9.2 1.1 12.5 5.3 18 1.5 2.2 4.2 3.2 6.7 2.6-.7.5-1.5.8-2.3.9 2.1.1 4.1-.9 5.3-2.6h1.5c.2-.3.2-.6.3-.9v-.2c-.8 0-.6 0-.8.3-.6-.2.2-.3-.3-.5s-.2.2-.5.2v-.5l1.1.2c0-.2 0 0-.2-.2l-.8-.2c.2-.7.4-1.4.5-2.1 1.1-8.9-4.9-11.9-5.8-17.1-.5-2.4 2-7 2.7-9.2 3.1-8.9-.8-13.7-9.9-10.7-1.1.4-2.1.8-3.1 1.4l.9-.5c-4.6 2.3-8.2 6.4-6.1 13.3h1.1v.2Zm7.7-21.4c-.9 2.7.6 4.6 2.1 4.9 0 .1-.1.1-.2.2.8-.1 1.5-.6 1.8-1.4 0-.2.2-.2.2-.3h.5c.1-.1.1-.2.2-.3.1-.2.1-.4.2-.6h-.6v-.2h.5v-.3h-.5c.2-2.7-2.4-4.6-4-2.6h.5c-.2.3-.4.7-.5 1.1l-.2-.5Zm28.1 13.8c.3.9.3 1.9 0 2.7-.2.5-.5.9-.9 1.2v.3c-.4.3-1 .5-1.5.5l.3-.3c-1-.2-1.8-.9-2-1.8-.4-1.1-.3-2.3.3-3.4 1.2-1.5 3.1-1.5 4 .9l-.2-.1Zm-8.6 4.3.3-.3c-1.5.2-3.1-.9-3.7-3.5-.7-1.8-.4-3.8.9-5.2 1.5-1.2 4.3-.8 5.3 2.7.5 1.5.4 3.2-.5 4.6-.5.9-1.5 1.5-2.6 1.5l.3.2Zm17.7 1.5c-.3.2-.2.2-.5.2.1-.1.1-.2.2-.3h.3v.1Z" fill="url(#b)"/><path d="m0 137.946 3.1-30.6h4.1l-1.5 13.1h8.1l1.5-13.1h4.1l-3.1 30.6h-4.1l1.5-14.2H5.6l-1.5 14.2H0Zm28.7.3c-1.3 0-2.6-.2-3.8-.8-.9-.4-1.7-1.1-2.3-2-.6-.9-.9-2-1.1-3.1-.1-.6-.1-1.2-.2-1.8 0-.7.1-1.4.2-2.1l1.4-11.6c.1-2.6 1.1-5.1 2.7-7.2 1.7-1.7 4.1-2.6 6.6-2.4 1.3-.1 2.6.2 3.8.6 1 .4 1.9 1.1 2.4 2 .6.9.9 2 1.1 3.1.1.7.1 1.3.2 2 0 .7-.1 1.3-.2 2l-1.2 11.6c-.1 1.4-.5 2.7-.9 4-.4 1.1-.9 2.1-1.7 3.1-.7.9-1.7 1.6-2.7 2-1.3.5-2.6.7-4 .6h-.3Zm.5-3.1c.7 0 1.5-.1 2.1-.3.6-.3 1-.7 1.4-1.2.3-.5.6-1.1.8-1.7.2-.8.4-1.5.5-2.3l1.5-13.3v-2.6c-.1-.6-.2-1.1-.5-1.7-.2-.5-.6-.8-1.1-1.1-.7-.3-1.4-.5-2.1-.5-.7 0-1.5.1-2.1.3-.6.3-1.1.7-1.4 1.2-.3.5-.6 1.1-.8 1.7-.2.8-.4 1.5-.5 2.3l-1.5 15.3c0 .4.1.8.2 1.2.1.8.5 1.5 1.1 2 .7.6 1.7.8 2.6.8l-.2-.1Zm12.2 2.8 3.1-30.6H56l-.3 3.1h-7.3l-3.1 27.5h-3.9Zm14.4 0 3.1-30.6h3.8l-2.3 21.4 11.3-21.4h3.1l-3.1 30.6H68l2.3-21.7-11.2 21.7h-3.3Zm29 0 3.1-30.6h6.9c2.2-.2 4.3.4 6 1.8 1 1.2 1.5 2.8 1.4 4.4v1.5c-.4 3.9-2 6-4.9 6.4 1.5.3 2.9 1.2 3.7 2.6.6 1.1.8 2.4.8 3.7v1.5c-.1 2.4-1.1 4.6-2.6 6.4-1.6 1.6-3.8 2.4-6.1 2.3h-8.3Zm4.6-3.1h3.1c1.4.1 2.8-.4 3.8-1.4.9-1.3 1.5-2.8 1.5-4.4.1-.4.1-.8.2-1.2.1-1.1-.2-2.2-.8-3.2-.9-1.1-2.4-1.7-3.8-1.5h-3.1l-.9 11.7Zm1.5-14.6h2.3c1.3.1 2.7-.3 3.7-1.2.9-1.1 1.4-2.5 1.4-4v-2.3c-.1-.5-.2-1-.5-1.4-.3-.4-.6-.6-1.1-.8-.5-.2-1.1-.3-1.7-.3h-3.4l-.7 10Zm25.1 17.7 3.1-27.5h-6v-3.1h15.3l-.3 3.1h-5.3l-3.1 27.5H116Zm11.9 0 3.1-30.6h11.8l-.3 3.1h-7.6l-1.1 10.2h6.1l-.3 3.1h-6.1l-1.2 11.3h7.6l-.3 3.1-11.7-.2Zm15.3 0 3.1-30.6h16.8l-3.1 30.6h-4.1l3.1-27.5h-9.2l-3.1 27.5h-3.5Zm19.2 0 .3-3.1h.9c.3 0 .6-.1.9-.2.3-.1.5-.3.8-.5.6-.7 1.1-1.4 1.4-2.3.2-.6.5-1.2.6-2l3.8-22.3h13.3l-3.1 30.2h-4.1l3.1-27.5h-6.1l-2.1 12.8c-.2 1.2-.4 2.3-.6 3.5l-.8 3.1c-.2.9-.5 1.7-.8 2.6-.3.7-.7 1.4-1.1 2-.3.6-.7 1.1-1.2 1.5-.5.4-1 .8-1.5 1.1-.6.3-1.3.5-2 .6-.5.1-.9.1-1.4.2l-.3.3Zm24 0 3.1-30.6h11.7l-.3 3.1h-7.6l-1.1 10.2h6.1l-.3 3.1h-6.1l-1.2 11.3h7.6l-.3 3.1-11.6-.2Z" fill="url(#c)"/></g><defs><linearGradient id="b" x1=".978" y1="54.264" x2="199.2" y2="54.264" gradientUnits="userSpaceOnUse"><stop stop-color="#1C8AE2"/><stop offset=".486" stop-color="#8B00B3"/><stop offset="1" stop-color="#6900B5"/></linearGradient><linearGradient id="c" x1=".978" y1="122.708" x2="199.2" y2="122.708" gradientUnits="userSpaceOnUse"><stop stop-color="#1C8AE2"/><stop offset=".486" stop-color="#8B00B3"/><stop offset="1" stop-color="#6900B5"/></linearGradient><clipPath id="a"><path fill="#fff" d="M0 0h201v155H0z"/></clipPath></defs></svg>