<svg xmlns="http://www.w3.org/2000/svg" xml:space="preserve" id="Слой_1" x="0" y="0" style="enable-background:new 0 0 2459 424.8999939" version="1.1" viewBox="0 0 2459 424.9"><style>.st0{fill:#fff}</style><path d="M0 9.21h149.553l61.356 61.904v100.25l-30.13 36.156 41.086 40.538v109.563l-61.355 61.355H29.034V76.592l20.817-12.6v-3.834H0V9.21zm131.476 176.945 29.034-34.512V91.93l-31.774-31.773H79.433v125.997h52.043zM79.433 368.577h60.26l31.773-31.773v-65.738l-35.06-34.512H79.433v132.023zM600.481 354.882l-61.903 65.738h-78.885l-61.355-65.738V65.088L460.24 3.185h78.337l61.903 61.903v289.794zm-49.85-19.174V85.357l-32.87-32.869H480.51L447.64 85.357v250.351l33.417 35.608h36.156l33.416-35.608zM762.698 9.759h96.963l46.565 146.814 44.92 171.466h1.644l-10.956-174.205V9.759h48.755v409.217h-53.138L873.357 217.38 836.105 83.166h-1.643l6.574 138.597v197.213H792.28V75.496l20.817-12.6v-3.834h-50.399V9.759zM1323.737 200.946v49.851h-92.033v168.18h-49.851V76.043l20.817-12.6V59.61h-49.851V10.306h196.665v96.416h-48.755V59.61h-69.025v141.336h92.033zM1575.783 8.115v328.689l31.225 34.512h32.869l31.225-34.512V8.115h49.851V355.43l-58.616 65.737h-77.242l-59.164-65.737V70.018l20.817-12.6v-3.834h-50.399V8.115h79.434zM1950.016 338.447l32.322 33.965h36.155l32.321-33.965v-65.19l-147.362-102.989V67.28l58.616-61.355h76.694l58.617 61.355v136.385l-49.304-31.592V87.548l-30.677-32.32h-34.513l-30.13 32.32v56.973l146.815 102.99v110.658l-60.26 63.546h-78.337l-60.26-63.546V209.456l49.303 33.172v95.82zM2428.322 191.085v49.851h-92.58v128.189h73.407v-42.182H2459v92.033h-173.11V74.95l20.818-12.6v-3.835h-49.852V8.663h197.214v96.963h-49.851V58.514h-68.477v132.571h92.58z" class="st0"/></svg>