<?xml version="1.0" encoding="utf-8"?>
<!-- Generator: Adobe Illustrator 25.2.0, SVG Export Plug-In . SVG Version: 6.00 Build 0)  -->
<svg version="1.1" id="Слой_1" xmlns="http://www.w3.org/2000/svg" xmlns:xlink="http://www.w3.org/1999/xlink" x="0px" y="0px"
	 viewBox="0 0 834.6420898 104.4471588" style="enable-background:new 0 0 834.6420898 104.4471588;" xml:space="preserve">
<style type="text/css">
	.st0{fill:#FCFCFC;}
	.st1{fill:#A2D2B3;}
</style>
<g id="Слой_2_2_">
	<g id="Слой_1-2">
		<path class="st0" d="M87.0011292,40.1505585c2.9073792-2.3435249,5.2953644-5.2663231,7.0121536-8.5825844
			c2.576828,3.5066872,4.6105652,7.3816376,6.0327072,11.4943542c1.5969925,4.3460732-1.5040283,11.9624939-8.4398193,19.0908585
			c0.0897751-7.5824547-1.4820557-15.0925865-4.6050415-22.0026245"/>
		<path class="st0" d="M82.331337,43.4057312c3.4289169,6.6692467,5.6468658,13.8941689,6.5506516,21.3386002
			c-5.9241104,5.1782379-12.8477325,9.0858383-20.3425446,11.4810715c0.4252853-9.1355286,0.052002-18.29076-1.1155701-27.3613472
			C72.6638412,47.8930435,77.7032547,46.0478821,82.331337,43.4057312"/>
		<path class="st0" d="M84.1212311,35.0877266c-4.9475479-7.2620926-12.2541733-12.5898571-20.6812019-15.0801125
			c5.731205-2.1840134,12.0611534-2.2087955,17.8092766-0.0697231c1.2732544,0.7631683,2.5066452,1.5909672,3.6953278,2.4801502
			c3.3765945,2.6594391,2.9848175,7.6695442-0.8233948,12.6696854"/>
		<path class="st0" d="M62.4111137,25.3183575c7.2117882,2.6679001,13.3585472,7.6118832,17.5104637,14.0840702
			c-3.8253479,3.0827103-8.1712341,5.4563637-12.8323746,7.0088348
			C66.0748215,39.2704086,64.5108109,32.218502,62.4111137,25.3183575"/>
		<path class="st0" d="M170.3896027,91.2244034h-28.4171448l37.5541992-69.2782211h34.8914337l37.6438293,69.2782211h-28.4171448
			l-5.8766479-12.3044739h-41.5018616L170.3896027,91.2244034z M196.5125427,36.6378403l-12.4406128,25.9868011h25.9370117
			l-12.3941193-25.9868011H196.5125427z"/>
		<path class="st0" d="M305.0900879,65.9285889V54.2682266h46.7808533l-0.3187256,6.4742889
			c-0.0350647,0.1804199-0.0506287,0.3640785-0.0464783,0.5478287c-0.0079956,0.1868591-0.0392456,0.3720016-0.0929565,0.5511475
			c-1.5467529,9.0867996-6.6726379,17.1738968-14.2301636,22.4508438
			c-7.7591858,5.4184875-18.5032043,8.4929428-32.3216553,8.4929428c-16.3450928,0-28.9682922-3.2603836-37.5541992-9.2266922
			c-8.4671021-5.5865021-13.436142-15.1603088-13.1311951-25.2997284V54.955307
			c-0.3043365-10.209713,4.6977539-19.8494949,13.2208557-25.478653c8.6323547-5.8801498,21.3485413-9.0474052,37.5110168-9.0474052
			c10.739502-0.4744587,21.4178162,1.8515911,30.9869385,6.7498627
			c7.8859863,4.4612103,13.5706177,11.9910011,15.7009888,20.7974129h-21.6672974
			c-1.9415588-4.6310387-5.4987488-8.3994446-10.0102539-10.604557c-4.6777649-2.2604027-9.8153992-3.4070206-15.010376-3.350029
			c-4.7316284-0.0525513-9.4371338,0.7077446-13.911438,2.2477417c-4.0541077,1.3623543-7.6582031,3.8079491-10.421936,7.0719147
			c-2.7836304,3.4508362-4.2488403,7.7793999-4.133606,12.2115059v2.1116142
			c-0.1523438,6.5517769,3.1185913,12.7099495,8.6323853,16.2521248c5.9524841,3.6626892,12.8489075,5.4981918,19.8345642,5.2790375
			c6.1107483,0.1574478,12.1704712-1.1494522,17.6731567-3.8115311c4.1143494-1.8774338,7.351532-5.2619629,9.0440674-9.45578
			L305.0900879,65.9285889z"/>
		<path class="st0" d="M449.1546021,44.1202583v0.9196815c0.1199341,4.2235641-1.5658875,8.2980537-4.6349182,11.2021828
			c-3.1852112,2.8963699-7.0065308,5.003746-11.1557007,6.1522369c2.1051941,0.8712006,3.9876099,2.2044487,5.5081177,3.9011726
			c1.4825134,1.8524017,2.6604309,3.9291763,3.4894714,6.1522369l3.4894409,8.6755447
			c1.3391113,3.6250916,3.2112427,7.0302658,5.5546265,10.1032104h-19.5125122
			c-1.9233093-2.3866272-3.4143677-5.0912399-4.4058228-7.9916l-3.90448-9.9604416
			c-0.914978-2.5639877-2.7914734-4.6714859-5.2325439-5.8766632c-3.2799377-1.3889313-6.8140869-2.0765305-10.3754578-2.0186539
			h-24.5624695v25.8473587H365.27771V21.9915352h51.0074158c8.4812927-0.4573631,16.9101563,1.586071,24.2404175,5.8766613
			c5.5254822,3.5310307,8.7992859,9.6969509,8.6290588,16.2521305 M430.6082764,44.4888611v-0.5046616
			c0.1601868-2.8284187-1.0752563-5.5559273-3.3068848-7.3010063c-3.4667358-2.1202469-7.5170593-3.0851707-11.5674133-2.755722
			h-32.3216248v20.4786797h30.8972778c4.0637207,0.1712494,8.1052856-0.6815948,11.7533264-2.4801521
			c2.8113098-1.4073029,4.5751953-4.2933846,4.5453186-7.43713"/>
		<path class="st0" d="M459.6685181,58.0304527v-2.7988892c-0.1100159-9.6605301,4.4344177-18.7840576,12.2114868-24.515976
			c8.1742249-6.2451992,20.428894-10.0534077,36.9134216-10.0534077c16.4812317,0,28.7392273,3.9011745,36.8636169,10.1463718
			c7.7382813,5.7183418,12.263855,14.8016205,12.1682739,24.4230118v2.7988892
			c0.1053467,9.6116905-4.4238281,18.6861153-12.1682739,24.3798485c-8.1708984,6.2883682-20.428894,10.189537-36.956604,10.189537
			c-16.4812317,0-28.6462402-3.8082047-36.8204346-10.0534058c-7.7770691-5.7319107-12.3215637-14.8554382-12.2114868-24.515976
			 M508.7005005,82.9149704c8.8393555,0.3672638,17.5720825-2.0405579,24.9741821-6.8859863
			c6.0543823-4.1385422,9.6381226-11.0305862,9.5487671-18.3637428v-2.0684509
			c0.0800171-7.3427048-3.4998779-14.2435989-9.5487671-18.4069061c-7.4157104-4.8112259-16.1417847-7.2021618-24.9741821-6.8428268
			c-8.8061218-0.3756409-17.508606,2.0173988-24.884491,6.8428268c-6.047699,4.1643028-9.6272888,11.0645485-9.5487671,18.4069061
			v2.1149292c-0.0877991,7.3318901,3.495697,14.2222481,9.5487671,18.360424
			C491.1918945,80.8975906,499.8943787,83.2906265,508.7005005,82.9149704"/>
		<polygon class="st0" points="609.0958252,52.5114708 573.6599121,52.5114708 573.6599121,21.4647617 608.9032593,21.4647617 
			608.9032593,29.3235512 585.7784424,29.3235512 585.7784424,33.0288391 606.8049316,33.0288391 606.8049316,40.8643875 
			585.7784424,40.8643875 585.7784424,44.6958389 609.0958252,44.6958389 		"/>
		<polygon class="st0" points="611.8781128,21.4813595 623.6281128,21.4813595 632.8482056,32.5739784 642.0814819,21.4813595 
			653.7717896,21.4813595 639.5549316,36.7938843 655.0467529,52.5114708 643.3830566,52.5114708 632.8216553,41.1333199 
			622.3532104,52.5114708 610.6297607,52.5114708 626.121582,36.7706451 		"/>
		<path class="st0" d="M697.7142334,31.6883259v0.700552c0.1497192,3.2529297-1.3118286,6.3710213-3.9078369,8.336895
			c-3.1972656,2.084198-6.9766235,3.0927238-10.7871704,2.8785667h-14.4160767v8.907959h-10.006897V21.4822922h23.9714355
			c3.873291-0.183754,7.7174683,0.7522202,11.0727539,2.6959591c2.5796509,1.6170082,4.125061,4.4660282,4.0737915,7.5101757
			 M687.4915161,32.5749092v-0.4316216c0-2.695961-1.7696533-4.1767483-5.989502-4.1767483h-12.8988037v9.1536503h12.7493896
			c4.1435547,0,6.138916-1.7463989,6.138916-4.5452843"/>
		<path class="st0" d="M700.1472168,37.7002869v-1.3811836c-0.1088867-4.4541988,2.0360107-8.662899,5.7040405-11.1922226
			c10.3696899-5.7526588,22.9761963-5.7363319,33.3309937,0.0431614c3.6317749,2.538353,5.7606201,6.7189102,5.6774292,11.1490612
			v1.377861c0.0869751,4.4210091-2.0441284,8.5922394-5.6774292,11.1125374
			c-10.3596191,5.7899933-22.9761353,5.8138542-33.3575439,0.0630836
			C702.1782837,46.336319,700.0462646,42.1408691,700.1472168,37.7002869 M722.4918213,47.760334
			c3.5189819,0.1211853,6.9940796-0.8105888,9.9803467-2.6760368c2.5830078-1.6707077,4.1236572-4.5538025,4.0771484-7.6297035
			v-0.9296417c0.0421143-3.0810966-1.496521-5.969162-4.0771484-7.6529427c-6.182251-3.5105934-13.7553101-3.5105934-19.9375,0
			c-2.5787354,1.6851959-4.1157837,4.5727081-4.0738525,7.6529427v0.9429245
			c-0.0568237,3.0802536,1.484375,5.9705544,4.0738525,7.6396637c2.9804688,1.8568993,6.447876,2.7806435,9.9570923,2.6526337"/>
		<path class="st0" d="M768.5725708,40.3933907h-10.9896851v12.1185417h-6.3979492V21.5050659h21.833313
			c3.7328491-0.2182808,7.4472046,0.6698742,10.6776123,2.553194c2.3578491,1.5625,3.7423706,4.2311897,3.6621094,7.0586338
			v0.3486137c0.0332642,1.9389229-0.7700195,3.7982864-2.2045898,5.1030693
			c-1.5151367,1.3141518-3.319458,2.2515717-5.2657471,2.7358017c0.984436,0.3744431,1.8726807,0.9643326,2.5996704,1.7264786
			c0.6738892,0.8339844,1.206665,1.7727356,1.5770874,2.778965l1.7929077,4.4423599
			c0.5551147,1.5460892,1.3690796,2.9865341,2.4071045,4.2597504h-6.9092407
			c-0.8327026-1.0183907-1.4830933-2.1731033-1.9223022-3.4131126l-1.9522705-4.9603004
			c-0.5045776-1.3895035-1.5932007-2.4878082-2.9781494-3.004734c-1.9140015-0.6104012-3.9244385-0.8614197-5.9298096-0.7403908
			 M780.8173828,31.2793865v-0.2056847c0.1022949-1.4645977-0.5297241-2.884325-1.6866455-3.78829
			c-1.8770752-1.1398525-4.0664673-1.656992-6.255188-1.4774666h-15.2926025v10.5912743h14.4459839
			c2.1914063,0.0972328,4.3735352-0.3403358,6.3580322-1.2749367c1.491333-0.6971054,2.4404297-2.198555,2.4303589-3.8447304"/>
		<polygon class="st0" points="828.2821045,25.8274345 812.3553467,25.8274345 812.3553467,52.5114708 805.9308472,52.5114708 
			805.9308472,25.8274345 790.0107422,25.8274345 790.0107422,21.5046024 828.2821045,21.5046024 		"/>
		<path class="st1" d="M592.6746216,81.3487167l0.0697021-0.0199203h-5.5081177v11.4545135h-13.5793457V58.3434067h28.0751343
			c4.394043-0.1852684,8.7492065,0.8919945,12.5501709,3.1043358c3.0264893,1.8253822,4.8625488,5.1147728,4.8274536,8.648983
			v0.6673508c0.057312,1.9890213-0.6674805,3.9212418-2.0186768,5.3819656
			c-1.4029541,1.3920212-3.1002197,2.4516907-4.9669189,3.1010208c1.9998169,1.0572205,3.5183105,2.8407211,4.2431641,4.9835358
			l1.1553955,2.8022079c0.6872559,2.0552216,1.6824341,3.9942017,2.9516602,5.7506943h-14.5389404
			c-0.9989014-1.3271561-1.7790527-2.805603-2.310791-4.3792801l-1.3911743-3.7019577
			c-0.3946533-1.1076736-1.2160034-2.011467-2.2809448-2.5100403c-1.6287231-0.621109-3.3640137-0.9144592-5.1063843-0.8632355
			h-1.6965942c-0.1577148,0.0166245-0.3162842,0.0232849-0.4747925,0.0199203 M605.2247925,70.3027725v-0.2988129
			c0.0598145-0.9092178-0.3625488-1.7829895-1.1122437-2.3008652c-0.887085-0.4944153-1.8938599-0.7334518-2.9085083-0.6905899
			h-13.9678345v6.4145203h13.8151245c1.0302734,0.0246124,2.0454102-0.2510986,2.9216919-0.7935104
			c0.7911377-0.5092087,1.2641602-1.390007,1.251709-2.3307419"/>
		<path class="st1" d="M659.3303223,58.3658257h11.1158447v17.8690376
			c0.2765503,4.7464142-1.6414185,9.3570175-5.2026367,12.5070038c-3.6588135,3.0412521-9.3362427,4.824173-17.5701904,4.824173
			c-4.6070557,0.1636887-9.1990967-0.6123962-13.49646-2.2809448c-3.0072632-1.1858521-5.5267944-3.3510056-7.1516113-6.1455994
			c-1.463623-2.7659454-2.1778564-5.8667679-2.0717163-8.994278V58.3658257h11.1158447v17.7596703
			c-0.171814,2.6996918,0.7798462,5.3503571,2.6295776,7.3242493c5.4189453,3.8098145,12.6478271,3.8018417,18.0582886-0.019928
			c1.8252563-1.9975739,2.7548218-4.6543427,2.5731201-7.354126L659.3303223,58.3658257z"/>
		<path class="st1" d="M716.8436279,82.6507187c0,7.032074-7.0254517,10.9134903-20.5350952,10.9134903
			c-5.5883179,0.3175125-11.1564331-0.9068298-16.0961304-3.5392761c-3.1483765-1.6972046-5.1370239-4.9600372-5.2026978-8.5360947
			h10.614563c0.0680542,1.5025787,0.9394531,2.8522644,2.2809448,3.5326309
			c2.5780029,1.3289108,5.4693604,1.9303589,8.3634033,1.7397614c2.4726563,0.1505127,4.947937-0.2486191,7.2479248-1.1686935
			c1.1486206-0.3864212,1.9465942-1.4328613,2.0152588-2.6428375c-0.0491333-0.9743271-0.6709595-1.8269348-1.5836792-2.1713715
			c-1.3245239-0.5922852-2.7404785-0.9538574-4.1867065-1.0690918l-12.8988037-1.8028336
			c-3.0357666-0.2583389-5.928894-1.40242-8.3202515-3.2902679c-3.2578125-2.9475327-3.6481934-7.9255524-0.8898315-11.3449478
			c1.6911011-1.9110374,3.8848877-3.3087616,6.331543-4.0339813c7.7062988-2.1519508,15.8483887-2.2001762,23.5797119-0.1396484
			c2.4866943,0.7112389,4.7174072,2.1204109,6.4277954,4.0605431c1.3449097,1.6748314,2.1412964,3.7232628,2.2809448,5.866703
			h-9.5587158c-0.1682739-1.4916382-1.1314087-2.7750397-2.5166626-3.3533554
			c-2.6074219-1.0114212-5.4024048-1.448555-8.1941528-1.2815704c-2.4080811-0.1358566-4.8164063,0.2632599-7.0519409,1.1686859
			c-1.364563,0.6607056-1.8393555,1.5239487-1.8393555,2.2809448c-0.0060425,0.9997406,0.6276245,1.8914413,1.5737305,2.2145386
			c1.5797119,0.6006393,3.2382813,0.9685974,4.9237671,1.0923309l10.9365845,1.3977814
			c8.416626,1.0923309,12.2978516,4.3327942,12.2978516,10.106369"/>
		<path class="st1" d="M760.890686,82.858223c0.0048218,3.416481-2.0084839,6.5133972-5.1329346,7.8954849
			c-4.6738281,2.0865326-9.7763062,3.0333023-14.8875122,2.7623672c-5.4324341,0.2884598-10.8413696-0.901413-15.6512451-3.4430008
			c-3.1101074-1.6303482-5.0878906-4.8227844-5.1627808-8.3335724h8.6555786
			c0.071106,1.7158737,1.0518799,3.2635956,2.5731201,4.0605392c2.9233398,1.576088,6.2313232,2.2975082,9.5454102,2.0817337
			c2.8439331,0.1437912,5.6856689-0.3237839,8.3335571-1.3712158c1.4464111-0.5211868,2.4351196-1.8639297,2.503418-3.3998337
			c-0.0274658-1.2425003-0.8025513-2.3454208-1.9622192-2.792244c-1.6542969-0.7018814-3.4111938-1.1313171-5.2026978-1.2716141
			l-12.2314453-1.6700363c-7.3707275-0.9794464-11.295105-4.083786-11.295105-9.2167282
			c0.0079346-1.8218918,0.652771-3.5836411,1.8227539-4.9802246c1.6626587-1.8540192,3.8057251-3.2121964,6.1920776-3.9244156
			c3.7151489-1.1684914,7.5976563-1.7159195,11.4910278-1.6202354c5.1938477-0.3515625,10.3838501,0.7388306,14.9971313,3.1508217
			c2.8419189,1.7047882,4.6819458,4.6807175,4.9370117,7.9849548h-7.8322144
			c-0.2224121-1.7219162-1.3076782-3.2114792-2.87854-3.9509735c-2.8953247-1.2203674-6.034668-1.7511635-9.1702271-1.5505066
			c-2.8135376-0.1696205-5.6260986,0.3488922-8.1941528,1.5106659c-1.2076416,0.51651-2.0349731,1.6535492-2.1547852,2.9615707
			c-0.0272217,1.2018814,0.6937866,2.2946243,1.8094482,2.7424469c1.7651367,0.7361298,3.6420288,1.1683121,5.5513306,1.2782593
			l10.9464722,1.3512955c3.2965088,0.2221222,6.4816284,1.2826767,9.2532959,3.0811005
			c2.0756226,1.5726013,3.250061,4.0615921,3.144165,6.6635361"/>
		<rect x="767.776001" y="58.3875313" class="st1" width="7.0951357" height="34.3967018"/>
		<path class="st1" d="M787.0447998,92.7860336h-7.4437866l19.7415771-34.4000587h9.1702271l19.7681274,34.4000587h-7.4437866
			l-4.9237671-9.0341263h-23.9714966L787.0447998,92.7860336z M803.4761963,62.5195541L794.392334,79.229866h19.0742188
			l-9.0872803-16.7103119H803.4761963z"/>
		<path class="st0" d="M13.973134,71.2364807C10.635128,68.0459366,6.2190485,66.227829,1.60226,66.1433716
			c0.5281111,4.5876389,2.7635674,8.8084564,6.2617998,11.8230515c3.3364215,3.190918,7.7516398,5.0091629,12.3675537,5.0931091
			C19.7041225,78.4724426,17.4699326,74.2517776,13.973134,71.2364807"/>
		<path class="st0" d="M9.7661734,49.9878578c-1.4025097-4.3992004-4.4096541-8.1092339-8.4232168-10.3920631
			c-1.7326406,4.2790642-1.7907223,9.0536079-0.1626873,13.3735542c1.4034564,4.3995323,4.4102397,8.1103058,8.4232168,10.3953857
			C11.3344002,59.0841713,11.3924723,54.3092537,9.7661734,49.9878578"/>
		<path class="st0" d="M17.0080814,29.2950993c-0.2398911-4.6106949-2.2048759-8.9625778-5.5048075-12.1915855
			c-2.7639799,3.698761-4.033535,8.302824-3.5558791,12.8954563c0.2376189,4.6112442,2.2029595,8.9639168,5.504806,12.1915855
			C16.2161789,38.4917908,17.4857349,33.8877296,17.0080814,29.2950993"/>
		<path class="st0" d="M32.1545982,14.6252546C33.9875984,9.9216032,33.9828568,4.700315,32.1413193,0
			c-4.4160767,2.4465911-7.7492199,6.4660425-9.3362579,11.2586241c-1.8346119,4.7033491-1.8298702,9.9252481,0.0132809,14.6252565
			C27.2336922,23.4364128,30.5665684,19.417284,32.1545982,14.6252546"/>
		<path class="st0" d="M91.3545074,69.2037506c-0.307724,3.7880554-0.8286972,7.5557632-1.560463,11.2851868
			c0.0464783-3.5459213-0.059761-6.8693924-0.2954941-9.9903336c-6.3874588,4.322464-13.5730286,7.3272324-21.1360703,8.8384018
			c-0.2656097,3.9841843-0.6872711,8.1011658-1.3114548,12.3343582c-0.1062469-4.0937424-0.3353348-8.0945206-0.6507492-11.9824142
			c-8.5539894,1.3204346-17.282238,0.9811325-25.7079086-0.9993668c8.5206757,1.1133804,17.1778069,0.5174255,25.465538-1.7530365
			c-0.8641052-9.1581497-2.2586937-18.2584648-4.1767426-27.2551003c-5.4002457,0.537323-10.8420372,0.5050545-16.235527-0.0962868
			c5.3344154,0.1143532,10.6628418-0.4230614,15.8669891-1.6003113c-1.6290779-8.6680717-4.2020187-17.1317902-7.6728668-25.2399693
			c-0.0917015-0.1150398-0.164547-0.2439175-0.2158127-0.3818169c-0.2091675-0.1560459-0.2456856-0.3984165-0.0165977-0.7536716
			h0.0033188c0.1139183-0.3047581,0.3049622-0.5747414,0.5544662-0.783556
			c1.9854469-2.5797558,6.2252769-5.8598957,14.8477058-5.8501015C45.742897,9.3335152,22.2238941,23.7046757,16.5816765,47.0746155
			s8.728941,46.8889389,32.0988846,52.5311661c23.3699455,5.6422119,46.8889427-8.7289429,52.5311623-32.0988846
			c0.6671982-2.7635345,1.0620728-5.5857811,1.1789627-8.4263115c-3.2892609,3.7758064-6.9910583,7.1713524-11.036171,10.1231346
			 M35.3369713,72.3611832c-1.7715149,3.7191467-4.8782635,6.6350632-8.7021103,8.1675644
			c-1.8679924-8.2511292,2.4086323-16.6620522,10.1762581-20.0138512c1.0127869,3.9938316,0.4865723,8.2224846-1.4741478,11.8462944
			 M20.0244465,62.633152c0.1566277-3.958374,1.7984085-7.7125397,4.5984039-10.5149117
			c2.6524696-2.9425011,6.3147221-4.7796135,10.2592602-5.1463928c-0.1602287,3.9572334-1.8028717,7.7094765-4.6017246,10.5115852
			c-2.6500225,2.9443932-6.3116264,4.7828979-10.2559395,5.1495552 M33.7100983,39.5280724
			c-3.0517368,2.7695923-7.0347118,4.288105-11.1556969,4.2531128c0.5784454-4.080761,2.6716805-7.7942963,5.8633804-10.4020233
			c3.052887-2.767334,7.0353737-4.2844734,11.1556969-4.2497902c-0.577713,4.0800819-2.6711693,7.7928276-5.8633804,10.3987045"/>
	</g>
</g>
</svg>
