<?xml version="1.0" encoding="utf-8"?>
<!-- Generator: Adobe Illustrator 22.0.0, SVG Export Plug-In . SVG Version: 6.00 Build 0)  -->
<svg version="1.1" id="Layer_1" xmlns="http://www.w3.org/2000/svg" xmlns:xlink="http://www.w3.org/1999/xlink" x="0px" y="0px"
	 viewBox="0 0 97.245 25" style="enable-background:new 0 0 97.245 25;" xml:space="preserve">
<style type="text/css">
	.st0{fill-rule:evenodd;clip-rule:evenodd;fill:#A6AAAA;}
	.st1{fill-rule:evenodd;clip-rule:evenodd;fill:#F3792E;}
	.st2{fill-rule:evenodd;clip-rule:evenodd;fill:#F06022;}
	.st3{fill-rule:evenodd;clip-rule:evenodd;fill:#D95122;}
	.st4{fill-rule:evenodd;clip-rule:evenodd;fill:#F89A2C;}
	.st5{fill-rule:evenodd;clip-rule:evenodd;fill:#FFFFFF;}
	.st6{fill:#FFFFFF;}
	.st7{fill-rule:evenodd;clip-rule:evenodd;fill:#B4008D;}
	.st8{fill-rule:evenodd;clip-rule:evenodd;fill:#9DBC0A;}
	.st9{fill:none;stroke:#9DBC0A;stroke-width:0.1962;stroke-miterlimit:10;}
	.st10{fill-rule:evenodd;clip-rule:evenodd;fill:#DF3F17;}
	.st11{fill:none;stroke:#DF3F17;stroke-width:0.1962;stroke-miterlimit:10;}
	.st12{fill-rule:evenodd;clip-rule:evenodd;fill:#F5B208;}
	.st13{fill:none;stroke:#F5B208;stroke-width:0.1962;stroke-miterlimit:10;}
	.st14{fill:#9DBC0A;}
	.st15{fill:none;stroke:#9DBC0A;stroke-width:0.2023;stroke-miterlimit:10;}
	.st16{fill:none;stroke:#DF3F17;stroke-width:0.2023;stroke-miterlimit:10;}
	.st17{fill:none;stroke:#F5B208;stroke-width:0.2023;stroke-miterlimit:10;}
	.st18{fill-rule:evenodd;clip-rule:evenodd;fill:#85754E;}
	.st19{fill:#85754E;}
	.st20{fill-rule:evenodd;clip-rule:evenodd;fill:#1A171B;}
	.st21{fill:#016268;}
	.st22{fill:#00A9C2;}
	.st23{fill:#21427B;}
	.st24{fill:#FAE101;}
	.st25{fill-rule:evenodd;clip-rule:evenodd;fill:#32327F;}
	.st26{fill-rule:evenodd;clip-rule:evenodd;fill:#FCB813;}
	.st27{fill:#002169;}
	.st28{fill:#C6C7C8;}
	.st29{fill:#F79420;}
	.st30{fill:#FCB831;}
	.st31{fill:#FDDD2E;}
	.st32{fill:#F3C700;}
	.st33{fill:#DB6216;}
	.st34{fill:#EAA600;}
	.st35{fill:#E32427;}
	.st36{fill:#FFFFFF;stroke:#FFFFFF;stroke-width:0.1124;stroke-miterlimit:10;}
	.st37{fill:url(#SVGID_1_);}
	.st38{fill-rule:evenodd;clip-rule:evenodd;fill:#C1272D;}
	.st39{fill-rule:evenodd;clip-rule:evenodd;fill:url(#SVGID_2_);}
	.st40{fill-rule:evenodd;clip-rule:evenodd;fill:url(#SVGID_3_);}
	.st41{fill-rule:evenodd;clip-rule:evenodd;fill:url(#SVGID_4_);}
	.st42{fill-rule:evenodd;clip-rule:evenodd;fill:url(#SVGID_5_);}
	.st43{fill-rule:evenodd;clip-rule:evenodd;fill:url(#SVGID_6_);}
	.st44{fill-rule:evenodd;clip-rule:evenodd;fill:url(#SVGID_7_);}
	.st45{fill-rule:evenodd;clip-rule:evenodd;fill:url(#SVGID_8_);}
	.st46{fill:#006937;}
	.st47{fill:#929990;}
	.st48{fill:#FFFFFF;stroke:#FFFFFF;stroke-width:0.1949;stroke-miterlimit:10;}
	.st49{fill:#18428F;}
	.st50{fill:#EC1848;}
	.st51{fill:#29A151;}
	.st52{fill:#C1272D;}
	.st53{fill:#29ABE2;}
	.st54{fill:#F7BE3E;}
	.st55{fill:url(#SVGID_9_);}
	.st56{fill-rule:evenodd;clip-rule:evenodd;fill:none;}
	.st57{clip-path:url(#SVGID_11_);fill-rule:evenodd;clip-rule:evenodd;}
	.st58{fill:#EFAF1F;}
	.st59{fill:#EFB022;}
	.st60{fill:#0E0A08;}
	.st61{fill:#DA2A28;}
	.st62{fill:#F6F6F5;}
	.st63{fill:#C7B086;}
	.st64{fill:#F1F0EE;}
	.st65{fill-rule:evenodd;clip-rule:evenodd;fill:url(#SVGID_12_);}
	.st66{fill-rule:evenodd;clip-rule:evenodd;fill:#FAF9F9;}
	.st67{fill-rule:evenodd;clip-rule:evenodd;fill:#F8B132;}
	.st68{fill-rule:evenodd;clip-rule:evenodd;fill:#1A70B7;}
	.st69{fill-rule:evenodd;clip-rule:evenodd;fill:#36A834;}
	.st70{fill-rule:evenodd;clip-rule:evenodd;fill:#E2000F;}
	.st71{fill-rule:evenodd;clip-rule:evenodd;fill:#1A1A18;}
	.st72{fill:url(#SVGID_13_);}
	.st73{fill:url(#SVGID_14_);}
	.st74{fill:url(#SVGID_15_);}
	.st75{fill:url(#SVGID_16_);}
	.st76{fill:url(#SVGID_17_);}
	.st77{fill:url(#SVGID_18_);}
	.st78{fill:url(#SVGID_19_);}
	.st79{fill:url(#SVGID_20_);}
	.st80{fill:url(#SVGID_21_);}
	.st81{fill:url(#SVGID_22_);}
	.st82{fill:url(#SVGID_23_);}
	.st83{fill:url(#SVGID_24_);}
	.st84{fill:url(#SVGID_25_);}
	.st85{fill:url(#SVGID_26_);}
	.st86{fill:#00A85D;}
	.st87{fill:#FFFFFF;stroke:#FFFFFF;stroke-width:0.1;stroke-miterlimit:10;}
	.st88{fill:#9FD8F5;}
	.st89{fill:#274888;}
	.st90{fill:#267DBF;}
	.st91{fill:#2F91CF;}
	.st92{fill:#2955A0;}
	.st93{fill:#236EB3;}
	.st94{fill:#CFEBFA;}
	.st95{fill:#42B7E9;}
	.st96{fill:#3FAAE0;}
	.st97{fill:#ED171F;}
	.st98{opacity:0.25;fill:url(#SVGID_27_);}
	.st99{fill:#FFFFFF;stroke:#FFFFFF;stroke-width:1.0606;stroke-miterlimit:10;}
	.st100{fill:#FFAF10;}
	.st101{fill:#151416;}
	.st102{fill:#E57641;}
	.st103{fill:none;}
	.st104{fill:#1C191B;}
	.st105{fill:#19181A;}
	.st106{fill:#DD7340;}
	.st107{fill:#181617;}
	.st108{fill:#EA7944;}
	.st109{fill:#0C0E13;}
	.st110{fill:#181719;}
	.st111{fill:#F2F1F2;}
	.st112{fill:#F6F5F5;}
	.st113{fill:#BA673F;}
	.st114{fill:#4E362A;}
	.st115{fill:#6A6567;}
	.st116{fill:none;stroke:#EA7944;stroke-width:0.3013;stroke-linecap:round;stroke-miterlimit:10;}
	.st117{fill:none;stroke:#FF00FF;stroke-width:0.25;stroke-miterlimit:10;}
</style>
<g>
	<path class="st5" d="M3.533,19.743l1.149-3.798h4.593l1.06,3.798h3.887L10.158,5.433C9.893,4.462,9.451,4.197,8.48,4.197H2.826
		v1.325h0.442c0.795,0,1.06,0.177,1.06,0.707c0,0.265,0,0.53-0.265,1.325L0,19.743H3.533L3.533,19.743z M8.745,13.471H5.212
		l1.855-6.183L8.745,13.471L8.745,13.471z"/>
	<path class="st5" d="M18.902,19.743V5.345c0-0.707-0.353-1.148-1.148-1.148h-3.445v1.325h0.177c0.707,0,0.972,0.265,0.972,0.883
		v13.337H18.902L18.902,19.743z"/>
	<path class="st5" d="M25.174,19.743V5.345c0-0.707-0.441-1.148-1.148-1.148h-3.445v1.325h0.177c0.618,0,0.971,0.265,0.971,0.883
		v13.337H25.174L25.174,19.743z"/>
	<path class="st5" d="M31.445,19.743V9.232c0-0.707-0.441-1.148-1.06-1.148h-3.533V9.32h0.176C27.735,9.32,28,9.673,28,10.292v9.451
		H31.445L31.445,19.743z M31.533,5.61c0-1.06-0.706-1.678-2.031-1.678c-1.237,0-2.032,0.618-2.032,1.678
		c0,1.06,0.795,1.59,2.032,1.59C30.827,7.2,31.533,6.67,31.533,5.61L31.533,5.61z"/>
	<path class="st5" d="M34.802,11.263l0.354-0.088c0.883-0.353,1.413-0.53,2.031-0.618c0.353-0.089,0.795-0.089,1.06-0.089
		c1.06,0,1.502,0.353,1.502,1.413v0.265c-1.678,0.266-2.12,0.353-2.915,0.531c-0.53,0.088-0.971,0.264-1.413,0.441
		c-1.413,0.619-2.031,1.679-2.031,3.445c0,2.208,0.883,3.268,2.826,3.268c0.795,0,1.59-0.177,2.209-0.529
		c0.441-0.266,0.706-0.443,1.413-1.06v0.353c0,0.795,0.353,1.148,0.971,1.148h3.268v-1.236h-0.088c-0.618,0-0.972-0.265-0.972-0.884
		v-5.741c0-2.915-0.972-3.975-3.886-3.975c-0.972,0-1.855,0.177-2.738,0.353c-0.883,0.177-1.325,0.353-2.385,0.884L34.802,11.263
		L34.802,11.263z M39.748,14.09v2.297c-0.707,0.707-1.414,1.06-2.12,1.06c-0.795,0-1.06-0.353-1.06-1.237
		c0-0.883,0.265-1.325,0.971-1.59C38.158,14.354,38.688,14.266,39.748,14.09L39.748,14.09z"/>
	<path class="st5" d="M49.376,19.743v-7.949c0.795-0.707,1.325-0.972,2.12-0.972c0.795,0,1.06,0.353,1.06,1.502v7.419h3.356v-7.949
		c0-1.678-0.176-2.296-0.618-2.915c-0.53-0.618-1.237-0.883-2.208-0.883c-1.325,0-2.385,0.442-3.886,1.766V9.144
		c0-0.707-0.265-1.06-0.971-1.06h-3.445V9.32h0.177c0.707,0,0.971,0.353,0.971,0.972v9.451H49.376L49.376,19.743z"/>
	<path class="st5" d="M66.689,17.446h-5.212l5.035-6.978V8.084h-7.42c-0.883,0-1.236,0.353-1.236,1.237v2.12h1.236v-0.265
		c0-0.618,0.265-0.883,0.972-0.883h2.738l-5.035,6.978v2.473h8.922V17.446L66.689,17.446z"/>
	<path class="st5" d="M97.25,12.5c0-7.242-5.388-12.542-12.631-12.542c-7.155,0-12.455,5.3-12.455,12.542
		c0,7.155,5.3,12.543,12.543,12.543C91.862,25.043,97.25,19.654,97.25,12.5L97.25,12.5z M95.13,12.5c0,6.095-4.417,10.6-10.511,10.6
		c-6.007,0-10.334-4.505-10.334-10.6c0-6.183,4.328-10.599,10.334-10.599C90.714,1.9,95.13,6.317,95.13,12.5L95.13,12.5z
		 M81.263,19.036V7.73h-1.855c-0.971,0-1.413,0.441-1.413,1.413v9.892H81.263L81.263,19.036z M88.064,19.036h3.268V9.144
		c0-0.972-0.353-1.413-1.413-1.413h-1.855V19.036L88.064,19.036z M86.297,19.036V5.963c0-1.06-0.353-1.413-1.413-1.413h-3.003v1.413
		h0.265c0.706,0,0.883,0.176,0.883,0.883v12.189H86.297L86.297,19.036z"/>
</g>
</svg>
