<svg xmlns="http://www.w3.org/2000/svg" width="202" height="155" fill="none"><g fill-rule="evenodd" clip-path="url(#a)" clip-rule="evenodd"><path fill="url(#b)" d="m160 66.4 7.5-5.5h-25v33h25v-5.5h-17.9V80h15.3v-5.5h-15.3v-8.1H160Z"/><path fill="url(#c)" d="M123.6 73.8h-8.7v-7.4h13.9l7.5-5.5h-28.5v33h14.9c8.3 0 13.2-3.8 13.2-10.4-.1-6.3-4.4-9.7-12.3-9.7Zm-1.2 14.6h-7.5v-9.1h7.5c4.6 0 6.7 1.5 6.7 4.6-.1 3.1-2.3 4.5-6.7 4.5Z"/><path fill="url(#d)" d="M187.8 60.9h-13.6v33h7.2v-9.4h6.5c8.7 0 14.1-4.5 14.1-11.8-.1-7.3-5.5-11.8-14.2-11.8Zm-.2 18.2h-6.3V66.4h6.3c4.6 0 7.1 2.3 7.1 6.3 0 4.1-2.5 6.4-7.1 6.4Z"/><path fill="url(#e)" d="M95.5 86.8c-1.9 1-4 1.6-6.2 1.6-6.4 0-11.1-4.6-11.1-10.9 0-6.3 4.7-10.9 11.1-10.9 2.3-.1 4.6.7 6.5 2.1l5.1-3.8-.3-.3c-3-2.7-7-4-11.5-4-4.9 0-9.4 1.7-12.7 4.7-3.3 3.1-5.1 7.5-5 12.1-.1 4.6 1.7 9 5 12.3 3.4 3.2 8 5 12.6 4.9 5.1 0 9.6-1.8 12.7-5l-4.6-3.4-1.6.6Z"/><path fill="url(#f)" d="M16.8 70.1V78l10.5 6.6 25-18.4c-.9-1.9-2-3.8-3.3-5.5l-21.8 16-10.4-6.6Z"/><path fill="url(#g)" d="m54.4 72.5-5.9 4.4v.5c0 5.8-2.4 11.1-6.2 14.9-3.8 3.9-9 6.2-14.9 6.2h-1.1c-5.4-.3-10.3-2.6-13.8-6.2-3.8-3.8-6.2-9-6.2-14.9v-1.1c.3-5.4 2.6-10.2 6.2-13.8 3.8-3.8 9.1-6.2 14.9-6.2.4 0 .7 0 1.1.1v-.1c4 .2 7.8 1.5 10.8 3.7l5.4-3.9C40 52.3 34 50 27.4 50v.1c-7.1 0-13.5 2.7-18.4 7.1-5.5 5-9 12.2-9 20.2v.1C0 84.6 2.7 91 7.1 95.9c5 5.5 12.2 9 20.2 9h.1c7.1 0 13.6-2.7 18.4-7.1v.1c5.5-5 9-12.3 9-20.3 0-1.8-.2-3.5-.4-5.1Z"/></g><defs><linearGradient id="b" x1=".369" x2="199.067" y1="77.418" y2="77.418" gradientUnits="userSpaceOnUse"><stop stop-color="#1C8AE2"/><stop offset=".486" stop-color="#8B00B3"/><stop offset="1" stop-color="#6900B5"/></linearGradient><linearGradient id="c" x1=".369" x2="199.067" y1="77.418" y2="77.418" gradientUnits="userSpaceOnUse"><stop stop-color="#1C8AE2"/><stop offset=".486" stop-color="#8B00B3"/><stop offset="1" stop-color="#6900B5"/></linearGradient><linearGradient id="d" x1=".369" x2="199.067" y1="77.418" y2="77.418" gradientUnits="userSpaceOnUse"><stop stop-color="#1C8AE2"/><stop offset=".486" stop-color="#8B00B3"/><stop offset="1" stop-color="#6900B5"/></linearGradient><linearGradient id="e" x1=".369" x2="199.068" y1="77.42" y2="77.42" gradientUnits="userSpaceOnUse"><stop stop-color="#1C8AE2"/><stop offset=".486" stop-color="#8B00B3"/><stop offset="1" stop-color="#6900B5"/></linearGradient><linearGradient id="f" x1=".369" x2="199.067" y1="72.63" y2="72.63" gradientUnits="userSpaceOnUse"><stop stop-color="#1C8AE2"/><stop offset=".486" stop-color="#8B00B3"/><stop offset="1" stop-color="#6900B5"/></linearGradient><linearGradient id="g" x1=".369" x2="199.067" y1="77.417" y2="77.417" gradientUnits="userSpaceOnUse"><stop stop-color="#1C8AE2"/><stop offset=".486" stop-color="#8B00B3"/><stop offset="1" stop-color="#6900B5"/></linearGradient><clipPath id="a"><path fill="#fff" d="M0 0h202v155H0z"/></clipPath></defs></svg>