<svg xmlns="http://www.w3.org/2000/svg" xml:space="preserve" id="Layer_1" x="0" y="0" style="enable-background:new 0 0 90.132 25" version="1.1" viewBox="0 0 90.132 25"><style>.st6{fill:#fff}.st58{fill:#efaf1f}.st59{fill:#efb022}</style><path d="M13.188 17.957a5.876 5.876 0 0 1-5.781-4.8c-.032-.172-.004-.205.171-.208.177-.003.319.041.381.235.029.091.086.173.135.256a.38.38 0 0 0 .244.194c.077.016.104.039.114.124.015.122.129.158.237.179.047.009.06-.015.044-.058-.043-.116.032-.169.116-.217.126-.073.295-.055.394-.189.01-.014.059-.011.083 0 .181.078.372.051.56.054.219.003.293.09.238.304-.025.099-.002.146.088.174.018.006.042.013.05.027.061.105.145.116.261.099.112-.016.169.083.192.183.027.118.042.238.062.358a.531.531 0 0 0 .524.465c.07.002.091.029.113.081.06.14.143.263.26.363.074.064.145.082.236.031.105-.059.215-.113.325-.161.229-.1.359-.072.535.105a.41.41 0 0 0 .091.07c.062.034.127.047.193.005.071-.045.068-.111.055-.18-.018-.097-.073-.2.065-.261.131-.059.251-.038.352.08.06.07.106.15.163.222.102.129.194.149.324.051.08-.061.144-.055.224-.014.112.058.223.118.34.163.143.055.263.012.331-.124.077-.152.2-.2.357-.199.092.001.184.005.276 0 .132-.008.208-.084.209-.214a.993.993 0 0 1 .039-.272.262.262 0 0 0-.031-.235c-.067-.097-.027-.164.073-.203a.83.83 0 0 0 .215-.116c.09-.07.193-.05.288.003a.792.792 0 0 1 .213.195c.075.089.146.182.229.263.141.137.285.153.404.005.154-.191.363-.092.538-.151.02-.007.037.012.036.034-.009.226.115.432.103.658-.005.093.023.213-.13.233-.039.005-.027.057-.033.088a.897.897 0 0 1-.254.48 5.882 5.882 0 0 1-3.514 1.768 5.525 5.525 0 0 1-.738.052zM18.631 14.056c-.033-.063-.046-.144-.02-.197.054-.11-.007-.164-.07-.23-.151-.157-.3-.317-.45-.475-.022-.023-.043-.068-.079-.049-.035.018-.043.063-.029.104l.08.22c-.106-.064-.185-.113-.266-.159-.086-.05-.152-.037-.204.056-.086.153-.171.184-.33.105a.253.253 0 0 0-.176-.02c-.405.072-.81.078-1.212-.024-.74-.187-1.15-.7-1.14-1.427.009-.69.453-1.204 1.181-1.366.448-.099.896-.076 1.343.004.063.011.102.031.099.111a9.269 9.269 0 0 0-.001.553c.002.083-.024.098-.102.075-.254-.077-.512-.112-.774-.045-.343.088-.564.382-.542.715.026.396.256.636.642.683.231.029.455-.003.674-.068.086-.025.112-.009.105.079-.006.072-.001.145-.001.229.092-.066.106-.148.076-.235-.052-.149-.047-.306-.076-.458-.022-.116.03-.207.114-.283.134-.122.304-.21.346-.415.012-.058.096-.055.149-.076.034-.014.075.001.109-.029.087-.076.198-.12.094-.282-.096-.15-.062-.349-.099-.524-.016-.074.06-.125.119-.168.055-.04.089-.001.124.034.059.06.083.024.089-.037.007-.067.004-.136.012-.203.005-.04.031-.073.076-.077.06-.006.055.042.06.078.039.253.102.499.081.762-.025.31.109.566.355.757.05.039.061.077.062.133a5.944 5.944 0 0 1-.289 1.99c-.025.076-.057.13-.133.155 0 .003.003.004.003.004z" class="st58"/><path d="M14.946 22.71c.009-.335.013-.668.224-.963 2.468-3.445 4.935-6.891 7.398-10.339.082-.114.122-.104.21-.014.182.189.187.185.037.395l-7.764 10.847c-.022.031-.046.06-.069.09l-.036-.016zM12.47.767c.025.382-.011.739-.244 1.063-2.361 3.289-4.716 6.583-7.072 9.875l-.104.141-.18-.387c-.032-.069.023-.109.055-.154l1.938-2.709 5.512-7.7c.031-.044.063-.087.095-.129z" class="st59"/><path d="M13.709 10.696c.342.154.599.386.737.733.357.896-.166 1.796-1.148 1.985-.432.083-.858.051-1.284-.038-.076-.016-.117-.041-.113-.131.008-.179.006-.359.001-.538-.003-.088.02-.106.106-.079.29.091.586.133.887.058a.63.63 0 0 0 .403-.288c.056-.091.056-.135-.071-.132-.262.006-.524-.001-.785.004-.091.002-.132-.019-.124-.12a2.391 2.391 0 0 0 0-.349c-.006-.092.028-.115.115-.113.271.005.543-.001.815.003.101.001.107-.033.062-.109-.157-.266-.415-.333-.696-.345-.2-.008-.397.025-.586.087-.094.031-.131.026-.126-.085a6.646 6.646 0 0 0 0-.509c-.003-.082.02-.122.106-.136.512-.083 1.022-.11 1.525.044.081.025.112-.013.155-.062.049-.056.093-.131.188-.111.02.004.032.022.028.044-.016.086-.071.134-.153.156-.011.005-.022.017-.042.031z" class="st58"/><path d="M15.415 20.923c.117-.305.205-.606.251-.919a.377.377 0 0 1 .069-.172c2.126-2.969 4.252-5.938 6.376-8.909.066-.092.103-.11.187-.018.191.211.197.206.032.436l-6.784 9.476c-.031.042-.044.112-.131.106zM4.395 10.506l-.023-.021c-.207-.371-.207-.371.04-.717.407-.568.818-1.133 1.217-1.706.082-.117.147-.162.288-.095.143.067.164.051.135-.105-.045-.248.031-.441.178-.642.6-.817 1.185-1.645 1.775-2.469a.34.34 0 0 1 .086-.088c-.042.309.048.629-.163.921-1.156 1.6-2.301 3.208-3.45 4.813-.025.035-.052.069-.083.109zM8.815 5.456c.125-.451.129-.922.431-1.331.983-1.328 1.932-2.682 2.894-4.025.097-.136.098-.136.176.015.009.017.016.035.026.052.094.151.076.275-.034.428-1.135 1.571-2.261 3.149-3.39 4.726-.033.045-.068.09-.103.135zM4.723 11.163c-.067-.127-.125-.243-.188-.357-.04-.072.02-.108.05-.151.682-.955 1.366-1.909 2.049-2.863.429-.599.858-1.199 1.288-1.797.026-.037.041-.087.104-.106.012.182.01.361.07.531.015.043-.017.073-.039.104l-3.286 4.588c-.009.012-.02.022-.048.051zM8.067 22.67l.46-.644c.849-1.187 1.7-2.373 2.546-3.562.07-.099.131-.133.245-.084.083.036.175.053.276.082l-.75 1.048c-.68.95-1.364 1.898-2.037 2.853a.53.53 0 0 1-.395.251c-.101.012-.201.032-.345.056zM15.18 23.573c-.084-.157-.108-.315-.149-.467-.011-.042.024-.071.046-.102l2.878-4.02c.014-.019.03-.035.075-.086-.026.362.03.679-.193.982-.863 1.176-1.704 2.369-2.553 3.555-.03.042-.063.083-.104.138zM11.95 2.681c-.089.259-.153.521-.124.796.005.048-.034.078-.059.113L9.695 6.486a.446.446 0 0 1-.122.123 6.529 6.529 0 0 0-.91.722c-.03.029-.055.072-.122.047l3.376-4.715.033.018zM4.081 13.609c.289-.404.569-.793.846-1.185.041-.058.07-.049.113-.009.041.039.086.073.153.129-.006-.102.002-.18-.018-.251-.034-.118-.008-.208.064-.307.65-.9 1.295-1.804 1.942-2.707.027-.038.056-.074.09-.118.023.07-.017.107-.036.149-.16.354-.3.714-.394 1.092a.61.61 0 0 1-.096.209c-.721 1.005-1.443 2.009-2.158 3.018-.067.094-.125.111-.224.07-.086-.036-.176-.057-.282-.09zM9.05 22.422l1.014-1.418c.564-.788 1.13-1.575 1.69-2.366.064-.091.125-.138.235-.097.094.035.202.015.304.068l-.933 1.305c-.482.674-.967 1.346-1.446 2.022a.691.691 0 0 1-.292.249c-.179.08-.353.172-.572.237zM19.374 9.827c-.249-.29-.147-.523.054-.794.71-.957 1.396-1.932 2.085-2.904.076-.107.148-.152.274-.118.092.025.24-.033.27.038.034.081-.088.167-.145.248a1609.14 1609.14 0 0 1-2.427 3.392c-.036.049-.061.109-.111.138zM3.965 17.146l2.757-3.851.123.502c.012.049-.025.081-.05.116l-2.258 3.156c-.028.039-.052.079-.112.078-.146-.003-.29-.001-.46-.001zM16.483 6.411l.901-1.258c.463-.647.927-1.293 1.388-1.941a.265.265 0 0 1 .171-.119c.184-.04.356-.115.538-.194.006.054-.026.079-.046.107-.84 1.176-1.683 2.35-2.52 3.528-.066.093-.111.092-.192.03-.073-.055-.155-.099-.24-.153zM19.717 12.692c.032-.225.03-.45.031-.675 0-.043.026-.072.048-.103.699-.977 1.4-1.954 2.096-2.934.051-.071.089-.077.164-.04.284.14.286.137.102.392-.102.142-.204.283-.305.426-.119.17-.223.355-.467.422.061.05.12.07.059.155-.561.772-1.115 1.55-1.669 2.327-.011.015-.013.037-.019.055a2.331 2.331 0 0 0-.04-.025zM16.029 2.138l-.202.282c-.713.997-1.428 1.993-2.138 2.992-.064.091-.129.128-.238.116-.108-.012-.219-.003-.33-.003-.003-.065.036-.093.06-.126.727-1.017 1.455-2.033 2.181-3.051a.255.255 0 0 1 .186-.118c.151-.021.3-.056.481-.092zM17.878 20.226c-.016.308-.134.592-.212.885a1.285 1.285 0 0 1-.214.424c-.617.857-1.232 1.716-1.843 2.577-.074.105-.11.094-.175-.003-.164-.246-.168-.244.003-.483l2.361-3.297c.025-.035.054-.067.082-.1l-.002-.003zM7.273 22.701c-.001-.074.042-.105.068-.142.535-.749 1.061-1.505 1.61-2.244a5.34 5.34 0 0 1 1.159-1.156c.078-.056.162-.104.256-.165.009.07-.032.101-.057.135-.817 1.143-1.637 2.284-2.451 3.43-.076.107-.156.156-.285.144-.098-.009-.199-.002-.3-.002zM19.389 14.317c.09-.347.186-.685.251-1.033.009-.049.047-.095.077-.138.634-.887 1.271-1.773 1.902-2.663.074-.105.12-.1.21-.025.204.172.208.168.051.387l-2.403 3.358c-.029.04-.059.076-.088.114zM15.859 18.118c-.365.514-.728 1.028-1.094 1.541-.487.683-.976 1.364-1.464 2.046a.456.456 0 0 1-.097.105c.039-.373.012-.744.269-1.08.564-.74 1.091-1.508 1.63-2.266a.442.442 0 0 1 .235-.177c.17-.055.336-.122.503-.184l.018.015zM15.057 2.351c-.212.342-.46.658-.692.985-.494.695-.994 1.386-1.486 2.083a.276.276 0 0 1-.238.131c-.123.004-.246.02-.397.033l.605-.846c.502-.701 1.006-1.401 1.504-2.106.075-.105.156-.177.285-.198.141-.023.273-.098.422-.08l-.003-.002zM19.051 9.139c-.061-.11-.118-.221-.184-.328-.033-.054-.012-.088.018-.129.637-.89 1.274-1.779 1.91-2.67.042-.059.087-.08.159-.069.086.013.173.02.26.021.105.001.115.029.054.113-.329.455-.655.912-.982 1.369l-1.133 1.583c-.028.037-.048.084-.102.11zM18.5 3.184l-.233.329c-.634.886-1.27 1.771-1.9 2.659-.068.096-.115.124-.228.059-.236-.135-.241-.127-.079-.354.6-.839 1.201-1.677 1.799-2.517.052-.072.106-.117.197-.124.134-.011.268-.031.444-.052zM14.066 2.628l-.157.221a999.68 999.68 0 0 0-1.911 2.675.346.346 0 0 1-.243.159c-.147.024-.29.07-.468.115l.129-.186c.556-.777 1.115-1.551 1.665-2.332.113-.16.247-.281.415-.374.172-.095.345-.188.57-.278zM16.659 1.911c-.106.291-.251.54-.417.778-.164.234-.335.463-.497.698a.945.945 0 0 0-.191.495c-.002.054-.032.09-.059.129-.363.508-.728 1.016-1.089 1.526-.046.065-.095.092-.169.071-.111-.031-.231-.015-.352-.065l.332-.466c.682-.953 1.367-1.905 2.045-2.862a.703.703 0 0 1 .397-.304zM14.353 20.66c.122-.221.283-.415.429-.619.505-.711 1.014-1.418 1.522-2.127a.384.384 0 0 1 .121-.123c.279-.157.543-.336.796-.533.018-.014.035-.037.075-.012l-.256.359c-.564.788-1.128 1.575-1.69 2.364a.531.531 0 0 1-.204.178c-.283.14-.526.341-.784.52l-.009-.007zM6.935 14.123c.059.155.106.286.16.414.025.058-.005.091-.033.13-.562.784-1.124 1.568-1.683 2.354-.046.065-.095.097-.178.096-.128-.002-.257.011-.422.02.726-1.017 1.434-2.006 2.156-3.014zM8.045 3.604c.046.285.125.541-.087.821-.609.808-1.185 1.64-1.774 2.463a.59.59 0 0 1-.109.122c.07-.359.021-.736.262-1.062.547-.739 1.074-1.494 1.61-2.241.025-.035.042-.078.098-.103zM10.396 21.682c.299-.423.597-.847.898-1.269.399-.561.803-1.119 1.2-1.681.058-.082.117-.114.215-.1.109.016.22.019.33.028.003.055-.036.083-.06.117-.468.655-.937 1.309-1.404 1.965-.08.113-.19.193-.293.281-.28.24-.559.481-.869.682a.069.069 0 0 0-.017-.023zM3.468 17.138c-.083-.006-.21.03-.244-.035-.036-.067.071-.143.119-.211.543-.762 1.088-1.522 1.632-2.282.157-.22.157-.22.408-.132.161.057.162.057.064.194-.55.768-1.103 1.535-1.648 2.307-.087.121-.169.21-.331.159zM19.733 11.561c-.024-.174-.043-.337-.069-.499-.01-.064.012-.11.048-.16.528-.736 1.057-1.472 1.581-2.212.058-.082.104-.085.188-.041.262.138.264.135.091.377l-1.736 2.422c-.029.039-.045.088-.103.113zM17.602 3.314l-.328.462c-.504.705-1.012 1.408-1.511 2.116-.071.101-.129.112-.237.067-.257-.107-.258-.102-.093-.333.479-.669.961-1.337 1.434-2.011a.503.503 0 0 1 .334-.226c.127-.023.248-.071.401-.075zM4.807 14.437l-1.11 1.553c-.225.315-.457.626-.674.947-.078.116-.15.157-.294.126-.278-.061-.28-.049-.119-.274l1.353-1.891c.165-.231.524-.431.844-.461zM20.987 14.747c.075.147.111.287.156.424.017.053-.009.092-.038.133-.522.728-1.044 1.456-1.563 2.185-.043.061-.081.093-.15.04-.019-.014-.045-.019-.064-.033-.068-.049-.206-.021-.213-.108-.005-.067.085-.144.136-.215l1.736-2.426zM18.703 8.531c-.08-.113-.144-.209-.214-.301-.036-.048-.028-.084.005-.129.517-.72 1.032-1.441 1.548-2.162.026-.037.052-.067.105-.061.133.014.267.025.426.039l-1.87 2.614zM6.676 11.12c-.022.282-.039.526-.063.769-.004.039-.037.077-.062.112-.456.639-.915 1.276-1.368 1.916-.057.082-.105.099-.183.038-.076-.059-.224-.063-.235-.143-.01-.071.091-.16.147-.238l1.658-2.316c.026-.038.056-.073.106-.138zM19.66 4.94l-.408.573c-.44.615-.883 1.228-1.318 1.846-.068.097-.107.104-.19.017-.195-.201-.199-.197-.034-.429.446-.623.895-1.243 1.334-1.871.074-.106.151-.147.274-.138.1.009.202.002.342.002zM7.092 19.53l1.46-2.04c.09-.126.183-.251.27-.379.039-.058.067-.061.124-.017.262.201.264.199.074.465-.437.611-.877 1.22-1.31 1.834-.069.098-.144.146-.263.139-.111-.007-.221-.002-.355-.002zM8.394 16.587c.318.275.317.275.087.597-.517.721-1.037 1.439-1.544 2.167-.098.14-.191.182-.354.152-.249-.046-.243-.032-.105-.244.277-.426.606-.8 1.001-1.121.218-.177.413-.382.622-.57.06-.054.081-.086-.003-.138-.069-.042-.192-.063-.193-.131-.001-.071.084-.146.134-.216.117-.167.236-.331.355-.496zM22.872 6.08l-.303.426c-.389.543-.781 1.085-1.165 1.632-.065.092-.13.128-.239.113-.105-.015-.211-.016-.318-.023-.003-.059.04-.09.066-.127.455-.639.915-1.275 1.366-1.917.073-.104.146-.152.273-.131.098.017.199.018.32.027zM21.608 8.254l.487-.681c.327-.457.656-.912.978-1.372.063-.09.128-.131.238-.117.108.014.218.013.35.02l-.696.975c-.242.339-.487.675-.725 1.017-.064.092-.136.14-.25.137-.114-.001-.229.012-.382.021zM12.202 4.067c.011.057-.034.088-.06.125-.394.553-.79 1.104-1.185 1.655-.025.035-.045.076-.088.095l-.715.308 1.76-2.459c.063.082.117.154.174.223.029.036.057.082.117.056l-.003-.003zM21.241 15.525l.104.467c.014.062-.006.111-.042.161-.424.59-.847 1.18-1.268 1.772-.048.067-.075.079-.138.013-.221-.234-.223-.231-.032-.498l1.259-1.761.117-.154zM19.596 10.657c-.047-.172-.083-.317-.127-.458-.018-.057.007-.092.035-.131.411-.575.823-1.149 1.232-1.725.047-.067.082-.069.151-.028.272.164.273.161.088.419l-1.285 1.794-.094.129zM5.624 17.08l1.597-2.231.197.375c.024.045-.003.073-.025.104l-1.21 1.691c-.024.031-.045.061-.091.061h-.468zM19.424 5.679c.031.285.245.108.36.194.014.033-.026.057-.047.086-.452.634-.907 1.267-1.358 1.902-.062.088-.096.108-.174.011-.186-.229-.191-.225-.018-.467l1.237-1.726zM4.062 9.852c-.06-.147-.108-.269-.161-.388-.022-.051-.014-.088.018-.132.402-.559.802-1.119 1.203-1.679.006-.008.01-.021.017-.023.151-.044.207.119.326.15.067.017.037.063.01.1L4.062 9.852zM22.111 13.823c-.097-.038-.21-.071-.312-.126-.072-.039.003-.085.025-.116.302-.427.608-.852.913-1.278.118-.165.24-.329.354-.498.047-.069.079-.071.146-.023.258.184.259.181.075.438l-1.084 1.513c-.027.037-.042.092-.117.09zM6.362 5.463c.197-.519.23-1.073.598-1.512.251-.3.463-.633.688-.954.056-.081.087-.094.148-.004.174.256.178.269-.005.525-.433.606-.867 1.213-1.302 1.819-.03.041-.048.094-.127.126zM7.988 19.443c-.007-.057.033-.085.057-.119.422-.591.846-1.179 1.265-1.772.061-.086.099-.102.19-.037.235.168.238.163.068.401-.296.413-.595.824-.885 1.241a.424.424 0 0 1-.274.191c-.14.029-.274.089-.421.095zM18.821 4.989l-.565.79c-.274.382-.549.764-.82 1.148-.049.07-.081.102-.165.033-.238-.191-.241-.186-.062-.437.268-.374.534-.75.805-1.123.077-.106.128-.222.299-.25.154-.026.302-.117.508-.161zM16.515 3.692c-.264.375-.528.751-.794 1.126-.207.292-.418.581-.624.875-.046.067-.087.092-.175.067-.328-.091-.329-.086-.132-.36.198-.275.398-.548.591-.827.284-.412.699-.657 1.119-.898.004.007.01.012.015.017zM22.397 13.904l.869-1.215c.121-.169.245-.337.362-.509.042-.061.074-.083.149-.039.28.162.282.159.095.422-.312.437-.629.872-.936 1.313-.068.098-.133.136-.248.095-.086-.03-.178-.042-.291-.067zM21.399 16.434c.212.395.043.696-.202 1-.267.332-.503.689-.748 1.038-.053.076-.079.09-.139.003-.186-.269-.19-.267-.001-.531l1.015-1.419c.026-.035.055-.066.075-.091zM3.556 15.045l-1.083 1.53c-.042.059-.081.121-.128.176-.052.06-.075.18-.157.172-.117-.011-.23-.071-.342-.116-.052-.021-.014-.056.003-.081l.999-1.396c.011-.016.022-.039.038-.043.232-.06.439-.19.674-.242h-.004zM5.559 14.514c-.072-.118-.129-.22-.215-.3-.04-.037-.04-.066-.009-.11.421-.584.84-1.17 1.28-1.784.02.227.039.421.054.615.002.021-.013.046-.027.065l-1.083 1.514zM22.487 8.152l1.147-1.603c.068-.095.145-.184.201-.285.076-.138.18-.187.331-.159.084.016.171.02.278.033l-.628.875a.105.105 0 0 1-.059.038c-.238.045-.337.226-.415.425-.15.375-.439.574-.855.676zM3.778 9.125c-.046-.179-.081-.324-.121-.466-.014-.048-.002-.084.025-.121L4.749 7.05c.007-.01.021-.016.039-.028.051.12.096.237.173.335.033.042.029.076-.001.117L3.778 9.125zM3.597 8.252a2.402 2.402 0 0 1-.028-.62.206.206 0 0 1 .027-.096c.362-.509.725-1.016 1.125-1.517 0 .209.001.419-.001.628a.153.153 0 0 1-.031.079L3.597 8.252zM17.079 22.512a3.606 3.606 0 0 0-.184.877c-.004.053-.032.09-.059.129-.251.35-.505.698-.75 1.052-.057.081-.095.08-.168.027-.245-.176-.247-.174-.069-.421l1.125-1.569c.028-.039.061-.073.091-.11l.014.015zM23.512 14.086c-.114-.012-.215-.025-.316-.033-.08-.006-.074-.039-.036-.091l1.047-1.464c.034-.048.069-.065.119-.026.007.006.017.009.025.014.274.149.274.15.092.404l-.785 1.098c-.04.056-.072.12-.146.098zM7.566 15.492c.08.12.144.222.215.319.034.046.017.079-.01.116l-.786 1.097c-.03.042-.06.07-.117.066a5.298 5.298 0 0 0-.334-.01c-.072-.001-.088-.025-.044-.085.043-.058.084-.118.126-.177l.95-1.326zM20.749 19.151c-.066-.104-.128-.207-.194-.306-.028-.042-.031-.075 0-.117.333-.463.665-.928 1.015-1.418l.092.547c.006.038-.014.065-.034.093l-.838 1.17c-.008.009-.022.016-.041.031zM3.403 13.43l.667-.931c.076-.106.157-.209.226-.32.055-.09.112-.108.213-.071.284.106.285.101.112.342-.234.326-.47.651-.699.981-.062.089-.12.123-.227.079-.088-.035-.184-.051-.292-.08zM4.113 12.032l-.908 1.27c-.029.041-.055.051-.108.037-.362-.096-.365-.1-.152-.397.178-.248.36-.493.531-.745.071-.105.151-.165.279-.168.111-.003.221-.016.358.003zM23.863 14.108l.534-.747c.124-.173.25-.345.371-.521.042-.062.075-.064.139-.027.283.164.284.162.095.424-.187.259-.376.517-.556.781-.064.093-.131.142-.248.121-.1-.018-.203-.02-.335-.031zM12.348 20.064l.971-1.357c.02-.028.04-.052.08-.055l.464-.03c-.004.083-.058.123-.092.173-.065.096-.137.188-.201.284-.216.327-.436.643-.837.779-.131.044-.241.151-.361.229l-.024-.023zM2.529 15.37l-.905 1.267c-.027.037-.055.054-.096.022a.054.054 0 0 0-.013-.007c-.315-.148-.315-.148-.113-.428.184-.255.369-.51.549-.768.043-.061.086-.093.165-.089.13.008.261.003.413.003zM13.657 20.017c.04-.118.113-.22.177-.326.037-.062.021-.089-.044-.096-.086-.009-.173-.012-.271-.019.029-.083.087-.142.133-.207.165-.233.335-.464.497-.7a.261.261 0 0 1 .185-.121c.152-.027.303-.059.489-.096l-1.134 1.585-.032-.02zM10.315 17.997l-.598.834c-.014.019-.03.042-.05.05a5.706 5.706 0 0 1-.661.226l.409-.574c.152-.213.308-.423.455-.639.056-.083.104-.094.186-.039.08.054.168.093.259.142zM19.037 17.503c.05.167.062.339.092.508.009.049-.021.082-.046.117-.191.267-.384.533-.572.803-.05.072-.087.1-.142.008-.017-.028-.045-.05-.07-.073-.156-.144-.156-.144-.028-.323l.684-.954c.022-.031.035-.071.082-.086zM21.718 18.228c.035.186.064.343.095.499.011.057-.008.102-.041.147-.19.262-.379.525-.565.79-.039.056-.059.073-.112.008-.217-.267-.22-.265-.021-.544l.644-.9zM18.926 4.124c.469-.63.885-1.3 1.426-1.927.015.137-.027.214-.052.293-.227.712-.704 1.223-1.313 1.627-.019.013-.04.029-.064.006l.003.001zM7.959 16.068c.283.323.283.323.05.65-.104.145-.21.289-.311.437-.036.052-.071.072-.131.047-.031-.013-.065-.019-.098-.026-.26-.059-.261-.059-.109-.272l.599-.836zM24.632 14.157l.705-.985c.006-.008.012-.021.018-.022.129-.002.187.112.279.17.044.028.071.059.029.117-.174.238-.346.479-.516.721-.032.045-.071.043-.115.039l-.4-.04zM1.739 15.349l-.654.913c-.011.016-.029.044-.037.041-.116-.033-.176-.138-.261-.211-.047-.04-.045-.072-.009-.121.157-.214.312-.431.464-.649.038-.055.077-.059.135-.045.111.026.226.045.362.072zM16.888 23.902c0 .319-.004.639.002.958.003.141-.048.167-.171.116-.138-.058-.279-.107-.419-.161-.045-.017-.079-.036-.038-.093.201-.277.4-.555.599-.833l.027.013zM3.237 12.131l-.662.926c-.026.037-.052.037-.085.013l-.234-.171c-.048-.034-.038-.067-.007-.109.109-.148.215-.299.322-.448.02-.028.041-.052.077-.061l.589-.15zM7.698 21.633c-.207.339-.458.647-.682.974-.029.042-.066.05-.113.042-.119-.022-.238-.041-.383-.066.17-.206.25-.457.517-.558.241-.091.436-.266.653-.401l.008.009zM21.888 19.116c.048.166.088.314.133.459.015.05-.005.083-.031.119-.108.149-.216.298-.32.45-.039.058-.069.061-.126.02-.249-.18-.256-.209-.079-.457l.423-.591zM3.672 7.021c.177-.737.617-1.273 1.058-1.819.011.303-.002.346-.157.562l-.901 1.257zM21.449 14.76c-.11-.035-.221-.069-.331-.106-.053-.018-.028-.05-.008-.078.169-.236.338-.472.506-.71.04-.057.068-.059.098.007.044.097.089.193.137.288.02.039.021.07-.005.107-.111.153-.22.307-.33.46-.016.023-.031.052-.067.032zM6.854 3.7c.028-.21.069-.374.048-.538-.022-.183.043-.323.151-.463.174-.227.166-.228.403-.059.079.056.098.095.033.181-.209.278-.408.564-.635.879zM25.115 6.324c-.137.191-.258.36-.377.529a.133.133 0 0 1-.109.06l-.477.038.514-.72c.029-.042.062-.032.102-.019.108.038.219.071.347.112zM19.15 18.439c.031.551-.106.956-.424 1.287l-.145-.438c-.01-.03.001-.056.019-.081l.55-.768zM10.932 18.26l-.367.514c-.019.026-.034.062-.079.039-.13-.063-.269-.055-.436-.039.162-.227.308-.43.452-.634.024-.033.048-.041.086-.025.111.049.222.094.344.145zM25.785 14.328a41.002 41.002 0 0 0-.339-.073c-.067-.014-.043-.049-.019-.082.135-.189.271-.376.404-.567.041-.059.073-.05.11-.002a.1.1 0 0 0 .01.011c.226.229.226.229.038.492l-.127.177c-.02.027-.035.062-.077.044zM.581 15.84c-.097-.1-.157-.209-.226-.313-.052-.078.018-.119.053-.16.088-.102.117-.277.264-.296.099-.013.209.063.314.099.043.015.048.04.021.077l-.426.593zM22.037 9.905l.468-.654c.028-.04.058-.045.097-.019l.012.008c.088.068.229.087.258.208.019.079-.252.329-.349.351l-.486.106zM18.631 14.056l-.003-.001c.044.249-.108.438-.196.647-.01.023-.027.044-.054.039-.031-.006-.029-.035-.025-.058.05-.302-.07-.571-.166-.844-.031-.088-.081-.174-.066-.281.116.027.173.114.232.195.06.082.111.171.172.252.023.028.038.101.106.051zM10.637 1.795 9.31 3.646c.118-.477.775-1.393 1.327-1.851zM20.379 5.042c-.079.166-.174.276-.352.309-.163.029-.315.104-.48.158.116-.164.233-.327.348-.492.03-.044.069-.045.114-.037.119.021.238.04.37.062zM25.001 6.89c.108-.151.206-.285.301-.422.029-.041.058-.043.097-.018.02.013.043.021.065.031.282.134.286.164.065.394-.031.032-.062.039-.102.037l-.426-.022zM22.136 19.894c.107.196.206.371.436.449a.944.944 0 0 1-.672.027c-.061-.02-.074-.047-.032-.103.087-.115.169-.234.268-.373zM5.455 19.133a2.31 2.31 0 0 0 .924-.191 2.67 2.67 0 0 1-.256.413c-.036.038-.068.021-.105.01a2.866 2.866 0 0 1-.563-.232zM21.986 14.478c.114.242.175.477.232.739-.173-.109-.327-.208-.483-.305-.035-.022-.03-.043-.011-.07l.262-.364zM26.492 14.803a1.308 1.308 0 0 0-.392-.335c-.05-.028-.04-.055-.013-.092.063-.085.123-.172.198-.275.124.227.19.454.207.702zM13.991 15.125c.161-.233.346-.455.369-.754.003-.036.021-.051.056-.05.037.001.049.025.052.057a.63.63 0 0 1-.04.285c-.07.189-.207.324-.355.452-.024.02-.051.024-.082.01zM6.475 22.236c-.057.081-.102.137-.139.198-.04.065-.086.081-.157.05-.062-.027-.128-.043-.191-.067-.038-.014-.104-.012-.098-.063.007-.061.076-.048.121-.05.144-.006.286-.032.464-.068zM1.894 12.206c.125.063.237.117.379.117-.052.131-.143.221-.22.334a.908.908 0 0 1-.159-.451zM.203 15.243A2.855 2.855 0 0 1 0 14.77c.133.06.239.11.346.157.051.022.048.051.02.089l-.163.227zM26.28 6.946c-.171 0-.319 0-.468-.023.076-.206.093-.213.275-.107.061.035.131.057.193.13zM8.008 9.918c-.006.083.016.171-.095.172-.06.001-.144-.008-.132-.092.013-.091.036-.207.151-.218.114-.012.037.105.076.138zM6.665 2.31c.038.004.052.005.065.008.276.057.276.057.098.288a46.06 46.06 0 0 0-.163-.296zM20.566 5.201c.139-.168.266-.041.384-.034l-.384.034zM8.161 10.316c-.004-.05-.008-.07-.006-.089.006-.051-.02-.107.02-.151.005-.006.034-.002.039.005.037.055.014.112-.002.167-.004.016-.02.029-.051.068zM19.353 14.353l.003.009-.007-.001zM12.205 4.07l.012-.023.009.017-.023.003.002.003z" class="st59"/><path d="M16.499 3.676c.011-.01.023-.019.035-.001.001.001-.012.011-.019.018l-.016-.017zM11.957 2.619l.007.01-.009.009-.007-.01zM15.06 2.353l.006-.016c0 .002.002.006.001.007-.002.003-.006.005-.009.007l.002.002zM18.923 4.122l.003.021c-.002-.002-.005-.004-.004-.006l.005-.013a.015.015 0 0 1-.004-.002zM13.652 20.063v.011l-.019-.006c.003-.003.006-.008.01-.01.001-.001.006.004.009.005zM14.362 20.669c-.003.012-.011.028-.023.016s.002-.021.015-.025a.065.065 0 0 0 .008.009zM7.689 21.624c.003-.012.006-.024.023-.017l-.015.026a.065.065 0 0 0-.008-.009zM10.367 21.711l.029-.029a.068.068 0 0 1 .017.021c-.015.011-.031.021-.049.006l.003.002z" class="st59"/><path d="m10.364 21.709-.002.02c-.001-.002-.003-.005-.002-.007l.007-.012-.003-.001zM15.842 18.101c.006-.006.016-.017.019-.016.018.011.007.022-.002.032a.085.085 0 0 1-.017-.016zM17.116 22.431l-.008.003.001-.01zM17.064 22.497c.004-.011.003-.029.022-.02.003.001-.005.023-.008.035a.192.192 0 0 0-.014-.015zM3.559 15.047l-.001-.021.013.001-.015.018.003.002zM17.88 20.228l.009-.008-.011.006z" class="st59"/><path d="M17.543 8.372c.05-.093.036-.168-.041-.247-1.402-1.456-3.107-2.121-5.114-1.839-2.05.289-3.536 1.416-4.481 3.255-.021.042-.082.093-.031.14a.204.204 0 0 0 .19.047.247.247 0 0 0 .177-.159.233.233 0 0 1 .086-.112c.237-.162.453-.349.66-.548a.217.217 0 0 1 .37.112c.043.199.071.401.056.606a.643.643 0 0 1-.057.225c-.06.13-.203.149-.285.03-.043-.063-.067-.139-.095-.211-.027-.067-.043-.139-.121-.2-.075.2-.336.324-.208.632.046-.089.058-.176.122-.174.053.001.066.086.099.133.021.029.039.06.06.092.135-.144.181-.151.354-.065.017.009.039.015.049.03.063.083.102.046.149-.02.046-.064.117-.1.187-.136.041-.022.062-.004.077.033.014.033.005.057-.028.07a.476.476 0 0 1-.084.024c-.082.014-.124.052-.093.141.032.091.094.108.17.06.081-.051.161-.042.251-.03.232.032.39.196.574.319-.476 0-.951.001-1.427-.001-.081 0-.122.013-.122.11.003.873.003 1.747 0 2.62 0 .082.024.108.107.107.815-.003 1.63-.002 2.446 0 .076 0 .102-.024.1-.1a5.652 5.652 0 0 1 .001-.451c.005-.096-.026-.123-.123-.122-.359.006-.718.002-1.077.002-.308 0-.302 0-.308-.31-.002-.116.038-.134.141-.132.378.006.757-.001 1.135.004.098.001.14-.021.133-.127a2.65 2.65 0 0 1 0-.378c.008-.111-.023-.151-.142-.148-.33.008-.66.003-.99.003-.275 0-.269 0-.276-.272-.003-.115.029-.147.144-.145.403.007.805.003 1.208.002.048 0 .126.02.114-.066-.03-.214.117-.35.211-.509.082-.14.194-.231.37-.189.025.006.052.01.066-.012.069-.108.17-.089.273-.076.045.006.123.003.089-.067-.047-.099.026-.121.075-.156.097-.067.211-.097.323-.127.218-.059.428-.128.536-.369.079.131.192.147.311.156.174.014.234.119.169.283-.031.079-.095.145-.095.243.178-.004.338.058.506.083.16.024.251-.02.311-.166.027-.067.069-.084.132-.088.132-.008.174.082.208.183.032.096.05.2.145.26.064.04.111.041.108-.055-.002-.089.004-.158.115-.202a.737.737 0 0 0 .208-.154c.045-.042.116-.084.022-.158-.041-.033-.033-.099-.01-.151.016-.038.429-.244.467-.235.009.002.016.011.025.015.236.102.283.086.419-.138l.053-.087c.075-.121.173-.167.305-.086.035.021.064.042.098-.006.088-.126.241-.201.283-.363.007-.025.012-.038.047-.027.069.022.11-.035.163-.066-.149-.139-.16-.198-.076-.373.028-.055.056-.112.086-.167zm-6.06 2.188c-.056.004-.113-.007-.197-.013l.239-.233c.074-.071.108-.03.122.048a.173.173 0 0 1-.164.198zm-.877-.462c-.144-.22-.139-.242.066-.381.204-.139.405-.283.654-.333a.761.761 0 0 1 .483.054c-.481.106-1.012.072-1.203.66zm1.333-1.341c-.029.001-.059.004-.087 0-.098-.015-.125.028-.12.121.003.059.037.147-.024.174-.087.038-.19.02-.285.007-.044-.006-.031-.054-.031-.086v-.812c0-.048-.008-.102.068-.099.179.006.358-.018.535.014.217.039.343.189.326.376-.017.172-.174.299-.382.305zm1.334.582c-.077-.024-.12-.061-.104-.136.008-.039.051-.056.079-.037.062.043.025.107.025.173zm.367-.273c-.096-.01-.213.045-.254-.115-.008-.03-.083-.051-.16-.047-.078.006-.158.041-.178.126-.005.042-.166.06-.261.049a.29.29 0 0 1-.038-.007h-.002a.049.049 0 0 1-.024-.013c-.024-.027-.001-.056.008-.081.098-.277.203-.552.296-.831.039-.117.125-.077.196-.082.155-.046.203.041.243.168.077.243.165.483.258.721.039.1.007.122-.084.112zm1.102.029c-.319-.005-.533-.216-.533-.525 0-.311.232-.544.539-.54a.547.547 0 0 1 .533.542.515.515 0 0 1-.539.523z" class="st58"/><path d="M14.553 8.567c.007-.057.001-.116.031-.17.036-.065.087-.104.161-.105.077-.001.128.044.157.11a.417.417 0 0 1-.004.339.154.154 0 0 1-.144.104.169.169 0 0 1-.166-.094c-.033-.059-.029-.122-.035-.184zM11.829 8.516c-.085.017-.095-.035-.096-.109-.001-.075.012-.118.102-.112.08.006.153.023.154.114.002.096-.075.11-.16.107zM13.228 8.406c.028.084.042.124.054.165.053.174.053.174-.149.141l.095-.306z" class="st59"/><path d="M30.719 9.074v1.801c0 .972-.018 1.936-.072 2.746h.036c.315-.711.72-1.512 1.081-2.161l1.305-2.386h1.405v6.068h-1.261V13.35c0-.937.018-1.765.099-2.557h-.027c-.279.72-.667 1.521-1.026 2.161l-1.233 2.188H29.46V9.074h1.259zM36.983 10.739v1.594h1.386v-1.594h1.377v4.402h-1.377v-1.747h-1.386v1.747h-1.369v-4.402h1.369zM44.282 10.739v1.044h-1.278v3.358h-1.377v-3.358h-1.278v-1.044h3.933zM45.866 13.377c.045.567.603.837 1.242.837.468 0 .846-.063 1.215-.18l.18.927c-.45.18-1 .27-1.593.27-1.495 0-2.35-.864-2.35-2.242 0-1.116.693-2.35 2.224-2.35 1.422 0 1.962 1.107 1.962 2.197 0 .234-.027.441-.045.54h-2.835zm1.611-.936c0-.333-.144-.892-.774-.892-.576 0-.811.522-.847.892h1.621zM49.565 12.216c0-.576-.018-1.071-.036-1.477h1.188l.063.612h.018c.324-.468.828-.711 1.467-.711.963 0 1.828.837 1.828 2.242 0 1.603-1.018 2.359-1.999 2.359-.531 0-.945-.216-1.144-.504h-.018v2.188h-1.368v-4.709zm1.368 1.035c0 .108.009.207.027.288.09.369.405.648.801.648.594 0 .945-.495.945-1.243 0-.702-.315-1.233-.927-1.233-.387 0-.729.288-.819.693a1.058 1.058 0 0 0-.027.243v.604zM56.81 9.155c.423-.072 1.017-.126 1.854-.126.846 0 1.449.162 1.854.486.387.306.648.81.648 1.404s-.198 1.098-.559 1.44c-.468.441-1.161.639-1.971.639-.18 0-.342-.009-.468-.027v2.169H56.81V9.155zm1.359 2.755c.117.027.261.036.459.036.729 0 1.18-.369 1.18-.99 0-.559-.387-.892-1.071-.892-.279 0-.468.027-.567.054v1.792zM62.903 13.584l-.432 1.558h-1.423l1.855-6.068h1.8l1.882 6.068h-1.477l-.468-1.558h-1.737zm1.539-1.026-.378-1.287c-.108-.36-.216-.811-.306-1.17h-.018c-.09.36-.18.819-.279 1.17l-.36 1.287h1.341zM72.723 12.045c0 1.989-1.207 3.196-2.98 3.196-1.801 0-2.854-1.359-2.854-3.088 0-1.819 1.162-3.178 2.953-3.178 1.864 0 2.881 1.395 2.881 3.07zm-4.384.08c0 1.188.558 2.026 1.477 2.026.927 0 1.458-.882 1.458-2.062 0-1.089-.522-2.026-1.467-2.026-.928.001-1.468.883-1.468 2.062zM79.049 12.576h-2.232v1.44h2.494v1.125H75.44V9.074h3.745v1.125h-2.368v1.26h2.232v1.117zM80.614 11.532h2.602c-.09-.811-.657-1.45-1.675-1.45-.477 0-.927.126-1.233.252l-.27-1.017a4.17 4.17 0 0 1 1.612-.342c2.133 0 3.042 1.458 3.042 3.142 0 2.043-1.386 3.124-3.169 3.124-.63 0-1.242-.144-1.557-.288L80.2 13.9c.315.126.783.216 1.215.216 1.036 0 1.684-.63 1.792-1.512h-2.593v-1.072zM90.056 14.971c-.252.126-.819.261-1.557.261-2.098 0-3.178-1.305-3.178-3.034 0-2.071 1.477-3.223 3.313-3.223.711 0 1.251.144 1.495.27l-.279 1.089a2.962 2.962 0 0 0-1.152-.225c-1.089 0-1.936.657-1.936 2.008 0 1.215.72 1.98 1.945 1.98.414 0 .873-.09 1.143-.198l.206 1.072z" class="st6"/></svg>