<svg width="200" height="155" fill="none" xmlns="http://www.w3.org/2000/svg"><g clip-path="url(#a)"><path d="M17.6 92.4H9.4V76.6c0-1.9 0-3.7.1-5.3-.5.6-1.1 1.3-1.9 1.9L4.2 76 0 70.8l10.3-8.4h7.3v30Z" fill="url(#b)"/><path d="M39.4 68.7c-1.9 0-3.4.8-4.5 2.4-1.1 1.6-1.6 3.7-1.6 6.5 0 5.8 2.2 8.6 6.6 8.6 1.3 0 2.6-.2 3.8-.6 1.2-.4 2.5-.8 3.7-1.3v6.8c-2.5 1.1-5.3 1.7-8.5 1.7-4.5 0-8-1.3-10.4-3.9-2.4-2.6-3.6-6.4-3.6-11.4 0-3.1.6-5.8 1.7-8.2 1.2-2.3 2.8-4.2 5-5.4 2.2-1.2 4.8-1.9 7.7-1.9 3.2 0 6.3.7 9.3 2.1l-2.5 6.4c-1.1-.5-2.2-1-3.3-1.3-.9-.3-2.1-.5-3.4-.5Z" fill="url(#c)"/><path d="M51.8 72.9c0-1.2.4-2.2 1.1-2.9.7-.7 1.8-1 3.2-1 1.4 0 2.4.3 3.1 1 .7.7 1.1 1.6 1.1 2.9 0 1.2-.4 2.2-1.1 2.9-.7.7-1.8 1-3.1 1-1.4 0-2.5-.3-3.2-1-.7-.7-1.1-1.7-1.1-2.9Zm0 16.1c0-1.3.4-2.2 1.1-2.9.7-.7 1.8-1 3.2-1 1.4 0 2.4.3 3.1 1 .7.7 1.1 1.7 1.1 2.9s-.4 2.2-1.1 2.9c-.7.7-1.8 1-3.1 1-1.4 0-2.4-.3-3.2-1-.7-.7-1.1-1.6-1.1-2.9Z" fill="url(#d)"/><path d="M93.6 77.4c0 5-1.2 8.9-3.7 11.5-2.5 2.6-6.1 3.9-10.8 3.9-4.7 0-8.3-1.3-10.8-3.9-2.5-2.6-3.8-6.5-3.8-11.5s1.2-8.8 3.7-11.4c2.5-2.6 6.1-3.9 10.9-3.9 4.8 0 8.4 1.3 10.8 3.9 2.5 2.6 3.7 6.4 3.7 11.4Zm-20.6 0c0 5.8 2 8.7 6 8.7 2 0 3.6-.7 4.6-2.1 1-1.4 1.5-3.6 1.5-6.6 0-3-.5-5.2-1.5-6.6-1-1.4-2.5-2.1-4.5-2.1-4 0-6.1 2.9-6.1 8.7Z" fill="url(#e)"/><path d="M112 92.4h-8.1V69.1h-7.3v-6.6h22.7v6.6H112v23.3Z" fill="url(#f)"/><path d="M141.7 92.4h-17.8V62.5h17.8V69H132v4.7h9v6.5h-9v5.6h9.7v6.6Z" fill="url(#g)"/><path d="M172.1 92.4H164V69.1h-5.7c-.3 3.4-.7 6.9-1.3 10.4-.6 3.5-1 6-1.5 7.4-.5 1.4-1.1 2.5-1.8 3.4-.7.8-1.6 1.5-2.7 1.9-1.1.4-2.4.6-3.9.6-1.2 0-2.2-.2-3.2-.5v-6.2c.8.3 1.5.4 2 .4.7 0 1.3-.3 1.6-.9.4-.6.7-1.6 1-3 .3-1.4.8-4.1 1.3-7.9.6-3.9 1.1-7.9 1.6-12.2h20.7v29.9Z" fill="url(#h)"/><path d="M200.4 82.5c0 3.2-1.1 5.6-3.3 7.4-2.2 1.7-5.3 2.6-9.3 2.6H179V62.6h8.1v10.6h.4c4.2 0 7.4.8 9.5 2.4 2.3 1.5 3.4 3.8 3.4 6.9Zm-13.3 3.7h.4c3.2 0 4.7-1.2 4.7-3.5 0-2.2-1.6-3.4-4.8-3.4h-.3v6.9Z" fill="url(#i)"/></g><defs><linearGradient id="b" x1="-1.933" y1="77.486" x2="199.227" y2="77.486" gradientUnits="userSpaceOnUse"><stop stop-color="#1C8AE2"/><stop offset=".486" stop-color="#8B00B3"/><stop offset="1" stop-color="#6900B5"/></linearGradient><linearGradient id="c" x1="-1.933" y1="77.475" x2="199.227" y2="77.475" gradientUnits="userSpaceOnUse"><stop stop-color="#1C8AE2"/><stop offset=".486" stop-color="#8B00B3"/><stop offset="1" stop-color="#6900B5"/></linearGradient><linearGradient id="d" x1="-1.933" y1="80.964" x2="199.227" y2="80.964" gradientUnits="userSpaceOnUse"><stop stop-color="#1C8AE2"/><stop offset=".486" stop-color="#8B00B3"/><stop offset="1" stop-color="#6900B5"/></linearGradient><linearGradient id="e" x1="-1.933" y1="77.454" x2="199.227" y2="77.454" gradientUnits="userSpaceOnUse"><stop stop-color="#1C8AE2"/><stop offset=".486" stop-color="#8B00B3"/><stop offset="1" stop-color="#6900B5"/></linearGradient><linearGradient id="f" x1="-1.934" y1="77.486" x2="199.227" y2="77.486" gradientUnits="userSpaceOnUse"><stop stop-color="#1C8AE2"/><stop offset=".486" stop-color="#8B00B3"/><stop offset="1" stop-color="#6900B5"/></linearGradient><linearGradient id="g" x1="-1.933" y1="77.486" x2="199.227" y2="77.486" gradientUnits="userSpaceOnUse"><stop stop-color="#1C8AE2"/><stop offset=".486" stop-color="#8B00B3"/><stop offset="1" stop-color="#6900B5"/></linearGradient><linearGradient id="h" x1="-1.933" y1="77.69" x2="199.227" y2="77.69" gradientUnits="userSpaceOnUse"><stop stop-color="#1C8AE2"/><stop offset=".486" stop-color="#8B00B3"/><stop offset="1" stop-color="#6900B5"/></linearGradient><linearGradient id="i" x1="-1.933" y1="77.485" x2="199.227" y2="77.485" gradientUnits="userSpaceOnUse"><stop stop-color="#1C8AE2"/><stop offset=".486" stop-color="#8B00B3"/><stop offset="1" stop-color="#6900B5"/></linearGradient><clipPath id="a"><path fill="#fff" d="M0 0h200v155H0z"/></clipPath></defs></svg>