<svg xmlns="http://www.w3.org/2000/svg" xml:space="preserve" id="Слой_1" x="0" y="0" style="enable-background:new 0 0 920.3 259" version="1.1" viewBox="0 0 920.3 259"><style>.st0{fill:#fff}</style><g id="Page-1"><g id="SB_RUS_RGB"><path id="Path" d="m702.8 82.8 31.7-23.4H628.4v140.2h106.1v-23.4h-75.8v-35.8h64.8V117h-64.8V82.8z" class="st0"/><path id="Shape" d="M548.2 114h-36.8V82.8h58.8L602 59.4H481.1v140.1h63.2c35.4 0 55.8-16.1 55.8-44 0-26.8-18.3-41.5-51.9-41.5zm-5 62.2h-31.7v-38.8h31.7c19.3 0 28.3 6.4 28.3 19.5s-9.7 19.3-28.3 19.3z" class="st0"/><path id="Shape_1_" d="M820.5 59.4h-57.7v140.1h30.3v-39.7h27.6c36.8 0 59.7-19.3 59.7-50.2s-22.9-50.2-59.9-50.2zm-.7 77.1h-26.9V82.8h26.9c19.5 0 30.1 9.6 30.1 26.8s-10.6 26.9-30.1 26.9z" class="st0"/><path id="Path_1_" d="M429.2 169.3c-8 4.4-17 6.7-26.2 6.7-27.3 0-47.1-19.5-47.1-46.3s19.8-46.3 47.1-46.3c9.9-.2 19.5 3 27.6 8.7L452.4 76l-1.4-1.4c-12.6-11.2-29.6-17-48.9-17-20.9 0-40 7.1-53.8 20-13.8 13.3-21.6 31.9-21.1 51.2-.2 19.5 7.4 38.3 21.1 52.1 14.5 13.5 33.8 21.1 53.5 20.6 21.8 0 40.9-7.6 53.8-21.3l-19.5-14.5-6.9 3.6z" class="st0"/><g id="Group"><path id="Path_2_" d="M232.3 58.5c5.5 7.1 10.1 14.9 14 23.2l-106.1 78.2-44.6-28V98.4l44.3 27.8 92.4-67.7z" class="st0"/><g id="Path_3_"><path d="M50.4 129.655c0-1.6 0-3 .2-4.6l-26.9-1.4c0 1.8-.2 3.9-.2 5.7 0 32.1 13.1 61.2 34.2 82.3l19.1-19c-16.3-16-26.4-38.3-26.4-63zM140 40.155c1.6 0 3 0 4.6.2l1.4-26.8c-1.8 0-3.9-.2-5.7-.2-32.2 0-61.3 13.1-82.5 34.2l19.1 19c16-16.3 38.5-26.4 63.1-26.4zM140 219.055c-1.6 0-3 0-4.6-.2l-1.4 26.8c1.8 0 3.9.2 5.7.2 32.2 0 61.3-13.1 82.5-34.2l-19.1-19c-16 16.6-38.3 26.4-63.1 26.4z" class="st0"/></g><g id="Path_4_"><path d="M190.5 55.8 213.3 39c-20-16.1-45.5-25.9-73.3-25.9v26.8c18.8.3 36.3 6 50.5 15.9zM256.7 129.6c0-7.1-.7-14-1.8-20.9l-25 18.6v2.3c0 26.4-11.5 50-29.6 66.3l18.1 20c23.3-21.1 38.3-52.1 38.3-86.3zM140 219.1c-26.4 0-50.1-11.5-66.4-29.6l-20 18.1c21.4 23.6 52.2 38.3 86.4 38.3v-26.8zM80 63.3l-18.1-20c-23.7 21.3-38.4 52.1-38.4 86.2h26.9c0-26 11.5-49.9 29.6-66.2z" class="st0"/></g></g></g></g></svg>