<svg 
 xmlns="http://www.w3.org/2000/svg"
 xmlns:xlink="http://www.w3.org/1999/xlink"
 width="31px" height="28px">
<defs>


</defs>
<path fill-rule="evenodd"  fill="rgb(255, 255, 255)"
 d="M29.242,22.765 L8.871,22.765 C8.140,22.765 7.100,21.716 7.100,21.017 L7.100,13.138 C7.100,12.440 8.140,11.388 8.871,11.388 L29.242,11.388 C29.972,11.388 31.014,12.440 31.014,13.138 L31.014,21.017 C31.014,21.716 29.972,22.765 29.242,22.765 ZM15.637,15.786 C15.502,15.428 15.316,15.126 15.077,14.887 C14.838,14.648 14.556,14.466 14.230,14.349 C13.903,14.226 13.551,14.168 13.172,14.168 L10.638,14.168 L10.638,20.012 L13.172,20.012 C13.622,20.012 14.013,19.936 14.345,19.784 C14.677,19.638 14.954,19.431 15.176,19.167 C15.398,18.906 15.564,18.595 15.673,18.236 C15.784,17.874 15.838,17.483 15.838,17.057 C15.838,16.572 15.771,16.149 15.637,15.786 ZM22.060,15.902 C21.927,15.525 21.739,15.200 21.491,14.922 C21.245,14.641 20.943,14.423 20.586,14.265 C20.230,14.107 19.824,14.026 19.369,14.026 C18.914,14.026 18.507,14.107 18.150,14.265 C17.793,14.423 17.492,14.641 17.245,14.922 C16.998,15.200 16.810,15.525 16.678,15.902 C16.545,16.278 16.480,16.684 16.480,17.113 C16.480,17.533 16.545,17.932 16.678,18.301 C16.810,18.671 16.998,18.995 17.245,19.268 C17.492,19.539 17.793,19.756 18.150,19.911 C18.507,20.071 18.914,20.149 19.369,20.149 C19.824,20.149 20.230,20.071 20.586,19.911 C20.943,19.756 21.245,19.539 21.491,19.268 C21.739,18.995 21.927,18.671 22.060,18.301 C22.191,17.932 22.257,17.533 22.257,17.113 C22.257,16.684 22.191,16.278 22.060,15.902 ZM24.260,16.371 C24.318,16.128 24.410,15.911 24.536,15.726 C24.663,15.539 24.827,15.387 25.030,15.276 C25.233,15.165 25.479,15.109 25.770,15.109 C25.929,15.109 26.082,15.135 26.226,15.183 C26.373,15.237 26.502,15.312 26.618,15.403 C26.734,15.497 26.828,15.604 26.906,15.726 C26.983,15.849 27.032,15.987 27.054,16.131 L28.305,16.131 C28.266,15.793 28.173,15.492 28.025,15.231 C27.877,14.968 27.688,14.752 27.462,14.574 C27.233,14.395 26.977,14.260 26.688,14.168 C26.401,14.074 26.095,14.026 25.770,14.026 C25.315,14.026 24.909,14.107 24.552,14.265 C24.195,14.423 23.894,14.641 23.647,14.922 C23.400,15.200 23.212,15.525 23.079,15.902 C22.948,16.278 22.882,16.684 22.882,17.113 C22.882,17.533 22.948,17.932 23.079,18.301 C23.212,18.671 23.400,18.995 23.647,19.268 C23.894,19.539 24.195,19.756 24.552,19.911 C24.909,20.071 25.315,20.149 25.770,20.149 C26.132,20.149 26.464,20.096 26.766,19.985 C27.068,19.871 27.331,19.713 27.556,19.503 C27.780,19.295 27.962,19.045 28.098,18.753 C28.236,18.455 28.321,18.124 28.354,17.760 L27.103,17.760 C27.054,18.147 26.918,18.463 26.696,18.706 C26.474,18.948 26.165,19.071 25.770,19.071 C25.479,19.071 25.233,19.014 25.030,18.904 C24.827,18.792 24.663,18.641 24.536,18.455 C24.410,18.270 24.318,18.061 24.260,17.829 C24.203,17.597 24.174,17.358 24.174,17.113 C24.174,16.856 24.203,16.608 24.260,16.371 ZM20.603,18.455 C20.476,18.641 20.311,18.792 20.109,18.904 C19.906,19.014 19.659,19.071 19.369,19.071 C19.078,19.071 18.831,19.014 18.628,18.904 C18.425,18.792 18.260,18.641 18.134,18.455 C18.008,18.270 17.916,18.061 17.859,17.829 C17.801,17.597 17.772,17.358 17.772,17.113 C17.772,16.856 17.801,16.608 17.859,16.371 C17.916,16.128 18.008,15.911 18.134,15.726 C18.260,15.539 18.425,15.387 18.628,15.276 C18.831,15.165 19.078,15.109 19.369,15.109 C19.659,15.109 19.906,15.165 20.109,15.276 C20.311,15.387 20.476,15.539 20.603,15.726 C20.729,15.911 20.821,16.128 20.879,16.371 C20.936,16.608 20.965,16.856 20.965,17.113 C20.965,17.358 20.936,17.597 20.879,17.829 C20.821,18.061 20.729,18.270 20.603,18.455 ZM14.094,18.541 C13.957,18.680 13.801,18.780 13.624,18.841 C13.449,18.901 13.267,18.930 13.082,18.930 L11.930,18.930 L11.930,15.246 L12.852,15.246 C13.170,15.246 13.437,15.293 13.654,15.383 C13.870,15.472 14.044,15.600 14.176,15.772 C14.307,15.940 14.402,16.144 14.460,16.380 C14.518,16.620 14.547,16.883 14.547,17.179 C14.547,17.503 14.505,17.773 14.423,17.999 C14.341,18.221 14.231,18.402 14.094,18.541 ZM20.385,8.764 L14.184,8.764 C13.938,8.764 13.299,8.122 13.299,7.888 L13.299,1.761 L3.556,1.761 C2.997,1.761 1.785,2.978 1.785,3.512 L1.785,24.514 C1.785,25.054 2.997,26.269 3.556,26.269 L18.614,26.269 C19.173,26.269 20.385,25.054 20.385,24.514 L20.385,23.641 L22.156,23.641 L22.156,25.394 C22.156,26.927 21.148,28.012 19.547,28.012 L2.912,28.012 C1.311,28.012 0.007,26.765 0.007,25.231 L0.007,2.796 C0.007,1.263 1.311,0.015 2.912,0.015 L15.070,0.011 L22.156,7.011 C22.044,7.181 22.156,8.535 22.156,8.764 L22.156,10.510 L20.385,10.510 L20.385,8.764 ZM15.070,2.482 L15.070,7.011 L19.499,7.011 L15.070,2.482 Z"/>
<path fill="url(#PSgrad_0)"
 d="M29.242,22.765 L8.871,22.765 C8.140,22.765 7.100,21.716 7.100,21.017 L7.100,13.138 C7.100,12.440 8.140,11.388 8.871,11.388 L29.242,11.388 C29.972,11.388 31.014,12.440 31.014,13.138 L31.014,21.017 C31.014,21.716 29.972,22.765 29.242,22.765 ZM15.637,15.786 C15.502,15.428 15.316,15.126 15.077,14.887 C14.838,14.648 14.556,14.466 14.230,14.349 C13.903,14.226 13.551,14.168 13.172,14.168 L10.638,14.168 L10.638,20.012 L13.172,20.012 C13.622,20.012 14.013,19.936 14.345,19.784 C14.677,19.638 14.954,19.431 15.176,19.167 C15.398,18.906 15.564,18.595 15.673,18.236 C15.784,17.874 15.838,17.483 15.838,17.057 C15.838,16.572 15.771,16.149 15.637,15.786 ZM22.060,15.902 C21.927,15.525 21.739,15.200 21.491,14.922 C21.245,14.641 20.943,14.423 20.586,14.265 C20.230,14.107 19.824,14.026 19.369,14.026 C18.914,14.026 18.507,14.107 18.150,14.265 C17.793,14.423 17.492,14.641 17.245,14.922 C16.998,15.200 16.810,15.525 16.678,15.902 C16.545,16.278 16.480,16.684 16.480,17.113 C16.480,17.533 16.545,17.932 16.678,18.301 C16.810,18.671 16.998,18.995 17.245,19.268 C17.492,19.539 17.793,19.756 18.150,19.911 C18.507,20.071 18.914,20.149 19.369,20.149 C19.824,20.149 20.230,20.071 20.586,19.911 C20.943,19.756 21.245,19.539 21.491,19.268 C21.739,18.995 21.927,18.671 22.060,18.301 C22.191,17.932 22.257,17.533 22.257,17.113 C22.257,16.684 22.191,16.278 22.060,15.902 ZM24.260,16.371 C24.318,16.128 24.410,15.911 24.536,15.726 C24.663,15.539 24.827,15.387 25.030,15.276 C25.233,15.165 25.479,15.109 25.770,15.109 C25.929,15.109 26.082,15.135 26.226,15.183 C26.373,15.237 26.502,15.312 26.618,15.403 C26.734,15.497 26.828,15.604 26.906,15.726 C26.983,15.849 27.032,15.987 27.054,16.131 L28.305,16.131 C28.266,15.793 28.173,15.492 28.025,15.231 C27.877,14.968 27.688,14.752 27.462,14.574 C27.233,14.395 26.977,14.260 26.688,14.168 C26.401,14.074 26.095,14.026 25.770,14.026 C25.315,14.026 24.909,14.107 24.552,14.265 C24.195,14.423 23.894,14.641 23.647,14.922 C23.400,15.200 23.212,15.525 23.079,15.902 C22.948,16.278 22.882,16.684 22.882,17.113 C22.882,17.533 22.948,17.932 23.079,18.301 C23.212,18.671 23.400,18.995 23.647,19.268 C23.894,19.539 24.195,19.756 24.552,19.911 C24.909,20.071 25.315,20.149 25.770,20.149 C26.132,20.149 26.464,20.096 26.766,19.985 C27.068,19.871 27.331,19.713 27.556,19.503 C27.780,19.295 27.962,19.045 28.098,18.753 C28.236,18.455 28.321,18.124 28.354,17.760 L27.103,17.760 C27.054,18.147 26.918,18.463 26.696,18.706 C26.474,18.948 26.165,19.071 25.770,19.071 C25.479,19.071 25.233,19.014 25.030,18.904 C24.827,18.792 24.663,18.641 24.536,18.455 C24.410,18.270 24.318,18.061 24.260,17.829 C24.203,17.597 24.174,17.358 24.174,17.113 C24.174,16.856 24.203,16.608 24.260,16.371 ZM20.603,18.455 C20.476,18.641 20.311,18.792 20.109,18.904 C19.906,19.014 19.659,19.071 19.369,19.071 C19.078,19.071 18.831,19.014 18.628,18.904 C18.425,18.792 18.260,18.641 18.134,18.455 C18.008,18.270 17.916,18.061 17.859,17.829 C17.801,17.597 17.772,17.358 17.772,17.113 C17.772,16.856 17.801,16.608 17.859,16.371 C17.916,16.128 18.008,15.911 18.134,15.726 C18.260,15.539 18.425,15.387 18.628,15.276 C18.831,15.165 19.078,15.109 19.369,15.109 C19.659,15.109 19.906,15.165 20.109,15.276 C20.311,15.387 20.476,15.539 20.603,15.726 C20.729,15.911 20.821,16.128 20.879,16.371 C20.936,16.608 20.965,16.856 20.965,17.113 C20.965,17.358 20.936,17.597 20.879,17.829 C20.821,18.061 20.729,18.270 20.603,18.455 ZM14.094,18.541 C13.957,18.680 13.801,18.780 13.624,18.841 C13.449,18.901 13.267,18.930 13.082,18.930 L11.930,18.930 L11.930,15.246 L12.852,15.246 C13.170,15.246 13.437,15.293 13.654,15.383 C13.870,15.472 14.044,15.600 14.176,15.772 C14.307,15.940 14.402,16.144 14.460,16.380 C14.518,16.620 14.547,16.883 14.547,17.179 C14.547,17.503 14.505,17.773 14.423,17.999 C14.341,18.221 14.231,18.402 14.094,18.541 ZM20.385,8.764 L14.184,8.764 C13.938,8.764 13.299,8.122 13.299,7.888 L13.299,1.761 L3.556,1.761 C2.997,1.761 1.785,2.978 1.785,3.512 L1.785,24.514 C1.785,25.054 2.997,26.269 3.556,26.269 L18.614,26.269 C19.173,26.269 20.385,25.054 20.385,24.514 L20.385,23.641 L22.156,23.641 L22.156,25.394 C22.156,26.927 21.148,28.012 19.547,28.012 L2.912,28.012 C1.311,28.012 0.007,26.765 0.007,25.231 L0.007,2.796 C0.007,1.263 1.311,0.015 2.912,0.015 L15.070,0.011 L22.156,7.011 C22.044,7.181 22.156,8.535 22.156,8.764 L22.156,10.510 L20.385,10.510 L20.385,8.764 ZM15.070,2.482 L15.070,7.011 L19.499,7.011 L15.070,2.482 Z"/>
</svg>