<svg xmlns="http://www.w3.org/2000/svg" width="200" height="155" fill="none"><g clip-path="url(#a)"><path fill="url(#b)" d="M20.959 49.699c1.8.1 3.6.4 5.3.8 1 .2 1.9.6 2.7 1.2l-.4-.7c-1.1-1.3-2.5-2.3-4.1-2.9-2.5-.9-5.2-1.3-7.8-1-3.4.5-6.6 1.9-9.2 4.2 2-.7 4.1-1.1 6.2-1.3 2.4-.4 4.9-.5 7.3-.3Z"/><path fill="url(#c)" d="M42.76 101.899c-4.9-1.3-13.4-5.9-13.9-11.8-.2-1.9 0-3.9.4-5.7-.4.6-3.9 1.2-4.9 1.5v-1.6c1.3-.2 2.5-.4 3.4-.6.8-.2 1.6-.4 2.4-.7.4-.9.7-1.9.8-2.9l-4 .7-2.6.2v-1.1c1-.1 1.9-.2 2.7-.3l4.4-.6c.3-1.1.6-2.2.8-3.4l-3.7.4-4.2.2v-1.1h2l6.1-.5c.4-1 .6-2.1.8-3.2l-4 .3-5.2.2v-1.3c1.6 0 3-.1 4 0l5.5-.1c.3-1 .3-2.1.2-3.2l-3.4.1h-6.3v-1.6c2.1 0 4.2.1 6.2.1h3.6c0-1-.1-2.1-.4-3.1l-8.6-.4h-.9v-1.5c1 0 2 .1 3.2.1l6.1.2c-.1-.9-.3-1.8-.6-2.7-2.9-.7-5.8-1.1-8.7-1.2v-1.3l2.4.2c1.9.1 3.7.4 5.5.8-.2-1.1-.5-2.1-1-3.1-1.2-.7-4.3-.9-7-1.2v-.4c.5 0 1 0 1.5.1 1.3.1 2.6 0 3.8-.3l.1-.1c.2-.4-1.1-.9-2.3-1.2-1.8-.5-3.6-.8-5.5-.8-2.4-.2-4.8-.2-7.2.1-2.3.3-4.5.8-6.6 1.5-.2.3.3.6.5.7.4.1.8.1 1.2 0 1.1-.1 2.5-.2 3.9-.3v.3l-3.3.2c-1.4.1-2.8.4-4.2.9-.8.9-1.2 2-1.3 3.2l.1-.2 3.4-.3c1.5-.1 3.6-.2 5.4-.3v1.2l-4.7.2-4.2.4c-.8 1-1.4 2.3-1.5 3.6l4-.3 5.4-.4h1.2v1.4h-1l-5.2.3-4.6.4c-.5 1.1-.7 2.3-.6 3.5l2.9-.2c2.8-.2 5.5-.2 8.3-.3v1.6h-1.6c-3.5 0-7 .2-8.2.3-.3 0-1.5 0-1.5.2 0 1.1-.1 2.9.4 3.2h6.5l4.2-.1h.3v1.3h-1.9c-3.5.1-9.2-.2-9.2 0 .1 1.3.4 2.5 1.1 3.6l5.4-.1h4.8v1.3h-1.2c-3.5.1-8.8-.2-8.8 0 .3 1.2.7 2.3 1.3 3.3h4.6l4.2.1v1.3h-.3c-3.5 0-8.3-.2-8.3 0 .2 1.2.5 2.3.9 3.4 1.5 0 3.2.2 4.6.2l3.3.1v1.6c-2 0-2.9 0-3.6-.1-1.5 0-3-.2-4.4-.6-.3-.2.3 2 2.3 3.1 1.5.3 2.9.6 4.4.8.7 1 1.2 2.1 1.4 3.3 0 .3.4 3.1-.1 3.5-2.1.4-4.3.7-6.4.8-11 2.3-6.6 10-7.1 10.7h48.9c1-.2-2.3-5.4-6.6-6.5Z"/><path fill="url(#d)" d="M63.06 76.198v-13.2h3.9l2.3 9 2.3-9h3.9v13.2h-2.4v-10.4l-2.5 10.4h-2.6l-2.5-10.4v10.4h-2.4Z"/><path fill="url(#e)" d="M89.76 76.198h-2.9l-1.1-2.9h-5.2l-1.1 2.9h-2.7l5-13.2h2.8l5.2 13.2Zm-4.8-5.3-1.9-4.9-1.7 4.9h3.6Z"/><path fill="url(#f)" d="M91.06 76.198v-13.2h2.5l5.3 8.8v-8.8h2.5v13.2h-2.7l-5.2-8.7v8.7h-2.4Z"/><path fill="url(#g)" d="M104.06 76.198v-13.2h9.6v2.2h-7v3h6.5v2.2h-6.5v3.5h7.2v2.3h-9.8Z"/><path fill="url(#h)" d="M116.159 76.198v-13.2h2.6v5.8l5.2-5.8h3.5l-4.8 5.1 5.1 8.1h-3.4l-3.5-6.2-2.1 2.2v4h-2.6Z"/><path fill="url(#i)" d="M129.06 76.198v-13.2h9.6v2.2h-7v3h6.5v2.2h-6.5v3.5h7.2v2.3h-9.8Z"/><path fill="url(#j)" d="M141.06 76.198v-13.2h2.6l5.3 8.8v-8.8h2.4v13.2h-2.6l-5.2-8.7v8.7h-2.5Z"/><path fill="url(#k)" d="M154.06 76.198v-13.2h4.2c1 0 2.1 0 3.1.2.7.2 1.4.7 1.9 1.3.5.8.8 1.6.8 2.6 0 .7-.1 1.4-.4 2-.2.5-.6 1-1.1 1.3-.4.3-.8.5-1.3.6-.9.1-1.8.2-2.7.2h-1.7v5h-2.8Zm2.6-11v3.8h1.5c.7 0 1.4 0 2-.2.3-.1.6-.4.8-.7.2-.3.3-.7.3-1 0-.4-.1-.9-.4-1.2-.3-.3-.7-.5-1.1-.6-.6-.1-1.3-.1-1.9-.1h-1.2Z"/><path fill="url(#l)" d="M166.159 76.198v-13.1h2.6v10.8h6.5v2.3h-9.1Z"/><path fill="url(#m)" d="M177.059 62.998h2.6v7.1c0 .7 0 1.5.1 2.2.1.5.4 1 .8 1.3.5.3 1.1.5 1.7.5.6 0 1.2-.1 1.6-.5.4-.3.6-.7.7-1.1.1-.7.1-1.5.1-2.2v-7.3h2.6v6.9c0 1.1 0 2.2-.2 3.4-.1.6-.4 1.2-.8 1.7s-.9.8-1.5 1.1c-.8.3-1.6.4-2.5.4-1 .1-1.9-.1-2.8-.4-.6-.3-1.1-.6-1.5-1.1-.4-.4-.6-.9-.7-1.5-.2-1.1-.3-2.2-.3-3.4l.1-7.1Z"/><path fill="url(#n)" d="m189.459 71.899 2.5-.3c.1.7.4 1.4.9 1.9.5.4 1.2.6 1.9.6s1.3-.1 1.9-.5c.4-.3.6-.8.6-1.3 0-.3-.1-.6-.3-.8-.3-.3-.6-.5-.9-.6-.3-.1-1-.3-2.1-.6-1.1-.2-2.1-.7-2.9-1.3-.8-.7-1.2-1.6-1.2-2.7 0-.7.2-1.3.6-1.9.4-.6.9-1.1 1.6-1.3.8-.3 1.7-.5 2.5-.5 1.3-.1 2.6.3 3.6 1.1.8.8 1.3 1.8 1.3 2.9l-2.6.1c-.1-.6-.3-1.1-.7-1.5-.5-.3-1.1-.5-1.6-.4-.6 0-1.2.1-1.8.5-.3.2-.4.5-.4.8 0 .3.1.6.4.8.7.4 1.6.7 2.4.9 1 .2 1.9.5 2.8.9.6.3 1.1.8 1.5 1.3.4.6.5 1.4.5 2.1 0 .8-.2 1.5-.6 2.1-.4.7-1 1.2-1.7 1.5-.9.4-1.9.5-2.8.5-1.4.1-2.7-.3-3.8-1.2-1-.6-1.5-1.8-1.6-3.1Z"/><path fill="url(#o)" d="M66.56 100.699v-5.2h-.7v-.4h.7v-.2c0-.4.1-.8.2-1.1.1-.3.3-.5.5-.6l.6-.3c.2 0 .3-.1.5-.1h.3v.4h-.7c-.1.1-.3.1-.4.2-.2.1-.3.3-.4.5-.1.3-.2.6-.1.9v.2h3.2v5.7h-.5v-5.2h-2.8v5.2h-.4Zm3.2-7.2v-.8h.6v.8h-.6Z"/><path fill="url(#p)" d="M72.959 100.698v-5.7h.5v1.6c.1-.4.4-.8.7-1.1.3-.3.7-.5 1.1-.5h.3v.5h-.3c-.4 0-.8.2-1.1.5-.3.3-.5.7-.6 1.1-.1.4-.2.8-.2 1.2v2.5l-.4-.1Z"/><path fill="url(#q)" d="m76.959 99.999.3-.4c.5.5 1.1.7 1.8.7.3 0 .7-.1.9-.3.2-.2.4-.5.4-.8 0-.3-.1-.5-.3-.7-.2-.2-.5-.4-.8-.4l-.9-.4c-.3-.1-.6-.3-.8-.5-.2-.2-.3-.5-.3-.9s.2-.9.5-1.1c.4-.3.8-.4 1.3-.4.6 0 1.2.2 1.7.6l-.3.4c-.4-.4-.9-.6-1.5-.5-.3 0-.6.1-.9.3-.4.3-.5.9-.2 1.3 0 .1.1.1.2.2.2.2.5.3.8.5l.9.4c.3.1.6.3.8.5.2.2.3.6.3.9 0 .4-.2.8-.5 1.1-.4.3-.8.4-1.3.4-.8-.1-1.6-.4-2.1-.9Z"/><path fill="url(#r)" d="M83.259 98.599v-3.2h-.8v-.4h.8v-1.6h.5v1.6h1.5v.4h-1.5v3.2c0 .3 0 .6.1.9.1.2.2.4.4.5.1.1.3.199.4.199h.7v.5h-.7c-.2 0-.3-.099-.5-.199s-.3-.2-.5-.4c-.1-.2-.3-.4-.3-.6-.1-.2-.2-.6-.1-.9Z"/><path fill="url(#s)" d="M90.76 100.698v-5.7h.5v1.5c.2-.5.5-.9.9-1.1.4-.3.8-.5 1.3-.5s.9.1 1.3.4c.3.3.5.7.5 1.2.2-.4.5-.8.9-1.1.4-.3.8-.5 1.3-.5.6-.1 1.1.2 1.5.6.3.5.5 1.1.4 1.6v3.6h-.5v-3.4c0-.5-.1-1-.3-1.5-.2-.4-.7-.6-1.1-.5-.6 0-1.1.3-1.5.8-.4.5-.6 1.1-.6 1.8v2.8h-.5v-4c0-.2-.1-.3-.1-.5s-.1-.3-.2-.4c-.1-.1-.3-.2-.4-.3-.2-.1-.4-.1-.6-.1-.6 0-1.1.3-1.5.8-.4.5-.6 1.1-.6 1.8v2.8h-.7v-.1Z"/><path fill="url(#t)" d="M101.359 99.1c0-.2 0-.5.1-.7.1-.2.2-.4.4-.5.2-.1.4-.3.6-.4.2-.1.4-.2.6-.2.2-.1.5-.1.7-.1h1.5V97c0-1.1-.5-1.7-1.6-1.7-.6 0-1.2.2-1.6.5l-.3-.4c.2-.2.5-.4.8-.5.3-.1.7-.2 1.1-.2.5 0 1.1.2 1.5.5.4.4.6 1 .5 1.6v3.699h-.5v-1.3c-.2.4-.4.7-.8 1-.4.3-.8.4-1.2.4-.5 0-1-.1-1.4-.4-.3-.1-.5-.6-.4-1.1Zm.5 0c0 .3.1.6.4.9.3.299.7.399 1.1.399.6 0 1.1-.2 1.5-.7.3-.5.5-1.1.5-1.7v-.3h-1.5c-.2 0-.5.1-.7.1l-.6.3c-.2.1-.3.2-.4.4-.3.2-.3.4-.3.6Z"/><path fill="url(#u)" d="M108.26 100.698v-5.7h.5v1.5c.2-.4.5-.8.8-1.1.4-.4 1-.5 1.6-.5.6-.1 1.1.1 1.5.6.3.5.5 1.1.4 1.6v3.6h-.5v-4c0-.2-.1-.3-.1-.5s-.1-.3-.2-.4c-.1-.1-.3-.2-.4-.3-.2-.1-.4-.1-.6-.1-.6 0-1.2.3-1.7.7-.5.5-.7 1.1-.7 1.8v2.8h-.6Z"/><path fill="url(#v)" d="M115.659 100.698v-5.7h.5v1.5c.2-.4.5-.8.8-1.1.4-.4 1-.5 1.6-.5.6-.1 1.1.1 1.5.6.3.5.5 1.1.4 1.6v3.6h-.5v-4c0-.2-.1-.3-.1-.5s-.1-.3-.2-.4c-.1-.1-.3-.2-.4-.3-.2-.1-.4-.1-.6-.1-.6 0-1.2.3-1.7.7-.5.5-.7 1.1-.7 1.8v2.8h-.6Z"/><path fill="url(#w)" d="M122.56 97.799c0-.8.3-1.6.8-2.2.5-.5 1.2-.8 1.9-.8s1.3.2 1.7.8c.4.5.6 1.2.6 1.8v.3h-4.6c0 .7.2 1.4.7 1.9.5.5 1.1.7 1.7.7.7 0 1.3-.2 1.8-.7l.3.4-.9.6c-.3.1-.7.2-1.1.2-1.6.1-2.9-1.2-2.9-2.7v-.3Zm.6-.5h4c0-.5-.2-1.1-.6-1.5-.3-.3-.8-.5-1.3-.5s-1.1.2-1.5.5c-.3.4-.6.9-.6 1.5Z"/><path fill="url(#x)" d="M130.26 99.999c-.5-.6-.7-1.4-.7-2.2 0-.8.2-1.6.8-2.2.5-.5 1.1-.8 1.8-.8.4 0 .8.1 1.2.4.3.2.6.5.8.9v-1.1h.5v8h-.5v-3.3c-.2.4-.4.7-.8.9-.4.3-.8.4-1.3.4-.8-.1-1.4-.5-1.8-1Zm-.2-2.2c0 .7.2 1.3.5 1.8s.9.7 1.5.7 1.1-.2 1.5-.6c.4-.5.6-1.2.6-1.9 0-.6-.2-1.2-.5-1.8-.3-.5-.9-.8-1.5-.7-.6 0-1.1.2-1.5.7-.4.5-.6 1.1-.6 1.8Z"/><path fill="url(#y)" d="M137.159 98.599v-3.6h.5v4c0 .2 0 .3.1.5 0 .2.1.3.2.4.1.1.3.199.4.299.2.1.4.1.6.1.6 0 1.3-.3 1.7-.8.4-.5.7-1.1.6-1.8v-2.8h.5v5.701h-.5v-1.5c-.2.4-.5.8-.8 1.099-.4.3-.9.5-1.5.5-.6.1-1.1-.1-1.5-.5-.2-.4-.4-1-.3-1.6Z"/><path fill="url(#z)" d="M144.459 93.5v-.8h.6v.8h-.6Zm0 7.199v-5.7h.5v5.7h-.5Z"/><path fill="url(#A)" d="M147.56 100.698v-5.7h.5v1.5c.2-.4.5-.8.8-1.1.4-.4 1-.5 1.6-.5.6-.1 1.1.1 1.5.6.3.5.5 1.1.4 1.6v3.6h-.5v-4c0-.2 0-.3-.1-.5 0-.2-.1-.3-.2-.5-.1-.1-.3-.2-.4-.3-.2-.1-.4-.1-.6-.1-.6 0-1.3.3-1.7.7-.5.5-.7 1.1-.7 1.8v2.8l-.6.1Z"/><path fill="url(#B)" d="M158.659 100.699v-5.2h-.7v-.4h.7v-.3c0-.4.1-.8.2-1.1.1-.3.3-.5.5-.6l.6-.3h.8v.4h-.7c-.1.1-.3.1-.4.2-.2.1-.3.3-.4.5-.1.3-.2.6-.1.9v.3h1.6v.4h-1.6v5.2h-.5Z"/><path fill="url(#C)" d="M162.16 99.1c0-.2 0-.5.1-.7.1-.2.2-.4.4-.5.2-.1.4-.3.6-.4.2-.1.4-.2.6-.2.2-.1.5-.1.7-.1h1.5V97c0-1.1-.5-1.7-1.6-1.7-.6 0-1.2.2-1.6.5l-.3-.4c.2-.2.5-.4.8-.5.3-.1.7-.2 1.1-.2.5 0 1.1.2 1.5.5.4.4.6 1 .5 1.6v3.699h-.5v-1.3c-.2.4-.4.7-.8 1-.4.3-.8.4-1.2.4-.5 0-1-.1-1.4-.4-.3-.1-.5-.6-.4-1.1Zm.4 0c0 .3.1.6.4.9.3.299.7.399 1.1.399.6 0 1.1-.2 1.5-.7.3-.5.5-1.1.5-1.7v-.3h-1.5c-.2 0-.5.1-.7.1l-.6.3c-.2.1-.3.2-.4.4-.2.2-.2.4-.3.6Z"/><path fill="url(#D)" d="M169.559 99.999c-1.2-1.1-1.3-3-.2-4.2.6-.6 1.4-1 2.3-1 .4 0 .8.1 1.1.2.4.1.7.3.9.6l-.3.4c-.2-.2-.5-.4-.8-.5-.3-.1-.6-.2-1-.2-.6 0-1.3.2-1.7.7-.9 1-.9 2.6 0 3.6.5.5 1.1.7 1.7.7.4 0 .7-.1 1-.2.3-.1.6-.3.9-.6l.3.4c-.3.3-.6.5-.9.6-.4.2-.8.2-1.2.2-.8.1-1.6-.2-2.1-.7Z"/><path fill="url(#E)" d="M176.06 98.599v-3.2h-.8v-.4h.8v-1.6h.5v1.6h1.5v.4h-1.5v3.2c0 .3 0 .6.1.9.1.2.2.4.4.5.1.1.3.199.4.199h.7v.5h-.7c-.2 0-.3-.099-.5-.199s-.3-.2-.4-.4c-.2-.2-.3-.4-.3-.6-.1-.2-.2-.6-.2-.9Z"/><path fill="url(#F)" d="M179.56 97.799c0-1.6 1.3-2.9 2.9-2.9 1.6 0 2.9 1.3 2.9 2.9 0 .8-.3 1.6-.9 2.1-1.1 1.199-3 1.199-4.2 0-.4-.5-.7-1.3-.7-2.1Zm.5 0c0 .7.2 1.3.7 1.8.9 1 2.4.999 3.4.1l.1-.1c.5-.5.7-1.1.7-1.8s-.2-1.3-.7-1.8c-1-.9-2.5-.9-3.5 0-.4.5-.7 1.1-.7 1.8Z"/><path fill="url(#G)" d="M187.76 100.698v-5.7h.5v1.6c.1-.4.4-.8.7-1.1.3-.3.7-.5 1.1-.5h.3v.5h-.3c-.4 0-.8.2-1.1.5-.3.3-.5.7-.6 1.1-.1.4-.2.8-.2 1.2v2.5l-.4-.1Z"/><path fill="url(#H)" d="M191.759 102.298c.2.2.4.3.7.3.5 0 .8-.3 1.1-1l.4-.9-2.4-5.7h.5l1.9 4.5.2.5c0-.2.1-.3.2-.5l1.9-4.5h.5l-2.9 7c-.2.6-.8 1.1-1.5 1.1h-.5l-.3-.2-.1-.1.3-.5Z"/></g><defs><linearGradient id="s" x1="2.916" x2="200.249" y1="97.737" y2="97.737" gradientUnits="userSpaceOnUse"><stop stop-color="#1C8AE2"/><stop offset=".486" stop-color="#8B00B3"/><stop offset="1" stop-color="#6900B5"/></linearGradient><linearGradient id="b" x1="2.914" x2="200.248" y1="49.381" y2="49.381" gradientUnits="userSpaceOnUse"><stop stop-color="#1C8AE2"/><stop offset=".486" stop-color="#8B00B3"/><stop offset="1" stop-color="#6900B5"/></linearGradient><linearGradient id="d" x1="2.915" x2="200.249" y1="69.592" y2="69.592" gradientUnits="userSpaceOnUse"><stop stop-color="#1C8AE2"/><stop offset=".486" stop-color="#8B00B3"/><stop offset="1" stop-color="#6900B5"/></linearGradient><linearGradient id="e" x1="2.915" x2="200.249" y1="69.592" y2="69.592" gradientUnits="userSpaceOnUse"><stop stop-color="#1C8AE2"/><stop offset=".486" stop-color="#8B00B3"/><stop offset="1" stop-color="#6900B5"/></linearGradient><linearGradient id="f" x1="2.915" x2="200.249" y1="69.592" y2="69.592" gradientUnits="userSpaceOnUse"><stop stop-color="#1C8AE2"/><stop offset=".486" stop-color="#8B00B3"/><stop offset="1" stop-color="#6900B5"/></linearGradient><linearGradient id="g" x1="2.915" x2="200.249" y1="69.592" y2="69.592" gradientUnits="userSpaceOnUse"><stop stop-color="#1C8AE2"/><stop offset=".486" stop-color="#8B00B3"/><stop offset="1" stop-color="#6900B5"/></linearGradient><linearGradient id="h" x1="2.915" x2="200.248" y1="69.592" y2="69.592" gradientUnits="userSpaceOnUse"><stop stop-color="#1C8AE2"/><stop offset=".486" stop-color="#8B00B3"/><stop offset="1" stop-color="#6900B5"/></linearGradient><linearGradient id="i" x1="2.914" x2="200.249" y1="69.592" y2="69.592" gradientUnits="userSpaceOnUse"><stop stop-color="#1C8AE2"/><stop offset=".486" stop-color="#8B00B3"/><stop offset="1" stop-color="#6900B5"/></linearGradient><linearGradient id="j" x1="2.914" x2="200.249" y1="69.592" y2="69.592" gradientUnits="userSpaceOnUse"><stop stop-color="#1C8AE2"/><stop offset=".486" stop-color="#8B00B3"/><stop offset="1" stop-color="#6900B5"/></linearGradient><linearGradient id="k" x1="2.915" x2="200.249" y1="69.587" y2="69.587" gradientUnits="userSpaceOnUse"><stop stop-color="#1C8AE2"/><stop offset=".486" stop-color="#8B00B3"/><stop offset="1" stop-color="#6900B5"/></linearGradient><linearGradient id="l" x1="2.915" x2="200.248" y1="69.636" y2="69.636" gradientUnits="userSpaceOnUse"><stop stop-color="#1C8AE2"/><stop offset=".486" stop-color="#8B00B3"/><stop offset="1" stop-color="#6900B5"/></linearGradient><linearGradient id="m" x1="2.914" x2="200.249" y1="69.723" y2="69.723" gradientUnits="userSpaceOnUse"><stop stop-color="#1C8AE2"/><stop offset=".486" stop-color="#8B00B3"/><stop offset="1" stop-color="#6900B5"/></linearGradient><linearGradient id="n" x1="2.914" x2="200.248" y1="69.608" y2="69.608" gradientUnits="userSpaceOnUse"><stop stop-color="#1C8AE2"/><stop offset=".486" stop-color="#8B00B3"/><stop offset="1" stop-color="#6900B5"/></linearGradient><linearGradient id="o" x1="2.915" x2="200.249" y1="96.645" y2="96.645" gradientUnits="userSpaceOnUse"><stop stop-color="#1C8AE2"/><stop offset=".486" stop-color="#8B00B3"/><stop offset="1" stop-color="#6900B5"/></linearGradient><linearGradient id="p" x1="2.915" x2="200.247" y1="97.779" y2="97.779" gradientUnits="userSpaceOnUse"><stop stop-color="#1C8AE2"/><stop offset=".486" stop-color="#8B00B3"/><stop offset="1" stop-color="#6900B5"/></linearGradient><linearGradient id="q" x1="2.914" x2="200.249" y1="97.815" y2="97.815" gradientUnits="userSpaceOnUse"><stop stop-color="#1C8AE2"/><stop offset=".486" stop-color="#8B00B3"/><stop offset="1" stop-color="#6900B5"/></linearGradient><linearGradient id="r" x1="2.914" x2="200.249" y1="97.041" y2="97.041" gradientUnits="userSpaceOnUse"><stop stop-color="#1C8AE2"/><stop offset=".486" stop-color="#8B00B3"/><stop offset="1" stop-color="#6900B5"/></linearGradient><linearGradient id="c" x1="2.915" x2="200.249" y1="79.036" y2="79.036" gradientUnits="userSpaceOnUse"><stop stop-color="#1C8AE2"/><stop offset=".486" stop-color="#8B00B3"/><stop offset="1" stop-color="#6900B5"/></linearGradient><linearGradient id="t" x1="2.913" x2="200.249" y1="97.851" y2="97.851" gradientUnits="userSpaceOnUse"><stop stop-color="#1C8AE2"/><stop offset=".486" stop-color="#8B00B3"/><stop offset="1" stop-color="#6900B5"/></linearGradient><linearGradient id="u" x1="2.917" x2="200.248" y1="97.734" y2="97.734" gradientUnits="userSpaceOnUse"><stop stop-color="#1C8AE2"/><stop offset=".486" stop-color="#8B00B3"/><stop offset="1" stop-color="#6900B5"/></linearGradient><linearGradient id="v" x1="2.916" x2="200.247" y1="97.734" y2="97.734" gradientUnits="userSpaceOnUse"><stop stop-color="#1C8AE2"/><stop offset=".486" stop-color="#8B00B3"/><stop offset="1" stop-color="#6900B5"/></linearGradient><linearGradient id="w" x1="2.915" x2="200.249" y1="97.836" y2="97.836" gradientUnits="userSpaceOnUse"><stop stop-color="#1C8AE2"/><stop offset=".486" stop-color="#8B00B3"/><stop offset="1" stop-color="#6900B5"/></linearGradient><linearGradient id="x" x1="2.913" x2="200.25" y1="98.875" y2="98.875" gradientUnits="userSpaceOnUse"><stop stop-color="#1C8AE2"/><stop offset=".486" stop-color="#8B00B3"/><stop offset="1" stop-color="#6900B5"/></linearGradient><linearGradient id="y" x1="2.915" x2="200.249" y1="97.88" y2="97.88" gradientUnits="userSpaceOnUse"><stop stop-color="#1C8AE2"/><stop offset=".486" stop-color="#8B00B3"/><stop offset="1" stop-color="#6900B5"/></linearGradient><linearGradient id="z" x1="2.92" x2="200.246" y1="96.681" y2="96.681" gradientUnits="userSpaceOnUse"><stop stop-color="#1C8AE2"/><stop offset=".486" stop-color="#8B00B3"/><stop offset="1" stop-color="#6900B5"/></linearGradient><linearGradient id="A" x1="2.914" x2="200.249" y1="97.735" y2="97.735" gradientUnits="userSpaceOnUse"><stop stop-color="#1C8AE2"/><stop offset=".486" stop-color="#8B00B3"/><stop offset="1" stop-color="#6900B5"/></linearGradient><linearGradient id="B" x1="2.912" x2="200.249" y1="96.68" y2="96.68" gradientUnits="userSpaceOnUse"><stop stop-color="#1C8AE2"/><stop offset=".486" stop-color="#8B00B3"/><stop offset="1" stop-color="#6900B5"/></linearGradient><linearGradient id="C" x1="2.918" x2="200.249" y1="97.851" y2="97.851" gradientUnits="userSpaceOnUse"><stop stop-color="#1C8AE2"/><stop offset=".486" stop-color="#8B00B3"/><stop offset="1" stop-color="#6900B5"/></linearGradient><linearGradient id="D" x1="2.913" x2="200.249" y1="97.814" y2="97.814" gradientUnits="userSpaceOnUse"><stop stop-color="#1C8AE2"/><stop offset=".486" stop-color="#8B00B3"/><stop offset="1" stop-color="#6900B5"/></linearGradient><linearGradient id="E" x1="2.914" x2="200.249" y1="97.041" y2="97.041" gradientUnits="userSpaceOnUse"><stop stop-color="#1C8AE2"/><stop offset=".486" stop-color="#8B00B3"/><stop offset="1" stop-color="#6900B5"/></linearGradient><linearGradient id="F" x1="2.914" x2="200.249" y1="97.805" y2="97.805" gradientUnits="userSpaceOnUse"><stop stop-color="#1C8AE2"/><stop offset=".486" stop-color="#8B00B3"/><stop offset="1" stop-color="#6900B5"/></linearGradient><linearGradient id="G" x1="2.917" x2="200.249" y1="97.779" y2="97.779" gradientUnits="userSpaceOnUse"><stop stop-color="#1C8AE2"/><stop offset=".486" stop-color="#8B00B3"/><stop offset="1" stop-color="#6900B5"/></linearGradient><linearGradient id="H" x1="2.913" x2="200.248" y1="99.007" y2="99.007" gradientUnits="userSpaceOnUse"><stop stop-color="#1C8AE2"/><stop offset=".486" stop-color="#8B00B3"/><stop offset="1" stop-color="#6900B5"/></linearGradient><clipPath id="a"><path fill="#fff" d="M0 0h200v155H0z"/></clipPath></defs></svg>