<?xml version="1.0" encoding="utf-8"?>
<!-- Generator: Adobe Illustrator 22.0.0, SVG Export Plug-In . SVG Version: 6.00 Build 0)  -->
<svg version="1.1" id="Layer_1" xmlns="http://www.w3.org/2000/svg" xmlns:xlink="http://www.w3.org/1999/xlink" x="0px" y="0px"
	 viewBox="0 0 100 25" style="enable-background:new 0 0 100 25;" xml:space="preserve">
<style type="text/css">
	.st0{fill-rule:evenodd;clip-rule:evenodd;fill:#A6AAAA;}
	.st1{fill-rule:evenodd;clip-rule:evenodd;fill:#F3792E;}
	.st2{fill-rule:evenodd;clip-rule:evenodd;fill:#F06022;}
	.st3{fill-rule:evenodd;clip-rule:evenodd;fill:#D95122;}
	.st4{fill-rule:evenodd;clip-rule:evenodd;fill:#F89A2C;}
	.st5{fill-rule:evenodd;clip-rule:evenodd;fill:#FFFFFF;}
	.st6{fill:#FFFFFF;}
	.st7{fill-rule:evenodd;clip-rule:evenodd;fill:#B4008D;}
	.st8{fill-rule:evenodd;clip-rule:evenodd;fill:#9DBC0A;}
	.st9{fill:none;stroke:#9DBC0A;stroke-width:0.1962;stroke-miterlimit:10;}
	.st10{fill-rule:evenodd;clip-rule:evenodd;fill:#DF3F17;}
	.st11{fill:none;stroke:#DF3F17;stroke-width:0.1962;stroke-miterlimit:10;}
	.st12{fill-rule:evenodd;clip-rule:evenodd;fill:#F5B208;}
	.st13{fill:none;stroke:#F5B208;stroke-width:0.1962;stroke-miterlimit:10;}
	.st14{fill:#9DBC0A;}
	.st15{fill:none;stroke:#9DBC0A;stroke-width:0.2023;stroke-miterlimit:10;}
	.st16{fill:none;stroke:#DF3F17;stroke-width:0.2023;stroke-miterlimit:10;}
	.st17{fill:none;stroke:#F5B208;stroke-width:0.2023;stroke-miterlimit:10;}
	.st18{fill-rule:evenodd;clip-rule:evenodd;fill:#85754E;}
	.st19{fill:#85754E;}
	.st20{fill-rule:evenodd;clip-rule:evenodd;fill:#1A171B;}
	.st21{fill:#016268;}
	.st22{fill:#00A9C2;}
	.st23{fill:#21427B;}
	.st24{fill:#FAE101;}
	.st25{fill-rule:evenodd;clip-rule:evenodd;fill:#32327F;}
	.st26{fill-rule:evenodd;clip-rule:evenodd;fill:#FCB813;}
	.st27{fill:#002169;}
	.st28{fill:#C6C7C8;}
	.st29{fill:#F79420;}
	.st30{fill:#FCB831;}
	.st31{fill:#FDDD2E;}
	.st32{fill:#F3C700;}
	.st33{fill:#DB6216;}
	.st34{fill:#EAA600;}
	.st35{fill:#E32427;}
	.st36{fill:#FFFFFF;stroke:#FFFFFF;stroke-width:0.1124;stroke-miterlimit:10;}
	.st37{fill:url(#SVGID_1_);}
	.st38{fill-rule:evenodd;clip-rule:evenodd;fill:#C1272D;}
	.st39{fill-rule:evenodd;clip-rule:evenodd;fill:url(#SVGID_2_);}
	.st40{fill-rule:evenodd;clip-rule:evenodd;fill:url(#SVGID_3_);}
	.st41{fill-rule:evenodd;clip-rule:evenodd;fill:url(#SVGID_4_);}
	.st42{fill-rule:evenodd;clip-rule:evenodd;fill:url(#SVGID_5_);}
	.st43{fill-rule:evenodd;clip-rule:evenodd;fill:url(#SVGID_6_);}
	.st44{fill-rule:evenodd;clip-rule:evenodd;fill:url(#SVGID_7_);}
	.st45{fill-rule:evenodd;clip-rule:evenodd;fill:url(#SVGID_8_);}
	.st46{fill:#006937;}
	.st47{fill:#929990;}
	.st48{fill:#FFFFFF;stroke:#FFFFFF;stroke-width:0.1949;stroke-miterlimit:10;}
	.st49{fill:#18428F;}
	.st50{fill:#EC1848;}
	.st51{fill:#29A151;}
	.st52{fill:#C1272D;}
	.st53{fill:#29ABE2;}
	.st54{fill:#F7BE3E;}
	.st55{fill:url(#SVGID_9_);}
	.st56{fill-rule:evenodd;clip-rule:evenodd;fill:none;}
	.st57{clip-path:url(#SVGID_11_);fill-rule:evenodd;clip-rule:evenodd;}
	.st58{fill:#EFAF1F;}
	.st59{fill:#EFB022;}
	.st60{fill:#0E0A08;}
	.st61{fill:#DA2A28;}
	.st62{fill:#F6F6F5;}
	.st63{fill:#C7B086;}
	.st64{fill:#F1F0EE;}
	.st65{fill-rule:evenodd;clip-rule:evenodd;fill:url(#SVGID_12_);}
	.st66{fill-rule:evenodd;clip-rule:evenodd;fill:#FAF9F9;}
	.st67{fill-rule:evenodd;clip-rule:evenodd;fill:#F8B132;}
	.st68{fill-rule:evenodd;clip-rule:evenodd;fill:#1A70B7;}
	.st69{fill-rule:evenodd;clip-rule:evenodd;fill:#36A834;}
	.st70{fill-rule:evenodd;clip-rule:evenodd;fill:#E2000F;}
	.st71{fill-rule:evenodd;clip-rule:evenodd;fill:#1A1A18;}
	.st72{fill:url(#SVGID_13_);}
	.st73{fill:url(#SVGID_14_);}
	.st74{fill:url(#SVGID_15_);}
	.st75{fill:url(#SVGID_16_);}
	.st76{fill:url(#SVGID_17_);}
	.st77{fill:url(#SVGID_18_);}
	.st78{fill:url(#SVGID_19_);}
	.st79{fill:url(#SVGID_20_);}
	.st80{fill:url(#SVGID_21_);}
	.st81{fill:url(#SVGID_22_);}
	.st82{fill:url(#SVGID_23_);}
	.st83{fill:url(#SVGID_24_);}
	.st84{fill:url(#SVGID_25_);}
	.st85{fill:url(#SVGID_26_);}
	.st86{fill:#00A85D;}
	.st87{fill:#FFFFFF;stroke:#FFFFFF;stroke-width:0.1;stroke-miterlimit:10;}
	.st88{fill:#9FD8F5;}
	.st89{fill:#274888;}
	.st90{fill:#267DBF;}
	.st91{fill:#2F91CF;}
	.st92{fill:#2955A0;}
	.st93{fill:#236EB3;}
	.st94{fill:#CFEBFA;}
	.st95{fill:#42B7E9;}
	.st96{fill:#3FAAE0;}
	.st97{fill:#ED171F;}
	.st98{opacity:0.25;fill:url(#SVGID_27_);}
	.st99{fill:#FFFFFF;stroke:#FFFFFF;stroke-width:1.0606;stroke-miterlimit:10;}
	.st100{fill:#FFAF10;}
	.st101{fill:#151416;}
	.st102{fill:#E57641;}
	.st103{fill:none;}
	.st104{fill:#1C191B;}
	.st105{fill:#19181A;}
	.st106{fill:#DD7340;}
	.st107{fill:#181617;}
	.st108{fill:#EA7944;}
	.st109{fill:#0C0E13;}
	.st110{fill:#181719;}
	.st111{fill:#F2F1F2;}
	.st112{fill:#F6F5F5;}
	.st113{fill:#BA673F;}
	.st114{fill:#4E362A;}
	.st115{fill:#6A6567;}
	.st116{fill:none;stroke:#EA7944;stroke-width:0.3013;stroke-linecap:round;stroke-miterlimit:10;}
	.st117{fill:none;stroke:#FF00FF;stroke-width:0.25;stroke-miterlimit:10;}
</style>
<g>
	<path class="st54" d="M9.002,19.936H4.918v-7.884c0-0.957,0.021-1.833,0.062-2.628c-0.251,0.306-0.564,0.625-0.938,0.958
		l-1.69,1.395L0.263,9.21l5.113-4.166h3.626V19.936z"/>
	<path class="st54" d="M19.871,8.13c-0.958,0-1.705,0.393-2.241,1.177c-0.537,0.784-0.805,1.866-0.805,3.244
		c0,2.866,1.09,4.299,3.27,4.299c0.659,0,1.297-0.092,1.915-0.275c0.618-0.184,1.239-0.404,1.864-0.662v3.402
		c-1.243,0.55-2.648,0.825-4.217,0.825c-2.248,0-3.971-0.652-5.169-1.956c-1.198-1.304-1.798-3.188-1.798-5.653
		c0-1.541,0.291-2.896,0.871-4.063s1.416-2.066,2.506-2.694s2.372-0.942,3.845-0.942c1.609,0,3.147,0.35,4.614,1.049l-1.232,3.168
		c-0.55-0.258-1.1-0.475-1.65-0.651C21.093,8.219,20.502,8.13,19.871,8.13z"/>
	<path class="st54" d="M26.043,10.198c0-0.618,0.187-1.097,0.56-1.437s0.91-0.509,1.609-0.509c0.672,0,1.188,0.169,1.548,0.509
		s0.54,0.818,0.54,1.437c0,0.611-0.184,1.09-0.55,1.436c-0.367,0.347-0.879,0.52-1.538,0.52c-0.692,0-1.227-0.173-1.604-0.52
		C26.232,11.288,26.043,10.81,26.043,10.198z M26.043,18.245c0-0.625,0.185-1.107,0.555-1.446c0.37-0.34,0.908-0.51,1.614-0.51
		c0.672,0,1.188,0.17,1.548,0.51c0.36,0.339,0.54,0.821,0.54,1.446c0,0.61-0.185,1.088-0.555,1.431s-0.881,0.515-1.533,0.515
		c-0.672,0-1.202-0.17-1.589-0.51C26.237,19.342,26.043,18.862,26.043,18.245z"/>
	<path class="st54" d="M46.741,12.47c0,2.506-0.615,4.41-1.844,5.714s-3.029,1.956-5.398,1.956c-2.336,0-4.127-0.655-5.373-1.966
		s-1.869-3.219-1.869-5.725c0-2.479,0.62-4.371,1.859-5.679c1.239-1.307,3.041-1.961,5.404-1.961c2.37,0,4.166,0.648,5.388,1.945
		C46.129,8.053,46.741,9.957,46.741,12.47z M36.494,12.47c0,2.879,1.002,4.318,3.005,4.318c1.019,0,1.774-0.35,2.267-1.049
		c0.492-0.699,0.738-1.789,0.738-3.27c0-1.487-0.25-2.586-0.749-3.295c-0.499-0.71-1.245-1.064-2.236-1.064
		C37.502,8.11,36.494,9.563,36.494,12.47z"/>
	<path class="st54" d="M56,19.936h-4.023V8.334H48.34v-3.29h11.286v3.29H56V19.936z"/>
	<path class="st54" d="M70.596,19.936h-8.841V5.044h8.841v3.229h-4.818v2.343h4.461v3.229h-4.461v2.811h4.818V19.936z"/>
	<path class="st54" d="M85.884,19.936H81.84V8.334h-2.842c-0.156,1.69-0.365,3.412-0.626,5.164
		c-0.262,1.752-0.511,2.981-0.749,3.688s-0.538,1.268-0.901,1.686s-0.813,0.733-1.35,0.947s-1.185,0.321-1.945,0.321
		c-0.577,0-1.104-0.075-1.579-0.225v-3.106c0.407,0.136,0.74,0.204,0.998,0.204c0.353,0,0.623-0.148,0.81-0.443
		c0.187-0.296,0.358-0.798,0.515-1.508c0.156-0.709,0.373-2.026,0.652-3.952c0.278-1.925,0.536-3.946,0.774-6.065h10.288V19.936z"/>
	<path class="st54" d="M99.737,14.995c0,1.589-0.542,2.81-1.625,3.662s-2.62,1.278-4.609,1.278h-4.4V5.044h4.043v5.297h0.204
		c2.078,0,3.662,0.392,4.751,1.176C99.192,12.302,99.737,13.461,99.737,14.995z M93.146,16.85h0.184
		c1.575,0,2.363-0.584,2.363-1.752c0-1.114-0.795-1.671-2.384-1.671h-0.163V16.85z"/>
</g>
</svg>
