<svg xmlns="http://www.w3.org/2000/svg" viewBox="0 0 149.77 80.52" fill="#fff"><path d="M49.42 16.64c-.77-5.57-6.73-9.2-6.73-9.2A19.76 19.76 0 0 1 46 15a12.28 12.28 0 0 1-.39 6.14A24.25 24.25 0 0 0 40 10.82c-3.52-3.73-9.26-6.17-9.26-6.17S28.2 13.8 35.3 23a18.24 18.24 0 0 0-4.79-2.45 21.26 21.26 0 0 0-8-.64s2.95 8.83 14.14 11.54c-7.4-5.2-9.58-9.7-9.58-9.7a18.92 18.92 0 0 1 5.56 1.72c2.25 1 7.86 4.1 13.24 7.37A68.63 68.63 0 0 1 38.79 24c-5.9-7-4-14-4-14a20 20 0 0 1 6.39 6.09c1.92 2.8 4.55 10.07 4.55 10.07s4.6-2.8 3.66-9.57M72 30.62a54.86 54.86 0 0 0-9.83-1.81s2.82-.55 6.16-.87a29.23 29.23 0 0 1 10 .92A17.25 17.25 0 0 1 77 32.28a13 13 0 0 0 2-1.14 5.63 5.63 0 0 0 2.54-3.72A19 19 0 0 0 71 25.86c-.18 0-.54.1-.54.1a6.37 6.37 0 0 0 1.09-.67 12.37 12.37 0 0 0 4.25-6.6 29 29 0 0 0-8.12.18A13.22 13.22 0 0 0 58.51 26a31.2 31.2 0 0 1 5.94-3.37 19.28 19.28 0 0 1 5.91-.94 15.76 15.76 0 0 1-7.82 5.49 39.13 39.13 0 0 1-7.39 1.4s2.1-8.58 12.47-11.22c6.27-1.56 15.36.2 15.36.2s-10.8-5.56-20.36-1.1c6.5-7 1.6-16.47 1.6-16.47S57.74 1.27 53.7 4.88c-3.44 3.07-4.46 7.25-3.85 9.66a26.07 26.07 0 0 1 4.71-6A30.78 30.78 0 0 1 60.62 4a26.79 26.79 0 0 1-1.78 13.7c-4.7 10.88-10.8 14-10.8 14s11.37-1.27 18.42.47a27.17 27.17 0 0 1 8.85 3.57s-8.65 6-22.76 3c-9.42-2-14.1-5.7-14.1-5.7a36.69 36.69 0 0 0 18.31 9.19c18.47 3.27 24.5-5.58 24.5-5.58A20.49 20.49 0 0 0 72 30.62M23.4 43.44A46.09 46.09 0 0 0 33.22 42a40.21 40.21 0 0 1-4.16 2.53 9.3 9.3 0 0 1-5.94 1.2 19.79 19.79 0 0 1-9.33-3.85s2.7 1.7 9.62 1.6M21.67 39a26.13 26.13 0 0 1-12.33-8.29A94.63 94.63 0 0 0 21.81 34c5.26 1 12.32 3.13 15.94 6.28-2.78-5-8.68-8.6-16.37-9.6C4.8 28.58.77 24.5 0 23.78.83 26.26 4.9 36.9 15.3 40.3c8.46 2.76 18.83.46 18.83.46S29 41.5 21.67 39" fill="#009a4e"/><path d="M41.42 56.56h-2.26l-.6 1.7h-.73L40.15 52h.33l2.34 6.25h-.77zm-2-.63h1.8l-.68-1.87-.22-.94-.22 1zm7.52-3.17h-2.57v5.5h-.73V52.1h3.3zm.6-.66h3.35v.65h-2.62v2h2.4v.65h-2.4v2.2h2.67v.65h-3.4zm8.4 3.35H53v2.82h-.73V52.1H53v2.7h3v-2.7h.73v6.16H56zm6.2-2.7h-1.92v5.5h-.73v-5.5h-1.92v-.65h4.57zM66.56 58a1.58 1.58 0 0 1-.67.28 4.65 4.65 0 0 1-.86.08 3 3 0 0 1-1-.19 2.31 2.31 0 0 1-.84-.58 2.8 2.8 0 0 1-.57-1 4.35 4.35 0 0 1-.21-1.43 4 4 0 0 1 .23-1.46 2.87 2.87 0 0 1 .61-1 2.6 2.6 0 0 1 .86-.56A3 3 0 0 1 65 52a6.52 6.52 0 0 1 .86.05 2.31 2.31 0 0 1 .57.16l-.17.65a2.77 2.77 0 0 0-1.21-.21 2 2 0 0 0-.71.13 1.73 1.73 0 0 0-.63.43 2.24 2.24 0 0 0-.44.78 3.75 3.75 0 0 0-.17 1.19 3.42 3.42 0 0 0 .16 1.11 2.21 2.21 0 0 0 .43.79 1.93 1.93 0 0 0 .66.48 2.13 2.13 0 0 0 .81.16 2.84 2.84 0 0 0 .69-.08 1.93 1.93 0 0 0 .5-.21zm4.97-5.24H69.6v5.5h-.73v-5.5H67v-.65h4.57zm4.6.76a1.41 1.41 0 0 1-.07.45 1.36 1.36 0 0 1-.57.77 1.55 1.55 0 0 1-.5.26 2.15 2.15 0 0 1 .51.15 1.36 1.36 0 0 1 .43.29 1.48 1.48 0 0 1 .3.45 1.79 1.79 0 0 1-.09 1.44 1.58 1.58 0 0 1-.52.57 2.21 2.21 0 0 1-.73.33 3.47 3.47 0 0 1-.85.1h-1.2a2 2 0 0 1-.39-.06v-6.1a6.92 6.92 0 0 1 .76-.09 9.18 9.18 0 0 1 .94 0 4.23 4.23 0 0 1 .7.06 2 2 0 0 1 .65.22 1.47 1.47 0 0 1 .48.45 1.41 1.41 0 0 1 .16.71zm-2.52 1.3h.73l.4-.17a2 2 0 0 0 .33-.24 1 1 0 0 0 .23-.32 1 1 0 0 0 0-.87.76.76 0 0 0-.29-.3 1.49 1.49 0 0 0-.43-.17 2.52 2.52 0 0 0-.48 0h-.53a2.43 2.43 0 0 0-.37 0v2.1zm.48 2.9a2 2 0 0 0 .55-.07 1.26 1.26 0 0 0 .47-.21 1.11 1.11 0 0 0 .32-.36 1 1 0 0 0 .12-.5 1 1 0 0 0-.53-.92 1.67 1.67 0 0 0-.52-.17 3.86 3.86 0 0 0-.58 0h-.77v2.2h.94zm3.22-2.52a3.7 3.7 0 0 1 .68-2.36 2.21 2.21 0 0 1 1.82-.83 2.48 2.48 0 0 1 1.13.23 2.06 2.06 0 0 1 .79.64 2.84 2.84 0 0 1 .46 1 5.22 5.22 0 0 1 .15 1.3 3.67 3.67 0 0 1-.66 2.36 2.24 2.24 0 0 1-1.87.83 2.53 2.53 0 0 1-1.11-.23 2.13 2.13 0 0 1-.78-.65 2.63 2.63 0 0 1-.46-1 5.3 5.3 0 0 1-.15-1.29zm.77 0a4.31 4.31 0 0 0 .1 1 2.72 2.72 0 0 0 .31.8 1.61 1.61 0 0 0 .54.56 1.42 1.42 0 0 0 .78.21 1.53 1.53 0 0 0 1.29-.62 3.24 3.24 0 0 0 .46-1.92 4.34 4.34 0 0 0-.1-1 2.44 2.44 0 0 0-.31-.81 1.84 1.84 0 0 0-.55-.56 1.52 1.52 0 0 0-.79-.2 1.48 1.48 0 0 0-1.27.62 3.18 3.18 0 0 0-.46 1.92zm11.4-2.44h-2.84v5.5h-.73V52.1h4.3v6.16h-.73zm1.98 2.44a3.77 3.77 0 0 1 .65-2.36A2.24 2.24 0 0 1 94 52a2.51 2.51 0 0 1 1.13.23 2 2 0 0 1 .78.64 2.85 2.85 0 0 1 .47 1 5.24 5.24 0 0 1 .14 1.3 3.67 3.67 0 0 1-.65 2.36 2.26 2.26 0 0 1-1.87.83 2.53 2.53 0 0 1-1.11-.23 2.08 2.08 0 0 1-.79-.65 3 3 0 0 1-.46-1 5.3 5.3 0 0 1-.16-1.29zm.78 0a4.31 4.31 0 0 0 .1 1 2.47 2.47 0 0 0 .31.8 1.61 1.61 0 0 0 .54.56 1.42 1.42 0 0 0 .78.21 1.51 1.51 0 0 0 1.28-.62 3.16 3.16 0 0 0 .47-1.92 4.34 4.34 0 0 0-.1-1 2.45 2.45 0 0 0-.32-.81 1.7 1.7 0 0 0-.54-.56 1.54 1.54 0 0 0-.79-.2 1.48 1.48 0 0 0-1.27.62 3.18 3.18 0 0 0-.46 1.92zm7.84-3.03a5.36 5.36 0 0 1 .73-.1h.76a4.56 4.56 0 0 1 .82.08 2.23 2.23 0 0 1 .77.29 1.7 1.7 0 0 1 .55.58 1.79 1.79 0 0 1 .22.94 2.06 2.06 0 0 1-.2 1 1.85 1.85 0 0 1-.54.63 2.2 2.2 0 0 1-.76.35 3.8 3.8 0 0 1-.89.11h-.7v2.34h-.73zm1.5.5h-.44a1.44 1.44 0 0 0-.34 0v2.55h.7a3.05 3.05 0 0 0 .6-.06 1.63 1.63 0 0 0 .53-.21 1.11 1.11 0 0 0 .38-.42 1.45 1.45 0 0 0 .15-.7 1.21 1.21 0 0 0-.14-.6 1.12 1.12 0 0 0-.36-.39 1.65 1.65 0 0 0-.51-.2 2.67 2.67 0 0 0-.56.03zm5.8 3.9h-2.26l-.6 1.7h-.73l2.33-6.27h.34l2.34 6.25h-.8zm-2-.63h1.8l-.68-1.87-.22-.94-.22 1zm4.7-.57v-.62h.98a1.62 1.62 0 0 0 .43-.12 1.38 1.38 0 0 0 .35-.22 1 1 0 0 0 .24-.3.86.86 0 0 0 .09-.39 1.1 1.1 0 0 0-.1-.48.94.94 0 0 0-.27-.32 1 1 0 0 0-.4-.16 1.74 1.74 0 0 0-.47-.05 4.62 4.62 0 0 0-.81.06 2.15 2.15 0 0 0-.54.17l-.2-.58a2.31 2.31 0 0 1 .63-.2 4.61 4.61 0 0 1 1-.1 3.23 3.23 0 0 1 .69.07 1.83 1.83 0 0 1 .61.25 1.27 1.27 0 0 1 .43.46 1.49 1.49 0 0 1 .16.73 1.45 1.45 0 0 1-.29.84 1.58 1.58 0 0 1-.87.58 1.62 1.62 0 0 1 1 .47 1.4 1.4 0 0 1 .36 1 1.86 1.86 0 0 1-.19.87 2 2 0 0 1-.52.6 2.3 2.3 0 0 1-.74.35 3.48 3.48 0 0 1-.85.11 5.1 5.1 0 0 1-1-.07 3.69 3.69 0 0 1-.62-.16l.2-.65a2.73 2.73 0 0 0 .57.16 5.41 5.41 0 0 0 .88.07 2 2 0 0 0 .54-.08 1.37 1.37 0 0 0 .47-.23 1.1 1.1 0 0 0 .33-.38 1 1 0 0 0 .13-.55.9.9 0 0 0-.39-.81 2.08 2.08 0 0 0-1-.3h-.87zm8-1.84a1.41 1.41 0 0 1-.1.48 1.9 1.9 0 0 1-.21.43 1.67 1.67 0 0 1-.36.34 1.64 1.64 0 0 1-.52.23 2.21 2.21 0 0 1 .5.15 1.26 1.26 0 0 1 .43.29 1.43 1.43 0 0 1 .41 1.07 1.63 1.63 0 0 1-.19.82 1.79 1.79 0 0 1-.52.57 2.26 2.26 0 0 1-.74.33 3.39 3.39 0 0 1-.84.1h-1.22a2 2 0 0 1-.38-.06v-6.1a6.44 6.44 0 0 1 .75-.09 9.18 9.18 0 0 1 .94 0 4.14 4.14 0 0 1 .7.06 1.92 1.92 0 0 1 .65.22 1.47 1.47 0 0 1 .48.45 1.33 1.33 0 0 1 .22.71zm-2.53 1.3h.72a3.52 3.52 0 0 0 .39-.17 1.4 1.4 0 0 0 .33-.24 1 1 0 0 0 .23-.32.85.85 0 0 0 .08-.39.9.9 0 0 0-.11-.48.76.76 0 0 0-.29-.3 1.32 1.32 0 0 0-.42-.17 2.63 2.63 0 0 0-.49 0h-.53a2.27 2.27 0 0 0-.36 0v2.1zm.5 2.9a2 2 0 0 0 .54-.07 1.26 1.26 0 0 0 .47-.21 1.11 1.11 0 0 0 .32-.36 1 1 0 0 0 .12-.5 1 1 0 0 0-.52-.92 1.74 1.74 0 0 0-.53-.17 3.69 3.69 0 0 0-.58 0h-.76v2.2h.94zm7.23-3.62v-.7l-.38.72-3 4.15h-.44V52.1h.73v4.23l-.06.7.4-.72 3-4.2h.47v6.16h-.73zm6.2-1.34h-1.9v5.5h-.73v-5.5h-1.92v-.65h4.56zm4.67 1.34l.05-.7-.37.72-3 4.15h-.43V52.1h.73v4.23l-.06.7.4-.72 3-4.2h.44v6.16h-.73zm2.95.7h1.1a3.47 3.47 0 0 1 .68-2.07 2.14 2.14 0 0 1 1.73-.72 2.32 2.32 0 0 1 1.1.23 1.77 1.77 0 0 1 .74.64 3 3 0 0 1 .42 1 6.43 6.43 0 0 1 .13 1.3 4 4 0 0 1-.59 2.36 2.06 2.06 0 0 1-1.8.83 2.46 2.46 0 0 1-1.05-.21 2 2 0 0 1-.75-.59 2.71 2.71 0 0 1-.44-.92 5.5 5.5 0 0 1-.18-1.21h-1.08v2.82h-.73V52.1h.73zm1.87.4a5 5 0 0 0 .09 1 2.44 2.44 0 0 0 .28.8 1.43 1.43 0 0 0 .5.56 1.5 1.5 0 0 0 2-.41 3.68 3.68 0 0 0 .39-1.92 6 6 0 0 0-.07-1 3 3 0 0 0-.27-.81 1.59 1.59 0 0 0-.5-.56 1.39 1.39 0 0 0-.76-.2 1.37 1.37 0 0 0-1.23.62 3.45 3.45 0 0 0-.42 1.92zm-99.85 7.47v2c0 .8.36 1.2 1.1 1.2a2.76 2.76 0 0 0 .77-.11 1.72 1.72 0 0 0 .59-.3v-2.8h.73v6.16h-.73v-2.66a4.21 4.21 0 0 1-.62.27 2.73 2.73 0 0 1-.89.13 2.88 2.88 0 0 1-.68-.08 1.25 1.25 0 0 1-.53-.29 1.35 1.35 0 0 1-.34-.53 2.47 2.47 0 0 1-.12-.83v-2.17zm4.68 0h3.35v.65h-2.62v2H47V66h-2.4v2.2h2.66v.65h-3.44zm7.98.65H50l-.23 2.93a6.72 6.72 0 0 1-.44 1.81 1.48 1.48 0 0 1-.46.62.91.91 0 0 1-.57.19 1.1 1.1 0 0 1-.27 0 .79.79 0 0 1-.22-.06l.1-.64a.58.58 0 0 0 .19 0 .46.46 0 0 0 .29-.1.86.86 0 0 0 .29-.36 3.41 3.41 0 0 0 .23-.63 7.63 7.63 0 0 0 .2-1c0-.4.1-.9.13-1.45l.08-2h3.26v6.16h-.77zm1.97 2.43a3.75 3.75 0 0 1 .65-2.36 2.22 2.22 0 0 1 1.86-.82 2.57 2.57 0 0 1 1.12.22 2.18 2.18 0 0 1 .79.65 2.79 2.79 0 0 1 .46 1 5.3 5.3 0 0 1 .15 1.31 3.75 3.75 0 0 1-.65 2.36 2.26 2.26 0 0 1-1.87.83 2.6 2.6 0 0 1-1.12-.23 2.23 2.23 0 0 1-.78-.65 2.79 2.79 0 0 1-.46-1 5.3 5.3 0 0 1-.15-1.31zm.77 0a5.06 5.06 0 0 0 .1 1 2.73 2.73 0 0 0 .32.8 1.61 1.61 0 0 0 .54.56 1.42 1.42 0 0 0 .78.2 1.5 1.5 0 0 0 1.28-.62 3.18 3.18 0 0 0 .44-1.94 5 5 0 0 0-.1-1 2.69 2.69 0 0 0-.32-.81 1.73 1.73 0 0 0-.55-.56 1.51 1.51 0 0 0-.78-.2 1.47 1.47 0 0 0-1.27.62 3.18 3.18 0 0 0-.44 1.95zm9.22-1.67a1.76 1.76 0 0 1-.07.45 1.41 1.41 0 0 1-.22.42 1.2 1.2 0 0 1-.36.35 1.55 1.55 0 0 1-.52.23 2.15 2.15 0 0 1 .51.15 1.36 1.36 0 0 1 .43.29 1.55 1.55 0 0 1 .3.44 1.73 1.73 0 0 1 .11.63 1.63 1.63 0 0 1-.2.82 1.67 1.67 0 0 1-.52.57 2.43 2.43 0 0 1-.73.33 3.47 3.47 0 0 1-.85.1h-1.2a2 2 0 0 1-.39-.06v-6.08c.22 0 .47-.06.76-.08a9.18 9.18 0 0 1 .94 0 4.23 4.23 0 0 1 .7.06 2 2 0 0 1 .65.22 1.47 1.47 0 0 1 .48.45 1.39 1.39 0 0 1 .19.71zm-2.53 1.3h.7a2.43 2.43 0 0 0 .4-.18 1.5 1.5 0 0 0 .33-.23 1 1 0 0 0 .31-.71 1 1 0 0 0-.11-.48.86.86 0 0 0-.29-.31 1.47 1.47 0 0 0-.43-.16 2.52 2.52 0 0 0-.48-.05h-.53a2.6 2.6 0 0 0-.37 0v2.1zm.48 2.9a2 2 0 0 0 .55-.07 1.26 1.26 0 0 0 .47-.21 1.22 1.22 0 0 0 .32-.36 1 1 0 0 0 .12-.5 1 1 0 0 0-.53-.92 1.67 1.67 0 0 0-.52-.17 3.77 3.77 0 0 0-.58 0h-.77v2.2h.94zm3.47-5.6h3.35v.65H65.9v2h2.4V66h-2.4v2.2h2.67v.65h-3.4zm5.36 0v2c0 .8.36 1.2 1.1 1.2a2.83 2.83 0 0 0 .78-.11 1.67 1.67 0 0 0 .58-.3v-2.8h.74v6.16H73v-2.66a3.44 3.44 0 0 1-.62.27 2.69 2.69 0 0 1-.89.13 3 3 0 0 1-.68-.08 1.21 1.21 0 0 1-.52-.29 1.26 1.26 0 0 1-.35-.53 2.47 2.47 0 0 1-.12-.83v-2.17zm4.68 0h3.35v.65H76v2h2.4V66H76v2.2h2.67v.65h-3.4zm8.66 5.9a1.64 1.64 0 0 1-.67.29 4.74 4.74 0 0 1-.86.08 3 3 0 0 1-1-.19 2.31 2.31 0 0 1-.84-.58 2.68 2.68 0 0 1-.58-1 4.35 4.35 0 0 1-.21-1.43 4 4 0 0 1 .24-1.46 2.78 2.78 0 0 1 .61-1 2.37 2.37 0 0 1 .86-.56 2.72 2.72 0 0 1 1-.17 5.16 5.16 0 0 1 .86 0 2.59 2.59 0 0 1 .57.16l-.17.65a2.83 2.83 0 0 0-1.21-.21 1.94 1.94 0 0 0-.71.13 1.58 1.58 0 0 0-.63.43 2.11 2.11 0 0 0-.45.78 3.77 3.77 0 0 0-.16 1.19 3.73 3.73 0 0 0 .15 1.11 2.39 2.39 0 0 0 .44.79 1.9 1.9 0 0 0 .65.48 2.18 2.18 0 0 0 .82.15 2.87 2.87 0 0 0 .69-.07 1.85 1.85 0 0 0 .42-.14zM86.1 66h-.42v2.85H85v-6.18h.73v2.87l.4-.12 2.07-2.75h.8l-2.06 2.65-.37.3.43.4 2.25 2.87h-.92zm3.8-.25a3.69 3.69 0 0 1 .65-2.36 2.21 2.21 0 0 1 1.85-.82 2.62 2.62 0 0 1 1.13.22 2.18 2.18 0 0 1 .79.65 2.79 2.79 0 0 1 .46 1 5.3 5.3 0 0 1 .15 1.31 3.69 3.69 0 0 1-.66 2.36 2.24 2.24 0 0 1-1.87.83 2.59 2.59 0 0 1-1.11-.23 2.23 2.23 0 0 1-.78-.65 2.79 2.79 0 0 1-.46-1 5.3 5.3 0 0 1-.15-1.31zm.77 0a4.37 4.37 0 0 0 .1 1 2.72 2.72 0 0 0 .31.8 1.73 1.73 0 0 0 .55.56 1.41 1.41 0 0 0 .77.2 1.51 1.51 0 0 0 1.29-.62 3.18 3.18 0 0 0 .47-1.91 4.28 4.28 0 0 0-.11-1 2.44 2.44 0 0 0-.31-.81 1.84 1.84 0 0 0-.55-.56 1.52 1.52 0 0 0-.79-.2 1.48 1.48 0 0 0-1.27.62 3.18 3.18 0 0 0-.46 1.92zm8.8-2.43H96.9v5.5h-.73v-6.16h3.3zm.14 2.43a3.75 3.75 0 0 1 .65-2.36 2.23 2.23 0 0 1 1.86-.82 2.57 2.57 0 0 1 1.12.22 2.18 2.18 0 0 1 .79.65 2.79 2.79 0 0 1 .46 1 5.3 5.3 0 0 1 .15 1.31 3.75 3.75 0 0 1-.65 2.36 2.26 2.26 0 0 1-1.87.83 2.6 2.6 0 0 1-1.12-.23 2.23 2.23 0 0 1-.78-.65 2.79 2.79 0 0 1-.46-1 5.3 5.3 0 0 1-.15-1.31zm.77 0a4.37 4.37 0 0 0 .11 1 2.47 2.47 0 0 0 .31.8 1.61 1.61 0 0 0 .54.56 1.42 1.42 0 0 0 .78.2 1.5 1.5 0 0 0 1.28-.62 3.18 3.18 0 0 0 .47-1.91 4.28 4.28 0 0 0-.1-1 2.69 2.69 0 0 0-.32-.81 1.7 1.7 0 0 0-.54-.56 1.54 1.54 0 0 0-.79-.2 1.47 1.47 0 0 0-1.27.62 3.18 3.18 0 0 0-.47 1.92zm9 .25h-.4v2.85h-.73v-6.18h.73v2.87l.4-.12 2.07-2.75h.84l-2.06 2.65-.37.3.45.35 2.26 2.87h-.93zm7.14 1.12h-2.26l-.62 1.7h-.73l2.34-6.26h.33l2.34 6.26h-.77zm-2-.63h1.8l-.7-1.87-.22-.94-.22.95zm7.8-3.17h-2.84v5.5h-.73v-6.16h4.3v6.16h-.73zm6 1.34l.06-.7-.38.72-3 4.15h-.43v-6.16h.73v4.22l-.06.7.4-.72 3-4.2h.43v6.16h-.73zm6.2-1.34h-1.92v5.5h-.73v-5.5H130v-.65h4.57zm3.24 3.8h-2.26l-.6 1.7h-.73l2.33-6.26h.33l2.34 6.26h-.77zm-2-.63h1.8l-.68-1.87-.22-.94-.22.95z"/><path d="M143.2 63.32h-1.84l-.23 2.93a6.36 6.36 0 0 1-.44 1.81 1.56 1.56 0 0 1-.45.62 1 1 0 0 1-.58.19 1.14 1.14 0 0 1-.27 0 .79.79 0 0 1-.22-.06l.1-.64a.57.57 0 0 0 .18 0 .51.51 0 0 0 .3-.1.93.93 0 0 0 .28-.36 3.35 3.35 0 0 0 .24-.63 10.05 10.05 0 0 0 .19-1c.06-.4.1-.9.14-1.45l.08-2h3.25v6.16h-.73zm5.16 3.8h-2.26l-.6 1.7h-.73l2.33-6.26h.34l2.34 6.26H149zm-2-.63h1.8l-.68-1.87-.22-.94-.22.95zM42.18 76.56h-3v2.83h-.73v-6.16h.73v2.68h3v-2.68h.73v6.16h-.73zm5.15 1.12h-2.26l-.6 1.7h-.73l2.33-6.26h.34l2.34 6.26H48zm-2-.63h1.8l-.68-1.88-.22-.93-.22 1zm10.9 3.47h-.5l-.13-1.13h-4.32l-.13 1.13h-.5v-1.78h.62a2.87 2.87 0 0 0 .22-.46 6.1 6.1 0 0 0 .29-1c.1-.44.18-1 .26-1.66a20.29 20.29 0 0 0 .11-2.37h3.3v5.5h.8zm-1.54-1.78v-4.86H52.8c0 .65-.05 1.23-.1 1.74L52.53 77a8.35 8.35 0 0 1-.24 1 7 7 0 0 1-.27.72zm5.45-1.06h-2.26l-.6 1.7h-.73l2.33-6.26h.34l2.34 6.26h-.78zm-2-.63h1.8l-.68-1.88-.25-.93-.2 1z"/><path d="M65.58 73.88h-1.84l-.23 2.93a6.82 6.82 0 0 1-.44 1.81 1.48 1.48 0 0 1-.46.62.91.91 0 0 1-.57.19 1.06 1.06 0 0 1-.27 0 1.41 1.41 0 0 1-.22-.06l.1-.64a.58.58 0 0 0 .19 0 .46.46 0 0 0 .29-.1.86.86 0 0 0 .29-.36 3.41 3.41 0 0 0 .23-.63 7.49 7.49 0 0 0 .2-1c0-.4.1-.88.13-1.44l.08-2h3.26v6.16h-.73zm2.22-.65h.73v2.4h.88a3.75 3.75 0 0 1 .82.09 1.94 1.94 0 0 1 .71.29 1.57 1.57 0 0 1 .51.57 1.87 1.87 0 0 1 .19.9 2 2 0 0 1-.19.92 1.77 1.77 0 0 1-.51.64 2.26 2.26 0 0 1-.76.38 3.51 3.51 0 0 1-.94.12h-1.07l-.37-.07zm1.53 5.6a1.93 1.93 0 0 0 .6-.09 1.42 1.42 0 0 0 .49-.25 1.27 1.27 0 0 0 .33-.43 1.48 1.48 0 0 0 .12-.61 1.25 1.25 0 0 0-.14-.61.93.93 0 0 0-.34-.39 1.4 1.4 0 0 0-.5-.21 3.68 3.68 0 0 0-.58 0h-.78v2.5a2.43 2.43 0 0 0 .36 0zm7.04-2.27h-3v2.83h-.73v-6.16h.73v2.68h3v-2.68h.73v6.16h-.73zm2.23-3.33H82v.65h-2.67v2h2.4v.65h-2.4v2.2H82v.65h-3.4zm9.45 2.02l.1-.92-.33.84L86.16 78h-.22l-1.7-2.8-.32-.84.12.9v4.15h-.68v-6.2h.54l1.93 3.15.3.7.27-.7 1.84-3.13h.57v6.16h-.73zm8.3-.6a1.9 1.9 0 0 1-.07.45 1.65 1.65 0 0 1-.21.42 1.5 1.5 0 0 1-.36.35 1.64 1.64 0 0 1-.52.23 2.21 2.21 0 0 1 .5.15 1.42 1.42 0 0 1 .43.29 1.77 1.77 0 0 1 .3.45 1.54 1.54 0 0 1 .11.63 1.63 1.63 0 0 1-.19.82 1.9 1.9 0 0 1-.52.57 2.25 2.25 0 0 1-.74.32 3.4 3.4 0 0 1-.84.11H93a3.38 3.38 0 0 1-.38-.06v-6.1l.75-.1h.94a4.14 4.14 0 0 1 .7.06 1.92 1.92 0 0 1 .65.22 1.47 1.47 0 0 1 .48.45 1.3 1.3 0 0 1 .19.72zm-2.53 1.3h.36a1.86 1.86 0 0 0 .36 0 1.71 1.71 0 0 0 .39-.17 1.3 1.3 0 0 0 .33-.23 1.18 1.18 0 0 0 .23-.32 1 1 0 0 0 0-.87.86.86 0 0 0-.29-.31 1.31 1.31 0 0 0-.42-.16 2.63 2.63 0 0 0-.49 0h-.53a2.27 2.27 0 0 0-.36 0v2.1zm.5 2.9a2.42 2.42 0 0 0 .54-.07 1.26 1.26 0 0 0 .47-.21 1.22 1.22 0 0 0 .32-.36 1 1 0 0 0 .12-.5 1 1 0 0 0-.15-.58.93.93 0 0 0-.37-.34 1.74 1.74 0 0 0-.53-.17 3.77 3.77 0 0 0-.58 0h-.76v2.2a.4.4 0 0 0 .17 0h.77zm3.2-2.54a3.75 3.75 0 0 1 .65-2.31 2.22 2.22 0 0 1 1.86-.83 2.57 2.57 0 0 1 1.12.23 2.18 2.18 0 0 1 .79.65 2.79 2.79 0 0 1 .46 1 5.3 5.3 0 0 1 .15 1.31 3.75 3.75 0 0 1-.65 2.36 2.25 2.25 0 0 1-1.87.82 2.6 2.6 0 0 1-1.12-.22 2.23 2.23 0 0 1-.78-.65 2.79 2.79 0 0 1-.46-1 5.3 5.3 0 0 1-.15-1.36zm.77 0a5.06 5.06 0 0 0 .1 1 2.73 2.73 0 0 0 .32.8 1.7 1.7 0 0 0 .54.56 1.42 1.42 0 0 0 .78.2 1.5 1.5 0 0 0 1.28-.62 3.18 3.18 0 0 0 .47-1.91 5 5 0 0 0-.1-1 2.69 2.69 0 0 0-.32-.81 1.64 1.64 0 0 0-.55-.56 1.42 1.42 0 0 0-.78-.2 1.47 1.47 0 0 0-1.27.62 3.18 3.18 0 0 0-.47 1.92zm9.45 2.83a1.54 1.54 0 0 1-.66.29 4.79 4.79 0 0 1-.87.07 2.9 2.9 0 0 1-1-.18 2.26 2.26 0 0 1-.85-.58 2.8 2.8 0 0 1-.57-1 4.35 4.35 0 0 1-.21-1.43 4.05 4.05 0 0 1 .23-1.47 2.75 2.75 0 0 1 .62-1 2.33 2.33 0 0 1 .85-.56 2.73 2.73 0 0 1 1-.18 5 5 0 0 1 .86.06 2.53 2.53 0 0 1 .58.16l-.18.65a2.75 2.75 0 0 0-1.2-.21 2 2 0 0 0-.72.13 1.73 1.73 0 0 0-.63.43 2.24 2.24 0 0 0-.44.78 3.7 3.7 0 0 0-.17 1.19 3.42 3.42 0 0 0 .16 1.11 2.23 2.23 0 0 0 .44.79 1.81 1.81 0 0 0 .65.48 2.16 2.16 0 0 0 .81.15 2.42 2.42 0 0 0 .69-.08 1.93 1.93 0 0 0 .5-.2zm4.98-5.25h-1.92v5.5H110v-5.5h-1.92v-.65h4.57zm.22 2.42a3.69 3.69 0 0 1 .65-2.36 2.22 2.22 0 0 1 1.85-.83 2.62 2.62 0 0 1 1.13.23 2.18 2.18 0 0 1 .79.65 2.79 2.79 0 0 1 .46 1 5.3 5.3 0 0 1 .15 1.31 3.69 3.69 0 0 1-.66 2.36 2.24 2.24 0 0 1-1.87.82 2.56 2.56 0 0 1-1.11-.22 2.23 2.23 0 0 1-.78-.65 2.79 2.79 0 0 1-.46-1 5.3 5.3 0 0 1-.15-1.31zm.77 0a4.37 4.37 0 0 0 .1 1 2.72 2.72 0 0 0 .31.8 1.81 1.81 0 0 0 .54.56 1.44 1.44 0 0 0 .78.2 1.51 1.51 0 0 0 1.29-.62 3.18 3.18 0 0 0 .46-1.91 4.28 4.28 0 0 0-.1-1 2.44 2.44 0 0 0-.31-.81 1.73 1.73 0 0 0-.55-.56 1.43 1.43 0 0 0-.79-.2 1.48 1.48 0 0 0-1.27.62 3.18 3.18 0 0 0-.46 1.92zm6.64.24h-.4v2.85h-.73v-6.16h.73v2.87l.4-.12 2.06-2.75h.85l-2.06 2.65-.37.3.45.35 2.25 2.87h-.92zm4.23-3.3h3.35v.65h-2.62v2h2.4v.65h-2.4v2.2h2.7v.65h-3.4z"/></svg>