<svg xmlns="http://www.w3.org/2000/svg" viewBox="0 0 89.37 98.72"><defs><style>.b7151bd8-b7f1-4216-a7d2-4673ad235f83{fill:#5b86a4;}</style></defs><title>100</title><g id="b2f177c8-5c8d-4199-948c-a87053339570" data-name="Слой 2"><g id="ab8fe571-d5ab-451e-bbfb-f388a6d13f2e" data-name="Слой 1"><path class="b7151bd8-b7f1-4216-a7d2-4673ad235f83" d="M39.79,82.12H30.12c-.63-.66-1.28-1.32-1.94-2H39.79Zm0-9.64H19.31q-1.32-1-2.7-2H39.79Zm0-9.64H4c-1.32-.68-2.65-1.34-4-2H39.79Zm0-13.83V41.83l-4,7.18H34.63V41.33h1.11v6.82l3.82-6.82H40.9V49Zm4.44-7.68v3.46h3.12V41.33h1.11V49H47.35V45.12H44.23V49H43.12V41.33Zm5.7,0h3.88v.33H52.45V49H51.34V41.66H49.93Zm9.17,0v.33H56.48v3.21H59.1v.33H56.48v3.49H59.1V49H55.37V41.33ZM45.44,98.72c2.24-12.14,6.45-23.58,12.63-33.1,5.94-9.16,13-15.5,20.56-19v-.42H63.71l3.5-4.83H61v.37h4.61l-4.45,6.39c1.1,0,2.62-.05,3.73,0-7,7.17-13.25,16.79-17.37,31.11-1.15-1.86-1.92-7.89-2.39-13.93h-.55L44.5,98.72ZM59.83,52.56c.49-.63,1-1.24,1.48-1.84q-18.53,0-37-.09c7-7.17,13.26-16.79,17.37-31.11,1.28,2.07,2.1,9.33,2.54,16h.39L44.63,0h-.94c-2.24,12.14-6.45,23.58-12.63,33.1-5.88,9-12.88,15.36-20.32,18.93v.53Zm-10.25-36h9.68c.63.67,1.27,1.33,1.94,2H49.58Zm0,9.65H70.06c.88.66,1.78,1.32,2.71,2H49.58Zm0,9.64h35.8c1.31.68,2.65,1.34,4,2H49.58Z"/></g></g></svg>