<svg xmlns="http://www.w3.org/2000/svg" viewBox="0 0 146.66 23.19"><defs><style>.a1c26cf6-83ee-4908-9b1c-c3dbdb292c03,.f1198012-dcd3-4d19-a2e5-7e0cfcbf6e9d{fill:#649dd7;}.b947c36c-1627-41a5-82cf-49fe2091bf31,.bafb4900-bf36-429a-a696-3b3cce9cc22d{fill:#4c5f8f;}.bafb4900-bf36-429a-a696-3b3cce9cc22d,.f1198012-dcd3-4d19-a2e5-7e0cfcbf6e9d{fill-rule:evenodd;}</style></defs><title>101</title><g id="b122ae7e-ba60-4644-886d-08d2eeea33e8" data-name="Слой 2"><g id="aadba861-622e-44fc-b538-b6617bef3b8d" data-name="Слой 1"><path class="a1c26cf6-83ee-4908-9b1c-c3dbdb292c03" d="M39.86,12a4.09,4.09,0,0,1-.18-.49,3,3,0,0,1-.13-.52,3.6,3.6,0,0,1-1.13.87,3.37,3.37,0,0,1-1.52.33,3.22,3.22,0,0,1-2.26-.77,2.76,2.76,0,0,1-.83-2.11A2.37,2.37,0,0,1,34.9,7.17a5.65,5.65,0,0,1,3.2-.75h1.33V5.48A1.47,1.47,0,0,0,39,4.39,1.7,1.7,0,0,0,37.84,4a3.24,3.24,0,0,0-.8.1,2,2,0,0,0-.56.25l-.17,1h-2V3.25A7.6,7.6,0,0,1,36,2.44a6,6,0,0,1,2-.33A4.57,4.57,0,0,1,40.92,3,3,3,0,0,1,42,5.49v4c0,.15,0,.29,0,.42a2.22,2.22,0,0,0,0,.37l.79.11V12ZM37.6,10.21A2.22,2.22,0,0,0,38.67,10a2.11,2.11,0,0,0,.76-.64V7.84H38.1a1.79,1.79,0,0,0-1.26.39,1.21,1.21,0,0,0-.43.94,1,1,0,0,0,.31.76,1.29,1.29,0,0,0,.88.28M49.44,2.29a5.57,5.57,0,0,1,3,.68,2.23,2.23,0,0,1,1.07,2,1.79,1.79,0,0,1-.45,1.2A2.88,2.88,0,0,1,51.79,7a3.08,3.08,0,0,1,1.67.8A1.94,1.94,0,0,1,54,9.19a2.34,2.34,0,0,1-1,2.07,5.22,5.22,0,0,1-2.93.69H44V10.39l1.39-.27v-6L44,3.86V2.29h5.43ZM48,7.93v2h2.07a1.57,1.57,0,0,0,1-.26A.89.89,0,0,0,51.41,9a1,1,0,0,0-.31-.77,1.59,1.59,0,0,0-1-.26Zm0-1.7h1.58a1.85,1.85,0,0,0,1-.24.79.79,0,0,0,.32-.69.86.86,0,0,0-.36-.77,2,2,0,0,0-1.11-.25H48ZM65.12,2.29V5.58h-2L63,4.28H61.36v5.84l1.38.27V12H57.36V10.39l1.38-.27V4.28H57.12L57,5.58H55V2.29ZM65.93,7a5.21,5.21,0,0,1,1.21-3.54,4.76,4.76,0,0,1,6.7,0A5.12,5.12,0,0,1,75.05,7v.19a5.15,5.15,0,0,1-1.21,3.55,4.22,4.22,0,0,1-3.33,1.37,4.28,4.28,0,0,1-3.37-1.37,5.2,5.2,0,0,1-1.21-3.55Zm2.61.19A4.3,4.3,0,0,0,69,9.34a1.64,1.64,0,0,0,1.51.8A1.58,1.58,0,0,0,72,9.34a4.14,4.14,0,0,0,.47-2.12V7A4.19,4.19,0,0,0,72,4.93a1.78,1.78,0,0,0-3,0A4.3,4.3,0,0,0,68.54,7Zm15,1.7h0l2.49-6.63h4.65V3.86l-1.38.27v6l1.38.27V12h-5V10.39l1-.27V6.2h-.06L84.42,12H82.67L80.48,6.3h0v3.81l1,.27V12h-5V10.39l1.39-.27v-6l-1.39-.27V2.29h4.61ZM98.1,12a4.14,4.14,0,0,1-.19-.49,3,3,0,0,1-.12-.52,3.6,3.6,0,0,1-1.13.87,3.41,3.41,0,0,1-1.53.33,3.2,3.2,0,0,1-2.25-.77A2.73,2.73,0,0,1,92,9.26a2.39,2.39,0,0,1,1.09-2.09,5.65,5.65,0,0,1,3.2-.75h1.33V5.48a1.43,1.43,0,0,0-.4-1.09A1.68,1.68,0,0,0,96.07,4a3.1,3.1,0,0,0-.79.1,2,2,0,0,0-.57.25l-.17,1h-2V3.25a7.16,7.16,0,0,1,1.64-.81,5.93,5.93,0,0,1,2-.33A4.58,4.58,0,0,1,99.16,3a3,3,0,0,1,1.12,2.5V9.91a2.21,2.21,0,0,0,0,.37l.79.11V12Zm-2.26-1.74A2.25,2.25,0,0,0,96.91,10a2.16,2.16,0,0,0,.75-.64V7.84H96.33a1.83,1.83,0,0,0-1.26.39,1.21,1.21,0,0,0-.43.94,1,1,0,0,0,.32.76,1.26,1.26,0,0,0,.88.28m16-7.92V5.58h-2l-.11-1.3h-1.65v5.84l1.39.27V12h-5.39V10.39l1.39-.27V4.28h-1.62l-.1,1.3h-2V2.29Zm6.53,0V3.86l-1.25.27v4h0l3.14-5.88h4V3.86L123,4.13v6l1.39.27V12H119.1V10.39l1.25-.27v-4h0L117.16,12h-4V10.39l1.4-.27v-6l-1.4-.27V2.29h5.26Zm7.45,1.57V2.29H131V3.86l-1.18.27V6h.89l1.45-2.15a4.44,4.44,0,0,1,1.14-1.26,2.72,2.72,0,0,1,2.3-.3,4.49,4.49,0,0,1,.7.34l-.43,1.8-.34-.08a.79.79,0,0,0-.25,0,1.06,1.06,0,0,0-.56.2,2.14,2.14,0,0,0-.52.52L133,6.84l2.24,3.34,1.32.21V12H133l-2.11-3.62h-1v1.79l1.18.27V12h-5.18V10.39l1.4-.27v-6ZM143.65,12a4.14,4.14,0,0,1-.19-.49,3,3,0,0,1-.12-.52,3.64,3.64,0,0,1-1.14.87,3.37,3.37,0,0,1-1.52.33,3.18,3.18,0,0,1-2.25-.77,2.73,2.73,0,0,1-.84-2.11,2.37,2.37,0,0,1,1.09-2.09,5.65,5.65,0,0,1,3.2-.75h1.33V5.48a1.43,1.43,0,0,0-.4-1.09A1.7,1.7,0,0,0,141.62,4a3.24,3.24,0,0,0-.8.1,2.09,2.09,0,0,0-.56.25l-.17,1h-2V3.25a7.29,7.29,0,0,1,1.63-.81,6,6,0,0,1,2-.33A4.53,4.53,0,0,1,144.7,3a3,3,0,0,1,1.13,2.5V9.91c0,.13,0,.25,0,.37l.8.11V12Zm-2.26-1.74a2.25,2.25,0,0,0,1.07-.25,2.16,2.16,0,0,0,.75-.64V7.84h-1.33a1.81,1.81,0,0,0-1.26.39,1.21,1.21,0,0,0-.43.94,1,1,0,0,0,.32.76,1.26,1.26,0,0,0,.88.28"/><path class="b947c36c-1627-41a5-82cf-49fe2091bf31" d="M36.74,18.86v-.58h1.39l0,.41a1.12,1.12,0,0,1,.37-.35,1.08,1.08,0,0,1,.52-.12,1.19,1.19,0,0,1,1,.51,2.29,2.29,0,0,1,.36,1.35v.07a2.06,2.06,0,0,1-.36,1.27,1.22,1.22,0,0,1-1,.47,1.1,1.1,0,0,1-.49-.1,1,1,0,0,1-.37-.3v1l.46.1v.58H36.79v-.58l.46-.1V19Zm2.75,1.22a1.74,1.74,0,0,0-.16-.81.54.54,0,0,0-.51-.31.7.7,0,0,0-.37.09.64.64,0,0,0-.24.25v1.55a.59.59,0,0,0,.24.23.84.84,0,0,0,.37.08.55.55,0,0,0,.51-.27,1.43,1.43,0,0,0,.16-.74ZM40.88,20a1.88,1.88,0,0,1,.44-1.3,1.76,1.76,0,0,1,2.46,0,1.93,1.93,0,0,1,.44,1.3v.07a1.91,1.91,0,0,1-.44,1.3,1.76,1.76,0,0,1-2.46,0,1.86,1.86,0,0,1-.44-1.3Zm.95.07a1.61,1.61,0,0,0,.17.78.61.61,0,0,0,.55.29.58.58,0,0,0,.54-.29,1.5,1.5,0,0,0,.18-.78V20a1.49,1.49,0,0,0-.18-.77.58.58,0,0,0-.54-.3.59.59,0,0,0-.55.3,1.6,1.6,0,0,0-.17.77Zm4.64-1.61a1.49,1.49,0,0,1,1.17.46,1.7,1.7,0,0,1,.42,1.19v.07a1.72,1.72,0,0,1-.44,1.22,1.83,1.83,0,0,1-2.46,0,1.76,1.76,0,0,1-.44-1.23v-.46a3.05,3.05,0,0,1,.45-1.79,1.87,1.87,0,0,1,1.19-.78,1.66,1.66,0,0,0,.47-.14.3.3,0,0,0,.15-.28h.74v0a.94.94,0,0,1-.29.84,2.77,2.77,0,0,1-1,.32,1,1,0,0,0-.59.29,1.23,1.23,0,0,0-.28.63h0a1.49,1.49,0,0,1,.42-.26,1.24,1.24,0,0,1,.5-.1m-.08.74a.59.59,0,0,0-.54.25,1.12,1.12,0,0,0-.17.66v.05a1.27,1.27,0,0,0,.17.71.58.58,0,0,0,.54.27.6.6,0,0,0,.54-.26,1.23,1.23,0,0,0,.18-.7v-.07a1.12,1.12,0,0,0-.18-.66.59.59,0,0,0-.54-.25m2.08.8a1.89,1.89,0,0,1,.45-1.3,1.55,1.55,0,0,1,1.22-.5,1.57,1.57,0,0,1,1.23.5,1.88,1.88,0,0,1,.44,1.3v.07a1.86,1.86,0,0,1-.44,1.3,1.75,1.75,0,0,1-2.45,0,1.87,1.87,0,0,1-.45-1.3Zm1,.07a1.5,1.5,0,0,0,.17.78.66.66,0,0,0,1.09,0,1.61,1.61,0,0,0,.17-.78V20a1.6,1.6,0,0,0-.17-.77.59.59,0,0,0-.55-.3.57.57,0,0,0-.54.3,1.49,1.49,0,0,0-.17.77Zm6.37-1.81v1.21h-.73L55,19h-.6v2.14l.5.1v.57H53v-.57l.51-.1V19h-.6l0,.48H52.1V18.28Zm2.4,0v.58l-.46.1v1.47h0l1.15-2.16h1.47v.58l-.51.1v2.19l.51.1v.57H58.45v-.57l.46-.1V19.67h0l-1.15,2.15H56.27v-.57l.51-.1V19l-.51-.1v-.58H58.2Zm4.17,1.43a.53.53,0,0,0,.36-.1.4.4,0,0,0,.11-.29.44.44,0,0,0-.11-.29.46.46,0,0,0-.36-.12A.6.6,0,0,0,62,19a.31.31,0,0,0-.14.28h-.93v0a.87.87,0,0,1,.39-.77,1.72,1.72,0,0,1,1-.29,1.88,1.88,0,0,1,1.08.27.87.87,0,0,1,.39.76.77.77,0,0,1-.14.44,1,1,0,0,1-.4.31,1,1,0,0,1,.45.31.85.85,0,0,1,.15.51.91.91,0,0,1-.42.79,1.94,1.94,0,0,1-1.11.28,1.86,1.86,0,0,1-1-.28.87.87,0,0,1-.41-.81v0h.93a.37.37,0,0,0,.15.3.67.67,0,0,0,.43.12.53.53,0,0,0,.39-.13.46.46,0,0,0,0-.64.58.58,0,0,0-.4-.11h-.51v-.61Zm4.2,2.11a1.71,1.71,0,0,1-.07-.18,1.16,1.16,0,0,1,0-.18,1.31,1.31,0,0,1-.42.31,1.25,1.25,0,0,1-.56.12,1.15,1.15,0,0,1-.82-.28,1,1,0,0,1-.31-.77.89.89,0,0,1,.4-.77,2.11,2.11,0,0,1,1.17-.27h.49v-.35a.54.54,0,0,0-.15-.4.6.6,0,0,0-.43-.14,1.19,1.19,0,0,0-.29,0l-.21.09-.06.38h-.72v-.78a2.8,2.8,0,0,1,.6-.3,2.21,2.21,0,0,1,.74-.12,1.64,1.64,0,0,1,1.07.32,1.1,1.1,0,0,1,.41.92v1.61c0,.05,0,.1,0,.14l.29,0v.57Zm-.83-.63a.88.88,0,0,0,.4-.1.77.77,0,0,0,.27-.23v-.54h-.49a.7.7,0,0,0-.46.14.47.47,0,0,0-.16.34.37.37,0,0,0,.12.29.53.53,0,0,0,.32.1m5.81-2.91v2.81h.54L72,22.87h-.89V21.82H68v-.57l.51-.1V19l-.51-.1v-.58h1.9v.58l-.44.1v2.13h1.17V19l-.43-.1v-.58h1.39Zm.51,0v.58l-.51.1v-.68Zm2.48,0v.58l-.46.1v1.47h0l1.15-2.16h1.46v.58l-.5.1v2.19l.5.1v.57H74.79v-.57l.46-.1V19.67h0l-1.15,2.15H72.61v-.57l.51-.1V19l-.51-.1v-.58h1.93Zm4.58,3,.46-.1v-.57H79l-.69,1.24h-1v-.57l.43-.06.43-.76a1.25,1.25,0,0,1-.5-.4,1,1,0,0,1-.17-.57,1,1,0,0,1,.41-.85A1.71,1.71,0,0,1,79,18.28h2.07v.58l-.51.1v2.19l.51.1v.57H79.12Zm-.71-1.77a.41.41,0,0,0,.15.32.54.54,0,0,0,.4.14h.62V19H79a.57.57,0,0,0-.42.15.42.42,0,0,0-.15.32m6.71-1.2v.58l-.46.1v1.47h0l1.15-2.16h1.46v.58l-.5.1v2.19l.5.1v.57H85.37v-.57l.46-.1V19.67h0l-1.15,2.15H83.19v-.57l.51-.1V19l-.51-.1v-.58h1.93Zm6.54,3.54a.75.75,0,0,1-.07-.18,1.21,1.21,0,0,1,0-.18,1.27,1.27,0,0,1-.41.31,1.25,1.25,0,0,1-.56.12,1.13,1.13,0,0,1-.82-.28,1,1,0,0,1-.31-.77.87.87,0,0,1,.4-.77A2.11,2.11,0,0,1,91,19.8h.49v-.35a.54.54,0,0,0-.15-.4.62.62,0,0,0-.43-.14,1.36,1.36,0,0,0-.3,0l-.2.09-.06.38h-.72v-.78a2.4,2.4,0,0,1,.6-.3,2.21,2.21,0,0,1,.74-.12,1.66,1.66,0,0,1,1.07.32,1.1,1.1,0,0,1,.41.92v1.61a.61.61,0,0,0,0,.14l.29,0v.57Zm-.83-.63a.88.88,0,0,0,.67-.33v-.54H91a.68.68,0,0,0-.46.14.44.44,0,0,0-.16.34.37.37,0,0,0,.12.29.51.51,0,0,0,.32.1m4.34-2.91a2.11,2.11,0,0,1,1.1.25.82.82,0,0,1,.39.74.65.65,0,0,1-.16.44A1.06,1.06,0,0,1,96,20a1.13,1.13,0,0,1,.61.29.73.73,0,0,1,.21.51.86.86,0,0,1-.38.76,1.9,1.9,0,0,1-1.07.25H93.18v-.57l.51-.1V19l-.51-.1v-.58h2Zm-.53,2.07v.75h.76a.55.55,0,0,0,.37-.1.32.32,0,0,0,.12-.27.34.34,0,0,0-.12-.28.53.53,0,0,0-.37-.1Zm0-.62h.58a.8.8,0,0,0,.37-.09.3.3,0,0,0,.12-.26.32.32,0,0,0-.14-.28.7.7,0,0,0-.4-.09h-.53Zm6.27-1.45v1.21h-.73l0-.48h-.6v2.14l.5.1v.57h-2v-.57l.51-.1V19H98l0,.48h-.73V18.28Zm.3,1.74a1.89,1.89,0,0,1,.45-1.3,1.75,1.75,0,0,1,2.45,0,1.89,1.89,0,0,1,.45,1.3v.07a1.87,1.87,0,0,1-.45,1.3,1.75,1.75,0,0,1-2.45,0,1.87,1.87,0,0,1-.45-1.3Zm1,.07a1.61,1.61,0,0,0,.17.78.6.6,0,0,0,.55.29.58.58,0,0,0,.54-.29,1.5,1.5,0,0,0,.17-.78V20a1.6,1.6,0,0,0-.17-.77.59.59,0,0,0-.55-.3.57.57,0,0,0-.54.3,1.6,1.6,0,0,0-.17.77Zm5.49.62h0l.91-2.43h1.7v.58l-.5.1v2.19l.5.1v.57h-1.82v-.57l.36-.1V19.72h0L108,21.82h-.64l-.8-2.07h0v1.4l.36.1v.57h-1.83v-.57l.51-.1V19l-.51-.1v-.58h1.69ZM113,21.82a1.71,1.71,0,0,1-.07-.18,1.16,1.16,0,0,1,0-.18,1.43,1.43,0,0,1-.42.31,1.25,1.25,0,0,1-.56.12,1.15,1.15,0,0,1-.82-.28,1,1,0,0,1-.31-.77.89.89,0,0,1,.4-.77,2.11,2.11,0,0,1,1.17-.27h.49v-.35a.54.54,0,0,0-.15-.4.6.6,0,0,0-.43-.14,1.19,1.19,0,0,0-.29,0l-.21.09-.06.38H111v-.78a2.8,2.8,0,0,1,.6-.3,2.21,2.21,0,0,1,.74-.12,1.66,1.66,0,0,1,1.07.32,1.1,1.1,0,0,1,.41.92v1.61c0,.05,0,.1,0,.14l.29,0v.57Zm-.83-.63a.88.88,0,0,0,.4-.1.77.77,0,0,0,.27-.23v-.54h-.49a.7.7,0,0,0-.46.14.47.47,0,0,0-.16.34.37.37,0,0,0,.12.29.53.53,0,0,0,.32.1m5.88-2.91v1.21h-.73l0-.48h-.61v2.14l.51.1v.57h-2v-.57l.51-.1V19h-.59l0,.48h-.73V18.28Zm2.39,0v.58L120,19v1.47h0l1.16-2.16h1.46v.58l-.51.1v2.19l.51.1v.57H120.7v-.57l.46-.1V19.67h0L120,21.82h-1.47v-.57l.51-.1V19l-.51-.1v-.58h1.92Zm4.17,1.43a.53.53,0,0,0,.36-.1.37.37,0,0,0,.12-.29A.44.44,0,0,0,125,19a.49.49,0,0,0-.36-.12.63.63,0,0,0-.38.11.34.34,0,0,0-.14.28h-.93v0a.84.84,0,0,1,.38-.77,1.73,1.73,0,0,1,1-.29,1.86,1.86,0,0,1,1.07.27.85.85,0,0,1,.4.76.71.71,0,0,1-.15.44.9.9,0,0,1-.4.31,1,1,0,0,1,.45.31.8.8,0,0,1,.16.51.91.91,0,0,1-.42.79,2,2,0,0,1-1.11.28,1.84,1.84,0,0,1-1-.28.88.88,0,0,1-.42-.81v0H124a.37.37,0,0,0,.15.3.71.71,0,0,0,.43.12.54.54,0,0,0,.4-.13.46.46,0,0,0,0-.64.61.61,0,0,0-.41-.11h-.51v-.61Zm4.21,2.11a.75.75,0,0,1-.07-.18,1.21,1.21,0,0,1-.05-.18,1.26,1.26,0,0,1-1,.43,1.18,1.18,0,0,1-.83-.28,1,1,0,0,1-.3-.77.87.87,0,0,1,.4-.77,2.06,2.06,0,0,1,1.17-.27h.49v-.35a.54.54,0,0,0-.15-.4.63.63,0,0,0-.44-.14,1.27,1.27,0,0,0-.29,0l-.2.09-.07.38h-.72v-.78a2.4,2.4,0,0,1,.6-.3,2.17,2.17,0,0,1,.74-.12,1.63,1.63,0,0,1,1.06.32,1.08,1.08,0,0,1,.42.92v1.61a.61.61,0,0,0,0,.14l.29,0v.57Zm-.83-.63a.87.87,0,0,0,.39-.1.81.81,0,0,0,.28-.23v-.54h-.49a.67.67,0,0,0-.46.14.44.44,0,0,0-.16.34.37.37,0,0,0,.12.29.49.49,0,0,0,.32.1m5.81-2.91v2.81h.53l-.07,1.78h-.88V21.82H130.2v-.57l.51-.1V19l-.51-.1v-.58h1.9v.58l-.44.1v2.13h1.18V19l-.44-.1v-.58h1.4Zm.5,0v.58l-.5.1v-.68Zm2.48,0v.58l-.46.1v1.47h0l1.15-2.16H139v.58l-.51.1v2.19l.51.1v.57H137v-.57l.45-.1V19.67h0l-1.16,2.15h-1.46v-.57l.51-.1V19l-.51-.1v-.58h1.92Zm4.59,3,.46-.1v-.57h-.58l-.69,1.24h-1v-.57l.43-.06.43-.76a1.13,1.13,0,0,1-.5-.4,1,1,0,0,1-.18-.57,1,1,0,0,1,.42-.85,1.7,1.7,0,0,1,1.1-.33h2.07v.58l-.51.1v2.19l.51.1v.57h-1.92Zm-.71-1.77a.43.43,0,0,0,.14.32.56.56,0,0,0,.4.14h.63V19h-.61a.57.57,0,0,0-.42.15.45.45,0,0,0-.14.32"/><rect class="b947c36c-1627-41a5-82cf-49fe2091bf31" x="33.97" y="14.95" width="112.53" height="0.75"/><path class="bafb4900-bf36-429a-a696-3b3cce9cc22d" d="M18.62,0A10.92,10.92,0,0,1,25.8,2.68l-2.6,2.6a7.22,7.22,0,0,0-4.58-1.62,7.31,7.31,0,0,0-5.7,11.9l-2.6,2.6A11,11,0,0,1,18.62,0M29.9,19.3l-2.19-2.19a11,11,0,0,0-.8-13.32l-2.6,2.59A7.31,7.31,0,0,1,14,16.67l-2.6,2.59a11,11,0,0,0,13.33.81L27,22.26a1.34,1.34,0,0,0,1.89,0L29.9,21.2a1.33,1.33,0,0,0,0-1.9"/><path class="f1198012-dcd3-4d19-a2e5-7e0cfcbf6e9d" d="M18.62,5.22A5.75,5.75,0,1,1,12.87,11a5.75,5.75,0,0,1,5.75-5.75"/><path class="bafb4900-bf36-429a-a696-3b3cce9cc22d" d="M1.71,18.26V3.93H1.19A1.19,1.19,0,0,1,0,2.74V1.41A1.19,1.19,0,0,1,1.19.22H6.08A1.19,1.19,0,0,1,7.27,1.41V2.74A1.19,1.19,0,0,1,6.08,3.93H5.56V18.26h.52a1.2,1.2,0,0,1,1.19,1.19v1.34A1.2,1.2,0,0,1,6.08,22H1.19A1.2,1.2,0,0,1,0,20.79V19.45a1.2,1.2,0,0,1,1.19-1.19Z"/></g></g></svg>