<svg xmlns="http://www.w3.org/2000/svg" viewBox="0 0 127.54 47.39"><defs><style>.bb353fdd-ed06-4279-8119-54b77b41c7f2{fill:#a5a5a5;}</style></defs><title>11</title><g id="a41bab5f-2829-463a-a04b-88d37c6e8e98" data-name="Слой 2"><g id="ebbbb5e2-783a-419f-9b85-542fdf972416" data-name="Слой 1"><path class="bb353fdd-ed06-4279-8119-54b77b41c7f2" d="M104.21,9.45H101L97.2,32.7h3.29l.39-2.36h3.44l.39,2.36H108Zm-2.79,17.6,1.18-7.23,1.18,7.23Z"/><polygon class="bb353fdd-ed06-4279-8119-54b77b41c7f2" points="108.44 9.45 111.72 9.45 115.02 9.45 118.3 9.45 118.3 12.75 115.02 12.75 115.02 37.82 111.72 37.82 111.72 12.75 108.44 12.75 108.44 9.45"/><rect class="bb353fdd-ed06-4279-8119-54b77b41c7f2" x="97.05" y="34.53" width="11.03" height="3.29"/><polygon class="bb353fdd-ed06-4279-8119-54b77b41c7f2" points="82.07 9.45 85.34 9.45 85.36 9.45 85.36 9.53 89.9 25.94 89.9 9.45 93.2 9.45 93.2 37.82 93.2 37.82 93.2 37.82 89.9 37.82 85.36 21.41 85.36 37.82 82.07 37.82 82.07 9.53 82.05 9.45 82.07 9.45"/><rect class="bb353fdd-ed06-4279-8119-54b77b41c7f2" x="74.58" y="9.45" width="3.29" height="28.37"/><polygon class="bb353fdd-ed06-4279-8119-54b77b41c7f2" points="39.55 9.45 42.84 9.45 42.84 9.46 43.56 9.46 47.85 29.1 52.14 9.46 52.87 9.46 52.87 9.45 56.16 9.45 56.16 37.82 52.87 37.82 52.87 21.2 49.24 37.82 48.72 37.82 47.12 37.82 46.46 37.82 42.84 21.2 42.84 37.82 39.55 37.82 39.55 9.45"/><rect class="bb353fdd-ed06-4279-8119-54b77b41c7f2" x="24.25" y="34.53" width="11.03" height="3.29"/><polygon class="bb353fdd-ed06-4279-8119-54b77b41c7f2" points="9.24 9.45 12.54 9.45 12.54 18.13 17.96 9.45 21.67 9.45 14.57 20.81 21.56 37.94 17.85 37.94 12.54 24.96 12.54 37.82 9.24 37.82 9.24 9.45"/><path class="bb353fdd-ed06-4279-8119-54b77b41c7f2" d="M118.75,0H0V47.39H127.54V0Zm5.87,44.46H2.93V2.93H124.62Z"/><polygon class="bb353fdd-ed06-4279-8119-54b77b41c7f2" points="12.54 24.96 17.85 37.94 21.56 37.94 14.57 20.81 21.67 9.45 17.96 9.45 12.54 18.13 12.54 9.45 9.24 9.45 9.24 37.82 12.54 37.82 12.54 24.96"/><polygon class="bb353fdd-ed06-4279-8119-54b77b41c7f2" points="42.84 21.2 46.46 37.82 47.12 37.82 48.72 37.82 49.24 37.82 52.87 21.2 52.87 37.82 56.16 37.82 56.16 9.45 52.87 9.45 52.87 9.46 52.14 9.46 47.85 29.1 43.56 9.46 42.84 9.46 42.84 9.45 39.55 9.45 39.55 37.82 42.84 37.82 42.84 21.2"/><path class="bb353fdd-ed06-4279-8119-54b77b41c7f2" d="M68.86,23a5.67,5.67,0,0,0,1.45-3.79V14.79A5.33,5.33,0,0,0,65,9.45H59.66V37.82H65.4a5.33,5.33,0,0,0,5.33-5.33V27.26A5.69,5.69,0,0,0,68.86,23ZM63,12.8h2a2,2,0,0,1,2,2v4.46a2.37,2.37,0,0,1-1.84,2.3H63Zm4.44,19.68a2,2,0,0,1-2,2H63V25H64.6a5.52,5.52,0,0,0,.71-.05,2.37,2.37,0,0,1,2.08,2.35Z"/><rect class="bb353fdd-ed06-4279-8119-54b77b41c7f2" x="74.58" y="9.45" width="3.29" height="28.37"/><rect class="bb353fdd-ed06-4279-8119-54b77b41c7f2" x="97.05" y="34.53" width="11.03" height="3.29"/><rect class="bb353fdd-ed06-4279-8119-54b77b41c7f2" x="24.25" y="34.53" width="11.03" height="3.29"/><polygon class="bb353fdd-ed06-4279-8119-54b77b41c7f2" points="111.72 37.82 115.02 37.82 115.02 12.75 118.3 12.75 118.3 9.45 115.02 9.45 111.72 9.45 108.44 9.45 108.44 12.75 111.72 12.75 111.72 37.82"/><polygon class="bb353fdd-ed06-4279-8119-54b77b41c7f2" points="82.07 37.82 85.36 37.82 85.36 21.41 89.9 37.82 93.2 37.82 93.2 37.82 93.2 37.82 93.2 9.45 89.9 9.45 89.9 25.94 85.36 9.53 85.36 9.45 85.34 9.45 82.07 9.45 82.05 9.45 82.07 9.53 82.07 37.82"/><path class="bb353fdd-ed06-4279-8119-54b77b41c7f2" d="M30.35,9.45h-1a4.91,4.91,0,0,0-4.91,4.92V28a4.91,4.91,0,0,0,4.91,4.91h1A4.91,4.91,0,0,0,35.26,28V14.37A4.91,4.91,0,0,0,30.35,9.45ZM31.92,28a1.58,1.58,0,0,1-1.57,1.57h-1A1.57,1.57,0,0,1,27.79,28V14.37a1.57,1.57,0,0,1,1.57-1.57h1a1.57,1.57,0,0,1,1.57,1.57Z"/></g></g></svg>