<svg xmlns="http://www.w3.org/2000/svg" viewBox="0 0 159.3 39.18"><defs><style>.b9f015d8-a951-49a0-bd5e-c0168e152d87{fill:#191919;}.f2619cd7-e729-40a6-ae28-8e1921cbee51{fill:#f26522;}</style></defs><title>14</title><g id="f3f2a143-fa4a-482e-bdfd-9fdf9fcfea8a" data-name="Слой 2"><g id="a9928d0d-19a3-4e49-a645-38987f5eb1a5" data-name="Слой 1"><path class="b9f015d8-a951-49a0-bd5e-c0168e152d87" d="M46.76,22.52v.28a.59.59,0,0,0,.6.65,5.13,5.13,0,0,0,1,0,.58.58,0,0,0,.57-.6c0-.33,0-.67,0-1H47.13v-.67h1.75c0-.4,0-.77,0-1.14a.51.51,0,0,0-.49-.49,6,6,0,0,0-1,0,.55.55,0,0,0-.54.63c0,.12,0,.24,0,.36-.56.08-.72-.06-.69-.58a1,1,0,0,1,.93-1,6.28,6.28,0,0,1,1.5,0,1.15,1.15,0,0,1,1.08,1.25c0,.85,0,1.69,0,2.53a1.21,1.21,0,0,1-1.21,1.4A6.22,6.22,0,0,1,47,24a1,1,0,0,1-.9-.82C46,22.67,46.16,22.45,46.76,22.52Z"/><path class="f2619cd7-e729-40a6-ae28-8e1921cbee51" d="M53,13.19H48.87a2.63,2.63,0,0,1-2.64-2.63c0-2,0-3.89,0-5.84a2.78,2.78,0,0,1,2.54-2.65c1,0,2,0,3,0,1.82,0,3.64,0,5.45,0a2.49,2.49,0,0,1,2.35,2.17,6.43,6.43,0,0,1,0,1.58,1.19,1.19,0,0,1-1.37,1,1.23,1.23,0,0,1-1.1-1.17c0-.25,0-.51,0-.76s-.1-.32-.34-.32q-3.81,0-7.61,0c-.25,0-.36.1-.36.34v5.5a.3.3,0,0,0,.35.35h7.62a.3.3,0,0,0,.34-.32c0-.24,0-.47,0-.71a1.26,1.26,0,0,1,2.52,0,4.5,4.5,0,0,1-.13,1.75,2.56,2.56,0,0,1-2.43,1.8Z"/><path class="f2619cd7-e729-40a6-ae28-8e1921cbee51" d="M119.64,9.25l.94-.78,7-6a1.59,1.59,0,0,1,1.22-.46A1.3,1.3,0,0,1,130,3.28c0,2.89,0,5.79,0,8.68a1.29,1.29,0,0,1-1.3,1.23A1.24,1.24,0,0,1,127.4,12V6a1.63,1.63,0,0,0-.24.16l-7.61,6.46a1.81,1.81,0,0,1-1.23.6A1.26,1.26,0,0,1,117.07,12c0-1.37,0-2.73,0-4.1s0-3,0-4.56A1.28,1.28,0,0,1,118,2.08a1.24,1.24,0,0,1,1.42.51,2,2,0,0,1,.23.89c0,1.8,0,3.6,0,5.39Z"/><path class="f2619cd7-e729-40a6-ae28-8e1921cbee51" d="M99.39,6l-1.08.91c-2.32,2-4.66,3.94-7,5.93a1.31,1.31,0,0,1-2.14-.35,1.55,1.55,0,0,1-.13-.63q0-4.19,0-8.37A1.36,1.36,0,0,1,90,2.08a1.23,1.23,0,0,1,1.41.52,1.56,1.56,0,0,1,.22.76c0,1.83,0,3.65,0,5.48v.4l.27-.2L98,3.85,99.74,2.4a1.34,1.34,0,0,1,1.48-.25A1.25,1.25,0,0,1,102,3.41v7.88c0,.23,0,.46,0,.7a1.25,1.25,0,0,1-1.36,1.2,1.22,1.22,0,0,1-1.18-1.25c0-1.86,0-3.72,0-5.58C99.42,6.24,99.4,6.13,99.39,6Z"/><path class="f2619cd7-e729-40a6-ae28-8e1921cbee51" d="M63.93,9.25l1.72-1.46L72,2.41a1.32,1.32,0,0,1,2.14.41,1.78,1.78,0,0,1,.12.65q0,4.15,0,8.29a1.32,1.32,0,0,1-1.71,1.37A1.26,1.26,0,0,1,71.68,12V6a3.27,3.27,0,0,0-.28.19l-7.85,6.66a1.31,1.31,0,0,1-2.15-.51,1.82,1.82,0,0,1-.06-.46V3.4a1.28,1.28,0,0,1,.72-1.23,1.22,1.22,0,0,1,1.31.1,1.27,1.27,0,0,1,.53,1.1c0,1.16,0,2.32,0,3.47v2A3.15,3.15,0,0,0,63.93,9.25Z"/><path class="f2619cd7-e729-40a6-ae28-8e1921cbee51" d="M134.56,8.9v1.3c0,.57,0,1.15,0,1.72a1.33,1.33,0,0,1-1.11,1.26,1.28,1.28,0,0,1-1.41-.86,1.3,1.3,0,0,1-.06-.44q0-4.26,0-8.53A1.25,1.25,0,0,1,133.26,2a1.31,1.31,0,0,1,1.3,1.32q0,1.38,0,2.76c0,.23.05.32.3.32q3.51,0,7,0c.23,0,.29-.07.29-.3,0-.91,0-1.83,0-2.74A1.29,1.29,0,0,1,143.47,2a1.28,1.28,0,0,1,1.27,1.36v8.45a1.27,1.27,0,0,1-1.26,1.34,1.29,1.29,0,0,1-1.31-1.35c0-.89,0-1.78,0-2.66,0-.23-.06-.31-.29-.31h-7Z"/><path class="f2619cd7-e729-40a6-ae28-8e1921cbee51" d="M109.63,5.69,108.26,8l-2.71,4.52a1.38,1.38,0,0,1-1.48.67,1.22,1.22,0,0,1-.72-1.85c.7-1.18,1.42-2.37,2.13-3.55,1-1.66,2-3.32,3-5a1.32,1.32,0,0,1,1.38-.72,1.15,1.15,0,0,1,.92.6l5.17,8.57a1.27,1.27,0,0,1-.75,1.94,1.31,1.31,0,0,1-1.44-.64l-1.58-2.64L109.83,6Z"/><path class="f2619cd7-e729-40a6-ae28-8e1921cbee51" d="M81.72,2h4.93a1.24,1.24,0,0,1,1.29,1,1.19,1.19,0,0,1-1,1.38,3,3,0,0,1-.6,0q-1.5,0-3,0c-.24,0-.3.08-.3.31,0,2.36,0,4.71,0,7.07a1.29,1.29,0,0,1-2.55.29,1.78,1.78,0,0,1,0-.46V4.87c0-.35,0-.35-.34-.35-1.06,0-2.12,0-3.18,0a2.32,2.32,0,0,1-.7-.1,1.14,1.14,0,0,1-.78-1.33,1.22,1.22,0,0,1,1.11-1c1.08,0,2.15,0,3.23,0Z"/><path class="f2619cd7-e729-40a6-ae28-8e1921cbee51" d="M153.66,7.63l2,1.26,3.1,2a1.22,1.22,0,0,1,.57,1.3,1.08,1.08,0,0,1-.86.94,1.35,1.35,0,0,1-1.16-.22L152,9.54l-1.27-.82a1.3,1.3,0,0,1,0-2.19l6.56-4.24a1.42,1.42,0,0,1,1.2-.2,1.06,1.06,0,0,1,.8.93,1.21,1.21,0,0,1-.54,1.29l-2.27,1.48-2.56,1.66Z"/><path class="f2619cd7-e729-40a6-ae28-8e1921cbee51" d="M149.38,7.65V11.9a1.26,1.26,0,0,1-1.25,1.29,1.29,1.29,0,0,1-1.32-1.29V3.35A1.3,1.3,0,0,1,148.12,2a1.26,1.26,0,0,1,1.26,1.31Z"/><path class="b9f015d8-a951-49a0-bd5e-c0168e152d87" d="M108.59,23.49a14.35,14.35,0,0,1,.76-3.76,1,1,0,0,1,1.11-.87h.73c.34,0,.45.11.45.46v4.12s0,0,.07,0c.58,0,.64.11.64.69v.08c0,.58-.06.64-.69.57V24.1h-3.13v.75c-.14,0-.25,0-.37,0a.28.28,0,0,1-.32-.29,3.86,3.86,0,0,1,0-.68c0-.25.16-.37.41-.39Zm2.34-4h-.23c-.56,0-.62,0-.75.6-.2.77-.41,1.54-.57,2.32a6.58,6.58,0,0,0-.07,1.09h1.62Z"/><path class="b9f015d8-a951-49a0-bd5e-c0168e152d87" d="M100.8,22.7c.06-.1.11-.16.15-.24.64-1.12,1.29-2.24,1.94-3.35a.58.58,0,0,1,.32-.26c.29-.07.43.06.43.35v4.31c0,.48-.18.62-.69.54V20.26a2.06,2.06,0,0,0-.13.21c-.65,1.09-1.29,2.18-1.93,3.28,0,.08-.09.19-.16.23a.59.59,0,0,1-.37.1c-.11,0-.2-.18-.24-.3a1.07,1.07,0,0,1,0-.36V19.48c0-.57.1-.66.69-.62Z"/><path class="b9f015d8-a951-49a0-bd5e-c0168e152d87" d="M114.66,18.86v3.83l.18-.29c.63-1.1,1.26-2.2,1.9-3.29a.57.57,0,0,1,.27-.26c.29-.1.47,0,.47.35v4.31c0,.49-.15.62-.67.54V20.24l-.14.22c-.66,1.13-1.31,2.25-2,3.37a.61.61,0,0,1-.35.26.28.28,0,0,1-.36-.3c0-1.52,0-3,0-4.56C114,18.91,114.16,18.82,114.66,18.86Z"/><path class="b9f015d8-a951-49a0-bd5e-c0168e152d87" d="M79.81,21.48v1.3a1.24,1.24,0,0,1-1.23,1.32,6.25,6.25,0,0,1-1.06,0A1.2,1.2,0,0,1,76.36,23a4.92,4.92,0,0,1,0-.67V20.21a1.21,1.21,0,0,1,1.09-1.33,4.51,4.51,0,0,1,1.42,0,1.16,1.16,0,0,1,1,1.2v1.38Zm-.72,0c0-.46,0-.91,0-1.36a.61.61,0,0,0-.64-.64h-.73a.64.64,0,0,0-.66.64c0,.88,0,1.77,0,2.65a.68.68,0,0,0,.75.72h.55c.5,0,.73-.23.74-.74Z"/><path class="b9f015d8-a951-49a0-bd5e-c0168e152d87" d="M90.55,21.08V18.86h.32c.3,0,.39.1.39.4v4.25c0,.54-.13.64-.7.54V21.77H88.47v2.3h-.28c-.34,0-.43-.1-.43-.44V19.31c0-.36.09-.44.44-.45l.26,0v2.2Z"/><path class="b9f015d8-a951-49a0-bd5e-c0168e152d87" d="M141.11,24.08h-.31c-.31,0-.41-.11-.42-.43v-4.2c0-.55.14-.66.73-.55v2.19h2.07V18.86h.32c.31,0,.39.1.4.42V23.5c0,.55-.13.64-.7.55V21.77h-2.09Z"/><path class="b9f015d8-a951-49a0-bd5e-c0168e152d87" d="M82.74,18.9v2.19h2.07V18.92c.53-.17.73,0,.73.49V23.5c0,.54-.13.64-.71.55V21.76H82.74v2.32h-.33c-.28,0-.38-.11-.38-.39s0-.83,0-1.25v-3C82,18.9,82.15,18.8,82.74,18.9Z"/><path class="b9f015d8-a951-49a0-bd5e-c0168e152d87" d="M57.66,23.43h2.4c.11.5,0,.65-.49.65H57.41c-.39,0-.48-.09-.48-.48V19.51c0-.52.14-.65.65-.65h2c.48,0,.59.13.49.64h-2.4v1.6h2.07v.65H57.66Z"/><path class="b9f015d8-a951-49a0-bd5e-c0168e152d87" d="M151.53,19.5v1.42s0,.1,0,.18h2.07v.64h-2.06v1.69h2.39c.11.48,0,.65-.46.65h-2.2c-.38,0-.47-.09-.47-.48V19.51c0-.52.13-.65.65-.65h2c.46,0,.57.14.48.64Z"/><path class="b9f015d8-a951-49a0-bd5e-c0168e152d87" d="M127.11,21.33l.52.33a1.31,1.31,0,0,1,.59,1.13v1.29h-.31c-.3,0-.39-.11-.39-.4a5.92,5.92,0,0,0,0-.94,1,1,0,0,0-.29-.55,1.46,1.46,0,0,0-1.41-.39v2.27a2.8,2.8,0,0,1-.41,0c-.27,0-.31-.23-.31-.45V19.44c0-.51.16-.63.71-.55v2.2c.54.14.67.09.93-.34s.39-.62.57-.94a.78.78,0,0,0,.1-.36c0-.55.15-.66.71-.55a1.89,1.89,0,0,1-.28,1.38C127.55,20.6,127.35,21,127.11,21.33Z"/><path class="b9f015d8-a951-49a0-bd5e-c0168e152d87" d="M132.78,24.07c0-.36,0-.7-.07-1,0-.18-.12-.25-.32-.24-.46,0-.92,0-1.38,0-.19,0-.28.06-.29.23s0,.4-.05.6v.46h-.36a.32.32,0,0,1-.34-.34,3.1,3.1,0,0,1,.17-1.28c.41-1.09.78-2.19,1.17-3.28.07-.2.15-.38.4-.38s.33.17.4.37c.43,1.2.88,2.4,1.27,3.61a3.06,3.06,0,0,1,.06,1c0,.08-.16.2-.27.23A1.25,1.25,0,0,1,132.78,24.07Zm-.35-1.93L131.74,20h-.06L131,22.14Z"/><path class="b9f015d8-a951-49a0-bd5e-c0168e152d87" d="M62.71,21.11l.06,0a.74.74,0,0,0,.93-.47c.13-.3.34-.55.49-.83a.93.93,0,0,0,.12-.39c0-.54.1-.62.7-.56a2,2,0,0,1-.21,1.29c-.26.36-.49.76-.75,1.16.12.08.24.16.37.23a1.38,1.38,0,0,1,.74,1.28c0,.4,0,.8,0,1.24h-.4a.31.31,0,0,1-.31-.34c0-.24,0-.49,0-.73a1,1,0,0,0-.57-1,1.69,1.69,0,0,0-1.17-.22v2.29H62.3a.29.29,0,0,1-.29-.33V19.28c0-.36.22-.48.7-.38Z"/><path class="b9f015d8-a951-49a0-bd5e-c0168e152d87" d="M54,24.05V19.51a2.43,2.43,0,0,0-.61,0,.51.51,0,0,0-.32.29c-.31.95-.63,1.91-.88,2.88a7.66,7.66,0,0,0-.1,1.38h-.27c-.32,0-.39-.09-.41-.4A4.25,4.25,0,0,1,51.67,22c.27-.77.5-1.56.75-2.33a.93.93,0,0,1,1-.76h.89c.26,0,.36.1.36.36,0,1.48,0,3,0,4.43C54.71,24,54.53,24.14,54,24.05Z"/><path class="b9f015d8-a951-49a0-bd5e-c0168e152d87" d="M156.75,22.08v2c-.54.14-.72,0-.72-.52V19.58c0-.56.16-.72.71-.72s.92,0,1.38,0a1,1,0,0,1,1,1.08v.79A1.22,1.22,0,0,1,158,22.07,11.93,11.93,0,0,1,156.75,22.08Zm0-.64c.36,0,.7,0,1.05,0a.59.59,0,0,0,.57-.54,4.81,4.81,0,0,0,0-.93.47.47,0,0,0-.45-.44c-.38,0-.77,0-1.16,0Z"/><path class="b9f015d8-a951-49a0-bd5e-c0168e152d87" d="M122.36,20.38c0-.17,0-.32,0-.46s-.13-.41-.38-.42a7,7,0,0,0-1,0,.58.58,0,0,0-.53.63c0,.9,0,1.8,0,2.69,0,.43.22.63.65.64.23,0,.47,0,.7,0,.43,0,.6-.18.6-.6,0-.13,0-.26,0-.41h.36a.31.31,0,0,1,.33.32,1.09,1.09,0,0,1-1,1.32,7.17,7.17,0,0,1-1.31,0,1.05,1.05,0,0,1-1-1.09c0-1,0-2,0-3a1.07,1.07,0,0,1,.92-1.06,6.51,6.51,0,0,1,1.65,0,.94.94,0,0,1,.75,1.26.35.35,0,0,1-.22.21A2.26,2.26,0,0,1,122.36,20.38Z"/><path class="b9f015d8-a951-49a0-bd5e-c0168e152d87" d="M94.22,18.88v2.28c.34,0,.66,0,1,0a1.32,1.32,0,0,1,1.3.7,1.83,1.83,0,0,1,0,1.45,1.12,1.12,0,0,1-1,.73,16.45,16.45,0,0,1-1.72,0c-.26,0-.31-.21-.31-.43,0-.47,0-.95,0-1.43V19.45C93.49,18.93,93.65,18.8,94.22,18.88Zm0,4.56h1a.65.65,0,0,0,.69-.63c.07-.56-.08-.9-.51-1a7.75,7.75,0,0,0-1.18,0Z"/><path class="b9f015d8-a951-49a0-bd5e-c0168e152d87" d="M72.41,22.1v2h-.28c-.33,0-.42-.09-.42-.42V19.47c0-.42.17-.6.58-.6a14.62,14.62,0,0,1,1.48,0,1,1,0,0,1,1,1,4.52,4.52,0,0,1,0,1,1.2,1.2,0,0,1-1.14,1.15c-.29,0-.59,0-.88,0Zm0-.65h.29c.23,0,.47,0,.7,0a.66.66,0,0,0,.66-.67,5.45,5.45,0,0,0,0-.7.53.53,0,0,0-.49-.55c-.37,0-.75,0-1.15,0Z"/><path class="b9f015d8-a951-49a0-bd5e-c0168e152d87" d="M136.72,22l1.14-2.91a.33.33,0,0,1,.47-.22.34.34,0,0,1,.17.47c-.6,1.47-1.21,2.93-1.82,4.4a.47.47,0,0,1-.52.33H136c-.52,0-.61-.1-.56-.66h.35a.52.52,0,0,0,.51-.79c-.37-.93-.75-1.86-1.12-2.8-.07-.16-.13-.32-.19-.48s0-.42.17-.47a.36.36,0,0,1,.51.22Z"/><path class="b9f015d8-a951-49a0-bd5e-c0168e152d87" d="M147.67,24.06H147V19.47H145.3c-.06-.5,0-.61.5-.61h3c.44,0,.54.12.47.61h-1.57Z"/><path class="b9f015d8-a951-49a0-bd5e-c0168e152d87" d="M68,24.05V19.48H66.37c-.07-.52,0-.62.48-.62h3c.48,0,.55.09.49.61H68.72v4.58Z"/><path class="b9f015d8-a951-49a0-bd5e-c0168e152d87" d="M97.19,24.05V18.89c.49-.12.69,0,.69.51v4.09C97.88,24,97.73,24.14,97.19,24.05Z"/><path class="b9f015d8-a951-49a0-bd5e-c0168e152d87" d="M102.92,17.94c.09.46,0,.61-.5.61h-1.27v-.3c0-.19.1-.31.28-.31C101.93,17.93,102.42,17.94,102.92,17.94Z"/><path class="f2619cd7-e729-40a6-ae28-8e1921cbee51" d="M13.16,20.57v-.51c0-3.25,0-6.49,0-9.74a3.54,3.54,0,0,1,3-3.48,3.5,3.5,0,0,1,4,2.95,13.33,13.33,0,0,1,0,2c0,.93,0,1.87,0,2.8,0,.24.08.32.32.32a3.55,3.55,0,0,1,2.49,1,.5.5,0,0,0,.39.11,3.6,3.6,0,0,1,3.76,1.31.46.46,0,0,0,.34.12,3.56,3.56,0,0,1,4,2.43A3.87,3.87,0,0,1,31.69,21c0,.71,0,1.42,0,2.13,0,.17,0,.3.23.3,1,0,2,0,3-.07a1.71,1.71,0,0,0,1.62-1.82c0-1.33,0-2.65,0-4a1.62,1.62,0,0,1,1.15-1.64,1.57,1.57,0,0,1,2.05,1.47c0,1.49.06,3,0,4.45a4.63,4.63,0,0,1-4.42,4.57c-1.07.08-2.15.06-3.22.06-.27,0-.36.07-.35.34a15.82,15.82,0,0,1-.52,5C30.63,33.57,30,35.29,29.36,37A3.49,3.49,0,0,1,26,39.17c-2,0-3.91,0-5.87,0a4.19,4.19,0,0,1-3.47-1.6C15.2,35.8,13.82,34,12.44,32.2s-2.79-3.63-4.17-5.45a.64.64,0,0,0-.59-.29c-.89,0-1.77,0-2.65,0a5.17,5.17,0,0,1-3.21-1.05A4.79,4.79,0,0,1,.08,22.28,7,7,0,0,1,0,21.16C0,15.78,0,10.41,0,5A4.87,4.87,0,0,1,2,.92,4.92,4.92,0,0,1,4.64,0H34.76a4.68,4.68,0,0,1,3.75,1.62,5.14,5.14,0,0,1,1.2,3.45q0,1.94,0,3.87a1.56,1.56,0,0,1-1.58,1.66A1.59,1.59,0,0,1,36.52,9c0-1.3,0-2.6,0-3.9a1.83,1.83,0,0,0-2-2H5.18a1.86,1.86,0,0,0-2,2V21.27a1.91,1.91,0,0,0,2.07,2.14c.32,0,.64,0,1,0s.41-.09.42-.4a3.52,3.52,0,0,1,1.49-2.89,3.86,3.86,0,0,1,4.57.12C12.83,20.33,13,20.42,13.16,20.57Zm2.8-1v4.68a1.16,1.16,0,0,1-1.07,1.26,1.19,1.19,0,0,1-1-.36c-.86-.8-1.71-1.6-2.59-2.37a2.6,2.6,0,0,0-.87-.46.8.8,0,0,0-1,.55,1.32,1.32,0,0,0,.3,1.26l5.45,7.11c1.08,1.42,2.18,2.82,3.25,4.25a2.15,2.15,0,0,0,1.92.94c1.79,0,3.57,0,5.35,0A1.05,1.05,0,0,0,27,35.52l1.2-3.33a11.82,11.82,0,0,0,.73-3.9c0-2.4,0-4.81,0-7.22a.77.77,0,0,0-.73-.82.79.79,0,0,0-.79.81c0,.24,0,.47,0,.71a1.11,1.11,0,0,1-1.15,1.05,1.09,1.09,0,0,1-1.13-1.05c0-.6,0-1.2,0-1.8,0-.15,0-.31,0-.45a.78.78,0,0,0-.78-.78.75.75,0,0,0-.73.82c0,.45,0,.9,0,1.35a1.16,1.16,0,1,1-2.31,0c0-.77,0-1.55,0-2.32a.79.79,0,0,0-.78-.88c-.45,0-.73.34-.73.88,0,.8,0,1.59,0,2.39a1.16,1.16,0,0,1-1.69,1,1.19,1.19,0,0,1-.64-1.17c0-1.63,0-3.25,0-4.87,0-1.78,0-3.57,0-5.35a2.55,2.55,0,0,0,0-.39.67.67,0,0,0-.73-.61.68.68,0,0,0-.76.62,3.4,3.4,0,0,0,0,.45c0,1.43,0,2.86,0,4.29Z"/></g></g></svg>