<svg xmlns="http://www.w3.org/2000/svg" viewBox="0 0 148.83 51.56"><defs><style>.b6fa622b-8f45-428c-a7e8-9cce817057ed{fill:#29a151;}.ac468db7-9bd8-40a3-9702-a6346e2659b5{fill:#c8c8c8;}</style></defs><title>15</title><g id="f86d90f4-2880-40fc-b8a7-aba66b292f2e" data-name="Слой 2"><g id="f76af59b-a894-4a67-8386-7ac6146c3dd7" data-name="Слой 1"><path class="b6fa622b-8f45-428c-a7e8-9cce817057ed" d="M35,19a11.71,11.71,0,0,0,0-4.86s-3.78,7.92-8.08,11c0,0,5.81-7.88,6.81-12.1s-.8-6.37-.8-6.37S31.25,16.36,26.35,21c0,0,4.94-7.36,5.18-16a11.31,11.31,0,0,0-2.27-5,62.85,62.85,0,0,1-4.82,15.65c-3.78,8.24-4.62,8.2-4.62,8.2s-5.33-2.71-8.43-2-3.67,1.15-4,1.51a.82.82,0,0,0-.11.83s-2,1.27-1.89,2.62a2.15,2.15,0,0,0,1.06,1.8A1.6,1.6,0,0,1,7.1,27.2a1.82,1.82,0,0,1,1.37-.46,4.29,4.29,0,0,1,2.35,2.12c.43,1.25-.17,1.46-.09,2.69s2.92,5.47,4.58,7.12S19.38,42.5,20.9,43l-3.62,2.59V49c-4-1.82-10.87-5.77-13.22-12.77a37.34,37.34,0,0,1-1.37-7.72,57.14,57.14,0,0,1-.06-10.87l14.45-3.78,5.81,1.55.79-2.23-6.44-1.71L.36,15.73a60.55,60.55,0,0,0-.36,7c0,2.82.25,5,.36,6,.32,2.85,1.24,9,3.86,12.94l.22.32a25.07,25.07,0,0,0,4.27,4.64,33.08,33.08,0,0,0,8.41,4.88s8.36-2.76,11.94-7.77a29.81,29.81,0,0,0,4.62-10.47s-5,3.06-7.73,3.82l8-5.63a11.81,11.81,0,0,0,.68-4.24A33.9,33.9,0,0,1,26.59,33s6.85-5.85,8.4-8v-4s-4.18,5.81-8,7.6C27,28.7,34,21.82,35,19ZM10.55,24.67l-1.33-.85,2.35-.77Z"/><path class="ac468db7-9bd8-40a3-9702-a6346e2659b5" d="M53.54,24.37V26H51.75a1.77,1.77,0,0,0-1.23.31,1.85,1.85,0,0,0-.33,1.31V43.36a1.84,1.84,0,0,0,.32,1.3,1.85,1.85,0,0,0,1.24.3h1.79v1.63H41.24V45H43a1.89,1.89,0,0,0,1.26-.3,1.79,1.79,0,0,0,.33-1.29V27.61a1.88,1.88,0,0,0-.33-1.32A1.88,1.88,0,0,0,43,26H41.24v-1.6h12.3Z"/><path class="ac468db7-9bd8-40a3-9702-a6346e2659b5" d="M68.71,24.37V26H66.92a1.8,1.8,0,0,0-1.24.31,1.91,1.91,0,0,0-.32,1.31V43.36a1.85,1.85,0,0,0,.31,1.3,1.88,1.88,0,0,0,1.25.3h1.79v1.63H56.41V45h1.72a1.92,1.92,0,0,0,1.27-.3,1.84,1.84,0,0,0,.32-1.29V27.61a1.94,1.94,0,0,0-.32-1.32A1.92,1.92,0,0,0,58.13,26H56.41v-1.6h12.3Z"/><path class="ac468db7-9bd8-40a3-9702-a6346e2659b5" d="M90.82,39.05a10.21,10.21,0,0,1-3.37,6,10,10,0,0,1-6.57,2.09,12.77,12.77,0,0,1-3.77-.54A10.47,10.47,0,0,1,73.91,45a10.92,10.92,0,0,1-3.38-4.12,13.08,13.08,0,0,1-.4-9.78,11.49,11.49,0,0,1,2.24-3.68,10.44,10.44,0,0,1,3.78-2.68,13,13,0,0,1,4.93-.88,11.19,11.19,0,0,1,3.14.42,9.24,9.24,0,0,1,2.68,1.3L88.65,24H90l.44,9-1.59.12A13,13,0,0,0,86,27.38a6,6,0,0,0-4.45-1.93A4.85,4.85,0,0,0,77,27.78c-.94,1.56-1.4,4.06-1.4,7.51s.48,6.06,1.46,7.57,2.6,2.26,4.86,2.26a6.37,6.37,0,0,0,4.47-1.7,10.11,10.11,0,0,0,2.7-4.93Z"/><path class="ac468db7-9bd8-40a3-9702-a6346e2659b5" d="M101.11,23.12a.47.47,0,0,1-.51.49.48.48,0,0,1-.49-.49.49.49,0,0,1,.5-.5A.48.48,0,0,1,101.11,23.12Zm-.9,5.61V24.35H101v4.38Z"/><path class="ac468db7-9bd8-40a3-9702-a6346e2659b5" d="M102.36,25.53c0-.45,0-.82,0-1.18H103l0,.72h0a1.65,1.65,0,0,1,1.47-.82c.62,0,1.58.36,1.58,1.86v2.62h-.81V26.2c0-.7-.27-1.29-1-1.29a1.15,1.15,0,0,0-1.09.81,1.07,1.07,0,0,0,0,.37v2.64h-.81v-3.2Z"/><path class="ac468db7-9bd8-40a3-9702-a6346e2659b5" d="M108.41,23.09v1.26h1.16V25h-1.16v2.36c0,.54.15.85.61.85a1.59,1.59,0,0,0,.46-.06l0,.6a1.83,1.83,0,0,1-.72.11,1.15,1.15,0,0,1-.87-.33,1.62,1.62,0,0,1-.31-1.14V25h-.69v-.61h.69V23.3Z"/><path class="ac468db7-9bd8-40a3-9702-a6346e2659b5" d="M110.87,26.68a1.42,1.42,0,0,0,1.53,1.52,3.07,3.07,0,0,0,1.23-.22l.14.57a3.57,3.57,0,0,1-1.48.27,2.05,2.05,0,0,1-2.19-2.21,2.14,2.14,0,0,1,2.09-2.36A1.87,1.87,0,0,1,114,26.31a2.73,2.73,0,0,1,0,.37Zm2.38-.57a1.14,1.14,0,0,0-1.13-1.29,1.34,1.34,0,0,0-1.24,1.29Z"/><path class="ac468db7-9bd8-40a3-9702-a6346e2659b5" d="M115,25.72c0-.52,0-1,0-1.37h.71l0,.86h0a1.32,1.32,0,0,1,1.23-1,.85.85,0,0,1,.23,0V25a1.2,1.2,0,0,0-.28,0,1.13,1.13,0,0,0-1.08,1,1.9,1.9,0,0,0,0,.37v2.33H115v-3Z"/><path class="ac468db7-9bd8-40a3-9702-a6346e2659b5" d="M118.07,25.53c0-.45,0-.82,0-1.18h.72l0,.72h0a1.65,1.65,0,0,1,1.47-.82c.62,0,1.58.36,1.58,1.86v2.62h-.81V26.2c0-.7-.27-1.29-1-1.29a1.15,1.15,0,0,0-1.09.81,1.07,1.07,0,0,0,0,.37v2.64h-.81v-3.2Z"/><path class="ac468db7-9bd8-40a3-9702-a6346e2659b5" d="M125.65,28.73l-.07-.55h0a1.69,1.69,0,0,1-1.37.65,1.26,1.26,0,0,1-1.36-1.26c0-1.06,1-1.64,2.68-1.63v-.09a.91.91,0,0,0-1-1,2.22,2.22,0,0,0-1.16.33l-.19-.53a2.89,2.89,0,0,1,1.47-.39A1.56,1.56,0,0,1,126.31,26v1.64a6.68,6.68,0,0,0,.07,1.05Zm-.12-2.24c-.89,0-1.89.14-1.89,1a.71.71,0,0,0,.76.76,1.11,1.11,0,0,0,1.08-.73.75.75,0,0,0,0-.26Z"/><path class="ac468db7-9bd8-40a3-9702-a6346e2659b5" d="M128.55,23.09v1.26h1.16V25h-1.16v2.36c0,.54.16.85.61.85a1.67,1.67,0,0,0,.47-.06l0,.6a1.9,1.9,0,0,1-.72.11,1.18,1.18,0,0,1-.88-.33,1.62,1.62,0,0,1-.31-1.14V25h-.69v-.61h.69V23.3Z"/><path class="ac468db7-9bd8-40a3-9702-a6346e2659b5" d="M131.52,23.12a.47.47,0,0,1-.51.49.48.48,0,0,1-.49-.49.49.49,0,0,1,.51-.5A.48.48,0,0,1,131.52,23.12Zm-.9,5.61V24.35h.81v4.38Z"/><path class="ac468db7-9bd8-40a3-9702-a6346e2659b5" d="M136.81,26.5a2.17,2.17,0,0,1-2.22,2.33,2.1,2.1,0,0,1-2.14-2.26,2.16,2.16,0,0,1,2.21-2.32A2.09,2.09,0,0,1,136.81,26.5Zm-3.54.05c0,1,.56,1.68,1.35,1.68s1.36-.71,1.36-1.7c0-.74-.38-1.68-1.34-1.68S133.27,25.72,133.27,26.55Z"/><path class="ac468db7-9bd8-40a3-9702-a6346e2659b5" d="M137.82,25.53c0-.45,0-.82,0-1.18h.71l.05.72h0a1.65,1.65,0,0,1,1.47-.82c.62,0,1.58.36,1.58,1.86v2.62h-.81V26.2c0-.7-.27-1.29-1-1.29a1.15,1.15,0,0,0-1.09.81,1.07,1.07,0,0,0-.05.37v2.64h-.81v-3.2Z"/><path class="ac468db7-9bd8-40a3-9702-a6346e2659b5" d="M145.4,28.73l-.07-.55h0a1.65,1.65,0,0,1-1.36.65,1.26,1.26,0,0,1-1.36-1.26c0-1.06,1-1.64,2.68-1.63v-.09a.91.91,0,0,0-1-1,2.22,2.22,0,0,0-1.16.33l-.19-.53a2.89,2.89,0,0,1,1.47-.39A1.56,1.56,0,0,1,146.06,26v1.64a6.68,6.68,0,0,0,.07,1.05Zm-.12-2.24c-.89,0-1.89.14-1.89,1a.71.71,0,0,0,.76.76,1.11,1.11,0,0,0,1.08-.73.75.75,0,0,0,.05-.26Z"/><polygon class="ac468db7-9bd8-40a3-9702-a6346e2659b5" points="148.17 27.92 148.17 22.3 147.36 22.3 147.36 27.92 147.36 28.73 148.17 28.73 148.83 28.73 148.83 27.92 148.17 27.92"/><path class="ac468db7-9bd8-40a3-9702-a6346e2659b5" d="M103.39,46a3,3,0,0,1-1.28.25,2.09,2.09,0,0,1-2.22-2.23,2.24,2.24,0,0,1,2.39-2.32,2.71,2.71,0,0,1,1.12.22l-.18.62a1.89,1.89,0,0,0-.94-.21,1.65,1.65,0,0,0,0,3.29,2.35,2.35,0,0,0,1-.22Z"/><path class="ac468db7-9bd8-40a3-9702-a6346e2659b5" d="M108.31,44a2.15,2.15,0,0,1-2.22,2.32A2.1,2.1,0,0,1,104,44.05a2.16,2.16,0,0,1,2.21-2.33A2.1,2.1,0,0,1,108.31,44Zm-3.54,0a1.5,1.5,0,0,0,1.36,1.68c.77,0,1.35-.71,1.35-1.7,0-.74-.38-1.68-1.33-1.68S104.77,43.19,104.77,44Z"/><path class="ac468db7-9bd8-40a3-9702-a6346e2659b5" d="M109.33,43c0-.45,0-.82,0-1.19H110l0,.71h0a1.55,1.55,0,0,1,1.4-.81,1.32,1.32,0,0,1,1.26.88h0a1.87,1.87,0,0,1,.5-.57,1.53,1.53,0,0,1,1-.31c.59,0,1.47.38,1.47,1.9V46.2h-.79V43.72c0-.84-.32-1.35-1-1.35a1.06,1.06,0,0,0-1,.73,1.2,1.2,0,0,0-.06.4v2.7h-.79V43.58c0-.7-.32-1.21-.93-1.21a1.11,1.11,0,0,0-1,.8,1.23,1.23,0,0,0-.06.39V46.2h-.79Z"/><path class="ac468db7-9bd8-40a3-9702-a6346e2659b5" d="M117,43.25c0-.56,0-1,0-1.43h.73l0,.75h0a1.77,1.77,0,0,1,1.59-.85A2,2,0,0,1,121.21,44a2.08,2.08,0,0,1-2,2.35,1.56,1.56,0,0,1-1.37-.69h0V48H117V43.25Zm.8,1.17a1.66,1.66,0,0,0,0,.33,1.24,1.24,0,0,0,1.21.93c.86,0,1.36-.69,1.36-1.69s-.47-1.63-1.33-1.63a1.28,1.28,0,0,0-1.22,1,1.2,1.2,0,0,0-.06.33Z"/><path class="ac468db7-9bd8-40a3-9702-a6346e2659b5" d="M124.7,46.2l-.07-.55h0a1.68,1.68,0,0,1-1.36.65A1.26,1.26,0,0,1,121.88,45c0-1,1-1.63,2.68-1.62v-.09a.91.91,0,0,0-1-1,2.25,2.25,0,0,0-1.16.33l-.18-.53a2.85,2.85,0,0,1,1.46-.39c1.36,0,1.69.92,1.69,1.8v1.63a5.6,5.6,0,0,0,.08,1.05ZM124.58,44c-.88,0-1.89.13-1.89,1a.71.71,0,0,0,.77.76,1.1,1.1,0,0,0,1.07-.73.74.74,0,0,0,0-.25Z"/><path class="ac468db7-9bd8-40a3-9702-a6346e2659b5" d="M126.67,43c0-.45,0-.82,0-1.19h.72l0,.73h0a1.64,1.64,0,0,1,1.47-.83c.62,0,1.58.37,1.58,1.87V46.2h-.81V43.68c0-.71-.27-1.3-1-1.3a1.16,1.16,0,0,0-1.09.82,1,1,0,0,0,0,.37V46.2h-.81V43Z"/><path class="ac468db7-9bd8-40a3-9702-a6346e2659b5" d="M132,41.82l1,2.59c.1.29.21.63.29.9h0c.08-.27.17-.6.28-.92l.88-2.57h.86L134,44.94a6.72,6.72,0,0,1-1.53,2.75,2.29,2.29,0,0,1-1,.51l-.21-.67a2,2,0,0,0,.71-.39,2.4,2.4,0,0,0,.68-.88.56.56,0,0,0,.07-.19.62.62,0,0,0-.06-.21l-1.64-4Z"/><path class="ac468db7-9bd8-40a3-9702-a6346e2659b5" d="M101.11,31.78a.47.47,0,0,1-.51.49.47.47,0,0,1-.49-.49.48.48,0,0,1,.5-.49A.47.47,0,0,1,101.11,31.78Zm-.9,5.61V33H101v4.38Z"/><path class="ac468db7-9bd8-40a3-9702-a6346e2659b5" d="M102.36,34.2c0-.45,0-.82,0-1.18H103l0,.72h0a1.64,1.64,0,0,1,1.47-.82c.62,0,1.58.36,1.58,1.86v2.61h-.81V34.87c0-.71-.27-1.29-1-1.29a1.15,1.15,0,0,0-1.09.81,1.07,1.07,0,0,0,0,.37v2.63h-.81V34.2Z"/><path class="ac468db7-9bd8-40a3-9702-a6346e2659b5" d="M107.36,36.58a2.18,2.18,0,0,0,1.07.32c.59,0,.86-.29.86-.66s-.23-.58-.83-.8c-.8-.28-1.18-.72-1.18-1.24a1.37,1.37,0,0,1,1.54-1.29,2.34,2.34,0,0,1,1.1.27l-.21.58a1.71,1.71,0,0,0-.91-.25c-.48,0-.74.27-.74.6s.26.52.84.74c.78.29,1.17.67,1.17,1.32s-.61,1.31-1.66,1.31a2.63,2.63,0,0,1-1.26-.3Z"/><path class="ac468db7-9bd8-40a3-9702-a6346e2659b5" d="M114.84,36.2c0,.45,0,.85,0,1.19h-.72l0-.71h0a1.68,1.68,0,0,1-1.47.81c-.7,0-1.54-.38-1.54-1.92V33h.81v2.42c0,.83.26,1.39,1,1.39a1.18,1.18,0,0,0,1.07-.72,1.3,1.3,0,0,0,.07-.41V33h.81Z"/><path class="ac468db7-9bd8-40a3-9702-a6346e2659b5" d="M116.18,34.38c0-.52,0-1,0-1.36h.71l0,.86h0a1.34,1.34,0,0,1,1.24-1l.23,0v.76a1.2,1.2,0,0,0-.28,0,1.13,1.13,0,0,0-1.09,1c0,.11,0,.24,0,.37V37.4h-.8v-3Z"/><path class="ac468db7-9bd8-40a3-9702-a6346e2659b5" d="M121.61,37.39l-.07-.55h0a1.68,1.68,0,0,1-1.36.65,1.26,1.26,0,0,1-1.37-1.26c0-1,1-1.63,2.68-1.62v-.09a.91.91,0,0,0-1-1,2.22,2.22,0,0,0-1.16.33l-.18-.53a2.82,2.82,0,0,1,1.46-.38c1.36,0,1.69.91,1.69,1.79v1.63a5.54,5.54,0,0,0,.08,1Zm-.12-2.23c-.88,0-1.89.13-1.89,1a.71.71,0,0,0,.77.76,1.11,1.11,0,0,0,1.07-.73.74.74,0,0,0,0-.25Z"/><path class="ac468db7-9bd8-40a3-9702-a6346e2659b5" d="M123.57,34.2c0-.45,0-.82,0-1.18h.72l0,.72h0a1.64,1.64,0,0,1,1.47-.82c.62,0,1.58.36,1.58,1.86v2.61h-.81V34.87c0-.71-.27-1.29-1-1.29a1.15,1.15,0,0,0-1.09.81,1.07,1.07,0,0,0,0,.37v2.63h-.81V34.2Z"/><path class="ac468db7-9bd8-40a3-9702-a6346e2659b5" d="M131.86,37.23a3.08,3.08,0,0,1-1.28.25,2.09,2.09,0,0,1-2.22-2.23,2.24,2.24,0,0,1,2.39-2.32,2.71,2.71,0,0,1,1.12.22l-.18.62a1.89,1.89,0,0,0-.94-.21,1.65,1.65,0,0,0,0,3.29,2.35,2.35,0,0,0,1-.22Z"/><path class="ac468db7-9bd8-40a3-9702-a6346e2659b5" d="M133.2,35.35a1.42,1.42,0,0,0,1.53,1.52,2.88,2.88,0,0,0,1.23-.23l.14.57a3.65,3.65,0,0,1-1.48.27,2,2,0,0,1-2.19-2.21,2.14,2.14,0,0,1,2.08-2.36A1.87,1.87,0,0,1,136.36,35a2.91,2.91,0,0,1,0,.38Zm2.37-.57a1.13,1.13,0,0,0-1.12-1.29,1.32,1.32,0,0,0-1.24,1.29Z"/><rect class="ac468db7-9bd8-40a3-9702-a6346e2659b5" x="99.7" y="33.02" width="1.29" height="0.54"/></g></g></svg>