<svg xmlns="http://www.w3.org/2000/svg" viewBox="0 0 128.62 52.14"><defs><style>.e0e5b28c-4a99-4381-a791-0256a9e9c04d{fill:#c8c8c8;}</style></defs><title>16</title><g id="a35d6fbb-57e4-414f-8578-f1ef50f26327" data-name="Слой 2"><g id="e3237a53-f5dd-4071-aeed-e2ab9aa9f7d6" data-name="Слой 1"><path class="e0e5b28c-4a99-4381-a791-0256a9e9c04d" d="M37.3,28.94c3.33,1.06,6.6,2.39,10.56,2-2.17-1.48-4.07-2.82-6-4.13.09-.17.17-.34.26-.48,3.5,1.11,6.72,3,10.53,3.38l-6.29-3.9a2.72,2.72,0,0,0,.11-.25c3.9,1.14,7.8,2.27,11.73,3.44a28.32,28.32,0,0,1,3.42,1.08,3.73,3.73,0,0,0,3.59-.34c1.65-.91,3.3-1.82,4.92-2.79A17.7,17.7,0,0,1,78.46,24a36.93,36.93,0,0,1,6.44.6,62.29,62.29,0,0,0,20.66-.06A52.88,52.88,0,0,0,122,18.81c.34-.2.66-.43,1.23-.77l-4.62-.83A29.5,29.5,0,0,1,109.75,14,196.85,196.85,0,0,0,91.13,4.89a38.4,38.4,0,0,0-11-3,63.48,63.48,0,0,0-9.25.06,53.82,53.82,0,0,0-6.8.88,7,7,0,0,0-2.65,1.08c-1.71,1.23-3.3,2.59-5.09,4.05-.52-1.09-1-2-1.49-3.08C48.09,7.73,42,11.75,35.19,14.31l20-11,1.54,2.79c1-.82,2-1.62,3-2.48a7.84,7.84,0,0,1,4.38-2.1C68.27,1.1,72.37.33,76.53.05c5.12-.34,10,1.19,14.69,3a145.18,145.18,0,0,1,17.65,8.37c5.49,3,11.18,4.89,17.53,4.41a7.88,7.88,0,0,1,2.19.54c0,.14,0,.29,0,.43-1.31.91-2.56,1.91-3.93,2.7a55.09,55.09,0,0,1-18.87,6.92A62.6,62.6,0,0,1,91.1,27a41,41,0,0,1-7.29-1.11,16.65,16.65,0,0,0-13,2c-1.68,1-3.38,1.9-5.12,2.76a5,5,0,0,1-4.44.31c-2.17-.85-4.44-1.42-6.69-2.11a1.1,1.1,0,0,0-.91.12c1.28.88,2.56,1.76,3.84,2.67-3.64,0-6.89-1.36-10.3-2.3l2.5,1.88C46.41,32.22,40.91,31.16,37.3,28.94Z"/><path class="e0e5b28c-4a99-4381-a791-0256a9e9c04d" d="M0,17.24a12.76,12.76,0,0,1,1.48.23c8.17,2.28,16.31,1.65,24.46,0,1.82-.37,3.61-1,5.43-1.36,2.4-.46,4.84-.69,7.23-1.14A153.33,153.33,0,0,1,69,12.26a149.35,149.35,0,0,1,20.36,1.48c4,.63,8,1.2,12,1.82a6.41,6.41,0,0,1,1.88.63l-3.39-.34c-5.47-.49-10.93-.91-16.4-1.4a127.43,127.43,0,0,0-20.58-.28c-4.73.34-9.48.6-14.18,1.31-8.51,1.28-17,3-25.51,4.32C15.86,21,8.52,21,1.34,18.52.86,18.32-.2,18.52,0,17.24Z"/><path class="e0e5b28c-4a99-4381-a791-0256a9e9c04d" d="M22.21,50.41a6,6,0,0,1-1.4.28,26.11,26.11,0,0,1-8.14-1.11A13.32,13.32,0,0,1,6,44.66,10.13,10.13,0,0,1,5.81,33.5a13.05,13.05,0,0,1,9.82-5.87c2.76-.28,4.41,1.17,4.3,3.62a3,3,0,0,1-2.39,3c-1.59.51-3.53.11-4.3-.88-.6-.77-.4-1.85.63-2.76.31.57.57,1.11.85,1.62a2.09,2.09,0,0,0,2.79.88A1.73,1.73,0,0,0,17.68,30,5.47,5.47,0,0,0,13,29.51c-3.87,1.31-5.92,4.22-6.46,8.14-.48,3.53,1,6.38,3.67,8.63s6,3.1,9.54,3.36c.8.06,1.59.2,2.39.31A2.13,2.13,0,0,1,22.21,50.41Z"/><path class="e0e5b28c-4a99-4381-a791-0256a9e9c04d" d="M30.09,51.92c.63-3.5,1.68-7-.88-10.48-1.36.91-2.56,1.74-3.67,2.51-.46,2.3,1.28,4.61-.43,6.89a6.35,6.35,0,0,1-1-.89c-.48-.77-.88-1.59-1.36-2.36a2.56,2.56,0,0,1,0-3.19,2.8,2.8,0,0,0,.51-2.25c-.28-3.53-.57-7.06-.83-10.59-.11-1.51.63-2.42,2.51-2.93V41.87l.37.14c.71-.63,1.4-1.28,2.11-1.88,1.85-1.56,3.13-1.25,4.18.94,1.6,3.33,1.14,6.66-.11,10-.14.43-.6.71-.91,1.08A1.81,1.81,0,0,0,30.09,51.92Z"/><path class="e0e5b28c-4a99-4381-a791-0256a9e9c04d" d="M76.38,39.11l-1.65.74c-3.07,1.39-5,4.07-4.69,6.71a2.3,2.3,0,0,0,3.1,2.2A2.71,2.71,0,0,0,75,46.14c0-1.43.11-2.85.28-4.27s1.11-2.11,2.85-2.22C78,41,78,42.27,77.84,43.55c-.12,1-.32,1.9-.43,2.87a2.5,2.5,0,0,0,1.39,2.71,2.17,2.17,0,0,0,2.68-1c.2-.26.37-.54.65-.94.52,1.65.32,2.13-.91,2.9-2.08,1.31-3.73,1-6.06-1.08l-.77.57a4.09,4.09,0,0,1-4.78.57c-1.6-.88-2-2.39-1.91-4.1C67.87,42.61,72.94,37.94,76.38,39.11Z"/><path class="e0e5b28c-4a99-4381-a791-0256a9e9c04d" d="M115.58,39.22l-1.33.6c-2.42,1.19-4.3,2.84-4.67,5.69-.26,1.85.57,3.22,2,3.36A2.76,2.76,0,0,0,114.56,46a39.56,39.56,0,0,1,.28-4.1,2.45,2.45,0,0,1,2.68-2.22,24.69,24.69,0,0,1,0,3c-.08,1-.37,2-.54,3.05a7.86,7.86,0,0,0-.06,1.37,2.24,2.24,0,0,0,1.51,2.08,2,2,0,0,0,2.31-.69c.31-.37.68-.68,1.11-1.11a2.06,2.06,0,0,1-1,2.79c-2.14,1.31-3.79,1-6.07-1.11a11.78,11.78,0,0,1-1.17.86,4.07,4.07,0,0,1-4.38.31,3.85,3.85,0,0,1-1.94-3.59C107.19,42.66,111.48,38.65,115.58,39.22Z"/><path class="e0e5b28c-4a99-4381-a791-0256a9e9c04d" d="M99.1,41.36c.43-.72.71-1.31,1.11-1.86a1.84,1.84,0,0,1,3-.42,5.49,5.49,0,0,1,1.65,2.3c1,3,.34,5.87-.68,8.72a6.65,6.65,0,0,1-.91,1.13,12.7,12.7,0,0,1-.17-1.79c.11-1.71.4-3.42.43-5.12,0-1,0-2.34-1.26-2.57s-1.56,1.14-1.88,2c-.57,1.54-.94,3.16-1.42,4.76-.28,1-.51,2-1.91,2.47A13.64,13.64,0,0,1,96.91,49c.08-1.53.31-3.07.34-4.61,0-2.13-.37-2.5-2.53-2.67-.15,0-.29-.15-.54-.26a4.49,4.49,0,0,1,3.16-2.11c.37-.08.94.32,1.22.66S98.9,40.76,99.1,41.36Z"/><path class="e0e5b28c-4a99-4381-a791-0256a9e9c04d" d="M37.7,47.65c2.5,2.1,4.75,1.16,7.14.11a2.4,2.4,0,0,1-.37,1,6,6,0,0,1-9.28-.49,4.63,4.63,0,0,1-.83-2.67c.18-2.85,1.85-4.84,4.19-6.26a2.21,2.21,0,0,1,2.85.28,2.89,2.89,0,0,1,1,2.93,6.74,6.74,0,0,1-2.84,3.93C39,46.82,38.41,47.19,37.7,47.65Zm2-5.87c-1.43-.42-1.8-.28-2.57.91-1,1.65-1,2.88,0,4C39.26,45.54,40,44.17,39.72,41.78Z"/><path class="e0e5b28c-4a99-4381-a791-0256a9e9c04d" d="M88,50.24c-.49.88-1.14.79-1.8.45a3.54,3.54,0,0,1-2-2.64,20.83,20.83,0,0,1-.34-3.25c0-4.18,0-8.37.08-12.53a4.56,4.56,0,0,1,2.42-4.38c-.08,1.25-.08,2.22-.22,3.22A63.39,63.39,0,0,0,86.06,46c.12,1.11,1,2.13,1.51,3.21C87.71,49.58,87.88,49.92,88,50.24Z"/><path class="e0e5b28c-4a99-4381-a791-0256a9e9c04d" d="M65.57,43.58c-.66-.74-1.09-1.17-1.63-1.77-2,2.79-1.48,6.38-3.38,9.37a30.85,30.85,0,0,1-1.51-2.71c-.63-1.39-1.11-2.87-1.77-4.27a13.14,13.14,0,0,0-1.68-2.7c-1.11-1.4-.94-2.82-.34-4.44,1.74.57,2.25,2,2.79,3.3.74,2,1.45,4,2.16,6a8.38,8.38,0,0,0,.46.74c.43-1.54.8-2.88,1.19-4.21a10.32,10.32,0,0,1,.4-1.14c.34-.86.83-1.54,1.88-1.37a2,2,0,0,1,1.57,2C65.68,42.64,65.62,42.92,65.57,43.58Z"/><path class="e0e5b28c-4a99-4381-a791-0256a9e9c04d" d="M47,50.84c-.82-.77-.59-1.74-.54-2.68.06-1.57.06-3.16,0-4.75a21.62,21.62,0,0,1-.08-2.4A1.89,1.89,0,0,1,48,39.16c.2.4.37.8.43.91,1.79-.68,3.53-1.33,5.29-2,.89,1.23.29,1.88-.31,2.57a3.87,3.87,0,0,1-.57,0c-2.53-.57-3.7.2-4,2.88A16.36,16.36,0,0,0,49,47.08C49.25,49,48.83,49.81,47,50.84Z"/><path class="e0e5b28c-4a99-4381-a791-0256a9e9c04d" d="M91.39,51c-1.57-1.2-1.51-2.56-1.6-3.73-.14-2-.05-4-.08-6a2.17,2.17,0,0,1,1.9-2.33c.17.22.49.48.46.65C91.22,43.21,92.24,47,91.39,51Z"/><path class="e0e5b28c-4a99-4381-a791-0256a9e9c04d" d="M91.07,28.4a26.28,26.28,0,0,1,2,2.08,1.43,1.43,0,0,1-.51,2.28,1.46,1.46,0,0,1-2-1C90.11,30.77,90.22,29.85,91.07,28.4Z"/></g></g></svg>