<svg xmlns="http://www.w3.org/2000/svg" viewBox="0 0 67.68 90.58"><style><![CDATA[.G{fill:#c7b086}.H{fill:#f1f0ee}.I{fill:#da2a28}.J{fill:#f6f6f5}]]></style><path d="M0 57.53l3.9-1 1.55-.36c.34-.06.34-.17.17-.43a2.4 2.4 0 0 1-.38-1.58 2.18 2.18 0 0 0-.76-1.86L2.6 50.55a3.45 3.45 0 0 1 1-5.83.85.85 0 0 0 .59-1v-7.66c0-.42-.08-.63-.52-.8-1.4-.47-2.87-3.04-2.37-4.42a20.28 20.28 0 0 1 1.23-3.07 4 4 0 0 0 .26-1.12l.3-1.56a.66.66 0 0 0 0-.48 3.68 3.68 0 0 1 0-2.75 10.23 10.23 0 0 1 1.47-3.41 1.17 1.17 0 0 0 .21-.95 4.15 4.15 0 0 1 .59-2.7A6 6 0 0 1 8 12.05a7.41 7.41 0 0 0 .22 2.3 3.54 3.54 0 0 0 1.47-3c0-.6.2-.57.6-.38a3.72 3.72 0 0 1 1.84 2c2.16-1.22 3-2 3.67-3.43a3.11 3.11 0 0 1 1.29 2 1.54 1.54 0 0 0 .72-.73c.2-.4.34-.26.53 0a4.85 4.85 0 0 1 .68 1.82 4.18 4.18 0 0 1 2.05-1.22c.52-.15.82-.72 1.08-1.2a3.47 3.47 0 0 1 1.58-1.63c.42-.18.66-.7 1.07-1 .26-.18 0-.32-.13-.43a11.44 11.44 0 0 0-3.64-3c-.43-.24-.47-.36-.1-.7A12.4 12.4 0 0 1 28.29.05C32.73-.4 36 2.17 36.52 6.6a17.93 17.93 0 0 0 .48 2.9.64.64 0 0 0 .69.52 9.46 9.46 0 0 1 4.65 1.37 4 4 0 0 0 1.66.32A92 92 0 0 1 62.7 16a.62.62 0 0 1 .48.7v5.4a.8.8 0 0 0 .5.84c3.4 1.67 4.45 6 3.87 8.5A5.72 5.72 0 0 1 66.08 34a.75.75 0 0 0-.26.58 3.2 3.2 0 0 1-2.15 3.18.69.69 0 0 0-.51.76v5.4a.71.71 0 0 0 .51.76A3.53 3.53 0 0 1 65.84 49a3.38 3.38 0 0 1-1 1.47c-.64.64-1.3 1.23-2 1.86a2.26 2.26 0 0 0-.78 1.91 2.24 2.24 0 0 1-.34 1.47c-.2.32-.22.43.22.53 1.6.37 3.2.8 4.8 1.2l.53.16-2.55 3.48a1.65 1.65 0 0 0-.34 1.07v16.38c0 .5 0 .7-.65.54-3.23-.78-6.5-1.4-9.78-2a.63.63 0 0 0-.68.25C48.03 83.47 41.4 87.6 33.94 90.5a.83.83 0 0 1-.64 0A48.85 48.85 0 0 1 16 79.45c-.67-.7-1.3-1.4-1.94-2.13a.71.71 0 0 0-.74-.26c-3.3.58-6.6 1.2-9.84 2-.54.13-.55-.06-.55-.48V62.14A1.74 1.74 0 0 0 2.54 61C1.7 59.9.88 58.74 0 57.53zm8.43-20c0 .1 0 .13.12.12.38.6 1 .65 1.67.82-.18.3-.54.2-.82.5a5.09 5.09 0 0 1 .42.3 4.75 4.75 0 0 1 1.79 3.55.46.46 0 0 0 .21.42 1.55 1.55 0 0 1 .78 1.49c0 .3 0 .67.36.7a4.9 4.9 0 0 1 1.76.82c.4.24.7.1.84-.36a3.58 3.58 0 0 0-.07-2.17c-.07-.2-.18-.48-.4-.5s-.2.3-.3.47c-.2.43-.34.92-1 1a6.52 6.52 0 0 0 .22-.75 1.1 1.1 0 0 0-.21-1 8.81 8.81 0 0 1-1.95-4 1.13 1.13 0 0 1 .08-.93 1.17 1.17 0 0 0 0-1.29 1 1 0 0 1 .14-1.44c.1 0 .12 0 .13-.13a.81.81 0 0 0 .32-.56 8.89 8.89 0 0 1-3.22.56 1.32 1.32 0 0 0-1.25.73 1.35 1.35 0 0 0 .23 1.59c0 .08 0 .13.12.13zm9.45.12c0 .1 0 .14.1.14.07.4.5.56.7.94a1.16 1.16 0 0 1-.38.05c-.64-.13-.7.2-.7.73a19.78 19.78 0 0 1-.91 6 1.53 1.53 0 0 0 .11 1.24c.73 1.34 1.8 1.63 3 .7a6.38 6.38 0 0 1 3.42-1.62c.65 0 .94-.62.8-1.28a2.67 2.67 0 0 0-1.39-1.77 1.83 1.83 0 0 0-1.76-.11c.87.57 1.2 1.18 1 1.92a2.72 2.72 0 0 0-1.31-.81c0 .7.18 1.4-.32 2a3 3 0 0 0-.75-1.47.51.51 0 0 1-.15-.44 12.64 12.64 0 0 1 .77-4.13c.08-.2.13-.46.34-.57a4.51 4.51 0 0 0 1.88-1.69 1.65 1.65 0 0 1-.12 1.63c-.08.16-.28.37.12.42a12.26 12.26 0 0 1 4.44 1.83 7.54 7.54 0 0 0 1.88.89 1.3 1.3 0 0 0 1.54-.58 5.79 5.79 0 0 0 .95-2.36c.06 0 .1-.06 0-.1l-.07.07a3.51 3.51 0 0 1-2 .74c0-.26.23-.36.35-.5a4.71 4.71 0 0 0 1-1.86 2 2 0 0 0-.74-2.5 1.44 1.44 0 0 1-.8-1.36 6.86 6.86 0 0 0-.21-1.08 1.84 1.84 0 0 0-1.47-1.33 4.06 4.06 0 0 0-3.56 1.41c.6.17 1.23.32 1.8.54a3 3 0 0 1 1.59 1 12.67 12.67 0 0 0-1.51-.16 45 45 0 0 1-5.06-.29 2.73 2.73 0 0 0-2.89 1.59 1.68 1.68 0 0 0 .11 2c0 .1 0 .2.16.22zM41.53 17a1.66 1.66 0 0 0-1.89.62 14.59 14.59 0 0 1 2.29.25l1.38.42A2.38 2.38 0 0 0 41.53 17zm-13-7.36a2.65 2.65 0 0 1 3.13-1.74.7.7 0 0 0-.66-.34 2.51 2.51 0 0 0-2.43 1 1.27 1.27 0 0 1-.67.48l-.84.12c-.16 0-.4 0-.28.26s0 .6.34.55a3.93 3.93 0 0 0 1.43-.3zm-3.45.73c0-.1-.06-.1-.13-.1-.72-.32-.93-.26-1.27.4a5.48 5.48 0 0 1-.85 1.33c-.3.32-.6.62-.25 1.2a2.44 2.44 0 0 0-.82-.17 1.29 1.29 0 0 0-1.32 1.82c.1.32.22.45.53.16a7.42 7.42 0 0 1 2.21-1.59l1.4-.7a1.25 1.25 0 0 1 1.14-.2c.34.14.48-.15.44-.45a1.82 1.82 0 0 0-1.07-1.63zm7.6 24.53l.13.16A8.67 8.67 0 0 0 41 38a6.86 6.86 0 0 1-4.77-2.32 8.81 8.81 0 0 1-.35-11 6.26 6.26 0 0 1 7.69-1.95 7.23 7.23 0 0 1 3.91 4.78 11.17 11.17 0 0 1 .41 2.82 11.58 11.58 0 0 0 0-5.14 4.58 4.58 0 0 0-.89-2.24 4.37 4.37 0 0 0-1.81-2.44 8.68 8.68 0 0 0-11.34.49c-.5.45-.68.87-.3 1.45.28 1.18.6 2.36.78 3.58.06.35 0 .48-.4.4-.73-.16-1.48-.27-2.22-.4-.32.08-.8-.52-1 .2a9 9 0 0 0 2 8.72zM6.92 32.2c-.12.16-.23.34-.36.5s-.3.3-.53.22-.23-.32-.23-.53c0-1 .36-1.26 1.33-1a2.39 2.39 0 0 0-1.88-1c-1.35-.2-1.7 0-1.94 1.38-.27-.26-.23-.63-.36-1a.93.93 0 0 0-.2 1 6.57 6.57 0 0 0 .84 1.75A2.17 2.17 0 0 0 5.9 34a2 2 0 0 0 1-1.78l.07.06zm23.48-9.37A4.35 4.35 0 0 1 27 21a16.17 16.17 0 0 0-1.43-1.67c-.18-.2-.44-.55-.68-.4s0 .52.08.77c.45 1.1 1.1 2.1 1.64 3.14a2.29 2.29 0 0 0 1.2 1.07 27.92 27.92 0 0 0 5.47 1.45c.27-.06.13-.26.1-.38a20.64 20.64 0 0 0-1.13-3.74 2.69 2.69 0 0 0-1.14-1.31l-4.93-3c-.18-.1-.35-.28-.6-.13 1.12.87 2.2 1.78 3.35 2.57a4.32 4.32 0 0 1 1.8 3c.12.44-.04.47-.34.46zm-23 3c-.23.3-.45.6-.7.9s-.1-.1-.17-.12c.1-.7.68-1.3.54-2.08 1.6-.1 1.68-1.82 2.6-2.74.18.25.05.52.16.82.85-1.36 1.4-2.94 3.2-3.36a3.05 3.05 0 0 0-2.35-.49c.32-1.24 1.07-2.2 1.44-3.4a3 3 0 0 1 .33 1.91 1.9 1.9 0 0 0-.72-2.85c-.3 1.58-1.47 2.7-2.15 4.17-.33-.93-.53-1-1.2-.37a9.14 9.14 0 0 0-1.82 2.37c-.14.25-.3.5-.44.74h-.14v-2.1a8 8 0 0 0-1.61 3.85c-.1.6 0 1.06.7 1.23a8.59 8.59 0 0 0-.91 3.36l1.67.1h.5a1.64 1.64 0 0 0 2.46-.75 3.66 3.66 0 0 1 1.6-1.42c-.24.9-.2 1.22.13 1.5A1.2 1.2 0 0 0 12 27a3.76 3.76 0 0 0 .37-5.18.51.51 0 0 0-.79 0A4.88 4.88 0 0 0 9.93 24c-.26.56-.63 1.07-1.3 1s-.97.32-1.2.85zM30 12.26a14.76 14.76 0 0 0 1.68-1.37 1.32 1.32 0 0 1 .15.65 3.08 3.08 0 0 1-1.64 2.87c-.25.17-.45.3-.46.65 0 .92-.1 1.84-.16 2.76a.73.73 0 0 0 1.07.67 14.07 14.07 0 0 0 4.1-3.17 5.43 5.43 0 0 0 1-1.64c.23-.65 0-1-.66-1a.71.71 0 0 1 .1.65 6.09 6.09 0 0 1-2.36 2.87h-.18a10.11 10.11 0 0 0 1.77-2.53c.13-.28.25-.57-.05-.83a2.81 2.81 0 0 1-.75-1.37 7.79 7.79 0 0 0-.82-2 1.91 1.91 0 0 0-2.25-.85A1.87 1.87 0 0 0 29.13 10c-.14.52-.38.68-.88.63a1.1 1.1 0 0 0-.92.24 2 2 0 0 0 .36 2 .9.9 0 0 1 .55 1v.6c0 .2.14.47.32.46a.38.38 0 0 0 .32-.5c-.33-1 .16-1.6 1-2 .12-.1.12-.14.12-.18zm-12.15 12.5v-.08h-.05l.06.06a10 10 0 0 1 1.08 4.67c0 .33.1.36.4.26a14.41 14.41 0 0 0 2.36-1A11 11 0 0 0 24.34 27c.8-.75.73-1.4-.2-1.95a7.91 7.91 0 0 0-2.58-.93c-.47-.1-.95-.16-1.56-.26a6.7 6.7 0 0 1 2.64-.48c-.7-2.15-5.57-5.3-8-5.12a9 9 0 0 1 3.44 3.41c1 1.6 1.63 3.68 1.43 4.46-.5-.52-.82-1.23-1.65-1.37zM37.5 35.44a5.91 5.91 0 0 0 2.05 1.22c0-.32-.2-.36-.33-.46a6.07 6.07 0 0 1-1.71-2.06c-.2-.36-.2-.54.24-.72A16.19 16.19 0 0 0 40.35 32 24 24 0 0 0 43 30l.57 1.88a19.75 19.75 0 0 0 .22-2.28 1.07 1.07 0 0 1 .28-.72 7.2 7.2 0 0 0 1.29-2 8.75 8.75 0 0 1 .5 6.55 6.57 6.57 0 0 0 .83-4.31 6.73 6.73 0 0 0-1.89-4.28 5.24 5.24 0 0 0-8.05.4A7 7 0 0 0 35.21 29a7.29 7.29 0 0 0 2.3 6.44zm-3.8 52.73l.3-.07a52.27 52.27 0 0 0 6.62-3.18 42.19 42.19 0 0 0 10-7.86c.1-.13.34-.24.25-.44s-.3-.08-.45-.1q-3-.45-6.08-.75a1.3 1.3 0 0 0-1 .21 43.08 43.08 0 0 1-9.59 5.39 37 37 0 0 1-8.24-4.44 4.61 4.61 0 0 0-3.91-1c-1.67.34-3.38.46-5.1.67a1.71 1.71 0 0 0 .51.69 43.36 43.36 0 0 0 12.58 9.14 29.91 29.91 0 0 0 4.11 1.75zm27.57-57.92l.12.1a2.63 2.63 0 0 1-1.57.89 5.36 5.36 0 0 1-5.23-1.47 17.24 17.24 0 0 1-3.36-5c-1-1.95-1.8-4-2.9-5.88a9.27 9.27 0 0 0-6.47-4.71 17.72 17.72 0 0 0-3.09-.24 3.2 3.2 0 0 1 1.32-.56c.46-.1.94-.17 1.43-.25-.63-1-4-1.53-5.2-1.22 1.12 1.14 1.17 1.6.26 3a13.24 13.24 0 0 1-1.38 1.71 19.23 19.23 0 0 1-3.59 2.83c.3.2.54.6.83.53.9-.2 1.87-.3 2.4-1.25A12.46 12.46 0 0 1 36 16.83 4.6 4.6 0 0 1 39.45 15 8.1 8.1 0 0 1 46 18a.14.14 0 0 1 0 .22 4.46 4.46 0 0 0-2.33-.89c.72 1.73 2.4 2.43 3.54 3.72.18-.43-.13-.77 0-1.22.25.34.47.62.66.93A27.17 27.17 0 0 1 50 25.28a26.88 26.88 0 0 0 2.54 5.43 6.46 6.46 0 0 0 4.27 2.95c.33.05.66.08 1 .12v.16a8.13 8.13 0 0 1-7-2.6 11.64 11.64 0 0 1-.53 2.77 1.06 1.06 0 0 0 .07.87 7.15 7.15 0 0 0 2.6 3c.16.1.36.15.48.4a6.56 6.56 0 0 1-3-1.46c-.32-.25-.58-.8-.92-.7s-.45.63-.64 1-.44.45-.3.8a6.33 6.33 0 0 0 4.32 4.09 1.4 1.4 0 0 0 1.11-.06.35.35 0 0 0 .21-.34c0-.16-.13-.15-.27-.16-.58 0-.76-.38-.46-.88a1.74 1.74 0 0 1 1.48-.85h2a2.58 2.58 0 0 0 1.71-.57.75.75 0 0 0 .32-.81c-.1-.3-.38-.32-.65-.36A13.4 13.4 0 0 1 54.2 37a4.5 4.5 0 0 1-1.67-1.23.85.85 0 0 1 .25 0 15 15 0 0 0 7.7.94 7.92 7.92 0 0 0 2.6-.67 1.53 1.53 0 0 0 1-1.18c0-.38 0-.6-.5-.42a3.25 3.25 0 0 1-1.83.17 7.45 7.45 0 0 0 2-.93 4.24 4.24 0 0 0 2.22-3.4 6.56 6.56 0 0 0-2-5.09 2.14 2.14 0 0 0-1-.63 1.84 1.84 0 0 1-.66 2.27A5 5 0 0 1 60.29 28a10.06 10.06 0 0 1-4.12.3c-.3 0-.84-.22-.9 0-.1.4.44.5.75.64a6 6 0 0 0 3.23.49 3.13 3.13 0 0 1-1.14.63c-.12.05-.32.07-.33.22s.2.23.36.26a5.13 5.13 0 0 0 3.12-.29zM47.5 50.4a3.35 3.35 0 0 0 2.11 2.33 27.55 27.55 0 0 0 7 2.43 7 7 0 0 0 2.78.28.91.91 0 0 0 .87-1.05 4 4 0 0 1 1.38-3.27l1.75-1.63a2.71 2.71 0 0 0 .84-1.4 1.06 1.06 0 0 0-.75-1.29.56.56 0 0 0-.67.14c-.18.2-.07.4 0 .62.37.63.23 1-.48 1.24a2.91 2.91 0 0 1-1 .13 11.87 11.87 0 0 1-4.23-.9c-1.74-.66-3.4-1.5-5.1-2.26-3-1.32-6.07-2.3-9.42-1.87-.37.05-1 0-1 .38s.58.3.94.36a11.93 11.93 0 0 1 4.58 1.45c.3.2.8.45.57.88s-.67.17-1 .07a28.4 28.4 0 0 0-4.3-.94 64.24 64.24 0 0 0-14.73-.35c-1 .1-2 .07-2.8.94a1.42 1.42 0 0 1-.81.4 7.29 7.29 0 0 0-3.79 1.83 1.43 1.43 0 0 1-.21.12 2.89 2.89 0 0 1-3.57-.39 4.15 4.15 0 0 1-.44-.56.6.6 0 0 0-.63-.26 2.23 2.23 0 0 1-1.77-.53 1.19 1.19 0 0 0-1.41-.11 17.88 17.88 0 0 1-5.1 1.68 4.47 4.47 0 0 1-2.18-.1c-.58-.22-.74-.62-.46-1.1.17-.27.38-.54 0-.8s-.62-.1-.9.08a1 1 0 0 0-.44.89 2.08 2.08 0 0 0 .68 1.47c.52.52 1.07 1 1.62 1.5a4.28 4.28 0 0 1 1.67 3.58.9.9 0 0 0 .83 1 3.23 3.23 0 0 0 1 0 27.75 27.75 0 0 0 8-2.37c1.23-.56 2.5-1.14 2.92-2.75.1.32.13.52.2.72a5 5 0 0 1 0 1.88c-.06.9.2 1.16 1.1 1.1a7.5 7.5 0 0 0 1.14-.18 52 52 0 0 1 21.3-.3 18.56 18.56 0 0 0 2.76.49c.74 0 1-.26 1-1 0-.18 0-.36-.07-.54a3.46 3.46 0 0 1 .25-2.05zM21.26 65.18l-.2-.64-2.3-8.13c-.13-.47-.32-.56-.75-.5-.8.14-1.62.28-2.43.34-.47 0-.55.22-.55.64q0 6.4 0 12.76v.18c-.05.3.06.4.37.34a15.21 15.21 0 0 1 1.76-.25c.4 0 .46-.18.46-.53V63c.65 1.58 1.17 3.16 1.7 4.74.2.6.2 1.4.67 1.72s1.2-.1 1.85-.08h.06c.32 0 .45-.15.54-.46.3-1 .64-2.06 1-3.1l1-3.1h.12v5.92c0 .22-.1.52.33.48.7-.07 1.38-.1 2.08-.14.28 0 .38-.12.38-.4q0-6.55 0-13.12c0-.34-.12-.4-.43-.38-.92.08-1.84.17-2.75.2-.38 0-.5.17-.56.5l-.9 3.74-1.43 5.7zM64 58.78a1.53 1.53 0 0 0-.32-.13c-3.05-.77-6.12-1.4-9.22-2-.47-.08-.48.14-.48.5V74.4c0 .28 0 .5.38.56 2.58.43 5.14.94 7.67 1.56.32.08.47 0 .47-.35q0-4.17 0-8.34c0-.4-.14-.44-.47-.34a18.22 18.22 0 0 1-1.88.54c-.46.1-.53.3-.53.7v4.17c0 .4-.1.5-.48.4a22.41 22.41 0 0 0-1.62-.34c-.3 0-.4-.18-.4-.48v-6.56c0-.33.07-.43.42-.35.75.18 1.52.32 2.27.5.28.06.44 0 .4-.3a3.09 3.09 0 0 1 0-.43c0-1.58 0-1.58-1.5-1.9-.5-.1-1.23 0-1.48-.4s-.1-1-.08-1.55a1 1 0 0 0-.43-1c-.4-.3-.74-.62-1.1-.94a23 23 0 0 1 2.93.44c1.05.2 1.06.2 1.07 1.27 0 .24 0 .48.32.55.72.14 1.44.32 2.15.5.28.07.46 0 .4-.3a2.66 2.66 0 0 1 .82-2.26c.25-.28.46-.6.7-.93zm-60.64-.05c.36.5.65 1 1 1.35a2.34 2.34 0 0 1 .56 1.74v14.23c0 .32-.06.6.46.48 2.53-.64 5.1-1.14 7.67-1.58.28 0 .4-.14.4-.43V66.8c0-.35-.1-.38-.4-.22-.66.36-1.32.73-2 1a.72.72 0 0 0-.47.8v3.93c0 .35-.1.5-.45.57a11.06 11.06 0 0 0-1.5.3c-.45.13-.58.06-.57-.45v-5.58c0-1.24 0-1.24 1.23-1.5.6-.12 1.4-.08 1.72-.45s.06-1.2.12-1.84c0-.46-.17-.44-.5-.37-.7.16-1.43.3-2.15.45-.32.08-.45 0-.43-.34s0-.9 0-1.35a.61.61 0 0 0-.5-.75 13.33 13.33 0 0 1-1.4-.53l3.22-.66c1.1-.23 1.1-.22 1.16.9 0 .3.1.4.4.33a19.79 19.79 0 0 1 2-.37c.36 0 .43-.2.42-.52v-3.07c0-.5-.17-.52-.58-.44l-5.52 1.1-3.9 1zm49 14.57v-.92c0-.3-.12-.46-.45-.5a122.59 122.59 0 0 0-35.73-.11c-1.15.16-1.15.16-1.15 1.35A6 6 0 0 1 15 74c-.07.53.1.66.63.57a110 110 0 0 1 14-1.29A120.78 120.78 0 0 1 51 74.43c1.37.2 1.37.18 1.37-1.13zm-.3-3.12l-1.1-3c-.07-.2-.25-.4.14-.5a1.69 1.69 0 0 0 1.27-1.85v-6.5a2.29 2.29 0 0 0-2-2.31c-2-.26-4-.5-6-.67-.35 0-.46 0-.46.4q0 6.5 0 13c0 .38.14.48.5.5a11 11 0 0 1 1.82.17c.57.12.6-.12.58-.56v-2.2c0-.13-.08-.35.13-.34.4 0 .86-.1 1 .5.27.86.62 1.7.94 2.53.07.17.08.4.36.42.95.14 1.83.23 2.83.4zM29 61.9v6.5c0 .4.12.53.52.5a17.23 17.23 0 0 1 1.9-.06c.37 0 .5-.1.5-.5v-2.2c0-.45.14-.55.56-.54h3.06a1.93 1.93 0 0 0 2-2v-6.74a1.93 1.93 0 0 0-1.94-2h-6c-.42 0-.55.13-.54.57L29 61.9zM47.24 14.5a13.14 13.14 0 0 1 3.41 4.23c.12.25.34.26.56.3a119.76 119.76 0 0 1 5.29 1.28c.46.12.62.3.6.78v4.72c0 .2-.1.53.3.53a6.31 6.31 0 0 0 3.14-.63.73.73 0 0 0 .39-.75v-6.62c0-.45-.17-.6-.54-.7a68.77 68.77 0 0 0-5.76-1.67 71 71 0 0 0-7.4-1.46zm-5.08 47.68v-6.5c0-.24.06-.48-.34-.5-.72 0-1.43-.06-2.14-.12-.3 0-.38.08-.38.37v13.12c0 .3.08.4.37.4.66 0 1.3 0 2 .1.43.06.54-.08.54-.5-.06-2.13-.05-4.25-.05-6.38zM31.78 5.57c.12-.44.2-.77.3-1.1.26-.8.7-.9 1.25-.27a5.08 5.08 0 0 1 1 2.15c.26 1 .38 2 .72 2.92.08.2.1.46.4.6l-.16-1.4a12 12 0 0 0-1-4.33A4.86 4.86 0 0 0 31 1.48c-.45-.1-.8-.1-.73.54a6 6 0 0 1-.11 1.06c-.2-.5-.37-.8-.47-1.12-.16-.5-.47-.6-.94-.5a6.67 6.67 0 0 0-2.36 1.12c-.33.24-.32.43-.1.75a12.84 12.84 0 0 1 1.79 3.73c.07.24.06.53.27.72 1-.83 1-.82.74-2a23.06 23.06 0 0 0-.63-2.33c.34 0 .37.28.46.44a13.11 13.11 0 0 1 1 2.48c.08.23.07.52.48.5s.4-.32.46-.6l.44-3.08a16.85 16.85 0 0 1 .47 2.36zm-6.73 23.48a9.12 9.12 0 0 0 2.22-2.25c.12-.18.3-.43.06-.6s-.38.06-.52.18c-.52.43-1 .9-1.53 1.32a18.47 18.47 0 0 1-13.85 3.85c-.63-.06-1.25-.17-1.88-.25-.2 0-.47-.1-.54.14s.16.36.32.47a3 3 0 0 0 1.13.46 20.42 20.42 0 0 0 9.1-.32 19.25 19.25 0 0 0 7.7-3.46 1.1 1.1 0 0 0 .56-.71 14.58 14.58 0 0 1-2.77 1.18zm-18.6 9.1v8.5c0 .36.2.36.43.3.54-.12 1.08-.23 1.6-.4 1.8-.57 1.82-.58 1.78-2.5a5.25 5.25 0 0 0-2-4.23 7.56 7.56 0 0 1-1.82-1.68zm54.46 1.13a4.22 4.22 0 0 1-3.48 2.29c-.32 0-.34.2-.34.45v3.5c0 .3.13.42.38.53a15.86 15.86 0 0 0 2.92.89c.38.08.54 0 .53-.43l-.01-7.22zM13.62 15.5a7.93 7.93 0 0 1 4.08.07c-.3.2-.65.15-.87.43a15.54 15.54 0 0 1 7.66 5.73 4.76 4.76 0 0 0-1-1.92A12.38 12.38 0 0 0 22 18.15c1-.08 1.17-.17 1.4-.75a8.94 8.94 0 0 1-4.22-1.63c.1-.22.44 0 .55-.25a5.13 5.13 0 0 0-2.52-.82c.64-.8.7-1 .5-1.72a2.55 2.55 0 0 1-1.48 1c-.54.2-1.08.38-1.6.6a1.86 1.86 0 0 0-1.01.93zm9.32-11.7a.58.58 0 0 0 0 .13 11.78 11.78 0 0 1 3.78 4.33c.15.35.47.17.7.13s.15-.33.1-.5A13.21 13.21 0 0 0 25.72 4a.91.91 0 0 0-1.2-.48 13 13 0 0 1-1.58.28zm-8.3 24c0 .57 0 1.07-.05 1.57s-.45 1-.07 1.22.9.07 1.37-.05H16c.27 0 .4-.14.43-.4a7.9 7.9 0 0 0-.93-5.19c0-.1-.13-.25-.27-.18s0 .2 0 .3a7.79 7.79 0 0 1 .14 3.82 4.13 4.13 0 0 0-.74-1.09zm-6.17 2.32a1.55 1.55 0 0 0-.66-.93 5 5 0 0 0-3.43-.85.88.88 0 0 0-.6.29 1 1 0 0 0-.24 1c.12.34.46.16.7.15a4.46 4.46 0 0 1 2.76.6c.27.18.52.4.82.65-.03-1.03-.03-1.03.65-.9zm40.27 4.37c-2.55 4.68-6.32 7-11.78 6.22 5.04 1.97 10.5-1.8 11.78-6.22zm-32.86-.73h-1.86c-.24 0-.3.1-.32.33a4.22 4.22 0 0 0 2.5 4 4.36 4.36 0 0 1-.32-4.33zM7 18.44a9 9 0 0 1 2.61-2.32c0 .27 0 .45.06.7 1.38-2 1.65-3.36.87-4.27a2.43 2.43 0 0 1-.77 1.87l-1.65 1.9A4.8 4.8 0 0 0 7 18.44zm29.4-.18c.87-.34 1.9-.27 2.4-1.25.07-.14.25-.22.38-.3a3.37 3.37 0 0 1 1.82-.52c-1.67-.95-4.1.43-4.6 2.08zm-6.65 3.58l.17-.08a1.84 1.84 0 0 0-.74-1.44l-3.82-3c-.1-.1-.2-.27-.47-.18zm-8.34-6.08l.3.17c.3.14.52.23.54-.3a1.12 1.12 0 0 1 1.42-.82.88.88 0 0 0 1.05-.3c.28-.28.58-.53.86-.8.1-.1.3-.2.2-.4s-.32-.14-.5-.06c-.66.32-1.3.68-2 1a5.08 5.08 0 0 0-1.87 1.5zM6.23 17.32c1.15-1.74 1.16-1.78.86-3a3.42 3.42 0 0 0-.86 3zm10-5.72a5 5 0 0 1-1.57 1.16 2.66 2.66 0 0 0-1.31 1.35c.74-.6 1.7-.85 2.44-1.44a1.08 1.08 0 0 0 .41-1.07zm10.85 2a1.26 1.26 0 0 0 .07.77 6.49 6.49 0 0 1 .58 1.91c.06.3 0 .65.34.92-.16-1.27.04-2.58-1.02-3.57zm-.64-3a3.44 3.44 0 0 0-.47-1.5c-.06-.1-.14-.22-.3-.13a1.29 1.29 0 0 0-.49.52c-.05.1 0 .14.1.17.46.14.7.56 1.1.94zm-.28-8.88a7.92 7.92 0 0 0-2.45 1.05 3 3 0 0 0 2.42-1.05zM8.7 32.88a.34.34 0 0 0-.26-.47c-.23 0-.2.2-.24.34a2.44 2.44 0 0 1-.4.68c-.1.1-.2.25-.1.38s.3.06.44 0c.43-.15.52-.53.56-.93z" fill="#0e0a08"/><path d="M47.5 50.4a3.42 3.42 0 0 0-.26 2.11 5.17 5.17 0 0 1 .07.55c0 .74-.2 1-.95 1a17.28 17.28 0 0 1-2.77-.49 52 52 0 0 0-21.29.31 8.87 8.87 0 0 1-1.15.18c-.9.06-1.15-.2-1.1-1.1a5.22 5.22 0 0 0 0-1.89l-.2-.7c-.4 1.63-1.65 2.2-2.85 2.75a28 28 0 0 1-8 2.36 3 3 0 0 1-1 0 .9.9 0 0 1-.83-1A4.27 4.27 0 0 0 5.5 50.9l-1.6-1.5a2.13 2.13 0 0 1-.69-1.46 1 1 0 0 1 .44-.9c.28-.18.6-.33.9-.08s.1.54 0 .8c-.3.47-.12.87.46 1.08a4.35 4.35 0 0 0 2.18.1 18.06 18.06 0 0 0 5.1-1.67 1.14 1.14 0 0 1 1.4.11 2.23 2.23 0 0 0 1.78.52.59.59 0 0 1 .62.26 4.31 4.31 0 0 0 .56.57 2.87 2.87 0 0 0 3.56.39.92.92 0 0 0 .21-.13 7.37 7.37 0 0 1 3.79-1.83 1.33 1.33 0 0 0 .82-.4 3.71 3.71 0 0 1 2.8-.93 64.8 64.8 0 0 1 14.73.34 30.12 30.12 0 0 1 4.31.95c.33.1.8.33 1-.07s-.27-.68-.58-.88a11.89 11.89 0 0 0-4.58-1.46c-.35-.06-1-.05-.94-.36s.62-.33 1-.37c3.35-.45 6.42.55 9.43 1.87l5.1 2.25a11.59 11.59 0 0 0 4.23.91 3.13 3.13 0 0 0 1-.13c.7-.25.85-.6.48-1.25-.12-.2-.22-.4 0-.6a.58.58 0 0 1 .67-.15 1.08 1.08 0 0 1 .75 1.3 2.69 2.69 0 0 1-.83 1.4l-1.75 1.62a4.05 4.05 0 0 0-1.38 3.28.92.92 0 0 1-.88 1 6.88 6.88 0 0 1-2.78-.27 27.94 27.94 0 0 1-7-2.43 3.32 3.32 0 0 1-2.32-2.36zm-5 .2l-1.17-2.75a1.51 1.51 0 0 0-1.3-.5c-.12.07-.1.17-.1.27v3.55c0 .54.5.27.76.35s.28-.2.28-.38V49.7a5.89 5.89 0 0 1 .82 1.62c.17.5.6.42.94.5s.42-.24.54-.45l.65-1.32a9.85 9.85 0 0 1 .1 1.69c0 .56.5.37.8.44s.2-.22.2-.43v-3.2c0-.3 0-.54-.4-.53s-.77-.4-1 .22-.72 1.47-1.14 2.33zm-3.72-1.55c-.63 0-.7-.3-.65-.7v-.73c0-.4-.13-.5-.48-.5L35 47a.88.88 0 0 0-1 .91v2.87c0 .17 0 .3.24.35.8.18 1.07 0 1-.8 0-.4.1-.57.52-.5a1.54 1.54 0 0 0 .48 0c.43 0 .56.13.54.56 0 .86 0 .87.94.85.26 0 .4-.08.36-.35a2 2 0 0 1 .66-1.84zM32.8 47l-4.4.27c-.3 0-.28.22-.28.43V51c0 .33.1.42.43.4l3.3-.2c.48 0 .36-.32.38-.58s0-.46-.4-.43l-2 .1c-.2 0-.47.13-.47-.27s.26-.3.47-.3h.6c.88 0 1-.16 1.3-1.07l-2 .1c-.16 0-.33 0-.34-.22s.08-.34.3-.35a12.08 12.08 0 0 1 1.59-.06A1.28 1.28 0 0 0 32.8 47zm-6 .46c-1.42.13-2.77.42-4.14.63-.58.1-.47.45-.45.8 0 .52.38.13.6.18a.87.87 0 0 0 .35-.07c.36-.1.46 0 .45.38v2.08c0 .2-.2.62.22.53s1.05.23 1-.6 0-1.4 0-2.08c0-.5.14-.73.63-.7.85.01 1.16-.5 1.38-1.2zm34.47-17.2a5.13 5.13 0 0 1-3.12.28c-.15 0-.36-.06-.35-.27s.2-.17.33-.22a3.09 3.09 0 0 0 1.14-.62 6.1 6.1 0 0 1-3.27-.49c-.32-.15-.85-.25-.76-.65.06-.24.58-.05.9 0A10.06 10.06 0 0 0 60.3 28a4.91 4.91 0 0 0 1.91-1.08 1.85 1.85 0 0 0 .66-2.27 2.14 2.14 0 0 1 1 .63 6.56 6.56 0 0 1 2 5.09 4.24 4.24 0 0 1-2.22 3.4 7 7 0 0 1-2 .93 3.25 3.25 0 0 0 1.83-.17c.48-.18.55 0 .5.42a1.48 1.48 0 0 1-1 1.18 7.8 7.8 0 0 1-2.59.67 15 15 0 0 1-7.7-.94.67.67 0 0 0-.25 0A4.3 4.3 0 0 0 54.21 37a13.32 13.32 0 0 0 4.07 1.08c.27 0 .55.06.65.37a.73.73 0 0 1-.32.8 2.6 2.6 0 0 1-1.71.57h-2a1.71 1.71 0 0 0-1.48.84c-.3.5-.12.84.46.88.14 0 .25 0 .27.16a.37.37 0 0 1-.21.35 1.45 1.45 0 0 1-1.08.07 6.27 6.27 0 0 1-4.32-4.08c-.15-.37.16-.57.3-.82s.35-.9.64-1 .6.46.9.7a6.71 6.71 0 0 0 3 1.47c-.12-.27-.33-.32-.48-.42a7.15 7.15 0 0 1-2.6-3 1.1 1.1 0 0 1-.08-.87 11.94 11.94 0 0 0 .54-2.77 8.11 8.11 0 0 0 7 2.6v-.16c-.33 0-.67-.06-1-.12a6.43 6.43 0 0 1-4.27-2.95 27.05 27.05 0 0 1-2.5-5.42 26.9 26.9 0 0 0-2.12-4.55l-.67-.93c-.1.45.2.8 0 1.23-1.15-1.3-2.82-2-3.54-3.72a4.4 4.4 0 0 1 2.33.88.14.14 0 0 0 0-.19 8.11 8.11 0 0 0-6.58-3 4.58 4.58 0 0 0-3.4 1.81 11.71 11.71 0 0 0-1.2 1.85c-.53 1-1.5 1.06-2.4 1.26-.3.07-.52-.33-.83-.53a19.56 19.56 0 0 0 3.59-2.83 13.24 13.24 0 0 0 1.38-1.71c.9-1.37.86-1.83-.26-3 1.2-.3 4.57.2 5.2 1.22l-1.43.25a3.2 3.2 0 0 0-1.32.56 17.72 17.72 0 0 1 3.09.24 9.27 9.27 0 0 1 6.47 4.71c1.08 1.9 1.92 3.93 2.9 5.88a17.51 17.51 0 0 0 3.36 5 5.36 5.36 0 0 0 5.23 1.47 2.66 2.66 0 0 0 1.57-.89c.07 0 .15-.1.1-.15s-.13.02-.2.1z" class="I"/><path d="M21.26 65.18l1.4-5.66.9-3.75c.07-.3.2-.47.56-.48.92 0 1.84-.12 2.75-.2.3 0 .43 0 .43.38V68.6c0 .3-.1.4-.38.4-.7 0-1.4.08-2.08.14-.44 0-.33-.26-.33-.48v-5.92h-.1l-1 3.12-1 3.1c-.08.3-.22.46-.54.46h-.06c-.63 0-1.38.4-1.85.08s-.46-1.13-.66-1.72l-1.7-4.74v6.4c0 .35-.07.5-.46.53a14.44 14.44 0 0 0-1.75.24c-.3.06-.43 0-.38-.33a1.08 1.08 0 0 0 0-.18V56.92c0-.42.07-.6.54-.65.82-.06 1.62-.2 2.43-.34.43-.07.62 0 .75.5l2.3 8.12c.1.14.14.3.25.63zM64 58.78l-.7.95a2.65 2.65 0 0 0-.82 2.27c.06.33-.1.38-.4.3l-2.15-.5c-.35-.06-.32-.3-.32-.55 0-1.07 0-1.07-1.08-1.27a24.58 24.58 0 0 0-2.93-.43l1.1.93a1 1 0 0 1 .44 1c0 .53-.17 1.18.08 1.56s1 .3 1.47.4c1.52.32 1.52.32 1.52 1.9a2.94 2.94 0 0 0 0 .42c0 .34-.12.37-.4.3l-2.27-.48c-.35-.1-.42 0-.42.34q0 3.28 0 6.57c0 .3.1.43.4.48l1.6.34c.53.14.5 0 .5-.4v-4.17c0-.4.07-.63.52-.72.64-.13 1.26-.34 1.9-.53.32-.1.47-.07.47.33q0 4.17 0 8.35c0 .4-.15.43-.47.35q-3.8-.93-7.67-1.57c-.4-.06-.38-.28-.38-.55V57.16c0-.36 0-.58.48-.5l9.22 2a2.61 2.61 0 0 1 .31.11zm-60.64-.05l4-.94 5.52-1.1c.4-.08.6 0 .57.45v3.06c0 .32-.07.48-.42.53-.7.08-1.37.22-2.05.36-.3.07-.38 0-.4-.32-.06-1.12-.07-1.13-1.17-.9l-3.2.67a14.84 14.84 0 0 0 1.39.53c.42.1.53.34.5.75s0 .9 0 1.35.1.4.42.34l2.16-.45c.32-.08.54-.1.5.37-.06.62.25 1.43-.1 1.84s-1.13.32-1.72.45c-1.24.26-1.24.26-1.24 1.5v5.58c0 .5.13.58.58.45a12.71 12.71 0 0 1 1.49-.31c.36-.05.46-.2.45-.56v-3.93a.75.75 0 0 1 .47-.81l2-1c.3-.16.4-.12.4.22q0 3.87 0 7.73c0 .3-.1.38-.4.43l-7.7 1.58c-.52.13-.46-.16-.46-.5V61.88a2.42 2.42 0 0 0-.56-1.74c-.4-.45-.68-.9-1.04-1.4z" class="J"/><path d="M27.07 34.22a3 3 0 0 0-1.59-1c-.58-.22-1.2-.36-1.8-.54a4.06 4.06 0 0 1 3.56-1.41 1.82 1.82 0 0 1 1.46 1.33 6.86 6.86 0 0 1 .21 1.08 1.42 1.42 0 0 0 .8 1.36 2 2 0 0 1 .75 2.5 4.73 4.73 0 0 1-1 1.86c-.12.15-.33.25-.35.5a3.56 3.56 0 0 0 2-.74 5.79 5.79 0 0 1-.95 2.36 1.3 1.3 0 0 1-1.54.58 7.14 7.14 0 0 1-1.87-.89 12.22 12.22 0 0 0-4.45-1.82c-.4-.06-.2-.26-.12-.42a1.7 1.7 0 0 0 .13-1.64 4.59 4.59 0 0 1-1.88 1.7c-.22.1-.26.36-.35.56a13 13 0 0 0-.77 4.13.57.57 0 0 0 .16.45 2.83 2.83 0 0 1 .74 1.46c.5-.6.28-1.3.32-2a2.91 2.91 0 0 1 1.32.81c.2-.73-.1-1.35-1-1.92a1.86 1.86 0 0 1 1.76.11A2.64 2.64 0 0 1 24 44.5c.15.65-.13 1.23-.78 1.28a6.23 6.23 0 0 0-3.42 1.61c-1.22.93-2.3.63-3-.7a1.49 1.49 0 0 1-.12-1.24 19.16 19.16 0 0 0 .91-6c0-.55.05-.87.7-.73a1.54 1.54 0 0 0 .39 0c-.22-.4-.64-.53-.7-.94a.64.64 0 0 1 .47.06 1.6 1.6 0 0 0 2.1-.83 2.1 2.1 0 0 0 0-1.91c2.65.24 5.18-.56 7.9-.1a3.79 3.79 0 0 0-1.35-.76z" class="G"/><path d="M52.37 73.3c0 1.3 0 1.32-1.34 1.13a120.78 120.78 0 0 0-21.33-1.18 110 110 0 0 0-14 1.29c-.53.1-.7 0-.63-.57a8 8 0 0 0 0-.85c0-1.2 0-1.2 1.15-1.35a122.59 122.59 0 0 1 35.73.11c.32 0 .48.14.45.5s-.03.62-.03.92z" class="J"/><path d="M33.7 88.17a29.91 29.91 0 0 1-4.16-1.78A43.49 43.49 0 0 1 17 77.25a1.61 1.61 0 0 1-.5-.69l5.1-.66a4.54 4.54 0 0 1 3.91 1 36.56 36.56 0 0 0 8.24 4.43z" class="I"/><path d="M33.7 88.17v-6.8A42.47 42.47 0 0 0 43.29 76a1.3 1.3 0 0 1 1-.21q3.06.3 6.08.75c.16 0 .38 0 .45.1s-.14.3-.25.44a42 42 0 0 1-10 7.86A52.27 52.27 0 0 1 34 88.1a1.53 1.53 0 0 1-.3.07z" class="G"/><path d="M52.06 70.18l-2.77-.38c-.28 0-.3-.25-.36-.43L48 66.85c-.18-.6-.64-.47-1-.5-.22 0-.14.2-.14.33v2.2c0 .43 0 .68-.58.56a11.22 11.22 0 0 0-1.83-.17c-.35 0-.5-.12-.5-.5q0-6.5 0-13c0-.37.1-.44.46-.4l6 .67a2.29 2.29 0 0 1 2 2.31v6.5a1.69 1.69 0 0 1-1.27 1.85c-.4.12-.2.3-.14.5l1.06 2.98zM45.2 58l1.2.85a.86.86 0 0 1 .43.86v3.62c0 .4.13.52.5.55a13 13 0 0 1 1.76.21c.37.06.45-.06.45-.4v-4.1c0-1.14 0-1.17-1.1-1.3A17.43 17.43 0 0 0 45.2 58zM29 61.9v-6.38c0-.43.13-.56.55-.56h6a2 2 0 0 1 1.94 2q0 3.38 0 6.75a1.94 1.94 0 0 1-2 2h-3.07c-.4 0-.58.1-.55.53v2.2c0 .4-.12.5-.5.48a17.23 17.23 0 0 0-1.9.06c-.4 0-.52-.08-.52-.5l.04-6.6zm1.33-4.5a.74.74 0 0 0 0 .14l1.07.65a.86.86 0 0 1 .54 1v3.44c0 .4.05.6.53.56a14.93 14.93 0 0 1 1.77 0c.3 0 .45-.06.45-.4v-5c0-.2 0-.37-.28-.37z" class="J"/><path d="M46.94 22.92a4.58 4.58 0 0 1 .89 2.24 11.58 11.58 0 0 1 0 5.14 11.64 11.64 0 0 0-.41-2.82 7.23 7.23 0 0 0-3.91-4.78 6.28 6.28 0 0 0-7.69 1.95 8.8 8.8 0 0 0 .35 11A6.87 6.87 0 0 0 41 38a8.65 8.65 0 0 1-8.12-2.87l-.14-.16c0-.24-.1-.43-.2-.63a11.49 11.49 0 0 1-1.17-4.93 27.32 27.32 0 0 1 .36-3.41l2.22.4c.4.1.45 0 .4-.4-.18-1.2-.5-2.4-.78-3.58.2 0 .28-.22.4-.36a8.1 8.1 0 0 1 11.34-.8c.6.5 1.02 1.17 1.63 1.64zm-.3 6.22a6.53 6.53 0 0 1-.83 4.32 8.69 8.69 0 0 0-.49-6.55 7.53 7.53 0 0 1-1.29 2 1 1 0 0 0-.28.73 19.84 19.84 0 0 1-.23 2.27L43 30a23.85 23.85 0 0 1-2.63 2 14.32 14.32 0 0 1-2.58 1.4c-.43.18-.44.37-.25.72a6.31 6.31 0 0 0 1.71 2.06c.14.1.36.14.34.46a5.74 5.74 0 0 1-2.05-1.22c.14-.2 0-.3-.13-.4a7.49 7.49 0 0 1-.41-8.41 4.78 4.78 0 0 1 7.44-1.39 6.94 6.94 0 0 1 2.21 3.92zm.6-14.64a71 71 0 0 1 7.39 1.5l5.76 1.67c.37.12.55.26.55.7V25a.73.73 0 0 1-.38.75 6.35 6.35 0 0 1-3.15.63c-.4 0-.3-.3-.3-.53v-4.72c0-.5-.14-.66-.6-.78l-5.3-1.28c-.22 0-.44-.05-.56-.3a13.14 13.14 0 0 0-3.42-4.28z" class="G"/><path d="M5.82 27.76l-1.67-.1a8.59 8.59 0 0 1 .91-3.36c-.65-.17-.8-.62-.7-1.23A8 8 0 0 1 6 19.22v2.1h.14l.44-.74A9.36 9.36 0 0 1 8.4 18.2c.67-.6.87-.56 1.2.37.67-1.46 1.84-2.6 2.15-4.18a1.91 1.91 0 0 1 .72 2.86 3 3 0 0 0-.33-1.92c-.37 1.2-1.1 2.16-1.44 3.4a3.05 3.05 0 0 1 2.35.49c-1.8.42-2.34 2-3.2 3.36-.1-.3 0-.57-.16-.82-.9.92-1 2.64-2.6 2.74.14.78-.45 1.38-.54 2.08l-.36 1.17h-.27q-.04-.06-.12.01z" class="J"/><path d="M17.85 24.76c.83.14 1.18.85 1.67 1.4.2-.8-.48-2.86-1.45-4.47a9.06 9.06 0 0 0-3.43-3.41c2.4-.18 7.28 3 8 5.12a6.7 6.7 0 0 0-2.64.48l1.56.26a8 8 0 0 1 2.58.93c.94.55 1 1.2.2 1.95a11.3 11.3 0 0 1-2.64 1.66 14.41 14.41 0 0 1-2.36 1c-.3.1-.4.07-.4-.26a10 10 0 0 0-1.08-4.67z" class="G"/><path d="M42.16 62.17v6.38c0 .43-.1.56-.54.5a21.35 21.35 0 0 0-2-.11c-.3 0-.37-.1-.37-.4V55.43c0-.3.07-.4.38-.37l2.14.12c.4 0 .34.25.34.5z" fill="#fff"/><path d="M31.78 5.57a16.44 16.44 0 0 0-.48-2.4l-.44 3.07c0 .27 0 .57-.46.6s-.4-.27-.48-.5a13.11 13.11 0 0 0-1-2.48c-.1-.16-.12-.4-.46-.44a23.06 23.06 0 0 1 .63 2.33c.2 1.26.23 1.26-.77 2.05-.2-.2-.2-.48-.27-.72a12.87 12.87 0 0 0-1.8-3.73c-.22-.32-.23-.5.1-.75a6.67 6.67 0 0 1 2.36-1.12c.47-.1.78 0 .94.5.1.32.26.63.47 1.12a6 6 0 0 0 .11-1.1c-.07-.65.28-.65.73-.54a4.88 4.88 0 0 1 3.34 2.68 12 12 0 0 1 1 4.33l.16 1.4c-.3-.13-.3-.4-.4-.6-.34-.95-.46-1.95-.72-2.9a5.12 5.12 0 0 0-1-2.16c-.55-.64-1-.54-1.25.27l-.32 1.1zm-6.73 23.48a14.86 14.86 0 0 0 2.77-1.18 1.1 1.1 0 0 1-.56.71 19.25 19.25 0 0 1-7.7 3.42 20.42 20.42 0 0 1-9.1.32 3 3 0 0 1-1.13-.46c-.16-.12-.4-.25-.32-.47s.34-.16.54-.14l1.88.25a18.43 18.43 0 0 0 13.85-3.85c.53-.4 1-.9 1.53-1.32.14-.12.33-.34.52-.18s.06.43-.06.6a9 9 0 0 1-2.22 2.29zm-18.6 9.1a7.56 7.56 0 0 0 1.85 1.68 5.25 5.25 0 0 1 2 4.23c0 1.9 0 1.92-1.78 2.5l-1.6.4c-.24 0-.43 0-.43-.3l-.03-8.5z" class="I"/><path d="M60.92 39.27v7.22c0 .45-.15.5-.53.43a15.89 15.89 0 0 1-2.92-.9.49.49 0 0 1-.38-.53V42c0-.25 0-.42.34-.45a4.22 4.22 0 0 0 3.49-2.29zM30.62 8.55a1.91 1.91 0 0 1 2.25.85 7.79 7.79 0 0 1 .82 2 2.87 2.87 0 0 0 .74 1.37c.3.26.18.55 0 .83a10.07 10.07 0 0 1-1.76 2.53 6 6 0 0 1-2.23 1.61c.12-1.46 0-2.82 1.27-3.85a2.45 2.45 0 0 0 .55-3c-.06-.14-.08-.35-.3-.34s-.26.18-.3.34A14.57 14.57 0 0 1 30 12.26a5.6 5.6 0 0 1-.12-.59c-.03-1.1-.22-2.24.74-3.12zM12.1 35.18a1 1 0 0 0-.1 1.44 1.21 1.21 0 0 1 0 1.29 1.09 1.09 0 0 0-.09.93 8.81 8.81 0 0 0 1.95 4 1.1 1.1 0 0 1 .22 1c0 .23-.13.46-.22.75.65-.07.8-.55 1-1 .08-.17.05-.48.3-.47s.34.28.4.5a3.57 3.57 0 0 1 .06 2.17c-.13.46-.43.6-.84.36a4.9 4.9 0 0 0-1.79-.73c-.32 0-.34-.42-.36-.7a1.56 1.56 0 0 0-.77-1.49.45.45 0 0 1-.22-.42 4.72 4.72 0 0 0-1.79-3.55 3.05 3.05 0 0 0-.42-.3c.28-.3.64-.2.82-.5-.6-.17-1.28-.22-1.67-.82l.36.06c.6.13 1.24.25 1.72-.26s.2-1-.07-1.4c-.1-.16-.07-.3.1-.33.46-.1.86-.47 1.4-.5zM6.2 27.8l.36-1.18c.06 0 0 .35.16.13l.7-.9.4.1A1.85 1.85 0 0 0 9.93 24a4.81 4.81 0 0 1 1.62-2.25.51.51 0 0 1 .79 0A3.76 3.76 0 0 1 12 27a1.18 1.18 0 0 1-1.46.15c-.33-.28-.37-.6-.13-1.5a3.66 3.66 0 0 0-1.6 1.42 1.64 1.64 0 0 1-2.46.75z" class="G"/><path d="M27.07 34.22a3.86 3.86 0 0 1 1.39.72c-2.7-.45-5.24.35-7.88.1a2.13 2.13 0 0 1 0 1.91 1.6 1.6 0 0 1-2.08.86c-.16 0-.3-.13-.47-.06 0-.1 0-.13-.1-.13 0-.13-.06-.2-.16-.23a1.68 1.68 0 0 1-.11-2 2.73 2.73 0 0 1 2.89-1.59 45 45 0 0 0 5.06.29 12.67 12.67 0 0 1 1.47.12z" class="J"/><path d="M46.65 29.14a6.94 6.94 0 0 0-2.19-3.92A4.78 4.78 0 0 0 37 26.61a7.47 7.47 0 0 0 .38 8.39c.08.12.28.22.13.4A7.25 7.25 0 0 1 35.22 29a7 7 0 0 1 1.5-3.7 5.24 5.24 0 0 1 8.05-.4 6.69 6.69 0 0 1 1.88 4.24z" class="H"/><path d="M13.62 15.5a1.86 1.86 0 0 1 1.05-1l1.6-.6a2.5 2.5 0 0 0 1.47-1c.2.75.15.92-.5 1.72a5.13 5.13 0 0 1 2.52.82c-.1.26-.44 0-.55.25a9.06 9.06 0 0 0 4.22 1.64c-.24.57-.4.66-1.4.74a12.38 12.38 0 0 1 1.46 1.67 4.76 4.76 0 0 1 1 1.92A15.58 15.58 0 0 0 16.83 16c.22-.28.56-.24.87-.43a7.93 7.93 0 0 0-4.08-.06z" class="I"/><path d="M33.32 25.35a27.92 27.92 0 0 1-5.47-1.45 2.29 2.29 0 0 1-1.2-1.07c-.55-1-1.2-2-1.64-3.14-.1-.25-.35-.6-.08-.77s.5.2.68.4A17.29 17.29 0 0 1 27 21a4.35 4.35 0 0 0 3.36 1.84c.18.2.47 0 .67.22l2.3 2.3z" class="J"/><path d="M31.72 10.9c0-.16.1-.33.3-.34s.23.2.3.34a2.45 2.45 0 0 1-.55 3c-1.3 1-1.15 2.4-1.27 3.85a6 6 0 0 0 2.23-1.61h.18a6.12 6.12 0 0 0 2.37-2.87.74.74 0 0 0-.11-.65c.67 0 .9.4.66 1a5.43 5.43 0 0 1-1 1.64 14.07 14.07 0 0 1-4.1 3.17.73.73 0 0 1-1.07-.67L29.8 15c0-.35.2-.48.46-.65a3.08 3.08 0 0 0 1.64-2.87 1.32 1.32 0 0 0-.19-.58z" class="H"/><path d="M33.32 25.35c-.7-.83-1.52-1.52-2.25-2.3-.2-.2-.5 0-.67-.22.3 0 .46 0 .38-.44a4.32 4.32 0 0 0-1.8-3c-1.16-.8-2.23-1.7-3.36-2.57.26-.15.43 0 .6.13l4.93 3a2.69 2.69 0 0 1 1.14 1.31A21.47 21.47 0 0 1 33.43 25c.02.1.16.3-.1.35z" class="G"/><path d="M6.9 32.18a2 2 0 0 1-1 1.82 2.17 2.17 0 0 1-2.31-.51 6.57 6.57 0 0 1-.84-1.75.93.93 0 0 1 .2-1c.13.34.1.7.36 1 .24-1.34.6-1.6 1.94-1.38a2.39 2.39 0 0 1 1.88 1c-1-.24-1.35.07-1.33 1 0 .2 0 .43.23.53s.4-.08.53-.22.24-.33.36-.5zm40.04-9.26c-.6-.47-1-1.14-1.64-1.63a8.11 8.11 0 0 0-11.34.8c-.12.14-.2.33-.4.36-.4-.58-.22-1 .28-1.45a8.7 8.7 0 0 1 11.29-.52 4.33 4.33 0 0 1 1.81 2.44z" class="H"/><path d="M30.62 8.55c-1 .88-.77 2-.7 3.12a5.6 5.6 0 0 0 .12.59.73.73 0 0 1-.08.09c-.88.4-1.37 1-1 2a.37.37 0 0 1-.32.49c-.18 0-.3-.22-.32-.45v-.62a.9.9 0 0 0-.55-1c-.42-.18-.66-1.66-.36-2a1.13 1.13 0 0 1 .92-.23c.5 0 .74-.1.88-.63a1.87 1.87 0 0 1 1.41-1.36z" class="J"/><path d="M22.94 3.8a13 13 0 0 0 1.58-.3.9.9 0 0 1 1.19.5 13.21 13.21 0 0 1 1.84 3.91c.05.17.24.43-.1.5s-.55.22-.7-.13A11.78 11.78 0 0 0 23 3.93a.58.58 0 0 1-.06-.13z" class="I"/><path d="M12.1 35.18c-.53 0-.93.4-1.43.5-.18 0-.2.17-.1.33.28.46.5 1 .07 1.4s-1.1.4-1.73.26c-.1 0-.23 0-.35-.06 0-.08 0-.12-.12-.12a.12.12 0 0 0-.12-.13 1.34 1.34 0 0 1-.23-1.58 1.28 1.28 0 0 1 1.25-.73 9.34 9.34 0 0 0 3.22-.56.8.8 0 0 1-.32.56c-.1 0-.14 0-.13.12z" class="J"/><path d="M31.73 26a27.32 27.32 0 0 0-.39 3.38 11.49 11.49 0 0 0 1.17 4.93c.1.2.25.38.2.63a9 9 0 0 1-2-8.73c.23-.72.7-.12 1.02-.2zm-8.55-12.64A7.42 7.42 0 0 0 21 15c-.3.3-.42.16-.53-.16A1.29 1.29 0 0 1 21.76 13a2.39 2.39 0 0 1 .82.17c-.36-.57 0-.87.25-1.2a5.48 5.48 0 0 0 .87-1.25c.3-.73.55-.73 1.3-.43a.12.12 0 0 0 .14.1 1.14 1.14 0 0 1-.47 1.18l-1.24 1.1a.54.54 0 0 0-.25.68zM14.64 27.8a3.76 3.76 0 0 1 .76 1.08 7.67 7.67 0 0 0-.14-3.82c0-.1-.18-.22 0-.3s.22.07.28.18a8 8 0 0 1 .93 5.19c-.05.27-.17.4-.44.4h-.12c-.46.12-1.05.27-1.37.05s.05-.8.07-1.22l.03-1.55z" class="H"/><path d="M8.47 30.12C7.8 30 7.8 30 7.82 31a8.94 8.94 0 0 0-.82-.62 4.46 4.46 0 0 0-2.76-.64c-.24 0-.58.2-.7-.15a1 1 0 0 1 .24-1 .88.88 0 0 1 .6-.29 5 5 0 0 1 3.43.85 1.55 1.55 0 0 1 .66.97z" class="I"/><path d="M48.74 34.5C47.47 38.9 42 42.68 37 40.7c5.42.8 9.2-1.54 11.74-6.22z" class="G"/><path d="M15.88 33.76a4.36 4.36 0 0 0 .32 4.29 4.21 4.21 0 0 1-2.5-4c0-.22.08-.33.32-.33.6.05 1.22.04 1.86.04z" class="H"/><path d="M7 18.44a4.9 4.9 0 0 1 1.12-2.14l1.65-1.9a2.43 2.43 0 0 0 .77-1.87c.78.9.5 2.24-.87 4.27 0-.24 0-.42-.06-.7A9 9 0 0 0 7 18.44z" class="I"/><path d="M36.4 18.26c.5-1.65 2.93-3 4.58-2.08a3.59 3.59 0 0 0-1.81.52c-.13.1-.3.18-.37.3-.5 1-1.53.9-2.4 1.25z" class="H"/><path d="M23.18 13.36a.55.55 0 0 1 .22-.7l1.23-1.1a1.13 1.13 0 0 0 .47-1.17 1.83 1.83 0 0 1 1.07 1.6c0 .3-.1.58-.44.44a1.25 1.25 0 0 0-1.14.2l-1.4.72z" class="G"/><path d="M29.75 21.84l-4.86-4.68c.27-.08.36.1.47.2l3.82 3a1.82 1.82 0 0 1 .74 1.44z" class="H"/><path d="M21.4 15.76a5.08 5.08 0 0 1 1.88-1.54c.68-.28 1.33-.64 2-1 .17-.08.37-.16.5.06s-.1.3-.2.4l-.86.8a.87.87 0 0 1-1.05.3 1.12 1.12 0 0 0-1.42.82c0 .53-.23.44-.54.3-.1 0-.18-.06-.3-.13z" class="G"/><path d="M9.93 24a1.85 1.85 0 0 1-2.1 2c-.14 0-.27-.07-.4-.1.24-.53.52-.88 1.2-.8s1.04-.5 1.3-1.1zm-3.7-6.68a3.42 3.42 0 0 1 .86-3c.3 1.23.3 1.26-.86 3z" class="H"/><path d="M16.2 11.6a1.08 1.08 0 0 1-.44 1.07c-.75.6-1.7.83-2.44 1.44a2.66 2.66 0 0 1 1.31-1.35 5 5 0 0 0 1.57-1.16z" class="I"/><path d="M27.94 9a1.27 1.27 0 0 0 .67-.48 2.51 2.51 0 0 1 2.43-1 .7.7 0 0 1 .62.34 2.65 2.65 0 0 0-3.11 1.77c-.17-.2-.08-.7-.6-.63z" class="G"/><path d="M41.93 17.9a15.73 15.73 0 0 0-2.29-.25 1.67 1.67 0 0 1 1.89-.64c.1.33.6.44.4.9zm-14.88-4.27c1.06 1 .86 2.3 1 3.6-.35-.27-.28-.63-.34-.92a6.49 6.49 0 0 0-.58-1.91 1.26 1.26 0 0 1-.08-.77zm.9-4.63c.53-.1.44.4.6.64a3.93 3.93 0 0 1-1.39.29c-.32.06-.25-.35-.34-.55s.12-.25.28-.26z" class="H"/><path d="M26.4 10.6c-.38-.38-.65-.8-1.14-.94-.08 0-.16-.08-.1-.17a1.29 1.29 0 0 1 .49-.49c.15-.08.23 0 .3.13a3.44 3.44 0 0 1 .47 1.47z" class="G"/><path d="M26.13 1.72a3 3 0 0 1-2.45 1.05 7.92 7.92 0 0 1 2.45-1.05z" class="I"/><path d="M8.7 32.88c0 .4-.13.78-.56.94-.14 0-.3.18-.44 0s0-.27.1-.38a2.44 2.44 0 0 0 .4-.68c.05-.13 0-.38.24-.34a.34.34 0 0 1 .26.46zM41.93 17.9c.2-.45-.3-.56-.4-.86a2.34 2.34 0 0 1 1.78 1.28zm-24.2 19.5c.1 0 .18.1.16.22s-.16-.1-.16-.22z" class="G"/><path d="M32.7 34.93l.13.16a1.83 1.83 0 0 0-.13-.16z" class="H"/><g class="G"><path d="M12.1 35.2c0-.1 0-.13.13-.13s-.04.13-.13.13zm-3.8 2.17a.12.12 0 0 1 .12.13c-.1 0-.12-.05-.12-.13z"/><path d="M8.43 37.5c.08 0 .13 0 .12.12s-.13-.03-.12-.12zm9.45.12c.1 0 .14 0 .1.14s-.12-.05-.1-.14z"/></g><path d="M6.92 32.2H7l-.07-.06z" class="H"/><path d="M31.1 39.2s.06-.07.07-.07 0 .08 0 .1zM5.82 27.76q.07-.07.12 0zm12.04-3l-.06-.06h.05v.08zM25.1 10.4c-.08 0-.1 0-.13-.1s.13.01.13.1z" class="G"/><path d="M42.46 50.62l1.12-2.33c.3-.75.68-.2 1-.2s.4.23.4.53v3.18c0 .17.13.5-.23.43s-.77.12-.78-.44a12.49 12.49 0 0 0-.11-1.69l-.66 1.32c-.1.22-.15.55-.54.45s-.77 0-.93-.5a6.34 6.34 0 0 0-.82-1.62v1.44c0 .18.07.5-.27.38s-.76.18-.77-.36v-3.55c0-.1 0-.2.1-.26a1.49 1.49 0 0 1 1.3.49l1.2 2.75z" class="J"/><path d="M38.74 49.07a2 2 0 0 0-.65 1.86c0 .27-.1.34-.35.34-.93 0-1 0-.94-.84 0-.43-.1-.6-.54-.56a1.61 1.61 0 0 1-.49 0c-.4-.1-.52.1-.5.48 0 .8-.25 1-1.06.8-.2-.07-.2-.15-.2-.37V47.9a.88.88 0 0 1 1-.9l2.63.12c.35 0 .52.13.48.5s0 .5 0 .74c-.06.4 0 .7.63.7zm-2.62-.17c.15-.23.62.33.68-.34s-.37-.48-.7-.5a3.85 3.85 0 0 1-.48 0c-.28 0-.33.1-.35.35-.05.7.52.32.86.5z" class="H"/><path d="M32.8 47a1.28 1.28 0 0 1-1.49 1.1 12.08 12.08 0 0 0-1.59.06c-.23 0-.33.1-.3.35s.18.23.34.22l2-.1c-.26.9-.42 1-1.3 1.07h-.6c-.2 0-.47 0-.47.3s.28.27.47.27c.66 0 1.3-.06 2-.1.35 0 .42.13.4.43s.1.56-.38.58c-1.1 0-2.2.12-3.3.2-.33 0-.43-.07-.43-.4v-3.3c0-.2 0-.42.28-.43zm-5.97.42c-.22.7-.53 1.2-1.32 1.15-.5 0-.66.2-.63.7.05.7 0 1.38 0 2.08s-.67.5-1 .58-.2-.34-.22-.52v-2.1c0-.36-.1-.48-.45-.38a.68.68 0 0 1-.36.07c-.2 0-.56.35-.6-.18 0-.34-.13-.7.46-.8l4.1-.63z" class="J"/><path d="M61.27 30.25c.07-.1.16-.14.23 0s0 .12-.1.15zM45.2 58a18.55 18.55 0 0 1 3.22.28c1.1.13 1.1.16 1.1 1.3v4.1c0 .35-.08.47-.45.4a14.83 14.83 0 0 0-1.76-.21c-.38 0-.52-.14-.5-.55v-3.6a.86.86 0 0 0-.42-.86c-.37-.23-.72-.52-1.17-.86zm-14.84-.6h4c.27 0 .28.17.28.37v5c0 .34-.14.4-.44.4a15.1 15.1 0 0 0-1.78 0c-.47 0-.53-.17-.52-.56v-3.44a.88.88 0 0 0-.55-1c-.37-.18-.7-.44-1.06-.65a.74.74 0 0 1 .07-.12z" fill="#0e0a08"/><path d="M36.12 48.9c-.33-.18-.9.2-.86-.52 0-.25.07-.38.35-.35a3.85 3.85 0 0 0 .48 0c.34 0 .76-.12.7.5s-.53.13-.68.36z" class="I"/></svg>