<svg xmlns="http://www.w3.org/2000/svg" viewBox="0 0 148.47 32.34"><defs><style>.e00ed643-3af4-44e7-afb1-47d65befff56{fill:#c8c8c8;}</style></defs><title>19</title><g id="bb4dc616-628d-4566-b12f-d4b4ba67c762" data-name="Слой 2"><g id="ffd71a11-de77-405a-abab-921583e95bf0" data-name="Слой 1"><path class="e00ed643-3af4-44e7-afb1-47d65befff56" d="M20.76,32.34,9.19,20.76,20.76,9.19,32.34,20.76ZM14,20.76l6.79,6.8,6.8-6.8L20.76,14Z"/><path class="e00ed643-3af4-44e7-afb1-47d65befff56" d="M30,23.16,18.39,11.59,30,0,41.53,11.59Zm-6.8-11.59,6.8,6.8,6.8-6.8L30,4.77Z"/><path class="e00ed643-3af4-44e7-afb1-47d65befff56" d="M11.59,23.16,0,11.57,11.57,0,23.14,11.57ZM4.77,11.57l6.8,6.8,6.8-6.8-6.8-6.8Z"/><path class="e00ed643-3af4-44e7-afb1-47d65befff56" d="M53.82,14.87V12.71A10.24,10.24,0,0,1,53.93,11l-3,3.92h-3V4.79h3.82V6.94a10.41,10.41,0,0,1-.11,1.76l3-3.93h3V14.85H53.82Z"/><path class="e00ed643-3af4-44e7-afb1-47d65befff56" d="M68.48,4.79V14.87H64.65V11.48h-2v3.39H58.86V4.79H62.7V8.17h2V4.79Z"/><path class="e00ed643-3af4-44e7-afb1-47d65befff56" d="M75.12,4.79c2.32,0,3.6.77,3.6,2.55a2,2,0,0,1-1.4,2.15,2.34,2.34,0,0,1,1.8,2.45c0,2.29-1.84,2.93-4.12,2.93H69.7V4.79Zm-.64,2.7h-1V8.71h1a.58.58,0,0,0,.63-.6A.59.59,0,0,0,74.48,7.49Zm.16,3.35H73.53v1.29h1.11a.61.61,0,0,0,.67-.65A.62.62,0,0,0,74.64,10.84Z"/><path class="e00ed643-3af4-44e7-afb1-47d65befff56" d="M87.82,4.79V7.66H83.73v.87h3.51v2.56H83.73V12H87.9v2.92h-8V4.79Z"/><path class="e00ed643-3af4-44e7-afb1-47d65befff56" d="M94,4.54a7.47,7.47,0,0,1,3,.59V8.45a5.16,5.16,0,0,0-2.32-.59c-1.21,0-2.3.53-2.3,2,0,1.29,1.07,1.84,2.23,1.84a4.4,4.4,0,0,0,2.47-.59v3.38a7.25,7.25,0,0,1-3,.59c-2.94,0-5.69-1.51-5.69-5.22S91.25,4.54,94,4.54Z"/><path class="e00ed643-3af4-44e7-afb1-47d65befff56" d="M106.69,4.79v3.3H104.1v6.78h-3.83V8.11H97.68V4.79Z"/><path class="e00ed643-3af4-44e7-afb1-47d65befff56" d="M113.38,14.87V12.71a10.24,10.24,0,0,1,.11-1.75l-3,3.92h-3V4.79h3.83V6.94a11.44,11.44,0,0,1-.1,1.76l3-3.93h3V14.85h-3.83Z"/><path class="e00ed643-3af4-44e7-afb1-47d65befff56" d="M123.15,4.79c2.62,0,4.63,1,4.63,3.93s-2,3.94-4.63,3.94h-.89v2.22h-3.83V4.79ZM123,7.87h-.75v1.7H123c.7,0,1-.3,1-.85S123.71,7.87,123,7.87Z"/><path class="e00ed643-3af4-44e7-afb1-47d65befff56" d="M130.7,15.1a7.63,7.63,0,0,1-2-.31v-3a3.75,3.75,0,0,0,1.19.19,1.08,1.08,0,0,0,1-.48l.15-.3-3.74-6.38h4l1.55,3.46,1.23-3.46h4l-3.61,7.76A3.78,3.78,0,0,1,130.7,15.1Z"/><path class="e00ed643-3af4-44e7-afb1-47d65befff56" d="M144.64,14.87V12.71a11.25,11.25,0,0,1,.1-1.75l-3,3.92h-3V4.79h3.83V6.94a11.44,11.44,0,0,1-.1,1.76l3-3.93h3V14.85h-3.83Zm1.85-11.5V1.12a5.3,5.3,0,0,1-2.78.71,5.39,5.39,0,0,1-2.79-.71V3.37a5.08,5.08,0,0,0,2.79.8A5,5,0,0,0,146.49,3.37Z"/><path class="e00ed643-3af4-44e7-afb1-47d65befff56" d="M53.32,18.65c2.32,0,3.6.77,3.6,2.55a2,2,0,0,1-1.4,2.15,2.35,2.35,0,0,1,1.81,2.45c0,2.29-1.85,2.93-4.12,2.93H47.9V18.65Zm-.65,2.7h-1v1.22h1a.57.57,0,0,0,.63-.6A.59.59,0,0,0,52.67,21.35Zm.16,3.35H51.72V26h1.11a.61.61,0,0,0,.66-.66A.59.59,0,0,0,52.83,24.7Z"/><path class="e00ed643-3af4-44e7-afb1-47d65befff56" d="M70.26,29a4.9,4.9,0,0,1-5.14-3.64h-.84v3.39H60.45V18.65h3.83V22h.84c.57-2.13,2.31-3.63,5.14-3.63,3.66,0,5.52,2.31,5.52,5.28S73.92,29,70.26,29Zm0-3.46c.95,0,1.57-.61,1.57-1.83s-.62-1.83-1.57-1.83-1.56.62-1.56,1.83S69.32,25.52,70.26,25.52Z"/><path class="e00ed643-3af4-44e7-afb1-47d65befff56" d="M76.64,28.73V18.65h7.78V22h-4v6.78Z"/><path class="e00ed643-3af4-44e7-afb1-47d65befff56" d="M89.89,18.65c2.61,0,4.62,1,4.62,3.93s-2,3.94-4.62,3.94H89v2.22H85.17V18.65Zm-.15,3.08H89v1.7h.74c.71,0,1-.3,1-.85S90.45,21.73,89.74,21.73Z"/><path class="e00ed643-3af4-44e7-afb1-47d65befff56" d="M97.44,29a7.75,7.75,0,0,1-2-.31v-3a3.79,3.79,0,0,0,1.19.19,1.09,1.09,0,0,0,1.05-.48l.14-.3-3.74-6.38h4l1.54,3.46,1.23-3.46h4l-3.61,7.76A3.79,3.79,0,0,1,97.44,29Z"/></g></g></svg>