<svg xmlns="http://www.w3.org/2000/svg" viewBox="0 0 131.39 35.19"><defs><style>.ea6efc49-4948-456d-ae7f-23d2bd977687{fill:#21427b;}.f165d6d0-1045-4c84-9803-a53e98537056{fill:#fae101;}</style></defs><title>Ресурс 2</title><g id="b8e984fd-2fb9-4f39-bf7d-3fbeca60451c" data-name="Слой 2"><g id="f71d21d5-d6d2-4ff0-a498-8e9722506361" data-name="Слой 1"><path class="ea6efc49-4948-456d-ae7f-23d2bd977687" d="M65.7.07c21.31,0,42.7,0,64-.07,1.46,0,1.68.36,1.68,1.75-.07,10.66-.07,21.32,0,31.9,0,1.17-.22,1.53-1.53,1.53H1.53C.29,35.26,0,35,0,33.72.07,23,.07,12.34,0,1.61,0,.29.44,0,1.68,0Q33.64.11,65.7.07ZM20.37,17.59C19,14.23,17.74,11,16.42,7.88c-.21-.58-.43-1.09-1.24-1q-3.72.1-7.44,0c-.66,0-.88.22-.88.88V27.67c0,.73.22,1,.95.94,1.53-.07,3.14-.07,4.67,0,.95.08,1.24-.21,1.24-1.24-.07-3.5,0-6.93,0-10.43,0-.37.08-.73.15-1.46,1.24,3.72,2.34,7.08,3.43,10.36.88,2.7.95,2.63,3.8,2.77,1.31.08,1.75-.36,2.11-1.53,1.17-3.79,2.48-7.44,3.73-11.24.21,3.87.21,7.66.21,11.53,0,.88.15,1.32,1.17,1.24,1.54-.07,3-.07,4.53,0,.8,0,1.17-.14,1.17-1.09-.08-6.57-.08-13.07,0-19.64,0-1-.3-1.09-1.17-1.09-2.34.07-4.67.07-7,0a1.38,1.38,0,0,0-1.53,1.09C23,11.1,21.68,14.23,20.37,17.59Zm74.09,2.7c4.23-.73,5.11-1.82,5.11-6V11.17a4.32,4.32,0,0,0-4.46-4.38c-5.4,0-10.8,0-16.2-.07-1,0-1.17.36-1.17,1.24V27.23c0,.87.15,1.31,1.17,1.24,1.53-.07,3-.07,4.53,0,1,.07,1.16-.37,1.16-1.24-.07-1.9-.07-3.73,0-5.62,0-.51-.51-1.46.44-1.54s2.12-.58,2.77.95c1,2.19,2.19,4.31,3.36,6.5.22.36.29.95.88.95h7.44C97.82,25.69,96.21,23.07,94.46,20.29Zm19.2,8.32h6.57c3.28,0,5-1.75,5-5V11.39a4.11,4.11,0,0,0-4.45-4.46h-14c-2.92,0-4.52,1.61-4.52,4.53V23.72c0,3.14,1.75,4.89,4.89,4.89Zm-77.16-11c0,3.21.07,6.43,0,9.64,0,1.09.29,1.38,1.39,1.38,4.45-.07,8.9,0,13.43,0,3.43,0,3.35,0,3.21-3.43,0-.8-.29-.95-1-.95H46.94c-3.73,0-3.73,0-3.51-3.72,0-.73.22-1,1-1,2.27.08,4.46,0,6.72,0,3.29,0,3.21,0,3.14-3.28,0-.88-.29-1-1.1-1-2.26.07-4.45,0-6.71,0-3.14,0-3.07,0-3.07-3.07,0-.8.22-1.09,1-1,2.27.07,4.46,0,6.72,0,3.07,0,3.07,0,3.07-3.07,0-1-.3-1.31-1.32-1.24q-7.55.1-15.11,0c-1.17,0-1.38.37-1.31,1.39C36.57,11.39,36.5,14.45,36.5,17.59ZM66.13,6.86H59.27c-3.35,0-3.35,0-3.14,3.29v.14c-.07.66.3.88.95.88,1.39,0,2.78.07,4.24,0,1.17-.07,1.38.29,1.31,1.39-.07,5,0,9.85-.07,14.81,0,1,.22,1.39,1.31,1.32a40,40,0,0,1,4.38,0c1,.07,1.24-.22,1.24-1.24-.07-4.24,0-8.54,0-12.78,0-3.43,0-3.43,3.43-3.43,3.22,0,3.14,0,3.14-3.21,0-1-.44-1.17-1.24-1.17Z"/><path class="f165d6d0-1045-4c84-9803-a53e98537056" d="M20.37,17.59c1.38-3.36,2.7-6.49,3.94-9.63.29-.73.58-1.17,1.53-1.1,2.34.07,4.67.07,7,0C33.65,6.86,34,7,34,8c-.08,6.57-.08,13.06,0,19.63,0,.95-.37,1.1-1.17,1.1a42.78,42.78,0,0,0-4.53,0c-1,.07-1.17-.37-1.17-1.24.08-3.8,0-7.67-.21-11.54-1.25,3.73-2.56,7.45-3.73,11.24-.36,1.17-.87,1.61-2.11,1.54-2.85-.15-2.85,0-3.8-2.78-1.09-3.28-2.19-6.64-3.43-10.36-.07.73-.15,1.09-.15,1.46,0,3.5-.07,6.93,0,10.44,0,.95-.29,1.24-1.24,1.24a45.47,45.47,0,0,0-4.67,0c-.73,0-.95-.22-.95-1V7.81c0-.66.22-.88.88-.88q3.72.12,7.44,0c.88,0,1,.44,1.24,1Q18.3,12.55,20.37,17.59Z"/><path class="f165d6d0-1045-4c84-9803-a53e98537056" d="M94.46,20.29c1.68,2.78,3.28,5.4,5.11,8.25H92.12c-.58,0-.66-.58-.87-.95a67.4,67.4,0,0,1-3.36-6.49c-.66-1.46-1.83-1-2.78-1s-.43,1-.43,1.53c-.08,1.9-.08,3.72,0,5.62,0,.88-.15,1.31-1.17,1.24-1.53-.07-3-.07-4.53,0-1,.07-1.17-.36-1.17-1.24V8c0-.88.08-1.24,1.17-1.24,5.4.07,10.81,0,16.21.07a4.32,4.32,0,0,1,4.45,4.38v3.14C99.64,18.47,98.69,19.56,94.46,20.29Zm-5.55-5h1.68c3.06,0,3.14-.15,2.85-3.14-.08-.73-.37-1-1.1-1h-7c-.36,0-.65.07-.73.58-.58,2.92-.07,3.58,2.85,3.58Z"/><path class="f165d6d0-1045-4c84-9803-a53e98537056" d="M113.66,28.61h-6.57c-3.14-.07-4.89-1.82-4.89-4.89V11.46c0-2.92,1.6-4.53,4.52-4.53h14a4.11,4.11,0,0,1,4.45,4.46V23.65c0,3.21-1.75,5-5,5Zm4.67-10.87V12.63c0-1.1-.44-1.46-1.46-1.46q-3.18.11-6.35,0c-1,0-1.54.36-1.46,1.46,0,3.28.07,6.64,0,9.93,0,1.16.43,1.75,1.68,1.67h6.05c1.25,0,1.68-.51,1.61-1.67C118.33,21,118.33,19.34,118.33,17.74Z"/><path class="f165d6d0-1045-4c84-9803-a53e98537056" d="M36.5,17.59c0-3.14.07-6.2,0-9.34,0-1,.22-1.46,1.31-1.39q7.56.1,15.11,0c1,0,1.32.22,1.32,1.24-.08,3.07,0,3.07-3.07,3.07H44.45c-.8,0-1,.22-1,1-.07,3.07-.07,3.07,3.07,3.07h6.71c.81,0,1.1.22,1.1,1,.07,3.28.15,3.28-3.14,3.28H44.45c-.73,0-.94.22-1,1-.14,3.72-.22,3.72,3.51,3.72h6.57c.73,0,1,.15,1,.95.14,3.43.22,3.43-3.21,3.43H37.89c-1.1,0-1.39-.29-1.39-1.38C36.57,24,36.5,20.8,36.5,17.59Z"/><path class="f165d6d0-1045-4c84-9803-a53e98537056" d="M66.13,6.86h8.55c.87,0,1.24.07,1.24,1.17,0,3.21.07,3.21-3.14,3.21-3.43,0-3.43,0-3.43,3.43V27.45c0,.95-.3,1.24-1.24,1.24a40,40,0,0,0-4.38,0c-1,.07-1.32-.29-1.32-1.32.08-5,0-9.85.08-14.81,0-1.1-.22-1.46-1.32-1.39-1.39.07-2.77,0-4.23,0-.66,0-1-.15-.95-.88v-.14c-.22-3.29-.22-3.29,3.14-3.29Z"/><path class="ea6efc49-4948-456d-ae7f-23d2bd977687" d="M88.91,15.33H87.52c-2.92,0-3.43-.66-2.84-3.58.07-.51.29-.58.73-.58h7c.73,0,1,.29,1.1,1,.29,3,.22,3.14-2.85,3.14Z"/><path class="ea6efc49-4948-456d-ae7f-23d2bd977687" d="M118.33,17.74v4.82c0,1.16-.44,1.75-1.61,1.67h-6.06c-1.17,0-1.68-.51-1.68-1.67.08-3.29.08-6.65,0-9.93,0-1.1.44-1.46,1.46-1.46q3.18.11,6.35,0c1.1,0,1.54.36,1.46,1.46C118.33,14.31,118.33,16.06,118.33,17.74Z"/></g></g></svg>