<svg xmlns="http://www.w3.org/2000/svg" viewBox="0 0 137.59 24.29"><defs><style>.fd947b18-9b61-4eb3-afad-e16cba76ac76{fill:#c1272d;}.eff329f8-9069-47bd-9999-b12480dfa9a3{fill:#29abe2;}</style></defs><title>20</title><g id="b47d7f75-b7b6-4352-97a7-6634ab80d806" data-name="Слой 2"><g id="efac1110-9f71-4644-9611-f44a9557d20e" data-name="Слой 1"><path class="fd947b18-9b61-4eb3-afad-e16cba76ac76" d="M0,2.64A1.51,1.51,0,0,1,1.27,1.15c1-.14,2-.26,2.93-.34C5.6.69,6.86.63,8,.63a20.83,20.83,0,0,1,3.77.31A8.11,8.11,0,0,1,14.64,2a5,5,0,0,1,1.82,2,6.23,6.23,0,0,1,.64,3A5.44,5.44,0,0,1,16.29,10a6.13,6.13,0,0,1-2.73,2.08,8.13,8.13,0,0,1,2.11,1.08A4.71,4.71,0,0,1,17.57,16a7.17,7.17,0,0,1,.17,1.59,6.14,6.14,0,0,1-.67,3,5.37,5.37,0,0,1-1.85,1.91,7.69,7.69,0,0,1-2.75,1,19.22,19.22,0,0,1-3.39.28H1.39C.46,23.86,0,23.48,0,22.71ZM6.33,8.09A1.51,1.51,0,0,0,7.84,9.6h.45a3.57,3.57,0,0,0,2.05-.45A2,2,0,0,0,11,7.41a2,2,0,0,0-.6-1.71,3.75,3.75,0,0,0-2.15-.45l-1,0c-.4,0-.7,0-.9,0Zm0,9A1.5,1.5,0,0,0,7.84,18.6h.67a3.84,3.84,0,0,0,2.32-.54,2,2,0,0,0,.7-1.74,2,2,0,0,0-.77-1.76A4.88,4.88,0,0,0,8.14,14h-.3a1.51,1.51,0,0,0-1.51,1.51Z"/><path class="fd947b18-9b61-4eb3-afad-e16cba76ac76" d="M22.94,5a4.81,4.81,0,0,1-2.73-.58,2.19,2.19,0,0,1-.81-1.93A2.2,2.2,0,0,1,20.21.58,4.81,4.81,0,0,1,22.94,0a4.83,4.83,0,0,1,2.74.58,2.2,2.2,0,0,1,.81,1.93,2.2,2.2,0,0,1-.81,1.93A4.87,4.87,0,0,1,22.94,5Zm3.17,17.71A1.14,1.14,0,0,1,25,23.86H21.21c-.93,0-1.39-.38-1.39-1.16V7.84A1.13,1.13,0,0,1,21,6.71h3.77c.92,0,1.39.38,1.39,1.16Z"/><path class="fd947b18-9b61-4eb3-afad-e16cba76ac76" d="M40.42,23.66a18,18,0,0,1-2.05.43,14,14,0,0,1-2,.13A12.85,12.85,0,0,1,33.66,24a4.94,4.94,0,0,1-2-.94,4.3,4.3,0,0,1-1.3-1.82,8,8,0,0,1-.46-2.89V11h-.75c-.93,0-1.39-.39-1.39-1.16V6.71H30.1l.3-4.17h4.37c.93,0,1.4.39,1.4,1.16v3H39c.93,0,1.39.39,1.39,1.16V11H36.16v7.24A1.55,1.55,0,0,0,37.93,20H39c.93,0,1.39.39,1.39,1.16v2.54Z"/><path class="eff329f8-9069-47bd-9999-b12480dfa9a3" d="M44,23.86c-.93,0-1.39-.38-1.39-1.16V1.35C44,1.11,45.44.93,46.88.81S49.62.63,50.75.63A19.15,19.15,0,0,1,54.87,1a7.38,7.38,0,0,1,2.9,1.29,5.28,5.28,0,0,1,1.7,2.35A10.32,10.32,0,0,1,60,8.23c0,2.73-.65,4.71-2,5.93S54.76,16,52.18,16a17,17,0,0,1-1.79-.08c-.57-.05-1-.12-1.38-.18v8.13Zm5-12.78c.3,0,.58.06.83.08l.72,0A7.13,7.13,0,0,0,52,11.07a2.13,2.13,0,0,0,1-.44,2,2,0,0,0,.57-.88,4.53,4.53,0,0,0,.19-1.41A4.48,4.48,0,0,0,53.52,7,1.92,1.92,0,0,0,53,6.19a1.74,1.74,0,0,0-.89-.4,6.64,6.64,0,0,0-1.26-.11h-.94l-.9,0v5.35Z"/><path class="eff329f8-9069-47bd-9999-b12480dfa9a3" d="M69.85,24.29a13.37,13.37,0,0,1-3.94-.51,6.09,6.09,0,0,1-2.67-1.61,6.37,6.37,0,0,1-1.51-2.79,15.15,15.15,0,0,1-.47-4.08,15.29,15.29,0,0,1,.47-4.11,6.46,6.46,0,0,1,1.51-2.8,6,6,0,0,1,2.67-1.58,15.73,15.73,0,0,1,7.87,0,6,6,0,0,1,2.68,1.58A6.57,6.57,0,0,1,78,11.19a15.7,15.7,0,0,1,.47,4.11A15.57,15.57,0,0,1,78,19.38a6.47,6.47,0,0,1-1.51,2.79,6.07,6.07,0,0,1-2.68,1.61A13.29,13.29,0,0,1,69.85,24.29Zm2.22-9.42a19.24,19.24,0,0,0-.09-2.1,3,3,0,0,0-.36-1.2,1.23,1.23,0,0,0-.68-.56,4.31,4.31,0,0,0-2.18,0,1.19,1.19,0,0,0-.68.56,2.84,2.84,0,0,0-.36,1.2,19.24,19.24,0,0,0-.09,2.1A19.86,19.86,0,0,0,67.72,17a2.9,2.9,0,0,0,.36,1.22,1.23,1.23,0,0,0,.68.56,4.31,4.31,0,0,0,2.18,0,1.27,1.27,0,0,0,.68-.56A2.9,2.9,0,0,0,72,17,19.86,19.86,0,0,0,72.07,14.87Z"/><path class="eff329f8-9069-47bd-9999-b12480dfa9a3" d="M83.79,17.47c.55-.09.82.93,1.51,1.27a5,5,0,0,0,2.55.39c.53-.05.91.05.91-.46a1.16,1.16,0,0,0-.11-.53,1.1,1.1,0,0,0-.42-.36,3.66,3.66,0,0,0-.81-.3c-.34-.08-.78-.18-1.34-.29a24.78,24.78,0,0,1-2.71-.71,6.74,6.74,0,0,1-1.88-1,3.26,3.26,0,0,1-1.11-1.43A6,6,0,0,1,80,11.87a6.27,6.27,0,0,1,.53-2.8A4.22,4.22,0,0,1,82,7.37a6.09,6.09,0,0,1,2.28-.86,17.31,17.31,0,0,1,2.9-.23,8.5,8.5,0,0,1,3.48.43C94.22,8.45,94,10.87,94,10.87c-1.12.53-2.4,1.41-3.19,1.38s-1.46-1.36-2.28-1.61a3,3,0,0,0-1.94.19.82.82,0,0,0-.66.87.94.94,0,0,0,.63.93,11.48,11.48,0,0,0,1.94.53c1.05.24,2,.48,2.77.72a6.26,6.26,0,0,1,1.94.94,3.7,3.7,0,0,1,1.13,1.46,5.71,5.71,0,0,1,.37,2.23,5.51,5.51,0,0,1-.61,2.6,4.67,4.67,0,0,1-1.63,1.78,5,5,0,0,1-2.1.9,14,14,0,0,1-2.84.22,6.55,6.55,0,0,1-3.68-.9c-2.59-1.59-3.88-3.59-3.88-4Z"/><path class="eff329f8-9069-47bd-9999-b12480dfa9a3" d="M107.9,23.66a18.49,18.49,0,0,1-2.05.43,14.09,14.09,0,0,1-2,.13,12.85,12.85,0,0,1-2.69-.26,5,5,0,0,1-2-.94,4.39,4.39,0,0,1-1.3-1.82,8,8,0,0,1-.45-2.89V11h-.76c-.93,0-1.39-.39-1.39-1.16V6.71h2.37l.31-4.17h4.37c.93,0,1.39.39,1.39,1.16v3h2.86c.93,0,1.4.39,1.4,1.16V11h-4.26v7.24A1.55,1.55,0,0,0,105.41,20h1.09c.93,0,1.39.39,1.39,1.16v2.54Z"/><path class="eff329f8-9069-47bd-9999-b12480dfa9a3" d="M118.16,23.86a12.08,12.08,0,0,1-4.4-.39,5.81,5.81,0,0,1-2.59-1.56,5.73,5.73,0,0,1-1.71-2.49A14.53,14.53,0,0,1,109,15.3q0-4.79,2.06-6.89t6.42-2.1a10.66,10.66,0,0,1,3.75.56,5.71,5.71,0,0,1,2.28,1.54,5.33,5.33,0,0,1,1.13,2.31,13.22,13.22,0,0,1,.3,2.89c0,.23,0,.5,0,.83s-.07.66-.13,1-.13.65-.21.94a3.61,3.61,0,0,1-.22.68h-9.5a2.69,2.69,0,0,0,.93,2.35c.61.44,1.4.15,2.73.15s2.06-1.42,2.7-1.45a4.56,4.56,0,0,1,2,.78c.93.54,1.16,1.13,1.16,1.51a8.37,8.37,0,0,1-1.87,1.92A8.9,8.9,0,0,1,118.16,23.86Zm1.38-11a3.38,3.38,0,0,0-.47-2.07,2.13,2.13,0,0,0-1.71-.57,2.6,2.6,0,0,0-2,.61,3.33,3.33,0,0,0-.55,2Z"/><path class="eff329f8-9069-47bd-9999-b12480dfa9a3" d="M137,6.31c1,0,.53.82.53,1.59l0,2.93c-.17,0,.15,0,0,0h0a21.68,21.68,0,0,0-2.65.29,1.34,1.34,0,0,0-1.36,1.31V23.86h-4.9c-.93,0-1.39-.38-1.39-1.16V8.86a3.66,3.66,0,0,1,1-1.47,3.88,3.88,0,0,1,2.8-.93C131.47,6.46,136.08,6.31,137,6.31Z"/></g></g></svg>