<svg xmlns="http://www.w3.org/2000/svg" viewBox="0 0 132.66 43.22"><defs><style>.eeb59cdf-cf5e-4531-be0d-7b814fd946b8{fill:#c34f49;}.b05a2839-c24e-4994-9a37-ae9936c5f815{fill:#8fb75c;}</style></defs><title>21</title><g id="a5336de4-a3ab-40fc-a9b6-ee6430c4d179" data-name="Слой 2"><g id="af39c961-5b76-4fab-96a2-413985fa846d" data-name="Слой 1"><path class="eeb59cdf-cf5e-4531-be0d-7b814fd946b8" d="M0,24.24V.27H5.54a5.43,5.43,0,0,1,4.2,1.52A6.25,6.25,0,0,1,11.15,6.2V9.31a6.25,6.25,0,0,1-1.41,4.41,5.45,5.45,0,0,1-4.19,1.51H3.76v9ZM3.76,11.82H5.55a1.74,1.74,0,0,0,1.39-.52,2.67,2.67,0,0,0,.45-1.75V6A2.67,2.67,0,0,0,6.94,4.2a1.77,1.77,0,0,0-1.39-.51H3.76Z"/><path class="eeb59cdf-cf5e-4531-be0d-7b814fd946b8" d="M12.75,18.49V6a6.23,6.23,0,0,1,1.49-4.45A5.52,5.52,0,0,1,18.48,0a5.54,5.54,0,0,1,4.24,1.57A6.27,6.27,0,0,1,24.19,6V18.49a6.27,6.27,0,0,1-1.47,4.45,5.58,5.58,0,0,1-4.24,1.57,5.56,5.56,0,0,1-4.24-1.57A6.23,6.23,0,0,1,12.75,18.49Zm3.77.23c0,1.59.65,2.38,2,2.38s1.95-.79,1.95-2.38V5.78c0-1.57-.65-2.35-1.95-2.35s-2,.78-2,2.35Z"/><path class="eeb59cdf-cf5e-4531-be0d-7b814fd946b8" d="M25.78.27h3.76l2,18.89L33.35.27h3.76L39,19.33l2-19.06h3.28l-2.65,24h-5L35.14,11.47,33.71,24.24H28.43Z"/><path class="eeb59cdf-cf5e-4531-be0d-7b814fd946b8" d="M45.9,24.24V.27H56.17V3.69h-6.5v6.69h5.16v3.41H49.67v7h6.5v3.43Z"/><path class="eeb59cdf-cf5e-4531-be0d-7b814fd946b8" d="M58.49,24.24V.27h5.68A5.78,5.78,0,0,1,68.4,1.62a5.71,5.71,0,0,1,1.34,4.16V7.67q0,3.71-2.46,4.87a3.5,3.5,0,0,1,1.92,1.84,8,8,0,0,1,.58,3.26v3.69a8.62,8.62,0,0,0,.35,2.91H66.37c-.09-.28-.15-.49-.19-.63a8,8,0,0,1-.11-.8c0-.4-.06-.9-.06-1.51V17.54a3.71,3.71,0,0,0-.58-2.36,2.29,2.29,0,0,0-1.87-.7H62.25v9.76Zm3.76-13.17h1.47a2.29,2.29,0,0,0,1.69-.58,2.73,2.73,0,0,0,.57-2V6.17a3.11,3.11,0,0,0-.45-1.88,1.7,1.7,0,0,0-1.45-.6H62.25Z"/><path class="eeb59cdf-cf5e-4531-be0d-7b814fd946b8" d="M77.52,24.24V.27h5.22l2.78,17.07L88.11.27h5.42v24H89.77V7.05l-2.6,17.19H83.6L80.79,7.33V24.24Z"/><path class="eeb59cdf-cf5e-4531-be0d-7b814fd946b8" d="M96.05,24.24V.27h10.27V3.69h-6.5v6.69H105v3.41H99.82v7h6.5v3.43Z"/><path class="eeb59cdf-cf5e-4531-be0d-7b814fd946b8" d="M107.66,24.24l3.81-24h5.81l3.82,24h-3.76l-.66-4.35h-4.61l-.65,4.35Zm4.9-7.61h3.63L114.37,4.57Z"/><path class="eeb59cdf-cf5e-4531-be0d-7b814fd946b8" d="M122.57,24.24V.27h3.76V20.81h6.2v3.43Z"/><path class="b05a2839-c24e-4994-9a37-ae9936c5f815" d="M1.16,42H5v1h-5V34.72H5v1.05H1.16v2.57H4.68v1H1.16Z"/><path class="b05a2839-c24e-4994-9a37-ae9936c5f815" d="M14.25,42a4.33,4.33,0,0,1,3.14-7.4,4.13,4.13,0,0,1,3.6,2l-1,.56a2.94,2.94,0,0,0-2.63-1.51,3.16,3.16,0,0,0-2.36.93,3.41,3.41,0,0,0,0,4.64,3.16,3.16,0,0,0,2.36.93A3,3,0,0,0,20,40.64l1,.54a4,4,0,0,1-1.49,1.5,4.25,4.25,0,0,1-2.11.54A4.21,4.21,0,0,1,14.25,42Z"/><path class="b05a2839-c24e-4994-9a37-ae9936c5f815" d="M30.18,35.83A4.33,4.33,0,1,1,36.31,42a4.36,4.36,0,0,1-6.13,0,4.38,4.38,0,0,1,0-6.13Zm5.36.75a3,3,0,0,0-2.29-.94,3.08,3.08,0,0,0-2.3.94,3.37,3.37,0,0,0,0,4.63,3.11,3.11,0,0,0,2.3.93,3.08,3.08,0,0,0,2.29-.93,3.35,3.35,0,0,0,0-4.63Z"/><path class="b05a2839-c24e-4994-9a37-ae9936c5f815" d="M59.23,34.72a2.69,2.69,0,1,1,0,5.37H57.31v3h-1.1V34.72Zm0,4.33a1.52,1.52,0,0,0,1.15-.46,1.7,1.7,0,0,0,.45-1.19,1.57,1.57,0,0,0-1.6-1.64H57.31v3.29Z"/><path class="b05a2839-c24e-4994-9a37-ae9936c5f815" d="M71.51,42h3.87v1h-5V34.72h4.92v1.05H71.51v2.57H75v1H71.51Z"/><path class="b05a2839-c24e-4994-9a37-ae9936c5f815" d="M84.62,35.83A4.33,4.33,0,1,1,90.75,42a4.36,4.36,0,0,1-6.13,0,4.38,4.38,0,0,1,0-6.13Zm5.36.75a3,3,0,0,0-2.29-.94,3.08,3.08,0,0,0-2.3.94,3.37,3.37,0,0,0,0,4.63,3.11,3.11,0,0,0,2.3.93A3.08,3.08,0,0,0,90,41.21a3.35,3.35,0,0,0,0-4.63Z"/><path class="b05a2839-c24e-4994-9a37-ae9936c5f815" d="M103.54,34.72a2.69,2.69,0,1,1,0,5.37h-1.92v3h-1.11V34.72Zm0,4.33a1.51,1.51,0,0,0,1.14-.46,1.7,1.7,0,0,0,.45-1.19,1.57,1.57,0,0,0-1.59-1.64h-1.92v3.29Z"/><path class="b05a2839-c24e-4994-9a37-ae9936c5f815" d="M115.81,42h3.6v1H114.7V34.72h1.11Z"/><path class="b05a2839-c24e-4994-9a37-ae9936c5f815" d="M128.78,42h3.88v1h-5V34.72h4.93v1.05h-3.82v2.57h3.52v1h-3.52Z"/></g></g></svg>