<svg xmlns="http://www.w3.org/2000/svg" viewBox="0 0 136.49 48.97"><defs><style>.a8c14792-c809-4ec5-aee0-7d3332b13496{fill:#444a67;}</style></defs><title>23</title><g id="e2f08a64-8602-4b16-9fb5-d8ea601b554d" data-name="Слой 2"><g id="a9efb49e-fc01-44eb-a507-2fd04f6a31bd" data-name="Слой 1"><path class="a8c14792-c809-4ec5-aee0-7d3332b13496" d="M73.46,15.22,64.52,4.62,60.81,6.08l1.34-1.73L57.72,0l-12,13.56,7.18,7.18,4.78-1.25L54.33,23l5.51,12.16L56.62,40,51.53,39l1.25,7.91h4.68l10.4-12.78ZM57.29,45.77,64.63,34l-1.76-5.41L66.58,34ZM64.63,6.85,72,15.37l-4.52,15.8,2.07-15.75Z"/><path class="a8c14792-c809-4ec5-aee0-7d3332b13496" d="M45.7,30.61l-.62,2.81,8-10L43.3,13.14l6.92-7.27L44.86,0,39.14,1.6l.26,2.18-2.07-.85L25.16,6.18,3.53,23.85l-1,4.87,6.66-5L0,43.55.05,47l9.56-.11-1-3.33L19,32.9,17.9,35.49H29.47l2.18-3.33-2.4,14.77h9.06l-.11-7.8ZM5.53,46.11l2.27-2,.73,2Zm21-37.33L13.69,20.3l-12,21.77L12.62,18.2l13-11.15L36.74,4l3.74,1.29-.06-2.85L42.79,8,37.16,5.59Zm15.88,6.31,8.27,8.43-3.83,5.2.58-3L37,38.32Z"/><polygon class="a8c14792-c809-4ec5-aee0-7d3332b13496" points="15.66 39.93 16.31 46.93 23.86 46.93 26.3 36.84 17.39 36.84 15.66 39.93"/><path class="a8c14792-c809-4ec5-aee0-7d3332b13496" d="M52.58,26.17l-7.64,9.67-.89,1.09-2.91,3.65v6.35h9.25l-1.64-6.69ZM49.09,46H45.31l2.61-4.87Z"/><path class="a8c14792-c809-4ec5-aee0-7d3332b13496" d="M69.66,33.68h4.49a10,10,0,0,0,2.35-.25,5.23,5.23,0,0,0,1.67-.72,3.82,3.82,0,0,0,1.11-1.12,5.44,5.44,0,0,0,.65-1.45,3.31,3.31,0,0,0,.15-1.05,1.87,1.87,0,0,0-.18-.78,1.71,1.71,0,0,0-.45-.56,2.94,2.94,0,0,0-.68-.38l0-.12a3.27,3.27,0,0,0,1.55-1,4.24,4.24,0,0,0,.82-1.58,2.83,2.83,0,0,0,.09-1.39,1.78,1.78,0,0,0-.54-.94,2.7,2.7,0,0,0-1-.54,5,5,0,0,0-1.37-.17h-5.2ZM75.8,24h1a1.22,1.22,0,0,1,.84.25.8.8,0,0,1,.1.83,1.45,1.45,0,0,1-1.5,1.16h-1Zm-1.31,4.59h1.05a1,1,0,0,1,.92.35,1.16,1.16,0,0,1,0,.95,1.63,1.63,0,0,1-.63,1,1.9,1.9,0,0,1-1.07.29h-1Z"/><path class="a8c14792-c809-4ec5-aee0-7d3332b13496" d="M87.75,31.81l-.11,1.87h3.51l.2-1.87,0-10.24-4,.09H84.94l-.59,2.42.74.13-4.4,7.6-.87,1.87h3.49l1-1.87Zm0-6.78.36-.83h.15l-.11.83-.23,4H85.75Z"/><path class="a8c14792-c809-4ec5-aee0-7d3332b13496" d="M97,29.89h.64A.57.57,0,0,1,98,30a.81.81,0,0,1,.18.33c0,.14,0,.3.06.47v.52l-.05,2.33h3.62V30.52a3,3,0,0,0-.16-1.16,1.05,1.05,0,0,0-.43-.52,3.39,3.39,0,0,0,1-.61,5.1,5.1,0,0,0,.83-.91,7.14,7.14,0,0,0,.61-1,6.3,6.3,0,0,0,.37-1,3.78,3.78,0,0,0,.15-1.77,1.88,1.88,0,0,0-.69-1.15,3.33,3.33,0,0,0-1.45-.61,11.14,11.14,0,0,0-2.13-.18H95.91l-3.45,12H95.9Zm1.56-5.45h1a2,2,0,0,1,.51.06.64.64,0,0,1,.37.2.59.59,0,0,1,.18.38,1.42,1.42,0,0,1-.07.61,3,3,0,0,1-.24.61,1.6,1.6,0,0,1-.36.49,1.5,1.5,0,0,1-.51.33,1.85,1.85,0,0,1-.69.12h-1Z"/><path class="a8c14792-c809-4ec5-aee0-7d3332b13496" d="M114.94,25.37a4,4,0,0,0,.16-1.78,1.94,1.94,0,0,0-.7-1.15,3.34,3.34,0,0,0-1.45-.6,11,11,0,0,0-2.12-.18h-4.07l-3.45,12h3.44l1.08-3.79h.65a.61.61,0,0,1,.39.13.81.81,0,0,1,.18.33,3.35,3.35,0,0,1,.06.47v.52l0,2.33h3.63l0-3.15a2.67,2.67,0,0,0-.16-1.16,1,1,0,0,0-.43-.52,3.28,3.28,0,0,0,1-.61,4.78,4.78,0,0,0,.83-.91,6.62,6.62,0,0,0,.61-1A5.91,5.91,0,0,0,114.94,25.37Zm-3.57.31a2.67,2.67,0,0,1-.23.6,1.68,1.68,0,0,1-.36.49,1.52,1.52,0,0,1-.51.34,1.9,1.9,0,0,1-.7.12h-1l.8-2.81h1a2.55,2.55,0,0,1,.51.06.71.71,0,0,1,.37.21.59.59,0,0,1,.18.38A1,1,0,0,1,111.37,25.68Z"/><path class="a8c14792-c809-4ec5-aee0-7d3332b13496" d="M115.39,32.71a2.36,2.36,0,0,0,1.22.91,6.25,6.25,0,0,0,2.12.31,7.72,7.72,0,0,0,2.33-.32,5.17,5.17,0,0,0,1.7-.93,5.51,5.51,0,0,0,1.2-1.46,8.66,8.66,0,0,0,.77-1.91l2.2-7.66h-3.51l-2.28,7.93a2.6,2.6,0,0,1-.25.62,1.6,1.6,0,0,1-.36.49,1.54,1.54,0,0,1-.47.31,1.68,1.68,0,0,1-.62.1.89.89,0,0,1-.53-.12.62.62,0,0,1-.26-.32,1.08,1.08,0,0,1-.05-.49,2.64,2.64,0,0,1,.11-.59L121,21.63h-3.51l-2.16,7.53a7.8,7.8,0,0,0-.33,2.06A2.94,2.94,0,0,0,115.39,32.71Z"/><path class="a8c14792-c809-4ec5-aee0-7d3332b13496" d="M131.34,24.44a2.57,2.57,0,0,1,1.08-.18l.61,0c.2,0,.42,0,.63.07s.46.07.7.13l.79.19L136.49,22c-.33-.12-.66-.22-1-.3a8.79,8.79,0,0,0-.89-.19,8.62,8.62,0,0,0-.87-.11c-.29,0-.58,0-.9,0a9.1,9.1,0,0,0-2,.22,5.25,5.25,0,0,0-1.65.67A4.25,4.25,0,0,0,128,23.43a5.58,5.58,0,0,0-.8,1.7,3.43,3.43,0,0,0-.15,1.26,2,2,0,0,0,.36,1,3.26,3.26,0,0,0,.89.83,8,8,0,0,0,1.46.71c.28.11.52.22.7.3a1.6,1.6,0,0,1,.42.27.56.56,0,0,1,.16.3,1,1,0,0,1,0,.4.91.91,0,0,1-.24.38,1.43,1.43,0,0,1-.41.26,2.44,2.44,0,0,1-.52.16,3.73,3.73,0,0,1-.59,0,8.33,8.33,0,0,1-1.57-.14,8.14,8.14,0,0,1-1.53-.45l-1.43,2.63a5,5,0,0,0,.61.3,5.71,5.71,0,0,0,.85.27,9,9,0,0,0,1.08.21c.41,0,.85.08,1.33.08a8.79,8.79,0,0,0,2.17-.25,6.13,6.13,0,0,0,1.77-.75,4.84,4.84,0,0,0,1.34-1.25,5.71,5.71,0,0,0,.85-1.79,2.84,2.84,0,0,0,.11-1.19,2,2,0,0,0-.34-.92,2.58,2.58,0,0,0-.74-.73,7.57,7.57,0,0,0-1.06-.61l-1-.49a4.92,4.92,0,0,1-.58-.33.62.62,0,0,1-.24-.29.7.7,0,0,1,0-.32A1,1,0,0,1,131.34,24.44Z"/><path class="a8c14792-c809-4ec5-aee0-7d3332b13496" d="M74.46,38.17a1.81,1.81,0,0,0-.41-1,2.1,2.1,0,0,0-1-.59,4.7,4.7,0,0,0-1.44-.19H68.72l-3,10.35H67L68,43h1.82a4.66,4.66,0,0,0,2.82-.84,4.61,4.61,0,0,0,1.63-2.56A3.66,3.66,0,0,0,74.46,38.17Zm-1.4,1.45a3.41,3.41,0,0,1-1.12,1.82,2.89,2.89,0,0,1-1.83.59h-1.8l1.34-4.68H71.4A1.85,1.85,0,0,1,73,37.9,1.92,1.92,0,0,1,73.06,39.62Z"/><path class="a8c14792-c809-4ec5-aee0-7d3332b13496" d="M82.48,37.07a2.07,2.07,0,0,0-.92-.53,5.1,5.1,0,0,0-1.38-.17H77.1l-3,10.37h1.19l1.21-4.19h1.76a.75.75,0,0,1,.33.07.74.74,0,0,1,.3.23,1.44,1.44,0,0,1,.25.4,2.74,2.74,0,0,1,.17.62l.42,2.88H81l-.43-3.19a2.38,2.38,0,0,0-.24-.84,1.19,1.19,0,0,0-.39-.47,2.65,2.65,0,0,0,1-.38,3.79,3.79,0,0,0,.8-.69,4,4,0,0,0,.59-.88,5.23,5.23,0,0,0,.39-1A3.33,3.33,0,0,0,82.86,38,1.36,1.36,0,0,0,82.48,37.07Zm-1,2.32a3.32,3.32,0,0,1-1,1.65,2.59,2.59,0,0,1-1.76.57h-2L78,37.36H80a1.8,1.8,0,0,1,1.46.48A1.71,1.71,0,0,1,81.49,39.39Z"/><path class="a8c14792-c809-4ec5-aee0-7d3332b13496" d="M92.19,41.54a9.2,9.2,0,0,0,.38-2.24,4,4,0,0,0-.3-1.7,2.26,2.26,0,0,0-1-1.06,3.44,3.44,0,0,0-1.71-.37,4.89,4.89,0,0,0-1.93.38A5.21,5.21,0,0,0,86,37.64a7.45,7.45,0,0,0-1.27,1.72,10.47,10.47,0,0,0-.91,2.25,8.88,8.88,0,0,0-.38,2.25,3.74,3.74,0,0,0,.3,1.68,2.17,2.17,0,0,0,1,1.05,3.63,3.63,0,0,0,1.72.36,4.9,4.9,0,0,0,1.92-.37A5.76,5.76,0,0,0,90,45.52a7.12,7.12,0,0,0,1.27-1.7A11.78,11.78,0,0,0,92.19,41.54Zm-1.26,0a11.44,11.44,0,0,1-.66,1.77,6.26,6.26,0,0,1-.91,1.4,4,4,0,0,1-1.17.91,3.23,3.23,0,0,1-1.43.32,2.23,2.23,0,0,1-1.24-.31,1.62,1.62,0,0,1-.64-.88,3.54,3.54,0,0,1-.11-1.38,9.59,9.59,0,0,1,.36-1.77,10,10,0,0,1,.71-1.85,6,6,0,0,1,.94-1.38,3.72,3.72,0,0,1,1.16-.88,3.12,3.12,0,0,1,1.36-.31,2.13,2.13,0,0,1,1.18.3,1.62,1.62,0,0,1,.67.86,3.24,3.24,0,0,1,.15,1.37A9.88,9.88,0,0,1,90.93,41.54Z"/><path class="a8c14792-c809-4ec5-aee0-7d3332b13496" d="M95.93,36.39,93.3,45.58c-.09.31-.18.58-.27.84a2.14,2.14,0,0,1-1,1.16A3.93,3.93,0,0,1,91,48l-.09,1a8,8,0,0,0,1.45-.43,3.27,3.27,0,0,0,1-.6,2.53,2.53,0,0,0,.63-.87,8.19,8.19,0,0,0,.46-1.24l2.7-9.46H95.93Z"/><polygon class="a8c14792-c809-4ec5-aee0-7d3332b13496" points="100.83 37.36 105.46 37.36 105.81 36.39 99.91 36.39 96.94 46.74 102.93 46.74 103.15 45.76 98.42 45.76 99.52 41.97 103.31 41.97 103.6 40.99 99.8 40.99 100.83 37.36"/><path class="a8c14792-c809-4ec5-aee0-7d3332b13496" d="M111.26,36.17a4.8,4.8,0,0,0-1.89.38,5.09,5.09,0,0,0-1.58,1.09,7.27,7.27,0,0,0-1.28,1.73,11.64,11.64,0,0,0-.92,2.29,8.22,8.22,0,0,0-.37,2.16,3.71,3.71,0,0,0,.28,1.66,2.3,2.3,0,0,0,1,1.09,3.29,3.29,0,0,0,1.7.38,7,7,0,0,0,1.39-.14,8,8,0,0,0,1.37-.44v-.93a9.28,9.28,0,0,1-1.17.35,5.64,5.64,0,0,1-1.22.14,2.13,2.13,0,0,1-1.25-.33,1.66,1.66,0,0,1-.63-.89,3.45,3.45,0,0,1-.11-1.36,9.92,9.92,0,0,1,.35-1.74,11.46,11.46,0,0,1,.71-1.86,6.57,6.57,0,0,1,.94-1.4,3.54,3.54,0,0,1,1.16-.87,3.09,3.09,0,0,1,1.34-.3,3.17,3.17,0,0,1,.72.08,2.64,2.64,0,0,1,.66.2l-.41,1.3h1.08l.58-2a5.21,5.21,0,0,0-1.12-.41A4.5,4.5,0,0,0,111.26,36.17Z"/><polygon class="a8c14792-c809-4ec5-aee0-7d3332b13496" points="121.3 36.39 114.68 36.39 114.46 37.38 117.1 37.38 114.42 46.74 115.63 46.74 118.32 37.38 120.94 37.38 121.3 36.39"/><path class="a8c14792-c809-4ec5-aee0-7d3332b13496" d="M126.69,36.28l-.57-.09-.58,0a5.88,5.88,0,0,0-1.48.18,4.26,4.26,0,0,0-1.21.52,3.52,3.52,0,0,0-.91.85,3.57,3.57,0,0,0-.56,1.16,3.33,3.33,0,0,0-.14,1,1.36,1.36,0,0,0,.27.78,2.63,2.63,0,0,0,.74.63,7.92,7.92,0,0,0,1.25.57,7.83,7.83,0,0,1,.87.37,2,2,0,0,1,.58.41,1,1,0,0,1,.25.55,2,2,0,0,1-.09.77,2.31,2.31,0,0,1-.39.82,2.44,2.44,0,0,1-.62.62,3.06,3.06,0,0,1-.81.4,3.34,3.34,0,0,1-1,.14,6,6,0,0,1-2.74-.66l-.56.91a2.69,2.69,0,0,0,.61.31,6,6,0,0,0,.75.24,5.4,5.4,0,0,0,.82.15A6,6,0,0,0,122,47a5.61,5.61,0,0,0,1.53-.2,3.82,3.82,0,0,0,1.27-.6,3.77,3.77,0,0,0,1-1,4.27,4.27,0,0,0,.61-1.33,2.59,2.59,0,0,0,.12-1.06,1.69,1.69,0,0,0-.33-.79,2.5,2.5,0,0,0-.74-.59,8.83,8.83,0,0,0-1.1-.51,7.16,7.16,0,0,1-1.09-.51,2,2,0,0,1-.56-.46.87.87,0,0,1-.15-.51,3.13,3.13,0,0,1,.12-.65,1.93,1.93,0,0,1,.89-1.15,3.14,3.14,0,0,1,1.71-.42,6,6,0,0,1,1,.09c.35.08.76.18,1.21.33l.52-1c-.26-.08-.5-.16-.71-.21A2.76,2.76,0,0,0,126.69,36.28Z"/></g></g></svg>