<svg xmlns="http://www.w3.org/2000/svg" viewBox="0 0 130.31 58.23"><defs><style>.e2829849-2369-44c8-a42c-66831c586cd9{fill:#c8c8c8;}</style></defs><title>24</title><g id="e9cab2e9-7ee7-4a9b-8ec6-31182689d30e" data-name="Слой 2"><g id="bbe7edb3-21f2-43d3-9cde-ca199c052fb4" data-name="Слой 1"><path class="e2829849-2369-44c8-a42c-66831c586cd9" d="M55.83,18.16A5.46,5.46,0,1,0,61,25.4h4.72V21.84H61a5.46,5.46,0,0,0-5.16-3.68m0,7.36a1.9,1.9,0,1,1,1.9-1.9,1.9,1.9,0,0,1-1.9,1.9"/><path class="e2829849-2369-44c8-a42c-66831c586cd9" d="M76.25,18.46V14H72.69v4.43a5.46,5.46,0,1,0,3.56,0m-1.78,7.06a1.9,1.9,0,1,1,1.9-1.9,1.91,1.91,0,0,1-1.9,1.9"/><path class="e2829849-2369-44c8-a42c-66831c586cd9" d="M54.05,10.62v4.72h3.57V10.62a5.47,5.47,0,1,0-3.57,0m1.79-7.06a1.9,1.9,0,1,1-1.9,1.9,1.9,1.9,0,0,1,1.9-1.9"/><path class="e2829849-2369-44c8-a42c-66831c586cd9" d="M74.47,10.92a5.46,5.46,0,1,0-5.15-7.24H64.6V7.24h4.72a5.46,5.46,0,0,0,5.15,3.68m0-7.36a1.9,1.9,0,1,1-1.9,1.9,1.9,1.9,0,0,1,1.9-1.9"/><path class="e2829849-2369-44c8-a42c-66831c586cd9" d="M79.25,58.23c-1.1,0-1.65-.24-1.65-1.52v-.18c0-1.26.55-1.5,1.65-1.5s1.7.24,1.7,1.5v.18c0,1.28-.56,1.52-1.7,1.52"/><path class="e2829849-2369-44c8-a42c-66831c586cd9" d="M88.86,58a15,15,0,0,1-2.08.2c-2,0-3.51-1-3.57-3.22V50H81.77V47.82h1.54l.44-2.53h2.41v2.53h2.68V50H86.16v4.63c0,.66.3,1.18,1,1.18a11.73,11.73,0,0,0,1.68-.1Z"/><path class="e2829849-2369-44c8-a42c-66831c586cd9" d="M93,53.77c0,1.54.56,1.94,1.28,2.08a9.59,9.59,0,0,0,4.27-.24v2.22a18.13,18.13,0,0,1-3.25.4C91.53,58.23,90,57.15,90,53c0-4.46,1.82-5.34,4.84-5.34,2.69,0,4.39.92,4.39,4.32a16.22,16.22,0,0,1-.12,1.81Zm3.41-1.91c.12-1.34-.42-1.94-1.45-1.94h-.08c-1,0-1.66.34-1.84,1.94Z"/><path class="e2829849-2369-44c8-a42c-66831c586cd9" d="M100.52,51.86c0-1.22.08-3.32,2.83-4a8.05,8.05,0,0,1,1.94-.24,15.62,15.62,0,0,1,4.47.66v7.59h1.32v2.16h-3.71l-.18-.58a6.49,6.49,0,0,1-2.82.76c-3,0-3.85-1.8-3.85-4.3Zm3,2.21c0,1.32.34,1.82,1.76,1.82a6,6,0,0,0,1.54-.28V50.08a11.5,11.5,0,0,0-1.54-.12c-1.54,0-1.76.66-1.76,2Z"/><path class="e2829849-2369-44c8-a42c-66831c586cd9" d="M130.31,55.89v2.16H126V52.28c0-1.32-.06-2.32-1.48-2.32a5.76,5.76,0,0,0-1.76.34,10.44,10.44,0,0,1,.06,1.16v4.43h1.34v2.16h-4.32V52.28c0-1.32-.07-2.32-1.48-2.32a5.75,5.75,0,0,0-1.7.3v5.63H118v2.16h-5.63V55.89h1.34V50h-1.5V47.82h3.89l.18.56a6.41,6.41,0,0,1,2.72-.74,4,4,0,0,1,3,.92,8.18,8.18,0,0,1,3.16-.92c3,0,3.85,1.4,3.83,3.9v4.35Z"/><polygon class="e2829849-2369-44c8-a42c-66831c586cd9" points="8.68 45.06 8.68 50.12 3.61 50.12 3.61 45.06 0 45.06 0 58.07 3.61 58.07 3.61 53.25 8.68 53.25 8.68 58.07 12.29 58.07 12.29 45.06 8.68 45.06"/><path class="e2829849-2369-44c8-a42c-66831c586cd9" d="M27.93,50.05c0-3.09-2-5-5.88-5H16.14v13h3.62v-3h3.13l1.95,3h3.81l-2.72-4.19a5.12,5.12,0,0,0,2-3.83M19.76,52V48.19H22.3c1.44,0,2.24.65,2.26,1.86S23.77,52,22.3,52Z"/><polygon class="e2829849-2369-44c8-a42c-66831c586cd9" points="42.26 45.06 38.53 51.71 34.79 45.06 31.06 45.06 31.06 58.07 34.67 58.07 34.67 50.85 37.25 55.23 39.8 55.23 42.38 50.85 42.38 58.07 46 58.07 46 45.06 42.26 45.06"/><polygon class="e2829849-2369-44c8-a42c-66831c586cd9" points="58.53 45.06 58.53 52.48 53.59 45.06 49.85 45.06 49.85 58.07 53.47 58.07 53.47 50.55 58.41 58.07 62.14 58.07 62.14 45.06 58.53 45.06"/><polygon class="e2829849-2369-44c8-a42c-66831c586cd9" points="77.2 45.06 73.59 45.06 70.69 50.27 67.8 45.06 64.07 45.06 68.89 53.35 68.89 58.07 72.5 58.07 72.5 53.35 77.2 45.06"/></g></g></svg>