<svg xmlns="http://www.w3.org/2000/svg" viewBox="0 0 147.7 25.14"><defs><style>.ae44c82c-8f63-4128-b43c-726d08e6059a{fill:#715746;}</style></defs><title>25</title><g id="fd1e8097-b8a3-40c8-a099-68f2d451fc08" data-name="Слой 2"><g id="beb8c181-2454-4b42-8a3c-c0325a952a2e" data-name="Слой 1"><path class="ae44c82c-8f63-4128-b43c-726d08e6059a" d="M0,.36H9l3.69,3.72v6l-1.81,2.17,2.47,2.44v6.58L9.64,25H1.74V4.41L3,3.65V3.42H0ZM7.9,11,9.64,8.92V5.33L7.73,3.42h-3V11ZM4.77,22H8.39L10.3,20V16.09L8.19,14H4.77Z"/><path class="ae44c82c-8f63-4128-b43c-726d08e6059a" d="M36.07,21.12l-3.72,3.95H27.61l-3.68-3.95V3.72L27.64,0h4.71l3.72,3.72Zm-3-1.15v-15l-2-2H28.86l-2,2V20l2,2.14h2.18Z"/><path class="ae44c82c-8f63-4128-b43c-726d08e6059a" d="M45.81.39h5.82l2.8,8.82,2.7,10.3h.1L56.57,9.05V.39H59.5V25H56.31l-3.85-12.1L50.22,4.8h-.1l.4,8.33V25H47.59V4.34l1.25-.75V3.36h-3Z"/><path class="ae44c82c-8f63-4128-b43c-726d08e6059a" d="M79.51,11.88v3H74V25H71V4.38l1.25-.76V3.39h-3v-3H81.06V6.22H78.13V3.39H74v8.49Z"/><path class="ae44c82c-8f63-4128-b43c-726d08e6059a" d="M94.65.3V20l1.87,2.07h2L100.37,20V.3h3V21.16l-3.52,3.95H95.21l-3.56-3.95V4l1.25-.75V3h-3V.3Z"/><path class="ae44c82c-8f63-4128-b43c-726d08e6059a" d="M117.13,20.14l1.94,2h2.17l1.94-2V16.22L114.33,10V3.85L117.85.16h4.61L126,3.85V12l-3-1.9V5.07l-1.85-1.94H119.1l-1.81,1.94V8.49l8.82,6.19v6.64l-3.62,3.82h-4.71l-3.62-3.82V12.39l3,2Z"/><path class="ae44c82c-8f63-4128-b43c-726d08e6059a" d="M145.85,11.29v3h-5.56V22h4.41V19.45h3V25H137.3V4.31l1.25-.76V3.32h-3v-3H147.4V6.15h-3V3.32h-4.12v8Z"/></g></g></svg>