<svg xmlns="http://www.w3.org/2000/svg" viewBox="0 0 126.95 75.02"><defs><style>.f15e251e-4ef5-4244-8e76-c5acc6ca519e{fill:#6b6966;}.bb9e90c7-f3f5-4942-987c-b631769b0866{fill:#6b6966;}.a3f681c0-42de-473d-b396-5023627a8f9b{fill:#b5933d;}.bb012a6b-94f5-467d-b41e-995b1814ea31{fill:#807347;}.bff12781-328a-40fa-b51e-e5d33ee4e165{fill:#8e7838;}.fa2aa1b5-8dd0-4874-a30c-c964356c95fc{fill:#9f812a;}</style></defs><title>26</title><g id="ee312064-c3e3-430c-a6e7-ffc3394d70c0" data-name="Слой 2"><g id="a354eafd-fcd7-47cc-9e7f-07a1727e7d06" data-name="Слой 1"><path class="f15e251e-4ef5-4244-8e76-c5acc6ca519e" d="M31.69,73.72V68.09h.61V71l2.06-2.89h.78l-1.81,2.35,1.86,3.26h-.72L33,70.92l-.65.82v2h-.63Z"/><path class="f15e251e-4ef5-4244-8e76-c5acc6ca519e" d="M37,73.74v-.56a.93.93,0,0,0,.23,0,.71.71,0,0,0,.2,0,.29.29,0,0,0,.14-.13.75.75,0,0,0,.11-.2,1,1,0,0,0,.08-.28,3.69,3.69,0,0,1,.05-.37c0-.12,0-.27,0-.46s0-.37,0-.55V68.11H41v5.63h-.61v-5H38.5v2.65a3.64,3.64,0,0,1,0,.43,2.68,2.68,0,0,1,0,.45c0,.13,0,.26,0,.42a1.94,1.94,0,0,1-.09.38,3,3,0,0,1-.15.32.57.57,0,0,1-.2.25,2.71,2.71,0,0,1-.25.17,1,1,0,0,1-.32,0C37.23,73.77,37.12,73.77,37,73.74Z"/><path class="f15e251e-4ef5-4244-8e76-c5acc6ca519e" d="M43.26,68.09h.67L45.24,72l1.21-3.9h.65l-1.55,4.69a1.85,1.85,0,0,1-.43.83.81.81,0,0,1-.6.24,1,1,0,0,1-.47-.08v-.55a.94.94,0,0,0,.42.07.37.37,0,0,0,.27-.11,1.09,1.09,0,0,0,.2-.42Z"/><path class="f15e251e-4ef5-4244-8e76-c5acc6ca519e" d="M49.23,73.72V68.09H52v.56H49.87v1.82h.74a2.43,2.43,0,0,1,.57.06,1.76,1.76,0,0,1,.49.16,1.33,1.33,0,0,1,.4.29,1.3,1.3,0,0,1,.25.47,2.63,2.63,0,0,1,.09.66,1.46,1.46,0,0,1-.45,1.2,1.87,1.87,0,0,1-1.25.39H49.23Zm.64-.58h.72a1.44,1.44,0,0,0,.9-.23.94.94,0,0,0,.29-.8,1.69,1.69,0,0,0-.09-.54.66.66,0,0,0-.27-.32,1.52,1.52,0,0,0-.42-.16,2.55,2.55,0,0,0-.58,0h-.54v2.09Z"/><path class="f15e251e-4ef5-4244-8e76-c5acc6ca519e" d="M55,73.72V68.09h.62v2.4h2.15v-2.4h.61v5.63h-.61V71.05H55.57v2.67Z"/><path class="f15e251e-4ef5-4244-8e76-c5acc6ca519e" d="M61.09,73.72V68.09h.61v2.4h.74a3.21,3.21,0,0,1,.58.05,1.89,1.89,0,0,1,.49.17,1.33,1.33,0,0,1,.4.29,1.53,1.53,0,0,1,.25.46,2.71,2.71,0,0,1,.09.67,1.47,1.47,0,0,1-.45,1.19,1.82,1.82,0,0,1-1.25.4Zm.63-.58h.72a1.46,1.46,0,0,0,.91-.23.94.94,0,0,0,.29-.8,1.69,1.69,0,0,0-.09-.54.63.63,0,0,0-.28-.32,1.46,1.46,0,0,0-.41-.16,2.55,2.55,0,0,0-.58,0h-.54v2.09Zm3.41.58V68.09h.62v5.63Z"/><path class="f15e251e-4ef5-4244-8e76-c5acc6ca519e" d="M68.49,73.72V68.09h.61v4.6c0,.15,0,.36,0,.63h0a1.2,1.2,0,0,0,.06-.23c0-.09,0-.2.07-.27a1.43,1.43,0,0,1,.09-.27l1.75-4.44H72v5.63h-.61V69.25c0-.2,0-.49,0-.87h0a5,5,0,0,1-.22.92l-1.75,4.42Zm.67-7h.32a.66.66,0,0,0,.72.54.71.71,0,0,0,.47-.12.69.69,0,0,0,.24-.42h.32a.85.85,0,0,1-.29.72,1.09,1.09,0,0,1-.75.24,1,1,0,0,1-.73-.25A.8.8,0,0,1,69.16,66.77Z"/><path class="f15e251e-4ef5-4244-8e76-c5acc6ca519e" d="M77.73,73.14h.38a4,4,0,0,0,.49-1.44,17.67,17.67,0,0,0,.1-2.18V68.07h3v5.07h.45V75h-.59V73.7H78.33V75h-.6Zm1,0h2.27V68.65H79.32v1.46A6.74,6.74,0,0,1,78.78,73.14Z"/><path class="f15e251e-4ef5-4244-8e76-c5acc6ca519e" d="M84.3,70.89a5.43,5.43,0,0,1,0-.58c0-.18,0-.36.07-.56a3.86,3.86,0,0,1,.13-.56,2.89,2.89,0,0,1,.21-.49,1.27,1.27,0,0,1,.33-.39,1.33,1.33,0,0,1,.47-.26,1.7,1.7,0,0,1,.61-.09,1.88,1.88,0,0,1,.49.06,1.14,1.14,0,0,1,.39.16,1.22,1.22,0,0,1,.31.25,1.55,1.55,0,0,1,.24.33,2.25,2.25,0,0,1,.18.38,2.52,2.52,0,0,1,.11.41c0,.15,0,.29.07.45a3.77,3.77,0,0,1,0,.45c0,.15,0,.29,0,.44a6.33,6.33,0,0,1,0,.65,4.57,4.57,0,0,1-.07.61,2.57,2.57,0,0,1-.13.56,1.85,1.85,0,0,1-.21.45,1.15,1.15,0,0,1-.33.36,2.56,2.56,0,0,1-.47.24,2.3,2.3,0,0,1-.61.09,2.24,2.24,0,0,1-.61-.09,1.3,1.3,0,0,1-.47-.24,1.15,1.15,0,0,1-.33-.36,2.27,2.27,0,0,1-.21-.45,3.32,3.32,0,0,1-.13-.56c0-.22,0-.41-.07-.61A6.33,6.33,0,0,1,84.3,70.89ZM85,70.8c0,.34,0,.65,0,.88a3.82,3.82,0,0,0,.11.69,1.87,1.87,0,0,0,.19.5.83.83,0,0,0,.35.29,1.17,1.17,0,0,0,.52.11,1.25,1.25,0,0,0,.45-.07,1.12,1.12,0,0,0,.33-.22,1.08,1.08,0,0,0,.21-.34,1.51,1.51,0,0,0,.13-.49,6,6,0,0,0,.07-.61c0-.22,0-.47,0-.76s0-.51,0-.72a3.09,3.09,0,0,0-.1-.62A1.65,1.65,0,0,0,87,69a1,1,0,0,0-.36-.31,1.16,1.16,0,0,0-.51-.11,1,1,0,0,0-.48.11.88.88,0,0,0-.35.31,1.42,1.42,0,0,0-.21.48,3.09,3.09,0,0,0-.11.62C85,70.29,85,70.53,85,70.8Z"/><path class="f15e251e-4ef5-4244-8e76-c5acc6ca519e" d="M90.58,73.72V68.09h1.1l1.1,4.39a4,4,0,0,1,.11.83h0s0-.11,0-.2a1.94,1.94,0,0,0,0-.22,1.15,1.15,0,0,1,0-.2,1.89,1.89,0,0,0,0-.23l1.12-4.39h1.1V73.7h-.61l0-4.64a2.88,2.88,0,0,1,0-.36c0-.16,0-.27,0-.34h0c0,.13-.07.25-.11.42a1.72,1.72,0,0,1-.09.32l-1.17,4.6h-.74l-1.17-4.65a2.44,2.44,0,0,0-.08-.27c0-.17-.07-.29-.1-.42h0a2.62,2.62,0,0,0,0,.38c0,.14,0,.27,0,.34V73.7h-.61Z"/><path class="bb9e90c7-f3f5-4942-987c-b631769b0866" d="M8.9,42.71v1.5H1.64v5H4.35c3.39,0,5.49,1.81,5.49,5.13s-2.17,5.11-5.49,5.11H0V42.71ZM1.66,58H4.37c2.33,0,3.86-1.25,3.86-3.61S6.79,50.7,4.37,50.7H1.66Z"/><path class="bb9e90c7-f3f5-4942-987c-b631769b0866" d="M23.84,49.57v3c0,4.73-2.06,7.14-5.56,7.14s-5.56-2.38-5.56-7.14v-3c0-4.73,2.1-7.15,5.56-7.15C21.91,42.42,23.84,44.87,23.84,49.57Zm-9.47-.17v3.38c0,3.57,1.35,5.47,3.89,5.47s3.9-2,3.9-5.47V49.4c0-3.57-1.33-5.48-3.9-5.48S14.37,45.88,14.37,49.4Z"/><path class="bb9e90c7-f3f5-4942-987c-b631769b0866" d="M36.4,42.71v1.5h-7v5.95h6.42v1.48H29.35V58h7.52v1.5H27.68V42.71Z"/><path class="bb9e90c7-f3f5-4942-987c-b631769b0866" d="M45.34,42.71c3.17,0,4.81,1.68,4.81,4.37a3.78,3.78,0,0,1-2,3.69,4,4,0,0,1,2.47,4c0,2.81-1.71,4.64-5.12,4.64H40.77V42.71Zm-2.93,7.45h3.14a2.69,2.69,0,0,0,3-3c0-2-1.14-3-3.21-3H42.39v6Zm0,7.82H45.5c2.2,0,3.48-1.2,3.48-3.2s-1.12-3.18-3.37-3.18h-3.2V58Z"/><path class="bb9e90c7-f3f5-4942-987c-b631769b0866" d="M59.65,42.67l5.19,16.79H63.06L61.74,55H55.68l-1.3,4.43H52.61l5.25-16.79ZM56.09,53.55h5.25l-2.61-8.91Z"/><path class="bb9e90c7-f3f5-4942-987c-b631769b0866" d="M83.78,42.71V58h2v5.27H84.14L84,59.46H73.65l-.11,3.77H72V58h1c1.21-1.19,1.79-2.91,1.79-5.33V42.71Zm-7.49,1.5v8.51a8.38,8.38,0,0,1-1.39,5.22h7.2V44.21Z"/><path class="bb9e90c7-f3f5-4942-987c-b631769b0866" d="M94.23,42.67l5.19,16.79H97.64L96.32,55H90.26L89,59.46H87.19l5.25-16.79ZM90.69,53.55h5.25l-2.62-8.93Z"/><path class="bb9e90c7-f3f5-4942-987c-b631769b0866" d="M102.87,42.71V48.5c0,3,1.25,4.26,3.34,4.26s3.57-1.52,3.57-4v-6h1.66V59.44h-1.66V52.38a4.44,4.44,0,0,1-3.79,1.9c-2.94,0-4.78-1.86-4.78-5.74V42.71Z"/><path class="bb9e90c7-f3f5-4942-987c-b631769b0866" d="M121.75,42.67,127,59.46h-1.79L123.84,55h-6.06l-1.3,4.43h-1.77L120,42.67Zm-3.56,10.88h5.25l-2.61-8.93Z"/><polygon class="a3f681c0-42de-473d-b396-5023627a8f9b" points="41.17 2.51 31.42 3.27 31.42 31.62 41.17 31.62 41.17 2.51"/><polygon class="bb012a6b-94f5-467d-b41e-995b1814ea31" points="63.4 5.29 63.4 6.5 65.51 7.24 63.4 5.29"/><polygon class="bb012a6b-94f5-467d-b41e-995b1814ea31" points="73.16 11.71 63.4 8.3 63.4 20.9 73.16 24.33 73.16 11.71"/><polygon class="bb012a6b-94f5-467d-b41e-995b1814ea31" points="63.4 22.7 63.4 23.91 66.14 23.66 63.4 22.7"/><polygon class="bb012a6b-94f5-467d-b41e-995b1814ea31" points="63.4 25.63 63.4 31.62 73.16 31.62 73.16 26.13 70.01 25.01 63.4 25.63"/><polygon class="bb012a6b-94f5-467d-b41e-995b1814ea31" points="73.16 0 63.4 0.78 63.4 3 69.56 8.64 73.16 9.91 73.16 0"/><polygon class="bb012a6b-94f5-467d-b41e-995b1814ea31" points="84.44 1.64 75.09 6.26 75.09 16.04 79.59 13.82 84.86 5.25 84.86 1.7 84.44 1.64"/><polygon class="bb012a6b-94f5-467d-b41e-995b1814ea31" points="82.46 12.42 84.86 11.23 84.86 8.5 82.46 12.42"/><polygon class="bb012a6b-94f5-467d-b41e-995b1814ea31" points="75.09 0.22 75.09 4.37 81.5 1.19 75.09 0.22"/><polygon class="bb012a6b-94f5-467d-b41e-995b1814ea31" points="75.09 31.62 84.86 31.62 84.86 13.12 75.09 17.94 75.09 31.62"/><polygon class="bff12781-328a-40fa-b51e-e5d33ee4e165" points="95.53 16.68 95.53 14.06 91.68 15.97 95.53 16.68"/><polygon class="bff12781-328a-40fa-b51e-e5d33ee4e165" points="95.53 3.32 85.76 1.84 85.76 17.38 95.53 12.54 95.53 3.32"/><polygon class="bff12781-328a-40fa-b51e-e5d33ee4e165" points="89.64 16.98 89.64 16.96 85.76 18.9 85.76 31.62 95.53 31.62 95.53 18.05 89.64 16.98"/><polygon class="bff12781-328a-40fa-b51e-e5d33ee4e165" points="52.73 13.46 52.73 14.67 55.39 14.38 52.73 13.46"/><polygon class="bff12781-328a-40fa-b51e-e5d33ee4e165" points="52.73 16.04 52.73 31.62 62.5 31.62 62.5 16.91 58.35 15.45 52.73 16.04"/><polygon class="bff12781-328a-40fa-b51e-e5d33ee4e165" points="62.5 15.47 62.5 0.83 52.73 1.61 52.73 12 62.5 15.47"/><polygon class="fa2aa1b5-8dd0-4874-a30c-c964356c95fc" points="42.12 2.44 42.09 2.44 42.09 4.28 45.05 5.29 42.12 2.44"/><polygon class="fa2aa1b5-8dd0-4874-a30c-c964356c95fc" points="51.83 7.6 51.83 1.68 43.48 2.33 47.28 6.05 51.83 7.6"/><polygon class="fa2aa1b5-8dd0-4874-a30c-c964356c95fc" points="42.09 31.62 51.83 31.62 51.83 8.68 42.09 5.36 42.09 31.62"/></g></g></svg>