<svg xmlns="http://www.w3.org/2000/svg" viewBox="0 0 136.38 35.18"><defs><style>.be5f8db6-f807-4667-9856-25c47f296360{fill:#5b79ad;}</style></defs><title>28</title><g id="ae4c14e6-2ad1-4f50-932e-c39f0415bb0f" data-name="Слой 2"><g id="a71543ea-df46-4c20-8dac-43d6d5033f1f" data-name="Слой 1"><path class="be5f8db6-f807-4667-9856-25c47f296360" d="M5,27.75l1.62-5.33H13l1.48,5.33h5.45L14.25,7.68a2,2,0,0,0-2.36-1.74H4V7.8h.62c1.12,0,1.49.25,1.49,1a5,5,0,0,1-.37,1.86L0,27.75ZM12.26,19H7.31l2.6-8.67L12.26,19Z"/><path class="be5f8db6-f807-4667-9856-25c47f296360" d="M26.51,27.75V7.55A1.44,1.44,0,0,0,24.9,5.94H20.07V7.8h.25c1,0,1.36.37,1.36,1.24v18.7h4.83Z"/><path class="be5f8db6-f807-4667-9856-25c47f296360" d="M35.3,27.75V7.55a1.49,1.49,0,0,0-1.61-1.61H28.86V7.8h.25c.87,0,1.36.37,1.36,1.24v18.7H35.3Z"/><path class="be5f8db6-f807-4667-9856-25c47f296360" d="M44.1,27.75V13a1.46,1.46,0,0,0-1.49-1.61h-5v1.73h.24c1,0,1.37.49,1.37,1.36V27.75Zm.12-19.82c0-1.49-1-2.36-2.85-2.36s-2.85.87-2.85,2.36,1.12,2.23,2.85,2.23,2.85-.75,2.85-2.23Z"/><path class="be5f8db6-f807-4667-9856-25c47f296360" d="M48.81,15.85l.49-.12a12.4,12.4,0,0,1,2.85-.87,6.81,6.81,0,0,1,1.49-.12c1.48,0,2.1.49,2.1,2v.37c-2.35.38-3,.5-4.08.75a8.92,8.92,0,0,0-2,.62c-2,.86-2.84,2.35-2.84,4.83,0,3.09,1.23,4.58,4,4.58a6.46,6.46,0,0,0,3.1-.74,11.76,11.76,0,0,0,2-1.49v.5c0,1.11.49,1.61,1.36,1.61h4.58V26h-.12c-.87,0-1.36-.37-1.36-1.24v-8c0-4.09-1.37-5.57-5.45-5.57a19.67,19.67,0,0,0-3.84.49,11.4,11.4,0,0,0-3.35,1.24l1.12,3Zm6.93,4V23a4.29,4.29,0,0,1-3,1.49c-1.12,0-1.49-.5-1.49-1.74s.37-1.86,1.36-2.23a12.92,12.92,0,0,1,3.1-.74Z"/><path class="be5f8db6-f807-4667-9856-25c47f296360" d="M69.24,27.75V16.6a4.11,4.11,0,0,1,3-1.36c1.11,0,1.48.49,1.48,2.1V27.75h4.71V16.6c0-2.35-.25-3.22-.87-4.09a3.74,3.74,0,0,0-3.09-1.24c-1.86,0-3.35.62-5.45,2.48v-.87c0-1-.37-1.48-1.36-1.48H62.8v1.73h.25a1.18,1.18,0,0,1,1.36,1.36V27.75Z"/><path class="be5f8db6-f807-4667-9856-25c47f296360" d="M93.52,24.53H86.21l7.07-9.79V11.4H82.87c-1.24,0-1.73.49-1.73,1.73v3h1.73v-.37c0-.86.37-1.24,1.36-1.24h3.84L81,24.28v3.47H93.52V24.53Z"/><path class="be5f8db6-f807-4667-9856-25c47f296360" d="M136.38,17.59C136.38,7.43,128.83,0,118.67,0S101.2,7.43,101.2,17.59a17.59,17.59,0,1,0,35.18,0Zm-3,0c0,8.55-6.19,14.86-14.74,14.86s-14.49-6.31-14.49-14.86,6.07-14.87,14.49-14.87,14.74,6.2,14.74,14.87ZM114,26.75V10.9h-2.6a1.72,1.72,0,0,0-2,2V26.75Zm9.54,0h4.58V12.88c0-1.36-.49-2-2-2h-2.6V26.75Zm-2.48,0V8.42c0-1.49-.49-2-2-2h-4.21v2h.37c1,0,1.24.25,1.24,1.24V26.75Z"/></g></g></svg>