<svg xmlns="http://www.w3.org/2000/svg" viewBox="0 0 163.83 41"><defs><style>.fb96f4bd-4fb7-4a54-8395-63d126556d06{fill:#e32427;}.ada5ce67-42e7-4334-8a71-592520c0dbd4{fill:#fff;}.a8916b9f-21ac-4541-9712-595f4ce62856{fill:#c8c8c8;}</style></defs><title>29</title><g id="acec75dc-0a7c-4a48-83b2-6e8d9a59da19" data-name="Слой 2"><g id="fe99d52c-7766-4837-804c-5f99b51ef618" data-name="Слой 1"><rect class="fb96f4bd-4fb7-4a54-8395-63d126556d06" width="41.01" height="41"/><path class="ada5ce67-42e7-4334-8a71-592520c0dbd4" d="M17.49,17.41a6.86,6.86,0,0,1,10.12-2.47L26,17.16a4.14,4.14,0,0,0-5.61.82A4.09,4.09,0,0,0,26,23.82l1.6,2.25A6.73,6.73,0,0,1,22,27.14a6.81,6.81,0,0,1-4.51-3.59,6.84,6.84,0,0,1-4.19,3.52A6.76,6.76,0,0,1,9,26.93a6.87,6.87,0,1,1,8.53-9.52ZM7.26,20.49a4.08,4.08,0,1,0,4.1-4.07A4.07,4.07,0,0,0,7.26,20.49Z"/><path class="ada5ce67-42e7-4334-8a71-592520c0dbd4" d="M36.4,27.2l-.27,0c-1.17,0-2.33,0-3.5,0a.51.51,0,0,1-.37-.16L27,20.51l.63-.8c1.51-1.9,3-3.8,4.53-5.7a.59.59,0,0,1,.5-.25H36l.38,0c-2,2.26-4,4.47-6,6.71Z"/><path class="a8916b9f-21ac-4541-9712-595f4ce62856" d="M47.77,10a2.62,2.62,0,0,1-2.88-2.85V5.27a2.61,2.61,0,0,1,2.88-2.83,2.6,2.6,0,0,1,2.87,2.83V7.16A2.62,2.62,0,0,1,47.77,10Zm0-1.17a1.47,1.47,0,0,0,1.61-1.68V5.29c0-1.11-.55-1.7-1.61-1.7a1.49,1.49,0,0,0-1.63,1.7V7.16A1.48,1.48,0,0,0,47.77,8.84Z"/><path class="a8916b9f-21ac-4541-9712-595f4ce62856" d="M56,5.41c1.73,0,2.59.65,2.59,2.2s-1,2.27-2.53,2.27H53.33c-.09,0-.14-.05-.14-.15v-7c0-.1.05-.15.14-.15h4.48a.14.14,0,0,1,.15.15v.82a.14.14,0,0,1-.15.16H54.42V5.41Zm0,3.35c.81,0,1.3-.29,1.3-1.15S56.91,6.53,56,6.53H54.42V8.76Z"/><path class="a8916b9f-21ac-4541-9712-595f4ce62856" d="M61.76,9.88a.13.13,0,0,1-.15-.15v-6H60.26c-.09,0-.14-.05-.14-.16V2.71c0-.1.05-.15.14-.15h2.45c.09,0,.14,0,.14.15V5.09h1.42c1.6,0,2.6.77,2.6,2.38a2.28,2.28,0,0,1-2.53,2.41Zm1.09-1.15h1.48a1.12,1.12,0,0,0,1.26-1.26c0-.78-.39-1.22-1.32-1.22H62.85V8.73Z"/><path class="a8916b9f-21ac-4541-9712-595f4ce62856" d="M70.37,8.76h3.28c.1,0,.16.05.16.14v.83a.14.14,0,0,1-.16.15H69.27c-.09,0-.14-.05-.14-.15v-7c0-.1.05-.15.14-.15h4.24a.13.13,0,0,1,.15.15v.83a.13.13,0,0,1-.15.15H70.37V5.6h2.87a.14.14,0,0,1,.16.16v.82a.14.14,0,0,1-.16.15H70.37Z"/><path class="a8916b9f-21ac-4541-9712-595f4ce62856" d="M75.7,11.27a.13.13,0,0,1-.15-.15V8.89a.13.13,0,0,1,.15-.15H76c.7-.22,1-1.4,1.29-6,0-.11.06-.16.17-.16h4c.11,0,.16,0,.16.15v6h.55a.14.14,0,0,1,.15.15v2.23a.14.14,0,0,1-.15.15h-.92a.14.14,0,0,1-.16-.15V9.88H76.77v1.24c0,.1,0,.15-.14.15Zm1.94-2.53h2.73v-5H78.46C78.34,6.32,78.16,7.91,77.64,8.74Z"/><path class="a8916b9f-21ac-4541-9712-595f4ce62856" d="M89.16,9.88c-.09,0-.14-.05-.14-.15V7.38c0-.87,0-1.93.09-2.81h0c-.29.6-.72,1.4-1.09,2L86.05,9.78a.19.19,0,0,1-.18.1h-1a.13.13,0,0,1-.15-.15v-7a.13.13,0,0,1,.15-.15h.92a.14.14,0,0,1,.16.15v2.5c0,.86,0,1.91-.1,2.78h0c.28-.55.67-1.24,1-1.86l2-3.48a.21.21,0,0,1,.18-.1h1c.09,0,.14,0,.14.15v7c0,.1,0,.15-.14.15Z"/><path class="a8916b9f-21ac-4541-9712-595f4ce62856" d="M97.15,2.71c0-.1,0-.15.14-.15h.94c.09,0,.14,0,.14.15v7c0,.1-.05.15-.14.15h-.94c-.09,0-.14-.05-.14-.15v-3H94.26v3a.13.13,0,0,1-.15.15h-.94c-.09,0-.14-.05-.14-.15v-7c0-.1,0-.15.14-.15h.94a.13.13,0,0,1,.15.15v2.9h2.89Z"/><path class="a8916b9f-21ac-4541-9712-595f4ce62856" d="M102.4,8.76h3.29c.1,0,.16.05.16.14v.83a.14.14,0,0,1-.16.15h-4.38c-.09,0-.14-.05-.14-.15v-7c0-.1,0-.15.14-.15h4.24a.13.13,0,0,1,.15.15v.83a.13.13,0,0,1-.15.15H102.4V5.6h2.88a.14.14,0,0,1,.16.16v.82a.14.14,0,0,1-.16.15H102.4Z"/><path class="a8916b9f-21ac-4541-9712-595f4ce62856" d="M112.4,2.71c0-.1,0-.15.14-.15h.94c.09,0,.14,0,.14.15v7c0,.1-.05.15-.14.15h-.94c-.09,0-.14-.05-.14-.15v-3h-2.89v3a.13.13,0,0,1-.15.15h-.94c-.09,0-.14-.05-.14-.15v-7c0-.1,0-.15.14-.15h.94a.13.13,0,0,1,.15.15v2.9h2.89Z"/><path class="a8916b9f-21ac-4541-9712-595f4ce62856" d="M120.53,2.71a.14.14,0,0,1,.15-.15h.94c.09,0,.14,0,.14.15v7c0,.1-.05.15-.14.15h-.94a.13.13,0,0,1-.15-.15v-3h-2.89v3c0,.1,0,.15-.14.15h-.94c-.09,0-.14-.05-.14-.15v-7c0-.1,0-.15.14-.15h.94c.09,0,.14,0,.14.15v2.9h2.89Z"/><path class="a8916b9f-21ac-4541-9712-595f4ce62856" d="M123.91,9.88c-.12,0-.16-.06-.13-.17l2.46-7a.16.16,0,0,1,.17-.12h1.16a.16.16,0,0,1,.17.12l2.46,7c0,.11,0,.17-.13.17h-1a.16.16,0,0,1-.17-.12l-.51-1.55h-2.8l-.5,1.55a.18.18,0,0,1-.18.12Zm2-2.78H128l-1-3.19h0Z"/><path class="a8916b9f-21ac-4541-9712-595f4ce62856" d="M134.5,2.56h2.59a.13.13,0,0,1,.15.15v7a.13.13,0,0,1-.15.15h-.94a.14.14,0,0,1-.15-.15V7.24h-1.13l-1.72,2.54a.2.2,0,0,1-.18.1h-1.19c-.11,0-.18-.07-.09-.18l1.86-2.59a2.11,2.11,0,0,1-1.62-2.18A2.27,2.27,0,0,1,134.5,2.56ZM136,6.12V3.72h-1.48c-.87,0-1.33.42-1.33,1.23s.46,1.17,1.33,1.17Z"/><path class="a8916b9f-21ac-4541-9712-595f4ce62856" d="M47.59,23.67a2.54,2.54,0,0,1-2.83-2.61V18.73a2.55,2.55,0,0,1,2.81-2.63,3.87,3.87,0,0,1,2.19.69.12.12,0,0,1,0,.2l-.48.7c-.05.09-.12.09-.21,0a2.79,2.79,0,0,0-1.53-.46A1.4,1.4,0,0,0,46,18.74V21a1.4,1.4,0,0,0,1.58,1.47,3,3,0,0,0,1.7-.53c.09-.06.16,0,.21,0l.48.7a.14.14,0,0,1,0,.21A3.84,3.84,0,0,1,47.59,23.67Z"/><path class="a8916b9f-21ac-4541-9712-595f4ce62856" d="M52.82,23.55c-.1,0-.16-.07-.1-.17l1-2.15L51.41,16.4c-.06-.1,0-.17.1-.17h1a.18.18,0,0,1,.19.12l1.57,3.59,1.46-3.59a.16.16,0,0,1,.17-.12h1c.1,0,.16.07.11.17l-3.05,7a.17.17,0,0,1-.19.12Z"/><path class="a8916b9f-21ac-4541-9712-595f4ce62856" d="M58.06,24.93c-.11,0-.16-.05-.16-.14V22.56a.14.14,0,0,1,.16-.16h.25c.7-.21,1-1.39,1.29-6a.15.15,0,0,1,.17-.16h4c.11,0,.16.05.16.15v6h.55a.15.15,0,0,1,.16.16v2.23a.14.14,0,0,1-.16.14h-.92c-.1,0-.16-.05-.16-.14V23.55H59.12v1.24a.13.13,0,0,1-.14.14ZM60,22.4h2.74v-5H60.81C60.69,20,60.52,21.57,60,22.4Z"/><path class="a8916b9f-21ac-4541-9712-595f4ce62856" d="M69.61,23.67a2.62,2.62,0,0,1-2.88-2.85V18.94a2.88,2.88,0,0,1,5.76,0v1.88A2.62,2.62,0,0,1,69.61,23.67Zm0-1.16a1.48,1.48,0,0,0,1.62-1.68V19A1.62,1.62,0,1,0,68,19v1.88A1.48,1.48,0,0,0,69.61,22.51Z"/><path class="a8916b9f-21ac-4541-9712-595f4ce62856" d="M77.63,23.67a2.54,2.54,0,0,1-2.83-2.61V18.73a2.55,2.55,0,0,1,2.81-2.63,3.87,3.87,0,0,1,2.19.69.12.12,0,0,1,0,.2l-.48.7c0,.09-.12.09-.21,0a2.79,2.79,0,0,0-1.53-.46A1.4,1.4,0,0,0,76,18.74V21a1.4,1.4,0,0,0,1.58,1.47,3,3,0,0,0,1.7-.53c.09-.06.16,0,.21,0l.48.7a.14.14,0,0,1,0,.21A3.84,3.84,0,0,1,77.63,23.67Z"/><path class="a8916b9f-21ac-4541-9712-595f4ce62856" d="M87,16.23a.14.14,0,0,1,.15.15v.84a.13.13,0,0,1-.15.14H85v6c0,.1,0,.15-.14.15h-1c-.09,0-.14-.05-.14-.15v-6H81.65a.13.13,0,0,1-.15-.14v-.84a.14.14,0,0,1,.15-.15Z"/><path class="a8916b9f-21ac-4541-9712-595f4ce62856" d="M92,16.23a2.33,2.33,0,0,1,2.57,2.5A2.32,2.32,0,0,1,92,21.23H90.46V23.4c0,.1,0,.15-.14.15h-.94c-.09,0-.14-.05-.14-.15v-7c0-.1.05-.15.14-.15Zm-.14,3.86c1,0,1.45-.43,1.45-1.36s-.46-1.36-1.45-1.36H90.46v2.72Z"/><path class="a8916b9f-21ac-4541-9712-595f4ce62856" d="M99.45,23.67a2.62,2.62,0,0,1-2.88-2.85V18.94a2.88,2.88,0,0,1,5.76,0v1.88A2.62,2.62,0,0,1,99.45,23.67Zm0-1.16a1.48,1.48,0,0,0,1.62-1.68V19a1.62,1.62,0,1,0-3.24,0v1.88A1.48,1.48,0,0,0,99.45,22.51Z"/><path class="a8916b9f-21ac-4541-9712-595f4ce62856" d="M109.35,23.55c-.09,0-.14-.05-.14-.15V21.05c0-.87,0-1.94.09-2.82h0a22.18,22.18,0,0,1-1.09,2l-1.94,3.2a.18.18,0,0,1-.17.11h-1c-.1,0-.15-.05-.15-.16v-7a.13.13,0,0,1,.15-.15H106c.11,0,.16.05.16.15v2.5c0,.86,0,1.9-.09,2.78h0c.28-.56.67-1.24,1-1.86l2-3.48a.22.22,0,0,1,.18-.11h1c.09,0,.14.06.14.16v7c0,.1-.05.15-.14.15Z"/><path class="a8916b9f-21ac-4541-9712-595f4ce62856" d="M118,16.23a.14.14,0,0,1,.16.15v.84c0,.09-.06.14-.16.14H116v6c0,.1,0,.15-.14.15h-.94a.14.14,0,0,1-.15-.15v-6h-2.06c-.1,0-.16-.05-.16-.14v-.84a.14.14,0,0,1,.16-.15Z"/><path class="a8916b9f-21ac-4541-9712-595f4ce62856" d="M121.48,22.42h3.29a.13.13,0,0,1,.15.15v.83a.13.13,0,0,1-.15.15h-4.39c-.09,0-.14-.05-.14-.15v-7c0-.1.05-.15.14-.15h4.25a.13.13,0,0,1,.15.15v.83c0,.09,0,.14-.15.14h-3.15v1.92h2.88a.13.13,0,0,1,.15.15v.82a.13.13,0,0,1-.15.15h-2.88Z"/><path class="a8916b9f-21ac-4541-9712-595f4ce62856" d="M126.81,23.58c-.1,0-.15,0-.15-.14v-.85a.14.14,0,0,1,.14-.16c.6,0,.85-.36,1.06-1.49a33.77,33.77,0,0,0,.35-4.56.14.14,0,0,1,.16-.15h4.19c.09,0,.14.05.14.15v7c0,.1,0,.15-.14.15h-.95c-.09,0-.14-.05-.14-.15v-6H129.4a25.14,25.14,0,0,1-.38,3.89C128.68,23,128.05,23.54,126.81,23.58Z"/><path class="a8916b9f-21ac-4541-9712-595f4ce62856" d="M135.63,23.55c-.09,0-.14-.05-.14-.15v-7c0-.1,0-.15.14-.15h1c.09,0,.14.05.14.15v2.38h1.42a2.28,2.28,0,0,1,2.6,2.36,2.29,2.29,0,0,1-2.54,2.43Zm1.1-1.16h1.48c.86,0,1.25-.41,1.25-1.27s-.39-1.21-1.25-1.21h-1.48Z"/><path class="a8916b9f-21ac-4541-9712-595f4ce62856" d="M147.12,16.38c0-.1,0-.15.14-.15h.94a.13.13,0,0,1,.15.15v7a.14.14,0,0,1-.15.15h-.94c-.09,0-.14-.05-.14-.15v-3h-2.89v3c0,.1,0,.15-.14.15h-.94a.13.13,0,0,1-.15-.15v-7a.13.13,0,0,1,.15-.15h.94c.09,0,.14.05.14.15v2.9h2.89Z"/><path class="a8916b9f-21ac-4541-9712-595f4ce62856" d="M150.5,23.55c-.12,0-.16-.06-.13-.17l2.46-7a.16.16,0,0,1,.17-.12h1.16a.16.16,0,0,1,.17.12l2.46,7c0,.11,0,.17-.13.17h-1a.16.16,0,0,1-.17-.12L155,21.88h-2.8l-.51,1.55a.17.17,0,0,1-.17.12Zm2-2.78h2.11l-1-3.19h0Z"/><path class="a8916b9f-21ac-4541-9712-595f4ce62856" d="M161.09,16.23h2.58a.14.14,0,0,1,.16.15v7a.14.14,0,0,1-.16.15h-.93a.14.14,0,0,1-.16-.15V20.91h-1.12l-1.72,2.54a.22.22,0,0,1-.19.1h-1.19c-.11,0-.17-.07-.09-.18l1.87-2.59a2.12,2.12,0,0,1-1.62-2.19A2.26,2.26,0,0,1,161.09,16.23Zm1.5,3.56V17.38h-1.48c-.87,0-1.33.42-1.33,1.23s.46,1.18,1.33,1.18Z"/><path class="a8916b9f-21ac-4541-9712-595f4ce62856" d="M45,37.22c-.1,0-.14,0-.14-.16v-7c0-.11,0-.16.14-.16H46c.09,0,.14.05.14.16v3l2.57-3a.24.24,0,0,1,.18-.09h1.2c.13,0,.17.08.09.19l-2.71,3.08L50.37,37c.09.1,0,.18-.09.18h-1.2a.18.18,0,0,1-.18-.09l-2.28-3.06-.51.55v2.45c0,.11,0,.16-.14.16Z"/><path class="a8916b9f-21ac-4541-9712-595f4ce62856" d="M54.65,37.34a2.63,2.63,0,0,1-2.88-2.85V32.6a2.61,2.61,0,0,1,2.88-2.83,2.61,2.61,0,0,1,2.88,2.83v1.89A2.63,2.63,0,0,1,54.65,37.34Zm0-1.17a1.48,1.48,0,0,0,1.62-1.68V32.62a1.62,1.62,0,1,0-3.24,0v1.87A1.47,1.47,0,0,0,54.65,36.17Z"/><path class="a8916b9f-21ac-4541-9712-595f4ce62856" d="M62.81,29.89a2.33,2.33,0,0,1,2.57,2.5,2.33,2.33,0,0,1-2.57,2.51H61.3v2.16c0,.11,0,.16-.14.16h-.94c-.1,0-.14,0-.14-.16v-7c0-.11.05-.16.14-.16Zm-.15,3.86c1,0,1.46-.43,1.46-1.36S63.66,31,62.66,31H61.3v2.71Z"/><path class="a8916b9f-21ac-4541-9712-595f4ce62856" d="M67.8,37.22c-.09,0-.14,0-.14-.16v-7c0-.11,0-.16.14-.16h5.08a.14.14,0,0,1,.16.16v7a.14.14,0,0,1-.16.16h-.94c-.09,0-.14,0-.14-.16V31H68.9v6c0,.11-.05.16-.14.16Z"/><path class="a8916b9f-21ac-4541-9712-595f4ce62856" d="M78.46,37.34a2.63,2.63,0,0,1-2.88-2.85V32.6a2.88,2.88,0,0,1,5.76,0v1.89A2.63,2.63,0,0,1,78.46,37.34Zm0-1.17a1.47,1.47,0,0,0,1.62-1.68V32.62a1.62,1.62,0,1,0-3.24,0v1.87A1.48,1.48,0,0,0,78.46,36.17Z"/><path class="a8916b9f-21ac-4541-9712-595f4ce62856" d="M86.62,29.89a2.33,2.33,0,0,1,2.57,2.5,2.33,2.33,0,0,1-2.57,2.51H85.11v2.16c0,.11,0,.16-.14.16H84c-.1,0-.15,0-.15-.16v-7c0-.11.05-.16.15-.16Zm-.15,3.86c1,0,1.46-.43,1.46-1.36S87.47,31,86.47,31H85.11v2.71Z"/><path class="a8916b9f-21ac-4541-9712-595f4ce62856" d="M90.43,37.22c-.11,0-.15-.07-.12-.18l2.46-7a.16.16,0,0,1,.16-.13H94.1a.16.16,0,0,1,.16.13l2.46,7c0,.12,0,.18-.12.18h-1a.17.17,0,0,1-.18-.13l-.5-1.54H92.11l-.5,1.54a.18.18,0,0,1-.17.13Zm2-2.79h2.11l-1-3.19h0Z"/><path class="a8916b9f-21ac-4541-9712-595f4ce62856" d="M103.72,38.56a.14.14,0,0,1-.15-.16V37.22H98.89c-.1,0-.15,0-.15-.16v-7c0-.11.05-.16.15-.16h.94c.09,0,.14.05.14.16v6h2.83v-6a.14.14,0,0,1,.15-.16h.94c.1,0,.15.05.15.16v6h.56c.1,0,.15,0,.15.14V38.4a.14.14,0,0,1-.15.16Z"/><path class="a8916b9f-21ac-4541-9712-595f4ce62856" d="M111.57,37.22c-.09,0-.14,0-.14-.16V34.72c0-.88,0-1.94.09-2.82h0a22.37,22.37,0,0,1-1.09,2l-1.94,3.2a.19.19,0,0,1-.17.1h-1a.13.13,0,0,1-.15-.15V30a.13.13,0,0,1,.15-.15h.92c.11,0,.16.05.16.15v2.5c0,.86,0,1.91-.09,2.78h0c.29-.55.67-1.24,1-1.86l2-3.48a.21.21,0,0,1,.19-.1h1c.09,0,.14.05.14.15v7c0,.1-.05.15-.14.15h-.94Z"/><path class="a8916b9f-21ac-4541-9712-595f4ce62856" d="M117.73,29.89h2.58c.1,0,.15.05.15.16v7c0,.11,0,.16-.15.16h-.94a.14.14,0,0,1-.15-.16V34.57h-1.13l-1.72,2.54a.19.19,0,0,1-.18.11H115c-.11,0-.18-.07-.09-.19l1.86-2.59a2.11,2.11,0,0,1-1.62-2.18A2.27,2.27,0,0,1,117.73,29.89Zm1.49,3.57V31.05h-1.48c-.87,0-1.33.42-1.33,1.23s.46,1.18,1.33,1.18Z"/></g></g></svg>