<svg xmlns="http://www.w3.org/2000/svg" viewBox="0 0 114.91 41.9"><defs><style>.b0e6eb4e-7e06-4587-bdcb-8812dab897c7{fill:#32327f;}.b98cb444-2025-4011-ac6c-d527662c5f27{fill:#fcb813;}.a4107f51-ed14-4118-83e7-6906f7fe0a90{fill:#fff;}</style></defs><title>Ресурс 3</title><g id="ea3bb18a-be5c-4b83-aa12-f75270a066b6" data-name="Слой 2"><g id="faa34f31-1134-40ed-9211-04e8e5cf2b81" data-name="Слой 1"><path class="b0e6eb4e-7e06-4587-bdcb-8812dab897c7" d="M114.91,3.14l-.08,9.25c-8.73,1.86-17.3,4-26.77.42S68,7.77,58.2,12.17s-20.28,2.93-30.31,0S10.27,8.11.16,12.67L0,3.57C9.52.65,18-1.36,28.12,3.06s23.4,2.31,32.11-.59,11.45-3.51,21-.39,23.5,5.08,33.69,1.06Z"/><path class="b98cb444-2025-4011-ac6c-d527662c5f27" d="M114.91,29.4l-.08,9.54c-8,3.84-17.59,3.79-27.07.72s-20-5.19-29.71-.79-20.13,2.49-30.16-.42S10.12,34.81,0,39.37V29.24c9.52-2.92,18-4.34,28.12.08s22.51,1.76,32.11-.59,12.52-2.88,21-.39,23.5,5.08,33.69,1.06Z"/><path class="a4107f51-ed14-4118-83e7-6906f7fe0a90" d="M26.39,19.8l-.86-.49a9.48,9.48,0,0,1,2.55-1.26,14.27,14.27,0,0,1,4.32-.6,9.72,9.72,0,0,1,6.29,2,7,7,0,0,1,1.81,2.17,5.58,5.58,0,0,1,.61,2.61,5.26,5.26,0,0,1-2.41,4.47,10.6,10.6,0,0,1-6.3,1.72c-.9,0-1.72,0-2.44-.11A11.27,11.27,0,0,1,28,30a8.72,8.72,0,0,1-2.51-1.19l.85-.55a7.44,7.44,0,0,0,2.22,1.13,12.17,12.17,0,0,0,3.4.39,6.7,6.7,0,0,0,4.64-1.49,4.65,4.65,0,0,0,1.64-3.59l-.94.22a4.16,4.16,0,0,1-2,0l-.94-.33a5.29,5.29,0,0,0-.81-.25,4.29,4.29,0,0,0-1-.12,6.55,6.55,0,0,0-1.25.13,6.27,6.27,0,0,0-.65.14,4.78,4.78,0,0,0-.65.23v-.95a6.56,6.56,0,0,1,2.47-.59,5.31,5.31,0,0,1,1.14.12,4.91,4.91,0,0,1,1.06.36l.92.31a4.43,4.43,0,0,0,.9.09,5.68,5.68,0,0,0,1.78-.3,5.44,5.44,0,0,0-1.53-3.85,6.28,6.28,0,0,0-4.75-1.73,10.28,10.28,0,0,0-3.32.51,7.73,7.73,0,0,0-2.23,1.15Z"/><polygon class="a4107f51-ed14-4118-83e7-6906f7fe0a90" points="43.91 21.57 52.64 21.57 52.64 22.12 49.48 22.12 49.48 30.51 47.17 30.51 47.17 22.12 43.91 22.12 43.91 21.57"/><polygon class="a4107f51-ed14-4118-83e7-6906f7fe0a90" points="54.54 21.49 57.06 21.49 62.3 28.39 67.19 21.49 67.98 21.49 59.37 33.72 58.57 33.72 61.12 30.1 54.54 21.49"/><path class="a4107f51-ed14-4118-83e7-6906f7fe0a90" d="M78.41,23.4a1.38,1.38,0,0,0-.63-1.27,5,5,0,0,0-2.4-.4,5.44,5.44,0,0,0-2.5.4,1.44,1.44,0,0,0-.66,1.36H70.11c0-.77.47-1.34,1.42-1.73a10.67,10.67,0,0,1,3.85-.57,11.15,11.15,0,0,1,4.19.53,1.92,1.92,0,0,1,1.16,1.91v6.72h-7a5.87,5.87,0,0,1-3.14-.69,2.09,2.09,0,0,1-1.08-1.81,2.36,2.36,0,0,1,1.32-2.06A7.38,7.38,0,0,1,74.69,25h3.72V23.4Zm0,6.42V25.53H74.56a3,3,0,0,0-2.06.64,2,2,0,0,0-.74,1.59,1.88,1.88,0,0,0,.65,1.5,2.87,2.87,0,0,0,2,.56Z"/><path class="a4107f51-ed14-4118-83e7-6906f7fe0a90" d="M105.94,21.41V25h3.19a8.25,8.25,0,0,1,3.93.75,2,2,0,0,1,0,3.85,8.18,8.18,0,0,1-3.91.77h-5.58v-9h2.39Zm3.32,8.39a3.34,3.34,0,0,0,2.15-.6,1.88,1.88,0,0,0,.75-1.53,1.94,1.94,0,0,0-.72-1.54,3.1,3.1,0,0,0-2-.6h-3.46V29.8Z"/><path class="a4107f51-ed14-4118-83e7-6906f7fe0a90" d="M82.56,30.51c3.74-14.3,15.59-13.16,19.14.11,0,.16.77-.93.81-.76C98.73,13,84.5,14.57,81.9,31.17Z"/><path class="a4107f51-ed14-4118-83e7-6906f7fe0a90" d="M1.89,30.51c3.75-14.3,15.6-13.16,19.14.11,0,.16.77-.93.81-.76C18.06,13,3.84,14.57,1.24,31.17Z"/><path class="a4107f51-ed14-4118-83e7-6906f7fe0a90" d="M21.23,19.2l.45,1.37.65-1.36a1.07,1.07,0,1,0-1.1,0Z"/></g></g></svg>