<svg xmlns="http://www.w3.org/2000/svg" xmlns:xlink="http://www.w3.org/1999/xlink" viewBox="0 0 114.69 57.27"><defs><style>.b86934ce-df74-4f20-aa15-487e808d0e2f{fill:url(#bcc4864f-4b0f-4b36-bb15-a582579c6e26);}.f1ea3de4-24ea-4e69-b4d3-b97bd2842c7b{fill:url(#fde87c73-8289-49b8-9846-ac951d400646);}.f6087f75-b695-422a-b05b-f29cd81beccc{fill:url(#e1f43aad-d096-4e07-8906-2d0c64539881);}.eccc743b-eeef-4194-ae08-710692b9f699{fill:url(#ef9cf549-db7d-416b-a874-1da3656f2e70);}.b8997e08-0f51-4121-ae10-ca212df4d73f{fill:url(#e4896dac-ab01-4bbb-80dd-5b47dcbe6cbc);}.a40befd3-d34c-4fbf-a2dd-8228ea53842a{fill:url(#bd64de99-8ab9-4c1a-b139-46ffe6bf81f2);}.e1da3c98-04f5-439e-95ca-0b918cb99d1f{fill:url(#e7a9fdd3-fecb-4d06-97d9-b421be1018a1);}.e4b4eb4f-9025-427e-ae2e-9f9df46f4afc{fill:#191919;}</style><linearGradient id="bcc4864f-4b0f-4b36-bb15-a582579c6e26" x1="42.14" y1="1286.78" x2="38.13" y2="1294.67" gradientTransform="matrix(1, 0, 0, -1, 0, 1319.28)" gradientUnits="userSpaceOnUse"><stop offset="0" stop-color="#b91d25"/><stop offset="1" stop-color="#6e272d"/></linearGradient><linearGradient id="fde87c73-8289-49b8-9846-ac951d400646" x1="38.68" y1="1289.44" x2="30.18" y2="1306.18" xlink:href="#bcc4864f-4b0f-4b36-bb15-a582579c6e26"/><linearGradient id="e1f43aad-d096-4e07-8906-2d0c64539881" x1="70.7" y1="1289.44" x2="62.2" y2="1306.18" xlink:href="#bcc4864f-4b0f-4b36-bb15-a582579c6e26"/><linearGradient id="ef9cf549-db7d-416b-a874-1da3656f2e70" x1="104.96" y1="1284.97" x2="94.99" y2="1304.61" xlink:href="#bcc4864f-4b0f-4b36-bb15-a582579c6e26"/><linearGradient id="e4896dac-ab01-4bbb-80dd-5b47dcbe6cbc" x1="10.97" y1="1286.96" x2="26.1" y2="1315.2" gradientTransform="matrix(1, 0, 0, -1, 0, 1319.28)" gradientUnits="userSpaceOnUse"><stop offset="0" stop-color="#d95012"/><stop offset="1" stop-color="#b51617"/></linearGradient><linearGradient id="bd64de99-8ab9-4c1a-b139-46ffe6bf81f2" x1="33.67" y1="1299.31" x2="65.7" y2="1299.31" xlink:href="#e4896dac-ab01-4bbb-80dd-5b47dcbe6cbc"/><linearGradient id="e7a9fdd3-fecb-4d06-97d9-b421be1018a1" x1="65.7" y1="1299.31" x2="97.74" y2="1299.31" xlink:href="#e4896dac-ab01-4bbb-80dd-5b47dcbe6cbc"/></defs><title>30</title><g id="e912c30b-deb9-4698-89e3-3c7946df7707" data-name="Слой 2"><g id="fee42c30-49fb-4074-ac42-7cba58b27735" data-name="Слой 1"><polygon class="b86934ce-df74-4f20-aa15-487e808d0e2f" points="39.21 18.72 44.7 34.75 39.21 34.75 35.42 25.2 39.21 18.72"/><polygon class="f1ea3de4-24ea-4e69-b4d3-b97bd2842c7b" points="33.67 0 42.99 27.25 33.67 39.92 24.22 16.14 33.67 0"/><polygon class="f6087f75-b695-422a-b05b-f29cd81beccc" points="65.69 0 75.01 27.25 65.69 39.92 56.24 16.14 65.69 0"/><polygon class="eccc743b-eeef-4194-ae08-710692b9f699" points="97.68 0 111.34 39.92 97.68 39.92 88.23 16.14 97.68 0"/><polygon class="b8997e08-0f51-4121-ae10-ca212df4d73f" points="18.78 0 33.61 0 16.39 39.92 1.57 39.92 18.78 0"/><polygon class="a40befd3-d34c-4fbf-a2dd-8228ea53842a" points="50.88 0 65.7 0 48.49 39.92 33.67 39.92 50.88 0"/><polygon class="e1da3c98-04f5-439e-95ca-0b918cb99d1f" points="82.92 0 97.74 0 80.53 39.92 65.7 39.92 82.92 0"/><path class="e4b4eb4f-9025-427e-ae2e-9f9df46f4afc" d="M8.6,47.76a.21.21,0,0,1,.24.21c.12,1.6.21,3.16.28,4.67s.13,3,.16,4.47h-.7c-.17,0-.25-.07-.25-.2,0-.61,0-1.24-.06-1.89s-.06-1.32-.09-2-.07-1.32-.1-2S8,49.78,8,49.18L5.14,54.7H4.27a.26.26,0,0,1-.17-.05.56.56,0,0,1-.1-.14L1.25,49.18c0,.62-.05,1.27-.08,1.94s-.07,1.34-.11,2l-.09,2c0,.66,0,1.31-.06,1.93H.25c-.17,0-.25-.07-.25-.2,0-1.49.08-3,.16-4.47s.18-3,.29-4.67h.8a.3.3,0,0,1,.29.19L4.66,53.9l3.22-6.13H8.6Z"/><path class="e4b4eb4f-9025-427e-ae2e-9f9df46f4afc" d="M15.47,50.16a3.38,3.38,0,0,1,2.6.87,3.87,3.87,0,0,1,.8,2.68,3.89,3.89,0,0,1-.8,2.69,3.38,3.38,0,0,1-2.6.87,3.42,3.42,0,0,1-2.61-.87,3.89,3.89,0,0,1-.8-2.69,3.87,3.87,0,0,1,.8-2.68A3.42,3.42,0,0,1,15.47,50.16Zm0,6.45a3.52,3.52,0,0,0,1.08-.15,1.81,1.81,0,0,0,.76-.5,2.13,2.13,0,0,0,.46-.9,5.24,5.24,0,0,0,.15-1.35,5.16,5.16,0,0,0-.15-1.34,2.27,2.27,0,0,0-.46-.89,1.81,1.81,0,0,0-.76-.5,4,4,0,0,0-2.16,0,1.91,1.91,0,0,0-.77.5,2.27,2.27,0,0,0-.46.89A5.62,5.62,0,0,0,13,53.71a5.77,5.77,0,0,0,.14,1.35,2.25,2.25,0,0,0,.46.9,1.79,1.79,0,0,0,.77.49A3.23,3.23,0,0,0,15.47,56.61Z"/><path class="e4b4eb4f-9025-427e-ae2e-9f9df46f4afc" d="M22.59,50.8a6,6,0,0,1,1.05-.45,5,5,0,0,1,1.44-.19,2.87,2.87,0,0,1,2.28.88,3.83,3.83,0,0,1,.76,2.59,5.9,5.9,0,0,1-.21,1.69,2.74,2.74,0,0,1-.63,1.11,2.62,2.62,0,0,1-1.08.62,5.48,5.48,0,0,1-1.55.19l-.78,0c-.27,0-.53-.05-.79-.09L22.41,57a2.74,2.74,0,0,1-.45-.12c-.15,0-.23-.09-.26-.15a.4.4,0,0,1,0-.2V47.42h.52a.6.6,0,0,1,.32.07.32.32,0,0,1,.09.27v3Zm0,5.58c.28.06.59.1.92.15a6.8,6.8,0,0,0,1,.07,4.47,4.47,0,0,0,1.16-.13,1.68,1.68,0,0,0,.82-.45,2,2,0,0,0,.48-.89,5.84,5.84,0,0,0,.16-1.46,3.38,3.38,0,0,0-.57-2.19,2.14,2.14,0,0,0-1.69-.66,3.71,3.71,0,0,0-1.33.21,5.73,5.73,0,0,0-1,.45Z"/><path class="e4b4eb4f-9025-427e-ae2e-9f9df46f4afc" d="M31.43,49a.88.88,0,0,1-.52-.13.63.63,0,0,1,0-.86.89.89,0,0,1,.52-.12.87.87,0,0,1,.51.12.63.63,0,0,1,0,.86A.87.87,0,0,1,31.43,49ZM31,50.32h.68c.17,0,.25.07.25.21v6.58h-.69c-.16,0-.24-.06-.24-.2Z"/><path class="e4b4eb4f-9025-427e-ae2e-9f9df46f4afc" d="M37.23,57.07l-.42.06a2.85,2.85,0,0,1-.49,0,1.41,1.41,0,0,1-1.06-.35,1.23,1.23,0,0,1-.35-.91V47.43h.69c.16,0,.25.07.25.2v8.26c0,.28.06.46.19.53a1.35,1.35,0,0,0,.61.1H37a.22.22,0,0,1,.18.06.18.18,0,0,1,0,.13Z"/><path class="e4b4eb4f-9025-427e-ae2e-9f9df46f4afc" d="M45.86,56.91q-.13-.64-.3-1.32c-.11-.44-.23-.9-.37-1.36H40.58q-.21.72-.39,1.44c-.11.48-.22.95-.32,1.44H39.2c-.19,0-.27-.06-.25-.2a28.18,28.18,0,0,1,.8-3.08c.32-1,.63-1.85,1-2.63s.64-1.48.94-2.07a12.63,12.63,0,0,1,.77-1.36h.8l.19,0a.38.38,0,0,1,.16.17c.21.37.47.85.78,1.46s.61,1.32.92,2.12.61,1.66.9,2.61.53,1.93.74,3h-.77A.25.25,0,0,1,45.86,56.91Zm-3-8.36A26,26,0,0,0,41.72,51c-.35.83-.65,1.68-.93,2.55H45c-.27-.86-.58-1.7-.93-2.54S43.31,49.34,42.89,48.55Z"/><path class="e4b4eb4f-9025-427e-ae2e-9f9df46f4afc" d="M49.2,57a.26.26,0,0,1-.22-.25v-.38c.29,0,.65.09,1.08.13a11.14,11.14,0,0,0,1.33.07,7.06,7.06,0,0,0,1.14-.08,2.11,2.11,0,0,0,.7-.24.92.92,0,0,0,.34-.4,1.68,1.68,0,0,0,.09-.53,1.14,1.14,0,0,0-.14-.59,1.2,1.2,0,0,0-.43-.36,3.86,3.86,0,0,0-.71-.25l-1-.22c-.33-.07-.64-.14-1-.23a2.77,2.77,0,0,1-.78-.32,1.55,1.55,0,0,1-.53-.52,1.53,1.53,0,0,1-.19-.8,1.55,1.55,0,0,1,.69-1.35,3.8,3.8,0,0,1,2.13-.47h.44l.62,0,.64.07a3.71,3.71,0,0,1,.52.1.25.25,0,0,1,.21.25V51c-.34-.05-.71-.09-1.11-.13a11.37,11.37,0,0,0-1.16,0,6.89,6.89,0,0,0-1,.07,2.27,2.27,0,0,0-.64.22.74.74,0,0,0-.33.35,1.22,1.22,0,0,0-.09.49.83.83,0,0,0,.46.85,3,3,0,0,0,.65.24q.39.1,1,.21c.38.07.73.15,1.06.24a3.35,3.35,0,0,1,.86.33,1.7,1.7,0,0,1,.58.55,1.8,1.8,0,0,1,.21.89,1.56,1.56,0,0,1-.8,1.49,4.53,4.53,0,0,1-2.21.45h-.53l-.69,0-.67-.07A2,2,0,0,1,49.2,57Z"/><path class="e4b4eb4f-9025-427e-ae2e-9f9df46f4afc" d="M57.05,57a.25.25,0,0,1-.22-.25v-.38c.29,0,.64.09,1.07.13a11.25,11.25,0,0,0,1.33.07,7.11,7.11,0,0,0,1.15-.08,2,2,0,0,0,.69-.24.86.86,0,0,0,.34-.4,1.44,1.44,0,0,0,.09-.53,1.14,1.14,0,0,0-.14-.59,1.16,1.16,0,0,0-.42-.36,3.73,3.73,0,0,0-.72-.25l-1-.22c-.34-.07-.65-.14-1-.23a3,3,0,0,1-.79-.32,1.65,1.65,0,0,1-.53-.52,1.6,1.6,0,0,1-.19-.8,1.54,1.54,0,0,1,.7-1.35,3.76,3.76,0,0,1,2.12-.47H60l.62,0,.64.07a4,4,0,0,1,.52.1.25.25,0,0,1,.21.25V51c-.34-.05-.71-.09-1.11-.13a11.37,11.37,0,0,0-1.16,0,6.68,6.68,0,0,0-1,.07,2.07,2.07,0,0,0-.64.22.76.76,0,0,0-.34.35,1.22,1.22,0,0,0-.09.49,1.07,1.07,0,0,0,.11.51.91.91,0,0,0,.36.34,3.08,3.08,0,0,0,.64.24q.4.1,1,.21c.38.07.74.15,1.06.24a3.43,3.43,0,0,1,.87.33,1.67,1.67,0,0,1,.57.55,1.7,1.7,0,0,1,.21.89,1.56,1.56,0,0,1-.79,1.49,4.53,4.53,0,0,1-2.21.45H58.9l-.68,0-.67-.07A1.79,1.79,0,0,1,57.05,57Z"/><path class="e4b4eb4f-9025-427e-ae2e-9f9df46f4afc" d="M65.63,49a.88.88,0,0,1-.52-.13.63.63,0,0,1,0-.86.89.89,0,0,1,.52-.12.87.87,0,0,1,.51.12.63.63,0,0,1,0,.86A.87.87,0,0,1,65.63,49Zm-.49,1.31h.69q.24,0,.24.21v6.58h-.68c-.17,0-.25-.06-.25-.2Z"/><path class="e4b4eb4f-9025-427e-ae2e-9f9df46f4afc" d="M69.05,57a.26.26,0,0,1-.22-.25v-.38c.29,0,.65.09,1.07.13a11.42,11.42,0,0,0,1.34.07,7.06,7.06,0,0,0,1.14-.08,2.11,2.11,0,0,0,.7-.24.92.92,0,0,0,.34-.4,1.68,1.68,0,0,0,.09-.53,1.14,1.14,0,0,0-.14-.59,1.29,1.29,0,0,0-.43-.36,3.73,3.73,0,0,0-.72-.25l-1-.22c-.33-.07-.65-.14-1-.23a2.77,2.77,0,0,1-.78-.32,1.55,1.55,0,0,1-.53-.52,1.51,1.51,0,0,1-.19-.8,1.55,1.55,0,0,1,.69-1.35,3.78,3.78,0,0,1,2.13-.47H72l.62,0,.64.07a3.71,3.71,0,0,1,.52.1.25.25,0,0,1,.21.25V51c-.34-.05-.71-.09-1.11-.13a11.37,11.37,0,0,0-1.16,0,6.79,6.79,0,0,0-1,.07,2.17,2.17,0,0,0-.64.22.74.74,0,0,0-.33.35,1.36,1.36,0,0,0,0,1,1,1,0,0,0,.36.34,3,3,0,0,0,.65.24c.26.07.58.14,1,.21s.74.15,1.06.24a3.43,3.43,0,0,1,.87.33,1.7,1.7,0,0,1,.58.55,1.8,1.8,0,0,1,.2.89,1.56,1.56,0,0,1-.79,1.49,4.53,4.53,0,0,1-2.21.45h-.53l-.69,0-.67-.07A1.88,1.88,0,0,1,69.05,57Z"/><path class="e4b4eb4f-9025-427e-ae2e-9f9df46f4afc" d="M80.21,56.53a.41.41,0,0,1,.27.06.17.17,0,0,1,.07.14v.37a7.34,7.34,0,0,1-1.19.1,3.37,3.37,0,0,1-.91-.1,1.47,1.47,0,0,1-.59-.28,1.08,1.08,0,0,1-.31-.43,1.63,1.63,0,0,1-.09-.55V51h-.75c-.17,0-.25-.06-.25-.2v-.45h1V48.5h.69c.16,0,.25.07.25.21v1.61h1.9c.17,0,.25.07.25.2V51H78.4v4.78a1.69,1.69,0,0,0,0,.33.43.43,0,0,0,.16.24.8.8,0,0,0,.37.17,3.69,3.69,0,0,0,.66,0h.59Z"/><path class="e4b4eb4f-9025-427e-ae2e-9f9df46f4afc" d="M88.06,56.37a3.06,3.06,0,0,1-.48.31A4,4,0,0,1,87,57a6.54,6.54,0,0,1-.74.21,4.3,4.3,0,0,1-.82.08,3.12,3.12,0,0,1-2-.57,2,2,0,0,1-.65-1.57,1.77,1.77,0,0,1,.81-1.64,4.48,4.48,0,0,1,2.33-.5H88v-.53a2.08,2.08,0,0,0-.11-.75,1,1,0,0,0-.39-.49,1.69,1.69,0,0,0-.72-.26,5.56,5.56,0,0,0-1.09-.09,9.59,9.59,0,0,0-1.38.09,7.61,7.61,0,0,1-.83.07c-.17,0-.26-.07-.26-.23v-.32a9.53,9.53,0,0,1,1.35-.2c.47,0,.9,0,1.3,0a5.9,5.9,0,0,1,1.52.16,2.43,2.43,0,0,1,.94.47,1.69,1.69,0,0,1,.48.72,2.9,2.9,0,0,1,.13.91v4.64h-.61c-.17,0-.26-.07-.26-.21Zm0-2.78H85.8a4.13,4.13,0,0,0-1.08.12A2,2,0,0,0,84,54a1.2,1.2,0,0,0-.35.49,1.8,1.8,0,0,0-.1.57,1.31,1.31,0,0,0,.52,1.17,2.56,2.56,0,0,0,1.38.34A3.34,3.34,0,0,0,87,56.32,4.45,4.45,0,0,0,88,55.68Z"/><path class="e4b4eb4f-9025-427e-ae2e-9f9df46f4afc" d="M92.8,51.07a2.84,2.84,0,0,1,.43-.31,3,3,0,0,1,.62-.29,5,5,0,0,1,.79-.22,5.48,5.48,0,0,1,1-.09,3.08,3.08,0,0,1,1.93.56,2.16,2.16,0,0,1,.72,1.81v4.58h-.69c-.16,0-.24-.07-.24-.2V52.55a1.57,1.57,0,0,0-.53-1.33,2.3,2.3,0,0,0-1.4-.4,4.41,4.41,0,0,0-.84.09,4.23,4.23,0,0,0-.71.23,4.45,4.45,0,0,0-.58.31,3.26,3.26,0,0,0-.42.32v5.34h-.69c-.16,0-.24-.06-.24-.2V50.32h.62q.24,0,.24.21Z"/><path class="e4b4eb4f-9025-427e-ae2e-9f9df46f4afc" d="M106.35,57a6.65,6.65,0,0,1-1,.18,9.84,9.84,0,0,1-1.16.07,4.11,4.11,0,0,1-1.54-.25,2.58,2.58,0,0,1-1-.7,3,3,0,0,1-.53-1.1,6.25,6.25,0,0,1-.15-1.42,3.8,3.8,0,0,1,.81-2.72,3.23,3.23,0,0,1,2.42-.83h.55l.55.05.46.07a1.31,1.31,0,0,1,.31.07c.15,0,.22.12.22.24V51l-1-.12c-.32,0-.64,0-1,0a3.34,3.34,0,0,0-1,.14,1.72,1.72,0,0,0-.75.47,2.11,2.11,0,0,0-.46.87,5.65,5.65,0,0,0-.14,1.35,4.84,4.84,0,0,0,.17,1.45,2.08,2.08,0,0,0,.5.88,1.52,1.52,0,0,0,.76.43,3.84,3.84,0,0,0,1,.12,6.87,6.87,0,0,0,1.07-.08,5.24,5.24,0,0,1,.68-.08.29.29,0,0,1,.21.07.24.24,0,0,1,0,.13V57Z"/><path class="e4b4eb4f-9025-427e-ae2e-9f9df46f4afc" d="M112,57.23a6.38,6.38,0,0,1-1.61-.18,2.65,2.65,0,0,1-1.13-.59,2.56,2.56,0,0,1-.66-1.08,5.47,5.47,0,0,1-.22-1.62,5.73,5.73,0,0,1,.22-1.67,2.69,2.69,0,0,1,.64-1.11,2.57,2.57,0,0,1,1-.62,4.89,4.89,0,0,1,1.45-.2,4.22,4.22,0,0,1,1.5.23,2.15,2.15,0,0,1,.92.61,2,2,0,0,1,.45.91,4.49,4.49,0,0,1,.13,1.13,4.58,4.58,0,0,1,0,.53,2.24,2.24,0,0,1-.09.43h-5.3a6.7,6.7,0,0,0,.18,1.18,1.83,1.83,0,0,0,.44.8,1.87,1.87,0,0,0,.85.45,5.62,5.62,0,0,0,1.36.14,9.09,9.09,0,0,0,1.32-.08c.32,0,.56-.07.68-.07a.26.26,0,0,1,.22.07.18.18,0,0,1,.05.13V57a5,5,0,0,1-1,.17A12.21,12.21,0,0,1,112,57.23Zm-.26-6.41a3.19,3.19,0,0,0-1.16.19,1.87,1.87,0,0,0-.74.54,2.11,2.11,0,0,0-.39.81,5.25,5.25,0,0,0-.13,1h4.49a1.1,1.1,0,0,0,0-.18V53a4.61,4.61,0,0,0-.09-1,1.38,1.38,0,0,0-.32-.69,1.36,1.36,0,0,0-.63-.41A3,3,0,0,0,111.69,50.82Z"/></g></g></svg>