<svg xmlns="http://www.w3.org/2000/svg" viewBox="0 0 156.77 50.59"><path d="M50.5 22.34v-9.87h6.9v1.32h-5.1v2.78h4.46v1.35H52.3V21h5.17v1.32zm23.15 0v-8L70 18.1l-3.64-3.74h-.07v8h-1.87v-9.9h2.14L69.94 16l3.35-3.56h2.14v9.87zm12.93-3.88H84.9v3.88h-1.85v-9.87h3.35c2.42 0 4 .82 4 3s-1.65 3-3.82 3zm-.18-4.67h-1.53v3.38h1.46c1 0 2.2-.35 2.2-1.7s-1.1-1.67-2.14-1.67zm10.94 8.55v-9.87h1.85v9.87zm15.32 0l-2.92-4.06h-1.07v4.06h-1.85v-9.87h3.3c2.1 0 3.92.75 3.92 2.9a2.81 2.81 0 0 1-2.53 2.64l3.3 4.3zm-2.57-8.55h-1.42V17h1.25c1.5 0 2.28-.57 2.28-1.6s-.75-1.6-2.1-1.6zm11.4 8.55v-9.87h6.9v1.32h-5.1v2.78h4.46v1.35h-4.46V21h5.17v1.32z" fill="#fff"/><path d="M57.43 28.36a9.48 9.48 0 0 1 1.82.14l1.4.25a2.21 2.21 0 0 0 .43.07.69.69 0 0 1 .28.08s.07 0 .15.1.07.18.07.32a5.46 5.46 0 0 0 .14.89 6.32 6.32 0 0 1 .11 1.11c0 .25-.07.4-.25.4s-.22-.14-.36-.43A4.62 4.62 0 0 0 60.5 30a4.49 4.49 0 0 0-.43-.39 3.33 3.33 0 0 0-.68-.36 4.91 4.91 0 0 0-.89-.25 5 5 0 0 0-1.07-.11 4.74 4.74 0 0 0-2.17.46 5.22 5.22 0 0 0-1.64 1.21 5.62 5.62 0 0 0-1 1.75 5.71 5.71 0 0 0-.36 2.07 6 6 0 0 0 .86 3.31 4.93 4.93 0 0 0 2 1.89 5.67 5.67 0 0 0 2.6.64 1 1 0 0 0 .28 0 2.14 2.14 0 0 0 .47-.07 2.34 2.34 0 0 0 .5-.14 2.15 2.15 0 0 0 .46-.21.73.73 0 0 0 .11-.15c0-.07.1-.17.14-.25a1.51 1.51 0 0 0 .1-.28.84.84 0 0 0 0-.25V37.7a2.58 2.58 0 0 0 0-.5v-.3a2 2 0 0 0-.11-.28c0-.1-.14-.18-.25-.25a1.19 1.19 0 0 0-.5-.18 2.74 2.74 0 0 0-.85-.11.63.63 0 0 1-.36-.1.29.29 0 0 1-.14-.22c0-.07 0-.1.14-.18a.8.8 0 0 1 .43-.07h.43a3.6 3.6 0 0 1 .64 0h1.2a7.6 7.6 0 0 0 .79 0 6.78 6.78 0 0 1 .92 0 1 1 0 0 1 .36.07.19.19 0 0 1 .14.18c0 .07 0 .1-.14.18a.84.84 0 0 1-.32.14.89.89 0 0 0-.54.29 1.22 1.22 0 0 0-.14.28v.32a4.66 4.66 0 0 1 0 .61v1.35a.61.61 0 0 0 .11.36.44.44 0 0 0 .18.18c.18.1.28.18.28.2v.14c0 .07 0 .07-.07.15a.23.23 0 0 1-.22.1l-.7.18-1 .25a3.3 3.3 0 0 1-.67.14l-.72.1c-.25 0-.46 0-.67.07s-.4 0-.57 0a8.52 8.52 0 0 1-2.92-.47 6.66 6.66 0 0 1-2.18-1.21 6.76 6.76 0 0 1-.67-.71 4.21 4.21 0 0 1-.65-1 6.05 6.05 0 0 1-.46-1.25 6.4 6.4 0 0 1-.18-1.49 6.55 6.55 0 0 1 .5-2.42 5.52 5.52 0 0 1 1.68-2.18 6.9 6.9 0 0 1 2.21-1.21 6.52 6.52 0 0 1 2.66-.53zm14.15 0s.07 0 .1.07a2.93 2.93 0 0 1 .17.39 8.46 8.46 0 0 0 .36 1l.5 1.3.78 2.1.82 2.1.7 1.74.43 1a4.36 4.36 0 0 0 .43.89 2.17 2.17 0 0 0 .39.5 3.49 3.49 0 0 0 .43.28 3.54 3.54 0 0 0 .57.18c.32.1.46.2.46.32s0 .1-.1.18a1.51 1.51 0 0 1-.5.07H74.7a4.6 4.6 0 0 0-.71 0h-.64a1.18 1.18 0 0 1-.46-.07.22.22 0 0 1-.11-.14.33.33 0 0 1 .11-.18.64.64 0 0 1 .35-.14 1.35 1.35 0 0 0 .5-.18 1.09 1.09 0 0 0 .25-.22.32.32 0 0 0 0-.25v-.28a6.88 6.88 0 0 0-.43-1.39L72.93 36l-.1-.1a1.62 1.62 0 0 0-.54-.07h-1.82a5.43 5.43 0 0 0-.82 0h-.5c-.07 0-.08 0-.1.07l-.1.1a6.86 6.86 0 0 0-.35.93l-.32.92a4.59 4.59 0 0 0-.22.79 1.7 1.7 0 0 0-.07.53.55.55 0 0 0 .14.36 1.49 1.49 0 0 0 .79.39c.35.1.5.2.5.32a.17.17 0 0 1-.18.18 1.46 1.46 0 0 1-.36 0 4.44 4.44 0 0 1-.6 0 6 6 0 0 0-.9 0 3 3 0 0 0-.57 0h-.57a1.91 1.91 0 0 0-.49 0h-.33a.79.79 0 0 1-.35 0c-.07 0-.07-.07-.07-.14s0-.1.1-.18a1.52 1.52 0 0 1 .32-.18 6.06 6.06 0 0 0 .59-.12 2.39 2.39 0 0 0 .43-.25 1.85 1.85 0 0 0 .35-.39 4.2 4.2 0 0 0 .36-.68c.07-.14.18-.43.36-.82l.57-1.35.67-1.64.72-1.75 1.14-2.85a.9.9 0 0 0 .1-.39v-.14c0-.03.18-.25.32-.47l.25-.42c.04-.07.24-.3.3-.3zm.85 6.52a.1.1 0 0 0 0-.07.07.07 0 0 0 0-.11 8.61 8.61 0 0 0-.36-1l-.46-1.25a10.15 10.15 0 0 0-.43-1.1 4.49 4.49 0 0 0-.25-.57c0-.1-.1-.1-.14 0l-.36.93-.46 1.2-.43 1.14a6.3 6.3 0 0 0-.25.75c0 .07 0 .14.1.14h2.35a1.65 1.65 0 0 1 .68-.07zm12.15-6.52a6 6 0 0 1 1.36.14 9.19 9.19 0 0 0 .92.18.44.44 0 0 1 .18.18c0 .1.07.14.07.18v.35c0 .14 0 .32.07.47s0 .28.07.42a1 1 0 0 1 0 .22.86.86 0 0 1 0 .35c0 .08 0 .15-.1.15a.42.42 0 0 1-.25-.11.47.47 0 0 1-.21-.28 3.2 3.2 0 0 0-.46-.86 2.65 2.65 0 0 0-.47-.46 1.74 1.74 0 0 0-.6-.32 2.37 2.37 0 0 0-.75-.11 2.14 2.14 0 0 0-1.57.61 2.11 2.11 0 0 0-.6 1.53 2.07 2.07 0 0 0 .67 1.53 5.85 5.85 0 0 0 .82.64l1.14.7 1 .72a5.79 5.79 0 0 1 .85.78 3 3 0 0 1 .57.93 2.64 2.64 0 0 1 .22 1.1 2.94 2.94 0 0 1-.4 1.39A3.14 3.14 0 0 1 86 40a4.64 4.64 0 0 1-1.21.46 6.55 6.55 0 0 1-1.39.18 3.09 3.09 0 0 1-.57 0l-.7-.1c-.25 0-.47-.1-.68-.14a5.51 5.51 0 0 1-.57-.18.76.76 0 0 1-.29-.32.73.73 0 0 1-.14-.28 1.89 1.89 0 0 1-.07-.5l-.1-.5a2 2 0 0 1-.07-.43 1.14 1.14 0 0 1 0-.28.52.52 0 0 1 .1-.22c.07-.1.1-.14.18-.14s.18.1.32.32.25.47.4.72a2.63 2.63 0 0 0 .5.64l.64.46a2.94 2.94 0 0 0 .72.25 2.19 2.19 0 0 0 .6.11 2.34 2.34 0 0 0 1.64-.61 2.06 2.06 0 0 0 .64-1.6 1.75 1.75 0 0 0-.11-.61 1.85 1.85 0 0 0-.35-.64 7.89 7.89 0 0 0-.71-.71L83.53 35a9.34 9.34 0 0 1-1.1-.78 7 7 0 0 1-.89-.82 3.64 3.64 0 0 1-.57-.93 2.62 2.62 0 0 1-.21-1.07 2.86 2.86 0 0 1 .24-1.27 2.78 2.78 0 0 1 .78-1 4.21 4.21 0 0 1 1.14-.64 4.85 4.85 0 0 1 1.66-.14zm13.08 3.8a2.54 2.54 0 0 0-.25-1.17 3.12 3.12 0 0 0-.64-1 3.34 3.34 0 0 0-1-.68 2.85 2.85 0 0 0-1.25-.25 1.33 1.33 0 0 0-.57.18.65.65 0 0 0-.1.22 1.46 1.46 0 0 0-.07.49v8.38a4.88 4.88 0 0 0 0 .71 1.32 1.32 0 0 0 .18.43.92.92 0 0 0 .36.25 4.41 4.41 0 0 0 .57.21c.35.07.5.2.5.36s-.07.14-.2.17a1.53 1.53 0 0 1-.43 0 6.56 6.56 0 0 1-.85 0h-2.14a8.45 8.45 0 0 1-1 0c-.35 0-.53-.07-.53-.25s0-.1.1-.18a.36.36 0 0 1 .25-.1 1.85 1.85 0 0 0 1-.47 1.43 1.43 0 0 0 .28-.89v-1.64a8.53 8.53 0 0 1 0-.89v-4.38a7.88 7.88 0 0 0 0-.89v-.53a1.57 1.57 0 0 0 0-.43.59.59 0 0 0-.11-.28 1.26 1.26 0 0 0-.32-.22 2.31 2.31 0 0 0-.6-.14c-.4-.07-.6-.14-.6-.28a.19.19 0 0 1 .11-.18.66.66 0 0 1 .32-.07h.6a4.3 4.3 0 0 0 .68 0h.86c.32 0 .57 0 .85-.07a7.31 7.31 0 0 1 .79 0 7.24 7.24 0 0 1 2.17.28 4.49 4.49 0 0 1 1.39.79 3 3 0 0 1 .89 1.31 4.28 4.28 0 0 1 .38 1.04 3.27 3.27 0 0 1-.14 1.07 6.41 6.41 0 0 1-.32.79 4 4 0 0 1-1.85 1.57 3.05 3.05 0 0 1-1.21.25 2.36 2.36 0 0 1-.47 0 1.19 1.19 0 0 1-.53-.1c-.22-.07-.32-.18-.32-.3a.2.2 0 0 1 .07-.11.3.3 0 0 1 .18-.07h.46a2.61 2.61 0 0 0 .82-.17 2.29 2.29 0 0 0 .78-.54 2.94 2.94 0 0 0 .61-.93 2 2 0 0 0 .32-1.3zm9.08-3.8s.08 0 .1.07a1.85 1.85 0 0 1 .18.39 6.9 6.9 0 0 0 .36 1l1.28 3.42.82 2.1.7 1.74.43 1a3.89 3.89 0 0 0 .43.89 2.17 2.17 0 0 0 .39.5 2.87 2.87 0 0 0 .43.28 3.54 3.54 0 0 0 .57.18c.32.1.46.2.46.32s0 .1-.1.18a1.46 1.46 0 0 1-.5.07h-2.42a4.6 4.6 0 0 0-.71 0h-.64a1.25 1.25 0 0 1-.47-.07.19.19 0 0 1-.1-.14.3.3 0 0 1 .1-.18.64.64 0 0 1 .36-.14 1.51 1.51 0 0 0 .5-.18 1.36 1.36 0 0 0 .25-.22.31.31 0 0 0 0-.25v-.28a7.59 7.59 0 0 0-.43-1.39L108.1 36l-.1-.1a1.54 1.54 0 0 0-.53-.07h-1.82a5.43 5.43 0 0 0-.82 0h-.5c-.07 0-.07 0-.1.07l-.1.1a8.55 8.55 0 0 0-.36.93l-.32.92a3.74 3.74 0 0 0-.21.79 1.7 1.7 0 0 0-.07.53.5.5 0 0 0 .14.36 1.49 1.49 0 0 0 .78.39c.36.1.5.2.5.32a.17.17 0 0 1-.18.18 1.38 1.38 0 0 1-.35 0 4.66 4.66 0 0 1-.61 0 5.85 5.85 0 0 0-.89 0 2.88 2.88 0 0 0-.57 0h-.57a2 2 0 0 0-.5 0h-.32a.84.84 0 0 1-.36 0c-.07 0-.07-.07-.07-.14s0-.1.1-.18a1.3 1.3 0 0 1 .32-.18 6.06 6.06 0 0 0 .61-.21 2.32 2.32 0 0 0 .42-.25 1.9 1.9 0 0 0 .36-.39 4.2 4.2 0 0 0 .36-.68c.07-.14.17-.43.35-.82l.57-1.35.68-1.64 1.34-3.35c.17-.5.36-.93.5-1.25a.93.93 0 0 0 .11-.39v-.14l.32-.47.25-.42c.1-.13.2-.2.28-.2zm.86 6.52a.1.1 0 0 0 0-.07.08.08 0 0 0 0-.11l-.36-1-.46-1.25c-.14-.43-.3-.78-.43-1.1l-.25-.57c-.03-.03-.1-.1-.14 0l-.36.93-.46 1.2-.43 1.14a6.3 6.3 0 0 0-.25.75c0 .07 0 .14.1.14H107a1.62 1.62 0 0 1 .6-.07zm16.28-3.24a2.59 2.59 0 0 1-.43 1.42 3 3 0 0 1-1.14 1.11 2.25 2.25 0 0 1-.28.14 1.3 1.3 0 0 0-.32.18s0 .07-.07.14 0 .1 0 .14a4.3 4.3 0 0 0 .39.65l.75 1.1.92 1.28c.32.46.65.8.93 1.1a2.82 2.82 0 0 0 .82.67 3.8 3.8 0 0 0 1.07.4l.2.1c.07.07.1.1.1.15s0 .1-.07.14l-.18.1a2.84 2.84 0 0 1-.46.11 2.93 2.93 0 0 1-.61 0 2.73 2.73 0 0 1-.71-.11 5 5 0 0 1-.71-.25 5.26 5.26 0 0 1-.65-.36 3.14 3.14 0 0 1-.49-.46c-.18-.2-.36-.46-.57-.75l-.6-.85-.64-.93-.6-.9-.42-.57a1.29 1.29 0 0 0-.33-.32s-.07 0-.17-.07a1 1 0 0 0-.32-.07 4.3 4.3 0 0 0-.43-.07 1.57 1.57 0 0 0-.43 0c-.07 0-.1 0-.18.1s-.07.1-.07.14v1.57a11.24 11.24 0 0 0 0 1.14v1a1.21 1.21 0 0 0 .25.82 2.2 2.2 0 0 0 .89.39c.32.07.47.18.47.32a.18.18 0 0 1-.18.18 1.13 1.13 0 0 1-.25 0 2.86 2.86 0 0 1-.54 0h-2.28a2.37 2.37 0 0 0-.46 0h-.7a1.28 1.28 0 0 1-.36-.07.2.2 0 0 1-.14-.21c0-.08 0-.1.1-.15a1.53 1.53 0 0 1 .32-.1c.2-.08.4-.1.53-.18a3.66 3.66 0 0 0 .39-.18.57.57 0 0 0 .22-.29 3.3 3.3 0 0 0 .1-.42V31.9l-.08-1.78c0-.18-.07-.32-.07-.4a.37.37 0 0 0-.18-.25.6.6 0 0 0-.32-.14c-.14 0-.32-.07-.53-.14s-.46-.18-.46-.32 0-.1.1-.15a1.16 1.16 0 0 1 .43-.07h1.07a5.1 5.1 0 0 0 .64 0h.78a6.19 6.19 0 0 0 .86 0h.82a8.26 8.26 0 0 1 1.75.14 3.6 3.6 0 0 1 1.35.61 2.8 2.8 0 0 1 .78 1 4.74 4.74 0 0 1 .4 1.21zm-1.67 0a2.73 2.73 0 0 0-.22-.89 2.84 2.84 0 0 0-.64-1 2.77 2.77 0 0 0-.89-.5 2.72 2.72 0 0 0-1-.18h-.14a.55.55 0 0 0-.25 0h-.28c-.1 0-.18 0-.22.07a.41.41 0 0 0-.14.18 1.64 1.64 0 0 0-.07.21v1.4a8.7 8.7 0 0 1 0 1v1.74a.87.87 0 0 0 0 .39.43.43 0 0 0 .11.18.18.18 0 0 0 .17.07 6.59 6.59 0 0 0 1.5-.17A5.35 5.35 0 0 0 121 34a1.57 1.57 0 0 0 .39-.32 4.31 4.31 0 0 0 .43-.5 2.94 2.94 0 0 0 .32-.64 7 7 0 0 0 .07-.87zm12.8-3.28a6.83 6.83 0 0 1 4.67 1.75 6.26 6.26 0 0 1 1.39 1.89 5.5 5.5 0 0 1 .49 2.39 7.12 7.12 0 0 1-.21 1.78 6 6 0 0 1-.61 1.46 6.68 6.68 0 0 1-.85 1.18 5.39 5.39 0 0 1-1 .85 4.42 4.42 0 0 1-1 .5 5.52 5.52 0 0 1-1 .32l-1 .18-.82.07a6.85 6.85 0 0 1-2.78-.57 6.09 6.09 0 0 1-2.17-1.53 6.22 6.22 0 0 1-1.11-1.86 6.06 6.06 0 0 1-.39-2.25 5.22 5.22 0 0 1 .71-2.88 7.39 7.39 0 0 1 1.79-2 3.3 3.3 0 0 1 .81-.5 8.63 8.63 0 0 1 1-.39 5.18 5.18 0 0 1 1.07-.25 4.08 4.08 0 0 1 1.01-.14zm-.42.6a3.59 3.59 0 0 0-.65.07 2.4 2.4 0 0 0-.71.21l-.68.32a4.7 4.7 0 0 0-.57.43 4.39 4.39 0 0 0-1.06 1.64 6.94 6.94 0 0 0-.43 2.64 6.11 6.11 0 0 0 .35 2.06 6.68 6.68 0 0 0 1.07 1.89 5.46 5.46 0 0 0 1.64 1.35 4.16 4.16 0 0 0 2.1.54 4.48 4.48 0 0 0 1-.11 3.66 3.66 0 0 0 .75-.25 3 3 0 0 0 .49-.28c.1-.1.22-.18.25-.25a2.44 2.44 0 0 0 .57-.64 5.6 5.6 0 0 0 .54-1 10.14 10.14 0 0 0 .39-1.21 6.45 6.45 0 0 0 .14-1.49 6.93 6.93 0 0 0-.6-2.82 6 6 0 0 0-1.68-2.17 4.06 4.06 0 0 0-1.39-.71 5.77 5.77 0 0 0-1.56-.19zm9.22-.14c0-.07.07-.14.18-.17a1.12 1.12 0 0 1 .39-.08 6.09 6.09 0 0 1 .78 0 10.88 10.88 0 0 0 1.21 0 9.39 9.39 0 0 0 1 0h.85a.62.62 0 0 1 .32.08c.07 0 .15.1.15.14s0 .1-.1.18a.72.72 0 0 1-.36.14 1.46 1.46 0 0 0-.57.18 1 1 0 0 0-.28.21.59.59 0 0 0-.07.25.72.72 0 0 0 0 .25 7.37 7.37 0 0 0 .29.78l.5 1.3.6 1.53.64 1.57.57 1.42.43 1s.07 0 .1.08.07 0 .1-.08l.22-.53a13.33 13.33 0 0 1 .46-1l.6-1.36.64-1.5.64-1.43.5-1.17a1.78 1.78 0 0 0 .18-.61.43.43 0 0 0-.15-.39 1.12 1.12 0 0 0-.35-.25 2.63 2.63 0 0 0-.54-.18.73.73 0 0 1-.32-.14c-.07-.07-.1-.1-.1-.18s.07-.1.17-.14a1.19 1.19 0 0 1 .4-.07 5.31 5.31 0 0 1 .67 0h.86a7.64 7.64 0 0 0 .92 0h.8a1.34 1.34 0 0 1 .39.07c.1 0 .18.1.18.18a.18.18 0 0 1-.14.17.64.64 0 0 1-.36.11 2.06 2.06 0 0 0-1 .5 3 3 0 0 0-.68 1l-.6 1.2-.5 1.1-.6 1.28-1.42 3.3-.47 1.07a8.78 8.78 0 0 0-.32.86l-.32.92a1 1 0 0 1-.14.29.26.26 0 0 1-.25.14c-.07 0-.1 0-.18-.1a.32.32 0 0 1-.1-.25l-.32-1.17c-.14-.5-.4-1.1-.65-1.78l-.4-1-1.63-4a11.1 11.1 0 0 1-.42-1.07l-.25-.6a3.26 3.26 0 0 0-.64-1.07 2.17 2.17 0 0 0-1-.53l-.32-.1c-.15-.15-.18-.25-.18-.33z" fill="#a69a47"/><path d="M1.4 18.92l7.1-8.7L20.6 7.6l11.87 2.64 7.2 8.7-1.82 7.98 1.2-.1 1.92-8.26-7.73-9.44L20.6 6.27 7.63 9.1 0 18.53 2.78 30.3l1.2-.1-2.6-11.26zm9.43-7.77l9.76-1.7L29.82 11 20.6 8.55l-9.76 2.6zm9.77-6.02l8.95 1.92 2.3-4.2L28.72 2l-.8 2.03-1.64-.25.75-2.14L23.87.9l-.5 2.07-1.32-.25.1-2.28L20.6 0l-1.56.43V2.7l-1.58.3-.43-2.15-3.1.8.6 2.07-1.46.28-.86-1.96-3.17.75 2.28 4.27 9.26-1.92zM5.67 19.74l-1.14-.14L7.1 29.9l.46-.07-1.88-10.08zm-1.9-.44l-1.14-.18 2.7 10.9.43-.04-2-10.7zm32.77.3l-1.14.14-1.38 7.55.64-.07 1.88-7.62zm1.9-.47l-1.1.18-1.46 7.8.6-.07 1.96-7.9zm-25.26 9.1l1.43.92 3.06-.28v-.43l-3.2-.92L13 24.58l-1.18-.28 2.78.07 3 1.57h.57L18 28.8l4.88-.46v-2.4h.57l3-1.57 2.78-.07-1.23.28-1.46 2.93-2.67.78 6.9-.68.07-1.7-.6-.85v-4.8l-2.17-3.07-3.53-1-3.92 1.74-3.92-1.74-3.53 1L11 20.24v4.8l-.68.85.14 3.67 3.64-.35zm7.4-6.42l2.07-.7-1.92 1.07-.15.46-.14-.46-2-1.07zm0 1.47l4.88-1.68-4.56 2.57-.32 1.1-.32-1.1-4.77-2.57z" fill="#ddd7a3"/><path d="M20.6 50.6l15.54-11.22 2.92-12.58-1.2.1-2.7 11.76L20.6 49.13 6 38.66l-2-8.48-1.2.1 2.14 9.08L20.6 50.6zM7.55 29.82l-.46.07 1.78 7.16-1.32-7.23zM5.77 30l-.43.04 1.64 6.6L5.77 30zm28.9-2.78l-.64.07-1.82 9.76 2.46-9.83zm1.8-.18l-.6.07-1.78 9.52 2.38-9.6zM13.86 43l6.73 4.6 6.45-4.6-6.48 3.25-6.7-3.25zm5.02-1.92h3.4l1.25-.68.46-1.92-3.4-1.2-3.42 1.2.4 1.9 1.3.7zm-7.05-10.23V32l2.6 3v-1.2l-1.2-1.32v-.78L15 33.53l1.14-1v1.07l-1 1.14v2.17l1.5 1.25 3.74-1.5v-1.28l-2.74-1.57.53-1.1 2.42.64 2.46-.64.32 1.14-2.56 1.57v1.28l3.7 1.5L26 37v-2.23l-1-1.14v-1.07l1.14 1 1.78-1.8v.78l-1.2 1.32v1.2l2.6-3v-1.2l1.36-.92.07-2.32-6.9.68-.57.18-.26 3.35-.08-3.42-4.92.46-.07 3-.28-2.92-3.07.28 1.68 1.1-.54.68-1.64-1.7-3.63.36V30zm15.9-2.63l-2.57 2.7-.53-.68z" fill="#a69a47"/></svg>