<svg xmlns="http://www.w3.org/2000/svg" xmlns:xlink="http://www.w3.org/1999/xlink" viewBox="0 0 155.73 20.45"><defs><style>.e0b79f5b-283e-4297-8d62-76399c2f220d{fill:url(#aca70ce8-1a54-41fe-b319-5f065f68afb6);}</style><linearGradient id="aca70ce8-1a54-41fe-b319-5f065f68afb6" y1="987.56" x2="155.73" y2="987.56" gradientTransform="matrix(1, 0, 0, -1, 0, 997.79)" gradientUnits="userSpaceOnUse"><stop offset="0" stop-color="#e1b899"/><stop offset="1" stop-color="#cd926d"/></linearGradient></defs><title>33</title><g id="bc81ff57-4b77-4591-a3e5-4c6e25f308e5" data-name="Слой 2"><g id="f29d6847-7f2c-4b41-8f01-ca0cfab51261" data-name="Слой 1"><path class="e0b79f5b-283e-4297-8d62-76399c2f220d" d="M134.64,20.16l5-1.25,1.31-3.2h0l1.57-3.87h0l2.64-6.44,2.64,6.44h0l1.57,3.87h0l1.31,3.2s5.5,1.29,5.08,1.25l-8.52-20h-4l-8.52,20ZM0,.14,5,1.4,7.85,8.46h0l.91,2.22,3.83,9.42,0,.07h-4L0,.14Zm11,0,5,1.26,1.3,3.2h0l1.58,3.86h0l2.65,6.45,2.64-6.45h0L25.64,4.6h0L27,1.4S32.45.11,32,.14l-8.52,20h-4L11,.14Zm31.26,20,4.37-2V.28l-4.37,2V20.16Zm16.07,0,4.32-2V7.53l9.63,12.63,3.72-2V.28l-4.32,2V12.53L62.33.28l-4,2V20.16Zm36.24.29c4.29,0,7.3-2.22,7.3-6.16,0-3.53-2.27-5-6.3-6-3.44-.88-4.29-1.3-4.29-2.61,0-1,.88-1.79,2.55-1.79a7.94,7.94,0,0,1,3.66,1l3.79-2.36A11.52,11.52,0,0,0,93.85,0c-4.06,0-7,2.39-7,6,0,4,2.59,5.12,6.59,6.14,3.33.85,4,1.42,4,2.52s-1.08,1.94-2.87,1.94a8.28,8.28,0,0,1-4.53-1.39l-4,2.07a12.63,12.63,0,0,0,8.43,3.18Zm17.84-.29h12.27l2-4h-9.91V.28l-4.37,2V20.16Z"/></g></g></svg>