<svg xmlns="http://www.w3.org/2000/svg" viewBox="0 0 121.93 64.19"><defs><style>.e085460d-f7ad-42ea-9616-029f2f16e1e1{fill:#c8c8c8;}</style></defs><title>34</title><g id="b731f025-7b07-49cd-a99c-07074cf57c6b" data-name="Слой 2"><g id="a10908ed-4af2-4a71-b4c8-6eba300ebeb6" data-name="Слой 1"><polygon class="e085460d-f7ad-42ea-9616-029f2f16e1e1" points="0 41.78 0 27.57 18.7 24.3 18.7 29.6 6.84 31.69 6.84 40.66 0 41.78"/><polygon class="e085460d-f7ad-42ea-9616-029f2f16e1e1" points="0 25.68 18.7 22.32 18.7 15.24 0 18.47 0 25.68"/><path class="e085460d-f7ad-42ea-9616-029f2f16e1e1" d="M20.49,38.33V24l20.78-3.57a4.5,4.5,0,0,1-1.59,2.74,4.34,4.34,0,0,1,1.45,2.23c.14,1.15,0,9.23,0,9.23l-6.9,1.17V27.1L27.5,28v9Z"/><path class="e085460d-f7ad-42ea-9616-029f2f16e1e1" d="M20.49,22V14.94l15.8-2.76a4.75,4.75,0,0,1,5,3.45v2.8Z"/><polygon class="e085460d-f7ad-42ea-9616-029f2f16e1e1" points="42.94 18.08 42.94 10.99 61.55 7.9 61.59 14.83 42.94 18.08"/><polygon class="e085460d-f7ad-42ea-9616-029f2f16e1e1" points="42.94 20.2 61.59 16.94 61.59 22.31 49.84 24.17 49.84 26.07 61.59 24.2 61.59 31.16 42.88 34.47 42.94 20.2"/><path class="e085460d-f7ad-42ea-9616-029f2f16e1e1" d="M84.08,11V3.89L68.5,6.56a7.07,7.07,0,0,0-5.2,4.86v3.1Z"/><path class="e085460d-f7ad-42ea-9616-029f2f16e1e1" d="M63.51,18.08A5.19,5.19,0,0,0,67,21.13l10.1-1.53v1.53L63.38,23.55v7.34l15.53-2.71s3-1.11,4.13-3.09a6.61,6.61,0,0,0,1-3.36v-3.9s-.54-2.25-1.21-2.71-1-1.29-3.59-1.21-16,2.63-16,2.63Z"/><polygon class="e085460d-f7ad-42ea-9616-029f2f16e1e1" points="85.97 10.71 85.97 3.62 92.68 2.42 92.7 9.6 85.97 10.71"/><polygon class="e085460d-f7ad-42ea-9616-029f2f16e1e1" points="99.77 8.29 99.77 1.21 106.47 0 106.5 7.18 99.77 8.29"/><polygon class="e085460d-f7ad-42ea-9616-029f2f16e1e1" points="85.97 12.72 106.5 9.21 106.5 23.43 99.77 24.59 99.77 15.62 92.7 16.9 92.7 25.82 86 26.93 85.97 12.72"/><path class="e085460d-f7ad-42ea-9616-029f2f16e1e1" d="M25.66,48v-7.3l15.53-2.55s2.88.25,3.58,1.05A6.12,6.12,0,0,1,46.15,42v2.43Z"/><path class="e085460d-f7ad-42ea-9616-029f2f16e1e1" d="M25.62,49.75l20.53-3.57A10.18,10.18,0,0,1,44.4,50.8c-1.46,1.82-2.67,1.67-2.67,1.67l-9.22,1.58V62.9l-6.85,1.29Z"/><path class="e085460d-f7ad-42ea-9616-029f2f16e1e1" d="M47.67,44.07V41.39a6.94,6.94,0,0,1,1.72-3A11.86,11.86,0,0,1,53,36.05l10.1-1.78s2.5-.13,3.56.9A5.91,5.91,0,0,1,68.48,38v2.51Z"/><path class="e085460d-f7ad-42ea-9616-029f2f16e1e1" d="M54.56,44.68l-6.87,1.25v9.82a5.9,5.9,0,0,0,1.65,2.86c1.11.78,3.75.89,3.75.89L63.5,57.61a11.61,11.61,0,0,0,3.33-2.43,10.27,10.27,0,0,0,1.59-3.52c0-.41,0-9.33,0-9.33L61.8,43.48v7.44L54.59,52Z"/><polygon class="e085460d-f7ad-42ea-9616-029f2f16e1e1" points="70.28 33.08 77.07 31.85 77.1 39.03 70.34 40.25 70.28 33.08"/><polygon class="e085460d-f7ad-42ea-9616-029f2f16e1e1" points="70.28 42.01 77.07 40.84 77.07 55.31 70.31 56.55 70.28 42.01"/><polygon class="e085460d-f7ad-42ea-9616-029f2f16e1e1" points="78.91 55.01 78.91 40.53 85.67 39.32 85.67 53.83 78.91 55.01"/><polygon class="e085460d-f7ad-42ea-9616-029f2f16e1e1" points="92.64 52.63 92.64 38.15 99.48 37.03 99.48 51.44 92.64 52.63"/><path class="e085460d-f7ad-42ea-9616-029f2f16e1e1" d="M78.86,38.74V31.6l16-2.71s2.54.08,3.46,1.38A5.49,5.49,0,0,1,99.48,33c0,.54,0,2.15,0,2.15Z"/><polygon class="e085460d-f7ad-42ea-9616-029f2f16e1e1" points="107.95 35.52 115.09 34.36 115.09 48.75 107.95 50 107.95 35.52"/><polygon class="e085460d-f7ad-42ea-9616-029f2f16e1e1" points="101.15 34.94 101.15 27.73 121.93 24.17 121.93 31.29 101.15 34.94"/></g></g></svg>