<svg xmlns="http://www.w3.org/2000/svg" viewBox="0 0 84.31 68.5"><defs><style>.b624627d-c271-4d13-bcff-5a830f8e0b61{fill:#c8c8c8;}</style></defs><title>36</title><g id="a51961b5-4a56-4b76-85cb-ae78ab3823d2" data-name="Слой 2"><g id="fcb7a81d-2836-438b-9a80-1a8d482804e8" data-name="Слой 1"><path class="b624627d-c271-4d13-bcff-5a830f8e0b61" d="M50.68,1.71,39.85,37.51a1.65,1.65,0,0,1-1.6,1.24H33.31a1.91,1.91,0,0,1-1.89-1.35L25.54,18.62,19.65,37.4a1.91,1.91,0,0,1-1.89,1.35H12.59A1.67,1.67,0,0,1,11,37.51L.12,1.71C-.06,1,.12,0,1.17,0H7.64A2.22,2.22,0,0,1,10,1.89l5.83,20,5.66-20c.23-.83.65-1.89,2-1.89H27.6c1.29,0,1.71,1.06,1.94,1.89l5.71,20,5.83-20A2.19,2.19,0,0,1,43.43,0h6.24C50.74,0,50.93,1,50.68,1.71Z"/><path class="b624627d-c271-4d13-bcff-5a830f8e0b61" d="M84.24,1.71V6.6c0,1.06-.35,1.71-1.72,1.71h-9V37c0,1.34-.65,1.71-1.71,1.71H66c-1.06,0-1.71-.35-1.71-1.71V8.31H55.2c-1.34,0-1.71-.65-1.71-1.71V1.71C53.49.65,53.84,0,55.2,0H82.52C83.89,0,84.24.65,84.24,1.71Z"/><path class="b624627d-c271-4d13-bcff-5a830f8e0b61" d="M10,68.26H8.51L6.83,57.05a29,29,0,0,1-.3-3.21,8.26,8.26,0,0,0-.08,1,17,17,0,0,1-.29,2.27L4.22,68.26H2.77L0,51H1.65L3.2,61.86c.11.65.16,1.29.21,1.94,0,.44,0,.86.1,1.29.1-1.14.3-2.24.49-3.36L5.84,51h1.4L8.85,61.92c.1.62.16,1.26.23,1.88.06.44.1.86.17,1.29.13-1.08.29-2.17.44-3.26L11.37,51H13Z"/><path class="b624627d-c271-4d13-bcff-5a830f8e0b61" d="M17.73,68.26l-.44-2.48H14.73l-.45,2.48H13.09l2.4-12.08h1l2.41,12.08ZM16.3,60.54A22.48,22.48,0,0,1,16,57.7a71,71,0,0,1-1,7.1H17.1Z"/><path class="b624627d-c271-4d13-bcff-5a830f8e0b61" d="M19.94,68.26V56.18h1.12V67.23h2.61v1Z"/><path class="b624627d-c271-4d13-bcff-5a830f8e0b61" d="M27.93,52.48V68.26H26.32V52.48H23.74V51h6.77v1.48Z"/><path class="b624627d-c271-4d13-bcff-5a830f8e0b61" d="M47.65,64.38a20,20,0,0,1-1.52,1.79l1.06,2.1h-1.7l-.52-1a4,4,0,0,1-2.84,1.19c-2.54,0-4.17-2.3-4.17-4.68,0-2.15,1-3.57,2.57-5A9.75,9.75,0,0,1,39,54.19a3.38,3.38,0,0,1,3.42-3.42,3.08,3.08,0,0,1,3.1,3.2c0,2.38-1.62,3.89-3,5.12l3,5.64a13.9,13.9,0,0,0,1.19-1.45Zm-6.42-4.14a5.44,5.44,0,0,0-1.76,3.59c0,1.45,1,3.11,2.58,3.11a3.43,3.43,0,0,0,2.21-1Zm1.05-8.07a1.89,1.89,0,0,0-1.85,2,7.25,7.25,0,0,0,1.26,3.75,5.13,5.13,0,0,0,2.22-4A1.68,1.68,0,0,0,42.28,52.17Z"/><path class="b624627d-c271-4d13-bcff-5a830f8e0b61" d="M58.32,52.48V68.26H56.71V52.48H54.13V51H60.9v1.48Z"/><path class="b624627d-c271-4d13-bcff-5a830f8e0b61" d="M62,68.26V56.18h1.12V68.26Z"/><path class="b624627d-c271-4d13-bcff-5a830f8e0b61" d="M65.05,68.26V56.18h3.77v1H66.18v4.24h2.57v1H66.18v4.73h2.64v1H65.05Z"/><path class="b624627d-c271-4d13-bcff-5a830f8e0b61" d="M72.65,57.22v11H71.53v-11H69.71v-1h4.74v1Z"/><path class="b624627d-c271-4d13-bcff-5a830f8e0b61" d="M76,67.23h3.06v1H74.64L78,57.21H75v-1h4.43Z"/><path class="b624627d-c271-4d13-bcff-5a830f8e0b61" d="M80.54,68.26V56.18h3.77v1H81.67v4.24h2.57v1H81.67v4.73h2.64v1H80.54Z"/></g></g></svg>