<svg xmlns="http://www.w3.org/2000/svg" viewBox="0 0 128.88 81.51"><defs><style>.eff2aa32-1686-45cd-b902-0b4fbba3c2e8{fill:#4c73b7;}.a8015f85-6767-43ef-973c-6679fb2ad675,.eff2aa32-1686-45cd-b902-0b4fbba3c2e8{fill-rule:evenodd;}.a8015f85-6767-43ef-973c-6679fb2ad675{fill:#888685;}</style></defs><title>37</title><g id="e3a590d4-26db-4de8-b8de-87fbe81d0285" data-name="Слой 2"><g id="a2d45713-8a52-49f9-804c-9abbef297955" data-name="Слой 1"><path class="eff2aa32-1686-45cd-b902-0b4fbba3c2e8" d="M33.11,46.17v0a40.08,40.08,0,0,0,7.25-23.06c0-8.56-2.6-16-7.25-23.14h0c-4.21,6.72-6.89,13.75-7.14,21.58a41.2,41.2,0,0,0,7.17,24.59Zm0-1.67v0a18.3,18.3,0,0,1-2-8.36,18,18,0,0,1,2-8.34v0a19,19,0,0,1,2,8.37,19.11,19.11,0,0,1-2,8.39ZM27.72,21.39A45.68,45.68,0,0,1,33.08,3.57l0,0a42.2,42.2,0,0,1,5.52,19.12,34.59,34.59,0,0,1-.78,9.07,39.27,39.27,0,0,0-.59-9,41,41,0,0,0-4.15-11.71l0,0a43.83,43.83,0,0,0-3.85,10.51,46.7,46.7,0,0,0-.92,10.24,48.37,48.37,0,0,1-.59-10.4Z"/><path class="eff2aa32-1686-45cd-b902-0b4fbba3c2e8" d="M25.74,54.68a5.39,5.39,0,0,1,4.69-1.87c3.18.31,5.21,2.2,5.38,5.35.31,6-7.67,9.68-12.66,9.4A13.44,13.44,0,0,1,10,55.9a14,14,0,0,1,3.65-11.54,14.45,14.45,0,0,1,10.6-4.29V22C10.72,22,.73,31.56,0,44.7c-.76,14.63,9.87,24.56,23.42,25C30.65,70,36,67.31,41,62.65V47.07H25.74v7.61Z"/><polygon class="eff2aa32-1686-45cd-b902-0b4fbba3c2e8" points="44.58 69.21 49.1 69.21 49.1 50.63 51.18 50.63 51.18 47.09 44.58 47.09 44.58 69.21 44.58 69.21"/><path class="eff2aa32-1686-45cd-b902-0b4fbba3c2e8" d="M53.51,47.09,51.37,69.21h4l.47-4h1.75l.49,4h4L60,47.09ZM56,61.1l.6-8h.22l.63,8Z"/><path class="eff2aa32-1686-45cd-b902-0b4fbba3c2e8" d="M72.75,57.81v-.25c1-.16,1-2.11,1-3V51c0-2.71-.19-3.95-3.34-3.95H66.61c-3.18,0-3.37,1.59-3.37,3.95V54h4.52v-2.5a.71.71,0,0,1,.71-.74.72.72,0,0,1,.72.74v2.63c0,1.37-.44,1.65-1.73,1.65h-.85v3.86h.77c1.7,0,1.81.77,1.81,1.46v4a.71.71,0,0,1-.72.74.7.7,0,0,1-.71-.74V61.18H63.24v4.06c0,3.15.19,4,3.37,4h3.76c2.9,0,3.34-.55,3.34-4V60.8c0-.8.14-3-1-3Z"/><polygon class="eff2aa32-1686-45cd-b902-0b4fbba3c2e8" points="75.74 69.21 80.26 69.21 80.26 50.68 81.69 50.68 81.69 69.21 86.21 69.21 86.21 47.09 75.74 47.09 75.74 69.21 75.74 69.21"/><path class="eff2aa32-1686-45cd-b902-0b4fbba3c2e8" d="M95.67,47.09h-7.1V69.21h4.52V61.68h2.58c3.17,0,3.36-1.43,3.36-4V51c0-1.95-.19-3.95-3.36-3.95Zm-1.16,10c0,.71-.35,1.12-.85,1.12h-.57V50.63h.57c.5,0,.85.41.85,1.1v5.4Z"/><path class="eff2aa32-1686-45cd-b902-0b4fbba3c2e8" d="M108.05,47.09H104.3c-3.15,0-3.35,1.81-3.35,3.9V65.24c0,2.57.2,4,3.35,4h3.75c3.18,0,3.37-1.23,3.37-4V51c0-2.14-.19-3.95-3.37-3.95ZM106.9,65a.71.71,0,0,1-.71.71.67.67,0,0,1-.71-.71V51.4a.67.67,0,0,1,.71-.72.71.71,0,0,1,.71.72V65Z"/><polygon class="eff2aa32-1686-45cd-b902-0b4fbba3c2e8" points="122.88 47.09 121.07 57.21 119.43 47.09 113.53 47.09 113.53 69.21 118.08 69.21 118.08 59.18 118.25 59.18 119.76 69.21 122.53 69.21 124.09 59.18 124.25 59.18 124.25 69.21 128.77 69.21 128.77 47.09 122.88 47.09 122.88 47.09"/><path class="a8015f85-6767-43ef-973c-6679fb2ad675" d="M2.63,75.46a.47.47,0,0,1,.49.49v2.93a.48.48,0,0,1-.49.51.48.48,0,0,1-.48-.51V76a.46.46,0,0,1,.48-.49ZM.76,76v2.59a1.63,1.63,0,0,0,1.87,1.8c1.31,0,1.88-.64,1.88-1.8V76.05c0-.9-.56-1.64-1.87-1.64S.76,75.13.76,76Z"/><polygon class="a8015f85-6767-43ef-973c-6679fb2ad675" points="6.28 75.7 5.19 75.7 5.19 74.55 8.57 74.55 8.57 75.7 7.55 75.7 7.55 80.31 6.28 80.31 6.28 75.7 6.28 75.7"/><polygon class="a8015f85-6767-43ef-973c-6679fb2ad675" points="9.32 74.55 10.65 74.55 10.65 76.84 11.62 74.55 13.13 74.55 11.85 77.09 13.13 80.31 11.67 80.31 11.03 78.31 10.65 78.97 10.65 80.31 9.32 80.31 9.32 74.55 9.32 74.55"/><path class="a8015f85-6767-43ef-973c-6679fb2ad675" d="M15.25,77V75.58h.22c.4,0,.68.14.68.71s-.31.74-.65.74Zm-1.39,3.28h1.39V78.06h.62a1.53,1.53,0,0,0,1.68-1.75c0-1.48-.88-1.77-1.68-1.77h-2v5.77Z"/><path class="a8015f85-6767-43ef-973c-6679fb2ad675" d="M18.39,74.54h1.39v2.25h.62c.82,0,1.68.34,1.68,1.77s-.87,1.75-1.68,1.75h-2V74.54Zm1.39,3.29v1.45H20c.4,0,.69-.14.69-.71s-.32-.74-.66-.74Zm2.87,2.48H24V74.54H22.65v5.77Z"/><polygon class="a8015f85-6767-43ef-973c-6679fb2ad675" points="25.85 75.7 24.76 75.7 24.76 74.55 28.15 74.55 28.15 75.7 27.13 75.7 27.13 80.31 25.85 80.31 25.85 75.7 25.85 75.7"/><path class="a8015f85-6767-43ef-973c-6679fb2ad675" d="M30.69,75.46a.47.47,0,0,1,.47.49v2.93a.48.48,0,1,1-1,0V76a.47.47,0,0,1,.49-.49ZM28.81,76v2.59c0,1.16.58,1.8,1.88,1.8s1.86-.64,1.86-1.8V76.05c0-.9-.55-1.64-1.86-1.64s-1.88.72-1.88,1.63Z"/><polygon class="a8015f85-6767-43ef-973c-6679fb2ad675" points="33.5 74.55 36.74 74.55 36.74 75.64 34.9 75.64 34.9 76.75 36.6 76.75 36.6 77.85 34.9 77.85 34.9 79.22 36.74 79.22 36.74 80.31 33.5 80.31 33.5 74.55 33.5 74.55"/><path class="a8015f85-6767-43ef-973c-6679fb2ad675" d="M41.19,78.12l.36-2.54.38,2.54Zm-1.7,2.19h1.38l.18-1.15h1.06l.21,1.15h1.36l-1.27-5.77H40.75l-1.26,5.77Z"/><polygon class="a8015f85-6767-43ef-973c-6679fb2ad675" points="44.34 74.55 45.67 74.55 45.67 76.84 46.64 74.55 48.15 74.55 46.88 77.09 48.15 80.31 46.7 80.31 46.05 78.31 45.67 78.97 45.67 80.31 44.34 80.31 44.34 74.55 44.34 74.55"/><polygon class="a8015f85-6767-43ef-973c-6679fb2ad675" points="51.17 79.16 51.17 74.55 52.56 74.55 52.56 79.16 52.87 79.16 52.87 81.51 51.5 81.51 51.5 80.31 48.88 80.31 48.88 74.55 50.27 74.55 50.27 79.16 51.17 79.16 51.17 79.16"/><path class="a8015f85-6767-43ef-973c-6679fb2ad675" d="M57.26,80.31H55.94V79c0-.62.19-1.56.25-2.17L55,80.31H53.64V74.54H55V76c0,.64-.17,1.55-.21,2.19l1.17-3.63h1.32v5.77Z"/><path class="a8015f85-6767-43ef-973c-6679fb2ad675" d="M60.06,75.46a.46.46,0,0,1,.48.49v2.93a.48.48,0,1,1-1,0V76a.46.46,0,0,1,.48-.49ZM58.19,76v2.59a1.63,1.63,0,0,0,1.87,1.8c1.3,0,1.88-.64,1.88-1.8V76.05c0-.9-.56-1.64-1.87-1.64s-1.88.72-1.88,1.63Z"/><polygon class="a8015f85-6767-43ef-973c-6679fb2ad675" points="64.27 80.31 62.88 80.31 62.88 74.55 64.27 74.55 64.27 76.73 65.18 76.73 65.18 74.55 66.57 74.55 66.57 80.31 65.18 80.31 65.18 77.88 64.27 77.88 64.27 80.31 64.27 80.31"/><polygon class="a8015f85-6767-43ef-973c-6679fb2ad675" points="67.61 74.55 70.84 74.55 70.84 75.64 69 75.64 69 76.75 70.7 76.75 70.7 77.85 69 77.85 69 79.22 70.84 79.22 70.84 80.31 67.61 80.31 67.61 74.55 67.61 74.55"/><path class="a8015f85-6767-43ef-973c-6679fb2ad675" d="M73.08,77V75.58h.23c.4,0,.68.14.68.71s-.32.74-.66.74Zm-1.39,3.28h1.39V78.06h.63a1.53,1.53,0,0,0,1.68-1.75c0-1.48-.87-1.77-1.68-1.77h-2v5.77Z"/><polygon class="a8015f85-6767-43ef-973c-6679fb2ad675" points="77.61 80.31 76.22 80.31 76.22 74.55 77.61 74.55 77.61 76.73 78.52 76.73 78.52 74.55 79.91 74.55 79.91 80.31 78.52 80.31 78.52 77.88 77.61 77.88 77.61 80.31 77.61 80.31"/><path class="a8015f85-6767-43ef-973c-6679fb2ad675" d="M82.73,75.46a.47.47,0,0,1,.48.49v2.93a.48.48,0,0,1-.48.51.48.48,0,0,1-.48-.51V76a.46.46,0,0,1,.48-.49ZM80.86,76v2.59c0,1.16.58,1.8,1.87,1.8s1.88-.64,1.88-1.8V76.05c0-.9-.56-1.64-1.87-1.64s-1.88.72-1.88,1.63Z"/><polygon class="a8015f85-6767-43ef-973c-6679fb2ad675" points="85.55 74.55 88.78 74.55 88.78 75.64 86.95 75.64 86.95 76.75 88.64 76.75 88.64 77.85 86.95 77.85 86.95 79.22 88.78 79.22 88.78 80.31 85.55 80.31 85.55 74.55 85.55 74.55"/><path class="a8015f85-6767-43ef-973c-6679fb2ad675" d="M93.73,75.46a.47.47,0,0,1,.48.49v2.93a.49.49,0,1,1-1,0V76a.47.47,0,0,1,.49-.49ZM91.85,76v2.59c0,1.16.59,1.8,1.88,1.8s1.87-.64,1.87-1.8V76.05c0-.9-.56-1.64-1.87-1.64s-1.88.72-1.88,1.63Z"/><path class="a8015f85-6767-43ef-973c-6679fb2ad675" d="M96.55,74.54h3.14v1H97.94v1.21h.62c.82,0,1.68.34,1.68,1.77s-.87,1.75-1.68,1.75h-2V74.54Zm1.39,3.29v1.45h.22c.4,0,.68-.14.68-.71s-.31-.74-.65-.74Z"/><polygon class="a8015f85-6767-43ef-973c-6679fb2ad675" points="101.14 74.55 102.53 74.55 102.53 79.16 103.45 79.16 103.45 74.55 104.79 74.55 104.79 79.16 105.71 79.16 105.71 74.55 107.1 74.55 107.1 79.16 107.39 79.16 107.39 81.51 106.03 81.51 106.03 80.31 101.14 80.31 101.14 74.55 101.14 74.55"/><polygon class="a8015f85-6767-43ef-973c-6679fb2ad675" points="108.2 74.55 111.43 74.55 111.43 75.64 109.59 75.64 109.59 76.75 111.29 76.75 111.29 77.85 109.59 77.85 109.59 79.22 111.43 79.22 111.43 80.31 108.2 80.31 108.2 74.55 108.2 74.55"/><path class="a8015f85-6767-43ef-973c-6679fb2ad675" d="M115.88,78v.54c0,1.31-.59,1.87-1.88,1.87s-1.88-.55-1.88-1.88V76.05c0-.91.56-1.64,1.88-1.64s1.88.75,1.88,1.65v.52h-1.39v-.65a.47.47,0,0,0-.5-.45.42.42,0,0,0-.47.42v2.9c0,.43.18.6.47.6s.5-.17.5-.6V78Z"/><polygon class="a8015f85-6767-43ef-973c-6679fb2ad675" points="117.64 75.7 116.55 75.7 116.55 74.55 119.94 74.55 119.94 75.7 118.92 75.7 118.92 80.31 117.64 80.31 117.64 75.7 117.64 75.7"/><path class="a8015f85-6767-43ef-973c-6679fb2ad675" d="M122,75.58h.41a.48.48,0,0,1,.55.54c0,.46-.16.66-.55.66H122v-1.2Zm0,2.23h.35c.49,0,.64.27.64.75s-.15.72-.68.72H122V77.81Zm.59,2.5a1.55,1.55,0,0,0,1.76-1.7,1.31,1.31,0,0,0-.84-1.4,1.16,1.16,0,0,0,.78-1.22,1.35,1.35,0,0,0-1.41-1.45H120.7v5.77Z"/><path class="a8015f85-6767-43ef-973c-6679fb2ad675" d="M127,75.46a.47.47,0,0,1,.49.49v2.93a.48.48,0,0,1-.49.51.48.48,0,0,1-.48-.51V76a.46.46,0,0,1,.48-.49Zm-1.87.58v2.59a1.63,1.63,0,0,0,1.87,1.8c1.31,0,1.87-.64,1.87-1.8V76.05c0-.9-.55-1.64-1.86-1.64s-1.88.72-1.88,1.63Z"/></g></g></svg>