<svg xmlns="http://www.w3.org/2000/svg" viewBox="0 0 93.45 72.31"><defs><style>.ae6755fb-b1ae-45e0-9078-a58f310d2d9e{fill:#c9674b;}.e3861c2c-c6ec-4f7c-835c-3fb84388cc6c{fill:#c6c6c6;}</style></defs><title>38</title><g id="fc89e210-2292-46a0-a1b9-6e53eadbe196" data-name="Слой 2"><g id="b35cca39-fd98-4782-bac8-70acac3dc90a" data-name="Слой 1"><polygon class="ae6755fb-b1ae-45e0-9078-a58f310d2d9e" points="73.7 0 70.09 0 52.93 0 52.93 3.71 70.09 3.71 70.09 30.32 66.58 30.32 66.58 7.35 64.25 7.35 62.84 7.35 49.22 7.35 49.22 11.09 62.84 11.09 62.84 30.32 62.84 34.02 66.58 34.02 70.09 34.02 73.7 34.02 73.8 34.02 73.8 0 73.7 0"/><rect class="ae6755fb-b1ae-45e0-9078-a58f310d2d9e" x="49.22" y="7.35" width="3.71" height="19.29"/><polygon class="e3861c2c-c6ec-4f7c-835c-3fb84388cc6c" points="45.68 30.32 45.68 14.37 41.97 14.37 41.97 30.32 41.97 34.02 45.68 34.02 52.83 34.02 52.83 30.32 45.68 30.32"/><polygon class="e3861c2c-c6ec-4f7c-835c-3fb84388cc6c" points="45.68 3.71 45.68 0 23.36 0 19.66 0 19.66 3.71 19.66 7.35 19.66 11.09 23.36 11.09 26.81 11.09 26.81 30.32 26.81 34.02 30.52 34.02 34.42 34.02 37.67 34.02 38.16 34.02 38.16 11.09 45.68 11.09 45.68 7.35 38.16 7.35 34.42 7.35 34.42 11.09 34.42 30.32 30.52 30.32 30.52 11.09 30.52 7.35 26.81 7.35 23.36 7.35 23.36 3.71 45.68 3.71"/><path class="e3861c2c-c6ec-4f7c-835c-3fb84388cc6c" d="M17.19,48.86v9H15.55v-9H13.87V47.34h5v1.52Z"/><path class="e3861c2c-c6ec-4f7c-835c-3fb84388cc6c" d="M20.12,57.85V47.34h4.66v1.52H21.73v2.86h2.64v1.56H21.73v3h3v1.52H20.12Z"/><path class="e3861c2c-c6ec-4f7c-835c-3fb84388cc6c" d="M29.76,57.85l-1.2-3.61h0l-1.2,3.61h-1.8l2.14-5.51c-.33-.84-.67-1.65-1-2.5l-1-2.52h1.82c.17.52.34,1.06.5,1.58s.34,1,.51,1.59l.07,0,1-3.14h1.85l-2,5c.35.94.72,1.85,1.1,2.77s.73,1.82,1.11,2.74Z"/><path class="e3861c2c-c6ec-4f7c-835c-3fb84388cc6c" d="M36.37,57.85V53.26H34.5v4.59H32.87V47.34H34.5v4.4l1.87-4.4H38V57.85Z"/><path class="e3861c2c-c6ec-4f7c-835c-3fb84388cc6c" d="M44.93,55.16a3.05,3.05,0,0,1-.62,2.06,2.49,2.49,0,0,1-2,.69,2.37,2.37,0,0,1-1.92-.67,2.78,2.78,0,0,1-.6-1.94V50A4,4,0,0,1,40,48.88a2.72,2.72,0,0,1,.43-.89,2,2,0,0,1,.79-.58,3.08,3.08,0,0,1,1.18-.19,3.39,3.39,0,0,1,1.2.19,1.91,1.91,0,0,1,.8.55,2.37,2.37,0,0,1,.43.87A4.18,4.18,0,0,1,44.94,50v5.17ZM43.3,49.91a1.78,1.78,0,0,0-.2-.79.71.71,0,0,0-.72-.34.83.83,0,0,0-.45.12,1.21,1.21,0,0,0-.29.31,1.34,1.34,0,0,0-.15.44,3.28,3.28,0,0,0,0,.43v5.29a1.49,1.49,0,0,0,.19.72.77.77,0,0,0,.7.33.82.82,0,0,0,.72-.33,1.44,1.44,0,0,0,.22-.82V49.91Z"/><path class="e3861c2c-c6ec-4f7c-835c-3fb84388cc6c" d="M52.07,47.34V57.85H50.43v-9H48.85v4.06a18.51,18.51,0,0,1-.1,2.14,5.57,5.57,0,0,1-.33,1.44,2.89,2.89,0,0,1-.65,1,3.77,3.77,0,0,1-1.06.64l-.62-1.2a2.39,2.39,0,0,0,.65-.5,2.9,2.9,0,0,0,.4-.67,3.21,3.21,0,0,0,.19-1c0-.38.05-.84.05-1.42v-6h4.69v0Z"/><path class="e3861c2c-c6ec-4f7c-835c-3fb84388cc6c" d="M59,55.16a3.05,3.05,0,0,1-.62,2.06,2.49,2.49,0,0,1-2,.69,2.38,2.38,0,0,1-1.92-.67A2.78,2.78,0,0,1,54,55.3V50a4,4,0,0,1,.15-1.13,2.72,2.72,0,0,1,.43-.89,2,2,0,0,1,.79-.58,3.08,3.08,0,0,1,1.18-.19,3.39,3.39,0,0,1,1.2.19,1.91,1.91,0,0,1,.8.55,2.37,2.37,0,0,1,.43.87A4.18,4.18,0,0,1,59.05,50v5.17ZM57.4,49.91a1.77,1.77,0,0,0-.19-.79c-.12-.25-.36-.34-.72-.34a.89.89,0,0,0-.46.12,1.36,1.36,0,0,0-.28.31,1.34,1.34,0,0,0-.15.44,3.28,3.28,0,0,0,0,.43v5.29a1.49,1.49,0,0,0,.19.72.77.77,0,0,0,.7.33.82.82,0,0,0,.72-.33,1.44,1.44,0,0,0,.22-.82V49.91Z"/><path class="e3861c2c-c6ec-4f7c-835c-3fb84388cc6c" d="M62.52,48.86v9H60.91V47.34h4.54v1.52Z"/><path class="e3861c2c-c6ec-4f7c-835c-3fb84388cc6c" d="M70.67,51.26l-2.21,6.59H66.9V47.34h1.58V54h.07l2.19-6.66h1.59V57.85H70.72V51.26Z"/><path class="e3861c2c-c6ec-4f7c-835c-3fb84388cc6c" d="M77.93,51.26l-2.21,6.59H74.15V47.34h1.59V54h.07L78,47.34h1.59V57.85H78V51.26Z"/><path class="e3861c2c-c6ec-4f7c-835c-3fb84388cc6c" d="M3.29,72.25V63.31H1.63v8.94H0V61.74H4.93V72.25Z"/><path class="e3861c2c-c6ec-4f7c-835c-3fb84388cc6c" d="M8.82,61.74a2.67,2.67,0,0,1,2.12.75,3.6,3.6,0,0,1,.67,2.43,5.49,5.49,0,0,1-.15,1.34,2.59,2.59,0,0,1-.45,1,2.28,2.28,0,0,1-.87.67,3.34,3.34,0,0,1-1.34.24H8.13v4H6.49V61.74Zm-.69,1.51v3.39H8.7a1.19,1.19,0,0,0,1.06-.43,2.41,2.41,0,0,0,.29-1.3,2.36,2.36,0,0,0-.29-1.23,1.17,1.17,0,0,0-1-.45H8.13Z"/><path class="e3861c2c-c6ec-4f7c-835c-3fb84388cc6c" d="M16.44,65.66l-2.21,6.59H12.67V61.74h1.58V68.4h.08l2.19-6.66H18.1V72.25H16.49V65.66Z"/><path class="e3861c2c-c6ec-4f7c-835c-3fb84388cc6c" d="M21.22,65.8h.7a3.5,3.5,0,0,1,1.35.22,2.16,2.16,0,0,1,.87.62,2.44,2.44,0,0,1,.45,1A5.32,5.32,0,0,1,24.74,69a3.86,3.86,0,0,1-.67,2.48,2.58,2.58,0,0,1-2.1.82H19.64V61.74h4.61v1.51h-3V65.8Zm0,4.91h.63a.8.8,0,0,0,.21,0,1,1,0,0,0,.87-.53A2.77,2.77,0,0,0,23.15,69a2.13,2.13,0,0,0-.29-1.25,1.21,1.21,0,0,0-1-.41h-.57v3.39Z"/><path class="e3861c2c-c6ec-4f7c-835c-3fb84388cc6c" d="M30.82,69.55a3,3,0,0,1-.63,2.07,2.5,2.5,0,0,1-1.94.69,2.37,2.37,0,0,1-1.92-.67,2.8,2.8,0,0,1-.6-1.94V64.41a4.37,4.37,0,0,1,.14-1.13,2.78,2.78,0,0,1,.43-.9,2.11,2.11,0,0,1,.8-.57,3,3,0,0,1,1.18-.19,3.39,3.39,0,0,1,1.2.19,1.91,1.91,0,0,1,.8.55,2.53,2.53,0,0,1,.43.87,4.46,4.46,0,0,1,.12,1.15v5.17Zm-1.64-5.24a1.74,1.74,0,0,0-.19-.79.71.71,0,0,0-.72-.34.89.89,0,0,0-.46.12,1.16,1.16,0,0,0-.28.31,1.09,1.09,0,0,0-.15.43,3.8,3.8,0,0,0-.05.43v5.29a1.5,1.5,0,0,0,.2.73.76.76,0,0,0,.7.33.82.82,0,0,0,.72-.33,1.54,1.54,0,0,0,.21-.82V64.31Z"/><path class="e3861c2c-c6ec-4f7c-835c-3fb84388cc6c" d="M34.64,61.74a2.67,2.67,0,0,1,2.12.75,3.6,3.6,0,0,1,.67,2.43,5.49,5.49,0,0,1-.15,1.34,2.59,2.59,0,0,1-.45,1A2.28,2.28,0,0,1,36,68a3.34,3.34,0,0,1-1.34.24H34v4H32.31V61.74Zm-.7,1.51v3.39h.57a1.18,1.18,0,0,0,1.06-.43,2.41,2.41,0,0,0,.29-1.3,2.36,2.36,0,0,0-.29-1.23,1.15,1.15,0,0,0-1-.45h-.6v0Z"/><path class="e3861c2c-c6ec-4f7c-835c-3fb84388cc6c" d="M43.56,69.55a3,3,0,0,1-.63,2.07,2.5,2.5,0,0,1-1.94.69,2.37,2.37,0,0,1-1.92-.67,2.8,2.8,0,0,1-.6-1.94V64.41a4.37,4.37,0,0,1,.14-1.13,2.78,2.78,0,0,1,.43-.9,2.11,2.11,0,0,1,.8-.57A3,3,0,0,1,41,61.62a3.39,3.39,0,0,1,1.2.19,1.91,1.91,0,0,1,.8.55,2.53,2.53,0,0,1,.43.87,4.46,4.46,0,0,1,.12,1.15v5.17Zm-1.64-5.24a1.74,1.74,0,0,0-.19-.79.71.71,0,0,0-.72-.34.89.89,0,0,0-.46.12,1.41,1.41,0,0,0-.29.31,1.09,1.09,0,0,0-.14.43,3.8,3.8,0,0,0,0,.43v5.29a1.5,1.5,0,0,0,.19.73.78.78,0,0,0,.7.33.83.83,0,0,0,.73-.33,1.54,1.54,0,0,0,.21-.82V64.31Z"/><path class="e3861c2c-c6ec-4f7c-835c-3fb84388cc6c" d="M47.5,61.64a3.2,3.2,0,0,1,1.13.17,2.1,2.1,0,0,1,.77.5,2,2,0,0,1,.46.77,3.34,3.34,0,0,1,.14,1l-1.59.4a1.83,1.83,0,0,0-.21-.93.75.75,0,0,0-.7-.36.81.81,0,0,0-.46.12.84.84,0,0,0-.28.31,1.38,1.38,0,0,0-.15.4,3.32,3.32,0,0,0,0,.41v5.34a2,2,0,0,0,0,.33,1.25,1.25,0,0,0,.12.34.92.92,0,0,0,.26.26.85.85,0,0,0,.43.1c.6,0,.92-.43.92-1.3.26,0,.55.09.82.12a8.11,8.11,0,0,1,.82.12,3,3,0,0,1-.65,1.9,2.38,2.38,0,0,1-1.85.69,2.56,2.56,0,0,1-1.92-.65,2.75,2.75,0,0,1-.62-1.92V64.49A5.63,5.63,0,0,1,45,63.38a3.18,3.18,0,0,1,.43-.91,1.94,1.94,0,0,1,.8-.62A3.37,3.37,0,0,1,47.5,61.64Z"/><path class="e3861c2c-c6ec-4f7c-835c-3fb84388cc6c" d="M53.75,63.25v9H52.11v-9H50.43V61.74h5v1.51Z"/><path class="e3861c2c-c6ec-4f7c-835c-3fb84388cc6c" d="M58.63,61.74a2.67,2.67,0,0,1,2.12.75,3.6,3.6,0,0,1,.67,2.43,5.49,5.49,0,0,1-.15,1.34,2.74,2.74,0,0,1-.45,1A2.28,2.28,0,0,1,60,68a3.36,3.36,0,0,1-1.35.24h-.67v4H56.3V61.74ZM58,63.25v3.39h.57a1.18,1.18,0,0,0,1.06-.43,2.41,2.41,0,0,0,.29-1.3,2.36,2.36,0,0,0-.29-1.23,1.15,1.15,0,0,0-1-.45H58v0Z"/><path class="e3861c2c-c6ec-4f7c-835c-3fb84388cc6c" d="M67.54,69.55a3,3,0,0,1-.62,2.07,2.5,2.5,0,0,1-1.94.69,2.37,2.37,0,0,1-1.92-.67,2.8,2.8,0,0,1-.6-1.94V64.41a4.37,4.37,0,0,1,.14-1.13,2.78,2.78,0,0,1,.43-.9,2,2,0,0,1,.8-.57A3,3,0,0,1,65,61.62a3.39,3.39,0,0,1,1.2.19,2,2,0,0,1,.8.55,2.53,2.53,0,0,1,.43.87,4.46,4.46,0,0,1,.12,1.15l0,5.17Zm-1.63-5.24a1.74,1.74,0,0,0-.19-.79.71.71,0,0,0-.72-.34.87.87,0,0,0-.46.12,1.41,1.41,0,0,0-.29.31,1.09,1.09,0,0,0-.14.43,3.8,3.8,0,0,0,0,.43v5.29a1.5,1.5,0,0,0,.19.73.78.78,0,0,0,.7.33.83.83,0,0,0,.72-.33,1.46,1.46,0,0,0,.22-.82V64.31Z"/><path class="e3861c2c-c6ec-4f7c-835c-3fb84388cc6c" d="M69,72.25V61.74H73.7v1.51h-3v2.86h2.64v1.56H70.67v3h3v1.52H69v0Z"/><path class="e3861c2c-c6ec-4f7c-835c-3fb84388cc6c" d="M78.29,72.25V67.66H76.42v4.59H74.78V61.74h1.64v4.4h1.87v-4.4h1.63V72.25Z"/><path class="e3861c2c-c6ec-4f7c-835c-3fb84388cc6c" d="M85.19,65.66,83,72.25H81.41V61.74H83V68.4h.07l2.19-6.66h1.59V72.25H85.24V65.66Z"/><path class="e3861c2c-c6ec-4f7c-835c-3fb84388cc6c" d="M88,72.25l.6-3.34a4.11,4.11,0,0,1,.34-1,1.74,1.74,0,0,1,.62-.67,1.69,1.69,0,0,1-1-.91,3.45,3.45,0,0,1-.26-1.47A3.31,3.31,0,0,1,89,62.53a2.7,2.7,0,0,1,2-.79h2.4V72.25H91.82v-4.5h-.43a1.07,1.07,0,0,0-.77.34,2,2,0,0,0-.5,1.18l-.51,3Zm3.22-9a1.1,1.1,0,0,0-1,.46,2.12,2.12,0,0,0-.29,1.18,1.29,1.29,0,0,0,.36,1,1.41,1.41,0,0,0,.94.29h.65v-3Z"/></g></g></svg>