<svg xmlns="http://www.w3.org/2000/svg" viewBox="0 0 75.79 92.07"><style><![CDATA[.Q{fill:#0c0e13}.R{fill:#1c191b}.S{fill:#181617}.T{fill:#151416}.U{fill:#dd7340}.V{fill:#181719}.W{fill:#ba673f}.X{fill:#19181a}.Y{fill:#ea7944}.Z{fill:#e57641}.a{fill:#6a6567}]]></style><g class="T"><path d="M16.48 58.3a15.69 15.69 0 0 0 11.7 12.85l8.2 1.4c1.2-.07 2.12 2.62 2.12 2.62V92s-1 .44-5.54-1.6-14.8-3.72-20.74-12.32S8.1 59.52 8.1 59.52L12.9 56z"/><path d="M59.6 58.3a15.69 15.69 0 0 1-11.7 12.85l-8.2 1.4c-1.27-.07-2.12 2.62-2.12 2.62V92s1 .44 5.54-1.6 14.8-3.75 20.74-12.35S68 59.52 68 59.52L63.17 56z"/></g><path d="M10.54 59.53s-1.37 9 .68 12.63 8.14 12 18.88 15.25l5.65 1.68s1.12.3 1.1-1.2V75.95a1.36 1.36 0 0 0-1.09-1.63C34.4 74 23.37 73.07 19.44 68s-4.06-9.32-4.06-9.32zm55.46 0s1.37 9-.68 12.63-8.14 12-18.88 15.25l-5.64 1.7s-1.12.3-1.1-1.2V75.96a1.37 1.37 0 0 1 1.09-1.63C42.17 74 53.2 73.07 57.12 68s4.06-9.32 4.06-9.32z" class="Z"/><g class="T"><path d="M47.5 39.84l8.2.63c-2.26-.78-4.2-2.18-6.36-3.14-.06 0-.25.22-.38.34.32.42 1.23.32 1.1 1.06s-.74.33-1.1.3l-3.66-.32v1.07zm18.3 2.6l-.03-.01h-.01v.01h.04zm.94-26.17l.02-.02-.02.02zM20.53 41.1c-1.62-1-3.05-.35-4.5.07v.52z"/><path d="M75 43.17c-1.84-.15-3.56-1.05-5.35-1.12-1.3-.06-1.37-.65-1.5-1.52-.88-.4-.5-1.17-.5-1.8v-20.5c0-.74.32-1.68-.83-2l-.35.4-.1-.06q.06 11.73.14 23.45a1.05 1.05 0 0 1-.69 1.15v1.22a10.29 10.29 0 0 1 5.29 1.23 9.45 9.45 0 0 1-5.29-1.23c-.8 0-1.24-.3-1.15-1.14a1.13 1.13 0 0 1-1.12-.78h-1.07c-.77-1.44-.44-2.93-.17-4.42l.18-13.8c-.45-.07-1.14.15-1-.65.07-.6.65-.4 1.06-.43v-3c-1.3.1-1.75.85-1.66 2.1.06 1-.06 2-.07 3v10c-1.14-1.5-4.06-3.58-4.22-3.2a6.24 6.24 0 0 1 2.73 3.72c1.36.73 2.1.4 2.1-1.23v-3.8h.37v9.83a2.19 2.19 0 0 1-.76 1.95c.08.87-.33 1.2-1.17 1.1L47 40.24l-1.74-.05v2.22h-30V20c-.13-1-.42-1.62-1.62-1.8l.3 20.26v1.3a.93.93 0 0 1-.93 1c-.67 0-.4-.63-.4-1l-.2-10h-1.33C10.78 33 11 36.24 11 39.5c0 .74.16 1.55-.9 1.72h-.52a2.34 2.34 0 0 1-.34-.81q0-12 .1-24L8 15v25.1c0 1-.08 1.5-1.33 1.6a28.74 28.74 0 0 0-5 1.2c-1.3.37-2 1-1.52 2.63C1.45 49.73 2.5 54 3.62 58.2c.65 2.4.75 2.5 3.15 2 1-.2 1.23-.08 1.27 1 .1 3.65 1.15 1.64 1.18-1.12 0-.2.23-.4.36-.6a1.45 1.45 0 0 1 .36 0c.4-.05.77-.3 1.16 0 .53.1.68.44.68.93V68a.72.72 0 0 1-.61.79c.4 3 .55 3.2 2.77 2.86.25 1.28-1.1 2.75.45 3.86l.38-.4c.54-.64.85 0 1.17.25 1.37 1.26 2.35 3.3 4.8 2.4.52-.07 1.16-.6 1 .7-.52 3.25-.45 3.28 2.43 4.87 1.13.63 2.28 1.23 3.45 1.8 1.83.88 2.3.6 2.9-1.32.36-1.15.07-2.57 1.27-3.4a10.4 10.4 0 0 1 .1 3c0 .24-.06.5-.06.73 0 3 0 3 3.08 3.58l.24-.7V75.87l-.24-.3-.6-.1a.91.91 0 0 1-.85-.2c-.12 0-.24-.07-.36-.1-1.4-.28-2.87-1-4.17-.73-1.5.26-1.3 2.36-2.6 3.62L27 74.9c.12-.6.13-1-.62-1.28-1.64-.54-3.23-1.17-4.85-1.77a1.7 1.7 0 0 1-1.18 2c-.63.3-.63-.26-.73-.65-2.5.36 0-1.32-.7-1.72-.43-.28-.35-.72-.36-1.12-.8 0-1.53-.2-1.66-1s.67-.42 1.06-.55a19.45 19.45 0 0 1-3.31-7.09c-.8 1-.28 2-.9 3.37-.2-2.4-.9-4.24-.74-6.23-.4-.65-.3-1.42.45-1.32 1.2.16 2.22-.54 3.52-.35a2.5 2.5 0 0 1-1.84 1.29c.6 2.28.94 4.65 2.17 6.73.17-.68.27-1.4 1.1-1.63a14.68 14.68 0 0 1-1.53-4.88c-.22-1.2 1.32-.16 1.75-.82 0-.42.05-.84.08-1.27h-.07c-.37.06-.73.54-1.08 0a.53.53 0 0 1 0-.49c.38-.4.72-.25 1 .15l4.76-.5c.45 0 1.32-.06.48.8-.46.53 0 .83.3 1.15h.42c.33 1.94 1 3.85.3 5.84a8.38 8.38 0 0 0 .78 3.07c1.4-.82 2.94-.66 4.46-.7 5.33-.23 10.65-.27 16 0 1.58-.48 3.5.82 4.88-.92a2.48 2.48 0 0 1 .16.79c.55.24.54.76.58 1.24 1-1 .4-2.4.63-3.55a17.63 17.63 0 0 0 .5-4.23c-.07-1.22.84-1.76 1.93-1.7a35.49 35.49 0 0 1 3.82.55c1 .18.56 1 .46 1.47-.68 3.45-2 6.6-4.8 8.9 2.18.06 2.4-2.28 3.93-3.3.12.9-.82 1.38-.55 2.14 2-2 2.13-4.77 3.16-7.18.22-.53-.35-1.66 1.22-1.42s.9 1 .84 1.78a11.12 11.12 0 0 0 0 1.29c1 .5 1 1 0 1.5l-.16 1.84c-.64.1-.47-.43-.58-.7s-.36-.72-.72-.75-.47.5-.6.8a13.05 13.05 0 0 1-3.06 4.9 2 2 0 0 0-.43 2.22 7.85 7.85 0 0 1 .33 1.93c-1.6-2.85-3.38-1.26-5.36-.78-3.1.74-3.5 2.37-2.64 5-.14-.2-.3-.35-.43-.55-1.6-2.93-1.6-2.92-5.06-2a4.65 4.65 0 0 1-1.06.06v.28c-.23.34-.45.4-.7 0l-.13-.12-.66.1-.4.37v11.2a.84.84 0 0 1 .86.57l.66-.22.54-.32c1.5.08 1.2-1 1.14-1.85l-.32.64c-.56-2.1-.36-4.67.44-5.54 1.3 1.18 1 2.93 1.45 4.4.36 1.13.7 1.4 1.76.82 1.78-1 3.58-2 5.43-2.8 1.54-.7 2.15-1.7 1.53-3.36a7.39 7.39 0 0 1-.21-1.7c1 .17 1.3.88 1.6 1.66.17.47.47 1.34 1.1.65 1.32-1.43 3.12-2.3 4.3-3.92a5 5 0 0 0 .59-4.8c2.24 1.77 2.48.1 2.8-1.2a15.6 15.6 0 0 0 .2-2.38 1.2 1.2 0 0 1 0-1.89V62.5a2 2 0 0 1 0-2.62c.63-.5 1.4-.68 1.37.36l1.23.75c0-.85.3-.3.52-.08.07-.72.48-1 1.13-.7 2.1.85 2.72-.48 3.17-2.1l3.14-11.37a7.88 7.88 0 0 0 .22-2.55c-.02-.57-.3-1-.78-1.05zm-36.84.5c0-1.1.48-1.28 1.34-1.15s1.9-.43 1.76 1.12c-.06.78 0 1.57 0 2.4 2.26-.3 2.6-3.17 4.8-3.37.06-.3.13-.57.5-.6s.56.3.6.65l1.13.27.42.47L45.1 46c2.26.87 3.22 4.73 2 6.07-.6.64-1.4.1-2.1.07s-.37-.74-.52-1.15c-.28-.8.95-2.2-1-2.4-2.32-.25-2.37-.3-2.38 2 0 1.12-.27 1.52-1.45 1.45-1-.05-1.58-.1-1.52-1.38.1-2.3.07-4.66-.01-7zm-8.4-.88h3.16v-.1l2.42-.12c.73 0 1.45-.25 1.44 1 0 1.08-.36 1.45-1.38 1.32a4.59 4.59 0 0 0-.74 0c-3.78.16-4.2.77-3.18 4.38.18.6.5.58.95.58 1 0 2.1 0 3.16-.08.84 0 1.34 0 1.34 1.15s-.45 1.2-1.32 1.2c-1.5 0-3 0-4.46.13a2.46 2.46 0 0 1-2.94-2.62c-.1-1.5.17-3-.3-4.54-.43-1.23.32-2.24 1.82-2.28zM3.9 44.1c0 .4.2.86-.25 1.13s-.66 0-.87-.34c-.88.13-.64.72-.5 1.25a15.19 15.19 0 0 1 .45 2.21c-2.3-2.73-1.4-4.6 2.37-5.15 1.67-.32 3.3-1 5.08-.5l-4.66.86c-.32.84-1.13.18-1.6.54zm11.85 10.1c-.7-.06-1.67 1.1-2.13-.34a3.13 3.13 0 0 1-.18-.91c0-1.72-.9-1.8-2.38-1.5-1.65.33-1.8 1.07-1.24 2.38.43 1.07.3 1.65-1.05 2.06s-1.63-.33-1.84-1.32c-.54-2.58-1.68-5-1.83-7.7-.36-.22-1-.65-.5-.9.63-.33.73-1.28 1.43-1.23s.8.8.9 1.4c1.4 0 1.2 1.17 1.44 2s.15 1.85 1.53 1.3c1.06-.4 2.9.15 2.32-2.14-.2-.78-1.15-2 .77-2.3 1.36-.2 2.1-.3 2.18 1.52a30.72 30.72 0 0 0 1.22 6.63c.24.9-.12 1.1-.66 1.04zm8.7-1.34c-1.47.15-2.93.4-4.4.62a2.14 2.14 0 0 1-2.69-2.13 46.05 46.05 0 0 0-.82-4.86A1.63 1.63 0 0 1 18 44.24a56.92 56.92 0 0 1 6.77-1 1.62 1.62 0 0 1 1.85 1.59l.36 4.52c.13 3.12.02 3.26-2.5 3.5zM25.7 64.4a1.06 1.06 0 0 1-.14-.31 3.12 3.12 0 0 1 .1-.57c.1.13.22.2.2.27a5.1 5.1 0 0 1-.17.61zm9.3-1.9c-.17.82-.46 1.14-1.32 1.16a1.2 1.2 0 0 1-1.42-1.07c-.13-.6-.36-1.15-.54-1.73h-.34c-.14.7-.33 1.4-.4 2.1s-.7.83-1.34.93-1-.14-1.2-.77c-.73-1.95-1.54-3.88-2.34-5.86 1.3-.82 2.1-.5 2.5 1 .24.9.6 1.74 1 2.84a12.69 12.69 0 0 0 .84-3.43c.15-.57.22-1.08 1-1.12s.8.46 1 .92c.34 1 .66 2.08 1.17 3.7.37-1.6.72-2.65.85-3.73s.85-1.1 1.6-1c1.12.18.4.92.3 1.38-.54 1.58-1.05 3.1-1.32 4.68zm1.38 1.5c0-.2-.1-.38-.13-.56.64-2 1.33-4 1.92-6.1.26-.9.87-.85 1.57-.88s1.26.15 1.47 1c.52 2 1.13 4 1.8 6.4-2.33-.6-4.48-1.72-6.63.15zm12-4.66c-.8 1.15-1.9 2.15-1.65 3.76.07.48-.13.9-.72.8s-1.23.05-1.12-.63c.44-2.65-1.4-4.42-2.46-6.54a2 2 0 0 1 2.82.95 1.41 1.41 0 0 1 1.64.06c.87-.5 1.67-1.34 2.9-.5-.14.75-.88 1.34-1.4 2.06zm3.5-.57l-.45 4.2h-.5a23.08 23.08 0 0 1 .6-5.34c.15-2.07 1.4-2.5 3.9-1.2-1.63.22-4.06-.74-3.55 2.3zm6.46-13.3c-.1 1.1-.66.9-1.38.8-1.28-.2-2.58-.32-3.86-.5-.54-.07-.82.07-.86.64s.32.6.7.67c1.1.2 2.2.24 3.27.53.6.16 1.1.13.92.94-.14.64-.06 1.38-1.13 1.27-.83-.08-1.65.18-2.5-.34-.5-.3-1.6-.24-1.76.47-.2.9.83.5 1.3.73 1.14.54 2.42.15 3.6.62.58.24 1.06.28.87 1s-.35 1.3-1.3 1.18l-6.8-.9c-1.7-.25 0-1.74-.8-2.2-.18-2.12.57-4 .4-6-.06-.75.44-1.44 1.54-1.28 2.26.35 4.54.6 6.8.85 1.04.06 1.03.65.97 1.5zM62 42c.27 0 .6 0 .56.45a.15.15 0 0 1-.11.11c-.4 0-.4-.3-.45-.55l-.16-.1zm5.2 8.6a4.3 4.3 0 0 0-1.91 3c-.08.58.1 1.83-1.33 1.27-.84-.33-2 0-1.62-1.7.52-2.1-.32-4-1.35-5.77-.55-.95-1-2-1.5-3 3.43-.52 4.3 2 5.25 4.47 1.27-1 2.32-2.14 3.63-2.65.8-.3 2 .4 3.25.72-1.55 1.34-2.93 2.58-4.4 3.68zm6.72-3.25c0 1.26 0 2.53-1.25 3.36.28-1.17 0-2.44.83-3.48.15-1.06.87-2.22-.92-3.14 2.17.35 2.32.92 1.35 3.28zm-41.77-7.63l-4 .12-6 .42v.47a34.94 34.94 0 0 0 7.14-.51l4.7-.13h7.52l3.72.1v-.4h-1.07a53.62 53.62 0 0 0-12.02-.05z"/></g><path d="M33.36.4L35.5.16a5.77 5.77 0 0 0 5.36 0c4.8.7 9.68 1.16 14.42 3.08l-1.7 1.4c-1.83-.53-3.66-1.1-5.5-1.56a42.46 42.46 0 0 0-25.6 1.71l-1.9-1.5C24.42 2.14 28 .9 31.84.67c.63.6 1.16.78 1.52-.27z" class="R"/><path d="M52.8 5.56a2.06 2.06 0 0 1-1.24 1.21l-5.73-1.43A37.88 37.88 0 0 0 24.59 7a3.14 3.14 0 0 1-1.5-1.19 5.25 5.25 0 0 1 .81-.43 44 44 0 0 1 28.89.18z" class="X"/><path d="M50.5 7.58a2.67 2.67 0 0 1-3.32 1.06 34.77 34.77 0 0 0-18.47.07c-1.45.4-2.5.18-3.28-1.1a41.72 41.72 0 0 1 25.07-.02z" class="R"/><path d="M52.8 5.56a44 44 0 0 0-28.89-.23 5.25 5.25 0 0 0-.81.43l-.62-1a42.61 42.61 0 0 1 25.6-1.71l5.5 1.56z" class="U"/><path d="M64.6 41.28a1.14 1.14 0 0 1-1.12-.78l.14-6.32a133.2 133.2 0 0 0 .13-15.86l-.2-.58a2.9 2.9 0 0 1 1.71-.57v.67a3.15 3.15 0 0 0-.24 2q0 10.55 0 21.08z" class="S"/><path d="M50.5 7.58a41.72 41.72 0 0 0-25.07 0L24.6 7a37.88 37.88 0 0 1 21.23-1.66l5.73 1.43a2 2 0 0 1-1.05.81z" class="U"/><path d="M13.64 18.24l.3 20.26v1.3a.93.93 0 0 1-.93 1c-.67 0-.4-.63-.4-1l-.2-10V18.63c0-.26.07-.53.1-.78a1.59 1.59 0 0 1 1.13.39z" class="Z"/><path d="M11.1 29.7c-.33 3.3-.1 6.55-.1 9.82 0 .74.16 1.55-.9 1.72a9 9 0 0 1-.22-1.44q0-11.5 0-23l1.17.45v1c-.1 3.6-.16 7.22 0 10.83.04.2.06.4.07.62zm54.15-11.86v-.68l1-.56q.07 11.73.14 23.45a1 1 0 0 1-.69 1.15l-.4-.28q-.01-11.54-.05-23.08z" class="U"/><path d="M63.62 34.18l-.14 6.32H62.4l-.16-4.42q.07-6.9.17-13.8V21.2a10.83 10.83 0 0 0 .21-3.2l.92-.28.2.58z" class="Y"/><path d="M68.12 40.53c-.88-.4-.52-1.17-.52-1.8V18.22c0-.74.3-1.7-.84-2l1.2-1.62c.58.48.26 1.07.26 1.57l-.1 24.36z" class="Q"/><path d="M15.85 16.22a.86.86 0 0 0 1.26.07l.4.4c-.3.95.18 1.24 1.77 1.1a7.13 7.13 0 0 0 2.94 1.81c.77 1 2.1 1.12 3 1.94v.82l-11.6-5.6c.73-.27 1.68.4 2.24-.55z" class="R"/><path d="M11.1 29.7v-.64c.62-.13.7-.6.7-1.12v-8.66c0-.54-.1-1-.74-1.06v-1l1.1.37c0 .34 0 .7.26.95V29.7z" class="Q"/><path d="M35.54 16.53a19.68 19.68 0 0 1 2.38-3.48c1.28.87 1.9 2.26 2.9 3.3l.3.76c-.43 0-.87 0-1.1.45l-1.33-1.88c-.27-.4-.52-.7-.87-.07l-.73.76-.9.56z" class="V"/><path d="M9.87 16.8q0 11.5 0 23a9 9 0 0 0 .22 1.44h-.52q0-12.3 0-24.58a.91.91 0 0 1 .3.14z" class="R"/><path d="M9.55 16.7q0 12.28 0 24.58c-.12-.27-.35-.54-.35-.8q0-12 .12-24zm15.2 6.7a1.66 1.66 0 0 1 .6 1l-2.28 2.38a2 2 0 0 0-2 1.81H20l-.1-.08a30.92 30.92 0 0 1 4.86-5.11zM67.6 66.85v-5.83c0-.85.32-.3.53-.07a24.22 24.22 0 0 1-.53 5.9z" class="Q"/><path d="M57.26,29.34a1.34,1.34,0,0,0-.83.78A6.79,6.79,0,0,1,54,28.21a1.09,1.09,0,0,1,.92-.7" class="S"/><path d="M40.87.2a5.77 5.77 0 0 1-5.36 0 20 20 0 0 1 5.36 0z" class="Q"/><path d="M32.68 21.94a.86.86 0 0 1-.83-.43c.07-.85 1.52-1.15.9-2.28l.2-.35c.77.45.9-.4 1.33-.65l.44.95zm1.62-3.7l.18-.77v-.34c.53.12.7-.4 1.05-.6l.65.4a2.07 2.07 0 0 0-.31 1.69l-1.12.56-.45-.95z" class="V"/><path d="M25.15 22.36v-.82a1.43 1.43 0 0 0 1.13 0l-.07.05v.75c-.4.26-.6.84-1.2.72a1.92 1.92 0 0 0 .15-.7z" class="Q"/><path d="M29.63 23.84c-.05.32.1.92-.36.84-.63-.1-.27-.8-.4-1.22z" class="X"/><path d="M33.36.4c-.33 1-.9.86-1.52.27l.5-.13A7 7 0 0 1 33.36.4z" class="Q"/><path d="M62.63 18a10.82 10.82 0 0 1-.22 3.21v-3a.32.32 0 0 1 .22-.21z" class="S"/><path d="M24.6 22.36L14.32 33.84l.6 6.97L33.9 34.6l-3.25-1.8 10.68-4.24-9.18-3.37 10.07-6-4.4-6.36-8.57 10.83-15.46-7.95-.35.77 11.46 5.9h-.28z" class="T"/><path d="M28.15,23.06c-.66.54-.67,0-.72-.43Z" class="R"/><path d="M12.4 18.57c-.3-.26-.25-.6-.27-.95l.37.17-.1.78z" class="X"/><g class="R"><path d="M33.1 16.35h.65a.19.19 0 0 1 .14.23l-.3.3c-.22-.12-.6-.04-.5-.52zm1.38.77v.34l-.4-.32a3.25 3.25 0 0 0 .23-.29.25.25 0 0 1 .18.27z"/><path d="M34.07 17.14l-.47-.28.3-.3.4.28a3.25 3.25 0 0 1-.23.29z"/></g><path d="M66.76,16.24l-.36.42Z" class="Q"/><path d="M41.18 19.7L40 17.56c.24-.5.68-.46 1.1-.45a.3.3 0 0 0 .21-.05c-.16 1.07.72 1.46 1.32 2v.66l2.63 3.94a2 2 0 0 0 1.3 1.85c1 .58 1.18-.57 1.75-1 1.46-1 .65 1 1.32 1.1-.08.76-1.12 1.23-.63 2.17l3.08 5.85a3.29 3.29 0 0 0 3.59 1.82 17.7 17.7 0 0 0 3.43-1.65c1.36.73 2.1.4 2.1-1.23v-3.8h.37v9.84a2.17 2.17 0 0 1-.76 1.94L59.6 41c-1.3-.17-2.68.2-3.92-.5-2.25-.78-4.2-2.18-6.35-3.14-.07 0-.25.22-.38.33l-1.08-.5c-.24-.76-.6-1.3-1.48-.72-2.2-.6-3.9-2.22-6.1-2.87-1.2-.36-1.4-1.2-.07-2a28.21 28.21 0 0 0 4.69-3.33l-6.4-2.77 4.3-3.07" class="S"/><g class="T"><path d="M27 49.36c.1 3.1-.05 3.25-2.54 3.5l-4.4.62a2.14 2.14 0 0 1-2.69-2.13 43.61 43.61 0 0 0-.82-4.86A1.63 1.63 0 0 1 18 44.24a57.22 57.22 0 0 1 6.77-1 1.62 1.62 0 0 1 1.85 1.59l.38 4.53zM21.6 51c1.13-.5 3.06.15 2.4-2-.36-1.12.82-3.2-1.5-3.15-.83 0-2.92-.66-2.43 1.56.26 1.28-.5 3.2 1.55 3.6zm27.05-.67c-.18-2.1.57-4 .4-6-.06-.75.45-1.44 1.55-1.27l6.8.84c1 .12 1 .66 1 1.5-.1 1.1-.66.9-1.38.78l-3.86-.5c-.54-.07-.82.08-.86.65s.32.6.7.66c1.08.2 2.2.24 3.27.53.6.16 1.08.13.9.94-.13.64-.06 1.38-1.13 1.28-.83-.08-1.64.18-2.5-.34-.5-.32-1.6-.24-1.75.46-.2.9.82.5 1.3.73 1.15.55 2.42.16 3.6.63.6.23 1.07.27.87 1s-.35 1.32-1.3 1.18l-6.8-.9c-1.77-.24-.07-1.74-.84-2.2z"/><path d="M47.12 42.73l1.18.27.42.47L45.1 46c2.26.87 3.22 4.73 2 6.07-.6.64-1.4.1-2.1.07s-.37-.74-.52-1.15c-.28-.8.95-2.2-1-2.4-2.32-.25-2.37-.3-2.38 2 0 1.12-.27 1.52-1.45 1.45-1-.05-1.58-.1-1.52-1.38v-7c0-1.1.48-1.28 1.34-1.15s1.9-.43 1.76 1.12c-.06.78 0 1.57 0 2.4 2.26-.3 2.6-3.17 4.8-3.37zM7 46.16c1.4 0 1.2 1.16 1.44 1.94s.1 1.9 1.5 1.35c1.06-.4 2.9.16 2.32-2.14-.2-.77-1.15-2 .77-2.3 1.36-.2 2.1-.3 2.18 1.53a30.74 30.74 0 0 0 1.22 6.62c.24.9-.1 1.1-.65 1-.7-.06-1.67 1.1-2.13-.34a3.13 3.13 0 0 1-.18-.91c0-1.72-.9-1.8-2.38-1.5-1.66.33-1.8 1.07-1.25 2.38.44 1.07.3 1.65-1 2s-1.7-.25-1.84-1.23c-.54-2.58-1.68-5-1.84-7.7.62-.1 1.34-.06 1.84-.7zm25.88-3.48l2.42-.13c.73 0 1.45-.24 1.44 1s-.36 1.45-1.38 1.32a4.61 4.61 0 0 0-.74 0c-3.78.15-4.2.76-3.18 4.37.18.6.5.6.95.58l3.16-.07c.84-.05 1.34 0 1.34 1.14s-.45 1.2-1.32 1.2l-4.46.14a2.48 2.48 0 0 1-2.95-2.63c-.1-1.5.18-3-.3-4.53-.4-1.23.36-2.25 1.86-2.3h3.16zm26.62 1.76c3.43-.52 4.3 2 5.25 4.47 1.27-1 2.32-2.15 3.63-2.66.8-.3 2 .4 3.25.73L67.2 50.6a4.3 4.3 0 0 0-1.91 3c-.08.58.1 1.83-1.33 1.27-.84-.33-2 0-1.62-1.7.52-2.1-.32-4-1.35-5.77-.55-.95-1-1.97-1.5-2.97zM31.33 60.9l-.4 2.1c-.08.7-.7.83-1.34.93s-1-.14-1.2-.77l-2.34-5.86c1.3-.82 2.1-.5 2.5 1 .24.88.6 1.74 1 2.83a12.63 12.63 0 0 0 .84-3.42c.15-.58.22-1.08 1-1.12s.8.46 1 .92l1.17 3.7.85-3.74c.13-1.1.85-1.1 1.6-1 1.12.2.4.92.3 1.4l-1.2 4.65c-.17.82-.46 1.14-1.3 1.16a1.2 1.2 0 0 1-1.43-1.07c-.13-.6-.36-1.15-.54-1.73zm4.9 2.5l1.93-6.1c.26-.92.87-.86 1.56-.88s1.26.15 1.48 1l1.8 6.4c-2.33-.58-4.47-1.7-6.62.15l-.14-.56zm10.66-5.7c.87-.5 1.66-1.34 2.9-.5-.16.8-.9 1.37-1.4 2.1-.8 1.15-1.9 2.15-1.65 3.76.07.48-.13.9-.72.8s-1.23.05-1.12-.63c.44-2.65-1.4-4.42-2.46-6.54a2 2 0 0 1 2.82.95c.2.57.3 1.18.9 1.52a2.07 2.07 0 0 0 .76-1.46z"/></g><path d="M25.55 67.7c-1.7.25-1.7-1.14-1.83-2.13L23 59.4c-.1-1.6-.77-1.88-2.08-1.74l-2.4.18c0-.42.06-.84.08-1.27a1.34 1.34 0 0 0 1.36.2 8.61 8.61 0 0 1 3.78-.25c-.47.52 0 .82.3 1.15v.36a12.77 12.77 0 0 0 .73 5.48 8.38 8.38 0 0 0 .78 3.07 1 1 0 0 0 0 1.13z" class="Q"/><path d="M44.92 28.2l-6.6 4.6 11.73 5.93S26 37.06 16 40.9l46.62 2.34-2.4-5.7L47.87 27.1zm-24.2 49.58a8.79 8.79 0 0 1-.24.88c-.7 1.85-.88 1.92-2.34.67A16.8 16.8 0 0 1 14.74 76v-.82c.54-.63.85 0 1.17.26 1.4 1.2 2.37 3.24 4.82 2.34z" class="S"/><path d="M55.68 40.47c1.24.7 2.6.33 3.92.5l.12.66L47 40.22l.45-.38z" class="U"/><path d="M41.6 40.1h-7.52c-.56-.52-1.3-.12-1.92-.36a53 53 0 0 1 12.08 0c-.86.27-1.83-.24-2.64.36z" class="W"/><path d="M11.16 68.8l-.06-9.3c.53.08.68.43.68.92v7.58a.72.72 0 0 1-.62.79z" class="Q"/><path d="M30 65.87c5.33-.23 10.65-.26 16 0v.63a143.32 143.32 0 0 0-14.8-.25c-.38-.12-.88.04-1.2-.38z" class="Y"/><path d="M46 66.52v-.63c1.58-.48 3.5.8 4.87-.92a2.34 2.34 0 0 1 .16.79l-.63.68c-1.4 1.1-2.93.08-4.4.08z" class="U"/><path d="M15.05 58.43l-2.13.38c-.4-.65-.3-1.42.45-1.32 1.2.17 2.22-.54 3.5-.35a2.44 2.44 0 0 1-1.83 1.29z" class="Q"/><path d="M29.35 40.22a34.94 34.94 0 0 1-7.14.51v-.47l6-.42c.27.4.8.24 1.14.38z" class="W"/><path d="M65.75,42.43a10.33,10.33,0,0,1,5.33,1.23,9.46,9.46,0,0,1-5.32-1.24Z" class="U"/><path d="M24.78 63.5a13 13 0 0 1-.72-5.51l.4-.35c.33 1.95.97 3.87.3 5.86z" class="W"/><path d="M44.47 80.33l-.12 4.9-.32.64c-.56-2.1-.36-4.67.44-5.54z" class="Q"/><path d="M7 46.16c-.46.65-1.2.6-1.86.7-.35-.22-1-.64-.48-.9s.73-1.28 1.43-1.24.75.8.9 1.42z" class="S"/><path d="M9.83 68.83a.53.53 0 0 1 0 .35.71.71 0 0 1-.62-.78v-8.28c0-.2.24-.4.36-.6.12 3.1-.33 6.22.26 9.3z" class="Q"/><path d="M23.75 56.5a8.62 8.62 0 0 0-3.78.25 1.28 1.28 0 0 1-1.35-.2h-.07a.63.63 0 0 1 0-.3l4.76-.52c.42-.07 1.28-.1.44.77z" class="Z"/><path d="M16 41.18c1.46-.42 2.9-1 4.5-.07l-4.5.6v-.52z" class="W"/><path d="M9.83 68.83c-.6-3.1-.14-6.2-.25-9.3a1.45 1.45 0 0 1 .36 0q-.04 4.66-.1 9.3z" fill="#4e362a"/><path d="M51.55 57.56c.15-2.07 1.4-2.5 3.9-1.2-1.64.28-4.07-.67-3.56 2.37-.4-.3-.25-.74-.35-1.18z" class="U"/><path d="M51.55 57.56c.1.4 0 .87.35 1.18l-.45 4.2h-.5a23.08 23.08 0 0 1 .6-5.38z" class="W"/><path d="M73.92,47.36c0,1.26,0,2.53-1.25,3.36.28-1.17,0-2.44.83-3.48Z" class="R"/><path d="M30 65.87c.3.43.8.26 1.18.4a19.15 19.15 0 0 1-5.65.3c1.47-.82 2.98-.66 4.47-.7z" class="W"/><path d="M19.55 73.14c.5-.63.87-1.46 1.9-1.3a1.7 1.7 0 0 1-1.18 2c-.63.25-.63-.3-.73-.7z" class="S"/><path d="M29.35 40.22c-.4-.14-.87 0-1.17-.38l4-.12c.6.25 1.35-.16 1.9.37zm12.25-.12c.8-.6 1.78-.07 2.64-.35l3.26.1-.45.38z" class="Y"/><path d="M17.88 68.77l.63.7v.83c-.8 0-1.53-.2-1.66-1s.64-.4 1.03-.53z" class="S"/><path d="M46.9 57.7a2.07 2.07 0 0 1-.76 1.46c-.6-.34-.7-1-.9-1.52a1.41 1.41 0 0 1 1.65.06z" class="V"/><path d="M62.25 36.1l.17 4.42c-.77-1.45-.42-2.93-.17-4.42z" class="S"/><path d="M65.33 40.93l.4.28v1.23c-.8 0-1.25-.28-1.16-1.14l.42-.4h.17z" class="Q"/><path d="M62.44 21.23v1.08c-.44-.07-1.14.14-1-.65.01-.6.56-.4 1-.43zM2.8 44.88a1.47 1.47 0 0 1 1.12-.79c0 .4.2.86-.25 1.13s-.66 0-.87-.34z" class="S"/><path d="M59.72 41.63L59.6 41l1.3-.43c.1.84-.33 1.18-1.17 1.06zM18.5 56.22a.62.62 0 0 0 0 .3c-.36.06-.72.55-1.07 0a.48.48 0 0 1 0-.48c.45-.37.8-.23 1.07.18z" class="Q"/><path d="M31.84 83.44a7.13 7.13 0 0 1-.1-3 10.76 10.76 0 0 1 .1 3z" class="R"/><path d="M62.8 63.23v-1.5c.98.5 1 1 0 1.5zm-12.4 3.2l.64-.68c.55.24.53.75.58 1.23-.46-.05-.97.01-1.22-.55z" class="S"/><path d="M20 28.64h1.1l.18.9c-.7.08-1.48.3-1.28-.9z" class="X"/><path d="M18.48 70.3v-.83c.94.5.8 1.2.33 1.94-.4-.27-.32-.7-.33-1.1zM65 59.88v2.62a2.05 2.05 0 0 1 0-2.62zM47.12 42.73H46c.06-.3.13-.57.5-.6s.56.23.6.6zM65 65.82v1.9a1.22 1.22 0 0 1 0-1.89zM25.67 63.5c.1.13.22.2.2.26a4.77 4.77 0 0 1-.17.62 1.19 1.19 0 0 1-.14-.31 4.05 4.05 0 0 1 .1-.57zM42 87.62c-.58.24-1 .3-.86-.58a.85.85 0 0 1 .86.58zM62 42c.27 0 .6 0 .56.45a.15.15 0 0 1-.11.11c-.4 0-.4-.3-.45-.55z" class="Q"/><path d="M26.27 21.64c.45-.1.55.3.74.55l-.7.1z" class="R"/><path d="M14.76 75.13v.82l-.36-.42z" class="Q"/><path d="M33.4 75.26l.85.2a.91.91 0 0 1-.85-.2z" class="R"/><path d="M42.2 75.4l.83-.17v.27h-.7z" class="S"/><path d="M42.33 75.54h.7c-.22.3-.45.4-.7 0z" class="Q"/><path d="M35.1 87.07c0 .28.2.58-.24.7l.24-.7z" class="R"/><path d="M62 42l-.16-.1.16.1zM41.15 75.88c0-.26.15-.36.4-.36z" class="Q"/><path d="M34.86 75.57c.2 0 .3.1.23.3a3.25 3.25 0 0 1-.23-.29z" class="R"/><path d="M43.2 87.08l-.55.32z" class="Q"/><path d="M24.47 57.67l-.4.35v-.36z" class="V"/><path d="M30.78 87.9l.47.23zm-7.1-16.6l-.42-.24zm7.43 2.2l-.47-.17zm8.95 15.42l.44.33zM33 73.84l-.44-.15zm-13 8.44l.37.3zm23.55-8.58l-.48.17zM54.22 9.5a.56.56 0 0 1 .28-.22zM9.56 13l.38-.8c.88.82 2.5.7 2.85 2.2z" class="R"/><path d="M9.94 11.9a1.85 1.85 0 0 1 1.61-1.73z" class="S"/><path d="M65.33 40.93H65q0-10.55 0-21.08a3.22 3.22 0 0 1 .24-2q.06 11.53.1 23.08z" fill="#4e362a"/><path d="M63.62 34.18q.06-7.93.13-15.86a135.38 135.38 0 0 1-.13 15.86z" class="R"/><path d="M11 18.2c.65.08.75.52.74 1.06v8.66c0 .52-.1 1-.7 1.12-.15-3.6-.1-7.23-.03-10.84z" class="T"/><path d="M17.5 16.7a2.71 2.71 0 0 1 1.77 1.09c-1.6.15-2.08-.14-1.77-1.1z" class="a"/><path d="M37.84 18.54a3.84 3.84 0 0 1 1.57 1.87 5.67 5.67 0 0 1-3.54-1.79 2 2 0 0 1 .32-1.69l.9-.56v1.46a.76.76 0 0 0 .75.71z" fill="#f2f1f2"/><path d="M23.08 26.82c.14 1.15-1 1.23-1.5 1.85h-.48a2 2 0 0 1 1.99-1.85z" class="X"/><path d="M50.4 66.44c.25.54.76.5 1.23.54-1.48 1.66-3.4.74-5 .62a98.09 98.09 0 0 0-17.56.06c-1.16.1-2.34 0-3.5 0a1 1 0 0 1 0-1.13 19.15 19.15 0 0 0 5.65-.3 143.32 143.32 0 0 1 14.8.25c1.45.04 2.98 1.06 4.4-.04zm-2.53-29.3a3 3 0 0 1-1.48-.71c.9-.6 1.24-.04 1.48.7z" class="T"/><path d="M42.66 19.1l.57-.4a1.07 1.07 0 0 0 .19.28l-.74.78-.02-.66z" class="V"/><path d="M21.6 51c-2.06-.42-1.3-2.34-1.56-3.58-.48-2.22 1.6-1.54 2.44-1.56 2.33 0 1.15 2 1.5 3.15.68 2.17-1.25 1.5-2.38 2z" class="R"/><path d="M21.1 28.63h.48c0 .32.16.7-.3.85z" class="T"/><path d="M43.23 18.7l.42-.07-.23.35a1.07 1.07 0 0 1-.19-.28z" class="V"/><ellipse cx="15.79" cy="10.18" rx="7.33" ry="6.46" transform="matrix(.965926 -.258819 .258819 .965926 -2.1 4.43)"/><ellipse cx="60.25" cy="11.22" rx="6.46" ry="7.33" transform="matrix(.336274 -.941764 .941764 .336274 29.43 64.19)"/><path d="M15.5 7.8l-.4.28-.1-.14.48-.14z" class="R"/><g class="Y"><ellipse cx="16.05" cy="12.32" rx="6.67" ry="4.63" transform="matrix(.965926 -.258819 .258819 .965926 -2.64 4.57)"/><ellipse cx="59.65" cy="12.87" rx="4.73" ry="6.81" transform="matrix(.201249 -.97954 .97954 .201249 35.03 68.71)"/></g><g class="T"><path d="M1.86 48.42a34 34 0 0 1-1.19-3.51L2.2 43.7 7 42.27l11.2-2.05 12.47-.83h22.2L65 42.08l2.9-.08 6.58 1.92.5 1L73.53 51l-2.45 1v-7.1L31 44.1z"/><path d="M3.37 46.87l3 11.42h10.1l6.46-.62 2.44-.5 2.38 8.36 22.34 1.7 1.54-2.85a7.2 7.2 0 0 1 .35.77l1.1-7.6 3.4-1.25 10.7 2 5.47-7.57-.54-7c-.2-.1-15-1.43-15-1.43L25.77 42l-23 2.07z"/><path d="M23.25 56.63l1 7.68 1.3 2.77 12.17-.44s-.84-3.13-2.1-4.14-10.83-6.8-10.83-6.8zM50.08 67l2.05-.87.96-8.56-3-.15-.02 9.58z"/></g><path d="M22 7.5a69.49 69.49 0 0 1 6.64 4.61 68.08 68.08 0 0 1 6.08 5.32 69.34 69.34 0 0 1-6.63-4.61A71.35 71.35 0 0 1 22 7.49zM40.26 18A74.12 74.12 0 0 1 53 8.05a69.74 69.74 0 0 1-6.07 5.35 67 67 0 0 1-6.67 4.6zm1.1 1.93A68.32 68.32 0 0 1 48 15.3a69.48 69.48 0 0 1 7.09-3.88 68.32 68.32 0 0 1-6.62 4.63 66.6 66.6 0 0 1-7.11 3.88zM44 24a69.71 69.71 0 0 1 6.63-4.63 66.6 66.6 0 0 1 7.09-3.88 68.32 68.32 0 0 1-6.62 4.63A71.63 71.63 0 0 1 44 24z" class="a"/><path d="M44.78 25.88a97.29 97.29 0 0 1 19.59-9.66 89.46 89.46 0 0 1-9.53 5.38 93.17 93.17 0 0 1-10.06 4.28z"/><path d="M20.34 12.64a69.74 69.74 0 0 1 7.23 3.63 67.69 67.69 0 0 1 6.78 4.4A67.66 67.66 0 0 1 27.13 17a69 69 0 0 1-6.79-4.36zm-4.54 3.28a70.75 70.75 0 0 1 7.2 3.63A67.56 67.56 0 0 1 29.79 24a70.6 70.6 0 0 1-7.22-3.63 67.69 67.69 0 0 1-6.78-4.45z" class="a"/><path d="M2.2,44.7a126.78,126.78,0,0,1,71.63-.29" fill="none" stroke="#ea7944" stroke-linecap="round" stroke-miterlimit="10" stroke-width=".3"/><path d="M11.1 49.33l2.78-.57-.7-3.55 2.27-.42c.38-.07.58.05.63.32l1.5 8.8-2.1.37c-.35.07-.54-.05-.6-.3l-.6-3.16-2.73.56.77 3.56-2.1.47c-.35.08-.55 0-.6-.3l-2.07-8.6a9.19 9.19 0 0 1 2-.69c.5-.1.78 0 .86.38l.7 3.13zM24 53.15A4.73 4.73 0 0 1 18.51 49c-.5-3 1.5-5.12 4.43-5.45s5.32 1.3 5.54 4.32A4.72 4.72 0 0 1 24 53.15zm1.7-4.94c-.17-1.75-1.34-2.74-2.64-2.6s-2.1 1.1-1.87 2.9 1.4 2.7 2.64 2.55 2.1-1.07 1.9-2.86zm8.82-3.4c-1.23 0-2 1-2 2.55a3 3 0 0 0 3.21 2.92 5.16 5.16 0 0 0 2.29-.51 2.25 2.25 0 0 1 .41 1.12c0 .63-1.52 1.45-3.25 1.5a5.07 5.07 0 0 1-5.42-4.84c-.17-2.76 1.82-4.74 4.72-4.82a4.58 4.58 0 0 1 4.16 1.84.84.84 0 0 1 .16.52.8.8 0 0 1-.5.64 5.26 5.26 0 0 1-1.89.5 1.91 1.91 0 0 0-1.89-1.41zm11.56 2.62a11.88 11.88 0 0 0 1.58 2.89 1.19 1.19 0 0 0 .85.47h.2a2.59 2.59 0 0 1 .09 1c0 .48-.82.94-1.68.87A2.57 2.57 0 0 1 45 51.32a12 12 0 0 1-1.16-2.5l-.84.45-.12 3-2.13-.08c-.36 0-.52-.15-.5-.42l.18-8.85a9 9 0 0 1 2.12-.16c.5 0 .74.2.72.58l-.13 3.18a16.93 16.93 0 0 0 3.8-3.52c1.6.54 2 1 2 1.54a1.16 1.16 0 0 1-.28.57 12.9 12.9 0 0 1-2.58 2.33zm7.3-1.54l-.2 1.55 2.7.36c.3 0 .42.22.37.57L56 49.93l-3.1-.42a1.11 1.11 0 0 0 0 .19c-.13 1 0 1.36.76 1.45l2.55.36c.28 0 .4.23.35.57l-.24 1.56-3.4-.5c-2.13-.27-3-1.38-2.74-3.6l.6-6.05 6.33.8a.5.5 0 0 1 .45.64 7.72 7.72 0 0 1-.4 1.48l-3.82-.52zm7.35 8.5c-.35-.07-.5-.25-.44-.5l.53-2.75-2.14-5.57a3.43 3.43 0 0 1 2.23-.78.66.66 0 0 1 .54.49l1.25 3.93a13.84 13.84 0 0 0 2.63-3.41l2 .46c.6.14.7.44.47.8a19.31 19.31 0 0 1-4.31 4.6l-.67 3.15zm-27.28 8.4l-1.22.05-1.5-5a35.26 35.26 0 0 1-1.05 4.72c-.1.3-.3.42-.76.46l-1.22.1-3-6.94a3.26 3.26 0 0 1 1.52-.8.51.51 0 0 1 .62.36l1.73 4.87a32.38 32.38 0 0 0 .86-5.39l1.33-.1c.56 0 .77.1.87.43l1.44 4.77A34.66 34.66 0 0 0 34.19 55h1.24c.63 0 .9.24.8.7a38.07 38.07 0 0 1-2 6.65c-.13.3-.32.42-.8.44zm8.14-.02c-.3 0-.4-.1-.47-.33l-.24-.92h-2.24l-.35 1.22h-1.66a.28.28 0 0 1-.32-.38l2.47-7.12a3.49 3.49 0 0 1 1.44-.28c.52 0 .7.15.84.6l2.23 7.32c-.68-.08-1.03-.1-1.7-.1zm-2.48-2.9h1.35l-.64-2.32-.7 2.32zM45.63 63c-.27 0-.38-.15-.37-.36l.16-2.32-2.05-4.35A2.51 2.51 0 0 1 45 55.1a.48.48 0 0 1 .44.35l1.26 3.08a11.83 11.83 0 0 0 1.65-3.07l1.53.15c.46 0 .56.28.42.6a16.06 16.06 0 0 1-2.8 4.24l-.23 2.66z" fill="#fff"/><path d="M26.14 23.5l3.96 6.1-11.38 3.2 7.42-9.3z" class="Z"/><path d="M47.36 25.65l2.92-3.7 10.64 11.2-.27 2.74-10.85-3.1c-.2-.1-2.44-7.15-2.44-7.15z" class="S"/><path d="M31.6 26.02l-.83-.42 10.36-6.38-3.9-4.68-8.78 10.5 1.24 2.1 1.9-1.1z" class="U"/><path d="M50.06 23l10.2 10.95v4.38L45.6 31" class="Y"/></svg>