<svg xmlns="http://www.w3.org/2000/svg" viewBox="0 0 127.61 24.09"><defs><style>.ff0b3685-a449-474c-8fd3-5434763585e7{fill:#4d848c;}</style></defs><title>Ресурс 5</title><g id="edc32f26-f5c5-4ff5-8ade-c434bf234e6d" data-name="Слой 2"><g id="e49e4c42-286e-43cb-b6b7-add18eac7fa4" data-name="Слой 1"><path class="ff0b3685-a449-474c-8fd3-5434763585e7" d="M24.06,10.44s.6-6.78.65-7.43a2.88,2.88,0,0,0-2.83-3H4.79a3,3,0,0,0-3.2,2.75C1.51,3.54.1,19.9,0,20.85a2.88,2.88,0,0,0,2.81,3.24h17c2.26,0,3.13-1.19,3.32-3,.12-1.1.67-7.76.67-7.76H13.53l-.45,5.15H10.49L11.61,5.66h2.6l-.41,4.79H24.06Z"/><path class="ff0b3685-a449-474c-8fd3-5434763585e7" d="M39.91,2.06c-.37,1.06-3.36,10.41-3.36,10.41L37.87,0H27.61L25.45,24.09h7.74a2.79,2.79,0,0,0,2.93-2l3.23-8.92-1,10.91H48.57L50.69,0h-8a2.79,2.79,0,0,0-2.73,2.06"/><path class="ff0b3685-a449-474c-8fd3-5434763585e7" d="M91.91,0,91,11H88.34l1-11H79s-1,11.63-1.09,12.75A2.84,2.84,0,0,0,80.85,16h9.67l-.22,2.44H77.46L77,24.09H97.39a2.88,2.88,0,0,0,2.91-2.84L102.18,0Z"/><path class="ff0b3685-a449-474c-8fd3-5434763585e7" d="M118.71,0H104.77l-2.11,24.08h10.27l.64-7.46h10a2.87,2.87,0,0,0,3.12-3c.07-.8.88-9.93.94-10.73A2.8,2.8,0,0,0,124.55,0ZM114,11.63l.53-6h2.57l-.52,6Z"/><path class="ff0b3685-a449-474c-8fd3-5434763585e7" d="M62.88,8.09l.22-2.44H76L76.46,0H53.32L51.21,24.09H71.7a2.81,2.81,0,0,0,2.89-2.78c.13-1.51.77-8.67.88-10A2.87,2.87,0,0,0,72.36,8.1H62.88Zm1.66,11H61.92l.52-6h2.62Z"/></g></g></svg>