<svg xmlns="http://www.w3.org/2000/svg" viewBox="0 0 137.37 65.45"><g fill="#85754e"><path d="M93.3 32.86c.13-.13.4-.27.52-.4a14.79 14.79 0 0 0 3.44-.26l1.3-.4c.27 0 .53.13.4.53l-1.32.4a15.3 15.3 0 0 1-4.35.13zm7-1.45l1.06-.4 3-1.2c.92-.4 1.72-.66 1.58-1.45.53-.13.8.13.66.53.8-.13 2.9-.53 2.64 1.7-.13.4-.13.8.53.8s.53.66 0 .66c.13-.27 0-.4-.53-.14a1.17 1.17 0 0 1-1.45-.92c0-.66.13-1.2-1.2-1.2a1.9 1.9 0 0 1 1.46 0c.66.4 0 1.32.52 1.45-.13-.66.27-1.05-.52-1.58-.53-.4-2.25 0-3.17.4a39.27 39.27 0 0 0-4 1.58c.66 0 1.45-.13 1.85.53.13-.13.13-.53-.8-.66a4.42 4.42 0 0 1 2.64-.79c.92.13 1.3.8 2 .8-.8-.4-1.18-1.06-2.1-1.06.27-.13 1.45-.92 2.38 0 .13.13.13.27 0 .27-.53-.4-.66 0-.27 0s.4 0 .4.4a.67.67 0 0 0 .66.53 1 1 0 0 1-1.72.26l-.26.27a1.24 1.24 0 0 0-.79-1.06c-.4 0-.53 0 0 .27s.66.92-.4 1.18c.27-.26-.13-.4-.52-.4-.27-.4-.66-.66-.66 0 0 .4-.4.53-1.06.4.4-.52-.4-.8-1.2-.66-.26 0-.4.14-.66.14a1.22 1.22 0 0 1-.1-.66zm-76.02 3.16h111.9v.92H24.28z"/><path d="M24.28 32.46h111.9v.92H24.28zM.8 63.74h135.4v.92H.8z"/><path d="M.8 61.5h135.4v.92H.8zm8.97-23.1l.13 4.22a10 10 0 0 0 .92 5 3.51 3.51 0 0 0 3 1.71 3.32 3.32 0 0 0 2.9-1.45 7.61 7.61 0 0 0 .92-4.35l-.13-5.15a22.31 22.31 0 0 0-.26-3.17 9.65 9.65 0 0 0-.79-2.5h9a17.19 17.19 0 0 0-.79 2.5 18.15 18.15 0 0 0-.27 3.17V54a20.73 20.73 0 0 0 .27 3.17 9.11 9.11 0 0 0 .79 2.51h-7.38l.26-7.53.13 5.68.14-5.54a10.6 10.6 0 0 1-7.13 2.37A8.25 8.25 0 0 1 4.88 52c-1.45-1.7-2.1-4.35-2.1-7.92l-.13-5.68a22.31 22.31 0 0 0-.26-3.17 9.32 9.32 0 0 0-.8-2.5h9.1a8.94 8.94 0 0 0-.79 2.5 23.81 23.81 0 0 0-.13 3.17zm56.08 5.67a3.55 3.55 0 0 0-.27-1.71 7.37 7.37 0 0 0-.66-1.58c4.5-.4 8-.66 12.4-2.12l1.45.4a2.6 2.6 0 0 1 .66.4 5.71 5.71 0 0 0 .79.66l-3.43 4.22a5.37 5.37 0 0 0-.79-.92 2.61 2.61 0 0 0-.79-.53 4.58 4.58 0 0 0-3-.27v5l2.5-1.72c.53 0 1.06-.13 1.72-.13a8.55 8.55 0 0 1 5.41 1.58 5 5 0 0 1 2.11 4.23 7.15 7.15 0 0 1-3.43 5.94c-2.25 1.58-5.15 2.24-8.7 2.24h-7a7.35 7.35 0 0 0 .66-1.85 11.92 11.92 0 0 0 .27-2.37V44.07zm7.26 12.8a3.89 3.89 0 0 0 3.16-1.19 4.31 4.31 0 0 0 1.06-3.3 3.93 3.93 0 0 0-.79-2.64 2.72 2.72 0 0 0-2.25-.92 5.54 5.54 0 0 0-2.11.39v7.66h.93zm51.2-2.77v-7.4a10.58 10.58 0 0 0-.27-3.16 16.61 16.61 0 0 0-.66-2.51h3.7c2.9 0 5.67-.4 8.58-.4h.8c.26 0 .53.14.92.14l-.92 5.27c-1.32-1.45-4.23-3.3-5.68-2v9.77A19.08 19.08 0 0 0 131 57a16.49 16.49 0 0 0 .66 2.5h-8.18a8.16 8.16 0 0 0 .66-2.5l.17-2.9z"/><path d="M60 36.55c-2.77-.8-3.3-1.45-4.35-2.64-.4.14-.66.27-.8.53-.8 1.2-1.46 2-3.57 1.32-1.84-.53-2.64 1.06 0 2.24 3.6 1.46 8.5-.13 8.7-1.45zM46.85 59.12a7.89 7.89 0 0 0 4.75 1.05c.52 0 2.64-2.1 3.43-2.5v2.1h7.4a7.92 7.92 0 0 1-.93-4v-5c0-1.58-.13-6.46.4-8.44.13-.53.53-1.06.66-1.58H54c.13.52.4 1 .53 1.58.53 2.1.4 9.37.4 12 0 .53 0 .53-.4.8-1.06.8-2.9.8-3.3-.66a9.13 9.13 0 0 1-.26-2v-4a34.41 34.41 0 0 1 .26-4.75 6.35 6.35 0 0 1 .92-3.17h-8.6c.26.53.92 1.06.92 4.5 0 2.24-.13 9 .26 10.56a5.18 5.18 0 0 0 2.12 3.52zm-11.1-3.82a3.59 3.59 0 0 1-2.64 0c-1-.13-1.32-1.7-.8-2.77.4-.8.4-.66 1.32-.66h2.1v3.43zm-3.7-10.56c1.84 0 3.3.8 3.7 2.78A32.59 32.59 0 0 0 31.41 49c-2.77 1-5.15 3-5.15 6.33 0 3 3.7 5.4 6.47 4.75.52-.13 2.5-2 3.16-2.37v2h7.26c-.66-1.6-.66-1.6-.8-4.1-.13-2.9.13-5.8 0-8.58-.13-2.38-.8-4.5-2.9-5.68a8.59 8.59 0 0 0-3.7-1c-3.17-.13-3.83.26-6.33.92l-1.2 4.5a13.26 13.26 0 0 1 3.83-1.04zm79.04 10.82v-7.13c0-1.06-.4-1.72 1.2-2.38a3 3 0 0 1 1.85 0c1.32.66 1.58 2.25 1.7 3.57a8.63 8.63 0 0 1-.13 3.16c-.66 2.64-2.38 3.3-4.62 2.78zm0-11.62v-2.5H104a11.69 11.69 0 0 1 .66 3.16c.26 2.5.13 5.94.13 8.58 0 3.17.13 7.65-.27 9.9l-.66 2.37h8.32c-.8-2.77-1.06-2.64-1.06-5.94.53.14.92.4 1.45.53a8.07 8.07 0 0 0 5-.66c4.62-2.1 5.8-9.1 4-13.6a7.49 7.49 0 0 0-5.41-4.49 5.68 5.68 0 0 0-2.64.14c-.52.13-2 2.37-2.4 2.5zm-28.23-1.18c1.32 2.37 7 14 7 14.12-.66 1.58-3.83 5.54-5.94 7.4-.53.4-.93.92-1.45 1h7c1.32 0 2.24-1.2 3-2.1a22.38 22.38 0 0 0 3.7-6.6 154.68 154.68 0 0 1 6.73-15.17h-7.24a15.82 15.82 0 0 1-1.45 6.07c-.26.66-.4 1.18-.66 1.84l-.26.7-.14.66c-.26-.26-.66-1.58-.92-2-.53-1.45-2.24-5.14-2.5-6.33-.13-.8 0-.8-1.32-.8H82.1a3 3 0 0 1 .79 1.19z"/></g><path d="M9 37.6l.14 4.22a10 10 0 0 0 .92 5 3.49 3.49 0 0 0 3 1.71A3.36 3.36 0 0 0 16 47.11a7.63 7.63 0 0 0 .92-4.35l-.13-5.15a22.31 22.31 0 0 0-.26-3.17 9.49 9.49 0 0 0-.8-2.51h9a19.17 19.17 0 0 0-.8 2.51 23.86 23.86 0 0 1 0 3.17v15.57a22.21 22.21 0 0 0 .27 3.17 8.94 8.94 0 0 0 .79 2.5h-7.44l.26-7.52-.13 5.55.13-5.55a10 10 0 0 1-7.12 2.51 8.25 8.25 0 0 1-6.6-2.64C2.64 49.5 2 46.85 2 43.28l-.13-5.67a20.84 20.84 0 0 0-.27-3.17 9.11 9.11 0 0 0-.79-2.51h9.1a9.11 9.11 0 0 0-.79 2.51A22.13 22.13 0 0 0 9 37.61zm56.06 5.68a3.53 3.53 0 0 0-.27-1.71 7.66 7.66 0 0 0-.66-1.57c4.5-.4 8.05-.66 12.4-2.1.53.13 1 .27 1.45.4a2.94 2.94 0 0 1 .66.39 4.19 4.19 0 0 0 .79.66L76 43.55a5.89 5.89 0 0 0-.79-.93 2.9 2.9 0 0 0-.79-.52 4.59 4.59 0 0 0-3-.27v5l2.5-1.72c.53 0 1-.13 1.7-.13a8.53 8.53 0 0 1 5.36 1.6 5 5 0 0 1 2.12 4.22 7.12 7.12 0 0 1-3.44 5.94C77.46 58.33 74.56 59 71 59h-7a7.35 7.35 0 0 0 .66-1.85 12 12 0 0 0 .26-2.38v-11.5zm7.25 12.8a3.89 3.89 0 0 0 3.17-1.18 4.36 4.36 0 0 0 1.06-3.3 4 4 0 0 0-.79-2.6 2.73 2.73 0 0 0-2.25-1 5.55 5.55 0 0 0-2.11.4v7.65h.92zm51.2-2.78v-7.4a10.58 10.58 0 0 0-.27-3.16 16.3 16.3 0 0 0-.66-2.51h3.7c2.9 0 5.67-.4 8.57-.4h.8c.26 0 .52.13.92.13l-.92 5.28c-1.32-1.45-4.23-3.3-5.68-2V53a18.15 18.15 0 0 0 .27 3.17 16.49 16.49 0 0 0 .66 2.5h-8.2a7.63 7.63 0 0 0 .66-2.5c0-.64.14-1.7.14-2.9zM59.25 35.63c-2.77-.8-3.25-1.45-4.35-2.63a1.22 1.22 0 0 0-.8.53c-.8 1.2-1.45 2-3.56 1.32-1.85-.53-2.64 1 0 2.24 3.56 1.57 8.46-.01 8.7-1.46zm-13.2 22.7a8 8 0 0 0 4.75 1.05c.53 0 2.64-2.1 3.44-2.5V59h7.4a7.84 7.84 0 0 1-.93-4v-5c0-1.58-.13-6.46.4-8.44.13-.53.53-1.06.66-1.6H53.2c.13.53.4 1.06.53 1.6.53 2.1.4 9.37.4 12 0 .52 0 .52-.4.8-1.06.8-2.9.8-3.3-.66a9.13 9.13 0 0 1-.26-2v-4a34.34 34.34 0 0 1 .26-4.69 6.35 6.35 0 0 1 .92-3.17h-8.57c.26.53.92 1.06.92 4.5 0 2.24-.13 9 .26 10.56a5.75 5.75 0 0 0 2.11 3.45zM35 54.5a3.64 3.64 0 0 1-2.64 0c-.92-.26-1.2-1.72-.8-2.9.4-.8.4-.66 1.32-.66H35v3.56zm-3.7-10.7c1.85 0 3.3.8 3.7 2.77A34.74 34.74 0 0 0 30.61 48c-2.77 1.06-5.14 3-5.14 6.34 0 3 3.7 5.4 6.46 4.75.53-.13 2.5-2 3.17-2.38v2h7.26c-.66-1.58-.66-1.58-.8-4.1-.13-2.9.13-5.8 0-8.58-.13-2.37-.8-4.48-2.9-5.67A8.66 8.66 0 0 0 35 39.32c-3.17-.13-3.83.27-6.33.93l-1.2 4.48a23.32 23.32 0 0 1 3.79-.92zm79.02 10.96v-7.12c0-1.06-.4-1.72 1.2-2.38a3 3 0 0 1 1.84 0c1.32.66 1.6 2.25 1.72 3.57a8.63 8.63 0 0 1-.13 3.16c-.66 2.64-2.38 3.3-4.62 2.77zm0-11.6v-2.5h-7.13a11 11 0 0 1 .66 3.17c.27 2.5.14 5.94.14 8.58 0 3.17.13 7.65-.27 9.9l-.66 2.37h8.32c-.8-2.77-1.06-2.64-1.06-5.94.53.13.92.4 1.45.53a8.08 8.08 0 0 0 5-.66c4.6-2.1 5.8-9.1 3.95-13.6a7.46 7.46 0 0 0-5.41-4.49 5.84 5.84 0 0 0-2.64.13c-.5.14-1.95 2.36-2.35 2.5zM82.2 42c1.32 2.38 7 14 7 14.12-.66 1.6-3.83 5.55-5.94 7.4-.53.4-.93.93-1.45 1.06h7c1.32 0 2.24-1.2 3-2.1a22.38 22.38 0 0 0 3.7-6.6 155.92 155.92 0 0 1 6.73-15.18H95a15.78 15.78 0 0 1-1.45 6.07c-.26.66-.4 1.2-.66 1.85l-.26.66-.14.66c-.26-.26-.66-1.58-.92-2-.53-1.45-2.24-5.14-2.5-6.33-.13-.8 0-.8-1.32-.8h-6.32c.26.26.53.92.8 1.18z" fill="#fff"/><path d="M68.75,31.14A15.57,15.57,0,1,0,53.18,15.57,15.59,15.59,0,0,0,68.75,31.14Z" fill="#85754e"/><path d="M68.75,30.22A14.65,14.65,0,1,0,54.1,15.57,14.7,14.7,0,0,0,68.75,30.22Z" fill="#fff"/><path d="M70.73 38.14a26.33 26.33 0 0 0 5-1.32l1.45.4a2.93 2.93 0 0 1 .66.4 5.14 5.14 0 0 0 .79.66l-3.3 4.35a5.78 5.78 0 0 0-.79-.92 3 3 0 0 0-.79-.53 4.59 4.59 0 0 0-3-.26v-2.77z" fill="#1a171b"/><path d="M60.83 9.5l1.46-.4v1.3a3.86 3.86 0 0 1 1.18-.26V8.84l2.25-.66V9.5a3.86 3.86 0 0 1 1.18-.26V7.92l1.85-.53-.26 16.36a18.83 18.83 0 0 0-8.18-2.11c.8-2 2.37-7 1-8.58l2-1.18-2.64.66a12.17 12.17 0 0 1 .16-3.04z" fill="#85754e"/><g fill="#fff"><path d="M76.67 9.5l-1.45-.4v1.3a3.92 3.92 0 0 0-1.22-.26v-1.3l-2.24-.66V9.5a3.92 3.92 0 0 0-1.19-.26V7.92l-1.85-.53.27 16.36a18.8 18.8 0 0 1 8.18-2.11c-.8-2-2.38-7-1.06-8.58l-2-1.18 2.64.66a12.17 12.17 0 0 0-.08-3.04zM69.28 29a4.42 4.42 0 0 0 .79.4h1.2a6.43 6.43 0 0 0 .92-.4.13.13 0 0 0 .13-.13l.14-.13v-.13a.75.75 0 0 1-.4.66 4.51 4.51 0 0 1-1 .39 1.48 1.48 0 0 1-1.06 0 1.05 1.05 0 0 1-.66-.66zm3.17-1.85a1 1 0 0 1 .13.53h-.13a.39.39 0 0 0-.14-.26.78.78 0 0 0-.79-.4h-1a6.61 6.61 0 0 0-.93.4.69.69 0 0 0-.39.53v-.14a1.21 1.21 0 0 1 .66-1.05 2.31 2.31 0 0 1 1.45-.4 1.44 1.44 0 0 1 1.19.79zm-.27.8c-.13 0-.26-.14-.53 0h-1.7c-.13 0-.26 0-.26.13s-.14.13-.27.26v.13h.13l2.64-.52z"/><path d="M73.1 28.37c-.14 0-.14-.13 0 0a1.67 1.67 0 0 0 .79.13 1.76 1.76 0 0 0 1-.39c.4-.27.66-.4.8-.66a.13.13 0 0 1 .13-.13v-.27a.94.94 0 0 1-.27.79 2.22 2.22 0 0 1-.92.66 3.82 3.82 0 0 1-1.06.27.69.69 0 0 1-.52-.4zm2.5-2.64c-.4-.4-.8-.4-1.45-.26a1.89 1.89 0 0 0-1.32.79c-.26.26-.26.53-.4.66v.4a.85.85 0 0 1 .26-.66c.13-.27.4-.4.8-.66s.66-.27 1.06-.4.66 0 .8.26l.13.14h.13v-.14c.27.14.14 0 0-.13zm0 .8a.93.93 0 0 0-.52.14 1 1 0 0 0-.4.13 1 1 0 0 1-.4.13c-.13 0-.26.13-.4.13s-.27.13-.4.13a.45.45 0 0 0-.26.14c-.13 0-.13.13-.13.26v.13h.13a6.52 6.52 0 0 0 2.37-1.19z"/><path d="M76.54 26.52a1.69 1.69 0 0 0 .79-.13 3.49 3.49 0 0 0 1.58-1.58v-.53a.85.85 0 0 1 0 .79 3.81 3.81 0 0 1-.66.93 4.39 4.39 0 0 1-.92.66.62.62 0 0 1-.79-.14zm1.7-3.3c-.4-.27-.92-.14-1.45.26a2.76 2.76 0 0 0-1 1.19 1.56 1.56 0 0 0-.14.79.55.55 0 0 0 .14.39h.13v-.13c-.13-.13-.13-.4 0-.8a1.72 1.72 0 0 1 .66-.79 3.77 3.77 0 0 1 .92-.66.84.84 0 0 1 .79 0 .13.13 0 0 1 .13.13h.14v-.13c.13 0 0-.13-.27-.26zm.27.8c-.14 0-.27.13-.53.26a1.57 1.57 0 0 1-.4.26 1.8 1.8 0 0 0-.39.27c-.13.13-.27.26-.4.26s-.26.27-.4.27l-.27.26c0 .13-.13.13-.13.4h.13a8.64 8.64 0 0 0 2.38-2c0 .13.13 0 0 0z"/><path d="M79.3 23.75a1.14 1.14 0 0 0 .79-.39 5.89 5.89 0 0 0 .79-.93 1.71 1.71 0 0 0 .4-1.05v-.5h.13a.75.75 0 0 1 .13.79 2.13 2.13 0 0 1-.39 1.06 5.8 5.8 0 0 1-.8.92 1.49 1.49 0 0 1-1 .13zm.92-3.7c-.53-.13-.92.13-1.32.66a4 4 0 0 0-.79 1.45V23c.13.13.13.27.26.4h.14v-.13a1 1 0 0 1-.14-.66 1.47 1.47 0 0 1 .4-.93 2.71 2.71 0 0 1 .79-.92c.27-.27.53-.4.8-.27h.4c-.26-.26-.4-.4-.53-.4zm.4.66c-.13 0-.27.13-.4.4a1.85 1.85 0 0 0-.26.4 1.66 1.66 0 0 1-.27.4c-.13.13-.13.26-.26.4s-.13.27-.26.4a.39.39 0 0 0-.18.3v.4a23.56 23.56 0 0 0 1.59-2.64z"/><path d="M81.3 20.06c-.13 0 0-.13 0 0a1.64 1.64 0 0 0 .71-.66c.13-.4.26-.66.4-1.2a3.12 3.12 0 0 0 .14-1.06v-.52a.72.72 0 0 1 .39.66 3.29 3.29 0 0 1-.13 1.05 2.58 2.58 0 0 1-.53 1.06c-.4.53-.66.66-.92.66zm-.3-3.7c-.52.14-.8.4-1 1.06a2.46 2.46 0 0 0-.3 1.58 1 1 0 0 0 .27.66c.13.13.26.27.4.27h.14v-.14a.75.75 0 0 1-.27-.66 3.29 3.29 0 0 1 .13-1.05l.4-1.06a.88.88 0 0 1 .66-.52h.26a1.34 1.34 0 0 0-.66-.14zm.53.53c-.13.13-.13.26-.26.53a1 1 0 0 1-.13.39 1 1 0 0 0-.14.53c0 .13-.13.27-.13.53s-.13.26-.13.4v.26c0 .13 0 .26.13.26H81v-.13l.53-2.77z"/><path d="M82 16.1c.13-.26.4-.4.4-.8a3.47 3.47 0 0 0 .14-1.19 2.54 2.54 0 0 0-.27-1.06.13.13 0 0 0-.13-.13.13.13 0 0 0-.13-.13h-.13c.26 0 .4.26.52.53a9.26 9.26 0 0 1 .27 1.05 3.69 3.69 0 0 1-.13 1.19c0 .13-.14.4-.53.53zm-1.2-3.56a1 1 0 0 1 .4-.14v.14a.42.42 0 0 0-.27.13c-.26.13-.4.4-.53.8a3.72 3.72 0 0 0-.13 1.19c0 .4.13.8.13 1s.27.53.53.53v.13h-.13a.51.51 0 0 1-.4-.13c-.18-.08-.4-.18-.4-.48a2.89 2.89 0 0 1-.13-1.58 2.45 2.45 0 0 1 .92-1.58zm.66.4c-.13.13-.13.27-.13.53v2.24c0 .14.13.14.26.27h.13v-.13a24.12 24.12 0 0 0-.26-2.91z"/><path d="M81.55 12a2 2 0 0 0 .13-.93 3.86 3.86 0 0 0-.26-1.18 2.09 2.09 0 0 0-.53-.89l-.13-.13a.13.13 0 0 1-.13-.13h-.13c.26 0 .52 0 .66.26a2.17 2.17 0 0 1 .52.93 1.81 1.81 0 0 1 .14 1.18c.13.53 0 .8-.27.93zM79.3 9.24a1.48 1.48 0 0 0-.4 1.45 2.15 2.15 0 0 0 .66 1.45c.27.26.4.4.66.4h.4a2.32 2.32 0 0 1-.66-.27 5.77 5.77 0 0 1-.53-.92c0-.53-.13-.93-.13-1.32a1.89 1.89 0 0 1 .26-.92l.13-.1v-.16c0 .13-.13.13-.4.4zm.8 0v.53a1 1 0 0 0 .13.39 1 1 0 0 1 .13.53c0 .13.14.26.14.53s.13.26.13.4a.5.5 0 0 0 .13.27c0 .13.13.13.26.13h.14v-.13a13.72 13.72 0 0 0-1.06-2.64z"/><path d="M80 8.45c0 .13-.13.13 0 0v-.93a4 4 0 0 0-.53-1c-.26-.4-.53-.53-.66-.8a.13.13 0 0 1-.13-.13h-.27v-.2a.64.64 0 0 1 .8.13 2.35 2.35 0 0 1 .79.79 1.78 1.78 0 0 1 .39 1.06A4.63 4.63 0 0 1 80 8.45zm-2.9-2.12a1.64 1.64 0 0 0 0 1.59 2.34 2.34 0 0 0 .9 1.19 2.23 2.23 0 0 0 .66.26 1.31 1.31 0 0 0 .34-.13V9.1h-.13c-.13.13-.4 0-.66-.14s-.4-.4-.66-.66a3.94 3.94 0 0 1-.52-1.05.77.77 0 0 1 .13-.93.13.13 0 0 1 .13-.13v-.13h-.1c.13 0 0 .13-.13.26zm.8-.13a1 1 0 0 0 .13.53 1.57 1.57 0 0 1 .26.4 1.46 1.46 0 0 0 .27.39c.13.13.13.27.26.4s.13.26.26.4a.42.42 0 0 1 .14.27.45.45 0 0 0 .26.13V8.6a12.58 12.58 0 0 0-1.61-2.38c.13-.13 0-.13 0 0zm10.9 14.25v.14c.26.13 1.32.8 1.32 1.18-.26 0-.26-.13-.66-.13h-.92a.42.42 0 0 1-.4-.39v-.53c-.26.26-.66.53-.66 1.05 0 .93.4.8.4 1.32h-.27c-.26 0 0-.13-.4-.13 0 .53.4.8.8 1.06 0 .66.8 1.7.8 2.24 0 .26-.66.8-.8.92-.27-.4-.8-1.18-1.32-1.18h-.27l-.8.13c-.26.4-.92.66-.92 1.32v.4c0 .4 2.5 2.38 2.9 2.38a9.18 9.18 0 0 0 2.11-1.32c.4-.26 1.85-.92 1.85-1.58v-.27c0-.53-.4-1.05-.4-1.58v-.27c0-.52.4-.66.92-.66h.4c.53 0 .53.14.93.14.13.13.4.26.4.52v.4c.93.26 1.2 1.06 1.6 1.85a7.39 7.39 0 0 1 1.85.53 1.73 1.73 0 0 1 .79 1.58h-.27c-.4 0-.4.13-.66.4 0 .8-.13.13-.66.52a1.05 1.05 0 0 0-.39.93v.66c0 .52.53.66 1.2.66h3.3a1 1 0 0 0 .27-.53v-.27c.13-.13.4-.13.4-.4V31c0-.53-.26-.66-.26-1.2v-.13a4.08 4.08 0 0 1 .4-1.19H101c-.13-.13-.26-.26-.26-.4 0-.53-.27-.66-.4-1.06.13-.13.13-.13.13-.4s-.13-.14-.13-.4c-.13.13-.13.13-.4.13h-.13a1 1 0 0 1-1.05-.92v-.66c0-.4.13-.66.13-.93l-.66-.13v-.52c0-.27 0-.27.13-.4 1.45 0 3.3-.26 3.3-1.58v-.93c0-1.2-1.58-2-2.24-2.5l-.27-.13-.66-.4-.13-.14-.18-.14-.4-.13-.26-.13-.66-.53c-.26-.4-.53-.53-.53-1.2v-.66c0-.4.4-.92.66-.92a.85.85 0 0 1 .66.66v.26c0 .4-.13.27-.13.66s.26.53.4.8a4.69 4.69 0 0 0 1.45.52l.4-.13h.13a1.34 1.34 0 0 0 1.11-1.43c-.26.13-.4.66-.8.66h-.2c-.14 0-.27 0-.27-.13a1.47 1.47 0 0 0 .4-.93v-.13c0-.66-.8-.92-1.32-.92h-.13c-.53 0-.66-.13-1.2-.13a1.59 1.59 0 0 0-1.72 1.71v.1a3.15 3.15 0 0 0 .4 1.19l.4.4v.13l.13.13.66.53.13.13v.13l.13.13.27.14.26.13c.8.53 2.1 1.2 2.1 2.5a.93.93 0 0 1-.92 1.05h-.24a5.63 5.63 0 0 1-1.58-.39 9.23 9.23 0 0 0-1.32-1.81c-.66-.4-1.72-.27-2-1.2l-.13-.13-.07-.27-.14-.92v-.13l-.13-.4v-.13l.13-.13a3.6 3.6 0 0 1 1.85-2.9l.4.13a5 5 0 0 1 .75-1.33 6.68 6.68 0 0 0 .4-1.72V9.5l.52.13v-.26c0-1.06-.66-2.77-1.32-2.9a1.23 1.23 0 0 1 .14-.4c0-.53-1.46-1.58-2-1.58h-.14l-.66-.93h-.13l-.92-.13c-.53-.13-.93.13-1.45.13a.6.6 0 0 0-.66.4l-.8.13a4.56 4.56 0 0 1-1.06.4v.4c0 .27.4.4.4.53l-.27.4-.13.4h-.26v.27A7.89 7.89 0 0 0 87 7.79c0 .26.27.52.53.66l.13.4-.4.27a.62.62 0 0 0 .39.66v.8H88c.4 0 .26-.4.66-.4s.26 0 .4.13l.27-.13c.13-.13.26-.13.26-.4v-.4c.27.13.4.13.4.66 0 .8-1.2 1.32-2 1.32l-.8.13-.9-.48v-.53l-.4.14-.4.4h-.13c-.13-.66-.27-.26-.27-1.45.4-.53.66-.53.66-1.32v-.97a.62.62 0 0 0-.66-.66c0-.53-.52-.8-1.18-.8h-.4l-.4.8h-.4c-.26 0-.26.13-.4.26a1.49 1.49 0 0 0-.31 1.3l.13.66c.92.13 1.06.8 1.2 1.72l.13 1.32-.53.26a2.11 2.11 0 0 1 .93.92c-.14.14-.4.4-.4.66v.4a.77.77 0 0 1 .66-.26h.26c.14 0 .66.26.66.4s-.26.13-.4.66h.66c.26 0 0 .13.4.13v.14l-.92.13h-1.5a3.21 3.21 0 0 1-.4-1.19c0-.26-.66-.4-.92-.4-.66 0-1.6.27-1.6.93v.13c0 .4 0 0 .14.26-.14.14-.14 0-.14.27v.4a1 1 0 0 0 .4.8c0 .26-.13.13-.13.4a1.28 1.28 0 0 0 1.19 1.19c.52 0 .66-.27.92-.27a3.21 3.21 0 0 1 1.19.27l.66.26c0 .13.13.13.26.13H85c.13.14.13.27.4.27h.4c.27 0 .27.26.53.26h.4c.13 0 .53.4.92.4h.8l.4 1.05z"/><path d="M77.33 5.67a1.93 1.93 0 0 0-.26-.79l-.8-.8c-.4-.4-.66-.53-.92-.53h-.53v-.13a.75.75 0 0 1 .79-.13 3.16 3.16 0 0 1 .93.53 5.37 5.37 0 0 1 .79.92 1.12 1.12 0 0 1 0 .92zm-3.3-1a1.48 1.48 0 0 0 .4 1.45 1.59 1.59 0 0 0 1.32.79c.26.13.52 0 .66 0s.26-.13.4-.26v-.18h-.13a1 1 0 0 1-.67.13c-.26 0-.53-.27-.92-.4l-.8-.8a2.46 2.46 0 0 1-.28-.92c0-.14 0-.14.13-.27V4.1a1 1 0 0 1-.13.53zm.66-.4c0 .13.13.27.4.4l.26.26c.26.13.26.27.4.27s.26.26.4.26.27.13.4.26.13.14.26.14h.4v-.2c-.93-.4-1.6-1-2.5-1.45.13-.13 0-.13 0 0z"/></g><g fill="#85754e"><path d="M64.13 4c-.4.13-.66.53-1 1.2s-.66.92-1.06.8h-.4v.13c0 .13.13.13.26.13a1.08 1.08 0 0 0 .92-.13 1.63 1.63 0 0 0 .53-.79 2 2 0 0 0 .27-.79 1.64 1.64 0 0 1 .52-.4c.14 0 .14 0 0-.13zm.14-.4v.13h-.14a.4.4 0 0 1-.26-.13 3.92 3.92 0 0 0-1.19-.26 2.5 2.5 0 0 0-1 .26 1.33 1.33 0 0 0-.66.79.74.74 0 0 0 .13.8v.13H61c-.14 0-.14-.27-.27-.4a.61.61 0 0 1 0-.66 2.81 2.81 0 0 1 .53-.79 1.2 1.2 0 0 1 .89-.47 5 5 0 0 1 1.32.13 2.25 2.25 0 0 0 .8.39zm-1.06.53a1.62 1.62 0 0 0-1.06.53 1.34 1.34 0 0 0-.52.92s0 .13-.14 0h-.13v-.43a1.8 1.8 0 0 1 .66-.8 1.29 1.29 0 0 1 1.19-.26z"/><path d="M61.1 6.2c-.27.13-.53.66-.8 1.45s-.53 1.06-.93 1.06H59v.13c.13 0 .13.13.4.13a.79.79 0 0 0 .79-.39 1.82 1.82 0 0 0 .27-.79 1.73 1.73 0 0 1 .13-.8.69.69 0 0 1 .4-.52c.26-.14.26-.14.13-.27zm-.1-.4v.13h-.4a3.34 3.34 0 0 0-1.19.13 2.05 2.05 0 0 0-.92.53 1.18 1.18 0 0 0-.4.92 1.06 1.06 0 0 0 .27.79v.14h-.14c-.13 0-.26-.14-.4-.27a1 1 0 0 1-.13-.66 2.46 2.46 0 0 1 .26-.92 1.89 1.89 0 0 1 .79-.66A2.13 2.13 0 0 1 60 5.81c.27-.14.53 0 .93 0zm-1 .8a1.74 1.74 0 0 0-.92.79 1.73 1.73 0 0 0-.4.92v.14h-.13c0-.14-.13-.27-.13-.4a1.75 1.75 0 0 1 .39-.92A1.84 1.84 0 0 1 60 6.6z"/><path d="M58.72 9.24a1.83 1.83 0 0 0-.26 1.58c0 .66-.13 1.06-.53 1.2h-.26v.13h.4a.9.9 0 0 0 .66-.53 2 2 0 0 0 .13-.92 1.71 1.71 0 0 1-.13-.79c-.13-.27 0-.4 0-.66zm-.13-.4V9h-.4l-1.2.37a1.18 1.18 0 0 0-.79.79 1.38 1.38 0 0 0-.14 1.06 1 1 0 0 0 .53.66s.13.13 0 .13h-.13c-.13 0-.26-.13-.4-.27a.68.68 0 0 1-.26-.52 2.31 2.31 0 0 1 .13-.93 1.84 1.84 0 0 1 .66-.79 2.64 2.64 0 0 1 1.2-.5c.13-.13.4-.13.8-.13zm-.66.93a2.32 2.32 0 0 0-.66.92 1.45 1.45 0 0 0 0 1.05v.14h-.13c-.13-.14-.26-.27-.26-.4a2.59 2.59 0 0 1 .13-.92c.26-.4.4-.66.92-.8zm-.53 3.03a2.29 2.29 0 0 0 .14 1.58c.13.66.13 1.06-.27 1.32H57v.14h.13a.48.48 0 0 0 .4-.14.86.86 0 0 0 .52-.66 2.26 2.26 0 0 0-.13-.92 2.23 2.23 0 0 1-.26-.66v-.66h-.26c.14-.13 0-.13 0 0zm-.13-.4c.13.14.13.14 0 .14h-.13a.13.13 0 0 0-.13.13 2.8 2.8 0 0 0-1.06.66 2.39 2.39 0 0 0-.66.92 1.05 1.05 0 0 0 .13 1.06c.14.26.4.53.66.53 0 0 .14 0 .14.13s0 .13-.14 0a.48.48 0 0 1-.39-.13c-.13-.14-.4-.27-.4-.53a2 2 0 0 1-.13-.93 1.39 1.39 0 0 1 .4-.92 3.52 3.52 0 0 1 1-.79s.27-.13.66-.27zm-.53 1.2a1.6 1.6 0 0 0-.66.93 2.17 2.17 0 0 0 0 .92c.14.13.14.26.27.26h.13v-.13a1.41 1.41 0 0 1-.13-1.05l.4-.93zm.53 2.9c-.13.4 0 .8.53 1.45s.4 1.05.13 1.32l-.13.13a.13.13 0 0 0-.13.13v.13h.13c.13 0 .13 0 .26-.13a1.12 1.12 0 0 0 .4-.79 1.1 1.1 0 0 0-.4-.79c-.26-.27-.4-.4-.4-.66a1 1 0 0 1-.13-.66c-.14-.13-.14-.13-.27-.13zm-.27-.27c-.27.13-.53.4-.8.53a2.09 2.09 0 0 0-.8 1 3 3 0 0 0-.13 1.06.93.93 0 0 0 .4.79c.13.27.4.27.53.4h.52c.14 0 .14 0 .14-.13a.14.14 0 0 0-.14-.14 1 1 0 0 1-.79-.26.88.88 0 0 1-.26-.92 1.78 1.78 0 0 1 .39-1.06c.27-.26.53-.66.8-.92a.13.13 0 0 0 .13-.08v-.27zm-.13 1.2a3.44 3.44 0 0 0-.14 1.19 7.8 7.8 0 0 0 .4.92v.13H57a.29.29 0 0 1-.27-.26 2 2 0 0 1-.26-.93 1.47 1.47 0 0 1 .4-1z"/><path d="M58.33 20.06c0 .4.26.8.8 1.32s.66.92.4 1.32l-.26.26v.13h.13c.13 0 .13-.13.27-.26a.63.63 0 0 0 .13-.79 1.3 1.3 0 0 0-.53-.66c-.26-.13-.4-.4-.53-.53a1 1 0 0 1-.26-.53c0-.4 0-.4-.13-.26zm-.4-.13c.13.13 0 .13 0 .13l-.13.13a4 4 0 0 0-.53 1.06 3.29 3.29 0 0 0-.13 1.05 1.33 1.33 0 0 0 .53.93.62.62 0 0 0 .79.13h.13v.13c-.13 0-.26.13-.4.13a.72.72 0 0 1-.65-.26 1.19 1.19 0 0 1-.53-.79 2.64 2.64 0 0 1-.13-1.06 2.4 2.4 0 0 1 .52-1.19c.14 0 .27-.13.53-.4zm.13 1.07a1.9 1.9 0 0 0 .13 1.19 1.37 1.37 0 0 0 .66.79v.13h-.13a.48.48 0 0 1-.39-.13c-.27-.13-.4-.4-.53-.8.13-.4 0-.8.26-1.2z"/><path d="M60.3 23.1a2.13 2.13 0 0 0 1 1.19c.53.4.8.8.66 1.2v.4h.13c.14 0 .14-.13.27-.26a1.13 1.13 0 0 0 0-.92 1.29 1.29 0 0 0-.66-.53 2.71 2.71 0 0 1-.66-.4 1.8 1.8 0 0 1-.4-.52c-.26-.27-.26-.27-.4-.14zm-.4-.13h.1v.13s0 .14-.13.14a3.86 3.86 0 0 0-.26 1.18 2.64 2.64 0 0 0 .13 1.06 1 1 0 0 0 .79.66.85.85 0 0 0 .79 0h.13v.13c-.13.13-.26.13-.4.26h-.66a1.28 1.28 0 0 1-.66-.52 6.61 6.61 0 0 1-.4-.93 2 2 0 0 1 .27-1.19 3.46 3.46 0 0 1 .26-.92zm.4 1.2a1.5 1.5 0 0 0 .39 1.05 3.5 3.5 0 0 0 .79.66s.14 0 0 .14l-.13.13H61a1.56 1.56 0 0 1-.66-.66c0-.66-.14-.93 0-1.32z"/><path d="M63.08 25.34c.13.26.66.52 1.45.8s1 .53.92.92v.4h.13c0-.13.14-.13.14-.4s0-.66-.27-.8l-.8-.4c-.26 0-.53-.13-.8-.13s-.4-.13-.53-.4c-.13 0-.26-.14-.26 0zm-.4.13h.13v1.58a2.58 2.58 0 0 0 .4 1.06 2.25 2.25 0 0 0 .92.53c.4 0 .66 0 .8-.27h.14v.13c0 .14-.14.27-.4.27a1 1 0 0 1-.66.13.93.93 0 0 1-.79-.4 2.67 2.67 0 0 1-.53-.79 4.1 4.1 0 0 1-.13-1.32 2.26 2.26 0 0 1 .13-.92zm.66.92a2.42 2.42 0 0 0 .66.93 1.78 1.78 0 0 0 .92.39h.14v.13c-.14 0-.27.14-.4 0a1 1 0 0 1-.79-.52.89.89 0 0 1-.53-.93z"/><path d="M66.38 26.66a2.3 2.3 0 0 0 1.58.39 1.13 1.13 0 0 1 1.19.66v.3h.13v-.4a.87.87 0 0 0-.53-.79 2 2 0 0 0-.92-.13H67a.6.6 0 0 1-.66 0c.13-.14 0-.14 0 0zm-.4.13c.13-.13.13 0 .13 0v.4a3.6 3.6 0 0 0 .27 1.19 2.32 2.32 0 0 0 .66.93 1.43 1.43 0 0 0 1 .26.6.6 0 0 0 .66-.4h.13v.14c0 .13-.13.26-.26.4A1 1 0 0 1 68 30a2.11 2.11 0 0 1-.92-.14 3.33 3.33 0 0 1-.8-.66 1.61 1.61 0 0 1-.43-1.2 3.75 3.75 0 0 0 .15-1.21zm.92.8a1.52 1.52 0 0 0 .93.66 1.57 1.57 0 0 0 1 .13H69v.13c-.14.14-.27.27-.4.27a1.23 1.23 0 0 1-.92-.27 1.77 1.77 0 0 1-.8-.92zm18.2-19.4l-.4-.13.13-1.05a.71.71 0 0 1 .26.53v.13c.14.27.14.53 0 .53zm14.4 23.36h-.93c0-.4.27-.93.66-.93s.4.14.66.27v.53c-.13.13-.13.13-.4.13zm-1.32.26a1.53 1.53 0 0 1-.92-.26c0 .13 0 .26-.14.26s-.26 0-.4-.13v-.4c0-.26.13-.66.26-.66.4 0 .4.14.66.27l.27-.66c.26.13.65.26.65.66s-.13.92-.4.92zM85.9 28.1c0-.4.52-.53.92-.53H87c.27 0 .27.13.4.26-.4.14-.8.27-.93.66-.4 0-.52 0-.52-.4zm12-1.6a.62.62 0 0 1 .39.66c0 .14-.13.27-.4.27s-.27-.13-.27-.4a1 1 0 0 1 .27-.53zm-12.8 1.32h.27c.4 0 .4-.52.92-.52h.4c.26 0 .26 0 .26-.27s-.53-.53-.8-.53H86c-.66 0-.93.53-.93 1.32zm13.6-1.32a1.9 1.9 0 0 1 1.18.8c.14.26-.26 1.32-.26 1.7v.8c0 .53-.53.8-1.06.8 0-.4.27-.4.27-.8l-.13-1.45v-.26l.26-.66.53.26v-.4l-.8-.4v-.4zm-9.5-.8v.3a1.66 1.66 0 0 1-.66 1.32 6.34 6.34 0 0 1-.53.39c-.27.27 0 .53-.53.53h-.26a.35.35 0 0 0-.4.4c0 .26.53.52.66.66.5-.3 2.5-1.06 2.64-1.72l-.8.13c.26-.53.8-.53.8-1.32v-.66c0-.26 0-.26-.13-.4s-.8.13-.8.4zm.92-5.67c.4-.13 1.45-.8 1.45-.27 0 .27-.53.66-.92.66h-.4l-.13-.4zm1.06-2.38h-.4c-.4.53-1.2.53-1.06 1.6l.27.26a1.3 1.3 0 0 0 1.32-1.19v-.26c0-.27 0-.27-.13-.4zm-2.5 2.77v.14c.26.13 1.32.8 1.32 1.18-.27 0-.27-.13-.66-.13h-1.06a.42.42 0 0 1-.39-.39v-.53a2 2 0 0 0-.66 1.05c0 .93.4.8.4 1.32h-.26c-.27 0 0-.13-.4-.13 0 .53.4.8.8 1.06 0 .66.8 1.7.8 2.24 0 .26-.66.8-.8.92C87.5 26.8 87 26 86.43 26h-.26l-.8.13c-.27.4-.92.66-.92 1.32v.4c0 .4 2.5 2.38 2.9 2.38a9.39 9.39 0 0 0 2.11-1.32c.4-.26 1.85-.92 1.85-1.58v-.27c0-.53-.4-1.05-.4-1.58v-.27c0-.52.4-.66.92-.66h.4c.53 0 .53.14.92.14.14.13.4.26.4.52v.4c.92.26 1.2 1.06 1.58 1.85A7.15 7.15 0 0 1 97 28a1.71 1.71 0 0 1 .79 1.58c-.4 0-.4.13-.66.4 0 .8-.13.13-.66.52a1.05 1.05 0 0 0-.39.93v.66c0 .52.53.66 1.2.66h3.3a1 1 0 0 0 .27-.53v-.27c.13-.13.4-.13.4-.4V31c0-.53-.26-.66-.26-1.2v-.13a4.08 4.08 0 0 1 .4-1.19h-.4c-.13-.13-.26-.26-.26-.4 0-.53-.27-.66-.4-1.06.13-.13.13-.13.13-.4s-.13-.14-.13-.4c-.13.13-.13.13-.4.13h-.13a1 1 0 0 1-1.05-.92v-.66c0-.4.13-.66.13-.93l-.66-.13v-.52c0-.27 0-.27.13-.4 1.45 0 3.3-.26 3.3-1.58v-.93c0-1.2-1.58-2-2.24-2.5l-.27-.13-.66-.4-.13-.14-.18-.14-.4-.13-.26-.13-.66-.53c-.26-.4-.53-.53-.53-1.2v-.66c0-.4.4-.92.66-.92a.85.85 0 0 1 .66.66v.26c0 .4-.13.27-.13.66s.26.53.4.8a4.69 4.69 0 0 0 1.45.52l.4-.13h.13a1.34 1.34 0 0 0 1.11-1.43c-.26.13-.4.66-.8.66h-.2c-.14 0-.27 0-.27-.13a1.47 1.47 0 0 0 .4-.93v-.13c0-.66-.8-.92-1.32-.92h-.13c-.53 0-.66-.13-1.2-.13a1.59 1.59 0 0 0-1.72 1.71v.1a3.15 3.15 0 0 0 .4 1.19l.4.4v.13l.13.13.66.53.13.13v.13l.13.13.27.14.26.13c.8.53 2.1 1.2 2.1 2.5a.93.93 0 0 1-.92 1.05h-.24a5.63 5.63 0 0 1-1.58-.39 9.23 9.23 0 0 0-1.32-1.81c-.66-.4-1.72-.27-2-1.2l-.13-.13-.07-.27-.27-.66V17l-.13-.4v-.1l.13-.14a3.6 3.6 0 0 1 1.85-2.9l.4.13a4.89 4.89 0 0 1 .79-1.32 6.61 6.61 0 0 0 .39-1.71v-.8l.53.13v-.53c0-1.06-.66-2.77-1.32-2.9a1.29 1.29 0 0 1 .13-.4c0-.53-1.45-1.58-2-1.58h-.13l-.53-.93h-.13l-.92-.13c-.53-.13-.93.13-1.45.13a.6.6 0 0 0-.66.4l-.8.13a4.56 4.56 0 0 1-1.06.4v.4c0 .27.4.4.4.53l-.27.4-.13.4h-.26v.4A8.24 8.24 0 0 0 87 7.92a.89.89 0 0 0 .53.66l.13.4-.4.27a.61.61 0 0 0 .39.66v.8H88c.4 0 .26-.4.66-.4s.26 0 .4.13l.27-.13c.13-.13.26-.13.26-.4v-.4c.27.13.4.13.4.66 0 .8-1.2 1.32-2 1.32l-.8.13-.93-.53v-.66l-.4.14-.4.4h-.13c-.13-.66-.27-.4-.27-1.45.4-.53.66-.53.66-1.32v-.92a.62.62 0 0 0-.66-.66c0-.53-.52-.8-1.18-.8h-.4l-.4.8h-.4c-.26 0-.26.13-.4.26a1.49 1.49 0 0 0-.3 1.32l.13.66c.92.13 1.06.8 1.2 1.72l.13 1.32-.53.26a2.11 2.11 0 0 1 .93.92c-.14.14-.4.4-.4.66v.4a.77.77 0 0 1 .66-.26h.26c.14 0 .66.26.66.4s-.26.13-.4.66h.66c.26 0 0 .13.4.13v.14l-.92.13h-1.5a3.21 3.21 0 0 1-.4-1.19c0-.26-.66-.4-.92-.4-.66 0-1.6.27-1.6.93v.13c0 .4 0 0 .14.26-.14.14-.14 0-.14.27v.4a1 1 0 0 0 .4.8c0 .26-.13.13-.13.4a1.28 1.28 0 0 0 1.19 1.19c.52 0 .66-.27.92-.27a3.21 3.21 0 0 1 1.19.27l.66.26c0 .13.13.13.26.13H85c.13.14.13.27.4.27h.4c.27 0 .27.26.53.26h.4c.13 0 .53.4.92.4h.8l.27 1.05zm8 .8c0 .4.13.4.13.92v2.64a2.75 2.75 0 0 0 .53 1.58c0 .27-.27.53-.4.66l-1-.26a6.72 6.72 0 0 1-.66-1.06c-.27-.26-.8-.66-.8-.8v-.4a2.25 2.25 0 0 0-1.18-2c.13.4.26.26.26.66v.26c-.26-.26-.53-.8-.8-1.06s-.93-.52-1.06-.8h.93l1.32.13V20c-.27.26-.4.8-1.06.8h-.13c-.27 0-.93-.13-.93-.4s.93-1.05.93-1.32l-.66.27-.4-.4.3-1.2-.27-.4c.13-.27.13.13.13-.27V17c0-.26 0-.26-.13-.4l.27-.4.5-.2h.14l.13.4.13 1.2v.13c.26.53.26 1.45 1.2 1.45a.86.86 0 0 1 .79.66c0 .4-.4.93-.4 1.46a1.92 1.92 0 0 0 .27.92c0-1.2.4-1.32.53-2.1.13.13.13 0 .13.26v1.45l.13 1.2a1.16 1.16 0 0 0 .4.92l-.14-.8c0-.26.14-.8.14-1.32s.13-.13.13-.66c0-.13 0-.26.13-.26s.4.4.53.4zm3.82-.93a2.4 2.4 0 0 0-.92-1.58 2.43 2.43 0 0 1 1.19 1.58v.7a1.36 1.36 0 0 1-1.45 1.32h-.22l-1.18-.13-.27-.53c.53 0 .92.27 1.58.27a1.47 1.47 0 0 0 1.32-1.59zM89.73 17l-.13.13h-.13l-.26.14-.4.4-.26.13a2.62 2.62 0 0 1-1.46.8v-.27c0-.26.14 0 .14-.4l-.4.13-.66.4c-.13-.13 0-.13 0-.4l-.26.13h-.66V18h-.4c-.13 0-.13 0-.26-.14v-.4l.8-.13v.13h.53c.4 0 0 0 .26-.13h.13v.13l.66-.13h.13L88 17l.53-.13h-.66l-1.2.4h-.13V17l-.93.27V17l-.8.27.2-.27h-.4l-.13.13h-.53l-.13.14-1.06.26-.13-.26a2.5 2.5 0 0 1-.93.26h-.26c-.26 0-.4-.4-.4-.66.66-.26.53-.13 1.2-.13a.89.89 0 0 0-.79-.53h-.13c-.27 0-.53.27-.53-.13s-.13-.26-.13-.66a1 1 0 0 1 .66-.13h.13a.87.87 0 0 1 .66.53h.13l3 .13.4-.13h.66l.13.4.14.13.26.27.26.26.14-.13.4.13.27-.4.8-.66.4.13c.53 0 .27.13.66.4l.14-.4c.4 0 .4.13.52.53h.14l-.14.26-.26.26h-.4zm-9-2.5c.4-.14.4-.4 1.06-.4.26 0 .8.26.8.53v.13c0 .13-.13.4-.27.4-.4 0-.52-.4-.92-.4l-.66.13v-.4zm5.4-1.85a5.89 5.89 0 0 0 .66-.13l.53.26a9.44 9.44 0 0 0-1.19.79c-.13 0-.53-.53-.66-.92zm.53 2.5c-.13-.27-.13.13-.13-.27v-.26c0-1.6 1.18-1.45 1.84-2a4.16 4.16 0 0 0 2.91-2.38h.13c0 2.9-4 2.5-4.5 4.62l-.26.8v-.52zm1.2-2.9a2 2 0 0 1-1.86-.9l1.32.53c1.58 0 2.37-.4 2.9-1.46h.4c0 .8-1.6 1.85-2.77 1.85zm-3.7-3.56c-.13.13-.4.4-.66.4h-.26a1.12 1.12 0 0 0-.93-.93v-.24a1 1 0 0 1 .27-.66c1 0 .8.53 1.2 1.05 0-.13.13-.26.13-.4v-.4a.61.61 0 0 0-.4-.66l.27-.53h.13c.26 0 .8.27.8.53V7a6.67 6.67 0 0 1-.53 1.72zm6.34 8.18a.34.34 0 0 1 .39-.39c.13 0 .27.13.27.4V17c0 .27 0 .27-.14.4h-.4a.82.82 0 0 1-.13-.53zm8.7-2.5c.14.14.27.14.27.4s-.13 0-.13.4.13.4.13.52a.56.56 0 0 1-.53-.52v-.4h.26v-.4zm-.52 1.2a1.22 1.22 0 0 1-.66-.92V13.6c.13 0 .13.13.4.13h.4l-.13.27.13.26-.27-.13c0 .26-.13.26-.13.66v.13c.13.4.27.4.27.66zm-7.26-.13c0-1.06 1.2-1.32 1.2-2.9.13.13.13.13.13.4v.66a2.26 2.26 0 0 1-1.32 1.85zm-3.83.26c0-1.18 1.32-1.84 2.25-2.24a4.45 4.45 0 0 0 1.58-.66 8.32 8.32 0 0 0 .79-1.45c0 1.85-.4 2.24-1.7 2.77-.53.26-1.06.4-1.6.66s-.8.66-1.32.92zm6.4-3.54c0 .92-.4 1.2-.53 1.72-.4-.27-.13-.27-.13-.8a7.09 7.09 0 0 0-.93-3.56c.13-.13.13-.13.13-.4v-.4a4.59 4.59 0 0 1 1.32 2.77v.66zm.66.8V11c0-2-1.32-2.24-1.46-3.56 1.06.53 1.85.92 2 2.38l.14.92v.13c0 .66-.27 2-.66 2.1zm1-3.16c0-2-2.24-2.78-2.37-3.17.8.4 1.45.4 2 1.05a2.93 2.93 0 0 1 1 1.85v.66c0 .66-.26 2.24-.8 2.38 0-.27-.13-.27-.13-.66l.13-.93.13-1.18zm1.2-1.06c-.53-.66-.26-.92-1.32-1.72-.26-.26-1.72-.92-1.85-1a5 5 0 0 1 2.25.66 2.46 2.46 0 0 1 .92 2.11zm-4.35-2.8a1.22 1.22 0 0 1-.13.66c-.53.13-.13.26-.66.26.13-.4.27-.26.27-.53V6.2l.13-.8-.27-.13-.4.26c0-.26 0-.4.4-.4H92c.26 0 .4.13.52.13v.66zm.93-.53c-.27 0-.4-.26-.53-.53.13 0 .26-.13.4-.13h.7a1.92 1.92 0 0 1 1.8 1.19 5.54 5.54 0 0 0-1.58-.53zm-3.56-.92L90 5l-.4.14-.4-.4.66-.26zm.8.4h-.4L90 4.5c0-.27.26-.27.53-.27l.13.66zm1.18-.4c0-.4.53-.53.93-.53H93a.61.61 0 0 1 .66.39h-.53a2.51 2.51 0 0 0-1.18.4V4.5zm-.92 0c0-.27.13-.53.4-.53h.26a1 1 0 0 0-.26.66v.13l-.27.25c0-.4-.13-.26-.13-.52zm-1.58 1.45a1 1 0 0 1 1-.66c.27 0 .27.13.66.13l.14.26-.4.14v.13l.13.92c0 .13 0 .13-.13.27l.8-.27c0 .4 0 .4.4.4v1.58c-.4 0-.4-.26-.4-.66v-.13c-.4-.13-.53-.4-.66-.4h-.13a1.53 1.53 0 0 0-1.06.4l-.66-.53c0 .27.4.8.66.8l.8-.13c.26 0 .4.66.4.93s-.4.66-.53.66-.26-.53-.92-.66l.4-.27h-.22c-.4 0-.66.13-.66.66v.13c0 .27 0 .27.13.4l-.26.26h-.13l-.4-.4v.26l-.53.13a.45.45 0 0 0-.13-.26c0-.13 0-.13.13-.4h-.4v-.4h.53c.66 0 .26.26.8.4-.13-.8-1.06-.52-1.06-.92s.53-.26.53-.92h-.92c.13-.4.8-1.2 1.18-1.2s.27 0 .4.13l.26.4-.13-.4.66-.13v-.27h-1l-.14-.26.8-.13.13-.53v.53zm-2.1 2.24h.66l-.27.4z"/></g><path d="M48.7 20.45v.14c-.26.13-1.32.8-1.32 1.18.27 0 .27-.13.66-.13H49a.42.42 0 0 0 .39-.39v-.53a2 2 0 0 1 .61 1.05c0 .93-.4.8-.4 1.32h.26c.27 0 0-.13.4-.13 0 .53-.4.8-.8 1.06 0 .66-.8 1.7-.8 2.24 0 .26.66.8.8.92.26-.4.8-1.18 1.3-1.18h.27l.8.13c.26.4.92.66.92 1.32v.4c0 .4-2.5 2.38-2.9 2.38a9.39 9.39 0 0 1-2.11-1.32c-.4-.26-1.85-.92-1.85-1.58v-.27c0-.53.4-1.05.4-1.58v-.27c0-.52-.4-.66-.93-.66H45c-.53 0-.53.14-.93.14-.13.13-.4.26-.4.52v.4c-.92.26-1.2 1.06-1.58 1.85a7.15 7.15 0 0 0-1.85.53 1.71 1.71 0 0 0-.79 1.58h.26c.4 0 .4.13.66.4 0 .8.13.13.66.52a1.06 1.06 0 0 1 .4.93v.66c0 .52-.53.66-1.2.66H37a1 1 0 0 1-.26-.53v-.27c-.14-.13-.4-.13-.4-.4V31c0-.53.26-.66.26-1.2v-.13a4.36 4.36 0 0 0-.39-1.19h.4c.14-.13.27-.26.27-.4 0-.53.26-.66.4-1.06-.13-.13-.13-.13-.13-.4s.13-.14.13-.4c.13.13.13.13.4.13h.13a1 1 0 0 0 1.06-.92v-.66c0-.4-.14-.66-.14-.93l.66-.13v-.52c0-.27 0-.27-.13-.4-1.45 0-3.3-.26-3.3-1.58v-.93c0-1.2 1.6-2 2.25-2.5l.26-.13.66-.4.13-.14.13-.13.4-.13.26-.13.66-.53c.27-.4.53-.53.53-1.2v-.66c0-.4-.4-.92-.66-.92a.86.86 0 0 0-.66.66v.26c0 .4.13.27.13.66s-.26.53-.4.8a4.78 4.78 0 0 1-1.45.52l-.4-.13h-.13a1.34 1.34 0 0 1-1.06-1.45c.27.13.4.66.8.66h.14c.13 0 .26 0 .26-.13a1.47 1.47 0 0 1-.4-.93v-.13c0-.66.8-.92 1.32-.92h.14c.52 0 .66-.13 1.18-.13a1.59 1.59 0 0 1 1.72 1.71v.1a3 3 0 0 1-.4 1.19l-.4.4v.13l-.13.13-.66.53-.14.13v.13l-.13.13-.13-.26-.26.13c-.8.53-2.12 1.2-2.12 2.5a.94.94 0 0 0 .93 1.06h.13a5.54 5.54 0 0 0 1.58-.4A10 10 0 0 1 41.3 19c.66-.4 1.72-.26 2-1.2l.14-.13.13-.26.13-.53v-.13l.13-.4v-.13l-.13-.13a3.56 3.56 0 0 0-1.85-2.9l-.4.13a4.82 4.82 0 0 0-.8-1.32 6.68 6.68 0 0 1-.39-1.72v-.8l-.53.13v-.26c0-1.06.66-2.77 1.32-2.9a1.29 1.29 0 0 0-.13-.4c0-.53 1.45-1.58 2-1.58H43l.4-.93h.13l.92-.13c.53-.13.92.13 1.45.13a.6.6 0 0 1 .66.4l.8.13h.14a4.45 4.45 0 0 0 1.05.4v.4c0 .27-.4.4-.4.53l.26.4.13.4H49v.27a8.1 8.1 0 0 1 1.58 1.32.89.89 0 0 1-.53.66l-.13.4.4.27a.62.62 0 0 1-.4.66v.8h-.4c-.4 0-.27-.4-.66-.4s-.27 0-.4.13l-.26-.13c-.2-.16-.3-.16-.3-.4v-.4c-.26.13-.4.13-.4.66 0 .8 1.18 1.32 2 1.32l.8.13.9-.48v-.53h.4l.4.4h.13c.14-.66.27-.26.27-1.45-.4-.53-.66-.53-.66-1.32v-.84a.62.62 0 0 1 .66-.66c0-.53.53-.8 1.2-.8H54l.27.8h.4c.27 0 .27.13.4.26a2 2 0 0 1 .53 1.32l-.14.66c-.92.13-1.05.8-1.18 1.72l-.14 1.32.53.26a2.09 2.09 0 0 0-.92.92c.13.14.4.4.4.66v.4a.77.77 0 0 0-.66-.26h-.26c-.13 0-.66.26-.66.4s.26.13.4.66h-.66c-.27 0 0 .13-.4.13v.14l.92.13H54a3.21 3.21 0 0 0 .4-1.19c0-.26.66-.4.92-.4h.13c.66 0 1.6.27 1.6.93v.13c0 .4 0 0-.13.26.13.14.13 0 .13.27v.4a1 1 0 0 1-.4.8c0 .26.13.13.13.4a1.27 1.27 0 0 1-1.18 1.19c-.53 0-.66-.27-.93-.27a3.26 3.26 0 0 0-1.19.27l-.52.13c0 .13-.14.13-.27.13h-.13c-.13.13-.13.27-.4.27h-.4c-.27 0-.27.26-.53.26h-.4c-.13 0-.52.4-.92.4h-.8l-.4 1.18z" fill="#fff"/><g fill="#85754e"><path d="M52.26 8.18l.4-.13L52.52 7a.71.71 0 0 0-.26.53v.13a.61.61 0 0 0 0 .53zm-14.4 23.36h.93c0-.4-.27-.93-.66-.93s-.4.14-.66.27v.53c.13.13.13.13.4.13zm1.32.26a1.59 1.59 0 0 0 .93-.26c0 .13 0 .26.13.26s.26 0 .4-.13v-.4c0-.26-.13-.66-.26-.66-.4 0-.4.14-.66.27l-.26-.66c-.27.13-.66.26-.66.66s.26.92.4.92zm12.4-3.7c0-.4-.53-.53-.93-.53h-.13c-.26 0-.26.13-.4.26.4.14.8.27.92.66.26 0 .53 0 .53-.4zm-12.14-1.6a.62.62 0 0 0-.4.66c0 .14.13.27.4.27s.26-.13.26-.4a1 1 0 0 0-.26-.53zm12.8 1.32H52c-.4 0-.4-.52-.92-.52h-.4c-.26 0-.26 0-.26-.27s.53-.53.8-.53h.13c.66 0 .93.53.93 1.32zm-13.44-1.3a1.9 1.9 0 0 0-1.19.8c-.13.26.26 1.32.26 1.7v.8c0 .53.53.8 1.06.8 0-.4-.27-.4-.27-.8l.14-1.45v-.26l-.4-.66-.53.26v-.4l.8-.4v-.4zm9.37-.8V26a1.63 1.63 0 0 0 .66 1.32c.26.26.4.26.52.4s0 .53.53.53h.4a.35.35 0 0 1 .39.4c0 .26-.52.52-.66.66-.52-.27-2.5-1.06-2.64-1.72l.8.13c-.27-.53-.8-.53-.8-1.32v-.66c0-.26 0-.26.14-.4s.66.13.66.4zm-.93-5.67c-.4-.13-1.45-.8-1.45-.27 0 .27.53.66.92.66h.4l.13-.4zm-.92-2.38h.4c.4.53 1.2.53 1.06 1.6l-.26.26a1.3 1.3 0 0 1-1.32-1.19v-.26c-.14-.27 0-.27.13-.4zm2.37 2.77v.14c-.26.13-1.32.8-1.32 1.18.27 0 .27-.13.66-.13H49a.42.42 0 0 0 .39-.39v-.53a2 2 0 0 1 .61 1.05c0 .93-.4.8-.4 1.32h.26c.27 0 0-.13.4-.13 0 .53-.4.8-.8 1.06 0 .66-.8 1.7-.8 2.24 0 .26.66.8.8.92.26-.4.8-1.18 1.3-1.18h.27l.8.13c.26.4.92.66.92 1.32v.4c0 .4-2.5 2.38-2.9 2.38a9.39 9.39 0 0 1-2.11-1.32c-.4-.26-1.85-.92-1.85-1.58v-.27c0-.53.4-1.05.4-1.58v-.27c0-.52-.4-.66-.93-.66H45c-.53 0-.53.14-.93.14-.13.13-.4.26-.4.52v.4c-.92.26-1.2 1.06-1.58 1.85a7.15 7.15 0 0 0-1.85.53 1.71 1.71 0 0 0-.79 1.58h.26c.4 0 .4.13.66.4 0 .8.13.13.66.52a1.06 1.06 0 0 1 .4.93v.66c0 .52-.53.66-1.2.66H37a1 1 0 0 1-.26-.53v-.27c-.14-.13-.4-.13-.4-.4V31c0-.53.26-.66.26-1.2v-.13a4.36 4.36 0 0 0-.39-1.19h.4c.14-.13.27-.26.27-.4 0-.53.26-.66.4-1.06-.13-.13-.13-.13-.13-.4s.13-.14.13-.4c.13.13.13.13.4.13h.13a1 1 0 0 0 1.06-.92v-.66c0-.4-.14-.66-.14-.93l.66-.13v-.52c0-.27 0-.27-.13-.4-1.45 0-3.3-.26-3.3-1.58v-.93c0-1.2 1.6-2 2.25-2.5l.26-.13.66-.4.13-.14.13-.13.4-.13.26-.13.66-.53c.27-.4.53-.53.53-1.2v-.66c0-.4-.4-.92-.66-.92a.86.86 0 0 0-.66.66v.26c0 .4.13.27.13.66s-.26.53-.4.8a4.78 4.78 0 0 1-1.45.52l-.4-.13h-.13a1.34 1.34 0 0 1-1.06-1.45c.27.13.4.66.8.66h.14c.13 0 .26 0 .26-.13a1.47 1.47 0 0 1-.4-.93v-.13c0-.66.8-.92 1.32-.92h.14c.52 0 .66-.13 1.18-.13a1.59 1.59 0 0 1 1.72 1.71v.1a3 3 0 0 1-.4 1.19l-.35.3v.13l-.13.13-.66.53-.13.13v.13l-.14.13-.26-.13-.26.13c-.8.53-2.12 1.2-2.12 2.5a.94.94 0 0 0 .93 1.06h.13a5.54 5.54 0 0 0 1.58-.4A10 10 0 0 1 41.3 19c.66-.4 1.72-.26 2-1.2l.14-.13.13-.26.26-.66v-.13l.13-.4v-.13h-.26a3.56 3.56 0 0 0-1.85-2.9l-.4.13a4.82 4.82 0 0 0-.8-1.32 6.68 6.68 0 0 1-.39-1.72v-.8l-.53.13v-.26c0-1.06.66-2.77 1.32-2.9.13-.14 0-.53 0-.53 0-.53 1.45-1.6 2-1.6h.13l.4-.92h.13l.92-.13c.53-.13.93.13 1.45.13a.6.6 0 0 1 .66.4l.8.13h.13a4.51 4.51 0 0 0 1 .39v.4c0 .26-.4.4-.4.53l.26.4.13.4H49v.4a8.1 8.1 0 0 1 1.58 1.32.89.89 0 0 1-.53.66l-.13.4.4.4a.61.61 0 0 1-.4.66v.8h-.4c-.4 0-.27-.4-.66-.4s-.27 0-.4.13l-.26-.13c-.14-.13-.27-.13-.27-.4v-.4c-.26.13-.4.13-.4.66 0 .8 1.18 1.32 2 1.32h.8l.86-.48v-.53h.4l.4.4h.13c.14-.66.27-.4.27-1.45-.4-.53-.66-.53-.66-1.32v-.84a.62.62 0 0 1 .66-.66c0-.53.53-.8 1.2-.8h.4l.4.8h.4c.27 0 .27.13.4.26a3.17 3.17 0 0 1 .4 1.32l-.14.66c-.92.13-.92.8-1.18 1.72l-.14 1.32.53.26a2.09 2.09 0 0 0-.92.92c.13.14.4.4.4.66v.4a.77.77 0 0 0-.66-.26h-.26c-.13 0-.66.26-.66.4s.26.13.4.66h-.66c-.27 0 0 .13-.4.13v.14l.92.13H54a3.21 3.21 0 0 0 .4-1.19c0-.26.66-.4.92-.4h.27c.66 0 1.58.27 1.58.93v.13c0 .4 0 0-.13.26.13.14.13 0 .13.27v.4a1 1 0 0 1-.4.8c0 .26.14.13.14.4a1.28 1.28 0 0 1-1.19 1.19c-.53 0-.66-.27-.93-.27a3.15 3.15 0 0 0-1.18.27l-.53.13c0 .13-.13.13-.27.13h-.13c-.13.13-.13.27-.4.27h-.4c-.26 0-.26.26-.53.26h-.4c-.14 0-.53.4-.93.4h-.8l-.53 1.18zm-7.9.8c0 .4-.14.4-.14.92v2.64a2.78 2.78 0 0 1-.52 1.58 1.1 1.1 0 0 0 .39.66l1.06-.26a8.6 8.6 0 0 0 .66-1.06c.26-.26.8-.66.8-.8v-.4a2.26 2.26 0 0 1 1.19-2c-.14.4-.27.26-.27.66v.26c.27-.26.53-.8.8-1.06s.93-.52 1.06-.8h-.92l-1.32.13v-1.68c.26.26.4.8 1.05.8h.13c.27 0 .93-.13.93-.4s-.93-1.05-.93-1.32l.66.27.4-.4-.26-1.2.26-.4c-.13-.27-.13.13-.13-.27V17c0-.26 0-.26.13-.4l-.26-.4L45 16h-.13l-.14.4-.13 1.2v.13c-.26.53-.26 1.45-1.18 1.45a.87.87 0 0 0-.8.66c0 .4.4.93.4 1.46a1.92 1.92 0 0 1-.26.92c0-1.2-.4-1.32-.53-2.1-.13.13-.13 0-.13.26v1.45L42 23a1.19 1.19 0 0 1-.39.92l.13-.8c0-.26-.13-.8-.13-1.32s-.13-.13-.13-.66c0-.13 0-.26-.14-.26s-.52.4-.52.4zm-4-.93a2.4 2.4 0 0 1 .92-1.58 2.43 2.43 0 0 0-1.19 1.58v.7A1.36 1.36 0 0 0 38 22.3h.4l1.2-.13.26-.53c-.53 0-.92.27-1.58.27a1.49 1.49 0 0 1-1.45-1.59zM47.64 17l.13.13h.13l.27.14.4.4.27.13a2.56 2.56 0 0 0 1.45.8v-.27c0-.26-.13 0-.13-.4l.4.13.66.4c.13-.13 0-.13 0-.4l.4.13h.66V18h.4c.13 0 .13 0 .27-.14v-.4l-.8-.13v.13h-.52c-.4 0 0 0-.27-.13h-.13v.13l-.66-.13h-.26l-.93-.34-.52-.13h.66l1.18.4h.13V17l.93.27V17l.8.27v-.4h.4l.13.13h.53l.13.13 1 .27.14-.27a2.26 2.26 0 0 0 .92.27h.26c.27 0 .4-.4.4-.66-.66-.26-.53-.13-1.2-.13a.88.88 0 0 1 .79-.53h.14c.26 0 .52.26.52-.13s.14-.27.14-.66a1 1 0 0 0-.66-.13h-.14a.89.89 0 0 0-.66.52h-.13l-3 .14-.4-.14h-.64l-.13.4-.66.66-.13-.26-.4.13-.26-.4-.8-.66-.4.13c-.53 0-.26.14-.66.4l-.13-.4c-.4 0-.4.14-.53.53H47l.13.27.26.26h.14l.13.26zm9-2.5c-.4-.14-.4-.4-1-.4-.27 0-.8.26-.8.53v.13c0 .13.14.4.27.4.4 0 .53-.4.92-.4l.66.13v-.4zm-5.44-1.83a5.89 5.89 0 0 1-.66-.13l-.54.26a8.76 8.76 0 0 1 1.19.79c.13 0 .53-.53.66-.92zm-.4 2.5c.14-.27.14.13.14-.27v-.26c0-1.6-1.2-1.45-1.85-2a4.13 4.13 0 0 1-2.9-2.38h-.14c0 2.9 4 2.5 4.5 4.62l.26.8v-.52zm-1.3-2.9a2 2 0 0 0 1.84-.92l-1.33.53c-1.58 0-2.37-.4-2.9-1.46h-.4a3.19 3.19 0 0 0 2.78 1.85zm3.7-3.56c.13.13.4.4.66.4h.26a1.12 1.12 0 0 1 .9-.93v-.26a1 1 0 0 0-.27-.66c-1 0-.8.53-1.18 1.05 0-.13-.14-.26-.14-.4v-.4a.62.62 0 0 1 .4-.66l-.26-.53h-.14c-.26 0-.8.27-.8.53V7c0 .66.53 1.2.53 1.72zm-6.33 8.18a.35.35 0 0 0-.4-.39c-.13 0-.26.13-.26.4v.1c0 .27 0 .27.13.4h.4a.78.78 0 0 0 .14-.53zm-8.58-2.5c-.13.14-.27.14-.27.4s.14 0 .14.4-.14.4-.14.52a.56.56 0 0 0 .53-.52v-.4h-.26v-.4zm.4 1.2a1.22 1.22 0 0 0 .66-.92V13.6c-.13 0-.13.13-.4.13h-.4l.13.27-.26.26.26-.13c0 .26.14.26.14.66v.13c0 .4-.14.4-.14.66zm7.4-.13c0-1.06-1.18-1.32-1.18-2.9-.14.13-.14.13-.14.4v.66a1.87 1.87 0 0 0 1.32 1.85zm3.7.26c0-1.18-1.32-1.84-2.24-2.24a4.51 4.51 0 0 1-1.59-.66 8.32 8.32 0 0 1-.79-1.45c0 1.85.4 2.24 1.72 2.77.52.26 1 .4 1.58.66a7.72 7.72 0 0 1 1.32.92zm-6.2-3.56c0 .92.4 1.2.52 1.72.4-.27.14-.27.14-.8a7.09 7.09 0 0 1 .92-3.56c0-.13-.13-.13-.13-.4v-.4a4.59 4.59 0 0 0-1.32 2.77v.66zm-.8.8V11c0-2 1.3-2.24 1.45-3.56-1.06.53-1.85.92-2 2.38l-.13.92v.13c.13.66.26 2 .66 2.1zm-1.1-3.2c0-2 2.24-2.78 2.37-3.17-.8.4-1.45.4-2 1.05A2.9 2.9 0 0 0 41 9.5v.66c0 .66.26 2.24.8 2.38 0-.27.13-.27.13-.66l-.22-2.1zM40.5 8.7c.53-.66.27-.92 1.32-1.72.27-.26 1.72-.92 1.85-1a4.91 4.91 0 0 0-2.24.66 2.87 2.87 0 0 0-.93 2.11zm4.36-2.77c0 .4.13.4.13.66.53.13.13.26.66.26-.13-.4-.27-.26-.27-.53V6.2l-.13-.8.27-.13.4.26c0-.26 0-.4-.4-.4h-.14c-.26 0-.4.13-.52.13v.66zm-.8-.53c.27 0 .4-.26.53-.53-.13 0-.26-.13-.4-.13h-.66a1.93 1.93 0 0 0-1.85 1.19 5.76 5.76 0 0 1 1.58-.53zm3.44-.92l-.14.5.4.14.4-.4-.66-.26zm-.8.4h.4l.26-.4c0-.27-.26-.27-.52-.27l-.14.66zm-1.18-.4c0-.4-.53-.53-.93-.53h-.26a.61.61 0 0 0-.66.39h.53a2.51 2.51 0 0 1 1.18.4V4.5zm.92 0c0-.27-.13-.53-.4-.53h-.26a1 1 0 0 1 .26.66v.13l.27.26c0-.4.13-.26.13-.52zM48 5.94a1 1 0 0 0-1-.66c-.27 0-.27.13-.66.13v.26l.4.14v.13l-.13.92c0 .13 0 .13.13.27l-.8-.27c0 .4 0 .4-.4.4v1.58c.4 0 .4-.26.4-.66v-.13c.27-.13.4-.4.66-.4h.13a1.52 1.52 0 0 1 1.06.4l.66-.53c0 .27-.4.8-.66.8L47 8.2c-.27 0-.4.66-.4.93s.4.66.53.66.26-.53.92-.66l-.4-.27h.26c.4 0 .66.13.66.66v.13c0 .27 0 .27-.13.4l.26.26h.14l.4-.4v.26l.53.13a.45.45 0 0 1 .13-.26c0-.13 0-.13-.13-.4h.4v-.4h-.53c-.66 0-.27.26-.8.4.13-.8 1.05-.52 1.05-.92s-.53-.26-.53-.92h.93c-.13-.4-.8-1.2-1.2-1.2s-.26 0-.4.13l-.26.4.13-.4-.68-.13v-.27H49l.13-.26-.8-.13-.66-.27.4.27zm2.12 2.24h-.66l.26.4zM94.1 31.93c.13 0 .13-.13 0 0a27.35 27.35 0 0 1-2.9.27c-3.17.13-4-1.2-3.3-1.45-.27-.53-.66-.53-.93 0-.13.26-.4.13-.26-.27a2.29 2.29 0 0 0-1.06-2.37c.13.26-.13.53-.13.8a.25.25 0 0 0-.4 0c.27.26-.26.66.27 1.45a1.57 1.57 0 0 0 1.32.92c-.53-.66-.8-1.18-.53-1.84a2.43 2.43 0 0 0 1.58 2.24 8.75 8.75 0 0 0 3.7.66 7.3 7.3 0 0 0 2.64-.4z"/><path d="M85.25 31.14c.13.13.13 0 0 0-1.72-1.05-1.32-3.7-.27-2.77.8-1.05-.92-2-1.58-1.05s0 1.84.4 2.64c-1.6-1.32-1.46-2.78.26-3.83a1.69 1.69 0 0 0 .79-1.59c0-.66.13-.8.26-.8-.26-.26-.52-.13-.8 0a1.34 1.34 0 0 0-2.24-1.05c-.13.26 0 .8.26.66s.27-.27 0-.4c.8-.4 1.2.66.8 1.2-.14-.27-.27-.53-.66-.27a.88.88 0 0 1-.14.8c-.52 1.05-.13 1.45.14 1.7 0-.53 1.7-1.2 1.58-2.1.53 1.45-1.85 2-1.85 3.56s1.72 2.5 3.04 3.3z"/><path d="M85.25 31.54c.13 0 .26-.13 0-.13a6.86 6.86 0 0 1-2.91-2 2.38 2.38 0 0 1-.52-2c-.14-.53-.27-.8-.53-.8v.26c-.13-.8-1.32-.66-1.32-.26.26-.14.4.13.53.4v.4c-.27 0-.4 0-.53.26.26 0 .53.4.8.93a8.27 8.27 0 0 0 4.49 2.9zm-2.5-1.45a7.35 7.35 0 0 1-1.45-1.45 5.68 5.68 0 0 1-.4-1.46 4.94 4.94 0 0 1 .66 1.46c.13.36.66.8 1.2 1.45z"/><path d="M85.1 31.67c.14 0 .14.13 0 0a5 5 0 0 1-1.45-.13c-.92 0-1.58.4-1.18.92-.66.4-1.46-.8-.66-1.2.13 0 0-.13 0-.13-.27.13-.53.27-.8.13s-.4-.13-.4 0c-.13-.4.4-.8.8-.8-.4-.4-1.85-.4-1.72.27-1 .4-1.18-.8-.52-.8.13 0 .13-.27-.27-.14s-.4.66-.8.66c-.13 0 0-.13 0-.26a1.31 1.31 0 0 1-1.71-.66.79.79 0 0 0 .79-.4.6.6 0 0 1 .66 0c.13 0 .13 0 0-.13-.53-.13-.13-.66.13-.66 0 .4.53.53 1.32.8.26.14.66.27.92.4a2.43 2.43 0 0 1 .66.4c-.66-.27-1.45-.14-1.58.4.8-.8 2.64-.13 3.56.66-.8.26-.8.53-.8.8.26-.66 1.06-.66 1.72-.53a3.36 3.36 0 0 0 1.31.4zm-7.65-1.85a.8.8 0 0 0 .92-.13 1.73 1.73 0 0 1 .8-.13c-.66-.26-1.18.13-1.72.26z"/><path d="M80.36 29c0-.26-.13-.4-.13-.66S80.1 28.1 80 28s-.13-.27 0-.27c-.27-.13-.53 0-.27.27 0 .13 0 .13-.13 0s-1-.53-1.32.13c-.13.4.4.26.13.13 0-.13.14-.13.27 0s.26.26.4.26c-.13 0-.13 0-.26.14.13 0 .4.26.53.4a1.69 1.69 0 0 0 .79.13 1.4 1.4 0 0 0-.79-.66 1.6 1.6 0 0 1 1 .53zm-36.8 2.93c-.27 0-.13-.13 0 0a27.12 27.12 0 0 0 2.9.27c3.17.13 4-1.2 3.3-1.45.26-.53.66-.53.92 0 .13.26.4.13.27-.27A2.28 2.28 0 0 1 52 28.11c-.13.26.13.53.13.8a.25.25 0 0 1 .4 0c-.26.26.26.66-.26 1.45a1.6 1.6 0 0 1-1.32.92c.52-.66.8-1.18.52-1.84a2.43 2.43 0 0 1-1.58 2.24 8.7 8.7 0 0 1-3.69.66 6.77 6.77 0 0 1-2.65-.4zm8.7-.8c-.14.13-.14 0 0 0 1.7-1.05 1.32-3.7.26-2.77-.8-1.05.92-2 1.58-1.05s0 1.84-.4 2.64c1.58-1.32 1.45-2.78-.27-3.83a1.69 1.69 0 0 1-.79-1.59c0-.66-.13-.8-.26-.8.26-.26.53-.13.8 0a1.34 1.34 0 0 1 2.24-1.05c.14.26 0 .8-.26.66s-.26-.27 0-.4c-.8-.4-1.2.66-.66 1.2.13-.27.26-.53.66-.27a.9.9 0 0 0 .13.8c.53 1.05.13 1.45-.13 1.7 0-.53-1.72-1.2-1.58-2.1-.53 1.45 1.84 2 1.84 3.56-.26 1.72-1.84 2.5-3.16 3.3z"/><path d="M52.4 31.54c-.13 0-.27-.13 0-.13a6.83 6.83 0 0 0 2.9-2 2.38 2.38 0 0 0 .53-2c.13-.53.26-.8.53-.8v.26c.13-.8 1.32-.66 1.32-.26-.27-.14-.4.13-.53.4v.4c.26 0 .4 0 .53.26-.27 0-.53.4-.8.93a9.31 9.31 0 0 1-4.49 2.9zm2.5-1.45a7.63 7.63 0 0 0 1.45-1.45 6.08 6.08 0 0 0 .39-1.46 5.52 5.52 0 0 0-.66 1.46 16.52 16.52 0 0 0-1.18 1.45z"/><path d="M52.4 31.67c-.13 0-.13.13 0 0a5 5 0 0 0 1.45-.13c.92 0 1.58.4 1.2.92.66.4 1.45-.8.66-1.2-.13 0 0-.13 0-.13.26.13.53.27.8.13s.4-.13.4 0c.13-.4-.4-.8-.8-.8.4-.4 1.85-.4 1.72.27 1.05.4 1.2-.8.53-.8-.14 0-.14-.27.26-.14s.4.66.8.66c.13 0 0-.13 0-.26a1.32 1.32 0 0 0 1.72-.66.78.78 0 0 1-.79-.4.6.6 0 0 0-.66 0c-.14 0-.14 0 0-.13.52-.13.13-.66-.14-.66 0 .4-.52.53-1.32.8-.26.14-.65.27-.92.4a2.6 2.6 0 0 0-.66.4c.66-.27 1.45-.14 1.58.4-.8-.8-2.63-.13-3.56.66.8.26.8.53.8.8-.26-.66-1.05-.66-1.7-.53a2.52 2.52 0 0 1-1.32.4zm7.78-1.85a.8.8 0 0 1-.92-.13 1.69 1.69 0 0 0-.79-.13c.66-.26 1.05.13 1.7.26z"/><path d="M57.27 29c0-.26.13-.4.13-.66s.14-.26.27-.4.13-.27 0-.27c.26-.13.52 0 .26.27 0 .13 0 .13.13 0s1.06-.53 1.32.13c.13.4-.4.26-.13.13 0-.13-.13-.13-.26 0s-.27.26-.4.26c.13 0 .13 0 .26.14-.13 0-.4.26-.52.4a1.71 1.71 0 0 1-.79.13 1.37 1.37 0 0 1 .79-.66 1.23 1.23 0 0 0-1.06.53c0 .16-.13.16 0 0zm-12.8 3.86c-.13-.13-.4-.27-.53-.4a14.74 14.74 0 0 1-3.43-.26l-1.32-.4c-.26 0-.53.13-.4.53l1.32.4a15.3 15.3 0 0 0 4.35.13zm-7-1.45L36.4 31l-3-1.2c-.93-.4-1.72-.66-1.6-1.45-.53-.13-.8.13-.66.53-.8-.13-2.9-.53-2.64 1.7.14.4.14.8-.52.8s-.53.66 0 .66c-.14-.27 0-.4.52-.14A1.18 1.18 0 0 0 30 31c0-.66-.14-1.2 1.18-1.2a1.87 1.87 0 0 0-1.45 0c-.66.4 0 1.32-.53 1.45.14-.66-.4-1.05.53-1.58.53-.4 2.24 0 3.17.4a39.27 39.27 0 0 1 4 1.58c-.66 0-1.45-.13-1.85.53-.13-.13-.13-.53.8-.66a4.45 4.45 0 0 0-2.64-.79c-.92.13-1.32.8-2 .8.8-.4 1.2-1.06 2.1-1.06-.26-.13-1.45-.92-2.37 0-.13.13-.13.27 0 .27.53-.4.66 0 .26 0s-.4 0-.4.4a.68.68 0 0 1-.66.53 1 1 0 0 0 1.71.26l.27.27a1.24 1.24 0 0 1 .79-1.06c.4 0 .53 0 0 .27s-.66.92.4 1.18c-.26-.26.14-.4.53-.4.27-.4.66-.66.66 0 0 .4.4.53 1.06.4-.4-.52.4-.8 1.2-.66.26 0 .4.14.65.14a1.15 1.15 0 0 0 .08-.65z"/></g><path d="M8.18 36.7l.13 4.22a9.92 9.92 0 0 0 .93 5 3.48 3.48 0 0 0 3 1.72 3.36 3.36 0 0 0 2.91-1.45 7.67 7.67 0 0 0 .92-4.36V36.7a22.18 22.18 0 0 0-.26-3.17A9.38 9.38 0 0 0 15 31h9a17.31 17.31 0 0 0-.79 2.51 18.05 18.05 0 0 0-.21 3.18v15.57a20.7 20.7 0 0 0 .27 3.16 8.9 8.9 0 0 0 .73 2.51h-7.37l.26-7.52-.13 5.6.13-5.54a10.57 10.57 0 0 1-7.12 2.37 8.26 8.26 0 0 1-6.6-2.63c-1.45-1.72-2.1-4.36-2.1-7.92v-5.6a22.08 22.08 0 0 0-.27-3.17A9 9 0 0 0 0 31h9a9.35 9.35 0 0 0-.79 2.51 25.69 25.69 0 0 1-.03 3.18z" fill="#fff"/><path d="M64.27 42.36a3.57 3.57 0 0 0-.27-1.72 7.82 7.82 0 0 0-.66-1.58c4.5-.4 8-.66 12.4-2.1a41.3 41.3 0 0 1 1.45.39 3.34 3.34 0 0 1 .66.4 4.62 4.62 0 0 0 .79.66l-3.3 4.22a5.78 5.78 0 0 0-.79-.92 3 3 0 0 0-.79-.53 4.59 4.59 0 0 0-3-.26v5l2.5-1.7c.53 0 1.05-.14 1.7-.14a8.48 8.48 0 0 1 5.41 1.59 4.94 4.94 0 0 1 2.12 4.22A7.12 7.12 0 0 1 79 55.82c-2.24 1.58-5.14 2.24-8.7 2.24h-7a7.14 7.14 0 0 0 .7-1.84 12 12 0 0 0 .27-2.38V42.36zm7.38 12.8A3.9 3.9 0 0 0 74.82 54a4.35 4.35 0 0 0 1.06-3.3 4 4 0 0 0-.79-2.7 2.72 2.72 0 0 0-2.25-.92 5.36 5.36 0 0 0-2.11.4v7.65h.92z" fill="#edeef7"/><path d="M122.72 52.4V45a11 11 0 0 0-.26-3.17 18.25 18.25 0 0 0-.66-2.51h3.7c2.9 0 5.68-.4 8.58-.4h.8c.27 0 .53.13.93.13l-.93 5.28c-1.32-1.45-4.22-3.3-5.67-2v9.76a16.5 16.5 0 0 0 .92 5.68h-8.18a7.62 7.62 0 0 0 .66-2.51 18 18 0 0 0 .13-2.88zM58.46 34.7c-2.77-.8-3.3-1.46-4.36-2.64a1.22 1.22 0 0 0-.79.52c-.8 1.2-1.45 2-3.56 1.32-1.85-.52-2.64 1.06 0 2.25 3.7 1.58 8.58 0 8.7-1.45z" fill="#fff"/><path d="M45.4 57.4a8 8 0 0 0 4.76 1.06c.52 0 2.63-2.1 3.43-2.5v2.1H61a7.81 7.81 0 0 1-.93-4v-5c0-1.58-.13-6.47.4-8.45.13-.52.53-1 .66-1.58h-8.6c.13.53.4 1.06.53 1.58.53 2.12.4 9.37.4 12 0 .53 0 .53-.4.8-1.06.8-2.9.8-3.3-.66a9 9 0 0 1-.26-2v-3.9a34.26 34.26 0 0 1 .26-4.75 6.32 6.32 0 0 1 .92-3.17H42.1c.26.53.92 1 .92 4.5 0 2.24-.13 9 .26 10.55a4.76 4.76 0 0 0 2.11 3.43z" fill="#f4f4f4"/><path d="M34.18 53.58a3.7 3.7 0 0 1-2.64 0c-.93-.27-1.2-1.72-.8-2.9.4-.8.4-.66 1.32-.66h2.1v3.57zM30.6 42.9c1.85 0 3.3.8 3.7 2.77a34.1 34.1 0 0 0-4.3 1.44c-2.78 1.06-5.15 3-5.15 6.33 0 3 3.7 5.4 6.46 4.75.53-.13 2.5-2 3.17-2.37v2h7.22c-.66-1.32-.66-1.45-.8-4-.13-2.9.13-5.8 0-8.58-.13-2.37-.8-4.48-2.9-5.67a8.52 8.52 0 0 0-3.69-1.06c-3.17-.13-3.83.27-6.33.93l-1.2 4.48a12.23 12.23 0 0 1 3.82-1.03zm78.93 10.94V46.7c0-1.05-.4-1.7 1.2-2.37a2.89 2.89 0 0 1 1.84 0c1.32.66 1.6 2.24 1.72 3.56a8.68 8.68 0 0 1-.13 3.17c-.53 2.64-2.25 3.3-4.62 2.77zm0-11.6v-2.5h-7.13a11 11 0 0 1 .66 3.17c.27 2.5.13 5.94.13 8.57 0 3.17.14 7.66-.26 9.9l-.66 2.38h8.3c-.8-2.77-1-2.64-1-5.94.53.13.92.4 1.45.53a8.12 8.12 0 0 0 5-.66c4.62-2.1 5.8-9.1 4-13.6a7.42 7.42 0 0 0-5.41-4.48 5.84 5.84 0 0 0-2.64.13c-.6.13-2.06 2.38-2.45 2.5zM81.42 41c1.32 2.38 7 14 7 14.12-.66 1.58-3.82 5.54-5.93 7.4-.53.4-.93.92-1.46 1.06h7c1.32 0 2.24-1.2 3-2.12a22.78 22.78 0 0 0 3.7-6.59 154.85 154.85 0 0 1 6.73-15.18h-7.24a15.82 15.82 0 0 1-1.45 6.07c-.27.66-.4 1.2-.66 1.85l-.27.66-.13.66c-.26-.27-.66-1.6-.92-2a58 58 0 0 1-2.51-6.34c-.13-.8 0-.8-1.32-.8h-6.33a6.62 6.62 0 0 1 .79 1.21z" fill="#fff"/></svg>