<svg xmlns="http://www.w3.org/2000/svg" viewBox="0 0 126.55 64.59"><defs><style>.f0f8e91c-669d-4902-a878-51023622df2c{fill:#a6aaaa;}.ad900f39-9159-40e2-8fbf-0b024dfaff7b{fill:#f3792e;}.b460165c-1eb6-4061-9e67-abb0006de5b5{fill:#f06022;}.f455807a-8270-4dc6-83ab-02b0ebee1b72{fill:#d95122;}.a6d6d40f-a186-4948-80bf-be6d7da9fe0f{fill:#f89a2c;}.ffddeeb3-5cb2-4644-aaea-740bdce50f4d{fill:#c6c6c6;}.ba0af84b-0b25-4571-8116-0970a4ea15d7{fill:#fff;}</style></defs><title>41</title><g id="bda41533-d9b2-4468-a833-0b3dd96a4d54" data-name="Слой 2"><g id="a39267de-ed8c-4246-a122-e91ef3081050" data-name="Слой 1"><path class="f0f8e91c-669d-4902-a878-51023622df2c" d="M69.3,26.22h8.13a3.05,3.05,0,0,1,3,3.05v4.2a3,3,0,0,1-3,3H69.3a3,3,0,0,1-3-3v-4.2A3.05,3.05,0,0,1,69.3,26.22Z"/><polygon class="ad900f39-9159-40e2-8fbf-0b024dfaff7b" points="38.93 38.21 19.06 38.31 39.01 16.39 38.93 38.21"/><path class="b460165c-1eb6-4061-9e67-abb0006de5b5" d="M12,38.3c-.07-.34-.14-.67-.23-1A3,3,0,0,0,10.3,35.6a2.09,2.09,0,0,0-.3-.14h0a4.16,4.16,0,0,0-2.17,0c-1.27.26-2.69.87-3.92,1.05a3.23,3.23,0,0,1-3-1.59c-1.12-2-1.25-5.24,0-7.14a3,3,0,0,1,3.25-1.51c1.23.12,2.57.86,3.79,1.11a2.85,2.85,0,0,0,1.9-.22,3,3,0,0,0,1.34-1.38,4.58,4.58,0,0,0,.32-.74c.61-3.92-.42-7.12.8-13.38l.08-.24s8,1.19,11.89-.05a2.82,2.82,0,0,0,1.65-1.29,2.93,2.93,0,0,0,.3-2.23c-.26-1.27-.87-2.69-1.05-3.92a3.21,3.21,0,0,1,1.59-3C28.81-.23,32-.36,33.9.9a3.05,3.05,0,0,1,1.52,3.26C35.3,5.39,34.56,6.73,34.31,8a2.79,2.79,0,0,0,.22,1.9,3,3,0,0,0,1.38,1.34,5.36,5.36,0,0,0,1.38.53Z"/><path class="b460165c-1eb6-4061-9e67-abb0006de5b5" d="M39,52.46a8.26,8.26,0,0,0-3.09.94,3,3,0,0,0-1.38,1.34,2.76,2.76,0,0,0-.22,1.89c.24,1.22,1,2.57,1.11,3.8a3,3,0,0,1-1.52,3.25c-1.9,1.27-5.09,1.14-7.13,0a3.24,3.24,0,0,1-1.6-3c.19-1.23.8-2.65,1.06-3.92a3,3,0,0,0-.31-2.24,2.78,2.78,0,0,0-1.65-1.28c-1.82-.59-7.4-.35-9.82-.46a3,3,0,0,1-2.34-1.36c-.71-1.06,0-5.14.11-9.08H39Z"/><path class="f455807a-8270-4dc6-83ab-02b0ebee1b72" d="M50.43,42.27c.07,3.61.39,4.31.35,6.68,0,.23,0,.43,0,.66a2.92,2.92,0,0,1-1.67,2.64c-.92.45-2.55.37-4.43.25l0-10.2Z"/><path class="a6d6d40f-a186-4948-80bf-be6d7da9fe0f" d="M50.75,14.38c0,1.64-.6,3.74-.55,6.77a27.64,27.64,0,0,0,.46,4.19,4.09,4.09,0,0,0,.2.42,3,3,0,0,0,1.34,1.38,2.82,2.82,0,0,0,1.89.22c1.23-.25,2.57-1,3.8-1.11a3,3,0,0,1,3.25,1.51c1.28,1.9,1.14,5.1,0,7.14a3.23,3.23,0,0,1-3,1.59c-1.23-.18-2.65-.77-3.92-1.05a3,3,0,0,0-3.41,1.4,2.77,2.77,0,0,0-.34,1.3l-5.89,0-.13-26.37c1.28-.13,2.48-.3,3.43-.41a4.62,4.62,0,0,1,1.2.34A2.93,2.93,0,0,1,50.75,14.38Z"/><path class="ffddeeb3-5cb2-4644-aaea-740bdce50f4d" d="M61.37,24.57V22.89H58.24l-.06-11.43H56.11l.07,13.12,5.19,0Zm4.32,0-.07-13.12H63.54l.07,13.12Zm8.73,0-.07-13.13-1.94,0,0,7.45-3-7.44H68.05l.07,13.12h2l0-7.46L73,24.51Zm7.38,0V22.78l-2.86,0,0-4.32h2.74V16.78l-2.74,0,0-3.75,2.87,0V11.35l-4.94,0,.07,13.12,4.94,0Zm8.07-1.4,0-3.35a1.81,1.81,0,0,0-.53-1.22l-3.15-3.34V13h1.62v2.57h2V12.67c0-.84-.35-1.36-1.58-1.36l-2.53,0c-1.07,0-1.64.62-1.63,1.24V15.2a1.19,1.19,0,0,0,.38,1.08l3.36,3.56,0,2.91H86.21l0-3.19H84.12l0,3.54c0,.79.55,1.33,1.59,1.32h2.64C89.63,24.42,89.87,23.62,89.87,23.07Z"/><path class="ffddeeb3-5cb2-4644-aaea-740bdce50f4d" d="M60.63,54.13c3.26,0,5.7-1.18,5.7-4.13a3.77,3.77,0,0,0-3.47-4v-.07a3.5,3.5,0,0,0,3-3.86c0-2.37-1.68-3.8-5-3.8H56.23V54.13Zm.51-14.59c1.43,0,3.17.53,3.17,2.7,0,2.89-2.52,3-4.71,3H57.77V39.54Zm-1.34,7c2.15,0,4.94.22,4.94,3.26,0,2.39-2.06,3-4.22,3H57.77V46.58ZM77,53.89V42.37H75.64v8.05A4.52,4.52,0,0,1,71.81,53c-2.32,0-3-1.55-3-4.32V42.37H67.41v7.29c0,3,1.52,4.49,4.14,4.49a5.12,5.12,0,0,0,4-1.85h0v1.58H77Zm4.28.26c2.08,0,4-1,4-3.33,0-1.83-1.9-2.57-3.53-3.37-1.32-.65-2.1-1-2.1-2.19,0-1.41,1.48-1.7,2.77-1.7a9.49,9.49,0,0,1,2.33.47V42.75a9,9,0,0,0-2.55-.4c-2.3,0-4,1.21-4,3s1.41,2.55,3,3.29c1.12.54,2.68,1,2.68,2.37,0,1.63-1.74,2-2.9,2a7.89,7.89,0,0,1-2.76-.67v1.36a8.13,8.13,0,0,0,3.11.51ZM88,40.23v-2H86.56v2Zm0,13.9V42.37H86.56V54.13Zm10,0h1.38v-7c0-3-1.52-4.69-4.13-4.69a5.18,5.18,0,0,0-4,2h0V42.37H89.75V54.13h1.39v-7.8A4.63,4.63,0,0,1,95,43.68c2.32,0,3,1.73,3,4.51v5.94Zm3.94-5.25h9.14v-.69c0-3.29-1.65-5.72-5.14-5.72-3.13,0-5.41,2.43-5.41,5.87s2.12,5.81,6.06,5.81a10.84,10.84,0,0,0,3.71-.64V52.1a9.61,9.61,0,0,1-3.6.85c-2.39,0-4.76-1.37-4.76-4.07Zm4-5.2c2.25,0,3.75,1.62,3.75,4h-7.76a4,4,0,0,1,4-4Zm8.93,10.47c2.08,0,4-1,4-3.33,0-1.83-1.9-2.32-3.53-3.13-1.32-.65-2.11-1.27-2.11-2.43,0-1.41,1.48-1.7,2.78-1.7a9.51,9.51,0,0,1,2.32.47V42.75a9,9,0,0,0-2.55-.4c-2.3,0-4,1.21-4,3s1.41,2.8,3,3.54c1.12.53,2.69.78,2.69,2.12,0,1.63-1.75,2-2.91,2a7.84,7.84,0,0,1-2.75-.67v1.36a8.07,8.07,0,0,0,3.11.51Zm7.74,0c2.08,0,4-1,4-3.33,0-1.83-1.9-2.32-3.53-3.13-1.32-.65-2.1-1.27-2.1-2.43,0-1.41,1.47-1.7,2.77-1.7A9.51,9.51,0,0,1,126,44V42.75a9,9,0,0,0-2.54-.4c-2.31,0-4,1.21-4,3s1.41,2.8,3,3.54c1.11.53,2.68.78,2.68,2.12,0,1.63-1.75,2-2.91,2a7.89,7.89,0,0,1-2.75-.67v1.36A8.1,8.1,0,0,0,122.57,54.15Z"/><path class="ba0af84b-0b25-4571-8116-0970a4ea15d7" d="M72,30.1a.31.31,0,0,1,.21.11.26.26,0,0,1,.06.21s0,.1,0,.27a4,4,0,0,1-.16.58,3.64,3.64,0,0,1-.32.71,2.36,2.36,0,0,1-.57.65l0,0a2.62,2.62,0,0,1-.34.24,1.76,1.76,0,0,1-.37.17.35.35,0,0,1-.12,0,.91.91,0,0,0,.1.16,1.64,1.64,0,0,1,.28.62,1.72,1.72,0,0,1,0,.68,3.78,3.78,0,0,1-.19.7,2.26,2.26,0,0,1-.37.61,1.36,1.36,0,0,1-.24.24,1.08,1.08,0,0,1-.3.16.93.93,0,0,1-1-.24,1,1,0,0,1-.24-.31,1.87,1.87,0,0,1-.16-.35A6.55,6.55,0,0,1,68,34.1a15.62,15.62,0,0,1,0-2.27,12.26,12.26,0,0,1,.39-2.23c.1-.32.2-.62.31-.9a6.51,6.51,0,0,1,.4-.85,3,3,0,0,1,.28-.45,2.17,2.17,0,0,1,.35-.39,1.46,1.46,0,0,1,.55-.36.87.87,0,0,1,.94.18,1.17,1.17,0,0,1,.39,1.09A3.92,3.92,0,0,1,71,29.51a13,13,0,0,1-1.59,2,.5.5,0,0,0-.17.28.76.76,0,0,0,0,.3.24.24,0,0,0,0,.13.19.19,0,0,0,.1.08,1.26,1.26,0,0,0,.26.13l.27.07a1.65,1.65,0,0,0,.46-.08,1.42,1.42,0,0,0,.49-.27,1.61,1.61,0,0,0,.38-.4,3.67,3.67,0,0,0,.25-.48.13.13,0,0,0,0-.06.35.35,0,0,1,0-.06c0-.1,0-.2.07-.29s0-.18.07-.27l0-.11a1,1,0,0,1,0-.1.41.41,0,0,1,.1-.21A.29.29,0,0,1,72,30.1Zm-2.59.4a.28.28,0,0,0,0,.09.44.44,0,0,1,0,.1l.08,0c.22-.25.44-.5.65-.76a5.75,5.75,0,0,0,.56-.83,4.36,4.36,0,0,0,.22-.51A2.36,2.36,0,0,0,71,28a.81.81,0,0,0-.05-.39c0-.15-.11-.23-.19-.24s-.18,0-.28.16a1.8,1.8,0,0,0-.24.35c-.06.12-.12.25-.17.38-.14.36-.27.73-.38,1.09s-.2.74-.27,1.12Zm.27,4.83a1.85,1.85,0,0,0,.21-.45,2,2,0,0,0,.08-.49,1.48,1.48,0,0,0,0-.21.59.59,0,0,0,0-.19,1.72,1.72,0,0,0-.33-.51,4.63,4.63,0,0,0-.51-.44c0,.29,0,.56,0,.82a4.92,4.92,0,0,0,0,.77c0,.24.09.47.15.71a.53.53,0,0,0,.06.14.22.22,0,0,0,.13.09.19.19,0,0,0,.14,0l.11-.12S69.68,35.37,69.7,35.33Z"/><path class="ba0af84b-0b25-4571-8116-0970a4ea15d7" d="M76.17,30.16a.38.38,0,0,1,.13.19.35.35,0,0,1,0,.22l-.14.2a2.84,2.84,0,0,1-.35.4,4.74,4.74,0,0,1-.52.42,1.81,1.81,0,0,1-.64.28.36.36,0,0,0,0,.09,3.07,3.07,0,0,1-.2.45,1.38,1.38,0,0,1-.28.4l-.22.22a1.69,1.69,0,0,1-.25.2,1,1,0,0,1-1.12,0A1.4,1.4,0,0,1,71.78,32a1.56,1.56,0,0,1,0-.31c0-.1,0-.21,0-.31a.36.36,0,0,0-.06-.27,1.45,1.45,0,0,1-.31-.7,1.49,1.49,0,0,1,.08-.67,1.64,1.64,0,0,1,.88-.89,1.69,1.69,0,0,1,.94-.09h.13a.58.58,0,0,1,.26,0A.48.48,0,0,1,74,29a.09.09,0,0,0,.06.06,1.75,1.75,0,0,1,.57.74,3,3,0,0,1,.19.91v.36l.13-.07L75,31a2.61,2.61,0,0,0,.27-.19l.23-.21.13-.17a.77.77,0,0,0,.09-.13.36.36,0,0,1,.19-.13.27.27,0,0,1,.23,0Zm-2.45-.51a1.83,1.83,0,0,0-.23.29,2.12,2.12,0,0,0-.21.36,3.17,3.17,0,0,0-.17.38A1.89,1.89,0,0,0,73,31l.26.09.32.06.31,0a1.29,1.29,0,0,0,.24,0,1.79,1.79,0,0,0,0-.92,1.46,1.46,0,0,0-.17-.38.62.62,0,0,0-.26-.23Zm-.46,2.8a.47.47,0,0,0,.17-.07l.17-.14a1.15,1.15,0,0,0,.14-.17.85.85,0,0,0,.08-.17l-.45,0-.45,0a1.16,1.16,0,0,0,0,.32.44.44,0,0,0,.17.26A.32.32,0,0,0,73.26,32.45Z"/><path class="ba0af84b-0b25-4571-8116-0970a4ea15d7" d="M79.52,30.12a.25.25,0,0,1,.16.14.22.22,0,0,1,0,.22.71.71,0,0,1,0,.19c0,.12-.1.27-.17.45s-.15.39-.25.63-.2.48-.32.73a7,7,0,0,1-1.38,2.15l-.14.13-.17.11a1,1,0,0,1-.36.14.7.7,0,0,1-.35,0,.81.81,0,0,1-.32-.16,1.09,1.09,0,0,1-.23-.29,1.36,1.36,0,0,1-.13-.37,2.6,2.6,0,0,1,0-.39,4.33,4.33,0,0,1,.56-2.33l.13-.24c0-.09.09-.18.14-.27l-.34-.06c-.11,0-.23,0-.34-.06a1.71,1.71,0,0,1-.52-.2,1.4,1.4,0,0,1-.38-.34,1,1,0,0,1-.19-.46,1.31,1.31,0,0,1,0-.58,1.6,1.6,0,0,1,.32-.59,1.24,1.24,0,0,1,.56-.38.77.77,0,0,1,.23-.06h.23a.58.58,0,0,1,.4.16.62.62,0,0,1,.18.4.88.88,0,0,1,0,.28l0,.29a2.14,2.14,0,0,1-.09.34c0,.11-.07.22-.1.33a.14.14,0,0,0,0,.06.41.41,0,0,1,0,.08l.46.07a1,1,0,0,0,.46,0,.55.55,0,0,1,.46.11.54.54,0,0,1,.17.45,1.11,1.11,0,0,1,0,.19,1.54,1.54,0,0,0,0,.17c-.11.31-.22.61-.35.89a7.44,7.44,0,0,1-.42.85,3.22,3.22,0,0,0-.23.5,5.25,5.25,0,0,0-.17.52l0,.17a.38.38,0,0,0,0,.2l.15-.1.12-.09a3.73,3.73,0,0,0,.35-.34,2.36,2.36,0,0,0,.28-.42c.11-.19.22-.39.32-.59l.32-.61s0-.08.08-.18a2.82,2.82,0,0,1,.14-.35l.17-.42c.07-.15.12-.29.17-.42a3.05,3.05,0,0,0,.13-.31,1.11,1.11,0,0,1,0-.13.37.37,0,0,1,.16-.17.3.3,0,0,1,.23,0Zm-3.72-.2a3,3,0,0,0,.24-.47,1.61,1.61,0,0,0,.09-.54h-.07a0,0,0,0,0,0,0,.46.46,0,0,0-.18.13.72.72,0,0,0-.14.2,1.47,1.47,0,0,0-.1.22.42.42,0,0,0,0,.22A.25.25,0,0,0,75.8,29.92Z"/></g></g></svg>