<svg xmlns="http://www.w3.org/2000/svg" viewBox="0 0 142.21 22.9"><defs><style>.ac5c29ec-35a3-4879-8b15-65d159f4d4ad{fill:#444a67;}</style></defs><title>42</title><g id="bee13f33-e4d8-48d4-88a2-827abff63858" data-name="Слой 2"><g id="b858cee7-f4e4-4dcf-bf5c-c4d3dcf4d00d" data-name="Слой 1"><path class="ac5c29ec-35a3-4879-8b15-65d159f4d4ad" d="M18,22.51v-.88c2.57-.26,2.66-.44,2.64-3.79l0-12.77c-2.57,5.73-6.7,14.69-7.79,17.44H12C11,19.66,7.42,11,5,5.38c-.54,11-.56,13.43-.56,14,0,1.76.82,2,2.94,2.23v.88H0v-.88c1.82-.19,2.57-.56,2.82-2.25C3,18,3,16.87,3.85,5.44,4,3.81,3.66,3.28.91,3V2.15H6.36L13.28,18,20.71,2.15h5.48V3c-2.69.31-3,.59-3,2.79l.12,12c.13,3.36.22,3.51,3,3.79v.88H18Z"/><path class="ac5c29ec-35a3-4879-8b15-65d159f4d4ad" d="M39.6,19.85c-2,2.51-4.2,3-5.2,3-3.83,0-6.14-3.13-6.14-6.73a8.06,8.06,0,0,1,2-5.48A6.45,6.45,0,0,1,35,8.38a4.89,4.89,0,0,1,4.79,4.85c0,.63-.13.91-.63,1s-4.63.41-8.35.54c-.09,4.2,2.47,5.92,4.69,5.92a5.32,5.32,0,0,0,3.64-1.6ZM34.21,9.57c-1.45,0-2.85,1.35-3.29,3.88,1.75,0,3.51,0,5.35-.09.56,0,.76-.15.76-.63A2.92,2.92,0,0,0,34.21,9.57Z"/><path class="ac5c29ec-35a3-4879-8b15-65d159f4d4ad" d="M48.84,22.51H41.63v-.88c2-.19,2.17-.35,2.17-2.38V12.73c0-2.07-.13-2.16-1.95-2.38V9.57a17.27,17.27,0,0,0,4.42-1.28v3.45c1.1-1.63,2.4-3.36,4-3.36a1.61,1.61,0,0,1,1.81,1.5A2.13,2.13,0,0,1,51,11.61a.62.62,0,0,1-.82-.07,2,2,0,0,0-1.41-.78c-.65,0-1.81,1-2.5,2.58v5.88c0,2.08.15,2.23,2.57,2.41v.88Z"/><path class="ac5c29ec-35a3-4879-8b15-65d159f4d4ad" d="M53.62,22.51v-.88c2-.19,2.19-.35,2.19-2.47V12.71c0-2-.09-2.07-2-2.38V9.57A20.93,20.93,0,0,0,58.3,8.32V19.15c0,2.12.21,2.29,2.25,2.47v.88H53.62ZM56.89,5.26a1.7,1.7,0,0,1,0-3.39,1.63,1.63,0,0,1,1.6,1.73A1.66,1.66,0,0,1,56.89,5.26Z"/><path class="ac5c29ec-35a3-4879-8b15-65d159f4d4ad" d="M68.12,22.49a3.18,3.18,0,0,1-1.34.41c-2,0-3.07-1.22-3.07-3.73V10.06H61.55l-.13-.37.84-.91h1.45V6.13c.59-.63,1.5-1.45,2.1-2.07l.47.06c-.06,1.32-.09,3.14-.09,4.63h3.57A1,1,0,0,1,69.57,10H66.19v8c0,2.53,1,3,1.82,3a4.48,4.48,0,0,0,1.91-.5l.28.82Z"/><path class="ac5c29ec-35a3-4879-8b15-65d159f4d4ad" d="M79.21,16.37H72l.22-1.91h7.21Z"/><path class="ac5c29ec-35a3-4879-8b15-65d159f4d4ad" d="M90.46,2.15a9,9,0,0,1,5.3,1.34A5.33,5.33,0,0,1,97.83,8c0,4.57-3.92,6.42-6.89,6.42a4.6,4.6,0,0,1-.84-.06l-2.16-.56v4.88c0,2.64.21,2.69,3.09,3v.88H82.39v-.88c2.69-.28,2.82-.47,2.82-3.07V6.13c0-2.79-.35-2.85-2.82-3.1V2.15ZM87.92,12.64a5.45,5.45,0,0,0,2.29.41c2.1,0,4.7-1.06,4.7-5,0-3.45-2.25-4.83-4.89-4.83a2.86,2.86,0,0,0-1.75.37c-.26.22-.35.59-.35,1.45Z"/><path class="ac5c29ec-35a3-4879-8b15-65d159f4d4ad" d="M108.55,22.51v-.88c1.82-.19,2.08-.35,2.08-2.41V14.09c0-2.6-1-3.92-3.1-3.88a4.42,4.42,0,0,0-3.31,1.63v7.4c0,2,.25,2.22,2.12,2.4v.88H99.52v-.88c1.82-.15,2.23-.31,2.23-2.4V4.13c0-1.66-.09-2.07-2.19-2.25V1.06A19.08,19.08,0,0,0,104.23,0V10.67a7.09,7.09,0,0,1,4.54-2.29c2.57,0,4.35,1.6,4.35,5.35v5.52c0,2.07.26,2.23,2.08,2.38v.88Z"/><path class="ac5c29ec-35a3-4879-8b15-65d159f4d4ad" d="M128.1,20.67c-.07.34-.4,1.5-.52,1.84h-5.17V22.2c1-.1,1.11-.15,1.11-1.1V16.69c0-1-.12-1-1-1.09v-.31h3v.31c-.88.09-1,.13-1,1.09v4.52c0,.67.09.83.71.84h.89c.56,0,.73-.06,1-.34a3.92,3.92,0,0,0,.68-1.14Z"/><path class="ac5c29ec-35a3-4879-8b15-65d159f4d4ad" d="M133.69,17a4.1,4.1,0,0,0-.36-.92c-.18-.29-.29-.38-.89-.38h-1.12v5.41c0,.87.09,1,1.14,1.05v.31h-3.24v-.31c1-.06,1.13-.18,1.13-1.05V15.73h-1c-.62,0-.8.06-1,.4A6,6,0,0,0,128,17h-.33c.07-.68.13-1.38.17-2h.25c.17.26.3.25.61.25h4.4a.55.55,0,0,0,.56-.25h.27c0,.52,0,1.31.1,2Z"/><path class="ac5c29ec-35a3-4879-8b15-65d159f4d4ad" d="M138,15.29a4.44,4.44,0,0,1,3.24,1,3.2,3.2,0,0,1,.94,2.38,3.64,3.64,0,0,1-1.38,3,5.3,5.3,0,0,1-3.29.88h-2.6V22.2c1-.08,1-.16,1-1.07V16.7c0-1-.13-1-1-1.09v-.3H138ZM136.9,21c0,.83.36,1.06,1.19,1.06,2,0,3-1.37,3-3.31a2.85,2.85,0,0,0-1.29-2.66,3.51,3.51,0,0,0-1.89-.45,1.66,1.66,0,0,0-.89.15c-.1.07-.14.19-.14.63Z"/></g></g></svg>