<svg xmlns="http://www.w3.org/2000/svg" viewBox="0 0 149.51 55.87"><defs><style>.b125c989-cdc3-4e7b-a1c9-95e9685aa970{fill:#c6c6c6;}</style></defs><title>43</title><g id="a8055434-aeb1-4c38-b9d9-8d12d14188f9" data-name="Слой 2"><g id="ac743c99-f405-4901-9510-8f2b5f6d4835" data-name="Слой 1"><path class="b125c989-cdc3-4e7b-a1c9-95e9685aa970" d="M27.74,21.82c0-.11,0-.16.11-.16a.23.23,0,0,1,.15.05l.14.11a4.78,4.78,0,0,1,1.35,1.75q.17.41-.78.72a2,2,0,0,1-1,0q-.74-.09-2-.33c-.2,1-.35,1.93-.46,2.72a17.12,17.12,0,0,0-.16,2.1,5.1,5.1,0,0,0,.19,1.51s0,0,.1.08l.2.1.18.11c.06,0,.08.06.08.08,0,.27-.21.41-.53.41-.13,0-.2,0-.22-.11a7.87,7.87,0,0,1-.43-3.13c0-.55,0-1.16.07-1.83s.11-1.39.2-2.18c-1-.19-2-.41-3.07-.64l-3.42-.78a36.9,36.9,0,0,1-2.85,2.68q-1.55,1.3-3.4,2.62Q7,31.35,3.55,31.41a3.42,3.42,0,0,1-2.63-.95A3.71,3.71,0,0,1,0,27.8a7.68,7.68,0,0,1,.16-1.54A8.51,8.51,0,0,1,.7,24.59a6,6,0,0,1,4.23-3.9,7.71,7.71,0,0,1,1.36-.23c.49-.05,1-.07,1.66-.07A52,52,0,0,1,18.4,21.76q1.56-1.64,4.36-5c1-1.23,1.93-2.36,2.72-3.36s1.44-1.91,2-2.72a.49.49,0,0,1,.36-.14,1.93,1.93,0,0,1,1,.38q.57.38.51.57c-.47,1.42-.87,2.65-1.21,3.7l-.86,2.65c-.79,2.66-1.3,4.58-1.51,5.77A8.22,8.22,0,0,0,28,24c.58,0,.87-.14.87-.43A2.11,2.11,0,0,0,28,22.14.38.38,0,0,1,27.74,21.82Zm-25.11.63a6.17,6.17,0,0,0-1.47,2.3,7.66,7.66,0,0,0-.51,2.72,3.75,3.75,0,0,0,.7,2.4,2.7,2.7,0,0,0,1,.78,2.8,2.8,0,0,0,1.34.24C6,30.84,8.74,29.68,12,27.42a49.3,49.3,0,0,0,5.87-5.09,41.67,41.67,0,0,0-10-1.3c-.63,0-1.2,0-1.7.07a11.43,11.43,0,0,0-1.35.2A4.62,4.62,0,0,0,2.63,22.45ZM22,22.76c1,.25,2,.48,3,.67A58.88,58.88,0,0,1,27.8,12.69a3.39,3.39,0,0,0,.05-.35c0-.29-.08-.44-.24-.44a.38.38,0,0,0-.22.07l-.21.2c-1.37,1.82-2.73,3.53-4.1,5.15s-2.74,3.15-4.14,4.6C20,22.23,21,22.51,22,22.76Z"/><path class="b125c989-cdc3-4e7b-a1c9-95e9685aa970" d="M29.6,30.38c-.2,0-.31,0-.32-.11s-.06-.21,0-.43a31,31,0,0,1,2.1-3.58c.47-.72.91-1.36,1.32-1.93s.8-1.06,1.16-1.49a.66.66,0,0,1,.22-.22,1.92,1.92,0,0,1,.45-.13c.11,0,.17,0,.19,0a.29.29,0,0,1-.08.19A19.8,19.8,0,0,0,32.92,25a19.05,19.05,0,0,0-1.28,2.39.54.54,0,0,0-.1.35c0,.19.07.29.21.29a.43.43,0,0,0,.32-.19c.5-.48,1-1,1.58-1.44s1.11-.95,1.68-1.41a14.28,14.28,0,0,1,2.72-1.89,2.45,2.45,0,0,1,.67-.43,1.16,1.16,0,0,1,1-.11c.25.09.24.3,0,.62a30.43,30.43,0,0,0-3.45,5.66,15.42,15.42,0,0,0-1.59,5.06,2.39,2.39,0,0,0,.52,1.92,2,2,0,0,0,1.48.59,2.67,2.67,0,0,0,.78-.11,11.37,11.37,0,0,0,3.85-2.39q2.57-2.19,2.56-3.51a.54.54,0,0,0-.12-.39.61.61,0,0,0-.28-.16,1.13,1.13,0,0,0-.3,0c-.07,0-.11,0-.11-.08s.08-.2.23-.27a1,1,0,0,1,.42-.11c.3,0,.46.21.46.62a2.83,2.83,0,0,1-.16.78,5.58,5.58,0,0,1-.87,1.64,14.18,14.18,0,0,1-1.56,1.81,9.37,9.37,0,0,1-5.6,2.88,2.12,2.12,0,0,1-1.78-.59A3.26,3.26,0,0,1,33.5,34a13.76,13.76,0,0,1,1.7-4.87c.41-.82.85-1.62,1.31-2.38s.94-1.51,1.47-2.22a.5.5,0,0,0,.08-.27c0-.29-.16-.43-.49-.43a.8.8,0,0,0-.43.13,27.28,27.28,0,0,0-3.06,2.53Q32.57,27.93,31,29.79A2.54,2.54,0,0,1,29.6,30.38Z"/><path class="b125c989-cdc3-4e7b-a1c9-95e9685aa970" d="M38.27,30.38c-.19,0-.3,0-.32-.11s-.05-.21,0-.43a34.21,34.21,0,0,1,2.1-3.58c.47-.72.91-1.36,1.32-1.93s.8-1.06,1.16-1.49a.61.61,0,0,1,.23-.22,1.81,1.81,0,0,1,.44-.13c.11,0,.17,0,.19,0a.29.29,0,0,1-.08.19A19.68,19.68,0,0,0,41.6,25a17.83,17.83,0,0,0-1.28,2.39.54.54,0,0,0-.11.35c0,.19.07.29.21.29a.44.44,0,0,0,.33-.19c.5-.48,1-1,1.57-1.44S43.43,25.48,44,25a14.23,14.23,0,0,1,2.73-1.89,2.32,2.32,0,0,1,.67-.43,1.14,1.14,0,0,1,.94-.11c.25.09.24.3,0,.62a31,31,0,0,0-3.44,5.66,15,15,0,0,0-1.59,5.06,2.43,2.43,0,0,0,.51,1.92,2,2,0,0,0,1.48.59,2.67,2.67,0,0,0,.78-.11,11.39,11.39,0,0,0,3.86-2.39q2.55-2.19,2.55-3.51a.54.54,0,0,0-.12-.39.61.61,0,0,0-.28-.16,1.11,1.11,0,0,0-.29,0c-.08,0-.11,0-.11-.08s.07-.2.23-.27a1,1,0,0,1,.41-.11c.31,0,.46.21.46.62a2.5,2.5,0,0,1-.16.78,5.78,5.78,0,0,1-.86,1.64,16,16,0,0,1-1.56,1.81,9.43,9.43,0,0,1-5.61,2.88,2.1,2.1,0,0,1-1.77-.59A3.26,3.26,0,0,1,42.18,34a13.56,13.56,0,0,1,1.7-4.87c.41-.82.84-1.62,1.3-2.38s1-1.51,1.47-2.22a.5.5,0,0,0,.08-.27c0-.29-.16-.43-.48-.43a.77.77,0,0,0-.43.13,25.6,25.6,0,0,0-3.06,2.53,44.36,44.36,0,0,0-3.11,3.32A2.54,2.54,0,0,1,38.27,30.38Z"/><path class="b125c989-cdc3-4e7b-a1c9-95e9685aa970" d="M47.48,30.89c-.44,0-.67-.31-.67-.94,0-1.27,1-2.91,3-4.9a19.17,19.17,0,0,1,2.59-2.22,11.33,11.33,0,0,1,2.26-1.28,3.69,3.69,0,0,1,.53-.15,2.17,2.17,0,0,1,.57-.07,2.81,2.81,0,0,1,.65.07,5.19,5.19,0,0,1,.65.17,1.67,1.67,0,0,0,.51,0,1.09,1.09,0,0,0,.7-.35.23.23,0,0,1,.16-.05.23.23,0,0,1,.19.13c0,.09.07.15,0,.19-.52.81-1,1.6-1.55,2.38s-1,1.58-1.49,2.38a19.82,19.82,0,0,0-1.11,2.17c-.36.82-.69,1.65-1,2.48s-.55,1.63-.77,2.38a14.82,14.82,0,0,0-.43,1.92,1.12,1.12,0,0,0,0,.24v.27a1.62,1.62,0,0,0,.57,1.36,2.38,2.38,0,0,0,1.53.44,5.77,5.77,0,0,0,1.92-.32A13.48,13.48,0,0,0,60,34.91a18.62,18.62,0,0,0,2-1.84c.59-.63,1.09-1.22,1.53-1.77.16-.18.27-.27.32-.27s0,0,0,.08a.66.66,0,0,1-.11.29,20.1,20.1,0,0,1-1.5,1.94,19.29,19.29,0,0,1-2.08,2c-.76.61-1.44,1.11-2,1.51a8.22,8.22,0,0,1-1.65.86,4.5,4.5,0,0,1-.76.2A4.11,4.11,0,0,1,55,38a3.45,3.45,0,0,1-1.19-.2,4.23,4.23,0,0,1-1-.5,1.56,1.56,0,0,1-.71-.85,3.29,3.29,0,0,1-.18-1.25,10.77,10.77,0,0,1,.23-1.51c.14-.62.31-1.29.53-2s.45-1.42.7-2.12.5-1.32.75-1.86.61-1.24.9-1.8a17.68,17.68,0,0,1,.91-1.53q.18-.3,0-.3a.15.15,0,0,0-.08.05,20.58,20.58,0,0,1-1.55,1.65c-.6.57-1.3,1.2-2.09,1.88a30.74,30.74,0,0,1-4.06,3A1.3,1.3,0,0,1,47.48,30.89Zm1-1.88c0,.43.16.64.48.64a.78.78,0,0,0,.41-.13A20.11,20.11,0,0,0,52.49,27a47.89,47.89,0,0,0,3.59-3.89.26.26,0,0,0,.08-.19.72.72,0,0,0-.35-.55,1.48,1.48,0,0,0-.89-.25,2.25,2.25,0,0,0-.62.08,7.71,7.71,0,0,0-3.21,2.45,20,20,0,0,0-1.55,2,11.54,11.54,0,0,0-1,1.81A1.83,1.83,0,0,0,48.43,29Z"/><path class="b125c989-cdc3-4e7b-a1c9-95e9685aa970" d="M74,20.77a1.77,1.77,0,0,1,.08.31.36.36,0,0,1,0,.21c0,.05-.06.05-.13,0a1.11,1.11,0,0,1-.3-.33,8.68,8.68,0,0,1-.46-.8c-.16-.31-.31-.64-.46-1s-.27-.69-.38-1a4.4,4.4,0,0,1-.19-.82,6.35,6.35,0,0,1,0-.84,2.55,2.55,0,0,1,.25-1,2.63,2.63,0,0,1,.78-1,3.89,3.89,0,0,1,1.63-.66,9.73,9.73,0,0,1,1.83-.16c.7,0,1.44,0,2.23.1s1.61.14,2.44.24l2.44.3,2.21.25c.68.07,1.27.11,1.77.11a1,1,0,0,0,.37-.11,2,2,0,0,1,.34-.13.52.52,0,0,1,.41,0,.47.47,0,0,1,.24.26.55.55,0,0,1,0,.36.48.48,0,0,1-.3.31,2.1,2.1,0,0,1-.39.17,1.6,1.6,0,0,1-.39,0,.6.6,0,0,0-.24.05l-.27.16a6.76,6.76,0,0,0-1.7.92,11.1,11.1,0,0,0-1.45,1.32c-.47.5-.94,1.06-1.42,1.68l-1.55,2a2.28,2.28,0,0,0-.11.21c0,.06,0,.08.14.08h1.35c.16,0,.26,0,.3.08a.12.12,0,0,1,0,.17.56.56,0,0,1-.22.14.84.84,0,0,1-.35.07H81a.44.44,0,0,0-.19,0,.24.24,0,0,0-.1.13c-.33.49-.74,1.06-1.24,1.71s-1,1.3-1.59,1.94a23.6,23.6,0,0,1-1.69,1.75,6.27,6.27,0,0,1-1.54,1.12c-.18.09-.28.17-.29.26s.06.13.2.17l2.17.71c.76.24,1.53.47,2.3.68s1.53.38,2.27.52,1.42.24,2.07.3a9.16,9.16,0,0,0,1.29,0,2.34,2.34,0,0,0,1.16-.34c.27-.19.44-.25.51-.17s0,.19-.24.33-.4.23-.57.32a2.21,2.21,0,0,1-.51.18,3,3,0,0,1-.66.08c-.26,0-.58,0-1,0a20.22,20.22,0,0,1-2.77-.27c-1-.16-1.94-.35-2.86-.57s-1.76-.43-2.53-.66-1.38-.41-1.8-.57a.54.54,0,0,0-.49.08,3.6,3.6,0,0,1-1.06.41,6.58,6.58,0,0,1-1.39.21,3.68,3.68,0,0,1-.8-.07,5.31,5.31,0,0,1-1-.3,5,5,0,0,1-1-.51,2.06,2.06,0,0,1-.71-.76.88.88,0,0,1-.07-.92c.15-.29.5-.43,1-.43a5.51,5.51,0,0,1,1.22.09,13.11,13.11,0,0,1,1.45.33c.48.13,1,.27,1.4.41l1.1.38a.9.9,0,0,0,.27.07.58.58,0,0,0,.35-.12,9.12,9.12,0,0,0,1.38-1.16c.5-.5,1-1.05,1.51-1.63s1-1.18,1.45-1.78.87-1.14,1.21-1.63a.63.63,0,0,1,.18-.21c.06-.05,0-.08-.21-.08H77.27a.37.37,0,0,1-.25-.07.18.18,0,0,1-.06-.17.28.28,0,0,1,.12-.19.51.51,0,0,1,.3-.08h2.23c.09,0,.14-.05.16,0s0,0,.08-.09a27.77,27.77,0,0,1,3.53-4,11.85,11.85,0,0,1,3.21-2.15l.32-.15c.09-.05.14-.09.15-.14s0-.08-.1-.13a2.15,2.15,0,0,0-.4-.15l-1.93-.31c-.87-.13-1.83-.24-2.89-.34s-2.15-.12-3.26-.1a14.1,14.1,0,0,0-3,.35,3.5,3.5,0,0,0-1.18.46,2.63,2.63,0,0,0-.68.64,2,2,0,0,0-.35,1.29A15.07,15.07,0,0,0,74,20.77Zm-6.28,8.51a2.26,2.26,0,0,0,.76.55,3.9,3.9,0,0,0,1,.32,5.57,5.57,0,0,0,1.16.08,3.29,3.29,0,0,0,1.07-.17,2.06,2.06,0,0,0,.38-.16c.09,0,0-.13-.16-.22s-.59-.19-1-.29l-1.13-.33-1.07-.28L68,28.6a.44.44,0,0,0-.44.1C67.43,28.82,67.47,29,67.68,29.28Z"/><path class="b125c989-cdc3-4e7b-a1c9-95e9685aa970" d="M97.39,23.3a.23.23,0,0,1,.16.05.8.8,0,0,1,.39.24.61.61,0,0,1,.18.41,1.43,1.43,0,0,1-.3.64c-.29.87-.63,1.91-1,3.13S95.9,30.41,95.34,32a45.42,45.42,0,0,1,7.79-.72c.45,0,.84,0,1.17,0l.88.09a2,2,0,0,1,.6.24,2.6,2.6,0,0,1,.57.48,2.37,2.37,0,0,1,.41.6,1.48,1.48,0,0,1,.17.67,1.33,1.33,0,0,1-.14.6A6.63,6.63,0,0,1,105,35.79a.67.67,0,0,1-.4.22s-.06,0-.06,0,.09-.22.27-.35A4,4,0,0,0,106.44,33c0-.64-.44-1-1.32-1.07-.25,0-.54,0-.87,0l-1.12,0c-1.64,0-3.11.05-4.43.15a24.07,24.07,0,0,0-3.55.5Q87.22,55.13,75.9,55.86a10.26,10.26,0,0,1-7.11-2.34c-2.18-1.71-3.26-3.62-3.26-5.74a5.1,5.1,0,0,1,.43-2q2-4.83,12.9-9.11a85.29,85.29,0,0,1,15.46-4.47,34.16,34.16,0,0,0,1.45-4.39c.09-.3.17-.58.23-.84s.13-.5.2-.72a12.38,12.38,0,0,1-1.28,1c-.54.41-1.22.89-2,1.47-1,.72-1.91,1.3-2.67,1.76a18.75,18.75,0,0,1-1.91,1,1.56,1.56,0,0,1-.51.08.85.85,0,0,1-1-1,1.86,1.86,0,0,1,.24-.84,11.57,11.57,0,0,1,4.42-4.58A11.12,11.12,0,0,1,97.39,23.3ZM66.61,46.49a4.77,4.77,0,0,0-.33,1.72,6.33,6.33,0,0,0,2.83,5,10.06,10.06,0,0,0,6.73,2.13q6.52-.24,12.39-9.75a61.41,61.41,0,0,0,3.3-6.17,61.74,61.74,0,0,0,2.68-6.87,82,82,0,0,0-17,5.36Q68.38,42,66.61,46.49ZM95.75,26.13a2,2,0,0,0,.75-1.49s0,0,0,0,0,0,0,0a.27.27,0,0,1,0-.11q0-.48-.18-.51a2.57,2.57,0,0,0-1.24.14,10.22,10.22,0,0,0-3.91,1.94,7.47,7.47,0,0,0-2.61,3.28c0,.09,0,.16,0,.22a1.22,1.22,0,0,0,0,.21c0,.58.21.87.64.87s1.48-.66,3.31-2c.74-.52,1.38-1,1.93-1.42S95.39,26.45,95.75,26.13Z"/><path class="b125c989-cdc3-4e7b-a1c9-95e9685aa970" d="M100.11,31.49a1.13,1.13,0,0,1-.4,0,1.47,1.47,0,0,1-.39-.21,1,1,0,0,1-.3-.32.72.72,0,0,1-.12-.4c0-1.49,1.24-3.69,3.61-6.6.07-.13,0-.21-.05-.24a5,5,0,0,1-.49-.31c-.16-.12-.24-.23-.24-.34a.49.49,0,0,1,.08-.22c0-.09.29-.14.7-.16l1,0a.69.69,0,0,0,.3-.11,1.82,1.82,0,0,1,1.19-.59,2.22,2.22,0,0,1,1.21.48l.09.06.1.05,1.49.05,2,.06c.27,0,.4.07.4.1s-.13.16-.4.16q-.84,0-1.08.33a.15.15,0,0,0,0,.16l0,.16a.39.39,0,0,1,0,.13,4.56,4.56,0,0,1-.87,2.2,13.22,13.22,0,0,1-2.42,2.54C103.53,30.23,101.69,31.25,100.11,31.49Zm-.37-1.43a1.21,1.21,0,0,0-.17.59c0,.43.29.59.87.49a9.5,9.5,0,0,0,4.39-2.64q2.69-2.4,3.09-4.37c.13-.54-.21-.85-1-.94a4.91,4.91,0,0,0-1.21,0,4.25,4.25,0,0,0-1,.25s-.19.06-.46.24A18.2,18.2,0,0,0,99.74,30.06Z"/><path class="b125c989-cdc3-4e7b-a1c9-95e9685aa970" d="M118.78,20.15l.94-1.62-.42-.05-.39-.08a1.07,1.07,0,0,1-.67-.45,1.32,1.32,0,0,1-.3-.82.62.62,0,0,1,.19-.46,7.21,7.21,0,0,1,4-2h0c.53-.77,1-1.48,1.46-2.12s.88-1.21,1.29-1.73Q131.06,2.94,137.36.75A12.35,12.35,0,0,1,141.54,0a8.74,8.74,0,0,1,5.76,1.94,5.75,5.75,0,0,1,2.21,4.5,6.05,6.05,0,0,1-1.38,3.77,11.6,11.6,0,0,1-4.44,3.34,49.89,49.89,0,0,1-21.2,5.06h-1c-.3,0-.61,0-.91,0-.4.68-.79,1.38-1.19,2.09s-.79,1.45-1.18,2.22c-1.69,3.29-2.53,5.87-2.51,7.76a.62.62,0,0,0,.16.3l.22,0a1.2,1.2,0,0,1,.24,0c.09,0,.11.1.05.21a.4.4,0,0,1-.21.19.46.46,0,0,1-.59-.16,2.25,2.25,0,0,1-.23-.54,2.28,2.28,0,0,1-.1-.7,19.71,19.71,0,0,1,1.57-5.69c.1-.3.06-.45-.14-.45a.21.21,0,0,0-.16.1c-.47.58-1,1.19-1.61,1.85s-1.32,1.32-2.11,2A16.76,16.76,0,0,1,108.41,31a1.12,1.12,0,0,1-.27.05c-.67,0-1-.31-1-.92q0-1.8,3.18-4.82a17.17,17.17,0,0,1,4.87-3.5l.53-.15a2.78,2.78,0,0,1,.58-.06,4.14,4.14,0,0,1,.66.06c.24.05.51.11.82.2C118.12,21.28,118.45,20.7,118.78,20.15Zm-10,9.13c0,.39.15.59.46.59a.8.8,0,0,0,.43-.13,32.55,32.55,0,0,0,3.48-2.64,33.72,33.72,0,0,0,3.34-3.4,1.23,1.23,0,0,0,.32-.7c0-.41-.32-.62-1-.62a2.8,2.8,0,0,0-.7.09,4.1,4.1,0,0,0-1.55.78,17.48,17.48,0,0,0-1.9,1.64,12.08,12.08,0,0,0-2.77,3.8A1.25,1.25,0,0,0,108.73,29.28Zm10.71-11.21.55.06c.36-.58.7-1.13,1-1.66L122,15a8,8,0,0,0-2,.83,6.07,6.07,0,0,0-1.4,1.19.63.63,0,0,0-.19.48c0,.31.2.49.59.54A2.41,2.41,0,0,0,119.44,18.07Zm1.41.14c.25,0,.51,0,.76,0h.83a40.77,40.77,0,0,0,20.87-5.6q5.61-3.22,5.61-6.84a4.56,4.56,0,0,0-2.27-3.88A8.78,8.78,0,0,0,141.38.3a9.9,9.9,0,0,0-3.86.78Q128.77,4.8,120.85,18.21Z"/><path class="b125c989-cdc3-4e7b-a1c9-95e9685aa970" d="M126.7,27.53c-.22.21-.55.49-1,.83s-.92.7-1.45,1.07-1.07.71-1.61,1a12,12,0,0,1-1.4.76,1.35,1.35,0,0,1-.5,0,1.86,1.86,0,0,1-.67-.26,2,2,0,0,1-.59-.54,1.3,1.3,0,0,1-.26-.82,3.81,3.81,0,0,1,.22-1.12A14.76,14.76,0,0,1,120,27q.32-.77.69-1.56c.26-.53.49-1,.7-1.46s.4-.81.54-1.13a3.12,3.12,0,0,0,.24-.58.57.57,0,0,1,.33-.44.66.66,0,0,1,.51,0,.56.56,0,0,1,.35.37,1,1,0,0,1-.13.78c-.62,1.15-1.09,2-1.42,2.66s-.57,1.07-.71,1.36-.23.46-.26.52a1.34,1.34,0,0,0-.07.18,2.62,2.62,0,0,1-.12.29c-.06.15-.2.44-.42.89a3,3,0,0,0-.33,1,.65.65,0,0,0,.17.53.7.7,0,0,0,.48.14,5.14,5.14,0,0,0,.55-.06,5.61,5.61,0,0,0,1.28-.52c.51-.27,1-.57,1.57-.91s1-.68,1.51-1a10.64,10.64,0,0,0,1.08-.86,1.1,1.1,0,0,1,.35-.27c.07,0,.11,0,.12.06a.4.4,0,0,1-.07.24A.81.81,0,0,1,126.7,27.53ZM125,19.2a2.11,2.11,0,0,1-.75,1.05c-.4.38-.73.54-1,.49s-.59-.22-.59-.46.2-.58.62-1a2.28,2.28,0,0,1,1-.72.62.62,0,0,1,.55.17A.44.44,0,0,1,125,19.2Z"/><path class="b125c989-cdc3-4e7b-a1c9-95e9685aa970" d="M123.44,30.38c-.2,0-.31,0-.33-.11s0-.21.06-.43a31,31,0,0,1,2.1-3.58c.46-.72.9-1.36,1.32-1.93s.8-1.06,1.15-1.49a.69.69,0,0,1,.23-.22,1.92,1.92,0,0,1,.45-.13c.1,0,.17,0,.18,0a.25.25,0,0,1-.08.19A19.68,19.68,0,0,0,126.76,25a19.05,19.05,0,0,0-1.28,2.39.54.54,0,0,0-.11.35c0,.19.07.29.22.29a.44.44,0,0,0,.32-.19c.5-.48,1-1,1.57-1.44s1.11-.95,1.69-1.41a14,14,0,0,1,2.72-1.89,2.32,2.32,0,0,1,.67-.43,1.14,1.14,0,0,1,.94-.11c.25.09.24.3,0,.62A30.43,30.43,0,0,0,130,28.87a15,15,0,0,0-1.59,5.06,2.43,2.43,0,0,0,.51,1.92,2,2,0,0,0,1.48.59,2.79,2.79,0,0,0,.79-.11,11.46,11.46,0,0,0,3.85-2.39c1.7-1.46,2.56-2.63,2.56-3.51a.54.54,0,0,0-.12-.39.64.64,0,0,0-.29-.16,1,1,0,0,0-.29,0c-.07,0-.11,0-.11-.08s.08-.2.23-.27a1,1,0,0,1,.42-.11c.3,0,.45.21.45.62a2.5,2.5,0,0,1-.16.78,5.78,5.78,0,0,1-.86,1.64,14.18,14.18,0,0,1-1.56,1.81,9.4,9.4,0,0,1-5.6,2.88,2.12,2.12,0,0,1-1.78-.59,3.26,3.26,0,0,1-.62-2.54,13.56,13.56,0,0,1,1.7-4.87c.41-.82.84-1.62,1.31-2.38s.94-1.51,1.46-2.22a.43.43,0,0,0,.08-.27c0-.29-.16-.43-.48-.43a.77.77,0,0,0-.43.13,25.6,25.6,0,0,0-3.06,2.53q-1.52,1.46-3.11,3.32A2.54,2.54,0,0,1,123.44,30.38Z"/><path class="b125c989-cdc3-4e7b-a1c9-95e9685aa970" d="M132.65,30.89c-.45,0-.68-.31-.68-.94,0-1.27,1-2.91,3-4.9a18.55,18.55,0,0,1,2.58-2.22,11.33,11.33,0,0,1,2.26-1.28,3.69,3.69,0,0,1,.53-.15,2.25,2.25,0,0,1,.58-.07,2.79,2.79,0,0,1,.64.07,5.19,5.19,0,0,1,.65.17,1.67,1.67,0,0,0,.51,0,1.07,1.07,0,0,0,.7-.35.21.21,0,0,1,.16-.05.22.22,0,0,1,.19.13c0,.09.07.15,0,.19-.52.8-1,1.6-1.55,2.38s-1,1.58-1.49,2.38a19,19,0,0,0-1.11,2.17c-.36.82-.68,1.64-1,2.48s-.55,1.63-.77,2.38a14.82,14.82,0,0,0-.43,1.92,1.05,1.05,0,0,0,0,.24v.27A1.62,1.62,0,0,0,138,37.1a2.46,2.46,0,0,0,1.53.44,6,6,0,0,0,1.92-.32,14,14,0,0,0,3.72-2.32,19.49,19.49,0,0,0,2-1.83c.58-.63,1.09-1.22,1.52-1.78.16-.18.27-.27.32-.27a.11.11,0,0,1,0,.08.69.69,0,0,1-.11.3,23.12,23.12,0,0,1-1.49,1.94,19.44,19.44,0,0,1-2.09,2,22.56,22.56,0,0,1-2,1.5,7.82,7.82,0,0,1-1.65.87,5,5,0,0,1-.76.2,4.11,4.11,0,0,1-.8.07,3.5,3.5,0,0,1-1.19-.2,4.66,4.66,0,0,1-1-.5,1.56,1.56,0,0,1-.71-.85,3.3,3.3,0,0,1-.17-1.25,9.24,9.24,0,0,1,.22-1.51c.14-.63.31-1.3.53-2s.45-1.41.7-2.11.5-1.32.75-1.86.61-1.24.91-1.8a16.92,16.92,0,0,1,.9-1.54c.12-.19.11-.29,0-.29s0,0-.08.05a19,19,0,0,1-1.55,1.64c-.6.58-1.29,1.21-2.09,1.89a30.74,30.74,0,0,1-4.06,3A1.26,1.26,0,0,1,132.65,30.89Zm.94-1.88c0,.43.16.64.49.64a.78.78,0,0,0,.4-.13A19.7,19.7,0,0,0,137.66,27a49.8,49.8,0,0,0,3.58-3.89.26.26,0,0,0,.08-.19.69.69,0,0,0-.35-.55,1.46,1.46,0,0,0-.89-.25,2.3,2.3,0,0,0-.62.08,7.69,7.69,0,0,0-3.2,2.45,18.59,18.59,0,0,0-1.55,2,11.54,11.54,0,0,0-1,1.81A1.84,1.84,0,0,0,133.59,29Z"/></g></g></svg>