<svg xmlns="http://www.w3.org/2000/svg" viewBox="0 0 128.89 34.89"><defs><style>.ae506c47-f3cd-4c93-a0bd-3ce9fe3c6011{fill:#73ab78;}.e5d73650-a1f8-4adb-93ba-5900d5fe7dc5{fill:#c6c6c6;}</style></defs><title>44</title><g id="eb8dce8f-b3ad-447c-8626-a50b56fd66ab" data-name="Слой 2"><g id="ed0d233a-55ec-43ff-93f1-6cb61a99d4db" data-name="Слой 1"><polygon class="ae506c47-f3cd-4c93-a0bd-3ce9fe3c6011" points="8.46 12.16 8.46 24.32 22.74 12.16 37.02 24.32 37.02 12.16 22.74 0 8.46 12.16"/><polygon class="ae506c47-f3cd-4c93-a0bd-3ce9fe3c6011" points="0 34.89 21.15 34.89 10.58 25.55 0 34.89"/><polygon class="ae506c47-f3cd-4c93-a0bd-3ce9fe3c6011" points="33.3 22.38 22.73 31.73 12.15 22.38 33.3 22.38"/><polygon class="ae506c47-f3cd-4c93-a0bd-3ce9fe3c6011" points="24.32 34.89 45.48 34.89 34.9 25.55 24.32 34.89"/><path class="e5d73650-a1f8-4adb-93ba-5900d5fe7dc5" d="M55.43,28.3a6,6,0,0,0,.62,0h.62a2.45,2.45,0,0,0,1.44-.42,2,2,0,0,0,.6-1.76V8.78h3.58V25.86a8.22,8.22,0,0,1-.42,2.82,4.63,4.63,0,0,1-1.14,1.74,4.29,4.29,0,0,1-1.65.9,7.19,7.19,0,0,1-1.93.25h-.87a6.65,6.65,0,0,1-.85-.06V28.3Z"/><path class="e5d73650-a1f8-4adb-93ba-5900d5fe7dc5" d="M67.51,18.36h4.91v3.25H67.51v6.65h6.17v3.25H63.94V8.78h9.74V12H67.51v6.33Z"/><path class="e5d73650-a1f8-4adb-93ba-5900d5fe7dc5" d="M82.68,31.51c-.05-.15-.09-.29-.14-.41a4,4,0,0,1-.11-.49,6.21,6.21,0,0,1-.07-.75c0-.3,0-.68,0-1.14V25.15a3.51,3.51,0,0,0-.55-2.25A2.23,2.23,0,0,0,80,22.26H78.77v9.25H75.19V8.78H80.6a5.36,5.36,0,0,1,4,1.3A5.44,5.44,0,0,1,85.9,14v1.78q0,3.51-2.34,4.61a3.17,3.17,0,0,1,1.86,1.81,8,8,0,0,1,.51,3v3.51q0,.84.06,1.47a5.33,5.33,0,0,0,.33,1.29ZM78.78,12v7h1.4a2.23,2.23,0,0,0,1.57-.53,2.47,2.47,0,0,0,.57-1.88V14.37a2.91,2.91,0,0,0-.43-1.79A1.66,1.66,0,0,0,80.51,12Z"/><path class="e5d73650-a1f8-4adb-93ba-5900d5fe7dc5" d="M100,31.51H96.35l-.61-4.12h-4.4l-.61,4.12H87.45L91.09,8.78h5.23Zm-8.16-7.2h3.44l-1.72-11.5Z"/><path class="e5d73650-a1f8-4adb-93ba-5900d5fe7dc5" d="M98.53,8.78h11V12h-3.74V31.51h-3.57V12H98.53V8.78Z"/><path class="e5d73650-a1f8-4adb-93ba-5900d5fe7dc5" d="M110.77,8.78h3.58V31.51h-3.58Z"/><path class="e5d73650-a1f8-4adb-93ba-5900d5fe7dc5" d="M128.63,8.78l-3.73,11,4,11.69h-3.76l-2.93-9-3,9H115.9l4-11.69-3.73-11h3.7l2.7,8.37,2.76-8.37Z"/></g></g></svg>