<svg xmlns="http://www.w3.org/2000/svg" xmlns:xlink="http://www.w3.org/1999/xlink" viewBox="0 0 145.16 39.22"><defs><style>.fc81540d-4a79-453f-a665-90dd1b85c9e4{fill:url(#e8afd0f4-1149-4f4d-a000-0eea589d6602);}.b8f2be56-79dd-41c5-ac15-8c07d2f1a311{fill:url(#b149ae75-8293-442c-a93d-81ba080029ba);}.f583e5c7-b862-4655-9330-c3e8cdb25d86{fill:url(#bb2e272c-aad9-4625-b00d-702497a7a2f5);}.e944f93b-3348-48ad-96f5-cd199efc4525{fill:#6b6b6b;}.ee99d41a-1102-405d-90d3-36eaa6bc5a4a{fill:#c6c6c6;}</style><linearGradient id="e8afd0f4-1149-4f4d-a000-0eea589d6602" x1="34.67" y1="541.85" x2="16.55" y2="520.88" gradientTransform="matrix(1, 0, 0, -1, 0, 559.47)" gradientUnits="userSpaceOnUse"><stop offset="0" stop-color="#3c6981"/><stop offset="1" stop-color="#639c9e"/></linearGradient><linearGradient id="b149ae75-8293-442c-a93d-81ba080029ba" x1="0.23" y1="542.59" x2="17.94" y2="521" gradientTransform="matrix(1, 0, 0, -1, 0, 559.47)" gradientUnits="userSpaceOnUse"><stop offset="0" stop-color="#70b18b"/><stop offset="1" stop-color="#487f74"/></linearGradient><linearGradient id="bb2e272c-aad9-4625-b00d-702497a7a2f5" x1="29.06" y1="546.25" x2="-2.68" y2="546.89" gradientTransform="matrix(1, 0, 0, -1, 0, 559.47)" gradientUnits="userSpaceOnUse"><stop offset="0" stop-color="#7ba669"/><stop offset="1" stop-color="#b3c958"/></linearGradient></defs><title>45</title><g id="b8d617a7-665e-494b-aef3-8e4a105bde87" data-name="Слой 2"><g id="b422b313-ca13-4f67-80ed-89d97451be0b" data-name="Слой 1"><path class="fc81540d-4a79-453f-a665-90dd1b85c9e4" d="M34.35,16.45l-15.19,11a2.68,2.68,0,0,1-1.6.5V39.22h0a1.16,1.16,0,0,0,.46-.09L34.26,27.52A2,2,0,0,0,35.08,26V16.79A.47.47,0,0,0,34.35,16.45Z"/><path class="b8f2be56-79dd-41c5-ac15-8c07d2f1a311" d="M17.6,27.92a2.73,2.73,0,0,1-1.57-.5L.66,16.5a.42.42,0,0,0-.66.34V26a2,2,0,0,0,.81,1.59L17.15,39.1a.7.7,0,0,0,.45.12Z"/><path class="f583e5c7-b862-4655-9330-c3e8cdb25d86" d="M34.12,11.51,26.25,5.84a3.37,3.37,0,0,0-3.69-.16v0L12.37,13.11a1.59,1.59,0,0,1-1.9,0l-.21-.16a.89.89,0,0,1,0-1.42L22.14,2.87,18.69.35a1.86,1.86,0,0,0-1-.35h-.16a1.86,1.86,0,0,0-1,.35L1,11.53a1.86,1.86,0,0,0,0,3L8.45,19.9a3.53,3.53,0,0,0,4.19,0l.38-.29,10.57-7.74a.78.78,0,0,1,.93,0l.81.59a.79.79,0,0,1,0,1.27l-12.7,9.22,3.63,2.63a2.3,2.3,0,0,0,2.7,0l15.18-11A1.87,1.87,0,0,0,34.12,11.51Z"/><path class="e944f93b-3348-48ad-96f5-cd199efc4525" d="M46.55,26.52a.86.86,0,0,0-.34-.18,1.1,1.1,0,0,0-.35-.05.91.91,0,0,0-.23,0,.54.54,0,0,0-.2.1.55.55,0,0,0-.14.19.65.65,0,0,0-.06.29v1a.61.61,0,0,0,.06.28.58.58,0,0,0,.15.19.47.47,0,0,0,.2.1.54.54,0,0,0,.22,0,1.33,1.33,0,0,0,.34,0,.87.87,0,0,0,.35-.19l.32.52a1.27,1.27,0,0,1-.46.25,2,2,0,0,1-.56.08,1.84,1.84,0,0,1-.47-.06,1.44,1.44,0,0,1-.41-.21,1,1,0,0,1-.29-.33,1,1,0,0,1-.12-.48V26.76a1,1,0,0,1,.11-.47A1.07,1.07,0,0,1,45,26a1.44,1.44,0,0,1,.41-.21,1.84,1.84,0,0,1,.47-.07,2.1,2.1,0,0,1,.56.08,1.25,1.25,0,0,1,.47.25l-.32.52ZM50,26.3v2.77h-.67V26.3h-.89v-.6h2.45v.6Zm3.24.9h.69a.48.48,0,0,0,.35-.12.52.52,0,0,0,.11-.32.48.48,0,0,0-.12-.33.46.46,0,0,0-.34-.13h-.69v.9Zm.84-1.5a.94.94,0,0,1,.43.1.81.81,0,0,1,.3.25,1,1,0,0,1,.18.34,1.49,1.49,0,0,1,.05.36,1.26,1.26,0,0,1-.06.38,1.35,1.35,0,0,1-.19.33,1.07,1.07,0,0,1-.31.25.93.93,0,0,1-.42.09h-.82v1.27h-.67V25.7ZM59.27,28a1,1,0,0,1-.1.47,1,1,0,0,1-.28.35.94.94,0,0,1-.41.21,1.63,1.63,0,0,1-.5.07,1.68,1.68,0,0,1-.5-.07,1,1,0,0,1-.41-.21,1,1,0,0,1-.28-.35,1,1,0,0,1-.1-.47V26.76a1,1,0,0,1,.11-.47,1,1,0,0,1,.28-.35,1.25,1.25,0,0,1,.42-.2,1.59,1.59,0,0,1,.48-.07,1.61,1.61,0,0,1,.49.07,1.25,1.25,0,0,1,.41.22,1,1,0,0,1,.29.34,1.06,1.06,0,0,1,.1.48V28Zm-.66-1.1a.65.65,0,0,0-.06-.29.56.56,0,0,0-.34-.29.85.85,0,0,0-.23,0,.83.83,0,0,0-.22,0,.53.53,0,0,0-.21.11.86.86,0,0,0-.14.18.84.84,0,0,0,0,.29v1a.78.78,0,0,0,0,.28.72.72,0,0,0,.14.19.53.53,0,0,0,.21.11.83.83,0,0,0,.22,0,.85.85,0,0,0,.23,0,.49.49,0,0,0,.2-.11.45.45,0,0,0,.14-.19.61.61,0,0,0,.06-.28v-1Zm4.58,0-.33.51-.14.23-.19.29-.21.32-.21.32c-.06.11-.13.2-.19.29l-.14.23h-.61V25.7h.67v2.22h0l.7-1.1.72-1.12h.61v3.37h-.67V26.88Zm4-.58v2.77h-.67V26.3h-.89v-.6H68v.6Zm2.59-.6h2.32v.6H70.39v.78h1.42v.6H70.39v.79h1.66v.6H69.73V25.7Zm5.15.6v.9a4.47,4.47,0,0,1,0,.76,1.87,1.87,0,0,1-.17.59,1.07,1.07,0,0,1-.36.4,1.32,1.32,0,0,1-.58.2l-.15-.54a1.2,1.2,0,0,0,.34-.18.79.79,0,0,0,.2-.27,1.47,1.47,0,0,0,.09-.4,4.36,4.36,0,0,0,0-.54V25.7h2.22v3.37h-.68V26.3Zm4.18,2.17h.69a.48.48,0,0,0,.36-.13.41.41,0,0,0,.13-.32.39.39,0,0,0-.13-.31.53.53,0,0,0-.36-.13h-.69v.89Zm-.67.6V25.7h.67V27h.77a1.25,1.25,0,0,1,.45.08,1,1,0,0,1,.33.22.93.93,0,0,1,.21.33,1.07,1.07,0,0,1,.07.41,1.15,1.15,0,0,1-.06.37.86.86,0,0,1-.18.34.87.87,0,0,1-.32.24,1,1,0,0,1-.47.1Zm6.15,0V27.66H83.3v1.41h-.67V25.7h.67v1.36h1.24V25.7h.68v3.37ZM89,28.38H87.81l-.22.69h-.71l1.18-3.37h.68l1.18,3.37h-.73L89,28.38Zm-1-.57h.81l-.13-.43-.26-.88h0l-.26.87-.14.44Zm6.09-2.11v3.37h-.67V27.74H93a.55.55,0,0,0-.19,0,.34.34,0,0,0-.15.06.41.41,0,0,0-.12.14.9.9,0,0,0-.1.22l-.25.89h-.74l.28-.92a1.72,1.72,0,0,1,.14-.33.51.51,0,0,1,.23-.23.71.71,0,0,1-.26-.13,1.12,1.12,0,0,1-.17-.21A1.06,1.06,0,0,1,91.6,27a1.24,1.24,0,0,1,0-.27,1.26,1.26,0,0,1,.06-.38.92.92,0,0,1,.19-.33,1,1,0,0,1,.32-.23,1.06,1.06,0,0,1,.45-.09Zm-.67.6h-.68a.48.48,0,0,0-.36.13.45.45,0,0,0-.12.33.34.34,0,0,0,.12.29.52.52,0,0,0,.35.1h.69V26.3Zm4.9,2.77V25.7H99v1.36h.34l.18,0a.39.39,0,0,0,.29-.2,1,1,0,0,0,.1-.21l.29-.93h.68l-.3,1a1.42,1.42,0,0,1-.2.41.53.53,0,0,1-.28.22.68.68,0,0,1,.33.24,1.55,1.55,0,0,1,.19.43l.32,1.08h-.73l-.27-1a.9.9,0,0,0-.1-.22.44.44,0,0,0-.13-.14.38.38,0,0,0-.16-.06.55.55,0,0,0-.19,0H99v1.42ZM105.23,28a1,1,0,0,1-.1.47,1,1,0,0,1-.28.35.94.94,0,0,1-.41.21,1.63,1.63,0,0,1-.5.07,1.68,1.68,0,0,1-.5-.07,1,1,0,0,1-.41-.21,1,1,0,0,1-.28-.35,1,1,0,0,1-.1-.47V26.76a.88.88,0,0,1,.11-.47,1,1,0,0,1,.28-.35,1.17,1.17,0,0,1,.42-.2,1.55,1.55,0,0,1,.48-.07,1.51,1.51,0,0,1,.48.07,1.2,1.2,0,0,1,.42.22,1.07,1.07,0,0,1,.29.34,1.06,1.06,0,0,1,.1.48V28Zm-.67-1.1a.65.65,0,0,0,0-.29.62.62,0,0,0-.14-.18.56.56,0,0,0-.2-.11.85.85,0,0,0-.23,0l-.23,0a.56.56,0,0,0-.2.11.86.86,0,0,0-.14.18.84.84,0,0,0-.05.29v1a.78.78,0,0,0,.05.28.72.72,0,0,0,.14.19.56.56,0,0,0,.2.11l.23,0a.85.85,0,0,0,.23,0,.56.56,0,0,0,.2-.11.55.55,0,0,0,.14-.19.61.61,0,0,0,0-.28v-1Zm5.14.36-.31.62-.38.73h-.48l-.38-.71-.33-.64h0v1.81h-.67V25.7h.61l.6,1.19.41.83h0l.41-.85.57-1.17h.62v3.37h-.67V27.26Zm4.51,1.81V26.3H113v2.77h-.67V25.7h2.59v3.37Zm4.44-.69h-1.17l-.22.69h-.71l1.18-3.37h.69l1.17,3.37h-.73l-.21-.69Zm-1-.57h.81l-.13-.43-.26-.88h0l-.26.87-.14.44Zm5.51,1.26V27.66h-1.24v1.41h-.67V25.7h.67v1.36h1.24V25.7h.68v3.37Zm4.61-2.19-.33.51-.15.23c0,.09-.12.18-.18.29l-.21.32c-.08.11-.15.22-.21.32l-.19.29-.15.23h-.6V25.7h.67v2.22h0l.7-1.1.71-1.12h.61v3.37h-.67V26.88Zm5.1-1.18v3.37h-.67V27.74h-.39a.5.5,0,0,0-.18,0,.34.34,0,0,0-.15.06.58.58,0,0,0-.13.14,1.65,1.65,0,0,0-.09.22l-.25.89h-.74l.28-.92a2.85,2.85,0,0,1,.13-.33.57.57,0,0,1,.23-.23.66.66,0,0,1-.25-.13.83.83,0,0,1-.17-.21,1.06,1.06,0,0,1-.09-.25,1.24,1.24,0,0,1,0-.27,1.26,1.26,0,0,1,.06-.38,1.06,1.06,0,0,1,.18-.33,1.24,1.24,0,0,1,.32-.23,1.08,1.08,0,0,1,.46-.09Zm-.67.6h-.67a.5.5,0,0,0-.37.13.44.44,0,0,0-.11.33.34.34,0,0,0,.12.29.52.52,0,0,0,.35.1h.68Z"/><path class="ee99d41a-1102-405d-90d3-36eaa6bc5a4a" d="M58.17,9H54.56a.28.28,0,0,0-.27.19l-2.65,7c-.06.18-.16.22-.21.22s-.15,0-.22-.22l-2.64-7A.28.28,0,0,0,48.3,9H44.69a.13.13,0,0,0-.12.18L48.51,18a2.75,2.75,0,0,0,2.92,1.7A2.72,2.72,0,0,0,54.34,18l3.94-8.77A.12.12,0,0,0,58.17,9Z"/><path class="ee99d41a-1102-405d-90d3-36eaa6bc5a4a" d="M70,14.22a3.82,3.82,0,0,0-1.61-.74l-3.9-1c-.45-.1-1-.24-1-.57a.31.31,0,0,1,.18-.28,1.58,1.58,0,0,1,.61-.06H70a.2.2,0,0,0,.2-.2V9.19A.19.19,0,0,0,70,9H62.57a2.9,2.9,0,0,0-2,.66,2.63,2.63,0,0,0-.72,2.11,3.68,3.68,0,0,0,.62,2.35,2.44,2.44,0,0,0,1.33.79l4.48,1.15c.38.09.75.19.75.52,0,.15-.1.33-.65.33H60.16a.2.2,0,0,0-.19.2v2.23a.19.19,0,0,0,.19.19h7.76a2.69,2.69,0,0,0,2.33-.81,3.15,3.15,0,0,0,.56-2.09A3.12,3.12,0,0,0,70,14.22Z"/><path class="ee99d41a-1102-405d-90d3-36eaa6bc5a4a" d="M84.88,14.27a.31.31,0,0,0-.31-.31H81.45a.31.31,0,0,0-.31.31v1.86a.77.77,0,0,1-.2.62,1,1,0,0,1-.62.16H79.19a1.78,1.78,0,0,1-1.62-.72,3.3,3.3,0,0,1-.43-1.92,3.29,3.29,0,0,1,.41-1.9,2.27,2.27,0,0,1,2-.87h4.79a.29.29,0,0,0,.28-.28V9.28A.28.28,0,0,0,84.34,9H77.87A5.7,5.7,0,0,0,75,9.72c-1.5,1-1.65,2.94-1.65,4.61,0,1.38.11,3.29,1.39,4.32a5,5,0,0,0,2.91.88h5.48a2.09,2.09,0,0,0,1.24-.36A1.47,1.47,0,0,0,84.88,18Z"/><path class="ee99d41a-1102-405d-90d3-36eaa6bc5a4a" d="M97.63,16.33A2.24,2.24,0,0,0,99.78,15a6.87,6.87,0,0,0,.43-2.59A4.16,4.16,0,0,0,99.62,10a3.22,3.22,0,0,0-2.77-1H88.49a.23.23,0,0,0-.23.24V19.41a.12.12,0,0,0,.12.12h3.5a.12.12,0,0,0,.12-.12V11.87a.25.25,0,0,1,.25-.25h2.9a1.42,1.42,0,0,1,1,.25,1.19,1.19,0,0,1,.28.89,1.41,1.41,0,0,1-.25.87,1.38,1.38,0,0,1-1,.32h-.59c-1,0-1.68.48-1.68,1.19v.22a2.54,2.54,0,0,0,.8,1.43l2.08,2.56a.5.5,0,0,0,.39.18H100a.18.18,0,0,0,.12-.31l-3-2.83v-.06Z"/><path class="ee99d41a-1102-405d-90d3-36eaa6bc5a4a" d="M114.37,10c-1.25-1-3.31-1.08-5.07-1.08s-3.82,0-5.06,1.08-1.31,2.89-1.31,4.31,0,3.23,1.31,4.3,3.34,1.08,5.06,1.08,3.84,0,5.07-1.08,1.3-2.92,1.3-4.3,0-3.26-1.3-4.31Zm-3,6.31h0c-.51.69-1.12.76-2.1.76s-1.6-.07-2.1-.76a3.29,3.29,0,0,1-.43-2,3.08,3.08,0,0,1,.43-2c.5-.69,1.14-.76,2.1-.76s1.59.07,2.1.76a2.84,2.84,0,0,1,.43,2A3,3,0,0,1,111.4,16.27Z"/><path class="ee99d41a-1102-405d-90d3-36eaa6bc5a4a" d="M130,9h-3.47a.13.13,0,0,0-.14.13v5.92a1.72,1.72,0,0,1-.58,1.49,2.58,2.58,0,0,1-1.42.37,2.64,2.64,0,0,1-1.43-.37,1.72,1.72,0,0,1-.57-1.49V9.13a.14.14,0,0,0-.14-.13h-3.47a.14.14,0,0,0-.14.13v6.19a3.92,3.92,0,0,0,1.21,3.14c1.19,1.07,2.88,1.19,4.54,1.19s3.34-.12,4.53-1.19a3.89,3.89,0,0,0,1.21-3.14V9.13A.13.13,0,0,0,130,9Z"/><path class="ee99d41a-1102-405d-90d3-36eaa6bc5a4a" d="M144.3,9.74A3.25,3.25,0,0,0,141.86,9h-6.4a2.08,2.08,0,0,0-1.54.54,2,2,0,0,0-.47,1.44v8.4a.15.15,0,0,0,.15.15h3.45a.14.14,0,0,0,.14-.15V16.49h4.89a3.54,3.54,0,0,0,2-.57c1-.77,1-2.57,1-3.31a3.73,3.73,0,0,0-.86-2.87Zm-3.18,3.86h0a1.72,1.72,0,0,1-1.24.27h-2.56a.12.12,0,0,1-.13-.12V12.23c0-.22.05-.61.65-.61h2.07a1.88,1.88,0,0,1,1.17.24,1,1,0,0,1,.34.83A1.25,1.25,0,0,1,141.12,13.6Z"/></g></g></svg>