<svg xmlns="http://www.w3.org/2000/svg" viewBox="0 0 148.49 48.1"><path d="M129.9 30.03v2.05l-1.27-2.05h-1.05v3.43h.97v-2.04l1.27 2.04h1v-3.43h-.93zm10.58 0h-2.04v3.43h2.04v-.8h-1.08v-.55h1v-.77h-1v-.5h1.08v-.8z" fill="#3f9a46"/><g fill="#379847"><path d="M140.3 48.1l.25-.4.26-.4.25-.4.24-.4.47-.8.46-.8.2-.42.2-.4.4-.82.38-.83.36-.84.32-.86.07-.22.08-.2.16-.43.13-.44.15-.44.13-.44.03-.12.03-.1.07-.2.06-.24.02-.1.04-.1.1-.44.22-.9.1-.47.04-.23.05-.22.08-.46.1-.45h-61.5l-.04.02-.03.03-.08.1-.37.46-.2.23-.1.12-.1.12-.4.46-.44.46-.28.26-.15.12-.07.07-.06.07-.57.5-.58.46-.3.22-.3.2-.3.2-.3.2-.62.36-.64.33-.17.07-.16.08-.32.15.18.55.2.54.2.54.22.54.22.52.48 1.06.27.53.53 1.03.28.5.3.52.3.5.32.5.32.5.34.5h58.5z"/><path d="M55.8 25.7v-1l.06-.76.1-.75.14-.73.16-.73.2-.7.23-.7.28-.66.3-.67.34-.64.37-.64.42-.6.44-.62.48-.58.52-.58 1.05-1.05.55-.47.54-.45.56-.4.57-.4.6-.34.6-.32.63-.3.6-.27.64-.23.65-.2.67-.16.67-.15.7-.12.7-.1.72-.04h.24l.43-.04h.46.6.3l.62.06-.1-.07-.1-.05-.13-.06-.14-.05-.16-.08-.26-.1h-.12l-.12-.06-.1-.03-.06-.03h-.03l-.46-.15-.44-.13-.47-.13-.45-.1-.8-.16-.8-.1-.25-.05L67.7 9h-.15l-.48-.06-.47-.03-.48-.03h-1.67l-.54.03-1.08.1-1.06.15-.53.1-.5.1-.53.12-.52.15-1.02.32-.52.2-.5.2-1 .46-.86.37-.83.4-.82.44-1.6 1-.75.57-.74.6-.72.64-.75.66-.7.7-.66.7-.6.74-.58.74-.52.75-.48.77-.43.8-.3.56-.27.57-.26.58-.44 1.2-.17.62-.16.62-.14.64-.03.08-.01.1-.16.9-.06.45-.05.47-.06.95v1.88l.05.88.1.87.07.43.07.44v.13l.03.12.02.1v.03h.01l.01.06v.08l.02.07v.02.04l.01.05.05.13v.08l.02.1.13.53.15.56.18.53.2.55.2.53.24.53.1.26.13.26.28.53.13.25.15.25.64 1 .35.5.35.48.4.48.4.47.4.48.9.9.47.44.24.23.26.23.74.62.75.6.77.56.8.53.8.5.82.46.85.42.87.4h25.1l-.34-.5-.64-1-.3-.5-.3-.52-.28-.5-.53-1.03-.27-.53-.48-1.06-.22-.52-.22-.54-.4-1.08-.18-.55-.73.27-.37.12-.36.13-.4.1-.37.1-.4.1-.38.1h-.1l-.1.02-1 .15-.4.04-.82.06-.42.01h-.4-1.13l-.72-.07-.7-.1-.7-.12-.66-.15-.67-.18-.65-.2-.63-.23-.62-.26-.62-.3-.6-.32-.6-.36-.57-.38-.56-.42-.55-.43-.55-.47-1.07-1.07-.77-.9-.46-.6-.44-.62-.2-.3-.38-.64-.17-.33-.16-.32-.16-.34-.14-.33-.16-.34-.12-.34-.12-.35-.1-.35-.2-.72-.16-.72-.12-.74-.05-.38-.04-.37-.03-.4-.04-.78v-.38zm8.07-19.07l-.67-.14-.68-.1-.7-.1-.7-.08-.9-.07-.9-.05-.9-.02-.9-.01-.6-.02h-.3l-.3.02-.98.07-.97.1-.96.12-.94.15-.94.17-.92.2-.9.2-.9.25v4.6l.8-.52.82-.46.85-.45.87-.4.87-.38.9-.33.9-.32.93-.26.93-.25.96-.2.97-.18 1-.14 1-.12 1.02-.07 1.04-.05h2.55l.75.03.76.06.47.04.48.06.47.07.48.1-.38-.2-.34-.15-.33-.13-.16-.06-.14-.05-.3-.12-.65-.23-.37-.1-.22-.07-.22-.05-.24-.07-.26-.06-.28-.07-.28-.06-.3-.07-.3-.05z"/><path d="M48.83 11.92v-4.6l-.75.2-.74.23-.73.24-.7.27-.72.28-1.4.6-.68.35-.68.34-.67.37-.65.38-.64.4-1.27.84-.62.45-.6.47-.8.6-.74.63-.7.65-.66.67-.56.56-.53.6-.5.58-.47.6-.45.6-.42.62-.4.62-.36.64-.34.63-.6 1.3-.26.68-.23.67-.2.7-.18.7-.14.7-.03.08v.1l-.17 1.06-.06.53-.05.54-.05.7-.02.7-.01.6.06 1.18.06.58.06.57.1.58.1.56.14.57.13.55.16.55.17.54.2.55.2.53.23.53.24.52.27.53.28.5.6 1 .33.5.35.48.36.5.38.47.4.48.4.46.44.46.45.46.47.46.47.43.5.45.52.43.54.44.4.32.43.32.42.3.46.3.45.3.94.6.5.3h7.57v-1.43l-.8-.54-.8-.56-.78-.6-.75-.62-.46-.4-.86-.8-.4-.4-.4-.43-.36-.4-.37-.43-.33-.43-.35-.44-.3-.43-.3-.45-.28-.45-.28-.46-.26-.45-.25-.47-.22-.46-.22-.5-.2-.48-.2-.5-.17-.48-.17-.5-.14-.5-.13-.5-.1-.5-.1-.52-.08-.52-.08-.53-.06-.52-.05-.54-.03-.54v-1.1l.02-.9.07-.88.1-.88.16-.85v-.1l.03-.08.16-.82.22-.8.24-.8.3-.76.32-.77.35-.75.4-.73.42-.7.44-.72.5-.7.53-.7.57-.67.6-.66.64-.65.67-.64 1.4-1.2.7-.55.72-.5.75-.47zm.43-7.64h-.9l-.88.01-1.73.08-.86.05-.85.07-.84.08-.82.1-.84.1-.82.13-1.6.28-.8.15-1.56.36-.77.2v4.43l.97-.6.5-.3.5-.26 1-.53L40 8.2l1.03-.47 1.08-.4 1.07-.4 1.1-.35 1.1-.33 1.15-.28 1.14-.25 2.36-.4 1.22-.14 1.22-.12L53.72 5l1.32-.07h1.34l.26-.02h.52l.27.02-.9-.15-.9-.12-.92-.1-.9-.06-1.14-.1-1.13-.05-.58-.03h-.57-1.14zm-15.74 7.76l.6-.47.6-.43.62-.42.64-.4V5.9l-1.27.34-1.23.4-1.22.42-1.18.46-.73.35-1.42.74-.68.4-.7.4-.66.43-.67.43-.65.46-.42.3-1.2.9-.93.74-.88.76-.84.77-.77.8-.73.8-.7.82-.64.83-.58.85-.55.84-.5.88-.45.88-.4.9-.37.9-.3.93-.26.93-.2.97-.03.08-.01.1-.16.85-.1.88-.06.88-.02.9v.57l.04 1.14.06.56.05.55.08.56.2 1.1.12.54.14.54.15.52.2.53.18.52.2.52.22.5.24.53.24.5.26.5.28.5.3.5.3.48.33.5.35.48.36.48.36.46.4.47.4.45.44.46.43.44.46.46.47.44.48.44.7.57.72.58.74.57.8.56.27.22.27.17h9.74v-.04l-.02-.04-.02-.03-.04-.04-.64-.4-.57-.4-.54-.38-.48-.37-.58-.46-.56-.45-.54-.46-.52-.47-.5-.47-.47-.47-.47-.5-.44-.48-.43-.5-.8-1-.37-.5-.36-.53-.33-.5-.3-.53-.6-1.08-.25-.54-.24-.56-.22-.55-.2-.56-.2-.57-.16-.58-.14-.57-.14-.6-.25-1.5-.02-.3-.06-.6-.03-.62-.03-.6.01-.63.02-.9.05-.88.1-.88.14-.85.03-.1.02-.08.2-.97.26-.94.3-.93.36-.9.4-.9.47-.88.5-.87.56-.84.6-.84.65-.82.7-.8.75-.78.8-.78.85-.75.88-.75.95-.7zM42.4.06v2.32l.82-.1.83-.08 1.7-.12.85-.04.87-.03h2.78l1 .02 1 .04 1.97.12 1.92.2.96.12.93.13.94.15.92.16.92.18 1.8.4.88.22.88.26.86.25.86.27 1.68.6.83.3.82.34.8.34.8.38.78.38.78.4.78.42.77.44.74.43.75.47.74.47.73.5h-.03l.42.3.43.33.45.34.48.38.48.4.5.43.5.44.55.48 1.2 1.16.68.72.33.37.32.4.32.38.3.4.6.82h.05l.04-.01h.07l.01-.05v-.03l.01-.04-.01-.1-.03-.07-.45-.67-.45-.64-.5-.63-.25-.3-.24-.3-.78-.9-.26-.28-.27-.28-.27-.27-.56-.52-.54-.48-.55-.47-.58-.47-.6-.46-.62-.46-.63-.46-.65-.46-.67-.45L75.1 8l-.82-.5-.84-.5-.84-.47-.86-.47-.86-.43L70 5.2l-.88-.4-.9-.4-.9-.37-.92-.36-.93-.33-.94-.33-.95-.3-.96-.3-.97-.27-.98-.27-1-.24-1-.22-1-.2-1.03-.2L55.6.86l-1-.2-1.06-.14L52.47.4 51.4.3 50.3.2 48.1.08 47 .04 45.86.02l-1.13.01-.6-.03-1.16.02-.57.04z"/><path d="M42.4 2.38V.06L41.35.1 40.3.14 39.28.2l-1 .1-1.03.1-1 .12-1 .1-1.97.3-.96.17-.96.18-.94.2-.95.2-.94.23-.92.24-1.82.52-.9.3-.88.3-.87.33-.88.32-.85.35-.86.35-.83.4-.84.38-.83.4-.82.42-.8.44-.8.45-1.56.94-.76.5-1.03.68-1 .7-.94.7-.9.73-.87.72-.8.74-.78.75-.73.78-.76.82-.7.84-.65.85-.6.88-.57.87-.5.9-.46.9-.4.93-.38.93-.32.94-.27.96-.2 1-.2.97-.12 1-.08 1.02-.03 1.03-.01.68.03.67.04.67.03.32.04.34.08.65.1.65.13.65.15.65.17.63.2.63.2.62.24.62.25.6.27.62.3.6.33.6.32.58.36.58.38.58.4.58.42.56.44.56.47.56.5.56.5.53.52.54.54.54.58.53.6.5.6.53.63.5.66.5h9.66l-.03-.1-.04-.05-.56-.4-.52-.4-.52-.42-.5-.4-.5-.42-.47-.42-.9-.85-.43-.44-.42-.44-.4-.44-.38-.44-.38-.46-.35-.44-.34-.46-.32-.46-.24-.34-.22-.34-.42-.68-.2-.36-.18-.34-.36-.7-.33-.7-.3-.7-.27-.73-.23-.73-.22-.74-.18-.75-.16-.76-.12-.76-.1-.78-.07-.77-.02-.4-.02-.8.01-.4v-.47l.02-.45.05-.9.1-.88.14-.86.1-.57.13-.56.13-.55.17-.55.36-1.1.44-1.06.5-1.05.56-1.02.3-.52.32-.5.33-.5.36-.5.74-.98.4-.48.42-.47.4-.48.46-.46.45-.47.98-.9.5-.44 1.08-.88 1.12-.86 1.77-1.24.6-.38 1.18-.72 1.2-.7.6-.33.62-.3.6-.32.63-.3 1.27-.57 1.3-.53 1.32-.5.66-.24.68-.22 1.35-.42.7-.2.7-.18 1.4-.34.7-.16 1.44-.28.74-.12.72-.13.75-.1 1.5-.17z"/></g><path d="M99.9 30.03h-1.02v3.43h.94v-2.04l1.27 2.04h1v-3.43h-.93v2.05l-1.27-2.05zm-8.6 2.43v-1.4l-.07-.18-.08-.15-.1-.15-.1-.14-.26-.2-.15-.1-.16-.08h-.2L90 30h-1.08l-.17.07-.17.08-.16.1-.14.1-.1.1-.12.14-.1.15-.08.15-.06.18-.06.15v1.06l.06.18.06.14.08.15.1.14.12.15.1.1.14.1.16.1.17.1h.17l.2.05H90l.2-.05h.2l.16-.1.15-.1.13-.1L91 33l.1-.15.1-.14v-.15l.07-.14zm-1.74-1.7h.2l.2.06h.08l.1.07.07.08.07.12.06.1v1.02l-.14.2-.1.06-.2.07-.2.05-.2-.05-.2-.07-.1-.06-.23.1-.1-.1-.08-.1-.06-.13v-.95l.06-.1.08-.12.1-.03.1-.07h.1l.2-.06zm29.47-.73v3.43h.97v-3.43h-.97zm-9.36 0v3.43h2.02v-.8h-1.05v-2.63h-.97z" fill="#3f9a46"/><g fill="#c6c6c6"><path d="M80.57 16.35l-.34-.35-.64-.62-.32-.28-.65-.52-.32-.24-.3-.2-.33-.2-.32-.18-.34-.16-.32-.14-.32-.13-.93-.32h-.32l-.3-.06-.58-.12-.55-.1h-.52l-.5-.06h-1.95l-.65.06-.65.07-.63.1-.63.14-.6.17-.6.2-.58.23-.58.25-.55.28-.56.3-.52.36-.53.37-.5.4-.5.43-.47.47-.48.5-.44.5-.42.52-.37.54-.35.44-.32.56-.3.57-.25.6-.24.58-.2.62-.17.62-.13.64-.12.63-.07.67v3.34l.12.65.13.63.17.62.2.6.24.6.12.28.13.3.3.57.32.55.35.55.37.53.42.53.2.25.23.25.48.5.48.47.5.44.5.4.54.38.53.35.56.33.57.3.6.27.6.22.6.2.62.17.65.14.64.1.67.08h2.7l.32-.05h.33l.32-.06.33-.05.3-.07.32-.07.62-.17.6-.2.6-.22.37-.2.14-.07h.16l.28-.15.3-.14.14-.1.42-.24.57-.4.53-.38.13-.1h.13l.27-.2.25-.22.12-.1.13-.1.25-.24.2-.32.14-.17.45-.48.06-.1.2-.24.06-.08.07-.08.15-.16.25-.35.24-.34.46-.68v-.14l.1-.17.2-.36.17-.36.18-.36.07-.2v-.2l.15-.37.14-.38.12-.38v-.43l.12-.2-.1-.14-.1-.1-.1-.08h-.13l-.16-.05h-.28l-.13.07-.13.08-.1.1-.08.13v.15l-.1.34v.34l-.24.15v.17l-.14.34-.48.96-.18.32-.3.45-.1.16-.2.3-.28.3-.23.28-.25.3-.26.3-.27.28-.44.4-.23.2-.22.2-.47.37-.12.08-.12.1-.23.17-.24.16-.24.15-.5.3-.26.12-.25.14-.5.23-.54.2-.54.18-.55.15-.28.06h-.85l-.6.07h-2.4l-.6-.07-.57-.1-.57-.12-.55-.15-.57.03-.54-.2-.52-.23-.48-.26-1-.6-.48-.34-.44-.37-.44-.4-.43-.4-.42-.44-.2-.23-.18-.22-.58-.74-.16-.23-.16-.25-.15-.24-.3-.5-.26-.5-.22-.52-.2-.53-.1-.28-.08-.26-.15-.55-.12-.55-.1-.58-.04-.58v-3l.1-.57.1-.58.15-.54.17-.55.22-.52.22-.53.26-.5.27-.5.32-.48.34-.48.37-.46.4-.45.43-.44.42-.42.44-.4.45-.36.55-.33.47-.3.5-.28.5-.26.52-.22.5-.2.54-.18.53-.15.56-.13.56-.1.58-.07.57-.05h1.76l.45.07.47.06.5.1.52.1.56.14.27.06.28.1.55.23.55.27.27.15.3.2.55.38.55.45.55.5.57.57.37.4.34.44.3.43.26.45.23.46.2.47.16.47.14.5.1.5.06.5v1.6l-.07.55-.1.55-.14.56-.1.24v.18l-.25.3-.1.23-.2.4v.05l-.15.3-.07.1v.06l-.12.2-.07.1v.06l-.14.18-.15.18-.16.17h-.05 0l-.07.1-.18.14-.54.48-.18.14-.18.15-.4.26-.2.12-.2.13-.44.2-.46.2-.25.1-.24.1-.25.08-.25.1-.43.1-.42.1h-.32l-.08-.06-.06-.06-.06-.1v-.9l.13-.5.1-.28.1-.32.12-.34 2.63-8.5H69.4l-.3.06h-.27l-.26.07-.24.07-.2.1-.2.08-.34.2-.14.12-.16.12-.14.14-.25.3-.23.3-.17.35-.14.36-.05.2v1.8l.08.22v.2l.12.2.13.2.07.08.1.1.17.14.1.06.1.07.23.12.1.05.13.06.26.08h.3l.3.06.33.06-.37.13-.3.15-.27.16-.2.18-.1.08-.13.1-.64.64-.2.22-.2.23-1 1.2-.17.18-.16.2-.16.16-.15.17-.15.15-.13.15-.26.28-.24.23-.2.2-.2.18-.1.07-.07.08-.17.1h-.1l-.08.05h-.2l-.04.38H62l-.15.5h4.83l4.16-5.3L71 26l.08-.1.1-.07.17-.1.16-.1.17-.06h.42l-.5 2-.1.28-.08.27-.07.26v2.08l.06.12v.1l.06.1.2.3.28.28.2.15.1.06.1.08.24.1.13.05h.14l.27.06h1.73l.35-.07.37-.07.7-.17.9-.3.14-.05h.16l.27-.12h.13L78 31l.26-.13.27-.12.5-.3.23-.16h.1l.13-.07.22-.17.1-.1v-.05h.06l.2-.18.22-.18.1-.1v-.06l.2-.2.18-.2.17-.2.16-.23v-.12l.1-.1.15-.23.16-.23v-.13l.07-.12.13-.25v-.13l.07-.13.12-.26.1-.27.3-.84.16-.67.07-.32.06-.32.1-.64v-2l.3-.6-.1-.58-.16-.58-.2-.56-.24-.56-.27-.53-.32-.53-.55-.78-.16-.25-.42-.5zm-8.3 4h1.6l-1.5 4.6h-1.65l-.17-.06-.15-.07-.13-.08-.13-.1-.1-.1-.04-.27-.06-.13-.1-.12v-1.1l.05-.3.2-.56.15-.28.17-.26.2-.26.18-.2.2-.18.2-.16.2-.13.2-.1.22-.07.22-.06zm48.87-.22l-.01.15-.02.2-.1.44-1.86 5.83-.16.4-.07.17-.07.15-.1.12-.07.12-.04.04-.04.05-.07.08-.2.1-.13.04-.12.04-.14.03h-.05-.03l-.07.02h-.35l-.1.26h8.44l1.02-2.5h-.3l-.45.45-.13.1-.1.1-.24.2-.07.04-.04.01-.01.01h-.01l-.13.1-.07.03-.03.02-.02.01v.02l-.12.1-.27.15-.27.13-.28.1-.14.04-.14.05-.15.04-.14.05-.28.07-.3.05-.15.02-.14.02h-.16-.15l-.3.01-.16-.01h-.14-.14-.1l-.2-.04-.08-.04h-.05l-.08-.06-.06-.05-.02-.07-.01-.06v-.12l.03-.13.04-.17.06-.18.94-3.03h1.07l.14.01h.12l.1.02.1.01.08.01.17.07.17.08.15.08.13.12.1.1.04.07.03.08.02.07.03.1v.18.1.13l-.03.15-.03.17h.26l1.1-3.52h-.28l-.06.1-.05.1-.06.08-.06.1-.12.17-.06.07-.06.08-.07.06-.06.08-.07.05-.03.02-.03.04-.14.1-.15.1-.1.03-.08.04-.06.01h-.04l-.1.04-.2.05-.22.06h-.14l-.12.02-.15.01-.13.02-.3.02h-.64l1.1-3.5h1.2.26l.23.01.22.03.2.02.18.04.16.03.25.1.12.06.1.06.1.1.2.16.18.2.08.16.03.1.04.1.01.12.02.14v.15l.02.17h.27l.64-2.26h-7.86l-.1.25h.17l.15.01.13.02.13.03.1.01.1.03.14.08.08.06.06.1.03.1.02.13z"/><path d="M117.96 19.84l.1-.07.1-.06.1-.05.15-.03.13-.04.16-.02h.35l.07-.25h-4.9l-.1.25h.17l.17.01.14.02.13.03.1.01.1.03.08.04.06.04.08.07.07.1.03.1.02.14-.01.06-.01.08-.02.2-.06.2-.03.12-.03.13-.8 2.53h-3.6l.83-2.53.07-.2.07-.18.07-.17.08-.15.07-.13.1-.1.08-.1.1-.06.08-.07.1-.06.1-.05.13-.03.13-.04h.15.32l.1-.25h-4.83l-.07.25h.17.16l.13.02.14.03.1.01.1.03.07.04.06.04.08.07.06.1.03.1v.14.15l-.02.18-.06.2-.07.24-1.83 5.8v.02.02l-.02.06-.04.1-.07.2-.07.17-.07.15-.1.12-.07.12-.02.01-.02.03-.04.05-.07.08-.05.02h-.03l-.02.02-.1.05-.12.04-.12.03-.13.02-.14.03h-.32l-.07.26h4.74l.07-.26h-.43l-.1-.01-.1-.03-.08-.02-.08-.03-.05-.03-.06-.05-.05-.04-.07-.1-.04-.1-.01-.1.01-.16.01-.1.02-.1.02-.12.04-.1.08-.25.85-2.7h3.6l-.85 2.7-.14.4-.07.17-.07.15-.1.12-.07.12-.03.01-.01.03-.04.05-.07.08-.06.02h-.02l-.02.02-.1.05-.1.04-.12.03-.14.02-.14.03h-.32l-.1.26h4.8l.08-.26h-.3l-.15-.02-.1-.01-.12-.04-.1-.02-.08-.04-.07-.03-.1-.08-.07-.1-.02-.06-.01-.04-.01-.12v-.07l.02-.16.04-.2.04-.1.03-.13.06-.12 1.83-5.8.13-.38.15-.3.08-.14.1-.1.18-.17zm13.24.3v.75l-.06.18-.06.22-1.74 5.55-.06.15v.15l-.1.26v.33l-.1.08-.1.1-.1.07h-.94l-.08.26h6.05l.37-.05h.86l.2-.1h.1l.3-.15.18-.12.32-.26.14-.15.14-.16.12-.18.1-.16.17-.34.05-.18v-.83l-.05-.17-.05-.16-.08-.16-.2-.3-.12-.14-.15-.14-.17-.13-.2-.13-.48-.23-.28-.1-.3-.1-.33-.08.6-.14.28-.07.27-.07.22-.1.22-.07h.2l.17-.07.07-.06.15-.1h.06l.07-.05.13-.1.37-.37.12-.26.1-.25v-1.4l-.13-.26-.08-.1-.1-.1-.1-.13-.24-.2-.14-.08-.15-.08-.16-.06-.17-.06h-5.93l-.08.24h.95l.08.07.07.1v.22zm3.65 2l-.2.28-.1.13-.1.12-.12.1-.26.18-.13.08-.15.06-.16.06h-1.25l1.1-3.52h.8l.13.05h.1l.12.06.1.07.1.08.14.17.12.2v1.04l-.1.3-.06.15-.07.16zM133.5 24l.18.07h.08l.1.06.15.13.06.08.07.1.1.17.08.2v1.1l-.06.23-.1.22-.05.1-.05.12-.28.42-.2.2-.1.08-.1.1-.24.14H133l-.13.06h-1.92l1.26-4h1.3zm11.6-4.9h-.78l-.4.06-.37.1-.4.12-.4.16-.4.18-.38.28-.2.1-.18.12-.37.26-.34.27-.32.3-.3.3-.27.33-.26.35-.23.38-.22.37-.2.38-.16.37-.12.37-.1.37-.07.37v1.12l.08.38.1.38.17.4.1.17.1.18.1.17.14.16.14.14.16.14.17.13.18.12.4.2.22.08.24.07h2.88l.15-.05h.16l.3-.1.3-.13.35-.2.36-.23.33-.26.34-.3.32-.33.32-.34.25-.5.07-.1v-.05l.16-.2.27-.44.23-.42.2-.43.17-.42.13-.43.1-.42.05-.43v-1.2l-.06-.2-.07-.17-.1-.2-.1-.18-.12-.18-.28-.34-.15-.18-.17-.15-.17-.13-.18-.12-.2-.1-.4-.18-.2-.08-.2-.06-.22-.05h-.65zm-1.22.75l.2-.08.24-.05h.94l.12.05h.1l.1.07.1.08.1.1.08.1.08.13.06.13.06.17v1.55l-.07.4v.5l-.1.42-.12.43-.15.45-.16.47V25l-.1.22-.2.43-.2.4-.07.08v.1l-.1.2-.12.17v.05l-.3.4-.13.14-.12.14-.27.27-.15.1-.07.05-.32.16h-.18l-.18.05h-1.22l-.24-.13-.1-.08-.08-.1-.1-.12-.08-.12-.07-.15-.05-.14v-1.5l.05-.28.06-.3.08-.32.08-.33.1-.34.1-.36.1-.33.2-.6.1-.27.1-.25.02-.2.13-.2.2-.4.23-.34.2-.3.24-.24.1-.12.1-.1.2-.16.2-.15.2-.1zm-48.4-.5l-.64-.16-.2-.03-.35-.04-.32-.01-.4.01-.4.04-.4.06-.8.2-.4.14-.4.17-.8.4-.37.24-.35.25-.32.27-.3.28-.28.3-.26.3-.22.34-.2.34-.17.35-.15.34-.12.36-.1.35-.06.37-.04.37-.01.37.01.38.02.2.03.2.08.34.05.17.08.18.06.15.08.16.1.14.1.15.22.28.27.27.28.22.14.1.16.1.15.08.17.1.17.07.18.07.37.1.18.04.2.04.42.05.2.01.23.01.32-.01.15-.02.16-.01.3-.04.14-.03.15-.02.03-.02h.04l.2-.06.27-.08.48-.2.22-.15.23-.16.46-.38.22-.24.23-.25.46-.56h-.34l-.37.37-.18.16-.18.15-.2.13-.36.22-.18.1-.36.14-.2.06-.18.05-.2.04-.2.03h-.22-.48l-.24-.03-.24-.05-.2-.06-.4-.2-.18-.12-.15-.13-.15-.17-.07-.1-.05-.08-.12-.2-.08-.2-.04-.12-.03-.1-.04-.24-.03-.27-.01-.28.01-.32.03-.32.04-.32.06-.32.08-.34.1-.32.12-.33.13-.32.17-.4.18-.37.2-.34.2-.3.22-.3.23-.26.23-.24.25-.2.24-.18.25-.16.25-.14.5-.2.25-.06.25-.04.25-.01.23.01.2.03.2.04.2.06.18.08.17.1.16.12.16.14.14.15.1.17.1.18.04.1.06.12.1.33.03.14.05.25.02.3h.27l.73-2.87h-.26l-.1.08-.1.07-.1.06-.08.06-.2.07-.1.02-.1.01-.03-.01H96l-.07-.02-.08-.01-.08-.03h-.1l-.1-.03-.1-.02z"/><path d="M98.62 19.32l-.1.25h.16l.15.01.13.02.13.03.1.01.1.03.08.04.06.04.08.06.06.1.03.1v.13.15l-.02.2-.1.44-1.87 5.85v.01.01l-.02.06-.04.1-.07.2-.02.03-.02.05-.04.1-.07.15-.1.12-.07.12-.04.04-.04.05-.07.08-.1.05-.1.05-.13.04-.12.04-.14.03h-.05l-.03.01-.07.02h-.14-.03-.18l-.1.26h8.45l1-2.5h-.3l-.45.45-.12.1-.12.1-.24.2-.07.04-.04.01-.01.01h-.01l-.13.1-.07.03-.03.02-.02.01-.01.02-.12.1-.27.15-.27.13-.28.1-.14.04-.14.05-.15.04-.14.05-.28.07-.3.05-.15.02-.14.02h-.16l-.15.02-.3.01-.16-.01h-.14l-.14-.02h-.1l-.1-.02-.1-.02-.08-.04-.05-.02-.08-.06-.05-.05-.02-.07-.01-.06v-.12l.03-.13.03-.17.06-.18.94-3.03h1.08l.14.01h.12l.1.02.16.02.17.07.17.08.15.08.13.12.1.1.04.07.03.08v.07l.03.1.01.18v.1l-.01.13-.03.15-.03.17h.26l1.1-3.52h-.28l-.06.1-.05.1-.06.08-.06.1-.12.17-.06.07-.06.08-.07.06-.06.08-.07.05-.03.02-.03.04-.14.1-.15.1-.08.03-.1.04-.06.01h-.04l-.1.04-.2.05-.22.06h-.14l-.12.02h-.13v.01l-.14.02-.3.02h-.64l1.08-3.5h1.2l.26.01.23.01.22.03.2.02.18.04.16.03.25.1.12.06.1.06.1.1.2.16.18.2.03.06.05.1.03.1.04.1.02.12.02.14.01.15.02.17h.26l.64-2.26h-7.86z"/></g></svg>