<svg xmlns="http://www.w3.org/2000/svg" xmlns:xlink="http://www.w3.org/1999/xlink" viewBox="0 0 156.11 70.73"><defs><style>.bb3dcfe5-cbf5-493c-b898-7bbc45fad13a{fill:none;}.efd66ee9-6723-4927-a3f7-2fedb17ed0b0{fill:#fff;}.ea35eb0b-bb27-46d9-b409-b14c6c5dbd55{fill:url(#b53a6fbb-0838-43c5-b6ea-6af1a6c7f18d);}.e14942d7-9228-4c29-b97c-b629fb8392c1{fill:url(#f1e4b53a-e6bf-4ed5-a0d8-da61829d848a);}.e8d075d0-6e21-4f04-bb8f-b1574aa63890{fill:url(#bbd7ccf2-c522-4da1-b9f3-06c90184df59);}.f01cff45-9381-4524-b94e-1beac8a6770f{fill:url(#a307e4f7-edd1-4c97-9e4f-bfc89b15056b);}.bdf9bfd4-b4d8-48a1-9739-4b5954c936e0{fill:url(#b774db1d-660e-4011-b4f9-876e9077dd94);}.b42457f8-3606-4ba2-83b9-c463ce77cbff{fill:url(#b9606966-98dc-4de1-9eed-2acd22c143ed);}.b7f11282-e9d6-4032-b107-92249ce27322{clip-path:url(#a1816095-42ca-4a94-a723-655c098cc388);}.a85bebd3-6d8a-4c01-936e-319189776972{fill:url(#bc1602be-cecb-4bb0-8b70-e890691a6fad);}.ec0fbbaf-c6fe-4609-9005-89385c451f17{fill:url(#bfaa7860-eab6-40ed-83ca-e2f045bf58b1);}.f9b47660-957e-4ac2-885a-4ec5e2927432{fill:url(#e77c7117-f6a6-4f6f-b545-d124e688fef8);}.aa412ac5-fa6f-4c0c-a870-41cc2f359550{fill:url(#b958dcfa-9cef-4ab5-a72e-13de42743c80);}.e02cf05b-12be-46a3-920e-b09f148e9253{fill:url(#add55a43-7785-4dcb-9201-2736429a098b);}.e4b69771-7b75-45e7-827e-cb245cdb3fe7{fill:url(#af221b35-0ad8-4226-a66e-9952549770b3);}.f802b4f0-a679-466f-8249-89e55da94c54{fill:url(#b3c39b3f-5ee0-477c-97ee-d43c977f2cb3);}.f267cc3d-7f9a-4717-8421-d40e36c787bd{fill:url(#e64e0056-54bb-43b2-915f-ea78f0bc8b5e);}.e4fa23f9-9852-4565-a289-203cdf0c05b3{fill:url(#ac7f6186-4b9c-4a5a-80fe-e8442e1ce9fe);}.b16f5b56-1624-4fbf-83cc-0932ff90064b{fill:url(#b36d2900-c40e-4127-a871-9e0af4ca39fc);}.eecb3d24-3263-4a6d-b53a-ce33913c0fac{fill:url(#a57065f2-aec7-40e7-a392-c2aab1da7774);}.bc0d987b-5a47-498d-b107-eccad9c47b8e{fill:#c6c6c6;}.a27e04db-7b04-42d3-a6c3-feabbcdc52a1{fill:url(#bc1775b4-13df-465e-a0b0-a410532fb540);}</style><linearGradient id="b53a6fbb-0838-43c5-b6ea-6af1a6c7f18d" x1="22.02" y1="539.82" x2="26.85" y2="539.82" gradientTransform="matrix(1, 0, 0, -1, 0, 579.37)" gradientUnits="userSpaceOnUse"><stop offset="0" stop-color="#191e2b"/><stop offset="1" stop-color="#6dab5e"/></linearGradient><linearGradient id="f1e4b53a-e6bf-4ed5-a0d8-da61829d848a" x1="23.37" y1="543.03" x2="29.66" y2="543.03" xlink:href="#b53a6fbb-0838-43c5-b6ea-6af1a6c7f18d"/><linearGradient id="bbd7ccf2-c522-4da1-b9f3-06c90184df59" x1="24.76" y1="544.08" x2="32.92" y2="544.08" xlink:href="#b53a6fbb-0838-43c5-b6ea-6af1a6c7f18d"/><linearGradient id="a307e4f7-edd1-4c97-9e4f-bfc89b15056b" x1="26.68" y1="545.34" x2="35.86" y2="545.34" xlink:href="#b53a6fbb-0838-43c5-b6ea-6af1a6c7f18d"/><linearGradient id="b774db1d-660e-4011-b4f9-876e9077dd94" x1="28.66" y1="546.6" x2="37.47" y2="546.6" xlink:href="#b53a6fbb-0838-43c5-b6ea-6af1a6c7f18d"/><linearGradient id="b9606966-98dc-4de1-9eed-2acd22c143ed" x1="30.83" y1="547.98" x2="38.17" y2="547.98" xlink:href="#b53a6fbb-0838-43c5-b6ea-6af1a6c7f18d"/><clipPath id="a1816095-42ca-4a94-a723-655c098cc388"><circle class="bb3dcfe5-cbf5-493c-b898-7bbc45fad13a" cx="43.64" cy="29.56" r="25.9"/></clipPath><linearGradient id="bc1602be-cecb-4bb0-8b70-e890691a6fad" x1="20.86" y1="544.06" x2="51" y2="544.06" xlink:href="#b53a6fbb-0838-43c5-b6ea-6af1a6c7f18d"/><linearGradient id="bfaa7860-eab6-40ed-83ca-e2f045bf58b1" x1="18.33" y1="544.23" x2="52.86" y2="544.23" xlink:href="#b53a6fbb-0838-43c5-b6ea-6af1a6c7f18d"/><linearGradient id="e77c7117-f6a6-4f6f-b545-d124e688fef8" x1="16.08" y1="544.08" x2="54.81" y2="544.08" xlink:href="#b53a6fbb-0838-43c5-b6ea-6af1a6c7f18d"/><linearGradient id="b958dcfa-9cef-4ab5-a72e-13de42743c80" x1="13.83" y1="544.05" x2="57.06" y2="544.05" xlink:href="#b53a6fbb-0838-43c5-b6ea-6af1a6c7f18d"/><linearGradient id="add55a43-7785-4dcb-9201-2736429a098b" x1="11.6" y1="544.06" x2="59.29" y2="544.06" xlink:href="#b53a6fbb-0838-43c5-b6ea-6af1a6c7f18d"/><linearGradient id="af221b35-0ad8-4226-a66e-9952549770b3" x1="9.48" y1="544.05" x2="61.41" y2="544.05" xlink:href="#b53a6fbb-0838-43c5-b6ea-6af1a6c7f18d"/><linearGradient id="b3c39b3f-5ee0-477c-97ee-d43c977f2cb3" x1="7.21" y1="544.22" x2="63.98" y2="544.22" xlink:href="#b53a6fbb-0838-43c5-b6ea-6af1a6c7f18d"/><linearGradient id="e64e0056-54bb-43b2-915f-ea78f0bc8b5e" x1="4.87" y1="544.23" x2="66.32" y2="544.23" xlink:href="#b53a6fbb-0838-43c5-b6ea-6af1a6c7f18d"/><linearGradient id="ac7f6186-4b9c-4a5a-80fe-e8442e1ce9fe" x1="2.57" y1="544.23" x2="68.61" y2="544.23" xlink:href="#b53a6fbb-0838-43c5-b6ea-6af1a6c7f18d"/><linearGradient id="b36d2900-c40e-4127-a871-9e0af4ca39fc" x1="0" y1="544" x2="70.73" y2="544" xlink:href="#b53a6fbb-0838-43c5-b6ea-6af1a6c7f18d"/><linearGradient id="a57065f2-aec7-40e7-a392-c2aab1da7774" x1="38.67" y1="546.04" x2="43.66" y2="546.04" xlink:href="#b53a6fbb-0838-43c5-b6ea-6af1a6c7f18d"/><linearGradient id="bc1775b4-13df-465e-a0b0-a410532fb540" x1="97.08" y1="543.96" x2="140.73" y2="543.96" gradientTransform="matrix(1, 0, 0, -1, 0, 579.37)" gradientUnits="userSpaceOnUse"><stop offset="0" stop-color="#fff"/><stop offset="1" stop-color="#6dab5e"/></linearGradient></defs><title>47</title><g id="bc82c6f7-a36f-4d78-9b5a-dc810ef936b1" data-name="Слой 2"><g id="b164604a-7daf-4b07-807f-b60cc45d19e6" data-name="Слой 1"><path class="efd66ee9-6723-4927-a3f7-2fedb17ed0b0" d="M48.36,31.27c-.35-3.4-1.62-6.21-5.11-7.21-1.9-.54-4-.56-5.75-1.51a5.11,5.11,0,0,1-1.3-1,7.66,7.66,0,0,0-1-1.1,1.15,1.15,0,0,0-1.13-.2v0c1,0,1.6,1.49,2.25,2.05a6.17,6.17,0,0,0,1.47.93A19.27,19.27,0,0,0,42,24.34c1.8.39,3.53,1,4.54,2.66a10.49,10.49,0,0,1,1.26,4.79,5.71,5.71,0,0,1-2.23,5.06,22,22,0,0,0-3.37,3,4.55,4.55,0,0,0-1,3.7A11.3,11.3,0,0,0,42,45.22a1.8,1.8,0,0,1-.65,2.36,7.36,7.36,0,0,1-1,.74h0c1.15-.33,2.58-.89,2.53-2.3A5.57,5.57,0,0,0,42,44a3.87,3.87,0,0,1,.91-4.05c1.3-1.51,3.16-2.42,4.39-4A6.11,6.11,0,0,0,48.36,31.27Z"/><path class="ea35eb0b-bb27-46d9-b409-b14c6c5dbd55" d="M26.85,43.86a16.9,16.9,0,0,1-1.66-2,18,18,0,0,1-1.84-3.36c-.5-1.19-.74-2.46-1.24-3.65,0,0-.08,0-.08,0a9.34,9.34,0,0,0,.8,3.65,17.81,17.81,0,0,0,3.68,5.8A1.27,1.27,0,0,1,26.85,43.86Z"/><path class="e14942d7-9228-4c29-b97c-b629fb8392c1" d="M28.89,43.12c.26,0,.52,0,.78,0a21,21,0,0,1-1.91-2.18,20.44,20.44,0,0,1-2.88-5.37,53.22,53.22,0,0,1-1.34-6s-.08,0-.08,0a13.64,13.64,0,0,0,.93,6.12,20.2,20.2,0,0,0,2.87,5.48A18.41,18.41,0,0,0,28.89,43.12Z"/><path class="e8d075d0-6e21-4f04-bb8f-b1574aa63890" d="M32.18,43l.75-.09a22.27,22.27,0,0,1-7.61-15.19c0-.37-.59-.24-.54.11A22.66,22.66,0,0,0,32.18,43Z"/><path class="f01cff45-9381-4524-b94e-1beac8a6770f" d="M35.27,42.39c.19-.09.39-.15.58-.26a22.51,22.51,0,0,1-8.61-16.19c0-.34-.58-.39-.56,0A23,23,0,0,0,35.27,42.39Z"/><path class="bdf9bfd4-b4d8-48a1-9739-4b5954c936e0" d="M37.46,40.48a21.68,21.68,0,0,1-8.25-15.62c0-.34-.58-.39-.56,0A22.17,22.17,0,0,0,37.2,41,2.45,2.45,0,0,0,37.46,40.48Z"/><path class="b42457f8-3606-4ba2-83b9-c463ce77cbff" d="M38.08,39.08a4.52,4.52,0,0,1,0-.52.24.24,0,0,1,.07-.17A21.57,21.57,0,0,1,31.4,24c0-.34-.59-.38-.57,0A22.22,22.22,0,0,0,38.08,39.08Z"/><g class="b7f11282-e9d6-4032-b107-92249ce27322"><path class="a85bebd3-6d8a-4c01-936e-319189776972" d="M35.59,19.91A15.41,15.41,0,0,0,20.86,30.79l.78-1.15a2.29,2.29,0,0,0,.17-.28,22.36,22.36,0,0,1,1.36-2A14.76,14.76,0,1,1,35.59,50.05h-.43a22.47,22.47,0,0,1-3,.28,15.86,15.86,0,0,0,3.39.37,15.4,15.4,0,1,0,0-30.79Z"/></g><g class="b7f11282-e9d6-4032-b107-92249ce27322"><path class="ec0fbbaf-c6fe-4609-9005-89385c451f17" d="M35.59,52.41A17.27,17.27,0,1,1,52.86,35.14,17.28,17.28,0,0,1,35.59,52.41Zm0-33.87A16.62,16.62,0,1,0,52.21,35.16,16.64,16.64,0,0,0,35.59,18.54Z"/></g><g class="b7f11282-e9d6-4032-b107-92249ce27322"><path class="f9b47660-957e-4ac2-885a-4ec5e2927432" d="M35.44,54.66A19.37,19.37,0,1,1,54.81,35.29,19.39,19.39,0,0,1,35.44,54.66Zm0-38.06A18.72,18.72,0,1,0,54.16,35.31,18.73,18.73,0,0,0,35.44,16.6Z"/></g><g class="b7f11282-e9d6-4032-b107-92249ce27322"><path class="aa412ac5-fa6f-4c0c-a870-41cc2f359550" d="M35.44,56.93A21.62,21.62,0,1,1,57.06,35.31,21.63,21.63,0,0,1,35.44,56.93Zm0-42.61a21,21,0,1,0,21,21A21,21,0,0,0,35.44,14.32Z"/></g><g class="b7f11282-e9d6-4032-b107-92249ce27322"><path class="e02cf05b-12be-46a3-920e-b09f148e9253" d="M35.44,59.14A23.84,23.84,0,1,1,59.29,35.31,23.88,23.88,0,0,1,35.44,59.14Zm0-47a23.2,23.2,0,1,0,23.2,23.19A23.22,23.22,0,0,0,35.44,12.12Z"/></g><g class="b7f11282-e9d6-4032-b107-92249ce27322"><path class="e4b69771-7b75-45e7-827e-cb245cdb3fe7" d="M35.44,61.28a26,26,0,1,1,26-26A26,26,0,0,1,35.44,61.28Zm0-51.3A25.32,25.32,0,1,0,60.76,35.29,25.35,25.35,0,0,0,35.44,10Z"/></g><g class="b7f11282-e9d6-4032-b107-92249ce27322"><path class="f802b4f0-a679-466f-8249-89e55da94c54" d="M35.59,63.55A28.4,28.4,0,1,1,64,35.14,28.41,28.41,0,0,1,35.59,63.55Zm0-56.15A27.74,27.74,0,1,0,63.33,35.14,27.77,27.77,0,0,0,35.59,7.4Z"/></g><g class="b7f11282-e9d6-4032-b107-92249ce27322"><path class="f267cc3d-7f9a-4717-8421-d40e36c787bd" d="M35.59,65.87A30.73,30.73,0,1,1,66.32,35.14,30.76,30.76,0,0,1,35.59,65.87Zm0-60.81A30.08,30.08,0,1,0,65.67,35.14,30.11,30.11,0,0,0,35.59,5.06Z"/></g><g class="b7f11282-e9d6-4032-b107-92249ce27322"><path class="e4fa23f9-9852-4565-a289-203cdf0c05b3" d="M35.59,68.16a33,33,0,1,1,33-33A33.07,33.07,0,0,1,35.59,68.16Zm0-65.37A32.36,32.36,0,1,0,68,35.14,32.38,32.38,0,0,0,35.59,2.79Z"/></g><g class="b7f11282-e9d6-4032-b107-92249ce27322"><path class="b16f5b56-1624-4fbf-83cc-0932ff90064b" d="M35.38,70.73a35.38,35.38,0,0,1-25-60.39,35.37,35.37,0,0,1,50,50A35,35,0,0,1,35.38,70.73Zm0-70.08A34.71,34.71,0,1,0,70.09,35.36,34.75,34.75,0,0,0,35.38.65Z"/></g><path class="efd66ee9-6723-4927-a3f7-2fedb17ed0b0" d="M23.82,51.93a1.28,1.28,0,0,1-.06-.67,20.87,20.87,0,0,1,.39-2.92,18.09,18.09,0,0,1,.8-2.88,3.67,3.67,0,0,1,1.47-2,4.2,4.2,0,0,1,1.73-.56c.87-.11,1.75-.13,2.64-.22s2.06-.11,3.05-.3a4.65,4.65,0,0,0,3.79-2.9,9.41,9.41,0,0,0,.65-2.71c0-.21.11-.38.15-.6a3,3,0,0,1,0,1.19,8.61,8.61,0,0,1-.39,2.12,4.76,4.76,0,0,1-3.35,3.4,16.81,16.81,0,0,1-3.25.52c-.69.06-1.4.08-2.1.15a10.45,10.45,0,0,0-1.9.26,2.76,2.76,0,0,0-1.8,1.53,20.18,20.18,0,0,0-.82,2.17A30.51,30.51,0,0,0,24,51C23.89,51.26,23.87,51.58,23.82,51.93Z"/><path class="efd66ee9-6723-4927-a3f7-2fedb17ed0b0" d="M41.78,31.16l-.11,0c0-.05,0-.11,0-.16a1.44,1.44,0,0,1,.65-.3.16.16,0,0,1,.17.11.14.14,0,0,1-.11.19A5.18,5.18,0,0,1,41.78,31.16Z"/><path class="efd66ee9-6723-4927-a3f7-2fedb17ed0b0" d="M40.53,31.14c-.18-.05-.35-.09-.52-.15a.2.2,0,0,1-.13-.2.13.13,0,0,1,.17-.09,1.91,1.91,0,0,1,.54.18c.07,0,.13.08.11.17S40.61,31.16,40.53,31.14Z"/><path class="efd66ee9-6723-4927-a3f7-2fedb17ed0b0" d="M45.83,34.12c-.46.37-.93.72-1.41,1A11.32,11.32,0,0,1,42,36.55a1.7,1.7,0,0,1-1.71-.13A10.86,10.86,0,0,1,38,34.14,18.06,18.06,0,0,1,36,31.05,16.56,16.56,0,0,1,34.71,28c-.2-.69-.37-1.39-.52-2.08-.07-.34-.07-.39.3-.3a4.48,4.48,0,0,0,3-.43,2.84,2.84,0,0,0,.87-.72s-.07,0-.07,0a.39.39,0,0,0-.15,0,5.26,5.26,0,0,1-3.07,0A4.31,4.31,0,0,1,34,24c-.21-.17-.24-1.47-.26-3.22a7.62,7.62,0,0,0-.08.93,14.57,14.57,0,0,0,0,2.47.26.26,0,0,1-.28.32c-.24,0-.5,0-.74,0,0,0-.11,0-.15.05s0,.1.09.13c.34.23.69.47,1,.69a.29.29,0,0,1,.17.24,23.2,23.2,0,0,0,.58,2.7A13,13,0,0,0,35,30.16a11.65,11.65,0,0,0,1.06,2.08,15.71,15.71,0,0,0,3.66,4.26,2.22,2.22,0,0,0,2.6.35A16.31,16.31,0,0,0,45.16,35a5.9,5.9,0,0,0,1-.91A.34.34,0,0,0,45.83,34.12Zm-11.77-9.8a.09.09,0,0,1-.09-.06s0-.09,0-.09a.1.1,0,0,1,.11.09C34.14,24.32,34.1,24.34,34.06,24.32Z"/><path class="eecb3d24-3263-4a6d-b53a-ce33913c0fac" d="M43.51,32.76A2.6,2.6,0,0,1,42,32.28a.46.46,0,0,0-.48,0c-.17.11-.39.2-.54.07-.3-.24-.54-.11-.78,0l-.32.2a3.71,3.71,0,0,1-1.19.28l.67.73c1.3,1.43,3.24.93,4.28-.65C43.69,32.82,43.69,32.74,43.51,32.76Zm-3,1.13c-.11,0-.26,0-.28-.2s.13-.17.24-.15a.24.24,0,0,1,.26.19C40.7,33.86,40.57,33.89,40.46,33.89Z"/><path class="bc0d987b-5a47-498d-b107-eccad9c47b8e" d="M92.08,27.73,85,23.41,83,27.73H81.72l0,0,5.63-12.58h1.23l5.74,12.6Zm.32-1.25L88,16.7c-.83,1.86-1.67,3.71-2.5,5.58Z"/><path class="bc0d987b-5a47-498d-b107-eccad9c47b8e" d="M106.55,15.13h1.24v12.6h-1.24Z"/><path class="bc0d987b-5a47-498d-b107-eccad9c47b8e" d="M132.13,15.13l-5,12.6h-1.2l-5.13-12.6h1.37l4.36,10.71,4.25-10.71Z"/><path class="bc0d987b-5a47-498d-b107-eccad9c47b8e" d="M153.89,27.73l-7.13-4.32-1.93,4.32h-1.29l0,0,5.63-12.58h1.24l5.73,12.6Zm.33-1.25-4.46-9.78c-.83,1.86-1.67,3.71-2.5,5.58Z"/><rect class="a27e04db-7b04-42d3-a6c3-feabbcdc52a1" x="97.08" y="35" width="43.65" height="0.81"/><path class="bc0d987b-5a47-498d-b107-eccad9c47b8e" d="M93.54,43.76a6.32,6.32,0,0,1-.32.88,4.3,4.3,0,0,1-1,.16,1.89,1.89,0,0,1-2.06-1.91,2,2,0,0,1,2.21-2,4.63,4.63,0,0,1,1,.15c0,.33.09.56.12.87l-.17,0a1,1,0,0,0-1.12-.85,1.53,1.53,0,0,0-1.48,1.68,1.61,1.61,0,0,0,1.5,1.81c.59,0,.9-.32,1.18-.9Z"/><path class="bc0d987b-5a47-498d-b107-eccad9c47b8e" d="M98.14,42.92a1.45,1.45,0,0,0-.12-.41.39.39,0,0,0-.36-.14h-.25v1.78c0,.33,0,.37.42.41v.16H96.54v-.16c.39,0,.42-.08.42-.41V42.37h-.28c-.17,0-.28,0-.34.16a2.88,2.88,0,0,0-.14.4l-.15,0a6.36,6.36,0,0,0,0-.72h2.2v.72Z"/><path class="bc0d987b-5a47-498d-b107-eccad9c47b8e" d="M103.65,42.35c-.28,0-.34.11-.48.44s-.32.79-.65,1.64a9,9,0,0,1-.63,1.43c-.15.24-.28.33-.36.33a.32.32,0,0,1-.31-.3.12.12,0,0,1,.11-.14,1,1,0,0,0,.66-.56,1.54,1.54,0,0,0,.16-.38.3.3,0,0,0,0-.19c-.25-.7-.53-1.4-.73-1.91a.46.46,0,0,0-.47-.36v-.14h1.2v.14l-.19,0c-.13,0-.13.09-.07.25l.57,1.49c.15-.36.45-1.21.53-1.5s0-.21-.14-.25l-.19,0v-.14h1v.14Z"/><path class="bc0d987b-5a47-498d-b107-eccad9c47b8e" d="M108.4,42.35c-.38,0-.41.07-.41.37v1.5c0,.26,0,.28.2.28h.22l-.11,1.07h-.17l-.07-.5c0-.3-.08-.37-.28-.37H106.5c-.19,0-.25.09-.32.42l-.11.44h-.17V44.49h.21c.07,0,.1,0,.14-.1a3.14,3.14,0,0,0,.2-.6,6.55,6.55,0,0,0,.12-1.18c0-.18,0-.22-.28-.25l-.16,0v-.14h2.28v.16Zm-.86.28c0-.23,0-.24-.22-.24H107c-.16,0-.19,0-.19.24a6.84,6.84,0,0,1-.25,1.78c0,.07,0,.09.07.09h.62c.28,0,.29,0,.29-.29V42.63Z"/><path class="bc0d987b-5a47-498d-b107-eccad9c47b8e" d="M113.81,42.33c-.37,0-.4.07-.4.35v1.49c0,.32,0,.35.4.39v.16h-1.17v-.16c.31,0,.34-.07.34-.38v-.81c0-.15,0-.36,0-.8h0l-1,1.92a.54.54,0,0,0-.06.18v0H111v-.16c.35,0,.38-.08.38-.43V42.74c0-.34,0-.38-.38-.41v-.14h1.2v.14c-.36,0-.37.07-.37.41v.66c0,.19,0,.47,0,.92h0l1.06-2a.24.24,0,0,0,0-.12v0h.9v.12Z"/><path class="bc0d987b-5a47-498d-b107-eccad9c47b8e" d="M117.73,44.7v-.15c.32,0,.35-.07.35-.44v-.52h-.19a.43.43,0,0,0-.42.19,3.75,3.75,0,0,0-.28.54c-.13.28-.29.38-.48.38h-.42v-.15c.12,0,.25,0,.32-.13a1.59,1.59,0,0,0,.22-.41.86.86,0,0,1,.58-.49h0c-.45-.08-.69-.31-.69-.66s.4-.67,1-.67h1.22v.14c-.34,0-.37,0-.37.42v1.37c0,.37,0,.41.38.42v.16h-1.18Zm.35-2.14c0-.14-.07-.19-.29-.19-.37,0-.59.19-.59.54a.44.44,0,0,0,.21.4.83.83,0,0,0,.5.12h.17Z"/><path class="bc0d987b-5a47-498d-b107-eccad9c47b8e" d="M126.74,43.34c.42.06.73.24.73.62,0,.59-.67.74-1.27.74h-1.14v-.15c.38,0,.41-.07.41-.44V42.74c0-.35,0-.39-.38-.42v-.13h1.36c.5,0,.85.16.85.56s-.33.52-.56.59Zm-.53-.07c.35,0,.6-.12.6-.45s-.23-.45-.57-.45-.32,0-.32.17v.72h.29Zm-.29.86c0,.35.11.39.38.39s.65-.18.65-.55-.29-.53-.71-.53h-.32v.69Z"/><path class="bc0d987b-5a47-498d-b107-eccad9c47b8e" d="M132.72,43.41a1.29,1.29,0,0,1-1.25,1.38,1.25,1.25,0,0,1-1.26-1.28,1.3,1.3,0,0,1,1.26-1.37A1.23,1.23,0,0,1,132.72,43.41Zm-2-.08c0,.73.32,1.26.78,1.26s.65-.27.65-1.05-.27-1.22-.77-1.22C131.06,42.32,130.74,42.67,130.74,43.33Z"/><path class="bc0d987b-5a47-498d-b107-eccad9c47b8e" d="M137.75,42.35c-.38,0-.4.08-.4.4v1.38c0,.35,0,.4.4.43v.16h-1.24v-.16c.37,0,.38-.07.38-.43V42.64c0-.21,0-.25-.19-.25h-.31c-.18,0-.21,0-.21.24a3.69,3.69,0,0,1-.49,2c-.1.13-.19.19-.26.19a.73.73,0,0,1-.25,0v-.1a1.73,1.73,0,0,0,.49-.7,3,3,0,0,0,.25-1.24c0-.24,0-.31-.43-.35v-.14h2.26Z"/><path class="bc0d987b-5a47-498d-b107-eccad9c47b8e" d="M142.85,43.41a1.28,1.28,0,0,1-1.25,1.38,1.26,1.26,0,0,1-1.26-1.28,1.3,1.3,0,0,1,1.26-1.37A1.24,1.24,0,0,1,142.85,43.41Zm-2-.08c0,.73.32,1.26.79,1.26s.64-.27.64-1.05-.26-1.22-.77-1.22C141.18,42.32,140.87,42.67,140.87,43.33Z"/><path class="bc0d987b-5a47-498d-b107-eccad9c47b8e" d="M147.7,44.2a1.36,1.36,0,0,1-1,.59,1.15,1.15,0,0,1-1.15-1.21,1.36,1.36,0,0,1,.57-1.12,1.53,1.53,0,0,1,.87-.32.81.81,0,0,1,.51.15.22.22,0,0,1,.09.18.27.27,0,0,1-.19.25s-.06,0-.11-.07a.89.89,0,0,0-.58-.23c-.38,0-.71.32-.71.92a1,1,0,0,0,.87,1.07.91.91,0,0,0,.7-.33Z"/></g></g></svg>