<svg xmlns="http://www.w3.org/2000/svg" xmlns:xlink="http://www.w3.org/1999/xlink" viewBox="0 0 135.88 41.52"><defs><style>.f22af3fb-ecd5-4933-aca2-8327edfcbc71{fill:url(#b8c7c7c1-1763-46f5-8f84-47dc752aab2d);}.e1686864-67f5-41cb-ae13-311cdd6cdc0e{fill:url(#b9e800e7-babc-4b77-94d1-854205072744);}.ba361f13-38df-44e6-8090-06e534dd04f1{fill:#c6c6c6;}.e92e04bc-007d-4a0a-bf4f-5d667b8b19c9{fill:none;stroke:#d3534d;stroke-miterlimit:10;}.af129db9-fc23-45b8-870e-8287dbe25254{fill:#d6d6d6;}</style><linearGradient id="b8c7c7c1-1763-46f5-8f84-47dc752aab2d" x1="12.18" y1="559.27" x2="26.9" y2="526.44" gradientTransform="matrix(1, 0, 0, -1, 0, 561.78)" gradientUnits="userSpaceOnUse"><stop offset="0" stop-color="#db7776"/><stop offset="1" stop-color="#d3534d"/></linearGradient><linearGradient id="b9e800e7-babc-4b77-94d1-854205072744" x1="3.18" y1="555.24" x2="17.9" y2="522.41" xlink:href="#b8c7c7c1-1763-46f5-8f84-47dc752aab2d"/></defs><title>48</title><g id="a00d042d-6968-4694-9099-a97b27d6c654" data-name="Слой 2"><g id="bd0a85ee-7f5e-4d73-a8f1-838182595ff7" data-name="Слой 1"><path class="f22af3fb-ecd5-4933-aca2-8327edfcbc71" d="M14.27,1.82a18.76,18.76,0,0,1,3.6.55,5.07,5.07,0,0,1,1.82.8l-.24-.46a7.57,7.57,0,0,0-2.78-2,11.12,11.12,0,0,0-5.3-.65A12.07,12.07,0,0,0,5.14,2.89,19.62,19.62,0,0,1,9.35,2,20.81,20.81,0,0,1,14.27,1.82Z"/><path class="e1686864-67f5-41cb-ae13-311cdd6cdc0e" d="M29.11,37.24c-3.34-.89-9.12-4-9.45-8a13.45,13.45,0,0,1,.24-3.9c-.3.43-2.64.83-3.34,1l0-1.07c.86-.13,1.73-.28,2.29-.41a11.91,11.91,0,0,0,1.64-.5,5.35,5.35,0,0,0,.52-2l-2.75.46-1.76.16,0-.75c.65-.06,1.26-.11,1.81-.19l3-.42a22.44,22.44,0,0,0,.55-2.29l-2.51.24-2.86.16,0-.74L17.88,19,22,18.64a10.32,10.32,0,0,0,.52-2.16l-2.7.17-3.51.11,0-.91c1.06,0,2.07-.07,2.74,0l3.71-.09a5.92,5.92,0,0,0,.13-2.18l-2.33.07-4.3,0,0-1.09c1.42,0,2.86.08,4.23.06l2.42,0a6.89,6.89,0,0,0-.24-2.09l-5.84-.24-.61,0,0-1c.69,0,1.39.08,2.15.1l4.15.14a6.38,6.38,0,0,0-.44-1.81,34,34,0,0,0-5.93-.84l0-.89,1.65.15a24.65,24.65,0,0,1,3.74.57,7.48,7.48,0,0,0-.7-2.11c-.81-.48-2.9-.64-4.74-.81V3.54c.33,0,.66,0,1,.09a8.17,8.17,0,0,0,2.6-.19l.07-.09c.13-.24-.75-.61-1.59-.79A17,17,0,0,0,14.47,2a23.67,23.67,0,0,0-4.9.07,24.71,24.71,0,0,0-4.5,1c-.11.22.22.41.33.46a1.36,1.36,0,0,0,.83,0c.72-.09,1.68-.15,2.64-.2v.22l-2.25.13a10.56,10.56,0,0,0-2.84.59,3.58,3.58,0,0,0-.87,2.14L3,6.27l2.31-.22C6.31,6,7.75,5.94,9,5.88H9v.83l-3.17.15L3,7.16a4.41,4.41,0,0,0-1,2.43l2.7-.2,3.64-.28.81,0,0,.92H8.5L5,10.2l-3.09.24a4.53,4.53,0,0,0-.38,2.39l2-.15c1.92-.11,3.76-.15,5.61-.17l0,1.11c-.35,0-.72,0-1.09,0-2.38,0-4.75.11-5.56.18-.18,0-1,0-1,.13,0,.74-.05,2,.26,2.16l4.43,0,2.86-.05h.17l0,.88c-.43,0-.87,0-1.29,0-2.39.05-6.26-.15-6.25,0a5.85,5.85,0,0,0,.72,2.44l3.68-.06L9,19.33l.33,0,0,.85-.83,0c-2.38.05-6-.12-6,0a11.18,11.18,0,0,0,.85,2.26c1,0,2.14,0,3.14,0l2.86.05h0v.85H9.17c-2.37,0-5.63-.16-5.62,0a13.77,13.77,0,0,0,.61,2.31c1,0,2.15.13,3.12.13l2.24.08,0,1.1c-1.37,0-2,0-2.44-.05a9.74,9.74,0,0,1-3-.44c-.19-.12.18,1.36,1.59,2.08a28.24,28.24,0,0,0,3,.54,5.44,5.44,0,0,1,.92,2.21c0,.17.24,2.09-.09,2.37a31.66,31.66,0,0,1-4.36.55C-2.34,35.78.64,41,.34,41.52H33.56C34.26,41.52,32,38,29.11,37.24Z"/><polygon class="ba361f13-38df-44e6-8090-06e534dd04f1" points="42.87 19.77 42.87 10.83 45.52 10.83 47.09 16.91 48.64 10.83 51.3 10.83 51.3 19.77 49.66 19.77 49.66 12.72 47.94 19.77 46.23 19.77 44.51 12.72 44.5 19.77 42.87 19.77"/><path class="ba361f13-38df-44e6-8090-06e534dd04f1" d="M61,19.77H59l-.75-2h-3.5l-.74,2H52.17l3.4-8.94h1.88L61,19.77Zm-3.23-3.56L56.51,12.9l-1.18,3.31Z"/><polygon class="ba361f13-38df-44e6-8090-06e534dd04f1" points="61.91 19.77 61.91 10.83 63.61 10.83 67.21 16.82 67.21 10.83 68.85 10.83 68.85 19.77 67.08 19.77 63.53 13.89 63.53 19.77 61.91 19.77"/><polygon class="ba361f13-38df-44e6-8090-06e534dd04f1" points="70.73 19.77 70.73 10.83 77.22 10.83 77.22 12.34 72.5 12.34 72.5 14.32 76.88 14.32 76.88 15.83 72.5 15.83 72.5 18.25 77.37 18.25 77.37 19.77 70.73 19.77"/><polygon class="ba361f13-38df-44e6-8090-06e534dd04f1" points="78.9 19.77 78.9 10.83 80.69 10.83 80.69 14.78 84.25 10.83 86.63 10.83 83.33 14.3 86.8 19.77 84.51 19.77 82.11 15.56 80.69 17.06 80.69 19.77 78.9 19.77"/><polygon class="ba361f13-38df-44e6-8090-06e534dd04f1" points="87.71 19.77 87.71 10.83 94.19 10.83 94.19 12.34 89.48 12.34 89.48 14.32 93.86 14.32 93.86 15.83 89.48 15.83 89.48 18.25 94.35 18.25 94.35 19.77 87.71 19.77"/><polygon class="ba361f13-38df-44e6-8090-06e534dd04f1" points="95.87 19.77 95.87 10.83 97.59 10.83 101.19 16.82 101.19 10.83 102.81 10.83 102.81 19.77 101.05 19.77 97.51 13.89 97.51 19.77 95.87 19.77"/><path class="ba361f13-38df-44e6-8090-06e534dd04f1" d="M104.69,19.77V10.83h2.84a11,11,0,0,1,2.1.13,2.31,2.31,0,0,1,1.26.87,2.89,2.89,0,0,1,.51,1.74,3.13,3.13,0,0,1-.29,1.39,2.21,2.21,0,0,1-.75.87,2.84,2.84,0,0,1-.9.43,10.42,10.42,0,0,1-1.84.13h-1.14v3.38Zm1.77-7.43v2.55h1a4.46,4.46,0,0,0,1.39-.14,1.24,1.24,0,0,0,.56-.45,1.34,1.34,0,0,0,.2-.7,1.18,1.18,0,0,0-.28-.81,1.24,1.24,0,0,0-.72-.4,10.25,10.25,0,0,0-1.28-.06h-.84Z"/><polygon class="ba361f13-38df-44e6-8090-06e534dd04f1" points="112.9 19.77 112.9 10.89 114.66 10.89 114.66 18.25 119.06 18.25 119.06 19.77 112.9 19.77"/><path class="ba361f13-38df-44e6-8090-06e534dd04f1" d="M120.32,10.83h1.77v4.84a9.68,9.68,0,0,0,.06,1.5,1.48,1.48,0,0,0,.53.88,1.84,1.84,0,0,0,1.16.33,1.65,1.65,0,0,0,1.11-.32,1.19,1.19,0,0,0,.45-.76,10.58,10.58,0,0,0,.08-1.52V10.83h1.77v4.7a11.92,11.92,0,0,1-.15,2.28,2.67,2.67,0,0,1-.52,1.13,2.81,2.81,0,0,1-1,.73,4.38,4.38,0,0,1-1.67.27,4.53,4.53,0,0,1-1.9-.3,2.68,2.68,0,0,1-1-.77,2.38,2.38,0,0,1-.49-1,11.5,11.5,0,0,1-.18-2.28V10.83Z"/><path class="ba361f13-38df-44e6-8090-06e534dd04f1" d="M128.68,16.87l1.72-.18A2.18,2.18,0,0,0,131,18a1.93,1.93,0,0,0,1.28.42,1.91,1.91,0,0,0,1.27-.37,1.08,1.08,0,0,0,.43-.86.87.87,0,0,0-.17-.54,1.52,1.52,0,0,0-.64-.38c-.21-.08-.67-.21-1.4-.4a4.76,4.76,0,0,1-2-.89,2.36,2.36,0,0,1-.8-1.8,2.29,2.29,0,0,1,.38-1.28,2.45,2.45,0,0,1,1.09-.91,4.4,4.4,0,0,1,1.72-.32,3.63,3.63,0,0,1,2.47.75,2.71,2.71,0,0,1,.87,2l-1.77.07a1.62,1.62,0,0,0-.47-1,1.7,1.7,0,0,0-1.12-.3,2,2,0,0,0-1.19.32.63.63,0,0,0-.29.55.75.75,0,0,0,.25.55,4.76,4.76,0,0,0,1.63.6,8.59,8.59,0,0,1,1.89.64,2.46,2.46,0,0,1,1,.91,2.7,2.7,0,0,1,.35,1.41,2.77,2.77,0,0,1-.42,1.44,2.58,2.58,0,0,1-1.18,1,4.8,4.8,0,0,1-1.91.34,3.71,3.71,0,0,1-2.55-.79,3.38,3.38,0,0,1-1-2.27Z"/><line class="e92e04bc-007d-4a0a-bf4f-5d667b8b19c9" x1="42.78" y1="5.4" x2="135.88" y2="5.4"/><line class="e92e04bc-007d-4a0a-bf4f-5d667b8b19c9" x1="42.78" y1="25.71" x2="135.88" y2="25.71"/><path class="af129db9-fc23-45b8-870e-8287dbe25254" d="M45.25,36.39V32.83h-.49v-.3h.49v-.15a1.92,1.92,0,0,1,.13-.76.92.92,0,0,1,.34-.44,2.2,2.2,0,0,1,.39-.18,1.34,1.34,0,0,1,.35-.05l.21,0v.3l-.18,0a1.26,1.26,0,0,0-.28,0,1.88,1.88,0,0,0-.29.14.74.74,0,0,0-.25.35,1.49,1.49,0,0,0-.1.59v.16h2.19v3.86h-.32V32.83H45.57v3.56Zm2.16-4.84V31h.38v.56Z"/><path class="af129db9-fc23-45b8-870e-8287dbe25254" d="M49.57,36.39V32.53h.32v.74l0,.31h0a1.94,1.94,0,0,1,.48-.77,1.06,1.06,0,0,1,.76-.31.78.78,0,0,1,.22,0v.32a.62.62,0,0,0-.18,0,1,1,0,0,0-.72.32,1.73,1.73,0,0,0-.42.73,3,3,0,0,0-.12.84v1.67Z"/><path class="af129db9-fc23-45b8-870e-8287dbe25254" d="M52.3,35.93l.21-.25a1.57,1.57,0,0,0,1.2.49,1,1,0,0,0,.63-.2.62.62,0,0,0,.25-.53.55.55,0,0,0-.22-.45,1.44,1.44,0,0,0-.53-.3l-.62-.25a1.64,1.64,0,0,1-.53-.37.88.88,0,0,1-.22-.59.89.89,0,0,1,.36-.76,1.35,1.35,0,0,1,.88-.28,1.52,1.52,0,0,1,1.14.42l-.2.26a1.26,1.26,0,0,0-1-.36,1.09,1.09,0,0,0-.61.17.63.63,0,0,0,0,1,1.85,1.85,0,0,0,.53.31l.63.24a1.5,1.5,0,0,1,.52.37.86.86,0,0,1,.22.6.92.92,0,0,1-.34.75,1.33,1.33,0,0,1-.89.29A1.81,1.81,0,0,1,52.3,35.93Z"/><path class="af129db9-fc23-45b8-870e-8287dbe25254" d="M56.56,35V32.85h-.51v-.29h.51v-1.1h.33v1.1h1v.29h-1V35a1.72,1.72,0,0,0,.09.6.79.79,0,0,0,.25.36.81.81,0,0,0,.29.15.9.9,0,0,0,.28,0l.18,0v.31h-.19l-.29,0a1.16,1.16,0,0,1-.31-.11.92.92,0,0,1-.31-.24,1.36,1.36,0,0,1-.23-.42A2,2,0,0,1,56.56,35Z"/><path class="af129db9-fc23-45b8-870e-8287dbe25254" d="M61.66,36.39V32.53H62v.68l0,.32h0a1.51,1.51,0,0,1,.59-.76,1.47,1.47,0,0,1,.89-.33,1.26,1.26,0,0,1,.86.26,1.2,1.2,0,0,1,.36.79h0a1.86,1.86,0,0,1,.58-.74,1.48,1.48,0,0,1,.89-.31,1.21,1.21,0,0,1,1,.38,1.87,1.87,0,0,1,.29,1.12v2.45h-.33V34.06a1.85,1.85,0,0,0-.2-1,.8.8,0,0,0-.76-.35,1.27,1.27,0,0,0-1,.53,1.91,1.91,0,0,0-.42,1.2v1.92h-.32V34.06c0-.15,0-.29,0-.4a1.67,1.67,0,0,0-.07-.35,1.05,1.05,0,0,0-.15-.3.86.86,0,0,0-.28-.19,1.08,1.08,0,0,0-.42-.08,1.31,1.31,0,0,0-1,.53,1.92,1.92,0,0,0-.43,1.2v1.92Z"/><path class="af129db9-fc23-45b8-870e-8287dbe25254" d="M68.86,35.36a1.06,1.06,0,0,1,.1-.48,1,1,0,0,1,.24-.35,1.55,1.55,0,0,1,.38-.24,3.53,3.53,0,0,1,.43-.14,4.13,4.13,0,0,1,.47-.08l.41,0h.61v-.13c0-.77-.35-1.15-1.06-1.15a1.76,1.76,0,0,0-1.1.37l-.18-.26a1.56,1.56,0,0,1,.57-.31,2.28,2.28,0,0,1,.73-.12,1.35,1.35,0,0,1,1,.37,1.55,1.55,0,0,1,.35,1.09v2.49H71.5v-.51l0-.35h0a1.58,1.58,0,0,1-.52.68,1.33,1.33,0,0,1-.83.27,1.46,1.46,0,0,1-.92-.29A1,1,0,0,1,68.86,35.36Zm.33,0a.79.79,0,0,0,.27.59,1,1,0,0,0,.72.25,1.13,1.13,0,0,0,1-.5,1.92,1.92,0,0,0,.36-1.13v-.21h-.63l-.44,0a1.75,1.75,0,0,0-.46.1,2.48,2.48,0,0,0-.38.17.66.66,0,0,0-.29.28A.82.82,0,0,0,69.19,35.34Z"/><path class="af129db9-fc23-45b8-870e-8287dbe25254" d="M73.6,36.39V32.53h.32v.68l0,.32h0a1.65,1.65,0,0,1,.56-.73,1.63,1.63,0,0,1,1.07-.36,1.15,1.15,0,0,1,1,.38,1.87,1.87,0,0,1,.29,1.12v2.45h-.33V34.06c0-.15,0-.29,0-.4a2.29,2.29,0,0,0-.07-.34.86.86,0,0,0-.16-.3.66.66,0,0,0-.28-.19,1.11,1.11,0,0,0-.43-.07,1.51,1.51,0,0,0-1.14.49,1.66,1.66,0,0,0-.48,1.22v1.92Z"/><path class="af129db9-fc23-45b8-870e-8287dbe25254" d="M78.59,36.39V32.53h.32v.68l0,.32h0a1.73,1.73,0,0,1,.56-.73,1.63,1.63,0,0,1,1.07-.36,1.15,1.15,0,0,1,1,.38,1.87,1.87,0,0,1,.29,1.12v2.45h-.33V34.06c0-.15,0-.29,0-.4a2.29,2.29,0,0,0-.07-.34.86.86,0,0,0-.16-.3.66.66,0,0,0-.28-.19,1.11,1.11,0,0,0-.43-.07,1.51,1.51,0,0,0-1.14.49,1.66,1.66,0,0,0-.48,1.22v1.92Z"/><path class="af129db9-fc23-45b8-870e-8287dbe25254" d="M83.31,34.47A2,2,0,0,1,83.86,33a1.8,1.8,0,0,1,1.32-.54,1.4,1.4,0,0,1,1.16.51,1.87,1.87,0,0,1,.42,1.25s0,.12,0,.21H83.65a1.74,1.74,0,0,0,.47,1.28,1.6,1.6,0,0,0,1.18.48,1.63,1.63,0,0,0,1.2-.49l.17.27a2,2,0,0,1-.63.39,2.15,2.15,0,0,1-.74.14,1.93,1.93,0,0,1-2-2Zm.36-.36h2.75a1.48,1.48,0,0,0-.38-1,1.18,1.18,0,0,0-.86-.35,1.47,1.47,0,0,0-1,.36A1.59,1.59,0,0,0,83.67,34.11Z"/><path class="af129db9-fc23-45b8-870e-8287dbe25254" d="M88.48,35.93A2.26,2.26,0,0,1,88,34.46,2.14,2.14,0,0,1,88.51,33a1.58,1.58,0,0,1,1.25-.56,1.36,1.36,0,0,1,.79.24,1.33,1.33,0,0,1,.53.62h0a1.32,1.32,0,0,1,0-.3v-.47h.32v5.4h-.32V36l0-.34h0a1.56,1.56,0,0,1-.51.61,1.37,1.37,0,0,1-.88.26A1.49,1.49,0,0,1,88.48,35.93Zm-.11-1.47a1.91,1.91,0,0,0,.37,1.24,1.2,1.2,0,0,0,1,.47,1.29,1.29,0,0,0,1-.43,1.88,1.88,0,0,0,.39-1.29,2,2,0,0,0-.35-1.19,1.12,1.12,0,0,0-1-.5,1.24,1.24,0,0,0-1,.46A1.84,1.84,0,0,0,88.37,34.46Z"/><path class="af129db9-fc23-45b8-870e-8287dbe25254" d="M93.17,35V32.53h.32v2.33c0,.16,0,.29,0,.4a1.55,1.55,0,0,0,.07.35.62.62,0,0,0,.15.29.73.73,0,0,0,.28.19,1.1,1.1,0,0,0,.43.08,1.46,1.46,0,0,0,1.14-.52A1.87,1.87,0,0,0,96,34.42V32.53h.32v3.86H96v-.68l0-.32h0a1.75,1.75,0,0,1-.56.73,1.55,1.55,0,0,1-1,.36,1.16,1.16,0,0,1-1-.37A1.76,1.76,0,0,1,93.17,35Z"/><path class="af129db9-fc23-45b8-870e-8287dbe25254" d="M98.13,31.55V31h.38v.56Zm0,4.84V32.53h.32v3.86Z"/><path class="af129db9-fc23-45b8-870e-8287dbe25254" d="M100.29,36.39V32.53h.33v.68l0,.32h0a1.82,1.82,0,0,1,.56-.73,1.64,1.64,0,0,1,1.08-.36,1.17,1.17,0,0,1,1,.38,1.87,1.87,0,0,1,.28,1.12v2.45h-.32V34.06c0-.15,0-.29,0-.4a1.47,1.47,0,0,0-.07-.34A1.05,1.05,0,0,0,103,33a.7.7,0,0,0-.29-.19,1.09,1.09,0,0,0-.42-.07,1.54,1.54,0,0,0-1.15.49,1.69,1.69,0,0,0-.47,1.22v1.92Z"/><path class="af129db9-fc23-45b8-870e-8287dbe25254" d="M107.8,36.39V32.85h-.49v-.29h.49v-.18a1.92,1.92,0,0,1,.13-.76,1,1,0,0,1,.34-.44,2.2,2.2,0,0,1,.39-.18A1.36,1.36,0,0,1,109,31l.2,0v.3l-.18,0a1.26,1.26,0,0,0-.28,0,1.88,1.88,0,0,0-.29.14.74.74,0,0,0-.25.35,1.49,1.49,0,0,0-.1.59v.19h1.06v.29h-1.06v3.54Z"/><path class="af129db9-fc23-45b8-870e-8287dbe25254" d="M110.14,35.36a1.06,1.06,0,0,1,.1-.48,1,1,0,0,1,.24-.35,1.55,1.55,0,0,1,.38-.24,3.53,3.53,0,0,1,.43-.14,4.13,4.13,0,0,1,.47-.08l.41,0h.61v-.13c0-.77-.35-1.15-1.06-1.15a1.76,1.76,0,0,0-1.1.37l-.18-.26a1.56,1.56,0,0,1,.57-.31,2.28,2.28,0,0,1,.73-.12,1.35,1.35,0,0,1,1,.37,1.55,1.55,0,0,1,.35,1.09v2.49h-.33v-.51l0-.35h0a1.58,1.58,0,0,1-.52.68,1.33,1.33,0,0,1-.83.27,1.46,1.46,0,0,1-.92-.29A1,1,0,0,1,110.14,35.36Zm.33,0a.79.79,0,0,0,.27.59,1,1,0,0,0,.72.25,1.13,1.13,0,0,0,1-.5,1.92,1.92,0,0,0,.36-1.13v-.21h-.64l-.43,0a1.66,1.66,0,0,0-.46.1,2.48,2.48,0,0,0-.38.17.66.66,0,0,0-.29.28A.82.82,0,0,0,110.47,35.34Z"/><path class="af129db9-fc23-45b8-870e-8287dbe25254" d="M115.18,35.92a2,2,0,0,1,1.42-3.48,2.22,2.22,0,0,1,.76.14A1.57,1.57,0,0,1,118,33l-.2.26a1.55,1.55,0,0,0-.53-.36,1.64,1.64,0,0,0-.65-.13,1.61,1.61,0,0,0-1.17.47,1.83,1.83,0,0,0,0,2.47,1.61,1.61,0,0,0,1.17.47,1.78,1.78,0,0,0,.71-.15,1.61,1.61,0,0,0,.58-.41l.17.27a1.74,1.74,0,0,1-.64.44,2.07,2.07,0,0,1-.82.16A2,2,0,0,1,115.18,35.92Z"/><path class="af129db9-fc23-45b8-870e-8287dbe25254" d="M119.63,35V32.85h-.51v-.29h.51v-1.1H120v1.1h1v.29h-1V35a1.51,1.51,0,0,0,.1.6.72.72,0,0,0,.25.36.73.73,0,0,0,.29.15.86.86,0,0,0,.28,0l.18,0v.31h-.19l-.29,0a1.35,1.35,0,0,1-.32-.11,1,1,0,0,1-.3-.24,1.18,1.18,0,0,1-.23-.42A2,2,0,0,1,119.63,35Z"/><path class="af129db9-fc23-45b8-870e-8287dbe25254" d="M122,34.44a2,2,0,1,1,4,0,2,2,0,0,1-.58,1.45,2,2,0,0,1-2.83,0A2,2,0,0,1,122,34.44Zm.34,0a1.7,1.7,0,0,0,.48,1.23,1.63,1.63,0,0,0,2.35,0,1.7,1.7,0,0,0,.48-1.23,1.66,1.66,0,0,0-.48-1.2,1.68,1.68,0,0,0-2.35,0A1.66,1.66,0,0,0,122.34,34.44Z"/><path class="af129db9-fc23-45b8-870e-8287dbe25254" d="M127.53,36.39V32.53h.32v.74l0,.31h0a1.82,1.82,0,0,1,.47-.77,1.06,1.06,0,0,1,.76-.31.78.78,0,0,1,.22,0v.32l-.17,0a1,1,0,0,0-.73.32,1.73,1.73,0,0,0-.42.73,3,3,0,0,0-.12.84v1.67Z"/><path class="af129db9-fc23-45b8-870e-8287dbe25254" d="M130.27,37.52a.71.71,0,0,0,.47.18c.31,0,.56-.23.76-.69l.28-.64-1.6-3.84h.35l1.27,3.08.14.36h0c0-.11.08-.23.14-.36l1.27-3.08h.34l-2,4.76a1,1,0,0,1-1,.72,1.19,1.19,0,0,1-.32,0l-.22-.11-.08-.06Z"/></g></g></svg>