<svg xmlns="http://www.w3.org/2000/svg" viewBox="0 0 134.93 20.13"><defs><style>.e24c35ea-643b-4c5b-941b-b11ca1599f31{fill:#fc9e22;}.e3b38743-c331-4e0a-89b9-6dd41c9552a9{fill:#dbdbdb;}</style></defs><title>49</title><g id="f580f8d8-7c31-49ec-ad98-46c0f4e1a7ef" data-name="Слой 2"><g id="e36ca90e-8ce6-43f7-b7fd-373eaef32865" data-name="Слой 1"><path class="e24c35ea-643b-4c5b-941b-b11ca1599f31" d="M0,.58A36.2,36.2,0,0,1,6,.17c2.72,0,4.66.52,6,1.56A5.74,5.74,0,0,1,14,6.26a6.22,6.22,0,0,1-1.79,4.63A9.07,9.07,0,0,1,5.88,13a10.58,10.58,0,0,1-1.5-.09v7H0ZM4.37,9.44a6.55,6.55,0,0,0,1.48.12c2.35,0,3.8-1.19,3.8-3.19C9.65,4.58,8.4,3.5,6.2,3.5a7.16,7.16,0,0,0-1.82.18V9.44Z"/><path class="e24c35ea-643b-4c5b-941b-b11ca1599f31" d="M17.33.58A39,39,0,0,1,23.22.17c2.89,0,4.92.44,6.31,1.54a5,5,0,0,1,1.8,4.08,5.18,5.18,0,0,1-3.45,4.81v.09c1.36.55,2.12,1.85,2.61,3.65.61,2.2,1.22,4.75,1.59,5.5H27.56a24.29,24.29,0,0,1-1.36-4.55c-.52-2.43-1.36-3.09-3.16-3.13H21.71v7.68H17.34V.58ZM21.71,9h1.74c2.2,0,3.5-1.1,3.5-2.81s-1.21-2.7-3.24-2.72a11,11,0,0,0-2,.14Z"/><path class="e3b38743-c331-4e0a-89b9-6dd41c9552a9" d="M41.56,10.77V13.7H34V10.77Z"/><path class="e3b38743-c331-4e0a-89b9-6dd41c9552a9" d="M49.25,14.83l-1.39,5H43.28l6-19.52H55L61.1,19.84H56.35l-1.51-5Zm5-3.3L53,7.38c-.35-1.16-.7-2.6-1-3.76h-.06c-.29,1.16-.58,2.64-.9,3.76l-1.16,4.15Z"/><path class="e3b38743-c331-4e0a-89b9-6dd41c9552a9" d="M64.35,15.29a11.28,11.28,0,0,0,4.9,1.22c2,0,3.1-.84,3.1-2.11s-.93-1.91-3.27-2.76c-3.25-1.13-5.36-2.92-5.36-5.76C63.72,2.55,66.5,0,71.1,0a11.83,11.83,0,0,1,5,1l-1,3.56A9.2,9.2,0,0,0,71,3.62c-1.91,0-2.84.87-2.84,1.88,0,1.25,1.1,1.8,3.62,2.76,3.45,1.27,5.07,3.07,5.07,5.82,0,3.27-2.52,6-7.88,6A12.9,12.9,0,0,1,63.46,19Z"/><path class="e3b38743-c331-4e0a-89b9-6dd41c9552a9" d="M80.5,15.29a11.24,11.24,0,0,0,4.9,1.22c2,0,3.1-.84,3.1-2.11s-.93-1.91-3.28-2.76C82,10.51,79.86,8.72,79.86,5.88,79.86,2.55,82.65,0,87.25,0a11.83,11.83,0,0,1,5,1l-1,3.56a9.2,9.2,0,0,0-4.08-.93c-1.92,0-2.84.87-2.84,1.88,0,1.25,1.1,1.8,3.62,2.76C91.39,9.53,93,11.33,93,14.08c0,3.27-2.52,6-7.88,6A12.91,12.91,0,0,1,79.6,19Z"/><path class="e3b38743-c331-4e0a-89b9-6dd41c9552a9" d="M100.94.32V19.84H96.5V.32Z"/><path class="e3b38743-c331-4e0a-89b9-6dd41c9552a9" d="M105.4,15.29a11.28,11.28,0,0,0,4.9,1.22c2,0,3.1-.84,3.1-2.11s-.93-1.91-3.27-2.76c-3.25-1.13-5.36-2.92-5.36-5.76,0-3.33,2.78-5.88,7.38-5.88a11.83,11.83,0,0,1,5,1l-1,3.56a9.2,9.2,0,0,0-4.08-.93c-1.91,0-2.84.87-2.84,1.88,0,1.25,1.1,1.8,3.62,2.76,3.45,1.27,5.07,3.07,5.07,5.82,0,3.27-2.52,6-7.88,6A12.9,12.9,0,0,1,104.51,19Z"/><path class="e3b38743-c331-4e0a-89b9-6dd41c9552a9" d="M125.17,4h-5.24V.32h15V4H129.6V19.84h-4.43Z"/></g></g></svg>