<svg xmlns="http://www.w3.org/2000/svg" viewBox="0 0 94.82 89.48"><defs><style>.a8d34f40-95a5-4baf-8783-0ff910fd0043{fill:#efaf1f;}.b51db174-5d53-429a-b79d-e66b43f07816{fill:#efb022;}</style></defs><title>Ресурс 7</title><g id="b8ab5ffc-6713-4684-9d2e-a129905f32f1" data-name="Слой 2"><g id="a6ff62ca-f65f-4d5c-9e2c-5dd106103e80" data-name="Слой 1"><path class="a8d34f40-95a5-4baf-8783-0ff910fd0043" d="M47.2,64.27A21,21,0,0,1,26.51,47.09c-.11-.62,0-.73.61-.74a1.2,1.2,0,0,1,1.37.84,4.18,4.18,0,0,0,.48.91,1.35,1.35,0,0,0,.87.7c.28.05.37.14.41.44s.46.57.85.64c.17,0,.21-.05.16-.21-.16-.41.11-.6.41-.77s1.06-.2,1.41-.68c0,0,.21,0,.3,0a5,5,0,0,0,2,.19c.79,0,1,.33.85,1.09-.09.36,0,.53.32.63.06,0,.15,0,.18.09a.78.78,0,0,0,.93.36c.4-.06.61.29.69.65s.15.85.22,1.28a1.91,1.91,0,0,0,1.88,1.67c.25,0,.32.1.4.29a3.53,3.53,0,0,0,.93,1.3.67.67,0,0,0,.85.11,12.55,12.55,0,0,1,1.16-.58,1.43,1.43,0,0,1,1.91.38,2,2,0,0,0,.33.25.62.62,0,0,0,.69,0c.26-.16.24-.39.2-.64s-.26-.72.23-.93a1,1,0,0,1,1.26.28c.22.25.38.54.58.8.37.46.7.53,1.16.18a.65.65,0,0,1,.8-.05,12.31,12.31,0,0,0,1.22.58.87.87,0,0,0,1.19-.44A1.25,1.25,0,0,1,54.63,55c.33,0,.66,0,1,0a.72.72,0,0,0,.75-.77,3.5,3.5,0,0,1,.14-1,.93.93,0,0,0-.11-.84c-.24-.35-.1-.59.26-.73a2.89,2.89,0,0,0,.77-.42.89.89,0,0,1,1,0,2.79,2.79,0,0,1,.76.69c.27.32.53.66.82.94.51.5,1,.55,1.45,0,.55-.68,1.3-.33,1.92-.54a.11.11,0,0,1,.13.12c0,.81.41,1.55.37,2.36,0,.33.08.76-.46.83-.14,0-.1.21-.12.32a3.21,3.21,0,0,1-.91,1.72,21,21,0,0,1-12.58,6.32A19.42,19.42,0,0,1,47.2,64.27Z"/><path class="a8d34f40-95a5-4baf-8783-0ff910fd0043" d="M66.68,50.31a.86.86,0,0,1-.07-.71c.19-.39,0-.58-.25-.82-.54-.56-1.07-1.13-1.61-1.7-.08-.08-.16-.24-.28-.18a.3.3,0,0,0-.11.38l.29.78-1-.57a.46.46,0,0,0-.73.21c-.31.54-.62.65-1.18.37a.93.93,0,0,0-.63-.07,10.09,10.09,0,0,1-4.34-.09,5.08,5.08,0,0,1,.14-10,12.17,12.17,0,0,1,4.81,0c.23,0,.37.11.36.4,0,.66,0,1.32,0,2,0,.3-.08.35-.36.27A5,5,0,0,0,59,40.42,2.47,2.47,0,0,0,57.05,43a2.42,2.42,0,0,0,2.29,2.45,6,6,0,0,0,2.42-.24c.3-.09.4,0,.37.28s0,.52,0,.82a.67.67,0,0,0,.27-.84,10.39,10.39,0,0,1-.27-1.64,1.07,1.07,0,0,1,.41-1c.48-.43,1.08-.75,1.24-1.48,0-.21.34-.2.53-.27s.27,0,.39-.11c.31-.27.71-.43.33-1s-.22-1.24-.35-1.87c-.06-.27.22-.45.43-.6s.32,0,.44.12.3.09.32-.13,0-.49,0-.73a.31.31,0,0,1,.27-.28c.22,0,.2.16.22.28a11.89,11.89,0,0,1,.29,2.73A3,3,0,0,0,68,42.14a.53.53,0,0,1,.22.48,21.26,21.26,0,0,1-1,7.12.75.75,0,0,1-.48.55Z"/><path class="b51db174-5d53-429a-b79d-e66b43f07816" d="M53.49,81.28a5.84,5.84,0,0,1,.8-3.45q13.26-18.49,26.48-37c.3-.41.44-.37.75,0,.66.68.67.66.14,1.41Q67.76,61.62,53.87,81l-.25.32Z"/><path class="b51db174-5d53-429a-b79d-e66b43f07816" d="M44.63,2.75a5.56,5.56,0,0,1-.87,3.8Q31.09,24.21,18.45,41.89c-.11.16-.23.31-.38.51-.22-.49-.43-.94-.64-1.39-.11-.24.08-.39.2-.55l6.93-9.69L44.29,3.21C44.4,3.05,44.52,2.9,44.63,2.75Z"/><path class="a8d34f40-95a5-4baf-8783-0ff910fd0043" d="M49.07,38.28a4.75,4.75,0,0,1,2.63,2.63c1.28,3.2-.59,6.42-4.11,7.1A11.45,11.45,0,0,1,43,47.87c-.27,0-.42-.14-.41-.46,0-.65,0-1.29,0-1.93,0-.32.07-.38.38-.28a5.8,5.8,0,0,0,3.17.2,2.23,2.23,0,0,0,1.44-1c.2-.32.2-.48-.25-.47-.94,0-1.88,0-2.81,0-.33,0-.47-.07-.44-.43a8.69,8.69,0,0,0,0-1.25c0-.33.1-.41.41-.41,1,0,1.94,0,2.92,0,.36,0,.38-.11.22-.39a2.73,2.73,0,0,0-2.49-1.23,6,6,0,0,0-2.1.31c-.34.11-.47.09-.45-.3q0-.91,0-1.83c0-.29.07-.43.38-.48a11.85,11.85,0,0,1,5.46.15c.29.09.4,0,.55-.22s.33-.47.67-.39a.12.12,0,0,1,.1.15.67.67,0,0,1-.54.56Z"/><path class="b51db174-5d53-429a-b79d-e66b43f07816" d="M55.17,74.89a15.78,15.78,0,0,0,.9-3.29,1.36,1.36,0,0,1,.25-.62L79.14,39.09c.23-.32.37-.39.67-.06.68.76.7.74.11,1.56L55.64,74.51C55.53,74.66,55.48,74.91,55.17,74.89Z"/><path class="b51db174-5d53-429a-b79d-e66b43f07816" d="M15.73,37.6l-.08-.07c-.74-1.33-.74-1.33.14-2.57,1.46-2,2.93-4.05,4.36-6.1.29-.42.52-.58,1-.34s.58.18.48-.38a2.81,2.81,0,0,1,.64-2.3C24.44,22.92,26.54,20,28.65,17a1.14,1.14,0,0,1,.31-.31c-.15,1.11.17,2.25-.59,3.3C24.24,25.71,20.14,31.47,16,37.21,15.94,37.34,15.84,37.46,15.73,37.6Z"/><path class="b51db174-5d53-429a-b79d-e66b43f07816" d="M31.55,19.53c.45-1.62.46-3.3,1.54-4.77C36.61,10,40,5.17,43.45.36c.35-.49.35-.49.63,0l.09.19a1.22,1.22,0,0,1-.12,1.53Q38,10.56,31.92,19C31.8,19.21,31.67,19.37,31.55,19.53Z"/><path class="b51db174-5d53-429a-b79d-e66b43f07816" d="M16.9,40c-.24-.45-.44-.87-.67-1.27s.07-.39.18-.54l7.33-10.25,4.61-6.43c.1-.14.15-.31.38-.38A6.7,6.7,0,0,0,29,23c.05.15-.06.26-.14.37L17.08,39.77Z"/><path class="b51db174-5d53-429a-b79d-e66b43f07816" d="M28.87,81.14l1.65-2.31q4.56-6.37,9.11-12.75c.25-.35.47-.47.88-.3a8.41,8.41,0,0,0,1,.3l-2.69,3.75c-2.43,3.4-4.88,6.79-7.29,10.21a1.88,1.88,0,0,1-1.41.9C29.75,81,29.39,81.05,28.87,81.14Z"/><path class="b51db174-5d53-429a-b79d-e66b43f07816" d="M54.33,84.37a7,7,0,0,1-.53-1.67c0-.15.08-.26.16-.37L64.26,68c0-.07.11-.13.27-.31-.09,1.29.11,2.43-.69,3.51-3.09,4.21-6.1,8.48-9.14,12.73Z"/><path class="b51db174-5d53-429a-b79d-e66b43f07816" d="M42.77,9.6a6.44,6.44,0,0,0-.44,2.85c0,.17-.13.27-.22.4-2.46,3.46-4.94,6.91-7.41,10.36a1.42,1.42,0,0,1-.44.44A23.23,23.23,0,0,0,31,26.24c-.11.1-.2.26-.44.17L42.65,9.53Z"/><path class="b51db174-5d53-429a-b79d-e66b43f07816" d="M14.61,48.71c1-1.45,2-2.84,3-4.24.15-.21.25-.18.41,0s.31.27.55.47a5.48,5.48,0,0,0-.07-.9,1.16,1.16,0,0,1,.23-1.1c2.33-3.22,4.64-6.46,7-9.69l.32-.42c.09.25-.06.38-.13.53a23.7,23.7,0,0,0-1.41,3.91,2,2,0,0,1-.34.75q-3.87,5.39-7.72,10.8a.56.56,0,0,1-.8.25C15.31,48.9,15,48.83,14.61,48.71Z"/><path class="b51db174-5d53-429a-b79d-e66b43f07816" d="M32.39,80.25,36,75.18c2-2.83,4-5.64,6-8.47.23-.33.45-.5.84-.35s.72,0,1.09.24l-3.34,4.67c-1.73,2.42-3.46,4.82-5.18,7.24a2.42,2.42,0,0,1-1,.89A15.06,15.06,0,0,1,32.39,80.25Z"/><path class="b51db174-5d53-429a-b79d-e66b43f07816" d="M69.34,35.17c-.89-1-.53-1.87.19-2.84,2.54-3.42,5-6.91,7.47-10.39a.81.81,0,0,1,1-.43c.33.09.86-.11,1,.14s-.31.6-.52.89q-4.32,6.08-8.68,12.14C69.61,34.85,69.52,35.07,69.34,35.17Z"/><path class="b51db174-5d53-429a-b79d-e66b43f07816" d="M14.19,61.37l9.87-13.79.44,1.8c0,.18-.09.29-.18.42q-4,5.64-8.08,11.29c-.1.14-.19.28-.4.28Z"/><path class="b51db174-5d53-429a-b79d-e66b43f07816" d="M59,23c1.09-1.51,2.16-3,3.23-4.51q2.49-3.47,5-6.94a.93.93,0,0,1,.61-.43,10.29,10.29,0,0,0,1.92-.69c0,.19-.09.28-.16.38q-4.52,6.32-9,12.63c-.24.33-.4.33-.69.1S59.3,23.14,59,23Z"/><path class="b51db174-5d53-429a-b79d-e66b43f07816" d="M70.57,45.43A17.82,17.82,0,0,0,70.68,43a.63.63,0,0,1,.17-.37c2.5-3.5,5-7,7.5-10.5a.39.39,0,0,1,.59-.14c1,.5,1,.49.36,1.4-.36.51-.73,1-1.09,1.53a3.07,3.07,0,0,1-1.67,1.51c.22.17.43.25.21.55-2,2.76-4,5.55-6,8.33a.59.59,0,0,0-.07.2Z"/><path class="b51db174-5d53-429a-b79d-e66b43f07816" d="M57.37,7.65c-.28.4-.51.7-.72,1Q52.81,14,49,19.37a.82.82,0,0,1-.85.42,9.23,9.23,0,0,0-1.18,0c0-.23.13-.33.22-.45Q51.08,13.86,55,8.4A.92.92,0,0,1,55.65,8C56.19,7.91,56.72,7.78,57.37,7.65Z"/><path class="b51db174-5d53-429a-b79d-e66b43f07816" d="M64,72.39a15.74,15.74,0,0,1-.76,3.17,4.64,4.64,0,0,1-.77,1.52q-3.32,4.59-6.59,9.22c-.27.37-.4.34-.63,0-.59-.88-.6-.88,0-1.73l8.45-11.8c.09-.13.19-.24.29-.36Z"/><path class="b51db174-5d53-429a-b79d-e66b43f07816" d="M26,81.25a.77.77,0,0,1,.24-.51c1.92-2.68,3.8-5.39,5.77-8a19.12,19.12,0,0,1,4.14-4.14c.28-.2.58-.37.92-.59a.59.59,0,0,1-.2.48C34,72.56,31,76.64,28.12,80.74a1,1,0,0,1-1,.52A9.53,9.53,0,0,0,26,81.25Z"/><path class="b51db174-5d53-429a-b79d-e66b43f07816" d="M69.39,51.24c.33-1.24.67-2.45.9-3.7a1.35,1.35,0,0,1,.28-.49c2.27-3.17,4.55-6.34,6.81-9.53.26-.38.43-.36.75-.09.73.62.74.6.18,1.39l-8.6,12A4.47,4.47,0,0,1,69.39,51.24Z"/><path class="b51db174-5d53-429a-b79d-e66b43f07816" d="M56.76,64.85c-1.31,1.84-2.61,3.68-3.92,5.51-1.74,2.45-3.49,4.88-5.24,7.32a1.52,1.52,0,0,1-.34.38c.14-1.34,0-2.66,1-3.87,2-2.64,3.91-5.39,5.83-8.11a1.63,1.63,0,0,1,.85-.63c.6-.2,1.2-.44,1.8-.66Z"/><path class="b51db174-5d53-429a-b79d-e66b43f07816" d="M53.89,8.42c-.76,1.22-1.65,2.35-2.48,3.52-1.76,2.49-3.55,5-5.32,7.46a1,1,0,0,1-.85.46c-.44,0-.88.08-1.42.12L46,17c1.79-2.5,3.6-5,5.38-7.53a1.49,1.49,0,0,1,1-.71,5.53,5.53,0,0,1,1.51-.29Z"/><path class="b51db174-5d53-429a-b79d-e66b43f07816" d="M68.18,32.71c-.21-.39-.42-.79-.65-1.17-.12-.2,0-.32.06-.47l6.84-9.55a.52.52,0,0,1,.57-.25,7,7,0,0,0,.93.08c.37,0,.41.1.19.4-1.18,1.63-2.34,3.26-3.52,4.9l-4,5.67C68.45,32.45,68.38,32.62,68.18,32.71Z"/><path class="b51db174-5d53-429a-b79d-e66b43f07816" d="M66.21,11.4l-.83,1.17c-2.27,3.17-4.55,6.34-6.8,9.52-.25.34-.41.44-.82.21-.84-.48-.86-.45-.28-1.27l6.44-9a.91.91,0,0,1,.7-.45C65.1,11.54,65.58,11.47,66.21,11.4Z"/><path class="b51db174-5d53-429a-b79d-e66b43f07816" d="M50.34,9.41l-.56.79c-2.28,3.19-4.57,6.38-6.84,9.57a1.2,1.2,0,0,1-.87.57c-.52.09-1,.25-1.67.41l.46-.66c2-2.78,4-5.55,6-8.35A4.31,4.31,0,0,1,48.3,10.4,17.72,17.72,0,0,1,50.34,9.41Z"/><path class="b51db174-5d53-429a-b79d-e66b43f07816" d="M59.62,6.84a11.74,11.74,0,0,1-1.49,2.78c-.59.84-1.2,1.66-1.78,2.5a3.45,3.45,0,0,0-.68,1.77.92.92,0,0,1-.21.47c-1.3,1.81-2.61,3.63-3.9,5.46a.5.5,0,0,1-.61.25,8.74,8.74,0,0,1-1.25-.23l1.18-1.67c2.44-3.41,4.9-6.82,7.32-10.24A2.51,2.51,0,0,1,59.62,6.84Z"/><path class="b51db174-5d53-429a-b79d-e66b43f07816" d="M51.37,73.94a22.38,22.38,0,0,1,1.54-2.21q2.7-3.83,5.44-7.61a1.24,1.24,0,0,1,.44-.44,24.73,24.73,0,0,0,2.84-1.91c.07-.05.13-.13.27,0L61,63l-6.05,8.46a1.88,1.88,0,0,1-.73.64A23.56,23.56,0,0,0,51.4,74Z"/><path class="b51db174-5d53-429a-b79d-e66b43f07816" d="M24.82,50.55c.21.55.38,1,.57,1.48a.4.4,0,0,1-.11.46q-3,4.21-6,8.43a.68.68,0,0,1-.64.34c-.45,0-.92,0-1.51.07Z"/><path class="b51db174-5d53-429a-b79d-e66b43f07816" d="M28.79,12.9c.17,1,.45,1.94-.31,2.94-2.18,2.89-4.24,5.87-6.35,8.81a1.79,1.79,0,0,1-.39.44c.25-1.29.08-2.63.94-3.8,2-2.65,3.84-5.35,5.76-8A.82.82,0,0,1,28.79,12.9Z"/><path class="b51db174-5d53-429a-b79d-e66b43f07816" d="M37.21,77.6c1.07-1.51,2.13-3,3.21-4.54,1.43-2,2.88-4,4.3-6a.71.71,0,0,1,.77-.35c.39,0,.78.06,1.18.1,0,.19-.13.29-.22.41l-5,7a5.85,5.85,0,0,1-1,1,29.29,29.29,0,0,1-3.11,2.44Z"/><path class="b51db174-5d53-429a-b79d-e66b43f07816" d="M12.41,61.34c-.29,0-.75.11-.87-.13s.25-.51.42-.75l5.85-8.17c.56-.79.56-.79,1.46-.47.57.2.58.2.23.69-2,2.75-3.95,5.5-5.9,8.26C13.29,61.2,13,61.52,12.41,61.34Z"/><path class="b51db174-5d53-429a-b79d-e66b43f07816" d="M70.63,41.38c-.09-.62-.16-1.21-.25-1.79a.7.7,0,0,1,.17-.57q2.83-3.94,5.66-7.92c.21-.29.37-.3.67-.14.94.49,1,.48.33,1.35Q74.11,36.65,71,41C70.89,41.11,70.83,41.29,70.63,41.38Z"/><path class="b51db174-5d53-429a-b79d-e66b43f07816" d="M63,11.86l-1.18,1.66c-1.8,2.52-3.62,5-5.4,7.57a.59.59,0,0,1-.85.24c-.92-.38-.93-.37-.33-1.19,1.71-2.4,3.44-4.79,5.13-7.2a1.8,1.8,0,0,1,1.19-.81A9.47,9.47,0,0,1,63,11.86Z"/><path class="b51db174-5d53-429a-b79d-e66b43f07816" d="M17.2,51.67l-4,5.56c-.8,1.13-1.63,2.24-2.41,3.39a.87.87,0,0,1-1.05.45c-1-.22-1-.18-.43-1l4.84-6.77A4.57,4.57,0,0,1,17.2,51.67Z"/><path class="b51db174-5d53-429a-b79d-e66b43f07816" d="M75.11,52.78a9.79,9.79,0,0,1,.56,1.52.5.5,0,0,1-.13.47l-5.6,7.82c-.15.22-.29.34-.53.15-.07-.05-.17-.07-.23-.12-.25-.18-.74-.08-.77-.39s.31-.51.49-.77Z"/><path class="b51db174-5d53-429a-b79d-e66b43f07816" d="M66.94,30.53c-.29-.4-.52-.74-.77-1.07a.34.34,0,0,1,0-.47q2.78-3.85,5.54-7.73a.38.38,0,0,1,.38-.22l1.52.14Z"/><path class="b51db174-5d53-429a-b79d-e66b43f07816" d="M23.89,39.8c-.07,1-.14,1.88-.22,2.75a1,1,0,0,1-.22.4c-1.64,2.29-3.28,4.57-4.9,6.86-.2.29-.38.35-.65.14s-.81-.23-.85-.52.33-.57.53-.85q3-4.14,5.93-8.29Z"/><path class="b51db174-5d53-429a-b79d-e66b43f07816" d="M70.36,17.68c-.54.76-1,1.41-1.46,2.05-1.57,2.2-3.16,4.4-4.71,6.61-.25.35-.39.37-.68.06-.7-.72-.72-.71-.12-1.54,1.59-2.23,3.2-4.44,4.77-6.69a1,1,0,0,1,1-.5A12,12,0,0,0,70.36,17.68Z"/><path class="b51db174-5d53-429a-b79d-e66b43f07816" d="M25.38,69.9l5.23-7.3c.32-.45.65-.9,1-1.36.14-.21.24-.22.45-.06.94.72.94.71.26,1.67-1.56,2.18-3.14,4.36-4.69,6.56a1,1,0,0,1-.94.5C26.26,69.88,25.86,69.9,25.38,69.9Z"/><path class="b51db174-5d53-429a-b79d-e66b43f07816" d="M30,59.37c1.14,1,1.14,1,.31,2.13-1.85,2.58-3.71,5.15-5.52,7.76a1.1,1.1,0,0,1-1.27.54c-.89-.16-.87-.11-.37-.87a17.09,17.09,0,0,1,3.58-4c.78-.64,1.48-1.37,2.22-2,.22-.2.29-.31,0-.5s-.68-.22-.69-.47.3-.52.48-.77C29.19,60.54,29.62,60,30,59.37Z"/><path class="b51db174-5d53-429a-b79d-e66b43f07816" d="M81.86,21.76l-1.08,1.53c-1.4,1.94-2.8,3.88-4.17,5.84a.8.8,0,0,1-.86.4c-.38-.05-.75-.06-1.14-.08,0-.21.15-.32.24-.46,1.63-2.28,3.27-4.56,4.89-6.86a.9.9,0,0,1,1-.47A9.66,9.66,0,0,0,81.86,21.76Z"/><path class="b51db174-5d53-429a-b79d-e66b43f07816" d="M77.34,29.54l1.74-2.44c1.17-1.63,2.35-3.26,3.5-4.91a.81.81,0,0,1,.85-.41c.39,0,.78,0,1.25.07l-2.49,3.49c-.86,1.21-1.74,2.41-2.59,3.64a1,1,0,0,1-.9.49C78.3,29.46,77.88,29.51,77.34,29.54Z"/><path class="b51db174-5d53-429a-b79d-e66b43f07816" d="M43.67,14.56c0,.2-.12.31-.21.44l-4.24,5.93a1,1,0,0,1-.32.34l-2.56,1.1,6.3-8.8.62.8c.11.13.21.29.42.2Z"/><path class="b51db174-5d53-429a-b79d-e66b43f07816" d="M76,55.57c.14.63.26,1.15.37,1.67a.63.63,0,0,1-.15.57c-1.51,2.11-3,4.23-4.53,6.35-.18.24-.27.28-.5,0-.79-.84-.8-.82-.11-1.78l4.5-6.3Z"/><path class="b51db174-5d53-429a-b79d-e66b43f07816" d="M70.14,38.14c-.17-.61-.3-1.13-.46-1.64a.5.5,0,0,1,.13-.47l4.41-6.17c.16-.24.29-.25.54-.1,1,.59,1,.58.31,1.5l-4.6,6.42Z"/><path class="b51db174-5d53-429a-b79d-e66b43f07816" d="M20.13,61.13l5.71-8c.26.49.48.92.71,1.34.09.16,0,.26-.09.37l-4.33,6c-.09.11-.16.22-.33.22Z"/><path class="b51db174-5d53-429a-b79d-e66b43f07816" d="M69.52,20.33c.11,1,.88.38,1.29.69,0,.12-.1.2-.17.31-1.62,2.27-3.25,4.53-4.86,6.81-.22.31-.34.38-.62,0-.67-.82-.69-.81-.07-1.68C66.55,24.48,68,22.45,69.52,20.33Z"/><path class="b51db174-5d53-429a-b79d-e66b43f07816" d="M14.54,35.26c-.22-.52-.39-1-.58-1.39A.41.41,0,0,1,14,33.4q2.16-3,4.3-6s0-.07.06-.08c.54-.16.74.42,1.17.54.24.06.13.22,0,.35Z"/><path class="b51db174-5d53-429a-b79d-e66b43f07816" d="M79.14,49.47A7.94,7.94,0,0,1,78,49c-.26-.14,0-.3.09-.41,1.08-1.53,2.18-3,3.27-4.58.42-.59.86-1.17,1.26-1.78.17-.25.29-.25.53-.08.92.66.92.65.26,1.57l-3.87,5.41C79.46,49.28,79.4,49.48,79.14,49.47Z"/><path class="b51db174-5d53-429a-b79d-e66b43f07816" d="M22.77,19.55c.71-1.85.82-3.84,2.14-5.41.9-1.07,1.66-2.26,2.46-3.41.2-.29.31-.34.53,0,.63.92.64,1,0,1.88L23.22,19.1A.89.89,0,0,1,22.77,19.55Z"/><path class="b51db174-5d53-429a-b79d-e66b43f07816" d="M28.59,69.59c0-.21.12-.31.2-.43,1.51-2.11,3-4.22,4.53-6.34.22-.31.36-.36.68-.13.84.6.85.58.24,1.43-1.06,1.48-2.13,2.95-3.16,4.44a1.55,1.55,0,0,1-1,.69A9.45,9.45,0,0,1,28.59,69.59Z"/><path class="b51db174-5d53-429a-b79d-e66b43f07816" d="M67.36,17.86l-2,2.82c-1,1.37-2,2.74-2.94,4.11-.17.25-.29.37-.59.12-.85-.68-.86-.66-.22-1.56,1-1.34,1.91-2.69,2.88-4,.28-.38.46-.8,1.07-.9S66.62,18,67.36,17.86Z"/><path class="b51db174-5d53-429a-b79d-e66b43f07816" d="M59.11,13.21l-2.84,4c-.74,1.05-1.5,2.08-2.24,3.14a.47.47,0,0,1-.62.24c-1.18-.33-1.18-.31-.48-1.29s1.43-2,2.12-3a11.47,11.47,0,0,1,4-3.22Z"/><path class="b51db174-5d53-429a-b79d-e66b43f07816" d="M80.16,49.76l3.11-4.34c.43-.61.88-1.21,1.3-1.83.15-.21.26-.29.53-.14,1,.58,1,.57.34,1.51-1.12,1.57-2.25,3.13-3.35,4.7a.67.67,0,0,1-.89.34C80.89,49.9,80.56,49.85,80.16,49.76Z"/><path class="b51db174-5d53-429a-b79d-e66b43f07816" d="M76.59,58.82c.76,1.41.15,2.49-.72,3.58s-1.81,2.46-2.68,3.71c-.19.28-.28.33-.5,0-.67-1-.68-1,0-1.9l3.63-5.08C76.41,59,76.52,58.91,76.59,58.82Z"/><path class="b51db174-5d53-429a-b79d-e66b43f07816" d="M12.73,53.85,8.85,59.32a7.26,7.26,0,0,1-.46.63c-.18.22-.27.65-.56.62a4.65,4.65,0,0,1-1.22-.42c-.19-.07-.05-.2,0-.29l3.57-5c0-.06.08-.14.14-.16.83-.21,1.57-.68,2.41-.86Z"/><path class="b51db174-5d53-429a-b79d-e66b43f07816" d="M19.9,52a5.16,5.16,0,0,0-.77-1.08c-.15-.13-.15-.23,0-.39,1.51-2.09,3-4.19,4.59-6.39.07.82.14,1.51.19,2.21a.39.39,0,0,1-.1.23Z"/><path class="b51db174-5d53-429a-b79d-e66b43f07816" d="M80.48,29.18l4.11-5.74a11.76,11.76,0,0,0,.72-1,1,1,0,0,1,1.18-.57c.3.06.61.07,1,.12L85.24,25.1a.41.41,0,0,1-.21.14c-.85.16-1.21.81-1.49,1.52A4,4,0,0,1,80.48,29.18Z"/><path class="b51db174-5d53-429a-b79d-e66b43f07816" d="M13.52,32.66c-.16-.64-.29-1.16-.43-1.67a.44.44,0,0,1,.09-.43L17,25.23s.07-.05.14-.1a4.87,4.87,0,0,0,.62,1.2.31.31,0,0,1,0,.42Z"/><path class="b51db174-5d53-429a-b79d-e66b43f07816" d="M12.87,29.54a8.94,8.94,0,0,1-.1-2.22.83.83,0,0,1,.1-.35c1.3-1.82,2.6-3.63,4-5.43,0,.75,0,1.5,0,2.25a.52.52,0,0,1-.11.28Z"/><path class="b51db174-5d53-429a-b79d-e66b43f07816" d="M61.13,80.57a12.55,12.55,0,0,0-.66,3.14,1,1,0,0,1-.21.46c-.9,1.26-1.81,2.5-2.69,3.77-.2.29-.34.28-.6.09-.88-.63-.88-.62-.25-1.5,1.35-1.87,2.69-3.75,4-5.62.1-.14.22-.26.33-.39C61.09,80.54,61.11,80.55,61.13,80.57Z"/><path class="b51db174-5d53-429a-b79d-e66b43f07816" d="M84.15,50.42,83,50.3c-.29,0-.27-.14-.13-.33l3.75-5.24c.12-.17.25-.23.42-.09l.09,0c1,.53,1,.54.33,1.44l-2.81,3.93C84.53,50.26,84.42,50.49,84.15,50.42Z"/><path class="b51db174-5d53-429a-b79d-e66b43f07816" d="M27.08,55.45c.29.43.51.79.77,1.14.12.16.06.28,0,.41L25,60.93a.46.46,0,0,1-.42.24c-.4,0-.79,0-1.19,0s-.32-.09-.16-.3l.45-.64Z"/><path class="b51db174-5d53-429a-b79d-e66b43f07816" d="M74.26,68.54c-.23-.37-.46-.74-.69-1.09a.32.32,0,0,1,0-.42C74.76,65.37,76,63.71,77.2,62c.12.72.23,1.34.33,2a.44.44,0,0,1-.12.33l-3,4.19Z"/><path class="b51db174-5d53-429a-b79d-e66b43f07816" d="M12.18,48.07c.82-1.14,1.6-2.24,2.39-3.33.27-.38.56-.75.81-1.15a.53.53,0,0,1,.76-.25c1,.38,1,.36.4,1.22-.84,1.17-1.68,2.33-2.5,3.51a.59.59,0,0,1-.82.28A9.62,9.62,0,0,0,12.18,48.07Z"/><path class="b51db174-5d53-429a-b79d-e66b43f07816" d="M14.72,43.06l-3.25,4.55a.3.3,0,0,1-.39.13c-1.29-.34-1.3-.36-.54-1.42.64-.89,1.29-1.76,1.9-2.67a1.17,1.17,0,0,1,1-.6A7.87,7.87,0,0,1,14.72,43.06Z"/><path class="b51db174-5d53-429a-b79d-e66b43f07816" d="M85.41,50.49l1.91-2.67c.44-.62.89-1.23,1.33-1.86.15-.23.26-.23.49-.1,1,.59,1,.58.34,1.52s-1.34,1.85-2,2.79a.8.8,0,0,1-.88.43C86.25,50.54,85.88,50.53,85.41,50.49Z"/><path class="b51db174-5d53-429a-b79d-e66b43f07816" d="M44.19,71.81,47.67,67a.36.36,0,0,1,.29-.19l1.66-.11c0,.3-.21.44-.33.62-.24.34-.49.67-.72,1a6,6,0,0,1-3,2.78,6.37,6.37,0,0,0-1.29.82Z"/><path class="b51db174-5d53-429a-b79d-e66b43f07816" d="M9.05,55,5.81,59.55c-.09.13-.19.19-.34.07l0,0c-1.13-.53-1.13-.53-.4-1.53s1.32-1.83,2-2.75A.63.63,0,0,1,7.57,55C8,55,8.51,55,9.05,55Z"/><path class="b51db174-5d53-429a-b79d-e66b43f07816" d="M48.88,71.64a5.93,5.93,0,0,1,.63-1.16c.14-.23.08-.32-.15-.35l-1-.07a3.32,3.32,0,0,1,.47-.74c.59-.83,1.2-1.66,1.78-2.5a1,1,0,0,1,.66-.44c.55-.09,1.09-.21,1.75-.34C51.66,68,50.33,69.85,49,71.71Z"/><path class="b51db174-5d53-429a-b79d-e66b43f07816" d="M36.92,64.41l-2.14,3a.52.52,0,0,1-.18.18,22,22,0,0,1-2.37.81l1.47-2.06c.54-.76,1.1-1.51,1.63-2.29.2-.29.37-.33.66-.14A8.24,8.24,0,0,0,36.92,64.41Z"/><path class="b51db174-5d53-429a-b79d-e66b43f07816" d="M68.13,62.64a14.5,14.5,0,0,1,.33,1.82.5.5,0,0,1-.16.42c-.68,1-1.38,1.91-2,2.88-.18.25-.31.35-.51,0a1.52,1.52,0,0,0-.25-.26c-.56-.51-.56-.51-.1-1.15L67.84,63C67.92,62.84,68,62.7,68.13,62.64Z"/><path class="b51db174-5d53-429a-b79d-e66b43f07816" d="M77.73,65.24c.13.67.23,1.23.34,1.79a.62.62,0,0,1-.15.52c-.68.94-1.35,1.88-2,2.83-.14.2-.21.26-.4,0-.78-1-.79-1-.08-2Z"/><path class="b51db174-5d53-429a-b79d-e66b43f07816" d="M67.74,14.76c1.68-2.25,3.16-4.65,5.1-6.9a2.17,2.17,0,0,1-.19,1A11,11,0,0,1,68,14.74c-.07,0-.15.1-.23,0Z"/><path class="b51db174-5d53-429a-b79d-e66b43f07816" d="M28.49,57.51c1,1.15,1,1.15.17,2.33-.37.51-.75,1-1.11,1.56-.13.19-.25.26-.47.17a2,2,0,0,0-.35-.1c-.93-.21-.93-.21-.39-1C27.05,59.5,27.77,58.51,28.49,57.51Z"/><path class="b51db174-5d53-429a-b79d-e66b43f07816" d="M88.16,50.67c.87-1.22,1.7-2.37,2.52-3.53,0,0,0-.07.07-.07.46,0,.67.4,1,.6.15.1.25.21.1.42-.62.85-1.24,1.72-1.85,2.58a.37.37,0,0,1-.41.14Z"/><path class="b51db174-5d53-429a-b79d-e66b43f07816" d="M6.22,54.94c-.81,1.13-1.57,2.2-2.34,3.26,0,.06-.1.16-.13.15-.41-.12-.63-.49-.93-.76s-.16-.25,0-.43c.57-.76,1.12-1.54,1.67-2.32a.37.37,0,0,1,.48-.16Z"/><path class="b51db174-5d53-429a-b79d-e66b43f07816" d="M60.44,85.55c0,1.14,0,2.28,0,3.43,0,.5-.17.59-.61.41s-1-.38-1.5-.58c-.16-.06-.28-.12-.14-.33l2.15-3Z"/><path class="b51db174-5d53-429a-b79d-e66b43f07816" d="M11.59,43.42,9.22,46.73a.2.2,0,0,1-.31.05l-.84-.61c-.17-.12-.13-.24,0-.39.39-.53.77-1.07,1.15-1.61A.46.46,0,0,1,9.48,44Z"/><path class="b51db174-5d53-429a-b79d-e66b43f07816" d="M27.55,77.43c-.74,1.21-1.64,2.31-2.44,3.48a.36.36,0,0,1-.4.15l-1.37-.23c.6-.74.89-1.64,1.85-2a13.67,13.67,0,0,0,2.33-1.44Z"/><path class="b51db174-5d53-429a-b79d-e66b43f07816" d="M78.34,68.42c.17.59.31,1.12.47,1.64a.42.42,0,0,1-.11.43c-.38.53-.77,1.06-1.14,1.61-.14.2-.25.22-.45.07-.89-.65-.92-.75-.29-1.64Z"/><path class="b51db174-5d53-429a-b79d-e66b43f07816" d="M13.14,25.13c.64-2.64,2.21-4.56,3.79-6.51a2.34,2.34,0,0,1-.56,2Z"/><path class="b51db174-5d53-429a-b79d-e66b43f07816" d="M76.77,52.83l-1.19-.38c-.19-.07-.1-.18,0-.28l1.81-2.54c.15-.21.25-.21.36,0s.31.69.49,1a.35.35,0,0,1,0,.39c-.4.54-.79,1.1-1.18,1.64C77,52.8,76.9,52.9,76.77,52.83Z"/><path class="b51db174-5d53-429a-b79d-e66b43f07816" d="M24.53,13.24a7.53,7.53,0,0,0,.17-1.92,2.18,2.18,0,0,1,.54-1.66c.63-.81.6-.82,1.45-.21.28.2.35.34.11.65C26.06,11.09,25.34,12.12,24.53,13.24Z"/><path class="b51db174-5d53-429a-b79d-e66b43f07816" d="M89.89,22.63c-.49.69-.93,1.29-1.35,1.9a.48.48,0,0,1-.39.21l-1.71.14c.65-.9,1.25-1.74,1.84-2.58.1-.15.22-.11.37-.07C89,22.37,89.43,22.49,89.89,22.63Z"/><path class="b51db174-5d53-429a-b79d-e66b43f07816" d="M68.54,66A5.72,5.72,0,0,1,67,70.6c-.17-.53-.35-1-.52-1.57a.35.35,0,0,1,.07-.29Z"/><path class="b51db174-5d53-429a-b79d-e66b43f07816" d="M39.13,65.35c-.45.63-.88,1.24-1.32,1.84-.07.1-.12.23-.28.14A3,3,0,0,0,36,67.19l1.62-2.27a.22.22,0,0,1,.31-.08Z"/><path class="b51db174-5d53-429a-b79d-e66b43f07816" d="M92.29,51.28,91.07,51c-.24-.05-.15-.18-.07-.29l1.45-2c.15-.21.26-.18.39,0l0,0c.81.82.81.82.14,1.76l-.46.63C92.49,51.22,92.44,51.35,92.29,51.28Z"/><path class="b51db174-5d53-429a-b79d-e66b43f07816" d="M2.08,56.69a6.88,6.88,0,0,1-.81-1.12c-.19-.28.06-.42.19-.57.32-.37.42-1,1-1.06.35,0,.74.23,1.12.35.15.06.17.15.07.28Z"/><path class="b51db174-5d53-429a-b79d-e66b43f07816" d="M78.87,35.45l1.68-2.34a.22.22,0,0,1,.34-.07l0,0c.31.24.82.31.92.75.07.28-.9,1.17-1.25,1.25Z"/><path class="b51db174-5d53-429a-b79d-e66b43f07816" d="M66.68,50.31h0c.16.9-.39,1.57-.7,2.32,0,.08-.1.16-.19.14s-.11-.13-.09-.21a6,6,0,0,0-.6-3,2,2,0,0,1-.23-1,1.43,1.43,0,0,1,.83.69c.21.3.39.62.61.91C66.38,50.23,66.44,50.49,66.68,50.31Z"/><path class="b51db174-5d53-429a-b79d-e66b43f07816" d="M38.07,6.43q-2.39,3.3-4.75,6.62C33.74,11.34,36.09,8.06,38.07,6.43Z"/><path class="b51db174-5d53-429a-b79d-e66b43f07816" d="M72.94,18.05a1.72,1.72,0,0,1-1.26,1.1,12.82,12.82,0,0,0-1.72.57c.41-.59.83-1.17,1.25-1.76.1-.16.24-.16.4-.14Z"/><path class="b51db174-5d53-429a-b79d-e66b43f07816" d="M89.48,24.66c.39-.54.74-1,1.08-1.51.1-.15.2-.15.34-.06l.24.11c1,.48,1,.58.23,1.41a.43.43,0,0,1-.37.13Z"/><path class="b51db174-5d53-429a-b79d-e66b43f07816" d="M79.23,71.2a2.84,2.84,0,0,0,1.56,1.61,3.42,3.42,0,0,1-2.41.1c-.22-.08-.26-.17-.11-.37C78.58,72.13,78.87,71.7,79.23,71.2Z"/><path class="b51db174-5d53-429a-b79d-e66b43f07816" d="M19.52,68.48a8.24,8.24,0,0,0,3.31-.68,8.94,8.94,0,0,1-.92,1.47c-.12.14-.24.08-.37,0A10.73,10.73,0,0,1,19.52,68.48Z"/><path class="b51db174-5d53-429a-b79d-e66b43f07816" d="M78.69,51.82a11.58,11.58,0,0,1,.83,2.64l-1.73-1.09c-.12-.08-.11-.15,0-.25Z"/><path class="b51db174-5d53-429a-b79d-e66b43f07816" d="M94.82,53a4.63,4.63,0,0,0-1.41-1.2c-.18-.1-.14-.19,0-.33l.71-1A6,6,0,0,1,94.82,53Z"/><path class="b51db174-5d53-429a-b79d-e66b43f07816" d="M50.07,54.13a5.6,5.6,0,0,0,1.33-2.69c0-.13.07-.19.2-.18s.17.09.18.2a2.22,2.22,0,0,1-.14,1,4,4,0,0,1-1.27,1.62A.27.27,0,0,1,50.07,54.13Z"/><path class="b51db174-5d53-429a-b79d-e66b43f07816" d="M23.17,79.58c-.2.29-.36.49-.49.71a.39.39,0,0,1-.57.18c-.22-.09-.45-.15-.68-.24s-.37,0-.35-.22.27-.17.43-.18A10.15,10.15,0,0,0,23.17,79.58Z"/><path class="b51db174-5d53-429a-b79d-e66b43f07816" d="M6.78,43.69a3,3,0,0,0,1.36.42,6.83,6.83,0,0,1-.79,1.19A3.26,3.26,0,0,1,6.78,43.69Z"/><path class="b51db174-5d53-429a-b79d-e66b43f07816" d="M.73,54.56A10.75,10.75,0,0,1,0,52.86l1.24.57c.18.07.17.18.07.31Z"/><path class="b51db174-5d53-429a-b79d-e66b43f07816" d="M94.06,24.86a11.33,11.33,0,0,1-1.68-.08c.27-.74.34-.76,1-.38A2,2,0,0,1,94.06,24.86Z"/><path class="b51db174-5d53-429a-b79d-e66b43f07816" d="M28.66,35.5c0,.29.06.61-.34.61-.21,0-.51,0-.47-.33S28,35,28.39,35,28.52,35.38,28.66,35.5Z"/><path class="b51db174-5d53-429a-b79d-e66b43f07816" d="M23.85,8.27l.24,0c1,.2,1,.2.35,1C24.25,9,24.07,8.65,23.85,8.27Z"/><path class="b51db174-5d53-429a-b79d-e66b43f07816" d="M73.61,18.62c.49-.61,1-.15,1.37-.13Z"/><path class="b51db174-5d53-429a-b79d-e66b43f07816" d="M29.21,36.92a1.39,1.39,0,0,1,0-.32c0-.18-.07-.38.07-.54s.12,0,.14,0a.67.67,0,0,1,0,.6C29.38,36.74,29.32,36.78,29.21,36.92Z"/><polygon class="b51db174-5d53-429a-b79d-e66b43f07816" points="69.27 51.37 69.28 51.4 69.25 51.4 69.27 51.37"/><path class="b51db174-5d53-429a-b79d-e66b43f07816" d="M43.68,14.57a.56.56,0,0,1,0-.08.33.33,0,0,1,0,.06h-.08Z"/><path class="b51db174-5d53-429a-b79d-e66b43f07816" d="M59.05,13.16s.08-.07.13,0l-.07.07Z"/><polygon class="b51db174-5d53-429a-b79d-e66b43f07816" points="42.8 9.37 42.82 9.41 42.79 9.44 42.76 9.41 42.8 9.37"/><path class="b51db174-5d53-429a-b79d-e66b43f07816" d="M53.9,8.42s0,0,0-.06v0l0,0Z"/><path class="b51db174-5d53-429a-b79d-e66b43f07816" d="M67.73,14.75v.08l0,0,0-.05Z"/><path class="b51db174-5d53-429a-b79d-e66b43f07816" d="M48.86,71.81v0l-.07,0a.08.08,0,0,1,0,0Z"/><path class="b51db174-5d53-429a-b79d-e66b43f07816" d="M51.4,74s0,.1-.08,0,0-.07,0-.09Z"/><path class="b51db174-5d53-429a-b79d-e66b43f07816" d="M27.52,77.39s0-.08.08-.06l-.05.1Z"/><path class="b51db174-5d53-429a-b79d-e66b43f07816" d="M37.1,77.71l.11-.11.06.08a.14.14,0,0,1-.18,0Z"/><path class="b51db174-5d53-429a-b79d-e66b43f07816" d="M37.09,77.7v.07a0,0,0,0,1,0,0,.05.05,0,0,0,0,0Z"/><path class="b51db174-5d53-429a-b79d-e66b43f07816" d="M56.7,64.79s.06-.07.07-.06,0,.08,0,.11Z"/><polygon class="b51db174-5d53-429a-b79d-e66b43f07816" points="61.26 80.28 61.23 80.29 61.23 80.26 61.26 80.28"/><path class="b51db174-5d53-429a-b79d-e66b43f07816" d="M61.07,80.52s0-.11.08-.07,0,.08,0,.12S61.09,80.54,61.07,80.52Z"/><path class="b51db174-5d53-429a-b79d-e66b43f07816" d="M12.74,53.85s0-.05,0-.07h0l0,.07Z"/><polygon class="b51db174-5d53-429a-b79d-e66b43f07816" points="63.99 72.4 64.03 72.37 63.99 72.39 63.99 72.4"/><path class="a8d34f40-95a5-4baf-8783-0ff910fd0043" d="M62.79,30a.66.66,0,0,0-.15-.88c-5-5.21-11.12-7.59-18.3-6.58-7.34,1-12.66,5.07-16,11.65-.08.15-.29.33-.11.5a.74.74,0,0,0,.68.17.88.88,0,0,0,.63-.57.82.82,0,0,1,.31-.4,18.45,18.45,0,0,0,2.36-2,.78.78,0,0,1,1.33.4,7.88,7.88,0,0,1,.2,2.17,2.21,2.21,0,0,1-.21.8.56.56,0,0,1-1,.11,4,4,0,0,1-.34-.76,1.35,1.35,0,0,0-.43-.71c-.27.71-1.2,1.16-.74,2.26.16-.32.2-.63.43-.62s.24.3.36.47l.21.33c.48-.51.65-.54,1.27-.23.06,0,.14,0,.17.11.23.29.37.16.54-.07a1.74,1.74,0,0,1,.67-.49c.14-.08.22,0,.27.12a.17.17,0,0,1-.1.25,1.67,1.67,0,0,1-.3.08c-.29,0-.44.19-.33.51s.33.38.61.21a1.2,1.2,0,0,1,.89-.1,5,5,0,0,1,2.06,1.14H32.6c-.29,0-.44,0-.44.4,0,3.12,0,6.25,0,9.37,0,.3.09.39.39.39q4.37,0,8.75,0c.27,0,.37-.09.36-.36,0-.54,0-1.08,0-1.61,0-.35-.09-.44-.44-.44-1.28,0-2.57,0-3.85,0-1.1,0-1.08,0-1.1-1.11,0-.42.13-.48.5-.48,1.35,0,2.71,0,4.06,0,.35,0,.5-.08.48-.46a10.14,10.14,0,0,1,0-1.35c0-.4-.08-.54-.51-.53-1.18,0-2.36,0-3.54,0-1,0-1,0-1-1,0-.41.1-.53.52-.52,1.44,0,2.88,0,4.32,0,.17,0,.45.07.41-.24-.11-.77.42-1.25.75-1.82a1.16,1.16,0,0,1,1.33-.68c.09,0,.18,0,.23,0,.25-.39.61-.32,1-.27.16,0,.44,0,.32-.24s.09-.44.27-.56a3.6,3.6,0,0,1,1.15-.46,2.51,2.51,0,0,0,1.92-1.32,1.21,1.21,0,0,0,1.11.56c.63,0,.84.43.61,1-.11.29-.34.52-.34.87a10.69,10.69,0,0,1,1.81.3.88.88,0,0,0,1.11-.59.48.48,0,0,1,.48-.32c.47,0,.62.3.74.66a1.51,1.51,0,0,0,.52.93c.23.14.4.14.39-.2s0-.56.41-.72a2.84,2.84,0,0,0,.74-.55c.16-.15.42-.3.08-.57-.15-.12-.12-.35,0-.54a6.61,6.61,0,0,1,1.68-.84s0,0,.09,0c.84.37,1,.31,1.5-.49l.18-.31a.72.72,0,0,1,1.1-.31c.12.08.23.15.35,0,.31-.45.86-.72,1-1.3,0-.09,0-.14.17-.1s.39-.12.58-.23c-.53-.5-.57-.71-.27-1.34C62.58,30.37,62.68,30.16,62.79,30ZM41.1,37.8c-.2,0-.41,0-.71,0l.86-.83c.26-.26.39-.11.44.17A.63.63,0,0,1,41.1,37.8ZM38,36.14c-.52-.79-.5-.86.24-1.36a6.49,6.49,0,0,1,2.34-1.19,2.7,2.7,0,0,1,1.73.19C40.54,34.16,38.64,34,38,36.14Zm4.77-4.8a1.07,1.07,0,0,1-.31,0c-.35-.05-.45.1-.43.44s.13.52-.09.62a2,2,0,0,1-1,0c-.15,0-.11-.19-.11-.3V29.21c0-.17,0-.37.25-.35a12.16,12.16,0,0,1,1.91.05,1.25,1.25,0,0,1,1.17,1.34A1.31,1.31,0,0,1,42.73,31.34Zm4.77,2.09c-.27-.09-.42-.22-.37-.49a.19.19,0,0,1,.29-.13C47.64,33,47.5,33.19,47.5,33.43Zm1.32-1c-.35,0-.76.16-.91-.41,0-.11-.3-.19-.57-.17a.65.65,0,0,0-.64.45c0,.15-.59.21-.93.17l-.14,0h0a.12.12,0,0,1-.08,0c-.09-.09,0-.2,0-.29.36-1,.73-2,1.06-3,.14-.42.45-.28.71-.29.55-.17.72.14.87.6.27.87.59,1.73.92,2.58C49.26,32.41,49.14,32.48,48.82,32.45Zm3.94.1a1.81,1.81,0,0,1-1.91-1.88,1.88,1.88,0,0,1,1.93-1.93,2,2,0,0,1,1.91,1.94A1.84,1.84,0,0,1,52.76,32.55Z"/><path class="b51db174-5d53-429a-b79d-e66b43f07816" d="M52.09,30.66a1.46,1.46,0,0,1,.11-.61.63.63,0,0,1,.57-.37.6.6,0,0,1,.57.39,1.52,1.52,0,0,1,0,1.22.55.55,0,0,1-.51.37.61.61,0,0,1-.6-.34A1.52,1.52,0,0,1,52.09,30.66Z"/><path class="b51db174-5d53-429a-b79d-e66b43f07816" d="M42.34,30.48c-.31.06-.34-.13-.35-.39s0-.42.37-.4.55.08.55.41S42.64,30.49,42.34,30.48Z"/><path class="b51db174-5d53-429a-b79d-e66b43f07816" d="M47.34,30.09l.2.59c.19.62.19.62-.54.5Z"/></g></g></svg>