<svg xmlns="http://www.w3.org/2000/svg" viewBox="0 0 93.2 32.46"><defs><style>.ee574174-bcbd-426d-92b5-99718a081132{fill:#635894;stroke:#fff;stroke-miterlimit:10;stroke-width:0.19px;}</style></defs><title>51</title><g id="f9d46f7a-f15a-42fa-b1d1-ce0d531d8968" data-name="Слой 2"><g id="a09c8c5c-c2e9-4945-b445-314fdde11392" data-name="Слой 1"><path class="ee574174-bcbd-426d-92b5-99718a081132" d="M11.8,32H8.41L3.17,6.83V32.05H.1V.41H5l5.2,25.27,5-25.27h4.92V32.05H16.82V6.61Z"/><path class="ee574174-bcbd-426d-92b5-99718a081132" d="M23.51,8.05c0-4.83,2.39-8,7.23-8S38,3.22,38,8.05V24.41c0,4.79-2.39,8-7.27,8s-7.23-3.16-7.23-7.95ZM27,24.59c0,2.89,1.22,4.57,3.75,4.57s3.75-1.67,3.75-4.57V7.87c0-2.85-1.18-4.56-3.75-4.56S27,5,27,7.87Z"/><path class="ee574174-bcbd-426d-92b5-99718a081132" d="M48.41.41c5,0,7.05,2.53,7.05,7.23v2.58c0,3.48-1.22,5.65-3.93,6.51,2.89.86,4,3.21,4,6.6v4.92a8,8,0,0,0,.63,3.8H52.56A8.39,8.39,0,0,1,52,28.21v-5c0-3.57-1.67-4.7-4.61-4.7H44.88V32.05H41.36V.41ZM47.5,15.33c2.81,0,4.48-.91,4.48-4.34V8c0-2.85-1-4.34-3.66-4.34H44.88V15.33Z"/><path class="ee574174-bcbd-426d-92b5-99718a081132" d="M62.73,25.68l-1.22,6.37H58.26L64.31.41h5.11l6.06,31.64H72l-1.22-6.37Zm.46-3h7L66.66,4.39Z"/><path class="ee574174-bcbd-426d-92b5-99718a081132" d="M81.35,32.05H78.19V.41h4.47L90,23.28V.41H93.1V32.05H89.44L81.35,6.47Z"/></g></g></svg>