<svg xmlns="http://www.w3.org/2000/svg" viewBox="0 0 144.92 42.68"><defs><style>.bf321999-2257-4beb-8a91-d400ab7fd006{fill:#f79420;}.b04a1f1a-fd29-4ee6-8d3d-8a0232784076{fill:#fcb831;}.fddbb2b0-569e-4356-9e9c-f9c6bd9b5218{fill:#fddd2e;}.a718ddda-3ed4-435e-b85b-7448c155273a{fill:#c6c7c8;}</style></defs><title>52</title><g id="aa82f16a-7959-46f1-b202-61baf4f136a6" data-name="Слой 2"><g id="afbd88f9-fe81-44d3-a998-50224606ecfc" data-name="Слой 1"><path class="bf321999-2257-4beb-8a91-d400ab7fd006" d="M38.68,40.7v-.05a.71.71,0,0,0,.28-.29,1,1,0,0,0,.1-.42,1,1,0,0,0-.1-.41.91.91,0,0,0-.27-.32,1.44,1.44,0,0,0-.43-.21,2,2,0,0,0-.58-.08,2.28,2.28,0,0,0-.76.13,2.05,2.05,0,0,0-.65.38l.42.55a1.56,1.56,0,0,1,1-.34.78.78,0,0,1,.46.11.34.34,0,0,1,.14.31.3.3,0,0,1-.1.25.42.42,0,0,1-.3.09H37v.7h.91c.32,0,.48.13.48.38a.41.41,0,0,1-.17.35.91.91,0,0,1-.53.13,1.91,1.91,0,0,1-.61-.09,2,2,0,0,1-.56-.31l-.43.59.34.24a2.92,2.92,0,0,0,.36.17,2.59,2.59,0,0,0,.4.09,3.19,3.19,0,0,0,.45,0,2,2,0,0,0,.68-.1,1.4,1.4,0,0,0,.49-.24.94.94,0,0,0,.29-.37,1,1,0,0,0,.1-.47.85.85,0,0,0-.14-.51.7.7,0,0,0-.4-.29"/><polygon class="bf321999-2257-4beb-8a91-d400ab7fd006" points="41.12 41.11 42.81 41.11 42.81 40.4 41.12 40.4 41.12 39.72 43.02 39.72 43.02 39 40.33 39 40.33 42.6 43.11 42.6 43.11 41.88 41.12 41.88 41.12 41.11"/><path class="bf321999-2257-4beb-8a91-d400ab7fd006" d="M46.9,39.35a1.58,1.58,0,0,0-.46-.26,1.76,1.76,0,0,0-.58-.1h-1.6V42.6h.8v-1h.74a1.81,1.81,0,0,0,.58-.09,1.22,1.22,0,0,0,.48-.25,1.34,1.34,0,0,0,.32-.42,1.36,1.36,0,0,0,.12-.56,1.32,1.32,0,0,0-.11-.53,1.18,1.18,0,0,0-.29-.41m-.6,1.39a.72.72,0,0,1-.5.16h-.74V39.72h.77a.66.66,0,0,1,.49.16.56.56,0,0,1,.16.43.57.57,0,0,1-.18.43"/><polygon class="bf321999-2257-4beb-8a91-d400ab7fd006" points="50.8 40.41 49.22 40.41 49.22 39 48.41 39 48.41 42.6 49.22 42.6 49.22 41.15 50.8 41.15 50.8 42.6 51.61 42.6 51.61 39 50.8 39 50.8 40.41"/><path class="bf321999-2257-4beb-8a91-d400ab7fd006" d="M56,39.46a1.6,1.6,0,0,0-.61-.39,2.05,2.05,0,0,0-1.54,0,2,2,0,0,0-.61.4,1.73,1.73,0,0,0-.39.6,2,2,0,0,0-.14.73,2.08,2.08,0,0,0,.14.75,1.73,1.73,0,0,0,1,1,2.05,2.05,0,0,0,1.54,0,1.6,1.6,0,0,0,.6-.41,1.51,1.51,0,0,0,.4-.59,2,2,0,0,0,.14-.73,2,2,0,0,0-.14-.75,1.79,1.79,0,0,0-.39-.59m-.35,1.79a1,1,0,0,1-.56.61,1.16,1.16,0,0,1-1.29-.24,1.28,1.28,0,0,1-.22-.36,1.39,1.39,0,0,1-.07-.46,1.33,1.33,0,0,1,.07-.45,1.34,1.34,0,0,1,.22-.37,1,1,0,0,1,.35-.24,1,1,0,0,1,.47-.1,1.14,1.14,0,0,1,.46.09,1.09,1.09,0,0,1,.35.24,1,1,0,0,1,.22.37,1.35,1.35,0,0,1,.07.46,1.33,1.33,0,0,1-.07.45"/><path class="bf321999-2257-4beb-8a91-d400ab7fd006" d="M60.17,40.7v-.05a.69.69,0,0,0,.25-.26.93.93,0,0,0-.23-1.13,1.49,1.49,0,0,0-.93-.26H57.67v3.6h1.74a1.8,1.8,0,0,0,.6-.09,1,1,0,0,0,.41-.23.76.76,0,0,0,.25-.34,1.15,1.15,0,0,0,.08-.41,1,1,0,0,0-.16-.53.84.84,0,0,0-.42-.3m-1.7-1h.8c.31,0,.46.12.46.36a.37.37,0,0,1-.11.27.54.54,0,0,1-.33.1h-.82Zm1,2.22h-1v-.84h1a.62.62,0,0,1,.39.11.37.37,0,0,1,.15.31q0,.42-.54.42"/><path class="bf321999-2257-4beb-8a91-d400ab7fd006" d="M65,39.46a1.64,1.64,0,0,0-.6-.39,2,2,0,0,0-.78-.15,1.92,1.92,0,0,0-.77.15,2.08,2.08,0,0,0-.61.4,1.73,1.73,0,0,0-.39.6,2,2,0,0,0-.14.73,1.89,1.89,0,0,0,.14.75,1.79,1.79,0,0,0,.39.59,1.87,1.87,0,0,0,.61.39,1.92,1.92,0,0,0,.77.15,2,2,0,0,0,.78-.15,1.78,1.78,0,0,0,.6-.41,1.6,1.6,0,0,0,.39-.59,1.8,1.8,0,0,0,.15-.73,1.86,1.86,0,0,0-.15-.75,1.79,1.79,0,0,0-.39-.59m-.35,1.79a.93.93,0,0,1-.21.36,1,1,0,0,1-.35.25,1,1,0,0,1-.47.1,1,1,0,0,1-.46-.1.88.88,0,0,1-.35-.24,1,1,0,0,1-.22-.36,1.39,1.39,0,0,1-.08-.46,1.33,1.33,0,0,1,.08-.45,1.12,1.12,0,0,1,.21-.37,1.21,1.21,0,0,1,.35-.24,1,1,0,0,1,.47-.1,1.11,1.11,0,0,1,.46.09,1,1,0,0,1,.57.61,1.35,1.35,0,0,1,.07.46,1.33,1.33,0,0,1-.07.45"/><path class="bf321999-2257-4beb-8a91-d400ab7fd006" d="M67.85,38.54a1,1,0,0,0,.39.07,1,1,0,0,0,.39-.07,1,1,0,0,0,.29-.2,1.09,1.09,0,0,0,.18-.3,1.06,1.06,0,0,0,.06-.37h-.61a.32.32,0,0,1-.54.24.32.32,0,0,1-.09-.24h-.6a1.12,1.12,0,0,0,.06.38.83.83,0,0,0,.18.3,1,1,0,0,0,.29.19"/><polygon class="bf321999-2257-4beb-8a91-d400ab7fd006" points="67.42 41.4 67.42 39 66.62 39 66.62 42.6 67.41 42.6 69.06 40.34 69.06 42.6 69.87 42.6 69.87 39 69.16 39 67.42 41.4"/><path class="bf321999-2257-4beb-8a91-d400ab7fd006" d="M75.94,39.42a1.84,1.84,0,0,0-.6-.37,2.09,2.09,0,0,0-.76-.13,2.39,2.39,0,0,0-.77.12,2,2,0,0,0-.66.38l.44.58a1.4,1.4,0,0,1,1-.34,1.15,1.15,0,0,1,.69.2.8.8,0,0,1,.35.55H74.27v.73H75.6a.92.92,0,0,1-.37.59,1.17,1.17,0,0,1-.71.2,1.44,1.44,0,0,1-1-.39L73,42.1a1.92,1.92,0,0,0,.68.44,2.37,2.37,0,0,0,.83.14,2.22,2.22,0,0,0,.79-.15,1.91,1.91,0,0,0,.6-.4,1.88,1.88,0,0,0,.39-.6,2,2,0,0,0,.12-.74,2.13,2.13,0,0,0-.12-.78,2,2,0,0,0-.38-.59"/><polygon class="bf321999-2257-4beb-8a91-d400ab7fd006" points="80.77 39 79.77 39 78.76 40.33 78.36 40.37 78.36 39 77.57 39 77.57 42.6 78.36 42.6 78.36 41.06 78.76 41.06 79.86 42.6 80.9 42.6 79.43 40.68 80.77 39"/><path class="bf321999-2257-4beb-8a91-d400ab7fd006" d="M84.1,41.83a1.56,1.56,0,0,1-.57.11,1.16,1.16,0,0,1-.47-.09.93.93,0,0,1-.35-.23.88.88,0,0,1-.24-.35,1.19,1.19,0,0,1-.08-.47,1.14,1.14,0,0,1,.08-.46A1,1,0,0,1,82.7,40a1.13,1.13,0,0,1,.36-.24,1.42,1.42,0,0,1,.48-.08,1.53,1.53,0,0,1,.54.09,1.16,1.16,0,0,1,.43.25l.45-.58a1.86,1.86,0,0,0-.62-.37,2.15,2.15,0,0,0-.77-.13,2.19,2.19,0,0,0-.83.15,1.85,1.85,0,0,0-1,1,2,2,0,0,0-.14.73,1.84,1.84,0,0,0,.15.76,1.52,1.52,0,0,0,.39.59,1.47,1.47,0,0,0,.59.38,2.11,2.11,0,0,0,.77.14A2.2,2.2,0,0,0,85,42.1l-.46-.57a1.35,1.35,0,0,1-.47.3"/><polygon class="bf321999-2257-4beb-8a91-d400ab7fd006" points="86.13 42.6 86.94 42.6 86.94 39.74 88.47 39.74 88.47 42.6 89.28 42.6 89.28 39 86.13 39 86.13 42.6"/><path class="bf321999-2257-4beb-8a91-d400ab7fd006" d="M93.21,39.35a1.58,1.58,0,0,0-.46-.26,1.72,1.72,0,0,0-.58-.1h-1.6V42.6h.8v-1h.74a1.85,1.85,0,0,0,.58-.09,1.22,1.22,0,0,0,.48-.25,1.21,1.21,0,0,0,.32-.42,1.36,1.36,0,0,0,.11-.56,1.32,1.32,0,0,0-.1-.53,1.18,1.18,0,0,0-.29-.41m-.6,1.39a.74.74,0,0,1-.51.16h-.73V39.72h.76a.64.64,0,0,1,.49.16.53.53,0,0,1,.17.43.57.57,0,0,1-.18.43"/><polygon class="bf321999-2257-4beb-8a91-d400ab7fd006" points="95.52 41.11 97.21 41.11 97.21 40.4 95.52 40.4 95.52 39.72 97.41 39.72 97.41 39 94.72 39 94.72 42.6 97.5 42.6 97.5 41.88 95.52 41.88 95.52 41.11"/><path class="bf321999-2257-4beb-8a91-d400ab7fd006" d="M101,41.83a1.56,1.56,0,0,1-.57.11,1.14,1.14,0,0,1-.46-.09,1,1,0,0,1-.36-.23,1,1,0,0,1-.24-.35,1.4,1.4,0,0,1-.08-.47,1.34,1.34,0,0,1,.08-.46,1,1,0,0,1,.23-.36,1.13,1.13,0,0,1,.36-.24,1.51,1.51,0,0,1,.48-.08,1.53,1.53,0,0,1,.54.09,1.2,1.2,0,0,1,.44.25l.45-.58a1.9,1.9,0,0,0-.63-.37,2.07,2.07,0,0,0-.77-.13,2.23,2.23,0,0,0-.83.15,1.77,1.77,0,0,0-.62.41,1.73,1.73,0,0,0-.39.6,2,2,0,0,0-.14.73,2,2,0,0,0,.14.76,1.52,1.52,0,0,0,.39.59,1.58,1.58,0,0,0,.6.38,2.15,2.15,0,0,0,.77.14,2.2,2.2,0,0,0,1.55-.58l-.46-.57a1.5,1.5,0,0,1-.48.3"/><path class="bf321999-2257-4beb-8a91-d400ab7fd006" d="M105.23,41.83a1.56,1.56,0,0,1-.57.11,1.16,1.16,0,0,1-.47-.09,1,1,0,0,1-.36-.23.86.86,0,0,1-.23-.35,1.19,1.19,0,0,1-.08-.47,1.14,1.14,0,0,1,.08-.46.86.86,0,0,1,.23-.36,1,1,0,0,1,.36-.24,1.42,1.42,0,0,1,.48-.08,1.53,1.53,0,0,1,.54.09,1.09,1.09,0,0,1,.43.25l.45-.58a1.86,1.86,0,0,0-.62-.37,2.11,2.11,0,0,0-.77-.13,2.16,2.16,0,0,0-.83.15,1.68,1.68,0,0,0-.62.41,1.62,1.62,0,0,0-.4.6,2,2,0,0,0-.14.73,2,2,0,0,0,.14.76,1.79,1.79,0,0,0,.39.59,1.58,1.58,0,0,0,.6.38,2.15,2.15,0,0,0,.77.14,2.19,2.19,0,0,0,1.55-.58l-.46-.57a1.57,1.57,0,0,1-.47.3"/><polygon class="bf321999-2257-4beb-8a91-d400ab7fd006" points="74.25 17.81 54.08 17.81 40.95 30.95 61.12 30.95 74.25 17.81"/><polygon class="b04a1f1a-fd29-4ee6-8d3d-8a0232784076" points="77.55 15.47 97.73 15.47 84.59 2.33 64.42 2.33 77.55 15.47"/><polygon class="bf321999-2257-4beb-8a91-d400ab7fd006" points="54.08 15.47 74.25 15.47 61.12 2.33 40.94 2.33 54.08 15.47"/><polygon class="b04a1f1a-fd29-4ee6-8d3d-8a0232784076" points="97.73 17.81 77.55 17.81 64.42 30.95 84.59 30.95 97.73 17.81"/><polygon class="fddbb2b0-569e-4356-9e9c-f9c6bd9b5218" points="119.58 17.81 101.03 17.81 87.9 30.95 106.44 30.95 119.58 17.81"/><polygon class="fddbb2b0-569e-4356-9e9c-f9c6bd9b5218" points="87.89 2.33 101.03 15.47 119.57 15.47 106.44 2.33 87.89 2.33"/><path class="a718ddda-3ed4-435e-b85b-7448c155273a" d="M121.2,26.47a5.65,5.65,0,1,0,5.65,5.65,5.65,5.65,0,0,0-5.65-5.65m0,9a3.31,3.31,0,1,1,3.31-3.3,3.3,3.3,0,0,1-3.31,3.3"/><path class="a718ddda-3ed4-435e-b85b-7448c155273a" d="M26.88,26.47a5.65,5.65,0,1,0,5.64,5.65,5.66,5.66,0,0,0-5.64-5.65m0,9a3.31,3.31,0,1,1,3.31-3.3,3.31,3.31,0,0,1-3.31,3.3"/><polygon class="a718ddda-3ed4-435e-b85b-7448c155273a" points="0 33.28 16.1 33.28 16.1 30.95 1.98 30.95 0 33.28"/><polygon class="a718ddda-3ed4-435e-b85b-7448c155273a" points="129.46 0 107.4 0 28.27 0 26.28 2.33 106.44 2.33 119.57 15.47 120.74 16.64 119.58 17.81 106.44 30.95 40.95 30.95 40.94 30.95 38.61 33.28 107.4 33.28 109.74 30.95 124.05 16.64 109.74 2.33 128.5 2.33 142.58 16.42 142.58 30.74 131.35 30.74 131.35 33.08 144.92 33.08 144.92 15.47 129.46 0"/><polygon class="a718ddda-3ed4-435e-b85b-7448c155273a" points="48.05 20.63 10.82 20.63 10.33 21.13 8.76 22.97 45.72 22.97 48.05 20.63"/><polygon class="a718ddda-3ed4-435e-b85b-7448c155273a" points="45.72 10.31 19.63 10.31 18.8 11.15 17.52 12.65 48.05 12.65 45.72 10.31"/></g></g></svg>