<svg xmlns="http://www.w3.org/2000/svg" viewBox="0 0 115.78 15.2"><defs><style>.a2e92ab6-630b-4f3d-8bad-b7be1cb1929c{fill:#d1d1e0;}</style></defs><title>53</title><g id="ba5dcd16-a007-460d-87df-e1d03f8fee1b" data-name="Слой 2"><g id="ff2308fc-2e77-4a10-b3a2-6b04fd969446" data-name="Слой 1"><path class="a2e92ab6-630b-4f3d-8bad-b7be1cb1929c" d="M5.79,14.42a1.77,1.77,0,0,0,1.64-2V5.13h3.1a.22.22,0,0,1,.24.22V13c0,1,.44,1.67,1,1.62,2.06-.23,4.35-2.64,4.37-6a3,3,0,0,0-1.37-2.84l0,0a1.86,1.86,0,0,1,.18.81,1.66,1.66,0,0,1-1.67,1.67,1.63,1.63,0,0,1-1.67-1.67A1.69,1.69,0,0,1,13.54,5c2.17,0,3.15,1.69,3.15,3.71,0,2.93-2.06,6.53-5.46,6.53a3.8,3.8,0,0,1-3.45-1.83,3,3,0,0,1-3,1.8A3.55,3.55,0,0,1,1,11.77V5.59H.14C.05,5.59,0,5.48,0,5.36s.05-.23.14-.23H4c.16,0,.29.07.29.22v7.18C4.33,13.85,5,14.42,5.79,14.42Z"/><path class="a2e92ab6-630b-4f3d-8bad-b7be1cb1929c" d="M22.49,12.94c0,.74.35,1.11.73,1.11s.74-.37.74-1.11c0-.11.13-.16.23-.16s.23.05.23.16a2.37,2.37,0,0,1-2.64,2.22,2.37,2.37,0,0,1-2.63-2.22V5.6H18.09c-.09,0-.15-.11-.15-.23s.06-.23.15-.23h4.16a.2.2,0,0,1,.23.22v7.58ZM20.83.18a1.66,1.66,0,1,1,0,3.31,1.68,1.68,0,0,1-1.65-1.65A1.66,1.66,0,0,1,20.83.18Z"/><path class="a2e92ab6-630b-4f3d-8bad-b7be1cb1929c" d="M32,5.59a2.73,2.73,0,0,0-2,1V15H26.71V5.59H25.65c-.1,0-.15-.11-.15-.23s.05-.23.15-.23h4a.21.21,0,0,1,.19.22V6H30A4,4,0,0,1,32.84,5c1.69,0,3.61.88,3.61,3.4V13c0,.74.35,1.11.73,1.11s.74-.37.74-1.11c0-.11.13-.16.23-.16s.23.05.23.16a2.37,2.37,0,0,1-2.64,2.22A2.37,2.37,0,0,1,33.11,13v-6C33.12,6,32.68,5.59,32,5.59Z"/><path class="a2e92ab6-630b-4f3d-8bad-b7be1cb1929c" d="M39.69,10.05a4.86,4.86,0,0,1,5-5.1,4.94,4.94,0,0,1,5,5.27s0,.14-.13.14H43.17c0,3.21.67,4.35,2.13,4.35,1.65,0,3.35-.88,3.58-2.57,0-.09.11-.15.23-.15s.23.06.23.15c-.13,1.73-2,3-4.11,3A5.37,5.37,0,0,1,39.69,10.05Zm6.73-.18V7.63c0-1.5-.81-2.27-1.64-2.27s-1.63.77-1.63,2.27V9.87Z"/><path class="a2e92ab6-630b-4f3d-8bad-b7be1cb1929c" d="M56.83,13.2a2.74,2.74,0,0,0,2.5,1.24c1.64,0,3.38-1,3.38-2.68V10.49a15.05,15.05,0,0,1-2.9-.67,1.17,1.17,0,0,0-1.16,1.32,1.92,1.92,0,0,0,.52,1.34,2.23,2.23,0,0,1-.12-.52,1.32,1.32,0,0,1,1.34-1.29A1.3,1.3,0,0,1,61.69,12a1.34,1.34,0,0,1-1.46,1.32,2.39,2.39,0,0,1-2.08-2.61c0-2.2,2.41-2.92,4.06-2.92,1.49,0,2.3.67,3.5.67a1.5,1.5,0,0,0,1.55-1.32,1.81,1.81,0,0,0-.54-1.31,1.25,1.25,0,0,1,.14.5,1.33,1.33,0,0,1-1.34,1.3,1.3,1.3,0,0,1-1.3-1.34A1.34,1.34,0,0,1,65.68,5a2.4,2.4,0,0,1,2.08,2.62c0,1.87-2.06,2.91-4.49,2.91v1.27c0,2.28-2.48,3.43-5,3.43-2.75,0-5.58-1.32-5.58-4,0-1.67,1.43-3.33,4.49-3.87V7.21c-2.52,0-3.94-1.53-3.94-3C53.2,2.12,55.68,1,58,1c2.85,0,4.05,1.43,4.05,2.66a1.68,1.68,0,0,1-1.76,1.7,1.74,1.74,0,0,1-1.74-1.76A1.67,1.67,0,0,1,59.86,2a3.46,3.46,0,0,0-1.47-.39c-1.22,0-1.64,1.15-1.64,2.87,0,1.36.14,2.65,1.22,2.65h1.5c.06,0,.14.15.14.28s-.07.28-.14.28H58.18c-1.34,0-1.6,1.89-1.6,3.5A5,5,0,0,0,56.83,13.2Z"/><path class="a2e92ab6-630b-4f3d-8bad-b7be1cb1929c" d="M73.88,6v9H70.53V6h-1c-.09,0-.14-.11-.14-.23s0-.23.14-.23h1V4.91C70.53,1.39,72.72,0,74.76,0c1.78,0,3.43,1,3.43,2.64a1.7,1.7,0,0,1-1.67,1.85,1.64,1.64,0,0,1-1.66-1.67,1.67,1.67,0,0,1,1.61-1.67,1.81,1.81,0,0,1,.58.08A2.44,2.44,0,0,0,75.45.6c-.83,0-1.57.53-1.57,1.82V5.54h1.9c.09,0,.15.13.15.24s-.06.22-.15.22h-1.9Z"/><path class="a2e92ab6-630b-4f3d-8bad-b7be1cb1929c" d="M84.13,15.16a4.89,4.89,0,0,1-5.28-5.09,5.28,5.28,0,0,1,10.56,0C89.41,13,87.42,15.16,84.13,15.16Zm1.76-6c0-2.43-.24-3.8-1.76-3.8s-1.76,1.37-1.76,3.8V11c0,2.43.24,3.8,1.76,3.8s1.76-1.37,1.76-3.8Z"/><path class="a2e92ab6-630b-4f3d-8bad-b7be1cb1929c" d="M96.56,15.16c-3.29,0-5.28-2.13-5.28-5.09a5.28,5.28,0,0,1,10.56,0C101.85,13,99.84,15.16,96.56,15.16Zm1.76-6c0-2.43-.24-3.8-1.76-3.8S94.8,6.72,94.8,9.15V11c0,2.43.23,3.8,1.76,3.8s1.76-1.37,1.76-3.8Z"/><path class="a2e92ab6-630b-4f3d-8bad-b7be1cb1929c" d="M107.85,15.16c-2.17,0-4.16-2.15-4.16-5.13C103.69,7.45,105.12,5,108,5A3.82,3.82,0,0,1,110.72,6l-.18-1.44V.35c0-.13,0-.16.2-.16h4.19c.1,0,.15.13.15.23s0,.23-.15.23h-1.06V13c0,.72.35,1.09.72,1.09s.73-.37.73-1.11c0-.11.13-.16.23-.16s.23,0,.23.16a2.29,2.29,0,0,1-2.47,2.19,2.41,2.41,0,0,1-2.41-1.64A3.88,3.88,0,0,1,107.85,15.16Zm1.1-.9c.89,0,1.78-.86,1.78-2.52V8c0-1.5-.87-2.27-1.76-2.27s-1.76.77-1.76,2.27v3.8C107.2,13.44,108.08,14.26,109,14.26Z"/></g></g></svg>