<svg xmlns="http://www.w3.org/2000/svg" viewBox="0 0 125.5 45.76"><defs><style>.b1f5f054-0f42-4e1e-a966-32a3357eb33d{fill:#3a987c;fill-rule:evenodd;}</style></defs><title>54</title><g id="b2793ece-55a4-4f06-89f7-4f7e584d7f97" data-name="Слой 2"><g id="ae421be1-e8af-4584-a01e-47d18da2ce7b" data-name="Слой 1"><path class="b1f5f054-0f42-4e1e-a966-32a3357eb33d" d="M15.55,10v2.88h4.64a4.44,4.44,0,0,1-.56,4h6.49a2.57,2.57,0,1,1,0,5.14H22.57a2.5,2.5,0,0,1-1.18,3.05,2.48,2.48,0,0,1-1,3.57,2.94,2.94,0,0,1-2.65,4.19H15.55v2.89a7.33,7.33,0,0,0,14.66,0V30.21h5.55a7.33,7.33,0,1,0,0-14.66H30.21V10a7.33,7.33,0,1,0-14.66,0m-5,5a7.85,7.85,0,0,0,0,15.7h7.38a.95.95,0,1,0,0-1.9H14.58a.73.73,0,0,1-.72-.73.72.72,0,0,1,.72-.72H19a1,1,0,0,0,0-2H14.58a.73.73,0,0,1-.72-.73.72.72,0,0,1,.72-.72h5.16a1,1,0,0,0,1-1,1,1,0,0,0-1-1H14.58a.73.73,0,0,1-.72-.73.72.72,0,0,1,.72-.72H25.84a1,1,0,0,0,0-2.05H12.22a.73.73,0,0,1-.73-.73.73.73,0,0,1,.73-.72h4.09a2,2,0,0,0,2-2ZM0,22.88a10,10,0,0,1,10-10h2.89V10a10,10,0,1,1,20,0v2.89h2.89a10,10,0,1,1,0,20H32.87v2.89a10,10,0,0,1-20,0V32.88H10a10,10,0,0,1-10-10M91,14.3c0-4,2.44-6.18,5.75-6.18a12.71,12.71,0,0,1,3.75.48.34.34,0,0,1,.25.39l-.3,1.56c0,.23-.24.32-.52.24a10.11,10.11,0,0,0-2.59-.35c-2.13,0-3.53,1.39-3.53,3.86,0,3.1,1.34,4.16,3.43,4.16a11.15,11.15,0,0,0,3.14-.41.33.33,0,0,1,.43.26l.26,1.55a.33.33,0,0,1-.22.36,12.26,12.26,0,0,1-3.92.54c-3.76,0-5.93-1.88-5.93-6.46m14.92.21v3.78h2.64c1.77,0,2.4-1.07,2.4-2.08s-.69-1.7-2.31-1.7Zm-2.77,5V8.76a.33.33,0,0,1,.33-.33h2.11a.33.33,0,0,1,.33.33V12.4h3.2c3.28,0,4.55,2,4.55,3.74,0,2.35-1.52,4.33-4.79,4.33h-4.72a1,1,0,0,1-1-1m-47.57-5.6c0-.32.19-.57.71-.57l.91,0c2.16-.06,2.69-.69,2.69-1.48s-.71-1.39-2.66-1.39a10.58,10.58,0,0,0-3.14.51.34.34,0,0,1-.45-.22l-.38-1.45a.33.33,0,0,1,.2-.39,11.24,11.24,0,0,1,4.06-.72c3.28,0,5,1.09,5.14,3a3.12,3.12,0,0,1-1.67,3,3.13,3.13,0,0,1,2,2.94c0,2.22-2,3.67-5.17,3.67A16.56,16.56,0,0,1,53,20.18a.32.32,0,0,1-.23-.38l.32-1.56a.34.34,0,0,1,.42-.24,13.65,13.65,0,0,0,3.78.52c2,0,2.78-.77,2.78-1.7,0-.7-.58-1.33-2.91-1.4l-.92,0c-.5,0-.71-.26-.71-.58ZM83.84,10.4a2.72,2.72,0,0,0-2.9,3h5.74c0-1.63-.75-3-2.84-3m-5.73,3.9c0-3.87,2.32-6.18,5.73-6.18,3.21,0,5.07,1.74,5.48,4.71a4.61,4.61,0,0,1-.06,1.94c-.16.52-.6.79-1.33.79H81a3.13,3.13,0,0,0,3.46,3,7.82,7.82,0,0,0,3-.49.32.32,0,0,1,.44.23l.38,1.5a.31.31,0,0,1-.2.39,11.27,11.27,0,0,1-3.78.57c-3.63,0-6.15-1.8-6.15-6.46M67.57,18.13H73V10.84H71c-1.18,0-1.67.37-2,1.86Zm9.53.58-.17,4.06a.34.34,0,0,1-.33.33H74.85a.34.34,0,0,1-.33-.34l-.32-2.29H66.31L66,22.76a.35.35,0,0,1-.33.34H63.92a.33.33,0,0,1-.33-.33l-.19-4.06a.57.57,0,0,1,.57-.58h.9l1.78-6.61c.57-2.14,1.6-3.09,4.06-3.09h4.07a1,1,0,0,1,1,1v8.69h.74a.56.56,0,0,1,.57.58m28.81,11.14h1.22a2.19,2.19,0,0,0,2.17-1.31l1.44-2.88c.13-.27.24-.37.63-.37h1.91a.33.33,0,0,1,.29.48l-1.89,3.78a2.47,2.47,0,0,1-1.53,1.4,2.6,2.6,0,0,1,1.78,1.48l2.18,4.43a.33.33,0,0,1-.3.47h-2a.64.64,0,0,1-.68-.41l-1.66-3.37a2.13,2.13,0,0,0-2.25-1.39h-1.26V37a.33.33,0,0,1-.33.33h-2.11a.33.33,0,0,1-.33-.33V25.62a.33.33,0,0,1,.33-.33h2.11a.33.33,0,0,1,.33.33Zm-46,1.93v3.45a9.33,9.33,0,0,1-2.37.24c-1.62,0-2.63-.65-2.63-1.92,0-1.09,1-1.77,2.6-1.77Zm-6-4a.33.33,0,0,1-.4-.25l-.36-1.5a.34.34,0,0,1,.22-.39A14.07,14.07,0,0,1,57.42,25c3.8,0,5.21,1.44,5.21,4.72v6.46A.77.77,0,0,1,62,37a16.85,16.85,0,0,1-4.8.59c-3.11,0-5.05-1.48-5.05-3.92s1.74-3.93,5.21-3.93h2.5c0-1.84-.8-2.49-2.85-2.49a10.79,10.79,0,0,0-3.16.52m30.95,0V37a.33.33,0,0,1-.33.33H82.36A.33.33,0,0,1,82,37V27.82H78.11a.33.33,0,0,1-.33-.33V25.62a.33.33,0,0,1,.33-.33H88.72a.33.33,0,0,1,.33.33v1.87a.33.33,0,0,1-.33.33ZM67.77,37a.33.33,0,0,1-.33.33H65.33A.33.33,0,0,1,65,37V28.05a2.75,2.75,0,0,1,2.76-2.76h5.87a2.75,2.75,0,0,1,2.75,2.76v9a.33.33,0,0,1-.33.33H73.94a.33.33,0,0,1-.33-.33V28.61a.69.69,0,0,0-.74-.79H68.51a.69.69,0,0,0-.74.79Zm55-5.22v3.44a10.18,10.18,0,0,1-2.46.25c-1.68,0-2.55-.72-2.55-1.92s1-1.77,2.61-1.77Zm-6-4a.34.34,0,0,1-.41-.25l-.35-1.5a.34.34,0,0,1,.22-.39,14,14,0,0,1,4.11-.68c3.8,0,5.21,1.44,5.21,4.72v6.46a.77.77,0,0,1-.63.87,17,17,0,0,1-4.8.59c-3.12,0-5-1.48-5-3.92s1.73-3.93,5.2-3.93h2.51c0-1.84-.81-2.49-2.86-2.49a10.73,10.73,0,0,0-3.15.52m-21.13-.54a2.72,2.72,0,0,0-2.9,3h5.74c0-1.63-.74-3-2.84-3m-5.72,3.9c0-3.88,2.32-6.18,5.72-6.18,3.22,0,5.07,1.74,5.48,4.71a4.3,4.3,0,0,1-.06,1.94c-.16.52-.59.79-1.32.79H92.77a3.12,3.12,0,0,0,3.45,3,7.88,7.88,0,0,0,3-.48.32.32,0,0,1,.44.23l.38,1.5a.32.32,0,0,1-.2.39,11.29,11.29,0,0,1-3.79.57c-3.62,0-6.14-1.8-6.14-6.46"/></g></g></svg>