<svg xmlns="http://www.w3.org/2000/svg" viewBox="0 0 64.01 88.51" fill="#4674b7"><path d="M46.2 38.93h-3.12a1.17 1.17 0 0 1-1-.9.69.69 0 0 1 .41-.67.71.71 0 0 1 .74.26.54.54 0 0 1-.1.75l-.3.22a.76.76 0 0 0 1-.1 1.25 1.25 0 0 0 .37-.77l.33-2.62a5.6 5.6 0 0 0 0-.82h-1a.37.37 0 0 0-.34.27.35.35 0 0 0 .12.38.23.23 0 0 0 .26 0 .2.2 0 0 0 .08-.24c0-.1-.16-.2-.06-.34.32.1.43.3.32.6a.48.48 0 0 1-.67.21.59.59 0 0 1-.34-.56.66.66 0 0 1 .38-.58 1.2 1.2 0 0 1 .59-.08h3.3a.92.92 0 0 0 .46-.05.5.5 0 0 0-.52-.32h-3.2a2 2 0 0 1-.68-.11 1.59 1.59 0 0 1-.9-2.13 1.45 1.45 0 0 1 1.38-.67 1.09 1.09 0 0 1 .9.94 1 1 0 0 1-.71 1 .78.78 0 0 1-.9-.54.64.64 0 0 1 .6-.81.56.56 0 0 1 .45.42.53.53 0 0 1-.36.48h-.33a.56.56 0 0 0 .69.07.62.62 0 0 0 .29-.68.83.83 0 0 0-1-.67 1 1 0 0 0-.9 1.11 1.32 1.32 0 0 0 1 1.25c.93.2 1.17 0 1.3-.88L46 21.8a1.2 1.2 0 0 1 1-.8h1.36a1.58 1.58 0 0 0-.8 1.52 13.54 13.54 0 0 1-.23 1.89c-.07.4-.06.8-.12 1.2l-.42 3.3-.25 2.26c0 .48-.1.95-.16 1.43v.7c.27.13.34 0 .36-.2l.5-4.1a1.87 1.87 0 0 0 0-1.05c0-.1 0-.17.08-.25a1.6 1.6 0 0 0 0-1.43 2.57 2.57 0 0 0 .23-2c.37-.27.28-.7.34-1.1l.13-1A1.31 1.31 0 0 1 49.38 21h1.25a1.34 1.34 0 0 0-.46 1.42l.78 7.1c0 .37.08.74.1 1.1a.88.88 0 0 1-.93 1h-1.3a1 1 0 0 0-.45.08 1.31 1.31 0 0 0-.83 1.56c.12.1.25.07.38.05s.1-.2.1-.32a.67.67 0 0 1 .49-.71.84.84 0 0 1 1.1.67 1.2 1.2 0 0 1-.06.59 2.72 2.72 0 0 0 0 1.33l.32 3a1.14 1.14 0 0 1-.61 1c-.2.1-.2.1-.5 0 0-.15.15-.14.24-.17a.72.72 0 0 0 .56-.84l-.3-2.8a3 3 0 0 0-.13-.81 7.86 7.86 0 0 0-2.16.23l-.4 3.2a.91.91 0 0 0 .59 1.12v.08a.62.62 0 0 1-.81-.42 1.85 1.85 0 0 1 0-1l.33-2.9a1.61 1.61 0 0 0 0-.22c-.1-.1-.2-.08-.33-.05a13.28 13.28 0 0 0-.33 1.56l-.22 1.84a1.08 1.08 0 0 0 .28 1 .28.28 0 0 1 .13.25zm2.6-7.6l-.76-6.58c0 .28-.06.56-.12.83a.57.57 0 0 0 .08.53.26.26 0 0 1 0 .38 1.32 1.32 0 0 0-.22 1.3.35.35 0 0 1-.06.38.72.72 0 0 0-.16.43c-.06.34-.08.68-.12 1l-.25 2.1-.2 1.47c0 .15.08.2.26.17a1.89 1.89 0 0 1 .29-1.35 1.67 1.67 0 0 1 1.26-.67zm.28 0a.47.47 0 0 0 .31-.48v-.7l-.44-3.63-.3-3a9.39 9.39 0 0 0-.23-1.53 5.07 5.07 0 0 0-.2 1.51l.28 2.7.45 3.9c.08.37.08.75.14 1.17zm-1.22 2.36a.81.81 0 0 0 1.37-.1.68.68 0 0 0-.17-.87.53.53 0 0 0-.71.06c-.16.2-.1.4.16.63.07.06.06.13 0 .22-.2.05-.43-.06-.65.03zM17 32.3a1.73 1.73 0 0 1-.06.6.48.48 0 0 0 .12.43.32.32 0 0 0 .37 0c.07-.1 0-.16 0-.24a.73.73 0 0 1 .68-.83.86.86 0 0 1 .91.75.76.76 0 0 1 0 .37A2.27 2.27 0 0 0 19 35c.07.46.1.93.14 1.4a7.86 7.86 0 0 1 .14 1.75.84.84 0 0 1-1.06.77c0-.12 0-.17.13-.2.54-.16.7-.33.65-.88l-.25-2.3a8.6 8.6 0 0 0-.17-1.24c-.37 0-.7.07-1.07 0a4.08 4.08 0 0 0-1 0 5.89 5.89 0 0 0-.18 1.26l-.25 2a1 1 0 0 0 .51 1.16.43.43 0 0 1 .1.09c0 .18-.16.14-.25.12a.9.9 0 0 1-.66-.81 5.16 5.16 0 0 1 .06-.79l.3-2.58a.82.82 0 0 0 0-.41c-.1-.1-.2 0-.32 0q-.1.87-.2 1.7l-.2 1.7a1.09 1.09 0 0 0 .31 1l.12.14h-3.2a1.19 1.19 0 0 1-1.06-.82.69.69 0 0 1 .35-.75.7.7 0 0 1 .78.25.65.65 0 0 1-.13.8c-.08.07-.2.08-.25.2a.92.92 0 0 0 1.34-.56l.4-3.23v-.44h-1a.4.4 0 0 0-.39.48.28.28 0 0 0 .24.24c.1 0 .2 0 .23-.1s.1-.18 0-.27-.07-.16 0-.24c.32.17.4.32.33.56a.57.57 0 0 1-.52.33.62.62 0 0 1-.5-.57A.71.71 0 0 1 13 34a1.69 1.69 0 0 1 .32 0h3.8c-.07-.33-.27-.37-.53-.37h-3.3a1.6 1.6 0 0 1-1.56-1.76 1.33 1.33 0 0 1 1.58-1.14 1.13 1.13 0 0 1 .8 1.07.91.91 0 0 1-.76.87.72.72 0 0 1-.8-.55.57.57 0 0 1 .39-.76.46.46 0 0 1 .6.28.46.46 0 0 1-.3.55 1.91 1.91 0 0 1-.37.06c.5.3 1 .08 1-.43a.82.82 0 0 0-1-.84 1 1 0 0 0-.79.71 1.31 1.31 0 0 0 .29 1.31 1.48 1.48 0 0 0 1 .43.76.76 0 0 0 .88-.59 3.48 3.48 0 0 0 .15-.95l.22-2.08.4-2.96.42-3.66c0-.37.1-.73.15-1.1a1.09 1.09 0 0 1 1.12-1H18c-.7.3-.77.9-.85 1.5l-.34 2.85c-.1.64-.13 1.3-.2 1.94l-.25 2-.4 3.7v.3c.23.08.33 0 .36-.2l.54-4.4a2.28 2.28 0 0 0-.05-.78c-.06-.26.27-.43.25-.72s.07-.55-.08-.82a.31.31 0 0 1 0-.31 1.76 1.76 0 0 0 .28-1 .91.91 0 0 0-.14-.88c.43-.28.3-.7.4-1.08s.07-.7.12-1.06a1.31 1.31 0 0 1 1.27-1.1h1.16v.1c-.55.4-.42 1-.37 1.48l.8 7.33c0 .2 0 .42.07.64a.84.84 0 0 1-.79 1h-1a1.68 1.68 0 0 0-1.59.67.11.11 0 0 1-.12.05.2.2 0 0 1 0-.22 1.23 1.23 0 0 1 .71-.63c.18-.08.4-.05.56-.18l-.73-6.46c-.06.2-.06.38-.1.56a.92.92 0 0 0 .07.76.25.25 0 0 1 0 .34 1.12 1.12 0 0 0-.28 1 1.14 1.14 0 0 1-.16 1 .13.13 0 0 0 0 .09 8.18 8.18 0 0 1-.13 1.11l-.45 3.54c0 .15.06.22.25.2a5.43 5.43 0 0 1 0-.7c-.02-.15-.06-.4.2-.37zm1.55-1a.55.55 0 0 0 .31-.61c0-1-.22-1.93-.3-2.9l-.36-3.36c-.1-.8-.14-1.6-.33-2.4a5.12 5.12 0 0 0-.2 1.5l.65 5.75.27 2zm-1.25 2.37a.92.92 0 0 0 1.1.21.73.73 0 0 0 .21-1.17.55.55 0 0 0-.72 0 .44.44 0 0 0 .08.67.16.16 0 0 1 .07.21c-.2.08-.45-.02-.74.08z"/><path d="M33.43 87.46c0-.55-.1-.77-.63-.92a2.29 2.29 0 0 0-1.63.06 1 1 0 0 0-.3.22c-.28.3-.18.6.25.75.13 0 .07-.15.1-.23a.18.18 0 0 1 .26-.11c.1.06.1.18.05.28a.5.5 0 0 1-.82.07 3.36 3.36 0 0 1-.23-.39A3.5 3.5 0 0 1 29 88.3a1.25 1.25 0 0 1-.39.15 7.52 7.52 0 0 1-2.27 0A18.39 18.39 0 0 1 23 87.24l-5.7-2.85A19.72 19.72 0 0 0 13.5 83a6.78 6.78 0 0 0-3.07-.15 1.63 1.63 0 0 0-1.14.7c0 .1.1.13.15.17a.47.47 0 0 1 .13.55.47.47 0 0 1-.88 0 .89.89 0 0 1 .3-1.18c.2-.16.42-.3.7-.5a4.15 4.15 0 0 0-.83 0c-.6.1-1.2-.1-1.8 0a1.55 1.55 0 0 1-.64-.08.69.69 0 0 1-.43-.83.76.76 0 0 1 .72-.6c.48 0 .72.26.67.67 0 .1 0 .2-.13.22a.21.21 0 0 1-.22 0c-.08-.1 0-.2.07-.28a.28.28 0 0 0 .08-.11c-.32-.3-.38-.3-.8-.06 0 .17.2.07.22.14s0 .2 0 .3a.35.35 0 0 0 .3.44 3 3 0 0 0 .42 0h49.32a5.23 5.23 0 0 0 .56 0c.3 0 .38-.13.36-.42s0-.27.17-.44c-.13-.22-.34-.2-.53-.16s-.25.16-.1.35.1.1.06.2A.17.17 0 0 1 57 82a.22.22 0 0 1-.2-.17.52.52 0 0 1 .14-.52.84.84 0 0 1 .92 0 .69.69 0 0 1 .32.76.71.71 0 0 1-.64.51h-1.72a9.37 9.37 0 0 1-1.06 0 .25.25 0 0 0-.27.13 3.59 3.59 0 0 1 .73.49.9.9 0 0 1 .28 1 .57.57 0 0 1-.42.45.52.52 0 0 1-.47-.85 2.23 2.23 0 0 1 .22-.21 1.4 1.4 0 0 0-.86-.62 6.32 6.32 0 0 0-3.26 0 20.59 20.59 0 0 0-3.21 1.18L43 86.4a29.94 29.94 0 0 1-4.49 1.87 5.23 5.23 0 0 1-1.68.27 6.59 6.59 0 0 1-1.47-.12 2.46 2.46 0 0 1-1.16-.64l-.52-.52c-.16 0-.12.2-.24.25zm2.3-3a1 1 0 0 0-.53.93A1.61 1.61 0 0 0 36.79 87a1.83 1.83 0 0 0 1.9-1.26 2 2 0 0 0-.59-2.37 2.69 2.69 0 0 0-2.87-.37 2.58 2.58 0 0 0-1.37 3.47 2.86 2.86 0 0 0 2.88 1.65 7.07 7.07 0 0 0 2.59-.62 62.2 62.2 0 0 0 4.83-2.25c.1 0 .25 0 .25-.23A2.14 2.14 0 0 1 43 83.71a2.32 2.32 0 0 1-1.77 1.11 3.79 3.79 0 0 1-2-.43v.83a1.75 1.75 0 0 1-.05.46 2.31 2.31 0 0 1-3.66 1.18 1.63 1.63 0 0 1-.64-1.65A1.34 1.34 0 0 1 36 84.15a.69.69 0 0 1 .71.32.43.43 0 0 1-.17.66.47.47 0 0 1-.67-.19c-.1-.13-.07-.27-.13-.44zM19.6 85l.3.17a51.76 51.76 0 0 0 5.35 2.46 6.13 6.13 0 0 0 2.71.42 2.88 2.88 0 0 0 2-1 2.56 2.56 0 0 0-.08-3.4 2.62 2.62 0 0 0-2.79-.79 2.16 2.16 0 0 0-1.46 3.22 1.89 1.89 0 0 0 2.61.66 1.49 1.49 0 0 0 .76-1.36 1.54 1.54 0 0 0-.3-.72.29.29 0 0 0-.32-.14 1 1 0 0 1-.05.41.5.5 0 0 1-.68.19.46.46 0 0 1-.15-.68.68.68 0 0 1 .55-.3 1.38 1.38 0 0 1 1.37 1.58 2 2 0 0 1-2.21 1.63 2.28 2.28 0 0 1-2.13-2.82.19.19 0 0 0 0-.17c-1.42.7-2.73.77-3.83-.58A2.05 2.05 0 0 1 19.6 85zm-.45-.86c-.1.13-.23.27-.1.45a.48.48 0 0 0 .47.23 1.14 1.14 0 0 0 .4-.11c.68-.43 1.24-.94 1.1-1.85.12 0 .14.1.27.08s.24-.2.23-.42c-.2.1-.52-.14-.6.24-.34-.15-.34-.15-.6.08 0 .1.06.13.12.2a.13.13 0 0 1 0 .2c-.1.08-.17 0-.25 0a.33.33 0 0 1-.08-.3c0-.12.13-.2.12-.35h-6.87a31.88 31.88 0 0 1 5.51 2.14c.05-.35-.06-.75.4-.82.2 0 .3.1.36.27a.79.79 0 0 1-.48-.03zm26.16.5a34.24 34.24 0 0 1 5.48-2.09h-6.9c0 .12.1.2.14.3a.32.32 0 0 1 0 .27c-.06.1-.14.17-.26.12s-.16-.15-.07-.27.12-.1.1-.2c-.4-.22-.6-.12-.66.3a1.29 1.29 0 0 0 .35 1 1.77 1.77 0 0 0 1 .73.5.5 0 0 0 .59-.24c.14-.2 0-.3-.12-.43l-.12.06c-.07.07-.15.12-.24 0a.18.18 0 0 1-.06-.2.24.24 0 0 1 .21-.16.45.45 0 0 1 .3.1c.25.15.22.4.26.7zm-20.8-1.8v.1a.25.25 0 0 1-.37.3.33.33 0 0 1-.06-.3c0-.13.14-.2.08-.38h-1.8a2.32 2.32 0 0 1 .21.37c.06.14-.08.4-.2.4s-.23-.13-.23-.3v-.1c0-.03-.1-.24-.28-.2a.64.64 0 0 0-.36 1 1.3 1.3 0 0 0 .61.47 3.46 3.46 0 0 0 2 .15 1.57 1.57 0 0 0 1-.56.67.67 0 0 0 .06-.81c-.18-.23-.33-.28-.66-.17zm15.3-.28a2.9 2.9 0 0 1 .2.33c.08.2 0 .38-.15.42s-.25 0-.28-.3-.12-.32-.36-.2a.59.59 0 0 0-.3.88 1 1 0 0 0 .47.44 3.22 3.22 0 0 0 2.78 0 1 1 0 0 0 .5-.53.6.6 0 0 0-.44-.85.19.19 0 0 0-.24.16 2.53 2.53 0 0 1 0 .28c0 .16-.2.2-.33.1a.34.34 0 0 1-.09-.42c0-.1.17-.15.12-.3zm-8.83.18c-.5 0-.7.3-.5.72a.86.86 0 0 0 .38.4 2.66 2.66 0 0 0 1.71.23 1.71 1.71 0 0 0 .93-.39.61.61 0 0 0 .16-.72c-.1-.22-.23-.26-.58-.2a.3.3 0 0 0 0 .13c0 .18 0 .3-.2.28a.22.22 0 0 1-.2-.3c0-.1.13-.2.12-.32h-1.5c0 .2.26.33.1.53a.21.21 0 0 1-.25.08c-.17-.07-.1-.26-.17-.43zm2.23 3.68a3 3 0 0 1 .25-2.35 2.79 2.79 0 0 1-2.71.08 3.45 3.45 0 0 1 .15 2.33 2.35 2.35 0 0 1 2.3-.06zm4.34-3.84c.33.28.72.48 1 .8a1.12 1.12 0 0 1 .44-.81 8.23 8.23 0 0 0-1.45.01zm-12 .8l1.13-.8a9 9 0 0 0-1.56 0 1.32 1.32 0 0 1 .39.81zm5.07-.8H29.1a9.35 9.35 0 0 1 1.15.89.84.84 0 0 1 .34-.89zm3.32.84l1.14-.84H33.6a1.17 1.17 0 0 1 .29.84zm9-.4c.06-.17.2-.25.17-.44a1.21 1.21 0 0 0-.5 0 .94.94 0 0 0 .3.45zM37.6 15.5a1.42 1.42 0 0 1 .75-1c0-.2-.06-.28-.1-.4-.35.13-.6-.2-.94-.16a5.78 5.78 0 0 1-1-.11.39.39 0 0 1-.37-.16.86.86 0 0 0-1-.35 2.69 2.69 0 0 0-.89.33.87.87 0 0 0 .76.52A1.34 1.34 0 0 1 36 15a.58.58 0 0 1-.65-.11 1 1 0 0 0-.65-.29 1 1 0 0 1-.68-.26.54.54 0 0 0-.64-.08 1.21 1.21 0 0 1-.83.19 2.45 2.45 0 0 0 .7 1.13c-.07.2-.18.26-.3.1-.42-.5-.92-.9-1.34-1.4a2.65 2.65 0 0 0-.91-.54.81.81 0 0 0-.81.24 2.32 2.32 0 0 0-.67.69.55.55 0 0 1-.38.31c-.5 0-.7.4-1 .64-.14.1-.23.27-.47.32l.43-.85a.41.41 0 0 1 .19-.2c.37-.15.47-.48.57-.9l-.76.4c-.6.27-1.08.76-1.7 1-.22.08-.33.2-.23.45-.23 0-.46.1-.65 0a.53.53 0 0 0-.68 0c-.24.15-.46.3-.75.06-.12-.1-.3 0-.42.1-.26.3-.66.4-.9.7a.28.28 0 0 1-.45 0c-.27-.32-.57-.27-.92-.18a7 7 0 0 1-1.33.39.4.4 0 0 0-.24.14 1.84 1.84 0 0 1-1.28.4.29.29 0 0 1 .19-.31 19.17 19.17 0 0 0 1.77-1c.28-.15.55-.32.84-.44a.85.85 0 0 0 .39-.25.65.65 0 0 1 .36-.2 4.37 4.37 0 0 0 1.53-.93 3.88 3.88 0 0 1 .85-.46c.6-.32 1.07-.78 1.65-1.1l1.73-1a12.61 12.61 0 0 0 1.62-1.07c.5-.4 1.08-.66 1.57-1.07a.32.32 0 0 1 .31 0 1.74 1.74 0 0 1 .75.36 3 3 0 0 0 .94.58.8.8 0 0 0 .94 0c.23-.18.48 0 .7.1l1.5 1c.32.24.67.43 1 .65a8.37 8.37 0 0 0 1.38.82 16.84 16.84 0 0 0 1.89 1c.13 0 .3.08.36.25a.2.2 0 0 1-.16.21 2 2 0 0 0-.7.43.42.42 0 0 1-.46.08 1.22 1.22 0 0 0-1.15.31 1.61 1.61 0 0 1-.3.21zm.4 3.58c0 .1 0 .18-.13.2a1.58 1.58 0 0 1-.65 0 1.64 1.64 0 0 0-.73 0 10.31 10.31 0 0 1-1.84.15c-.3 0-.57-.1-.87-.1a12.32 12.32 0 0 1-1.72 0c-.63-.12-1.27.05-1.9-.13a.3.3 0 0 0-.13 0c-.53.3-1.13-.05-1.67.16a.65.65 0 0 1-.41-.05.61.61 0 0 0-.46 0 1.42 1.42 0 0 1-.46.06c-1.73-.07-3.47.15-5.2.1a22.62 22.62 0 0 0-2.47 0c-.9.07-1.77-.07-2.68 0l.47-.25 1.2-.62c.38-.23.93-.33 1.38-.55l1-.44a.94.94 0 0 1 1 .07c.68.4.67.4 1.26-.08a.46.46 0 0 0 .07-.07 1 1 0 0 1 1-.45.78.78 0 0 0 .44-.13.61.61 0 0 1 .54 0 10 10 0 0 0 1.38.51 3.48 3.48 0 0 0 1.1.32 2.8 2.8 0 0 1 .84.25 2.91 2.91 0 0 0 1.91.1.44.44 0 0 1 .32 0 9.89 9.89 0 0 0 1.61.62 3.8 3.8 0 0 0 1.76.21c.16 0 .32 0 .46.05a1.18 1.18 0 0 0 .86.1 9.45 9.45 0 0 1 1.19 0 7.32 7.32 0 0 1 1.32.05c.1-.16.2-.16.2-.08zM31.72 30.6h-3.07c-.82-.07-1.17-.33-1.26-1a.57.57 0 0 1 .7-.68.59.59 0 0 1 .39.95c-.1.14-.27.15-.35.3a.84.84 0 0 0 1.28-.58 7.83 7.83 0 0 0 0-1.81.93.93 0 0 0-1-.79h-1.07a1 1 0 0 0-.86 1.44c.05.12.12.24 0 .35-.28.4-.06.87-.13 1.3 0 .06 0 .1.08.16a.38.38 0 0 1 0 .5 2.48 2.48 0 0 0-.07 1.5.82.82 0 0 1 0 .44 3.52 3.52 0 0 0-.05 1v.66h-3c.24-.28.57-.07.78-.28v-3.5h-.64a1.29 1.29 0 0 0 .67-1.36v-1.35a1 1 0 0 1 1.1-1.1h1.1c0 .17-.1.18-.16.24a1.12 1.12 0 0 0-.36.83v6c0 .2 0 .38.3.33a2.7 2.7 0 0 0-.11-1.54.37.37 0 0 1 0-.31 1.89 1.89 0 0 0 0-1.53.45.45 0 0 1 0-.41 2.13 2.13 0 0 0 .09-1.47c0-.18-.1-.33 0-.5a.94.94 0 0 0 .05-.5 1.18 1.18 0 0 1 1.22-1.18H30a1.1 1.1 0 0 1 1.14 1.09v1.25c0 .42 0 1.1.6 1.43z"/><path d="M32.88 34.45c0-.15.1-.17.2-.22a3.08 3.08 0 0 1 .71-.15v-3.44c-.2-.15-.4 0-.6-.13a1.23 1.23 0 0 0 .64-1.29v-1.44a1 1 0 0 1 1-1.05h1.25c0 .17-.14.16-.2.23a1.08 1.08 0 0 0-.36.79v6.33c0 .08.17 0 .26 0a.39.39 0 0 0 .06-.14V33a.37.37 0 0 0 0-.27.31.31 0 0 1 0-.49.29.29 0 0 0 0-.17c-.06-.44.15-.92-.17-1.34a.39.39 0 0 1 0-.36 2.15 2.15 0 0 0 0-1.58c0-.08-.06-.17 0-.22.2-.2.13-.47.14-.7A1.16 1.16 0 0 1 37 26.73h2.7a1 1 0 0 1 1.12 1.11v1.44a1.21 1.21 0 0 0 .65 1.26h-3.5a1.13 1.13 0 0 1-.91-.72.61.61 0 0 1 .19-.76.52.52 0 0 1 .75 0 .66.66 0 0 1 .23.7c-.06.24-.3.3-.44.46.8.2 1.27-.14 1.3-.92V28a1 1 0 0 0-1-1h-1.07a1 1 0 0 0-.89 1.41.72.72 0 0 1 0 .5 1.66 1.66 0 0 0 .08 1.41.33.33 0 0 1 0 .43.75.75 0 0 0-.15.61c0 .34-.1.7.14 1v.13c-.27.4-.12.88-.16 1.32v.5c-1.1.1-2.2-.07-3.26.12zm.82-16.27a3.68 3.68 0 0 1 1.23-.49c.18-.08.4-.1.53-.27a.38.38 0 0 1 .34-.11 1.91 1.91 0 0 0 1.51-.67 6.3 6.3 0 0 1 1-.73 1.16 1.16 0 0 1 .9-.15 1.28 1.28 0 0 0 1.18-.34 2.24 2.24 0 0 1 1.25-.54.37.37 0 0 0 .37-.29c0-.22.22-.28.4-.38a6.73 6.73 0 0 1 1.09.66 6.45 6.45 0 0 0 .87.52 1.6 1.6 0 0 1 .59.5.51.51 0 0 0 .35.28 2.48 2.48 0 0 1 1.46.7c.4.34.92.52 1.33.85s.8.3 1.17.5c.1.05.2.07.26.2-.1.1-.18 0-.28 0a2.44 2.44 0 0 0-1.16-.4.94.94 0 0 1-.44-.23 4.24 4.24 0 0 0-1.2-.7 2.56 2.56 0 0 1-.42-.28.92.92 0 0 0-.71-.23c-.1.18 0 .28.12.37a4.82 4.82 0 0 0 1.5.88 1.57 1.57 0 0 1 .3.12.16.16 0 0 1 .08.23c-.1.1-.2 0-.3 0s-.27-.16-.44-.1a.22.22 0 0 1-.22-.06 8.13 8.13 0 0 0-1-.6 5.22 5.22 0 0 0-1.12-.53c-.13 0-.25-.06-.32.1a.28.28 0 0 0 .1.36c.17.14.37.2.54.36s.3.18.25.38a.17.17 0 0 1-.23 0 1.94 1.94 0 0 0-.7-.32.51.51 0 0 1-.36-.34c-.12-.24-.36-.18-.55-.26s-.35.06-.5.2-.5.54-.93.5c-.12 0-.2.1-.26.18a1 1 0 0 1-.36.35c-.16-.05-.18-.15-.08-.28a.61.61 0 0 0 0-.72 19.2 19.2 0 0 1-2.11.82c0-.4.45-.45.53-.82a2.13 2.13 0 0 0-1.44.6 1 1 0 0 1-1.13.29 4.52 4.52 0 0 0-1-.06 2 2 0 0 1-.74 0c-.22-.1-.42.08-.63 0a2 2 0 0 1-.61-.05z"/><path d="M39.3 22.9c-.2.32-.54.25-.82.23a4.41 4.41 0 0 1-.73-.09.63.63 0 0 0-.41 0l-1.82.77a6.9 6.9 0 0 0 1.11.32l3 .74a4.25 4.25 0 0 0 1.74 0 1.56 1.56 0 0 0 1.19-.81 1 1 0 0 0-.49-1.47 3.7 3.7 0 0 0-.91-.34c-.08 0-.16 0-.2-.1.35-.14.68.13 1 0 .36.3.86.46 1 1a1.27 1.27 0 0 1-.23 1.26 2.07 2.07 0 0 1-1.41.81 6.09 6.09 0 0 1-2.25-.12c-1.3-.3-2.54-.75-3.82-1.1a.69.69 0 0 0-.49 0 2.71 2.71 0 0 1-1.1.12.29.29 0 0 1-.26-.23c0-.12 0-.2.16-.24-.06.23 0 .38.27.35a1.21 1.21 0 0 0 .71-.22 2.88 2.88 0 0 0-1-.13.4.4 0 0 1 .46-.13c.25.07.52 0 .77.12a.64.64 0 0 0 .45-.06l1.82-.82-1.5-.5a8.8 8.8 0 0 0-1.47-.26 2.49 2.49 0 0 0-1.61.34 2.76 2.76 0 0 0 .16.27 2.1 2.1 0 0 1 .41 1.71 1 1 0 0 1-.86.77.94.94 0 0 1-.69-.78 2.08 2.08 0 0 1 .38-1.67.4.4 0 0 0 .1-.26c0-.15-.18-.2-.3-.24a3.09 3.09 0 0 0-1.32-.14 22 22 0 0 0-2.94.81l1.93.86a.75.75 0 0 0 .49 0 2.93 2.93 0 0 1 1-.05.27.27 0 0 1 .28.3c0 .17-.12.24-.28.25a2.25 2.25 0 0 1-1-.09 1 1 0 0 0-.72 0 33.13 33.13 0 0 1-4.37 1.17 4.16 4.16 0 0 1-2.07-.12 2 2 0 0 1-1-.83 1.33 1.33 0 0 1 .76-1.95 1.62 1.62 0 0 1 1.13-.12 7.08 7.08 0 0 0-.75.26 1.14 1.14 0 0 0-.81 1.7 1.67 1.67 0 0 0 1.13.75 5.58 5.58 0 0 0 1.58 0 19.87 19.87 0 0 0 2.74-.66 8.1 8.1 0 0 0 1.27-.39s.08-.06 0-.1-.08 0-.1 0a3 3 0 0 0-1.15-.56h-.17c-.23-.37-.54-.17-.83-.16h-.8a1.83 1.83 0 0 1-.33 0 .47.47 0 0 1-.39-.4c0-.17.18-.3.43-.33a2.37 2.37 0 0 1 1.18.19 1.18 1.18 0 0 0 .81 0l2.5-.7a5.18 5.18 0 0 1 1.57-.05 1.47 1.47 0 0 1 .62.29.3.3 0 0 0 .35 0 2.66 2.66 0 0 1 2-.26 22.73 22.73 0 0 1 2.72.74c.35.1.38.08.56-.2a.52.52 0 0 0 .44 0 3.25 3.25 0 0 1 .82-.12.51.51 0 0 1 .39.11c.25.17.22.3-.07.48l.06-.25a1.19 1.19 0 0 0-1.31.17c.2.14.42.05.62.13s.47-.02.68.02zm-7-.37a1.78 1.78 0 0 0-.64 1.4.62.62 0 0 0 .66.66c.37 0 .6-.26.58-.7a2.1 2.1 0 0 0-.62-1.37zm-7.22.17a1.32 1.32 0 0 0 1.38.05c-.47-.17-.87-.4-1.4-.05zm5 1.18c.3.1.58.37.9 0-.35-.32-.66-.01-1 0zM25.7 44.6c-.12-.06-.2 0-.3.07a1.11 1.11 0 0 1-1.52-.68c-.06-.13-.05-.3-.18-.42s-.23.07-.33.12A1.74 1.74 0 0 1 21 42.36a.39.39 0 0 1 .23-.43c.3.07.3.3.3.54a1.15 1.15 0 0 0 .93 1.17 1.66 1.66 0 0 0 1.27-.34.54.54 0 0 0 .05-.71c-.1-.12-.25-.18-.32-.33s.1-.07.14-.06a2.45 2.45 0 0 0 1.29-.27 1.83 1.83 0 0 1 2.15.84 1.33 1.33 0 0 1 .21.52c.3.06.58 0 .88 0l-.44.54a.91.91 0 0 0-.2.68 1.13 1.13 0 0 1 1-.16 1.66 1.66 0 0 0-.92.54c-.15 0-.07-.17-.16-.2s-.14.06-.17.13a2.6 2.6 0 0 1-.65.83 2.88 2.88 0 0 1-1.53.7 3.61 3.61 0 0 1-2.86-.92 31.91 31.91 0 0 1-2.55-2.24 5.66 5.66 0 0 0-2.4-1.43 2 2 0 0 0-1.53.21 1 1 0 0 0-.58 1.1 4.71 4.71 0 0 0 .74-.4c.44-.2.68-.18 1 .12a.8.8 0 0 1 .11 1 1.12 1.12 0 0 1-1.86.1 1.15 1.15 0 0 0-.31-.38h-.05c-.18 0-.3.2-.5.14s-.32.14-.47.2a.82.82 0 0 1-.88-.1 1 1 0 0 1-.47-1 1.19 1.19 0 0 1 .82-1 6.42 6.42 0 0 1 1.38-.16c.66 0 1.33 0 2-.1a3.67 3.67 0 0 1 2.49.72 13 13 0 0 1 1.76 1.37l1.1 1c.08.07.15.16.28.15a3.52 3.52 0 0 0 3 1.3 2.12 2.12 0 0 0 1.79-1.29 1.89 1.89 0 0 0-.24-2 1.5 1.5 0 0 0-1.56-.59 1.54 1.54 0 0 0-1.14 1 1.66 1.66 0 0 0 .66-.19.93.93 0 0 1 1 .21 1 1 0 0 1 .26 1c-.05.17-.2.3-.16.5zM14.05 43c.26 0 0 .3.22.34h.3a.24.24 0 0 0 .23-.29 1.34 1.34 0 0 1 .5-1.1.14.14 0 0 0 0-.18 6.21 6.21 0 0 0-1.92.08 1 1 0 0 0-.86 1.22.85.85 0 0 0 .57.68.55.55 0 0 0 .66-.18c-.15-.1-.3-.2-.3-.4s0-.32.2-.36.35 0 .36.25c-.18-.1-.36-.18-.46.1a.41.41 0 0 0 .33.24c.2-.12.16-.25.16-.4zm11.6.77a.71.71 0 0 0-.75-.75c-.35 0-.86.32-.86.55a1 1 0 0 0 .85 1 .76.76 0 0 0 .76-.77zm-9.06-.7c-.33.24-.54 0-.75-.2l-.62.35a.22.22 0 0 0-.08.32 1 1 0 0 0 1.07.47.69.69 0 0 0 .48-.39.43.43 0 0 0-.1-.51zm26.9.15c.18.06.28-.08.4-.18a10.41 10.41 0 0 1 1.27-.94 3.83 3.83 0 0 1 2.47-.59 12.16 12.16 0 0 0 1.81.05 6.41 6.41 0 0 1 1.16.1 1.19 1.19 0 0 1 1.1 1.39c-.06.6-.9 1.15-1.42.72-.3-.23-.64-.2-1-.3-.18.2-.27.48-.5.65a1.12 1.12 0 0 1-1.18.09.86.86 0 0 1-.55-.88.79.79 0 0 1 .41-.69.67.67 0 0 1 .82.12c-.24 0-.2.3-.36.4s-.32 0-.48 0a.56.56 0 0 0 .23.84.92.92 0 0 0 1.3-.68 1 1 0 0 0-.16-.9 1.52 1.52 0 0 0-.91-.59 2.76 2.76 0 0 0-2 .39 4.39 4.39 0 0 0-.51.32c-.1.06-.18.14-.08.3a.74.74 0 0 0-.62.27l-2.57 2.26A5.75 5.75 0 0 1 41 46a3.19 3.19 0 0 1-3 0 3 3 0 0 1-1.17-1.34 4.16 4.16 0 0 0-.91-1.36h.45A.44.44 0 0 0 37 43a1.62 1.62 0 0 1 .59-.75 1.55 1.55 0 0 1 1.61-.31 2.87 2.87 0 0 0 1.51.26c-.1.3-.4.36-.5.65s0 .4.26.53a1.89 1.89 0 0 0 1 .31 1.17 1.17 0 0 0 1.09-1.13c0-.24 0-.47.28-.62.18.1.3.2.23.47a1.6 1.6 0 0 1-.4.86c-.07.07-.14.14-.1.25-.12 0-.2 0-.3.1a1.6 1.6 0 0 1-1.67.07c-.1 0-.2-.12-.3-.08s-.06.2-.08.3a1.29 1.29 0 0 1-.54.73.84.84 0 0 1-.92.07.92.92 0 0 1-.57-.79 1 1 0 0 1 1.34-1 1.06 1.06 0 0 0 .56.16 1.57 1.57 0 0 0-1.33-1A1.66 1.66 0 0 0 37 43.72 2.19 2.19 0 0 0 39.05 46a3.49 3.49 0 0 0 2.23-.75.16.16 0 0 0 .08-.2.41.41 0 0 0 .47-.38c.08 0 .12 0 .1-.1a.26.26 0 0 0 .3-.07l1.2-1.1c.07-.06.14-.13.1-.24zm6.4.18a1.09 1.09 0 0 1 0-.37.33.33 0 0 1 .47-.21.28.28 0 0 1 .15.44 3 3 0 0 1-.27.35c.74.3 1.27 0 1.25-.8a1.05 1.05 0 0 0-.93-1 7.71 7.71 0 0 0-1.58-.09c-.1 0-.2 0-.24.14a1.38 1.38 0 0 1 .58 1.22.21.21 0 0 0 .19.23zm-10.72-.3a.68.68 0 0 0-.71.38.94.94 0 0 0 .24 1 .68.68 0 0 0 .82.06 1.11 1.11 0 0 0 .51-1c-.1-.37-.46-.35-.75-.43zm11 .3c.15-.1.38-.1.3-.35a.15.15 0 0 0-.23-.07c-.25.1-.3.2-.1.42zm-23.8-8.86a.91.91 0 0 1 .07.5v2.7a.93.93 0 0 0 1 1h1a1 1 0 0 0 1-1v-2.18a.89.89 0 0 0-1.29-.82c.2.17.44.3.45.6a.56.56 0 0 1-.3.57.59.59 0 0 1-.69 0 .64.64 0 0 1-.24-.66 1.19 1.19 0 0 1 1.14-.9h3.3l-.32.3a.94.94 0 0 0-.32.74v2.37a1.38 1.38 0 0 1-.14.63.87.87 0 0 1-.88.54q-1.44 0-2.88 0a.89.89 0 0 1-1-.61 1.72 1.72 0 0 1-.15-.67V35c.03-.2-.02-.4.24-.46z"/><path d="M41.45 34.37l-.1.15a1.07 1.07 0 0 0-.47 1v2.23a1.29 1.29 0 0 1-.1.59.84.84 0 0 1-.84.59H37a1 1 0 0 1-1.09-1v-3.17c0-.14.08-.2.23-.15a.94.94 0 0 1 0 .5v2.65a.9.9 0 0 0 1 1h1a1 1 0 0 0 .92-.71 2.34 2.34 0 0 0 .09-.59v-1.54a1.7 1.7 0 0 0-.1-.59.89.89 0 0 0-1.32-.53 2.2 2.2 0 0 1 .26.15.56.56 0 0 1 .06.91.52.52 0 0 1-.63.16.65.65 0 0 1-.38-.68 1.18 1.18 0 0 1 1.19-1h3.18zM49.52 32h.72a1.17 1.17 0 0 1 1.09 1.11l.25 2.16.2 2.12a2.15 2.15 0 0 0 .62 1.59h-1.45c-.45 0-.6-.4-.75-.75a5 5 0 0 1-.14-1.1l-.3-2.7a.5.5 0 0 1 .15-.42 1.2 1.2 0 0 0 .32-.89.94.94 0 0 0-.51-.91c-.07-.1-.15-.12-.2-.2zM22 38.93h-1.25a1.05 1.05 0 0 1-1.09-1l-.36-3.3a1 1 0 0 1 .23-.85 1.19 1.19 0 0 0-.15-1.59 3.07 3.07 0 0 0-.29-.24 1.9 1.9 0 0 1 1.34.26.81.81 0 0 1 .34.49l.17 1.1.47 4.28a.86.86 0 0 0 .25.49zm13.4-4.38a.3.3 0 0 1 .08.26v3.07a1 1 0 0 1-.4.9.75.75 0 0 1-.43.15H33.2a1.33 1.33 0 0 0 .6-1.34v-2.57a1.35 1.35 0 0 0-1.21.31c.13.08.28.06.37.17a.36.36 0 0 1 .06.43.36.36 0 0 1-.38.2.3.3 0 0 1-.28-.27 1 1 0 0 1 .75-1.22 3.25 3.25 0 0 1 .83-.1zM24.07 35a1.43 1.43 0 0 0-1.24.31c.12.1.28 0 .38.13a.38.38 0 0 1 .14.41.38.38 0 0 1-.4.26c-.2 0-.26-.15-.3-.3a1 1 0 0 1 .79-1.19 11.63 11.63 0 0 1 2.28-.08c.12.1.08.23.08.33v2.93a1 1 0 0 1-1.1 1.11h-1v-.1a1.37 1.37 0 0 0 .43-1.17v-2.28a.69.69 0 0 0-.06-.37zM9.93 69.35v3.26a2.25 2.25 0 0 1-.9 0v-1.26a.86.86 0 0 0-.55.42c-.15.18-.27.17-.42 0l-.5-.44c-.1.42 0 .85-.07 1.28a4.11 4.11 0 0 1-.86 0v-3.3a.39.39 0 0 1 .45.11l1.17 1.28.75-.8a4.91 4.91 0 0 0 .43-.48c.13-.2.3-.2.5-.1zm38.12-6.43v1.4c.15 0 .22 0 .3-.1l1.17-1.12.2-.2c.07-.06.36-.07.4.17v3a.22.22 0 0 1-.08.2 3.41 3.41 0 0 1-.9 0 3.26 3.26 0 0 0 0-1.36c-.15-.06-.2.05-.28.12l-1.2 1.17c-.1.1-.18.2-.32.15s-.16-.2-.16-.35v-2.8c0-.3 0-.33.3-.33a.76.76 0 0 1 .57.06zM30.65 77.4a1.61 1.61 0 0 1-1.79 1.72 1.77 1.77 0 0 1 0-3.53 1.61 1.61 0 0 1 1.79 1.81zm-2.54 0a.81.81 0 0 0 .85.88.86.86 0 0 0 .82-.88.83.83 0 0 0-.87-.92c-.5-.02-.8.3-.8.9zm-5.24-1.75h1.33a1 1 0 0 1 1 1.55v.1a.86.86 0 0 1 .3.94 1 1 0 0 1-1 .83h-1.53a18.08 18.08 0 0 1-.1-3.42zm.83 2.6a1.77 1.77 0 0 0 .86 0c0-.52-.17-.6-.88-.42a1.28 1.28 0 0 0 .02.42zm0-1.3a.39.39 0 0 0 .3.07h.18c.16 0 .3-.12.3-.3s-.14-.26-.3-.3c-.4-.06-.5.04-.46.53zm-9.78-5.88l-1.4 1.37c-.22.22-.22.22-.57.18V69.3h.44c.44 0 .44 0 .45.38v1.08c.18.08.23 0 .3-.12l1.16-1.14a.49.49 0 0 1 .55-.18v3.3c-.26.1-.56 0-.85.12-.1-.53-.01-1.05-.1-1.66zm5.55-4.87v-3.32a8.6 8.6 0 0 1 1.76 0 1 1 0 0 1 .66 1.34l-.1.23a1.05 1.05 0 0 1 .31.63 1 1 0 0 1-1 1.17 4 4 0 0 1-1.62-.05zm.9-.72H21a.26.26 0 0 0 .28-.3.25.25 0 0 0-.27-.26 2.07 2.07 0 0 0-.65 0 1.2 1.2 0 0 0 0 .56zm0-1.3h.54a.24.24 0 0 0 .23-.24c0-.16-.08-.23-.2-.27a1 1 0 0 0-.58 0 .72.72 0 0 0 0 .51zm-1.5 6.3c.07-.37 0-.74.05-1.13a2.11 2.11 0 0 1 .87 0v3.3c-.27.12-.55 0-.84.07-.12-.44 0-.88-.1-1.33a6 6 0 0 0-.95 0c-.1.4 0 .83-.07 1.27a2.26 2.26 0 0 1-.86 0v-3.33a4.41 4.41 0 0 1 .89 0v.8c0 .26.07.45.4.37s.4.07.6-.01zm16.65 7.85a5.84 5.84 0 0 1 0 1 1.07 1.07 0 0 1-.63.09c-.14-.1-.07-.24-.16-.33H32.9c-.1.05-.06.17-.15.26a2.76 2.76 0 0 1-.59 0 7 7 0 0 1 0-1c.28 0 .4-.2.48-.42l.9-2.1a.37.37 0 0 1 .33-.27c.2 0 .2.14.26.27l.9 2c.1.25.22.46.52.5zm-1.74-1.1a2.13 2.13 0 0 0-.36 1.07c.26-.08.5.08.78 0a2.46 2.46 0 0 0-.42-1.07zM27 66.18a1.53 1.53 0 0 1-1 0c-.1 0-.13-.16-.2-.26l-.48-.84c-.05-.1-.12-.2-.26-.14a.22.22 0 0 0-.15.25v.8c0 .26-.1.28-.28.28a1.33 1.33 0 0 1-.61-.1V62.9a3.23 3.23 0 0 1 .88 0V64c.55.1.8-.08.85-.55a2.11 2.11 0 0 1 .11-.6 3.06 3.06 0 0 1 .8 0 1.69 1.69 0 0 1-.67 1.76zm18.3 6.46a3.17 3.17 0 0 1-.87 0v-3.3a3.22 3.22 0 0 1 .82 0c.1.38 0 .75.07 1.13a2.38 2.38 0 0 0 1 .06 11.18 11.18 0 0 0 0-1.15 3.21 3.21 0 0 1 .88 0v3.3a1.88 1.88 0 0 1-.89 0v-1.3a3.49 3.49 0 0 0-1 0zm-33.22-7.98l.92 1.46c-.14.2-.32.14-.46.15a.6.6 0 0 1-.71-.36 4.83 4.83 0 0 0-.44-.76c-.06-.1-.1-.24-.26-.2s-.13.2-.13.3v1a3.69 3.69 0 0 1-.88 0v-3.33c.1-.1.24 0 .38-.05h.38c.15.4 0 .82.1 1.2.43 0 .63 0 .76-.3a6.27 6.27 0 0 0 .14-.85l.1-.05c.8 0 .8 0 .73.77-.08.35-.13.43-.62 1z"/><path d="M42.5 62.87h.7c.23 0 .28.1.24.32a1.34 1.34 0 0 0 .07.86c.48.06.7-.1.75-.56a1 1 0 0 1 .13-.61 2.78 2.78 0 0 1 .76 0 1.67 1.67 0 0 1-.58 1.74l.93 1.52c-.36.2-.68 0-1 .1l-.68-1.14c-.1-.17-.2-.24-.36-.1a7.89 7.89 0 0 0-.08 1.2 2.49 2.49 0 0 1-.82 0l-.05-3.32zm-1.9 1.2a2.39 2.39 0 0 1-.58 0 .39.39 0 0 1-.32-.15.82.82 0 0 0-1.07-.22 1 1 0 0 0-.39 1.06.86.86 0 0 0 .63.68.81.81 0 0 0 .88-.38l.1-.16a2.8 2.8 0 0 1 .76 0 1.16 1.16 0 0 1-.75 1.13 1.75 1.75 0 1 1-.52-3.27 1.49 1.49 0 0 1 1.07.65.73.73 0 0 1 .18.66zm-13.82 8.6a3.3 3.3 0 0 1-.83 0v-3.3a7.54 7.54 0 0 1 2 0 1.31 1.31 0 0 1 .75 1.41 1.17 1.17 0 0 1-1.13 1 3 3 0 0 1-.42 0c-.2 0-.3.08-.3.28a1.55 1.55 0 0 1-.08.6zm.07-1.6c.34 0 .68.13.88-.22a.5.5 0 0 0 0-.6c-.25-.32-.56-.1-.87-.17a5.47 5.47 0 0 0-.01.99zm10.3 4.62h.77c.12.1.07.24.08.36 0 .62-.1.65.6.64h.23a1.18 1.18 0 0 1 1 .91 1.26 1.26 0 0 1-.54 1.33 1.47 1.47 0 0 1-.58.15h-1.26c-.2 0-.32-.07-.32-.3l.01-3.1zM38 78.2a1.1 1.1 0 0 0 .45.06h.2a.37.37 0 0 0 .35-.4.35.35 0 0 0-.35-.35 1.4 1.4 0 0 0-.64 0zm1.9-8.9h.75a5.39 5.39 0 0 1 .07.88.46.46 0 0 0 .38.1c.87 0 1.4.32 1.44 1.17a1.12 1.12 0 0 1-1.13 1.2h-1.3c-.3 0-.25 0-.3-.33-.1-.83.1-1.66 0-2.5a.76.76 0 0 1 .08-.53zm.8 2.6h.63a.43.43 0 0 0 .36-.41.4.4 0 0 0-.36-.4 1.13 1.13 0 0 0-.63 0zm8.6.74v-3.3a3.35 3.35 0 0 1 .83-.06c.15.32 0 .64.12.94l.78.1a1.13 1.13 0 0 1 1 1.27 1.12 1.12 0 0 1-1.12 1.07h-1.38zm.86-.77a2 2 0 0 0 .64 0 .36.36 0 0 0 .34-.37.37.37 0 0 0-.32-.44 1.14 1.14 0 0 0-.66 0zM28.33 66.2a2.6 2.6 0 0 1 .35-.86l1-2.27a.36.36 0 0 1 0-.09c.15-.26.4-.27.55 0l1.3 2.82a.5.5 0 0 1 .09.42c-.4 0-.83.2-1-.37h-.8c-.24 0-.5 0-.6.27a.21.21 0 0 1-.23.12 2.77 2.77 0 0 1-.65-.03zm1.36-1.14a1.2 1.2 0 0 0 .68 0 2.27 2.27 0 0 0-.33-.77 2.35 2.35 0 0 0-.35.77zm-11.93 1.16H17c-.14-.08-.15-.25-.3-.38h-.84c-.25 0-.46 0-.57.3s-.16.17-.3.17a2.58 2.58 0 0 1-.6-.07 4.7 4.7 0 0 1 .44-1.08l.94-2.07c.07-.14.14-.28.33-.28s.22.1.28.2l1.42 3.07c-.02.03-.04.07-.05.14zm-1.7-2a2.29 2.29 0 0 0-.31.86 3.44 3.44 0 0 0 .71 0 4.33 4.33 0 0 0-.4-.84zm17.26 8.42a4 4 0 0 1-.85 0c0-.33-.26-.4-.57-.38a8.26 8.26 0 0 1-.86 0c-.17.08-.16.28-.27.36h-.88l.48-1 .9-2a.78.78 0 0 1 .11-.2.29.29 0 0 1 .54 0l.55 1.18.8 1.77a.32.32 0 0 1 .04.27zm-2.05-1.15a1.72 1.72 0 0 0 .75 0 3.44 3.44 0 0 0-.41-.84zm24.37-2.17h2.08V70a4.42 4.42 0 0 1-1 0c-.1 0-.22 0-.28.12a.23.23 0 0 0 .19.34h.6c.2 0 .37 0 .38.38v.38a9 9 0 0 1-1.14.08c-.07.54-.06.55.4.55h.8a2.19 2.19 0 0 1 0 .68h-2.03zM23.77 70.5a1 1 0 0 1 .05.79c-.34.1-.7 0-1.05.07-.1.16 0 .32 0 .54H24v.75h-2.13V70.3c0-.23 0-.46-.05-.7s0-.33.28-.32h1.62c.2 0 .32.1.27.28s0 .3 0 .44a3.93 3.93 0 0 1-1.18 0c-.12.15-.06.28-.05.45zm30.53-5.03a3.1 3.1 0 0 1 0 .74h-2.1v-3.3h2.06a1.63 1.63 0 0 1 0 .7 4.76 4.76 0 0 1-.92 0c-.32 0-.32 0-.32.42.35.12.73 0 1.1.08.13.23 0 .45.06.67-.4.13-.8 0-1.14.14a1.33 1.33 0 0 0 0 .53zm-8.7-8.37c-1.22.93-3.2.38-4.22-1.16a3.34 3.34 0 0 1 4.22 1.16zm2.48-53.02a3.6 3.6 0 0 1-1.59-2 3.49 3.49 0 0 1-.08-1.86c.05-.23.15-.27.36-.16a2.83 2.83 0 0 1 1.57 2.55 4.32 4.32 0 0 1-.09 1.19.43.43 0 0 1-.17.28zM4.3 18.88C2.8 17.73 2.2 16 3.14 14.65a3.33 3.33 0 0 1 1.17 4.23zM.05 26.85c1.28-.16 3.17 2.15 2.7 3.35C1 29.88-.28 28.35.05 26.85zM35.28 64.4c.45.6.5 1 .2 1.46a1.68 1.68 0 0 1-1.54.41 1 1 0 0 1-.75-1.1c.12-.1.26-.05.4-.06s.34 0 .4.2a.38.38 0 0 0 .11.14.34.34 0 0 0 .43.06.35.35 0 0 0 .22-.33.37.37 0 0 0-.26-.35 2 2 0 0 0-.38-.06 3.25 3.25 0 0 1 0-.62c.1-.1.24 0 .33-.1s.24-.16.18-.33-.28-.3-.4-.17-.58.1-.88.14a.6.6 0 0 1 .36-.71 1.27 1.27 0 0 1 1.43.09c.37.33.48.62.15 1.32zM10.3 13.65a3.45 3.45 0 0 1-3.94 1.95c.64-1.7 2.54-2.66 3.94-1.95zM43.72 51.8c.47 1.54-.7 3-2.4 3.58-.6-1.06.95-3.38 2.4-3.58zm10.03-38.13c1.18-.66 3.07 0 4 1.9a3.39 3.39 0 0 1-4-1.91zm-41 36.53a.88.88 0 0 1-.62.41 3.47 3.47 0 0 1-2.61.06 2.79 2.79 0 0 1-1-.74.19.19 0 0 1 .06-.34 3.6 3.6 0 0 1 4.17.61zM47.76 4.53a3.36 3.36 0 0 1-4.34.2c.93-1.43 3.3-1.22 4.34-.2zM16.05 52.1a2 2 0 0 1-.81-.67l-.4-.5a2.74 2.74 0 0 1-.4-2.75 1.3 1.3 0 0 1 .08-.17l.08-.1a3.43 3.43 0 0 1 1.46 4.19zM51.6 10.9c1.4-.9 3.48.1 4.14 1.44a3.45 3.45 0 0 1-4.14-1.44zm-1.5-8.77c1.37.55 1.94 2.7 1 4.17a3.24 3.24 0 0 1-1-4.17zm8.12 13.24a3.35 3.35 0 0 1 .59-4.28c1.2.67.8 3.38-.6 4.28zm1.93 7.3a3.38 3.38 0 0 1-3.28-2.88c1.46-.3 2.96.92 3.28 2.88zM45.58 2.52a3.47 3.47 0 0 1-4-2 2.41 2.41 0 0 1 1.77-.11 3.66 3.66 0 0 1 2.23 2.11zm-15.42 54.9a3 3 0 0 1-3.76 2.23 3.45 3.45 0 0 1 3.76-2.23zM60.8 14.65c1 1 .54 3.17-1.1 4.2a3.47 3.47 0 0 1 1.11-4.21zm-14.45-8.2c.74-1 2.9-1.2 4.4.25a3.39 3.39 0 0 1-4.39-.25zM60.73 22.6a3.32 3.32 0 0 1 1.67-4c.8 1.18.08 3.22-1.67 4z"/><path d="M44.7 54a3.34 3.34 0 0 1 1.92-3.92c.62 1.13.07 2.92-1.92 3.92zM8.55 16.52A3.42 3.42 0 0 1 4.91 19 3.16 3.16 0 0 1 6 17.2a2.78 2.78 0 0 1 2.55-.68zm40.7 38.53c-.9 1-3 1-4.34-.53a3.42 3.42 0 0 1 4.34.53zM7.8 12.08a3.07 3.07 0 0 1-.09-4.42 3.53 3.53 0 0 1 .09 4.42zm5.3 37.7c-1.53-1.14-1.9-3.13-.88-4.26a3.39 3.39 0 0 1 .88 4.26zm27.37 3.34c.26 1.37-.87 2.92-2.87 3.28-.32-1.28 1.34-3.2 2.87-3.28zM59.17 19a3.18 3.18 0 0 1-2.07-.41 3.56 3.56 0 0 1-1.64-2 2.34 2.34 0 0 1 1.65.07A3.84 3.84 0 0 1 59.17 19zm-2.9-6.92a3.44 3.44 0 0 1 0-4.4c1.1.72 1.36 2.8 0 4.4zm-18.72 44.8a3.81 3.81 0 0 1 3 .54 3 3 0 0 1 1.12 1.27 2.68 2.68 0 0 1-2.48-.09 4.16 4.16 0 0 1-1.64-1.72zm-33.6-34.2a.69.69 0 0 1 .07-.52 3.11 3.11 0 0 1 2.34-2.38 2.13 2.13 0 0 1 .87 0 3.49 3.49 0 0 1-3.28 2.9zm59.55-.12a3 3 0 0 1-2.25 3.73 3.35 3.35 0 0 1 2.25-3.73zM20.65 4.76a3.39 3.39 0 0 1-4.36-.26 3.11 3.11 0 0 1 4.36.26zM2.8 26.34a2.85 2.85 0 0 1-1-.52 3.07 3.07 0 0 1-1.39-2.3 1.91 1.91 0 0 1 .17-1 3.48 3.48 0 0 1 2.22 3.82zm9.62-15.44a3.48 3.48 0 0 1-4.1 1.48 3 3 0 0 1 4.1-1.48zM5.8 15.37c-1.4-1.16-1.66-3.3-.6-4.28a3.33 3.33 0 0 1 .6 4.28zM54 47.5a3.39 3.39 0 0 1 4.26-1.06c-.57 1.37-2.5 1.87-4.26 1.06zM3.38 26.33a4 4 0 0 1 .73-2.23A2.74 2.74 0 0 1 6.24 23a3.47 3.47 0 0 1-2.86 3.33zm-.15 7.57c-1.83-.08-3.36-1.57-3.06-3a3.3 3.3 0 0 1 3.06 3zm34.92 38.75a.37.37 0 0 1-.11 0c-.7 0-.7 0-1-.68a8.65 8.65 0 0 0-.59-1.24l-.8 1.87a2.81 2.81 0 0 1-.87 0 .45.45 0 0 1 .07-.33l1.3-2.77c.07-.15.1-.32.34-.3s.25.15.32.3l.8 1.72.5 1c.04.2.14.3.06.45zM7.64 44.48c-1.38.57-3.53.06-4.07-1.54a3.32 3.32 0 0 1 4.07 1.54zM10.38 47C9.08 45.77 9 43.7 10 42.77a3.21 3.21 0 0 1 .38 4.23zm45.3-7.22a3.07 3.07 0 0 1 .22 4.34 3.36 3.36 0 0 1-.22-4.34zM57 36.6a3 3 0 0 1 .8 4.19c-1.3-.66-1.65-3.04-.8-4.2zm2.2.84a3.35 3.35 0 0 1-1.36-4.12 1.84 1.84 0 0 1 1 .77 3.49 3.49 0 0 1 .36 3.35zM10.6 9.4c1.27-1.73 3.5-1.7 4.27-.87a3.51 3.51 0 0 1-4.27.87zm52.64 25.67a1.69 1.69 0 0 1-.48 1.34 3.11 3.11 0 0 1-2.34 1.22c-.2 0-.36.12-.55.06h-.08a3.32 3.32 0 0 1 3.45-2.62zM13.3 6.7a4.83 4.83 0 0 1 2.05-1 2.78 2.78 0 0 1 2.34.68 3.32 3.32 0 0 1-4.39.32zM26.84 54a3.31 3.31 0 0 1 3.3 2.85 3.58 3.58 0 0 1-2.86-1.44 2.51 2.51 0 0 1-.44-1.41zM15.88 4a3 3 0 0 1 1.6-4 3.27 3.27 0 0 1-1.6 4zm44.74 22.33A3.44 3.44 0 0 1 57.79 23a1.48 1.48 0 0 1 1.05.19 3.21 3.21 0 0 1 1.72 2.39c0 .18.06.36.08.54a.62.62 0 0 1-.02.21zM3.3 22.55a3 3 0 0 1-1.74-3.92 3.22 3.22 0 0 1 1.74 3.92zM10.1 9c-.95-1.3-.84-3.45.47-4.26 1 .9.74 3.33-.47 4.26zm46.27 35.54c.3-1.28 2.68-2.22 4-1.6-.46 1.44-2.28 2.06-4 1.6zm-45.02 8.08a3.38 3.38 0 0 1 4.34-.09 3.12 3.12 0 0 1-4.34.09zM10 47.47c-1.48.7-3.47.5-4.27-1a3.48 3.48 0 0 1 2.1-.29A3.23 3.23 0 0 1 10 47.47zm42.63 5.13a3 3 0 0 1-4.29 0 3.3 3.3 0 0 1 4.29 0zm5.7-11.44a1.84 1.84 0 0 1 .42-.81 3.46 3.46 0 0 1 3.11-1.41c.27 0 .34.12.2.4A2.86 2.86 0 0 1 60.34 41a5.06 5.06 0 0 1-2.02.16zM22.66 56A4 4 0 0 1 20 57.55a2.55 2.55 0 0 1-1.56-.44c.5-1.2 2.82-1.87 4.22-1.1zm14.5-1.93c0 1.48-1.2 2.64-3.2 2.82-.36-1.16 1.7-3 3.2-2.82zm24.08-23.9a3.25 3.25 0 0 1 2.7-3.34c.4 1.48-1.05 3.1-2.7 3.34zM49.4 47.9c.86 1.3.16 3.2-1.36 4.07-.77-1.05-.04-3.2 1.36-4.07zM22.36.5a3.41 3.41 0 0 1-3.81 2 3 3 0 0 1 3.81-2zM5.7 29.9a3.23 3.23 0 0 1-1.84 3.83A3 3 0 0 1 5.7 29.9zm17.07 25.42c-1.7-.35-3-2.13-2.43-3.52a3.38 3.38 0 0 1 2.43 3.52zM4.27 37.68a4.11 4.11 0 0 1-2.62-.82 3 3 0 0 1-.9-1.58c0-.14 0-.27.2-.25a4.18 4.18 0 0 1 2 .67 3.26 3.26 0 0 1 1.33 1.98zm49.4 9.38a3.34 3.34 0 0 1 .26-4.29c1.14.64 1 2.9-.26 4.3zM17.4 50.1a3.3 3.3 0 0 1 1.93 3.8c-1.7-.63-2.63-2.57-1.93-3.8zM3.37 30.13a3.08 3.08 0 0 1 2.36-3.65 3.35 3.35 0 0 1-2.36 3.65zm54.9-.23a3 3 0 0 1 1.89 3.87 3.34 3.34 0 0 1-1.89-3.87zM33.92 57.44a3.37 3.37 0 0 1 3.7 2.24 2.7 2.7 0 0 1-2.25-.3 3.37 3.37 0 0 1-1.45-1.94zm-20-55.34a3.43 3.43 0 0 1-1 4.18 3 3 0 0 1 1-4.18zm49.92 28.8c.2 1.57-1.36 2.93-3 3a2.57 2.57 0 0 1 .67-1.73 3.5 3.5 0 0 1 2.33-1.27zM4.8 37.45c-.7-2 0-3.52 1.3-4.1.14 0 .18.1.2.22a3.64 3.64 0 0 1-.17 2.35 3.25 3.25 0 0 1-1.33 1.54zM26.37 57a3 3 0 0 1-4 1.66 3.47 3.47 0 0 1 4-1.66zm-7.27-2.53a3.12 3.12 0 0 1-4.29.67 3.42 3.42 0 0 1 4.29-.67zm34.32-49.7C54.68 5.57 55 7.35 54 9a3.25 3.25 0 0 1-.58-4.23zm-2.1 45.43a3.29 3.29 0 0 1 4.22-.45c-.7 1.44-3.23 1.35-4.22.45zm6.93-23.67a3 3 0 0 1 2.36 3.52 3.24 3.24 0 0 1-2.36-3.52zM53.45 9.4a3.46 3.46 0 0 1-4.25-.88c1.2-1 3.13-.53 4.25.88zM8.38 39.84a3.3 3.3 0 0 1-.23 4.23 2.93 2.93 0 0 1 .23-4.23zm43.42 5.7c.94 1 .73 2.9-.82 4.2-.74-.9-.58-3.04.82-4.2zm-46.05-4.4a3.92 3.92 0 0 1-2.64-.42A2.58 2.58 0 0 1 1.9 39a3.55 3.55 0 0 1 2.22.31 3.65 3.65 0 0 1 1.63 1.83zm20.68 15.2c-1.82-.26-3.15-1.77-2.84-3.2a3.31 3.31 0 0 1 2.84 3.2zM6.23 40.82c-.84-1.42-.6-3.46.78-4.2a3.27 3.27 0 0 1-.78 4.21zm15.94 3.88c0-.14-.05-.2-.13-.27a27.16 27.16 0 0 0-2.66-2.24l-.9-.55h27.07a1.68 1.68 0 0 1-.71.37c0-.1.16-.12.24-.24H19.13c0 .17.15.17.23.22a17 17 0 0 1 2.12 1.65 10.86 10.86 0 0 0 2.66 2l.08.1c-.5 0-.84-.34-1.24-.56a5.46 5.46 0 0 1-.48-.36c-.1-.08-.2-.16-.33-.1zm31.28 27.95a3.48 3.48 0 0 1-.79 0v-3.3a2.28 2.28 0 0 1 .79 0zm-12.95 3.1a1.69 1.69 0 0 1 .83-.08V79a5.39 5.39 0 0 1-.82 0l-.01-3.26zm-13.2-33s-.1 0-.1-.08-.2-.28-.28-.4c.23-.4.46-.47.83-.26a2.32 2.32 0 0 1 .7.73c.17 0 .22-.2.34-.3s.48-.2.6-.1a.54.54 0 0 1 .16.55c0 .1-.1.16-.08.26.4.35.58.37 1.1.1-.06.4-.25.5-.76.45a1.08 1.08 0 0 1-.6-.33c-.25-.2 0-.44-.06-.65-.35 0-.58.26-.52.65a1.13 1.13 0 0 0 1.32.94.69.69 0 0 1 .51 0c-.06.17-.2.18-.33.2a1.6 1.6 0 0 1-1.9-1.22 1.1 1.1 0 0 1 0-.18c-.15-.53-.38-.68-.95-.62v.26zm9.6-.2c-.44-.2-.67-.14-.87.24a1.17 1.17 0 0 0-.15.39 1.58 1.58 0 0 1-2.29 1.19.49.49 0 0 1 .51-.08 1.14 1.14 0 0 0 1.37-.94.67.67 0 0 0-.26-.65.19.19 0 0 0-.26 0c-.07 0 0 .13 0 .2a.57.57 0 0 1-.42.71.8.8 0 0 1-.93-.16.16.16 0 0 1 0-.2.75.75 0 0 0 1.06-.1c0-.13-.07-.23-.08-.35a.43.43 0 0 1 .75-.39l.4.44a1.44 1.44 0 0 1 .66-.84c.4-.2.58-.18.84.2a.47.47 0 0 1-.3.33zm-4.83-.48c0 .28.1.56.16.85l.13.82c.06.27.13.6-.16.85-.1.1-.07.23-.07.35a5 5 0 0 0 .19 1.55 1.07 1.07 0 0 1-.32 1.08 1 1 0 0 1-.29-1 4.45 4.45 0 0 0 .2-1.41c0-.26 0-.52-.2-.72s-.1-.3-.07-.44l.22-1.27a1.46 1.46 0 0 1 .22-.66zM13 83.9c-.1.17.12.3 0 .44s-.46-.06-.62-.22a2.59 2.59 0 0 0-1.3-.65 4.36 4.36 0 0 0-.51 0 .32.32 0 0 1-.28-.13 4.87 4.87 0 0 1 .57-.12 7.39 7.39 0 0 1 2.39.17 1.69 1.69 0 0 1 .55.23.26.26 0 0 1 .11.29c0 .14-.14.13-.25.14s-.45-.16-.66-.15zm-.14 0v.06zm39.44-.4a3 3 0 0 0-1.3.4.58.58 0 0 1-.76 0 .51.51 0 0 1 .39-.42 6.24 6.24 0 0 1 1.82-.29 4.43 4.43 0 0 1 1.51.16 3.35 3.35 0 0 1-.53.11 2.88 2.88 0 0 0-1.68.7l-.18.15c-.12.1-.27.16-.37 0s.08-.24.18-.3a10.27 10.27 0 0 1 .92-.5z"/><path d="M44.83 42c-.22.34-.6.48-.9.75s-.35.24-.43.45a7.87 7.87 0 0 0-1.59 1.4c-.07 0-.1 0-.1.1a.61.61 0 0 0-.47.38c-.28 0-.47.27-.72.4a1.8 1.8 0 0 1-1.23.32 4.35 4.35 0 0 0 1.07-.44 14.51 14.51 0 0 0 2-1.59c.07-.07.18-.13.1-.27.3 0 .44-.23.62-.4a9.58 9.58 0 0 1 1.36-1 .47.47 0 0 1 .25-.11zM31.4 57.24a.57.57 0 0 1 .58-.62.68.68 0 0 1 .7.59.7.7 0 0 1-.64.63.64.64 0 0 1-.64-.6zm-.18-13.02a.16.16 0 0 1-.19 0 .41.41 0 0 0-.45-.09c-.2 0-.4 0-.47-.26.47 0 .9 0 1-.6 0-.13-.12-.12-.18-.16-.2-.1-.27-.26-.17-.44a.31.31 0 0 1 .5-.08.61.61 0 0 1 .25.77c-.08.3-.2.63-.3.85zm1.63.48a7.82 7.82 0 0 0 1.61.21.82.82 0 0 1 .84.9.53.53 0 0 1-.35.4c-.18.07-.36.1-.48-.1s.1-.1.15-.14.26-.18.23-.36a.45.45 0 0 0-.33-.36 3.05 3.05 0 0 0-1-.19.8.8 0 0 1-.67-.36z"/><path d="M33 43.2c.07.53.18.6 1 .68-.07.2-.22.3-.4.24s-.47 0-.7.22l-.36-1.17a.59.59 0 0 1 .37-.62c.18 0 .36 0 .43.17a.27.27 0 0 1-.19.4c-.1.01-.17.01-.17.08zm-1.83 1.57a1 1 0 0 1-.75.3 2.5 2.5 0 0 0-.86.19.44.44 0 0 0-.33.45c0 .24.18.3.38.3h.08c-.27.24-.46.27-.67.12a.63.63 0 0 1-.19-.75.74.74 0 0 1 .43-.4 2.65 2.65 0 0 1 .54-.13 9.07 9.07 0 0 0 1.37-.09zm1.2.6a8.15 8.15 0 0 0 .74 1.27 1.65 1.65 0 0 1 .24.5.55.55 0 0 1-.35.67c-.22.08-.37 0-.6-.4.22.13.4.24.55.06a.44.44 0 0 0 0-.52l-.5-.94a.7.7 0 0 1-.09-.63zm-.8 2.13c.07.28-.17.3-.33.34a.49.49 0 0 1-.49-.36.7.7 0 0 1 .08-.58l.4-.58a5.54 5.54 0 0 0 .53-1 1.87 1.87 0 0 1-.32 1 6.28 6.28 0 0 0-.31.57c-.18.44-.05.6.46.57z"/><path d="M46.67 42.3a2.59 2.59 0 0 0-.6 1 4 4 0 0 1-.07.5c0 .13-.08.28-.27.25s-.17-.16-.18-.28a1.49 1.49 0 0 1 .66-1.29.67.67 0 0 1 .46-.2zM32.8 45.17A5.55 5.55 0 0 1 34 46a.69.69 0 0 1 .2.31.5.5 0 0 1-.12.56c-.15.14-.26.14-.57 0 0-.06 0-.08.07-.1.35-.1.43-.27.23-.55a3.44 3.44 0 0 0-.71-.66c-.13-.1-.33-.15-.28-.38zm-14.63-1.12c-.16-.64-.2-1.3-.8-1.73a.47.47 0 0 1 .48.16 1.55 1.55 0 0 1 .67 1.26c-.01.26-.02.26-.36.3zm13.13 1.13c0 .2-.14.25-.26.35l-.57.47a.76.76 0 0 0-.19.25.36.36 0 0 0 0 .43c.12.16.25 0 .4 0 0 .2-.14.3-.34.26a.44.44 0 0 1-.42-.36.63.63 0 0 1 .19-.58 6.28 6.28 0 0 1 1.19-.85z"/><path d="M35.86 45.08c-.08.18.1.26.14.4s.24.47 0 .73a.25.25 0 0 1-.25-.24 1.42 1.42 0 0 0-.69-1.08.34.34 0 0 1 0-.08c.22-.07.4.2.62.07-.05.18 0 .24.2.2zm-6.6-.36c-.24.23-.5.3-.65.5a1.33 1.33 0 0 0-.3.72c0 .12-.05.27-.2.22s-.16-.18-.13-.3a1.5 1.5 0 0 1 .74-1 1.05 1.05 0 0 1 .55-.13zm-3.18.64a2.68 2.68 0 0 0 .21-1.36c.27 0 .34.1.36.28a1.08 1.08 0 0 1-.55 1.09zm21.16-2.98c0 .08-.08.12-.14.17a1.14 1.14 0 0 0-.52.88c0 .14-.07.26-.23.22s-.14-.15-.12-.27a1.31 1.31 0 0 1 1-1z"/><path d="M16.64 42.33a1.09 1.09 0 0 1 1.1 1.32.16.16 0 0 1-.21-.12 1.47 1.47 0 0 0-.89-1.2zm12.1 2.3c-.38.17-.73.35-.85.8a.16.16 0 0 1-.23.1c-.08-.5.34-.84 1.08-.9zm6.94.28c0-.16-.18-.14-.23-.25.6 0 1 .3.93.86-.16 0-.2-.1-.24-.2s-.08-.3-.28-.23c0-.17 0-.2-.2-.2zm2.8-25.82c.54-.13.57-.1.58.25-.2-.03-.47.1-.58-.25z"/><path d="M33.35 87.57c-.06.3-.3.17-.45.16a.33.33 0 0 1-.29-.26.19.19 0 0 1 .18-.26c.17.06.07.22.13.3s.3 0 .42 0zm3.2-42.7a1.5 1.5 0 0 0-1-.5c.75-.07.98.05 1 .5zM16.9 18a.91.91 0 0 1-.73.37.91.91 0 0 1 .73-.37zm8.8 26.6c.23 0 .28.17.24.36a.75.75 0 0 1-.32.55 1.71 1.71 0 0 0 .09-.91zm7.9-28.13c-.2-.1-.35-.17-.3-.42a.38.38 0 0 1 .31.42zm-18.8 2.67c0-.28.14-.34.34-.27 0 .22-.14.23-.34.27zm33.1-.76c-.14 0-.26.07-.3-.1s0-.1.07-.1.15.1.22.2zM36.8 15.6c0 .05 0 .1-.1.1a.13.13 0 0 1-.15-.13c0-.08.06-.1.13-.1s.1.06.1.13zm-.72-.4c.17 0 .26 0 .33.18-.2.06-.26-.03-.33-.18zM27.3 42.75c.15.06.2.17.18.35a.3.3 0 0 1-.18-.35zm5.48 2.42c-.2 0-.22-.13-.38-.3a.63.63 0 0 1 .39.29zm-1.48 0a.59.59 0 0 1 .23-.24c0 .18-.07.23-.22.25zm5.4-2.33a.3.3 0 0 1 .19-.28c0 .13 0 .25-.18.28z"/><path d="M36.7 42.84c0 .1 0 .2-.18.32.07-.17.07-.26.18-.32zm-10.6 2.52c0 .1 0 .14-.15.17a.17.17 0 0 1 .13-.17zm-1.88.37a.26.26 0 0 1 .24 0c-.1.06-.18.1-.25 0zm8.66-11.27a.09.09 0 0 1-.09.07v-.05h.12zm13.8 7.82c0-.07.07-.1.13-.05s-.08 0-.13.06zm.56.1s0-.07.08-.07h.07a.17.17 0 0 1-.15.05zm-9.6-26.82a.1.1 0 0 1-.13.07s.07-.07.12-.08zM23.13 34.4s.08-.07.12 0 0 .07 0 .08-.1-.07-.12-.08zm8.45 13.1v-.07c.06.06 0 .06 0 .07zm14.12-5.94v.03h-.03l.02-.03zm-12.36 46a.09.09 0 0 1 .09-.1.09.09 0 0 1-.1.09zm8.48-42.86c0-.07 0-.1.1-.1s-.02.1-.1.1zm-29 39.17v.06-.06zm26.94 2.76a1.91 1.91 0 0 0 1-.69 1.16 1.16 0 0 1 .46-.39.23.23 0 0 1 .29.06.21.21 0 0 1 0 .3 2.11 2.11 0 0 1-.25.27 6.29 6.29 0 0 1-2.89 1.27 13.05 13.05 0 0 0 1.14-.81c.34-.34.48-.82.88-1.16.2.25.07.42-.05.57l-.52.6zm-3.53-3.16a.4.4 0 0 1 .4-.13 1.93 1.93 0 0 1 1.06.54 1.43 1.43 0 0 1 .28 1.7c-.08 0 0-.13 0-.2a1.35 1.35 0 0 0-1-1.57 2.07 2.07 0 0 1-.65-.21l-.1-.13zm-.97 3.98a2 2 0 0 1-1-2.68.44.44 0 0 1 0 .35 2.21 2.21 0 0 0 .76 1.9c.2.12.2.13.24.43zm-11.57-1.9c.22-.1.28.1.36.24a3.86 3.86 0 0 0 1.22 1.32c.18.12.4.14.6.34a3.06 3.06 0 0 1-1.08-.25 6.26 6.26 0 0 1-1.9-1 .8.8 0 0 1-.23-.29c-.06-.1-.07-.2 0-.3a.24.24 0 0 1 .3 0 1.59 1.59 0 0 1 .33.25 1.15 1.15 0 0 0 .48.38c.08-.25-.28-.45-.08-.7zm.17.7a.59.59 0 0 0 .45.39.68.68 0 0 0-.45-.39zm4.03-2.75c-.06.18-.23.2-.37.22-1.1.25-1.47.77-1.3 1.87v.07a1.48 1.48 0 0 1 .35-1.86c.42-.43.95-.54 1.3-.3zm1.9 1.2a2 2 0 0 1-.85 2.72c-.15-.17 0-.28.1-.4a4 4 0 0 0 .33-.37 2.11 2.11 0 0 0 .38-1.89s.02-.04.04-.07zm-10.64-1.47a.5.5 0 0 1-.49 0A4.57 4.57 0 0 0 17 83c-.13 0-.25.13-.42 0a3 3 0 0 1 .5-.14 5.14 5.14 0 0 1 1.79.07c.13.07.34.07.3.3z"/><path d="M18.65 83.93a6.19 6.19 0 0 0-1.83-.67 3.24 3.24 0 0 1 1.84.35c.08.04.1.16-.01.32zM45 83.27c-.06-.12-.06-.2 0-.25a1.29 1.29 0 0 1 .16-.09 3.88 3.88 0 0 1 2.41.14 7.08 7.08 0 0 0-1.37 0c-.37.01-.75.3-1.2.2z"/><path d="M47.45 83.2a.49.49 0 0 1-.39.16 2.77 2.77 0 0 0-1.25.45c-.16.1-.3.17-.45-.1a3.39 3.39 0 0 1 2.09-.52zM31.26 86v-1.4a2.11 2.11 0 0 1 0 1.4zm.94-1.27a1.82 1.82 0 0 1 0 1.13 2.07 2.07 0 0 1 0-1.13zm.67 1.4a2.79 2.79 0 0 1 0-1.5 14.15 14.15 0 0 0 0 1.5z"/><path d="M31.58 85.9v-1.18h.06v1.18zm.92 0v-1.17h.06v1.18zm-.6-1.17a3 3 0 0 1 0 1.12 2.82 2.82 0 0 1 0-1.12zM24.9 44h-.07c-.1-.12-.2-.24 0-.38s.14 0 .2 0-.03.3-.13.38zm13.22 1.5a1.25 1.25 0 0 1-.68-1.18.42.42 0 0 1 .1-.3.14.14 0 0 1 .16-.03.12.12 0 0 1 .11.13.87.87 0 0 1 0 .23 1.54 1.54 0 0 0 .31 1.15zm.15-.88a1.83 1.83 0 0 1 0 .66c-.16-.28-.27-.44 0-.66zm.9-.62c-.2-.2-.16-.32 0-.44.23.23.23.23 0 .44zm.6 42.63v.05z"/></svg>