<svg xmlns="http://www.w3.org/2000/svg" viewBox="0 0 90.17 84.99" fill="#cbaf54"><path d="M72.72,19.45a6.86,6.86,0,0,0-6.45-5.19l1.42,4.82Z"/><path d="M73.1 16.46a8.58 8.58 0 0 0-1.78-1.89A8.4 8.4 0 0 0 69 13.24a5.63 5.63 0 0 0-3-.36l.2.92a4.14 4.14 0 0 1 1.35 0 5.94 5.94 0 0 1 .83.21 7.24 7.24 0 0 1 2.32 1.27 7.92 7.92 0 0 1 1.75 1.94 7 7 0 0 1 .46.89 4.9 4.9 0 0 1 .39 1.36h.94a6.47 6.47 0 0 0-1.13-3.01zm-2.38-5.33l5.5 1.43.97-1.2-5.5-1.43-.97 1.2zm-1.18 1.47a7.93 7.93 0 0 1 1.5.77l3.74 1 1-1.2-5.5-1.43zm2.6-3.26l5.5 1.43.97-1.2-5.5-1.43-.97 1.2zm.25 5.08a8.36 8.36 0 0 1 1.21 1.41l.73-.9zm7.52-7.38l-3.62-2.9-1.3 1.6 4.9 1.28zm-6.34.5L79.08 9l.97-1.22-5.5-1.43-.98 1.2zm9.12-.65a1 1 0 0 1-1.37.11l-5-4a1 1 0 0 1-.15-1.38 1 1 0 0 1 1.37-.15l5 4a1 1 0 0 1 .16 1.37z"/><path d="M82.83 4.72l-4.55-3.64a2.913 2.913 0 0 1 4.55 3.64zM64.18 22.8l-1.7 2.13a14.2 14.2 0 0 1-2.37-3.21l2.6-3.33.23.18zm5.32 1.02l-3.25 3.84a14.22 14.22 0 0 1-3.15-2.13l1.78-2.2 4.4.32zm8.43-4.64a2.46 2.46 0 0 0-3.44.38 2.36 2.36 0 0 0-.38.67l-1.9-.14-5-.38-1.94-6.55a2.38 2.38 0 0 0 .58-.52 2.45 2.45 0 1 0-4.07-.38l1.14 3.87.54 1.8 1.24 4.23.14.47h.57l4.38.33 1.83.13 4.15.3a2.45 2.45 0 0 0 2.18-4.27zM63.5 11.6a.69.69 0 1 1 1-.11.69.69 0 0 1-1 .11zM76 21.62a.7.7 0 0 1-.11-1 .71.71 0 0 1 1-.11.7.7 0 0 1 .11 1 .69.69 0 0 1-1 .11zM71 31s4.4 33.13-25.8 47.3C15 64.1 19.4 31 19.4 31c12.37-1.82 13.4-12.1 13.4-12.1h24.75S58.6 29.14 71 31zm-3 18a52.44 52.44 0 0 0 1.67-16.8C63.42 31 60.1 27.67 58.4 25a16.08 16.08 0 0 1-2-4.7H34a15.81 15.81 0 0 1-2 4.7c-1.7 2.65-5 6-11.22 7.2a52.47 52.47 0 0 0 1.64 16.7A41.41 41.41 0 0 0 45.2 76.6 41.4 41.4 0 0 0 68 49zm-56.2 9.34s2.2-1.53 3.43.47c0 0 1.5-1 2.94 1.08 0 0 6.13-1.94 2.7 8 0 0 2.87-4.7 1.52-8.4s-7.23-6.1-10.6-1.14z"/><path d="M20.9 67.85s1.8-6.1-4.56-6.78c0 0 1.38 1.72.4 2.87 0 0 2-.7 2.43 1.1 0-.04 1.56-.5 1.72 2.8zM7.53 37.5l.36.2a1.24 1.24 0 0 1-.36-.19z"/><path d="M19.44 47.1S17 48 17.1 49.75c0 0-.5-4.83 1.38-7.37 0 0-1.62-.6-2 .73 0 0-.48-5 1.45-6.57a8.79 8.79 0 0 0-4.13 11.13c-.14-.23-3.1-5.28-.7-8.76s1.9-5.36 1.9-5.36-2.24.42-2.86 2.15v-1.42a4 4 0 0 0-1.52 2.64 5.38 5.38 0 0 0-1.14-3.31l-.5 1.3a3.06 3.06 0 0 0-2.66-2.69s-.38 2.22 1 3.42l-1-.6a5.07 5.07 0 0 0 1.3 2.44l.2.1H7.6l-.1-.07a3.85 3.85 0 0 0-3.2-.3l.83.74c-.15-.06-2.1-.83-3.24.2 0 0 1.46 2.1 3 2l-1.2.7a11.44 11.44 0 0 0 3.56 1 3.93 3.93 0 0 1 2.74 2A18.69 18.69 0 0 0 6.13 43 3.76 3.76 0 0 1 4 42.19s-.36 1.4.48 1.8c0 0-2-.46-2.94.9 0 0 2.1 1.62 3.23.9-.2.14-1.58 1.12-1.08 1.88a8.15 8.15 0 0 1 4.6-.42s-1.66-.06-2.1.85a14.77 14.77 0 0 1 6.42 1.37c2.76 1.48 4.16 5.18 9.3 6 0-.03-4.73-4-2.46-8.37zm-9.4-5.6s-3.4-3-6.13-2.62c2.06-.63 6 2.3 6 2.3-.5-1.53-.92-3.2-1.4-5.2 1.7 6.4 3.73 11.93 7.67 15.6a20.81 20.81 0 0 1-1-2.43c0-.12-.08-.24-.13-.36l-.12-.4a16.9 16.9 0 0 1-.55-2.28c0-.16 0-.32-.07-.47s-.05-.37-.06-.55a7.93 7.93 0 0 1 .73-4.59c-2.1 5.07 1.18 11 1.34 11.27A16.23 16.23 0 0 0 20 54.33c-.87-.28-6.25-1.97-9.95-12.8zm8.36-17.2s-1.4.18-1.85 1.07l.18-.94a2.14 2.14 0 0 0-2 1.13v-.76A2.64 2.64 0 0 0 13 26.65c-.37 1.48-1.43.94-1.14-.4a2 2 0 0 0-.41-2l-.36.6s-.27-1.1-.9-1.32l-.13.7A3 3 0 0 0 7.66 23s.43 1.58 1 1.93l-.9-.32A1.87 1.87 0 0 0 8.64 26l-.9-.16s0 .83 1.2 1.33 1.87.93 1.67 2.3-.58 2.8.28 4.36c0 0 0-4.93 3.48-5.36s4-4.16 4-4.16zm14.1 49.62a14.71 14.71 0 0 1-4.4-4.86c-.54.8.24 2.12.3 2.24a8.19 8.19 0 0 1-1.93-4.19c-.9 0-1.06 1.57-1.08 1.87 0-1.34-2.4-2.34-2.4-2.34-.7 1.52.7 3 .7 3-.72-.55-1.76.48-1.76.48a3.68 3.68 0 0 1 1.76 1.43 19.38 19.38 0 0 0 2.71 2.9 4 4 0 0 1-3.14-1.35 11.72 11.72 0 0 0-2.67-2.58v1.4c-.68-1.36-3.23-1.57-3.23-1.57-.33 1.58 1.46 2.9 1.46 2.9l-1.06-.35a3.81 3.81 0 0 0 1.86 2.62 1.08 1.08 0 0 1 .34.21l-.34-.2a5.05 5.05 0 0 0-2.76.1l1 .55c-1.7-.55-3.43.9-3.43.9a3 3 0 0 0 3.65.94l-.9 1.1a5.36 5.36 0 0 0 3.44-.67 3.94 3.94 0 0 0-1.52 2.63l1.23-.7c-1.18 1.4-.42 3.56-.42 3.56s1.88-.37 3.7-4.3 7.93-3.8 7.93-3.8A8.8 8.8 0 0 0 24 85c.36-2.44 4.95-4.55 4.95-4.55-.94 1 .38 2.1.38 2.1 1.2-2.8 5.4-4.76 5.67-4.9-1.5.8-1.1 3.35-1.1 3.35 2.6-4.08 8.28-2.1 8.45-2-3.3-4.1-7.2-3.43-9.86-5.1zM19.2 72.1a6.63 6.63 0 0 0 5 3.18 5.35 5.35 0 0 1-5-3.18zm6.18-1.85c.76 1.64 1.07 3 5.15 4.14-2.86-.28-5-2.23-5.15-4.14zm-9.7-5.6c-4.57-2.72-9-8.46-9-8.46-.86 3.24.77 4.18.85 4.22C.82 57.7 0 65.14 0 65.14a14.4 14.4 0 0 1 10-1.55c-2.25-.47-2.7 3-2.7 3 5.6-2.6 13.54 2.66 13.7 2.8 0-.1-.9-2.1-5.32-4.73zm-13.4-2.28c.06-.37.73-2.7 7.84-.37-7.1-1.7-7.78.1-7.84.37zm27.2-5.97v-.33a4.46 4.46 0 0 0 1.33-.24 2.43 2.43 0 0 0 .89-.59 2.34 2.34 0 0 0 .62-1.16 11.29 11.29 0 0 0 .15-2.17V41.4a11.37 11.37 0 0 0-.15-2.17 2.3 2.3 0 0 0-.62-1.15 2.1 2.1 0 0 0-.9-.6 4.48 4.48 0 0 0-1.32-.23v-.33h11.25a6.18 6.18 0 0 1 2.7.77 3.88 3.88 0 0 1 1.43 1.5 4.6 4.6 0 0 1-.65 5.16 3.71 3.71 0 0 1-.94.73 10.24 10.24 0 0 1-1.53.65 12.53 12.53 0 0 1 2.13.5 4.59 4.59 0 0 1 1.37.76 4.91 4.91 0 0 1 1.42 1.85 5.63 5.63 0 0 1 .51 2.39 5.36 5.36 0 0 1-.52 2.38 4.39 4.39 0 0 1-1.45 1.73 5.19 5.19 0 0 1-2 .82 18.15 18.15 0 0 1-3.27.23zm6.12-19.06v8.5h1.16a12.3 12.3 0 0 0 1.68-.12 6.39 6.39 0 0 0 1.23-.27 3.4 3.4 0 0 0 .85-.43 3.65 3.65 0 0 0 1.12-1.39 4.45 4.45 0 0 0 .37-1.88 5.33 5.33 0 0 0-.41-2.06 3.73 3.73 0 0 0-1.08-1.52 3.25 3.25 0 0 0-1.33-.65 11.44 11.44 0 0 0-2.28-.17zm0 8.93v5.88a8 8 0 0 0 .15 1.73 2.57 2.57 0 0 0 3 2.07 5.12 5.12 0 0 0 3.64-1.25 4.5 4.5 0 0 0 1.34-3.43 6.24 6.24 0 0 0-.43-2.28 3.92 3.92 0 0 0-1.11-1.63 6.27 6.27 0 0 0-4-1.06z"/><path d="M39.9 56.6H29.28v-.7h.17a4.36 4.36 0 0 0 1.28-.22 2.41 2.41 0 0 0 .83-.55 2.18 2.18 0 0 0 .57-1.07 10.89 10.89 0 0 0 .15-2.13V41.4a11 11 0 0 0-.15-2.13 2.3 2.3 0 0 0-1.4-1.62 4.87 4.87 0 0 0-1.28-.22h-.17v-.7h11.45a6.37 6.37 0 0 1 2.78.8 4.28 4.28 0 0 1 1.49 1.6 4.5 4.5 0 0 1 .53 2.17 4.43 4.43 0 0 1-1.21 3.2 3.88 3.88 0 0 1-1 .77 7.42 7.42 0 0 1-.92.43 10.09 10.09 0 0 1 1.49.39 5 5 0 0 1 1.43.78 5.28 5.28 0 0 1 1.47 1.92 5.86 5.86 0 0 1 .53 2.47 5.58 5.58 0 0 1-.54 2.46 4.66 4.66 0 0 1-1.51 1.8 5.4 5.4 0 0 1-2.08.85 18.73 18.73 0 0 1-3.28.23zm-9.9-.37h9.94a17.78 17.78 0 0 0 3.21-.22 5 5 0 0 0 1.93-.78 4.33 4.33 0 0 0 1.39-1.66 5.17 5.17 0 0 0 .51-2.3 5.53 5.53 0 0 0-.5-2.32 4.9 4.9 0 0 0-1.37-1.78 4.39 4.39 0 0 0-1.31-.72 12.3 12.3 0 0 0-2.1-.5l-.7-.1.67-.24a11.5 11.5 0 0 0 1.5-.64 3.63 3.63 0 0 0 .9-.7 4.4 4.4 0 0 0 .62-4.94 3.76 3.76 0 0 0-1.37-1.43 6 6 0 0 0-2.62-.75H30a4.07 4.07 0 0 1 .89.19 2.52 2.52 0 0 1 1 .65 2.56 2.56 0 0 1 .66 1.24 11.74 11.74 0 0 1 .16 2.21v10.5a10.75 10.75 0 0 1-.16 2.21 2.57 2.57 0 0 1-.67 1.25 2.51 2.51 0 0 1-.95.63 3.51 3.51 0 0 1-.93.21zm8.76-.07a3.14 3.14 0 0 1-2.64-1 3.09 3.09 0 0 1-.53-1.19 8.44 8.44 0 0 1-.15-1.77v-6.1h2.74a6.46 6.46 0 0 1 4.14 1.1 4 4 0 0 1 1.17 1.72 6.32 6.32 0 0 1 .43 2.37 4.69 4.69 0 0 1-1.39 3.56 5.29 5.29 0 0 1-3.8 1.31zm-2.95-9.7v5.7a8.4 8.4 0 0 0 .14 1.69 2.84 2.84 0 0 0 .46 1 2.79 2.79 0 0 0 2.35.89 4.94 4.94 0 0 0 3.51-1.21 4.31 4.31 0 0 0 1.28-3.29 6.28 6.28 0 0 0-.4-2.24 3.74 3.74 0 0 0-1.06-1.56 6.16 6.16 0 0 0-3.91-1zm1-.44h-1.4v-8.85h1.5a11.91 11.91 0 0 1 2.32.17 3.43 3.43 0 0 1 1.41.68 4 4 0 0 1 1.13 1.6 5.5 5.5 0 0 1 .42 2.13 4.67 4.67 0 0 1-.4 2 3.77 3.77 0 0 1-1.19 1.46 3.58 3.58 0 0 1-.89.46 8.73 8.73 0 0 1-1.26.28 14.55 14.55 0 0 1-1.71.05zm-1-.37h1a13.74 13.74 0 0 0 1.66-.11 6.07 6.07 0 0 0 1.19-.27 2.86 2.86 0 0 0 .8-.4 3.45 3.45 0 0 0 1.06-1.32 4.23 4.23 0 0 0 .37-1.8 5.19 5.19 0 0 0-.39-2 3.63 3.63 0 0 0-1-1.45 3.07 3.07 0 0 0-1.26-.6 11.06 11.06 0 0 0-2.24-.17h-1.22zm16.83.57v5.7a11.13 11.13 0 0 0 .15 2.15 2.53 2.53 0 0 0 .6 1.16 2.32 2.32 0 0 0 .91.61 4.6 4.6 0 0 0 1.34.24v.33H46.5v-.33a4 4 0 0 0 1.3-.22 2.39 2.39 0 0 0 1-.6 2.73 2.73 0 0 0 .57-1.21 10.65 10.65 0 0 0 .17-2.13V41.4a17.76 17.76 0 0 0-.1-1.89 2.35 2.35 0 0 0-1.23-1.88 4 4 0 0 0-1.67-.38v-.33h14.9l.4 4.64-.33.07a10.11 10.11 0 0 0-.66-1.62A4.66 4.66 0 0 0 59 38.07a5 5 0 0 0-1.62-.56 14.92 14.92 0 0 0-2.51-.16h-2.23v8.43h.57a5.07 5.07 0 0 0 3.67-1.13 3.25 3.25 0 0 0 .76-1.15 6.44 6.44 0 0 0 .36-1.73h.33l-.1 8.66h-.34a7 7 0 0 0-.54-2.25 3 3 0 0 0-1.15-1.28 4.13 4.13 0 0 0-1.4-.52 11.46 11.46 0 0 0-2.17-.16z"/><path d="M55.82 56.6h-9.5v-.7h.2a3.67 3.67 0 0 0 1.24-.21 2.28 2.28 0 0 0 .88-.54 2.53 2.53 0 0 0 .53-1.14 10.34 10.34 0 0 0 .16-2.09V41.4a17.71 17.71 0 0 0-.1-1.88 2.11 2.11 0 0 0-1.13-1.72 3.76 3.76 0 0 0-1.59-.37h-.18v-.7H61.6l.45 5-.65.14-.06-.16a9 9 0 0 0-.64-1.59 4.61 4.61 0 0 0-3.37-2.4 15.85 15.85 0 0 0-2.48-.15h-2v8.05h.4a5 5 0 0 0 3.54-1.07 3.07 3.07 0 0 0 .71-1.09 5.72 5.72 0 0 0 .33-1.68v-.18h.68l-.08 9h-.7v-.17a7.24 7.24 0 0 0-.52-2.18 2.88 2.88 0 0 0-1.09-1.21 3.9 3.9 0 0 0-1.34-.49 11 11 0 0 0-1.93-.16v5.5A10.72 10.72 0 0 0 53 54a2.33 2.33 0 0 0 .56 1.08 2.26 2.26 0 0 0 .84.56 4.49 4.49 0 0 0 1.28.22h.17zm-8.7-.37h8a3.51 3.51 0 0 1-.9-.21 2.31 2.31 0 0 1-1-.65 2.73 2.73 0 0 1-.65-1.25 10.59 10.59 0 0 1-.16-2.19V46h.2a11.85 11.85 0 0 1 2.18.16 4.46 4.46 0 0 1 1.47.55 3.26 3.26 0 0 1 1.22 1.36A6.93 6.93 0 0 1 58 50.2l.08-8a5.8 5.8 0 0 1-.31 1.33 3.41 3.41 0 0 1-.8 1.21A5.23 5.23 0 0 1 53.21 46h-.76v-8.83h2.4a15.53 15.53 0 0 1 2.55.16 5.08 5.08 0 0 1 1.67.58 5 5 0 0 1 2 2 9.25 9.25 0 0 1 .61 1.5l-.4-4.3H47a3.42 3.42 0 0 1 1.27.36 2.52 2.52 0 0 1 1.32 2 18.55 18.55 0 0 1 .11 1.92v10.54a10.33 10.33 0 0 1-.18 2.17 2.92 2.92 0 0 1-.61 1.3 2.6 2.6 0 0 1-1 .64 3.84 3.84 0 0 1-.8.19zM35.56 33.88h1.4v3.15h-1.4zm3.34 0h1.4v3.15h-1.4zM35.56 56.2h1.4v3.3h-1.4zm3.34 0h1.4v3.3h-1.4zm18.76 5.2c-2.44 6.85-12.54 12.24-12.54 12.24S34.2 67.7 32 61.4c9 3.26 17.23 3.32 25.66 0zm2.14-30.26H30.4c3.6-2.55 4.55-4 5.64-7.75h18.12c1.1 3.73 2.05 5.2 5.64 7.75zm-13.98-7.78zm1.88.01zm-3.3-.01zm.7.01zM58.23 7.92l-.8 9.42H32.77L32 7.92s1.36 3.7 3.88 4a2.6 2.6 0 0 0-.34 1.3 2.66 2.66 0 1 0 5.32 0 2.59 2.59 0 0 0-.38-1.35c3-1 4.63-6.17 4.63-6.17s1.7 5.2 4.66 6.17a2.59 2.59 0 0 0-.38 1.35 2.67 2.67 0 1 0 5.33 0 2.61 2.61 0 0 0-.35-1.3c2.5-.3 3.86-4 3.86-4zM16.37 51.8zM45.2 75.33l-.12-.06A39.32 39.32 0 0 1 23.44 49a50 50 0 0 1-1.56-15.84v-.2l.2-.05a15.38 15.38 0 0 0 10.4-6.66 14.79 14.79 0 0 0 1.88-4.35l.06-.2h21.5l.06.2a14.79 14.79 0 0 0 1.88 4.35 15.38 15.38 0 0 0 10.4 6.66h.2v.2a50 50 0 0 1-1.59 15.94 39.3 39.3 0 0 1-21.6 26.21zM22.42 33.38A49.42 49.42 0 0 0 24 48.82a38.77 38.77 0 0 0 21.19 25.89 38.78 38.78 0 0 0 21.2-25.79A49.66 49.66 0 0 0 68 33.37a15.91 15.91 0 0 1-10.56-6.86 15.41 15.41 0 0 1-1.9-4.3H34.88a15.41 15.41 0 0 1-1.9 4.3 15.9 15.9 0 0 1-10.56 6.87zm42.9 36.86c-.14 1.9-2.3 3.86-5.15 4.14 4.08-1.12 4.38-2.5 5.15-4.14zm2.44-10.8c-1.36 3.7 1.52 8.4 1.52 8.4-3.42-9.9 2.7-8 2.7-8 1.43-2.1 2.93-1.08 2.93-1.08 1.24-2 3.44-.47 3.44-.47-3.36-4.93-9.25-2.58-10.6 1.14z"/><path d="M71 65c.4-1.8 2.43-1.1 2.43-1.1-1-1.15.4-2.87.4-2.87-6.36.68-4.56 6.78-4.56 6.78C69.44 64.54 71 65 71 65zm11.64-27.5l-.36.2a1.24 1.24 0 0 0 .36-.19z"/><path d="M68.27 55.45c5.13-.84 6.53-4.54 9.3-6A14.77 14.77 0 0 1 84 48.06c-.44-.9-2.1-.85-2.1-.85a8.17 8.17 0 0 1 4.61.42c.5-.76-.88-1.74-1.08-1.88 1.13.73 3.23-.9 3.23-.9-1-1.37-2.94-.9-2.94-.9.84-.35.47-1.76.47-1.76A3.76 3.76 0 0 1 84 43a18.69 18.69 0 0 0-3.86.88 3.93 3.93 0 0 1 2.73-2 11.44 11.44 0 0 0 3.57-1l-1.2-.7c1.5.1 3-2 3-2-1.15-1-3.1-.26-3.24-.2l.83-.74a3.85 3.85 0 0 0-3.2.3l-.1.07h-.08l-.15.07h.05l.2-.1a5 5 0 0 0 1.29-2.44l-1 .6c1.32-1.2 1-3.42 1-3.42a3 3 0 0 0-2.66 2.69l-.5-1.3a5.38 5.38 0 0 0-1.14 3.31 4 4 0 0 0-1.52-2.64v1.42c-.62-1.73-2.86-2.15-2.86-2.15S74.53 35.45 77 39s-.55 8.53-.7 8.76a8.79 8.79 0 0 0-4.14-11.13c1.93 1.54 1.46 6.57 1.46 6.57-.4-1.32-2-.73-2-.73C73.5 45.02 73 49.85 73 49.85c.07-1.7-2.34-2.64-2.34-2.64 2.3 4.27-2.44 8.25-2.44 8.25zm1.86-1.12a16.23 16.23 0 0 0 3.66-2.51c.15-.28 3.43-6.2 1.34-11.27a8 8 0 0 1 .79 4.63l-.06.55c0 .15-.05.3-.07.47a18.55 18.55 0 0 1-.55 2.28c0 .13-.08.26-.13.4l-.12.36a23 23 0 0 1-1 2.43C77.9 48 80 42.44 81.64 36c-.43 1.9-.9 3.62-1.4 5.15 0 0 4-2.92 6-2.3-2.75-.37-6.13 2.62-6.13 2.62-3.68 10.88-9.1 12.57-9.97 12.85zM75.8 28.5c3.46.43 3.48 5.36 3.48 5.36.86-1.56.5-3 .28-4.36s.5-1.78 1.66-2.3 1.2-1.33 1.2-1.33l-.9.16a1.87 1.87 0 0 0 .89-1.47l-.9.32c.57-.35 1-1.93 1-1.93a3 3 0 0 0-2.37 1.31l-.13-.7c-.64.2-.92 1.32-.92 1.32l-.35-.6a2 2 0 0 0-.41 2c.3 1.35-.77 1.9-1.14.4a2.66 2.66 0 0 0-1.79-1.89v.76a2.14 2.14 0 0 0-2-1.13l.17.94c-.44-.9-1.84-1.07-1.84-1.07s.6 3.77 4.06 4.2zM47.8 79c.17-.06 5.85-2 8.45 2 0 0 .4-2.54-1.1-3.35.28.13 4.45 2.1 5.67 4.9 0 0 1.32-1.1.38-2.1 0 0 4.58 2.1 4.95 4.55a8.8 8.8 0 0 0-7.57-9.16s6.1-.13 7.94 3.8 3.7 4.3 3.7 4.3.76-2.16-.43-3.56l1.24.7a3.94 3.94 0 0 0-1.52-2.63 5.34 5.34 0 0 0 3.44.67l-.9-1.1a3 3 0 0 0 3.65-.94s-1.73-1.44-3.43-.9l1-.55a5.05 5.05 0 0 0-2.76-.1l-.34.2a1 1 0 0 1 .34-.21 3.81 3.81 0 0 0 1.86-2.62l-1.07.35s1.8-1.33 1.47-2.9c0 0-2.55.2-3.23 1.57v-1.4a11.56 11.56 0 0 0-2.66 2.58 4 4 0 0 1-3.14 1.35 19.38 19.38 0 0 0 2.71-2.9 3.68 3.68 0 0 1 1.76-1.43s-1-1-1.76-.48c0 0 1.4-1.48.7-3 0 0-2.44 1-2.4 2.34 0-.3-.2-1.92-1.08-1.87a8.25 8.25 0 0 1-1.94 4.19c.08-.12.85-1.44.32-2.24a14.71 14.71 0 0 1-4.4 4.86c-2.67 1.66-6.56 1-9.86 5.08zM66 75.27a6.65 6.65 0 0 0 5-3.18 5.35 5.35 0 0 1-5 3.18zm-6.36-.9c4.08-1.12 4.4-2.5 5.15-4.14-.14 1.9-2.3 3.86-5.15 4.14zm9.5-5c.2-.13 8.14-5.36 13.7-2.74 0 0-.45-3.52-2.7-3a14.4 14.4 0 0 1 10 1.55s-.83-7.43-7.5-4.73c.08 0 1.7-1 .85-4.22 0 0-4.45 5.74-9 8.46s-5.3 4.58-5.35 4.68zM80.06 62c7.1-2.3 7.78.06 7.84.4-.06-.3-.73-2.1-7.84-.4zM17.7 19.45a6.86 6.86 0 0 1 6.45-5.19l-1.42 4.82z"/><path d="M17.3 16.46a9 9 0 0 1 4.06-3.22 5.67 5.67 0 0 1 3-.36l-.2.92a4.06 4.06 0 0 0-1.34 0 5.94 5.94 0 0 0-.83.2 7.17 7.17 0 0 0-2.33 1.27 7.85 7.85 0 0 0-1.74 1.94 7.17 7.17 0 0 0-.47.89 4.63 4.63 0 0 0-.38 1.36h-.94a6.34 6.34 0 0 1 1.17-3zm2.38-5.33l-5.5 1.43-.97-1.2 5.5-1.43.97 1.2zm1.2 1.47a8.3 8.3 0 0 0-1.51.77l-3.74 1-1-1.2 5.5-1.43zm-2.62-3.26l-5.5 1.43-.97-1.2 5.5-1.43.97 1.2zM18 14.42a8.45 8.45 0 0 0-1.22 1.41l-.72-.9zm-7.5-7.38l3.6-2.9 1.3 1.6-4.9 1.28zm6.32.5L11.33 9l-.97-1.22 5.5-1.43.97 1.2zM7.7 6.9a1 1 0 0 0 1.37.1l5-4a1 1 0 0 0 .16-1.38 1 1 0 0 0-1.37-.15l-5 4a1 1 0 0 0-.16 1.42z"/><path d="M7.58 4.72l4.55-3.64a2.913 2.913 0 0 0-4.55 3.64zM26.22 22.8l1.7 2.13a13.91 13.91 0 0 0 2.37-3.21l-2.6-3.33-.22.18zm-5.32 1.02l3.25 3.84a14.38 14.38 0 0 0 3.14-2.13l-1.78-2.2-4.38.32zm-8.8-1.2a2.44 2.44 0 0 0 2.56.83l5.97-.45 4.37-.32h.56l.14-.47 1.3-4.27.54-1.8 1.14-3.87a2.45 2.45 0 1 0-4.07.38 2.34 2.34 0 0 0 .57.52l-1.93 6.55-6.9.52a2.36 2.36 0 0 0-.38-.67 2.45 2.45 0 1 0-3.82 3.06zM25.93 11.5a.69.69 0 1 1 1.07-.86.69.69 0 1 1-1.08.86zm-12.52 10a.69.69 0 0 1 .1-1 .7.7 0 0 1 .87 1.09.69.69 0 0 1-.97-.07z"/></svg>