<svg xmlns="http://www.w3.org/2000/svg" viewBox="0 0 137.21 35.56"><defs><style>.b3087d14-7b26-487d-bdb2-db634220a011{fill:#c10d19;}.f7fb21ec-ebb5-467c-bd45-cde5c0b409e4{fill:#fff;}</style></defs><title>57</title><g id="aca1ef08-b44a-4597-8537-8f21a0349d6e" data-name="Слой 2"><g id="f4f89aa6-dd70-441a-88a5-c792b96f525a" data-name="Слой 1"><rect class="b3087d14-7b26-487d-bdb2-db634220a011" x="50.83" y="-50.83" width="35.56" height="137.21" transform="translate(50.83 86.38) rotate(-90)"/><path class="f7fb21ec-ebb5-467c-bd45-cde5c0b409e4" d="M11.11,22.87l.26-2.61H13l.64-6.14H12l.26-2.63h1.7l.56-5.41h3L17,11.49h2.19l.56-5.41h3l-.56,5.41h1.71l-.27,2.63H21.88l-.64,6.14H23l-.28,2.61H21l-.7,6.72h-3L18,22.87H15.76l-.7,6.72H12l.71-6.72ZM16,20.26h2.19l.64-6.14H16.68Z"/><path class="f7fb21ec-ebb5-467c-bd45-cde5c0b409e4" d="M25.39,24V11.72a6.24,6.24,0,0,1,1.4-4.37A5.3,5.3,0,0,1,30.9,5.82a5.62,5.62,0,0,1,4.21,1.53,6,6,0,0,1,1.49,4.37V14H32.91V11.49c0-1.54-.64-2.31-1.91-2.31s-1.93.77-1.93,2.31V24.18c0,1.53.64,2.29,1.93,2.29s1.91-.76,1.91-2.29V20.82H36.6V24a6,6,0,0,1-1.49,4.37,5.62,5.62,0,0,1-4.21,1.53,5.3,5.3,0,0,1-4.11-1.53A6.22,6.22,0,0,1,25.39,24Z"/><path class="f7fb21ec-ebb5-467c-bd45-cde5c0b409e4" d="M38.64,29.59V6.08h3.69V16.16h4.2V6.08h3.69V29.59H46.53V19.52h-4.2V29.59Z"/><path class="f7fb21ec-ebb5-467c-bd45-cde5c0b409e4" d="M53,29.59V6.08h3.69V29.59Z"/><path class="f7fb21ec-ebb5-467c-bd45-cde5c0b409e4" d="M59.31,29.59V6.08h5l3.79,14.08V6.08h3.29V29.59h-3.8L63,12.58v17Z"/><path class="f7fb21ec-ebb5-467c-bd45-cde5c0b409e4" d="M72.7,29.59,76.44,6.08h5.7l3.74,23.51H82.19l-.64-4.26H77l-.64,4.26Zm4.81-7.46h3.56L79.28,10.3Z"/><path class="f7fb21ec-ebb5-467c-bd45-cde5c0b409e4" d="M87.32,29.59V6.08H91V26.23h6.08v3.36Z"/><path class="f7fb21ec-ebb5-467c-bd45-cde5c0b409e4" d="M98.7,29.59V6.08h3.69V29.59Z"/><path class="f7fb21ec-ebb5-467c-bd45-cde5c0b409e4" d="M105.07,29.59V6.08h9.77V9.44h-6.08v7.09h4.77v3.35h-4.77v9.71Z"/><path class="f7fb21ec-ebb5-467c-bd45-cde5c0b409e4" d="M116.61,29.59V6.08h10.07V9.44H120.3V16h5.06v3.34H120.3v6.89h6.38v3.36Z"/></g></g></svg>