<svg xmlns="http://www.w3.org/2000/svg" viewBox="0 0 68.19 77.97"><defs><style>.b32b53ec-6b84-49d0-b3f8-66c9122f36bc{fill:#e8e7e6;}</style></defs><title>58</title><g id="e31127e8-8fe2-4099-bfec-51ca7fa8e836" data-name="Слой 2"><g id="be92db2c-3d24-46e4-8d02-287b1ad1961f" data-name="Слой 1"><g id="a418e1d6-4982-454a-b7b1-49ae46cd8f63" data-name="Layer_1"><path class="b32b53ec-6b84-49d0-b3f8-66c9122f36bc" d="M11.85,26.24v-4H4.17V14.87h7V11h-7V4.5h7.68v-4H3.68a4,4,0,0,0-2.7.9,1.42,1.42,0,0,0-.49.49,1.81,1.81,0,0,0-.33.65C.08,2.78.08,3,0,3.35v19a4.33,4.33,0,0,0,.9,3,4.19,4.19,0,0,0,3,.82ZM61.13,70.7a3.64,3.64,0,1,1-3.59,3.67A3.66,3.66,0,0,1,61.13,70.7ZM64.65,2.45c-2.78-2.78-4.25-2.78-7,0C54.27,5.8,52.55,14.3,55.9,18.23c4.17,4.74,4.25,2.37,4.17,8.09-.16,12.58-2.61,24.92-2.61,37a3.68,3.68,0,1,0,7.35,0c0-12.34-2.61-24.6-2.61-36.94,0-5.48-.49-3.11,4-8C70,14.14,67.67,5.48,64.65,2.45ZM57,15.94a9.25,9.25,0,0,1-.82-2.29,10.89,10.89,0,0,1,2.53-9.73A20.7,20.7,0,0,0,57,15.94ZM48.14,76.42a.89.89,0,0,1,.57.24.71.71,0,0,1,.16.57c0,.17,0,.41-.16.49a.85.85,0,0,1-.57.25c-2.62,0-4-1.31-4-3.92V68.49H43.4a.86.86,0,0,1-.82-.82.85.85,0,0,1,.25-.57,1.16,1.16,0,0,1,.57-.16h.73v-4a.9.9,0,0,1,.25-.57.76.76,0,0,1,.57-.25.74.74,0,0,1,.57.25.85.85,0,0,1,.25.57v4h1.55a1.16,1.16,0,0,1,.57.16.85.85,0,0,1,.25.57.86.86,0,0,1-.82.82H45.77v5.56A2.08,2.08,0,0,0,48.14,76.42ZM41.27,64.57a.93.93,0,0,1-.24.65,1.52,1.52,0,0,1-.74.33,1.49,1.49,0,0,1-.73-.33.9.9,0,0,1-.25-.65,1,1,0,0,1,.25-.74,1.49,1.49,0,0,1,.73-.33,1.52,1.52,0,0,1,.74.33A1,1,0,0,1,41.27,64.57Zm-1.79,3.1a.89.89,0,0,1,.24-.57,1.2,1.2,0,0,1,.57-.16,1.16,1.16,0,0,1,.57.16.85.85,0,0,1,.25.57v9.56a.56.56,0,0,1-.25.49.71.71,0,0,1-.57.25.72.72,0,0,1-.57-.25.58.58,0,0,1-.24-.49Zm-1.64-5.56a.9.9,0,0,1,.57.25.85.85,0,0,1,.25.57.71.71,0,0,1-.25.57.85.85,0,0,1-.57.25c-2.12,0-3.19,1.06-3.19,3.19v.57H37a.77.77,0,0,1,.58.24.73.73,0,0,1,.24.49.82.82,0,0,1-.82.82H34.65v8.17a.58.58,0,0,1-.24.49.74.74,0,0,1-.57.25.89.89,0,0,1-.74-.74V69.06h-.82a.75.75,0,0,1-.57-.24.77.77,0,0,1-.24-.58.73.73,0,0,1,.24-.49.75.75,0,0,1,.57-.24h.82v-.57C33.1,63.75,34.65,62.11,37.84,62.11ZM5.72,76.42a4.06,4.06,0,0,0,2.86-1.15,4,4,0,0,0,0-5.64,4.1,4.1,0,0,0-2.86-1.14,3.93,3.93,0,0,0-2.78,1.14,4.06,4.06,0,0,0,0,5.64A3.89,3.89,0,0,0,5.72,76.42ZM1.8,68.57v-.08a5.3,5.3,0,0,1,3.92-1.55,5.3,5.3,0,0,1,3.92,1.55,5.61,5.61,0,0,1,1.64,3.92,5.38,5.38,0,0,1-1.64,3.93A5.07,5.07,0,0,1,5.72,78,5.07,5.07,0,0,1,1.8,76.34,5.42,5.42,0,0,1,.16,72.41V62.93a.76.76,0,0,1,.25-.57A.76.76,0,0,1,1,62.11a.74.74,0,0,1,.57.25.72.72,0,0,1,.25.57Zm20.51,3.11a3.86,3.86,0,0,0-3.92-3.19,3.93,3.93,0,0,0-2.78,1.14,3.58,3.58,0,0,0-1.06,2.05Zm-.82,3.59a.59.59,0,0,1,.5.25.73.73,0,0,1,.24.57,1.16,1.16,0,0,1-.16.57A5.5,5.5,0,0,1,18.39,78a5.31,5.31,0,0,1-3.92-1.63,5.38,5.38,0,0,1-1.64-3.93,5.45,5.45,0,0,1,5.56-5.47A5.45,5.45,0,0,1,24,72.49a.71.71,0,0,1-.25.49.72.72,0,0,1-.57.25H14.55a3.31,3.31,0,0,0,1.06,2,3.89,3.89,0,0,0,2.78,1.15,3.85,3.85,0,0,0,2.61-1A.68.68,0,0,1,21.49,75.27Zm-17.73-44a4,4,0,0,0-2.86.9A4.13,4.13,0,0,0,0,35V53.21a4.09,4.09,0,0,0,.82,2.94A4.5,4.5,0,0,0,3.76,57H6.37a9.59,9.59,0,0,0,3.52-.66,9.44,9.44,0,0,0,2.78-1.63,7.42,7.42,0,0,0,1.88-2.62,8.29,8.29,0,0,0,.65-3.27,6.86,6.86,0,0,0-.57-2.86,4.77,4.77,0,0,0-1.55-2.2c-.25-.25-.49-.41-.74-.66l-1.14-.73a9.11,9.11,0,0,0,1.71-2.21,5.16,5.16,0,0,0,.49-2.29,5.48,5.48,0,0,0-.65-2.7,7.75,7.75,0,0,0-1.63-2.28,7.33,7.33,0,0,0-2.21-1.23,10.45,10.45,0,0,0-3.11-.41Zm.41,9.64V35.23H5.64a7.68,7.68,0,0,1,1.47.08,2.12,2.12,0,0,1,1,.49,2.5,2.5,0,0,1,.9,1,3.47,3.47,0,0,1,.25,1.31,2.33,2.33,0,0,1-.9,2,4.44,4.44,0,0,1-2.7.73Zm0,12.1V44.87H6.05a5.86,5.86,0,0,1,3.68,1,3.66,3.66,0,0,1,1.3,3,5.63,5.63,0,0,1-.41,2.05A3.36,3.36,0,0,1,9.4,52.31a3.7,3.7,0,0,1-1.31.49,6.85,6.85,0,0,1-2,.16ZM27.3,57V31.22H23.13V57ZM48.47,35.31V31.22H34.08v4h5.15V57H43.4V35.23ZM34.24,26.24,27.3,2.7A4.4,4.4,0,0,0,26.15.65,2.72,2.72,0,0,0,24.36,0c-1.48,0-2.46.9-2.95,2.7l-7,23.54h4.25l1.31-4.83h8.67l1.47,4.83Zm-6.7-8.83H21.09l3.1-11.28ZM48,4.58V.49H33.59v4h5.15V26.24h4.17V4.5Z"/></g></g></g></svg>