<svg xmlns="http://www.w3.org/2000/svg" viewBox="0 0 143.05 30.62"><defs><style>.a33d8a72-238d-4281-aa65-85e273ee5f1f{fill:#1f252c;}.f54fec6c-e25b-48dd-816f-425e6cc3163a{fill:#fff;}.e0df37f8-ad26-479e-97aa-d34ddf8f3dd1{fill:#c14f49;}.a693d6bd-6483-4a65-8243-85b918323e2f{fill:#d3d3d3;}</style></defs><title>59</title><g id="f41b2443-5a1e-48c0-825f-e2d0a01b5d69" data-name="Слой 2"><g id="f5efed36-d9bf-4e61-babe-ad8d417cd99e" data-name="Слой 1"><polygon class="a33d8a72-238d-4281-aa65-85e273ee5f1f" points="121.52 0 98.96 0 98.75 0 96.68 0 92.86 0 90.79 0 90.58 0 58 0 51.05 0 43.18 15.81 58 15.81 90.58 15.81 90.79 15.81 92.86 15.81 96.68 15.81 98.75 15.81 98.96 15.81 121.52 15.81 135.19 15.81 143.05 0 121.52 0"/><path class="f54fec6c-e25b-48dd-816f-425e6cc3163a" d="M54.09,11.29V4.44H59.3V5.81H55.59V7.26h3.27V8.63H55.59v2.66Z"/><path class="f54fec6c-e25b-48dd-816f-425e6cc3163a" d="M60.57,11.29V4.44h1.51v6.85Z"/><path class="f54fec6c-e25b-48dd-816f-425e6cc3163a" d="M63.79,11.29V4.44H67a2.48,2.48,0,0,1,1.8.6,1.64,1.64,0,0,1,.47,1.19,1.59,1.59,0,0,1-.91,1.47,2.2,2.2,0,0,1,1,.65,1.58,1.58,0,0,1,.33,1.06,1.6,1.6,0,0,1-.69,1.4,3.21,3.21,0,0,1-1.88.48Zm1.47-4.08h1.39c.73,0,1.09-.25,1.09-.75a.6.6,0,0,0-.26-.52,1.25,1.25,0,0,0-.73-.18H65.26Zm0,2.76h1.79c.71,0,1.07-.26,1.07-.77s-.37-.74-1.12-.74H65.26Z"/><path class="f54fec6c-e25b-48dd-816f-425e6cc3163a" d="M74.07,11.4a3.39,3.39,0,0,1-2.51-1,3.45,3.45,0,0,1-1-2.52,3.47,3.47,0,0,1,3.57-3.54,3.4,3.4,0,0,1,1.5.29,4.36,4.36,0,0,1,1.15.82l-.9,1a3.23,3.23,0,0,0-.83-.58,2.17,2.17,0,0,0-.93-.18,1.86,1.86,0,0,0-1.43.62,2.2,2.2,0,0,0-.56,1.53,2.24,2.24,0,0,0,.56,1.53,1.83,1.83,0,0,0,1.43.62,2.18,2.18,0,0,0,.95-.19,3.49,3.49,0,0,0,.85-.61l1,1a3.67,3.67,0,0,1-1.21.88A4,4,0,0,1,74.07,11.4Z"/><path class="f54fec6c-e25b-48dd-816f-425e6cc3163a" d="M84,10.37a3.82,3.82,0,0,1-5.21,0,3.43,3.43,0,0,1-1-2.52,3.43,3.43,0,0,1,1-2.51,3.57,3.57,0,0,1,2.61-1,3.53,3.53,0,0,1,2.6,1,3.39,3.39,0,0,1,1,2.51A3.41,3.41,0,0,1,84,10.37Zm-4.08-1a1.94,1.94,0,0,0,1.49.62,1.92,1.92,0,0,0,1.48-.62,2.16,2.16,0,0,0,.57-1.53,2.16,2.16,0,0,0-.58-1.53,2,2,0,0,0-1.49-.62,2,2,0,0,0-1.48.62,2.17,2.17,0,0,0-.58,1.53A2.17,2.17,0,0,0,79.94,9.39Z"/><path class="f54fec6c-e25b-48dd-816f-425e6cc3163a" d="M86.4,11.29V4.44H88l1.8,2.89,1.8-2.89h1.62v6.85h-1.5V6.81L89.83,9.74h0l-1.91-2.9v4.45Z"/><path class="f54fec6c-e25b-48dd-816f-425e6cc3163a" d="M101.13,11.4a3.55,3.55,0,0,1-2.6-1,3.45,3.45,0,0,1-1-2.55,3.52,3.52,0,0,1,3.59-3.54,4.44,4.44,0,0,1,1.51.23,4,4,0,0,1,1.18.71l-1,1.14a3.58,3.58,0,0,0-.83-.53,2.54,2.54,0,0,0-1-.16,1.8,1.8,0,0,0-1.39.63,2.16,2.16,0,0,0-.58,1.52,2.18,2.18,0,0,0,.59,1.56,1.94,1.94,0,0,0,1.49.61,2.36,2.36,0,0,0,1.42-.41v-1h-1.52V7.34h3v3A4.43,4.43,0,0,1,101.13,11.4Z"/><path class="f54fec6c-e25b-48dd-816f-425e6cc3163a" d="M105.5,11.29V4.44h3.14a2.7,2.7,0,0,1,2,.69,2.15,2.15,0,0,1,.59,1.59,2.08,2.08,0,0,1-1.47,2.12l1.68,2.45h-1.77l-1.48-2.2H107v2.2ZM107,7.76h1.53a1.24,1.24,0,0,0,.85-.27.92.92,0,0,0,.3-.72.86.86,0,0,0-.31-.72,1.35,1.35,0,0,0-.87-.25H107Z"/><path class="f54fec6c-e25b-48dd-816f-425e6cc3163a" d="M118.52,10.37a3.82,3.82,0,0,1-5.21,0,3.43,3.43,0,0,1-1-2.52,3.39,3.39,0,0,1,1-2.51,3.81,3.81,0,0,1,5.21,0,3.43,3.43,0,0,1,1,2.51A3.41,3.41,0,0,1,118.52,10.37Zm-4.08-1a1.94,1.94,0,0,0,1.49.62,1.88,1.88,0,0,0,1.47-.62A2.13,2.13,0,0,0,118,7.86a2.13,2.13,0,0,0-.59-1.53,2.08,2.08,0,0,0-3,0,2.13,2.13,0,0,0-.58,1.53A2.17,2.17,0,0,0,114.44,9.39Z"/><path class="f54fec6c-e25b-48dd-816f-425e6cc3163a" d="M123.76,11.39a3,3,0,0,1-2.19-.77,3.08,3.08,0,0,1-.78-2.27V4.44h1.51V8.31a1.88,1.88,0,0,0,.38,1.26,1.62,1.62,0,0,0,2.19,0,1.76,1.76,0,0,0,.38-1.22V4.44h1.51V8.3a3.1,3.1,0,0,1-.8,2.31A3,3,0,0,1,123.76,11.39Z"/><path class="f54fec6c-e25b-48dd-816f-425e6cc3163a" d="M128.3,11.29V4.44h2.8a2.67,2.67,0,0,1,1.91.65,2.27,2.27,0,0,1,.71,1.73,2.15,2.15,0,0,1-.78,1.78,3.1,3.1,0,0,1-2,.63H129.8v2.06Zm1.5-3.4H131a1.25,1.25,0,0,0,.87-.29,1,1,0,0,0,.32-.77.93.93,0,0,0-.32-.76,1.38,1.38,0,0,0-.9-.27H129.8Z"/><polygon class="a33d8a72-238d-4281-aa65-85e273ee5f1f" points="34.58 4.14 37.78 0 21.72 0 18.51 4.14 34.58 4.14"/><polygon class="e0df37f8-ad26-479e-97aa-d34ddf8f3dd1" points="5.04 5.95 5.04 4.14 15.3 4.14 18.51 0 0.16 0 0.16 15.81 5.04 15.81 5.04 9.37 11.53 9.37 14.15 5.95 5.04 5.95"/><path class="a33d8a72-238d-4281-aa65-85e273ee5f1f" d="M27.94,5.92,25.09,9.37h8.08v2.39H27.33c-2.4,0-4.76-1.37-4.76-3.66a3.71,3.71,0,0,1,.65-2.18H18A6.3,6.3,0,0,0,17.88,9c1.65,6.73,8.82,6.75,8.82,6.75H38V5.92Z"/><path class="a693d6bd-6483-4a65-8243-85b918323e2f" d="M0,29.55V24.92H3.29v.32H.34v1.81H3v.32H.34v1.86h3v.32Z"/><path class="a693d6bd-6483-4a65-8243-85b918323e2f" d="M7,29.55V26.18h.33v.62a1.32,1.32,0,0,1,1.22-.71,1.27,1.27,0,0,1,1,.39,1.39,1.39,0,0,1,.36,1v2.07H9.57v-2a1.21,1.21,0,0,0-.29-.84,1,1,0,0,0-.78-.31,1.16,1.16,0,0,0-.84.34,1.21,1.21,0,0,0-.33.87v1.95Z"/><path class="a693d6bd-6483-4a65-8243-85b918323e2f" d="M13.48,27.7a1.59,1.59,0,0,1,.14-.66,1.76,1.76,0,0,1,.37-.51,1.62,1.62,0,0,1,.52-.32,1.52,1.52,0,0,1,.59-.12,1.7,1.7,0,0,1,.83.21,1.9,1.9,0,0,1,.58.55v-.67h.33V29a1.59,1.59,0,0,1-.43,1.15,1.66,1.66,0,0,1-1.23.45,2.49,2.49,0,0,1-1.54-.52l.19-.26a2.17,2.17,0,0,0,1.36.48,1.37,1.37,0,0,0,1-.34,1.28,1.28,0,0,0,.36-1v-.48a1.65,1.65,0,0,1-1.41.78,1.52,1.52,0,0,1-.59-.12,1.62,1.62,0,0,1-.52-.32,1.59,1.59,0,0,1-.37-.5A1.66,1.66,0,0,1,13.48,27.7Zm.35,0a1.29,1.29,0,0,0,.18.67,1.22,1.22,0,0,0,.48.45,1.34,1.34,0,0,0,.65.17,1.54,1.54,0,0,0,.51-.1,1.43,1.43,0,0,0,.45-.26,1.25,1.25,0,0,0,.43-.94,1.2,1.2,0,0,0-.2-.67,1.35,1.35,0,0,0-.52-.46,1.57,1.57,0,0,0-.67-.16,1.39,1.39,0,0,0-.65.16A1.15,1.15,0,0,0,14,27,1.31,1.31,0,0,0,13.83,27.7Z"/><path class="a693d6bd-6483-4a65-8243-85b918323e2f" d="M20.72,25.29v-.44h.4v.44Zm0,4.26V26.18h.32v3.37Z"/><path class="a693d6bd-6483-4a65-8243-85b918323e2f" d="M25,29.55V26.18h.32v.62a1.33,1.33,0,0,1,1.22-.71,1.28,1.28,0,0,1,1,.39,1.39,1.39,0,0,1,.36,1v2.07h-.33v-2a1.2,1.2,0,0,0-.28-.84,1,1,0,0,0-.79-.31,1.14,1.14,0,0,0-.83.34,1.18,1.18,0,0,0-.34.87v1.95Z"/><path class="a693d6bd-6483-4a65-8243-85b918323e2f" d="M31.47,27.85a1.91,1.91,0,0,1,.12-.68,1.73,1.73,0,0,1,.33-.56,1.62,1.62,0,0,1,.51-.38,1.53,1.53,0,0,1,.64-.14,1.4,1.4,0,0,1,.81.24,1.53,1.53,0,0,1,.55.63,2.19,2.19,0,0,1,.18.9V28h-2.8a1.43,1.43,0,0,0,.42,1,1.29,1.29,0,0,0,.9.36,1.51,1.51,0,0,0,1.16-.53l.22.2a1.93,1.93,0,0,1-.61.47,1.73,1.73,0,0,1-.78.17,1.69,1.69,0,0,1-.63-.13,1.77,1.77,0,0,1-.53-.36,1.69,1.69,0,0,1-.36-.56A1.9,1.9,0,0,1,31.47,27.85Zm.34-.15h2.45a1.58,1.58,0,0,0-.1-.49,1.44,1.44,0,0,0-.23-.42,1,1,0,0,0-.37-.29,1.19,1.19,0,0,0-.51-.11,1.14,1.14,0,0,0-.85.38A1.51,1.51,0,0,0,31.81,27.7Z"/><path class="a693d6bd-6483-4a65-8243-85b918323e2f" d="M38,27.85a1.91,1.91,0,0,1,.13-.68,1.73,1.73,0,0,1,.33-.56,1.62,1.62,0,0,1,.51-.38,1.52,1.52,0,0,1,.63-.14,1.44,1.44,0,0,1,.82.24,1.53,1.53,0,0,1,.55.63,2.19,2.19,0,0,1,.18.9V28h-2.8a1.39,1.39,0,0,0,.42,1,1.29,1.29,0,0,0,.9.36,1.52,1.52,0,0,0,1.16-.53L41,29a2,2,0,0,1-.61.47,1.73,1.73,0,0,1-.78.17A1.69,1.69,0,0,1,39,29.5a1.66,1.66,0,0,1-.53-.36,1.69,1.69,0,0,1-.36-.56A1.9,1.9,0,0,1,38,27.85Zm.35-.15h2.45a1.58,1.58,0,0,0-.1-.49,1.72,1.72,0,0,0-.23-.42,1.06,1.06,0,0,0-.37-.29,1.19,1.19,0,0,0-.51-.11,1.14,1.14,0,0,0-.85.38A1.51,1.51,0,0,0,38.32,27.7Z"/><path class="a693d6bd-6483-4a65-8243-85b918323e2f" d="M44.71,29.55V26.18H45v.95a1.85,1.85,0,0,1,.6-.75,1.46,1.46,0,0,1,.83-.26h.06v.36h0a1.47,1.47,0,0,0-.56.11,1.36,1.36,0,0,0-.47.32,1.38,1.38,0,0,0-.31.53,2.09,2.09,0,0,0-.12.72v1.39Z"/><path class="a693d6bd-6483-4a65-8243-85b918323e2f" d="M50,25.29v-.44h.4v.44Zm0,4.26V26.18h.32v3.37Z"/><path class="a693d6bd-6483-4a65-8243-85b918323e2f" d="M54.29,29.55V26.18h.33v.62a1.31,1.31,0,0,1,1.21-.71,1.28,1.28,0,0,1,1,.39,1.39,1.39,0,0,1,.36,1v2.07h-.32v-2a1.21,1.21,0,0,0-.29-.84,1,1,0,0,0-.78-.31,1.15,1.15,0,0,0-.84.34,1.21,1.21,0,0,0-.33.87v1.95Z"/><path class="a693d6bd-6483-4a65-8243-85b918323e2f" d="M60.77,27.7a1.57,1.57,0,0,1,.51-1.17,1.62,1.62,0,0,1,.52-.32,1.52,1.52,0,0,1,.59-.12,1.7,1.7,0,0,1,.83.21,1.9,1.9,0,0,1,.58.55v-.67h.32V29a1.58,1.58,0,0,1-.42,1.15,1.66,1.66,0,0,1-1.23.45,2.54,2.54,0,0,1-1.55-.52l.2-.26a2.15,2.15,0,0,0,1.36.48,1.37,1.37,0,0,0,1-.34,1.28,1.28,0,0,0,.36-1v-.48a1.65,1.65,0,0,1-1.41.78,1.52,1.52,0,0,1-.59-.12,1.62,1.62,0,0,1-.52-.32,1.45,1.45,0,0,1-.37-.5A1.66,1.66,0,0,1,60.77,27.7Zm.35,0a1.29,1.29,0,0,0,.18.67,1.22,1.22,0,0,0,.48.45,1.34,1.34,0,0,0,.65.17,1.54,1.54,0,0,0,.51-.1,1.43,1.43,0,0,0,.45-.26,1.25,1.25,0,0,0,.43-.94,1.2,1.2,0,0,0-.2-.67,1.35,1.35,0,0,0-.52-.46,1.57,1.57,0,0,0-.67-.16,1.39,1.39,0,0,0-.65.16,1.15,1.15,0,0,0-.48.45A1.31,1.31,0,0,0,61.12,27.7Z"/><path class="a693d6bd-6483-4a65-8243-85b918323e2f" d="M72.63,29.55V26.18H73v.6a2,2,0,0,1,.19-.26.93.93,0,0,1,.23-.21,1,1,0,0,1,.31-.16,1.25,1.25,0,0,1,.4-.06,1.18,1.18,0,0,1,.7.21,1.28,1.28,0,0,1,.43.52,1.35,1.35,0,0,1,1.22-.73,1.22,1.22,0,0,1,.95.39,1.47,1.47,0,0,1,.35,1v2.05H77.4v-2a1.26,1.26,0,0,0-.26-.84.91.91,0,0,0-.74-.31,1,1,0,0,0-.75.32,1.2,1.2,0,0,0-.31.87v2H75v-2a1.18,1.18,0,0,0-.27-.82.9.9,0,0,0-.72-.31,1,1,0,0,0-.76.35,1.25,1.25,0,0,0-.32.86v1.95Z"/><path class="a693d6bd-6483-4a65-8243-85b918323e2f" d="M81.28,28.56a.94.94,0,0,1,.41-.81,1.74,1.74,0,0,1,1.07-.29,4.56,4.56,0,0,1,1.11.14v-.14a1,1,0,0,0-.29-.77,1.16,1.16,0,0,0-.82-.27,2.18,2.18,0,0,0-1.05.28l-.12-.29a2.92,2.92,0,0,1,1.19-.29,1.44,1.44,0,0,1,1.07.37,1.29,1.29,0,0,1,.34,1v2.11h-.32V29a1.67,1.67,0,0,1-.52.46,1.53,1.53,0,0,1-.76.18,1.92,1.92,0,0,1-.48-.07,1.42,1.42,0,0,1-.41-.2.89.89,0,0,1-.3-.34A.9.9,0,0,1,81.28,28.56Zm.35,0a.65.65,0,0,0,.28.56,1.14,1.14,0,0,0,.7.21,1.45,1.45,0,0,0,.9-.29.91.91,0,0,0,.37-.75V27.9a4.58,4.58,0,0,0-1.14-.15,1.38,1.38,0,0,0-.82.21A.69.69,0,0,0,81.63,28.55Z"/><path class="a693d6bd-6483-4a65-8243-85b918323e2f" d="M88,29.55V26.18h.32v.62a1.33,1.33,0,0,1,1.22-.71,1.28,1.28,0,0,1,1,.39,1.39,1.39,0,0,1,.36,1v2.07h-.32v-2a1.21,1.21,0,0,0-.29-.84,1,1,0,0,0-.79-.31,1.14,1.14,0,0,0-.83.34,1.22,1.22,0,0,0-.34.87v1.95Z"/><path class="a693d6bd-6483-4a65-8243-85b918323e2f" d="M94.42,28.56a.93.93,0,0,1,.4-.81,1.76,1.76,0,0,1,1.07-.29A4.58,4.58,0,0,1,97,27.6v-.14a1,1,0,0,0-.29-.77,1.16,1.16,0,0,0-.82-.27,2.18,2.18,0,0,0-1.05.28l-.12-.29a2.88,2.88,0,0,1,1.19-.29,1.45,1.45,0,0,1,1.07.37,1.29,1.29,0,0,1,.34,1v2.11H97V29a1.79,1.79,0,0,1-.52.46,1.57,1.57,0,0,1-.77.18,1.84,1.84,0,0,1-.47-.07,1.42,1.42,0,0,1-.41-.2.93.93,0,0,1-.42-.8Zm.34,0a.66.66,0,0,0,.29.56,1.13,1.13,0,0,0,.69.21,1.45,1.45,0,0,0,.9-.29.91.91,0,0,0,.38-.75V27.9a4.58,4.58,0,0,0-1.14-.15,1.36,1.36,0,0,0-.82.21A.7.7,0,0,0,94.76,28.55Z"/><path class="a693d6bd-6483-4a65-8243-85b918323e2f" d="M100.92,27.7a1.59,1.59,0,0,1,.14-.66,1.46,1.46,0,0,1,.37-.51,1.69,1.69,0,0,1,.51-.32,1.61,1.61,0,0,1,.6-.12,1.7,1.7,0,0,1,.83.21,2,2,0,0,1,.58.55v-.67h.32V29a1.55,1.55,0,0,1-.43,1.15,1.64,1.64,0,0,1-1.22.45,2.52,2.52,0,0,1-1.55-.52l.19-.26a2.2,2.2,0,0,0,1.37.48,1.37,1.37,0,0,0,1-.34,1.28,1.28,0,0,0,.36-1v-.48a1.65,1.65,0,0,1-1.41.78,1.61,1.61,0,0,1-.6-.12,1.69,1.69,0,0,1-.51-.32,1.34,1.34,0,0,1-.37-.5A1.66,1.66,0,0,1,100.92,27.7Zm.35,0a1.29,1.29,0,0,0,.18.67,1.22,1.22,0,0,0,.48.45,1.3,1.3,0,0,0,.64.17,1.55,1.55,0,0,0,.52-.1,1.39,1.39,0,0,0,.44-.26,1.19,1.19,0,0,0,.32-.41,1.18,1.18,0,0,0,.12-.53,1.2,1.2,0,0,0-.2-.67,1.35,1.35,0,0,0-.52-.46,1.62,1.62,0,0,0-.68-.16,1.45,1.45,0,0,0-.65.16,1.19,1.19,0,0,0-.47.45A1.31,1.31,0,0,0,101.27,27.7Z"/><path class="a693d6bd-6483-4a65-8243-85b918323e2f" d="M107.92,27.85a1.91,1.91,0,0,1,.12-.68,1.73,1.73,0,0,1,.33-.56,1.62,1.62,0,0,1,.51-.38,1.52,1.52,0,0,1,.63-.14,1.44,1.44,0,0,1,.82.24,1.53,1.53,0,0,1,.55.63,2.19,2.19,0,0,1,.18.9V28h-2.8a1.43,1.43,0,0,0,.42,1,1.29,1.29,0,0,0,.9.36,1.51,1.51,0,0,0,1.16-.53l.22.2a2,2,0,0,1-.61.47,1.73,1.73,0,0,1-.78.17,1.69,1.69,0,0,1-.63-.13,1.77,1.77,0,0,1-.53-.36,1.69,1.69,0,0,1-.36-.56A1.9,1.9,0,0,1,107.92,27.85Zm.34-.15h2.45a1.58,1.58,0,0,0-.1-.49,1.44,1.44,0,0,0-.23-.42,1,1,0,0,0-.37-.29,1.19,1.19,0,0,0-.51-.11,1.14,1.14,0,0,0-.85.38A1.51,1.51,0,0,0,108.26,27.7Z"/><path class="a693d6bd-6483-4a65-8243-85b918323e2f" d="M114.65,29.55V26.18H115v.6a1.34,1.34,0,0,1,.19-.26.88.88,0,0,1,.22-.21,1.07,1.07,0,0,1,.32-.16,1.23,1.23,0,0,1,.39-.06,1.14,1.14,0,0,1,.7.21,1.31,1.31,0,0,1,.44.52,1.35,1.35,0,0,1,1.22-.73,1.19,1.19,0,0,1,.94.39,1.42,1.42,0,0,1,.35,1v2.05h-.32v-2a1.21,1.21,0,0,0-.27-.84.89.89,0,0,0-.73-.31,1,1,0,0,0-.75.32,1.2,1.2,0,0,0-.31.87v2H117v-2a1.22,1.22,0,0,0-.26-.82.9.9,0,0,0-.72-.31,1,1,0,0,0-.77.35,1.25,1.25,0,0,0-.31.86v1.95Z"/><path class="a693d6bd-6483-4a65-8243-85b918323e2f" d="M123.36,27.85a1.91,1.91,0,0,1,.12-.68,1.73,1.73,0,0,1,.33-.56,1.62,1.62,0,0,1,.51-.38,1.53,1.53,0,0,1,.64-.14,1.4,1.4,0,0,1,.81.24,1.53,1.53,0,0,1,.55.63,2.2,2.2,0,0,1,.19.9c0,.06,0,.1,0,.13h-2.8a1.43,1.43,0,0,0,.42,1,1.29,1.29,0,0,0,.9.36,1.51,1.51,0,0,0,1.16-.53l.23.2a2.08,2.08,0,0,1-.62.47,1.73,1.73,0,0,1-.78.17,1.69,1.69,0,0,1-.63-.13,1.77,1.77,0,0,1-.53-.36,1.69,1.69,0,0,1-.36-.56A1.9,1.9,0,0,1,123.36,27.85Zm.34-.15h2.45a1.58,1.58,0,0,0-.1-.49,1.44,1.44,0,0,0-.23-.42,1,1,0,0,0-.37-.29,1.19,1.19,0,0,0-.51-.11,1.14,1.14,0,0,0-.85.38A1.51,1.51,0,0,0,123.7,27.7Z"/><path class="a693d6bd-6483-4a65-8243-85b918323e2f" d="M130.09,29.55V26.18h.33v.62a1.32,1.32,0,0,1,1.22-.71,1.27,1.27,0,0,1,1,.39,1.39,1.39,0,0,1,.36,1v2.07h-.32v-2a1.2,1.2,0,0,0-.28-.84,1.05,1.05,0,0,0-.79-.31,1.18,1.18,0,0,0-.84.34,1.21,1.21,0,0,0-.33.87v1.95Z"/><path class="a693d6bd-6483-4a65-8243-85b918323e2f" d="M136.48,26.47v-.29H137V25.1h.33v1.08h1.18v.29H137.3v2.18a.58.58,0,0,0,.67.65,1.22,1.22,0,0,0,.5-.12v.31a1.26,1.26,0,0,1-.55.12,1,1,0,0,1-.68-.24.85.85,0,0,1-.27-.69V26.47Z"/></g></g></svg>