<svg xmlns="http://www.w3.org/2000/svg" viewBox="0 0 130.32 20.5"><defs><style>.a3940df4-5808-484d-a9e8-ffcb615b69d6{fill:#fff;}.bb1add5e-1112-4462-9403-c58a7c8bfda9{fill:#f3c700;}.a8f3c586-1d7a-4016-ba5d-37b314ad8691{fill:#db6216;}.a8af81a3-2e60-4b04-8ba5-43f7b137841c{fill:#eaa600;}</style></defs><title>Ресурс 8</title><g id="abf5c3e6-57af-45c6-8a1f-6917b0a16a4f" data-name="Слой 2"><g id="a0e09abf-5524-48c5-b5d2-321628cb11ed" data-name="Слой 1"><path class="a3940df4-5808-484d-a9e8-ffcb615b69d6" d="M67.33,10.23c.14.09.22.15.3.19,2.24,1.09,2.94,3,2.66,5.35-.34,2.75-1.81,4.16-4.57,4.56a14.82,14.82,0,0,1-2.1.14c-3.69,0-7.38,0-11.07,0-.44,0-.57-.1-.57-.56q0-9.68,0-19.34c0-.48.17-.55.59-.55,3.57,0,7.15,0,10.72,0A11.92,11.92,0,0,1,67,.53a4.87,4.87,0,0,1,3.32,4.4A5.19,5.19,0,0,1,67.33,10.23ZM60.09,12.1v0H56.72c-.32,0-.42.09-.41.42,0,1.29,0,2.58,0,3.87,0,.4.1.52.5.51,1.81,0,3.61,0,5.42,0a11.22,11.22,0,0,0,1.53-.09,2,2,0,0,0,1.6-.95,2.38,2.38,0,0,0-2-3.71C62.29,12.05,61.19,12.1,60.09,12.1Zm0-8.34c-1.08,0-2.16,0-3.25,0-.44,0-.53.13-.52.55,0,1.17,0,2.35,0,3.53,0,.48.08.65.61.64,1.86,0,3.73,0,5.59,0a6.19,6.19,0,0,0,1.36-.11A1.84,1.84,0,0,0,65.47,7,2.58,2.58,0,0,0,65,4.42a2.5,2.5,0,0,0-1.89-.66Z"/><path class="a3940df4-5808-484d-a9e8-ffcb615b69d6" d="M30.64,10.23c0-3.19,0-6.39,0-9.58,0-.45.08-.63.58-.62,5.23,0,10.46,0,15.69,0,.45,0,.59.11.58.57,0,.89,0,1.78,0,2.68,0,.32-.09.44-.41.41s-.5,0-.75,0c-3.4,0-6.8,0-10.21,0-.46,0-.56.15-.55.58,0,1.16,0,2.32,0,3.48,0,.5.15.57.6.57,3.57,0,7.15,0,10.73,0,.46,0,.62.1.59.59,0,.85,0,1.71,0,2.57,0,.42-.09.54-.53.54-3.57,0-7.15,0-10.73,0-.5,0-.68.11-.66.66,0,1.21,0,2.43,0,3.65,0,.46.14.56.58.56,3.57,0,7.15,0,10.73,0,.51,0,.64.12.62.62,0,.86,0,1.71,0,2.57,0,.3,0,.44-.4.44q-8,0-16,0c-.42,0-.4-.2-.4-.49Z"/><path class="a3940df4-5808-484d-a9e8-ffcb615b69d6" d="M74.21,10.24c0-3.21,0-6.43,0-9.64,0-.45.12-.58.57-.57,3.27,0,6.54,0,9.81,0A16.89,16.89,0,0,1,88,.38a5.76,5.76,0,0,1,4.52,5.1,9.2,9.2,0,0,1-.16,3.39c-.65,2.58-2.71,4.15-5.64,4.39-2.47.19-4.94.05-7.41.09-.77,0-.77,0-.77.74,0,2,0,3.92,0,5.88,0,.38-.08.52-.49.51-1.11,0-2.21,0-3.31,0-.45,0-.53-.13-.53-.54C74.21,16.71,74.2,13.47,74.21,10.24Zm7.85-6.51c-1.14,0-2.09,0-3,0-.38,0-.52.08-.52.49,0,1.68,0,3.35,0,5,0,.42.15.5.53.49,1.63,0,3.26,0,4.9,0a6.85,6.85,0,0,0,1.69-.19,2.67,2.67,0,0,0,2.16-2.86,2.49,2.49,0,0,0-2.27-2.78A20.75,20.75,0,0,0,82.06,3.73Z"/><path class="a3940df4-5808-484d-a9e8-ffcb615b69d6" d="M127.62,10.26a4.65,4.65,0,0,1,2.6,3.56c.35,2.59-.19,4.73-2.61,5.94a7.2,7.2,0,0,1-3.2.71c-3.4,0-6.81,0-10.22,0-.42,0-.49-.15-.48-.52,0-.82,0-1.64,0-2.46,0-.42.09-.54.53-.54,2.6,0,5.21,0,7.81,0a6.52,6.52,0,0,0,1.7-.19,2.16,2.16,0,0,0,1.72-2.25,2.19,2.19,0,0,0-1.68-2.34,6,6,0,0,0-1.74-.2h-5.71c-.37,0-.49-.09-.48-.47,0-.85,0-1.71,0-2.57,0-.39.1-.51.5-.5,1.85,0,3.69,0,5.54,0a8.41,8.41,0,0,0,1.42-.11,2.11,2.11,0,0,0,2-2.27,2.19,2.19,0,0,0-2.06-2.42,10.42,10.42,0,0,0-1.48-.11h-7.59c-.35,0-.5-.06-.49-.46,0-.87,0-1.75,0-2.63,0-.36.12-.44.46-.44,3.29,0,6.58,0,9.87,0a9.18,9.18,0,0,1,3,.48,4.55,4.55,0,0,1,3.23,4.25,5.54,5.54,0,0,1-2.21,5l-.39.33S127.67,10.18,127.62,10.26Z"/><path class="a3940df4-5808-484d-a9e8-ffcb615b69d6" d="M110.22,20.47c-.65,0-1.29,0-1.94,0a.55.55,0,0,1-.61-.43c-.5-1.33-1-2.65-1.52-4-.12-.3-.24-.44-.6-.44-2.67,0-5.33,0-8,0A.54.54,0,0,0,97,16c-.48,1.34-1,2.67-1.48,4a.55.55,0,0,1-.61.44c-1.19,0-2.39,0-3.59,0-.47,0-.55-.08-.36-.52q3.47-8.11,6.89-16.24c.47-1.1,1-2.19,1.4-3.3A.51.51,0,0,1,99.78,0c1.23,0,2.47,0,3.71,0a.56.56,0,0,1,.64.4q4.16,9.8,8.35,19.57c.16.39.1.49-.32.47C111.52,20.45,110.87,20.47,110.22,20.47Zm-8.74-16.3-3,7.8h5.67c.32,0,.34-.11.23-.37-.26-.63-.5-1.27-.75-1.9Z"/><path class="bb1add5e-1112-4462-9403-c58a7c8bfda9" d="M11.54,0c3.61,0,7.23,0,10.84,0,.55,0,.71.14.7.69,0,1.32,0,2.63,0,3.94,0,.43-.1.61-.57.61H.52C.13,5.24,0,5.13,0,4.73,0,3.32,0,1.91,0,.51,0,.09.13,0,.52,0Z"/><path class="a8f3c586-1d7a-4016-ba5d-37b314ad8691" d="M11.55,15.33c3.62,0,7.23,0,10.85,0,.5,0,.65.13.64.64,0,1.35,0,2.7,0,4.05,0,.36-.11.5-.49.49q-11.06,0-22.09,0C.11,20.5,0,20.39,0,20c0-1.41,0-2.81,0-4.22,0-.43.16-.5.54-.49Z"/><path class="a8af81a3-2e60-4b04-8ba5-43f7b137841c" d="M11.52,12.81c-3.65,0-7.3,0-11,0-.45,0-.57-.12-.56-.57,0-1.33,0-2.66,0-4,0-.37,0-.53.48-.53h22c.41,0,.56.1.55.54,0,1.35,0,2.7,0,4.05,0,.42-.14.5-.52.5C18.86,12.8,15.19,12.81,11.52,12.81Z"/></g></g></svg>