<svg xmlns="http://www.w3.org/2000/svg" viewBox="0 0 141.06 61.47"><defs><style>.ba8695f0-6445-4102-8695-fc66fbdd887a{fill:#e4b143;}</style></defs><title>60</title><g id="e20565ba-9688-4800-a534-ca8a3e7fd505" data-name="Слой 2"><g id="bf46622b-f210-4b6b-b52f-6d27c239ffd1" data-name="Слой 1"><path class="ba8695f0-6445-4102-8695-fc66fbdd887a" d="M44.52,40.39l-.88-1.68.68-10.57-3.74-2.81L37,18.85l5.72-8.14h0l-8.46,1.55L33,4.6h0L27.07,9.39,22.25,0h0l-4.8,9.39L11.58,4.54h0l-1.29,7.72L1.84,10.71h0l5.72,8.14L3.94,25.33.2,28.14.88,38.71,0,40.39l5.5,7.49L5.2,51.5l8.72,7.22,8.34,2.75,8.34-2.75,8.72-7.22L39,47.88ZM42.74,28.88l-.47,7.28L40.1,32l-8.47-1.93-.89-5.69,8.67,2Zm-4.55-4.33-7.75-1.74-7.42,2V19.44l7.26-1.94,4.78,1.07ZM5.25,12.9l6.29,1.16,1.1-6.6L18,11.78l4.3-8.41,4.29,8.41,5.31-4.32,1.1,6.6,6.29-1.16-3.17,4.34-6-1.29-7.84,2.1L14.4,16l-6,1.29Zm4.21,5.67,4.78-1.07,7.27,1.94v5.33l-7.42-2-8,1.79Zm11.3,15.65v2.59l-7.18-1.32,1.58-3ZM5.12,26.37l8.66-2-.88,5.69L4.42,32,2.25,36.16l-.47-7.28Zm.55,19.18L1.8,40.25l3.62-6.9L11.5,32l-1.21,4.46L6,42.24Zm7.07,10.21L6.79,50.82l.67-8,3.25-4.37,4.09,6.17-2.61,4.91Zm17.11,1.58-7.59,2.51-7.59-2.51-.58-7.5,2.33-4.35L19.91,44l2.35,1H23V34.61h0v-.16l6.3-2,1.58,3-5.31,1v7.93l2.47,1,2.33,4.35Zm1.93-1.58.55-6.23-2.61-4.91,4.09-6.17,3.25,4.37.67,8Zm6.73-13.52-4.28-5.79L33,32l6.08,1.36,3.62,6.9-3.87,5.3ZM21,49.19l-.46,1.21-2.35-.77.7-1.65h6.76l.71,1.65L24,50.4l-.45-1.21Z"/><polygon class="ba8695f0-6445-4102-8695-fc66fbdd887a" points="56.33 20.03 57.94 21.98 57.94 34.98 60.66 34.98 60.66 28.6 63.74 28.6 63.74 34.98 66.46 34.98 66.46 20.03 63.74 20.03 63.74 26.52 60.66 26.52 60.66 20.03 56.33 20.03"/><polygon class="ba8695f0-6445-4102-8695-fc66fbdd887a" points="75.35 20.03 73.43 27.7 71.39 20.03 68.62 20.03 72.1 30.24 72.1 34.98 74.83 34.98 74.83 30.17 78.12 20.03 75.35 20.03"/><path class="ba8695f0-6445-4102-8695-fc66fbdd887a" d="M79.24,20l1.63,2V35h2.72v-5.5h2.77c1.73,0,2.59-.78,2.59-2.34V22.37c0-1.56-.86-2.34-2.59-2.34Zm7,6.73a.72.72,0,0,1-.14.51.82.82,0,0,1-.52.13h-2V22.11h2a.75.75,0,0,1,.52.14.68.68,0,0,1,.14.5Z"/><polygon class="ba8695f0-6445-4102-8695-fc66fbdd887a" points="90.6 20.03 92.24 22.01 92.24 34.98 99.53 34.98 99.53 32.89 94.98 32.89 94.98 28.37 98.66 28.37 98.66 26.26 94.98 26.26 94.98 22.11 99.34 22.11 99.34 20.03 90.6 20.03"/><path class="ba8695f0-6445-4102-8695-fc66fbdd887a" d="M101,20l1.64,2V35h2.72V29.15h.9L108.53,35h2.94L109,29.08a2,2,0,0,0,1.73-2.28V22.37q0-2.34-2.58-2.34Zm7,6.47a.72.72,0,0,1-.14.51.84.84,0,0,1-.52.13h-2v-5h2a.77.77,0,0,1,.52.14.68.68,0,0,1,.14.5Z"/><rect class="ba8695f0-6445-4102-8695-fc66fbdd887a" x="114.49" y="20.03" width="2.72" height="14.95"/><path class="ba8695f0-6445-4102-8695-fc66fbdd887a" d="M126.46,20h-2.89Q121,20,121,22.37V32.63c0,1.56.86,2.35,2.58,2.35h2.89c1.72,0,2.59-.79,2.59-2.35V22.37C129.05,20.81,128.18,20,126.46,20Zm-.14,12.22a.72.72,0,0,1-.14.51.76.76,0,0,1-.52.13H124.4a.79.79,0,0,1-.54-.13.68.68,0,0,1-.14-.51v-9.5c0-.25,0-.42.14-.5a.78.78,0,0,1,.54-.14h1.26a.75.75,0,0,1,.52.14.68.68,0,0,1,.14.5Z"/><polygon class="ba8695f0-6445-4102-8695-fc66fbdd887a" points="131.16 20.03 132.79 22.01 132.79 34.98 135.3 34.98 135.3 25.07 138.5 34.98 141.06 34.98 141.06 20.03 138.57 20.03 138.57 29.79 135.42 20.03 131.16 20.03"/><path class="ba8695f0-6445-4102-8695-fc66fbdd887a" d="M66.86,40l1.63,2V52.56q0,2.34,2.58,2.34H74q2.58,0,2.58-2.34V40H73.82V52.18a.72.72,0,0,1-.14.51.83.83,0,0,1-.55.13H71.88a.74.74,0,0,1-.52-.13.67.67,0,0,1-.15-.51V40Z"/><polygon class="ba8695f0-6445-4102-8695-fc66fbdd887a" points="79.01 39.96 80.33 41.56 80.33 54.9 82.84 54.9 82.84 45 86.04 54.9 88.6 54.9 88.6 39.96 86.11 39.96 86.11 49.72 82.96 39.96 79.01 39.96"/><path class="ba8695f0-6445-4102-8695-fc66fbdd887a" d="M90.77,40l1.61,1.95v13h5.69q2.58,0,2.58-2.34V42.3q0-2.34-2.58-2.34ZM97.9,52.27a.69.69,0,0,1-.14.51.78.78,0,0,1-.52.13H95.11V42h2.13a.78.78,0,0,1,.52.13.69.69,0,0,1,.14.51Z"/><polygon class="ba8695f0-6445-4102-8695-fc66fbdd887a" points="56.33 39.96 57.92 41.89 57.92 54.9 60.67 54.9 60.67 48.58 64.34 48.58 64.34 46.59 60.67 46.59 60.67 42.04 65.17 42.04 65.17 39.96 56.33 39.96"/></g></g></svg>