<svg xmlns="http://www.w3.org/2000/svg" xmlns:xlink="http://www.w3.org/1999/xlink" viewBox="0 0 132.56 52.37"><defs><style>.ba35c8c9-dbba-49cf-95fa-6b972ba4c9ff{fill:#d6d6d6;}.aededa9f-3caa-4d58-8e3f-de759f5d91ee{fill:url(#ea7786ca-549d-4301-b808-b613c31ae0c5);}</style><linearGradient id="ea7786ca-549d-4301-b808-b613c31ae0c5" y1="26.13" x2="72.06" y2="26.13" gradientUnits="userSpaceOnUse"><stop offset="0" stop-color="#58885a"/><stop offset="1" stop-color="#3f5d46"/></linearGradient></defs><title>61</title><g id="a0f0738f-9b1e-43ca-9f3b-3ba111ff73a6" data-name="Слой 2"><g id="b2325a34-3c83-4862-bc05-f42b6a01270d" data-name="Слой 1"><path class="ba35c8c9-dbba-49cf-95fa-6b972ba4c9ff" d="M53.45,40.23v1.25H44.11V15.92h1.25V40.23Z"/><path class="ba35c8c9-dbba-49cf-95fa-6b972ba4c9ff" d="M63.39,17.17v9.68h7.14v1.24H63.39V40.23h8.69v1.25H62.14V15.92h9.94v1.25Z"/><path class="ba35c8c9-dbba-49cf-95fa-6b972ba4c9ff" d="M94.27,15.92,88.72,41.48H87.05L81.53,15.92h1.29L87.89,39.4,93,15.92Z"/><path class="ba35c8c9-dbba-49cf-95fa-6b972ba4c9ff" d="M105,17.17v9.68h7.15v1.24H105V40.23h8.7v1.25h-9.94V15.92h9.94v1.25Z"/><path class="ba35c8c9-dbba-49cf-95fa-6b972ba4c9ff" d="M132.46,40.23v1.25h-9.34V15.92h1.25V40.23Z"/><path class="ba35c8c9-dbba-49cf-95fa-6b972ba4c9ff" d="M75.44,45.37H76v3.11h4V45.37h.56v6.89H80V49H76v3.29h-.56Z"/><path class="ba35c8c9-dbba-49cf-95fa-6b972ba4c9ff" d="M89,48.85a3.31,3.31,0,1,1,3.3,3.52A3.26,3.26,0,0,1,89,48.85Zm6,0a2.74,2.74,0,1,0-5.45,0,2.74,2.74,0,1,0,5.45,0Z"/><path class="ba35c8c9-dbba-49cf-95fa-6b972ba4c9ff" d="M104,50.84a4,4,0,0,1-.11-1V45.37h.55v4.4a3.28,3.28,0,0,0,.13,1,1.93,1.93,0,0,0,3.51,0,3.4,3.4,0,0,0,.12-1V45.37h.56v4.46a3.64,3.64,0,0,1-.14,1,2.52,2.52,0,0,1-4.62,0Z"/><path class="ba35c8c9-dbba-49cf-95fa-6b972ba4c9ff" d="M117.4,51.43a2.78,2.78,0,0,0,1.47.44c.81,0,1.5-.34,1.5-1.25,0-1.79-3.07-1.58-3.07-3.62a1.73,1.73,0,0,1,2-1.69,3.31,3.31,0,0,1,1.41.31v.53a2.87,2.87,0,0,0-1.4-.34c-.68,0-1.38.3-1.38,1.13,0,1.68,3.06,1.52,3.06,3.65,0,1.12-.82,1.78-2.1,1.78a3,3,0,0,1-1.7-.49Z"/><path class="ba35c8c9-dbba-49cf-95fa-6b972ba4c9ff" d="M129.35,45.37h3.12l-.21.48h-2.35v2.63h2.3V49h-2.3v2.81h2.65v.48h-3.21Z"/><polygon class="aededa9f-3caa-4d58-8e3f-de759f5d91ee" points="20.44 0 14.47 4.69 14.44 0.13 3.94 0.13 3.94 12.97 0 16.07 0 48.67 0 51.88 0 52.26 72.06 52.26 72.06 50.18 2.07 50.18 2.07 17.16 6.02 14.05 6.02 2.21 12.37 2.21 12.37 8.89 20.44 2.67 38.8 16.93 38.99 39.4 16.06 39.4 16.06 15.06 13.99 17.81 13.99 41.48 40.88 41.48 40.88 16.07 20.44 0"/></g></g></svg>