<svg xmlns="http://www.w3.org/2000/svg" viewBox="0 0 146.56 20.99"><defs><style>.bc4ae30e-b9df-4fee-8e4b-58f7a72a4d49{fill:#519860;}.b014f238-022e-48aa-8d10-7c5b69642c39,.bc4ae30e-b9df-4fee-8e4b-58f7a72a4d49{fill-rule:evenodd;}.b014f238-022e-48aa-8d10-7c5b69642c39{fill:#747474;}</style></defs><title>63</title><g id="b19e07e4-e07e-4b81-afba-8d77dc286da0" data-name="Слой 2"><g id="e857e3f0-103e-4e3a-81d9-e309f3e67755" data-name="Слой 1"><path class="bc4ae30e-b9df-4fee-8e4b-58f7a72a4d49" d="M16.25,16.25H8.86V8.86h7.39ZM0,16.25H7.39V8.86H0ZM0,7.39H7.39V0H0Z"/><path class="b014f238-022e-48aa-8d10-7c5b69642c39" d="M38.06,11.16,34.61,6.68h2.87l2.08,3,2.13-3h2.75L41,11.16l3.91,5.09H42l-2.49-3.49L37,16.25H34.17Zm13.14.72h.54v.34A2.46,2.46,0,0,1,51.1,14a2.51,2.51,0,0,1-1.87.65,3.05,3.05,0,0,1-.6-.06,1.59,1.59,0,0,1-.54-.2,1.12,1.12,0,0,1-.39-.36,1.05,1.05,0,0,1-.15-.57,1.07,1.07,0,0,1,.36-.85,2.42,2.42,0,0,1,.9-.48A5.26,5.26,0,0,1,50,11.93C50.41,11.9,50.82,11.88,51.2,11.88ZM51.78,15h-.06a2.6,2.6,0,0,1-1.16,1,3.92,3.92,0,0,1-1.81.41,5.2,5.2,0,0,1-1.21-.15,3.69,3.69,0,0,1-1.15-.5,2.77,2.77,0,0,1-.88-.92,2.64,2.64,0,0,1-.35-1.4,2.38,2.38,0,0,1,.61-1.72,4,4,0,0,1,1.56-1,9,9,0,0,1,2.13-.44,22.28,22.28,0,0,1,2.28-.11V10a1.47,1.47,0,0,0-.65-1.33,2.76,2.76,0,0,0-1.54-.43,3.52,3.52,0,0,0-1.46.32,3.76,3.76,0,0,0-1.15.78L45.7,7.91a5.37,5.37,0,0,1,1.88-1.13,6.28,6.28,0,0,1,2.17-.38,5.28,5.28,0,0,1,2.1.36,3.52,3.52,0,0,1,1.31.93A3.43,3.43,0,0,1,53.83,9,5.92,5.92,0,0,1,54,10.43v5.82H51.78Zm9.68-6.37a2.13,2.13,0,0,1,.84.67l1.63-1.44A3.84,3.84,0,0,0,62.37,6.8a5.35,5.35,0,0,0-2-.4,5.44,5.44,0,0,0-2,.36,5,5,0,0,0-1.63,1,4.8,4.8,0,0,0-1.1,1.6,5,5,0,0,0-.41,2.09,5.2,5.2,0,0,0,.41,2.14,4.74,4.74,0,0,0,1.11,1.59,4.82,4.82,0,0,0,1.66,1,5.8,5.8,0,0,0,2,.34,5.74,5.74,0,0,0,2-.35,3.94,3.94,0,0,0,1.52-1l-1.49-1.51a2.1,2.1,0,0,1-.9.63,3,3,0,0,1-1.12.22,2.52,2.52,0,0,1-1.19-.27,2.48,2.48,0,0,1-.84-.7,3,3,0,0,1-.51-1,3.83,3.83,0,0,1-.17-1.11,3.75,3.75,0,0,1,.16-1.1,3.06,3.06,0,0,1,.49-1,2.56,2.56,0,0,1,.82-.71,2.42,2.42,0,0,1,1.16-.27A2.58,2.58,0,0,1,61.46,8.66Zm3.07-2V8.59h1.68v4.47a6,6,0,0,0,.13,1.3,2.79,2.79,0,0,0,.48,1.08,2.37,2.37,0,0,0,1,.74,3.75,3.75,0,0,0,1.55.27,4.92,4.92,0,0,0,.84-.07,4.43,4.43,0,0,0,.76-.19l-.08-1.88a1.94,1.94,0,0,1-.5.15,2.46,2.46,0,0,1-.52,0,1.1,1.1,0,0,1-1-.41A2.25,2.25,0,0,1,68.56,13V8.59H71V6.68h-2.4V3.9H66.21V6.68ZM33.07,2.13H23.71V16.25h9.72V14h-7.2V10h6.48V7.91H26.23V4.32h6.84Z"/><path class="bc4ae30e-b9df-4fee-8e4b-58f7a72a4d49" d="M77.2,8V5.13h5.87V2.25H73.86v14H77.2V10.81h5.42V8ZM89.55,12h-.42c-.35,0-.71,0-1.08.05a5.21,5.21,0,0,0-1,.19,1.8,1.8,0,0,0-.7.41.93.93,0,0,0-.27.7.89.89,0,0,0,.12.47,1,1,0,0,0,.33.32,1.47,1.47,0,0,0,.46.17,2.81,2.81,0,0,0,.49.05A2,2,0,0,0,89,13.76a2,2,0,0,0,.53-1.47ZM85.71,6.5a5.74,5.74,0,0,0-2,1.24L85.33,9.5a4.44,4.44,0,0,1,1.1-.71,3.07,3.07,0,0,1,1.33-.29A2.25,2.25,0,0,1,89,8.84a1.21,1.21,0,0,1,.51,1.08v.16a21,21,0,0,0-2.2.12,7.44,7.44,0,0,0-2,.47,3.75,3.75,0,0,0-1.5,1,2.48,2.48,0,0,0-.59,1.72,3,3,0,0,0,.34,1.46,2.72,2.72,0,0,0,.86,1,3.37,3.37,0,0,0,1.16.51,4.82,4.82,0,0,0,1.22.16,4.12,4.12,0,0,0,1.65-.33,2.46,2.46,0,0,0,1.14-.95h.06v1h3v-5A9.85,9.85,0,0,0,92.36,9a4.22,4.22,0,0,0-.78-1.62,3.15,3.15,0,0,0-1.4-1,6.37,6.37,0,0,0-2.1-.31A6.88,6.88,0,0,0,85.71,6.5Zm14.93,2.55a2.31,2.31,0,0,0-.43-.08l-.4,0A2.23,2.23,0,0,0,98,9.76a2.15,2.15,0,0,0-.39.73,2.5,2.5,0,0,0-.12.69v5.06H94.25V6.4h3.12V7.82h0A3.15,3.15,0,0,1,98.48,6.6a2.75,2.75,0,0,1,1.6-.48l.39,0,.31.06Zm14,1.82v5.37h3.24V10.16a5.39,5.39,0,0,0-.19-1.42,4,4,0,0,0-.6-1.3,3.09,3.09,0,0,0-1.1-1,3.46,3.46,0,0,0-1.69-.37,3.59,3.59,0,0,0-1.88.46,3.77,3.77,0,0,0-1.26,1.22A3,3,0,0,0,110,6.56a3.52,3.52,0,0,0-1.81-.44,3.64,3.64,0,0,0-1,.14,3.56,3.56,0,0,0-.84.37,2.75,2.75,0,0,0-.64.52,3,3,0,0,0-.44.61h0V6.4H102v9.84h3.27V10.91a2.61,2.61,0,0,1,.42-1.51,1.38,1.38,0,0,1,1.2-.61,1.19,1.19,0,0,1,1.06.5,2.29,2.29,0,0,1,.34,1.34v5.61h3.24V10.93a3,3,0,0,1,.1-.8,2.17,2.17,0,0,1,.31-.69,1.76,1.76,0,0,1,.51-.47,1.43,1.43,0,0,1,.72-.18,1.21,1.21,0,0,1,1.13.61,2.11,2.11,0,0,1,.22.67A5.1,5.1,0,0,1,114.62,10.87Zm5-4.47v9.84h3.24V6.4Zm23.72,3.91a2.8,2.8,0,0,1,0,1.92,2.32,2.32,0,0,1-1.22,1.34,2.48,2.48,0,0,1-1,.2,2.1,2.1,0,0,1-1.7-.76,2.53,2.53,0,0,1-.46-.8,3,3,0,0,1-.15-1,3.12,3.12,0,0,1,.15-1,2.49,2.49,0,0,1,.46-.79A2.24,2.24,0,0,1,140.1,9a2.32,2.32,0,0,1,1-.2,2.4,2.4,0,0,1,1,.2,2.25,2.25,0,0,1,.75.54A2.41,2.41,0,0,1,143.3,10.31Zm2.85,7.52a7.1,7.1,0,0,0,.41-2.51V6.4H143.5V7.66h0A3.12,3.12,0,0,0,142.1,6.5a4.57,4.57,0,0,0-3.76,0,4.45,4.45,0,0,0-1.47,1.13A4.94,4.94,0,0,0,136,9.33a6.1,6.1,0,0,0,0,3.9,4.67,4.67,0,0,0,.92,1.61,4.37,4.37,0,0,0,1.47,1.1,4.67,4.67,0,0,0,2,.4A4.32,4.32,0,0,0,142.1,16a3.26,3.26,0,0,0,1.22-1h.06v.59a2.89,2.89,0,0,1-.68,2,2.73,2.73,0,0,1-2.11.75,4.93,4.93,0,0,1-1.69-.31,4.63,4.63,0,0,1-1.57-.94l-1.62,2.32a7.3,7.3,0,0,0,2.38,1.14,9.47,9.47,0,0,0,2.68.4,7.77,7.77,0,0,0,2.38-.35,4.54,4.54,0,0,0,3-2.81Zm-15-1.59V10.87a4,4,0,0,0-.07-.79,2.29,2.29,0,0,0-.22-.67,1.21,1.21,0,0,0-.45-.45,1.42,1.42,0,0,0-.72-.17A1.67,1.67,0,0,0,129,9a1.63,1.63,0,0,0-.55.46,2.19,2.19,0,0,0-.32.69,3,3,0,0,0-.11.8v5.33h-3.26V6.4h3.14V7.76h0a3.17,3.17,0,0,1,.47-.62,2.67,2.67,0,0,1,.67-.52,3.55,3.55,0,0,1,.84-.36,3.34,3.34,0,0,1,1-.14,3.6,3.6,0,0,1,1.68.36,3.15,3.15,0,0,1,1.11.92,3.59,3.59,0,0,1,.62,1.29,6.16,6.16,0,0,1,.18,1.47v6.08Zm-8.12-13a1.66,1.66,0,0,1-.15.7,1.71,1.71,0,0,1-.39.56,2,2,0,0,1-.59.38,2.06,2.06,0,0,1-.73.14,1.83,1.83,0,0,1-1.32-.53,1.68,1.68,0,0,1-.53-1.25,1.8,1.8,0,0,1,.13-.69,1.85,1.85,0,0,1,.4-.56,1.93,1.93,0,0,1,.59-.38,1.8,1.8,0,0,1,.73-.15,1.86,1.86,0,0,1,.73.14,1.79,1.79,0,0,1,.59.37,1.82,1.82,0,0,1,.39.56A1.71,1.71,0,0,1,123.06,3.26Z"/></g></g></svg>