<svg xmlns="http://www.w3.org/2000/svg" viewBox="0 0 104.57 49.46"><defs><style>.f3064ff5-e392-442a-9697-3eb9789e6d3a{fill:#595959;}.fde747c8-da13-4fb7-945a-e6eaedf27825{fill:#69baf0;}</style></defs><title>64</title><g id="e0d45f47-bf66-4aea-8756-a36ed411a541" data-name="Слой 2"><g id="b9b669b9-ee40-40cf-a72b-92bff16ff179" data-name="Слой 1"><g id="b0cfba41-59e8-487a-be6c-567e54cf2d12" data-name="Фигура 3"><rect class="f3064ff5-e392-442a-9697-3eb9789e6d3a" x="0.35" y="49.3" width="104.01" height="0.16"/></g><path class="fde747c8-da13-4fb7-945a-e6eaedf27825" d="M2.61,0A2.53,2.53,0,0,1,4.46.77a2.54,2.54,0,0,1,.77,1.87,2.49,2.49,0,0,1-.77,1.84,2.5,2.5,0,0,1-1.85.78A2.5,2.5,0,0,1,.77,4.48,2.52,2.52,0,0,1,0,2.64,2.58,2.58,0,0,1,.77.77,2.52,2.52,0,0,1,2.61,0ZM1,10.19H4.21V35H1Z"/><path class="f3064ff5-e392-442a-9697-3eb9789e6d3a" d="M42.53,7.69l-2.64,2A14.48,14.48,0,0,0,34.64,5.4a15.45,15.45,0,0,0-6.72-1.46A14.9,14.9,0,0,0,20.5,5.86,13.81,13.81,0,0,0,15.21,11a14.35,14.35,0,0,0-1.88,7.3,13.67,13.67,0,0,0,4.2,10.21,14.56,14.56,0,0,0,10.59,4.1,14.92,14.92,0,0,0,11.77-5.51l2.64,2a16.8,16.8,0,0,1-6.25,4.93,19.57,19.57,0,0,1-8.36,1.74q-8.79,0-13.86-5.85A17.66,17.66,0,0,1,9.81,18,16.57,16.57,0,0,1,15,5.65a17.79,17.79,0,0,1,12.91-5,19,19,0,0,1,8.47,1.85A16.47,16.47,0,0,1,42.53,7.69Z"/><path class="f3064ff5-e392-442a-9697-3eb9789e6d3a" d="M48.24.64h3.18V35H48.24Z"/><path class="f3064ff5-e392-442a-9697-3eb9789e6d3a" d="M59.15,0A2.57,2.57,0,0,1,61,.77a2.58,2.58,0,0,1,.77,1.87A2.52,2.52,0,0,1,61,4.48a2.54,2.54,0,0,1-1.86.78,2.51,2.51,0,0,1-1.84-.78,2.52,2.52,0,0,1-.77-1.84A2.58,2.58,0,0,1,57.31.77,2.54,2.54,0,0,1,59.15,0ZM57.57,10.19h3.18V35H57.57Z"/><path class="f3064ff5-e392-442a-9697-3eb9789e6d3a" d="M67.35,10.19h3.19v4.28A12.2,12.2,0,0,1,74,11,9.71,9.71,0,0,1,79,9.56a8.47,8.47,0,0,1,3.42.7,7.31,7.31,0,0,1,2.64,1.88,9.9,9.9,0,0,1,1.78,3.36,11.71,11.71,0,0,1,4-4.43A9.39,9.39,0,0,1,96,9.56a8.07,8.07,0,0,1,4.53,1.29,7.78,7.78,0,0,1,2.92,3.62,19.45,19.45,0,0,1,1,7V35h-3.25V21.43a17.6,17.6,0,0,0-.57-5.47,4.94,4.94,0,0,0-1.94-2.4,5.77,5.77,0,0,0-3.28-.91A7.14,7.14,0,0,0,91.1,14a7.89,7.89,0,0,0-2.8,3.64c-.59,1.51-.88,4.05-.88,7.6V35H84.23V22.28a21.92,21.92,0,0,0-.55-6.09,5.1,5.1,0,0,0-2-2.57,5.57,5.57,0,0,0-3.3-1A7.1,7.1,0,0,0,74.3,14a7.84,7.84,0,0,0-2.84,3.59,19.18,19.18,0,0,0-.92,6.89V35H67.35Z"/><path class="f3064ff5-e392-442a-9697-3eb9789e6d3a" d="M.93,39.69h.83l2.21,5,2-5H6.8L4,46.24a1.38,1.38,0,0,1-1.37.92A1.71,1.71,0,0,1,1.9,47a3.14,3.14,0,0,1-.9-.76l.53-.44a3.68,3.68,0,0,0,.74.62.94.94,0,0,0,.37.07.84.84,0,0,0,.5-.15,1.82,1.82,0,0,0,.46-.77Z"/><path class="f3064ff5-e392-442a-9697-3eb9789e6d3a" d="M9.64,47l1-7.31h.12l3,6,2.95-6h.11L17.89,47h-.72l-.72-5.23L13.86,47h-.18l-2.62-5.27L10.34,47Z"/><path class="f3064ff5-e392-442a-9697-3eb9789e6d3a" d="M21.22,39.67H22v3.07h3.72V39.67h.73V47h-.73V43.45H22V47h-.73Z"/><path class="f3064ff5-e392-442a-9697-3eb9789e6d3a" d="M30.08,39.67h.73v3.14h.52a11,11,0,0,1,2.06.13,1.75,1.75,0,0,1,1,.64,2.41,2.41,0,0,1,0,2.58,1.66,1.66,0,0,1-.95.66,7.91,7.91,0,0,1-1.93.16H30.08Zm.73,6.6h.78a6.74,6.74,0,0,0,1.6-.11,1.16,1.16,0,0,0,.6-.44,1.43,1.43,0,0,0,.22-.81,1.39,1.39,0,0,0-.28-.89A1.14,1.14,0,0,0,33,43.6a10.82,10.82,0,0,0-1.6-.08h-.61Zm4.83-6.6h.73V47h-.73Z"/><path class="f3064ff5-e392-442a-9697-3eb9789e6d3a" d="M45.8,47H45v-5.6L40.22,47h-.16V39.67h.73v5.7l4.85-5.7h.16Zm-4.63-9.06h.66a1.07,1.07,0,0,0,.45.39,1.72,1.72,0,0,0,.68.13,1.49,1.49,0,0,0,.64-.12,1.28,1.28,0,0,0,.46-.4h.64a1.28,1.28,0,0,1-.56.75A2.12,2.12,0,0,1,43,39a2.14,2.14,0,0,1-1.19-.3A1.24,1.24,0,0,1,41.17,37.92Z"/><path class="f3064ff5-e392-442a-9697-3eb9789e6d3a" d="M54.21,39.67H55v2.74l2.92-2.74h1L55.34,43l3.79,4h-1L55,43.58V47h-.74Z"/><path class="f3064ff5-e392-442a-9697-3eb9789e6d3a" d="M68,47h-.8l-2.42-5.65L62.36,47h-.79l3.18-7.31h.15Z"/><path class="f3064ff5-e392-442a-9697-3eb9789e6d3a" d="M76.92,47h-.76v-5.6L71.34,47h-.16V39.67h.73v5.7l4.85-5.7h.16Z"/><path class="f3064ff5-e392-442a-9697-3eb9789e6d3a" d="M80.27,47l1-7.31h.11l3,6,2.94-6h.12l1,7.31H87.8l-.72-5.23L84.49,47h-.18l-2.62-5.27L81,47Z"/><path class="f3064ff5-e392-442a-9697-3eb9789e6d3a" d="M94.84,39.67,98.25,47h-.79l-1.15-2.41H93.16L92,47h-.82l3.45-7.31Zm-.09,1.55L93.5,43.87H96Z"/><path class="f3064ff5-e392-442a-9697-3eb9789e6d3a" d="M100.56,40.39v-.72h4v.72h-1.63V47h-.75V40.39Z"/></g></g></svg>