<svg xmlns="http://www.w3.org/2000/svg" viewBox="0 0 142.24 24.93"><defs><style>.b9d7ea8a-11ab-41d2-9b4d-ab3ddd5b5ec3{fill:#777;}</style></defs><title>65</title><g id="ae11c93b-edd7-464a-8984-3abb74ca2c32" data-name="Слой 2"><g id="e134db6c-aede-4647-aa5e-213c93ffcd71" data-name="Слой 1"><rect class="b9d7ea8a-11ab-41d2-9b4d-ab3ddd5b5ec3" y="0.18" width="5.15" height="24.45"/><rect class="b9d7ea8a-11ab-41d2-9b4d-ab3ddd5b5ec3" x="8.12" y="18.73" width="5.15" height="6.66" transform="translate(32.75 11.36) rotate(90)"/><rect class="b9d7ea8a-11ab-41d2-9b4d-ab3ddd5b5ec3" x="128.21" y="0.18" width="5.15" height="24.45"/><rect class="b9d7ea8a-11ab-41d2-9b4d-ab3ddd5b5ec3" x="136.33" y="18.73" width="5.15" height="6.66" transform="translate(160.96 -116.85) rotate(90)"/><rect class="b9d7ea8a-11ab-41d2-9b4d-ab3ddd5b5ec3" x="27.39" y="0.18" width="5.15" height="24.45"/><polygon class="b9d7ea8a-11ab-41d2-9b4d-ab3ddd5b5ec3" points="72.86 19.48 69.87 24.93 57.17 0.18 62.87 0 72.86 19.48"/><polygon class="b9d7ea8a-11ab-41d2-9b4d-ab3ddd5b5ec3" points="71.2 11.43 74.11 17.05 82.68 0.27 76.98 0.09 71.2 11.43"/><rect class="b9d7ea8a-11ab-41d2-9b4d-ab3ddd5b5ec3" x="37.35" y="16.89" width="5.15" height="10.32" transform="translate(61.98 -17.86) rotate(90)"/><rect class="b9d7ea8a-11ab-41d2-9b4d-ab3ddd5b5ec3" x="37.35" y="7.24" width="5.15" height="10.32" transform="translate(52.33 -27.52) rotate(90)"/><rect class="b9d7ea8a-11ab-41d2-9b4d-ab3ddd5b5ec3" x="37.35" y="-2.41" width="5.15" height="10.32" transform="translate(42.67 -37.17) rotate(90)"/><rect class="b9d7ea8a-11ab-41d2-9b4d-ab3ddd5b5ec3" x="95.77" y="0.18" width="5.15" height="24.45"/><rect class="b9d7ea8a-11ab-41d2-9b4d-ab3ddd5b5ec3" x="105.72" y="16.89" width="5.15" height="10.32" transform="translate(130.35 -86.24) rotate(90)"/><rect class="b9d7ea8a-11ab-41d2-9b4d-ab3ddd5b5ec3" x="105.72" y="7.24" width="5.15" height="10.32" transform="translate(120.7 -95.89) rotate(90)"/><rect class="b9d7ea8a-11ab-41d2-9b4d-ab3ddd5b5ec3" x="105.72" y="-2.41" width="5.15" height="10.32" transform="translate(111.05 -105.54) rotate(90)"/></g></g></svg>