<svg xmlns="http://www.w3.org/2000/svg" viewBox="0 0 110.62 79.54"><defs><style>.a307448a-dfbf-4426-a18f-41fc39089b91{fill:#60676c;}.ae1c5984-294e-44a6-ae3a-d0164dbf9f61{fill:#009cdf;}.a3aa17f1-08f6-478b-ba5a-68f71344501e{fill:#9bcdf2;}</style></defs><title>66</title><g id="fd52c25c-fdfe-4b26-b3d4-037809fd1950" data-name="Слой 2"><g id="f59c3ea5-0746-4fa3-a917-33966c6dfb42" data-name="Слой 1"><path class="a307448a-dfbf-4426-a18f-41fc39089b91" d="M10.14,69.94A5,5,0,0,1,5,75.26a4.83,4.83,0,0,1-5-5.15,4.93,4.93,0,0,1,5.17-5.3,4.79,4.79,0,0,1,5,5.13M2.61,70c0,1.93,1,3.39,2.48,3.39S7.53,72,7.53,70c0-1.56-.7-3.36-2.42-3.36s-2.5,1.74-2.5,3.4"/><path class="ae1c5984-294e-44a6-ae3a-d0164dbf9f61" d="M10.43,79.54V78.48l1-.86c1.64-1.47,2.43-2.3,2.45-3.18,0-.6-.36-1.09-1.22-1.09A2.77,2.77,0,0,0,11,74l-.49-1.24A4.13,4.13,0,0,1,13,72a2.31,2.31,0,0,1,2.62,2.33c0,1.27-.89,2.26-2,3.23l-.69.57v0h2.82v1.44Z"/><path class="a307448a-dfbf-4426-a18f-41fc39089b91" d="M26.78,74.72a7.24,7.24,0,0,1-2.83.52,4.83,4.83,0,0,1-5.16-5.11c0-3,2.05-5.32,5.57-5.32a6.68,6.68,0,0,1,2.44.45l-.45,1.91a4.11,4.11,0,0,0-1.91-.39,3.23,3.23,0,0,0,0,6.46,5.12,5.12,0,0,0,2-.38Z"/><path class="a307448a-dfbf-4426-a18f-41fc39089b91" d="M38,69.94a5,5,0,0,1-5.13,5.32,4.83,4.83,0,0,1-5-5.15A4.94,4.94,0,0,1,33,64.81a4.79,4.79,0,0,1,5,5.13m-7.53.1c0,1.93,1,3.39,2.49,3.39S35.36,72,35.36,70c0-1.56-.7-3.36-2.43-3.36s-2.5,1.74-2.5,3.4"/><path class="a307448a-dfbf-4426-a18f-41fc39089b91" d="M40,68c0-1.15,0-2.11-.09-3h2.2l.12,1.49h.06a3.68,3.68,0,0,1,3.21-1.72c1.74,0,3.55,1.13,3.55,4.29V75H46.56V69.39c0-1.44-.53-2.53-1.91-2.53a2.13,2.13,0,0,0-2,1.48,2.36,2.36,0,0,0-.12.8V75H40Z"/><path class="a307448a-dfbf-4426-a18f-41fc39089b91" d="M51.67,72.69a5.51,5.51,0,0,0,2.55.74c1.11,0,1.6-.47,1.6-1.13s-.41-1-1.64-1.46c-2-.65-2.75-1.72-2.75-2.91,0-1.77,1.45-3.12,3.77-3.12a5.73,5.73,0,0,1,2.67.6l-.51,1.76a4.37,4.37,0,0,0-2.12-.58c-.9,0-1.39.46-1.39,1.07s.47.92,1.74,1.4c1.83.63,2.65,1.56,2.67,3,0,1.82-1.41,3.14-4.06,3.14a6.47,6.47,0,0,1-3-.7Z"/><path class="a307448a-dfbf-4426-a18f-41fc39089b91" d="M69.28,72c0,1.19,0,2.18.09,3h-2.2l-.12-1.5H67a3.68,3.68,0,0,1-3.23,1.73c-1.8,0-3.47-1.09-3.47-4.36V65h2.53v5.44c0,1.67.53,2.73,1.87,2.73a2.06,2.06,0,0,0,1.93-1.35,1.87,1.87,0,0,0,.14-.78V65h2.52Z"/><rect class="a307448a-dfbf-4426-a18f-41fc39089b91" x="72.01" y="60.46" width="2.52" height="14.57"/><path class="a307448a-dfbf-4426-a18f-41fc39089b91" d="M80.18,62.47V65h2.4v1.88h-2.4v4.42c0,1.23.33,1.84,1.29,1.84a3.38,3.38,0,0,0,1-.1l0,1.91a5.65,5.65,0,0,1-1.83.27,2.89,2.89,0,0,1-2.17-.82,3.93,3.93,0,0,1-.8-2.82v-4.7H76.28V65H77.7V63.17Z"/><path class="a307448a-dfbf-4426-a18f-41fc39089b91" d="M87.18,62.24a1.35,1.35,0,0,1-1.44,1.36,1.37,1.37,0,1,1,1.44-1.36M84.49,65H87V75H84.49Z"/><path class="a307448a-dfbf-4426-a18f-41fc39089b91" d="M89.75,68c0-1.15,0-2.11-.09-3h2.2L92,66.53H92a3.68,3.68,0,0,1,3.21-1.72c1.74,0,3.55,1.13,3.55,4.29V75H96.27V69.39c0-1.44-.53-2.53-1.91-2.53a2.13,2.13,0,0,0-2,1.48,2.36,2.36,0,0,0-.12.8V75H89.75Z"/><path class="a307448a-dfbf-4426-a18f-41fc39089b91" d="M110.54,73.57c0,2.1-.43,3.59-1.48,4.54a5.73,5.73,0,0,1-3.86,1.21,7.34,7.34,0,0,1-3.49-.8l.56-1.91a6,6,0,0,0,2.91.76c1.64,0,2.87-.86,2.87-3v-.86h0A3.35,3.35,0,0,1,105.1,75c-2.49,0-4.25-2-4.25-4.89,0-3.28,2.13-5.27,4.54-5.27a3.11,3.11,0,0,1,2.89,1.56h0l.1-1.33h2.2c0,.67-.08,1.49-.08,2.87ZM108,69a2.44,2.44,0,0,0-.08-.68,2.1,2.1,0,0,0-2.05-1.62c-1.42,0-2.46,1.23-2.46,3.26,0,1.7.86,3.08,2.44,3.08a2.14,2.14,0,0,0,2-1.54,3.08,3.08,0,0,0,.1-.88Z"/><path class="a3aa17f1-08f6-478b-ba5a-68f71344501e" d="M45.11,37.43h0l-.18-.69-.15-.56H40.4c.82,1.87,1.72,3.72,2.69,5.51h3.26c-.44-1.39-.86-2.81-1.24-4.26"/><path class="a3aa17f1-08f6-478b-ba5a-68f71344501e" d="M43.14,28.5H37.61c.57,1.93,1.24,3.88,2,5.82h4.69c-.46-2-.85-3.9-1.18-5.82"/><path class="a3aa17f1-08f6-478b-ba5a-68f71344501e" d="M52.56,48.86l-.11-.81L52.31,47h0c-.05-.36-.1-.73-.14-1.1H49.84C50.25,47,52,51.12,52.17,51.5H53c-.13-.85-.27-1.73-.39-2.64Z"/><path class="a3aa17f1-08f6-478b-ba5a-68f71344501e" d="M55.31,54.21c0-.27.64-4.16.8-5.35h-1.6c.16,1.19.75,5.08.8,5.35"/><path class="a3aa17f1-08f6-478b-ba5a-68f71344501e" d="M47.78,45.89l-.22-.62L47.1,44h0L47,43.56H44.13c1,1.7,2,3.34,3.14,4.9h1.51c-.34-.84-.67-1.7-1-2.57Z"/><path class="a3aa17f1-08f6-478b-ba5a-68f71344501e" d="M42.51,6.67H36.57a26.59,26.59,0,0,0-.93,4.9H42c0-.16.4-4.07.53-4.9"/><path class="a3aa17f1-08f6-478b-ba5a-68f71344501e" d="M60.22,6.27l0,.89.06,1h0c0,.36,0,.73,0,1.1h6.09c-.12-1.16-.79-5.23-.89-5.61H60c.07.84.14,1.72.19,2.64Z"/><path class="a3aa17f1-08f6-478b-ba5a-68f71344501e" d="M75,11.57a26.59,26.59,0,0,0-.93-4.9h-6c.14.83.53,4.74.53,4.9Z"/><path class="a3aa17f1-08f6-478b-ba5a-68f71344501e" d="M42,18.68l-.06-1h0c-.06-1.46-.07-2.88,0-4.26h-6.4A38.4,38.4,0,0,0,35.69,19H42Z"/><path class="a3aa17f1-08f6-478b-ba5a-68f71344501e" d="M57.73,0H52.89c-.08.56-.42,5-.49,6.27h5.82C58.15,5,57.81.56,57.73,0"/><path class="a3aa17f1-08f6-478b-ba5a-68f71344501e" d="M50.31,8.14h0l.05-1,0-.89h0c.05-.92.12-1.8.19-2.64H45.07c-.1.38-.77,4.45-.89,5.61h6.09c0-.37,0-.74,0-1.1"/><path class="a3aa17f1-08f6-478b-ba5a-68f71344501e" d="M42.84,26.63c-.3-2-.54-3.92-.69-5.82H35.92a53.07,53.07,0,0,0,1.17,5.82h5.75Z"/><path class="a3aa17f1-08f6-478b-ba5a-68f71344501e" d="M65.7,36.74l-.18.69h0c-.38,1.45-.8,2.87-1.24,4.26h3.26c1-1.8,1.87-3.64,2.68-5.51H65.85Z"/><path class="a3aa17f1-08f6-478b-ba5a-68f71344501e" d="M67.78,26.63h5.75a53.07,53.07,0,0,0,1.17-5.82H68.47c-.15,1.9-.39,3.84-.69,5.82"/><path class="a3aa17f1-08f6-478b-ba5a-68f71344501e" d="M58.31,47h0l-.14,1.06-.11.81h0c-.12.91-.26,1.79-.39,2.64h.79c.19-.38,1.92-4.53,2.33-5.61H58.45c-.05.37-.09.74-.14,1.1"/><path class="a3aa17f1-08f6-478b-ba5a-68f71344501e" d="M67.48,28.5c-.33,1.93-.73,3.87-1.18,5.82H71c.78-1.94,1.45-3.89,2-5.82H67.48Z"/><path class="a3aa17f1-08f6-478b-ba5a-68f71344501e" d="M63.5,44h0l-.45,1.25-.22.62h0c-.33.87-.66,1.73-1,2.57h1.52c1.1-1.56,2.15-3.2,3.14-4.9H63.66L63.5,44"/><path class="a3aa17f1-08f6-478b-ba5a-68f71344501e" d="M75.11,13.43h-6.4c0,1.38,0,2.8,0,4.26h0l-.06,1V19h6.32a38.4,38.4,0,0,0,.18-5.52"/><path class="a3aa17f1-08f6-478b-ba5a-68f71344501e" d="M52.58,28.5c.16,2.64.34,5.3.56,7.92,0,.27,0,.53.07.8H57.4c0-.27.05-.53.08-.8.22-2.62.4-5.28.56-7.92Z"/><path class="a3aa17f1-08f6-478b-ba5a-68f71344501e" d="M52.21,18.61c0,2.58.14,5.27.27,8h5.66c.13-2.75.23-5.45.27-8h0c0-.24,0-.47,0-.7H52.19c0,.23,0,.46,0,.7Z"/><path class="ae1c5984-294e-44a6-ae3a-d0164dbf9f61" d="M51.41,39.08l-.08-.84-.07-.81H47.14c.45,1.66.93,3.3,1.46,4.91.18.56.37,1.13.57,1.68h2.77c-.18-1.6-.36-3.25-.52-4.94Z"/><path class="ae1c5984-294e-44a6-ae3a-d0164dbf9f61" d="M50.18,17V16h0c0-1.71,0-3.36,0-4.93H44c0,.47-.06.94-.08,1.42h0c-.07,1.64-.06,3.37,0,5.15h6.24Z"/><path class="ae1c5984-294e-44a6-ae3a-d0164dbf9f61" d="M50.6,28.5H45.15c.38,2.16.83,4.35,1.36,6.53.05.18.1.36.14.54H51.1c-.2-2.36-.37-4.73-.5-7.07"/><path class="ae1c5984-294e-44a6-ae3a-d0164dbf9f61" d="M50.49,26.63c-.12-2.42-.21-4.79-.27-7.07H44.06c0,.08,0,.17,0,.25h0c.16,2.2.42,4.49.78,6.82Z"/><path class="ae1c5984-294e-44a6-ae3a-d0164dbf9f61" d="M54,44.84c.09.73.18,1.45.27,2.15h2.1c.09-.7.18-1.42.27-2.15.22-1.86.42-3.79.61-5.76H53.39c.18,2,.39,3.92.6,5.76"/><path class="ae1c5984-294e-44a6-ae3a-d0164dbf9f61" d="M60,28.5q-.2,3.53-.5,7.07H64c0-.18.09-.36.13-.54.54-2.18,1-4.37,1.37-6.53H60Z"/><path class="ae1c5984-294e-44a6-ae3a-d0164dbf9f61" d="M66.68,12.54h0c0-.48,0-.95-.08-1.42H60.41c0,1.57.05,3.22,0,4.93h0v1.65h6.24c.07-1.79.08-3.51,0-5.15"/><path class="ae1c5984-294e-44a6-ae3a-d0164dbf9f61" d="M60.13,26.63h5.64c.36-2.32.62-4.62.78-6.82,0-.08,0-.17,0-.25H60.4c-.06,2.28-.15,4.66-.27,7.07"/><path class="ae1c5984-294e-44a6-ae3a-d0164dbf9f61" d="M58.39,10.19c0-.7,0-1.38-.08-2h-6c0,.67-.06,1.35-.08,2.06,0,1.84-.07,3.8-.06,5.84h6.28c0-2,0-4-.06-5.84Z"/><path class="ae1c5984-294e-44a6-ae3a-d0164dbf9f61" d="M59.28,38.24l-.07.84h0c-.16,1.69-.34,3.34-.52,4.94h2.77c.2-.55.39-1.12.57-1.68.53-1.6,1-3.24,1.46-4.91H59.36Z"/></g></g></svg>