<svg xmlns="http://www.w3.org/2000/svg" xmlns:xlink="http://www.w3.org/1999/xlink" viewBox="0 0 138.48 28.75"><defs><style>.f90eb7ed-c96a-4275-ba00-b1eee9afbfed{fill:#fafafc;}.bb112610-9231-400c-a449-8686cc3df396{fill:url(#acd2b6c6-13ca-4e9b-b056-98b9ab4959ad);}.a9bd4bbe-f3ee-455f-ad55-0f8a7b39a31a{fill:#fff;}</style><linearGradient id="acd2b6c6-13ca-4e9b-b056-98b9ab4959ad" x1="138.44" y1="28.29" x2="65.33" y2="-18.21" gradientUnits="userSpaceOnUse"><stop offset="0" stop-color="#1a1715"/><stop offset="1" stop-color="#444a67"/></linearGradient></defs><title>67</title><g id="a24e60b0-36b8-4780-848a-a4a24c6b1085" data-name="Слой 2"><g id="a83ad6c4-d628-4ad1-ac3e-f35dec9ae99b" data-name="Слой 1"><path class="f90eb7ed-c96a-4275-ba00-b1eee9afbfed" d="M.34,10.84V6.14L2.64,4H14.52l2.35,2.13H3.07v4.7H14.23L16.53,13v4.46l-2.3,2.13H2.35L0,17.43H13.8V13H2.64Z"/><path class="f90eb7ed-c96a-4275-ba00-b1eee9afbfed" d="M23.9,6.27H34L36.38,8.4V19.56H33.65V13.78H23.25v3.65H33.42L31.3,19.56H22.65l-2.13-2.13V13.78l2.13-2.13h11V8.4H21.77Z"/><path class="f90eb7ed-c96a-4275-ba00-b1eee9afbfed" d="M46.59,19.56h-3.2L41,17.43V1.66h2.73V17.43h2.82Z"/><path class="f90eb7ed-c96a-4275-ba00-b1eee9afbfed" d="M52.06,17.45v-9l2.17-2.17H65.84l2.33,2.2v3.4L66,14H57.12L55,11.89l10.41,0V8.47l-10.64,0v9l13.4,0-2.13,2.13H54.17Z"/><path class="f90eb7ed-c96a-4275-ba00-b1eee9afbfed" d="M72,11.67V8.4h0l2.31-2.13H86.09L88.44,8.4H74.69v3.27H86.18l2.31,2.13v3.63l-2.31,2.13H74.3L72,17.43h13.8V13.8H74.26Z"/><path class="f90eb7ed-c96a-4275-ba00-b1eee9afbfed" d="M.13,24.81v-1h0l.68-.63H4.27l.69.63h-4v1H4.3l.67.62v1.06l-.67.63H.82l-.69-.63h4V25.43H.8Z"/><path class="f90eb7ed-c96a-4275-ba00-b1eee9afbfed" d="M5.41,26.49V23.22h.8v3.27h3l-.63.63H6Zm.13,1.63H9.23v-4.9H10v4.9l-.68.63H6.16Z"/><path class="f90eb7ed-c96a-4275-ba00-b1eee9afbfed" d="M10.51,24.81v-1h0l.68-.63h3.46l.69.63h-4v1h3.37l.67.62v1.06l-.67.63H11.2l-.69-.63h4V25.43H11.18Z"/><path class="f90eb7ed-c96a-4275-ba00-b1eee9afbfed" d="M17.36,26.49V23.85h-.91v-.63h.91v-.66h.81v.66h1.19l.62.63H18.17v2.64H20v.63H18Z"/><path class="f90eb7ed-c96a-4275-ba00-b1eee9afbfed" d="M21.53,26.5V23.86l.64-.64h3.4l.68.65v1l-.62.62H23l-.61-.62h3.05v-1H22.33V26.5h3.93l-.62.63H22.15Z"/><path class="f90eb7ed-c96a-4275-ba00-b1eee9afbfed" d="M28.42,23.22v3.9h-.8v-3.9Zm5.78.62v3.28h-.8V23.84H31.34v3.28h-.8V23.84H28.49l.62-.62H30.6l.33.33.34-.33h2.31Z"/><path class="f90eb7ed-c96a-4275-ba00-b1eee9afbfed" d="M40.21,21.93v.52l-.12.12h-.62l-.12-.12v-.52l.12-.11h.62Zm-.85,1.29h.8v3.9h-.8Z"/><path class="f90eb7ed-c96a-4275-ba00-b1eee9afbfed" d="M41.57,23.22h.81v3.9h-.81Zm1.55,0h2.51l.68.63v3.27h-.8V23.85H42.44Z"/><path class="f90eb7ed-c96a-4275-ba00-b1eee9afbfed" d="M48.56,26.49V23.85h-.92v-.63h.92v-.66h.8v.66h1.19l.62.63H49.36v2.64h1.86v.63h-2Z"/><path class="f90eb7ed-c96a-4275-ba00-b1eee9afbfed" d="M52.72,26.5V23.86l.64-.64h3.4l.68.65v1l-.62.62H54.21l-.62-.62h3v-1H53.52V26.5h3.93l-.62.63H53.34Z"/><path class="f90eb7ed-c96a-4275-ba00-b1eee9afbfed" d="M58.58,26.49V23.85l.63-.63h2.44l.62.63H59.38v2.64h3V23.22h.8v4.9l-.62.63h-3.2l-.63-.63h3.65v-1H59.21Z"/><path class="f90eb7ed-c96a-4275-ba00-b1eee9afbfed" d="M64.28,23.22h.81v3.9h-.81Zm1.54,0h1.49l.69.63H65.14Z"/><path class="f90eb7ed-c96a-4275-ba00-b1eee9afbfed" d="M69.13,23.22h3l.69.63v3.27H72v-1.7h-3v1.07h3l-.62.63H68.76l-.62-.63V25.42l.62-.62H72v-.95H68.51Z"/><path class="f90eb7ed-c96a-4275-ba00-b1eee9afbfed" d="M75.31,26.49V23.85h-.92v-.63h.92v-.66h.8v.66H77.3l.62.63H76.11v2.64H78v.63h-2Z"/><path class="f90eb7ed-c96a-4275-ba00-b1eee9afbfed" d="M79,23.85l.68-.63h3.48l.69.63v2.64l-.69.63H79.71L79,26.49Zm4,0H79.83v2.64h3.25Z"/><path class="f90eb7ed-c96a-4275-ba00-b1eee9afbfed" d="M84.77,23.22h.81v3.9h-.81Zm1.54,0H87.8l.69.63H85.63Z"/><rect class="bb112610-9231-400c-a449-8686cc3df396" x="92.08" width="46.41" height="27.12" rx="2.51"/><path class="a9bd4bbe-f3ee-455f-ad55-0f8a7b39a31a" d="M108.06,19.56H98.47l-2.35-2.13V4h2.73V17.43h11.52Zm5.26,0h-2.73V4h2.73Z"/><path class="a9bd4bbe-f3ee-455f-ad55-0f8a7b39a31a" d="M117.33,6.27h2.74V17.43h10.39v-9H120.29l2.13-2.13h8.65l2.12,2.13v9l-2.12,2.13h-11v5.6h-2.74Z"/></g></g></svg>