<svg xmlns="http://www.w3.org/2000/svg" viewBox="0 0 121.94 70.01"><defs><style>.a1c28fa3-12fe-4850-a2d0-81ae297d44b9{fill:#6bb0e4;}</style></defs><title>68</title><g id="bf19ed0d-b82c-4d3e-80aa-67f732e4dacd" data-name="Слой 2"><g id="ebfbf1d3-8424-4690-9244-c8860dc8b40e" data-name="Слой 1"><path class="a1c28fa3-12fe-4850-a2d0-81ae297d44b9" d="M60.85,0c0,.09,0,.18.09.27.35.7.7,1.4,1,2.11a.48.48,0,0,0,.43.31c.86.11,1.7.25,2.62.38l-.25.25c-.55.55-1.1,1.09-1.67,1.63a.44.44,0,0,0-.14.46c.15.81.29,1.64.43,2.46a.84.84,0,0,1,0,.16c-.8-.42-1.58-.82-2.36-1.24a.44.44,0,0,0-.48,0C59.8,7.21,59,7.61,58.19,8l.25-1.45c.06-.39.13-.79.21-1.18a.47.47,0,0,0-.16-.48c-.57-.53-1.12-1.08-1.68-1.62a1.34,1.34,0,0,0-.23-.16l.05-.09,1.74-.26a6.42,6.42,0,0,1,.75-.1.56.56,0,0,0,.56-.4C60,1.52,60.42.76,60.79,0Z"/><path class="a1c28fa3-12fe-4850-a2d0-81ae297d44b9" d="M61,47.51A19.27,19.27,0,1,1,80.23,28.2,19.29,19.29,0,0,1,61,47.51ZM61,9.86a18.38,18.38,0,1,0,18.35,18.4A18.38,18.38,0,0,0,61,9.86Z"/><path class="a1c28fa3-12fe-4850-a2d0-81ae297d44b9" d="M118.67,58.82a3.08,3.08,0,0,0,1-2.89,3.57,3.57,0,0,0-.27-1.16A2.11,2.11,0,0,0,117,53.55a.48.48,0,0,0-.41.43c0,.23,0,.47,0,.7V58.8h-2V54.68c0-.17,0-.35,0-.52,0-.51-.19-.67-.69-.71l-.44,0a.25.25,0,0,1-.26-.31c0-.18.12-.25.29-.25H114c1.44,0,2.87-.07,4.31,0a6.09,6.09,0,0,1,1.73.33,2.62,2.62,0,0,1,1.86,2.27,3.35,3.35,0,0,1-1.15,3.22.73.73,0,0,1-.41.15C119.81,58.83,119.28,58.82,118.67,58.82Z"/><path class="a1c28fa3-12fe-4850-a2d0-81ae297d44b9" d="M74.84,58.77V54.43c0-.11,0-.22,0-.32,0-.46-.19-.61-.66-.65-.14,0-.29,0-.43,0a.25.25,0,0,1-.28-.29c0-.19.1-.27.29-.27.5,0,1,0,1.49,0,.65,0,1.3,0,1.94,0a7.7,7.7,0,0,1,2.71.2,2.31,2.31,0,0,1,1.54,3.25,3.72,3.72,0,0,1-1.52,1.79l.44.68ZM76.92,56h0c0,.57,0,1.14,0,1.71,0,.15,0,.24.21.24.35,0,.7,0,1,0a1.17,1.17,0,0,0,1.27-1.17,7.91,7.91,0,0,0,0-1.82,1.45,1.45,0,0,0-1.71-1.44c-.58,0-.79.21-.8.8S76.92,55.43,76.92,56Z"/><path class="a1c28fa3-12fe-4850-a2d0-81ae297d44b9" d="M18.61,58.09l.44.69h-5.5v-.32c0-1.43,0-2.87,0-4.3,0-.54-.17-.67-.71-.71h-.3c-.2,0-.36,0-.35-.31s.17-.26.36-.26h3.23c.7,0,1.39,0,2.09,0a3.27,3.27,0,0,1,.92.23A2.23,2.23,0,0,1,20.22,56,3.44,3.44,0,0,1,19,57.8C18.88,57.9,18.75,58,18.61,58.09Zm-3-.16a12.65,12.65,0,0,0,1.38,0c.75-.1,1-.37,1.16-1.13a4.85,4.85,0,0,0-.09-2.24,1.25,1.25,0,0,0-1.08-1c-1.21-.16-1.37.09-1.37,1.07v3.31Z"/><path class="a1c28fa3-12fe-4850-a2d0-81ae297d44b9" d="M88,58.8H85.79a5.22,5.22,0,0,1,.32-2.22,5.79,5.79,0,0,1,3.82-3.52,6.19,6.19,0,0,1,5,.22A5.67,5.67,0,0,1,98,58.54a1.1,1.1,0,0,1,0,.18.23.23,0,0,1,0,.09H95.81c-.06-.48-.1-1-.19-1.41a5.05,5.05,0,0,0-1.59-3,3.67,3.67,0,0,0-3.72-.74,3,3,0,0,0-1.91,2A7,7,0,0,0,88,58.42C88.05,58.54,88,58.66,88,58.8Z"/><path class="a1c28fa3-12fe-4850-a2d0-81ae297d44b9" d="M60.11,59.59h2.3c.12.39.22.79.37,1.16a4.62,4.62,0,0,0,3.29,3,4.7,4.7,0,0,0,1.94,0,1,1,0,0,0,.81-.74,5.53,5.53,0,0,0,.05-2.36.57.57,0,0,0-.54-.46q-.47,0-.93-.06c-.22,0-.39-.07-.39-.32s.15-.32.39-.31l4,0c.19,0,.32.08.33.29s-.09.29-.29.32c-.41,0-.47.08-.47.49q0,1.38.06,2.76c0,.42,0,.53-.45.62a15.12,15.12,0,0,1-4.87.43,5.84,5.84,0,0,1-5.29-3.79A10.17,10.17,0,0,1,60.11,59.59Z"/><path class="a1c28fa3-12fe-4850-a2d0-81ae297d44b9" d="M6.27,58.8H4.19V54.58c0-.87-.18-1-1.05-1a2.25,2.25,0,0,0-2,1.21,9.24,9.24,0,0,0-.54,1.25c-.07.18-.16.28-.35.25S0,56.12,0,55.93c.08-1.07.15-2.14.25-3.21a.41.41,0,0,1,.22-.3c.09,0,.22.12.33.19s.24.2.36.21c.78,0,1.55.08,2.33.08,1.93,0,3.86,0,5.79-.07a.61.61,0,0,0,.62-.34.36.36,0,0,1,.31-.11.36.36,0,0,1,.18.28c0,1.12-.1,2.23-.15,3.34,0,.18-.08.29-.25.3a.29.29,0,0,1-.33-.25A8.05,8.05,0,0,0,9.38,55a2.29,2.29,0,0,0-2.77-1.3.41.41,0,0,0-.32.43,5.52,5.52,0,0,0,0,.58V58.8Z"/><path class="a1c28fa3-12fe-4850-a2d0-81ae297d44b9" d="M85.86,59.59h2.26c.2.56.34,1.11.58,1.63a4.07,4.07,0,0,0,2.43,2.39A3.23,3.23,0,0,0,95,62.26a5.84,5.84,0,0,0,.81-2.66h2.15a4.84,4.84,0,0,1-.68,1.81A6.41,6.41,0,0,1,91,64.53,5.6,5.6,0,0,1,85.86,59.59Z"/><path class="a1c28fa3-12fe-4850-a2d0-81ae297d44b9" d="M51.71,58.82H48.45a.38.38,0,0,1-.19,0,6.19,6.19,0,0,1-1.69-1.45,2.76,2.76,0,0,1,.65-3.89,4.24,4.24,0,0,1,2.84-.74,10.13,10.13,0,0,1,2,.38c.42.1.49.28.5.7,0,.68,0,1.36,0,2,0,0,0,.11,0,.15s-.14.24-.25.29-.25,0-.32-.2a16.11,16.11,0,0,0-.74-1.64,2,2,0,0,0-1.37-1,1.54,1.54,0,0,0-1.72.54,1.73,1.73,0,0,0,0,2,3.77,3.77,0,0,0,.92,1c.6.46,1.26.84,1.89,1.26.27.18.53.38.79.57Z"/><path class="a1c28fa3-12fe-4850-a2d0-81ae297d44b9" d="M62.24,58.8H60.11a4.07,4.07,0,0,1,.14-1.51,5.85,5.85,0,0,1,4.09-4.2,8.8,8.8,0,0,1,5.35,0c.72.21.78.32.83,1.06s.11,1.18.16,1.77c0,.17.08.39-.19.45s-.31-.12-.39-.3a4.22,4.22,0,0,0-5.42-2.31,3.38,3.38,0,0,0-2.19,2.72C62.34,57.2,62.32,58,62.24,58.8Z"/><path class="a1c28fa3-12fe-4850-a2d0-81ae297d44b9" d="M53.87,9.21c-.63-.33-1.23-.63-1.81-1a.46.46,0,0,0-.48,0l-1.79,1c.07-.44.13-.83.2-1.22a4,4,0,0,1,.1-.6.66.66,0,0,0-.27-.8c-.37-.33-.71-.69-1.06-1l-.22-.24c.7-.1,1.36-.21,2-.29a.43.43,0,0,0,.36-.27c.28-.6.58-1.18.89-1.81,0,.08.1.14.13.2.27.55.53,1.1.82,1.64a.5.5,0,0,0,.32.22c.65.11,1.32.2,2,.31L55,5.5c-.42.42-.84.84-1.28,1.24a.49.49,0,0,0-.15.48C53.64,7.87,53.75,8.52,53.87,9.21Z"/><path class="a1c28fa3-12fe-4850-a2d0-81ae297d44b9" d="M68.07,9.21c.12-.69.22-1.33.34-2a.53.53,0,0,0-.17-.54c-.41-.37-.8-.76-1.19-1.15a2.8,2.8,0,0,1-.23-.24L68.87,5a.48.48,0,0,0,.31-.23c.32-.59.61-1.2.93-1.86.32.63.61,1.21.88,1.79a.53.53,0,0,0,.45.33c.64.07,1.28.18,1.89.27a11.17,11.17,0,0,1-1.06,1.11,1.05,1.05,0,0,0-.39,1.23c.14.49.18,1,.28,1.56-.63-.33-1.22-.63-1.81-1a.42.42,0,0,0-.48,0C69.29,8.58,68.7,8.88,68.07,9.21Z"/><path class="a1c28fa3-12fe-4850-a2d0-81ae297d44b9" d="M40.8,58.81H34.65c0-.09.05-.17.08-.25L37.18,53c.07-.17.15-.33.38-.33s.31.14.4.31l2.73,5.52C40.72,58.62,40.75,58.7,40.8,58.81ZM35.88,58H38.1l-1.16-2.36Z"/><path class="a1c28fa3-12fe-4850-a2d0-81ae297d44b9" d="M101.21,59.59h2c.09.59.12,1.16.26,1.71a3.09,3.09,0,0,0,4.7,1.86,2.92,2.92,0,0,0,1.29-2.39,11.53,11.53,0,0,0,0-1.18h.88a4.16,4.16,0,0,1-3,4.8,5.37,5.37,0,0,1-3.86-.29,3.84,3.84,0,0,1-2.27-3.34A11.37,11.37,0,0,1,101.21,59.59Z"/><path class="a1c28fa3-12fe-4850-a2d0-81ae297d44b9" d="M49.5,59.58c1,0,2,0,2.88,0,.09,0,.19.12.24.21a3,3,0,0,1-.74,3.86,4.34,4.34,0,0,1-2.86.9A5.74,5.74,0,0,1,46.39,64a.73.73,0,0,1-.44-.72c0-.8-.06-1.61-.09-2.41,0-.18,0-.35.2-.4s.32.08.39.26a8.83,8.83,0,0,0,1.22,2.21,2.17,2.17,0,0,0,2.22.89,1.35,1.35,0,0,0,1.24-1.41A2.77,2.77,0,0,0,50.05,60C49.89,59.87,49.72,59.75,49.5,59.58Z"/><path class="a1c28fa3-12fe-4850-a2d0-81ae297d44b9" d="M28.68,58.81H26.6V58.5c0-1.26,0-2.52,0-3.78,0-.22,0-.43,0-.64-.05-.44-.2-.59-.65-.62a2.49,2.49,0,0,1-.49,0,.45.45,0,0,1-.25-.29c0-.16.09-.26.27-.26h4.27c.19,0,.33,0,.34.26s-.07.3-.27.3-.31,0-.46,0c-.44,0-.6.21-.63.65a5.62,5.62,0,0,0,0,.58v4.12Z"/><path class="a1c28fa3-12fe-4850-a2d0-81ae297d44b9" d="M103.23,58.8h-2V54.7a2.81,2.81,0,0,0,0-.29c0-.82-.11-.93-.94-1-.09,0-.22,0-.28,0a.43.43,0,0,1-.16-.29c0-.08.12-.17.21-.23s.11,0,.17,0h4.07c.2,0,.38,0,.39.26s-.16.3-.37.31c-.94.06-1,.15-1,1.1V58.8Z"/><path class="a1c28fa3-12fe-4850-a2d0-81ae297d44b9" d="M38.89,59.58c.75,0,1.46,0,2.17,0,.08,0,.19.11.23.19.39.77.76,1.55,1.16,2.31a10.51,10.51,0,0,0,.75,1.2,1,1,0,0,0,.82.5.26.26,0,0,1,.27.31c0,.18-.14.26-.33.25-.52,0-1-.06-1.56-.06-.81,0-1.61,0-2.42.06-.2,0-.36,0-.36-.26s.15-.3.36-.31c.75,0,.85-.18.54-.87-.45-1-.94-1.93-1.41-2.89Z"/><path class="a1c28fa3-12fe-4850-a2d0-81ae297d44b9" d="M78.7,59.58c.71,0,1.37,0,2,0a.45.45,0,0,1,.31.2c.63.81,1.22,1.65,1.88,2.44a8,8,0,0,0,1.16,1.09,1.94,1.94,0,0,0,1.2.46c.2,0,.32.1.31.3s-.14.27-.34.27c-.9,0-1.8,0-2.71,0a1,1,0,0,1-.63-.3A8.23,8.23,0,0,1,81,63c-.74-1.06-1.44-2.14-2.16-3.21A1,1,0,0,1,78.7,59.58Z"/><path class="a1c28fa3-12fe-4850-a2d0-81ae297d44b9" d="M17.44,59.58c.67,0,1.34,0,2,0a.46.46,0,0,1,.28.19c.69.88,1.36,1.79,2.07,2.66a5.57,5.57,0,0,0,.87.81,2.18,2.18,0,0,0,1.33.53.26.26,0,0,1,.28.3c0,.19-.1.27-.29.27-.93,0-1.85,0-2.77,0a.89.89,0,0,1-.51-.23,5.69,5.69,0,0,1-.86-.91C19,62,18.2,60.84,17.37,59.66Z"/><path class="a1c28fa3-12fe-4850-a2d0-81ae297d44b9" d="M4.19,59.59H6.27v.32c0,1,0,2,0,3.05,0,.62.15.76.77.81h.52c.19,0,.29.1.29.29s-.1.28-.29.28H2.85c-.19,0-.28-.08-.29-.28a.26.26,0,0,1,.28-.29q.39,0,.78-.06a.55.55,0,0,0,.52-.53c0-.21.05-.43.05-.64Z"/><path class="a1c28fa3-12fe-4850-a2d0-81ae297d44b9" d="M114.5,59.58h2v.34c0,1,0,2.08,0,3.11,0,.46.19.62.63.69s.58.05.87.06.35,0,.35.28-.12.29-.34.29h-4.65c-.2,0-.34,0-.34-.28s.15-.29.35-.29h0c.93,0,1-.12,1-1.06V59.58Z"/><path class="a1c28fa3-12fe-4850-a2d0-81ae297d44b9" d="M26.6,59.59h2.08v.34c0,1,0,2.08,0,3.12,0,.56.16.69.71.72h.35c.21,0,.3.11.3.31s-.12.26-.31.26H25.5c-.19,0-.32-.06-.33-.27s.13-.3.34-.3a5.65,5.65,0,0,0,.58,0,.5.5,0,0,0,.47-.51c0-.59,0-1.18,0-1.77S26.6,60.22,26.6,59.59Z"/><path class="a1c28fa3-12fe-4850-a2d0-81ae297d44b9" d="M74.84,59.58h2.07v.32c0,1,0,2,0,3.05,0,.67.15.81.83.83H78c.2,0,.32.09.31.29s-.11.28-.31.28H73.73c-.18,0-.29-.06-.3-.26s.1-.3.3-.31l.63-.05a.45.45,0,0,0,.43-.44,3,3,0,0,0,0-.43V59.58Z"/><path class="a1c28fa3-12fe-4850-a2d0-81ae297d44b9" d="M13.55,59.59h2V61.4c0,.6,0,1.2,0,1.8,0,.41.14.5.54.56a4.7,4.7,0,0,0,.53,0,.26.26,0,0,1,.28.29c0,.19-.08.28-.28.28H12.43c-.19,0-.3-.07-.31-.26s.1-.3.3-.31a3.69,3.69,0,0,0,.58,0c.36-.06.5-.19.51-.56,0-.75,0-1.51,0-2.27Z"/><path class="a1c28fa3-12fe-4850-a2d0-81ae297d44b9" d="M110.33,58.8h-.88v-.35c0-1.06,0-2.11,0-3.17a3.21,3.21,0,0,0-.14-1,1.16,1.16,0,0,0-1.11-.87c-.08,0-.18,0-.22,0a.44.44,0,0,1-.15-.3c0-.08.12-.19.21-.21a1.34,1.34,0,0,1,.4,0h3.06c.19,0,.35,0,.36.26s-.12.29-.32.31a1.23,1.23,0,0,0-1.12,1.15,7.36,7.36,0,0,0-.06.81v3.32Z"/><path class="a1c28fa3-12fe-4850-a2d0-81ae297d44b9" d="M44.17,9.76c.45-.07.87-.12,1.27-.2a.55.55,0,0,0,.3-.22c.2-.36.38-.75.59-1.17.21.42.4.79.57,1.16a.37.37,0,0,0,.32.24c.41,0,.82.12,1.26.19-.29.3-.55.59-.84.85a.5.5,0,0,0-.16.54c.08.37.13.75.2,1.19-.41-.22-.78-.4-1.14-.6a.36.36,0,0,0-.42,0c-.36.2-.72.37-1.14.59.07-.4.11-.76.19-1.11a.59.59,0,0,0-.21-.66C44.69,10.33,44.45,10,44.17,9.76Z"/><path class="a1c28fa3-12fe-4850-a2d0-81ae297d44b9" d="M77.75,9.75c-.29.31-.56.61-.85.89a.43.43,0,0,0-.15.46L77,12.34a7.12,7.12,0,0,1-.88-.47.76.76,0,0,0-1,0,9.59,9.59,0,0,1-.86.46c.07-.43.12-.81.2-1.19a.49.49,0,0,0-.16-.54c-.28-.26-.54-.55-.83-.85.43-.07.85-.12,1.27-.2a.45.45,0,0,0,.27-.2c.2-.37.38-.76.6-1.19l.57,1.15a.37.37,0,0,0,.33.25C76.92,9.61,77.33,9.69,77.75,9.75Z"/><path class="a1c28fa3-12fe-4850-a2d0-81ae297d44b9" d="M35.18,59.58c-.33.74-.66,1.44-1,2.15a3,3,0,0,0-.24.86.9.9,0,0,0,.68,1.07,4.11,4.11,0,0,0,.77.12c.19,0,.32.1.31.31s-.14.26-.32.26c-.5,0-1-.06-1.48-.06-.84,0-1.67,0-2.5.06-.21,0-.39,0-.39-.27s.17-.3.38-.3a1.28,1.28,0,0,0,1.14-.68c.33-.56.62-1.14.9-1.72s.48-1,.7-1.57a.31.31,0,0,1,.36-.24C34.73,59.59,34.93,59.58,35.18,59.58Z"/><path class="a1c28fa3-12fe-4850-a2d0-81ae297d44b9" d="M77.69,69.19c.3-.83.58-1.63.87-2.42.17-.48.17-.48.76-.42l.23,3.57h-.47L78.93,67h-.05c-.32.9-.64,1.8-1,2.69a.41.41,0,0,1-.21.22c-.18.06-.25-.06-.3-.22q-.45-1.36-.93-2.76l-.17,3h-.45l.25-3.57.16,0c.33-.07.5.06.6.4.23.78.51,1.56.77,2.34Z"/><path class="a1c28fa3-12fe-4850-a2d0-81ae297d44b9" d="M5,68.11v-.35H18.21v.35Z"/><path class="a1c28fa3-12fe-4850-a2d0-81ae297d44b9" d="M103.72,68.11v-.36H117v.36Z"/><path class="a1c28fa3-12fe-4850-a2d0-81ae297d44b9" d="M93.31,69.94v-3.6h.41v3l.13-.2c.53-.87,1.05-1.74,1.6-2.6.08-.13.32-.15.55-.25v3.68h-.41V67c-.12.2-.2.37-.3.53-.46.75-.94,1.5-1.39,2.25C93.75,70.05,93.53,69.89,93.31,69.94Z"/><path class="a1c28fa3-12fe-4850-a2d0-81ae297d44b9" d="M36.23,69.26l1.62-2.61c.22-.35.22-.35.66-.3v3.57H38.1V67a2.22,2.22,0,0,1-.14.22c-.52.86-1,1.73-1.58,2.57-.08.13-.34.13-.55.2V66.34h.4Z"/><path class="a1c28fa3-12fe-4850-a2d0-81ae297d44b9" d="M74.65,68.09a1.75,1.75,0,0,1-1.17,1.84,1.63,1.63,0,0,1-2.13-1.57,3,3,0,0,1,.08-.84,1.61,1.61,0,0,1,1.83-1.25,1.64,1.64,0,0,1,1.39,1.59Zm-.42.06a5.31,5.31,0,0,0-.37-1,1,1,0,0,0-1.7,0,1.94,1.94,0,0,0,0,2.11,1,1,0,0,0,1.71,0A5.5,5.5,0,0,0,74.23,68.15Z"/><path class="a1c28fa3-12fe-4850-a2d0-81ae297d44b9" d="M32.91,66.26a1.48,1.48,0,0,1,1.45,1,2.14,2.14,0,0,1-.27,2.1,1.54,1.54,0,0,1-1.72.54,1.49,1.49,0,0,1-1.14-1.36,3.36,3.36,0,0,1,.12-1.26A1.51,1.51,0,0,1,32.91,66.26Zm1.17,1.85a5.08,5.08,0,0,0-.38-1,1,1,0,0,0-1.73,0,2,2,0,0,0,0,2,1,1,0,0,0,1.79,0A5.6,5.6,0,0,0,34.08,68.11Z"/><path class="a1c28fa3-12fe-4850-a2d0-81ae297d44b9" d="M81.45,69.93H81V66.35h2.61v3.57h-.46V66.74H81.45Z"/><path class="a1c28fa3-12fe-4850-a2d0-81ae297d44b9" d="M54.41,66.34h.45v1.48H56.6V66.35h.48v3.57h-.46V68.27H54.87v1.65h-.46Z"/><path class="a1c28fa3-12fe-4850-a2d0-81ae297d44b9" d="M97.22,69.91c.3-.57.27-1.29.9-1.69L98,68.14a.88.88,0,0,1-.57-.86.92.92,0,0,1,.62-.87,2.9,2.9,0,0,1,1.49-.06.23.23,0,0,1,.13.18v3.39h-.46v-1.5c-.58-.14-.9,0-1.1.53-.08.2-.14.41-.21.61C97.72,70,97.71,70,97.22,69.91Zm2-2.57h0c0-.21,0-.57-.11-.61a1.4,1.4,0,0,0-.76,0,.54.54,0,0,0-.45.62c0,.39.32.64.83.67s.46,0,.46-.41Z"/><path class="a1c28fa3-12fe-4850-a2d0-81ae297d44b9" d="M64.68,69.93h-.44V68.41c-.64-.12-.91,0-1.12.58-.07.17-.12.35-.18.52-.14.45-.14.45-.67.41.31-.58.29-1.3.92-1.71a.94.94,0,0,1-.72-.77.92.92,0,0,1,.81-1.08,10.86,10.86,0,0,1,1.4,0Zm-.45-1.88v-.79c0-.63-.06-.68-.7-.58a.65.65,0,0,0-.1,1.27A7.57,7.57,0,0,0,64.23,68.05Z"/><path class="a1c28fa3-12fe-4850-a2d0-81ae297d44b9" d="M91.32,68.26H89.57v1.66h-.46V66.34h.44v1.48h1.76V66.35h.45v3.57h-.44Z"/><path class="a1c28fa3-12fe-4850-a2d0-81ae297d44b9" d="M70.49,69.92c-.6,0-.48.06-.66-.38-.09-.22-.15-.44-.25-.66a.87.87,0,0,0-1-.56v1.6h-.47V66.35h.47V68c.13-.12.2-.17.26-.24.29-.36.57-.73.85-1.1s.28-.36.8-.3L69.11,68c.75.12.92.71,1.12,1.29Z"/><path class="a1c28fa3-12fe-4850-a2d0-81ae297d44b9" d="M47.15,66.34h2.1v3.58h-.44V66.74H47.62v.36c0,.65,0,1.32-.12,2a.94.94,0,0,1-1,.9c-.07-.19-.11-.33.15-.45s.42-.59.44-1c0-.62,0-1.24,0-1.86Z"/><path class="a1c28fa3-12fe-4850-a2d0-81ae297d44b9" d="M61.34,69.94h-.48c-.11-.32-.21-.63-.33-.94a.34.34,0,0,0-.24-.17c-.34,0-.75-.13-1,0s-.3.56-.4.87-.33.18-.56.21c.31-.91.61-1.8.92-2.69.08-.25.18-.49.25-.74s.17-.19.31-.17.3-.07.38.15c.37,1.11.75,2.22,1.13,3.33A1.23,1.23,0,0,1,61.34,69.94Zm-1-1.52-.54-1.62-.53,1.62Z"/><path class="a1c28fa3-12fe-4850-a2d0-81ae297d44b9" d="M84.83,69.91c.4-1.16.79-2.3,1.19-3.43a.28.28,0,0,1,.25-.14c.13,0,.35,0,.38.11.42,1.15.8,2.3,1.21,3.48h-.51c-.1-.29-.21-.58-.29-.88s-.16-.28-.35-.24h0c-.32,0-.72-.1-.94,0s-.25.56-.35.86S85.3,70,84.83,69.91Zm2-1.49-.53-1.62-.53,1.62Z"/><path class="a1c28fa3-12fe-4850-a2d0-81ae297d44b9" d="M45.35,66.34v.38H43.91v1.13h1.36v.4H43.9v1.28h1.53l0,.39h-2V66.34Z"/><path class="a1c28fa3-12fe-4850-a2d0-81ae297d44b9" d="M50.8,69.93V66.34h.44v1.33c.26,0,.49,0,.72,0a1.13,1.13,0,0,1,.1,2.25A8.81,8.81,0,0,1,50.8,69.93Zm.48-1.88v1.54c.47,0,.93.06,1.22-.39a.76.76,0,0,0,0-.84A1.21,1.21,0,0,0,51.28,68.05Z"/><path class="a1c28fa3-12fe-4850-a2d0-81ae297d44b9" d="M28.35,68.61v1.31H27.9V66.34a12.49,12.49,0,0,1,1.37,0,.94.94,0,0,1,.83.78,1,1,0,0,1-.53,1.18A6.6,6.6,0,0,1,28.35,68.61Zm0-1.19v.26c0,.48,0,.48.48.46h0a.74.74,0,0,0,.78-.79c0-.42-.3-.67-.81-.68s-.48,0-.48.46Z"/><path class="a1c28fa3-12fe-4850-a2d0-81ae297d44b9" d="M23,69.48l.08.33a2,2,0,0,1-2.34-.4,2.14,2.14,0,0,1,0-2.45,2,2,0,0,1,2.38-.53l-.12.35c-.72-.19-1.42-.25-1.88.45A1.56,1.56,0,0,0,21,69C21.49,69.75,22.22,69.66,23,69.48Z"/><path class="a1c28fa3-12fe-4850-a2d0-81ae297d44b9" d="M39.64,66.74v-.4H42.3v.37H41.23v3.21h-.51V66.74Z"/><path class="a1c28fa3-12fe-4850-a2d0-81ae297d44b9" d="M26.76,66.72H25.69v3.2h-.48V66.74H24.12v-.39h2.64Z"/><path class="a1c28fa3-12fe-4850-a2d0-81ae297d44b9" d="M61,45.36A17.12,17.12,0,1,1,78.07,28.21,17.11,17.11,0,0,1,61,45.36Zm3.69-12.68a3,3,0,0,1-.84,1.7,4,4,0,0,1-5.12.3,5.06,5.06,0,0,1-2-3.86A6.77,6.77,0,0,1,58,26.56a1,1,0,0,0,.16-.53c0-1.08,0-2.17,0-3.26v-.32l-.24,0a7.76,7.76,0,0,0-3.37,1.93,8.3,8.3,0,0,0-2.34,7.79,8,8,0,0,0,8.39,6.53,7.7,7.7,0,0,0,5-2.36L66,38.25h2.71V29.6h-5v3.08ZM53.59,16.92v3.17h4.94V32.73H63V20.07H68V16.92ZM68.65,27.15c-.26-2.06-3.09-4.61-5.19-4.67v.32c0,.92,0,1.84,0,2.76a1,1,0,0,0,.35.89,3,3,0,0,1,.43.51.44.44,0,0,0,.44.21c1.22,0,2.44,0,3.66,0Z"/></g></g></svg>