<svg xmlns="http://www.w3.org/2000/svg" xmlns:xlink="http://www.w3.org/1999/xlink" viewBox="0 0 146.31 30.39"><defs><style>.b9be08e4-3248-4457-b1d4-3194f7f0b337{fill:#4b4b4b;}.bfe53cbf-e3f7-4338-9fc0-a1c348d91b35{fill:url(#b68046f7-4ab8-43e2-b7a1-62688fda992a);}.a65dfccc-f6d0-4094-be42-7e5a3a0f5d8a{fill:url(#ec9ae538-e796-4537-9c87-9d4c25ed0011);}.acfe1236-bed9-4a7d-b2da-858529600651{fill:url(#f5bf6b24-5b7d-4cc7-a16d-78bfd863f99e);}.aeb1614c-8f82-4229-b3b4-4771618315d8{fill:url(#ae2688e6-eaef-4efc-bd29-112273a7c056);}.a6be2c46-5434-4377-a859-a00015f5a724{fill:url(#aede7403-47a6-4817-8502-f371d3f5af2a);}.ae1b8864-14f3-4f42-834f-1cba49dcd1f4{fill:url(#b415f647-a644-4f30-9278-f03f2187728d);}.bf43c829-c0e1-497d-b145-37bba43816ce{fill:url(#b2ed40ac-df16-4feb-8b73-1eece69f39be);}.a4f0a1cc-0bcf-4275-8176-6f6a8af0320a{fill:url(#f0d14a6a-5592-4173-82b8-c19851720abc);}.f0809fde-d68a-46d3-a2e2-ee55911949a5{fill:url(#bc877b7c-e391-4609-94df-872081454beb);}</style><linearGradient id="b68046f7-4ab8-43e2-b7a1-62688fda992a" x1="-1.65" y1="30.95" x2="1.88" y2="22.19" gradientUnits="userSpaceOnUse"><stop offset="0" stop-color="#cc302e"/><stop offset="1" stop-color="#842023"/></linearGradient><linearGradient id="ec9ae538-e796-4537-9c87-9d4c25ed0011" x1="7.42" y1="24.93" x2="8.77" y2="20.27" xlink:href="#b68046f7-4ab8-43e2-b7a1-62688fda992a"/><linearGradient id="f5bf6b24-5b7d-4cc7-a16d-78bfd863f99e" x1="1.69" y1="27.37" x2="13.07" y2="22.73" xlink:href="#b68046f7-4ab8-43e2-b7a1-62688fda992a"/><linearGradient id="ae2688e6-eaef-4efc-bd29-112273a7c056" x1="27.43" y1="15.66" x2="18.07" y2="17.72" xlink:href="#b68046f7-4ab8-43e2-b7a1-62688fda992a"/><linearGradient id="aede7403-47a6-4817-8502-f371d3f5af2a" x1="1137.4" y1="-1192.34" x2="1138.75" y2="-1197" gradientTransform="translate(1619.18 400.35) rotate(-120)" xlink:href="#b68046f7-4ab8-43e2-b7a1-62688fda992a"/><linearGradient id="b415f647-a644-4f30-9278-f03f2187728d" x1="22.61" y1="15.06" x2="14.12" y2="8.63" xlink:href="#b68046f7-4ab8-43e2-b7a1-62688fda992a"/><linearGradient id="b2ed40ac-df16-4feb-8b73-1eece69f39be" x1="-0.33" y1="-0.78" x2="6.18" y2="5.74" xlink:href="#b68046f7-4ab8-43e2-b7a1-62688fda992a"/><linearGradient id="f0d14a6a-5592-4173-82b8-c19851720abc" x1="1.33" y1="9.54" x2="5.28" y2="13.58" xlink:href="#b68046f7-4ab8-43e2-b7a1-62688fda992a"/><linearGradient id="bc877b7c-e391-4609-94df-872081454beb" x1="1.78" y1="2.92" x2="0.31" y2="14.57" xlink:href="#b68046f7-4ab8-43e2-b7a1-62688fda992a"/></defs><title>69</title><g id="a5e2d18e-72d6-4fc2-b34f-31830f5857e5" data-name="Слой 2"><g id="e00453be-6eb0-4d8a-b7da-618d363dcbd7" data-name="Слой 1"><path class="b9be08e4-3248-4457-b1d4-3194f7f0b337" d="M44.88,18.87H42.79L42,16.71h-3.8l-.78,2.16h-2l3.7-9.5h2Zm-3.53-3.76L40,11.58l-1.29,3.53Z"/><path class="b9be08e4-3248-4457-b1d4-3194f7f0b337" d="M45.9,9.37h3.8a11.44,11.44,0,0,1,1.68.09,2.39,2.39,0,0,1,1,.39,2.56,2.56,0,0,1,.73.8A2.26,2.26,0,0,1,53,13a2.27,2.27,0,0,1-1,.84,2.5,2.5,0,0,1,1.33.86,2.3,2.3,0,0,1,.47,1.43,2.84,2.84,0,0,1-.3,1.26,2.58,2.58,0,0,1-.83,1,2.54,2.54,0,0,1-1.28.45c-.32,0-1.09.06-2.32.07H45.9ZM47.82,11v2.19h1.26c.74,0,1.21,0,1.39,0a1.25,1.25,0,0,0,.77-.34,1,1,0,0,0,.28-.74,1,1,0,0,0-.24-.71,1.07,1.07,0,0,0-.72-.34c-.19,0-.74,0-1.64,0Zm0,3.78v2.54h1.77a8.56,8.56,0,0,0,1.32-.06,1.26,1.26,0,0,0,.76-1.91,1.18,1.18,0,0,0-.6-.44,6.64,6.64,0,0,0-1.7-.13Z"/><path class="b9be08e4-3248-4457-b1d4-3194f7f0b337" d="M63.38,18.87H61.3l-.83-2.16h-3.8l-.78,2.16h-2l3.7-9.5h2Zm-3.53-3.76-1.31-3.53-1.28,3.53Z"/><path class="b9be08e4-3248-4457-b1d4-3194f7f0b337" d="M64.41,18.87V9.37h1.91v3.74h3.76V9.37H72v9.5H70.08V14.71H66.32v4.16Z"/><path class="b9be08e4-3248-4457-b1d4-3194f7f0b337" d="M76.12,18.87V11H73.3V9.37h7.55V11H78v7.9Z"/><path class="b9be08e4-3248-4457-b1d4-3194f7f0b337" d="M82.09,18.87V9.37h3.07a11.56,11.56,0,0,1,2.28.14,2.46,2.46,0,0,1,1.37.93,2.93,2.93,0,0,1,.55,1.85A3,3,0,0,1,89,13.76a2.65,2.65,0,0,1-.8.94,3.06,3.06,0,0,1-1,.45,11.06,11.06,0,0,1-2,.13H84v3.59ZM84,11v2.7h1a5,5,0,0,0,1.52-.15,1.27,1.27,0,0,0,.6-.47,1.28,1.28,0,0,0,.22-.73,1.26,1.26,0,0,0-.31-.86,1.36,1.36,0,0,0-.77-.42A9.46,9.46,0,0,0,84.93,11Z"/><path class="b9be08e4-3248-4457-b1d4-3194f7f0b337" d="M90.94,18.87V9.37h7V11H92.85v2.11h4.77v1.6H92.85v2.59h5.31v1.6Z"/><path class="b9be08e4-3248-4457-b1d4-3194f7f0b337" d="M99.81,9.37h1.8v6.32l3.85-6.32h1.91v9.5h-1.8v-6.2l-3.84,6.2H99.81ZM104.74,7h.88A2.07,2.07,0,0,1,105,8.39a2.22,2.22,0,0,1-2.81,0A2.07,2.07,0,0,1,101.58,7h.89a1,1,0,0,0,.32.7,1.22,1.22,0,0,0,.81.24,1.19,1.19,0,0,0,.81-.24A1,1,0,0,0,104.74,7Z"/><path class="b9be08e4-3248-4457-b1d4-3194f7f0b337" d="M110.09,9.37h6.56v7.9h.84v3.67h-1.6V18.87h-6v2.07h-1.59V17.27h.8a8.45,8.45,0,0,0,.78-2.83,35,35,0,0,0,.19-4.07ZM111.92,11a18.51,18.51,0,0,1-.79,6.31h3.61V11Z"/><path class="b9be08e4-3248-4457-b1d4-3194f7f0b337" d="M117.81,18.87l3.25-5-2.94-4.54h2.24l1.9,3.05,1.87-3.05h2.22L123.4,14l3.24,4.89h-2.31l-2.11-3.29-2.11,3.29Z"/><path class="b9be08e4-3248-4457-b1d4-3194f7f0b337" d="M127.65,9.37h1.8v6.32l3.85-6.32h1.91v9.5h-1.8v-6.2l-3.84,6.2h-1.92Z"/><path class="b9be08e4-3248-4457-b1d4-3194f7f0b337" d="M137.14,18.87V9.37H140l1.72,6.48,1.71-6.48h2.87v9.5h-1.78V11.39l-1.88,7.48H140.8l-1.88-7.48v7.48Z"/><polygon class="bfe53cbf-e3f7-4338-9fc0-a1c348d91b35" points="0 30.39 3.72 24.2 0 20.26 0 30.39"/><polygon class="a65dfccc-f6d0-4094-be42-7e5a3a0f5d8a" points="0 20.26 3.72 24.2 17.55 20.26 0 20.26"/><polygon class="acfe1236-bed9-4a7d-b2da-858529600651" points="0 30.39 3.72 24.2 17.55 20.26 0 30.39"/><polygon class="aeb1614c-8f82-4229-b3b4-4771618315d8" points="26.32 15.2 19.1 15.07 17.55 20.26 26.32 15.2"/><polygon class="a6be2c46-5434-4377-a859-a00015f5a724" points="17.55 20.26 19.1 15.07 8.78 5.07 17.55 20.26"/><polygon class="ae1b8864-14f3-4f42-834f-1cba49dcd1f4" points="26.32 15.2 19.1 15.07 8.78 5.07 26.32 15.2"/><polygon class="bf43c829-c0e1-497d-b145-37bba43816ce" points="0 0 3.5 6.32 8.78 5.07 0 0"/><polygon class="a4f0a1cc-0bcf-4275-8176-6f6a8af0320a" points="8.78 5.07 3.5 6.32 0 20.26 8.78 5.07"/><polygon class="f0809fde-d68a-46d3-a2e2-ee55911949a5" points="0 0 3.5 6.32 0 20.26 0 0"/></g></g></svg>