<svg xmlns="http://www.w3.org/2000/svg" viewBox="0 0 124.45 35.91"><defs><style>.a2411bea-ed0f-420c-af51-04d63685180e{fill:#f40000;}.a96f4952-c553-420b-8ebe-1222c4be0a4e{fill:#6b6966;}</style></defs><title>Ресурс 9</title><g id="a3170501-85b4-4e0b-b79e-e7b4f7e034be" data-name="Слой 2"><g id="e8db9c5f-e043-4a49-a194-711dbe2e8081" data-name="Слой 1"><polygon class="a2411bea-ed0f-420c-af51-04d63685180e" points="7.37 19.44 7.37 16.46 3.94 16.46 3.94 3.64 8.33 3.64 8.33 0.3 0 0.3 0 35.6 3.94 35.6 3.94 19.44 7.37 19.44"/><path class="a2411bea-ed0f-420c-af51-04d63685180e" d="M11.92.3a4.79,4.79,0,0,0-1.54.91A4.29,4.29,0,0,0,9.29,2.78a6,6,0,0,0-.4,2.32V30.81a6,6,0,0,0,.4,2.32,4.17,4.17,0,0,0,1.09,1.56,4.46,4.46,0,0,0,1.54.91,4.92,4.92,0,0,0,1.72.31h.9a4.92,4.92,0,0,0,1.72-.31,4.46,4.46,0,0,0,1.54-.91,4.17,4.17,0,0,0,1.09-1.56,6,6,0,0,0,.4-2.32V5.1a6,6,0,0,0-.4-2.32A4.29,4.29,0,0,0,17.8,1.21,4.79,4.79,0,0,0,16.26.3,5.15,5.15,0,0,0,14.54,0h-.9A5.15,5.15,0,0,0,11.92.3ZM15.05,32a.93.93,0,0,1-.86.53H14a.93.93,0,0,1-.86-.53,4,4,0,0,1-.3-1.84V19.45h2.52V30.2A4,4,0,0,1,15.05,32ZM14.19,3.33c.77,0,1.16.79,1.16,2.38V16.45H12.83V5.71c0-1.59.38-2.38,1.16-2.38Z"/><path class="a2411bea-ed0f-420c-af51-04d63685180e" d="M26.86,21.72v7.57c0,1.82,0,3.22.13,4.22a5.4,5.4,0,0,0,.47,2.09h3.95a2.47,2.47,0,0,1-.16-.45c-.06-.24-.13-.6-.2-1.09s-.12-1.12-.17-1.89-.08-1.73-.08-2.88V21.36a4.59,4.59,0,0,0-.5-2.4,2.11,2.11,0,0,0-1.25-1,2.35,2.35,0,0,0,1.25-1,4.57,4.57,0,0,0,.5-2.4V5.35a4.9,4.9,0,0,0-1.38-3.73A4.67,4.67,0,0,0,26.08.3H20.4V35.6h3.94V19.44h1.51C26.52,19.44,26.86,20.2,26.86,21.72Zm-2.52-5.21V3.64H25.7c.77,0,1.16.77,1.16,2.32v8.33c0,1.48-.34,2.22-1,2.22Z"/><polygon class="a2411bea-ed0f-420c-af51-04d63685180e" points="49.16 35.6 52.34 0.3 48.9 0.3 46.83 24.75 46.68 24.75 44.61 0.3 40.82 0.3 44.11 35.6 49.16 35.6"/><polygon class="a2411bea-ed0f-420c-af51-04d63685180e" points="36.18 19.44 39.61 19.44 39.61 16.46 36.18 16.46 36.18 3.64 40.46 3.64 40.15 0.3 32.24 0.3 32.24 35.6 40.88 35.6 40.88 32.27 36.18 32.27 36.18 19.44"/><path class="a2411bea-ed0f-420c-af51-04d63685180e" d="M54.28,1.21a4.41,4.41,0,0,0-1.09,1.57,6,6,0,0,0-.4,2.32V30.81a6,6,0,0,0,.4,2.32,4.28,4.28,0,0,0,1.09,1.56,4.55,4.55,0,0,0,1.54.91,4.92,4.92,0,0,0,1.72.31h.91a4.91,4.91,0,0,0,1.71-.31,4.37,4.37,0,0,0,1.54-.91,4.17,4.17,0,0,0,1.09-1.56,6,6,0,0,0,.4-2.32V5.1a6,6,0,0,0-.4-2.32A4.29,4.29,0,0,0,61.7,1.21,4.69,4.69,0,0,0,60.16.3,5.14,5.14,0,0,0,58.45,0h-.91a5.15,5.15,0,0,0-1.72.3A4.9,4.9,0,0,0,54.28,1.21ZM59,32a.93.93,0,0,1-.86.53h-.2A.93.93,0,0,1,57,32a4,4,0,0,1-.3-1.84V19.45h2.52V30.2A4,4,0,0,1,59,32ZM58.09,3.33c.78,0,1.16.79,1.16,2.38V16.45H56.73V5.71c0-1.59.39-2.38,1.16-2.38Z"/><polygon class="a2411bea-ed0f-420c-af51-04d63685180e" points="68.43 32.62 68.43 0.3 64.49 0.3 64.49 35.6 72.62 35.6 72.62 32.62 68.43 32.62"/><path class="a2411bea-ed0f-420c-af51-04d63685180e" d="M82,34.69a4.26,4.26,0,0,0,1.08-1.56,6,6,0,0,0,.4-2.32V.3H79.53V30.2a4,4,0,0,1-.3,1.84.89.89,0,0,1-.81.53h-.25a.93.93,0,0,1-.86-.53A4,4,0,0,1,77,30.2V.3H73.07V30.81a5.79,5.79,0,0,0,.42,2.32,4.92,4.92,0,0,0,1.11,1.59,4.13,4.13,0,0,0,1.53.91,5.67,5.67,0,0,0,1.71.28h.86a5,5,0,0,0,1.75-.31A4.55,4.55,0,0,0,82,34.69Z"/><polygon class="a2411bea-ed0f-420c-af51-04d63685180e" points="84.16 0.3 84.16 3.64 87.6 3.64 87.6 16.45 86.02 16.45 86.02 19.45 87.6 19.45 87.6 35.6 91.54 35.6 91.54 19.45 93.07 19.45 93.07 16.45 91.54 16.45 91.54 3.64 94.92 3.64 94.92 0.3 84.16 0.3"/><rect class="a2411bea-ed0f-420c-af51-04d63685180e" x="95.61" y="0.3" width="3.94" height="35.3"/><path class="a2411bea-ed0f-420c-af51-04d63685180e" d="M102.31,1.21a4.39,4.39,0,0,0-1.08,1.57,5.94,5.94,0,0,0-.41,2.32V30.81a6,6,0,0,0,.41,2.32,4.26,4.26,0,0,0,1.08,1.56,4.55,4.55,0,0,0,1.54.91,5,5,0,0,0,1.72.31h.91a5,5,0,0,0,1.72-.31,4.55,4.55,0,0,0,1.54-.91,4.26,4.26,0,0,0,1.08-1.56,6,6,0,0,0,.41-2.32V5.1a5.94,5.94,0,0,0-.41-2.32,4.39,4.39,0,0,0-1.08-1.57A4.9,4.9,0,0,0,108.2.3a5.24,5.24,0,0,0-1.72-.3h-.91a5.24,5.24,0,0,0-1.72.3A4.9,4.9,0,0,0,102.31,1.21ZM107,32a.94.94,0,0,1-.86.53h-.2a.92.92,0,0,1-.86-.53,3.84,3.84,0,0,1-.31-1.84V19.45h2.53V30.2A4,4,0,0,1,107,32Zm-.86-28.71c.77,0,1.16.79,1.16,2.38V16.45h-2.53V5.71c0-1.59.39-2.38,1.17-2.38Z"/><polygon class="a2411bea-ed0f-420c-af51-04d63685180e" points="115.76 35.6 115.76 12.52 115.86 12.52 120.06 35.6 124.45 35.6 124.45 0.3 120.86 0.3 120.86 22.93 116.92 0.3 112.48 0.3 112.48 35.6 115.76 35.6"/><path class="a96f4952-c553-420b-8ebe-1222c4be0a4e" d="M31.11,12.75c2.08,0,4,1.05,4,3.48v3.5c0,2.4-2,3.44-4,3.43h-3.9V12.75Zm.08,7.94c.9,0,1.31-.46,1.31-1.13V16.31c0-.68-.42-1.11-1.31-1.11H29.86v5.49Zm14.57,2.47H42.93l-.67-2.09H39.48l-.65,2.09H36l3.63-10.41H42Zm-4.13-4.43-.73-3h-.07l-.76,3Zm8.68,1.12h-.47v3.31H47.18V12.75h4.16c2.15,0,3.81,1,3.87,3.42,0,1.93-.78,3-2.05,3.41L56,23.16H52.72Zm1.07-2.27a1.19,1.19,0,1,0,0-2.38H49.84v2.38Zm11.51-4.83h3.28l-4.12,5,4.1,5.38H62.82l-2.67-3.72-.08.12v3.6H57.42V12.75h2.65V16.6Zm5.5,7.11c1,1.27,3.34,1.33,3.41.21,0-.59-.92-.93-1.78-1-1.67-.27-3.2-1.33-3.2-3.31s1.85-3.12,3.76-3.12a4.26,4.26,0,0,1,3.56,1.66l-1.72,1.32c-1.09-1.16-3-1.11-3,.09,0,.5.57.8,1.38,1,1.86.34,3.71,1,3.59,3.55-.09,2-2.2,3.12-4.12,3.12a4.56,4.56,0,0,1-3.54-1.89Zm10.25,3.3H76V12.75h2.63Zm5.91-10.41c2.08,0,4,1.05,4,3.48v3.5c0,2.4-2,3.44-4,3.43h-3.9V12.75Zm.08,7.94c.9,0,1.31-.46,1.31-1.13V16.31c0-.68-.42-1.11-1.31-1.11H83.3v5.49Zm8.45-3.86H97.3v2.28H93.08v1.56h4.59v2.49H90.42V12.75h7.25v2.47H93.08Z"/></g></g></svg>