<svg xmlns="http://www.w3.org/2000/svg" viewBox="0 0 125.86 37.05"><defs><style>.ee77385a-0f94-4e51-84aa-e1e88dc6bd74{fill:#395a96;}</style></defs><title>70</title><g id="b97a963d-9c7c-4ff4-97ce-d269a778eb4d" data-name="Слой 2"><g id="bcd22f4c-04be-412f-95b0-d598e0eb5fe9" data-name="Слой 1"><path class="ee77385a-0f94-4e51-84aa-e1e88dc6bd74" d="M21.21,36.88V0l.16.09,9.08,5.84a.32.32,0,0,1,.17.31v30.4c0,.24,0,.24-.24.24H21.21Z"/><path class="ee77385a-0f94-4e51-84aa-e1e88dc6bd74" d="M13.15,10.58V5.12h.67V37H8.39L8.34,7.48Z"/><path class="ee77385a-0f94-4e51-84aa-e1e88dc6bd74" d="M49.93,31.06H48.09a.2.2,0,0,1-.23-.17l-2.34-7.28c-.06-.18-.14-.24-.32-.23-.48,0-1,0-1.45,0-.18,0-.22.05-.22.22q0,3.6,0,7.19c0,.29,0,.27-.27.27H41.78c-.17,0-.21,0-.21-.22V13.77c0-.06,0-.13,0-.21h3.94a4.5,4.5,0,0,1,1.84.35,3.29,3.29,0,0,1,1.86,2.22,8,8,0,0,1,.28,3,10.67,10.67,0,0,1-.28,1.58,3.18,3.18,0,0,1-1.76,2.14l-.19.09C48.16,25.67,49,28.35,49.93,31.06ZM43.54,18.47v2.9c0,.17,0,.21.21.21h1.6a2,2,0,0,0,2.1-1.72,6.89,6.89,0,0,0,0-2.52,2.09,2.09,0,0,0-2.28-1.94H43.75c-.21,0-.21,0-.21.23Z"/><path class="ee77385a-0f94-4e51-84aa-e1e88dc6bd74" d="M94.81,31.06H93a.23.23,0,0,1-.26-.19q-1-3-1.93-6c-.15-.45-.3-.91-.44-1.36a.16.16,0,0,0-.19-.14H88.69c-.28,0-.28,0-.28.26V30c0,.27,0,.54,0,.82s0,.2-.2.2H86.65c-.16,0-.2,0-.2-.2V13.56h4a4.69,4.69,0,0,1,1.81.34,3.29,3.29,0,0,1,1.86,2.19,8,8,0,0,1,.29,3.07,10.67,10.67,0,0,1-.28,1.58,3.19,3.19,0,0,1-1.77,2.15l-.18.09C93,25.67,93.91,28.35,94.81,31.06Zm-6.4-12.59c0,1,0,2,0,2.92,0,.13,0,.19.18.19h1.64a2,2,0,0,0,2.09-1.72,6.78,6.78,0,0,0,0-2.54,2.09,2.09,0,0,0-2.25-1.92H88.65c-.24,0-.24,0-.24.23Z"/><path class="ee77385a-0f94-4e51-84aa-e1e88dc6bd74" d="M96.74,22.58c0-1.61,0-3.22,0-4.83a5.6,5.6,0,0,1,.54-2.44,3.2,3.2,0,0,1,2.64-1.84,6.44,6.44,0,0,1,2.19.07,3,3,0,0,1,2.45,2.54,10.21,10.21,0,0,1,.18,1.91q0,4.47,0,8.93a5.62,5.62,0,0,1-.57,2.51,2.93,2.93,0,0,1-2,1.64,5.93,5.93,0,0,1-2.87,0A3.08,3.08,0,0,1,97,28.87a5.54,5.54,0,0,1-.28-1.76V22.58Zm6-.32h0V18.37c0-.42,0-.84-.06-1.25A1.85,1.85,0,0,0,101,15.24a1.73,1.73,0,0,0-1.89,1,2.53,2.53,0,0,0-.18.42,5.31,5.31,0,0,0-.22,1.86v8.42a6.54,6.54,0,0,0,.08.88,2,2,0,0,0,3.8.29,3.32,3.32,0,0,0,.19-1.08C102.78,25.42,102.77,23.84,102.77,22.26Z"/><path class="ee77385a-0f94-4e51-84aa-e1e88dc6bd74" d="M113.28,13.6h2a.81.81,0,0,1,0,.15c0,4.36,0,8.72,0,13.08a6,6,0,0,1-.57,2.62,3,3,0,0,1-2.3,1.69,5.87,5.87,0,0,1-2.91-.17,3.12,3.12,0,0,1-2-2.19,5.71,5.71,0,0,1-.26-1.83q0-6.59,0-13.18s0-.1,0-.16h2c0,.08,0,.16,0,.24q0,6.49,0,13a4.39,4.39,0,0,0,.15,1.2,1.84,1.84,0,0,0,2.19,1.36,1.86,1.86,0,0,0,1.63-1.65,6.81,6.81,0,0,0,.11-1.27q0-6.32,0-12.63Z"/><path class="ee77385a-0f94-4e51-84aa-e1e88dc6bd74" d="M83.76,17.27l-1.93.46a8.8,8.8,0,0,0-.14-1,3,3,0,0,0-.28-.72,1.37,1.37,0,0,0-1.12-.71,2.63,2.63,0,0,0-.84,0,1.57,1.57,0,0,0-1.14.89,3.34,3.34,0,0,0-.37,1.58c0,1.11,0,2.22,0,3.34,0,2,0,4.07,0,6.1a2.62,2.62,0,0,0,.34,1.34,1.8,1.8,0,0,0,1.93.88c.15,0,.3-.05.45-.09a1.7,1.7,0,0,0,1.28-1.66c0-1.41,0-2.82,0-4.23a.39.39,0,0,0,0-.09h-2V21.63h4a.5.5,0,0,1,0,.12c0,1.95,0,3.89,0,5.83a3.63,3.63,0,0,1-3.28,3.61,5.66,5.66,0,0,1-2.13-.12,3.16,3.16,0,0,1-2.34-2.48A5.48,5.48,0,0,1,76,27.25c0-3.12,0-6.24,0-9.36a6,6,0,0,1,.55-2.6,3.22,3.22,0,0,1,2.67-1.83,5.89,5.89,0,0,1,2,.1,2.87,2.87,0,0,1,2.1,1.72A5.33,5.33,0,0,1,83.76,17.27Z"/><path class="ee77385a-0f94-4e51-84aa-e1e88dc6bd74" d="M119.83,24.05v7h-1.76c-.16,0-.21,0-.21-.21,0-1.63,0-3.26,0-4.89V13.57h3.71a5.78,5.78,0,0,1,1.75.24,3.24,3.24,0,0,1,2.29,2.61,11.14,11.14,0,0,1,0,4.67,3.51,3.51,0,0,1-3.09,2.83,18.26,18.26,0,0,1-2.45.1h-.19Zm0-8.64v6.82c.73,0,1.45,0,2.16-.12a2,2,0,0,0,1.78-1.7,7.84,7.84,0,0,0,0-3.2,2,2,0,0,0-1.94-1.78c-.64-.07-1.3,0-2,0Z"/><path class="ee77385a-0f94-4e51-84aa-e1e88dc6bd74" d="M67,17.73a9.34,9.34,0,0,0-.19-1.1,1.65,1.65,0,0,0-1.64-1.33,2.89,2.89,0,0,0-.72,0A1.74,1.74,0,0,0,63,16.67a5.08,5.08,0,0,0-.09,2.39,1.76,1.76,0,0,0,.61,1,5.91,5.91,0,0,0,1.66,1c.62.28,1.25.54,1.84.87a3.38,3.38,0,0,1,1.78,2.36,8,8,0,0,1,.14,1.21,8.74,8.74,0,0,1-.29,3.22,3.38,3.38,0,0,1-3,2.5A5.62,5.62,0,0,1,63.2,31a3.31,3.31,0,0,1-2.4-2.77c0-.27-.06-.55-.1-.83,0-.11,0-.16.14-.18l1.81-.37c0,.26,0,.52.09.77a1.94,1.94,0,0,0,2.34,1.7,2.58,2.58,0,0,0,.87-.21,1.6,1.6,0,0,0,.92-1.35,9.39,9.39,0,0,0,0-2.8,1.87,1.87,0,0,0-1-1.38A13.21,13.21,0,0,0,64.67,23a10.8,10.8,0,0,1-2.36-1.34,3.87,3.87,0,0,1-1.46-2.9,7.26,7.26,0,0,1,.25-2.63,3.6,3.6,0,0,1,3.2-2.64,5,5,0,0,1,2,.12,3.35,3.35,0,0,1,2.53,2.85c0,.23,0,.47.07.7a.2.2,0,0,1-.08.13C68.23,17.43,67.61,17.58,67,17.73Z"/><path class="ee77385a-0f94-4e51-84aa-e1e88dc6bd74" d="M52,13.57h7.47V14c0,.38,0,.77,0,1.16,0,.15,0,.19-.19.19H54v5.89h4.77v1.59c0,.22,0,.22-.23.22H54v6.16h5.49V31H52Z"/><path class="ee77385a-0f94-4e51-84aa-e1e88dc6bd74" d="M36.83,13.57h1.94V31H36.83Z"/><path class="ee77385a-0f94-4e51-84aa-e1e88dc6bd74" d="M20.18,37h-.71V.85h.71Z"/><path class="ee77385a-0f94-4e51-84aa-e1e88dc6bd74" d="M18.58,37h-.67V2.18h.67Z"/><path class="ee77385a-0f94-4e51-84aa-e1e88dc6bd74" d="M15.42,37h-.67V4.13h.67Z"/><path class="ee77385a-0f94-4e51-84aa-e1e88dc6bd74" d="M16.33,37V3.19h.59a.12.12,0,0,1,.09.08,1.08,1.08,0,0,1,0,.18V36.71a1,1,0,0,1,0,.17s-.07.09-.11.09Z"/><path class="ee77385a-0f94-4e51-84aa-e1e88dc6bd74" d="M7.52,37H6.85v-.18q0-13.94,0-27.88c0-.16,0-.21.21-.2.47,0,.47,0,.47.47V37Z"/><path class="ee77385a-0f94-4e51-84aa-e1e88dc6bd74" d="M5.15,9.78h.64V37H5.15Z"/><path class="ee77385a-0f94-4e51-84aa-e1e88dc6bd74" d="M3.44,11h.62V37H3.44Z"/><path class="ee77385a-0f94-4e51-84aa-e1e88dc6bd74" d="M1.71,12.14h.62V37H1.71Z"/><path class="ee77385a-0f94-4e51-84aa-e1e88dc6bd74" d="M.62,37H0V13.27H.62Z"/><path class="ee77385a-0f94-4e51-84aa-e1e88dc6bd74" d="M101.78,37l0,0c-.42.07-.43.06-.43-.35V33.15a2.94,2.94,0,0,1,.42,0s.11.08.14.13c.38.67.75,1.35,1.12,2,0,.06.07.11.11.18l.1-.16c.38-.68.76-1.37,1.15-2a.54.54,0,0,1,.53-.11.28.28,0,0,1,0,.13v3.56c0,.11,0,.15-.15.15-.41,0-.33,0-.33-.32,0-.8,0-1.6,0-2.4V34.1h0l-.12.17-1,1.68a.23.23,0,0,1-.42,0l-1-1.69a.48.48,0,0,0-.14-.15Z"/><path class="ee77385a-0f94-4e51-84aa-e1e88dc6bd74" d="M78.55,36.07V33.16H79c0,.06,0,.12,0,.18V36.8c0,.16,0,.2-.2.2a.38.38,0,0,1-.39-.21c-.51-.87-1-1.73-1.57-2.59a.31.31,0,0,0-.12-.1v.19c0,.83,0,1.66,0,2.49,0,.17,0,.24-.22.22h-.24V33.15a2.29,2.29,0,0,1,.37,0,.27.27,0,0,1,.14.12L78.43,36a.57.57,0,0,0,.08.13Z"/><path class="ee77385a-0f94-4e51-84aa-e1e88dc6bd74" d="M49.71,36.12c0-.12,0-.18,0-.25,0-.84,0-1.68,0-2.52,0-.17.05-.23.21-.21s.12,0,.17,0a.17.17,0,0,1,.1.1,2.43,2.43,0,0,1,0,.27c0,1.1,0,2.19,0,3.29,0,.16-.05.18-.2.19a.37.37,0,0,1-.4-.22L48,34.21a.32.32,0,0,0-.12-.11v2.72c0,.14,0,.2-.18.18h-.07c-.23,0-.23,0-.23-.22V34.41c0-.37,0-.73,0-1.1,0-.13.05-.16.18-.17a.38.38,0,0,1,.41.23c.52.87,1,1.73,1.57,2.59C49.62,36,49.66,36,49.71,36.12Z"/><path class="ee77385a-0f94-4e51-84aa-e1e88dc6bd74" d="M120,36.07c0-.07,0-.13,0-.2,0-.84,0-1.68,0-2.52,0-.17,0-.23.22-.21h.26V37c-.3.1-.44.06-.6-.19l-1.56-2.56a.32.32,0,0,0-.12-.11v2.72c0,.14,0,.2-.18.18H118c-.23,0-.23,0-.23-.22V33.93c0-.22,0-.43,0-.65s0-.13.14-.14a.42.42,0,0,1,.46.24c.51.87,1,1.72,1.56,2.58l.07.11Z"/><path class="ee77385a-0f94-4e51-84aa-e1e88dc6bd74" d="M98.43,35.06c0,.31,0,.62,0,.94a.88.88,0,0,1-.81,1,2.24,2.24,0,0,1-1.06,0,.82.82,0,0,1-.67-.88V34.18a.9.9,0,0,1,.83-1,2.16,2.16,0,0,1,1.1,0,.79.79,0,0,1,.61.8c0,.35,0,.71,0,1.06Zm-.47,0c0-.34,0-.68,0-1a.54.54,0,0,0-.25-.5,1,1,0,0,0-1,0,.71.71,0,0,0-.36.73V36a.64.64,0,0,0,.69.74,1.35,1.35,0,0,0,.35,0,.59.59,0,0,0,.55-.64C98,35.74,98,35.4,98,35.06Z"/><path class="ee77385a-0f94-4e51-84aa-e1e88dc6bd74" d="M42.06,35.11c0-.32,0-.63,0-.94a.9.9,0,0,1,.83-1,2.2,2.2,0,0,1,1.11.06.74.74,0,0,1,.58.73c0,.74,0,1.48,0,2.22A.79.79,0,0,1,44,37a2.18,2.18,0,0,1-1.29,0,.77.77,0,0,1-.61-.8v-1Zm2.06,0V34a.55.55,0,0,0-.46-.59,1.3,1.3,0,0,0-.52,0,.66.66,0,0,0-.61.7v2a.52.52,0,0,0,.41.56,1.91,1.91,0,0,0,.63,0,.57.57,0,0,0,.55-.64Z"/><path class="ee77385a-0f94-4e51-84aa-e1e88dc6bd74" d="M58.21,33.18l.06,0c.4,0,.4,0,.4.36V36a.64.64,0,0,0,.65.75,1.53,1.53,0,0,0,.52,0,.59.59,0,0,0,.44-.64v-2.9a2.35,2.35,0,0,1,.38,0s.09.1.09.16V36A.86.86,0,0,1,60,37a2.25,2.25,0,0,1-1.18,0,.78.78,0,0,1-.61-.83V33.35C58.2,33.29,58.21,33.24,58.21,33.18Z"/><path class="ee77385a-0f94-4e51-84aa-e1e88dc6bd74" d="M84.36,33.93l-.43.07s0,0,0,0a.54.54,0,0,0-.44-.51.9.9,0,0,0-.91.16.7.7,0,0,0-.18.41c0,.72,0,1.43,0,2.15a.53.53,0,0,0,.39.52,1.19,1.19,0,0,0,.89,0,.46.46,0,0,0,.3-.47c0-.26,0-.51,0-.77s0-.16-.16-.15h-.52V35h1.15v1c0,.64-.2.89-.84,1a2.12,2.12,0,0,1-1.09,0,.76.76,0,0,1-.6-.81q0-1,0-2a.9.9,0,0,1,1-1,3.7,3.7,0,0,1,.94.08A.68.68,0,0,1,84.36,33.93Z"/><path class="ee77385a-0f94-4e51-84aa-e1e88dc6bd74" d="M115.22,37h-.4a.23.23,0,0,1-.11-.11c-.08-.23-.15-.47-.22-.7a.15.15,0,0,0-.17-.12h-1.16a.16.16,0,0,0-.18.13c0,.21-.14.41-.19.62s-.1.21-.25.19h-.26l.49-1.57c.22-.7.45-1.4.67-2.1,0-.14.09-.21.24-.19h.15c.14,0,.18.06.21.17l1,3Zm-.86-1.24-.61-2h0l-.61,2Z"/><path class="ee77385a-0f94-4e51-84aa-e1e88dc6bd74" d="M108.28,35.38v.9c0,.19,0,.38,0,.56s0,.16-.16.16c-.37,0-.32,0-.32-.32,0-1.11,0-2.21,0-3.32,0-.17,0-.23.22-.22.49,0,1,0,1.47.07.67.08.91.51.86,1.18a1,1,0,0,1-1.08,1C108.94,35.39,108.62,35.38,108.28,35.38Zm0-.25c.35,0,.69,0,1-.07a.58.58,0,0,0,.54-.48,2.57,2.57,0,0,0,0-.62.51.51,0,0,0-.31-.4,3.06,3.06,0,0,0-1.24-.12Z"/><path class="ee77385a-0f94-4e51-84aa-e1e88dc6bd74" d="M55.05,34a.59.59,0,0,0-.63-.57,1.69,1.69,0,0,0-.55,0,.53.53,0,0,0-.42.52.55.55,0,0,0,.31.62c.26.11.54.19.8.29a5.32,5.32,0,0,1,.61.26.64.64,0,0,1,.33.56,2.81,2.81,0,0,1,0,.29.89.89,0,0,1-.81,1,2.09,2.09,0,0,1-1.26-.09.74.74,0,0,1-.5-.59s0-.12.07-.12.25,0,.38-.06a.66.66,0,0,0,.73.59,2.59,2.59,0,0,0,.48,0,.49.49,0,0,0,.41-.42,2.81,2.81,0,0,0,0-.58.4.4,0,0,0-.3-.34c-.21-.09-.42-.15-.63-.23a7.13,7.13,0,0,1-.69-.29.88.88,0,0,1,0-1.5,1.69,1.69,0,0,1,.76-.2,1.93,1.93,0,0,1,1,.16.73.73,0,0,1,.41.52c0,.08,0,.14-.1.15A2.11,2.11,0,0,0,55.05,34Z"/><path class="ee77385a-0f94-4e51-84aa-e1e88dc6bd74" d="M39.37,33.94l-.44.07a.79.79,0,0,0-1.11-.56.57.57,0,0,0-.44.54c0,.38,0,.76,0,1.14V36c0,.55.24.8.8.78s.67-.21.75-.6l.47.06a.69.69,0,0,1-.38.63,1.94,1.94,0,0,1-1.71,0,.72.72,0,0,1-.41-.69V34.1a.89.89,0,0,1,.76-.93,2.18,2.18,0,0,1,1.16,0A.72.72,0,0,1,39.37,33.94Z"/><path class="ee77385a-0f94-4e51-84aa-e1e88dc6bd74" d="M93.21,33.94l-.44.07a.82.82,0,0,0-1.19-.53.61.61,0,0,0-.37.58q0,1,0,2.07a.55.55,0,0,0,.49.58,1.69,1.69,0,0,0,.55,0c.29,0,.37-.15.51-.56l.24,0,.22,0a.67.67,0,0,1-.38.63,1.66,1.66,0,0,1-1,.19,2.46,2.46,0,0,1-.6-.12.74.74,0,0,1-.51-.75v-2a.91.91,0,0,1,.81-1,2.09,2.09,0,0,1,1.11.05A.72.72,0,0,1,93.21,33.94Z"/><path class="ee77385a-0f94-4e51-84aa-e1e88dc6bd74" d="M124.2,37c0-.27,0-.52,0-.76a2.73,2.73,0,0,0-.41-1.71c-.26-.44-.47-.9-.72-1.39h.45s.09.08.11.13c.24.49.47,1,.71,1.48l.09.19a.66.66,0,0,0,.1-.18c.23-.47.46-.94.68-1.43a.26.26,0,0,1,.31-.2,1.15,1.15,0,0,0,.27,0,1.59,1.59,0,0,1-.08.18l-1,1.9a1,1,0,0,0-.07.31v1.31c0,.13,0,.17-.16.16Z"/><path class="ee77385a-0f94-4e51-84aa-e1e88dc6bd74" d="M67.76,33.43c-.05-.28,0-.28.21-.28h2.28v.28h-.76c-.25,0-.25,0-.25.24,0,1,0,2.08,0,3.12,0,.16,0,.23-.21.21h-.15c-.1,0-.14,0-.13-.14v-.39c0-.94,0-1.88,0-2.83,0-.16,0-.22-.21-.21S68,33.43,67.76,33.43Z"/><path class="ee77385a-0f94-4e51-84aa-e1e88dc6bd74" d="M63.63,33.16h.46v3.55h1.73c.07.27.05.29-.19.29H63.79c-.12,0-.18,0-.18-.16,0-1.18,0-2.37,0-3.56C63.62,33.24,63.63,33.21,63.63,33.16Z"/><path class="ee77385a-0f94-4e51-84aa-e1e88dc6bd74" d="M72.83,33.16h.5v3.63c0,.16,0,.22-.2.21-.36,0-.29,0-.3-.29V33.16Z"/></g></g></svg>