<svg xmlns="http://www.w3.org/2000/svg" viewBox="0 0 149.31 48.88"><g fill="#6bb0e4"><path d="M19.93 0v4.84h-9.65v3.24H19v4.8h-8.72v3.45h9.83v4.84H4.68V0zm3.42 21.18V0h5.6v16.2h5.45V0H40v16.2h5.44V0H51v21.18zm31.65 0V0h5.6v6.66h2.8c5.24 0 9.23 1.7 9.23 7.26s-4 7.26-9.23 7.26zm5.6-4.84h3.05c1.7 0 3.2-.52 3.2-2.42s-1.5-2.42-3.2-2.42h-3.03zm14.66 4.84V0h5.6v8h2.66l4.8-8h6.2l-6.66 10.32 7 10.86h-6.2L83.5 13h-2.63v8.17z"/><path d="M94.65 21.18L103 0h6l8.32 21.18h-5.75l-1.2-3.33h-8.77l-1.2 3.33zm8.62-7.87h5.45l-2.18-6.1a10.61 10.61 0 0 1-.54-2.15 11.16 11.16 0 0 1-.55 2.15z"/></g><g fill="#48443e"><path d="M125.05 32.52v-.2a.6.6 0 0 0 0 .2zm-26.4 9.3s-.1-.1-.1-.2.08.12.1.2zm18-11.65c.02-.17.01-.17 0 0zm-7.05 11.07c.07-.23-.08-.3-.2-.38V41c.06.06.07.16.2.24zm-.2-.5h-.1a.24.24 0 0 0 .09.08zm5.86-2.65c-.2 0-.08-.33-.33-.3-.07.4.3.4.65.4 0-.4-.14-.38 0-.68-.68.04-.13.4-.32.6zm8.6-5.77s.18-.1.38-.18h-.38zm-20.27 8.42a1.38 1.38 0 0 0 0-.19z"/><path d="M109.4 41.14V41s0-.08-.07-.1c-.2 0 .07.34.07.25zM117.05 30s0 .1.13.13h-.1v.48c-.07.45.65.5.43.78.53 0 .06-.3.32-.4.6.1.64.1.85-.2.5-.23.65.1.22.3.67 0 1-.33 1.6 0 .1-.22-.5-.3-.1-.5.24.2.32.23.42-.1a2 2 0 0 0-.85-.09c.06-.46-.65-.14-.32-.6-.4-.15 0 .44-.43.3a1.4 1.4 0 0 0-.22-.68c-.33 0-.64 0-.75-.2.24 0 .35-.08.33-.3-.48.13-.3-.33-.33-.6-.12.46-.75 0-1.07.5.16 0 .4 0 .43.1-.53 0 .1.25 0 .5-.15-.14-.34-.08-.32.2.18.28.5-.37.75 0-.14 0-.1.17-.2.2-.17-.16-.42 0-.65.1-.2-.13.24-.63-.32-.6.1.28.07.44.13.58a.92.92 0 0 0-.11.24h.2a1.39 1.39 0 0 0-.01-.15zm1.74-.16c.3.16 0 .3.2.5h.75c0 .17-.18.25 0 .3-.2.13-.56-.2-1 0-.16-.1-.17-.37-.32-.5.05-.13.4-.03.36-.25z"/><path d="M125.08 31.74zm-8.36-1.18h-.08v.08l.08-.08zm.01-.02a1.75 1.75 0 0 0 .15-.33h-.2c-.01 0 0 .2 0 .33z"/><path d="M116.73 30.54v.42c0-.03-.07 0-.1 0v.27h.43v-.62l-.33-.07zm8.34 1.68c0 .05.06.1.05.14s0-.08 0-.13z"/><path d="M149.3 28.8c-.1-.3-.27.13-.53 0 0-.27.17-.2 0-.4-.53 0-.06.3-.33.4 0-.17-.13 0-.32 0a10.13 10.13 0 0 0-3.64.2c.06 0 .12.08 0 .1s-.1-.1-.2-.1.14-.14.1-.3c-.55 0-1.32.4-1.72.2.14 0 .14.27 0 .3-.64-.07-.67-.28-1-.78-.33.17.3.3 0 .4-.1-.24-.55-.16-.64-.4-.3.43-.53 0-.75-.2-.06.3.25.4-.1.5s-.23-.24-.2-.5a5.58 5.58 0 0 0-.75.3 3.76 3.76 0 0 1 .75.29c-.67.3-1.2-.3-1.5-.7-.26.14-.07.2-.22.3a1.24 1.24 0 0 0-.75-.1c0 .32.42.2.43.5-.63-.18-.63.2-.75.3-.6-.23-1.57.15-2-.4.34.1.4-.08.53-.2.28.46.6.15 1.18.2 0-.34-.56-.14-.64-.4 0 .08 0 .2-.1.2-.6-.16-.5-.7-.43-1.28-.3.38-.5-.23-.75.2.3 0 .6 0 .54.3-.6-.2-1.23.35-1.93-.3-1.2.9-2.57-.15-3.54.5-.9 0-1.06-.87-.64-1.47.5.2.45-.18 1 0-.3.26.26.18.32.4-.32-.1-.46.42-.22.5.1-.17.4-.16.43-.4-.25-.2.12-.4-.2-.6.22-.22.9 0 1-.4-1.14-.05-1.44.46-2.78-.2.32.08.4-.1.64-.1 0 .07 0 .2.1.2.16-.5-.5-.27-.54-.6a.28.28 0 0 1 .32-.19 2 2 0 0 0 2-.2c.5.67 1.47-.32 2 .1.1-.13.1-.36.22-.5-.22-.1-.67-.2-.86-.6-.33-.07-.2.27-.54.2a.4.4 0 0 0-.1-.29 7.91 7.91 0 0 1-1.82 0 1.75 1.75 0 0 1-.33.39c0-.14-.12-.17 0-.3-.55-.1-.46.4-.53.5-.24-.07 0-.55-.43-.5.1.43-.25.82-.75 1 0-.12-.14-.13-.1-.3.38.3.45-.32.43-.7a.7.7 0 0 1-.53 0c-.1.2.32.33 0 .4s-.3-.7-.65-.3c.12 0 .26.16.1.2-.3-.08-.57-.2-.85-.3-.1.26-.84.27-1.08.1 0 .42-.52.6-.32 1-.33-.07-1 .05-.64.3.2-.06 1.16.23.86-.5.27-.08.6-.15.75.1-.22.07-.47.33-.1.4.13-.14.1-.43.43-.4s0 .2.2.5a4 4 0 0 1 2.14-.1c-.43.2-.6.62-1 .9.12-.2-.17-.47-.2-.2.27.18-.1-.06-.33 0-.2.3.43.3.1.4-.43-.2-.5-.5-.43-.5-.13-.14-.3.24-.53-.1-.28.24-.25.46-.75.3-.08.3.1.36.1.6-.47-.13-.14.46-.54.4.08-.4.34-.7.1-1.18-.2.06-.18.3-.32.4 0-.25-.74-.18-1-.1.16.08 2.34.14 2.47.4-.92 0 .87.62.87.6v-.3c0 .2-3.57.2-4 .5 1.6 0-1.1-1.37-1.08-1.27s-.83-1.48-.78-1.48h-1V27c0-.07-1.05.4-1.47 0 0 .1 0 .28-.14.3-.32-.28-.68 0-1-.3-.3.42-.64.3-1.3.3-.14.25.3.4 0 .5-.35-.1-.56-.34-1-.4.12.25-.46.34-.1.5.24-.3.24.16 0 .2 1.07-.25 1.74.17 2.57-.4 0 .14-.17.17-.2.3.54-.1 1.2-.17 1.4.1.22-.22.8-.12 1.07-.3.3.54 1.06 0 1.4-.1 0 .14-.17.17-.2.3.52.1.87.36 1.18 0 0 .17.5.3.2.4a2.58 2.58 0 0 0 .42 0l-.5.12c0-.07 0-.08.1-.1a1.83 1.83 0 0 1-1-.21c.14.3-.2.38-.38.6a4.44 4.44 0 0 0 1.14.29c0 .08-.07.2-.17.2-.6-.18-.82.2-1.43-.2 0 .5-.86.15-1 .5.5.1-.1.28 0 .4.5.78 2.65-.28 2.9.4-1 .24-1.6-.36-2.26.4.25.06.3.33.54.4.26-.13-.2-.3.1-.4.72 0 1.17.4 1.82 0 .13.82.53-.3 1.18.4.5-.56 1 .18 1.3-.4.28 0 .37.24.64.3 0-.1 0-.27.1-.3 0 .16.3 0 .32.2-.16.17 0 .3-.1.68.25.18.45-.27.75.1-.16.2-.28.46-.75.4 0-.52-1.43 0-1.74-.38.2 0 .18.26.1.48.42 0 .8.08.87.1-.1.34 0 .43.12.68-.25-.66-.73 0-1.06-.45l-.24.65c-.68 0-.1-.4-.3-.6 0 .06 0 .12-.1.1s-.1-.1-.1 0 .25.63-.2.4c0 .54.53.18.75.4-.15.2-.55.15-.75.3-.22-.1-.1-.5-.42-.5-.08.25.23.43.2.78.1-.14.5 0 .54 0-.43.15 0 .1 0 .4-.15.06 0 .38-.22.4s-.16-.1-.2-.2.2-.1.2-.2c-.2 0-.08-.38-.43-.3.07.4-.4.4 0 .58a.27.27 0 0 1-.43-.29c-.56-.06-.06.4-.32.5-.4-.68-.34-.7-.42-.1-.12 0-.17-.1-.22-.2s.2-.1.22-.2-.13-.08-.1-.2c-.3.18-.88.3-1-.2.35.3.1-.56.65-.4 0-.5-.7-.8-1.07-.6.65.08 0 .3-.1.5.16 0 .4 0 .43.1-.23.15.06.78-.43.68-.07-.36.23-.37.2-.68a.61.61 0 0 0-.75.19c-.07-.47-.38-.12-.64-.4a4.89 4.89 0 0 0-.32 1c.3.07.22-.2.43-.2a.41.41 0 0 0 .11.3c-.78.17-1.32.47-1.93.2 0 .12 0 .28-.1.3-.38-.2-.2-.13-.64 0 .13-.6.07-.76.53-1-.26-.35-1.22 0-1.28.1.3 0 .54 0 .64.2-.6-.06-.22.37 0 .4a5.94 5.94 0 0 1-.75.4c-.3-.1-.12-.15-.1-.4-.46 0 2.4.18 2.38.5-.28-.1 2 .2 2 0v-.68c0 .3-3.1.5-3.77 1 0-.3-1.14-.38-1.08-.6-.75-.1-.7.54-1.3.5 0-.18-.2-.22-.22-.4-.22-.2-.37 0-.6.1-.1-.5-.8-.88-.3-1.28a5.57 5.57 0 0 0-.37-.68c.18.6-1.24.3-1.4.88.22 0 .13.27.42.2 0-.15 0-.33.2-.3-.18.25.12.34-.1.5-.18-.15-.48.12-.64-.2s.2-.34.1-.68c-.3 0-.2.16-.43 0-.06.27.14.78-.1.88a1.44 1.44 0 0 0-.54-1 7.06 7.06 0 0 1-2.68-.19c.54.35.85-.6 1.4-.2-.22-.1-.5.15-.22.2.1-.27.34.13.64 0s.1-.5.1-.8c-.45.38-1.33-.26-1.7.3.16 0 .4 0 .43.1-.1.34-.43 0-.75.2 0-.18-.32-.78.2-.78.42.45 1.36 0 1.4-.3.28 0 .16.38.43.4.15-.34.7-.1 1.07-.1.06-.3-.53-.5-.2-.7 0 .12 0 .23.2.2s.1-.18.22-.2.08.12.1.2c-.27.12-.2.32-.1.58-.28.14-.5-.06-.75.1.1.17 0 .53.32.5s-.08-.46.2-.4.66.05.54.5c.33 0 .3-.4.75-.3-.1.34.12.4.2.58-.17 0-.3.14-.1.2.4-.34.32-.6.54-1-.4-.14 0 .44-.43.3.23-.2 0-.3-.1-.5.68-.52 1.4.9 2 .1-.27-.13-.34.4-.43.1 0-.1-.1-.12-.1-.2.5.12.14-.82.54-.5.12-.25-.33-.46 0-.58-.17.34.36.06.32.3-.3.1.15.3 0 .6-.2-.2 2.17-.27 2.22.2.52-.2 3.82.26 3.82.1V32c0-.1-3-.14-3.18-.2-.06-.28-1.24-.88-1-1.18.25.24-.46-.14-.13-.1.5.08-.3.45 0 .7.17-.36 2.06.23 2.32.1a16 16 0 0 1 2-.33v-.43a4.59 4.59 0 0 1-2.38.08c0-.1 1.15-.16 1.25-.2s1.13 0 1.13 0v-.34l-2.38-.2c-.17.48-2.16.5-2.3.4.36-.28-.8-.6-.84-1.18.7.18-.3-.77.18-.4-.28-.88-1.22-.27-2-.2-.1.32.1.3.15.5-.47-.07 0 .2-.25.2 0-.13-.2-.1-.23-.2-.32-1.25.9-.72 1.38-1.07-.58 0-.6-.44-1-.4.13-.2.6-.1.64-.4-.6.23-.28-.16-.54-.5-.4-.1-.17.37-.54.3 0-.3.06-.36.15-.42l.9-.1c.1-.17 0-.5.22-.6 0 .4.4-.1.53.2-.13.14-.52 0-.53.3.2.06 1.53.28 1.4-.1 0 .22-.38.05-.54.1 0-.14-.4-.4-.1-.5.2.1.33.5.64.2 0-.2-.14-.2-.2-.3.32-.14.57 0 .85.2-.06.14-.4 0-.43.2.24.06.8.24.86-.1-.13 0-.25 0-.2-.2.18-.33.88 0 .85-.3s-.27.13-.53 0c0-.27.18-.2 0-.4-.53 0-.06.3-.32.4 0-.17-.14 0-.32 0a10.17 10.17 0 0 0-3.65.2c.06 0 .13.07 0 .1s-.1-.1-.2-.1c0-.13.14-.14.1-.3a4.81 4.81 0 0 0-.77.16c0-.16 0-.35.15-.34 0 .12 0 .24.2.2a2 2 0 0 0 .11-.69c-.26.23-.13-.83-.22-.88.2.17.77.13.86-.1a2.83 2.83 0 0 0-2 .2.51.51 0 0 1 .1-.39c-.22.1-.57.35-.85.1-.06.1-.12.7-.22.78-.46-.52-2.17 0-1.82 0h-.43c-.06 0 .32-.08 0 0s-.38-.68-1-.54c0 .6-.68 0-.75-.12a.85.85 0 0 1-.43.33c-.37-.36-.53-.12-1.18-.42-.1.36.36.17.43.37-.18.13-.76 0-.86 0 0-.17.3-.06.32-.2-.33 0 .28-.3-.1-.3.06.3-.45.55-.65.3 0-.16.3-.05.33-.2-.52-.06-.5.36-1 .1-.3.2.2.54-.2.6-.1-.2-.53-.1-.78-.15 0 0-.06 0-.1-.06a1 1 0 0 1 .65 0c0-.2.22-.26.33-.4-.28 0-.16-.38-.43-.4.06.67-.68.35-1 .5.1 0 .2 0 .22.1s-.64.25-.64.1.35-.3 0-.4c0 .45-.58 0-.65-.1-.07.23 0 .4-.53.4.08-.45-.12-.28-.22-.4s.12-.15.22-.2c0 .2.74.42 1 .4a1.45 1.45 0 0 0-.48-.68h-.72c.23-.22.57 0 .6-.4-1.14 0-1.62.46-3-.2.33.07.3-.1.56-.1 0 .07 0 .2.06.2.17-.5-.5-.27-.56-.6a.28.28 0 0 1 .32-.19 2 2 0 0 0 2-.2c.5.67 1.47-.32 2 .1.1-.13.1-.36.2-.5-.22-.1-.67-.2-.86-.6-.33-.07-.2.27-.53.2a.51.51 0 0 0-.11-.3 6.93 6.93 0 0 1-1.82 0 2.08 2.08 0 0 1-.32.4c0-.14-.13-.17 0-.3-.56-.1-.47.4-.54.5-.24-.07 0-.56-.43-.5.1.43-.25.82-.75 1 0-.12-.13-.13-.1-.3.37.3.44-.32.42-.7a.7.7 0 0 1-.53 0c-.1.2.32.33 0 .4s-.3-.7-.64-.3c.1 0 .25.16.1.2s-.57-.2-.85-.3c-.1.26-.84.26-1.07.1-.06.42-.52.6-.33 1-.33-.07-1 .05-.64.3.2-.06 1.16.23.86-.5.27-.08.6-.15.75.1-.2.07-.47.33-.1.4.13-.14.1-.43.43-.4s.06.2.2.5a4 4 0 0 1 2.15-.1c-.44.2-.62.62-1 .9.12-.2-.17-.47-.2-.2.27.18-.1-.06-.32 0-.22.3.42.3.1.4-.43-.2-.5-.5-.43-.5-.13-.14-.3.24-.53-.1-.28.24-.25.46-.75.3v.06c0 .06-.18.16-.28.22a.75.75 0 0 0-.05-.48c-.18.06-.18.3-.32.4a.42.42 0 0 0 .14-.18c-.38.08-.42-.14-.75-.1v.12a1.25 1.25 0 0 0-.3.05 1.57 1.57 0 0 1-.37-.17c-.23.2.37.5.5.72-.06 0 .57 0 .53.06-.23-.13.3-.37.3-.1v-.4a1.36 1.36 0 0 0 1.07-.39c-1 .2-1.07.26-1.07-.2v1.23c0 .12-4.13-.4-2.6-.4.3-.2-1.27-.76-1.78-.78a5.8 5.8 0 0 1-.89.29c-.75-.52-2.15-.07-3.28-.34-.1.18.13.3-.2.37a2 2 0 0 0-1-.41.48.48 0 0 1-.26.49c-.24 0-.37-.1-.35-.3a.28.28 0 0 0 .31-.2.15.15 0 0 1-.11-.19c-.3.1-.83.18-.76-.3-.6-.1-.2.15-.42.3-.36-.45-.87-.23-1.5-.1 0 .15 0 .36-.1.4-.1-.3-.27.13-.54 0-.06-.14 0-.16 0-.2a.17.17 0 0 1 0-.13h.1c0 .06 0 .14.13.12s0-.06 0-.1a2 2 0 0 1 .22 0c0-.1-.14-.06-.2-.1a2.25 2.25 0 0 0 .08-.52c-.26.23-.13-.83-.22-.88.2.17.77.13.86-.1a2.83 2.83 0 0 0-2 .2.51.51 0 0 1 .1-.39c-.22.1-.57.35-.85.1-.06.12-.12-.87-.22-.8-.46-.5-2.17-1.58-1.82-1.58h-.43c-.06 0 .32 1.5 0 1.58s-.38.12-1 .26c0 .6-.68.43-.75.27a1.31 1.31 0 0 1-.43.53c-.37-.36-.53 0-1.18-.32-.1.36.37.22.43.42-.18.12-.75 0-.85 0 0-.16.3-.05.32-.2-.34 0 .27-.28-.1-.3.06.3-.45.56-.64.3 0-.16.3-.05.32-.2-.52 0-.5.37-1 .1-.3.2.2.54-.2.6-.14-.24-.84.05-1-.2.4 0 .4-.13.75 0 0-.2.2-.26.32-.4-.28 0-.16-.38-.43-.4.06.67-.68.35-1 .5.1 0 .22 0 .22.1s-.64.25-.64.1.36-.3 0-.4c0 .46-.58 0-.65-.1-.07.23 0 .4-.53.4.08-.45-.12-.28-.22-.4a.32.32 0 0 1 .22-.2c0 .2 0 .42.32.4a1 1 0 0 0-.53-.56c-.26.13.2.3-.1.4-.24-.35-1-.37-.74 0-.4 0-.28-.4-.75-.3-.1.32.27.2.32.4-.48-.08-1-.1-1.07.2-.3 0-.6 0-.54-.3.13 0 .24.17.32 0-.23-.28-.57-.16-1-.1.1-.3-.24-.17-.43-.2.23-.2-.06-.27 0-.58a.48.48 0 0 0-.43.19c.46 0 0 .5-.2.5-.14-.23 0-.18-.1-.5-.34-.08-.22.26-.43.3 0-.25-.36 0-.43 0 0-.14.18-.17.22-.3-.37.08-.4-.14-.75-.1 0 .16.16.25 0 .3a1.11 1.11 0 0 1-.65-.29c-.3.24 3.74.66 3.46.88-.34 0 2.38-.54 2.38-.2V20s-2.6 0-2.34-.4c-1 .2-4.5.25-4.5-.2v-.34c0 .13-3 .4-1.42.4.28-.2-.7-.37-1.2-.4-.27.13-.3.4-.6.5-.76-.52-2 0-3.14-.25-.1.18.2.35-.13.42a1.65 1.65 0 0 0-.91-.38.49.49 0 0 1-.25.49c-.23 0-.35-.07-.34-.3a.28.28 0 0 0 .32-.19c-.1 0-.13-.08-.1-.2-.3.1-.83.2-.75-.3-.6-.1-.22.15-.43.3-.36-.45-.86-.23-1.5-.1 0 .14 0 .36-.1.4-.1-.3-.27.13-.54 0-.2-.45.1-.37.54-.3-.17-.5-.8-.1-1.07.1-.7-.07-1.38-.65-2-.2.1 0 .33.32.1.3-.37-.34.4-.62-.1-.3-.4-.35 0-.22 0 0v-.3s.44.07.06.3c-.32-.3-.06-.15-.06-.1v-.4c0-.06-4.72.14-5.74.1-.55 0-2.3-.45-2.7-.5-.07 0-1.22.5-1.3.1-.1.2 0 .33-.33.4l-3-.3c0 .15 0 .36-.2.4 0-.13-.2-.18-.14-.4-1-.15-1.66.3-2.27 0-.3.15.17.4-.12.5-.2-.18 0-.57 0-.8-.5-.18-.2.18-.44.18H29c.2 0-1-.17-.64.1 0-.23.47.05.43.2-.2.1-1.14.17-.64-.24-.42.3-.83.35-1.18-.07-.23.2.24.68-.43.6.1-.28-.15-.25-.1-.48a2.11 2.11 0 0 1-1.18-.51c-.15.25-.25.38-.1.38h-.54a3.81 3.81 0 0 0-1.37-.27c0 .2-.07.5-.2.55a5.09 5.09 0 0 1-.68-.33c-.88-.17-2.17 0-2.32.35-.18-.57-.76-.15-1.3-.37a2.08 2.08 0 0 1-.32.4c0-.12 0-.28-.1-.3 0 .5-.33 0-.53 0-.35.2 0 .5-.32.6-.22-.1-.1-.77-.43-.75-.1.18.32.13 0 .13h-.22s0-.1.1-.23a9.15 9.15 0 0 1-2 .43c-.17.34.36.12.32.36a6.94 6.94 0 0 0-4.29.42L9.64 19c-.1.93-1.94.26-2.36.9.37.17.8-.16 1.18.1-.4.1-.57.16-.43.6-.4-.37-.36.65-.85.2 0 .17.15.25 0 .3s-.45-.05-.54-.2c.45 0 0-.15 0-.3a.72.72 0 0 1 .54-.1c0-.24-.65-.47-.77-.6a4.44 4.44 0 0 0-1.74.2v.5a.44.44 0 0 1-.41.49c.1.47.2.66-.2.68-.13.52.26.8-.16 1 .22 0 .2.37.4.4 0-.34.4.2.36-.1-.12 0-.24-.17-.1-.2.08.2.6 0 .66.2-.9.38-.57 1.3-1.5 1.56-.06-.16-.32-.16-.42-.3s.13-.65-.1-.7l-.32.6c0-.22-.57 0-.64-.2 0 .3-.38.25-.64.3.3.47-.54.4-.54.88a1 1 0 0 1 .86.2 1.9 1.9 0 0 1 .53-.79c.14 0 .15.13.32.1s-.15-.25 0-.3c.18.32.44.32.1 0 .9.07.6.66 1.07 1.07-.37-.17-1.1 0-.85.4a1.49 1.49 0 0 0-1.29.1c-.22 0-.2-.26-.43-.3-.53.3-.8.8-1.28 1.1.1.4 0 .34 0 .8.43.06.47.48.85.6.2-.14.85-.33 1-.2-.32.93-1 1.65-1.07 2.55.32.14.57-.05 1-.1.32.46.07.83 0 1.37-.1-.08-.4-.47-.53-.2.08 0 .2 0 .2.1s-.13.08-.2.1c-.18-.16-.63-.08-1-.1a3.62 3.62 0 0 0 .11 2.94c-.55.22 0 .34-.43.7.48-.1.8-.33 1.3-.4-.15.4 0 1-.65 1-.1.4.17.44.32.6-.58.53-.3 1.6-.42 2.35a.87.87 0 0 1 .32.2c-.17.28.08.48-.22.88a1 1 0 0 0 .65-.1c-.16.2.1.34-.22.5.33.32.18.7.64 1 0-.18.36-.07.32-.3s-.26.12-.32-.1.42-.08.32-.4a.5.5 0 0 1-.42-.2c.47-.08.26-.34.1-.6.73-.4 1 .15 1.5.4-.18.32-.27.32.1.5-.6.35.32 1.25-.1 1.77.14.1.4.1.43.3a2.22 2.22 0 0 0 1 2.25c.16-.6.24-1-.22-1.37.4-.6-.26-.86-.1-1.56.48 0 .67.23 1 .4 0 .2-.15.2-.22.3.2 0 .24-.1.43-.1 0 .76.47 1 .43 1.77.84.1.12 1.06 1 1.17-.33-.65-.17-2-.64-2.54.22-.07.07-.46.32-.5 1.5.27.85 2.55 2.14 3.23.32-.4-.1-.77-.32-1 .25-.4.32-.65.1-1 .82-1.1 1.12 1 1.6 1.47 0-.12.17-.1.32-.1-.18-.32-.1-.48.2-.6-.64-.1.23-.62-.32-1-.2 0-.63.12-.64-.1 0-.37.38-.28.64-.2.2-.2.1-.42.2-.5.38.14.5.52.86.7-.14.23-.2.06-.32.2.54.18.35.47.43 1 .38-.1.55.25.64-.1-.55-.12.17-.7 0-1.07-.27-.2-.5.1-.64-.1.18-.33.7-.05 1.07-.2a.71.71 0 0 0 .43.69c-.27.6.36.68.43 1.37a3.91 3.91 0 0 0 .75.19c.23-.28-.26-.56-.43-.78.3-.15 0-.6-.1-.7.27 0 .52 0 .54-.2-.2-.2-.2.06-.54 0 .12-.3-.17-.24-.2-.4.75.07-.15-.4.2-.5.8.7 1.33 1.66 2.14 2.35.08-.53-.28-.7-.1-1.37-.16-.06-.56.1-.54-.1.22 0 .2-.27.43-.3-.1.34.35.16.43.1.15.57.55.18.64 0 .26.1.28.4.75.3 0-.17-.16-.25 0-.3.4.44.28 0 1.07.1 0 .1.18.24.2.1-.27-.05-.17-.43-.42-.5.5.2 2-.23 1.5.5.32.14.36-.08.64.1.13-.3-.37-.5-.1-.6s.08.32.32.3c.08-.36.3 0 .65-.2a.57.57 0 0 1 .1.49c.82-.16 1.68.48 2.25.1 0-.16-.16-.25 0-.3a1.87 1.87 0 0 0 .75.1c0 .14-.18.16-.2.3.82-.13 2.26-.27 2.78.1.36-.37.88-.1 1.18.1.3-.55 1.13-.24 1.5-.3a.69.69 0 0 1-.32-.19c.1 0 .12-.08.2-.1.24.34.1 0 .32 0 .86 0 2.33.35 2.9-.3a.52.52 0 0 1-.1.39 1.6 1.6 0 0 1 .47-.05 1.32 1.32 0 0 0 .51.75c0-.18.36-.07.32-.3s-.26.12-.32-.1.26-.15.3-.32l.55.1c0-.3.4-.17.43-.4 0 0 .06.05.1.07s0 .14.24.24c-.6.34.32 1.24-.1 1.76.14.1.4.1.43.3a2.22 2.22 0 0 0 1 2.25c.17-.6.25-1-.2-1.37.4-.6-.26-.86-.1-1.56.48 0 .67.23 1 .4 0 .2-.15.2-.22.3.2 0 .24-.1.43-.1 0 .76.47 1 .43 1.77.84.1.12 1.06 1 1.17-.33-.65-.17-2-.64-2.54.22-.07.07-.46.32-.5 1.5.27.85 2.55 2.14 3.23.32-.38-.1-.77-.32-1 .25-.4.32-.65.1-1 .8-1.08 1.12 1 1.6 1.47 0-.12.17-.1.32-.1-.18-.32-.1-.48.2-.6-.64-.1.23-.62-.32-1-.2 0-.63.12-.64-.1 0-.37.38-.28.64-.2.2-.2.1-.42.2-.5.38.14.5.52.86.7-.14.23-.2.06-.32.2.54.18.34.47.43 1 .38-.1.55.25.64-.1-.55-.12.17-.7 0-1.07-.27-.2-.5.1-.64-.1.18-.33.7-.05 1.07-.2a.69.69 0 0 0 .43.69c-.27.6.36.68.43 1.37a3.91 3.91 0 0 0 .75.19c.23-.28-.26-.56-.43-.78.3-.15 0-.6-.1-.68.27 0 .52 0 .54-.2-.2-.2-.2.06-.54 0 .12-.3-.17-.24-.2-.4.75.07-.15-.38.2-.5.8.7 1.33 1.66 2.14 2.35.08-.52-.28-.7-.1-1.37-.15-.06-.55.1-.53-.1.22 0 .2-.27.43-.3-.1.34.35.16.43.1.15.57.55.18.64 0 .26.1.28.4.75.3 0-.17-.16-.25 0-.3.4.44.28 0 1.07.1 0 .1.18.24.2.1-.27-.05-.18-.42-.43-.5.5.2 2-.23 1.5.5.32.14.37-.08.65.1.13-.3-.37-.5-.1-.6s.07.32.32.3c.08-.36.3 0 .64-.2a.6.6 0 0 1 .11.49c.82-.16 1.68.48 2.25.1 0-.17-.16-.26 0-.3a1.87 1.87 0 0 0 .75.1c0 .14-.18.16-.2.3a5.13 5.13 0 0 1 2.78.1c.36-.37.87-.1 1.18.1.3-.55 1.13-.24 1.5-.3a.73.73 0 0 1-.32-.2c.1 0 .12-.08.2-.1.24.34.1 0 .32 0 .86 0 2.32.35 2.9-.3a.52.52 0 0 1-.1.39 3.19 3.19 0 0 1 1.82.1c0-.3.4-.17.42-.4a1.78 1.78 0 0 1 .54.39c.26-.12-.22-.37.1-.5.24.5.7-.08 1.07.2-.14.25-.53-.1-.54.1.22.22 1.2.22 1-.1-.07.1-.1-.3-.32-.5.33.06.33.4.75.4.2 0 .28-.2.42-.3-.08.24.52.24.43 0s-.3.25-.32-.1 0-.6.32-.58c0 .23-.2.2-.1.5s.26 0 .53 0c-.23.2.14.36.32.5.06-.18-.13-.58.1-.6.1.63 1 .27 1.5.3.26-.5.34-.3.75-.78.17.3-.4.4-.1.5h.43c.05.42-.3.12-.32.3.16 0 .1.24.1.4.56-.1 1 0 1.3-.5-.27-.12-.52.22-.54 0 .27-.08 1-.32 1.08 0-.27.13-.34 0-.43.1.22 0 .1.37.32.4 0-.36 1-.33.53-.58a3.1 3.1 0 0 0 1.93-.1c-.12-.3-.27 0-.43-.2.14-.13.47-.1.75-.1-.17.45.46.66.54.3-.3.06-.55-.4-.32-.5a1.41 1.41 0 0 0 1.39.29c.06.18.05.4.2.5 0-.32.34-.28.43-.5.1.32.1.2-.1.4.37-.17.67.05 1.08.1 0-.2-.15-.2-.22-.3a2.32 2.32 0 0 1 .86-.3c-.08.08-.27.48.1.4-.14-.5.34-.42.33-.8-.35.08-.23.1-.43-.1 0 .23 0 .37-.22.4-.14-.2-.74 0-.75-.3.54-.08.28-.72.33-.78.1.32.2-.1.32-.1-.13.2.17.47.2.2-.16 0-.1-.24-.1-.4.28.25.52 0 .65-.2 0 .24 0 .47.2.5.13-.17.33-.3.43-.5a.38.38 0 0 0 .11.29c-.28.14-.6.25-.65.6.5.15.8-.1.86-.6.26.25.23-.2.64-.1 0 .12.14.13.1.3-.34.06-.33-.18-.54 0-.16.38.28.2.33.4a.1.1 0 0 0 0 .2c0-.42.6-.3.85-.5a.42.42 0 0 1-.21-.39c.22 0 .4.53.53.3-.27-.18.18 0 .33 0l-.84-.66c-.2 0 1.23 0 1.2 0 .15-.3 1.2.13 1.2 0v-.2c0-.2-1.17-.08-1.2-.4 0 .15-.65.37-.38.6.18 0 0 0 0 .07s-.12 0-.12.1c.93.1 1.38-.14 1.86.2 0-.42.68.15.88-.2-.1-.1-.38 0-.3-.3s.5 0 .65.1c-.23.15.12.28-.2.4a.78.78 0 0 0 .54-.1c-.26-.4-.1-.62-.54-.88.33-.08.32.16.64.1-.34.3.76.3.33.7.1.07.5.38.64.1-.27.15-.32-.33-.1-.3 0 .2.3.13.22.4-.15 0-.1.17-.22.2 0-.16-.4 0-.43.1.52 0 .4.2.22.5.46-.1.43-.65.75-.88 0 .23.2.2.1.5.5.06.5-.33.86-.4 0 .23.5.5.64.3-.17-.55-1.05-.18-1.28-.5.47-.1-.17-.44.32-1 .54-.05 0 .78.64.4-.26-.07 0-.3.1-.1 0-.6-.9-1.1-.1-1.47 0 .16.06.87.54.7-.3-.24.1-.14.2 0 0-.15 0-.36.1-.4s.3.22.32.4c.22-.32.45.17.64.2-.4-.44-.16-.46-.53-.7.13 0 .06-.1 0-.2a2.56 2.56 0 0 1 1.18.2c.13-1.06 1.1.47 1.17 0 0-.18-.17.06-.2-.1.2-.17-.15-.3.2-.4 0 .2.4.1.43.3a.82.82 0 0 0 .22.69c0-.08.1-.1.2-.1.18-.3-.4-.4-.1-.5s.4.48.54.2c-.4-.23.6.13.2-.1a.76.76 0 0 1-.32-.2c.2 0-.06-.16.1-.2.24.23.42 0 .75 0 .43.27.48 1.82 1 1.4-.2 0-.25.4-.2.4h.64v-1.54a1 1 0 0 0-.43 0c0 .25.54-2.23.44-.15 0 .12 0 .2.2.16.33-.2-.37-.5-.1-.6.07.45.6-.1.64.3 0 .1-.12.14-.2.2a1.26 1.26 0 0 0 .42.29c.25-.06.16-.44.43-.5.13.15.1.44.43.4.16-.24.22-.58.54-.68l1.6-.1c0 .38.1 0 .32.1-.07.26.22.2.22.4.45-.1.6-2 1-2.3-.06-.17-.5-2.2-.53-2.2h.42c.14 0 .18 1.8.45 1.62a6.83 6.83 0 0 0-.29 1.87c.06.23 1.34-.48 1.68.22.07-.3.26-.42.64-.43 0 .27-.24.18-.06.38.77-.3 1.15.3 2 .18.2-.25 1.2-.2 1.45-.27.68 0 0-.22-.17-.3.64 0 .76.12 1.14-.1 0 .23.32.22.42.4-.16.3-.62-.2-.55.2a5 5 0 0 0 3.21-.1c.18 0 .06.27.2.3.3-.23 1 0 1.18-.4-.7.1-.3.1-.43-.2 0 .14-.23.1-.32.2 0-.4-.34-.45 0-.78-.17-.17-.67 0-.64-.4 1-.4.84-.06 1.5-.75-.17-.27-.4-1.62-.54-1.62h1.5s0 1.6.22 1.62c0-.14 0 .26.1.23.3.1.33.4.22.7.33-.07.43.16.53.05-.13 0-.22-.05-.2-.22a27 27 0 0 1 4.92-.15c.1-.25-.4-.43-.1-.57a.43.43 0 0 1 .21.4 34.1 34.1 0 0 0 5.36-.48.68.68 0 0 0 .21.29c.32-.55.68-.16 1.18-.3.06-.35-.13-.47-.22-.7.14 0 .15-.12.33-.1a1.27 1.27 0 0 0 .42.78c.2-.42.72-.16 1-.5.08-.1-.15-.5.2-.1.2-.37 0-.56.22-.88-.42.16-.23-.25-.43-.3a.48.48 0 0 1-.43.19c0-.1-.1-.1-.1-.2.24-.37.2-.5-.1-.8.26 0 .33-.15.42-.3-.16 0-.4 0-.42-.1s.56-.2.64-.5c-.06.25-.18.38.2.4 0-.32 0-.6.43-.4 0 .16-.3.06-.32.2.53.2.5-.5.75-.7s.1.37.32.4.37-.3.53-.5c.13.2.13.48.54.4-.24-.3-.5-.73-.1-1.08-.62.52-1.06.8-.85-.1-.13-.24-.4.2-.54-.1a1.35 1.35 0 0 1 1.29-.09c.1-.48.58 0 .75-.4-.38-.2-1.12.2-.86-.4-.3.05-.56.15-.86.2-.1-.06-.26-1.78-.32-1.55s.3-.76.22-.76h-.33c.14 0 .14-.12 0-.25a20.37 20.37 0 0 0-2.14.25h-.2c.14 0 0 .25-.1.23s0 .17 0 .2a3.82 3.82 0 0 0 1.21-.08c.1.18.34.28.1.48.17.1.36 0 .75 0-.64.23-1.7.45-2.12-.13 0 .18-.1.34-.24.3.1-.17 0-.2.2-.3v-.13a.94.94 0 0 1-.61-.21.28.28 0 0 1-.22.3c-.06-.16-.5 0-.53-.2.43-.1-.2-.68.43-.68.22.05.22.15.1.3.43.05.58-.22.75.1 0-.1 0-.27.1-.3s.26.6.43.3c-.25-.34.6.1.43-.4.34-.06.33.18.53 0 0 .1-.08.12-.1.2.33-.08 1.4-.42.85.1.88-.22 1.85.2 2.36-.4.45.05.07.08.43.3.08-.6 1 .08 1.18-.5.1.22.4.28.53.5-.2.05-.44.05-.53.2.14.24.4-.1.42.1s-.3 0-.32.2c.18.34 1.2.23 1.07-.3-.24 0-.4 0-.42-.2a.56.56 0 0 0 .32-.3c-.27-.12 2.32.3 2.23 0 .22-.15 3.52-.08 3.52-.4v.3a11.15 11.15 0 0 1 3.76-.4c-.06-.23-1.55-.45-1.17-.5.1.28-.84.26-.8.5.38.06 0-.46.3-.2 0-.24-.2-.48 0-.5a.9.9 0 0 1-.09.59l2.75-.3c.1-.17 0-.5.2-.6 0 .4.4-.1.52.2-.13.14-.53 0-.54.3.2.06 1.53.28 1.4-.1 0 .2-.38 0-.53.1 0-.14-.4-.4-.1-.5.2.1.33.5.64.2 0-.2-.15-.2-.22-.3.33-.14.57 0 .86.2-.06.14-.4 0-.43.2.24.06.8.24.86-.1-.13 0-.25 0-.22-.2-.22-.4.48-.04.45-.36zm-16.5-4.1c-.42-.13-.22.32-.64.2.01-.3.62-.75.64-.2zm-1.82.1c-.58.17-.1-.62-.64-.5.25-.58.52.33.64.5zm-4.4 0c0-.17.4-.34.32 0 .1 0 .1-.1.2-.1 0-.3-.27-.28-.42-.4.15-.3.4.13.74 0-.2.57.4.27.43.4-.06.4-1.03.14-1.28.1zm-5.9 5.22c0-.25.93-.36.85 0-.4-.22-.45.17-.85 0zm4.5-1.08c0 .22-.46 0-.65.1.01-.3.5-.26.65-.12zm-1.08-1.37c.15 0 .1.24.1.4a.63.63 0 0 0-.64.29c-.2-.36.4-.54.53-.7zm-.53 2c.28.1-1 .05-.1.2 0 .13-.27.08-.43.1.2-.34-.2-.64.32-.6A.46.46 0 0 0 123 29c.3-.25.65.25.42-.4h.33c.13.4-.75.72-.14.9zm.26-.7v-.46h-.16c.08 0 .16 0 .16-.06.45-.07.92-.07.94.26-.6-.2-.94 0-.94.2zm1.13 1.8a1.48 1.48 0 0 1-.75-.59c.48.14.28-.33.64-.3a.26.26 0 0 1-.21.29c.14.28.27-.26.54-.2-.16.37.47 0 .32.4-.38-.18-.8-.02-.54.4zm-24-9.12c-.42-.13-.22.32-.64.2.01-.3.64-.73.64-.2zm-1.82.1c-.58.17-.1-.62-.64-.5.24-.6.5.32.63.5zm-4.4 0c0-.17.4-.34.32 0 .1 0 .1-.1.2-.1 0-.3-.27-.28-.42-.4.15-.3.4.13.75 0-.2.57.38.27.42.4-.07.46-1.07.14-1.3.1zm-89.1.1c.2 0 .46 0 .42.3-.2.1-.35-.3-.42 0-.2-.03-.03-.18-.01-.3zm-1.3 3.63c.18.06.3.56.54 0 .2 0 .64-.14.53.2-.67 0-.68.24-1 .4-.34-.08.03-.24-.07-.58zm0 13.7c-.15.42-.66 0-.86-.1.25-.3.47.2.86.1zm-1.93-4.2c.2 0 .1.38.43.3.32.12-.75.1-.1.3-.17.28-.4-.2-.64-.2.05-.2.42-.08.32-.4zm-.64-4.6c-.2 0-.24-.17-.2-.4.1 0 .08.12.1.2.27 0 .34-.15.43-.3.34.24-.25.35-.32.5zm.64 5.3c-.07.3.1.36.1.6a1.69 1.69 0 0 0-1-.39c.16-.44.62.26.9-.2zm-1.7-.88c.17-.17.63-.38.86-.2a.94.94 0 0 1-.86.2zm.86 4.1c.38 0 .62-.16 1 0-.16.24-.45.22-.54.3.23.22 1-.27 1.3 0-.5.03-1.72.56-1.75-.3zm2.46 2.55c.1-.42-.08-.58-.54-.5a5 5 0 0 1 .47-.49c-.06-.32-.4-.14-.64-.1a2.14 2.14 0 0 1 .75-.39c0-.22-.3-.1-.32-.3-.32.06.1.2 0 .4-.1-.07-.3-.15-.32 0-.32-.08.06-.32 0-.5.15-.05.55.1.53-.1.44.5.18.22.65.3-.08.36-.2.67.2.78-.26.1-.32.36-.75.3.06.15.16.25.2.4.2 0 .27-.2.54-.2-.08.3.1.36.1.6-.33.23-.42-.3-.9-.2zm.64.7c-.16-.35.37-.06.32-.3a.47.47 0 0 1 .22.49c-.13-.1-.2-.28-.54-.2zm-.2-2.84a1.5 1.5 0 0 1 .43-.3c.33 0 .43.25.64.4-.34.34-.67-.16-1.07-.1zm.64-1.28c0 .12 0 .18.1.2 0 .23-.5-.06-.32.3-.36-.03-.2-.6.2-.5zm.43-10c-.1.3-.27-.12-.54 0 .3-.5.52-1.16.75-1.47.36.58-.78 1.02-.2 1.48zm-.1-1.9c.17-.33.63.22.64-.2.4.45-.45.5-.64.2zm6.2 17a1.73 1.73 0 0 0 .33-.5c.24 0 .23.24.22.5a.79.79 0 0 1-.55.09zm1.6 0c-.32-.1 0-.54-.54-.58-.07-.27.5.07.43-.2a1 1 0 0 1 .11.86zm1.6-5.3c.24.14.7.1.64.5-.3-.01-.6-.08-.64-.4zm2.78 4.12h-.43a.59.59 0 0 1-.1-.49c.2.22.65.13.53.57zm-.75-6.56c-.13.22-.72-.25-.43.3-.18 0-.24-.17-.2-.4a1 1 0 0 1 .64.18zm-.64 2.54c.2 0 .24.17.2.4-.08-.06-.3-.15-.32 0-.1 0-.07-.2-.2-.2-.27-.16.37.24.32-.12zm-.32 3c.34-.1.22.25.42.3-.12.38-.56.13-.38-.17zm.53 2.25c.1-.24.4.14.75 0a.51.51 0 0 1-.75.12zm.75-.4c-.1.06-.3.06-.32.2.2 0 .2-.14.32-.2s.15-.2.32-.2c0-.48-.3-.06-.53-.3.14-.4.35 0 .64 0 0 .24 0 .47-.1.6s-.3.13-.32.02zm.54.78c-.52 0-.54-.6.1-.5a.57.57 0 0 1-.1.61zm.64-2c-.23 0-.23-.25-.2-.5.3.04.32.46.2.56zm3.2-22.85c0 .2-.45 0-.64.1.01-.33.42-.14.64-.1zm-.1 25c-.08.2-.17-.1 0-.1 0-.4-.4-.36-.65-.5.34-.2.86.25 1.18.4-.06.23-.5-.25-.53.16zm1.17 0a.3.3 0 0 1 .33-.19c.1.1 0 .36.32.3-.15.4-.44-.04-.65-.13zm84.63-11.64c-.13.4-.37-.07-.64-.1 0-.2.07-.26.1-.4.2.08.04.6.53.46zm-.86-4.5c-.28-.07-.2.2-.32.3-.1-.1-.4 0-.32-.3.28.2.35 0 .4-.3h.2a.55.55 0 0 1 .06.27zm-1.17.4c.3.17.75.57 0 .6.23-.24-.06-.3 0-.62zm-8.8-3.65c0-.08.2-.12.37-.12a2 2 0 0 1-.29.14zm1-.55s.08 0 .1.06h-.1a.09.09 0 0 1 0-.06zm4.83 1.15c.2.13.2.18.5.08 0 .26-.22.26-.43.3a.61.61 0 0 1-.1-.38zm2.75 1.12a2.73 2.73 0 0 0-.41 0c.12 0 .26 0 .3-.13a1.52 1.52 0 0 0-.06-.2h.08a1.09 1.09 0 0 1 .08.33zm-2.35 1.4l.1.1h-.1zm.5 0a.62.62 0 0 1-.23.08.9.9 0 0 1 .22-.08zm.18-2.28h.1c.04 0-.08-.05-.1 0zm-1.87 0c-.15.52-.63-.24-1 .1v-.24a.83.83 0 0 1 .66.12s.1 0 .1.08.07-.05.1-.08zm-.77 1.25a.22.22 0 0 1-.27-.11.22.22 0 0 1 .29.07s-.03.05-.03.07zM89.12 42.5c0-.1.22-.06.22-.2.06.3.45.3.43.68-.26-.06-.55-.2-.54.2-.2-.07-.28-.26-.32-.5.17.3.74-.2.2-.2zm13-14.8c.1.28.55.26.77.43a.12.12 0 0 0-.1 0 2.59 2.59 0 0 0-.77-.07.51.51 0 0 0 .06-.36zm1.6-.3c0-.08.1-.1.15-.13h.36a.49.49 0 0 1-.55.13zm8.9.1a.45.45 0 0 0-.11.29c-.1-.06-.2-.12-.2 0-.15 0-.1-.24-.1-.4a.29.29 0 0 0 .32-.2c-.22-.17-.84.1-1.18-.2.27-.5.66.2 1.3 0 .14.32-.55.47-.04.5zm.32.2c-.17.14-.13.47-.54.4-.01-.27.15-.4.5-.4zm-1.7-1.1c0-.18 0-.37.17-.38a2.39 2.39 0 0 0 0 .36zm-.66-.17zm.3-.4h-.08a.29.29 0 0 1 .1-.24c.1.01.1.2-.06.2zm-.7.32c-.08.1-.28.07-.46.08 0 0 0-.1.08-.14a.45.45 0 0 1 .26 0s.03.05.08.06zm-1.62 5.38c.14-.23.8 0 .86-.3.33.22.13.3.53.1a.53.53 0 0 1 .11.39c-.28-.1-1.05-.06-1.54-.2zm1.18-3.63c.15-.12.06-.46.2-.58.27.18-.1.34.1.58zm.57-1.47c0-.05.08-.07.12-.1s.13.06.16.12a.38.38 0 0 1-.32-.01zm.93 1.28c.37 0 .6.66.1.6.04-.3-.22-.3-.14-.6zm.1 2.64c0-.3.25-.43.22-.78.18.15.1.85-.26.78zm1.18 1.28c0 .23-.3-.12-.43-.1.1-.14.1-.38.43-.3.06.2-.36.33-.04.4zm2.36-1.77l-.64.3c-.28-.24.22-.2.1-.6a1.31 1.31 0 0 1 .5.29zm0-1.37c-.1.22-.38.25-.54.4.13.15.43.14.43.4s-.1 0-.1-.1a.74.74 0 0 1-.53.1c-.06-.5-.18-.58-.1-1a1.69 1.69 0 0 1 .82.21zm-.86.8v.4c-.23 0-.2-.14-.2-.3h-.32c-.06-.2.34-.04.52-.1zm0 1.56c-.1.35-.52.38-.86.5 0 .18.14.2.1.4.2.1.36-.3.43 0 0 .47-.42 0-.75.1-.06-.17.3-.4 0-.5.4-.1.56-.43 1.06-.5zm-1.28-2.54c.1-.25.5-.7.42-.8.16-.32.3.17.43.2-.38.15-.44.54-.9.6zm.85-1.47c.17.3-.65.16-.2.4 0 .1-.2.08-.32.1s-.05-.1-.1-.1a.74.74 0 0 1 .6-.43zm-.64-.3c-.06 0-.12 0-.17-.06h.2s.02.05-.08.06zm-1.18-2.64a.1.1 0 0 1 0 .19c0 .12.1.06.1 0 .4.4-.56.6-.22 1-.5 0 0-.44-.1-.68 0-.08-.1-.1-.1-.2a1.49 1.49 0 0 1-1.18.1c.4-.38 1.12.08 1.46-.4zm-5.78.4c-.17.27-.64 0-.75-.1s.57.03.7.1zm-.86.2c.1.06.1.3.32.27-.08.08-.1-.15-.1.46H105v.1a.2.2 0 0 0-.15-.12.71.71 0 0 1-.1-.31c.5.07.45-.08.33-.4zm-1.85-.5a.26.26 0 0 0-.1.09c.24 0 .42 0 .48.17l-.06.1a1.42 1.42 0 0 0-.36 0c0-.14 0-.32-.14-.33.02-.15.08-.08.14-.04zm-1.5.1zm-2.1-.87c0 .22-.27.2-.54.2-.05-.4.24-.26.5-.2zm-1.1-.1c-.15.13-.08.17 0 .2-.3-.18-.72-.2-.54.1-.26 0-.34-.1-.47-.2s0-.07 0-.1c.5.2.44-.18.97 0zm-1.35.38H97c.08 0 .14-.06.2-.08s-.02.04-.03.08zm-.7-.28c.43.12 0 .2 0 .5-.3 0-.58 0-.53-.3.12 0 .23.14.3 0 .1.12.2.13.18-.2zm-.43-.1a1.18 1.18 0 0 0 .21.3.48.48 0 0 0-.42-.16c.1-.03.17-.03.17-.14zm-1.94.2c-.1 0-.1 0-.15.08a.51.51 0 0 0-.23-.17c.1-.16.22-.07.34.1zM79.9 21a.1.1 0 0 1 0 .19c0 .12.1.06.1 0 .4.4-.56.6-.2 1-.5 0 0-.44-.1-.68 0-.08-.1-.1-.1-.2a1.49 1.49 0 0 1-1.18.1c.46-.4 1.16.03 1.5-.4zm-5.78.4c-.17.27-.64 0-.75-.1s.64-.02.75.05zm-.86.2c.1.06.1.3.32.26-.07.08-.1 0-.1.4h-.18a.75.75 0 0 0-.3-.12c0-.07-.06-.1-.06-.2.5.07.44-.1.32-.4zm-1.4-.4c-.13.15-.1.44-.43.4 0-.25 0-.48-.2-.5.18-.37.28.2.64.04zm-.86.6v.05h-.46a.48.48 0 0 1 0-.18c.18.13.13.2.46.08zm-1.28 0l-.16.1h-.76c-.03 0 0-.22.06-.28.27.22.53.01.86.12zM67.8 20.3c0 .22-.27.2-.53.2-.02-.44.27-.3.53-.25zm-2.46.88c-.33.08-.4-.1-.64-.1 0-.2.8-.27.64.04zm-2.9-.5c-.25-.06-.3-.32-.54-.4.23-.3.52.13.54.34zM48.2 41.43h-.1a.7.7 0 0 1 .06-.3.25.25 0 0 1 .12.24s-.05.05-.08.06zm-.4-.2h.08a.21.21 0 0 1 0 .07s-.05-.07-.08-.07zm1.7 3.82h-.43a.61.61 0 0 1-.11-.49c.2.14.66.05.54.5zM35.2 43zm-.33.2l.1.08c0 .06-.06.13-.17.12s.03-.14.06-.2zm1 1.3c.1-.42-.08-.58-.54-.5a3.42 3.42 0 0 1 .36-.4c.24 0 .53-.2.8 0-.14.25-.53-.1-.54.1a.63.63 0 0 0 .35.13.51.51 0 0 1-.43.08c.05.15.16.25.2.4.2-.05.27-.22.54-.2-.08.3.1.36.1.6-.26.2-.35-.33-.83-.22zm.64.7c-.16-.35.36-.06.32-.3a.48.48 0 0 1 .22.49c-.05-.12-.17-.3-.5-.2zm7 1.07a1.73 1.73 0 0 0 .32-.58c.24 0 .23.24.22.5a.74.74 0 0 1-.55.08zm1.6 0c-.32-.1 0-.54-.54-.58-.07-.27.5.07.43-.2a1 1 0 0 1 .1.77zm2.68-2.15c.34-.1.22.25.42.3-.13.26-.57 0-.43-.3zm.53 2.25c.1-.24.4.14.75 0a.51.51 0 0 1-.76-.01zm.75-.4c-.1.06-.3.06-.32.2.2 0 .2-.14.32-.2s.15-.2.32-.2c0-.48-.3-.06-.53-.3.14-.4.35 0 .64 0 0 .24 0 .47-.1.6s-.3 0-.33-.1zm.54.78c-.52 0-.54-.6.1-.5a.57.57 0 0 1-.11.48zm.64-2c-.24 0-.23-.25-.22-.5.3-.08.32.33.2.43zm3.1 2c-.08.2-.17-.1 0-.1 0-.4-.4-.36-.65-.5.34-.2.86.25 1.18.4-.1.25-.5-.23-.54.18zm1.17 0a.29.29 0 0 1 .32-.19c.12.1 0 .36.33.3-.2.42-.45-.02-.66-.1zm12.1-.2c0-.33.23-.58.43-.4-.25.02-.07.4-.44.38zm2.68-1.28c-.4-.2.2-.3.22-.48.37.22-.23.3-.23.47zm1.3 0c.14.13.4.13.43-.1.33 0-.28.28.1.3-.06.18-.76.17-.54-.2zm.53.6l.32.3c.28 0 .18-.37.33-.5.54.6-1 .7-.66.18zm5.57 0c-.48.25-1.08-.2-1.28.3-.18-.1-.12-.42-.22-.6.32.07.76 0 .86.3.28-.2.68-.38.43-.78.47-.05.23.3.64.1-.03.32-.64.13-.44.67zm.22-2.15c-.07-.4.58-.12.85-.2-.18.34-.46.01-.86.2zm2.24 1.76c-.27 0 .15-.17 0-.4.35-.12.1.32.43.2-.02.36-.42 0-.44.2zm.1-1c0-.13.27-.08.43-.1 0 .22-.54.63.1.6-.28.53-.44-.26-.55-.48zm.64.2c-.07-.3.2-.3.1-.6.17.15.37.65-.12.6zm6.1-1c-.16-.1 0-.15-.1-.4.17 0 .4 0 .43-.1.28.17-.3.34-.35.52zm1-.3c.3-.24.4-.38-.1-.5.1-.28.26.13.53 0-.08.3.1.36.1.6-.3.27-.25-.12-.57-.07zm1.4-1.27c.5-.42.16.47.33.5-.67.32.12-.38-.38-.46zm1.08 1.76c-.22-.12-.55-.15-.54-.5a1.84 1.84 0 0 1 .75.2c-.1.16-.24.18-.26.32zm.32-.1c-.06-.3.25-.4-.1-.5-.08-.27.5.07.43-.2-.03.2.02.7-.37.72zm.43-.9c.55-.52-.3-.62-.43-1.07a4.23 4.23 0 0 0 .64.19c-.16.5.32.42.2.88zm1.4-.78v-.3a2.4 2.4 0 0 1 .64.19c-.2.23-.42-.06-.7.13zm8.78-.88c-.27 0-.25-.37-.1-.5.3.1.1.28.06.52zm.75-.5c-.2 0-.1.38-.43.3 0-.23.2-.28.1-.58.34-.1.14.32.43.3-.07.14-.16.08-.16.03zm.64-7.25c-.07-.5.46.17.54-.2.35.35-.35.37-.6.22zm.5 7.53c0-.1.13-.07.2-.1s.1-.43.54-.3c-.16.26-.3.5-.75.4zm.43-10.77v.3c-.15 0-.1-.24-.1-.4.2-.1.5-.32.75-.1-.14.4-.37.08-.64.24zm.74 2.45c-.1-.28-.12-.42.33-.4-.05.22-.04.46-.33.43zm.43-3.53c-.1 0-.2.1-.2.2-.3-.2.38-.37.53-.5.26 0-.12.26-.1.4s-.12-.06-.22-.06zm.22 3.53c0-.15.16-.25.2-.4.36.08.2.55-.2.43zm.64-4c-.14 0-.17-.17-.32-.2.4-.34-.1-.5.1-.8a.73.73 0 0 1 .21 1zm1.7-.1c0 .38-.57-.08-.64.4-.32-.2-.3-.1-.86-.1.13-.5 1.1-.3 1.5-.28zm-.1 3.14c0 .13-.2.15-.22.3-.26 0-.23-.18-.53-.1.22-.28.43-.03.75-.17zm-.54-2.55c.16.16-.43.45-.64.6-.04-.4.37-.43.64-.57zm.43 11.07h-.86c.3-.25-.24-.1-.1-.5.2-.18.2.06.53 0 .08.27-.2.2-.2.4.6 0 .37-.16.85-.3 0 .2-.3.15-.2.4zm-.32-6.56c0-.2.35-.07.32-.3.15 0 .1.25.1.4-.23.06-.3-.05-.43-.08zm-.1-.3c-.25-.14.23-.43.32-.58.1.38.64-.13.86.1-.22.34-1.1.05-1.18.5zm1.07-1c.36 0 .76 0 .75.3-.5-.16-.22.05-.2.4-.25-.02-.2-.44-.54-.65zm.86 7.74c0-.1 0-.17-.1-.2.08-.34.33-.07.54 0a.48.48 0 0 1-.43.23zm3.32-.5c-.28 0 .15.17 0 .4a5.36 5.36 0 0 1-1.5.1c-.18-.2 0-.12 0-.4-.3 0-.13.46-.54.4.16-.28-.47-.28-.32 0-.2 0-.22-.12-.42-.1a.56.56 0 0 1 .1-.48c.4-.1.3.24.64.2s.07-.33.22-.4.1.18.1.3c.2-.1.13-.4.53-.3 0 .3-.34.38-.1.6.36-.1.5-.48.86-.1.14-.14-.2-.22 0-.6.1.08.35.52.54.2.26.05.24.37.32.58-.45.2.02-.5-.43-.35zm2.14-5v.4c-.28 0-.36-.26-.43-.5a.74.74 0 0 0 .43.15zm-.43-.88c.32.16.12.35.1.68a.58.58 0 0 0-.32-.1c-.02-.22.36-.14.2-.53zm-.85 1c.1-.28.27.13.53 0 0 .1-.1.1-.1.2.23.05.2-.14.22-.3.12.16.42.3.2.5-.13-.14-.46-.1-.75-.1.01-.12.02-.26-.1-.28zm1.4 5.78c-.14.4-.55 0-.85.2.27-.25.32-.2.32-.6-.23 0-.74-.24-.74-.1v-.3s.08.08.1.2c.16-.1.1-.32.15-.5.3.2.92.1.94.58-.2 0-.28-.2-.55-.2.3.4.1.6.63.7zm3.67-3.1c-.2.35.07.24.1.6-.4.15-.54-.66-.1-.6zm-.32-.4c-.14-.25.3-.4 0-.5 0-.12.2-.08.32-.1s0 .1.1.1c-.34.01-.1.53-.46.46zm1 .68c-.23-.1.1-.5.32-.5.05.37-.3.32-.4.5zm12.1-.4c-.08.28.15.25.1.5-.45.05-.7-.52-.18-.5zm-3.32-4c.33.12.35.28.1.5-.34-.02-.32-.38-.18-.5zm-.64.2c.17 0 .1-.3.43-.2a.62.62 0 0 1-.11.49h-.32c-.15-.06 0-.38-.2-.4 0-.17.17-.07.14.1zm0 .78s.5 0 .75.1.22-.2.43-.2c0-.22-.38 0-.54-.1-.1-.36.57-.18.65-.1-.2.38.06.44.42.3 0 .3-.33.3-.2.7-.14-.17-.6-.54-.64 0-.38-.67-.35.4-.64-.3a.27.27 0 0 0-.22.29c-.2-.1-.37-.18-.32-.5.12.2.5 0 .25-.2zm-.32 1.28a8.49 8.49 0 0 0 1.07.19c0 .15-.64.15-.1.2a.46.46 0 0 1-.85-.1c-.12.07 0 .3-.22.5-.28-.26-.32.12-.64.1-.05-.1-.1-.17-.2-.2.1-.36.87-.2.9-.7zm-1.82.1h.32c-.56.35.44.23.1.58-.12-.1-.2-.28-.53-.2.22-.2.03-.14.04-.4zm-1.4-1c-.2.32-.44.06-.86.1.07-.25.5-.18.8-.08zm-1.6-.5c.36 0 .1.55.32.68-.06.24-.2-.25-.43-.2.07-.22-.08-.17.04-.48zm-1.5 2.64c.14-.2.22.23.54 0 0 .4-.5.27-.54.6-.52-.36.25-.4-.07-.58zm-.75 1.47c0-.15 0-.37-.1-.4 0-.13.64 0 .54.3a.61.61 0 0 1-.5.11zm0-.68c-.23-.2-.23-.4 0-.6.12 0 .27.17.1.2 0 .12.2.1.32.1-.04.27-.3.26-.5.3zm1.3.5c-.7 0-.26-.44-.75-.5.1-.15.34-.15.53-.2.05.2.5.4.15.7zm-.32-1.48c0-.1 0-.17-.1-.2.47-.22-.4-.63.32-.7-.3.25.16.44.2.1.18.2-.23.7-.5.8zm1.6 1.18a.24.24 0 0 0 0-.39c-.15.25-.73.1-.75.5-.3 0-.2-.46-.43-.6.27-.34 1.08-.2 1.18-.7.22.1.22.4.54.4-.24.28-.17.77-.6.8zm1-.4c-.1.28-.06.24-.33.3-.23-.14.08-.24-.1-.5.48.08 1.07.07 1.07.6-.16-.27-.7-.1-.74-.38zm1-1.08h-.54c0-.27-.17-.2 0-.4.1 0 .1.12.1.2.2 0 .23-.12.43-.1 0-.12 0-.18-.1-.2.2-.28-.02.3-.03.5zm.64 1c.08.3-.1.36-.1.6-.2.1-.06-.56-.2-.2a4.43 4.43 0 0 1-.21-.58c.42.37.38.1 1 0-.1.3-.45.34-.6.18zm1 .3c-.18-.2 0-.13 0-.4-.4.15.1.5-.43.5 0-.3.2-.4.1-.78.4.1.3-.24.65-.2-.5.26.18.88-.5.88zm.53 1.07c0-.25.36-.2.64-.2-.2.35-.55.26-.8.18zm1.07-1.56c-.47.14-.66 0-1.07.1 0-.2.07-.26.1-.4.14 0 .17.17.32.2 0-.27-.18-.2 0-.4.37.1.45-.18.64 0-.34.36-.34.1-.17.5zm.43-.8c0 .18.13.2.1.4-.34.1-.33-.15-.54-.2-.14-.18.02-.24.26-.2zm.1.7c-.1 0-.2.08-.22.2-.32-.06.1-.2 0-.4.28 0 .56 0 .54.3-.34.01-.35-.14-.5-.14zm.32-.3c-.47-.27 0-.85-.2-1.27.1 0 .08.12.1.2.2 0 .23-.12.43-.1-.07.1-.13.17 0 .2-.68.15-.32.63-.5.97zm.1-.4c0-.4.5-.26.53-.6l.75.1c-.1.36-.3.06-.64.1-.08.26.22.2.32.3-.5.2-.84 0-1.17.1zm1 1c-.36.33-.7-.2-.75-.5.53 0 .36.2.32-.3.48.24.5-.35 1.07-.3a.28.28 0 0 0 .22.3c-.25.15-.2.2-.1.5-.27.1-.6.32-.75 0-.35-.01-.35.26-.2.26zm.43-2.06a.86.86 0 0 1 .53.49c-.45.22-.8-.14-.74-.52zm-.32 2.55a1.44 1.44 0 0 0 .43-.59c.26 0 0 .33-.1.3 0 .2.47 0 .53.2-.28.33-.63-.05-1.06.07zm.85-.5c.22-.07-.06-.58.33-.5-.2.25-.2.5-.5.46zm2.15-2.84c-.1.15-.27.2-.54.2 0-.18-.13-.2-.1-.4.2 0 .22.1.1.1-.08.27.22-.17.33.07zm-.65-.88c.17.3-.42.62-.64.88-.25 0-.12-.28-.32-.3.3.05.3-.45.75-.62zm-1.6-.4c.34.1.66-.3.85 0-.06.23-.33.27-.85.3zm-.22 1c-.15.23-.22.18-.1.5-.23 0-.52-.44-.65-.2-.48-.36.23-.46.54-.34zm-.53-1a.9.9 0 0 1-.86.29c-.1-.3.54-.38.65-.32zm-2-4.6c.23 0 .3.07.43.1-.1.28-.42.12-.2.5a.61.61 0 0 0-.32-.1.57.57 0 0 0-.15-.52zm.54.1c.28 0 .27.2.32.4-.23.05-.28-.06-.43-.1a.45.45 0 0 0-.14-.33zm.1 1.47c0-.33.55-.2.42.2-.4-.08-.52-.18-.67-.23zm-.2-.68c-.12 0-.26 0-.33.1a.51.51 0 0 0 .32-.09c.35-.07.76.05.74.3a.63.63 0 0 1-.98-.32zm.85 0c.4-.44.55.14.75.5-.6-.1-.6-.5-1-.52zm.53-2a.4.4 0 0 1 .11.29c.13.14.4.15.54.3-.43.33-.85-.2-.75-.68a.59.59 0 0 1 .42-.1c0-.13-.18-.15-.2-.3-.1.36-.7.26-1.07.4.07.1.25.1.2.3.13 0 .1-.18.1-.3.22 0 .28.07.43.1-.14-.2-.27.23-.18.34-.34.17-.62 0-1-.34.62-.07 0-.5-.1-.88a6.79 6.79 0 0 0 1.18.29c.14 0 .14-.3 0-.3 0-.15.32 0 .32-.2.06.16.45.7.43.1.43.12 0 .2 0 .5s.3-.14.43.1c0-.17-.08-.2-.2-.2.1-.15.34-.14.53-.2-.32.6-.9.65-1.43.8zm2.47 2.15c0-.17.12-.2.22-.28 0 0 0-.07.08-.1s0 .1-.08.1c0 .17.28.12.2.38-.47.05-.53-.06-.67-.1zm4.07-1.17c-.2-.3-1.18-.26-1.5.1.22 0 .9-.08 1 .5-.2 0-.23-.12-.43-.1 0 .15.34.08.22.4-.52.05-.38-.5-.75-.6-.1.25-.3.37-.32.7-.27.1-.52-.37-.1-.3 0-.17-.6-.17-.43.1-.18-.28-.13-.23-.43-.3a3.65 3.65 0 0 1-.34.18s-.2 0-.2.1.13-.07.2-.1a.47.47 0 0 0-.41-.18.48.48 0 0 1 .43-.2c-.07-.2-.54 0-.43-.4-.1.18-.5.57-.32.68-.46.32-.25-.8-.86-.68 0-.2.08-.26.1-.4.26-.08.5.48.54 0 .38.25.64 0 1 .3.13 0 .1-.18.1-.3.37.44 1.56-.32 1.82.3.1-.4.53-.1.53-.4.57.32 1-.16 1.82.1 0 .08-.1.1-.1.2s-.1 0-.1.1c-.6-.45-.9.17-1.27.22zm7 1.07c.05-.32.4-.14.64-.1-.32.22-.74.05-.93.1z"/><path d="M125.08 31.74s-.1 0-.1-.1c.1.2-.37.38-.72.5l.82.07c0-.14 0-.3-.14-.38.13.01.12-.03.15-.1z"/></g><g fill="#6bb0e4"><path d="M20.35 37.26l.26.2c.05.06 0 .07-.05 0l-.32-.2-.24-.1-.3-.17a5.68 5.68 0 0 0-1.28-.51 6.73 6.73 0 0 0-1.28-.17 4.57 4.57 0 0 0-.83 0 1.63 1.63 0 0 0-.38.09l-.06.17-.8 2.26-.35.8-.27.54a5.74 5.74 0 0 1-1.6 1.87 2.82 2.82 0 0 1-1.35.48h-.43a1.8 1.8 0 0 1-.46-.1 1.83 1.83 0 0 1-.77-.43 2.27 2.27 0 0 1-.53-1.51 2.85 2.85 0 0 1 .36-1.39 5 5 0 0 1 1.72-1.8 8.4 8.4 0 0 1 3.18-1.18q.4-1.35 1-3.8l.05-.17v-.08h-.05v-.25a.86.86 0 0 0-.07.12l-.1.16-.46.42v.08a6.88 6.88 0 0 1-.81.73l-.4.34-.43.37c-.08.07-.1.1-.1.12a7.64 7.64 0 0 1-1 .68l-.3.17a3.14 3.14 0 0 1-.48.19 1.73 1.73 0 0 1-1 .07 1.46 1.46 0 0 1-.79-.51 1.53 1.53 0 0 1-.32-.89 2.37 2.37 0 0 1 0-.52v-.26c0-.1 0-.14.06-.2a5.1 5.1 0 0 1 .22-.61 9.9 9.9 0 0 1 1.21-2 6.88 6.88 0 0 1 .79-.91 2.61 2.61 0 0 1 .25-.23l.26-.2a4.76 4.76 0 0 1 .54-.34l.37-.16a2.72 2.72 0 0 1 .51-.13 2.93 2.93 0 0 1 .66 0 2 2 0 0 1 .72.25 1.32 1.32 0 0 1 .5.61 1.22 1.22 0 0 0-.41-.44 1.38 1.38 0 0 1 .46.56.83.83 0 0 1 0 .22l.8-1a1.87 1.87 0 0 0 .87.08l.08.1.05.06.07.07a2.64 2.64 0 0 0 .4.35L17.18 32l-.47 1.78-.63 2.22a8.26 8.26 0 0 1 4.05 1h-.06l.13.1.07.06zm-7 2.23a16.43 16.43 0 0 0 .91-2.34v-.3c-.22 0-.4.08-.6.13.12 0 .1.06-.07.16l-.3.15-.17.1-.2.1a4.16 4.16 0 0 0-.66.42c-.2.15-.26.24-.2.26a4.47 4.47 0 0 0-1.28 1.06 1.71 1.71 0 0 0-.45 1.48.82.82 0 0 0 .51.66.64.64 0 0 0 .39 0 1.55 1.55 0 0 0 .46-.13 3.64 3.64 0 0 0 1.65-1.75zm1.42-9.1l.84-.94a1.26 1.26 0 0 0-.7-.88 1.85 1.85 0 0 0-.58-.16 2.07 2.07 0 0 0-.5 0 1.57 1.57 0 0 1 .53 0h.18l.12.05c.08 0 .06.06-.07 0h-.13a.48.48 0 0 0-.17 0 1.84 1.84 0 0 0-.41 0 3.15 3.15 0 0 0-1 .42l.2-.1.23-.1.2-.07h.07a.76.76 0 0 1-.22.11h-.2l-.22.12a3.62 3.62 0 0 0-.43.24l-.26.2s.06 0 .18-.1h.05l.1-.07.24-.16a2.69 2.69 0 0 1 .54-.25.84.84 0 0 1 .34-.07 3.19 3.19 0 0 0-1 .51l-.3.2q-.06.1.06 0l.07-.05.1-.06.2-.14a2.1 2.1 0 0 1 .42-.24c.14-.07.2-.1.2-.06a4.73 4.73 0 0 0-1 .63c.2-.14.3-.18.33-.13a0 0 0 0 0 0 0h.16a1.51 1.51 0 0 1 .7-.17c.06 0 0 0 0 .1l-.1.05h-.06l-.06.05-.33.24-.1.07h-.06a2.15 2.15 0 0 0-.26.24 5.79 5.79 0 0 0-.63.72l.3-.28a4 4 0 0 1 .32-.29 9.33 9.33 0 0 0-1 1.66 8.78 8.78 0 0 0-.45 1 1.73 1.73 0 0 0-.08.27q0 .14 0 .12a.2.2 0 0 0 0 .11.08.08 0 0 0 .09 0h.07a6.91 6.91 0 0 0 1-.71l.2-.18a14.57 14.57 0 0 0 1.24-1.12l.38-.4.28-.28zm.86-1a1.23 1.23 0 0 0-.83-.91 1.16 1.16 0 0 1 .27.14 1.63 1.63 0 0 1 .27.25 1.15 1.15 0 0 1 .28.55zm-.52-.8a1.13 1.13 0 0 0-.21-.12 1.13 1.13 0 0 1 .23.15zm9.7.6s0 .05.14 0h.14a1.14 1.14 0 0 1-.34.18l-.13.06-.13.05-.24.1c-.64.33-1 .6-1 .78 0 0-.12.07-.36.1v.56q0 .1 0 .24v.22s0 .06 0 0a5.54 5.54 0 0 1-.61 1.84 3.66 3.66 0 0 1-.73.83v.06a2.71 2.71 0 0 1-1.3.65c-.08 0-.1 0-.1.06a2.62 2.62 0 0 1-.79 0 2 2 0 0 1-.81-.29 1.72 1.72 0 0 1-.65-.66 2.22 2.22 0 0 1-.28-.77 4.08 4.08 0 0 1 0-1.34 6.85 6.85 0 0 1 .38-1.05 4.49 4.49 0 0 1 .52-.75l.07-.07.08-.06a1.14 1.14 0 0 1-.21-.89 1.29 1.29 0 0 1 .5-.79 2.22 2.22 0 0 1 .77-.38 2.4 2.4 0 0 1 .8-.08 2 2 0 0 1 .8.22 2.59 2.59 0 0 1 .68.45 2.91 2.91 0 0 1 .78 1.37v.06a7.23 7.23 0 0 0 2.02-.72zm-4.42 4a2.37 2.37 0 0 0 .49-.67 4 4 0 0 0 .45-1.46 4.77 4.77 0 0 1-1.63-.42 4.45 4.45 0 0 1-.54-.28 2.56 2.56 0 0 1-.4-.34 3.83 3.83 0 0 0-.31.52 1.2 1.2 0 0 1 .22-.27v.05c0 .05 0 .14-.1.3v.2l-.08.26a1.8 1.8 0 0 1 .08-.21c0-.08.07-.12.07-.1s0 .13-.1.32l-.05.1-.06.1c0 .08 0 .13-.05.16s.07-.1.16-.32l.12-.26c.02-.06.07-.12.1-.13a2.77 2.77 0 0 0-.13.34l-.06.18-.06.16q0 .1.12-.2V31c0-.08.05-.1.06-.1l-.2.55c.06-.1.1-.15.15-.13h.06l.15-.15.07-.08.13-.1c.08 0 .07.1 0 .4a1.68 1.68 0 0 1-.06.31v.53q.1-.2.18-.36a3.64 3.64 0 0 0 0 .88c0 .35.1.57.22.65a.5.5 0 0 0 .22.1.84.84 0 0 0 .35 0h.08l.17-.07a1.5 1.5 0 0 0 .17-.21zM18.7 30l-.1.18.06-.08.06-.1zm.05.05l-.1.2a.93.93 0 0 1 .11-.25zm1-.8a0 0 0 0 0 0 0 1 1 0 0 0 .23.19 2.59 2.59 0 0 0 1.22.37 1.57 1.57 0 0 0-.21-.41 1 1 0 0 0-.58-.36.92.92 0 0 0-.52 0h-.08z"/><path d="M32.44 35.2a.32.32 0 0 1-.14.05.38.38 0 0 1-.18 0 .51.51 0 0 1-.23-.12.53.53 0 0 1-.16-.17 2.1 2.1 0 0 1-.15-.22l-.22-.4a1 1 0 0 0-.32-.36s-.06-.15-.1-.42 0-.52 0-.76c0 .08-.08.06-.13-.06s-.06-.26-.1-.48a2.58 2.58 0 0 0-.1-.42q0-.14-.12 0c0-.16 0-.34.06-.55l.15-1.15V30l-.05.12-.36.85-.37.7-.23.34-.1.15-.06.06v.06a.46.46 0 0 0-.07.07 3.7 3.7 0 0 1-.61.54 2.27 2.27 0 0 1-.84.39 1.41 1.41 0 0 1-1.11-.18 2.63 2.63 0 0 1-.68-.66 6.12 6.12 0 0 1-.42-.68.15.15 0 0 0 0-.07v-.07.1c0-.1 0-.14-.05-.15v.32c-.06.24-.14.48-.22.72a13.75 13.75 0 0 1-.82 1.41 8.42 8.42 0 0 1-.83 1.37 4.56 4.56 0 0 1-1.26 1.16 2.17 2.17 0 0 1-.56.22 3 3 0 0 1-.78.11 1.6 1.6 0 0 1-.39 0 3.13 3.13 0 0 0 .44 0 2.07 2.07 0 0 1-.5 0h-.12a4.11 4.11 0 0 0 .47 0 4.32 4.32 0 0 1-.51 0 3.33 3.33 0 0 0 .63 0 2.23 2.23 0 0 0 .61-.13 1.79 1.79 0 0 1-.49.06c-.08 0-.08 0 0-.06a.51.51 0 0 1 .15-.07l.1-.05h.12a3.25 3.25 0 0 0 .61-.35 2.13 2.13 0 0 1-.28.16c-.1.06-.17.08-.17.07s0-.06.13-.1h.13l.14-.08a2.07 2.07 0 0 0 .45-.31l-.12.06h-.14a.76.76 0 0 1-.16.11 1.41 1.41 0 0 1-.34.19.43.43 0 0 1-.22.06 1.67 1.67 0 0 0 .44-.25l.2-.14.2-.15h-.06l-.1.08h-.06l-.07.05a1.51 1.51 0 0 1-.26.18c-.1 0-.14.07-.13 0a5.61 5.61 0 0 0 .67-.45c-.14.08-.23.1-.25.06h-.12l-.28.07a.47.47 0 0 1-.2 0v-.08l.33-.28.1-.12.1-.08a5 5 0 0 0 .4-.45l-.42.33a5.4 5.4 0 0 0 .61-1.08 11.86 11.86 0 0 0 .59-1.49l.28-.86v-.22l.12-.42.2-.83.07-.38c0-.28.1-.55.14-.82l.16-1.13a2.13 2.13 0 0 0 .56-.15.56.56 0 0 0 .15-.1l.06-.05a.35.35 0 0 0 .19.19 2.38 2.38 0 0 0 .63.19c0 .25.06.5.1.72s0 .2.05.3l.07.28a9.48 9.48 0 0 0 .26 1 7.46 7.46 0 0 0 .32.89l.06.13v.1l.1.2a1.31 1.31 0 0 0 .36.47h.1a1.42 1.42 0 0 0 .4-.23 3 3 0 0 0 .38-.35l.15-.17.1-.1.08-.1.28-.38.42-.64a11 11 0 0 0 .64-1.29l.68.13a.65.65 0 0 0 .2 0h.23l.6.17-.33 3.2v1.55a3.46 3.46 0 0 0 .25 1.14c0 .06.07.1.1.16h.15c-.06 0 0 .06.1.06h.13zm8.1-3.67l-.2.17-.14.1-.2.2a4.71 4.71 0 0 0-.54.58 7.63 7.63 0 0 0-.59 1 .71.71 0 0 0-.08.44s-.08.13-.26.27a1.71 1.71 0 0 1-.54.31c.07 0 .08.06 0 .13a1 1 0 0 1-.33.17.3.3 0 0 1-.31-.06l-.1-.1v-.12c-.1-.15-.17-.2-.2-.2a4.62 4.62 0 0 1-.04-1.14v-1.46l-.1.13a.13.13 0 0 1 0 .06l-.1.16-.37.5-.08.1-.1.1-.14.2v.06a7.58 7.58 0 0 1-.75.83 3.79 3.79 0 0 1-.45.38 2.69 2.69 0 0 1-.27.2 3.83 3.83 0 0 1-.43.23 1.79 1.79 0 0 1-1 .14 1.22 1.22 0 0 1-.77-.39h-.08a1.5 1.5 0 0 1-.4-1 4.18 4.18 0 0 1 0-.56v-.26a1.55 1.55 0 0 1 0-.21v-.1a8.53 8.53 0 0 1 .51-1.34 10.17 10.17 0 0 1 .68-1.21 7.34 7.34 0 0 1 .91-1.13 4.7 4.7 0 0 1 .63-.51 2.14 2.14 0 0 1 .92-.35.91.91 0 0 1 .33 0 1.85 1.85 0 0 1 .42.11 1.71 1.71 0 0 1 .49.35q.1-.27.18-.5l1.54.5-.16.7c-.05.24 0 .18 0 .27v.2l-.4 2.75a10.3 10.3 0 0 0 0 1.32v.14a5.39 5.39 0 0 0 .6-.55l.3-.34.16-.18.16-.2.78-.8v.05l.1-.05h.1a.89.89 0 0 1 .27-.11zM35 32.1a13.33 13.33 0 0 0 1.91-3.43h-.1l-.24-.1a1.34 1.34 0 0 0-.6 0 1.22 1.22 0 0 1 .27 0q.14 0 .12 0a.41.41 0 0 1-.17 0h-.35a1.25 1.25 0 0 0-.31.07.53.53 0 0 0-.2.1h.28l.18-.05a1 1 0 0 1 .4 0c.12 0 .2.05.22.1a.87.87 0 0 0-.51 0 3 3 0 0 0-.45.15h.1l.14-.05a.78.78 0 0 1 .31-.05h.13a1.4 1.4 0 0 0-.74.17.42.42 0 0 1 .19 0s.06.07.13.07a.69.69 0 0 1 .24.05.29.29 0 0 1 .13.08s0 .06-.05.07H36l-.16.07-.16.1a4.24 4.24 0 0 0-.39.33 3.15 3.15 0 0 1 .4-.21 4.16 4.16 0 0 0-.62.85 10.27 10.27 0 0 0-.69 1.26 8.43 8.43 0 0 0-.56 1.4v.13a0 0 0 0 0 0 0v.1a.07.07 0 0 0 0 .06h.16l.1-.06.2-.16.4-.35zm2-3.55a1.17 1.17 0 0 0-.42-.26 1.62 1.62 0 0 1 .29.19l.07.07z"/><path d="M49.85 26.27v.05a.66.66 0 0 0-.39.13 1.79 1.79 0 0 0-.26.2 1.29 1.29 0 0 0-.21.24 3.93 3.93 0 0 0-.5.9 5.88 5.88 0 0 0-.24.85 4.05 4.05 0 0 0-.08.55.91.91 0 0 0 .09.53 1.44 1.44 0 0 1-.12.46l-.27.78q.18-.16 0 .63v.3l-.05.26v.25l-.58 1.15a3.56 3.56 0 0 1-.39.57 2.35 2.35 0 0 1-.22.26 3 3 0 0 1-.29.25 1.22 1.22 0 0 1-1 .27 1 1 0 0 1-.74-.71 3 3 0 0 1-.11-.45c0-.1 0-.22-.06-.35s0-.4-.05-.68v-.45l-.17.27-.1.12-.07.12-.3.44c-.06.1 0 .07 0 .06a18.8 18.8 0 0 1-1.51 2l-.56.48a3.25 3.25 0 0 1-.74.45l-.1.05h-.63a1.13 1.13 0 0 1-.84-.71 2 2 0 0 1-.1-.36V35a2.44 2.44 0 0 1 0-.26v-.35h-.06a14.8 14.8 0 0 1 .36-1.61l.23-.75.23-.73.44-1.44.35-1.4V28a2.71 2.71 0 0 0 .1-.52v-.22a.89.89 0 0 1 0 .26q0-.2 0-.3v-.06a1.36 1.36 0 0 1 .07.39 1.94 1.94 0 0 0 0-.24.7.7 0 0 0 0-.17.7.7 0 0 1 .07.36 3.87 3.87 0 0 1 0 .48 2.31 2.31 0 0 1 .09-.38h.06a1.52 1.52 0 0 1 0 .37 5.2 5.2 0 0 1-.07.64v-.02l-.05.16v.36c0 .03.07-.12.15-.46v-.37a2.2 2.2 0 0 1 .06-.22v.5a2.81 2.81 0 0 1-.1.49c0 .06 0 .05 0 0s0-.16.07-.3v-.46c0 .23-.1.5-.16.82.05-.16.1-.23.15-.22 0 0 0-.05.07-.1l.08-.14.08-.16a1.12 1.12 0 0 1 .1-.2s.06 0 .07.07a3.05 3.05 0 0 1 0 .55 5.15 5.15 0 0 1-.26 1.2l.25-.6q-.1.73-.24 1.5l-.68 2.66-.17.8a4.52 4.52 0 0 0 .49-.49l.74-.92a20.78 20.78 0 0 0 1.42-2.2l.6-1.13.24-.54c.06-.15.06-.17.08-.24a.23.23 0 0 0 0-.07h1.42v.1h.15l-.14 2c-.03.6 0 1 0 1.17a8.4 8.4 0 0 0 0 1.32h.06a1.64 1.64 0 0 0 .16-.23 6.66 6.66 0 0 0 .57-1.14l.5-1.3.24-.66.23-.68.52-1.4a6.25 6.25 0 0 1 .33-.72 3.6 3.6 0 0 1 .22-.4l.07-.1.08-.1a2.61 2.61 0 0 1 .23-.25c-.07.1-.07.1 0 .06l.1-.06a.67.67 0 0 1 .21-.1l.2-.07h.1l.48-.07zm-9.47 8.62zm14.88-3.15s0 .07-.12.15v.06L55 32l-.1.1a.73.73 0 0 0 0 .75s0 .06-.07.14l-.2.2c.08 0 .1.13 0 .32v.1a.52.52 0 0 0 0 .11.15.15 0 0 0 0 .15l-.33.27-.2.14a1.14 1.14 0 0 0-.16.14l-.2.2a1.62 1.62 0 0 1-.28.25 1.42 1.42 0 0 1-.87.25 1 1 0 0 1-.76-.43 2 2 0 0 1-.33-.91c0-.22-.06-.46-.08-.7v-.47a.8.8 0 0 0 0-.16h-.8l-.17-.1v.06h-.05a.13.13 0 0 0-.1 0h-.47q-.14.6-.15.75a6.47 6.47 0 0 0-.42 2.33h-.08a0 0 0 0 1 0 0 .16.16 0 0 1 0-.1v.12a.24.24 0 0 0 0-.08.63.63 0 0 0-.45-.37v-.1a1.54 1.54 0 0 1 0-.19c-.07 0-.15 0-.22-.17v-.16a.14.14 0 0 0-.12-.08v-.15l-.22-.2a2.32 2.32 0 0 0 .08-.3 1.21 1.21 0 0 0 0-.2v-.22c0-.25.06-.55.08-.9v-.86a.69.69 0 0 0 0-.13v-.2a.39.39 0 0 0 0-.13 5.54 5.54 0 0 1 .11-.56l.15-.28h-.06a.38.38 0 0 1 .07-.17v-.08a.29.29 0 0 0 0-.09 0 0 0 0 0 0 0l.43-1.42s0-.05.07-.1l.06-.07.07-.06.1-.07v.1a.69.69 0 0 1 0-.1v.14a.15.15 0 0 0 0-.07.43.43 0 0 1 0 .14v.13c.07-.1.12-.12.15-.07a.43.43 0 0 1 0 .27v-.07.12a.09.09 0 0 0 0 .05s.06 0 .08-.1v-.05.13a.18.18 0 0 1 0 .11l.06-.06v-.1l-.06.2a.12.12 0 0 1 .12 0h.2c.06 0 .1.05.1.17a.49.49 0 0 1 0 .29l.13-.12v.38a3.15 3.15 0 0 1-.15.94v.05c0 .14-.1.36-.17.65h.57l.65.05h.36v-.22a.56.56 0 0 0 .07-.24.05.05 0 0 0 0 0h.33a14.44 14.44 0 0 1 .65-2 .52.52 0 0 1 .12-.16v-.05l.1-.1.14-.1-.07.15a.39.39 0 0 1 .1-.16c0 .07-.07.14-.1.22l.06-.1.2-.54V28l-.06.1v.1l-.1.18c.2-.25.25-.15.13.3v-.15.16a.2.2 0 0 0 0 .08s.05 0 .1-.15v-.07s0-.06.06-.06v.17a.5.5 0 0 1-.05.16s.05 0 .08-.1v-.05s0-.05 0 0l-.1.27a.1.1 0 0 1 .12 0 .07.07 0 0 0 .06 0h.13a.26.26 0 0 1 .1 0c.06 0 .08.07.06.23a.35.35 0 0 1 0 .16v.22l.15-.17v.5a4.74 4.74 0 0 1-.09.61q-.06.3-.15.63v.2h.53a.31.31 0 0 0 0 .08h-.05a.59.59 0 0 0-.24.45.08.08 0 0 1-.08 0h-.12a.29.29 0 0 1-.11.24h-.05v.06a.21.21 0 0 0 0 .13A7.22 7.22 0 0 0 53 33a3.53 3.53 0 0 0 0 .56l.1-.08a5.25 5.25 0 0 0 .64-.54l1.2-1.32h.22z"/><path d="M61.73 34.46a.5.5 0 0 1-.09.13l-.18.17a1.3 1.3 0 0 1-.43.2 1.07 1.07 0 0 1-.44.06h-.33a1.35 1.35 0 0 0-.42-.06l-.1-.1a1.29 1.29 0 0 1-.13-.24 2.26 2.26 0 0 1-.18-.7c0 .1-.08.07-.14 0a2.37 2.37 0 0 1-.15-.47v-.33a1.91 1.91 0 0 0-.06-.27 14.47 14.47 0 0 1-1.23 1.68 11.56 11.56 0 0 1-1.1 1.11 5.48 5.48 0 0 1-1.41.93l-.34.02a2.25 2.25 0 0 1-.4.06 1.5 1.5 0 0 1-1-.33 1.27 1.27 0 0 1-.31-.43 1.79 1.79 0 0 0 .23.26 1.31 1.31 0 0 1-.27-.35v-.14a1.54 1.54 0 0 0 .45.53 1 1 0 0 1-.21-.2l-.15-.2v-.14a1.38 1.38 0 0 0 .2.33 1.65 1.65 0 0 0 .31.29 1.24 1.24 0 0 0 .79.2 1.31 1.31 0 0 1-.41-.06l-.12-.06c-.06-.05 0-.07.06-.05h-.04a1.09 1.09 0 0 0 .31 0 2.11 2.11 0 0 0 .64-.2 1.31 1.31 0 0 1-.28.09h-.15a.36.36 0 0 1 .16-.08h.07L55 36l.16-.06a1.65 1.65 0 0 0 .5-.24h-.28l-.18.08a1.24 1.24 0 0 1-.38.14.46.46 0 0 1-.25 0 1.86 1.86 0 0 0 .51-.16l.23-.13.1-.06h-.15a1.11 1.11 0 0 1-.29.14h-.15a4 4 0 0 0 .75-.35c-.15.07-.24.08-.26 0h-.13a.83.83 0 0 1-.48 0v-.08l.13-.08h.05l.13-.07.13-.1h.05l.1-.08a6.32 6.32 0 0 0 .5-.39l-.24.14-.25.14a9.54 9.54 0 0 0 .86-1l.74-1a2 2 0 0 1-.85-.12 1.51 1.51 0 0 1-.89-1 2.43 2.43 0 0 1-.11-1.15 5.13 5.13 0 0 1 .21-1 5.43 5.43 0 0 1 .3-.59.25.25 0 0 1 0-.07l.12-.2a4 4 0 0 1 1.09-1.05c.07 0 .08-.06 0-.07a2.43 2.43 0 0 1 1.66-.36 2.09 2.09 0 0 1 .9.43 2.23 2.23 0 0 1 .56.71 1.88 1.88 0 0 1 .14.42v.1a.39.39 0 0 1 0 .14v.32l.48.18a9 9 0 0 0-.56 3.84c0 .15 0 .3.07.45a1.35 1.35 0 0 0 .09.32.93.93 0 0 0 .34.41.67.67 0 0 0 .87-.18s0 .05 0 0a.28.28 0 0 0 .13-.07zm-5.1-2.87a.11.11 0 0 0 .08 0 .35.35 0 0 0 .15 0 1.38 1.38 0 0 0 .75-.34 2.05 2.05 0 0 0 .27-.25 1.46 1.46 0 0 0 .16-.19 4.27 4.27 0 0 0 .42-.56l.07-.2a1.54 1.54 0 0 0 .07-.48v-.14a.9.9 0 0 0-.1-.22.43.43 0 0 0-.24-.21.72.72 0 0 0-.42 0 1.9 1.9 0 0 0-1 1 3.25 3.25 0 0 0-.26.7 1.68 1.68 0 0 0-.06.63.69.69 0 0 0 0 .17.17.17 0 0 0 .11.1zm11.9 2.87a.5.5 0 0 1-.09.13 1.49 1.49 0 0 1-.18.17 1.3 1.3 0 0 1-.43.2 1 1 0 0 1-.43.06h-.34a1.33 1.33 0 0 0-.41-.06s-.06 0-.1-.1a.89.89 0 0 1-.14-.24 2.26 2.26 0 0 1-.18-.7c0 .1-.07.07-.13 0a1.8 1.8 0 0 1-.16-.47v-.33c0-.12-.05-.2-.07-.27a14.47 14.47 0 0 1-1.23 1.68 10.51 10.51 0 0 1-1.1 1.11 5.48 5.48 0 0 1-1.41.93 1.61 1.61 0 0 1-.29.09 2.25 2.25 0 0 1-.4.06 1.5 1.5 0 0 1-1-.33 1.43 1.43 0 0 1-.31-.43 1.79 1.79 0 0 0 .23.26 1.56 1.56 0 0 1-.27-.35v-.14a1.62 1.62 0 0 0 .44.53 1.34 1.34 0 0 1-.21-.2 1.1 1.1 0 0 1-.14-.21l-.2-.16v-.05a1.38 1.38 0 0 0 .2.33 1.68 1.68 0 0 0 .32.29 1.22 1.22 0 0 0 .79.2 1.33 1.33 0 0 1-.42-.06l-.12-.06c-.06-.05 0-.07.06-.05h.2a1.08 1.08 0 0 0 .31 0 2 2 0 0 0 .64-.2 1.15 1.15 0 0 1-.28.09h-.14s.06-.05.16-.08h.13l.17-.06a1.56 1.56 0 0 0 .49-.24h-.27l-.2.08a1.15 1.15 0 0 1-.38.14.46.46 0 0 1-.25 0 1.86 1.86 0 0 0 .51-.16l.23-.13.1-.06h-.14a1.35 1.35 0 0 1-.3.14q-.15.06-.15 0a3.53 3.53 0 0 0 .75-.35c-.15.07-.24.08-.26 0h-.12a.86.86 0 0 1-.49 0v-.08l.13-.08h.06l.13-.07a.58.58 0 0 1 .13-.1h.05l.1-.08a6 6 0 0 0 .49-.39l-.23.14-.26.14A9.54 9.54 0 0 0 63 34l.74-1a2 2 0 0 1-.85-.12 1.53 1.53 0 0 1-.89-1 2.56 2.56 0 0 1-.11-1.15 4.46 4.46 0 0 1 .22-1 4 4 0 0 1 .29-.59.2.2 0 0 1 0-.07l.12-.2a3.94 3.94 0 0 1 1.1-1.05c.06 0 .07-.06 0-.07a2.39 2.39 0 0 1 1.65-.36 2 2 0 0 1 .9.43 2.26 2.26 0 0 1 .57.71 4.13 4.13 0 0 1 .14.42v.57l.48.18a8.86 8.86 0 0 0-.55 3.84A3.47 3.47 0 0 0 67 34a1.34 1.34 0 0 0 .1.32.91.91 0 0 0 .33.41.67.67 0 0 0 .87-.18s0 .05 0 0a.26.26 0 0 0 .12-.07zm-5.1-2.87a.12.12 0 0 0 .09 0 .31.31 0 0 0 .14 0 1.35 1.35 0 0 0 .75-.34 2.05 2.05 0 0 0 .27-.25l.17-.2a5.5 5.5 0 0 0 .41-.56l.07-.2a1.54 1.54 0 0 0 .07-.48v-.08a.9.9 0 0 0-.1-.22A.43.43 0 0 0 65 29a.72.72 0 0 0-.42 0 1.92 1.92 0 0 0-1 1 2.82 2.82 0 0 0-.27.7 1.92 1.92 0 0 0-.06.63.69.69 0 0 0 .05.17.17.17 0 0 0 .14.09zm17.9-4.3h-.16a2.09 2.09 0 0 0-.32-.05 1.57 1.57 0 0 0-.69.06 1.7 1.7 0 0 0-.52.27 1.27 1.27 0 0 0-.27.25.52.52 0 0 0-.12.36s-.06.08-.2.18l-.4.28c.06 0 .08 0 .05.13l-.07.12v.14a1.39 1.39 0 0 0-.17.29v.17l-.25.22-.27.23a4.47 4.47 0 0 0-.49.5l-.5.73a7.54 7.54 0 0 0-.62 1.08 2.81 2.81 0 0 1 .58.51L77 33l.23.22a2.83 2.83 0 0 0 .57.41.8.8 0 0 0 .41.11h.1a1.34 1.34 0 0 0 .54-.57l.28-.46.14-.25.13-.25h.16l-.06.12-.05.08v.07a.56.56 0 0 0 .22.55v.27c.08 0 .13.1.15.23v.17a.16.16 0 0 0 .08.11 2.22 2.22 0 0 1-.19.23l-.1.1-.1.12v.17c0 .08-.08.15-.1.2a1.71 1.71 0 0 1-1 .57 2.41 2.41 0 0 1-1.23-.2l-.16-.12-.1-.05-.06-.06-.13-.08a3.23 3.23 0 0 1-.5-.35l-.22-.1-.08-.14a.3.3 0 0 1-.11-.13v-.1l-.07-.06-.18.83v.44l-1.54-.27v-.37a2.74 2.74 0 0 0 0-.32c0-.46.08-.9.13-1.33l.16-.7h-.05a2.21 2.21 0 0 1 .08-.41l.05-.2a.86.86 0 0 0 0-.22v-.05h-.05l.56-3.4a2 2 0 0 1 .1-.27v-.17l.08-.18a1.4 1.4 0 0 1 .12-.18v.22a1.17 1.17 0 0 1 .08-.25v-.05l-.08.33V27a.31.31 0 0 0 0-.08c0 .07 0 .18-.07.32v.17a1.13 1.13 0 0 0 0 .15q.15-.36.18-.2a2.36 2.36 0 0 1 0 .61v-.26.44a.49.49 0 0 0 0 .12s0-.07.1-.27v-.2c0-.07 0-.12.06-.13v.3a1.55 1.55 0 0 1 0 .28c0 .05 0 0 .07-.18v-.22l-.1.47q.06-.14.12-.12h.06l.05-.06.07-.07v-.1a.88.88 0 0 1 .1-.1c.07 0 .1.08.1.34a1 1 0 0 1 0 .27.81.81 0 0 1 0 .19v.2l.15-.32v.83a8.91 8.91 0 0 1-.06.92l.34-.38 1.18-1.2a9.9 9.9 0 0 1 1.42-1.08 4 4 0 0 1 .91-.4 2.64 2.64 0 0 1 1.2-.11c-.06 0-.07 0 0 0h.2l.13.06z"/><path d="M87.45 37.83a2.48 2.48 0 0 1 .09.31c0 .07 0 .06 0 0s-.07-.13-.17-.3a2.68 2.68 0 0 0-.12-.24l-.14-.26a4.67 4.67 0 0 0-.81-1 4.78 4.78 0 0 0-1-.69 3.89 3.89 0 0 0-.74-.28 1.54 1.54 0 0 0-.45 0 .52.52 0 0 0-.23 0h-.06c-.1.27-.2.53-.3.78a10.49 10.49 0 0 1-1 1.85 5.44 5.44 0 0 1-1.38 1.37 4.48 4.48 0 0 1-.7.42l-.32.16-.34.13-.6.15h-.43a3.39 3.39 0 0 1-1.29-.22 2.74 2.74 0 0 1-1.13-.75 1.87 1.87 0 0 1-.55-1.46 2.26 2.26 0 0 1 .17-.75 2.89 2.89 0 0 1 .31-.57 4.49 4.49 0 0 1 1.75-1.4 7.18 7.18 0 0 1 2-.65 8.6 8.6 0 0 1 2.48-.06l.22-.7a.19.19 0 0 1 0-.08l.06-.25.3-1.28-.54.57a5.66 5.66 0 0 1-.9.73 2.06 2.06 0 0 1-.31.17 2.26 2.26 0 0 1-.39.15h-.28a1 1 0 0 1-.34 0 1.26 1.26 0 0 1-.37-.13l-.12-.08v-.05a1.37 1.37 0 0 1-.23-.4v-.3a2.53 2.53 0 0 1 0-.39 5.42 5.42 0 0 1 .08-.59c0-.16.07-.33.1-.52l.12-.5.13-.48.1-.46.18-.92v-.57a4.11 4.11 0 0 0 .07-.71v-.3a1.62 1.62 0 0 1 .09.35 3.59 3.59 0 0 0-.09-.4V27a1.33 1.33 0 0 1 .16.53 1.88 1.88 0 0 0-.06-.31.6.6 0 0 0-.1-.25 1 1 0 0 1 .16.5 2.64 2.64 0 0 1 0 .63 4 4 0 0 1 .07-.51q0-.1.06 0a1.75 1.75 0 0 1 .05.47 5 5 0 0 1-.05.84.81.81 0 0 1 0-.19v-.42.57l-.05.2v.2l-.06.28s.1-.16.17-.6v-.5a.91.91 0 0 1 .06-.29 7.64 7.64 0 0 1-.18 1.29c0 .07 0 .06 0 0a3 3 0 0 0 .07-.38v-.6c0 .3-.1.66-.17 1.06.06-.2.1-.3.16-.3a.31.31 0 0 0 .08-.14l.07-.2v-.2a1.24 1.24 0 0 1 .12-.27q0-.1.06.1a4.93 4.93 0 0 1 0 .7 10.59 10.59 0 0 1-.32 1.55l.3-.78-.07.48-.08.47q-.1.57-.12.9l.07-.05.06-.05a12.65 12.65 0 0 0 1.6-1.79l.16-.22.58-.85.33-.55.06-.13.1-.4H84l1.47.33h.06a2 2 0 0 1-.14.39q-.1.5-.33 1.62l-.17.86-.18.9-.5 2.1c0 .2-.1.42-.2.68h.17A5.93 5.93 0 0 1 86 35.85a5.52 5.52 0 0 1 1.39 1.69c-.06-.07-.07-.08 0 0v.2zm-5.68-1.5l.42-1v-.15l.1-.18h-.18c.1.06.07.1-.1.13h-.66a4 4 0 0 0-.71.15c-.2.07-.3.12-.25.16a7.25 7.25 0 0 0-1.51.38 3.84 3.84 0 0 0-1.32.8 2.2 2.2 0 0 0-.52.76.83.83 0 0 0 0 .74 1.18 1.18 0 0 0 .7.57 2 2 0 0 0 1 .12 2.73 2.73 0 0 0 .48-.1 3.29 3.29 0 0 0 .46-.21 4.23 4.23 0 0 0 .88-.59 5.23 5.23 0 0 0 1.21-1.58z"/><path d="M92.55 27.17h.28s0 .1-.15.24a.64.64 0 0 1-.16.13l-.12.08-.14.08.27-.06-.2.24-.22.23-.6.54-.34.28-.32.28-.07.06-.9.8-1.2 1.22-.6.68a8.06 8.06 0 0 0 .32.81 1.77 1.77 0 0 0 .59.8.72.72 0 0 0 .22.1h.14a1 1 0 0 0 .59-.14 2.91 2.91 0 0 0 .68-.46 7 7 0 0 0 1.17-1.41h.1a.46.46 0 0 1-.1.18l.02.15-.07.12a.79.79 0 0 0 0 .78s0 .07-.07.16l-.2.22c.1 0 .1.12 0 .32v.38a4.79 4.79 0 0 1-.4.29l-.22.13-.1.07-.1.07-.13.1-.14.1a2.43 2.43 0 0 1-.3.17 2.23 2.23 0 0 1-.86.17 2.12 2.12 0 0 1-.88-.25 3.17 3.17 0 0 1-1.16-1.17v-.22a16.2 16.2 0 0 0-1.38 2 11.43 11.43 0 0 0-.53 1 3.57 3.57 0 0 0-.32 1h-.08v-.5c0-.45 0-.73-.18-.86s0-.08 0-.2.1-.2.16-.32c-.1 0-.12-.1-.08-.35v-.14a.66.66 0 0 0 0-.13q0-.14-.06-.15l.15-.24.17-.23.32-.48c.06-.1.1-.2.17-.33l.16-.34.8-1.28v-.5h-.06a.75.75 0 0 1 0-.29v-.23a9.54 9.54 0 0 1-.16-2.42.52.52 0 0 1 0-.21l.05-.12.06-.14a.64.64 0 0 1 .1-.13V28v-.17.24a.45.45 0 0 1 0-.13v-.13a1.31 1.31 0 0 1 0 .23v.22c0-.17.1-.22.14-.15a1.21 1.21 0 0 1 .07.41v-.18.38c0 .01 0-.06 0-.2v-.04a.58.58 0 0 1 0 .19v-.3.3c0-.06 0-.1.1-.1a.08.08 0 0 0 0-.05l.05-.05v-.06a.22.22 0 0 1 .09-.08s.1.05.13.22a.91.91 0 0 1 0 .16V29l.1-.23.18.52c.06.2.12.52.2 1l.12-.1.1-.1a1.37 1.37 0 0 0 .18-.19v-.06l.76-.8.5-.35v-.05a1.14 1.14 0 0 1 .27-.21l.15-.1a.69.69 0 0 0 .13-.11v-.06a12.58 12.58 0 0 1 2.41-1.64 2.39 2.39 0 0 1 .61-.13H93l-.2.07.23-.06h.1-.3l-.28.1h.25a3.88 3.88 0 0 1-.43.31l.13-.07h.08s0 .07-.17.12h-.15l-.1.05s.08 0 .22-.07l.17-.08h.1l-.1.06-.1.06a1.08 1.08 0 0 1-.21.11h.35l-.34.18q.12 0 .15 0z"/><path d="M98.5 31.74s0 .07-.13.15v.06l-.06.05-.08.1a.73.73 0 0 0 0 .75s0 .06-.06.14a1.92 1.92 0 0 1-.2.19c.1 0 .1.13 0 .32v.2a.15.15 0 0 0 0 .15l-.34.27-.18.14-.17.14-.1.1-.1.1a3 3 0 0 1-.28.25 1.46 1.46 0 0 1-.87.25.94.94 0 0 1-.76-.43 1.92 1.92 0 0 1-.33-.91 5.13 5.13 0 0 1-.08-.71v-.47a.91.91 0 0 1 0-.16h-.9l-.18-.1v.06h-.05a.14.14 0 0 0-.1 0 0 0 0 0 0 0 0H93a7 7 0 0 0-.16.75 6.47 6.47 0 0 0-.42 2.33h-.07v-.1.12a.22.22 0 0 0 0-.08.66.66 0 0 0-.45-.37v-.1a.68.68 0 0 1 0-.19c-.08 0-.15 0-.22-.17v-.1l-.05-.07a.12.12 0 0 0-.11-.08.65.65 0 0 1 .05-.15v-.16a2.78 2.78 0 0 0 .09-.3.67.67 0 0 0 0-.2v-.22c0-.25 0-.55.08-.9v-.86l.06-.13v-.36a0 0 0 0 0 0 0c0-.2.07-.37.1-.56l.15-.28A.29.29 0 0 1 92 30v-.08a.29.29 0 0 0 0-.09l.43-1.42a.41.41 0 0 1 .08-.1l.06-.07.07-.06.1-.07v.1a.69.69 0 0 1 0-.1h.05v.07a.48.48 0 0 1 0 .14v.13c.07-.1.12-.12.15-.07a.52.52 0 0 1 0 .27v.12a.17.17 0 0 0 0 .05l.08-.1v-.05.13a.81.81 0 0 1 0 .11l.06-.06v-.1.2a.11.11 0 0 1 .11 0h.26c.06 0 .1.05.1.17a.76.76 0 0 1 0 .29.68.68 0 0 0 .12-.12v.38a3.43 3.43 0 0 1-.14.94v.05l-.18.65H94l.65.05L95 31a.3.3 0 0 1 0-.12v-.1a.56.56 0 0 0 .07-.24.05.05 0 0 0 0 0H95a14.4 14.4 0 0 1 .66-2 .64.64 0 0 1 .11-.16v-.05h.05l.1-.1.14-.1-.07.15a.39.39 0 0 1 .1-.16l-.1.22.06-.1v-.12l-.06.1v.1l-.1.18q.3-.37.12.3v-.15.16a.2.2 0 0 0 0 .08s.06 0 .1-.15v-.07s0-.06.06-.06v.17a.5.5 0 0 1 0 .16l.07-.1v-.05s0-.05 0 0l-.1.27a.12.12 0 0 1 .13 0h.23c.06 0 .08.07.06.23a.31.31 0 0 1 0 .16v.22l.15-.17v.5c0 .16 0 .36-.08.6s-.1.4-.15.63v.07a1.27 1.27 0 0 0 0 .14H97a.13.13 0 0 0 0 .08.64.64 0 0 0-.25.45h-.2c0 .07 0 .15-.1.24h-.06v.06a.31.31 0 0 0-.06.13c0 .3-.1.58-.12.83a5.32 5.32 0 0 0 0 .56l.12-.08a6.17 6.17 0 0 0 .63-.54 19.79 19.79 0 0 0 1.22-1.32h.2z"/><path d="M105 34.46l-.1.13-.2.17a1.3 1.3 0 0 1-.43.2 1 1 0 0 1-.43.06h-.34a1.3 1.3 0 0 0-.41-.06l-.1-.1a1.27 1.27 0 0 1-.14-.24 2.64 2.64 0 0 1-.17-.7c0 .1-.08.07-.14 0a2.37 2.37 0 0 1-.15-.47v-.33q0-.18-.06-.27a14.47 14.47 0 0 1-1.35 1.61 12.86 12.86 0 0 1-1.1 1.11 5.52 5.52 0 0 1-1.42.93l-.28.1a2.37 2.37 0 0 1-.41.06 1.52 1.52 0 0 1-1-.33 1.62 1.62 0 0 1-.31-.43 2.68 2.68 0 0 0 .23.26 1.52 1.52 0 0 1-.26-.35v-.14a1.62 1.62 0 0 0 .44.53 1 1 0 0 1-.2-.2l-.15-.2-.05-.1v-.05a1.85 1.85 0 0 0 .21.33 1.39 1.39 0 0 0 .31.29 1.22 1.22 0 0 0 .79.2 1.31 1.31 0 0 1-.41-.06l-.13-.06c-.06-.05 0-.07.07-.05h.2a1.16 1.16 0 0 0 .32 0 2.2 2.2 0 0 0 .64-.2 1.23 1.23 0 0 1-.29.09h-.14s.06-.05.16-.08h.14l.16-.06a1.78 1.78 0 0 0 .5-.24h-.28l-.18.08a1.3 1.3 0 0 1-.39.14.46.46 0 0 1-.25 0 1.67 1.67 0 0 0 .51-.16 1.1 1.1 0 0 0 .23-.13l.22-.12-.1.06h-.15a1.35 1.35 0 0 1-.3.14L98 36a4 4 0 0 0 .75-.35c-.16.07-.24.08-.26 0h-.12c-.27.05-.43.05-.48 0s0-.05 0-.08l.13-.08.13-.07a.58.58 0 0 1 .13-.1l.1-.08.5-.4-.24.14-.25.14a9.6 9.6 0 0 0 .85-1c.25-.3.5-.62.75-1a2 2 0 0 1-.85-.12 1.55 1.55 0 0 1-.9-1 2.56 2.56 0 0 1-.11-1.15 6.09 6.09 0 0 1 .22-1 5.43 5.43 0 0 1 .3-.59.2.2 0 0 1 0-.07l.13-.2a3.9 3.9 0 0 1 1.09-1.05c.06 0 .07-.06 0-.07a2.39 2.39 0 0 1 1.65-.36 2 2 0 0 1 .9.43 2.13 2.13 0 0 1 .57.71 2.59 2.59 0 0 1 .14.42v.57l.5.18a8.87 8.87 0 0 0-.56 3.84 3.5 3.5 0 0 0 .07.45 1.35 1.35 0 0 0 .09.32.87.87 0 0 0 .34.41.67.67 0 0 0 .87-.18s0 .05 0 0a.26.26 0 0 0 .12-.07zm-5.1-2.87a.14.14 0 0 0 .09 0 .32.32 0 0 0 .14 0 1.32 1.32 0 0 0 .75-.34 1.57 1.57 0 0 0 .27-.25 1.54 1.54 0 0 0 .17-.19 4.31 4.31 0 0 0 .41-.56l.07-.2a1.59 1.59 0 0 0 .08-.48v-.08a1.56 1.56 0 0 0-.1-.22.45.45 0 0 0-.25-.21.73.73 0 0 0-.42 0 1.92 1.92 0 0 0-1 1 2.82 2.82 0 0 0-.27.7 1.64 1.64 0 0 0 0 .63.71.71 0 0 0 0 .17.17.17 0 0 0 .03.04z"/></g></svg>