<svg xmlns="http://www.w3.org/2000/svg" viewBox="0 0 139.61 30.88"><defs><style>.b6bf98f8-1754-45d0-9e1a-aacf6fc3eaac{fill:#2c2c59;}.ee8cc8e3-0e9c-4423-b4c0-3b9734da3b19{fill:#343d89;}</style></defs><title>73</title><g id="a0c50ead-f161-4b7b-8a69-923c0a9a7423" data-name="Слой 2"><g id="a4bdacff-2e71-475a-8190-5eb6dc88f9e9" data-name="Слой 1"><path class="b6bf98f8-1754-45d0-9e1a-aacf6fc3eaac" d="M7.37,27.46a.83.83,0,0,0-.36.08.73.73,0,0,0-.29.24v1.81H5.86v-3h.76l.1.42a1.43,1.43,0,0,1,.38-.36,1,1,0,0,1,.46-.13h.15l.14,0-.23.9-.13,0H7.37"/><path class="b6bf98f8-1754-45d0-9e1a-aacf6fc3eaac" d="M10.48,28.64l.42.54a1.73,1.73,0,0,1-.54.35,1.84,1.84,0,0,1-.66.12,1.55,1.55,0,0,1-1.13-.44,1.47,1.47,0,0,1-.45-1.1A1.53,1.53,0,0,1,8.55,27a1.52,1.52,0,0,1,2.16,0,1.53,1.53,0,0,1,.43,1.11v.16a.57.57,0,0,0,0,.12H8.92a.75.75,0,0,0,.29.42A.8.8,0,0,0,9.7,29a1.11,1.11,0,0,0,.41-.08,1.51,1.51,0,0,0,.37-.25m-.85-1.4a.71.71,0,0,0-.43.14.82.82,0,0,0-.27.4h1.4a.8.8,0,0,0-.26-.4.72.72,0,0,0-.44-.14"/><path class="b6bf98f8-1754-45d0-9e1a-aacf6fc3eaac" d="M13.92,28.64l.42.54a1.73,1.73,0,0,1-.54.35,1.84,1.84,0,0,1-.66.12A1.55,1.55,0,0,1,12,29.21a1.47,1.47,0,0,1-.45-1.1A1.53,1.53,0,0,1,12,27a1.52,1.52,0,0,1,2.16,0,1.53,1.53,0,0,1,.43,1.11v.16a.57.57,0,0,0,0,.12H12.36a.79.79,0,0,0,.28.42.85.85,0,0,0,.5.16,1.11,1.11,0,0,0,.41-.08,1.51,1.51,0,0,0,.37-.25m-.85-1.4a.71.71,0,0,0-.43.14.76.76,0,0,0-.27.4h1.4a.8.8,0,0,0-.26-.4.74.74,0,0,0-.44-.14"/><path class="b6bf98f8-1754-45d0-9e1a-aacf6fc3eaac" d="M19.49,29.59h-.75l-.1-.4a1.09,1.09,0,0,1-.4.34,1,1,0,0,1-.49.12,1.31,1.31,0,0,1-1-.44,1.76,1.76,0,0,1,0-2.21,1.29,1.29,0,0,1,1-.45,1.08,1.08,0,0,1,.5.12,1.18,1.18,0,0,1,.39.35l.1-.4h.75ZM17.2,28.11a.75.75,0,0,0,.21.55.68.68,0,0,0,.52.23.7.7,0,0,0,.53-.23.75.75,0,0,0,.21-.55.8.8,0,0,0-.21-.57.69.69,0,0,0-.53-.22.67.67,0,0,0-.52.22.8.8,0,0,0-.21.57"/><path class="b6bf98f8-1754-45d0-9e1a-aacf6fc3eaac" d="M23.48,28.11a1.57,1.57,0,0,1-.4,1.1,1.28,1.28,0,0,1-1,.44,1.06,1.06,0,0,1-.5-.12,1,1,0,0,1-.38-.34v1.69h-.86V26.62h.75l.1.4a1.18,1.18,0,0,1,.39-.35,1.06,1.06,0,0,1,.5-.12,1.25,1.25,0,0,1,1,.45,1.56,1.56,0,0,1,.4,1.11m-1.58-.79a.67.67,0,0,0-.52.22.8.8,0,0,0-.21.57.75.75,0,0,0,.21.55.68.68,0,0,0,.52.23.7.7,0,0,0,.53-.23.75.75,0,0,0,.21-.55.8.8,0,0,0-.21-.57.69.69,0,0,0-.53-.22"/><path class="b6bf98f8-1754-45d0-9e1a-aacf6fc3eaac" d="M27.06,29.59H26.3l-.1-.4a1.06,1.06,0,0,1-.39.34,1.08,1.08,0,0,1-.5.12,1.28,1.28,0,0,1-1-.44,1.73,1.73,0,0,1,0-2.21,1.25,1.25,0,0,1,1-.45,1.06,1.06,0,0,1,.5.12,1.09,1.09,0,0,1,.39.35l.1-.4h.76Zm-2.3-1.48a.75.75,0,0,0,.21.55.73.73,0,0,0,1.06,0,.75.75,0,0,0,.21-.55.8.8,0,0,0-.21-.57.75.75,0,0,0-1.06,0,.8.8,0,0,0-.21.57"/><path class="b6bf98f8-1754-45d0-9e1a-aacf6fc3eaac" d="M29.42,27.46a.87.87,0,0,0-.37.08.78.78,0,0,0-.28.24v1.81h-.86v-3h.76l.1.42a1.3,1.3,0,0,1,.38-.36,1,1,0,0,1,.45-.13h.16l.13,0-.22.9a.35.35,0,0,0-.14,0h-.11"/><path class="b6bf98f8-1754-45d0-9e1a-aacf6fc3eaac" d="M30.66,27.35h-.6v-.7l.6,0h0l.11-.85h.71v.85h.95v.73h-.95v1a.54.54,0,0,0,.1.35.34.34,0,0,0,.28.12.51.51,0,0,0,.2,0,1.35,1.35,0,0,0,.21-.13l.4.61a1.22,1.22,0,0,1-.43.25,1.37,1.37,0,0,1-.49.09,1.11,1.11,0,0,1-.84-.32,1.34,1.34,0,0,1-.29-.91Z"/><path class="b6bf98f8-1754-45d0-9e1a-aacf6fc3eaac" d="M34.72,27.33a.62.62,0,0,0-.33.11,1,1,0,0,0-.28.31v1.84h-.86v-3H34l.1.42a1.23,1.23,0,0,1,.4-.36,1.08,1.08,0,0,1,.48-.13,1.1,1.1,0,0,1,.57.15,1,1,0,0,1,.38.4,1.5,1.5,0,0,1,.47-.4,1.15,1.15,0,0,1,.56-.15,1,1,0,0,1,.82.35,1.46,1.46,0,0,1,.29,1v1.74h-.86V28a.74.74,0,0,0-.13-.48.47.47,0,0,0-.38-.17.58.58,0,0,0-.34.11.88.88,0,0,0-.27.34v1.81h-.86V28a.74.74,0,0,0-.14-.48.46.46,0,0,0-.38-.17"/><path class="b6bf98f8-1754-45d0-9e1a-aacf6fc3eaac" d="M41,28.64l.43.54a1.73,1.73,0,0,1-.54.35,1.85,1.85,0,0,1-.67.12,1.57,1.57,0,0,1-1.13-.44,1.47,1.47,0,0,1-.45-1.1A1.54,1.54,0,0,1,39.11,27a1.52,1.52,0,0,1,2.16,0,1.53,1.53,0,0,1,.43,1.11.81.81,0,0,1,0,.16.41.41,0,0,1,0,.12h-2.2a.73.73,0,0,0,.28.42.82.82,0,0,0,.49.16,1.07,1.07,0,0,0,.41-.08,1.21,1.21,0,0,0,.37-.25m-.84-1.4a.74.74,0,0,0-.44.14.8.8,0,0,0-.26.4h1.4a.82.82,0,0,0-.27-.4.69.69,0,0,0-.43-.14"/><path class="b6bf98f8-1754-45d0-9e1a-aacf6fc3eaac" d="M43.83,27.34a.62.62,0,0,0-.35.1,1.11,1.11,0,0,0-.3.31v1.84h-.86v-3h.76l.1.42a1.54,1.54,0,0,1,.41-.36,1.13,1.13,0,0,1,.5-.13,1.07,1.07,0,0,1,.84.35,1.41,1.41,0,0,1,.3,1v1.74h-.86V28a.76.76,0,0,0-.14-.48.51.51,0,0,0-.4-.16"/><path class="b6bf98f8-1754-45d0-9e1a-aacf6fc3eaac" d="M46.32,27.35h-.6v-.7l.6,0h0l.11-.85h.71v.85h1v.73h-1v1a.54.54,0,0,0,.1.35.34.34,0,0,0,.28.12.51.51,0,0,0,.2,0A1.35,1.35,0,0,0,48,28.7l.4.61a1.31,1.31,0,0,1-.43.25,1.37,1.37,0,0,1-.49.09,1.11,1.11,0,0,1-.84-.32,1.34,1.34,0,0,1-.29-.91Z"/><path class="b6bf98f8-1754-45d0-9e1a-aacf6fc3eaac" d="M51.64,26.55a1.55,1.55,0,0,1,1.13.44,1.52,1.52,0,0,1,.45,1.12,1.47,1.47,0,0,1-.45,1.1,1.67,1.67,0,0,1-2.26,0,1.47,1.47,0,0,1-.45-1.1A1.52,1.52,0,0,1,50.51,27a1.54,1.54,0,0,1,1.13-.44m0,.77a.69.69,0,0,0-.53.22.8.8,0,0,0-.21.57.75.75,0,0,0,.21.55.7.7,0,0,0,.53.23.68.68,0,0,0,.52-.23.76.76,0,0,0,.22-.55.81.81,0,0,0-.22-.57.67.67,0,0,0-.52-.22"/><path class="b6bf98f8-1754-45d0-9e1a-aacf6fc3eaac" d="M55.37,27.34a.62.62,0,0,0-.35.1,1.11,1.11,0,0,0-.3.31v1.84h-.86v-3h.76l.1.42a1.44,1.44,0,0,1,.42-.36,1.09,1.09,0,0,1,.49-.13,1.06,1.06,0,0,1,.84.35,1.41,1.41,0,0,1,.3,1v1.74h-.86V28a.76.76,0,0,0-.14-.48.51.51,0,0,0-.4-.16"/><path class="b6bf98f8-1754-45d0-9e1a-aacf6fc3eaac" d="M59.22,27.35h-.6v-.7l.6,0h0l.1-.85h.72v.85h1v.73h-1v1a.54.54,0,0,0,.1.35.34.34,0,0,0,.28.12.43.43,0,0,0,.19,0,.8.8,0,0,0,.21-.13l.41.61a1.31,1.31,0,0,1-.43.25,1.37,1.37,0,0,1-.49.09,1.11,1.11,0,0,1-.84-.32,1.29,1.29,0,0,1-.29-.91Z"/><path class="b6bf98f8-1754-45d0-9e1a-aacf6fc3eaac" d="M63.31,27.34a.64.64,0,0,0-.35.1,1,1,0,0,0-.29.31v1.84h-.86V25h.86v2a1.29,1.29,0,0,1,.41-.36,1.13,1.13,0,0,1,.5-.13,1.05,1.05,0,0,1,.83.35,1.36,1.36,0,0,1,.31,1v1.74h-.86V28a.76.76,0,0,0-.14-.48.51.51,0,0,0-.41-.16"/><path class="b6bf98f8-1754-45d0-9e1a-aacf6fc3eaac" d="M67.65,28.64l.42.54a1.53,1.53,0,0,1-.54.35,1.76,1.76,0,0,1-.66.12,1.57,1.57,0,0,1-1.13-.44,1.47,1.47,0,0,1-.45-1.1A1.54,1.54,0,0,1,65.73,27a1.43,1.43,0,0,1,1.08-.45,1.44,1.44,0,0,1,1.08.45,1.57,1.57,0,0,1,.43,1.11.81.81,0,0,1,0,.16c0,.05,0,.09,0,.12H66.09a.8.8,0,0,0,.29.42.82.82,0,0,0,.49.16,1.07,1.07,0,0,0,.41-.08,1.34,1.34,0,0,0,.37-.25m-.84-1.4a.74.74,0,0,0-.44.14.8.8,0,0,0-.26.4H67.5a.74.74,0,0,0-.26-.4.71.71,0,0,0-.43-.14"/><path class="b6bf98f8-1754-45d0-9e1a-aacf6fc3eaac" d="M71.8,27.46a.86.86,0,0,0-.36.08.71.71,0,0,0-.28.24v1.81H70.3v-3h.75l.11.42a1.19,1.19,0,0,1,.38-.36,1,1,0,0,1,.45-.13h.16l.13,0-.22.9-.14,0H71.8"/><path class="b6bf98f8-1754-45d0-9e1a-aacf6fc3eaac" d="M74.13,26.55a1.54,1.54,0,0,1,1.13.44,1.52,1.52,0,0,1,.45,1.12,1.47,1.47,0,0,1-.45,1.1,1.67,1.67,0,0,1-2.26,0,1.47,1.47,0,0,1-.45-1.1A1.52,1.52,0,0,1,73,27a1.55,1.55,0,0,1,1.13-.44m0,.77a.69.69,0,0,0-.53.22.8.8,0,0,0-.21.57.75.75,0,0,0,.21.55.73.73,0,0,0,1.06,0,.75.75,0,0,0,.21-.55.8.8,0,0,0-.21-.57.69.69,0,0,0-.53-.22"/><path class="b6bf98f8-1754-45d0-9e1a-aacf6fc3eaac" d="M79.28,29.59h-.75l-.1-.4a1.14,1.14,0,0,1-.39.34,1.08,1.08,0,0,1-.5.12,1.28,1.28,0,0,1-1-.44,1.73,1.73,0,0,1,0-2.21,1.25,1.25,0,0,1,1-.45,1.06,1.06,0,0,1,.5.12,1.18,1.18,0,0,1,.39.35l.1-.4h.75ZM77,28.11a.75.75,0,0,0,.21.55.71.71,0,0,0,1,0,.75.75,0,0,0,.21-.55.8.8,0,0,0-.21-.57.67.67,0,0,0-.52-.22.68.68,0,0,0-.53.22.8.8,0,0,0-.21.57"/><path class="b6bf98f8-1754-45d0-9e1a-aacf6fc3eaac" d="M83.07,29.59h-.76l-.1-.4a1.06,1.06,0,0,1-.39.34,1.08,1.08,0,0,1-.5.12,1.28,1.28,0,0,1-1-.44,1.73,1.73,0,0,1,0-2.21,1.25,1.25,0,0,1,1-.45,1.06,1.06,0,0,1,.5.12,1.14,1.14,0,0,1,.39.34V25h.86Zm-2.3-1.48a.75.75,0,0,0,.21.55.73.73,0,0,0,1.06,0,.75.75,0,0,0,.21-.55.8.8,0,0,0-.21-.57.75.75,0,0,0-1.06,0,.8.8,0,0,0-.21.57"/><polygon class="b6bf98f8-1754-45d0-9e1a-aacf6fc3eaac" points="3.31 29.59 2.43 29.59 2.43 25.16 5.2 25.16 5.2 25.95 3.31 25.95 3.31 27.06 5.02 27.06 5.02 27.85 3.31 27.85 3.31 29.59"/><path class="b6bf98f8-1754-45d0-9e1a-aacf6fc3eaac" d="M19,6.23A14.22,14.22,0,0,0,11.54,4.4a6.58,6.58,0,0,0-6.83,6.68,6.63,6.63,0,0,0,7,6.69,10.18,10.18,0,0,0,3.19-.46V13.36H11.69l-.15-.15v-4l.15-.15H19l.15.15V20.35a15.46,15.46,0,0,1-7.44,1.82C5.16,22.17,0,17.31,0,11.08A11.25,11.25,0,0,1,11.54,0a17.26,17.26,0,0,1,7.59,1.37v4.7Z"/><polygon class="b6bf98f8-1754-45d0-9e1a-aacf6fc3eaac" points="26.57 0.46 26.72 0.61 26.72 17.46 34.77 17.46 34.92 17.61 34.92 21.56 34.77 21.71 22.62 21.71 22.47 21.56 22.47 0.61 22.62 0.46 26.57 0.46"/><polygon class="ee8cc8e3-0e9c-4423-b4c0-3b9734da3b19" points="65.51 0.15 65.66 0.3 65.66 17.16 73.71 17.16 73.86 17.31 73.86 21.26 73.71 21.41 61.56 21.41 61.41 21.26 61.41 0.3 61.56 0.15 65.51 0.15"/><polygon class="ee8cc8e3-0e9c-4423-b4c0-3b9734da3b19" points="80.7 12.41 80.85 12.51 80.85 21.31 80.7 21.41 76.75 21.41 76.6 21.31 76.6 12.51 76.75 12.41 80.7 12.41"/><polygon class="ee8cc8e3-0e9c-4423-b4c0-3b9734da3b19" points="87.53 7.13 87.68 7.29 90.57 15.64 93.45 7.29 93.6 7.13 98.01 7.13 98.16 7.29 92.54 21.26 92.39 21.41 88.74 21.41 88.59 21.26 82.97 7.29 83.13 7.13 87.53 7.13"/><polygon class="ee8cc8e3-0e9c-4423-b4c0-3b9734da3b19" points="104.38 12.41 104.53 12.51 104.53 21.31 104.38 21.41 100.44 21.41 100.28 21.31 100.28 12.51 100.44 12.41 104.38 12.41"/><polygon class="ee8cc8e3-0e9c-4423-b4c0-3b9734da3b19" points="80.7 7.13 80.85 7.17 80.85 10.96 80.7 11 76.75 11 76.6 10.96 76.6 7.17 76.75 7.13 80.7 7.13"/><polygon class="ee8cc8e3-0e9c-4423-b4c0-3b9734da3b19" points="104.38 7.13 104.53 7.17 104.53 10.96 104.38 11 100.44 11 100.28 10.96 100.28 7.17 100.44 7.13 104.38 7.13"/><path class="ee8cc8e3-0e9c-4423-b4c0-3b9734da3b19" d="M112.28,7.13l.15.16v.45a7.85,7.85,0,0,1,3.8-1.06c4.55,0,6.83,2.58,6.83,6.68v7.9l-.15.15h-4l-.15-.15V14.12c0-2.43-1.22-3.34-3-3.34a4.66,4.66,0,0,0-3.34,1.52v9l-.15.15h-4l-.15-.15v-14l.15-.16Z"/><path class="ee8cc8e3-0e9c-4423-b4c0-3b9734da3b19" d="M139.31,7.29v3.34l-.16.15h-1.42a6.33,6.33,0,0,1,.21,1.52,5.7,5.7,0,0,1-5.77,5.62,3.93,3.93,0,0,1-1.06-.16.79.79,0,0,0-.31.61c0,1.22,8.81.3,8.81,6.38,0,3-2.89,4.71-7.14,4.71s-7.74-1.07-7.74-4.41a4.69,4.69,0,0,1,2.88-4.1,2.75,2.75,0,0,1-1.06-2.28,3.23,3.23,0,0,1,1.37-2.58,4.78,4.78,0,0,1-1.52-3.79,5.7,5.7,0,0,1,5.77-5.62,6.43,6.43,0,0,1,2.28.45h4.7ZM129,24.44c0,.76.91,1.37,3.49,1.37,2,0,2.89-.61,2.89-1.37,0-1.51-3.34-1.82-4.86-2.42A2.93,2.93,0,0,0,129,24.44M130.2,12.3a2,2,0,1,0,2-2,2,2,0,0,0-2,2"/><path class="b6bf98f8-1754-45d0-9e1a-aacf6fc3eaac" d="M38.36,18.66a3.29,3.29,0,0,1,3-3.28,6.81,6.81,0,0,1-1.48-4.29A6.55,6.55,0,0,1,49.13,5a3.7,3.7,0,0,1-.05-.59,3.28,3.28,0,0,1,2.48-3.19A11.56,11.56,0,0,0,46.46,0,11.08,11.08,0,0,0,35.23,11.09a11,11,0,0,0,3.13,7.72v-.15"/><path class="b6bf98f8-1754-45d0-9e1a-aacf6fc3eaac" d="M54.36,4.37a1.94,1.94,0,1,0-3.88,0,1.94,1.94,0,1,0,3.88,0"/><path class="b6bf98f8-1754-45d0-9e1a-aacf6fc3eaac" d="M41.7,16.68a2,2,0,1,0,1.95,2,1.93,1.93,0,0,0-1.95-2"/><path class="b6bf98f8-1754-45d0-9e1a-aacf6fc3eaac" d="M55.74,4.78a3.3,3.3,0,0,1-3.32,2.89H52.1A6.84,6.84,0,0,1,53,11.09a6.53,6.53,0,0,1-8.13,6.48,3.28,3.28,0,0,1-1.77,4.1,11.36,11.36,0,0,0,3.37.5A11.08,11.08,0,0,0,57.7,11.09a11,11,0,0,0-2-6.31"/></g></g></svg>