<svg xmlns="http://www.w3.org/2000/svg" xmlns:xlink="http://www.w3.org/1999/xlink" viewBox="0 0 151.2 61.61"><defs><style>.f017f1c1-ffb7-4e05-9772-5dbe6a100b37{isolation:isolate;}.ea73d270-2a59-4a5f-861a-9d4801555ca5{fill:#142667;}.a9a23726-4fea-4f61-8edf-33108f8c1408,.ed7bb787-63a3-4a55-8a2c-0cd8cc5df109,.f2344fd0-ad0b-4a78-ba09-c52250295b2f{mix-blend-mode:multiply;}.ed7bb787-63a3-4a55-8a2c-0cd8cc5df109{fill:url(#bbd383df-7464-44c3-a9f0-2ef55304fdfc);}.f2344fd0-ad0b-4a78-ba09-c52250295b2f{fill:url(#a87c35f3-955d-4baf-b62d-f18b70184962);}.a9a23726-4fea-4f61-8edf-33108f8c1408{fill:url(#ea4d3325-efad-4086-a0c5-db3a96247574);}</style><linearGradient id="bbd383df-7464-44c3-a9f0-2ef55304fdfc" x1="83.38" y1="26.92" x2="83.38" y2="17.38" gradientUnits="userSpaceOnUse"><stop offset="0" stop-color="#fff"/><stop offset="0.04" stop-color="#f6f6f6"/><stop offset="0.11" stop-color="#dedede"/><stop offset="0.2" stop-color="#b6b6b6"/><stop offset="0.3" stop-color="#7f7f7f"/><stop offset="0.42" stop-color="#393939"/><stop offset="0.5"/><stop offset="0.59" stop-color="#393939"/><stop offset="0.7" stop-color="#7f7f7f"/><stop offset="0.8" stop-color="#b6b6b6"/><stop offset="0.89" stop-color="#dedede"/><stop offset="0.96" stop-color="#f6f6f6"/><stop offset="1" stop-color="#fff"/></linearGradient><linearGradient id="a87c35f3-955d-4baf-b62d-f18b70184962" x1="63.6" y1="19.48" x2="71.85" y2="24.29" xlink:href="#bbd383df-7464-44c3-a9f0-2ef55304fdfc"/><linearGradient id="ea4d3325-efad-4086-a0c5-db3a96247574" x1="79.82" y1="6.12" x2="71.56" y2="10.89" xlink:href="#bbd383df-7464-44c3-a9f0-2ef55304fdfc"/></defs><title>74_1</title><g class="f017f1c1-ffb7-4e05-9772-5dbe6a100b37"><g id="e1bc7a16-b125-4fc6-ad20-6406217d81d3" data-name="Слой 2"><g id="a4375500-461b-4af3-99e9-b6fcddacc44f" data-name="Слой 1"><path class="ea73d270-2a59-4a5f-861a-9d4801555ca5" d="M92.87,17.52,84.2,2.5A5,5,0,0,0,82.46.69,4.53,4.53,0,0,0,80.06,0h0a4.5,4.5,0,0,0-2.4.69A5,5,0,0,0,75.91,2.5L75.6,3l-.31-.54A5.12,5.12,0,0,0,73.55.69,4.55,4.55,0,0,0,71.15,0h0a4.5,4.5,0,0,0-2.4.69A5,5,0,0,0,67,2.5l-8.68,15a5.36,5.36,0,0,0-.75,2.66,4.42,4.42,0,0,0,1.2,3,4.58,4.58,0,0,0,1.73,1.14,5.52,5.52,0,0,0,2,.34h.62l-.31.54h0A5.33,5.33,0,0,0,62,27.9a4.46,4.46,0,0,0,.39,1.85,4.39,4.39,0,0,0,.8,1.18A4.74,4.74,0,0,0,65,32.07a5.57,5.57,0,0,0,2,.35H84.27A5.87,5.87,0,0,0,86,32.15a4.63,4.63,0,0,0,2.25-1.58,4.27,4.27,0,0,0,.66-1.27,4.51,4.51,0,0,0,.23-1.4,5.33,5.33,0,0,0-.75-2.66h0l-.31-.54h.62a5.57,5.57,0,0,0,1.76-.27,4.73,4.73,0,0,0,2.25-1.57,4.52,4.52,0,0,0,.66-1.27,4.57,4.57,0,0,0,.23-1.41A5.37,5.37,0,0,0,92.87,17.52Zm-30.4,6.12a4.35,4.35,0,0,1-2.08-.5,3.33,3.33,0,0,1-1.75-3,4.22,4.22,0,0,1,.61-2.13L67.92,3a4,4,0,0,1,1.37-1.44,3.58,3.58,0,0,1,1.85-.53h0A3.54,3.54,0,0,1,73,1.59,4.15,4.15,0,0,1,74.37,3l9.44,16.35H82.58L73.45,3.56a3,3,0,0,0-1-1.06,2.45,2.45,0,0,0-2.59,0,2.87,2.87,0,0,0-1,1.06l-8.67,15a3.16,3.16,0,0,0-.47,1.59,2.27,2.27,0,0,0,.79,1.74,3,3,0,0,0,2,.66h1.85l-.62,1.06Zm4,3.73h0a1.15,1.15,0,0,0-.18.53c0,.08,0,.08,0,.09s0,.06.2.11a1.1,1.1,0,0,0,.42.06H84.27a1.22,1.22,0,0,0,.54-.1A.23.23,0,0,0,84.9,28a.38.38,0,0,0,0-.08,1,1,0,0,0-.18-.53h0L83.19,24.7h1.23l1.23,2.13A2.24,2.24,0,0,1,86,27.9a1.22,1.22,0,0,1-.42.93,2,2,0,0,1-1.29.4H66.92a2,2,0,0,1-1.28-.4,1.15,1.15,0,0,1-.42-.93,2.21,2.21,0,0,1,.32-1.07l8.83-15.28L75,12.61l-1.86,3.23h0Zm2.77-2.67H82l1.39,2.4H67.85Zm-3.07-5.32H63.39L71.14,6h0l1.39,2.4-3.09,5.35ZM71.6,4.63h0a.84.84,0,0,0-.28-.32.38.38,0,0,0-.18,0,.32.32,0,0,0-.17,0,.93.93,0,0,0-.29.32L62,19.65a1.06,1.06,0,0,0-.18.53c0,.09,0,.08,0,.1a.43.43,0,0,0,.19.11,1.47,1.47,0,0,0,.43.06h3.07l-.61,1.06H62.47a2,2,0,0,1-1.29-.4,1.19,1.19,0,0,1-.42-.93,2.17,2.17,0,0,1,.33-1.06l8.67-15a1.89,1.89,0,0,1,.65-.69,1.35,1.35,0,0,1,.73-.22,1.38,1.38,0,0,1,.74.22,2,2,0,0,1,.65.69l8.82,15.28H80.12Zm7.29,14.75H72.3l3.3-5.71Zm-7.2,1.07h17a1.08,1.08,0,0,0,.54-.11c.08-.05.08-.06.09-.08a.28.28,0,0,0,0-.08,1.19,1.19,0,0,0-.18-.53l-8.67-15a.93.93,0,0,0-.29-.32.35.35,0,0,0-.18,0,.35.35,0,0,0-.17,0,.93.93,0,0,0-.29.32L78.06,7.29l-.62-1.06L78.67,4.1a1.89,1.89,0,0,1,.65-.69,1.34,1.34,0,0,1,1.47,0,1.89,1.89,0,0,1,.65.69l8.67,15a2.15,2.15,0,0,1,.32,1.06,1.15,1.15,0,0,1-.41.93,2,2,0,0,1-1.29.4H71.07ZM85,19.38l-6.37-11L80.05,6l7.76,13.42Zm2.39,10.55a3.7,3.7,0,0,1-1.73,1.21,4.91,4.91,0,0,1-1.43.22H66.92a4.24,4.24,0,0,1-2.08-.51,3.38,3.38,0,0,1-1.45-1.54,3.43,3.43,0,0,1-.3-1.41,4.22,4.22,0,0,1,.61-2.13h0l6.66-11.53h0l2.78-4.82.62,1.06L64.62,26.3a3.22,3.22,0,0,0-.47,1.6,2.26,2.26,0,0,0,.8,1.74,3,3,0,0,0,2,.65H84.27a3,3,0,0,0,2-.65A2.28,2.28,0,0,0,87,27.9a3.22,3.22,0,0,0-.47-1.6h0l-.92-1.6h1.23l.61,1.07h0a4.22,4.22,0,0,1,.61,2.13A3.32,3.32,0,0,1,87.43,29.93Zm4.46-7.72a3.54,3.54,0,0,1-1.74,1.21,4.49,4.49,0,0,1-1.42.22H69.84l.62-1.06H88.73a3,3,0,0,0,2-.66,2.24,2.24,0,0,0,.8-1.74A3.16,3.16,0,0,0,91,18.59l-8.67-15a3,3,0,0,0-1-1.06,2.45,2.45,0,0,0-2.59,0,3,3,0,0,0-1,1.06l-.92,1.6L76.21,4.1,76.83,3a4.06,4.06,0,0,1,1.38-1.44,3.52,3.52,0,0,1,1.84-.53h0a3.54,3.54,0,0,1,1.84.53A4.15,4.15,0,0,1,83.28,3l8.67,15a4.22,4.22,0,0,1,.61,2.13A3.28,3.28,0,0,1,91.89,22.21Z"/><path class="ed7bb787-63a3-4a55-8a2c-0cd8cc5df109" d="M88.44,25.29l-.34-.59H82l1.26,2.19h5.85A5.68,5.68,0,0,0,88.44,25.29Zm-4.6-8H77.69l1.2,2.07H85Z"/><path class="f2344fd0-ad0b-4a78-ba09-c52250295b2f" d="M61,24l-.08.14-.16.28a5.72,5.72,0,0,0,1.69.25h.62l3.07-5.32H63.7ZM72.3,19.38,69.23,24.7h2.46l3.07-5.32Z"/><path class="a9a23726-4fea-4f61-8edf-33108f8c1408" d="M71.27,10.53l3.07,5.32,1.26-2.18L72.53,8.35Zm5.91-8.91-.08-.14L77,1.21a5.31,5.31,0,0,0-1.07,1.34L75.6,3l3.07,5.32,1.2-2.08Z"/><path class="ea73d270-2a59-4a5f-861a-9d4801555ca5" d="M.46,48.48H1.81a.45.45,0,0,1,.47.46V60.79a.45.45,0,0,1-.46.46H.47A.45.45,0,0,1,0,60.79V48.94A.45.45,0,0,1,.46,48.48Z"/><path class="ea73d270-2a59-4a5f-861a-9d4801555ca5" d="M6.66,48.94a.41.41,0,0,1,.45-.46c.57,0,1.63,1.46,8.3,7.53V48.94a.45.45,0,0,1,.46-.46h1.35a.45.45,0,0,1,.47.46V60.79c0,.4-.16.46-.47.46-.53,0-1.81-1.66-8.28-7.46v7a.45.45,0,0,1-.46.46H7.13a.45.45,0,0,1-.47-.46Z"/><path class="ea73d270-2a59-4a5f-861a-9d4801555ca5" d="M32.14,48.94v1.35a.5.5,0,0,1-.55.47H27.8v10a.45.45,0,0,1-.46.46H26a.45.45,0,0,1-.47-.46v-10H21.7a.49.49,0,0,1-.54-.45V49a.5.5,0,0,1,.54-.48h9.89A.5.5,0,0,1,32.14,48.94Z"/><path class="ea73d270-2a59-4a5f-861a-9d4801555ca5" d="M37.88,50.76v3H44.1a.45.45,0,0,1,.46.46v1.35a.45.45,0,0,1-.46.47H37.88V59h7.28a.45.45,0,0,1,.45.46v1.35a.45.45,0,0,1-.45.47H36.07a.45.45,0,0,1-.47-.46V48.94a.45.45,0,0,1,.46-.46h9.1a.45.45,0,0,1,.45.46v1.35a.45.45,0,0,1-.45.47Z"/><path class="ea73d270-2a59-4a5f-861a-9d4801555ca5" d="M61.08,61c0,.15-.2.24-.66.24h-1.6a1.28,1.28,0,0,1-.88-.45l-2.71-3c-1,0-2,0-3.14-.06v3.1a.45.45,0,0,1-.46.46H50.28a.45.45,0,0,1-.47-.46V48.94a.45.45,0,0,1,.46-.46h1.35c1.38,0,2.68,0,3.84.08,3.25.14,5.55,1,5.55,4.61a4,4,0,0,1-3.08,4.25l3,3.36A.27.27,0,0,1,61.08,61Zm-9-5.54c1.15,0,2.21,0,3.16,0,2.2,0,3.5-.6,3.5-2.33s-1.19-2.41-3.27-2.41H52.09Z"/><path class="ea73d270-2a59-4a5f-861a-9d4801555ca5" d="M66.92,50.76v3h6.22a.45.45,0,0,1,.45.46v1.35a.45.45,0,0,1-.45.47H66.92V59h7.27a.45.45,0,0,1,.46.46v1.35a.45.45,0,0,1-.46.47H65.11a.45.45,0,0,1-.47-.46V48.94a.45.45,0,0,1,.45-.46h9.1a.45.45,0,0,1,.46.46v1.35a.45.45,0,0,1-.46.47Z"/><path class="ea73d270-2a59-4a5f-861a-9d4801555ca5" d="M78.85,48.94a.41.41,0,0,1,.45-.46c.57,0,1.63,1.46,8.3,7.53V48.94a.45.45,0,0,1,.46-.46h1.35a.45.45,0,0,1,.47.46V60.79c0,.4-.16.46-.47.46-.53,0-1.81-1.66-8.28-7.46v7a.45.45,0,0,1-.46.46H79.32a.45.45,0,0,1-.47-.46Z"/><path class="ea73d270-2a59-4a5f-861a-9d4801555ca5" d="M96.54,50.76v3h6.22a.45.45,0,0,1,.45.46v1.35a.45.45,0,0,1-.45.47H96.54V59h7.27a.45.45,0,0,1,.46.46v1.35a.45.45,0,0,1-.46.47H94.73a.45.45,0,0,1-.47-.46V48.94a.45.45,0,0,1,.45-.46h9.1a.45.45,0,0,1,.46.46v1.35a.45.45,0,0,1-.46.47Z"/><path class="ea73d270-2a59-4a5f-861a-9d4801555ca5" d="M119.74,61c0,.15-.2.24-.66.24h-1.6a1.28,1.28,0,0,1-.88-.45l-2.72-3c-1,0-2,0-3.14-.06v3.1a.44.44,0,0,1-.45.46h-1.35a.45.45,0,0,1-.47-.46V48.94a.45.45,0,0,1,.45-.46h1.35c1.39,0,2.68,0,3.85.08,3.25.14,5.54,1,5.54,4.61a4,4,0,0,1-3.08,4.25l3,3.36A.31.31,0,0,1,119.74,61Zm-9-5.54c1.15,0,2.21,0,3.16,0,2.21,0,3.5-.6,3.5-2.33s-1.18-2.41-3.26-2.41h-3.4Z"/><path class="ea73d270-2a59-4a5f-861a-9d4801555ca5" d="M134.27,54.39v5a.61.61,0,0,1-.23.42,6.24,6.24,0,0,1-4.56,1.79,6.74,6.74,0,1,1,0-13.48A6.28,6.28,0,0,1,134,49.9c.18.19.23.31.23.42a.46.46,0,0,1-.16.3l-1,.74a.71.71,0,0,1-.44.15,1.1,1.1,0,0,1-.53-.16,3.93,3.93,0,0,0-2.64-.86,4.38,4.38,0,1,0,0,8.75A4,4,0,0,0,132,58.5V56.22h-2.7a.46.46,0,0,1-.45-.46V54.41a.45.45,0,0,1,.45-.47h4.53A.45.45,0,0,1,134.27,54.39Z"/><path class="ea73d270-2a59-4a5f-861a-9d4801555ca5" d="M137.74,54.87a6.73,6.73,0,1,1,13.46,0,6.73,6.73,0,1,1-13.46,0Zm11.12,0a4.39,4.39,0,1,0-4.39,4.39A4.18,4.18,0,0,0,148.86,54.85Z"/></g></g></g></svg>