<svg xmlns="http://www.w3.org/2000/svg" xmlns:xlink="http://www.w3.org/1999/xlink" viewBox="0 0 101.59 80.58"><defs><style>.a9cc4267-c42b-434e-9b67-a064bb8981fc{fill:url(#bf0c1c38-0ad9-499b-afb6-50705b869f35);}.a03d54d2-2de0-46e5-819b-c77619f28e7e{fill:url(#bab4a202-0a16-4ebd-ac57-c630e4b517e8);}.a1512168-bdb9-4b12-b643-4bb00677af89{fill:url(#b112f40c-46cf-4cfe-bc23-3f85005c2580);}.aefd9d91-b5b6-43b7-858f-2f0044d5359d{fill:url(#ba90ba43-3a71-4967-b7a5-d3c01f61c6c6);}.b4278c82-1439-462f-ba6c-ef5bf95cec2f{fill:url(#a2269a97-a514-4e2d-972d-b5048eee7e02);}.b8c5b29b-d5cf-42b6-b65c-988d77c9c26a{fill:url(#eae00bd7-e741-4f0a-bbbb-071adef9593d);}.f9ca5a9d-7505-431b-bc14-64f7902d858f{fill:#201600;}.f10f9118-d65e-4f3d-a012-0ba133b14f5d{fill:#585551;}</style><linearGradient id="bf0c1c38-0ad9-499b-afb6-50705b869f35" x1="59.84" y1="-4.76" x2="69.4" y2="7.96" gradientTransform="matrix(1, 0.06, -0.06, 1, -24.63, 9.33)" gradientUnits="userSpaceOnUse"><stop offset="0" stop-color="#a23d32"/><stop offset="1" stop-color="#d14a43"/></linearGradient><linearGradient id="bab4a202-0a16-4ebd-ac57-c630e4b517e8" x1="40.99" y1="19.01" x2="76.96" y2="30.22" gradientTransform="matrix(1, 0, 0, 1, 0, 0)" xlink:href="#bf0c1c38-0ad9-499b-afb6-50705b869f35"/><linearGradient id="b112f40c-46cf-4cfe-bc23-3f85005c2580" x1="39.76" y1="26.99" x2="74.7" y2="37.87" gradientTransform="matrix(1, 0, 0, 1, 0, 0)" xlink:href="#bf0c1c38-0ad9-499b-afb6-50705b869f35"/><linearGradient id="ba90ba43-3a71-4967-b7a5-d3c01f61c6c6" x1="30.07" y1="23.97" x2="62.46" y2="34.06" gradientTransform="matrix(1, 0, 0, 1, 0, 0)" xlink:href="#bf0c1c38-0ad9-499b-afb6-50705b869f35"/><linearGradient id="a2269a97-a514-4e2d-972d-b5048eee7e02" x1="6.27" y1="-3.11" x2="42.31" y2="28.68" gradientTransform="matrix(1, 0, 0, 1, 0, 0)" xlink:href="#bf0c1c38-0ad9-499b-afb6-50705b869f35"/><linearGradient id="eae00bd7-e741-4f0a-bbbb-071adef9593d" x1="-11.04" y1="-21.89" x2="-0.26" y2="-18.53" gradientTransform="translate(82.88 44.34) rotate(-5.27)" xlink:href="#bf0c1c38-0ad9-499b-afb6-50705b869f35"/></defs><title>75</title><g id="ba43e8b4-29a9-4ae1-b9cf-4bb3c2b1153f" data-name="Слой 2"><g id="f59aa08d-46a1-408c-a124-5259d715c102" data-name="Слой 1"><path class="a9cc4267-c42b-434e-9b67-a064bb8981fc" d="M34,3.59s5.12,1.79,6.65,4.2c-.76-.19-1.4-.45-1.48-.09-.22,1,1.93,1.22,2.89,2.69-.72-.2-1.48-.58-1.56-.08s2.53,1.62,3.17,4.17c-1.14-.7-1.75-1-2-.54s3.27,1.5,3.2,5.2C42.14,15.6,42,28.07,41,24.94,40.54,23.48,34,3.59,34,3.59Z"/><path class="a03d54d2-2de0-46e5-819b-c77619f28e7e" d="M76.71,29.05A15.22,15.22,0,0,0,76,26.73a18,18,0,0,0-6.07-8A17.72,17.72,0,0,0,59.15,15a25,25,0,0,0-4.52.3,24.29,24.29,0,0,0-4,1c9.54,1.29,17.9,9.45,18.1,19.3l.21.32,8.64,4.92.09,0A70,70,0,0,0,76.71,29.05Z"/><path class="a1512168-bdb9-4b12-b643-4bb00677af89" d="M50.63,16.3c-3.85,1.27-6.33,3.54-9.13,6.37A25.24,25.24,0,0,0,35,34.37a24.73,24.73,0,0,0-.64,3.88A33,33,0,0,1,38.46,41c11.24-16.79,26.37-11,30.27-5.35C68.53,25.75,60.17,17.59,50.63,16.3Z"/><path class="aefd9d91-b5b6-43b7-858f-2f0044d5359d" d="M50.63,16.3c-3.85,1.27-6.33,3.54-9.13,6.37A25.24,25.24,0,0,0,35,34.37a24.73,24.73,0,0,0-.64,3.88A33,33,0,0,1,38.46,41c11.24-16.79,26.37-11,30.27-5.35C68.53,25.75,60.17,17.59,50.63,16.3Z"/><path class="b4278c82-1439-462f-ba6c-ef5bf95cec2f" d="M41.5,22.67a43.18,43.18,0,0,0-1.22-8.41h0a.08.08,0,0,1,0,0h0A23.66,23.66,0,0,0,29.55,0a28.81,28.81,0,0,1,.35,3.1l-5.75,4-9.1,6.37-1.5,1,3.6,4.5a41.15,41.15,0,0,1,6.06-1.31c2.91,0,4.52-.05,5.77-.13a21.21,21.21,0,0,1,1.89,5.93,42.92,42.92,0,0,1,.39,8.82c0,.19,0,.38,0,.57q-.08,1.86-.3,3.69a33.82,33.82,0,0,1,3.37,1.64A35.42,35.42,0,0,1,38.46,41a43.22,43.22,0,0,0,1.69-5.16,43,43,0,0,0,1.39-10C41.57,24.73,41.55,23.69,41.5,22.67ZM28.05,7.86a9.14,9.14,0,0,1-1.13.38s-.1-.78,1.76-1.15C28.65,7.08,28.7,7.44,28.05,7.86Z"/><path class="b8c5b29b-d5cf-42b6-b65c-988d77c9c26a" d="M73.12,20.39s3.36,4.4,4.4,7.9a6.47,6.47,0,0,1,3.74,1.57C80.33,27.55,77.37,22.24,73.12,20.39Z"/><path class="f9ca5a9d-7505-431b-bc14-64f7902d858f" d="M27.2,48.87c.05-.68-.88-1.12-1.09-1.12H.64s0,2.43,1.77,2.43H21.67l-.45,6.94H6.06L7,51.7H1.51c-.33,4-.88,4-1,6.74-.06,1.22,1.3,1,1.3,1H23.52v6.58c0,3.06-2,3.06-2,3.06h5.1s2.38,0,2.38-2.85V57.12h-2.3s.32-5.72.53-8.25"/><rect class="f9ca5a9d-7505-431b-bc14-64f7902d858f" y="62.79" width="21.43" height="2.73"/><path class="f9ca5a9d-7505-431b-bc14-64f7902d858f" d="M37.82,57.62V69.15h5.46V67H57.81V64.27H43.28V63H57.81V60.27H43.28V59.06H59.6V67h0c0,1.21-.45,2.15-1.35,2.15h5.38s1.37,0,1.37-2.57V56.33H39.5c-1.69,0-1.68,1.29-1.68,1.29"/><path class="f9ca5a9d-7505-431b-bc14-64f7902d858f" d="M55.28,51H65V48.27H55.28v-.79H49.82V52.6H45.34V48.42H39.88V52.6H36.73s0,2.73,2,2.73H64.16c1.91,0,1.91-2.73,1.91-2.73H55.28Z"/><path class="f9ca5a9d-7505-431b-bc14-64f7902d858f" d="M73.06,47.94a1.25,1.25,0,0,0-1.41,1.19v1.53H83.89V62.1c0,7.11-2,7.11-2,7.11h5.94s1.49-.09,1.49-6.23V50.66H99.49c2.1,0,2.1-2.72,2.1-2.72Z"/><path class="f10f9118-d65e-4f3d-a012-0ba133b14f5d" d="M74.81,79.75a.66.66,0,0,1,.65-.69.68.68,0,0,1,.68.69.65.65,0,0,1-.68.67A.64.64,0,0,1,74.81,79.75Z"/><path class="f10f9118-d65e-4f3d-a012-0ba133b14f5d" d="M79.65,73.61v5.67a.46.46,0,0,0,.28.39,1.22,1.22,0,0,0,.59.13,1,1,0,0,0,.54-.13.41.41,0,0,0,.22-.39V78.06h2v.81a2.21,2.21,0,0,1-.14.8,1.41,1.41,0,0,1-1.12.66,7.41,7.41,0,0,1-1.34.09H79.9c-1.6,0-2.41-.45-2.41-1.36v-4a1.34,1.34,0,0,1,.5-1.16,2.53,2.53,0,0,1,1.32-.37c.13,0,.58,0,1.36,0a5.43,5.43,0,0,1,2.09.27.81.81,0,0,1,.51.78v1.12h-2v-.28"/><path class="f10f9118-d65e-4f3d-a012-0ba133b14f5d" d="M89.79,73.81a9.12,9.12,0,0,0-4.64,0,1,1,0,0,0-.65,1v4.33a1,1,0,0,0,.3.75,1.83,1.83,0,0,0,1,.4,9.45,9.45,0,0,0,1.77.14,4.22,4.22,0,0,0,2.63-.54,1,1,0,0,0,.29-.75V74.8A1,1,0,0,0,89.79,73.81Zm-1.51,5.51a.42.42,0,0,1-.24.38,1.17,1.17,0,0,1-.57.14,1.15,1.15,0,0,1-.57-.14.42.42,0,0,1-.24-.38V73.59l1.62,1.77Z"/><path class="f10f9118-d65e-4f3d-a012-0ba133b14f5d" d="M99.24,73.67l-2.48,5.58-2.48-5.58H91.92v6.75h1.81V77.79l-.82-3.1,2.52,5.73h2.65l2.52-5.73-.82,3.1v.3c0,2.33-.65,2.33-.65,2.33h2s.49,0,.49-2.07h0V73.67Z"/><path class="f10f9118-d65e-4f3d-a012-0ba133b14f5d" d="M13.52,78.14l-.43,2.28H11l1.53-6.75h3.66l1.53,6.75H15.59m-.45-2.59-.77-4-.82,4Z"/><path class="f10f9118-d65e-4f3d-a012-0ba133b14f5d" d="M25.1,80.42H23a1.67,1.67,0,0,1-.25-.86v-.63a1.13,1.13,0,0,0-.47-.82l-1.37-1.17v3.48H18.86V73.67h2.82c1.62,0,2.59.19,2.91.58a1.49,1.49,0,0,1,.26.93v.68A1.4,1.4,0,0,1,24.31,77a1.73,1.73,0,0,1-1.12.38,2.55,2.55,0,0,1,.81.16,1.53,1.53,0,0,1,.7.4.83.83,0,0,1,.15.54v1.09A1.61,1.61,0,0,0,25.1,80.42Zm-4.17-6.7V76.9h.65a2.37,2.37,0,0,0,.79-.09.66.66,0,0,0,.4-.68v-.38"/><path class="f10f9118-d65e-4f3d-a012-0ba133b14f5d" d="M32.34,80.42H30.29l-1.51-2.61c-.21-.34-.42-.52-.63-.55v3.16H26.08V73.67h2.07v3l1.77-3h2l-2.13,3.19a1,1,0,0,1,.56.21,1.38,1.38,0,0,1,.42.48Z"/><polygon class="f10f9118-d65e-4f3d-a012-0ba133b14f5d" points="35.27 79.48 35.27 77.38 37.34 77.38 37.34 76.5 35.27 76.5 35.27 76.23 33.78 74.61 37.5 74.61 37.5 73.67 33.19 73.67 33.19 80.42 37.69 80.42 37.69 79.48 35.27 79.48"/><path class="f10f9118-d65e-4f3d-a012-0ba133b14f5d" d="M7.32,73.67,4.84,79.25,2.35,73.67H0v6.75H1.81V77.79L1,74.69l2.52,5.73H6.16l2.52-5.73-.82,3.1v.3c0,2.33-.65,2.33-.65,2.33h2s.49,0,.49-2.07h0V73.67Z"/><path class="f10f9118-d65e-4f3d-a012-0ba133b14f5d" d="M44.28,73.67H38.8v.94h1.7v3.1c0,2.71-.75,2.71-.75,2.71H42s.53,0,.56-2.18h0v-2l-1.39-1.52-.06-.07h3.16Z"/><path class="f10f9118-d65e-4f3d-a012-0ba133b14f5d" d="M47.32,77l-.62-.16a3.39,3.39,0,0,1-.6-.25.71.71,0,0,1-.32-.37,1.84,1.84,0,0,1-.11-.73,2.33,2.33,0,0,1,.19-1.07,1.15,1.15,0,0,1,.74-.53,7.23,7.23,0,0,1,2-.2c1.5,0,2.36.24,2.6.73a2.28,2.28,0,0,1,.19,1.06,1.71,1.71,0,0,1-.2.91,1,1,0,0,1-.57.37c-.26.09-.53.17-.8.24l.66.17a2.61,2.61,0,0,1,.62.32.86.86,0,0,1,.37.48,2.06,2.06,0,0,1,.09.73,1.86,1.86,0,0,1-.3,1.15,1.65,1.65,0,0,1-.94.56,6.93,6.93,0,0,1-1.8.19c-1.52,0-2.45-.3-2.78-.9a1.94,1.94,0,0,1-.2-.93,2.92,2.92,0,0,1,.09-.81,1.11,1.11,0,0,1,.74-.67Zm1.81-1.81-1.47-1.3V76.2q0,.54.87.54a1.27,1.27,0,0,0,.61-.12.46.46,0,0,0,.23-.42v-.49A.68.68,0,0,0,49.13,75.17Zm.24,4.08V77.93a.43.43,0,0,0-.24-.4,1.24,1.24,0,0,0-.61-.12c-.57,0-.86.18-.86.52v1.32a.43.43,0,0,0,.23.39,1.35,1.35,0,0,0,.63.13C49.08,79.77,49.37,79.59,49.37,79.25Z"/><path class="f10f9118-d65e-4f3d-a012-0ba133b14f5d" d="M54.61,77,54,76.82a2.85,2.85,0,0,1-.6-.25.78.78,0,0,1-.33-.37,2,2,0,0,1-.11-.73,2.31,2.31,0,0,1,.2-1.07,1.13,1.13,0,0,1,.73-.53,7.36,7.36,0,0,1,2-.2c1.49,0,2.36.24,2.6.73a2.44,2.44,0,0,1,.18,1.06,1.62,1.62,0,0,1-.2.91,1,1,0,0,1-.56.37c-.26.09-.53.17-.8.24l.65.17a2.43,2.43,0,0,1,.62.32.88.88,0,0,1,.38.48,2.06,2.06,0,0,1,.09.73,1.86,1.86,0,0,1-.3,1.15,1.65,1.65,0,0,1-.94.56,6.93,6.93,0,0,1-1.8.19c-1.53,0-2.45-.3-2.78-.9a1.83,1.83,0,0,1-.2-.93,2.92,2.92,0,0,1,.09-.81,1.11,1.11,0,0,1,.74-.67Zm1.81-1.81L55,73.87V76.2c0,.36.29.54.86.54a1.31,1.31,0,0,0,.62-.12.45.45,0,0,0,.22-.42v-.49A.68.68,0,0,0,56.42,75.17Zm.24,4.08V77.93a.43.43,0,0,0-.24-.4,1.22,1.22,0,0,0-.61-.12c-.57,0-.85.18-.85.52v1.32a.42.42,0,0,0,.23.39,1.33,1.33,0,0,0,.62.13C56.38,79.77,56.66,79.59,56.66,79.25Z"/><path class="f10f9118-d65e-4f3d-a012-0ba133b14f5d" d="M61.91,77l-.62-.16a3,3,0,0,1-.59-.25.73.73,0,0,1-.33-.37,2,2,0,0,1-.11-.73,2.33,2.33,0,0,1,.19-1.07,1.15,1.15,0,0,1,.74-.53,7.31,7.31,0,0,1,2-.2c1.49,0,2.36.24,2.6.73a2.44,2.44,0,0,1,.18,1.06,1.71,1.71,0,0,1-.2.91,1,1,0,0,1-.56.37l-.81.24.66.17a2.43,2.43,0,0,1,.62.32A.86.86,0,0,1,66,78a2.3,2.3,0,0,1,.1.73,1.86,1.86,0,0,1-.3,1.15,1.68,1.68,0,0,1-.95.56,6.93,6.93,0,0,1-1.8.19c-1.52,0-2.45-.3-2.77-.9a1.83,1.83,0,0,1-.21-.93,2.54,2.54,0,0,1,.1-.81,1.09,1.09,0,0,1,.73-.67Zm1.81-1.81-1.47-1.3V76.2q0,.54.87.54a1.34,1.34,0,0,0,.62-.12A.47.47,0,0,0,64,76.2v-.49A.68.68,0,0,0,63.72,75.17ZM64,79.25V77.93a.43.43,0,0,0-.24-.4,1.24,1.24,0,0,0-.61-.12c-.57,0-.86.18-.86.52v1.32a.43.43,0,0,0,.23.39,1.38,1.38,0,0,0,.63.13C63.68,79.77,64,79.59,64,79.25Z"/><path class="f10f9118-d65e-4f3d-a012-0ba133b14f5d" d="M69.21,77l-.62-.16a3.1,3.1,0,0,1-.6-.25.71.71,0,0,1-.32-.37,1.84,1.84,0,0,1-.11-.73,2.33,2.33,0,0,1,.19-1.07,1.15,1.15,0,0,1,.74-.53,7.23,7.23,0,0,1,2-.2c1.5,0,2.36.24,2.6.73a2.28,2.28,0,0,1,.19,1.06,1.61,1.61,0,0,1-.21.91.94.94,0,0,1-.56.37c-.26.09-.53.17-.8.24l.65.17a2.49,2.49,0,0,1,.63.32.86.86,0,0,1,.37.48,2.06,2.06,0,0,1,.09.73,1.86,1.86,0,0,1-.3,1.15,1.65,1.65,0,0,1-.94.56,6.93,6.93,0,0,1-1.8.19c-1.53,0-2.45-.3-2.78-.9a1.94,1.94,0,0,1-.2-.93,2.92,2.92,0,0,1,.09-.81,1.11,1.11,0,0,1,.74-.67ZM71,75.17l-1.46-1.3V76.2q0,.54.87.54a1.27,1.27,0,0,0,.61-.12.45.45,0,0,0,.22-.42v-.49A.68.68,0,0,0,71,75.17Zm.24,4.08V77.93a.43.43,0,0,0-.24-.4,1.17,1.17,0,0,0-.6-.12c-.58,0-.86.18-.86.52v1.32a.42.42,0,0,0,.23.39,1.35,1.35,0,0,0,.63.13C71,79.77,71.25,79.59,71.25,79.25Z"/></g></g></svg>