<svg xmlns="http://www.w3.org/2000/svg" xmlns:xlink="http://www.w3.org/1999/xlink" viewBox="0 0 152.66 67.6"><defs><style>.aaefd049-e0d3-45e7-add3-2a13bcab6c9c{fill:url(#f18ea4c2-21ec-4708-954a-3d9ed57382ac);}.ad0a0c83-f014-4070-ae5b-06bc1d17a8ae{fill:#394049;}</style><linearGradient id="f18ea4c2-21ec-4708-954a-3d9ed57382ac" y1="33.8" x2="85.28" y2="33.8" gradientUnits="userSpaceOnUse"><stop offset="0" stop-color="#dfdf00"/><stop offset="0.01" stop-color="#dfdf00"/><stop offset="0.28" stop-color="#dfdf00"/><stop offset="0.67" stop-color="#6dac3b"/><stop offset="0.89" stop-color="#297380"/></linearGradient></defs><title>72_1</title><g id="aaeb1b74-48af-44a7-89fd-16fc8175f682" data-name="Слой 2"><g id="ff7c47cd-3662-4dea-89a8-3e86acc4e68b" data-name="Слой 1"><path class="aaefd049-e0d3-45e7-add3-2a13bcab6c9c" d="M83.7,45.8a16.27,16.27,0,0,1-1.79,3.68c-1.33-4-11.11-7.5-26.17-8.8a8.68,8.68,0,0,0-3.22-.74,19.08,19.08,0,0,0-5.23.28,142.53,142.53,0,0,0-24.2,1.41c-.23,0-.48-.06-.75-.09A14.7,14.7,0,0,0,17,42a37,37,0,0,1-6.32-8.74,2.46,2.46,0,0,0,.95-1.05,2.68,2.68,0,0,0,0-2.15,5.4,5.4,0,0,0-3.07-2.8,17.48,17.48,0,0,1,1.93-13.07,4.36,4.36,0,0,0,1,.12,2.61,2.61,0,0,0,2.22-1.05,2.28,2.28,0,0,0,.13-2.19,2.86,2.86,0,0,0-.33-.62C17,7.11,22.09,4.85,28.15,3.91a4.19,4.19,0,0,0,3,1.28A2.32,2.32,0,0,0,33,4.41a1.82,1.82,0,0,0,.4-1l.8,0a50.8,50.8,0,0,1,15.9,2.81l0,.12a3.44,3.44,0,0,0,3,2h0a2,2,0,0,0,1.34-.48c2.07.82,4.11,1.71,6.06,2.67l.55-1A62.78,62.78,0,0,0,55,6.31a2.25,2.25,0,0,0-.13-.42A3.48,3.48,0,0,0,51.83,4a2,2,0,0,0-1.36.48A53,53,0,0,0,32.21,1.06,4.28,4.28,0,0,0,29.46,0a2.11,2.11,0,0,0-2.14,1.36C20.59,2.19,15,4.69,11,8.6a4.36,4.36,0,0,0-1.53-.26,2.63,2.63,0,0,0-2.21,1,2.27,2.27,0,0,0-.14,2.2,3.83,3.83,0,0,0,.7,1.08A21.62,21.62,0,0,0,5.2,27.17a2.52,2.52,0,0,0-1.3,1.14,2.64,2.64,0,0,0,0,2.27,5.44,5.44,0,0,0,3,2.75c.12.32.24.64.37,1a41.68,41.68,0,0,0,5.56,9.5,28.47,28.47,0,0,0-9.13,4c-.17.13-.32.26-.47.39a6.22,6.22,0,0,0-2.94.66c-.57.44.08.89,1.46,1.11-1,1.93,0,3.82,2.71,5.51a2.38,2.38,0,0,0-.91.36c-.56.43.27.88,1.87,1a10.86,10.86,0,0,0,1.71,0c3.93,1.7,9.76,3.08,17,3.93,0,.27.68.51,1.7.59a8.39,8.39,0,0,0,2.58-.17c2.58.2,5.18.32,7.79.38a57,57,0,0,0,13.91,4.05,8.69,8.69,0,0,0,5.27,1.95h.08a4.44,4.44,0,0,0,3.43-1.39c14.66-.47,24.83-8.37,26-20.18l.47-5ZM30.58,61l-1.42-.13c.21-.32-.47-.64-1.67-.73a7.82,7.82,0,0,0-2.82.24,64,64,0,0,1-16-3.75,1.79,1.79,0,0,0,.57-.26c.57-.43-.27-.89-1.87-1-.43,0-.87,0-1.29,0-2.61-1.61-3.45-3.39-2.17-5.17A6.59,6.59,0,0,0,7,49.43c.53-.41,0-.83-1.17-1.06a29.33,29.33,0,0,1,8.05-3.12,54,54,0,0,0,5.25,5.48,3.69,3.69,0,0,0,.3,1.64A7.26,7.26,0,0,0,26,56.48a3.9,3.9,0,0,0,.59,0,63,63,0,0,0,8.73,4.78C33.69,61.16,32.11,61.07,30.58,61Zm45-5.42a4.42,4.42,0,0,0-1.35-1.22,1.32,1.32,0,0,0,.5-.2c.32-.23-.15-.48-1-.56a7.37,7.37,0,0,0-.94,0,35.14,35.14,0,0,0-9.4-2.17c0-.15-.38-.28-.94-.33a4.92,4.92,0,0,0-1.43.1A82.7,82.7,0,0,0,50.41,51a1.57,1.57,0,0,0-.67-.16,2.69,2.69,0,0,0-1.44.2.14.14,0,0,0-.06.11c-1.23.09-2.43.22-3.58.36,1.14-.1,2.38-.19,3.66-.26a1.79,1.79,0,0,0,.67.16,2.67,2.67,0,0,0,1.44-.2.13.13,0,0,0,0-.06,79,79,0,0,1,9.26.14l.79.07c-.12.18.25.35.91.4A4.35,4.35,0,0,0,63,51.64a35.37,35.37,0,0,1,8.83,2.07,1.06,1.06,0,0,0-.32.15c-.31.23.15.48,1,.56a5.79,5.79,0,0,0,.72,0A3,3,0,0,1,74.72,56a34.44,34.44,0,0,1-16.26,3.88h-.88a8.69,8.69,0,0,0-5.82-2.35,4.44,4.44,0,0,0-3.41,1.38,62.69,62.69,0,0,1-19.1-7.33,7.49,7.49,0,0,0-5.78-3.84,55.15,55.15,0,0,1-4.37-3.65l.46-.09c2.36.13,4.81-.24,5.68-.86a151.89,151.89,0,0,1,20.27-1.11,8.46,8.46,0,0,0,3.26.76,18.35,18.35,0,0,0,5.71-.39l1.15.09c13.63,1.11,23.21,3.86,26.23,7.05A19.78,19.78,0,0,1,75.55,55.53Z"/><path class="ad0a0c83-f014-4070-ae5b-06bc1d17a8ae" d="M20.71,13.33h.86l2.85,7.91h-1l-.76-2.09h-3l-.75,2.09h-1Zm1.62,4.93L21.16,15h-.05L20,18.26Z"/><path class="ad0a0c83-f014-4070-ae5b-06bc1d17a8ae" d="M25.64,13.33H30v.85H26.6v7.06h-1Z"/><path class="ad0a0c83-f014-4070-ae5b-06bc1d17a8ae" d="M31.21,13.33h4.94v.89h-4V16.7h3.36v.88H32.17v2.76h4v.9H31.21Z"/><path class="ad0a0c83-f014-4070-ae5b-06bc1d17a8ae" d="M42.49,13.33h.95v7.91h-.95V17.72H38.58v3.52h-.95V13.33h.95v3.5h3.91Z"/><path class="ad0a0c83-f014-4070-ae5b-06bc1d17a8ae" d="M44.63,13.33h5.92v.86H48.08v7h-.95v-7h-2.5Z"/><path class="ad0a0c83-f014-4070-ae5b-06bc1d17a8ae" d="M54.74,13.25c1.72,0,2.63.89,2.75,2.68h-1c-.08-1.3-.62-1.8-1.8-1.8h-.49c-1.24,0-1.82.55-1.82,1.9v2.58a1.68,1.68,0,0,0,1.82,1.84h.49c1.19,0,1.71-.77,1.78-1.95h.94a2.61,2.61,0,0,1-2.72,2.83h-.49a2.75,2.75,0,0,1-2-.75,2.71,2.71,0,0,1-.73-2V16a2.48,2.48,0,0,1,2.78-2.78Z"/><path class="ad0a0c83-f014-4070-ae5b-06bc1d17a8ae" d="M58.06,13.33H64v.86H61.5v7h-.94v-7h-2.5Z"/><path class="ad0a0c83-f014-4070-ae5b-06bc1d17a8ae" d="M65.17,13.33h3.14a2.19,2.19,0,0,1,2.2,2.14,1.91,1.91,0,0,1-.89,1.61A2.12,2.12,0,0,1,70.8,19a2.17,2.17,0,0,1-.68,1.6,2.23,2.23,0,0,1-1.64.66H65.17Zm1,3.38h2.24a1.19,1.19,0,0,0,.84-.36,1.23,1.23,0,0,0,.35-.88,1.14,1.14,0,0,0-.37-.87,1.2,1.2,0,0,0-.87-.38H66.12Zm0,3.63h2.36a1.32,1.32,0,0,0,1-.39,1.38,1.38,0,0,0-1-2.35H66.12Z"/><path class="ad0a0c83-f014-4070-ae5b-06bc1d17a8ae" d="M75.23,13.26A2.48,2.48,0,0,1,78,16v2.55a2.57,2.57,0,0,1-2.78,2.73h-.49A2.56,2.56,0,0,1,72,18.59V16a2.48,2.48,0,0,1,2.77-2.78ZM77.06,16c0-1.35-.59-1.9-1.83-1.9h-.49c-1.23,0-1.81.55-1.81,1.9v2.55a1.68,1.68,0,0,0,1.81,1.85h.49a1.68,1.68,0,0,0,1.83-1.85Z"/><path class="ad0a0c83-f014-4070-ae5b-06bc1d17a8ae" d="M83.11,13.33h3.14A2.17,2.17,0,0,1,87.8,14a2.08,2.08,0,0,1,0,3,2.14,2.14,0,0,1-1.55.63H84.07v3.63h-1Zm1,3.39h2.18a1.25,1.25,0,0,0,1.24-1.25,1.25,1.25,0,0,0-1.24-1.25H84.07Z"/><path class="ad0a0c83-f014-4070-ae5b-06bc1d17a8ae" d="M91.21,13.33h.86l2.86,7.91h-1l-.75-2.09h-3l-.74,2.09h-1Zm1.63,4.93L91.66,15h0l-1.16,3.27Z"/><path class="ad0a0c83-f014-4070-ae5b-06bc1d17a8ae" d="M95.57,13.29h2.94a2,2,0,0,1,1.54.64,2.21,2.21,0,0,1,.6,1.59,1.92,1.92,0,0,1-.89,1.69,2.16,2.16,0,0,1,.89,1.86,2.19,2.19,0,0,1-.61,1.6,2,2,0,0,1-1.53.62H95.57V20.4h2.94a1.21,1.21,0,0,0,1.16-1.33,1.32,1.32,0,0,0-1.11-1.46h-2v-.88h2a1.13,1.13,0,0,0,1.11-1.21,1.24,1.24,0,0,0-1.16-1.34H95.57Z"/><path class="ad0a0c83-f014-4070-ae5b-06bc1d17a8ae" d="M102.14,13.33h3.14a2.19,2.19,0,0,1,2.2,2.14,1.91,1.91,0,0,1-.89,1.61,2.11,2.11,0,0,1,1.17,1.9,2.16,2.16,0,0,1-.67,1.6,2.23,2.23,0,0,1-1.64.66h-3.31Zm.94,3.38h2.25a1.19,1.19,0,0,0,.84-.36,1.23,1.23,0,0,0,.35-.88,1.3,1.3,0,0,0-1.24-1.25h-2.2Zm0,3.63h2.37a1.34,1.34,0,0,0,1-.39,1.38,1.38,0,0,0-1-2.35h-2.37Z"/><path class="ad0a0c83-f014-4070-ae5b-06bc1d17a8ae" d="M114.18,13.33h.87v7.91h-1V15.13l-4.16,6.11h-.8V13.33h1v6Z"/><path class="ad0a0c83-f014-4070-ae5b-06bc1d17a8ae" d="M116.15,13.33h5.92v.86H119.6v7h-.95v-7h-2.5Z"/><path class="ad0a0c83-f014-4070-ae5b-06bc1d17a8ae" d="M128.23,13.33h.87v7.91h-1V15.13L124,21.24h-.8V13.33h1v6Z"/><path class="ad0a0c83-f014-4070-ae5b-06bc1d17a8ae" d="M136,13.33v7.91h-.95V17.61h-1.47l-2,3.63h-1.06l2-3.7h-.15a2.12,2.12,0,0,1-1.25-.71,2,2,0,0,1-.5-1.34,2.07,2.07,0,0,1,.64-1.52,2.23,2.23,0,0,1,1.57-.63Zm-.95,3.39V14.21h-2.18a1.17,1.17,0,0,0-.88.38,1.21,1.21,0,0,0-.37.89,1.25,1.25,0,0,0,1.25,1.24Z"/><path class="ad0a0c83-f014-4070-ae5b-06bc1d17a8ae" d="M24.69,26.88h5.92v.86H28.14v7.05h-.95v-7h-2.5Z"/><path class="ad0a0c83-f014-4070-ae5b-06bc1d17a8ae" d="M31.8,26.88h4.95v.89h-4v2.48h3.36v.88H32.76v2.76h4v.9H31.8Z"/><path class="ad0a0c83-f014-4070-ae5b-06bc1d17a8ae" d="M42.59,26.88h1.12l-2.56,3.95,2.56,4H42.59l-2-3.1-2,3.1H37.49l2.54-4-2.54-3.95h1.12l2,3.1Z"/><path class="ad0a0c83-f014-4070-ae5b-06bc1d17a8ae" d="M49.79,26.88h1v7.91h-1V31.27h-3.9v3.52h-1V26.88h1v3.5h3.9Z"/><path class="ad0a0c83-f014-4070-ae5b-06bc1d17a8ae" d="M55.69,26.81a2.48,2.48,0,0,1,2.78,2.78v2.55a2.57,2.57,0,0,1-2.78,2.73H55.2a2.56,2.56,0,0,1-2.77-2.73V29.59a2.48,2.48,0,0,1,2.77-2.78Zm1.83,2.78c0-1.35-.59-1.9-1.83-1.9H55.2c-1.23,0-1.81.55-1.81,1.9v2.55A1.67,1.67,0,0,0,55.2,34h.49a1.68,1.68,0,0,0,1.83-1.84Z"/><path class="ad0a0c83-f014-4070-ae5b-06bc1d17a8ae" d="M60.73,26.88h4.51v7.91h-.95v-7H61.56l-.62,5.53a1.49,1.49,0,0,1-1.24,1.48h-.18L59.41,34h.2c.26-.08.41-.3.44-.7Z"/><path class="ad0a0c83-f014-4070-ae5b-06bc1d17a8ae" d="M70.19,26.81A2.47,2.47,0,0,1,73,29.59v2.55a2.57,2.57,0,0,1-2.77,2.73H69.7a2.57,2.57,0,0,1-2.78-2.73V29.59a2.48,2.48,0,0,1,2.78-2.78ZM72,29.59c0-1.35-.6-1.9-1.83-1.9H69.7c-1.23,0-1.82.55-1.82,1.9v2.55A1.68,1.68,0,0,0,69.7,34h.49A1.68,1.68,0,0,0,72,32.14Z"/><path class="ad0a0c83-f014-4070-ae5b-06bc1d17a8ae" d="M74.64,26.88H79v.85H75.6v7.06h-1Z"/><path class="ad0a0c83-f014-4070-ae5b-06bc1d17a8ae" d="M85.18,26.88h.87v7.91h-1V28.68l-4.16,6.11h-.8V26.88h1v6Z"/><path class="ad0a0c83-f014-4070-ae5b-06bc1d17a8ae" d="M92.88,26.88h.87v7.91h-1V28.68l-4.16,6.11h-.79V26.88h1v6Zm-.51-2.71a.81.81,0,0,1,0,.15,1.13,1.13,0,0,1-.37.84,1.15,1.15,0,0,1-.85.35h-.73a1.18,1.18,0,0,1-1.24-1.15.68.68,0,0,1,0-.19H90c0,.43.19.64.55.64h.58c.33,0,.5-.21.51-.64Z"/><path class="ad0a0c83-f014-4070-ae5b-06bc1d17a8ae" d="M99,26.88h5.11v.89H100v2.49h2.3a2.28,2.28,0,0,1,1.73.65,2.29,2.29,0,0,1,0,3.22,2.27,2.27,0,0,1-1.65.66H99Zm.95,7h2.36a1.3,1.3,0,0,0,1-.39,1.38,1.38,0,0,0-1-2.35H100Z"/><path class="ad0a0c83-f014-4070-ae5b-06bc1d17a8ae" d="M109.58,26.88h1.1l-2.89,7.91h-1.05l1-2.88-2.32-5h1.11l1.66,3.75Z"/><path class="ad0a0c83-f014-4070-ae5b-06bc1d17a8ae" d="M112.33,26.88h4.51v7h.74v2.17h-1V34.79h-5.06v1.27h-1V33.89h.66a.81.81,0,0,0,.4-.66Zm3.56,7V27.77h-2.73l-.61,5.57a1,1,0,0,1-.21.55Z"/><path class="ad0a0c83-f014-4070-ae5b-06bc1d17a8ae" d="M122.2,26.88h1.1l-2.89,7.91h-1l1-2.88-2.32-5h1.11l1.67,3.75Z"/><path class="ad0a0c83-f014-4070-ae5b-06bc1d17a8ae" d="M131.53,26.88h1v7h1.34v2.38h-1V34.79h-8.39V26.88h1v7H128v-7h1v7h2.56Z"/><path class="ad0a0c83-f014-4070-ae5b-06bc1d17a8ae" d="M135.13,26.88h5v.89h-4v2.48h3.36v.88h-3.36v2.76h4v.9h-5Z"/><path class="ad0a0c83-f014-4070-ae5b-06bc1d17a8ae" d="M141.55,26.88h4.34v.85h-3.38v7.06h-1Z"/><path class="ad0a0c83-f014-4070-ae5b-06bc1d17a8ae" d="M149.88,26.81a2.48,2.48,0,0,1,2.78,2.78v2.55a2.73,2.73,0,0,1-.75,2,2.7,2.7,0,0,1-2,.75h-.49a2.56,2.56,0,0,1-2.77-2.73V29.59a2.48,2.48,0,0,1,2.77-2.78Zm1.83,2.78c0-1.35-.6-1.9-1.83-1.9h-.49c-1.23,0-1.81.55-1.81,1.9v2.55A1.67,1.67,0,0,0,149.39,34h.49a1.68,1.68,0,0,0,1.83-1.84Z"/></g></g></svg>