<svg xmlns="http://www.w3.org/2000/svg" viewBox="0 0 131.57 60.93"><defs><style>.f508329a-b9de-4b38-a7f1-5f3e4d0c5bf8{fill:#c12a21;}.b9d940c6-5be0-4595-9eac-3eed5d39fc06{fill:#afafaf;}</style></defs><title>78</title><g id="b10975a8-346e-4275-81c5-cd979b34a100" data-name="Слой 2"><g id="fe6e8c5e-6869-4d9f-8182-81c641029cfa" data-name="Слой 1"><g id="f5f06634-caae-4a84-b803-ad3484693a33" data-name="logo NEW"><path class="f508329a-b9de-4b38-a7f1-5f3e4d0c5bf8" d="M67.12,29.76a17.3,17.3,0,0,0,2-7.89c0-3.35-.76-5.83-2.39-7.37-1.38-1.46-3.34-2-6-2.14a9.43,9.43,0,0,0-1.63-.09l-6.78.17V48h4.89V33.53a29.81,29.81,0,0,0,3.52-.26L64,48h5.13L65,31.9A6.38,6.38,0,0,0,67.12,29.76Zm-4.63-1.71a5,5,0,0,1-1.8.93,11.5,11.5,0,0,1-3.52.35V16.73h2.15a7.13,7.13,0,0,1,1.37.17,4.34,4.34,0,0,1,1.88.94c1,.94,1.55,2.49,1.55,4.71C64.12,24.62,63.52,27,62.49,28.05ZM36.34,48H49.63V43.56h-8.4v-10h7V29h-7V17.59l8.4-.52V12.61l-13.29.86Zm93-1.71a.78.78,0,0,0,.77-.79.65.65,0,0,0-.42-.59,1.11,1.11,0,0,0-.61-.09h-1V47.5h.43V46.39h.25c.18,0,.26,0,.35.17s.26.25.42.51l.26.43h.52L130,47A1.59,1.59,0,0,0,129.35,46.31Zm-.26-.35h-.6v-.77h.6c.42,0,.52.17.52.42S129.44,46,129.09,46ZM28.37,29h-5V15.1l-4.89.69V48H23.4V33.53h5V48h5V13.9l-5,.51ZM0,23.84l5.57-1.11V48h4.88V21.79l5.58-1V16.22L0,19.39Zm81.09,2.84-4.29-14L72,12.44V48h4.8V26.16l3.69,12.17h1.28l3.78-12.17V48h5V13.47l-4.62-.34ZM101.4,14.33a8.14,8.14,0,0,0-8.05,8.22V40a8.06,8.06,0,1,0,16.12,0V22.55A8.16,8.16,0,0,0,101.4,14.33Zm3.09,26.14a3,3,0,1,1-6.09,0V22.05a3.14,3.14,0,0,1,3-3.18,3.22,3.22,0,0,1,3.09,3.18ZM116.33,24c0-1.2.16-2,.67-2.41a1.79,1.79,0,0,1,1.55-.42,2,2,0,0,1,1.45.6,3,3,0,0,1,.78,2v2.58l4.11.26v-3c0-1.89-.34-3.09-1.28-4a7.79,7.79,0,0,0-4.89-2.05c-2.39-.25-4.12.25-5.23,1.28s-1.8,2.92-1.8,5.49c0,4.12,2.14,6.69,4.88,9.6,4.29,4.38,4.29,5.14,4.29,7.55a3.63,3.63,0,0,1-.69,2.49,2.33,2.33,0,0,1-1.71.59A2.16,2.16,0,0,1,117,44a3.62,3.62,0,0,1-.86-2.48V38.76l-4.45-.09v3.86a5.5,5.5,0,0,0,1.45,3.94,7,7,0,0,0,5.15,1.71,7.18,7.18,0,0,0,5.15-1.62c1.19-1.29,1.8-3.18,1.8-5.75,0-3.68-.77-5.14-4.8-9.51C116.66,27.18,116.33,26,116.33,24Zm12.76,19.63a2.48,2.48,0,1,0,2.48,2.48A2.48,2.48,0,0,0,129.09,43.65Zm0,4.53a2.06,2.06,0,0,1,0-4.11,2.06,2.06,0,1,1,0,4.11Z"/><path class="b9d940c6-5be0-4595-9eac-3eed5d39fc06" d="M30.22,2.94h2.21v.17A2.83,2.83,0,0,1,32,4.83a2.47,2.47,0,0,1-2,1A2.56,2.56,0,0,1,28,5.05a2.7,2.7,0,0,1-.83-2,2.79,2.79,0,0,1,.77-2,2.71,2.71,0,0,1,2-.82,2.66,2.66,0,0,1,1.63.51,2.67,2.67,0,0,1,.59.57l-.58.56A2,2,0,0,0,30,1a1.94,1.94,0,0,0-2,2,1.94,1.94,0,0,0,1.94,2,1.59,1.59,0,0,0,1.6-1.39H30.22Z"/><path class="b9d940c6-5be0-4595-9eac-3eed5d39fc06" d="M42.85,1.13H40.71V2.41h2.08v.78H40.71V5h2.14v.77h-3V.36h3Z"/><path class="b9d940c6-5be0-4595-9eac-3eed5d39fc06" d="M50.35,5.73V0l3.9,4.08V.36h.82v5.7L51.17,2V5.73Z"/><path class="b9d940c6-5be0-4595-9eac-3eed5d39fc06" d="M63.61.36V3.6a1.86,1.86,0,0,0,.17.92,1.16,1.16,0,0,0,2,0,1.86,1.86,0,0,0,.17-.92V.36h.82V3.81a2,2,0,0,1-.5,1.39,2.07,2.07,0,0,1-3,0,2,2,0,0,1-.5-1.39V.36Z"/><path class="b9d940c6-5be0-4595-9eac-3eed5d39fc06" d="M75.3.36V5.73h-.82V.36Z"/><path class="b9d940c6-5be0-4595-9eac-3eed5d39fc06" d="M83,5.73V0l3.89,4.08V.36h.82v5.7L83.85,2V5.73Z"/><path class="b9d940c6-5be0-4595-9eac-3eed5d39fc06" d="M98.42,1.13H96.28V2.41h2.08v.78H96.28V5h2.14v.77h-3V.36h3Z"/><path class="b9d940c6-5be0-4595-9eac-3eed5d39fc06" d="M38.89,55.24a2,2,0,0,1,1.28.28,1.37,1.37,0,0,1,.62,1.21,1.17,1.17,0,0,1-.45,1A1.29,1.29,0,0,1,41.28,59a1.59,1.59,0,0,1-.54,1.26,2,2,0,0,1-1.43.38H38.07V55.24Zm0,2.3h.24a.76.76,0,0,0,.88-.78c0-.67-.52-.75-.84-.75H38.9Zm0,2.29h.49c.91,0,1.08-.46,1.08-.8s-.19-.81-1.06-.81H38.9Z"/><path class="b9d940c6-5be0-4595-9eac-3eed5d39fc06" d="M49.7,55.24a2.4,2.4,0,0,1,1.41.31,1.49,1.49,0,0,1,.64,1.26,1.47,1.47,0,0,1-1.19,1.5l1.67,2.29h-1l-1.53-2.19h-.15V60.6h-.82V55.24Zm-.14,2.46h.26c.22,0,1.14,0,1.14-.88S50.25,56,49.84,56h-.28Z"/><path class="b9d940c6-5be0-4595-9eac-3eed5d39fc06" d="M62.62,59.31H60.33l-.58,1.29h-.89l2.67-5.68,2.54,5.68h-.88Zm-.32-.78-.8-1.81-.83,1.81Z"/><path class="b9d940c6-5be0-4595-9eac-3eed5d39fc06" d="M71.18,60.6V54.87L75.08,59V55.24h.82v5.69L72,56.85V60.6Z"/><path class="b9d940c6-5be0-4595-9eac-3eed5d39fc06" d="M84.75,55.24a3.13,3.13,0,0,1,2,.52,2.66,2.66,0,0,1,1,2.16,2.56,2.56,0,0,1-1.08,2.17,3.07,3.07,0,0,1-2,.51H83.62V55.24Zm-.31,4.59h.35a2.31,2.31,0,0,0,1.43-.38A1.88,1.88,0,0,0,87,57.92a1.93,1.93,0,0,0-.72-1.54A2.41,2.41,0,0,0,84.79,56h-.35Z"/></g></g></g></svg>