<svg xmlns="http://www.w3.org/2000/svg" viewBox="0 0 107.15 80.52"><defs><style>.f631aeb5-2bd9-44fd-8626-4199e7faf28c{fill:#ccc;}.a28de5fa-e259-47be-a160-124188a8349c{fill:#d67d46;}</style></defs><title>79</title><g id="a07c1f3b-e09a-49fd-be93-5e5b6bb3c3af" data-name="Слой 2"><g id="b86e7a75-aead-477e-8a11-419dbae1d451" data-name="Слой 1"><rect class="f631aeb5-2bd9-44fd-8626-4199e7faf28c" x="12.23" y="75.04" width="21.72" height="5.11"/><rect class="f631aeb5-2bd9-44fd-8626-4199e7faf28c" x="12.23" y="68.56" width="17.52" height="5.11"/><rect class="f631aeb5-2bd9-44fd-8626-4199e7faf28c" x="12.23" y="62.27" width="12.23" height="5.11"/><rect class="f631aeb5-2bd9-44fd-8626-4199e7faf28c" x="12.23" y="56.06" width="5.75" height="5.11"/><rect class="f631aeb5-2bd9-44fd-8626-4199e7faf28c" x="3.01" y="12.29" width="9.22" height="5.11"/><rect class="f631aeb5-2bd9-44fd-8626-4199e7faf28c" x="12.23" y="6.02" width="10.5" height="5.11"/><rect class="f631aeb5-2bd9-44fd-8626-4199e7faf28c" x="12.23" width="18.65" height="5.11"/><rect class="f631aeb5-2bd9-44fd-8626-4199e7faf28c" y="43.93" width="12.23" height="5.11"/><rect class="f631aeb5-2bd9-44fd-8626-4199e7faf28c" x="6.48" y="50.14" width="5.75" height="5.11"/><path class="f631aeb5-2bd9-44fd-8626-4199e7faf28c" d="M36.54,80.15V58.91h0a24.49,24.49,0,0,0-3.1-9.76c-2.92-5.33-8.6-11.57-19.54-15.25a.37.37,0,0,0-.46.23.35.35,0,0,0,.22.46C24.44,38.22,30,44.31,32.8,49.5a26.13,26.13,0,0,1,2.57,6.67,20.48,20.48,0,0,1,.37,2c0,.24,0,.43.06.55v.18h0V80.15a.36.36,0,0,0,.36.37.37.37,0,0,0,.37-.37"/><path class="a28de5fa-e259-47be-a160-124188a8349c" d="M71.18,4.73c0,5.21,0,10,0,14.88,0,.77-.17,1-1,1-2.51,0-2.51,0-2.51-2.54,0-5.28,0-10.56,0-15.84,0-1,.3-1.23,1.22-1.18a30,30,0,0,0,4,0c1-.07,1.21.33,1.39,1.17.68,3.21,1.44,6.41,2.18,9.61a1,1,0,0,0,.44.67c.49-1.88,1-3.77,1.48-5.65.43-1.65.87-3.3,1.24-5a.9.9,0,0,1,1.07-.83c1.46,0,2.93,0,4.39,0,.66,0,.91.14.9.86q0,8.9,0,17.79c0,.69-.17.88-.87.9C82,20.7,82,20.73,82,17.54V5.61l-.27,0c-.51,2.06-1,4.12-1.53,6.17-.65,2.64-1.32,5.28-1.91,7.93-.17.72-.42,1-1.2,1-2.17,0-2.18,0-2.67-2.14-.92-4.11-1.83-8.23-2.76-12.35-.08-.37-.21-.73-.43-1.43"/><path class="a28de5fa-e259-47be-a160-124188a8349c" d="M49.65,21c0,1,0,2,0,3.05,0,.53-.16.71-.69.69-3-.14-2.43.67-2.69-2.38-.1-1.21-.39-1.67-1.68-1.6-2.19.12-4.39.06-6.58,0-.67,0-1,.2-1,.87a5.83,5.83,0,0,1-.06.72c-.29,3,.23,2.24-2.73,2.37-.52,0-.7-.15-.7-.69,0-2.07,0-4.14,0-6.21,0-.3-.09-.74.43-.66.89.13.93-.5,1.09-1.09,1.25-4.7,2.53-9.39,3.74-14.1.19-.76.5-1,1.23-.93,1.21,0,2.43.06,3.65,0,.72,0,1,.24,1.11.92,1.1,4.73,2.26,9.46,3.39,14.18.13.56.18,1.14,1,1,.52-.07.44.35.44.66,0,1.05,0,2.11,0,3.16M38.72,17.21c1.65,0,3.18,0,4.72,0,.47,0,.65-.12.54-.63C43.26,13,42.56,9.45,41.85,5.88c-.05-.24-.05-.53-.37-.54s-.34.27-.39.51C40.31,9.6,39.53,13.35,38.72,17.21Z"/><path class="a28de5fa-e259-47be-a160-124188a8349c" d="M65,10.78a17,17,0,0,1-1,6,6.13,6.13,0,0,1-5.78,4.11c-2.75.13-5.08-.79-6.27-3.46A15.83,15.83,0,0,1,52.11,4C53.31,1.29,55.77.52,58.49.71a6.18,6.18,0,0,1,5.65,4.45A15.36,15.36,0,0,1,65,10.78m-4.61-.62a18.41,18.41,0,0,0-.28-3.53c-.36-2-1.43-2.7-3.12-2.13a2.06,2.06,0,0,0-1.29,1.63,19.92,19.92,0,0,0,.05,9.4,2.32,2.32,0,0,0,1.94,1.78,2.08,2.08,0,0,0,2.08-1.53C60.43,14.15,60.38,12.45,60.41,10.16Z"/><path class="a28de5fa-e259-47be-a160-124188a8349c" d="M93,29a2,2,0,0,0-.91,1l-3.3,5.83a1.92,1.92,0,0,0-.43,1.23c.09.75-.29.86-.93.86-1.55,0-1.55,0-1.55-1.57,0-4,0-8,0-12.06,0-1.09.51-1,1.25-1s1.33-.11,1.28,1c-.11,2.35-.07,4.71-.07,7.06a1.88,1.88,0,0,0,.21,1.29c1-1.74,2-3.38,2.85-5.08.64-1.24,1.57-2.31,1.66-3.86,0-.86,1.15-.26,1.76-.4s.64.28.64.74c0,4.39,0,8.78,0,13.17,0,1.11-.8.66-1.3.69s-1.17.3-1.14-.71c0-2.27,0-4.55,0-6.83V29"/><path class="a28de5fa-e259-47be-a160-124188a8349c" d="M53.06,30.55c0-2.07,0-4.14,0-6.21,0-.73.09-1.08,1-1.06,2.36.07,4.71,0,7.07,0,.66,0,.92.16.92.87,0,4.31,0,8.62,0,12.92,0,1.26-.83.78-1.41.86s-1.12,0-1.1-.92c.06-3.53,0-7.07,0-10.6,0-1-.31-1.2-1.23-1.18-2.81,0-2.81,0-2.81,2.85s0,5.94,0,8.9c0,1-.47,1-1.17,1S53,38.21,53,37c.09-2.15,0-4.3,0-6.46"/><path class="a28de5fa-e259-47be-a160-124188a8349c" d="M101.66,27.06,99.89,34.3c-.24,1-.52,2-.7,3-.11.58-.39.69-.91.7-1.87.07-1.85.09-1.39-1.71,1-3.92,2-7.84,3-11.77.22-.9.56-1.34,1.53-1.18a5.91,5.91,0,0,0,1.33,0,.7.7,0,0,1,.84.63c1.17,4.63,2.38,9.25,3.56,13.84-.08.07-.1.1-.13.11-2.33.28-2.33.28-2.87-2-.62-2.55-1.23-5.12-1.85-7.67-.1-.41-.25-.8-.38-1.2l-.26,0"/><path class="a28de5fa-e259-47be-a160-124188a8349c" d="M75,30.65c0-2.16,0-4.31,0-6.46,0-.68.17-.94.88-.9a35.68,35.68,0,0,1,4.61.23,3.93,3.93,0,0,1,3.41,3,4.5,4.5,0,0,1-1.52,4.83,5.67,5.67,0,0,1-3.84.89c-1,0-1.15.34-1.1,1.19.06,1.26,0,2.52,0,3.78s-.8.66-1.29.69-1.19.33-1.17-.69c0-2.19,0-4.39,0-6.58m2.44-2.84v1c0,1.71,0,1.71,1.76,1.46A2.48,2.48,0,0,0,81.41,28a2.77,2.77,0,0,0-2.18-2.76c-1.56-.29-1.82-.09-1.82,1.48Z"/><path class="a28de5fa-e259-47be-a160-124188a8349c" d="M64.79,30.57c0-2.11,0-4.23,0-6.34,0-.76.22-1,1-.94,2.19.05,4.39.05,6.58,0,.77,0,1,.23,1,1s-.21,1.06-1,1c-1.42-.07-2.85,0-4.27,0-.59,0-.73.19-.76.76-.17,3.43-.18,3.41,3.22,3.45.61,0,1.53-.44,1.52.89,0,.87-.27,1.13-1.11,1.06s-1.87,0-2.8,0c-.66,0-.86.22-.82.84.09,1.21-.49,2.75.22,3.53s2.22.16,3.38.22a6,6,0,0,0,1.34,0c1-.17,1.22.31,1.17,1.21,0,.57-.17.77-.76.76-2.32,0-4.63,0-6.95,0-.74,0-.86-.29-.85-.93,0-2.15,0-4.31,0-6.46"/><path class="f631aeb5-2bd9-44fd-8626-4199e7faf28c" d="M74.56,66.37a1.08,1.08,0,0,1-1-.78c-.13-.38-.23-.77-.39-1.14a.69.69,0,0,0-.81-.39c-.44.07-.22.44-.31.67-.19.5.47,1.47-.45,1.47s-.26-1-.45-1.47c-.09-.24.13-.61-.31-.67a.63.63,0,0,0-.77.43l-.41,1.14a1.05,1.05,0,0,1-1.24.73c-.28,0-.55-.45-.21-.56,1-.34.92-1.32,1.25-2s-.27-1.35-.8-1.86c-.16-.16-.5-.17-.33-.51s.51-.18.75-.11c.6.16.7.71.86,1.22s.28.92.87.81.25-.67.33-1,0-.49,0-.73.33-.31.55-.33.35.14.35.37a6.15,6.15,0,0,0,0,.86c0,.31-.23.8.37.85s.73-.27.84-.7.21-1,.67-1.25c.29-.16.73-.38,1,0s-.23.39-.42.55c-.53.42-.42,1.22-1,1.63.65.54.59,1.5,1.24,2,.15.13.56,0,.39.42a.51.51,0,0,1-.61.28"/><path class="f631aeb5-2bd9-44fd-8626-4199e7faf28c" d="M80.39,63.64c.16.71-.44,1.7.68,2.33.23.13.06,1,0,1.52,0,.26-.26.25-.46.25s-.48-.17-.43-.46c.19-1.07-.48-1.06-1.22-1a10,10,0,0,1-1.34,0c-.63-.05-1,.08-.91.84.05.32.05.68-.46.64s-.44-.39-.43-.7a1.92,1.92,0,0,1,.52-1.59c.79-.81.68-2,.67-3.13,0-.78.22-1.14,1-1h.12c2.2,0,2.2,0,2.2,2.31m-.86.23c0-.28,0-.57,0-.85,0-.59.07-1.1-.83-1.1s-.78.42-.79,1a4.59,4.59,0,0,1-.22,1.43c-.46,1.28.61,1,1.17,1.14,1,.23.59-.57.66-1A4.14,4.14,0,0,0,79.53,63.87Z"/><path class="f631aeb5-2bd9-44fd-8626-4199e7faf28c" d="M97.1,63.29c-.58.86-1.16,1.71-1.72,2.58a.85.85,0,0,1-1,.48c-.5-.14-.33-.59-.33-.92,0-1.13,0-2.27,0-3.4,0-.39,0-.71.52-.73s.48.41.48.73a12.44,12.44,0,0,0,.21,2.51c.57-.84,1.14-1.67,1.69-2.51.27-.43.56-.88,1.12-.71s.28.69.29,1.06c0,1.09,0,2.18,0,3.27,0,.34,0,.69-.43.72s-.59-.3-.59-.71v-2.3l-.23-.07"/><path class="f631aeb5-2bd9-44fd-8626-4199e7faf28c" d="M58.18,66.21v1.63c0,.36-.27.49-.55.53-.48.07-.35-.32-.36-.57-.14-2,.25-4-.22-6-.07-.3.29-.54.42-.44.72.56,1.32,0,2-.1a1.82,1.82,0,0,1,1.36.37,3.34,3.34,0,0,1,.55,3.6,2,2,0,0,1-2.52,1.11l-.66-.11M60.67,64c0-.25,0-.41,0-.57-.12-.71-.11-1.53-1.19-1.47S58,62.5,58.18,63.5a3.94,3.94,0,0,1,0,1c-.15,1,.46,1.26,1.29,1.25C60.78,65.71,60.51,64.65,60.67,64Z"/><path class="f631aeb5-2bd9-44fd-8626-4199e7faf28c" d="M74.28,47.07c0,.8-.09,1.61-.17,2.41,0,.32.18.84-.4.84s-.4-.6-.4-.92c0-1.09.13-2.19.21-3.28,0-.32,0-.67.49-.67.33,0,.61,0,.77.42.29.79.64,1.55,1,2.44.37-.91.66-1.65.95-2.4a.69.69,0,0,1,.76-.46c.5,0,.45.35.47.66l.27,3.64c0,.3.05.58-.38.59s-.43-.27-.45-.57c-.07-.91-.14-1.82-.24-3.1-.34.84-.51,1.36-.75,1.85-.14.3-.13.78-.62.8s-.52-.43-.66-.75c-.22-.51-.43-1-.64-1.53l-.22,0"/><path class="f631aeb5-2bd9-44fd-8626-4199e7faf28c" d="M103.6,62.76c-.82,1.23-1.44,2.15-2,3.09-.21.32-.43.59-.87.52s-.35-.56-.35-.88c0-1.14,0-2.27,0-3.41,0-.47.2-.71.62-.69s.3.4.3.65c0,.89,0,1.78,0,3.06.79-1.18,1.41-2.08,2-3,.25-.39.56-.82,1-.71s.23.68.25,1c0,1.1,0,2.19,0,3.29,0,.32.06.69-.45.66s-.49-.31-.49-.67c0-.85,0-1.7,0-2.94"/><path class="f631aeb5-2bd9-44fd-8626-4199e7faf28c" d="M75.27,57.15c.82-1.23,1.48-2.18,2.1-3.16.24-.38.58-.68,1-.6s.25.61.26.94c0,1.09,0,2.19,0,3.29,0,.4,0,.76-.55.74s-.38-.44-.38-.74c0-.83,0-1.67,0-2.84l-2,2.9c-.25.38-.49.84-1,.65s-.25-.63-.26-1c0-1,0-2,0-2.92,0-.43-.15-1,.5-1s.3.62.32.94c.06.82,0,1.66,0,2.8"/><path class="f631aeb5-2bd9-44fd-8626-4199e7faf28c" d="M64.86,61.2c1.32,0,1.82.49,1.87,1.8a9.1,9.1,0,0,0,.2,2.65c.2.59-.22.9-.57.56-.51-.49-.78-.08-1.14.05a1.78,1.78,0,0,1-2.37-.83c-.28-.88.28-1.72,1.41-2.05a4.63,4.63,0,0,1,.83-.13c.37,0,.76,0,.75-.54a.7.7,0,0,0-.74-.78,8.13,8.13,0,0,0-1.2.12c-.27,0-.62.22-.69-.19s.33-.41.57-.48a9.73,9.73,0,0,1,1.08-.18m1,3.18c0-.18,0-.6-.6-.54s-1.49.32-1.58,1.19c-.05.49.38.77.9.72C65.25,65.68,65.85,65.48,65.85,64.38Z"/><path class="f631aeb5-2bd9-44fd-8626-4199e7faf28c" d="M84.68,64a1.08,1.08,0,0,0-.36,0c-.44.14-1.24-.4-1.31.35s.63,1.25,1.43,1.37a3.59,3.59,0,0,0,.73,0c.34,0,.8-.64,1,0s-.54.6-.91.67a2.5,2.5,0,0,1-2.82-.91,2.87,2.87,0,0,1-.07-3.12,2.16,2.16,0,0,1,2.43-1,2.29,2.29,0,0,1,1.68,2.24c0,.4-.28.45-.58.45H84.68m-.51-.58c.4-.3,1.2.39,1.25-.47a1,1,0,0,0-1.2-1.08c-.67,0-1.24.4-1.19,1.1S83.81,63.13,84.17,63.41Z"/><path class="f631aeb5-2bd9-44fd-8626-4199e7faf28c" d="M52.79,48.93C54,47.65,54.36,46,56,45.09c0,1.77,0,3.28,0,4.8,0,.26-.1.46-.43.45s-.38-.25-.39-.5A15.61,15.61,0,0,0,55,46.93l-1.74,2.61c-.27.39-.47,1-1.08.77s-.28-.78-.3-1.19c0-1,0-1.95,0-2.92,0-.62,0-.62.9-.88Z"/><path class="f631aeb5-2bd9-44fd-8626-4199e7faf28c" d="M55.19,58.5A2.27,2.27,0,0,1,52.8,57a2.66,2.66,0,0,1,.39-2.85,2.17,2.17,0,0,1,2.53-.66,2.09,2.09,0,0,1,1.33,2.09c.05.53-.33.46-.64.46-.69,0-1.38,0-2.07,0-1-.07-.91.45-.53,1a1.66,1.66,0,0,0,2,.73c.31-.09.83-.63,1,0s-.56.49-.9.65a2.13,2.13,0,0,1-.72.08m-.29-3c.25-.47,1.1.4,1.14-.54a1,1,0,0,0-1.12-1c-.74,0-1.34.44-1.29,1.16S54.43,55.25,54.9,55.55Z"/><path class="f631aeb5-2bd9-44fd-8626-4199e7faf28c" d="M51.2,63.69a2.36,2.36,0,0,1-2.28,2.7,2.32,2.32,0,0,1-2.43-2.45,2.39,2.39,0,0,1,2.3-2.71,2.32,2.32,0,0,1,2.41,2.46m-1,.18c0-1.26-.55-2.09-1.41-2-1.17.12-1.35,1-1.35,2s.11,1.84,1.33,1.91C49.7,65.77,50.22,65.07,50.23,63.87Z"/><path class="f631aeb5-2bd9-44fd-8626-4199e7faf28c" d="M70.2,48a3.55,3.55,0,0,0-.73,0c-.38.08-1-.32-1.1.36a1.22,1.22,0,0,0,.71,1.18,1.82,1.82,0,0,0,1.86,0c.24-.1.47-.21.61.09s0,.46-.3.54a3.24,3.24,0,0,1-2.82-.13,2.64,2.64,0,0,1-1-2.92,2.11,2.11,0,0,1,1.63-1.77,2.13,2.13,0,0,1,2.79,2c0,.41-.11.61-.54.59s-.73,0-1.1,0m-.58-.49c.29-.45,1.14.38,1.17-.55a1,1,0,0,0-1.12-1.06c-.73,0-1.34.39-1.28,1.15S69.19,47.2,69.62,47.53Z"/><path class="f631aeb5-2bd9-44fd-8626-4199e7faf28c" d="M90.31,55.86v2c0,.33-.12.55-.49.55s-.45-.26-.44-.58a2.57,2.57,0,0,1,0-.48c.19-1-.26-1.14-1.13-1.12s-1.4.08-1.24,1.15c0,.34.31,1-.44,1s-.35-.63-.36-1c0-1.09,0-2.19,0-3.28,0-.39.13-.68.51-.7.57,0,.33.47.31.7-.08,1,0,1.59,1.28,1.51.94-.06,1.23-.32,1.09-1.19a1.79,1.79,0,0,1,0-.61.57.57,0,0,1,.64-.44c.34,0,.26.35.27.57,0,.65,0,1.3,0,2"/><path class="f631aeb5-2bd9-44fd-8626-4199e7faf28c" d="M87.94,63.68c0-.56,0-1.13,0-1.7s.11-.71.59-.69.31.46.37.73c.11.57-.42,1.43.84,1.41,1,0,1.65-.11,1.42-1.33-.06-.33-.12-.75.45-.8s.45.43.45.74c0,1.18,0,2.36,0,3.53,0,.33,0,.69-.46.69s-.44-.36-.47-.69c-.06-.69.42-1.63-1-1.57-1,0-1.35.32-1.22,1.3,0,.35.21.91-.42.94-.78,0-.47-.6-.5-1,0-.53,0-1.06,0-1.59"/><path class="f631aeb5-2bd9-44fd-8626-4199e7faf28c" d="M51.1,55.9v1.83c0,.29,0,.6-.39.63s-.51-.28-.51-.64c0-1,0-1.95,0-2.92,0-.48-.09-.76-.67-.74s-.83.06-.85.71a8.48,8.48,0,0,1-.22,2.29,2,2,0,0,1-.87,1.25c-.33.18-.74.37-1-.05s.32-.39.52-.53a1.51,1.51,0,0,0,.6-1.26c0-.73.13-1.46.13-2.19,0-.53.1-.77.72-.8,2.5-.13,2.5-.15,2.5,2.42"/><path class="f631aeb5-2bd9-44fd-8626-4199e7faf28c" d="M68.35,56c0-.61,0-1.22,0-1.82,0-.43.09-.78.54-.78s.33.51.29.75c-.2,1.2.29,1.54,1.45,1.44.71-.06,1.07-.18.95-1a3,3,0,0,1,0-.85c0-.28.29-.38.54-.39s.25.26.25.44c0,1.33,0,2.67,0,4,0,.31,0,.58-.46.53s-.35-.28-.35-.53a1.93,1.93,0,0,0,0-.24c-.09-.44.28-1.11-.25-1.3a4.18,4.18,0,0,0-1.8,0c-.57.07-.22.59-.32.89s.34,1.18-.39,1.18-.34-.81-.44-1.25a5,5,0,0,1,0-1.09"/><path class="f631aeb5-2bd9-44fd-8626-4199e7faf28c" d="M101.23,55.26c.43-.54.82-1,1.19-1.49.24-.3.56-.42.84-.18s-.07.49-.22.69c-1.23,1.6-1.22,1.59,0,3.14.18.23.76.46.31.85s-.72,0-1-.37-.7-.89-1.15-1.46l-1.35,1.67c-.23.29-.53.43-.83.16s.09-.47.2-.68.11-.12.16-.19c1.31-1.5,1.31-1.5.08-3.13-.15-.19-.56-.39-.21-.68a.56.56,0,0,1,.85.17c.35.49.72,1,1.12,1.5"/><path class="f631aeb5-2bd9-44fd-8626-4199e7faf28c" d="M80.14,47.82c0-.65,0-1.3,0-2,0-.38.27-.49.54-.54.47-.07.4.33.37.57-.14,1,.12,1.53,1.3,1.51A1.42,1.42,0,0,1,83.92,49c-.09.95-.85,1.28-1.76,1.33-2,.1-2,.11-2-2.53m.92,1c0,.5-.1,1,.67.93.61-.06,1.29,0,1.28-.89s-.61-.8-1.2-.87S81,48.21,81.06,48.78Z"/><path class="f631aeb5-2bd9-44fd-8626-4199e7faf28c" d="M60.93,58.47a2.17,2.17,0,0,1-2.48-1.4,3,3,0,0,1,.75-3.22,2.47,2.47,0,0,1,2.73-.24c.22.1.47.24.34.54s-.42.22-.69.09a1.39,1.39,0,0,0-1.94.34,2.39,2.39,0,0,0-.09,2.64c.41.75,1.16.76,1.92.47.27-.11.64-.41.8.07s-.33.49-.6.57a4.18,4.18,0,0,1-.74.14"/><path class="f631aeb5-2bd9-44fd-8626-4199e7faf28c" d="M84.22,55.85v1.82c0,.34,0,.68-.46.69s-.51-.35-.46-.67c.16-1-.09-1.28-1.18-1.14a1.88,1.88,0,0,1-1.73-2.88.74.74,0,0,1,.48-.3c.31,0,.27.23.28.41,0,.44,0,.89,0,1.33.07.75.61.87,1.23.84s.93-.23.94-1c0-.56-.43-1.6.5-1.57s.21,1,.38,1.57a3,3,0,0,1,0,.85"/><path class="f631aeb5-2bd9-44fd-8626-4199e7faf28c" d="M60,50.44A1.93,1.93,0,0,1,57.9,49a3,3,0,0,1,.77-3.23,2.51,2.51,0,0,1,2.74-.21c.2.1.47.21.31.54s-.34.28-.59.14a1.42,1.42,0,0,0-2,.19,2.38,2.38,0,0,0-.21,2.64,1.33,1.33,0,0,0,1.75.65c.32-.08.83-.63,1,0s-.55.52-.92.66a2.5,2.5,0,0,1-.73,0"/><path class="f631aeb5-2bd9-44fd-8626-4199e7faf28c" d="M92.28,55.91c0-.6,0-1.21,0-1.82,0-.38.1-.68.48-.72.59-.06.37.45.35.68-.1.92.07,1.39,1.19,1.37.92,0,1.8.42,1.7,1.6s-.92,1.32-1.85,1.35a4.45,4.45,0,0,0-.73,0c-.89.14-1.28-.19-1.14-1.13a10,10,0,0,0,0-1.34m1.59,1.81c.69,0,1.31-.13,1.27-.86S94.52,56,93.9,56c-.81-.07-.77.39-.8,1S93.35,57.82,93.87,57.72Z"/><path class="f631aeb5-2bd9-44fd-8626-4199e7faf28c" d="M49,45.44a3.08,3.08,0,0,1,.7.09c.34.12.95.13.73.71s-.63.06-.9-.05a1.28,1.28,0,0,0-1.63.38,2.51,2.51,0,0,0-.21,2.65,1.24,1.24,0,0,0,1.54.66,5.49,5.49,0,0,0,.69-.21c.21-.06.42-.07.52.15s-.08.45-.32.53a2.65,2.65,0,0,1-2.86-.28,2.73,2.73,0,0,1-.54-3.15A2.14,2.14,0,0,1,49,45.44"/><path class="f631aeb5-2bd9-44fd-8626-4199e7faf28c" d="M65.12,53.5c.53,0,1.06,0,1.58,0,.18,0,.44-.08.48.21a.3.3,0,0,1-.37.35c-1.56-.28-1.29.81-1.28,1.69a13.85,13.85,0,0,1,0,1.58c0,.37.31,1-.46,1s-.41-.67-.43-1.06a17.88,17.88,0,0,1,0-2.07c0-.75,0-1.3-1-1.14-.21,0-.55.13-.58-.24s.38-.31.62-.32c.49,0,1,0,1.46,0"/><path class="f631aeb5-2bd9-44fd-8626-4199e7faf28c" d="M66.67,45.46c0,.46-.19.6-.38.56-1.4-.26-1.35.62-1.3,1.57,0,.73,0,1.46,0,2.19,0,.31-.07.56-.46.56s-.47-.24-.47-.56c0-.86,0-1.71,0-2.56S64,45.85,63,46c-.22,0-.55,0-.55-.29s.33-.28.55-.28h3.66"/><path class="f631aeb5-2bd9-44fd-8626-4199e7faf28c" d="M54.5,61.33c.39.21,1.33-.37,1.35.28s-.91.38-1.41.4-.69.2-.68.71c0,.93,0,1.87,0,2.8,0,.39,0,.78-.53.74s-.41-.42-.42-.73c0-.86,0-1.71,0-2.56,0-1.9-.23-1.61,1.68-1.64"/><path class="f631aeb5-2bd9-44fd-8626-4199e7faf28c" d="M85.51,47.8c0,.65,0,1.29,0,1.94,0,.26.07.59-.37.6s-.55-.23-.55-.61c0-1.25,0-2.5,0-3.75a.6.6,0,0,1,.68-.66c.43,0,.23.43.24.67,0,.6,0,1.21,0,1.81"/><path class="f631aeb5-2bd9-44fd-8626-4199e7faf28c" d="M97.56,55.85V57.8c0,.32-.08.56-.47.56s-.39-.33-.39-.6c0-1.22,0-2.44,0-3.66,0-.45.17-.76.58-.74s.26.51.28.79c0,.56,0,1.13,0,1.7"/><path class="f631aeb5-2bd9-44fd-8626-4199e7faf28c" d="M102.42,60.81a1.61,1.61,0,0,1-1.1-.43c-.23-.22-.67-.52-.26-.87s.5,0,.71.32a.73.73,0,0,0,1.29,0c.22-.3.41-.6.73-.31s0,.65-.27.87a1.58,1.58,0,0,1-1.1.43"/></g></g></svg>