<svg xmlns="http://www.w3.org/2000/svg" xmlns:xlink="http://www.w3.org/1999/xlink" viewBox="0 0 155.83 74.68"><g fill="#fff"><path d="M2.56 61.13a3.65 3.65 0 0 1 .55.13l.5.2v.43H0v-.43a3.06 3.06 0 0 1 .9-.32V54.9a1.88 1.88 0 0 1-.45-.12 2.22 2.22 0 0 1-.45-.2v-.42h5.6v1.3l-.06.7c0 .23-.07.45-.1.62H5l-.68-1.92H2.56v6.26zM6.4 58a5.17 5.17 0 0 1 .24-1.57 3.74 3.74 0 0 1 .7-1.26 3.08 3.08 0 0 1 1.17-.83 4.42 4.42 0 0 1 3.2 0 2.87 2.87 0 0 1 1.15.83 3.31 3.31 0 0 1 .7 1.26 4.78 4.78 0 0 1 .23 1.57 5.19 5.19 0 0 1-.23 1.58 3.74 3.74 0 0 1-.7 1.26 3.26 3.26 0 0 1-1.15.83 4.42 4.42 0 0 1-3.2 0 3.08 3.08 0 0 1-1.17-.83 3.31 3.31 0 0 1-.7-1.26A5.19 5.19 0 0 1 6.39 58zm1.88 0a8.69 8.69 0 0 0 .1 1.3 3.37 3.37 0 0 0 .34 1 2 2 0 0 0 .6.68 1.51 1.51 0 0 0 .87.25A1.3 1.3 0 0 0 11 61a1.76 1.76 0 0 0 .54-.68 3.45 3.45 0 0 0 .29-1 8.5 8.5 0 0 0 0-2.6 3.14 3.14 0 0 0-.32-1 1.71 1.71 0 0 0-.59-.68 1.56 1.56 0 0 0-.9-.26 1.39 1.39 0 0 0-.85.26 1.79 1.79 0 0 0-.55.68 3.47 3.47 0 0 0-.28 1c-.05.4-.07.83-.07 1.28zm12.12 1.56h.45c0 .1.06.25.08.42s0 .34.07.54 0 .36 0 .55v.5a2.42 2.42 0 0 1-1 .34 6.62 6.62 0 0 1-1.17.11 5.73 5.73 0 0 1-1.66-.24 3.17 3.17 0 0 1-1.26-.7 3.38 3.38 0 0 1-.81-1.24 5.14 5.14 0 0 1-.18-1.83 4.55 4.55 0 0 1 .32-1.79 3.6 3.6 0 0 1 .83-1.21 3.24 3.24 0 0 1 1.22-.7 4.82 4.82 0 0 1 1.47-.24 7.57 7.57 0 0 1 1.32.11 4.65 4.65 0 0 1 1 .27 3.87 3.87 0 0 1 0 .45 3.83 3.83 0 0 1-.07.58c0 .2-.06.4-.08.6s-.07.37-.1.5h-.53l-.6-1.66a.92.92 0 0 0-.32-.08 3.44 3.44 0 0 0-.45-.05 2 2 0 0 0-.85.2 2.07 2.07 0 0 0-.7.57 2.7 2.7 0 0 0-.49 1 5.09 5.09 0 0 0-.17 1.47 4.08 4.08 0 0 0 .61 2.41 2 2 0 0 0 1.71.85 3.29 3.29 0 0 0 .51 0 .86.86 0 0 0 .3-.13zm7.25-4.66l-.46-.12a3.6 3.6 0 0 1-.39-.2v-.42h2.67v.42a1.91 1.91 0 0 1-.32.17 1.83 1.83 0 0 1-.45.15l-2.1 4.75a5.47 5.47 0 0 1-1.11 1.79 1.3 1.3 0 0 1-1.21.47.85.85 0 0 1-.19-.27 2.2 2.2 0 0 1-.17-.39 3.79 3.79 0 0 1-.2-.72l.3-.45 1.3.4a1.46 1.46 0 0 0 .17-.24 1.37 1.37 0 0 0 .15-.32l-2.92-5-.4-.12a1.77 1.77 0 0 1-.36-.2v-.42h3.43v.42a2.94 2.94 0 0 1-.83.32l1.55 3 .24.7.2-.73zm9.72 6.26v.57c0 .2 0 .45-.06.66s-.07.45-.1.66a3.38 3.38 0 0 1-.11.6h-.42l-.6-1.8h-5.26l-.6 1.8h-.42c0-.2-.1-.4-.13-.62l-.1-.68c-.03-.23 0-.45-.06-.66s0-.4 0-.53h1A6 6 0 0 0 31 60a12 12 0 0 0 .45-1.49 14 14 0 0 0 .28-1.7 17.87 17.87 0 0 0 .12-1.81 3.82 3.82 0 0 1-.59-.17 2.82 2.82 0 0 1-.58-.26v-.42H37v.42a2.74 2.74 0 0 1-.9.32v6.25zm-2.94 0V54.9h-1.77c0 .85-.1 1.62-.2 2.28a15.44 15.44 0 0 1-.32 1.77l-.38 1.32a6.65 6.65 0 0 1-.41.87h3.07zm6.35.72h-2.7v-.43l.4-.2a1.87 1.87 0 0 1 .4-.13l2.84-7.07h.8l2.74 7.07a2.54 2.54 0 0 1 .45.13l.38.2v.43h-3.43v-.43l.45-.2a3.36 3.36 0 0 1 .47-.13l-.64-1.74H40.5l-.64 1.74a2.72 2.72 0 0 1 1 .32v.43zm0-3.2h1.94L42 56.6l-.2-.94-.24 1zm8.62 2.45a4.87 4.87 0 0 1 .59.13l.5.2v.43h-3.66v-.43a1.79 1.79 0 0 1 .45-.19c.15 0 .32-.08.45-.13V54.9a2.07 2.07 0 0 1-.49-.12l-.43-.2v-.42h1.38c.3 0 .62 0 1-.05s.72 0 1 0a6 6 0 0 1 1.13.11 3.28 3.28 0 0 1 1 .38 2.22 2.22 0 0 1 .7.73 2.25 2.25 0 0 1 .26 1.13 2.29 2.29 0 0 1-.94 1.91 2.44 2.44 0 0 1-1 .45 4.13 4.13 0 0 1-1.15.15h-.43a1.06 1.06 0 0 1-.25 0 .47.47 0 0 1-.19 0v2.23zm.6-6.32a1.62 1.62 0 0 0-.34 0h-.25v3.35a1 1 0 0 0 .3 0h.3a1.66 1.66 0 0 0 .58-.11 1.38 1.38 0 0 0 .49-.3 1.46 1.46 0 0 0 .34-.53 2.08 2.08 0 0 0 .13-.79 1.8 1.8 0 0 0-.43-1.3 1.56 1.56 0 0 0-1.11-.32zm9.8 4.75h.44a4.14 4.14 0 0 1 .09.42c0 .17 0 .34.06.54s0 .36 0 .55v.5a2.32 2.32 0 0 1-.95.34 6.56 6.56 0 0 1-1.18.11 5.78 5.78 0 0 1-1.66-.24 3.13 3.13 0 0 1-1.25-.7 3.26 3.26 0 0 1-.81-1.24 4.92 4.92 0 0 1-.24-1.83 4.55 4.55 0 0 1 .32-1.79 3.46 3.46 0 0 1 .83-1.21 3.2 3.2 0 0 1 1.21-.7 4.82 4.82 0 0 1 1.47-.24 7.57 7.57 0 0 1 1.32.11 4.32 4.32 0 0 1 1 .27 3.87 3.87 0 0 1 0 .45 5.7 5.7 0 0 1-.06.58c0 .2-.07.4-.1.6l-.08.5h-.53l-.6-1.66a.86.86 0 0 0-.32-.08 3.49 3.49 0 0 0-.44-.05 2 2 0 0 0-.86.2 2.17 2.17 0 0 0-.7.57 3 3 0 0 0-.49 1 5.88 5.88 0 0 0-.17 1.47 4 4 0 0 0 .62 2.41 2 2 0 0 0 1.7.85 3.18 3.18 0 0 0 .51 0 .78.78 0 0 0 .3-.13zm7.04 2.32h-3.77v-.43l.5-.2a3.9 3.9 0 0 1 .57-.13V54.9h-1.28l-.7 1.88h-.45c0-.15-.06-.34-.08-.56l-.1-.7c-.02-.23 0-.5-.06-.72s0-.45 0-.62h7v.62l-.06.7a5.59 5.59 0 0 1-.09.7c0 .2-.06.4-.08.58h-.45L67 54.9h-1.25v6.24l.58.13a1.57 1.57 0 0 1 .49.19v.43zm2.43 0v-.43a2.56 2.56 0 0 1 .44-.21 2.93 2.93 0 0 1 .45-.11V54.9a2.32 2.32 0 0 1-.47-.12l-.45-.2v-.42H71a6.7 6.7 0 0 0 .79-.05h.85a5.19 5.19 0 0 1 1 .09 3 3 0 0 1 .87.27 1.59 1.59 0 0 1 .62.56 1.68 1.68 0 0 1 .23.91 1.62 1.62 0 0 1-.13.66 1.6 1.6 0 0 1-.34.54 2.11 2.11 0 0 1-.53.38 2 2 0 0 1-.66.21 2.55 2.55 0 0 1 .7.17 2.07 2.07 0 0 1 .64.34 1.89 1.89 0 0 1 .47.57 1.67 1.67 0 0 1 .19.81 1.94 1.94 0 0 1-.25 1 2.26 2.26 0 0 1-.71.7 3 3 0 0 1-1 .4 5.11 5.11 0 0 1-1.19.13 4.7 4.7 0 0 1-.51 0h-2.77zm2.83-4.26a2.06 2.06 0 0 0 .36 0 2.75 2.75 0 0 0 .34-.05 1.42 1.42 0 0 0 .68-.53 1.46 1.46 0 0 0 .26-.83 1.33 1.33 0 0 0-.36-1 1.39 1.39 0 0 0-.94-.32 2.82 2.82 0 0 0-.43 0 1.87 1.87 0 0 0-.32 0v2.73h.4zm.5 3.6a1.4 1.4 0 0 0 1.09-.41 1.54 1.54 0 0 0 .4-1.08 1.47 1.47 0 0 0-.13-.68 1.15 1.15 0 0 0-.36-.43 1.35 1.35 0 0 0-.55-.21 3.11 3.11 0 0 0-.69-.07h-.57v2.82l.32.06zm9.56-7.02c0 .32 0 .66-.1 1s-.1.68-.15 1h-.45L81 54.9h-2v2.7h1.34l.5-.85h.34a10.87 10.87 0 0 1 .06 1.19 11.65 11.65 0 0 1-.06 1.23h-.34l-.5-.87h-1.42v2.86h2.13l.57-1.4h.45c0 .15.06.3.1.47s0 .36.06.55 0 .4 0 .58a4.88 4.88 0 0 1 0 .53h-5.88v-.42a4.18 4.18 0 0 1 .42-.2 2 2 0 0 1 .49-.12V54.9a2.42 2.42 0 0 1-.46-.12 3 3 0 0 1-.43-.2v-.42h5.8zm4.5 7.68h-3.32v-.43l.42-.2a3.36 3.36 0 0 1 .47-.13V54.9a2.36 2.36 0 0 1-.51-.12 2.11 2.11 0 0 1-.4-.2v-.42h3.32v.42a2.08 2.08 0 0 1-.36.2 1.59 1.59 0 0 1-.41.12v2.67h2.92V54.9a1.22 1.22 0 0 1-.42-.12l-.35-.2v-.42h3.33v.42a1.69 1.69 0 0 1-.43.2l-.47.12v6.22a2.52 2.52 0 0 1 .49.13l.4.2v.43H88v-.43l.37-.2a1.72 1.72 0 0 1 .42-.13V58.3h-2.9v2.83a1.79 1.79 0 0 1 .41.13 1.69 1.69 0 0 1 .38.19v.43zm8.85 0h-3.3v-.43l.43-.2a3.36 3.36 0 0 1 .47-.13V54.9a2.31 2.31 0 0 1-.52-.12 2.47 2.47 0 0 1-.4-.2v-.42h3.32v.42a1.77 1.77 0 0 1-.36.2 1.64 1.64 0 0 1-.4.12v2.67h2.9V54.9a1.29 1.29 0 0 1-.42-.12 3.4 3.4 0 0 1-.34-.2v-.42h3.32v.42a1.79 1.79 0 0 1-.42.2l-.47.12v6.22a2.52 2.52 0 0 1 .49.13l.4.2v.43h-3.32v-.43l.36-.2a2 2 0 0 1 .43-.13V58.3h-2.92v2.83a1.7 1.7 0 0 1 .4.13 1.75 1.75 0 0 1 .39.19v.43zm8.15 0H101v-.43c.1-.06.23-.12.38-.2a2.16 2.16 0 0 1 .41-.13l2.83-7.07h.8l2.75 7.07a2.23 2.23 0 0 1 .44.13l.4.2v.43h-3.43v-.43l.45-.2a3.25 3.25 0 0 1 .46-.13l-.64-1.74h-2.42l-.64 1.74a2.72 2.72 0 0 1 1 .32v.43zm0-3.2h1.94l-.7-2.08-.22-.94-.23 1zm13.28-4.48v.42a1.81 1.81 0 0 1-.39.18 4.84 4.84 0 0 1-.51.14v6.23a3.12 3.12 0 0 1 .51.14l.4.18v.42h-3.4v-.42l.4-.2a1.88 1.88 0 0 1 .45-.12V58.7h-.92l-.66 1.5a7.14 7.14 0 0 1-.81 1.34l-.44.36h-1.9v-.38l.5-.26a11.76 11.76 0 0 0 1.13-1.4l.8-1.2a2.72 2.72 0 0 1-.58-.27A2.08 2.08 0 0 1 111 58a2 2 0 0 1-.36-.62 2.54 2.54 0 0 1-.13-.83 1.82 1.82 0 0 1 .28-1.06 2.39 2.39 0 0 1 .72-.73 3 3 0 0 1 1-.4 5.53 5.53 0 0 1 1.21-.13h.3a2.36 2.36 0 0 1 .38 0 2.82 2.82 0 0 1 .41 0h2.07zm-3.22 3.88a1.54 1.54 0 0 0 .36 0 2.44 2.44 0 0 0 .3 0V54.9a2.6 2.6 0 0 0-.28 0 2 2 0 0 0-.32 0 1.91 1.91 0 0 0-.59.08 1.39 1.39 0 0 0-.49.28 1.17 1.17 0 0 0-.34.49 1.77 1.77 0 0 0-.13.73 1.69 1.69 0 0 0 .4 1.23 1.46 1.46 0 0 0 1.09.35zm14.8 3.08v.57c0 .2-.05.45-.07.66l-.08.66a4.61 4.61 0 0 1-.11.6h-.43l-.6-1.8H122l-.6 1.8h-.43l-.18-.65c0-.23-.06-.45-.08-.68s0-.45-.07-.66 0-.4 0-.53h1a5.44 5.44 0 0 0 .58-1.16 12 12 0 0 0 .45-1.49 14.07 14.07 0 0 0 .27-1.7A15.33 15.33 0 0 0 123 55a3.93 3.93 0 0 1-.6-.17 3 3 0 0 1-.57-.26v-.42h6.32v.42a2.61 2.61 0 0 1-.89.32v6.25zm-2.94 0V54.9h-1.77c0 .85-.1 1.62-.2 2.28a18 18 0 0 1-.32 1.77l-.4 1.32a6.79 6.79 0 0 1-.4.87h3.07z"/><path d="M134.74 54.9l-.47-.12a2.75 2.75 0 0 1-.38-.2v-.42h2.66v.42a1.58 1.58 0 0 1-.32.17 1.83 1.83 0 0 1-.45.15l-2.1 4.75a5.47 5.47 0 0 1-1.11 1.79 1.29 1.29 0 0 1-1.21.47 1 1 0 0 1-.19-.27 2.2 2.2 0 0 1-.17-.39 1.25 1.25 0 0 1-.13-.4 1.16 1.16 0 0 1-.06-.32l.3-.45 1.3.4a1.46 1.46 0 0 0 .17-.24 1.37 1.37 0 0 0 .15-.32l-2.9-5-.4-.12a1.77 1.77 0 0 1-.36-.2v-.42h3.43v.42a2.82 2.82 0 0 1-.83.32l1.55 3 .24.7.2-.73zm12.3 6.98h-3.28v-.43a4.28 4.28 0 0 0 .43-.19l.45-.13v-4.58l.06-1.27h-.1l-.36 1.17-2.1 5.43h-.5l-2.1-5.4-.4-1.28H139v5.88a2.53 2.53 0 0 1 .47.15c.17.06.32.15.47.2v.43h-2.7v-.43l.43-.2a2.87 2.87 0 0 1 .49-.17V54.9a2.32 2.32 0 0 1-.47-.12 1.1 1.1 0 0 1-.42-.2v-.42h3l1.72 4.47.32 1 .32-1.07 1.7-4.45h2.72v.42l-.4.2a1.73 1.73 0 0 1-.43.12v6.22a2.54 2.54 0 0 1 .45.13l.38.17v.45zm3.48 0h-2.7v-.43l.38-.2a2.16 2.16 0 0 1 .41-.13l2.83-7.07h.8l2.75 7.07a2.54 2.54 0 0 1 .45.13l.38.2v.43h-3.43v-.43l.45-.2a3.36 3.36 0 0 1 .47-.13l-.64-1.74h-2.43l-.64 1.74a2.72 2.72 0 0 1 1 .32v.43zm-.05-3.2h1.94l-.7-2.08-.2-.94-.23 1zM2.64 69.46a3.37 3.37 0 0 1 .81.11 2.11 2.11 0 0 1 .66.3 1.39 1.39 0 0 1 .45.51 1.66 1.66 0 0 1 .15.77 1.88 1.88 0 0 1-.17.79 1.63 1.63 0 0 1-.45.53 1.91 1.91 0 0 1-.66.3 3.44 3.44 0 0 1-.81.11v.66h-.55v-.66a3.24 3.24 0 0 1-.81-.11 1.91 1.91 0 0 1-.66-.3A1.3 1.3 0 0 1 .15 72a1.66 1.66 0 0 1-.15-.77 1.71 1.71 0 0 1 .17-.79 1.63 1.63 0 0 1 .45-.53 2.11 2.11 0 0 1 .66-.3 3.37 3.37 0 0 1 .81-.11v-.7h.55zm-.55.43a2.52 2.52 0 0 0-.58.06 1.67 1.67 0 0 0-.47.2 1.31 1.31 0 0 0-.32.4 1.49 1.49 0 0 0-.12.64 1.75 1.75 0 0 0 .1.6.9.9 0 0 0 .32.38 1.27 1.27 0 0 0 .47.22 5.13 5.13 0 0 0 .6.08V69.9zm.55 2.6a2.58 2.58 0 0 0 .58-.06 1.67 1.67 0 0 0 .47-.2 1.22 1.22 0 0 0 .31-.38 1.49 1.49 0 0 0 .12-.64 1.75 1.75 0 0 0-.1-.6 1 1 0 0 0-.32-.38 1.12 1.12 0 0 0-.46-.23 3.76 3.76 0 0 0-.6-.09v2.6zm4.4 1.1a1.64 1.64 0 0 1-1.17-.47 1.66 1.66 0 0 1-.34-.53 1.83 1.83 0 0 1-.13-.71 2.19 2.19 0 0 1 .11-.7 1.79 1.79 0 0 1 .32-.56 1.82 1.82 0 0 1 .51-.36 1.73 1.73 0 0 1 1.21 0 1.3 1.3 0 0 1 .49.3 1.25 1.25 0 0 1 .34.53 2 2 0 0 1 .13.79V72H6a1.3 1.3 0 0 0 .29.87 1 1 0 0 0 .81.3c.54 0 .83-.2.9-.58h.5a1 1 0 0 1-.49.77 1.59 1.59 0 0 1-.96.22zM8 71.5a1.06 1.06 0 0 0-.3-.75 1 1 0 0 0-.7-.23.92.92 0 0 0-.68.25 1.35 1.35 0 0 0-.34.73zm1.42 2.84H9v-1.27h.24A.45.45 0 0 0 9.4 73a.87.87 0 0 0 .1-.19c0-.1.05-.17.07-.28a1.75 1.75 0 0 0 0-.32c0-.2 0-.43.06-.66s.05-.47.05-.66v-.72H12v2.94h.5v1.27h-.43v-.83h-2.6zm.68-2.13a2.34 2.34 0 0 1-.09.51 3.5 3.5 0 0 1-.12.35h1.6v-2.5h-1.25v1.24c0 .15-.1.28-.13.4zm4.54 1.37a1.73 1.73 0 0 1-.66-.13 1.34 1.34 0 0 1-.51-.34 1.88 1.88 0 0 1-.35-.53 2 2 0 0 1-.12-.71 2.52 2.52 0 0 1 .1-.7 2 2 0 0 1 .32-.56 1.82 1.82 0 0 1 .51-.36 1.7 1.7 0 0 1 .64-.13 1.67 1.67 0 0 1 .58.09 1.38 1.38 0 0 1 .49.3A1.35 1.35 0 0 1 16 71a2.21 2.21 0 0 1 .13.79v.2h-2.58a1.3 1.3 0 0 0 .3.87 1 1 0 0 0 .81.3c.53 0 .83-.2.9-.58h.54a1.09 1.09 0 0 1-.49.77 1.72 1.72 0 0 1-.96.22zm.9-2.1a1 1 0 0 0-.3-.75 1 1 0 0 0-.68-.23.94.94 0 0 0-.68.25 1.35 1.35 0 0 0-.34.73zM17 70.1h.53v.58a.76.76 0 0 1 .2-.24 1 1 0 0 1 .27-.19l.32-.15a1.08 1.08 0 0 1 .36 0 1.8 1.8 0 0 1 .62.11 1.31 1.31 0 0 1 .49.34 1.74 1.74 0 0 1 .32.53 1.84 1.84 0 0 1 .11.73 2.23 2.23 0 0 1-.11.7 1.31 1.31 0 0 1-.32.56 1.47 1.47 0 0 1-1.13.49 1.23 1.23 0 0 1-.7-.2 1.66 1.66 0 0 1-.45-.42v1.74H17V70.1zm1.64 3a.94.94 0 0 0 .77-.32 1.5 1.5 0 0 0 .28-1 1.53 1.53 0 0 0-.09-.56 1 1 0 0 0-.23-.4.85.85 0 0 0-.35-.24.87.87 0 0 0-.4-.08 1.19 1.19 0 0 0-.45.08 1 1 0 0 0-.36.24.92.92 0 0 0-.23.4 1.44 1.44 0 0 0-.09.58 1.3 1.3 0 0 0 .09.55 1.18 1.18 0 0 0 .23.41.77.77 0 0 0 .36.23 1.45 1.45 0 0 0 .45.12zm3.36.48a1.41 1.41 0 0 1-.45-.07.83.83 0 0 1-.36-.19.7.7 0 0 1-.24-.32 1.06 1.06 0 0 1-.08-.45.74.74 0 0 1 .15-.49 1 1 0 0 1 .38-.32 1.68 1.68 0 0 1 .56-.17 3.36 3.36 0 0 1 .63-.06h.5v-.26a.79.79 0 0 0-.17-.57.66.66 0 0 0-.55-.17c-.47 0-.72.2-.8.6H21a1 1 0 0 1 .15-.49 1.15 1.15 0 0 1 .3-.32 1.26 1.26 0 0 1 .42-.2 1.89 1.89 0 0 1 .47-.06 1.78 1.78 0 0 1 .47.06 1.36 1.36 0 0 1 .4.2.81.81 0 0 1 .28.38 1.46 1.46 0 0 1 .11.6v2.23h-.5v-.42a1.42 1.42 0 0 1-.43.36 2 2 0 0 1-.67.13zm0-.43a1.35 1.35 0 0 0 .41-.06 1.49 1.49 0 0 0 .31-.15 1 1 0 0 0 .22-.26.89.89 0 0 0 .08-.34v-.43h-.47a3.08 3.08 0 0 0-.46 0 1.84 1.84 0 0 0-.39.1.67.67 0 0 0-.25.22.47.47 0 0 0-.09.32.54.54 0 0 0 .15.42.82.82 0 0 0 .49.18zm3.33-.95a3.07 3.07 0 0 1-.23 1 .65.65 0 0 1-.6.34.44.44 0 0 1-.17 0 .07.07 0 0 1 0 0V73h.15a.25.25 0 0 0 .17-.06.43.43 0 0 0 .11-.19c0-.1 0-.17.06-.28s0-.2 0-.34a4.43 4.43 0 0 0 .05-.66v-1.4h2.24v3.4h-.54v-2.94h-1.13a2.62 2.62 0 0 1 0 .38 3.24 3.24 0 0 1 0 .43v.43a2 2 0 0 0-.11.4zm2.94-2.1h.54v1.2h.6a2.22 2.22 0 0 1 .51.06 1.29 1.29 0 0 1 .41.19 1.54 1.54 0 0 1 .28.34 1.29 1.29 0 0 1 .1.51 1.36 1.36 0 0 1-.1.51 1.34 1.34 0 0 1-.28.34 1.29 1.29 0 0 1-.41.19 2 2 0 0 1-.51.06h-1.15v-3.4zm1.17 3a.89.89 0 0 0 .58-.17.68.68 0 0 0 .17-.49.7.7 0 0 0-.17-.51.82.82 0 0 0-.55-.17h-.64v1.37zm4.24-1.1H32v1.5h-.53v-3.4H32v1.43h1.66V70.1h.54v3.4h-.54zm3.1 1.58a1.8 1.8 0 0 1-.66-.13 1.52 1.52 0 0 1-.87-.92 1.72 1.72 0 0 1-.13-.68 1.75 1.75 0 0 1 .13-.7 1.65 1.65 0 0 1 .34-.56 1.51 1.51 0 0 1 .53-.36 1.69 1.69 0 0 1 .66-.13 1.56 1.56 0 0 1 .66.13 1.46 1.46 0 0 1 .54.36 1.65 1.65 0 0 1 .34.56 1.94 1.94 0 0 1 0 1.4 1.42 1.42 0 0 1-.36.56 1.46 1.46 0 0 1-.54.36 1.89 1.89 0 0 1-.64.11zm0-.47a1 1 0 0 0 .46-.09.82.82 0 0 0 .34-.25 1.16 1.16 0 0 0 .22-.41 2.09 2.09 0 0 0 .08-.51 1.55 1.55 0 0 0-.08-.53 1 1 0 0 0-1.05-.75 1 1 0 0 0-.46.09.83.83 0 0 0-.35.25 1.32 1.32 0 0 0-.21.41 2 2 0 0 0-.08.53 1.48 1.48 0 0 0 .29.94 1.12 1.12 0 0 0 .87.32zm3.1-2.54v2.94h-.53v-3.4h2.15v.45h-1.62zm3.74 3a1.76 1.76 0 0 1-.66-.13 1.66 1.66 0 0 1-.53-.36 1.5 1.5 0 0 1-.34-.56 1.72 1.72 0 0 1-.13-.68 1.75 1.75 0 0 1 .13-.7 1.52 1.52 0 0 1 .87-.92 1.65 1.65 0 0 1 .66-.13 1.56 1.56 0 0 1 .66.13 1.35 1.35 0 0 1 .53.36 1.67 1.67 0 0 1 .35.56 1.94 1.94 0 0 1 .12.7 1.94 1.94 0 0 1-.12.7 1.67 1.67 0 0 1-.35.56 1.35 1.35 0 0 1-.53.36 2.22 2.22 0 0 1-.66.11zm0-.47a1.07 1.07 0 0 0 .47-.09.82.82 0 0 0 .34-.25 1.14 1.14 0 0 0 .21-.41 1.71 1.71 0 0 0 .09-.51 1.34 1.34 0 0 0-.09-.53.93.93 0 0 0-.23-.41 1.15 1.15 0 0 0-.34-.25 1 1 0 0 0-.47-.09 1.07 1.07 0 0 0-.47.09 1 1 0 0 0-.36.25 1.14 1.14 0 0 0-.21.41 1.68 1.68 0 0 0-.09.53 1.49 1.49 0 0 0 .3.94 1.21 1.21 0 0 0 .85.32zm6.2.47a2.59 2.59 0 0 1-.91-.17 2 2 0 0 1-.68-.47 1.76 1.76 0 0 1-.43-.75 2.8 2.8 0 0 1-.15-1 2.77 2.77 0 0 1 .17-1 2.34 2.34 0 0 1 .45-.75A1.85 1.85 0 0 1 49 69a2.49 2.49 0 0 1 .87-.17 2.62 2.62 0 0 1 .69.11 2.16 2.16 0 0 1 .57.28 1.78 1.78 0 0 1 .43.47 1.65 1.65 0 0 1 .19.66h-.55a1.25 1.25 0 0 0-.41-.79 1.42 1.42 0 0 0-.92-.28 1.62 1.62 0 0 0-.66.13 1.42 1.42 0 0 0-.51.38 1.58 1.58 0 0 0-.32.6 2.48 2.48 0 0 0-.1.79 3.16 3.16 0 0 0 .1.79 1.66 1.66 0 0 0 .32.6 1.42 1.42 0 0 0 .51.38 1.84 1.84 0 0 0 .69.13 1.43 1.43 0 0 0 .93-.28 1.22 1.22 0 0 0 .47-.85h.53a1.74 1.74 0 0 1-.63 1.19 2.08 2.08 0 0 1-1.39.44z"/><path d="M54.07 73.58a1.8 1.8 0 0 1-.66-.13 1.52 1.52 0 0 1-.87-.92 1.72 1.72 0 0 1-.13-.68 1.75 1.75 0 0 1 .13-.7 1.65 1.65 0 0 1 .34-.56 1.51 1.51 0 0 1 .53-.36 1.69 1.69 0 0 1 .66-.13 1.56 1.56 0 0 1 .66.13 1.46 1.46 0 0 1 .54.36 1.65 1.65 0 0 1 .34.56 1.94 1.94 0 0 1 0 1.4 1.65 1.65 0 0 1-.34.56 1.46 1.46 0 0 1-.54.36 2.12 2.12 0 0 1-.66.11zm0-.47a1 1 0 0 0 .46-.09.93.93 0 0 0 .35-.25 1.32 1.32 0 0 0 .21-.41 2.09 2.09 0 0 0 .08-.51 1.55 1.55 0 0 0-.08-.53 1 1 0 0 0-.58-.66 1.25 1.25 0 0 0-.93 0 .83.83 0 0 0-.35.25 1.32 1.32 0 0 0-.21.41 2 2 0 0 0-.08.53 1.48 1.48 0 0 0 .29.94 1.12 1.12 0 0 0 .87.32zm4.05.47a2.28 2.28 0 0 1-.66-.11 1.29 1.29 0 0 1-.53-.36 1.61 1.61 0 0 1-.34-.62 2.69 2.69 0 0 1-.13-.89v-.22a8.57 8.57 0 0 1 .06-1 2.5 2.5 0 0 1 .28-.9 1.68 1.68 0 0 1 .58-.64 1.86 1.86 0 0 1 1-.27h.7a1.24 1.24 0 0 0 .4-.1l.07.45a1.88 1.88 0 0 1-.45.12 4.65 4.65 0 0 1-.57 0h-.13a1.76 1.76 0 0 0-.68.15 1 1 0 0 0-.45.38 2.21 2.21 0 0 0-.26.6 3.31 3.31 0 0 0-.1.83 1.36 1.36 0 0 1 .51-.58 1.46 1.46 0 0 1 .81-.21 1.5 1.5 0 0 1 .64.13 1.31 1.31 0 0 1 .49.34 2 2 0 0 1 .32.53 2.28 2.28 0 0 1 .11.66 2.07 2.07 0 0 1-.13.73 1.61 1.61 0 0 1-.34.53 1.56 1.56 0 0 1-.54.34 1.83 1.83 0 0 1-.66.11zm0-.47a1.05 1.05 0 0 0 .81-.32 1.37 1.37 0 0 0 .3-.94A1.22 1.22 0 0 0 59 71a.93.93 0 0 0-.78-.32 1.07 1.07 0 0 0-.86.34 1.29 1.29 0 0 0-.32.91 1.28 1.28 0 0 0 .3.88 1.11 1.11 0 0 0 .8.3zm2.58-3h.53v.58a.88.88 0 0 1 .19-.24 1.26 1.26 0 0 1 .28-.19l.3-.15a1.08 1.08 0 0 1 .36 0 1.8 1.8 0 0 1 .62.11 1.31 1.31 0 0 1 .49.34 1.74 1.74 0 0 1 .32.53 1.84 1.84 0 0 1 .11.73 2.57 2.57 0 0 1-.11.7 1.31 1.31 0 0 1-.32.56 1.47 1.47 0 0 1-1.13.49 1.23 1.23 0 0 1-.7-.2 1.66 1.66 0 0 1-.45-.42v1.74h-.53V70.1zm1.64 3a.94.94 0 0 0 .77-.32 1.51 1.51 0 0 0 .27-1 1.54 1.54 0 0 0-.08-.56 1 1 0 0 0-.23-.4.85.85 0 0 0-.35-.24.87.87 0 0 0-.4-.08 1.19 1.19 0 0 0-.45.08 1 1 0 0 0-.36.24.92.92 0 0 0-.23.4 1.44 1.44 0 0 0-.09.58 1.3 1.3 0 0 0 .09.55 1.18 1.18 0 0 0 .23.41.77.77 0 0 0 .36.23 1.45 1.45 0 0 0 .47.12zm3.36.48a1.41 1.41 0 0 1-.45-.07.83.83 0 0 1-.36-.19.64.64 0 0 1-.24-.32 1.06 1.06 0 0 1-.08-.45.74.74 0 0 1 .15-.49 1 1 0 0 1 .38-.32 1.69 1.69 0 0 1 .55-.17 3.55 3.55 0 0 1 .64-.06h.5v-.26a.79.79 0 0 0-.17-.57.68.68 0 0 0-.55-.17c-.47 0-.73.2-.8.6h-.53a1 1 0 0 1 .15-.49 1.29 1.29 0 0 1 .29-.32 1.42 1.42 0 0 1 .43-.2 1.89 1.89 0 0 1 .47-.06 1.78 1.78 0 0 1 .47.06 1.36 1.36 0 0 1 .4.2.81.81 0 0 1 .28.38 1.65 1.65 0 0 1 .11.6v2.23h-.54v-.42a1.28 1.28 0 0 1-.42.36 1.91 1.91 0 0 1-.68.13zm.06-.43a1.25 1.25 0 0 0 .4-.06 1.37 1.37 0 0 0 .32-.15 1 1 0 0 0 .22-.26.89.89 0 0 0 .08-.34v-.43h-.47a3.08 3.08 0 0 0-.46 0 1.84 1.84 0 0 0-.39.1.67.67 0 0 0-.25.22.47.47 0 0 0-.09.32.54.54 0 0 0 .15.42.8.8 0 0 0 .49.18zm4.8-1.15H68.9v1.5h-.53v-3.4h.53v1.43h1.66V70.1h.54v3.4h-.54zm1.62 1.5v-3.4h.54v2.62l1.74-2.62H75v3.4h-.54v-2.6l-1.74 2.62zm4.14 0h-.62l1-1.42-.25-.1a1.45 1.45 0 0 1-.26-.17 1 1 0 0 1-.23-.64 1.09 1.09 0 0 1 .1-.47 1 1 0 0 1 .28-.32 1.06 1.06 0 0 1 .4-.19 2 2 0 0 1 .51-.07h1.16v3.4h-.56v-1.38h-.57zm.9-3a.93.93 0 0 0-.55.15.63.63 0 0 0-.17.47.54.54 0 0 0 .17.43.83.83 0 0 0 .57.15h.64v-1.18h-.66zm4.08-1.63h1.32a2.07 2.07 0 0 1 .62.08 1.5 1.5 0 0 1 .51.24 1 1 0 0 1 .34.42 1.35 1.35 0 0 1 .13.62 1.35 1.35 0 0 1-.13.64 1.32 1.32 0 0 1-.34.43 1.48 1.48 0 0 1-.51.23 2.44 2.44 0 0 1-.62.09h-.74v1.9h-.58zm1.35 2.3a1.11 1.11 0 0 0 .76-.24.85.85 0 0 0 .26-.68.83.83 0 0 0-.28-.7 1.27 1.27 0 0 0-.74-.21h-.8v1.85zm3.77 2.4a1.73 1.73 0 0 1-.66-.13 1.6 1.6 0 0 1-.54-.36 1.65 1.65 0 0 1-.34-.56 1.91 1.91 0 0 1-.13-.68 1.94 1.94 0 0 1 .13-.7 1.65 1.65 0 0 1 .34-.56 1.46 1.46 0 0 1 .54-.36 1.62 1.62 0 0 1 .66-.13 1.59 1.59 0 0 1 .66.13 1.52 1.52 0 0 1 .87.92 1.75 1.75 0 0 1 .13.7 1.75 1.75 0 0 1-.13.7 1.32 1.32 0 0 1-.36.56 1.51 1.51 0 0 1-.53.36 2.2 2.2 0 0 1-.64.11zm0-.47a1.07 1.07 0 0 0 .47-.09 1 1 0 0 0 .34-.25 1.32 1.32 0 0 0 .21-.41 2.09 2.09 0 0 0 .08-.51 1.55 1.55 0 0 0-.08-.53 1 1 0 0 0-1.04-.75 1 1 0 0 0-.47.09.74.74 0 0 0-.34.25 1.34 1.34 0 0 0-.22.41 2 2 0 0 0-.08.53 1.43 1.43 0 0 0 .3.94 1.13 1.13 0 0 0 .83.32zm4 .47a1.76 1.76 0 0 1-.66-.13 1.85 1.85 0 0 1-.53-.34 1.38 1.38 0 0 1-.34-.53 1.86 1.86 0 0 1-.13-.73 1.75 1.75 0 0 1 .13-.7 1.54 1.54 0 0 1 .36-.56 1.64 1.64 0 0 1 1.17-.49 1.79 1.79 0 0 1 .51.07 1 1 0 0 1 .45.21 1.18 1.18 0 0 1 .34.36 1.32 1.32 0 0 1 .17.55h-.53a.81.81 0 0 0-.32-.57 1.13 1.13 0 0 0-.62-.17 1 1 0 0 0-.42.08 1.14 1.14 0 0 0-.35.26 1.11 1.11 0 0 0-.23.4 1.53 1.53 0 0 0-.08.54 1.36 1.36 0 0 0 .29.94 1.1 1.1 0 0 0 .81.32 1.16 1.16 0 0 0 .34 0 1.19 1.19 0 0 0 .3-.14.7.7 0 0 0 .22-.26 1 1 0 0 0 .1-.36h.5a1.21 1.21 0 0 1-.15.51 1.26 1.26 0 0 1-.32.4 1.75 1.75 0 0 1-.44.28 2 2 0 0 1-.58.06zm3.78 0a1.8 1.8 0 0 1-.66-.13 1.85 1.85 0 0 1-.53-.34 1.38 1.38 0 0 1-.34-.53 2.07 2.07 0 0 1-.13-.73 1.94 1.94 0 0 1 .13-.7 1.69 1.69 0 0 1 1.53-1.05 1.86 1.86 0 0 1 .52.07 1 1 0 0 1 .44.21 1.18 1.18 0 0 1 .34.36 1.32 1.32 0 0 1 .17.55h-.53a.81.81 0 0 0-.32-.57 1.13 1.13 0 0 0-.62-.17 1 1 0 0 0-.76.34 1.12 1.12 0 0 0-.24.4 1.53 1.53 0 0 0-.08.54 1.23 1.23 0 0 0 .32.94 1.08 1.08 0 0 0 .81.32 1.27 1.27 0 0 0 .34 0 1.64 1.64 0 0 0 .3-.14.67.67 0 0 0 .21-.26 1.17 1.17 0 0 0 .11-.36h.5a1.38 1.38 0 0 1-.15.51 1.41 1.41 0 0 1-.32.4 2 2 0 0 1-.45.28 2.18 2.18 0 0 1-.6.06z"/><use xlink:href="#B"/><path d="M100.4 73.5v-3.4h.54v2.62l1.74-2.62h.54v3.4h-.54v-2.6l-1.74 2.62zm1.4-4a.79.79 0 0 1-.32-.07 1 1 0 0 1-.28-.17 1.15 1.15 0 0 1-.2-.27 1.54 1.54 0 0 1-.08-.34h.46a.65.65 0 0 0 .11.34.28.28 0 0 0 .28.15.36.36 0 0 0 .32-.15 1 1 0 0 0 .13-.34h.44a.89.89 0 0 1-.08.34.92.92 0 0 1-.19.28.68.68 0 0 1-.28.17.83.83 0 0 1-.31.04zm3.94 4.08a1.76 1.76 0 0 1-.66-.13 1.85 1.85 0 0 1-.53-.34 1.38 1.38 0 0 1-.34-.53 1.86 1.86 0 0 1-.13-.73 1.75 1.75 0 0 1 .13-.7 1.54 1.54 0 0 1 .36-.56 1.64 1.64 0 0 1 1.17-.49 1.79 1.79 0 0 1 .51.07 1 1 0 0 1 .45.21 1.18 1.18 0 0 1 .51.91h-.53a.81.81 0 0 0-.32-.57 1.13 1.13 0 0 0-.62-.17 1 1 0 0 0-.43.08 1.23 1.23 0 0 0-.34.26 1.11 1.11 0 0 0-.23.4 1.53 1.53 0 0 0-.09.54 1.36 1.36 0 0 0 .3.94 1.1 1.1 0 0 0 .81.32 1.16 1.16 0 0 0 .34 0 1.19 1.19 0 0 0 .3-.14.59.59 0 0 0 .21-.26.8.8 0 0 0 .11-.36h.5a1.21 1.21 0 0 1-.15.51 1.26 1.26 0 0 1-.32.4 1.81 1.81 0 0 1-.45.28 1.68 1.68 0 0 1-.55.06zm2.86-1.78v1.74h-.54v-3.4h.54v1.57l1.4-1.57h.64l-1.45 1.6 1.58 1.8h-.66zm4.1 1.78a1.73 1.73 0 0 1-.66-.13 1.6 1.6 0 0 1-.54-.36 1.65 1.65 0 0 1-.34-.56 1.91 1.91 0 0 1-.13-.68 1.94 1.94 0 0 1 .13-.7 1.65 1.65 0 0 1 .34-.56 1.46 1.46 0 0 1 .54-.36 1.62 1.62 0 0 1 .66-.13 1.59 1.59 0 0 1 .66.13 1.52 1.52 0 0 1 .87.92 1.75 1.75 0 0 1 .13.7 1.75 1.75 0 0 1-.13.7 1.52 1.52 0 0 1-.87.92 2.28 2.28 0 0 1-.66.11zm0-.47a1.07 1.07 0 0 0 .47-.09 1 1 0 0 0 .34-.25 1.32 1.32 0 0 0 .21-.41 2.09 2.09 0 0 0 .08-.51 1.55 1.55 0 0 0-.08-.53 1 1 0 0 0-1.04-.75 1 1 0 0 0-.47.09.74.74 0 0 0-.34.25 1.34 1.34 0 0 0-.22.41 2 2 0 0 0-.08.53 1.43 1.43 0 0 0 .3.94 1.13 1.13 0 0 0 .83.32zm2.52.4v-3.4h.53v2.62l1.75-2.62h.5v3.4h-.53v-2.6l-1.75 2.62zm1.4-4a.79.79 0 0 1-.32-.07 1 1 0 0 1-.28-.17 1.15 1.15 0 0 1-.19-.28 1.53 1.53 0 0 1-.09-.34h.47a.58.58 0 0 0 .11.34.28.28 0 0 0 .28.15.37.37 0 0 0 .32-.15.8.8 0 0 0 .12-.34h.45a.89.89 0 0 1-.08.34.8.8 0 0 1-.2.28.65.65 0 0 1-.27.17.79.79 0 0 1-.32.05zm6.58-.04a3.44 3.44 0 0 1 .81.11 2.11 2.11 0 0 1 .66.3 1.39 1.39 0 0 1 .45.51 1.79 1.79 0 0 1 .15.77 1.88 1.88 0 0 1-.17.79 1.63 1.63 0 0 1-.45.53 2 2 0 0 1-.66.3 3.44 3.44 0 0 1-.81.11v.66h-.55v-.66a3.24 3.24 0 0 1-.81-.11 2 2 0 0 1-.67-.3 1.28 1.28 0 0 1-.44-.51 1.66 1.66 0 0 1-.15-.77 1.71 1.71 0 0 1 .17-.79 1.52 1.52 0 0 1 .45-.53 2.11 2.11 0 0 1 .66-.3 3.37 3.37 0 0 1 .81-.11v-.66h.55zm-.55.43a2.52 2.52 0 0 0-.58.06 1.67 1.67 0 0 0-.47.2 1.18 1.18 0 0 0-.32.4 1.48 1.48 0 0 0-.13.64 1.74 1.74 0 0 0 .11.6.9.9 0 0 0 .32.38 1.27 1.27 0 0 0 .47.22 5.13 5.13 0 0 0 .6.08zm.55 2.6a2.58 2.58 0 0 0 .58-.06 1.49 1.49 0 0 0 .46-.2 1 1 0 0 0 .32-.38 1.35 1.35 0 0 0 .13-.64 1.75 1.75 0 0 0-.1-.6 1.05 1.05 0 0 0-.32-.38 1.12 1.12 0 0 0-.47-.21 3.76 3.76 0 0 0-.6-.09zm4.4 1.1a1.76 1.76 0 0 1-.66-.13 1.52 1.52 0 0 1-.51-.34 1.66 1.66 0 0 1-.34-.53 1.83 1.83 0 0 1-.13-.71 2.19 2.19 0 0 1 .11-.7 1.79 1.79 0 0 1 .32-.56 1.82 1.82 0 0 1 .51-.36 1.73 1.73 0 0 1 1.21 0 1.38 1.38 0 0 1 .49.3 1.25 1.25 0 0 1 .34.53 2 2 0 0 1 .13.79V72h-2.56a1.35 1.35 0 0 0 .3.87 1 1 0 0 0 .81.3c.53 0 .83-.2.9-.58h.53a1 1 0 0 1-.49.77 1.72 1.72 0 0 1-.96.22zm.92-2.1a1.06 1.06 0 0 0-.3-.75 1 1 0 0 0-.68-.23 1 1 0 0 0-.69.25 1.42 1.42 0 0 0-.34.73zm1.48 2.86h-.43v-1.27h.23a.34.34 0 0 0 .17-.11.62.62 0 0 0 .11-.19c0-.1 0-.17.06-.28a1.19 1.19 0 0 0 0-.32c0-.2 0-.43.06-.66s0-.47 0-.66 0-.5.05-.72h2.23v2.94h.5v1.27h-.42v-.83H130zm.66-2.13a4.8 4.8 0 0 1-.09.51 2 2 0 0 1-.13.35H132v-2.5h-1.26a2.23 2.23 0 0 1 0 .36v.88a2.58 2.58 0 0 1-.11.4zm4.5 1.37a1.8 1.8 0 0 1-.66-.13 1.52 1.52 0 0 1-.51-.34 1.85 1.85 0 0 1-.34-.53 2 2 0 0 1-.13-.71 2.5 2.5 0 0 1 .11-.7 2 2 0 0 1 .32-.56 1.82 1.82 0 0 1 .51-.36 1.66 1.66 0 0 1 .64-.13 1.71 1.71 0 0 1 .58.09 1.38 1.38 0 0 1 .49.3 1.47 1.47 0 0 1 .34.53 2.23 2.23 0 0 1 .12.79V72h-2.55a1.25 1.25 0 0 0 .3.87 1 1 0 0 0 .81.3c.53 0 .83-.2.9-.58h.53a1 1 0 0 1-.49.77 1.67 1.67 0 0 1-.96.22zm.92-2.1a1.06 1.06 0 0 0-.3-.75 1 1 0 0 0-.68-.23.92.92 0 0 0-.68.25 1.35 1.35 0 0 0-.34.73zm1.42-1.38h.5v.58a.72.72 0 0 1 .19-.24 1.07 1.07 0 0 1 .28-.19l.32-.15a1 1 0 0 1 .36 0 1.84 1.84 0 0 1 .62.11 1.31 1.31 0 0 1 .49.34 2 2 0 0 1 .32.53 2 2 0 0 1 .11.73 2.57 2.57 0 0 1-.11.7 1.42 1.42 0 0 1-.32.56 1.64 1.64 0 0 1-.49.36 1.66 1.66 0 0 1-.64.13 1.2 1.2 0 0 1-.7-.2 1.53 1.53 0 0 1-.45-.42v1.74h-.5zm1.64 3a1 1 0 0 0 .77-.32 1.51 1.51 0 0 0 .27-1 1.54 1.54 0 0 0-.08-.56 1 1 0 0 0-.24-.4.76.76 0 0 0-.34-.24.9.9 0 0 0-.4-.08 1.19 1.19 0 0 0-.45.08 1 1 0 0 0-.6.64 1.66 1.66 0 0 0-.08.58 1.49 1.49 0 0 0 .08.55 1.38 1.38 0 0 0 .24.41.72.72 0 0 0 .36.23 1.53 1.53 0 0 0 .47.12zm3.36.48a1.39 1.39 0 0 1-.44-.07.83.83 0 0 1-.36-.19.64.64 0 0 1-.24-.32 1.06 1.06 0 0 1-.08-.45.79.79 0 0 1 .14-.49 1.16 1.16 0 0 1 .39-.32 1.69 1.69 0 0 1 .55-.17 3.55 3.55 0 0 1 .64-.06h.5v-.26a.79.79 0 0 0-.17-.57.69.69 0 0 0-.55-.17c-.47 0-.73.2-.8.6h-.53a1 1 0 0 1 .15-.49 1.29 1.29 0 0 1 .29-.32 1.42 1.42 0 0 1 .43-.2 1.89 1.89 0 0 1 .47-.06 1.78 1.78 0 0 1 .47.06 1.5 1.5 0 0 1 .4.2.88.88 0 0 1 .28.38 1.65 1.65 0 0 1 .11.6v2.23h-.54v-.42a1.39 1.39 0 0 1-.42.36 1.93 1.93 0 0 1-.69.13zm.07-.43a1.25 1.25 0 0 0 .4-.06 1.37 1.37 0 0 0 .32-.15 1 1 0 0 0 .22-.26.89.89 0 0 0 .08-.34v-.43h-.47a3.39 3.39 0 0 0-.47 0 1.74 1.74 0 0 0-.38.1.7.7 0 0 0-.26.22.53.53 0 0 0-.08.32.54.54 0 0 0 .15.42.74.74 0 0 0 .49.18zm5.43 1.2v-.83h-2.73v-3.4h.53V73h1.6v-2.9h.53V73h.5v1.28H148z"/><use xlink:href="#B" x="52.58"/><use xlink:href="#B" x="56.48"/><path d="M110.36 38.93V7.45h-9.28v1.77h-7.6v1.95h-5.2V7.45H80.7V5.6h-2.58v-1.8l3.54-1.14V0l-3.54 1.17h-.45V5.6h-2.56v1.86H67.7v3.7h-5.47V9.3h-7.48V7.45h-9.3V39H43.6v1.9h68.6v-1.96zm-63-3.7h5.58v1.83H47.3zm5.58-1.87H51V13h1.9zm50.05 0V13h1.86v20.4zm-1.86 3.7h-1.9V14.84h1.84zm-39-5.6H64v5.62h-1.9zm3.73 0h1.84v5.62h-1.86zm3.7-16.64h1.9V37.1h-1.9zm3.76 16.7h1.86v5.56H73.3zm5.56-16.73v14.87H77V14.84zm1.86 16.73h1.83v5.56H80.7zm3.66-16.7h1.87V37.1h-1.9zm3.73 16.7H90v5.56h-1.9zm3.72 0h1.87v5.56h-1.9zm3.73-16.7h1.86V37.1h-1.88zM93.7 29.68h-1.87v-14.8h1.87zm-3.7 0h-1.86v-14.8H90zm-7.45 0H80.7V14.84h1.83zm-7.4 0H73.3V14.84h1.86zm-7.45 0h-1.86v-14.8h1.86zm-3.72 0H62.1v-14.8H64zm-3.7-14.8V37.1h-1.8V14.84h1.74zm42.66 22.23v-1.83h5.56v1.83zm5.56-3.7h-1.84V13h1.84zM56.62 14.84V37.1h-1.87V14.84zM49.14 13v20.37H47.3V13z"/></g><defs ><path id="B" d="M96.52 73.5v-3.4h.53v2.62l1.75-2.62h.53v3.4h-.53V70.9l-1.75 2.62z"/></defs></svg>