<svg xmlns="http://www.w3.org/2000/svg" viewBox="0 0 131.4 78" fill="#c65b51"><path d="M55.2 2c.7.1-.3.3 0 0m15 .7c-.2 0-.2-.2.2-.1v.1c0 .1 0 0-.1 0zm2 0c.2.1-.3.1-.4.1 0-.3.3-.2.4-.1zm-2 .3s-.1.1-.2 0 .1-.1.2-.1zm15.7.3h-.5a.7.7 0 0 1-.4.1c.2 0 .1 0 .2.1s.1 0 .1 0 .1 0 .1.1c0 .1.1 0-.1 0H85c-.1 0-.1 0-.1-.1h-.2c-.1 0 0 0-.1.1s.1 0-.1.1 0 0-.2 0a1.8 1.8 0 0 0-.3 0h-.4c.1.2.1 0 .5.1 0 .1-.1.1-.2.1h-.4c-.1 0 .1 0-.1 0s-.1 0-.2-.1l.1-.3v.1c0-.1-.1 0 .2-.1h.3a3.4 3.4 0 0 0 .5 0v-.1h-.2a2.2 2.2 0 0 1-.6 0h-.2c-.1-.1-.1-.1-.1-.2a4.2 4.2 0 0 1 1 0h.4c.5.1.3-.1.6 0s.1 0 .2 0h.4c.2 0 0-.1 0 .1zm-15.8.1a.6.6 0 0 1 0-.2 3.3 3.3 0 0 1 .7.1c-.1.1 0 0-.1.1s-.1 0-.2.1 0 .1-.2.2c0 0-.1 0-.1-.2zm-.4 0c-.1 0-.3 0-.3-.1s.1-.1.3-.1c0 .1 0 .1-.1.2zm16.5.1c.1 0 .4 0 .3.1s-.3-.1-.3-.2zm-4 .1c-.1-.2-.1-.2.2-.2 0 .1 0 .1-.2.1zm4.8 0c0-.1-.1 0 .1-.1s.2 0 .2.1zm-1-.1a.8.8 0 0 1-.5 0c0-.1 0-.1.3-.1s.3 0 .3.1zm-3.3.1h0a.1.1 0 0 1 .1-.1h.2v.1h-.3zm3.6.1c.3 0 .4 0 .4.2-.3 0-.4 0-.3-.2zm.5.1c.2-.1.5-.1.4.1-.3 0-.4 0-.4-.1zM48 4c-.3-.1-.1-.1-.1-.1.2-.1.5-.1.4.1a.8.8 0 0 1-.3 0zm1 .4v-.2h-.1a.1.1 0 0 1-.2 0c-.1 0-.2.2.2.2zm0-.3a.1.1 0 0 0 0-.1.8.8 0 0 0-.4 0h0c.1-.1 0 0 .1-.1s.3 0 .3 0zM87 4v.1a3.4 3.4 0 0 1-1 0c0-.2.2-.2.4-.1a.8.8 0 0 1 .6 0zm-3.7 0s.2.1-.2.2c-.1-.1-.1 0-.1-.2zm1.8.2c-.1 0 .1 0-.1 0s-.2 0-.2-.2c.3 0 .4 0 .3.1zm.4.4c0 .1 0 .1-.2.1 0-.1.1-.2.3-.1zm-4 1c.1 0 .1 0 .2-.1-.2-.1-.1-.1-.2-.2 0 .1 0 .1-.1.2s.1 0 .2 0zm-.5.4h-.2a.2.2 0 0 1 0 .1c.3 0 .3-.1.2-.2zm-.8-.5h.3v-.1c-.1 0 0-.1-.2-.1s-.1 0-.1 0a3.1 3.1 0 0 0-.5 0 .7.7 0 0 1 .2.2c0-.1 0-.1.1-.1s0 0 .1 0zM46 6.2c0-.2 0 0 .1-.1.2 0 .2 0 .2.2.8 0-.3.2-.2-.1zm.6 4c.1 0 .1 0 .1.1s0 0-.2.1-.1 0 0-.1 0-.1.1-.1zM84.3 13c-.1 0-.1 0-.1-.1h.3zM86 7c0 .1 0 0 .1.1h.2s.1.1 0-.1c.3 0 0 .1 0 0H86a.2.2 0 0 0 0 0zm-3-1a.8.8 0 0 1 0 .2c.1-.1.2-.2 0-.2zm-.4 0zM86 6c.1 0 .2.1.3 0-.1 0-.1 0-.1-.1a.5.5 0 0 0-.2 0zm.5-.4a2.2 2.2 0 0 1 .6 0c.1-.1 0-.3-.3-.2s.1.1-.5.1c0 .3-.1.3.1.4h.2zm1.4-.5a1.3 1.3 0 0 0 .3 0H88zm0-.1h.2-.2zM47.4 3.8a1.5 1.5 0 0 0-.3 0c.1.1-.1 0 .2.1a.6.6 0 0 1 .1-.1zm.3.3c0 .1 0 0 .1 0h.1c.3 0-.2 0 .1 0a.6.6 0 0 0 .2 0c.4-.1.1-.1.1-.2s0-.1.1-.1h-.1a1.3 1.3 0 0 1-.2.1c-.3 0-.2-.1-.5 0h.3-.2c-.1.2 0 .1 0 .1zM46.3 4a1.1 1.1 0 0 0 .4.1V4h-.2a1.4 1.4 0 0 1-.2 0zm-.2.1c.2 0 .1 0 .1-.1h-.1C46 4 46 4 46 4c.2 0 .1 0 .2 0zm0 .5v-.2a2.8 2.8 0 0 1 .6 0c.1-.1 0-.3-.3-.2s0 .1-.4.1c-.1 0 0 .1-.2.1.1.3 0 .3.3.3zm-.6-.3a.1.1 0 0 0-.1.1c.2 0 .2 0 .2-.1zm-.4.6c.4 0 .4-.1.3-.2h-.2s.1.1 0 .1 0 0-.1 0zm43.2 9c-.1 0-.2.1-.2.1s0 0 .1.2a.1.1 0 0 1 0 .1h.3c0-.2 0 0-.1-.1s0 0 0-.1 0 0 .1-.1a.5.5 0 0 0-.3-.1zm-4.5.4c0 .1 0 .2-.1.2h.1c.2 0 .1-.1.2-.2 0 0 0 0-.2 0zM86 14H86c-.1.1-.1.1-.1.3a.3.3 0 0 0 .1.1h.1c0-.1 0-.2 0-.2zm6.8-2.4h-.2c-.2.1-.8.1-.7.2h-.3l.1.3h.1c0-.1 0 0 .1 0V12c.3 0 .3-.1.5-.1h.2c.2 0 .3-.1.2-.2zm-.1-.2l-.1.1h.3v-.1zm-10.3 3h0 .2c.2.2-.2.2-.2.1zm-2-9.5c.2-.1.2 0 .2 0s.1.1-.3.1c0-.1 0-.1.1-.1zm3.5.2c-.2 0-.2 0-.1-.1a.3.3 0 0 1 .3 0c0 .1 0 .1-.2.1zm-2.2 0h-.2c0-.2 0 0 .1-.1.3 0 .2 0 .1.1zm2.8-.1v.1h-.3c0-.2 0-.2.3-.1zm-1.4.4c.1-.1 0-.1.3-.1s.1.1-.1.2-.1 0-.2-.1zm-1 0v-.2c.2 0 .3 0 .3.1s0 .1-.1.1zm.4.3c.1.1 0 .1 0 .2 0 .3 0 .1-.1.3s0 .1-.1.2-.1 0-.1-.2-.1-.5.2-.6c.1 0 .1 0 .2.1zm-.6.4c-.2.1-.5-.1-.1-.2.1.1.1.1.1.2zm-.2.5s-.1 0 0-.1 0 0 .1-.1 0 0 0 .1v.2a.3.3 0 0 1-.1.1c-.2.1 0 0-.2.1 0-.2.1-.1 0-.2zm-.3.1c-.2 0-.2 0-.2-.1h.3zM62.7 6l.1-.2c.1 0 .1.1.3.1a1.7 1.7 0 0 1 .6 0c0 .3-.3.2-.6.2-.1.1-.1 0-.2.1.4.1.8 0 1 .1H64a2.3 2.3 0 0 1-.7 0H63c-.3 0 .2 0-.2 0a.6.6 0 0 1-.2 0l.1-.1s.1 0 .1-.1zM50 4v.2c-.3 0-.4 0-.4-.2zm-.2.4c-.1-.1-.1-.1-.1-.2l.3-.1c.1 0 .2.1.2.2s0 0 0 .1zm-.7-.2h.3c.1.1.1.1.1.2-.4 0-.5 0-.5-.2zm-.7.1H48c-.4 0-.2 0-.4-.1.1-.1-.1-.1.1-.1h.2a.4.4 0 0 1 .4 0zm-.6.3l-.1-.1s-.2-.1 0-.1-.1 0 .1 0 .3-.1.4.2 0 .3-.1.3 0 0 .1.2H48c-.4 0-.3-.2-.3-.2h-.1-.4a1 1 0 0 1 .4-.1h.4v-.1zm-1.6 0c0 .2 0 .2-.2.3-.3-.1-.5-.3.2-.2zm2.3.4a.5.5 0 0 1 .1-.3h.2c0 .2.1.3-.3.3zm2.6-.3V5c0 .2 0 .1-.3.2-.2-.2 0-.1 0-.2s-.2-.1.2-.2c.1 0 .1 0 .1 0zm-3 .5c0 .1-.1.1-.3.1s-.1 0-.2-.1c.1-.1 0 0 .2-.1h.2c0 .1 0-.1 0 .1zm-1 0c.2 0 .3 0 .3.2-.3 0-.3 0-.3-.2zm-.5.4c-.1-.1-.1-.1 0-.1.4 0 .1 0 .3.1-.2.1 0 0-.3.1zm44 5.5c-.2.1-.1.1-.4.1a1.6 1.6 0 0 0-.5 0c0 .3.3.2.6.2.1.1.1 0 .2.1-.4.1-.8 0-1 .1h.1a3 3 0 0 0 .7 0c.3 0 0 0 .3 0s-.2 0 .2 0a.7.7 0 0 0 .2 0c-.1-.2-.1 0-.2-.2.1 0 .5-.1 0-.3zm-40 13c-.1 0-.4-.1-.3-.2.2 0 .3.1.3.2zm-.7-.3c0 .1.1.1 0 .1s-.2 0-.2-.1zm1 .3a.8.8 0 0 1 .5.1c0 .1 0 .1-.2 0s-.3-.1-.3-.1zm-.2-.2c-.3-.1-.4-.1-.4-.3.3.1.4.2.3.3zm-.5-.2c-.2.1-.5-.1-.4-.2.3 0 .3.1.4.2zm-.4-.4V23a4.4 4.4 0 0 1 1 .3c0 .2-.2.1-.4 0a.8.8 0 0 1-.6-.1zm1.8.3c.1 0-.1-.1.1 0s.2.1.2.2c-.3-.1-.4-.1-.3-.2zM51 23c0-.1 0-.1.3 0 0 .1 0 .1-.3 0zm39.7 8.7c0 .1 0 0-.1.1-.2-.1-.2 0-.2-.2-.8-.3.3-.2.3.1zm-.7-4.2c-.1 0-.2 0-.1-.1s0 0 .2 0 .1 0 0 .1.1 0-.1 0zm-39.3-6a.6.6 0 0 0-.3-.1c.1 0 .1.1.1.1a.3.3 0 0 0 .2 0zm-.4.2a2.4 2.4 0 0 1-.6-.1c-.1.1 0 .3.3.3s-.1-.1.5.1c0-.3.1-.3-.1-.4l-.2.1zM49 22h-.3.1zm0 .1h-.2l.2.1a.1.1 0 0 0 0-.1zM90.4 34a1.2 1.2 0 0 0-.4-.2.1.1 0 0 0 0 .1.9.9 0 0 1 .2 0 1.2 1.2 0 0 1 .2.1zm.2-.1h0 .3c-.2 0-.1 0-.2 0zm.5-.1h.1c-.1-.1-.1 0-.1 0zm.3-.5c-.3-.1-.4 0-.3.1h.2s-.1-.1 0-.1 0 0 .1 0zM45 14.6c0-.1 0-.2.1-.2a.3.3 0 0 0 .1.1s-.1.1-.2.1zm47 9c0 .1 0 .2-.2.1s0-.1.2-.1zM86.3 20c.1-.3.2.1.4.1s.1 0 .3-.1c1 .8-1 .8-.7 0zm-6.6 9.5l.1.2s0-.1.4 0c0 .1 0 .1-.1.1s-.2 0-.3-.1a3.1 3.1 0 0 0-.5-.1c0-.1-.1-.1 0-.2zm1.6.7c-.1 0-.4-.1-.3-.2s.2 0 .3 0 0 .2 0 .2zm-1.4-1c0-.1 0-.1.3-.1.1.1.1.1 0 .2zm10.7 4c0-.2 0-.2.2-.2.3.1.5.4-.2.2zm-2.3-1c0 .1 0 .2-.1.3l-.2-.1c0-.2-.1-.3.3-.2zm.5-.1c0-.1.1-.1.3 0s.1 0 .2.1c-.1.1 0 .1-.2 0l-.2-.1c0-.1 0 .1 0-.1zm1 .3c-.2-.1-.3-.1-.3-.2.3 0 .3.1.3.2zm.5-.3c.1.1.1.1 0 .1-.4-.1-.1 0-.2-.1.2-.1-.1-.1.3 0zm-39 7.7a1.2 1.2 0 0 0 .2 0h.2c.2 0 0-.2-.3-.2zm11.6 1c-.2 0-.3.1.1.1 0-.1.1-.1 0-.1s.1 0-.1 0zm.2-.2a.2.2 0 0 0-.2 0c-.1.1.1.1.2.1zM79.4 42c-.3 0-.3-.1-.5-.1a.7.7 0 0 0-.4-.1h.3c0 0 .1 0 .1 0 .1 0 .1 0-.1 0h-.2c-.1 0-.1.1-.2.2-.5 0-.1 0-.2-.1s.1 0 0-.1.1 0-.1-.1 0 0-.2 0-.1 0-.3-.1l-.4-.1c.2-.2.1.1.5 0 0-.1 0-.1-.2-.1l-.3-.1c-.1 0 .1 0-.1 0a.2.2 0 0 0-.2.1v.4c0 .1-.1 0 .1.1h.4a4.3 4.3 0 0 1 .5 0l-.1.1h-.2a2.2 2.2 0 0 0-.6-.1H77c-.1 0-.1.1-.1.1a4.2 4.2 0 0 0 1 .1h.4c.6 0 .2.1.6.1s.1 0 .2 0h.1a.6.6 0 0 0 .3 0c0-.1 0 0 0-.2zM63 40h-.3c0 0 .1.1.3.1 0 0 .1-.1 0-.1zm17 1.8c.1 0 .4.1.4-.1s-.3 0-.4.1zm-4.2-.6c-.2.1-.1.2.2.2.1-.1.1-.2-.2-.2zm5 .5c-.1.1-.1 0 0 .1s.2 0 .2-.1zm-1 0a.9.9 0 0 0-.5-.1c0 .1 0 .1.2.1s.2 0 .3-.1zm-3.4-.4v.1h.2v-.1h-.1zm3.7.3c.3 0 .4 0 .5-.2-.3-.1-.5 0-.5.1zm.6 0c.2.1.4.1.5 0-.3-.2-.4-.2-.5-.1zm-40-4.5c-.3 0-.2 0-.2.1.2.1.5.1.5 0a.9.9 0 0 0-.4-.1zm1-.2v.1h-.1a.2.2 0 0 0-.2 0c-.1-.1-.2-.3.3-.2zm-.1.3v.1a.8.8 0 0 1-.4 0l.1-.1c0 .1 0 0 .1.1a.4.4 0 0 0 .2-.2zm39.3 4v-.1a4.4 4.4 0 0 0-1-.1c-.1.2.2.2.4.1a.8.8 0 0 0 .5.1zM77 41s.2-.1-.1-.2c-.2.1-.1 0-.1.1zm2 0c-.1 0 .2 0-.1 0s-.2 0-.2.1c.3.1.4.1.4-.1zm.6-.3c0-.1 0-.1-.2-.1 0 .1 0 .2.2.1zM76 39.4c.1 0 .1 0 .2.1-.2.1-.1.1-.3.1.1-.1 0-.1 0-.2s.1 0 .2-.1zm-.3-.4h-.2a.2.2 0 0 0 0-.1c.3-.1.3 0 .2.1zm-36.2-4c0 .1 0 0 .1.1.3 0 .2 0 .2-.1 1 0-.3-.3-.3 0zm2-3.7c.1 0 .1.1.2-.1s0 0-.2-.1-.1 0-.1.1 0 0 .1 0zm39.2 7.3c.1-.1 0 0 .1-.1h.2s.1-.1 0 .1c.3.1 0-.1 0 0h-.3a.1.1 0 0 1 .1 0zm-3.3.6s0-.1.1-.1.1.1-.1.1zm-.4 0a.1.1 0 0 1 0-.1v.1zm3.4.4h.3c-.1 0-.1 0-.1.1a.4.4 0 0 1-.2-.2zm.3.4a2.5 2.5 0 0 0 .6.1c0 .1-.1.3-.4.2s.1-.1-.5-.1c.1-.2.1-.3.2-.3l.1.1zm1.3.6a1.4 1.4 0 0 1 .3.1h-.1zm0 .1h.2-.2zm-42-3.4h-.3c.1-.1-.1-.1.2 0 0 0 .1 0 .1 0zm.4-.2c0-.1 0-.1.1 0h.2c.3 0-.1 0 .1 0l.2.1c.3.1.1.1.1.2s0 .1 0 .1h-.1a.5.5 0 0 0-.1-.1 1.6 1.6 0 0 1-.5 0h.3l-.2-.1h.1c0-.2 0-.1.1-.2zM39 37a1.2 1.2 0 0 1 .5 0h0a1.2 1.2 0 0 0-.2 0 1.9 1.9 0 0 0-.2-.1zm-.2-.1c.2.1.1 0 .1.1a.1.1 0 0 1 0 0H39c-.1-.1-.1-.1-.2-.1.2 0 .1 0 .2 0zm.2-.5v.2a2.5 2.5 0 0 0 .6.1c0 .1-.1.3-.4.2s0-.1-.4-.1l-.1-.1c.1-.3 0-.3.3-.3zm-.7.2c-.1 0-.1 0-.1-.1.1 0 .1 0 .1.1zm-.2-.6c.4 0 .4.1.2.2h-.2s.1 0 .1-.1 0 0-.1-.1zm51.2-1h-.2c-.1 0-.8-.1-.6-.3h-.3l.2-.3h.2v.1.2c.3.1.3.1.5.1h.2c.2.1.2.1.2.2zm-.2.1h0a1.3 1.3 0 0 0 .3 0l-.1.1zM81 30.5h0c0-.1-.1 0 0-.2h-.1c-.1.1 0 .1 0 .1s-.1-.1-.1-.1h-.1v.1a.6.6 0 0 0 .3.2zm3.8 1.5c.1.2.2.2.3.1 0-.1 0-.1-.2-.1 0 0 0 0 0 0zm2.8.4a1 1 0 0 1-.3-.2H87c-.4-.1-.2-.1-.2-.1s-.1 0 0-.2.1.1 0-.1a0 0 0 0 1 0 0c-.1-.2-.1-.1-.1-.3l-.3-.1h-.1c0 .2.4.4.1.5-.1-.1 0 0 0-.1h0c-.3-.1-.1 0-.4-.1s-.1 0-.2-.1c-.4-.2-.1 0-.5-.1h-.1a.5.5 0 0 1 0-.4h.1v-.2c.1-.1 0 0 0-.1l-.1-.1h-.1.1l.1.1h0c-.1 0 0 .1 0 .2h-.2c-.1-.1-.1 0-.1-.1s0-.1-.2-.2l.2.1v.1H85a.8.8 0 0 0-.1-.2c-.1 0 0 0-.2-.1v.1.1c-.2.1-.1.1-.1.2l-.1.1c-.1-.2 0-.2-.1-.3s.2 0-.2-.1c-.2 0 0 0-.1 0s-.1-.1-.1.1 0 .1.1.1v-.2l.3.1v.2c.1.1.1.1.2.2h-.1c.2.1 0 0 0 0 .3.1.3 0 .3-.1a2.7 2.7 0 0 1 0-.3c.3 0 .1 0 .2-.1v.3h.5c-.3.1-.2 0-.5 0-.1.2 0 .1.1.3s0 .1-.2.1c.1 0 0 0 .1.1s-.1.2-.2.3l.1.1a.1.1 0 0 0 0-.1h.3c0 .1 0 .1.1.1a1.4 1.4 0 0 0 0-.2c-.1-.1 0 0-.1-.1s0 0 0-.1c0-.2 0-.3.4-.2h.1l-.1.1c.1.5-.1.3-.1.6.3.1.2.1.4 0-.1 0-.2-.1-.1-.1s0 0 .2-.1 0-.1 0-.1v-.2c0-.1 0-.1.3-.1.2.2 0 .1 0 .2a.1.1 0 0 0 0 .1h.1c0 .1 0 0-.1.1s-.1 0 0 .1 0 0 .1.1H86c0 .1.1.1 0 .2v.1c.1 0 0 0 .2-.1h0a.4.4 0 0 0 .2.2c0-.1-.1-.2.1-.2a.5.5 0 0 1 .2 0c0-.1 0-.1-.1-.1-.4-.1-.3 0-.4-.1h.1.2.1s-.1 0 .2.1.2 0 .2 0h.7c-.1.1-.1.1-.1.1zm-9.3-3c-.1.1-.1.1 0 .2h.2a1 1 0 0 1 .4-.1 5.2 5.2 0 0 0-.5-.2zm.2.4h.2.2a2.4 2.4 0 0 0 1 .3 4 4 0 0 1 .4.1h.2l-.1-.1a.3.3 0 0 1-.1 0l-1-.3c.2.1-.1-.1-.1-.1H79h-.7zM41.2 27c-.1.1-.1.1.1.2s0-.1-.1-.2zm6.4-1.4c0-.3-.2 0-.4-.1s-.1 0-.2-.2c-1.2.4.6 1 .7.3zm27 14.2c.2.1.2 0 .2 0s.1-.1-.2-.1c0 .1 0 .1 0 .1zm3.6.2c-.2 0-.2 0-.2.1a.4.4 0 0 0 .3 0c0-.1 0-.1-.1-.1zm-2.3-.2h-.2c-.2 0 0 0 .1.1.4 0 .2-.1.1-.1zm3 .4V40c-.2-.1 0 0-.3 0s0 .1.3.1zm-1.3-.5c.1.1 0 .1.2.1s.1-.1 0-.2-.1 0-.2 0zm-1-.1l-.1.2h.4c.1 0 0-.1-.1-.2zm.5-.2c.1-.1 0-.1 0-.2.2-.3 0-.1 0-.3s.1-.1-.1-.2-.1 0-.2.1-.3.4 0 .6c.1 0 .1 0 .2-.1zm-.5-.4c-.2-.1-.5 0-.1.1.2 0 .2 0 .1-.1zm-.1-.5s-.1 0-.1.1 0 .1.1.1 0 0 .1-.1l.2-.2a.3.3 0 0 0 0-.1c-.1-.1.1 0-.2-.1-.2.1 0 .1-.1.2zm-.3-.1c-.2 0-.2 0-.3.1h.3zm-25.3-1.6l-.2.1s.1 0-.4-.1v.2a.6.6 0 0 0 .3 0 2.8 2.8 0 0 1 .5.1c.1-.1.1-.1.1-.2zm-1.7.1c.1 0 .4.1.4-.1s-.2-.1-.3-.1-.1.1-.1.2zm7.6.5c.3 0 .1-.1.4-.1a1.6 1.6 0 0 0 .6.1c.1-.2-.3-.2-.6-.2-.1-.1-.1-.1-.1-.1.4 0 .8.1 1.2 0h-.1a3.1 3.1 0 0 0-.7-.1h-.3c-.3 0 .2 0-.2 0a.6.6 0 0 0-.2 0c0 .2.1 0 .2.2s-.6 0-.1.2zm-6-1c0-.1 0-.1-.2-.2s-.1 0-.1.1zm-7.8 1l.1-.1c-.3-.1-.4 0-.4.1zm-.1-.5c-.1.1-.2 0-.2.1l.3.1c.1 0 .2-.1.3-.2s0 0 0-.1zm-.8.1h.3c.1 0 .2 0 .2-.1-.4-.1-.5-.1-.5.1zm-.7-.2a2 2 0 0 0-.4 0c-.4 0-.2-.1-.4 0 .1.1-.1 0 .1.1s0 0 .2 0a.5.5 0 0 0 .4.1zm-.5-.3h-.2s-.2 0 0 .1-.1 0 .1 0 .3.1.5-.1 0-.2 0-.3 0 0 .1-.2H41c-.4 0-.3.1-.3.1l-.1.2H40a.8.8 0 0 0 .4.1c.1.1.1 0 .3 0h.1v.1zm-1.6-.2c.1-.1.1-.2-.1-.2s-.6.2.1.3zm2.5-.1a.4.4 0 0 0-.1.3h.2c.1-.2.2-.3-.2-.3zm2.5.6l.1-.2c0-.1 0-.1-.2-.2-.2.2-.1.1 0 .2s-.2.1.1.2c0 0 0 0 .1 0zm-3-.8c0-.1-.1-.1-.3-.1s-.1 0-.2 0c.1.1 0 0 .2.1h.2c.1 0 0 .1.1 0zm-1-.1c.3 0 .3 0 .3-.1-.2 0-.3 0-.3.1zm-.4-.4c-.1 0-.1 0-.1.1.4 0 .1.1.3 0-.1-.1.1-.1-.2-.1zM87 35c-.2-.1-.1-.1-.4-.1a1.9 1.9 0 0 1-.6-.1c.1-.2.4-.1.7-.1a.7.7 0 0 0 .2-.1c-.4-.1-.8-.1-1-.2h.1a3.3 3.3 0 0 1 .7.1c.3.1 0 0 .3 0s-.2 0 .2 0a.7.7 0 0 1 .2 0c-.1.2-.2 0-.3.2 0 .1.5.2-.1.4zm-7.7-16.4zm-11-2.8h0zm-4.6 19.3l.3-.1a.3.3 0 0 1 .2.1 3.3 3.3 0 0 1-.5.1zm13.6-19.7c0-1-.5-1.7-1.3-1.7a1.5 1.5 0 0 0-1.3 1 1.9 1.9 0 0 0-.1.5 1.5 1.5 0 0 0 1.1 1.7 1.5 1.5 0 0 1-.2.2 1.4 1.4 0 0 0 .3 0 1 1 0 0 0 .3-.1 1.9 1.9 0 0 1 .1-.2 1.6 1.6 0 0 0 .6-.5h.1a2.3 2.3 0 0 0 .2-.9zm2.3 5.4c.5.1 1-.4 1.2-1a1 1 0 0 0-.7-1.3.9.9 0 0 0-.8.3H79a1.6 1.6 0 0 1 0 .2 1.5 1.5 0 0 0-.2.6v.1a1 1 0 0 0 .5.9 1.3 1.3 0 0 1-.1.2.8.8 0 0 0 .3 0zm-11.8-5zm-4.5 24.3a.4.4 0 0 1 .1-.2c.1-.2.2-.2.2-.2s0 .1.2.2 0 0 .2.1v.1a3.9 3.9 0 0 1-.6 0zm-11-35c0-.1 0-.2.3-.2 0 0-.1 0 0 0h-.1c0 .1 0 .1.1.1l-.1.1c0 .1.1 0-.1.2 0-.1-.1-.1-.1-.2zm0 .3H52s-.1 0 0 0zm.4-.1a1.1 1.1 0 0 1 .9-.5 1.7 1.7 0 0 1 1.4 1.7 1.5 1.5 0 0 1-1.2 1.8.9.9 0 0 0 .1-.1 1.7 1.7 0 0 1-1.2-1.7 1.9 1.9 0 0 1 .3-1.2h-.2zM51 7.4a1.5 1.5 0 0 1 1.3 1.5c.1.8-.4 1.5-1 1.5a1 1 0 0 0 .1-.2 1.6 1.6 0 0 1-.9-1.4 1.8 1.8 0 0 1 .2-.9.9.9 0 0 0-.3-.1 1 1 0 0 1 .7-.4zM49.3 10h.1a1.2 1.2 0 0 1 1 1 1 1 0 0 1-.7 1.3.5.5 0 0 1-.2 0 1.3 1.3 0 0 0 .1-.2 1.4 1.4 0 0 1-.6-.9 1.4 1.4 0 0 1 0-.7.9.9 0 0 0-.3-.1.8.8 0 0 1 .6-.4zm9-5a1.1 1.1 0 0 1 .2 0zm.8-2c-.7 2.4.6 4 2 4h0a2.1 2.1 0 0 0 .8-.3c.3 0 .1 0 .2-.1l.1-.2.2-.3h.6c1 .1.8 0 1.3 0h.1c0 0-.1 0 0 0h-.1c-.4 0-.4 0-.8-.1a4.2 4.2 0 0 0-.7 0c.2.3-.2.2-.3.2s0-.1 0-.2h.3c-.1-.1.1 0-.2-.1s-.3.5.2.5h.1.3c-.1.1-.2.1-.1.2a.6.6 0 0 0 .4 0c.1-.2-.1-.1 0-.2-.4 0-.4 0-.4-.2a1.4 1.4 0 0 1 .8.1.8.8 0 0 0-.3.1h.8v-.1c.3 0 .7.1 0 .2 0-.1.1 0 0 0s-.1.1 0 0c-.1.1-.1.1 0 .2.8 0-.1-.3.6-.2 0-.3 0-.2.7-.2v.1h-.1.1c.2-.2 0-.1 0-.3-.5 0-.2-.2-.2-.3h-.4c0-.1 0-.1-.1-.2-.4-.1-.3.4-.3.4-.2.1 0 0-.2 0h-.2c.2-.5-.2-.1 0-.5h.3a.5.5 0 0 0 .2 0c.2 0 .2 0 .2-.1h-.7c-.4 0-.4.2-.6 0-.3 0-.2.1-.6 0a1.1 1.1 0 0 0-.3 0l.1-.1a1.5 1.5 0 0 0 .3 0 1.4 1.4 0 0 1 .7 0h0l.7-.1c.1.1-.1.1.1.1s.2 0 .4-.1.2.1.5.1a2.4 2.4 0 0 1 .6 0c.3 0 .2-.2 0-.2s-.3 0-.6 0c-.7 0-1.5-.1-1.8-.1a1.6 1.6 0 0 1-.5 0 1 1 0 0 0-.2 0l.2-.4c1-3.2-1.6-5-3.3-3.4l.3-.1a3.6 3.6 0 0 0-1 1.7zM59 37.5c.1 0 .1-.1.2-.1h.5a4 4 0 0 1-.9 0c0 0 0 .1.2.1zm-2.3-.7h.2-.3c0-.1 0-.1.1-.1s.5 0 .3.2c.3 0 .3.1.6.1l-.1-.1H57h0a4.5 4.5 0 0 1-.5-.3c-.3-.1-.4.2-.1.2zm-2.7-10c.1-.1.1 0-.1 0s0 .1.1 0h0 .2 0c-.1 0 0 0 0 0zm-1-2.4h-.5c-.1 0-.1 0-.1.1s0 0-.1.1.2.1-.2 0c0-.1 0-.1-.1-.2a.4.4 0 0 0-.1-.1h-.1c-.1 0-.1-.1-.1 0 0 .1 0 0 .1.1s-.1 0 .1.1 0 0 .2.1a.7.7 0 0 0-.4 0c-.2 0-.2 0-.5-.1 0 .2 0 0 .1.1a.5.5 0 0 0 .3.1c0 .1 0 0 .1.1h0c.1 0-.1 0 .2.1s.1-.1.6.2h.4a5.7 5.7 0 0 0 .7.2c0-.1-.1-.2-.1-.3a1.6 1.6 0 0 0-.5-.1h-.2v-.1a3.4 3.4 0 0 1 .5.1h.1c0-.1-.1-.2-.1-.3zm-.1-.2a1.1 1.1 0 0 0 .2.1l-.1-.2a.1.1 0 0 0-.2.1zM80.5 29h.3v.2a.2.2 0 0 0 .1.2c.2-.1.1-.1.3 0s.1.4.1.6H81c0-.1.1 0-.1 0-.1 0 0-.1 0 0s-.1-.1 0 0c-.2-.1-.1-.1-.1 0 .3.1.1 0 .1 0s.1 0 0 0c0 0-.1 0 0 0s-.1 0 .1 0-.1.1-.1.1 0 .1.1.2 0 0 .2.1h.2V30H81c.3.2.1 0 .1 0s.1 0 .1-.1v-.6a.8.8 0 0 1-.2-.1c-.1 0 0 0-.1.1s.1 0-.1.1v-.1a.4.4 0 0 0-.1-.1c-.5-.2-.3 0-.6-.1s-.3-.2-.4 0c0-.1 0 0-.1-.1-.3-.1-.2 0-.4-.1s-.2-.1-.5-.1c0 .2-.1.1.2.2s.7.2 1 .3a.9.9 0 0 1-.5-.1l-1-.2a9.1 9.1 0 0 0 .7-1.7c1.7-5.3-2-8.2-5.8-9.6-3-1-5.2-.8-6.3.6-1 1.3-1 3.4 0 6 .5 1.4 2 4.4 1.7 6a5.6 5.6 0 0 1-.4 1.2c-.6 1.8-2 3.3-3 5.4a9.5 9.5 0 0 0-.5 4.4c.4 3 3 4.7 5.2 4-2.6 1.7-6 0-6.4-3.6v-.4s.1 0-.1-.1-.2.1-.2.3c-.2-.1-.1 0-.2-.1l-.1-.1h-.4c-.2-.1 0-.1-.3-.1s-.1.1-.4-.1c.1-.2.1-.1.6-.1.1-.2-.1-.2-.4-.2-.1-.1 0-.1-.2-.2-.5.1-.2.2-.2.4-.2 0-.2.1-.2.1v.1c0 .1 0 0 .1.1s-.2.1-.1.4h-.3c-.1-.1-.2-.1-.5-.1l.1-.4c0 .1.1.1 0 .2a.5.5 0 0 1-.1.1c0 .1-.1 0 .1.1.4.1.3-.2.4-.3h.1.1c.1-.1.1.1.1-.1s0 0 0-.1 0 0 0 0c-.1 0 .1 0 0 0h-.1-.5c.1-.1.1 0 .2-.1h.2c.1 0 .1 0 .1-.1s0-.1 0-.1.1 0-.1 0h-.2c-.1 0-.1.1-.2.3v-.3c0-.1.1 0 0-.2s0-.1-.1-.1v-.1c-.2-.1-.1 0-.2 0a.8.8 0 0 0-.2.1c-.2-.1-.1 0-.2-.1v-.1h.2l.1-.1c.1-.1.1 0 .1-.1h-.7s-.1 0 0 .1l-.1.2h.1a.5.5 0 0 1-.2.4H60c-.5 0-.1-.1-.6-.1-.1 0 .1 0-.3 0h-.4v.1c0 .1.1 0 0 .1-.2-.2.3-.2.3-.5h-.7c-.2 0 0 0-.3-.1s-.1 0-.4 0h-.4c-.2 0-.2 0-.2-.1.3-.1.4.1.5-.1s-.3-.1-.4-.1.1-.1-.3-.2h-.5c0 .2.2.2.3.1h-.4c-.2 0-.4-.2-.5 0-.1-.1-.3-.1-.4-.3a.7.7 0 0 0-.3 0H55c-.1-.1 0 0-.1-.1h-.2c-.2 0-.2.1-.2.3h0l.1.1c-.5 0-.2-.1-.2-.3-.4-.2 0-.2-.4-.2-.1.1 0 0-.1.2l-.2.1c0-.1.1 0 0-.1s-.1-.1-.3-.1l-.4.2H53a.2.2 0 0 0-.1.1l.1-.4h-.5c-.1-.1 0 0-.2-.1-.3.1 0 .2-.1.3s-.2.1-.2.3 0 0 .1 0a.5.5 0 0 0 .2 0s-.1 0 0 0h.1c.1 0-.2 0 .2 0h.2.2v.2l-.1-.2H52a2.6 2.6 0 0 1-1-.2c.1-.1.1 0 .1-.1s.1 0 0-.1 0-.2 0-.3.2-.2-.2-.2v.2h-.3l.1-.1c.1-.1.1 0 0 0s0 0-.1 0c-.2-.4-1.7-.3-1.7.8-.4-.1-.4-.1-.6 0s-.1 0-.2.2c-.5-.1-.4 0-.4.1s.1.1-.1.1-.2-.1-.2-.1.2 0 .2-.1h-.3c-.1.1-.1.1-.1.2s-.1.1-.1.2h0 .4c1 .2 1 0 1 .4-.1 0 0 0-.1-.1v-.1a2.6 2.6 0 0 0-.5 0h-.4c-.1-.1-.3-.1-.6-.2a.7.7 0 0 0-.4-.1v.1s.2 0-.2 0c.1-.1.1 0-.1 0a3.2 3.2 0 0 1-.9-.3H45a.9.9 0 0 0 0-.1c0-.1 0 0-.1-.1s0-.1.2-.2c-.3-.1-.8-.1-.4-.3l.3.2c.2-.2-.5-.6-.7-1-.1-.1-.1 0-.3-.2s-.3-.1-.4-.3 0 0-.1-.1a3.2 3.2 0 0 1-.6-.1c0-.2.2-.3-.2-.3-.2.1 0 .1-.1.2h-.4c0-.2.1-.1.1-.2H42c-.1.1 0 .1-.1.2-.5-.1.2 0-.4-.3h-.2c.1-.2.5 0 .6.1s.1-.1.1-.2v-.1c.5 0 .2.1.3.3h.4c.1 0 .3.1.4.1 0-.2 0-.1.1-.2s-.2-.4.3-.2c.2.1 0 .1 0 .2v.1c0 .2-.1.2.2.3.1-.1.1-.1.2-.2s.1 0 0-.2 0-.1.1-.2a.2.2 0 0 1 .2 0c.2.1.1.1.4.1 0-.3-.2-.2.1-.6v-.2h.1c.5.1.4.1.3.3h0c0 .1 0 0-.1 0 0 .1-.2.6.2.3 0-.1-.1-.1.1 0h.1c0 0-.1-.2 0-.3s0-.1.1-.1c-.2-.1-.3 0-.2-.2s.1 0 .2-.2c-.3-.1-.3 0-.5-.2h.5l.1-.2c.1.1-.1 0 .2.1a2 2 0 0 1-.1.3c0 .1 0 .2.2.2 0 0-.1 0 0 0 .1-.1.1 0 .2-.1l.1-.3h.3l-.1.2c.1 0 .1 0 .1-.1s0-.1 0-.1.1 0-.1-.1c-.4-.1-.1 0-.2 0s-.1.1-.2.3v-.1c0-.1.1 0 0-.2s0-.1-.1-.1h0c-.2-.1-.1 0-.2 0a1.2 1.2 0 0 0-.2.1c-.2 0-.1 0-.2-.1H45h.2c-.3 0-.4 0-.3.1s0 0-.1.1h-.1c.1-.1.1-.1.1-.2h0c-.1 0-.1 0 0 .1l-.1.2h.1a.5.5 0 0 1-.2.4h-.1c-.5 0-.1-.1-.6-.1-.1 0 .1 0-.3 0h-.4v.1c0 .1.1 0 0 .1-.2-.2.3-.2.3-.5h-.4c-.1.3 0 .1-.2.3-.1.1 0 0 0 .1 0 .2-.1 0-.1.2s.2.1-.2 0l-.1-.1a1.2 1.2 0 0 1-.3.1h-.2c0-.3.5-.2.6-.1V36c-.2 0 0 0-.3-.1s-.1 0-.4 0h-.4c-.2 0-.2 0-.2-.1.3-.1.4.1.5-.1s-.3-.1-.4-.1.1-.1-.3-.2h-.5c0 .2.2.2.3.1-.4 0-.1 0-.4.1s-.4-.2-.5 0c-.1-.1-.3-.1-.4-.3a.8.8 0 0 0 .4 0s.1-.1.1-.1 0-.1-.1-.1-.1 0-.2.1c-.4 0-.2-.1-.3.1a.6.6 0 0 0-.2 0l-.1-.1c-.1-.1.1 0-.1-.1H39c-.2 0-.2.1-.2.3v.1a1.3 1.3 0 0 1 0-.2.1.1 0 0 1 0-.1c.1-.1 0 0 .1-.1h.2s.1-.1 0 .1c.3.1 0-.1 0 0v.1a1.3 1.3 0 0 0 0 .1H39v.4c0 .1.1 0 0 .1-.3 0-.6.1-.5-.2-.1.1-.1.1-.2.1v-.1c-.1 0 .1 0-.1 0v-.1l.1-.1h-.1a1.7 1.7 0 0 0-.5 0l-.2-.1.2-.2a.8.8 0 0 1 .2-.1l.2.1c-.1.1 0-.1-.1.1v.1c.5.1.5 0 .6-.3-.1-.3.1-.1.1-.3-.2-.1-.7-.2-.7-.3a.2.2 0 0 1 0-.2c0-.1 0-.2.1-.3a.6.6 0 0 1 .2 0h0s-.1 0 0-.1.1 0 .4 0a.5.5 0 0 0-.2 0c-.2.1.1.2.2.2s.2.1.4-.3-.6-.2-.7-.2l-.1-.1c.1-.1.1-.1.2-.2a2.4 2.4 0 0 1 .1-.2l.1-.2c0-.1 0-.1.1-.2s.1 0 .1 0 .1 0 .1.1-.1-.1 0 .2-.1.2.2.2.1-.1.2-.2-.1-.3.2-.6.1-.2-.3-.2-.2.3-.3.4c-.1 0-.1-.1-.2-.2.3 0 .2 0 .3-.2s0-.3.3-.2c0 .1.2.1.3.1a.5.5 0 0 0 .3-.6.5.5 0 0 1 .3-.4c.3.1 0 .1.4.1.1-.1 0 0 .2-.1 0-.2 0-.3.1-.5s.1 0 .1.1l.1.4c.4 0 .2-.1.2-.2s.2-.1.1-.3 0 0 0 0l.1-.2a1.5 1.5 0 0 1 .3 0c0 .1-.1.2.2.2s.2-.1.2-.1-.1 0 .1-.2 0-.1 0-.2.1-.3.1-.4-.1-.1 0-.2.1 0 .1-.2H42l-.4-.1h.1a.6.6 0 0 0 .1 0c0-.1 0 .1-.2-.1a.2.2 0 0 0-.1-.2c-.1 0 0 0-.1-.1a1.6 1.6 0 0 1-.2-.1c-1-.4.1-.6-.4-1s-.5 0-.8-.3c-.1-.1 0-.1-.1-.2s-.4-.3-.5-.5-.2-.2-.4-.3c.5-.4.3-.1.4-.5s0-.1 0-.3.1-.2.3-.3a1.1 1.1 0 0 1 .5-.1 5.5 5.5 0 0 1 .6 0 11.6 11.6 0 0 0 1.8-.3h.6a6.6 6.6 0 0 1 1.3-.1h1.4c.6 0 1 .2 1.4.1s.2.1.7.1c1 0 1 .8.4.3h-.1c-1 .7 3.7.5 4 .3.7.1-.4.3 1 .3h.1c-.1-.3-.2-.5-.4-.8-.2-.1-.2 0-.4-.1 0-.1.1 0 0-.1s.2 0-.2-.1-.1 0-.2 0h-.1c-.1-.1.2 0-.2-.1s-.1 0-.2 0-.2 0-.2 0 0-.1 0 .1 0 0-.1 0c0-.2-.2-.3-.5-.3l-1.2-.3a1.4 1.4 0 0 0-.6-.2 2.2 2.2 0 0 1-.5-.1H49h-.1-.3c-.1-.1 0 0-.1-.1a.5.5 0 0 1 .2 0c.3.1-.1 0 .2.1a2.3 2.3 0 0 0 .5.1c0-.2 0-.1-.4-.2s-.2-.1-.3-.2a.8.8 0 0 1-.5-.1c-.4-.1-.3-.1-.6-.2.1-.1.1 0 .2 0s-.1 0 .3.1l.3.1a1.5 1.5 0 0 0 .6.1c.1-.1 0-.1 0-.1a1.3 1.3 0 0 0-.6-.2.5.5 0 0 1 .2-.1c.3.2.2.1.5.2s.2.1.5.1v-.2c-.3-.1-.3-.1-.5-.1-.2-.1 0-.1-.3-.1a1.5 1.5 0 0 1-.5-.1c.2-.1.1 0 .4 0s.1 0 .4.1c.1.1 0 0 .1.1a1.1 1.1 0 0 0 .2.1c.1 0 0 0 .1-.1h-.1-.2c-.1-.1.1 0-.2-.1-.1-.2.7.2.6-.1a.9.9 0 0 0-.4-.2l-1.4-.4-.3-.1c.4.1.8.1 1 .2s.1.1.3.1 0 0 .2 0 0 .1.4.1c0-.1 0-.1-.2-.2-.5-.2-.1 0-.4-.2l-.1-.1c-.5-.1-.4-.1-.2-.1a.9.9 0 0 1-.2-.1h0 .3c.3.4.7.5.8.3l-.2-.1c.1-.1.1 0 .2-.1h.1c0 .1.1.2 0 .2s-.1.1.2.2l.1-.1a.4.4 0 0 0 0-.1.3.3 0 0 1 0-.1h.1a1.5 1.5 0 0 1 .4.2l-.2.1s.1.1 0 .2c.2 0 0 0 .2-.2.1-.1 0-.1 0-.2s-.1 0 .1 0 0 0 .2.1a.4.4 0 0 1 0 .4c0 .1-.3.1.3.2a1 1 0 0 0 0-.3c0-.2 0-.2.2-.3-.1-.1-.2-.3.2-.2.1.3-.1.1 0 .4 0 .2-.1.3-.1.4h.2c.1-.1.1-.3.1-.4l.3.1.1.2h-.1l.1.2h.3l-1.7-2.6a1 1 0 0 0-.3-.1l-.1.1-.5-.1c-.2 0-.1-.1-.1.1l-.3-.1-.2-.1c0 .1.3.1.3 0 0 0-.4-.1-.5-.2-.4-.1-.1.1-.3.1s-.4-.1-.4-.1c-.3-.1-.7-.2-1-.3-.5-.2-.5-.3-1-.4a3.8 3.8 0 0 1-.5-.2c-.2-.1 0-.1-.4-.2 0-.1 0-.1.7 0-.4-.2-.3-.1-.8-.2 0-.1.1-.1.1-.1s0 0 0-.1-.4.1-.6.1h-.1l-.1-.1a.6.6 0 0 0-.2-.1l-.2-.1h-.1a.4.4 0 0 1 .6 0c.1.1-.1 0 .2.2.2-.1-.3-.5-.7-.5s-.3.1-.4.1h0c.2 0 .3 0 .3-.1s-.1-.2-.1-.3.3-.2.1-.5 0-.1 0-.2l-.2-.1c0-.1.1-.2.1-.3a.7.7 0 0 1-.4-.2c-.2-.1-.2-.1-.1-.3s0 0 .1-.3.1-.1-.2-.6a.8.8 0 0 0 .4-.3 1 1 0 0 1 .3-.2h.1-.1c0-.1 0-.1.2-.1.1-.1 0-.1.1-.1H44V14c0-.2.1-.1.1-.3s0-.2-.1-.5v-.2c-.8-.3-.3-.3-.2-.3s0 0 .2-.1.5.2.6 0c-.2-.1-.7-.2-.5-.2.5 0 1 .3 1.5.3a6.4 6.4 0 0 0 .8.1v-.1h0c.2-.1.1 0 .2-.1l-.1-.1h-.1l.5-.1c0-.2 0-.1-.1-.2s.1-.1.1-.2-.1-.2 0-.4.2 0 .1-.2 0 0 0-.2 0-.1-.1-.2-.2 0-.2.1a1 1 0 0 1-.3 0v-.7c.2-.2 0-.1 0-.3s.2-.2-.1-.2l-.2.4c-.1.1 0 .1-.1.1-.1-.1 0-.3 0-.5-.2 0-.1 0-.1-.1-.3 0 0 0-.4.1a.7.7 0 0 1 0-.3c.1-.2.2-.5-.1-.6 0 0-.2-.1-.3 0-.3.1-.2 0-.2-.2s.1-.2-.2-.2c.2-.1.2-.1.3-.2.1.2-.1.4.1.5s.4 0 .3-.2.1-.3 0-.6.1-.1-.1-.2-.1 0-.3.2 0 0 0 .2 0 0-.1.1h-.1v-.4a2.4 2.4 0 0 1 0-.3c0-.1 0-.1-.1-.2l.2-.1s.7.2.7-.1-.1-.3-.3-.3-.4 0-.3.2a.3.3 0 0 0 .2.1h-.3c0 0 0 0 0-.1v-.1a.6.6 0 0 1-.2 0c-.1-.1 0-.2 0-.3a.3.3 0 0 1 0-.2c.1-.2.6-.2.8-.2 0-.2-.2-.1 0-.3.1-.3.1-.4-.4-.4V6c0 .2 0 0 .1.1h-.2a.6.6 0 0 1-.2-.2l-.1-.2h.3a1.6 1.6 0 0 0 .5 0 .6.6 0 0 0 .1 0v-.2h.1V5c.1 0 0 .1.1.2 0-.4.3-.3.5-.2 0 .2 0 0-.1.1s-.1.3-.1.4h.1a.6.6 0 0 1 0 .1v.1c0 .1.2 0 0 0h0-.2c-.1 0 0 0-.1-.1a.1.1 0 0 1 0-.1 1.3 1.3 0 0 1 0-.2l-.1.1c-.1.2-.1.3.1.3h.3c.2 0 .1 0 .2-.1l.1-.1a.5.5 0 0 0 .2.1c0 .2-.1.1.3.1 0 .2 0 .1.1.1S47 6 47 6a.4.4 0 0 0 0-.1.7.7 0 0 0-.4-.1c.1-.2.3-.1.4-.2.1.1.3.1.5 0s-.1.1.3.1a.2.2 0 0 0-.3.1h.5c.3 0 .1-.1.3-.2s.5.1.4-.1-.2 0-.4-.1c0-.1 0 0 .2 0h.4c.2 0 .1.1.4 0s0 0 .3 0V5c-.1 0-.6.1-.5-.2.2-.1.2 0 .2 0 .2 0 .3.1.3.1l.2-.1c.4 0 .2 0 .2.1s.1 0 0 .2c0 0-.1-.1 0 .1.1.2.1 0 0 .3h.4c0-.2-.4-.3-.1-.5.1.1 0 0 0 .1h0c.3 0 .1 0 .4 0h.3c.4.1.1 0 .5 0 0 0 0 0 .1 0 .1.1 0 .3 0 .4h-.1v.3c-.1.1 0 0 0 .1h0c.1 0 0-.1 0-.2h.2c.1.1.1-.1.1.1s0 .1.2.1h-.2v-.1c.1 0 0 0 .2 0a1 1 0 0 0 .1.1v-.2h-.5c.3-.2.3-.1.5-.1.1-.2 0-.1-.1-.3s0-.1.2-.2c-.1 0 0 .1-.1-.1s.1-.3.2-.3H52c-.1 0-.1 0-.1-.1-.3-.3-.3.2-.3.3.1 0 0 0 .1 0s0 0 0 .1c0 .2 0 .3-.4.3h-.1l.1-.3c-.1-.4.1-.3.1-.6-.3 0-.2 0-.4 0 0 0-.1.1-.2 0s-.1-.1 0-.2 0 0 0-.2S51 4 51 4c-.3 0-.2 0-.3.2v.1c0 .1.1.1-.1.2-.4.1-.2-.1-.2-.2s-.1 0 0-.2h-.8c-.2 0 .1.3-.4.2H49v-.2c0-.1-.5.2-.6 0h.2c.7-.2-.1-.2.5-.2.1.1-.1.1 0 .2h.4c.1-.1-.1-.1 0-.2h.4c.1.2-.1.1 0 .2.4 0 .2-.1.3-.3a2.8 2.8 0 0 1 .6 0c.2-.1 0 0 .1-.1s.2 0 .5-.3.2-.1.4-.2 1-.7 1-1l-.3.1c-.4-.3.1-.2.4-.3-.1-.1-.2-.1-.1-.2s.1 0 .1-.1 0-.1 0-.1a3.1 3.1 0 0 0 .4 0 3.6 3.6 0 0 1 .9-.2h.3c.2 0 0-.1 0 0v.1a.7.7 0 0 0 .4 0c.3-.1.5 0 .7-.2.2.1 0 .1.3.1a2.1 2.1 0 0 0 .5.1l.1-.1c0-.1 0 0 .1-.1.1.4-.1.2-1 .3H55V2h.3c0-.1-.1-.1-.2-.2s0-.2.2-.1.1 0 .1.1-.1.3.4.2c0 .2 0 .2.1.2a1.4 1.4 0 0 1 2.3.5c1.2-4 5.3-3 5.2.6h.1c.4 0 .1-.1.3-.2s.5.1.4-.1-.2 0-.4-.1c.1-.1 0-.1.2-.1h.4c.2 0 .1.1.4 0s0 0 .3 0h.7c0-.2-.4-.3-.2-.5.1.1 0 0 0 .1v.1h.6c.4.1.1 0 .6 0h.1c.1.1 0 .3 0 .4H67v.3c-.1.1 0 0 0 .1h.6c0-.2 0-.1-.1-.1h-.1-.2 0 .2a1 1 0 0 0 .1.1h.2L68 3h.1c.2-.1.1-.1.1-.2l.1-.1s0 .2.1.3-.2.1.2 0 0 0 .1 0 .1 0 .1-.1 0-.1-.1-.1h-.2c-.1-.1-.1 0-.2-.2h.3c-.1 0 .1 0 0 0s.1 0 .1 0 .1 0 .1-.1 0 0-.1-.1 0 0 0-.1c0 0 .2-.4-.3-.3-.2.1 0-.1-.1.1h0c0 0 0 .1-.1.2v-.4c.3 0 .3.1.5-.1.1 0 .2.1.3.1-.2.2.1.3-.1.4s-.1 0-.1.1v.1c0 .1 0 .2.1.2 0 .2-.4.3.1.4.2 0 .1 0 .2-.1.3 0 .5.1.5-.2-.4 0-.5.1-.5-.1.3-.1.2 0 .4 0s.1 0 .3-.1l.3.1.2-.1c.2-.1 0-.1.2-.1 0 .1-.1.3.1.3h.1c.2-.1 0-.1.2-.1 0 .1 0 .1.1.2s0 0 .2 0h.3c.1 0 0-.1-.1-.1.2 0 0 .1.3.2a.8.8 0 0 0 .4-.1h1c-.2-.1.1.1.1.1h.1c.3 0 0 0 .3-.1.5 0 .2-.1.5 0s.5 0 .5.1-.2.1-.3.1c-.3 0-.1-.2-.7-.1 0 0-.1.1-.1.1h-1c-.4 0-.1 0-.3 0a.7.7 0 0 0-.4 0c-.1.1-.1.2.3.2h.1c.1 0 .1 0 .1.1h-.2s.1-.1-.1 0H72c0 0-.1 0 0 0 0-.1.1 0-.1 0 0-.1.1 0-.1 0L72 3a.1.1 0 0 0-.1-.2h-.2-.2v.1a1.2 1.2 0 0 1 .3.1c-.3-.1-.2 0-.2 0s0 0-.1.1V4a1.1 1.1 0 0 1 .3.1c.1 0 0 0 .1-.1s-.1 0 .1-.1h0a.2.2 0 0 0 .1.1c.5.1.3-.1.6 0s.3.1.4-.1c0 .1 0 0 .1.1h.4c.2 0 .2.1.5 0 0-.2.1-.1-.2-.1s-.7 0-1-.1a.9.9 0 0 1 .5 0h1.4c.4 0 .4 0 .5.1H75a.2.2 0 0 0 .1.2c.1.1 0 0 .1.1s.1 0 .2-.1.1-.1 0-.2c.2.1 0 .1.3.1.1.1 0 .1.2.1s.1 0 .1-.1 0 0 0-.1 0 0 .1-.1.1 0 .1 0a.8.8 0 0 0 .3 0h.2c.1.1.8 0 .7.2-.3 0-.3-.1-.5-.1h-.1c-.6.1-.3-.1-.4.2a3.7 3.7 0 0 0 .9 0h.1v.1c0 .1 0 0 .1 0h.1c.2 0 .1 0 .1-.1s0-.1.1-.1 0 0 0 0c0 0 0 0 .1 0s-.1 0 0 .2c.3 0 .1 0 .2-.1V4h-.2-.1c-.2 0-.3 0-.3-.1s.1-.1.3-.1a2.4 2.4 0 0 1 .8 0h.4c1 .1.8 0 1.3 0h.1c0 .1 0 0 .1 0H80a4.4 4.4 0 0 1-.8-.1h-.7c-.1-.1.1-.1-.2-.1s-.3.5.3.5l.1-.2h.2C79 4 79 4 79 4a.6.6 0 0 0 .4 0c.1-.2-.1-.1 0-.2a3.8 3.8 0 0 0 .5 0h.3c0 .1-.1.1.1.1-.1.1-.1.1 0 .2.8 0-.1-.3.6-.2h0a1.1 1.1 0 0 0 .6 0c.1-.2-.1-.1-.4-.1 0-.1.1-.2.4-.1h.1c.2-.2 0-.1 0-.3s.1-.1 0-.2c.3-.2.4-.2-.2-.4h-.2c.2-.1.1 0 .3 0h.5c-.2.1-.2.1-.2.2.5.1.6-.1.3-.2h.2c0 0 0 .1.1.2s.1.1.2.2c.4-.1.2-.2.4-.4h.1c.4.1.3 0 .5 0 0 .1-.1 0 .1 0s-.2 0 .2 0h.3c.1.1-.2 0 .2 0h.2c-.1 0 .1 0 .1-.1h.1c0 .1.2.3.5.2h1.4a1.2 1.2 0 0 0 .6 0 1.9 1.9 0 0 1 .5 0h.2l.3.1c.1 0 0 0 .1.1a.4.4 0 0 1-.2 0c-.2 0 .1 0-.2 0a1.6 1.6 0 0 0-.5 0c0 .2 0 .1.3.1s.2 0 .3.1c.3-.1.2-.1.5 0s.3 0 .6.1c-.1.1-.1.1-.2.1s.1 0-.3-.1h-.3a1.2 1.2 0 0 0-.6 0c-.1.1 0 .1 0 .1.2.1.3.1.6.1a.9.9 0 0 1-.2.1c-.3-.1-.1-.1-.4-.1s-.2 0-.5 0V4c.3.1.3 0 .5 0s0 .1.3.1h.4c-.2.1-.1.1-.4.1a2 2 0 0 0-.4 0h-.1a.5.5 0 0 0-.2 0c-.1 0 0 0-.1.1l.1.1h.3c.1 0-.1 0 .2 0 .1.2-.7-.1-.6.2a.8.8 0 0 0 .4 0h1.6c-.4 0-.8.1-1 .1s-.1 0-.2 0h-.6c0 .1 0 .1.2.1h.4a.4.4 0 0 0 .2 0c.5 0 .4 0 .2.1h.1 0a1.1 1.1 0 0 1-.3 0c-.2-.3-.7-.3-.8-.1h.2c-.1.1-.1 0-.2.1h-.1a.1.1 0 0 1 0-.2c0-.2.1-.1-.2-.2V5a.8.8 0 0 0 0 .2.2.2 0 0 1 0 .1.2.2 0 0 0-.1 0 .9.9 0 0 1-.4-.1l.2-.2s-.1-.1 0-.2c-.2 0 0 0-.2.3-.1.1 0 .1 0 .2s.1 0-.1.1 0 0-.2 0a.4.4 0 0 1 0-.4s.3-.1-.3-.2V5c0 .1 0 .2-.2.3.1.1.2.3-.2.2-.1-.2.1-.1 0-.4 0-.2.1-.3.1-.4h-.2c-.1.2-.1.3-.1.5H85V5h.1-.1c-.5 0-.1.1-1 .2H84c-.3 0-.3.1-.5 0 .1-.1-.1 0 .3-.1h-.4c-.1.1 0 0-.1.1s0 0-.1.1h-.3-.2a1.1 1.1 0 0 1-.3 0c-.2 0 .1-.1-.2 0 0 .1 0 0-.1 0-.5 0-.5 0-.7.2-.1-.1 0-.1 0-.3.3 0 .3 0 .4-.1a2.4 2.4 0 0 0-.6 0h-.3-.5a7.1 7.1 0 0 0-.8 0c-.2 0-.1.1-.3.1h-.4v.1h-.1.3v.1a.7.7 0 0 0 .4 0c.4-.1.5 0 .7-.2.2.1 0 0 .3.1a2.1 2.1 0 0 0 .5 0l.1-.1h0c-.1.1-.1 0-.1.2a.6.6 0 0 0 0 .1h-1.3c.3 0 .2.1.3.1a.1.1 0 0 0 0 .1c0 .1 0 .2.1.2.5.1.3 0 .5.1h.1c0 .2.1.2.1.2h.1.2a.1.1 0 0 0 .1.1.5.5 0 0 0 .2-.1c-.1.2.1.2-.2.3-.3-.1.2-.2-.3-.2l-.1.1v.3c0 0-.1 0 .1 0 0 0 0 0-.1 0h0 .3c.1.1 0 .1 0 .2h.3c-.1.2-.5.6.2.5a.3.3 0 0 0 .1-.3c0-.2-.1-.1.1-.2V7c.2.3-.3.3.4.2v.1c.1.1-.1 0 .1 0-.3 0-.1 0-.4.1s-.2 0-.4.1c.2.1.2 0 .4 0a4.6 4.6 0 0 0 .5 0c0-.1.1-.2-.1-.2.1 0 .1 0 .1-.1s0 0 .1 0 .1 0 0 0-.1 0 0 0-.1 0-.1 0H82a1.2 1.2 0 0 1 0-.6c.4 0 .3.1.3.2-.1 0-.1 0 0 0 0 0 .1-.1 0 0h.3V7c.4 0 .3-.1.3-.2s.1-.1.1-.3a.3.3 0 0 1 0-.1.3.3 0 0 1 0-.1H83c0 .1 0 0 .1.2s.1.1.1.1c.1.1.4.1.5.2s0 0 .1.1c.4 0 .2-.1.4 0a2.8 2.8 0 0 1 .3.1V7h-.1.3 0l.6-.1c.1 0 .1 0 .2-.1a.8.8 0 0 1 .5.1c-.1.1-.2 0-.1.2h.1c0 .1 0 .1.2.2h.2c.2-.1.1 0 .2-.1l.1-.1a.8.8 0 0 0 .3.1 0 0 0 0 1 0 0 .2.2 0 0 1 .1-.1h.5c.2 0 .1 0 .1-.1h.5a.2.2 0 0 0-.3.1h.5c.4 0 .1-.1.3-.2s.4 0 .4 0a8.9 8.9 0 0 1 1 0c.5 0 .5.2 1 .2a4.1 4.1 0 0 1 .5.1c.2.1 0 .1.4.1 0 .1 0 .1-.7.2.3.1.3 0 .8 0 0 .1-.1.1-.1.2s0 0 0 0l.7-.3.1.1a.4.4 0 0 0 .2.1l.2.1h.1c-.2.2-.4.3-.6.1s.1 0-.2-.1c-.2.2.3.4.7.3s.3-.2.4-.2V8c-.2 0-.3.1-.3.2s.1.2.1.3-.3.3-.1.5 0 0 0 .2v.1a.4.4 0 0 1-.1.3c-.1.2-.1 0-.3.2 0 .1.1.1.2.2s-.1.3-.1.5v.2h-.1a1.4 1.4 0 0 1-.3-.1c-.2.2.1 0-.7.1a1.1 1.1 0 0 0-.2-.1l-.2.1c0 0 0 0-.1 0h-.4a.3.3 0 0 1-.1.2c-.3-.1-.1.1-.3-.1h-.1a.6.6 0 0 0-.4 0 1.6 1.6 0 0 1-.5 0c-.4 0-1 .1-1.8.1-.3 0-.4-.1-.6 0s-.2.2 0 .2a2.5 2.5 0 0 1 .6 0c.3 0 .2 0 .5-.1s.1.1.4.1 0 0 .1-.1h.7 0c-.2 0-.1 0 0 0a1.6 1.6 0 0 1 .7 0 5.1 5.1 0 0 1 .8 0h.1c.2-.1.2 0 .4 0s1-.1 1.4 0a.3.3 0 0 0-.1.1h-.3c0 .2.1.1.1.2h.3v.1h-.1c-.3 0 .1 0-.4 0a1.9 1.9 0 0 0-.5 0h-.4a1.4 1.4 0 0 1-.5 0c-.1-.2.4-.1.6-.1l.1-.2c-.3-.1-.3 0-.5 0s0-.1-.5 0h-1.2c-.2.2-.2 0-.6 0H88c0 .1 0 .1.2.1h.5c.2.4-.2 0 0 .5-.1 0-.1 0-.1 0s-.1 0 0 0h-.1c-.2-.1 0 0-.2 0 0 0 .1-.5-.3-.4-.1 0-.1.1-.1.1h-.4c0 .2.4.3-.2.3 0 .2-.2.1 0 .3h0c.7 0 .7-.1.7.2.7-.1-.2.2.6.2.1-.1 0-.1 0-.2-.6 0-.2-.2 0-.2h0 .8a.8.8 0 0 0-.3-.1 1.5 1.5 0 0 1 .8-.1c0 .2 0 .2-.4.2.1.2-.1.1 0 .2a.6.6 0 0 0 .5 0c.1-.1 0-.1-.1-.2h.2v.2c.5.1.7-.5.2-.5s-.1 0-.2.1h.3 0c0 .1-.5.1-.3-.2-.4 0-.4-.1-.7 0a4.4 4.4 0 0 1-.8.1h-.1.1c.5 0 .4.1 1.3 0h.4a2.5 2.5 0 0 1 .9 0c.1 0 .2 0 .3.1s-.1.1-.3.1h0-.3 0 .2-.1-.2l.1.3c.1.1 0 0 .2.1.1-.2 0-.2 0-.2s.1 0 .1 0c-.1 0 0 .1.1.1s0 .1.2.1c0 0-.1.1.1 0s.1 0 .1 0 .1 0 0-.1l.1-.1h.7c0 .2 0 .2-.1.3s0 .2.1.4v.2c.8.1.3.3.2.3s0 .1-.2.1c-.3.1-.5 0-.6.2.2 0 .7 0 .5.1-.5.1-1 0-1.5.1-.8.1-.8 0-1 .3h-1s.1-.1-.2 0-.1 0-.2.1h-.1l.4-.3H89h.4c.1 0 .1-.1.1-.2a.1.1 0 0 0 0-.1c-.1-.1 0 0-.1-.1a.6.6 0 0 0-.3.2c-.1-.1 0-.1-.2-.1s0 0-.2.1c-.6 0-.2-.3-.2-.4s0-.1-.1-.2c.2 0 .3 0 .3-.1v-.1c-.4-.1-.2 0-.3 0s-.1.2-.2.4c-.2 0-.3-.1-.4 0-.3.2.2.3 0 .5s-.1 0-.1.1 0 .1.1.1c.2 0 .2 0 .3-.1s0-.1.1-.2c.3 0 .1.2.1.4 0-.1 0-.1-.2-.1s-.1 0-.2.1h-.3v-.2c-.3 0-.2 0-.4.1H87v-.1h-.3a.8.8 0 0 1 0-.3c0-.3-.2-.2-.1-.4s-.1-.2-.4-.1c.1.1.1 0 .2.1s-.4.1-.6.2h-.2c-.2-.2 0-.2-.3-.2l-.1.4c-.4 0 .1 0-.4-.1l-.3.1a.5.5 0 0 1-.2-.1c.4-.2.4-.1.6-.2-.2-.1-.2 0-.3 0a5 5 0 0 0-.6.1h-.3c-.2 0-.2.2-.2.3a.5.5 0 0 1-.3 0c.3 0 0-.2-.1-.3-.3 0-.2 0-.5.1-.1-.1.2 0-.2-.1a.8.8 0 0 0-.3 0s.1-.1-.1 0c0-.1 0 0-.1 0s-.1.1.1 0-.1 0 .1 0c.1.2.1.1.5.1 0 .1 0 .2-.2.2a.8.8 0 0 0-.4 0c0 .1 0 .1.7.2l.2-.1a.9.9 0 0 1 .5.1c-.1.1-.1 0-.2.2h.3l.1-.1c.1-.1.2.1.2.2-.2 0-.2.1-.4.3s-.1.2 0 .3h0-.1c.1.1.1 0 .2.1-.3.2-.2.3-.7.2.1-.2.5-.2.3-.5-.5-.4.1-.2-.2-.5-.2 0-.2 0-.2.1s.1.1-.2.2l-.2-.3c-.1-.2.1-.2-.2-.3-.1.1 0 .2 0 .3s0 0-.3.1 0 0-.1 0c0-.2.1 0 .1-.2h-.1l-.2.1c-3.3-1.2-.1.3-1 .8.1.1.1.2.2.4.5 0 .6-.1.7.2-.3 0-.2-.1-.4-.1-.5.2-.1.2-.2.5.2.2-.2 0 .2.3a.8.8 0 0 0-.3.3h.2a.7.7 0 0 1-.3 0c-.1-.1.1-.1-.3-.2s-.3 0-.4.1 0 0 0 0h-.1a1.7 1.7 0 0 1-.2.3 1.1 1.1 0 0 0-1-1.2 1.4 1.4 0 0 0-1.2 1.3 1.3 1.3 0 0 0 .8 1.4l-.1.2a.9.9 0 0 0 .4.1 1.3 1.3 0 0 0 1.1-.8h.1a1.1 1.1 0 0 1 1.1-.9 1 1 0 0 1 .7 1.3h0c.3 0-.1-.3.4-.1 0 .3 4.5 2 3.7 1v-.1c-.7.3-.5-.5.5-.1.5.2.3.1.7.2s1 .2 1.4.4c.2.1.4.1.6.2s.4.1.7.2a6.7 6.7 0 0 1 1.2.5c.2.1.4.2.6.3a14.3 14.3 0 0 0 1.8.8 3.7 3.7 0 0 1 .6.3 1.1 1.1 0 0 1 .4.3c.1.1.2.2.1.3s0 0-.1.3c-.1.5-.1.1.2.6a.7.7 0 0 0-.5.2c-.1.1-.5.2-.6.3s0 .1-.2.1c-.4.2-.4 0-.8 0s.3.6-.6.7a1.1 1.1 0 0 0-.2 0h-.1a.2.2 0 0 0-.1.1c-.2.1-.1-.1-.2.1l.2.1H90c0 .2 0 .1.1.2s-.1.1-.1.2.1.3 0 .4-.2 0-.1.2 0 0 0 .2 0 .1.1.2.2 0 .2-.1l.3.1v.2c-.2.1 0 .1 0 .3s-.2.1.1.2l.2-.3c.1-.1.1-.1.1-.1.1.2 0 .3 0 .5.2.1.1.1.2.1.3.1 0 0 .4 0a.9.9 0 0 1 0 .3.5.5 0 0 0 .1.7s.2.1.3 0c.3 0 .2.1.2.3s-.1.2.2.3c-.2 0-.2.1-.3.1-.1-.2.1-.3-.1-.5s-.4-.1-.3.1 0 .3 0 .6-.1.1.1.3c.3 0 .1 0 .3-.1s0 0 0-.2 0 0 .1 0h.1v.5a2.3 2.3 0 0 1 0 .3c0 .1 0 .1.1.2l-.2.1s-.7-.4-.7 0 .1.3.3.4.4.1.3-.1a.4.4 0 0 0-.2-.1c.2 0 .3.1.3.1s0 0 0 .1l-.1.1.2.1a.3.3 0 0 1 0 .3.2.2 0 0 1 0 .2c-.1.1-.6 0-.8 0 0 .2.2.1 0 .4-.1.3-.1.4.4.5V32c0-.2 0 0-.1-.1h.2a.7.7 0 0 1 .2.2l.1.2H92a2 2 0 0 0-.5-.1h-.2v.3h-.1c-.1 0-.1 0 0 0v.4c-.1 0 0-.1-.1-.2 0 .3-.3.2-.5.1 0-.2 0-.1.1-.1s.1-.2.1-.4h-.1a.7.7 0 0 0 0-.1v-.1c0-.1-.2 0 0 0 0-.1-.1-.1 0 0 0-.1 0 0 0 0h.2c.1.1 0 0 .1.1a.1.1 0 0 1 0 .1.7.7 0 0 1 0 .2v-.1c.1-.1.1-.2-.1-.3h-.4a.5.5 0 0 0-.2-.1c0-.2.1-.1-.3-.2 0-.2 0-.1-.1-.2s-.1-.1-.1.1a.7.7 0 0 0 0 .1 1 1 0 0 0 .4.2c-.1.1-.3 0-.4.1-.1-.2-.3-.2-.5-.2s.1-.1-.3-.2c0 .1.3.1.3-.1 0 0-.4-.1-.5-.1-.3-.1-.1.1-.3.1s-.5-.2-.4 0 .2 0 .4.3H88h-.4c-.2-.1-.1-.1-.4-.1s0 0-.3 0H87c.1.1 0 0 .1.1v.4c.1 0 .6.1.5.4h-.1.2c0 .2 0 .2.8.4h.1a.1.1 0 0 1 0-.1c-.1-.4 0-.2.1-.3s0 0-.1-.2h.3c.4.1.3.2.3.2l.1.2.4.1a.8.8 0 0 1-.4 0h-.4v.1a12.2 12.2 0 0 1 1.2.2c.2.1-.3 0-.6 0 0 .2.2.1.6.2s.1 0 .2.1a.6.6 0 0 1 .2.1h.2v-.2c.3.1.2.1.2.4h-.2c-.4-.1-.1 0-.4 0a.6.6 0 0 1-.2 0h-.1l-.1.2c-.2.2-.3.1-.3.4s.1.2 0 .3h-.7l-.1-.1v-.1c0-.1 0 0-.1 0h-.1c-.2 0-.1 0-.2.1l-.1.1c-.1 0 .1 0 0-.2-.3 0-.1 0-.3.1l-.2.3.2.1.2-.1h-.2v-.1h.2c0 0-.1 0 0 0v.2c.2 0 .3 0 .3.1s-.1.1-.3.1a2.5 2.5 0 0 1-.8-.1h-.4c-1-.2-.8-.1-1.3-.1 0 0 .1 0 0 0h.1a5.9 5.9 0 0 1 .8.2c.3.1.4 0 .7 0-.1-.3.3-.2.4-.1s0 .1 0 .1H87c0 .1-.2 0 .2.1s.5-.5-.1-.5v.2h-.2c.1-.1.3-.1.1-.2s-.2-.1-.5-.1.1.1-.1.2c.4 0 .4 0 .4.2-.4 0-.6 0-.7-.2a1.1 1.1 0 0 0 .3-.1l-.8-.1v.1c-.3 0-.6-.2 0-.2-.1 0-.1 0 0 0s.1-.1 0 0c.1-.1.2-.1.1-.2-1-.1 0 .3-.7.1-.1.3-.1.1-.7.1-.1 0-.1.1-.1.2h.3c.3.3 0 .2-.3.2H84s.1.1.1.1h.3c0 .1 0 .1.1.1.3.2.4-.3.4-.3h.4c0 0-.1 0 0 0-.4.4.2.1-.2.5H85a.9.9 0 0 0-.2 0c-.2 0-.2 0-.3.1l.7.1c.4.1.5-.1.6.1.4 0 .2-.1.6 0s.4 0 .6.1c.5.1.2 0 .6 0s.1.1.5 0v-.2c-.3 0-.8.1-.6-.1a1.6 1.6 0 0 1 .5.1c.4 0 0-.1.4 0a1.9 1.9 0 0 0 .5.1c.5.1.1 0 .4 0h.1v.1H89c-.1.1-.1 0-.2.2h.3a.5.5 0 0 0 0 .1c-.5 0-1.3-.2-1.4-.2s-.2.1-.4 0l-.1-.1a6.2 6.2 0 0 1-.9-.1 2 2 0 0 1-.7 0c-.1 0-.2 0 0 0h0-.8c0-.1.1-.1-.1-.1s-.2 0-.4 0-.2-.1-.5-.1a3 3 0 0 1-.6-.1c-.3 0-.3.1-.1.2s.3 0 .6.1c.8.1 1.5.3 2 .3a2.3 2.3 0 0 1 .6 0 .6.6 0 0 0 .4 0h.1c.3-.1 0-.1.3-.1a.3.3 0 0 1 0 .2h.4l.2.2a2.3 2.3 0 0 0 .3-.1c.8.2.5 0 .7.2a1.6 1.6 0 0 1 .4 0h.1a1.3 1.3 0 0 0-.1.2c0 .2.2.3-.1.5s-.2 0-.3.2c.2.1.2 0 .2.2s.1.2 0 .3h-.2c0 .1.1.1 0 .2s0 .4 0 .5-.1.2-.2.2 0 .2.2.3v.1c-.1 0-.1-.2-.4-.3s-1 0-.8.2c.3 0 .1 0 .3-.1a.4.4 0 0 1 .6.2h-.1-.2a.6.6 0 0 0-.2 0h-.2c-.2-.1-.3-.4-.6-.3-.1 0 0 0 0 0s.1.1.1.2c-.5-.1-.4-.2-.8-.1.7.2.7.2.7.3-.4 0-.2 0-.5.1a3.9 3.9 0 0 1-.6 0c-.5 0-.4.1-1 .1a9 9 0 0 1-1.1-.1c0-.1-.3 0-.4-.1s.1-.1-.3-.2h-.5c0 .2.2.2.3.1h-.6c0-.1 0 0-.1-.1h-.5a.6.6 0 0 1 0-.1.7.7 0 0 0-.3 0l-.1-.1c-.1-.1 0 0-.1-.1H81c-.1 0-.2.1-.2.1h-.1c-.1.1 0 .1.1.2a.9.9 0 0 1-.5 0c0-.1 0 0-.1-.1l-.6-.1v-.1h-.1a.3.3 0 0 0-.2 0H79h.4l-.1.1H79c-.3 0 0 0-.4-.1-.2 0-.1.1-.2.1s-.4 0-.6.1h-.1c-.1.1-.1 0-.1.1h.1a.2.2 0 0 1 0-.1.2.2 0 0 1 .1-.1c.1-.2 0-.2 0-.3s.2-.2-.2-.2v.2h-.3s.1 0 0 0c-.1 0-.1 0 0 0-.1.2-.1.2-.4.2a1.4 1.4 0 0 1 .2-.6l.2.1c0 .1 0 0 .1 0s-.1 0 0 0h-.1c-.1 0 0 0-.1-.1.2 0 .2-.1.2-.2a3.4 3.4 0 0 0-.5 0c-.2 0-.2-.1-.5 0 .1.1.1 0 .4.1s.1 0 .3.1H77h-.2c-.7-.2-.2-.1-.5.2-.1.1-.1.1-.1.2-.1-.1-.1-.1 0-.2a.3.3 0 0 0 0-.3c-.7-.1-.4.3-.4.5h-.3c.1.1.1.1 0 .2H75v-.2a.2.2 0 0 0-.1.1v.3c.6 0 .1 0 .4-.1.2.1 0 .1 0 .3 0 0-.1-.1-.2-.1s-.1 0-.1.1h-.2l-.1.1c-.1 0-.1 0-.2.2h-.1c-.2.1-.1.1-.2.1v.2s0 .1.1.1 0 0 .1 0h.6v.1c-.1 0 0 0-.2 0s-.1 0-.1 0h-.3v.1c.3.1.5 0 .6.1a.2.2 0 0 0-.1.1c-.1.1 0 .1 0 .2v-.2a2.6 2.6 0 0 0-.5 0v.3h.4c.2.1.3.1.3 0a2.7 2.7 0 0 0 .6.1c0-.1-.1-.1-.4-.1 0-.1 0-.2.1-.3.2.2.1.2.7.3h.1c.2.1 0 0 .2 0h.3.2.3c.2.1 0 0 .1.1s0 0 .1.1h.4c-.3-.1-.2 0-.2-.1.2-.1.2 0 .5.1h.1c1 .1.4.2 1 .3l.2-.2H79l.1-.2h.3c0 .1-.1.3-.1.4h.2c.1-.1 0-.2.1-.4s0-.2.2-.4c.4 0 .3.1.1.2.1.1.2.1.1.3s-.1.2-.1.3c.6 0 .3-.1.3-.1a.4.4 0 0 1 .1-.3h.2c.1 0 .1 0 .1.1s-.1.1 0 .2c.1.3 0 .2.1.3-.1-.2.1-.2.1-.2v-.2a1.2 1.2 0 0 1 .5 0h.1a.3.3 0 0 1 0 .1 1.2 1.2 0 0 0 0 .1v.1c.3 0 .2 0 .2-.1s0-.1.1-.2h.2c.1.1.1.1.1.2h-.2c0 .2.5.3 1 0a1.2 1.2 0 0 1 .3 0 .1.1 0 0 1 0 .1l-.2.1c.2.1.3.1-.2.1h-.2c-.4 0 .1 0-.5 0-.3 0-.2 0-.2.1h.4c.3 0-.1 0 .2 0h.3c.3 0 .7.1 1 .2h-.3l-1.4-.1a1 1 0 0 0-.5 0c-.1.3.8.1.6.3-.3-.1-.1 0-.2 0h-.3l-.1.1v.1h.3c.3.1.1.1.4.1s.3 0 .4.1a1.1 1.1 0 0 1-.4 0h-.4c-.2-.1-.1-.1-.5-.1l-.1.2c.3.1.2 0 .5.1s.2 0 .5 0a1 1 0 0 1 .2.1 1.5 1.5 0 0 0-.7 0s-.1 0 0 .1a1.4 1.4 0 0 0 .6.1h.6c.1.1.1 0 .2.1-.3.1-.2 0-.6 0a1 1 0 0 1-.5-.1c-.2.1-.1.1-.4.1s-.4-.1-.4.1a3.1 3.1 0 0 0 .5.1h.2a.4.4 0 0 1 .2 0c-.1 0 0 0-.1 0h-.5a2.5 2.5 0 0 1-.5-.1 1.4 1.4 0 0 0-.7 0H80l-1-.1a.5.5 0 0 0-.6.1V42h0c0-.1.1 0 0 0s.2 0-.2 0H78c-.1-.1.2 0-.2-.1s-.1 0-.2 0h-.1c-.3 0-.1-.1-.6-.1h-.2c-.1-.2.1-.3-.3-.4-.1 0-.2 0-.2.1s0 .1-.1.2c.1 0 .1 0-.1 0v-.1c.3-.1.3-.4-.2-.3-.1.2 0 .1.1.3s0 0 0 0h-1c-.2 0 .1 0-.2 0h-.1c.7-.1.5-.1.3-.3.2-.1.2-.1.1-.2s.2-.1.1-.3H75c-.3 0-.4 0-.4-.2.3 0 .4.1.4-.1a1.2 1.2 0 0 0-.6 0l-.1.2c-.7 0 0-.1-.3-.2a6.2 6.2 0 0 1-.2.7c.4-2.4-.5-4.8 2.3-9.3.7-1 1.5-2 2.2-3.3a.5.5 0 0 0 .2.2c-.5.2 0 0-.3.2a.1.1 0 0 1 0 .1h.2c1 .2.7.2.7.3a.5.5 0 0 1-.3 0l.7.2c.4.1.1 0 .3 0s.1.1.4.1c.1-.1.1-.2-.3-.3s0 0-.1 0-.1 0-.1-.1h.2s-.1 0 .1.1h.1l.5.1c-.1-.1 0 0-.2-.1H80c0 0 .1 0-.1-.1s.1 0-.2-.1l-.3-.1c-.4-.1 0 .1-.5-.1-.1-.2 0-.2.3-.1a2.8 2.8 0 0 0 .6.2l1.3.3c.1 0 0-.1-.1-.2-.3 0-.6-.1-.5-.2M50.6 18a20.3 20.3 0 0 0 2.9 5c3.8 6 .7 8.2 3.5 11.8a4.2 4.2 0 0 0 4.4 1.7 4 4 0 0 1-1.5.6 4.1 4.1 0 0 0 3.5-1.7h1c.1-.2.1-.4.2-.6v-.1c-.5 0-.4 0-.5.2-.4-.1.1-.2-.2-.3s-.1.1-.3.1v-.3l.7.1c0-.1 0 0-.1-.1l-.5-.1a5.8 5.8 0 0 0 .3-1.4c.7-5.8-3.2-7.8-3.8-11.2-.3-1.6 1.3-4.6 1.8-6 2-5.8-.5-9-6.5-7a13.6 13.6 0 0 0-2 .9l.6-.3c-3 1.5-5.4 4.2-4 8.7zm5-14C55 5.8 56 7 57 7.2a.6.6 0 0 1-.1.1 1.5 1.5 0 0 0 1.2-.9c0-.1.1-.1.1-.2h.3a.8.8 0 0 0 .1-.2 4 4 0 0 0 .1-.4h-.3v-.1h.3v-.2a.9.9 0 0 0-.3 0c.1-1.8-1.6-3-2.6-1.7a1.4 1.4 0 0 1 .3 0 2.2 2.2 0 0 0-.3.7zM74 13a2.8 2.8 0 0 1 0 1.8 1.8 1.8 0 0 1-.6.8v.2a1.4 1.4 0 0 1-1 .3l.2-.2a1.6 1.6 0 0 1-1.3-1.2 2.5 2.5 0 0 1 .2-2.2c.8-1 2-1 2.6.6zm-5.6 2.8l.2-.2c-1 .1-2-.6-2.4-2.3a3.2 3.2 0 0 1 .6-3.4c1-.8 2.8-.5 3.5 1.8a3.6 3.6 0 0 1-.3 3h0a2 2 0 0 1-1.7 1zm11.6 1c-.2.1-.1.1-.3.1a1.6 1.6 0 0 0 .1-.2 1.6 1.6 0 0 1 .2 0z" fill-rule="evenodd"/><path d="M0 77.8l2-20h2.7l-1 8.6H9l1-8.6h2.7l-2 20H8l1-9.3H3.7l-1 9.3zm18.8.2a6.2 6.2 0 0 1-2.5-.5 3.3 3.3 0 0 1-1.5-1.3 5.4 5.4 0 0 1-.7-2A8.2 8.2 0 0 1 14 73a11.7 11.7 0 0 1 .1-1.4L15 64a8.2 8.2 0 0 1 1.8-4.7 5.5 5.5 0 0 1 4.3-1.6 6.3 6.3 0 0 1 2.5.4 3.4 3.4 0 0 1 1.6 1.3 4.9 4.9 0 0 1 .7 2 10.2 10.2 0 0 1 .1 1.3 13 13 0 0 1-.1 1.3l-.8 7.6a11.2 11.2 0 0 1-.6 2.6 6.6 6.6 0 0 1-1.1 2 4.5 4.5 0 0 1-1.8 1.3 7 7 0 0 1-2.6.4zm.3-2a3.4 3.4 0 0 0 1.4-.2 2.1 2.1 0 0 0 .9-.8 4.6 4.6 0 0 0 .5-1.1 11.2 11.2 0 0 0 .3-1.5l1-8.7a10.8 10.8 0 0 0 0-1.1V62a3.7 3.7 0 0 0-.3-1.1 1.5 1.5 0 0 0-.7-.7 3 3 0 0 0-1.4-.3 3.6 3.6 0 0 0-1.4.2 2 2 0 0 0-.9.8A4.3 4.3 0 0 0 18 62a10.4 10.4 0 0 0-.3 1.5l-1 10a6.6 6.6 0 0 0 .1.8 1.9 1.9 0 0 0 .7 1.3 2.5 2.5 0 0 0 1.7.5zm8 1.8l2-20h7.5l-.2 2h-4.8l-2 18zm9.4 0l2-20H41l-1.5 14 7.4-14h2l-2 20h-2.4L46 63.6l-7.3 14.2zm19 0l2-20H62a5.2 5.2 0 0 1 3.9 1.2 4 4 0 0 1 .9 2.9v1q-.4 3.8-3.2 4.2a3.5 3.5 0 0 1 2.4 1.7 5 5 0 0 1 .5 2.4v1a7.1 7.1 0 0 1-1.7 4.2 5.2 5.2 0 0 1-4 1.5zm3-2h2a3.2 3.2 0 0 0 2.5-.9 5.3 5.3 0 0 0 1-2.9 7.6 7.6 0 0 0 .1-.8 3.6 3.6 0 0 0-.5-2.1 2.8 2.8 0 0 0-2.5-1h-2zm1-9.6H61a3.3 3.3 0 0 0 2.4-.8 4.4 4.4 0 0 0 .9-2.6V62a4.7 4.7 0 0 0 0-.7 2.2 2.2 0 0 0-.3-.9 1.4 1.4 0 0 0-.7-.5 4.9 4.9 0 0 0-1.1-.2H60zm16.4 11.6l2-18H74v-2h10l-.2 2h-3.5l-2 18zm7.8 0l2-20h7.7l-.2 2h-5l-.7 6.7h4l-.2 2h-4l-.8 7.4h5l-.2 2zm10 0l2-20h11l-2 20h-2.7l2-18H98l-2 18zm12.6 0l.2-2a4.5 4.5 0 0 0 .6 0 3 3 0 0 0 .6-.1 1.4 1.4 0 0 0 .5-.3 4.2 4.2 0 0 0 .9-1.5c.1-.4.3-.8.4-1.3L112 58h8.7l-2 19.8H116l2-18h-4l-1.4 8.4a60 60 0 0 1-.4 2.3l-.5 2a13.5 13.5 0 0 1-.5 1.7 8.8 8.8 0 0 1-.7 1.3 4.4 4.4 0 0 1-.8 1 5.4 5.4 0 0 1-1 .7 3.9 3.9 0 0 1-1.3.4 6.9 6.9 0 0 1-.9.1zm15.7 0l2-20h7.7l-.2 2h-5l-.7 6.7h4l-.2 2h-4l-.8 7.4h5l-.2 2z"/></svg>