<svg xmlns="http://www.w3.org/2000/svg" viewBox="0 0 151.47 24.03"><defs><style>.e6b584bc-3d24-4207-b243-a79ec85e5631{fill:#315961;}.b7898583-1519-4d13-b7ec-8078358e98bb{fill:#fff;fill-rule:evenodd;}.bb27c18a-e631-49f8-af28-7fb0145a603b{fill:#eaeaea;}</style></defs><title>83</title><g id="b3d5ac3e-3d18-408e-9e6d-8d13012733e1" data-name="Слой 2"><g id="ab3d1f20-0a28-4f5a-adfb-e901dc616af0" data-name="Слой 1"><rect class="e6b584bc-3d24-4207-b243-a79ec85e5631" width="23.77" height="23.77"/><path class="b7898583-1519-4d13-b7ec-8078358e98bb" d="M23.77,16.79V19.3l-7-6.73.84-1.7Zm0-5v2.51l-5.3-5.12.84-1.7Zm0-5V9.27l-3.63-3.5L21,4.07Zm0-5V4.26l-2-1.89.84-1.7ZM16,14.27l7.81,7.54v2H23.2L15.13,16Z"/><path class="e6b584bc-3d24-4207-b243-a79ec85e5631" d="M150.75,23.77h-2.64L143,17.09h-.7v6.68H139.6V8.48h2.65V15a2.59,2.59,0,0,0,.58-.12,2,2,0,0,0,.67-.35A2.79,2.79,0,0,0,144,14a4.25,4.25,0,0,0,.45-.82l.16-.42.15-.4c.06-.18.16-.53.23-.67a7,7,0,0,1,.71-1.5,3.53,3.53,0,0,1,.92-1,3.87,3.87,0,0,1,1.2-.53,6.59,6.59,0,0,1,1.53-.16h1V10.9h-.84a3.35,3.35,0,0,0-.92.11,1.22,1.22,0,0,0-.51.26,2.31,2.31,0,0,0-.39.59,7.86,7.86,0,0,0-.41,1,7.39,7.39,0,0,1-.44,1.17,4.15,4.15,0,0,1-.52.85,5.67,5.67,0,0,1-.59.61c-.12.1-.25.21-.39.31l6.14,7.94Zm-18.1.26a7.8,7.8,0,0,1-2.76-.5,6.27,6.27,0,0,1-2.2-1.52,6.37,6.37,0,0,1-.82-1.14,7,7,0,0,1-.6-1.36,8.41,8.41,0,0,1-.38-1.59,12.63,12.63,0,0,1-.13-1.78,12.31,12.31,0,0,1,.12-1.77,8.68,8.68,0,0,1,.37-1.54,7.71,7.71,0,0,1,.6-1.34,7.14,7.14,0,0,1,.83-1.15,5.78,5.78,0,0,1,1-.91,5.71,5.71,0,0,1,1.18-.67,6.52,6.52,0,0,1,1.34-.41,7.8,7.8,0,0,1,1.47-.14c.25,0,.5,0,.74,0s.47,0,.7.09.43.08.64.12l.59.16h0l.49.17.51.21.5.24.5.26.19.1v2.9h-.65l-.4-.36-.34-.28-.42-.3c-.15-.1-.32-.21-.5-.31s-.37-.18-.55-.25-.4-.15-.6-.21a3.4,3.4,0,0,0-.65-.13,6.1,6.1,0,0,0-.77-.05,3.9,3.9,0,0,0-1.62.35,3.93,3.93,0,0,0-1.34,1,4.87,4.87,0,0,0-.5.77,6.54,6.54,0,0,0-.39,1,7.63,7.63,0,0,0-.25,1.14,10.38,10.38,0,0,0-.08,1.29,9.31,9.31,0,0,0,.09,1.34,7.1,7.1,0,0,0,.25,1.12,6.67,6.67,0,0,0,.41.93,4.32,4.32,0,0,0,.52.77,3.69,3.69,0,0,0,.61.58,3.33,3.33,0,0,0,.7.42,4.32,4.32,0,0,0,.77.25,4.49,4.49,0,0,0,.83.08,6,6,0,0,0,.76,0,4.15,4.15,0,0,0,.7-.15,5.33,5.33,0,0,0,.64-.22c.2-.08.38-.17.56-.26l.48-.3a3,3,0,0,0,.4-.3l.33-.27.26-.24.1-.1h.65v2.88l-1.11.53a7.18,7.18,0,0,1-1.08.42l-.62.19-.6.13h0l-.67.08C133.22,24,133,24,132.65,24Zm-9-5.78h-5.87V15.8H124v2.45Zm-14.52,5.17V10.9h-4.9V8.48h12.45V10.9h-4.9V23.77h-2.65Zm-15.61,0V8.48h9.83V10.9H96.16v3.3h6.7v2.42h-6.7v4.72h7.18v2.43H93.51Zm-9.25,0V10.9h-4.9V8.48H91.8V10.9H86.91V23.77H84.26Zm-7,.35H75V13.16L69,23.77H66.46V8.48h2.65V18.9L75,8.48h2.62V23.77ZM61.62,13.27a3.13,3.13,0,0,0-.06-.63,2.64,2.64,0,0,0-.17-.52,1.51,1.51,0,0,0-.27-.42,1.83,1.83,0,0,0-.39-.34,2.22,2.22,0,0,0-.43-.23,3.8,3.8,0,0,0-.51-.15,5.1,5.1,0,0,0-.65-.09c-.24,0-.5,0-.8,0H57.1v5.08h1a10.2,10.2,0,0,0,1,0,4.78,4.78,0,0,0,.78-.14,2.68,2.68,0,0,0,.58-.22,2.28,2.28,0,0,0,.46-.36,2.41,2.41,0,0,0,.33-.4,1.9,1.9,0,0,0,.21-.43,2.34,2.34,0,0,0,.13-.49A3.42,3.42,0,0,0,61.62,13.27Zm2.72,0a5.52,5.52,0,0,1-.09,1,5,5,0,0,1-.27.93,4.51,4.51,0,0,1-.43.85,4.46,4.46,0,0,1-.58.72h0a5.41,5.41,0,0,1-.88.7,5,5,0,0,1-1,.5,7.73,7.73,0,0,1-2.69.41H57.1v5.44H54.45V8.48h4a12.15,12.15,0,0,1,1.23,0,7.21,7.21,0,0,1,1.05.17,5.39,5.39,0,0,1,.91.3,5.27,5.27,0,0,1,.81.45h0a4.71,4.71,0,0,1,.79.69,3.91,3.91,0,0,1,.59.85,3.78,3.78,0,0,1,.38,1A5.68,5.68,0,0,1,64.34,13.23Zm-16.26,4.1L46.31,12l-1.76,5.38Zm-8.17,6,5-14.83h2.9L53,23.77h-2.8l-1.31-4.06H43.78l-1.32,4.06H39.75Zm-2,.46h-2.3V10.9h-6V23.77H27V8.48H38.26V23.77Z"/><path class="bb27c18a-e631-49f8-af28-7fb0145a603b" d="M148.47,3.32V1.42h-.7a2.84,2.84,0,0,0-.47,0,.83.83,0,0,0-.32.14.7.7,0,0,0-.24.29,1,1,0,0,0-.09.42,1.44,1.44,0,0,0,.06.45.87.87,0,0,0,.2.31.78.78,0,0,0,.38.2,2,2,0,0,0,.51,0Zm.68,2.58h-.68v-2h-.76l-1.51,2h-.81L147,3.79a1.64,1.64,0,0,1-.79-.54,1.51,1.51,0,0,1-.28-1,1.3,1.3,0,0,1,.16-.67,1.45,1.45,0,0,1,.42-.47,1.46,1.46,0,0,1,.57-.23,3.11,3.11,0,0,1,.71-.07h1.34Zm-7,0h-.67v-4l-2.28,4h-.68V.84h.67v4L141.48.84h.71Zm-7.36,0h-.68V3.42h-2.32V5.9h-.67V.84h.67v2h2.32v-2h.68Zm-8.21-2-.78-2.38-.78,2.38Zm-2.89,2L125.44.84h.83L128,5.9h-.71l-.46-1.41h-1.94l-.46,1.41Zm-3.18,0h-.68V1.44h-2.32V5.9h-.67V.84h3.67Zm-7.4,0h-.67V1.54l-1.32,3h-.41l-1.31-3V5.9h-.63V.84h.92L111,3.66,112.21.84h.94Zm-8.48-2.53a3.46,3.46,0,0,0-.1-.89,2,2,0,0,0-.31-.64,1.33,1.33,0,0,0-.49-.39,1.62,1.62,0,0,0-1.27,0,1.21,1.21,0,0,0-.49.39,1.87,1.87,0,0,0-.31.65,3.38,3.38,0,0,0-.1.88A2.46,2.46,0,0,0,102,4.89a1.38,1.38,0,0,0,1.13.53,1.36,1.36,0,0,0,1.12-.53A2.46,2.46,0,0,0,104.67,3.37Zm.1-1.95a2.44,2.44,0,0,1,.45.83,3.78,3.78,0,0,1,.16,1.12,3.5,3.5,0,0,1-.16,1.11,2.26,2.26,0,0,1-.45.84,2.08,2.08,0,0,1-.73.52,2.42,2.42,0,0,1-.91.17,2.25,2.25,0,0,1-.92-.18,1.9,1.9,0,0,1-.71-.51,2.29,2.29,0,0,1-.45-.83,3.52,3.52,0,0,1-.16-1.12,3.44,3.44,0,0,1,.16-1.12,2.64,2.64,0,0,1,.45-.83,1.79,1.79,0,0,1,.71-.51,2.25,2.25,0,0,1,.92-.18,2.35,2.35,0,0,1,.94.18A2,2,0,0,1,104.77,1.42ZM98,5.9h-.86L95.39,3.58H95V5.9h-.67V.84H95V3.12a1,1,0,0,0,.64-.2A1.23,1.23,0,0,0,96,2.38a2.12,2.12,0,0,0,.11-.29c0-.09.06-.17.09-.23a1.45,1.45,0,0,1,.52-.8,1.47,1.47,0,0,1,.87-.22h.21v.6H97.6A.82.82,0,0,0,97,1.6a1.61,1.61,0,0,0-.31.61,1.85,1.85,0,0,1-.31.66,1.69,1.69,0,0,1-.42.37ZM84.93,3.32V1.42h-.7a2.84,2.84,0,0,0-.47,0,.83.83,0,0,0-.32.14.63.63,0,0,0-.24.29,1,1,0,0,0-.09.42,1.44,1.44,0,0,0,.06.45.79.79,0,0,0,.2.31.74.74,0,0,0,.38.2,1.91,1.91,0,0,0,.51,0Zm.68,2.58h-.68v-2h-.76l-1.51,2h-.81l1.62-2.11a1.69,1.69,0,0,1-.79-.54,1.57,1.57,0,0,1-.28-1,1.41,1.41,0,0,1,.16-.67,1.42,1.42,0,0,1,1-.7,3.26,3.26,0,0,1,.72-.07h1.34Zm-7.77-2-.78-2.38-.77,2.38ZM75,5.9,76.67.84h.83L79.21,5.9h-.72L78,4.49H76.1L75.64,5.9ZM71.43,4.37a1.07,1.07,0,0,0-.08-.47A.63.63,0,0,0,71,3.59a1,1,0,0,0-.35-.11,3.8,3.8,0,0,0-.53,0h-.76V5.32h.54a5.88,5.88,0,0,0,.7,0,1.12,1.12,0,0,0,.45-.18.7.7,0,0,0,.27-.3A.89.89,0,0,0,71.43,4.37ZM71.2,2.08a.59.59,0,0,0-.07-.31.5.5,0,0,0-.19-.22,1.07,1.07,0,0,0-.37-.11l-.55,0h-.64V2.89h.76a2.67,2.67,0,0,0,.47,0,.78.78,0,0,0,.3-.13.5.5,0,0,0,.22-.26A.88.88,0,0,0,71.2,2.08Zm.94,2.27A1.4,1.4,0,0,1,72,5a1.21,1.21,0,0,1-.38.48,1.79,1.79,0,0,1-.61.32,3.3,3.3,0,0,1-.85.09H68.7V.84h1.35a8,8,0,0,1,.81,0,1.67,1.67,0,0,1,.52.17,1,1,0,0,1,.39.38A1.13,1.13,0,0,1,71.9,2a1.1,1.1,0,0,1-.19.64,1.25,1.25,0,0,1-.52.44v0a1.3,1.3,0,0,1,.7.44A1.35,1.35,0,0,1,72.14,4.35Zm-7.57-1a3.44,3.44,0,0,0-.11-.89,2,2,0,0,0-.31-.64,1.38,1.38,0,0,0-.48-.39A1.5,1.5,0,0,0,63,1.32a1.41,1.41,0,0,0-.64.13,1.21,1.21,0,0,0-.49.39,2.07,2.07,0,0,0-.31.65,3.38,3.38,0,0,0-.1.88,2.46,2.46,0,0,0,.41,1.52A1.38,1.38,0,0,0,63,5.42a1.36,1.36,0,0,0,1.12-.53A2.39,2.39,0,0,0,64.57,3.37Zm.09-1.95a2.44,2.44,0,0,1,.45.83,3.48,3.48,0,0,1,.16,1.12,3.5,3.5,0,0,1-.16,1.11,2.26,2.26,0,0,1-.45.84,2.08,2.08,0,0,1-.73.52A2.38,2.38,0,0,1,63,6a2.25,2.25,0,0,1-.92-.18,1.79,1.79,0,0,1-.71-.51,2.29,2.29,0,0,1-.45-.83,3.83,3.83,0,0,1-.16-1.12,3.73,3.73,0,0,1,.16-1.12,2.64,2.64,0,0,1,.45-.83A1.9,1.9,0,0,1,62.1.91,2.29,2.29,0,0,1,63,.73,2.35,2.35,0,0,1,64,.91,2,2,0,0,1,64.66,1.42ZM57.84,5.9h-.77l-1.24-2-1.26,2h-.72l1.61-2.53L53.89.84h.78l1.2,2,1.24-2h.73L56.25,3.33Zm-8-2L49,1.53l-.78,2.38Zm-2.89,2L48.62.84h.83L51.16,5.9h-.72L50,4.49H48.05L47.59,5.9ZM43.4,2.38a1.25,1.25,0,0,0-.08-.45A.84.84,0,0,0,43,1.62a.88.88,0,0,0-.37-.15,2.47,2.47,0,0,0-.52-.05h-.56v2h.46a2.42,2.42,0,0,0,.66-.07.88.88,0,0,0,.41-.23,1,1,0,0,0,.22-.33A1.33,1.33,0,0,0,43.4,2.38Zm.71,0A1.68,1.68,0,0,1,44,3a1.43,1.43,0,0,1-.32.5,1.81,1.81,0,0,1-.62.39,2.5,2.5,0,0,1-.89.13h-.57V5.9h-.67V.84h1.27A3.33,3.33,0,0,1,43,.91a1.67,1.67,0,0,1,.56.24,1.52,1.52,0,0,1,.44.5A1.52,1.52,0,0,1,44.11,2.36ZM35.34,5.9V1.44h-1.7V.84h4.07v.6H36V5.9ZM29.25,6a2.47,2.47,0,0,1-.92-.16,2,2,0,0,1-.72-.5,2.35,2.35,0,0,1-.47-.82A3.61,3.61,0,0,1,27,3.37a3.31,3.31,0,0,1,.16-1.1,2.42,2.42,0,0,1,.47-.83,1.93,1.93,0,0,1,.72-.51,2.27,2.27,0,0,1,.93-.18,3.38,3.38,0,0,1,.47,0l.42.1a2.26,2.26,0,0,1,.33.13,2.16,2.16,0,0,1,.34.17V2h-.05l-.23-.2a2.51,2.51,0,0,0-.34-.22,1.94,1.94,0,0,0-.42-.17,1.7,1.7,0,0,0-.53-.07,1.59,1.59,0,0,0-.61.13,1.58,1.58,0,0,0-.51.39,2,2,0,0,0-.33.65,3,3,0,0,0-.12.88,2.65,2.65,0,0,0,.13.89,1.73,1.73,0,0,0,.34.63,1.31,1.31,0,0,0,.5.38,1.38,1.38,0,0,0,.6.13,2.21,2.21,0,0,0,.54-.07,2.24,2.24,0,0,0,.44-.18,3.15,3.15,0,0,0,.33-.22,2.2,2.2,0,0,0,.21-.19h.05v.81l-.31.15-.36.14-.41.1A2.25,2.25,0,0,1,29.25,6Z"/></g></g></svg>