<svg xmlns="http://www.w3.org/2000/svg" viewBox="0 0 91.98 102.09"><defs><style>.a662acc3-af18-4218-9df8-6e32420b5c6f,.b6210bfb-f050-4289-93d2-98d6e58837c2{fill:#8e8e8e;}.b6210bfb-f050-4289-93d2-98d6e58837c2{fill-rule:evenodd;}</style></defs><title>84</title><g id="aece9f1d-daff-4d40-b73d-c8bd2212438e" data-name="Слой 2"><g id="b467cf4a-1965-461e-bad3-1f646f15964b" data-name="Слой 1"><path class="b6210bfb-f050-4289-93d2-98d6e58837c2" d="M72.59,49.77h0c13-7,11-18.28,15.47-18.84,1.37-.47,2.47-.61,3.36-1.48a27,27,0,0,0-3.59-.83c-1.71-2.39-6.17-3.85-9,.94-2.43,3,2,13.23-6.24,20.21M0,86.31H0C22.23,79.18,33.19,72.92,48.08,65c7.38-7.69,9.79-13.61,9.06-21.54C52.85,59.27,25.81,74.87,0,86.31Zm50.41-22C72.6,41.21,62,28.86,35.15,0,79.26,32.15,91.82,40.51,50.41,64.35Z"/><polygon class="a662acc3-af18-4218-9df8-6e32420b5c6f" points="0.14 93.28 5.45 93.28 5.45 94.89 2.11 94.89 2.11 96.88 5.23 96.88 5.23 98.47 2.11 98.47 2.11 101.97 0.14 101.97 0.14 93.28"/><path class="a662acc3-af18-4218-9df8-6e32420b5c6f" d="M9.26,97.13H10c1,0,1.55-.49,1.55-1.25s-.54-1.19-1.44-1.21a4.33,4.33,0,0,0-.89.07ZM7.32,93.4a16.35,16.35,0,0,1,2.61-.18,4.43,4.43,0,0,1,2.81.68,2.19,2.19,0,0,1,.8,1.82A2.33,2.33,0,0,1,12,97.86v0a2.23,2.23,0,0,1,1.16,1.63c.27,1,.54,2.11.7,2.45h-2a11.68,11.68,0,0,1-.6-2c-.23-1.08-.61-1.38-1.41-1.39H9.26V102H7.32Z"/><polygon class="a662acc3-af18-4218-9df8-6e32420b5c6f" points="20.51 98.29 17.32 98.29 17.32 100.36 20.89 100.36 20.89 101.97 15.35 101.97 15.35 93.28 20.71 93.28 20.71 94.89 17.32 94.89 17.32 96.7 20.51 96.7 20.51 98.29"/><path class="a662acc3-af18-4218-9df8-6e32420b5c6f" d="M22.68,99.94a5,5,0,0,0,2.18.54c.9,0,1.38-.37,1.38-.94s-.41-.85-1.46-1.22c-1.44-.5-2.38-1.3-2.38-2.56,0-1.49,1.24-2.62,3.28-2.62a5.38,5.38,0,0,1,2.22.44l-.44,1.58a4.22,4.22,0,0,0-1.81-.41c-.85,0-1.27.39-1.27.84s.49.8,1.61,1.22c1.54.57,2.26,1.37,2.26,2.59,0,1.46-1.12,2.69-3.51,2.69a5.71,5.71,0,0,1-2.46-.52Z"/><polygon class="a662acc3-af18-4218-9df8-6e32420b5c6f" points="31.94 93.28 31.94 96.62 35.17 96.62 35.17 93.28 37.13 93.28 37.13 101.97 35.17 101.97 35.17 98.33 31.94 98.33 31.94 101.97 29.97 101.97 29.97 93.28 31.94 93.28"/><path class="a662acc3-af18-4218-9df8-6e32420b5c6f" d="M48.6,101.72a5.61,5.61,0,0,1-2.23.37c-3,0-4.54-1.86-4.54-4.34a4.42,4.42,0,0,1,4.74-4.61,5.12,5.12,0,0,1,2.14.39l-.4,1.56a4.21,4.21,0,0,0-1.65-.33,2.86,2.86,0,0,0,0,5.71,5.09,5.09,0,0,0,1.64-.28Z"/><path class="a662acc3-af18-4218-9df8-6e32420b5c6f" d="M54.64,98.27h0l-.54-1.84c-.16-.52-.31-1.16-.44-1.68h0c-.13.52-.26,1.17-.4,1.68l-.51,1.84Zm-2.21,1.47L51.82,102h-2l2.65-8.69H55L57.7,102H55.59l-.67-2.23Z"/><path class="a662acc3-af18-4218-9df8-6e32420b5c6f" d="M61.2,97.34h0a2.94,2.94,0,0,0,.66,0c1,0,1.68-.53,1.68-1.42S63,94.7,62,94.7a3.21,3.21,0,0,0-.81.08Zm-2-3.94a15.45,15.45,0,0,1,2.66-.18,4.18,4.18,0,0,1,2.65.69,2.53,2.53,0,0,1,.93,2,2.76,2.76,0,0,1-.8,2.06,4,4,0,0,1-2.82.92,4.3,4.3,0,0,1-.67,0V102h-2Z"/><rect class="a662acc3-af18-4218-9df8-6e32420b5c6f" x="67.13" y="93.28" width="1.97" height="8.68"/><polygon class="a662acc3-af18-4218-9df8-6e32420b5c6f" points="72.87 94.93 70.53 94.93 70.53 93.28 77.21 93.28 77.21 94.93 74.84 94.93 74.84 101.97 72.87 101.97 72.87 94.93"/><path class="a662acc3-af18-4218-9df8-6e32420b5c6f" d="M81.94,98.27h0l-.54-1.84c-.15-.52-.31-1.16-.44-1.68h0c-.13.52-.26,1.17-.4,1.68L80,98.27Zm-2.2,1.47L79.12,102h-2l2.66-8.69h2.58L85,102H82.89l-.67-2.23Z"/><polygon class="a662acc3-af18-4218-9df8-6e32420b5c6f" points="86.56 93.28 88.53 93.28 88.53 100.32 91.98 100.32 91.98 101.97 86.56 101.97 86.56 93.28"/></g></g></svg>