<svg xmlns="http://www.w3.org/2000/svg" viewBox="0 0 138.28 64.54"><defs><style>.a7a85d17-0025-4804-9247-3c944551ec6e{fill:#561d00;}</style></defs><title>85</title><g id="b2e35ff5-2332-4dfc-af47-ecd6499aced9" data-name="Слой 2"><g id="e4cbea0b-c454-45ff-a88b-bef14c03fb02" data-name="Слой 1"><path class="a7a85d17-0025-4804-9247-3c944551ec6e" d="M14.44,47.3c.26-.48.43-.83.63-1.16a5.41,5.41,0,0,1,2.82-2.58,29.3,29.3,0,0,0,9.54-6.18c2.89-2.74,5.77-5.51,8.44-8.46S40.63,23,43,20.11c1.75-2.14,3.54-4.24,5.34-6.33a12.48,12.48,0,0,1,1.37-1.23l1.27,1c-1.56,1.57-1.72,3.5-1.72,5.55a54,54,0,0,0,2.65,15.65c.78,2.64,1.89,5.19,2.87,7.78a2.8,2.8,0,0,0,.35.63,2.39,2.39,0,0,0,.42.39L57.21,42l1.21,1.1L53.27,49A97.78,97.78,0,0,1,47,31.48c-.38,1.33-.78,2.65-1.12,4-.39,1.5-.37,1.5-2,1.31.08-.67.15-1.34.24-2,.11-.87-.23-1.37-1.12-1.36-2.87,0-5.74.1-8.6.19a1.49,1.49,0,0,0-.83.45c-1,.91-1.89,1.83-2.79,2.78A44.38,44.38,0,0,1,23,43.23l-.78.55c.34,0,.56.07.78.08,2.68.06,5.37,0,8,.21,2.08.12,4.14.51,6.22.66,2.4.18,4.8,0,6.67-1.69a8.52,8.52,0,0,0,2.51-5.11c0-.12,0-.24,0-.36a.72.72,0,0,1,.11-.15c1.25,0,1.84,1.4,1.61,2.4a8,8,0,0,1-2.29,3.73c-2,2.08-4.26,3.86-7.17,4.34a31.93,31.93,0,0,1-5.79.19c-1.54,0-3.08-.26-4.62-.4-1.93-.17-3.86-.37-5.79-.5-.72,0-1.45.11-2.18.12C18.4,47.32,16.48,47.3,14.44,47.3ZM46.85,30.18a32.71,32.71,0,0,1-.67-10.95L37,30.18Z"/><path class="a7a85d17-0025-4804-9247-3c944551ec6e" d="M97.48,28.18,99,30.6c1.43-.74,2.94-1.53,4.47-2.31,1.09-.56,1.33-.46,1.22.73s-.41,2.35-.67,3.72c.53-.53.93-1,1.4-1.38,1.26-1,2.51-2.1,3.83-3.05a2.57,2.57,0,0,1,2.67-.37c.43.19.61.41.4.91-.34.8-.6,1.64-.91,2.51-2.21-.88-3.89.09-5.38,1.55a24.94,24.94,0,0,0-6.09,10.87c-.32,1.07-.66,2.13-1,3.18a1,1,0,0,1-.55.55c-1.06.34-2.14.61-3.49,1l5.55-16.2-.18-.24-1.81.77c-.56-.7-.32-2.32-2.07-1.71-2,4.42-4.36,8.79-5.25,13.71l.2.22L94,43.87l.8,1.06a18.54,18.54,0,0,1-8,3.47A35.31,35.31,0,0,1,89.38,40c-1.28,1.36-2.34,2.67-3.6,3.76-2,1.76-4,3.66-6.7,4.36s-3.52-.77-3.29-3A14.06,14.06,0,0,1,79,37.86,25.56,25.56,0,0,1,91.25,29a3.37,3.37,0,0,1,.69-.19,3.36,3.36,0,0,0,3.15-2.66c.46-1.43,1.15-2.79,1.63-4.22a16,16,0,0,0,.43-2.51l-2.31.3-.61-1.29L102.07,15A34.86,34.86,0,0,1,101,19.55c-1,2.66-2.15,5.25-3.23,7.87C97.64,27.72,97.54,28,97.48,28.18ZM90.12,32l.29-.05.89,3.15L93,30.82a15,15,0,0,0-5.81,1.8,16.72,16.72,0,0,0-6.71,6.73,8.53,8.53,0,0,0-1.14,4.79c.06.85.48,1.19,1.31,1a4.52,4.52,0,0,0,1.18-.38,11,11,0,0,0,3.82-3.57A27.14,27.14,0,0,0,90.12,32Z"/><path class="a7a85d17-0025-4804-9247-3c944551ec6e" d="M55.67,0a119.07,119.07,0,0,0-16.2,4.45C35.8,5.8,32.19,7.35,28.6,8.9a58.64,58.64,0,0,0-11.79,6.93A33.41,33.41,0,0,0,6.63,27.18,19.91,19.91,0,0,0,4.56,38.36a21.91,21.91,0,0,0,2.11,7.18l.48,1-.24.18c-1-1.28-2.22-2.48-3.13-3.85A22.34,22.34,0,0,1,.29,34.74a16.88,16.88,0,0,1,1.13-9.83,23.92,23.92,0,0,1,6.73-9A46.18,46.18,0,0,1,19.45,8.7c3-1.34,6.09-2.5,9.18-3.61A84.8,84.8,0,0,1,43.18,1.56C46.64,1,50.13.67,53.61.24Z"/><path class="a7a85d17-0025-4804-9247-3c944551ec6e" d="M74.44,31.05a9.24,9.24,0,0,0-4,2.54,38.13,38.13,0,0,0-8.43,11.66,15.21,15.21,0,0,1-.72,1.46,1.2,1.2,0,0,1-.54.55c-1.27.46-2.55.88-3.87,1.33,2.61-5.65,5.7-11.12,7.07-17.53-.73.14-1.16.22-1.58.32-1.09.25-1.18.19-1.16-1a1.87,1.87,0,0,1,0-.3l6.81-2.49a2.74,2.74,0,0,1,0,2.48c-.44,1.41-1,2.79-1.44,4.18l-.3.82.28.24a12,12,0,0,1,.82-1.06A31,31,0,0,1,73.66,29a6.45,6.45,0,0,1,3.59-1.09c1,.05,1.36.45,1.4,1.41.08,2-.93,3.63-1.84,5.31-1.56,2.89-3,5.82-4.52,8.76a2.88,2.88,0,0,0-.21,1.53l2.25-1,.1.15c.75,1.44.78,1-.51,1.9a17,17,0,0,1-6.64,2.44C68.5,42.19,71.83,36.9,74.44,31.05Z"/><path class="a7a85d17-0025-4804-9247-3c944551ec6e" d="M131.89,21.49a20.38,20.38,0,0,1,4.74,6.87,19.17,19.17,0,0,1,1.62,8.92,17.54,17.54,0,0,1-3.12,8.49,30.22,30.22,0,0,1-7.64,7.74,56.78,56.78,0,0,1-15,7.93c-3.26,1.14-6.6,2.07-9.9,3.09a3.27,3.27,0,0,1-.56,0c1.67-.6,3.18-1.09,4.65-1.68a72.42,72.42,0,0,0,11.37-5.8,51.75,51.75,0,0,0,10.63-8.65c3.3-3.55,5.82-7.59,6.64-12.45a19.39,19.39,0,0,0-2.65-13.16Z"/><path class="a7a85d17-0025-4804-9247-3c944551ec6e" d="M112.54,35.9A14.5,14.5,0,0,0,110,43.57c0,1.82.82,2.45,2.59,2A7.74,7.74,0,0,0,117,42c1.12-1.74,2.12-3.55,3.15-5.29,1.13,1.49.73,3.07-.2,4.6a15.27,15.27,0,0,1-4.44,4.51A19,19,0,0,1,111,48.28c-2.85,1-4.38-.75-4.57-2.59a10.48,10.48,0,0,1,.4-3.85,21.36,21.36,0,0,1,3.27-6.92,17.8,17.8,0,0,1,10.77-7.15,4,4,0,0,1,1.47,0c1.29.18,1.85,1.21,1.52,2.57a7,7,0,0,1-3.08,3.9,13,13,0,0,1-5.54,2.55A2.64,2.64,0,0,1,112.54,35.9Zm.64-1.37.25.52a35,35,0,0,0,3.83-.73,4.22,4.22,0,0,0,2.93-2.61c.33-.9.08-1.24-.84-1.29a3.53,3.53,0,0,0-2.63.78C115.51,32.27,114.36,33.42,113.18,34.53Z"/></g></g></svg>