<svg xmlns="http://www.w3.org/2000/svg" xmlns:xlink="http://www.w3.org/1999/xlink" viewBox="0 0 149.98 34.99"><defs><style>.f90c346d-001d-4e1c-b206-5c36741e21e8{fill:none;}.ec6c0f82-028f-4201-a379-6da8aa47a3ed{fill:#ccc;}.b6fd59c4-8150-4fc6-9387-484bb38fdecb{fill:#e49947;}.ff60da48-feb5-4e41-9e0e-1cbcffdff54d{clip-path:url(#ab5c41c2-0d7d-41ad-b33e-366c90e277aa);}.b6cf08bf-d1a7-4603-912f-1e7e93d0110c{fill:#d98f49;}.e115e3ab-962f-4eaa-a98b-3b2125a33faa{fill:#ebcc95;}.ec6a0768-3794-468b-ad82-2c46bde78c33{fill:#fff;}</style><clipPath id="ab5c41c2-0d7d-41ad-b33e-366c90e277aa"><rect class="f90c346d-001d-4e1c-b206-5c36741e21e8" x="0.62" y="0.36" width="34.38" height="34.38"/></clipPath></defs><title>88</title><g id="b647c9e9-9f68-46f7-bef8-8495931919ca" data-name="Слой 2"><g id="b6aa01f6-e9a0-4a98-bae8-b04d19348c60" data-name="Слой 1"><path class="ec6c0f82-028f-4201-a379-6da8aa47a3ed" d="M53.19,19.78l3.19,1a7.12,7.12,0,0,1-2.44,4A6.93,6.93,0,0,1,49.62,26a7,7,0,0,1-5.33-2.21,8.49,8.49,0,0,1-2.08-6.06,8.9,8.9,0,0,1,2.09-6.31,7.23,7.23,0,0,1,5.52-2.24A6.79,6.79,0,0,1,54.67,11a6.46,6.46,0,0,1,1.66,3l-3.25.78A3.35,3.35,0,0,0,49.65,12a3.71,3.71,0,0,0-2.93,1.29,6.39,6.39,0,0,0-1.13,4.21c0,2.06.37,3.52,1.11,4.4a3.61,3.61,0,0,0,2.89,1.3,3.26,3.26,0,0,0,2.25-.83A4.79,4.79,0,0,0,53.19,19.78Z"/><path class="ec6c0f82-028f-4201-a379-6da8aa47a3ed" d="M59.1,14h3v7.4l4.8-7.4H70V25.77H67V18.23l-4.87,7.54h-3Z"/><path class="ec6c0f82-028f-4201-a379-6da8aa47a3ed" d="M73,14h3.12V18.3h4.46V14h3.13V25.77H80.61v-5H76.15v5H73Z"/><path class="ec6c0f82-028f-4201-a379-6da8aa47a3ed" d="M89.21,17.57l-2.83-.51A4.4,4.4,0,0,1,88,14.53a6.07,6.07,0,0,1,3.46-.82,7.45,7.45,0,0,1,3.11.5A3.1,3.1,0,0,1,96,15.46a6.39,6.39,0,0,1,.42,2.79l0,3.64a12.55,12.55,0,0,0,.15,2.29,6.91,6.91,0,0,0,.56,1.59H94q-.12-.32-.3-.93c0-.18-.09-.3-.11-.36a5.76,5.76,0,0,1-1.71,1.16A4.92,4.92,0,0,1,90,26a4,4,0,0,1-2.86-1,3.26,3.26,0,0,1-1-2.49,3.4,3.4,0,0,1,.47-1.78,3.06,3.06,0,0,1,1.34-1.2,10.4,10.4,0,0,1,2.48-.73,16.2,16.2,0,0,0,3-.77v-.31a1.64,1.64,0,0,0-.44-1.28,2.72,2.72,0,0,0-1.68-.38,1.87,1.87,0,0,0-2.05,1.47Zm4.17,2.53a16.25,16.25,0,0,1-1.9.48,5.66,5.66,0,0,0-1.69.55,1.27,1.27,0,0,0-.61,1.09,1.56,1.56,0,0,0,.48,1.14,1.7,1.7,0,0,0,1.25.47,2.7,2.7,0,0,0,1.61-.55,2,2,0,0,0,.74-1,6.32,6.32,0,0,0,.12-1.52Z"/><path class="ec6c0f82-028f-4201-a379-6da8aa47a3ed" d="M99.4,14h10.46V25.77h-3.12V16.5h-4.22v9.27H99.4Z"/><path class="ec6c0f82-028f-4201-a379-6da8aa47a3ed" d="M123.53,17.46l-3.08.56a2.23,2.23,0,0,0-.7-1.39,2.14,2.14,0,0,0-1.43-.47,2.32,2.32,0,0,0-1.86.81,4.14,4.14,0,0,0-.69,2.69,4.74,4.74,0,0,0,.7,3,2.31,2.31,0,0,0,1.9.87,2.13,2.13,0,0,0,1.45-.5,3.08,3.08,0,0,0,.8-1.74l3.06.52A5.46,5.46,0,0,1,121.85,25,5.7,5.7,0,0,1,118.22,26a5.38,5.38,0,0,1-4.12-1.63,6.3,6.3,0,0,1-1.54-4.52,6.32,6.32,0,0,1,1.54-4.54,5.47,5.47,0,0,1,4.18-1.63,5.68,5.68,0,0,1,3.42.93A5.14,5.14,0,0,1,123.53,17.46Z"/><path class="b6fd59c4-8150-4fc6-9387-484bb38fdecb" d="M127.27,18.36V9.09h1.84l2.2,6.57c.2.61.35,1.07.44,1.37l.49-1.49,2.22-6.45h1.66v9.27h-1.19V10.6l-2.69,7.76h-1.11l-2.68-7.89v7.89Z"/><path class="b6fd59c4-8150-4fc6-9387-484bb38fdecb" d="M142.48,15.9l1.12.15a2.89,2.89,0,0,1-.94,1.81,2.71,2.71,0,0,1-1.86.66,2.86,2.86,0,0,1-2.21-.9,3.69,3.69,0,0,1-.84-2.59,4.67,4.67,0,0,1,.36-1.9,2.46,2.46,0,0,1,1.1-1.23,3.26,3.26,0,0,1,1.6-.41,2.78,2.78,0,0,1,1.79.56,2.55,2.55,0,0,1,.89,1.57l-1.11.17a1.81,1.81,0,0,0-.56-1,1.47,1.47,0,0,0-1-.34,1.75,1.75,0,0,0-1.39.62,2.91,2.91,0,0,0-.54,1.95,3,3,0,0,0,.52,2,1.66,1.66,0,0,0,1.35.61,1.61,1.61,0,0,0,1.12-.41A2,2,0,0,0,142.48,15.9Z"/><path class="b6fd59c4-8150-4fc6-9387-484bb38fdecb" d="M145.06,11.65h1.13v2.9a1.11,1.11,0,0,0,.77-.21,4.63,4.63,0,0,0,.64-1.21,4.73,4.73,0,0,1,.54-1.05,1,1,0,0,1,.48-.34,3.14,3.14,0,0,1,.88-.09h.23v.94h-.32a.85.85,0,0,0-.58.14,3.3,3.3,0,0,0-.4.82,3.55,3.55,0,0,1-.48.92,2,2,0,0,1-.66.46,2.71,2.71,0,0,1,1.44,1.36L150,18.36h-1.25l-1.22-2.08a3,3,0,0,0-.65-.82,1.15,1.15,0,0,0-.67-.2v3.1h-1.13Z"/><g class="ff60da48-feb5-4e41-9e0e-1cbcffdff54d"><path class="b6cf08bf-d1a7-4603-912f-1e7e93d0110c" d="M17.72,17.49a17.17,17.17,0,0,0,2.36,8.71,16.52,16.52,0,0,0,6.45,6.34A18.62,18.62,0,0,0,35,34.78V.43a17.47,17.47,0,0,0-12.15,5A16.25,16.25,0,0,0,17.72,17.49Z"/><path class="e115e3ab-962f-4eaa-a98b-3b2125a33faa" d="M12.19,17.89a22.21,22.21,0,0,1,3.1-11.42A21.7,21.7,0,0,1,21.05,0H0V35H20.6c-.61-.49-1.21-1-1.79-1.56A20.8,20.8,0,0,1,12.19,17.89Z"/><path class="ec6a0768-3794-468b-ad82-2c46bde78c33" d="M35,34.78a18.62,18.62,0,0,1-8.46-2.24,16.52,16.52,0,0,1-6.45-6.34,17.17,17.17,0,0,1-2.36-8.71,16.25,16.25,0,0,1,5.12-12.1A17.47,17.47,0,0,1,35,.43V0H21.05a21.7,21.7,0,0,0-5.76,6.47,22.21,22.21,0,0,0-3.1,11.42,20.8,20.8,0,0,0,6.62,15.54C19.39,34,20,34.5,20.6,35H35Z"/></g></g></g></svg>