<svg xmlns="http://www.w3.org/2000/svg" viewBox="0 0 125.97 56.4"><defs><style>.e1c2c589-3e47-4c10-aa01-feb9218b378b,.ef0c9dd4-ef9a-4dc6-8003-c057a4941479{fill:#fff;}.e1c2c589-3e47-4c10-aa01-feb9218b378b{stroke:#fff;stroke-miterlimit:28.65;stroke-width:0.28px;}.b9bc7807-4ffa-4d52-8398-a3cbda0c4ca8,.e1c2c589-3e47-4c10-aa01-feb9218b378b,.e2854b96-ff9f-4ec4-8012-d08fcfee88d4{fill-rule:evenodd;}.b9bc7807-4ffa-4d52-8398-a3cbda0c4ca8{fill:#516ab0;}.e2854b96-ff9f-4ec4-8012-d08fcfee88d4{fill:#666;}</style></defs><title>89</title><g id="ba068289-8b72-48fc-8e50-e88329c92420" data-name="Слой 2"><g id="beb2ef70-f829-461c-a365-5631b5de4ad7" data-name="Слой 1"><path class="e1c2c589-3e47-4c10-aa01-feb9218b378b" d="M19.33,34.61H17.82V31.3H6.51v3.31H5V26.89c0-1.7.6-2.54,1.8-2.54H17.52c1.2,0,1.81.85,1.81,2.57v7.69ZM6.51,29.25H17.82v-2c0-.54-.2-.81-.59-.81H7.1c-.39,0-.59.28-.59.83v2ZM32.73,26.4H22v2.89l10.74,0c.36,0,.54-.27.55-.82V27.19c0-.53-.19-.79-.57-.79ZM22,31.35v3.26H20.5V24.35H33c1.22,0,1.83.81,1.83,2.44v2c0,1.69-.61,2.54-1.82,2.54Zm23.27,3.26H43.5V26.43H36V24.35H52.73v2H45.28v8.22ZM76.6,32.09q0,2.52-1.83,2.52H62.27V24.35H76.6v2H63.78v2.06h11q1.83,0,1.83,2.43v1.2Zm-12.82.47H74.5c.41,0,.62-.28.62-.84v-.41c0-.53-.21-.8-.62-.8H63.78v2.05Zm15.48,2-1.47,0V24.36h1.5v7.78l11.32-7.79h1.5V34.61h-1.5V26.69L79.26,34.58Zm27.5,0h1.47V24.35H95.69c-1.19,0-1.79.84-1.79,2.51v4.85q0,.78-.57.87H93v2h.57c1.22,0,1.83-.8,1.83-2.41V27.23c0-.58.2-.87.59-.87h10.76v8.23Zm4.76-2h11.33V27.25q0-.84-.63-.84H112.1c-.38,0-.58.27-.58.8v5.35Zm-1.5-5.8c0-1.6.59-2.4,1.79-2.4h10.73c1.2,0,1.8.82,1.8,2.44v5.76h1.48v2l-17.29,0v-2H110Z"/><path class="b9bc7807-4ffa-4d52-8398-a3cbda0c4ca8" d="M24.72.33S9.48,7,4.71,20.85l3.62,0C11.57,14,20.42,3.88,31.91,3.78c.71,0-7.19-3.45-7.19-3.45ZM2,41.46c21-3.72,43.6-3.13,64,3.12a4.66,4.66,0,0,0,3.31-.46c.5-.27,1.54-1.2.46-1.53C48.43,36.05,24.75,35.4,2.73,39.3c-.85.15-2.39.47-2.7,1.39s1.51.86,2,.77ZM39.72.64c.76,0,14.64,5.5,29.47,20.85,0,0-12.89.19-13.28-.32C47.83,10.36,37.2,5,26.34.32c-2-.87,13.38.32,13.38.32Zm-6.17,16.2c2.7-2.42,2.23-5,2.46-6.67.28-2,1.31,7.43-.79,8.56-1.78.95-9,.84-9.09.34s5.38-.41,7.42-2.23ZM27.2,11.57c-2.7,2.41-2.23,5-2.47,6.66-.27,2-1.3-7.43.8-8.55,1.78-1,9-.85,9.09-.34S29.23,9.74,27.2,11.57Z"/><path class="e2854b96-ff9f-4ec4-8012-d08fcfee88d4" d="M9.63,55.76H8.33l.56-2.92h1.29c.62,0,.93.2.93.59a.8.8,0,0,1-.54.77.62.62,0,0,1,.43.59A.81.81,0,0,1,11,55c-.1.54-.56.81-1.36.81Zm.49-1h0c0-.19-.13-.28-.38-.28H9.4l-.14.73h.39c.31,0,.47-.15.47-.45Zm.14-1.19h0c0-.16-.12-.25-.34-.25h-.3l-.13.7h.29a.48.48,0,0,0,.35-.12A.44.44,0,0,0,10.26,53.59Z"/><polygon class="e2854b96-ff9f-4ec4-8012-d08fcfee88d4" points="16.11 55.76 15.29 55.76 15.06 53.76 14.07 55.76 13.27 55.76 14.8 52.84 15.66 52.84 16.11 55.76"/><path class="e2854b96-ff9f-4ec4-8012-d08fcfee88d4" d="M21.62,55.76h-.83l.06-.31a1.17,1.17,0,0,1-1,.4,1,1,0,0,1-1.17-1.13,2.12,2.12,0,0,1,.42-1.31,1.62,1.62,0,0,1,1.36-.66c.41,0,.68.13.79.38l.06-.29h.84l-.56,2.92Zm-.52-1.68h0c0-.45-.22-.67-.64-.67a.77.77,0,0,0-.71.42,1.49,1.49,0,0,0-.19.77c0,.41.18.61.55.61a.85.85,0,0,0,.73-.4A1.19,1.19,0,0,0,21.1,54.08Z"/><path class="e2854b96-ff9f-4ec4-8012-d08fcfee88d4" d="M27.5,54.74a1.69,1.69,0,0,1-.65.79,1.85,1.85,0,0,1-1.07.32,1.34,1.34,0,0,1-1-.35,1.18,1.18,0,0,1-.33-.87A1.83,1.83,0,0,1,25,53.36a1.78,1.78,0,0,1,1.4-.61,1.45,1.45,0,0,1,1,.3,1,1,0,0,1,.34.79v0h-.81c0-.32-.24-.48-.62-.48a.81.81,0,0,0-.72.43,1.34,1.34,0,0,0-.22.75c0,.44.2.66.61.66a.8.8,0,0,0,.78-.48Z"/><polygon class="e2854b96-ff9f-4ec4-8012-d08fcfee88d4" points="32.2 53.43 31.48 53.43 31.03 55.76 30.18 55.76 30.63 53.44 29.91 53.44 30.03 52.84 32.31 52.84 32.2 53.43"/><path class="e2854b96-ff9f-4ec4-8012-d08fcfee88d4" d="M35.26,55.76H34l.55-2.92h.85L35.22,54h.37c.73,0,1.09.24,1.09.72a.93.93,0,0,1-.39.8,1.7,1.7,0,0,1-1,.28Zm.54-1h0c0-.19-.12-.28-.37-.28h-.32l-.14.73h.34a.49.49,0,0,0,.37-.13A.44.44,0,0,0,35.8,54.78Z"/><polygon class="e2854b96-ff9f-4ec4-8012-d08fcfee88d4" points="46.2 55.76 45.36 55.76 45.59 54.56 44.6 54.56 44.37 55.76 43.53 55.76 44.09 52.84 44.93 52.84 44.71 53.98 45.7 53.98 45.92 52.84 46.76 52.84 46.2 55.76"/><path class="e2854b96-ff9f-4ec4-8012-d08fcfee88d4" d="M51.88,55.76h-.83l.05-.31a1.14,1.14,0,0,1-1,.4A1,1,0,0,1,49,54.72a2.12,2.12,0,0,1,.42-1.31,1.6,1.6,0,0,1,1.36-.66c.41,0,.68.13.79.38l.06-.29h.84l-.56,2.92Zm-.53-1.68h0c0-.45-.21-.67-.63-.67a.77.77,0,0,0-.71.42,1.49,1.49,0,0,0-.19.77c0,.41.18.61.55.61a.85.85,0,0,0,.73-.4A1.17,1.17,0,0,0,51.35,54.08Z"/><path class="e2854b96-ff9f-4ec4-8012-d08fcfee88d4" d="M57.35,56.4h-.71l.13-.64h-1.7L55,56.4h-.7l.23-1.21h.32L56,52.84h.94l.31,2.34h.33l-.23,1.22Zm-.89-1.22h0l-.15-1.48-.72,1.48Z"/><polygon class="e2854b96-ff9f-4ec4-8012-d08fcfee88d4" points="66.47 53.43 65.75 53.43 65.3 55.76 64.46 55.76 64.9 53.44 64.19 53.44 64.3 52.84 66.58 52.84 66.47 53.43"/><path class="e2854b96-ff9f-4ec4-8012-d08fcfee88d4" d="M71.78,54.5H69.46a.9.9,0,0,0,0,.18.58.58,0,0,0,.17.43.74.74,0,0,0,.49.16.72.72,0,0,0,.69-.34h.8a1.6,1.6,0,0,1-.63.66,1.85,1.85,0,0,1-1,.26,1.32,1.32,0,0,1-1-.35,1.15,1.15,0,0,1-.32-.85,1.88,1.88,0,0,1,.5-1.28,1.76,1.76,0,0,1,1.38-.62,1.34,1.34,0,0,1,1,.34,1.14,1.14,0,0,1,.32.84,3.26,3.26,0,0,1-.07.57ZM71.09,54h0a.71.71,0,0,0,0-.14c0-.35-.21-.52-.64-.52a1,1,0,0,0-.59.19.77.77,0,0,0-.32.47Z"/><polygon class="e2854b96-ff9f-4ec4-8012-d08fcfee88d4" points="76.68 55.76 75.75 55.76 75.33 54.83 74.55 55.76 73.63 55.76 74.97 54.31 74.29 52.84 75.2 52.84 75.53 53.76 76.21 52.84 77.12 52.84 75.89 54.31 76.68 55.76"/><polygon class="e2854b96-ff9f-4ec4-8012-d08fcfee88d4" points="81.75 55.76 80.91 55.76 81.14 54.56 80.15 54.56 79.92 55.76 79.08 55.76 79.64 52.84 80.47 52.84 80.26 53.98 81.25 53.98 81.47 52.84 82.3 52.84 81.75 55.76"/><path class="e2854b96-ff9f-4ec4-8012-d08fcfee88d4" d="M85.9,55.85a1.34,1.34,0,0,1-1-.36,1.22,1.22,0,0,1-.33-.88,1.79,1.79,0,0,1,.52-1.27,1.86,1.86,0,0,1,1.4-.59,1.35,1.35,0,0,1,1,.36,1.18,1.18,0,0,1,.34.88,1.79,1.79,0,0,1-.53,1.26,1.87,1.87,0,0,1-1.41.6ZM87,54.05h0c0-.42-.19-.64-.59-.64a.8.8,0,0,0-.7.39,1.26,1.26,0,0,0-.22.73c0,.44.19.66.58.66a.82.82,0,0,0,.71-.41A1.26,1.26,0,0,0,87,54.05Z"/><polygon class="e2854b96-ff9f-4ec4-8012-d08fcfee88d4" points="92.66 55.76 91.83 55.76 91.61 53.76 90.62 55.76 89.82 55.76 91.35 52.84 92.21 52.84 92.66 55.76"/><path class="e2854b96-ff9f-4ec4-8012-d08fcfee88d4" d="M96.45,55.85a1.31,1.31,0,0,1-1-.36,1.18,1.18,0,0,1-.34-.88,1.8,1.8,0,0,1,.53-1.27A1.84,1.84,0,0,1,97,52.75a1.35,1.35,0,0,1,1,.36,1.18,1.18,0,0,1,.34.88,1.79,1.79,0,0,1-.53,1.26,1.86,1.86,0,0,1-1.4.6Zm1.06-1.8h0c0-.42-.2-.64-.6-.64a.8.8,0,0,0-.7.39,1.26,1.26,0,0,0-.22.73c0,.44.2.66.59.66a.81.81,0,0,0,.7-.41A1.26,1.26,0,0,0,97.51,54.05Z"/><polygon class="e2854b96-ff9f-4ec4-8012-d08fcfee88d4" points="102.69 53.43 101.75 53.43 101.3 55.76 100.44 55.76 101 52.84 102.79 52.84 102.69 53.43"/><polygon class="e2854b96-ff9f-4ec4-8012-d08fcfee88d4" points="107.44 55.76 106.6 55.76 106.92 54.02 105.45 55.76 104.67 55.76 105.23 52.84 106.07 52.84 105.75 54.53 107.22 52.84 108 52.84 107.44 55.76"/><path class="e2854b96-ff9f-4ec4-8012-d08fcfee88d4" d="M113.45,54.5h-2.32a1,1,0,0,0,0,.18.54.54,0,0,0,.17.43.7.7,0,0,0,.49.16.72.72,0,0,0,.69-.34h.79a1.58,1.58,0,0,1-.62.66,1.89,1.89,0,0,1-1,.26,1.32,1.32,0,0,1-1-.35,1.15,1.15,0,0,1-.32-.85,1.88,1.88,0,0,1,.5-1.28,1.76,1.76,0,0,1,1.38-.62,1.32,1.32,0,0,1,1,.34,1.11,1.11,0,0,1,.33.84,3.55,3.55,0,0,1-.08.57Zm-.69-.49h0a.71.71,0,0,0,0-.14c0-.35-.21-.52-.63-.52a1,1,0,0,0-.6.19.76.76,0,0,0-.31.47Z"/><path class="e2854b96-ff9f-4ec4-8012-d08fcfee88d4" d="M118.47,55.76h-.84L118,54l-1.48,1.75h-.78l.56-2.92h.84l-.32,1.68,1.47-1.68H119l-.56,2.92Zm.26-3.93h0a.94.94,0,0,1-.34.55,1.14,1.14,0,0,1-.69.22.86.86,0,0,1-.55-.17A.56.56,0,0,1,117,52a.77.77,0,0,1,0-.15h.5a.25.25,0,0,0,0,.1c0,.2.1.3.31.3a.42.42,0,0,0,.45-.4Z"/><rect class="ef0c9dd4-ef9a-4dc6-8003-c057a4941479" x="2.51" y="49.4" width="118.04" height="0.47"/><path class="e1c2c589-3e47-4c10-aa01-feb9218b378b" d="M78.21,45.2H72.59c-.52,0-.78-.42-.78-1.27V41.21c0-.82.26-1.24.78-1.24h5.62V41H72.74c-.17,0-.26.13-.26.4v2.31c0,.28.08.43.25.43h5.48v1Zm1.56,0h-.66V40h.68v4l5.06-4h.67V45.2h-.67v-4l-5.08,4Zm13.07,0H87.22c-.52,0-.78-.42-.78-1.27V41.21c0-.82.26-1.24.78-1.24h5.62V41H87.37c-.17,0-.26.13-.26.4v2.31c0,.28.08.43.25.43h5.48v1Zm5,0h-.8V41H93.74V40h7.48v1H97.89V45.2Zm10.64,0h-6.41V40h6.41v1h-5.74v1.05h5.74v1h-5.74v1h5.74v1ZM114,43.54l-3.94-2.33v4h-.67V40h.67l3.93,2.3,3.8-2.3h.68V45.2h-.67v-4L114,43.54Zm11.78,1.66h-5.61c-.53,0-.79-.42-.79-1.27V41.21c0-.82.26-1.24.79-1.24h5.61V41h-5.46c-.18,0-.27.13-.27.4v2.31c0,.28.09.43.26.43h5.47Z"/></g></g></svg>