<svg xmlns="http://www.w3.org/2000/svg" viewBox="0 0 109.31 38.23"><defs><style>.fcc203a9-2f39-4801-b3f0-ffec5347fb1c{fill:#767676;}</style></defs><title>Ресурс 11</title><g id="ba79812f-66a0-4c5d-870e-0ec7e9a30c50" data-name="Слой 2"><g id="be4cd913-fc57-478d-8028-4e7140571dbd" data-name="Слой 1"><path class="fcc203a9-2f39-4801-b3f0-ffec5347fb1c" d="M0,33.39a4.71,4.71,0,0,1,4.79-4.73,4.74,4.74,0,0,1,4.78,4.73,4.79,4.79,0,1,1-9.57,0Z"/><path class="fcc203a9-2f39-4801-b3f0-ffec5347fb1c" d="M31.47,24.12c0-4.16-2.16-8.27-6.64-8.27-3.68,0-6.74,3-6.74,8.32,0,5.11,2.69,8.43,6.64,8.43,3.47,0,6.74-2.53,6.74-8.48Zm-7.95-14c5.84,0,7.74,3.27,7.74,3.27h.1s-.05-.69-.05-1.58V5.9H28V.21H38V32h3.21V37.6H31.73V33.86h-.1s-2.22,4.37-8.38,4.37C16,38.23,11.3,32.49,11.3,24.17c0-8.53,5.11-14.06,12.22-14.06Z"/><path class="fcc203a9-2f39-4801-b3f0-ffec5347fb1c" d="M60.11,20.69c-.1-3.21-2.31-5.42-5-5.42a6.43,6.43,0,0,0-6.58,5.42Zm-5-10.58c7.69,0,11.9,5.64,11.9,12.74,0,.79-.16,2.48-.16,2.48H48.27a7.71,7.71,0,0,0,8,7.21,12.2,12.2,0,0,0,7.53-3l2.79,4.64a16.32,16.32,0,0,1-10.79,4c-8.9,0-14.43-6.42-14.43-14.06,0-8.27,5.58-14.06,13.64-14.06Z"/><path class="fcc203a9-2f39-4801-b3f0-ffec5347fb1c" d="M99.46,26c0,3.27-2.53,7.06-6.11,7.06-2.73,0-4-1.69-4-3.48,0-3.74,5.53-4.21,9-4.21h1.16V26ZM106,32V20.8c0-6-2.63-10.69-11.58-10.69a9.74,9.74,0,0,0-10.09,8.37H90.8a4.26,4.26,0,0,1,4.2-3.6c3.36,0,4.19,2.14,4.33,4.88a2.44,2.44,0,0,1,0,.27c0,.1,0,.43,0,.51v.21h-.84c-4.38,0-16,.68-16,9.11,0,5.37,4.37,8.37,9.16,8.37a8.74,8.74,0,0,0,8.11-4.74h.11V37.6h9.38V32Z"/><path class="fcc203a9-2f39-4801-b3f0-ffec5347fb1c" d="M70.52,16.06H67.2V10.74h3.32V10c0-8.79,7.21-9.95,11-9.95a14.09,14.09,0,0,1,2.26.16V5.85a8.14,8.14,0,0,0-1.37-.11c-1.89,0-5.16.47-5.16,4.37v.63h5.74v5.32H77.2V37.6H70.52V16.06Z"/></g></g></svg>