<svg xmlns="http://www.w3.org/2000/svg" viewBox="0 0 85.42 85.42"><defs><style>.a6bf2490-c9bd-4cde-a73b-8ce707e9e114{fill:#d24a43;}</style></defs><title>90</title><g id="bc484045-feaf-46ce-aab7-4de67fdf961b" data-name="Слой 2"><g id="fd4ba427-9515-4798-a332-c8c7415b1bb0" data-name="Слой 1"><path class="a6bf2490-c9bd-4cde-a73b-8ce707e9e114" d="M42.71,85.42A42.71,42.71,0,1,1,85.42,42.71,42.76,42.76,0,0,1,42.71,85.42ZM42.71,2A40.71,40.71,0,1,0,83.42,42.71,40.75,40.75,0,0,0,42.71,2Z"/><path class="a6bf2490-c9bd-4cde-a73b-8ce707e9e114" d="M63.69,30.75c-.85-4.36-4.15-6.92-7.17-6.77s-3.08,2.3-3.08,2.3a3.86,3.86,0,0,1,3.17,3.91c.11,3.16-4.29,4.94-7.88,5.06-.28-1.07-.74-2.37-1.21-3.63l2.69-1.86c3.23-2.35.79-6.63.79-6.63l-11,2.4a1.56,1.56,0,0,0,.06-.44,1.88,1.88,0,1,0-2,1.87A79.41,79.41,0,0,0,35,35.25c-3.58-.12-5.87-1.9-5.76-5.06a3.85,3.85,0,0,1,3.16-3.91s0-2.16-3.06-2.3-6.45,2.39-7.18,6.77,1.69,10.09,10.09,13.14A111.52,111.52,0,0,0,27.4,63.62h2.85A5.35,5.35,0,0,0,34.77,61a8.77,8.77,0,0,1,7.1-4.14A8.77,8.77,0,0,1,49,61a5.36,5.36,0,0,0,4.52,2.59l3.08,0a99.25,99.25,0,0,0-5.09-19.71c10.2-2.26,13.11-8.46,12.2-13.14"/><path class="a6bf2490-c9bd-4cde-a73b-8ce707e9e114" d="M15.15,18.83l4.41,3.28-.76,1-3.57-2.66-1.48,2,3.57,2.67-.75,1-4.4-3.28Z"/><path class="a6bf2490-c9bd-4cde-a73b-8ce707e9e114" d="M20.85,13.85a1.78,1.78,0,0,1,1.07,0,1.82,1.82,0,0,1,.9.63,1.92,1.92,0,0,1,.46,1,1.82,1.82,0,0,1-.2,1.06,3.09,3.09,0,0,1-.82,1l-.85.7,1,1.17-1,.81L17.89,16l1.83-1.52A3,3,0,0,1,20.85,13.85ZM22.06,16a.9.9,0,0,0-.22-.73.87.87,0,0,0-.69-.35,1.31,1.31,0,0,0-.82.36l-.8.67,1.22,1.46.8-.66A1.4,1.4,0,0,0,22.06,16Z"/><path class="a6bf2490-c9bd-4cde-a73b-8ce707e9e114" d="M27.72,15.27A2.85,2.85,0,0,1,25,12.21a2.72,2.72,0,0,1,.52-1.38,3.37,3.37,0,0,1,2.77-1.35,2.73,2.73,0,0,1,2.4,1.58A2.67,2.67,0,0,1,31,12.54a2.72,2.72,0,0,1-.52,1.38,3.2,3.2,0,0,1-1.22,1A3.17,3.17,0,0,1,27.72,15.27Zm1.76-1.9a1.65,1.65,0,0,0,.28-.83,1.81,1.81,0,0,0-.2-.92,1.93,1.93,0,0,0-.6-.72,1.62,1.62,0,0,0-.82-.29,1.67,1.67,0,0,0-.89.19,1.71,1.71,0,0,0-.69.58,1.65,1.65,0,0,0-.28.83,1.81,1.81,0,0,0,.2.92,1.76,1.76,0,0,0,.6.72,1.62,1.62,0,0,0,.82.29,1.67,1.67,0,0,0,.89-.19A1.71,1.71,0,0,0,29.48,13.37Z"/><path class="a6bf2490-c9bd-4cde-a73b-8ce707e9e114" d="M38,9.61a1.29,1.29,0,0,1,.43.76,1.35,1.35,0,0,1-.3,1.23,2.61,2.61,0,0,1-1.46.72l-2.65.57L32.92,7.52,35.42,7A2.54,2.54,0,0,1,37,7a1.18,1.18,0,0,1,.73.91,1.26,1.26,0,0,1,0,.75,1.44,1.44,0,0,1-.45.6A1.46,1.46,0,0,1,38,9.61Zm-3.41-.13,1.16-.25a.91.91,0,0,0,.57-.29.67.67,0,0,0-.21-1,1,1,0,0,0-.64,0l-1.16.25Zm2.56,1.06c-.09-.45-.43-.61-1-.48l-1.37.29.29,1.35,1.37-.29Q37.34,11.23,37.19,10.54Z"/><path class="a6bf2490-c9bd-4cde-a73b-8ce707e9e114" d="M45.32,10.76v1l-4.25,0,.06-5.49,4.15,0v1l-2.89,0V8.46l2.55,0,0,1-2.54,0,0,1.27Z"/><path class="a6bf2490-c9bd-4cde-a73b-8ce707e9e114" d="M52.37,7.8a1.83,1.83,0,0,1,.64.86,1.94,1.94,0,0,1,.05,1.1,2,2,0,0,1-.53,1,1.83,1.83,0,0,1-1,.48,3,3,0,0,1-1.29,0l-1.08-.26-.34,1.47-1.24-.29,1.26-5.34,2.31.55A3,3,0,0,1,52.37,7.8Zm-1,2.28a.86.86,0,0,0,.45-.61.89.89,0,0,0-.12-.76,1.29,1.29,0,0,0-.79-.44l-1-.24-.44,1.85,1,.24A1.28,1.28,0,0,0,51.35,10.08Z"/><path class="a6bf2490-c9bd-4cde-a73b-8ce707e9e114" d="M58.49,14.87l-.44.91-3.83-1.84L56.61,9l3.73,1.81-.44.91-2.6-1.25-.52,1.07,2.3,1.11-.43.89-2.3-1.11-.55,1.15Z"/><path class="a6bf2490-c9bd-4cde-a73b-8ce707e9e114" d="M67.34,15.89l-3.46,4.26-1-.8,1.41-1.75L62.38,16,61,17.78,60,17l3.46-4.27,1,.8L63.05,15.2,65,16.77l1.36-1.68Z"/><path class="a6bf2490-c9bd-4cde-a73b-8ce707e9e114" d="M66.57,22.72a2.73,2.73,0,0,1,.17-1.47,2.85,2.85,0,0,1,.93-1.18,2.78,2.78,0,0,1,2.86-.3,3.17,3.17,0,0,1,1.21,1,3.27,3.27,0,0,1,.63,1.45,2.83,2.83,0,0,1-.18,1.47,2.73,2.73,0,0,1-.93,1.18,2.79,2.79,0,0,1-1.4.56,2.85,2.85,0,0,1-1.46-.26,3.37,3.37,0,0,1-1.83-2.47Zm2.19,1.38a1.63,1.63,0,0,0,.87.13,2,2,0,0,0,1.46-1.09,1.63,1.63,0,0,0,.13-.87,1.85,1.85,0,0,0-.34-.84,1.76,1.76,0,0,0-.71-.57,1.6,1.6,0,0,0-.87-.12,1.77,1.77,0,0,0-.86.37,1.87,1.87,0,0,0-.6.72,1.65,1.65,0,0,0,.22,1.7A1.74,1.74,0,0,0,68.76,24.1Z"/><path class="a6bf2490-c9bd-4cde-a73b-8ce707e9e114" d="M14,53.42a1.88,1.88,0,0,1-.44,1,1.93,1.93,0,0,1-.94.56,2,2,0,0,1-1.1,0,1.88,1.88,0,0,1-.88-.61A3.15,3.15,0,0,1,10,53.2l-.3-1.07-1.46.41-.34-1.22,5.29-1.48.64,2.29A3.07,3.07,0,0,1,14,53.42Zm-2.48.21a.84.84,0,0,0,.75.09.88.88,0,0,0,.61-.47,1.4,1.4,0,0,0,0-.91l-.28-1-1.83.52.27,1A1.36,1.36,0,0,0,11.48,53.63Z"/><path class="a6bf2490-c9bd-4cde-a73b-8ce707e9e114" d="M11.56,60.32a2.78,2.78,0,0,1,.31-1.45,2.86,2.86,0,0,1,1.05-1.08,2.74,2.74,0,0,1,1.45-.42,2.7,2.7,0,0,1,1.42.4A3.09,3.09,0,0,1,16.9,58.9a3.3,3.3,0,0,1,.48,1.5,2.78,2.78,0,0,1-.32,1.45,2.72,2.72,0,0,1-1,1.09,2.85,2.85,0,0,1-1.45.41,2.68,2.68,0,0,1-1.42-.4,3.37,3.37,0,0,1-1.59-2.63Zm2,1.59a1.67,1.67,0,0,0,.85.2,1.76,1.76,0,0,0,.89-.28,1.7,1.7,0,0,0,.67-.66,1.68,1.68,0,0,0,.22-.85,1.9,1.9,0,0,0-.91-1.5,1.58,1.58,0,0,0-.85-.21,2,2,0,0,0-1.56.94,1.71,1.71,0,0,0-.22.85,1.87,1.87,0,0,0,.26.87A1.81,1.81,0,0,0,13.61,61.91Z"/><path class="a6bf2490-c9bd-4cde-a73b-8ce707e9e114" d="M17.22,67.93a2.73,2.73,0,0,1-.08-1.47,2.79,2.79,0,0,1,.73-1.33,2.73,2.73,0,0,1,1.29-.79,2.82,2.82,0,0,1,1.47,0,3.17,3.17,0,0,1,1.35.79,3.33,3.33,0,0,1,.77,1.07,2.6,2.6,0,0,1,.2,1.19H21.84A1.74,1.74,0,0,0,21.28,66a1.77,1.77,0,0,0-.81-.47,1.64,1.64,0,0,0-.88,0,1.8,1.8,0,0,0-.79.51,1.92,1.92,0,0,0-.47.81,1.64,1.64,0,0,0,0,.88,1.77,1.77,0,0,0,.5.79,1.74,1.74,0,0,0,1.45.48l.07,1.11A2.64,2.64,0,0,1,19.17,70a3.37,3.37,0,0,1-1.11-.71A3.27,3.27,0,0,1,17.22,67.93Z"/><path class="a6bf2490-c9bd-4cde-a73b-8ce707e9e114" d="M25.77,72.06,25,71.62l-1.09,1.92-1.1-.62,2.72-4.77,1.1.63-1.1,1.92.79.45,2.35-1.21,1.17.67L27,72l.2,3.38-1.25-.71Z"/><path class="a6bf2490-c9bd-4cde-a73b-8ce707e9e114" d="M31.49,76.76a2.65,2.65,0,0,1-.76-1.27,2.77,2.77,0,0,1,0-1.51,2.83,2.83,0,0,1,.77-1.29A2.75,2.75,0,0,1,32.84,72a3.16,3.16,0,0,1,1.58.07,3.12,3.12,0,0,1,1.38.77,2.74,2.74,0,0,1,.74,2.78,2.74,2.74,0,0,1-.78,1.29,2.71,2.71,0,0,1-1.31.68,3.15,3.15,0,0,1-1.58-.06A3.24,3.24,0,0,1,31.49,76.76Zm2.58-.24a1.53,1.53,0,0,0,.76-.43,1.72,1.72,0,0,0,.47-.81,1.88,1.88,0,0,0,0-.94,1.62,1.62,0,0,0-.42-.77,1.78,1.78,0,0,0-.78-.45,1.76,1.76,0,0,0-.91,0,1.66,1.66,0,0,0-.76.43,1.9,1.9,0,0,0-.47.82,1.84,1.84,0,0,0,0,.93,1.58,1.58,0,0,0,.42.77,1.69,1.69,0,0,0,.79.46A1.72,1.72,0,0,0,34.07,76.52Z"/><path class="a6bf2490-c9bd-4cde-a73b-8ce707e9e114" d="M44.84,73.37l-.09,5.49-1.27,0,0-2.25-2.5,0,0,2.25-1.27,0,.08-5.49,1.27,0,0,2.17,2.49,0,0-2.16Z"/><path class="a6bf2490-c9bd-4cde-a73b-8ce707e9e114" d="M52.08,72.91l-1.7.42,1.07,4.32-1.22.3-1.07-4.32-1.7.42-.24-1,4.62-1.15Z"/><path class="a6bf2490-c9bd-4cde-a73b-8ce707e9e114" d="M57.46,69.63a1.81,1.81,0,0,1,1,.25,2,2,0,0,1,.74.81A1.82,1.82,0,0,1,59,72.75a3,3,0,0,1-1,.78L57,74l.68,1.35L56.54,76,54.09,71,56.21,70A3,3,0,0,1,57.46,69.63Zm.67,2.4a1,1,0,0,0-.63-1.26,1.32,1.32,0,0,0-.89.16l-.92.47.85,1.7.92-.46A1.31,1.31,0,0,0,58.13,72Z"/><path class="a6bf2490-c9bd-4cde-a73b-8ce707e9e114" d="M64.65,70.81a2.74,2.74,0,0,1-2.72-.94,2.8,2.8,0,0,1-.64-1.36A2.77,2.77,0,0,1,61.45,67a3.27,3.27,0,0,1,.93-1.28,3.36,3.36,0,0,1,1.41-.71A2.8,2.8,0,0,1,67,68.81a3.11,3.11,0,0,1-.93,1.28A3.17,3.17,0,0,1,64.65,70.81Zm1.23-2.28a1.56,1.56,0,0,0,.07-.88,1.77,1.77,0,0,0-.42-.83,1.75,1.75,0,0,0-.76-.55,1.53,1.53,0,0,0-.87-.08,1.72,1.72,0,0,0-.81.4,1.67,1.67,0,0,0-.53.74,1.71,1.71,0,0,0-.07.87,1.85,1.85,0,0,0,.42.84,1.9,1.9,0,0,0,.76.55,1.56,1.56,0,0,0,.88.07,1.79,1.79,0,0,0,1.33-1.13Z"/><path class="a6bf2490-c9bd-4cde-a73b-8ce707e9e114" d="M69.08,58.06l4.51,3.13-.71,1-3.66-2.54-1.08,1.55.92.69a10.71,10.71,0,0,1,1.45,1.23,2.34,2.34,0,0,1,.63,1,1.22,1.22,0,0,1-.23,1,2.9,2.9,0,0,1-.43.46L69.64,65a.87.87,0,0,0,.16-.17.67.67,0,0,0-.08-.83,6.85,6.85,0,0,0-1.26-1.15l-1.78-1.33Z"/><path class="a6bf2490-c9bd-4cde-a73b-8ce707e9e114" d="M73.87,52.22a1.64,1.64,0,0,1,1.43-.08,1.76,1.76,0,0,1,1.15,1,2.55,2.55,0,0,1-.08,1.73l-.81,2.34-5.19-1.79.41-1.19,1.71.59.45-1.32A2.32,2.32,0,0,1,73.87,52.22Zm1.61,1.63a.88.88,0,0,0-.58-.49c-.54-.19-.92,0-1.15.71l-.37,1.08,1.7.59.38-1.08A1.19,1.19,0,0,0,75.48,53.85Z"/><circle class="a6bf2490-c9bd-4cde-a73b-8ce707e9e114" cx="9.5" cy="41.15" r="1.99"/><circle class="a6bf2490-c9bd-4cde-a73b-8ce707e9e114" cx="76.4" cy="41.15" r="1.99"/></g></g></svg>