<svg xmlns="http://www.w3.org/2000/svg" viewBox="0 0 152.41 36.13"><defs><style>.ac248f96-ffcf-470b-9b7d-4f2269285981{fill:#383a3b;}.e852ef96-90a4-41a7-9cd2-fbdbb29daa42{fill:#90c8ef;}.e27405d8-48a2-44a5-85ea-434b299e472d{fill:#5cabe1;}.a3d272ab-df87-4458-97a1-37e2385e8bf7{fill:#3974b8;}.bef36608-0417-4415-98d0-689d70c485cd{fill:#2d3864;}</style></defs><title>91</title><g id="b0da1ebd-1e3e-476e-822a-38e234e205a5" data-name="Слой 2"><g id="b9f8805e-2601-4577-b834-a12ad9893b6a" data-name="Слой 1"><path class="ac248f96-ffcf-470b-9b7d-4f2269285981" d="M120.64,15.71V13.39h-.83v-.47H122v.47h-.83v2.32Z"/><path class="ac248f96-ffcf-470b-9b7d-4f2269285981" d="M122.39,15.71V12.92h.85l.5,1.9.51-1.9h.84v2.79h-.52v-2.2l-.56,2.2h-.54l-.55-2.2v2.2Z"/><path class="ac248f96-ffcf-470b-9b7d-4f2269285981" d="M49.09,31h-.35V27H51v4h-.35V27.27H49.09Z"/><path class="ac248f96-ffcf-470b-9b7d-4f2269285981" d="M53.08,31.06a1,1,0,0,1-.83-.39A3.1,3.1,0,0,1,51.91,29a3.17,3.17,0,0,1,.33-1.68,1,1,0,0,1,.84-.42,1,1,0,0,1,1,.7,4,4,0,0,1,.18,1.4,6.49,6.49,0,0,1-.06,1,1.66,1.66,0,0,1-.32.78A1,1,0,0,1,53.08,31.06Zm0-.31a.71.71,0,0,0,.7-.54A4.27,4.27,0,0,0,53.92,29a4.29,4.29,0,0,0-.13-1.19.73.73,0,0,0-.71-.6.7.7,0,0,0-.69.57A4,4,0,0,0,52.25,29a3.14,3.14,0,0,0,.24,1.47A.64.64,0,0,0,53.08,30.75Z"/><path class="ac248f96-ffcf-470b-9b7d-4f2269285981" d="M55.22,27h1.87v.31H55.57v1.44h.59a1,1,0,0,1,1.12,1.12,1.11,1.11,0,0,1-.31.87,1.09,1.09,0,0,1-.77.26h-1Z"/><path class="ac248f96-ffcf-470b-9b7d-4f2269285981" d="M59.94,31H58.1V27h1.81v.31H58.44v1.44h1.34V29H58.44v1.63h1.5Z"/><path class="ac248f96-ffcf-470b-9b7d-4f2269285981" d="M60.78,30.65a3.2,3.2,0,0,0,.36-.91,7.79,7.79,0,0,0,.09-1.37V27h2v3.68h.29v1.16h-.33V31H60.87v.85h-.34V30.65Zm.38,0h1.68V27.28H61.58v1.18a6.81,6.81,0,0,1-.1,1.27A2.91,2.91,0,0,1,61.16,30.65Z"/><path class="ac248f96-ffcf-470b-9b7d-4f2269285981" d="M65.06,27h.4l1.07,4h-.35l-.32-1.23H64.65L64.32,31H64Zm-.34,2.46h1.07l-.53-2Z"/><path class="ac248f96-ffcf-470b-9b7d-4f2269285981" d="M69,27h2v4h-.35V27.27H69.34V29.1a4.74,4.74,0,0,1-.15,1.41c-.11.33-.29.49-.55.49h-.16l-.14,0v-.31l.16,0h.09c.15,0,.25-.14.31-.42A6.74,6.74,0,0,0,69,29Z"/><path class="ac248f96-ffcf-470b-9b7d-4f2269285981" d="M72.41,28.71h.64a3,3,0,0,1,.21-1.27,1,1,0,0,1,1-.59,1,1,0,0,1,1,.7A4,4,0,0,1,75.4,29a6.49,6.49,0,0,1-.06,1,1.66,1.66,0,0,1-.32.78,1,1,0,0,1-.8.33,1,1,0,0,1-1-.64,3.64,3.64,0,0,1-.2-1.4h-.64V31h-.35V27h.35Zm1.81,2a.71.71,0,0,0,.7-.54A4.27,4.27,0,0,0,75.06,29a4.29,4.29,0,0,0-.13-1.19.73.73,0,0,0-.71-.6.7.7,0,0,0-.69.57A4,4,0,0,0,73.39,29a3.14,3.14,0,0,0,.24,1.47A.64.64,0,0,0,74.22,30.75Z"/><path class="ac248f96-ffcf-470b-9b7d-4f2269285981" d="M76.36,27h1.87v.31H76.71v1.44h.59a1,1,0,0,1,1.12,1.12,1.11,1.11,0,0,1-.31.87,1.09,1.09,0,0,1-.77.26h-1Z"/><path class="ac248f96-ffcf-470b-9b7d-4f2269285981" d="M81.5,27v4h-.35V27.53L79.65,31h-.42V27h.35v3.43L81.07,27Z"/><path class="ac248f96-ffcf-470b-9b7d-4f2269285981" d="M83.11,27.27h-.9V27h2.16v.31h-.91V31h-.35Z"/><path class="ac248f96-ffcf-470b-9b7d-4f2269285981" d="M86.87,31h-.35V27h2.25v4h-.35V27.27H86.87Z"/><path class="ac248f96-ffcf-470b-9b7d-4f2269285981" d="M90.87,31.06a1,1,0,0,1-.84-.39A3.1,3.1,0,0,1,89.69,29,3.06,3.06,0,0,1,90,27.27a1,1,0,0,1,.84-.42,1,1,0,0,1,1,.7A4.09,4.09,0,0,1,92,29,6.49,6.49,0,0,1,92,30a1.56,1.56,0,0,1-.32.78A1,1,0,0,1,90.87,31.06Zm0-.31a.7.7,0,0,0,.69-.54A4.27,4.27,0,0,0,91.7,29a3.94,3.94,0,0,0-.13-1.19c-.13-.4-.36-.6-.7-.6a.71.71,0,0,0-.7.57A4.08,4.08,0,0,0,90,29a3.17,3.17,0,0,0,.23,1.47A.65.65,0,0,0,90.87,30.75Z"/><path class="ac248f96-ffcf-470b-9b7d-4f2269285981" d="M93,30.65a3.2,3.2,0,0,0,.36-.91,7.79,7.79,0,0,0,.09-1.37V27h2v3.68h.29v1.16h-.33V31H93.11v.85h-.34V30.65Zm.38,0h1.68V27.28H93.82v1.18a6.81,6.81,0,0,1-.1,1.27A2.68,2.68,0,0,1,93.4,30.65Z"/><path class="ac248f96-ffcf-470b-9b7d-4f2269285981" d="M98.39,27.27H96.9V31h-.34V27h1.83Z"/><path class="ac248f96-ffcf-470b-9b7d-4f2269285981" d="M100.27,31.06a1,1,0,0,1-.84-.39A3.21,3.21,0,0,1,99.1,29a3.17,3.17,0,0,1,.33-1.68,1,1,0,0,1,.84-.42,1,1,0,0,1,1,.7,4,4,0,0,1,.18,1.4,6.49,6.49,0,0,1-.06,1,1.56,1.56,0,0,1-.33.78A1,1,0,0,1,100.27,31.06Zm0-.31a.69.69,0,0,0,.69-.54A4,4,0,0,0,101.1,29a4.37,4.37,0,0,0-.12-1.19.73.73,0,0,0-.71-.6.71.71,0,0,0-.7.57A4.08,4.08,0,0,0,99.44,29a3.31,3.31,0,0,0,.23,1.47A.67.67,0,0,0,100.27,30.75Z"/><path class="ac248f96-ffcf-470b-9b7d-4f2269285981" d="M103,27.27h-.91V27h2.17v.31h-.91V31H103Z"/><path class="ac248f96-ffcf-470b-9b7d-4f2269285981" d="M106.11,31.06a1,1,0,0,1-.83-.39,3.1,3.1,0,0,1-.34-1.72,3.17,3.17,0,0,1,.33-1.68,1,1,0,0,1,.84-.42,1,1,0,0,1,1,.7,4,4,0,0,1,.18,1.4,6.49,6.49,0,0,1-.06,1,1.66,1.66,0,0,1-.32.78A1,1,0,0,1,106.11,31.06Zm0-.31a.71.71,0,0,0,.7-.54A4.27,4.27,0,0,0,107,29a4.29,4.29,0,0,0-.13-1.19.73.73,0,0,0-.71-.6.7.7,0,0,0-.69.57,4,4,0,0,0-.14,1.22,3.14,3.14,0,0,0,.24,1.47A.64.64,0,0,0,106.11,30.75Z"/><path class="ac248f96-ffcf-470b-9b7d-4f2269285981" d="M109.06,31h-.88V27h.95a1.1,1.1,0,0,1,.73.22.93.93,0,0,1,.3.75,1.22,1.22,0,0,1-.12.56.83.83,0,0,1-.42.36.78.78,0,0,1,.49.34,1.1,1.1,0,0,1,.16.62,1.07,1.07,0,0,1-.41,1A1.41,1.41,0,0,1,109.06,31Zm-.53-3.69v1.44H109a.91.91,0,0,0,.55-.14.71.71,0,0,0,.25-.62.62.62,0,0,0-.26-.57,1.2,1.2,0,0,0-.57-.11Z"/><path class="ac248f96-ffcf-470b-9b7d-4f2269285981" d="M111.48,31h-.35V27h.35v2l1.45-2h.4l-1.18,1.61L113.4,31H113l-1.09-2.1-.45.58Z"/><path class="ac248f96-ffcf-470b-9b7d-4f2269285981" d="M116.37,27l-1.24,3.49a1.07,1.07,0,0,1-.25.42.54.54,0,0,1-.35.14,1.06,1.06,0,0,1-.29,0v-.3l.11,0h.11a.31.31,0,0,0,.21-.07.54.54,0,0,0,.14-.24l.09-.25L113.71,27h.38l1,2.73L116,27Z"/><path class="ac248f96-ffcf-470b-9b7d-4f2269285981" d="M2.47,17.39h2l-.23,1.44h-2L1.58,23H0L1.59,12.91H5.78l-.23,1.44H3Z"/><path class="ac248f96-ffcf-470b-9b7d-4f2269285981" d="M7.5,17.16H9.67L9.44,18.6H7.27L6.8,21.54H9.54L9.31,23H5l1.6-10.07H10.9l-.22,1.44H7.94Z"/><path class="ac248f96-ffcf-470b-9b7d-4f2269285981" d="M12,12.91h2.51a2,2,0,0,1,1.67.64,2.33,2.33,0,0,1,.29,1.85l-.8,5.09a3.13,3.13,0,0,1-.88,1.86,2.67,2.67,0,0,1-1.88.63h-2.5Zm1.36,1.44-1.14,7.19h.89a1,1,0,0,0,.63-.21,1.31,1.31,0,0,0,.33-.76l.83-5.24a1,1,0,0,0-.09-.76.68.68,0,0,0-.56-.22Z"/><path class="ac248f96-ffcf-470b-9b7d-4f2269285981" d="M18.81,17.16H21l-.23,1.44H18.58l-.47,2.94h2.73L20.62,23H16.3l1.6-10.07h4.31L22,14.35H19.25Z"/><path class="ac248f96-ffcf-470b-9b7d-4f2269285981" d="M25,23c0-.06,0-.13,0-.18a1.41,1.41,0,0,1,0-.22,2.06,2.06,0,0,1,0-.33c0-.13,0-.3.07-.5l.25-1.59a1.41,1.41,0,0,0-.08-1,.86.86,0,0,0-.75-.29h-.55L23.24,23H21.65l1.6-10.07h2.39a2.07,2.07,0,0,1,1.7.58,2.18,2.18,0,0,1,.27,1.74l-.12.79a2.44,2.44,0,0,1-1.36,2,1.14,1.14,0,0,1,.7.8,3.55,3.55,0,0,1,0,1.35l-.25,1.55a6.22,6.22,0,0,0-.07.66,2.16,2.16,0,0,0,.05.56Zm-.36-8.63-.49,3.09h.62a1.13,1.13,0,0,0,.74-.23,1.27,1.27,0,0,0,.38-.83l.16-1a1.24,1.24,0,0,0-.07-.79.63.63,0,0,0-.58-.25Z"/><path class="ac248f96-ffcf-470b-9b7d-4f2269285981" d="M33,23h-1.6V21.16H29.45L28.89,23H27.44l3.2-10.07H33Zm-3.11-3.19H31.4l0-5.09Z"/><path class="ac248f96-ffcf-470b-9b7d-4f2269285981" d="M35.52,12.91H37.1l-1.36,8.63h2.6L38.11,23H33.93Z"/><path class="ac248f96-ffcf-470b-9b7d-4f2269285981" d="M42.89,12.91h4.89l-.23,1.44H45.9L44.53,23H43l1.36-8.63H42.66Z"/><path class="ac248f96-ffcf-470b-9b7d-4f2269285981" d="M50.37,23l0-.18a1.41,1.41,0,0,1,0-.22,1.32,1.32,0,0,1,0-.33c0-.13,0-.3.07-.5l.25-1.59a1.35,1.35,0,0,0-.09-1,.84.84,0,0,0-.74-.29h-.55L48.64,23H47.06l1.6-10.07H51a2,2,0,0,1,1.7.58A2.14,2.14,0,0,1,53,15.23L52.9,16a2.44,2.44,0,0,1-1.36,2,1.16,1.16,0,0,1,.7.8,3.55,3.55,0,0,1,0,1.35L52,21.76a6.22,6.22,0,0,0-.07.66A1.8,1.8,0,0,0,52,23ZM50,14.35l-.49,3.09h.62a1.08,1.08,0,0,0,.73-.23,1.27,1.27,0,0,0,.39-.83l.15-1a1.19,1.19,0,0,0-.06-.79.63.63,0,0,0-.58-.25Z"/><path class="ac248f96-ffcf-470b-9b7d-4f2269285981" d="M58.38,23H56.79V21.16H54.86L54.3,23H52.84l3.21-10.07h2.32Zm-3.1-3.19H56.8l.05-5.09Z"/><path class="ac248f96-ffcf-470b-9b7d-4f2269285981" d="M61.9,15.69,60.74,23H59.32l1.59-10.07h2l.67,6,1-6h1.41L64.34,23H62.71Z"/><path class="ac248f96-ffcf-470b-9b7d-4f2269285981" d="M66.6,15.33a3.22,3.22,0,0,1,.88-1.88,2.61,2.61,0,0,1,1.85-.65,1.93,1.93,0,0,1,1.65.65,2.46,2.46,0,0,1,.28,1.88l-.06.39H69.71l.07-.49a1,1,0,0,0-.08-.77.66.66,0,0,0-.55-.22.87.87,0,0,0-.62.22,1.32,1.32,0,0,0-.33.77,1.7,1.7,0,0,0,.09.91,2.88,2.88,0,0,0,.45.75c.2.24.41.47.63.71a4.65,4.65,0,0,1,.62.77,3.11,3.11,0,0,1,.43.94,3.27,3.27,0,0,1,0,1.26,3.12,3.12,0,0,1-.9,1.87,2.58,2.58,0,0,1-1.86.66A1.94,1.94,0,0,1,66,22.44a2.39,2.39,0,0,1-.3-1.87l.11-.69h1.5l-.13.79a.93.93,0,0,0,.1.77.69.69,0,0,0,.56.22.91.91,0,0,0,.63-.22,1.18,1.18,0,0,0,.35-.76,1.73,1.73,0,0,0-.09-.92,3,3,0,0,0-.45-.74c-.2-.24-.41-.48-.63-.71a5.1,5.1,0,0,1-.62-.77,2.89,2.89,0,0,1-.46-2.21Z"/><path class="ac248f96-ffcf-470b-9b7d-4f2269285981" d="M75.26,12.91h1.58l-1.37,8.63h2.61L77.85,23H73.66Z"/><path class="ac248f96-ffcf-470b-9b7d-4f2269285981" d="M79.81,15.33a3.11,3.11,0,0,1,.92-1.88,2.72,2.72,0,0,1,1.88-.65,2,2,0,0,1,1.68.65,2.33,2.33,0,0,1,.33,1.88l-.83,5.24a3.08,3.08,0,0,1-.92,1.87A2.69,2.69,0,0,1,81,23.1a2,2,0,0,1-1.68-.66A2.35,2.35,0,0,1,79,20.57Zm.74,5.34a1,1,0,0,0,.1.77.68.68,0,0,0,.56.22.91.91,0,0,0,.63-.22,1.23,1.23,0,0,0,.35-.77l.86-5.44a1,1,0,0,0-.1-.77.69.69,0,0,0-.56-.22,1,1,0,0,0-.64.22,1.26,1.26,0,0,0-.34.77Z"/><path class="ac248f96-ffcf-470b-9b7d-4f2269285981" d="M87.81,17.39H90l-.51,3.19a3,3,0,0,1-.89,1.87,2.65,2.65,0,0,1-1.86.65,1.94,1.94,0,0,1-1.66-.66,2.39,2.39,0,0,1-.3-1.87l.83-5.24a3.14,3.14,0,0,1,.89-1.88,2.66,2.66,0,0,1,1.87-.65,2,2,0,0,1,1.66.65,2.46,2.46,0,0,1,.3,1.88l-.16,1H88.7l.18-1.08a1,1,0,0,0-.11-.77.68.68,0,0,0-.56-.22.91.91,0,0,0-.63.22,1.21,1.21,0,0,0-.34.77l-.87,5.45a1,1,0,0,0,.1.76.71.71,0,0,0,.57.22.91.91,0,0,0,.63-.22,1.2,1.2,0,0,0,.34-.76l.3-1.85h-.72Z"/><path class="ac248f96-ffcf-470b-9b7d-4f2269285981" d="M91.8,12.91h1.59L91.79,23H90.21Z"/><path class="ac248f96-ffcf-470b-9b7d-4f2269285981" d="M94.08,15.33A3.22,3.22,0,0,1,95,13.45a2.61,2.61,0,0,1,1.85-.65,1.93,1.93,0,0,1,1.65.65,2.46,2.46,0,0,1,.28,1.88l-.06.39H97.19l.07-.49a1,1,0,0,0-.08-.77.66.66,0,0,0-.55-.22.87.87,0,0,0-.62.22,1.32,1.32,0,0,0-.33.77,1.7,1.7,0,0,0,.09.91,2.88,2.88,0,0,0,.45.75c.2.24.41.47.63.71a4.65,4.65,0,0,1,.62.77,3.11,3.11,0,0,1,.43.94,3.27,3.27,0,0,1,0,1.26,3.12,3.12,0,0,1-.9,1.87,2.58,2.58,0,0,1-1.86.66,1.94,1.94,0,0,1-1.66-.66,2.39,2.39,0,0,1-.3-1.87l.11-.69h1.5l-.13.79a.93.93,0,0,0,.1.77.69.69,0,0,0,.56.22.91.91,0,0,0,.63-.22,1.18,1.18,0,0,0,.35-.76,1.73,1.73,0,0,0-.09-.92,3,3,0,0,0-.45-.74c-.2-.24-.41-.48-.63-.71a5.1,5.1,0,0,1-.62-.77,2.89,2.89,0,0,1-.46-2.21Z"/><path class="ac248f96-ffcf-470b-9b7d-4f2269285981" d="M99.79,12.91h4.89l-.23,1.44H102.8L101.43,23H99.85l1.37-8.63H99.56Z"/><path class="ac248f96-ffcf-470b-9b7d-4f2269285981" d="M105.57,12.91h1.59L105.56,23H104Z"/><path class="ac248f96-ffcf-470b-9b7d-4f2269285981" d="M112,19.24l-.21,1.34a3.09,3.09,0,0,1-.89,1.87,2.66,2.66,0,0,1-1.87.65,1.92,1.92,0,0,1-1.65-.66,2.39,2.39,0,0,1-.3-1.87l.83-5.24a3.14,3.14,0,0,1,.89-1.88,2.66,2.66,0,0,1,1.87-.65,2,2,0,0,1,1.66.65,2.46,2.46,0,0,1,.29,1.88l-.15,1h-1.5l.17-1.08a.94.94,0,0,0-.1-.77.68.68,0,0,0-.56-.22.91.91,0,0,0-.63.22,1.26,1.26,0,0,0-.35.77l-.86,5.45a1,1,0,0,0,.1.76.71.71,0,0,0,.57.22.93.93,0,0,0,.63-.22,1.2,1.2,0,0,0,.34-.76l.23-1.44Z"/><path class="ac248f96-ffcf-470b-9b7d-4f2269285981" d="M113.56,15.33a3.22,3.22,0,0,1,.88-1.88,2.61,2.61,0,0,1,1.85-.65,1.93,1.93,0,0,1,1.65.65,2.46,2.46,0,0,1,.28,1.88l-.06.39h-1.49l.07-.49a1,1,0,0,0-.08-.77.66.66,0,0,0-.55-.22.87.87,0,0,0-.62.22,1.32,1.32,0,0,0-.33.77,1.7,1.7,0,0,0,.09.91,2.88,2.88,0,0,0,.45.75c.2.24.41.47.63.71a4.65,4.65,0,0,1,.62.77,3.11,3.11,0,0,1,.43.94,3.08,3.08,0,0,1,0,1.26,3.17,3.17,0,0,1-.89,1.87,2.62,2.62,0,0,1-1.87.66,1.94,1.94,0,0,1-1.66-.66,2.39,2.39,0,0,1-.3-1.87l.11-.69h1.5l-.13.79a.93.93,0,0,0,.1.77.69.69,0,0,0,.56.22.91.91,0,0,0,.63-.22,1.18,1.18,0,0,0,.35-.76,1.73,1.73,0,0,0-.09-.92,3,3,0,0,0-.45-.74c-.2-.24-.41-.48-.63-.71a5.1,5.1,0,0,1-.62-.77,2.89,2.89,0,0,1-.46-2.21Z"/><path class="e852ef96-90a4-41a7-9cd2-fbdbb29daa42" d="M137,15.37a.61.61,0,0,0,0-.84l0,0a.61.61,0,0,0-.34-.17,2.31,2.31,0,0,1-1.52-1,2.32,2.32,0,0,1,3.59-2.91,2.22,2.22,0,0,1,.63,1.21.66.66,0,0,0,.18.35l0,0a.61.61,0,0,0,.85,0l2.23-2.23a.65.65,0,0,0,0-.93L134.82,1a.66.66,0,0,0-.94,0l-7.81,7.81a.65.65,0,0,0,0,.93l7.81,7.81a.66.66,0,0,0,.94,0Z"/><path class="e27405d8-48a2-44a5-85ea-434b299e472d" d="M151.38,17.6l-7.81-7.81a.66.66,0,0,0-.94,0l-2.2,2.2a.63.63,0,0,1-.88,0l0,0a.66.66,0,0,1-.18-.35,2.22,2.22,0,0,0-.63-1.21,2.32,2.32,0,1,0-2.07,3.92.61.61,0,0,1,.34.17l0,0a.62.62,0,0,1,0,.87l-2.2,2.2a.66.66,0,0,0,0,.94L137,20.75a.61.61,0,0,0,.86,0l0,0a.61.61,0,0,0,.17-.34A2.32,2.32,0,1,1,142,22.45a2.24,2.24,0,0,1-1.21.62.78.78,0,0,0-.35.18l0,0a.63.63,0,0,0,0,.88l2.2,2.2a.66.66,0,0,0,.94,0l7.81-7.81A.68.68,0,0,0,151.38,17.6Z"/><path class="a3d272ab-df87-4458-97a1-37e2385e8bf7" d="M139.1,18.85a2.31,2.31,0,0,0-1,1.52.61.61,0,0,1-.17.34l0,0a.62.62,0,0,1-.87,0l-2.2-2.2a.66.66,0,0,0-.94,0l-7.81,7.81a.66.66,0,0,0,0,.94l7.81,7.81a.66.66,0,0,0,.94,0l7.81-7.81a.66.66,0,0,0,0-.94l-2.2-2.2a.63.63,0,0,1,0-.88l0,0a.78.78,0,0,1,.35-.18,2.24,2.24,0,0,0,1.21-.62,2.33,2.33,0,0,0-2.91-3.6Z"/><path class="bef36608-0417-4415-98d0-689d70c485cd" d="M152,17,135.42.44A1.54,1.54,0,0,0,134.35,0a1.5,1.5,0,0,0-1.06.44l-7.81,7.81a1.5,1.5,0,0,0,0,2.13l7.45,7.46a.32.32,0,0,1,0,.46l-7.45,7.45a1.5,1.5,0,0,0,0,2.13l7.8,7.81a1.52,1.52,0,0,0,2.14,0L152,19.14A1.5,1.5,0,0,0,152,17ZM134.12,34.86l-7.81-7.81a.34.34,0,0,1,0-.46l7.81-7.81a.31.31,0,0,1,.46,0l2.2,2.2a1,1,0,0,0,1.35,0l0,0a.86.86,0,0,0,.26-.52,2,2,0,0,1,.87-1.3,2,2,0,0,1,2.16,0,2,2,0,0,1,.89,1.47,2,2,0,0,1-.57,1.6,2,2,0,0,1-1,.53,1.09,1.09,0,0,0-.55.29,1,1,0,0,0,0,1.36l2.2,2.2a.32.32,0,0,1,0,.46l-7.81,7.81A.34.34,0,0,1,134.12,34.86Zm8.27-25.31-2.23,2.22a.3.3,0,0,1-.47-.21,2.65,2.65,0,0,0-2.61-2.17,2.7,2.7,0,0,0-2.23,1.2,2.67,2.67,0,0,0,0,2.91,2.6,2.6,0,0,0,1.74,1.16.27.27,0,0,1,.16.08l0,0a.24.24,0,0,1,.08.19.25.25,0,0,1-.06.17l-2.22,2.22a.33.33,0,0,1-.46,0l-7.81-7.81a.35.35,0,0,1-.09-.23.32.32,0,0,1,.09-.23l7.81-7.81a.31.31,0,0,1,.46,0l7.81,7.81A.32.32,0,0,1,142.39,9.55Zm.48,16.56-2.2-2.2a.29.29,0,0,1,0-.42.33.33,0,0,1,.18-.08,2.58,2.58,0,0,0,1.38-.73,2.66,2.66,0,0,0-3.33-4.11,2.6,2.6,0,0,0-1.16,1.74.33.33,0,0,1-.08.17l0,0a.28.28,0,0,1-.39,0l-2.2-2.21a.31.31,0,0,1,0-.46l2.2-2.2a1,1,0,0,0,0-1.35l0,0a.92.92,0,0,0-.52-.26,2,2,0,0,1-1.3-.87,2,2,0,0,1,3.08-2.48,2,2,0,0,1,.53,1,1,1,0,0,0,.29.55,1,1,0,0,0,1.36,0l2.2-2.2a.34.34,0,0,1,.46,0l7.81,7.81a.34.34,0,0,1,0,.46l-7.81,7.81A.34.34,0,0,1,142.87,26.11Z"/></g></g></svg>