<svg xmlns="http://www.w3.org/2000/svg" xmlns:xlink="http://www.w3.org/1999/xlink" viewBox="0 0 104.28 106.33"><style><![CDATA[.N{mix-blend-mode:multiply}]]></style><defs><clipPath id="A"><path d="M37.88 21.75L52.35 7.28l20.16 20V54.8H36.6l1.3-33.06z" fill="none"/></clipPath><radialGradient id="B" cx="2412.06" cy="66.92" r="31.57" gradientTransform="matrix(-0.77, 0, 0, 0.07, 1907.98, 62.44)" gradientUnits="userSpaceOnUse"><stop offset="0" stop-color="#303030"/><stop offset=".27" stop-color="#505050" stop-opacity=".85"/><stop offset=".68" stop-color="#a7a7a7" stop-opacity=".43"/><stop offset="1" stop-color="#fff" stop-opacity="0"/></radialGradient><path id="C" d="M41.74 31.9l1.03-1.03 1.03 1.03-1.03 1.03z"/><path id="D" d="M67.15 38.8a.71.71 0 1 1 1 0 .71.71 0 0 1-1 0zm.06-.07a.62.62 0 0 0 .87 0 .6.6 0 0 0 0-.87.62.62 0 0 0-.87 0 .63.63 0 0 0 0 .87z"/></defs><g clip-path="url(#A)"><g opacity=".2" fill="#353535"><path d="M70.13 22.43l7.7 7.72 4.73-4.74 7.77 7.78.12-.12-7.9-7.9-4.73 4.73-7.48-7.48 3.27-3.27-2.86-2.86-.1.12 2.74 2.74-3.27 3.27z"/><path d="M90.1 32.82a.44.44 0 1 0 .63 0 .44.44 0 0 0-.63 0zM82.3 25a.45.45 0 0 0 0 .63.44.44 0 0 0 .62 0 .45.45 0 0 0 0-.63.44.44 0 0 0-.62 0zm-11.8-8.86a.36.36 0 1 0 .51.51.36.36 0 0 0-.51-.51zm7.07 13.62a.44.44 0 1 0 .62 0 .43.43 0 0 0-.62 0zM69.9 22.1a.43.43 0 0 0 0 .62.44.44 0 0 0 .62 0 .45.45 0 0 0 0-.63.43.43 0 0 0-.62.01zm3.35-3.1a.27.27 0 0 0 0 .39.26.26 0 0 0 .38 0 .27.27 0 0 0 0-.39.26.26 0 0 0-.38 0zM51.63 8.22l7.7 7.7 4.74-4.73 7.77 7.77.1-.12-7.9-7.9-4.73 4.74-7.48-7.48 3.27-3.28-2.86-2.86-.1.12 2.74 2.75L51.6 8.2z"/><path d="M71.6 18.6a.44.44 0 0 0 .62.62.43.43 0 0 0 0-.62.44.44 0 0 0-.62 0zm-7.8-7.8a.44.44 0 1 0 .62.62.43.43 0 0 0 0-.62.44.44 0 0 0-.62 0zM52 1.92a.36.36 0 1 0 .51 0 .37.37 0 0 0-.51 0zm7.07 13.62a.44.44 0 1 0 .62 0 .44.44 0 0 0-.62 0zM51.4 7.87a.43.43 0 0 0 0 .62.44.44 0 0 0 .61-.62.45.45 0 0 0-.61 0zm3.35-3.12a.27.27 0 0 0 0 .39.26.26 0 0 0 .38 0 .27.27 0 1 0-.38-.39zm4.75 18.2l7.72 7.7 4.73-4.73 7.77 7.77.12-.12-7.9-7.88-4.73 4.73-7.48-7.48L63 19.67l-2.86-2.86-.12.1 2.75 2.75-3.28 3.27z"/><path d="M79.46 33.32a.45.45 0 0 0 0 .63.44.44 0 0 0 .62 0 .45.45 0 0 0 0-.63.44.44 0 0 0-.62 0zm-7.8-7.8a.44.44 0 0 0 .62.63.45.45 0 0 0 0-.63.44.44 0 0 0-.62 0zm-11.8-8.88a.36.36 0 0 0 0 .51.36.36 0 1 0 0-.51zm7.06 13.6a.45.45 0 0 0 .63.63.45.45 0 0 0-.63-.63zm-7.67-7.66a.44.44 0 0 0 0 .62.44.44 0 1 0 0-.62zm3.34-3.13a.29.29 0 0 0 0 .39.28.28 0 0 0 .39-.39.29.29 0 0 0-.39 0zM73.87 49.8l.1.12 2.75-2.74L80 50.46l7.7-7.7-4.73-4.73 7.77-7.78-.1-.1-7.9 7.9 4.73 4.73L80 50.22l-3.27-3.27-2.86 2.86z"/><path d="M90.38 30.5a.45.45 0 1 0 0-.63.45.45 0 0 0 0 .63zm-7.78 7.8a.45.45 0 1 0 0-.63.45.45 0 0 0 0 .63zm-8.9 11.8a.36.36 0 1 0 0-.51.37.37 0 0 0 0 .51zM87.32 43a.45.45 0 0 0 .68 0 .44.44 0 0 0 0-.62.43.43 0 0 0-.63 0 .44.44 0 0 0-.05.62zm-7.67 7.7a.44.44 0 1 0 0-.62.44.44 0 0 0 0 .62zm-3.1-3.36a.27.27 0 1 0 0-.38.26.26 0 0 0 0 .38zM49.1 25.04l.12.12 2.75-2.75 3.27 3.28 7.72-7.7-4.74-4.74L66 5.48l-.1-.1-7.9 7.88L62.72 18l-7.48 7.47-3.27-3.27-2.87 2.86z"/><path d="M65.6 5.73a.45.45 0 0 0 .63-.63.45.45 0 0 0-.63.63zm-7.78 7.8a.45.45 0 0 0 .63-.63.45.45 0 0 0-.63.63zm-8.88 11.8a.36.36 0 1 0 0-.51.36.36 0 0 0 0 .51zm13.62-7.07a.44.44 0 1 0 .62-.62.44.44 0 1 0-.62.62zm-7.68 7.67a.44.44 0 0 0 .62 0 .43.43 0 0 0 0-.62.45.45 0 0 0-.63 0 .44.44 0 0 0 .01.62zm-3.1-3.35a.26.26 0 0 0 .38 0 .27.27 0 0 0 0-.39.26.26 0 0 0-.38 0 .27.27 0 0 0 0 .39zm1.43 16.96l.1.12 2.75-2.75 3.27 3.28 7.72-7.72-4.74-4.73 7.77-7.77-.12-.1-7.88 7.88 4.73 4.73-7.48 7.48-3.27-3.27-2.86 2.86z"/><path d="M69.7 20.22a.44.44 0 0 0 .62 0 .43.43 0 0 0 0-.63.44.44 0 0 0-.62 0 .45.45 0 0 0 0 .63zm-7.88 7.7a.45.45 0 1 0 0-.63.44.44 0 0 0 0 .63zM53 39.8a.36.36 0 1 0 0-.51.36.36 0 0 0 0 .51zm13.64-7.06a.45.45 0 0 0 .63-.63.45.45 0 0 0-.63.63zM59 40.4a.44.44 0 0 0 .62 0 .42.42 0 0 0 0-.62.44.44 0 1 0-.62.62z"/><circle cx="56.05" cy="36.86" r=".27"/><path d="M38.84 20.23l.1.12 2.75-2.74 3.27 3.27 7.7-7.7-4.73-4.74L55.72.66l-.12-.1-7.9 7.88 4.74 4.73-7.48 7.48-3.27-3.27-2.86 2.86z"/><path d="M55.35.92a.44.44 0 0 0 .62 0 .45.45 0 0 0 0-.63.44.44 0 0 0-.62 0 .45.45 0 0 0 0 .63zm-7.8 7.78a.42.42 0 0 0 .62 0 .44.44 0 1 0-.62 0zm-8.88 11.8a.36.36 0 0 0 .51 0 .37.37 0 0 0 0-.51.36.36 0 0 0-.51.51zm13.62-7.06a.45.45 0 0 0 .63 0 .46.46 0 0 0 0-.63.45.45 0 0 0-.63.63zm-7.68 7.66a.44.44 0 0 0 .62-.62.42.42 0 0 0-.62 0 .44.44 0 0 0 0 .62zm-3.12-3.34a.28.28 0 1 0 0-.39.28.28 0 0 0 0 .39zm-4.65 17.78l.12.12 2.74-2.75 3.27 3.28 7.72-7.72-4.74-4.73 7.77-7.77-.1-.12-7.9 7.9 4.73 4.73-7.48 7.48-3.27-3.28-2.86 2.87z"/><path d="M53.36 16.22a.45.45 0 0 0 .63 0 .44.44 0 0 0 0-.62.45.45 0 0 0-.63 0 .44.44 0 0 0 0 .62zM45.57 24a.45.45 0 0 0 .63 0 .44.44 0 0 0 0-.62.45.45 0 0 0-.63 0 .44.44 0 0 0 0 .62zM36.7 35.8a.36.36 0 0 0 .51-.51.37.37 0 0 0-.51 0 .36.36 0 0 0 0 .51zm13.6-7.05a.43.43 0 0 0 .62 0 .44.44 0 1 0-.62-.62.43.43 0 0 0 0 .62zm-7.67 7.67a.44.44 0 0 0 .62 0 .44.44 0 1 0-.62-.62.44.44 0 0 0 0 .62zm-3.1-3.35a.29.29 0 0 0 .39 0 .28.28 0 0 0 0-.39.28.28 0 0 0-.39.39zm14.55 1.78l.06.05 1.23-1.24 1.48 1.48 3.5-3.48-2.14-2.14 3.5-3.5-.05-.06-3.57 3.57 2.14 2.14-3.38 3.37-1.47-1.47-1.3 1.3z"/><path d="M61.53 26.13a.2.2 0 0 0 .28 0 .19.19 0 0 0 0-.28.2.2 0 0 0-.28 0 .21.21 0 0 0 0 .28zM58 29.64a.2.2 0 0 0 .28-.28.2.2 0 0 0-.28 0 .19.19 0 0 0 0 .28zM54 35a.16.16 0 1 0 0-.23.18.18 0 0 0 0 .23zm6.15-3.22a.2.2 0 1 0 0-.28.19.19 0 0 0 0 .28zm-3.47 3.47a.22.22 0 0 0 .29 0A.21.21 0 0 0 57 35a.21.21 0 0 0-.29 0 .21.21 0 0 0-.03.25zm-1.4-1.52a.12.12 0 1 0 0-.17.12.12 0 0 0 0 .17zM46.26 21.4l-.05-.06-1.24 1.24-1.48-1.48L40 24.6l2.14 2.13-3.52 3.5.06.06 3.56-3.56-2.14-2.14 3.38-3.38 1.48 1.48 1.3-1.3z"/><path d="M38.8 30.1a.2.2 0 0 0-.28 0 .22.22 0 0 0 0 .29.2.2 0 0 0 .28 0 .19.19 0 0 0 0-.29zm3.52-3.5a.2.2 0 1 0 0 .28.19.19 0 0 0 0-.28zm4-5.34a.16.16 0 1 0 0 .23.17.17 0 0 0 0-.23zm-6.15 3.2a.2.2 0 0 0-.28.28.2.2 0 0 0 .28 0 .19.19 0 0 0 0-.28zM43.65 21a.2.2 0 1 0 0 .28.19.19 0 0 0 0-.28zm1.4 1.5a.14.14 0 0 0-.18 0 .13.13 0 1 0 .18.18.15.15 0 0 0 0-.18zm41.26 10.66l-.08-.1-1.96 1.96-2.34-2.33-5.5 5.5 3.38 3.38-5.54 5.54.08.08 5.62-5.62-3.37-3.38 5.33-5.33 2.34 2.33 2.04-2.04z"/><path d="M74.54 46.94a.33.33 0 0 0-.45 0 .31.31 0 1 0 .45 0zm5.56-5.56a.33.33 0 0 0-.45 0 .31.31 0 1 0 .45.44.31.31 0 0 0 0-.44zM86.43 33a.25.25 0 0 0-.36 0 .25.25 0 1 0 .36.36.25.25 0 0 0 0-.36zm-9.7 5a.31.31 0 1 0-.44.45.31.31 0 0 0 .44 0 .33.33 0 0 0 0-.45zm5.48-5.47a.31.31 0 1 0-.44.45.31.31 0 1 0 .44-.45zm2.2 2.4a.2.2 0 0 0-.27 0 .2.2 0 0 0 .28.28.2.2 0 0 0-.01-.28zM59.58 33.1l-.1.08 1.96 1.96-2.33 2.33 5.5 5.5L68 39.6l5.54 5.54.08-.1-5.62-5.6-3.37 3.37-5.34-5.33 2.34-2.33-2.04-2.04z"/><path d="M73.43 44.9a.33.33 0 0 0 0 .45.31.31 0 1 0 .44-.45.31.31 0 0 0-.44 0zm-5.63-5.57a.31.31 0 1 0 .45.44.31.31 0 0 0 0-.44.33.33 0 0 0-.45 0zM59.38 33a.26.26 0 1 0 .37.36.26.26 0 0 0-.37-.36zm5.05 9.7a.3.3 0 0 0 0 .44.31.31 0 1 0 .44-.44.3.3 0 0 0-.44 0zM59 37.23a.32.32 0 1 0 .45 0 .33.33 0 0 0-.45 0zM61.34 35a.19.19 0 0 0 0 .28.21.21 0 0 0 .28 0 .2.2 0 0 0 0-.28.19.19 0 0 0-.28 0zM42.8 27.32l-.08.08 1.96 1.96-2.34 2.34 5.5 5.5 3.38-3.38 5.54 5.55.08-.1-5.62-5.62-3.38 3.37-5.33-5.33 2.33-2.33-2.04-2.05z"/><path d="M56.6 39.1a.33.33 0 0 0 0 .45.31.31 0 1 0 .44-.45.31.31 0 0 0-.44 0zM51 33.55a.31.31 0 0 0 0 .45.33.33 0 0 0 .45 0 .32.32 0 0 0-.45-.45zm-8.4-6.35a.25.25 0 0 0 0 .36.25.25 0 0 0 .36-.36.27.27 0 0 0-.36 0zm5.06 9.72a.31.31 0 1 0 .44 0 .31.31 0 0 0-.44 0zm-5.46-5.47a.31.31 0 0 0 0 .44.31.31 0 1 0 0-.44zm2.37-2.22a.2.2 0 0 0 0 .27.19.19 0 0 0 .28 0 .18.18 0 0 0 0-.27.19.19 0 0 0-.28 0zM61.33 1.56l-.1.08L63.2 3.6l-2.33 2.33 5.5 5.5 3.38-3.38 5.54 5.54.08-.08-5.62-5.63-3.38 3.38-5.33-5.34 2.33-2.33-2.04-2.04z"/><path d="M75.1 13.34a.33.33 0 0 0 0 .45.32.32 0 0 0 .45-.45.31.31 0 0 0-.45 0zm-5.55-5.56a.32.32 0 1 0 .45 0 .33.33 0 0 0-.45 0zm-8.4-6.33a.25.25 0 0 0 0 .36.25.25 0 0 0 .36 0 .27.27 0 0 0 0-.36.25.25 0 0 0-.36 0zm4.98 9.8a.31.31 0 1 0 .44 0 .31.31 0 0 0-.44 0zM60.7 5.68a.32.32 0 0 0 0 .45.32.32 0 0 0 .45-.45.31.31 0 0 0-.45 0zm2.4-2.22a.19.19 0 1 0 .27 0 .19.19 0 0 0-.27 0zm17.24 33.9l-.03.04.83.83-1 1 2.35 2.35 1.44-1.44 2.36 2.37.04-.04-2.4-2.4-1.44 1.44-2.27-2.28 1-1-.87-.87z"/><path d="M86.2 42.4a.14.14 0 0 0 0 .19.13.13 0 0 0 .19 0 .14.14 0 0 0 0-.19.15.15 0 0 0-.19 0zM83.85 40a.13.13 0 0 0 0 .19.13.13 0 1 0 0-.19zm-3.6-2.68a.12.12 0 0 0 0 .16.1.1 0 0 0 .15 0 .11.11 0 1 0-.15-.15zm2.14 4.14a.13.13 0 0 0 0 .19.13.13 0 0 0 .19-.19.13.13 0 0 0-.19 0zm-2.33-2.33a.13.13 0 1 0 .18 0 .13.13 0 0 0-.18 0zm1.03-.95a.08.08 0 0 0 .12.12.08.08 0 0 0 0-.12s-.08-.03-.12 0zM68.8 29.5l-.03.04.83.83-1 1 2.35 2.34 1.44-1.43 2.36 2.36.04-.04-2.4-2.4-1.44 1.44-2.27-2.27 1-1-.87-.87z"/><path d="M74.68 34.5a.14.14 0 0 0 0 .19.14.14 0 0 0 .2 0 .13.13 0 0 0 0-.19.14.14 0 0 0-.2 0zm-2.36-2.36a.13.13 0 0 0 0 .19.13.13 0 1 0 .19-.18.13.13 0 0 0-.19-.01zm-3.6-2.7a.12.12 0 0 0 0 .16.11.11 0 1 0 .15-.15.1.1 0 0 0-.15-.01zm2.15 4.14a.13.13 0 0 0 .19.19.13.13 0 1 0-.19-.19zm-2.33-2.33a.13.13 0 0 0 .19.19.14.14 0 0 0 0-.19.12.12 0 0 0-.19 0zm1-.95a.09.09 0 0 0 0 .12.08.08 0 0 0 .12-.12.09.09 0 0 0-.12 0zM62.5 13.27l-.04.04.95.96-1.14 1.13 2.68 2.7 1.65-1.65 2.7 2.7.04-.04-2.74-2.74L64.96 18l-2.6-2.6 1.14-1.14-1-1z"/><path d="M69.22 19a.16.16 0 1 0 .22 0 .16.16 0 0 0-.22 0zm-2.72-2.7a.16.16 0 1 0 .22 0 .17.17 0 0 0-.22 0zm-4.1-3.08a.12.12 0 0 0 0 .17.13.13 0 0 0 .18 0 .12.12 0 0 0 0-.17.13.13 0 0 0-.18 0zM64.87 18a.15.15 0 1 0 .22 0 .16.16 0 0 0-.22 0zm-2.67-2.72a.16.16 0 1 0 .22 0 .17.17 0 0 0-.22 0zm1.17-1.08a.09.09 0 1 0 .13 0 .09.09 0 0 0-.13 0zm7.83 27.47l.04.04.94-.94 1.12 1.12 2.63-2.64-1.6-1.6L76.97 35l-.04-.04-2.7 2.7 1.62 1.62-2.55 2.55-1.12-1.12-.98.98z"/><path d="M76.84 35.07a.15.15 0 1 0 0-.21.14.14 0 0 0 0 .21zm-2.66 2.66a.14.14 0 0 0 .21 0 .15.15 0 0 0 0-.21.16.16 0 0 0-.22 0 .15.15 0 0 0 .01.21zm-3.03 4.03a.12.12 0 1 0 0-.17.12.12 0 0 0 0 .17zm4.65-2.4a.17.17 0 0 0 .21 0 .14.14 0 0 0 0-.21.13.13 0 0 0-.21 0 .14.14 0 0 0 0 .21zM73.18 42a.15.15 0 0 0 .21 0 .15.15 0 1 0-.21 0zm-1.08-1.18a.11.11 0 0 0 .14 0 .12.12 0 0 0 0-.14.11.11 0 0 0-.14 0 .09.09 0 0 0 0 .14zM58.37 27.46l-.04-.04-.94.94-1.12-1.12-2.63 2.64 1.62 1.6-2.66 2.66.05.04 2.7-2.7-1.62-1.6 2.56-2.56 1.1 1.12.98-.98z"/><path d="M52.73 34.06a.15.15 0 1 0 0 .21.14.14 0 0 0 0-.21zm2.67-2.66a.14.14 0 0 0-.21 0 .16.16 0 0 0 0 .22.15.15 0 1 0 .21-.22zm3.02-4.03a.12.12 0 1 0 0 .17.11.11 0 0 0 0-.17zm-4.65 2.4a.15.15 0 1 0 0 .22.16.16 0 0 0 0-.22zm2.63-2.62a.15.15 0 1 0-.21.21.14.14 0 0 0 .21 0 .14.14 0 0 0 0-.21zm1.06 1.14a.09.09 0 1 0-.13.13.1.1 0 0 0 .14 0 .09.09 0 0 0-.01-.13zm2.72-22.54l-.03-.03-.73.73-.87-.87-2.06 2.06 1.27 1.26-2.08 2.07.03.03 2.1-2.1-1.26-1.26 2-2 .87.88.76-.77z"/><path d="M55.78 10.9a.12.12 0 0 0-.16 0 .12.12 0 1 0 .17 0zm2.07-2.06a.1.1 0 0 0-.16 0 .12.12 0 0 0 0 .16.12.12 0 0 0 .17 0 .11.11 0 0 0-.01-.16zm2.37-3.14a.09.09 0 0 0-.13 0 .1.1 0 0 0 0 .13.09.09 0 1 0 .13-.13zM56.6 7.58a.1.1 0 0 0-.16 0 .11.11 0 0 0 0 .16.11.11 0 1 0 .16-.16zm2.04-2.05a.11.11 0 0 0-.17 0 .12.12 0 0 0 .17.17.11.11 0 0 0 0-.17zm.83.9h-.1a.07.07 0 1 0 .1 0zm18.1 14.2l-.04-.03-.73.73-.87-.87-2.06 2.05 1.27 1.27-2.08 2.07.03.03 2.1-2.1-1.26-1.26 2-2 .87.88.77-.77z"/><path d="M73.15 25.8a.12.12 0 0 0-.16 0 .12.12 0 0 0 .01.2.12.12 0 0 0 .17-.17zm2.08-2.08a.12.12 0 0 0-.17 0 .12.12 0 0 0 0 .16.11.11 0 0 0 .17 0 .1.1 0 0 0 0-.16zm2.37-3.15a.1.1 0 0 0-.14.14.12.12 0 0 0 .14 0c.03-.05.04-.1 0-.14zm-3.6 1.9a.12.12 0 1 0-.17.17.14.14 0 0 0 .17 0 .12.12 0 0 0 0-.17zm2-2.06a.11.11 0 1 0 0 .16.1.1 0 0 0 0-.16zm.85.9a.08.08 0 1 0-.11.11.08.08 0 0 0 .1 0 .08.08 0 0 0 .01-.11zm-17.4-4.6l-.04-.03-.94.93-1.1-1.12-2.64 2.64 1.62 1.6-2.65 2.65.03.05 2.7-2.7-1.62-1.6 2.56-2.56 1.1 1.12.98-.98z"/><path d="M53.82 23.3a.15.15 0 1 0 0 .21.14.14 0 0 0 0-.21zm2.66-2.65a.15.15 0 1 0 0 .21.14.14 0 0 0 0-.21zm3.02-4.03a.11.11 0 0 0-.17 0 .12.12 0 0 0 .17.18.13.13 0 0 0 0-.18zM54.87 19a.16.16 0 0 0-.22 0 .17.17 0 0 0 0 .21.15.15 0 0 0 .22 0 .16.16 0 0 0 0-.21zm2.63-2.6a.16.16 0 0 0-.22 0 .17.17 0 0 0 0 .22.16.16 0 0 0 .22-.22zm1.05 1.16a.09.09 0 1 0 0 .13.09.09 0 0 0 0-.13zM56.57.5l-.04.04.94.93-1.12 1.12 2.63 2.63 1.62-1.6 2.65 2.65.04-.04-2.7-2.7-1.62 1.6-2.55-2.55 1.12-1.12-.98-.97z"/><path d="M63.16 6.13a.17.17 0 0 0 0 .21.16.16 0 0 0 .22 0 .14.14 0 0 0 0-.21.16.16 0 0 0-.22 0zM60.5 3.46a.17.17 0 0 0 0 .22.16.16 0 1 0 .22-.22.17.17 0 0 0-.22 0zM56.48.43a.11.11 0 0 0 0 .17.12.12 0 0 0 .17 0 .13.13 0 0 0 0-.18.11.11 0 0 0-.17.01zm2.42 4.65a.15.15 0 1 0 .21 0 .14.14 0 0 0-.21 0zm-2.63-2.62a.15.15 0 1 0 .21 0 .14.14 0 0 0-.21 0zM57.4 1.4a.09.09 0 0 0 0 .13.07.07 0 0 0 .12 0 .09.09 0 0 0-.13-.13zm11.77 39.28l.12.12 7.9-7.9-4.73-4.73 7.47-7.48 3.28 3.28 2.86-2.87-.12-.1-2.74 2.74-3.28-3.27-7.7 7.7 4.73 4.73-7.77 7.77z"/><path d="M69.55 40.43a.45.45 0 0 0-.63 0 .44.44 0 1 0 .63 0zm7.78-7.8a.44.44 0 0 0-.62.62.43.43 0 0 0 .63 0 .44.44 0 0 0-.01-.62zm8.87-11.8a.35.35 0 0 0-.5 0 .35.35 0 1 0 .5.5.35.35 0 0 0 0-.5zM72.6 27.9a.44.44 0 1 0 0 .62.43.43 0 0 0 0-.62zm7.68-7.66a.44.44 0 1 0-.63.62.45.45 0 0 0 .63 0 .44.44 0 0 0 0-.62zm3.12 3.34a.29.29 0 0 0-.39 0 .28.28 0 1 0 .39 0z"/><path d="M71.85 12.47l.06-.06 7.92 8.03z"/><path d="M71.54 12.1a.48.48 0 1 0 .68 0 .48.48 0 0 0-.68 0zm2.13 33.1l.06.06 3.68-3.68 2.46.06.01-.08-2.5-.06-3.7 3.7zM50.53 28.52l.96.96 3.66-3.65-.06-.06-3.6 3.6-.9-.9-.06.06zM67.97 39.5l.1.1 3.07-3.07L67 32.38l-.1.1 4.05 4.05-3 2.98zm-15.4-26.42l.1.1 1.23-1.23-3.08-3.08.77-.77-.08-.1-.86.86 3.07 3.08-1.14 1.14zm-1.43 8.6l.77.77.08-.1-.67-.67 4.1-4.1-1.7-1.7-.1.1 1.6 1.6-4.1 4.1zm10.3 13.43l.08.08 2.75-2.74-3.5-3.5 1.36-1.36-.08-.1-1.45 1.45 3.5 3.5-2.65 2.66zm-3.87-8.28l.7.7.06-.06-.64-.65 2.4-2.4 1.57 1.57.06-.05-1.63-1.64-2.53 2.53z"/><path d="M87.63 42.7l.06.06.94-.95-3.43-3.43 5.23-5.22-.06-.06-5.28 5.28 3.42 3.43-.88.9zm-2.4-17.63l5.32 5.32.07-.06-5.27-5.27 2.3-2.3-1.68-1.7-.06.06 1.63 1.63-2.3 2.3zM70.7 16.35l.1.1 1.4-1.4-3.32-3.32-1.17 1.17-1.4-1.4-.1.1 1.5 1.5 1.16-1.17L72 15.05l-1.3 1.3zM69.1 9.8l2.6 2.6.05-.06L69.2 9.8l.88-.88-.4-.4.1-.43-.1-.02-.1.48.38.38-.87.88zm12.82 22.9l.06.06 1.94-1.94 2.37 2.37.06-.06-2.43-2.43-2 2zm-12.65-9.5l2.68 2.67.06-.05-2.62-2.62.8-.8-.06-.06-.87.87zm-8-21.6l.05.06L62.87.12 67 4.27l-1.12 1.1.06.06 1.18-1.17L62.87 0l-1.6 1.6zM46.8 7.58l.94.94.06-.06-.88-.88L52.3 2.2l-.06-.06-5.43 5.43zM42.74 27.4l.08.08.88-.87-.32-.32 2.55-2.54-.1-.1-2.63 2.63.32.32-.8.8zm18.24 15.54l1.9 1.88 1.8-1.8-.08-.1-1.7 1.7-1.7-1.7.5-.5-2.28-2.28-.1.1 2.2 2.2-.5.5z"/></g><g fill="#353535"><path d="M71.1 21.44l6.85 6.86 4.2-4.2 6.9 6.9.1-.1-7-7-4.2 4.2-6.65-6.65 2.9-2.9L71.68 16l-.1.1L74 18.54l-2.9 2.9z"/><path d="M88.85,30.67a.39.39,0,0,0,0,.56.39.39,0,1,0,0-.56Z"/><circle cx="82.2" cy="24.02" r=".39"/><circle cx="71.66" cy="16.08" r=".32"/><path d="M77.72 28a.39.39 0 1 0 .55.56.4.4 0 0 0 0-.56.39.39 0 0 0-.55 0zm-6.82-6.87a.39.39 0 1 0 .55 0 .39.39 0 0 0-.55 0zm2.98-2.77a.24.24 0 1 0 .34.35.24.24 0 0 0 0-.35.25.25 0 0 0-.34 0zM54.66 8.8l6.86 6.85 4.2-4.2 6.9 6.9.1-.1-7-7-4.2 4.2-6.65-6.65 2.9-2.9-2.54-2.54-.1.1 2.44 2.44-2.9 2.9z"/><path d="M72.4 18.06a.39.39 0 1 0 .55.56.4.4 0 0 0 0-.56.39.39 0 0 0-.55 0zm-6.92-6.96a.4.4 0 0 0 0 .56.39.39 0 1 0 .55-.56.39.39 0 0 0-.55 0zM55 3.22a.32.32 0 0 0 .45.45.31.31 0 0 0 0-.45.32.32 0 0 0-.45 0zm6.28 12.1a.38.38 0 0 0 0 .55.39.39 0 1 0 0-.55zM54.46 8.5a.38.38 0 0 0 0 .55.38.38 0 0 0 .55 0 .39.39 0 0 0-.55-.55zm2.97-2.77a.25.25 0 0 0 0 .35.25.25 0 0 0 .34 0 .25.25 0 0 0 0-.35.26.26 0 0 0-.34 0zm4.23 16.17l6.85 6.86 4.2-4.2 6.9 6.9.1-.1-7-7-4.2 4.2-6.65-6.65 2.9-2.9-2.54-2.54-.1.1L64.56 19l-2.9 2.9z"/><path d="M79.4 31.12a.39.39 0 1 0 .55.55.39.39 0 1 0-.55-.55zm-6.92-6.92a.38.38 0 0 0 0 .55.39.39 0 0 0 .52-.55.38.38 0 0 0-.52 0zM62 16.3a.32.32 0 0 0 .45.45.32.32 0 0 0-.45-.45zm6.27 12.1a.39.39 0 1 0 .55 0 .39.39 0 0 0-.55 0zm-6.82-6.82a.39.39 0 1 0 .55 0 .39.39 0 0 0-.55 0zm2.97-2.78a.26.26 0 0 0 0 .35.25.25 0 0 0 .35 0 .24.24 0 0 0 0-.35.26.26 0 0 0-.35 0zm10 26.98l.1.1 2.44-2.44 2.9 2.9 6.85-6.85-4.2-4.2 6.9-6.9-.1-.1-7 7 4.2 4.2-6.65 6.64-2.9-2.9-2.54 2.55z"/><path d="M89.1 28.6a.4.4 0 1 0 0-.56.4.4 0 0 0 0 .56zm-6.92 6.93a.39.39 0 0 0 .56 0 .39.39 0 1 0-.56 0zM74.3 46a.32.32 0 1 0 .45-.45.32.32 0 0 0-.45 0 .33.33 0 0 0 0 .45zm12.1-6.26a.39.39 0 1 0 0-.56.39.39 0 0 0 0 .56zm-6.83 6.82a.39.39 0 1 0 0-.56.39.39 0 0 0 0 .56zm-2.77-2.98a.25.25 0 0 0 .35 0 .25.25 0 1 0-.35 0zm-24.4-19.8l.1.1 2.44-2.44 2.9 2.9 6.85-6.85-4.2-4.2 6.9-6.9-.1-.1-7 7 4.2 4.2-6.64 6.65-2.9-2.9-2.55 2.55z"/><path d="M67.1 6.6a.4.4 0 1 0 0-.56.4.4 0 0 0 0 .56zm-6.93 6.92a.39.39 0 1 0 .55-.56.39.39 0 0 0-.55 0 .4.4 0 0 0 0 .56zM52.28 24a.33.33 0 0 0 .45 0 .34.34 0 0 0 0-.46.33.33 0 0 0-.45 0 .32.32 0 0 0 0 .46zm12.1-6.28a.38.38 0 0 0 .55 0 .39.39 0 0 0 0-.55.39.39 0 1 0-.55.55zm-6.83 6.82a.39.39 0 0 0 .56 0 .39.39 0 1 0-.56 0zm-2.75-2.98a.24.24 0 1 0 .34-.35.25.25 0 0 0-.35 0 .24.24 0 0 0 .01.35zm1.25 15.08l.1.1 2.44-2.44 2.9 2.9 6.86-6.85-4.2-4.2 6.9-6.9-.1-.1-7 7 4.2 4.2L61.5 37l-2.9-2.9-2.54 2.54z"/><path d="M70.72 19.47a.39.39 0 1 0 .56-.55.4.4 0 0 0-.56 0 .39.39 0 0 0 0 .55zm-7 6.85a.4.4 0 1 0 0-.56.4.4 0 0 0 0 .56z"/><circle cx="56.14" cy="36.66" r=".32"/><path d="M68 30.6a.39.39 0 0 0 .55 0 .38.38 0 0 0 0-.55.39.39 0 1 0-.55.55zm-6.8 6.82a.4.4 0 0 0 .56 0 .39.39 0 1 0-.56-.55.39.39 0 0 0 0 .55zm-2.78-2.98a.24.24 0 0 0 .35 0 .25.25 0 0 0 0-.34.24.24 0 1 0-.35.34zM43.3 19.5l.1.1 2.44-2.44 2.9 2.9 6.85-6.85L51.4 9l6.9-6.9-.1-.1-7.02 7 4.2 4.2-6.64 6.64-2.9-2.9-2.54 2.54z"/><path d="M58 2.32a.39.39 0 0 0 .55 0 .39.39 0 1 0-.55-.55.39.39 0 0 0 0 .55zm-6.95 6.92a.39.39 0 1 0 .55-.55.39.39 0 0 0-.55.55zm-7.9 10.5a.32.32 0 0 0 .45 0 .32.32 0 0 0-.45-.45.31.31 0 0 0 0 .45zm12.1-6.28a.4.4 0 0 0 .56-.56.4.4 0 0 0-.56.56zm-6.82 6.82a.4.4 0 1 0 .56-.56.4.4 0 0 0-.56.56zm-2.76-2.97a.23.23 0 0 0 .34 0 .24.24 0 0 0 0-.35.25.25 0 0 0-.34 0 .24.24 0 0 0 0 .35zm-4.14 15.8l.1.1 2.44-2.45 2.9 2.9 6.85-6.85-4.2-4.2 6.9-6.9-.1-.1-7 7.02 4.2 4.2-6.65 6.64-2.9-2.9-2.54 2.54z"/><circle cx="56.48" cy="15.65" r=".39"/><path d="M49.28 22.85a.4.4 0 1 0 0-.56.4.4 0 0 0 0 .56zM41.4 33.33a.32.32 0 1 0 .45-.45.32.32 0 0 0-.45.45zm12.1-6.28a.38.38 0 0 0 .55 0 .39.39 0 1 0-.55-.55.38.38 0 0 0 0 .55zm-6.83 6.82a.39.39 0 0 0 .55 0 .39.39 0 1 0-.55-.55.39.39 0 0 0 0 .55zM43.9 30.9a.24.24 0 0 0 .35 0 .25.25 0 0 0 0-.34.24.24 0 0 0-.35 0 .25.25 0 0 0 0 .34zm12.94 1.58l.04.04 1.1-1.1 1.32 1.32 3.1-3.1-1.9-1.9 3.1-3.12-.05-.05-3.16 3.17 1.9 1.9-3 3-1.32-1.32-1.14 1.15z"/><path d="M63.47 24.72a.17.17 0 0 0 .25 0 .2.2 0 0 0 0-.25.17.17 0 0 0-.25 0 .16.16 0 0 0 0 .25z"/><circle cx="60.46" cy="27.73" r=".18"/><path d="M56.77 32.6a.15.15 0 0 0 .21 0 .15.15 0 0 0 0-.2.15.15 0 0 0-.21 0 .17.17 0 0 0 0 .2zm5.47-2.85a.18.18 0 1 0 0-.25.18.18 0 0 0 0 .25zm-3.1 3.08a.18.18 0 1 0 .25-.25.19.19 0 0 0-.26 0 .2.2 0 0 0 .01.25zM57.9 31.5a.11.11 0 0 0 .15 0 .12.12 0 0 0 0-.16.11.11 0 0 0-.15 0 .1.1 0 0 0 0 .16zm-8-11l-.04-.04-1.1 1.1-1.32-1.3-3.1 3.1 1.9 1.9-3.12 3.12.05.04 3.16-3.16-1.9-1.9 3-3 1.32 1.3 1.14-1.15z"/><path d="M43.27 28.27a.17.17 0 0 0-.25 0 .18.18 0 0 0 0 .25.2.2 0 0 0 .26 0 .18.18 0 0 0-.01-.25zm3.13-3.13a.18.18 0 1 0 0 .25.18.18 0 0 0 0-.25zM50 20.4a.15.15 0 1 0 0 .21.17.17 0 0 0 0-.21zm-5.5 2.84a.18.18 0 0 0-.25 0 .18.18 0 0 0 0 .25.18.18 0 0 0 .25-.25zm3.07-3.08a.18.18 0 1 0 0 .25.18.18 0 0 0 0-.25zm1.25 1.34a.11.11 0 0 0-.15 0 .11.11 0 1 0 .15.16.1.1 0 0 0 0-.16zm36.68 9.47l-.07-.07-1.74 1.74-2.07-2.07-4.9 4.88 3 3-4.93 4.93.07.08 5-5-3-3 4.75-4.74 2.07 2.08 1.8-1.82z"/><path d="M75 43.22a.27.27 0 0 0-.39 0 .28.28 0 0 0 0 .4.27.27 0 0 0 .39 0 .28.28 0 0 0 0-.4zm5-4.94a.27.27 0 0 0-.39 0 .28.28 0 0 0 0 .4.27.27 0 0 0 .39 0 .28.28 0 0 0 0-.4zm5.6-7.48a.22.22 0 0 0-.32 0 .23.23 0 0 0 0 .32.23.23 0 1 0 .32-.32z"/><circle cx="76.77" cy="35.48" r=".28"/><path d="M81.83 30.42a.28.28 0 0 0-.4 0 .27.27 0 0 0 0 .39.28.28 0 0 0 .4 0 .27.27 0 0 0 0-.39zm1.97 2.12a.18.18 0 0 0-.24 0 .18.18 0 0 0 0 .25.16.16 0 0 0 .24 0 .18.18 0 0 0 0-.25zm-22.07-1.6l-.07.07 1.74 1.74-2.08 2.08 4.9 4.9 3-3 4.93 4.92.07-.07-5-5-3 3-4.74-4.74 2.07-2.08-1.8-1.8z"/><path d="M74 41.4a.28.28 0 0 0 0 .4.28.28 0 0 0 .39 0 .28.28 0 0 0 0-.4.27.27 0 0 0-.39 0zm-5-4.94a.28.28 0 1 0 .39 0 .27.27 0 0 0-.39 0zm-7.44-5.63a.23.23 0 0 0 0 .32.23.23 0 0 0 .32-.32.21.21 0 0 0-.32 0zM66 39.46a.27.27 0 0 0 0 .39.28.28 0 0 0 .4 0 .29.29 0 0 0 0-.39.28.28 0 0 0-.4 0zm-4.83-4.86a.28.28 0 0 0 .4.4.28.28 0 0 0-.4-.4zm2.13-1.98a.18.18 0 0 0 0 .25.17.17 0 0 0 .25 0 .17.17 0 1 0-.24-.24zM46.83 25.8l-.08.07 1.74 1.74-2.07 2.08 4.9 4.9 3-3 4.92 4.92.08-.07-5-5-3 3-4.74-4.74 2.07-2.08-1.8-1.8z"/><path d="M59.07 36.26a.28.28 0 0 0 0 .39.28.28 0 0 0 .4 0 .27.27 0 0 0 0-.39.28.28 0 0 0-.4 0zm-4.94-4.94a.28.28 0 1 0 .4.4.28.28 0 0 0-.4-.4zm-7.48-5.62a.23.23 0 0 0 0 .32A.22.22 0 0 0 47 26a.23.23 0 0 0 0-.32.24.24 0 0 0-.35.01zm4.5 8.62a.26.26 0 0 0 0 .39.28.28 0 1 0 0-.39zm-4.87-4.87a.28.28 0 1 0 .4.4.3.3 0 0 0 0-.4.28.28 0 0 0-.4 0zm2.13-1.97a.18.18 0 0 0 .25.25.18.18 0 0 0-.25-.25zM63.28 2.9l-.07.07 1.74 1.75-2.07 2.07 4.9 4.9 3-3 4.92 4.93.08-.08-5-5-3 3-4.75-4.74 2.07-2.1-1.82-1.8z"/><path d="M75.53 13.36a.28.28 0 0 0 0 .4.29.29 0 0 0 .4 0 .27.27 0 0 0 0-.39.28.28 0 0 0-.4-.01zM70.6 8.42a.28.28 0 1 0 .4 0 .28.28 0 0 0-.4 0zM63.1 2.8a.24.24 0 0 0 0 .33.23.23 0 0 0 .33-.33.24.24 0 0 0-.33 0zm4.44 8.7a.28.28 0 1 0 .4 0 .28.28 0 0 0-.4 0zm-4.8-4.94a.28.28 0 1 0 .39 0 .27.27 0 0 0-.39 0zm2.12-1.98a.18.18 0 1 0 .25 0 .2.2 0 0 0-.25 0zm15.33 30.14l-.03.03.74.74-.88.9 2.08 2.08 1.28-1.28 2.1 2.1.03-.03-2.13-2.13-1.28 1.27-2.02-2 .9-.9-.78-.77z"/><path d="M85.4 39.18a.12.12 0 0 0 .17.17.12.12 0 0 0-.17-.17zm-2.1-2.1a.12.12 0 1 0 .17.17.12.12 0 0 0-.17-.17zm-3.2-2.4a.09.09 0 1 0 .13 0 .09.09 0 0 0-.13 0zm1.9 3.67a.12.12 0 1 0 .17.17.12.12 0 0 0-.17-.17zm-2.06-2.07a.14.14 0 0 0 0 .17.14.14 0 0 0 .18 0 .12.12 0 0 0 0-.17.11.11 0 0 0-.18 0zm.9-.84a.07.07 0 1 0 .1 0 .08.08 0 0 0-.1 0zm-10.92-7.72l-.03.03.74.74-.88.88 2.1 2.1 1.28-1.28 2.1 2.1.03-.04-2.12-2.13-1.28 1.28-2.02-2.02.88-.88-.78-.77z"/><path d="M75.16 32.18a.11.11 0 0 0 0 .17.12.12 0 1 0 .16-.17.1.1 0 0 0-.16 0zm-2.1-2.1a.12.12 0 1 0 .17 0 .12.12 0 0 0-.17 0zm-3.2-2.4a.1.1 0 0 0 .14.14.09.09 0 0 0 0-.13.11.11 0 0 0-.14-.01zm1.9 3.68a.12.12 0 1 0 .17 0 .12.12 0 0 0-.17 0zm-2.07-2.07a.11.11 0 0 0 0 .17.12.12 0 0 0 .17 0 .14.14 0 0 0 0-.17.11.11 0 0 0-.17 0zm.9-.84a.07.07 0 0 0 0 .1.08.08 0 0 0 .11 0 .07.07 0 0 0-.1-.1zM64.33 13.3l-.03.04.84.85-1 1 2.4 2.38L68 16.1l2.4 2.4.03-.04L68 16.04l-1.46 1.46-2.32-2.3 1.02-1-.9-.9z"/><path d="M70.3 18.4a.13.13 0 0 0 0 .2.14.14 0 0 0 .19 0 .13.13 0 0 0 0-.2.14.14 0 0 0-.19 0zM67.9 16a.13.13 0 1 0 .19 0 .13.13 0 0 0-.19 0zm-3.65-2.75a.1.1 0 0 0 0 .16.11.11 0 0 0 .15 0 .09.09 0 0 0 0-.15.1.1 0 0 0-.15-.01zm2.18 4.2a.14.14 0 0 0 0 .19.12.12 0 0 0 .19 0 .13.13 0 0 0-.19-.19zm-2.37-2.36a.14.14 0 0 0 0 .19.12.12 0 0 0 .19 0 .13.13 0 0 0 0-.19.14.14 0 0 0-.19 0zm1.04-.97a.08.08 0 0 0 0 .12.09.09 0 0 0 .13-.13.08.08 0 0 0-.13.01zm6.96 24.4l.04.03.83-.83 1 1 2.34-2.34-1.43-1.43 2.35-2.36-.03-.03-2.4 2.4 1.44 1.44-2.27 2.27-1-1-.87.87z"/><path d="M77.07 32.68a.13.13 0 1 0 0-.19.14.14 0 0 0 0 .19zM74.7 35a.13.13 0 1 0 0-.19.14.14 0 0 0 0 .19zM72 38.62a.1.1 0 0 0 .16 0 .1.1 0 0 0 0-.15.09.09 0 0 0-.15 0 .11.11 0 0 0-.01.15zm4.14-2.14a.13.13 0 0 0 .19-.19.12.12 0 0 0-.19 0 .14.14 0 0 0 0 .19zM73.8 38.8a.14.14 0 0 0 .19 0 .13.13 0 0 0 0-.19.12.12 0 0 0-.19 0 .14.14 0 0 0 0 .19zm-.93-1a.08.08 0 1 0 0-.12.08.08 0 0 0 0 .12zm-12.2-11.9l-.04-.03-.83.83-1-1-2.34 2.34 1.44 1.44-2.36 2.35.04.04 2.4-2.4-1.44-1.44 2.27-2.27 1 1 .87-.87z"/><path d="M55.65 31.78a.12.12 0 0 0-.19 0 .11.11 0 0 0 0 .18.12.12 0 0 0 .19 0 .13.13 0 0 0 0-.18zM58 29.4a.13.13 0 1 0 0 .19.14.14 0 0 0 0-.19zm2.7-3.57a.11.11 0 0 0-.15 0 .12.12 0 0 0 0 .16.11.11 0 0 0 .15 0 .09.09 0 0 0 0-.16zM56.57 28a.13.13 0 1 0-.19.18.12.12 0 0 0 .19 0 .12.12 0 0 0 0-.18zm2.33-2.35a.14.14 0 0 0-.19 0 .13.13 0 0 0 0 .18.12.12 0 0 0 .19 0 .13.13 0 0 0 0-.18zm.94 1a.08.08 0 0 0-.11 0v.12c0 .03.08 0 .12 0a.08.08 0 0 0-.01-.12zm2.43-20.03l-.03-.03-.65.65-.78-.77L59 8.3l1.12 1.13-1.84 1.84.02.03 1.87-1.87-1.12-1.13 1.77-1.77.78.78.68-.68z"/><path d="M58.35 11.2a.1.1 0 1 0 0 .14.1.1 0 0 0 0-.14zm1.85-1.84a.11.11 0 1 0 0 .15.11.11 0 0 0 0-.15zm2.1-2.8a.07.07 0 0 0-.11 0 .08.08 0 0 0 0 .12.09.09 0 0 0 .13 0 .07.07 0 0 0-.02-.12zm-3.22 1.67a.11.11 0 1 0 0 .15.11.11 0 0 0 0-.15zm1.82-1.82a.11.11 0 0 0-.15.15.1.1 0 0 0 .14 0 .1.1 0 0 0 .01-.15zm.73.8a.06.06 0 0 0-.09 0 .07.07 0 0 0 0 .09.09.09 0 0 0 .1 0 .06.06 0 0 0-.01-.09zM77.7 19.85l-.02-.03-.65.65-.78-.77-1.83 1.83 1.12 1.12-1.84 1.84.03.03 1.87-1.87-1.12-1.12 1.77-1.77.78.77.67-.68z"/><path d="M73.8 24.43a.11.11 0 1 0 0 .15.11.11 0 0 0 0-.15zm1.84-1.85a.11.11 0 1 0 0 .15.11.11 0 0 0 0-.15zm2.1-2.78a.08.08 0 1 0-.12.11.08.08 0 0 0 .12 0s.04-.08 0-.1zm-3.22 1.66a.11.11 0 1 0 0 .15.14.14 0 0 0 0-.15zm1.8-1.82a.1.1 0 0 0-.14 0 .11.11 0 0 0 0 .15.1.1 0 1 0 .14-.15zm.74.8a.06.06 0 0 0-.09 0 .06.06 0 0 0 .09.09.06.06 0 0 0 0-.09zm-15.44-4.08l-.04-.03-.83.83-1-1-2.35 2.34 1.44 1.44-2.36 2.36.04.03 2.4-2.4-1.44-1.44 2.27-2.27 1 1 .87-.87z"/><path d="M56.6 22.22a.13.13 0 1 0 0 .19.12.12 0 0 0 0-.19z"/><circle cx="58.88" cy="19.95" r=".13"/><path d="M61.67 16.28a.11.11 0 1 0-.15.15.11.11 0 0 0 .15 0 .1.1 0 0 0 0-.15zm-4.13 2.14a.13.13 0 1 0 0 .19.14.14 0 0 0 0-.19zm2.33-2.32a.13.13 0 1 0 0 .19.14.14 0 0 0 0-.19zm.95 1a.09.09 0 0 0-.12 0 .07.07 0 0 0 0 .12.08.08 0 1 0 .12-.12zM59.05 1.94l-.03.04.83.83-1 1 2.34 2.34 1.43-1.43L65 7.06l.03-.03-2.4-2.4-1.43 1.43-2.27-2.27 1-1-.87-.87z"/><path d="M64.92 7a.13.13 0 1 0 .19 0 .14.14 0 0 0-.19 0zm-2.37-2.42a.14.14 0 0 0 0 .19.12.12 0 0 0 .19 0 .13.13 0 0 0 0-.19.14.14 0 0 0-.19 0zM59 1.9a.11.11 0 1 0 .15-.04.11.11 0 0 0-.15.04zM61.12 6a.12.12 0 0 0 0 .19.13.13 0 0 0 .18 0 .12.12 0 0 0 0-.19.13.13 0 0 0-.18 0z"/><circle cx="58.88" cy="3.79" r=".13"/><path d="M59.8 2.75a.08.08 0 1 0 .11.12.07.07 0 0 0 0-.12.07.07 0 0 0-.11 0zm10.46 34.9l.1.1 7-7-4.2-4.2 6.64-6.64 2.9 2.9 2.55-2.55-.1-.1-2.44 2.45-2.9-2.9-6.85 6.85 4.2 4.2-6.9 6.9z"/><path d="M70.6 37.44a.4.4 0 0 0-.56 0A.39.39 0 0 0 70 38a.4.4 0 0 0 .56 0 .39.39 0 0 0 .03-.56zm6.9-6.92a.38.38 0 0 0-.55 0 .39.39 0 1 0 .55 0zM85.4 20a.31.31 0 0 0-.4 0 .32.32 0 1 0 .45 0zm-12.1 6.3a.39.39 0 1 0 0 .55.38.38 0 0 0 0-.55zm6.83-6.8a.4.4 0 0 0-.56 0 .39.39 0 1 0 .56 0zm2.77 2.97a.24.24 0 1 0-.35.34.24.24 0 1 0 .34-.34z"/><path d="M72.64 12.6l.05-.05 7.04 7.14z"/><path d="M72.37 12.27a.42.42 0 1 0 .59 0 .41.41 0 0 0-.59 0zm1.88 29.4l.06.05 3.27-3.27 2.2.06v-.08l-2.22-.06-3.3 3.3zM53.7 26.85l.85.86 3.25-3.25-.05-.05-3.2 3.2-.8-.8-.05.05zm15.5 9.75l.08.08L72 33.96l-3.67-3.67-.08.07 3.6 3.6-2.65 2.65zM55.5 13.13l.08.08 1.1-1.1-2.73-2.74.7-.68-.08-.08-.77.76 2.74 2.74-1.02 1zm-1.28 7.64l.68.68.08-.08-.6-.6 3.65-3.65-1.5-1.5-.08.08 1.43 1.43-3.65 3.65zm9.16 11.93l.08.08 2.43-2.43-3.1-3.1 1.2-1.2-.07-.08-1.3 1.28 3.1 3.1-2.36 2.35zm-3.44-7.36l.63.62.05-.05-.57-.57 2.14-2.14 1.4 1.4.05-.05-1.45-1.46-2.25 2.25z"/><path d="M86.66 39.45l.05.05.84-.83-3.05-3.05 4.65-4.65-.05-.05-4.7 4.7 3.04 3.05-.78.78zm-2.13-15.67l4.74 4.73.05-.05-4.68-4.68 2.04-2.04-1.5-1.5-.06.05 1.45 1.44-2.05 2.04zm-12.9-7.74l.08.08 1.23-1.24-2.95-2.94-1.04 1.03-1.25-1.25-.08.08 1.33 1.33 1.04-1.04 2.8 2.8-1.15 1.16zM70.2 10.2l2.3 2.32.06-.06-2.26-2.26.78-.77-.37-.37.1-.38-.07-.02-.1.42.34.35-.78.77zm11.38 20.37l.06.05 1.72-1.72 2.1 2.1.05-.05-2.16-2.16-1.78 1.78zm-11.24-8.45l2.38 2.38.06-.05-2.33-2.33.72-.72-.06-.05-.77.77zm-7.1-19.2l.05.05 1.36-1.36 3.7 3.7-1 1 .05.05 1.05-1.04-3.8-3.8-1.4 1.4zM50.37 8.24l.84.84.05-.05-.78-.8 4.76-4.77-.05-.05-4.82 4.82zm-3.6 17.6l.08.08.77-.78-.28-.28 2.27-2.26-.08-.08-2.34 2.34.28.28-.7.7zm16.22 13.82l1.68 1.67 1.6-1.6-.08-.08-1.52 1.52-1.5-1.52.43-.43-2.03-2.03-.07.07 1.94 1.95-.43.44z"/></g><path d="M61.52 11.04L62.56 10l1.03 1.03-1.03 1.03z" fill="#b94536"/><use xlink:href="#C" fill="#822124"/><g fill="#b94536"><path d="M75.94 17.08l1.03-1.03L78 17.08l-1.03 1.03z"/><use xlink:href="#C" x="31.38" y="1.94"/></g><use xlink:href="#C" x="16.96" y="-9.6" fill="#822124"/><g fill="#b94536"><use xlink:href="#C" x="34.31" y="-9.2"/><path d="M50.4 8.96l1.03-1.03 1.03 1.03L51.44 10z"/></g><g fill="#d97d2d"><use xlink:href="#C" x="25.68" y="-17.83"/><use xlink:href="#C" x="32.12" y="11.66"/></g><use xlink:href="#C" x="8.66" y="-2.5" fill="#bd9f75"/><use xlink:href="#C" x="14.86" y="3.32" fill="#484c50"/><use xlink:href="#C" x="8.59" y="-14.64" fill="#798386"/><g fill="#589bcb"><path d="M69.48 26.8l.88-.88.88.88-.88.88z"/><use xlink:href="#C" x="14.72" y="-25.85"/></g><g fill="#846cab"><use xlink:href="#C" x="24.83" y="-9.38"/><path d="M62.2 3l1.03-1.03L64.28 3l-1.03 1.03z"/></g><use xlink:href="#C" x="22.69" y="1.27" fill="#bd9f75"/><use xlink:href="#C" x="42.62" y="-4.63" fill="#846cab"/><g fill="#353535"><path d="M53.2 15.4a.71.71 0 1 1 1 0 .71.71 0 0 1-1 0zm.07-.07a.62.62 0 1 0 0-.87.62.62 0 0 0 0 .87zm.97-6.07a.71.71 0 1 1 1 0 .71.71 0 0 1-1 0zm.07-.07a.6.6 0 0 0 .86 0 .62.62 0 1 0-.87-.87.61.61 0 0 0 .01.87zm3.4-6.63a.71.71 0 0 1 1-1 .71.71 0 0 1 0 1 .7.7 0 0 1-1 0zm.07-.07a.62.62 0 1 0 0-.87.62.62 0 0 0 0 .87zM54.75 4a.71.71 0 1 1 1 0 .71.71 0 0 1-1 0zm.07-.07a.64.64 0 0 0 .87-.93.62.62 0 1 0-.87.87zm-9.5 13.73a.71.71 0 0 1 0-1 .71.71 0 1 1 0 1zm.07-.06a.62.62 0 1 0 0-.87.62.62 0 0 0 0 .87zm-2.77 11.27a.71.71 0 0 1 1-1 .71.71 0 1 1-1 1zm.07-.07a.62.62 0 1 0 0-.87.62.62 0 0 0 0 .87zm3.3 1.4a.71.71 0 1 1 1 0 .7.7 0 0 1-1 0zm.07-.07a.62.62 0 1 0 0-.87.62.62 0 0 0-.07.87zM48 28.1a.71.71 0 1 1 1 0 .7.7 0 0 1-1 0zm.07-.06a.62.62 0 0 0 .86 0 .62.62 0 1 0-.87-.87.61.61 0 0 0-.06.87zm18.07-10.16a.5.5 0 1 1 .71 0 .5.5 0 0 1-.71 0zm0-.05a.44.44 0 0 0 .61 0 .43.43 0 0 0 0-.62.44.44 0 0 0-.62 0 .43.43 0 0 0 .06.62zm-7.57 2.47a.5.5 0 1 1 .71 0 .5.5 0 0 1-.71 0zm0-.05a.45.45 0 0 0 .62 0 .44.44 0 1 0-.62-.62.43.43 0 0 0 .04.62zm.83-3.7a.51.51 0 0 1 0-.71.5.5 0 1 1 0 .71zm0-.05a.44.44 0 0 0 .62 0 .43.43 0 0 0 0-.61.44.44 0 0 0-.62 0 .43.43 0 0 0 .05.61zm-9.92 4.4a.5.5 0 1 1 .71 0 .5.5 0 0 1-.71 0zm.05 0a.43.43 0 1 0 .61-.61.43.43 0 0 0-.61.61zM59.8 9.8a.5.5 0 1 1 .71 0 .5.5 0 0 1-.71 0zm0 0a.44.44 0 1 0 0-.62.44.44 0 0 0 .04.58zm-15.87 14a.71.71 0 1 1 1 0 .72.72 0 0 1-1 0zm.07-.07a.63.63 0 0 0 .87 0 .62.62 0 0 0 0-.87.61.61 0 0 0-.87.86zm16 4.52a.71.71 0 1 1 1 0 .7.7 0 0 1-1 0zm.07-.07a.62.62 0 1 0 0-.86.6.6 0 0 0 .01.86zm-4.07.4a.73.73 0 0 1 0-1 .71.71 0 0 1 1 1 .72.72 0 0 1-1 0zm.07-.07a.62.62 0 1 0 0-.87.62.62 0 0 0-.02.87zm6.38-21.3a.71.71 0 1 1 1-1 .71.71 0 0 1-1 1zm.07-.07a.62.62 0 1 0 .87-.87.62.62 0 0 0-.87.87zm.18 28.68a.71.71 0 1 1 1 0 .72.72 0 0 1-1 0zm.07-.06a.62.62 0 1 0 0-.87.62.62 0 0 0 0 .87zM75.24 14a.7.7 0 0 1 0-1 .71.71 0 1 1 1 1 .72.72 0 0 1-1 0zm.06-.07a.62.62 0 1 0 0-.87.62.62 0 0 0 0 .88zm6.93 9.27a.71.71 0 1 1 1 0 .7.7 0 0 1-1 0zm.06-.07a.62.62 0 1 0 .87-.87.62.62 0 0 0-.87.87zm-1.1 8a.71.71 0 0 1 1-1 .7.7 0 0 1 0 1 .71.71 0 0 1-1 0zm.07-.07a.61.61 0 0 0 .87 0 .62.62 0 1 0-.87-.87.6.6 0 0 0 0 .87zM76.36 36a.71.71 0 1 1 1 0 .7.7 0 0 1-1 0zm.06-.07a.62.62 0 0 0 .87-.87.61.61 0 0 0-.87 0 .62.62 0 0 0 0 .85z"/><use xlink:href="#D"/><path d="M79.53 26.56a.71.71 0 1 1 1 0 .72.72 0 0 1-1 0zm.07-.06a.63.63 0 0 0 .87 0 .62.62 0 1 0-.87 0zm9.24 2.3a.71.71 0 1 1 1 0 .7.7 0 0 1-1 0zm.07-.07a.61.61 0 1 0 .86-.86.61.61 0 0 0-.86.86zM79.26 39a.71.71 0 0 1 1-1 .7.7 0 0 1 0 1 .71.71 0 0 1-1 0zm.07-.07a.61.61 0 0 0 .87 0 .62.62 0 0 0-.87-.87.6.6 0 0 0 0 .83zm-5.63 3.12a.7.7 0 0 1 0-1 .71.71 0 0 1 1 1 .71.71 0 0 1-1 0zm.06-.06a.62.62 0 1 0 0-.87.62.62 0 0 0 0 .88zm2.74 2a.71.71 0 0 1 0-1 .72.72 0 0 1 1 0 .71.71 0 0 1-1 1zm.07-.07a.62.62 0 1 0 0-.87.62.62 0 0 0 0 .83zm5.37-8.2a.71.71 0 1 1 1 0 .7.7 0 0 1-1 0zm.06-.06a.62.62 0 1 0 0-.87.62.62 0 0 0 0 .87zm6.63-4.23a.7.7 0 0 1 0-1 .71.71 0 1 1 0 1zm.07-.06a.62.62 0 1 0 0-.87.62.62 0 0 0 0 .87zM86.2 40a.7.7 0 0 1 0-1 .71.71 0 1 1 1 1 .72.72 0 0 1-1 0zm.07-.07a.62.62 0 1 0 0-.87.62.62 0 0 0 0 .85z"/><use xlink:href="#D" x="12.19" y="7.97"/><path d="M74 46.34a.7.7 0 0 1 0-1 .71.71 0 0 1 1 0 .71.71 0 0 1-1 1zm.06-.06a.62.62 0 0 0 .87 0 .6.6 0 0 0 0-.87.62.62 0 0 0-.87 0 .63.63 0 0 0-.06.87zm3.44-17.54a.71.71 0 1 1 1 0 .7.7 0 0 1-1 0zm.06-.07a.62.62 0 1 0 0-.87.63.63 0 0 0 0 .87zM42.9 20a.71.71 0 1 1 1-1 .7.7 0 0 1 0 1 .71.71 0 0 1-1 0zm.1 0a.62.62 0 1 0 0-.87.62.62 0 0 0 0 .87zm3.38 14.14a.7.7 0 0 1 0-1 .71.71 0 1 1 1 1 .7.7 0 0 1-1 0zm.06-.07a.62.62 0 1 0 0-.87.63.63 0 0 0 0 .87zm6.78-6.73a.71.71 0 1 1 1 0 .72.72 0 0 1-1 0zm.07-.06a.63.63 0 0 0 .87 0 .62.62 0 1 0-.87 0zm1.15-5.48a.7.7 0 0 1 0-1 .71.71 0 1 1 0 1zm.07-.07a.62.62 0 1 0 0-.87.62.62 0 0 0 0 .87zm1.5-5.57a.71.71 0 1 1 1 0 .7.7 0 0 1-1 0zm.06-.07a.62.62 0 0 0 .87-.87.62.62 0 0 0-.87.87zm7.42 10.5a.71.71 0 1 1 1 0 .71.71 0 0 1-1 0zm.07-.07a.62.62 0 1 0 0-.87.62.62 0 0 0 0 .87zm4.45 2.6a.71.71 0 1 1 1 0 .7.7 0 0 1-1 0zm.07-.07a.62.62 0 1 0 .87-.87.62.62 0 0 0-.87.87zm-1.2-22.2a.71.71 0 0 1 0-1 .73.73 0 0 1 1 0 .71.71 0 0 1-1 1zm.07-.07a.62.62 0 1 0 0-.87.62.62 0 0 0 0 .87zm-1.7 5.1a.71.71 0 1 1 1 0 .7.7 0 0 1-1 0zm.06-.07a.62.62 0 0 0 .87 0 .61.61 0 0 0 0-.87.62.62 0 0 0-.87 0 .63.63 0 0 0 0 .87zm6.88 7.03a.71.71 0 1 1 1 0 .7.7 0 0 1-1 0zm.07-.06a.62.62 0 0 0 .87 0 .62.62 0 1 0-.87-.87.62.62 0 0 0 0 .87zm-1.53 3.16a.71.71 0 1 1 1 0 .7.7 0 0 1-1 0zm.06-.07a.63.63 0 0 0 .88 0 .62.62 0 0 0-.87-.87.63.63 0 0 0-.01.87z"/></g></g><path d="M52.44 57.15h17.7V34a1.67 1.67 0 1 1 3.33 0v24.84a1.65 1.65 0 0 1-1.64 1.64h-19.4zM30.8 38.8v-4a1.66 1.66 0 0 1 3.32 0v4zM81 33.63l-13.33-13.4V11.1A1.69 1.69 0 0 0 66 9.39a1.65 1.65 0 0 0-1.63 1.69v5.8L53.3 5.8a1.6 1.6 0 0 0-1.14-.53 1.66 1.66 0 0 0-1.2.53L23.3 33.45a1.65 1.65 0 1 0 2.34 2.34L52.16 9.32 78.63 36a1.64 1.64 0 0 0 1.2.43A1.89 1.89 0 0 0 81 36a1.76 1.76 0 0 0 0-2.41z" fill="#484c50"/><path d="M37.06 57.37a3.12 3.12 0 1 0-3.12 3.12 3.12 3.12 0 0 0 3.12-3.12zm4.34 3.1A10.55 10.55 0 0 0 30.81 50v-4.38a14.91 14.91 0 0 1 14.92 14.86zm7.68 0A18.26 18.26 0 0 0 30.8 42.29V38a22.6 22.6 0 0 1 22.62 22.48z" fill="#822124"/><ellipse class="N" cx="52.14" cy="66.92" rx="27.21" ry="2.86" fill="url(#B)"/><text transform="translate(6.98 81.33)" fill="#822124" font-size="11.04" font-family="MagistralC">ЭФФЕКТИВНЫЕ<tspan x="16.23" y="11.04">СИ</tspan><tspan x="33.07" y="11.04" letter-spacing="-0.02em">С</tspan><tspan x="40.63" y="11.04" letter-spacing="0em">ТЕМЫ</tspan><tspan x="-6.98" y="22.08">А</tspan><tspan x="0.79" y="22.08" letter-spacing="-0.04em">В</tspan><tspan x="7.51" y="22.08" letter-spacing="-0.06em">Т</tspan><tspan x="13.37" y="22.08" letter-spacing="0em">ОМ</tspan><tspan x="33.45" y="22.08" letter-spacing="-0.07em">А</tspan><tspan x="40.4" y="22.08">ТИ</tspan><tspan x="55.95" y="22.08" letter-spacing="-0.04em">З</tspan><tspan x="62.15" y="22.08" letter-spacing="0em">АЦИИ</tspan></text></svg>