<svg xmlns="http://www.w3.org/2000/svg" viewBox="0 0 116.83 49.83"><defs><style>.a2441dcd-e0b8-4601-afdb-6c6bf5b77353{fill:#434343;}.a0567f66-632e-40f5-bf9c-05552cc90cd6{fill:#87bc5e;}</style></defs><title>94</title><g id="a8ff7743-31d8-4012-99e5-b5b57785ac66" data-name="Слой 2"><g id="a471319d-9e0a-4b5a-b19b-789633d2a91b" data-name="Слой 1"><path class="a2441dcd-e0b8-4601-afdb-6c6bf5b77353" d="M46.54,0c.68,1.15,1.38,2.28,2,3.45.26.49.51.54,1,.34A48.14,48.14,0,0,1,61.13.58C65.44,0,69.69.12,73.66,2.17a13.13,13.13,0,0,1,7.08,9.67,2.66,2.66,0,0,1,0,.5c-.39-.46-.69-.83-1-1.19-4.47-5-10-6.54-16.44-5a29.26,29.26,0,0,0-10.05,4.61c-.42.28-.51.5-.21,1,.52.79.94,1.66,1.45,2.46.37.57.35.76-.41.75-2.59,0-5.18,0-7.77,0H37.2c-.26,0-.64.14-.76-.09s.2-.52.35-.75L46,.7c.15-.21.39-.39.37-.7Z"/><path class="a2441dcd-e0b8-4601-afdb-6c6bf5b77353" d="M116.83,46.53c-.63,0-1.26,0-1.89,0s-.59-.17-.58-.62c0-1.3,0-2.62,0-3.93s-.64-1.91-2-1.94c-1.6,0-2.4.56-2.44,1.87s0,2.68,0,4c0,.47-.14.6-.6.61-1.84,0-1.84.05-1.84-1.73,0-.93,0-1.86,0-2.79a1.87,1.87,0,0,0-1.59-1.89,4.21,4.21,0,0,0-1.87,0A1.83,1.83,0,0,0,102.57,42q0,2,0,3.93c0,.46-.13.59-.59.6-1.76,0-1.76.05-1.76-1.73s0-3.55,0-5.32c0-.6.1-.94.79-.82a3,3,0,0,0,.73,0c.57,0,1,0,.71,1a5.84,5.84,0,0,1,4.85-1,2,2,0,0,1,1.41.55c.51.71.8.41,1.33,0a4.93,4.93,0,0,1,6.8,1.56Z"/><path class="a0567f66-632e-40f5-bf9c-05552cc90cd6" d="M36.39,19.64a20.48,20.48,0,0,0,4.9,4.43c4.25,2.56,8.77,2.7,13.42,1.43a30.41,30.41,0,0,0,9-4.31c.48-.33.6-.57.26-1.1-.62-.95-1.15-2-1.77-3H80.76L70.54,31.85c-.7-1.17-1.39-2.24-2-3.36-.31-.58-.59-.66-1.2-.42a45.49,45.49,0,0,1-12.44,3.3c-4.11.41-8.13.16-11.85-1.88a13.08,13.08,0,0,1-6.64-9,1.14,1.14,0,0,1,0-.87Z"/><path class="a2441dcd-e0b8-4601-afdb-6c6bf5b77353" d="M14.89,45.87c0,1.18,0,2.27,0,3.35,0,.47-.14.59-.6.6-2,0-2,.06-2-1.93,0-2.81,0-5.62,0-8.43,0-.66.19-.86.82-.79.44,0,1-.18,1.28,0,.82.78,1.53,0,2.27,0a9.37,9.37,0,0,1,3.73.15,3.06,3.06,0,0,1,2.26,2.35,6,6,0,0,1,0,2.83,3.23,3.23,0,0,1-3,2.52,8.11,8.11,0,0,1-4.83-.66m2.88-5.75a9.28,9.28,0,0,0-1.06.08,2,2,0,0,0-1.9,2.46c0,.22,0,.43.08.65.17,1.15.69,1.55,2.21,1.7,1.77.18,2.9-.26,3.23-1.26a.24.24,0,0,0,0-.08c.54-2.73-.46-3.62-2.58-3.55"/><path class="a2441dcd-e0b8-4601-afdb-6c6bf5b77353" d="M49.3,46.64c-1-.15-2.16.07-3.15-.62a2.05,2.05,0,0,1-.79-.81c-.4-.87-.22-1.17.73-1.17h1.06c.17,0,.41,0,.45.12.2.77.86.8,1.43.85a6.49,6.49,0,0,0,3.15-.29.48.48,0,0,0,.32-.51.65.65,0,0,0-.45-.62,6,6,0,0,0-2-.33,14.39,14.39,0,0,1-3-.36c-1.27-.31-1.84-1-1.83-2.06s.54-1.74,1.85-2a14.8,14.8,0,0,1,6.18,0,1.74,1.74,0,0,1,1.57,1.45c.06.37,0,.58-.46.57s-1.15,0-1.72,0c-.19,0-.41,0-.48-.2-.22-.72-.83-.73-1.4-.75s-1.42,0-2.12,0c-.5,0-1,.17-1,.72s.57.68,1,.73c1,.11,2,.15,3,.21a7.34,7.34,0,0,1,1.92.37,2.23,2.23,0,0,1-.15,4.34,15.27,15.27,0,0,1-4.09.32"/><path class="a2441dcd-e0b8-4601-afdb-6c6bf5b77353" d="M71.4,46.66c-1.13-.16-2.35.07-3.39-.67a2.22,2.22,0,0,1-.65-.61,1.35,1.35,0,0,1-.19-1.17c.15-.35.59-.16.89-.16.67,0,1.39-.21,1.81.63.15.29.63.3,1,.32a8.06,8.06,0,0,0,2.77-.11c.34-.09.79-.13.8-.66s-.41-.71-.81-.76c-1.19-.16-2.39-.26-3.58-.37a6.14,6.14,0,0,1-1.59-.37,1.81,1.81,0,0,1-1.32-1.86A1.75,1.75,0,0,1,68.49,39a13.11,13.11,0,0,1,7,0,1.48,1.48,0,0,1,1.2,1.38c0,.34-.07.52-.44.51-.6,0-1.21,0-1.81,0-.15,0-.33,0-.4-.19-.21-.7-.81-.73-1.39-.77a11.74,11.74,0,0,0-2.37.06c-.4.06-.77.25-.81.68s.38.64.76.68c1.08.12,2.17.2,3.26.28a6.62,6.62,0,0,1,2.15.46,2.12,2.12,0,0,1,1.43,2.08,2.07,2.07,0,0,1-1.47,2.05,13.35,13.35,0,0,1-4.23.46"/><path class="a2441dcd-e0b8-4601-afdb-6c6bf5b77353" d="M10,43.52c0,.85,0,1.7,0,2.54,0,.35-.1.49-.46.47s-1,.15-1.29,0c-1.11-.64-2.09.19-3.14.14a17.59,17.59,0,0,1-3.25-.24A2,2,0,0,1,0,44.11,2.1,2.1,0,0,1,2,42a13.63,13.63,0,0,1,5.21,0c.44.08.52,0,.5-.41s0-1-.55-1.17a5.35,5.35,0,0,0-4.21,0A6.17,6.17,0,0,1,.57,41c-.63.07-.63-.22-.42-.66a3,3,0,0,1,2.51-1.6,18.83,18.83,0,0,1,5.14,0A2.43,2.43,0,0,1,10,41.15c0,.79,0,1.58,0,2.37ZM4.67,45.3A11.75,11.75,0,0,0,7,45.07.94.94,0,0,0,7,43.2,10.41,10.41,0,0,0,4.65,43a4.19,4.19,0,0,0-1.85.26,1,1,0,0,0-.66,1.1,1,1,0,0,0,.88.92,7.64,7.64,0,0,0,1.65,0"/><path class="a2441dcd-e0b8-4601-afdb-6c6bf5b77353" d="M34.76,42.93c-1.17,0-2.34,0-3.52,0-.45,0-.55.14-.47.57A1.67,1.67,0,0,0,32.34,45a8,8,0,0,0,3.09-.11c.46-.12.89-.3,1-.84.06-.28.23-.32.48-.32H38c1,0,1.11.2.6,1.1a3.25,3.25,0,0,1-2.25,1.49,11.72,11.72,0,0,1-4.79.14c-2.2-.38-3.35-1.63-3.11-4.63a3.19,3.19,0,0,1,2.67-3,11.1,11.1,0,0,1,5.19,0,3.24,3.24,0,0,1,2.61,3.69c0,.4-.22.42-.52.42h-3.6m-1.33-1.37h2.29c.23,0,.54.12.66-.15a.78.78,0,0,0-.24-.81,1.49,1.49,0,0,0-.83-.48,8.12,8.12,0,0,0-3.4,0,1.51,1.51,0,0,0-1.1.88c-.14.34-.15.57.34.55.76,0,1.52,0,2.28,0"/><path class="a2441dcd-e0b8-4601-afdb-6c6bf5b77353" d="M94.67,42.93c-1.14,0-2.29,0-3.43,0-.67,0-.7.24-.56.76A1.72,1.72,0,0,0,92.25,45a8.46,8.46,0,0,0,3-.11c.5-.12.95-.32,1.07-.88,0-.25.18-.29.39-.29h1.14c1,0,1.1.1.62,1a3.58,3.58,0,0,1-2.91,1.71,11.89,11.89,0,0,1-4.64-.11,3,3,0,0,1-2.53-2.56c-.46-2.74.2-4.78,3.61-5.16a12,12,0,0,1,4.22.18c1.94.48,2.53,1.85,2.56,3.68,0,.49-.3.42-.6.42H94.67m-1.22-1.37c.71,0,1.42,0,2.13,0,.25,0,.62.17.73-.16a.93.93,0,0,0-.35-.87,1.47,1.47,0,0,0-.79-.41,8.12,8.12,0,0,0-3.4,0,1.51,1.51,0,0,0-1,.84c-.2.39-.15.6.36.59.79,0,1.58,0,2.37,0"/><path class="a2441dcd-e0b8-4601-afdb-6c6bf5b77353" d="M56,38.75l.18-.06c2.3-.12,2.3-.12,3.33,1.94.63,1.26,1.27,2.52,2,3.94.66-1.72,1.3-3.26,1.82-4.84.27-.84.68-1.21,1.56-1.06a6.41,6.41,0,0,0,1,0c0,.12.05.21,0,.28-1.05,2.56-2.1,5.13-3.17,7.69a6.75,6.75,0,0,1-1.34,2,3.45,3.45,0,0,1-2.77.94c-.32,0-.43-.16-.42-.46a8,8,0,0,0,0-1c0-.38.07-.57.49-.51a1.36,1.36,0,0,0,.79-.13A1,1,0,0,0,60,46l-3.57-6.51c-.13-.24-.24-.48-.39-.78"/><path class="a2441dcd-e0b8-4601-afdb-6c6bf5b77353" d="M83.92,40.11c-.6,0-1.21,0-1.8,0s-.56.15-.55.57c0,.92.05,1.85,0,2.78a1.14,1.14,0,0,0,1,1.28,1.91,1.91,0,0,0,2.32-.95.41.41,0,0,1,.39-.21h.82c1.22,0,1.38.29.77,1.4a3.1,3.1,0,0,1-2.38,1.55,9.16,9.16,0,0,1-3.09,0,2.55,2.55,0,0,1-2.25-2.59c0-1.06,0-2.12,0-3.19,0-.4,0-.71-.55-.62-.74.13-.58-.39-.62-.81s.08-.74.61-.64.56-.2.56-.62c0-1.1,0-1.1,1.13-1.1h.17c1.1,0,1.13,0,1.11,1.12,0,.54.21.62.67.61,1.15,0,2.29,0,3.44,0,.64,0,.6.32.62.75s-.06.78-.66.73-1.14,0-1.71,0"/><path class="a2441dcd-e0b8-4601-afdb-6c6bf5b77353" d="M26.68,41c0,1.6,0,3.21,0,4.82,0,.54-.1.76-.71.75-1.68,0-1.68,0-1.68-1.64,0-2.89,0-5.78,0-8.66,0-.69.11-1,.88-.93,1.51.07,1.52,0,1.52,1.57Z"/><path class="a0567f66-632e-40f5-bf9c-05552cc90cd6" d="M36.4,19.63l-.11,0h0l.06,0v0"/></g></g></svg>