<svg xmlns="http://www.w3.org/2000/svg" xmlns:xlink="http://www.w3.org/1999/xlink" viewBox="0 0 141.75 76.28"><defs><style>.b820157a-77fb-46ae-9e70-175a2c6ee99b{fill:none;}.b485ec1a-4d47-4655-8677-09854d95ebec{clip-path:url(#ee836f9e-bc42-42bb-b960-e3d7e5d94382);}.add0a77c-c377-44f4-adf2-9f5f662f9543{fill:url(#f2d0bdc8-9b0f-4932-b0ef-654f1bc2a450);}.b8844cf5-1a0f-49ef-9b5d-d1d1d5511d91{fill:#486d81;}.a21d9944-e339-4bd3-8949-2e9cf2faf110,.af2b6f9b-7b8a-45c8-89c2-194aaea8c664,.b000a885-f256-4cdc-bba1-8c61e228fc1f,.b676019f-9622-46ed-a4fd-fdcc1d9e8688,.b8844cf5-1a0f-49ef-9b5d-d1d1d5511d91,.e74f9c23-8d26-4d31-bbfd-b36a551f84a2{fill-rule:evenodd;}.b000a885-f256-4cdc-bba1-8c61e228fc1f{fill:#3e616d;}.bcfa6bb2-1ff9-4d69-b6b3-228bd339cce1{clip-path:url(#ae9bd305-4095-42ae-b7ac-a750ce8d0d4f);}.b5d2c734-d0e8-4e48-8c47-1e6dcafd875e{fill:url(#b325fe3a-a374-4b6b-8783-3d3682b2778f);}.b28e6726-32e5-4d6b-8cda-f84589409427{clip-path:url(#b240f6f5-64d1-4f7e-9db0-b1bc6a8b2d2e);}.eb686f73-62b3-4bbb-a32c-b325f695f4c4{fill:url(#f3f98b80-414a-4284-85ba-92aee1c1c6fa);}.becebed1-3056-4775-b94a-159628006405{clip-path:url(#e3aa4e31-4986-4de3-856d-f974ee4261c9);}.ffa9487d-614b-40f3-a415-fe0d6a7a4438{fill:url(#f31908dd-a495-405a-b779-4a8f1dccbda9);}.b283d046-9315-4c83-85df-daab5757bf4f{clip-path:url(#b1a15bdd-584c-43a0-9873-c0d8eb8b4b02);}.b6b3e033-d87c-4da8-821e-39efda394ed5{fill:url(#f518970b-d80e-4bc3-b1ea-73a332dd116d);}.a2e39a22-422f-4534-9e06-878dbddb1396{clip-path:url(#b6bbb546-6a3a-42c4-9447-9fed507e43c3);}.fee3d5a1-ee41-45ac-ab61-5db9fb4e7f7c{fill:url(#a51560f6-cee1-48d1-ad20-fa1bc2ae0efc);}.e74f9c23-8d26-4d31-bbfd-b36a551f84a2{fill:#5678ad;}.a21d9944-e339-4bd3-8949-2e9cf2faf110{fill:#6394cd;}.b676019f-9622-46ed-a4fd-fdcc1d9e8688{fill:#51759c;}.af2b6f9b-7b8a-45c8-89c2-194aaea8c664{fill:#456380;}.a5aab1a4-70ad-477b-8b0c-4ac07bc1461d{fill:#201600;}</style><clipPath id="ee836f9e-bc42-42bb-b960-e3d7e5d94382"><polygon class="b820157a-77fb-46ae-9e70-175a2c6ee99b" points="83.71 43.25 81.71 58.68 95.94 34.03 83.71 43.25"/></clipPath><linearGradient id="f2d0bdc8-9b0f-4932-b0ef-654f1bc2a450" x1="-875.32" y1="-501.81" x2="-874.32" y2="-501.81" gradientTransform="matrix(14.23, 0, 0, -14.23, 12541.58, -7096.67)" gradientUnits="userSpaceOnUse"><stop offset="0" stop-color="#475a83"/><stop offset="1" stop-color="#405276"/></linearGradient><clipPath id="ae9bd305-4095-42ae-b7ac-a750ce8d0d4f"><polygon class="b820157a-77fb-46ae-9e70-175a2c6ee99b" points="39 34.03 53.24 58.68 51.3 43.25 39 34.03"/></clipPath><linearGradient id="b325fe3a-a374-4b6b-8783-3d3682b2778f" x1="-875.32" y1="-501.81" x2="-874.32" y2="-501.81" gradientTransform="matrix(14.23, 0, 0, -14.23, 12498.88, -7096.67)" gradientUnits="userSpaceOnUse"><stop offset="0" stop-color="#548181"/><stop offset="1" stop-color="#80aaac"/></linearGradient><clipPath id="b240f6f5-64d1-4f7e-9db0-b1bc6a8b2d2e"><polygon class="b820157a-77fb-46ae-9e70-175a2c6ee99b" points="53.24 9.37 67.51 15.18 81.71 9.37 53.24 9.37"/></clipPath><linearGradient id="f3f98b80-414a-4284-85ba-92aee1c1c6fa" x1="-968.72" y1="-459.08" x2="-967.72" y2="-459.08" gradientTransform="matrix(0, -28.47, -28.47, 0, -13002.43, -27552.79)" gradientUnits="userSpaceOnUse"><stop offset="0" stop-color="#4b7288"/><stop offset="1" stop-color="#71a7bc"/></linearGradient><clipPath id="e3aa4e31-4986-4de3-856d-f974ee4261c9"><polygon class="b820157a-77fb-46ae-9e70-175a2c6ee99b" points="39 34.03 51.3 43.25 59.41 29.21 39 34.03"/></clipPath><linearGradient id="f31908dd-a495-405a-b779-4a8f1dccbda9" x1="-882.57" y1="-446.11" x2="-881.57" y2="-446.11" gradientTransform="matrix(0, 24.76, 24.76, 0, 11094.7, 21875.75)" gradientUnits="userSpaceOnUse"><stop offset="0" stop-color="#6eb1b7"/><stop offset="1" stop-color="#8fcadc"/></linearGradient><clipPath id="b1a15bdd-584c-43a0-9873-c0d8eb8b4b02"><polygon class="b820157a-77fb-46ae-9e70-175a2c6ee99b" points="39 34.03 59.41 29.21 53.24 9.37 39 34.03"/></clipPath><linearGradient id="f518970b-d80e-4bc3-b1ea-73a332dd116d" x1="-892.26" y1="-443.32" x2="-891.26" y2="-443.32" gradientTransform="matrix(0, 30.6, 30.6, 0, 13613.85, 27307.62)" gradientUnits="userSpaceOnUse"><stop offset="0" stop-color="#76b0ad"/><stop offset="1" stop-color="#a8d4d9"/></linearGradient><clipPath id="b6bbb546-6a3a-42c4-9447-9fed507e43c3"><polygon class="b820157a-77fb-46ae-9e70-175a2c6ee99b" points="53.24 9.37 59.41 29.21 67.51 15.18 53.24 9.37"/></clipPath><linearGradient id="a51560f6-cee1-48d1-ad20-fa1bc2ae0efc" x1="-878.99" y1="-437.11" x2="-877.99" y2="-437.11" gradientTransform="matrix(0, 24.04, 24.04, 0, 10569.31, 21139.91)" gradientUnits="userSpaceOnUse"><stop offset="0" stop-color="#69aaaf"/><stop offset="1" stop-color="#8fcadd"/></linearGradient></defs><title>96</title><g id="be789e36-2b7c-42b3-9f17-48aadd1077ee" data-name="Слой 2"><g id="f74098b1-0184-40a5-989b-4975854d6d41" data-name="Слой 1"><g class="b485ec1a-4d47-4655-8677-09854d95ebec"><rect class="add0a77c-c377-44f4-adf2-9f5f662f9543" x="81.71" y="34.03" width="14.24" height="24.66"/></g><polygon class="b8844cf5-1a0f-49ef-9b5d-d1d1d5511d91" points="53.24 58.68 81.71 58.68 67.51 43.25 53.24 58.68"/><polygon class="b000a885-f256-4cdc-bba1-8c61e228fc1f" points="67.51 43.25 51.3 43.25 53.24 58.68 67.51 43.25"/><g class="bcfa6bb2-1ff9-4d69-b6b3-228bd339cce1"><rect class="b5d2c734-d0e8-4e48-8c47-1e6dcafd875e" x="39" y="34.03" width="14.23" height="24.66"/></g><g class="b28e6726-32e5-4d6b-8cda-f84589409427"><rect class="eb686f73-62b3-4bbb-a32c-b325f695f4c4" x="53.24" y="9.37" width="28.47" height="5.81"/></g><g class="becebed1-3056-4775-b94a-159628006405"><rect class="ffa9487d-614b-40f3-a415-fe0d6a7a4438" x="37.71" y="23.85" width="23" height="24.76" transform="translate(-8.24 57.07) rotate(-56.31)"/></g><g class="b283d046-9315-4c83-85df-daab5757bf4f"><rect class="b6b3e033-d87c-4da8-821e-39efda394ed5" x="33.3" y="6.4" width="31.81" height="30.6" transform="translate(4.02 50.86) rotate(-56.63)"/></g><g class="a2e39a22-422f-4534-9e06-878dbddb1396"><rect class="fee3d5a1-ee41-45ac-ab61-5db9fb4e7f7c" x="48.28" y="7.27" width="24.19" height="24.04" transform="translate(4.6 49.4) rotate(-46.08)"/></g><polygon class="e74f9c23-8d26-4d31-bbfd-b36a551f84a2" points="83.71 43.25 75.61 29.21 95.94 34.03 83.71 43.25"/><polygon class="a21d9944-e339-4bd3-8949-2e9cf2faf110" points="95.94 34.03 81.71 9.37 75.61 29.21 95.94 34.03"/><polygon class="b676019f-9622-46ed-a4fd-fdcc1d9e8688" points="75.61 29.21 81.71 9.37 67.51 15.18 75.61 29.21"/><polygon class="af2b6f9b-7b8a-45c8-89c2-194aaea8c664" points="81.71 58.68 67.51 43.25 83.71 43.25 81.71 58.68"/><path class="a5aab1a4-70ad-477b-8b0c-4ac07bc1461d" d="M0,69.08H2.19v2.48H4.58V69.08h2.2v7.08H4.58V73.3H2.19v2.86H0Z"/><path class="a5aab1a4-70ad-477b-8b0c-4ac07bc1461d" d="M8.57,69.08h5.86V70.6H10.76v1.12h3.41v1.44H10.76v1.4h3.78v1.6h-6Z"/><path class="a5aab1a4-70ad-477b-8b0c-4ac07bc1461d" d="M20.91,69.62q3.22.34,3.22,2.9t-3.22,2.91v.73h-2v-.75c-2.15-.18-3.22-1.15-3.22-2.89s1.07-2.67,3.22-2.9v-.54h2Zm-2,4.35V71a1.43,1.43,0,0,0-.79.55,1.57,1.57,0,0,0-.3.94,1.43,1.43,0,0,0,.3.89A1.6,1.6,0,0,0,18.92,74Zm2,0A1.46,1.46,0,0,0,22,72.49,1.57,1.57,0,0,0,20.91,71Z"/><path class="a5aab1a4-70ad-477b-8b0c-4ac07bc1461d" d="M25.05,69.08H31.7v1.75H29.47v5.33H27.28V70.83H25.05Z"/><path class="a5aab1a4-70ad-477b-8b0c-4ac07bc1461d" d="M35.23,71.81H36.4a4.07,4.07,0,0,1,2.39.57,2.07,2.07,0,0,1,.77,1.77,1.74,1.74,0,0,1-.71,1.5,3.45,3.45,0,0,1-2,.51H33.05V69.08h2.18Zm0,2.83h1.12c.69,0,1-.24,1-.74s-.34-.65-1-.65H35.23Z"/><path class="a5aab1a4-70ad-477b-8b0c-4ac07bc1461d" d="M40.37,72.82h2.86v1.52H40.37Z"/><path class="a5aab1a4-70ad-477b-8b0c-4ac07bc1461d" d="M49.05,73.27l1.92.58a3.68,3.68,0,0,1-.61,1.34,2.65,2.65,0,0,1-1,.82,4,4,0,0,1-1.57.27A4.64,4.64,0,0,1,45.87,76a3,3,0,0,1-1.26-1.18,4,4,0,0,1-.53-2.16,3.69,3.69,0,0,1,.93-2.7,4.25,4.25,0,0,1,4.75-.41,3.25,3.25,0,0,1,1.14,1.67L49,71.6a1.55,1.55,0,0,0-.22-.48,1.23,1.23,0,0,0-.44-.38,1.33,1.33,0,0,0-.6-.14,1.29,1.29,0,0,0-1.14.6,2.52,2.52,0,0,0-.3,1.39,2.64,2.64,0,0,0,.36,1.62,1.22,1.22,0,0,0,1,.43,1.2,1.2,0,0,0,.95-.35A2.15,2.15,0,0,0,49.05,73.27Z"/><path class="a5aab1a4-70ad-477b-8b0c-4ac07bc1461d" d="M52.37,69.08h5.87V70.6H54.57v1.12H58v1.44h-3.4v1.4h3.77v1.6h-6Z"/><path class="a5aab1a4-70ad-477b-8b0c-4ac07bc1461d" d="M59.86,69.08h3.63a2.46,2.46,0,0,1,1.78.57,2.1,2.1,0,0,1,.59,1.61,2.17,2.17,0,0,1-.64,1.67,2.77,2.77,0,0,1-2,.61h-1.2v2.62H59.86Zm2.19,3h.54a1.36,1.36,0,0,0,.89-.22.69.69,0,0,0,.25-.56.8.8,0,0,0-.22-.57,1.18,1.18,0,0,0-.83-.23h-.63Z"/><path class="a5aab1a4-70ad-477b-8b0c-4ac07bc1461d" d="M67.36,69.08h4.09a2.24,2.24,0,0,1,1.58.51,1.67,1.67,0,0,1,.55,1.26,1.58,1.58,0,0,1-.4,1.07,1.78,1.78,0,0,1-.76.48,1.94,1.94,0,0,1,1.12.63,1.73,1.73,0,0,1,.36,1.12,1.92,1.92,0,0,1-.25,1,2,2,0,0,1-.7.7,2.54,2.54,0,0,1-.83.23c-.5.06-.82.09-1,.09H67.36Zm2.21,2.78h1a1.06,1.06,0,0,0,.71-.18.63.63,0,0,0,.2-.5.63.63,0,0,0-.2-.49,1.12,1.12,0,0,0-.7-.17h-1Zm0,2.78h1.11a1.2,1.2,0,0,0,.8-.2.68.68,0,0,0,.23-.54.64.64,0,0,0-.23-.5,1.25,1.25,0,0,0-.8-.19H69.57Z"/><path class="a5aab1a4-70ad-477b-8b0c-4ac07bc1461d" d="M82.17,69.08v7.08H80.11V72.28l-2.64,3.88H75.4V69.08h2.06V73l2.67-3.92Z"/><path class="a5aab1a4-70ad-477b-8b0c-4ac07bc1461d" d="M88.7,73.27l1.91.58A3.38,3.38,0,0,1,90,75.19,2.58,2.58,0,0,1,89,76a3.9,3.9,0,0,1-1.56.27A4.64,4.64,0,0,1,85.52,76a2.94,2.94,0,0,1-1.26-1.18,3.93,3.93,0,0,1-.53-2.16,3.69,3.69,0,0,1,.93-2.7,3.56,3.56,0,0,1,2.64-1,3.6,3.6,0,0,1,2.11.54,3.25,3.25,0,0,1,1.14,1.67l-1.94.43a1.36,1.36,0,0,0-.21-.48,1.18,1.18,0,0,0-.45-.38,1.25,1.25,0,0,0-.59-.14,1.27,1.27,0,0,0-1.14.6,2.52,2.52,0,0,0-.3,1.39,2.64,2.64,0,0,0,.36,1.62,1.42,1.42,0,0,0,2,.08A2.25,2.25,0,0,0,88.7,73.27Z"/><path class="a5aab1a4-70ad-477b-8b0c-4ac07bc1461d" d="M102.11,76.16H99.93V70.82H97.52v5.34H95.34V69.08h6.77Z"/><path class="a5aab1a4-70ad-477b-8b0c-4ac07bc1461d" d="M103.9,69.08h3.64a2.47,2.47,0,0,1,1.78.57,2.1,2.1,0,0,1,.59,1.61,2.17,2.17,0,0,1-.64,1.67,2.77,2.77,0,0,1-2,.61h-1.2v2.62h-2.2Zm2.2,3h.54a1.36,1.36,0,0,0,.89-.22.69.69,0,0,0,.25-.56.8.8,0,0,0-.22-.57,1.18,1.18,0,0,0-.83-.23h-.63Z"/><path class="a5aab1a4-70ad-477b-8b0c-4ac07bc1461d" d="M111.13,72.63A3.35,3.35,0,0,1,114.78,69a3.73,3.73,0,0,1,2.73,1,3.56,3.56,0,0,1,.95,2.66,4.48,4.48,0,0,1-.41,2,2.93,2.93,0,0,1-1.21,1.23,3.93,3.93,0,0,1-2,.44,4.43,4.43,0,0,1-2-.38,2.88,2.88,0,0,1-1.27-1.2A4,4,0,0,1,111.13,72.63Zm2.19,0a2.41,2.41,0,0,0,.39,1.54,1.51,1.51,0,0,0,2.18,0,2.62,2.62,0,0,0,.39-1.65,2.19,2.19,0,0,0-.41-1.46,1.36,1.36,0,0,0-1.09-.46,1.32,1.32,0,0,0-1.06.47A2.36,2.36,0,0,0,113.32,72.64Z"/><path class="a5aab1a4-70ad-477b-8b0c-4ac07bc1461d" d="M126.43,76.16H124l-.85-1.82a2.94,2.94,0,0,0-.47-.81.64.64,0,0,0-.47-.17v2.8H120V69.08h2.18V71.8a.59.59,0,0,0,.45-.2,5.31,5.31,0,0,0,.49-1.08,3.24,3.24,0,0,1,.5-1,1.48,1.48,0,0,1,.82-.41A8.34,8.34,0,0,1,126.2,69v1.5h-.11a1.33,1.33,0,0,0-.83.21,1.53,1.53,0,0,0-.45.69,2.31,2.31,0,0,1-.37.71,1.4,1.4,0,0,1-.55.37,2,2,0,0,1,.83.54,5.26,5.26,0,0,1,.75,1.18Z"/><path class="a5aab1a4-70ad-477b-8b0c-4ac07bc1461d" d="M131.91,75h-2.49l-.34,1.16h-2.23l2.66-7.08h2.38l2.66,7.08h-2.29Zm-.45-1.54-.79-2.54-.77,2.54Z"/><path class="a5aab1a4-70ad-477b-8b0c-4ac07bc1461d" d="M135.1,69.08h6.65v1.75h-2.23v5.33h-2.19V70.83H135.1Z"/></g></g></svg>