<svg xmlns="http://www.w3.org/2000/svg" viewBox="0 0 150.38 47.23"><defs><style>.e7ec6e1b-10dc-4ba8-b15d-ee67b361788b{fill:#81714d;}</style></defs><title>97</title><g id="bd03cfc5-f5f1-4bf0-ba3e-8cbd50f9acc3" data-name="Слой 2"><g id="fc69b475-7a78-46ec-8409-46882d8af24c" data-name="Слой 1"><path class="e7ec6e1b-10dc-4ba8-b15d-ee67b361788b" d="M39.22,21.4H42a2.92,2.92,0,0,1,3.23,2.94v.74a2.76,2.76,0,0,1-1.55,2.58,3,3,0,0,1,1.92,3v.67a3,3,0,0,1-3.22,3.2H39.22Zm.78,1v4.9h1.94a2.15,2.15,0,0,0,2.44-2.11v-.77c0-1.17-.9-2-2.44-2Zm0,5.86v5.33h2.31a2.22,2.22,0,0,0,2.46-2.27v-.71a2.26,2.26,0,0,0-2.46-2.35Z"/><path class="e7ec6e1b-10dc-4ba8-b15d-ee67b361788b" d="M46.31,34.49,49.89,21.4h.85L54.3,34.49h-.82l-.87-3.22H48l-.85,3.22Zm1.94-4.17h4.12L50.3,22.6Z"/><path class="e7ec6e1b-10dc-4ba8-b15d-ee67b361788b" d="M56.53,34.49h-.78V21.4h2.94a3.17,3.17,0,0,1,3.23,3.46v.64a3.22,3.22,0,0,1-2.24,3.32l2.64,5.67h-.86L58.92,29H56.53Zm0-12.14V28h2.16a2.31,2.31,0,0,0,2.43-2.49v-.69a2.3,2.3,0,0,0-2.43-2.47Z"/><path class="e7ec6e1b-10dc-4ba8-b15d-ee67b361788b" d="M69.13,24.64a2.26,2.26,0,0,0-2.31-2.42,2.15,2.15,0,0,0-2.25,2.3,2.34,2.34,0,0,0,1.1,2.1l3,1.83a3.28,3.28,0,0,1,1.42,2.86,3.1,3.1,0,0,1-3.2,3.31,3.18,3.18,0,0,1-3.25-3.4v-.53h.8v.53a2.33,2.33,0,0,0,2.46,2.45,2.23,2.23,0,0,0,2.39-2.34,2.31,2.31,0,0,0-1.1-2.06l-3-1.83a3.33,3.33,0,0,1-1.46-2.86,3,3,0,0,1,3.06-3.31,3.1,3.1,0,0,1,3.11,3.37v.46h-.8Z"/><path class="e7ec6e1b-10dc-4ba8-b15d-ee67b361788b" d="M81.91,30.56v.6a3.35,3.35,0,1,1-6.7,0V24.73a3.35,3.35,0,1,1,6.7,0v.63h-.79v-.67a2.56,2.56,0,0,0-5.11,0V31.2a2.56,2.56,0,0,0,5.11,0v-.62Z"/><path class="e7ec6e1b-10dc-4ba8-b15d-ee67b361788b" d="M83,34.49,86.6,21.4h.85L91,34.49h-.83l-.86-3.22H84.72l-.85,3.22ZM85,30.32h4.12L87,22.6Z"/><path class="e7ec6e1b-10dc-4ba8-b15d-ee67b361788b" d="M93.25,29v5.53h-.79V21.4h3.05a3.16,3.16,0,0,1,3.22,3.46v.64A3.17,3.17,0,0,1,95.51,29Zm0-6.61V28h2.26a2.31,2.31,0,0,0,2.42-2.49v-.69a2.3,2.3,0,0,0-2.42-2.47Z"/><rect class="e7ec6e1b-10dc-4ba8-b15d-ee67b361788b" x="100.85" y="21.4" width="0.79" height="13.09"/><polygon class="e7ec6e1b-10dc-4ba8-b15d-ee67b361788b" points="110.4 22.35 107.21 22.35 107.21 34.49 106.41 34.49 106.41 22.35 103.24 22.35 103.24 21.4 110.4 21.4 110.4 22.35"/><path class="e7ec6e1b-10dc-4ba8-b15d-ee67b361788b" d="M110.26,34.49l3.57-13.09h.85l3.56,13.09h-.82l-.87-3.22H112l-.85,3.22Zm1.93-4.17h4.12l-2.07-7.72Z"/><polygon class="e7ec6e1b-10dc-4ba8-b15d-ee67b361788b" points="119.69 21.4 120.48 21.4 120.48 33.54 124.97 33.54 124.97 34.49 119.69 34.49 119.69 21.4"/><polygon class="e7ec6e1b-10dc-4ba8-b15d-ee67b361788b" points="130.08 21.4 130.87 21.4 130.87 33.54 135.36 33.54 135.36 34.49 130.08 34.49 130.08 21.4"/><polygon class="e7ec6e1b-10dc-4ba8-b15d-ee67b361788b" points="142.31 22.35 139.13 22.35 139.13 34.49 138.32 34.49 138.32 22.35 135.15 22.35 135.15 21.4 142.31 21.4 142.31 22.35"/><path class="e7ec6e1b-10dc-4ba8-b15d-ee67b361788b" d="M143.9,21.4h3.25a3.16,3.16,0,0,1,3.23,3.46V31a3.16,3.16,0,0,1-3.23,3.46H143.9Zm.79,1V33.54h2.46a2.31,2.31,0,0,0,2.44-2.47V24.82a2.31,2.31,0,0,0-2.44-2.47Z"/><path class="e7ec6e1b-10dc-4ba8-b15d-ee67b361788b" d="M43,42.78V45a2.15,2.15,0,1,1-4.3,0V40.88a2.15,2.15,0,1,1,4.3,0v.41h-.5v-.44a1.65,1.65,0,0,0-3.29,0V45a1.65,1.65,0,0,0,3.29,0V43.39H40.88v-.61Z"/><path class="e7ec6e1b-10dc-4ba8-b15d-ee67b361788b" d="M45,47.15h-.51V38.74h1.89A2,2,0,0,1,48.42,41v.41A2.08,2.08,0,0,1,47,43.51l1.69,3.64h-.54l-1.64-3.56H45Zm0-7.8V43h1.38a1.49,1.49,0,0,0,1.56-1.6v-.44a1.48,1.48,0,0,0-1.56-1.59Z"/><path class="e7ec6e1b-10dc-4ba8-b15d-ee67b361788b" d="M52,47.23A2.09,2.09,0,0,1,49.8,45V40.88a2.15,2.15,0,1,1,4.3,0V45A2.09,2.09,0,0,1,52,47.23m1.65-6.38a1.65,1.65,0,0,0-3.29,0V45a1.65,1.65,0,0,0,3.29,0Z"/><path class="e7ec6e1b-10dc-4ba8-b15d-ee67b361788b" d="M59.9,38.74V45a2.15,2.15,0,1,1-4.3,0V38.74h.52V45a1.64,1.64,0,0,0,3.27,0V38.74Z"/><path class="e7ec6e1b-10dc-4ba8-b15d-ee67b361788b" d="M62,43.59v3.56h-.5V38.74h2A2,2,0,0,1,65.52,41v.41a2,2,0,0,1-2.07,2.22Zm0-4.24V43h1.45A1.49,1.49,0,0,0,65,41.38v-.44a1.48,1.48,0,0,0-1.56-1.59Z"/><path class="e7ec6e1b-10dc-4ba8-b15d-ee67b361788b" d="M73.1,44.63V45a2.15,2.15,0,1,1-4.3,0V40.88a2.15,2.15,0,1,1,4.3,0v.41h-.51v-.44a1.64,1.64,0,0,0-3.28,0V45a1.64,1.64,0,0,0,3.28,0v-.39Z"/><path class="e7ec6e1b-10dc-4ba8-b15d-ee67b361788b" d="M76.63,47.23A2.09,2.09,0,0,1,74.48,45V40.88a2.15,2.15,0,1,1,4.3,0V45a2.09,2.09,0,0,1-2.15,2.22m1.64-6.38a1.64,1.64,0,0,0-3.28,0V45a1.64,1.64,0,0,0,3.28,0Z"/><polygon class="e7ec6e1b-10dc-4ba8-b15d-ee67b361788b" points="80.36 47.15 80.36 38.74 80.8 38.74 82.97 44.52 85.17 38.74 85.61 38.74 85.61 47.15 85.13 47.15 85.13 40.2 83.12 45.54 82.83 45.54 80.84 40.2 80.84 47.15 80.36 47.15"/><path class="e7ec6e1b-10dc-4ba8-b15d-ee67b361788b" d="M87.79,43.59v3.56h-.51V38.74h2A2,2,0,0,1,91.31,41v.41a2,2,0,0,1-2.07,2.22Zm0-4.24V43h1.45a1.49,1.49,0,0,0,1.56-1.6v-.44a1.48,1.48,0,0,0-1.56-1.59Z"/><path class="e7ec6e1b-10dc-4ba8-b15d-ee67b361788b" d="M91.48,47.15l2.29-8.41h.55l2.29,8.41h-.53l-.56-2.07h-3L92,47.15Zm1.24-2.68h2.64l-1.32-5Z"/><polygon class="e7ec6e1b-10dc-4ba8-b15d-ee67b361788b" points="97.53 47.15 97.53 38.74 97.99 38.74 101.34 45.9 101.34 38.74 101.84 38.74 101.84 47.15 101.37 47.15 98.03 40.01 98.03 47.15 97.53 47.15"/><polygon class="e7ec6e1b-10dc-4ba8-b15d-ee67b361788b" points="104.9 43.71 102.76 38.74 103.3 38.74 105.16 43.09 107.03 38.74 107.58 38.74 105.42 43.71 105.42 47.15 104.9 47.15 104.9 43.71"/><path class="e7ec6e1b-10dc-4ba8-b15d-ee67b361788b" d="M17.28,42.11a1.41,1.41,0,0,1-1.22-.5,1.36,1.36,0,0,1-.19-.72,2.67,2.67,0,0,1,.6-1.55,10,10,0,0,0,.83-1.4,6.45,6.45,0,0,0,.49-3.07,6.28,6.28,0,0,1,.07-1.28,2.57,2.57,0,0,1,1.43-1.75l.19-.09a6.32,6.32,0,0,0,1.66-1,9.5,9.5,0,0,0,2.42-3.9,14.73,14.73,0,0,0,.86-3.67,6,6,0,0,0-2.93.68c-2.59,1.4-3.54,4.64-4.38,7.5-.24.84-.47,1.63-.74,2.36a13.31,13.31,0,0,1-3.69,5.72c-3.36,2.87-6.11,2.86-7.83,2.35A6.93,6.93,0,0,1,1,38.69a8.32,8.32,0,0,1-.41-6.95A2.67,2.67,0,0,1,2.12,30a1.85,1.85,0,0,1,1.42.3,1.71,1.71,0,0,1,.82,1.07,1.48,1.48,0,0,1-.48,1.23,3.22,3.22,0,0,0-.44.63,3.53,3.53,0,0,0,.16,2.68,4.21,4.21,0,0,0,2.31,2.42c2.25.82,4.52-1.34,5.16-2a11.79,11.79,0,0,0,2.19-4.8l.06-.22c1.2-4.26,2.7-9.56,7.18-11.6a35.76,35.76,0,0,1,7.41-1.85A3.72,3.72,0,0,0,30.54,16c1.53-2,3.1-4.13,4.83-6C37.91,7.14,41.08,4,45.26,2.42a27.32,27.32,0,0,1,3.68-1l.13,0,.58-.08A11.6,11.6,0,0,0,51.31,1c.27-.47.5-.86.93-1a1.12,1.12,0,0,1,.92.27,1.14,1.14,0,0,1,.38.66l1,.07a2.59,2.59,0,0,1,1.13.55,9.61,9.61,0,0,1,1.05,1.34l.39.14c1.25.42,2,.71,1.88,1.26A3.87,3.87,0,0,1,58.21,6V6a1,1,0,0,1-.63,1.27,1.87,1.87,0,0,1-.92.07A4,4,0,0,1,56,7.18c-.44-.16-.73-.25-1-.1l-.11.08a14.4,14.4,0,0,1,2.49,1.41,4.75,4.75,0,0,1,1.08,1,3,3,0,0,1,.42,2.14,1.47,1.47,0,0,1-.68,1c-.47.28-1-.13-1.32-.39l-.13-.09a6.69,6.69,0,0,1-.79-.7l-.26-.24a2.64,2.64,0,0,0-1-.66,2.93,2.93,0,0,0-.82-.13h0a10.52,10.52,0,0,0-3.37,1.36c-2.06,1.19-3.2,1.85-4.5,1.67a4.26,4.26,0,0,1-2.7-1.82l.55-.42a3.58,3.58,0,0,0,2.25,1.56c1.06.14,2.12-.47,4-1.59a11.08,11.08,0,0,1,3.72-1.45,4.19,4.19,0,0,1,1.06.17,3.29,3.29,0,0,1,1.28.8l.27.26a6.7,6.7,0,0,0,.71.62,1.31,1.31,0,0,1,.15.12c.11.08.44.34.56.33a.78.78,0,0,0,.34-.55,2.3,2.3,0,0,0-.31-1.6A3.94,3.94,0,0,0,57,9.13a14.46,14.46,0,0,0-2.8-1.53l-.43-.2L54.11,7a1.92,1.92,0,0,1,.58-.51,1.82,1.82,0,0,1,1.57.06,3.87,3.87,0,0,0,.53.15,1,1,0,0,0,.55,0c.09,0,.25-.09.22-.38a.56.56,0,0,1-.14-.38.57.57,0,0,1,.33-.46,2.94,2.94,0,0,0,.53-1.15,7.08,7.08,0,0,0-1.4-.58c-.56-.18-.67-.22-.74-.41a8.91,8.91,0,0,0-1-1.21,1.74,1.74,0,0,0-.78-.38l-1.2-.08-.36,0,0-.36a.52.52,0,0,0-.16-.43A.4.4,0,0,0,52.4.7c-.15,0-.34.36-.51.67s-.56.38-2.16.58c-.24,0-.43.05-.5.07l-.14,0a26.31,26.31,0,0,0-3.58,1c-4,1.56-7.14,4.59-9.63,7.36-1.7,1.9-3.26,4-4.77,6A4.46,4.46,0,0,1,28,18.55a36.34,36.34,0,0,0-7.24,1.79c-4.18,1.91-5.63,7-6.8,11.15l-.06.23a12.31,12.31,0,0,1-2.35,5.09c-.71.76-3.25,3.17-5.9,2.2A4.86,4.86,0,0,1,3,36.21,4.17,4.17,0,0,1,2.82,33a4.3,4.3,0,0,1,.52-.77c.25-.3.37-.47.34-.66a1.08,1.08,0,0,0-.51-.62,1.22,1.22,0,0,0-.88-.21A2.12,2.12,0,0,0,1.21,32a7.6,7.6,0,0,0,.36,6.33A6.34,6.34,0,0,0,5,41.09c1.56.47,4.07.46,7.19-2.21a12.56,12.56,0,0,0,3.49-5.42c.26-.72.49-1.5.73-2.32.88-3,1.87-6.38,4.71-7.92a6.81,6.81,0,0,1,3.64-.75l.34,0v.33a14.61,14.61,0,0,1-.91,4.23,10.38,10.38,0,0,1-2.62,4.19,7.16,7.16,0,0,1-1.81,1.13l-.19.09a1.91,1.91,0,0,0-1.06,1.27,5.46,5.46,0,0,0-.06,1.14,7,7,0,0,1-.56,3.37A9.82,9.82,0,0,1,17,39.73a2,2,0,0,0-.48,1.21.84.84,0,0,0,.08.3c.13.19.71.24,1.22.1A3.67,3.67,0,0,0,20,38.85c.09-.23.18-.55.3-1s.3-1,.53-1.73a2.83,2.83,0,0,1,1.61-1.92l.93-.41a12.64,12.64,0,0,0,2.4-1.24,16.41,16.41,0,0,0,2.63-2.41l.51.46a16.57,16.57,0,0,1-2.74,2.52,13.1,13.1,0,0,1-2.52,1.3l-.92.41a2.13,2.13,0,0,0-1.24,1.5c-.23.7-.39,1.26-.52,1.71s-.23.77-.32,1A4.35,4.35,0,0,1,18,42a3.1,3.1,0,0,1-.75.1"/></g></g></svg>