<svg xmlns="http://www.w3.org/2000/svg" viewBox="0 0 138.73 15.65"><defs><style>.b3b41234-449d-4dad-853f-e6689f76d806{fill:#2b2b2b;}.a5f924ef-b0ab-4b79-97a7-5a8d78f3876f,.a87871df-3a67-45b8-9fec-aedc852df520,.b3b41234-449d-4dad-853f-e6689f76d806,.f40b2604-cf9e-4d50-ab7f-5c8c63c6925d{fill-rule:evenodd;}.f40b2604-cf9e-4d50-ab7f-5c8c63c6925d{fill:#cd1117;}.a87871df-3a67-45b8-9fec-aedc852df520{fill:#a4171f;}.a5f924ef-b0ab-4b79-97a7-5a8d78f3876f{fill:#e1000f;}</style></defs><title>98</title><g id="ee95790d-d3ec-4c5a-b92a-f0a24e6ff47a" data-name="Слой 2"><g id="b128f332-a3a7-4e32-9555-128b82e091b9" data-name="Слой 1"><polygon class="b3b41234-449d-4dad-853f-e6689f76d806" points="40.49 0 56.16 0 56.16 2.62 49.91 2.62 49.91 15.65 46.77 15.65 46.77 2.62 40.49 2.62 40.49 0"/><polygon class="b3b41234-449d-4dad-853f-e6689f76d806" points="105.15 6.29 105.15 15.65 102.04 15.65 102.04 0 111.43 7.82 120.84 0 120.84 15.65 117.68 15.65 117.68 6.29 111.43 11.52 105.15 6.29"/><polygon class="b3b41234-449d-4dad-853f-e6689f76d806" points="87.26 13.03 84.15 13.03 84.15 15.65 96.65 15.65 96.65 13.03 91.85 13.03 87.26 13.03"/><polygon class="b3b41234-449d-4dad-853f-e6689f76d806" points="84.15 0 84.15 2.62 87.26 2.62 90.79 2.62 96.65 2.62 96.65 0 84.15 0"/><polygon class="b3b41234-449d-4dad-853f-e6689f76d806" points="87.26 6.54 84.15 6.54 84.15 9.13 87.26 9.13 91.85 9.13 96.65 9.13 96.65 6.54 90.79 6.54 87.26 6.54"/><polygon class="f40b2604-cf9e-4d50-ab7f-5c8c63c6925d" points="36.41 11.73 36.41 15.65 31.85 15.65 18.17 3.91 18.17 0 22.73 0 36.41 11.73"/><polygon class="a87871df-3a67-45b8-9fec-aedc852df520" points="33.38 9.14 28.83 13.05 27.29 11.73 31.85 7.82 33.38 9.14"/><polygon class="a5f924ef-b0ab-4b79-97a7-5a8d78f3876f" points="36.41 0 36.41 3.91 22.73 15.65 18.17 15.65 18.17 11.73 31.84 0 36.41 0"/><polygon class="b3b41234-449d-4dad-853f-e6689f76d806" points="3.11 13.03 0 13.03 0 15.65 12.5 15.65 12.5 13.03 7.7 13.03 3.11 13.03"/><polygon class="b3b41234-449d-4dad-853f-e6689f76d806" points="0 0 0 2.62 3.11 2.62 6.64 2.62 12.5 2.62 12.5 0 0 0"/><polygon class="b3b41234-449d-4dad-853f-e6689f76d806" points="3.11 6.54 0 6.54 0 9.13 3.11 9.13 7.7 9.13 12.5 9.13 12.5 6.54 6.64 6.54 3.11 6.54"/><polygon class="b3b41234-449d-4dad-853f-e6689f76d806" points="129.34 13.03 126.23 13.03 126.23 15.65 138.73 15.65 138.73 13.03 133.93 13.03 129.34 13.03"/><polygon class="b3b41234-449d-4dad-853f-e6689f76d806" points="126.23 0 126.23 2.62 129.34 2.62 132.87 2.62 138.73 2.62 138.73 0 126.23 0"/><polygon class="b3b41234-449d-4dad-853f-e6689f76d806" points="129.34 6.54 126.23 6.54 126.23 9.13 129.34 9.13 133.93 9.13 138.73 9.13 138.73 6.54 132.87 6.54 129.34 6.54"/><path class="b3b41234-449d-4dad-853f-e6689f76d806" d="M76.07,8.16a4.48,4.48,0,0,0,1.11-2.95,4.65,4.65,0,0,0-1.84-3.68A6.65,6.65,0,0,0,70.93,0H61.55V2.62h9.38a3.3,3.3,0,0,1,2.19.76,2.3,2.3,0,0,1,0,3.68,3.3,3.3,0,0,1-2.19.76l-6.27,0H61.55v7.85h3.11V10.44H70l3.62,5.21h3.6L73.31,10a5.92,5.92,0,0,0,2.76-1.87"/></g></g></svg>