<svg xmlns="http://www.w3.org/2000/svg" xmlns:xlink="http://www.w3.org/1999/xlink" viewBox="0 0 61.77 86.98"><defs><clipPath id="A" transform="translate(-8.84 -10.13)"><path d="M0 0h83.37v106H0z" fill="none"/></clipPath><path id="B" d="M30.85 52.87h1.6l.72-.1.7-.1.72-.14.7-.17.7-.18.7-.2.7-.23.68-.24.67-.27.66-.28.65-.3.63-.3.6-.34.6-.35.58-.36.55-.38.54-.4.5-.4.5-.4.46-.42.43-.42.4-.44.37-.45.33-.45.3-.46.27-.46.23-.46.2-.47.15-.47.1-.47.07-.48V11.96H13.77v30.2l.07.48.1.47.16.47.2.47.23.46.27.46.3.46.34.45.36.45.4.44.43.42.46.42.48.4.52.4.53.4.55.38.58.36.6.35.6.34.64.32.64.3.66.28.67.27.7.25.7.22.7.2.7.2.7.16.72.14.72.12.72.1h1.6zm0 1.63l-.7-.33-1-.3-.73-.1-.73-.12-1.54-.3-.74-.2-.72-.2-.73-.23-.72-.26-.7-.28-.7-.3-.68-.32-.68-.34-.6-.36-.65-.37-.62-.4-.6-.4-.58-.42-.55-.42-.53-.44-.5-.46-.47-.47-.44-.5-.4-.5-.37-.52-.33-.5-.3-.53-.25-.53-.23-.56-.16-.54-.13-.55-.08-.56V10.87h36.4v31.37l-.07.56-.13.55-.17.54-.2.54-.26.53-.3.53-.33.5-.37.5-.4.5-.44.5-.47.47-.5.46-.53.44-.55.44-.58.42-.6.4-.62.4-.64.37-.66.35-.67.34-.7.32-.7.3-.7.28-.72.26-.72.23-.73.2-.73.2-.74.17-.73.15-.73.1-.73.1-1 .26z"/></defs><g clip-path="url(#A)"><g fill-rule="evenodd"><path d="M31.86 66.32l.34.36.26.18.56.32.3.14.32.12.33.12.34.1.35.1.72.16.38.06h8.05l.37-.05.4-.06.4-.07.4-.08.4-.08.42-.1.4-.1.42-.1.42-.12.42-.1 1.26-.4.4-.14.42-.14.4-.15 1.2-.45.4-.16.38-.16.37-.15.37-.17.36-.15.35-.16.66-.32.62-.32.3-.14.27-.16.27-.14.24-.15-.1-.1-.1-.1-.1-.1-.1-.1-.07-.1-.07-.27-.06-.1v-1.6l.06-.1.06-.1.07-.1.08-.1.08-.1.1-.1.1-.08.1-.08.1-.08.22-.14h.2l.1-.08.1-.1.2-.16.2-.17.22-.14h2.04l.07.05h.12l.06.05h.06l.1.1.17.13.1.12.1.1.1.1.1.1h.25l.1.07.1.1.1.1.06.3.07.1v1.75l-.06.13-.07.13-.07.12-.07.1-.1.1-.1.1-.1.1-.1.08-.12.07-.12.06h-.46v.67l.42 1.62.2.82.2.8.2.8.28 1.18.08.4.16.74.06.37.07.35.12.68v3.07l-.1.3-.1.28-.13.26-.14.24-.15.22-.15.2-.17.2-.18.2-.18.16-.18.3-.2.14-.2.14-.2.12-.23.12-.22.1-.23.1-.23.1-.24.1-.24.08-.24.07-.25.07-.24.07-.26.1-.24.06-.5.13-.5.13-.5.14-.23.07-.25.1-.53.18-.53.17-.52.16-.52.15-.5.14-.52.14-.26.06-.26.07-.26.06-.27.06-1.08.22-.57.1-.58.1-.6.1-.63.1-.65.08-.68.08H15.82l-.66-.12-.65-.08-.63-.1-.6-.1-.6-.1-.56-.1-.55-.1-.54-.1-.26-.06-.27-.06-.26-.07-.26-.06-.5-.14-.52-.14-.52-.15-.5-.16-.54-.17-.53-.18-.24-.1-.24-.07-.25-.07-.24-.07-.5-.13-.53-.15H4.6l-.25-.07-.2-.1-.25-.07-.24-.07-.5-.17-.23-.1-.23-.1-.22-.1-.23-.12-.2-.12-.22-.14-.2-.14-.2-.16-.18-.16-.36-.38-.16-.2-.15-.22-.14-.24-.12-.26-.12-.28-.05-.3v-3l.05-.34.06-.34.07-.35.14-.74.08-.37.08-.4.28-1.18.24-.78.2-.8.2-.82.2-.8.22-.8v-.75h-.65l-.13-.06-.06-.24-.12-.08-.1-.1-.1-.1-.1-.1-.07-.1-.08-.12-.1-.1-.05-.13v-1.5l.05-.12.06-.12.05-.12.08-.1.1-.1.1-.1.1-.07h.25l.1-.1.1-.1.1-.1.1-.12.1-.1.1-.1h.06v-.05h.13l.07-.05h2.02l.12.07.1.07.2.17.2.16.1.1.1.08h.23l.12.07.1.07.1.08.1.08.1.08.1.1.08.1.08.1.07.1.06.1.06.1v.1l.05.1v1.28l-.06.1.01-.1-.07.1-.08.1-.18.22-.1.1-.1.1.25.15.25.14.3.16.28.14.3.16.64.32.34.16.35.16.35.15.37.17.38.15.37.16.4.16.8.3.82.3.82.28 1.26.4.42.1.42.12.42.1.42.1.4.1.82.16.4.07.4.06.36.05H26l.37-.06.38.1.36-.08.35-.1.34-.1.33-.12.3-.12.3-.14.3-.16.28-.16.25-.18.36-.38a1.74 1.74 0 0 1 1-.3 1.76 1.76 0 0 1 1 .32" fill="#000f20"/><path d="M22.57 81.5h-.86l-.42-.01h-.43l-.4-.01-1.25-.03-.4-.02-.4-.03-.42-.02-.4-.03-.42-.04-.43-.03-.42-.05-.43-.05-.68-.08-.65-.1-.63-.1-.6-.1-.58-.1-.57-.1-.54-.1-.54-.1-.78-.18-.52-.14-.25-.06L9 79.9l-.5-.16-.52-.16-.52-.17-.54-.18-.2-.06-.4-.14-.2-.05-.4-.12-.4-.1-.4-.1-.4-.1-.2-.06-.2-.05-.2-.06-.2-.05-.2-.07-.2-.06-.18-.07-.2-.07-.17-.08-.18-.08-.34-.18-.32-.2-.16-.1-.15-.12-.28-.26-.13-.14-.13-.15-.06-.1-.05-.1-.05-.1-.04-.1-.04-.08-.03-.1v-.1L.77 76l-.02-.24.1.2.08.13.08.12.1.13.1.12.1.12.1.1.1.1.1.12.13.1.28.22.14.1.14.1.45.27.13.07.14.07.13.07.14.06-.18-.1-.17-.1-.17-.12-.16-.12-.18-.12-.15-.12-.16-.14-.16-.13-.1-.1-.08-.07-.17-.17-.07-.08-.08-.1-.14-.16-.06-.1-.06-.1-.07-.1-.05-.1-.06-.1-.06-.1-.04-.1-.05-.1-.07-.2.1-.16.24.5.07.1.08.1.07.1.08.1.12.16.07.08.2.2.24.22.1.1.13.1.12.1.13.1.13.1.26.16.28.16.13.07.42.2-.36-.24-.12-.07-.14-.1-.13-.1-.28-.2-.13-.1-.14-.12-.13-.1-.26-.24-.12-.12-.1-.13-.12-.13-.1-.14-.1-.13-.1-.14-.1-.15-.28-.58.15-.14.13-.07.38.66.14.2.1.1.08.1.12.13.1.13.26.24.14.12.13.1.14.1.13.1.17.1.17.1.18.1.17.1.18.1.18.1.18.08.18.1-.2-.12-.18-.1-.2-.13-.18-.12-.2-.12-.17-.14-.18-.13-.18-.15-.15-.14-.15-.13-.15-.15-.28-.3-.13-.15-.07-.08-.12-.16-.05-.08-.05-.1-.06-.07-.04-.08-.05-.1-.05-.08-.04-.08-.05-.08-.04-.1v-.02h.02l.43-.14.3.5.1.15.1.14.12.15.12.14.12.13.26.26.14.12.32.26.32.24.34.24.34.2.16.08.3.16.16.08-.1-.06-.1-.07-.1-.06-.1-.07-.3-.2-.1-.07-.2-.14-.1-.07-.1-.07-.1-.07-.1-.08-.1-.07-.1-.08-.17-.15-.16-.15-.16-.16-.15-.16-.15-.17-.14-.16-.06-.1-.07-.1-.06-.08-.06-.1-.27-.48.5-.1.3.44.14.18.08.1.08.08.08.1.08.08.08.1.1.08.14.14.15.14.3.26.1.08.1.08.1.08.1.07.1.08.1.07.22.14-.1-.08-.1-.07-.1-.08-.1-.08-.1-.1-.18-.16-.1-.1-.14-.13-.27-.27-.12-.14-.13-.13-.12-.14-.12-.15-.1-.14-.4-.55.58-.14.37.5.1.1.1.1.4.4.1.1.1.08.5.4.1.07.1.07-.36-.32-.34-.34-.17-.18-.16-.17-.16-.18-.15-.18-.35-.52.17-.03.23-.06.22-.07.1-.03.1-.04.22-.08.1-.04.1-.05.1-.04.27-.15.16-.12.04-.07-.02-.42-.12-1.68-.04-.43-.03-.4-.04-.42-.03-.43-.04-.42-.04-.4-.12-1.26-.03-.4-.04-.4-.1-1.15 1.1 1.1.18.16.2.17.18.16.2.16.2.17.2.16.2.15.2.16-.12-.1-.23-.23-.12-.1-.12-.12-.1-.12-.12-.1-.12-.12-1.68-1.74-.05-.43.94.87.2.17.2.16.2.17.4.32.2.16.2.16.4.3.2.16.2.15.2.14.2.15.2.15.2.15.2.13-.2-.15-.2-.16-.2-.16-.2-.17-.2-.16-.2-.16-.2-.17-.2-.16-.2-.16-.18-.15-.2-.16-.18-.17-.2-.15L6.2 66l-.18-.17-.2-.17-1-.95.12-.06.36.3.16.14.68.52.17.12.16.13.17.12.2.15.2.15.42.28.2.15.2.14.2.13.42.28.22.14.2.13.22.12.22.14.2.12.23.13.2.12-.63-.42-.2-.15-.2-.14-.2-.14-.42-.3-.2-.13-.2-.15-.2-.14-.2-.15-.2-.14-.2-.14-.2-.15-.2-.15-1.58-1.27.18.08.48.32.5.3.5.3.5.3.5.3.5.27.52.27.52.26.53.25.52.24.53.23.54.23.53.2.54.2.54.2 1.08.36 1.08.32 1.08.28.54.12.53.1.54.1.53.1 1.04.16 1.04.1.5.04.5.02.5.01h1.16l.22-.01.23-.01 1.1-.1.42-.06.2-.04.2-.03.2-.04.2-.04.2-.05.2-.04.2-.05.2-.06.2-.05.18-.06.38-.12.18-.07.18-.06.18-.08.18-.07.5-.24.16-.08.16-.1.33-.2-.27.22-.07.06-.08.06-.1.05-.08.05-.1.05-.08.05-.18.08-.15.1-.15.07-.15.06-.16.07-.2.08-.38.14-.2.07-.2.06-.4.12-.2.05-.17.05-.17.04-.2.04-.17.04-.18.04-.18.05-.17.04-.18.03-.26.05-.25.04-.26.05-.26.04-.25.04-.26.04-.26.05-.27.04.27-.02.25-.03.26-.02.25-.03.26-.03.25-.03.26-.03.25-.04.54-.1.17-.03.18-.03.5-.12.3-.07.3-.08.28-.08.28-.1.28-.1.54-.22.27-.12.2-.1.2-.1.18-.1.18-.12.08-.06.1-.07.1-.06.08-.07.1-.07.08-.07.24-.24.08-.1.16-.2.13-.2.1-.1-.03.08-.06.13-.05.14-.06.14-.06.13-.08.13-.07.13-.08.13-.16.24-.18.24-.1.1-.13.15-.28.28-.15.14-.15.13-.16.12-.15.12-.16.12-.2.13-.2.14-.2.12-.2.12-.2.12-.2.1-.22.12-.2.1.6-.24.2-.1.2-.1.57-.3.2-.12.18-.12.17-.12.18-.14.17-.14.16-.14.1-.08.16-.16.07-.1.1-.1.1-.12.06-.06.05-.07.04-.06.05-.06.24-.4.07-.13.07-.14.06-.13.06-.14.05-.14.03-.08.03-.07.02-.08.03-.08.04-.16.26.7.13.36.15.36.07.17.1.18.07.18.08.17.1.17.08.18.27.5.1.17.1.17.1.17-.1-.23-.2-.48-.1-.24-.1-.24-.1-.23-.18-.48-.15-.36-.04-.13-.05-.1-.05-.12-.04-.13-.05-.12-.17-.52.3.34.12.13.1.1.22.24.22.23.23.23.23.22.22.22.23.22.24.2.24.2.23.2.24.2.24.2.25.2.24.18.26.18.25.18.25.17.26.16-.17-.12-.32-.26-.16-.12-.2-.16-.18-.16-.38-.32-.2-.17-.18-.16-.2-.17-.18-.17-.16-.14-.48-.45-.15-.15-.16-.15-.3-.32-.08-.08.35.28.15.1.16.1.15.1.16.12.16.1.16.1.17.1.16.1.17.1.16.08.17.08.18.1.34.14.36.14.36.12.18.05.2.05.18.05.2.04.2.05.2.03.2.04.2.03.6.06.2.01-.25-.04-.25-.03-.48-.1-.24-.06-.23-.06-.24-.06-.23-.08-.22-.07-.23-.08-.23-.1-.44-.18-.2-.1-.22-.1-.2-.12-.73-.43.42.17.28.1.3.1.3.1.3.08.3.08.3.07.64.12.64.1.33.03.34.04.34.02.34.03.35.01h1.05l.5-.01.5-.02.5-.04.5-.05.52-.05.53-.08.52-.08.53-.1.54-.1.53-.1.54-.12 1.08-.28 1.08-.32 1.08-.36.54-.2.53-.2.54-.2 1.06-.46.53-.24.53-.25.52-.26 1.02-.54.5-.3 1-.6.48-.3.5-.32.3-.2-.34.3-.26.2-.78.6-.27.2-.52.38-.27.2-.26.2-.28.18-.26.2-.27.2-.27.18-.26.2-.27.2-.27.18.15-.08.3-.18.14-.08.15-.1.15-.08.14-.1.15-.08.23-.16.23-.14.22-.15.23-.14.22-.16.23-.14.22-.16.23-.15.2-.14.2-.15.2-.14.2-.14.38-.3.2-.14.2-.16.27-.24.16.05-.03.22-1.5 1.36-.5.42-.25.22-.25.2-.5.42-.25.2-.25.2.27-.2.28-.2.27-.2.28-.2.27-.2.8-.63 1.3-1.12-.08.9-.48.5-.16.14-.15.15-.16.14-.3.3-.32.28-.15.14-.76.68-.2.16-.18.16-.2.16-.2.17-.57.48-.2.16-.38.32-.4.3.12-.07.24-.16.1-.07.12-.1.1-.08.12-.08.1-.08.26-.2.25-.2.26-.2.25-.2.26-.2.25-.2.25-.2.25-.2 1.8-1.7-.06.76-.5.6-.13.14-.13.13-.12.13-.13.13-.26.28-.13.13-.13.14-.3.3-.15.14-.28.28-.3.28-.14.14.3-.24.28-.24.3-.24.3-.25.27-.25.28-.27.28-.26.27-.28.42-.45-.1 1.1-1.1 1.24-.17.18-.52.52-.35.34-.72.66-.36.3-.37.32-.36.3.14-.1.15-.1.6-.44.14-.12.15-.1.14-.1.84-.72.28-.26.14-.12.13-.14.26-.26.13-.12.13-.14.13-.13.55-.62-.01.05-.08.95-.52.57-.18.2-.36.36-.2.18-.18.18-.2.18-.36.34.2-.15.2-.16.2-.16.2-.17.2-.17.2-.17.18-.17.2-.18.4-.4-.05.7-1.24 1.22 1.22-1.06-.01.18-.03.28-.08 1.12v.28l-.04.56.05.07.07.06.08.06.18.1.1.04.1.04.2.06.37.1-.63.7-.1.1-.1.1-.2.18-.1.1-.3.27-.24.2-.5.4-.24.18-.26.2-.26.18-.25.17-.26.17-.36.22-.34.23-.36.22-.35.22-.36.2-.36.2-.37.2-.36.2.13-.06.13-.07.12-.06.13-.06.12-.06.13-.06.12-.06.12-.07.26-.13.26-.14.25-.14.26-.14.26-.15.25-.14.25-.16.24-.15.5-.32.48-.34.24-.18.24-.17.24-.18.23-.2.4-.34.2-.2.2-.18.2-.2.54-.6.02-.06.3.07.34.05-.12.22-.07.12-.1.12-.16.22-.17.23-.36.44-.2.22-.2.2-.2.22.36-.32.18-.18.1-.08.08-.1.17-.17.08-.1.1-.1.07-.1.1-.1.07-.1.08-.1.38-.58.4.04.16.03-.16.33-.18.28-.2.28-.1.14-.22.26-.1.14-.1.13-.36.4-.52.5.1-.08.1-.07.1-.08.2-.16.1-.07.1-.08.1-.1.22-.2.1-.1.1-.1.1-.1.1-.1.1-.1.18-.22.08-.1.16-.24.08-.1.16-.24.07-.12.47.1-.2.4-.07.13-.08.12-.07.13-.1.1-.08.12-.1.12-.1.1-.1.12-.1.1-.1.1-.2.22-.22.2-.2.2-.26.22-.14.1-.13.1-.13.1-.14.1-.13.1-.13.1.13-.1.13-.08.14-.08.26-.18.14-.1.26-.18.24-.2.12-.1.12-.1.1-.1.12-.1.1-.1.1-.12.1-.1.1-.12.1-.12.18-.24.1-.13.08-.12.08-.13.22-.5.43.13h.02l-.27.56-.06.1-.14.22-.08.1-.07.1-.16.2-.1.1-.1.1-.1.12-.22.22-.1.1-.12.1-.1.1-.12.1-.23.2-.48.36-.24.17.2-.1.2-.1.2-.1.2-.12.2-.13.36-.28.17-.14.17-.15.14-.15.15-.15.28-.32.12-.16.07-.1.05-.08.06-.1.05-.08.3-.63.07.04.12.08.12.12-.24.55-.1.17-.1.16-.1.16-.12.15-.13.16-.12.15-.3.3-.06.07-.06.06-.07.06-.06.06-.14.12-.14.13-.1.07-.18.14-.08.07-.1.08-.1.06-.1.07-.1.07.13-.07.13-.08.12-.07.13-.08.12-.07.12-.08.24-.18.1-.08.1-.1.1-.1.1-.1.1-.1.2-.2.1-.1.1-.1.1-.1.08-.1.1-.1.08-.1.14-.24.06-.1.17-.4.1.24-.1.27-.05.08-.04.08-.04.1-.06.08-.15.24-.06.08-.24.3-.13.15-.28.28-.3.26-.15.14-.16.12-.15.12-.16.12-.15.1.12-.07.12-.06.1-.07.12-.07.12-.08.1-.07.24-.16.15-.12.15-.13.14-.13.15-.14.07-.08.07-.07.06-.08.06-.07.07-.08.06-.08.05-.08.06-.08.18-.3-.03.16-.14.3-.12.2-.13.18-.28.32-.15.14-.16.14-.16.13-.16.12-.18.1-.17.1-.2.1-.38.18-.2.08-.2.07-.2.08-.2.06-.2.07-.2.06-.22.06-.86.22-.44.1-.66.18-.2.07-.44.14-.54.18-.52.17-.52.16-.5.16-.5.14-.52.13-.25.07-.52.12-.27.06-.53.1-.55.1-.56.1-.6.1-.6.1-.62.1-.66.1-.68.08-.37.05-.4.03-.37.04-.74.06-.38.02-.36.02-.74.04-1.85.05h-.76l-.76.01h-.78l-.8-.01h-3.47l-.95.01h-5.04l-.42-.01H24.3l-.36.01h-1.38z" fill="#eae4ca"/><path d="M58 64.52h-.85v-.2h1zm-54.18 0H2.38v-.45h2.4l.2-.06h-.63l.4-.08h-.92zm18.8 5.44h-2.06l-.53-.1-1.06-.14-.55-.1-.54-.1-.55-.1-.55-.12-.55-.13-.55-.14-.56-.18-.55-.16-.56-.18-.55-.18-.56-.2-.55-.2-.56-.22-.55-.23-.54-.23-.52-.27-.54-.25-.53-.27-.54-.28-.53-.28-1.04-.6-.5-.32-.5-.32-.5-.33-.28-.2v-.43l.3-.14.13.06.25.15.26.15.28.16.9.47.33.16.34.15.36.17.35.16.37.16.76.32.34.18.4.16.4.15.82.3.84.28.42.13.42.14.42.12.43.12.84.22.42.1.42.1.4.1.4.07.35.03.4.07h.37l.37.05h7.37l.4-.06.38-.06.4-.07.37-.1.7-.2.34-.12.33-.14.3-.15.3-.15.3-.18.26-.18.42-.45.24.1.08.06h.07l.07.06.06.07.07.07.05.08.06.08.05.1v-.1l.12-.16.07-.07.06-.07.07-.06h.07l.08-.06.2-.1.42.44.27.18.28.18.3.15.3.15.33.14.34.12.35.1.36.1.37.1.38.07.38.06.4.06h7.36l.37-.05h.37l.4-.07.82-.14.42-.1.4-.1.42-.1.84-.22.43-.12.42-.12.42-.14.43-.13.4-.14.42-.14L51.2 66l.45-.12.4-.15.4-.16.38-.16.37-.16.36-.16.35-.17.34-.15.33-.16.62-.32.3-.15.28-.16.27-.15.24-.15.14-.06.33.14-.1.3v.12l-.28.2-.83.54-.84.52-.86.5-.87.47-.9.44-.9.42-.9.38-.9.36-.92.33-.92.3-.92.27-.9.25-.9.2-.9.18-.9.16-.88.12-.88.1-.86.06h-2.48l-.78-.1-.76-.1-.73-.14-.7-.18-.67-.22-.65-.24-.6-.3-.57-.32-.53-.36-.5-.4-.44-.43h-.1l-.16.16-.17.16-.18.16-.18.15-.38.28-.2.14-.2.13-.42.24-.22.12-.23.1-.46.2-.48.18-.25.1-.25.08-.52.14-.27.07h-.27l-.27.06H22.6z" fill="#fff"/><path d="M58.16 63.63h-1.28l-.34-.2h-.07l-.06-.07-.06-.06-.05-.07v-.08l.2.3v-.13l-.57-.44h-.06V61l.05-.07.06-.08.07-.07.06-.07.08-.08.24-.18.1-.06.1-.05h.28l.12-.1.1-.08.2-.17.18-.16.1-.06.1-.07h1.72l.2.16.18.3v.56h.12l-.1-.22v-.14l.07.06.07.07h.12l.06.05v1.92l.1-.2v-1.73l.56.34v-.07l.14.28v1.7l-.05.12v.1l-.12.2.05-.07V61.3l-.05-.07-.07-.06-.08-.06v1.8h-.14l.07-.1.05-.1v-1.08l.05.12v.05l-.45.07v1.22l-.06.08-.07.08h-.75l.08-.3v-.2.6h-1.2zm-55-.84v-.1.77l.07.25h-1l-.5-.18-.07-.06-.06-.06-.06-.07-.37-.2v-.07L1.12 63v-.56l.08.6-.05-.06V61l.05-.07-.32-.1v-.06H1l.07-.06h.08l.08-.06h.07l.07-.07h.06l.06-.07.05-.05.05-.06.2-.22.18-.2H3.9l.1.06.1.08.18.33v.5h.1l-.13-.26v-.14h.3l.1.05h.08l.1.06.08.06.07.07.07.06.07.07.18.2v1.7l-.05.08v.08l.07-.18v-1.6l.4-.32h-.06l-.05-.07.14.28v1.7l-.06.12v.1l-.06.1-.18.2.1-.15v-1.8l-.05-.08v-.07l-.06-.08-.07-.07-.18-.03v-.01l.05.07v.05l.05.1v1.65l-.4.34.12-.13v-.4l.17.16v-.07.28l-.06.08-.07.07h-1.6v-.44l-.27.08zm1.18 9.7v-.2l.27-.1H5l.15-.33v.17l-.16.14h-.43zm53.12 0h-.66l-.12-.1v-.16h.3l.3.1zm-55.24.38v-.2h1.9v.2l-.27.06H2.38zm57.37 0h-1.9v-.2h1.88zm-59.3.45v-.92l.05-.3.12-.64.12-.68.08-.34.07-.35.08-.36.08-.37L1 69l.08-.37.1-.37.2-.38.8-3.2h.1l-.55 2.3-.06.3-.07.3-.02.3-.06.3-.05.3-.06.32-.05.3v.32l.08-.3.07-.3.08-.28.16-.6.07-.3.08-.3.07-.3.6-2.43h.1l-.38 1.7v.22l-.13.3V68l.06-.23.18-.66.06-.23.12-.44v-.22l.3-1.23h.28v.3-.53h.1v.07h.2V65l.3 3.45v1.94l.1 1.35 1.1.12h-.1l-.1.06h-.23L4.3 72l-.14-1.2v1.37H2.6l-.2.05h-.12v-.72l.05-.3v-1.24l.05-.3v-.06l-.05.27v.8l-.05.27v1.32H1.7l-.18.05-.37.56H.58l-.07.05zm61.2 0l-.24-.22h-.65l-.17-.06-.18-.06h-.53v-.5l-.05-.3v-.6l-.06-.3V71l-.06-.3v-.6l-.4-.23v2.65H59l.16-.05h-1.5V71.3l-.08.83h-.65l-.13-.1.13-1.4V68.7l.28-3.3v-.46h.5v4.13l.05.2v-4.5h.2v.1l.8 3.46.06.25v.27l.06.26v.53l.06.27v.26l.06.27v.53l.06.26.06.27v.26l.06.27v.27l.06.26V69.8l-.06-.27v-.8l-.05-.27v-.26l-.06-.26v-.26l-.06-.26v-.26l-.12-.52-.06-.25.32-1.6h.1l.75 3 .08.33.07.3.07.33.08.32.07.33.08.32.06.33.08.32.07.33.07.32.14.66.14.64.07.34.07.32v-1.6l-.05-.26v-.27l-.07-.36-.06-.37-.07-.36-.07-.37-.07-.35-.08-.36-.07-.37-.08-.35-.06-.27-.32-.23v-.27l-.07-.25v-.27l-.06-.26-.07-.26-.15-.27-.3-1.16h.08l.92 3.54.18.74.08.37.1.37.07.36.08.35.14.68.06.34.12.64v1.16zm-61.23.4v-.18l.18-.2.07-.06h.1l.08-.07h.08l.1-.05h.87l.3-.06v.2l-.44.1H.84l-.2.12zm61.27 0l-.12-.13-.14-.12h-.94l-.17-.44h-.36v-.2l.26.05.1-.01h.74l.1.05h.08l.08.07h.08l.07.06.18.2v.18z" fill="#a84c44"/><path d="M4.98 73.56v-.46l-.06-.3-.06-.26h.23l.1-.06.05 1.06-.1.07zm51.85 0l-.16-.1-.1-.07.06-1h.23l-.1.54zm-52.45.2v-1.1l.3-.1h.06v1.06l-.34.12zm53 0h-.02l-.34-.12V72.6l.33.1v.34zm-53.67.1v-.8l-.15-.2h.6v1h-.12zm54.4 0h-.48V72.8h.58l-.06.24v.6zM3 73.96v-1.02l.42-.07h.24v1.08zm55.82 0l-.5-.06v-1.06h.2l.46.07v.73zm.88.15l-.22-.05h-.42v-1.03l.32.06.3.06v.2zm-57.53.05l.06-.8v-.25h.25l.36-.06v1.03zm58.16.15l-.16-.06h-.2l-.06-.86v-.22h.22l.22.07v1zm-58.74 0v-1l.18-.07h.27v1.04h-.2zm59.9 1v-.34l-.32-.16-.1-.1v-.2h-.14v-1l-.08-.24h.76l.07.06.06.05h.07l.05.06v1.44zm-61 .08l-.05-.14v-1.3l-.03-.07v-.06l.05-.06H.5l.07-.06h.06l.08-.05h.74l-.1.22v.9h-.24v-1l-.05.1v1.08l-.1.1-.1.14V75v.67zm0 .1v-.06z" fill="#d7c07a"/><path d="M30.9 65.86l-.02-.03-.04-.07-.04-.1-.04-.1-.05-.1-.05-.13-.04-.14-.06-.16-.05-.17-.06-.2-.07-.2-.06-.22-.05-.22-.06-.22-.06-.2-.06-.2-.05-.2-.03-.1.4.05h.13.12.5.24l.37-.05-.02.12-.06.2-.12.42-.05.22-.12.44-.06.2-.07.2-.05.17-.05.15-.04.13-.05.13-.05.1-.04.1-.04.1-.06.12z" fill="#b89b59"/><path d="M29.32 52.7l-.72-.1-.72-.12-.7-.14-.7-.16-.7-.2-.7-.2-.68-.23-.67-.25-.66-.26-.65-.28-.64-.3-.6-.3-.6-.32-.58-.35-.56-.36-.55-.36-.5-.38-.5-.4-.47-.4-.45-.4-.4-.42-.4-.42-.36-.43-.32-.44-.3-.43-.26-.45-.22-.44-.2-.45-.14-.45-.12-.45-.06-.45-.02-.44v-29.4h33.5l-.02 29.83-.07.45-.1.45-.14.45-.2.45-.22.44-.26.45-.3.43-.33.44-.36.43-.4.42-.4.42-.45.4-.47.4-.5.38-.5.38-.55.37-.56.36-.6.34-.6.33-.63.3-.63.3-.65.28-.66.26-.67.25-.7.22-.7.2-.7.18-.7.17-.7.13-.7.12-.72.1-.2.02-.2.01-.2.02-.2.01-.4.02h-.2l-.2.01h-.2l-.2-.01h-.2l-.2-.01-.2-.01-.2-.01-.38-.04z" fill="#a84c44"/><path d="M43.4 49.4L13.13 19.13V11.5h3.97L48.58 43l-2.15 4.07-3.03 2.35z" fill="#fff"/><path d="M10.04 15.87L45.9 51.7l5.6-5.6-35.86-35.85zM45.9 52.1L9.66 15.87l6-6L51.9 46.1z" fill="#000f20"/><path d="M30.9 58.02l-.04-.14-.07-.25-.08-.25-.08-.24-.08-.23-.1-.23-.08-.2-.1-.22-.3-.6-.2-.38-.1-.18-.3-.5-.06-.08h.08l.12.04.06.01.06.02.27.3.08.12.04.08.04.07.03.1.12.3.07.2.08.2.08.22.16.4.27.63.27-.63.16-.4.07-.22.24-.6.03-.1.04-.1.04-.07.04-.08.08-.12.34-.3.06-.02.06-.01.12-.04-.05.08-.3.5-.1.18-.2.38-.3.6-.1.22-.08.2-.1.23-.08.23-.08.24-.16.5-.03.14zm-.06-47.26l-.07-.01-.07-.02-.06-.02-.12-.06-.12-.08-.04-.06-.05-.05-.04-.06-.03-.06-.02-.07-.02-.06v-.07-.06V10v-.07-.07l.02-.06.03-.06.02-.06.05-.06.04-.06.06-.04.05-.05.06-.04.06-.03h.07l.06-.02.07-.01.06-.01.07.01H31l.07.01.06.03.06.02.06.04.06.03.1.1.05.06.04.06.03.06.02.06.04.14v.13l-.01.07-.02.07-.04.12-.04.06-.03.06-.05.06-.05.04-.06.05-.06.04-.06.03-.06.02-.07.02-.06.01-.07.01h-.07z" fill="#fff"/><path d="M35.94 3.14v-.9l.06-.15.06-.16.06-.14.07-.15.08-.14.07-.13.08-.13.18-.24.08-.1.1-.1.1-.1.2-.2.1-.08.1-.07.1-.06.1-.07.1-.05h1.34l.06.05h.05v.92h-.17L39 .77V.2h-1.05l-.1.07-.1.08-.2.18-.1.1-.1.1-.1.1-.1.12-.08.12-.1.1-.08.13-.16.24-.07.12zm-10.08.27l-.45-1.17-.14-.26-.1-.1v-.14l-.18-.24-.1-.12-.1-.12-.12-.13-.12-.1-.06-.06-.1-.08h-.07l-.06-.05h-.07L24.16.7h-1.2l-.06.05v.4l.12.3h-.14V.38l.05-.05H23l.06-.05h1.33l.1.05.1.07.1.06.1.07.1.08.1.1.18.2.1.1.1.1.08.12.1.12.16.26.07.14.07.15.06.14.07.16v.15l.05.16v.5zm-.06 1.3l-.4-1.42v-.1l-.05-.1v-.18l-.18-.07v-.2l-.05-.08-.06-.1-.05-.08-.06-.1-.12-.16-.07-.1-.12-.16-.3-.3-.1-.1h-1v.28h-.2v-.6h.56l.1.05.1.07.1.06.1.08.1.07.1.1.1.08.18.2.1.12.1.1.08.12.08.1.08.12.14.24.08.13.06.13.07.13.06.14.06.13v.14l.06.13v1.6zm10.17 0V2.84l.18-.4.05-.1.06-.1.05-.1.12-.2.06-.1.07-.1.06-.1.14-.18.08-.1.14-.16.14-.14.16-.14.38-.08.08-.06.08-.05h.88v.67h-.2v-.25h-.8l-.1.05h-.1l-.1.07-.08.06-.08.07-.32.32-.07.08-.06.1-.08.1-.05.08-.07.1v.1l-.06.1-.18.3-.06.1v.1l-.06.1-.05.1v.54l-.07.25v.18zm8 4.46h-1.75l-.15-.3-.14-.05-.14-.06-.14-.05-.13-.07-.14-.06-.13-.07-.1-.12-.13-.07-.12-.08-.12-.1-.13-.1-.12-.1-.12-.1-.1-.1-.15-.1-.1-.1-.1-.1-.1-.12-.1-.12-.08-.1-.06-.1-.06-.1v-.1l-.05-.1V5.6l-.13.2v1.62l.05.07v.05l.1.13.1.1.13.1.12.1.26.2.13.08.14.1.14.07.13.06-.1-.07-.1-.08-.1-.1-.1-.08-.12-.1-.1-.1-.1-.1-.1-.1-.1-.1-.1-.1-.08-.1-.1-.1-.07-.1.42-.38-.07-.12-.05-.12v-.07l.05.1v.17l.12.16.07.08.06.08.07.07.16.14.07.06.16.12-.16-.18-.08-.1-.07-.1v-.3l-.08-.13L40 6.6v-.37l.05.13.12.24.07.1-.1.16.1.12.18.22.1.1.1.1.24.2.12.08.12.1.14.1.13.08.14.07.3.14.15.06.48.15h2.7v.24h-1zm-26.2 0h-.76l-.14-.05-.13-.05-.13-.2v-.24h3.22l.12-.05.22-.1.1-.06.1-.05.1-.06.1-.07.1-.06.1-.07.1-.07.08-.07.1-.07.16-.16.08-.07.17-.2-.33.54.08-.06.07-.06.08-.06.28-.28.06-.07.06-.08.1-.52.05-.08.05-.1.05-.08v-.06.32l-.06.1-.14.2-.07.1-.08.1-.08.1-.17.17-.08.1-.1.08-.18.16-.2.15-.2.13.14-.06.26-.16.1-.15.13-.1.13-.1.12-.1.1-.1.12-.1.1-.12V7.2l.15-.18v-.07l.13-.07V6.8l-.05.1-.06.1-.07.1-.08.1-.1.12-.1.12-.1.1-.1.1-.1.1-.24.2-.36.27-.13.08-.13.07-.13.08-.13.07-.14.06-.13.07-.14.05-.14.06-.28.1h-1.76zm5.76.7h.1l-.1-.05-.1-.06V9.7v.06l.05.06v.06l.05.06h.06l.06.05h.47zm14.62 0h.4V9.4l-.06.05-.05.05h-.06l-.18.1h-.05zm.74.24h.42v-.35l-.05.05-.1.08-.1.07h-.18V10h.16zm-16 0h.08v-.05L22.9 10l-.1-.14h-.15l-.1-.07-.08-.08V9.6l.05.05.05.06v.05l.06.05h.54zm17 .1l.15-.06.1-.1.08-.1.06-.1v-.47l-.08.1v.4l-.05.1-.06.1zm-18 0v-.15l-.06-.1-.15-.3v-.2l-.07-.1-.06.1v.36l.06.1.08.1.1.1zm29.85.1l1-.54.08-.07.08-.06.07-.07.06-.07.12-.12.06-.07.12-.16v-.08l.05-.08V8.8l.05-.08v-.48l.05-.16v-1h-.1v.22h-.15v-.87h.5l.06.06.07.06v.06l.07.07v.08l.06.08v1.57l-.12.22-.14.22-.16.2-.1.1-.08.1-.1.08-.1.1-.1.1-.2.16-.1.07-.1.08-.1.06-.12.06-.22.12h-.1l-.1.05h-.45zm-41.6.04H9.4l-.1-.05h-.12l-.22-.12-.12-.06-.1-.24-.1-.08-.1-.07-.2-.16-.1-.1-.07-.1-.1-.08-.18-.2-.16-.2-.14-.22-.12-.22-.05-.1V6.97l.05-.1V6.8l.06-.08.12-.14.07-.06.06-.06.14-.1h.4v.94h-.15v-.25H8.1V8.5l.05.1v.1l.1.2.06.1.06.1.07.1.08.1.08.1.27.27.1.07.2.16zm-.25 3.43h.5l.06-.05.05-.06v-.17l-.06.06-.06.05-.07.05H8.9v.1h.6zm42.08 0h.68l.06-.06v-.1h-1.56l-.06-.05v-.17l.05-.5v-.18.54l.05.06v.1l.06.06.08.05.07.05h.6zm-42 .58h.5l.1-.05.1-.06.1-.08.08-.1.07-.1v-.13h-.12l-.1.05H9.47l.07.1h.28zm42 0h.4l.07-.1H51.2l-.1-.05h-.13v.13l.07.1.08.1.1.08.1.06.1.05h.55zm-.3.48h.24l.1-.08-.12-.06h-.8l.1.1.1.06.12.05h.12zm-41.4.04h.24l.12-.05.1-.06.1-.1h-.8l-.12.06.1.08.12.08zM57.45 22l.06-.08.05-.1.06-.08.05-.1v-.8l.06-.2.05-.2v-4.3l.45-.27v-.07 3.7l-.05.33v.8l-.12.46-.07.2-.08.22-.08.2zm-53.1 0l-.06-.22-.12-.25v-.22l-.07-.2-.1-.22-.06-.23v-.47l-.15-.3v-.06V21l.06.14.05.13.12.26.07.14.07.12zm51.16 1.88v-.54h-.26v.05l.05.08v.24zm-49.2 0v-.42h-.25L6 23.5v.52zm50.18.32l.1-.1.1-.1.1-.1.1-.1.18-.2.1-.1.1-.1.08-.1.08-.1.08-.1.08-.2.07-.1.08-.1.06-.1.07-.1.1-.16.16-.32.06-.08.08-.16.07-.17.06-.17.07-.18v-.17l.05-.17v-6.4l-.2-.6-.12-.2v-.48l-.06-.1V13l-.34-.12v1.05l.05.16v5.68l-.07.45v1.13l-.06.14v.13l-.1.2-.1.2-.1.2-.1.2-.24.38-.13.2-.13.18-.08.1-.08.1-.08.1-.16.2-.08.1-.08.1zm-51.16 0l-.1-.14-.05-.18-.1-.14-.1-.13-.1-.14-.1-.13-.2-.28-.1-.16-.1-.17-.1-.16-.1-.16-.1-.17-.1-.16-.13-.2-.07-.17-.08-.17-.06-.18-.07-.18L3.5 21l-.05-.12V19l-.28-.13V15.4l.05-.2v-.4l.06-.2v-.76l.05-.12v-.8l-.08.13-.1.14-.07.15-.07.14-.07.15-.06.14-.06.16-.06.15-.08.23-.14.48-.06.25-.06.24-.1.5v4.03l.05.26v.26l.06.25.07.25v.6l.1.24v.1l.05.12v.1l.06.1.06.12.07.13.16.26.08.12 1.08.1.18.24.1.13.1.12.1.12.1.12.1.1.12.1.1.1.1.1zm49.75.26v-.58h-.1l.07.05h.14v.42zm-48.32 0v-.58h.07l.08-.05h.16l.07-.05h.01-.4l-.07.05h-.12v.53zm47.87.64v-.8h-.13v.75zm-47.45-.05v-.76h.3-.6V25zm48.4.35l.24-.17.22-.18.23-.2.22-.2.2-.2.2-.2.1-.1.1-.1.2-.22.1-.1.1-.1.18-.24.08-.1.1-.12.32-.48.14-.24.07-.13.07-.12.12-.26.07-.15.07-.17.06-.16.06-.17v-1.22l.34-.15v-4.7l-.05-.23-.06-.23-.06-.22-.08-.22-.07-.22-.08-.22-.18-.42-.1-.2-.1-.2-.22-.2v-.1l-.07-.1-.06-.1-.06-.1-.28-.36-.08-.1-.15-.08-.08-.07-.1-.08.24.32.06.1v.07l.07.1v.08l.28.48.12.24.06.13v.12l.16.38.07.2.07.2.06.2.06.2v.2l.06.2v4.98l-.07.4v.94l-.06.17-.06.16-.14.32-.08.16-.07.16.04.18-.08.15-.1.18-.12.2-.12.17-.13.18-.26.34-.14.17-.15.17-.16.2-.18.18-.17.2-.18.18-.2.2-.36.36zm-49.4 0l-.4-.4-.2-.2-.2-.22-.2-.2-.2-.2-.2-.22-.2-.2-.1-.12-.1-.12-.18-.24-.02-.13-.1-.12-.1-.12-.08-.12-.08-.13-.07-.13-.08-.13-.07-.13-.06-.13-.07-.14-.07-.1-.05-.14-.07-.17-.1-.22v-.17L3.1 21l-.07-.13v-5.3l.05-.25v-.26l.12-.48.08-.25.07-.23.08-.24.08-.23.1-.23.12-.28.07-.13.07-.14.14-.26.16-.26v-.08l.06-.1.06-.07.06-.1.05-.08.06-.1.06-.07.06-.08h-.05l-.14.14-.06.08-.06.07-.12.16-.1.16-.1.14-.08.14-.1.14-.07.14-.08.15-.07.14-.07.15-.06.15-.14.36-.06.18-.07.18-.05.2v.2l-.1.38v.2l-.05.2v4.7l.12.52v.76l.1.24-.03.33.06.14.28.52.08.12.16.26.08.12.1.13.1.12.1.1.1.13.1.12.1.1.1.12.2.22.1.1.1.1.22.22.12.1.1.1.1.1.36.3.24.18zm47.88.14v-.88h-.67v.05h-.12.4v.88zm-46.36 0v-.75h.25v.66zm43.28.27l.1-.07.1-.06.3-.3.06-.08.06-.07.12-.16.1-.15.12-.16.1-.15.07-.07.06-.08.22-.22.08-.07.08-.06.1-.06h.06l-.1.1-.07.1-.08.1-.06.1-.07.1-.06.1v.1l-.06.1v.1l-.1.22-.1.2-.1.22-.1.2.06-.1.07-.1.06-.1.07-.1.1-.2.1-.2.12-.18.12-.2.06-.1.07-.08.06-.1.08-.08.07-.08.08-.08.08-.07.1-.08.08-.05h.57v-.1h-1.5l-.13.02h-.08l-.08.06-.07.06-.16.14-.18.18-.08.1-.1.1.14-.1.14-.1.14-.1.14-.1.18-.04.14-.1.3-.14h.1l-.1.08-.12.08-.1.1-.16.16-.05.06v.12l-.1.13-.08.13-.1.13-.08.14-.08.13-.1.13-.1.16-.12.15-.06.08-.06.07-.07.07zm-40.2 0l-.06-.06-.05-.06-.06-.06-.05-.06-.1-.13-.1-.13-.1-.14-.1-.13v-.16l-.1-.14-.1-.14-.1-.15-.1-.14-.12-.14L9.5 24l-.1-.08-.13-.06-.1-.06h.27l.1.05.1.06.1.06.5.35.1.08-.08-.1-.1.05v-.08l-.1-.08-.08-.1-.1-.08-.1-.07-.14-.1h-.1l-.2-.12-.1-.05h-.1l-.1-.05H8.03v.06h.67l.06.05h.16l.1.1.1.1.1.1.08.12.08.1.08.12.14.24.15.25.07.1.14.24.08.1-.08-.2-.1-.2-.08-.2-.1-.2v-.2l-.05-.1-.05-.1-.05-.1-.06-.08-.06-.1-.07-.1-.18-.2.17.1h.05l.05.05h.05l.1.1.1.1.1.1.1.1.32.44.07.1.08.1.07.1.1.08.16.16.1.07zm39.63 5.44v-.15l.05-.15v-.14l.06-.15.14-.28.07-.13.08-.13V30l.07-.08.06-.1.07-.1.14-.17.14-.16.32-.32.15-.16.16-.16.16-.18.08-.08.24-.27.07-.1.07-.1-.06.15v.15l-.06.14v.06l.05-.1v-.23l.05-.08V28l.67-.12v-.27h-.37l-.2.12-.1.08-.1.07h-.34l-.1.08-.08.08-.1.08-.12.12-.12.1-.06.06v.05l-.06.07v.06h.06l.18-.12.18-.14.1-.06.1-.06.1-.07.1-.07.1-.06.1-.13.18-.12-.2.25-.22.28-.12.13-.12.14-.16.16-.16.18-.15.17-.16.17-.35.45-.06.1-.06.1-.06.1v1.07zm-39 0v-.65l-.22-.15v-.53l-.3-.04-.06-.1-.06-.08-.12-.17-.14-.16-.14-.17-.18-.2-.1-.12-.15-.16-.13-.14-.14-.15-.12-.14-.13-.15-.12-.26h.08l.1.06.1.06.1.07.1.06.1.07.1.06.08.06.1.08.12.08h.35v-.18h-.05l-.05-.07-.06-.05-.1-.1-.12-.1-.18-.16-.1-.1-.1-.08h-.3l-.1-.06h-.45v.37l.05.1.05.1.06.1.05.1.06.1.05.1.05.1-.2.22v.1-.73l.12.15.12.14.26.28.14.16.16.15.3.32.15.15.14.17.06.08.07.08.12.18.08.13.1.15.07.15.07.14.06.16.06.15.05.16zm43 3.07h-1.03l-.2-.44v-.12l-.06-.07v-.42l-.05-.1v-.6l-.25.43v-1.74h-.38l-.05.06v.07l-1.2-.5v.98l-.1.06h-.7l-.06-.05h-.06v-.06l-.05-.06v-1.2l.06-.1.07-.1.08-.1.1-.1.1-.1.1-.1v-1.25h.05l.2-.14.1-.07.12-.07.26-.14.15-.07.14-.07.16-.07.15-.07.15-.08.16-.08.16-.1.15-.08.3-.2.07-.06.14-.52.14-.12.12-.12.12-.14.08-.12.07-.12.06-.12v-.98h-.37v.1l-.07.25-.23.3v.05h-2.23l-.2-.1.07-.1v-.1l.05-.1v-.23l.14-.48v-.25l.06-.13.07-.13V24l.05-.07v-.07l.06-.07.06-.08.07-.07.08-.1.1-.08.1-.07.2-.14.1-.06.12-.06h.1l.12-.06h.12l.13-.05h.12l.52-.16.52-.14.56.14.24-.08h.35l.1-.06.1-.05.2-.12.1-.07.08-.08.08-.07.07-.08.06-.08v-.08l.05-.08v-1.38l-.06-.05v-.05h-1.77l-.06.05-.12.12-.05.06v.08l-.05.08v.94h-.3l-.12-.1v-.46h-.3l-.25.15v.1l.1.2.1.2v.08h-.46v-1.38l-1.08.23v-.36l.18-.33.07-.1.08-.1.16-.2.1-.1.1-.08.1-.1.1-.08.07-.06h.07l.07-.05h.08l.15-.1.15-.08h-.16l-.16.05H52l-.1.06-.1.08-.1.07-.1.08-.1.08-.16.16-.08.1-.14.18-.06.1v.1l-.06.1v2.38h-.26V21l.05-.17.07-.15.07-.16.08-.14.1-.15.1-.13.1-.14.12-.13.12-.12.26-.24.15-.1.15-.1.15-.1.34-.18.18-.08.36-.14.2-.06.2-.06h.2l.2-.05h1.6l.1-.05.16-.12.07-.06.07-.07.06-.07v-.08l.06-.08v-2.9l-.05-.06-.06-.06-.12-.1h-.06l-.07-.05H55l-.28.05-.12-.07-.2-.1h-.1l-.15.26v.28h.3v.24h-1.3l-.16-.12v-.43l-.05-.08h-.3l-.2.2v.1l.13.16.14.16-.06.15-.06.1-.06.08-.07.07-.06.07-.16.12H50.9l-.08-.05h-.08l-.1-.23-.08-.06-.06-.06-.06-.07-.05-.08v-.5l.15-.1.16-.14.05-.1-.18-.24-.4-.1-.07.08-.07.2-.1-.07h-.05v-1.1l.06-.07.2-.2.08-.06.1-.07.2-.14.14-.12.06-.06.05-.06v-.07l.05-.06v-1.5l-.05-.06v-.05l-.3-.15h-.06l-.1-.07-.1-.06-.1-.06-.1-.05h-1.55l-.58.27h-.5V10h-.24v.6l.06.05.22.1h-.75v-.8h-.5v.5l.05.06v.05h.06l.2.1h-.88v-.8h-.1l-.06.06v.58l.05.05h-13.9v-.94h2.07l.05-.05V7.9l-.05-.07V7.7l-.06-.07-.06-.06V7.5l.63-.4h-.07l-.06-.05h.93l.07.05h.07l.07.05.18.18.13.1.1.12.12.13.23.25.22.25.1.13.34.34.12.1.12.1.06.05h.48l-.1-.05-.14.28v-.05L37.08 9 37 8.94l-.12-.07-.15-.15-.14-.16-.08-.1-.08-.1-.14-.2-.08-.1-.05-.1-.07-.1-.08-.1-.07-.1-.07-.1-.16-.18-.06-.06v-.06l-.06-.05-.06-.06-.06-.05-.07-.06-.07-.05-.17-.05v-.1h-2.18l-.06.05h-.12l-.06.05-.05.06V8l.06.06v.06l.06.05h.33v-.7H34v1.2l.15.2h-.77l-.28-.05h-.53V6.07h2.67l.08.05h.17l.1.05.32.24.08.07.3.3.14.16.14.18.06.1.1.15.12.14.1.14.1.15.12.14.12.13.12.14.4.4.14.12.13.1.14.1.15.1.14.1.15.1h.2v-.54l-.14-.08-.6-.22-.15-.1-.14-.1-.3-.22-.12-.1h-.07l-.07-.06-.07-.07-.08-.1-.07-.08-.18-.24-.06-.1-.05-.1v-.2l-.05-.1V5.6l.05-.16v-.3l.07-.15.07-.14.1-.14.1-.12.04-.12.1-.12.1-.1.24-.2.12-.1.14-.08.13-.07.14-.07.14-.06.15-.06h1.72l.74.4.15.13.06.07.06.08.06.07.06.08v1.3h-.56v-.67h-.46l-.12.14v.08l-.05.1v1.38l.05.12.06.12.07.12.08.1.08.12.12.14.1.14.13.13.12.13.13.1.13.12.14.1.13.1.15.1.14.1.15.1.15.08.15.07.15.08.32.14.16.06.16.05h.17l.16.06h3.9l.22-.06.2-.06.2-.07.2-.08.38-.18.34-.2.16-.1.16-.12.14-.1.14-.13.13-.13.1-.13.1-.14.1-.14.1-.14.08-.15.06-.15.06-.16V5.32l-.05-.08-.06-.1-.07-.08-.06-.08-.14-.14-.07-.06-1.08.08h-1.15v.34l.07.06.06.06v1.03l-.05.1-.06.08-.07.08-.06.07-.07.07-.07.05-.07.06-.07.05H45.8l-.12-.05-.1-.05-.1-.06-.08.12-.1-.07-.12-.04-.1-.08-.1-.08-.1-.1-.08-.1-.07-.1-.07-.1v-2.6l.06-.1v-.1l.06-.1.06-.1.14-.18.08-.08.07-.08.06-.06h.05V2.8l.06-.05h.5l.35-.48.14-.05h2.3l.22.05.22.06.22.07.2.08.2.1.2.1.2.12.18.12.18.14.17.14.16.16.14.17.14.18.12.17.12.2.1.22.1.23.07.23.06.26.05.26v1.96l-.07.22-.07.23-.18.33-.06.1-.08.1-.14.2-.1.1-.08.1-.17.17-.1.08-.25.02-.1.08-.1.07-.2.14-.1.06-.1.07-.1.05-.1.06-.12.05h-.1l-.12.05h-1.1v.24h2.46l.16.1.08.06.08.05.08.06.08.07.14.8.16.14.1.1v1.47h.3l.44.3h.06l.63-.84.1-.16.12-.14.13-.13.14-.12.15-.1.16-.1.16-.08.18-.08.18-.06.18-.05h1.78l.2.06.18.06.2.08.36.18.17.1.16.1.16.13.14.13.13.14.12.14.1.16.1.16.16.3.15.3.13.32.14.33.12.34.1.34.1.35.1.35.08.36.07.36.06.37v3.36l-.06.36-.07.36-.1.36-.1.36-.1.35-.13.34-.14.33-.16.33-.17.32-.2.3-.2.3-.2.3-.14.17-.15.17-.16.18-.16.17-.73.73-.4.37-.4.4-.2.2-.2.2-.2.2-.2.2-.18.2-.18.22-.17.22-.32.46-.14.23-.14.24-.12.25-.12.24-.18.52-.07.27-.05.27v2.62l.05.06v.12h.06v.05h.12l.06.05h.07l-.1.07h.1-.1l-.1-.06-.2-.14-.08-.08-.1-.08-.08-.08-.1-.08v.08l.05.07v.15l.07.1.07.1H54l.07-.05h.06l.06-.06h.06v-.13l.05-.07v-.36h.6l.1.13v.16l-.06.07v.08l-.06.07-.06.08-.12.14-.14.14-.06.07-.08.06.74.42-.08.07-.16.12h.68v-.05l.05-.06.23-.32v.07l-.26.44-.05.06v.06l-.06.05-.06.06v.05h-.12l-.06.05h-1.85l-.1-.05h-.04 1.66l.1-.05h.08l.1-.06.52-.55-.06.16v.1l-.1.08-.1.1-.18.16-.1.07-.1.06-.1.06-.1.05h-.8zm-47 0h-.83l-.1-.05-.1-.06-.1-.06-.1-.27v-.1l-.1-.08-.1-.1-.1-.08v-.25l.16.27.06.06.06.07h.05l.07.06.06.06.07.05h.13l.07.05h1.7l-.15-.01h.1v-.06H8.1l.06.06h-1.5l-.1-.05-.1-.06-.1-.06-.08-.07-.13-.2-.05-.05-.06-.1-.3-.43v-.24l.22.32.05.06h.05l.05.05h.74l-.16-.14-.15-.13-.35-.35-.04.43-.06-.07-.06-.08v-.07l-.06-.08v-.07l-.05-.08.1-.1h.7l.3.5.1.08.08.08.1.08.08.08h.9l.07-.05h.06l.07-.05.12-.12v-.06l.06-.06.05-.07.05-.06v-.14l.05-.07v-.07l-.08.07-.08.08-.08.06-.08.07h-.55v-.05h.1v-.06h.05V29.6L8 29.33l.42-.46-.1-.26-.12-.24-.12-.25-.13-.25-.15-.23-.32-.46-.17-.22-.16-.22-.18-.2-.2-.2-.38-.4-.6-.6-.4-.37-.18-.2-.2-.18-.18-.18-.17-.18-.17-.17-.18-.2-.28-.34-.22-.3-.2-.3-.2-.3-.17-.32-.14-.32-.14-.33-.14-.34-.1-.35-.1-.36-.1-.36-.08-.38-.06-.36v-3.34l.06-.37.07-.36.08-.36.1-.35.1-.35.1-.34.13-.34.13-.33.14-.32.14-.3.16-.3.1-.16.1-.16.12-.14.18-.1.14-.13.15-.13.16-.1.17-.1.36-.18.2-.08.18-.06.2-.06H7.5l.18.05.18.06.18.08.16.08.16.1.15.1.14.12.13.13.12.14.1.16.63.84h.46v-1.66l.08-.1.15-.15.08-.06.07-.07.16-.12.07-.05.1-.05.07-.06h2.58v-.15h-1.2l-.12-.05h-.1l-.1-.05.25-1-.1-.05-.1-.07-.1-.06-.1-.07-.1-.07-.1-.07-.1-.08-.18-.16-.1-.1-.1-.08-.08-.1-.08-.1-.08-.1-.2-.3-.08-.07-.12-.22-.14-.46V5.27l-.12-.3.06-.26.07-.23.1-.23.1-.22.1-.2.13-.2.13-.18.16-.17.15-.16.17-.14.22-.12.18-.12.2-.12.2-.1.2-.1.2-.08.22-.07.22-.06.22-.05h2.3l.14.05.15.06h.5l.12.1.05.06.08.08.07.1.07.08.07.1.06.1.06.1.05.1.06.1.1.2v2.4l-.06.1-.08.1-.08.1-.1.1-.1.08-.2.16-.1.07-.1.06-.12.06-.1.05-.12.05h-1.16v-.94l.05-.06.18-.18v-.32h-1.12l-.7-.3-.08.06L13 5l-.08.07-.07.07-.06.08-.07.08-.05.1-.06.08v1.58l.06.15.14.3.1.15.1.14.1.13.12.14.12.13.28.24.15.12.17.1.34.2.38.18.2.07.42.14.22.06h3.95l.17-.06h.16l.16-.05.16-.06.32-.14.15-.08.16-.07.14-.08.15-.1.14-.1.15-.1.14-.1.13-.1.13-.12.13-.1.13-.13.12-.13.12-.14.1-.14.08-.12.08-.1.07-.12.06-.12.05-.12V5.52l-.05-.1-.05-.08-.12-.14h-1v.6h-.62V4.54l.1-.16.06-.07.06-.08.07-.07.17-.16.7-.37h1.87l.14.07.14.06.13.08.14.08.12.1.13.1.33.33.1.12.1.13.1.14.07.14.07.15.06.14.05.16v1.73l-.05.1v.17l-.06.08v.08l-.06.08-.07.07-.06.07-.14.14L25 8l-.08.06-.08.07-.08.06-.1.06-.1.05-.1.06h-.1l-.1.05-.1.05H24v.3h.6l.07-.05.06-.05.13-.1.13-.12.12-.12.12-.13.36-.42.12-.15.23-.3.25-.3.14-.18.06-.1.14-.16.23-.23.08-.07.07-.07.16-.12.1-.06.08-.06.08-.05h.17l.08-.05h2.4l.08.05.14.1.07.06v.05l.06.07.06.06v.67l-.22-.04v2h-.05l-.06.05h-1.5V7.68h.87v.7h.22l.08-.05.08-.06v-1l-.05-.05v-.05h-2.18l-.16.1-.1.06-.08.06-.07.06-.16.14-.07.08-.1.1-.1.1-.1.1-.08.12-.08.1-.1.12-.08.1-.08.12-.14.18-.07.1-.07.1-.08.1-.08.1-.1.08-.08.08-.06.05h-.06.18l.06-.05h.06l.06-.06-.73-.35.22-.22.1-.1.4-.48.14-.16.06-.07.22-.22.08-.07.07-.07.1-.06.08-.06.1-.07.1-.06.1-.06.1-.05h.48l-.08.1-.08.1v.12l-.05.06v1.47l-.14-.1v.36h2.16V10h.06-12.8v-.05h.05v-.58l-.06-.06h-.1v.6h-.9l.2-.07v-.4h-.3v.05l.05.05v.5l-.05.06v.1h-.78l.2-.07v-.4h-.25v.05l.05.05v.5l-.05.07v.06l-.05.05v.1h-.36l-.58-.27H12.1l-.1.05-.1.06-.1.06-.1.07-.06.05v.05l-.05.05h-.05v1.36l.05.06.05.07.05.06.06.06.14.12.12.08.2.16.1.07.15.15.07.08v1l-.2.14v-.1l-.07-.2-.06-.08-.3.07-.17.24v.1l.16.14.18.13.08.1v.36l-.06.07-.06.08-.07.06-.06.06-.08.05h-1.34l-.1-.05h-.08l-.7.7-.07-.07-.08-.06-.12-.16-.06-.1v-.2l.15-.16.13-.16v-.1l-.22-.2h-.3l-.05.1v.47h-.34v-.05L8.62 15h.2l.05-.28-.16-.26h-.1l-.2.1-.1.06h-1.5l-.07.05H6.7l-.12.1-.06.06v.06l-.05.06-.1-.08v.07L6.3 15v2.67l.05.08.06.08.06.07.07.07.07.06.16.12.1.05h1.6l.2.05h.2l.2.06.2.06.36.14.18.08.17.1.32.18.15.1.14.1.14.12.26.24.1.13.1.14.1.13.1.15.08.14.07.16.07.15.1.34v1.5h-.26l-.1-.07.16-.66v-1.26l-.1-.26-.12-.24-.08-.12-.07-.1-.1-.12-.1-.1-.1-.1-.1-.1-.6.48h-.06l-.06-.05H10l-.12-.08-.12-.07H9.1l.15.07.14.07.07.05h.07l.07.05h.07l.1.08.2.18.1.1.08.1.16.2.07.1.07.1.12.22.05.1.05.12v1.32l-.13.53h-.35v-.15l.1-.18-.1-.7v-.1l-.25-.15-.3.05v.52l-.1.07h-.35v-1l-.05-.1v-.15l-.06-.08-.05-.06-.06-.06-.8-.33v-.05H6.7l-.07.05-.1.1v.06l-.05.06v.05l-.05.06v1.27l.06.07.14.16.1.08.08.06.1.07H7l.1.05.1.06h.35l.24.08.52.14.26.08.26.07.26.1h.5l.12.06.22.12.1.06.1.07.1.08.1.08.08.1.07.07.06.08.06.07v.08l.1.14v.14l.07.13.1.26v.12l.07.24.07.23v.23l.05.1.06.1.07.1-.22.1H9.64l-.23.1-.25-.32-.07-.25-.05-.1v-.1h-.37l-.05.05v.9l.05.1.12.24.08.12.12.14.06.06.14.12.06.06.07.05.07.06.3.2.15.08.16.1.16.08.15.08.6.28.26.14.12.07.1.07.2.14v1.3l.1.1.1.1.1.1.08.1.07.1.06.1v1.2l-.1.12h-.06l-.06.05h-.9l-.16.35V30.8l-.05-.07-.1-.12h-.45v1.64h-.12v-.4l-.06-.08-.05-.07-.06-.07v.9l-.06.08-.1.16v.07l-.06.07-.05.07-.18.18h-.06l-.06.05H8.4zm49.08 14.9l-.12-.1-.12-.1-.06-.14v-3.1l.08-.1.1-.08.1-.1.1-.08.1-.07.12-.07.25-.1-.1.07-.06.1-.07.08-.07.1-.05.1-.06.1v2.5l.06.12.07.1v.1l.28.2h-.4l-.07.05h-.07zm-51.17 0H5.2l-.05-.1h-.4l.28-.2v-.1h.05v-.05l.06-.1.06-.12.05-.12v-2.28l-.05-.1v-.1l-.06-.1v-.54l-.06-.1-.07-.08-.08-.07.2.1.22.14.1.08.1.1.1.08.1.1v2.96l-.05.05-.05.06-.2.2-.1.1zm12.7 6.67l.6-.1.1-.06h.1l.1-.07.1-.06.1-.07.2-.24v-1.1l.2.06h.6l-.33.58-.08.1-.08.1-.08.1-.1.1-.1.08-.1.08-.22.14h-.1l-.1.06h-.76zm26.05.08h-.76l-.1-.08h-.94l-.06-.56h-.06v-.06l-.06-.07-.06-.06v-.06l-.05-.07v-.15l-.05-.07v-.46h.53l.28-.08v1.1l.2.24.1.07.1.06.1.07h.1l.1.06 1 .15z" fill="#f6efaf"/><path d="M25.5 5.72v-.55l-.05-.14-.2-.16-.1-.1v-.12l-.07-.12-.1-.1-.08-.12-.1-.1-.1-.1-.1-.1-.15-.13h-.1l-.1-.1-.1-.12-.12-.07-.12-.06-.13-.07-.13-.05h-1.5l-.34.14.4-.3.2-.18.2-.18.4-.4.1-.1.08-.1.07-.1.07-.1.06-.1.06-.1h.27l-.7.94h.08l.07-.05.08-.06.07-.06.07-.07.07-.06.18-.2.06-.08v-.15l.15-.3.16.13.1.1-.67 1.1h.12V3.1l.1-.08.08-.07.1-.1.07-.1.3-.3.14-.18.05-.1v-.07l.07.1.1.13-.58.94h.12l.06-.05.45-.63.12.2.06.1-.45.75h.06l.06-.05.34-.4v.07l.1.2-.4.65h.08l.07-.05.08-.06.07-.06.2-.23.08.22-.33.54h.17l.05-.05.17-.2.07.24-.26.43.07-.05.08-.05.07-.06.08-.06.06.24-.2.32.22-.16v.24l-.14.23.15-.1v.7h10.95V5.4l.17.15-.2-.68v-.3l.23.22-.22-.3v-.06l.06-.25.33.3-.3-.42.06-.2.42.37-.37-.52V3.6l.07-.17.66.43-.08-.1-.08-.12-.16-.22-.1-.2.12-.25.6.53-.07-.08-.06-.08-.06-.1-.1-.06v-.1l-.06-.08v-.1l-.16-.07v-.05l.16-.3.14.23.06.08.2.2.08.07.16.12.1.05-.07-.08-.06-.08-.05-.08-.07-.1-.08-.1-.05-.1-.06-.08-.05-.1-.2-.26.15-.2.07-.08.24.44.06.08.07.08.08.07.07.06.07.07.08.07.1.06.08.05-.06-.08v-.1l-.06-.1-.06-.08-.06-.1-.06-.08-.05-.1-.06-.08-.26-.5.12-.12.32.6.07.07.07.08.14.14.08.07.16.12.1.06-.1-.1-.08-.12-.16-.22-.42-.76h.25v.25l.3.4.4.43.24.2.26.2.43.3-.4-.16h-1.52l-.13.06-.12.06-.13.06-.12.07-.1.08-.12.08-.1.1-.2.18-.1.1-.1.1-.1.12-.08.1-.08.12-.07.12-.07.13-.06.13-.05.14v.54zm6 .44h-1.27l-.07-.14-.1-.1.13.05h1.46l-.07.06zm-.62.6h.16l.16-.1-.16-.08h-.32l-.17.08.16.1zm14.84 1.18H45l-.17-.1-.16-.13-.15-.12-.13-.13-.12-.14-.12-.37-.1-.15-.1-.15-.07-.15-.07-.17-.06-.16v-1.7l.06-.16.14-.32.1-.16.1-.15.22-.3.13-.13.13-.14.13-.12.16-.13-.08.1-.1.1-.07.1-.07.1-.14.22-.12.22-.06.15-.06.16V5.8l-.07.07v.68l.05.06.1.1.1.1.1.1.1.1.24.16.13.07.12.07.13.06.13.05.14.05h.67l.37-.1-.2.17-.1.07-.12.05h-.25l.3.23h-.42zm-29.6 0h-.82l-.13-.25-.12-.07-.2-.18.4.12h.67l.26-.1.13-.06.13-.07.12-.07.13-.08.1-.08.1-.1.1-.1.1-.1.1-.1V4.14l.3-.27-.06-.15-.57-.85.15.13.14.12.13.14.12.13.12.15.2.3.16.32.12.32.05.17v1.02l.1.2v.17l-.05.16-.06.16-.06.17-.08.15-.1.15-.1.15-.1.15-.13.14-.13.13-.15.12-.16.13-.17.1h-.63zm14.62.6h.64l.16-.05-.15-.08h-1l-.17.08.2.05h.33zm1.13.36l-.46-.14h-1.46l.13-.17V6.4L30 6.23l.1.05h1l.1-.06-.07.16v2.04l.05.1v.16l.05.08.06.07.06.08zm-22.7.04h.16l.17-.05.17-.07.16-.08.15-.1.15-.1.13-.15h-.2l-.17.06-.32.14-.15.07-.16.08-.1.1-.14.1zm43.5 0h.18l-.1-.08-.15-.08-.16-.08-.15-.07-.1-.1-.16-.07-.17-.06h-.2l.12.15.15.1.16.1.16.08.16.07.17.05zm-23 .14v-.06l.07-.07h2.04l.06.06v.05l-1-.06H29.6zm22.56.37h.2l-.15-.1-.1-.1-.17-.08-.18-.08-.38-.16-.2-.06-.22-.05.16.17.17.12.2.1.18.1.38.14zm-42.7 0h.2l.18-.07.2-.07.2-.1.2-.1.18-.12.15-.17-.22.05-.57.24-.18.08-.17.08-.17.1-.15.1zm42.64.35l-.32-.14h-.46l-.1-.05-.12-.25h-.1l-.3-.15h-.22l.13-.1.1-.24.17-.17.08-.1.07-.1.08-.05.07-.1.07-.1.07-.1.12-.2.06-.1v-.1l.05-.1v-.22l.13-.6.14.15.16.12.1.05.08.06h.08l.1.05h.08l.08.05.18.08.34.14.18.06v1.1l-.06.12-.07.1-.08.1-.1.1-.1.1-.1.1-.22.2zm-42.5 0l-.13-.07-.07-.05H9.4l-.07-.05h-.07l-.1-.14v-.05L9.1 9.4l-.06-.05-.1-.12v-.06L8.9 9.1v-.06l-.05-.06V7.7h.6l.1-.05.17-.1.17-.1.16-.1.17-.12.15-.15.12.6v.1l.1.22v.1l.06.1.06.1.07.1.06.1.07.1.07.1.08.1.07.1.17.17.08.1.08.07.15.13-.1.05-.13.06-.13.07h-.12l-.13.06-.12.06-.12.05-.12.06-.13.05-.12.05h-.12l-.24.1zm2 .1l.27-.12.18-.14.2.08h-.52zm40 .12l-.25-.16h-.36l-.1-.05h-.1l-.2-.1h-.1l-.1-.06h-.2l.16-.12.13-.1.18.17.1.07.12.07.22.12.12.06.12.05h.13l.12.05.43.1-.18.1zm-41.5.02l-.3-.13H9.8l.4-.08h.36l.1-.05.22-.12.12-.06.1-.07.28-.2.07.05-.13.07-.12.06-.13.06-.12.06h-.12l-.13.06-.12.05h-.12l-.36.15zm41.1.14l-.25-.12h-.37l-.75-.36.16-.1.07-.05.16.14.1.08.1.06.1.07.12.05.12.06h.12l.12.05h.12l.34.08-.28.08zm-40.64 0h-.27.54l.12-.05.1-.06.03-.2.12-.05.1-.07.1-.06.25-.18h.05-.1l-.12.07-.13.05-.13.06-.24.12.07.16h-.13l-.12.05h-.12l-.1.05zm40.2.07l-.15-.1-.15-.08h-.95l.1.08h.22l.2.1.2.1h.08l.25.1.23.05zm-39.8 0h-.12.16l.18-.08h-.07zm1.4 2.93l-.42-.45-.25-.17-.2-.2v-1.1h.15v-.05h.5zm37.07.05v-2.37h.2l.22.1h.17v.05h.05V12l-.05.08.05.5-.25.17zm-43.15 4v-1.02l.06-.3zm49.23.1v-.15zm-48.87.46l-.08-.05-.07-.1v-2.36l.1-.16.06-.07zm48.43.07V15.1l.1.1.06.1v2.4zm-48 .18L7 18l-.1-.05v-3.08h.06l.18-.07zm47.62 0v-3.18h.1v3.1h-.13zm-48.1 3.9l-.07-.08-.08-.13v-.6l.05-.07.1-.1zm48.48.06v-1.14l.1.08v.92zm-48 .3l-.13-.07-.1-.08v-1.28l.16-.1h.08zm47.62 0v-1.62h.24v1.45h-.06zm-47 .2l-.34-.12v-1.7h.36zm46.46 0v-1.7h.3v1.75zm-45.84.17l-.37-.1v-1.8l.2.14v.23l.07.14zm45.22 0v-.55l.06-.35v-.67l.05-.08v-.08 1.65l-.33.1zm-44.76.2h-.08l-.25-.07v-.54l.06.17zm44.14 0v-.16h.15l.1-.07v.2l-.1.03zm-43.6.16h-.12l-.22-.06v-.2h.33zm43.07 0v-.44h.15v.22h-.16zm-42.4.3l-.3-.18-.14-.06v-.55l.15.06zm41.74 0v-.48h.1l.07-.12v.6h-.1zm-42.94 3.2v-.2l.07-.06zm44.14.05v-.7h.16v.45l-.05.1zm-43.6.3h-.2l-.03-.13H9.1v-.57l.13.16zm43.07 0v-.44l.14-.1v-.05.54l-.18.13zm-42.4.33l-.25-.13-.22-.1v-.43h.42zm41.73 0v-.55h.46v.44l-.15.08zm.4 18.44v-.33l-.08-.1-.1-.07h-1.5l-.37-.28h-.07l-.07.05-.12.12v.45l.1-.1.1-.1.16-.18h1.48l.1.08.08.1v.06l.06.06v.06zm-42.62 0l.13-.13.06-.07.07-.08.07-.07.08-.07.08-.06.1-.07h1.56l.05.06.06.05v.1l.1.1.05.06v.03-.2h-1.54l-.3-.43h-.07l-.07.05-.07.06-.12.12v.44zm40.12 1.3v-.68l.12-.12h.9l.08.05h.07l.06.05.06.06v.06l.06.08v.05-.34l-.05-.06.64-.2v-.05h-1.5v1.1zm-39.8 0v-.67h.97l.06.06v.06l.05.06v.02-.2l-.08-.06H9.53v.78zm49.7.94h.08v-.1h-.15v.16h.1zm-57.45 0h.12v-.3h-.12v.15zM59.6 49h.08v-.2h-.23v.05h.12zm-57.45-.03h.12v-.26h-.12v.15zm56.93 1h.07v-.25h-.25v.14h.1zm-56.4 0h.1v-.25h-.25v.14h.1zm52.07.67h.07v-.16h-.12v.13h.1zm-47.73 0h.13v-.13h-.2v.13h.07zm51.13 0h.14v-.25h-.2v.2h.06zm-54.53 0h.07v-.23h-.2v.23h.14zm52.18.3v-.18h-.2v.1h.1zm-49.83 0h.1v-.16h-.2v.1zm51 0h.08v-.14h-.17v.07h.1zm-52.2 0h.1v-.17H4.7v.1h.1zm12.82 4.73h-1.4l-.1-.07-.1-.08-.1-.08-.2-.18-.1-.4-.08-.1-.1-.1-.1-.1-.08-.1-.06-.15-.07-.12-.07-.13-.08-.17-.12-.28-.1-.3v-2.6l.06-.2v1.78l.05.13v.13l.06.15.07.15.06.14.08.15.08.14.1.13v.06l.05.07.06.06.05.07.1.1.08.1.3.27.1.07h.95v-.75l.1-.12.05-.05h1.17l.06.05v.06l.06.1v1.3l-.05.07v.06h-.12l-.07.06h-.24l-.1.05H17zm26.88 0h-1.35l-.08-.06h-.08l-.07-.06-.06-.06-.05-.06v-1.37l.06-.1v-.06l.06-.05H44l.1.1v.85h-.57l-.17-.07.32.16h1.03l.12-.05h.2l.1-.06.1-.07.1-.06.1-.08.1-.08.1-.08.08-.1.1-.1.08-.1v-.06l.05-.07v-.07l.05-.07.1-.15.08-.15.05-.1v-.2l.05-.1v-1.33l.07-.72.05.16v2l.77-.4v.5l-.05.16v.3l-.06.14-.06.13-.14.26-.08.1-.08.12-.08.1-.18.2-.2.2-.1.1-.1.08-.1.08-.1.07h-1.17zm-6.57 0v-.26h-.2v.05l.06.08.05.1v.15zm-14.08 0v-.33h-.2l-.07.06-.07.08-.05.1v.22zm13.48.65l.1-.1v-.6l-.06-.07-.17-.1-.08-.06-.1-.05h-.4v.1h.06l.06.05h.06v.06l.05.06.34.26v.3zm-12.87 0v-.56h.12l.06-.05h.06l.05-.06h-.4l-.08.05-.08.06-.07.07-.06.07v.66zm6.46.17l-.07-.2-.07-.2-.1-.2-.08-.22-.08-.2-.07-.2-.05-.1v-.25l.7.34.6-.3-.64 1.54zm5.67.45v-.74h-.16l-.24-.33v1.05zm-11.4 0v-.65l.06-.05h.06-.07l-.05-.37v.92zm17.28 5.53h-.7l-.38-.06h-.55l-.13-.06h-.13l-.13-.07-.1-.07-.16-.34h-.1l-.1-.1-.1-.08-.1-.1-.2-.2-.18-.2-.16-.22-.06-.13-.08-.1-.06-.12-.07-.13-.06-.12v-.12l-.05-.13v-2.98l.05-.16.07-.17.06-.16.08-.15.08-.16.1-.16.1-.14.1-.14.1-.14.1-.13.12-.13.12-.12.13-.12.13-.1.14-.1.15-.1.15-.08.15-.1.16-.07h.17l.17-.06h.1v.18l-.4.17-.2.14-.2.15-.18.17-.16.2-.16.2-.14.22-.13.23-.1.24-.1.25-.1.25-.07.27v1.6l.06.26.08.25.1.24.12.23.14.22.16.2.2.2.2.17.23.16.25.13.28.12.3.1.33.06h1.96v-1.7h-.32l-.22.33-.44.2h-.4l-.32-.24h-.06v-1.54l.05-.1v-.1l.07-.08-.06-.2.08-.08.1-.08.1-.06.1-.07.1-.06.13-.06h1.78l.14.06.13.07.24.16.1.12.1.1.1.1.1.13.08.13.08.14.07.14v.16l.05.17v1.5l-.05.14-.06.14-.06.13-.07.12-.07.13-.08.12-.1.1-.08.1-.1.1-.1.1-.1.1-.1.1-.12.08-.1.08-.13.08-.12.07-.13.07h-.13l-.13.06h-1.48zm-23.13 0h-1.46l-.13-.06h-.13l-.13-.07-.12-.07-.12-.08-.12-.32-.1-.08-.1-.1-.1-.1-.1-.1-.1-.1-.18-.22-.08-.12-.07-.13-.1-.1v-.13l-.1-.28v-1.6l.05-.16.07-.14.08-.14.08-.13.1-.13.1-.1.1-.1.12-.1.1-.08.12-.08.14-.07.13-.06h1.8l.12.06.1.06.1.07.1.06.14.14.12.16v1.65l-.05.06-.05.05h-.5l-.4-.18-.25-.37h-.55v.8H18l.15.82h1.86l.32-.06.3-.1.28-.12.25-.13.24-.16.2-.17.2-.2.16-.2.2.12.13-.23.1-.24.08-.25.06-.26v-1.34l-.05-.26-.07-.27-.08-.25-.1-.25-.12-.24-.12-.23-.15-.22-.15-.2-.17-.2-.18-.17-.2-.15-.2-.14-.4-.18.05-.08v-.1h.1l.17.06H21l.16.07.16.1.15.08.28.2.13.1.26.24.1.13.12.13.3.42.16.32.08.15.07.16.06.17.06.16v3.34l-.05.1v.1l-.06.1v.08l-.06.1-.06.08-.06.1-.05.07-.07.08-.06.08-.07.07-.07.08-.14.14-.08.07-.16.12-.08.07-.17.12h-1.08l-.36.06h-.7zm1.5 2.72h-.1l-.06-.16-.05-.16-.06-.16-.06-.15-.07-.16-.14-.3-.12-.16v-.14l-.08-.15-.2-.28-.1-.14-.1-.13-.13-.13-.17-.1h.08l.13.15.26.28.1.15.12.14.1.14.1.15.1.15.08.14.07.14.07.16.06.14.05.16v.32zm20.1 0v-.47l.12-.3.06-.14.07-.15.08-.14v-.4l.05-.08.06-.08v-.08l.12-.14.07-.07.06-.07.07-.07.5-.03v-.1l.08-.06h.12l-.24.26-.1.13-.1.14-.1.13-.1.14-.1.15-.1.14-.08.15-.08.16-.07.15-.07.16-.06.16.02.2v.34h-.14zm-19.56 0h-.37v-.27l-.1-.34-.05-.16-.07-.16-.06-.16-.08-.15-.12-.08-.08-.15-.7-.85h.22l.2.2.12.13.1.14.12.14.1.14.1.15.1.14.08.15.08.16zm19.2 0h-.17l.12-.32.06-.17.06-.16.07-.16.06-.17.16-.32v-.1l.05-.08v-.16l.06-.07v-.08l.06-.07v-.07l.13-.14.12-.13.26-.26h.16l-.13.13-.1.12-.1.1-.1.12-.16.24-.08.1-.07.13.12.17-.07.12-.12.26-.05.14v.8zm-19.5 1.58H19.5l-.26-.06-.27-.06-.64-.36v-.24l-.17-.18.06.06.07.06h.15l.07.05h4.32l.16-.06.17-.06.32-.14.16-.08.15-.08.15-.1.15-.1.14-.1.15-.12.13-.1.1-.1.1-.1.1-.1.1-.1-.07.08-.08.07-.07.06-.08.07-.1.07-.08.06-.07.06h-.1l-.1.06h-.08l-.08.05h-.1l-.17.1-.2.08-.14.07-.16.06-.15.06H23l-.17.06h-4.36l-.06-.06h-.12l-.05-.06v-.06h-.07v-.32l.08-.1v.17l.05.07.06.07h.74l-.1-.05h-.1l-.1-.06-.1-.06h-.1v-.35l.26-.15H20l.4.15.08.3h-.1 3.03l.12-.06h.12l.12-.05.1-.07h.1l.08-.13.1-.06.36-.24.1-.07.15-.12.28-.24.26-.26.1-.12.22-.26.1-.13.18-.28.1-.13.27-.5.07-.18.07-.17.07-.2.12-.36v-.02l-.05.13v.27l-.06.16-.07.16-.08.16-.08.15-.18.3-.1.14-.1.15-.1.14-.1.13-.12.14-.12.13-.26.24-.14.12-.14.1-.18.14-.18.12-.1.06h-.1l-.1.06h-.1l-.1.06-.12.06h-2.2v-1.2l-.05-.1v-.18l-.05-.08v-.1l-.06-.08-.05-.1v-.07l-.06-.1-.06-.08-.06-.07-.06-.08-.07-.08-.86.5-.16-.1h.24l.25.26.12.13.1.15.2.28.27.45.07.16.12.26.05.13v.13l.05.13v.14l.05.14v.14-.9l-.06-.18-.07-.17-.1-.13v-.17l-.05-.08v-.08l-.1-.16-.1-.15-.44-.52h.05l.3-.1.14.14.08.07.07.07.07.08.08.08.06.08.07.08.07.1.06.1.07.1.06.1.12.2.05.1.06.1v.12l.06.13v.26l.05.13v.4-.85l-.06-.17-.1-.22v-.17l-.08-.15-.18-.3-.1-.15-.52-.56.2-.1.28-.16.48.5.18.28.1.14.08.15.08.14.14.3.06.15v.02l-.06-.17-.05-.17-.07-.17-.07-.16v-.16l-.05-.07v-.16l-.05-.07-.05-.08-.05-.07-.5-.55.18-.13.06-.04.07-.06.14-.14.25.24.1.1.1.12.18.24.1.14.16.26.07.14.08.14.14.28.07.15v-.8l-.06-.12-.14-.24-.26-.16-.08-.12-.08-.1-.1-.07-.1-.1-.26-.26.1-.12.18-.26.08-.13.16-.28.07-.15.06-.14.12-.3v-2.87l-.06-.18.07-.2-.06-.17-.1-.16-.08-.16-.18-.34-.1-.16-.22-.3-.12-.14-.13-.14-.14-.13-.28-.24-.13-.06-.16-.1-.16-.1-.17-.08-.13-.13-.18-.07-.18-.06h-.1v-.38h-1.23v-.12l-.05-.1v-.17h-1.96v.05l-.05.08-.25-.46-.12-.1-.1-.12-.13-.12-.2-.24-.18-.24v.54l.06.08v.08l.1.12.1.1.06.06.06.05.06.06.07.06v.07l-.53-.45-.05-.08-.06-.07-.05-.08.16-.07h-.05v-.16l-.05-.1-.13-.2-.14-.34-.1-.2v-.08.97l.23.1v.17l.06.08.05.08.12.16.07.08.07.07.5.42v.15L16.9 54h-.15l.01-.14-.14-.12-.24-.24-.06-.07-.05-.06-.05-.07v-.07l-.06-.1v-.07L16.1 53l-.16-.13-.08-.15-.07-.15-.18-.48-.05-.22v-.14.36l.05.17.06.18.06.16v.5l.05.07v.08l.05.07.05.08.06.07.05.07.18.2.07.06.1.08.08.07.1.07.1.06.4.2h-.27l-.1-.05h-.1l-.08-.06h-.1l-.16-.12.08-.2-.08-.07-.07-.1-.07-.07-.06-.08-.07-.1-.06-.07-.08-.13-.07-.13-.08-.12-.06-.15-.07-.13-.06-.14-.05-.14-.05-.13v-1.07l-.14-1.65v-.3h-.82v-1h-.4l-.1.08-.08.06-.1.05h-1.06l-.06-.05h-.05v-.86l.05-.08v-.7h-.44v.94l-.05.4-.08.37-.1.36-.13.34-.15.33-.17.3-.2.3-.2.28-.23.25-.24.23-.26.22-.27.2-.28.18-.3.16-.3.15-.3.12-.32.1-.32.1-.33.07-.32.05H5.97l-.3-.06-.3-.1-.3-.1-.3-.13-.3-.14-.27-.16-.26-.2-2.17-.5-.2-.18-.17-.2-.16-.2-.14-.2-.13-.23-.12-.23-.1-.24-.08-.24-.08-.27-.06-.26v-1.74l.06-.23.07-.22.1-.22.1-.2.12-.2.13-.2.15-.17.16-.15.18-.14.2-.12.2-.1.18-.06.24-.06h1.67l.1.06h.5l.05.05v.06l.05.06v.3l.4.52v2.25l-.05.07v.07l-.05.06-.06.06-.07.06-.06.06H3.54v-.9h.36l.1.12.06.06h.14v-.44H2.5l-.06.05H2.4l-.06.05-.05.06v.05l-.05.06v.25l-.07.13-.06.13v.6-.75 1.4l.05.15.06.15.06.14.07.14.07.13.08.13.1.12.08.12.08.08.07.1.07.08.1.07.08.07.08.08.08.06.1.07.1.06h.08l.1.06.1.05h.28l.1.05h.16l.17.06h2.96l.1-.05h.18l.15-.06.14-.07.28-.16.13-.08.14-.1.26-.18.13-.1.13-.1.12-.1.12-.12.33-.36.2-.26.1-.12.08-.14.08-.13.08-.14.07-.13.06-.14.07-.14v-.43l-.08.15-.1.14-.08.14-.1.14-.1.13-.1.14-.1.13-.1.13-.1.12-.1.13-.1.12-.12.1-.1.1-.22.22-.12.1-.08.07-.1.07-.1.06-.1.07-.18.12-.1.06-.1.05-.1.06-.1.05h-.2l-.4.18H4.27l-.35-.1-.23-.08h-.1l-.1-.05h-.2l-.13.08-.1-.06-.18-.12-.18-.14-.07-.07-.1-.08-.08-.1-.14-.16-.07-.1-.07-.1-.02-.1v-.2l-.05-.1V47.3l.05-.1v-.1l.06-.1-.06-.13.07-.1.06-.08.06-.07.13-.13h.14l.1-.05h1.3v.37h-.1l.07.05h-.06l-.06-.05h-.94v.06H2.9v1.8l.05.1v.08l.06.1.06.08.14.18.08.07.08.08.18.16.33.2.12.06.26.12h.14l.15.05H7.4l.1-.05h.1l.1-.06h.1l.1-.06.1-.06.18-.12.1-.07.27-.2.08-.08.18-.16.08-.08.18-.2.05-.08v-.07l.05-.08v-.08l.05-.08.1-.16.1-.18.18-.34-.77.94-.12.1-.36.3-.12.1-.13.1-.12.1-.13.08-.12.07-.13.08-.13.06-.13.07-.26.12-.13.05H4.5l-.14-.05H4.1l-.1-.05-.1-.06-.2-.12-.1-.07-.08-.06-.16-.14-.06-.07-.14-.2v-.08l-.1-.1h.33l.05.05h.05l.1.07.1.06.1.07h.86l.47.75H7.1l.1-.05.1-.06.1-.05.1-.06.1-.06.1-.06-.2.1-.2.08-.1.05h-2.8l-.1-.05h-.1l-.2-.12-.1-.07-.1-.07h.2l.48.23H6.6l.12-.05h.13l.1-.07.12-.06.12-.07.1-.07.1-.08.1-.07.1-.08.1-.1.1-.08-.13.08-.13.1-.14.08-.13.07-.14-.4-.14.07-.14.06-.15.06H5.66l.13-.1.07-.07h.64l.13-.05.13.02.12-.06.13-.07.13-.08.1-.08.12-.08.1-.1.1-.1.1-.1.1-.1.1-.1.1-.1.08-.1.08-.1-.26.22-.14.1-.13.1-.28.2-.15.1-.14.1H6.2l.14-.2H7l.1-.06.1-.07.1-.08.1-.08.18-.16.08-.1.1-.1.22-.28.06-.07.1-.14.05-.08.06-.1.1-.2v-.1l.05-.1v-.1l.05-.1v-.1l-.1.18-.12.17-.12.18-.13.17-.14.17-.13.16-.08.08-.07.08-.15.15-.1.1-.2.16-.1.07h-.5l.06-.12.85-.7.14-.17.13-.16.13-.17.12-.17.1-.17.1-.18.1-.18.1-.17.18-.4.2-.52v-.13l-.1.23-.13.23-.12.22-.13.22-.14.23.1.4-.07.1-.08.1-.07.1-.08.1-.1.12-.18.22-.1.1-.1.1-.3.3-.23.17v-.14l.2-.22.4-.5.18-.27.18-.3.34-.6.15-.33.15-.34.14-.34.13-.36.13-.37.12-.38.1-.38.1-.4.1-.4.1-.42.1-.4.07-.44.07-.43.06-.44v-.45l.05-.45v-4.2L9.6 33.5l.1-.1.16 2v4.36l.06-.3.05-.3v-5.17l-.1-.88.3-.23v.07-1.6h.18v1.54l-.05-.6h.18l.08 1.4v.2l-.06-1.47h.2l.13-.07.08 2v-2.16h.06l.05-.06v-.06l1.16-.18V30.2l-.05-.08-.05-.1-.06-.08-.15-.1h-.07l-.18-.18v-1.4h-.05v-.05h-.1l-.24-.37-.24-.16-.13-.07-.12-.07-.13-.06-.13-.07-.13-.06h-.06v-.6h.22l.3-.07v.47l.06.4.06-.4v-.54l.25-.1h.2l.1-.05.1-.06v-.63l-.08-.26-.1-.27v-.15l-.23-.34v-.4l-.05-.1-.05-.08-.06-.08-.12-.18-.25-.08-.08-.1h-.1l-.1-.07v-.74h.28l.1.1h.08v.6l.06.4.06-.4v-.57h.57l.06-.05.1-.14v-1.9l-.14-.36-.08-.16-.1-.17-.1-.16-.1-.15.02-.3-.26-.28-.14-.12-.15-.13-.32-.22-.13-.1-.17-.1-.18-.1-.38-.16-.4-.14-.42-.1H7.33v-3.54h.2v.3l.1.2v1.6l.06 1.13.18-1.1V15.5l.18.14h.2v.94l.06 1 .06-1v-.9h.38v.08l.13.2v.32l.07 1 .06-1v-.13l.16.12.1.05h1.5l.27-.15.1-.06.08-.06.07-.07.14-.16.06-.08.06-.1.05-.1v-.3l.68-.36.14-.17v28.07l.07.56.13.55.16.55.2.54.25.53.28.53.33.5.36.5.4.5.43.48.45.47.5.45.5.45.54.43.56.42.58.4.6.38.62.38.64.35.66.33.67.32.68.3.7.28.7.26.7.24.72.23.7.2.72.18.72.16.72.14.7.1.43.06.13.16.2.15.12.16.12.17.22.34v.1l.05.1v.2l.08.15.14.32.2.5.06.18.06.2.44 1.4h-.47l-.03.2h-.06v.52h-.48v-.04.24h.56v-.26l.05-.08h1.04v.4h.66v-.33h-.05.58V59h-.4l.43-1.42.07-.2.06-.18.2-.5.07-.16.08-.16.07-.15.1-.18.1-.17.1-.16.1-.18.12-.16.12-.17.26-.34.5-.07.72-.1.7-.14.72-.16.72-.18.7-.2.72-.23.7-.24.7-.26.7-.28.67-.3.68-.32.65-.33.64-.35.62-.38.6-.38.58-.4.56-.42.54-.43.5-.45.5-.45.46-.47.42-.48.4-.5.36-.5.32-.5.3-.53.25-.53.2-.54.16-.55.12-.55.08-.56V14.64l.2.24.26.16v.7l-.77.13.06.08.06.07.08.06.07.07.08.05.08.06.1.05h1.8l.1-.08v.08l.07 1 .06-1v-.17l.14-.14v-.2l.1.07.18.06v.86l.06 1 .07-1v-.86h.27v1.2l.06 1.13.57-1.4v-1.4l.08-.1v-.5h.18v3.32H53.2l-.42.1-.2.07-.2.07-.2.08-.02.16-.18.1-.22.1-.34.22-.15.1-.15.13-.14.12-.26.28-.1.14-.1.15-.1.16-.1.17-.08.16-.07.18-.06.18v1.97l.05.07.06.05h.42v.58l.06.4.06-.4v-.6h.13l.1-.1h.16v.6l-.08.1-.07.08-.06.1-.07.1v.16l-.05.08v.4l-.05.14v.15l-.08.28-.08.26v.63l.1.06.1.05h.2l.2.08v.57l.06.4.06-.4v-.5l.37.1h.15v.65l-.13.06-.13.07-.13.06-.12.07-.13.07-.12.07-.12.1-.1.08h-.1v1.4l-.58 1v.06l-.05.07v1.74l.24.3-.2 2.3.08-2.1h.15v3.14l.14-3.13h.26l-.07 1v.01-1.77h.2v.2l-.16.27-.05.15v.87l.05.1-.16 2.35V39l.05.27v.2-4l.16-2.16.1.06-.12 1.77v5.1l.07.44.06.43.08.44.08.4.1.42.1.4.1.4.22.76.13.37.13.36.14.34.15.34.16.33.16.3.17.3.18.3.2.27.2.25.2.25.2.22.07.2-.1-.1-.12-.1-.1-.1-.1-.1-.2-.22-.1-.12 1.26-.14-.1-.1-.27-.36-.24-.36-.08-.13-.1-.04-.07-.13-.07-.12-.07-.18-.07-.12-.06-.13-.14-.26.2.52.06.12.05.13.12.24.06.13.07.12.06.12.08.12.07.1.07.12.08.1.08.12.08.1.18.22.1.1.1.1.3.3.5.37v.18l-.2-.08-.14-.08-.28-.2-.13-.1-.13-.12-.13-.1-.24-.24-.33-.4-.1-.14-.1-.14-.1-.14-.1-.14-.03-.14.07.2.1.2v.1l.05.1v.1l.06.1v.1l.05.08.06.1.06.08.07.08.06.08.07.08.08.08.08.1.1.1.1.08.08.08.1.07.18.14.1.07.63.3.1.17h-.5l-.1-.05h-.1l-.12-.05-.14-.1-.14-.1-.15-.1-.13-.1-.14-.1.07-.28-.14-.12-.13-.1.07.1.24.27.1.1.1.1.12.1.1.1.12.08.1.1.13.08.12.07.13.07.18.05.12.05h.63l.1.08.13.1-.76-.1h-.46l-.1-.06-.1-.05h-.1l-.16-.01-.12-.07-.14-.12-.24-.16.1.1.1.1.1.08.1.08.33.2.12.06.1.06h.12l.13.05h2l.13-.06h.13l.12-.06.13-.05h.2l-.45.34-.13.05h-3.1l-.04-.37.18.12.1.06.1.05.1.06.1.05H56l.15.44h1.2l.14-.05h.13l.74-.57h.2l.08-.06v.08l-.06.08-.06.07-.14.14-.08.07-.1.06-.1.07-.2.12-.1.06-.1.05h-.25l-.13.05H54.8l-.1-.05-.1-.06-.1-.05-.22-.12-.1-.07-.1-.06-.1-.08-.1-.07-.1-.08-.1-.08-.38-.36-.18-.17-.17-.18-.17-.17-.13-.57-.16-.17-.15-.18.08.16.1.16.1.17.08.16.1.15.1.16v.07l.05.07v.07l.06.06.22.12.08.1.18.16.1.07.1.08.1.07.1.07.1.07.1.06.3.18h.1l.1.05h3.02l.15-.05h.13l.14-.06.24-.12.12-.07.1-.07.1-.07.27-.24.07-.07.14-.18.06-.08v-2.12h-.94v.05h-.06l-.06.05-.1-.1v-.24h1.18l.2.2.07.1.06.1.12.2.05.1v2.37l-.12.22-.12.2-.08.1-.07.1-.08.1-.1.1-.1.1-.1.1-.1.1-.24.16-.12.07-.13.07h-3.2l-.34-.14-.1.14-.16-.1-.2-.1-.32-.2-.3-.22-.15-.12-.14-.12-.1-.15-.13-.13-.13-.14-.24-.3-.06-.1-.06-.08-.05-.08-.06-.1-.52-.8.06.16v.16l.06.16.08.15.06.13.06.12.07.13.16.24.08.1.1.12.1.1.1.12.1.1.1.1.1.1.33.3.1.08.1.07.45.3h.1l.1.06h.36l.2.07.2.08.2.07.2.05h2.72l.14-.05.13-.06.12-.06.13-.07.12-.07.12-.1h.14l.12.01.07-.06h.06l.12-.12.1-.12.2-.26.1-.13V47.2l-.07-.12.2-.2-.08-.1-.07-.1v-.12l-.06-.06v-.06h-.05l-.07-.05h-1.76v.5h.08v-.18h.3v.86h-.05l-.08.05h-1.46l-.06-.05-.12-.12-.06-.07v-3h2.22l.24.06.22.08.2.1.2.12.18.14.16.15.15.17.14.2.1.2.1.2.1.22.07.22.06.23v1.74l.6.7-.07.25-.1.24-.1.24-.12.23-.13.23-.15.2-.16.2-.17.2-.2.18-.2.16-.26.2-.27.16-.3.14-.3.13-.3.1-.3.1-.32.06h-1.28l-.3-.01h-.36l-.33-.07-.3-.12-.32-.1-.3-.12-.3-.15-.3-.16-.3-.18-.27-.2-.22-.22-.24-.23-.23-.25-.2-.28-.2-.3-.17-.3-.2-.32-.13-.34-.1-.36-.08-.37-.05-.4v-.9h-.5v1.3l-.05.06v.07h-.05v.05H49.9l-.1-.05-.1-.06-.1-.08h-.22v.52h-2.45v2.87l-.05.13v.24l-.05.12-.7 1.2-.06.12-.06.1-.07.1-.07.12-.08.1-.08.1-.18.2-.1.08-.1.1-.1.1-.1.07-.12.08-.12.06h-.13l-.22.08.43-.23.1-.06.16-.12.08-.07.14-.14.07-.08.06-.07.07-.08.06-.08.05-.08.06-.08.14-.22.06-.12v-.12l.05-.12.1-.05v-.7l-.05.17v.16l-.06.17-.07.15-.07.16-.08.15-.1.15-.08.15-.06.07-.05.07v.07l-.06.07v.07l-.06.06-.06.07-.07.06-.07.08-.17.1-.1.06-.08.06-.27.14v-.1l.3-.23.12-.1.1-.1.1-.12.1-.1.1-.12.08-.13.07-.12.07-.14.06-.13.06-.14.05-.14v-.27l-.05.13v.13l-.05.13-.07.12-.06.12-.08.13-.07.1-.08.12-.18.22-.1.1-.22.2-.15.1v-.14l.08-.1.16-.16.2-.24.06-.08-.07-.2v-.13l.05-.14v-.13l-.1.12-.1.12-.1.12-.1.13-.23.23-.12.13-.13.12v-.06l-.05-.06-.06-.06-.06-.05h-.97l-.04-.34h-.1v.42l-.9.58h-1v.34h-.1l-.2.06-.18.07-.17.08-.18.08-.15.1-.17.1-.15.1-.28.24-.13.13-.13.14-.12.14-.22.3-.1.16-.18.34-.08.16-.07.18-.07.17-.06.18v.18l-.05.18v2.54l.05.16v.15l.06.15.07.14.07.15.07.14.08.14.27.4.1.12-.42.44-.1.1-.08.12-.08.1-.14.24-.06.12-.06.13-.05.12v.6l.06-.14.07-.14.06-.13.07-.13.08-.14.07-.12.1-.13.08-.12.7-.78.2.2.14.12.16.12-.48.5-.1.14-.1.13-.1.15-.07.14v1.46l.06-.2v-.18l.07-.2.06-.18.16-.36.18-.34v-.36l.05-.06v-.06l.1-.13.12-.12.13-.12.14-.12.28.17.18.1-.5.52-.1.14-.1.14-.16.3v1.22l.12-.36.14-.36.08-.17.1-.17.1-.16.18-.26.1-.13.1-.12-.36-.1.1-.13.13-.12.12-.13.33.12h.07l-.63.74-.1.14-.08.15-.07.14-.07.16-.06.15-.05.16v.72l.06-.2.07-.2-.04-.12.07-.18.08-.18.18-.34.05-.08v-.22l.05-.07v-.13l.06-.07.1-.13.1-.12.12-.1.13-.12h.2l-.1.1-.24.28-.1.14-.1.15-.1.14-.1.16-.1.15-.07.16-.12.3v.9h-2.26l-.1-.05-.1-.07-.12-.06-.1-.06-.1-.07-.1-.07-.1-.07-.1-.08-.03-.55-.13-.1-.12-.1-.1-.1-.22-.22-.1-.1-.1-.12-.1-.1-.13-.12-.1-.12-.06-.16-.08-.13-.07-.12-.08-.14-.07-.13-.12-.26-.06-.14v-.28l-.06-.14v-.58l-.3-.08v-.13 1.42l.05.12v.12l.12.24.06.1.07.12.06.1.08.1.14.22.08.1.08.1.1.1.08.1.1.1.3.3.1.1.1.08.1.1.1.08.1.07.1.07.1.06.1.07.1.06.1.06.1.05.12.07.12.06.13.06.12.06h3.63l.08-.05h.12H41l.45-.23.4-.15h.7l.42.4v.2l-.1.07h-.1l-.1.06h-.3l-.23.42h-.08.88l.07-.07v-.26l-.14-.2h.06v.54l-.05.07-.06.05-.06.06.38-.2H38.4l-.12-.05h-.13l-.1.05h-.24l-.48-.28-.1-.08-.12-.08-.1-.1-.1-.1-.1-.1-.1-.1.1.12.12.1.1.12.24.2.13.1.12.1.4.24.13.07.14.06.14.07.14.06h.15l.14.06h4.66l.06-.06.27-.5v.45l-.05.05-.6.34h-3.73l-.17-.02h-.2l-.2-.06-.38-.14-.23-.13-.36-.18-.17-.1-.14-.1-.17-.1-.32-.24-.15-.12-.15-.13-.14-.12-.14-.14-.14-.15-.12-.14-.13-.15-.1-.15-.12-.16-.22-.32-.1-.17-.1-.18-.1-.17-.14-.2v-.2l-.07-.2-.07-.2-.06-.2v-.2l-.05-.2v-2.93l.05-.2v-.2l.06-.2.06-.2.06-.2.02-.24.08-.2.08-.2.27-.57v-.3h-1.8l-.1-.06-.18-.14h-.35v.3l.1.18.08.17.07.18.07.16.06.17v.32l.05.16v2.12l-.05.1-.06.1-.07.08-.06.1-.15.15-.08.07-.2.14-.22.12-.12.05h-3l-.13-.06h-.13l-.27-.1-.24-.14-.08-.07-.07-.08-.08-.07-.06-.1-.06-.08-.07-.1V57.7l.06-.16.06-.17.07-.16.08-.18.07-.17.1-.18v-.32h-.32l-.18.14-.08.06h-1.98v.3l.1.2.18.38.08.2.2.6.06.2.06.2v3.54l-.05.2-.06.2-.07.2-.07.2-.08.2-.1.2-.1.17-.1.18-.1.17-.33.48-.12.15-.26.3-.13.14-.15.14-.14.12-.15.14-.16.12-.15.1-.17.12-.16.1-.17.1-.17.1-.18.1-.2.1-.18.08-.18.07-.2.07-.2.06h-.2l-.2.05h-1.35z" fill="#e3bf5e"/><path d="M30.93 62.15h-1.7v-.36h3.65v.55l-.06.1h-1.66zm0 .67h-1.36v-.12h3v.1h-1.25z" fill="#b89b59"/><g fill="#111417"><path d="M12.16 72.4a1.39 1.39 0 0 0 0-.32.24.24 0 0 0-.11-.24c-.06 0-.37-.1-.92-.2l-1-.2H10v1.87l.14-.16a.26.26 0 0 1 .2-.08l.27.06.4.07.38.06.28.06c.1 0 .33-.3.33-.3l-.1.25-.14.33-.1.23c0 .1-.1.2-.14.33l-.35-.06a4.9 4.9 0 0 0-.5-.1 5.1 5.1 0 0 0-.62-.14v.17a1.28 1.28 0 0 1 0 .18 1.06 1.06 0 0 1-.11.5 7.26 7.26 0 0 1-.85.76l-.62.5-.36.28a1.36 1.36 0 0 1-.59-.07l-.52-.1.17-.2.2-.2a1.77 1.77 0 0 0 .19-.23c0-.07.1-.16.13-.2a1.1 1.1 0 0 1 .27 0h.43a1 1 0 0 0 .49 0c.08 0 .14-.63.14-.63v.3c0 .01 0-.33 0-1V71.7a1.62 1.62 0 0 1 0-.33c0-.07.24-.1.24-.1a2.45 2.45 0 0 0-.55-.17 2.55 2.55 0 0 0-.56 0s-.1.1-.23.27-.05.08-.07.13l-.07.16.7-1.5 4 .8-.32 1.43m1.16.01a1.88 1.88 0 0 1-.49.43 1.39 1.39 0 0 0 .23-.61.89.89 0 0 0-.12-.47.13.13 0 0 0 0-.07l.57-.28a1.65 1.65 0 0 1 0 .34 1.35 1.35 0 0 1-.18.67m.25 4.64c-.25 0-.7-.65-.7-1.28v-.13a1.09 1.09 0 0 0 0-.18v-1.6c0-.13-.07-.2-.23-.24a.22.22 0 0 0-.16 0h-.05l.75-.6a.6.6 0 0 1 .4.32 1.52 1.52 0 0 1 .06.51v2.1a.59.59 0 0 0 .09.32.32.32 0 0 0 .24.17c.1 0 .18-.12.18-.12s-.46.6-.63.62m3.23-2.34c0-.06-.05-.13-.08-.24s-.08-.34-.12-.36c-.23-.14-1.07.54-1.07 1.4a1.7 1.7 0 0 0 .13.69 1.51 1.51 0 0 0 .46.54 1.16 1.16 0 0 0 .5.29c.18 0 .28-.3.28-1a5.93 5.93 0 0 0-.1-1.33m.8 2a3.06 3.06 0 0 1-.87.51 3.15 3.15 0 0 1-.77.31 2.3 2.3 0 0 1-1-.83 2 2 0 0 1-.38-1.2 1.67 1.67 0 0 1 .56-1.4 4 4 0 0 1 1.42-.21 2.32 2.32 0 0 0-1.37-1.14.94.94 0 0 0-.33 0 1.35 1.35 0 0 0-.28.19l.85-1h.05a2.29 2.29 0 0 1 1.25.76 3.69 3.69 0 0 1 .8 1.26 4.93 4.93 0 0 1 .32 1.75 1.58 1.58 0 0 1-.26 1m2.7-.93a1.6 1.6 0 0 0-.36-.67c-.24-.32-.46-.5-.55-.5s-.32.45-.32 1.12a1.45 1.45 0 0 0 0 .39l1.2-.33zm-1.1.6c0 .1.1.26.3.5a2 2 0 0 0 1.31.65.81.81 0 0 0 .38-.12l-.44.35a3.84 3.84 0 0 1-.52.33H20a1.91 1.91 0 0 1-1.38-.8 2.52 2.52 0 0 1-.46-1.54 1.74 1.74 0 0 1 .26-.92c.06-.1.33-.23.8-.38a2.93 2.93 0 0 1 .94-.2q.3 0 .75.7a2 2 0 0 1 .4.85l-2.14.6"/><path d="M24.74 78.5s-.1-.06-.2-.18-.24-.3-.24-.38v-1.76c0-.1-.1-.22-.26-.4a2.27 2.27 0 0 0-.4-.34.27.27 0 0 0-.16-.08c0 .06-.1.13-.15.22l-.2.34a1.76 1.76 0 0 0-.26.57v1.23l-.35.24-.48.34v-3.06a.34.34 0 0 0-.1-.23l-.2-.14h-.12l-.1.07a.3.3 0 0 0-.08.08.2.2 0 0 0 0 .09 3.2 3.2 0 0 1 .37-.41h.06a1.58 1.58 0 0 1 .45-.36.56.56 0 0 1 .29.13c.23.15.34.3.34.44v1a2.72 2.72 0 0 1 .45-.8c.3-.44.5-.65.56-.65a1.26 1.26 0 0 1 .55.29 2.59 2.59 0 0 1 .52.45 1 1 0 0 1 .16.67v1.8a.22.22 0 0 0 .23.25.2.2 0 0 0 .18-.1 3 3 0 0 0-.78.68m2.88-3.1l-.5-.08v2a.83.83 0 0 0 .15.42.42.42 0 0 0 .34.23c.12 0 .28-.18.28-.18a3.92 3.92 0 0 1-.35.45v.06l-.33.33-.34-.25-.14-.1a.72.72 0 0 1-.32-.5V75.2l-.67-.12a2.54 2.54 0 0 0 1.36-1.85v1.36l.5.07c.25 0 .42 0 .48-.14v-.06l-.52 1m1.32-1.6a2.45 2.45 0 0 1-.5.5 1.55 1.55 0 0 0 .24-.64.8.8 0 0 0-.13-.45.09.09 0 0 0 0-.06l.6-.35a1.55 1.55 0 0 1 0 .33 1.49 1.49 0 0 1-.18.7m.25 4.6c-.25 0-.7-.56-.7-1.18v-.13a1.09 1.09 0 0 0 0-.18v-.15a.82.82 0 0 0 0-.14v-1.25c0-.24-.07-.2-.24-.2a.37.37 0 0 0-.16.05.31.31 0 0 1 0 .06l.75-.7a.45.45 0 0 1 .4.26 1.37 1.37 0 0 1 .06.5v2.1a.53.53 0 0 0 .09.3.29.29 0 0 0 .25.14c.1 0 .18-.15.18-.15s-.45.68-.64.72m2.97-2.82a3.35 3.35 0 0 1-.45-.07l-.42-.06H31c-.2 0-.3 0-.3.07a3.5 3.5 0 0 0 .39 1.07c.27.57.47.87.62.87s.25-.26.47-.77a3.92 3.92 0 0 0 .31-.94.57.57 0 0 1 0-.13 2.06 2.06 0 0 1-.28 0m1 2.88a.45.45 0 0 1-.33-.2 1.58 1.58 0 0 1-.33-.88 3.36 3.36 0 0 1 0-.52v-.45l-.17.46c-.08.2-.2.4-.33.68-.3.58-.52.86-.65.86s-.55-.3-.84-.88a3.1 3.1 0 0 1-.4-1.25 2.67 2.67 0 0 1 .53-1 3.32 3.32 0 0 1 .74-.77h.17c.13 0 .33.06.6.08l.5.07.7.1v2.25a2.06 2.06 0 0 0 .08.44c.07.2.15.3.25.3s.15-.14.15-.14a6.58 6.58 0 0 1-.66.79m10.16-6.72l-.32.43-.3.4a.76.76 0 0 1-.4.28l-1.25.13v3a.38.38 0 0 1 0 .13 3.79 3.79 0 0 1-.31.91l-.2.25-.45.56V78a.46.46 0 0 0-.07.07 9.15 9.15 0 0 1-.86.87c-.07 0-.26-.12-.57-.37s-.47-.4-.47-.46a13.37 13.37 0 0 1 .49-1.35c.14 0 1.05 1.32 1.26 1.3s.3-.37.3-1.06v-3.4l.5-.46h-1.08c-.9.07-1.34.18-1.34.33s.18.26.53.44a1.83 1.83 0 0 0 .78.25L39 75.32a1.57 1.57 0 0 1-.79-.37q-.57-.4-.57-.6a3.73 3.73 0 0 1 .73-1.12l.34-.46.2-.24.17-.17a28.55 28.55 0 0 1 3.5-.46l.58-.07.25-.05.2-.2a1.33 1.33 0 0 1-.13.21m1 3.34a.34.34 0 0 1 0-.09.15.15 0 0 0 0-.09c0-.1-.08-.18-.22-.27a.64.64 0 0 0-.37-.12c-.08 0-.17.13-.26.35a1.24 1.24 0 0 0-.11.46v2c-.07 0-.2.14-.38.28a1.4 1.4 0 0 1-.38.25v-3.03a.5.5 0 0 0-.08-.29h-.13a.53.53 0 0 0-.19.09.26.26 0 0 0-.11.17l.62-.9a.84.84 0 0 1 .48.17q.1.06.12.45v.25a8.17 8.17 0 0 1 .78-1 .77.77 0 0 1 .37.14 1.31 1.31 0 0 1 .35.27l-.5.9m3.84 1.98a1 1 0 0 1-.39-.26c-.17-.16-.26-.28-.26-.38v-1a4 4 0 0 1-.35 1c-.26.57-.45.86-.57.88a.71.71 0 0 1-.48-.2 1.21 1.21 0 0 1-.57-.84v-1.76a.59.59 0 0 0 0-.24.31.31 0 0 0-.17-.1.47.47 0 0 0-.35.2l.86-.9a.77.77 0 0 1 .37.12.33.33 0 0 1 .16.29v1.94a.56.56 0 0 0 .15.35.33.33 0 0 0 .31.14.19.19 0 0 0 .16-.14c0-.1.1-.23.16-.34a3.73 3.73 0 0 1 .16-.35 1.93 1.93 0 0 0 .19-.72v-.75a.26.26 0 0 0-.07-.18.2.2 0 0 0-.18-.06.44.44 0 0 0-.26.14l.75-.74.23.07.23.08c.1.05.15.23.15.5v2.07a.43.43 0 0 0 .08.25c.06.1.12.13.2.12a.4.4 0 0 0 .19-.15s-.5.9-.68.95m3.54-1.45c-.2.54-.38.83-.5.87l-.2.06a3.07 3.07 0 0 1-1.09 0 2.67 2.67 0 0 1-1-.35l.6-1a.22.22 0 0 0 0 .09c0 .15.24.27.7.34a2.91 2.91 0 0 0 1 0q.26 0 .3-.2c0-.16-.3-.3-.84-.4l-.54-.1-.6-.08c-.26 0-.4-.18-.4-.4a2.57 2.57 0 0 1 .3-.71 6.1 6.1 0 0 1 .42-.73.81.81 0 0 1 .5-.31 4.29 4.29 0 0 1 1.64.14l-.68 1.1a.39.39 0 0 0 0-.14c0-.14-.2-.22-.6-.24a3.18 3.18 0 0 0-.79 0 .38.38 0 0 0-.16.09.22.22 0 0 0-.09.16c0 .12.16.2.48.23l.58.07h.37a2.35 2.35 0 0 1 .87.31v.07a4 4 0 0 1-.29 1m2.42-2.75h-.5v1.95a.61.61 0 0 0 .15.38.32.32 0 0 0 .33.15c.12 0 .28-.25.28-.25a5.75 5.75 0 0 1-.35.54v.07l-.16.2-.07.1s-.08.13-.1.14-.25-.12-.33-.16h-.2a.5.5 0 0 1-.3-.41v-2.6l-.67.07a3.56 3.56 0 0 0 1.42-2.23v1.35l.5-.06a.67.67 0 0 0 .47-.27.28.28 0 0 1 0-.08l-.5 1.1"/></g><path d="M33.85 31.6h-1.18l-.15-.05h-.3l-.15-.05h-.15l-.14-.06-.3-.1-.33-.54-.3-.1-.3-.12-1.7-.6.1-.1.5-.42.24-.2.25-.22.2-.15.23-.22.48-.44.56-.56.1-.12.12-.1.1-.1.1-.12.1-.1.2-.24.1-.1.1-.1.1-.12.1-.12h.05l.4-.12.2-.05h.2l.2-.06h3.22l.2.05h.18l.2.07.18.07.18.08.2.08.18.1.2.1.18.1.18.12.23.16.22.15.2.17.18.16.15.17.13.18.12.17.1.17.08.18.05.18v1.05l-.07.18-.08.16-.1.17-.1.16-.14.15-.15.16-.17.14-.18.14-.2.14-.2.12-.24.13-.24.1-.26.1-.27.1-.3.08-.3.08H34zm-4.1 7.85l.35-.1.33-.12.3-.1.3-.12.52-.22.24-.1.44-.2.2-.1.2-.1.18-.08.36-.14h1.7l.23.07.33.1h.16l.14.08.24.16.1.08.07.07.08.1.06.1.06.1.05.1v1.15l-.06.13-.06.12-.07.12-.18.24-.1.12-.1.12-.24.22-.13.1-.14.1-.2.14-.1.06-.1.07-.1.06-.1.06-.1.06h-.1l-.1.05-.1.06-.12.05h-.35l-.1.05h-4.2l-.2-.05h-.2l-.2-.06h-.2l-.18-.06-.18-.07-.2.24-.34-.16-.17-.1-.14-.05-.16-.1-.15-.1-.15-.1-.14-.1-.13-.1-.14-.12-.24-.26-.1-.14-.13-.18-.1-.14-.07-.1-.06-.1.6-.08.56-.08.53-.08.5-.1.46-.1.44-.1.4-.1zm-6.6-15.7h.57l-.43.2h-.1v-.2zm19.54 5.4v-.37l-.1-.38-.13-.37-.17-.37-.2-.36-.25-.37-.3-.36-.38-.35-.4-.34-.44-.33-.5-.32-.18-.1-.36-.18-.12-.08-.18-.08-.18-.07-.17-.06-.36-.12-.17-.05h-3.7l-.46.1.1-.13.14-.28.06-.14-.08-.18.06-.14v-.14l.06-.14V20.5l-.05-.13v-.14l-.06-.13-.01-.07-.08-.17-.12-.17-.13-.18-.14-.16-.14-.15-.16-.15-.15-.2-.16-.12-.17-.12-.18-.1-.17-.1-.18-.1-.22-.04-.2-.07-.18-.07-.2-.06-.2-.05h-2.23l-.16.05-.16.06-.16.07-.18.08-.2.08-.18.06h-2.5l-.1.06h-.12l-.24.16-.12.1-.13.1-.1.1-.08.1h-.05l-.12.13-.07.1-.16.24-.18.24v.13l-.1.12-.1.13-.3.72-.1.12-.08.1-.2.2-.1.08-.13.13-.12.1h-.3v1.06h.2v.2l.06.06h-2.28V23l.1-.07.1-.06h.37v1.94h2.02l.4-.2h.1l-.1-.62h1.8l.08-.06.08-.05h.07l.07-.06.06-.06h.05v-.05h1.88v-1.84l.08-.05.18-.1.08-.05h.08l.18-.1h1.6l.08.06.08.07.12.16.06.1v1.8l-.05.13-.06.15 1-.16v.2l-.07.1v.1l-.07.1-.06.1-.14.2-.07.1-.06.1-.08.1-.07.1-.07.1-.08.1-.08.08-.66.68-.7.24-.2.07h-.23l-.24.07-.46.12-.24.07-.23.06-.25.06h-.73l-.24.05h-5.28l-.3-.06h-.3l.2.1h.08l.1.06.2.1.18.1h.06l.12.06.2.1.18.07h.18l.17.07h3.85l1.08-.1-.8.53-.13.1-.14.1-.13.08-.14.87-.14.1-.14.1-.28.18-.53.06-.5.1-.48.1-.47.15-.44.18-.4.2-.4.22-.36.25-.34.27-.32.3-.3.3-.26.32-.24.34-.2.35-.16.3v.05l-.15.38v.13l-.08.25-.06.25-.05.12-.05.4v.8l.05.4v.4l.12.4.15.4.18.4.12.2.1.18.24.34.3.36.34.35.37.34.42.32.2.45.17.35v.16l.18.34.22.4.24.38.24.36.25.36.25.33.26.32.26.3.27.3.28.27.28.26.28.24.3.23.3.2.3.2.4.27.3.18.3.15.3.15.3.13.3.12.3.1.32.1.3.1.64.12h3.62l.23-.05.23-.07.24-.06.2-.06.22-.08.23-.07.22-.08.22-.1.22-.1.22-.1.2-.1.22-.1.2-.1.2-.1.2-.12.2-.12.4-.26.2-.13.38-.28.18-.15.18-.14.28-.27.25-.28.25-.3.22-.28.2-.3.2-.3.15-.3.14-.3.13-.3.1-.3.08-.3.06-.3.05-.3V38.6l-.05-.28.02-.46-.08-.28-.1-.26-.12-.25-.13-.2-.17-.27-.17-.22-.2-.22-.2-.2-.2-.18-.25-.2-.15-.1-.1-.07-.27-.15-.27-.13-.4-.16-.38-.1-.4-.1-.4-.07H33.4l-.4.08-.4.1-.4.1-.4.12-.4.13-.4.13-1.2.42-.4.15h-.16l-.23.08-.4.14-.76.24-.37.1-.37.1-.37.08-.35.07-.35.05h-1l-.06.05v-2.54l.06-.14.06-.12.06-.13.02-.07.07-.13.16-.26.1-.13.1-.13.1-.14.1-.13.1-.13.2-.22 2.13.48.5.13 1.02.28.35.1.17.05.26.07.27.06.26.06.27.07.54.12.27.05.28.06h.28l.27.05h4.68l.45-.06.44-.1.42-.13.4-.14.4-.17.37-.2.35-.2.33-.24.32-.25.3-.28.26-.3.24-.3.22-.3.18-.33.16-.34.12-.34.1-.36v-.72z" fill="#000f20"/><g fill="#fff"><path d="M39.66 38.7l-.04-.3-.02-.14-.03-.15-.12-.42-.05-.14-.05-.13-.06-.14-.14-.26-.07-.12-.16-.24-.1-.1-.1-.12-.1-.1-.2-.22-.08-.07-.04-.03h-.02l-.1-.08-.12-.08-.13-.1-.13-.08-.08-.05-.06-.03-.13-.08-.15-.07-.1-.05-.04-.02-.37-.15-.37-.12-.37-.1-.37-.06-.38-.04-.37-.01h-.38l-.37.03-.4.04-.38.07-.1.02-.3.06-.38.1-.38.1-.4.12-.76.24-.4.14-.37.13-.38.14-.4.14-.37.14-.16.06h0l-.22.08-1.1.36-.37.1-.36.1-.36.08-.36.06-.35.05-.35.02-.34.01-.13-.01h-.04l-.2-.01-.5-.03-.14-.03-.15-.03-.28-.08-.13-.04-.13-.05-.12-.05-.12-.07-.12-.06-.1-.06-.1-.07-.3-.24-.1-.08-.04-.06-.04-.03-.04-.05-.05-.05-.08-.1-.07-.1-.06-.1-.07-.1-.06-.1-.05-.1v-.02l-.05-.1-.03-.06-.06-.18-.02-.07-.02-.05-.01-.07-.02-.05-.02-.13-.03-.13-.01-.13-.01-.14-.01-.1v-.3l.01-.13.01-.14.04-.28.03-.14.04-.14L22 33l.04-.15.05-.15.06-.14.05-.15.07-.14.14-.3.08-.14.08-.15.1-.14.1-.15.1-.14.1-.16.1-.14.12-.14.12-.15.26-.28.15-.14.14-.13.15-.14.16-.14.4-.3h-.01l-.16.02-.1.01-.1.02-.08.01h-.1l-.1.02-.24.06-.1.02-.32.08-.08.03-.08.02-.07.03-.08.03h-.08l-.07.03-.08.03-.07.03-.08.03-.14.06-.07.04-.08.03-.07.04-.06.03-.07.03-.2.12-.53.37h.2l.27.01-.06.04-.07.02-.06.03-.07.03-.06.04-.06.03-.06.04-.06.03-.06.04-.07.04-.06.04-.05.04-.24.16h.01v.01l.55-.08-.07.03-.18.08-.08.05-.07.04-.08.04-.08.05-.07.04-.06.05-.07.05-.06.05-.06.04-.17.17-.03.04h0l.1-.05.08-.03.08-.04.07-.03.07-.02.05-.02.06-.02h.05.05l.04-.01h.08l.03.01h.03.06l-.08.03-.07.03-.07.04-.14.06-.06.03-.07.03-.06.04-.07.03-.06.04-.05.03-.07.04-.05.04-.05.03-.06.04-.1.08-.04.04-.1.08-.08.08-.03.05-.04.04-.03.04v.01l-.03.04-.04.04-.02.05-.03.05-.02.05-.03.05-.01.05v-.01.01l.12-.1.06-.04.06-.05.1-.08.06-.03.05-.04.1-.06.06-.03.05-.03h.04l.05-.03.04-.02.05-.02.04-.01h.05l.04-.02h.05l.04-.02.08-.02h.03l.04-.01h.08l.04-.01H21l.04.01h.03l.03.01-.16.08-.1.04-.07.04-.08.05-.07.04-.08.05-.07.04-.07.05-.06.05-.07.04-.24.2-.16.16-.05.06-.04.05-.05.05-.08.12-.04.05-.03.07-.03.05-.04.06-.02.06-.03.07-.02.05v.01l-.02.06-.02.07.04-.05.03-.05.02-.05.04-.05.03-.05.04-.04.03-.04.04-.05.06-.08.1-.1.04-.02.03-.04.08-.06h.04l.03-.03.12-.06.04-.03.04-.01.04-.02.04-.01.04-.02h.04.05l.08-.02h.04l-.2.16-.04.04-.05.04-.04.05-.04.04-.04.05-.12.12-.04.05-.03.04-.04.05-.03.04-.02.04-.03.04-.03.05-.02.04-.03.05-.02.04-.02.05-.02.04-.02.05-.01.04v.05.01l-.01.03v.02l-.01.02-.01.05v.05l-.01.05v-.01.01l.05-.05.05-.03.04-.04.05-.04.04-.04.1-.06.04-.03.05-.03.05-.02.04-.03.05-.02.04-.02.05-.02.05-.01.04-.01-.08.1-.07.1-.2.33-.07.1-.1.2-.03.05-.06.15-.02.04-.02.05-.02.04v.05.04l-.01.05-.02.08v.01l-.01.03v.13l.1-.1.03-.05.07-.1.07-.12.03-.06.04-.05.04-.06.04-.05.01-.03.02-.02V35l.04-.04.02-.01.01-.01.02-.01.02.01v.02l.01.01.01.04v.07l-.01.04-.03.15-.02.12-.04.13-.03.13-.04.14-.03.14-.01.06-.01.02-.01.07v.07l-.01.07v.03l-.01.04-.02.14v.28l.01.03v.01l.04-.1.04-.1.03-.1.04-.07.03-.07.04-.06.1-.15.07-.07.02-.01.01-.01h.01l.02-.01v-.01h.05l-.06.26-.02.14-.02.12v.06l-.01.06-.01.05v.38l.02.08v.04l.01.02v.01l.03.06.02.03.01.02.06.06v.01l.03.01.01-.08v-.04l.02-.08.02-.1v-.07-.03l.01-.03.01-.04.02-.03.01-.04.01-.03.02-.04v-.03l.02-.03.01.01.02.03.01.02.01.04v.01l.01.02.02.08v.05.07l.01.04v.03l.02.1.01.1v.01l.01.05.01.08.01.06.01.01v.01.12.04l.01.04.03.1v.03l.04.14v.01.04l.01.04.01.03.03.06.02.03v.02l.01.01v.04l.02.03.01.02.06.06v.02-.15l.01-.07v-.07l.01-.07v-.07l.01-.07v-.06l.02-.07.01-.06.01-.07.04-.12.01-.05.02-.06.02-.05.02.01v.01.01.02l.02.06.02.08v.04l.02.1.01.08v.03l.02.1v.1.02l.01.03v.07l.02.05.01.05h0l.02.1.01.01.01.04v.05l.02.03v.02l.04.06.03.04.05.05.04.01.04.02-.02-.1v-.12-.03-.04-.03-.1l.01-.03v-.03l.01-.03.02-.04v-.03l.01-.01.01-.03.01-.02.03-.03.02-.04.02-.03.03-.03.03-.02.03-.03.02.12.01.08.01.04.02.06v.02.04l.01.05.02.05.01.04.01.02.02.06.04.1.01.05.02.03.02.04v.03l.02.03h.01l.03.04.01.05.03.05h.01l.01.03.03.04h.01l.02.03v.01l.03.04.03.03.03.04.03.03.04.03.03.02v.01l.04.03.04.02.03.03.04.02v-.01.01l-.01-.05-.01-.02-.02-.07-.01-.05-.01-.02v-.01l-.01-.05-.01-.04v-.02V39v-.03l-.01-.05v-.06l-.02-.1v-.24l.02-.06v-.03l.01-.03v-.03l.01-.03.03-.06.02-.02.01-.02.07-.07.02-.01.08.48.01.05.01.06.02.05v.04.02l.02.05v.01l.01.04.02.04.01.05.03.04v.05l.04.08.03.04.01.02.01.01h.01l.02.02.02.03.03.02.03.03.1.06.04.02h.03.04 0v-.02l-.01-.03-.02-.07-.01-.02-.01-.05-.02-.05v-.02l-.01-.04v-.05l-.01-.06-.01-.04-.01-.06-.01-.04v-.3l.02-.06v-.03l.02-.06h.02l.01-.02.02-.02.01-.02.06-.06.03-.01.01-.02.03-.01.01.08v.07.06.02l.02.07v.01l.01.06.02.07.01.06h.01v.02l.02.05.02.06.02.05.02.06.03.05v.01.05h.01l.02.05.02.04.01.01.02.04.04.04.03.04.02.03.08.08.12.1.04.02.05.01.04.03.2.04h.05l-.04-.06v-.01l-.05-.06-.04-.07-.03-.05-.04-.07-.02-.03-.01-.03-.01-.02-.02-.03-.03-.05-.02-.06-.06-.15-.01-.04-.01-.05-.01-.04v-.05l-.01-.04v-.15l.01-.03v-.03l.01-.03.02-.03v-.03-.02l.02-.03.02-.02.02-.03.03-.02.02-.02.04.16v.03l.02.05.02.07.02.08.02.05h0l.02.08.03.06v.04l.02.03.02.05.01.01.02.05.03.05.03.06.03.05.03.04v.01l.03.04.04.04.03.04.04.03.03.04.04.03.04.02.04.03h.04l.04.02.04.01.05.02h.23l-.04-.06h0l-.02-.01-.04-.05-.04-.06-.01-.02-.03-.03-.03-.06-.04-.05-.02-.05-.03-.04-.02-.05-.02-.04-.01-.01-.02-.04v-.01-.02V39l-.01-.03-.02-.04v-.03l-.01-.04v-.15h.01v-.03l.01-.02.01-.03H25v-.03l.04-.08.03.06.02.07.03.06.02.05.01.01v.01l.02.05.03.05.02.06.03.06.03.05.01.02v.03l.03.04.03.05.06.08.01.01.02.04.03.03.03.04.1.1.03.02.04.03.06.04.04.02.03.01.03.02.04.01h.03.04.03.04 0l-.06-.07-.06-.08-.02-.03-.02-.04-.03-.03-.01-.03v-.01h0l-.04-.06-.01-.02v-.01l-.02-.04-.02-.03v-.03l-.02-.04v-.02l-.01-.01V39h-.01v-.01l-.03-.1v-.23l.02-.06.01-.02.08.1.04.05.04.06.1.1h0l.08.1.06.08.01.01h.01l.07.08.03.04.04.03.03.03.03.04.04.03.03.02.03.03.12.08v.01l.03.02h.03l.02.01h.02l.03.01h.04l.02-.01-.03-.05-.02-.02-.02-.03-.02-.05-.04-.07-.03-.04-.02-.03-.02-.05v-.01l-.03-.07-.04-.1-.02-.1v-.02-.1-.02-.03-.01l.01-.02h.01l.05.06.02.03.04.04.03.05.04.03.01.02.04.05.02.01V39l.1.1.05.04.04.04h.01l.01.02.04.03.06.05.05.03.06.04.02.01.03.01.03.02.06.02h.02l-.02-.06-.02-.05-.02-.06-.04-.1-.03-.12-.01-.03v-.04l-.01-.03v-.07l.01-.02v-.02l.06.07.06.06.06.05.06.06.03.01.04.04.06.04v.02h.01l.03.02.02.02h.01l.03.02.03.01.03.02.03.01.04.01.1.03h.12.03.03l.06-.02.03-.02-.03-.04h-.01 0l-.03-.03h-.01l-.03-.04-.01-.03-.04-.04-.03-.04V39l-.01-.02-.02-.03-.03-.06-.02-.02v-.04l-.04-.08-.01-.04-.04-.08h.03l.02.01h.02l.03.01.02.02.06.02.04.02.14.08.16.1.08.06.1.04.2.1.08.02h.03l.08.02h.04l.03-.01-.04-.03-.05-.04-.04-.03-.07-.07-.04-.03-.03-.03-.04-.06v-.01h-.01l-.02-.02-.02-.04-.02-.03-.01-.03-.01-.02-.02-.06h.06l.03.01.02.01h.02l.03.02h.03l.1.06.24.12.03.02.03.01.03.02.1.03h.03l.06.02h.06l.03-.01-.03-.03v-.03l-.02-.03-.01-.03h-.01l-.02-.03v-.02l-.01-.02v-.02l-.01-.02v-.1l.1.05.1.06h.05l.04.03.08.04.04.01h.04.04v.01h.1l.02-.01h.02.01l-.02-.02-.02-.03-.04-.04-.02-.03-.02-.04-.02-.02v-.01h-.01l-.01-.03v-.01-.02-.05l.04.03.05.01.05.03.05.01.04.03h.05.04l.15.03h.05l.04.01h.1l.05-.01h.04l-.04-.04-.03-.02-.02-.03-.02-.02-.01-.02h-.02v-.04l-.02-.02v-.02h-.01l-.01-.03v-.06l.04.03.04.02.15.06.04.01.05.02.05.01.06.01.05.01h.05l.05.01.06.01h.32l.06-.01h.05l.05-.01h.06l.05-.01.1-.02.1-.02.1-.02.1-.02.05-.02.15-.07.2-.08.17-.08.17-.07.16-.07.24-.1.07-.03.08-.02.08-.03.24-.06.07-.01.08-.02.24-.03h.08.08.17.08.1.1l.1.02.1.01.1.02.12.03-.02-.08-.01-.05-.01-.04v-.05-.03-.16-.01-.02l.02-.02h.05l.02.01.06.04.03.03.04.02.08.08.12-.23.2.32h0l.03-.05.02-.05.01-.06.02-.05.04-.24.04.06.03.04.02.04.04.06.03.04v.04l.02.04.01.03.02.04.01.04.03.08.02.08h.01l.03-.02.02-.03.03-.03.08-.12v-.04l.01-.03.02-.03.01-.04.02-.03.01-.04.01-.03v-.03-.04l.03.03.04.06.06.12.01.04.01.05.01.04v.05l.01.05v.05l-.01.06v.06l-.01.05-.01.06h.02l.01-.01h.01l.02-.01.06-.06.02-.03.01-.02v-.03l.01-.03.02-.04.01-.04.01-.03.03-.08v-.08l.02.02.01.03.02.03.01.03.03.12v.05.1l.04.24.02.14h.01v.01l.02-.03.02-.01.02-.02.01-.03.04-.06v-.03l.02-.04.01-.03.02-.04.02-.1.01-.04.02-.05.02-.1.02.04.01.05.04.1v.06.05l.01.06v.05l.01.06v.1l.01.05v.06l-.01.06v.1l.03-.01.03-.02.04-.04.03-.02.07-.07.12-.18.03-.05.01.02v.03.03.04.2.03.03.03l-.01.04v.03l-.02.06-.01.04-.01.03-.02.03-.03.07-.03.06-.03.07-.05.06-.04.07-.05.07v-.01.01l.06-.02.06-.03.06-.02.24-.12.05-.03-.05.08-.12.18-.14.18-.24.27v.01h.38l-.2.15-.04.06-.04.04v.01l-.01.01v.07h.01v.01h.01l.02.01.01.01h.01l.02.01h.01l-.06.06-.28.24-.14.1-.06.05-.28.17h0l-.05.07-.05.06-.05.07-.04.06-.06.07-.05.07-.06.06-.05.06-.07.06-.06.06-.07.06-.06.06-.08.06-.06.06-.07.05-.08.06-.2.14-.1.07-.22.12-.1.07-.22.12-.12.05-.1.06-.24.1-.12.04-.12.05-.13.04-.12.04-.13.04-.12.04-.26.06-.12.04-.13.02-.14.03-.12.02-.14.03-.13.02h-.13l-.13.02-.13.01-.28.02-.12.01-.17.01h-.5l-.17-.01-.32-.02-.34-.04-.16-.02-.16-.03-.16-.02-.16-.04-.16-.03-.16-.04-.16-.05-.15-.04-.16-.05-.3-.1-.14-.06-.15-.07-.15-.06-.28-.14-.4-.24-.13-.1-.12-.08-.12-.1-.12-.1-.2-.2-.12-.12h-.01l-.6-.3-.07-.04-.06-.03-.06-.04-.06-.02-.06-.03-.07-.02-.06-.03-.07-.02-.06-.01-.06-.02-.07-.01-.12-.02h-.06l-.07-.01h-.06-.06-.06l-.06.01h-.06l-.06.01-.05.01-.06.01-.06.02-.05.02h-.06l-.05.03-.05.02-.2.12h.01l.07-.01.08-.02.14-.02.07-.02h.07l.12-.02h.12l.05-.01h.1l.05.01h.1l.04.01h.04l.12.03.03.02.1.03.03.02h.02 0 .01l.08.08h.02H25h-.1-.15l-.14.02-.06.01-.07.01-.05.01-.06.01-.06.02h-.05l-.1.04-.04.01-.04.03-.08.04-.03.02-.1.1-.01.03-.02.03-.01.04-.02.03v.03.05l.07-.03.06-.03.07-.02.06-.03.07-.02.05-.02h.07l.05-.02.12-.02.1-.02.06-.01.05-.01h.33l.08.02.05.01h.03l.05.01.04.01.03.02h.08l.04.02.03.01-.32.08-.07.01-.08.03-.07.02-.06.01-.07.03-.07.02-.05.02-.06.03-.15.06-.05.03-.08.04-.04.03v.03l-.03.02-.05.05v.03l-.01.03-.01.02-.01.03v.06l.03.1h.01l.1-.08.05-.05.05-.04.15-.1.05-.04h.04l.05-.02.04-.03.04-.02.05-.02.04-.02.08-.02.05-.02h.03l.08-.02h.18l.03.01h.03l.03.01h.04l.03.02.03.01.02.01-.1.05-.2.12L25 42l-.05.03-.03.03-.05.03-.04.03-.03.03-.04.03-.12.12-.06.1-.02.04-.04.06v.03l-.01.03-.02.03v.13.04h.01l.1-.1.12-.1.12-.08.05-.04.06-.04.05-.04.05-.03.05-.04.15-.1.04-.02.05-.03.05-.02.04-.02h.05l.04-.01.04-.02.08-.02.04-.02h.07l.04-.01h.1l.03.01h.02l-.1.1-.22.24-.47.47-.13.1.03.01v.01h.04l.03-.01.02-.01h.04l.03-.01.04-.02.03-.01h.04l.03-.02.04-.02.08-.05.08-.04.16-.1.03-.01.04-.03.05-.01h.03l.04-.02.04-.01.03-.01.04-.01.03-.01h.1v.04l-.02.04-.01.03-.02.03-.01.03-.03.02-.04.07-.06.06-.12.14-.06.06-.06.07-.05.07-.08.12-.01.03-.02.03v.02h-.01v.02.02.01l.07-.06.06-.06.06-.05.07-.05.06-.04.07-.05.07-.04.06-.04.07-.04.06-.03.06-.04.07-.03.07-.02.06-.03.07-.02.06-.02-.01.03v.03l-.02.06-.02.04v.03l-.02.02-.02.04-.04.06-.03.03-.06.1-.06.06-.05.06-.05.07-.06.06-.04.07-.02.03-.03.04-.04.06-.02.04-.01.04-.02.03-.01.04v.01l.02-.01.03-.01.02-.01.03-.01.02-.02.03-.02.02-.03.03-.02.06-.05.05-.06.06-.06.06-.07.15-.15v-.03l.04-.03.03-.02.05-.05.04-.02h.03l.03-.01.03-.02h.02l.03-.01v.03.04.03.04l-.02.04-.01.04-.02.04-.01.04-.03.08-.12.24-.04.07-.03.08v.03l-.01.04-.01.03-.02.04-.01.03v.03l-.01.03-.01.04v.05l.01.02.01.03h.05l.04-.02.03-.02.02-.02.02-.03.05-.06.05-.07.1-.16.06-.07.15-.2.06-.06.04-.03.03-.02.03-.03.04-.02.03-.01.04-.01h.03l.01.02v.13l-.01.03v.04l-.02.03-.01.04-.04.06-.02.04-.04.07-.04.06-.05.07-.04.07-.02.03-.01.03v.03l-.02.06-.02.04v.1l.01.03v.01l.01.02h.03l.03-.03.03-.01.01-.02.03-.02.04-.06.05-.05.04-.06.1-.14.04-.07.05-.06.02-.03.03-.03.02-.03v-.02l.02-.03.03-.02.02-.02.08-.04h.02l-.16 1.05v-.02.02l.08-.16.05-.07.12-.2.16-.24.05-.05.03-.05.05-.05.04-.05.04-.04.04-.05v.03l.01.04v.3l-.02.07-.01.08-.01.1-.02.15-.03.15v.08.07.07.04.03l.02.01.02-.02.02-.01h.02l.01-.02v-.02l.05-.1.05-.08.12-.27.14-.28.03-.04.02-.04.03-.04.02-.03.02-.04.04-.04.03-.02.02.08v.24l-.02.1v.05l-.02.05-.01.06-.02.1-.03.1-.03.1-.02.1-.02.1v.04.22.02l.02.03.01.02h.03l.03-.02.03-.01.05-.05.02-.03.03-.03.02-.03.01-.03.02-.04.03-.04.01-.04.02-.04.04-.1.01-.05.07-.2.06-.2.06-.18.02-.04v-.04l.02-.03.01-.04.03.04.02.04v.04l.02.04.01.05v.05l.01.04v.25l-.01.1-.02.1v.1.1.05.1.04.02l.02.03.01.03.06.06.03.01.02-.02.03-.02h.02l.08-.12.02-.04v-.04l.02-.04.01-.05.02-.04.03-.1.02-.1.03-.1.03-.1.02-.08.03-.1.02-.03.01-.04.02-.03.03-.06v-.02l.02-.03h.02l.02.04.03.04v.04l.02.04.01.04v.05l.02.1v.15l-.01.05-.03.3-.01.08v.05.14.04.02l.01.01v.02l.05.05.03.01.02-.01.03-.02.05-.05.02-.03.02-.04.02-.03.01-.05.02-.04.04-.1.01-.05.02-.08v-.03l.06-.22.03-.1.02-.05.01-.06.02-.04v-.05l.02-.04.03-.04.04-.06.03-.03.02-.03h.04.03l.02.08.01.05.02.08v.05l.01.04v.04l.01.05v.3l-.01.1-.01.08-.01.1-.02.08-.04.18-.03.08-.03.1.03-.01.04-.03.06-.04.02-.03.03-.02.03-.04.04-.06v-.04l.03-.04.01-.03.02-.04.02-.05v-.04l.02-.05.01-.05.02-.04.01-.06v-.05l.02-.05v-.06l.02-.05v-.06-.12l.02-.12v-.12l.01-.13h.05l.06.03.03.02.06.06.01.02.01.03.02.02.02.03.02.08.01.03.01.04.02.1.01.04v.06l.01.06.01.05v.5l-.01.08-.01.1.03-.01.06-.03.06-.06.01-.03.02-.02.04-.06v-.03l.02-.04.01-.03.02-.04.01-.04.02-.05.01-.04v-.05l.02-.04.01-.06.01-.05.04-.24.04-.28.01-.15.02.01.03.01.03.02.02.02.03.02.06.06.04.06.01.02.02.03v.03l.02.04.02.06.01.04v.05l.01.03v.05l.01.04v.15l-.01.05v.06l-.01.06v.05l-.01.07-.01.06-.02.06v.07h.03l.03-.01h.03l.06-.02.03-.02h.02l.06-.04.06-.06.08-.12.04-.08.01-.03.01-.05.02-.04v-.05l.02-.05v-.05l.01-.06v-.05l.01-.06.01-.07v-.2l.01-.07h.03l.03.01.02.01.03.01h.02l.04.04h.02l.04.04.01.03v.02l.02.06.02.03.02.06.01.04v.04l.02.08v.43l-.02.12.03-.02.05-.05.03-.02.04-.06.05-.05.01-.03.04-.06.01-.04.02-.03.01-.03.01-.04.02-.03v-.04l.01-.03v-.04l.02-.08v-.04l.01-.04v-.05l.01-.04v-.23l-.01-.1.04.02.04.03.03.03.04.03v.02l.03.03.01.03h.01l.04.08v.01h.01l.03.1v.02l.01.04.01.03v.04l.01.03.01.04v.26h.01l.05-.05.05-.06.05-.07.08-.12.03-.04.01-.03.02-.03.04-.08.01-.03.02-.04.01-.03.01-.04.02-.04v-.04-.03l.02-.04v-.05l.02-.08v-.04l.01-.04v-.18l.06.03.05.05h.01V44h.02v.01.01h.01l.03.06.02.03v.02l.02.06v.02.03l.01.04.01.06.01.07v.07l.01.1v.18l.03-.02.02-.03h.03l.02-.02.02-.03.02-.02v-.03l.02-.02.04-.06h.01l.01-.03v-.03l.05-.15.01-.04.01-.03.01-.06v-.07V44v-.07-.15h.06.02.01.01.02l.01.01.01.02.03.03.05.1.01.03v.02l.02.06.01.06.01.07v.07l.01.08v.1h.01l.04-.05.03-.05.04-.06.03-.05.06-.12.02-.06.03-.06.04-.12v-.07l.02-.07.01-.07.02-.07.02-.14h.04l.02.01h.01l.01.01h.01v.01h.01.02.01v.01l.02.01.01.01v.01l.02.04h.01l.02.04.01.03v.02.05l.01.06.01.05v.07l.01.08v.08l.03-.03.01-.02.02-.01V44l.01-.03.01-.02.02-.02.01-.02.01-.03.01-.02.05-.15.02-.14.01-.1.02-.16v-.3l.03-.03h.02.01.06.01.02l.02.02.01.02.01.01.01.02.01.03v.02l.03.1.02.07.04.16.02.1.01.1.02.1v-.01.01l.04-.06v-.03l.02-.03.01-.03.02-.04.01-.04.02-.03.02-.07.04-.16.01-.08.02-.08.01-.08v-.1l.01-.08v-.1-.1-.1-.1l.12.12.03.05.06.08.03.05.03.06.02.06.06.12.02.07.06.14.02.08h0l.02-.04.02-.08.02-.05.04-.16.01-.08.01-.1.01-.08v-.33l-.02-.16-.01-.1-.02-.08-.01-.08h.07.02.01.03l.01.01h.02l.02.02v.01l.08.08h.01l.02.03.06.08.03.05.03.06.03.05.04.06.02.06h.01l.01-.04.02-.04.01-.04.01-.05v-.2l-.01-.07-.02-.12-.02-.06-.04-.14-.06-.16h.03.01l.03-.01h.1l.02.01h.02.02l.02.02v.01l.01.01v.01l.03.01.01.02h.01l.01.01.01.03.04.04.02.03.01.03.04.06.06.14.03.08.03.1.02-.04.02-.06.01-.06.02-.05v-.06-.03-.06-.04-.03-.1-.03l-.01-.04v-.04l-.01-.03-.02-.08-.04-.08v-.04l-.02-.05-.02-.04-.03-.05-.01-.01-.02-.03-.02-.05.04-.04.01-.02.03-.01.01-.01h.02.04.08.02.01.03l.01.01h.01v.01l.01.01.02.01.02.02v.01l.02.01h.02v.02l.02.02.02.03.02.02.01.03.03.03.04.06.03.07h.01l.04-.1.01-.06.01-.04v-.1l.01-.05v-.06l-.01-.05v-.05l-.02-.1-.02-.06-.04-.1-.03-.05.03-.02.04-.02h.1l.03.01.03.02.03.01.03.02v.01h.02l.03.03h.01l.03.03.02.03.03.04v-.01l.01.01-.01-.07-.02-.07-.01-.07-.02-.12-.01-.05v-.23l.01-.03v-.02l.01-.02.02-.02.02-.01.01-.01h.07l.03.01.08.04.01.01.05.02.02.03.03.02v-.01.01V40l-.01-.04v-.05l-.01-.05-.03-.12-.01-.05-.04-.08-.01-.04-.02-.05-.02-.04-.03-.04h.1l.02.01h.01l.04.02.02.02h.01l.02.02.02.01.03.03.05.06v-.01l.01.01.04-.47V39l-.01-.15v-.15z"/><path d="M22.05 27.3l.4.15.26.08.26.06.13.04.13.03.14.02.12.03.4.06.06.01.07.01h.05.08l.12.01.13.02h.13l.25.02.3-.3.04-.02.06-.04.06-.02-.01.27.01-.01h.02l.04-.04.03-.02.03-.05.04-.05.01-.02.07-.07h.02l.03-.03h.01l.06-.03h.03v.01l.01.02v.01l.01.02v.08l-.01.04-.01.05-.02.05-.01.05.03-.01.06-.04.02-.03.05-.04.05-.06.02-.02.03-.02.02-.02h.03l.02-.01.01-.01h.01l.04-.02h.04v.22l.1-.1.05-.04.04-.05.06-.04.04-.04.1-.08v.18l-.01.04v.05l-.01.04v.05-.01l.06-.02.18-.12.18-.15.06-.06-.05.37.03-.01.02-.01.03-.02.02-.01.05-.03.04-.03.13-.13.03-.04.03-.03.04-.03.03-.03.04-.03.03-.02.03-.01.01-.02.03-.01h.02v.1l-.01.04v.04l-.01.05-.01.04h.03.03l.02-.01.03-.01.02-.02.03-.02.02-.01.03-.02.13-.13.12-.15.08-.1L28 27l.04-.05.02-.01.03-.02.04-.04.01.02.01.03v.15l-.02.04h.01 0l.22-.17.06-.03.15-.12.06-.04.04-.04.05-.03.05-.04.23-.2H29 29l-.96.3-.28.08-.14.03-.13.04-.14.03-.15.04-.13.03-.28.06-.15.04-.14.02-.13.03h-.03l-.13.03h-.14l-.15.02-.15.03-.45.06-.15.01-.3.04-.15.01-.16.01h-.15-.16-.12-.84l-.58-.05-.66-.06z"/><path d="M42.47 29.2l-.02-.2-.03-.2-.04-.18-.04-.2-.06-.2-.07-.2-.08-.2-.2-.36-.12-.2-.12-.18-.3-.36-.34-.36-.2-.17-.2-.18-.22-.16-.23-.17-.24-.16-.26-.16-.16-.1-.17-.08-.16-.1-.48-.2-.16-.06-.48-.15-.15-.04-.32-.08-.16-.03-.15-.03-.15-.02-.32-.04-.3-.02h-.62l-.3.02-.16.02-.15.01-.15.02-.16.02-.15.03-.16.02-.37.08-.06.17.35-.2-.1.35.07-.05.07-.06.07-.05.08-.04.07-.05.16-.08.07-.04-.15.4.1-.1.1-.08.08-.07.07-.07.08-.06.03-.02.04-.03h.01l.04-.02h.01l.02-.01h.05l-.28.45.1-.1.15-.12.06-.03.04-.03.1-.06.12-.06h.03l.01-.01h.02l.02-.01h.07l-.38.6.33-.24.1-.08.06-.03.05-.03.06-.04.05-.03.06-.03.05-.03.06-.03.05-.02v.08l-.01.02v.02.02.02l-.02.03-.02.05-.02.03-.02.05-.05.07-.05.08-.02.04-.03.04-.02.05-.02.04h.02l.02-.01.03-.01.02-.02.04-.03.05-.03.1-.07.1-.1.06-.04.05-.03.06-.04.05-.03.02-.02.03-.01h.03l.04-.02H37l.03-.01h.01v.03l-.03.1v.04l-.02.02-.01.03-.05.1-.04.06-.05.07-.05.06.1-.06.1-.06.1-.05.1-.05.1-.04.08-.05.16-.06-.32.48.05-.04.06-.03.06-.04.07-.04.06-.04.07-.03.14-.08.06-.02.06-.03.05-.03.05-.02.04-.01H38v.01H38v.02h-.01l-.02.02-.04.05-.05.07-.05.06-.1.14-.04.05.1-.03.2-.08.1-.03.1-.03.1-.03.08-.03.1-.02-.03.05-.12.18-.05.07-.06.06-.05.07-.06.07.2-.08.1-.04.1-.05.1-.03.1-.05.18-.08v.01.01.02l-.03.06-.01.03-.02.02-.01.03-.05.05-.02.03-.16.16.1-.03.12-.03.1-.03.1-.02.03-.01.04-.01H39h.03.06.02.01v.03l-.01.01-.01.02-.04.04-.02.03-.04.03-.03.02-.04.04-.1.08-.12.08.22-.04.2-.04.14-.03.1-.02h.04l.03-.01h.05l.01.01h.01v.01l-.03.03-.01.02-.02.01-.04.04-.05.04-.02.03-.06.04-.04.06-.03.02-.03.06.08-.03.07-.03.06-.03.1-.03h.01.1.01v.05l-.01.01-.01.02v.02l-.04.04-.01.02-.03.03-.05.06-.05.07.06-.04.07-.03.03-.01.06-.03h.02.02.03.01.02l.02.02v.07l-.02.04v.04l-.03.05-.02.05-.04.06.05-.04.04-.03.04-.02.04-.01.01-.01h.01v-.01h.04v.01l.02.02v.04h-.01v.01l-.01.04-.02.04-.04.1h.05l.04-.02.05-.01.08-.02.03-.01.02.01h.03v.02l.01.02v.02l-.01.02v.01.02.03l-.01.02-.02.03-.01.03-.04.06-.03.04h.07l.05-.01h.03l.02.01h.06l.01.01h.01l.02.01.02.02v.05l-.02.01v.02l-.02.03-.07.07h.14l.04.01h.02.01.02.01.02v.02h.01v.03l-.01.01v.01l-.02.02h0l-.05.05-.05.03-.05.04.07.01.1.02.03.01.02.01h.01l.02.01h.01.01.01v.05l-.02.02-.03.02-.02.02-.04.02-.03.02-.1.03h0-.04l.03.05v.01l.04.12.06.14.04.14.03.15.02.14.01.15-.01.14v.14l-.06.28-.04.14-.05.14-.06.13-.07.14-.08.13-.1.13-.1.13-.1.12-.12.12-.12.13-.28.22-.15.1-.5.3-.2.08-.2.1-.2.08-.2.08-.2.07-.23.06-.23.05-.24.05-.48.08-.23.02L36 32h-.22-.67l-.44-.04-.2-.01-.2-.03-.2-.04-.2-.03-.2-.05-.2-.04-.2-.05-.2-.05-.4-.12-.2-.06-.2-.07-.2-.06-.6-.2-.2-.08-.4-.15-.4-.15-.45-.18-.42.15-.1.04-.1.03-.1.04-.08.04-.1.04-.08.03-.08.05-.08.04-.04.03-.04.02-.03.03-.04.02-.03.02-.04.03h-.03l-.18.18-.02.03-.03.03-.02.04.07-.02.18-.08.1-.05.12-.04.1-.05.06-.02.06-.03.07-.02.06-.02.07-.02.06-.01.06-.02h.07.06l.05-.01h.23l.05.01.1.04.03.01.02.02.03.02.04.03-.12.06-.04.01-.1.04-.1.03-.1.04-.1.03-.1.03-.1.04h-.04l-.05.02-.03.01-.04.03-.04.02h-.03l-.04.02-.02.02-.03.02-.02.03-.02.02-.01.03-.01.02v.03.06h.14l.05-.01h.04l.04-.02.05-.01.04-.01h.05l.04-.01.04-.02.05-.02.1-.04.08-.04.1-.04.1-.05.1-.04.1-.04.04-.02.03-.01h.01l.04-.02.05-.01.05-.02h.04.05.04l.01.03-.03.1v.03l-.16.16-.04.03-.05.03-.08.07-.18.14-.08.07-.04.03-.06.06-.03.04-.04.06-.02.06v.06l.04.06h.08.02.04l.03-.01.03-.02.04-.02.08-.05.08-.06.18-.12.05-.03.04-.03.1-.06.04-.02.05-.02.05-.03.05-.02h.05l.05-.02.04-.01h.05l.04-.01.04.01h.04l.05.02-.2.14-.16.14-.04.03-.13.13-.02.03-.05.05-.01.03-.01.02-.02.03v.02l-.01.03-.01.01v.02l.02.04v.02l.02.01.01.02.03.01v.01l.03.02h.03l.07-.1.22-.22.07-.06.08-.06.07-.06.14-.1.07-.04.03-.02.04-.01.03-.02.04-.02h.03l.03-.02.04-.01.03-.01.03-.02h.04l.06-.02-.06.1-.07.1-.12.18-.03.04v.05l-.08.16v.03l-.02.04-.01.04-.01.03-.01.04-.01.03v.15h.01l.02.02.01.03.02.02V33l.03.02.02.01.05-.06.04-.07.15-.18.05-.05.04-.05.06-.05.04-.05.05-.05.05-.04.04-.04.05-.04.06-.05.04-.03.05-.04-.04.1-.04.08-.03.1-.04.08-.02.07-.03.07-.02.07-.04.12-.03.15v.03l.01.02v.03l.01.02.01.01h.02l.04-.02.03-.01.08-.06.15-.12.04-.05.1-.1.05-.06.05-.05.2-.24-.01.1-.01.1v.1l-.02.1-.02.1-.02.1-.02.1-.02.1h.02l.03-.01.03-.02h.02l.02-.02.06-.04.02-.03.05-.05.15-.18.04-.06.05-.06.03-.02.02-.03h.03l.03-.03.02-.01.03-.02.02-.02H33h.03.03l.03-.01h.03l-.03.07-.06.12-.03.07-.12.24-.02.06-.02.05-.02.04v.03.02.02.06.02.03.01l.03-.01h.06l.1-.03.03-.02.02-.01.03-.02.02-.01.06-.04.05-.05.06-.04.05-.05.04-.06.05-.05.25-.3-.03.1-.03.1-.06.16-.01.07-.02.06v.05l-.02.05v.04l-.01.03v.05l.01.02v.01h.03l.02-.01.01-.01.02-.01.05-.05.02-.03.03-.03.1-.12.08-.1.08-.1.07-.12v.1l-.01.1v.07l-.01.07.01.07v.05l.01.05v.05l.02.08v.03l.02.02.01.02h.01l.01.01v.01h.03l.02.01h.02l.03-.01.03-.02.03-.01.03-.02.1-.1.04-.05.04-.04.08-.1.04-.06.05-.06.04-.07.05-.07h.02.01.01l.02.02v.01l.03.03v.03l.01.03v.04l.01.04-.01.04v.05l-.02.12-.02.06-.01.07-.02.07v.01h.03l.04-.01h.06.03.03l.06-.02h.02l.03-.02.03-.01h.02l.05-.03.05-.02.04-.03.05-.03.04-.04.04-.03.1-.07.07-.07.01.05v.05l-.01.02v.08l-.01.02-.01.03v.03l-.02.04-.01.03-.01.02-.01.03v.01l.06-.04.05-.03.06-.04.05-.03.06-.04.06-.05.1-.08-.02.06-.02.07v.06.05l-.01.04v.05l-.01.03.01.03v.02l.01.02v.01.01h.02l.01.01.02-.01h.04v-.01l.02-.03.03-.01.02-.03.04-.02.02-.03.03-.03.03-.04.03-.03.03-.04.03-.05.04-.04.02-.05.03-.04.06-.1h.02l.02.01h.01v.01h.01l.01.01.02.01.04.04v.02.01.02l.01.01v.15l-.01.03v.05l-.02.07-.02.06-.02.08h.04l.03-.01.02-.01.04-.04.04-.03.05-.03.08-.08.03-.04.05-.05.03-.05.08-.1.08-.1.07-.1v.03l.01.04v.05.12.04.08.05.08l-.02.16.07-.04.06-.04.06-.05.05-.04.1-.1.08-.1.03-.04.1-.15.06-.15.03-.05.02.02h.01l.02.01.02.02h.01l.01.01v.02.01.02.02l.01.03.01.04v.1l-.01.05v.05l-.01.05v.12l-.02.06.01-.01-.01.01.05-.04.06-.04.04-.05.04-.04.08-.1.06-.1.02-.05.03-.05.02-.06.03-.05v-.05l.04-.12.01-.06v.01h.01l.01.01h.01.02l.02.01.03.03.01.02.01.01.01.02h.01v.02.02.16.03.03.03l-.01.04-.02.06-.01.04-.03.08-.04.08h.01 0 .03l.04-.02.03-.02.04-.02.1-.06.03-.03.03-.02.02-.03.08-.08.02-.03.03-.03.02-.04.04-.06v-.04l.01-.03.04-.07.04-.08.03-.08.04-.07.06-.16h.01l.05.05v.02h0l.02.04v.24l-.01.07v.07l-.02.08-.01.08-.03.08-.02.1.04-.02.1-.1.03-.04.03-.03.03-.04.03-.03.02-.04.03-.05.02-.03.03-.05.04-.08.05-.1.04-.1.05-.1.04-.1.05-.1.04-.1.05-.1.05-.1.04-.08.01.04.02.05.02.1.01.06v.05l.01.06v.06l.01.05v.06.06.25.06h.01l.02-.01.02-.03.03-.02.01-.03.03-.03h.01l.04-.06.02-.06.02-.03v-.04l.02-.05.03-.07.02-.07.01-.07v-.07l.01-.07.02-.16.01-.07V32l.05.05.08.12.03.04.01.03.02.04.02.03.01.05.02.04v.04l.02.04.02.1v-.01.01l.12-.18.06-.12.06-.18.02-.05.02-.06.04-.24.02-.1.02.01.02.03.01.03.02.02.02.04.01.03.02.03v.03l.01.04.02.04.01.03.02.08.01.05v.1h.01l.03-.04.02-.03.03-.04.01-.04.02-.05.02-.08.01-.05v-.04l.01-.05v-.1l.01-.1-.01-.1v-.3l.03-.1v-.03l.04-.04.02-.01h.02l.03.08.03.07.03.1.02.08.03.1v.1l.01.04.02.05v.06l.01.05h0 .01l.01-.03v-.03l.02-.03h0v-.07l.02-.06.01-.06v-.07l.02-.12v-.07l.05-.3v-.02l.01-.03v-.03l.01-.02.3.46.01-.02.16-.34.06-.17.06-.18.05-.18.03-.18.04-.18.02-.18.01-.2v-.2l-.01-.18z"/><path d="M23.07 22.87v-.06h.54v.05h.05v-.1h-.22v.06h-.28v.04zm2.17-1.5v-.01.04-.25h.4v.5h-.06l-.2.15v.44l.2-.22v.18h-1zm-3 1.27v.17l.08.13h.1-.16v.12h1.9l.4-.07h.33l.08-.05h.2l.07-.05.06-.05h.05v-.05l.05-.05.08-.1.07-.1H26v.74h-1.6v.1h1.66l.06-.05h.07l.07-.05h.06l.13-.13v-1.1h-.2.6l.3-.2v1.25h.05v-1.7h.05l.1-.05h.05v-.05h.05v-.43h.1l.25-.1.33-.38.08-.1.07-.1.08-.1.2-.3.12-.2v1.04h.05l.2-.18.06-.07.06-.06.06-.07.05-.07.12-.14v-.07l.05-.08v-.06.66h.28l.2-.16v.7h-.05v.05l-.06.06h.93v.5h-.06v.05l-.12.1h2.08v.08h-.27.67-1.7v.18l.06.08.07.1h-.58v.08l.05.08.12.16.06.1.07.08h-.27l-.22-.06.3.46h-.47l.32.45h-.6l.24.45H30l.14.43-.35-.18v.48h-.27v.5h-.4v.44h-.18v.3h-.26v.35h-.5v1.86h-.3v.43h-.7v.52h-.06l.06-.23-.06-.05h-.42v.3l-.05-.06h-.4l.07.07.08.1v1.02l-.07-.07-.08-.07-.06-.05-.08-.07.06-.12-.05-.05h-.07l-.07-.06h-.43v.14l.05.1.07.1v.34l-.05-.06-.05-.05h-.65v.6h-.85v.1h.06l.1.08v.93h-.75v.06l.08.06.1.06.1.07h.12l.06.05H24v.58h-.58v.12l-.1-.06h-.1l-.1-.05h-.2l-.1-.05h-.06.12-.95V33h.52v.06h.8l-.18.24h.5l.65 3.66h.57l-.15-.4-.06-.22v-1.68l.05-.2.07-.2.3-.6.12-.2.13-.2.3-.4.34-.42.2-.22.63-.63.23-.22.24-.22.52-.46.27-.23.28-.24.3-.25.3-.24.34-.3.32-.28.33-.3.64-.6.9-.9.28-.3.3-.3.52-.6.48-.6.22-.3.4-.6.17-.3.16-.3.14-.3.22-.6.08-.3.06-.3v-1.2l-.05-.3-.08-.3-.03-.17-.14-.3-.1-.18-.12-.17-.12-.16-.13-.15-.28-.28-.3-.24-.2-.1-.16-.1-.34-.18-.18-.08-.17-.07-.18-.07h-.18l-.18-.05h-1.9l-.15.05-.16.05-.15.05-.14.07-.2.08-.17.07-.18.06h-2.7l-.1.05-.1.06-.1.08-.08.07-.07.06-.05.05-.13.12-.13.13-.13.15-.72 1-.12.13-.1.12-.13.13-.12.13-.12.12-.13.12-.12.1-.14.13-.1.06h-.2v.28zm.8 1.43V24h.26v.32zm1.18.3v-.27h.32v.5z"/><path d="M25.9 21.43l-.04-.01h-.03l-.04-.02h-.03-.02l-.02-.02-.02-.01v-.02-.01-.02h.01v-.03l.02-.03.01-.04.04-.06.01-.04.04-.06.02-.04.02-.03.01.01V21l.02.06v.02.03l.02.02.01.03.01.02h.02l.02.03.1.1.03.01-.02-.08v-.04-.04-.1l-.01-.04v-.04l-.01-.03v-.2l.01-.03.04-.03.03-.02.04-.02.04-.01.03-.01h.08l.03.01.04.02.07.07v.02l.02.03v.02.03l.01.02v.02l.01.03v.15l-.01.02h0l-.01.02v.01l-.03.03-.02.03-.03.03-.03.02-.03.04h-.04l-.03.02-.08.04-.05.02h-.03-.05l-.04.01-.05.01h-.1z"/></g><path d="M21.05 25.05v-.03l.01-.03v-.03l.01-.03.01-.04.01-.03v-.02-.04l.04-.06.03-.06.06-.1-.01-.01-.02-.01-.03-.01h-.08l-.03-.01-.03.01h-.12l-.06.01-.05.01.02-.02.03-.01.02-.01.03-.02h.02.03.02l.03-.01h.03l.02-.01h.1l.03.01h.03l.03.01.05-.01h.05l.1-.02.06-.01h.1l.06-.01.1-.01.1-.01.12-.01h.1l.24-.02.4-.06.13-.03.07-.02.14-.02.07-.02.07-.03.2-.06.14-.06.08-.03.14-.06h.01v.02l.02.04.01.03.02.03h-.01l-.07.03-.07.04-.07.03-.08.02-.07.04h-.07l-.16.04-.07.02-.08.02h-.07-.08l-.08.02-.14.02-.08.01-.15.01-.28.02h-.26-.12l-.1.02-.1.01-.02.01-.05.01-.03.01-.04.02h-.05l-.03.02-.04.02-.03.01-.04.03-.04.05-.03.04-.04.04-.02.05-.03.05-.06.08-.02.05z" fill="#d7c07a"/><g fill="#fff"><path d="M10.06 84.25h2.1a3.77 3.77 0 0 0 0 .62h-.2c-.03 0 0-.18-.06-.28s-.08-.15-.2-.15h-.75a.14.14 0 0 0-.05.08v.9a7.2 7.2 0 0 0 .72 0c.08 0 .1 0 .14-.14a1.49 1.49 0 0 0 0-.19.38.38 0 0 1 .21 0v.9a.27.27 0 0 1-.2 0c0-.1 0-.14-.05-.2s-.07-.15-.16-.15h-.7v.74c0 .17 0 .18.16.2a1.75 1.75 0 0 0 .33 0v.17H10a.15.15 0 0 1 0-.16h.25c.13 0 .15-.06.16-.22s0-.42 0-.94v-.9c0-.13 0-.18-.12-.2h-.26a.22.22 0 0 1 0-.16m4.24.6l-.3.88h.62l-.32-.87m-.83 1.56l.7-1.8a2.55 2.55 0 0 0 .08-.28h.33a1.83 1.83 0 0 0 .08.25l.73 1.88c.17.38.17.33.5.37v.17H14.7a.33.33 0 0 1 0-.17.79.79 0 0 0 .25 0 .09.09 0 0 0 0-.1c0-.18-.16-.47-.23-.64h-.78a.07.07 0 0 0-.06 0 3.67 3.67 0 0 0-.2.6c0 .08 0 .12.14.15h.23a.25.25 0 0 1 0 .17h-1.1a.25.25 0 0 1 0-.17c.32 0 .38-.07.53-.42m3.43-2.1h.85a.9.9 0 0 0 .08.25l.8 1.66c.07.13 0 0 0 0l.8-1.7a1.7 1.7 0 0 0 .07-.21h.84a.22.22 0 0 1 0 .16h-.3a.15.15 0 0 0-.11.17v1.84c0 .28 0 .2.18.24s.14 0 .25 0a.25.25 0 0 1 0 .17h-1.2a.25.25 0 0 1 0-.17h.26a.16.16 0 0 0 .11-.17v-1.7l-.94 2.06a.47.47 0 0 1-.17 0c-.1-.35-.66-1.58-.86-2.06 0 .4-.07 1.15-.08 1.58 0 .13 0 .2.14.24a1.41 1.41 0 0 0 .31.06.21.21 0 0 1 0 .17h-1.18a.25.25 0 0 1 0-.17 1.19 1.19 0 0 0 .24 0c.13 0 .15-.1.18-.27 0-.37.12-1.36.16-1.78a.18.18 0 0 0-.12-.19l-.32-.06a.22.22 0 0 1 0-.16m4.6.04h1.2a.29.29 0 0 1 0 .16 2.46 2.46 0 0 0-.26 0c-.1 0-.12.08-.13.2s0 .5 0 .87v1c0 .2 0 .2.16.22h.3a.25.25 0 0 1 0 .17H21.5v-.17h.25c.13 0 .15-.1.16-.18s0-.38 0-1.1v-.8c0-.2 0-.16-.12-.2h-.28a.22.22 0 0 1 0-.16m2.43-.01h1.22v.16h-.25a.15.15 0 0 0-.12.17v1.88c0 .12.08.1.1.12a3.8 3.8 0 0 0 .7 0c.1 0 .17 0 .27-.17a3.72 3.72 0 0 0 .25-.49.4.4 0 0 1 .18.07 3.16 3.16 0 0 1-.25.77s-.06.06-.2.06H23.9v-.17a1.78 1.78 0 0 0 .33 0 .17.17 0 0 0 .13-.16v-1.83c0-.12 0-.22-.13-.24h-.26a.22.22 0 0 1 0-.16m2.96-.01H28v.16a1.43 1.43 0 0 1-.16 0c-.06 0 0 .07 0 .1l.52 1c.1.15 0 0 0 0a14.46 14.46 0 0 0 .52-.94c.07-.15 0-.13-.07-.15h-.23v-.16h1v.16h-.18c-.13 0-.2.08-.33.28l-.6 1a.47.47 0 0 0 0 .16v.53c0 .22 0 .25.13.28h.3v.16h-1.37a.22.22 0 0 1 0-.16 1.8 1.8 0 0 0 .33-.06c.12 0 .15-.08.15-.22v-.5a.65.65 0 0 0 0-.2l-.52-1c-.2-.35-.2-.3-.37-.36h-.2v-.16m7.46 2.43a1.11 1.11 0 0 0 .35-.93 1.32 1.32 0 0 0-.49-1.13.93.93 0 0 0-.54-.16.8.8 0 0 0-.36.09 1.07 1.07 0 0 0-.46 1 1.34 1.34 0 0 0 .55 1.16.92.92 0 0 0 .51.13.7.7 0 0 0 .44-.14m-1.6 0a1.47 1.47 0 0 1-.38-1 1.37 1.37 0 0 1 .29-.85 1.5 1.5 0 0 1 1.15-.53 1.27 1.27 0 0 1 1.31 1.27 1.45 1.45 0 0 1-.27.91 1.43 1.43 0 0 1-1.14.55 1.28 1.28 0 0 1-1-.37m3.73-2.35h2.08a3.77 3.77 0 0 0-.06.62h-.2c-.02 0 0-.18-.06-.28s-.08-.15-.2-.15h-.75a.14.14 0 0 0 0 .08v.9a7.2 7.2 0 0 0 .72 0c.08 0 .1 0 .14-.14a1.49 1.49 0 0 0 0-.19.37.37 0 0 1 .21 0v.9a.27.27 0 0 1-.2 0c0-.1 0-.14-.05-.2s-.07-.15-.16-.15h-.7v.74c0 .17 0 .18.16.2a1.75 1.75 0 0 0 .33 0v.17h-1.3a.15.15 0 0 1 0-.16h.25c.13 0 .15-.06.16-.22s0-.42 0-.94v-.9c0-.13 0-.18-.12-.2h-.25v-.16m3.33.08h2.08a3.77 3.77 0 0 0-.06.62h-.2c-.02 0 0-.18-.06-.28s-.08-.15-.2-.15h-.75a.14.14 0 0 0 0 .08v.9a7.2 7.2 0 0 0 .72 0c.08 0 .1 0 .14-.14a1.49 1.49 0 0 0 0-.19.37.37 0 0 1 .21 0v.9a.27.27 0 0 1-.2 0c0-.1 0-.14-.05-.2s-.07-.15-.16-.15h-.7v.74c0 .17 0 .18.16.2a1.74 1.74 0 0 0 .34 0 .21.21 0 0 1 0 .17h-1.32a.15.15 0 0 1 0-.16H40c.13 0 .15-.06.16-.22s0-.42 0-.94v-.9c0-.13 0-.18-.12-.2h-.25v-.16m3.3.08h1.2a.18.18 0 0 1 0 .16h-.25c-.06 0-.12.08-.13.2s0 .5 0 .87v1c0 .2 0 .2.16.22h.3a.25.25 0 0 1 0 .17H43.1v-.17h.24c.14 0 .16-.1.17-.18s0-.38 0-1.1v-.8c0-.2 0-.16-.1-.2h-.28a.22.22 0 0 1 0-.16m4.37.2a1.31 1.31 0 0 0-.52-.09c-.6 0-.93.46-.93 1.15a1.11 1.11 0 0 0 1.1 1.22.8.8 0 0 0 .44-.12 1.89 1.89 0 0 0 .35-.45.26.26 0 0 1 .14.09 1.52 1.52 0 0 1-.33.59 2.2 2.2 0 0 1-.69.12 1.4 1.4 0 0 1-.82-2.6 1.71 1.71 0 0 1 .86-.2 8.58 8.58 0 0 1 .9.09 6.9 6.9 0 0 0-.07.7h-.17c-.05-.35-.1-.43-.28-.5m1.85-.22h2a3.42 3.42 0 0 0-.07.61.28.28 0 0 1-.2 0 .55.55 0 0 0 0-.25.18.18 0 0 0-.19-.16h-.7s-.05.07-.05.1v.83h.64a.15.15 0 0 0 .12-.11v-.2a.24.24 0 0 1 .19 0 4.1 4.1 0 0 0 0 .42v.42a.28.28 0 0 1-.2 0 1.73 1.73 0 0 0 0-.2.14.14 0 0 0-.12-.1 6.14 6.14 0 0 0-.62 0v.78a.19.19 0 0 0 .1.18h.72c.1 0 .18 0 .27-.16a2.64 2.64 0 0 0 .2-.37.39.39 0 0 1 .18.06 3.34 3.34 0 0 1-.19.62s-.06.1-.27.1h-1.97a.25.25 0 0 1 0-.17h.37c.1 0 .13-.08.14-.22s0-.52 0-1v-.82c0-.14 0-.18-.13-.2a1.85 1.85 0 0 0-.25 0 .22.22 0 0 1 0-.16"/><use xlink:href="#B"/></g></g><use xlink:href="#B" fill="none" stroke="#111417" stroke-miterlimit="10" stroke-width=".25"/></g></svg>