<svg width="203" height="155" fill="none" xmlns="http://www.w3.org/2000/svg"><path fill-rule="evenodd" clip-rule="evenodd" d="M63.4 62.5c-1.5-4.9-7.1-9.4-12.3-11.8-3.3-1.5-6.7-2.8-9.8-4.5-1.9-1-3.5-2.3-4.9-3.8-1.4-2.2-.9-5 1-6.7 3.4-2.7 8.2-2.9 11.9-.6.5.3.9.7 1.3 1.1.5.5.9 1.1 1.3 1.7.6 1 1 1.1 2 .7 3.7-1.3 7.4-2.7 11.2-3.8 1.4-.3 2.8-.3 4.2 0 2.4.4 4.5-.2 5.2.6.6.8.4 2.4.9 4.4.5 2.1-1.7 6-1.7 6S63.6 62.3 63.4 62.5Z" fill="url(#a)"/><path fill-rule="evenodd" clip-rule="evenodd" d="M37.3 43.4c1 1 2.2 1.8 3.4 2.5 3.7 2 7.5 3.8 11.5 5.3-18.7-9-13.4-19.4-.4-13.4v-.1c-.4-.7-.9-1.4-1.5-2-3.7-3.4-12.3-3.1-14.2 1.8-1 2-.5 4.4 1.2 5.9Z" fill="url(#b)"/><path fill-rule="evenodd" clip-rule="evenodd" d="M37.8 57.1 0 79.8v.3l21 4.3 7.1-6.5c-2.2-1.9-4-4.1-5.6-6.5 2.6-1.7 5.5-3.6 7.7-5.2l.1.1c0 .1.1.2.2.2l.1.1.1.1.1.1.1.1v.1l.1.1.1.1.1.1.1.1.1.1h.1l.1.1.1.1.1.1h.5l.1.1.1.1h.4l.3.2h.1l.2.1h.2l13-7.2c-.8-.3-6.6-3-8.9-4Z" fill="url(#c)"/><path fill-rule="evenodd" clip-rule="evenodd" d="M29.6 52.8c-1.9-1.3-3.5-2.9-5-4.6-.3-.5-.8-.8-1.3-.8L0 54.4v9.8l29.6-11.4Z" fill="url(#d)"/><path fill-rule="evenodd" clip-rule="evenodd" d="M38 57.199c-1.4-.6-1.5-.6-2.9-1.3-1.9-.8-3.8-1.9-5.5-3.1L0 64.199v15.7l38-22.7Z" fill="url(#e)"/><path fill-rule="evenodd" clip-rule="evenodd" d="m51.7 67.4-3.8 5.2c.5-.1.9-.3 1.3-.5 1.5-.4 2.6-1.7 2.8-3.3l-.3-1.4ZM40.5 83.6l-3.3 4.8 10.5 2.2 3.6-7.9c-3.1 1.4-6.5 1.7-9.8 1-.3.1-.8 0-1-.1Z" fill="url(#f)"/><path fill-rule="evenodd" clip-rule="evenodd" d="M46.4 61.1c-1.4 1.2-5.8 5.4-10.8 10.1 1 .6 2.1 1.1 3.3 1.4 3 .9 6.3.9 9.3-.1l3.6-5c-.3-2.3-2.5-4.2-4.1-5.5l-1.3-.9ZM21.1 84.5l16.1 3.9 3.3-4.8c-3.3-.6-6.4-1.7-9.3-3.4-1.1-.7-3.1-2.2-3.1-2.2l-7 6.5Z" fill="url(#g)"/><path fill-rule="evenodd" clip-rule="evenodd" d="M.1 103.999v-9.3h.6v8.8h4.9v.5H.1Z" fill="url(#h)"/><path fill-rule="evenodd" clip-rule="evenodd" d="M12.6 103.999v-9.3h5.6v.5h-4.9V99h4v.6h-4v3.9h5.2v.5h-5.9Z" fill="url(#i)"/><path fill-rule="evenodd" clip-rule="evenodd" d="m24.8 104 3.8-9.4h.7l3.8 9.4h-.7l-1.3-3.2h-4.4l-1.3 3.2h-.6Zm2.2-3.7h3.9l-1.5-3.8-.4-1.2c-.2.5-.3.9-.4 1.1l-1.6 3.9Z" fill="url(#j)"/><path fill-rule="evenodd" clip-rule="evenodd" d="m39.3 103 .4-.4c.7.7 1.7 1.1 2.7 1 .6 0 1.2-.2 1.7-.5.4-.3.7-.8.6-1.3 0-.5-.2-.9-.5-1.2-.4-.4-.8-.6-1.3-.8l-1.5-.6c-.5-.2-.9-.5-1.3-.9s-.5-.9-.5-1.4c0-.7.3-1.3.9-1.7.6-.5 1.4-.7 2.2-.7.9 0 1.9.3 2.6.9l-.4.5c-.3-.3-.7-.5-1-.6-.4-.1-.8-.2-1.2-.2-.6 0-1.2.2-1.7.5-.4.3-.7.8-.7 1.3 0 .4.2.9.5 1.2.4.3.8.6 1.3.8l1.5.6c.5.2.9.5 1.3.9s.5.9.5 1.4c0 .7-.3 1.3-.8 1.8-.6.5-1.4.7-2.2.7-1.1-.1-2.2-.6-3.1-1.3Z" fill="url(#k)"/><path d="M53.5 94.7h-.6v9.399h.6v-9.4Z" fill="url(#l)"/><path fill-rule="evenodd" clip-rule="evenodd" d="M61.8 104v-9.4h.6l5.8 7.3.8 1.2c0-.5-.1-.9-.1-1.2v-7.3h.6v9.4h-.6l-5.8-7.3-.8-1.2v8.5h-.5Z" fill="url(#m)"/><path fill-rule="evenodd" clip-rule="evenodd" d="M77.2 99.3c0-1.3.6-2.6 1.5-3.4 1-.9 2.3-1.4 3.6-1.4 1.3-.1 2.5.3 3.6 1l-.4.4c-.5-.3-1-.6-1.6-.7-.6-.2-1.2-.3-1.7-.3-1.2 0-2.3.4-3.2 1.2-.8.8-1.3 1.9-1.3 3.1 0 1.2.4 2.299 1.2 3.099.8.8 1.9 1.301 3.1 1.201.7 0 1.3-.101 1.9-.401.6-.3 1.1-.699 1.5-1.099v-1.8h-1.5v-.5h2.5v4.3h-.6v-1.201c-.4.4-1 .8-1.5 1-.6.3-1.3.401-2 .401-1.3 0-2.6-.501-3.6-1.401s-1.5-2.2-1.5-3.5Z" fill="url(#n)"/><path fill-rule="evenodd" clip-rule="evenodd" d="M102.1 99.3c0-1.3.5-2.5 1.4-3.4 1-.9 2.3-1.4 3.6-1.4 1.3-.1 2.6.3 3.6 1.2l-.4.4c-.5-.4-1-.6-1.5-.8-.6-.2-1.2-.3-1.8-.3-1.2 0-2.3.4-3.2 1.2-.8.8-1.3 1.9-1.3 3.1 0 1.199.4 2.299 1.3 3.099.9.8 2 1.3 3.2 1.3 1.3 0 2.5-.4 3.5-1.3l.4.4c-1.1.9-2.4 1.5-3.9 1.4-1.4 0-2.7-.5-3.6-1.5-.9-.9-1.4-2.1-1.3-3.4Z" fill="url(#o)"/><path fill-rule="evenodd" clip-rule="evenodd" d="M117.4 99.299c0-1.3.6-2.5 1.5-3.4 2.1-1.8 5.3-1.8 7.4 0 1 .9 1.6 2.1 1.5 3.4 0 1.3-.6 2.6-1.5 3.5-2.1 1.9-5.3 1.9-7.4 0-.9-.9-1.5-2.2-1.5-3.5Zm.7 0c0 1.2.4 2.3 1.3 3.1 1.8 1.7 4.6 1.7 6.5 0 .8-.8 1.3-1.9 1.3-3.1 0-1.2-.4-2.3-1.3-3.1-1.8-1.6-4.6-1.6-6.5 0-.9.8-1.4 1.9-1.3 3.1Z" fill="url(#p)"/><path fill-rule="evenodd" clip-rule="evenodd" d="m134.9 104 .8-9.4h.6l3 5.9.5 1c.2-.4.3-.8.5-1l3-5.9h.6l.8 9.4h-.6l-.5-7.2v-1.3c-.2.5-.4.9-.5 1.3l-2.9 5.4h-.6l-2.7-5.4-.5-1.3v1.3l-.6 7.1-.9.1Z" fill="url(#q)"/><path fill-rule="evenodd" clip-rule="evenodd" d="M152.6 104v-9.4h3.3c.8 0 1.6.2 2.2.7.6.5.9 1.2.9 2s-.3 1.5-.9 2c-.6.5-1.4.8-2.2.8h-2.7v3.9h-.6Zm.7-4.4h2.7c.7 0 1.3-.2 1.8-.6.5-.4.7-1 .7-1.6 0-.6-.2-1.2-.7-1.5-.5-.4-1.2-.6-1.8-.6h-2.7v4.3Z" fill="url(#r)"/><path fill-rule="evenodd" clip-rule="evenodd" d="m164.6 104 3.8-9.4h.7l3.8 9.4h-.7l-1.3-3.2h-4.3l-1.3 3.2h-.7Zm2.2-3.7h3.9l-1.5-3.8-.4-1.1c-.2.5-.3.9-.4 1.1l-1.6 3.8Z" fill="url(#s)"/><path fill-rule="evenodd" clip-rule="evenodd" d="M180 104v-9.4h.6l5.8 7.3.8 1.2v-8.5h.6v9.4h-.6l-5.8-7.3-.8-1.2c0 .5.1.9.1 1.2v7.3h-.7Z" fill="url(#t)"/><path fill-rule="evenodd" clip-rule="evenodd" d="M198.4 104v-4.1l-3.5-5.3h.7l2.4 3.8.6 1.1c.2-.4.4-.7.6-1.1l2.4-3.7h.7l-3.4 5.2v4.1h-.5Z" fill="url(#u)"/><path d="M80.3 55.799h-7.7v28.6h7.7v-28.6Z" fill="url(#v)"/><path d="M132.7 55.799H125v28.6h7.7v-28.6Z" fill="url(#w)"/><path fill-rule="evenodd" clip-rule="evenodd" d="M151.3 73c0 2.1 2.3 3.7 4.6 3.7s4.8-1.7 4.8-3.8V55.7h8.2V73c0 6.3-5.8 11.3-13 11.3-7.1 0-13-5-13-11.3V55.7h8.3V73h.1Z" fill="url(#x)"/><path fill-rule="evenodd" clip-rule="evenodd" d="m76.5 15-3.1 15.1-15.3 3.2 15.3 2.8 3.1 15 3-15 15.6-2.8-15.6-3.2-3-15.1Z" fill="url(#y)"/><path d="M177 75.3h8.6c0 1 .5 2 1.3 2.7 1 .7 2.1 1 3.3.9 1 .1 2-.2 2.8-.7.7-.4 1.1-1.1 1-1.9 0-1-1.3-1.9-4-2.6-1.5-.4-2.6-.7-3.5-1-2.5-.7-4.7-1.9-6.7-3.5-1.2-1.3-1.9-3-1.8-4.7-.1-2.5 1.1-4.9 3.1-6.4 2.4-1.7 5.4-2.5 8.3-2.3 3.1-.2 6.1.5 8.8 2 2 1.3 3.3 3.5 3.5 6h-8.2c-.1-.8-.6-1.5-1.2-2-.8-.5-1.7-.7-2.6-.6-.8-.1-1.7.2-2.4.6-.5.4-.9 1-.8 1.7 0 1 1.4 2 4.2 2.7l1.5.4c2.6.8 4.4 1.4 5.4 1.7.8.3 1.5.6 2.2 1.1.9.6 1.6 1.5 2.1 2.5s.7 2.2.7 3.3c.1 2.7-1.2 5.3-3.3 6.9-2.7 1.8-6 2.7-9.3 2.5-3.3.2-6.5-.6-9.3-2.4-2.3-1.6-3.7-4.1-3.7-6.9Z" fill="url(#z)"/><path fill-rule="evenodd" clip-rule="evenodd" d="m107.7 84.6-4.6-7.7h-4.7v7.7h-7.7V55.8h12.8c5.7-.2 10.6 4.3 10.8 10v.6c-.2 3-1.6 5.8-3.9 7.7l6.2 10.4-8.9.1Zm-9.3-14.2h4.8c2.3 0 4.1-1.9 4.1-4.1 0-2.3-1.9-4.1-4.1-4.1h-4.8v8.2Z" fill="url(#A)"/><defs><linearGradient id="n" x1="-1.729" y1="99.334" x2="203.604" y2="99.334" gradientUnits="userSpaceOnUse"><stop stop-color="#1C8AE2"/><stop offset=".486" stop-color="#8B00B3"/><stop offset="1" stop-color="#6900B5"/></linearGradient><linearGradient id="a" x1="-1.729" y1="47.996" x2="203.604" y2="47.996" gradientUnits="userSpaceOnUse"><stop stop-color="#1C8AE2"/><stop offset=".486" stop-color="#8B00B3"/><stop offset="1" stop-color="#6900B5"/></linearGradient><linearGradient id="c" x1="-1.73" y1="70.782" x2="203.604" y2="70.782" gradientUnits="userSpaceOnUse"><stop stop-color="#1C8AE2"/><stop offset=".486" stop-color="#8B00B3"/><stop offset="1" stop-color="#6900B5"/></linearGradient><linearGradient id="d" x1="-1.73" y1="55.766" x2="203.604" y2="55.766" gradientUnits="userSpaceOnUse"><stop stop-color="#1C8AE2"/><stop offset=".486" stop-color="#8B00B3"/><stop offset="1" stop-color="#6900B5"/></linearGradient><linearGradient id="e" x1="-1.73" y1="66.306" x2="203.604" y2="66.306" gradientUnits="userSpaceOnUse"><stop stop-color="#1C8AE2"/><stop offset=".486" stop-color="#8B00B3"/><stop offset="1" stop-color="#6900B5"/></linearGradient><linearGradient id="f" x1="-1.729" y1="79.017" x2="203.604" y2="79.017" gradientUnits="userSpaceOnUse"><stop stop-color="#1C8AE2"/><stop offset=".486" stop-color="#8B00B3"/><stop offset="1" stop-color="#6900B5"/></linearGradient><linearGradient id="g" x1="-1.73" y1="74.741" x2="203.603" y2="74.741" gradientUnits="userSpaceOnUse"><stop stop-color="#1C8AE2"/><stop offset=".486" stop-color="#8B00B3"/><stop offset="1" stop-color="#6900B5"/></linearGradient><linearGradient id="h" x1="-1.73" y1="99.335" x2="203.603" y2="99.335" gradientUnits="userSpaceOnUse"><stop stop-color="#1C8AE2"/><stop offset=".486" stop-color="#8B00B3"/><stop offset="1" stop-color="#6900B5"/></linearGradient><linearGradient id="i" x1="-1.73" y1="99.335" x2="203.603" y2="99.335" gradientUnits="userSpaceOnUse"><stop stop-color="#1C8AE2"/><stop offset=".486" stop-color="#8B00B3"/><stop offset="1" stop-color="#6900B5"/></linearGradient><linearGradient id="j" x1="-1.73" y1="99.336" x2="203.603" y2="99.336" gradientUnits="userSpaceOnUse"><stop stop-color="#1C8AE2"/><stop offset=".486" stop-color="#8B00B3"/><stop offset="1" stop-color="#6900B5"/></linearGradient><linearGradient id="k" x1="-1.73" y1="99.297" x2="203.604" y2="99.297" gradientUnits="userSpaceOnUse"><stop stop-color="#1C8AE2"/><stop offset=".486" stop-color="#8B00B3"/><stop offset="1" stop-color="#6900B5"/></linearGradient><linearGradient id="l" x1="-1.73" y1="99.335" x2="203.606" y2="99.335" gradientUnits="userSpaceOnUse"><stop stop-color="#1C8AE2"/><stop offset=".486" stop-color="#8B00B3"/><stop offset="1" stop-color="#6900B5"/></linearGradient><linearGradient id="m" x1="-1.73" y1="99.336" x2="203.604" y2="99.336" gradientUnits="userSpaceOnUse"><stop stop-color="#1C8AE2"/><stop offset=".486" stop-color="#8B00B3"/><stop offset="1" stop-color="#6900B5"/></linearGradient><linearGradient id="b" x1="-1.73" y1="42.326" x2="203.603" y2="42.326" gradientUnits="userSpaceOnUse"><stop stop-color="#1C8AE2"/><stop offset=".486" stop-color="#8B00B3"/><stop offset="1" stop-color="#6900B5"/></linearGradient><linearGradient id="o" x1="-1.73" y1="99.348" x2="203.603" y2="99.348" gradientUnits="userSpaceOnUse"><stop stop-color="#1C8AE2"/><stop offset=".486" stop-color="#8B00B3"/><stop offset="1" stop-color="#6900B5"/></linearGradient><linearGradient id="p" x1="-1.729" y1="99.335" x2="203.604" y2="99.335" gradientUnits="userSpaceOnUse"><stop stop-color="#1C8AE2"/><stop offset=".486" stop-color="#8B00B3"/><stop offset="1" stop-color="#6900B5"/></linearGradient><linearGradient id="q" x1="-1.729" y1="99.336" x2="203.604" y2="99.336" gradientUnits="userSpaceOnUse"><stop stop-color="#1C8AE2"/><stop offset=".486" stop-color="#8B00B3"/><stop offset="1" stop-color="#6900B5"/></linearGradient><linearGradient id="r" x1="-1.73" y1="99.335" x2="203.603" y2="99.335" gradientUnits="userSpaceOnUse"><stop stop-color="#1C8AE2"/><stop offset=".486" stop-color="#8B00B3"/><stop offset="1" stop-color="#6900B5"/></linearGradient><linearGradient id="s" x1="-1.73" y1="99.336" x2="203.603" y2="99.336" gradientUnits="userSpaceOnUse"><stop stop-color="#1C8AE2"/><stop offset=".486" stop-color="#8B00B3"/><stop offset="1" stop-color="#6900B5"/></linearGradient><linearGradient id="t" x1="-1.729" y1="99.336" x2="203.604" y2="99.336" gradientUnits="userSpaceOnUse"><stop stop-color="#1C8AE2"/><stop offset=".486" stop-color="#8B00B3"/><stop offset="1" stop-color="#6900B5"/></linearGradient><linearGradient id="u" x1="-1.729" y1="99.313" x2="203.604" y2="99.313" gradientUnits="userSpaceOnUse"><stop stop-color="#1C8AE2"/><stop offset=".486" stop-color="#8B00B3"/><stop offset="1" stop-color="#6900B5"/></linearGradient><linearGradient id="v" x1="-1.73" y1="70.118" x2="203.603" y2="70.118" gradientUnits="userSpaceOnUse"><stop stop-color="#1C8AE2"/><stop offset=".486" stop-color="#8B00B3"/><stop offset="1" stop-color="#6900B5"/></linearGradient><linearGradient id="w" x1="-1.73" y1="70.118" x2="203.604" y2="70.118" gradientUnits="userSpaceOnUse"><stop stop-color="#1C8AE2"/><stop offset=".486" stop-color="#8B00B3"/><stop offset="1" stop-color="#6900B5"/></linearGradient><linearGradient id="x" x1="-1.729" y1="70.118" x2="203.604" y2="70.118" gradientUnits="userSpaceOnUse"><stop stop-color="#1C8AE2"/><stop offset=".486" stop-color="#8B00B3"/><stop offset="1" stop-color="#6900B5"/></linearGradient><linearGradient id="y" x1="-1.73" y1="33.069" x2="203.603" y2="33.069" gradientUnits="userSpaceOnUse"><stop stop-color="#1C8AE2"/><stop offset=".486" stop-color="#8B00B3"/><stop offset="1" stop-color="#6900B5"/></linearGradient><linearGradient id="z" x1="-1.73" y1="70.048" x2="203.604" y2="70.048" gradientUnits="userSpaceOnUse"><stop stop-color="#1C8AE2"/><stop offset=".486" stop-color="#8B00B3"/><stop offset="1" stop-color="#6900B5"/></linearGradient><linearGradient id="A" x1="-1.729" y1="70.13" x2="203.604" y2="70.13" gradientUnits="userSpaceOnUse"><stop stop-color="#1C8AE2"/><stop offset=".486" stop-color="#8B00B3"/><stop offset="1" stop-color="#6900B5"/></linearGradient></defs></svg>