<svg width="200" height="155" fill="none" xmlns="http://www.w3.org/2000/svg"><g clip-path="url(#a)"><path d="m173.1 89.906 6.4-1.6 1.7-4.1 2-5 3.4-8.3 3.4 8.3 2 5 1.7 4.1s7.1 1.7 6.5 1.6l-11-25.7h-5.1l-11 25.7ZM0 64.106l6.4 1.6 3.7 9.1 1.2 2.9 4.9 12.1v.1h-5.1L0 64.106Zm14.1 0 6.4 1.6 1.7 4.1 2 5 3.4 8.3 3.4-8.3 1.9-5 1.7-4.1s7-1.7 6.4-1.6l-11 25.7h-5.1l-10.8-25.7Zm40.2 25.8 5.6-2.6v-23l-5.6 2.6v23Zm20.7 0 5.6-2.6v-13.6l12.4 16.2 4.8-2.6v-23l-5.6 2.6v13.2l-12-15.8-5.1 2.6v23H75Zm46.6.3c5.5 0 9.4-2.9 9.4-7.9 0-4.5-2.9-6.4-8.1-7.7-4.4-1.1-5.5-1.7-5.5-3.4 0-1.3 1.1-2.3 3.3-2.3 1.6 0 3.3.5 4.7 1.3l4.9-3c-2.7-2.2-6.1-3.3-9.6-3.2-5.2 0-9 3.1-9 7.7 0 5.1 3.3 6.6 8.5 7.9 4.3 1.1 5.1 1.8 5.1 3.2 0 1.4-1.4 2.5-3.7 2.5-2.1 0-4.1-.6-5.8-1.8l-5.1 2.7c3 2.6 6.8 4.1 10.8 4.1l.1-.1Zm22.9-.3h15.8l2.6-5.1h-12.7v-20.4l-5.6 2.6-.1 22.9Z" fill="url(#b)"/></g><defs><linearGradient id="b" x1="-.049" y1="77.119" x2="200.263" y2="77.119" gradientUnits="userSpaceOnUse"><stop stop-color="#1C8AE2"/><stop offset=".486" stop-color="#8B00B3"/><stop offset="1" stop-color="#6900B5"/></linearGradient><clipPath id="a"><path fill="#fff" d="M0 0h200v155H0z"/></clipPath></defs></svg>