<svg xmlns="http://www.w3.org/2000/svg" width="200" height="155" fill="none"><path fill="url(#a)" d="M85.5 60.8c-4.6 0-8.4 3.8-8.3 8.4 0 4.6 3.8 8.4 8.4 8.3 3.6 0 6.7-2.3 7.9-5.6h7.2v-5.4h-7.2c-1.2-3.4-4.4-5.7-8-5.7Zm0 11.3c-1.6 0-2.9-1.3-2.9-2.9 0-1.6 1.3-2.9 2.9-2.9 1.6 0 2.9 1.3 2.9 2.9 0 1.6-1.3 2.9-2.9 2.9Z"/><path fill="url(#b)" d="M116.8 61.3v-6.8h-5.4v6.8c-4.4 1.5-6.7 6.3-5.2 10.6 1.5 4.4 6.3 6.7 10.6 5.2s6.7-6.3 5.2-10.6c-.9-2.5-2.8-4.5-5.2-5.2ZM114 72c-1.6 0-2.9-1.3-2.9-2.9 0-1.6 1.3-2.9 2.9-2.9 1.6 0 2.9 1.3 2.9 2.9 0 1.6-1.3 2.9-2.9 2.9Z"/><path fill="url(#c)" d="M82.8 49.3v7.2h5.5v-7.2c4.4-1.5 6.7-6.3 5.2-10.6s-6.3-6.7-10.6-5.2c-4.4 1.5-6.7 6.3-5.2 10.6.7 2.4 2.7 4.3 5.1 5.2Zm2.7-10.9c1.6 0 2.9 1.3 2.9 2.9 0 1.6-1.3 2.9-2.9 2.9-1.6 0-2.9-1.3-2.9-2.9 0-1.6 1.3-2.9 2.9-2.9Z"/><path fill="url(#d)" d="M114 49.7c4.6 0 8.4-3.7 8.4-8.3 0-4.6-3.7-8.4-8.3-8.4-3.6 0-6.8 2.3-7.9 5.6H99V44h7.2c1.1 3.4 4.3 5.7 7.8 5.7Zm0-11.3c1.6 0 2.9 1.3 2.9 2.9 0 1.6-1.3 2.9-2.9 2.9-1.6 0-2.9-1.3-2.9-2.9 0-1.6 1.3-2.9 2.9-2.9Z"/><path fill="url(#e)" d="M121.4 122.099c-1.7 0-2.5-.4-2.5-2.3v-.3c0-1.9.8-2.3 2.5-2.3s2.6.4 2.6 2.3v.3c0 2-.9 2.3-2.6 2.3Z"/><path fill="url(#f)" d="M136.1 121.8c-1.1.2-2.1.3-3.2.3-3.1 0-5.4-1.5-5.5-4.9v-7.6h-2.2v-3.3h2.4l.7-3.9h3.7v3.9h4.1v3.3H132v7.1c0 1 .5 1.8 1.5 1.8.9 0 1.7 0 2.6-.2v3.5Z"/><path fill="url(#g)" d="M142.4 115.3c0 2.4.9 3 2 3.2 2.2.4 4.4.2 6.5-.4v3.4c-1.6.4-3.3.6-5 .6-5.8 0-8.1-1.7-8.1-8 0-6.8 2.8-8.2 7.4-8.2 4.1 0 6.7 1.4 6.7 6.6 0 .9-.1 1.9-.2 2.8h-9.3Zm5.2-2.9c.2-2.1-.6-3-2.2-3h-.1c-1.5 0-2.5.5-2.8 3h5.1Z"/><path fill="url(#h)" d="M153.9 112.4c0-1.9.1-5.1 4.3-6.1 1-.2 2-.4 3-.4 2.3 0 4.6.3 6.8 1v11.6h2v3.3h-5.7l-.3-.9c-1.3.7-2.8 1.1-4.3 1.2-4.6 0-5.9-2.8-5.9-6.6l.1-3.1Zm4.6 3.4c0 2 .5 2.8 2.7 2.8.8 0 1.6-.2 2.4-.4v-8.5c-.8-.1-1.6-.2-2.4-.2-2.4 0-2.7 1-2.7 3.1v3.2Z"/><path fill="url(#i)" d="M199.5 118.5v3.3h-6.6V113c0-2-.1-3.6-2.3-3.6-.9 0-1.8.2-2.7.5.1.6.1 1.2.1 1.8v6.8h2.1v3.3h-6.6V113c0-2-.1-3.6-2.3-3.6-.9 0-1.8.2-2.6.5v8.6h2.1v3.3h-8.6v-3.3h2.1v-9h-2.3v-3.3h6l.3.9c1.3-.7 2.7-1.1 4.2-1.1 1.7-.2 3.3.3 4.6 1.4 1.5-.8 3.1-1.3 4.8-1.4 4.6 0 5.9 2.1 5.9 6v6.7h1.8v-.2Z"/><path fill="url(#j)" d="M13.3 102v7.7H5.6V102H0v19.9h5.6v-7.4h7.7v7.4h5.6V102h-5.6Z"/><path fill="url(#k)" d="M42.8 109.6c0-4.7-3.1-7.7-9-7.7h-9v19.9h5.5v-4.6h4.8l3 4.6h5.8l-4.2-6.4c1.9-1.4 3-3.5 3.1-5.8Zm-12.5 3v-5.8h3.9c2.2 0 3.4 1 3.5 2.8 0 1.9-1.2 3-3.5 3h-3.9Z"/><path fill="url(#l)" d="M64.7 102 59 112.2 53.3 102h-5.7v19.9h5.5v-11.1l4 6.7H61l3.9-6.7v11.1h5.6V102h-5.8Z"/><path fill="url(#m)" d="M89.6 102v11.3L82.1 102h-5.7v19.9h5.5v-11.5l7.6 11.5h5.7V102h-5.6Z"/><path fill="url(#n)" d="M118.2 102h-5.5l-4.4 7.9-4.5-7.9h-5.7l7.4 12.7v7.2h5.5v-7.2l7.2-12.7Z"/><defs><linearGradient id="h" x1="-1.023" x2="198.321" y1="113.996" y2="113.996" gradientUnits="userSpaceOnUse"><stop stop-color="#1C8AE2"/><stop offset=".486" stop-color="#8B00B3"/><stop offset="1" stop-color="#6900B5"/></linearGradient><linearGradient id="a" x1="-1.022" x2="198.321" y1="69.151" y2="69.151" gradientUnits="userSpaceOnUse"><stop stop-color="#1C8AE2"/><stop offset=".486" stop-color="#8B00B3"/><stop offset="1" stop-color="#6900B5"/></linearGradient><linearGradient id="c" x1="-1.022" x2="198.321" y1="44.718" y2="44.718" gradientUnits="userSpaceOnUse"><stop stop-color="#1C8AE2"/><stop offset=".486" stop-color="#8B00B3"/><stop offset="1" stop-color="#6900B5"/></linearGradient><linearGradient id="d" x1="-1.022" x2="198.321" y1="41.351" y2="41.351" gradientUnits="userSpaceOnUse"><stop stop-color="#1C8AE2"/><stop offset=".486" stop-color="#8B00B3"/><stop offset="1" stop-color="#6900B5"/></linearGradient><linearGradient id="e" x1="-1.021" x2="198.321" y1="119.681" y2="119.681" gradientUnits="userSpaceOnUse"><stop stop-color="#1C8AE2"/><stop offset=".486" stop-color="#8B00B3"/><stop offset="1" stop-color="#6900B5"/></linearGradient><linearGradient id="f" x1="-1.022" x2="198.322" y1="112.205" y2="112.205" gradientUnits="userSpaceOnUse"><stop stop-color="#1C8AE2"/><stop offset=".486" stop-color="#8B00B3"/><stop offset="1" stop-color="#6900B5"/></linearGradient><linearGradient id="g" x1="-1.023" x2="198.321" y1="114.042" y2="114.042" gradientUnits="userSpaceOnUse"><stop stop-color="#1C8AE2"/><stop offset=".486" stop-color="#8B00B3"/><stop offset="1" stop-color="#6900B5"/></linearGradient><linearGradient id="b" x1="-1.022" x2="198.321" y1="65.946" y2="65.946" gradientUnits="userSpaceOnUse"><stop stop-color="#1C8AE2"/><stop offset=".486" stop-color="#8B00B3"/><stop offset="1" stop-color="#6900B5"/></linearGradient><linearGradient id="i" x1="-1.022" x2="198.322" y1="113.871" y2="113.871" gradientUnits="userSpaceOnUse"><stop stop-color="#1C8AE2"/><stop offset=".486" stop-color="#8B00B3"/><stop offset="1" stop-color="#6900B5"/></linearGradient><linearGradient id="j" x1="-1.022" x2="198.321" y1="111.929" y2="111.929" gradientUnits="userSpaceOnUse"><stop stop-color="#1C8AE2"/><stop offset=".486" stop-color="#8B00B3"/><stop offset="1" stop-color="#6900B5"/></linearGradient><linearGradient id="k" x1="-1.022" x2="198.321" y1="111.906" y2="111.906" gradientUnits="userSpaceOnUse"><stop stop-color="#1C8AE2"/><stop offset=".486" stop-color="#8B00B3"/><stop offset="1" stop-color="#6900B5"/></linearGradient><linearGradient id="l" x1="-1.023" x2="198.321" y1="111.929" y2="111.929" gradientUnits="userSpaceOnUse"><stop stop-color="#1C8AE2"/><stop offset=".486" stop-color="#8B00B3"/><stop offset="1" stop-color="#6900B5"/></linearGradient><linearGradient id="m" x1="-1.022" x2="198.322" y1="111.929" y2="111.929" gradientUnits="userSpaceOnUse"><stop stop-color="#1C8AE2"/><stop offset=".486" stop-color="#8B00B3"/><stop offset="1" stop-color="#6900B5"/></linearGradient><linearGradient id="n" x1="-1.022" x2="198.321" y1="111.929" y2="111.929" gradientUnits="userSpaceOnUse"><stop stop-color="#1C8AE2"/><stop offset=".486" stop-color="#8B00B3"/><stop offset="1" stop-color="#6900B5"/></linearGradient></defs></svg>