<svg width="200" height="155" fill="none" xmlns="http://www.w3.org/2000/svg"><path d="M53.1 103.9c.2-.2.3-.3.4-.5.1-.2.1-.4.1-.6 0-.2-.1-.4-.1-.6-.1-.2-.2-.3-.4-.4l-.6-.3c-.3-.1-.5-.1-.8-.1-.4 0-.7.1-1 .2-.3.1-.6.3-.9.5l.6.8c.4-.3.9-.5 1.4-.5.2 0 .4 0 .6.2.1.1.2.3.2.4 0 .1 0 .3-.1.3-.1.1-.3.1-.4.1h-1.2v1h1.3c.4 0 .7.2.7.5 0 .2-.1.4-.2.5-.2.1-.5.2-.7.2-.3 0-.6 0-.8-.1-.3-.1-.5-.2-.8-.4l-.6.8.5.3c.2.1.3.2.5.2.2.1.4.1.5.1h.6c.3 0 .6 0 .9-.1.2-.1.5-.2.7-.3.2-.1.3-.3.4-.5.1-.2.1-.4.1-.6 0-.2-.1-.5-.2-.7-.3-.2-.5-.4-.7-.4Z" fill="url(#a)"/><path d="M56.5 104.5h2.3v-1h-2.3v-.9h2.6v-1h-3.7v4.9h3.8v-.9h-2.7v-1.1Z" fill="url(#b)"/><path d="M64.4 102.1c-.2-.2-.4-.3-.6-.4-.3-.1-.5-.1-.8-.1h-2.2v5h1.1v-1.4h1c.3 0 .5 0 .8-.1.2-.1.5-.2.7-.3.2-.2.3-.4.4-.6.1-.2.2-.5.2-.8 0-.3-.1-.5-.2-.7-.1-.3-.2-.5-.4-.6Zm-.8 1.9c-.2.2-.4.2-.7.2h-1v-1.6H63c.2 0 .5.1.7.2.2.2.2.4.2.6 0 .2-.1.4-.3.6Z" fill="url(#c)"/><path d="M69.8 103.5h-2.2v-1.9h-1.1v4.9h1.1v-2h2.2v2h1.1v-4.9h-1.1v1.9Z" fill="url(#d)"/><path d="M76.9 102.2c-.2-.2-.5-.4-.8-.5-.7-.3-1.4-.3-2.1 0-.3.1-.6.3-.8.5-.2.2-.4.5-.5.8-.1.3-.2.7-.2 1 0 .4.1.7.2 1 .2.6.7 1.1 1.4 1.4.7.3 1.4.3 2.1 0 .3-.1.6-.3.8-.6.2-.2.4-.5.5-.8.1-.3.2-.7.2-1 0-.4-.1-.7-.2-1-.1-.2-.3-.5-.6-.8Zm-.4 2.5c-.1.4-.4.7-.8.8-.6.3-1.3.1-1.8-.3-.1-.1-.2-.3-.3-.5-.1-.2-.1-.4-.1-.6 0-.2 0-.4.1-.6.1-.2.2-.4.3-.5.1-.1.3-.3.5-.3.2-.1.4-.1.6-.1.2 0 .4 0 .6.1.2.1.3.2.5.3.1.1.2.3.3.5.1.2.1.4.1.6.1.2 0 .4 0 .6Z" fill="url(#e)"/><path d="M82.7 103.9c.1-.2.3-.3.3-.4.3-.5.1-1.2-.3-1.6-.4-.3-.8-.4-1.3-.4h-2.2v4.9h2.4c.3 0 .6 0 .8-.1l.6-.3c.2-.1.3-.3.3-.5.1-.2.1-.4.1-.6 0-.3-.1-.5-.2-.7-.1-.1-.3-.2-.5-.3Zm-2.4-1.3h1.1c.4 0 .6.2.6.5 0 .1-.1.3-.2.4-.1.1-.3.1-.5.1h-1.1v-1h.1Zm1.4 3h-1.4v-1.2h1.4c.2 0 .4 0 .5.2.1.1.2.3.2.4.1.4-.2.6-.7.6Z" fill="url(#f)"/><path d="M89.3 102.2c-.2-.2-.5-.4-.8-.5-.3-.1-.7-.2-1.1-.2-.4 0-.7.1-1.1.2-.3.1-.6.3-.8.5-.2.2-.4.5-.5.8-.1.3-.2.7-.2 1 0 .4.1.7.2 1 .1.3.3.6.5.8.2.2.5.4.8.5.3.1.7.2 1.1.2.4 0 .7-.1 1.1-.2.3-.1.6-.3.8-.6.2-.2.4-.5.5-.8.1-.3.2-.7.2-1 0-.4-.1-.7-.2-1-.1-.2-.3-.4-.5-.7Zm-.5 2.5c-.1.2-.2.4-.3.5-.1.1-.3.3-.5.3-.2.1-.4.1-.6.1-.2 0-.4 0-.6-.1-.2-.1-.3-.2-.5-.3-.1-.1-.2-.3-.3-.5-.1-.2-.1-.4-.1-.6 0-.2 0-.4.1-.6.1-.2.2-.4.3-.5.1-.1.3-.2.5-.3.2-.1.4-.1.6-.1.2 0 .4 0 .6.1.4.2.7.5.8.8.1.2.1.4.1.6 0 .2 0 .4-.1.6Z" fill="url(#g)"/><path d="M93.2 101.001c.2.1.4.1.5.1.2 0 .4 0 .5-.1.1-.1.3-.2.4-.3.1-.1.2-.3.2-.4.1-.2.1-.3.1-.5h-.8c0 .2-.2.4-.4.5-.1 0-.2 0-.3-.1-.1-.1-.1-.2-.1-.3h-.8c0 .2 0 .4.1.5.1.2.1.3.2.4.1 0 .3.1.4.2Z" fill="url(#h)"/><path d="M92.6 104.9v-3.3h-1.1v4.9h1.1l2.3-3.1v3.1H96v-4.9h-1l-2.4 3.3Z" fill="url(#i)"/><path d="M104.3 102.2c-.2-.2-.5-.4-.8-.5-.3-.1-.7-.2-1-.2-.4 0-.7.1-1.1.2-.3.1-.6.3-.9.5l.6.8c.4-.3.9-.5 1.4-.5.3 0 .7.1.9.3.3.2.4.4.5.8H102v1h1.8c-.1.3-.2.6-.5.8-.3.2-.6.3-1 .3-.5 0-1-.2-1.4-.5l-.7.8c.3.3.6.5.9.6.4.1.8.2 1.1.2.4 0 .7-.1 1.1-.2.3-.1.6-.3.8-.5.2-.2.4-.5.5-.8.1-.3.2-.7.2-1 0-.4 0-.7-.2-1.1.1-.5-.1-.8-.3-1Z" fill="url(#j)"/><path d="M111 101.6h-1.4l-1.4 1.8-.5.1v-1.9h-1.1v4.9h1.1v-2.1h.5l1.5 2.1h1.5l-2.1-2.6 1.9-2.3Z" fill="url(#k)"/><path d="M115.6 105.5c-.2.1-.5.2-.8.2-.2 0-.4 0-.6-.1-.2-.1-.3-.2-.5-.3-.1-.1-.3-.3-.3-.5-.1-.2-.1-.4-.1-.6 0-.2 0-.4.1-.6.1-.2.2-.3.3-.5.1-.1.3-.3.5-.3.2-.1.4-.1.7-.1.3 0 .5 0 .7.1l.6.3.6-.8c-.2-.2-.5-.4-.9-.5-.3-.1-.7-.2-1.1-.2-.4 0-.8.1-1.1.2-.6.3-1.1.8-1.4 1.4-.1.3-.2.7-.2 1 0 .4.1.7.2 1 .1.3.3.6.5.8.2.2.5.4.8.5.3.1.7.2 1.1.2.8 0 1.5-.3 2.1-.8l-.6-.8c-.2.2-.4.3-.6.4Z" fill="url(#l)"/><path d="M118.3 106.5h1.2v-3.9h2.1v3.9h1.1v-4.9h-4.4v4.9Z" fill="url(#m)"/><path d="M128.1 102.1c-.2-.2-.4-.3-.6-.4-.3-.1-.5-.1-.8-.1h-2.2v5h1.1v-1.4h1c.3 0 .5 0 .8-.1.2-.1.5-.2.7-.3.2-.2.3-.4.4-.6.1-.2.2-.5.2-.8 0-.2 0-.5-.1-.7-.2-.3-.4-.5-.5-.6Zm-.9 1.9c-.2.2-.4.2-.7.2h-1v-1.6h1c.2 0 .5.1.7.2.2.2.3.4.2.6.1.2 0 .4-.2.6Z" fill="url(#n)"/><path d="M131.2 104.5h2.4v-1h-2.4v-.9h2.6v-1h-3.7v4.9h3.9v-.9h-2.8v-1.1Z" fill="url(#o)"/><path d="M138.8 105.5c-.2.1-.5.2-.8.2-.2 0-.4 0-.6-.1-.2-.1-.4-.2-.5-.3-.1-.1-.3-.3-.3-.5-.1-.2-.1-.4-.1-.6 0-.2 0-.4.1-.6.1-.2.2-.4.3-.5.1-.1.3-.3.5-.3.2-.1.4-.1.7-.1.3 0 .5 0 .7.1l.6.3.6-.8c-.3-.2-.5-.4-.9-.5-.3-.1-.7-.2-1.1-.2-.4 0-.8.1-1.1.2-.3.1-.6.3-.9.6-.2.2-.4.5-.5.8-.1.3-.2.7-.2 1 0 .4.1.7.2 1 .1.3.3.6.5.8.2.2.5.4.8.5.3.1.7.2 1.1.2.8 0 1.6-.3 2.1-.8l-.6-.8c-.2.1-.4.3-.6.4Z" fill="url(#p)"/><path d="M144.6 105.5c-.2.1-.5.2-.8.2-.2 0-.4 0-.6-.1-.2-.1-.4-.2-.5-.3-.1-.1-.3-.3-.3-.5-.1-.2-.1-.4-.1-.6 0-.2 0-.4.1-.6.1-.2.2-.4.3-.5.1-.1.3-.3.5-.3.2-.1.4-.1.7-.1.3 0 .5 0 .7.1l.6.3.6-.8c-.2-.2-.5-.4-.9-.5-.3-.1-.7-.2-1.1-.2-.4 0-.8.1-1.1.2-.3.1-.6.3-.9.6-.2.2-.4.5-.5.8-.1.3-.2.7-.2 1 0 .4.1.7.2 1 .1.3.3.6.5.8.2.2.5.4.8.5.3.1.7.2 1.1.2.8 0 1.6-.3 2.1-.8l-.6-.8c-.2.1-.4.3-.6.4Z" fill="url(#q)"/><path d="M102 72.5H74.3l-18 18H84l18-18Z" fill="url(#r)"/><path d="M106.6 69.3h27.7l-18.1-18.1H88.5l18.1 18.1Z" fill="url(#s)"/><path d="M74.3 69.3H102L84 51.2H56.2l18.1 18.1Z" fill="url(#t)"/><path d="M134.3 72.5h-27.7l-18.1 18h27.7l18.1-18Z" fill="url(#u)"/><path d="M164.3 72.5h-25.5l-18 18h25.4l18.1-18Z" fill="url(#v)"/><path d="m120.8 51.2 18 18.1h25.5l-18.1-18.1h-25.4Z" fill="url(#w)"/><path d="M166.5 84.4c-4.3 0-7.8 3.5-7.8 7.8s3.5 7.8 7.8 7.8 7.8-3.5 7.8-7.8-3.5-7.8-7.8-7.8Zm0 12.3c-2.5 0-4.5-2-4.5-4.5s2-4.5 4.5-4.5 4.5 2 4.5 4.5c.1 2.5-2 4.5-4.5 4.5Z" fill="url(#x)"/><path d="M36.9 84.4c-4.3 0-7.8 3.5-7.8 7.7s3.5 7.8 7.7 7.8c4.3 0 7.8-3.5 7.8-7.7.1-4.3-3.4-7.8-7.7-7.8Zm0 12.3c-2.5 0-4.5-2-4.5-4.5s2-4.5 4.5-4.5 4.5 2 4.5 4.5c.1 2.5-2 4.5-4.5 4.5Z" fill="url(#y)"/><path d="M0 93.7h22.1v-3.2H2.7L0 93.7Z" fill="url(#z)"/><path d="M177.9 48H38.8l-2.7 3.2h110.1l18.1 18.1 1.6 1.6-1.6 1.6-18.1 18h-90L53 93.7h94.6l3.2-3.2 19.6-19.6-19.6-19.7h25.8l19.3 19.4v19.6h-15.4v3.3h18.6V69.3L177.9 48Z" fill="url(#A)"/><path d="M66 76.4H14.9l-.7.6-2.2 2.6h50.8l3.2-3.2Z" fill="url(#B)"/><path d="M62.8 62.2H27l-1.2 1.1-1.7 2.1H66l-3.2-3.2Z" fill="url(#C)"/><defs><linearGradient id="o" x1="8.308" y1="104.066" x2="197.347" y2="104.066" gradientUnits="userSpaceOnUse"><stop stop-color="#1C8AE2"/><stop offset=".486" stop-color="#8B00B3"/><stop offset="1" stop-color="#6900B5"/></linearGradient><linearGradient id="a" x1="8.308" y1="104.051" x2="197.346" y2="104.051" gradientUnits="userSpaceOnUse"><stop stop-color="#1C8AE2"/><stop offset=".486" stop-color="#8B00B3"/><stop offset="1" stop-color="#6900B5"/></linearGradient><linearGradient id="c" x1="8.308" y1="104.059" x2="197.346" y2="104.059" gradientUnits="userSpaceOnUse"><stop stop-color="#1C8AE2"/><stop offset=".486" stop-color="#8B00B3"/><stop offset="1" stop-color="#6900B5"/></linearGradient><linearGradient id="d" x1="8.307" y1="104.066" x2="197.349" y2="104.066" gradientUnits="userSpaceOnUse"><stop stop-color="#1C8AE2"/><stop offset=".486" stop-color="#8B00B3"/><stop offset="1" stop-color="#6900B5"/></linearGradient><linearGradient id="e" x1="8.307" y1="104.079" x2="197.348" y2="104.079" gradientUnits="userSpaceOnUse"><stop stop-color="#1C8AE2"/><stop offset=".486" stop-color="#8B00B3"/><stop offset="1" stop-color="#6900B5"/></linearGradient><linearGradient id="f" x1="8.307" y1="104.065" x2="197.349" y2="104.065" gradientUnits="userSpaceOnUse"><stop stop-color="#1C8AE2"/><stop offset=".486" stop-color="#8B00B3"/><stop offset="1" stop-color="#6900B5"/></linearGradient><linearGradient id="g" x1="8.308" y1="104.066" x2="197.347" y2="104.066" gradientUnits="userSpaceOnUse"><stop stop-color="#1C8AE2"/><stop offset=".486" stop-color="#8B00B3"/><stop offset="1" stop-color="#6900B5"/></linearGradient><linearGradient id="h" x1="8.307" y1="100.412" x2="197.349" y2="100.412" gradientUnits="userSpaceOnUse"><stop stop-color="#1C8AE2"/><stop offset=".486" stop-color="#8B00B3"/><stop offset="1" stop-color="#6900B5"/></linearGradient><linearGradient id="i" x1="8.307" y1="104.066" x2="197.348" y2="104.066" gradientUnits="userSpaceOnUse"><stop stop-color="#1C8AE2"/><stop offset=".486" stop-color="#8B00B3"/><stop offset="1" stop-color="#6900B5"/></linearGradient><linearGradient id="j" x1="8.307" y1="104.066" x2="197.349" y2="104.066" gradientUnits="userSpaceOnUse"><stop stop-color="#1C8AE2"/><stop offset=".486" stop-color="#8B00B3"/><stop offset="1" stop-color="#6900B5"/></linearGradient><linearGradient id="k" x1="8.308" y1="104.066" x2="197.347" y2="104.066" gradientUnits="userSpaceOnUse"><stop stop-color="#1C8AE2"/><stop offset=".486" stop-color="#8B00B3"/><stop offset="1" stop-color="#6900B5"/></linearGradient><linearGradient id="l" x1="8.307" y1="104.086" x2="197.348" y2="104.086" gradientUnits="userSpaceOnUse"><stop stop-color="#1C8AE2"/><stop offset=".486" stop-color="#8B00B3"/><stop offset="1" stop-color="#6900B5"/></linearGradient><linearGradient id="m" x1="8.308" y1="104.066" x2="197.347" y2="104.066" gradientUnits="userSpaceOnUse"><stop stop-color="#1C8AE2"/><stop offset=".486" stop-color="#8B00B3"/><stop offset="1" stop-color="#6900B5"/></linearGradient><linearGradient id="n" x1="8.307" y1="104.059" x2="197.348" y2="104.059" gradientUnits="userSpaceOnUse"><stop stop-color="#1C8AE2"/><stop offset=".486" stop-color="#8B00B3"/><stop offset="1" stop-color="#6900B5"/></linearGradient><linearGradient id="b" x1="8.308" y1="104.066" x2="197.348" y2="104.066" gradientUnits="userSpaceOnUse"><stop stop-color="#1C8AE2"/><stop offset=".486" stop-color="#8B00B3"/><stop offset="1" stop-color="#6900B5"/></linearGradient><linearGradient id="p" x1="8.309" y1="104.066" x2="197.347" y2="104.066" gradientUnits="userSpaceOnUse"><stop stop-color="#1C8AE2"/><stop offset=".486" stop-color="#8B00B3"/><stop offset="1" stop-color="#6900B5"/></linearGradient><linearGradient id="q" x1="8.307" y1="104.066" x2="197.348" y2="104.066" gradientUnits="userSpaceOnUse"><stop stop-color="#1C8AE2"/><stop offset=".486" stop-color="#8B00B3"/><stop offset="1" stop-color="#6900B5"/></linearGradient><linearGradient id="r" x1="8.307" y1="81.504" x2="197.348" y2="81.504" gradientUnits="userSpaceOnUse"><stop stop-color="#1C8AE2"/><stop offset=".486" stop-color="#8B00B3"/><stop offset="1" stop-color="#6900B5"/></linearGradient><linearGradient id="s" x1="8.307" y1="60.233" x2="197.348" y2="60.233" gradientUnits="userSpaceOnUse"><stop stop-color="#1C8AE2"/><stop offset=".486" stop-color="#8B00B3"/><stop offset="1" stop-color="#6900B5"/></linearGradient><linearGradient id="t" x1="8.308" y1="60.233" x2="197.348" y2="60.233" gradientUnits="userSpaceOnUse"><stop stop-color="#1C8AE2"/><stop offset=".486" stop-color="#8B00B3"/><stop offset="1" stop-color="#6900B5"/></linearGradient><linearGradient id="u" x1="8.307" y1="81.504" x2="197.348" y2="81.504" gradientUnits="userSpaceOnUse"><stop stop-color="#1C8AE2"/><stop offset=".486" stop-color="#8B00B3"/><stop offset="1" stop-color="#6900B5"/></linearGradient><linearGradient id="v" x1="8.307" y1="81.504" x2="197.348" y2="81.504" gradientUnits="userSpaceOnUse"><stop stop-color="#1C8AE2"/><stop offset=".486" stop-color="#8B00B3"/><stop offset="1" stop-color="#6900B5"/></linearGradient><linearGradient id="w" x1="8.307" y1="60.233" x2="197.348" y2="60.233" gradientUnits="userSpaceOnUse"><stop stop-color="#1C8AE2"/><stop offset=".486" stop-color="#8B00B3"/><stop offset="1" stop-color="#6900B5"/></linearGradient><linearGradient id="x" x1="8.307" y1="92.14" x2="197.348" y2="92.14" gradientUnits="userSpaceOnUse"><stop stop-color="#1C8AE2"/><stop offset=".486" stop-color="#8B00B3"/><stop offset="1" stop-color="#6900B5"/></linearGradient><linearGradient id="y" x1="8.307" y1="92.14" x2="197.348" y2="92.14" gradientUnits="userSpaceOnUse"><stop stop-color="#1C8AE2"/><stop offset=".486" stop-color="#8B00B3"/><stop offset="1" stop-color="#6900B5"/></linearGradient><linearGradient id="z" x1="8.307" y1="92.132" x2="197.349" y2="92.132" gradientUnits="userSpaceOnUse"><stop stop-color="#1C8AE2"/><stop offset=".486" stop-color="#8B00B3"/><stop offset="1" stop-color="#6900B5"/></linearGradient><linearGradient id="A" x1="8.307" y1="70.869" x2="197.348" y2="70.869" gradientUnits="userSpaceOnUse"><stop stop-color="#1C8AE2"/><stop offset=".486" stop-color="#8B00B3"/><stop offset="1" stop-color="#6900B5"/></linearGradient><linearGradient id="B" x1="8.307" y1="77.96" x2="197.348" y2="77.96" gradientUnits="userSpaceOnUse"><stop stop-color="#1C8AE2"/><stop offset=".486" stop-color="#8B00B3"/><stop offset="1" stop-color="#6900B5"/></linearGradient><linearGradient id="C" x1="8.307" y1="63.778" x2="197.348" y2="63.778" gradientUnits="userSpaceOnUse"><stop stop-color="#1C8AE2"/><stop offset=".486" stop-color="#8B00B3"/><stop offset="1" stop-color="#6900B5"/></linearGradient></defs></svg>