<svg width="200" height="155" fill="none" xmlns="http://www.w3.org/2000/svg"><path d="M54.3 78.4c-.1-.2-.2-.4-.2-.7-.1-.2-.1-.5-.2-.7-.4.5-1 .9-1.5 1.2-.6.3-1.4.5-2.1.5-1.1.1-2.2-.3-3.1-1.1-.8-.8-1.2-1.8-1.1-2.9-.1-1.2.5-2.3 1.5-2.9 1.3-.8 2.8-1.1 4.4-1h1.8v-1.3c0-.6-.2-1.1-.6-1.5-.4-.4-1-.6-1.6-.5-.4 0-.7 0-1.1.1-.3.1-.5.2-.8.3l-.2 1.4h-2.7v-2.9c.7-.5 1.5-.8 2.3-1.1.9-.3 1.8-.5 2.7-.5 1.4-.1 2.8.4 4 1.2 1 .8 1.6 2.1 1.5 3.4V76l1.1.2v2.2h-4.1Zm-3.1-2.5c.5 0 1-.1 1.5-.3.4-.2.8-.5 1-.9v-2.1h-1.8c-.6 0-1.2.1-1.7.5-.4.3-.6.8-.6 1.3 0 .4.1.8.4 1 .4.4.8.5 1.2.5Zm16.2-10.8c1.4-.1 2.8.2 4.1.9.9.6 1.5 1.6 1.5 2.7 0 .6-.2 1.2-.6 1.6-.5.5-1.1.9-1.7 1.1.9.1 1.6.5 2.3 1.1.5.5.8 1.2.7 1.9.1 1.1-.4 2.2-1.4 2.8-1.2.7-2.6 1-4 .9H60V76l1.9-.4v-8.2L60 67v-2.1h7.4v.2Zm-2 7.7v2.7h2.8c.5 0 1-.1 1.4-.4.3-.2.5-.6.5-.9 0-.4-.1-.8-.4-1.1-.4-.3-.9-.4-1.4-.4l-2.9.1Zm0-2.3h2.2c.5 0 .9-.1 1.4-.3.3-.2.5-.6.4-.9 0-.4-.2-.8-.5-1.1-.5-.3-1-.4-1.5-.3h-2v2.6Zm23.4-5.4v4.5h-2.7l-.2-1.8h-2.2v8l1.9.4v2.2h-7.3v-2.2l1.9-.4v-8H78l-.2 1.8h-2.7v-4.5h13.7Zm1.1 6.4c-.1-1.8.5-3.5 1.7-4.8 2.5-2.5 6.6-2.5 9.1 0 1.1 1.3 1.7 3.1 1.7 4.8v.3c.1 1.8-.5 3.5-1.7 4.8-1.2 1.3-2.8 2-4.5 1.9-1.7.1-3.4-.6-4.6-1.9-1.1-1.4-1.7-3.1-1.7-4.8v-.3Zm3.6.3c0 1 .2 2 .6 2.9.4.7 1.2 1.1 2.1 1.1.8.1 1.6-.4 2-1.1.5-.9.7-1.9.6-2.9v-.3c0-1-.2-2-.6-2.8-.7-1.1-2.2-1.5-3.4-.7-.3.2-.5.4-.7.7-.4.9-.7 1.8-.6 2.8v.3Zm20.4 2.3 3.4-9h6.3v2.2l-1.9.4v8.2l1.9.4v2.2h-6.8v-2.2l1.4-.4v-5.4h-.1l-3 7.9h-2.4l-3-7.8v5.2l1.4.4v2.2h-6.8v-2.2l1.9-.4v-8.2l-1.9-.4v-2.1h6.3l3.3 9Zm19.9 4.3c-.1-.2-.2-.4-.3-.7-.1-.2-.1-.5-.2-.7-.4.5-1 .9-1.5 1.2-.7.3-1.4.5-2.1.5-1.1.1-2.2-.3-3.1-1.1-.8-.8-1.3-1.8-1.2-2.9 0-1.1.5-2.2 1.5-2.9 1.3-.8 2.8-1.1 4.4-1h1.8v-1.3c0-.6-.2-1.1-.5-1.5-.4-.4-1-.6-1.6-.5-.4 0-.7 0-1.1.1-.3.1-.5.2-.8.3l-.2 1.4h-2.7v-2.9c.7-.5 1.4-.8 2.2-1.1.9-.3 1.8-.5 2.7-.5 1.5-.1 2.9.3 4.1 1.2 1 .8 1.6 2.1 1.5 3.4v6.5l1.1.2v2.2h-4v.1Zm-3.1-2.4c.5 0 1-.1 1.5-.4.4-.2.8-.5 1-.9v-2.1h-1.8c-.6 0-1.2.1-1.7.5-.4.3-.6.8-.6 1.3 0 .4.1.8.4 1 .4.4.8.5 1.2.6Zm21.9-10.9v4.5h-2.7l-.2-1.8h-2.3v8l1.9.4v2.2h-7.4v-2.2l1.9-.4v-8h-2.2l-.1 1.8h-2.7v-4.5h13.8Zm8.9 0v2.1l-1.7.4v5.5l4.3-8h5.5v2.2l-1.7.4v8.2l1.9.4v2.2h-7.2v-2.2l1.7-.4v-5.5l-4.4 8h-5.5v-2.2l1.9-.4v-8.2l-1.9-.4v-2.1h7.1Zm10.1 2.1v-2.1h7.1v2.1l-1.6.4v2.6h1.2l2-2.9c.4-.7.9-1.3 1.6-1.7.9-.6 2.1-.7 3.1-.4.3.1.7.3 1 .5l-.6 2.5-.5-.1h-.3c-.3 0-.5.1-.8.3-.3.2-.5.4-.7.7l-1.6 2.4 3.1 4.6 1.8.3v2.2h-4.9l-2.9-4.9h-1.4v2.4l1.6.4v2.1h-7.1v-2.2l1.9-.4v-8.2l-2-.6ZM196 78.4c-.1-.2-.2-.4-.3-.7-.1-.2-.1-.5-.2-.7-.4.5-1 .9-1.6 1.2-.6.3-1.4.5-2.1.5-1.1.1-2.2-.3-3.1-1.1-.8-.7-1.2-1.8-1.1-2.9 0-1.1.5-2.2 1.5-2.9 1.3-.8 2.8-1.1 4.4-1h1.8v-1.4c0-.6-.2-1.1-.5-1.5-.5-.4-1-.6-1.6-.5-.4 0-.7 0-1.1.1-.3.1-.5.2-.8.3l-.2 1.4h-2.7v-2.9c.7-.5 1.4-.8 2.2-1.1.9-.3 1.8-.5 2.7-.5 1.5-.1 2.9.3 4.1 1.2 1 .8 1.6 2.1 1.5 3.4v6.5l1.1.2v2.2h-4v.2Zm-3.1-2.4c.5 0 1-.1 1.5-.3.4-.2.8-.5 1-.9v-2.1h-1.8c-.6 0-1.2.1-1.7.5-.4.3-.6.8-.6 1.3 0 .4.1.8.4 1 .3.3.8.4 1.2.5Z" fill="url(#a)"/><path d="M50.1 87.7v-.8H52v.6c.1-.2.3-.4.5-.5.2-.1.5-.2.7-.2.5 0 1.1.3 1.4.7.4.5.5 1.2.5 1.8v.1c0 .6-.1 1.2-.5 1.7-.3.4-.8.7-1.4.6-.2 0-.5 0-.7-.1-.2-.1-.4-.2-.5-.4v1.4l.6.1v.8h-2.5v-.8l.6-.1v-4.8l-.6-.1Zm3.7 1.7c0-.4-.1-.8-.2-1.1-.1-.3-.4-.4-.7-.4-.2 0-.4 0-.5.1-.1.1-.3.2-.3.3v2.1l.3.3c.2.1.3.1.5.1.3 0 .6-.1.7-.4.2-.2.2-.6.2-1Zm1.9-.1c0-.6.2-1.3.6-1.8.9-.9 2.4-.9 3.4 0 .4.5.6 1.1.6 1.8v.1c0 .6-.2 1.3-.6 1.8-.9.9-2.4.9-3.4 0-.4-.6-.6-1.2-.6-1.9Zm1.3.1c0 .4.1.7.2 1.1.2.3.4.4.8.4.3 0 .6-.1.7-.4.2-.3.3-.7.2-1.1v-.1c0-.4-.1-.7-.2-1.1-.1-.3-.4-.4-.7-.4-.3 0-.6.1-.8.4-.1.3-.2.7-.2 1.2Zm6.3-2.2c.6 0 1.2.2 1.6.6.4.4.6 1 .6 1.6v.1c0 .6-.2 1.2-.6 1.7-1 .9-2.4.9-3.4 0-.4-.5-.6-1.1-.6-1.7v-.6c-.1-.9.2-1.7.6-2.4.4-.6 1-.9 1.6-1.1.2 0 .4-.1.6-.2.1-.1.2-.2.2-.4h1c.1.4-.1.9-.4 1.1-.4.2-.9.4-1.4.4-.3 0-.6.2-.8.4-.2.2-.3.5-.4.9.2-.1.4-.3.6-.4.4 0 .6-.1.8 0Zm-.1.9c-.3 0-.6.1-.7.3-.2.3-.3.6-.2.9v.1c0 .3.1.7.2 1 .2.3.4.4.7.4.3 0 .6-.1.7-.4.2-.3.3-.6.2-1v-.1c0-.3-.1-.6-.2-.9-.1-.1-.4-.3-.7-.3Zm2.9 1.1c0-.6.2-1.3.6-1.8.4-.5 1-.7 1.7-.7.6 0 1.2.2 1.7.7.4.5.6 1.1.6 1.8v.1c0 .6-.2 1.3-.6 1.8-.9.9-2.4.9-3.3 0-.5-.5-.7-1.1-.7-1.9Zm1.3.1c0 .4.1.7.2 1.1.3.4.8.5 1.3.2.1-.1.2-.1.2-.2.2-.3.2-.7.2-1.1v-.1c0-.4-.1-.7-.2-1.1-.2-.3-.4-.4-.8-.4-.3 0-.6.1-.7.4-.1.4-.2.8-.2 1.2Zm8.7-2.4v1.7h-1l-.2-.6h-.8v2.9l.7.1v.8h-2.6V91l.7-.1V88h-.8v.7H71v-1.6l5.1-.2Zm3.3 0v.8l-.6.1v2l1.6-2.9h2v.8l-.7.1v3l.7.1v.8h-2.7v-.8l.6-.1v-2l-1.6 2.9h-2v-.8l.7-.1v-2.9l-.7-.1V87h2.6l.1-.1Zm5.7 1.9c.2 0 .3 0 .5-.1.1-.1.2-.2.2-.4 0-.1-.1-.3-.2-.4-.1-.1-.3-.2-.5-.2s-.4 0-.6.2c-.1.1-.2.2-.2.4H83c0-.4.2-.8.5-1.1.4-.3.9-.4 1.4-.4.5 0 1 .1 1.5.4.3.2.5.6.5 1 0 .2-.1.4-.2.6-.1.2-.3.3-.5.4.2.1.5.2.6.4.1.2.2.4.2.7 0 .4-.2.8-.6 1.1-.5.3-1 .4-1.5.4s-1-.1-1.4-.4c-.4-.2-.6-.7-.6-1.1h1.3c0 .2.1.3.2.4.2.1.4.2.6.2.2 0 .4 0 .5-.2.2-.2.2-.6 0-.9-.2-.1-.4-.2-.5-.2h-.7v-.8h.8Zm5.7 2.9c0-.1-.1-.2-.1-.2v-.2c-.2.2-.4.3-.6.4-.2.1-.5.2-.8.2-.4 0-.8-.1-1.1-.4-.3-.3-.4-.7-.4-1.1 0-.4.2-.8.5-1.1.5-.3 1-.4 1.6-.4h.7v-.5c0-.2-.1-.4-.2-.5-.2-.1-.4-.2-.6-.2h-.4l-.3.1-.1.5h-1v-1.1c.3-.2.5-.3.8-.4.3-.1.7-.2 1-.2.5 0 1 .1 1.5.4.4.3.6.8.6 1.3V90.7h.4v.8l-1.5.2Zm-1.1-.9c.2 0 .4 0 .5-.1.1-.1.3-.2.4-.3v-.7h-.7c-.2 0-.4.1-.6.2-.1.1-.2.3-.2.5 0 .1.1.3.2.4h.4Zm7.9-3.9v3.8h.7l-.2 2.5h-1.2v-1.4h-4.2V91l.7-.1V88l-.7-.1v-.8h2.6v.8l-.6.1v2.9h1.6V88l-.6-.1v-.8h1.9v-.2Zm.7 0v.8l-.7.1v-.9h.7Zm3.4 0v.8l-.6.1v2l1.6-2.9h2v.8l-.7.1v3l.7.1v.8H102v-.8l.6-.1v-2l-1.6 2.9h-2v-.8l.7-.1v-2.9l-.7-.1V87h2.6l.1-.1ZM108 91l.6-.1v-.8h-.9l-.9 1.7h-1.4V91l.6-.1.6-1c-.3-.1-.5-.3-.7-.5-.2-.2-.2-.5-.2-.8 0-.5.2-.9.6-1.2.4-.3 1-.5 1.5-.4h2.8v.8l-.7.1v3l.7.1v.8h-2.7l.1-.8Zm-1-2.5c0 .2.1.3.2.4.1.1.3.2.5.2h.8v-1.3h-.9c-.2 0-.4.1-.6.2v.5Zm9.1-1.6v.8l-.6.1v2l1.6-2.9h2v.8l-.7.1v3l.7.1v.8h-2.6v-.8l.6-.1v-2l-1.6 2.9h-2v-.8l.7-.1v-2.9l-.7-.1V87l2.6-.1Zm8.9 4.8c0-.1-.1-.2-.1-.2v-.2c-.2.2-.3.3-.6.4-.2.1-.5.2-.8.2-.4 0-.8-.1-1.1-.4-.3-.3-.4-.7-.4-1.1 0-.4.2-.8.5-1.1.5-.3 1-.4 1.5-.4h.7v-.5c0-.2-.1-.4-.2-.5-.2-.1-.4-.2-.6-.2h-.4l-.3.1-.1.5h-1v-1.1c.3-.2.5-.3.8-.4.3-.1.7-.2 1-.2.5 0 1 .1 1.5.4.4.3.6.8.6 1.3V90.7h.4v.8l-1.4.2Zm-1.1-.8c.4 0 .7-.2.9-.5v-.7h-.7c-.2 0-.4.1-.6.2-.1.1-.2.3-.2.5 0 .1.1.3.2.4.1 0 .2.1.4.1Zm5.9-4c.5 0 1 .1 1.5.3.3.2.6.6.5 1 0 .2-.1.4-.2.6-.2.2-.4.3-.7.4.3 0 .6.2.8.4.2.2.3.4.3.7 0 .4-.2.8-.5 1-.4.3-1 .4-1.5.3h-3v-.8l.7-.1v-2.9l-.7-.1v-.8h2.8Zm-.7 2.8v1h1c.2 0 .4 0 .5-.1.1-.1.2-.2.2-.4 0-.1-.1-.3-.2-.4-.1-.1-.3-.2-.5-.1h-1Zm0-.8h.8c.2 0 .3 0 .5-.1.1-.1.2-.2.2-.4s-.1-.3-.2-.4c-.2-.1-.4-.1-.5-.1h-.7v1h-.1Zm8.5-2v1.7h-1v-.7h-.8v2.9l.7.1v.8h-2.7v-.8l.7-.1v-2.9h-.8v.7h-1V87l4.9-.1Zm.4 2.4c0-.6.2-1.3.6-1.8.9-.9 2.4-.9 3.3 0 .4.5.6 1.1.6 1.8v.1c0 .6-.2 1.3-.6 1.8-.9.9-2.4.9-3.3 0-.4-.5-.6-1.2-.6-1.9Zm1.4.1c0 .4.1.7.2 1.1.2.3.4.4.8.4.3 0 .6-.1.7-.4.2-.3.3-.7.2-1.1v-.1c0-.4-.1-.7-.2-1.1-.2-.3-.4-.4-.8-.4-.3 0-.6.1-.7.4-.2.3-.2.7-.2 1.1v.1Zm7.5.8 1.2-3.3h2.3v.8l-.7.1v3l.7.1v.8h-2.5v-.8l.5-.1v-1.9l-1.1 2.9h-.9l-1.1-2.8v1.9l.5.1v.8h-2.5V91l.7-.1V88l-.7-.1v-.8h2.3l1.3 3.1Zm7.2 1.6c0-.1-.1-.2-.1-.2v-.2c-.2.2-.4.3-.6.4-.2.1-.5.2-.8.2-.4 0-.8-.1-1.1-.4-.3-.3-.4-.7-.4-1.1 0-.4.2-.8.5-1.1.5-.3 1-.4 1.6-.4h.7v-.5c0-.2-.1-.4-.2-.5-.2-.1-.4-.2-.6-.2h-.4l-.3.1-.1.5h-1v-1.1c.3-.2.5-.3.8-.4.3-.1.7-.2 1-.2.5 0 1 .1 1.5.4.4.3.6.8.6 1.3V90.8h.4v.8l-1.5.2Zm-1.1-.9c.2 0 .4 0 .5-.1.1-.1.3-.2.4-.3v-.7h-.7c-.2 0-.4.1-.6.2-.1.1-.2.3-.2.5 0 .1.1.3.2.4.1-.1.3 0 .4 0Zm8-4v1.7h-1v-.7h-.8v2.9l.7.1v.8h-2.7v-.8l.7-.1v-2.9h-.8v.7h-1V87h4.9v-.1Zm3.3 0v.8l-.6.2v2l1.6-2.9h2v.8l-.7.1v3l.7.1v.8h-2.6V91l.6-.1v-2.1l-1.6 2.9h-2v-.8l.7-.1v-2.9l-.7-.1V87l2.6-.1Zm5.7 2c.2 0 .3 0 .5-.1.1-.1.2-.2.2-.4s0-.3-.1-.4c-.1-.1-.3-.2-.5-.2s-.4 0-.5.2c-.1.1-.2.2-.2.4h-1.3c0-.4.2-.8.5-1.1.4-.3.9-.4 1.4-.4.5 0 1 .1 1.5.4.4.2.6.6.5 1 0 .2-.1.4-.2.6-.1.2-.3.3-.5.4.2.1.5.2.6.4.2.2.2.4.2.7 0 .4-.2.8-.6 1.1-.5.3-1 .4-1.5.4s-1-.1-1.4-.4c-.4-.2-.6-.7-.6-1.1h1.2c0 .2.1.3.2.4.2.1.4.2.6.2.2 0 .4 0 .5-.2.2-.2.2-.6 0-.9-.2-.1-.4-.2-.6-.2h-.7v-.8h.8Zm5.7 2.9c0-.1-.1-.2-.1-.2 0-.1-.1-.2-.1-.2-.3.4-.8.6-1.4.6-.4 0-.8-.1-1.1-.4-.3-.3-.4-.7-.4-1.1 0-.4.2-.8.5-1.1.5-.3 1-.4 1.6-.4h.7v-.5c0-.2-.1-.4-.2-.5-.2-.1-.4-.2-.6-.2h-.4l-.3.1-.1.5h-1v-1.1c.3-.2.5-.3.8-.4.3-.1.7-.2 1-.2.5 0 1 .1 1.4.4.4.3.6.8.6 1.3V90.8h.4v.8l-1.3.2Zm-1.1-.9c.2 0 .4-.1.5-.1.1-.1.3-.2.4-.3v-.7h-.7c-.2 0-.4.1-.6.2-.1.1-.2.3-.2.5 0 .1.1.3.2.4h.4Zm7.9-4v3.8h.7l-.1 2.4h-1.2v-1.4h-4.3v-.8l.7-.1v-2.9l-.7-.1V87h2.6v.8l-.6.1v2.9h1.6v-2.9l-.6-.1V87l1.9-.1Zm.7 0v.8l-.7.1v-.9h.7Zm3.4 0v.8l-.6.1v2l1.6-2.9h2.1v.8l-.7.1v3l.7.1v.8H187v-.8l.6-.1v-2l-1.6 2.9h-2v-.8l.7-.1v-2.9l-.7-.1V87l2.6-.1Zm6.3 4.1.6-.1v-.8h-.8l-.9 1.7h-1.4V91l.6-.1.6-1c-.3-.1-.5-.3-.7-.5-.2-.2-.2-.5-.2-.8 0-.5.2-.9.6-1.2.4-.3 1-.5 1.5-.5h2.8v.8l-.7.1v3l.7.1v.8H193l-.1-.7Zm-1-2.4c0 .2.1.3.2.4.1.1.3.2.5.2h.9v-1.3h-.8c-.2 0-.4.1-.6.2-.1.1-.2.3-.2.5Z" fill="url(#b)"/><path d="M199.9 82.4H46.3v1h153.6v-1Z" fill="url(#c)"/><path fill-rule="evenodd" clip-rule="evenodd" d="M25.3 62c3.6 0 7.1 1.3 9.8 3.7l-3.5 3.5c-1.8-1.4-4-2.2-6.3-2.2-5.5 0-10 4.5-10 10 0 2.3.8 4.5 2.2 6.3L14 86.8C8.6 80.5 9.3 71 15.6 65.6c2.7-2.3 6.2-3.6 9.7-3.6Zm15.4 26.3-3-3c3.8-5.6 3.3-13.1-1.1-18.2l-3.5 3.5c3.5 4.2 3 10.5-1.2 14.1-3.7 3.1-9.1 3.1-12.9 0l-3.5 3.5c5.1 4.4 12.6 4.9 18.2 1.1l3.1 3c.7.7 1.9.7 2.6 0l1.4-1.4c.6-.7.7-1.8-.1-2.6Z" fill="url(#d)"/><path fill-rule="evenodd" clip-rule="evenodd" d="M25.3 69.1c4.3 0 7.8 3.5 7.8 7.8s-3.5 7.8-7.8 7.8-7.8-3.5-7.8-7.8c0-4.2 3.5-7.8 7.8-7.8Z" fill="url(#e)"/><path fill-rule="evenodd" clip-rule="evenodd" d="M2.3 86.9V67.3h-.7c-.9 0-1.6-.7-1.6-1.6v-1.8c0-.9.7-1.6 1.6-1.6h6.7c.9 0 1.6.7 1.6 1.6v1.8c0 .9-.7 1.6-1.6 1.6h-.7v19.6h.7c.9 0 1.6.7 1.6 1.6v1.8c0 .9-.7 1.6-1.6 1.7H1.6C.7 92 0 91.3 0 90.3v-1.8c0-.9.7-1.6 1.6-1.6h.7Z" fill="url(#f)"/><defs><linearGradient id="a" x1="-1.141" y1="71.715" x2="199.198" y2="71.715" gradientUnits="userSpaceOnUse"><stop stop-color="#1C8AE2"/><stop offset=".486" stop-color="#8B00B3"/><stop offset="1" stop-color="#6900B5"/></linearGradient><linearGradient id="b" x1="-1.141" y1="89.195" x2="199.198" y2="89.195" gradientUnits="userSpaceOnUse"><stop stop-color="#1C8AE2"/><stop offset=".486" stop-color="#8B00B3"/><stop offset="1" stop-color="#6900B5"/></linearGradient><linearGradient id="c" x1="-1.141" y1="82.889" x2="199.198" y2="82.889" gradientUnits="userSpaceOnUse"><stop stop-color="#1C8AE2"/><stop offset=".486" stop-color="#8B00B3"/><stop offset="1" stop-color="#6900B5"/></linearGradient><linearGradient id="d" x1="-1.141" y1="77.429" x2="199.199" y2="77.429" gradientUnits="userSpaceOnUse"><stop stop-color="#1C8AE2"/><stop offset=".486" stop-color="#8B00B3"/><stop offset="1" stop-color="#6900B5"/></linearGradient><linearGradient id="e" x1="-1.141" y1="76.944" x2="199.2" y2="76.944" gradientUnits="userSpaceOnUse"><stop stop-color="#1C8AE2"/><stop offset=".486" stop-color="#8B00B3"/><stop offset="1" stop-color="#6900B5"/></linearGradient><linearGradient id="f" x1="-1.141" y1="77.136" x2="199.201" y2="77.136" gradientUnits="userSpaceOnUse"><stop stop-color="#1C8AE2"/><stop offset=".486" stop-color="#8B00B3"/><stop offset="1" stop-color="#6900B5"/></linearGradient></defs></svg>