<svg width="199" height="155" fill="none" xmlns="http://www.w3.org/2000/svg"><g clip-path="url(#a)"><path d="m62.8 91.1-1.2-2.4 1-14.9-5.3-4-5.1-9.2 8.1-11.5-12 2.2-1.8-10.8-8.4 6.8L31.3 34l-6.8 13.3-8.3-6.9-1.8 10.9-11.9-2.2 8.1 11.5-5.1 9.2-5.3 4 1 14.9L0 91.1l7.8 10.6-.4 5.1L19.7 117l11.8 3.9 11.8-3.9 12.3-10.2-.5-5.1 7.7-10.6Zm-2.5-16.3-.7 10.3-3.1-5.9-12-2.7-1.3-8 12.3 2.8 4.8 3.5Zm-6.4-6.1-11-2.5L32.4 69v-7.6l10.3-2.7 6.8 1.5 4.4 8.5ZM7.3 52.2l8.9 1.6 1.6-9.3 7.6 6.1 6.1-11.9 6.1 11.9 7.5-6.1 1.6 9.3 8.9-1.6-4.5 6.1-8.5-1.8-11.1 3-11.1-2.9-8.5 1.8-4.6-6.2Zm5.9 8.1 6.8-1.5 10.3 2.7V69l-10.5-2.8-11.3 2.5 4.7-8.4Zm16 22.1v3.7L19 84.2l2.2-4.2 8 2.4ZM7.1 71.3l12.2-2.8-1.2 8-12 2.7L3 85.1l-.7-10.3 4.8-3.5Zm.8 27.1-5.5-7.5 5.1-9.8 8.6-1.9-1.7 6.3-6.1 8.2-.4 4.7Zm10 14.4-8.4-7 .9-11.3 4.6-6.2 5.8 8.7-3.7 6.9.8 8.9Zm24.2 2.3-10.7 3.5-10.7-3.5-.8-10.6 3.3-6.1 4.9-2.1 3.3 1.4h1V82.8l8.9-2.8 2.2 4.2-7.5 1.4v11.2l3.5 1.4 3.3 6.1-.7 10.8Zm2.7-2.3.8-8.8-3.7-6.9 5.8-8.7 4.6 6.2.9 11.3-8.4 6.9Zm9.5-19.1-6.1-8.2-1.7-6.3 8.6 1.9 5.1 9.8-5.5 7.5-.4-4.7Zm-24.7 9.8-.7 1.7-3.3-1.1 1-2.3h9.6l1 2.3-3.3 1.1-.6-1.7h-3.7Z" fill="url(#b)"/><path d="m79.5 62.3 2.3 2.8v18.4h3.8v-9.1H90v9.1h3.8V62.3H90v9.2h-4.4v-9.2h-6.1Z" fill="url(#c)"/><path d="m106.4 62.3-2.7 10.9-2.9-10.9h-3.9l4.9 14.5v6.7h3.9v-6.8l4.6-14.4h-3.9Z" fill="url(#d)"/><path d="m111.9 62.3 2.3 2.8v18.4h3.8v-7.8h3.9c2.4 0 3.7-1.1 3.7-3.3v-6.8c0-2.2-1.2-3.3-3.7-3.3h-10Zm9.9 9.5c0 .3 0 .5-.2.7-.2.1-.5.2-.7.2h-2.8v-7.4h2.8c.3 0 .5 0 .7.2.2.2.2.5.2.7v5.6Z" fill="url(#e)"/><path d="m127.9 62.3 2.4 2.8v18.4h10.3v-3h-6.5v-6.4h5.2v-3h-5.2v-5.8h6.2v-3h-12.4Z" fill="url(#f)"/><path d="m142.6 62.3 2.3 2.8v18.4h3.8v-8.3h1.3l3.2 8.3h4.2l-3.5-8.4c1.5-.2 2.6-1.6 2.5-3.2V65.5c0-2.2-1.2-3.3-3.6-3.3l-10.2.1Zm9.9 9.1c0 .3 0 .5-.2.7-.2.1-.5.2-.7.2h-2.8v-7.1h2.8c.3 0 .5 0 .7.2.2.2.2.5.2.7v5.3Z" fill="url(#g)"/><path d="M165.5 62.3h-3.8v21.1h3.8V62.3Z" fill="url(#h)"/><path d="M178.6 62.3h-4.1c-2.4 0-3.6 1.1-3.6 3.4v14.5c0 2.2 1.2 3.3 3.6 3.3h4.1c2.4 0 3.7-1.1 3.7-3.3V65.7c0-2.3-1.2-3.4-3.7-3.4Zm-.2 17.3c0 .3 0 .5-.2.7-.2.1-.5.2-.7.2h-1.8c-.3 0-.5 0-.8-.2-.2-.2-.2-.5-.2-.7V66.2c0-.4 0-.6.2-.7.2-.2.5-.2.8-.2h1.8c.3 0 .5 0 .7.2.2.2.2.5.2.7v13.4Z" fill="url(#i)"/><path d="m185.3 62.3 2.3 2.8v18.4h3.5V69.4l4.6 14.1h3.6V62.3h-3.5v13.8l-4.5-13.8h-6Z" fill="url(#j)"/><path d="m94.4 90.6 2.3 2.8v14.9c0 2.2 1.2 3.3 3.6 3.3h4.1c2.4 0 3.6-1.1 3.6-3.3V90.5h-3.9v17.2c0 .3 0 .5-.2.7-.2.2-.5.2-.8.2h-1.8c-.3 0-.5 0-.7-.2-.2-.2-.2-.5-.2-.7V90.5h-6v.1Z" fill="url(#k)"/><path d="m111.6 90.5 1.8 2.3v18.8h3.6v-14l4.5 14h3.6V90.5h-3.5v13.8l-4.5-13.8h-5.5Z" fill="url(#l)"/><path d="m128.2 90.6 2.3 2.8v18.4h8c2.4 0 3.6-1.1 3.6-3.3V93.9c0-2.2-1.2-3.3-3.6-3.3h-10.3Zm10.1 17.3c0 .3 0 .5-.2.7-.2.1-.5.2-.7.2h-3V93.4h3c.3 0 .5 0 .7.2.2.2.2.5.2.7v13.6Z" fill="url(#m)"/><path d="m79.5 90.5 2.2 2.7v18.4h3.9v-8.9h5.2v-2.8h-5.2v-6.5H92v-2.9H79.5Z" fill="url(#n)"/></g><defs><linearGradient id="i" x1="-1.322" y1="72.868" x2="196.615" y2="72.868" gradientUnits="userSpaceOnUse"><stop stop-color="#1C8AE2"/><stop offset=".486" stop-color="#8B00B3"/><stop offset="1" stop-color="#6900B5"/></linearGradient><linearGradient id="b" x1="-1.322" y1="77.455" x2="196.615" y2="77.455" gradientUnits="userSpaceOnUse"><stop stop-color="#1C8AE2"/><stop offset=".486" stop-color="#8B00B3"/><stop offset="1" stop-color="#6900B5"/></linearGradient><linearGradient id="d" x1="-1.322" y1="72.889" x2="196.615" y2="72.889" gradientUnits="userSpaceOnUse"><stop stop-color="#1C8AE2"/><stop offset=".486" stop-color="#8B00B3"/><stop offset="1" stop-color="#6900B5"/></linearGradient><linearGradient id="e" x1="-1.322" y1="72.882" x2="196.615" y2="72.882" gradientUnits="userSpaceOnUse"><stop stop-color="#1C8AE2"/><stop offset=".486" stop-color="#8B00B3"/><stop offset="1" stop-color="#6900B5"/></linearGradient><linearGradient id="f" x1="-1.322" y1="72.889" x2="196.615" y2="72.889" gradientUnits="userSpaceOnUse"><stop stop-color="#1C8AE2"/><stop offset=".486" stop-color="#8B00B3"/><stop offset="1" stop-color="#6900B5"/></linearGradient><linearGradient id="g" x1="-1.322" y1="72.88" x2="196.614" y2="72.88" gradientUnits="userSpaceOnUse"><stop stop-color="#1C8AE2"/><stop offset=".486" stop-color="#8B00B3"/><stop offset="1" stop-color="#6900B5"/></linearGradient><linearGradient id="h" x1="-1.321" y1="72.889" x2="196.615" y2="72.889" gradientUnits="userSpaceOnUse"><stop stop-color="#1C8AE2"/><stop offset=".486" stop-color="#8B00B3"/><stop offset="1" stop-color="#6900B5"/></linearGradient><linearGradient id="c" x1="-1.322" y1="72.889" x2="196.615" y2="72.889" gradientUnits="userSpaceOnUse"><stop stop-color="#1C8AE2"/><stop offset=".486" stop-color="#8B00B3"/><stop offset="1" stop-color="#6900B5"/></linearGradient><linearGradient id="j" x1="-1.322" y1="72.889" x2="196.614" y2="72.889" gradientUnits="userSpaceOnUse"><stop stop-color="#1C8AE2"/><stop offset=".486" stop-color="#8B00B3"/><stop offset="1" stop-color="#6900B5"/></linearGradient><linearGradient id="k" x1="-1.322" y1="101.085" x2="196.615" y2="101.085" gradientUnits="userSpaceOnUse"><stop stop-color="#1C8AE2"/><stop offset=".486" stop-color="#8B00B3"/><stop offset="1" stop-color="#6900B5"/></linearGradient><linearGradient id="l" x1="-1.323" y1="101.057" x2="196.614" y2="101.057" gradientUnits="userSpaceOnUse"><stop stop-color="#1C8AE2"/><stop offset=".486" stop-color="#8B00B3"/><stop offset="1" stop-color="#6900B5"/></linearGradient><linearGradient id="m" x1="-1.322" y1="101.092" x2="196.615" y2="101.092" gradientUnits="userSpaceOnUse"><stop stop-color="#1C8AE2"/><stop offset=".486" stop-color="#8B00B3"/><stop offset="1" stop-color="#6900B5"/></linearGradient><linearGradient id="n" x1="-1.322" y1="101.057" x2="196.615" y2="101.057" gradientUnits="userSpaceOnUse"><stop stop-color="#1C8AE2"/><stop offset=".486" stop-color="#8B00B3"/><stop offset="1" stop-color="#6900B5"/></linearGradient><clipPath id="a"><path fill="#fff" d="M0 0h199v155H0z"/></clipPath></defs></svg>