<svg xmlns="http://www.w3.org/2000/svg" xml:space="preserve" id="Layer_1" x="0" y="0" style="enable-background:new 0 0 47.474 25" version="1.1" viewBox="0 0 47.474 25"><style>.st6{fill:#fff}</style><path d="M0 16.275v-5.533l7.279-1.274v2.063l-4.615.813v3.493zM0 10.004l7.279-1.305V5.942L0 7.2zM7.977 14.932V9.365l8.091-1.391s-.119.742-.617 1.067c0 0 .509.419.563.866.054.448 0 3.596 0 3.596l-2.686.455v-3.401l-2.621.368v3.488l-2.73.519zM7.977 8.579V5.822l6.152-1.071s1.473-.152 1.928 1.343v1.089l-8.08 1.396zM16.718 7.047V4.285l7.246-1.202.016 2.697zM16.718 7.87l7.262-1.269v2.093l-4.576.725v.737l4.576-.726v2.708l-7.284 1.289zM32.737 4.275V1.523l-6.065 1.04s-1.441.214-2.025 1.891v1.207l8.09-1.386zM24.728 7.047s.325.926 1.348 1.186l3.932-.593v.593l-5.329.942v2.859l6.044-1.056s1.17-.432 1.608-1.202c.439-.77.406-1.31.406-1.31V6.95s-.211-.877-.471-1.056-.39-.504-1.397-.471c-1.007.032-6.239 1.024-6.239 1.024l.098.6zM33.474 4.177V1.418l2.61-.469.011 2.795zM38.846 3.235V.476l2.61-.469.011 2.794zM33.474 4.961l7.993-1.369v5.539l-2.621.451V6.089l-2.751.498v3.471l-2.61.434zM9.992 18.712v-2.843l6.044-.991s1.121.097 1.397.406c.276.309.536.861.536 1.056v.946l-7.977 1.426zM9.976 19.379l7.993-1.391s-.114 1.089-.682 1.797c-.569.708-1.04.653-1.04.653l-3.591.614v3.444L9.992 25l-.016-5.621zM18.559 17.164v-1.04s.184-.747.672-1.191 1.198-.846 1.419-.888c.221-.042 3.932-.693 3.932-.693s.975-.054 1.386.347.693.906.693 1.105v.975l-8.102 1.385zM21.245 17.402l-2.675.487v3.823s.206.812.639 1.116c.433.303 1.462.347 1.462.347l4.051-.737s.931-.46 1.3-.945c.368-.485.596-1.215.617-1.373s0-3.63 0-3.63l-2.578.446v2.896l-2.805.429-.011-2.859zM27.365 12.885l2.643-.476.011 2.794-2.632.477zM27.365 16.365l2.643-.458v5.635l-2.632.485zM30.723 21.426v-5.638l2.632-.471v5.649zM36.068 20.5v-5.638l2.664-.439v5.614zM30.706 15.089v-2.778l6.223-1.056s.991.032 1.348.536c.357.504.439.861.455 1.072.016.211 0 .837 0 .837l-8.026 1.389zM42.03 13.838l2.779-.454v5.603l-2.779.489zM39.382 13.611v-2.806l8.091-1.386v2.772z" class="st6"/></svg>