<svg width="200" height="155" fill="none" xmlns="http://www.w3.org/2000/svg"><g clip-path="url(#a)"><path d="M175.625 60.818v-5.8c0-.4.3-.7.7-.7h.1c12.3 1.9 21.9 11.6 23.9 23.9.1.4-.2.8-.6.8H193.825c-.3 0-.6-.2-.7-.6-1.7-8.5-8.4-15.2-16.9-16.9-.3 0-.6-.3-.6-.7Z" fill="url(#b)"/><path d="M172.125 86.22a3.6 3.6 0 1 0 .001-7.2 3.6 3.6 0 0 0-.001 7.2Z" fill="url(#c)"/><path d="M176.125 72.619c2.7 1.1 4.8 3.2 5.9 5.9.1.3.4.4.7.4h6c.4 0 .7-.3.7-.7v-.2c-1.6-6.3-6.6-11.2-12.9-12.8-.4-.1-.8.1-.9.5v6.2c0 .4.2.6.5.7Z" fill="url(#d)"/><path d="M182.825 83.22c-.3 5.9-5.4 10.4-11.3 10.1-5.9-.3-10.4-5.4-10.1-11.3.3-5.5 4.7-9.8 10.1-10.1.4 0 .7-.3.7-.7v-16.5c0-.4-.3-.7-.7-.7h-5.7c-.4 0-.7.3-.7.7v11c0 .3-.2.5-.4.7-8.9 4.2-12.8 14.8-8.6 23.8 4.2 8.9 14.8 12.799 23.8 8.6 6-2.8 10-8.7 10.3-15.4 0-.4-.3-.7-.6-.7h-5.8c-.4-.1-.8.1-.9.5h-.1Z" fill="url(#e)"/><path d="M.025 98.618v-33.1c0-.8.2-1.3.5-1.6.4-.3.9-.4 1.4-.4h5.9c.3 0 .7.1.9.4.2.2.4.6.4.9 0 .4.1.7.4.7.2-.1.4-.2.6-.4.8-.7 1.8-1.3 2.8-1.6 1-.3 2-.5 3-.5 1.2 0 2.4.2 3.5.7.9.5 1.8 1 2.5 1.8.3.3.7.5 1.1.6.4-.1.8-.3 1.2-.6 1-.9 2.2-1.5 3.5-2 1.2-.3 2.4-.5 3.7-.5 2.1-.1 4.2.7 5.7 2.1 1.9 2.1 2.9 4.9 2.7 7.8v25.6c0 .8-.2 1.3-.5 1.5-.4.3-.9.4-1.4.3h-5.2c-.5 0-1-.1-1.4-.3-.3-.2-.5-.7-.5-1.5v-23.7c0-.8-.3-1.6-.8-2.2-.6-.6-1.4-.9-2.3-.9-1.3-.1-2.4.7-2.8 1.9-.3 1-.4 2-.4 3v22c0 .8-.2 1.3-.5 1.5-.4.2-.9.4-1.4.3h-5.3c-.8 0-1.3-.2-1.5-.5-.2-.4-.4-.9-.3-1.4v-23.7c0-.8-.3-1.6-.8-2.2-.6-.6-1.4-.9-2.3-.9-1.3-.1-2.4.7-2.8 1.9-.3 1-.4 2-.4 3v22c0 .8-.2 1.3-.5 1.5-.4.3-.9.4-1.4.3h-5.3c-.8 0-1.3-.2-1.5-.5-.4-.4-.6-.8-.5-1.3Z" fill="url(#f)"/><path d="M45.726 79.519v-5.7c0-.8.2-1.3.5-1.5.4-.2.9-.4 1.4-.3h5.9c.5 0 1 .1 1.4.3.3.2.5.7.5 1.5v5.7c0 .5-.1.9-.3 1.3-.2.3-.7.5-1.5.5h-6c-.5 0-1-.1-1.4-.3-.4-.2-.5-.7-.5-1.5Z" fill="url(#g)"/><path d="M45.725 98.619v-5.7c0-.8.2-1.3.5-1.4.4-.2.9-.3 1.4-.3h5.9c.8 0 1.3.2 1.5.5.2.4.3.8.3 1.3v5.7c0 .8-.2 1.3-.5 1.4-.4.2-.9.4-1.4.3h-5.8c-.8 0-1.3-.2-1.5-.5-.4-.3-.5-.8-.4-1.3Z" fill="url(#h)"/><path d="M61.925 98.119v-41.7c0-.5.1-1.1.3-1.6.5-.6 1.2-.9 2-.8h5.2c1 0 1.6.2 1.9.6.3.5.5 1.1.4 1.8v12.6l9.3-13.4c.6-.9 1.6-1.5 2.7-1.5h7.4c.8 0 1.2.4 1.2 1.2 0 .3 0 .5-.1.7-.1.2-.3.4-.5.7l-10.5 14.4 12.7 25.9c.4.7.6 1.4.7 2.1 0 1-.5 1.4-1.6 1.4h-6.8c-.6 0-1.1-.2-1.5-.6-.4-.5-.8-1.1-1-1.7l-9-18.4-3 3.9v14.4c0 1-.2 1.7-.6 1.9-.5.3-1.1.4-1.8.4h-5.2c-1 0-1.7-.2-1.9-.6-.3-.5-.4-1.1-.3-1.7Z" fill="url(#i)"/><path d="M97.925 98.119v-41.7c0-.5 0-1.1.3-1.6.5-.6 1.3-.9 2.101-.8h21.699c1 0 1.7.2 1.9.6.3.5.501 1.2.401 1.8v4.8c0 .4-.2.9-.5 1.2-.4.3-1 .5-1.5.4h-13.401c-.8 0-1.2.4-1.2 1v7.1c0 .8.2 1.2.7 1.2h10.5c.4 0 .8.1 1.1.3.3.2.4.6.4.9v6c.1.6-.4 1.2-1 1.3h-10.799c-.6 0-.901.4-.901 1.1v9.4c0 .5.2.8.7.8h14.901c.5-.1.999.1 1.399.4.2.4.4.8.3 1.2v4.5c.1.5 0 1.1-.3 1.6-.5.6-1.3.8-2 .7h-22.599c-.5 0-1.1 0-1.6-.3-.5-.4-.7-1.2-.6-1.9Z" fill="url(#j)"/><path d="M127.726 55.02c0-.3.1-.6.4-.8.3-.1.7-.2 1-.2h7.7c.5 0 1 .1 1.3.5.2.2.4.5.5.8l5.2 13.4c.1.2.2.4.3.5.1-.1.2-.3.3-.5l6-13.3c.2-.4.5-.8.8-1.1.3-.2.6-.3.9-.3h7.8c1 0 1.5.4 1.5 1.1 0 .2 0 .5-.1.7-.1.1-.1.2-.1.3l-11.4 22.1c-.2.4-.4.7-.6 1.2-.2.5-.3 1.1-.3 1.6v17c0 1-.2 1.7-.6 1.9-.5.3-1.1.499-1.8.399h-5.2c-.6.1-1.1.001-1.6-.199-.6-.5-.8-1.3-.7-2.1v-17c0-.4 0-.9-.1-1.3-.2-.5-.4-1.1-.6-1.6l-10.5-22.1c.1-.2 0-.6-.1-1Z" fill="url(#k)"/></g><defs><linearGradient id="g" x1=".044" y1="76.724" x2="198.266" y2="76.724" gradientUnits="userSpaceOnUse"><stop stop-color="#1C8AE2"/><stop offset=".486" stop-color="#8B00B3"/><stop offset="1" stop-color="#6900B5"/></linearGradient><linearGradient id="b" x1=".044" y1="66.674" x2="198.266" y2="66.674" gradientUnits="userSpaceOnUse"><stop stop-color="#1C8AE2"/><stop offset=".486" stop-color="#8B00B3"/><stop offset="1" stop-color="#6900B5"/></linearGradient><linearGradient id="d" x1=".046" y1="72.154" x2="198.265" y2="72.154" gradientUnits="userSpaceOnUse"><stop stop-color="#1C8AE2"/><stop offset=".486" stop-color="#8B00B3"/><stop offset="1" stop-color="#6900B5"/></linearGradient><linearGradient id="e" x1=".045" y1="77.23" x2="198.266" y2="77.23" gradientUnits="userSpaceOnUse"><stop stop-color="#1C8AE2"/><stop offset=".486" stop-color="#8B00B3"/><stop offset="1" stop-color="#6900B5"/></linearGradient><linearGradient id="f" x1=".044" y1="81.737" x2="198.266" y2="81.737" gradientUnits="userSpaceOnUse"><stop stop-color="#1C8AE2"/><stop offset=".486" stop-color="#8B00B3"/><stop offset="1" stop-color="#6900B5"/></linearGradient><linearGradient id="c" x1=".045" y1="82.592" x2="198.266" y2="82.592" gradientUnits="userSpaceOnUse"><stop stop-color="#1C8AE2"/><stop offset=".486" stop-color="#8B00B3"/><stop offset="1" stop-color="#6900B5"/></linearGradient><linearGradient id="h" x1=".044" y1="95.853" x2="198.267" y2="95.853" gradientUnits="userSpaceOnUse"><stop stop-color="#1C8AE2"/><stop offset=".486" stop-color="#8B00B3"/><stop offset="1" stop-color="#6900B5"/></linearGradient><linearGradient id="i" x1=".043" y1="77.227" x2="198.267" y2="77.227" gradientUnits="userSpaceOnUse"><stop stop-color="#1C8AE2"/><stop offset=".486" stop-color="#8B00B3"/><stop offset="1" stop-color="#6900B5"/></linearGradient><linearGradient id="j" x1=".044" y1="77.221" x2="198.266" y2="77.221" gradientUnits="userSpaceOnUse"><stop stop-color="#1C8AE2"/><stop offset=".486" stop-color="#8B00B3"/><stop offset="1" stop-color="#6900B5"/></linearGradient><linearGradient id="k" x1=".044" y1="77.22" x2="198.266" y2="77.22" gradientUnits="userSpaceOnUse"><stop stop-color="#1C8AE2"/><stop offset=".486" stop-color="#8B00B3"/><stop offset="1" stop-color="#6900B5"/></linearGradient><clipPath id="a"><path fill="#fff" d="M0 0h200v155H0z"/></clipPath></defs></svg>