<svg xmlns="http://www.w3.org/2000/svg" width="200" height="155" fill="none"><path fill="url(#a)" d="M11.9 80.3v-4.8H6.4V54.9h7v-5.4H0v56.7h6.4V80.3h5.5Z"/><path fill="url(#b)" d="M19.2 49.5c-.9.3-1.7.8-2.5 1.5s-1.4 1.6-1.8 2.5c-.5 1.2-.7 2.5-.6 3.7v41.3c0 1.3.2 2.5.6 3.7.4 1 1 1.8 1.8 2.5.7.6 1.6 1.1 2.5 1.5.9.3 1.8.5 2.8.5h1.4c.9 0 1.9-.2 2.8-.5.9-.3 1.8-.8 2.5-1.5.8-.7 1.4-1.5 1.8-2.5.5-1.2.7-2.5.6-3.7V57.2c0-1.3-.2-2.5-.6-3.7-.4-1-1-1.8-1.8-2.5-.7-.6-1.6-1.1-2.5-1.5-.9-.3-1.8-.5-2.8-.5H22c-1 .1-1.9.2-2.8.5Zm5 50.9c-.3.5-.8.9-1.4.9h-.3c-.6 0-1.1-.3-1.4-.9-.4-.9-.6-1.9-.5-3V80.2h4v17.3c.1 1 0 2-.4 2.9Zm-1.4-46c1.2 0 1.9 1.3 1.9 3.8v17.2h-4V58.2c0-2.6.6-3.8 1.9-3.8h.2Z"/><path fill="url(#c)" d="M43.2 83.9v12.2c0 2.9 0 5.2.2 6.8 0 1.2.3 2.3.8 3.4h6.3c-.1-.2-.2-.5-.3-.7-.1-.4-.2-1-.3-1.8-.1-.8-.2-1.8-.3-3-.1-1.2-.1-2.8-.1-4.6V83.5c.1-1.3-.2-2.7-.8-3.9-.4-.8-1.2-1.4-2-1.6.8-.3 1.5-.9 2-1.6.6-1.2.9-2.5.8-3.9V57.7c.1-2.2-.7-4.4-2.2-6-1.4-1.4-3.4-2.2-5.4-2.1h-9.1v56.7h6.3V80.4h2.4c1.1-.1 1.7 1.1 1.7 3.5Zm-4.1-8.3V54.9h2.2c1.2 0 1.9 1.2 1.9 3.7V72c0 2.4-.5 3.6-1.6 3.6h-2.5Z"/><path fill="url(#d)" d="m79 106.2 5.1-56.7h-5.6l-3.3 39.3H75l-3.3-39.3h-6.1l5.2 56.7H79Z"/><path fill="url(#e)" d="M58.1 80.3h5.5v-4.8h-5.5V54.9H65l-.5-5.4H51.8v56.7h13.9v-5.3h-7.6V80.3Z"/><path fill="url(#f)" d="M87.2 51c-.8.7-1.4 1.6-1.8 2.5-.5 1.2-.7 2.5-.6 3.7v41.3c0 1.3.2 2.5.6 3.7.4 1 1 1.8 1.8 2.5.7.6 1.6 1.1 2.5 1.5.9.3 1.8.5 2.8.5H94c.9 0 1.9-.2 2.7-.5.9-.3 1.8-.8 2.5-1.5.801-.7 1.401-1.5 1.801-2.5.5-1.2.699-2.5.599-3.7V57.2c0-1.3-.199-2.5-.599-3.7-.4-1-1-1.8-1.8-2.5-.7-.6-1.6-1.1-2.5-1.5-.9-.3-1.8-.5-2.7-.5h-1.5c-.9 0-1.9.2-2.8.5-1 .4-1.8.9-2.5 1.5Zm7.6 49.4c-.3.5-.8.9-1.4.9h-.3c-.6.1-1.2-.3-1.5-.9-.4-.9-.6-1.9-.5-3V80.2h4v17.3c.1 1 0 2-.3 2.9Zm-1.5-46c1.3 0 1.9 1.3 1.9 3.8v17.2h-4V58.2c0-2.6.6-3.8 1.9-3.8h.2Z"/><path fill="url(#g)" d="M109.9 101.4V49.5h-6.3v56.7h13v-4.8h-6.7Z"/><path fill="url(#h)" d="M131.7 104.8c.8-.7 1.4-1.6 1.7-2.5.5-1.2.7-2.5.6-3.7v-49h-6.3v48c.1 1-.1 2-.5 3-.2.5-.7.8-1.3.9h-.4c-.6 0-1.1-.3-1.4-.9-.4-.9-.6-1.9-.5-3v-48h-6.3v49c0 1.3.2 2.5.7 3.7.4 1 1 1.8 1.8 2.6.7.7 1.5 1.2 2.5 1.5.9.3 1.8.4 2.7.4h1.4c1 0 1.9-.2 2.8-.5.9-.4 1.8-.9 2.5-1.5Z"/><path fill="url(#i)" d="M135.2 49.5v5.4h5.5v20.6h-2.6v4.8h2.6v25.9h6.3V80.3h2.5v-4.8H147V54.9h5.4v-5.4h-17.2Z"/><path fill="url(#j)" d="M159.8 49.5h-6.3v56.7h6.3V49.5Z"/><path fill="url(#k)" d="M164.3 51c-.8.7-1.3 1.6-1.7 2.5-.5 1.2-.7 2.5-.7 3.7v41.3c0 1.3.2 2.5.7 3.7.4 1 1 1.8 1.7 2.5.7.6 1.6 1.1 2.5 1.5.9.3 1.8.5 2.8.5h1.5c.9 0 1.9-.2 2.8-.5.9-.3 1.8-.8 2.5-1.5.8-.7 1.4-1.6 1.7-2.5.5-1.2.7-2.5.7-3.7V57.2c0-1.3-.2-2.5-.7-3.7-.4-1-1-1.8-1.7-2.5-.7-.6-1.6-1.1-2.5-1.5-.9-.3-1.8-.5-2.8-.5h-1.5c-.9 0-1.9.2-2.8.5-.9.4-1.8.9-2.5 1.5Zm7.5 49.4c-.3.5-.8.9-1.4.9h-.3c-.6 0-1.1-.3-1.4-.9-.4-.9-.6-1.9-.5-3V80.2h4.1v17.3c.1 1-.1 2-.5 2.9Zm-1.4-46.1c1.2 0 1.9 1.3 1.9 3.8v17.3h-4.1V58.2c0-2.6.6-3.8 1.9-3.8l.3-.1Z"/><path fill="url(#l)" d="M185.9 106.2v-37h.2l6.7 37h7V49.5h-5.7v36.4l-6.3-36.4h-7.2v56.7h5.3Z"/><path fill="#fff" d="M50 69.5c3.3 0 6.4 1.7 6.4 5.6v5.6c0 3.9-3.2 5.5-6.4 5.5h-6.3V69.5H50Zm.1 12.8c1.4 0 2.1-.7 2.1-1.8v-5.2c0-1.1-.7-1.8-2.1-1.8H48v8.8h2.1Zm23.4 3.9H69l-1.1-3.4h-4.5l-1 3.4h-4.5l5.8-16.7h3.8l6 16.7Zm-6.6-7.1-1.2-4.8h-.1l-1.2 4.8h2.5Zm13.9 1.8H80v5.3h-4.3V69.5h6.7c3.5 0 6.1 1.6 6.2 5.5 0 3.1-1.3 4.8-3.3 5.5l4.6 5.7h-5.3l-3.8-5.3Zm1.7-3.6c1.1 0 1.9-.9 1.9-1.9 0-1.1-.9-1.9-1.9-1.9H80v3.8h2.5Zm18.5-7.8h5.3l-6.6 8 6.6 8.6H101l-4.3-6-.1.2v5.8h-4.3V69.4h4.3v6.2l4.4-6.1Zm8.8 11.4c1.6 2 5.4 2.1 5.5.3 0-.9-1.5-1.5-2.9-1.6-2.7-.4-5.1-2.1-5.1-5.3 0-3.2 3-5 6-5 2.2-.1 4.4.9 5.7 2.7l-2.8 2.1c-1.8-1.9-4.8-1.8-4.8.1 0 .8.9 1.3 2.2 1.6 3 .5 6 1.6 5.8 5.7-.1 3.2-3.5 5-6.6 5-2.3-.1-4.4-1.2-5.7-3l2.7-2.6Zm16.5 5.3h-4.2V69.5h4.2v16.7Zm9.5-16.7c3.3 0 6.4 1.7 6.4 5.6v5.6c0 3.9-3.2 5.5-6.4 5.5h-6.3V69.5h6.3Zm.1 12.8c1.4 0 2.1-.7 2.1-1.8v-5.2c0-1.1-.7-1.8-2.1-1.8h-2.1v8.8h2.1Zm13.6-6.2h6.8v3.7h-6.8v2.5h7.4v4h-11.6V69.6h11.6v4h-7.4v2.5Z"/><defs><linearGradient id="g" x1=".03" x2="204.122" y1="77.874" y2="77.874" gradientUnits="userSpaceOnUse"><stop stop-color="#1C8AE2"/><stop offset=".486" stop-color="#8B00B3"/><stop offset="1" stop-color="#6900B5"/></linearGradient><linearGradient id="a" x1=".026" x2="204.116" y1="77.874" y2="77.874" gradientUnits="userSpaceOnUse"><stop stop-color="#1C8AE2"/><stop offset=".486" stop-color="#8B00B3"/><stop offset="1" stop-color="#6900B5"/></linearGradient><linearGradient id="c" x1=".03" x2="204.124" y1="77.874" y2="77.874" gradientUnits="userSpaceOnUse"><stop stop-color="#1C8AE2"/><stop offset=".486" stop-color="#8B00B3"/><stop offset="1" stop-color="#6900B5"/></linearGradient><linearGradient id="d" x1=".03" x2="204.122" y1="77.874" y2="77.874" gradientUnits="userSpaceOnUse"><stop stop-color="#1C8AE2"/><stop offset=".486" stop-color="#8B00B3"/><stop offset="1" stop-color="#6900B5"/></linearGradient><linearGradient id="e" x1=".03" x2="204.124" y1="77.874" y2="77.874" gradientUnits="userSpaceOnUse"><stop stop-color="#1C8AE2"/><stop offset=".486" stop-color="#8B00B3"/><stop offset="1" stop-color="#6900B5"/></linearGradient><linearGradient id="f" x1=".031" x2="204.123" y1="77.882" y2="77.882" gradientUnits="userSpaceOnUse"><stop stop-color="#1C8AE2"/><stop offset=".486" stop-color="#8B00B3"/><stop offset="1" stop-color="#6900B5"/></linearGradient><linearGradient id="b" x1=".031" x2="204.123" y1="77.882" y2="77.882" gradientUnits="userSpaceOnUse"><stop stop-color="#1C8AE2"/><stop offset=".486" stop-color="#8B00B3"/><stop offset="1" stop-color="#6900B5"/></linearGradient><linearGradient id="h" x1=".029" x2="204.123" y1="78.123" y2="78.123" gradientUnits="userSpaceOnUse"><stop stop-color="#1C8AE2"/><stop offset=".486" stop-color="#8B00B3"/><stop offset="1" stop-color="#6900B5"/></linearGradient><linearGradient id="i" x1=".031" x2="204.122" y1="77.874" y2="77.874" gradientUnits="userSpaceOnUse"><stop stop-color="#1C8AE2"/><stop offset=".486" stop-color="#8B00B3"/><stop offset="1" stop-color="#6900B5"/></linearGradient><linearGradient id="j" x1=".035" x2="204.121" y1="77.874" y2="77.874" gradientUnits="userSpaceOnUse"><stop stop-color="#1C8AE2"/><stop offset=".486" stop-color="#8B00B3"/><stop offset="1" stop-color="#6900B5"/></linearGradient><linearGradient id="k" x1=".032" x2="204.122" y1="77.882" y2="77.882" gradientUnits="userSpaceOnUse"><stop stop-color="#1C8AE2"/><stop offset=".486" stop-color="#8B00B3"/><stop offset="1" stop-color="#6900B5"/></linearGradient><linearGradient id="l" x1=".03" x2="204.122" y1="77.874" y2="77.874" gradientUnits="userSpaceOnUse"><stop stop-color="#1C8AE2"/><stop offset=".486" stop-color="#8B00B3"/><stop offset="1" stop-color="#6900B5"/></linearGradient></defs></svg>