<?xml version="1.0" encoding="utf-8"?>
<!-- Generator: Adobe Illustrator 23.0.3, SVG Export Plug-In . SVG Version: 6.00 Build 0)  -->
<svg version="1.1" id="Слой_1" xmlns="http://www.w3.org/2000/svg" xmlns:xlink="http://www.w3.org/1999/xlink" x="0px" y="0px"
	 viewBox="0 0 1144.5 210.8" style="enable-background:new 0 0 1144.5 210.8;" xml:space="preserve">
<style type="text/css">
	.st0{fill:#FFFFFF;}
</style>
<g>
	<path class="st0" d="M170.9,67.2c6.7,0,12.3,2.3,16.9,7c4.6,4.6,6.9,10.2,6.9,16.8v90h-16.1v-90c0-2.1-0.8-3.9-2.4-5.4
		c-1.6-1.5-3.4-2.3-5.5-2.3h-47.4c-2.1,0-3.9,0.8-5.4,2.3c-1.5,1.5-2.3,3.3-2.3,5.4v90H99.5v-90c0-2.1-0.8-3.9-2.3-5.4
		c-1.5-1.5-3.3-2.3-5.4-2.3H44.3c-2.1,0-3.9,0.8-5.4,2.3c-1.5,1.5-2.3,3.3-2.3,5.4v90H20.6V67.2H170.9z"/>
	<path class="st0" d="M211.8,30h16.1V46h-16.1V30z M211.8,180.9V67.2h16.1v113.7H211.8z"/>
	<path class="st0" d="M252.6,30h16.1v127.2c0,2.1,0.8,3.9,2.3,5.4c1.5,1.5,3.3,2.3,5.4,2.3h19.2v16.1h-19.2c-6.5,0-12.1-2.3-16.8-7
		c-4.6-4.6-7-10.2-7-16.8V30z"/>
	<path class="st0" d="M311.8,30h16.1v127.2c0,2.1,0.8,3.9,2.3,5.4c1.5,1.5,3.3,2.3,5.4,2.3h19.2v16.1h-19.2c-6.5,0-12.1-2.3-16.8-7
		c-4.6-4.6-7-10.2-7-16.8V30z"/>
	<path class="st0" d="M459.6,67.2c6.7,0,12.3,2.3,16.9,7c4.6,4.6,6.9,10.2,6.9,16.8v41.2h-99.6v25.1c0,2.1,0.7,3.9,2.2,5.4
		c1.5,1.5,3.3,2.3,5.4,2.3h91.9v16.1h-92c-6.5,0-12.1-2.3-16.7-7c-4.6-4.6-6.9-10.2-6.9-16.8V90.9c0-6.5,2.3-12.1,6.9-16.8
		c4.6-4.6,10.2-7,16.7-7H459.6z M383.9,116h83.5V90.9c0-2.1-0.8-3.9-2.3-5.4c-1.5-1.5-3.3-2.3-5.4-2.3h-68.2c-2.1,0-3.9,0.8-5.4,2.3
		c-1.5,1.5-2.3,3.3-2.3,5.4V116z"/>
	<path class="st0" d="M596.2,67.2c6.5,0,12.1,2.3,16.8,7c4.6,4.6,7,10.2,7,16.8v90h-16.1v-90c0-2.1-0.8-3.9-2.3-5.4
		c-1.5-1.5-3.3-2.3-5.4-2.3H528c-2.1,0-3.9,0.8-5.5,2.3c-1.6,1.5-2.4,3.3-2.4,5.4v90H504V67.2H596.2z"/>
	<path class="st0" d="M732.6,67.2c6.5,0,12.1,2.3,16.8,7c4.6,4.6,7,10.2,7,16.8v90h-16.1v-90c0-2.1-0.8-3.9-2.3-5.4
		c-1.5-1.5-3.3-2.3-5.4-2.3h-68.2c-2.1,0-3.9,0.8-5.5,2.3c-1.6,1.5-2.4,3.3-2.4,5.4v90h-16.1V67.2H732.6z"/>
	<path class="st0" d="M776.5,30h16.1V46h-16.1V30z M776.5,180.9V67.2h16.1v113.7H776.5z"/>
	<path class="st0" d="M917.2,67.2h16.1v90c0,6.5-2.3,12.1-7,16.8c-4.6,4.6-10.3,7-17,7h-68.2c-6.5,0-12.1-2.3-16.8-7
		c-4.6-4.6-7-10.2-7-16.8v-90h16.1v90c0,2.1,0.8,3.9,2.3,5.4c1.5,1.5,3.3,2.3,5.4,2.3h68.2c2.1,0,3.9-0.8,5.5-2.3
		c1.6-1.5,2.4-3.3,2.4-5.4V67.2z"/>
	<path class="st0" d="M1100.2,67.2c6.7,0,12.3,2.3,16.9,7c4.6,4.6,6.9,10.2,6.9,16.8v90h-16.1v-90c0-2.1-0.8-3.9-2.4-5.4
		c-1.6-1.5-3.4-2.3-5.5-2.3h-47.4c-2.1,0-3.9,0.8-5.4,2.3c-1.5,1.5-2.3,3.3-2.3,5.4v90h-16.1v-90c0-2.1-0.8-3.9-2.3-5.4
		c-1.5-1.5-3.3-2.3-5.4-2.3h-47.6c-2.1,0-3.9,0.8-5.4,2.3c-1.5,1.5-2.3,3.3-2.3,5.4v90h-16.1V67.2H1100.2z"/>
</g>
</svg>
