<svg xmlns="http://www.w3.org/2000/svg" xml:space="preserve" id="Слой_1" x="0" y="0" style="enable-background:new 0 0 1144.5 424.9" version="1.1" viewBox="0 0 1144.5 424.9"><style>.st0{fill:#fff}</style><path d="m616 134.7-75-88.9-31.1 12.3 11.2-14.5L484 7.1 383.2 120.8l60.2 60.2 40.1-10.5-27.9 29.6 46.2 102-27 40.1-42.7-7.8 10.5 66.3h39.2L569 293.5l47-158.8zM480.4 390.9l61.5-99.1-14.7-45.4 31.1 46.1-77.9 98.4zm61.5-326.4 61.9 71.5-37.9 132.5 17.4-132.1-41.4-71.9z" class="st0"/><path d="m383.2 263.8-5.2 23.5 67.1-83.4-82-86.6 58-61-44.9-49.2-48 13.4 2.2 18.3-17.4-7.1-102 27.2L29.6 207.1l-8.7 40.8 55.8-42.1L0 372.3l.4 29.2 80.2-.9-8.7-27.9 87.7-89.7-9.5 21.7h97l18.3-27.9-20.1 123.8h75.9l-.9-65.4 62.9-71.4zM46.4 393.7l19-17 6.1 17H46.4zm176.2-313-107.8 96.6L14.5 359.9l91.3-200.2 108.8-93.5 93.5-26L339.4 51l-.5-23.9L358.8 74l-47.2-20-89 26.7zm133.2 52.9 69.3 70.7-32.1 43.6 4.9-25.4-88.1 105.9 46-194.8z" class="st0"/><path d="m131.3 341.9 5.5 58.7h63.3l20.4-84.6h-74.7zM440.9 226.5l-64.1 81.1-7.4 9.2-24.4 30.6v53.2h77.5l-13.7-56.1 32.1-118zm-29.3 166.1h-31.7l21.9-40.9 9.8 40.9zM584.1 289.5h37.7c7.6 0 14.2-.7 19.7-2.1 5.5-1.4 10.2-3.4 14-6 3.8-2.6 6.9-5.7 9.3-9.4 2.3-3.7 4.2-7.7 5.4-12.2 1-3.4 1.4-6.3 1.3-8.8-.1-2.5-.6-4.7-1.5-6.5-.9-1.8-2.2-3.4-3.8-4.7-1.6-1.3-3.5-2.3-5.7-3.2l.3-1c5.6-1.8 9.9-4.5 13-8.2 3.1-3.7 5.4-8.1 6.9-13.3 1.3-4.5 1.5-8.3.8-11.6-.8-3.2-2.3-5.9-4.6-7.9s-5.2-3.5-8.7-4.5c-3.5-1-7.4-1.5-11.5-1.5h-43.6l-29 100.9zm51.5-81.3h8.1c3.3 0 5.6.7 7.1 2.1 1.4 1.4 1.7 3.7.8 6.9-1.9 6.5-6.1 9.8-12.6 9.8h-8.6l5.2-18.8zm-11 38.5h8.8c3.9 0 6.4 1 7.7 2.9 1.2 1.9 1.4 4.6.4 8-1.1 3.8-2.9 6.5-5.3 8.1-2.4 1.6-5.5 2.4-9 2.4h-8.6l6-21.4zM735.8 273.8l-.9 15.7h29.4l1.7-15.7-.3-85.8-33.7.7H712.2l-4.9 20.3 6.2 1.1-36.9 63.7-7.3 15.7h29.3l8.1-15.7h29.1zm.1-56.8 3-7h1.3l-1 7-1.9 33.2H719l16.9-33.2zM813.2 257.7h5.4c1.4 0 2.5.4 3.3 1.1.7.7 1.2 1.7 1.5 2.8.3 1.2.4 2.5.5 3.9v4.4l-.4 19.5h30.4l-.1-26.4c.1-4.2-.4-7.5-1.4-9.7-1-2.2-2.2-3.7-3.6-4.4 3.2-1.1 6.1-2.8 8.8-5.1 2.7-2.3 5-4.8 7-7.6s3.7-5.6 5.1-8.5c1.4-2.9 2.4-5.6 3.1-8.1 1.7-6 2.1-10.9 1.3-14.9s-2.8-7.2-5.8-9.6c-3-2.4-7.1-4.1-12.2-5.1s-11-1.5-17.8-1.5h-34.1l-28.9 100.9h28.8l9.1-31.7zm13.1-45.7h8.2c1.6 0 3 .2 4.3.5 1.3.3 2.3.9 3.1 1.7.8.8 1.3 1.9 1.5 3.2.2 1.3 0 3-.6 5.1-.5 1.8-1.2 3.6-2 5.1-.8 1.6-1.8 3-3 4.1-1.2 1.2-2.6 2.1-4.3 2.8-1.7.7-3.6 1-5.8 1h-8.3l6.9-23.5zM963.8 219.8c1.7-6 2.1-10.9 1.3-14.9s-2.8-7.2-5.8-9.6c-3-2.4-7.1-4.1-12.2-5.1s-11-1.5-17.8-1.5h-34.1l-28.9 100.9h28.8l9.1-31.8h5.4c1.4 0 2.5.4 3.3 1.1.7.7 1.2 1.7 1.5 2.8.3 1.2.4 2.5.5 3.9v4.4l-.4 19.5h30.4l-.1-26.4c.1-4.2-.4-7.5-1.4-9.7-1-2.2-2.2-3.7-3.6-4.4 3.2-1.1 6.1-2.8 8.8-5.1 2.7-2.3 5-4.8 7-7.6s3.7-5.6 5.1-8.5c1.4-2.9 2.4-5.6 3.1-8zm-29.9 2.6c-.5 1.8-1.2 3.6-2 5.1-.8 1.6-1.8 3-3 4.1-1.2 1.2-2.6 2.1-4.3 2.8-1.7.7-3.6 1-5.8 1h-8.3l6.7-23.5h8.2c1.6 0 3 .2 4.3.5 1.3.3 2.3.9 3.1 1.7.8.8 1.3 1.9 1.5 3.2.4 1.4.2 3.1-.4 5.1zM967.6 281.4c2.2 3.4 5.6 5.9 10.2 7.6 4.6 1.7 10.5 2.6 17.8 2.6 7.5 0 13.9-.9 19.5-2.7 5.5-1.8 10.3-4.4 14.3-7.8 4-3.4 7.3-7.4 10-12.2 2.7-4.8 4.8-10.1 6.5-16l18.4-64.3h-29.4l-19.1 66.5c-.5 1.9-1.2 3.6-2.1 5.2-.8 1.6-1.8 3-3 4.1-1.1 1.1-2.5 2-4 2.6-1.5.6-3.2.9-5.2.9-1.9 0-3.4-.3-4.4-1-1.1-.7-1.8-1.6-2.2-2.7-.4-1.1-.6-2.5-.4-4.1.1-1.6.4-3.2.9-5l19.1-66.6h-29.4L967 251.6c-1.9 6.6-2.8 12.3-2.8 17.3.2 5 1.3 9.1 3.4 12.5zM1101.3 212c2.1-1 5.1-1.5 9.1-1.5 1.7 0 3.4.1 5.1.2 1.7.1 3.5.3 5.3.6 1.8.3 3.8.6 5.8 1.1 2 .4 4.3 1 6.7 1.6l11.2-22.2c-2.8-1-5.5-1.8-8.1-2.5-2.5-.7-5-1.2-7.5-1.6-2.4-.4-4.9-.7-7.3-.9-2.4-.2-4.9-.3-7.5-.3-6.1 0-11.7.6-16.9 1.8-5.1 1.2-9.7 3-13.8 5.6-4.1 2.5-7.6 5.7-10.4 9.7-2.9 3.9-5.1 8.6-6.7 14.2-1.1 4-1.6 7.5-1.3 10.6.3 3.1 1.3 5.9 3 8.4 1.8 2.5 4.3 4.8 7.5 6.9 3.3 2.1 7.3 4.1 12.2 6 2.4.9 4.4 1.8 5.9 2.5s2.7 1.5 3.5 2.3 1.3 1.6 1.4 2.5c.1.9 0 2-.4 3.3-.4 1.2-1 2.3-2 3.2-1 .9-2.1 1.6-3.4 2.2-1.3.6-2.8 1-4.4 1.3-1.6.3-3.2.4-4.9.4-4.4 0-8.8-.4-13.2-1.2-4.4-.8-8.6-2.1-12.8-3.8l-12 22.1c1.4.8 3.1 1.7 5.1 2.5 2 .8 4.4 1.6 7.1 2.3 2.7.7 5.7 1.2 9.1 1.7 3.4.4 7.1.7 11.1.7 6.6 0 12.6-.7 18.2-2.1 5.6-1.4 10.5-3.5 14.9-6.3s8.1-6.3 11.2-10.5c3.1-4.2 5.5-9.3 7.1-15 1.1-3.8 1.4-7.1 1-10-.4-2.9-1.4-5.5-2.9-7.7-1.5-2.3-3.6-4.3-6.2-6.1-2.6-1.8-5.6-3.5-8.9-5.1-3.5-1.7-6.4-3.1-8.5-4.1-2.2-1.1-3.8-2-4.9-2.8-1.1-.8-1.8-1.6-2-2.4-.2-.8-.2-1.7.1-2.7.9-2.3 2.3-3.9 4.4-4.9zM624.4 327.2c-.4-3.4-1.6-6.2-3.5-8.4s-4.6-3.9-8-5c-3.4-1.1-7.4-1.6-12.1-1.6h-24.6L551.4 399h10.1l9-31.4h15.3c9.3 0 17.2-2.4 23.6-7.1 6.4-4.7 11-11.9 13.7-21.4 1.3-4.5 1.7-8.5 1.3-11.9zm-11.8 12.1c-2 6.9-5.1 12-9.4 15.3-4.3 3.3-9.4 4.9-15.3 4.9h-15.1l11.2-39.2h14.7c6.5 0 10.9 1.5 13.2 4.6 2.4 3.2 2.6 7.9.7 14.4zM691.6 317.9c-1.9-2-4.4-3.4-7.7-4.4-3.3-.9-7.1-1.4-11.6-1.4h-25.8l-25 86.9h10l10.1-35.1h14.8c.9 0 1.9.2 2.8.6.9.4 1.8 1 2.5 1.9.8.9 1.5 2 2.1 3.4.6 1.4 1.1 3.1 1.4 5.2l3.5 24.1h10.5l-3.6-26.7c-.3-2.8-1-5.2-2-7.1-1-1.9-2.1-3.2-3.3-3.9 3-.5 5.8-1.6 8.3-3.2 2.5-1.6 4.8-3.6 6.7-5.8 2-2.3 3.6-4.7 5-7.4s2.4-5.3 3.2-8c1.3-4.4 1.7-8.2 1.3-11.3-.2-3.2-1.3-5.8-3.2-7.8zm-8.3 19.5c-1.7 6-4.4 10.6-8.1 13.8-3.7 3.2-8.6 4.8-14.8 4.8h-16.5l10.2-35.6h16.3c6 0 10.1 1.3 12.2 4 2.2 2.6 2.4 7 .7 13zM773 355.4c2-7 3.1-13.2 3.2-18.8.1-5.6-.7-10.3-2.5-14.2-1.8-3.9-4.6-6.9-8.3-8.9-3.7-2.1-8.5-3.1-14.3-3.1-5.9 0-11.3 1.1-16.2 3.2-5 2.1-9.5 5.2-13.5 9.1-4 4-7.6 8.7-10.7 14.4-3.1 5.6-5.6 11.9-7.6 18.9-2 7.1-3.1 13.3-3.2 18.9-.1 5.5.7 10.2 2.5 14.1 1.8 3.8 4.6 6.8 8.4 8.8 3.8 2 8.6 3 14.4 3 5.8 0 11.1-1 16.1-3.1 4.9-2.1 9.4-5.1 13.5-8.9 4-3.9 7.6-8.6 10.7-14.3 3-5.7 5.5-12 7.5-19.1zm-10.5 0c-1.6 5.4-3.4 10.4-5.6 14.9-2.2 4.5-4.7 8.4-7.6 11.7-2.9 3.3-6.2 5.8-9.8 7.6-3.6 1.8-7.6 2.7-12 2.7s-7.9-.9-10.4-2.6c-2.6-1.7-4.3-4.2-5.4-7.4-1-3.2-1.3-7-.9-11.5s1.4-9.4 3-14.9c1.6-5.7 3.6-10.9 6-15.5 2.3-4.6 5-8.5 7.9-11.6 2.9-3.2 6.1-5.6 9.7-7.3 3.5-1.7 7.3-2.6 11.4-2.6 4 0 7.3.8 9.9 2.5 2.6 1.6 4.4 4 5.6 7.2 1.2 3.1 1.6 7 1.3 11.5-.5 4.4-1.4 9.6-3.1 15.3zM804.4 312.2l-22.1 77.1c-.7 2.6-1.5 4.9-2.2 7-.7 2.1-1.8 3.9-3.1 5.5s-3 3.1-5.2 4.3c-2.2 1.3-5 2.4-8.7 3.4l-.7 8.2c4.9-1 8.9-2.2 12.1-3.6 3.2-1.3 5.9-3 8.1-5 2.2-2 4-4.4 5.3-7.3 1.4-2.9 2.6-6.3 3.8-10.4l22.7-79.3h-10zM845.5 320.4h38.8l2.9-8.2h-49.4L812.9 399h50.2l1.8-8.2h-39.6l9.2-31.8h31.8l2.4-8.2h-31.9zM932.9 310.4c-5.6 0-10.9 1.1-15.8 3.2s-9.3 5.2-13.3 9.1c-4 4-7.6 8.8-10.7 14.5-3.1 5.7-5.6 12.1-7.7 19.2-1.9 6.6-3 12.7-3.1 18.1-.2 5.4.6 10.1 2.3 14 1.7 3.9 4.4 6.9 8 9.1 3.7 2.2 8.4 3.2 14.3 3.2 4 0 7.8-.4 11.6-1.2 3.7-.8 7.6-2 11.5-3.7l-.1-7.8c-3.2 1.2-6.4 2.2-9.8 3-3.4.7-6.8 1.1-10.2 1.1-4.4 0-7.9-.9-10.5-2.7-2.5-1.8-4.3-4.3-5.3-7.5s-1.3-7-.9-11.4 1.4-9.3 2.9-14.6c1.7-5.8 3.7-11 6-15.6s5-8.5 7.9-11.7c2.9-3.2 6.1-5.7 9.7-7.3 3.5-1.7 7.3-2.5 11.2-2.5 2.2 0 4.3.2 6.1.6 1.8.4 3.7.9 5.5 1.7l-3.4 10.9h9l4.9-16.9c-3-1.5-6.2-2.7-9.4-3.5-3.1-.9-6.7-1.3-10.7-1.3zM1017.1 312.2h-55.5l-1.8 8.3h22.1L959.4 399h10.2l22.5-78.5h22zM1062.3 311.3c-1.7-.3-3.3-.6-4.8-.7-1.6-.1-3.2-.2-4.8-.2-4.4 0-8.6.5-12.4 1.5-3.8 1-7.2 2.4-10.2 4.4-3 1.9-5.5 4.3-7.6 7.1-2.1 2.8-3.7 6.1-4.7 9.7-.9 3.3-1.3 6.1-1.2 8.5.1 2.4.9 4.6 2.3 6.5 1.4 1.9 3.5 3.7 6.2 5.3 2.7 1.6 6.2 3.2 10.5 4.8 2.9 1.1 5.3 2.1 7.3 3.1s3.6 2.1 4.8 3.4c1.2 1.3 1.9 2.8 2.1 4.6.2 1.8 0 3.9-.7 6.5s-1.8 4.9-3.3 6.9c-1.5 2.1-3.2 3.8-5.2 5.2-2 1.4-4.3 2.5-6.8 3.3-2.5.8-5.2 1.2-8.1 1.2-7.9 0-15.6-1.8-23-5.5l-4.7 7.6c1.5 1 3.2 1.9 5.1 2.6 2 .8 4.1 1.4 6.3 2 2.2.6 4.5 1 6.9 1.3 2.4.3 4.7.4 7 .4 4.7 0 9-.6 12.9-1.7 4-1.1 7.5-2.8 10.6-5 3.1-2.2 5.8-4.9 8-8.1 2.2-3.2 3.9-6.9 5.1-11.1 1-3.5 1.3-6.4 1-8.9-.4-2.5-1.3-4.7-2.8-6.6-1.5-1.9-3.6-3.6-6.2-5s-5.7-2.9-9.2-4.3c-3.9-1.5-6.9-2.9-9.1-4.2-2.2-1.3-3.7-2.6-4.7-3.9-.9-1.3-1.4-2.8-1.3-4.3.1-1.5.4-3.3 1-5.4 1.2-4.1 3.7-7.4 7.5-9.7 3.8-2.4 8.6-3.5 14.3-3.5 2.8 0 5.7.3 8.6.8 2.9.6 6.3 1.5 10.1 2.7l4.4-8.1c-2.2-.7-4.2-1.3-6-1.8-1.8-.7-3.6-1.1-5.2-1.4z" class="st0"/></svg>