<svg width="220" height="406" viewBox="0 0 220 406" fill="none" xmlns="http://www.w3.org/2000/svg">
<path d="M92.7109 1.46133C97.8848 10.695 101.97 20.4976 104.885 30.6727C108.381 41.6667 111.086 52.8967 112.98 64.2768C113.759 68.6318 114.241 73.0346 114.423 77.4548C114.408 84.417 113.999 91.3726 113.2 98.2887C111.788 114.95 109.215 131.516 108.807 148.24C108.267 180.146 113.585 211.88 124.495 241.867C134.896 270.284 149.069 297.173 166.634 321.814C183.263 345.409 202.56 367.874 213.698 394.858C215.047 398.184 216.365 401.573 217.62 404.961C217.699 405.252 217.891 405.5 218.153 405.65C218.414 405.8 218.725 405.84 219.016 405.761C219.308 405.682 219.556 405.491 219.706 405.229C219.856 404.967 219.896 404.656 219.817 404.365C215.738 390.626 209.546 377.606 201.461 365.772C193.617 353.473 184.769 341.863 176.172 330.097C157.839 305.779 142.648 279.245 130.959 251.123C118.823 221.486 112.097 189.914 111.097 157.904C111.186 141.27 112.233 124.654 114.235 108.141C115.427 95.5904 117.153 82.5692 115.459 69.9245C113.922 59.0386 111.551 48.2868 108.368 37.7638C105.385 27.0865 101.469 16.6922 96.6644 6.70118C95.6603 4.72447 94.5935 2.77913 93.5267 0.896551C93.2443 0.457282 92.4913 0.896551 92.8051 1.33582L92.7109 1.46133Z" fill="#E8E3DB"/>
<path d="M195.689 358.244C193.085 350.651 190.355 343.152 188.441 335.339C186.524 327.404 185.182 319.34 184.425 311.211C182.971 295.06 183.869 278.784 187.092 262.891C188.918 253.911 191.511 245.104 194.842 236.567C195.281 235.468 193.492 234.966 193.053 236.065C181.188 266.781 178.72 300.331 185.962 332.453C187.823 341.504 190.707 350.315 194.559 358.715C194.628 358.859 194.75 358.971 194.899 359.029C195.048 359.087 195.213 359.085 195.361 359.025C195.509 358.965 195.629 358.851 195.695 358.706C195.762 358.561 195.771 358.396 195.72 358.244H195.689Z" fill="#E8E3DB"/>
<path d="M193.303 237.162C185.93 249.116 178.996 261.761 176.329 275.723C173.973 290.238 175.179 305.108 179.843 319.054C182.021 326.872 185.03 334.435 188.816 341.614C188.89 341.703 188.991 341.767 189.103 341.794C189.216 341.821 189.335 341.811 189.441 341.765C189.547 341.719 189.636 341.639 189.693 341.538C189.75 341.438 189.773 341.321 189.758 341.206C187.436 334.523 184.361 328.153 182.165 321.439C179.862 314.615 178.223 307.586 177.27 300.448C175.439 286.154 177.532 271.63 183.325 258.435C186.463 251.25 190.134 244.347 193.648 237.382C193.648 237.131 193.429 236.942 193.303 237.162Z" fill="#E8E3DB"/>
<path d="M193.174 237.196C189.463 248.907 187.725 261.154 188.029 273.435C188.029 280.213 188.688 286.959 188.405 293.705C188.123 300.45 187.307 307.008 186.711 313.66C185.88 321.141 185.754 328.683 186.334 336.188C186.334 337.224 188.06 337.224 187.966 336.188C186.742 323.104 189.095 310.114 189.974 297.093C190.351 290.499 190.351 283.889 189.974 277.295C189.691 270.817 189.849 264.329 190.445 257.873C191.194 250.975 192.325 244.125 193.833 237.353C193.833 237.278 193.804 237.206 193.751 237.153C193.698 237.1 193.626 237.07 193.551 237.07C193.476 237.07 193.404 237.1 193.351 237.153C193.298 237.206 193.269 237.278 193.269 237.353L193.174 237.196Z" fill="#E8E3DB"/>
<path d="M193.77 236.286C192.599 240.585 192.237 245.065 192.704 249.496C192.704 255.771 193.174 262.046 193.457 268.573C193.739 275.099 193.99 281.625 193.802 288.151C193.473 295.181 192.496 302.166 190.884 309.017C189.848 313.849 188.75 318.712 187.966 323.607C187.621 325.866 187.307 328.125 187.119 330.415C186.71 332.898 186.71 335.431 187.119 337.914C187.119 338.031 187.165 338.142 187.247 338.225C187.33 338.307 187.441 338.354 187.558 338.354C187.674 338.354 187.786 338.307 187.868 338.225C187.951 338.142 187.997 338.031 187.997 337.914C188.269 335.917 188.416 333.905 188.436 331.89C188.572 329.493 188.834 327.105 189.221 324.736C189.911 320.187 190.884 315.7 191.856 311.213C193.465 304.429 194.515 297.523 194.994 290.567C195.59 277.766 194.461 264.933 193.99 252.131C193.802 246.86 193.99 241.589 193.99 236.443C193.99 236.393 193.97 236.345 193.935 236.31C193.899 236.275 193.852 236.255 193.802 236.255C193.752 236.255 193.704 236.275 193.669 236.31C193.633 236.345 193.613 236.393 193.613 236.443L193.77 236.286Z" fill="#E8E3DB"/>
<path d="M183.985 327.652C182.563 325.293 181.506 322.733 180.847 320.059C179.881 317.437 178.771 314.871 177.521 312.372C174.579 307.111 171.99 301.66 169.771 296.056C167.927 289.844 166.873 283.424 166.634 276.948C166.131 270.233 165.671 263.498 165.253 256.741C164.302 249.056 164.228 241.288 165.033 233.586L163.465 233.366C163.579 235.83 164.313 238.226 165.598 240.331C167.167 243.752 168.453 247.266 169.708 250.78C173.07 259.148 175.185 267.965 175.984 276.948C175.984 277.952 177.615 277.952 177.552 276.948C176.792 268.336 174.784 259.881 171.591 251.847C170.367 248.395 169.206 244.881 167.7 241.555C166.122 239.116 165.174 236.324 164.939 233.429C164.939 232.55 163.527 232.331 163.37 233.209C162.528 239.988 162.465 246.842 163.182 253.635C163.527 260.758 164.061 267.911 164.594 275.034C164.807 281.711 165.722 288.347 167.324 294.832C169.288 300.632 171.821 306.223 174.885 311.524C176.584 314.634 178.052 317.864 179.278 321.188C179.746 323.954 181.127 326.484 183.2 328.374C183.64 328.687 184.267 328.091 183.953 327.652H183.985Z" fill="#E8E3DB"/>
<path d="M50.2256 306.978C69.2711 318.713 91.0149 324.517 112.602 330.134C133.247 335.53 154.113 340.927 173.221 350.685C183.788 355.917 193.423 362.85 201.742 371.205C202.934 372.429 204.88 370.546 203.593 369.323C172.75 337.57 126.376 333.334 86.1829 321.066C73.809 317.445 61.8267 312.599 50.4139 306.601C50.3673 306.593 50.3193 306.6 50.2771 306.622C50.2348 306.643 50.2006 306.677 50.1794 306.72C50.1583 306.762 50.1514 306.81 50.1597 306.856C50.168 306.903 50.1911 306.946 50.2256 306.978Z" fill="#E8E3DB"/>
<path d="M50.2261 306.975C64.9416 311.807 80.6611 312.309 95.5963 316.388C110.338 320.393 124.643 325.859 138.299 332.704C145.987 336.438 153.517 340.454 160.985 344.627C161.172 344.701 161.38 344.705 161.571 344.639C161.762 344.573 161.923 344.441 162.025 344.267C162.127 344.093 162.164 343.889 162.128 343.69C162.093 343.491 161.988 343.312 161.832 343.184C148.653 335.683 135.031 328.988 121.042 323.134C106.858 317.319 92.0256 313.231 76.8646 310.96C67.9851 309.611 59.1056 308.45 50.2888 306.662C50.2552 306.676 50.2266 306.7 50.2066 306.731C50.1865 306.762 50.1758 306.798 50.1758 306.834C50.1758 306.871 50.1865 306.907 50.2066 306.937C50.2266 306.968 50.2552 306.992 50.2888 307.007L50.2261 306.975Z" fill="#E8E3DB"/>
<path d="M49.1595 306.378C53.737 311.666 59.2192 316.096 65.3497 319.462C71.3805 323.053 77.7361 326.068 84.3324 328.467C99.3219 333.583 114.889 336.819 130.675 338.1C139.776 338.719 148.782 340.329 157.533 342.901C158.6 343.246 159.071 341.551 158.004 341.175C150.764 338.956 143.305 337.525 135.758 336.908C127.757 336.061 119.788 335.307 111.881 333.77C96.7775 331.504 82.1746 326.664 68.7069 319.462C61.9716 315.38 55.5243 310.841 49.4105 305.876C49.1908 305.876 49.0026 305.876 49.1595 306.222V306.378Z" fill="#E8E3DB"/>
<path d="M50.2278 306.597C58.4798 307.381 66.8259 307.413 75.0779 308.103C83.3709 308.727 91.611 309.922 99.7397 311.68C107.839 313.432 115.721 316.073 123.241 319.555C130.809 323.29 138.144 327.481 145.204 332.106L170.619 348.39C171.56 348.986 172.439 347.48 171.497 346.884L148.185 332.106C140.996 327.343 133.56 322.965 125.908 318.991C110.965 312.122 94.8806 308.08 78.4665 307.068C69.088 306.082 59.6546 305.715 50.2278 305.969C50.1446 305.969 50.0648 306.002 50.006 306.061C49.9471 306.12 49.9141 306.2 49.9141 306.283C49.9141 306.366 49.9471 306.446 50.006 306.505C50.0648 306.564 50.1446 306.597 50.2278 306.597Z" fill="#E8E3DB"/>
<path d="M169.456 346.821C159.063 335.483 149.26 323.618 140.088 311.272C135.82 305.579 131.199 300.161 126.251 295.05C121.105 289.904 115.363 285.418 109.872 280.68C103.604 275.274 97.8188 269.332 92.5838 262.921C91.9563 262.136 90.6071 263.14 91.2032 263.988C93.017 267.155 94.3295 270.584 95.0939 274.153C96.0624 277.26 97.2579 280.29 98.6708 283.221C101.665 289.288 105.419 294.95 109.841 300.07C119.743 310.87 130.837 320.511 142.911 328.811C150.191 334.208 157.47 339.573 164.247 345.566C165.251 346.445 166.695 345.001 165.691 344.123C143.915 324.889 115.489 310.989 101.401 284.508C99.5333 281.031 97.9994 277.386 96.8196 273.62C95.9816 269.906 94.5851 266.341 92.6779 263.046L91.266 264.144C95.9088 269.812 100.975 275.12 106.421 280.021C111.817 284.853 117.591 289.434 122.893 294.266C133.75 304.432 142.158 317.108 151.477 328.78C156.443 335.666 162.157 341.98 168.515 347.606C169.017 348.013 169.675 347.386 169.236 346.915L169.456 346.821Z" fill="#E8E3DB"/>
<path d="M153.203 297.782C148.685 288.965 140.213 282.345 132.212 276.791C123.113 270.516 113.386 264.899 103.973 259.283C94.5605 253.667 84.3945 247.987 74.8561 241.932C65.1862 236.116 56.0698 229.426 47.6215 221.945C38.2086 213.379 32.4039 202.492 26.5052 191.51L24.6853 192.577C33.7531 206.853 47.8411 216.297 61.9291 225.114C78.0069 234.812 93.4732 245.49 108.241 257.087C116.337 263.699 124.047 270.77 131.334 278.266C132.212 279.176 133.561 277.826 132.714 276.885C120.031 263.444 105.862 251.486 90.4816 241.242C83.014 236.033 75.3895 231.076 67.7023 226.244C60.0151 221.412 53.1437 217.333 46.3037 212.281C38.3587 206.778 31.6216 199.71 26.5052 191.51C26.3446 191.312 26.1182 191.178 25.8671 191.132C25.616 191.086 25.3568 191.132 25.1367 191.261C24.9165 191.39 24.7499 191.594 24.6671 191.835C24.5843 192.077 24.5908 192.34 24.6853 192.577C29.3378 202.395 35.3014 211.535 42.413 219.749C50.2463 227.544 58.9534 234.408 68.3612 240.206C87.187 252.757 107.331 262.923 126.313 275.097C131.301 278.197 136.071 281.636 140.59 285.388C144.996 289.28 149.04 293.565 152.669 298.19C152.921 298.535 153.391 298.19 153.203 297.782Z" fill="#E8E3DB"/>
<path d="M25.3743 191.259C25.2178 196.111 26.0394 200.945 27.7902 205.472C29.2722 210.101 31.2389 214.56 33.6576 218.776C38.3278 226.9 44.5672 234.014 52.0128 239.704C66.8852 251.125 85.209 256.741 102.309 263.676C112.024 267.33 121.33 271.988 130.077 277.575C131.05 278.234 131.928 276.665 130.987 276.038C101.085 255.8 58.8215 253.792 37.5169 221.6C34.4823 216.974 31.9873 212.015 30.0807 206.822C28.1981 201.739 27.5079 196.342 25.7508 191.133C25.7508 191.084 25.7309 191.036 25.6956 191C25.6603 190.965 25.6125 190.945 25.5625 190.945C25.5126 190.945 25.4647 190.965 25.4294 191C25.3941 191.036 25.3743 191.084 25.3743 191.133V191.259Z" fill="#E8E3DB"/>
<path d="M25.7542 190.946C26.8764 194.001 29.1203 196.515 32.0295 197.974C35.7632 200.328 39.6539 202.524 43.5446 204.626C51.3887 208.956 59.421 212.972 67.0768 217.647C81.6363 226.854 94.8823 237.989 106.454 250.749C112.98 257.746 119.256 265.057 125.531 272.431C126.221 273.246 127.382 272.085 126.692 271.27C116.103 258.183 104.568 245.892 92.1779 234.496C86.1182 229.036 79.669 224.023 72.8815 219.499C65.5394 214.635 57.7267 210.494 49.9767 206.383C45.584 204.03 41.1913 201.708 36.8928 199.229C33.0963 197.033 28.3898 194.805 26.4445 190.632C26.2562 190.224 25.5973 190.632 25.7228 190.946H25.7542Z" fill="#E8E3DB"/>
<path d="M86.8413 230.763C81.6882 222.258 79.0551 212.466 79.2482 202.524C79.4364 193.488 81.2876 184.608 82.3858 175.666H81.2876C82.4729 183.319 84.2777 190.864 86.6844 198.225C89.1004 205.191 91.9556 212 94.7795 218.808C99.6886 231.683 105.357 244.256 111.754 256.46C111.875 256.664 112.071 256.811 112.301 256.87C112.53 256.929 112.774 256.894 112.978 256.774C113.182 256.653 113.329 256.456 113.388 256.227C113.447 255.997 113.412 255.754 113.292 255.55C106.85 243.345 101.13 230.773 96.16 217.898C93.1793 210.964 90.2927 204.061 87.8767 197.19C85.4766 190.1 83.5995 182.843 82.2603 175.478C82.2603 174.819 81.1935 175.038 81.1621 175.478C80.2522 184.891 78.0245 194.084 77.8676 203.528C77.6365 213.328 80.7088 222.921 86.5902 230.763H86.8099H86.8413Z" fill="#E8E3DB"/>
<path d="M217.304 134.345C201.208 149.405 182.508 161.36 167.102 177.111C154.243 189.639 143.957 204.561 136.824 221.037C132.763 231.073 130.164 241.64 129.105 252.414C129.105 253.606 130.831 253.575 130.957 252.414C133.269 233.904 139.912 216.199 150.347 200.737C161.458 185.037 174.821 171.061 190.007 159.257C199.835 151.714 209.261 143.66 218.246 135.129C218.748 134.627 217.963 133.874 217.461 134.345H217.304Z" fill="#E8E3DB"/>
<path d="M215.644 136.192C201.176 142.306 187.636 150.417 175.419 160.289C164.157 169.951 154.958 181.786 148.373 195.085C144.106 203.682 140.497 212.593 136.701 221.378C136.262 222.32 137.674 223.167 138.081 222.194C144.357 207.698 150.193 192.763 159.606 179.899C168.69 167.745 180.05 157.473 193.053 149.652C200.52 145.071 208.333 141.024 215.926 136.694C216.271 136.505 215.926 136.035 215.644 136.192Z" fill="#E8E3DB"/>
<path d="M217.555 134.656C209.46 147.049 198.51 156.996 187.34 166.409C175.714 176.158 164.72 186.638 154.426 197.785C151.707 200.797 149.071 203.872 146.519 207.01C143.645 210.298 140.944 213.733 138.424 217.301C137.891 218.086 139.115 219.058 139.742 218.337C142.378 215.387 144.605 212.061 147.084 208.924C149.563 205.786 151.634 203.276 154.018 200.546C159.384 194.271 165.157 188.592 171.024 182.913C176.264 177.861 181.504 172.904 186.963 168.134C192.423 163.365 197.569 158.721 202.652 153.921C208.53 148.201 213.673 141.772 217.963 134.781C217.963 134.781 217.963 134.468 217.681 134.781L217.555 134.656Z" fill="#E8E3DB"/>
<path d="M217.306 134.497C214.195 141.171 210.218 147.406 205.478 153.041C201.618 157.59 197.351 161.826 193.272 166.187C187.86 172.17 182.131 177.857 176.109 183.225C170.462 188.088 164.249 192.261 158.57 197.093C155.432 199.886 152.106 202.772 148.937 205.69C145.937 208.272 143.176 211.117 140.685 214.193C140.466 214.507 140.936 214.978 141.25 214.727C143.93 212.639 146.476 210.386 148.875 207.981C151.761 205.282 154.648 202.553 157.597 199.948C163.339 194.865 169.583 190.535 175.419 185.515C181.483 180.205 187.234 174.547 192.645 168.572C196.818 164.085 201.179 159.724 205.195 155.08C210.461 149.071 214.807 142.315 218.091 135.031C218.31 134.497 217.557 134.027 217.306 134.56V134.497Z" fill="#E8E3DB"/>
<path d="M141.216 214.134C143.758 200.36 145.609 186.46 151.006 173.345C153.767 166.724 157.061 160.324 160.419 153.923C163.776 147.522 166.694 141.561 170.334 135.662C174.488 128.935 179.122 122.518 184.202 116.46L183.512 115.895C181.158 121.135 178.554 126.28 176.264 131.583C174.035 136.738 172.312 142.097 171.118 147.585C170.29 152.717 168.879 157.738 166.914 162.551C164.592 167.446 161.831 171.964 159.634 177.047C159.226 177.926 160.544 178.71 160.952 177.832C163.117 172.968 165.815 168.419 168.106 163.618C170.091 159.086 171.493 154.321 172.279 149.436C173.303 143.852 174.858 138.378 176.923 133.089C179.213 127.441 181.66 121.856 184.171 116.334C184.359 115.895 183.825 115.361 183.48 115.769C174.52 126.529 166.785 138.252 160.419 150.723C153.767 163.273 147.303 176.169 144.354 190.257C142.699 198.105 141.525 206.048 140.84 214.04C140.84 214.322 141.279 214.417 141.342 214.04L141.216 214.134Z" fill="#E8E3DB"/>
<path d="M18.441 84.8295C21.6745 94.8293 26.2784 104.333 32.1211 113.068C37.4701 120.648 43.5325 127.698 50.2253 134.122C63.5289 147.363 78.464 158.972 91.7048 172.15C95.5955 175.978 99.3606 179.963 102.938 184.073C106.514 188.183 109.589 192.796 113.198 196.937C113.951 197.784 115.237 196.686 114.735 195.745C112.402 191.581 109.602 187.696 106.389 184.167C103.251 180.559 100.114 177.045 96.976 173.687C90.2929 166.91 83.1704 160.572 76.0166 154.328C62.2424 142.311 47.7779 130.608 36.6079 116.018C29.2428 106.541 23.3119 96.0325 19.0058 84.8295C19.0058 84.4844 18.3155 84.6099 18.441 84.9864V84.8295Z" fill="#E8E3DB"/>
<path d="M17.8125 84.8312C19.1323 91.9346 21.237 98.8694 24.0878 105.508C26.4799 111.49 29.6444 117.134 33.5007 122.295C41.5375 132.34 51.06 141.101 61.7394 148.274C68.3284 153.043 75.1371 157.687 81.7261 162.331C82.8243 163.115 83.8597 161.327 82.7929 160.542C61.5198 145.419 37.6737 131.896 26.5979 107.202C23.3734 99.8752 20.7807 92.2859 18.8479 84.5174C18.691 83.9212 17.8439 84.2036 17.938 84.7998L17.8125 84.8312Z" fill="#E8E3DB"/>
<path d="M17.8462 84.5461C22.1133 89.8173 27.2591 94.461 31.9028 99.3243C36.4628 104.077 40.7375 109.096 44.7043 114.354C52.517 124.739 60.2042 135.25 68.2052 145.479C72.6844 151.285 77.4599 156.857 82.5128 162.171C83.36 163.018 84.6464 161.701 83.8306 160.853C74.8987 151.294 66.578 141.181 58.9178 130.575C51.4578 119.961 43.4021 109.779 34.7894 100.077C29.6076 94.435 24.1189 89.0825 18.3482 84.044C18.2816 83.9775 18.1913 83.9401 18.0972 83.9401C18.003 83.9401 17.9127 83.9775 17.8462 84.044C17.7796 84.1106 17.7422 84.2009 17.7422 84.295C17.7422 84.3892 17.7796 84.4795 17.8462 84.5461Z" fill="#E8E3DB"/>
<path d="M18.1302 84.83C23.4642 88.9717 29.112 92.6741 34.3832 96.8785C39.6775 101.081 44.6393 105.686 49.2242 110.653C53.8285 115.624 57.9179 121.048 61.4296 126.843C65.4144 133.463 68.7403 140.366 73.0075 146.798C77.5575 153.878 82.6118 160.62 88.1309 166.973C88.7898 167.664 90.0448 166.722 89.4801 165.907C85.1187 159.631 80.0672 153.732 75.5803 147.394C71.0935 141.056 67.7049 134.185 63.8142 127.502C56.8233 115.902 47.8245 105.639 37.2384 97.1923C31.4583 92.2567 25.1437 87.9838 18.4126 84.4535C18.193 84.4535 17.9106 84.6731 18.1302 84.83Z" fill="#E8E3DB"/>
<path d="M93.7449 173.783C91.1588 171.523 88.4343 169.428 85.5871 167.507C82.775 165.784 79.788 164.364 76.6762 163.272C70.1499 160.824 63.3099 159.475 56.6267 157.624C43.7446 154.275 31.3822 149.176 19.885 142.469C13.4831 138.63 7.57222 134.025 2.28288 128.758L1.24746 130.107C13.1705 137.543 27.4781 138.422 40.813 142.25C54.8805 146.593 68.1481 153.195 80.0962 161.797C81.0062 162.425 81.8533 160.95 80.9748 160.322C69.2374 151.896 56.245 145.374 42.476 140.994C29.0155 136.916 14.2373 136.225 2.09462 128.601C2.00604 128.533 1.90492 128.483 1.79706 128.454C1.6892 128.425 1.5767 128.418 1.46598 128.432C1.35527 128.447 1.2485 128.483 1.15179 128.539C1.05508 128.595 0.970308 128.669 0.902322 128.758C0.834335 128.846 0.784463 128.947 0.755553 129.055C0.726643 129.163 0.719262 129.276 0.733829 129.386C0.76325 129.61 0.880291 129.813 1.0592 129.95C10.368 138.932 21.3046 146.056 33.2827 150.941C39.1555 153.39 45.1696 155.485 51.2927 157.216C57.8504 159.161 64.5649 160.573 71.1226 162.487C74.9519 163.533 78.6475 165.017 82.1357 166.911C85.9159 169.161 89.5236 171.689 92.9292 174.473C93.4939 174.912 94.3411 174.128 93.7449 173.657V173.783Z" fill="#E8E3DB"/>
<path d="M193.425 52.7642C188.341 59.7104 182.706 66.2368 176.576 72.2802C170.552 78.179 164.026 83.4189 157.499 88.8156C145.021 99.2554 133.994 111.317 124.711 124.679C119.077 132.614 113.942 140.893 109.337 149.466C109.269 149.634 109.263 149.821 109.321 149.992C109.38 150.163 109.498 150.308 109.654 150.4C109.81 150.491 109.994 150.523 110.172 150.49C110.35 150.457 110.51 150.361 110.623 150.219C118.996 135.527 128.668 121.614 139.521 108.645C150.628 96.0949 163.806 85.7407 175.823 74.1315C182.483 67.7035 188.475 60.6182 193.708 52.9838C193.708 52.9838 193.708 52.67 193.425 52.9838V52.7642Z" fill="#E8E3DB"/>
<path d="M193.082 52.1059C189.097 56.2789 185.332 60.6089 180.939 64.4368C176.546 68.2647 171.934 71.7788 167.353 75.4185C158 82.3928 149.567 90.5209 142.252 99.6097C138.08 105.036 134.414 110.833 131.302 116.929C130.8 117.871 132.212 118.718 132.714 117.777C138.252 106.926 145.534 97.0573 154.269 88.5652C162.521 80.5328 172.122 74.1634 180.876 66.6017C185.962 62.7226 190.345 58 193.835 52.6393C193.879 52.531 193.887 52.4111 193.856 52.2981C193.826 52.1851 193.759 52.0853 193.666 52.0139C193.574 51.9426 193.46 51.9037 193.343 51.9033C193.226 51.9029 193.112 51.941 193.019 52.0117L193.082 52.1059Z" fill="#E8E3DB"/>
<path d="M192.516 54.0825C188.029 60.5147 183.574 67.0096 178.93 73.3162C174.639 79.5536 169.567 85.216 163.838 90.1653C158.128 94.8718 151.79 98.7624 146.048 103.406C143.224 105.665 140.494 108.018 137.859 110.466C134.941 112.98 132.224 115.718 129.732 118.655C129.588 118.825 129.514 119.043 129.524 119.265C129.535 119.487 129.629 119.697 129.789 119.852C129.948 120.008 130.16 120.097 130.383 120.102C130.605 120.107 130.821 120.027 130.987 119.879C133.874 117.369 136.447 114.482 139.27 111.878C142.094 109.274 145.044 106.795 148.056 104.41C153.766 99.8606 160.042 95.7189 165.627 91.1066C171.056 86.3265 175.845 80.8634 179.871 74.8537C184.547 68.2646 189.002 61.5501 193.05 54.5532C193.238 54.208 192.736 53.957 192.516 54.2394V54.0825Z" fill="#E8E3DB"/>
<path d="M192.707 52.8891C182.102 61.8941 168.139 65.4396 157.095 73.9112C146.998 82.138 139.061 92.7034 133.971 104.691C130.833 111.531 129.013 119.187 124.777 125.494C124.401 126.09 125.248 126.718 125.75 126.247C130.362 121.603 131.743 114.293 134.253 108.457C136.831 102.406 139.983 96.6172 143.666 91.1682C147.347 85.6604 151.771 80.6873 156.813 76.39C162.24 72.0755 168.146 68.4012 174.415 65.4396C181.272 62.3081 187.618 58.1617 193.24 53.1401C193.24 53.1401 193.24 52.7322 192.958 52.8891H192.707Z" fill="#E8E3DB"/>
<path d="M134.94 104.472C137.607 98.6541 139.273 92.4273 139.866 86.0544C140.494 79.4968 140.4 72.9078 141.216 66.3501C141.928 59.7379 144.185 53.3859 147.805 47.8067C151.443 42.6486 155.539 37.8286 160.041 33.4049L158.943 32.5578C155.171 40.9907 152.482 49.8677 150.942 58.9767C149.436 68.0758 148.903 77.1122 145.671 85.8662C145.357 86.682 146.706 87.2467 147.083 86.4623C150.942 78.43 150.974 69.0485 152.229 60.42C153.554 51.0428 156.183 41.8969 160.041 33.248C160.355 32.5891 159.539 31.8047 158.943 32.4009C154.448 36.7369 150.334 41.4501 146.644 46.4889C143.085 51.6429 140.726 57.529 139.741 63.7145C138.737 70.178 138.8 76.7357 138.392 83.2619C137.976 90.4152 136.583 97.4778 134.25 104.253C134.25 104.566 134.658 104.786 134.783 104.472H134.94Z" fill="#E8E3DB"/>
<path d="M92.8359 1.55765C94.4989 11.755 99.1112 21.4189 102.249 31.2711C103.943 36.7619 104.853 42.4724 106.328 48.026C108.661 55.3918 110.043 63.026 110.438 70.7425C110.91 79.7504 112.075 88.7086 113.921 97.5379C113.921 98.4478 115.458 98.0399 115.333 97.13C113.56 88.8615 112.417 80.4704 111.913 72.0289C111.759 64.7239 110.619 57.4731 108.524 50.4734C106.924 44.5746 105.857 38.519 104.163 32.6516C102.594 27.3176 100.68 22.1092 98.8602 16.9634C97.0404 11.8177 94.9068 6.60925 93.4948 1.27527C93.4948 0.930126 92.9301 1.08701 92.9928 1.43215L92.8359 1.55765Z" fill="#E8E3DB"/>
<path d="M92.6467 1.15032C98.2003 10.4063 103.911 19.5682 108.743 29.389C111.323 34.4095 113.424 39.6622 115.018 45.0772C116.911 52.952 117.714 61.0496 117.403 69.1429C117.481 73.6474 117.292 78.1525 116.838 82.6347C116.273 87.5294 115.081 92.2045 114.077 97.0051C114.031 97.1757 114.055 97.3575 114.143 97.5104C114.231 97.6634 114.377 97.7751 114.547 97.8209C114.718 97.8666 114.9 97.8428 115.053 97.7545C115.206 97.6662 115.317 97.5208 115.363 97.3502C117.661 89.4033 118.864 81.1801 118.94 72.908C119.356 64.76 118.84 56.591 117.403 48.56C114.265 36.7632 109.3 25.5304 102.687 15.2697C99.8651 10.2102 96.644 5.3839 93.0546 0.836557C92.8663 0.616923 92.4898 0.836557 92.6467 1.15032Z" fill="#E8E3DB"/>
<path d="M92.6758 2.21715C93.298 6.18006 93.4978 10.1978 93.2719 14.2029C93.2719 16.964 93.4602 19.7565 93.7112 22.549C94.276 28.8243 95.1859 35.0996 96.2841 41.3748C98.357 53.8279 101.571 66.0639 105.885 77.9283C107.36 81.8817 108.803 85.8665 110.027 89.9141C111.251 93.9616 112.098 98.0405 113.165 102.025C113.206 102.188 113.311 102.327 113.455 102.412C113.599 102.497 113.771 102.522 113.933 102.48C114.096 102.439 114.235 102.334 114.32 102.19C114.405 102.046 114.43 101.874 114.388 101.712C111.596 88.2511 105.822 75.7633 102.277 62.5539C98.8317 49.7874 96.408 36.7669 95.029 23.6158C94.7152 20.4782 94.527 17.4974 94.4329 14.4225C94.5399 10.2739 94.1075 6.12888 93.1464 2.09164C93.1286 2.0436 93.0965 2.00217 93.0544 1.97292C93.0124 1.94366 92.9623 1.92798 92.9111 1.92798C92.8599 1.92798 92.8099 1.94366 92.7678 1.97292C92.7257 2.00217 92.6936 2.0436 92.6758 2.09164V2.21715Z" fill="#E8E3DB"/>
<path d="M94.9062 10.3446C95.1886 18.2201 98.0439 25.8445 99.5186 33.5317C100.648 39.807 101.401 46.3019 102.499 52.6399C103.573 59.832 105.189 66.9327 107.331 73.8817C108.555 77.5841 110.061 81.1924 111.379 84.8634C112.66 88.6445 113.708 92.5005 114.516 96.4099C114.56 96.5417 114.649 96.654 114.767 96.7275C114.885 96.8009 115.024 96.831 115.162 96.8124C115.3 96.7938 115.426 96.7277 115.52 96.6256C115.615 96.5235 115.67 96.3917 115.677 96.2531C115.677 89.7268 112.54 83.1691 110.249 77.1449C107.832 70.3491 106.006 63.3577 104.79 56.2482C103.472 49.1258 102.248 41.9406 101.182 34.7868C100.49 30.9853 99.589 27.2249 98.4832 23.5227C97.0601 19.2107 95.928 14.8081 95.0945 10.3446H94.9062Z" fill="#E8E3DB"/>
<path d="M111.694 93.6165C109.434 87.6455 106.022 82.1766 101.654 77.5204C97.163 72.203 92.3536 67.1631 87.2522 62.4284C81.9167 57.5666 76.8869 52.3796 72.1915 46.8971C67.8758 41.0287 64.6843 34.4117 62.7786 27.381L61.4922 27.9144C64.242 32.4323 67.4716 36.6402 71.1247 40.4649C75.1195 44.2819 79.4456 47.7364 84.0518 50.7877C93.2227 57.1489 100.455 65.9232 104.948 76.1398C105.356 77.0811 106.894 76.6732 106.486 75.7319C102.392 66.1942 95.9079 57.8731 87.6601 51.5721C82.8595 47.9011 77.7138 44.7321 73.2583 40.6218C69.0595 36.7557 65.5198 32.2303 62.7786 27.2241C62.4021 26.5024 61.3353 27.0045 61.5236 27.7575C63.0111 34.3855 65.771 40.6618 69.65 46.2382C74.0713 51.784 78.9293 56.9671 84.1773 61.7381C89.323 66.7269 94.5629 71.6216 99.3007 76.987C101.666 79.604 103.847 82.3823 105.827 85.3017C107.678 88.0628 109.153 91.075 111.004 93.8675C111.224 94.1498 111.726 93.8675 111.632 93.6165H111.694Z" fill="#E8E3DB"/>
<path d="M85.0512 161.548C85.0881 154.702 84.6056 147.863 83.6079 141.09C82.8354 134.531 81.4058 128.067 79.3407 121.794C77.2071 115.832 73.5674 110.781 70.9004 105.102C68.4357 98.8672 66.8516 92.3198 66.194 85.6482C66.194 85.1462 65.2527 85.1462 65.1586 85.6482C62.6542 98.1197 63.7422 111.046 68.2962 122.923C69.3944 125.81 70.7436 128.571 72.03 131.395C73.3626 134.694 74.351 138.122 74.9794 141.624C76.5188 147.904 79.005 153.913 82.3528 159.445C82.7293 160.104 83.6079 159.445 83.3255 158.881C80.3159 153.017 77.8984 146.869 76.1089 140.525C75.6348 137.58 74.8675 134.69 73.8184 131.897C72.5948 128.948 71.0887 126.092 69.8964 123.112C64.837 111.38 63.5433 98.3664 66.194 85.8679L65.1272 85.711C65.392 92.1285 66.7173 98.458 69.0492 104.443C71.528 110.247 75.5128 115.236 77.8032 121.135C82.7607 133.874 83.5137 148.056 84.3923 161.548C84.4166 161.633 84.4681 161.708 84.5388 161.761C84.6096 161.815 84.6958 161.844 84.7845 161.844C84.8731 161.844 84.9593 161.815 85.0301 161.761C85.1009 161.708 85.1523 161.633 85.1767 161.548H85.0512Z" fill="#E8E3DB"/>
<path d="M196.566 358.681C196.912 331.135 204.908 304.227 219.659 280.962L218.341 280.177C215.611 284.821 215.862 290.375 215.204 295.552C214.516 301.92 213.288 308.218 211.533 314.378C208.395 325.202 203.312 335.18 199.766 345.754C197.699 351.109 196.635 356.8 196.629 362.54C196.629 362.757 196.715 362.964 196.868 363.117C197.021 363.27 197.228 363.356 197.445 363.356C197.661 363.356 197.868 363.27 198.021 363.117C198.174 362.964 198.26 362.757 198.26 362.54C198.762 349.174 205.257 337.063 209.901 324.889C212.637 317.705 214.634 310.262 215.862 302.674C216.459 299.003 216.867 295.332 217.149 291.63C217.109 287.934 217.936 284.28 219.565 280.962C219.616 280.875 219.65 280.779 219.665 280.68C219.679 280.58 219.674 280.479 219.649 280.381C219.624 280.283 219.581 280.192 219.52 280.111C219.46 280.03 219.385 279.962 219.298 279.911C219.212 279.859 219.116 279.825 219.016 279.811C218.917 279.796 218.815 279.802 218.717 279.826C218.62 279.851 218.528 279.895 218.447 279.955C218.367 280.015 218.299 280.091 218.247 280.177C210.956 291.741 205.286 304.252 201.398 317.358C197.21 330.723 195.207 344.677 195.468 358.681C195.499 358.812 195.573 358.929 195.678 359.012C195.783 359.096 195.914 359.141 196.048 359.141C196.183 359.141 196.313 359.096 196.419 359.012C196.524 358.929 196.598 358.812 196.629 358.681H196.566Z" fill="#E8E3DB"/>
</svg>
