<svg width="256" height="378" viewBox="0 0 256 378" fill="none" xmlns="http://www.w3.org/2000/svg">
<path d="M187.535 54.3532C166.893 94.4974 140.53 131.258 116.567 169.649C104.594 188.45 93.786 207.97 84.2054 228.096C74.3915 249.614 66.3863 271.911 60.2727 294.757C56.7351 307.708 53.5973 320.782 50.675 333.917C47.7526 347.053 44.5226 360.188 42.7384 373.477C42.5538 374.923 44.5841 375.6 44.984 374.092C48.0602 362.557 50.1828 350.652 52.736 338.962C55.2892 327.273 58.0271 315.522 61.0417 303.924C66.8049 280.811 74.3645 258.184 83.6517 236.248C101.494 195.181 126.718 158.082 150.774 120.43C164.577 99.2387 177.109 77.2462 188.304 54.5685C188.55 54.0763 187.811 53.6149 187.535 54.1378V54.3532Z" fill="#E8E3DB"/>
<path d="M43.847 376.676C48.4449 368.678 54.8894 361.896 62.6425 356.897C70.532 351.633 77.9897 345.749 84.9449 339.301C91.3362 332.797 97.1707 325.769 102.387 318.29C107.814 310.771 112.785 302.933 117.276 294.819C122.378 285.697 126.227 275.93 128.719 265.78C128.768 265.537 128.733 265.285 128.618 265.066C128.503 264.846 128.316 264.673 128.088 264.576C127.861 264.478 127.606 264.462 127.368 264.53C127.13 264.598 126.923 264.746 126.781 264.949C121.364 272.604 115.18 279.685 108.324 286.083C101.187 293.055 94.0709 300.059 86.9752 307.093C80.1768 313.891 73.2554 320.659 66.9492 327.95C61.2198 334.421 56.435 341.671 52.7372 349.483C48.7416 358.118 45.2895 366.995 42.4012 376.061C41.909 377.569 44.1854 378.122 44.7391 376.707C47.8153 368.648 50.5531 360.434 54.1523 352.559C57.7056 344.564 62.3655 337.108 67.9951 330.411C74.1475 323.274 80.6998 316.629 87.2828 309.954C93.8659 303.279 101.279 295.926 108.355 288.944C115.868 281.956 122.678 274.249 128.688 265.934L126.781 265.134C122.536 283.591 112.692 299.895 102.172 315.183C96.8783 322.95 90.9518 330.265 84.4527 337.055C77.4308 343.663 69.9019 349.711 61.935 355.143C54.3061 360.865 47.077 367.448 43.3241 376.277C43.1395 376.707 43.8778 377.015 44.0931 376.584L43.847 376.676Z" fill="#E8E3DB"/>
<path d="M3.30091 248.431C12.2254 260.239 20.4429 272.566 27.9104 285.345C35.847 297.819 41.7549 311.473 45.4139 325.797C47.0526 334.109 47.652 342.593 47.1981 351.053C47.1936 351.326 47.2899 351.59 47.4685 351.796C47.6472 352.003 47.8956 352.135 48.1661 352.17C48.4367 352.204 48.7104 352.137 48.9348 351.982C49.1592 351.827 49.3185 351.595 49.3822 351.33C50.7397 344.027 50.6142 336.526 49.0131 329.273C47.5597 321.779 45.2369 314.48 42.0917 307.525C35.6992 293.825 28.0693 280.738 19.2971 268.426C14.5314 261.353 9.39735 254.535 3.91615 248C3.67005 247.693 3.11634 248 3.36243 248.431H3.30091Z" fill="#E8E3DB"/>
<path d="M27.4781 245.598C29.2315 256.211 31.2926 266.731 33.2921 277.283C34.1629 282.198 34.7586 287.159 35.0763 292.141C35.3839 295.894 35.4762 301.585 38.6447 304.138C38.735 304.23 38.851 304.293 38.9775 304.319C39.1041 304.345 39.2354 304.332 39.3546 304.282C39.4738 304.232 39.5754 304.148 39.6463 304.04C39.7171 303.932 39.754 303.806 39.7521 303.676C39.5144 301.592 39.0924 299.534 38.4909 297.524C38.0709 295.186 37.8038 292.822 37.691 290.449C37.4021 285.648 36.7439 280.876 35.7223 276.175C33.3844 265.87 30.985 255.565 28.3394 245.413C28.3109 245.299 28.2381 245.201 28.1372 245.14C28.0362 245.08 27.9153 245.062 27.8011 245.09C27.6869 245.119 27.5887 245.192 27.5281 245.293C27.4675 245.394 27.4495 245.515 27.4781 245.629V245.598Z" fill="#E8E3DB"/>
<path d="M158.064 228.495C143.789 229.108 129.7 231.973 116.32 236.985C103.277 241.722 89.6185 247.752 79.4055 257.38C73.548 262.294 68.9052 268.495 65.8396 275.499C65.1936 277.314 68.0852 278.052 68.7312 276.268C71.489 270.219 75.5057 264.829 80.513 260.456C85.4107 255.733 90.9513 251.725 96.9706 248.551C108.908 241.907 121.643 236.811 134.869 233.386C142.481 231.497 150.241 230.262 158.064 229.694C158.74 229.694 158.74 228.618 158.064 228.648V228.495Z" fill="#E8E3DB"/>
<path d="M132.193 207.699C112.659 219.112 93.525 232.309 79.8975 250.52C78.021 252.95 76.2676 255.503 74.6372 258.087C72.8487 260.588 71.4294 263.334 70.4228 266.239C70.146 267.193 71.5303 268.146 72.207 267.254C74.2681 264.609 75.6216 261.41 77.4365 258.58C79.2515 255.749 81.2203 252.919 83.3121 250.243C87.6049 244.761 92.3153 239.618 97.401 234.862C108.432 225.032 120.242 216.112 132.716 208.192C132.775 208.133 132.812 208.057 132.823 207.975C132.833 207.893 132.816 207.81 132.773 207.739C132.73 207.668 132.665 207.613 132.588 207.584C132.511 207.554 132.426 207.552 132.347 207.576L132.193 207.699Z" fill="#E8E3DB"/>
<path d="M75.9296 248.556C80.5181 235.998 84.1985 223.127 86.9424 210.042C89.7469 197.828 91.0587 185.319 90.8491 172.789C90.0251 154.158 87.5962 135.632 83.5893 117.418C81.7431 107.505 79.1832 97.7382 75.9296 88.1941C75.5297 87.1174 73.7763 87.2097 73.8378 88.4709C74.5761 107.728 73.4072 127.077 72.4228 146.303C71.2538 168.298 70.1464 190.201 71.0693 212.226C71.5811 226.006 72.8545 239.746 74.8837 253.385C74.8837 254.278 76.5449 254.062 76.4526 253.17C73.639 228.532 72.4367 203.736 72.8534 178.942C73.4072 159.193 74.9452 139.505 75.622 119.756C75.9912 109.389 76.2372 98.9915 75.8373 88.594L73.7455 88.8708C76.5879 97.0319 78.8696 105.378 80.5747 113.849C82.6972 123.601 84.3891 133.414 85.8042 143.289C87.0962 152.117 88.1421 160.977 88.5728 169.867C89.0732 181.592 88.1644 193.335 85.8657 204.843C84.4814 212.195 82.7895 219.455 80.79 226.653C78.7905 233.852 76.5449 241.019 74.8222 248.187C74.7855 248.321 74.8038 248.465 74.873 248.586C74.9422 248.707 75.0567 248.796 75.1913 248.833C75.326 248.869 75.4696 248.851 75.5908 248.782C75.7119 248.713 75.8006 248.598 75.8373 248.464L75.9296 248.556Z" fill="#E8E3DB"/>
<path d="M111.581 183.548C115.734 174.319 127.608 171.243 136.191 168.167C145.758 164.875 155.54 162.353 165.261 159.615C174.902 157.037 184.333 153.726 193.469 149.709C201.888 145.836 209.635 140.643 216.418 134.329C223.774 127.695 230.007 119.914 234.875 111.288C234.983 111.117 235.029 110.914 235.007 110.713C234.984 110.512 234.894 110.324 234.751 110.181C234.608 110.038 234.421 109.948 234.219 109.925C234.018 109.903 233.816 109.949 233.644 110.057C219.525 119.286 202.883 123.531 186.856 128.791C178.878 131.307 171.128 134.497 163.692 138.328C156.143 142.598 149.016 147.572 142.405 153.186C134.622 159.553 127.024 166.382 119.579 172.965C118.472 173.919 120.072 175.488 121.148 174.534C134.683 163.06 147.419 150.202 162.923 141.281C177.627 132.852 194.361 128.976 210.173 123.254C218.745 120.38 226.936 116.475 234.567 111.626L233.337 110.396C224.253 126.76 210.267 139.864 193.346 147.864C174.612 156.539 154.063 159.984 134.714 166.936C126.039 170.012 114.534 173.458 110.843 182.932C110.658 183.424 111.489 183.794 111.735 183.301L111.581 183.548Z" fill="#E8E3DB"/>
<path d="M113.493 54.5073C123.277 83.5835 126.101 114.55 121.737 144.916C120.41 153.423 118.634 161.853 116.415 170.172C116.388 170.413 116.448 170.656 116.584 170.857C116.721 171.058 116.925 171.203 117.159 171.267C117.394 171.33 117.643 171.307 117.862 171.202C118.081 171.097 118.255 170.917 118.353 170.695C122.866 155.907 125.31 140.564 125.613 125.106C126.023 109.904 124.65 94.7064 121.522 79.8243C119.681 71.1664 117.213 62.6537 114.139 54.3535C113.985 53.9536 113.37 54.1381 113.493 54.538V54.5073Z" fill="#E8E3DB"/>
<path d="M89.8047 61.9494C95.4956 70.0398 102.878 76.5921 109.338 84.0365C112.757 87.8214 115.692 92.0167 118.075 96.5258C119.438 99.2109 120.59 101.998 121.52 104.862C122.245 107.557 123.129 110.208 124.166 112.799C124.443 113.353 125.488 113.106 125.427 112.46C124.947 109.703 124.184 107.002 123.151 104.401C122.29 101.745 121.262 99.1451 120.074 96.6181C117.85 92.1746 115.058 88.0385 111.769 84.3133C105.001 76.469 96.9107 69.7937 90.6045 61.5188C90.2969 61.1189 89.5894 61.5188 89.897 61.9494H89.8047Z" fill="#E8E3DB"/>
<path d="M125.149 47.5815C130.387 66.9443 129.636 87.4398 122.995 106.367C122.688 107.198 124.01 107.567 124.287 106.737C131.264 87.6582 131.75 66.8109 125.672 47.4277C125.643 47.3695 125.594 47.3234 125.534 47.2975C125.475 47.2715 125.408 47.2673 125.346 47.2857C125.283 47.304 125.229 47.3437 125.193 47.3978C125.157 47.4519 125.142 47.5169 125.149 47.5815Z" fill="#E8E3DB"/>
<path d="M244.598 61.8873C238.015 62.5591 231.474 63.586 225.002 64.9635C218.847 66.4369 212.866 68.5612 207.16 71.3005C201.193 74.0998 195.44 77.4528 189.749 80.6828C183.986 83.9664 178.437 87.614 173.138 91.6033C167.445 95.5808 162.393 100.405 158.157 105.908C157.818 106.4 158.557 106.861 158.956 106.492C163.571 102.616 167.601 98.0941 172.338 94.1873C177.424 90.1849 182.779 86.5362 188.365 83.2668C198.998 76.3463 210.5 70.864 222.572 66.963C229.803 65.044 237.164 63.656 244.598 62.8102C245.182 62.8102 245.213 61.795 244.598 61.8566V61.8873Z" fill="#E8E3DB"/>
<path d="M237.121 85.3913C227.963 83.4283 218.644 82.306 209.281 82.0383C200.545 81.6691 190.64 81.6691 182.396 85.1145C181.442 85.5144 181.78 87.0217 182.857 86.7449C187.195 85.459 191.628 84.5229 196.115 83.9455C200.615 83.5455 205.136 83.4222 209.651 83.5764C218.879 83.8532 227.923 85.0529 237.09 85.5451V85.299L237.121 85.3913Z" fill="#E8E3DB"/>
<path d="M158.739 104.37C163.213 97.0285 167.12 89.3569 170.429 81.4219C172.718 75.4819 174.267 69.283 175.043 62.9648C176.92 49.245 176.889 35.2791 177.473 21.5593C177.594 14.8028 178.242 8.06597 179.411 1.41026C179.452 1.20271 179.42 0.987478 179.321 0.800591C179.222 0.613703 179.062 0.4665 178.867 0.383621C178.673 0.300742 178.456 0.287216 178.252 0.345306C178.049 0.403397 177.872 0.529579 177.75 0.702733C175.379 4.76403 173.322 9.00107 171.598 13.3766C169.014 19.529 166.737 25.9582 164.676 32.3875C159.844 46.6266 156.745 61.3963 155.448 76.377C155.231 85.6545 155.952 94.9303 157.601 104.063C157.601 104.924 159.078 104.924 158.955 104.063C157.536 95.8616 156.774 87.5602 156.678 79.2378C157.066 71.9833 158.095 64.7774 159.755 57.7045C162.791 43.57 167.02 29.7185 172.398 16.299C174.303 11.2281 176.617 6.3207 179.319 1.62559L177.658 0.918067C175.197 13.0383 175.474 25.7122 175.105 38.0169C174.705 51.2753 174.366 64.9336 170.337 77.5152C166.988 86.6348 162.871 95.454 158.032 103.878C158 103.935 157.979 103.997 157.97 104.062C157.962 104.126 157.967 104.192 157.984 104.255C158.001 104.318 158.031 104.376 158.07 104.428C158.11 104.479 158.16 104.523 158.216 104.555C158.273 104.587 158.335 104.608 158.4 104.616C158.465 104.624 158.53 104.62 158.593 104.603C158.656 104.586 158.715 104.556 158.766 104.516C158.818 104.477 158.861 104.427 158.893 104.37H158.739Z" fill="#E8E3DB"/>
<path d="M200.577 25.5026C197.501 31.9934 194.425 38.3611 191.349 44.7903C189.718 48.1741 188.273 51.5579 186.519 54.9417C184.904 57.739 183.614 60.7114 182.674 63.8012C182.648 63.9065 182.659 64.0176 182.707 64.1151C182.755 64.2127 182.835 64.2903 182.934 64.3344C183.033 64.3784 183.145 64.3861 183.249 64.3561C183.353 64.3261 183.444 64.2603 183.504 64.1703C185.183 61.3616 186.604 58.4066 187.75 55.3416C189.318 51.9271 190.826 48.5125 192.548 45.1287C195.625 38.761 198.516 32.3625 201.254 25.9025C201.439 25.4411 200.793 25.0104 200.577 25.5026Z" fill="#E8E3DB"/>
<path d="M224.204 19.9329C216.698 25.4887 209.67 31.6626 203.193 38.39C199.779 42.0507 196.518 45.7421 193.319 49.5258C189.794 53.3628 186.585 57.4777 183.721 61.8306C183.648 61.9285 183.616 62.0515 183.634 62.1727C183.651 62.2938 183.716 62.4031 183.813 62.4766C183.911 62.55 184.034 62.5815 184.156 62.5642C184.277 62.5469 184.386 62.4822 184.459 62.3843C188.028 58.7544 190.889 54.2939 194.149 50.3871C197.41 46.4804 200.548 42.8505 203.932 39.2513C210.304 32.4803 217.195 26.2167 224.542 20.5173C224.788 20.3328 224.542 19.9021 224.204 20.0867V19.9329Z" fill="#E8E3DB"/>
<path d="M27.6033 245.476C26.4756 245.89 25.2514 245.965 24.0816 245.692C22.9117 245.419 21.8475 244.809 21.0202 243.938C20.1324 243.075 19.5254 241.965 19.2784 240.752C19.0314 239.539 19.156 238.28 19.6359 237.139C20.1594 236.099 20.9459 235.214 21.9172 234.572C22.8886 233.93 24.011 233.553 25.1731 233.479C26.2428 233.459 27.2941 233.759 28.1926 234.34C29.0912 234.921 29.7963 235.756 30.218 236.739C30.8595 238.015 31.0198 239.479 30.6695 240.863C30.3192 242.248 29.4818 243.459 28.3108 244.276C27.4495 244.861 28.3108 246.245 29.1414 245.66C30.4756 244.77 31.479 243.465 31.9962 241.947C32.5134 240.428 32.5156 238.782 32.0022 237.262C31.6089 235.947 30.846 234.772 29.8045 233.878C28.7629 232.984 27.4864 232.407 26.1267 232.217C24.729 232.124 23.3322 232.412 22.0859 233.052C20.8395 233.691 19.7906 234.657 19.0515 235.847C18.2765 237.081 17.9127 238.529 18.0122 239.983C18.1117 241.436 18.6694 242.821 19.6052 243.938C20.5158 245.157 21.7851 246.06 23.2351 246.522C23.987 246.767 24.7828 246.847 25.5684 246.756C26.3541 246.666 27.111 246.408 27.7878 245.999C27.849 245.974 27.898 245.927 27.9239 245.866C27.9499 245.805 27.9507 245.737 27.9263 245.676C27.9018 245.615 27.854 245.566 27.7934 245.54C27.7329 245.514 27.6645 245.513 27.6033 245.537V245.476Z" fill="#E8E3DB"/>
<path d="M132.283 207.514C131.829 206.424 131.698 205.227 131.905 204.066C132.113 202.904 132.65 201.826 133.452 200.961C134.255 200.024 135.32 199.35 136.511 199.027C137.701 198.703 138.961 198.745 140.128 199.146C141.232 199.605 142.192 200.352 142.906 201.311C143.621 202.269 144.064 203.402 144.188 204.591C144.248 205.661 143.987 206.724 143.439 207.645C142.891 208.565 142.081 209.302 141.112 209.759C139.863 210.443 138.411 210.657 137.017 210.364C135.624 210.071 134.381 209.289 133.514 208.16C132.929 207.329 131.514 208.159 132.13 208.99C133.017 210.179 134.238 211.076 135.638 211.565C137.038 212.055 138.553 212.115 139.987 211.738C141.422 211.361 142.711 210.565 143.69 209.45C144.669 208.336 145.292 206.954 145.48 205.483C145.523 204.071 145.178 202.674 144.484 201.443C143.79 200.213 142.773 199.195 141.543 198.5C140.266 197.799 138.8 197.517 137.354 197.694C135.908 197.87 134.554 198.497 133.483 199.485C132.328 200.451 131.501 201.751 131.114 203.207C130.904 203.957 130.859 204.745 130.981 205.514C131.103 206.284 131.39 207.019 131.822 207.667C131.822 207.883 132.376 207.667 132.283 207.483V207.514Z" fill="#E8E3DB"/>
<path d="M113.213 54.908C112.215 55.5567 111.05 55.902 109.86 55.902C108.67 55.902 107.505 55.5567 106.507 54.908C105.44 54.3055 104.577 53.398 104.029 52.3019C103.481 51.2058 103.273 49.9709 103.431 48.7557C103.682 47.599 104.24 46.5314 105.047 45.6652C105.853 44.799 106.878 44.1663 108.014 43.8337C109.026 43.5786 110.09 43.6263 111.074 43.9709C112.059 44.3154 112.92 44.9417 113.552 45.7717C114.499 46.8586 115.021 48.2519 115.021 49.6939C115.021 51.1359 114.499 52.5292 113.552 53.616C112.844 54.3543 113.982 55.5233 114.69 54.7542C115.785 53.5659 116.452 52.0462 116.585 50.4359C116.719 48.8256 116.312 47.2167 115.428 45.864C114.745 44.7103 113.751 43.7723 112.559 43.1575C111.368 42.5428 110.027 42.276 108.691 42.3879C107.291 42.605 105.978 43.2015 104.893 44.1126C103.808 45.0237 102.994 46.2146 102.539 47.5559C102.073 48.9602 102.07 50.4766 102.53 51.8828C102.989 53.2889 103.887 54.5109 105.092 55.3695C106.267 56.3127 107.709 56.8616 109.214 56.9383C109.997 56.9845 110.781 56.863 111.513 56.5818C112.245 56.3006 112.909 55.8663 113.459 55.3079C113.493 55.2636 113.512 55.2089 113.511 55.1529C113.51 55.0969 113.489 55.043 113.454 54.9999C113.418 54.9569 113.368 54.9274 113.313 54.9163C113.258 54.9052 113.201 54.9131 113.152 54.9388L113.213 54.908Z" fill="#E8E3DB"/>
<path d="M223.802 20.0821C223.237 19.0382 222.975 17.857 223.046 16.6721C223.117 15.4871 223.517 14.3455 224.202 13.3761C224.907 12.3375 225.912 11.5393 227.083 11.0884C228.254 10.6375 229.535 10.5556 230.754 10.8536C231.892 11.2073 232.913 11.8587 233.714 12.7404C234.515 13.6221 235.065 14.7019 235.307 15.8678C235.449 16.9093 235.29 17.9697 234.848 18.9236C234.407 19.8776 233.701 20.6852 232.816 21.2511C231.637 22.041 230.221 22.399 228.808 22.2645C227.395 22.1299 226.072 21.5111 225.064 20.5128C224.356 19.7438 223.218 20.882 223.925 21.651C225.042 22.8383 226.522 23.6192 228.133 23.8699C229.743 24.1207 231.391 23.8269 232.816 23.0353C234.015 22.4372 235.022 21.5148 235.724 20.3729C236.425 19.231 236.792 17.9154 236.784 16.5753C236.666 15.1506 236.155 13.7865 235.308 12.635C234.461 11.4836 233.31 10.59 231.985 10.0538C230.611 9.48439 229.092 9.3683 227.648 9.72241C226.204 10.0765 224.91 10.8823 223.956 12.0225C222.953 13.164 222.311 14.577 222.11 16.0831C222.013 16.8848 222.094 17.6981 222.35 18.4643C222.605 19.2304 223.028 19.9302 223.587 20.5128C223.772 20.7281 224.079 20.5128 223.956 20.236L223.802 20.0821Z" fill="#E8E3DB"/>
<path d="M200.517 25.1269C199.751 24.6777 199.117 24.0344 198.68 23.262C198.242 22.4897 198.016 21.6155 198.025 20.7279C198.008 19.8241 198.245 18.9335 198.706 18.1565C199.168 17.3794 199.838 16.7465 200.64 16.329C201.433 16.0039 202.294 15.8787 203.147 15.9645C204 16.0504 204.818 16.3445 205.531 16.8212C206.29 17.3244 206.86 18.0667 207.15 18.9304C207.439 19.7941 207.433 20.7298 207.13 21.5893C206.756 22.6926 205.986 23.6179 204.969 24.1862C203.952 24.7544 202.76 24.9252 201.624 24.6654C201.424 24.6211 201.215 24.6549 201.04 24.7601C200.864 24.8652 200.736 25.0336 200.68 25.2306C200.625 25.4276 200.648 25.6382 200.743 25.8192C200.838 26.0002 201 26.1377 201.193 26.2035C202.545 26.5903 203.989 26.4876 205.272 25.9136C206.555 25.3396 207.595 24.3311 208.207 23.0658C208.759 21.9851 208.955 20.7574 208.767 19.5584C208.58 18.3594 208.017 17.2506 207.161 16.3905C206.338 15.6556 205.342 15.1405 204.267 14.8932C203.191 14.6458 202.07 14.6741 201.009 14.9754C199.952 15.3356 199.022 15.9957 198.334 16.8752C197.646 17.7547 197.228 18.8154 197.133 19.9281C196.97 21.1093 197.174 22.3121 197.717 23.3734C198.003 23.8696 198.355 24.3249 198.763 24.727C199.241 25.1354 199.811 25.4206 200.424 25.5575C200.476 25.5624 200.528 25.5507 200.573 25.5241C200.618 25.4975 200.653 25.4573 200.674 25.4095C200.694 25.3616 200.699 25.3084 200.687 25.2576C200.676 25.2069 200.648 25.1611 200.609 25.1269H200.517Z" fill="#E8E3DB"/>
<path d="M245.12 62.5359C245.031 61.577 245.219 60.6127 245.66 59.7569C246.102 58.9011 246.779 58.1895 247.612 57.7063C248.402 57.2156 249.32 56.9684 250.25 56.9958C251.18 57.0232 252.081 57.3237 252.841 57.8601C253.515 58.4193 254.041 59.1352 254.374 59.9451C254.706 60.7549 254.835 61.6339 254.749 62.5051C254.635 63.3194 254.281 64.0816 253.734 64.6949C253.186 65.3083 252.469 65.7452 251.672 65.9505C250.59 66.2394 249.441 66.1277 248.434 65.6359C247.428 65.1441 246.634 64.3054 246.197 63.2742C245.828 62.2898 244.259 62.7205 244.628 63.7048C245.084 64.9358 245.935 65.9808 247.049 66.6766C248.162 67.3723 249.474 67.6795 250.78 67.5501C251.889 67.4247 252.939 66.9844 253.806 66.2811C254.673 65.5779 255.32 64.6412 255.672 63.5818C255.964 62.5326 255.974 61.4244 255.698 60.3704C255.422 59.3165 254.872 58.3547 254.103 57.5832C253.282 56.7488 252.222 56.1908 251.07 55.9868C249.918 55.7828 248.73 55.943 247.673 56.445C246.49 56.9399 245.498 57.8029 244.843 58.906C244.513 59.4557 244.308 60.0719 244.244 60.7102C244.18 61.3486 244.259 61.9931 244.474 62.5974C244.474 62.8435 244.966 62.8128 244.966 62.5974L245.12 62.5359Z" fill="#E8E3DB"/>
<path d="M237.34 85.1137C237.597 84.2348 238.087 83.4418 238.759 82.819C239.431 82.1962 240.258 81.7667 241.154 81.5761C242.016 81.379 242.916 81.4209 243.756 81.6974C244.596 81.9738 245.345 82.4743 245.922 83.145C246.406 83.8284 246.72 84.6177 246.838 85.447C246.956 86.2763 246.874 87.1218 246.599 87.913C246.298 88.7924 245.709 89.5444 244.927 90.047C244.146 90.5496 243.217 90.7732 242.292 90.6816C241.117 90.6042 240.014 90.0859 239.204 89.2304C238.394 88.3749 237.937 87.2453 237.924 86.0673C237.924 85.8552 237.84 85.6518 237.69 85.5018C237.54 85.3518 237.336 85.2675 237.124 85.2675C236.912 85.2675 236.709 85.3518 236.559 85.5018C236.409 85.6518 236.324 85.8552 236.324 86.0673C236.315 87.4383 236.777 88.7708 237.634 89.8408C238.491 90.9109 239.691 91.6531 241.031 91.9429C242.236 92.244 243.505 92.1493 244.652 91.6729C245.799 91.1965 246.762 90.3635 247.399 89.2973C247.905 88.351 248.17 87.2944 248.17 86.2211C248.17 85.1479 247.905 84.0913 247.399 83.145C246.819 82.2024 245.979 81.4479 244.98 80.9729C243.981 80.498 242.866 80.3228 241.769 80.4687C240.555 80.5754 239.404 81.0595 238.478 81.853C238.022 82.2313 237.65 82.7001 237.386 83.2296C237.121 83.7591 236.969 84.3378 236.94 84.9291C236.94 85.206 237.34 85.2368 237.432 84.9291L237.34 85.1137Z" fill="#E8E3DB"/>
<path d="M89.405 61.6423C88.4038 62.2974 87.2332 62.6464 86.0366 62.6464C84.8401 62.6464 83.6695 62.2974 82.6682 61.6423C81.601 61.0398 80.738 60.1323 80.19 59.0362C79.6419 57.9401 79.4337 56.7052 79.592 55.4899C79.8517 54.3323 80.4166 53.2653 81.228 52.3998C82.0394 51.5343 83.0678 50.9018 84.2063 50.568C85.2178 50.321 86.2792 50.3725 87.262 50.7165C88.2448 51.0605 89.1068 51.6821 89.7434 52.506C90.6911 53.5929 91.2133 54.9861 91.2133 56.4282C91.2133 57.8702 90.6911 59.2635 89.7434 60.3503C89.0667 61.0886 90.2049 62.2268 90.8816 61.4885C91.9716 60.2986 92.638 58.7818 92.7771 57.1741C92.9161 55.5664 92.5202 53.9578 91.6507 52.5983C90.9623 51.4496 89.967 50.5157 88.7769 49.9016C87.5868 49.2875 86.2489 49.0176 84.9138 49.1222C83.5152 49.3426 82.2032 49.9402 81.1191 50.8509C80.035 51.7615 79.2199 52.9507 78.7614 54.2902C78.2961 55.6945 78.293 57.2109 78.7525 58.6171C79.212 60.0232 80.1099 61.2452 81.3147 62.1037C82.4928 63.0415 83.9333 63.5898 85.4368 63.6726C86.2201 63.7229 87.005 63.6032 87.7377 63.3218C88.4704 63.0404 89.1336 62.6039 89.6819 62.0422C89.8665 61.8577 89.6819 61.5193 89.405 61.6731V61.6423Z" fill="#E8E3DB"/>
<path d="M124.536 47.4337C123.308 47.5531 122.071 47.311 120.978 46.7372C119.885 46.1634 118.983 45.2829 118.384 44.2037C117.774 43.1571 117.486 41.9536 117.557 40.7442C117.629 39.5348 118.055 38.3733 118.784 37.4054C119.486 36.5864 120.376 35.949 121.378 35.5474C122.379 35.1457 123.463 34.9916 124.536 35.0982C125.645 35.2384 126.681 35.7238 127.498 36.4857C128.315 37.2477 128.872 38.2474 129.089 39.3434C129.423 40.7541 129.248 42.2375 128.596 43.532C127.943 44.8264 126.854 45.8487 125.521 46.4186C124.536 46.757 124.967 48.3258 125.921 47.9875C127.451 47.4308 128.754 46.384 129.628 45.0097C130.501 43.6355 130.896 42.0111 130.75 40.3893C130.654 38.9887 130.151 37.6465 129.305 36.5266C128.458 35.4068 127.303 34.5577 125.982 34.0831C124.68 33.723 123.307 33.7067 121.997 34.0355C120.687 34.3644 119.484 35.0273 118.507 35.9596C117.486 36.9582 116.799 38.2481 116.54 39.6525C116.282 41.0569 116.463 42.5069 117.061 43.8038C117.576 45.3062 118.637 46.5603 120.032 47.318C121.428 48.0757 123.057 48.2817 124.598 47.8952C124.844 47.8952 124.813 47.403 124.598 47.4337H124.536Z" fill="#E8E3DB"/>
<path d="M157.727 227.637C157.121 226.012 156.998 224.246 157.373 222.553C157.748 220.86 158.606 219.311 159.842 218.095C161.078 216.878 162.64 216.045 164.339 215.697C166.038 215.349 167.801 215.5 169.416 216.132C170.898 216.861 172.167 217.961 173.099 219.325C174.031 220.688 174.596 222.269 174.738 223.915C174.784 225.452 174.381 226.969 173.578 228.28C172.774 229.591 171.606 230.64 170.216 231.297C168.386 232.248 166.277 232.513 164.269 232.045C162.26 231.577 160.486 230.406 159.265 228.744C158.68 227.914 157.296 228.744 157.881 229.575C159.101 231.331 160.859 232.643 162.889 233.314C164.92 233.985 167.113 233.979 169.14 233.297C170.906 232.774 172.486 231.758 173.696 230.369C174.905 228.979 175.694 227.274 175.969 225.453C176.127 223.543 175.757 221.626 174.9 219.911C174.043 218.197 172.731 216.751 171.108 215.732C169.413 214.678 167.426 214.191 165.436 214.34C163.445 214.489 161.553 215.268 160.034 216.562C158.291 217.789 157.053 219.607 156.55 221.678C156.046 223.748 156.312 225.931 157.296 227.821C157.296 228.067 157.85 227.821 157.727 227.637Z" fill="#E8E3DB"/>
<path d="M2.83953 248.156C1.6369 248.43 0.38036 248.35 -0.777379 247.924C-1.93512 247.498 -2.9442 246.745 -3.68199 245.756C-4.41229 244.782 -4.83719 243.613 -4.9029 242.398C-4.96861 241.182 -4.67218 239.974 -4.05113 238.927C-3.43282 237.961 -2.5758 237.17 -1.56279 236.631C-0.549775 236.092 0.585028 235.823 1.7321 235.851C2.81397 235.939 3.84349 236.354 4.68407 237.041C5.52466 237.728 6.13658 238.654 6.43867 239.696C6.92001 241.037 6.90547 242.507 6.39768 243.838C5.88989 245.17 4.92237 246.276 3.6701 246.956C2.74724 247.448 3.6701 248.832 4.50067 248.34C5.92375 247.569 7.04985 246.347 7.70149 244.865C8.35313 243.384 8.49326 241.728 8.09981 240.158C7.77848 238.868 7.10485 237.693 6.15419 236.764C5.20353 235.835 4.0133 235.189 2.71648 234.897C1.36767 234.667 -0.0182099 234.799 -1.29925 235.28C-2.58029 235.761 -3.71048 236.574 -4.57409 237.635C-5.47396 238.759 -6.00427 240.134 -6.09238 241.572C-6.18049 243.009 -5.82209 244.438 -5.06628 245.664C-4.26674 247.035 -3.04829 248.113 -1.59018 248.74C-0.86684 249.074 -0.0796828 249.247 0.71696 249.247C1.5136 249.247 2.30076 249.074 3.0241 248.74C3.2702 248.74 3.0241 248.248 2.83953 248.31V248.156Z" fill="#E8E3DB"/>
</svg>
