<svg width="242" height="446" viewBox="0 0 242 446" fill="none" xmlns="http://www.w3.org/2000/svg">
<path d="M101.621 1.81704C107.302 11.9564 111.789 22.7206 114.989 33.8937C118.828 45.9661 121.799 58.2977 123.878 70.794C124.733 75.5762 125.263 80.4108 125.463 85.2647C125.446 92.9097 124.997 100.548 124.12 108.142C122.569 126.437 119.744 144.629 119.296 162.993C118.703 198.028 124.542 232.875 136.523 265.804C147.944 297.008 163.507 326.535 182.795 353.593C201.055 379.502 222.245 404.171 234.476 433.801C235.957 437.454 237.404 441.175 238.783 444.896C238.869 445.215 239.08 445.488 239.367 445.652C239.655 445.817 239.996 445.861 240.316 445.774C240.636 445.687 240.908 445.477 241.073 445.19C241.237 444.902 241.281 444.561 241.194 444.241C236.716 429.154 229.916 414.857 221.039 401.863C212.425 388.357 202.709 375.609 193.269 362.688C173.138 335.985 156.457 306.848 143.621 275.968C130.295 243.423 122.908 208.755 121.811 173.605C121.908 155.339 123.058 137.094 125.257 118.961C126.566 105.179 128.461 90.8807 126.6 76.9957C124.912 65.042 122.309 53.2355 118.814 41.6803C115.538 29.9557 111.238 18.5419 105.962 7.57086C104.86 5.40026 103.688 3.26411 102.517 1.19687C102.207 0.714513 101.38 1.19687 101.724 1.67922L101.621 1.81704Z" fill="#465760"/>
<path d="M214.698 393.591C211.838 385.254 208.841 377.019 206.739 368.44C204.634 359.726 203.16 350.871 202.329 341.945C200.733 324.21 201.719 306.337 205.258 288.886C207.263 279.024 210.11 269.353 213.768 259.979C214.25 258.773 212.286 258.222 211.804 259.427C198.775 293.157 196.065 329.997 204.017 365.27C206.061 375.21 209.228 384.884 213.458 394.108C213.533 394.266 213.667 394.39 213.83 394.453C213.994 394.517 214.176 394.515 214.338 394.449C214.501 394.383 214.632 394.258 214.705 394.098C214.779 393.939 214.788 393.758 214.733 393.591H214.698Z" fill="#465760"/>
<path d="M212.083 260.637C203.986 273.764 196.372 287.649 193.444 302.981C190.857 318.92 192.181 335.249 197.302 350.562C199.695 359.147 202.998 367.452 207.156 375.335C207.237 375.433 207.348 375.503 207.471 375.533C207.595 375.562 207.725 375.551 207.842 375.501C207.959 375.45 208.056 375.363 208.119 375.252C208.182 375.141 208.207 375.013 208.19 374.887C205.64 367.548 202.264 360.554 199.852 353.181C197.324 345.688 195.524 337.969 194.477 330.131C192.467 314.434 194.765 298.487 201.127 283.997C204.572 276.107 208.603 268.527 212.462 260.878C212.462 260.603 212.221 260.396 212.083 260.637Z" fill="#465760"/>
<path d="M211.943 260.669C207.868 273.529 205.958 286.977 206.292 300.463C206.292 307.906 207.016 315.313 206.706 322.721C206.396 330.128 205.5 337.329 204.845 344.634C203.933 352.848 203.795 361.131 204.432 369.371C204.432 370.508 206.327 370.508 206.224 369.371C204.88 355.004 207.464 340.74 208.429 326.442C208.842 319.201 208.842 311.942 208.429 304.701C208.118 297.589 208.291 290.463 208.945 283.374C209.769 275.8 211.011 268.278 212.666 260.841C212.666 260.759 212.634 260.68 212.576 260.622C212.517 260.564 212.439 260.531 212.356 260.531C212.274 260.531 212.195 260.564 212.137 260.622C212.079 260.68 212.046 260.759 212.046 260.841L211.943 260.669Z" fill="#465760"/>
<path d="M212.601 259.673C211.315 264.393 210.917 269.312 211.43 274.178C211.43 281.069 211.947 287.959 212.257 295.126C212.567 302.292 212.842 309.459 212.636 316.625C212.274 324.345 211.202 332.015 209.431 339.537C208.294 344.843 207.089 350.183 206.227 355.558C205.848 358.039 205.504 360.52 205.297 363.035C204.849 365.761 204.849 368.543 205.297 371.269C205.297 371.397 205.348 371.52 205.438 371.61C205.529 371.701 205.651 371.752 205.779 371.752C205.907 371.752 206.03 371.701 206.12 371.61C206.211 371.52 206.262 371.397 206.262 371.269C206.561 369.076 206.722 366.867 206.744 364.654C206.893 362.022 207.18 359.4 207.605 356.799C208.363 351.803 209.431 346.876 210.5 341.949C212.266 334.499 213.419 326.917 213.945 319.278C214.6 305.221 213.359 291.129 212.842 277.072C212.636 271.284 212.842 265.495 212.842 259.845C212.842 259.79 212.821 259.737 212.782 259.699C212.743 259.66 212.69 259.638 212.636 259.638C212.581 259.638 212.528 259.66 212.489 259.699C212.451 259.737 212.429 259.79 212.429 259.845L212.601 259.673Z" fill="#465760"/>
<path d="M201.851 360.001C200.29 357.41 199.129 354.6 198.406 351.663C197.345 348.784 196.126 345.966 194.753 343.222C191.523 337.445 188.68 331.46 186.243 325.306C184.218 318.484 183.061 311.434 182.798 304.323C182.247 296.95 181.741 289.554 181.282 282.135C180.237 273.696 180.156 265.165 181.041 256.708L179.318 256.467C179.444 259.172 180.25 261.803 181.661 264.115C183.384 267.871 184.796 271.73 186.174 275.589C189.866 284.778 192.188 294.459 193.065 304.323C193.065 305.426 194.857 305.426 194.788 304.323C193.953 294.867 191.747 285.582 188.242 276.76C186.898 272.97 185.623 269.111 183.969 265.459C182.237 262.781 181.195 259.715 180.937 256.535C180.937 255.571 179.387 255.33 179.215 256.294C178.29 263.738 178.22 271.264 179.008 278.724C179.387 286.545 179.973 294.4 180.558 302.222C180.792 309.553 181.797 316.84 183.556 323.962C185.713 330.33 188.494 336.47 191.859 342.292C193.725 345.706 195.337 349.253 196.683 352.903C197.196 355.941 198.713 358.719 200.99 360.793C201.472 361.138 202.161 360.483 201.817 360.001H201.851Z" fill="#465760"/>
<path d="M54.9707 337.294C75.8843 350.18 99.7609 356.554 123.465 362.721C146.136 368.647 169.048 374.573 190.03 385.288C201.634 391.034 212.214 398.646 221.349 407.821C222.658 409.165 224.795 407.098 223.382 405.754C189.514 370.887 138.591 366.235 94.455 352.764C80.8673 348.788 67.7097 343.467 55.1774 336.881C55.1263 336.872 55.0736 336.879 55.0272 336.903C54.9808 336.926 54.9432 336.964 54.92 337.01C54.8968 337.057 54.8892 337.109 54.8983 337.161C54.9074 337.212 54.9328 337.259 54.9707 337.294Z" fill="#465760"/>
<path d="M54.9693 337.295C71.1282 342.601 88.3897 343.152 104.79 347.631C120.977 352.028 136.686 358.03 151.682 365.547C160.123 369.647 168.392 374.057 176.592 378.64C176.798 378.721 177.027 378.725 177.236 378.653C177.445 378.58 177.622 378.436 177.734 378.245C177.846 378.053 177.887 377.829 177.848 377.61C177.809 377.392 177.693 377.195 177.522 377.055C163.05 368.818 148.093 361.466 132.732 355.039C117.156 348.653 100.869 344.164 84.2207 341.67C74.4702 340.189 64.7198 338.914 55.0382 336.95C55.0013 336.966 54.9699 336.993 54.9479 337.026C54.9258 337.06 54.9141 337.099 54.9141 337.14C54.9141 337.18 54.9258 337.219 54.9479 337.253C54.9699 337.287 55.0013 337.313 55.0382 337.329L54.9693 337.295Z" fill="#465760"/>
<path d="M53.7979 336.639C58.8245 342.445 64.8445 347.31 71.5762 351.006C78.1986 354.949 85.1777 358.26 92.4209 360.894C108.881 366.512 125.974 370.065 143.309 371.472C153.303 372.152 163.192 373.919 172.802 376.743C173.974 377.122 174.49 375.262 173.319 374.848C165.369 372.412 157.179 370.841 148.891 370.162C140.105 369.232 131.354 368.405 122.672 366.717C106.087 364.228 90.0516 358.914 75.2628 351.006C67.8668 346.524 60.7871 341.539 54.0736 336.087C53.8324 336.087 53.6257 336.087 53.7979 336.466V336.639Z" fill="#465760"/>
<path d="M54.9734 336.88C64.0349 337.741 73.1996 337.775 82.261 338.533C91.3675 339.219 100.416 340.531 109.342 342.461C118.236 344.385 126.891 347.285 135.148 351.109C143.459 355.21 151.513 359.813 159.266 364.891L187.174 382.772C188.207 383.427 189.172 381.773 188.138 381.118L162.539 364.891C154.645 359.661 146.48 354.853 138.077 350.489C121.669 342.947 104.006 338.508 85.9821 337.396C75.6836 336.314 65.3249 335.911 54.9734 336.19C54.8821 336.19 54.7944 336.227 54.7298 336.291C54.6652 336.356 54.6289 336.444 54.6289 336.535C54.6289 336.626 54.6652 336.714 54.7298 336.779C54.7944 336.843 54.8821 336.88 54.9734 336.88Z" fill="#465760"/>
<path d="M185.9 381.053C174.487 368.603 163.724 355.574 153.651 342.017C148.965 335.766 143.891 329.817 138.457 324.204C132.806 318.554 126.501 313.627 120.472 308.424C113.588 302.488 107.236 295.963 101.488 288.923C100.799 288.062 99.3171 289.164 99.9717 290.094C101.963 293.573 103.405 297.338 104.244 301.258C105.308 304.668 106.62 307.996 108.172 311.215C111.46 317.877 115.582 324.094 120.437 329.717C131.311 341.575 143.493 352.163 156.752 361.276C164.745 367.203 172.739 373.094 180.181 379.675C181.283 380.64 182.868 379.055 181.766 378.09C157.854 356.97 126.639 341.707 111.169 312.627C109.119 308.81 107.435 304.807 106.139 300.672C105.219 296.594 103.685 292.679 101.591 289.061L100.041 290.267C105.139 296.49 110.702 302.318 116.682 307.7C122.608 313.006 128.948 318.037 134.77 323.343C146.691 334.506 155.925 348.425 166.158 361.242C171.611 368.803 177.885 375.737 184.866 381.914C185.418 382.362 186.141 381.673 185.659 381.156L185.9 381.053Z" fill="#465760"/>
<path d="M168.051 327.199C163.089 317.517 153.787 310.247 145.001 304.149C135.009 297.258 124.329 291.091 113.992 284.924C103.656 278.756 92.4932 272.52 82.0191 265.871C71.4007 259.484 61.3901 252.138 52.1131 243.923C41.7769 234.517 35.4029 222.562 28.9255 210.503L26.9272 211.674C36.8844 227.351 52.3542 237.722 67.8241 247.403C85.479 258.053 102.462 269.778 118.678 282.512C127.569 289.773 136.036 297.537 144.036 305.768C145.001 306.768 146.483 305.286 145.552 304.252C131.625 289.493 116.067 276.362 99.1772 265.113C90.9772 259.393 82.6049 253.95 74.1636 248.644C65.7224 243.338 58.177 238.859 50.666 233.312C41.9418 227.268 34.5438 219.507 28.9255 210.503C28.7491 210.285 28.5005 210.138 28.2248 210.088C27.9491 210.038 27.6645 210.088 27.4228 210.23C27.181 210.371 26.9981 210.595 26.9071 210.86C26.8162 211.125 26.8233 211.414 26.9272 211.674C32.036 222.455 38.5846 232.493 46.3937 241.512C54.9954 250.071 64.5565 257.609 74.8872 263.976C95.5596 277.757 117.679 288.92 138.524 302.288C144.001 305.693 149.239 309.469 154.2 313.589C159.039 317.863 163.479 322.568 167.465 327.647C167.741 328.026 168.258 327.647 168.051 327.199Z" fill="#465760"/>
<path d="M27.6847 210.229C27.5129 215.557 28.4151 220.865 30.3377 225.837C31.965 230.92 34.1246 235.816 36.7806 240.445C41.9088 249.366 48.7603 257.178 56.9362 263.426C73.2674 275.968 93.3885 282.135 112.166 289.749C122.833 293.762 133.053 298.877 142.658 305.012C143.726 305.736 144.691 304.013 143.657 303.324C110.822 281.101 64.4127 278.896 41.0184 243.546C37.6861 238.466 34.9464 233.022 32.8528 227.318C30.7856 221.737 30.0276 215.811 28.0982 210.091C28.0981 210.037 28.0764 209.984 28.0376 209.945C27.9988 209.907 27.9463 209.885 27.8914 209.885C27.8366 209.885 27.784 209.907 27.7452 209.945C27.7065 209.984 27.6847 210.037 27.6847 210.091V210.229Z" fill="#465760"/>
<path d="M28.0987 209.887C29.3309 213.242 31.7949 216.001 34.9895 217.604C39.0895 220.189 43.3618 222.6 47.6341 224.909C56.2476 229.663 65.0678 234.073 73.4746 239.207C89.4621 249.317 104.007 261.544 116.714 275.556C123.881 283.239 130.772 291.267 137.662 299.364C138.42 300.26 139.695 298.985 138.937 298.089C127.31 283.719 114.643 270.223 101.038 257.709C94.3837 251.712 87.3019 246.208 79.8486 241.24C71.7863 235.9 63.2073 231.352 54.6972 226.838C49.8736 224.254 45.05 221.704 40.3298 218.983C36.1609 216.571 30.9928 214.125 28.8566 209.542C28.6499 209.094 27.9264 209.542 28.0642 209.887H28.0987Z" fill="#465760"/>
<path d="M95.1797 253.605C89.5212 244.266 86.6298 233.513 86.8418 222.596C87.0485 212.673 89.0813 202.923 90.2872 193.103H89.0813C90.3828 201.508 92.3647 209.792 95.0074 217.876C97.6604 225.525 100.796 233.001 103.897 240.478C109.287 254.615 115.511 268.421 122.536 281.822C122.669 282.046 122.885 282.208 123.137 282.273C123.389 282.338 123.656 282.299 123.88 282.167C124.104 282.034 124.266 281.818 124.33 281.566C124.395 281.314 124.357 281.047 124.224 280.823C117.151 267.421 110.87 253.616 105.413 239.478C102.139 231.864 98.9696 224.284 96.3167 216.739C93.6812 208.953 91.6199 200.984 90.1494 192.897C90.1494 192.173 88.978 192.414 88.9435 192.897C87.9443 203.233 85.4981 213.328 85.3258 223.698C85.0721 234.46 88.4457 244.993 94.9041 253.605H95.1452H95.1797Z" fill="#465760"/>
<path d="M238.44 147.732C220.765 164.27 200.231 177.397 183.314 194.693C169.193 208.45 157.898 224.836 150.066 242.929C145.606 253.949 142.752 265.552 141.59 277.383C141.59 278.692 143.485 278.657 143.623 277.383C146.161 257.057 153.456 237.616 164.915 220.637C177.116 203.397 191.79 188.05 208.465 175.089C219.257 166.805 229.608 157.961 239.474 148.593C240.025 148.042 239.164 147.215 238.612 147.732H238.44Z" fill="#465760"/>
<path d="M236.614 149.763C220.727 156.477 205.859 165.383 192.444 176.223C180.077 186.834 169.975 199.829 162.745 214.433C158.059 223.873 154.097 233.658 149.928 243.305C149.446 244.339 150.996 245.269 151.444 244.201C158.335 228.283 164.743 211.883 175.079 197.757C185.055 184.411 197.529 173.131 211.807 164.543C220.007 159.513 228.586 155.069 236.924 150.314C237.303 150.107 236.924 149.59 236.614 149.763Z" fill="#465760"/>
<path d="M238.713 148.074C229.824 161.683 217.799 172.605 205.534 182.941C192.767 193.647 180.695 205.155 169.391 217.395C166.405 220.703 163.511 224.079 160.709 227.525C157.553 231.136 154.586 234.908 151.82 238.826C151.234 239.687 152.578 240.755 153.267 239.963C156.161 236.724 158.607 233.072 161.329 229.627C164.051 226.181 166.325 223.425 168.944 220.427C174.835 213.537 181.175 207.3 187.618 201.064C193.371 195.517 199.125 190.073 205.12 184.836C211.115 179.599 216.766 174.5 222.347 169.229C228.802 162.948 234.45 155.888 239.161 148.212C239.161 148.212 239.161 147.867 238.851 148.212L238.713 148.074Z" fill="#465760"/>
<path d="M238.437 147.898C235.021 155.227 230.653 162.073 225.448 168.261C221.21 173.256 216.524 177.908 212.045 182.697C206.102 189.266 199.811 195.511 193.199 201.405C186.997 206.746 180.175 211.328 173.939 216.634C170.494 219.7 166.842 222.87 163.362 226.074C160.068 228.909 157.035 232.034 154.3 235.411C154.059 235.756 154.576 236.273 154.92 235.997C157.863 233.705 160.659 231.231 163.293 228.59C166.463 225.626 169.632 222.629 172.871 219.769C179.176 214.188 186.032 209.433 192.441 203.92C199.1 198.089 205.415 191.877 211.356 185.315C215.938 180.388 220.728 175.599 225.138 170.5C230.921 163.902 235.693 156.482 239.298 148.484C239.54 147.898 238.713 147.381 238.437 147.967V147.898Z" fill="#465760"/>
<path d="M154.89 235.35C157.681 220.225 159.714 204.962 165.64 190.56C168.672 183.29 172.289 176.262 175.976 169.233C179.662 162.205 182.867 155.658 186.863 149.181C191.425 141.795 196.514 134.748 202.092 128.095L201.334 127.475C198.75 133.229 195.89 138.879 193.375 144.702C190.928 150.363 189.035 156.247 187.725 162.274C186.815 167.909 185.266 173.423 183.108 178.708C180.558 184.083 177.526 189.044 175.115 194.626C174.667 195.591 176.114 196.452 176.562 195.487C178.939 190.147 181.902 185.151 184.417 179.88C186.597 174.903 188.137 169.67 188.999 164.306C190.124 158.174 191.832 152.163 194.099 146.356C196.614 140.154 199.301 134.021 202.058 127.957C202.264 127.475 201.679 126.889 201.3 127.337C191.46 139.152 182.967 152.025 175.976 165.719C168.672 179.501 161.574 193.661 158.335 209.131C156.518 217.75 155.229 226.471 154.477 235.247C154.477 235.557 154.959 235.661 155.028 235.247L154.89 235.35Z" fill="#465760"/>
<path d="M20.0675 93.3589C23.6182 104.339 28.6736 114.775 35.0895 124.368C40.9631 132.691 47.6201 140.432 54.9694 147.486C69.5779 162.026 85.9781 174.774 100.518 189.244C104.79 193.448 108.924 197.824 112.852 202.337C116.78 206.85 120.156 211.915 124.119 216.463C124.946 217.393 126.358 216.187 125.807 215.154C123.245 210.581 120.171 206.316 116.642 202.44C113.197 198.478 109.751 194.619 106.306 190.933C98.9672 183.491 91.1462 176.531 83.2906 169.675C68.1653 156.479 52.282 143.627 40.0164 127.606C31.9288 117.2 25.4162 105.661 20.6877 93.3589C20.6877 92.9799 19.9297 93.1177 20.0675 93.5312V93.3589Z" fill="#465760"/>
<path d="M19.3828 93.3609C20.8321 101.161 23.1432 108.776 26.2736 116.066C28.9003 122.635 32.3752 128.832 36.6098 134.499C45.435 145.53 55.8915 155.15 67.6184 163.027C74.8538 168.264 82.3303 173.363 89.5656 178.462C90.7715 179.324 91.9085 177.36 90.7371 176.498C67.3772 159.892 41.1922 145.042 29.0299 117.927C25.4892 109.881 22.6422 101.547 20.5198 93.0163C20.3475 92.3617 19.4173 92.6718 19.5206 93.3264L19.3828 93.3609Z" fill="#465760"/>
<path d="M19.415 93.0482C24.1007 98.8365 29.7512 103.936 34.8504 109.276C39.8577 114.495 44.5517 120.006 48.9076 125.78C57.4866 137.184 65.9279 148.726 74.7137 159.958C79.6322 166.334 84.8762 172.452 90.4247 178.287C91.3549 179.218 92.7676 177.771 91.8718 176.84C82.0637 166.343 72.9268 155.239 64.5153 143.592C56.3236 131.937 47.4776 120.756 38.0201 110.103C32.3301 103.907 26.303 98.0296 19.9662 92.497C19.8931 92.4239 19.794 92.3828 19.6906 92.3828C19.5872 92.3828 19.4881 92.4239 19.415 92.497C19.3419 92.5701 19.3008 92.6692 19.3008 92.7726C19.3008 92.876 19.3419 92.9751 19.415 93.0482Z" fill="#465760"/>
<path d="M19.7279 93.3651C25.5851 97.913 31.7868 101.979 37.575 106.595C43.3887 111.21 48.8371 116.267 53.8718 121.721C58.9278 127.179 63.4182 133.136 67.2744 139.499C71.6501 146.769 75.3022 154.349 79.9879 161.412C84.9843 169.186 90.5343 176.59 96.5948 183.566C97.3183 184.324 98.6965 183.29 98.0763 182.394C93.2872 175.503 87.7401 169.026 82.8132 162.066C77.8862 155.107 74.1652 147.561 69.8929 140.223C62.2163 127.485 52.3348 116.216 40.7104 106.94C34.3633 101.52 27.4293 96.8282 20.038 92.9517C19.7968 92.9517 19.4867 93.1928 19.7279 93.3651Z" fill="#465760"/>
<path d="M102.76 191.04C99.9198 188.559 96.928 186.257 93.8016 184.149C90.7136 182.257 87.4336 180.698 84.0166 179.498C76.8502 176.81 69.3392 175.329 62.0005 173.296C47.8548 169.618 34.2798 164.019 21.6549 156.655C14.625 152.439 8.13432 147.383 2.32616 141.598L1.18918 143.08C14.2817 151.245 29.9927 152.21 44.6357 156.413C60.083 161.183 74.652 168.432 87.7721 177.878C88.7713 178.567 89.7015 176.948 88.7368 176.259C75.8481 167.007 61.5813 159.844 46.4618 155.035C31.681 150.556 15.4531 149.798 2.11944 141.426C2.02216 141.351 1.91113 141.296 1.79269 141.265C1.67425 141.233 1.55071 141.225 1.42913 141.241C1.30756 141.257 1.19033 141.297 1.08413 141.358C0.977927 141.419 0.884842 141.501 0.810187 141.598C0.735531 141.695 0.680768 141.806 0.649022 141.925C0.617276 142.043 0.60917 142.167 0.625167 142.288C0.657474 142.534 0.785995 142.757 0.982457 142.907C11.2043 152.771 23.2137 160.594 36.3667 165.957C42.8156 168.646 49.4196 170.948 56.1433 172.848C63.3442 174.984 70.7174 176.535 77.9183 178.636C82.1232 179.784 86.1812 181.414 90.0116 183.494C94.1626 185.965 98.1242 188.74 101.864 191.798C102.484 192.28 103.414 191.419 102.76 190.902V191.04Z" fill="#465760"/>
<path d="M212.222 58.1475C206.639 65.7751 200.452 72.9416 193.72 79.5779C187.105 86.0552 179.938 91.809 172.772 97.7351C159.069 109.199 146.961 122.443 136.768 137.116C130.581 145.83 124.942 154.92 119.885 164.335C119.81 164.519 119.804 164.724 119.868 164.912C119.932 165.101 120.062 165.259 120.233 165.36C120.405 165.46 120.607 165.496 120.803 165.459C120.998 165.423 121.174 165.317 121.298 165.162C130.492 149.028 141.112 133.75 153.03 119.51C165.227 105.728 179.697 94.3586 192.893 81.6106C200.206 74.5522 206.786 66.7719 212.532 58.3886C212.532 58.3886 212.532 58.0441 212.222 58.3886V58.1475Z" fill="#465760"/>
<path d="M211.843 57.427C207.468 62.0094 203.333 66.764 198.51 70.9674C193.686 75.1708 188.621 79.0297 183.591 83.0263C173.321 90.6847 164.06 99.6101 156.028 109.59C151.446 115.549 147.421 121.915 144.003 128.609C143.452 129.643 145.003 130.573 145.554 129.539C151.636 117.624 159.632 106.788 169.224 97.4626C178.285 88.6423 188.828 81.6482 198.441 73.3448C204.026 69.0851 208.838 63.8993 212.67 58.0127C212.719 57.8938 212.727 57.7622 212.694 57.6381C212.661 57.5141 212.587 57.4044 212.486 57.3261C212.384 57.2477 212.259 57.205 212.13 57.2046C212.002 57.2042 211.877 57.246 211.774 57.3236L211.843 57.427Z" fill="#465760"/>
<path d="M211.222 59.5942C206.295 66.6573 201.403 73.7893 196.304 80.7145C191.592 87.5638 186.022 93.7816 179.731 99.2164C173.461 104.384 166.501 108.657 160.196 113.756C157.095 116.237 154.098 118.821 151.203 121.508C148 124.269 145.016 127.276 142.28 130.501C142.122 130.687 142.04 130.926 142.052 131.17C142.063 131.414 142.167 131.645 142.342 131.815C142.517 131.986 142.75 132.084 142.994 132.089C143.239 132.095 143.476 132.007 143.658 131.844C146.828 129.088 149.653 125.918 152.754 123.059C155.855 120.199 159.093 117.477 162.401 114.858C168.672 109.863 175.562 105.315 181.695 100.25C187.658 95.001 192.915 89.002 197.337 82.4028C202.471 75.1674 207.363 67.7943 211.808 60.111C212.015 59.7321 211.464 59.4564 211.222 59.7665V59.5942Z" fill="#465760"/>
<path d="M211.426 58.286C199.781 68.1743 184.449 72.0676 172.321 81.3702C161.234 90.4039 152.518 102.006 146.928 115.17C143.483 122.681 141.485 131.087 136.833 138.013C136.42 138.667 137.35 139.356 137.901 138.84C142.966 133.74 144.482 125.713 147.238 119.304C150.07 112.66 153.531 106.303 157.575 100.32C161.617 94.2718 166.475 88.8109 172.011 84.0921C177.97 79.3545 184.456 75.3197 191.34 72.0676C198.869 68.6289 205.838 64.0759 212.012 58.5617C212.012 58.5617 212.012 58.1137 211.702 58.286H211.426Z" fill="#465760"/>
<path d="M148 114.93C150.929 108.541 152.758 101.703 153.409 94.7051C154.099 87.5042 153.995 80.2689 154.891 73.068C155.673 65.8072 158.152 58.8321 162.126 52.7056C166.122 47.0416 170.619 41.7488 175.563 36.8912L174.358 35.961C170.215 45.2211 167.263 54.9689 165.572 64.9713C163.918 74.9629 163.332 84.8857 159.783 94.4984C159.439 95.3942 160.92 96.0143 161.334 95.153C165.572 86.3328 165.606 76.031 166.984 66.5562C168.439 56.2592 171.327 46.2162 175.563 36.719C175.908 35.9954 175.012 35.1341 174.358 35.7887C169.422 40.5501 164.903 45.7256 160.852 51.2586C156.943 56.9182 154.353 63.3816 153.272 70.1738C152.169 77.2714 152.238 84.4722 151.79 91.6387C151.334 99.4936 149.804 107.249 147.242 114.688C147.242 115.033 147.69 115.274 147.828 114.93H148Z" fill="#465760"/>
<path d="M101.762 1.92133C103.588 13.1189 108.653 23.7307 112.098 34.5493C113.958 40.5787 114.958 46.8494 116.577 52.9477C119.14 61.036 120.656 69.419 121.09 77.8924C121.609 87.7839 122.888 97.6208 124.915 107.316C124.915 108.315 126.603 107.867 126.465 106.868C124.519 97.7887 123.263 88.5745 122.71 79.3051C122.541 71.2835 121.29 63.3215 118.989 55.6351C117.232 49.1578 116.06 42.5082 114.2 36.0653C112.477 30.2081 110.375 24.4887 108.377 18.8383C106.379 13.1878 104.036 7.46843 102.485 1.61125C102.485 1.23225 101.865 1.40452 101.934 1.78352L101.762 1.92133Z" fill="#465760"/>
<path d="M101.553 1.47227C107.651 11.6362 113.922 21.6968 119.228 32.4809C122.061 37.9938 124.368 43.7617 126.118 49.7079C128.197 58.3551 129.079 67.247 128.737 76.1341C128.823 81.0804 128.616 86.0275 128.117 90.9493C127.497 96.3242 126.187 101.458 125.085 106.729C125.035 106.917 125.061 107.116 125.158 107.284C125.255 107.452 125.414 107.575 125.602 107.625C125.789 107.675 125.989 107.649 126.157 107.552C126.325 107.455 126.447 107.296 126.497 107.108C129.021 98.3819 130.342 89.3521 130.425 80.2686C130.882 71.3213 130.316 62.3511 128.737 53.5323C125.292 40.5784 119.839 28.2437 112.578 16.9766C109.479 11.4209 105.942 6.12112 102.001 1.12773C101.794 0.886556 101.38 1.12773 101.553 1.47227Z" fill="#465760"/>
<path d="M101.59 2.64322C102.273 6.99485 102.492 11.4067 102.244 15.8046C102.244 18.8366 102.451 21.903 102.727 24.9694C103.347 31.8602 104.346 38.751 105.552 45.6418C107.828 59.3164 111.358 72.7526 116.095 85.7808C117.714 90.122 119.299 94.4976 120.643 98.9422C121.987 103.387 122.917 107.866 124.088 112.241C124.134 112.42 124.249 112.572 124.407 112.666C124.565 112.76 124.754 112.787 124.932 112.741C125.111 112.695 125.263 112.581 125.357 112.422C125.451 112.264 125.478 112.075 125.432 111.897C122.366 97.1161 116.026 83.4034 112.133 68.8983C108.35 54.8796 105.688 40.5819 104.174 26.1409C103.829 22.6955 103.623 19.4223 103.519 16.0458C103.637 11.4902 103.162 6.93865 102.107 2.5054C102.087 2.45265 102.052 2.40716 102.006 2.37503C101.959 2.3429 101.905 2.32568 101.848 2.32568C101.792 2.32568 101.737 2.3429 101.691 2.37503C101.645 2.40716 101.609 2.45265 101.59 2.5054V2.64322Z" fill="#465760"/>
<path d="M104.035 11.5708C104.345 20.2188 107.481 28.5911 109.1 37.0323C110.34 43.9231 111.167 51.0551 112.373 58.0148C113.552 65.9123 115.326 73.7096 117.679 81.3402C119.023 85.4058 120.676 89.368 122.124 93.3991C123.53 97.551 124.681 101.785 125.569 106.078C125.617 106.223 125.714 106.346 125.844 106.427C125.973 106.507 126.127 106.54 126.278 106.52C126.429 106.5 126.568 106.427 126.671 106.315C126.775 106.203 126.836 106.058 126.844 105.906C126.844 98.7395 123.398 91.5386 120.883 84.9234C118.229 77.4611 116.223 69.7839 114.888 61.977C113.441 54.156 112.097 46.266 110.926 38.4105C110.166 34.2361 109.177 30.1069 107.963 26.0415C106.4 21.3066 105.157 16.4722 104.242 11.5708H104.035Z" fill="#465760"/>
<path d="M122.47 103.01C119.988 96.4535 116.242 90.4482 111.445 85.3353C106.514 79.4963 101.232 73.962 95.6305 68.7629C89.7717 63.4242 84.2485 57.7284 79.0926 51.7081C74.3535 45.2642 70.849 37.9981 68.7564 30.2777L67.3438 30.8635C70.3633 35.8246 73.9096 40.4452 77.9211 44.6451C82.3078 48.8365 87.0581 52.6298 92.1162 55.9804C102.187 62.9656 110.128 72.6005 115.063 83.8193C115.51 84.8529 117.199 84.405 116.751 83.3714C112.255 72.8981 105.135 63.7608 96.0784 56.8418C90.8069 52.8107 85.1565 49.3308 80.264 44.8173C75.6534 40.572 71.7664 35.6028 68.7564 30.1055C68.3429 29.313 67.1715 29.8643 67.3782 30.6912C69.0117 37.9693 72.0422 44.8612 76.3018 50.9846C81.1568 57.0744 86.4912 62.766 92.254 68.0049C97.9045 73.4831 103.658 78.8579 108.861 84.7495C111.458 87.6232 113.853 90.674 116.027 93.8799C118.06 96.9118 119.679 100.219 121.712 103.286C121.953 103.596 122.505 103.286 122.401 103.01H122.47Z" fill="#465760"/>
<path d="M93.2173 177.601C93.2579 170.083 92.728 162.574 91.6324 155.136C90.7842 147.934 89.2144 140.836 86.9467 133.947C84.6038 127.401 80.6071 121.854 77.6786 115.618C74.972 108.772 73.2326 101.582 72.5105 94.2562C72.5105 93.705 71.4768 93.705 71.3735 94.2562C68.6234 107.951 69.8182 122.145 74.8189 135.188C76.0248 138.357 77.5063 141.389 78.9189 144.49C80.3822 148.113 81.4676 151.877 82.1576 155.722C83.848 162.618 86.5781 169.217 90.2543 175.292C90.6677 176.016 91.6324 175.292 91.3223 174.672C88.0175 168.233 85.3629 161.482 83.3979 154.516C82.8773 151.282 82.0347 148.108 80.8828 145.041C79.5391 141.803 77.8853 138.667 76.576 135.394C71.0203 122.511 69.5998 108.222 72.5105 94.4974L71.339 94.3251C71.6298 101.372 73.0851 108.322 75.6458 114.894C78.3676 121.268 82.7433 126.746 85.2584 133.224C90.7022 147.212 91.5291 162.785 92.4938 177.601C92.5205 177.694 92.577 177.776 92.6547 177.835C92.7324 177.894 92.8271 177.925 92.9245 177.925C93.0218 177.925 93.1165 177.894 93.1942 177.835C93.2719 177.776 93.3284 177.694 93.3551 177.601H93.2173Z" fill="#465760"/>
<path d="M215.668 394.076C216.049 363.828 224.828 334.281 241.026 308.734L239.579 307.872C236.582 312.971 236.857 319.07 236.134 324.755C235.379 331.747 234.03 338.663 232.103 345.427C228.657 357.314 223.076 368.27 219.182 379.881C216.912 385.762 215.744 392.01 215.737 398.314C215.737 398.552 215.831 398.779 215.999 398.947C216.167 399.115 216.395 399.21 216.633 399.21C216.87 399.21 217.098 399.115 217.266 398.947C217.434 398.779 217.529 398.552 217.529 398.314C218.08 383.637 225.212 370.337 230.311 356.969C233.315 349.081 235.508 340.908 236.857 332.576C237.512 328.545 237.96 324.514 238.27 320.448C238.226 316.389 239.134 312.377 240.923 308.734C240.979 308.639 241.017 308.533 241.033 308.424C241.049 308.315 241.043 308.203 241.016 308.096C240.988 307.989 240.94 307.888 240.874 307.799C240.808 307.711 240.725 307.636 240.63 307.579C240.535 307.523 240.43 307.486 240.32 307.47C240.211 307.454 240.1 307.46 239.992 307.487C239.885 307.514 239.784 307.562 239.696 307.628C239.607 307.694 239.532 307.777 239.476 307.872C231.469 320.571 225.244 334.308 220.974 348.7C216.375 363.376 214.176 378.699 214.462 394.076C214.496 394.22 214.577 394.348 214.693 394.44C214.809 394.532 214.952 394.582 215.1 394.582C215.247 394.582 215.391 394.532 215.506 394.44C215.622 394.348 215.703 394.22 215.737 394.076H215.668Z" fill="#465760"/>
</svg>
