<svg width="258" height="475" viewBox="0 0 258 475" fill="none" xmlns="http://www.w3.org/2000/svg">
<path d="M108.34 473.359C114.391 462.559 119.17 451.093 122.579 439.192C126.668 426.333 129.833 413.198 132.048 399.887C132.958 394.793 133.522 389.644 133.736 384.473C133.717 376.33 133.239 368.194 132.304 360.105C130.653 340.618 127.644 321.241 127.167 301.68C126.535 264.361 132.755 227.244 145.516 192.169C157.681 158.932 174.259 127.48 194.803 98.6595C214.254 71.0616 236.824 44.785 249.852 13.2236C251.43 9.33347 252.972 5.36996 254.44 1.40643C254.532 1.0658 254.756 0.775787 255.062 0.600281C255.369 0.424774 255.732 0.378143 256.073 0.470612C256.413 0.563049 256.703 0.787079 256.879 1.09335C257.054 1.39963 257.101 1.76309 257.009 2.10373C252.239 18.1736 244.995 33.4026 235.54 47.2438C226.365 61.6299 216.016 75.2086 205.96 88.9709C184.517 117.415 166.749 148.451 153.076 181.343C138.882 216.008 131.014 252.936 129.846 290.376C129.949 309.833 131.174 329.267 133.516 348.581C134.91 363.261 136.929 378.491 134.947 393.281C133.149 406.014 130.376 418.59 126.653 430.898C123.164 443.387 118.583 455.544 112.964 467.23C111.79 469.542 110.542 471.818 109.294 474.02C108.964 474.533 108.083 474.02 108.45 473.506L108.34 473.359Z" fill="#F3F2F5"/>
<path d="M228.787 56.0479C225.741 64.9291 222.548 73.7003 220.309 82.8384C218.067 92.1205 216.497 101.552 215.612 111.06C213.911 129.951 214.962 148.988 218.731 167.577C220.867 178.081 223.9 188.382 227.796 198.368C228.31 199.652 226.218 200.239 225.704 198.955C211.826 163.028 208.939 123.786 217.41 86.2147C219.587 75.6276 222.96 65.3223 227.466 55.4974C227.546 55.3288 227.688 55.1974 227.862 55.1299C228.037 55.0624 228.23 55.0639 228.403 55.1341C228.577 55.2043 228.716 55.3379 228.795 55.5077C228.873 55.6776 228.883 55.8707 228.823 56.0479H228.787Z" fill="#F3F2F5"/>
<path d="M225.999 197.671C217.375 183.688 209.264 168.899 206.145 152.567C203.389 135.59 204.8 118.197 210.255 101.886C212.803 92.7412 216.322 83.8953 220.751 75.4989C220.837 75.3941 220.955 75.32 221.087 75.2881C221.218 75.2562 221.357 75.2681 221.481 75.3221C221.606 75.376 221.709 75.469 221.776 75.587C221.843 75.705 221.87 75.8415 221.852 75.976C219.136 83.793 215.54 91.2429 212.971 99.0965C210.278 107.077 208.361 115.299 207.246 123.648C205.104 140.368 207.553 157.355 214.329 172.789C217.998 181.193 222.292 189.267 226.403 197.414C226.403 197.707 226.146 197.928 225.999 197.671Z" fill="#F3F2F5"/>
<path d="M225.856 197.629C221.516 183.931 219.482 169.606 219.838 155.241C219.838 147.314 220.608 139.424 220.278 131.534C219.948 123.643 218.994 115.973 218.296 108.193C217.324 99.4428 217.177 90.6206 217.856 81.8429C217.856 80.6318 219.874 80.6318 219.764 81.8429C218.333 97.1465 221.086 112.34 222.113 127.57C222.553 135.283 222.553 143.015 222.113 150.727C221.783 158.303 221.966 165.893 222.664 173.444C223.54 181.512 224.864 189.525 226.627 197.446C226.627 197.533 226.592 197.617 226.53 197.679C226.468 197.741 226.384 197.776 226.297 197.776C226.209 197.776 226.125 197.741 226.063 197.679C226.001 197.617 225.967 197.533 225.967 197.446L225.856 197.629Z" fill="#F3F2F5"/>
<path d="M226.552 198.693C225.182 193.665 224.759 188.425 225.304 183.242C225.304 175.903 225.855 168.563 226.185 160.929C226.516 153.296 226.809 145.662 226.589 138.029C226.204 129.806 225.062 121.637 223.176 113.624C221.965 107.972 220.68 102.284 219.763 96.5587C219.359 93.9164 218.992 91.274 218.772 88.595C218.295 85.6908 218.295 82.7281 218.772 79.8238C218.772 79.6876 218.826 79.5569 218.922 79.4606C219.019 79.3642 219.149 79.3101 219.286 79.3101C219.422 79.3101 219.553 79.3642 219.649 79.4606C219.745 79.5569 219.8 79.6876 219.8 79.8238C220.118 82.1595 220.29 84.5129 220.313 86.8701C220.472 89.6735 220.778 92.4665 221.231 95.2376C222.038 100.559 223.176 105.807 224.314 111.055C226.195 118.99 227.423 127.067 227.983 135.203C228.681 150.176 227.36 165.186 226.809 180.16C226.589 186.325 226.809 192.491 226.809 198.509C226.809 198.568 226.786 198.624 226.745 198.665C226.703 198.706 226.647 198.729 226.589 198.729C226.531 198.729 226.475 198.706 226.433 198.665C226.392 198.624 226.369 198.568 226.369 198.509L226.552 198.693Z" fill="#F3F2F5"/>
<path d="M215.102 91.8278C213.439 94.5871 212.202 97.5811 211.432 100.709C210.302 103.776 209.003 106.777 207.541 109.7C204.101 115.854 201.072 122.229 198.477 128.784C196.32 136.05 195.087 143.559 194.807 151.134C194.22 158.987 193.681 166.866 193.192 174.768C192.079 183.757 191.993 192.844 192.935 201.852L191.1 202.109C191.235 199.227 192.093 196.425 193.596 193.962C195.431 189.962 196.935 185.851 198.403 181.741C202.335 171.953 204.809 161.641 205.743 151.134C205.743 149.959 207.652 149.959 207.578 151.134C206.688 161.206 204.34 171.096 200.605 180.493C199.174 184.53 197.816 188.641 196.055 192.531C194.209 195.383 193.099 198.649 192.825 202.036C192.825 203.063 191.174 203.32 190.99 202.293C190.005 194.363 189.931 186.347 190.77 178.401C191.174 170.071 191.798 161.703 192.421 153.372C192.67 145.563 193.741 137.801 195.614 130.215C197.912 123.432 200.875 116.892 204.459 110.691C206.446 107.054 208.163 103.276 209.597 99.3879C210.144 96.1525 211.759 93.1937 214.184 90.9837C214.698 90.6167 215.432 91.314 215.065 91.8278H215.102Z" fill="#F3F2F5"/>
<path d="M58.6476 116.011C80.924 102.286 106.357 95.4964 131.606 88.9272C155.754 82.615 180.159 76.3027 202.509 64.8892C214.868 58.7697 226.138 50.6613 235.868 40.8879C237.263 39.4566 239.538 41.6586 238.034 43.0899C201.958 80.2295 147.717 85.1839 100.705 99.5333C86.2317 103.769 72.2167 109.436 58.8677 116.452C58.8133 116.461 58.7571 116.453 58.7077 116.428C58.6583 116.403 58.6183 116.363 58.5935 116.314C58.5688 116.264 58.5607 116.208 58.5704 116.153C58.5801 116.099 58.6072 116.049 58.6476 116.011Z" fill="#F3F2F5"/>
<path d="M58.6486 116.015C75.8606 110.363 94.2469 109.776 111.716 105.005C128.958 100.321 145.69 93.9281 161.663 85.9214C170.655 81.5542 179.463 76.8567 188.197 71.9757C188.417 71.8895 188.66 71.8845 188.883 71.9616C189.106 72.0387 189.294 72.1929 189.414 72.3965C189.533 72.6 189.576 72.8395 189.535 73.0718C189.493 73.3042 189.37 73.5141 189.188 73.6639C173.773 82.437 157.841 90.2683 141.479 97.1147C124.888 103.917 107.539 108.698 89.8063 111.354C79.4204 112.932 69.0345 114.29 58.722 116.382C58.6828 116.365 58.6493 116.336 58.6258 116.301C58.6024 116.265 58.5898 116.223 58.5898 116.18C58.5898 116.137 58.6024 116.095 58.6258 116.059C58.6493 116.023 58.6828 115.995 58.722 115.978L58.6486 116.015Z" fill="#F3F2F5"/>
<path d="M57.4037 116.712C62.7577 110.527 69.17 105.345 76.3405 101.408C83.3944 97.2079 90.8283 93.6814 98.5435 90.8753C116.076 84.8914 134.284 81.1069 152.748 79.6087C163.393 78.8841 173.927 77.0014 184.163 73.9937C185.411 73.59 185.961 75.5718 184.713 76.0121C176.245 78.6074 167.521 80.2808 158.694 81.0033C149.335 81.9941 140.014 82.8749 130.766 84.6732C113.1 87.3241 96.0198 92.9844 80.2673 101.408C72.3893 106.182 64.8483 111.492 57.6972 117.299C57.4404 117.299 57.2202 117.299 57.4037 116.895V116.712Z" fill="#F3F2F5"/>
<path d="M58.6522 116.456C68.3041 115.539 78.0661 115.502 87.718 114.695C97.4179 113.964 107.056 112.566 116.564 110.511C126.037 108.462 135.256 105.373 144.051 101.299C152.904 96.931 161.483 92.0287 169.741 86.6197L199.467 67.5728C200.568 66.8755 201.596 68.6371 200.495 69.3344L173.227 86.6197C164.819 92.1905 156.122 97.3112 147.171 101.96C129.694 109.994 110.88 114.722 91.6815 115.906C80.7119 117.059 69.6782 117.488 58.6522 117.19C58.5548 117.19 58.4615 117.152 58.3926 117.083C58.3238 117.014 58.2852 116.921 58.2852 116.823C58.2852 116.726 58.3238 116.633 58.3926 116.564C58.4615 116.495 58.5548 116.456 58.6522 116.456Z" fill="#F3F2F5"/>
<path d="M198.112 69.4062C185.956 82.6675 174.49 96.546 163.761 110.986C158.77 117.645 153.365 123.982 147.577 129.96C141.558 135.979 134.842 141.227 128.42 146.768C121.088 153.091 114.322 160.041 108.199 167.54C107.465 168.458 105.887 167.283 106.584 166.292C108.705 162.587 110.24 158.576 111.135 154.402C112.267 150.769 113.666 147.224 115.318 143.796C118.821 136.699 123.211 130.077 128.383 124.088C139.965 111.457 152.942 100.179 167.064 90.4716C175.579 84.1593 184.093 77.8838 192.02 70.8742C193.194 69.8466 194.882 71.5348 193.708 72.5624C168.239 95.059 134.989 111.317 118.511 142.291C116.327 146.357 114.533 150.621 113.153 155.026C112.173 159.369 110.54 163.539 108.309 167.393L106.657 166.109C112.088 159.479 118.013 153.272 124.383 147.539C130.695 141.887 137.448 136.529 143.65 130.877C156.348 118.987 166.184 104.16 177.083 90.5083C182.891 82.4542 189.575 75.0692 197.011 68.4887C197.598 68.0116 198.369 68.7456 197.855 69.2961L198.112 69.4062Z" fill="#F3F2F5"/>
<path d="M179.097 126.769C173.812 137.081 163.903 144.825 154.545 151.321C143.902 158.661 132.525 165.23 121.515 171.799C110.506 178.368 98.6151 185.011 87.4585 192.094C76.148 198.896 65.4851 206.721 55.6035 215.471C44.5937 225.49 37.8044 238.225 30.9049 251.069L28.7764 249.822C39.3824 233.123 55.8604 222.077 72.3384 211.764C91.1438 200.421 109.234 187.932 126.507 174.368C135.977 166.634 144.995 158.363 153.517 149.596C154.545 148.532 156.123 150.11 155.132 151.211C140.297 166.932 123.725 180.918 105.735 192.901C97.0003 198.993 88.0824 204.792 79.0911 210.443C70.0997 216.095 62.0626 220.866 54.0622 226.774C44.7694 233.211 36.8893 241.479 30.9049 251.069C30.717 251.301 30.4522 251.458 30.1586 251.512C29.8649 251.565 29.5618 251.511 29.3043 251.36C29.0467 251.209 28.8519 250.971 28.755 250.689C28.6582 250.406 28.6657 250.099 28.7764 249.822C34.2181 238.338 41.1935 227.647 49.5114 218.04C58.6737 208.923 68.8578 200.893 79.8617 194.112C101.881 179.432 125.442 167.542 147.645 153.302C153.48 149.676 159.059 145.654 164.343 141.265C169.498 136.713 174.227 131.701 178.473 126.292C178.766 125.888 179.317 126.292 179.097 126.769Z" fill="#F3F2F5"/>
<path d="M29.5845 251.362C29.4015 245.686 30.3625 240.033 32.4103 234.737C34.1437 229.323 36.4441 224.107 39.2731 219.176C44.7355 209.674 52.0335 201.353 60.7422 194.698C78.1376 181.339 99.57 174.77 119.571 166.66C130.934 162.385 141.819 156.937 152.05 150.402C153.188 149.631 154.215 151.466 153.114 152.2C118.14 175.871 68.7059 178.22 43.7871 215.873C40.2376 221.284 37.3194 227.084 35.0894 233.159C32.8874 239.104 32.08 245.416 30.0249 251.508C30.0249 251.567 30.0017 251.623 29.9604 251.664C29.9191 251.705 29.8631 251.729 29.8047 251.729C29.7463 251.729 29.6903 251.705 29.649 251.664C29.6077 251.623 29.5845 251.567 29.5845 251.508V251.362Z" fill="#F3F2F5"/>
<path d="M30.0278 251.724C31.3404 248.15 33.9649 245.211 37.3677 243.503C41.7349 240.751 46.2856 238.182 50.8363 235.723C60.0111 230.659 69.4061 225.961 78.3607 220.493C95.3901 209.725 110.883 196.7 124.418 181.775C132.052 173.591 139.392 165.04 146.731 156.416C147.539 155.462 148.897 156.82 148.089 157.774C135.704 173.08 122.212 187.456 107.72 200.785C100.632 207.173 93.0892 213.036 85.1501 218.328C76.5625 224.016 67.4244 228.86 58.3596 233.668C53.2217 236.42 48.0838 239.136 43.056 242.035C38.6154 244.604 33.1105 247.21 30.8352 252.091C30.615 252.568 29.8443 252.091 29.9911 251.724H30.0278Z" fill="#F3F2F5"/>
<path d="M101.479 205.155C95.4517 215.102 92.3719 226.555 92.5977 238.184C92.8179 248.753 94.9832 259.139 96.2677 269.599H94.9832C96.3695 260.647 98.4805 251.822 101.295 243.212C104.121 235.065 107.461 227.101 110.764 219.137C116.506 204.078 123.135 189.372 130.618 175.098C130.759 174.859 130.989 174.687 131.258 174.618C131.526 174.549 131.811 174.59 132.049 174.731C132.288 174.872 132.461 175.102 132.529 175.371C132.598 175.639 132.558 175.924 132.416 176.162C124.882 190.438 118.191 205.143 112.379 220.201C108.892 228.312 105.516 236.386 102.69 244.423C99.8828 252.716 97.6872 261.204 96.1209 269.819C96.1209 270.589 94.8731 270.333 94.8364 269.819C93.7721 258.809 91.1665 248.056 90.983 237.01C90.7126 225.547 94.3062 214.327 101.185 205.155H101.442H101.479Z" fill="#F3F2F5"/>
<path d="M254.072 317.933C235.245 300.317 213.372 286.334 195.353 267.911C180.312 253.257 168.281 235.804 159.938 216.532C155.189 204.794 152.148 192.435 150.91 179.833C150.91 178.439 152.929 178.475 153.075 179.833C155.78 201.484 163.55 222.192 175.756 240.277C188.751 258.64 204.382 274.987 222.143 288.793C233.639 297.617 244.664 307.037 255.173 317.015C255.76 317.602 254.843 318.483 254.255 317.933H254.072Z" fill="#F3F2F5"/>
<path d="M252.133 315.769C235.21 308.617 219.374 299.13 205.084 287.584C191.911 276.282 181.151 262.439 173.449 246.884C168.458 236.829 164.238 226.406 159.797 216.13C159.283 215.029 160.935 214.038 161.412 215.176C168.752 232.131 175.578 249.6 186.588 264.647C197.213 278.862 210.5 290.878 225.709 300.025C234.443 305.383 243.582 310.117 252.463 315.182C252.867 315.402 252.463 315.952 252.133 315.769Z" fill="#F3F2F5"/>
<path d="M254.369 317.568C244.901 303.071 232.093 291.438 219.028 280.428C205.429 269.024 192.571 256.766 180.53 243.729C177.35 240.206 174.267 236.609 171.282 232.939C167.921 229.092 164.76 225.075 161.814 220.902C161.19 219.984 162.621 218.847 163.355 219.691C166.438 223.14 169.043 227.031 171.943 230.7C174.842 234.37 177.264 237.306 180.053 240.499C186.329 247.839 193.081 254.482 199.944 261.124C206.073 267.033 212.202 272.831 218.587 278.41C224.973 283.988 230.992 289.419 236.937 295.034C243.812 301.725 249.828 309.245 254.846 317.421C254.846 317.421 254.846 317.788 254.516 317.421L254.369 317.568Z" fill="#F3F2F5"/>
<path d="M254.076 317.75C250.437 309.944 245.785 302.651 240.241 296.061C235.727 290.739 230.736 285.785 225.965 280.684C219.634 273.687 212.933 267.035 205.89 260.756C199.284 255.068 192.018 250.187 185.375 244.535C181.705 241.269 177.815 237.893 174.109 234.479C170.6 231.46 167.369 228.132 164.457 224.534C164.2 224.167 164.75 223.616 165.117 223.91C168.252 226.352 171.23 228.987 174.035 231.8C177.411 234.957 180.788 238.149 184.238 241.195C190.954 247.141 198.257 252.205 205.083 258.077C212.175 264.289 218.903 270.906 225.231 277.895C230.112 283.143 235.213 288.244 239.91 293.675C246.07 300.704 251.153 308.606 254.994 317.126C255.251 317.75 254.37 318.301 254.076 317.677V317.75Z" fill="#F3F2F5"/>
<path d="M165.081 224.605C168.054 240.716 170.219 256.973 176.531 272.314C179.761 280.057 183.614 287.544 187.541 295.031C191.468 302.517 194.881 309.49 199.138 316.389C203.997 324.257 209.418 331.764 215.359 338.849L214.552 339.51C211.799 333.381 208.753 327.363 206.074 321.16C203.467 315.131 201.452 308.863 200.055 302.444C199.086 296.441 197.437 290.568 195.138 284.938C192.422 279.213 189.192 273.928 186.623 267.983C186.146 266.956 187.688 266.038 188.165 267.066C190.697 272.754 193.853 278.075 196.532 283.69C198.854 288.991 200.494 294.565 201.413 300.279C202.611 306.81 204.43 313.213 206.845 319.399C209.524 326.005 212.386 332.537 215.322 338.996C215.543 339.51 214.919 340.134 214.515 339.657C204.034 327.072 194.987 313.36 187.541 298.774C179.761 284.094 172.201 269.011 168.751 252.533C166.815 243.353 165.442 234.063 164.641 224.715C164.641 224.384 165.154 224.274 165.228 224.715L165.081 224.605Z" fill="#F3F2F5"/>
<path d="M21.4749 375.845C25.2569 364.149 30.6418 353.034 37.4757 342.816C43.7321 333.951 50.823 325.705 58.6512 318.191C74.2117 302.704 91.6806 289.125 107.168 273.711C111.718 269.234 116.122 264.573 120.306 259.766C124.49 254.958 128.086 249.563 132.307 244.719C133.187 243.728 134.692 245.012 134.105 246.113C131.377 250.984 128.101 255.527 124.343 259.655C120.673 263.876 117.003 267.986 113.333 271.913C105.516 279.84 97.1855 287.253 88.818 294.556C72.707 308.612 55.7887 322.301 42.7237 339.366C34.1091 350.451 27.1721 362.742 22.1355 375.845C22.1355 376.249 21.3281 376.102 21.4749 375.662V375.845Z" fill="#F3F2F5"/>
<path d="M20.7383 375.845C22.282 367.536 24.7437 359.425 28.0781 351.66C30.876 344.663 34.5774 338.062 39.0879 332.026C48.4882 320.276 59.6261 310.029 72.1173 301.639C79.8241 296.06 87.7879 290.629 95.4947 285.197C96.7792 284.28 97.9902 286.372 96.7425 287.289C71.8604 304.978 43.9689 320.796 31.0141 349.678C27.2426 358.248 24.21 367.125 21.9494 376.212C21.7659 376.909 20.775 376.579 20.8851 375.881L20.7383 375.845Z" fill="#F3F2F5"/>
<path d="M20.7779 376.176C25.769 370.01 31.7876 364.579 37.2191 358.891C42.5528 353.332 47.5527 347.462 52.1924 341.312C61.3306 329.164 70.3219 316.87 79.6802 304.906C84.9193 298.115 90.505 291.598 96.4151 285.382C97.406 284.391 98.9106 285.932 97.9564 286.923C87.5092 298.105 77.7769 309.933 68.8172 322.338C60.0917 334.752 50.6693 346.662 40.5955 358.01C34.5346 364.609 28.1147 370.87 21.365 376.763C21.2872 376.841 21.1816 376.885 21.0715 376.885C20.9613 376.885 20.8557 376.841 20.7779 376.763C20.7 376.685 20.6562 376.58 20.6562 376.47C20.6562 376.359 20.7 376.254 20.7779 376.176Z" fill="#F3F2F5"/>
<path d="M21.1125 375.844C27.3513 370.999 33.9572 366.669 40.1227 361.751C46.3152 356.836 52.1187 351.45 57.4814 345.64C62.8669 339.826 67.65 333.481 71.7575 326.703C76.4183 318.96 80.3084 310.886 85.2995 303.363C90.6215 295.082 96.5331 287.196 102.989 279.765C103.759 278.958 105.227 280.059 104.567 281.013C99.4654 288.353 93.5568 295.252 88.3088 302.665C83.0608 310.079 79.0973 318.116 74.5466 325.933C66.3697 339.5 55.8443 351.504 43.4623 361.384C36.7016 367.157 29.3157 372.155 21.4428 376.284C21.1859 376.284 20.8556 376.027 21.1125 375.844Z" fill="#F3F2F5"/>
<path d="M109.553 271.802C106.528 274.445 103.341 276.896 100.011 279.142C96.7216 281.157 93.2279 282.818 89.5882 284.096C81.9548 286.959 73.9543 288.537 66.1374 290.702C51.0698 294.619 36.6102 300.583 23.1625 308.428C15.6745 312.919 8.76091 318.304 2.57425 324.465L1.36318 322.887C15.3089 314.19 32.0438 313.162 47.641 308.685C64.0949 303.605 79.6133 295.883 93.5884 285.821C94.6527 285.087 95.6436 286.812 94.616 287.546C80.8874 297.401 65.6908 305.031 49.586 310.153C33.842 314.924 16.5567 315.731 2.35406 324.649C2.25044 324.728 2.13217 324.787 2.00601 324.821C1.87985 324.854 1.74826 324.863 1.61877 324.846C1.48927 324.829 1.36439 324.787 1.25127 324.721C1.13815 324.656 1.039 324.569 0.959483 324.465C0.879962 324.362 0.82163 324.244 0.787815 324.117C0.754001 323.991 0.745367 323.86 0.762406 323.73C0.796818 323.469 0.933714 323.231 1.14298 323.071C12.031 312.565 24.8229 304.232 38.8331 298.519C45.7023 295.654 52.7366 293.203 59.8985 291.179C67.5687 288.904 75.4223 287.252 83.0925 285.014C87.5714 283.791 91.8939 282.055 95.9739 279.839C100.395 277.208 104.615 274.251 108.598 270.995C109.259 270.481 110.25 271.398 109.553 271.949V271.802Z" fill="#F3F2F5"/>
<path d="M226.149 413.349C220.202 405.224 213.612 397.59 206.442 390.522C199.396 383.622 191.762 377.493 184.129 371.181C169.533 358.97 156.635 344.863 145.778 329.234C139.188 319.952 133.182 310.269 127.795 300.241C127.716 300.045 127.709 299.827 127.777 299.626C127.845 299.426 127.984 299.257 128.166 299.15C128.349 299.043 128.564 299.005 128.773 299.044C128.981 299.083 129.168 299.195 129.3 299.361C139.094 316.545 150.406 332.819 163.1 347.987C176.092 362.667 191.505 374.778 205.561 388.356C213.35 395.875 220.359 404.162 226.48 413.092C226.48 413.092 226.48 413.459 226.149 413.092V413.349Z" fill="#F3F2F5"/>
<path d="M225.745 414.12C221.084 409.239 216.68 404.174 211.542 399.697C206.404 395.219 201.009 391.109 195.651 386.852C184.712 378.695 174.847 369.188 166.292 358.557C161.412 352.21 157.124 345.429 153.484 338.299C152.897 337.198 154.548 336.207 155.135 337.308C161.613 350 170.13 361.542 180.348 371.475C189.999 380.87 201.229 388.32 211.469 397.164C217.417 401.702 222.544 407.225 226.625 413.496C226.677 413.622 226.686 413.762 226.651 413.895C226.615 414.027 226.537 414.144 226.429 414.227C226.32 414.311 226.187 414.356 226.05 414.356C225.913 414.357 225.78 414.312 225.671 414.23L225.745 414.12Z" fill="#F3F2F5"/>
<path d="M225.082 411.81C219.834 404.286 214.622 396.689 209.191 389.313C204.172 382.017 198.239 375.394 191.538 369.605C184.859 364.101 177.446 359.55 170.73 354.118C167.427 351.476 164.234 348.724 161.151 345.861C157.739 342.92 154.561 339.717 151.646 336.282C151.478 336.084 151.391 335.829 151.403 335.569C151.416 335.309 151.526 335.064 151.713 334.882C151.899 334.7 152.147 334.596 152.407 334.59C152.668 334.585 152.92 334.678 153.114 334.851C156.491 337.787 159.5 341.163 162.803 344.21C166.106 347.256 169.556 350.155 173.079 352.944C179.758 358.265 187.098 363.11 193.63 368.504C199.981 374.096 205.582 380.485 210.292 387.515C215.76 395.222 220.971 403.075 225.705 411.259C225.926 411.663 225.338 411.956 225.082 411.626V411.81Z" fill="#F3F2F5"/>
<path d="M225.302 413.205C212.897 402.672 196.566 398.525 183.648 388.617C171.839 378.994 162.554 366.636 156.601 352.615C152.931 344.614 150.802 335.66 145.848 328.283C145.407 327.586 146.398 326.852 146.986 327.402C152.38 332.834 153.995 341.385 156.931 348.211C159.947 355.287 163.634 362.059 167.941 368.432C172.246 374.874 177.421 380.691 183.318 385.717C189.666 390.764 196.574 395.061 203.906 398.525C211.927 402.188 219.35 407.038 225.926 412.911C225.926 412.911 225.926 413.389 225.595 413.205H225.302Z" fill="#F3F2F5"/>
<path d="M157.741 352.869C160.86 359.674 162.808 366.958 163.503 374.412C164.237 382.082 164.127 389.789 165.081 397.459C165.914 405.193 168.554 412.622 172.788 419.148C177.043 425.181 181.834 430.819 187.1 435.993L185.816 436.984C181.404 427.12 178.259 416.737 176.458 406.083C174.696 395.44 174.072 384.871 170.292 374.632C169.925 373.678 171.503 373.017 171.944 373.934C176.458 383.329 176.494 394.303 177.962 404.395C179.512 415.363 182.588 426.06 187.1 436.176C187.467 436.947 186.513 437.865 185.816 437.167C180.559 432.096 175.746 426.583 171.43 420.689C167.267 414.661 164.508 407.776 163.356 400.541C162.182 392.981 162.255 385.311 161.778 377.678C161.292 369.311 159.662 361.05 156.934 353.126C156.934 352.759 157.411 352.502 157.557 352.869H157.741Z" fill="#F3F2F5"/>
<path d="M108.488 473.246C110.433 461.319 115.828 450.016 119.498 438.492C121.48 432.07 122.544 425.39 124.269 418.895C126.999 410.279 128.614 401.35 129.077 392.324C129.629 381.788 130.991 371.31 133.15 360.983C133.15 359.919 134.948 360.396 134.802 361.46C132.728 371.132 131.391 380.946 130.801 390.82C130.622 399.364 129.289 407.845 126.838 416.032C124.966 422.932 123.718 430.015 121.737 436.877C119.902 443.116 117.663 449.208 115.535 455.227C113.406 461.246 110.91 467.338 109.259 473.577C109.259 473.98 108.598 473.797 108.672 473.393L108.488 473.246Z" fill="#F3F2F5"/>
<path d="M108.266 473.723C114.762 462.896 121.441 452.18 127.093 440.693C130.111 434.821 132.569 428.677 134.433 422.344C136.647 413.133 137.586 403.661 137.222 394.195C137.313 388.927 137.093 383.657 136.561 378.415C135.901 372.689 134.506 367.221 133.332 361.606C133.278 361.407 133.306 361.194 133.41 361.015C133.513 360.836 133.683 360.706 133.882 360.652C134.082 360.599 134.295 360.627 134.474 360.73C134.652 360.833 134.783 361.003 134.837 361.203C137.524 370.498 138.932 380.116 139.02 389.791C139.507 399.322 138.904 408.877 137.222 418.27C133.552 432.068 127.745 445.206 120.01 457.208C116.709 463.126 112.942 468.771 108.743 474.09C108.523 474.346 108.083 474.09 108.266 473.723Z" fill="#F3F2F5"/>
<path d="M108.309 472.471C109.036 467.836 109.27 463.137 109.006 458.452C109.006 455.223 109.226 451.956 109.52 448.69C110.18 441.35 111.245 434.011 112.529 426.671C114.954 412.105 118.713 397.793 123.759 383.916C125.484 379.292 127.172 374.631 128.603 369.897C130.035 365.163 131.025 360.392 132.273 355.731C132.322 355.541 132.444 355.378 132.613 355.279C132.781 355.179 132.983 355.15 133.172 355.199C133.362 355.247 133.525 355.37 133.625 355.538C133.724 355.707 133.753 355.908 133.704 356.098C130.438 371.842 123.686 386.448 119.539 401.899C115.509 416.831 112.674 432.06 111.061 447.442C110.694 451.112 110.474 454.599 110.364 458.195C110.489 463.048 109.983 467.896 108.859 472.618C108.838 472.674 108.801 472.723 108.751 472.757C108.702 472.791 108.644 472.81 108.584 472.81C108.524 472.81 108.465 472.791 108.416 472.757C108.367 472.723 108.329 472.674 108.309 472.618V472.471Z" fill="#F3F2F5"/>
<path d="M110.91 462.969C111.24 453.757 114.58 444.839 116.305 435.848C117.626 428.508 118.507 420.911 119.791 413.498C121.048 405.086 122.937 396.781 125.443 388.653C126.874 384.322 128.636 380.102 130.177 375.808C131.676 371.386 132.901 366.875 133.847 362.303C133.899 362.149 134.002 362.017 134.14 361.931C134.278 361.845 134.441 361.81 134.602 361.832C134.763 361.854 134.911 361.931 135.021 362.05C135.132 362.17 135.196 362.324 135.205 362.486C135.205 370.12 131.535 377.79 128.856 384.836C126.029 392.785 123.893 400.962 122.47 409.278C120.929 417.608 119.498 426.013 118.25 434.38C117.441 438.826 116.387 443.225 115.094 447.555C113.429 452.599 112.105 457.748 111.13 462.969H110.91Z" fill="#F3F2F5"/>
<path d="M130.543 365.57C127.899 372.554 123.909 378.95 118.799 384.397C113.547 390.616 107.921 396.511 101.954 402.049C95.7137 407.735 89.8306 413.802 84.3387 420.215C79.2908 427.079 75.5579 434.818 73.3289 443.042L71.8242 442.418C75.0405 437.134 78.818 432.212 83.0909 427.738C87.7634 423.274 92.8233 419.233 98.211 415.664C108.938 408.224 117.397 397.961 122.653 386.011C123.13 384.91 124.928 385.387 124.451 386.488C119.662 397.644 112.079 407.377 102.431 414.747C96.8164 419.041 90.7977 422.747 85.5864 427.555C80.6753 432.077 76.5351 437.37 73.3289 443.225C72.8885 444.07 71.6407 443.482 71.8609 442.602C73.6008 434.849 76.8289 427.508 81.366 420.986C86.5374 414.499 92.2194 408.437 98.3578 402.856C104.376 397.021 110.505 391.296 116.047 385.02C118.814 381.959 121.364 378.71 123.68 375.295C125.846 372.066 127.57 368.542 129.736 365.276C129.993 364.946 130.58 365.276 130.47 365.57H130.543Z" fill="#F3F2F5"/>
<path d="M99.3872 286.111C99.4304 294.118 98.8661 302.117 97.6991 310.039C96.7955 317.711 95.1235 325.272 92.708 332.609C90.2124 339.582 85.9553 345.491 82.8359 352.133C79.953 359.425 78.1002 367.083 77.331 374.887C77.331 375.474 76.23 375.474 76.1199 374.887C73.1906 360.299 74.4633 345.18 79.7898 331.288C81.0743 327.912 82.6524 324.682 84.157 321.379C85.7157 317.521 86.8718 313.511 87.6068 309.415C89.4073 302.07 92.3154 295.041 96.2311 288.57C96.6715 287.799 97.6991 288.57 97.3688 289.231C93.8486 296.089 91.021 303.281 88.9279 310.7C88.3734 314.145 87.4759 317.526 86.2489 320.792C84.8176 324.242 83.0561 327.581 81.6615 331.068C75.7437 344.79 74.2306 360.011 77.331 374.63L76.0832 374.813C76.393 367.307 77.943 359.904 80.6706 352.904C83.5698 346.115 88.2307 340.279 90.9097 333.38C96.7082 318.48 97.589 301.892 98.6165 286.111C98.645 286.012 98.7052 285.924 98.788 285.861C98.8708 285.799 98.9716 285.765 99.0753 285.765C99.179 285.765 99.2798 285.799 99.3626 285.861C99.4454 285.924 99.5056 286.012 99.534 286.111H99.3872Z" fill="#F3F2F5"/>
<path d="M229.815 55.5377C230.22 87.7566 239.571 119.229 256.825 146.442L255.284 147.359C252.091 141.928 252.385 135.432 251.614 129.377C250.81 121.928 249.373 114.562 247.32 107.357C243.65 94.6958 237.705 83.0254 233.558 70.6577C231.14 64.3939 229.896 57.7381 229.888 51.0236C229.888 50.7706 229.989 50.5279 230.168 50.3489C230.347 50.17 230.589 50.0695 230.842 50.0695C231.095 50.0695 231.338 50.17 231.517 50.3489C231.696 50.5279 231.797 50.7706 231.797 51.0236C232.384 66.6575 239.98 80.8234 245.412 95.0628C248.612 103.465 250.948 112.171 252.385 121.046C253.082 125.34 253.559 129.633 253.889 133.964C253.842 138.287 254.81 142.561 256.715 146.442C256.776 146.543 256.815 146.655 256.832 146.772C256.849 146.888 256.843 147.007 256.814 147.121C256.785 147.235 256.734 147.343 256.663 147.437C256.593 147.531 256.505 147.611 256.403 147.671C256.302 147.731 256.19 147.771 256.074 147.788C255.957 147.805 255.838 147.799 255.724 147.77C255.61 147.741 255.503 147.69 255.408 147.619C255.314 147.549 255.234 147.46 255.174 147.359C246.645 133.833 240.014 119.2 235.466 103.871C230.568 88.2381 228.225 71.917 228.53 55.5377C228.566 55.3845 228.653 55.2479 228.776 55.1502C228.899 55.0525 229.052 54.9993 229.209 54.9993C229.367 54.9993 229.519 55.0525 229.642 55.1502C229.766 55.2479 229.852 55.3845 229.888 55.5377H229.815Z" fill="#F3F2F5"/>
</svg>
