<svg width="220" height="406" viewBox="0 0 220 406" fill="none" xmlns="http://www.w3.org/2000/svg">
<path d="M92.7148 1.46157C97.8887 10.6952 101.974 20.4978 104.889 30.673C108.385 41.667 111.09 52.897 112.984 64.277C113.762 68.632 114.245 73.0348 114.427 77.4551C114.411 84.4172 114.003 91.3729 113.204 98.289C111.792 114.95 109.219 131.517 108.811 148.24C108.271 180.146 113.589 211.88 124.499 241.867C134.9 270.284 149.073 297.174 166.638 321.814C183.267 345.409 202.563 367.875 213.702 394.858C215.051 398.184 216.369 401.573 217.624 404.961C217.703 405.253 217.895 405.501 218.157 405.651C218.418 405.801 218.729 405.841 219.02 405.762C219.312 405.682 219.56 405.491 219.71 405.229C219.86 404.967 219.9 404.657 219.82 404.365C215.742 390.626 209.55 377.606 201.465 365.772C193.621 353.473 184.773 341.864 176.176 330.097C157.843 305.779 142.652 279.245 130.963 251.123C118.827 221.486 112.101 189.914 111.101 157.904C111.189 141.27 112.237 124.655 114.239 108.141C115.431 95.5906 117.157 82.5694 115.463 69.9248C113.926 59.0388 111.555 48.287 108.372 37.764C105.389 27.0867 101.473 16.6925 96.6683 6.70142C95.6642 4.72471 94.5974 2.77938 93.5306 0.896795C93.2482 0.457526 92.4952 0.896795 92.809 1.33606L92.7148 1.46157Z" fill="#F3F2F5"/>
<path d="M195.693 358.244C193.088 350.651 190.359 343.152 188.445 335.34C186.528 327.404 185.186 319.34 184.429 311.211C182.975 295.061 183.873 278.784 187.096 262.892C188.922 253.911 191.514 245.104 194.846 236.567C195.285 235.469 193.496 234.967 193.057 236.065C181.192 266.781 178.724 300.331 185.966 332.453C187.827 341.505 190.711 350.315 194.563 358.715C194.632 358.859 194.753 358.972 194.902 359.029C195.051 359.087 195.217 359.086 195.365 359.026C195.513 358.966 195.633 358.851 195.699 358.706C195.766 358.561 195.775 358.396 195.724 358.244H195.693Z" fill="#F3F2F5"/>
<path d="M193.307 237.162C185.934 249.117 178.999 261.761 176.332 275.724C173.977 290.239 175.183 305.109 179.847 319.055C182.025 326.873 185.034 334.436 188.82 341.614C188.894 341.704 188.995 341.767 189.107 341.794C189.22 341.822 189.338 341.812 189.445 341.765C189.551 341.719 189.64 341.64 189.697 341.539C189.754 341.438 189.777 341.321 189.762 341.206C187.44 334.523 184.365 328.154 182.168 321.439C179.866 314.616 178.227 307.586 177.274 300.448C175.443 286.154 177.536 271.631 183.329 258.436C186.467 251.25 190.138 244.348 193.652 237.382C193.652 237.131 193.433 236.943 193.307 237.162Z" fill="#F3F2F5"/>
<path d="M193.178 237.196C189.467 248.907 187.728 261.154 188.033 273.436C188.033 280.213 188.692 286.959 188.409 293.705C188.127 300.451 187.311 307.008 186.715 313.66C185.884 321.141 185.758 328.684 186.338 336.188C186.338 337.224 188.064 337.224 187.97 336.188C186.746 323.104 189.099 310.114 189.978 297.093C190.354 290.499 190.354 283.889 189.978 277.295C189.695 270.818 189.853 264.329 190.449 257.873C191.198 250.975 192.329 244.125 193.837 237.353C193.837 237.278 193.807 237.206 193.755 237.153C193.702 237.1 193.63 237.07 193.555 237.07C193.48 237.07 193.408 237.1 193.355 237.153C193.302 237.206 193.272 237.278 193.272 237.353L193.178 237.196Z" fill="#F3F2F5"/>
<path d="M193.778 236.287C192.606 240.586 192.245 245.065 192.711 249.496C192.711 255.771 193.182 262.047 193.464 268.573C193.747 275.099 193.998 281.626 193.809 288.152C193.481 295.182 192.504 302.167 190.891 309.017C189.856 313.849 188.758 318.712 187.973 323.607C187.628 325.866 187.315 328.125 187.126 330.416C186.718 332.899 186.718 335.432 187.126 337.915C187.126 338.031 187.173 338.143 187.255 338.225C187.337 338.308 187.449 338.354 187.566 338.354C187.682 338.354 187.794 338.308 187.876 338.225C187.959 338.143 188.005 338.031 188.005 337.915C188.277 335.918 188.424 333.906 188.444 331.89C188.58 329.494 188.842 327.106 189.229 324.737C189.919 320.187 190.891 315.7 191.864 311.213C193.473 304.429 194.522 297.524 195.002 290.568C195.598 277.766 194.468 264.933 193.998 252.132C193.809 246.861 193.998 241.589 193.998 236.444C193.998 236.394 193.978 236.346 193.943 236.311C193.907 236.275 193.859 236.255 193.809 236.255C193.76 236.255 193.712 236.275 193.676 236.311C193.641 236.346 193.621 236.394 193.621 236.444L193.778 236.287Z" fill="#F3F2F5"/>
<path d="M183.989 327.652C182.567 325.293 181.51 322.733 180.851 320.059C179.885 317.437 178.775 314.871 177.525 312.372C174.583 307.111 171.994 301.66 169.775 296.056C167.931 289.844 166.877 283.424 166.637 276.948C166.135 270.233 165.675 263.498 165.257 256.741C164.305 249.056 164.232 241.288 165.037 233.586L163.468 233.366C163.583 235.83 164.317 238.226 165.602 240.332C167.171 243.752 168.457 247.266 169.712 250.78C173.074 259.148 175.188 267.965 175.988 276.948C175.988 277.952 177.619 277.952 177.556 276.948C176.796 268.336 174.787 259.881 171.595 251.847C170.371 248.395 169.21 244.881 167.704 241.555C166.126 239.116 165.178 236.324 164.943 233.429C164.943 232.55 163.531 232.331 163.374 233.209C162.532 239.988 162.469 246.842 163.186 253.635C163.531 260.758 164.065 267.911 164.598 275.034C164.811 281.711 165.726 288.347 167.328 294.832C169.292 300.632 171.825 306.223 174.889 311.525C176.588 314.634 178.056 317.864 179.282 321.188C179.75 323.955 181.131 326.484 183.204 328.374C183.643 328.687 184.271 328.091 183.957 327.652H183.989Z" fill="#F3F2F5"/>
<path d="M50.2295 306.978C69.275 318.713 91.0188 324.517 112.606 330.134C133.251 335.53 154.117 340.927 173.225 350.685C183.791 355.917 193.427 362.85 201.746 371.205C202.938 372.429 204.884 370.546 203.597 369.323C172.754 337.57 126.38 333.334 86.1868 321.066C73.8129 317.445 61.8306 312.599 50.4178 306.601C50.3712 306.593 50.3232 306.6 50.281 306.622C50.2387 306.643 50.2045 306.677 50.1833 306.72C50.1622 306.762 50.1553 306.81 50.1636 306.856C50.1719 306.903 50.195 306.946 50.2295 306.978Z" fill="#F3F2F5"/>
<path d="M50.23 306.976C64.9455 311.808 80.665 312.31 95.6002 316.389C110.342 320.394 124.647 325.859 138.303 332.704C145.991 336.438 153.521 340.454 160.988 344.628C161.176 344.701 161.384 344.706 161.575 344.64C161.766 344.574 161.927 344.442 162.029 344.268C162.131 344.094 162.167 343.889 162.132 343.69C162.097 343.492 161.992 343.312 161.836 343.184C148.657 335.683 135.035 328.988 121.046 323.135C106.862 317.319 92.0295 313.232 76.8685 310.961C67.989 309.611 59.1095 308.451 50.2927 306.662C50.2591 306.677 50.2305 306.701 50.2105 306.732C50.1904 306.762 50.1797 306.798 50.1797 306.835C50.1797 306.871 50.1904 306.907 50.2105 306.938C50.2305 306.968 50.2591 306.993 50.2927 307.007L50.23 306.976Z" fill="#F3F2F5"/>
<path d="M49.1634 306.379C53.7409 311.667 59.2231 316.097 65.3536 319.463C71.3844 323.054 77.74 326.069 84.3363 328.468C99.3258 333.584 114.892 336.82 130.679 338.1C139.78 338.72 148.786 340.33 157.537 342.901C158.604 343.246 159.075 341.552 158.008 341.175C150.768 338.956 143.309 337.526 135.762 336.908C127.761 336.061 119.792 335.308 111.885 333.771C96.7814 331.504 82.1786 326.665 68.7108 319.463C61.9755 315.381 55.5282 310.842 49.4144 305.877C49.1947 305.877 49.0065 305.877 49.1634 306.222V306.379Z" fill="#F3F2F5"/>
<path d="M50.2317 306.597C58.4837 307.382 66.8298 307.413 75.0818 308.103C83.3748 308.728 91.6149 309.923 99.7436 311.68C107.843 313.432 115.725 316.073 123.245 319.556C130.813 323.291 138.148 327.482 145.208 332.106L170.623 348.391C171.564 348.987 172.443 347.481 171.501 346.885L148.189 332.106C141 327.344 133.564 322.966 125.911 318.991C110.969 312.123 94.8845 308.08 78.4705 307.068C69.0919 306.082 59.6585 305.715 50.2317 305.97C50.1485 305.97 50.0687 306.003 50.0099 306.062C49.951 306.121 49.918 306.2 49.918 306.284C49.918 306.367 49.951 306.447 50.0099 306.506C50.0687 306.564 50.1485 306.597 50.2317 306.597Z" fill="#F3F2F5"/>
<path d="M169.46 346.822C159.067 335.484 149.264 323.618 140.091 311.272C135.824 305.58 131.203 300.162 126.255 295.051C121.109 289.905 115.367 285.418 109.876 280.68C103.607 275.275 97.8228 269.333 92.5877 262.921C91.9602 262.137 90.611 263.141 91.2071 263.988C93.0209 267.155 94.3334 270.585 95.0978 274.154C96.0663 277.26 97.2618 280.291 98.6747 283.222C101.669 289.289 105.423 294.95 109.845 300.071C119.747 310.87 130.841 320.512 142.915 328.811C150.195 334.208 157.474 339.574 164.251 345.566C165.255 346.445 166.699 345.002 165.695 344.123C143.919 324.889 115.492 310.99 101.404 284.508C99.5372 281.032 98.0034 277.386 96.8235 273.62C95.9855 269.907 94.589 266.342 92.6818 263.047L91.2699 264.145C95.9127 269.813 100.979 275.12 106.425 280.021C111.821 284.853 117.595 289.434 122.897 294.266C133.753 304.432 142.162 317.108 151.481 328.78C156.447 335.666 162.161 341.98 168.518 347.606C169.02 348.014 169.679 347.386 169.24 346.916L169.46 346.822Z" fill="#F3F2F5"/>
<path d="M153.207 297.782C148.689 288.965 140.217 282.345 132.216 276.791C123.117 270.516 113.39 264.899 103.977 259.283C94.5644 253.667 84.3984 247.988 74.86 241.932C65.1901 236.116 56.0737 229.426 47.6254 221.945C38.2125 213.379 32.4078 202.492 26.5091 191.51L24.6893 192.577C33.757 206.853 47.845 216.297 61.933 225.114C78.0108 234.813 93.4771 245.49 108.244 257.087C116.341 263.699 124.051 270.77 131.337 278.266C132.216 279.176 133.565 277.826 132.718 276.885C120.035 263.444 105.866 251.487 90.4855 241.242C83.0179 236.033 75.3934 231.076 67.7062 226.244C60.019 221.412 53.1476 217.333 46.3076 212.281C38.3626 206.778 31.6255 199.71 26.5091 191.51C26.3485 191.312 26.1221 191.178 25.871 191.132C25.6199 191.086 25.3607 191.132 25.1406 191.261C24.9204 191.39 24.7538 191.594 24.671 191.835C24.5882 192.077 24.5947 192.34 24.6893 192.577C29.3417 202.395 35.3054 211.535 42.4169 219.749C50.2502 227.544 58.9573 234.408 68.3651 240.206C87.1909 252.757 107.335 262.923 126.317 275.097C131.305 278.197 136.075 281.636 140.593 285.388C145 289.28 149.044 293.565 152.673 298.19C152.924 298.535 153.395 298.19 153.207 297.782Z" fill="#F3F2F5"/>
<path d="M25.3782 191.259C25.2217 196.111 26.0434 200.945 27.7942 205.473C29.2761 210.101 31.2428 214.561 33.6615 218.776C38.3317 226.9 44.5711 234.014 52.0167 239.704C66.8891 251.125 85.2129 256.742 102.313 263.676C112.027 267.33 121.334 271.989 130.081 277.575C131.054 278.234 131.932 276.666 130.991 276.038C101.089 255.8 58.8254 253.792 37.5208 221.6C34.4862 216.974 31.9912 212.015 30.0846 206.822C28.202 201.739 27.5118 196.342 25.7547 191.134C25.7547 191.084 25.7349 191.036 25.6995 191C25.6642 190.965 25.6164 190.945 25.5664 190.945C25.5165 190.945 25.4686 190.965 25.4333 191C25.398 191.036 25.3782 191.084 25.3782 191.134V191.259Z" fill="#F3F2F5"/>
<path d="M25.7581 190.947C26.8803 194.002 29.1242 196.515 32.0334 197.975C35.7671 200.328 39.6578 202.524 43.5485 204.627C51.3926 208.957 59.4249 212.973 67.0808 217.648C81.6402 226.854 94.8862 237.989 106.458 250.75C112.984 257.747 119.26 265.058 125.535 272.431C126.225 273.247 127.386 272.086 126.696 271.27C116.107 258.184 104.571 245.893 92.1818 234.497C86.1221 229.036 79.6729 224.024 72.8854 219.499C65.5433 214.636 57.7306 210.494 49.9806 206.384C45.5879 204.031 41.1953 201.709 36.8967 199.23C33.1002 197.034 28.3937 194.806 26.4484 190.633C26.2601 190.225 25.6012 190.633 25.7267 190.947H25.7581Z" fill="#F3F2F5"/>
<path d="M86.8452 230.763C81.6921 222.259 79.059 212.466 79.2521 202.524C79.4403 193.488 81.2915 184.608 82.3897 175.666H81.2915C82.4768 183.32 84.2816 190.864 86.6883 198.226C89.1043 205.191 91.9595 212 94.7834 218.809C99.6925 231.684 105.361 244.256 111.758 256.46C111.879 256.664 112.075 256.812 112.305 256.871C112.534 256.929 112.778 256.895 112.982 256.774C113.186 256.653 113.333 256.457 113.392 256.227C113.451 255.998 113.416 255.754 113.295 255.55C106.854 243.345 101.134 230.773 96.1639 217.899C93.1832 210.965 90.2966 204.062 87.8806 197.19C85.4805 190.1 83.6034 182.843 82.2642 175.478C82.2642 174.819 81.1974 175.039 81.166 175.478C80.2561 184.891 78.0284 194.084 77.8715 203.528C77.6404 213.328 80.7127 222.921 86.5942 230.763H86.8138H86.8452Z" fill="#F3F2F5"/>
<path d="M217.308 134.345C201.212 149.406 182.512 161.36 167.106 177.111C154.246 189.64 143.961 204.562 136.828 221.038C132.767 231.073 130.168 241.64 129.109 252.414C129.109 253.606 130.835 253.575 130.961 252.414C133.272 233.904 139.916 216.199 150.351 200.737C161.462 185.038 174.825 171.061 190.011 159.258C199.839 151.714 209.265 143.66 218.25 135.129C218.752 134.627 217.967 133.874 217.465 134.345H217.308Z" fill="#F3F2F5"/>
<path d="M215.648 136.192C201.18 142.306 187.64 150.418 175.423 160.289C164.16 169.952 154.962 181.787 148.377 195.086C144.11 203.683 140.501 212.594 136.705 221.379C136.266 222.32 137.678 223.167 138.085 222.195C144.361 207.699 150.197 192.764 159.61 179.899C168.694 167.746 180.054 157.473 193.057 149.653C200.524 145.072 208.337 141.024 215.93 136.694C216.275 136.506 215.93 136.035 215.648 136.192Z" fill="#F3F2F5"/>
<path d="M217.559 134.656C209.464 147.05 198.514 156.996 187.344 166.409C175.718 176.159 164.724 186.639 154.43 197.785C151.711 200.797 149.075 203.872 146.523 207.01C143.649 210.299 140.947 213.734 138.428 217.301C137.895 218.086 139.118 219.058 139.746 218.337C142.382 215.387 144.609 212.062 147.088 208.924C149.567 205.786 151.638 203.276 154.022 200.546C159.388 194.271 165.161 188.592 171.028 182.913C176.268 177.861 181.508 172.904 186.967 168.135C192.427 163.365 197.573 158.722 202.656 153.921C208.534 148.201 213.677 141.772 217.967 134.782C217.967 134.782 217.967 134.468 217.685 134.782L217.559 134.656Z" fill="#F3F2F5"/>
<path d="M217.31 134.498C214.199 141.172 210.222 147.406 205.481 153.041C201.622 157.591 197.355 161.826 193.276 166.188C187.864 172.17 182.135 177.857 176.113 183.225C170.465 188.088 164.253 192.261 158.574 197.093C155.436 199.886 152.11 202.773 148.941 205.691C145.941 208.272 143.18 211.118 140.689 214.194C140.47 214.507 140.94 214.978 141.254 214.727C143.934 212.64 146.48 210.387 148.878 207.981C151.765 205.283 154.652 202.553 157.601 199.949C163.343 194.866 169.587 190.536 175.423 185.516C181.487 180.205 187.238 174.548 192.648 168.572C196.822 164.085 201.183 159.724 205.199 155.08C210.465 149.072 214.811 142.315 218.095 135.031C218.314 134.498 217.561 134.027 217.31 134.56V134.498Z" fill="#F3F2F5"/>
<path d="M141.22 214.135C143.762 200.36 145.613 186.461 151.01 173.345C153.771 166.725 157.065 160.324 160.423 153.923C163.78 147.523 166.698 141.561 170.338 135.662C174.491 128.936 179.126 122.518 184.206 116.46L183.516 115.895C181.162 121.135 178.558 126.281 176.268 131.583C174.039 136.738 172.316 142.097 171.122 147.585C170.294 152.718 168.883 157.739 166.917 162.552C164.596 167.446 161.835 171.965 159.638 177.048C159.23 177.926 160.548 178.711 160.956 177.832C163.121 172.969 165.819 168.419 168.11 163.619C170.095 159.087 171.497 154.321 172.283 149.436C173.307 143.852 174.862 138.378 176.927 133.089C179.217 127.442 181.664 121.857 184.174 116.334C184.363 115.895 183.829 115.362 183.484 115.77C174.524 126.529 166.789 138.252 160.423 150.723C153.771 163.273 147.307 176.169 144.358 190.257C142.703 198.106 141.529 206.048 140.844 214.04C140.844 214.323 141.283 214.417 141.346 214.04L141.22 214.135Z" fill="#F3F2F5"/>
<path d="M18.4449 84.8298C21.6784 94.8295 26.2823 104.333 32.125 113.069C37.474 120.648 43.5364 127.698 50.2292 134.122C63.5328 147.363 78.4679 158.972 91.7087 172.15C95.5994 175.978 99.3646 179.963 102.941 184.073C106.518 188.183 109.593 192.796 113.202 196.937C113.955 197.785 115.241 196.686 114.739 195.745C112.406 191.581 109.606 187.697 106.393 184.167C103.255 180.559 100.118 177.045 96.98 173.688C90.2968 166.91 83.1744 160.572 76.0205 154.328C62.2463 142.311 47.7818 130.608 36.6118 116.018C29.2467 106.541 23.3158 96.0328 19.0097 84.8298C19.0097 84.4846 18.3194 84.6101 18.4449 84.9867V84.8298Z" fill="#F3F2F5"/>
<path d="M17.8164 84.8314C19.1362 91.9348 21.2409 98.8696 24.0917 105.508C26.4838 111.49 29.6483 117.134 33.5046 122.295C41.5414 132.34 51.0639 141.101 61.7433 148.274C68.3323 153.044 75.141 157.687 81.73 162.331C82.8282 163.115 83.8636 161.327 82.7968 160.543C61.5237 145.419 37.6776 131.896 26.6018 107.203C23.3774 99.8755 20.7846 92.2862 18.8518 84.5176C18.6949 83.9215 17.8478 84.2039 17.9419 84.8L17.8164 84.8314Z" fill="#F3F2F5"/>
<path d="M17.8501 84.5464C22.1173 89.8176 27.263 94.4614 31.9067 99.3247C36.4667 104.077 40.7414 109.096 44.7082 114.354C52.5209 124.74 60.2081 135.251 68.2091 145.479C72.6883 151.286 77.4638 156.857 82.5167 162.172C83.3639 163.019 84.6503 161.701 83.8345 160.854C74.9026 151.294 66.5819 141.181 58.9217 130.576C51.4617 119.962 43.406 109.779 34.7933 100.078C29.6115 94.4354 24.1228 89.0828 18.3521 84.0444C18.2855 83.9778 18.1952 83.9404 18.1011 83.9404C18.0069 83.9404 17.9166 83.9778 17.8501 84.0444C17.7835 84.111 17.7461 84.2013 17.7461 84.2954C17.7461 84.3896 17.7835 84.4798 17.8501 84.5464Z" fill="#F3F2F5"/>
<path d="M18.1341 84.8301C23.4681 88.9718 29.1159 92.6742 34.3871 96.8787C39.6814 101.081 44.6432 105.686 49.2281 110.653C53.8324 115.624 57.9218 121.048 61.4335 126.843C65.4183 133.463 68.7442 140.366 73.0114 146.798C77.5614 153.878 82.6157 160.62 88.1348 166.973C88.7937 167.664 90.0487 166.722 89.484 165.907C85.1227 159.631 80.0711 153.733 75.5842 147.395C71.0974 141.057 67.7088 134.185 63.8181 127.502C56.8272 115.903 47.8284 105.64 37.2423 97.1924C31.4622 92.2568 25.1476 87.9839 18.4165 84.4536C18.1969 84.4536 17.9145 84.6733 18.1341 84.8301Z" fill="#F3F2F5"/>
<path d="M93.7489 173.783C91.1627 171.524 88.4382 169.428 85.591 167.508C82.7789 165.785 79.7919 164.365 76.6801 163.272C70.1538 160.825 63.3138 159.475 56.6306 157.624C43.7485 154.275 31.3862 149.176 19.8889 142.469C13.487 138.63 7.57612 134.026 2.28679 128.758L1.25137 130.107C13.1744 137.543 27.482 138.422 40.8169 142.25C54.8844 146.593 68.152 153.195 80.1001 161.797C81.0101 162.425 81.8572 160.95 80.9787 160.323C69.2413 151.897 56.2489 145.374 42.4799 140.995C29.0194 136.916 14.2412 136.226 2.09853 128.601C2.00994 128.533 1.90883 128.483 1.80097 128.454C1.6931 128.425 1.5806 128.418 1.46989 128.433C1.35917 128.447 1.25241 128.483 1.1557 128.539C1.05898 128.595 0.974215 128.669 0.906228 128.758C0.838241 128.847 0.78837 128.948 0.75946 129.055C0.73055 129.163 0.723168 129.276 0.737736 129.387C0.767157 129.61 0.884197 129.813 1.06311 129.95C10.3719 138.932 21.3085 146.057 33.2866 150.941C39.1594 153.39 45.1735 155.486 51.2967 157.216C57.8543 159.162 64.5688 160.574 71.1265 162.488C74.9558 163.533 78.6514 165.017 82.1396 166.912C85.9198 169.161 89.5275 171.689 92.9331 174.473C93.4978 174.913 94.345 174.128 93.7489 173.657V173.783Z" fill="#F3F2F5"/>
<path d="M193.433 52.7646C188.349 59.7109 182.714 66.2373 176.584 72.2807C170.56 78.1795 164.034 83.4193 157.507 88.8161C145.028 99.2559 134.001 111.317 124.719 124.679C119.085 132.615 113.95 140.893 109.345 149.467C109.276 149.634 109.271 149.821 109.329 149.992C109.387 150.164 109.505 150.309 109.662 150.4C109.818 150.492 110.002 150.524 110.18 150.491C110.358 150.457 110.518 150.361 110.631 150.22C119.004 135.528 128.675 121.614 139.529 108.646C150.636 96.0954 163.814 85.7412 175.831 74.1319C182.491 67.704 188.483 60.6187 193.716 52.9843C193.716 52.9843 193.716 52.6705 193.433 52.9843V52.7646Z" fill="#F3F2F5"/>
<path d="M193.086 52.1064C189.101 56.2794 185.336 60.6093 180.943 64.4373C176.55 68.2652 171.938 71.7793 167.357 75.419C158.004 82.3933 149.571 90.5214 142.256 99.6102C138.084 105.036 134.418 110.834 131.306 116.93C130.803 117.871 132.215 118.718 132.717 117.777C138.256 106.926 145.538 97.0577 154.273 88.5657C162.525 80.5333 172.126 74.1639 180.88 66.6022C185.966 62.7231 190.349 58.0005 193.839 52.6398C193.883 52.5315 193.891 52.4116 193.86 52.2986C193.83 52.1856 193.763 52.0858 193.67 52.0144C193.578 51.9431 193.464 51.9042 193.347 51.9038C193.23 51.9034 193.116 51.9415 193.023 52.0122L193.086 52.1064Z" fill="#F3F2F5"/>
<path d="M192.52 54.083C188.033 60.5152 183.578 67.0101 178.934 73.3167C174.643 79.5541 169.571 85.2165 163.842 90.1658C158.132 94.8723 151.794 98.7629 146.052 103.407C143.228 105.666 140.498 108.019 137.862 110.466C134.945 112.981 132.228 115.719 129.736 118.656C129.592 118.825 129.518 119.043 129.528 119.265C129.539 119.488 129.633 119.698 129.793 119.853C129.952 120.008 130.164 120.097 130.387 120.102C130.609 120.107 130.825 120.027 130.991 119.879C133.878 117.369 136.45 114.482 139.274 111.878C142.098 109.274 145.048 106.795 148.06 104.411C153.77 99.8611 160.045 95.7194 165.63 91.1071C171.06 86.327 175.848 80.8639 179.875 74.8541C184.55 68.2651 189.006 61.5506 193.053 54.5537C193.242 54.2085 192.74 53.9575 192.52 54.2399V54.083Z" fill="#F3F2F5"/>
<path d="M192.711 52.8894C182.106 61.8944 168.143 65.44 157.099 73.9116C147.002 82.1384 139.065 92.7038 133.974 104.692C130.837 111.532 129.017 119.188 124.781 125.494C124.405 126.09 125.252 126.718 125.754 126.247C130.366 121.604 131.747 114.293 134.257 108.457C136.835 102.407 139.987 96.6176 143.67 91.1686C147.351 85.6607 151.775 80.6877 156.816 76.3903C162.244 72.0759 168.15 68.4015 174.419 65.44C181.276 62.3084 187.622 58.1621 193.244 53.1404C193.244 53.1404 193.244 52.7325 192.962 52.8894H192.711Z" fill="#F3F2F5"/>
<path d="M134.944 104.473C137.611 98.6545 139.277 92.4276 139.87 86.0548C140.498 79.4972 140.404 72.9081 141.219 66.3505C141.932 59.7383 144.189 53.3862 147.808 47.807C151.447 42.649 155.542 37.8289 160.045 33.4053L158.947 32.5581C155.175 40.9911 152.486 49.8681 150.946 58.977C149.44 68.0762 148.907 77.1125 145.675 85.8666C145.361 86.6823 146.71 87.2471 147.087 86.4627C150.946 78.4304 150.977 69.0488 152.233 60.4203C153.558 51.0432 156.187 41.8973 160.045 33.2484C160.359 32.5895 159.543 31.8051 158.947 32.4012C154.452 36.7373 150.337 41.4505 146.648 46.4892C143.089 51.6433 140.73 57.5294 139.745 63.7148C138.741 70.1784 138.803 76.736 138.396 83.2623C137.98 90.4156 136.587 97.4782 134.254 104.253C134.254 104.567 134.662 104.786 134.787 104.473H134.944Z" fill="#F3F2F5"/>
<path d="M92.8398 1.55778C94.5028 11.7551 99.1151 21.419 102.253 31.2712C103.947 36.762 104.857 42.4725 106.332 48.0262C108.665 55.3919 110.047 63.0261 110.442 70.7426C110.914 79.7505 112.079 88.7087 113.925 97.538C113.925 98.448 115.462 98.0401 115.337 97.1302C113.564 88.8616 112.421 80.4705 111.917 72.0291C111.763 64.724 110.623 57.4733 108.528 50.4735C106.928 44.5748 105.861 38.5191 104.167 32.6517C102.598 27.3178 100.684 22.1093 98.8641 16.9636C97.0443 11.8178 94.9107 6.60937 93.4987 1.27539C93.4987 0.930248 92.934 1.08713 92.9967 1.43227L92.8398 1.55778Z" fill="#F3F2F5"/>
<path d="M92.6506 1.15056C98.2042 10.4066 103.915 19.5685 108.747 29.3893C111.327 34.4097 113.428 39.6624 115.022 45.0775C116.915 52.9523 117.718 61.0499 117.407 69.1431C117.485 73.6476 117.296 78.1528 116.842 82.635C116.277 87.5297 115.085 92.2047 114.081 97.0053C114.035 97.1759 114.059 97.3577 114.147 97.5107C114.235 97.6637 114.381 97.7753 114.551 97.8211C114.722 97.8669 114.904 97.843 115.057 97.7547C115.21 97.6665 115.321 97.5211 115.367 97.3505C117.665 89.4035 118.868 81.1804 118.944 72.9083C119.36 64.7602 118.844 56.5912 117.407 48.5602C114.269 36.7634 109.304 25.5306 102.691 15.2699C99.869 10.2105 96.6479 5.38414 93.0585 0.836801C92.8703 0.617167 92.4937 0.836801 92.6506 1.15056Z" fill="#F3F2F5"/>
<path d="M92.6836 2.21739C93.3058 6.18031 93.5056 10.1981 93.2798 14.2032C93.2798 16.9643 93.468 19.7568 93.719 22.5493C94.2838 28.8245 95.1937 35.0998 96.2919 41.3751C98.3648 53.8281 101.579 66.0642 105.893 77.9285C107.368 81.8819 108.811 85.8667 110.035 89.9143C111.258 93.9618 112.106 98.0408 113.172 102.026C113.214 102.188 113.318 102.327 113.462 102.412C113.607 102.498 113.779 102.522 113.941 102.481C114.103 102.439 114.242 102.335 114.328 102.19C114.413 102.046 114.438 101.874 114.396 101.712C111.604 88.2514 105.83 75.7636 102.285 62.5541C98.8395 49.7876 96.4159 36.7672 95.0368 23.6161C94.7231 20.4784 94.5348 17.4977 94.4407 14.4228C94.5477 10.2741 94.1153 6.12913 93.1542 2.09189C93.1364 2.04385 93.1043 2.00242 93.0622 1.97316C93.0202 1.9439 92.9702 1.92822 92.9189 1.92822C92.8677 1.92822 92.8177 1.9439 92.7756 1.97316C92.7335 2.00242 92.7014 2.04385 92.6836 2.09189V2.21739Z" fill="#F3F2F5"/>
<path d="M94.9102 10.3447C95.1925 18.2202 98.0478 25.8446 99.5225 33.5319C100.652 39.8071 101.405 46.302 102.503 52.6401C103.577 59.8321 105.193 66.9329 107.335 73.8818C108.559 77.5843 110.065 81.1925 111.383 84.8636C112.664 88.6446 113.712 92.5007 114.52 96.4101C114.564 96.5418 114.653 96.6541 114.771 96.7276C114.888 96.8011 115.028 96.8311 115.166 96.8125C115.303 96.7939 115.43 96.7278 115.524 96.6257C115.618 96.5236 115.674 96.3919 115.681 96.2532C115.681 89.7269 112.544 83.1692 110.253 77.145C107.836 70.3493 106.01 63.3578 104.794 56.2483C103.476 49.1259 102.252 41.9407 101.185 34.7869C100.494 30.9854 99.5929 27.225 98.4871 23.5228C97.064 19.2108 95.9319 14.8083 95.0984 10.3447H94.9102Z" fill="#F3F2F5"/>
<path d="M111.698 93.6168C109.438 87.6458 106.026 82.177 101.658 77.5208C97.167 72.2034 92.3575 67.1634 87.2561 62.4287C81.9206 57.5669 76.8908 52.3799 72.1954 46.8974C67.8797 41.0291 64.6882 34.4121 62.7825 27.3813L61.4961 27.9147C64.2459 32.4327 67.4755 36.6406 71.1286 40.4653C75.1234 44.2823 79.4495 47.7368 84.0557 50.7881C93.2266 57.1493 100.459 65.9236 104.952 76.1402C105.36 77.0815 106.898 76.6736 106.49 75.7323C102.396 66.1946 95.9118 57.8735 87.664 51.5725C82.8634 47.9015 77.7177 44.7325 73.2622 40.6222C69.0634 36.7561 65.5237 32.2307 62.7825 27.2245C62.406 26.5028 61.3392 27.0048 61.5275 27.7579C63.015 34.3859 65.7749 40.6621 69.6539 46.2385C74.0752 51.7843 78.9332 56.9675 84.1812 61.7384C89.3269 66.7273 94.5668 71.622 99.3046 76.9874C101.67 79.6044 103.851 82.3826 105.831 85.3021C107.682 88.0632 109.157 91.0753 111.008 93.8678C111.228 94.1502 111.73 93.8678 111.636 93.6168H111.698Z" fill="#F3F2F5"/>
<path d="M85.059 161.548C85.0959 154.702 84.6134 147.863 83.6157 141.091C82.8432 134.532 81.4136 128.067 79.3485 121.794C77.2149 115.833 73.5752 110.781 70.9082 105.102C68.4435 98.8675 66.8594 92.3201 66.2018 85.6485C66.2018 85.1465 65.2605 85.1465 65.1664 85.6485C62.662 98.12 63.7501 111.046 68.304 122.924C69.4022 125.81 70.7514 128.571 72.0378 131.395C73.3704 134.694 74.3588 138.122 74.9872 141.624C76.5266 147.904 79.0129 153.914 82.3606 159.446C82.7371 160.105 83.6157 159.446 83.3333 158.881C80.3237 153.018 77.9062 146.869 76.1167 140.526C75.6426 137.58 74.8753 134.69 73.8262 131.897C72.6026 128.948 71.0965 126.093 69.9042 123.112C64.8448 111.38 63.5511 98.3667 66.2018 85.8681L65.135 85.7112C65.3998 92.1288 66.7251 98.4582 69.057 104.443C71.5358 110.248 75.5206 115.236 77.811 121.135C82.7685 133.874 83.5215 148.056 84.4001 161.548C84.4244 161.633 84.4759 161.708 84.5466 161.761C84.6174 161.815 84.7036 161.844 84.7923 161.844C84.8809 161.844 84.9672 161.815 85.0379 161.761C85.1087 161.708 85.1601 161.633 85.1845 161.548H85.059Z" fill="#F3F2F5"/>
<path d="M196.57 358.681C196.916 331.135 204.911 304.227 219.663 280.962L218.345 280.177C215.615 284.821 215.866 290.375 215.207 295.552C214.52 301.92 213.292 308.218 211.536 314.378C208.399 325.202 203.316 335.18 199.77 345.754C197.703 351.109 196.639 356.8 196.633 362.54C196.633 362.757 196.719 362.964 196.872 363.117C197.025 363.27 197.232 363.356 197.448 363.356C197.665 363.356 197.872 363.27 198.025 363.117C198.178 362.964 198.264 362.757 198.264 362.54C198.766 349.174 205.261 337.063 209.905 324.889C212.64 317.705 214.638 310.262 215.866 302.674C216.463 299.003 216.87 295.332 217.153 291.63C217.113 287.934 217.94 284.28 219.569 280.962C219.62 280.875 219.654 280.779 219.669 280.68C219.683 280.58 219.678 280.479 219.653 280.381C219.628 280.283 219.585 280.192 219.524 280.111C219.464 280.03 219.389 279.962 219.302 279.911C219.216 279.859 219.12 279.825 219.02 279.811C218.92 279.796 218.819 279.802 218.721 279.826C218.624 279.851 218.532 279.895 218.451 279.955C218.371 280.015 218.303 280.091 218.251 280.177C210.959 291.741 205.29 304.252 201.402 317.358C197.214 330.723 195.211 344.677 195.472 358.681C195.502 358.812 195.576 358.929 195.682 359.012C195.787 359.096 195.918 359.141 196.052 359.141C196.187 359.141 196.317 359.096 196.423 359.012C196.528 358.929 196.602 358.812 196.633 358.681H196.57Z" fill="#F3F2F5"/>
</svg>
