<svg width="332" height="352" viewBox="0 0 332 352" fill="none" xmlns="http://www.w3.org/2000/svg">
<path d="M71.8119 286.414C76.9168 281.804 83.5837 279.366 88.7649 274.985C93.8929 270.35 98.3089 264.984 101.87 259.06C107.758 248.876 111.808 237.734 113.832 226.145C115.002 222.449 115.211 218.516 114.442 214.716C113.299 211.44 109.985 211.782 107.775 213.802C104.567 217.271 102.092 221.353 100.499 225.802C97.7571 231.887 95.3534 238.119 93.2984 244.469C88.4601 259.327 83.4695 275.289 70.669 285.233C69.6404 285.995 71.0119 287.785 72.0405 287.023C81.7932 279.709 87.2791 268.737 91.4317 257.536C95.1189 245.879 99.4431 234.433 104.385 223.249C105.108 221.764 109.413 212.849 112.004 214.906C112.88 215.63 112.69 217.725 112.69 218.716C112.613 220.806 112.345 222.885 111.89 224.926C110.177 235.56 106.769 245.85 101.794 255.403C98.1819 262.014 93.5394 268.007 88.041 273.156C82.8218 277.956 76.0025 280.775 71.2404 285.957C71.178 286.052 71.1503 286.166 71.1619 286.279C71.1736 286.392 71.2239 286.498 71.3044 286.578C71.3849 286.659 71.4907 286.709 71.6039 286.721C71.7172 286.732 71.831 286.705 71.9262 286.642L71.8119 286.414Z" fill="#F3F2F5"/>
<path d="M71.1969 285.617C63.0061 290.76 60.3393 299.789 56.7202 308.208C54.7391 312.818 52.6819 317.427 50.3199 321.885C47.6921 326.608 44.5352 331.018 40.9101 335.028C40.2624 335.752 41.1005 337.047 41.9387 336.399C49.9009 330.723 53.8248 320.437 57.6345 311.789C61.4441 303.141 63.6156 292.512 71.7302 286.531C72.2255 286.15 71.7302 285.274 71.1969 285.617Z" fill="#F3F2F5"/>
<path d="M76.2296 262.795C74.4517 269.82 71.5714 276.52 67.696 282.643C65.8337 285.526 64.1664 288.529 62.7053 291.634C62.0549 293.127 61.4827 294.653 60.991 296.206C60.369 297.538 60.0938 299.006 60.1909 300.473C60.2212 300.585 60.2811 300.687 60.3644 300.768C60.4477 300.849 60.5513 300.906 60.6643 300.933C60.7773 300.961 60.8955 300.957 61.0066 300.923C61.1177 300.889 61.2176 300.825 61.2957 300.739C62.0467 299.488 62.5511 298.104 62.7815 296.663C63.2768 294.949 63.8863 293.31 64.4958 291.634C65.8205 288.307 67.4665 285.117 69.4103 282.11C73.122 276.264 75.5863 269.714 76.6487 262.871C76.6487 262.821 76.6286 262.772 76.5929 262.736C76.5572 262.701 76.5087 262.681 76.4582 262.681C76.4077 262.681 76.3592 262.701 76.3235 262.736C76.2878 262.772 76.2677 262.821 76.2677 262.871L76.2296 262.795Z" fill="#F3F2F5"/>
<path d="M75.3931 268.812C84.1553 244.469 98.8225 218.563 92.2699 191.971C91.3175 188.162 88.6507 175.361 82.3267 176.733C77.6408 177.838 77.5265 183.857 77.717 187.628C78.1361 195.705 77.5265 203.896 77.3741 212.01C77.1455 221.191 77.3741 230.373 77.1074 239.592C76.8088 249.246 75.9566 258.875 74.555 268.431C74.5504 268.596 74.6022 268.758 74.7018 268.889C74.8015 269.02 74.943 269.114 75.103 269.154C75.2629 269.194 75.4317 269.178 75.5815 269.109C75.7312 269.04 75.8529 268.922 75.9264 268.774C80.0409 254.412 79.5075 238.83 79.5456 224.049C79.5456 216.429 79.7742 208.467 80.0028 200.695C80.0028 197.229 80.1933 193.8 80.0028 190.333C79.6399 187.519 79.717 184.666 80.2314 181.876C80.6504 180.619 81.8314 178.638 83.4315 179.018C85.0315 179.399 85.4887 180.847 86.0602 181.8C87.8019 185.088 89.0837 188.601 89.8698 192.238C92.1171 201.797 92.1171 211.747 89.8698 221.306C86.403 237.497 78.4408 252.355 74.9359 268.546C74.9359 268.774 75.2026 268.85 75.2788 268.546L75.3931 268.812Z" fill="#F3F2F5"/>
<path d="M60.4182 226.034C61.821 237.406 62.3559 248.868 62.0182 260.321C61.7896 264.74 61.3706 269.159 61.0277 273.617C60.6086 278.95 60.4563 284.322 59.9229 289.655C59.5419 293.465 58.9324 297.046 58.2086 300.703C57.317 303.759 56.6674 306.88 56.2656 310.037C56.2656 310.913 57.3704 311.104 57.8276 310.456C59.1751 307.963 60.0289 305.234 60.342 302.418C60.9515 299.332 61.4468 296.208 61.7896 293.046C62.4373 287.331 62.3611 281.617 62.7421 275.826C63.6179 266.596 63.9614 257.323 63.7707 248.054C63.3384 240.596 62.4862 233.168 61.2182 225.805C61.2182 225.348 60.3801 225.463 60.4182 225.805V226.034Z" fill="#F3F2F5"/>
<path d="M62.0593 232.509C62.6689 225.195 62.8594 217.88 63.6975 210.604C64.5356 203.327 65.6785 196.774 66.5547 189.803C67.5258 182.897 67.641 175.898 66.8976 168.964C66.6892 164.307 65.6035 159.732 63.6975 155.478C62.2879 153.078 59.3545 151.668 57.3353 154.221C55.7353 156.901 54.8316 159.94 54.7067 163.059C53.8305 169.573 53.1447 176.088 52.6876 182.641C51.9641 189.767 51.8494 196.943 52.3447 204.089C53.0192 209.708 54.2965 215.239 56.1543 220.585C57.7925 225.766 59.3926 231.061 61.526 236.09C61.8307 236.814 62.9355 236.09 62.7451 235.557C60.4212 226.833 57.4115 218.337 55.5829 209.461C53.1447 197.727 54.6686 185.079 55.7734 173.269C56.0704 168.772 56.6173 164.295 57.4115 159.859C57.5735 158.404 58.0132 156.995 58.7068 155.706C60.2688 153.497 61.945 156.087 62.5165 157.764C63.2059 159.697 63.6662 161.704 63.888 163.745C64.3451 166.335 64.8404 168.888 65.069 171.554C65.4948 177.782 65.2906 184.036 64.4594 190.222C62.8213 204.203 59.9259 218.299 60.9926 232.471C60.9926 232.602 61.0448 232.728 61.1377 232.821C61.2306 232.914 61.3565 232.966 61.4879 232.966C61.6192 232.966 61.7452 232.914 61.8381 232.821C61.931 232.728 61.9831 232.602 61.9831 232.471L62.0593 232.509Z" fill="#F3F2F5"/>
<path d="M232.85 255.253C226.031 257.234 219.973 261.043 213.192 263.1C205.808 264.995 198.163 265.664 190.563 265.081C182.943 264.853 175.667 264.51 168.238 265.081C161.011 265.568 153.838 266.651 146.79 268.32C138.745 270.072 130.896 272.625 123.36 275.939C122.141 276.51 123.017 278.682 124.313 278.187C138.039 272.457 152.553 268.835 167.362 267.443C174.798 267.043 182.25 267.043 189.686 267.443C196.746 267.9 203.835 267.296 210.716 265.653C218.602 263.405 225.307 258.567 233.231 255.9C233.303 255.864 233.36 255.804 233.392 255.73C233.424 255.657 233.429 255.574 233.407 255.497C233.384 255.419 233.335 255.353 233.268 255.308C233.201 255.263 233.12 255.244 233.04 255.253H232.85Z" fill="#F3F2F5"/>
<path d="M148.345 186.183C148.318 202.001 146.008 217.732 141.488 232.89C139.218 240.471 136.378 247.87 132.992 255.024C129.601 262.186 125.373 268.701 121.563 275.558C120.763 276.967 122.82 278.72 123.925 277.348C128.658 270.905 132.586 263.906 135.621 256.51C138.934 249.204 141.709 241.666 143.926 233.956C148.593 218.487 150.451 202.307 149.412 186.183C149.412 185.536 148.345 185.497 148.345 186.183Z" fill="#F3F2F5"/>
<path d="M253.762 103.472C234.712 146.001 209.176 185.315 178.064 220.01C146.819 254.722 111.532 285.571 72.9558 311.899C61.9044 319.705 50.4604 326.941 38.6688 333.576C32.7109 336.954 26.5677 339.994 20.2681 342.681C14.2489 345.196 8.00102 347.1 1.82936 349.158C0.381691 349.653 0.534078 352.167 2.21033 351.977C13.6393 350.72 24.7254 345.272 34.8211 340.053C45.8158 334.314 56.4747 327.955 66.746 321.004C86.257 307.897 105.053 293.756 123.053 278.641C159.519 248.454 191.487 213.215 217.99 173.989C232.698 151.971 245.094 128.493 254.982 103.93C255.248 103.32 254.181 102.863 253.915 103.472H253.762Z" fill="#F3F2F5"/>
<path d="M221.264 260.355C227.47 258.394 233.541 256.027 239.436 253.269C245.379 250.716 251.208 247.973 256.884 244.887C265.951 239.859 276.923 234.297 282.104 224.887C282.981 223.287 283.819 221.077 281.609 220.163C278.945 219.659 276.191 219.992 273.723 221.115C265.889 223.886 258.478 227.732 251.703 232.544C239.969 239.791 229.516 248.931 220.769 259.593C219.74 260.85 221.569 262.679 222.597 261.383C229.417 252.653 237.463 244.955 246.484 238.525C251.056 235.287 255.818 232.239 260.58 229.306C263.374 227.496 266.304 225.904 269.342 224.544C271.971 223.386 274.7 222.468 277.495 221.801C278.572 221.43 279.725 221.339 280.847 221.534C282.295 222.106 280.847 223.782 280.428 224.734C275.361 233.344 265.189 238.487 256.961 243.249C251.33 246.395 245.544 249.256 239.627 251.821C233.493 254.526 226.979 256.659 221.035 259.745C220.96 259.775 220.899 259.835 220.867 259.91C220.835 259.985 220.834 260.069 220.864 260.145C220.894 260.221 220.953 260.282 221.029 260.314C221.104 260.346 221.188 260.347 221.264 260.317V260.355Z" fill="#F3F2F5"/>
<path d="M207.051 269.156C219.89 274.642 234.633 273.499 248.043 271.328C263.282 268.814 278.521 264.051 294.178 263.442C298.636 263.442 306.255 262.947 306.941 269.042C307.626 275.138 299.321 277.842 295.016 279.404C280.273 284.586 264.539 282.947 249.3 280.7C242.177 279.437 235.188 277.511 228.423 274.947C221.694 272.025 214.737 269.655 207.623 267.861C206.708 267.861 205.985 268.966 206.937 269.461C213.178 272.444 219.62 274.99 226.214 277.08C232.83 279.578 239.632 281.553 246.557 282.985C254.296 284.383 262.127 285.211 269.987 285.462C278.169 285.844 286.354 284.799 294.178 282.376C299.359 280.7 306.407 278.566 308.845 273.118C309.616 271.386 309.768 269.441 309.276 267.61C308.783 265.779 307.677 264.173 306.141 263.061C304.129 261.699 301.751 260.981 299.321 261.004C295.082 260.877 290.839 261.094 286.635 261.651C278.521 262.604 270.52 264.318 262.52 266.071C253.456 268.257 244.253 269.823 234.976 270.756C225.779 271.514 216.521 270.65 207.623 268.204C207.089 268.204 206.67 268.928 207.204 269.156H207.051Z" fill="#F3F2F5"/>
<path d="M216.083 271.137C210.086 267.566 203.251 265.647 196.272 265.575C192.463 265.232 188.653 264.927 184.577 264.813H178.71C176.785 264.615 174.839 264.743 172.957 265.194C172.738 265.268 172.547 265.408 172.411 265.596C172.276 265.784 172.203 266.01 172.203 266.242C172.203 266.473 172.276 266.699 172.411 266.887C172.547 267.075 172.738 267.216 172.957 267.289C174.712 267.646 176.51 267.736 178.291 267.556H184.158C187.967 267.556 191.396 267.785 195.015 268.051C198.524 268.202 202.021 268.545 205.492 269.08C208.955 269.834 212.326 270.958 215.549 272.433C216.349 272.775 216.692 271.594 216.083 271.137Z" fill="#F3F2F5"/>
<path d="M163.776 285.575C174.976 293.765 189.491 297.956 202.749 300.47C216.802 302.983 231.03 304.397 245.303 304.699C249.684 304.699 256.313 306.185 258.484 310.604C258.94 311.877 258.95 313.267 258.515 314.547C258.079 315.827 257.222 316.922 256.084 317.652C253.433 319.501 250.246 320.425 247.017 320.281C240.241 320.619 233.449 320.249 226.75 319.176C219.15 317.721 211.72 315.487 204.578 312.509C197.498 309.751 190.73 306.252 184.386 302.071C178.005 297.668 172.338 292.31 167.586 286.184C166.786 285.232 165.224 286.489 165.871 287.518C173.491 299.785 187.053 307.785 200.158 313.385C207.407 316.628 214.945 319.179 222.673 321.005C230.064 322.438 237.586 323.077 245.112 322.909C250.941 322.909 257.265 321.957 260.351 316.471C260.9 315.543 261.245 314.508 261.365 313.436C261.484 312.365 261.374 311.28 261.043 310.253C260.712 309.227 260.166 308.283 259.443 307.483C258.719 306.683 257.834 306.046 256.846 305.614C251.589 302.299 245.417 302.451 239.626 302.185C231.664 301.842 223.664 301.271 215.74 300.318C206.876 299.333 198.109 297.612 189.529 295.175C180.793 292.481 172.304 289.039 164.157 284.889C164.108 284.84 164.048 284.804 163.983 284.781C163.917 284.759 163.847 284.752 163.779 284.761C163.71 284.77 163.644 284.794 163.586 284.832C163.528 284.869 163.48 284.92 163.444 284.979C163.408 285.039 163.387 285.105 163.381 285.174C163.375 285.243 163.384 285.313 163.409 285.377C163.433 285.442 163.472 285.5 163.523 285.548C163.573 285.595 163.634 285.63 163.7 285.651L163.776 285.575Z" fill="#F3F2F5"/>
<path d="M168.463 287.367C165.023 284.052 160.864 281.575 156.311 280.129C151.68 278.322 146.821 277.168 141.872 276.7C137.053 276.274 132.199 276.479 127.433 277.31C122.497 277.71 117.753 279.405 113.68 282.224C112.804 282.986 113.68 284.053 114.671 283.939C116.829 283.401 118.943 282.701 120.995 281.843C123.226 281.116 125.504 280.543 127.814 280.129C132.429 279.324 137.128 279.119 141.796 279.519C146.374 279.922 150.889 280.868 155.244 282.339C157.622 283.136 159.939 284.104 162.177 285.234C164.029 286.335 165.937 287.339 167.892 288.244C168.425 288.244 168.692 287.71 168.387 287.367H168.463Z" fill="#F3F2F5"/>
<path d="M149.144 188.888C152.116 179.097 154.173 169.116 156.459 159.173C158.714 150.41 160.344 141.499 161.335 132.505C161.73 127.651 161.564 122.768 160.84 117.952C160.268 114.371 159.164 109.571 155.583 107.78C152.001 105.99 147.354 108.656 144.954 111.361C142.549 114.473 141.058 118.193 140.649 122.105C139.32 133.53 139.731 145.09 141.868 156.392C143.43 167.325 145.677 178.107 147.849 188.964C147.849 189.878 149.525 189.688 149.487 188.964C148.878 180.507 146.896 172.202 145.677 163.897C143.574 152.896 142.49 141.724 142.439 130.524C142.439 123.514 143.43 111.285 152.382 109.685C156.535 108.961 157.983 114.066 158.668 117.304C159.543 121.961 159.812 126.712 159.468 131.438C158.689 140.281 157.198 149.046 155.011 157.649C152.649 168.087 150.02 178.45 148.42 189.002C148.39 189.113 148.405 189.232 148.462 189.332C148.519 189.432 148.614 189.505 148.725 189.536C148.836 189.566 148.955 189.551 149.055 189.494C149.155 189.437 149.228 189.342 149.258 189.231L149.144 188.888Z" fill="#F3F2F5"/>
<path d="M157.644 193.803C154.427 198.612 151.671 203.714 149.415 209.042C146.996 214.022 145.401 219.361 144.691 224.852C144.691 225.385 145.491 225.461 145.644 224.852C148.439 214.054 152.926 203.768 158.94 194.375C159.359 193.689 158.292 193.079 157.835 193.727L157.644 193.803Z" fill="#F3F2F5"/>
<path d="M155.203 199.591C160.158 194.173 165.397 189.022 170.899 184.162C176.391 179.016 181.055 173.053 184.728 166.485C188.378 159.561 191.486 152.364 194.024 144.96C197.072 138.303 198.743 131.098 198.938 123.778C198.938 119.969 198.024 113.264 193.681 111.816C190.747 110.826 188.576 113.873 187.281 116.045C185.264 119.666 183.654 123.499 182.481 127.474L177.909 141.874C175.052 150.751 172.271 159.703 169.109 168.542C165.755 177.483 161.94 186.244 157.68 194.79C157.603 194.97 157.594 195.171 157.656 195.356C157.717 195.541 157.844 195.698 158.012 195.796C158.181 195.894 158.379 195.928 158.57 195.89C158.762 195.852 158.933 195.746 159.051 195.591C162.931 189.447 166.088 182.876 168.461 176.009C171.204 169.037 173.528 161.913 175.814 154.789C179.09 144.579 181.909 134.217 185.49 124.312C186.388 120.642 188.181 117.252 190.709 114.445C194.824 110.978 196.576 120.197 196.767 122.674C196.975 129.502 195.674 136.292 192.957 142.56C190.534 149.664 187.645 156.6 184.309 163.323C180.593 170.652 175.644 177.289 169.68 182.942C164.423 187.933 158.251 192.657 154.441 199.134C154.441 199.514 154.746 199.934 155.051 199.591H155.203Z" fill="#F3F2F5"/>
<path d="M138.899 201.115C138.671 210.448 138.671 219.782 137.718 229.077C136.562 238.558 134.832 247.96 132.537 257.231C132.525 257.408 132.575 257.583 132.678 257.728C132.781 257.872 132.932 257.975 133.103 258.02C133.275 258.066 133.457 258.049 133.617 257.975C133.778 257.9 133.908 257.772 133.985 257.612C136.802 248.611 138.679 239.342 139.585 229.954C140.899 220.392 141.014 210.704 139.928 201.115C139.928 200.505 138.899 200.429 138.899 201.115Z" fill="#F3F2F5"/>
<path d="M140.536 208.468C139.965 200.732 139.965 192.965 140.536 185.229C140.708 177.674 140.249 170.117 139.165 162.638C137.988 155.094 136.126 147.672 133.603 140.466C132.335 135.227 130.085 130.276 126.974 125.875C124.955 123.627 121.336 122.294 119.583 125.532C118.357 128.803 118.054 132.348 118.707 135.78C119.851 147.378 122.634 158.755 126.974 169.572C129.145 175.172 131.507 180.696 133.45 186.372C135.854 193.614 137.826 200.993 139.355 208.468C139.355 209.078 140.574 208.964 140.498 208.468C139.079 197.163 136.092 186.11 131.622 175.629C127.74 166.108 124.694 156.267 122.517 146.218C121.469 141.642 120.895 136.969 120.802 132.275C120.802 129.837 121.031 123.818 124.612 127.132C126.329 128.921 127.63 131.068 128.422 133.418C129.45 136.008 130.403 138.637 131.355 141.266C133.609 147.715 135.316 154.341 136.46 161.076C137.799 168.901 138.398 176.835 138.251 184.772C137.746 192.741 138.142 200.741 139.432 208.621C139.432 209.306 140.689 209.154 140.613 208.621L140.536 208.468Z" fill="#F3F2F5"/>
<path d="M214.519 211.328C205.306 212.672 196.255 214.957 187.508 218.147C183.891 219.628 180.442 221.493 177.222 223.71C173.813 225.627 170.923 228.347 168.803 231.634C168.46 232.358 169.222 233.424 170.06 232.853C171.424 231.68 172.697 230.407 173.87 229.043C175.417 227.586 177.072 226.249 178.822 225.043C181.995 222.903 185.363 221.066 188.88 219.557C197.143 216.184 205.718 213.632 214.481 211.938C214.976 211.938 214.786 211.1 214.481 211.176L214.519 211.328Z" fill="#F3F2F5"/>
<path d="M209.759 213.725C222.443 209.693 234.555 204.047 245.798 196.925C256.215 190.646 265.448 182.587 273.076 173.114C275.361 170.143 280.695 160.466 285.762 164.619C290.829 168.771 286.828 177.724 284.314 181.953C277.8 192.925 264.809 199.287 253.265 203.592C246.197 206.127 238.968 208.189 231.626 209.763C223.509 211.778 215.14 212.587 206.787 212.163C205.264 212.163 205.264 214.449 206.787 214.564C214.462 214.954 222.153 214.288 229.645 212.583C237.073 211.081 244.391 209.083 251.551 206.601C263.589 202.258 276.923 195.858 284.428 185.039C288.016 180.364 289.765 174.535 289.343 168.657C288.695 164.2 285.076 161.038 280.619 162.943C278.593 163.889 276.837 165.33 275.514 167.133C273.418 169.914 271.437 172.733 269.152 175.362C264.469 180.783 259.22 185.687 253.494 189.991C246.909 194.829 239.925 199.098 232.617 202.754C224.998 206.563 217.188 209.725 209.492 213.268C209.149 213.268 209.492 213.992 209.759 213.878V213.725Z" fill="#F3F2F5"/>
<path d="M249.304 162.369C245.378 165.535 241.283 168.486 237.037 171.208C232.504 173.801 227.779 176.043 222.903 177.913C218.371 179.769 214.064 182.133 210.064 184.961C206.224 187.452 202.9 190.659 200.274 194.409C200.214 194.484 200.169 194.57 200.142 194.662C200.115 194.754 200.107 194.851 200.118 194.947C200.128 195.042 200.158 195.135 200.204 195.219C200.25 195.303 200.313 195.377 200.388 195.437C200.463 195.497 200.549 195.542 200.641 195.569C200.734 195.595 200.83 195.604 200.926 195.593C201.021 195.582 201.114 195.553 201.198 195.507C201.282 195.46 201.357 195.398 201.417 195.323C203.131 193.837 204.54 192.008 206.179 190.447C208.079 188.663 210.117 187.033 212.274 185.57C216.393 182.816 220.769 180.469 225.341 178.56C229.906 176.735 234.303 174.517 238.485 171.932C242.473 169.224 246.29 166.272 249.914 163.093C250.371 162.674 249.723 161.836 249.228 162.217L249.304 162.369Z" fill="#F3F2F5"/>
<path d="M243.36 168.62C262.409 155.591 280.162 140.009 286.943 117.151C287.972 113.608 288.924 107.665 285.686 104.846C283.667 103.056 281.343 104.846 279.857 106.37C277.561 108.972 275.472 111.748 273.609 114.675C269.959 120.036 266.651 125.622 263.704 131.4C260.466 137.495 257.418 143.667 254.066 149.724C250.713 155.781 246.446 161.724 242.446 167.744C241.875 168.658 243.17 169.61 243.932 168.887C247.633 165.031 250.786 160.686 253.304 155.972C256.085 151.21 258.523 146.219 260.923 141.267C265.626 131.511 270.932 122.057 276.809 112.961C278.371 110.637 280.086 107.284 282.752 106.027C284.581 105.113 285.305 106.789 285.762 108.389C286.358 111.139 286.119 114.004 285.076 116.618C281.749 126.952 276.299 136.477 269.076 144.581C260.853 152.898 252.111 160.685 242.903 167.896C242.522 168.239 242.903 168.925 243.475 168.62H243.36Z" fill="#F3F2F5"/>
<path d="M199.97 170.41C198.13 174.997 195.952 179.441 193.455 183.706C190.979 187.896 188.236 191.973 186.102 196.354C184.164 200.691 182.46 205.129 180.997 209.649L178.483 216.659C177.332 218.956 176.634 221.452 176.426 224.012C176.426 224.659 177.34 225.155 177.835 224.583C179.053 222.767 179.919 220.738 180.388 218.602C181.226 216.126 182.026 213.611 182.826 210.983C184.31 205.88 186.156 200.889 188.35 196.049C190.483 191.82 192.998 187.82 195.207 183.629C197.402 179.41 199.237 175.013 200.693 170.486C200.693 170.029 200.16 169.876 199.97 170.486V170.41Z" fill="#F3F2F5"/>
<path d="M197.418 178.565C197.418 175.517 200.656 172.85 202.333 170.526C204.009 168.203 205.799 165.46 207.399 162.907C210.451 157.921 213.15 152.727 215.476 147.364C220.532 136.738 224.01 125.431 225.8 113.801C226.604 109.936 226.095 105.914 224.352 102.372C223.057 100.086 220.543 98.5619 218.181 100.048C216.72 101.151 215.662 102.704 215.171 104.467C214.077 107.445 213.211 110.501 212.581 113.61C211.323 119.629 210.638 125.725 209.495 131.782C208.199 138.563 206.218 145.268 204.428 151.973C202.637 158.678 200.161 166.069 198.485 173.231C198.485 174.031 199.552 174.641 199.932 173.803C201.971 168.601 203.614 163.252 204.847 157.802C206.333 152.164 207.742 146.373 209.19 140.887C211.933 130.335 212.428 119.401 215.209 108.886C215.857 106.41 216.543 102.753 219.019 101.267C221.495 99.781 222.638 102.067 223.438 103.819C224.985 108.337 225.079 113.227 223.705 117.801C222.585 123.254 221.018 128.606 219.019 133.801C217.19 138.944 215.209 144.049 213.076 149.04C210.658 154.384 207.87 159.552 204.733 164.507C203.171 166.983 201.494 169.384 199.818 171.746C198.915 172.637 198.197 173.699 197.707 174.869C197.216 176.04 196.963 177.296 196.961 178.565C196.961 178.832 197.418 178.832 197.418 178.565Z" fill="#F3F2F5"/>
<path d="M250.715 114.638C256.62 106.066 262.144 97.2275 268.163 88.6938C274.092 80.6682 279.198 72.0657 283.402 63.0167C287.13 54.2061 289.691 44.9466 291.021 35.4728C291.725 30.8526 292.183 26.1983 292.393 21.5295C292.707 18.4058 292.423 15.2509 291.555 12.2339C291.405 11.4773 291.072 10.769 290.585 10.1707C290.098 9.5725 289.473 9.10253 288.762 8.80189C288.052 8.50125 287.279 8.37909 286.511 8.44607C285.742 8.51306 285.002 8.76715 284.355 9.18615C280.416 11.9288 277.338 15.7338 275.478 20.158C273.081 25.5887 271.317 31.2771 270.221 37.111C268.468 44.4636 266.868 51.8544 265.23 59.207C263.059 68.6169 260.849 78.0268 258.182 87.2842C255.515 96.5417 252.468 105.19 249.268 113.952C248.963 114.79 250.296 115.361 250.677 114.561C257.725 100.923 261.306 85.3413 264.811 70.4836C268.011 56.9593 270.564 43.2445 274.107 29.7964C275.329 24.4678 277.637 19.4487 280.888 15.053C282.259 13.3006 286.45 8.27183 288.812 11.2434C290.028 13.5869 290.518 16.2393 290.221 18.8627C290.152 23.1359 289.795 27.3996 289.155 31.6251C288.103 40.9378 285.955 50.0937 282.754 58.9023C278.764 68.5137 273.648 77.6187 267.516 86.0271C260.931 94.9045 254.901 104.18 249.458 113.799C249.411 113.882 249.38 113.973 249.367 114.068C249.355 114.162 249.361 114.258 249.386 114.35C249.411 114.442 249.454 114.528 249.512 114.604C249.57 114.679 249.642 114.742 249.725 114.79C249.807 114.838 249.898 114.868 249.993 114.881C250.087 114.893 250.183 114.887 250.275 114.862C250.367 114.837 250.453 114.794 250.529 114.736C250.604 114.678 250.668 114.606 250.715 114.523V114.638Z" fill="#F3F2F5"/>
<path d="M314.565 72.5034C301.154 82.1038 285.84 88.5421 272.125 97.6472C266.729 101.118 261.8 105.267 257.458 109.991C253.648 114.41 249.838 119.134 246.295 123.896C242.476 128.643 239.121 133.746 236.276 139.134C236.179 139.349 236.165 139.593 236.237 139.817C236.309 140.042 236.461 140.232 236.665 140.35C236.869 140.469 237.11 140.507 237.34 140.459C237.571 140.41 237.775 140.278 237.914 140.087C244.429 130.944 250.676 121.61 257.915 113.038C267.096 102.181 279.858 95.1328 292.202 88.1611C300.183 83.7923 307.892 78.9451 315.288 73.6463C315.86 73.1892 315.288 72.2367 314.717 72.6558L314.565 72.5034Z" fill="#F3F2F5"/>
<path d="M301.532 82.2539C309.131 79.2367 316.547 75.7767 323.742 71.8916C330.848 68.5503 337.666 64.6256 344.124 60.1579C353.322 53.8035 360.523 44.9641 364.886 34.6712C366.182 31.5092 372.048 17.8706 364.62 17.8706C362.023 18.1898 359.609 19.3702 357.762 21.2231C355.382 23.1448 353.105 25.1923 350.943 27.3567C346.206 32.1724 341.753 37.2606 337.609 42.5953C328.45 54.7945 318.658 66.5062 308.275 77.6823C307.665 78.2919 308.541 79.0919 309.189 78.5966C318.523 71.3202 325.494 60.9579 332.618 51.6242C339.729 41.4956 347.819 32.0912 356.772 23.547C358.943 21.566 361.953 18.5563 365.039 19.0135C366.677 19.2421 367.096 20.6898 367.058 22.1755C366.708 26.0851 365.568 29.8828 363.705 33.3378C359.526 42.8643 352.966 51.1557 344.657 57.4149C338.142 62.1139 331.219 66.2194 323.97 69.682C316.351 73.4917 308.16 76.5394 301.113 81.111C300.579 81.492 301.113 82.4825 301.608 82.2539H301.532Z" fill="#F3F2F5"/>
<path d="M321.843 83.3193C312.395 87.8147 302.109 89.11 291.975 91.2434C287.408 92.0903 282.931 93.3658 278.603 95.0531C276.58 95.9055 274.62 96.8985 272.736 98.0246C270.843 98.8909 269.184 100.197 267.898 101.834C267.83 101.939 267.797 102.062 267.801 102.186C267.806 102.31 267.848 102.43 267.923 102.53C267.997 102.629 268.101 102.704 268.219 102.743C268.337 102.782 268.464 102.784 268.583 102.749C270.506 101.779 272.342 100.644 274.069 99.358C276.069 98.1588 278.158 97.1145 280.317 96.2341C284.824 94.4604 289.46 93.034 294.184 91.9672C303.731 90.1916 313.057 87.3812 321.995 83.586C322.3 83.586 321.995 82.9383 321.69 83.1288L321.843 83.3193Z" fill="#F3F2F5"/>
<path d="M318.07 85.5679C328.47 83.3202 338.109 79.0533 348.128 75.7008C356.955 73.3249 365.022 68.7203 371.557 62.3289C373.825 60.3477 375.367 57.6663 375.939 54.7096C375.939 54.026 375.803 53.3491 375.541 52.718C375.278 52.0869 374.893 51.5141 374.408 51.0324C373.922 50.5508 373.347 50.17 372.714 49.9119C372.081 49.6537 371.403 49.5234 370.719 49.5285C368.701 49.6999 366.748 50.325 365.005 51.3571C362.761 52.4151 360.586 53.6111 358.49 54.9382C354.245 57.6203 350.15 60.5327 346.223 63.6623C341.423 67.472 336.737 71.2816 331.861 75.0913C326.984 78.901 322.375 81.4534 317.536 84.5393C316.698 85.0726 317.232 86.5584 318.222 86.1774C326.261 83.244 333.461 76.9199 339.823 71.5864C346.879 65.4208 354.436 59.8523 362.414 54.9382C364.929 53.5286 372.396 49.0713 373.843 53.8715C374.643 56.6144 371.329 59.8907 369.614 61.4908C363.336 67.3469 355.766 71.6409 347.518 74.0246C337.537 77.4914 327.861 81.6439 317.689 84.7297C317.578 84.7601 317.483 84.8333 317.426 84.9333C317.369 85.0333 317.354 85.152 317.384 85.2631C317.414 85.3742 317.488 85.4688 317.588 85.5259C317.688 85.5831 317.806 85.5982 317.917 85.5679H318.07Z" fill="#F3F2F5"/>
<path d="M235.553 102.866C236.529 118.332 234.959 133.854 230.905 148.811C230.676 149.687 232.01 150.335 232.429 149.459C235.214 143.171 236.852 136.436 237.267 129.572C237.963 120.684 237.746 111.748 236.62 102.904C236.62 102.219 235.515 102.219 235.553 102.904V102.866Z" fill="#F3F2F5"/>
<path d="M236.157 102.026C235.427 90.1593 232.495 78.5322 227.509 67.7391C222.328 56.3101 216.08 45.643 213.87 33.1092C213.261 29.2996 212.118 21.6802 215.547 18.7087C218.975 15.7372 222.671 22.5184 223.928 24.9565C229.099 35.395 232.437 46.6451 233.795 58.2149C235.42 72.8222 235.904 87.534 235.242 102.217C235.242 102.94 236.271 102.902 236.347 102.217C237.56 87.5551 237.228 72.8069 235.357 58.2149C234.221 46.3059 230.97 34.695 225.756 23.9279C224.233 20.8421 221.947 16.3086 218.137 15.8134C214.327 15.3181 212.08 18.9754 211.432 22.366C210.654 28.0318 211.162 33.8 212.918 39.2428C214.807 45.699 217.361 51.9421 220.537 57.872C224.189 64.6035 227.371 71.5791 230.061 78.749C232.65 86.3351 234.487 94.157 235.547 102.102C235.547 102.521 236.233 102.559 236.233 102.102L236.157 102.026Z" fill="#F3F2F5"/>
<path d="M237.034 86.1394C238.33 82.3298 239.282 78.5201 240.616 74.7104C241.949 70.9008 243.625 66.672 245.301 62.7481C248.387 55.5478 251.664 48.4618 254.064 41.0711C256.725 33.4682 257.876 25.4191 257.454 17.375C257.073 12.7653 256.921 6.82223 254.102 2.97447C252.273 0.307708 249.416 -0.492322 247.663 2.32683C245.897 5.78491 244.872 9.57387 244.654 13.451C243.74 19.9656 243.092 26.5182 242.254 33.0327C241.301 40.233 240.387 47.4713 239.473 54.6716C238.406 63.6243 236.92 72.6151 236.387 81.644C236.393 81.7942 236.451 81.9376 236.552 82.0495C236.652 82.1615 236.788 82.235 236.937 82.2575C237.086 82.2801 237.237 82.2502 237.366 82.173C237.495 82.0958 237.594 81.9761 237.644 81.8345C239.092 74.7866 239.777 67.5864 240.654 60.4623C241.492 54.024 242.254 47.5475 243.016 41.1092C243.778 34.6709 244.616 27.4706 245.492 20.6513C245.987 16.8416 246.444 13.032 247.244 9.4509C247.587 8.00323 248.654 1.14583 251.054 2.82209C252.838 4.5437 253.924 6.86367 254.102 9.33661C254.538 11.7822 254.843 14.2493 255.016 16.7274C255.518 24.4702 254.495 32.2362 252.006 39.5853C249.492 47.4713 246.025 55.0526 242.825 62.6719C239.15 70.0222 236.815 77.9691 235.93 86.1394C235.955 86.2156 236.003 86.282 236.068 86.3291C236.133 86.3761 236.211 86.4014 236.292 86.4014C236.372 86.4014 236.45 86.3761 236.515 86.3291C236.58 86.282 236.628 86.2156 236.654 86.1394H237.034Z" fill="#F3F2F5"/>
</svg>
