<svg width="321" height="462" viewBox="0 0 321 462" fill="none" xmlns="http://www.w3.org/2000/svg">
<path d="M237.27 66.6765C212.034 115.757 179.803 160.701 150.505 207.638C135.866 230.625 122.652 254.49 110.939 279.097C98.9404 305.404 89.1532 332.665 81.6786 360.597C77.3535 376.431 73.5173 392.415 69.9444 408.474C66.3714 424.534 62.4224 440.593 60.241 456.84C60.0154 458.608 62.4976 459.436 62.9865 457.593C66.7475 443.489 69.3426 428.934 72.4642 414.642C75.5858 400.351 78.9331 385.984 82.6189 371.805C89.665 343.547 98.9075 315.882 110.262 289.063C132.076 238.854 162.916 193.497 192.327 147.462C209.203 121.554 224.524 94.6657 238.211 66.9398C238.511 66.338 237.609 65.7739 237.27 66.4133V66.6765Z" fill="#F3F2F5"/>
<path d="M61.5944 460.752C67.2158 450.973 75.0949 442.681 84.574 436.568C94.2197 430.133 103.338 422.939 111.841 415.056C119.655 407.105 126.788 398.512 133.166 389.368C139.801 380.174 145.879 370.592 151.369 360.672C157.607 349.52 162.313 337.578 165.36 325.168C165.42 324.872 165.376 324.563 165.236 324.295C165.095 324.027 164.867 323.816 164.588 323.696C164.31 323.577 163.999 323.557 163.708 323.64C163.417 323.724 163.164 323.905 162.99 324.153C156.368 333.511 148.807 342.169 140.425 349.991C131.699 358.516 122.999 367.078 114.323 375.678C106.012 383.99 97.5494 392.264 89.8394 401.178C82.8345 409.09 76.9846 417.953 72.4637 427.504C67.5785 438.062 63.358 448.915 59.8268 459.999C59.225 461.842 62.0081 462.519 62.6851 460.789C66.4461 450.935 69.7934 440.894 74.1937 431.265C78.538 421.49 84.2353 412.375 91.1181 404.186C98.6401 395.461 106.651 387.337 114.699 379.176C122.748 371.015 131.812 362.026 140.462 353.488C149.648 344.945 157.974 335.523 165.322 325.356L162.99 324.378C157.8 346.944 145.765 366.878 132.903 385.57C126.431 395.065 119.185 404.009 111.239 412.31C102.654 420.389 93.4493 427.784 83.709 434.425C74.3818 441.42 65.5435 449.469 60.9551 460.263C60.7294 460.789 61.632 461.165 61.8953 460.639L61.5944 460.752Z" fill="#F3F2F5"/>
<path d="M12.0236 303.958C22.9347 318.395 32.9816 333.465 42.1114 349.089C51.8148 364.34 59.0379 381.033 63.5114 398.546C65.5149 408.709 66.2476 419.081 65.6928 429.424C65.6873 429.757 65.805 430.081 66.0234 430.333C66.2418 430.585 66.5455 430.747 66.8763 430.789C67.2071 430.831 67.5417 430.75 67.8161 430.56C68.0904 430.371 68.2852 430.087 68.3631 429.762C70.0228 420.834 69.8693 411.664 67.9117 402.796C66.1349 393.634 63.2949 384.71 59.4495 376.206C51.634 359.457 42.3057 343.457 31.5807 328.404C25.7541 319.756 19.4772 311.42 12.7758 303.431C12.4749 303.055 11.7979 303.431 12.0988 303.958H12.0236Z" fill="#F3F2F5"/>
<path d="M41.5826 300.493C43.7264 313.469 46.2462 326.331 48.6909 339.231C49.7556 345.241 50.4838 351.306 50.8722 357.397C51.2483 361.985 51.3612 368.943 55.235 372.065C55.3454 372.177 55.4872 372.255 55.6419 372.286C55.7966 372.317 55.9572 372.302 56.103 372.241C56.2487 372.18 56.3729 372.077 56.4595 371.945C56.5461 371.813 56.5912 371.658 56.5889 371.501C56.2983 368.953 55.7823 366.435 55.0469 363.979C54.5335 361.119 54.2069 358.23 54.0691 355.328C53.7158 349.458 52.9111 343.624 51.662 337.877C48.8037 325.278 45.8701 312.679 42.6357 300.268C42.6008 300.128 42.5118 300.008 42.3884 299.934C42.265 299.86 42.1172 299.838 41.9775 299.873C41.8379 299.908 41.7178 299.997 41.6438 300.12C41.5697 300.243 41.5477 300.391 41.5826 300.531V300.493Z" fill="#F3F2F5"/>
<path d="M201.24 279.583C183.787 280.333 166.562 283.836 150.203 289.963C134.256 295.755 117.558 303.127 105.071 314.899C97.9098 320.906 92.2335 328.487 88.4854 337.051C87.6956 339.27 91.2309 340.172 92.0207 337.991C95.3924 330.596 100.303 324.005 106.425 318.66C112.413 312.884 119.187 307.984 126.546 304.105C141.141 295.981 156.712 289.75 172.882 285.563C182.189 283.254 191.676 281.744 201.24 281.05C202.067 281.05 202.067 279.733 201.24 279.771V279.583Z" fill="#F3F2F5"/>
<path d="M169.608 254.158C145.725 268.111 122.332 284.246 105.671 306.511C103.377 309.482 101.233 312.604 99.2397 315.763C97.053 318.821 95.3177 322.178 94.0871 325.73C93.7486 326.896 95.4411 328.061 96.2685 326.971C98.7884 323.736 100.443 319.825 102.662 316.365C104.881 312.905 107.288 309.445 109.846 306.173C115.094 299.47 120.853 293.183 127.071 287.368C140.558 275.349 154.997 264.444 170.247 254.76C170.319 254.689 170.365 254.596 170.378 254.495C170.391 254.395 170.369 254.293 170.317 254.206C170.265 254.12 170.185 254.053 170.091 254.017C169.996 253.981 169.892 253.978 169.796 254.008L169.608 254.158Z" fill="#F3F2F5"/>
<path d="M100.822 304.11C106.432 288.757 110.932 273.02 114.287 257.022C117.715 242.09 119.319 226.796 119.063 211.477C118.056 188.698 115.086 166.048 110.187 143.779C107.93 131.66 104.8 119.719 100.822 108.05C100.333 106.734 98.1896 106.846 98.2648 108.388C99.1674 131.932 97.7383 155.589 96.5347 179.095C95.1056 205.986 93.7516 232.764 94.8799 259.693C95.5057 276.54 97.0626 293.339 99.5435 310.014C99.5435 311.105 101.574 310.842 101.462 309.751C98.0217 279.628 96.5518 249.313 97.0613 218.999C97.7383 194.853 99.6187 170.783 100.446 146.638C100.897 133.963 101.198 121.251 100.709 108.539L98.152 108.877C101.627 118.855 104.417 129.059 106.501 139.417C109.096 151.339 111.165 163.336 112.895 175.409C114.475 186.203 115.753 197.035 116.28 207.904C116.892 222.239 115.781 236.596 112.97 250.666C111.278 259.655 109.209 268.531 106.765 277.332C104.32 286.132 101.574 294.895 99.4683 303.658C99.4234 303.823 99.4458 303.999 99.5304 304.147C99.615 304.295 99.755 304.403 99.9196 304.448C100.084 304.493 100.26 304.471 100.408 304.386C100.556 304.302 100.665 304.162 100.709 303.997L100.822 304.11Z" fill="#F3F2F5"/>
<path d="M144.408 224.63C149.485 213.347 164.002 209.586 174.496 205.825C186.192 201.801 198.152 198.717 210.037 195.369C221.825 192.218 233.354 188.169 244.525 183.259C254.818 178.523 264.289 172.175 272.582 164.454C281.575 156.344 289.196 146.831 295.148 136.284C295.28 136.075 295.337 135.827 295.309 135.581C295.282 135.335 295.171 135.106 294.996 134.931C294.822 134.756 294.592 134.646 294.346 134.619C294.101 134.591 293.853 134.648 293.643 134.78C276.38 146.063 256.034 151.253 236.439 157.684C226.685 160.76 217.211 164.66 208.119 169.343C198.89 174.564 190.176 180.646 182.093 187.509C172.577 195.294 163.288 203.644 154.186 211.692C152.832 212.858 154.788 214.776 156.104 213.61C172.653 199.582 188.223 183.861 207.178 172.954C225.156 162.649 245.616 157.91 264.947 150.915C275.427 147.4 285.442 142.627 294.772 136.698L293.267 135.194C282.161 155.201 265.062 171.222 244.375 181.002C221.47 191.608 196.347 195.821 172.69 204.321C162.084 208.081 148.018 212.294 143.505 223.878C143.279 224.479 144.295 224.931 144.596 224.329L144.408 224.63Z" fill="#F3F2F5"/>
<path d="M146.746 66.8631C158.708 102.412 162.161 140.272 156.826 177.398C155.203 187.798 153.032 198.105 150.319 208.276C150.286 208.571 150.359 208.868 150.526 209.114C150.693 209.359 150.942 209.537 151.229 209.614C151.516 209.692 151.821 209.664 152.088 209.535C152.356 209.407 152.569 209.187 152.689 208.915C158.207 190.835 161.194 172.078 161.565 153.178C162.066 134.592 160.388 116.011 156.562 97.816C154.312 87.2308 151.295 76.8231 147.536 66.6751C147.348 66.1862 146.596 66.4118 146.746 66.9008V66.8631Z" fill="#F3F2F5"/>
<path d="M117.785 75.963C124.743 85.8544 133.769 93.8652 141.667 102.967C145.847 107.594 149.435 112.723 152.349 118.236C154.015 121.519 155.424 124.927 156.561 128.429C157.448 131.724 158.528 134.964 159.795 138.132C160.134 138.809 161.413 138.508 161.337 137.718C160.75 134.347 159.817 131.045 158.554 127.864C157.502 124.617 156.246 121.439 154.793 118.349C152.073 112.917 148.66 107.86 144.639 103.305C136.364 93.7148 126.473 85.5535 118.763 75.4365C118.387 74.9475 117.522 75.4364 117.898 75.963H117.785Z" fill="#F3F2F5"/>
<path d="M160.998 58.396C167.402 82.0691 166.484 107.127 158.365 130.268C157.989 131.284 159.606 131.735 159.945 130.72C168.474 107.394 169.069 81.906 161.637 58.2079C161.602 58.1368 161.542 58.0805 161.469 58.0487C161.397 58.017 161.315 58.0118 161.239 58.0343C161.162 58.0567 161.096 58.1052 161.052 58.1713C161.008 58.2375 160.989 58.317 160.998 58.396Z" fill="#F3F2F5"/>
<path d="M307.035 75.8871C298.987 76.7084 290.99 77.9639 283.078 79.6481C275.552 81.4495 268.24 84.0466 261.264 87.3957C253.968 90.8182 246.935 94.9176 239.977 98.8667C232.93 102.881 226.147 107.341 219.668 112.218C212.707 117.081 206.531 122.979 201.352 129.707C200.938 130.308 201.841 130.873 202.33 130.421C207.971 125.682 212.898 120.154 218.69 115.377C224.908 110.484 231.455 106.023 238.284 102.026C251.284 93.5647 265.347 86.8621 280.107 82.0927C288.947 79.7464 297.947 78.0495 307.035 77.0154C307.75 77.0154 307.787 75.7743 307.035 75.8495V75.8871Z" fill="#F3F2F5"/>
<path d="M297.897 104.623C286.7 102.223 275.307 100.851 263.86 100.524C253.179 100.072 241.068 100.072 230.989 104.285C229.823 104.774 230.237 106.617 231.553 106.278C236.856 104.706 242.277 103.561 247.763 102.856C253.265 102.367 258.791 102.216 264.311 102.404C275.594 102.743 286.651 104.21 297.859 104.811V104.51L297.897 104.623Z" fill="#F3F2F5"/>
<path d="M202.066 127.827C207.535 118.851 212.313 109.471 216.358 99.77C219.156 92.5077 221.051 84.9289 222 77.2042C224.294 60.4302 224.256 43.3554 224.971 26.5814C225.119 18.3208 225.911 10.0843 227.34 1.94697C227.39 1.69322 227.351 1.43008 227.23 1.20159C227.109 0.9731 226.913 0.793128 226.675 0.691799C226.437 0.59047 226.172 0.573933 225.923 0.644955C225.675 0.715978 225.458 0.870249 225.309 1.08195C222.41 6.04733 219.895 11.2276 217.787 16.5772C214.628 24.0991 211.845 31.9596 209.325 39.82C203.417 57.2289 199.629 75.2865 198.042 93.602C197.777 104.945 198.659 116.285 200.675 127.451C200.675 128.504 202.48 128.504 202.33 127.451C200.595 117.424 199.664 107.275 199.547 97.0997C200.021 88.2303 201.279 79.4203 203.308 70.7729C207.019 53.4919 212.19 36.5569 218.765 20.1501C221.094 13.9503 223.924 7.95054 227.227 2.21024L225.196 1.34522C222.188 16.1635 222.526 31.6587 222.075 46.7026C221.586 62.9124 221.172 79.6112 216.245 94.9936C212.151 106.143 207.118 116.926 201.201 127.225C201.162 127.294 201.136 127.371 201.126 127.45C201.116 127.529 201.122 127.609 201.143 127.686C201.164 127.762 201.2 127.834 201.249 127.897C201.297 127.96 201.358 128.013 201.427 128.053C201.496 128.092 201.573 128.118 201.652 128.128C201.731 128.138 201.811 128.132 201.888 128.111C201.964 128.09 202.036 128.054 202.099 128.006C202.162 127.957 202.215 127.896 202.255 127.827H202.066Z" fill="#F3F2F5"/>
<path d="M253.218 31.4031C249.457 39.3388 245.696 47.124 241.935 54.9845C239.942 59.1215 238.174 63.2586 236.03 67.3957C234.056 70.8156 232.479 74.4497 231.329 78.2273C231.297 78.3561 231.311 78.492 231.37 78.6112C231.428 78.7304 231.526 78.8253 231.648 78.8792C231.769 78.9331 231.905 78.9425 232.033 78.9058C232.16 78.8692 232.271 78.7887 232.345 78.6786C234.397 75.2447 236.134 71.6319 237.535 67.8846C239.453 63.7099 241.296 59.5352 243.402 55.3982C247.163 47.6129 250.698 39.7901 254.046 31.892C254.271 31.3279 253.481 30.8014 253.218 31.4031Z" fill="#F3F2F5"/>
<path d="M282.103 24.5933C272.927 31.3859 264.334 38.9341 256.416 47.1591C252.241 51.6347 248.255 56.1479 244.343 60.7739C240.034 65.465 236.11 70.4959 232.609 75.8178C232.519 75.9375 232.481 76.088 232.502 76.2361C232.523 76.3842 232.602 76.5178 232.722 76.6076C232.841 76.6974 232.992 76.7359 233.14 76.7148C233.288 76.6936 233.422 76.6145 233.512 76.4948C237.874 72.0568 241.372 66.6034 245.359 61.827C249.345 57.0505 253.181 52.6126 257.319 48.2122C265.11 39.9339 273.535 32.2759 282.517 25.3078C282.818 25.0822 282.517 24.5556 282.103 24.7813V24.5933Z" fill="#F3F2F5"/>
<path d="M41.738 300.343C40.3594 300.85 38.8626 300.942 37.4323 300.608C36.0021 300.273 34.701 299.528 33.6895 298.463C32.6041 297.408 31.8619 296.051 31.5599 294.568C31.258 293.085 31.4104 291.546 31.9971 290.151C32.6371 288.879 33.5987 287.797 34.7862 287.012C35.9738 286.227 37.3461 285.766 38.7668 285.675C40.0747 285.652 41.36 286.018 42.4586 286.728C43.5572 287.439 44.4193 288.46 44.9348 289.662C45.7191 291.222 45.9151 293.012 45.4869 294.704C45.0586 296.396 44.0348 297.878 42.603 298.876C41.55 299.591 42.603 301.284 43.6185 300.569C45.2497 299.481 46.4766 297.885 47.1089 296.028C47.7412 294.172 47.7438 292.159 47.1162 290.301C46.6353 288.693 45.7027 287.257 44.4292 286.164C43.1558 285.07 41.5951 284.366 39.9327 284.133C38.2239 284.019 36.5162 284.371 34.9924 285.153C33.4686 285.935 32.1862 287.117 31.2825 288.571C30.3351 290.08 29.8902 291.85 30.0119 293.627C30.1335 295.404 30.8153 297.097 31.9595 298.463C33.0729 299.953 34.6247 301.058 36.3974 301.622C37.3167 301.921 38.2897 302.019 39.2502 301.909C40.2107 301.799 41.1362 301.483 41.9637 300.983C42.0385 300.953 42.0983 300.894 42.1301 300.82C42.1618 300.746 42.1628 300.663 42.1329 300.588C42.103 300.513 42.0446 300.453 41.9705 300.421C41.8965 300.39 41.8128 300.389 41.738 300.418V300.343Z" fill="#F3F2F5"/>
<path d="M169.721 253.931C169.166 252.6 169.005 251.136 169.259 249.716C169.512 248.296 170.169 246.978 171.15 245.921C172.131 244.775 173.434 243.951 174.889 243.555C176.345 243.16 177.886 243.211 179.312 243.702C180.661 244.262 181.835 245.176 182.709 246.348C183.582 247.519 184.124 248.905 184.276 250.358C184.349 251.666 184.03 252.966 183.36 254.092C182.69 255.217 181.7 256.118 180.515 256.677C178.988 257.513 177.212 257.775 175.509 257.416C173.805 257.058 172.286 256.102 171.225 254.721C170.511 253.706 168.781 254.721 169.533 255.737C170.617 257.19 172.111 258.286 173.823 258.885C175.535 259.484 177.386 259.557 179.14 259.097C180.894 258.636 182.47 257.662 183.667 256.299C184.863 254.937 185.625 253.248 185.856 251.449C185.907 249.722 185.486 248.015 184.638 246.51C183.789 245.005 182.546 243.761 181.042 242.912C179.48 242.055 177.689 241.71 175.921 241.925C174.153 242.141 172.497 242.907 171.188 244.115C169.776 245.297 168.764 246.886 168.292 248.666C168.035 249.584 167.979 250.546 168.129 251.487C168.278 252.428 168.629 253.326 169.157 254.119C169.157 254.383 169.834 254.119 169.721 253.894V253.931Z" fill="#F3F2F5"/>
<path d="M146.402 67.3533C145.182 68.1464 143.758 68.5685 142.302 68.5685C140.847 68.5685 139.423 68.1464 138.203 67.3533C136.898 66.6166 135.843 65.5071 135.173 64.167C134.503 62.8268 134.248 61.3171 134.442 59.8313C134.749 58.4171 135.431 57.1119 136.417 56.0529C137.404 54.9939 138.657 54.2204 140.046 53.8137C141.282 53.5018 142.583 53.5601 143.787 53.9814C144.99 54.4026 146.044 55.1683 146.816 56.1831C147.974 57.5119 148.613 59.2154 148.613 60.9784C148.613 62.7414 147.974 64.4448 146.816 65.7736C145.951 66.6763 147.342 68.1054 148.207 67.1652C149.546 65.7123 150.361 63.8544 150.525 61.8856C150.688 59.9168 150.19 57.9498 149.11 56.296C148.275 54.8854 147.059 53.7386 145.603 52.987C144.146 52.2354 142.507 51.9093 140.873 52.0461C139.162 52.3115 137.556 53.0408 136.23 54.1547C134.904 55.2686 133.908 56.7246 133.351 58.3645C132.782 60.0814 132.779 61.9353 133.34 63.6545C133.902 65.3737 135 66.8677 136.473 67.9174C137.909 69.0706 139.673 69.7417 141.513 69.8355C142.47 69.892 143.428 69.7434 144.323 69.3997C145.218 69.0559 146.03 68.5249 146.703 67.8422C146.745 67.788 146.767 67.7211 146.766 67.6527C146.764 67.5842 146.74 67.5182 146.696 67.4656C146.652 67.413 146.592 67.3769 146.524 67.3633C146.457 67.3497 146.388 67.3595 146.327 67.3909L146.402 67.3533Z" fill="#F3F2F5"/>
<path d="M281.61 24.7763C280.919 23.4999 280.599 22.0559 280.685 20.6071C280.771 19.1584 281.261 17.7626 282.099 16.5774C282.96 15.3076 284.189 14.3317 285.621 13.7805C287.053 13.2292 288.619 13.129 290.11 13.4934C291.5 13.9258 292.749 14.7223 293.728 15.8002C294.707 16.8782 295.379 18.1983 295.676 19.6238C295.849 20.8972 295.654 22.1936 295.115 23.3599C294.575 24.5262 293.712 25.5136 292.629 26.2055C291.188 27.1712 289.457 27.6089 287.73 27.4444C286.002 27.2799 284.385 26.5233 283.152 25.3028C282.287 24.3626 280.895 25.7542 281.76 26.6944C283.125 28.146 284.935 29.1007 286.904 29.4073C288.873 29.7138 290.888 29.3547 292.629 28.3869C294.096 27.6556 295.327 26.5279 296.185 25.1318C297.043 23.7357 297.492 22.1272 297.481 20.4888C297.337 18.7469 296.712 17.0792 295.676 15.6714C294.641 14.2636 293.234 13.1711 291.614 12.5155C289.935 11.8194 288.077 11.6775 286.311 12.1104C284.546 12.5433 282.965 13.5285 281.798 14.9225C280.572 16.3181 279.786 18.0456 279.541 19.887C279.422 20.8671 279.522 21.8616 279.834 22.7983C280.146 23.735 280.663 24.5905 281.346 25.3028C281.572 25.5661 281.948 25.3028 281.798 24.9644L281.61 24.7763Z" fill="#F3F2F5"/>
<path d="M253.141 30.9442C252.205 30.395 251.431 29.6085 250.896 28.6642C250.361 27.7199 250.085 26.6512 250.095 25.566C250.075 24.4609 250.364 23.3722 250.928 22.4221C251.493 21.472 252.312 20.6983 253.292 20.1878C254.262 19.7903 255.314 19.6373 256.357 19.7422C257.4 19.8471 258.401 20.2068 259.272 20.7895C260.2 21.4048 260.897 22.3123 261.251 23.3683C261.605 24.4243 261.597 25.5683 261.227 26.6191C260.77 27.968 259.828 29.0993 258.585 29.7941C257.341 30.4888 255.884 30.6976 254.495 30.38C254.251 30.3258 253.995 30.3672 253.781 30.4957C253.566 30.6242 253.409 30.8301 253.342 31.071C253.274 31.3118 253.302 31.5694 253.418 31.7907C253.535 32.0119 253.732 32.1801 253.969 32.2605C255.621 32.7334 257.387 32.6078 258.956 31.906C260.525 31.2042 261.795 29.9712 262.544 28.4243C263.219 27.103 263.459 25.602 263.229 24.1361C262.999 22.6703 262.312 21.3146 261.265 20.263C260.258 19.3645 259.041 18.7348 257.726 18.4324C256.411 18.1299 255.041 18.1645 253.743 18.533C252.451 18.9733 251.314 19.7804 250.473 20.8556C249.631 21.9308 249.121 23.2278 249.004 24.5881C248.805 26.0323 249.054 27.5028 249.719 28.8004C250.069 29.407 250.499 29.9637 250.998 30.4553C251.581 30.9546 252.279 31.3033 253.029 31.4707C253.092 31.4767 253.156 31.4624 253.21 31.4298C253.265 31.3973 253.308 31.3482 253.333 31.2897C253.358 31.2311 253.364 31.1661 253.35 31.1041C253.336 31.042 253.302 30.986 253.254 30.9442H253.141Z" fill="#F3F2F5"/>
<path d="M307.675 76.6802C307.567 75.5079 307.796 74.3289 308.336 73.2826C308.875 72.2363 309.703 71.3663 310.722 70.7755C311.688 70.1755 312.81 69.8734 313.947 69.9068C315.084 69.9403 316.186 70.3078 317.116 70.9635C317.939 71.6473 318.582 72.5225 318.989 73.5127C319.395 74.5028 319.553 75.5775 319.447 76.6426C319.308 77.6382 318.876 78.5699 318.206 79.3198C317.537 80.0697 316.66 80.604 315.686 80.8549C314.363 81.2081 312.958 81.0715 311.727 80.4703C310.497 79.8691 309.526 78.8436 308.992 77.5828C308.54 76.3793 306.622 76.9059 307.074 78.1094C307.631 79.6143 308.672 80.892 310.033 81.7426C311.394 82.5932 312.999 82.9688 314.596 82.8106C315.952 82.6573 317.235 82.1189 318.295 81.2592C319.355 80.3994 320.146 79.2542 320.576 77.9589C320.934 76.6761 320.945 75.3212 320.608 74.0327C320.271 72.7442 319.598 71.5682 318.657 70.625C317.654 69.6049 316.358 68.9227 314.95 68.6733C313.541 68.4239 312.089 68.6197 310.797 69.2335C309.35 69.8385 308.137 70.8935 307.337 72.2422C306.933 72.9143 306.682 73.6677 306.604 74.4481C306.526 75.2286 306.622 76.0166 306.886 76.7554C306.886 77.0563 307.487 77.0187 307.487 76.7554L307.675 76.6802Z" fill="#F3F2F5"/>
<path d="M298.159 104.284C298.474 103.209 299.074 102.24 299.895 101.479C300.716 100.717 301.728 100.192 302.823 99.959C303.877 99.718 304.977 99.7692 306.004 100.107C307.032 100.445 307.947 101.057 308.652 101.877C309.245 102.713 309.629 103.678 309.772 104.692C309.916 105.706 309.816 106.739 309.48 107.707C309.112 108.782 308.392 109.701 307.436 110.316C306.481 110.93 305.345 111.203 304.214 111.091C302.777 110.997 301.429 110.363 300.439 109.317C299.449 108.271 298.89 106.89 298.874 105.45C298.874 105.191 298.771 104.942 298.587 104.759C298.404 104.575 298.155 104.472 297.896 104.472C297.637 104.472 297.388 104.575 297.205 104.759C297.021 104.942 296.918 105.191 296.918 105.45C296.906 107.126 297.472 108.755 298.52 110.064C299.568 111.372 301.034 112.279 302.672 112.633C304.145 113.002 305.698 112.886 307.1 112.303C308.502 111.721 309.679 110.703 310.458 109.399C311.077 108.242 311.4 106.95 311.4 105.638C311.4 104.326 311.077 103.034 310.458 101.877C309.75 100.725 308.723 99.8023 307.501 99.2216C306.28 98.6408 304.916 98.4267 303.575 98.605C302.09 98.7356 300.683 99.3274 299.551 100.297C298.994 100.76 298.539 101.333 298.216 101.981C297.892 102.628 297.706 103.336 297.67 104.058C297.67 104.397 298.159 104.435 298.272 104.058L298.159 104.284Z" fill="#F3F2F5"/>
<path d="M117.294 75.5885C116.07 76.3894 114.639 76.816 113.176 76.816C111.713 76.816 110.282 76.3894 109.057 75.5885C107.753 74.8519 106.698 73.7424 106.028 72.4022C105.358 71.0621 105.103 69.5523 105.296 68.0665C105.614 66.6512 106.305 65.3467 107.297 64.2885C108.289 63.2303 109.546 62.457 110.938 62.049C112.175 61.7469 113.472 61.81 114.674 62.2305C115.876 62.6511 116.929 63.411 117.708 64.4184C118.866 65.7472 119.505 67.4506 119.505 69.2136C119.505 70.9767 118.866 72.6801 117.708 74.0089C116.88 74.9115 118.272 76.3031 119.099 75.4004C120.432 73.9456 121.247 72.0912 121.417 70.1256C121.587 68.16 121.103 66.1933 120.04 64.5312C119.198 63.1268 117.981 61.9849 116.526 61.2341C115.071 60.4834 113.435 60.1534 111.803 60.2813C110.093 60.5507 108.489 61.2814 107.164 62.3948C105.838 63.5081 104.842 64.962 104.281 66.5997C103.712 68.3166 103.708 70.1706 104.27 71.8898C104.832 73.609 105.93 75.103 107.403 76.1526C108.843 77.2992 110.604 77.9695 112.442 78.0707C113.4 78.1322 114.36 77.9859 115.255 77.6419C116.151 77.2978 116.962 76.7641 117.633 76.0774C117.858 75.8518 117.633 75.438 117.294 75.6261V75.5885Z" fill="#F3F2F5"/>
<path d="M160.248 58.2161C158.746 58.362 157.234 58.066 155.897 57.3645C154.561 56.663 153.459 55.5864 152.726 54.2671C151.98 52.9874 151.629 51.516 151.716 50.0374C151.803 48.5587 152.324 47.1387 153.215 45.9553C154.074 44.954 155.162 44.1748 156.386 43.6837C157.61 43.1926 158.935 43.0043 160.248 43.1346C161.603 43.3059 162.87 43.8994 163.869 44.8309C164.868 45.7625 165.549 46.9848 165.814 48.3247C166.223 50.0495 166.009 51.8631 165.211 53.4457C164.413 55.0283 163.081 56.2782 161.451 56.975C160.248 57.3887 160.775 59.3068 161.94 58.8931C163.811 58.2126 165.405 56.9326 166.473 55.2525C167.541 53.5723 168.023 51.5863 167.845 49.6035C167.727 47.8911 167.113 46.2501 166.078 44.8809C165.043 43.5118 163.631 42.4737 162.016 41.8934C160.424 41.4533 158.745 41.4332 157.144 41.8353C155.542 42.2374 154.072 43.0479 152.876 44.1876C151.628 45.4086 150.789 46.9857 150.472 48.7027C150.156 50.4196 150.378 52.1925 151.109 53.7781C151.738 55.6149 153.035 57.1482 154.741 58.0746C156.448 59.0009 158.44 59.2528 160.323 58.7802C160.624 58.7802 160.586 58.1785 160.323 58.2161H160.248Z" fill="#F3F2F5"/>
<path d="M200.829 278.533C200.088 276.546 199.938 274.388 200.397 272.317C200.855 270.247 201.904 268.354 203.415 266.867C204.926 265.379 206.836 264.361 208.913 263.935C210.99 263.509 213.147 263.694 215.121 264.467C216.933 265.359 218.484 266.704 219.623 268.371C220.763 270.038 221.454 271.97 221.628 273.982C221.684 275.861 221.191 277.716 220.209 279.319C219.227 280.923 217.799 282.205 216.099 283.009C213.862 284.171 211.283 284.495 208.828 283.923C206.372 283.35 204.203 281.919 202.71 279.887C201.995 278.872 200.303 279.887 201.018 280.902C202.51 283.049 204.659 284.653 207.141 285.474C209.623 286.295 212.305 286.287 214.783 285.453C216.942 284.814 218.874 283.572 220.353 281.873C221.832 280.174 222.796 278.09 223.132 275.863C223.326 273.527 222.874 271.184 221.826 269.088C220.778 266.992 219.174 265.224 217.19 263.978C215.117 262.69 212.688 262.094 210.254 262.276C207.821 262.459 205.508 263.41 203.65 264.994C201.52 266.493 200.006 268.716 199.391 271.247C198.775 273.779 199.099 276.448 200.303 278.759C200.303 279.06 200.98 278.759 200.829 278.533Z" fill="#F3F2F5"/>
<path d="M11.4597 303.62C9.98933 303.956 8.45307 303.857 7.03761 303.336C5.62215 302.816 4.38843 301.895 3.4864 300.686C2.59353 299.495 2.07405 298.066 1.99371 296.58C1.91337 295.094 2.27579 293.617 3.03509 292.337C3.79105 291.155 4.83885 290.188 6.07736 289.529C7.31588 288.871 8.7033 288.542 10.1057 288.576C11.4284 288.684 12.6871 289.191 13.7148 290.031C14.7425 290.87 15.4907 292.002 15.86 293.277C16.4485 294.917 16.4307 296.713 15.8099 298.341C15.1891 299.969 14.0062 301.321 12.4751 302.153C11.3469 302.755 12.4751 304.447 13.4906 303.845C15.2305 302.903 16.6073 301.408 17.404 299.597C18.2007 297.786 18.372 295.761 17.891 293.841C17.4981 292.264 16.6745 290.828 15.5122 289.692C14.3499 288.556 12.8947 287.766 11.3092 287.41C9.66017 287.128 7.96578 287.289 6.39957 287.877C4.83335 288.466 3.45158 289.459 2.39572 290.757C1.29553 292.132 0.647164 293.813 0.539439 295.57C0.431714 297.327 0.869895 299.075 1.79396 300.573C2.77149 302.25 4.26117 303.568 6.04387 304.334C6.92824 304.742 7.89062 304.954 8.8646 304.954C9.83859 304.954 10.801 304.742 11.6853 304.334C11.9862 304.334 11.6853 303.733 11.4597 303.808V303.62Z" fill="#F3F2F5"/>
</svg>
