<svg width="216" height="398" viewBox="0 0 216 398" fill="none" xmlns="http://www.w3.org/2000/svg">
<path d="M90.5 396.734C95.5757 387.676 99.5836 378.059 102.443 368.077C105.873 357.292 108.527 346.275 110.385 335.11C111.148 330.838 111.621 326.519 111.801 322.182C111.785 315.352 111.384 308.528 110.6 301.744C109.215 285.399 106.691 269.146 106.291 252.74C105.761 221.439 110.978 190.307 121.681 160.889C131.885 133.011 145.789 106.632 163.02 82.4586C179.334 59.3111 198.265 37.2718 209.192 10.8C210.516 7.53722 211.809 4.21288 213.04 0.888512C213.117 0.602776 213.305 0.359551 213.562 0.212365C213.819 0.0651482 214.124 0.0260247 214.41 0.10357C214.695 0.181146 214.939 0.369042 215.086 0.625909C215.233 0.882806 215.272 1.18765 215.195 1.47335C211.194 14.9518 205.119 27.725 197.188 39.3342C189.492 51.4004 180.812 62.7894 172.378 74.3324C154.393 98.1894 139.49 124.22 128.022 151.809C116.117 180.884 109.518 211.857 108.538 243.259C108.624 259.578 109.652 275.878 111.616 292.078C112.786 304.391 114.479 317.165 112.816 329.57C111.308 340.249 108.983 350.797 105.86 361.12C102.933 371.595 99.0915 381.792 94.3784 391.594C93.3934 393.533 92.3469 395.441 91.3003 397.288C91.0233 397.719 90.2845 397.288 90.5923 396.857L90.5 396.734Z" fill="#E8E3DB"/>
<path d="M191.521 46.7211C188.966 54.1701 186.288 61.5268 184.41 69.1913C182.53 76.9766 181.213 84.8873 180.47 92.862C179.044 108.706 179.925 124.674 183.087 140.265C184.878 149.075 187.422 157.715 190.69 166.09C191.121 167.168 189.366 167.66 188.935 166.583C177.295 136.449 174.874 103.536 181.979 72.0232C183.804 63.1433 186.634 54.4999 190.413 46.2594C190.48 46.118 190.599 46.0077 190.746 45.9511C190.892 45.8945 191.054 45.8957 191.199 45.9546C191.345 46.0135 191.462 46.1256 191.527 46.268C191.593 46.4104 191.602 46.5725 191.552 46.7211H191.521Z" fill="#E8E3DB"/>
<path d="M189.185 165.509C181.952 153.782 175.149 141.377 172.533 127.679C170.222 113.44 171.405 98.8517 175.98 85.1706C178.118 77.5007 181.069 70.0813 184.784 63.0389C184.856 62.9509 184.955 62.8889 185.065 62.8621C185.176 62.8353 185.292 62.8453 185.396 62.8906C185.501 62.9358 185.588 63.0138 185.644 63.1128C185.7 63.2117 185.722 63.3263 185.707 63.4391C183.429 69.9954 180.413 76.244 178.258 82.8312C176 89.5251 174.391 96.4212 173.456 103.424C171.66 117.447 173.714 131.695 179.397 144.64C182.475 151.689 186.077 158.46 189.524 165.294C189.524 165.54 189.309 165.725 189.185 165.509Z" fill="#E8E3DB"/>
<path d="M189.061 165.478C185.421 153.989 183.715 141.975 184.013 129.926C184.013 123.277 184.66 116.66 184.383 110.042C184.106 103.424 183.305 96.9903 182.72 90.4647C181.905 83.1256 181.782 75.7261 182.351 68.3639C182.351 67.3481 184.044 67.3481 183.952 68.3639C182.751 81.1996 185.06 93.943 185.922 106.717C186.291 113.186 186.291 119.671 185.922 126.14C185.644 132.494 185.799 138.86 186.383 145.194C187.119 151.96 188.228 158.681 189.708 165.325C189.708 165.398 189.679 165.468 189.627 165.52C189.575 165.572 189.504 165.602 189.431 165.602C189.357 165.602 189.287 165.572 189.235 165.52C189.183 165.468 189.154 165.398 189.154 165.325L189.061 165.478Z" fill="#E8E3DB"/>
<path d="M189.642 166.368C188.493 162.15 188.138 157.756 188.596 153.409C188.596 147.253 189.057 141.096 189.334 134.694C189.611 128.291 189.858 121.889 189.673 115.486C189.35 108.59 188.392 101.738 186.81 95.0169C185.795 90.2766 184.717 85.5055 183.948 80.7037C183.609 78.4874 183.301 76.2712 183.117 74.0242C182.716 71.5883 182.716 69.1034 183.117 66.6674C183.117 66.5532 183.162 66.4436 183.243 66.3627C183.324 66.2819 183.433 66.2365 183.548 66.2365C183.662 66.2365 183.771 66.2819 183.852 66.3627C183.933 66.4436 183.978 66.5532 183.978 66.6674C184.246 68.6265 184.389 70.6004 184.409 72.5775C184.542 74.9287 184.799 77.2713 185.179 79.5956C185.856 84.0588 186.81 88.4605 187.765 92.8622C189.343 99.518 190.372 106.292 190.843 113.116C191.428 125.675 190.319 138.264 189.858 150.823C189.673 155.994 189.858 161.166 189.858 166.214C189.858 166.263 189.838 166.31 189.804 166.344C189.769 166.379 189.722 166.398 189.673 166.398C189.624 166.398 189.577 166.379 189.542 166.344C189.508 166.31 189.488 166.263 189.488 166.214L189.642 166.368Z" fill="#E8E3DB"/>
<path d="M180.042 76.7336C178.647 79.048 177.61 81.5592 176.963 84.1827C176.016 86.7547 174.927 89.2724 173.701 91.7241C170.815 96.8852 168.275 102.232 166.098 107.73C164.289 113.825 163.254 120.123 163.02 126.476C162.527 133.063 162.076 139.671 161.665 146.299C160.732 153.839 160.66 161.46 161.45 169.016L159.911 169.231C160.023 166.814 160.743 164.463 162.004 162.398C163.543 159.042 164.805 155.595 166.036 152.147C169.334 143.938 171.408 135.288 172.192 126.476C172.192 125.491 173.793 125.491 173.731 126.476C172.985 134.924 171.015 143.219 167.883 151.101C166.683 154.487 165.544 157.934 164.066 161.197C162.518 163.59 161.587 166.329 161.357 169.169C161.357 170.031 159.972 170.247 159.818 169.385C158.992 162.734 158.93 156.011 159.634 149.346C159.972 142.359 160.496 135.341 161.019 128.354C161.228 121.803 162.125 115.293 163.697 108.931C165.624 103.241 168.109 97.756 171.115 92.5551C172.782 89.5046 174.222 86.3359 175.424 83.0745C175.883 80.3609 177.238 77.8792 179.272 76.0257C179.703 75.7178 180.319 76.3027 180.011 76.7336H180.042Z" fill="#E8E3DB"/>
<path d="M48.8181 97.0199C67.5022 85.5078 88.8336 79.8133 110.011 74.3035C130.265 69.0091 150.734 63.7147 169.48 54.1418C179.846 49.0091 189.299 42.2082 197.46 34.0109C198.63 32.8105 200.538 34.6573 199.276 35.8578C169.018 67.0083 123.524 71.1638 84.0933 83.1992C71.954 86.7517 60.1991 91.5052 49.0027 97.3893C48.957 97.3974 48.91 97.3904 48.8685 97.3696C48.8271 97.3487 48.7935 97.315 48.7727 97.2735C48.752 97.232 48.7452 97.1849 48.7534 97.1392C48.7615 97.0935 48.7842 97.0517 48.8181 97.0199Z" fill="#E8E3DB"/>
<path d="M48.8149 97.0174C63.2513 92.2771 78.6727 91.7846 93.3245 87.783C107.786 83.8543 121.82 78.4923 135.218 71.7768C142.759 68.1139 150.147 64.1739 157.472 60.08C157.657 60.0076 157.861 60.0035 158.048 60.0682C158.235 60.1329 158.393 60.2622 158.493 60.4329C158.593 60.6036 158.629 60.8045 158.594 60.9993C158.56 61.1942 158.457 61.3703 158.304 61.4959C145.374 68.8543 132.011 75.4227 118.288 81.1651C104.373 86.8702 89.8216 90.8801 74.9481 93.1082C66.2371 94.4318 57.526 95.5707 48.8765 97.3252C48.8436 97.3108 48.8155 97.2871 48.7958 97.2571C48.7761 97.227 48.7656 97.1918 48.7656 97.1559C48.7656 97.12 48.7761 97.0848 48.7958 97.0547C48.8155 97.0246 48.8436 97.001 48.8765 96.9866L48.8149 97.0174Z" fill="#E8E3DB"/>
<path d="M47.7755 97.6032C52.2662 92.4159 57.6445 88.0696 63.6586 84.7675C69.5751 81.2446 75.8101 78.2868 82.2812 75.9332C96.9865 70.9143 112.258 67.7401 127.745 66.4834C136.673 65.8758 145.508 64.2966 154.094 61.7739C155.14 61.4353 155.602 63.0975 154.555 63.4669C147.453 65.6437 140.136 67.0472 132.732 67.6531C124.882 68.4842 117.064 69.223 109.307 70.7312C94.4903 72.9547 80.1645 77.7022 66.9522 84.7675C60.3446 88.772 54.0196 93.2252 48.0218 98.0957C47.8063 98.0957 47.6216 98.0957 47.7755 97.7571V97.6032Z" fill="#E8E3DB"/>
<path d="M48.8195 97.3886C56.915 96.6191 65.1028 96.5883 73.1982 95.9111C81.3339 95.2986 89.4177 94.1262 97.3922 92.4021C105.338 90.6836 113.07 88.0926 120.447 84.676C127.872 81.012 135.068 76.9003 141.994 72.3636L166.927 56.3881C167.85 55.8033 168.712 57.2808 167.789 57.8656L144.918 72.3636C137.866 77.036 130.571 81.3309 123.064 85.2301C108.405 91.9682 92.6252 95.9339 76.5226 96.9269C67.3219 97.8942 58.0675 98.2541 48.8195 98.0043C48.7379 98.0043 48.6596 97.9718 48.6019 97.9141C48.5441 97.8564 48.5117 97.7781 48.5117 97.6965C48.5117 97.6148 48.5441 97.5365 48.6019 97.4788C48.6596 97.4211 48.7379 97.3886 48.8195 97.3886Z" fill="#E8E3DB"/>
<path d="M165.793 57.9287C155.597 69.0515 145.98 80.692 136.982 92.8038C132.795 98.3881 128.262 103.703 123.407 108.718C118.359 113.766 112.726 118.167 107.339 122.815C101.19 128.118 95.5148 133.948 90.379 140.238C89.7634 141.007 88.4398 140.022 89.0246 139.191C90.804 136.084 92.0916 132.719 92.8415 129.218C93.7916 126.171 94.9645 123.197 96.3505 120.322C99.2883 114.37 102.97 108.816 107.309 103.793C117.023 93.1982 127.907 83.7393 139.752 75.5971C146.893 70.3028 154.034 65.0392 160.683 59.16C161.668 58.2981 163.084 59.714 162.099 60.5759C140.737 79.4448 112.849 93.0808 99.0285 119.06C97.1967 122.471 95.6919 126.047 94.5345 129.741C93.7123 133.384 92.3424 136.882 90.4713 140.114L89.0862 139.037C93.641 133.477 98.611 128.27 103.953 123.462C109.248 118.722 114.912 114.227 120.114 109.487C130.764 99.5141 139.013 87.0785 148.155 75.6279C153.027 68.8726 158.632 62.6785 164.869 57.1592C165.362 56.759 166.008 57.3747 165.577 57.8364L165.793 57.9287Z" fill="#E8E3DB"/>
<path d="M149.846 106.039C145.413 114.688 137.102 121.183 129.253 126.632C120.326 132.788 110.784 138.298 101.55 143.807C92.3156 149.317 82.3425 154.889 72.985 160.829C63.4985 166.535 54.555 173.098 46.267 180.437C37.0326 188.84 31.3381 199.521 25.5512 210.295L23.7659 209.248C32.6617 195.243 46.4824 185.978 60.3032 177.328C76.076 167.814 91.249 157.339 105.736 145.962C113.679 139.475 121.243 132.538 128.391 125.185C129.253 124.292 130.577 125.616 129.745 126.539C117.303 139.725 103.403 151.456 88.314 161.507C80.9881 166.616 73.5083 171.48 65.9669 176.22C58.4255 180.96 51.6845 184.962 44.9742 189.918C37.1799 195.317 30.5706 202.251 25.5512 210.295C25.3937 210.489 25.1716 210.621 24.9252 210.666C24.6789 210.711 24.4247 210.666 24.2087 210.539C23.9927 210.412 23.8293 210.212 23.748 209.976C23.6668 209.739 23.6731 209.481 23.7659 209.248C28.3301 199.617 34.1807 190.649 41.1573 182.592C48.842 174.945 57.3839 168.21 66.6133 162.522C85.082 150.21 104.844 140.237 123.466 128.294C128.36 125.252 133.039 121.879 137.472 118.198C141.795 114.38 145.761 110.176 149.322 105.639C149.569 105.3 150.03 105.639 149.846 106.039Z" fill="#E8E3DB"/>
<path d="M24.4442 210.543C24.2907 205.783 25.0968 201.041 26.8144 196.599C28.2683 192.058 30.1976 187.683 32.5704 183.548C37.152 175.578 43.2731 168.599 50.5774 163.017C65.1677 151.812 83.1439 146.302 99.9196 139.5C109.45 135.915 118.58 131.345 127.161 125.864C128.115 125.217 128.977 126.756 128.054 127.372C98.7192 147.226 57.2569 149.196 36.3565 180.777C33.3794 185.316 30.9318 190.18 29.0614 195.275C27.2145 200.262 26.5373 205.556 24.8136 210.666C24.8136 210.715 24.7941 210.762 24.7595 210.796C24.7249 210.831 24.6779 210.851 24.6289 210.851C24.5799 210.851 24.5329 210.831 24.4983 210.796C24.4637 210.762 24.4442 210.715 24.4442 210.666V210.543Z" fill="#E8E3DB"/>
<path d="M24.8119 210.85C25.9128 207.853 28.1141 205.387 30.9681 203.955C34.6311 201.647 38.4479 199.492 42.2648 197.43C49.9601 193.182 57.8401 189.242 65.3507 184.655C79.6339 175.624 92.6287 164.7 103.981 152.181C110.384 145.317 116.54 138.145 122.696 130.912C123.373 130.111 124.512 131.25 123.835 132.05C113.447 144.888 102.13 156.946 89.9756 168.126C84.0308 173.483 77.704 178.401 71.0452 182.839C63.8424 187.61 56.1779 191.674 48.5749 195.706C44.2656 198.014 39.9562 200.292 35.7392 202.724C32.0147 204.879 27.3975 207.064 25.4891 211.158C25.3044 211.558 24.658 211.158 24.7811 210.85H24.8119Z" fill="#E8E3DB"/>
<path d="M84.7411 171.787C79.6858 180.13 77.1027 189.737 77.2921 199.49C77.4768 208.355 79.2928 217.066 80.3702 225.839H79.2928C80.4556 218.331 82.2262 210.929 84.5872 203.707C86.9574 196.874 89.7584 190.194 92.5288 183.515C97.3447 170.884 102.905 158.55 109.181 146.577C109.3 146.377 109.493 146.233 109.718 146.175C109.943 146.117 110.182 146.151 110.382 146.27C110.582 146.388 110.727 146.581 110.784 146.806C110.842 147.031 110.808 147.27 110.69 147.47C104.37 159.444 98.7585 171.777 93.8831 184.408C90.9589 191.21 88.127 197.982 85.7569 204.723C83.4024 211.679 81.5608 218.798 80.2471 226.024C80.2471 226.67 79.2005 226.455 79.1697 226.024C78.2771 216.789 76.0916 207.77 75.9377 198.505C75.711 188.891 78.725 179.481 84.4949 171.787H84.7103H84.7411Z" fill="#E8E3DB"/>
<path d="M212.733 266.38C196.942 251.605 178.597 239.877 163.483 224.425C150.867 212.134 140.777 197.495 133.779 181.331C129.795 171.486 127.245 161.12 126.207 150.55C126.207 149.38 127.9 149.411 128.023 150.55C130.291 168.709 136.808 186.078 147.046 201.247C157.946 216.648 171.056 230.36 185.953 241.939C195.595 249.34 204.842 257.241 213.656 265.61C214.149 266.103 213.379 266.841 212.887 266.38H212.733Z" fill="#E8E3DB"/>
<path d="M211.102 264.565C196.908 258.567 183.625 250.609 171.64 240.925C160.591 231.445 151.567 219.835 145.107 206.789C140.921 198.355 137.381 189.613 133.656 180.994C133.225 180.071 134.611 179.239 135.011 180.194C141.167 194.415 146.892 209.066 156.127 221.687C165.039 233.61 176.183 243.687 188.939 251.36C196.265 255.854 203.93 259.825 211.379 264.072C211.717 264.257 211.379 264.719 211.102 264.565Z" fill="#E8E3DB"/>
<path d="M212.978 266.068C205.036 253.91 194.293 244.152 183.335 234.918C171.93 225.353 161.145 215.072 151.046 204.137C148.378 201.182 145.793 198.165 143.289 195.087C140.47 191.861 137.819 188.491 135.348 184.991C134.824 184.221 136.025 183.267 136.64 183.975C139.226 186.868 141.411 190.131 143.843 193.209C146.275 196.287 148.306 198.75 150.646 201.428C155.909 207.584 161.573 213.156 167.329 218.727C172.47 223.683 177.61 228.546 182.966 233.225C188.322 237.904 193.37 242.459 198.357 247.169C204.123 252.78 209.169 259.088 213.378 265.945C213.378 265.945 213.378 266.253 213.101 265.945L212.978 266.068Z" fill="#E8E3DB"/>
<path d="M212.727 266.223C209.675 259.676 205.773 253.559 201.122 248.031C197.336 243.568 193.15 239.413 189.149 235.134C183.839 229.265 178.219 223.686 172.311 218.42C166.771 213.649 160.676 209.555 155.105 204.815C152.026 202.075 148.764 199.243 145.655 196.381C142.712 193.848 140.002 191.056 137.559 188.039C137.344 187.731 137.806 187.269 138.113 187.516C140.742 189.563 143.24 191.774 145.593 194.133C148.425 196.781 151.257 199.459 154.15 202.013C159.783 207 165.909 211.248 171.634 216.173C177.583 221.383 183.225 226.933 188.533 232.795C192.627 237.196 196.905 241.475 200.845 246.031C206.012 251.925 210.275 258.554 213.496 265.7C213.712 266.223 212.973 266.685 212.727 266.161V266.223Z" fill="#E8E3DB"/>
<path d="M138.088 188.096C140.581 201.609 142.397 215.245 147.692 228.112C150.401 234.607 153.633 240.886 156.926 247.166C160.22 253.445 163.082 259.293 166.653 265.08C170.728 271.679 175.275 277.975 180.258 283.918L179.581 284.472C177.273 279.332 174.718 274.284 172.471 269.082C170.284 264.025 168.594 258.767 167.423 253.383C166.61 248.348 165.226 243.422 163.298 238.701C161.02 233.899 158.311 229.466 156.157 224.48C155.757 223.618 157.049 222.848 157.449 223.71C159.573 228.481 162.221 232.945 164.468 237.654C166.415 242.1 167.791 246.775 168.561 251.567C169.566 257.046 171.092 262.416 173.117 267.604C175.364 273.145 177.765 278.624 180.228 284.041C180.412 284.472 179.889 284.996 179.55 284.595C170.76 274.04 163.172 262.539 156.926 250.305C150.401 237.993 144.06 225.342 141.166 211.521C139.542 203.821 138.391 196.029 137.719 188.189C137.719 187.912 138.15 187.819 138.211 188.189L138.088 188.096Z" fill="#E8E3DB"/>
<path d="M17.64 314.952C20.8121 305.142 25.3286 295.819 31.0605 287.249C36.308 279.813 42.2554 272.897 48.8213 266.595C61.8725 253.605 76.5243 242.216 89.514 229.288C93.3308 225.533 97.0246 221.623 100.534 217.591C104.043 213.559 107.059 209.034 110.599 204.971C111.338 204.14 112.6 205.217 112.107 206.14C109.819 210.226 107.072 214.036 103.92 217.499C100.841 221.039 97.7633 224.486 94.6852 227.78C88.1288 234.428 81.1415 240.646 74.1234 246.772C60.6105 258.561 46.4203 270.042 35.4623 284.355C28.2368 293.652 22.4185 303.961 18.194 314.952C18.194 315.29 17.5168 315.167 17.64 314.798V314.952Z" fill="#E8E3DB"/>
<path d="M17.0234 314.947C18.3182 307.979 20.383 301.175 23.1797 294.663C25.5264 288.794 28.6309 283.258 32.414 278.195C40.2984 268.34 49.6402 259.745 60.1171 252.708C66.5811 248.029 73.2606 243.474 79.7247 238.918C80.802 238.148 81.8178 239.903 80.7712 240.672C59.9016 255.509 36.5079 268.776 25.6422 293C22.4789 300.189 19.9353 307.634 18.0392 315.255C17.8853 315.84 17.0542 315.563 17.1466 314.978L17.0234 314.947Z" fill="#E8E3DB"/>
<path d="M17.0551 315.228C21.2414 310.057 26.2895 305.501 30.8451 300.73C35.3187 296.067 39.5122 291.144 43.4038 285.986C51.0683 275.797 58.6097 265.485 66.4589 255.451C70.8531 249.755 75.5381 244.289 80.4951 239.075C81.3262 238.244 82.5882 239.537 81.7879 240.368C73.0254 249.746 64.8625 259.667 57.3477 270.072C50.0292 280.484 42.1263 290.473 33.677 299.991C28.5935 305.526 23.2089 310.777 17.5476 315.72C17.4823 315.786 17.3937 315.822 17.3014 315.822C17.209 315.822 17.1204 315.786 17.0551 315.72C16.9898 315.655 16.9531 315.566 16.9531 315.474C16.9531 315.382 16.9898 315.293 17.0551 315.228Z" fill="#E8E3DB"/>
<path d="M17.3319 314.952C22.5647 310.889 28.1053 307.257 33.2765 303.132C38.4704 299.009 43.338 294.492 47.836 289.619C52.353 284.742 56.3647 279.421 59.8099 273.736C63.7191 267.241 66.9819 260.469 71.1681 254.159C75.6319 247.214 80.5902 240.599 86.0046 234.367C86.651 233.69 87.8823 234.613 87.3282 235.413C83.0496 241.57 78.0939 247.356 73.6922 253.574C69.2905 259.792 65.9661 266.533 62.1492 273.09C55.2909 284.469 46.4628 294.537 36.0776 302.824C30.4071 307.666 24.2123 311.858 17.6089 315.321C17.3934 315.321 17.1164 315.106 17.3319 314.952Z" fill="#E8E3DB"/>
<path d="M91.5156 227.686C88.9786 229.903 86.3057 231.959 83.5125 233.843C80.7537 235.533 77.8234 236.926 74.7707 237.998C68.3682 240.399 61.6579 241.723 55.1015 243.539C42.4637 246.824 30.3359 251.826 19.0568 258.406C12.7762 262.172 6.97752 266.689 1.78852 271.857L0.772737 270.534C12.4696 263.239 26.5058 262.377 39.5878 258.621C53.3884 254.36 66.4043 247.884 78.1258 239.445C79.0185 238.829 79.8496 240.276 78.9877 240.891C67.4729 249.157 54.727 255.556 41.2192 259.853C28.0141 263.854 13.5161 264.531 1.60383 272.011C1.51692 272.078 1.41773 272.127 1.31191 272.155C1.20609 272.184 1.09573 272.191 0.987111 272.176C0.878496 272.162 0.77376 272.127 0.678881 272.072C0.584003 272.017 0.500841 271.944 0.434144 271.857C0.367447 271.77 0.318521 271.671 0.29016 271.565C0.261798 271.46 0.254556 271.349 0.268848 271.241C0.297711 271.021 0.412531 270.822 0.58805 270.688C9.72026 261.876 20.4494 254.887 32.2003 250.095C37.9617 247.692 43.8617 245.637 49.8687 243.939C56.302 242.03 62.8891 240.645 69.3224 238.768C73.0791 237.742 76.7045 236.286 80.1266 234.427C83.835 232.22 87.3744 229.741 90.7153 227.009C91.2694 226.578 92.1005 227.348 91.5156 227.809V227.686Z" fill="#E8E3DB"/>
<path d="M189.306 346.407C184.318 339.593 178.79 333.19 172.776 327.261C166.866 321.474 160.464 316.334 154.061 311.04C141.819 300.798 131.001 288.965 121.895 275.857C116.368 268.072 111.33 259.951 106.812 251.54C106.745 251.375 106.74 251.192 106.797 251.024C106.854 250.856 106.97 250.714 107.123 250.624C107.277 250.534 107.457 250.503 107.632 250.535C107.806 250.568 107.964 250.662 108.074 250.801C116.289 265.214 125.776 278.864 136.424 291.586C147.32 303.898 160.248 314.056 172.038 325.445C178.571 331.751 184.449 338.702 189.583 346.192C189.583 346.192 189.583 346.5 189.306 346.192V346.407Z" fill="#E8E3DB"/>
<path d="M188.966 347.057C185.057 342.963 181.363 338.715 177.054 334.96C172.745 331.205 168.22 327.757 163.726 324.187C154.551 317.345 146.277 309.371 139.101 300.454C135.008 295.131 131.412 289.444 128.358 283.463C127.866 282.54 129.251 281.709 129.743 282.632C135.177 293.277 142.321 302.958 150.89 311.289C158.985 319.169 168.404 325.418 176.992 332.836C181.982 336.642 186.282 341.275 189.705 346.534C189.749 346.64 189.756 346.758 189.726 346.869C189.696 346.979 189.631 347.077 189.54 347.147C189.449 347.217 189.338 347.255 189.223 347.256C189.108 347.256 188.996 347.219 188.905 347.149L188.966 347.057Z" fill="#E8E3DB"/>
<path d="M188.415 345.113C184.013 338.803 179.642 332.431 175.087 326.244C170.877 320.125 165.901 314.57 160.281 309.715C154.679 305.098 148.461 301.281 142.828 296.725C140.058 294.509 137.38 292.2 134.794 289.8C131.932 287.333 129.267 284.647 126.822 281.766C126.681 281.599 126.608 281.385 126.618 281.167C126.628 280.949 126.721 280.743 126.877 280.591C127.034 280.439 127.242 280.351 127.46 280.346C127.678 280.342 127.89 280.42 128.053 280.565C130.885 283.028 133.409 285.86 136.179 288.414C138.95 290.969 141.843 293.401 144.798 295.74C150.4 300.204 156.556 304.267 162.035 308.792C167.362 313.481 172.06 318.84 176.01 324.736C180.597 331.2 184.967 337.787 188.938 344.652C189.123 344.99 188.63 345.236 188.415 344.959V345.113Z" fill="#E8E3DB"/>
<path d="M188.596 346.284C178.192 337.45 164.495 333.972 153.66 325.661C143.755 317.59 135.968 307.225 130.974 295.464C127.896 288.754 126.111 281.244 121.955 275.056C121.586 274.472 122.417 273.856 122.909 274.318C127.434 278.873 128.789 286.045 131.251 291.771C133.781 297.706 136.873 303.385 140.485 308.731C144.097 314.134 148.437 319.013 153.383 323.229C158.707 327.462 164.501 331.066 170.651 333.972C177.378 337.044 183.604 341.111 189.12 346.038C189.12 346.038 189.12 346.438 188.843 346.284H188.596Z" fill="#E8E3DB"/>
<path d="M131.927 295.682C134.544 301.39 136.177 307.498 136.76 313.75C137.375 320.183 137.283 326.647 138.083 333.081C138.782 339.568 140.997 345.799 144.547 351.272C148.117 356.333 152.135 361.061 156.552 365.401L155.475 366.232C151.774 357.959 149.137 349.25 147.626 340.314C146.148 331.388 145.625 322.523 142.454 313.935C142.147 313.135 143.47 312.581 143.839 313.35C147.626 321.23 147.656 330.434 148.888 338.898C150.188 348.098 152.767 357.07 156.552 365.555C156.86 366.201 156.06 366.971 155.475 366.386C151.065 362.132 147.028 357.508 143.409 352.565C139.917 347.509 137.603 341.735 136.637 335.666C135.652 329.325 135.713 322.892 135.313 316.49C134.906 309.472 133.539 302.544 131.25 295.897C131.25 295.589 131.65 295.374 131.773 295.682H131.927Z" fill="#E8E3DB"/>
<path d="M90.625 396.645C92.2564 386.641 96.7812 377.16 99.8593 367.495C101.522 362.108 102.414 356.506 103.861 351.058C106.15 343.832 107.505 336.342 107.893 328.772C108.357 319.935 109.499 311.147 111.31 302.485C111.31 301.592 112.818 301.993 112.695 302.885C110.956 310.997 109.834 319.229 109.34 327.51C109.189 334.677 108.071 341.79 106.016 348.657C104.446 354.444 103.399 360.384 101.737 366.14C100.198 371.373 98.3203 376.483 96.535 381.531C94.7497 386.579 92.6566 391.689 91.2714 396.922C91.2714 397.26 90.7173 397.106 90.7789 396.768L90.625 396.645Z" fill="#E8E3DB"/>
<path d="M90.4351 397.047C95.8833 387.966 101.486 378.978 106.226 369.343C108.757 364.418 110.818 359.265 112.382 353.953C114.239 346.227 115.027 338.283 114.721 330.344C114.798 325.925 114.613 321.505 114.167 317.108C113.613 312.306 112.444 307.72 111.459 303.01C111.414 302.843 111.437 302.664 111.524 302.514C111.61 302.364 111.753 302.255 111.92 302.21C112.088 302.165 112.266 302.188 112.416 302.275C112.566 302.361 112.676 302.504 112.721 302.671C114.975 310.468 116.155 318.535 116.23 326.65C116.638 334.644 116.132 342.658 114.721 350.536C111.643 362.109 106.772 373.129 100.285 383.195C97.5165 388.158 94.3565 392.893 90.8352 397.354C90.6505 397.57 90.2812 397.354 90.4351 397.047Z" fill="#E8E3DB"/>
<path d="M90.4688 395.999C91.0791 392.111 91.2752 388.169 91.0536 384.24C91.0536 381.531 91.2383 378.792 91.4845 376.052C92.0386 369.896 92.9312 363.74 94.0086 357.584C96.0422 345.367 99.1952 333.363 103.428 321.724C104.874 317.845 106.29 313.936 107.491 309.965C108.691 305.994 109.522 301.993 110.569 298.084C110.61 297.924 110.712 297.788 110.853 297.704C110.995 297.621 111.164 297.597 111.323 297.637C111.482 297.678 111.619 297.781 111.702 297.922C111.786 298.063 111.81 298.232 111.769 298.391C109.03 311.597 103.366 323.848 99.8878 336.806C96.5079 349.331 94.1302 362.104 92.7773 375.006C92.4695 378.084 92.2848 381.008 92.1925 384.025C92.2975 388.095 91.8733 392.161 90.9305 396.122C90.913 396.169 90.8815 396.209 90.8402 396.238C90.7989 396.267 90.7499 396.282 90.6996 396.282C90.6493 396.282 90.6003 396.267 90.559 396.238C90.5177 396.209 90.4862 396.169 90.4688 396.122V395.999Z" fill="#E8E3DB"/>
<path d="M92.6484 388.017C92.9255 380.291 95.7265 372.811 97.1733 365.269C98.2814 359.113 99.0201 352.741 100.097 346.524C101.151 339.468 102.736 332.502 104.838 325.685C106.038 322.053 107.516 318.513 108.809 314.911C110.065 311.202 111.093 307.419 111.887 303.584C111.93 303.455 112.017 303.344 112.132 303.272C112.248 303.2 112.385 303.171 112.52 303.189C112.655 303.207 112.779 303.272 112.872 303.372C112.964 303.472 113.018 303.602 113.026 303.738C113.026 310.14 109.947 316.574 107.7 322.484C105.329 329.15 103.537 336.009 102.344 342.984C101.052 349.971 99.8512 357.02 98.8047 364.038C98.1261 367.767 97.2424 371.457 96.1575 375.089C94.7614 379.319 93.6508 383.638 92.8331 388.017H92.6484Z" fill="#E8E3DB"/>
<path d="M109.125 306.331C106.907 312.189 103.56 317.554 99.2749 322.122C94.8692 327.339 90.151 332.283 85.1463 336.928C79.9121 341.697 74.9777 346.786 70.3714 352.165C66.1375 357.922 63.0066 364.413 61.137 371.31L59.875 370.787C62.5727 366.355 65.741 362.227 69.3248 358.475C73.2438 354.73 77.4878 351.341 82.0067 348.348C91.0036 342.107 98.0987 333.499 102.507 323.476C102.907 322.553 104.415 322.953 104.015 323.877C99.9989 333.233 93.6379 341.397 85.5465 347.578C80.837 351.18 75.7889 354.288 71.4179 358.321C67.2988 362.114 63.8262 366.553 61.137 371.464C60.7677 372.172 59.7211 371.68 59.9058 370.941C61.3651 364.439 64.0726 358.282 67.8781 352.811C72.2155 347.37 76.9813 342.285 82.1298 337.605C87.1779 332.711 92.3183 327.909 96.9663 322.645C99.2869 320.078 101.426 317.352 103.369 314.488C105.185 311.78 106.632 308.825 108.448 306.085C108.663 305.808 109.156 306.085 109.063 306.331H109.125Z" fill="#E8E3DB"/>
<path d="M82.9887 239.694C83.0249 246.41 82.5516 253.119 81.5728 259.764C80.815 266.198 79.4125 272.54 77.3866 278.694C75.2934 284.543 71.7228 289.498 69.1064 295.07C66.6884 301.186 65.1344 307.609 64.4892 314.154C64.4892 314.647 63.5658 314.647 63.4735 314.154C61.0166 301.919 62.084 289.238 66.5516 277.586C67.6289 274.754 68.9525 272.045 70.2145 269.275C71.5219 266.039 72.4915 262.676 73.108 259.24C74.6182 253.079 77.0573 247.184 80.3415 241.757C80.7109 241.11 81.5728 241.757 81.2958 242.311C78.3433 248.063 75.9716 254.095 74.2161 260.318C73.751 263.207 72.9982 266.043 71.9691 268.783C70.7686 271.676 69.2911 274.477 68.1214 277.401C63.158 288.911 61.8889 301.677 64.4892 313.939L63.4427 314.092C63.7025 307.797 65.0026 301.587 67.2903 295.716C69.722 290.022 73.6313 285.127 75.8783 279.341C80.7417 266.843 81.4804 252.93 82.3423 239.694C82.3662 239.611 82.4167 239.537 82.4861 239.485C82.5555 239.433 82.6401 239.404 82.7271 239.404C82.814 239.404 82.8986 239.433 82.9681 239.485C83.0375 239.537 83.088 239.611 83.1118 239.694H82.9887Z" fill="#E8E3DB"/>
<path d="M192.381 46.2938C192.721 73.3172 200.564 99.7144 215.036 122.539L213.743 123.308C211.065 118.753 211.311 113.304 210.665 108.226C209.99 101.978 208.785 95.7998 207.063 89.7568C203.985 79.1373 198.999 69.3489 195.52 58.9756C193.492 53.7219 192.449 48.1395 192.442 42.5077C192.442 42.2955 192.527 42.0919 192.677 41.9418C192.827 41.7917 193.03 41.7074 193.243 41.7074C193.455 41.7074 193.658 41.7917 193.808 41.9418C193.959 42.0919 194.043 42.2955 194.043 42.5077C194.535 55.6205 200.907 67.502 205.463 79.4451C208.146 86.4923 210.106 93.7943 211.311 101.238C211.896 104.84 212.296 108.441 212.573 112.073C212.534 115.699 213.345 119.284 214.943 122.539C214.994 122.624 215.027 122.718 215.041 122.815C215.056 122.913 215.05 123.013 215.026 123.109C215.002 123.204 214.959 123.294 214.9 123.373C214.841 123.453 214.767 123.519 214.682 123.57C214.597 123.62 214.503 123.654 214.405 123.668C214.307 123.682 214.208 123.677 214.112 123.653C214.016 123.628 213.926 123.585 213.847 123.526C213.768 123.467 213.701 123.393 213.65 123.308C206.497 111.964 200.935 99.6904 197.121 86.8326C193.012 73.721 191.048 60.0318 191.303 46.2938C191.333 46.1654 191.406 46.0508 191.509 45.9688C191.613 45.8869 191.741 45.8423 191.873 45.8423C192.005 45.8423 192.133 45.8869 192.236 45.9688C192.34 46.0508 192.412 46.1654 192.442 46.2938H192.381Z" fill="#E8E3DB"/>
</svg>
