<svg width="215" height="398" viewBox="0 0 215 398" fill="none" xmlns="http://www.w3.org/2000/svg">
<path d="M90.5586 396.523C95.6206 387.489 99.6176 377.899 102.469 367.943C105.89 357.187 108.537 346.2 110.39 335.066C111.151 330.805 111.623 326.497 111.802 322.173C111.786 315.361 111.386 308.556 110.604 301.789C109.223 285.488 106.706 269.28 106.307 252.918C105.779 221.702 110.981 190.654 121.656 161.315C131.831 133.512 145.698 107.204 162.883 83.0961C179.153 60.0112 198.033 38.0314 208.93 11.6311C210.25 8.3771 211.54 5.06173 212.768 1.74633C212.845 1.46139 213.032 1.2188 213.289 1.07201C213.545 0.925195 213.849 0.886163 214.134 0.963525C214.419 1.04086 214.661 1.22826 214.808 1.48446C214.955 1.74062 214.994 2.04464 214.916 2.32961C210.926 15.7716 204.868 28.5104 196.958 40.0882C189.284 52.1218 180.627 63.4801 172.215 74.9919C154.279 98.7846 139.416 124.745 127.98 152.259C116.106 181.255 109.525 212.145 108.548 243.463C108.634 259.737 109.659 275.993 111.617 292.15C112.784 304.429 114.472 317.169 112.815 329.54C111.311 340.191 108.991 350.71 105.877 361.006C102.958 371.452 99.1269 381.622 94.4265 391.397C93.4442 393.331 92.4005 395.234 91.3567 397.076C91.0805 397.506 90.3437 397.076 90.6507 396.646L90.5586 396.523Z" fill="#E8E3DB"/>
<path d="M191.309 47.4506C188.761 54.8795 186.09 62.2164 184.217 69.8602C182.342 77.6244 181.029 85.5138 180.288 93.467C178.865 109.269 179.744 125.193 182.897 140.742C184.684 149.528 187.221 158.145 190.48 166.498C190.909 167.572 189.16 168.063 188.73 166.989C177.121 136.937 174.706 104.112 181.792 72.6844C183.613 63.8285 186.435 55.2084 190.203 46.9901C190.271 46.8491 190.39 46.7392 190.535 46.6827C190.681 46.6262 190.843 46.6275 190.988 46.6862C191.133 46.7449 191.25 46.8567 191.315 46.9988C191.38 47.1408 191.389 47.3024 191.339 47.4506H191.309Z" fill="#E8E3DB"/>
<path d="M188.973 165.922C181.759 154.226 174.975 141.854 172.366 128.194C170.061 113.993 171.241 99.444 175.804 85.7998C177.935 78.1506 180.879 70.7513 184.584 63.7279C184.655 63.6402 184.754 63.5783 184.864 63.5516C184.975 63.5249 185.091 63.5348 185.195 63.5799C185.299 63.6251 185.385 63.7028 185.441 63.8016C185.497 63.9003 185.519 64.0145 185.504 64.127C183.233 70.6657 180.224 76.8974 178.076 83.4667C175.823 90.1426 174.219 97.0201 173.287 104.004C171.495 117.989 173.543 132.198 179.211 145.108C182.281 152.138 185.873 158.892 189.311 165.707C189.311 165.952 189.096 166.137 188.973 165.922Z" fill="#E8E3DB"/>
<path d="M188.851 165.894C185.22 154.436 183.519 142.454 183.816 130.438C183.816 123.807 184.461 117.207 184.185 110.607C183.908 104.007 183.11 97.5906 182.527 91.0826C181.714 83.7633 181.591 76.3838 182.159 69.0414C182.159 68.0284 183.847 68.0284 183.755 69.0414C182.558 81.8425 184.86 94.5515 185.72 107.291C186.088 113.743 186.088 120.21 185.72 126.662C185.443 132.999 185.597 139.347 186.18 145.664C186.913 152.412 188.02 159.115 189.495 165.74C189.495 165.814 189.466 165.884 189.415 165.936C189.363 165.987 189.292 166.017 189.219 166.017C189.146 166.017 189.076 165.987 189.024 165.936C188.972 165.884 188.943 165.814 188.943 165.74L188.851 165.894Z" fill="#E8E3DB"/>
<path d="M189.432 166.78C188.286 162.574 187.932 158.191 188.389 153.856C188.389 147.716 188.849 141.577 189.125 135.192C189.402 128.806 189.647 122.421 189.463 116.036C189.141 109.158 188.186 102.324 186.608 95.6218C185.595 90.8943 184.521 86.136 183.753 81.3472C183.416 79.1369 183.109 76.9266 182.924 74.6857C182.525 72.2564 182.525 69.7781 182.924 67.3488C182.924 67.2348 182.97 67.1255 183.05 67.0449C183.131 66.9643 183.24 66.919 183.354 66.919C183.468 66.919 183.577 66.9643 183.658 67.0449C183.739 67.1255 183.784 67.2348 183.784 67.3488C184.05 69.3026 184.194 71.2711 184.214 73.2429C184.346 75.5878 184.603 77.9241 184.981 80.242C185.657 84.6932 186.608 89.0831 187.56 93.4729C189.134 100.111 190.161 106.866 190.63 113.672C191.213 126.197 190.108 138.753 189.647 151.277C189.463 156.435 189.647 161.592 189.647 166.626C189.647 166.675 189.628 166.722 189.593 166.757C189.559 166.791 189.512 166.811 189.463 166.811C189.414 166.811 189.367 166.791 189.333 166.757C189.298 166.722 189.279 166.675 189.279 166.626L189.432 166.78Z" fill="#E8E3DB"/>
<path d="M179.856 77.3886C178.466 79.6967 177.431 82.2011 176.786 84.8175C175.841 87.3826 174.755 89.8935 173.532 92.3385C170.654 97.4858 168.121 102.818 165.95 108.302C164.146 114.38 163.114 120.661 162.88 126.997C162.389 133.566 161.939 140.156 161.53 146.766C160.599 154.285 160.527 161.886 161.315 169.421L159.78 169.636C159.892 167.225 160.61 164.882 161.867 162.821C163.402 159.475 164.661 156.037 165.889 152.599C169.178 144.411 171.246 135.785 172.028 126.997C172.028 126.014 173.625 126.014 173.563 126.997C172.819 135.422 170.854 143.695 167.731 151.555C166.533 154.932 165.397 158.37 163.924 161.624C162.38 164.01 161.452 166.742 161.223 169.575C161.223 170.434 159.841 170.649 159.688 169.79C158.863 163.157 158.802 156.452 159.503 149.805C159.841 142.837 160.363 135.838 160.885 128.869C161.093 122.337 161.988 115.844 163.556 109.499C165.478 103.825 167.956 98.3541 170.954 93.1674C172.616 90.1251 174.052 86.9649 175.252 83.7123C175.709 81.0061 177.06 78.5311 179.089 76.6825C179.519 76.3755 180.133 76.9588 179.826 77.3886H179.856Z" fill="#E8E3DB"/>
<path d="M48.9898 97.6108C67.6235 86.1297 88.8972 80.4506 110.018 74.9556C130.217 69.6756 150.631 64.3955 169.326 54.8484C179.664 49.7295 189.091 42.9471 197.231 34.7719C198.397 33.5746 200.301 35.4165 199.042 36.6138C168.866 67.6802 123.494 71.8244 84.1697 83.8274C72.0633 87.3702 60.3401 92.1109 49.1739 97.9792C49.1284 97.9872 49.0814 97.9803 49.0401 97.9595C48.9988 97.9386 48.9653 97.905 48.9446 97.8636C48.9239 97.8223 48.9171 97.7753 48.9252 97.7297C48.9334 97.6842 48.956 97.6425 48.9898 97.6108Z" fill="#E8E3DB"/>
<path d="M48.9945 97.6119C63.3919 92.8844 78.7716 92.3933 93.3839 88.4025C107.807 84.4844 121.803 79.1369 135.164 72.4395C142.685 68.7865 150.053 64.8571 157.359 60.7743C157.542 60.7021 157.746 60.698 157.932 60.7625C158.119 60.827 158.276 60.956 158.376 61.1262C158.476 61.2965 158.512 61.4968 158.478 61.6912C158.443 61.8855 158.34 62.0611 158.188 62.1864C145.293 69.5249 131.966 76.0756 118.28 81.8025C104.402 87.4922 89.8904 91.4912 75.0572 93.7133C66.3696 95.0333 57.682 96.1692 49.0559 97.9189C49.023 97.9046 48.9951 97.881 48.9754 97.851C48.9558 97.821 48.9453 97.786 48.9453 97.7501C48.9453 97.7143 48.9558 97.6792 48.9754 97.6492C48.9951 97.6192 49.023 97.5956 49.0559 97.5813L48.9945 97.6119Z" fill="#E8E3DB"/>
<path d="M47.9434 98.1963C52.4219 93.0231 57.7857 88.6884 63.7836 85.3952C69.684 81.8819 75.9023 78.9321 82.3559 76.5849C97.0214 71.5795 112.252 68.4139 127.697 67.1606C136.601 66.5545 145.412 64.9796 153.974 62.4638C155.018 62.1261 155.479 63.7838 154.435 64.1522C147.351 66.3231 140.054 67.7228 132.67 68.3271C124.842 69.156 117.045 69.8927 109.309 71.3969C94.532 73.6144 80.2448 78.3491 67.0683 85.3952C60.4785 89.3889 54.1706 93.8301 48.1889 98.6875C47.9741 98.6875 47.7899 98.6875 47.9434 98.3498V98.1963Z" fill="#E8E3DB"/>
<path d="M48.9906 97.9823C57.0642 97.2149 65.2299 97.1842 73.3034 96.5088C81.4172 95.8979 89.4792 94.7287 97.4321 93.0092C105.357 91.2954 113.068 88.7113 120.425 85.304C127.83 81.6499 135.006 77.5493 141.914 73.0248L166.779 57.0925C167.7 56.5092 168.56 57.9827 167.639 58.566L144.83 73.0248C137.797 77.6847 130.521 81.9679 123.034 85.8566C108.415 92.5765 92.678 96.5315 76.6188 97.5218C67.443 98.4865 58.2136 98.8454 48.9906 98.5963C48.9092 98.5963 48.8311 98.5639 48.7735 98.5064C48.7159 98.4488 48.6836 98.3707 48.6836 98.2893C48.6836 98.2079 48.7159 98.1298 48.7735 98.0722C48.8311 98.0147 48.9092 97.9823 48.9906 97.9823Z" fill="#E8E3DB"/>
<path d="M165.64 58.6322C155.471 69.7249 145.881 81.3339 136.907 93.4131C132.732 98.9823 128.21 104.283 123.369 109.284C118.334 114.318 112.716 118.708 107.344 123.344C101.211 128.632 95.5515 134.446 90.4296 140.719C89.8157 141.486 88.4957 140.504 89.0789 139.675C90.8535 136.576 92.1376 133.221 92.8855 129.729C93.8331 126.69 95.0027 123.725 96.3851 120.857C99.3148 114.921 102.987 109.382 107.314 104.372C117.001 93.8064 127.856 84.373 139.669 76.2528C146.791 70.9728 153.913 65.7234 160.544 59.8601C161.526 59.0005 162.938 60.4126 161.956 61.2722C140.652 80.0901 112.839 93.6893 99.0558 119.599C97.2289 123 95.7282 126.566 94.5739 130.251C93.754 133.884 92.3877 137.372 90.5217 140.596L89.1403 139.522C93.6828 133.976 98.6394 128.784 103.967 123.988C109.248 119.261 114.896 114.779 120.084 110.051C130.706 100.105 138.933 87.7032 148.05 76.2835C152.908 69.5465 158.499 63.3691 164.719 57.8647C165.21 57.4656 165.855 58.0796 165.425 58.5401L165.64 58.6322Z" fill="#E8E3DB"/>
<path d="M149.747 106.611C145.327 115.238 137.038 121.715 129.21 127.148C120.308 133.288 110.791 138.783 101.582 144.278C92.3725 149.773 82.4263 155.329 73.0941 161.254C63.6332 166.944 54.7139 173.49 46.4482 180.809C37.2388 189.189 31.5596 199.842 25.7884 210.586L24.0079 209.542C32.8797 195.574 46.6631 186.334 60.4465 177.708C76.1768 168.22 91.3088 157.773 105.757 146.427C113.678 139.958 121.222 133.039 128.351 125.706C129.21 124.815 130.53 126.135 129.701 127.056C117.292 140.207 103.43 151.906 88.3818 161.929C81.0756 167.025 73.616 171.876 66.095 176.603C58.5739 181.331 51.8511 185.321 45.1589 190.264C37.3857 195.648 30.7942 202.564 25.7884 210.586C25.6313 210.78 25.4098 210.911 25.1641 210.956C24.9184 211 24.6649 210.956 24.4495 210.829C24.2341 210.703 24.0711 210.504 23.9901 210.268C23.909 210.031 23.9154 209.774 24.0079 209.542C28.5598 199.937 34.3945 190.993 41.3523 182.958C49.0163 175.331 57.5351 168.615 66.7396 162.942C85.1585 150.663 104.867 140.717 123.439 128.806C128.319 125.773 132.986 122.408 137.407 118.737C141.718 114.93 145.674 110.737 149.225 106.212C149.471 105.875 149.931 106.212 149.747 106.611Z" fill="#E8E3DB"/>
<path d="M24.6825 210.834C24.5294 206.087 25.3333 201.357 27.0462 196.927C28.4962 192.399 30.4203 188.036 32.7867 183.911C37.3559 175.963 43.4605 169.003 50.7451 163.436C65.296 152.262 83.2237 146.767 99.9541 139.983C109.459 136.407 118.564 131.849 127.122 126.383C128.074 125.739 128.933 127.273 128.012 127.887C98.7569 147.688 57.4066 149.652 36.5626 181.149C33.5936 185.675 31.1525 190.526 29.2872 195.607C27.4453 200.58 26.7699 205.861 25.0508 210.956C25.0508 211.005 25.0314 211.052 24.9969 211.087C24.9623 211.121 24.9155 211.141 24.8666 211.141C24.8178 211.141 24.7709 211.121 24.7364 211.087C24.7019 211.052 24.6825 211.005 24.6825 210.956V210.834Z" fill="#E8E3DB"/>
<path d="M25.05 211.136C26.148 208.146 28.3433 205.688 31.1897 204.259C34.8427 201.957 38.6493 199.808 42.4558 197.751C50.1304 193.515 57.9891 189.586 65.4794 185.012C79.7241 176.004 92.6838 165.11 104.005 152.625C110.391 145.779 116.53 138.627 122.67 131.413C123.345 130.615 124.481 131.75 123.806 132.549C113.446 145.352 102.16 157.377 90.0378 168.527C84.1091 173.87 77.7994 178.774 71.1585 183.2C63.9752 187.959 56.3314 192.011 48.7489 196.032C44.4512 198.335 40.1535 200.606 35.9479 203.031C32.2334 205.18 27.6287 207.36 25.7254 211.443C25.5412 211.842 24.8965 211.443 25.0193 211.136H25.05Z" fill="#E8E3DB"/>
<path d="M84.8189 172.187C79.7772 180.507 77.2011 190.088 77.3899 199.815C77.5741 208.656 79.3853 217.344 80.4598 226.093H79.3853C80.5449 218.604 82.3108 211.223 84.6654 204.021C87.0291 197.206 89.8227 190.544 92.5855 183.883C97.3884 171.286 102.934 158.985 109.193 147.045C109.311 146.846 109.504 146.701 109.728 146.644C109.953 146.586 110.191 146.62 110.39 146.738C110.59 146.856 110.734 147.049 110.792 147.273C110.849 147.498 110.815 147.736 110.697 147.935C104.395 159.876 98.7985 172.177 93.9362 184.773C91.0199 191.557 88.1957 198.311 85.8319 205.034C83.4838 211.971 81.6472 219.071 80.337 226.277C80.337 226.921 79.2932 226.707 79.2625 226.277C78.3723 217.067 76.1927 208.073 76.0392 198.833C75.8131 189.245 78.819 179.859 84.5733 172.187H84.7882H84.8189Z" fill="#E8E3DB"/>
<path d="M212.46 266.513C196.712 251.778 178.416 240.082 163.343 224.671C150.762 212.414 140.698 197.814 133.72 181.694C129.747 171.875 127.204 161.537 126.168 150.996C126.168 149.829 127.856 149.86 127.979 150.996C130.241 169.106 136.741 186.428 146.951 201.556C157.821 216.916 170.896 230.59 185.753 242.138C195.368 249.519 204.591 257.399 213.381 265.745C213.872 266.236 213.105 266.973 212.614 266.513H212.46Z" fill="#E8E3DB"/>
<path d="M210.834 264.703C196.679 258.721 183.432 250.785 171.479 241.126C160.46 231.673 151.46 220.094 145.017 207.082C140.842 198.671 137.312 189.953 133.598 181.357C133.168 180.436 134.549 179.608 134.948 180.559C141.088 194.742 146.798 209.354 156.007 221.94C164.895 233.831 176.009 243.882 188.731 251.533C196.037 256.015 203.681 259.975 211.11 264.211C211.448 264.396 211.11 264.856 210.834 264.703Z" fill="#E8E3DB"/>
<path d="M212.709 266.213C204.789 254.087 194.075 244.356 183.147 235.146C171.772 225.608 161.016 215.354 150.945 204.448C148.284 201.501 145.705 198.493 143.209 195.423C140.397 192.206 137.753 188.845 135.289 185.354C134.767 184.587 135.964 183.635 136.578 184.341C139.157 187.227 141.336 190.481 143.761 193.551C146.186 196.62 148.212 199.076 150.546 201.747C155.795 207.887 161.443 213.443 167.184 218.999C172.31 223.942 177.437 228.792 182.779 233.458C188.12 238.124 193.154 242.667 198.128 247.364C203.878 252.961 208.911 259.251 213.108 266.09C213.108 266.09 213.108 266.397 212.832 266.09L212.709 266.213Z" fill="#E8E3DB"/>
<path d="M212.457 266.364C209.413 259.834 205.522 253.734 200.884 248.221C197.108 243.77 192.933 239.626 188.943 235.359C183.648 229.506 178.042 223.942 172.151 218.69C166.625 213.932 160.547 209.849 154.991 205.121C151.921 202.389 148.667 199.565 145.566 196.71C142.631 194.185 139.929 191.4 137.493 188.391C137.278 188.084 137.738 187.624 138.045 187.869C140.667 189.911 143.159 192.116 145.505 194.469C148.329 197.109 151.153 199.78 154.039 202.328C159.657 207.301 165.766 211.537 171.475 216.449C177.408 221.645 183.035 227.18 188.329 233.026C192.412 237.416 196.679 241.683 200.608 246.226C205.76 252.105 210.012 258.716 213.225 265.842C213.44 266.364 212.703 266.825 212.457 266.303V266.364Z" fill="#E8E3DB"/>
<path d="M138.009 188.448C140.496 201.925 142.307 215.524 147.587 228.356C150.288 234.833 153.512 241.095 156.796 247.358C160.081 253.62 162.936 259.453 166.497 265.224C170.561 271.805 175.096 278.084 180.065 284.011L179.39 284.564C177.088 279.437 174.54 274.403 172.299 269.215C170.118 264.171 168.432 258.928 167.264 253.559C166.454 248.537 165.074 243.625 163.151 238.916C160.879 234.127 158.178 229.706 156.029 224.733C155.63 223.874 156.919 223.106 157.318 223.966C159.436 228.724 162.076 233.175 164.317 237.872C166.259 242.306 167.631 246.968 168.4 251.748C169.402 257.211 170.923 262.567 172.943 267.741C175.184 273.267 177.579 278.731 180.035 284.134C180.219 284.564 179.697 285.086 179.359 284.687C170.593 274.16 163.025 262.69 156.796 250.489C150.288 238.21 143.964 225.593 141.079 211.809C139.459 204.13 138.311 196.36 137.641 188.54C137.641 188.264 138.07 188.172 138.132 188.54L138.009 188.448Z" fill="#E8E3DB"/>
<path d="M17.8938 314.964C21.0574 305.181 25.5617 295.883 31.2782 287.336C36.5115 279.92 42.4428 273.023 48.991 266.737C62.0069 253.783 76.6192 242.425 89.5738 229.531C93.3804 225.786 97.0641 221.888 100.564 217.866C104.063 213.845 107.072 209.332 110.602 205.28C111.339 204.451 112.597 205.526 112.106 206.446C109.824 210.521 107.084 214.321 103.941 217.774C100.871 221.304 97.8009 224.743 94.7311 228.027C88.1924 234.658 81.2239 240.859 74.2248 246.968C60.7483 258.725 46.5965 270.176 35.668 284.45C28.4621 293.722 22.6594 304.003 18.4464 314.964C18.4464 315.302 17.771 315.179 17.8938 314.811V314.964Z" fill="#E8E3DB"/>
<path d="M17.2812 314.96C18.5725 308.01 20.6317 301.225 23.4209 294.73C25.7612 288.877 28.8573 283.356 32.6303 278.306C40.4934 268.478 49.81 259.907 60.2585 252.888C66.7051 248.222 73.3666 243.679 79.8132 239.136C80.8876 238.368 81.9007 240.118 80.8569 240.885C60.0437 255.682 36.7131 268.913 25.8767 293.072C22.722 300.241 20.1853 307.666 18.2943 315.267C18.1408 315.85 17.3119 315.574 17.404 314.991L17.2812 314.96Z" fill="#E8E3DB"/>
<path d="M17.3088 315.235C21.4837 310.078 26.5182 305.535 31.0615 300.776C35.523 296.126 39.7052 291.216 43.5863 286.072C51.2301 275.911 58.7511 265.627 66.5792 255.62C70.9615 249.939 75.6338 244.488 80.5775 239.288C81.4063 238.459 82.6649 239.749 81.8668 240.578C73.128 249.93 64.9871 259.825 57.4925 270.201C50.1938 280.585 42.3122 290.548 33.8857 300.04C28.816 305.56 23.4459 310.797 17.7999 315.726C17.7348 315.792 17.6465 315.828 17.5543 315.828C17.4622 315.828 17.3739 315.792 17.3088 315.726C17.2436 315.661 17.207 315.573 17.207 315.481C17.207 315.389 17.2436 315.3 17.3088 315.235Z" fill="#E8E3DB"/>
<path d="M17.5855 314.955C22.8042 310.903 28.3299 307.28 33.4871 303.167C38.667 299.055 43.5215 294.55 48.0073 289.69C52.5121 284.827 56.513 279.52 59.9489 273.85C63.8475 267.373 67.1015 260.619 71.2765 254.326C75.7282 247.4 80.6731 240.803 86.0729 234.587C86.7176 233.912 87.9455 234.833 87.3929 235.631C83.1259 241.771 78.1835 247.542 73.7937 253.743C69.4039 259.944 66.0885 266.667 62.2819 273.206C55.4421 284.554 46.6379 294.595 36.2807 302.86C30.6255 307.689 24.4474 311.869 17.8618 315.323C17.6469 315.323 17.3707 315.108 17.5855 314.955Z" fill="#E8E3DB"/>
<path d="M91.5661 227.934C89.0359 230.145 86.3702 232.195 83.5846 234.074C80.8333 235.76 77.9109 237.149 74.8664 238.218C68.4812 240.613 61.789 241.933 55.2503 243.744C42.6466 247.02 30.5516 252.009 19.3029 258.571C13.0393 262.327 7.25626 266.832 2.08127 271.986L1.06823 270.666C12.7335 263.391 26.7318 262.531 39.7785 258.786C53.5418 254.537 66.5226 248.077 78.2125 239.661C79.1027 239.047 79.9316 240.49 79.072 241.104C67.5884 249.348 54.8768 255.729 41.4055 260.014C28.236 264.005 13.7772 264.68 1.89708 272.14C1.81041 272.206 1.71148 272.255 1.60595 272.283C1.50042 272.311 1.39035 272.319 1.28203 272.304C1.17371 272.29 1.06925 272.255 0.97463 272.2C0.880008 272.145 0.79707 272.073 0.730554 271.986C0.664037 271.899 0.615243 271.8 0.586958 271.695C0.558673 271.589 0.551451 271.479 0.565704 271.371C0.594489 271.152 0.708999 270.954 0.884044 270.82C9.9916 262.032 20.6918 255.061 32.411 250.283C38.1568 247.886 44.0409 245.836 50.0316 244.143C56.4475 242.24 63.0169 240.858 69.4328 238.986C73.1793 237.963 76.795 236.511 80.2079 234.657C83.9063 232.456 87.4361 229.983 90.768 227.259C91.3206 226.829 92.1494 227.597 91.5661 228.057V227.934Z" fill="#E8E3DB"/>
<path d="M189.102 346.328C184.128 339.532 178.615 333.147 172.618 327.234C166.724 321.463 160.338 316.336 153.953 311.056C141.744 300.842 130.955 289.041 121.874 275.968C116.361 268.204 111.337 260.105 106.832 251.717C106.765 251.553 106.76 251.37 106.816 251.202C106.873 251.034 106.989 250.893 107.142 250.803C107.295 250.714 107.475 250.682 107.649 250.715C107.823 250.747 107.98 250.841 108.09 250.98C116.283 265.354 125.745 278.967 136.363 291.655C147.23 303.934 160.123 314.064 171.881 325.423C178.396 331.712 184.259 338.644 189.379 346.113C189.379 346.113 189.379 346.42 189.102 346.113V346.328Z" fill="#E8E3DB"/>
<path d="M188.759 346.977C184.861 342.894 181.177 338.657 176.879 334.912C172.582 331.167 168.069 327.729 163.587 324.168C154.437 317.344 146.185 309.392 139.029 300.5C134.946 295.191 131.36 289.519 128.315 283.554C127.824 282.633 129.205 281.805 129.696 282.726C135.115 293.342 142.24 302.997 150.786 311.305C158.859 319.164 168.253 325.396 176.818 332.794C181.794 336.589 186.082 341.21 189.496 346.455C189.54 346.561 189.547 346.678 189.517 346.789C189.488 346.899 189.422 346.997 189.332 347.067C189.241 347.136 189.13 347.174 189.015 347.175C188.901 347.175 188.789 347.138 188.698 347.069L188.759 346.977Z" fill="#E8E3DB"/>
<path d="M188.209 345.043C183.819 338.75 179.46 332.395 174.917 326.225C170.719 320.122 165.756 314.582 160.151 309.74C154.564 305.135 148.363 301.329 142.745 296.786C139.982 294.575 137.312 292.273 134.733 289.879C131.879 287.418 129.22 284.739 126.782 281.866C126.641 281.7 126.569 281.487 126.579 281.27C126.589 281.052 126.682 280.847 126.838 280.695C126.993 280.543 127.201 280.456 127.419 280.451C127.636 280.446 127.848 280.524 128.01 280.669C130.834 283.125 133.352 285.949 136.114 288.497C138.877 291.045 141.763 293.47 144.71 295.803C150.297 300.254 156.437 304.307 161.901 308.819C167.213 313.496 171.898 318.841 175.838 324.721C180.412 331.167 184.771 337.737 188.731 344.582C188.915 344.92 188.424 345.166 188.209 344.889V345.043Z" fill="#E8E3DB"/>
<path d="M188.389 346.215C178.013 337.405 164.352 333.936 153.547 325.647C143.668 317.598 135.902 307.261 130.922 295.532C127.852 288.84 126.072 281.35 121.928 275.18C121.559 274.596 122.388 273.982 122.879 274.443C127.392 278.986 128.743 286.139 131.198 291.849C133.721 297.768 136.805 303.432 140.408 308.763C144.009 314.152 148.338 319.018 153.27 323.222C158.58 327.443 164.359 331.038 170.492 333.936C177.201 336.999 183.41 341.056 188.911 345.969C188.911 345.969 188.911 346.368 188.634 346.215H188.389Z" fill="#E8E3DB"/>
<path d="M131.878 295.741C134.488 301.434 136.117 307.526 136.698 313.761C137.312 320.177 137.22 326.623 138.018 333.039C138.715 339.509 140.923 345.723 144.465 351.182C148.025 356.229 152.031 360.944 156.437 365.272L155.363 366.101C151.672 357.851 149.041 349.165 147.534 340.253C146.061 331.351 145.539 322.51 142.377 313.945C142.07 313.147 143.39 312.594 143.759 313.362C147.534 321.221 147.565 330.399 148.793 338.841C150.09 348.016 152.662 356.964 156.437 365.426C156.744 366.071 155.946 366.838 155.363 366.255C150.965 362.012 146.939 357.401 143.329 352.471C139.847 347.429 137.539 341.67 136.575 335.618C135.593 329.294 135.654 322.878 135.255 316.493C134.849 309.495 133.485 302.585 131.203 295.956C131.203 295.649 131.602 295.434 131.725 295.741H131.878Z" fill="#E8E3DB"/>
<path d="M90.6914 396.429C92.3184 386.452 96.831 376.997 99.9008 367.358C101.559 361.986 102.449 356.399 103.892 350.965C106.175 343.759 107.526 336.29 107.913 328.74C108.375 319.927 109.514 311.162 111.32 302.524C111.32 301.633 112.825 302.033 112.702 302.923C110.967 311.013 109.849 319.222 109.356 327.481C109.206 334.628 108.09 341.722 106.04 348.571C104.475 354.342 103.431 360.267 101.773 366.007C100.238 371.226 98.3659 376.322 96.5854 381.356C94.8049 386.391 92.7175 391.487 91.3361 396.705C91.3361 397.043 90.7835 396.89 90.8449 396.552L90.6914 396.429Z" fill="#E8E3DB"/>
<path d="M90.4936 396.835C95.9271 387.779 101.514 378.815 106.242 369.206C108.766 364.295 110.822 359.155 112.381 353.857C114.234 346.153 115.019 338.23 114.714 330.312C114.791 325.905 114.606 321.497 114.162 317.112C113.609 312.323 112.443 307.749 111.46 303.052C111.416 302.885 111.439 302.707 111.525 302.558C111.612 302.408 111.754 302.299 111.921 302.254C112.088 302.209 112.266 302.233 112.415 302.319C112.565 302.405 112.674 302.548 112.719 302.714C114.967 310.49 116.144 318.535 116.219 326.628C116.626 334.6 116.121 342.593 114.714 350.45C111.645 361.992 106.787 372.982 100.317 383.021C97.5559 387.971 94.4044 392.693 90.8926 397.142C90.7084 397.357 90.3401 397.142 90.4936 396.835Z" fill="#E8E3DB"/>
<path d="M90.5273 395.784C91.1361 391.907 91.3316 387.976 91.1106 384.058C91.1106 381.356 91.2948 378.624 91.5404 375.892C92.093 369.753 92.9832 363.613 94.0576 357.473C96.0858 345.289 99.2302 333.318 103.451 321.71C104.894 317.842 106.306 313.943 107.503 309.983C108.701 306.023 109.529 302.033 110.573 298.134C110.614 297.975 110.716 297.839 110.857 297.756C110.998 297.672 111.167 297.648 111.325 297.689C111.484 297.73 111.62 297.832 111.704 297.973C111.787 298.114 111.811 298.282 111.77 298.441C109.038 311.61 103.39 323.828 99.921 336.752C96.5502 349.243 94.1789 361.982 92.8297 374.848C92.5227 377.918 92.3385 380.835 92.2464 383.843C92.3512 387.902 91.9281 391.957 90.9878 395.907C90.9704 395.954 90.939 395.995 90.8978 396.023C90.8566 396.052 90.8077 396.067 90.7576 396.067C90.7074 396.067 90.6585 396.052 90.6174 396.023C90.5762 395.995 90.5448 395.954 90.5273 395.907V395.784Z" fill="#E8E3DB"/>
<path d="M92.7031 387.83C92.9794 380.125 95.7729 372.665 97.2157 365.144C98.3209 359.005 99.0576 352.65 100.132 346.449C101.183 339.413 102.763 332.465 104.86 325.666C106.057 322.044 107.53 318.514 108.82 314.922C110.073 311.223 111.098 307.45 111.889 303.625C111.932 303.496 112.019 303.387 112.134 303.315C112.249 303.243 112.386 303.213 112.521 303.232C112.656 303.25 112.78 303.314 112.872 303.414C112.964 303.514 113.018 303.643 113.025 303.779C113.025 310.164 109.955 316.58 107.714 322.474C105.35 329.123 103.563 335.963 102.373 342.919C101.084 349.887 99.8865 356.917 98.8427 363.916C98.166 367.636 97.2847 371.315 96.2027 374.937C94.8104 379.156 93.7028 383.463 92.8873 387.83H92.7031Z" fill="#E8E3DB"/>
<path d="M109.129 306.361C106.917 312.203 103.579 317.553 99.3052 322.109C94.9115 327.311 90.206 332.242 85.2148 336.875C79.9947 341.631 75.0736 346.706 70.4798 352.07C66.2573 357.812 63.1348 364.286 61.2703 371.164L60.0117 370.642C62.7021 366.222 65.8618 362.105 69.436 358.363C73.3445 354.629 77.577 351.249 82.0836 348.264C91.0563 342.04 98.1322 333.455 102.529 323.459C102.928 322.539 104.432 322.938 104.033 323.859C100.027 333.19 93.6835 341.331 85.6139 347.496C80.9171 351.088 75.8826 354.188 71.5235 358.21C67.4155 361.992 63.9522 366.42 61.2703 371.318C60.902 372.024 59.8582 371.533 60.0424 370.796C61.4978 364.311 64.198 358.171 67.9932 352.715C72.3189 347.289 77.0718 342.218 82.2064 337.55C87.2409 332.669 92.3675 327.88 97.0029 322.631C99.3172 320.07 101.451 317.352 103.388 314.496C105.199 311.794 106.642 308.847 108.453 306.115C108.668 305.839 109.159 306.115 109.067 306.361H109.129Z" fill="#E8E3DB"/>
<path d="M83.0693 239.894C83.1054 246.592 82.6333 253.283 81.6572 259.91C80.9014 266.327 79.5027 272.652 77.4822 278.789C75.3948 284.622 71.8338 289.564 69.2244 295.12C66.813 301.22 65.2632 307.626 64.6197 314.153C64.6197 314.644 63.6988 314.644 63.6067 314.153C61.1565 301.951 62.221 289.304 66.6765 277.684C67.7509 274.86 69.071 272.158 70.3296 269.395C71.6334 266.168 72.6004 262.814 73.2152 259.388C74.7213 253.243 77.1538 247.364 80.4292 241.951C80.7976 241.307 81.6572 241.951 81.3809 242.504C78.4363 248.24 76.0711 254.256 74.3203 260.462C73.8564 263.344 73.1057 266.172 72.0794 268.904C70.8821 271.79 69.4086 274.583 68.2421 277.5C63.2921 288.978 62.0264 301.71 64.6197 313.938L63.576 314.092C63.8351 307.813 65.1317 301.62 67.4133 295.765C69.8384 290.086 73.7371 285.205 75.978 279.434C80.8283 266.97 81.5651 253.095 82.4246 239.894C82.4484 239.811 82.4988 239.738 82.568 239.685C82.6372 239.633 82.7216 239.605 82.8083 239.605C82.8951 239.605 82.9794 239.633 83.0487 239.685C83.1179 239.738 83.1682 239.811 83.1921 239.894H83.0693Z" fill="#E8E3DB"/>
<path d="M192.163 47.0281C192.502 73.9785 200.324 100.304 214.757 123.067L213.467 123.835C210.797 119.291 211.042 113.858 210.398 108.793C209.725 102.562 208.523 96.4004 206.806 90.3738C203.736 79.7829 198.763 70.021 195.294 59.6757C193.271 54.4361 192.231 48.8688 192.224 43.2522C192.224 43.0406 192.308 42.8376 192.458 42.6879C192.608 42.5382 192.811 42.4541 193.022 42.4541C193.234 42.4541 193.437 42.5382 193.587 42.6879C193.737 42.8376 193.821 43.0406 193.821 43.2522C194.312 56.3296 200.666 68.1791 205.21 80.0899C207.886 87.1181 209.84 94.4003 211.042 101.824C211.625 105.416 212.025 109.007 212.301 112.63C212.261 116.246 213.071 119.821 214.665 123.067C214.715 123.152 214.748 123.246 214.762 123.343C214.777 123.441 214.771 123.54 214.747 123.635C214.723 123.731 214.68 123.821 214.621 123.9C214.562 123.979 214.488 124.045 214.404 124.096C214.319 124.146 214.225 124.179 214.128 124.193C214.03 124.208 213.931 124.202 213.835 124.178C213.74 124.154 213.65 124.111 213.571 124.052C213.492 123.993 213.426 123.919 213.375 123.835C206.241 112.521 200.695 100.281 196.89 87.4575C192.793 74.3812 190.833 60.729 191.088 47.0281C191.118 46.9 191.191 46.7858 191.294 46.704C191.397 46.6223 191.525 46.5778 191.656 46.5778C191.788 46.5778 191.916 46.6223 192.019 46.704C192.122 46.7858 192.194 46.9 192.224 47.0281H192.163Z" fill="#E8E3DB"/>
</svg>
