<svg width="172" height="316" viewBox="0 0 172 316" fill="none" xmlns="http://www.w3.org/2000/svg">
<path d="M72.2031 315.218C76.233 308.026 79.415 300.391 81.6853 292.466C84.4084 283.903 86.5155 275.156 87.9905 266.292C88.5968 262.9 88.9724 259.471 89.1146 256.028C89.1023 250.605 88.7841 245.188 88.1615 239.801C87.0618 226.824 85.0578 213.92 84.7401 200.894C84.3197 176.044 88.4614 151.326 96.9594 127.97C105.06 105.836 116.099 84.8923 129.78 65.7001C142.733 47.3223 157.763 29.8243 166.438 8.80709C167.489 6.2166 168.516 3.57726 169.493 0.937885C169.555 0.711048 169.704 0.517933 169.908 0.40105C170.112 0.284198 170.354 0.253101 170.581 0.314686C170.808 0.37627 171.001 0.52544 171.118 0.729389C171.234 0.933338 171.265 1.17537 171.204 1.40224C168.027 12.1034 163.204 22.2446 156.907 31.4617C150.798 41.0416 143.906 50.0839 137.21 59.2484C122.931 78.1896 111.099 98.8568 101.994 120.76C92.5417 143.844 87.3024 168.435 86.5241 193.367C86.5927 206.323 87.4087 219.265 88.968 232.127C89.8967 241.902 91.2408 252.044 89.9211 261.893C88.7238 270.372 86.8773 278.747 84.398 286.943C82.0746 295.259 79.0243 303.355 75.2824 311.137C74.5003 312.677 73.6694 314.192 72.8385 315.658C72.6186 316 72.0321 315.658 72.2764 315.316L72.2031 315.218Z" fill="#E8E3DB"/>
<path d="M152.412 37.3283C150.384 43.2425 148.258 49.0833 146.767 55.1685C145.274 61.3496 144.228 67.6303 143.639 73.9618C142.506 86.5414 143.206 99.2187 145.716 111.597C147.138 118.592 149.158 125.452 151.752 132.101C152.094 132.957 150.701 133.348 150.359 132.492C141.118 108.568 139.195 82.4363 144.836 57.4169C146.286 50.3667 148.532 43.5043 151.532 36.9618C151.586 36.8495 151.681 36.762 151.797 36.717C151.913 36.6721 152.041 36.6731 152.157 36.7198C152.272 36.7666 152.365 36.8556 152.417 36.9686C152.469 37.0817 152.476 37.2104 152.437 37.3283H152.412Z" fill="#E8E3DB"/>
<path d="M150.556 131.638C144.813 122.327 139.412 112.479 137.335 101.603C135.5 90.2978 136.439 78.7157 140.072 67.8536C141.769 61.7641 144.112 55.8735 147.062 50.2823C147.119 50.2124 147.197 50.1631 147.285 50.1419C147.373 50.1206 147.465 50.1286 147.548 50.1645C147.631 50.2004 147.7 50.2623 147.744 50.3409C147.789 50.4195 147.806 50.5104 147.795 50.5999C145.986 55.8054 143.591 60.7664 141.881 65.9963C140.087 71.3109 138.811 76.786 138.068 82.3457C136.642 93.4794 138.273 104.791 142.785 115.069C145.229 120.665 148.088 126.042 150.825 131.467C150.825 131.663 150.654 131.809 150.556 131.638Z" fill="#E8E3DB"/>
<path d="M150.458 131.62C147.567 122.498 146.213 112.959 146.45 103.393C146.45 98.1147 146.963 92.8604 146.743 87.6061C146.523 82.3518 145.888 77.2441 145.424 72.0631C144.776 66.2363 144.678 60.3615 145.13 54.5162C145.13 53.7098 146.474 53.7098 146.401 54.5162C145.448 64.7071 147.281 74.8247 147.965 84.9667C148.258 90.1028 148.258 95.2514 147.965 100.387C147.745 105.432 147.867 110.487 148.332 115.515C148.916 120.887 149.797 126.223 150.971 131.498C150.971 131.556 150.948 131.612 150.907 131.653C150.865 131.695 150.809 131.718 150.751 131.718C150.693 131.718 150.637 131.695 150.596 131.653C150.554 131.612 150.531 131.556 150.531 131.498L150.458 131.62Z" fill="#E8E3DB"/>
<path d="M150.919 132.325C150.007 128.977 149.725 125.488 150.088 122.037C150.088 117.149 150.455 112.261 150.675 107.178C150.895 102.095 151.09 97.0114 150.944 91.9282C150.688 86.4526 149.927 81.0123 148.671 75.6765C147.865 71.913 147.009 68.125 146.398 64.3126C146.129 62.553 145.885 60.7934 145.738 59.0094C145.421 57.0754 145.421 55.1025 145.738 53.1685C145.738 53.0778 145.774 52.9908 145.839 52.9266C145.903 52.8625 145.99 52.8264 146.08 52.8264C146.171 52.8264 146.258 52.8625 146.322 52.9266C146.387 52.9908 146.423 53.0778 146.423 53.1685C146.635 54.7239 146.749 56.2911 146.765 57.8608C146.87 59.7276 147.074 61.5875 147.376 63.4328C147.913 66.9764 148.671 70.4711 149.429 73.9658C150.682 79.2501 151.499 84.6284 151.872 90.0464C152.337 100.017 151.457 110.013 151.09 119.984C150.944 124.089 151.09 128.195 151.09 132.203C151.09 132.242 151.075 132.279 151.047 132.307C151.02 132.334 150.983 132.35 150.944 132.35C150.905 132.35 150.868 132.334 150.84 132.307C150.813 132.279 150.797 132.242 150.797 132.203L150.919 132.325Z" fill="#E8E3DB"/>
<path d="M143.295 61.1585C142.188 62.996 141.364 64.9897 140.851 67.0726C140.099 69.1147 139.234 71.1136 138.261 73.0601C135.969 77.1578 133.953 81.4032 132.224 85.7682C130.788 90.6069 129.967 95.6073 129.781 100.651C129.39 105.881 129.031 111.127 128.705 116.39C127.964 122.376 127.907 128.426 128.534 134.425L127.312 134.597C127.402 132.677 127.973 130.811 128.974 129.171C130.196 126.507 131.198 123.77 132.176 121.033C134.794 114.515 136.441 107.648 137.063 100.651C137.063 99.8692 138.334 99.8692 138.285 100.651C137.693 107.359 136.128 113.945 133.642 120.202C132.689 122.89 131.784 125.628 130.611 128.218C129.382 130.118 128.643 132.292 128.461 134.548C128.461 135.232 127.361 135.403 127.239 134.719C126.583 129.439 126.534 124.101 127.092 118.809C127.361 113.262 127.777 107.69 128.192 102.142C128.358 96.9414 129.071 91.7727 130.318 86.7213C131.848 82.204 133.821 77.8491 136.208 73.7199C137.531 71.298 138.674 68.7822 139.629 66.1928C139.993 64.0384 141.069 62.068 142.684 60.5964C143.026 60.352 143.515 60.8163 143.271 61.1585H143.295Z" fill="#E8E3DB"/>
<path d="M39.1009 77.25C53.9351 68.11 70.8711 63.5889 87.6848 59.2144C103.765 55.0109 120.017 50.8075 134.9 43.2071C143.13 39.132 150.635 33.7325 157.115 27.2242C158.044 26.2711 159.559 27.7375 158.557 28.6906C134.534 53.4224 98.4134 56.7216 67.1075 66.2771C57.4696 69.0976 48.1368 72.8716 39.2475 77.5433C39.2113 77.5497 39.1739 77.5442 39.141 77.5276C39.1081 77.511 39.0814 77.4843 39.0649 77.4513C39.0485 77.4184 39.0431 77.381 39.0495 77.3447C39.056 77.3085 39.074 77.2752 39.1009 77.25Z" fill="#E8E3DB"/>
<path d="M39.1095 77.2605C50.5712 73.4969 62.8149 73.1059 74.4477 69.9289C85.9297 66.8097 97.0719 62.5526 107.709 57.2208C113.696 54.3126 119.561 51.1845 125.378 47.9342C125.524 47.8767 125.686 47.8734 125.835 47.9248C125.983 47.9762 126.108 48.0788 126.188 48.2144C126.267 48.3499 126.296 48.5094 126.268 48.6641C126.241 48.8188 126.159 48.9586 126.038 49.0584C115.773 54.9005 105.163 60.1155 94.2674 64.6746C83.2194 69.2042 71.6665 72.3878 59.8578 74.1568C52.9417 75.2076 46.0256 76.1119 39.1583 77.5049C39.1322 77.4935 39.1099 77.4747 39.0943 77.4508C39.0786 77.4269 39.0703 77.399 39.0703 77.3705C39.0703 77.3419 39.0786 77.314 39.0943 77.2901C39.1099 77.2663 39.1322 77.2475 39.1583 77.2361L39.1095 77.2605Z" fill="#E8E3DB"/>
<path d="M38.2795 77.7223C41.8448 73.6039 46.1149 70.1531 50.8898 67.5314C55.5871 64.7344 60.5374 62.3861 65.6751 60.5175C77.3503 56.5327 89.4749 54.0126 101.771 53.0148C108.859 52.5324 115.874 51.2786 122.69 49.2757C123.521 49.0069 123.888 50.3266 123.057 50.6199C117.418 52.3481 111.608 53.4624 105.73 53.9435C99.4982 54.6033 93.2908 55.1899 87.1322 56.3874C75.3685 58.1527 63.9945 61.922 53.5047 67.5314C48.2587 70.7107 43.237 74.2464 38.475 78.1133C38.3039 78.1133 38.1573 78.1133 38.2795 77.8445V77.7223Z" fill="#E8E3DB"/>
<path d="M39.1155 77.5577C45.5428 76.9467 52.0435 76.9223 58.4709 76.3846C64.9302 75.8983 71.3483 74.9675 77.6796 73.5986C83.9884 72.2343 90.1271 70.1771 95.9841 67.4646C101.879 64.5555 107.592 61.291 113.091 57.6891L132.886 45.0055C133.62 44.5411 134.304 45.7142 133.571 46.1785L115.413 57.6891C109.814 61.3988 104.022 64.8087 98.0614 67.9044C86.4231 73.2541 73.8949 76.4027 61.1102 77.1911C53.8054 77.9591 46.4579 78.2448 39.1155 78.0465C39.0507 78.0465 38.9885 78.0207 38.9427 77.9749C38.8968 77.929 38.8711 77.8669 38.8711 77.8021C38.8711 77.7373 38.8968 77.6751 38.9427 77.6293C38.9885 77.5834 39.0507 77.5577 39.1155 77.5577Z" fill="#E8E3DB"/>
<path d="M131.976 46.2234C123.881 55.0543 116.246 64.2962 109.101 73.9123C105.778 78.346 102.178 82.5659 98.3238 86.5471C94.3158 90.555 89.8436 94.0497 85.5668 97.74C80.6843 101.95 76.1787 106.578 72.1012 111.572C71.6124 112.183 70.5615 111.401 71.0259 110.741C72.4386 108.274 73.4608 105.603 74.0562 102.823C74.8106 100.404 75.7418 98.0432 76.8422 95.7604C79.1746 91.035 82.0981 86.6252 85.5424 82.6369C93.2549 74.2255 101.896 66.7156 111.301 60.2511C116.97 56.0477 122.64 51.8687 127.919 47.2009C128.701 46.5167 129.825 47.6408 129.043 48.3251C112.083 63.306 89.9413 74.1323 78.9684 94.7584C77.514 97.4662 76.3193 100.306 75.4004 103.239C74.7476 106.131 73.66 108.908 72.1745 111.474L71.0747 110.619C74.691 106.205 78.6369 102.071 82.8786 98.2532C87.082 94.4896 91.5787 90.9216 95.7088 87.158C104.165 79.2399 110.714 69.3667 117.972 60.2756C121.84 54.9123 126.291 49.9945 131.243 45.6124C131.634 45.2947 132.147 45.7835 131.805 46.1501L131.976 46.2234Z" fill="#E8E3DB"/>
<path d="M119.32 84.4234C115.801 91.2906 109.202 96.4472 102.97 100.773C95.8832 105.661 88.3072 110.035 80.9757 114.41C73.6441 118.784 65.726 123.207 58.2966 127.924C50.7649 132.454 43.6642 137.665 37.0839 143.492C29.7524 150.163 25.2312 158.643 20.6368 167.197L19.2193 166.366C26.2821 155.246 37.255 147.89 48.2279 141.023C60.7507 133.469 72.7973 125.153 84.2993 116.12C90.6055 110.97 96.611 105.462 102.286 99.6242C102.97 98.9155 104.021 99.9664 103.361 100.7C93.4824 111.168 82.447 120.482 70.4671 128.462C64.6507 132.519 58.7121 136.38 52.7246 140.143C46.7372 143.907 41.3851 147.084 36.0575 151.019C29.8693 155.305 24.6218 160.81 20.6368 167.197C20.5117 167.351 20.3353 167.456 20.1398 167.491C19.9442 167.527 19.7423 167.491 19.5709 167.391C19.3994 167.29 19.2696 167.132 19.2051 166.944C19.1406 166.756 19.1457 166.551 19.2193 166.366C22.843 158.719 27.4881 151.599 33.0271 145.202C39.1284 139.131 45.9102 133.784 53.2379 129.268C67.901 119.493 83.5906 111.575 98.3759 102.093C102.261 99.6775 105.976 96.9993 109.496 94.0766C112.928 91.0454 116.077 87.708 118.904 84.1057C119.1 83.8369 119.466 84.1057 119.32 84.4234Z" fill="#E8E3DB"/>
<path d="M19.7568 167.391C19.635 163.612 20.2749 159.847 21.6386 156.321C22.7929 152.715 24.3247 149.242 26.2086 145.959C29.8461 139.631 34.7059 134.09 40.5052 129.658C52.0891 120.763 66.3612 116.388 79.6803 110.987C87.2468 108.141 94.4954 104.512 101.308 100.161C102.066 99.6476 102.75 100.869 102.017 101.358C78.7272 117.121 45.8084 118.685 29.2146 143.759C26.8509 147.362 24.9076 151.224 23.4226 155.27C21.9563 159.229 21.4187 163.432 20.0501 167.489C20.0501 167.528 20.0346 167.565 20.0071 167.593C19.9796 167.62 19.9423 167.636 19.9035 167.636C19.8646 167.636 19.8273 167.62 19.7998 167.593C19.7723 167.565 19.7568 167.528 19.7568 167.489V167.391Z" fill="#E8E3DB"/>
<path d="M20.0524 167.636C20.9264 165.256 22.6741 163.299 24.9401 162.162C27.8483 160.329 30.8787 158.618 33.909 156.981C40.0187 153.608 46.275 150.48 52.238 146.839C63.5781 139.668 73.8953 130.995 82.9084 121.056C87.9916 115.606 92.8794 109.912 97.7671 104.169C98.3047 103.533 99.209 104.438 98.6713 105.073C90.4239 115.266 81.4389 124.839 71.7889 133.715C67.069 137.968 62.0459 141.873 56.7591 145.397C51.0405 149.185 44.9553 152.411 38.9189 155.612C35.4975 157.445 32.0761 159.253 28.7281 161.184C25.771 162.895 22.1052 164.63 20.59 167.88C20.4434 168.198 19.9302 167.88 20.0279 167.636H20.0524Z" fill="#E8E3DB"/>
<path d="M67.6278 136.621C63.6142 143.245 61.5633 150.872 61.7137 158.616C61.8603 165.654 63.3022 172.57 64.1575 179.535H63.3022C64.2253 173.574 65.6311 167.698 67.5056 161.964C69.3874 156.539 71.6113 151.235 73.8108 145.932C77.6344 135.904 82.0492 126.111 87.0321 116.606C87.126 116.447 87.2793 116.332 87.458 116.286C87.6367 116.241 87.8264 116.268 87.9852 116.362C88.144 116.456 88.2589 116.609 88.3048 116.787C88.3506 116.966 88.3235 117.156 88.2295 117.315C83.2124 126.821 78.7569 136.613 74.8861 146.641C72.5644 152.042 70.3161 157.418 68.4343 162.77C66.5649 168.293 65.1028 173.945 64.0598 179.682C64.0598 180.195 63.2289 180.024 63.2044 179.682C62.4957 172.35 60.7606 165.19 60.6384 157.834C60.4584 150.201 62.8513 142.729 67.4323 136.621H67.6034H67.6278Z" fill="#E8E3DB"/>
<path d="M169.252 211.725C156.715 199.994 142.149 190.683 130.15 178.415C120.134 168.657 112.122 157.034 106.567 144.201C103.404 136.385 101.379 128.154 100.555 119.763C100.555 118.834 101.899 118.858 101.997 119.763C103.797 134.18 108.972 147.97 117.1 160.013C125.754 172.241 136.162 183.127 147.99 192.321C155.645 198.197 162.987 204.47 169.985 211.114C170.376 211.505 169.765 212.092 169.374 211.725H169.252Z" fill="#E8E3DB"/>
<path d="M167.939 210.273C156.671 205.511 146.125 199.193 136.609 191.504C127.837 183.978 120.672 174.76 115.543 164.402C112.219 157.706 109.409 150.765 106.452 143.923C106.11 143.189 107.21 142.53 107.527 143.287C112.415 154.578 116.961 166.211 124.292 176.23C131.368 185.697 140.216 193.698 150.344 199.789C156.16 203.357 162.245 206.51 168.159 209.882C168.428 210.029 168.159 210.396 167.939 210.273Z" fill="#E8E3DB"/>
<path d="M169.443 211.478C163.138 201.825 154.609 194.078 145.909 186.747C136.854 179.153 128.291 170.99 120.273 162.308C118.155 159.962 116.102 157.567 114.114 155.123C111.876 152.561 109.771 149.886 107.809 147.107C107.394 146.496 108.347 145.739 108.836 146.301C110.889 148.598 112.624 151.188 114.554 153.632C116.485 156.076 118.098 158.031 119.955 160.157C124.134 165.045 128.631 169.468 133.201 173.892C137.282 177.826 141.363 181.688 145.616 185.402C149.868 189.117 153.876 192.734 157.835 196.473C162.413 200.928 166.42 205.936 169.761 211.381C169.761 211.381 169.761 211.625 169.541 211.381L169.443 211.478Z" fill="#E8E3DB"/>
<path d="M169.246 211.605C166.823 206.407 163.725 201.551 160.033 197.162C157.027 193.619 153.704 190.319 150.526 186.922C146.311 182.263 141.849 177.833 137.159 173.652C132.76 169.864 127.921 166.614 123.497 162.85C121.054 160.675 118.463 158.427 115.995 156.154C113.658 154.144 111.507 151.927 109.567 149.531C109.396 149.287 109.763 148.92 110.007 149.116C112.095 150.742 114.078 152.497 115.946 154.37C118.194 156.472 120.443 158.598 122.74 160.626C127.212 164.586 132.075 167.958 136.621 171.868C141.344 176.005 145.824 180.411 150.038 185.065C153.288 188.56 156.685 191.957 159.813 195.574C163.915 200.254 167.3 205.516 169.857 211.19C170.029 211.605 169.442 211.972 169.246 211.557V211.605Z" fill="#E8E3DB"/>
<path d="M109.981 149.564C111.96 160.292 113.402 171.118 117.606 181.334C119.756 186.49 122.322 191.476 124.937 196.461C127.552 201.447 129.825 206.09 132.66 210.685C135.895 215.924 139.505 220.922 143.462 225.641L142.924 226.081C141.091 222 139.063 217.992 137.279 213.862C135.543 209.846 134.2 205.672 133.271 201.398C132.625 197.4 131.527 193.489 129.996 189.741C128.188 185.928 126.037 182.409 124.326 178.45C124.009 177.766 125.035 177.155 125.353 177.839C127.039 181.627 129.141 185.171 130.925 188.91C132.471 192.44 133.563 196.151 134.175 199.956C134.973 204.306 136.184 208.569 137.792 212.688C139.576 217.087 141.482 221.437 143.437 225.739C143.584 226.081 143.168 226.496 142.9 226.179C135.92 217.798 129.896 208.667 124.937 198.954C119.756 189.179 114.722 179.134 112.425 168.161C111.135 162.048 110.221 155.862 109.688 149.637C109.687 149.417 110.03 149.344 110.079 149.637L109.981 149.564Z" fill="#E8E3DB"/>
<path d="M14.3595 250.296C16.8781 242.507 20.4639 235.105 25.0148 228.301C29.181 222.397 33.9029 216.906 39.1158 211.902C49.4778 201.589 61.1106 192.547 71.4237 182.283C74.4541 179.301 77.3867 176.198 80.1727 172.996C82.9587 169.795 85.3537 166.202 88.1641 162.976C88.7506 162.317 89.7526 163.172 89.3616 163.905C87.5447 167.148 85.3637 170.174 82.8609 172.923C80.4171 175.733 77.9732 178.47 75.5294 181.085C70.3239 186.364 64.7764 191.301 59.2044 196.164C48.4758 205.524 37.2096 214.64 28.5095 226.004C22.7729 233.385 18.1534 241.57 14.7994 250.296C14.7994 250.564 14.2618 250.467 14.3595 250.173V250.296Z" fill="#E8E3DB"/>
<path d="M13.8672 250.285C14.8952 244.752 16.5345 239.35 18.7549 234.18C20.6181 229.52 23.0829 225.125 26.0865 221.105C32.3463 213.281 39.7632 206.457 48.0812 200.87C53.2133 197.155 58.5165 193.538 63.6486 189.921C64.504 189.31 65.3104 190.703 64.4795 191.314C47.9102 203.094 29.3368 213.627 20.71 232.86C18.1985 238.567 16.1791 244.478 14.6737 250.529C14.5515 250.993 13.8916 250.773 13.9649 250.309L13.8672 250.285Z" fill="#E8E3DB"/>
<path d="M13.8935 250.51C17.2171 246.405 21.2251 242.788 24.842 239C28.3938 235.298 31.7232 231.389 34.8129 227.294C40.8981 219.205 46.8856 211.018 53.1174 203.051C56.6062 198.528 60.3258 194.189 64.2614 190.049C64.9213 189.389 65.9233 190.416 65.2879 191.076C58.3309 198.522 51.85 206.398 45.8836 214.659C40.0731 222.926 33.7986 230.857 27.0903 238.413C23.0543 242.808 18.7792 246.977 14.2845 250.901C14.2326 250.953 14.1623 250.982 14.089 250.982C14.0157 250.982 13.9453 250.953 13.8935 250.901C13.8416 250.85 13.8125 250.779 13.8125 250.706C13.8125 250.633 13.8416 250.562 13.8935 250.51Z" fill="#E8E3DB"/>
<path d="M14.1127 250.282C18.2672 247.056 22.6662 244.172 26.7719 240.898C30.8955 237.624 34.7602 234.037 38.3313 230.169C41.9176 226.297 45.1027 222.072 47.8379 217.559C50.9416 212.402 53.5321 207.026 56.8558 202.016C60.3998 196.502 64.3364 191.25 68.6352 186.302C69.1484 185.764 70.1259 186.497 69.686 187.133C66.2891 192.02 62.3545 196.615 58.8597 201.551C55.365 206.488 52.7257 211.84 49.6953 217.045C44.2501 226.08 37.2411 234.074 28.9958 240.653C24.4937 244.497 19.5754 247.826 14.3326 250.575C14.1615 250.575 13.9416 250.404 14.1127 250.282Z" fill="#E8E3DB"/>
<path d="M73.0093 181.006C70.995 182.765 68.8729 184.398 66.6553 185.893C64.4649 187.235 62.1384 188.341 59.7147 189.192C54.6315 191.099 49.3039 192.15 44.0984 193.591C34.0647 196.2 24.4359 200.171 15.4808 205.395C10.4944 208.386 5.89058 211.972 1.77079 216.075L0.964315 215.024C10.251 209.232 21.395 208.548 31.7814 205.566C42.7383 202.183 53.0722 197.041 62.3785 190.341C63.0872 189.852 63.7471 191.001 63.0628 191.49C53.9207 198.052 43.8011 203.133 33.0766 206.544C22.5925 209.721 11.0819 210.259 1.62416 216.197C1.55516 216.25 1.4764 216.289 1.39239 216.311C1.30838 216.334 1.22075 216.34 1.13452 216.328C1.04828 216.317 0.965127 216.289 0.889799 216.245C0.81447 216.202 0.748444 216.144 0.69549 216.075C0.642536 216.006 0.603692 215.927 0.581174 215.843C0.558657 215.759 0.552907 215.671 0.564254 215.585C0.587169 215.411 0.67833 215.253 0.817683 215.146C8.06817 208.15 16.5865 202.601 25.9161 198.797C30.4904 196.889 35.1747 195.257 39.9439 193.909C45.0515 192.394 50.2814 191.294 55.3891 189.803C58.3717 188.989 61.2501 187.833 63.967 186.358C66.9113 184.605 69.7214 182.637 72.3739 180.468C72.8138 180.126 73.4736 180.737 73.0093 181.103V181.006Z" fill="#E8E3DB"/>
<path d="M150.652 275.269C146.692 269.858 142.303 264.775 137.528 260.068C132.836 255.473 127.753 251.392 122.67 247.189C112.95 239.057 104.361 229.663 97.1314 219.255C92.743 213.075 88.7436 206.627 85.1565 199.949C85.1034 199.818 85.0991 199.673 85.1445 199.539C85.1898 199.406 85.2818 199.293 85.4035 199.222C85.5252 199.15 85.6685 199.125 85.8072 199.151C85.9459 199.177 86.0706 199.252 86.1585 199.362C92.6803 210.806 100.213 221.643 108.666 231.743C117.318 241.519 127.582 249.584 136.942 258.626C142.129 263.633 146.796 269.151 150.872 275.097C150.872 275.097 150.872 275.342 150.652 275.097V275.269Z" fill="#E8E3DB"/>
<path d="M150.382 275.777C147.278 272.526 144.346 269.154 140.924 266.172C137.503 263.191 133.91 260.454 130.342 257.619C123.058 252.187 116.489 245.856 110.792 238.777C107.542 234.55 104.687 230.035 102.262 225.287C101.871 224.554 102.971 223.894 103.362 224.627C107.676 233.079 113.348 240.765 120.152 247.379C126.579 253.635 134.057 258.596 140.875 264.486C144.837 267.508 148.251 271.186 150.969 275.361C151.003 275.446 151.009 275.539 150.985 275.627C150.962 275.715 150.91 275.793 150.838 275.848C150.765 275.904 150.677 275.934 150.586 275.935C150.495 275.935 150.406 275.905 150.333 275.85L150.382 275.777Z" fill="#E8E3DB"/>
<path d="M149.939 274.235C146.444 269.225 142.974 264.167 139.357 259.254C136.015 254.396 132.065 249.986 127.602 246.131C123.154 242.465 118.218 239.435 113.746 235.818C111.546 234.058 109.42 232.225 107.367 230.319C105.095 228.361 102.979 226.228 101.037 223.941C100.925 223.809 100.868 223.639 100.876 223.466C100.884 223.293 100.958 223.129 101.082 223.008C101.206 222.887 101.371 222.818 101.544 222.814C101.718 222.81 101.886 222.872 102.015 222.988C104.263 224.943 106.267 227.191 108.467 229.219C110.666 231.248 112.964 233.179 115.31 235.036C119.757 238.579 124.645 241.805 128.995 245.398C133.224 249.121 136.954 253.376 140.09 258.057C143.732 263.189 147.202 268.419 150.355 273.869C150.501 274.138 150.11 274.333 149.939 274.113V274.235Z" fill="#E8E3DB"/>
<path d="M150.088 275.161C141.828 268.148 130.953 265.386 122.35 258.788C114.486 252.38 108.304 244.151 104.339 234.813C101.895 229.486 100.478 223.523 97.1784 218.611C96.8852 218.146 97.545 217.657 97.936 218.024C101.528 221.641 102.604 227.335 104.559 231.881C106.567 236.593 109.022 241.102 111.89 245.346C114.758 249.636 118.203 253.51 122.13 256.857C126.357 260.217 130.958 263.079 135.84 265.386C141.181 267.825 146.124 271.055 150.503 274.966C150.503 274.966 150.503 275.284 150.283 275.161H150.088Z" fill="#E8E3DB"/>
<path d="M105.096 234.985C107.174 239.516 108.471 244.366 108.933 249.33C109.422 254.438 109.349 259.57 109.984 264.678C110.539 269.828 112.297 274.775 115.116 279.121C117.95 283.138 121.14 286.893 124.647 290.338L123.792 290.998C120.854 284.43 118.76 277.516 117.56 270.421C116.387 263.334 115.971 256.295 113.454 249.477C113.21 248.841 114.261 248.402 114.554 249.012C117.56 255.269 117.584 262.576 118.562 269.297C119.594 276.6 121.642 283.724 124.647 290.46C124.892 290.974 124.256 291.585 123.792 291.12C120.291 287.743 117.086 284.072 114.212 280.147C111.44 276.133 109.603 271.548 108.835 266.73C108.053 261.696 108.102 256.588 107.784 251.505C107.461 245.934 106.376 240.433 104.559 235.156C104.559 234.911 104.876 234.74 104.974 234.985H105.096Z" fill="#E8E3DB"/>
<path d="M72.3047 315.145C73.5999 307.203 77.1924 299.675 79.6363 292.002C80.956 287.725 81.6647 283.277 82.8133 278.952C84.6309 273.214 85.7068 267.268 86.0147 261.258C86.3827 254.242 87.2896 247.264 88.7274 240.387C88.7274 239.679 89.9249 239.996 89.8272 240.705C88.4464 247.145 87.5559 253.681 87.1634 260.256C87.0438 265.946 86.156 271.593 84.524 277.045C83.2776 281.64 82.4467 286.356 81.127 290.926C79.9051 295.081 78.4143 299.138 76.9969 303.146C75.5795 307.154 73.9176 311.21 72.8179 315.365C72.8179 315.634 72.378 315.512 72.4269 315.243L72.3047 315.145Z" fill="#E8E3DB"/>
<path d="M72.1502 315.462C76.4758 308.252 80.9236 301.116 84.6872 293.467C86.697 289.557 88.3335 285.466 89.5749 281.248C91.0496 275.114 91.6745 268.807 91.4322 262.503C91.4931 258.995 91.3462 255.486 90.9923 251.995C90.5524 248.182 89.6238 244.541 88.8417 240.802C88.8061 240.669 88.8247 240.527 88.8934 240.408C88.9622 240.289 89.0754 240.202 89.2083 240.167C89.3412 240.131 89.4828 240.15 89.6019 240.218C89.7211 240.287 89.8081 240.4 89.8437 240.533C91.6335 246.723 92.5708 253.128 92.6297 259.571C92.9539 265.917 92.5521 272.28 91.4322 278.535C88.9884 287.724 85.121 296.473 79.9705 304.465C77.7724 308.405 75.2636 312.164 72.4679 315.706C72.3212 315.877 72.028 315.706 72.1502 315.462Z" fill="#E8E3DB"/>
<path d="M72.1797 314.635C72.6643 311.548 72.8199 308.419 72.644 305.3C72.644 303.149 72.7907 300.974 72.9862 298.799C73.4261 293.911 74.1348 289.023 74.9901 284.136C76.6047 274.436 79.108 264.906 82.4683 255.665C83.617 252.586 84.7411 249.482 85.6942 246.329C86.6473 243.177 87.3072 240 88.1381 236.896C88.1705 236.77 88.2518 236.661 88.3641 236.595C88.4764 236.528 88.6105 236.509 88.7368 236.542C88.8632 236.574 88.9716 236.655 89.038 236.768C89.1045 236.88 89.1236 237.014 89.0912 237.14C86.9162 247.624 82.4195 257.351 79.6579 267.64C76.9744 277.583 75.0867 287.725 74.0126 297.968C73.7682 300.412 73.6216 302.734 73.5483 305.129C73.6316 308.36 73.2948 311.588 72.5463 314.733C72.5324 314.77 72.5074 314.803 72.4746 314.825C72.4418 314.848 72.4029 314.86 72.363 314.86C72.3231 314.86 72.2841 314.848 72.2514 314.825C72.2186 314.803 72.1936 314.77 72.1797 314.733V314.635Z" fill="#E8E3DB"/>
<path d="M73.9141 308.299C74.134 302.165 76.3579 296.226 77.5065 290.239C78.3863 285.351 78.9728 280.292 79.8282 275.356C80.6648 269.754 81.9229 264.223 83.5917 258.811C84.5449 255.927 85.7179 253.116 86.7443 250.257C87.7422 247.312 88.5584 244.309 89.1882 241.264C89.2224 241.161 89.2913 241.074 89.3831 241.016C89.4748 240.959 89.5837 240.936 89.6909 240.95C89.7981 240.965 89.8969 241.016 89.9702 241.096C90.0435 241.175 90.0867 241.278 90.0924 241.386C90.0924 246.469 87.6486 251.577 85.8645 256.269C83.982 261.562 82.5593 267.008 81.6122 272.545C80.5858 278.093 79.6327 283.689 78.8018 289.261C78.263 292.222 77.5614 295.151 76.7001 298.035C75.5917 301.393 74.7099 304.822 74.0607 308.299H73.9141Z" fill="#E8E3DB"/>
<path d="M86.9807 243.44C85.2198 248.091 82.5628 252.35 79.1603 255.977C75.6624 260.119 71.9164 264.044 67.943 267.732C63.7873 271.519 59.8696 275.559 56.2125 279.829C52.851 284.4 50.3652 289.554 48.8809 295.03L47.8789 294.615C50.0207 291.096 52.5362 287.818 55.3816 284.839C58.493 281.866 61.8625 279.175 65.4503 276.799C72.5934 271.844 78.2265 265.01 81.7264 257.052C82.0441 256.319 83.2416 256.637 82.9239 257.37C79.7351 264.799 74.6848 271.28 68.2607 276.188C64.5216 279.047 60.5137 281.515 57.0434 284.717C53.773 287.728 51.0159 291.253 48.8809 295.152C48.5876 295.714 47.7567 295.323 47.9033 294.737C49.062 289.574 51.2116 284.686 54.2329 280.342C57.6766 276.023 61.4604 271.986 65.548 268.27C69.5559 264.384 73.6372 260.572 77.3274 256.393C79.1699 254.354 80.8684 252.19 82.4107 249.916C83.8525 247.766 85.0011 245.42 86.443 243.245C86.6141 243.025 87.0051 243.245 86.9318 243.44H86.9807Z" fill="#E8E3DB"/>
<path d="M66.2369 190.531C66.2657 195.863 65.8899 201.19 65.1127 206.465C64.5111 211.574 63.3976 216.609 61.7891 221.495C60.1273 226.138 57.2924 230.073 55.2151 234.496C53.2953 239.352 52.0615 244.452 51.5493 249.648C51.5493 250.039 50.8162 250.039 50.7428 249.648C48.7922 239.934 49.6397 229.866 53.1867 220.615C54.0421 218.367 55.0929 216.216 56.0949 214.017C57.1329 211.447 57.9027 208.777 58.3921 206.05C59.5911 201.158 61.5277 196.477 64.1352 192.169C64.4285 191.655 65.1127 192.169 64.8928 192.608C62.5487 197.175 60.6657 201.965 59.2719 206.905C58.9026 209.199 58.305 211.45 57.4879 213.626C56.5348 215.923 55.3617 218.147 54.4331 220.468C50.4924 229.606 49.4848 239.742 51.5493 249.477L50.7184 249.599C50.9247 244.601 51.9569 239.671 53.7732 235.009C55.7039 230.488 58.8076 226.603 60.5916 222.008C64.4529 212.086 65.0394 201.04 65.7237 190.531C65.7427 190.465 65.7827 190.406 65.8379 190.365C65.893 190.323 65.9601 190.301 66.0292 190.301C66.0982 190.301 66.1654 190.323 66.2205 190.365C66.2756 190.406 66.3157 190.465 66.3347 190.531H66.2369Z" fill="#E8E3DB"/>
<path d="M153.092 36.9877C153.361 58.4428 159.589 79.4007 171.078 97.5221L170.052 98.133C167.926 94.5161 168.121 90.1905 167.608 86.1581C167.073 81.1982 166.116 76.2928 164.749 71.495C162.305 63.0636 158.346 55.2922 155.584 47.0563C153.974 42.8851 153.146 38.453 153.141 33.9817C153.141 33.8132 153.207 33.6516 153.327 33.5324C153.446 33.4133 153.607 33.3463 153.776 33.3463C153.944 33.3463 154.106 33.4133 154.225 33.5324C154.344 33.6516 154.411 33.8132 154.411 33.9817C154.802 44.3925 159.861 53.8258 163.478 63.308C165.609 68.9031 167.165 74.7005 168.121 80.6106C168.586 83.4699 168.903 86.3292 169.123 89.2129C169.092 92.0917 169.737 94.9377 171.005 97.5221C171.045 97.5895 171.072 97.6641 171.083 97.7417C171.094 97.8193 171.09 97.8984 171.071 97.9744C171.052 98.0505 171.017 98.1219 170.971 98.1848C170.924 98.2476 170.865 98.3006 170.797 98.3408C170.73 98.3809 170.655 98.4073 170.578 98.4186C170.5 98.4299 170.421 98.4258 170.345 98.4065C170.269 98.3872 170.198 98.3531 170.135 98.3062C170.072 98.2593 170.019 98.2004 169.979 98.133C164.299 89.1259 159.884 79.3817 156.855 69.1733C153.593 58.7634 152.033 47.8949 152.236 36.9877C152.26 36.8857 152.318 36.7947 152.4 36.7296C152.482 36.6646 152.584 36.6291 152.688 36.6291C152.793 36.6291 152.895 36.6646 152.977 36.7296C153.059 36.7947 153.117 36.8857 153.141 36.9877H153.092Z" fill="#E8E3DB"/>
</svg>
