<svg width="110" height="204" viewBox="0 0 110 204" fill="none" xmlns="http://www.w3.org/2000/svg">
<path d="M46.2617 202.968C48.8528 198.344 50.8988 193.434 52.3585 188.339C54.1094 182.833 55.4643 177.209 56.4126 171.51C56.8025 169.329 57.044 167.124 57.1354 164.91C57.1275 161.423 56.9229 157.94 56.5226 154.476C55.8155 146.132 54.527 137.836 54.3227 129.46C54.0524 113.482 56.7154 97.5892 62.1794 82.5715C67.3881 68.3402 74.486 54.8737 83.2826 42.5337C91.6107 30.7172 101.274 19.4663 106.853 5.95279C107.528 4.28715 108.188 2.59012 108.817 0.893063C108.857 0.747204 108.952 0.623044 109.084 0.547894C109.215 0.472745 109.37 0.452771 109.516 0.492367C109.662 0.531949 109.786 0.627881 109.861 0.759015C109.936 0.890149 109.956 1.04576 109.917 1.19162C107.875 8.0722 104.773 14.5928 100.724 20.5191C96.7961 26.6788 92.3649 32.4928 88.0595 38.3853C78.8784 50.5641 71.2706 63.8526 65.4164 77.936C59.3389 92.7785 55.9702 108.59 55.4698 124.621C55.5139 132.951 56.0385 141.272 57.0411 149.542C57.6382 155.828 58.5025 162.349 57.654 168.681C56.8841 174.133 55.6969 179.517 54.1027 184.787C52.6089 190.135 50.6476 195.34 48.2416 200.344C47.7388 201.334 47.2045 202.308 46.6703 203.251C46.5288 203.471 46.1517 203.251 46.3089 203.031L46.2617 202.968Z" fill="#E8E3DB"/>
<path d="M97.8301 24.2884C96.5259 28.0911 95.1588 31.8466 94.2003 35.7592C93.2403 39.7335 92.5681 43.7719 92.189 47.8429C91.4608 55.9312 91.9107 64.0825 93.5246 72.0416C94.4391 76.5389 95.7376 80.9496 97.4058 85.2251C97.6258 85.7751 96.7302 86.0265 96.5102 85.4766C90.568 70.0937 89.3319 53.2917 92.9589 37.2049C93.8909 32.6718 95.3354 28.2594 97.2644 24.0527C97.299 23.9805 97.3597 23.9243 97.4344 23.8954C97.509 23.8664 97.5918 23.8671 97.666 23.8972C97.7401 23.9272 97.8 23.9844 97.8334 24.0571C97.8669 24.1298 97.8713 24.2126 97.8458 24.2884H97.8301Z" fill="#E8E3DB"/>
<path d="M96.6389 84.927C92.9462 78.9402 89.4735 72.6077 88.1379 65.6152C86.9581 58.346 87.5621 50.899 89.8978 43.915C90.9889 39.9996 92.4954 36.2121 94.3918 32.617C94.4286 32.5721 94.4791 32.5404 94.5355 32.5267C94.592 32.5131 94.6513 32.5182 94.7046 32.5413C94.7579 32.5644 94.8022 32.6042 94.8308 32.6547C94.8594 32.7052 94.8708 32.7637 94.8632 32.8213C93.7004 36.1682 92.1605 39.3581 91.0606 42.7207C89.9076 46.1379 89.0867 49.6583 88.6093 53.233C87.6924 60.3917 88.7407 67.665 91.642 74.2733C93.2133 77.8717 95.0518 81.3287 96.8117 84.817C96.8117 84.9427 96.7017 85.037 96.6389 84.927Z" fill="#E8E3DB"/>
<path d="M96.5735 84.9137C94.715 79.0486 93.8441 72.9153 93.9965 66.7647C93.9965 63.3706 94.3265 59.9922 94.185 56.6138C94.0436 53.2354 93.6351 49.9513 93.3365 46.6201C92.9204 42.8735 92.8572 39.0962 93.1479 35.3378C93.1479 34.8193 94.0122 34.8193 93.965 35.3378C93.3522 41.8903 94.5307 48.3957 94.9707 54.9167C95.1592 58.2191 95.1592 61.5296 94.9707 64.8319C94.8291 68.0757 94.9079 71.3254 95.2064 74.5585C95.5818 78.0128 96.1483 81.4436 96.9034 84.8351C96.9034 84.8726 96.8885 84.9086 96.862 84.9351C96.8355 84.9617 96.7995 84.9766 96.762 84.9766C96.7245 84.9766 96.6886 84.9617 96.662 84.9351C96.6355 84.9086 96.6206 84.8726 96.6206 84.8351L96.5735 84.9137Z" fill="#E8E3DB"/>
<path d="M96.8712 85.3691C96.2844 83.2162 96.1033 80.9729 96.337 78.7537C96.337 75.611 96.5727 72.4683 96.7141 69.1999C96.8555 65.9315 96.9812 62.6631 96.8869 59.3947C96.7222 55.8741 96.233 52.3761 95.4256 48.9453C94.907 46.5254 94.3571 44.0899 93.9642 41.6386C93.7914 40.5072 93.6342 39.3758 93.54 38.2287C93.3356 36.9852 93.3356 35.7167 93.54 34.4732C93.54 34.4149 93.5631 34.3589 93.6044 34.3177C93.6457 34.2764 93.7016 34.2532 93.76 34.2532C93.8183 34.2532 93.8743 34.2764 93.9155 34.3177C93.9568 34.3589 93.9799 34.4149 93.9799 34.4732C94.1163 35.4733 94.1898 36.4809 94.1999 37.4902C94.2678 38.6905 94.399 39.8864 94.5928 41.0729C94.9385 43.3513 95.4256 45.5983 95.9127 47.8454C96.7184 51.2431 97.244 54.7011 97.484 58.1848C97.7826 64.5959 97.2169 71.0227 96.9812 77.4338C96.8869 80.0736 96.9812 82.7135 96.9812 85.2905C96.9812 85.3155 96.9713 85.3395 96.9536 85.3572C96.9359 85.3748 96.9119 85.3848 96.8869 85.3848C96.8619 85.3848 96.8379 85.3748 96.8203 85.3572C96.8026 85.3395 96.7926 85.3155 96.7926 85.2905L96.8712 85.3691Z" fill="#E8E3DB"/>
<path d="M91.9704 39.6109C91.2586 40.7924 90.7289 42.0743 90.3991 43.4136C89.9153 44.7266 89.3592 46.0118 88.7334 47.2634C87.2602 49.8981 85.9636 52.6278 84.8522 55.4344C83.9286 58.5455 83.4007 61.7607 83.2809 65.0038C83.0295 68.3665 82.799 71.7397 82.5895 75.1233C82.113 78.9721 82.0761 82.8627 82.4795 86.7198L81.6938 86.8298C81.7513 85.5957 82.1188 84.396 82.7623 83.3414C83.548 81.6287 84.1923 79.8688 84.8208 78.1089C86.5044 73.918 87.5633 69.5025 87.9635 65.0038C87.9635 64.501 88.7806 64.501 88.7492 65.0038C88.3682 69.3166 87.3625 73.5511 85.7636 77.5746C85.1508 79.3031 84.5694 81.063 83.8151 82.7286C83.0249 83.9501 82.5498 85.3484 82.4323 86.7984C82.4323 87.2384 81.7252 87.3484 81.6467 86.9084C81.2248 83.5134 81.1931 80.0812 81.5524 76.6789C81.7252 73.112 81.9924 69.5293 82.2595 65.9624C82.3661 62.6185 82.8244 59.2952 83.6266 56.0472C84.6104 53.1427 85.8789 50.3426 87.4135 47.6876C88.2642 46.1304 88.9995 44.5128 89.6134 42.8479C89.8476 41.4626 90.5391 40.1958 91.5776 39.2495C91.7976 39.0924 92.1118 39.3909 91.9547 39.6109H91.9704Z" fill="#E8E3DB"/>
<path d="M24.984 49.9631C34.522 44.0863 45.4114 41.1793 56.2223 38.3666C66.5617 35.6639 77.0112 32.9612 86.5807 28.0743C91.8725 25.4541 96.6979 21.9823 100.864 17.7977C101.461 17.1849 102.436 18.1277 101.791 18.7405C86.3449 34.6425 63.1205 36.7638 42.9916 42.9078C36.7946 44.7212 30.7939 47.1479 25.0782 50.1517C25.0549 50.1558 25.0309 50.1522 25.0097 50.1416C24.9886 50.1309 24.9714 50.1137 24.9608 50.0925C24.9502 50.0713 24.9468 50.0473 24.9509 50.024C24.9551 50.0007 24.9667 49.9793 24.984 49.9631Z" fill="#E8E3DB"/>
<path d="M24.9861 49.9649C32.3557 47.5451 40.2281 47.2936 47.7077 45.2509C55.0904 43.2453 62.2546 40.5081 69.0937 37.0799C72.9435 35.21 76.7148 33.1987 80.4546 31.1088C80.5486 31.0719 80.6528 31.0697 80.7483 31.1028C80.8438 31.1358 80.9243 31.2018 80.9755 31.289C81.0266 31.3761 81.045 31.4787 81.0273 31.5781C81.0096 31.6776 80.9569 31.7675 80.8788 31.8316C74.2787 35.588 67.457 38.9411 60.4513 41.8725C53.3478 44.7849 45.9195 46.8319 38.3268 47.9693C33.8799 48.645 29.433 49.2264 25.0175 50.1221C25.0007 50.1147 24.9864 50.1026 24.9763 50.0873C24.9663 50.0719 24.9609 50.054 24.9609 50.0356C24.9609 50.0173 24.9663 49.9993 24.9763 49.984C24.9864 49.9686 25.0007 49.9566 25.0175 49.9492L24.9861 49.9649Z" fill="#E8E3DB"/>
<path d="M24.4509 50.2632C26.7433 47.6152 29.4889 45.3964 32.559 43.7107C35.5793 41.9124 38.7622 40.4024 42.0656 39.201C49.5725 36.6389 57.3683 35.0185 65.2744 34.3769C69.832 34.0667 74.3422 33.2606 78.7251 31.9728C79.2594 31.7999 79.495 32.6485 78.9608 32.837C75.3349 33.9482 71.5997 34.6647 67.82 34.9741C63.813 35.3983 59.8218 35.7754 55.862 36.5454C48.2982 37.6805 40.985 40.104 34.2403 43.7107C30.8673 45.755 27.6384 48.0283 24.5766 50.5146C24.4666 50.5146 24.3723 50.5146 24.4509 50.3418V50.2632Z" fill="#E8E3DB"/>
<path d="M24.9853 50.1553C29.1179 49.7625 33.2977 49.7468 37.4303 49.4011C41.5835 49.0884 45.7102 48.4899 49.7811 47.6097C53.8375 46.7325 57.7845 45.4098 61.5504 43.6657C65.3408 41.7952 69.0141 39.6963 72.5498 37.3803L85.2777 29.225C85.7491 28.9265 86.1891 29.6807 85.7177 29.9793L74.0426 37.3803C70.4426 39.7655 66.7185 41.958 62.8861 43.9485C55.4029 47.3882 47.3476 49.4127 39.1274 49.9196C34.4305 50.4134 29.7063 50.5971 24.9853 50.4696C24.9436 50.4696 24.9036 50.453 24.8741 50.4236C24.8447 50.3941 24.8281 50.3541 24.8281 50.3125C24.8281 50.2708 24.8447 50.2308 24.8741 50.2013C24.9036 50.1719 24.9436 50.1553 24.9853 50.1553Z" fill="#E8E3DB"/>
<path d="M84.6934 30.0102C79.4885 35.6883 74.5794 41.6306 69.9856 47.8136C67.8486 50.6643 65.5341 53.3776 63.056 55.9374C60.479 58.5144 57.6034 60.7614 54.8536 63.1342C51.7142 65.8412 48.8172 68.8171 46.1955 72.028C45.8812 72.4208 45.2055 71.918 45.5041 71.4937C46.4124 69.9074 47.0697 68.19 47.4525 66.4026C47.9376 64.847 48.5363 63.3292 49.2439 61.8614C50.7435 58.823 52.6233 55.9876 54.8379 53.4233C59.7968 48.0149 65.3529 43.1862 71.3998 39.0297C75.0453 36.327 78.6909 33.64 82.085 30.6388C82.5878 30.1988 83.3106 30.9216 82.8078 31.3616C71.9027 40.9939 57.6663 47.955 50.6109 61.2171C49.6758 62.9581 48.9077 64.7838 48.3168 66.6697C47.8971 68.5295 47.1977 70.315 46.2426 71.9651L45.5355 71.4151C47.8607 68.5767 50.3978 65.9187 53.1251 63.4641C55.8278 61.0443 58.7191 58.7501 61.3747 56.3302C66.8115 51.2391 71.0227 44.8909 75.6896 39.0455C78.1764 35.597 81.038 32.4349 84.222 29.6174C84.4734 29.4131 84.8034 29.7274 84.5834 29.9631L84.6934 30.0102Z" fill="#E8E3DB"/>
<path d="M76.5565 54.5728C74.2938 58.9882 70.0512 62.3038 66.0443 65.0851C61.4874 68.2277 56.6162 71.0405 51.9022 73.8532C47.1881 76.6659 42.097 79.51 37.3201 82.5427C32.4773 85.4553 27.9118 88.8059 23.6808 92.5522C18.9668 96.8419 16.0598 102.294 13.1057 107.794L12.1943 107.26C16.7355 100.11 23.7908 95.3806 30.8461 90.9651C38.898 86.1081 46.6436 80.7607 54.0392 74.9531C58.0939 71.6417 61.9553 68.1004 65.6043 64.3465C66.0443 63.8908 66.7199 64.5665 66.2957 65.0379C59.9437 71.7692 52.8482 77.7577 45.1454 82.8884C41.4056 85.4968 37.5872 87.9795 33.7374 90.3994C29.8876 92.8193 26.4464 94.862 23.0209 97.3919C19.042 100.148 15.668 103.688 13.1057 107.794C13.0252 107.894 12.9119 107.961 12.7861 107.984C12.6604 108.006 12.5306 107.983 12.4203 107.919C12.3101 107.854 12.2266 107.752 12.1852 107.631C12.1437 107.51 12.1469 107.379 12.1943 107.26C14.5243 102.343 17.5109 97.7654 21.0724 93.6521C24.9954 89.7483 29.3559 86.3105 34.0674 83.4069C43.4955 77.1216 53.5835 72.0304 63.0901 65.9336C65.5882 64.3808 67.977 62.6588 70.2397 60.7796C72.4467 58.8306 74.4716 56.6847 76.2894 54.3685C76.4151 54.1956 76.6508 54.3685 76.5565 54.5728Z" fill="#E8E3DB"/>
<path d="M12.5407 107.917C12.4623 105.487 12.8738 103.066 13.7506 100.799C14.4928 98.4808 15.4777 96.2476 16.689 94.1364C19.0278 90.0678 22.1526 86.5051 25.8814 83.6555C33.3295 77.9358 42.5062 75.1231 51.07 71.6505C55.9351 69.8204 60.5958 67.4874 64.9764 64.6894C65.4635 64.3594 65.9035 65.1451 65.4321 65.4594C50.4572 75.5945 29.2912 76.6002 18.6218 92.7222C17.102 95.039 15.8525 97.5222 14.8977 100.123C13.9549 102.669 13.6092 105.372 12.7292 107.98C12.7292 108.005 12.7193 108.029 12.7016 108.047C12.6839 108.064 12.6599 108.074 12.6349 108.074C12.6099 108.074 12.586 108.064 12.5683 108.047C12.5506 108.029 12.5407 108.005 12.5407 107.98V107.917Z" fill="#E8E3DB"/>
<path d="M12.7306 108.072C13.2926 106.542 14.4164 105.284 15.8733 104.553C17.7432 103.374 19.6917 102.274 21.6402 101.221C25.5685 99.0529 29.5912 97.0416 33.4252 94.7003C40.7167 90.0897 47.3504 84.5131 53.1456 78.1226C56.414 74.6185 59.5567 70.9573 62.6994 67.2646C63.0451 66.8561 63.6265 67.4375 63.2808 67.846C57.9779 74.3997 52.2008 80.555 45.996 86.2622C42.9613 88.9971 39.7315 91.5074 36.3322 93.7732C32.6553 96.2088 28.7426 98.283 24.8614 100.341C22.6615 101.52 20.4617 102.683 18.3089 103.924C16.4076 105.024 14.0506 106.14 13.0763 108.23C12.9821 108.434 12.6521 108.23 12.7149 108.072H12.7306Z" fill="#E8E3DB"/>
<path d="M43.3243 88.1349C40.7437 92.394 39.425 97.2981 39.5217 102.277C39.616 106.802 40.5431 111.249 41.093 115.728H40.5431C41.1366 111.895 42.0405 108.116 43.2458 104.43C44.4557 100.941 45.8856 97.5316 47.2998 94.1218C49.7583 87.6739 52.597 81.3775 55.8008 75.2656C55.8612 75.1635 55.9598 75.0896 56.0747 75.0601C56.1896 75.0307 56.3115 75.0481 56.4136 75.1085C56.5157 75.1689 56.5897 75.2674 56.6191 75.3824C56.6486 75.4973 56.6312 75.6192 56.5708 75.7213C53.3448 81.8336 50.4801 88.1298 47.9912 94.5774C46.4985 98.0501 45.0528 101.507 43.8429 104.948C42.6409 108.499 41.7009 112.134 41.0302 115.822C41.0302 116.152 40.4959 116.042 40.4802 115.822C40.0245 111.108 38.9089 106.504 38.8303 101.774C38.7146 96.8664 40.2532 92.0623 43.1986 88.1349H43.3086H43.3243Z" fill="#E8E3DB"/>
<path d="M108.659 136.421C100.598 128.878 91.2326 122.891 83.5173 115.003C77.0771 108.729 71.9259 101.256 68.3538 93.0044C66.3202 87.9785 65.0184 82.6868 64.4883 77.291C64.4883 76.6939 65.3525 76.7096 65.4154 77.291C66.5732 86.561 69.9001 95.4275 75.1263 103.171C80.6906 111.033 87.3831 118.033 94.9881 123.944C99.91 127.722 104.63 131.756 109.13 136.028C109.382 136.279 108.989 136.656 108.737 136.421H108.659Z" fill="#E8E3DB"/>
<path d="M107.823 135.495C100.577 132.433 93.7967 128.371 87.6784 123.427C82.0379 118.588 77.4311 112.661 74.1334 106.001C71.9964 101.695 70.1894 97.2328 68.288 92.833C68.068 92.3616 68.7752 91.9373 68.9794 92.4244C72.1221 99.684 75.0448 107.164 79.7588 113.606C84.3085 119.693 89.9974 124.837 96.5094 128.754C100.249 131.048 104.162 133.075 107.964 135.244C108.137 135.338 107.964 135.574 107.823 135.495Z" fill="#E8E3DB"/>
<path d="M108.785 136.264C104.731 130.057 99.2468 125.076 93.6528 120.362C87.8305 115.479 82.3249 110.23 77.1694 104.648C75.8076 103.14 74.4877 101.6 73.2096 100.028C71.7704 98.3813 70.4172 96.661 69.1556 94.8743C68.8885 94.4815 69.5013 93.9944 69.8155 94.3558C71.1355 95.8328 72.2511 97.4985 73.4925 99.0698C74.7339 100.641 75.7709 101.898 76.9652 103.265C79.6522 106.408 82.5434 109.252 85.4818 112.096C88.106 114.626 90.7301 117.109 93.4643 119.497C96.1984 121.886 98.7754 124.211 101.321 126.615C104.265 129.48 106.841 132.7 108.989 136.201C108.989 136.201 108.989 136.358 108.848 136.201L108.785 136.264Z" fill="#E8E3DB"/>
<path d="M108.658 136.341C107.1 132.998 105.108 129.876 102.734 127.054C100.802 124.776 98.6645 122.654 96.6218 120.47C93.9114 117.474 91.0422 114.626 88.0266 111.938C85.1981 109.502 82.0869 107.412 79.2427 104.992C77.6714 103.594 76.0058 102.148 74.4187 100.687C72.9164 99.3941 71.5333 97.9689 70.2861 96.4285C70.1761 96.2714 70.4118 96.0357 70.5689 96.1614C71.911 97.2068 73.1862 98.3351 74.3873 99.5398C75.8329 100.891 77.2786 102.258 78.7556 103.562C81.6312 106.108 84.7582 108.276 87.6809 110.791C90.7177 113.45 93.5981 116.283 96.3075 119.276C98.3974 121.523 100.582 123.707 102.593 126.033C105.23 129.042 107.407 132.426 109.051 136.074C109.161 136.341 108.784 136.576 108.658 136.309V136.341Z" fill="#E8E3DB"/>
<path d="M70.5518 96.4565C71.8246 103.355 72.7517 110.316 75.4544 116.884C76.8372 120.199 78.4871 123.405 80.1685 126.611C81.8498 129.816 83.3112 132.802 85.1339 135.756C87.2142 139.125 89.5354 142.338 92.0793 145.372L91.7336 145.655C90.555 143.031 89.2508 140.454 88.1037 137.799C86.9876 135.217 86.1245 132.533 85.5267 129.785C85.1119 127.214 84.4054 124.7 83.4211 122.289C82.2583 119.838 80.8756 117.575 79.7756 115.03C79.5714 114.59 80.2313 114.197 80.4356 114.637C81.5198 117.072 82.8712 119.351 84.0183 121.755C85.0123 124.025 85.7146 126.411 86.1081 128.858C86.621 131.654 87.3998 134.396 88.4337 137.044C89.5808 139.873 90.8065 142.67 92.0635 145.435C92.1578 145.655 91.8907 145.922 91.7178 145.718C87.2304 140.33 83.3568 134.459 80.1685 128.213C76.8372 121.928 73.6002 115.47 72.1232 108.414C71.2942 104.484 70.7065 100.506 70.3633 96.5036C70.3633 96.3622 70.5833 96.315 70.6147 96.5036L70.5518 96.4565Z" fill="#E8E3DB"/>
<path d="M9.06623 161.22C10.6856 156.212 12.9912 151.453 15.9173 147.078C18.5961 143.282 21.6321 139.751 24.9839 136.534C31.6464 129.903 39.126 124.089 45.7571 117.489C47.7056 115.572 49.5912 113.577 51.3825 111.518C53.1739 109.46 54.7138 107.15 56.5208 105.076C56.8979 104.652 57.5422 105.202 57.2908 105.673C56.1226 107.758 54.7202 109.704 53.111 111.471C51.5397 113.278 49.9683 115.038 48.397 116.719C45.05 120.114 41.4831 123.288 37.9004 126.415C31.0022 132.433 23.7583 138.294 18.1643 145.601C14.4758 150.347 11.5056 155.609 9.34907 161.22C9.34907 161.393 9.00338 161.33 9.06623 161.141V161.22Z" fill="#E8E3DB"/>
<path d="M8.75391 161.219C9.41488 157.661 10.4689 154.188 11.8966 150.863C13.0946 147.868 14.6794 145.041 16.6106 142.457C20.6355 137.426 25.4044 133.038 30.7527 129.446C34.0525 127.058 37.4624 124.732 40.7622 122.406C41.3122 122.014 41.8307 122.909 41.2964 123.302C30.6427 130.876 18.7005 137.648 13.1537 150.015C11.5389 153.684 10.2404 157.485 9.27245 161.376C9.19388 161.674 8.76962 161.533 8.81676 161.234L8.75391 161.219Z" fill="#E8E3DB"/>
<path d="M8.76691 161.36C10.9039 158.72 13.4809 156.394 15.8065 153.959C18.0902 151.578 20.231 149.065 22.2176 146.432C26.1303 141.231 29.9801 135.967 33.987 130.844C36.2302 127.936 38.6218 125.146 41.1523 122.485C41.5766 122.06 42.2208 122.72 41.8123 123.145C37.3391 127.932 33.172 132.996 29.3358 138.308C25.5998 143.623 21.5655 148.723 17.2522 153.581C14.6571 156.407 11.9083 159.088 9.01833 161.611C8.98499 161.644 8.93977 161.663 8.89262 161.663C8.84547 161.663 8.80025 161.644 8.76691 161.611C8.73357 161.578 8.71484 161.532 8.71484 161.485C8.71484 161.438 8.73357 161.393 8.76691 161.36Z" fill="#E8E3DB"/>
<path d="M8.90698 161.216C11.5783 159.142 14.4067 157.287 17.0465 155.182C19.698 153.077 22.1828 150.771 24.479 148.284C26.7849 145.794 28.8328 143.077 30.5915 140.175C32.5871 136.86 34.2528 133.403 36.3898 130.182C38.6685 126.636 41.1997 123.26 43.9637 120.078C44.2936 119.732 44.9222 120.204 44.6393 120.612C42.4552 123.755 39.9253 126.709 37.6783 129.883C35.4313 133.057 33.7342 136.498 31.7857 139.845C28.2847 145.654 23.778 150.794 18.4765 155.025C15.5817 157.496 12.4194 159.636 9.0484 161.404C8.9384 161.404 8.79698 161.294 8.90698 161.216Z" fill="#E8E3DB"/>
<path d="M46.7794 116.67C45.4843 117.802 44.1198 118.851 42.6939 119.813C41.2856 120.676 39.7897 121.387 38.2313 121.934C34.9629 123.16 31.5374 123.836 28.1904 124.763C21.7389 126.44 15.5478 128.994 9.78997 132.352C6.58383 134.275 3.62365 136.581 0.974725 139.219L0.456182 138.543C6.42729 134.819 13.5926 134.379 20.2708 132.462C27.3159 130.287 33.9603 126.981 39.9441 122.673C40.3997 122.359 40.824 123.097 40.384 123.411C34.5059 127.631 27.9992 130.898 21.1036 133.091C14.3626 135.134 6.96155 135.479 0.880445 139.298C0.836079 139.332 0.785441 139.357 0.731423 139.371C0.677405 139.386 0.621064 139.389 0.565617 139.382C0.51017 139.375 0.456704 139.357 0.408269 139.329C0.359835 139.301 0.317382 139.264 0.283334 139.219C0.249286 139.175 0.22431 139.124 0.209831 139.07C0.195353 139.016 0.191656 138.96 0.198952 138.904C0.213686 138.792 0.2723 138.691 0.361901 138.622C5.02379 134.124 10.5009 130.556 16.4996 128.11C19.4407 126.883 22.4526 125.834 25.5191 124.967C28.8032 123.993 32.1659 123.286 35.45 122.327C37.3677 121.804 39.2185 121.06 40.9654 120.112C42.8586 118.985 44.6653 117.719 46.3709 116.325C46.6537 116.105 47.078 116.498 46.7794 116.733V116.67Z" fill="#E8E3DB"/>
<path d="M96.6984 177.274C94.1521 173.796 91.3303 170.527 88.2603 167.501C85.2433 164.547 81.9749 161.922 78.7065 159.22C72.4571 153.991 66.9346 147.951 62.286 141.259C59.4643 137.285 56.8928 133.139 54.5864 128.846C54.5522 128.762 54.5495 128.668 54.5786 128.582C54.6078 128.496 54.6669 128.424 54.7452 128.378C54.8235 128.332 54.9156 128.316 55.0048 128.333C55.0939 128.349 55.1741 128.398 55.2306 128.468C59.424 135.826 64.2673 142.794 69.7027 149.289C75.2653 155.574 81.8649 160.76 87.8832 166.574C91.2183 169.793 94.2191 173.341 96.8398 177.164C96.8398 177.164 96.8398 177.322 96.6984 177.164V177.274Z" fill="#E8E3DB"/>
<path d="M96.5281 177.604C94.5325 175.514 92.6469 173.345 90.447 171.428C88.2472 169.511 85.9373 167.751 83.6431 165.929C78.9593 162.436 74.7356 158.365 71.0724 153.813C68.9828 151.096 67.1471 148.193 65.5884 145.14C65.337 144.668 66.0441 144.244 66.2955 144.715C69.0692 150.15 72.716 155.092 77.0906 159.345C81.2233 163.367 86.0316 166.557 90.4156 170.344C92.9627 172.287 95.1577 174.652 96.9053 177.337C96.9275 177.391 96.9313 177.451 96.9161 177.507C96.9009 177.564 96.8675 177.614 96.821 177.65C96.7746 177.685 96.7177 177.705 96.6591 177.705C96.6005 177.705 96.5434 177.686 96.4967 177.651L96.5281 177.604Z" fill="#E8E3DB"/>
<path d="M96.2463 176.617C93.9993 173.396 91.7679 170.143 89.4424 166.985C87.2934 163.861 84.7534 161.025 81.8842 158.547C79.0243 156.19 75.8502 154.241 72.9747 151.916C71.5605 150.784 70.1934 149.606 68.8735 148.38C67.4125 147.121 66.0517 145.75 64.8037 144.279C64.7316 144.194 64.6944 144.085 64.6997 143.974C64.705 143.862 64.7523 143.757 64.8321 143.679C64.9118 143.602 65.0181 143.557 65.1295 143.554C65.2409 143.552 65.3491 143.592 65.4322 143.666C66.8779 144.923 68.1664 146.369 69.5806 147.673C70.9948 148.977 72.4718 150.219 73.9803 151.413C76.8402 153.691 79.9829 155.765 82.7799 158.075C85.4992 160.469 87.8971 163.205 89.9138 166.215C92.2551 169.515 94.4864 172.877 96.5134 176.381C96.6077 176.554 96.3563 176.68 96.2463 176.539V176.617Z" fill="#E8E3DB"/>
<path d="M96.34 177.215C91.0288 172.706 84.0363 170.93 78.5052 166.687C73.4487 162.567 69.4736 157.276 66.9244 151.273C65.353 147.847 64.4417 144.013 62.3203 140.855C62.1318 140.556 62.556 140.242 62.8075 140.477C65.1173 142.803 65.8087 146.464 67.0658 149.387C68.3571 152.417 69.9356 155.316 71.7798 158.045C73.6233 160.803 75.8389 163.294 78.3638 165.446C81.0817 167.607 84.0396 169.447 87.179 170.93C90.6131 172.498 93.7914 174.575 96.6071 177.09C96.6071 177.09 96.6071 177.294 96.4657 177.215H96.34Z" fill="#E8E3DB"/>
<path d="M67.4082 151.378C68.7439 154.292 69.5779 157.411 69.8752 160.602C70.1895 163.886 70.1423 167.186 70.5509 170.47C70.9077 173.782 72.038 176.963 73.8507 179.757C75.6729 182.34 77.7239 184.754 79.9789 186.969L79.429 187.393C77.5398 183.17 76.1934 178.725 75.422 174.163C74.6678 169.606 74.4007 165.08 72.7822 160.696C72.6251 160.288 73.3007 160.005 73.4893 160.398C75.422 164.42 75.4378 169.119 76.0663 173.44C76.7299 178.136 78.0469 182.716 79.9789 187.048C80.1361 187.378 79.7275 187.771 79.429 187.472C77.178 185.301 75.1172 182.94 73.2693 180.417C71.487 177.836 70.3057 174.888 69.8124 171.79C69.3095 168.553 69.3409 165.269 69.1367 162.001C68.9287 158.418 68.2308 154.881 67.0625 151.488C67.0625 151.331 67.2668 151.221 67.3296 151.378H67.4082Z" fill="#E8E3DB"/>
<path d="M46.3242 202.922C47.157 197.815 49.4669 192.975 51.0383 188.041C51.8868 185.291 52.3425 182.432 53.081 179.65C54.2497 175.961 54.9415 172.138 55.1395 168.274C55.376 163.763 55.9591 159.276 56.8836 154.854C56.8836 154.399 57.6536 154.603 57.5908 155.059C56.7029 159.2 56.1304 163.402 55.878 167.63C55.8011 171.288 55.2303 174.919 54.1809 178.425C53.3796 181.379 52.8453 184.411 51.9968 187.35C51.2111 190.021 50.2526 192.63 49.3412 195.207C48.4298 197.784 47.3613 200.392 46.6542 203.063C46.6542 203.236 46.3714 203.158 46.4028 202.985L46.3242 202.922Z" fill="#E8E3DB"/>
<path d="M46.2296 203.127C49.0109 198.491 51.8708 193.903 54.2906 188.984C55.5829 186.47 56.6351 183.84 57.4333 181.128C58.3815 177.184 58.7833 173.129 58.6275 169.076C58.6667 166.82 58.5722 164.563 58.3447 162.319C58.0619 159.867 57.4647 157.526 56.9619 155.122C56.939 155.037 56.9509 154.946 56.9951 154.869C57.0394 154.792 57.1122 154.736 57.1976 154.713C57.283 154.691 57.3741 154.702 57.4507 154.747C57.5273 154.791 57.5832 154.864 57.6062 154.949C58.7569 158.929 59.3596 163.047 59.3975 167.19C59.6059 171.271 59.3476 175.362 58.6275 179.384C57.0562 185.291 54.5696 190.917 51.2579 196.055C49.8446 198.589 48.2315 201.006 46.4339 203.284C46.3396 203.394 46.1511 203.284 46.2296 203.127Z" fill="#E8E3DB"/>
<path d="M46.2461 202.592C46.5577 200.607 46.6578 198.595 46.5447 196.589C46.5447 195.206 46.6389 193.808 46.7646 192.409C47.0475 189.267 47.5032 186.124 48.0531 182.981C49.0913 176.745 50.7008 170.617 52.8615 164.675C53.6 162.695 54.3228 160.699 54.9356 158.672C55.5485 156.645 55.9727 154.603 56.507 152.607C56.5278 152.526 56.5801 152.456 56.6523 152.413C56.7245 152.371 56.8107 152.358 56.892 152.379C56.9732 152.4 57.0429 152.452 57.0856 152.525C57.1283 152.597 57.1406 152.683 57.1198 152.764C55.7213 159.505 52.83 165.759 51.0544 172.375C49.329 178.768 48.1152 185.289 47.4246 191.875C47.2675 193.446 47.1732 194.939 47.126 196.479C47.1797 198.557 46.9631 200.632 46.4818 202.654C46.4729 202.678 46.4568 202.699 46.4357 202.714C46.4147 202.728 46.3896 202.736 46.3639 202.736C46.3383 202.736 46.3132 202.728 46.2922 202.714C46.2711 202.699 46.255 202.678 46.2461 202.654V202.592Z" fill="#E8E3DB"/>
<path d="M47.3594 198.518C47.5008 194.574 48.9307 190.755 49.6692 186.905C50.2349 183.763 50.6121 180.51 51.162 177.336C51.6999 173.734 52.5088 170.178 53.5819 166.698C54.1947 164.844 54.949 163.037 55.6089 161.198C56.2505 159.305 56.7753 157.373 57.1803 155.416C57.2022 155.35 57.2466 155.293 57.3056 155.257C57.3646 155.22 57.4346 155.205 57.5035 155.214C57.5724 155.223 57.6359 155.256 57.6831 155.308C57.7302 155.359 57.758 155.425 57.7617 155.494C57.7617 158.763 56.1903 162.047 55.0432 165.064C53.8328 168.467 52.9181 171.968 52.3091 175.529C51.6491 179.096 51.0363 182.694 50.5021 186.277C50.1557 188.181 49.7045 190.064 49.1507 191.918C48.438 194.077 47.8711 196.282 47.4537 198.518H47.3594Z" fill="#E8E3DB"/>
<path d="M55.7665 156.816C54.6343 159.807 52.9259 162.545 50.7382 164.877C48.4891 167.54 46.0806 170.064 43.5257 172.435C40.8537 174.87 38.3347 177.468 35.9833 180.214C33.8219 183.153 32.2236 186.466 31.2693 189.987L30.625 189.72C32.0021 187.458 33.6195 185.35 35.449 183.435C37.4496 181.523 39.6161 179.793 41.923 178.265C46.5158 175.079 50.1378 170.685 52.3881 165.569C52.5924 165.097 53.3624 165.302 53.1581 165.773C51.1078 170.55 47.8606 174.717 43.73 177.872C41.3259 179.711 38.7488 181.298 36.5175 183.356C34.4148 185.292 32.642 187.559 31.2693 190.066C31.0807 190.427 30.5464 190.176 30.6407 189.799C31.3857 186.479 32.7678 183.336 34.7105 180.544C36.9247 177.766 39.3576 175.17 41.9858 172.781C44.5628 170.283 47.187 167.831 49.5597 165.144C50.7443 163.834 51.8364 162.442 52.8281 160.98C53.7552 159.598 54.4937 158.089 55.4208 156.691C55.5308 156.549 55.7822 156.691 55.7351 156.816H55.7665Z" fill="#E8E3DB"/>
<path d="M42.4255 122.798C42.444 126.226 42.2023 129.651 41.7027 133.043C41.3158 136.328 40.5999 139.565 39.5656 142.707C38.4971 145.692 36.6744 148.222 35.3387 151.066C34.1043 154.188 33.311 157.467 32.9817 160.809C32.9817 161.06 32.5103 161.06 32.4632 160.809C31.2089 154.563 31.7539 148.089 34.0345 142.141C34.5845 140.695 35.2601 139.313 35.9044 137.898C36.5718 136.246 37.0668 134.53 37.3815 132.776C38.1524 129.631 39.3975 126.621 41.0741 123.85C41.2627 123.521 41.7027 123.851 41.5612 124.133C40.054 127.07 38.8433 130.149 37.9471 133.326C37.7097 134.801 37.3254 136.248 36.8001 137.647C36.1872 139.124 35.433 140.554 34.8359 142.047C32.3021 147.922 31.6542 154.439 32.9817 160.699L32.4474 160.777C32.5801 157.563 33.2438 154.393 34.4116 151.396C35.653 148.489 37.6486 145.991 38.7957 143.037C41.2784 136.657 41.6555 129.554 42.0955 122.798C42.1077 122.755 42.1335 122.717 42.1689 122.691C42.2043 122.664 42.2475 122.65 42.2919 122.65C42.3363 122.65 42.3795 122.664 42.4149 122.691C42.4504 122.717 42.4761 122.755 42.4883 122.798H42.4255Z" fill="#E8E3DB"/>
<path d="M98.2722 24.0706C98.4457 37.8658 102.45 51.3412 109.837 62.9928L109.177 63.3856C107.81 61.0601 107.936 58.2788 107.606 55.6861C107.262 52.4969 106.647 49.3429 105.768 46.258C104.196 40.8369 101.651 35.84 99.875 30.5446C98.8395 27.8626 98.3068 25.0128 98.3036 22.1379C98.3036 22.0295 98.3467 21.9256 98.4233 21.849C98.4999 21.7724 98.6038 21.7293 98.7122 21.7293C98.8205 21.7293 98.9244 21.7724 99.0011 21.849C99.0777 21.9256 99.1207 22.0295 99.1207 22.1379C99.3721 28.8318 102.625 34.8972 104.95 40.994C106.32 44.5915 107.321 48.3191 107.936 52.1191C108.235 53.9576 108.439 55.796 108.58 57.6502C108.56 59.5012 108.974 61.3311 109.79 62.9928C109.816 63.0361 109.833 63.0841 109.84 63.134C109.847 63.1839 109.845 63.2348 109.832 63.2837C109.82 63.3325 109.798 63.3785 109.768 63.4189C109.738 63.4593 109.7 63.4934 109.657 63.5192C109.613 63.545 109.565 63.562 109.515 63.5693C109.465 63.5765 109.415 63.5739 109.366 63.5615C109.317 63.549 109.271 63.5271 109.23 63.497C109.19 63.4668 109.156 63.429 109.13 63.3856C105.479 57.5943 102.639 51.329 100.692 44.7652C98.5945 38.0719 97.5917 31.0837 97.7222 24.0706C97.7376 24.005 97.7747 23.9466 97.8274 23.9047C97.8802 23.8629 97.9456 23.8401 98.0129 23.8401C98.0803 23.8401 98.1457 23.8629 98.1984 23.9047C98.2512 23.9466 98.2883 24.005 98.3036 24.0706H98.2722Z" fill="#E8E3DB"/>
</svg>
