<svg width="271" height="708" viewBox="0 0 271 708" fill="none" xmlns="http://www.w3.org/2000/svg">
<path d="M269.578 354.394C269.578 451.953 254.496 540.253 230.129 604.146C217.945 636.094 203.449 661.914 187.377 679.738C171.306 697.562 153.7 707.349 135.279 707.349C116.858 707.349 99.252 697.562 83.1807 679.738C67.1094 661.914 52.6134 636.094 40.4292 604.146C16.0622 540.253 0.980469 451.953 0.980469 354.394C0.980469 256.835 16.0622 168.534 40.4292 104.641C52.6134 72.6932 67.1094 46.8735 83.1807 29.0496C99.252 11.2255 116.858 1.43848 135.279 1.43848C153.7 1.43848 171.306 11.2255 187.377 29.0496C203.449 46.8735 217.945 72.6932 230.129 104.641C254.496 168.534 269.578 256.835 269.578 354.394Z" stroke="#EDB3C1"/>
</svg>
