<svg width="131" height="131" viewBox="0 0 131 131" fill="none" xmlns="http://www.w3.org/2000/svg">
<path d="M115.736 70.2829C115.814 69.3598 116.084 68.5398 116.545 67.823C117.013 67.1156 117.62 66.5762 118.364 66.205C119.116 65.8432 119.94 65.7005 120.837 65.7768C121.735 65.8531 122.519 66.1327 123.191 66.6156C123.87 67.1079 124.376 67.7418 124.71 68.5175C125.052 69.3026 125.183 70.161 125.104 71.0927C125.037 71.8778 124.839 72.5735 124.509 73.1798C124.179 73.7947 123.736 74.2959 123.182 74.6832L122.054 73.2317C122.814 72.6793 123.232 71.9502 123.309 71.0444C123.357 70.4836 123.274 69.9726 123.062 69.5113C122.857 69.0508 122.546 68.6767 122.127 68.3891C121.708 68.1101 121.218 67.9468 120.657 67.8991C120.096 67.8514 119.586 67.9296 119.125 68.1337C118.664 68.3465 118.289 68.6622 118.002 69.0809C117.723 69.5004 117.559 69.9905 117.512 70.5513C117.435 71.4571 117.728 72.2468 118.392 72.9202L117.035 74.1604C116.546 73.6843 116.19 73.1152 115.968 72.4533C115.746 71.7915 115.669 71.068 115.736 70.2829Z" fill="white"/>
<path d="M113.082 82.9108L118.298 84.4605L114.774 80.6114L115.043 79.7157L120.003 78.4092L114.89 76.877L115.457 74.9859L124.165 77.5956L123.666 79.2627L117.277 80.9005L121.727 85.732L121.227 87.3991L112.515 84.8018L113.082 82.9108Z" fill="white"/>
<path d="M109.122 90.7115C109.587 89.8902 110.185 89.2483 110.914 88.7857C111.639 88.3307 112.418 88.0897 113.249 88.0628C114.083 88.0477 114.888 88.2598 115.664 88.6992C116.44 89.1385 117.033 89.7177 117.442 90.4367C117.854 91.1675 118.051 91.9609 118.034 92.8169C118.013 93.6804 117.77 94.5228 117.305 95.3441C116.84 96.1654 116.245 96.8035 115.52 97.2586C114.794 97.7136 114.012 97.9524 113.174 97.9751C112.343 98.002 111.539 97.7958 110.763 97.3564C109.987 96.9171 109.393 96.332 108.981 95.6012C108.576 94.8747 108.382 94.0834 108.399 93.2274C108.416 92.3714 108.657 91.5328 109.122 90.7115ZM110.682 91.5945C110.418 92.0616 110.284 92.5433 110.282 93.0395C110.287 93.5399 110.422 94.0044 110.687 94.4329C110.947 94.869 111.323 95.2256 111.812 95.5029C112.302 95.7802 112.801 95.9184 113.309 95.9174C113.813 95.924 114.277 95.7986 114.701 95.5414C115.133 95.2883 115.481 94.9282 115.745 94.4611C116.01 93.994 116.139 93.5102 116.134 93.0097C116.137 92.5136 116.007 92.0474 115.747 91.6114C115.482 91.1829 115.105 90.83 114.615 90.5527C114.125 90.2754 113.629 90.1335 113.125 90.1269C112.617 90.1278 112.147 90.2548 111.715 90.5078C111.291 90.7651 110.947 91.1274 110.682 91.5945Z" fill="white"/>
<path d="M107.037 106.021L108.923 103.806L103.307 99.0231L104.654 97.4411L110.27 102.224L112.148 100.019L113.453 101.131L108.342 107.132L107.037 106.021Z" fill="white"/>
<path d="M103.407 111.515C102.79 112.033 102.17 112.378 101.546 112.551C100.916 112.729 100.32 112.732 99.7571 112.56C99.1945 112.388 98.6961 112.043 98.262 111.526C97.8334 111.015 97.5805 110.465 97.5031 109.874C97.4312 109.29 97.5379 108.703 97.823 108.114C98.107 107.536 98.5575 106.989 99.1743 106.471L100.577 105.294L98.9658 103.374L100.578 102.021L106.421 108.986L103.407 111.515ZM100.366 107.709C99.8817 108.116 99.5998 108.527 99.5203 108.944C99.4464 109.368 99.5708 109.772 99.8936 110.157C100.222 110.548 100.598 110.741 101.023 110.735C101.453 110.736 101.91 110.533 102.395 110.127L103.708 109.025L101.679 106.607L100.366 107.709Z" fill="white"/>
<path d="M88.3372 112.664L87.4838 111.207L93.5577 107.649L98.1529 115.493L92.2247 118.966L91.3713 117.509L95.4953 115.093L94.4974 113.39L90.8554 115.524L90.0282 114.112L93.6703 111.978L92.6069 110.163L88.3372 112.664Z" fill="white"/>
<path d="M82.3367 121.125L85.0527 120.082L82.4094 113.195L84.3495 112.451L86.9928 119.338L89.6967 118.3L90.311 119.901L82.951 122.725L82.3367 121.125Z" fill="white"/>
<path d="M75.427 121.368C74.34 121.584 73.4597 121.507 72.786 121.138C72.1039 120.77 71.6683 120.111 71.4794 119.16C71.2786 118.149 71.4478 117.312 71.9869 116.649C72.5192 115.996 73.3671 115.554 74.5306 115.323L78.556 114.523L80.3275 123.44L78.2766 123.848L77.6945 120.918L75.427 121.368ZM74.9489 116.829C74.4139 116.935 74.0239 117.149 73.779 117.472C73.5256 117.796 73.4486 118.208 73.5482 118.709C73.7321 119.635 74.393 119.985 75.531 119.758L77.3908 119.389L76.8087 116.459L74.9489 116.829Z" fill="white"/>
<path d="M62.0943 119.76L63.5467 119.838L63.7445 116.181L65.8324 116.294L65.3416 125.372L63.2536 125.259L63.4521 121.589L61.9477 121.508L59.363 125.049L57.1454 124.929L60.3522 120.706L57.5455 115.846L59.9317 115.975L62.0943 119.76Z" fill="white"/>
<path d="M49.543 115.669L49.9224 114.023L56.7816 115.605L54.7389 124.464L48.0441 122.92L48.4235 121.275L53.0807 122.349L53.5243 120.425L49.4113 119.477L49.779 117.882L53.892 118.831L54.3647 116.78L49.543 115.669Z" fill="white"/>
<path d="M45.2807 122.059L43.3579 121.237L45.6853 115.791L39.3691 119.532L37.5538 118.756L41.1266 110.397L43.0374 111.213L40.7151 116.647L47.0262 112.918L48.8534 113.699L45.2807 122.059ZM41.1935 120.948C42.7222 121.601 43.2342 122.54 42.7295 123.765L41.4039 123.198C41.6363 122.61 41.4301 122.179 40.7852 121.903C40.4668 121.767 40.1933 121.735 39.9649 121.807C39.733 121.886 39.5519 122.068 39.4214 122.351L38.0958 121.785C38.3589 121.191 38.7479 120.82 39.2628 120.673C39.7777 120.526 40.4213 120.617 41.1935 120.948Z" fill="white"/>
<path d="M36.1141 106.941C36.8827 107.459 37.4683 108.093 37.8709 108.844C38.2615 109.597 38.4382 110.389 38.4009 111.22C38.3517 112.053 38.0757 112.843 37.573 113.59C37.0703 114.337 36.4448 114.887 35.6964 115.239C34.936 115.593 34.1358 115.728 33.2956 115.643C32.4435 115.56 31.6295 115.257 30.8537 114.735C30.2 114.295 29.6883 113.784 29.3186 113.201C28.9417 112.614 28.7187 111.984 28.6496 111.311L30.4663 111.031C30.5799 111.963 31.0139 112.683 31.7681 113.19C32.235 113.504 32.7218 113.681 33.2283 113.719C33.73 113.764 34.2083 113.674 34.6631 113.448C35.1108 113.217 35.4917 112.868 35.8059 112.401C36.1201 111.934 36.2999 111.45 36.3453 110.948C36.3835 110.441 36.2895 109.961 36.0634 109.506C35.8324 109.058 35.4834 108.677 35.0165 108.363C34.2622 107.855 33.4295 107.728 32.5182 107.981L32.0937 106.193C32.7478 105.996 33.4179 105.962 34.1041 106.09C34.7904 106.218 35.4604 106.501 36.1141 106.941Z" fill="white"/>
<path d="M22.3635 92.69C22.8779 93.4605 23.1786 94.2695 23.2656 95.1172C23.3406 95.9624 23.2031 96.7622 22.853 97.5164C22.4909 98.2683 21.9353 98.8942 21.1864 99.3942C20.4375 99.8942 19.6501 100.165 18.824 100.206C17.9859 100.245 17.1946 100.066 16.4499 99.6675C15.6932 99.267 15.0552 98.6778 14.536 97.9001C14.0985 97.2448 13.8195 96.5774 13.699 95.8979C13.5737 95.2112 13.6068 94.5436 13.7985 93.8951L15.5855 94.3262C15.3363 95.2316 15.4641 96.0624 15.9689 96.8185C16.2814 97.2866 16.6647 97.6346 17.1187 97.8624C17.5655 98.095 18.0422 98.1932 18.5489 98.1568C19.0508 98.1133 19.5357 97.9353 20.0038 97.6228C20.4719 97.3103 20.8222 96.9306 21.0549 96.4838C21.2827 96.0298 21.3784 95.5495 21.3421 95.0428C21.2985 94.5409 21.1205 94.056 20.808 93.5879C20.3032 92.8318 19.5813 92.3976 18.6423 92.2854L18.9293 90.4697C19.6089 90.5365 20.2418 90.7594 20.828 91.1385C21.4142 91.5175 21.926 92.0347 22.3635 92.69Z" fill="white"/>
<path d="M16.5956 81.1925L11.5498 83.2304L16.7044 84.0455L17.0525 84.9134L13.9863 89.0258L18.9405 87.0387L19.6754 88.8709L11.2376 92.2553L10.5897 90.6401L14.5665 85.3788L8.07559 84.372L7.42772 82.7567L15.8607 79.3603L16.5956 81.1925Z" fill="white"/>
<path d="M14.8445 72.7202C14.9929 73.6522 14.926 74.5265 14.6439 75.3429C14.3604 76.1508 13.9022 76.8243 13.2691 77.3634C12.626 77.8954 11.8642 78.2315 10.9835 78.3717C10.1027 78.5119 9.27844 78.4283 8.51059 78.1209C7.73283 77.8063 7.0838 77.3091 6.5635 76.6291C6.04184 75.9406 5.70683 75.1304 5.55847 74.1984C5.41012 73.2663 5.47767 72.3964 5.76114 71.5885C6.04461 70.7806 6.50717 70.1064 7.14883 69.5659C7.78193 69.0268 8.53885 68.6871 9.41957 68.5469C10.3003 68.4067 11.1295 68.4939 11.9073 68.8085C12.6765 69.1244 13.3213 69.6223 13.8416 70.3023C14.3619 70.9822 14.6962 71.7882 14.8445 72.7202ZM13.0745 73.002C12.9902 72.4718 12.7942 72.012 12.4868 71.6226C12.1707 71.2345 11.7756 70.9555 11.3014 70.7855C10.8259 70.6069 10.3102 70.5619 9.75439 70.6504C9.1986 70.7388 8.72239 70.9418 8.32578 71.2592C7.9278 71.568 7.64313 71.9552 7.47177 72.4209C7.29185 72.8879 7.24408 73.3865 7.32847 73.9166C7.41286 74.4468 7.61306 74.9059 7.92909 75.2939C8.23656 75.6833 8.62808 75.9673 9.10364 76.1459C9.57783 76.3159 10.0928 76.3567 10.6486 76.2682C11.2044 76.1797 11.6813 75.9811 12.0793 75.6722C12.4759 75.3548 12.7642 74.9627 12.9441 74.4956C13.1154 74.03 13.1589 73.5321 13.0745 73.002Z" fill="white"/>
<path d="M6.93282 59.1773L6.83179 62.0848L14.2043 62.3409L14.1321 64.4177L6.75962 64.1615L6.65904 67.056L4.94572 66.9964L5.2195 59.1178L6.93282 59.1773Z" fill="white"/>
<path d="M6.3627 52.6083C6.52563 51.8198 6.7981 51.1643 7.18009 50.6421C7.56383 50.1113 8.02977 49.739 8.57791 49.5251C9.12605 49.3113 9.73081 49.2726 10.3922 49.4093C11.0451 49.5442 11.585 49.8193 12.012 50.2347C12.4305 50.6483 12.7107 51.1748 12.8527 51.8141C12.988 52.4433 12.9741 53.1521 12.8112 53.9407L12.4406 55.7341L14.8954 56.2413L14.4696 58.3017L5.56643 56.4622L6.3627 52.6083ZM11.1086 53.7083C11.2365 53.0893 11.2023 52.5916 11.006 52.215C10.8013 51.8368 10.453 51.5968 9.96121 51.4952C9.46094 51.3918 9.04608 51.4741 8.71665 51.742C8.37874 52.0081 8.14584 52.4507 8.01794 53.0697L7.67105 54.7486L10.7617 55.3872L11.1086 53.7083Z" fill="white"/>
<path d="M17.4507 42.4237L19.0224 43.0405L16.4509 49.5932L7.98797 46.2721L10.4978 39.8765L12.0695 40.4933L10.3235 44.9424L12.1612 45.6635L13.7031 41.7343L15.2265 42.3321L13.6845 46.2613L15.6431 47.0299L17.4507 42.4237Z" fill="white"/>
<path d="M16.8065 32.2024L15.3269 34.7072L21.6783 38.4592L20.6214 40.2484L14.2699 36.4963L12.7969 38.9899L11.3208 38.118L15.3305 31.3304L16.8065 32.2024Z" fill="white"/>
<path d="M22.1937 27.5298C22.9122 26.686 23.6503 26.2 24.4077 26.0718C25.1708 25.9369 25.9215 26.1838 26.6598 26.8126C27.4442 27.4806 27.8308 28.242 27.8194 29.0966C27.8071 29.939 27.4164 30.8118 26.6473 31.7149L23.9864 34.8395L17.0649 28.945L18.4206 27.3531L20.6948 29.2898L22.1937 27.5298ZM25.385 30.7934C25.7386 30.3781 25.9115 29.9681 25.9037 29.5634C25.9014 29.152 25.7058 28.7808 25.3169 28.4496C24.5984 27.8377 23.863 27.9734 23.1108 28.8567L21.8813 30.3003L24.1556 32.237L25.385 30.7934Z" fill="white"/>
<path d="M33.3536 20.7025L32.168 21.5453L34.2899 24.5305L32.5855 25.7419L27.3185 18.3318L29.0228 17.1204L31.1522 20.1162L32.3802 19.2433L32.1986 14.8631L34.0088 13.5764L34.1278 18.8775L39.3499 20.9338L37.4021 22.3183L33.3536 20.7025Z" fill="white"/>
<path d="M45.6665 16.0646L46.3987 17.586L40.0558 20.6387L36.1133 12.4468L42.304 9.4673L43.0362 10.9887L38.7296 13.0613L39.5857 14.8401L43.3891 13.0097L44.0987 14.4842L40.2954 16.3147L41.2078 18.2105L45.6665 16.0646Z" fill="white"/>
<path d="M45.0414 8.37097L47.0575 7.8164L48.6282 13.5266L51.24 6.66593L53.1434 6.14236L55.5545 14.9081L53.551 15.4592L51.9837 9.76148L49.3685 16.6097L47.4525 17.1367L45.0414 8.37097ZM48.9311 6.69488C47.3282 7.13578 46.3428 6.71988 45.9747 5.44719L47.3647 5.06484C47.5491 5.66967 47.9793 5.87909 48.6555 5.69308C48.9895 5.60123 49.2234 5.45606 49.3574 5.25756C49.4891 5.05072 49.5178 4.79588 49.4435 4.49305L50.8334 4.11071C50.9973 4.73912 50.9237 5.27124 50.6125 5.70705C50.3014 6.14285 49.7409 6.47213 48.9311 6.69488Z" fill="white"/>
<path d="M61.5672 14.456C60.6438 14.5309 59.7906 14.4004 59.0076 14.0644C58.2325 13.719 57.6005 13.21 57.1115 12.5374C56.6305 11.8554 56.3536 11.0657 56.2807 10.1681C56.2078 9.27063 56.3541 8.45088 56.7196 7.70889C57.0929 6.95758 57.6346 6.35331 58.3445 5.89608C59.0624 5.42953 59.8874 5.15842 60.8194 5.08276C61.6047 5.01901 62.3236 5.09965 62.976 5.32467C63.637 5.54899 64.2043 5.90253 64.6778 6.3853L63.4324 7.7373C62.7623 7.07938 61.9741 6.7872 61.068 6.86076C60.507 6.90629 60.0166 7.07206 59.5968 7.35806C59.1763 7.63542 58.8588 8.00433 58.6442 8.46477C58.4383 8.92452 58.3581 9.43486 58.4037 9.99581C58.4492 10.5568 58.6107 11.0475 58.888 11.468C59.174 11.8878 59.5472 12.205 60.0077 12.4195C60.4674 12.6254 60.9778 12.7056 61.5387 12.6601C62.4449 12.5865 63.1752 12.1668 63.7298 11.4007L65.177 12.5342C64.7882 13.0956 64.2857 13.5403 63.6695 13.8683C63.0533 14.1963 62.3526 14.3922 61.5672 14.456Z" fill="white"/>
<path d="M81.401 16.9876C80.5198 16.7016 79.7825 16.2529 79.1889 15.6416C78.6063 15.0247 78.2187 14.3117 78.0261 13.5028C77.8443 12.6883 77.8925 11.8528 78.1704 10.9963C78.4484 10.1398 78.8988 9.43935 79.5215 8.895C80.1551 8.34509 80.8875 7.99565 81.7187 7.84667C82.5608 7.69213 83.4266 7.75919 84.316 8.04785C85.0654 8.29107 85.698 8.64201 86.2136 9.10065C86.7375 9.56197 87.1252 10.1065 87.3766 10.7343L85.707 11.5032C85.3414 10.6382 84.7263 10.0653 83.8616 9.78467C83.3263 9.61095 82.8098 9.57534 82.3123 9.67786C81.8175 9.77214 81.3825 9.99054 81.0073 10.333C80.6404 10.6782 80.3701 11.1185 80.1964 11.6538C80.0227 12.1891 79.9829 12.7041 80.0772 13.199C80.1797 13.6965 80.4022 14.1328 80.7447 14.508C81.0899 14.8749 81.5302 15.1452 82.0655 15.3189C82.9302 15.5996 83.7658 15.493 84.5724 14.9992L85.4723 16.6021C84.8974 16.9708 84.2626 17.1881 83.5676 17.2538C82.8727 17.3196 82.1505 17.2308 81.401 16.9876Z" fill="white"/>
<path d="M93.2669 22.5173L95.9715 17.7952L91.4169 20.3428L90.6066 19.8761L90.4725 14.7481L87.8085 19.3737L86.0979 18.3884L90.6351 10.5103L92.1432 11.3789L92.2723 17.9728L97.9955 14.7494L99.5036 15.618L94.9776 23.5026L93.2669 22.5173Z" fill="white"/>
<path d="M99.7391 27.9238C99.0433 27.2862 98.552 26.56 98.2652 25.7452C97.9848 24.9362 97.9248 24.1238 98.0853 23.3079C98.2581 22.4914 98.6457 21.7544 99.2482 21.0969C99.8507 20.4394 100.548 19.9923 101.341 19.7555C102.145 19.5181 102.963 19.5039 103.793 19.7128C104.63 19.9276 105.396 20.3537 106.092 20.9914C106.788 21.629 107.276 22.3523 107.556 23.1612C107.837 23.9701 107.894 24.7858 107.727 25.6081C107.567 26.424 107.185 27.1607 106.583 27.8182C105.98 28.4757 105.277 28.9231 104.472 29.1605C103.673 29.3914 102.859 29.4025 102.028 29.1936C101.198 28.9847 100.435 28.5614 99.7391 27.9238ZM100.95 26.6024C101.346 26.9651 101.785 27.2033 102.268 27.317C102.757 27.4244 103.24 27.3972 103.717 27.2354C104.2 27.0795 104.632 26.7941 105.012 26.3792C105.393 25.9643 105.639 25.5092 105.753 25.014C105.872 24.5247 105.854 24.0444 105.699 23.5732C105.549 23.0956 105.277 22.6754 104.881 22.3127C104.485 21.95 104.043 21.715 103.554 21.6077C103.071 21.4939 102.588 21.515 102.104 21.6709C101.627 21.8327 101.199 22.121 100.819 22.5359C100.438 22.9509 100.188 23.403 100.069 23.8924C99.9556 24.3875 99.9737 24.8739 100.123 25.3516C100.279 25.8228 100.554 26.2397 100.95 26.6024Z" fill="white"/>
<path d="M114.333 33.4988L112.596 31.165L106.678 35.5696L105.438 33.9026L111.355 29.4981L109.626 27.1748L111.001 26.1512L115.708 32.4752L114.333 33.4988Z" fill="white"/>
<path d="M118.873 38.2515C119.238 38.9692 119.435 39.6512 119.463 40.2977C119.494 40.9518 119.363 41.5336 119.069 42.043C118.774 42.5524 118.326 42.9602 117.724 43.2666C117.13 43.569 116.536 43.6913 115.943 43.6336C115.358 43.572 114.811 43.3358 114.3 42.9252C113.802 42.5183 113.37 41.956 113.005 41.2384L112.174 39.6064L109.94 40.7434L108.986 38.8684L117.088 34.7445L118.873 38.2515ZM114.479 40.3566C114.766 40.9199 115.104 41.2873 115.492 41.4587C115.888 41.6263 116.31 41.5961 116.758 41.3684C117.213 41.1366 117.486 40.8133 117.576 40.3983C117.673 39.9794 117.579 39.4883 117.292 38.925L116.514 37.3972L113.702 38.8288L114.479 40.3566Z" fill="white"/>
<path d="M116.619 53.2835L115.005 53.7804L112.933 47.0528L121.622 44.3774L123.644 50.9435L122.03 51.4404L120.624 46.8726L118.737 47.4536L119.979 51.4876L118.415 51.9692L117.173 47.9352L115.162 48.5544L116.619 53.2835Z" fill="white"/>
<path d="M123.495 60.9338L123.093 58.0525L115.787 59.0722L115.5 57.0142L122.806 55.9944L122.406 53.126L124.104 52.889L125.193 60.6968L123.495 60.9338Z" fill="white"/>
</svg>
