<svg width="40" height="29" viewBox="0 0 40 29" fill="none" xmlns="http://www.w3.org/2000/svg">
<path d="M9.07079 5.46231V23.5494C9.07079 25.2347 8.67914 26.3978 7.89584 27.0387C7.13627 27.6796 5.89011 28 4.15736 28H0.240853V0.940523H4.26417C5.97319 0.940523 7.19561 1.27283 7.93144 1.93745C8.69101 2.60207 9.07079 3.77702 9.07079 5.46231ZM5.61714 23.7631V5.17747C5.61714 4.75021 5.5578 4.40604 5.43912 4.14494C5.34418 3.88383 5 3.75328 4.40659 3.75328H3.6945V25.1872H4.37098C4.7745 25.1872 5.08308 25.1279 5.2967 25.0092C5.51033 24.8905 5.61714 24.4751 5.61714 23.7631ZM20.0259 8.23946C20.0259 10.352 19.8716 11.9067 19.563 12.9037C19.2782 13.9006 18.5067 14.5889 17.2487 14.9687V15.1467C18.032 15.3129 18.6136 15.752 18.9933 16.4641C19.3969 17.1762 19.5986 18.8259 19.5986 21.4132V23.5138C19.5986 25.3178 19.7054 26.8132 19.9191 28H16.5722C16.3823 27.5015 16.2874 26.8963 16.2874 26.1842L16.2162 20.8079C16.1924 19.7872 16.1568 18.9564 16.1094 18.3156C16.0619 17.6747 15.9669 17.2118 15.8245 16.927C15.6821 16.6421 15.4091 16.4997 15.0056 16.4997H14.5072V28H11.0891V0.940523H15.148C17.047 0.940523 18.3287 1.53393 18.9933 2.72075C19.6817 3.90757 20.0259 5.74714 20.0259 8.23946ZM16.6434 8.59551C16.6434 7.52737 16.6078 6.63726 16.5366 5.92517C16.4654 5.18934 16.323 4.6434 16.1094 4.28735C15.9195 3.90757 15.5516 3.71768 15.0056 3.71768H14.5072V13.687H14.97C15.6821 13.687 16.1331 13.319 16.323 12.5832C16.5366 11.8237 16.6434 10.4944 16.6434 8.59551ZM27.7815 0.940523L30.1671 28H26.8202L26.5354 23.9411H24.1499L23.865 28H20.8387L23.2242 0.940523H27.7815ZM24.3279 21.1283H26.393L25.4672 6.1744H25.2892L24.3279 21.1283ZM39.7694 14.5415V28H38.3809L37.8112 26.0774H37.6688C36.9804 27.644 35.8885 28.4273 34.3931 28.4273C32.1145 28.4273 30.9751 26.825 30.9751 23.6206V5.31989C30.9751 3.8957 31.3074 2.75636 31.972 1.90185C32.6604 1.0236 33.6929 0.584478 35.0696 0.584478C36.6837 0.584478 37.7993 1.07107 38.4165 2.04427C39.0573 2.99372 39.3778 4.4179 39.3778 6.31681C39.3778 7.85968 39.3066 9.03463 39.1642 9.84167L36.4582 9.55683C36.5769 8.77353 36.6362 7.84781 36.6362 6.77967C36.6362 5.75901 36.565 4.9401 36.4226 4.32296C36.2802 3.68208 35.9598 3.36163 35.4613 3.36163C35.1052 3.36163 34.8441 3.46845 34.678 3.68208C34.5118 3.8957 34.4288 4.25175 34.4288 4.75021V24.1903C34.4288 24.5938 34.4881 24.938 34.6068 25.2228C34.7255 25.5077 34.9984 25.6501 35.4257 25.6501C35.7343 25.6501 35.9835 25.5195 36.1734 25.2584C36.3633 24.9973 36.4582 24.6413 36.4582 24.1903V14.5415H39.7694Z" fill="white"/>
</svg>
