<svg width="22" height="16" viewBox="0 0 22 16" fill="none" xmlns="http://www.w3.org/2000/svg">
<path fill-rule="evenodd" clip-rule="evenodd" d="M0.118193 7.56553C-0.0380955 7.83875 -0.0380955 8.16125 0.118193 8.43447C1.07213 10.1021 4.8708 16 10.8812 16C16.8916 16 20.6902 10.1021 21.6442 8.43447C21.8005 8.16125 21.8005 7.83875 21.6442 7.56553C20.6902 5.89791 16.8916 0 10.8812 0C4.8708 0 1.07213 5.89791 0.118193 7.56553ZM13.8812 8C13.8812 9.65685 12.538 11 10.8812 11C9.22433 11 7.88118 9.65685 7.88118 8C7.88118 6.34315 9.22433 5 10.8812 5C12.538 5 13.8812 6.34315 13.8812 8Z" fill="white"/>
</svg>
