<?xml version="1.0" encoding="utf-8"?>
<!-- Generator: Adobe Illustrator 22.1.0, SVG Export Plug-In . SVG Version: 6.00 Build 0)  -->
<svg version="1.1" id="Слой_1" xmlns="http://www.w3.org/2000/svg" xmlns:xlink="http://www.w3.org/1999/xlink" x="0px" y="0px"
	 viewBox="0 0 885.1 199.9" style="enable-background:new 0 0 885.1 199.9;" xml:space="preserve">
<style type="text/css">
	.st0{fill:#FFFFFF;}
	.st1{fill:#1F252C;}
	.st2{fill:#C14F49;}
</style>
<polygon class="st0" points="751.9,0 612.3,0 611,0 598.2,0 574.5,0 561.7,0 560.4,0 358.9,0 315.8,0 267.2,97.8 358.9,97.8 
	560.4,97.8 561.7,97.8 574.5,97.8 598.2,97.8 611,97.8 612.3,97.8 751.9,97.8 836.4,97.8 885.1,0 "/>
<g>
	<path class="st1" d="M334.6,69.8V27.4h32.3v8.5H344v9h20.2v8.5H344v16.4H334.6z"/>
	<path class="st1" d="M374.8,69.8V27.4h9.3v42.4H374.8z"/>
	<path class="st1" d="M394.7,69.8V27.4h19.7c4.9,0,8.6,1.3,11.1,3.8c1.9,1.9,2.9,4.4,2.9,7.3c0,4-1.9,7-5.6,9.1c2.6,1,4.6,2.3,5.9,4
		c1.3,1.6,2,3.8,2,6.6c0,3.8-1.4,6.7-4.2,8.7c-2.8,2-6.7,3-11.6,3H394.7z M403.8,44.6h8.6c4.5,0,6.7-1.5,6.7-4.6
		c0-1.4-0.5-2.5-1.6-3.2s-2.6-1.1-4.5-1.1h-9.2V44.6z M403.8,61.7h11.1c4.4,0,6.6-1.6,6.6-4.7c0-3.1-2.3-4.6-6.9-4.6h-10.8V61.7z"/>
	<path class="st1" d="M458.3,70.6c-6.2,0-11.4-2.1-15.5-6.3c-4.1-4.2-6.2-9.4-6.2-15.6c0-6.1,2.1-11.3,6.2-15.6
		c4.2-4.2,9.4-6.4,15.9-6.4c3.7,0,6.8,0.6,9.3,1.8c2.5,1.2,4.9,2.9,7.1,5.1l-5.6,6.4c-1.8-1.7-3.5-2.9-5.1-3.6
		c-1.6-0.7-3.5-1.1-5.8-1.1c-3.6,0-6.5,1.3-8.8,3.8c-2.3,2.6-3.5,5.7-3.5,9.5c0,3.7,1.2,6.9,3.5,9.4c2.3,2.6,5.3,3.9,8.8,3.9
		c2.3,0,4.2-0.4,5.9-1.2c1.7-0.8,3.4-2.1,5.3-3.8l5.9,6.4c-2.3,2.5-4.8,4.3-7.5,5.5C465.5,70,462.2,70.6,458.3,70.6z"/>
	<path class="st1" d="M519.8,64.2c-4.3,4.3-9.7,6.4-16.1,6.4s-11.8-2.1-16.1-6.4c-4.3-4.2-6.4-9.4-6.4-15.6c0-6.1,2.1-11.3,6.4-15.5
		c4.3-4.3,9.7-6.4,16.1-6.4c6.5,0,11.8,2.1,16.1,6.4c4.3,4.2,6.4,9.4,6.4,15.6C526.3,54.7,524.1,59.9,519.8,64.2z M494.6,58.1
		c2.4,2.6,5.5,3.9,9.2,3.9c3.7,0,6.8-1.3,9.1-3.8c2.4-2.6,3.6-5.7,3.6-9.5c0-3.7-1.2-6.9-3.6-9.4c-2.4-2.6-5.5-3.9-9.2-3.9
		c-3.7,0-6.8,1.3-9.1,3.8c-2.4,2.6-3.6,5.7-3.6,9.5C491,52.4,492.2,55.5,494.6,58.1z"/>
	<path class="st1" d="M534.6,69.8V27.4h10l11.1,17.9l11.1-17.9H577v42.4h-9.3V42.2l-11.9,18.1h-0.2l-11.8-17.9v27.5H534.6z"/>
	<path class="st1" d="M625.7,70.6c-6.6,0-11.9-2.1-16.1-6.2c-4.1-4.1-6.2-9.4-6.2-15.7c0-6.1,2.1-11.3,6.4-15.5
		c4.2-4.3,9.5-6.4,15.9-6.4c3.7,0,6.8,0.5,9.3,1.4c2.5,0.9,5,2.4,7.3,4.4l-5.9,7.1c-1.8-1.5-3.5-2.6-5.1-3.3c-1.7-0.7-3.6-1-5.9-1
		c-3.4,0-6.3,1.3-8.6,3.9c-2.4,2.6-3.5,5.7-3.5,9.4c0,3.9,1.2,7.1,3.6,9.6c2.4,2.5,5.5,3.8,9.2,3.8c3.5,0,6.4-0.8,8.8-2.5v-6.1h-9.4
		v-8.1h18.4v18.4C638.5,68.3,632.5,70.6,625.7,70.6z"/>
	<path class="st1" d="M652.8,69.8V27.4h19.4c5.4,0,9.5,1.4,12.4,4.3c2.4,2.4,3.6,5.7,3.6,9.8c0,6.5-3,10.9-9.1,13.1l10.4,15.1h-10.9
		l-9.2-13.6h-7.2v13.6H652.8z M662.1,48h9.4c2.3,0,4-0.6,5.3-1.7c1.3-1.1,1.9-2.6,1.9-4.5c0-2-0.6-3.5-1.9-4.5
		c-1.3-1-3.1-1.5-5.4-1.5h-9.3V48z"/>
	<path class="st1" d="M733.3,64.2c-4.3,4.3-9.7,6.4-16.1,6.4c-6.5,0-11.8-2.1-16.1-6.4c-4.3-4.2-6.4-9.4-6.4-15.6
		c0-6.1,2.1-11.3,6.4-15.5c4.3-4.3,9.7-6.4,16.1-6.4c6.5,0,11.8,2.1,16.1,6.4c4.3,4.2,6.4,9.4,6.4,15.6
		C739.7,54.7,737.6,59.9,733.3,64.2z M708.1,58.1c2.4,2.6,5.5,3.9,9.2,3.9c3.7,0,6.8-1.3,9.1-3.8c2.4-2.6,3.6-5.7,3.6-9.5
		c0-3.7-1.2-6.9-3.6-9.4c-2.4-2.6-5.5-3.9-9.2-3.9s-6.8,1.3-9.1,3.8c-2.4,2.6-3.6,5.7-3.6,9.5C704.4,52.4,705.7,55.5,708.1,58.1z"/>
	<path class="st1" d="M765.7,70.5c-5.8,0-10.3-1.6-13.5-4.8c-3.2-3.2-4.8-7.9-4.8-14V27.4h9.3v24c0,3.4,0.8,6,2.4,7.8
		c1.6,1.8,3.8,2.7,6.8,2.7s5.2-0.9,6.8-2.6c1.6-1.7,2.4-4.3,2.4-7.6V27.4h9.3v23.9c0,6.3-1.6,11.1-4.9,14.3
		C776.1,68.9,771.5,70.5,765.7,70.5z"/>
	<path class="st1" d="M793.8,69.8V27.4h17.3c5,0,9,1.4,11.9,4.1c2.9,2.7,4.4,6.3,4.4,10.7c0,4.7-1.6,8.4-4.8,11
		c-3.2,2.6-7.3,3.9-12.3,3.9h-7.1v12.7H793.8z M803.1,48.8h7.4c2.3,0,4.1-0.6,5.4-1.8c1.3-1.2,2-2.8,2-4.7c0-2.1-0.7-3.6-2-4.8
		c-1.3-1.1-3.2-1.7-5.6-1.7h-7.2V48.8z"/>
</g>
<polygon class="st0" points="213.9,25.6 233.8,0 134.4,0 114.5,25.6 "/>
<polygon class="st2" points="31.2,36.8 31.2,25.6 94.7,25.6 114.5,0 1,0 1,97.8 31.2,97.8 31.2,57.9 71.3,57.9 87.6,36.8 "/>
<path class="st0" d="M172.9,36.6l-17.6,21.3h50v14.8h-36.1c-14.9,0-29.5-8.4-29.5-22.6c0-6,1.9-10.4,4.1-13.5h-32.1
	c-3.1,10.3-1,19-1,19c10.2,41.6,54.5,41.7,54.5,41.7H235V36.6H172.9z"/>
<g>
	<path class="st0" d="M0,182.8v-28.7h20.4v2H2.1v11.2h16.4v2H2.1v11.5h18.5v2H0z"/>
	<path class="st0" d="M43.3,182.8V162h2v3.9c1.7-2.9,4.2-4.4,7.5-4.4c2.6,0,4.6,0.8,6.1,2.4c1.5,1.6,2.2,3.7,2.2,6.2v12.8h-2v-12.4
		c0-2.2-0.6-3.9-1.8-5.2s-2.8-1.9-4.9-1.9c-2.1,0-3.8,0.7-5.2,2.1c-1.4,1.4-2.1,3.2-2.1,5.3v12.1H43.3z"/>
	<path class="st0" d="M83.4,171.4c0-1.5,0.3-2.8,0.9-4.1c0.6-1.3,1.3-2.3,2.3-3.1c0.9-0.8,2-1.5,3.2-2c1.2-0.5,2.4-0.7,3.7-0.7
		c1.9,0,3.6,0.4,5.1,1.3c1.5,0.9,2.7,2,3.6,3.4V162h2v17.6c0,3-0.9,5.3-2.7,7.1c-1.9,1.9-4.4,2.8-7.6,2.8c-3.5,0-6.7-1.1-9.6-3.2
		l1.2-1.6c2.6,2,5.4,3,8.4,3c2.5,0,4.5-0.7,6-2.1c1.5-1.4,2.2-3.4,2.2-6v-3c-2.2,3.2-5.1,4.8-8.7,4.8c-1.3,0-2.5-0.2-3.7-0.7
		c-1.2-0.5-2.3-1.1-3.2-2c-0.9-0.8-1.7-1.9-2.3-3.1C83.7,174.2,83.4,172.8,83.4,171.4z M85.6,171.4c0,1.5,0.4,2.9,1.1,4.1
		c0.7,1.2,1.7,2.2,3,2.8c1.2,0.7,2.6,1,4,1c1.1,0,2.1-0.2,3.2-0.6c1-0.4,2-0.9,2.8-1.6c0.8-0.7,1.5-1.5,1.9-2.5
		c0.5-1,0.7-2.1,0.7-3.3c0-1.5-0.4-2.9-1.3-4.2c-0.8-1.2-1.9-2.2-3.2-2.8c-1.3-0.6-2.7-1-4.2-1c-1.5,0-2.8,0.3-4,0.9
		c-1.2,0.6-2.2,1.6-2.9,2.8C86,168.4,85.6,169.8,85.6,171.4z"/>
	<path class="st0" d="M128.2,156.5v-2.7h2.5v2.7H128.2z M128.4,182.8V162h2v20.9H128.4z"/>
	<path class="st0" d="M154.7,182.8V162h2v3.9c1.7-2.9,4.2-4.4,7.5-4.4c2.6,0,4.6,0.8,6.1,2.4c1.5,1.6,2.2,3.7,2.2,6.2v12.8h-2v-12.4
		c0-2.2-0.6-3.9-1.8-5.2s-2.8-1.9-4.9-1.9c-2.1,0-3.8,0.7-5.2,2.1c-1.4,1.4-2.1,3.2-2.1,5.3v12.1H154.7z"/>
	<path class="st0" d="M194.7,172.3c0-1.5,0.3-2.9,0.8-4.2c0.5-1.3,1.2-2.5,2.1-3.5c0.9-1,1.9-1.7,3.1-2.3c1.2-0.6,2.5-0.9,3.9-0.9
		c1.9,0,3.6,0.5,5.1,1.5c1.5,1,2.6,2.3,3.4,3.9c0.8,1.7,1.2,3.5,1.2,5.6c0,0.3,0,0.6,0,0.8h-17.3c0.2,2.5,1,4.5,2.6,6
		c1.6,1.5,3.4,2.2,5.6,2.2c2.7,0,5.1-1.1,7.2-3.3l1.4,1.2c-1.2,1.3-2.4,2.2-3.8,2.9c-1.4,0.7-3,1-4.8,1c-1.4,0-2.7-0.3-3.9-0.8
		c-1.2-0.5-2.3-1.3-3.3-2.2c-0.9-0.9-1.7-2.1-2.2-3.5C195,175.5,194.7,174,194.7,172.3z M196.8,171.4H212c-0.1-1.1-0.3-2.1-0.6-3
		c-0.3-0.9-0.8-1.8-1.4-2.6c-0.6-0.8-1.4-1.4-2.3-1.8c-0.9-0.4-2-0.7-3.1-0.7c-2.1,0-3.8,0.8-5.2,2.3
		C197.8,167.2,197,169.1,196.8,171.4z"/>
	<path class="st0" d="M235,172.3c0-1.5,0.3-2.9,0.8-4.2c0.5-1.3,1.2-2.5,2.1-3.5c0.9-1,1.9-1.7,3.1-2.3c1.2-0.6,2.5-0.9,3.9-0.9
		c1.9,0,3.6,0.5,5.1,1.5c1.5,1,2.6,2.3,3.4,3.9c0.8,1.7,1.2,3.5,1.2,5.6c0,0.3,0,0.6,0,0.8h-17.3c0.2,2.5,1,4.5,2.6,6
		c1.6,1.5,3.4,2.2,5.6,2.2c2.7,0,5.1-1.1,7.2-3.3l1.4,1.2c-1.2,1.3-2.4,2.2-3.8,2.9c-1.4,0.7-3,1-4.8,1c-1.4,0-2.7-0.3-3.9-0.8
		c-1.2-0.5-2.3-1.3-3.3-2.2c-0.9-0.9-1.7-2.1-2.2-3.5C235.2,175.5,235,174,235,172.3z M237.1,171.4h15.2c-0.1-1.1-0.3-2.1-0.6-3
		c-0.3-0.9-0.8-1.8-1.4-2.6c-0.6-0.8-1.4-1.4-2.3-1.8c-0.9-0.4-2-0.7-3.1-0.7c-2.1,0-3.8,0.8-5.2,2.3
		C238.1,167.2,237.3,169.1,237.1,171.4z"/>
	<path class="st0" d="M276.6,182.8V162h2v5.9c0.9-1.9,2.1-3.5,3.8-4.6c1.5-1.1,3.3-1.6,5.1-1.6c0.1,0,0.3,0,0.4,0v2.2h-0.2
		c-1.2,0-2.4,0.2-3.5,0.7s-2,1.1-2.9,2c-0.8,0.9-1.5,1.9-2,3.3c-0.5,1.3-0.7,2.8-0.7,4.5v8.6H276.6z"/>
	<path class="st0" d="M309.4,156.5v-2.7h2.5v2.7H309.4z M309.7,182.8V162h2v20.9H309.7z"/>
	<path class="st0" d="M335.9,182.8V162h2v3.9c1.7-2.9,4.2-4.4,7.5-4.4c2.6,0,4.6,0.8,6.1,2.4c1.5,1.6,2.2,3.7,2.2,6.2v12.8h-2v-12.4
		c0-2.2-0.6-3.9-1.8-5.2s-2.8-1.9-4.9-1.9c-2.1,0-3.8,0.7-5.2,2.1c-1.4,1.4-2.1,3.2-2.1,5.3v12.1H335.9z"/>
	<path class="st0" d="M376,171.4c0-1.5,0.3-2.8,0.9-4.1c0.6-1.3,1.3-2.3,2.3-3.1c0.9-0.8,2-1.5,3.2-2c1.2-0.5,2.4-0.7,3.7-0.7
		c1.9,0,3.6,0.4,5.1,1.3c1.5,0.9,2.7,2,3.6,3.4V162h2v17.6c0,3-0.9,5.3-2.7,7.1c-1.9,1.9-4.4,2.8-7.6,2.8c-3.5,0-6.7-1.1-9.6-3.2
		l1.2-1.6c2.6,2,5.4,3,8.4,3c2.5,0,4.5-0.7,6-2.1c1.5-1.4,2.2-3.4,2.2-6v-3c-2.2,3.2-5.1,4.8-8.7,4.8c-1.3,0-2.5-0.2-3.7-0.7
		c-1.2-0.5-2.3-1.1-3.2-2c-0.9-0.8-1.7-1.9-2.3-3.1C376.3,174.2,376,172.8,376,171.4z M378.2,171.4c0,1.5,0.4,2.9,1.1,4.1
		c0.7,1.2,1.7,2.2,3,2.8c1.2,0.7,2.6,1,4,1c1.1,0,2.1-0.2,3.2-0.6c1-0.4,2-0.9,2.8-1.6c0.8-0.7,1.5-1.5,1.9-2.5
		c0.5-1,0.7-2.1,0.7-3.3c0-1.5-0.4-2.9-1.3-4.2c-0.8-1.2-1.9-2.2-3.2-2.8c-1.3-0.6-2.7-1-4.2-1c-1.5,0-2.8,0.3-4,0.9
		s-2.2,1.6-2.9,2.8C378.5,168.4,378.2,169.8,378.2,171.4z"/>
	<path class="st0" d="M449.4,182.8V162h2v3.7c0.4-0.6,0.8-1.1,1.2-1.6c0.4-0.5,0.9-0.9,1.4-1.3c0.6-0.4,1.2-0.7,1.9-1
		c0.7-0.2,1.6-0.3,2.4-0.3c1.7,0,3.1,0.4,4.3,1.3c1.2,0.8,2.1,1.9,2.7,3.2c1.7-3,4.3-4.5,7.5-4.5c2.5,0,4.4,0.8,5.9,2.4
		c1.4,1.6,2.2,3.7,2.2,6.3v12.6h-2v-12.4c0-2.2-0.5-4-1.6-5.2c-1.1-1.3-2.6-1.9-4.5-1.9c-1.8,0-3.4,0.7-4.7,2
		c-1.3,1.3-1.9,3.1-1.9,5.4v12.1h-2v-12.5c0-2.2-0.5-3.9-1.6-5.1c-1.1-1.3-2.6-1.9-4.4-1.9s-3.4,0.7-4.7,2.2
		c-1.3,1.4-1.9,3.2-1.9,5.3v12H449.4z"/>
	<path class="st0" d="M502.9,176.7c0-2.1,0.8-3.8,2.5-5c1.7-1.2,3.9-1.8,6.6-1.8c2.4,0,4.7,0.3,6.9,0.9v-0.9c0-2.1-0.6-3.7-1.8-4.8
		c-1.2-1.1-2.9-1.6-5.1-1.6c-2.2,0-4.3,0.6-6.5,1.7l-0.7-1.8c2.6-1.2,5.1-1.8,7.4-1.8c2.9,0,5.1,0.8,6.6,2.3
		c1.4,1.4,2.1,3.4,2.1,5.9v13h-2v-3.5c-0.8,1.1-1.9,2.1-3.2,2.8c-1.3,0.8-2.9,1.1-4.7,1.1c-1,0-2-0.1-2.9-0.4
		c-0.9-0.3-1.8-0.7-2.6-1.2c-0.8-0.5-1.4-1.2-1.9-2.1C503.1,178.7,502.9,177.7,502.9,176.7z M505.1,176.6c0,1.5,0.6,2.6,1.8,3.5
		c1.2,0.9,2.6,1.3,4.3,1.3c2.2,0,4-0.6,5.6-1.8c1.5-1.2,2.3-2.7,2.3-4.6v-2.4c-2.4-0.6-4.8-0.9-7.1-0.9c-2.2,0-3.9,0.4-5.1,1.3
		C505.7,173.9,505.1,175.1,505.1,176.6z"/>
	<path class="st0" d="M544.5,182.8V162h2v3.9c1.7-2.9,4.2-4.4,7.5-4.4c2.6,0,4.6,0.8,6.1,2.4c1.5,1.6,2.2,3.7,2.2,6.2v12.8h-2v-12.4
		c0-2.2-0.6-3.9-1.8-5.2s-2.8-1.9-4.9-1.9c-2.1,0-3.8,0.7-5.2,2.1c-1.4,1.4-2.1,3.2-2.1,5.3v12.1H544.5z"/>
	<path class="st0" d="M584.2,176.7c0-2.1,0.8-3.8,2.5-5c1.7-1.2,3.9-1.8,6.6-1.8c2.4,0,4.7,0.3,6.9,0.9v-0.9c0-2.1-0.6-3.7-1.8-4.8
		c-1.2-1.1-2.9-1.6-5.1-1.6c-2.2,0-4.3,0.6-6.5,1.7l-0.7-1.8c2.6-1.2,5.1-1.8,7.4-1.8c2.9,0,5.1,0.8,6.6,2.3
		c1.4,1.4,2.1,3.4,2.1,5.9v13h-2v-3.5c-0.8,1.1-1.9,2.1-3.2,2.8c-1.3,0.8-2.9,1.1-4.7,1.1c-1,0-2-0.1-2.9-0.4
		c-0.9-0.3-1.8-0.7-2.6-1.2c-0.8-0.5-1.4-1.2-1.9-2.1C584.4,178.7,584.2,177.7,584.2,176.7z M586.3,176.6c0,1.5,0.6,2.6,1.8,3.5
		c1.2,0.9,2.6,1.3,4.3,1.3c2.2,0,4-0.6,5.6-1.8c1.5-1.2,2.3-2.7,2.3-4.6v-2.4c-2.4-0.6-4.8-0.9-7.1-0.9c-2.2,0-3.9,0.4-5.1,1.3
		C586.9,173.9,586.3,175.1,586.3,176.6z"/>
	<path class="st0" d="M624.4,171.4c0-1.5,0.3-2.8,0.9-4.1c0.6-1.3,1.3-2.3,2.3-3.1c0.9-0.8,2-1.5,3.2-2c1.2-0.5,2.4-0.7,3.7-0.7
		c1.9,0,3.6,0.4,5.1,1.3c1.5,0.9,2.7,2,3.6,3.4V162h2v17.6c0,3-0.9,5.3-2.7,7.1c-1.9,1.9-4.4,2.8-7.6,2.8c-3.5,0-6.7-1.1-9.6-3.2
		l1.2-1.6c2.6,2,5.4,3,8.4,3c2.5,0,4.5-0.7,6-2.1c1.5-1.4,2.2-3.4,2.2-6v-3c-2.2,3.2-5.1,4.8-8.7,4.8c-1.3,0-2.5-0.2-3.7-0.7
		c-1.2-0.5-2.3-1.1-3.2-2c-0.9-0.8-1.7-1.9-2.3-3.1C624.7,174.2,624.4,172.8,624.4,171.4z M626.6,171.4c0,1.5,0.4,2.9,1.1,4.1
		c0.7,1.2,1.7,2.2,3,2.8c1.2,0.7,2.6,1,4,1c1.1,0,2.1-0.2,3.2-0.6c1-0.4,2-0.9,2.8-1.6c0.8-0.7,1.5-1.5,1.9-2.5
		c0.5-1,0.7-2.1,0.7-3.3c0-1.5-0.4-2.9-1.3-4.2c-0.8-1.2-1.9-2.2-3.2-2.8c-1.3-0.6-2.7-1-4.2-1c-1.5,0-2.8,0.3-4,0.9
		s-2.2,1.6-2.9,2.8C627,168.4,626.6,169.8,626.6,171.4z"/>
	<path class="st0" d="M667.7,172.3c0-1.5,0.3-2.9,0.8-4.2s1.2-2.5,2.1-3.5c0.9-1,1.9-1.7,3.1-2.3c1.2-0.6,2.5-0.9,3.9-0.9
		c1.9,0,3.6,0.5,5.1,1.5c1.5,1,2.6,2.3,3.4,3.9c0.8,1.7,1.2,3.5,1.2,5.6c0,0.3,0,0.6,0,0.8h-17.3c0.2,2.5,1,4.5,2.6,6
		c1.6,1.5,3.4,2.2,5.6,2.2c2.7,0,5.1-1.1,7.2-3.3l1.4,1.2c-1.2,1.3-2.4,2.2-3.8,2.9c-1.4,0.7-3,1-4.8,1c-1.4,0-2.7-0.3-3.9-0.8
		c-1.2-0.5-2.3-1.3-3.3-2.2c-0.9-0.9-1.7-2.1-2.2-3.5C668,175.5,667.7,174,667.7,172.3z M669.8,171.4H685c-0.1-1.1-0.3-2.1-0.6-3
		c-0.3-0.9-0.8-1.8-1.4-2.6c-0.6-0.8-1.4-1.4-2.3-1.8c-0.9-0.4-2-0.7-3.1-0.7c-2.1,0-3.8,0.8-5.2,2.3
		C670.8,167.2,670,169.1,669.8,171.4z"/>
	<path class="st0" d="M709.4,182.8V162h2v3.7c0.4-0.6,0.8-1.1,1.2-1.6c0.4-0.5,0.9-0.9,1.4-1.3c0.6-0.4,1.2-0.7,1.9-1
		c0.7-0.2,1.6-0.3,2.4-0.3c1.7,0,3.1,0.4,4.3,1.3c1.2,0.8,2.1,1.9,2.7,3.2c1.7-3,4.3-4.5,7.5-4.5c2.5,0,4.4,0.8,5.9,2.4
		c1.4,1.6,2.2,3.7,2.2,6.3v12.6h-2v-12.4c0-2.2-0.5-4-1.6-5.2c-1.1-1.3-2.6-1.9-4.5-1.9c-1.8,0-3.4,0.7-4.7,2
		c-1.3,1.3-1.9,3.1-1.9,5.4v12.1h-2v-12.5c0-2.2-0.5-3.9-1.6-5.1c-1.1-1.3-2.6-1.9-4.4-1.9c-1.9,0-3.4,0.7-4.7,2.2
		c-1.3,1.4-1.9,3.2-1.9,5.3v12H709.4z"/>
	<path class="st0" d="M763.2,172.3c0-1.5,0.3-2.9,0.8-4.2c0.5-1.3,1.2-2.5,2.1-3.5c0.9-1,1.9-1.7,3.1-2.3c1.2-0.6,2.5-0.9,3.9-0.9
		c1.9,0,3.6,0.5,5.1,1.5c1.5,1,2.6,2.3,3.4,3.9c0.8,1.7,1.2,3.5,1.2,5.6c0,0.3,0,0.6,0,0.8h-17.3c0.2,2.5,1,4.5,2.6,6
		c1.6,1.5,3.4,2.2,5.6,2.2c2.7,0,5.1-1.1,7.2-3.3l1.4,1.2c-1.2,1.3-2.4,2.2-3.8,2.9c-1.4,0.7-3,1-4.8,1c-1.4,0-2.7-0.3-3.9-0.8
		c-1.2-0.5-2.3-1.3-3.3-2.2c-0.9-0.9-1.7-2.1-2.2-3.5C763.5,175.5,763.2,174,763.2,172.3z M765.4,171.4h15.2c-0.1-1.1-0.3-2.1-0.6-3
		c-0.3-0.9-0.8-1.8-1.4-2.6c-0.6-0.8-1.4-1.4-2.3-1.8c-0.9-0.4-2-0.7-3.1-0.7c-2.1,0-3.8,0.8-5.2,2.3
		C766.4,167.2,765.6,169.1,765.4,171.4z"/>
	<path class="st0" d="M804.9,182.8V162h2v3.9c1.7-2.9,4.2-4.4,7.5-4.4c2.6,0,4.6,0.8,6.1,2.4c1.5,1.6,2.2,3.7,2.2,6.2v12.8h-2v-12.4
		c0-2.2-0.6-3.9-1.8-5.2c-1.2-1.3-2.8-1.9-4.9-1.9c-2.1,0-3.8,0.7-5.2,2.1c-1.4,1.4-2.1,3.2-2.1,5.3v12.1H804.9z"/>
	<path class="st0" d="M844.5,163.8V162h3v-6.7h2v6.7h7.3v1.8h-7.3v13.4c0,2.7,1.4,4.1,4.2,4.1c1,0,2-0.2,3.1-0.7v1.9
		c-1,0.5-2.1,0.7-3.4,0.7c-1.7,0-3.1-0.5-4.2-1.4c-1.1-1-1.6-2.4-1.6-4.3v-13.7H844.5z"/>
</g>
</svg>
