<svg width="152" height="152" viewBox="0 0 152 152" fill="none" xmlns="http://www.w3.org/2000/svg">
<path d="M142.519 96.4803L130.732 90.3755L131.123 87.9224L140.82 86.3128L132.11 81.7185L132.503 79.2476L145.603 77.1042L145.221 79.504L135.272 81.0917L144.217 85.8145L143.877 87.9477L133.866 89.5803L142.87 94.276L142.519 96.4803Z" fill="white"/>
<path d="M128.592 103.23L131.219 97.5035L129.086 95.159L130.091 92.9666L139.181 103.373L138.22 105.467L124.396 105.385L125.417 103.16L128.592 103.23ZM130.584 103.292L136.581 103.428L132.557 98.9887L130.584 103.292Z" fill="white"/>
<path d="M131.05 113.863L133.481 110.468L135.091 111.621L128.865 120.313L127.255 119.16L129.687 115.765L121.053 109.581L122.416 107.679L131.05 113.863Z" fill="white"/>
<path d="M113.961 117.112C114.886 116.239 115.913 115.649 117.043 115.342C118.172 115.052 119.288 115.064 120.39 115.376C121.485 115.696 122.456 116.306 123.304 117.205C124.152 118.104 124.7 119.113 124.948 120.232C125.195 121.352 125.138 122.462 124.775 123.564C124.411 124.682 123.767 125.678 122.841 126.551C122.091 127.259 121.282 127.774 120.415 128.097C119.549 128.42 118.667 128.534 117.77 128.44L117.893 126.369C119.232 126.458 120.386 126.046 121.355 125.132C121.983 124.539 122.414 123.868 122.648 123.12C122.891 122.38 122.921 121.634 122.739 120.881C122.557 120.129 122.174 119.443 121.589 118.823C121.004 118.204 120.342 117.781 119.601 117.556C118.861 117.331 118.11 117.313 117.349 117.503C116.596 117.702 115.906 118.098 115.277 118.691C114.308 119.605 113.834 120.737 113.854 122.087L111.766 122.078C111.724 121.177 111.894 120.299 112.276 119.444C112.648 118.597 113.21 117.82 113.961 117.112Z" fill="white"/>
<path d="M106.152 137.985L99.7436 127.137L101.758 125.947L104.505 130.596L110.115 127.282L107.369 122.632L109.383 121.442L115.792 132.291L113.777 133.481L111.131 129.002L105.521 132.316L108.167 136.795L106.152 137.985Z" fill="white"/>
<path d="M89.9672 130.127C90.9091 129.887 91.856 129.788 92.8079 129.83C93.7482 129.876 94.5305 130.054 95.1547 130.366L94.8186 132.327C94.2178 132.059 93.5244 131.889 92.7382 131.817C91.9434 131.76 91.1797 131.824 90.4471 132.011C89.5401 132.242 88.9027 132.559 88.5348 132.962C88.1554 133.369 88.0264 133.81 88.1479 134.287C88.2367 134.636 88.4372 134.888 88.7493 135.044C89.0528 135.214 89.4127 135.314 89.829 135.345C90.2453 135.375 90.8057 135.387 91.51 135.381C92.4965 135.365 93.3087 135.393 93.9464 135.466C94.5725 135.542 95.1541 135.759 95.6912 136.117C96.2197 136.49 96.5861 137.078 96.7905 137.88C96.9623 138.555 96.9376 139.211 96.7164 139.85C96.4865 140.503 96.0467 141.085 95.397 141.598C94.7358 142.113 93.8702 142.507 92.8004 142.779C92.0561 142.969 91.2998 143.062 90.5315 143.06C89.7631 143.058 89.0728 142.949 88.4607 142.733L88.727 140.789C89.3419 140.967 89.9608 141.063 90.5837 141.078C91.2066 141.092 91.7914 141.03 92.3379 140.891C93.2333 140.663 93.8634 140.341 94.2283 139.926C94.5815 139.514 94.6944 139.058 94.5671 138.558C94.4782 138.209 94.2835 137.956 93.983 137.797C93.6709 137.641 93.3067 137.548 92.8903 137.518C92.474 137.488 91.9137 137.476 91.2094 137.482C90.249 137.504 89.4485 137.472 88.8078 137.388C88.1701 137.315 87.5885 137.098 87.063 136.737C86.5259 136.378 86.1566 135.803 85.9552 135.013C85.7833 134.338 85.8139 133.68 86.0467 133.039C86.268 132.401 86.7093 131.824 87.3705 131.309C88.0318 130.793 88.8974 130.4 89.9672 130.127Z" fill="white"/>
<path d="M73.145 144.841L72.6103 132.253L74.9481 132.153L75.1773 137.548L81.6874 137.272L81.4583 131.877L83.7962 131.778L84.3309 144.366L81.993 144.465L81.7722 139.268L75.2621 139.545L75.4829 144.742L73.145 144.841Z" fill="white"/>
<path d="M64.847 130.773C66.1055 131.028 67.1856 131.528 68.0874 132.274C68.9868 133.032 69.627 133.952 70.0078 135.033C70.3863 136.126 70.454 137.272 70.2109 138.472C69.9678 139.671 69.4604 140.695 68.6887 141.542C67.9146 142.402 66.967 143 65.8459 143.336C64.7225 143.683 63.5315 143.73 62.2731 143.475C61.0147 143.22 59.9358 142.713 59.0363 141.956C58.1345 141.21 57.4932 140.296 57.1123 139.215C56.7315 138.134 56.6638 136.988 56.9093 135.776C57.1547 134.565 57.6633 133.535 58.435 132.688C59.2068 131.84 60.1543 131.242 61.2778 130.895C62.3989 130.558 63.5886 130.518 64.847 130.773ZM64.4395 132.784C63.6162 132.617 62.8384 132.649 62.1059 132.881C61.371 133.123 60.7486 133.536 60.2388 134.118C59.7266 134.713 59.3871 135.421 59.2203 136.244C59.0535 137.068 59.0915 137.847 59.3344 138.582C59.5749 139.328 59.9875 139.951 60.5722 140.449C61.1546 140.959 61.8574 141.297 62.6807 141.464C63.5039 141.631 64.283 141.592 65.0179 141.35C65.7504 141.118 66.3727 140.706 66.8849 140.112C67.3947 139.529 67.733 138.827 67.8999 138.003C68.0667 137.18 68.0299 136.395 67.7894 135.648C67.5465 134.914 67.1339 134.291 66.5515 133.781C65.9668 133.283 65.2628 132.951 64.4395 132.784Z" fill="white"/>
<path d="M34.9441 132.021L44.5184 122.827L46.7152 123.987L45.1171 133.686L52.2709 126.919L54.4836 128.087L52.2957 141.179L50.1467 140.045L51.8464 130.114L44.4954 137.062L42.5851 136.054L44.2624 126.051L36.918 133.063L34.9441 132.021Z" fill="white"/>
<path d="M35.0454 114.566L34.4015 119.019C34.4885 119.084 34.6109 119.19 34.7685 119.338L36.8442 121.282L39.3544 118.602L41.0623 120.201L32.4488 129.398L28.6653 125.854C27.8683 125.107 27.2994 124.328 26.9587 123.515C26.6093 122.695 26.5066 121.892 26.6507 121.106C26.7948 120.32 27.1826 119.59 27.8143 118.916C28.4624 118.224 29.191 117.788 30.0001 117.609C30.8005 117.421 31.6309 117.5 32.4911 117.846L33.2062 112.843L35.0454 114.566ZM29.5353 120.528C28.9857 121.114 28.7559 121.746 28.8459 122.422C28.9359 123.098 29.3532 123.785 30.0976 124.482L32.0945 126.353L35.5276 122.687L33.5307 120.817C32.7863 120.12 32.0737 119.748 31.393 119.703C30.7041 119.666 30.0849 119.941 29.5353 120.528Z" fill="white"/>
<path d="M25.3362 105.039L26.9437 103.914L32.362 111.656L22.039 118.881L16.765 111.345L18.3725 110.22L22.3047 115.839L24.9887 113.96L21.5003 108.976L23.0783 107.871L26.5667 112.856L29.4129 110.864L25.3362 105.039Z" fill="white"/>
<path d="M20.5309 94.4568L22.3293 93.6723L26.1077 102.334L14.5588 107.372L10.881 98.9413L12.6794 98.1568L15.4215 104.443L18.4242 103.133L15.9916 97.5564L17.7569 96.7863L20.1896 102.363L23.3738 100.974L20.5309 94.4568Z" fill="white"/>
<path d="M9.5378 94.5155L9.02071 92.2333L19.3782 89.8865L17.9224 83.4614L19.8534 83.0238L21.8263 91.7311L9.5378 94.5155Z" fill="white"/>
<path d="M8.38005 58.8304L20.4989 64.2464L20.2503 66.7179L10.6614 68.8832L19.6216 72.9684L19.3712 75.4578L6.41651 78.3519L6.6597 75.9341L16.5011 73.7762L7.2992 69.5762L7.51537 67.427L17.4159 65.2208L8.15668 61.0512L8.38005 58.8304Z" fill="white"/>
<path d="M21.8074 51.4457L19.528 57.3189L21.797 59.5318L20.9243 61.7804L11.2295 51.9356L12.0631 49.7877L25.8675 49.044L24.9817 51.3262L21.8074 51.4457ZM19.8157 51.503L13.8212 51.7251L18.1029 55.9163L19.8157 51.503Z" fill="white"/>
<path d="M18.874 40.6925L16.6323 44.2157L14.9618 43.1528L20.7014 34.132L22.3719 35.1949L20.1302 38.7182L29.0903 44.4192L27.8341 46.3935L18.874 40.6925Z" fill="white"/>
<path d="M35.5907 36.6636C34.7178 37.5888 33.7265 38.2373 32.6167 38.6091C31.5065 38.964 30.3918 39.0176 29.2726 38.77C28.1616 38.5137 27.1566 37.9614 26.2575 37.1132C25.3585 36.265 24.7529 35.2894 24.4407 34.1864C24.1285 33.0835 24.1216 31.9716 24.4201 30.8509C24.7181 29.7132 25.3036 28.6818 26.1765 27.7566C26.8847 27.006 27.6621 26.4443 28.5086 26.0717C29.3552 25.699 30.2289 25.5335 31.13 25.5752L31.1267 27.6509C29.7851 27.6389 28.6572 28.1174 27.7431 29.0862C27.1502 29.7147 26.7587 30.4094 26.5686 31.1705C26.3698 31.9233 26.383 32.6699 26.6083 33.4104C26.8335 34.1508 27.256 34.8134 27.8757 35.3981C28.4954 35.9828 29.1815 36.3661 29.9338 36.5479C30.6861 36.7298 31.4366 36.7037 32.1853 36.4697C32.9253 36.2275 33.5917 35.7922 34.1846 35.1637C35.0987 34.1949 35.5065 33.037 35.4079 31.6902L37.4929 31.5786C37.5869 32.4757 37.4684 33.362 37.1373 34.2375C36.8145 35.1042 36.2989 35.9129 35.5907 36.6636Z" fill="white"/>
<path d="M42.1444 15.3544L49.1789 25.808L47.2375 27.1144L44.2227 22.6343L38.8168 26.2721L41.8315 30.7522L39.8902 32.0586L32.8557 21.605L34.7971 20.2986L37.7013 24.6145L43.1073 20.9767L40.2031 16.6608L42.1444 15.3544Z" fill="white"/>
<path d="M58.7629 22.2128C57.8361 22.5058 56.8964 22.6583 55.9436 22.6701C55.0022 22.6783 54.2111 22.5446 53.5702 22.269L53.7944 20.2914C54.4094 20.5248 55.1114 20.6552 55.9003 20.6826C56.6971 20.695 57.456 20.5872 58.1768 20.3592C59.0692 20.077 59.6876 19.7241 60.0319 19.3006C60.3877 18.8735 60.4914 18.4254 60.3431 17.9562C60.2345 17.613 60.02 17.3725 59.6996 17.2347C59.387 17.0818 59.0219 17.0022 58.6046 16.9957C58.1872 16.9893 57.6271 17.009 56.9243 17.0551C55.9402 17.1271 55.1278 17.1449 54.487 17.1084C53.8576 17.0683 53.2646 16.8846 52.708 16.5572C52.1592 16.2147 51.7599 15.6487 51.5103 14.8592C51.3004 14.1956 51.2878 13.5389 51.4725 12.8889C51.665 12.224 52.0709 11.6173 52.6905 11.069C53.3214 10.5171 54.1632 10.0747 55.2158 9.74187C55.9481 9.51032 56.6979 9.37392 57.4651 9.33266C58.2324 9.29141 58.9277 9.361 59.5511 9.54144L59.3956 11.4973C58.7716 11.3549 58.1483 11.294 57.5255 11.3147C56.9028 11.3354 56.3225 11.4308 55.7848 11.6008C54.9038 11.8794 54.2929 12.2362 53.9522 12.6712C53.623 13.1025 53.5361 13.5642 53.6917 14.0562C53.8002 14.3994 54.009 14.6418 54.318 14.7832C54.6385 14.921 55.0074 14.9931 55.4248 14.9995C55.8421 15.006 56.4022 14.9862 57.105 14.9402C58.0626 14.8639 58.8636 14.8498 59.5081 14.8977C60.1489 14.9342 60.7419 15.1179 61.2871 15.449C61.8437 15.7764 62.245 16.3291 62.491 17.1071C62.7009 17.7707 62.7077 18.4293 62.5117 19.0828C62.327 19.7328 61.9192 20.3337 61.2883 20.8856C60.6573 21.4375 59.8155 21.8799 58.7629 22.2128Z" fill="white"/>
<path d="M74.8895 6.52466L76.1022 19.0662L73.7731 19.2914L73.2533 13.9165L66.7676 14.5436L67.2873 19.9185L64.9582 20.1438L63.7455 7.60227L66.0746 7.37704L66.5753 12.5549L73.061 11.9277L72.5603 6.74988L74.8895 6.52466Z" fill="white"/>
<path d="M83.8297 20.0651C82.5587 19.8827 81.4517 19.4451 80.5085 18.7521C79.5671 18.0472 78.8753 17.166 78.433 16.1085C77.9924 15.0391 77.859 13.8986 78.0329 12.687C78.2067 11.4754 78.6546 10.4243 79.3764 9.53382C80.0999 8.63143 81.0116 7.98033 82.1115 7.5805C83.2132 7.1688 84.3995 7.05413 85.6705 7.2365C86.9414 7.41887 88.0477 7.86248 88.9891 8.56734C89.9322 9.26033 90.6249 10.1356 91.0672 11.1931C91.5095 12.2507 91.6429 13.3912 91.4673 14.6146C91.2917 15.8381 90.8431 16.8951 90.1213 17.7856C89.3995 18.6761 88.4878 19.3272 87.3861 19.7389C86.2862 20.1388 85.1007 20.2475 83.8297 20.0651ZM84.1212 18.0339C84.9527 18.1532 85.7274 18.0765 86.4454 17.8037C87.1652 17.519 87.7628 17.0714 88.2384 16.4607C88.7156 15.8382 89.0139 15.1112 89.1332 14.2797C89.2525 13.4482 89.1698 12.6726 88.8852 11.9529C88.6022 11.2213 88.1546 10.6237 87.5422 10.16C86.9316 9.68443 86.2105 9.387 85.379 9.2677C84.5475 9.14839 83.7719 9.23107 83.0522 9.51573C82.3342 9.78851 81.7365 10.2362 81.2593 10.8587C80.7837 11.4693 80.4863 12.1904 80.367 13.0219C80.2477 13.8534 80.3295 14.6349 80.6125 15.3665C80.8971 16.0862 81.3448 16.6839 81.9554 17.1594C82.5678 17.6231 83.2897 17.9146 84.1212 18.0339Z" fill="white"/>
<path d="M113.757 17.1402L104.708 26.8526L102.451 25.8171L103.507 16.0437L96.7403 23.1985L94.4661 22.1556L95.9224 8.9617L98.1312 9.97463L96.9865 19.9846L103.94 12.6383L105.903 13.5386L104.785 23.6202L111.728 16.2098L113.757 17.1402Z" fill="white"/>
<path d="M114.587 34.5156L114.988 30.0344C114.897 29.9741 114.769 29.8746 114.604 29.7357L112.425 27.9076L110.065 30.7205L108.272 29.2163L116.372 19.5643L120.343 22.8966C121.179 23.5986 121.79 24.3458 122.174 25.1384C122.568 25.9387 122.714 26.7351 122.613 27.5275C122.512 28.32 122.165 29.0701 121.571 29.778C120.961 30.5042 120.258 30.9788 119.459 31.202C118.67 31.4328 117.837 31.3992 116.959 31.1012L116.518 36.1354L114.587 34.5156ZM119.764 28.2622C120.281 27.6463 120.476 27.0032 120.349 26.3329C120.223 25.6626 119.769 24.9996 118.987 24.3439L116.891 22.5852L113.663 26.4322L115.759 28.1909C116.54 28.8466 117.272 29.1787 117.954 29.1871C118.644 29.1864 119.248 28.8781 119.764 28.2622Z" fill="white"/>
<path d="M124.895 43.5464L123.351 44.7576L117.517 37.3234L127.43 29.5448L133.108 36.7807L131.565 37.992L127.331 32.5969L124.754 34.6193L128.51 39.4055L126.994 40.5945L123.239 35.8083L120.506 37.953L124.895 43.5464Z" fill="white"/>
<path d="M130.263 53.7724L128.512 54.6559L124.256 46.2183L135.507 40.5444L139.648 48.7571L137.897 49.6406L134.808 43.5173L131.883 44.9925L134.623 50.4247L132.903 51.292L130.164 45.8597L127.062 47.4241L130.263 53.7724Z" fill="white"/>
<path d="M141.273 53.1369L141.919 55.3859L131.712 58.3188L133.532 64.6506L131.629 65.1974L129.163 56.6166L141.273 53.1369Z" fill="white"/>
</svg>
