<svg width="1474" height="316" fill="none" xmlns="http://www.w3.org/2000/svg"><g clip-path="url(#a)"><path fill="#fff" d="M0 0h737v316H0z"/><g filter="url(#b)"><circle cx="437.054" cy="100.824" r="101.824" fill="#0094FF"/></g><g filter="url(#c)"><circle cx="437.054" cy="100.824" r="101.824" fill="#0094FF"/></g><g filter="url(#d)"><circle cx="734.824" cy="159.824" r="101.824" fill="#0094FF"/></g><g filter="url(#e)"><circle cx="436.824" cy="315.824" r="101.824" fill="#0094FF"/></g><g filter="url(#f)"><path d="M726.999 215.195c0 56.333-49.025 102-109.5 102s-109.5-45.667-109.5-102-43.975-128.5 16.5-128.5c60.476 0 202.5 72.167 202.5 128.5z" fill="#FF58E5"/></g><g filter="url(#g)"><ellipse cx="487.5" cy="190.195" rx="104.5" ry="54" fill="#40EFFF"/></g><g filter="url(#h)"><ellipse cx="656.5" cy="47" rx="104.5" ry="54" fill="#40EFFF"/></g><g filter="url(#i)"><circle cx="110.824" cy="100.824" r="101.824" fill="#0094FF"/></g><g filter="url(#j)"><path d="M400.769 215.195c0 56.333-49.025 102-109.5 102-60.476 0-109.5-45.667-109.5-102s-43.975-128.5 16.5-128.5 202.5 72.167 202.5 128.5z" fill="#FF58E5"/></g><g filter="url(#k)"><path d="M174.441 318.5c0 56.333-49.025 102-109.5 102-60.476 0-109.5-45.667-109.5-102S-88.535 190-28.06 190s202.5 72.167 202.5 128.5z" fill="#FF58E5"/></g><g filter="url(#l)"><ellipse cx="161.27" cy="190.195" rx="104.5" ry="54" fill="#40EFFF"/></g><g filter="url(#m)"><ellipse cx="737.5" cy="316" rx="104.5" ry="54" fill="#40EFFF"/></g><g filter="url(#n)"><ellipse cx="263.5" cy="-17" rx="104.5" ry="54" fill="#40EFFF"/></g></g><g clip-path="url(#o)"><path fill="#fff" d="M1474 0H737v316h737z"/><g filter="url(#p)"><circle r="101.824" transform="matrix(-1 0 0 1 1036.95 100.824)" fill="#0094FF"/></g><g filter="url(#q)"><circle r="101.824" transform="matrix(-1 0 0 1 1036.95 100.824)" fill="#0094FF"/></g><g filter="url(#r)"><circle r="101.824" transform="matrix(-1 0 0 1 739.176 159.824)" fill="#0094FF"/></g><g filter="url(#s)"><circle r="101.824" transform="matrix(-1 0 0 1 1037.18 315.824)" fill="#0094FF"/></g><g filter="url(#t)"><path d="M747.001 215.195c0 56.333 49.025 102 109.5 102s109.5-45.667 109.5-102 43.979-128.5-16.5-128.5c-60.476 0-202.5 72.167-202.5 128.5z" fill="#FF58E5"/></g><g filter="url(#u)"><ellipse rx="104.5" ry="54" transform="matrix(-1 0 0 1 986.5 190.195)" fill="#40EFFF"/></g><g filter="url(#v)"><ellipse rx="104.5" ry="54" transform="matrix(-1 0 0 1 817.5 47)" fill="#40EFFF"/></g><g filter="url(#w)"><circle r="101.824" transform="matrix(-1 0 0 1 1363.18 100.824)" fill="#0094FF"/></g><g filter="url(#x)"><path d="M1073.23 215.195c0 56.333 49.03 102 109.5 102 60.48 0 109.5-45.667 109.5-102s43.98-128.5-16.5-128.5c-60.47 0-202.5 72.167-202.5 128.5z" fill="#FF58E5"/></g><g filter="url(#y)"><path d="M1299.56 318.5c0 56.333 49.02 102 109.5 102 60.47 0 109.5-45.667 109.5-102s43.97-128.5-16.5-128.5c-60.48 0-202.5 72.167-202.5 128.5z" fill="#FF58E5"/></g><g filter="url(#z)"><ellipse rx="104.5" ry="54" transform="matrix(-1 0 0 1 1312.73 190.195)" fill="#40EFFF"/></g><g filter="url(#A)"><ellipse rx="104.5" ry="54" transform="matrix(-1 0 0 1 736.5 316)" fill="#40EFFF"/></g><g filter="url(#B)"><ellipse rx="104.5" ry="54" transform="matrix(-1 0 0 1 1210.5 -17)" fill="#40EFFF"/></g></g><defs><filter id="q" x="813.627" y="-122.494" width="446.637" height="446.636" filterUnits="userSpaceOnUse" color-interpolation-filters="sRGB"><feFlood flood-opacity="0" result="BackgroundImageFix"/><feBlend in="SourceGraphic" in2="BackgroundImageFix" result="shape"/><feGaussianBlur stdDeviation="60.747" result="effect1_foregroundBlur_501_224"/></filter><filter id="b" x="213.736" y="-122.494" width="446.637" height="446.636" filterUnits="userSpaceOnUse" color-interpolation-filters="sRGB"><feFlood flood-opacity="0" result="BackgroundImageFix"/><feBlend in="SourceGraphic" in2="BackgroundImageFix" result="shape"/><feGaussianBlur stdDeviation="60.747" result="effect1_foregroundBlur_501_224"/></filter><filter id="d" x="511.506" y="-63.494" width="446.637" height="446.636" filterUnits="userSpaceOnUse" color-interpolation-filters="sRGB"><feFlood flood-opacity="0" result="BackgroundImageFix"/><feBlend in="SourceGraphic" in2="BackgroundImageFix" result="shape"/><feGaussianBlur stdDeviation="60.747" result="effect1_foregroundBlur_501_224"/></filter><filter id="e" x="213.506" y="92.506" width="446.637" height="446.636" filterUnits="userSpaceOnUse" color-interpolation-filters="sRGB"><feFlood flood-opacity="0" result="BackgroundImageFix"/><feBlend in="SourceGraphic" in2="BackgroundImageFix" result="shape"/><feGaussianBlur stdDeviation="60.747" result="effect1_foregroundBlur_501_224"/></filter><filter id="f" x="371.064" y="-34.799" width="477.43" height="473.489" filterUnits="userSpaceOnUse" color-interpolation-filters="sRGB"><feFlood flood-opacity="0" result="BackgroundImageFix"/><feBlend in="SourceGraphic" in2="BackgroundImageFix" result="shape"/><feGaussianBlur stdDeviation="60.747" result="effect1_foregroundBlur_501_224"/></filter><filter id="g" x="327.46" y="80.655" width="320.08" height="219.08" filterUnits="userSpaceOnUse" color-interpolation-filters="sRGB"><feFlood flood-opacity="0" result="BackgroundImageFix"/><feBlend in="SourceGraphic" in2="BackgroundImageFix" result="shape"/><feGaussianBlur stdDeviation="27.77" result="effect1_foregroundBlur_501_224"/></filter><filter id="h" x="496.46" y="-62.54" width="320.08" height="219.08" filterUnits="userSpaceOnUse" color-interpolation-filters="sRGB"><feFlood flood-opacity="0" result="BackgroundImageFix"/><feBlend in="SourceGraphic" in2="BackgroundImageFix" result="shape"/><feGaussianBlur stdDeviation="27.77" result="effect1_foregroundBlur_501_224"/></filter><filter id="i" x="-112.494" y="-122.494" width="446.637" height="446.636" filterUnits="userSpaceOnUse" color-interpolation-filters="sRGB"><feFlood flood-opacity="0" result="BackgroundImageFix"/><feBlend in="SourceGraphic" in2="BackgroundImageFix" result="shape"/><feGaussianBlur stdDeviation="60.747" result="effect1_foregroundBlur_501_224"/></filter><filter id="j" x="44.834" y="-34.799" width="477.43" height="473.489" filterUnits="userSpaceOnUse" color-interpolation-filters="sRGB"><feFlood flood-opacity="0" result="BackgroundImageFix"/><feBlend in="SourceGraphic" in2="BackgroundImageFix" result="shape"/><feGaussianBlur stdDeviation="60.747" result="effect1_foregroundBlur_501_224"/></filter><filter id="k" x="-181.494" y="68.506" width="477.43" height="473.489" filterUnits="userSpaceOnUse" color-interpolation-filters="sRGB"><feFlood flood-opacity="0" result="BackgroundImageFix"/><feBlend in="SourceGraphic" in2="BackgroundImageFix" result="shape"/><feGaussianBlur stdDeviation="60.747" result="effect1_foregroundBlur_501_224"/></filter><filter id="l" x="1.229" y="80.655" width="320.08" height="219.08" filterUnits="userSpaceOnUse" color-interpolation-filters="sRGB"><feFlood flood-opacity="0" result="BackgroundImageFix"/><feBlend in="SourceGraphic" in2="BackgroundImageFix" result="shape"/><feGaussianBlur stdDeviation="27.77" result="effect1_foregroundBlur_501_224"/></filter><filter id="m" x="577.46" y="206.46" width="320.08" height="219.08" filterUnits="userSpaceOnUse" color-interpolation-filters="sRGB"><feFlood flood-opacity="0" result="BackgroundImageFix"/><feBlend in="SourceGraphic" in2="BackgroundImageFix" result="shape"/><feGaussianBlur stdDeviation="27.77" result="effect1_foregroundBlur_501_224"/></filter><filter id="n" x="103.46" y="-126.54" width="320.08" height="219.08" filterUnits="userSpaceOnUse" color-interpolation-filters="sRGB"><feFlood flood-opacity="0" result="BackgroundImageFix"/><feBlend in="SourceGraphic" in2="BackgroundImageFix" result="shape"/><feGaussianBlur stdDeviation="27.77" result="effect1_foregroundBlur_501_224"/></filter><filter id="p" x="813.627" y="-122.494" width="446.637" height="446.636" filterUnits="userSpaceOnUse" color-interpolation-filters="sRGB"><feFlood flood-opacity="0" result="BackgroundImageFix"/><feBlend in="SourceGraphic" in2="BackgroundImageFix" result="shape"/><feGaussianBlur stdDeviation="60.747" result="effect1_foregroundBlur_501_224"/></filter><filter id="c" x="213.736" y="-122.494" width="446.637" height="446.636" filterUnits="userSpaceOnUse" color-interpolation-filters="sRGB"><feFlood flood-opacity="0" result="BackgroundImageFix"/><feBlend in="SourceGraphic" in2="BackgroundImageFix" result="shape"/><feGaussianBlur stdDeviation="60.747" result="effect1_foregroundBlur_501_224"/></filter><filter id="r" x="515.857" y="-63.494" width="446.637" height="446.636" filterUnits="userSpaceOnUse" color-interpolation-filters="sRGB"><feFlood flood-opacity="0" result="BackgroundImageFix"/><feBlend in="SourceGraphic" in2="BackgroundImageFix" result="shape"/><feGaussianBlur stdDeviation="60.747" result="effect1_foregroundBlur_501_224"/></filter><filter id="s" x="813.857" y="92.506" width="446.637" height="446.636" filterUnits="userSpaceOnUse" color-interpolation-filters="sRGB"><feFlood flood-opacity="0" result="BackgroundImageFix"/><feBlend in="SourceGraphic" in2="BackgroundImageFix" result="shape"/><feGaussianBlur stdDeviation="60.747" result="effect1_foregroundBlur_501_224"/></filter><filter id="t" x="625.506" y="-34.799" width="477.43" height="473.489" filterUnits="userSpaceOnUse" color-interpolation-filters="sRGB"><feFlood flood-opacity="0" result="BackgroundImageFix"/><feBlend in="SourceGraphic" in2="BackgroundImageFix" result="shape"/><feGaussianBlur stdDeviation="60.747" result="effect1_foregroundBlur_501_224"/></filter><filter id="u" x="826.46" y="80.655" width="320.08" height="219.08" filterUnits="userSpaceOnUse" color-interpolation-filters="sRGB"><feFlood flood-opacity="0" result="BackgroundImageFix"/><feBlend in="SourceGraphic" in2="BackgroundImageFix" result="shape"/><feGaussianBlur stdDeviation="27.77" result="effect1_foregroundBlur_501_224"/></filter><filter id="v" x="657.46" y="-62.54" width="320.08" height="219.08" filterUnits="userSpaceOnUse" color-interpolation-filters="sRGB"><feFlood flood-opacity="0" result="BackgroundImageFix"/><feBlend in="SourceGraphic" in2="BackgroundImageFix" result="shape"/><feGaussianBlur stdDeviation="27.77" result="effect1_foregroundBlur_501_224"/></filter><filter id="w" x="1139.86" y="-122.494" width="446.637" height="446.636" filterUnits="userSpaceOnUse" color-interpolation-filters="sRGB"><feFlood flood-opacity="0" result="BackgroundImageFix"/><feBlend in="SourceGraphic" in2="BackgroundImageFix" result="shape"/><feGaussianBlur stdDeviation="60.747" result="effect1_foregroundBlur_501_224"/></filter><filter id="x" x="951.736" y="-34.799" width="477.43" height="473.489" filterUnits="userSpaceOnUse" color-interpolation-filters="sRGB"><feFlood flood-opacity="0" result="BackgroundImageFix"/><feBlend in="SourceGraphic" in2="BackgroundImageFix" result="shape"/><feGaussianBlur stdDeviation="60.747" result="effect1_foregroundBlur_501_224"/></filter><filter id="y" x="1178.06" y="68.506" width="477.43" height="473.489" filterUnits="userSpaceOnUse" color-interpolation-filters="sRGB"><feFlood flood-opacity="0" result="BackgroundImageFix"/><feBlend in="SourceGraphic" in2="BackgroundImageFix" result="shape"/><feGaussianBlur stdDeviation="60.747" result="effect1_foregroundBlur_501_224"/></filter><filter id="z" x="1152.69" y="80.655" width="320.08" height="219.08" filterUnits="userSpaceOnUse" color-interpolation-filters="sRGB"><feFlood flood-opacity="0" result="BackgroundImageFix"/><feBlend in="SourceGraphic" in2="BackgroundImageFix" result="shape"/><feGaussianBlur stdDeviation="27.77" result="effect1_foregroundBlur_501_224"/></filter><filter id="A" x="576.46" y="206.46" width="320.08" height="219.08" filterUnits="userSpaceOnUse" color-interpolation-filters="sRGB"><feFlood flood-opacity="0" result="BackgroundImageFix"/><feBlend in="SourceGraphic" in2="BackgroundImageFix" result="shape"/><feGaussianBlur stdDeviation="27.77" result="effect1_foregroundBlur_501_224"/></filter><filter id="B" x="1050.46" y="-126.54" width="320.08" height="219.08" filterUnits="userSpaceOnUse" color-interpolation-filters="sRGB"><feFlood flood-opacity="0" result="BackgroundImageFix"/><feBlend in="SourceGraphic" in2="BackgroundImageFix" result="shape"/><feGaussianBlur stdDeviation="27.77" result="effect1_foregroundBlur_501_224"/></filter><clipPath id="a"><path fill="#fff" d="M0 0h737v316H0z"/></clipPath><clipPath id="o"><path fill="#fff" transform="matrix(-1 0 0 1 1474 0)" d="M0 0h737v316H0z"/></clipPath></defs></svg>