<svg width="101" height="18" viewBox="0 0 101 18" fill="none" xmlns="http://www.w3.org/2000/svg">
<path d="M14.5709 13.5745C14.5709 16.0238 13.201 17.0616 10.6272 17.0616H0.207563L0.871763 14.7369H10.5857C11.4159 14.7369 11.8726 14.4878 11.8726 13.5745V13.3254C11.8726 12.3707 11.4159 12.1631 10.5857 12.1631H3.94369C1.36991 12.1631 0 11.0838 0 8.67604V8.55151C0 6.10227 1.36991 5.06445 3.94369 5.06445H14.0312L13.367 7.38916H3.9852C3.15495 7.38916 2.69831 7.63823 2.69831 8.55151V8.67604C2.69831 9.63083 3.15495 9.8384 3.9852 9.8384H10.5857C13.1595 9.8384 14.5294 10.9177 14.5294 13.3254V13.5745H14.5709Z" fill="#3F3635"/>
<path d="M30.7193 17.0616H21.2544C18.5976 17.0616 17.1031 15.8992 17.1031 13.367V8.75907C17.1031 6.2268 18.5976 5.06445 21.2544 5.06445H30.6777L30.0135 7.38916H21.3374C20.4657 7.38916 19.843 7.76277 19.843 8.75907V13.367C19.843 14.3633 20.4657 14.7369 21.3374 14.7369H30.0966L30.7193 17.0616Z" fill="#3F3635"/>
<path d="M45.0826 11.9558H35.8669V17.0618H33.1685V5.02319H35.8669V9.6726H45.0826V5.02319H47.8225V17.0618H45.0826V11.9558Z" fill="#3F3635"/>
<path d="M82.859 17.0616H73.3942C70.7374 17.0616 69.2429 15.8992 69.2429 13.367V8.75907C69.2429 6.2268 70.7374 5.06445 73.3942 5.06445H82.776L82.1118 7.38916H73.4357C72.5639 7.38916 71.9412 7.76277 71.9412 8.75907V13.367C71.9412 14.3633 72.5639 14.7369 73.4357 14.7369H82.1948L82.859 17.0616Z" fill="#3F3635"/>
<path d="M51.0189 13.367V5.06445H53.7588V13.367C53.7588 14.3633 54.3814 14.7369 55.2532 14.7369H62.1028C62.9745 14.7369 63.5972 14.3633 63.5972 13.367V5.06445H66.337V13.367C66.337 15.8992 64.8426 17.0616 62.1858 17.0616H55.1702C52.4719 17.0616 51.0189 15.8992 51.0189 13.367Z" fill="#3F3635"/>
<path d="M98.2602 13.367V8.75907C98.2602 7.76277 97.6375 7.38916 96.7657 7.38916H88.9614C88.0896 7.38916 87.4669 7.76277 87.4669 8.75907V13.367C87.4669 14.3633 88.0896 14.7369 88.9614 14.7369H96.7657C97.6375 14.7369 98.2602 14.3633 98.2602 13.367ZM96.8488 17.0616H88.9199C86.2631 17.0616 84.7686 15.8992 84.7686 13.367V8.75907C84.7686 6.2268 86.2631 5.06445 88.9199 5.06445H96.8488C99.5056 5.06445 101 6.2268 101 8.75907V13.367C101 15.8992 99.5056 17.0616 96.8488 17.0616Z" fill="#3F3635"/>
<path d="M56.6231 0H60.6913L59.8611 3.321H57.4534L56.6231 0Z" fill="#3F3635"/>
<path d="M62.2273 0H65.7143L63.5972 3.321H61.1064L62.2273 0Z" fill="#3F3635"/>
<path d="M51.6001 0H55.0872L56.208 3.321H53.7172L51.6001 0Z" fill="#3F3635"/>
</svg>
