<svg width="142" height="155" fill="none" xmlns="http://www.w3.org/2000/svg"><g clip-path="url(#a)"><g opacity=".2" fill="#353535"><path d="m99.9 34.9 11 11 6.7-6.7 11.1 11.1.2-.2-11.2-11.2-6.7 6.7L100.4 35l4.7-4.7-4.1-4.1-.1.2 3.9 3.9-4.9 4.6Z"/><path d="M128.301 49.7c-.2.2-.2.6 0 .9.2.2.6.2.9 0 .2-.2.2-.6 0-.9-.2-.2-.6-.2-.9 0Zm-11.1-11.1c-.2.2-.2.6 0 .9.2.2.6.2.9 0 .2-.2.2-.6 0-.9-.3-.2-.7-.2-.9 0Zm-16.8-12.6c-.2.2-.2.5 0 .7.2.2.5.2.7 0 .2-.2.2-.5 0-.7-.2-.2-.5-.2-.7 0Zm10.1 19.4c-.2.2-.2.6 0 .9.2.3.6.2.9 0 .2-.2.2-.6 0-.9-.3-.3-.7-.3-.9 0Zm-10.9-10.9c-.2.2-.3.6 0 .9.2.2.6.2.9 0 .2-.2.2-.6 0-.9-.3-.3-.7-.3-.9 0Zm4.7-4.4c-.2.1-.2.4 0 .5.1.1.4.2.5 0 .2-.1.2-.4 0-.5-.1-.2-.3-.2-.5 0 0-.1 0-.1 0 0Zm-30.8-15.4 11 11 6.7-6.7 11.1 11.1.1-.2-11.2-11.2-6.7 6.7-10.6-10.6 4.7-4.7-4.1-4.1-.1.2 3.9 3.9-4.8 4.6Z"/><path d="M102 29.5c-.2.3-.2.7.1.9.2.2.6.2.8 0 .2-.2.3-.6 0-.9-.3-.3-.7-.3-.9 0ZM90.9 18.4c-.3.2-.3.6-.1.9.2.3.6.3.9.1 0 0 .1 0 .1-.1.2-.2.3-.6 0-.9-.3-.3-.7-.3-.9 0ZM74.1 5.7c-.2.2-.2.5 0 .7.2.2.5.2.7 0 .2-.2.2-.5 0-.7-.2-.2-.5-.2-.7 0Zm10 19.4c-.2.2-.2.6 0 .9.2.3.6.2.9 0 .3-.2.2-.6 0-.9-.2-.2-.6-.2-.9 0ZM73.2 14.2c-.2.2-.3.6 0 .9.3.2.7.1.9-.1.2-.2.2-.5 0-.7-.3-.3-.6-.3-.9-.1ZM78 9.8c-.2.1-.2.4 0 .5.1.1.4.2.5 0 .2-.1.2-.4 0-.5-.1-.2-.4-.2-.5 0Zm6.7 25.9 11 11 6.7-6.7 11.1 11.1.2-.2-11.2-11.2-6.7 6.7-10.6-10.6 4.7-4.7-4.1-4.1-.2.1 3.9 3.9-4.8 4.7Z"/><path d="M113.2 50.4c-.2.2-.2.6 0 .9.2.2.6.2.9 0 .2-.2.2-.6 0-.9-.3-.2-.7-.2-.9 0Zm-11.1-11.1c-.2.2-.3.6 0 .9.2.2.6.3.9 0 .2-.2.2-.6 0-.9-.3-.2-.7-.2-.9 0ZM85.3 26.7c-.2.2-.2.5 0 .7.2.2.5.2.7 0 .2-.2.2-.5 0-.7-.2-.2-.5-.2-.7 0Zm10 19.4c-.2.3-.2.7.1.9.2.2.5.2.8 0 .2-.3.2-.7-.1-.9-.2-.2-.6-.2-.8 0Zm-10.9-11c-.2.2-.2.6 0 .9.2.2.6.2.9 0 .3-.2.2-.6 0-.9-.3-.2-.7-.2-.9 0Zm4.7-4.4c-.1.2-.1.4 0 .6.2.1.4.1.6-.1.1-.1.1-.3 0-.5-.2-.1-.4-.1-.6 0Zm16.1 43.2.1.2 3.9-3.9 4.7 4.7 11-11-6.7-6.7 11.1-11.1-.1-.1L118 57.2l6.7 6.7-10.6 10.6-4.7-4.7-4.2 4.1Z"/><path d="M128.7 46.4c.2.3.7.3.9 0 .3-.2.3-.7 0-.9-.2-.3-.7-.3-.9 0-.2.3-.2.7 0 .9Zm-11.1 11.1c.2.3.7.3.9 0 .3-.2.3-.7 0-.9-.3-.2-.7-.3-.9 0-.2.3-.2.7 0 .9ZM105 74.3c.2.2.5.2.7 0 .2-.2.2-.5 0-.7-.2-.2-.5-.2-.7 0-.2.2-.2.5 0 .7Zm19.3-10.1c.2.3.6.3.9.1l.1-.1c.2-.2.2-.6 0-.9-.2-.2-.6-.3-.9 0-.2.3-.3.6-.1.9Zm-10.9 11c.2.2.6.2.9 0 .2-.2.2-.6 0-.9-.2-.2-.6-.2-.9 0-.2.2-.2.6 0 .9Zm-4.4-4.8c.1.2.4.2.5 0 .2-.1.2-.4 0-.5-.1-.2-.4-.2-.5 0-.1.1-.1.3 0 .5ZM69.9 38.6l.2.2 3.9-3.9 4.7 4.7 11-11-6.7-6.7 11.1-11.1-.1-.1-11.2 11.2 6.7 6.7-10.6 10.6-4.7-4.7-4.3 4.1Z"/><path d="M93.4 11.2c.3.2.7.2.9-.1.2-.2.2-.5 0-.8-.3-.2-.7-.2-.9.1-.1.2-.1.5 0 .8Zm-11 11.1c.3.2.7.2.9-.1.2-.2.2-.5 0-.8-.3-.2-.7-.2-.9.1-.2.2-.2.5 0 .8ZM69.7 39.1c.2.2.5.2.7 0 .2-.2.2-.5 0-.7-.2-.2-.5-.2-.7 0-.2.1-.2.5 0 .7ZM89.1 29c.2.3.6.3.9.1.3-.2.3-.6.1-.9 0 0 0-.1-.1-.1-.2-.3-.6-.3-.9-.1-.3.3-.3.7 0 1ZM78.2 39.9c.2.2.6.2.9 0 .2-.2.3-.6 0-.9-.2-.2-.6-.2-.9 0-.3.3-.3.7 0 .9Zm-4.4-4.8c.1.1.4.2.5 0 .2-.1.2-.4 0-.5-.1-.1-.4-.2-.5 0-.2.1-.2.4 0 .5Zm2 24.2.1.2 3.9-3.9 4.7 4.7 11-11-6.7-6.7 11.1-11.1-.2-.1-11.2 11.2 6.7 6.7-10.6 10.6-4.7-4.7-4.1 4.1Z"/><path d="M99.3 31.8c.2.2.6.2.901 0 .2-.2.3-.6 0-.9-.2-.2-.6-.2-.9 0-.3.2-.3.6 0 .9ZM88.1 42.7c.2.3.7.3.9 0 .3-.2.3-.7 0-.9-.2-.3-.7-.3-.9 0-.3.3-.3.7 0 .9-.1 0-.1 0 0 0Zm-12.6 17c.2.2.5.2.7 0 .2-.2.2-.5 0-.7-.2-.2-.5-.2-.7 0-.2.1-.2.5 0 .7Zm19.4-10.1c.3.2.7.2.9-.1.2-.2.2-.5 0-.8-.3-.2-.7-.2-.9.1-.2.3-.2.6 0 .8ZM84 60.5c.2.2.6.2.9 0 .2-.2.3-.6 0-.8-.2-.3-.6-.3-.9-.1-.2.2-.3.6 0 .9ZM79.8 55.9a.4.4 0 1 0 0-.8.4.4 0 0 0 0 .8ZM55.3 31.8l.1.2 3.9-3.9 4.7 4.7 11-11-6.7-6.7L79.4 4l-.2-.1L68 15.1l6.7 6.7-10.6 10.6-4.7-4.7-4.1 4.1Z"/><path d="M78.8 4.3c.2.2.6.2.9 0 .2-.2.2-.6 0-.9-.2-.2-.6-.2-.9 0-.2.3-.2.7 0 .9ZM67.7 15.4c.2.2.601.3.801 0 .2-.2.2-.6 0-.9-.2-.2-.6-.2-.9 0-.3.2-.1.6.1.9ZM55.102 32.2c.2.2.5.2.7 0 .2-.2.2-.5 0-.7-.2-.2-.5-.2-.7 0-.2.2-.2.5 0 .7Zm19.4-10.1c.2.2.6.2.9 0 .2-.3.2-.6 0-.9-.3-.2-.7-.2-.9.1-.2.3-.2.6 0 .8ZM63.601 33c.3.2.7.2.9-.1.2-.2.2-.6 0-.8-.2-.2-.6-.3-.8 0-.4.3-.4.7-.1.9Zm-4.5-4.7c.2.2.4.2.6 0 .2-.2.2-.4 0-.6-.2-.2-.4-.2-.6 0-.1.2-.1.4 0 .6Zm-6.6 25.3.2.2 3.9-3.9 4.7 4.7 11-11-6.7-6.7 11.1-11.1-.1-.2-11.2 11.2 6.7 6.7-10.6 10.6-4.7-4.7-4.3 4.2Z"/><path d="M76 26.1c.2.2.6.2.9 0 .2-.2.2-.6 0-.9-.2-.2-.6-.2-.9 0-.2.3-.2.7 0 .9ZM64.9 37.2c.2.2.6.2.9 0 .2-.2.2-.6 0-.9-.2-.2-.6-.2-.9 0-.2.2-.2.6 0 .9ZM52.3 54c.2.2.5.2.7 0 .2-.2.2-.5 0-.7-.2-.2-.5-.2-.7 0-.2.1-.2.5 0 .7Zm19.4-10.1c.2.2.6.3.9 0 .3-.2.3-.6.1-.9-.2-.3-.6-.3-.9-.1 0 0-.1 0-.1.1-.3.3-.3.7 0 .9-.1 0-.1 0 0 0Zm-11 10.9c.2.2.6.2.9 0 .3-.2.3-.6.1-.9-.2-.3-.6-.3-.9-.1 0 0-.1 0-.1.1-.2.3-.2.7 0 .9Zm-4.4-4.7c.2.1.4.1.6 0 .2-.2.2-.4 0-.6-.2-.1-.4-.1-.6.1-.1.2-.1.3 0 .5ZM77 52.6l1.8-1.7 2.1 2.1 5-5-3-3 5-5-.1-.1-5.1 5.1 3 3-4.8 4.8-2.1-2.1-1.8 1.9Z"/><path d="M87.601 40.2c.1.1.3.1.4 0 .1-.1.1-.3 0-.4-.1-.1-.3-.1-.4 0-.1.1-.1.3 0 .4Zm-5 5c.1.1.3.1.4-.1.1-.1.1-.2 0-.3-.1-.1-.3-.1-.4 0-.1.1-.1.3 0 .4Zm-5.7 7.6c.1.1.2.1.3 0 .1-.1.1-.2 0-.3-.1-.1-.2-.1-.3 0-.1.1-.1.2 0 .3Zm8.8-4.6c.1.1.3.1.4 0 .1-.1.1-.3 0-.4-.1-.1-.3-.1-.4 0-.1.1-.1.3 0 .4Zm-5 5c.1.1.3.1.4 0 .1-.1.1-.2 0-.4-.1-.1-.3-.1-.4 0v.4Zm-2-2.2c.1.1.2.1.2 0 .1-.1.1-.2 0-.2-.1-.1-.2-.1-.2 0v.2ZM65.9 33.5l-1.8 1.7-2.1-2.1-5 5 3 3-5 5 .1.1 5.1-5.1-3-3 4.8-4.8 2.1 2.1 1.8-1.9Z"/><path d="M55.3 45.9c-.1-.1-.3-.1-.4 0-.1.1-.1.3 0 .4.1.1.3.1.4 0 .1-.1.1-.3 0-.4Zm5-5c-.1-.1-.3-.1-.4 0-.1.1-.1.3 0 .4.1.1.3.1.4 0 .1-.1.1-.3 0-.4Zm5.7-7.6c-.1-.1-.2-.1-.3 0-.1.1-.1.2 0 .3.1.1.2.1.3 0 .1-.1.1-.2 0-.3Zm-8.8 4.5c-.1-.1-.3-.1-.4.1-.1.1-.1.2 0 .3.1.1.3.1.4 0 .1-.1.2-.2 0-.4Zm5-4.9c-.1-.1-.3-.1-.4 0-.1.1-.1.3 0 .4.1.1.3.1.4 0 .1-.1.1-.3 0-.4Zm2 2.1c-.1-.1-.2-.1-.3 0-.1.1-.1.2-.1.3 0 .1.2.1.3.1l.1-.1V35Zm58.7 15.2-.1-.1-2.8 2.8-3.3-3.3-7.8 7.8 4.8 4.8-7.9 7.9.1.1 8-8-4.8-4.8 7.6-7.6 3.3 3.3 2.9-2.9Z"/><path d="M106.201 69.8c-.2-.2-.5-.2-.6 0-.2.2-.2.5 0 .6.2.2.5.2.6 0 .1-.1.1-.4 0-.6Zm7.9-7.9c-.2-.2-.5-.2-.6 0-.2.2-.2.5 0 .6.2.2.5.2.6 0 .1-.1.1-.4 0-.6Zm9-11.9c-.1-.1-.4-.1-.5 0-.1.1-.1.4 0 .5.1.1.4.1.5 0 .1-.1.1-.4 0-.5Zm-13.8 7.1c-.2-.2-.5-.2-.6 0-.2.2-.2.5 0 .6.2.2.5.2.6 0 .1-.1.1-.4 0-.6Zm7.8-7.8c-.2-.2-.5-.2-.6 0-.2.2-.2.5 0 .6.2.2.5.2.6 0 .2-.1.1-.4 0-.6Zm3.1 3.4c-.1-.1-.3-.1-.4 0-.1.1-.1.3.1.4.1.1.2.1.3 0 .1-.1.1-.3 0-.4Zm-35.3-2.6-.1.1 2.8 2.8-3.3 3.3 7.8 7.8 4.8-4.8 7.9 7.9.1-.1-8-8-4.8 4.8-7.6-7.6 3.3-3.3-2.9-2.9Z"/><path d="M104.6 66.9c-.2.2-.2.5 0 .6.2.2.5.2.6 0 .1-.2.2-.5 0-.6-.2-.2-.4-.2-.6 0Zm-8-7.9c-.2.2-.2.5 0 .6.2.1.5.2.6 0 .2-.2.2-.5 0-.6-.2-.2-.5-.2-.6 0Zm-12-9c-.2.1-.2.4-.1.5.1.2.4.2.5.1l.1-.1c.1-.2.1-.4-.1-.5-.1-.1-.3-.1-.4 0Zm7.2 13.8c-.2.2-.2.4 0 .6.2.2.5.2.6 0 .2-.2.2-.5 0-.6-.2-.2-.4-.2-.6 0ZM84 56c-.2.2-.2.5 0 .6.2.2.5.2.6 0 .2-.2.2-.5 0-.6-.1-.2-.4-.2-.6 0Zm3.4-3.2c-.1.1-.1.3 0 .4.1.1.3.1.4 0 .1-.1.1-.3 0-.4-.1-.1-.3-.1-.4 0ZM61 41.9l-.1.1 2.8 2.8-3.3 3.3 7.8 7.8 4.8-4.8 7.9 7.9.1-.1-8-8-4.8 4.8-7.6-7.6 3.3-3.3-2.9-2.9Z"/><path d="M80.6 58.7c-.2.2-.2.5 0 .6.2.2.5.2.6 0 .2-.2.2-.5 0-.6-.1-.2-.4-.2-.6 0Zm-7.9-7.9c-.2.2-.2.4 0 .6.2.2.5.2.6 0 .2-.2.1-.5-.1-.6-.1-.2-.4-.2-.5 0Zm-12-9.1c-.1.1-.1.4 0 .5.1.1.4.1.5 0 .1-.1.1-.4 0-.5-.1-.1-.4-.1-.5 0Zm7.2 13.9c-.2.2-.2.5 0 .6.2.2.5.2.6 0 .2-.2.2-.4 0-.6-.1-.2-.4-.2-.6 0Zm-7.8-7.8c-.2.2-.2.5 0 .6.2.2.5.2.6 0 .2-.2.2-.5 0-.6-.1-.2-.4-.2-.6 0Zm3.4-3.2c-.1.1-.1.3 0 .4.1.1.3.1.4 0 .1-.1.1-.3 0-.4-.1-.1-.3-.1-.4 0ZM87.4 5.2l-.1.1 2.8 2.8-3.3 3.3 7.8 7.8 4.8-4.8 7.9 7.9.1-.1-8-8-4.8 4.8-7.6-7.6 3.3-3.3-2.9-2.9Z"/><path d="M107.001 22c-.2.2-.2.5 0 .6.2.2.5.1.6-.1.1-.2.1-.4 0-.6-.2-.1-.5-.1-.6.1Zm-7.9-7.9c-.2.2-.2.5 0 .6.2.2.5.2.6 0 .2-.2.2-.5 0-.6-.2-.2-.5-.2-.6 0Zm-12-9c-.1.1-.1.4 0 .5.1.1.4.1.5 0 .1-.1.1-.4 0-.5-.1-.2-.4-.2-.5 0ZM94.2 19c-.2.2-.2.5 0 .6.2.2.5.2.6 0 .2-.2.2-.4 0-.6-.2-.2-.4-.2-.6 0Zm-7.7-7.9c-.2.2-.2.5 0 .6.2.2.5.1.6-.1.1-.2.1-.4 0-.6-.2-.1-.4-.1-.6.1Zm3.4-3.2c-.1.1-.1.3 0 .4.1.1.3.1.4 0 .1-.1.1-.3 0-.4-.1-.1-.3-.1-.4 0ZM114.4 56.2l1.101 1.2-1.4 1.4 3.299 3.3 2-2 3.401 3.4.099-.1-3.399-3.4-2 2-3.2-3.2 1.4-1.4-1.301-1.2Z"/><path d="M122.8 63.4c-.1.1-.1.2 0 .3.1.1.2.1.3 0 .1-.1.1-.2 0-.3-.2-.1-.3-.1-.3 0Zm-3.4-3.5c-.1.1-.1.2 0 .3.1.1.2.1.3 0 .1-.1.1-.2 0-.3h-.3Zm-5.1-3.8c-.1.1-.1.2 0 .2.1.1.1.1.2 0 .1 0 .1-.1.1-.2-.1 0-.2-.1-.3 0Zm3 5.9c-.1.1-.1.2 0 .3.1.1.2.1.3 0 .1-.1.1-.2 0-.3-.1-.1-.2-.1-.3 0Zm-3.3-3.3c-.1.1-.1.2 0 .3.1.1.2.1.3 0 .1-.1.1-.2 0-.3-.1-.1-.2-.1-.3 0Zm1.5-1.3v.2c0 .1.1 0 .2 0 0 0 .1-.1 0-.2-.1 0-.2-.1-.2 0ZM98 45l1.1 1.2-1.4 1.4 3.3 3.3 2-2 3.4 3.4.1-.1-3.4-3.4-2 2-3.2-3.2 1.4-1.4L98 45Z"/><path d="M106.4 52.1c-.1.1-.1.2 0 .3.1.1.2.1.3 0 .1-.1.1-.2 0-.3-.1-.1-.3-.1-.3 0Zm-3.4-3.3c-.1.1-.1.2 0 .3.1.1.2.1.3 0 .1-.1.1-.2 0-.3-.1-.1-.2-.1-.3 0 0 0 0-.1 0 0Zm-5.1-3.9c-.1.1-.1.2 0 .2 0 .1.1.1.2.1s.1-.1.1-.2l-.1-.1h-.2Zm3 5.9c-.1.1-.1.2 0 .3.1.1.2.1.3 0 .1-.1.1-.2 0-.3-.1-.1-.2-.1-.3 0Zm-3.3-3.3c-.1.1-.1.2 0 .3.1.1.2.1.3 0 .1-.1.1-.2 0-.3-.1-.1-.2-.1-.3 0Zm1.4-1.4v.2h.2v-.2H99ZM89 21.9l1.3 1.4-1.6 1.6 3.8 3.8 2.3-2.3 3.8 3.8.1-.1-3.9-3.9-2.3 2.3-3.7-3.7 1.6-1.6-1.4-1.3Z"/><path d="M98.6 30.099c-.1.1-.1.2 0 .3.1.1.2.1.3 0 .1-.1.1-.2 0-.3-.1-.1-.2-.1-.3 0Zm-3.9-3.9c-.1.1-.1.2 0 .3.1.1.2.1.3 0 .1-.1.1-.2 0-.3-.1-.1-.2-.1-.3 0Zm-5.8-4.4c-.1.1-.1.2 0 .2.1.1.2.1.3 0 .1-.1.1-.2 0-.2h-.3Zm3.5 6.8c-.1.1-.1.2 0 .3.1.1.2.1.3 0 .1-.1.1-.2 0-.3-.1-.1-.2-.1-.3 0Zm-3.8-3.8c-.1.1-.1.2 0 .3.1.1.2.1.3 0 .1-.1.1-.2 0-.3-.1-.1-.2-.1-.3 0Zm1.7-1.6v.2h.2v-.2h-.2Zm11.1 39.1 1.4-1.3 1.6 1.6 3.7-3.8-2.3-2.3 3.8-3.8-.1-.1-3.8 3.8 2.3 2.3-3.6 3.6-1.6-1.6-1.4 1.6Z"/><path d="M109.4 52.899c.1.1.2.1.3 0 .1-.1.1-.2 0-.3-.1-.1-.2-.1-.3 0-.1.1-.1.2 0 .3Zm-3.8 3.8c.1.1.2.1.3 0 .1-.1.1-.2 0-.3-.1-.1-.2-.1-.3 0v.3Zm-4.3 5.7c.1.1.2.1.2 0 .1-.1.1-.2 0-.2-.1-.1-.2-.1-.2 0v.2Zm6.6-3.4c.1.1.2.1.3 0 .1-.1.1-.2 0-.3-.1-.1-.2-.1-.3 0v.3Zm-3.7 3.8c.1.1.2.1.3 0 .1-.1.1-.2 0-.3-.1-.1-.2-.1-.3 0-.1.1-.1.2 0 .3Zm-1.5-1.7h.2v-.2h-.2c-.1.1-.1.1 0 .2Zm-19.6-19-1.4 1.3-1.6-1.6-3.7 3.8 2.3 2.3-3.8 3.8.1.1 3.8-3.8-2.3-2.3 3.6-3.6 1.6 1.6 1.4-1.6Z"/><path d="M75.1 51.5c-.1-.1-.2-.1-.3 0-.1.1-.1.2 0 .3.1.1.2.1.3 0 .1-.1.1-.2 0-.3Zm3.8-3.8c-.1-.1-.2-.1-.3 0-.1.1-.1.2 0 .3.1.1.2.1.3 0 .1-.1.1-.2 0-.3Zm4.3-5.7c-.1-.1-.2-.1-.2 0-.1.1-.1.2 0 .2.1.1.2.1.2 0 .1 0 .1-.1 0-.2Zm-6.6 3.4c-.1-.1-.2-.1-.3 0-.1.1-.1.2 0 .3.1.1.2.1.3 0 .1-.1.1-.2 0-.3Zm3.7-3.7c-.1-.1-.2-.1-.3 0-.1.1-.1.2 0 .3.1.1.2.1.3 0 .1-.1.1-.2 0-.3Zm1.5 1.6c-.1-.1-.1-.1-.2 0s-.1.1 0 .2.1.1.2 0 .1-.2 0-.2Zm3.9-32.1-1.1 1-1.2-1.2-2.9 2.9 1.8 1.8-3 2.9 3-3-1.8-1.8 2.8-2.8 1.2 1.3 1.2-1.1Z"/><path d="M79.5 18.5c-.1-.1-.2-.1-.2 0-.1.1-.1.2 0 .2.1.1.2.1.2 0v-.2Zm2.9-2.9c0-.1-.1-.1-.2 0s-.1.2 0 .2c.1.1.2.1.2 0 .1 0 .1-.1 0-.2Zm3.4-4.5c0-.1-.1-.1-.2 0v.2c.1.1.1.1.2 0v-.2Zm-5.2 2.7c0-.1-.1-.1-.2 0s-.1.2 0 .2c.1.1.2.1.2 0 .1 0 .1-.1 0-.2Zm2.9-2.9c-.1-.1-.2-.1-.2 0-.1.1-.1.2 0 .2.1.1.2.1.2 0 .1 0 .1-.1 0-.2Zm1.2 1.3h-.1v.1h.1v-.1Zm25.801 20.2-1.1 1-1.2-1.2-2.9 2.9 1.8 1.8-3 2.9 3-3-1.8-1.8 2.8-2.8 1.2 1.3 1.2-1.1Z"/><path d="M104.2 39.7c-.1-.1-.2-.1-.2 0-.1.1-.1.2 0 .2h.1c.1.1.2.1.2 0 0 0 0-.1-.1-.2Zm2.9-2.9c-.1-.1-.2-.1-.2 0-.1.1-.1.2 0 .2.1.1.2.1.2 0 .1 0 .1-.1 0-.2 0 0 .1 0 0 0Zm3.4-4.5h-.2v.2h.2c.1-.1.1-.2 0-.2Zm-5.1 2.7c-.1-.1-.2-.1-.2 0-.1.1-.1.2 0 .2.1.1.2.1.2 0 .1 0 .1-.1 0-.2Zm2.8-2.9c-.1-.1-.2-.1-.2 0-.1.1-.1.2 0 .2.1.1.2.1.2 0 .1-.1.1-.1 0-.2 0 0 .1 0 0 0Zm1.2 1.2c0-.1-.1-.1-.2 0-.1 0-.1.1 0 .2h.1c.2 0 .2-.1.1-.2Zm-24.7-6.5-1.4 1.3-1.6-1.6-3.8 3.8 2.3 2.3-3.8 3.8v.1l3.8-3.8-2.3-2.3 3.6-3.6 1.6 1.6 1.6-1.6Z"/><path d="M76.7 36.2c-.1-.1-.2-.1-.3 0-.1.1-.1.2 0 .3.1.1.2.1.3 0 0-.1.1-.2 0-.3Zm3.8-3.8c-.1-.1-.2-.1-.3 0-.1.1-.1.2 0 .3.1.1.2.1.3 0v-.3Zm4.2-5.7c-.1-.1-.2-.1-.2 0-.1.1-.1.2 0 .2.1.1.2.1.2 0 .1 0 .1-.2 0-.2Zm-6.5 3.4c-.1-.1-.2-.1-.3 0-.1.1-.1.2 0 .3.1.1.2.1.3 0v-.3Zm3.7-3.7c-.1-.1-.2-.1-.3 0-.1.1-.1.2 0 .3.1.1.2 0 .3-.1v-.2Zm1.5 1.6h-.2v.2h.2c0-.1.1-.1 0-.2ZM80.6 3.7l1.3 1.4-1.6 1.6 3.7 3.7 2.3-2.3 3.8 3.8.1-.1L86.4 8l-2.3 2.3-3.6-3.6 1.6-1.6-1.5-1.4Z"/><path d="M90.001 11.7c-.1.1-.1.2 0 .3.1.1.2.1.3 0 .1-.1.1-.2 0-.3h-.3Zm-3.8-3.8c-.1.1-.1.2 0 .3.1.1.2.1.3.1.1-.1.1-.2.1-.3 0 0 0-.1-.1-.1h-.3Zm-5.7-4.3c-.1.1-.1.2 0 .2.1.1.2.1.2 0 .1-.1.1-.2 0-.3-.1 0-.2 0-.2.1Zm3.4 6.6c-.1.1-.1.2 0 .3.1.1.2.1.3 0 .1-.1.1-.2 0-.3h-.3Zm-3.7-3.7c-.1.1-.1.2 0 .3.1.1.2.1.3 0 .1-.1.1-.2 0-.3-.1-.1-.2-.1-.3 0Zm1.6-1.5c-.1 0-.1.1 0 .2 0 0 .1.1.1 0 .1-.1.1-.1 0-.2h-.1Zm16.7 55.9.2.2 11.2-11.2-6.7-6.7 10.6-10.6 4.7 4.7 4.1-4.1-.2-.1-3.9 3.9-4.7-4.7-11 11 6.7 6.7-11 10.9Z"/><path d="M99.1 60.6c-.2-.2-.6-.2-.9 0-.2.2-.2.6 0 .9.2.2.6.2.9 0 .2-.3.2-.7 0-.9Zm11.001-11.1c-.3-.2-.7-.2-.9.1-.2.2-.2.6 0 .8.2.2.6.3.9 0 .3-.3.3-.7 0-.9Zm12.7-16.8c-.2-.2-.5-.2-.7 0-.2.2-.2.5 0 .7.2.2.5.2.7 0 .1-.2.2-.5 0-.7Zm-19.4 10c-.2-.2-.6-.2-.9 0-.2.2-.2.6 0 .9.2.2.6.2.9 0 .2-.2.2-.6 0-.9Zm10.9-10.9c-.2-.2-.6-.3-.9 0-.2.2-.3.6 0 .9.2.2.6.2.9 0 .3-.2.3-.6 0-.9Zm4.5 4.8c-.2-.1-.4-.1-.6 0-.2.2-.2.4 0 .6.2.2.4.2.6 0 .2-.2.1-.5 0-.6Z"/><path d="m102.301 20.799 11.4 11.3-11.4-11.3Z"/><path d="M101.901 20.199c-.3.3-.3.7 0 1 .3.3.7.3 1 0 .3-.3.3-.7 0-1-.3-.2-.7-.2-1 0Zm3 47.1 5.3-5.2 3.5.1v-.1l-3.6-.1-5.2 5.3Zm-32.9-23.7 1.4 1.4 5.2-5.2-.1-.1-5.1 5.1-1.4-1.2Zm24.8 15.6.1.1 4.4-4.4-5.9-5.9-.1.1 5.8 5.8-4.3 4.3Zm-21.9-37.6.1.1 1.8-1.8-4.4-4.4 1.1-1.1-.1-.1-1.2 1.2 4.4 4.4-1.7 1.7Zm-2 12.3 1.1 1.1.1-.1-1-1 5.8-5.8-2.4-2.4-.1.1 2.3 2.3-5.8 5.8Zm14.6 19.1.1.1 3.9-3.9-5-5 1.9-1.9-.1-.1-2.1 2.1 5 5-3.7 3.7Zm-5.5-11.8 1 1 .1-.1-.9-.9 3.4-3.4 2.2 2.2.1-.1-2.3-2.3-3.6 3.6Z"/><path d="m124.8 63.8 1.4-1.3-4.9-4.9 7.4-7.4-.1-.1-7.5 7.5 4.9 4.9-1.2 1.3Zm-3.4-25.1 7.6 7.6.1-.1-7.5-7.5 3.3-3.3-2.4-2.4-.1.1 2.3 2.3-3.3 3.3Zm-20.7-12.4.1.1 2-2-4.7-4.7-1.7 1.7-2-2-.1.1 2.1 2.1 1.7-1.7 4.5 4.4-1.9 2ZM98.4 17l3.7 3.7.1-.1-3.6-3.6 1.3-1.3-.6-.6.1-.6h-.1l-.1.7.5.5-1.3 1.3Zm18.3 32.6 2.8-2.7 3.4 3.4.1-.1-3.5-3.5-2.8 2.9ZM98.7 36l3.8 3.8.1-.1-3.7-3.7 1.1-1.1-.1-.1-1.2 1.2ZM87.3 5.3l2.3-2.1 5.9 5.9-1.6 1.6.1.1 1.7-1.7-6-6.1c-.2 0-2.4 2.3-2.4 2.3Zm-20.6 8.5 1.3 1.3.1-.1-1.3-1.3L74.5 6l-.1-.1-7.7 7.9ZM60.9 42l.1.1 1.3-1.2-.5-.5 3.6-3.6-.1-.1-3.7 3.7.5.5-1.2 1.1Zm26 22.1 2.7 2.7 2.6-2.6-.1-.1-2.4 2.4-2.4-2.4.7-.7-3.2-3.2-.1.1 3.1 3.1-.9.7Z"/></g><path d="m101.301 33.499 9.7 9.8 6-6 9.8 9.8.1-.1-10-10-6 6-9.5-9.5 4.1-4.1-3.6-3.6-.1.1 3.4 3.5-3.9 4.1Z" fill="#353535"/><path d="M126.501 46.699c-.2.2-.2.6 0 .8.2.2.6.2.8 0 .2-.2.2-.6 0-.8-.2-.2-.6-.2-.8 0ZM117.101 37.8a.6.6 0 1 0 0-1.2.6.6 0 0 0 0 1.2ZM102.101 26.398a.5.5 0 1 0 0-1 .5.5 0 0 0 0 1ZM110.7 42.9c-.2.2-.2.6 0 .8.2.2.6.2.8 0 .2-.2.2-.6 0-.8-.3-.3-.6-.3-.8 0Zm-9.7-9.8c-.2.2-.2.6 0 .8.2.2.6.2.8 0 .2-.2.2-.6 0-.8-.3-.2-.6-.2-.8 0Zm4.2-4c-.1.1-.1.4 0 .5.1.1.4.1.5 0 .1-.1.1-.3 0-.5-.1-.1-.3-.1-.5 0ZM77.9 15.5l9.8 9.7 6-6 9.8 9.8.1-.1-10-10-6 6-9.5-9.5 4.1-4.1-3.6-3.6-.1.1 3.5 3.5-4.1 4.2Z" fill="#353535"/><path d="M103.1 28.7c-.2.2-.2.6 0 .8.2.2.6.2.8 0 .2-.2.2-.6 0-.8-.2-.2-.6-.2-.8 0Zm-9.8-9.9c-.2.2-.2.6 0 .8.2.2.6.2.8 0 .2-.2.2-.6 0-.8-.3-.2-.6-.2-.8 0Zm-15-11.2c-.2.2-.1.5.1.6.2.1.4.1.6 0 .2-.2.2-.4 0-.6-.2-.2-.5-.2-.7 0Zm9 17.2c-.2.2-.2.5 0 .8.2.2.6.2.8 0 .2-.2.2-.6 0-.8-.2-.2-.6-.2-.8 0Zm-9.7-9.7c-.2.2-.2.5 0 .8.2.2.5.2.8 0 .2-.2.2-.6-.1-.8-.2-.2-.5-.2-.7 0Zm4.2-3.9c-.1.1-.1.4 0 .5.1.1.3.1.5 0 .1-.1.1-.4 0-.5-.2-.2-.4-.2-.5 0Zm6 23 9.7 9.8 6-6 9.8 9.8.1-.1-10-10-6 6-9.5-9.5 4.1-4.1-3.6-3.6-.1.1 3.5 3.5c.2 0-4 4.1-4 4.1Z" fill="#353535"/><path d="M113.101 47.3c-.2.2-.3.6-.1.8.2.2.6.3.8.1l.099-.1c.2-.2.301-.6.101-.8-.2-.2-.6-.3-.9 0Zm-9.9-9.8c-.2.2-.2.5 0 .8.3.2.6.1.8-.2.1-.2.1-.4 0-.6-.2-.2-.6-.2-.8 0Zm-14.9-11.3c-.2.2-.1.5.1.6.2.1.4.1.6 0 .2-.2.1-.5-.1-.6-.2-.1-.4-.1-.6 0Zm8.9 17.2c-.2.2-.2.6 0 .8.2.2.6.2.8 0 .2-.2.2-.6 0-.8-.2-.2-.6-.2-.8 0Zm-9.7-9.7c-.2.2-.2.6 0 .8.2.2.6.2.8 0 .2-.2.2-.6 0-.8-.2-.2-.6-.2-.8 0Zm4.3-3.9c-.1.1-.1.4 0 .5.1.1.4.1.5 0 .1-.1.1-.3 0-.5-.2-.2-.4-.2-.5 0ZM106 68.2l.1.1 3.5-3.5 4.1 4.1 9.699-9.7-6-6 9.801-9.8-.1-.1-10 10 6 6-9.5 9.5-4.1-4.1-3.5 3.5Z" fill="#353535"/><path d="M126.901 43.7c.2.2.6.2.8 0 .2-.2.2-.6 0-.8-.2-.2-.6-.2-.8 0-.2.2-.2.6 0 .8Zm-9.9 9.9c.2.2.6.2.8 0 .2-.2.2-.6 0-.8-.2-.2-.6-.2-.8 0-.2.2-.2.6 0 .8Zm-11.2 14.9c.2.2.4.2.6.1.2-.1.2-.4.1-.6l-.1-.1c-.2-.2-.5-.2-.6 0-.2.1-.2.4 0 .6Zm17.2-8.9c.2.2.6.2.8 0 .2-.2.2-.6 0-.8-.2-.2-.6-.2-.8 0-.2.2-.2.5 0 .8Zm-9.7 9.7c.2.2.6.2.8 0 .2-.2.2-.6 0-.8-.2-.2-.6-.2-.8 0-.2.2-.2.5 0 .8Zm-3.9-4.3c.1.1.4.1.5 0 .1-.1.1-.4 0-.5-.1-.1-.4-.1-.5 0-.2.2-.2.4 0 .5Zm-34.8-28.1.1.1 3.5-3.5 4.1 4.1 9.7-9.7-6-6 9.8-9.8-.1-.1-10 10 6 6-9.5 9.5-4.1-4.1-3.5 3.5Z" fill="#353535"/><path d="M95.6 12.4c.2.2.6.2.8 0 .2-.2.2-.6 0-.8-.2-.2-.6-.2-.8 0-.3.2-.3.6 0 .8Zm-9.9 9.9c.2.2.6.2.8 0 .2-.2.2-.6 0-.8-.2-.2-.6-.2-.8 0-.2.2-.2.5 0 .8ZM74.5 37.2c.2.2.5.2.6 0 .2-.2.2-.5 0-.7-.2-.2-.5-.2-.6 0-.2.2-.2.5 0 .7Zm17.2-9c.2.2.5.2.8 0 .2-.2.2-.6 0-.8-.2-.2-.6-.3-.8-.1-.2.3-.3.6 0 .9ZM82 37.9c.2.2.6.2.8 0 .2-.2.2-.6 0-.8-.2-.2-.6-.2-.8 0-.2.3-.2.6 0 .8Zm-3.9-4.2c.1.1.4.1.5 0 .1-.1.1-.4 0-.5-.1-.1-.4-.1-.5 0-.2.1-.2.3 0 .5 0 0-.1 0 0 0Zm1.7 21.5.1.1 3.5-3.5 4.1 4.1 9.8-9.7-6-6 9.801-9.8-.1-.1-10 10 6 6-9.5 9.5-4.1-4.1-3.6 3.5Z" fill="#353535"/><path d="M100.7 30.7c.2.2.6.2.8 0 .2-.2.2-.6 0-.8-.2-.2-.6-.2-.8 0-.2.3-.2.6 0 .8Zm-9.9 9.8c.2.2.6.2.8 0 .2-.2.2-.6 0-.8-.2-.2-.6-.2-.8 0-.3.2-.3.6 0 .8ZM80.001 55.7a.5.5 0 1 0 0-1 .5.5 0 0 0 0 1ZM96.8 46.598c.2.2.6.2.8 0 .2-.2.2-.5 0-.8-.2-.2-.6-.3-.8-.1-.2.2-.2.6 0 .9 0-.1 0-.1 0 0Zm-9.6 9.7c.2.2.6.2.8 0 .2-.2.2-.6 0-.8-.2-.2-.6-.2-.8 0-.2.2-.2.6 0 .8Zm-4-4.3c.1.1.3.1.5 0 .1-.1.1-.3 0-.5-.1-.1-.4-.1-.5 0-.1.2-.1.4 0 .5Zm-21.5-21.2.1.1 3.5-3.5 4.1 4.1 9.7-9.7-6-6 9.8-9.8-.1-.1-10 10 6 6-9.5 9.5-4.1-4.1-3.5 3.5Z" fill="#353535"/><path d="M82.6 6.3c.2.2.6.2.8 0 .2-.2.3-.6.1-.8-.2-.2-.6-.3-.8-.1l-.1.1c-.2.2-.2.6 0 .8Zm-9.9 9.9c.2.2.6.3.8.1.2-.2.3-.6.1-.8l-.1-.1c-.2-.2-.6-.2-.8.1-.2.1-.2.5 0 .7ZM61.5 31.1c.2.2.5.2.6 0 .2-.2.1-.5-.1-.6-.2-.1-.4-.1-.6 0-.1.1-.1.4.1.6Zm17.2-8.9c.3.2.6.1.8-.1.2-.2.2-.5 0-.7-.3-.2-.6-.1-.8.1-.2.2-.2.5 0 .7ZM69 31.9c.2.3.5.3.8.1.3-.2.3-.5.1-.8l-.1-.1c-.3-.2-.6-.1-.8.1-.2.2-.2.5 0 .7Zm-3.9-4.3c.1.1.3.1.5 0 .1-.1.1-.3 0-.5-.1-.1-.3-.1-.5 0-.2.2-.2.4 0 .5Zm-5.9 22.5.1.1 3.5-3.5 4.1 4.1 9.7-9.7-6-6 9.8-9.8-.1-.1-10 10 6 6-9.5 9.5-4.1-4.1-3.5 3.5Z" fill="#353535"/><path d="M80.5 25.9a.6.6 0 1 0 0-1.201.6.6 0 0 0 0 1.2ZM70.2 35.499c.2.2.6.2.8 0 .2-.2.2-.6 0-.8-.2-.2-.6-.2-.8 0-.2.3-.2.6 0 .8ZM59 50.399c.2.2.4.2.6.1.2-.2.2-.4.1-.6l-.1-.1c-.2-.2-.5-.1-.6.1-.1.1-.1.4 0 .5Zm17.2-8.9c.2.2.5.2.8 0 .2-.2.3-.6.1-.8-.2-.2-.6-.3-.8-.1l-.1.1c-.2.2-.2.6 0 .8Zm-9.7 9.7c.2.2.6.2.8 0 .2-.2.3-.6.1-.8-.2-.2-.6-.3-.8-.1l-.1.1c-.2.3-.2.6 0 .8Zm-4-4.2c.1.1.3.1.5 0 .1-.1.1-.3 0-.5-.1-.1-.3-.1-.5 0-.1.1-.1.4 0 .5Zm18.5 2.2 1.6-1.5 1.9 1.9 4.4-4.4-2.7-2.7 4.4-4.4-.1-.1-4.5 4.5 2.7 2.7-4.3 4.3-1.9-1.9-1.5 1.6Z" fill="#353535"/><path d="M90.4 38.2c.1.1.2.1.3 0 .1-.1.1-.3 0-.4-.1-.1-.2-.1-.3 0-.1.1-.1.3 0 .4ZM86.1 42.8a.3.3 0 1 0 .001-.6.3.3 0 0 0 0 .6ZM80.9 49.399c.1.1.2.1.3 0 .1-.1.1-.2 0-.3-.1-.1-.2-.1-.3 0-.1.1-.1.2 0 .3Zm7.701-4c.1.1.3.1.4 0 .1-.1.1-.3 0-.4-.1-.1-.3-.1-.4 0v.4Zm-4.4 4.3c.1.1.2.1.4.1.1-.1.1-.2.1-.4 0 0 0-.1-.1-.1-.1-.1-.3-.1-.4 0-.1.2-.1.3 0 .4Zm-1.7-1.9c.1.1.2.1.2 0 .1-.1.1-.2 0-.2-.1-.1-.2-.1-.2 0-.1.1-.1.2 0 .2Zm-11.4-15.6-1.6 1.5-1.9-1.9-4.4 4.4 2.7 2.7-4.4 4.4.1.1 4.5-4.5-2.7-2.7 4.3-4.3 1.9 1.9 1.5-1.6Z" fill="#353535"/><path d="M61.6 43.2c-.1-.1-.2-.1-.3 0-.1.1-.1.3 0 .4.1.1.3.1.4 0 .1-.1 0-.3-.1-.4Zm4.5-4.4c-.1-.1-.3-.1-.4 0-.1.1-.1.3 0 .4.1.1.3.1.4 0 .1-.2.1-.3 0-.4Zm5.1-6.8c-.1-.1-.2-.1-.3 0-.1.1-.1.2 0 .3.1.1.2.1.3 0 .1 0 .1-.2 0-.3Zm-7.8 4.1c-.1-.1-.3-.1-.4 0-.1.1-.1.3 0 .4.1.1.3 0 .4-.1.1-.1.1-.2 0-.3Zm4.4-4.4c-.1-.1-.3-.1-.4 0-.1.1-.1.3 0 .4.1.1.3.1.4 0 .1-.1.1-.3 0-.4Zm1.7 1.9c-.1-.1-.2-.1-.2 0-.1.1-.1.2 0 .2.1.1.2.1.2 0 .1 0 .1-.1 0-.2.1 0 .1 0 0 0Zm52.301 13.5-2.6 2.4-2.9-2.9-7 6.9 4.3 4.3-7 7 .1.1 7.1-7.1-4.3-4.3 6.8-6.7 2.9 3 2.6-2.7Z" fill="#353535"/><path d="M106.8 64.5c-.1-.2-.4-.2-.5 0-.2.2-.2.4 0 .6.1.2.4.2.5 0 .2-.2.2-.4 0-.6Zm7.1-7c-.1-.2-.4-.2-.5 0-.2.2-.2.4 0 .6.1.2.4.2.5 0 .2-.2.2-.4 0-.6Zm8-10.7c-.1-.1-.3-.1-.4 0-.1.1-.1.3 0 .5.1.1.3.2.5.1s.1-.3-.1-.6c0 .1.1.1 0 0ZM109.3 53.9a.4.4 0 1 0 0-.8.4.4 0 0 0 0 .8ZM116.501 46.298c-.2-.2-.4-.2-.6 0-.2.1-.2.4 0 .5.2.2.4.2.6 0 .2-.1.2-.3 0-.5Zm2.8 3c-.1-.1-.2-.1-.3 0-.1.1-.1.3 0 .4.1.1.2.1.3 0 .1-.1.1-.3 0-.4Zm-31.4-2.3 2.4 2.6-3 3 7 7 4.3-4.3 7 7 .1-.1-7.1-7.1-4.3 4.3-6.7-6.7 2.9-3-2.6-2.7Z" fill="#353535"/><path d="M105.4 61.9c-.2.2-.2.4 0 .6.2.2.4.2.6 0 .2-.2.2-.4 0-.6-.2-.1-.4-.1-.6 0Zm-7.1-7c-.2.2-.2.4 0 .6.2.2.4.2.6 0 .2-.2.2-.4 0-.6-.2-.1-.5-.2-.6 0Zm-10.6-8c-.1.1-.1.3 0 .5.1.1.4.1.5-.1.1-.1.1-.3 0-.4-.2-.1-.4-.2-.5 0ZM94 59.2c-.2.1-.2.4 0 .5.2.2.4.2.6 0 .1-.2.1-.4 0-.6-.2-.1-.4-.1-.6.1Zm-6.9-6.9c-.2.2-.2.4 0 .6.2.2.4.2.6 0 .2-.2.2-.4 0-.6-.2-.2-.4-.2-.6 0Zm3.1-2.9c-.1.1-.1.3 0 .4.1.1.2.1.3 0 .1-.1.1-.2 0-.3-.1-.1-.2-.2-.3-.1Zm-23.5-9.7-.1.1 2.5 2.5-2.9 3 7 7 4.3-4.3 7 7 .1-.1-7.1-7.1-4.3 4.3-6.7-6.7 2.9-3-2.7-2.7Z" fill="#353535"/><path d="M84.101 54.6c-.2.2-.2.4 0 .6.2.2.4.2.6 0 .2-.1.2-.4 0-.5-.1-.2-.4-.2-.6-.1Zm-7-7c-.2.2-.2.4 0 .6.2.2.4.2.6 0 .2-.2.2-.4 0-.6-.2-.2-.4-.2-.6 0Zm-10.6-8c-.1.1-.1.3 0 .5.1.1.3.1.4 0l.1-.1c.1-.1.1-.3 0-.5-.2-.1-.4-.1-.5.1Zm6.4 12.3c-.2.1-.2.4 0 .5.2.2.4.2.6 0 .2-.2.2-.4 0-.6-.2-.1-.5-.1-.6.1Zm-7-7c-.2.2-.2.4 0 .6.2.2.4.2.6 0 .1-.2.1-.4 0-.6-.2-.1-.4-.1-.6 0Zm3.1-2.8c-.1.1 0 .3.1.4.1.1.2.1.3 0 .1-.1 0-.3-.1-.4h-.3Zm21.1-35 2.4 2.6-2.9 2.9 7 7 4.3-4.3 7 7 .1-.1-7.1-7.1-4.3 4.3-6.8-6.7 2.9-3-2.6-2.6Z" fill="#353535"/><path d="M107.601 21.999c-.2.2-.2.4 0 .6.2.2.4.2.6 0 .2-.1.2-.4 0-.5-.2-.2-.5-.2-.6-.1Zm-7.1-7c-.2.2-.2.4 0 .6.2.2.4.2.6 0 .2-.2.2-.4 0-.6-.1-.2-.4-.2-.6 0 0 0 .1 0 0 0Zm-10.6-8c-.1.1-.1.3 0 .5.1.1.3.1.5 0 .1-.1.1-.3 0-.5-.2-.1-.4-.1-.5 0Zm6.3 12.4c-.2.2-.2.4 0 .6.2.2.4.2.6 0 .2-.2.2-.4 0-.6-.2-.2-.4-.2-.6 0Zm-6.8-7.1c-.2.2-.2.4 0 .6.2.2.4.2.6 0 .2-.2.2-.4 0-.6-.2-.1-.5-.1-.6 0Zm3-2.8c-.1.1-.1.3 0 .4.1.1.3.1.4 0 .1-.1.1-.3 0-.4-.2-.1-.3-.1-.4 0Zm21.8 42.9 1 1.1-1.3 1.3 3 3 1.8-1.8 3 3-3-3-1.8 1.8-2.9-2.8 1.3-1.3-1.1-1.3Z" fill="#353535"/><path d="M121.601 58.8c-.1.1-.1.2 0 .2.1.1.2.1.2 0 .1-.1.1-.2 0-.2 0-.1-.1-.1-.2 0Zm-3-3c-.1.1-.1.2 0 .2.1.1.2.1.2 0 .1-.1.1-.2 0-.2 0-.1-.1-.1-.2 0Zm-4.5-3.4v.2h.2v-.2c-.1-.1-.2-.1-.2 0Zm2.7 5.2c-.1.1-.1.2 0 .2.1.1.2.1.2 0 .1-.1.1-.2 0-.2-.1-.1-.2-.1-.2 0Zm-3-3c-.1.1-.1.2 0 .2.1.1.2.1.3 0 .1-.1.1-.2 0-.2h-.3c.1 0 .1 0 0 0Zm1.3-1.1v.1h.1v-.1c0-.1 0-.1-.1 0Zm-15.5-11 1 1.1-1.3 1.3 3 3 1.8-1.8 3 3V49l-3-3-1.8 1.8-2.9-2.9 1.3-1.3-1.1-1.1Z" fill="#353535"/><path d="M107 48.798c-.1.1-.1.2 0 .2.1.1.2.1.2 0 .1-.1.1-.2 0-.2l-.1-.1c.1 0 0 0-.1.1 0 0 .1 0 0 0Zm-3-3c-.1.1-.1.2 0 .2.1.1.2.1.2 0 .1-.1.1-.2 0-.2h-.2Zm-4.5-3.4v.2h.2c.1 0 .1-.1 0-.2h-.2Zm2.7 5.2c-.1.1-.1.2 0 .2.1.1.2.1.2 0 .1-.1.1-.2 0-.2h-.2Zm-2.9-2.9c-.1.1-.1.2 0 .2.1.1.2.1.2 0 .1-.1.1-.2 0-.2-.1-.1-.2-.1-.2 0Zm1.2-1.2v.1h.2v-.1h-.2Zm-8.9-21.6 1.2 1.3-1.4 1.4 3.4 3.4 2.1-2.1 3.4 3.4v-.1l-3.5-3.4-2.1 2.1-3.3-3.3 1.5-1.4-1.3-1.3Z" fill="#353535"/><path d="M100.101 29.2c-.1.1-.1.2 0 .3.1.1.2.1.3 0 .1-.1.1-.2 0-.3-.1-.1-.2-.1-.3 0Zm-3.4-3.4c-.1.1-.1.2 0 .3.1.1.2.1.3 0 .1-.1.1-.2 0-.3-.1-.1-.2-.1-.3 0Zm-5.2-3.9c-.1 0-.1.1 0 .2s.2.1.2 0c.1 0 .1-.1 0-.2 0-.1-.1-.1-.2 0Zm3.1 5.9c-.1.1-.1.2 0 .3.1.1.2.1.2 0 .1-.1.1-.2 0-.3h-.2Zm-3.4-3.3c-.1.1-.1.2 0 .3.1.1.2.1.2 0 .1-.1.1-.2 0-.3 0-.1-.1-.1-.2 0Zm1.5-1.4s-.1.1 0 .2.1.1.2 0 .1-.1 0-.2c0-.1-.1-.1-.2 0Zm9.9 34.7 1.2-1.1 1.4 1.4 3.3-3.3-2-2 3.3-3.4-3.4 3.4 2 2-3.2 3.2-1.4-1.4-1.2 1.2Z" fill="#353535"/><path d="M109.801 49.5c.1.1.2.1.3 0 .1-.1.1-.2 0-.3-.1-.1-.2-.1-.3 0-.1.1-.1.2 0 .3Zm-3.4 3.3c.1.1.2.1.3 0 .1-.1.1-.2 0-.3-.1-.1-.2-.1-.3 0-.1.1-.1.2 0 .3Zm-3.9 5.2c0 .1.1.1.2 0s.1-.1 0-.2c0-.1-.1-.1-.2 0v.2Zm5.9-3.1c.1.1.2.1.3 0 .1-.1.1-.2 0-.3-.1-.1-.2-.1-.2 0-.1.1-.1.3-.1.3Zm-3.3 3.3c.1.1.2.1.3 0 .1-.1.1-.2 0-.3-.1-.1-.2-.1-.2 0-.2.1-.2.3-.1.3Zm-1.3-1.4h.2v-.2h-.2c-.1.1-.1.2 0 .2Zm-17.4-16.9L85.2 41l-1.4-1.4-3.3 3.3 2 2-3.4 3.3.1.1 3.4-3.4-2-2 3.2-3.2 1.4 1.4 1.2-1.2Z" fill="#353535"/><path d="M79.3 48.2c-.1-.1-.2-.1-.2 0-.1 0-.1.1 0 .2s.2.1.2 0v-.2Zm3.3-3.3c-.1-.1-.2-.1-.3 0-.1.1-.1.2 0 .3.1.1.2.1.3 0 .1-.2.1-.3 0-.3Zm3.9-5.1c-.1-.1-.2-.1-.2 0-.1.1-.1.2 0 .2.1.1.2.1.2 0v-.2Zm-5.9 3.1c-.1-.1-.2-.1-.3 0-.1.1-.1.2 0 .3.1.1.2.1.2 0 .1-.1.2-.3.1-.3Zm3.3-3.4c-.1-.1-.2-.1-.3 0-.1.1-.1.2 0 .3.1.1.2.1.2 0 .2-.1.2-.2.1-.3Zm1.3 1.4H85v.2h.2c.1 0 .1-.1 0-.2Zm3.5-28.5-1 .9-1.1-1.1-2.6 2.6 1.6 1.6L83 19l2.7-2.7-1.6-1.6 2.5-2.5 1.1 1.1 1-.9Z" fill="#353535"/><path d="M83.1 19c-.1-.1-.1-.1-.2 0s-.1.1 0 .2.1.1.2 0 .1-.2 0-.2Zm2.6-2.7c-.1-.1-.2-.1-.2 0-.1.1-.1.2 0 .2.1.1.2.1.2 0 .1 0 .1-.1 0-.2Zm3-4s-.1-.1-.1 0c0 0-.1.1 0 .2 0 .1.1.1.2 0 0 0 0-.1-.1-.2.1.1.1.1 0 0Zm-4.5 2.4c-.1-.1-.2-.1-.2 0-.1.1-.1.2 0 .2s.2.1.2 0v-.2Zm2.5-2.6c-.1 0-.2 0-.2.1v.2c.1.1.1.1.2 0s.1-.2 0-.3c0 0 .1 0 0 0Zm1.1 1.2h-.1v.1h.1v-.1Zm22.9 18-1 .9-1.1-1.1-2.6 2.6 1.6 1.6-2.6 2.6 2.7-2.7-1.6-1.6 2.5-2.5 1.1 1.1 1-.9Z" fill="#353535"/><path d="M105.101 37.8c-.1-.1-.2-.1-.2 0-.1.1-.1.2 0 .2s.2.1.2 0c.1-.1.1-.2 0-.2Zm2.6-2.7c-.1-.1-.2-.1-.2 0-.1.1-.1.2 0 .2s.2.1.2 0c.1 0 .1-.1 0-.2Zm3-3.9s-.1-.1-.2 0c0 0-.1.1 0 .2 0 0 .1.1.2 0 0-.1.1-.2 0-.2Zm-4.6 2.4c-.1-.1-.2-.1-.2 0-.1.1-.1.2 0 .2s.2.1.2 0c.1-.1.1-.2 0-.2Zm2.6-2.6c-.1-.1-.1-.1-.2 0s-.1.2 0 .2c.1.1.2.1.2 0 .1-.1 0-.2 0-.2Zm1 1.1h-.1v.1h.1c.1 0 .1-.1 0-.1Zm-21.9-5.8-1.2 1.1-1.4-1.4-3.3 3.3 2 2-3.4 3.4h.1l3.4-3.4-2-2 3.2-3.2 1.4 1.4 1.2-1.2Z" fill="#353535"/><path d="M80.6 34.598c-.1-.1-.2-.1-.3 0-.1.1-.1.2 0 .3.1.1.2.1.3 0 .1-.1.1-.2 0-.3 0 0 0 .1 0 0ZM83.9 31.6a.2.2 0 1 0 0-.4.2.2 0 0 0 0 .4ZM87.801 26.199c0-.1-.1-.1-.2-.1s-.1.1-.1.2l.1.1c.1.1.2.1.2 0 .1-.1.1-.1 0-.2Zm-5.8 3c-.1-.1-.2-.1-.3 0-.1.1-.1.2 0 .3.1.1.2.1.3 0v-.3Zm3.3-3.3c-.1-.1-.2-.1-.3 0-.1.1-.1.2 0 .3.1.1.2.1.3 0v-.3Zm1.3 1.4h-.2s-.1.1 0 .1h.2c.1.1.1 0 0-.1Zm-2.5-21.5 1.1 1.2-1.4 1.4 3.3 3.3 2-2 3.4 3.3-3.4-3.4-2 2-3.2-3.2 1.4-1.4-1.2-1.2Z" fill="#353535"/><path d="M92.501 13c-.1.1-.1.2 0 .3.1.1.2.1.3 0 .1-.1.1-.2 0-.3-.1-.1-.3-.1-.3 0Zm-3.4-3.5c-.1.1-.1.2 0 .3.1.1.2.1.2 0 .1-.1.1-.2 0-.3h-.2Zm-5.1-3.8c0 .1 0 .2.1.2s.2 0 .2-.1 0-.2-.1-.2c0 0-.1 0-.2.1Zm3.1 5.9c-.1.1-.1.2 0 .2.1.1.2.1.3 0 .1-.1.1-.2 0-.2-.2-.1-.3-.1-.3 0ZM83.9 8.6a.2.2 0 1 0 0-.4.2.2 0 0 0 0 .4ZM85.2 6.898s-.1.1 0 .2c0 0 .1.1.2 0 0 0 .1-.1 0-.1-.1-.1-.2-.1-.2-.1Zm14.901 49.7.1.1 10-10-6-6 9.5-9.5 4.1 4.1 3.6-3.6-.1-.1-3.5 3.5-4.1-4.1-9.7 9.7 6 6-9.9 9.9Z" fill="#353535"/><path d="M100.5 56.298c-.2-.2-.6-.2-.8 0-.2.2-.3.5-.1.8.2.2.6.2.8 0 .3-.2.3-.6.1-.8Zm9.9-9.9c-.2-.2-.5-.2-.8 0-.2.2-.2.6 0 .8.2.2.6.2.8 0 .2-.2.2-.5 0-.8 0 .1 0 .1 0 0Zm11.2-14.9c-.2-.1-.4-.1-.6 0-.2.2-.2.5 0 .6.2.2.5.2.6 0 .3-.2.3-.4 0-.6.1 0 .1 0 0 0Zm-17.2 8.9c-.2-.2-.6-.2-.8 0-.2.2-.2.6 0 .8.2.2.6.2.8 0 .2-.2.2-.5 0-.8 0 0 0 .1 0 0Zm9.7-9.6c-.2-.2-.6-.2-.8 0-.2.2-.2.6 0 .8.2.2.6.2.8 0 .2-.3.2-.6 0-.8Zm4 4.2c-.1-.1-.4-.1-.5 0-.1.1-.1.4 0 .5.1.1.4.1.5 0 .1-.2.1-.4 0-.5Z" fill="#353535"/><path d="m103.501 20.898 10.1 10.1-10.1-10.1Z" fill="#353535"/><path d="M103.101 20.5c-.2.2-.2.6 0 .8.2.2.6.2.8 0 .2-.2.2-.6 0-.8-.2-.3-.6-.3-.8 0Zm2.6 41.8 4.7-4.6 3.1.1v-.1l-3.2-.1-4.6 4.7Zm-29.2-21.1 1.2 1.2 4.6-4.6-.1-.1-4.6 4.6-1.1-1.1Zm22.1 13.9.1.1 3.9-3.9-5.2-5.2-.1.1 5.1 5.1-3.8 3.8Zm-19.5-33.4.1.1 1.6-1.6-3.9-3.9 1-1-.1-.1-1.1 1.1 3.9 3.9-1.5 1.5Zm-1.9 10.9 1 1 .1-.1-.9-.9 5.2-5.2-2.1-2.1-.1.1 2 2-5.2 5.2Zm13.1 17 .1.1 3.5-3.5-4.4-4.4 1.7-1.7-.1-.1-1.9 1.8 4.4 4.4-3.3 3.4Zm-4.9-10.5.9.9.1-.1-.8-.8 3-3 2 2 .1-.1-2.1-2.1-3.2 3.2Z" fill="#353535"/><path d="m123.401 59.2 1.3-1.1-4.3-4.3 6.6-6.6-.1-.1-6.7 6.7 4.3 4.3-1.1 1.1Zm-3-22.3 6.7 6.7.1-.1-6.7-6.7 2.9-2.9-2.1-2.1-.1.1 2.1 2-2.9 3Zm-18.4-11.1.1.1 1.8-1.8-4.2-4.2-1.5 1.5-1.8-1.8-.1.1 1.9 1.9 1.5-1.5 4 4-1.7 1.7Zm-2-8.3 3.3 3.3.1-.1-3.2-3.2 1.1-1.1-.5-.5.1-.5h-.1l-.1.6.5.5c-.1-.1-1.2 1-1.2 1Zm16.2 29 2.5-2.4 3 3 .1-.1-3.1-3.1-2.5 2.6Zm-16-12 3.4 3.4.1-.1-3.3-3.3 1-1-.1-.1-1.1 1.1Zm-10.1-27.3 2-1.9 5.3 5.3L96 12l.1.1 1.5-1.5-5.4-5.4-2.1 2Zm-18.3 7.5 1.2 1.2.1-.1-1.1-1.1 6.8-6.8-.1-.1-6.9 6.9Zm-5.2 25.1.1.1 1.1-1.1-.4-.4 3.2-3.2-.1-.1-3.3 3.3.4.4-1 1Zm23.1 19.7 2.4 2.4 2.3-2.3-.1-.1-2.2 2.2-2.1-2.2.6-.6-2.9-2.9-.1.1 2.8 2.8-.7.6Z" fill="#353535"/><path d="m87.6 18.7 1.5-1.5 1.5 1.5-1.5 1.5-1.5-1.5Z" fill="#B94536"/><path d="m59.501 48.4 1.5-1.5 1.5 1.5-1.5 1.5-1.5-1.5Z" fill="#822124"/><path d="m108.101 27.299 1.5-1.5 1.5 1.5-1.5 1.5-1.5-1.5ZM104.101 51.2l1.5-1.5 1.5 1.5-1.5 1.5-1.5-1.5Z" fill="#B94536"/><path d="m83.6 34.7 1.5-1.5 1.5 1.5-1.5 1.5-1.5-1.5Z" fill="#822124"/><path d="m108.301 35.299 1.5-1.5 1.5 1.5-1.5 1.5-1.5-1.5ZM71.8 15.799l1.5-1.5 1.5 1.5-1.5 1.5-1.5-1.5Z" fill="#B94536"/><path d="m96.001 23 1.5-1.5 1.5 1.5-1.5 1.5-1.5-1.5ZM105.201 65l1.5-1.5 1.5 1.5-1.5 1.5-1.5-1.5Z" fill="#D97D2D"/><path d="m71.8 44.9 1.5-1.5 1.5 1.5-1.5 1.5-1.5-1.5Z" fill="#BD9F75"/><path d="m80.6 53.1 1.5-1.5 1.5 1.5-1.5 1.5-1.5-1.5Z" fill="#484C50"/><path d="m71.7 27.6 1.5-1.5 1.5 1.5-1.5 1.5-1.5-1.5Z" fill="#798386"/><path d="m99.001 41.2 1.3-1.3 1.3 1.3-1.3 1.3-1.3-1.3ZM80.4 11.6l1.5-1.5 1.5 1.5-1.5 1.5-1.5-1.5Z" fill="#589BCB"/><path d="m94.8 35.1 1.5-1.5 1.5 1.5-1.5 1.5-1.5-1.5ZM88.6 7.299l1.5-1.5 1.5 1.5-1.5 1.5-1.5-1.5Z" fill="#846CAB"/><path d="m91.8 50.2 1.5-1.5 1.5 1.5-1.5 1.5-1.5-1.5Z" fill="#BD9F75"/><path d="m120.101 41.799 1.5-1.5 1.5 1.5-1.5 1.5-1.5-1.5Z" fill="#846CAB"/><path d="M75.8 24.9c-.4-.4-.4-1 0-1.4.4-.4 1-.4 1.4 0 .4.4.4 1 0 1.4-.4.4-1 .4-1.4 0Zm.1-.1c.3.3.901.4 1.201 0 .3-.3.4-.9 0-1.2-.3-.3-.9-.4-1.2 0-.4.3-.4.9 0 1.2Zm1.4-8.6c-.4-.4-.4-1 0-1.4.4-.4 1-.4 1.4 0 .4.4.4 1 0 1.4-.4.4-1 .4-1.4 0Zm.1-.1c.3.3.901.3 1.201 0 .4-.3.5-.9.2-1.2-.3-.4-.9-.5-1.2-.2-.1 0-.1.1-.2.2-.4.3-.4.8 0 1.2Zm4.8-9.4c-.4-.4-.3-1.1.1-1.4.4-.3.901-.3 1.301 0 .4.4.4 1 0 1.4-.4.3-1 .4-1.4 0Zm.1-.1c.3.3.901.4 1.201 0 .3-.3.4-.9 0-1.2-.3-.3-.9-.4-1.2 0-.3.3-.3.8 0 1.2Zm-4.299 2.1c-.4-.4-.4-1 0-1.4.4-.4 1-.4 1.4 0 .4.4.4 1 0 1.4-.4.4-1 .4-1.4 0Zm.1-.1c.4.3 1 .2 1.3-.2.3-.3.2-.8 0-1.2-.3-.4-.9-.5-1.2-.2-.4.3-.5.9-.2 1.2 0 .2 0 .3.1.4Zm-13.5 19.5c-.4-.4-.4-1 0-1.4.4-.4 1-.4 1.4 0 .4.4.4 1 0 1.4-.4.4-1 .4-1.4 0Zm.1 0c.3.3.9.4 1.2 0 .3-.3.4-.9 0-1.2-.3-.3-.9-.4-1.2 0-.4.3-.4.8 0 1.2Zm-4 16c-.4-.4-.3-1.1.1-1.4.4-.3.9-.3 1.3 0 .4.4.5 1 .1 1.4-.4.4-1 .5-1.4.1 0 0 0-.1-.1-.1Zm.1-.1c.3.3.9.4 1.2 0 .3-.3.4-.9 0-1.2-.3-.3-.9-.4-1.2 0-.3.3-.3.9 0 1.2Zm4.7 2c-.4-.4-.4-1 0-1.4.4-.4 1-.4 1.4 0 .4.4.4 1 0 1.4-.3.4-1 .4-1.4 0Zm.1-.1c.3.3.9.4 1.2 0 .3-.3.4-.9 0-1.2-.3-.3-.9-.4-1.2 0-.3.3-.4.8 0 1.2Zm2.8-2.9c-.4-.4-.4-1 0-1.4.4-.4 1-.4 1.4 0 .4.4.4 1 0 1.4-.4.4-1 .4-1.4 0Zm.1-.1c.3.3.9.3 1.2 0 .4-.3.5-.9.2-1.2-.3-.3-.9-.5-1.2-.2-.1 0-.1.1-.2.2-.4.3-.4.9-.1 1.2h.1Zm25.7-14.4c-.3-.3-.3-.7 0-1 .3-.3.7-.3 1 0 .3.3.3.7 0 1-.3.2-.7.2-1 0Zm0-.1c.2.2.6.2.9 0 .2-.2.3-.6 0-.9-.2-.2-.6-.2-.9 0-.2.3-.2.6 0 .9.1 0 .1 0 0 0Zm-10.8 3.5c-.3-.3-.3-.7 0-1 .3-.3.7-.3 1 0 .3.3.3.7 0 1-.2.3-.7.3-1 0Zm0-.1c.2.2.6.2.9 0 .3-.2.3-.6.1-.9-.2-.3-.6-.3-.9-.1 0 0-.1 0-.1.1-.2.3-.2.7 0 .9.1 0 .1 0 0 0Zm1.2-5.2c-.3-.3-.3-.7 0-1 .3-.3.7-.3 1 0 .3.3.3.7 0 1-.3.2-.7.2-1 0Zm0-.1c.2.2.6.2.9 0 .2-.2.2-.6 0-.9-.2-.2-.6-.2-.9 0-.2.3-.2.7 0 .9.1 0 .1 0 0 0Zm-14.1 6.3c-.3-.3-.3-.7 0-1 .3-.3.7-.3 1 0 .3.3.3.7 0 1-.3.2-.7.2-1 0Zm.1 0c.2.2.6.2.9 0 .3-.2.2-.6 0-.9-.2-.2-.6-.2-.9 0-.3.2-.3.6 0 .9Zm14.6-15.8c-.3-.3-.3-.7 0-1 .3-.3.7-.3 1 0 .3.3.3.7 0 1-.3.2-.7.2-1 0Zm0 0c.2.2.6.2.9 0 .2-.2.2-.6 0-.9-.2-.2-.6-.2-.9 0-.2.2-.2.6 0 .9ZM62.6 36.9c-.4-.4-.4-1 0-1.4.4-.4 1-.4 1.4 0 .4.4.4 1 0 1.4-.4.4-1 .4-1.4 0Zm.1-.1c.3.3.9.3 1.2 0 .3-.3.3-.9 0-1.2-.3-.3-.9-.3-1.2 0-.3.3-.3.8 0 1.2Zm22.8 6.4c-.4-.4-.4-1 0-1.4.4-.4 1-.4 1.4 0 .4.4.4 1 0 1.4-.4.4-1 .4-1.4 0Zm.1-.1c.3.4.9.4 1.2 0 .4-.3.4-.9 0-1.2-.3-.4-.9-.4-1.2 0-.4.3-.4.9 0 1.2Zm-5.8.6c-.4-.4-.4-1 0-1.4.4-.4 1.1-.3 1.4.1.3.4.3.9 0 1.3-.4.4-1 .4-1.4 0Zm.1-.1c.3.3.9.4 1.2 0 .3-.3.4-.9 0-1.2-.3-.3-.9-.4-1.2 0-.4.3-.4.8 0 1.2Zm9-30.3c-.4-.4-.5-1-.1-1.4.4-.4 1-.5 1.4-.1l.1.1c.4.4.3 1.1-.1 1.4-.3.3-.9.3-1.3 0Zm.1-.1c.3.4.9.5 1.2.2.4-.3.5-.9.2-1.2 0-.1-.1-.1-.2-.2-.4-.3-.9-.2-1.2.2-.2.2-.2.7 0 1Zm.3 40.8c-.4-.4-.4-1 0-1.4.4-.4 1-.4 1.4 0 .4.4.4 1 0 1.4-.4.4-1 .4-1.4 0Zm.1-.1c.3.3.9.4 1.2 0 .3-.3.4-.9 0-1.2-.3-.3-.9-.4-1.2 0-.3.3-.3.9 0 1.2Zm17.8-31c-.4-.4-.4-1 0-1.4.4-.4 1-.5 1.4-.1.4.4.5 1 .1 1.4l-.1.1c-.4.4-1.1.4-1.4 0Zm0-.1c.3.3.9.4 1.2 0 .3-.3.4-.9 0-1.2-.3-.3-.9-.4-1.2 0-.3.3-.3.9 0 1.2Zm9.9 13.2c-.4-.4-.4-1 0-1.4.4-.4 1-.4 1.4 0 .4.4.4 1 0 1.4-.4.4-1 .4-1.4 0Zm.1-.1c.3.4.9.5 1.2.2.4-.3.5-.9.2-1.2 0-.1-.1-.1-.2-.2-.4-.3-.9-.2-1.2.2-.3.3-.3.7 0 1Zm-1.6 11.4c-.4-.4-.3-1.1.1-1.4.4-.3.9-.3 1.3 0 .4.4.4 1 0 1.4-.3.4-1 .4-1.4 0Zm.1-.1c.3.3.9.3 1.2 0 .4-.3.5-.9.2-1.2-.3-.3-.9-.5-1.2-.2-.1 0-.1.1-.2.2-.3.3-.3.8 0 1.2Zm-7 7c-.4-.4-.4-1 0-1.4.4-.4 1-.4 1.4 0 .4.4.4 1 0 1.4-.3.4-.9.4-1.4 0 .1.1.1.1 0 0Zm.1-.1c.4.3.9.2 1.2-.2.2-.3.2-.8 0-1.1-.3-.3-.9-.3-1.2 0-.3.5-.3 1 0 1.3ZM95.6 58.2c-.4-.4-.4-1 0-1.4.4-.4 1-.4 1.4 0 .4.4.4 1 0 1.4-.3.4-1 .4-1.4 0Zm.1-.1c.3.3.9.3 1.2 0 .3-.3.4-.9 0-1.2-.3-.3-.9-.3-1.2 0-.3.3-.3.9 0 1.2ZM113.301 40.8c-.4-.4-.4-1 0-1.4.4-.4 1-.4 1.4 0 .4.4.4 1 0 1.4-.4.4-1 .4-1.4 0Zm.1-.1c.3.3.9.3 1.2 0 .3-.3.4-.9 0-1.2-.3-.3-.9-.4-1.2 0-.3.4-.4.9 0 1.2Zm13.1 3.3c-.4-.4-.4-1 0-1.4.4-.4 1-.4 1.4 0 .4.4.4 1 0 1.4-.4.4-1 .4-1.4 0Zm.1-.1c.3.4.9.4 1.2.1.4-.3.4-.9.1-1.2l-.1-.1c-.4-.3-.9-.3-1.2.1-.3.3-.3.8 0 1.1Zm-13.7 14.6c-.4-.4-.3-1.1.1-1.4.4-.3.9-.3 1.3 0 .4.4.4 1 0 1.4-.4.4-1 .4-1.4 0Zm.1-.1c.3.3.9.3 1.2 0 .3-.4.2-.9-.2-1.2-.3-.2-.8-.2-1.1 0-.2.3-.2.8.1 1.2Zm-8 4.5c-.4-.4-.4-1 0-1.4.4-.4 1.1-.3 1.4.1.3.4.3.9 0 1.3-.4.4-1 .4-1.4 0Zm0-.1c.3.3.9.4 1.2 0 .3-.3.4-.9 0-1.2-.4-.3-.9-.4-1.2 0-.3.3-.3.8 0 1.2Zm3.9 2.8c-.4-.4-.4-1 0-1.4.4-.4 1-.4 1.4 0 .4.4.3 1.1-.1 1.4-.3.3-.9.3-1.3 0Zm.1-.1c.3.3.9.4 1.2 0 .3-.3.4-.9 0-1.2-.3-.3-.9-.4-1.2 0-.3.3-.3.8 0 1.2Zm7.7-11.6c-.4-.4-.4-1 0-1.4.4-.4 1-.4 1.4 0 .4.4.4 1 0 1.4-.4.3-1 .3-1.4 0Zm.1-.1c.3.3.9.4 1.2 0 .3-.3.4-.9 0-1.2-.3-.3-.9-.4-1.2 0-.4.3-.4.8 0 1.2Zm9.4-6.1c-.4-.4-.4-1 0-1.4.4-.4 1-.4 1.4 0 .4.4.4 1 0 1.4-.3.4-1 .4-1.4 0Zm.1 0c.3.3.9.4 1.2 0 .3-.3.4-.9 0-1.2-.3-.3-.9-.4-1.2 0-.3.3-.3.8 0 1.2Zm-3.5 12.2c-.4-.4-.4-1 0-1.4.4-.4 1-.5 1.4-.1.4.4.5 1 .1 1.4l-.1.1c-.4.4-1.1.4-1.4 0Zm.1-.1c.3.3.9.4 1.2 0 .3-.3.4-.9 0-1.2-.3-.3-.9-.4-1.2 0-.4.3-.4.9 0 1.2ZM113.001 69.6c-.4-.4-.4-1 0-1.4.4-.4 1-.4 1.4 0 .4.4.4 1 0 1.4-.4.4-1 .4-1.4 0Zm.1-.1c.3.3.9.3 1.2 0 .3-.3.4-.9 0-1.2-.3-.3-.9-.3-1.2 0-.4.3-.4.8 0 1.2ZM105.401 69c-.4-.4-.4-1 0-1.4.4-.4 1-.4 1.4 0 .4.4.3 1.1-.1 1.4-.4.3-.9.3-1.3 0Zm.1-.1c.3.3.9.3 1.2 0 .3-.3.4-.9 0-1.2-.3-.3-.9-.3-1.2 0-.4.3-.4.8 0 1.2Zm4.9-25c-.4-.4-.4-1 0-1.4.4-.4 1-.4 1.4 0 .4.4.4 1 0 1.4-.4.4-1 .4-1.4 0Zm.1-.1c.3.3.9.4 1.2 0 .3-.3.4-.9 0-1.2-.3-.3-.9-.4-1.2 0-.4.3-.4.9 0 1.2Zm-49.4-12.3c-.4-.4-.5-1-.1-1.4.4-.4 1-.5 1.4-.1l.1.1c.4.4.4 1 0 1.4-.3.4-1 .4-1.4 0Zm.2 0c.3.3.9.4 1.2 0 .3-.3.4-.9 0-1.2-.3-.3-.9-.4-1.2 0-.4.3-.4.8 0 1.2Zm4.8 20.1c-.4-.4-.4-1 0-1.4.4-.4 1-.5 1.4-.1.4.4.5 1 .1 1.4l-.1.1c-.4.4-1 .4-1.4 0Zm.1-.1c.3.3.9.4 1.2 0 .3-.3.4-.9 0-1.2-.3-.3-.9-.4-1.2 0-.4.3-.4.9 0 1.2Zm9.6-9.6c-.4-.4-.4-1 0-1.4.4-.4 1-.4 1.4 0 .4.4.4 1 0 1.4-.4.4-1 .4-1.4 0Zm.1-.1c.3.3.9.3 1.2 0 .3-.3.4-.9 0-1.2-.3-.3-.9-.4-1.2 0-.3.3-.3.9 0 1.2Zm1.6-7.8c-.4-.4-.4-1 0-1.4.4-.4 1-.4 1.4 0 .4.4.4 1 0 1.4-.4.4-1 .4-1.4 0 0 0 .1 0 0 0Zm.1-.1c.3.3.9.4 1.2 0 .3-.3.4-.9 0-1.2-.4-.3-.9-.4-1.2 0-.3.3-.3.9 0 1.2Zm2.2-7.9c-.4-.4-.4-1 0-1.4.4-.4 1-.4 1.4 0 .4.4.4 1 0 1.4-.4.4-1 .4-1.4 0Zm.1-.1c.4.3.9.2 1.2-.2.2-.3.2-.8 0-1.1-.4-.3-.9-.2-1.2.2-.3.3-.3.8 0 1.1Zm10.5 15c-.4-.4-.4-1 0-1.4.4-.4 1-.4 1.4 0 .4.4.4 1 0 1.4-.3.3-1 .3-1.4 0Zm.1-.1c.3.3.9.4 1.2 0 .3-.3.4-.9 0-1.2-.3-.3-.9-.4-1.2 0-.3.3-.3.8 0 1.2Zm6.4 3.7c-.4-.4-.4-1 0-1.4.4-.4 1-.4 1.4 0 .4.4.4 1 0 1.4-.4.3-1 .4-1.4 0Zm.1-.1c.3.4.9.5 1.2.2.4-.3.5-.9.2-1.2 0-.1-.1-.1-.2-.2-.4-.3-.9-.2-1.2.2-.3.2-.3.6 0 1Zm-1.7-31.6c-.4-.4-.4-1 0-1.4.4-.4 1-.4 1.4 0 .4.4.3 1.1-.1 1.4-.4.3-1 .3-1.3 0Zm.1-.1c.3.3.9.4 1.2 0 .3-.3.4-.9 0-1.2-.3-.3-.9-.4-1.2 0-.4.3-.4.8 0 1.2Zm-2.5 7.2c-.4-.4-.4-1 0-1.4.4-.4 1-.4 1.4 0 .4.4.4 1 0 1.4-.3.4-1 .4-1.4 0Zm.1-.1c.3.3.9.3 1.2 0 .3-.3.3-.9 0-1.2-.3-.3-.9-.3-1.2 0-.3.3-.3.9 0 1.2Zm9.8 10c-.4-.4-.4-1 0-1.4.4-.4 1-.4 1.4 0 .4.4.4 1 0 1.4-.4.4-1 .4-1.4 0Zm.1-.1c.3.3.9.3 1.2 0 .4-.3.5-.9.2-1.2-.3-.3-.9-.5-1.2-.2-.1 0-.1.1-.2.2-.3.3-.3.9 0 1.2Zm-2.2 4.5c-.4-.4-.4-1 0-1.4.4-.4 1-.4 1.4 0 .4.4.4 1 0 1.4-.3.4-1 .4-1.4 0Zm.1-.1c.3.3.9.3 1.3 0 .3-.4.2-.9-.2-1.2-.3-.2-.8-.2-1.1 0-.3.3-.3.9 0 1.2Z" fill="#353535"/><path d="M74.7 84.4h25.2v-33c-.1-1.3.9-2.5 2.2-2.6 1.3-.1 2.5.9 2.6 2.2v35.8c0 1.3-1 2.3-2.3 2.3H74.8l-.1-4.7ZM43.9 58.2v-5.7c0-1.3 1.1-2.4 2.4-2.4 1.3 0 2.4 1.1 2.4 2.4v5.7h-4.8Zm71.5-7.3-19-19.1v-13c0-1.3-1-2.4-2.4-2.4-1.3 0-2.3 1.1-2.3 2.4v8.3L75.9 11.3c-.4-.5-1-.7-1.6-.8-.6 0-1.3.3-1.7.8L33.2 50.7c-.9.9-.9 2.4 0 3.3.9.9 2.4.9 3.3 0l37.7-37.7 37.7 38c.5.4 1.1.6 1.7.6.6 0 1.2-.2 1.7-.6 1-1 1-2.5.1-3.4Z" fill="url(#b)"/><path d="M52.8 84.7c0-2.5-2-4.4-4.4-4.4-2.5 0-4.4 2-4.4 4.4 0 2.5 2 4.4 4.4 4.4 2.4 0 4.4-2 4.4-4.4Zm6.2 4.4c-.1-8.3-6.8-14.9-15.1-14.9V68c11.7 0 21.2 9.5 21.2 21.2l-6.1-.1Zm10.9 0c-.1-14.3-11.7-25.9-26-25.9v-6.1c17.7 0 32.1 14.3 32.2 32h-6.2Z" fill="url(#c)"/><path d="M74.3 102.401c21.374 0 38.701-1.836 38.701-4.1 0-2.264-17.327-4.1-38.7-4.1-21.374 0-38.7 1.836-38.7 4.1 0 2.264 17.326 4.1 38.7 4.1Z" fill="url(#d)"/><path d="M18.8 112.301c-.1-1.1-.4-2-1-2.7-.6-.7-1.5-1-2.6-1-1.6 0-2.6.8-3.1 2.4l-1.5-.4c.3-1 .8-1.8 1.6-2.4.8-.6 1.8-.9 2.9-.9 1.1 0 2.1.3 2.9.8.8.5 1.4 1.2 1.8 2.1.4.9.6 1.8.6 2.8.1 1.7-.3 3.1-1.2 4.2-.9 1.1-2.2 1.7-4 1.7-2.5 0-4-1.2-4.7-3.7l1.4-.4c.5 1.9 1.6 2.9 3.4 2.9 1 0 1.8-.4 2.5-1.1.6-.7 1-1.7 1.1-3h-4.2v-1.3h4.1Z" fill="url(#e)"/><path d="M26.6 108.902v-1.4H28v1.4c1.4.1 2.6.5 3.4 1.3.8.8 1.2 1.8 1.2 2.9 0 1.1-.4 2.1-1.2 2.9-.8.8-1.9 1.2-3.4 1.3v1.5h-1.4v-1.5c-1.3-.1-2.4-.5-3.3-1.2-.9-.8-1.3-1.8-1.3-3 0-1.3.4-2.3 1.3-3 .9-.7 1.9-1.2 3.3-1.2Zm0 1.3c-.9 0-1.7.3-2.2.8-.6.5-.9 1.2-.9 2.1 0 .9.3 1.6.8 2.1.6.5 1.3.8 2.3.8v-5.8Zm1.4-.1v5.9c1 0 1.7-.3 2.3-.8.6-.5.8-1.2.8-2.1 0-.9-.3-1.6-.8-2.1-.6-.5-1.4-.8-2.3-.9Z" fill="url(#f)"/><path d="M38.5 108.902v-1.4h1.4v1.4c1.4.1 2.6.5 3.4 1.3.8.8 1.2 1.8 1.2 2.9 0 1.1-.4 2.1-1.2 2.9-.8.8-1.9 1.2-3.4 1.3v1.5h-1.4v-1.5c-1.3-.1-2.4-.5-3.3-1.2-.9-.8-1.3-1.8-1.3-3 0-1.3.4-2.3 1.3-3 .9-.7 2-1.2 3.3-1.2Zm0 1.3c-.9 0-1.7.3-2.2.8-.6.5-.9 1.2-.9 2.1 0 .9.3 1.6.8 2.1.6.5 1.3.8 2.3.8v-5.8Zm1.4-.1v5.9c1 0 1.7-.3 2.3-.8.6-.5.8-1.2.8-2.1 0-.9-.3-1.6-.8-2.1s-1.3-.8-2.3-.9Z" fill="url(#g)"/><path d="M46.4 118.802v-11.2h8.1v1.3h-6.6v3.4h6.2v1.3h-6.2v3.8h6.9v1.3h-8.4v.1Z" fill="url(#h)"/><path d="M56.9 107.5h1.5v4.9c.7 0 1.2-.1 1.4-.4.3-.3.6-.9 1.1-1.9.3-.7.6-1.3.8-1.6.2-.3.5-.6.9-.8.4-.2.8-.3 1.2-.3h.9v1.3h-.6c-.5 0-.8.1-1.1.3-.2.2-.5.7-.8 1.5-.4 1-.7 1.6-1 1.8l-.9.6c.7.2 1.4.9 2.1 2l2.3 3.7h-1.8l-1.9-3.1c-.5-.8-.9-1.4-1.3-1.7-.3-.3-.8-.5-1.4-.5v5.3h-1.5v-11.1h.1Z" fill="url(#i)"/><path d="M68.9 118.802v-9.9h-3.7v-1.3h8.9v1.3h-3.7v9.9h-1.5Z" fill="url(#j)"/><path d="M75.7 107.502h1.4v8.9l6-8.9h1.5v11.2h-1.4v-8.9l-6 8.9h-1.5v-11.2Z" fill="url(#k)"/><path d="M86.9 118.802v-11.2h4.2c.9 0 1.5.1 2.1.3.6.2.9.6 1.2 1.1.3.5.4 1 .4 1.5s-.1.9-.4 1.4c-.3.4-.7.8-1.2 1 .7.2 1.2.5 1.6 1 .4.5.5 1 .5 1.7 0 .5-.1 1-.3 1.5-.2.5-.5.8-.8 1-.3.2-.7.4-1.2.6-.5.1-1.1.2-1.8.2h-4.3v-.1Zm1.4-6.6h2.4c.7 0 1.1 0 1.4-.1.4-.1.7-.3.9-.6.2-.3.3-.6.3-1s-.1-.7-.3-1c-.2-.3-.4-.5-.8-.6-.3-.1-.9-.2-1.7-.2h-2.2v3.5Zm0 5.2h2.8c.5 0 .8 0 1-.1l.9-.3c.2-.1.4-.4.6-.6.2-.2.2-.6.2-.9 0-.4-.1-.8-.3-1.1-.2-.3-.5-.5-.9-.7-.4-.1-.9-.2-1.6-.2h-2.6v3.9h-.1Z" fill="url(#l)"/><path d="M97.4 118.802v-11.2h1.5v4.6h5.799v-4.6h1.5v11.2h-1.5v-5.3h-5.8v5.3h-1.5Z" fill="url(#m)"/><path d="M108.8 107.502h1.5v4.8h2.7c1.8 0 2.9.3 3.5 1 .6.6.8 1.4.8 2.2 0 .9-.3 1.6-.9 2.3-.6.7-1.7 1-3.3 1h-4.3v-11.3Zm1.5 10h2.7c.9 0 1.6-.2 2-.5.4-.3.6-.8.6-1.5 0-.5-.1-.9-.4-1.2-.3-.3-.6-.5-1-.6-.4-.1-1.1-.1-2-.1h-2v3.9h.1Zm8.4-10h1.5v11.2h-1.5v-11.2Z" fill="url(#n)"/><path d="M122.7 118.802v-11.2h8.1v1.3h-6.6v3.4h6.2v1.3h-6.2v3.8h6.9v1.3h-8.4v.1Z" fill="url(#o)"/><path d="m42.3 130.5 1.5.4c-.3 1.2-.9 2.2-1.7 2.8-.8.6-1.8 1-3 1s-2.2-.2-3-.7c-.8-.5-1.3-1.2-1.7-2.1-.4-.9-.6-1.9-.6-3 0-1.2.2-2.2.7-3.1.4-.9 1.1-1.5 1.9-2 .8-.5 1.7-.7 2.7-.7 1.1 0 2.1.3 2.8.9.8.6 1.3 1.4 1.6 2.4l-1.5.3c-.3-.8-.6-1.4-1.1-1.8-.5-.4-1.1-.6-1.9-.6-.9 0-1.6.2-2.2.6-.6.4-1 1-1.2 1.7-.2.7-.4 1.4-.4 2.2 0 1 .1 1.8.4 2.5.3.7.7 1.2 1.3 1.6.6.4 1.2.5 1.9.5.8 0 1.5-.2 2.1-.7.8-.5 1.2-1.2 1.4-2.2Z" fill="url(#p)"/><path d="M45.7 123.199h1.4v8.9l6-8.9h1.5v11.2h-1.4v-8.9l-6 8.9h-1.5v-11.2Z" fill="url(#q)"/><path d="m66.3 130.5 1.5.4c-.3 1.2-.9 2.2-1.7 2.8-.8.6-1.8 1-3 1s-2.2-.2-3-.7c-.8-.5-1.3-1.2-1.7-2.1-.4-.9-.6-1.9-.6-3 0-1.2.2-2.2.7-3.1.4-.9 1.1-1.5 1.9-2 .8-.5 1.7-.7 2.7-.7 1.1 0 2.1.3 2.8.9.8.6 1.3 1.4 1.6 2.4l-1.5.3c-.3-.8-.6-1.4-1.1-1.8-.5-.4-1.1-.6-1.9-.6-.9 0-1.6.2-2.2.6-.6.4-1 1-1.2 1.7-.2.7-.4 1.4-.4 2.2 0 1 .1 1.8.4 2.5.3.7.7 1.2 1.3 1.6.6.4 1.2.5 1.9.5.8 0 1.5-.2 2.1-.7.8-.5 1.2-1.2 1.4-2.2Z" fill="url(#r)"/><path d="M71.9 134.501v-9.9h-3.7v-1.3h8.9v1.3h-3.7v9.9h-1.5Z" fill="url(#s)"/><path d="M78.7 134.501v-11.2h8.1v1.3h-6.6v3.4h6.2v1.3h-6.2v3.8h6.9v1.3h-8.4v.1Z" fill="url(#t)"/><path d="M89.1 134.501v-11.2h2.2l2.7 8c.2.7.4 1.3.5 1.7.1-.4.3-1 .6-1.8l2.7-7.8h2v11.2h-1.4v-9.4l-3.3 9.4h-1.3l-3.3-9.6v9.6h-1.4v-.1Z" fill="url(#u)"/><path d="M102.3 123.201h1.5v4.8h2.7c1.8 0 2.9.3 3.5 1 .6.6.8 1.4.8 2.2 0 .9-.3 1.6-.9 2.3-.6.7-1.7 1-3.3 1h-4.3v-11.3Zm1.5 10h2.7c.9 0 1.6-.2 2-.5.4-.3.6-.8.6-1.5 0-.5-.1-.9-.4-1.2-.3-.3-.6-.5-1-.6-.4-.1-1.1-.1-2-.1h-2v3.9h.1Zm8.3-10h1.5v11.2h-1.5v-11.2Z" fill="url(#v)"/><path d="M0 150.2 4.3 139h1.6l4.6 11.2H8.8l-1.3-3.4H2.8l-1.2 3.4H0Zm3.3-4.6h3.8l-1.2-3.1c-.4-.9-.6-1.7-.8-2.3-.1.7-.3 1.4-.6 2.1l-1.2 3.3Z" fill="url(#w)"/><path d="M12.3 150.2V139h4.2c.9 0 1.5.1 2.1.3.6.2.9.6 1.2 1.1.3.5.4 1 .4 1.5s-.1.9-.4 1.4c-.3.4-.7.8-1.2 1 .7.2 1.2.5 1.6 1 .4.5.5 1 .5 1.7 0 .5-.1 1-.3 1.5-.2.5-.5.8-.8 1-.3.2-.7.4-1.2.6-.5.1-1.1.2-1.8.2h-4.3v-.1Zm1.5-6.5h2.4c.7 0 1.1 0 1.4-.1.4-.1.7-.3.9-.6.2-.3.3-.6.3-1s-.1-.7-.3-1c-.2-.3-.4-.5-.8-.6-.3-.1-.9-.2-1.7-.2h-2.2v3.5Zm0 5.2h2.8c.5 0 .8 0 1-.1l.9-.3c.2-.1.4-.4.6-.6.2-.2.2-.6.2-.9 0-.4-.1-.8-.3-1.1-.2-.3-.5-.5-.9-.7-.4-.1-.9-.2-1.6-.2h-2.6v3.9h-.1Z" fill="url(#x)"/><path d="M24.8 150.2v-9.9h-3.7V139H30v1.3h-3.7v9.9h-1.5Z" fill="url(#y)"/><path d="M29.8 144.701c0-1.9.5-3.3 1.5-4.4 1-1.1 2.3-1.6 3.9-1.6 1 0 2 .2 2.8.7.8.5 1.5 1.2 1.9 2.1.4.9.7 1.9.7 3s-.2 2.2-.7 3.1c-.5.9-1.1 1.6-2 2-.8.5-1.8.7-2.7.7-1.1 0-2-.3-2.8-.8-.8-.5-1.5-1.2-1.9-2.1-.5-.8-.7-1.7-.7-2.7Zm1.5 0c0 1.4.4 2.4 1.1 3.2.7.8 1.6 1.2 2.7 1.2s2-.4 2.8-1.2c.7-.8 1.1-1.9 1.1-3.4 0-.9-.2-1.7-.5-2.4s-.8-1.2-1.4-1.6c-.6-.4-1.3-.6-2-.6-1.1 0-2 .4-2.7 1.1-.7.8-1.1 2-1.1 3.7Z" fill="url(#z)"/><path d="M42.4 150.202v-11.2h2.2l2.7 8c.2.7.4 1.3.5 1.7.1-.4.3-1 .6-1.8l2.7-7.8h2v11.2h-1.4v-9.4l-3.3 9.4h-1.3l-3.3-9.6v9.6h-1.4v-.1Z" fill="url(#A)"/><path d="m57.6 150.2 4.3-11.2h1.6l4.6 11.2h-1.7l-1.3-3.4h-4.7l-1.2 3.4h-1.6Zm3.2-4.6h3.8l-1.2-3.1c-.4-.9-.6-1.7-.8-2.3-.1.7-.3 1.4-.6 2.1l-1.2 3.3Z" fill="url(#B)"/><path d="M71.6 150.2v-9.9h-3.7V139h8.9v1.3h-3.7v9.9h-1.5Z" fill="url(#C)"/><path d="M78.3 138.9h1.4v8.9l6-8.9h1.5v11.2h-1.4v-8.9l-6 8.9h-1.5v-11.2Z" fill="url(#D)"/><path d="m90.2 147 1.4-.4c.1.5.4 1.1.9 1.6s1.1.8 1.9.8c.8 0 1.4-.2 1.9-.6.5-.4.7-.9.7-1.5s-.2-1.1-.7-1.5c-.5-.4-1.1-.5-2-.5h-.7v-1.3c.7 0 1.2 0 1.6-.1.4-.1.7-.3 1-.6.3-.3.4-.7.4-1.1 0-.5-.2-.9-.6-1.3-.4-.4-.9-.5-1.5-.5s-1.1.1-1.5.4c-.4.3-.7.7-.8 1.1-.2.5-.2.8-.2 1l-1.4-.3c.4-2.4 1.7-3.6 4-3.6 1.1 0 2 .3 2.6.9.6.6 1 1.3 1 2.1 0 1-.5 1.9-1.5 2.4.6.2 1.1.5 1.4 1 .4.5.6 1.1.6 1.8 0 1-.4 1.8-1.1 2.4-.7.6-1.7 1-3 1-2.3.2-3.7-.9-4.4-3.2Z" fill="url(#E)"/><path d="m98.4 150.2 4.3-11.2h1.6l4.6 11.2h-1.7l-1.3-3.4h-4.7l-1.2 3.4h-1.6Zm3.3-4.6h3.8l-1.2-3.1c-.4-.9-.6-1.7-.8-2.3-.1.7-.3 1.4-.6 2.1l-1.2 3.3Z" fill="url(#F)"/><path d="M110.2 138.9h1.5v9.9h5.9v-9.9h1.5v9.9h1v4.5h-1.3v-3.1h-8.6v-11.3Z" fill="url(#G)"/><path d="M121.801 138.9h1.4v8.9l6-8.9h1.5v11.2h-1.4v-8.9l-6 8.9h-1.5v-11.2Z" fill="url(#H)"/><path d="M133.101 138.9h1.4v8.9l6-8.9h1.5v11.2h-1.4v-8.9l-6 8.9h-1.5v-11.2Z" fill="url(#I)"/></g><defs><linearGradient id="s" x1="-2.207" y1="128.857" x2="141.642" y2="128.857" gradientUnits="userSpaceOnUse"><stop stop-color="#1C8AE2"/><stop offset=".486" stop-color="#8B00B3"/><stop offset="1" stop-color="#6900B5"/></linearGradient><linearGradient id="b" x1="-2.207" y1="49.801" x2="141.642" y2="49.801" gradientUnits="userSpaceOnUse"><stop stop-color="#1C8AE2"/><stop offset=".486" stop-color="#8B00B3"/><stop offset="1" stop-color="#6900B5"/></linearGradient><linearGradient id="I" x1="-2.207" y1="144.57" x2="141.642" y2="144.57" gradientUnits="userSpaceOnUse"><stop stop-color="#1C8AE2"/><stop offset=".486" stop-color="#8B00B3"/><stop offset="1" stop-color="#6900B5"/></linearGradient><linearGradient id="e" x1="-2.207" y1="113.144" x2="141.64" y2="113.144" gradientUnits="userSpaceOnUse"><stop stop-color="#1C8AE2"/><stop offset=".486" stop-color="#8B00B3"/><stop offset="1" stop-color="#6900B5"/></linearGradient><linearGradient id="f" x1="-2.207" y1="113.099" x2="141.641" y2="113.099" gradientUnits="userSpaceOnUse"><stop stop-color="#1C8AE2"/><stop offset=".486" stop-color="#8B00B3"/><stop offset="1" stop-color="#6900B5"/></linearGradient><linearGradient id="g" x1="-2.208" y1="113.099" x2="141.642" y2="113.099" gradientUnits="userSpaceOnUse"><stop stop-color="#1C8AE2"/><stop offset=".486" stop-color="#8B00B3"/><stop offset="1" stop-color="#6900B5"/></linearGradient><linearGradient id="h" x1="-2.208" y1="113.144" x2="141.641" y2="113.144" gradientUnits="userSpaceOnUse"><stop stop-color="#1C8AE2"/><stop offset=".486" stop-color="#8B00B3"/><stop offset="1" stop-color="#6900B5"/></linearGradient><linearGradient id="i" x1="-2.208" y1="113.139" x2="141.641" y2="113.139" gradientUnits="userSpaceOnUse"><stop stop-color="#1C8AE2"/><stop offset=".486" stop-color="#8B00B3"/><stop offset="1" stop-color="#6900B5"/></linearGradient><linearGradient id="j" x1="-2.207" y1="113.144" x2="141.642" y2="113.144" gradientUnits="userSpaceOnUse"><stop stop-color="#1C8AE2"/><stop offset=".486" stop-color="#8B00B3"/><stop offset="1" stop-color="#6900B5"/></linearGradient><linearGradient id="k" x1="-2.207" y1="113.145" x2="141.642" y2="113.145" gradientUnits="userSpaceOnUse"><stop stop-color="#1C8AE2"/><stop offset=".486" stop-color="#8B00B3"/><stop offset="1" stop-color="#6900B5"/></linearGradient><linearGradient id="l" x1="-2.208" y1="113.144" x2="141.641" y2="113.144" gradientUnits="userSpaceOnUse"><stop stop-color="#1C8AE2"/><stop offset=".486" stop-color="#8B00B3"/><stop offset="1" stop-color="#6900B5"/></linearGradient><linearGradient id="m" x1="-2.208" y1="113.144" x2="141.641" y2="113.144" gradientUnits="userSpaceOnUse"><stop stop-color="#1C8AE2"/><stop offset=".486" stop-color="#8B00B3"/><stop offset="1" stop-color="#6900B5"/></linearGradient><linearGradient id="n" x1="-2.208" y1="113.145" x2="141.641" y2="113.145" gradientUnits="userSpaceOnUse"><stop stop-color="#1C8AE2"/><stop offset=".486" stop-color="#8B00B3"/><stop offset="1" stop-color="#6900B5"/></linearGradient><linearGradient id="o" x1="-2.207" y1="113.144" x2="141.642" y2="113.144" gradientUnits="userSpaceOnUse"><stop stop-color="#1C8AE2"/><stop offset=".486" stop-color="#8B00B3"/><stop offset="1" stop-color="#6900B5"/></linearGradient><linearGradient id="p" x1="-2.207" y1="128.856" x2="141.641" y2="128.856" gradientUnits="userSpaceOnUse"><stop stop-color="#1C8AE2"/><stop offset=".486" stop-color="#8B00B3"/><stop offset="1" stop-color="#6900B5"/></linearGradient><linearGradient id="q" x1="-2.207" y1="128.856" x2="141.642" y2="128.856" gradientUnits="userSpaceOnUse"><stop stop-color="#1C8AE2"/><stop offset=".486" stop-color="#8B00B3"/><stop offset="1" stop-color="#6900B5"/></linearGradient><linearGradient id="r" x1="-2.207" y1="128.856" x2="141.641" y2="128.856" gradientUnits="userSpaceOnUse"><stop stop-color="#1C8AE2"/><stop offset=".486" stop-color="#8B00B3"/><stop offset="1" stop-color="#6900B5"/></linearGradient><linearGradient id="c" x1="-2.207" y1="73.1" x2="141.642" y2="73.1" gradientUnits="userSpaceOnUse"><stop stop-color="#1C8AE2"/><stop offset=".486" stop-color="#8B00B3"/><stop offset="1" stop-color="#6900B5"/></linearGradient><linearGradient id="t" x1="-2.207" y1="128.857" x2="141.642" y2="128.857" gradientUnits="userSpaceOnUse"><stop stop-color="#1C8AE2"/><stop offset=".486" stop-color="#8B00B3"/><stop offset="1" stop-color="#6900B5"/></linearGradient><linearGradient id="u" x1="-2.206" y1="128.857" x2="141.642" y2="128.857" gradientUnits="userSpaceOnUse"><stop stop-color="#1C8AE2"/><stop offset=".486" stop-color="#8B00B3"/><stop offset="1" stop-color="#6900B5"/></linearGradient><linearGradient id="v" x1="-2.208" y1="128.858" x2="141.641" y2="128.858" gradientUnits="userSpaceOnUse"><stop stop-color="#1C8AE2"/><stop offset=".486" stop-color="#8B00B3"/><stop offset="1" stop-color="#6900B5"/></linearGradient><linearGradient id="w" x1="-2.207" y1="144.569" x2="141.641" y2="144.569" gradientUnits="userSpaceOnUse"><stop stop-color="#1C8AE2"/><stop offset=".486" stop-color="#8B00B3"/><stop offset="1" stop-color="#6900B5"/></linearGradient><linearGradient id="x" x1="-2.208" y1="144.569" x2="141.641" y2="144.569" gradientUnits="userSpaceOnUse"><stop stop-color="#1C8AE2"/><stop offset=".486" stop-color="#8B00B3"/><stop offset="1" stop-color="#6900B5"/></linearGradient><linearGradient id="y" x1="-2.207" y1="144.569" x2="141.642" y2="144.569" gradientUnits="userSpaceOnUse"><stop stop-color="#1C8AE2"/><stop offset=".486" stop-color="#8B00B3"/><stop offset="1" stop-color="#6900B5"/></linearGradient><linearGradient id="z" x1="-2.208" y1="144.567" x2="141.642" y2="144.567" gradientUnits="userSpaceOnUse"><stop stop-color="#1C8AE2"/><stop offset=".486" stop-color="#8B00B3"/><stop offset="1" stop-color="#6900B5"/></linearGradient><linearGradient id="A" x1="-2.208" y1="144.571" x2="141.641" y2="144.571" gradientUnits="userSpaceOnUse"><stop stop-color="#1C8AE2"/><stop offset=".486" stop-color="#8B00B3"/><stop offset="1" stop-color="#6900B5"/></linearGradient><linearGradient id="B" x1="-2.207" y1="144.569" x2="141.642" y2="144.569" gradientUnits="userSpaceOnUse"><stop stop-color="#1C8AE2"/><stop offset=".486" stop-color="#8B00B3"/><stop offset="1" stop-color="#6900B5"/></linearGradient><linearGradient id="C" x1="-2.207" y1="144.569" x2="141.642" y2="144.569" gradientUnits="userSpaceOnUse"><stop stop-color="#1C8AE2"/><stop offset=".486" stop-color="#8B00B3"/><stop offset="1" stop-color="#6900B5"/></linearGradient><linearGradient id="D" x1="-2.207" y1="144.57" x2="141.642" y2="144.57" gradientUnits="userSpaceOnUse"><stop stop-color="#1C8AE2"/><stop offset=".486" stop-color="#8B00B3"/><stop offset="1" stop-color="#6900B5"/></linearGradient><linearGradient id="E" x1="-2.207" y1="144.569" x2="141.641" y2="144.569" gradientUnits="userSpaceOnUse"><stop stop-color="#1C8AE2"/><stop offset=".486" stop-color="#8B00B3"/><stop offset="1" stop-color="#6900B5"/></linearGradient><linearGradient id="F" x1="-2.207" y1="144.569" x2="141.642" y2="144.569" gradientUnits="userSpaceOnUse"><stop stop-color="#1C8AE2"/><stop offset=".486" stop-color="#8B00B3"/><stop offset="1" stop-color="#6900B5"/></linearGradient><linearGradient id="G" x1="-2.207" y1="146.131" x2="141.642" y2="146.131" gradientUnits="userSpaceOnUse"><stop stop-color="#1C8AE2"/><stop offset=".486" stop-color="#8B00B3"/><stop offset="1" stop-color="#6900B5"/></linearGradient><linearGradient id="H" x1="-2.207" y1="144.57" x2="141.642" y2="144.57" gradientUnits="userSpaceOnUse"><stop stop-color="#1C8AE2"/><stop offset=".486" stop-color="#8B00B3"/><stop offset="1" stop-color="#6900B5"/></linearGradient><radialGradient id="d" cx="0" cy="0" r="1" gradientUnits="userSpaceOnUse" gradientTransform="matrix(-34.5987 0 0 -3.14532 72.216 98.55)"><stop stop-color="#303030"/><stop offset=".27" stop-color="#505050" stop-opacity=".85"/><stop offset=".68" stop-color="#A7A7A7" stop-opacity=".43"/><stop offset="1" stop-color="#fff" stop-opacity="0"/></radialGradient><clipPath id="a"><path fill="#fff" d="M0 0h142v155H0z"/></clipPath></defs></svg>