<?xml version="1.0" encoding="utf-8"?>
<!-- Generator: Adobe Illustrator 22.1.0, SVG Export Plug-In . SVG Version: 6.00 Build 0)  -->
<svg version="1.1" id="Слой_1" xmlns="http://www.w3.org/2000/svg" xmlns:xlink="http://www.w3.org/1999/xlink" x="0px" y="0px"
	 viewBox="0 0 123 50" style="enable-background:new 0 0 123 50;" xml:space="preserve">
<style type="text/css">
	.st0{fill:#FFFFFF;}
</style>
<g>
	<g>
		<path class="st0" d="M0.5461414,0.3707912V49.526226h34.7964859c1.0211678,0,1.8644371,0.032135,2.7341728,0.1029816
			L40.89748,49.526226c3.7889481,0,3.1442947,0.6303291,3.1442947-2.7250099c0-15.4768734,0-30.9535522,0-46.4304237
			C44.0417747,0.3707925,0.5461414,0.3707925,0.5461414,0.3707912z M2.3278875,2.3622169h39.5128479v44.9629517H2.3278875V2.3622169
			z"/>
		<path class="st0" d="M23.1848583,15.463233l4.1022625-6.509985c0.2438774-0.5558004-0.3523922-0.4167767-0.9561024-0.4092522
			c-4.1591167,0.0517416-9.1546745-0.8612056-13.6259403,1.155858c-0.7535076,0.3399248-1.2821217,0.6354342-1.8733454,1.166193
			l-0.7053852,0.7619715c-1.3184433,1.9079752,0.2499905,4.3259573,2.5610352,4.1406469
			c2.0251446-0.1624546,4.3733606-1.6478138,4.222043-4.195013c-0.0290852-0.4903383,0.0823345-0.4029398-0.3275013-0.512372
			c-0.4886322,0.3580036-0.0776596,0.3666525-0.2322273,1.3400316c-0.4010887,2.5252953-5.680481,3.1624365-6.1271715,0.923069
			c-0.5788202-2.9029751,5.6320028-3.5220308,7.8266802-3.5208178c1.1179333,0.0006237,2.2358665,0,3.3538666,0
			c-0.0829639,0.0721712-0.0420227,0.0547438-0.185009,0.1294842c-0.622036,0.3246975-0.5142078,0.0659962-1.7033043,0.9168262
			c-0.5638523,0.4033918-1.6610336,1.6795721-2.0751305,2.326972l-1.6534815,2.8533916
			c-0.5712404,0.859726-0.3634109,0.6882458-1.1653566,1.7691917c-0.8406391,1.1331329-2.1814928,2.2264977-3.7425385,2.0134525
			c-1.8012094-0.2459679-1.3838091-0.5722828-1.7377491-1.3100491c1.4238596-0.9535732,0.0653791-2.4143009-1.1171646-1.5364075
			c-1.2687316,0.9419155-0.0971923,4.0154991,4.5056543,3.2479286c4.0895281-0.6820221,5.6317282-5.2284107,7.4677782-8.0440559
			c0.3439903-0.5275717,0.5986958-0.7619028,0.9699192-1.2309074c0.2888203-0.3649397,0.8121834-0.7165213,1.3506641-0.850337
			c0.8098278-0.2013941,1.3329582,0.0289688,2.1252289,0.0289688c-0.1403542,0.5254812-5.6580849,9.2861071-5.7997131,9.633935
			c-0.1847897,0.4543171,0.0774002,0.4320374,0.5462952,0.4389801c0.3769531,0.0055923,0.7832222-0.0112743,1.1658497-0.0112743
			c1.0088844-1.5066109,0.9933014-1.7353973,2.2158794-3.2341194c0.4508171-0.5527248,0.7338943-0.961277,1.26758-1.457406
			c0.2630386-0.2445765,1.4174995-1.2027273,1.756937-0.8633165c0.6147861,0.6146078-2.3847713,3.1071243-2.1833019,4.5855484
			c0.1437531,1.0534382,1.2424965,1.4199047,2.3223248,0.8987541c0.8046608-0.3882256,1.3300266-1.1864166,1.9571056-1.6062908
			c0.2462215,0.5129337,0.0180798,0.6409588,0.4953079,1.1816406c1.0957832,1.2417564,3.2295361,0.6432457,4.119709,0.1842346
			c0.366333-0.1889496,0.7256851-0.4417229,1.0890274-0.6928501c0.7584686-0.5242691,3.9897194-3.7155447,2.9213066-3.5796385
			c-0.2471123,0.0313253-0.2927399,0.2158546-0.4372444,0.4023094c-0.1604195,0.2073145-0.2835884,0.2937746-0.4476395,0.4975195
			c-0.996479,1.2378788-2.4253693,2.7386913-4.1140347,3.0180264c-1.3864403,0.2293491-1.7398586-0.5095615-1.7398586-1.744936
			c0.5236378-0.2512035,1.2235394-0.3526173,1.8044701-0.5013657c0.8982353-0.2299309,1.7205467-0.5398808,2.4153099-1.1481838
			c0.9451103-0.8277683,0.6962013-1.7681141-0.2422867-2.1182775c-1.8337898-0.6844282-4.8357182,1.1407261-5.7165718,3.4959402
			c-0.5090694,1.3605766-5.1229343,4.4298439-1.3887291-0.5502491c0.2349529-0.3134518,0.7235718-1.139514,0.8010406-1.5103807
			c0.1746731-0.8364382-0.3031158-1.4121332-0.8394871-1.5262794C24.8629704,13.5810604,23.6816311,15.1306267,23.1848583,15.463233
			 M29.7877922,17.1402626c0.3056793-0.6371346,0.6526699-1.2746525,1.1256371-1.8089886
			c0.137804-0.1555738,0.2135715-0.2150183,0.3851204-0.3485661c0.5110435-0.3978615,0.7130203-0.7181177,1.4238586-0.5674305
			C32.7224083,16.1192131,30.6273766,17.0703106,29.7877922,17.1402626z M23.1848583,15.463233l-0.104826,0.104846
			L23.1848583,15.463233z"/>
		<path class="st0" d="M13.6472406,25.7346172v15.5117741c0,1.1363907,1.8865175,0.8775597,1.8865175,0.2095451v-4.9261055
			c0.4972801,0,0.7571259,0.1175117,1.1528835,0.2096939c0.0372257,0.4477654,0.1098022,0.6490364,0.1061687,1.256382
			l-0.0046463,2.9392624c-0.0161037,1.1928635-0.0036182,1.0447884,1.3658676,1.0447884
			c0.2453442,0,0.4191952-0.1739006,0.4191952-0.4191742v-4.2972298c0-1.0182037-0.3602428-0.9740791-0.5240211-1.6769676
			c0.2509365-0.3746147,0.5240211-0.7407761,0.5240211-1.3624344v-6.9174194c0-0.5852356-0.4494171-1.3666363-0.7598801-1.6508446
			c-0.8835945-0.8087025-2.2144566-0.6549644-3.4324045-0.6549644
			C13.8915701,25.0009232,13.6472406,25.2452927,13.6472406,25.7346172 M16.2674599,34.7481728h-0.7337017v-7.9655724
			l1.0481663,0.1049156c0.4174004,0.8699913,0.2095566,5.8434296,0.2095566,7.1269341
			C16.791481,34.3677597,16.606308,34.7481728,16.2674599,34.7481728z"/>
		<path class="st0" d="M25.9098625,25.4201584v16.140625c0,0.6205902,1.6769619,0.6205902,1.6769619,0V37.158699h0.6288471
			c1.2246914,0,2.4105949-1.0915871,2.4105949-2.3056984c0-1.4320068,0.1917381-7.723917-0.2125454-8.4865875
			c-0.0604038-0.1140099-0.4313259-0.6021957-0.542841-0.7149925c-0.8039875-0.8119392-2.3097687-0.6504974-3.5417805-0.6504974
			C26.0837688,25.0009232,25.9098625,25.1748219,25.9098625,25.4201584 M28.3203888,35.3770218h-0.7335644v-8.5944214
			c1.5261078,0,0.5679226,0.0255337,1.2577229,0.2097416v8.0702229
			C28.6285629,35.207119,28.5724621,35.3770218,28.3203888,35.3770218z"/>
		<path class="st0" d="M7.5683961,27.5162945v12.0530682c0,2.3284264,3.4441781,3.4691315,4.5845895,0.9163399
			c0.3365459-0.7533722,0.1317043-2.642704,0.1317043-3.6413918c-0.6767931-0.1576233-0.4463072-0.1047859-1.2576141-0.1047859
			c-1.1312284,0,0.3723335,3.4586868-1.0481539,3.4586868c-0.2670965,0-0.6288481-0.2266083-0.6288481-0.5239525v-12.367527
			c0-0.2974567,0.3617516-0.5241318,0.6288481-0.5241318c1.2725677,0,0.0327168,2.51544,1.0481539,2.51544
			c1.5725183,0,1.2576141,0.3832722,1.2576141-2.2009811c0-1.167448-1.3319025-2.132679-2.4644737-2.0371246
			C8.5495119,25.1671867,7.5683961,26.1922588,7.5683961,27.5162945"/>
		<path class="st0" d="M19.7261658,25.1057701c-0.2669849,1.1459332-0.1048393,14.0724258-0.1048393,16.3501663
			c0,0.2443886,0.2796516,0.5240211,0.5240231,0.5240211h3.8779144c0.6278057,0,0.5240345-0.8345947,0.5240345-1.1528702
			c0-0.9091988-0.8452301-0.6319275-2.4195862-0.6198235c-0.3907108,0.0029869-0.7246399,0.0808411-0.7246399-0.3234444V32.547184
			c2.7082539,0,2.4106617,0.2789993,2.4106617-1.3625698c0-0.6440773-1.161684-0.4191685-2.4106617-0.4191685v-3.9828453
			c0.9713287,0,2.1101913,0.1116524,3.0395107-0.1047173c0.1011391-0.4341278,0.3182755-1.67696-0.4193192-1.67696
			C23.2711124,25.0009232,20.2461033,24.903841,19.7261658,25.1057701"/>
		<path class="st0" d="M31.8839226,25.1057701c-0.2667122,1.1449261-0.1048279,13.9773865-0.1048279,16.2453384
			c0,0.2830658,0.0500431,0.2890625,0.1048279,0.5241318c0.9738922,0.2267456,3.1786995,0.1047173,4.2971268,0.1047173
			c0.627285,0,0.627285-1.7817459,0-1.7817459h-2.6200981V32.547184c2.6849136,0,2.3057137,0.2719269,2.3057137-1.6770287
			c-0.7946281-0.1850433-1.3566589-0.1047096-2.3057137-0.1047096v-3.9828453c2.5187531,0,3.1262856,0.300848,3.0713654-0.7655907
			c-0.0695724-1.3495903,0.2446861-1.0160866-4.2243729-1.0160866
			C32.2428246,25.0009232,32.0108719,25.0565014,31.8839226,25.1057701"/>
	</g>
	<g>
		<path class="st0" d="M66.0667267,7.2993317c0.796875-0.3144531,1.4267578-0.4716797,1.8876953-0.4716797
			c0.1796875,0,0.2695313,0.0673828,0.2695313,0.2021484c0,0.0673828-0.2421875,0.168457-0.7246094,0.3032227
			c-0.1914063,0.0566406-0.4892578,0.140625-0.8935547,0.2529297c1.0117188,0.6069336,1.5166016,1.449707,1.5166016,2.5283203
			c0,1.2250977-0.6904297,2.230957-2.0732422,3.0175781c-1.0898438,0.6181641-2.3369141,0.9946289-3.7421875,1.1293945
			c-0.6181641,1.7983398-1.5791016,3.230957-2.8823242,4.2983398c-1.3935547,1.1577148-3.0004883,1.7363281-4.8212891,1.7363281
			c-0.8764648,0-1.6240234-0.1796875-2.2416992-0.5395508c-0.7416992-0.4492188-1.112793-1.0786133-1.112793-1.8876953
			c0-0.5620117,0.1743164-1.0366211,0.5224609-1.4243164c0.3486328-0.3876953,0.8037109-0.581543,1.3657227-0.581543
			c0.3706055,0,0.6713867,0.1069336,0.9018555,0.3203125c0.2299805,0.2133789,0.3452148,0.5,0.3452148,0.859375
			c0,0.3935547-0.168457,0.6801758-0.5053711,0.8598633c-0.0449219,0.0224609-0.3598633,0.1176758-0.9438477,0.2866211
			c-0.3374023,0.1010742-0.5058594,0.2529297-0.5058594,0.4550781c0,0.3369141,0.2583008,0.6235352,0.7753906,0.859375
			c0.4267578,0.1914063,0.8369141,0.2866211,1.2304688,0.2866211c1.1572266,0,2.2192383-0.6010742,3.1860352-1.8037109
			c0.6176758-0.7636719,1.2416992-1.8818359,1.8710938-3.3544922c-0.5620117,0.0566406-1.1630859,0.1855469-1.8037109,0.3876953
			c-0.1801758,0.0566406-0.2924805,0.0844727-0.3374023,0.0844727c-0.168457,0-0.2524414-0.0561523-0.2524414-0.168457
			c0-0.168457,0.1513672-0.2978516,0.4550781-0.3876953c0.9213867-0.2700195,1.6630859-0.4384766,2.2250977-0.5058594
			c1.527832-3.2475586,3.4326172-5.394043,5.7148438-6.4389648c-0.7529297-0.3823242-1.8710938-0.5732422-3.3544922-0.5732422
			c-1.4165039,0-2.5571289,0.1518555-3.4223633,0.4550781c-0.9667969,0.3486328-1.9047852,0.9946289-2.8154297,1.9384766
			c-0.9101563,0.9438477-1.3652344,1.8261719-1.3652344,2.6464844c0,0.3710938,0.1069336,0.690918,0.3203125,0.9609375
			c0.2133789,0.2695313,0.5,0.4042969,0.8598633,0.4042969c0.9101563,0,1.690918-0.4042969,2.3427734-1.2133789
			c0.6181641-0.7529297,0.9272461-1.5957031,0.9272461-2.5288086c0-0.2583008-0.1069336-0.3876953-0.3203125-0.3876953
			c-0.2470703,0-0.5058594,0.28125-0.7753906,0.8427734c-0.2021484,0.4272461-0.3369141,0.8149414-0.4042969,1.1635742
			c-0.2700195,0.1235352-0.5566406,0.2919922-0.8598633,0.5053711l-0.809082,0.5732422
			c-0.0229492-0.0786133-0.0449219-0.1625977-0.0673828-0.2529297c0-0.9213867,0.2412109-1.7363281,0.7246094-2.4443359
			c0.5395508-0.809082,1.2475586-1.2133789,2.1240234-1.2133789c0.7753906,0,1.1630859,0.5224609,1.1630859,1.5673828v0.1689453
			c0,1.0112305-0.3286133,1.8959961-0.9858398,2.6547852c-0.6577148,0.7583008-1.4980469,1.1376953-2.5205078,1.1376953
			c-0.6064453,0-1.1069336-0.1708984-1.5-0.5141602c-0.3935547-0.3427734-0.5898438-0.8115234-0.5898438-1.4072266
			c0-0.5170898,0.1738281-1.0732422,0.5224609-1.6689453c0.7304688-1.2475586,1.7807617-2.2304688,3.1523438-2.9501953
			c1.3032227-0.6850586,2.7021484-1.027832,4.1972656-1.027832c0.9101563,0,1.6074219,0.0449219,2.0898438,0.1347656
			C64.7229767,6.687027,65.3694611,6.9287262,66.0667267,7.2993317z M66.3694611,9.2212067
			c0-0.5732422-0.1572266-1.0224609-0.4716797-1.3486328c-0.7197266,0.3598633-1.4160156,1.2250977-2.0898438,2.5957031
			c-0.3486328,0.7197266-0.7705078,1.8037109-1.2646484,3.253418c1.0673828-0.1572266,1.9716797-0.6767578,2.7138672-1.559082
			C65.9983673,11.2802887,66.3694611,10.2998199,66.3694611,9.2212067z"/>
		<path class="st0" d="M68.6116486,14.480484c0,0.7866211-0.4101563,1.472168-1.2304688,2.0566406
			c-0.6523438,0.4716797-1.4277344,0.8032227-2.3261719,0.9941406c-0.1689453,0.4272461-0.2529297,0.7587891-0.2529297,0.9946289
			c0,0.2700195,0.1005859,0.4047852,0.3027344,0.4047852c0.4726563,0,0.9501953-0.2026367,1.4335938-0.6069336
			c0.2128906-0.1796875,0.5732422-0.5561523,1.078125-1.1293945c0.3603516-0.4047852,0.6074219-0.6069336,0.7421875-0.6069336
			c0.0449219,0,0.0673828,0.0283203,0.0673828,0.0844727c0,0.1235352-0.3427734,0.6123047-1.0283203,1.4663086
			c-0.9550781,1.1914063-1.9326172,1.7871094-2.9326172,1.7871094c-0.9443359,0-1.4160156-0.449707-1.4160156-1.3486328
			c0-1.0898438,0.4775391-2.2250977,1.4326172-3.4052734c1.0107422-1.2470703,2.0449219-1.8710938,3.1015625-1.8710938
			C68.2688751,13.3003082,68.6116486,13.6938629,68.6116486,14.480484z M67.9036407,14.3286285
			c0-0.168457-0.0283203-0.3032227-0.0839844-0.4042969c-0.0458984-0.0224609-0.0957031-0.0341797-0.1523438-0.0341797
			c-0.3710938,0-0.8486328,0.4555664-1.4326172,1.3657227c-0.4384766,0.6743164-0.7871094,1.3149414-1.0449219,1.9213867
			c0.6289063-0.1572266,1.2246094-0.5112305,1.7861328-1.0620117
			C67.5940704,15.5200348,67.9036407,14.9243317,67.9036407,14.3286285z"/>
		<path class="st0" d="M73.8880157,14.2275543c0,0.3261719-0.1181641,0.6572266-0.3544922,0.9946289
			c-0.2587891,0.3818359-0.5390625,0.5732422-0.8427734,0.5732422c-0.0566406,0-0.1630859-0.0561523-0.3203125-0.1689453
			c-0.0566406-0.1347656-0.0839844-0.2299805-0.0839844-0.2866211c0-0.2583008,0.1230469-0.5024414,0.3701172-0.7329102
			s0.4951172-0.3232422,0.7421875-0.2783203c0-0.190918-0.1513672-0.2866211-0.4550781-0.2866211
			c-0.5390625,0-1.1796875,0.612793-1.921875,1.8374023c-0.6972656,1.1577148-1.0449219,2.0395508-1.0449219,2.6464844
			c0,0.2700195,0.1005859,0.4047852,0.3037109,0.4047852c0.4716797,0,0.9492188-0.2026367,1.4326172-0.6069336
			c0.2128906-0.1796875,0.5732422-0.5561523,1.0791016-1.1293945c0.359375-0.4047852,0.6064453-0.6069336,0.7412109-0.6069336
			c0.0449219,0,0.0673828,0.0283203,0.0673828,0.0844727c0,0.1235352-0.3427734,0.6123047-1.0283203,1.4663086
			c-0.9550781,1.1914063-1.9326172,1.7871094-2.9326172,1.7871094c-0.9443359,0-1.4160156-0.449707-1.4160156-1.3486328
			c0-0.3144531,0.0898438-0.7416992,0.2695313-1.28125c0.1689453-0.5058594,0.3427734-0.9042969,0.5224609-1.1967773
			c1.1914063-1.8652344,2.4716797-2.7983398,3.84375-2.7983398c0.2578125,0,0.4941406,0.090332,0.7080078,0.2700195
			C73.7805939,13.7500153,73.8880157,13.9692535,73.8880157,14.2275543z"/>
		<path class="st0" d="M84.204422,17.4809723c-0.0458984,0.2358398-0.2763672,0.5874023-0.6914063,1.0532227
			c-0.4160156,0.4667969-0.7529297,0.7670898-1.0117188,0.9018555c-0.359375,0.2026367-0.8261719,0.3037109-1.3994141,0.3037109
			c-0.7636719,0-1.1455078-0.3540039-1.1455078-1.0620117c0-0.2133789,0.2470703-0.8032227,0.7412109-1.7700195
			c0.4941406-0.9663086,0.7421875-1.7363281,0.7421875-2.3095703v-0.21875l-0.0175781,0.0166016
			c-0.0224609-0.190918-0.1064453-0.2866211-0.2529297-0.2866211c-0.1679688,0-0.4658203,0.2192383-0.8925781,0.6577148
			c-0.3154297,0.3144531-0.5791016,0.6123047-0.7929688,0.8930664c-0.1230469,0.1577148-0.3847656,0.753418-0.7832031,1.7871094
			c-0.3994141,1.0336914-0.5986328,1.6347656-0.5986328,1.8037109c0,0.190918,0.140625,0.3540039,0.4208984,0.4887695
			l-2.0556641,0.1347656c-0.0341797-0.0561523-0.0507813-0.1347656-0.0507813-0.2358398
			c0-0.472168,0.2753906-1.2866211,0.8261719-2.4443359c0.5498047-1.1572266,0.8251953-2.0283203,0.8251953-2.612793v-0.2021484
			l-0.0166016,0.0166016c-0.0224609-0.190918-0.1064453-0.2866211-0.2529297-0.2866211
			c-0.3261719,0-0.859375,0.4887695-1.6015625,1.4667969c-0.359375,0.4716797-0.6904297,1.1518555-0.9941406,2.0395508
			c-0.4042969,1.1689453-0.6689453,1.8769531-0.7919922,2.1240234l-2.0908203,0.1347656l1.6523438-3.5229492
			c0.0898438-0.168457,0.2246094-0.418457,0.4042969-0.75s0.2695313-0.5703125,0.2695313-0.7167969
			c0-0.1796875-0.0498047-0.2695313-0.1513672-0.2695313c-0.0449219,0-0.2167969,0.1630859-0.5136719,0.4887695
			c-0.2978516,0.3261719-0.4863281,0.4887695-0.5654297,0.4887695c-0.0107422-0.0107422-0.0332031-0.0224609-0.0673828-0.0336914
			l-0.0166016-0.050293c0.0224609-0.2133789,0.3398438-0.6518555,0.9521484-1.3149414s1.0205078-0.9946289,1.2226563-0.9946289
			c0.5058594,0,0.7578125,0.4326172,0.7578125,1.2978516c0,0.1010742,0.0283203,0.1518555,0.0849609,0.1518555
			c-0.0224609,0,0.2548828-0.1826172,0.8339844-0.5478516s1.0371094-0.5478516,1.3740234-0.5478516
			c0.7636719,0,1.140625,0.3876953,1.1298828,1.1630859c0.3027344-0.2246094,0.6513672-0.4775391,1.0449219-0.7583008
			c0.4492188-0.2700195,0.8476563-0.4047852,1.1962891-0.4047852c0.7421875,0,1.1123047,0.3764648,1.1123047,1.1293945
			c0,0.4833984-0.2353516,1.2050781-0.7070313,2.1660156c-0.4726563,0.9609375-0.7080078,1.4863281-0.7080078,1.5761719
			c0,0.0561523,0.0673828,0.1347656,0.2021484,0.2358398c0.5839844,0,1.1289063-0.2021484,1.6347656-0.6064453
			c0.1572266-0.1235352,0.3984375-0.3261719,0.7246094-0.6069336L84.204422,17.4809723z"/>
		<path class="st0" d="M89.6145782,15.8628082c0,0.1459961-0.1689453,0.2583008-0.5058594,0.3369141
			c-0.28125,0.0673828-0.5166016,0.1010742-0.7080078,0.1010742c-0.1347656,0-0.2636719-0.0107422-0.3876953-0.0336914
			c-0.4492188,0.8427734-0.9833984,1.612793-1.6015625,2.3095703c-0.8427734,0.9550781-1.6015625,1.4326172-2.2753906,1.4326172
			c-0.9326172,0-1.3994141-0.4213867-1.3994141-1.2641602c0-1.0449219,0.5117188-2.2138672,1.5341797-3.5063477
			c1.0791016-1.3369141,2.1240234-2.0058594,3.1357422-2.0058594c0.7978516,0,1.1962891,0.3710938,1.1962891,1.112793
			c0,0.2470703-0.1289063,0.7304688-0.3876953,1.449707c0.1240234,0.0336914,0.2304688,0.050293,0.3203125,0.050293
			s0.2304688-0.0166016,0.421875-0.050293c0.1904297-0.0341797,0.3310547-0.0507813,0.4208984-0.0507813
			C89.5354767,15.7446442,89.6145782,15.7841949,89.6145782,15.8628082z M87.3216095,15.9975739
			c-0.6513672-0.0673828-1.1123047-0.3818359-1.3818359-0.9438477c-0.2021484,0.2358398-0.5,0.7416992-0.8935547,1.5170898
			v-0.0170898c-0.0224609,0.1240234-0.1123047,0.3710938-0.2695313,0.7416992
			c-0.1464844,0.3032227-0.21875,0.5561523-0.21875,0.7587891c0,0.2358398,0.1171875,0.3535156,0.3535156,0.3535156
			C85.6751251,18.4077301,86.4788361,17.6045074,87.3216095,15.9975739z M87.9290314,14.2778473
			c0-0.3930664-0.1523438-0.5898438-0.4550781-0.5898438c-0.2255859,0-0.4726563,0.1069336-0.7421875,0.3203125
			c-0.2695313,0.2138672-0.4042969,0.4326172-0.4042969,0.6577148c0,0.2246094,0.1210938,0.4355469,0.3623047,0.6318359
			c0.2412109,0.1967773,0.4804688,0.2949219,0.7167969,0.2949219c0.0224609,0,0.0498047-0.0053711,0.0839844-0.0166016v-0.0170898
			c0.1123047,0,0.21875-0.1855469,0.3203125-0.5561523C87.8889923,14.6884918,87.9290314,14.4467926,87.9290314,14.2778473z"/>
		<path class="st0" d="M93.9973907,15.0366364c0,0.9438477-0.421875,1.9609375-1.2646484,3.0512695
			c-0.8759766,1.1572266-1.7695313,1.7358398-2.6796875,1.7358398c-0.0898438,0-0.2451172-0.0615234-0.4638672-0.1850586
			s-0.3847656-0.1855469-0.4970703-0.1855469c-0.0673828,0.1235352-0.2587891,0.472168-0.5732422,1.0449219l-1.3818359,2.5117188
			l-1.6523438,0.2192383l3.3876953-6.203125c0.0341797-0.0449219,0.28125-0.449707,0.7421875-1.2138672
			c0.2919922-0.4829102,0.5-0.8989258,0.6240234-1.2475586l-0.1523438-0.1010742
			c-0.4375,0.1347656-0.8261719,0.4550781-1.1630859,0.9609375c-0.3701172,0.5507813-0.5957031,0.8427734-0.6738281,0.8764648
			h-0.0673828c-0.0449219-0.0561523-0.0673828-0.1176758-0.0673828-0.1855469c0-0.4604492,0.3925781-1.0927734,1.1796875-1.8959961
			c0.7861328-0.8037109,1.4101563-1.2055664,1.8710938-1.2055664s0.7363281,0.1240234,0.8261719,0.3710938
			c0.0449219,0.1459961,0.1123047,0.3598633,0.2021484,0.640625c0.0224609,0.0224609,0.0615234,0.0336914,0.1181641,0.0336914
			c0.0898438,0,0.2158203-0.0224609,0.3789063-0.0673828s0.2890625-0.0673828,0.3798828-0.0673828
			C93.6878204,13.9243317,93.9973907,14.2949371,93.9973907,15.0366364z M92.4632111,15.3569489
			c0-0.190918-0.0224609-0.3989258-0.0673828-0.6235352l-0.0166016,0.0166016
			c-0.0117188-0.168457-0.0957031-0.2695313-0.2529297-0.3032227c-0.1796875,0.0786133-0.4042969,0.3652344-0.6748047,0.859375
			c-0.1230469,0.2250977-0.3115234,0.5595703-0.5644531,1.0029297c-0.2529297,0.4443359-0.5136719,0.8852539-0.7832031,1.3232422
			c-0.3037109,0.5170898-0.5341797,0.9667969-0.6914063,1.3486328c0.0449219,0.1464844,0.1455078,0.2192383,0.3037109,0.2192383
			c0.1572266,0,0.3251953-0.0727539,0.5048828-0.2192383v0.0170898c0.5175781-0.4272461,1-0.9780273,1.4501953-1.6518555
			C92.1995392,16.5595856,92.4632111,15.8964996,92.4632111,15.3569489z"/>
		<path class="st0" d="M101.1780548,13.3173981c-0.1679688,0.6518555-0.5791016,1.4775391-1.2304688,2.4780273
			c-0.7080078,1.0898438-1.1572266,1.8935547-1.3486328,2.4101563l0.1523438,0.1010742
			c0.4492188-0.1455078,0.8505859-0.4804688,1.2050781-1.0029297c0.3535156-0.5224609,0.5644531-0.8007813,0.6318359-0.8344727
			h0.0673828c0.0449219,0.0566406,0.0673828,0.1181641,0.0673828,0.1855469c0,0.4609375-0.3935547,1.0932617-1.1796875,1.8964844
			c-0.7871094,0.8037109-1.4101563,1.2050781-1.8710938,1.2050781c-0.3603516,0-0.6074219-0.0898438-0.7421875-0.2695313
			c-0.0332031-0.0449219-0.1289063-0.2919922-0.2861328-0.7416992c-0.3818359,0.6743164-0.9052734,1.0112305-1.5673828,1.0112305
			c-0.3037109,0-0.5683594-0.1289063-0.7929688-0.3876953c-0.2246094-0.2583008-0.3369141-0.5390625-0.3369141-0.8427734
			c0-0.8540039,0.5703125-1.940918,1.7109375-3.2617188c1.140625-1.3203125,2.1269531-1.9804688,2.9580078-1.9804688
			c0.1015625,0,0.2587891,0.0585938,0.4726563,0.1767578c0.2128906,0.1181641,0.3759766,0.1831055,0.4882813,0.1938477
			c0.0673828-0.0336914,0.1074219-0.1123047,0.1181641-0.2358398c0.1240234-0.1010742,0.359375-0.1518555,0.7080078-0.1518555
			C100.7395782,13.2666168,100.9983673,13.2837067,101.1780548,13.3173981z M99.2561798,14.1264801
			c-0.0332031-0.1459961-0.1347656-0.2192383-0.3027344-0.2192383c-0.1582031,0-0.3261719,0.0732422-0.5058594,0.2192383v-0.0170898
			c-0.5507813,0.4609375-1.0791016,1.0620117-1.5849609,1.8037109c-0.5839844,0.8657227-0.8759766,1.590332-0.8759766,2.1748047
			c0,0.2358398,0.0947266,0.3540039,0.2861328,0.3540039c0.2587891,0,0.7978516-0.6347656,1.6181641-1.9047852
			C98.6214142,15.4018707,99.0764923,14.5981598,99.2561798,14.1264801z"/>
		<path class="st0" d="M104.3977814,19.8911285c-0.5507813-0.1010742-0.8935547-0.4042969-1.0283203-0.9101563
			c-0.1347656-0.5053711,0.1572266-1.3144531,0.8759766-2.4272461l-0.0332031-0.1518555
			c-1.3828125,0.0117188-2.28125,1.1801758-2.6972656,3.5063477H99.610672
			c1.0673828-2.6635742,1.6962891-4.230957,1.8876953-4.703125l0.9433594-1.9887695l0.7587891,0.0166016
			c0.5957031,0.0224609,0.9042969,0.0395508,0.9277344,0.0507813l-1.0625,2.6801758h0.1689453
			c1.0898438-0.0112305,1.9160156-0.8764648,2.4775391-2.5961914h1.7529297l0.0351563,0.1518555
			c-0.9902344,1.7758789-1.7207031,3.394043-2.1923828,4.8544922l0.21875,0.1518555h0.1689453
			c0.0332031-0.0224609,0.0673828-0.0449219,0.1005859-0.0673828l-0.0498047,0.8935547
			C105.1507111,19.7675934,104.7005157,19.9472809,104.3977814,19.8911285z M107.3147736,17.2280426v0.7919922
			c-0.5957031,0.5732422-1.1191406,1.0175781-1.5683594,1.3320313l0.0498047-0.8935547
			C106.313797,18.1103668,106.8186798,17.7002106,107.3147736,17.2280426z"/>
		<path class="st0" d="M58.3118439,27.7597809c0,0.1347656-0.1630859,0.2412109-0.4887695,0.3203125
			c-0.2587891,0.0673828-0.4833984,0.1005859-0.6743164,0.1005859c-0.1235352,0-0.2470703-0.0107422-0.3706055-0.0332031
			c-0.4272461,0.8085938-0.9331055,1.5449219-1.5170898,2.2080078c-0.809082,0.9101563-1.5341797,1.3652344-2.1748047,1.3652344
			c-0.8876953,0-1.331543-0.4042969-1.331543-1.2138672c0-0.9882813,0.4887695-2.1015625,1.4663086-3.3378906
			c1.0224609-1.2802734,2.0170898-1.9208984,2.9838867-1.9208984c0.7641602,0,1.1459961,0.3535156,1.1459961,1.0615234
			c0,0.2363281-0.1235352,0.6972656-0.3706055,1.3828125c0.1123047,0.0332031,0.2133789,0.0498047,0.3032227,0.0498047
			s0.2246094-0.0166016,0.4047852-0.0498047c0.1796875-0.0341797,0.3144531-0.0507813,0.4042969-0.0507813
			C58.2386017,27.6416168,58.3118439,27.6806793,58.3118439,27.7597809z M56.0364532,28.1806793
			c-0.6181641-0.0673828-1.0566406-0.3710938-1.3149414-0.9101563c-0.1914063,0.2246094-0.472168,0.7080078-0.8427734,1.4492188
			v-0.0166016c-0.0229492,0.1240234-0.112793,0.3603516-0.2700195,0.7080078
			c-0.1347656,0.2929688-0.2021484,0.5341797-0.2021484,0.7246094c0,0.2255859,0.1123047,0.3378906,0.3374023,0.3378906
			C54.4739532,30.4736481,55.2381134,29.7089996,56.0364532,28.1806793z M55.8675079,25.3144684l-1.449707,0.0849609
			c-0.4492188,0-0.7470703-0.3037109-0.8930664-0.9101563v-0.1347656c0-0.3598633,0.0898438-0.7192383,0.2695313-1.0791016
			l0.9101563,0.0170898c-0.1010742,0.2695313-0.1826172,0.5283203-0.2441406,0.7753906
			c-0.0620117,0.2470703,0.0756836,0.4716797,0.4130859,0.6743164l0.7753906-0.0844727
			c0.3706055,0.0673828,0.8427734,0.3598633,1.4160156,0.8764648l-1.4160156-0.2529297L55.8675079,25.3144684z M56.45784,21.8256989
			v-0.0166016c0.6743164,0.0224609,1.4160156,0.2416992,2.2250977,0.6572266
			c0.2246094,0.1123047,0.859375,0.4887695,1.9047852,1.1293945c0.6625977,0.4047852,1.1577148,0.6069336,1.4838867,0.6069336
			h0.3203125c1.0107422,0,1.9267578-0.2192383,2.7470703-0.6572266c0.4716797-0.2470703,1.2470703-0.8037109,2.3261719-1.6689453
			h0.0673828v0.0166016l0.0507813,0.1010742c-0.0117188,0.3486328-0.4042969,0.8823242-1.1796875,1.6015625
			c-1.4277344,1.3149414-2.8662109,1.9726563-4.3154297,1.9726563c-0.5625,0-1.0063477-0.0566406-1.3320313-0.1689453
			c-0.2475586-0.0791016-0.6572266-0.2861328-1.2304688-0.6235352c-2.3037109-1.3486328-3.6245117-2.0229492-3.9614258-2.0229492
			s-0.6352539,0.2021484-0.8935547,0.6069336l-0.8930664-0.0844727
			C54.3279572,21.9941559,55.2215118,21.5112457,56.45784,21.8256989z M56.7610626,26.3437653
			c0-0.3710938-0.1459961-0.5566406-0.4379883-0.5566406c-0.2138672,0-0.449707,0.1015625-0.7080078,0.3037109
			c-0.2587891,0.2021484-0.3876953,0.4101563-0.3876953,0.6230469c0,0.2138672,0.1147461,0.4160156,0.3452148,0.6074219
			s0.4580078,0.2861328,0.6826172,0.2861328c0.0224609,0,0.0507813-0.0048828,0.0844727-0.0166016V27.574234
			c0.1010742,0,0.2021484-0.1796875,0.3032227-0.5400391C56.7215118,26.7422028,56.7610626,26.511734,56.7610626,26.3437653z"/>
		<path class="st0" d="M61.8694611,25.9726715c-0.0908203,0.2363281-0.2646484,0.5673828-0.5234375,0.9941406l-0.1513672,0.1523438
			c0.0107422,0,0.0166016,0.0058594,0.0166016,0.0166016h0.1523438c0.1230469,0,0.3085938-0.0224609,0.5556641-0.0673828
			s0.4326172-0.0673828,0.5566406-0.0673828c0.2919922,0,0.5283203,0.0810547,0.7080078,0.2441406
			s0.2861328,0.3515625,0.3203125,0.5644531c0.0673828,0.5625-0.0625,1.1611328-0.3876953,1.7958984
			c-0.3261719,0.6347656-0.7646484,1.1376953-1.3154297,1.5087891c-0.7192383,0.4716797-1.590332,0.7080078-2.612793,0.7080078
			c-1.1572266,0-1.78125-0.3876953-1.8710938-1.1640625c-0.0336914-0.2353516,0.5507813-1.3203125,1.753418-3.2529297
			c0.4042969-0.6513672,0.8203125-1.3085938,1.2470703-1.9716797l2.0566406-0.3881836L61.8694611,25.9726715z
			 M61.8694611,27.5908356l-0.0175781,0.0166016c-0.0332031-0.1455078-0.1513672-0.21875-0.3535156-0.21875
			c-0.1464844,0-0.2983398,0.0332031-0.4555664,0.1005859c-0.2358398,0.2587891-0.5620117,0.7753906-0.9775391,1.5507813
			c-0.449707,0.8320313-0.6635742,1.3603516-0.640625,1.5849609c0.0107422,0.0898438,0.0839844,0.1347656,0.2192383,0.1347656
			c0.1572266,0,0.3481445-0.0673828,0.5727539-0.2021484c0.5058594-0.3261719,0.9213867-0.7470703,1.2475586-1.2646484
			c0.3369141-0.5615234,0.4775391-1.078125,0.421875-1.5507813L61.8694611,27.5908356z M64.2962189,28.2988434
			c0.6630859-1.0898438,1.1630859-2.0117188,1.5-2.7646484l1.8378906-0.1513672l-1.4160156,2.3935547
			c-0.1689453,0.2695313-0.4160156,0.6689453-0.7421875,1.1962891c-0.2695313,0.4384766-0.4775391,0.8603516-0.6230469,1.2646484
			l0.1513672,0.1015625c0.4492188-0.1464844,0.8515625-0.4804688,1.2050781-1.0039063
			c0.3544922-0.5224609,0.5654297-0.7998047,0.6328125-0.8339844h0.0673828
			c0.0439453,0.0566406,0.0673828,0.1181641,0.0673828,0.1855469c0,0.4609375-0.3935547,1.0927734-1.1806641,1.8964844
			c-0.7861328,0.8037109-1.4101563,1.2050781-1.8710938,1.2050781c-0.359375,0-0.6064453-0.0898438-0.7412109-0.2695313
			c-0.0341797-0.0449219-0.1298828-0.2919922-0.2871094-0.7421875l0.2197266-0.7412109
			C63.4202423,29.6757965,63.8128204,29.0966949,64.2962189,28.2988434z"/>
		<path class="st0" d="M72.0003204,26.1074371c0,0.3261719-0.1181641,0.6572266-0.3544922,0.9941406
			c-0.2587891,0.3828125-0.5390625,0.5732422-0.8427734,0.5732422c-0.0566406,0-0.1630859-0.0556641-0.3203125-0.1679688
			c-0.0566406-0.1347656-0.0839844-0.2304688-0.0839844-0.2871094c0-0.2578125,0.1230469-0.5029297,0.3701172-0.7333984
			c0.2470703-0.2294922,0.4951172-0.3222656,0.7421875-0.2773438c0-0.1914063-0.1513672-0.2871094-0.4550781-0.2871094
			c-0.5390625,0-1.1796875,0.6123047-1.921875,1.8378906c-0.6972656,1.1572266-1.0449219,2.0390625-1.0449219,2.6464844
			c0,0.2695313,0.1005859,0.4042969,0.3037109,0.4042969c0.4716797,0,0.9492188-0.2021484,1.4326172-0.6074219
			c0.2128906-0.1787109,0.5732422-0.5556641,1.0791016-1.1289063c0.359375-0.4042969,0.6064453-0.6064453,0.7412109-0.6064453
			c0.0449219,0,0.0673828,0.0273438,0.0673828,0.0839844c0,0.1240234-0.3427734,0.6123047-1.0283203,1.4667969
			c-0.9550781,1.1904297-1.9326172,1.7861328-2.9326172,1.7861328c-0.9443359,0-1.4160156-0.4492188-1.4160156-1.3486328
			c0-0.3144531,0.0898438-0.7412109,0.2695313-1.2802734c0.1689453-0.5058594,0.3427734-0.9052734,0.5224609-1.1972656
			c1.1914063-1.8652344,2.4716797-2.7988281,3.84375-2.7988281c0.2578125,0,0.4941406,0.0908203,0.7080078,0.2705078
			C71.8928986,25.6298981,72.0003204,25.8486481,72.0003204,26.1074371z"/>
		<path class="st0" d="M82.3157501,29.3603668c-0.0449219,0.2363281-0.2753906,0.5878906-0.6914063,1.0537109
			c-0.4160156,0.4667969-0.7529297,0.7675781-1.0107422,0.9023438c-0.3603516,0.2021484-0.8261719,0.3027344-1.3994141,0.3027344
			c-0.7646484,0-1.1464844-0.3535156-1.1464844-1.0615234c0-0.2138672,0.2470703-0.8037109,0.7421875-1.7705078
			c0.4941406-0.9658203,0.7412109-1.7353516,0.7412109-2.3085938v-0.2197266l-0.0166016,0.0175781
			c-0.0224609-0.1914063-0.1074219-0.2871094-0.2529297-0.2871094c-0.1689453,0-0.4667969,0.2197266-0.8935547,0.6572266
			c-0.3144531,0.3154297-0.5791016,0.6132813-0.7919922,0.8935547c-0.1240234,0.1572266-0.3847656,0.7529297-0.7841797,1.7871094
			c-0.3984375,1.0341797-0.5986328,1.6347656-0.5986328,1.8037109c0,0.1914063,0.140625,0.3535156,0.421875,0.4882813
			l-2.0566406,0.1347656c-0.0332031-0.0556641-0.0507813-0.1347656-0.0507813-0.2353516
			c0-0.4716797,0.2753906-1.2871094,0.8261719-2.4443359s0.8261719-2.0283203,0.8261719-2.6132813v-0.2021484l-0.0166016,0.0175781
			c-0.0234375-0.1914063-0.1074219-0.2871094-0.2529297-0.2871094c-0.3261719,0-0.8603516,0.4892578-1.6015625,1.4667969
			c-0.359375,0.4716797-0.6914063,1.1523438-0.9941406,2.0390625c-0.4052734,1.1689453-0.6689453,1.8769531-0.7929688,2.1240234
			l-2.0898438,0.1347656l1.6513672-3.5224609c0.0898438-0.1689453,0.2246094-0.4189453,0.4052734-0.75
			c0.1796875-0.3320313,0.2695313-0.5703125,0.2695313-0.7167969c0-0.1796875-0.0507813-0.2695313-0.1513672-0.2695313
			c-0.0458984,0-0.2167969,0.1630859-0.5146484,0.4892578c-0.2978516,0.3251953-0.4863281,0.4882813-0.5644531,0.4882813
			c-0.0117188-0.0107422-0.0341797-0.0224609-0.0673828-0.0332031l-0.0166016-0.0507813
			c0.0214844-0.2138672,0.3388672-0.6513672,0.9521484-1.3154297c0.6123047-0.6630859,1.0195313-0.9941406,1.2216797-0.9941406
			c0.5058594,0,0.7587891,0.4326172,0.7587891,1.2978516c0,0.1015625,0.0283203,0.1513672,0.0839844,0.1513672
			c-0.0224609,0,0.2558594-0.1816406,0.8349609-0.546875c0.578125-0.3662109,1.0361328-0.5478516,1.3730469-0.5478516
			c0.7646484,0,1.140625,0.3876953,1.1298828,1.1630859c0.3037109-0.2255859,0.6513672-0.4775391,1.0449219-0.7587891
			c0.4492188-0.2695313,0.8486328-0.4042969,1.1972656-0.4042969c0.7412109,0,1.1123047,0.3759766,1.1123047,1.1289063
			c0,0.4833984-0.2363281,1.2050781-0.7080078,2.1660156s-0.7080078,1.4863281-0.7080078,1.5761719
			c0,0.0566406,0.0673828,0.1347656,0.2021484,0.2363281c0.5839844,0,1.1298828-0.2021484,1.6357422-0.6074219
			c0.1572266-0.1230469,0.3984375-0.3251953,0.7246094-0.6064453L82.3157501,29.3603668z"/>
		<path class="st0" d="M86.9514923,26.9170074c0,0.9433594-0.421875,1.9609375-1.2646484,3.0507813
			c-0.8759766,1.1572266-1.7695313,1.7363281-2.6796875,1.7363281c-0.0898438,0-0.2451172-0.0615234-0.4638672-0.1855469
			s-0.3847656-0.1855469-0.4970703-0.1855469c-0.0673828,0.1240234-0.2587891,0.4716797-0.5732422,1.0449219l-1.3818359,2.5117188
			l-1.6523438,0.21875l3.3876953-6.203125c0.0341797-0.0449219,0.28125-0.4492188,0.7421875-1.2128906
			c0.2919922-0.4833984,0.5-0.8994141,0.6240234-1.2480469l-0.1523438-0.1005859
			c-0.4375,0.1347656-0.8261719,0.4550781-1.1630859,0.9609375c-0.3701172,0.5498047-0.5957031,0.8427734-0.6738281,0.8759766
			h-0.0673828c-0.0449219-0.0556641-0.0673828-0.1181641-0.0673828-0.1855469c0-0.4599609,0.3925781-1.0927734,1.1796875-1.8964844
			c0.7861328-0.8037109,1.4101563-1.2050781,1.8710938-1.2050781s0.7363281,0.1240234,0.8261719,0.3710938
			c0.0449219,0.1455078,0.1123047,0.3603516,0.2021484,0.640625c0.0224609,0.0224609,0.0615234,0.0332031,0.1181641,0.0332031
			c0.0898438,0,0.2158203-0.0224609,0.3789063-0.0673828s0.2890625-0.0673828,0.3798828-0.0673828
			C86.641922,25.8037262,86.9514923,26.1748199,86.9514923,26.9170074z M85.4173126,27.2363434
			c0-0.1904297-0.0224609-0.3984375-0.0673828-0.6230469l-0.0166016,0.0166016
			c-0.0117188-0.1689453-0.0957031-0.2695313-0.2529297-0.3037109c-0.1796875,0.0791016-0.4042969,0.3652344-0.6748047,0.8603516
			c-0.1230469,0.2246094-0.3115234,0.5585938-0.5644531,1.0029297c-0.2529297,0.4433594-0.5136719,0.8847656-0.7832031,1.3232422
			c-0.3037109,0.5166016-0.5341797,0.9667969-0.6914063,1.3486328c0.0449219,0.1455078,0.1455078,0.21875,0.3037109,0.21875
			c0.1572266,0,0.3251953-0.0732422,0.5048828-0.21875v0.0166016c0.5175781-0.4267578,1-0.9775391,1.4501953-1.6523438
			C85.1536407,28.4394684,85.4173126,27.7763824,85.4173126,27.2363434z"/>
		<path class="st0" d="M93.3391876,27.7422028c0,0.1464844-0.1679688,0.2587891-0.5048828,0.3378906
			c-0.28125,0.0673828-0.5175781,0.1005859-0.7080078,0.1005859c-0.1347656,0-0.2646484-0.0107422-0.3876953-0.0332031
			c-0.4501953,0.8427734-0.9833984,1.6123047-1.6015625,2.3085938c-0.8427734,0.9560547-1.6015625,1.4335938-2.2753906,1.4335938
			c-0.9335938,0-1.3994141-0.421875-1.3994141-1.2646484c0-1.0449219,0.5107422-2.2138672,1.5341797-3.5058594
			c1.078125-1.3378906,2.1240234-2.0058594,3.1347656-2.0058594c0.7978516,0,1.1972656,0.3710938,1.1972656,1.1123047
			c0,0.2470703-0.1298828,0.7304688-0.3876953,1.4492188c0.1230469,0.0341797,0.2294922,0.0507813,0.3203125,0.0507813
			c0.0898438,0,0.2294922-0.0166016,0.4208984-0.0507813c0.1914063-0.0332031,0.3320313-0.0507813,0.421875-0.0507813
			C93.2610626,27.6240387,93.3391876,27.6640778,93.3391876,27.7422028z M91.0471954,27.8769684
			c-0.6523438-0.0673828-1.1123047-0.3818359-1.3828125-0.9433594c-0.2021484,0.2353516-0.5,0.7412109-0.8925781,1.5166016
			V28.433609c-0.0234375,0.1240234-0.1132813,0.3710938-0.2705078,0.7421875
			c-0.1455078,0.3027344-0.21875,0.5556641-0.21875,0.7578125c0,0.2363281,0.1181641,0.3544922,0.3544922,0.3544922
			C89.4007111,30.2881012,90.204422,29.4843903,91.0471954,27.8769684z M91.6536407,26.1582184
			c0-0.3935547-0.1513672-0.5898438-0.4550781-0.5898438c-0.2246094,0-0.4716797,0.1064453-0.7412109,0.3203125
			c-0.2695313,0.2128906-0.4052734,0.4326172-0.4052734,0.6572266s0.1210938,0.4355469,0.3632813,0.6318359
			c0.2412109,0.1972656,0.4804688,0.2949219,0.7158203,0.2949219c0.0224609,0,0.0507813-0.0058594,0.0849609-0.0166016v-0.0166016
			c0.1113281,0,0.21875-0.1855469,0.3193359-0.5566406C91.6145782,26.5683746,91.6536407,26.3261871,91.6536407,26.1582184z"/>
		<path class="st0" d="M93.4241486,29.7988434c-0.28125,1.3261719,0.7021484,1.2255859,2.9501953-0.3037109v0.6074219
			c-1.6865234,1.1240234-2.8320313,1.6855469-3.4394531,1.6855469c-1.0791016,0-1.6181641-0.4101563-1.6181641-1.2304688v-0.1513672
			c0-0.2929688,0.1748047-0.6748047,0.5224609-1.1464844l2.4609375-0.3037109
			C94.0305939,29.2256012,93.7386017,29.5068512,93.4241486,29.7988434z M94.3850861,26.7138824
			c0.6845703-1.1005859,0.0673828-1.0732422-1.8544922,0.0849609v-0.6914063h0.0507813
			c0.6630859-0.71875,1.5058594-1.0791016,2.5283203-1.0791016c0.8427734,0,1.2646484,0.3369141,1.2646484,1.0117188
			c0,0.5732422-0.6914063,1.5449219-2.0742188,2.9160156l-2.4609375,0.3037109
			C92.3333282,28.5849762,93.1819611,27.7373199,94.3850861,26.7138824z"/>
		<path class="st0" d="M102.8636017,27.7422028c0,0.1464844-0.1689453,0.2587891-0.5058594,0.3378906
			c-0.28125,0.0673828-0.5166016,0.1005859-0.7080078,0.1005859c-0.1347656,0-0.2636719-0.0107422-0.3876953-0.0332031
			c-0.4492188,0.8427734-0.9833984,1.6123047-1.6015625,2.3085938c-0.8427734,0.9560547-1.6015625,1.4335938-2.2753906,1.4335938
			c-0.9326172,0-1.3994141-0.421875-1.3994141-1.2646484c0-1.0449219,0.5117188-2.2138672,1.5341797-3.5058594
			c1.0791016-1.3378906,2.1240234-2.0058594,3.1357422-2.0058594c0.7978516,0,1.1962891,0.3710938,1.1962891,1.1123047
			c0,0.2470703-0.1289063,0.7304688-0.3876953,1.4492188c0.1240234,0.0341797,0.2304688,0.0507813,0.3203125,0.0507813
			s0.2304688-0.0166016,0.421875-0.0507813c0.1904297-0.0332031,0.3310547-0.0507813,0.4208984-0.0507813
			C102.7845001,27.6240387,102.8636017,27.6640778,102.8636017,27.7422028z M100.5706329,27.8769684
			c-0.6513672-0.0673828-1.1123047-0.3818359-1.3818359-0.9433594c-0.2021484,0.2353516-0.5,0.7412109-0.8935547,1.5166016
			V28.433609c-0.0224609,0.1240234-0.1123047,0.3710938-0.2695313,0.7421875
			c-0.1464844,0.3027344-0.21875,0.5556641-0.21875,0.7578125c0,0.2363281,0.1171875,0.3544922,0.3535156,0.3544922
			C98.9241486,30.2881012,99.7278595,29.4843903,100.5706329,27.8769684z M101.1780548,26.1582184
			c0-0.3935547-0.1523438-0.5898438-0.4550781-0.5898438c-0.2255859,0-0.4726563,0.1064453-0.7421875,0.3203125
			c-0.2695313,0.2128906-0.4042969,0.4326172-0.4042969,0.6572266s0.1210938,0.4355469,0.3623047,0.6318359
			c0.2412109,0.1972656,0.4804688,0.2949219,0.7167969,0.2949219c0.0224609,0,0.0498047-0.0058594,0.0839844-0.0166016v-0.0166016
			c0.1123047,0,0.21875-0.1855469,0.3203125-0.5566406C101.1380157,26.5683746,101.1780548,26.3261871,101.1780548,26.1582184z"/>
		<path class="st0" d="M59.6941681,41.2236481c-0.0336914,0.2470703-0.2612305,0.6044922-0.6826172,1.0703125
			c-0.4213867,0.4667969-0.7617188,0.7675781-1.0200195,0.9023438c-0.3598633,0.2021484-0.8256836,0.3027344-1.3989258,0.3027344
			c-0.7641602,0-1.1464844-0.3535156-1.1464844-1.0615234c0-0.2138672,0.2470703-0.8037109,0.7416992-1.7705078
			c0.4946289-0.9658203,0.7416992-1.7353516,0.7416992-2.3085938v-0.2197266l-0.0166016,0.0175781
			c-0.0229492-0.1914063-0.1069336-0.2871094-0.2529297-0.2871094l-0.0336914-0.0332031
			c-0.168457,0.0107422-0.449707,0.2246094-0.8427734,0.640625c-0.3261719,0.3369141-0.5678711,0.6230469-0.7250977,0.859375
			c-0.3032227,0.4492188-0.6235352,1.1347656-0.9604492,2.0566406c-0.3935547,1.078125-0.6689453,1.78125-0.8261719,2.1064453
			l-2.090332,0.1347656l1.6518555-3.5224609c0.0898438-0.1689453,0.2246094-0.4189453,0.4047852-0.75
			c0.1796875-0.3320313,0.2695313-0.5703125,0.2695313-0.7167969c0-0.1796875-0.050293-0.2695313-0.1513672-0.2695313
			c-0.0454102,0-0.2167969,0.1630859-0.5141602,0.4892578c-0.2978516,0.3251953-0.4863281,0.4882813-0.5649414,0.4882813
			c-0.0112305-0.0107422-0.0336914-0.0224609-0.0673828-0.0332031l-0.0166016-0.0507813
			c0.0219727-0.2138672,0.3393555-0.6513672,0.9521484-1.3154297c0.6123047-0.6621094,1.0200195-0.9941406,1.222168-0.9941406
			c0.5058594,0,0.7583008,0.4326172,0.7583008,1.2978516c0,0.1015625,0.0283203,0.1513672,0.0844727,0.1513672
			c-0.0224609,0,0.2553711-0.1816406,0.8344727-0.546875c0.5786133-0.3652344,1.0366211-0.5478516,1.3735352-0.5478516
			c0.7416992,0,1.112793,0.3759766,1.112793,1.1289063c0,0.4833984-0.2358398,1.2050781-0.7080078,2.1660156
			s-0.7080078,1.4863281-0.7080078,1.5761719c0,0.0566406,0.0673828,0.1347656,0.2021484,0.2363281
			c0.5844727,0,1.1293945-0.2021484,1.6352539-0.6074219c0.1572266-0.1347656,0.3989258-0.3369141,0.7250977-0.6064453
			L59.6941681,41.2236481z"/>
		<path class="st0" d="M59.2898712,43.5166168c-0.3037109,0-0.5678711-0.1298828-0.7924805-0.3876953
			c-0.2246094-0.2587891-0.3369141-0.5400391-0.3369141-0.8427734c0-0.2246094,0.0561523-0.4609375,0.168457-0.7080078
			l1.9550781-4.3154297l1.9389648-0.1523438c-0.4492188,0.5957031-0.8876953,1.3037109-1.3149414,2.1240234
			c-0.5170898,1.0009766-0.7753906,1.7646484-0.7753906,2.2929688c0,0.1347656,0.027832,0.2695313,0.0839844,0.4042969
			c0.0673828,0.1796875,0.1572266,0.2695313,0.2700195,0.2695313c0.1347656,0,0.3310547-0.1455078,0.5898438-0.4384766
			l-0.2192383,0.7421875C60.4749298,43.1787262,59.9524689,43.5166168,59.2898712,43.5166168z M62.2571564,40.027359
			c0.6621094-1.0898438,1.1630859-2.0117188,1.5-2.7646484l1.8369141-0.1523438l-1.4160156,2.3935547
			c-0.1679688,0.2705078-0.4160156,0.6689453-0.7412109,1.1972656c-0.2695313,0.4384766-0.4775391,0.859375-0.6240234,1.2646484
			l0.1513672,0.1005859c0.4501953-0.1455078,0.8515625-0.4804688,1.2060547-1.0029297
			c0.3535156-0.5224609,0.5644531-0.8007813,0.6318359-0.8339844h0.0673828
			c0.0449219,0.0556641,0.0673828,0.1181641,0.0673828,0.1855469c0,0.4609375-0.3935547,1.0927734-1.1796875,1.8955078
			c-0.7871094,0.8037109-1.4111328,1.2060547-1.8710938,1.2060547c-0.3603516,0-0.6074219-0.0898438-0.7421875-0.2705078
			c-0.0336914-0.0439453-0.1293945-0.2919922-0.2866211-0.7412109l0.2192383-0.7421875
			C61.3802032,41.4033356,61.7737579,40.8252106,62.2571564,40.027359z"/>
		<path class="st0" d="M75.3714142,41.2402496c-0.0458984,0.2363281-0.2763672,0.5878906-0.6914063,1.0537109
			c-0.4160156,0.4667969-0.7529297,0.7675781-1.0117188,0.9023438c-0.359375,0.2021484-0.8261719,0.3027344-1.3994141,0.3027344
			c-0.7636719,0-1.1455078-0.3535156-1.1455078-1.0615234c0-0.2138672,0.2470703-0.8037109,0.7412109-1.7705078
			c0.4941406-0.9658203,0.7421875-1.7353516,0.7421875-2.3085938v-0.2197266l-0.0175781,0.0175781
			c-0.0224609-0.1914063-0.1064453-0.2871094-0.2529297-0.2871094c-0.1679688,0-0.4658203,0.2197266-0.8925781,0.6572266
			c-0.3154297,0.3154297-0.5791016,0.6132813-0.7929688,0.8935547c-0.1230469,0.1572266-0.3847656,0.7529297-0.7832031,1.7871094
			c-0.3994141,1.0341797-0.5986328,1.6347656-0.5986328,1.8037109c0,0.1914063,0.140625,0.3535156,0.4208984,0.4882813
			l-2.0556641,0.1347656c-0.0341797-0.0556641-0.0507813-0.1347656-0.0507813-0.2353516
			c0-0.4716797,0.2753906-1.2871094,0.8261719-2.4443359c0.5498047-1.1572266,0.8251953-2.0283203,0.8251953-2.6132813v-0.2021484
			l-0.0166016,0.0175781c-0.0224609-0.1914063-0.1064453-0.2871094-0.2529297-0.2871094
			c-0.3261719,0-0.859375,0.4892578-1.6015625,1.4667969c-0.359375,0.4716797-0.6904297,1.1523438-0.9941406,2.0390625
			c-0.4042969,1.1689453-0.6689453,1.8769531-0.7919922,2.1240234l-2.0908203,0.1347656l1.6523438-3.5224609
			c0.0898438-0.1689453,0.2246094-0.4189453,0.4042969-0.75c0.1796875-0.3320313,0.2695313-0.5703125,0.2695313-0.7167969
			c0-0.1796875-0.0498047-0.2695313-0.1513672-0.2695313c-0.0449219,0-0.2167969,0.1630859-0.5136719,0.4892578
			c-0.2978516,0.3251953-0.4863281,0.4882813-0.5654297,0.4882813c-0.0107422-0.0107422-0.0332031-0.0224609-0.0673828-0.0332031
			l-0.0166016-0.0507813c0.0224609-0.2138672,0.3398438-0.6513672,0.9521484-1.3154297
			c0.6123047-0.6621094,1.0205078-0.9941406,1.2226563-0.9941406c0.5058594,0,0.7578125,0.4326172,0.7578125,1.2978516
			c0,0.1015625,0.0283203,0.1513672,0.0849609,0.1513672c-0.0224609,0,0.2548828-0.1816406,0.8339844-0.546875
			s1.0371094-0.5478516,1.3740234-0.5478516c0.7636719,0,1.140625,0.3876953,1.1298828,1.1630859
			c0.3027344-0.2255859,0.6513672-0.4775391,1.0449219-0.7587891c0.4492188-0.2695313,0.8476563-0.4042969,1.1962891-0.4042969
			c0.7421875,0,1.1123047,0.3759766,1.1123047,1.1289063c0,0.4833984-0.2353516,1.2050781-0.7070313,2.1660156
			c-0.4726563,0.9609375-0.7080078,1.4863281-0.7080078,1.5761719c0,0.0566406,0.0673828,0.1347656,0.2021484,0.2363281
			c0.5839844,0,1.1289063-0.2021484,1.6347656-0.6074219c0.1572266-0.1230469,0.3984375-0.3251953,0.7246094-0.6064453
			L75.3714142,41.2402496z"/>
		<path class="st0" d="M81.5745392,37.0771637c-0.1689453,0.6513672-0.5791016,1.4775391-1.2304688,2.4775391
			c-0.7080078,1.0908203-1.1582031,1.8935547-1.3486328,2.4111328l0.1513672,0.1005859
			c0.4492188-0.1455078,0.8515625-0.4804688,1.2050781-1.0029297c0.3544922-0.5224609,0.5654297-0.8007813,0.6328125-0.8339844
			h0.0673828c0.0439453,0.0556641,0.0673828,0.1181641,0.0673828,0.1855469c0,0.4609375-0.3935547,1.0927734-1.1806641,1.8955078
			c-0.7861328,0.8037109-1.4101563,1.2060547-1.8710938,1.2060547c-0.359375,0-0.6064453-0.0898438-0.7412109-0.2705078
			c-0.0341797-0.0439453-0.1298828-0.2919922-0.2871094-0.7412109c-0.3818359,0.6738281-0.9042969,1.0117188-1.5673828,1.0117188
			c-0.3037109,0-0.5673828-0.1298828-0.7919922-0.3876953c-0.2246094-0.2587891-0.3369141-0.5400391-0.3369141-0.8427734
			c0-0.8544922,0.5703125-1.9414063,1.7109375-3.2617188c1.1396484-1.3212891,2.1259766-1.9814453,2.9580078-1.9814453
			c0.1015625,0,0.2587891,0.0595703,0.4716797,0.1777344c0.2138672,0.1171875,0.3769531,0.1826172,0.4892578,0.1933594
			c0.0673828-0.0332031,0.1064453-0.1123047,0.1181641-0.2363281c0.1230469-0.1005859,0.359375-0.1513672,0.7080078-0.1513672
			C81.1360626,37.0263824,81.3938751,37.042984,81.5745392,37.0771637z M79.6526642,37.8857574
			c-0.0341797-0.1455078-0.1347656-0.21875-0.3037109-0.21875c-0.1572266,0-0.3261719,0.0732422-0.5058594,0.21875v-0.0166016
			c-0.5507813,0.4609375-1.078125,1.0625-1.5839844,1.8037109c-0.5849609,0.8652344-0.8769531,1.5908203-0.8769531,2.1748047
			c0,0.2353516,0.0957031,0.3535156,0.2871094,0.3535156c0.2578125,0,0.7978516-0.6347656,1.6181641-1.9042969
			C79.0178986,39.1621246,79.4729767,38.3584137,79.6526642,37.8857574z"/>
		<path class="st0" d="M84.7932892,43.6513824c-0.5507813-0.1015625-0.8935547-0.4052734-1.0283203-0.9101563
			c-0.1347656-0.5058594,0.1572266-1.3154297,0.8769531-2.4277344l-0.0341797-0.1513672
			c-1.3818359,0.0107422-2.28125,1.1796875-2.6962891,3.5058594h-1.9052734
			c1.0673828-2.6630859,1.6962891-4.2314453,1.8876953-4.703125l0.9443359-1.9892578l0.7587891,0.0175781
			c0.5947266,0.0224609,0.9042969,0.0390625,0.9267578,0.0498047l-1.0615234,2.6806641h0.1679688
			c1.0898438-0.0107422,1.9160156-0.8769531,2.4785156-2.5957031h1.7529297l0.0332031,0.1513672
			c-0.9882813,1.7753906-1.71875,3.3935547-2.1914063,4.8544922l0.2197266,0.1523438h0.1679688
			c0.0341797-0.0224609,0.0673828-0.0449219,0.1015625-0.0673828l-0.0507813,0.8925781
			C85.5462189,43.527359,85.0970001,43.7070465,84.7932892,43.6513824z M87.7093048,40.9873199v0.7929688
			c-0.5957031,0.5732422-1.1181641,1.0166016-1.5673828,1.3310547l0.0507813-0.8925781
			C86.7093048,41.8701324,87.2151642,41.4599762,87.7093048,40.9873199z"/>
		<path class="st0" d="M88.4680939,43.5166168c-0.3037109,0-0.5673828-0.1298828-0.7919922-0.3876953
			c-0.2246094-0.2587891-0.3369141-0.5400391-0.3369141-0.8427734c0-0.2246094,0.0556641-0.4609375,0.1679688-0.7080078
			l1.9550781-4.3154297l1.9384766-0.1523438c-0.4492188,0.5957031-0.8876953,1.3037109-1.3144531,2.1240234
			c-0.5166016,1.0009766-0.7753906,1.7646484-0.7753906,2.2929688c0,0.1347656,0.0283203,0.2695313,0.0839844,0.4042969
			c0.0673828,0.1796875,0.1572266,0.2695313,0.2705078,0.2695313c0.1347656,0,0.3310547-0.1455078,0.5898438-0.4384766
			l-0.2197266,0.7421875C89.6536407,43.1787262,89.1311798,43.5166168,88.4680939,43.5166168z M91.4348907,40.027359
			c0.6630859-1.0898438,1.1630859-2.0117188,1.5-2.7646484l1.8378906-0.1523438l-1.4160156,2.3935547
			c-0.1689453,0.2705078-0.4160156,0.6689453-0.7421875,1.1972656c-0.2695313,0.4384766-0.4775391,0.859375-0.6230469,1.2646484
			l0.1513672,0.1005859c0.4492188-0.1455078,0.8515625-0.4804688,1.2050781-1.0029297
			c0.3544922-0.5224609,0.5644531-0.8007813,0.6318359-0.8339844h0.0683594
			c0.0439453,0.0556641,0.0673828,0.1181641,0.0673828,0.1855469c0,0.4609375-0.3935547,1.0927734-1.1806641,1.8955078
			c-0.7861328,0.8037109-1.4101563,1.2060547-1.8710938,1.2060547c-0.359375,0-0.6064453-0.0898438-0.7412109-0.2705078
			c-0.0341797-0.0439453-0.1298828-0.2919922-0.2871094-0.7412109l0.2197266-0.7421875
			C90.5579376,41.4033356,90.9514923,40.8252106,91.4348907,40.027359z"/>
		<path class="st0" d="M94.2503204,43.3984528c-0.3935547-0.359375-0.5898438-0.7646484-0.5898438-1.2138672
			c0-0.2695313,0.0869141-0.4941406,0.2607422-0.6738281c0.1748047-0.1796875,0.3964844-0.2705078,0.6660156-0.2705078
			c0.5058594,0,0.7587891,0.2646484,0.7587891,0.7929688c0,0.1796875-0.0644531,0.3457031-0.1943359,0.4970703
			c-0.1289063,0.1513672-0.2832031,0.2275391-0.4628906,0.2275391c-0.1123047,0-0.2080078-0.0107422-0.2871094-0.0341797
			c0.2021484,0.2255859,0.4384766,0.3378906,0.7080078,0.3378906c0.2587891,0,0.7021484-0.4550781,1.3320313-1.3662109
			l0.21875,1.0791016C96.0764923,43.6963043,95.2727814,43.9043121,94.2503204,43.3984528z M97.5540314,38.6113434
			c-0.3486328,1.5839844,0.4384766,1.5839844,2.3603516,0l-0.2705078,0.7753906
			c-1.1796875,1.0673828-2.0732422,1.6005859-2.6796875,1.6005859c-0.9326172-0.0332031-1.4726563-0.4433594-1.6181641-1.2304688
			V39.605484c0-0.2919922,0.3037109-0.7246094,0.9101563-1.2978516l1.8369141-0.4384766
			C97.8684845,38.1504059,97.688797,38.3974762,97.5540314,38.6113434z M97.7903595,40.2968903
			c0.7304688-1.1347656,1.1855469-1.9384766,1.3652344-2.4111328c-0.0341797-0.1455078-0.1347656-0.21875-0.3037109-0.21875
			c-0.1572266,0-0.3261719,0.0732422-0.5058594,0.21875v-0.0166016c-0.4609375,0.3818359-0.9101563,0.8710938-1.3486328,1.4667969
			l-0.8251953-0.9775391c0.8876953-0.8769531,1.6689453-1.3154297,2.3427734-1.3154297
			c0.1015625,0,0.2587891,0.0595703,0.4716797,0.1777344c0.2138672,0.1171875,0.3769531,0.1826172,0.4892578,0.1933594
			c0.0673828-0.0332031,0.1064453-0.1123047,0.1181641-0.2363281c0.1230469-0.1005859,0.359375-0.1513672,0.7080078-0.1513672
			c0.3369141,0,0.5947266,0.0166016,0.7753906,0.0507813c-0.1689453,0.6513672-0.5791016,1.4775391-1.2304688,2.4775391
			c-0.7080078,1.0908203-1.1582031,1.8935547-1.3486328,2.4111328l0.1513672,0.1005859
			c0.4492188-0.1455078,0.8515625-0.4804688,1.2050781-1.0029297c0.3544922-0.5224609,0.5654297-0.8007813,0.6328125-0.8339844
			h0.0673828c0.0439453,0.0556641,0.0673828,0.1181641,0.0673828,0.1855469c0,0.4609375-0.3935547,1.0927734-1.1806641,1.8955078
			c-0.7861328,0.8037109-1.4101563,1.2060547-1.8710938,1.2060547c-0.359375,0-0.6064453-0.0898438-0.7412109-0.2705078
			c-0.0341797-0.0439453-0.1015625-0.1845703-0.2021484-0.4208984c-0.0117188,0.0117188-0.0224609,0.0224609-0.0341797,0.0332031
			l-0.2021484-1.1455078C96.8177032,41.3984528,97.2845001,40.9257965,97.7903595,40.2968903z"/>
	</g>
</g>
</svg>
