<svg xmlns="http://www.w3.org/2000/svg" width="200" height="155" fill="none"><path fill="url(#a)" d="M163.4 55.8h-5l-6 36.4h5.2l.6-3.7h5.4l.6 3.7h5.2l-6-36.4ZM159 83.4l1.8-11.3 1.8 11.3H159Z"/><path fill="url(#b)" d="M170 55.8h15.5v5.1h-5.1v39.301h-5.2v-39.3H170v-5.1Z"/><path fill="url(#c)" d="M169.5 95.1h-17.3v5.2h17.3v-5.2Z"/><path fill="url(#d)" d="M128.7 55.8H133.9v.1l7.1 25.7V55.8h5.2v44.401H141l-7.1-25.7v25.7h-5.2v-44.4Z"/><path fill="url(#e)" d="M122.2 55.8H117v44.501h5.2v-44.5Z"/><path fill="url(#f)" d="M62 55.8H68.3l6.8 30.8 6.7-30.8H88.1v44.401h-5.2v-26l-5.7 26h-4.3l-5.7-26v26H62v-44.4Z"/><path fill="url(#g)" d="M55.4 95.1H38.1v5.2h17.3v-5.2Z"/><path fill="url(#h)" d="M14.5 55.8h5.2v13.6l8.5-13.6H34L22.9 73.6l10.9 26.801H28l-8.3-20.3v20.1h-5.2v-44.4Z"/><path fill="url(#i)" d="M186.2 41H0v74.3h199.9V41h-13.7Zm9.2 69.7H4.6V45.6h190.8v65.1Z"/><path fill="url(#j)" d="m19.7 80.1 8.3 20.301h5.8l-10.9-26.8L34 55.8h-5.8l-8.5 13.6V55.8h-5.2v44.4h5.2v-20.1Z"/><path fill="url(#k)" d="m67.2 74.2 5.7 26.001h4.3l5.7-26v26h5.2v-44.4H81.8l-6.7 30.8-6.8-30.8H62v44.4h5.2v-26Z"/><path fill="url(#l)" d="M108 77c1.5-1.6 2.3-3.7 2.3-5.9v-6.9c0-4.6-3.7-8.4-8.3-8.4h-8.4v44.501h9c4.6 0 8.4-3.7 8.4-8.4v-8.2c-.1-2.5-1.1-5-3-6.7Zm-9.2-16h3.1c1.7 0 3.1 1.4 3.1 3.1v7c0 1.7-1.2 3.2-2.9 3.6h-3.4V61h.1Zm7 30.9c0 1.7-1.4 3.1-3.1 3.1h-3.8V80.1h2.5c.4 0 .7 0 1.1-.1 1.9.2 3.3 1.8 3.3 3.7v8.2Z"/><path fill="url(#m)" d="M122.2 55.8H117v44.501h5.2v-44.5Z"/><path fill="url(#n)" d="M169.5 95.1h-17.3v5.2h17.3v-5.2Z"/><path fill="url(#o)" d="M55.4 95.1H38.1v5.2h17.3v-5.2Z"/><path fill="url(#p)" d="M175.2 100.201h5.2v-39.3h5.1v-5.1H170v5.1h5.2v39.3Z"/><path fill="url(#q)" d="M128.7 100.201h5.2v-25.7l7.1 25.7h5.2v-44.4H141v25.8l-7.1-25.7v-.1H128.7v44.4Z"/><path fill="url(#r)" d="M47.6 55.8H46c-4.3 0-7.7 3.4-7.7 7.7v21.4c0 4.3 3.4 7.7 7.7 7.7h1.6c4.3 0 7.7-3.4 7.7-7.7V63.5c0-4.3-3.4-7.7-7.7-7.7Zm2.5 29.1c0 1.4-1.1 2.5-2.5 2.5H46c-1.4 0-2.4-1.1-2.4-2.5V63.5c0-1.4 1.1-2.5 2.5-2.5h1.6c1.4 0 2.5 1.1 2.5 2.5l-.1 21.4Z"/><defs><linearGradient id="a" x1="-.451" x2="198.069" y1="73.998" y2="73.998" gradientUnits="userSpaceOnUse"><stop stop-color="#1C8AE2"/><stop offset=".486" stop-color="#8B00B3"/><stop offset="1" stop-color="#6900B5"/></linearGradient><linearGradient id="b" x1="-.452" x2="198.069" y1="78.011" y2="78.011" gradientUnits="userSpaceOnUse"><stop stop-color="#1C8AE2"/><stop offset=".486" stop-color="#8B00B3"/><stop offset="1" stop-color="#6900B5"/></linearGradient><linearGradient id="c" x1="-.451" x2="198.069" y1="97.669" y2="97.669" gradientUnits="userSpaceOnUse"><stop stop-color="#1C8AE2"/><stop offset=".486" stop-color="#8B00B3"/><stop offset="1" stop-color="#6900B5"/></linearGradient><linearGradient id="d" x1="-.452" x2="198.069" y1="78.011" y2="78.011" gradientUnits="userSpaceOnUse"><stop stop-color="#1C8AE2"/><stop offset=".486" stop-color="#8B00B3"/><stop offset="1" stop-color="#6900B5"/></linearGradient><linearGradient id="e" x1="-.453" x2="198.07" y1="78.011" y2="78.011" gradientUnits="userSpaceOnUse"><stop stop-color="#1C8AE2"/><stop offset=".486" stop-color="#8B00B3"/><stop offset="1" stop-color="#6900B5"/></linearGradient><linearGradient id="f" x1="-.452" x2="198.069" y1="78.011" y2="78.011" gradientUnits="userSpaceOnUse"><stop stop-color="#1C8AE2"/><stop offset=".486" stop-color="#8B00B3"/><stop offset="1" stop-color="#6900B5"/></linearGradient><linearGradient id="g" x1="-.452" x2="198.069" y1="97.669" y2="97.669" gradientUnits="userSpaceOnUse"><stop stop-color="#1C8AE2"/><stop offset=".486" stop-color="#8B00B3"/><stop offset="1" stop-color="#6900B5"/></linearGradient><linearGradient id="h" x1="-.452" x2="198.069" y1="78.105" y2="78.105" gradientUnits="userSpaceOnUse"><stop stop-color="#1C8AE2"/><stop offset=".486" stop-color="#8B00B3"/><stop offset="1" stop-color="#6900B5"/></linearGradient><linearGradient id="i" x1="-.452" x2="198.069" y1="78.104" y2="78.104" gradientUnits="userSpaceOnUse"><stop stop-color="#1C8AE2"/><stop offset=".486" stop-color="#8B00B3"/><stop offset="1" stop-color="#6900B5"/></linearGradient><linearGradient id="j" x1="-.452" x2="198.069" y1="78.105" y2="78.105" gradientUnits="userSpaceOnUse"><stop stop-color="#1C8AE2"/><stop offset=".486" stop-color="#8B00B3"/><stop offset="1" stop-color="#6900B5"/></linearGradient><linearGradient id="k" x1="-.452" x2="198.069" y1="78.011" y2="78.011" gradientUnits="userSpaceOnUse"><stop stop-color="#1C8AE2"/><stop offset=".486" stop-color="#8B00B3"/><stop offset="1" stop-color="#6900B5"/></linearGradient><linearGradient id="l" x1="-.452" x2="198.068" y1="78.011" y2="78.011" gradientUnits="userSpaceOnUse"><stop stop-color="#1C8AE2"/><stop offset=".486" stop-color="#8B00B3"/><stop offset="1" stop-color="#6900B5"/></linearGradient><linearGradient id="m" x1="-.453" x2="198.07" y1="78.011" y2="78.011" gradientUnits="userSpaceOnUse"><stop stop-color="#1C8AE2"/><stop offset=".486" stop-color="#8B00B3"/><stop offset="1" stop-color="#6900B5"/></linearGradient><linearGradient id="n" x1="-.451" x2="198.069" y1="97.669" y2="97.669" gradientUnits="userSpaceOnUse"><stop stop-color="#1C8AE2"/><stop offset=".486" stop-color="#8B00B3"/><stop offset="1" stop-color="#6900B5"/></linearGradient><linearGradient id="o" x1="-.452" x2="198.069" y1="97.669" y2="97.669" gradientUnits="userSpaceOnUse"><stop stop-color="#1C8AE2"/><stop offset=".486" stop-color="#8B00B3"/><stop offset="1" stop-color="#6900B5"/></linearGradient><linearGradient id="p" x1="-.452" x2="198.069" y1="78.011" y2="78.011" gradientUnits="userSpaceOnUse"><stop stop-color="#1C8AE2"/><stop offset=".486" stop-color="#8B00B3"/><stop offset="1" stop-color="#6900B5"/></linearGradient><linearGradient id="q" x1="-.452" x2="198.069" y1="78.011" y2="78.011" gradientUnits="userSpaceOnUse"><stop stop-color="#1C8AE2"/><stop offset=".486" stop-color="#8B00B3"/><stop offset="1" stop-color="#6900B5"/></linearGradient><linearGradient id="r" x1="-.452" x2="198.069" y1="74.162" y2="74.162" gradientUnits="userSpaceOnUse"><stop stop-color="#1C8AE2"/><stop offset=".486" stop-color="#8B00B3"/><stop offset="1" stop-color="#6900B5"/></linearGradient></defs></svg>