<?xml version="1.0" encoding="utf-8"?>
<!-- Generator: Adobe Illustrator 22.0.0, SVG Export Plug-In . SVG Version: 6.00 Build 0)  -->
<svg version="1.1" id="Layer_1" xmlns="http://www.w3.org/2000/svg" xmlns:xlink="http://www.w3.org/1999/xlink" x="0px" y="0px"
	 viewBox="0 0 100 25" style="enable-background:new 0 0 100 25;" xml:space="preserve">
<style type="text/css">
	.st0{fill-rule:evenodd;clip-rule:evenodd;fill:#A6AAAA;}
	.st1{fill-rule:evenodd;clip-rule:evenodd;fill:#F3792E;}
	.st2{fill-rule:evenodd;clip-rule:evenodd;fill:#F06022;}
	.st3{fill-rule:evenodd;clip-rule:evenodd;fill:#D95122;}
	.st4{fill-rule:evenodd;clip-rule:evenodd;fill:#F89A2C;}
	.st5{fill-rule:evenodd;clip-rule:evenodd;fill:#FFFFFF;}
	.st6{fill:#FFFFFF;}
	.st7{fill-rule:evenodd;clip-rule:evenodd;fill:#B4008D;}
	.st8{fill-rule:evenodd;clip-rule:evenodd;fill:#9DBC0A;}
	.st9{fill:none;stroke:#9DBC0A;stroke-width:0.1962;stroke-miterlimit:10;}
	.st10{fill-rule:evenodd;clip-rule:evenodd;fill:#DF3F17;}
	.st11{fill:none;stroke:#DF3F17;stroke-width:0.1962;stroke-miterlimit:10;}
	.st12{fill-rule:evenodd;clip-rule:evenodd;fill:#F5B208;}
	.st13{fill:none;stroke:#F5B208;stroke-width:0.1962;stroke-miterlimit:10;}
	.st14{fill:#9DBC0A;}
	.st15{fill:none;stroke:#9DBC0A;stroke-width:0.2023;stroke-miterlimit:10;}
	.st16{fill:none;stroke:#DF3F17;stroke-width:0.2023;stroke-miterlimit:10;}
	.st17{fill:none;stroke:#F5B208;stroke-width:0.2023;stroke-miterlimit:10;}
	.st18{fill-rule:evenodd;clip-rule:evenodd;fill:#85754E;}
	.st19{fill:#85754E;}
	.st20{fill-rule:evenodd;clip-rule:evenodd;fill:#1A171B;}
	.st21{fill:#016268;}
	.st22{fill:#00A9C2;}
	.st23{fill:#21427B;}
	.st24{fill:#FAE101;}
	.st25{fill-rule:evenodd;clip-rule:evenodd;fill:#32327F;}
	.st26{fill-rule:evenodd;clip-rule:evenodd;fill:#FCB813;}
	.st27{fill:#002169;}
	.st28{fill:#C6C7C8;}
	.st29{fill:#F79420;}
	.st30{fill:#FCB831;}
	.st31{fill:#FDDD2E;}
	.st32{fill:#F3C700;}
	.st33{fill:#DB6216;}
	.st34{fill:#EAA600;}
	.st35{fill:#E32427;}
	.st36{fill:#FFFFFF;stroke:#FFFFFF;stroke-width:0.1124;stroke-miterlimit:10;}
	.st37{fill:url(#SVGID_1_);}
	.st38{fill-rule:evenodd;clip-rule:evenodd;fill:#C1272D;}
	.st39{fill-rule:evenodd;clip-rule:evenodd;fill:url(#SVGID_2_);}
	.st40{fill-rule:evenodd;clip-rule:evenodd;fill:url(#SVGID_3_);}
	.st41{fill-rule:evenodd;clip-rule:evenodd;fill:url(#SVGID_4_);}
	.st42{fill-rule:evenodd;clip-rule:evenodd;fill:url(#SVGID_5_);}
	.st43{fill-rule:evenodd;clip-rule:evenodd;fill:url(#SVGID_6_);}
	.st44{fill-rule:evenodd;clip-rule:evenodd;fill:url(#SVGID_7_);}
	.st45{fill-rule:evenodd;clip-rule:evenodd;fill:url(#SVGID_8_);}
	.st46{fill:#006937;}
	.st47{fill:#929990;}
	.st48{fill:#FFFFFF;stroke:#FFFFFF;stroke-width:0.1949;stroke-miterlimit:10;}
	.st49{fill:#18428F;}
	.st50{fill:#EC1848;}
	.st51{fill:#29A151;}
	.st52{fill:#C1272D;}
	.st53{fill:#29ABE2;}
	.st54{fill:#F7BE3E;}
	.st55{fill:url(#SVGID_9_);}
	.st56{fill-rule:evenodd;clip-rule:evenodd;fill:none;}
	.st57{clip-path:url(#SVGID_11_);fill-rule:evenodd;clip-rule:evenodd;}
	.st58{fill:#EFAF1F;}
	.st59{fill:#EFB022;}
	.st60{fill:#0E0A08;}
	.st61{fill:#DA2A28;}
	.st62{fill:#F6F6F5;}
	.st63{fill:#C7B086;}
	.st64{fill:#F1F0EE;}
	.st65{fill-rule:evenodd;clip-rule:evenodd;fill:url(#SVGID_12_);}
	.st66{fill-rule:evenodd;clip-rule:evenodd;fill:#FAF9F9;}
	.st67{fill-rule:evenodd;clip-rule:evenodd;fill:#F8B132;}
	.st68{fill-rule:evenodd;clip-rule:evenodd;fill:#1A70B7;}
	.st69{fill-rule:evenodd;clip-rule:evenodd;fill:#36A834;}
	.st70{fill-rule:evenodd;clip-rule:evenodd;fill:#E2000F;}
	.st71{fill-rule:evenodd;clip-rule:evenodd;fill:#1A1A18;}
	.st72{fill:url(#SVGID_13_);}
	.st73{fill:url(#SVGID_14_);}
	.st74{fill:url(#SVGID_15_);}
	.st75{fill:url(#SVGID_16_);}
	.st76{fill:url(#SVGID_17_);}
	.st77{fill:url(#SVGID_18_);}
	.st78{fill:url(#SVGID_19_);}
	.st79{fill:url(#SVGID_20_);}
	.st80{fill:url(#SVGID_21_);}
	.st81{fill:url(#SVGID_22_);}
	.st82{fill:url(#SVGID_23_);}
	.st83{fill:url(#SVGID_24_);}
	.st84{fill:url(#SVGID_25_);}
	.st85{fill:url(#SVGID_26_);}
	.st86{fill:#00A85D;}
	.st87{fill:#FFFFFF;stroke:#FFFFFF;stroke-width:0.1;stroke-miterlimit:10;}
	.st88{fill:#9FD8F5;}
	.st89{fill:#274888;}
	.st90{fill:#267DBF;}
	.st91{fill:#2F91CF;}
	.st92{fill:#2955A0;}
	.st93{fill:#236EB3;}
	.st94{fill:#CFEBFA;}
	.st95{fill:#42B7E9;}
	.st96{fill:#3FAAE0;}
	.st97{fill:#ED171F;}
	.st98{opacity:0.25;fill:url(#SVGID_27_);}
	.st99{fill:#FFFFFF;stroke:#FFFFFF;stroke-width:1.0606;stroke-miterlimit:10;}
	.st100{fill:#FFAF10;}
	.st101{fill:#151416;}
	.st102{fill:#E57641;}
	.st103{fill:none;}
	.st104{fill:#1C191B;}
	.st105{fill:#19181A;}
	.st106{fill:#DD7340;}
	.st107{fill:#181617;}
	.st108{fill:#EA7944;}
	.st109{fill:#0C0E13;}
	.st110{fill:#181719;}
	.st111{fill:#F2F1F2;}
	.st112{fill:#F6F5F5;}
	.st113{fill:#BA673F;}
	.st114{fill:#4E362A;}
	.st115{fill:#6A6567;}
	.st116{fill:none;stroke:#EA7944;stroke-width:0.3013;stroke-linecap:round;stroke-miterlimit:10;}
	.st117{fill:none;stroke:#FF00FF;stroke-width:0.25;stroke-miterlimit:10;}
</style>
<g>
	<path class="st52" d="M0.116,5.61c0-0.538,0.391-1.003,0.923-1.081c0.71-0.104,1.418-0.187,2.123-0.248
		c1.011-0.088,1.926-0.132,2.746-0.132c1.001,0,1.912,0.076,2.732,0.228c0.819,0.152,1.516,0.407,2.089,0.767
		c0.574,0.359,1.015,0.831,1.325,1.414c0.31,0.584,0.464,1.298,0.464,2.145c0,0.895-0.196,1.637-0.587,2.229
		c-0.392,0.591-1.052,1.094-1.981,1.51c0.619,0.224,1.129,0.483,1.529,0.779c0.401,0.296,0.71,0.623,0.929,0.982
		c0.218,0.359,0.369,0.731,0.451,1.114c0.082,0.383,0.123,0.767,0.123,1.15c0,0.895-0.164,1.629-0.491,2.205
		c-0.328,0.575-0.775,1.039-1.339,1.39c-0.565,0.352-1.229,0.595-1.994,0.731c-0.765,0.136-1.585,0.204-2.459,0.204H1.127
		c-0.674,0-1.011-0.279-1.011-0.839V5.61z M4.706,9.56c0,0.604,0.489,1.093,1.093,1.093h0.327c0.692,0,1.188-0.108,1.489-0.323
		c0.301-0.215,0.451-0.636,0.451-1.262c0-0.613-0.146-1.027-0.437-1.242C7.337,7.612,6.818,7.504,6.071,7.504
		c-0.182,0-0.419,0.003-0.71,0.01c-0.292,0.007-0.51,0.016-0.655,0.029V9.56z M4.706,16.089c0,0.604,0.489,1.093,1.093,1.093H6.29
		c0.783,0,1.343-0.13,1.68-0.389c0.337-0.259,0.505-0.68,0.505-1.263c0-0.608-0.187-1.035-0.56-1.282
		c-0.373-0.247-1.006-0.37-1.899-0.37H5.799c-0.604,0-1.093,0.489-1.093,1.093V16.089z"/>
	<path class="st52" d="M16.753,7.336c-0.929,0-1.589-0.14-1.981-0.419c-0.392-0.279-0.587-0.746-0.587-1.402
		c0-0.655,0.195-1.122,0.587-1.402c0.392-0.279,1.052-0.419,1.981-0.419c0.929,0,1.589,0.14,1.981,0.419
		c0.391,0.28,0.587,0.747,0.587,1.402c0,0.655-0.196,1.122-0.587,1.402C18.341,7.196,17.681,7.336,16.753,7.336z M19.047,20.174
		c0,0.453-0.367,0.821-0.821,0.821h-2.73c-0.674,0-1.011-0.279-1.011-0.839V9.379c0-0.453,0.367-0.821,0.821-0.821h2.731
		c0.673,0,1.01,0.28,1.01,0.839V20.174z"/>
	<path class="st52" d="M29.428,20.851c-0.546,0.144-1.043,0.248-1.489,0.311c-0.446,0.064-0.934,0.096-1.462,0.096
		c-0.728,0-1.379-0.064-1.953-0.192c-0.574-0.128-1.065-0.356-1.475-0.683c-0.41-0.327-0.724-0.767-0.943-1.318
		c-0.218-0.551-0.328-1.25-0.328-2.097v-5.32h-0.547c-0.674,0-1.01-0.279-1.01-0.839V8.558h1.721l0.218-3.019h3.169
		c0.674,0,1.011,0.28,1.011,0.839v2.181h2.076c0.673,0,1.01,0.28,1.01,0.839v2.253h-3.087v5.248c0,0.847,0.427,1.27,1.283,1.27
		h0.793c0.673,0,1.01,0.28,1.01,0.839V20.851z"/>
	<path class="st53" d="M32.023,20.995c-0.674,0-1.011-0.279-1.011-0.839V4.676c1.02-0.176,2.053-0.307,3.1-0.395
		c1.047-0.088,1.981-0.132,2.8-0.132c1.147,0,2.145,0.096,2.991,0.287s1.548,0.503,2.104,0.935c0.555,0.431,0.965,0.999,1.229,1.701
		c0.264,0.703,0.397,1.566,0.397,2.588c0,1.981-0.478,3.414-1.435,4.301c-0.956,0.887-2.372,1.33-4.248,1.33
		c-0.455,0-0.888-0.02-1.298-0.06c-0.409-0.04-0.742-0.084-0.997-0.132v5.895H32.023z M35.656,11.73
		c0.218,0.026,0.419,0.044,0.601,0.057c0.182,0.013,0.355,0.019,0.519,0.019c0.401,0,0.742-0.028,1.025-0.085
		c0.282-0.057,0.514-0.164,0.697-0.322c0.182-0.158,0.318-0.369,0.409-0.634c0.091-0.265,0.137-0.606,0.137-1.022
		c0-0.391-0.041-0.713-0.123-0.965c-0.082-0.252-0.205-0.451-0.368-0.596c-0.164-0.145-0.379-0.243-0.642-0.293
		c-0.265-0.05-0.569-0.076-0.915-0.076c-0.164,0-0.392,0.003-0.683,0.009c-0.292,0.006-0.51,0.016-0.655,0.028V11.73z"/>
	<path class="st53" d="M50.763,21.306c-1.111,0-2.063-0.124-2.855-0.371c-0.792-0.248-1.439-0.635-1.939-1.162
		c-0.501-0.527-0.865-1.202-1.093-2.025c-0.228-0.823-0.341-1.809-0.341-2.959c0-1.166,0.113-2.16,0.341-2.983
		c0.227-0.823,0.592-1.498,1.093-2.025c0.5-0.527,1.147-0.911,1.939-1.15c0.792-0.24,1.744-0.359,2.855-0.359
		c1.111,0,2.062,0.12,2.854,0.359c0.793,0.24,1.439,0.623,1.94,1.15c0.5,0.527,0.865,1.202,1.093,2.025
		c0.227,0.823,0.341,1.818,0.341,2.983c0,1.15-0.114,2.137-0.341,2.959c-0.228,0.823-0.592,1.498-1.093,2.025
		c-0.501,0.527-1.147,0.914-1.94,1.162C52.825,21.182,51.874,21.306,50.763,21.306z M52.375,14.474c0-0.635-0.023-1.141-0.068-1.519
		c-0.046-0.377-0.132-0.668-0.259-0.874c-0.128-0.205-0.292-0.341-0.492-0.407c-0.2-0.066-0.464-0.099-0.792-0.099
		c-0.328,0-0.592,0.033-0.793,0.099c-0.2,0.066-0.364,0.202-0.491,0.407c-0.128,0.205-0.214,0.496-0.26,0.874
		c-0.046,0.377-0.068,0.883-0.068,1.519c0,0.649,0.022,1.165,0.068,1.549c0.046,0.384,0.132,0.679,0.26,0.883
		c0.127,0.206,0.291,0.341,0.491,0.407c0.2,0.066,0.464,0.099,0.793,0.099c0.328,0,0.592-0.033,0.792-0.099
		c0.2-0.066,0.364-0.202,0.492-0.407c0.127-0.205,0.214-0.499,0.259-0.883C52.351,15.639,52.375,15.123,52.375,14.474z"/>
	<path class="st53" d="M60.869,16.363c0.406-0.067,0.599,0.676,1.101,0.922c0.694,0.339,1.53,0.314,1.843,0.282
		c0.388-0.04,0.663,0.035,0.663-0.333c0-0.16-0.027-0.287-0.082-0.383c-0.055-0.096-0.155-0.183-0.301-0.263
		c-0.146-0.08-0.341-0.152-0.587-0.216c-0.246-0.064-0.569-0.136-0.97-0.216c-0.765-0.16-1.421-0.332-1.967-0.515
		c-0.547-0.184-1.002-0.411-1.366-0.683c-0.364-0.272-0.633-0.619-0.806-1.042c-0.173-0.423-0.259-0.962-0.259-1.618
		c0-0.83,0.127-1.505,0.382-2.025c0.255-0.519,0.615-0.93,1.079-1.234c0.464-0.303,1.015-0.511,1.652-0.623
		c0.637-0.112,1.339-0.168,2.104-0.168c1.074,0,1.932,0.021,2.524,0.314c2.554,1.262,2.365,3.017,2.365,3.017
		c-0.81,0.382-1.734,1.019-2.308,0.995c-0.574-0.024-1.061-0.985-1.654-1.162c-0.639-0.191-1.088,0.044-1.406,0.132
		c-0.319,0.088-0.478,0.3-0.478,0.635c0,0.32,0.15,0.543,0.451,0.671s0.769,0.256,1.407,0.383c0.765,0.176,1.434,0.352,2.008,0.527
		s1.042,0.404,1.407,0.683c0.364,0.28,0.637,0.631,0.82,1.054c0.182,0.424,0.273,0.963,0.273,1.618c0,0.815-0.182,1.343-0.446,1.886
		c-0.265,0.543-0.704,0.973-1.178,1.293c-0.474,0.32-0.867,0.525-1.523,0.653c-0.655,0.128-1.278,0.154-2.061,0.154
		c-0.929,0-1.766-0.102-2.669-0.653c-1.88-1.147-2.813-2.599-2.813-2.871L60.869,16.363z"/>
	<path class="st53" d="M78.354,20.851c-0.546,0.144-1.043,0.248-1.489,0.311c-0.446,0.064-0.934,0.096-1.462,0.096
		c-0.728,0-1.379-0.064-1.953-0.192c-0.574-0.128-1.065-0.356-1.475-0.683c-0.41-0.327-0.724-0.767-0.943-1.318
		s-0.328-1.25-0.328-2.097v-5.32h-0.547c-0.674,0-1.01-0.279-1.01-0.839V8.558h1.721l0.218-3.019h3.169
		c0.674,0,1.011,0.28,1.011,0.839v2.181h2.076c0.673,0,1.01,0.28,1.01,0.839v2.253h-3.087v5.248c0,0.847,0.427,1.27,1.283,1.27
		h0.793c0.673,0,1.01,0.28,1.01,0.839V20.851z"/>
	<path class="st53" d="M85.792,20.995c0,0-1.627,0.196-3.187-0.28c-0.784-0.239-1.363-0.605-1.882-1.133
		c-0.519-0.527-0.99-0.987-1.236-1.81c-0.246-0.823-0.368-1.817-0.368-2.983c0-2.316,0.496-3.982,1.489-4.996
		c0.992-1.014,2.545-1.522,4.657-1.522c1.111,0,2.017,0.136,2.718,0.407c0.701,0.272,1.252,0.643,1.653,1.114
		c0.4,0.471,0.673,1.03,0.819,1.677c0.146,0.647,0.219,1.346,0.219,2.097c0,0.16-0.01,0.359-0.028,0.599
		c-0.019,0.24-0.05,0.479-0.095,0.719c-0.046,0.239-0.096,0.467-0.151,0.683s-0.109,0.38-0.164,0.491h-6.884
		c0,0.815,0.223,1.382,0.67,1.701c0.446,0.32,1.016,0.113,1.981,0.113c0.892,0,1.494-1.032,1.959-1.056
		c0.464-0.024,1.158,0.391,1.457,0.566c0.674,0.394,0.843,0.824,0.843,1.095c-0.261,0.375-0.695,0.909-1.359,1.392
		C87.711,20.737,86.513,20.904,85.792,20.995z M86.795,13.034c0-0.725-0.114-1.225-0.341-1.5c-0.228-0.275-0.642-0.412-1.243-0.412
		c-0.728,0-1.216,0.146-1.462,0.439c-0.245,0.292-0.378,0.784-0.396,1.473H86.795z"/>
	<path class="st53" d="M99.425,8.271c0.71,0,0.384,0.595,0.384,1.154l-0.026,2.125c-0.128-0.016,0.109,0,0,0c-0.109,0,0.145,0,0,0
		c-0.583,0-1.346,0.125-1.92,0.205c-0.574,0.08-0.9,0.298-0.988,0.949v8.291h-3.552c-0.674,0-1.01-0.279-1.01-0.839V10.115
		c0.092-0.254,0.289-0.684,0.705-1.062c0.808-0.731,1.809-0.692,2.029-0.678C95.448,8.375,98.787,8.271,99.425,8.271z"/>
</g>
</svg>
