<?xml version="1.0" encoding="utf-8"?>
<!-- Generator: Adobe Illustrator 22.1.0, SVG Export Plug-In . SVG Version: 6.00 Build 0)  -->
<svg version="1.1" id="Слой_1" xmlns="http://www.w3.org/2000/svg" xmlns:xlink="http://www.w3.org/1999/xlink" x="0px" y="0px"
	 viewBox="0 0 547.9841309 188.6216888" style="enable-background:new 0 0 547.9841309 188.6216888;" xml:space="preserve">
<style type="text/css">
	.st0{fill:#FFFFFF;}
</style>
<g>
	<path class="st0" d="M15.4713535,162.2266541c0-12.4571075,9.8639679-22.3201904,22.5794621-22.3201904
		c12.4581184,0,22.5801849,9.8630829,22.5801849,22.3201904c0,12.7164459-10.1220665,22.838501-22.5801849,22.838501
		C25.3353214,185.065155,15.4713535,174.9431,15.4713535,162.2266541L15.4713535,162.2266541z"/>
	<path class="st0" d="M163.9503632,118.472641c0-19.6299973-10.1874695-39.0111237-31.3062592-39.0111237
		c-17.3939896,0-31.8057938,14.1641083-31.8057938,39.2596741c0,24.1020966,12.6732788,39.7563171,31.3072739,39.7563171
		C148.5458374,158.4775085,163.9503632,146.5493774,163.9503632,118.472641L163.9503632,118.472641z M126.4313431,52.3785439
		c27.580162,0,36.5254745,15.4053993,36.5254745,15.4053993h0.4982605c0,0-0.2496796-3.2316589-0.2496796-7.455204V32.4935341
		l-15.4066772,0.0073128V5.6645126h46.9626007v149.7761841l15.1580811,0.0548248v26.5876617h-44.7266693v-17.6415253h-0.495285
		c0,0-10.4360352,20.6235046-39.5095749,20.6235046c-34.2873611,0-56.402977-27.0851135-56.402977-66.3439636
		C68.7848969,78.4677124,92.8878479,52.3785439,126.4313431,52.3785439L126.4313431,52.3785439z"/>
	<path class="st0" d="M299.1223755,102.3209381c-0.4963074-15.1546173-10.9326172-25.5916824-23.8528137-25.5916824
		c-16.1486206,0-27.5797272,9.6899719-31.0584869,25.5916824H299.1223755L299.1223755,102.3209381z M275.2695618,52.3785439
		c36.2788086,0,56.1543274,26.587719,56.1543274,60.1298561c0,3.7282257-0.7423401,11.6797714-0.7423401,11.6797714h-87.4631958
		c2.4817352,22.3612061,18.882843,34.0407257,38.0160522,34.0407257c20.3740234,0,35.532135-14.1643372,35.532135-14.1643372
		l13.1683044,21.8670349c0,0-19.3813477,19.1335602-50.9361572,19.1335602
		c-41.9933167,0-68.0835724-30.3156738-68.0835724-66.3439636
		C210.9151154,79.7101288,237.2535553,52.3785439,275.2695618,52.3785439L275.2695618,52.3785439z"/>
	<path class="st0" d="M484.7957764,127.1690826c0,15.4055939-11.9296265,33.2957306-28.8249512,33.2957306
		c-12.9223328,0-19.1331787-7.9515228-19.1331787-16.4002533c0-17.6404343,26.0907288-19.8763885,42.489624-19.8763885h5.4685059
		V127.1690826L484.7957764,127.1690826z M515.8413086,155.4955139l0.0108032-52.676033
		c0-28.3263702-12.4216614-50.440937-54.6653137-50.440937c-42.8823853,0-47.6257629,39.506382-47.6257629,39.506382h30.3485107
		c1.5192566-9.6110687,9.7716064-16.9818497,19.8086548-16.9818497c15.8853149,0,19.8129578,10.0577927,20.4625244,23.0271683
		c0.0237427,0.4024582,0.0366821,0.8239517,0.0539246,1.2391205c0.017334,0.4700241,0.0626221,2.0653076,0.0626221,2.4077682
		v0.9938049h-3.9729309c-20.6244202,0-75.2897339,3.2294159-75.2897339,42.9857025
		c0,25.3442535,20.6244202,39.5085144,43.2341614,39.5085144c28.5746155,0,38.2641907-22.3643646,38.2641907-22.3643646h0.4985657
		l-0.0216064,19.3823853h44.2505798v-26.5876617H515.8413086L515.8413086,155.4955139z"/>
	<path class="st0" d="M348.2113037,80.4551163h-15.6544189V55.3605309h15.6544189V51.633358
		c0-41.4968147,34.0387268-46.962513,51.6807251-46.962513c6.4611816,0,10.6844482,0.7470946,10.6844482,0.7470946v26.8342915
		c0,0-2.7320557-0.4984798-6.4590149-0.4984798c-8.9450684,0-24.3513184,2.2361469-24.3513184,20.6247921v2.981987h27.0834351
		v25.0945854h-27.0834351v101.6280594h-31.5548401V80.4551163L348.2113037,80.4551163z"/>
</g>
</svg>
