<svg width="200" height="155" fill="none" xmlns="http://www.w3.org/2000/svg"><path d="m20 83.1 1.1-2.3 10.2 9.9v-3.3l-9.2-8.8 1.1-2.3 8.1 7.8v-3.2l-6.9-6.8 1.1-2.2 5.8 5.6v-3.3l-4.7-4.6 1.1-2.2 3.6 3.6v-3.4l-2.6-2.5 1.1-2.2 1.5 1.5V62H0v31.3h30.5L20 83.1Z" fill="url(#a)"/><path d="M198.599 93.299h-3.5l-6.7-8.8h-.9v8.8h-3.6v-20.1h3.5v8.6c.3 0 .5-.1.8-.2.3-.1.6-.3.9-.5.2-.2.5-.4.7-.7.2-.3.4-.7.6-1.1l.2-.6.2-.5c.1-.2.2-.7.3-.9.2-.7.5-1.4.9-2 .3-.5.7-1 1.2-1.3.5-.3 1-.6 1.6-.7.7-.1 1.3-.2 2-.2h1.3v3.2h-1.1c-.4 0-.8 0-1.2.1-.2.1-.5.2-.7.3-.2.2-.4.5-.5.8-.2.4-.4.9-.5 1.3-.1.5-.3 1-.6 1.5-.2.4-.4.8-.7 1.1-.2.3-.5.6-.8.8-.2.1-.3.3-.5.4l8.1 10.5-1 .2Zm-23.9.4c-1.2 0-2.5-.2-3.6-.7-1.1-.5-2.1-1.1-2.9-2-.4-.5-.8-1-1.1-1.5-.3-.6-.6-1.2-.8-1.8-.2-.7-.4-1.4-.5-2.1-.1-.8-.2-1.6-.2-2.3 0-.8 0-1.6.2-2.3.1-.7.3-1.4.5-2 .2-.6.5-1.2.8-1.8.3-.5.7-1 1.1-1.5.4-.4.8-.9 1.3-1.2.5-.4 1-.7 1.6-.9.6-.2 1.2-.4 1.8-.5.6-.1 1.3-.2 1.9-.2h1c.3 0 .6 0 .9.1.3.1.6.1.8.2l.8.2.6.2.7.3.7.3.7.3.3.1v3.8h-.9l-.5-.5-.4-.4-.6-.4c-.2-.1-.4-.3-.7-.4-.2-.1-.5-.2-.7-.3-.2-.1-.5-.2-.8-.3-.3-.1-.6-.1-.9-.2-.3 0-.7-.1-1-.1-.7 0-1.5.2-2.1.5-.7.3-1.3.8-1.8 1.3-.3.3-.5.7-.7 1-.2.4-.4.9-.5 1.3-.1.5-.3 1-.3 1.5-.1.6-.1 1.1-.1 1.7 0 .6 0 1.2.1 1.8l.3 1.5c.1.4.3.8.5 1.2.2.4.4.7.7 1 .2.3.5.5.8.8l.9.6c.3.1.7.3 1 .3.4.1.7.1 1.1.1h1c.3 0 .6-.1.9-.2.3-.1.6-.2.8-.3.3-.1.5-.2.7-.3l.6-.4c.2-.1.4-.2.5-.4l.4-.4.3-.3.1-.1h.9v3.8l-1.5.7c-.5.2-.9.4-1.4.6l-.8.3-.8.2-.9.1c0-.1-.3-.1-.8 0Zm-11.8-7.6h-7.7v-3.2h8.2v3.2h-.5Zm-19.1 6.8v-16.5h-6.5v-3.2h16.4v3.2h-6.5v17h-3.5v-.5h.1Zm-20.6 0v-19.7h12.9v3.2h-9.5v4.3h8.8v3.2h-8.8v6.2h9.5v3.2h-12.9v-.4Zm-12.2 0v-16.5h-6.5v-3.2h16.4v3.2h-6.4v17h-3.5v-.5Zm-9.2.4h-3v-14l-7.9 14h-3.3v-20.1h3.5v13.7l7.8-13.7h3.5v20.1h-.6Zm-20.6-13.8c0-.3 0-.6-.1-.8-.1-.2-.1-.5-.2-.7-.1-.2-.2-.4-.4-.6-.1-.2-.3-.3-.5-.4l-.6-.3c-.2-.1-.4-.1-.7-.2-.3-.1-.6-.1-.9-.1h-2.7v6.7h2.6c.3 0 .7-.1 1-.2.3-.1.5-.2.8-.3.2-.1.4-.3.6-.5.2-.2.3-.3.4-.5l.3-.6c.1-.2.1-.4.2-.6.2-.3.2-.6.2-.9Zm3.6 0c0 .4 0 .9-.1 1.3s-.2.8-.4 1.2c-.1.4-.3.8-.6 1.1-.2.3-.5.7-.8.9-.4.3-.7.7-1.2.9-.4.3-.9.5-1.3.7-1.1.4-2.3.6-3.5.5h-1.7v7.2h-3.5v-20.2h6.9c.5 0 .9.1 1.4.2.4.1.8.2 1.2.4.4.2.7.4 1.1.6.4.3.7.6 1 .9.3.3.6.7.8 1.1.2.4.4.9.5 1.3.1.7.2 1.3.2 1.9Zm-21.4 5.4-2.3-7.1-2.3 7.1h4.6Zm-10.8 7.9 6.6-19.5H63l6.8 20.1h-3.7l-1.7-5.3h-6.7l-1.7 5.3h-3.6l.2-.6Zm-2.6.6h-3v-17h-7.9v17h-3.4v-20.1h14.8v20.1H50Z" fill="url(#b)"/><path d="M195.599 66.4v-2.5h-1.5c-.2 0-.3.1-.4.2-.1.1-.2.2-.3.4-.1.2-.1.4-.1.6 0 .2 0 .4.1.6.1.2.1.3.3.4.1.1.3.2.5.3h1.4Zm.9 3.4h-.9v-2.6h-1l-2 2.6h-1.1l2.1-2.8c-.4-.1-.8-.4-1-.7-.3-.4-.4-.8-.4-1.3 0-.3.1-.6.2-.9.1-.2.3-.5.6-.6.2-.2.5-.3.8-.3.3-.1.6-.1.9-.1h1.8v6.7Zm-9.2 0h-.9v-5.3l-3 5.3h-.9v-6.7h.9v5.3l3-5.3h.9v6.7Zm-9.7 0h-.9v-3.3h-3.1v3.3h-.9v-6.7h.9v2.6h3.1v-2.6h.9v6.7Zm-10.9-2.6-1-3.1-1 3.1h2Zm-3.8 2.6 2.3-6.7h1.1l2.3 6.7h-.9l-.6-1.9h-2.6l-.6 1.9h-1Zm-4.1 0h-.9v-5.9h-3.1v5.9h-.9v-6.7h4.8v6.7h.1Zm-9.8 0h-.9v-5.7l-1.7 4h-.5l-1.7-4v5.7h-.8v-6.7h1.2l1.7 3.7 1.6-3.7h1.2l-.1 6.7Zm-11.2-3.3c0-.4 0-.8-.1-1.2-.1-.3-.2-.6-.4-.8-.2-.2-.4-.4-.6-.5-.5-.2-1.1-.2-1.7 0-.3.1-.5.3-.6.5-.2.3-.3.5-.4.9-.1.4-.1.8-.1 1.2 0 .7.2 1.4.6 2 .4.5.9.7 1.5.7s1.1-.2 1.5-.7c.2-.7.4-1.4.3-2.1Zm.2-2.6c.3.3.5.7.6 1.1.1.5.2 1 .2 1.5s-.1 1-.2 1.5c-.1.4-.3.8-.6 1.1-.3.3-.6.5-1 .7-.4.2-.8.2-1.2.2-.4 0-.8-.1-1.2-.2-.4-.1-.7-.4-.9-.7-.3-.3-.5-.7-.6-1.1-.1-.5-.2-1-.2-1.5s.1-1 .2-1.5c.1-.4.3-.8.6-1.1.3-.3.6-.5.9-.7.4-.2.8-.2 1.2-.2.4 0 .8.1 1.2.2.4.2.8.4 1 .7Zm-8.9 5.9h-1.1l-2.3-3.1h-.5v3.1h-.9v-6.7h.9v3c.3 0 .6-.1.8-.3.2-.2.4-.4.5-.7.1-.1.1-.3.1-.4 0-.1.1-.2.1-.3.1-.4.3-.8.7-1.1.3-.2.7-.3 1.1-.3h.3v.8h-.3c-.3 0-.6 0-.8.2-.2.2-.3.5-.4.8-.1.3-.2.6-.4.9-.2.2-.3.4-.6.5l2.8 3.6Zm-17.2-3.4v-2.5h-1.5c-.2 0-.3.1-.4.2-.1.1-.3.2-.3.4-.1.2-.1.4-.1.6 0 .2 0 .4.1.6.1.2.1.3.3.4.1.1.3.2.5.3h1.4Zm.9 3.4h-.9v-2.6h-1l-2 2.6h-1.1l2.1-2.8c-.4-.1-.8-.4-1-.7-.3-.4-.4-.8-.4-1.3 0-.3.1-.6.2-.9.3-.5.8-.8 1.3-.9.3-.1.6-.1.9-.1h1.8l.1 6.7Zm-10.2-2.6-1-3.1-1 3.1h2Zm-3.8 2.6 2.2-6.7h1.1l2.3 6.7h-.9l-.6-1.9h-2.5l-.6 1.9h-1Zm-4.7-2c0-.2 0-.4-.1-.6-.1-.2-.3-.3-.5-.4-.1-.1-.3-.1-.5-.1h-1.7v2.4h1.6c.2 0 .4-.1.6-.2.2-.1.3-.2.4-.4.2-.3.2-.5.2-.7Zm-.3-3c0-.1 0-.3-.1-.4-.1-.1-.1-.2-.3-.3-.2-.1-.3-.1-.5-.1h-1.5v1.9H93c.1 0 .3-.1.4-.2l.3-.3c.1-.3.1-.5.1-.6Zm1.2 2.9c0 .3-.1.6-.2.9-.1.3-.3.5-.5.6-.2.2-.5.3-.8.4-.4.1-.7.1-1.1.1h-1.9V63H93.4c.2 0 .5.1.7.2.2.1.4.3.5.5.1.2.2.5.2.8 0 .3-.1.6-.3.8-.2.3-.4.5-.7.6.4.1.7.3.9.6.2.5.4.9.3 1.2Zm-9.9-1.3c0-.4 0-.8-.1-1.2-.1-.3-.2-.6-.4-.8-.2-.2-.4-.4-.6-.5-.3-.1-.6-.2-.9-.1-.3 0-.6 0-.8.2-.3.1-.5.3-.6.5-.2.3-.3.5-.4.9-.1.4-.1.8-.1 1.2 0 .7.1 1.4.5 2 .4.5.9.7 1.5.7s1.1-.2 1.5-.7c.2-.7.4-1.4.4-2.2Zm.1-2.5c.3.3.5.7.6 1.1.2.5.2 1 .2 1.5s-.1 1-.2 1.5c-.1.4-.3.8-.6 1.1-.3.3-.6.5-1 .7-.4.2-.8.2-1.2.2-.4 0-.8-.1-1.2-.2-.4-.1-.7-.4-.9-.7-.3-.3-.5-.7-.6-1.1-.1-.5-.2-1-.2-1.5s.1-1 .2-1.5c.1-.4.3-.8.6-1.1.3-.3.6-.5 1-.7.4-.2.8-.2 1.2-.2.5 0 .9.1 1.3.2.3.2.6.4.8.7Zm-9 5.9h-1l-1.6-2.6-1.7 2.6H71l2.1-3.3-2.1-3.3h1l1.6 2.6 1.6-2.6h1l-2.1 3.3 2.1 3.3Zm-10.5-2.6-1.1-3.1-1 3.1h2.1Zm-3.8 2.6 2.2-6.7h1.1l2.3 6.7h-.9l-.6-1.9h-2.6l-.6 1.9h-.9Zm-4.7-4.6c0-.2 0-.4-.1-.6-.1-.2-.2-.3-.4-.4-.1-.1-.3-.2-.5-.2s-.5-.1-.7-.1h-.7v2.6h.6c.3 0 .6 0 .9-.1.2-.1.4-.2.5-.3.1-.1.2-.3.3-.4 0-.2.1-.4.1-.5Zm.9 0c0 .3 0 .6-.1.8-.1.2-.2.5-.4.7-.2.2-.5.4-.8.5-.4.1-.8.2-1.2.2h-.8v2.5h-.9v-6.7h1.7c.4 0 .7 0 1.1.1.3.1.5.2.7.3.2.2.4.4.6.7.1.2.2.5.1.9Zm-11.5 4.6v-5.9h-2.2v-.8h5.4v.8h-2.3v5.9h-.9Zm-8 .1c-.4 0-.8-.1-1.2-.2-.4-.1-.7-.4-.9-.7-.3-.3-.5-.7-.6-1.1-.1-.5-.2-1-.2-1.5s.1-1 .2-1.4c.1-.4.3-.8.6-1.1.3-.3.6-.5.9-.7.4-.2.8-.2 1.2-.2h.6l.6.1c.1 0 .3.1.4.2.2.1.3.1.4.2v1.1h-.1l-.3-.3c-.1-.1-.3-.2-.4-.3-.2-.1-.4-.2-.6-.2-.2-.1-.5-.1-.7-.1-.3 0-.5.1-.8.2-.3.1-.5.3-.7.5-.2.3-.3.5-.4.9-.1.4-.2.8-.2 1.2 0 .4 0 .8.2 1.2.1.3.2.6.4.8.2.2.4.4.7.5.2.1.5.2.8.2.2 0 .5 0 .7-.1.2-.1.4-.1.6-.2.2-.1.3-.2.4-.3l.3-.3h.1v1.1l-.4.2-.5.2-.5.1h-.6Z" fill="url(#c)"/><defs><linearGradient id="a" x1="-.455" y1="77.672" x2="197.838" y2="77.672" gradientUnits="userSpaceOnUse"><stop stop-color="#1C8AE2"/><stop offset=".486" stop-color="#8B00B3"/><stop offset="1" stop-color="#6900B5"/></linearGradient><linearGradient id="b" x1="-.456" y1="83.248" x2="197.838" y2="83.248" gradientUnits="userSpaceOnUse"><stop stop-color="#1C8AE2"/><stop offset=".486" stop-color="#8B00B3"/><stop offset="1" stop-color="#6900B5"/></linearGradient><linearGradient id="c" x1="-.456" y1="66.455" x2="197.838" y2="66.455" gradientUnits="userSpaceOnUse"><stop stop-color="#1C8AE2"/><stop offset=".486" stop-color="#8B00B3"/><stop offset="1" stop-color="#6900B5"/></linearGradient></defs></svg>