<?xml version="1.0" encoding="utf-8"?>
<!-- Generator: Adobe Illustrator 22.1.0, SVG Export Plug-In . SVG Version: 6.00 Build 0)  -->
<svg version="1.1" id="Слой_1" xmlns="http://www.w3.org/2000/svg" xmlns:xlink="http://www.w3.org/1999/xlink" x="0px" y="0px"
	 viewBox="0 0 820.7 239.4" style="enable-background:new 0 0 820.7 239.4;" xml:space="preserve">
<style type="text/css">
	.st0{fill-rule:evenodd;clip-rule:evenodd;fill:url(#SVGID_1_);}
	.st1{fill-rule:evenodd;clip-rule:evenodd;fill:url(#SVGID_2_);}
	.st2{fill:#FFFFFF;}
	.st3{fill:none;stroke:#D3534D;stroke-miterlimit:10;}
	.st4{font-family:'MuseoSansCyrl-100';}
	.st5{font-size:48.4206px;}
	.st6{letter-spacing:3;}
</style>
<g>
	<g>
		<linearGradient id="SVGID_1_" gradientUnits="userSpaceOnUse" x1="81.2094" y1="20.7977" x2="160.9196" y2="198.5755">
			<stop  offset="0" style="stop-color:#DB7776"/>
			<stop  offset="1" style="stop-color:#D3534D"/>
		</linearGradient>
		<path class="st0" d="M92.5,17.1c6.9,0.4,11.9,1.2,19.5,3c3.8,1.1,8,2.5,9.9,4.3l-1.3-2.5c-5.4-5.8-8.9-7.7-15.1-10.7
			c-9.6-3.5-18.9-4.7-28.7-3.5C64.8,10,51.7,14.3,43.1,22.9c7.3-2.2,14.4-4.4,22.8-5.1C74.5,16.7,84,16.1,92.5,17.1z"/>
		<linearGradient id="SVGID_2_" gradientUnits="userSpaceOnUse" x1="32.3934" y1="42.6853" x2="112.1036" y2="220.4631">
			<stop  offset="0" style="stop-color:#DB7776"/>
			<stop  offset="1" style="stop-color:#D3534D"/>
		</linearGradient>
		<path class="st1" d="M172.9,208.9c-18.1-4.8-49.4-21.5-51.2-43.1c-1.4-9.7,1.1-17.2,1.3-21.1c-1.6,2.3-14.3,4.5-18.1,5.6l-0.1-5.8
			c4.7-0.7,9.4-1.5,12.4-2.2c3.3-1,5.7-1.3,8.9-2.7c1.7-3.9,2.6-6.8,2.8-10.7l-14.9,2.5l-9.5,0.9l-0.1-4.1c3.5-0.3,6.8-0.6,9.8-1
			l16-2.3c1.3-4.5,2.1-7.8,3-12.4l-13.6,1.3l-15.5,0.9l-0.1-4c2.9-0.2,5.6-0.4,8.1-0.6l22.5-1.9c1.4-3.7,2.2-7.7,2.8-11.7l-14.6,0.9
			l-19,0.6l-0.1-4.9c5.7-0.2,11.2-0.4,14.8-0.3l20.1-0.5c1-3.9,1.2-7.8,0.7-11.8l-12.6,0.4l-23.3-0.1l-0.1-5.9
			c7.7,0.2,15.5,0.4,22.9,0.3l13.1,0.1c0.2-4-0.3-7.6-1.3-11.3l-31.6-1.3l-3.3-0.2l-0.1-5.3c3.7,0.2,7.5,0.4,11.6,0.5l22.5,0.8
			c-0.3-3.2-1.1-6.6-2.4-9.8c-8.8-2.3-20.4-3.8-32.1-4.6l-0.1-4.8l8.9,0.8c7.1,0.9,13.4,1.2,20.3,3.1c-0.4-4-2.3-7.8-3.8-11.4
			c-4.4-2.6-15.7-3.5-25.7-4.4l0-1c1.8,0.2,3.6,0.3,5.3,0.5c6.5,0.3,10.2,0,14.1-1l0.4-0.5c0.7-1.3-4.1-3.3-8.6-4.3
			c-7.2-2-12.9-2.6-19.8-3.1c-8.4-1.1-17.8-0.3-26.5,0.4c-9.9,1.2-20.7,3.8-24.4,5.2c-0.6,1.2,1.2,2.2,1.8,2.5
			c1.2,0.7,2.8,0.3,4.5,0.1c3.9-0.5,9.1-0.8,14.3-1.1l0,1.2l-12.2,0.7c-5.4,0.6-10.3,1.2-15.4,3.2c-3,3.7-4.4,7.4-4.7,11.6l0.6-0.6
			L44.1,40c5.3-0.4,13.1-0.6,19.6-0.9l0.1,0l0.1,4.5l-17.2,0.8l-15.4,1.6c-4,3.4-4.4,8.7-5.7,13.2l14.6-1.1l19.7-1.5
			c1.5-0.1,3-0.2,4.4-0.2l0.1,5h-3.1l-19.2,1.1l-16.7,1.3c-2.4,5.2-2.3,9.1-2.1,12.9l11-0.8c10.4-0.6,20.4-0.8,30.4-0.9l0.2,6
			C63,81,61,81,59,81.1c-12.9,0.3-25.7,0.6-30.1,1c-1,0.1-5.3,0.1-5.3,0.7c-0.2,4-0.3,10.7,1.4,11.7L49,94.6l15.5-0.3l0.9,0l0.1,4.8
			c-2.3,0-4.7,0.1-7,0.2c-12.9,0.3-33.9-0.8-33.8,0c0.7,5,1.6,10,3.9,13.2l19.9-0.3l15.5-0.3l1.8-0.1l0.1,4.6
			c-1.5,0-3.1,0.1-4.5,0.1c-12.9,0.3-32.5-0.6-32.3,0.2c1.1,4.8,3.5,9.9,4.6,12.2c5.3,0,11.6-0.2,17-0.2l15.5,0.3l0.2,0l0.1,4.6
			c-0.5,0-1.1,0-1.6,0c-12.8,0-30.5-0.9-30.4-0.1c0.6,4.3,1.9,8.4,3.3,12.5c5.3,0,11.6,0.7,16.9,0.7l12.1,0.4l0.2,6
			c-7.4,0-10.6,0-13.2-0.3c-4-0.4-12.8-0.4-16.2-2.4c-1-0.6,1,7.4,8.6,11.3c6.4,1.9,11.8,2,16,2.9c1.3,0.3,4.9,9.6,5,12
			c0,0.9,1.3,11.3-0.5,12.8c-7,2.1-16,1.9-23.6,3c-40.5,8.6-24.4,36.7-26,39.7h79.8H197C200.8,232.1,188.6,213.1,172.9,208.9z"/>
	</g>
	<g>
		<polygon class="st2" points="226.1,110.5 226.1,54.4 242.7,54.4 252.6,92.6 262.3,54.4 279,54.4 279,110.5 268.7,110.5 
			268.7,66.3 257.9,110.5 247.2,110.5 236.4,66.3 236.3,110.5 226.1,110.5 		"/>
		<path class="st2" d="M339.6,110.5h-12l-4.7-12.8h-22l-4.6,12.8h-11.8l21.3-56.1h11.8L339.6,110.5L339.6,110.5z M319.3,88.2
			l-7.6-20.8l-7.4,20.8H319.3L319.3,88.2z"/>
		<polygon class="st2" points="345.6,110.5 345.6,54.4 356.3,54.4 378.9,92 378.9,54.4 389.2,54.4 389.2,110.5 378.1,110.5 
			355.8,73.6 355.8,110.5 345.6,110.5 		"/>
		<polygon class="st2" points="401,110.5 401,54.4 441.7,54.4 441.7,63.9 412.1,63.9 412.1,76.3 439.6,76.3 439.6,85.8 412.1,85.8 
			412.1,101 442.7,101 442.7,110.5 401,110.5 		"/>
		<polygon class="st2" points="452.3,110.5 452.3,54.4 463.5,54.4 463.5,79.2 485.9,54.4 500.8,54.4 480.1,76.2 501.9,110.5 
			487.5,110.5 472.4,84.1 463.5,93.5 463.5,110.5 452.3,110.5 		"/>
		<polygon class="st2" points="507.6,110.5 507.6,54.4 548.3,54.4 548.3,63.9 518.7,63.9 518.7,76.3 546.2,76.3 546.2,85.8 
			518.7,85.8 518.7,101 549.3,101 549.3,110.5 507.6,110.5 		"/>
		<polygon class="st2" points="558.8,110.5 558.8,54.4 569.6,54.4 592.2,92 592.2,54.4 602.4,54.4 602.4,110.5 591.3,110.5 
			569.1,73.6 569.1,110.5 558.8,110.5 		"/>
		<path class="st2" d="M614.2,110.5V54.4H632c6.7,0,11.1,0.3,13.2,0.8c3.1,0.8,5.8,2.7,7.9,5.5c2.1,2.8,3.2,6.5,3.2,10.9
			c0,3.4-0.6,6.3-1.8,8.7c-1.2,2.4-2.8,4.2-4.7,5.5c-1.9,1.3-3.8,2.2-5.7,2.7c-2.6,0.5-6.5,0.8-11.5,0.8h-7.2v21.2H614.2
			L614.2,110.5z M625.3,63.9v16h6.1c4.4,0,7.3-0.3,8.7-0.9c1.5-0.6,2.6-1.5,3.5-2.8c0.8-1.3,1.3-2.7,1.3-4.4c0-2.1-0.6-3.7-1.8-5.1
			c-1.2-1.3-2.6-2.2-4.5-2.5c-1.3-0.2-4-0.4-8-0.4H625.3L625.3,63.9z"/>
		<polygon class="st2" points="665.7,110.5 665.7,54.8 676.8,54.8 676.8,101 704.4,101 704.4,110.5 665.7,110.5 		"/>
		<path class="st2" d="M712.3,54.4h11.1v30.4c0,4.8,0.1,8,0.4,9.4c0.5,2.3,1.6,4.2,3.3,5.5c1.8,1.4,4.2,2.1,7.3,2.1
			c3.1,0,5.5-0.7,7-2c1.6-1.3,2.5-2.9,2.8-4.8c0.3-1.9,0.5-5.1,0.5-9.5V54.4h11.1v29.5c0,6.7-0.3,11.5-0.9,14.3
			c-0.6,2.8-1.7,5.1-3.3,7.1c-1.6,1.9-3.7,3.4-6.4,4.6c-2.7,1.1-6.2,1.7-10.5,1.7c-5.2,0-9.2-0.6-11.9-1.9c-2.7-1.2-4.8-2.8-6.4-4.8
			c-1.6-2-2.6-4-3.1-6.2c-0.7-3.2-1.1-8-1.1-14.3V54.4L712.3,54.4z"/>
		<path class="st2" d="M764.8,92.3l10.8-1.1c0.6,3.7,2,6.4,3.9,8.1c2,1.7,4.7,2.6,8,2.6c3.6,0,6.2-0.8,8-2.3
			c1.8-1.5,2.7-3.3,2.7-5.4c0-1.3-0.4-2.5-1.1-3.4c-0.8-0.9-2.1-1.7-4-2.4c-1.3-0.5-4.2-1.3-8.8-2.5c-5.9-1.5-10.1-3.4-12.5-5.6
			c-3.4-3.1-5-6.9-5-11.3c0-2.9,0.8-5.6,2.4-8c1.6-2.5,3.9-4.4,6.8-5.7c3-1.3,6.6-2,10.8-2c6.9,0,12,1.6,15.5,4.7
			c3.5,3.1,5.3,7.3,5.5,12.5l-11.1,0.4c-0.5-2.9-1.5-5-3-6.2c-1.5-1.3-3.9-1.9-7-1.9c-3.2,0-5.7,0.7-7.5,2c-1.2,0.9-1.8,2-1.8,3.5
			c0,1.3,0.6,2.5,1.6,3.4c1.4,1.2,4.8,2.5,10.2,3.8c5.4,1.3,9.4,2.7,11.9,4c2.6,1.4,4.6,3.3,6.1,5.7c1.5,2.4,2.2,5.4,2.2,8.9
			c0,3.2-0.9,6.2-2.6,9c-1.8,2.8-4.2,4.9-7.4,6.3c-3.2,1.4-7.2,2.1-12,2.1c-6.9,0-12.3-1.6-16-4.9
			C767.7,103.3,765.5,98.6,764.8,92.3L764.8,92.3z"/>
	</g>
	<line class="st3" x1="225.5" y1="20.3" x2="810" y2="20.3"/>
	<line class="st3" x1="225.5" y1="147.8" x2="810" y2="147.8"/>
	<text transform="matrix(1 0 0 1 225.5244 214.8517)" class="st2 st4 st5 st6">first mannequin factory</text>
</g>
</svg>
