<?xml version="1.0" encoding="utf-8"?>
<!-- Generator: Adobe Illustrator 25.2.0, SVG Export Plug-In . SVG Version: 6.00 Build 0)  -->
<svg version="1.1" id="Слой_1" xmlns="http://www.w3.org/2000/svg" xmlns:xlink="http://www.w3.org/1999/xlink" x="0px" y="0px"
	 viewBox="0 0 1248 194.9" style="enable-background:new 0 0 1248 194.9;" xml:space="preserve">
<style type="text/css">
	.st0{fill-rule:evenodd;clip-rule:evenodd;fill:#D94F47;}
	.st1{fill:#FFFFFF;}
</style>
<g>
	<path class="st0" d="M163,40c2.8,0.9,4.7,2.1,5.4,3.8c2.2,6.2-1.9,10.4-4.7,12.8c6.2,11.4,9.7,24.4,9.7,38
		c0,44.6-36.1,80.7-80.7,80.7c-18.8,0-36.1-6.2-49.8-16.9c-0.2-0.3-0.2-0.3-0.2-0.3c-5.7,3.8-7.3,4.8-7.3,4.8
		c-0.3,0.2-1.4,0.3-1.9,0.3c-1.2,0-2.1-0.3-2.6-1l0,0c0.7,0,1.4-0.3,1.9-0.5c0,0,3.8-2.1,23.3-16.6c13.6-10,37.3-28.8,58.4-47.5
		c24.2-21.2,44.7-40.6,46.6-41.8c2.4-2.8,6.7-6.7,4.1-13.1C165.1,41.6,164.2,40.7,163,40L163,40z M149.9,37.6
		c-5.9-0.3-12.8-0.3-16.9-0.3c-9.8,0-38,1.2-46,3.5c-2.6,0.7-3.8,2.2-3.8,4c0,1.4,0.5,2.4,1.4,2.9c0,0,12.8,7.6,13.3,8.1
		c1,0.7,1.6,1.9,0,3.8c-1.2,1.7-1.4,1.9-1.4,1.9S80.1,83.2,72.6,92.3c-4.8,7.3-28.8,41.5-39.6,57C20.1,135,12,116,12,94.6
		C12,50,48.1,14.3,92.7,14.3C114.6,14.3,134.8,23.2,149.9,37.6L149.9,37.6z"/>
	<g>
		<g>
			<path class="st1" d="M288.4,28.1v99.2c0,21.9-19.2,38.5-44.5,38.5c-25.3,0-44.5-16.6-44.5-38.5V51.4c0-12.8,10.3-23.3,23.1-23.3
				h1.6v99c0,11.8,10.5,19,20.6,19c9.8,0,20.2-6.7,20.2-19v-77c0-12.1,9.9-22,22-22H288.4z"/>
			<path class="st1" d="M337.2,63.2c33.8,0,39.2,19,39.2,30.4v70.8h-1.1c-12.5,0-23.1-10.5-23.1-22.9V93.9c0-6.7-2.7-14.6-15.9-14.6
				c-6.1,0-9.8,0.7-13.7,2.2c0,1.6,0,83,0,83h-24.2V70.6C308.6,66.1,325.3,63.2,337.2,63.2z"/>
			<path class="st1" d="M399.1,28.1c7.2,0,13,5.4,13,12.1c0,6.5-5.8,11.7-13,11.7c-7.2,0-13.2-5.2-13.2-11.7
				C385.9,33.5,391.9,28.1,399.1,28.1z M411,63.2v78.4c0,12.5-10.1,22.8-22.8,22.8h-1.1V63.2H411z"/>
			<path class="st1" d="M479.8,26.1c11.4,0,22,2.5,30.9,8v23.9c-5.4-7-13.2-11.9-25.7-11.9c-24.6,0-39.8,24.2-39.8,49.3
				c0,23.7,15.9,49.5,39.8,49.5c10.5,0,20.1-3.1,25.7-10.7v23.5c-7,5.2-18.1,8.1-31.1,8.1c-39,0-59.6-35.8-59.6-70.3
				C420,61.5,440.6,26.1,479.8,26.1z"/>
			<path class="st1" d="M553.5,63.2c4,0,9,0.4,13.6,1.1v19.3c-8.3-6-19.3-4-24.2-1.4v59.5c0,12.5-10.3,22.8-22.8,22.8h-1.3V70.9
				C528.2,66.4,537.8,63.2,553.5,63.2z"/>
			<path class="st1" d="M650.9,114.8l-60.2,8.3c2,16.4,10.3,25.1,25.5,25.1c16.8,0,25.3-5.4,31.4-9.8v20.1
				c-6.1,3.3-17.5,7.2-33.8,7.2c-29.5,0-47-19.9-47-51.7c0-30.9,16.3-51,43-51c26.4,0,41,17.5,41,47.9V114.8z M630,101.1
				c-0.7-20.1-13.2-22.2-19.9-22.2h-0.9c-13.6,0.4-19.9,9.9-19.9,27.8L630,101.1z"/>
			<path class="st1" d="M737.7,28.1v135c-5.8,1.3-24.8,2.7-32.7,2.7h-1.6c-29.5-0.4-45.5-17.3-45.5-47.9c0-30.9,16.8-50.8,42.8-50.8
				c5.1,0,9.4,0.5,13.2,1.4V51.1c0-12.7,10.1-23,22.8-23H737.7z M714,82.7c-2.5-0.7-5.2-1.1-8.3-1.1c-19.9,0-24,19.2-24,35.1
				c0,22.2,7.4,33.3,22.4,33.3c2.5,0,8.1-0.5,9.9-0.9V82.7z"/>
			<path class="st1" d="M760.9,28.1c7.2,0,13,5.4,13,12.1c0,6.5-5.8,11.7-13,11.7c-7.2,0-13.2-5.2-13.2-11.7
				C747.7,33.5,753.7,28.1,760.9,28.1z M772.8,63.2v78.4c0,12.5-10.1,22.8-22.8,22.8H749V63.2H772.8z"/>
			<path class="st1" d="M815.1,28.1v35.1h15.5v19.3h-15.5v53.7c0,6.5,2.2,8.5,9.2,8.5c1.8,0,4.5-0.5,6.3-1.3v20.1
				c-1.1,0.4-5.8,2.3-12.1,2.3c-17.7,0-27.5-8.7-27.5-24.4V82.5h-10.5V63.2h10.5V50.9c0-12.5,10.1-22.8,22.6-22.8H815.1z"/>
			<path class="st1" d="M941.7,90.8v0.5c13,2.5,31,13.9,31,33.9c0,27.2-21.7,39.1-53.6,39.1c-30.4,0-41.5-0.5-41.5-0.5V33.4
				c8.5-4.3,22.8-7.6,39.8-7.6c33.7,0,50.5,14.7,50.5,34.8C968,79.2,953.7,88.3,941.7,90.8z M943,62.2c0-15-8.7-22.1-25.5-22.1
				c-6.2,0-10.9,0.7-15.6,2.2v43.1l8,0.2C934.6,86.3,943,78.7,943,62.2z M909.8,97.9l-8,0.2v50.7c4.5,0,9.4,0,16.3,0
				c16.7,0,28.6-6.3,28.6-23.9C946.8,106,936.3,97.2,909.8,97.9z"/>
			<path class="st1" d="M1032.4,100.4v-6.7c0-12.9-8-16.3-19.6-16.3c-9.6,0-19.2,3.6-29.9,9.2V70.5c6.3-3.1,18.3-7.6,33.9-7.6
				c20.5,0,37.5,10.3,37.5,35.7v64.5c-6.7,1.3-22.3,2.7-31.7,2.7h-5.1c-26.8,0-40.8-11.2-40.8-30.2
				C976.8,109.5,1002.1,103.3,1032.4,100.4z M1032.4,111.7c-21.2,2-34,6.3-34,23.2c0,12.5,7.6,18.1,20.6,18.1c5.1,0,11-0.4,13.4-0.9
				V111.7z"/>
			<path class="st1" d="M1103.5,62.9c33.9,0,39.3,19,39.3,30.4v71h-1.1c-12.5,0-23.2-10.5-23.2-23V93.7c0-6.7-2.7-14.7-15.9-14.7
				c-6.2,0-9.8,0.7-13.8,2.2c0,1.6,0,83.1,0,83.1h-24.3v-94C1074.8,65.8,1091.5,62.9,1103.5,62.9z"/>
			<path class="st1" d="M1177.3,140.8c0,13-10.1,23.5-23.7,23.5h-0.2v-113c0-13,10.1-23.5,23.7-23.5h0.2V110l30.1-44.6h22.6
				l-31,45.3l36.2,53.6h-25.4l-32.6-50.2V140.8z"/>
		</g>
	</g>
</g>
</svg>
