<svg xmlns="http://www.w3.org/2000/svg" width="202" height="155" fill="none"><path fill="url(#a)" d="M47.6 59.8c.5-2.2.5-4.4 0-6.6 0 0-5.1 10.7-11 14.9 0 0 7.9-10.7 9.2-16.4 1.4-5.7-1.1-8.6-1.1-8.6s-2.3 13.2-8.9 19.4c0 0 6.7-10 7-21.7-.5-2.5-1.5-4.8-3.1-6.8-1.2 7.3-3.4 14.5-6.5 21.2-5.1 11.2-6.3 11.1-6.3 11.1s-7.2-3.7-11.4-2.7-5 1.6-5.4 2c-.3.3-.3.8-.1 1.1 0 0-2.7 1.7-2.6 3.6 0 1 .6 1.9 1.4 2.4-.1-.7.3-1.5.9-1.9.5-.5 1.2-.7 1.9-.6 1.4.5 2.5 1.5 3.2 2.9.6 1.7-.2 2-.1 3.7.1 1.7 4 7.4 6.2 9.7 2.3 2.2 5.5 5.2 7.6 5.9l-4.9 3.5v4.6C18.2 98 8.8 92.7 5.7 83.2c-1-3.4-1.6-6.9-1.9-10.5-.5-4.9-.5-9.8-.1-14.8l19.6-5.1 7.9 2.1 1.1-3-8.7-2.3L.5 55.4c-.3 3.2-.5 6.3-.5 9.5 0 3.8.3 6.8.5 8.1.4 3.9 1.7 12.2 5.2 17.6l.3.4c1.7 2.3 3.6 4.5 5.8 6.3 3.5 2.8 7.3 5 11.4 6.6 0 0 11.3-3.7 16.2-10.5 3-4.3 5.1-9.1 6.3-14.2 0 0-6.8 4.2-10.5 5.2l10.9-7.6c.7-1.8 1-3.8.9-5.8-3.2 3.1-6.9 5.8-10.9 7.8 0 0 9.3-7.9 11.4-10.9v-5.4s-5.7 7.9-10.9 10.3c.1.2 9.6-9.2 11-13Zm-33.2 7.7-1.8-1.2 3.2-1-1.4 2.2Z"/><path fill="url(#b)" d="M72.7 67.1v2.2h-2.4c-.6-.1-1.2.1-1.7.4-.4.5-.5 1.1-.4 1.8v21.4c-.1.6.1 1.3.4 1.8.5.3 1.1.5 1.7.4h2.4v2.2H56v-2.2h2.4c.6.1 1.2-.1 1.7-.4.4-.5.5-1.1.4-1.8V71.5c.1-.6-.1-1.3-.4-1.8-.5-.3-1.1-.5-1.7-.4H56v-2.2h16.7Z"/><path fill="url(#c)" d="M93.3 67.1v2.2h-2.4c-.6-.1-1.2.1-1.7.4-.4.5-.5 1.2-.4 1.8v21.4c-.1.6.1 1.2.4 1.8.5.3 1.1.5 1.7.4h2.4v2.2H76.6v-2.2h2.3c.6.1 1.2-.1 1.7-.4.4-.5.5-1.1.4-1.8V71.5c.1-.6-.1-1.3-.4-1.8-.5-.3-1.1-.5-1.7-.4h-2.3v-2.2h16.7Z"/><path fill="url(#d)" d="M123.3 87c-.5 3.2-2.2 6-4.6 8.1-2.5 2-5.7 3-8.9 2.8-1.7 0-3.5-.2-5.1-.7-1.6-.5-3-1.2-4.3-2.2-2-1.5-3.5-3.4-4.6-5.6-1.9-4.2-2.1-8.9-.5-13.3.7-1.8 1.7-3.5 3-5 1.4-1.6 3.2-2.8 5.1-3.6 2.1-.8 4.4-1.2 6.7-1.2 1.4 0 2.9.2 4.3.6 1.3.4 2.5 1 3.6 1.8l2.4-2.1h1.8l.6 12.2-2.2.2c-.6-2.9-1.9-5.6-3.9-7.8-1.6-1.7-3.7-2.6-6-2.6-2.5-.2-4.9 1-6.2 3.2-1.3 2.1-1.9 5.5-1.9 10.2 0 4.7.7 8.2 2 10.3 1.3 2 3.5 3.1 6.6 3.1 2.2 0 4.4-.8 6.1-2.3 1.8-1.8 3.1-4.2 3.7-6.7l2.3.6Z"/><path fill="url(#e)" d="M137.3 65.4c0 .4-.3.7-.6.7h-.1c-.4 0-.7-.3-.7-.6 0-.4.3-.7.7-.7.4-.1.7.2.7.6ZM136 73v-5.9h1.1V73H136Z"/><path fill="url(#f)" d="M139 68.7v-1.6h.9v1c.4-.7 1.2-1.1 2-1.1s2.1.5 2.1 2.5v3.6h-1.1v-3.4c0-.9-.4-1.8-1.4-1.8-.7 0-1.3.4-1.5 1.1v4.1h-1.1l.1-4.4Z"/><path fill="url(#g)" d="M147.2 65.4v1.7h1.6v.9h-1.6v3.2c0 .7.2 1.2.8 1.2.2 0 .4 0 .6-.1v.8c-.3.1-.6.2-1 .1-.4 0-.9-.1-1.2-.4-.3-.4-.5-1-.4-1.5v-3.2h-.9v-.8h.9v-1.5l1.2-.4Z"/><path fill="url(#h)" d="M150.5 70.2c-.1 1.1.7 2 1.8 2.1h.3c.6 0 1.1-.1 1.7-.3l.2.8c-.6.3-1.3.4-2 .4-1.5.1-2.9-1-3-2.6v-.4c-.2-1.6 1-3 2.6-3.2h.2c1.4 0 2.5 1.2 2.5 2.6v.7h-4.3v-.1Zm3.2-.7c.1-.8-.5-1.6-1.3-1.7h-.2c-.9.1-1.7.8-1.7 1.8h3.2v-.1Z"/><path fill="url(#i)" d="M156.1 68.9V67h1v1.2c.2-.8.9-1.3 1.7-1.4h.3v1.1h-.4c-.8 0-1.4.6-1.5 1.4V73h-1.1v-4.1Z"/><path fill="url(#j)" d="M160.3 68.7v-1.6h1v1c.4-.7 1.2-1.1 2-1.1s2.1.5 2.1 2.5v3.6h-1.1v-3.4c0-.9-.4-1.8-1.4-1.8-.7 0-1.3.4-1.5 1.1v4.1h-1.1v-4.4Z"/><path fill="url(#k)" d="m170.6 73-.1-.7c-.4.6-1.1.9-1.9.9-.9.1-1.8-.6-1.8-1.6v-.1c0-1.4 1.4-2.2 3.6-2.2v-.1c.1-.7-.4-1.3-1.1-1.4h-.3c-.6 0-1.1.2-1.6.4l-.3-.7c.6-.4 1.3-.5 2-.5 1.2-.1 2.2.8 2.3 2v2.6c0 .5 0 1 .1 1.4h-.9Zm-.2-3c-1.2 0-2.6.2-2.6 1.4 0 .5.4 1 .9 1h.1c.7 0 1.2-.4 1.5-1V71l.1-1Z"/><path fill="url(#l)" d="M174.5 65.4v1.7h1.6v.9h-1.6v3.2c0 .7.2 1.2.8 1.2.2 0 .4 0 .6-.1v.8c-.3.1-.6.2-1 .1-.4 0-.9-.1-1.2-.4-.3-.4-.5-1-.4-1.5v-3.2h-.9v-.8h.9v-1.5l1.2-.4Z"/><path fill="url(#m)" d="M178.5 65.4c0 .4-.3.7-.6.7h-.1c-.4 0-.7-.3-.7-.6 0-.4.3-.7.7-.7.4-.1.7.2.7.6Zm-1.2 7.6v-5.9h1.1V73h-1.1Z"/><path fill="url(#n)" d="M185.7 70c.1 1.6-1.1 3-2.7 3.2h-.3c-1.6 0-2.9-1.2-2.9-2.8v-.3c-.1-1.6 1.1-3 2.7-3.1h.3c1.6 0 2.9 1.2 2.9 2.7v.3Zm-4.8.1c0 1.4.8 2.3 1.8 2.3 1.1 0 1.8-1 1.8-2.3 0-1-.5-2.3-1.8-2.3-1.2-.1-1.8 1.1-1.8 2.3Z"/><path fill="url(#o)" d="M187.1 68.7v-1.6h1l.1 1c.4-.7 1.2-1.1 2-1.1s2.1.5 2.1 2.5v3.6h-1.1v-3.4c0-.9-.4-1.8-1.4-1.8-.7 0-1.3.4-1.5 1.1-.1.2-.1.3-.1.5v3.6h-1.1v-4.4Z"/><path fill="url(#p)" d="m197.4 73-.1-.7c-.4.6-1.1.9-1.8.9-.9.1-1.8-.6-1.8-1.6v-.1c0-1.4 1.4-2.2 3.6-2.2v-.1c.1-.7-.4-1.3-1.1-1.4h-.3c-.6 0-1.1.2-1.6.4l-.3-.7c.6-.4 1.3-.5 2-.5 1.2-.1 2.2.8 2.2 2v2.6c0 .5 0 1 .1 1.4h-.9Zm-.2-3c-1.2 0-2.6.2-2.6 1.4 0 .5.4 1 .9 1h.1c.7 0 1.2-.4 1.5-1 0-.1.1-.2.1-.4v-1Z"/><path fill="url(#q)" d="M201.1 71.9v-7.6H200V73h2v-1.1h-.9Z"/><path fill="url(#r)" d="M140.4 96.5c-.5.2-1.1.4-1.7.3-1.6.1-2.9-1.1-3-2.6v-.4c-.1-1.7 1.2-3.1 2.9-3.2h.3c.5 0 1 .1 1.5.3l-.2.8c-.4-.2-.8-.3-1.3-.3-1.2.1-2.2 1.2-2.1 2.4.1 1.1 1 2 2.1 2.1.5 0 .9-.1 1.4-.3l.1.9Z"/><path fill="url(#s)" d="M147 93.7c.1 1.6-1.1 3-2.7 3.1h-.3c-1.6 0-2.8-1.3-2.8-2.9v-.2c-.1-1.6 1.1-3 2.7-3.2h.3c1.6 0 2.9 1.3 2.9 2.8 0 .3-.1.4-.1.4Zm-4.8 0c-.1 1.1.7 2.1 1.8 2.3h.1c1 0 1.8-1 1.8-2.3 0-1-.5-2.3-1.8-2.3s-1.9 1.2-1.9 2.3Z"/><path fill="url(#t)" d="M148.4 92.4v-1.6h.9v1c.4-.7 1.1-1.1 1.9-1.1.8 0 1.5.5 1.7 1.2.2-.3.4-.6.7-.8.4-.3.9-.4 1.4-.4.8 0 2 .5 2 2.6v3.5h-1.1v-3.4c0-1.1-.4-1.8-1.4-1.8-.6 0-1.2.4-1.4 1-.1.2-.1.4-.1.5v3.7h-1.1v-3.6c0-.9-.4-1.6-1.3-1.6-.6 0-1.2.5-1.4 1.1-.1.2-.1.3-.1.5v3.6H148l.4-4.4Z"/><path fill="url(#u)" d="M158.8 92.7v-1.9h1v1c.5-.7 1.3-1.2 2.2-1.2 1.5.1 2.7 1.3 2.6 2.8v.3c.2 1.5-.9 3-2.4 3.2h-.3c-.7 0-1.4-.3-1.9-.9v3.2h-1.1v-6.5h-.1Zm1.1 1.6v.4c.2.7.9 1.3 1.6 1.3 1.2 0 1.8-.9 1.8-2.3s-.6-2.2-1.8-2.2c-.8 0-1.5.6-1.7 1.4 0 .1-.1.3-.1.4l.2 1Z"/><path fill="url(#v)" d="m169.3 96.7-.1-.7c-.4.6-1.1.9-1.8.9-.9.1-1.8-.6-1.9-1.5v-.2c0-1.4 1.4-2.2 3.6-2.2v-.1c.1-.7-.4-1.3-1.1-1.4h-.3c-.6 0-1.1.2-1.6.4l-.2-.7c.6-.4 1.3-.5 2-.5 1.8 0 2.3 1.2 2.3 2.4v2.2c0 .5 0 1 .1 1.4h-1Zm-.2-3c-1.2 0-2.6.2-2.6 1.4 0 .5.4 1 .9 1h.2c.6 0 1.2-.4 1.5-1V93.7Z"/><path fill="url(#w)" d="M172 92.4v-1.6h1v1c.4-.7 1.2-1.1 2-1.1s2.1.5 2.1 2.5v3.6H176v-3.5c0-1-.4-1.8-1.4-1.8-.7 0-1.3.5-1.5 1.1v4.1H172v-4.3Z"/><path fill="url(#x)" d="m179.2 90.8 1.4 3.5c.1.4.3.9.4 1.2.1-.4.2-.8.4-1.2l1.2-3.5h1.2L182 95c-.4 1.4-1.1 2.7-2.1 3.7-.4.3-.9.6-1.4.7l-.3-.9c.4-.1.7-.3 1-.5.4-.3.7-.7.9-1.2 0-.1.1-.2.1-.3 0-.1 0-.2-.1-.3l-2.2-5.4h1.3Z"/><path fill="url(#y)" d="M137.3 77.2c0 .4-.3.7-.6.7h-.1c-.4 0-.6-.3-.7-.6v-.1c0-.4.3-.7.6-.7.4 0 .7.2.8.7 0-.1 0-.1 0 0Zm-1.3 7.6v-6h1.1v5.9l-1.1.1Z"/><path fill="url(#z)" d="M139 80.4v-1.6h.9v1c.4-.7 1.2-1.1 2-1.1s2.1.5 2.1 2.5v3.5h-1.1v-3.4c0-1-.4-1.8-1.4-1.8-.7 0-1.3.4-1.5 1.1v4.1h-1.1l.1-4.3Z"/><path fill="url(#A)" d="M145.8 83.7c.4.3.9.4 1.5.4.8 0 1.2-.4 1.2-.9s-.3-.8-1.1-1.1c-1.1-.4-1.6-1-1.6-1.7.1-1 .9-1.8 2-1.8h.1c.5 0 1 .1 1.5.4l-.3.8c-.4-.2-.8-.3-1.2-.3-.7 0-1 .4-1 .8s.4.7 1.1 1c1.1.4 1.6.9 1.6 1.8s-.8 1.8-2.3 1.8c-.6 0-1.2-.1-1.7-.4l.2-.8Z"/><path fill="url(#B)" d="M155.9 83.2v1.6h-1v-1c-.4.7-1.2 1.1-2 1.1-.9 0-2.1-.5-2.1-2.6v-3.5h1.1v3.3c0 1.1.4 1.9 1.4 1.9.6 0 1.2-.4 1.5-1 .1-.2.1-.4.1-.6v-3.6h1.1l-.1 4.4Z"/><path fill="url(#C)" d="M157.7 80.7v-1.8h1v1.2c.2-.8.9-1.3 1.7-1.4h.3v1h-.4c-.8 0-1.4.6-1.5 1.4v3.7h-1.1v-4.1Z"/><path fill="url(#D)" d="m165.1 84.8-.1-.7c-.4.6-1.1.9-1.8.9-.9.1-1.8-.6-1.9-1.6v-.2c0-1.4 1.4-2.2 3.6-2.2v-.1c.1-.7-.4-1.3-1.1-1.4h-.3c-.6 0-1.1.2-1.6.4l-.2-.7c.6-.3 1.3-.5 2-.5 1.8 0 2.3 1.2 2.3 2.4v2.2c0 .5 0 .9.1 1.4l-1 .1Zm-.2-3.1c-1.2 0-2.6.2-2.6 1.4 0 .5.4 1 .9 1h.2c.6 0 1.2-.4 1.5-1V81.7Z"/><path fill="url(#E)" d="M167.8 80.4v-1.6h1v1c.4-.7 1.2-1.1 2-1.1s2.1.5 2.1 2.5v3.5h-1.1v-3.4c0-1-.4-1.8-1.4-1.8-.7 0-1.3.4-1.5 1.1v4.1h-1.1v-4.3Z"/><path fill="url(#F)" d="M179 84.6c-.5.2-1.1.4-1.7.3-1.6.1-2.9-1.1-3-2.6v-.4c-.1-1.7 1.2-3.1 2.9-3.2h.3c.5 0 1 .1 1.5.3l-.2.8c-.4-.2-.8-.3-1.3-.3-1.2.1-2.2 1.2-2.1 2.4.1 1.1 1 2 2.1 2.1.5 0 .9-.1 1.4-.3l.1.9Z"/><path fill="url(#G)" d="M180.8 82c-.1 1.1.7 2 1.8 2.1h.3c.6 0 1.1-.1 1.7-.3l.2.8c-.6.3-1.3.4-2 .4-1.5.2-2.8-.9-3-2.4V82c-.2-1.6 1-3 2.6-3.2h.2c1.4 0 2.5 1.1 2.5 2.5v.8l-4.3-.1Zm3.2-.8c.1-.8-.5-1.6-1.3-1.7h-.2c-.9.1-1.7.8-1.7 1.8h3.2v-.1Z"/><path fill="url(#H)" d="M137.2 78.8h-1.8v.7h1.8v-.7Z"/><defs><linearGradient id="a" x1="-2.722" x2="199.946" y1="68.978" y2="68.978" gradientUnits="userSpaceOnUse"><stop stop-color="#1C8AE2"/><stop offset=".486" stop-color="#8B00B3"/><stop offset="1" stop-color="#6900B5"/></linearGradient><linearGradient id="b" x1="-2.722" x2="199.946" y1="82.175" y2="82.175" gradientUnits="userSpaceOnUse"><stop stop-color="#1C8AE2"/><stop offset=".486" stop-color="#8B00B3"/><stop offset="1" stop-color="#6900B5"/></linearGradient><linearGradient id="c" x1="-2.723" x2="199.946" y1="82.175" y2="82.175" gradientUnits="userSpaceOnUse"><stop stop-color="#1C8AE2"/><stop offset=".486" stop-color="#8B00B3"/><stop offset="1" stop-color="#6900B5"/></linearGradient><linearGradient id="d" x1="-2.722" x2="199.947" y1="82.209" y2="82.209" gradientUnits="userSpaceOnUse"><stop stop-color="#1C8AE2"/><stop offset=".486" stop-color="#8B00B3"/><stop offset="1" stop-color="#6900B5"/></linearGradient><linearGradient id="e" x1="-2.723" x2="199.947" y1="68.87" y2="68.87" gradientUnits="userSpaceOnUse"><stop stop-color="#1C8AE2"/><stop offset=".486" stop-color="#8B00B3"/><stop offset="1" stop-color="#6900B5"/></linearGradient><linearGradient id="f" x1="-2.722" x2="199.947" y1="69.975" y2="69.975" gradientUnits="userSpaceOnUse"><stop stop-color="#1C8AE2"/><stop offset=".486" stop-color="#8B00B3"/><stop offset="1" stop-color="#6900B5"/></linearGradient><linearGradient id="g" x1="-2.722" x2="199.946" y1="69.278" y2="69.278" gradientUnits="userSpaceOnUse"><stop stop-color="#1C8AE2"/><stop offset=".486" stop-color="#8B00B3"/><stop offset="1" stop-color="#6900B5"/></linearGradient><linearGradient id="h" x1="-2.722" x2="199.947" y1="70.04" y2="70.04" gradientUnits="userSpaceOnUse"><stop stop-color="#1C8AE2"/><stop offset=".486" stop-color="#8B00B3"/><stop offset="1" stop-color="#6900B5"/></linearGradient><linearGradient id="i" x1="-2.723" x2="199.946" y1="69.924" y2="69.924" gradientUnits="userSpaceOnUse"><stop stop-color="#1C8AE2"/><stop offset=".486" stop-color="#8B00B3"/><stop offset="1" stop-color="#6900B5"/></linearGradient><linearGradient id="j" x1="-2.722" x2="199.946" y1="69.975" y2="69.975" gradientUnits="userSpaceOnUse"><stop stop-color="#1C8AE2"/><stop offset=".486" stop-color="#8B00B3"/><stop offset="1" stop-color="#6900B5"/></linearGradient><linearGradient id="k" x1="-2.723" x2="199.946" y1="70.05" y2="70.05" gradientUnits="userSpaceOnUse"><stop stop-color="#1C8AE2"/><stop offset=".486" stop-color="#8B00B3"/><stop offset="1" stop-color="#6900B5"/></linearGradient><linearGradient id="l" x1="-2.722" x2="199.947" y1="69.278" y2="69.278" gradientUnits="userSpaceOnUse"><stop stop-color="#1C8AE2"/><stop offset=".486" stop-color="#8B00B3"/><stop offset="1" stop-color="#6900B5"/></linearGradient><linearGradient id="m" x1="-2.722" x2="199.946" y1="68.87" y2="68.87" gradientUnits="userSpaceOnUse"><stop stop-color="#1C8AE2"/><stop offset=".486" stop-color="#8B00B3"/><stop offset="1" stop-color="#6900B5"/></linearGradient><linearGradient id="n" x1="-2.723" x2="199.946" y1="70.043" y2="70.043" gradientUnits="userSpaceOnUse"><stop stop-color="#1C8AE2"/><stop offset=".486" stop-color="#8B00B3"/><stop offset="1" stop-color="#6900B5"/></linearGradient><linearGradient id="o" x1="-2.722" x2="199.946" y1="69.975" y2="69.975" gradientUnits="userSpaceOnUse"><stop stop-color="#1C8AE2"/><stop offset=".486" stop-color="#8B00B3"/><stop offset="1" stop-color="#6900B5"/></linearGradient><linearGradient id="p" x1="-2.721" x2="199.947" y1="70.05" y2="70.05" gradientUnits="userSpaceOnUse"><stop stop-color="#1C8AE2"/><stop offset=".486" stop-color="#8B00B3"/><stop offset="1" stop-color="#6900B5"/></linearGradient><linearGradient id="q" x1="-2.722" x2="199.946" y1="68.653" y2="68.653" gradientUnits="userSpaceOnUse"><stop stop-color="#1C8AE2"/><stop offset=".486" stop-color="#8B00B3"/><stop offset="1" stop-color="#6900B5"/></linearGradient><linearGradient id="r" x1="-2.726" x2="199.943" y1="93.703" y2="93.703" gradientUnits="userSpaceOnUse"><stop stop-color="#1C8AE2"/><stop offset=".486" stop-color="#8B00B3"/><stop offset="1" stop-color="#6900B5"/></linearGradient><linearGradient id="s" x1="-2.722" x2="199.947" y1="93.766" y2="93.766" gradientUnits="userSpaceOnUse"><stop stop-color="#1C8AE2"/><stop offset=".486" stop-color="#8B00B3"/><stop offset="1" stop-color="#6900B5"/></linearGradient><linearGradient id="t" x1="-2.722" x2="199.946" y1="93.675" y2="93.675" gradientUnits="userSpaceOnUse"><stop stop-color="#1C8AE2"/><stop offset=".486" stop-color="#8B00B3"/><stop offset="1" stop-color="#6900B5"/></linearGradient><linearGradient id="u" x1="-2.722" x2="199.946" y1="94.903" y2="94.903" gradientUnits="userSpaceOnUse"><stop stop-color="#1C8AE2"/><stop offset=".486" stop-color="#8B00B3"/><stop offset="1" stop-color="#6900B5"/></linearGradient><linearGradient id="v" x1="-2.722" x2="199.946" y1="93.742" y2="93.742" gradientUnits="userSpaceOnUse"><stop stop-color="#1C8AE2"/><stop offset=".486" stop-color="#8B00B3"/><stop offset="1" stop-color="#6900B5"/></linearGradient><linearGradient id="w" x1="-2.722" x2="199.946" y1="93.676" y2="93.676" gradientUnits="userSpaceOnUse"><stop stop-color="#1C8AE2"/><stop offset=".486" stop-color="#8B00B3"/><stop offset="1" stop-color="#6900B5"/></linearGradient><linearGradient id="x" x1="-2.722" x2="199.947" y1="95.109" y2="95.109" gradientUnits="userSpaceOnUse"><stop stop-color="#1C8AE2"/><stop offset=".486" stop-color="#8B00B3"/><stop offset="1" stop-color="#6900B5"/></linearGradient><linearGradient id="y" x1="-2.723" x2="199.947" y1="80.628" y2="80.628" gradientUnits="userSpaceOnUse"><stop stop-color="#1C8AE2"/><stop offset=".486" stop-color="#8B00B3"/><stop offset="1" stop-color="#6900B5"/></linearGradient><linearGradient id="z" x1="-2.722" x2="199.947" y1="81.733" y2="81.733" gradientUnits="userSpaceOnUse"><stop stop-color="#1C8AE2"/><stop offset=".486" stop-color="#8B00B3"/><stop offset="1" stop-color="#6900B5"/></linearGradient><linearGradient id="A" x1="-2.723" x2="199.946" y1="81.781" y2="81.781" gradientUnits="userSpaceOnUse"><stop stop-color="#1C8AE2"/><stop offset=".486" stop-color="#8B00B3"/><stop offset="1" stop-color="#6900B5"/></linearGradient><linearGradient id="B" x1="-2.722" x2="199.946" y1="81.858" y2="81.858" gradientUnits="userSpaceOnUse"><stop stop-color="#1C8AE2"/><stop offset=".486" stop-color="#8B00B3"/><stop offset="1" stop-color="#6900B5"/></linearGradient><linearGradient id="C" x1="-2.722" x2="199.947" y1="81.713" y2="81.713" gradientUnits="userSpaceOnUse"><stop stop-color="#1C8AE2"/><stop offset=".486" stop-color="#8B00B3"/><stop offset="1" stop-color="#6900B5"/></linearGradient><linearGradient id="D" x1="-2.723" x2="199.946" y1="81.818" y2="81.818" gradientUnits="userSpaceOnUse"><stop stop-color="#1C8AE2"/><stop offset=".486" stop-color="#8B00B3"/><stop offset="1" stop-color="#6900B5"/></linearGradient><linearGradient id="E" x1="-2.723" x2="199.946" y1="81.733" y2="81.733" gradientUnits="userSpaceOnUse"><stop stop-color="#1C8AE2"/><stop offset=".486" stop-color="#8B00B3"/><stop offset="1" stop-color="#6900B5"/></linearGradient><linearGradient id="F" x1="-2.722" x2="199.947" y1="81.801" y2="81.801" gradientUnits="userSpaceOnUse"><stop stop-color="#1C8AE2"/><stop offset=".486" stop-color="#8B00B3"/><stop offset="1" stop-color="#6900B5"/></linearGradient><linearGradient id="G" x1="-2.723" x2="199.947" y1="81.797" y2="81.797" gradientUnits="userSpaceOnUse"><stop stop-color="#1C8AE2"/><stop offset=".486" stop-color="#8B00B3"/><stop offset="1" stop-color="#6900B5"/></linearGradient><linearGradient id="H" x1="-2.722" x2="199.947" y1="79.204" y2="79.204" gradientUnits="userSpaceOnUse"><stop stop-color="#1C8AE2"/><stop offset=".486" stop-color="#8B00B3"/><stop offset="1" stop-color="#6900B5"/></linearGradient></defs></svg>