<?xml version="1.0" encoding="utf-8"?>
<!-- Generator: Adobe Illustrator 22.0.0, SVG Export Plug-In . SVG Version: 6.00 Build 0)  -->
<svg version="1.1" id="Layer_1" xmlns="http://www.w3.org/2000/svg" xmlns:xlink="http://www.w3.org/1999/xlink" x="0px" y="0px"
	 viewBox="0 0 68.528 25" style="enable-background:new 0 0 68.528 25;" xml:space="preserve">
<style type="text/css">
	.st0{fill-rule:evenodd;clip-rule:evenodd;fill:#A6AAAA;}
	.st1{fill-rule:evenodd;clip-rule:evenodd;fill:#F3792E;}
	.st2{fill-rule:evenodd;clip-rule:evenodd;fill:#F06022;}
	.st3{fill-rule:evenodd;clip-rule:evenodd;fill:#D95122;}
	.st4{fill-rule:evenodd;clip-rule:evenodd;fill:#F89A2C;}
	.st5{fill-rule:evenodd;clip-rule:evenodd;fill:#FFFFFF;}
	.st6{fill:#FFFFFF;}
	.st7{fill-rule:evenodd;clip-rule:evenodd;fill:#B4008D;}
	.st8{fill-rule:evenodd;clip-rule:evenodd;fill:#9DBC0A;}
	.st9{fill:none;stroke:#9DBC0A;stroke-width:0.1962;stroke-miterlimit:10;}
	.st10{fill-rule:evenodd;clip-rule:evenodd;fill:#DF3F17;}
	.st11{fill:none;stroke:#DF3F17;stroke-width:0.1962;stroke-miterlimit:10;}
	.st12{fill-rule:evenodd;clip-rule:evenodd;fill:#F5B208;}
	.st13{fill:none;stroke:#F5B208;stroke-width:0.1962;stroke-miterlimit:10;}
	.st14{fill:#9DBC0A;}
	.st15{fill:none;stroke:#9DBC0A;stroke-width:0.2023;stroke-miterlimit:10;}
	.st16{fill:none;stroke:#DF3F17;stroke-width:0.2023;stroke-miterlimit:10;}
	.st17{fill:none;stroke:#F5B208;stroke-width:0.2023;stroke-miterlimit:10;}
	.st18{fill-rule:evenodd;clip-rule:evenodd;fill:#85754E;}
	.st19{fill:#85754E;}
	.st20{fill-rule:evenodd;clip-rule:evenodd;fill:#1A171B;}
	.st21{fill:#016268;}
	.st22{fill:#00A9C2;}
	.st23{fill:#21427B;}
	.st24{fill:#FAE101;}
	.st25{fill-rule:evenodd;clip-rule:evenodd;fill:#32327F;}
	.st26{fill-rule:evenodd;clip-rule:evenodd;fill:#FCB813;}
	.st27{fill:#002169;}
	.st28{fill:#C6C7C8;}
	.st29{fill:#F79420;}
	.st30{fill:#FCB831;}
	.st31{fill:#FDDD2E;}
	.st32{fill:#F3C700;}
	.st33{fill:#DB6216;}
	.st34{fill:#EAA600;}
	.st35{fill:#E32427;}
	.st36{fill:#FFFFFF;stroke:#FFFFFF;stroke-width:0.1124;stroke-miterlimit:10;}
	.st37{fill:url(#SVGID_1_);}
	.st38{fill-rule:evenodd;clip-rule:evenodd;fill:#C1272D;}
	.st39{fill-rule:evenodd;clip-rule:evenodd;fill:url(#SVGID_2_);}
	.st40{fill-rule:evenodd;clip-rule:evenodd;fill:url(#SVGID_3_);}
	.st41{fill-rule:evenodd;clip-rule:evenodd;fill:url(#SVGID_4_);}
	.st42{fill-rule:evenodd;clip-rule:evenodd;fill:url(#SVGID_5_);}
	.st43{fill-rule:evenodd;clip-rule:evenodd;fill:url(#SVGID_6_);}
	.st44{fill-rule:evenodd;clip-rule:evenodd;fill:url(#SVGID_7_);}
	.st45{fill-rule:evenodd;clip-rule:evenodd;fill:url(#SVGID_8_);}
	.st46{fill:#006937;}
	.st47{fill:#929990;}
	.st48{fill:#FFFFFF;stroke:#FFFFFF;stroke-width:0.1949;stroke-miterlimit:10;}
	.st49{fill:#18428F;}
	.st50{fill:#EC1848;}
	.st51{fill:#29A151;}
	.st52{fill:#C1272D;}
	.st53{fill:#29ABE2;}
	.st54{fill:#F7BE3E;}
	.st55{fill:url(#SVGID_9_);}
	.st56{fill-rule:evenodd;clip-rule:evenodd;fill:none;}
	.st57{clip-path:url(#SVGID_11_);fill-rule:evenodd;clip-rule:evenodd;}
	.st58{fill:#EFAF1F;}
	.st59{fill:#EFB022;}
	.st60{fill:#0E0A08;}
	.st61{fill:#DA2A28;}
	.st62{fill:#F6F6F5;}
	.st63{fill:#C7B086;}
	.st64{fill:#F1F0EE;}
	.st65{fill-rule:evenodd;clip-rule:evenodd;fill:url(#SVGID_12_);}
	.st66{fill-rule:evenodd;clip-rule:evenodd;fill:#FAF9F9;}
	.st67{fill-rule:evenodd;clip-rule:evenodd;fill:#F8B132;}
	.st68{fill-rule:evenodd;clip-rule:evenodd;fill:#1A70B7;}
	.st69{fill-rule:evenodd;clip-rule:evenodd;fill:#36A834;}
	.st70{fill-rule:evenodd;clip-rule:evenodd;fill:#E2000F;}
	.st71{fill-rule:evenodd;clip-rule:evenodd;fill:#1A1A18;}
	.st72{fill:url(#SVGID_13_);}
	.st73{fill:url(#SVGID_14_);}
	.st74{fill:url(#SVGID_15_);}
	.st75{fill:url(#SVGID_16_);}
	.st76{fill:url(#SVGID_17_);}
	.st77{fill:url(#SVGID_18_);}
	.st78{fill:url(#SVGID_19_);}
	.st79{fill:url(#SVGID_20_);}
	.st80{fill:url(#SVGID_21_);}
	.st81{fill:url(#SVGID_22_);}
	.st82{fill:url(#SVGID_23_);}
	.st83{fill:url(#SVGID_24_);}
	.st84{fill:url(#SVGID_25_);}
	.st85{fill:url(#SVGID_26_);}
	.st86{fill:#00A85D;}
	.st87{fill:#FFFFFF;stroke:#FFFFFF;stroke-width:0.1;stroke-miterlimit:10;}
	.st88{fill:#9FD8F5;}
	.st89{fill:#274888;}
	.st90{fill:#267DBF;}
	.st91{fill:#2F91CF;}
	.st92{fill:#2955A0;}
	.st93{fill:#236EB3;}
	.st94{fill:#CFEBFA;}
	.st95{fill:#42B7E9;}
	.st96{fill:#3FAAE0;}
	.st97{fill:#ED171F;}
	.st98{opacity:0.25;fill:url(#SVGID_27_);}
	.st99{fill:#FFFFFF;stroke:#FFFFFF;stroke-width:1.0606;stroke-miterlimit:10;}
	.st100{fill:#FFAF10;}
	.st101{fill:#151416;}
	.st102{fill:#E57641;}
	.st103{fill:none;}
	.st104{fill:#1C191B;}
	.st105{fill:#19181A;}
	.st106{fill:#DD7340;}
	.st107{fill:#181617;}
	.st108{fill:#EA7944;}
	.st109{fill:#0C0E13;}
	.st110{fill:#181719;}
	.st111{fill:#F2F1F2;}
	.st112{fill:#F6F5F5;}
	.st113{fill:#BA673F;}
	.st114{fill:#4E362A;}
	.st115{fill:#6A6567;}
	.st116{fill:none;stroke:#EA7944;stroke-width:0.3013;stroke-linecap:round;stroke-miterlimit:10;}
	.st117{fill:none;stroke:#FF00FF;stroke-width:0.25;stroke-miterlimit:10;}
</style>
<g>
	<path class="st25" d="M68.603,1.867l-0.046,5.521c-5.212,1.113-10.328,2.365-15.985,0.252c-5.657-2.113-12.003-3.01-17.827-0.381
		S22.64,9.006,16.652,7.272S6.13,4.833,0.093,7.555L0,2.126c5.681-1.745,10.737-2.944,16.789-0.309
		c6.053,2.636,13.969,1.382,19.168-0.352c5.199-1.734,6.835-2.091,12.532-0.23C54.185,3.096,62.517,4.269,68.603,1.867L68.603,1.867
		z"/>
	<path class="st26" d="M68.603,17.544l-0.046,5.697c-4.772,2.291-10.505,2.264-16.161,0.429c-5.656-1.836-11.915-3.098-17.739-0.469
		c-5.824,2.628-12.017,1.482-18.005-0.252c-5.989-1.734-10.61-2.174-16.647,0.547L0,17.451c5.681-1.746,10.737-2.592,16.789,0.044
		c6.053,2.636,13.437,1.052,19.168-0.352c5.731-1.404,7.477-1.717,12.532-0.231C53.543,18.399,62.517,19.946,68.603,17.544
		L68.603,17.544z"/>
	<path class="st5" d="M15.758,11.814l-0.519-0.294c0.427-0.305,0.936-0.556,1.526-0.752c0.753-0.24,1.612-0.359,2.578-0.359
		c1.495,0,2.746,0.407,3.753,1.22c0.478,0.392,0.839,0.825,1.083,1.297c0.244,0.472,0.366,0.992,0.366,1.558
		c0,1.09-0.481,1.978-1.442,2.665c-0.961,0.687-2.214,1.03-3.76,1.03c-0.539,0-1.025-0.022-1.457-0.066
		c-0.432-0.044-0.826-0.116-1.182-0.218c-0.519-0.145-1.017-0.382-1.495-0.708l0.503-0.327c0.346,0.269,0.788,0.494,1.327,0.676
		c0.519,0.152,1.195,0.229,2.029,0.229c1.19,0,2.113-0.296,2.769-0.888c0.656-0.592,0.984-1.306,0.984-2.141l-0.564,0.13
		c-0.203,0.044-0.391,0.066-0.564,0.066c-0.234,0-0.448-0.029-0.641-0.087l-0.564-0.196c-0.122-0.051-0.282-0.1-0.481-0.147
		c-0.198-0.047-0.399-0.071-0.603-0.071c-0.254,0-0.503,0.026-0.748,0.076c-0.162,0.029-0.292,0.056-0.389,0.082
		c-0.097,0.025-0.226,0.071-0.389,0.136v-0.567c0.559-0.232,1.052-0.349,1.48-0.349c0.234,0,0.46,0.024,0.679,0.071
		c0.219,0.047,0.43,0.118,0.633,0.212l0.549,0.185c0.173,0.036,0.351,0.055,0.534,0.055c0.346,0,0.702-0.058,1.068-0.175
		c0-0.886-0.305-1.653-0.915-2.299c-0.661-0.69-1.607-1.035-2.838-1.035c-0.722,0-1.383,0.102-1.983,0.305
		C16.597,11.287,16.155,11.516,15.758,11.814L15.758,11.814z"/>
	<polygon class="st5" points="26.217,12.87 31.427,12.87 31.427,13.197 29.542,13.197 29.542,18.209 28.163,18.209 28.163,13.197 
		26.217,13.197 26.217,12.87 	"/>
	<polygon class="st5" points="32.563,12.821 34.066,12.821 37.192,16.94 40.112,12.821 40.587,12.821 35.443,20.122 34.968,20.122 
		36.488,17.965 32.563,12.821 	"/>
	<path class="st5" d="M46.812,13.961c0-0.349-0.124-0.601-0.373-0.758c-0.248-0.156-0.727-0.234-1.436-0.234
		c-0.73,0-1.227,0.078-1.49,0.234c-0.263,0.156-0.395,0.427-0.395,0.812h-1.262c0-0.458,0.284-0.801,0.851-1.03
		c0.568-0.229,1.333-0.343,2.296-0.343c1.206,0,2.04,0.106,2.501,0.316c0.461,0.211,0.692,0.592,0.692,1.144v4.01h-4.151
		c-0.821,0-1.447-0.138-1.878-0.414c-0.431-0.276-0.646-0.636-0.646-1.079c0-0.501,0.263-0.912,0.79-1.231
		c0.527-0.32,1.287-0.479,2.281-0.479h2.22V13.961L46.812,13.961z M46.812,17.797v-2.561h-2.296c-0.527,0-0.938,0.127-1.232,0.381
		c-0.294,0.254-0.441,0.57-0.441,0.948c0,0.378,0.129,0.677,0.388,0.899c0.258,0.222,0.646,0.332,1.163,0.332H46.812L46.812,17.797z
		"/>
	<path class="st5" d="M63.25,12.773v2.136h1.903c1.025,0,1.808,0.149,2.347,0.447c0.539,0.298,0.809,0.683,0.809,1.155
		c0,0.458-0.275,0.839-0.824,1.144c-0.55,0.305-1.327,0.457-2.331,0.457h-3.33v-5.34H63.25L63.25,12.773z M65.232,17.786
		c0.56,0,0.989-0.12,1.284-0.36c0.296-0.239,0.444-0.545,0.444-0.915c0-0.371-0.143-0.675-0.428-0.915
		c-0.285-0.24-0.693-0.36-1.221-0.36H63.25v2.55H65.232L65.232,17.786z"/>
	<path class="st5" d="M49.289,18.209c2.236-8.54,9.311-7.857,11.426,0.063c0.025,0.095,0.461-0.551,0.483-0.453
		C58.942,7.766,50.451,8.693,48.898,18.6L49.289,18.209z"/>
	<path class="st5" d="M1.131,18.209c2.236-8.54,9.311-7.857,11.426,0.063c0.025,0.095,0.461-0.551,0.483-0.453
		C10.784,7.766,2.294,8.693,0.741,18.6L1.131,18.209z"/>
	<path class="st5" d="M12.677,11.456l0.267,0.818l0.388-0.814c0.189-0.111,0.316-0.317,0.316-0.551c0-0.353-0.287-0.64-0.64-0.64
		c-0.352,0-0.64,0.287-0.64,0.64C12.368,11.141,12.492,11.344,12.677,11.456L12.677,11.456z"/>
</g>
</svg>
