<?xml version="1.0" encoding="utf-8"?>
<!-- Generator: Adobe Illustrator 22.1.0, SVG Export Plug-In . SVG Version: 6.00 Build 0)  -->
<svg version="1.1" id="Слой_1" xmlns="http://www.w3.org/2000/svg" xmlns:xlink="http://www.w3.org/1999/xlink" x="0px" y="0px"
	 viewBox="0 0 458.7 188.6" style="enable-background:new 0 0 458.7 188.6;" xml:space="preserve">
<style type="text/css">
	.st0{fill:#FFFFFF;}
	.st1{fill:#E6D882;}
	.st2{fill:none;}
	.st3{fill:#DDD7A3;}
	.st4{fill:#A69A47;}
</style>
<g>
	<g>
		<path class="st0" d="M152.7,87.1V59.4h19.4v3.7h-14.3v7.8h12.5v3.8h-12.5v8.7h14.5v3.7H152.7z"/>
		<path class="st0" d="M217.7,87.1V64.7h-0.1l-10.2,10.5l-10.2-10.5H197v22.4h-5.2V59.4h6l9.5,10l9.4-10h6v27.7H217.7z"/>
		<path class="st0" d="M254,76.2h-4.7v10.9h-5.2V59.4h9.4c6.8,0,11.3,2.3,11.3,8.4C264.8,73.6,260.1,76.2,254,76.2z M253.5,63.1
			h-4.3v9.5h4.1c2.7,0,6.2-1,6.2-4.8C259.6,64.4,256.4,63.1,253.5,63.1z"/>
		<path class="st0" d="M284.2,87.1V59.4h5.2v27.7H284.2z"/>
		<path class="st0" d="M327.2,87.1L319,75.7h-3v11.4h-5.2V59.4h9.3c5.9,0,11,2.1,11,8.1c0,3.3-2.6,6.9-7.1,7.5l9.3,12.1H327.2z
			 M320,63.1h-4v9.1h3.5c4.2,0,6.4-1.6,6.4-4.5C325.9,64.8,323.8,63.1,320,63.1z"/>
		<path class="st0" d="M352,87.1V59.4h19.4v3.7h-14.3v7.8h12.5v3.8h-12.5v8.7h14.5v3.7H352z"/>
	</g>
	<g>
		<path class="st1" d="M172.2,104c2,0,3.7,0.1,5.1,0.4c1.4,0.2,2.7,0.5,3.9,0.7c0.5,0.1,0.9,0.2,1.2,0.2c0.3,0,0.5,0.1,0.8,0.2
			c0.1,0,0.2,0.1,0.4,0.3c0.2,0.2,0.2,0.5,0.2,0.9c0,0.6,0.2,1.5,0.4,2.5c0.2,1.1,0.3,2.1,0.3,3.1c0,0.7-0.2,1.1-0.7,1.1
			c-0.3,0-0.6-0.4-1-1.2c-0.5-1.4-1.2-2.6-2-3.6c-0.3-0.3-0.7-0.7-1.2-1.1c-0.5-0.4-1.2-0.7-1.9-1c-0.7-0.3-1.6-0.6-2.5-0.8
			c-0.9-0.2-1.9-0.3-3-0.3c-2.3,0-4.3,0.4-6.1,1.3c-1.8,0.8-3.3,2-4.6,3.4c-1.2,1.4-2.2,3-2.9,4.9c-0.7,1.8-1,3.8-1,5.8
			c0,3.7,0.8,6.8,2.4,9.3c1.4,2.3,3.3,4.1,5.7,5.3c2.4,1.2,4.8,1.8,7.3,1.8c0.1,0,0.4,0,0.8-0.1c0.4,0,0.8-0.1,1.3-0.2
			c0.5-0.1,0.9-0.2,1.4-0.4c0.5-0.2,0.9-0.3,1.3-0.6c0.1-0.1,0.2-0.2,0.3-0.4c0.1-0.2,0.3-0.5,0.4-0.7c0.1-0.3,0.2-0.5,0.3-0.8
			c0.1-0.3,0.1-0.5,0.1-0.7c0-0.4,0-0.9,0-1.5c0-0.6,0-1.1,0-1.6c0-0.5,0-1-0.1-1.4c0-0.4,0-0.7-0.1-0.8c-0.1-0.3-0.2-0.6-0.3-0.8
			c-0.1-0.3-0.4-0.5-0.7-0.7c-0.3-0.2-0.8-0.4-1.4-0.5c-0.6-0.2-1.4-0.3-2.4-0.3c-0.4,0-0.7-0.1-1-0.3c-0.3-0.2-0.4-0.4-0.4-0.6
			c0-0.2,0.1-0.3,0.4-0.5c0.3-0.2,0.7-0.2,1.2-0.2c0.3,0,0.7,0,1.2,0s1.2,0,1.8,0.1c0.6,0,1.3,0.1,1.9,0.1c0.6,0,1.1,0,1.5,0
			c0.6,0,1.4,0,2.2-0.1c0.8-0.1,1.7-0.1,2.6-0.1c0.4,0,0.8,0.1,1,0.2c0.3,0.1,0.4,0.3,0.4,0.5c0,0.2-0.1,0.3-0.4,0.5
			c-0.3,0.2-0.5,0.3-0.9,0.4c-0.8,0.2-1.3,0.5-1.5,0.8s-0.3,0.5-0.4,0.8c-0.1,0.1-0.1,0.4-0.1,0.9c0,0.5,0,1-0.1,1.7
			c0,0.6-0.1,1.3-0.1,2s0,1.3,0,1.8c0,0.4,0.1,0.7,0.3,1c0.2,0.3,0.3,0.4,0.5,0.5c0.5,0.3,0.8,0.5,0.8,0.6c0.1,0.1,0.1,0.2,0.1,0.4
			c0,0.1-0.1,0.2-0.2,0.4c-0.1,0.2-0.3,0.3-0.6,0.3c-0.5,0.1-1.2,0.3-2,0.5c-0.9,0.2-1.8,0.4-2.8,0.7c-0.6,0.2-1.2,0.3-1.9,0.4
			c-0.7,0.1-1.4,0.2-2,0.3c-0.7,0.1-1.3,0.1-1.9,0.2c-0.6,0-1.1,0.1-1.6,0.1c-3,0-5.7-0.4-8.2-1.3c-2.4-0.8-4.4-2-6.1-3.4
			c-0.6-0.5-1.2-1.2-1.9-2c-0.7-0.8-1.3-1.7-1.8-2.8c-0.5-1-1-2.2-1.3-3.5c-0.3-1.3-0.5-2.7-0.5-4.2c0-2.3,0.5-4.5,1.4-6.8
			c0.9-2.2,2.5-4.3,4.7-6.1c1.7-1.4,3.8-2.6,6.2-3.4C167.1,104.4,169.6,104,172.2,104z"/>
		<path class="st1" d="M211.9,104c0.1,0,0.2,0.1,0.3,0.2c0.1,0.2,0.3,0.5,0.5,1.1c0.2,0.7,0.5,1.6,1,2.7c0.4,1.1,0.9,2.3,1.4,3.7
			c0.7,1.9,1.4,3.9,2.2,5.9c0.8,2.1,1.6,4.1,2.3,5.9c0.7,1.9,1.4,3.5,2,4.9c0.6,1.4,1,2.4,1.2,2.9c0.4,1.1,0.8,1.9,1.2,2.5
			s0.7,1.1,1.1,1.4c0.4,0.3,0.8,0.6,1.2,0.8c0.4,0.2,0.9,0.3,1.6,0.5c0.9,0.3,1.3,0.6,1.3,0.9c0,0.2-0.1,0.3-0.3,0.5
			c-0.2,0.1-0.7,0.2-1.4,0.2c-0.9,0-1.9,0-3.2-0.1c-1.2-0.1-2.4-0.1-3.6-0.1c-0.9,0-1.5,0-2,0.1c-0.5,0-1.1,0.1-1.8,0.1
			c-0.7,0-1.1-0.1-1.3-0.2c-0.2-0.1-0.3-0.3-0.3-0.4c0-0.1,0.1-0.3,0.3-0.5c0.2-0.2,0.5-0.3,1-0.4c0.6-0.1,1.1-0.3,1.4-0.5
			c0.3-0.2,0.5-0.4,0.7-0.6c0.1-0.2,0.2-0.5,0.1-0.7c0-0.3-0.1-0.5-0.1-0.8c-0.2-1.1-0.6-2.4-1.2-3.9c-0.6-1.6-1.2-3.2-1.8-4.8
			c0-0.1-0.2-0.2-0.3-0.3c-0.2-0.1-0.7-0.2-1.5-0.2c-0.7,0-1.6,0-2.5,0s-1.8,0-2.6,0c-0.8,0-1.6,0-2.3,0.1c-0.7,0-1.2,0.1-1.4,0.1
			c-0.1,0-0.2,0.1-0.3,0.2c-0.1,0.1-0.2,0.2-0.3,0.3c-0.4,0.8-0.7,1.7-1,2.6c-0.3,0.9-0.6,1.8-0.9,2.6c-0.3,0.8-0.5,1.6-0.6,2.2
			c-0.2,0.7-0.2,1.1-0.2,1.5c0,0.3,0.1,0.7,0.4,1c0.3,0.4,1,0.8,2.2,1.1c1,0.3,1.4,0.6,1.4,0.9c0,0.3-0.2,0.5-0.5,0.5
			c-0.3,0.1-0.7,0.1-1,0.1c-0.5,0-1,0-1.7-0.1c-0.7-0.1-1.5-0.1-2.5-0.1c-0.5,0-1,0-1.6,0.1c-0.6,0-1.1,0.1-1.6,0.1
			c-0.5,0-1,0-1.4,0.1c-0.4,0-0.7,0.1-0.9,0.1c-0.5,0-0.8,0-1-0.1c-0.2-0.1-0.2-0.2-0.2-0.4c0-0.2,0.1-0.3,0.3-0.5
			c0.2-0.2,0.5-0.3,0.9-0.5c0.7-0.2,1.2-0.4,1.7-0.6c0.4-0.2,0.8-0.4,1.2-0.7c0.4-0.3,0.7-0.7,1-1.1c0.3-0.5,0.7-1.1,1-1.9
			c0.2-0.4,0.5-1.2,1-2.3c0.4-1.1,1-2.3,1.6-3.8c0.6-1.4,1.2-3,1.9-4.6c0.7-1.7,1.3-3.3,2-4.9c0.7-1.6,1.3-3.1,1.8-4.5
			c0.6-1.4,1-2.6,1.4-3.5c0.2-0.4,0.3-0.8,0.3-1.1c0-0.2,0-0.3,0.1-0.4c0.2-0.3,0.5-0.7,0.9-1.3c0.3-0.5,0.6-1,0.7-1.2
			C211.4,104.2,211.7,104,211.9,104z M214.3,122.3c0,0,0.1-0.1,0.1-0.2c0.1-0.1,0.1-0.2,0-0.3c-0.2-0.6-0.5-1.6-1-2.7
			c-0.4-1.2-0.9-2.3-1.3-3.5c-0.4-1.2-0.8-2.2-1.2-3.1c-0.4-0.9-0.6-1.5-0.7-1.6c-0.1-0.3-0.3-0.3-0.4,0c-0.3,0.6-0.6,1.5-1,2.6
			c-0.4,1.1-0.9,2.2-1.3,3.4c-0.4,1.2-0.8,2.2-1.2,3.2c-0.4,1-0.6,1.7-0.7,2.1c-0.1,0.2,0,0.4,0.3,0.4c0.5,0,1.2,0,2,0
			c0.8,0,1.5,0,2.3,0c0.8,0,1.6,0,2.3,0C213.3,122.3,213.9,122.3,214.3,122.3z"/>
		<path class="st1" d="M248.4,104c1.3,0,2.6,0.1,3.8,0.4c1.2,0.3,2.1,0.4,2.6,0.5c0.2,0.1,0.3,0.2,0.5,0.5c0.1,0.3,0.2,0.4,0.2,0.5
			c0,0.2,0.1,0.6,0.1,1c0.1,0.4,0.1,0.9,0.2,1.3c0.1,0.4,0.1,0.8,0.2,1.2c0.1,0.4,0.1,0.6,0.1,0.6c0,0.4,0,0.8-0.1,1
			c0,0.2-0.1,0.4-0.3,0.4c-0.2,0-0.5-0.1-0.7-0.3c-0.3-0.2-0.5-0.4-0.6-0.8c-0.3-0.9-0.8-1.7-1.3-2.4c-0.6-0.7-1-1.1-1.3-1.3
			c-0.5-0.4-1.1-0.7-1.7-0.9c-0.6-0.2-1.3-0.3-2.1-0.3c-1.8,0-3.3,0.6-4.4,1.7c-1.1,1.1-1.7,2.6-1.7,4.3c0,0.9,0.2,1.7,0.5,2.4
			c0.3,0.7,0.8,1.3,1.4,1.9c0.6,0.6,1.4,1.2,2.3,1.8c0.9,0.6,2,1.3,3.2,2c1,0.7,2,1.4,2.9,2c0.9,0.7,1.7,1.4,2.4,2.2
			c0.7,0.8,1.2,1.6,1.6,2.6c0.4,0.9,0.6,2,0.6,3.1c0,1.3-0.4,2.6-1.1,3.9c-0.7,1.3-1.8,2.4-3.3,3.3c-0.9,0.5-2,1-3.4,1.3
			c-1.4,0.3-2.7,0.5-3.9,0.5c-0.4,0-1,0-1.6-0.1c-0.6-0.1-1.3-0.2-2-0.3c-0.7-0.1-1.3-0.3-1.9-0.4c-0.6-0.2-1.1-0.3-1.6-0.5
			c-0.3-0.2-0.6-0.5-0.8-0.9c-0.3-0.4-0.4-0.7-0.4-0.8c-0.1-0.4-0.2-0.9-0.2-1.4c-0.1-0.5-0.2-0.9-0.3-1.4c-0.1-0.4-0.2-0.8-0.2-1.2
			c-0.1-0.4-0.1-0.6-0.1-0.8c0-0.1,0.1-0.3,0.3-0.6c0.2-0.3,0.3-0.4,0.5-0.4c0.2,0,0.5,0.3,0.9,0.9c0.4,0.6,0.7,1.3,1.1,2
			c0.4,0.7,0.8,1.3,1.4,1.8c0.6,0.5,1.2,0.9,1.8,1.3c0.7,0.3,1.3,0.6,2,0.7c0.7,0.2,1.2,0.3,1.7,0.3c1.9,0,3.4-0.6,4.6-1.7
			c1.2-1.1,1.8-2.6,1.8-4.5c0-0.5-0.1-1.1-0.3-1.7c-0.2-0.6-0.5-1.2-1-1.8c-0.5-0.6-1.2-1.3-2-2c-0.9-0.7-2-1.5-3.4-2.4
			c-1.1-0.7-2.2-1.4-3.1-2.2c-0.9-0.7-1.8-1.5-2.5-2.3c-0.7-0.8-1.2-1.7-1.6-2.6c-0.4-0.9-0.6-1.9-0.6-3c0-1.2,0.3-2.3,0.8-3.4
			c0.5-1.1,1.2-2,2.2-2.8c0.8-0.7,1.9-1.3,3.2-1.8S246.5,104,248.4,104z"/>
		<path class="st1" d="M285.1,114.7c0-1.2-0.2-2.3-0.7-3.3c-0.4-1.1-1.1-2-1.8-2.8c-0.8-0.8-1.7-1.4-2.8-1.9
			c-1.1-0.5-2.2-0.7-3.5-0.7c-0.5,0-1,0.2-1.6,0.5c-0.1,0.1-0.2,0.3-0.3,0.6c-0.1,0.3-0.2,0.8-0.2,1.4c0,0.3,0,0.8,0,1.7
			c0,0.9,0,1.9,0,3.1c0,1.2,0,2.6,0,4c0,1.5,0,2.9,0,4.4c0,1.2,0,2.3,0,3.4c0,1.1,0,2.1,0,3c0,0.9,0,1.7,0,2.4c0,0.7,0,1.2,0,1.5
			c0,0.8,0,1.5,0.1,2c0.1,0.5,0.3,0.9,0.5,1.2c0.2,0.3,0.6,0.5,1,0.7c0.4,0.2,1,0.4,1.6,0.6c1,0.2,1.4,0.6,1.4,1
			c0,0.2-0.2,0.4-0.6,0.5c-0.4,0.1-0.8,0.1-1.2,0.1c-0.7,0-1.5,0-2.4-0.1c-0.9-0.1-2-0.1-3.2-0.1c-0.8,0-1.7,0-2.7,0.1
			c-1,0.1-1.9,0.1-2.7,0.1c-1,0-1.5-0.2-1.5-0.7c0-0.2,0.1-0.3,0.3-0.5c0.2-0.2,0.5-0.3,0.7-0.3c1.5-0.3,2.5-0.8,2.9-1.3
			c0.5-0.5,0.7-1.4,0.8-2.5c0-0.6,0.1-1.3,0.1-2.1c0-0.8,0.1-1.6,0.1-2.5s0-1.7,0.1-2.5c0-0.8,0-1.5,0-2.2c0-0.3,0-0.8,0-1.5
			c0-0.7,0-1.6,0-2.6c0-1,0-2,0-3c0-1.1,0-2.1,0-3.1c0-1,0-1.8-0.1-2.5c0-0.7,0-1.2,0-1.5c0-0.4,0-0.8-0.1-1.2
			c0-0.3-0.2-0.6-0.3-0.8c-0.2-0.2-0.5-0.4-0.9-0.6c-0.4-0.2-1-0.3-1.7-0.4c-1.1-0.2-1.7-0.4-1.7-0.8c0-0.2,0.1-0.4,0.3-0.5
			c0.2-0.1,0.5-0.2,0.9-0.2c0.2,0,0.5,0,0.8,0c0.4,0,0.7,0,0.9,0c0.5,0,1.2,0,1.9-0.1c0.7,0,1.5-0.1,2.4-0.1
			c0.8-0.1,1.6-0.1,2.4-0.2c0.8-0.1,1.5-0.1,2.2-0.1c2.5,0,4.5,0.3,6.1,0.8c1.6,0.6,2.9,1.3,3.9,2.2c1.3,1.2,2.1,2.4,2.5,3.7
			c0.4,1.3,0.6,2.4,0.6,3.2c0,1.1-0.1,2.1-0.4,3c-0.3,0.9-0.6,1.6-0.9,2.2c-0.4,0.6-0.8,1.2-1.2,1.6c-0.4,0.4-0.8,0.8-1.2,1.1
			c-0.7,0.6-1.6,1.1-2.8,1.6s-2.3,0.7-3.4,0.7c-0.3,0-0.7,0-1.3-0.1c-0.6,0-1.1-0.1-1.5-0.3c-0.6-0.2-0.9-0.5-0.9-0.8
			c0-0.1,0.1-0.2,0.2-0.3c0.1-0.1,0.3-0.2,0.5-0.2h1.3c0.7,0,1.5-0.2,2.3-0.5c0.8-0.3,1.5-0.8,2.2-1.5c0.7-0.7,1.2-1.5,1.7-2.6
			C284.8,117.4,285.1,116.1,285.1,114.7z"/>
		<path class="st1" d="M310.6,104c0.1,0,0.2,0.1,0.3,0.2c0.1,0.2,0.3,0.5,0.5,1.1c0.2,0.7,0.5,1.6,1,2.7c0.4,1.1,0.9,2.3,1.4,3.7
			c0.7,1.9,1.4,3.9,2.2,5.9c0.8,2.1,1.6,4.1,2.3,5.9c0.7,1.9,1.4,3.5,2,4.9c0.6,1.4,1,2.4,1.2,2.9c0.4,1.1,0.8,1.9,1.2,2.5
			c0.4,0.6,0.7,1.1,1.1,1.4c0.4,0.3,0.8,0.6,1.2,0.8c0.4,0.2,0.9,0.3,1.6,0.5c0.9,0.3,1.3,0.6,1.3,0.9c0,0.2-0.1,0.3-0.3,0.5
			c-0.2,0.1-0.7,0.2-1.4,0.2c-0.9,0-1.9,0-3.2-0.1c-1.2-0.1-2.4-0.1-3.6-0.1c-0.9,0-1.5,0-2,0.1c-0.5,0-1.1,0.1-1.8,0.1
			c-0.7,0-1.1-0.1-1.3-0.2c-0.2-0.1-0.3-0.3-0.3-0.4c0-0.1,0.1-0.3,0.3-0.5c0.2-0.2,0.5-0.3,1-0.4c0.6-0.1,1.1-0.3,1.4-0.5
			c0.3-0.2,0.5-0.4,0.7-0.6c0.1-0.2,0.2-0.5,0.1-0.7c0-0.3-0.1-0.5-0.1-0.8c-0.2-1.1-0.6-2.4-1.2-3.9c-0.6-1.6-1.2-3.2-1.8-4.8
			c0-0.1-0.2-0.2-0.3-0.3c-0.2-0.1-0.7-0.2-1.5-0.2c-0.7,0-1.6,0-2.5,0c-0.9,0-1.8,0-2.6,0c-0.8,0-1.6,0-2.3,0.1
			c-0.7,0-1.2,0.1-1.4,0.1c-0.1,0-0.2,0.1-0.3,0.2c-0.1,0.1-0.2,0.2-0.3,0.3c-0.4,0.8-0.7,1.7-1,2.6c-0.3,0.9-0.6,1.8-0.9,2.6
			c-0.3,0.8-0.5,1.6-0.6,2.2c-0.2,0.7-0.2,1.1-0.2,1.5c0,0.3,0.1,0.7,0.4,1c0.3,0.4,1,0.8,2.2,1.1c1,0.3,1.4,0.6,1.4,0.9
			c0,0.3-0.2,0.5-0.5,0.5c-0.3,0.1-0.7,0.1-1,0.1c-0.5,0-1,0-1.7-0.1c-0.7-0.1-1.5-0.1-2.5-0.1c-0.5,0-1,0-1.6,0.1
			c-0.6,0-1.1,0.1-1.6,0.1c-0.5,0-1,0-1.4,0.1c-0.4,0-0.7,0.1-0.9,0.1c-0.5,0-0.8,0-1-0.1c-0.2-0.1-0.2-0.2-0.2-0.4
			c0-0.2,0.1-0.3,0.3-0.5c0.2-0.2,0.5-0.3,0.9-0.5c0.7-0.2,1.2-0.4,1.7-0.6c0.4-0.2,0.8-0.4,1.2-0.7c0.4-0.3,0.7-0.7,1-1.1
			c0.3-0.5,0.7-1.1,1-1.9c0.2-0.4,0.5-1.2,1-2.3c0.4-1.1,1-2.3,1.6-3.8c0.6-1.4,1.2-3,1.9-4.6c0.7-1.7,1.3-3.3,2-4.9
			c0.7-1.6,1.3-3.1,1.8-4.5c0.6-1.4,1-2.6,1.4-3.5c0.2-0.4,0.3-0.8,0.3-1.1c0-0.2,0-0.3,0.1-0.4c0.2-0.3,0.5-0.7,0.9-1.3
			c0.3-0.5,0.6-1,0.7-1.2C310.1,104.2,310.4,104,310.6,104z M313,122.3c0,0,0.1-0.1,0.1-0.2c0.1-0.1,0.1-0.2,0-0.3
			c-0.2-0.6-0.5-1.6-1-2.7c-0.4-1.2-0.9-2.3-1.3-3.5c-0.4-1.2-0.8-2.2-1.2-3.1c-0.4-0.9-0.6-1.5-0.7-1.6c-0.1-0.3-0.3-0.3-0.4,0
			c-0.2,0.6-0.6,1.5-1,2.6s-0.9,2.2-1.3,3.4c-0.4,1.2-0.8,2.2-1.2,3.2c-0.4,1-0.6,1.7-0.7,2.1c-0.1,0.2,0,0.4,0.3,0.4
			c0.5,0,1.2,0,2,0c0.8,0,1.5,0,2.3,0c0.8,0,1.6,0,2.3,0C312,122.3,312.6,122.3,313,122.3z"/>
		<path class="st1" d="M358.7,113.2c0,1.4-0.4,2.7-1.2,4c-0.8,1.3-1.8,2.3-3.2,3.1c-0.1,0.1-0.4,0.2-0.8,0.4
			c-0.4,0.2-0.7,0.3-0.9,0.5c-0.1,0.1-0.1,0.2-0.2,0.4c-0.1,0.2-0.1,0.3,0,0.4c0.1,0.3,0.5,0.9,1.1,1.8c0.6,0.9,1.3,2,2.1,3.1
			c0.8,1.2,1.7,2.3,2.6,3.6c0.9,1.2,1.8,2.2,2.6,3.1c0.7,0.8,1.5,1.5,2.3,1.9c0.8,0.5,1.8,0.8,3,1.1c0.2,0.1,0.4,0.2,0.6,0.3
			c0.2,0.2,0.3,0.3,0.3,0.4c0,0.2-0.1,0.3-0.2,0.4c-0.2,0.1-0.3,0.2-0.5,0.3c-0.3,0.1-0.8,0.2-1.3,0.3c-0.5,0.1-1.1,0.1-1.7,0.1
			c-0.6,0-1.3-0.1-2-0.3c-0.7-0.2-1.3-0.4-2-0.7c-0.6-0.3-1.2-0.6-1.8-1c-0.6-0.4-1-0.9-1.4-1.3c-0.5-0.6-1-1.3-1.6-2.1
			c-0.6-0.8-1.2-1.6-1.7-2.4c-0.6-0.8-1.2-1.7-1.8-2.6c-0.6-0.9-1.2-1.7-1.7-2.5c-0.4-0.5-0.8-1.1-1.2-1.6c-0.4-0.5-0.7-0.8-0.9-0.9
			c-0.1,0-0.2-0.1-0.5-0.2c-0.3-0.1-0.6-0.2-0.9-0.2c-0.4-0.1-0.7-0.1-1.2-0.2c-0.4-0.1-0.8-0.1-1.2-0.1c-0.2,0-0.3,0.1-0.5,0.3
			c-0.1,0.2-0.2,0.3-0.2,0.4c0,0.2,0,0.7,0,1.6c0,0.8,0,1.7,0,2.8c0,1,0,2.1,0.1,3.2c0,1.1,0.1,2,0.1,2.8c0,1.1,0.3,1.9,0.7,2.3
			s1.3,0.8,2.5,1.1c0.9,0.2,1.3,0.5,1.3,0.9c0,0.3-0.2,0.5-0.5,0.5c-0.4,0.1-0.6,0.1-0.7,0.1c-0.6,0-1.1,0-1.5-0.1
			c-0.4,0-0.9-0.1-1.4-0.1c-0.5,0-1.1-0.1-1.7-0.1c-0.6,0-1.4-0.1-2.3-0.1c-0.2,0-0.6,0-1,0c-0.4,0-0.9,0-1.3,0.1
			c-0.4,0-0.9,0.1-1.2,0.1c-0.4,0-0.6,0-0.8,0c-0.4,0-0.7-0.1-1-0.2c-0.3-0.1-0.4-0.3-0.4-0.6c0-0.2,0.1-0.3,0.3-0.4
			s0.5-0.2,0.9-0.3c0.6-0.2,1.1-0.3,1.5-0.5c0.4-0.2,0.8-0.3,1.1-0.5c0.3-0.2,0.5-0.5,0.6-0.8c0.1-0.3,0.2-0.7,0.3-1.2
			c0-0.4,0.1-1,0.1-1.8c0-0.8,0.1-1.7,0.1-2.7c0-1,0.1-2,0.1-2.9c0-1,0-1.9,0-2.7c0-4,0-7.1-0.1-9.5c-0.1-2.4-0.1-4-0.2-5
			c-0.1-0.5-0.2-0.9-0.2-1.1c-0.1-0.3-0.2-0.5-0.5-0.7c-0.2-0.2-0.5-0.3-0.9-0.4c-0.4-0.1-0.9-0.2-1.5-0.4c-0.9-0.2-1.3-0.5-1.3-0.9
			c0-0.2,0.1-0.3,0.3-0.4c0.2-0.1,0.6-0.2,1.2-0.2h3c0.5,0,1.1,0,1.8-0.1c0.7,0,1.4-0.1,2.2-0.1c0.8,0,1.6,0,2.4-0.1
			c0.8,0,1.6-0.1,2.3-0.1c1.9,0,3.5,0.1,4.9,0.4c1.4,0.3,2.7,0.9,3.8,1.7c0.9,0.7,1.6,1.6,2.2,2.8
			C358.4,110.8,358.7,112,358.7,113.2z M354,113.3c0-0.6-0.2-1.4-0.6-2.5c-0.4-1-1-1.9-1.8-2.7c-0.6-0.6-1.5-1-2.5-1.4
			c-1-0.4-2-0.5-2.8-0.5c-0.1,0-0.2,0-0.4,0c-0.2,0-0.5,0-0.7,0.1c-0.3,0-0.5,0.1-0.8,0.1c-0.3,0.1-0.5,0.1-0.6,0.2
			c-0.1,0.1-0.3,0.2-0.4,0.5c-0.1,0.3-0.2,0.5-0.2,0.6c0,0.3-0.1,0.8-0.1,1.5c0,0.7,0,1.5-0.1,2.4c0,0.9,0,1.8-0.1,2.8
			c0,1,0,1.9,0,2.7c0,0.8,0,1.5,0,2.2c0,0.6,0,0.9,0.1,1.1c0.1,0.2,0.2,0.4,0.3,0.5c0.2,0.2,0.3,0.2,0.5,0.2c1.6,0,3-0.2,4.2-0.5
			c1.2-0.3,2.1-0.6,2.5-0.8c0.4-0.2,0.7-0.5,1.1-0.9s0.8-0.9,1.2-1.4c0.4-0.5,0.6-1.1,0.9-1.8C353.8,114.8,354,114.1,354,113.3z"/>
		<path class="st1" d="M389.8,104c2.6,0,5,0.4,7.2,1.3c2.2,0.9,4.2,2,5.9,3.6s3,3.3,4,5.4c1,2.1,1.4,4.3,1.4,6.7
			c0,1.8-0.2,3.5-0.6,5c-0.4,1.5-1,2.9-1.7,4.1c-0.7,1.2-1.5,2.3-2.4,3.3c-0.9,1-1.9,1.8-2.8,2.4c-0.9,0.6-1.8,1.1-2.7,1.4
			c-0.9,0.4-1.9,0.7-2.8,0.9s-1.8,0.4-2.7,0.5c-0.9,0.1-1.6,0.2-2.3,0.2c-2.7,0-5.3-0.5-7.8-1.6c-2.4-1-4.5-2.5-6.1-4.3
			c-1.4-1.5-2.5-3.3-3.3-5.3c-0.8-2-1.1-4.1-1.1-6.3c0-3.2,0.6-5.9,2-8.1c1.3-2.2,3-4.1,5-5.7c0.6-0.5,1.4-1,2.3-1.4
			c0.9-0.4,1.8-0.8,2.8-1.1c1-0.3,2-0.6,3-0.7C387.9,104.1,388.8,104,389.8,104z M388.6,105.7c-0.6,0-1.2,0.1-1.8,0.2
			c-0.7,0.1-1.3,0.3-2,0.6c-0.7,0.3-1.3,0.6-1.9,0.9c-0.6,0.4-1.2,0.8-1.6,1.2c-1.2,1.1-2.2,2.6-3,4.6c-0.8,2-1.2,4.4-1.2,7.4
			c0,1.9,0.3,3.8,1,5.8c0.7,1.9,1.7,3.7,3,5.3c1.3,1.6,2.8,2.8,4.6,3.8c1.8,1,3.7,1.5,5.9,1.5c1.1,0,2.1-0.1,2.9-0.3
			c0.8-0.2,1.5-0.4,2.1-0.7c0.6-0.3,1-0.5,1.4-0.8c0.3-0.3,0.6-0.5,0.7-0.7c0.5-0.4,1.1-1,1.6-1.8c0.5-0.7,1-1.6,1.5-2.7
			c0.4-1,0.8-2.2,1.1-3.4c0.3-1.3,0.4-2.7,0.4-4.2c0-2.8-0.6-5.4-1.7-7.9c-1.2-2.5-2.7-4.5-4.7-6.1c-1.1-0.9-2.4-1.5-3.9-2
			C391.2,105.9,389.8,105.7,388.6,105.7z"/>
		<path class="st1" d="M414.6,105.3c0-0.2,0.2-0.4,0.5-0.5c0.3-0.1,0.7-0.2,1.1-0.2c0.5,0,1.3,0,2.2,0.1c0.9,0.1,2.1,0.1,3.4,0.1
			c0.9,0,1.9,0,2.9-0.1c1,0,1.8-0.1,2.4-0.1c0.4,0,0.7,0.1,0.9,0.2c0.2,0.1,0.4,0.3,0.4,0.4c0,0.2-0.1,0.3-0.3,0.5
			c-0.2,0.2-0.5,0.3-1,0.4c-0.7,0.1-1.3,0.3-1.6,0.5c-0.4,0.2-0.6,0.4-0.8,0.6c-0.1,0.2-0.2,0.5-0.2,0.7c0,0.2,0,0.5,0.1,0.7
			c0.1,0.4,0.4,1.2,0.8,2.2c0.4,1,0.9,2.2,1.4,3.6c0.5,1.3,1.1,2.8,1.7,4.3c0.6,1.5,1.2,3,1.8,4.4c0.6,1.4,1.1,2.8,1.6,4
			c0.5,1.2,0.9,2.2,1.2,2.9c0.1,0.1,0.2,0.1,0.3,0.2c0.1,0.1,0.2,0,0.3-0.2c0.1-0.2,0.3-0.7,0.6-1.5c0.3-0.8,0.8-1.8,1.3-2.9
			c0.5-1.1,1.1-2.4,1.7-3.8c0.6-1.4,1.2-2.8,1.8-4.2c0.6-1.4,1.2-2.8,1.8-4c0.6-1.3,1-2.4,1.4-3.3c0.3-0.7,0.5-1.3,0.5-1.7
			c0-0.5-0.1-0.9-0.4-1.1c-0.3-0.3-0.6-0.5-1-0.7c-0.4-0.2-1-0.4-1.5-0.5c-0.4-0.1-0.7-0.2-0.9-0.4c-0.2-0.2-0.3-0.3-0.3-0.5
			c0-0.2,0.2-0.3,0.5-0.4c0.3-0.1,0.7-0.2,1.1-0.2c0.6,0,1.2,0,1.9,0.1c0.7,0,1.5,0.1,2.4,0.1c0.8,0,1.6,0,2.6-0.1
			c0.9-0.1,1.7-0.1,2.2-0.1c0.4,0,0.7,0.1,1.1,0.2c0.3,0.1,0.5,0.3,0.5,0.5c0,0.2-0.1,0.4-0.4,0.5c-0.3,0.2-0.6,0.3-1,0.3
			c-1.2,0.3-2.1,0.7-2.8,1.4c-0.7,0.6-1.3,1.5-1.9,2.7c-0.6,1.3-1.2,2.4-1.7,3.4c-0.5,1-1,2-1.6,3.1c-0.5,1.1-1.1,2.3-1.7,3.6
			s-1.3,3-2.1,4.9c-0.8,1.8-1.4,3.3-1.9,4.4c-0.5,1.1-0.9,2.1-1.3,3c-0.4,0.9-0.7,1.7-0.9,2.4c-0.3,0.7-0.6,1.6-0.9,2.6
			c-0.1,0.3-0.2,0.5-0.4,0.8c-0.2,0.3-0.4,0.4-0.7,0.4c-0.2,0-0.3-0.1-0.5-0.3c-0.2-0.2-0.3-0.4-0.3-0.7c-0.2-0.7-0.5-1.9-0.9-3.3
			c-0.4-1.5-1.1-3.1-1.8-5c-0.3-0.8-0.7-1.7-1.1-2.9c-0.4-1.1-0.9-2.4-1.5-3.7c-0.5-1.3-1.1-2.6-1.6-3.9c-0.5-1.3-1-2.6-1.5-3.7
			c-0.5-1.1-0.9-2.1-1.2-3c-0.3-0.8-0.6-1.4-0.7-1.7c-0.5-1.3-1.1-2.3-1.8-3c-0.7-0.7-1.6-1.2-2.8-1.5c-0.3-0.1-0.6-0.2-0.9-0.3
			C414.7,105.7,414.6,105.5,414.6,105.3z"/>
	</g>
	<g>
		<polygon class="st2" points="60.2,97.3 51.9,92.9 44.1,92.6 47.4,93.4 51.5,101.6 60.5,104.2 60.6,105.4 61.6,105.3 61.8,97.3 		
			"/>
		<polygon class="st2" points="89.5,93.4 92.8,92.6 85,92.9 76.7,97.3 75.1,97.3 75.3,104 77.9,103.7 85.4,101.6 		"/>
		<polygon class="st2" points="68.8,87.9 69.2,86.6 74.6,83.6 68.8,85.6 62.8,83.6 68.4,86.6 		"/>
		<polygon class="st2" points="68.8,95.2 69.7,92.1 82.5,85 68.8,89.7 54.5,85 67.8,92.1 		"/>
		<polygon class="st2" points="55.2,111.2 56.7,109.3 52,106.2 50.6,106.4 		"/>
		<polygon class="st2" points="75.5,113.6 76.4,104.2 77.9,103.7 75.3,104 		"/>
		<polygon class="st2" points="88.8,103.6 80.1,109.3 81.7,111.2 		"/>
		<polygon class="st2" points="61.4,113.6 61.6,105.3 60.6,105.4 		"/>
		<polygon class="st2" points="50.6,106.4 52,106.2 48,103.6 		"/>
		<path class="st2" d="M102.1,53.1l-33.2-7.4l-34,7.4l-20,24.4l7.4,31.6l3.8-0.4l-7.6-30.6l3.2,0.5l5.6,30l3.8-0.4l-7.2-28.9
			l3.2,0.5l5.3,28.3l8.2-0.8L40,97.1l1.7-2.4V81.2l6.1-8.6l9.9-2.8l11,4.9l11-4.9l9.9,2.8l6.1,8.6v13.5l1.7,2.4l-0.2,4.8l9.1-0.9
			l3.9-21.1l3.2-0.5l-5.3,21.4l3.4-0.3l4.1-21.9l3.2-0.5l-5.5,22.2l3.8-0.4l5.2-22.4L102.1,53.1z M68.8,50.9l-27.4,4.8l27.4-7.3
			l25.9,7L68.8,50.9z"/>
		<path class="st2" d="M106.7,127.2l5-26.7l-3.4,0.3l-6.9,27.6l5.1-27.4l-9.1,0.9l-0.2,6.5l-3.8,2.6v3.3l-7.3,8.4v-3.4l3.4-3.7v-2.2
			l-5,5.1l-3.2-2.8v3L84,122l0,6.1l-4.2,3.5l-10.4-4.2l0-3.6l7.2-4.4l-0.9-3.2l-6.9,1.8l-6.8-1.8l-1.5,3.1l7.7,4.4l0,3.6l-10.5,4.2
			l-4.2-3.5l0-6.1l2.8-3.2v-3l-3.2,2.8l-5-5.1v2.2l3.4,3.7v3.4l-7.3-8.4V111l-3.8-2.6l0-1l-8.2,0.8l3.8,20.3l-5-20.1l-3.8,0.4
			l3.5,18.5L26,108.7l-3.8,0.4l5.5,23.8l41.1,29.4l40.8-29.4l7.6-32.9l-3.8,0.4L106.7,127.2z M68.8,129l9.5,3.5l-1.3,5.4l-3.5,1.8
			H64l-3.7-1.9l-1.1-5.4L68.8,129z M68.8,158l-18.8-12.8l18.8,9.1l18.2-9.1L68.8,158z"/>
		<polygon class="st3" points="14.9,77.5 34.8,53.1 68.8,45.7 102.1,53.1 122.3,77.5 117.2,99.9 120.6,99.6 126,76.4 104.3,49.9 
			68.8,42 32.4,49.9 11,76.4 18.8,109.4 22.2,109.1 		"/>
		<polygon class="st3" points="41.4,55.7 68.8,50.9 94.7,55.3 68.8,48.4 		"/>
		<polygon class="st3" points="68.8,38.8 93.9,44.2 100.4,32.4 91.6,30 89.4,35.7 84.8,35 86.9,29 78,26.9 76.6,32.7 72.9,32 
			73.2,25.6 68.8,24.4 64.4,25.6 64.4,32 60,32.8 58.8,26.8 50.1,29 51.8,34.8 47.7,35.6 45.3,30.1 36.4,32.2 42.8,44.2 		"/>
		<polygon class="st3" points="26.9,79.8 23.7,79.4 30.9,108.3 32.2,108.1 		"/>
		<polygon class="st3" points="21.6,78.6 18.4,78.1 26,108.7 27.2,108.6 		"/>
		<polygon class="st3" points="113.6,79.4 110.4,79.8 106.5,101 108.3,100.8 		"/>
		<polygon class="st3" points="118.9,78.1 115.8,78.6 111.7,100.5 113.4,100.3 		"/>
		<path class="st3" d="M48,103.6l4,2.6l8.6-0.8l-0.1-1.2l-9-2.6l-4.1-8.2l-3.3-0.8l7.8,0.2l8.3,4.4h1.6l-0.2,8l13.7-1.3l-0.1-6.7
			h1.6l8.3-4.4l7.8-0.2l-3.3,0.8l-4.1,8.2l-7.5,2.2l19.4-1.9l0.2-4.8l-1.7-2.4V81.2l-6.1-8.6l-9.9-2.8l-11,4.9l-11-4.9l-9.9,2.8
			l-6.1,8.6v13.5L40,97.1l0.4,10.3l10.2-1L48,103.6z M68.8,85.6l5.8-2l-5.4,3l-0.4,1.3l-0.4-1.3l-5.6-3L68.8,85.6z M68.8,89.7
			L82.5,85l-12.8,7.2l-0.9,3.1l-0.9-3.1L54.5,85L68.8,89.7z"/>
		<polygon class="st4" points="68.8,166.4 112.4,134.9 120.6,99.6 117.2,99.9 109.6,132.9 68.8,162.3 27.8,132.9 22.2,109.1 
			18.8,109.4 24.8,134.9 		"/>
		<polygon class="st4" points="32.2,108.1 30.9,108.3 35.9,128.4 		"/>
		<polygon class="st4" points="27.2,108.6 26,108.7 30.6,127.2 		"/>
		<polygon class="st4" points="108.3,100.8 106.5,101 101.4,128.4 		"/>
		<polygon class="st4" points="113.4,100.3 111.7,100.5 106.7,127.2 		"/>
		<polygon class="st4" points="49.9,145.1 68.8,158 86.9,145.1 68.7,154.2 		"/>
		<polygon class="st4" points="64,139.7 73.5,139.7 77,137.8 78.3,132.4 68.8,129 59.2,132.4 60.3,137.7 		"/>
		<path class="st4" d="M44.2,111v3.3l7.3,8.4v-3.4l-3.4-3.7v-2.2l5,5.1l3.2-2.8v3l-2.8,3.2l0,6.1l4.2,3.5l10.5-4.2l0-3.6l-7.7-4.4
			l1.5-3.1l6.8,1.8l6.9-1.8l0.9,3.2l-7.2,4.4l0,3.6l10.4,4.2l4.2-3.5l0-6.1l-2.8-3.2v-3l3.2,2.8l5-5.1v2.2l-3.4,3.7v3.4l7.3-8.4V111
			l3.8-2.6l0.2-6.5l-19.4,1.9l-1.6,0.5l-0.9,9.4l-0.2-9.6l-13.7,1.3l-0.2,8.3l-0.8-8.2l-8.6,0.8l4.7,3.1l-1.5,1.9l-4.6-4.8l-10.2,1
			l0,1L44.2,111z M88.8,103.6l-7.2,7.6l-1.5-1.9L88.8,103.6z"/>
	</g>
</g>
</svg>
