<?xml version="1.0" encoding="utf-8"?>
<!-- Generator: Adobe Illustrator 22.1.0, SVG Export Plug-In . SVG Version: 6.00 Build 0)  -->
<svg version="1.1" id="Слой_1" xmlns="http://www.w3.org/2000/svg" xmlns:xlink="http://www.w3.org/1999/xlink" x="0px" y="0px"
	 viewBox="0 0 1144.5 424.8999939" style="enable-background:new 0 0 1144.5 424.8999939;" xml:space="preserve">
<style type="text/css">
	.st0{fill:#FFFFFF;}
</style>
<g>
	<g>
		<path class="st0" d="M934.7086182,84.7693863h-5.036377h-0.1081543h-17.2138672h-6.5026245l-33.9696045,208.4344482h29.508667
			l3.4621582-21.1732178h30.8585205l3.4622192,21.1732178h29.508667L934.7086182,84.7693863z M909.6738892,242.5218964
			l10.604187-64.8537598l10.6044922,64.8537598H909.6738892z"/>
	</g>
	<polygon class="st0" points="972.6618652,84.7693863 1002.0905151,84.7693863 1031.5992432,84.7693863 1061.0280762,84.7693863 
		1061.0280762,114.2780838 1031.5992432,114.2780838 1031.5992432,339.1062622 1002.0905151,339.1062622 1002.0905151,114.2780838 
		972.6618652,114.2780838 	"/>
	<rect x="870.5523682" y="309.5975647" class="st0" width="98.9032211" height="29.5086994"/>
	<polygon class="st0" points="736.2000122,84.7693863 765.5239258,84.7693863 765.7087402,84.7693863 765.7087402,85.4365234 
		806.4588013,232.5644531 806.4588013,84.7693863 835.9675293,84.7693863 835.9675293,339.1053467 835.9677734,339.1062622 
		835.9675293,339.1062622 806.4588013,339.1062622 765.7087402,191.9778748 765.7087402,339.1062622 736.2000122,339.1062622 
		736.2000122,85.4365234 736.0151978,84.7693863 	"/>
	<rect x="669.0637817" y="84.7693863" class="st0" width="29.5086994" height="254.3368835"/>
	<polygon class="st0" points="354.928894,84.7693863 384.4375916,84.7693863 384.4375916,84.7698441 390.9530029,84.7698441 
		429.3938599,260.8786011 467.8534546,84.7698441 474.368866,84.7698441 474.368866,84.7693863 503.8775635,84.7693863 
		503.8775635,339.1062622 474.368866,339.1062622 474.368866,190.1088715 441.8458252,339.10672 437.1916199,339.10672 
		422.8660889,339.10672 416.9606628,339.10672 384.4375916,190.1088715 384.4375916,339.1062622 354.928894,339.1062622 	"/>
	<rect x="217.8087311" y="309.5975647" class="st0" width="98.9032211" height="29.5086994"/>
	<polygon class="st0" points="83.2615204,84.7693863 112.7702179,84.7693863 112.7702179,162.5519714 161.4043121,84.7693863 
		194.6601563,84.7693863 131.0240173,186.5453949 193.6417236,340.1308594 160.3858795,340.1308594 112.7702179,223.7546539 
		112.7702179,339.1062622 83.2615204,339.1062622 	"/>
	<path class="st0" d="M1065.1015625,0.0000305h-15.097168h-6.4326172h-8.1181641h-18.8267212h-7.4158325h-21.4616699h-10.8734131
		h-63.3106689h-11.5622559h-1.2821655h-3.7903442h-2.2228394h-6.7527466h-7.343811h-5.8951416h-7.840332h-4.8947754h-10.1827393
		h-10.472229h-36.414978h-11.6734619h-55.00177h-12.0011597h-8.7175903h-6.7512207h-13.4868774H686.965332h-2.3145142h-6.3411255
		h-1.3191528h-66.8293457h-18.395874h-0.6826782h-66.6616821h-12.3668823H0.3680216v424.8999634h148.5482025h24.3879395h25.5802002
		h75.194519h132.2096252h17.961731h21.4879456h58.0698547h12.5919189h14.8638916h30.5021973h79.5745239h502.5810547V0.0000305
		H1065.1015625z M1117.6916504,398.6700439H26.5979767V26.2299843h1091.0936279V398.6700439z"/>
	<polygon class="st0" points="112.7702179,223.7546539 160.3858795,340.1308594 193.6417236,340.1308594 131.0240173,186.5453949 
		194.6601563,84.7693863 161.4043121,84.7693863 112.7702179,162.5519714 112.7702179,84.7693863 83.2615204,84.7693863 
		83.2615204,339.1062622 112.7702179,339.1062622 	"/>
	<polygon class="st0" points="384.4375916,190.1088715 416.9606628,339.10672 422.8660889,339.10672 437.1916199,339.10672 
		441.8458252,339.10672 474.368866,190.1088715 474.368866,339.1062622 503.8775635,339.1062622 503.8775635,84.7693863 
		474.368866,84.7693863 474.368866,84.7698441 467.8534546,84.7698441 429.3938599,260.8786011 390.9530029,84.7698441 
		384.4375916,84.7698441 384.4375916,84.7693863 354.928894,84.7693863 354.928894,339.1062622 384.4375916,339.1062622 	"/>
	<path class="st0" d="M617.8040771,206.5956879c8.0651245-9.0476532,13.0077515-20.9388275,13.0077515-34.013092v-39.9750214
		c0-26.4202347-21.4179688-47.8381882-47.8381958-47.8381882h-18.2050781h-11.2414551h-18.2672729v254.3368835h29.508728v-0.0866699
		h21.9522095c26.4202271,0,47.8381958-21.4179688,47.8381958-47.8381958v-46.7866058
		C634.55896,229.4023438,628.0744019,215.9582672,617.8040771,206.5956879z M564.7685547,114.7464752h18.2050781
		c9.8488159,0,17.861084,8.0125198,17.861084,17.8610992v39.9750214c0,10.0752411-7.0656738,18.5154419-16.4979858,20.6684875
		c-0.3261719-0.0061798-0.6429443-0.0489349-0.9703979-0.0489349h-18.5977783V114.7464752z M604.5818481,291.1813965
		c0,9.8485718-8.0122681,17.861084-17.861084,17.861084h-21.9522095V223.775238h14.850647
		c2.1374512,0,4.2310791-0.1726685,6.2999268-0.4269867c10.4969482,1.2667999,18.6627197,10.2135925,18.6627197,21.0465393
		V291.1813965z"/>
	<rect x="669.0637817" y="84.7693863" class="st0" width="29.5086994" height="254.3368835"/>
	<rect x="870.5523682" y="309.5975647" class="st0" width="98.9032211" height="29.5086994"/>
	<rect x="217.8087311" y="309.5975647" class="st0" width="98.9032211" height="29.5086994"/>
	<polygon class="st0" points="1002.0905151,339.1062622 1031.5992432,339.1062622 1031.5992432,114.2780838 
		1061.0280762,114.2780838 1061.0280762,84.7693863 1031.5992432,84.7693863 1002.0905151,84.7693863 972.6618652,84.7693863 
		972.6618652,114.2780838 1002.0905151,114.2780838 	"/>
	<polygon class="st0" points="736.2000122,339.1062622 765.7087402,339.1062622 765.7087402,191.9778748 806.4588013,339.1062622 
		835.9675293,339.1062622 835.9677734,339.1062622 835.9675293,339.1053467 835.9675293,84.7693863 806.4588013,84.7693863 
		806.4588013,232.5644531 765.7087402,85.4365234 765.7087402,84.7693863 765.5239258,84.7693863 736.2000122,84.7693863 
		736.0151978,84.7693863 736.2000122,85.4365234 	"/>
	<g>
		<path class="st0" d="M272.4909973,84.7693863h-8.8976135c-24.3170624,0-44.0297852,19.7127151-44.0297852,44.0297623v122.2484894
			c0,24.3170471,19.7127228,44.0297852,44.0297852,44.0297852h8.8976135c24.3170471,0,44.0297546-19.712738,44.0297546-44.0297852
			V128.7991486C316.520752,104.4821014,296.8080444,84.7693863,272.4909973,84.7693863z M286.5436707,251.0476379
			c0,7.7488403-6.3038635,14.0526733-14.0526733,14.0526733h-8.8976135c-7.7488403,0-14.0526886-6.303833-14.0526886-14.0526733
			V128.7991486c0-7.7488251,6.3038483-14.0526733,14.0526886-14.0526733h8.8976135
			c7.7488098,0,14.0526733,6.3038483,14.0526733,14.0526733V251.0476379z"/>
	</g>
</g>
</svg>
