<svg width="125" height="120" viewBox="0 0 125 120" fill="none" xmlns="http://www.w3.org/2000/svg">
<path d="M15.7821 49.302H5.90643V56.7668H14.943V59.4166H5.90643V69.2403H3.09863V46.6199H15.7821V49.302ZM19.54 48.7527V45.6182H22.5091V48.7527H19.54ZM19.6691 69.2403V51.7903H22.4123V69.2403H19.6691ZM35.8658 51.6934H37.415V54.3109H35.6399C34.0693 54.3109 32.8428 54.7956 31.9607 55.765C31.1001 56.7129 30.6698 58.0486 30.6698 59.7721V69.2403H27.9266V51.7903H29.863L30.3148 54.4401C31.5842 52.609 33.4345 51.6934 35.8658 51.6934ZM56.1381 60.5799C56.1381 60.8169 56.1166 61.1508 56.0735 61.5817H41.1954C41.4106 63.1974 42.0776 64.5008 43.1964 65.4918C44.3152 66.4612 45.6922 66.9459 47.3275 66.9459C48.5323 66.9459 49.5974 66.6874 50.5225 66.1703C51.4692 65.6318 52.2223 64.8777 52.7817 63.9083H55.654C54.9224 65.718 53.8251 67.129 52.3621 68.1416C50.899 69.1326 49.2208 69.628 47.3275 69.628C44.8101 69.628 42.7016 68.7555 41.0018 67.0106C39.3021 65.2656 38.4522 63.1005 38.4522 60.5153C38.4522 57.9086 39.3021 55.7435 41.0018 54.02C42.7016 52.275 44.8101 51.4025 47.3275 51.4025C49.9308 51.4025 52.0501 52.2858 53.6853 54.0523C55.3205 55.8188 56.1381 57.9947 56.1381 60.5799ZM47.3275 54.02C46.2947 54.02 45.348 54.2247 44.4874 54.634C43.6483 55.0433 42.949 55.6357 42.3896 56.4113C41.8302 57.1653 41.4536 58.0378 41.26 59.0288H53.3625C53.1689 58.0163 52.7924 57.133 52.233 56.379C51.6736 55.6035 50.9744 55.0218 50.1352 54.634C49.2961 54.2247 48.3602 54.02 47.3275 54.02ZM67.3963 69.5958C65.6965 69.5958 64.2012 69.2941 62.9103 68.6909C61.6408 68.0877 60.6511 67.226 59.9411 66.1057C59.2311 64.9639 58.876 63.6391 58.876 62.131H62.6198C62.6198 63.3374 63.0609 64.2961 63.943 65.007C64.8467 65.6964 65.987 66.0411 67.364 66.0411C68.6119 66.0411 69.6661 65.7395 70.5268 65.1363C71.3874 64.5116 71.8177 63.7037 71.8177 62.7127C71.8177 62.3465 71.7531 62.0125 71.6241 61.7109C71.5165 61.4093 71.3229 61.1508 71.0432 60.9354C70.7849 60.7199 70.5268 60.5368 70.2686 60.386C70.0319 60.2136 69.6661 60.0521 69.1713 59.9013C68.6979 59.7505 68.3107 59.6428 68.0094 59.5782C67.7083 59.492 67.2564 59.3735 66.654 59.2227C65.987 59.0719 65.4813 58.9534 65.1371 58.8672C64.7928 58.7595 64.3088 58.6087 63.6848 58.4148C63.0823 58.1994 62.609 57.9947 62.2648 57.8008C61.9421 57.607 61.5547 57.3484 61.1029 57.0253C60.6511 56.6806 60.3068 56.3251 60.0702 55.9589C59.855 55.5711 59.6614 55.108 59.4892 54.5693C59.3171 54.0308 59.2311 53.4275 59.2311 52.7597C59.2311 50.7347 59.9411 49.1513 61.3611 48.0095C62.8026 46.8677 64.7283 46.2968 67.138 46.2968C69.5908 46.2968 71.5057 46.9215 72.8828 48.1711C74.2598 49.399 74.9483 51.0794 74.9483 53.2122H71.2691C71.2691 52.1349 70.871 51.2948 70.075 50.6916C69.3004 50.0669 68.2999 49.7545 67.0735 49.7545C65.8901 49.7545 64.9005 50.0129 64.1043 50.53C63.3298 51.0255 62.9425 51.7257 62.9425 52.6305C62.9425 53.0183 63.0393 53.3737 63.233 53.6968C63.4266 54.02 63.6526 54.2893 63.9107 54.5048C64.1689 54.6986 64.5562 54.8925 65.0725 55.0864C65.589 55.2803 66.0192 55.4311 66.3635 55.5388C66.7292 55.625 67.2564 55.7543 67.9449 55.9266C68.4828 56.0558 68.8808 56.1527 69.139 56.2174C69.4187 56.282 69.8167 56.4005 70.3332 56.5729C70.8495 56.7237 71.2475 56.8637 71.5272 56.993C71.8069 57.1007 72.162 57.2623 72.5923 57.4777C73.0226 57.6931 73.3561 57.9086 73.5927 58.124C73.8294 58.3394 74.0876 58.6087 74.3673 58.9319C74.6686 59.255 74.8944 59.5997 75.0451 59.9659C75.1957 60.3107 75.3248 60.7199 75.4323 61.1939C75.5399 61.6463 75.5937 62.131 75.5937 62.648C75.5937 64.8455 74.8192 66.5582 73.27 67.7861C71.7209 68.9926 69.763 69.5958 67.3963 69.5958ZM83.6119 65.718H93.3905V69.2403H79.9005V46.6199H93.0356V50.11H83.6119V55.9912H92.1967V59.4166H83.6119V65.718Z" fill="black"/>
<path d="M113.866 39L118.715 45.72C118.774 45.72 119.143 45.5856 119.504 45.4344C119.865 45.2832 120.057 45.1572 120.343 45.006C124.378 50.2476 124.957 56.0856 124.009 62.1924C123.581 64.9476 121.744 66.8964 119.537 68.4336C114.697 71.7936 105.36 71.6508 100.628 68.1816C96.3914 65.082 95.2504 60.6216 95.7454 55.8084C96.2404 50.9952 98.5978 47.3664 103.363 45.6276C104.16 45.3336 104.974 45.0816 105.779 44.7876C108.875 43.7628 111.861 42.5784 113.866 39ZM110.259 69.8448C117.063 69.7692 120.091 64.6452 120.032 59.2356C119.965 53.07 115.695 48.8868 110.057 49.0548C104.286 49.2228 100.208 53.9184 100.418 60.1764C100.611 65.9976 104.714 70.0296 110.259 69.8448Z" fill="black"/>
</svg>
