<svg width="224" height="52" viewBox="0 0 224 52" fill="none" xmlns="http://www.w3.org/2000/svg">
<g clip-path="url(#clip0)">
<path d="M69.9971 35.7139C69.9809 37.4548 70.1575 39.1922 70.5237 40.8943C70.8247 42.3481 71.4606 43.7118 72.3808 44.8771C73.3281 46.0169 74.5487 46.8984 75.9288 47.4396C77.7178 48.1061 79.6195 48.4183 81.5278 48.3586C83.0369 48.3861 84.5439 48.2365 86.0181 47.913C87.1518 47.6438 88.2636 47.29 89.3443 46.8546L88.1802 40.3931C87.345 40.7065 86.4818 40.9396 85.6023 41.0893C84.6967 41.2531 83.7785 41.337 82.8582 41.34C81.0099 41.34 79.781 40.82 79.1718 39.7802C78.5039 38.4925 78.1884 37.0513 78.2572 35.6025V25.2973H88.1802V18.39H78.2572V9.75586L69.9971 11.0928L69.9971 35.7139Z" fill="#12100B"/>
<path d="M98.8285 41.1449C98.3816 40.86 98.023 40.4563 97.7929 39.9791C97.5628 39.5019 97.4703 38.97 97.5258 38.4432C97.5036 37.8544 97.6581 37.2725 97.9692 36.7721C98.2747 36.3176 98.6956 35.9523 99.1888 35.7137C99.756 35.4392 100.365 35.2604 100.99 35.1845C101.716 35.0893 102.448 35.0428 103.18 35.0452C103.792 35.0488 104.402 35.086 105.01 35.1567C105.675 35.2315 106.174 35.3058 106.506 35.3796V41.6741C105.919 41.7629 105.326 41.8187 104.732 41.8411C103.993 41.8785 103.217 41.897 102.404 41.8968C101.167 41.9592 99.9353 41.7002 98.8285 41.1449ZM98.8838 17.7493C97.9414 17.8424 97.0453 17.9538 96.1953 18.0835C95.3447 18.2141 94.5593 18.3627 93.8392 18.5292C93.1186 18.6962 92.518 18.854 92.0375 19.0026L93.0908 25.6871C94.2407 25.2786 95.4296 24.9892 96.6387 24.8237C98.0151 24.619 99.4048 24.5166 100.796 24.5173C102.903 24.5173 104.381 24.9444 105.231 25.7985C105.663 26.2492 105.998 26.7827 106.218 27.3668C106.437 27.9508 106.535 28.5733 106.506 29.1964V29.9763C105.843 29.8014 105.166 29.6803 104.483 29.6141C103.535 29.5157 102.582 29.4692 101.628 29.4748C100.082 29.4707 98.5396 29.6294 97.0268 29.9484C95.6367 30.2298 94.3053 30.7479 93.0908 31.4802C91.9506 32.1802 91.0065 33.1576 90.3467 34.3211C89.6275 35.6537 89.2737 37.1526 89.3212 38.666C89.2739 40.2175 89.577 41.7597 90.2081 43.178C90.7786 44.3798 91.6588 45.4084 92.7582 46.1582C93.9598 46.9587 95.3062 47.5168 96.7219 47.8013C98.4084 48.151 100.127 48.3191 101.85 48.3028C104.41 48.3341 106.969 48.1571 109.5 47.7736C111.606 47.421 113.251 47.1146 114.434 46.8544V29.5863C114.452 27.914 114.247 26.2467 113.824 24.6286C113.455 23.2136 112.741 21.9121 111.745 20.8409C110.658 19.7346 109.316 18.9121 107.837 18.4455C105.863 17.8383 103.803 17.5561 101.739 17.61C100.777 17.61 99.8257 17.6564 98.8838 17.7493V17.7493Z" fill="#12100B"/>
<path d="M117.598 39.1394C118.132 40.9451 119.059 42.6098 120.315 44.0135C121.63 45.4415 123.25 46.5552 125.055 47.2721C127.245 48.119 129.581 48.526 131.929 48.4697C133.529 48.4826 135.126 48.3333 136.696 48.0241C137.929 47.7892 139.136 47.4347 140.3 46.9657L139.135 40.1698C138.122 40.5936 137.061 40.8929 135.976 41.0611C134.913 41.24 133.838 41.3332 132.76 41.3397C129.951 41.3397 127.983 40.6155 126.856 39.1671C125.728 37.7189 125.165 35.6765 125.165 33.0398C125.061 30.8877 125.697 28.7648 126.967 27.0238C128.168 25.5015 129.988 24.7402 132.428 24.7399C133.472 24.7288 134.514 24.841 135.532 25.0742C136.398 25.2794 137.25 25.5398 138.082 25.8541L139.801 19.2253C138.585 18.7069 137.323 18.3058 136.031 18.0277C134.627 17.7381 133.196 17.598 131.762 17.6099C129.593 17.5713 127.44 17.9888 125.443 18.8353C123.661 19.6054 122.057 20.7336 120.731 22.1497C119.422 23.5673 118.413 25.2347 117.765 27.0517C117.073 28.9719 116.726 30.999 116.739 33.0398C116.721 35.1044 117.01 37.1602 117.598 39.1394Z" fill="#12100B"/>
<path d="M141.603 35.7139C141.586 37.4548 141.763 39.1922 142.129 40.8943C142.43 42.3481 143.066 43.7117 143.986 44.8771C144.934 46.0169 146.154 46.8984 147.534 47.4396C149.323 48.1061 151.225 48.4183 153.133 48.3586C154.642 48.3861 156.15 48.2365 157.624 47.913C158.757 47.6438 159.869 47.29 160.95 46.8546L159.786 40.3931C158.951 40.7064 158.087 40.9396 157.208 41.0893C156.302 41.2531 155.384 41.337 154.464 41.34C152.615 41.34 151.386 40.82 150.777 39.7802C150.109 38.4925 149.794 37.0513 149.863 35.6025V25.2973H159.786V18.39H149.863V9.75586L141.603 11.0928L141.603 35.7139Z" fill="#12100B"/>
<path d="M170.947 18.3899H162.688V47.69H170.947V18.3899ZM170.272 7.94611C169.294 7.11411 168.051 6.65723 166.767 6.65723C165.482 6.65723 164.24 7.11411 163.261 7.94611C162.765 8.38712 162.373 8.93389 162.116 9.54613C161.859 10.1584 161.742 10.8205 161.775 11.4837C161.742 12.147 161.858 12.8092 162.116 13.4214C162.373 14.0337 162.764 14.5805 163.261 15.0214C164.24 15.8533 165.482 16.3102 166.767 16.3102C168.051 16.3102 169.294 15.8533 170.272 15.0214C170.769 14.5804 171.16 14.0336 171.417 13.4213C171.675 12.8091 171.791 12.147 171.758 11.4837C171.791 10.8205 171.674 10.1584 171.417 9.54622C171.16 8.934 170.769 8.38722 170.272 7.94611H170.272Z" fill="#12100B"/>
<path d="M179.003 41.2562C177.527 40.9418 176.081 40.5039 174.679 39.9471L173.293 46.6873C174.456 47.1441 175.651 47.5163 176.869 47.8013C178.985 48.2906 181.155 48.5151 183.327 48.4697C187.281 48.4697 190.339 47.7287 192.502 46.2468C193.562 45.5253 194.417 44.5423 194.985 43.3931C195.554 42.244 195.815 40.9676 195.745 39.6878C195.762 38.599 195.622 37.5134 195.329 36.4648C195.044 35.5246 194.551 34.6602 193.887 33.9354C193.077 33.0794 192.131 32.3625 191.088 31.8135C189.642 31.0409 188.141 30.3745 186.598 29.8195C185.711 29.4835 184.981 29.1748 184.408 28.8934C183.934 28.671 183.48 28.409 183.05 28.1102C182.764 27.9238 182.535 27.664 182.385 27.358C182.269 27.0753 182.213 26.772 182.218 26.4667C182.218 25.0185 183.512 24.2944 186.099 24.2944C187.375 24.2812 188.649 24.412 189.896 24.6843C190.955 24.9251 192.001 25.2226 193.028 25.5756L194.47 19.1139C193.208 18.6616 191.909 18.3168 190.589 18.0835C188.908 17.763 187.2 17.6044 185.489 17.61C181.941 17.61 179.151 18.4084 177.118 20.0053C176.126 20.7698 175.332 21.7603 174.802 22.8941C174.272 24.0278 174.02 25.272 174.069 26.5226C174.038 27.7574 174.245 28.9867 174.679 30.1433C175.065 31.1166 175.651 31.9988 176.397 32.7336C177.189 33.4944 178.096 34.1243 179.086 34.5997C180.233 35.1604 181.408 35.6624 182.606 36.1036C183.892 36.5596 185.135 37.1281 186.321 37.8025C186.661 37.9606 186.954 38.2064 187.168 38.5148C187.382 38.8231 187.511 39.1829 187.54 39.5572C187.578 39.9067 187.508 40.2595 187.34 40.5682C187.171 40.8769 186.912 41.1267 186.598 41.2841C185.566 41.6453 184.473 41.7968 183.382 41.7297C181.91 41.7265 180.442 41.5678 179.003 41.2562Z" fill="#12100B"/>
<path d="M197.532 39.2786C198.105 41.0742 199.071 42.72 200.359 44.0969C201.712 45.5051 203.359 46.5986 205.182 47.2999C207.368 48.1233 209.692 48.5204 212.028 48.4696C213.065 48.4695 214.102 48.4138 215.133 48.3026C216.167 48.1911 217.137 48.0518 218.043 47.8848C218.876 47.735 219.699 47.5398 220.51 47.2999C221.119 47.1268 221.712 46.9032 222.284 46.6315L221.175 39.8912C220.026 40.3665 218.826 40.7121 217.6 40.9218C216.129 41.2014 214.635 41.3413 213.137 41.3396C211.141 41.4425 209.163 40.9164 207.483 39.8356C206.81 39.3758 206.247 38.7727 205.835 38.0696C205.422 37.3665 205.171 36.5809 205.099 35.7692H223.836C223.873 35.3236 223.91 34.813 223.947 34.2373C223.984 33.6621 224.002 33.1329 224.003 32.6498C224.003 27.7114 222.802 23.97 220.399 21.4256C217.997 18.8823 214.726 17.6104 210.587 17.6099C208.811 17.6103 207.052 17.9506 205.404 18.6125C203.728 19.2772 202.208 20.2825 200.941 21.5649C199.582 22.9647 198.518 24.6219 197.809 26.439C196.973 28.6149 196.569 30.9324 196.617 33.2626C196.6 35.3038 196.909 37.3347 197.532 39.2786ZM205.099 30.0875C205.211 29.3767 205.387 28.6775 205.626 27.9985C205.852 27.3366 206.199 26.7226 206.651 26.1882C207.11 25.657 207.677 25.2297 208.314 24.9349C209.064 24.6021 209.878 24.4403 210.698 24.4613C211.53 24.4336 212.357 24.6055 213.109 24.9628C213.728 25.2747 214.275 25.7109 214.717 26.2438C215.145 26.7705 215.465 27.3762 215.66 28.0264C215.863 28.6964 215.984 29.3885 216.02 30.0875L205.099 30.0875Z" fill="#12100B"/>
<path d="M14.5433 40.916C14.1153 40.7047 13.763 40.5276 13.4081 40.356C9.1772 38.3108 4.9509 36.2559 0.708539 34.2347C0.470879 34.1613 0.268388 34.0034 0.139429 33.7909C0.0104705 33.5783 -0.0359983 33.3258 0.00882703 33.0813C0.129113 31.792 0.196227 30.4979 0.294033 29.2064C0.451513 27.1266 0.617466 25.0475 0.777206 22.9679C0.834376 22.2237 0.904975 21.4795 0.92915 20.734C0.933764 20.5284 0.990766 20.3275 1.09477 20.1501C1.19877 19.9727 1.34632 19.8247 1.52348 19.7202C10.3452 13.3626 19.162 6.99831 27.974 0.627254C28.1521 0.498626 28.3305 0.370489 28.5073 0.240049C28.9389 -0.0785273 28.9387 -0.0792551 29.4084 0.233364C38.7339 6.44139 48.0623 12.6451 57.3937 18.8444C57.6049 18.972 57.7802 19.1512 57.9031 19.3651C58.026 19.579 58.0925 19.8206 58.0963 20.0672C58.4632 24.2663 58.8433 28.4641 59.2366 32.6608C59.2652 32.8308 59.2335 33.0055 59.1469 33.1546C59.0604 33.3038 58.9245 33.4181 58.7627 33.4777C54.0631 36.1433 49.3735 38.8265 44.6681 41.4817C44.457 41.5616 44.2818 41.7151 44.1749 41.9138C44.068 42.1126 44.0365 42.3432 44.0862 42.5634C44.1641 43.1037 44.1255 43.6599 44.1714 44.2063C44.1886 44.3031 44.171 44.4029 44.1217 44.4879C44.0724 44.573 43.9945 44.6379 43.9019 44.6711C43.7833 44.7284 43.666 44.7884 43.548 44.847C38.9054 47.1502 34.2644 49.4565 29.625 51.766C29.3721 51.9144 29.0851 51.9949 28.7919 51.9996C28.4987 52.0043 28.2093 51.9329 27.9519 51.7926C23.6533 49.686 19.3438 47.6016 15.0235 45.5394C14.7985 45.4686 14.6071 45.318 14.4857 45.1159C14.3642 44.9138 14.321 44.6743 14.3641 44.4425C14.4604 43.2857 14.4862 42.1231 14.5433 40.916ZM29.907 23.1717C30.0742 23.4447 30.1566 23.5955 30.254 23.7359C34.494 29.846 38.7353 35.9551 42.978 42.0634C42.985 42.0735 43.0159 42.0712 43.0346 42.0682C43.0656 42.0591 43.0959 42.0477 43.1251 42.0339C43.1251 41.8948 43.1313 41.743 43.1243 41.5919C42.8399 35.4338 42.5542 29.2757 42.2671 23.1178C42.2583 23.0531 42.2409 22.9899 42.2153 22.9298C42.2061 22.9098 42.1925 22.8921 42.1757 22.8778C42.1611 22.8629 42.1431 22.8513 42.0795 22.801L29.907 23.1717ZM15.3184 43.4613L15.4702 43.5419L28.3765 29.7588L16.2019 24.4905C15.9036 30.8957 15.611 37.1785 15.3184 43.4613ZM28.3573 1.44767C23.6117 4.84368 19.0021 8.14242 14.3125 11.4984L24.6748 16.6055C25.8174 15.6797 26.897 14.7818 28.0053 13.9207C28.1639 13.8095 28.2908 13.659 28.3736 13.4839C28.4563 13.3088 28.4921 13.1152 28.4773 12.9221C28.4463 9.52124 28.4386 6.12013 28.4189 2.71912C28.4168 2.35003 28.3841 1.98118 28.3573 1.44767ZM29.0483 51.1208L42.563 44.4184C41.5534 43.6894 29.9302 37.3533 29.4153 37.2569C29.2941 41.8341 29.1732 46.4019 29.0483 51.1208ZM15.8061 44.9894L28.3953 51.078C28.6009 50.4727 28.9271 37.7943 28.7513 37.2295L15.8061 44.9894ZM28.4198 28.9427C28.5823 27.8303 28.5196 14.7663 28.3482 14.3047L16.5979 23.839L28.4198 28.9427ZM41.7128 22.1153L41.7815 21.9705C37.7679 17.5514 33.7543 13.1323 29.6927 8.66035C29.5258 9.45001 29.6111 21.9047 29.7735 22.3915L41.7128 22.1153ZM29.7982 24.0191L29.6377 24.0923C29.6377 24.2218 29.6367 24.3514 29.6378 24.4809C29.6699 28.1246 29.7112 31.7682 29.7228 35.4119C29.7077 35.5933 29.7508 35.7748 29.8457 35.9302C29.9406 36.0856 30.0825 36.2068 30.2508 36.2764C34.2707 38.4881 38.2851 40.71 42.294 42.942C42.4362 43.0209 42.5915 43.0762 42.7408 43.1424L42.8155 43.0523L29.7982 24.0191ZM30.1306 8.14231L30.0494 8.26834C34.1439 12.7773 38.2384 17.2863 42.3329 21.7953L42.4741 21.7638C42.8661 18.0781 43.2339 14.3899 43.5875 10.6644L30.1306 8.14231ZM44.467 11.4551C44.509 12.3108 47.3851 24.4747 47.6422 24.8955L56.969 19.5756C52.745 16.8319 48.626 14.1565 44.467 11.455V11.4551ZM57.4709 33.2608C56.7059 32.9876 44.1335 31.2182 43.582 31.3C43.7266 34.455 43.8716 37.6174 44.0227 40.9135L57.4709 33.2608ZM13.1709 12.4554C12.4633 12.7756 2.40004 20.0788 2.11575 20.4582C3.03577 21.2827 9.88445 26.18 10.3751 26.3479L13.1709 12.4554ZM14.9006 25.0725L14.7845 24.9728C13.2905 25.911 11.7966 26.8493 10.3027 27.7877C8.77999 28.7447 7.25465 29.6977 5.73628 30.6616C4.25463 31.6022 2.74208 32.4967 1.21367 33.5477L9.63149 37.6113C11.4131 33.3718 13.1569 29.2221 14.9006 25.0725ZM47.9374 25.3252C48.3547 25.7715 57.8548 31.8292 58.4343 32.0057L57.3301 19.9148C54.1257 21.7606 51.0366 23.54 47.9374 25.3252V25.3252ZM16.25 23.3053C16.9196 22.9709 23.8037 17.3537 24.0936 16.9101C22.4595 16.1037 20.8325 15.295 19.2003 14.4969C17.5646 13.6972 15.9496 12.8528 14.1771 12.0563L16.25 23.3053ZM43.2205 23.3484C43.3358 25.8775 43.4431 28.2338 43.5526 30.635L57.4858 32.631L57.5459 32.495L43.2205 23.3484ZM1.76929 20.9137C1.44686 24.846 1.16528 28.6523 0.867357 32.6166C3.98919 30.6813 6.97848 28.8282 10.0529 26.9223C7.2777 24.9093 4.58384 22.9552 1.76929 20.9137V20.9137ZM41.7652 9.66057C41.0711 8.906 30.0418 1.61349 29.5662 1.45435V7.29783L41.7652 9.66057ZM16.8483 42.8327L16.9479 42.9435C17.0442 42.904 17.1384 42.8596 17.2301 42.8104C20.8825 40.6218 24.5355 38.4342 28.1891 36.2476C28.3252 36.1819 28.438 36.0763 28.5126 35.9449C28.5871 35.8135 28.6198 35.6625 28.6063 35.5121C28.5846 33.9541 28.5903 32.3958 28.5836 30.8376C28.5831 30.7371 28.5615 30.6367 28.5309 30.3749C24.5609 34.5852 20.7165 38.7201 16.8483 42.8327ZM14.5855 40.0089C14.8002 35.2642 15.0078 30.6781 15.2153 26.092L15.0589 26.0557C13.4122 29.9743 11.7654 33.8929 10.1043 37.8458L14.5855 40.0089ZM13.6547 13.4431L13.5123 13.4335C12.6548 17.6908 11.7973 21.9482 10.9137 26.3348C11.1949 26.1833 11.364 26.1029 11.5225 26.0051C12.6985 25.2795 13.8732 24.5518 15.0466 23.8221C15.6145 23.469 15.6094 23.4672 15.4856 22.8317C15.1043 20.8747 14.7244 18.9174 14.346 16.9598C14.1177 15.7871 13.8872 14.6149 13.6547 13.4431ZM44.1138 12.638L44.0031 12.6333C43.9552 12.788 43.9179 12.9459 43.8916 13.1058C43.604 16.0058 43.3298 18.9072 43.0273 21.8057C42.9969 21.9526 43.0162 22.1054 43.0821 22.2401C43.148 22.3749 43.2568 22.4839 43.3915 22.5501C44.4262 23.2108 45.4438 23.8984 46.4709 24.5711C46.627 24.6577 46.7877 24.7357 46.9524 24.8048C45.9903 20.6814 45.052 16.6597 44.1138 12.638Z" fill="black"/>
</g>
<defs>
<clipPath id="clip0">
<rect width="224" height="52" fill="white"/>
</clipPath>
</defs>
</svg>
