<svg width="33" height="35" viewBox="0 0 33 35" fill="none" xmlns="http://www.w3.org/2000/svg">
<path fill-rule="evenodd" clip-rule="evenodd" d="M17.6294 1.21233C18.666 0.00299004 20.3926 -0.345684 21.8172 0.366634C23.3623 1.13916 24.1042 2.93021 23.5579 4.56898L20.9248 12.4684H28.234C31.1499 12.4684 33.3538 15.1092 32.8322 17.978L30.4529 31.0641C30.0489 33.2863 28.1134 34.9016 25.8547 34.9016H12.1502C9.569 34.9016 7.47656 32.8092 7.47656 30.2281V14.7862C7.47656 13.6706 7.87565 12.5917 8.6017 11.7447L17.6294 1.21233ZM20.9812 2.03871C20.3238 1.71002 19.5271 1.87091 19.0488 2.42894L10.0211 12.9613C9.58545 13.4695 9.346 14.1168 9.346 14.7862V30.2281C9.346 31.7767 10.6015 33.0322 12.1502 33.0322H25.8547C27.2099 33.0322 28.3712 32.063 28.6137 30.7297L30.9929 17.6436C31.3059 15.9223 29.9835 14.3378 28.234 14.3378H18.3311L21.7844 3.97781C22.0365 3.22163 21.6941 2.39518 20.9812 2.03871Z" fill="#C4C4C4"/>
<path fill-rule="evenodd" clip-rule="evenodd" d="M0.93472 14.3379C1.45095 14.3379 1.86944 14.7564 1.86944 15.2726V32.0976C1.86944 32.6138 1.45095 33.0323 0.93472 33.0323C0.418488 33.0323 0 32.6138 0 32.0976V15.2726C0 14.7564 0.418488 14.3379 0.93472 14.3379Z" fill="#C4C4C4"/>
</svg>
