<svg width="31" height="31" viewBox="0 0 31 31" fill="none" xmlns="http://www.w3.org/2000/svg">
<path fill-rule="evenodd" clip-rule="evenodd" d="M15.4998 8.85742C15.9075 8.85742 16.2379 9.18788 16.2379 9.59552V16.9765C16.2379 17.3841 15.9075 17.7146 15.4998 17.7146C15.0922 17.7146 14.7617 17.3841 14.7617 16.9765V9.59552C14.7617 9.18788 15.0922 8.85742 15.4998 8.85742Z" fill="#BB0852"/>
<path fill-rule="evenodd" clip-rule="evenodd" d="M15.4996 22.8811C16.3149 22.8811 16.9758 22.2202 16.9758 21.4049C16.9758 20.5896 16.3149 19.9287 15.4996 19.9287C14.6844 19.9287 14.0234 20.5896 14.0234 21.4049C14.0234 22.2202 14.6844 22.8811 15.4996 22.8811Z" fill="#BB0852"/>
<path fill-rule="evenodd" clip-rule="evenodd" d="M0 15.5C0 6.93959 6.93959 0 15.5 0C24.0604 0 31 6.93959 31 15.5C31 24.0604 24.0604 31 15.5 31C6.93959 31 0 24.0604 0 15.5ZM15.5 1.47619C7.75486 1.47619 1.47619 7.75486 1.47619 15.5C1.47619 23.2451 7.75486 29.5238 15.5 29.5238C23.2451 29.5238 29.5238 23.2451 29.5238 15.5C29.5238 7.75486 23.2451 1.47619 15.5 1.47619Z" fill="#BB0852"/>
</svg>
