<svg width="30" height="32" viewBox="0 0 30 32" fill="none" xmlns="http://www.w3.org/2000/svg">
<path fill-rule="evenodd" clip-rule="evenodd" d="M0.93472 0C1.45095 0 1.86944 0.418488 1.86944 0.93472V30.8457C1.86944 31.362 1.45095 31.7805 0.93472 31.7805C0.418488 31.7805 0 31.362 0 30.8457V0.93472C0 0.418488 0.418488 0 0.93472 0Z" fill="#C4C4C4"/>
<path fill-rule="evenodd" clip-rule="evenodd" d="M0 4.673C0 4.15677 0.418488 3.73828 0.93472 3.73828H21.4986C22.0148 3.73828 22.4333 4.15677 22.4333 4.673V12.1508C22.4333 12.667 22.0148 13.0855 21.4986 13.0855H0.93472C0.418488 13.0855 0 12.667 0 12.1508C0 11.6345 0.418488 11.216 0.93472 11.216H20.5638V5.60772H0.93472C0.418488 5.60772 0 5.18923 0 4.673Z" fill="#C4C4C4"/>
<path fill-rule="evenodd" clip-rule="evenodd" d="M0 12.1515C0 11.6353 0.418488 11.2168 0.93472 11.2168H28.9763C29.4925 11.2168 29.911 11.6353 29.911 12.1515V19.6293C29.911 20.1455 29.4925 20.564 28.9763 20.564H0.93472C0.418488 20.564 0 20.1455 0 19.6293C0 19.113 0.418488 18.6946 0.93472 18.6946H28.0416V13.0862H0.93472C0.418488 13.0862 0 12.6677 0 12.1515Z" fill="#C4C4C4"/>
<path fill-rule="evenodd" clip-rule="evenodd" d="M0 19.6291C0 19.1128 0.418488 18.6943 0.93472 18.6943H15.8902C16.4065 18.6943 16.825 19.1128 16.825 19.6291V27.1068C16.825 27.623 16.4065 28.0415 15.8902 28.0415H0.93472C0.418488 28.0415 0 27.623 0 27.1068C0 26.5906 0.418488 26.1721 0.93472 26.1721H14.9555V20.5638H0.93472C0.418488 20.5638 0 20.1453 0 19.6291Z" fill="#C4C4C4"/>
</svg>
