<svg width="170" height="159" viewBox="0 0 170 159" fill="none" xmlns="http://www.w3.org/2000/svg">
<path d="M137.66 128.701C135.362 126.627 132.362 125.53 130.031 123.558C127.723 121.473 125.736 119.058 124.133 116.392C121.484 111.809 119.661 106.795 118.75 101.58C118.224 99.9167 118.13 98.1468 118.476 96.4369C118.99 94.9626 120.482 95.1169 121.476 96.0255C122.92 97.587 124.033 99.4237 124.75 101.426C125.984 104.164 127.066 106.969 127.991 109.826C130.168 116.512 132.414 123.695 138.174 128.17C138.637 128.513 138.02 129.319 137.557 128.976C133.168 125.684 130.699 120.747 128.831 115.706C127.171 110.461 125.225 105.31 123.002 100.277C122.676 99.6085 120.739 95.5969 119.573 96.5226C119.179 96.8484 119.264 97.7913 119.264 98.237C119.299 99.1775 119.419 100.113 119.624 101.031C120.395 105.817 121.929 110.447 124.168 114.746C125.793 117.721 127.882 120.418 130.356 122.735C132.705 124.896 135.774 126.164 137.917 128.496C137.945 128.539 137.957 128.59 137.952 128.641C137.947 128.692 137.924 128.739 137.888 128.776C137.852 128.812 137.804 128.834 137.753 128.84C137.702 128.845 137.651 128.832 137.608 128.804L137.66 128.701Z" fill="#9EC6FC"/>
<path d="M137.931 128.342C141.617 130.656 142.817 134.719 144.446 138.508C145.337 140.582 146.263 142.657 147.326 144.663C148.508 146.788 149.929 148.773 151.56 150.577C151.852 150.903 151.475 151.486 151.098 151.194C147.514 148.64 145.749 144.011 144.034 140.119C142.32 136.228 141.343 131.445 137.691 128.753C137.468 128.582 137.691 128.187 137.931 128.342Z" fill="#9EC6FC"/>
<path d="M135.672 118.072C136.472 121.233 137.769 124.248 139.513 127.004C140.351 128.301 141.101 129.653 141.758 131.05C142.051 131.722 142.309 132.408 142.53 133.107C142.81 133.706 142.934 134.367 142.89 135.027C142.876 135.078 142.849 135.123 142.812 135.16C142.774 135.196 142.728 135.222 142.677 135.234C142.626 135.247 142.573 135.245 142.523 135.23C142.473 135.214 142.428 135.186 142.393 135.147C142.055 134.584 141.828 133.961 141.724 133.313C141.501 132.541 141.227 131.804 140.953 131.05C140.356 129.553 139.616 128.117 138.741 126.764C137.071 124.133 135.962 121.186 135.484 118.106C135.484 118.083 135.493 118.062 135.509 118.046C135.525 118.03 135.547 118.021 135.569 118.021C135.592 118.021 135.614 118.03 135.63 118.046C135.646 118.062 135.655 118.083 135.655 118.106L135.672 118.072Z" fill="#9EC6FC"/>
<path d="M136.048 120.78C132.105 109.825 125.505 98.1677 128.454 86.2014C128.882 84.487 130.082 78.7267 132.928 79.3439C135.037 79.8411 135.088 82.5498 135.003 84.247C134.814 87.8815 135.088 91.5674 135.157 95.219C135.26 99.3506 135.157 103.482 135.277 107.631C135.411 111.975 135.795 116.308 136.426 120.609C136.428 120.683 136.404 120.756 136.36 120.815C136.315 120.874 136.251 120.916 136.179 120.934C136.107 120.952 136.031 120.945 135.964 120.914C135.896 120.883 135.842 120.83 135.808 120.763C133.957 114.3 134.197 107.288 134.18 100.636C134.18 97.2077 134.077 93.6246 133.974 90.1273C133.974 88.5672 133.888 87.0243 133.974 85.4642C134.137 84.1979 134.103 82.9139 133.871 81.6583C133.683 81.0926 133.151 80.2011 132.431 80.3725C131.711 80.544 131.505 81.1954 131.248 81.624C130.464 83.104 129.888 84.6845 129.534 86.3214C128.523 90.623 128.523 95.1005 129.534 99.4021C131.094 106.688 134.677 113.374 136.254 120.66C136.254 120.763 136.134 120.797 136.1 120.66L136.048 120.78Z" fill="#9EC6FC"/>
<path d="M142.788 101.528C142.156 106.645 141.916 111.803 142.068 116.957C142.17 118.946 142.359 120.934 142.513 122.94C142.702 125.34 142.77 127.758 143.01 130.158C143.182 131.872 143.456 133.484 143.782 135.129C144.183 136.504 144.475 137.909 144.656 139.33C144.656 139.724 144.159 139.81 143.953 139.518C143.347 138.396 142.963 137.168 142.822 135.901C142.548 134.512 142.325 133.106 142.17 131.683C141.879 129.112 141.913 126.54 141.742 123.934C141.348 119.781 141.193 115.608 141.279 111.437C141.473 108.08 141.857 104.738 142.428 101.425C142.428 101.219 142.805 101.27 142.788 101.425L142.788 101.528Z" fill="#9EC6FC"/>
<path d="M142.045 104.443C141.771 101.152 141.685 97.8603 141.308 94.5858C140.931 91.3114 140.417 88.3626 140.022 85.2253C139.585 82.1177 139.534 78.968 139.868 75.8477C139.962 73.7521 140.45 71.6931 141.308 69.7788C141.942 68.6988 143.263 68.0645 144.171 69.2131C144.891 70.4194 145.298 71.7867 145.354 73.1904C145.748 76.122 146.057 79.0536 146.263 82.0023C146.588 85.2094 146.64 88.4384 146.417 91.6542C146.113 94.183 145.539 96.6717 144.703 99.0775C143.965 101.409 143.245 103.792 142.285 106.055C142.148 106.381 141.651 106.055 141.737 105.815C142.782 101.889 144.137 98.066 144.96 94.0715C146.057 88.7912 145.371 83.0995 144.874 77.7849C144.74 75.7613 144.494 73.7467 144.137 71.7504C144.064 71.0959 143.866 70.4615 143.554 69.8817C142.851 68.8874 142.097 70.0531 141.84 70.8075C141.529 71.6774 141.322 72.5808 141.222 73.499C141.017 74.6648 140.794 75.8134 140.691 77.0135C140.499 79.8157 140.591 82.6301 140.965 85.4139C141.702 91.7057 143.005 98.0488 142.525 104.426C142.525 104.485 142.502 104.542 142.46 104.584C142.418 104.626 142.362 104.649 142.302 104.649C142.243 104.649 142.187 104.626 142.145 104.584C142.103 104.542 142.08 104.485 142.08 104.426L142.045 104.443Z" fill="#9EC6FC"/>
<path d="M65.1913 114.679C68.26 115.57 70.9859 117.285 74.0374 118.21C77.3602 119.063 80.8004 119.364 84.2208 119.102C87.6496 118.999 90.924 118.845 94.267 119.102C97.519 119.321 100.747 119.808 103.919 120.559C107.539 121.348 111.071 122.496 114.462 123.988C115.011 124.245 114.617 125.222 114.034 124.999C107.857 122.421 101.326 120.791 94.6613 120.165C91.315 119.985 87.9614 119.985 84.6151 120.165C81.4381 120.37 78.2483 120.098 75.1518 119.359C71.603 118.347 68.5857 116.17 65.0198 114.97C64.9874 114.954 64.9617 114.927 64.9473 114.894C64.9328 114.86 64.9305 114.823 64.9407 114.789C64.9509 114.754 64.973 114.724 65.0032 114.704C65.0333 114.684 65.0695 114.675 65.1056 114.679L65.1913 114.679Z" fill="#9EC6FC"/>
<path d="M103.218 83.5952C103.231 90.7132 104.27 97.7922 106.304 104.613C107.326 108.025 108.604 111.355 110.127 114.574C111.653 117.797 113.556 120.728 115.27 123.814C115.63 124.449 114.705 125.237 114.208 124.62C112.078 121.72 110.31 118.571 108.944 115.242C107.454 111.955 106.204 108.563 105.207 105.093C103.107 98.1323 102.271 90.8512 102.738 83.5952C102.738 83.3037 103.218 83.2866 103.218 83.5952Z" fill="#9EC6FC"/>
<path d="M55.7809 46.3766C64.3535 65.515 75.8452 83.2065 89.8455 98.8193C103.906 114.44 119.786 128.322 137.145 140.17C142.118 143.683 147.268 146.939 152.574 149.925C155.255 151.445 158.02 152.813 160.855 154.022C163.564 155.154 166.375 156.011 169.152 156.937C169.804 157.159 169.735 158.291 168.981 158.205C163.838 157.639 158.849 155.188 154.306 152.839C149.358 150.257 144.562 147.395 139.939 144.267C131.159 138.369 122.701 132.005 114.601 125.203C98.191 111.619 83.805 95.7614 71.8788 78.1097C65.26 68.2013 59.6815 57.6362 55.2323 46.5823C55.1123 46.308 55.5923 46.1023 55.7123 46.3766L55.7809 46.3766Z" fill="#9EC6FC"/>
<path d="M70.404 116.976C67.6112 116.093 64.8794 115.028 62.2265 113.787C59.5521 112.638 56.9291 111.404 54.3747 110.015C50.2944 107.752 45.357 105.249 43.0255 101.015C42.6312 100.295 42.254 99.3005 43.2484 98.889C44.4472 98.6625 45.6867 98.8122 46.7971 99.3176C50.3226 100.564 53.6575 102.295 56.7062 104.461C61.9865 107.722 66.6904 111.835 70.6269 116.633C71.0898 117.199 70.2669 118.021 69.804 117.439C66.735 113.51 63.1146 110.045 59.0549 107.152C56.9976 105.695 54.8547 104.324 52.7117 103.004C51.4542 102.189 50.1359 101.473 48.7686 100.861C47.5854 100.339 46.3575 99.9263 45.0999 99.6262C44.6152 99.4594 44.0962 99.4181 43.5912 99.5062C42.9398 99.7634 43.5912 100.518 43.7798 100.946C46.0599 104.821 50.6373 107.135 54.3404 109.278C56.8743 110.694 59.4777 111.981 62.1408 113.135C64.9009 114.353 67.8325 115.313 70.5069 116.701C70.541 116.715 70.5683 116.742 70.5828 116.775C70.5972 116.809 70.5977 116.847 70.584 116.881C70.5704 116.915 70.5438 116.943 70.51 116.957C70.4763 116.972 70.4381 116.972 70.404 116.959L70.404 116.976Z" fill="#9EC6FC"/>
<path d="M76.7994 120.935C71.0219 123.404 64.3873 122.89 58.3527 121.913C51.4952 120.781 44.6377 118.638 37.5917 118.364C35.5859 118.364 32.1571 118.141 31.8485 120.884C31.5399 123.627 35.2773 124.844 37.2145 125.547C43.8491 127.879 50.9295 127.141 57.787 126.13C60.9924 125.562 64.1377 124.695 67.1817 123.541C70.2102 122.226 73.3407 121.16 76.5422 120.353C76.9537 120.353 77.2794 120.85 76.8508 121.073C74.0421 122.415 71.1436 123.561 68.1761 124.501C65.1988 125.625 62.1378 126.514 59.0213 127.159C55.5389 127.788 52.0149 128.16 48.4779 128.273C44.7961 128.445 41.1125 127.975 37.5917 126.884C35.2601 126.13 32.0885 125.17 30.9913 122.718C30.6444 121.939 30.576 121.064 30.7976 120.24C31.0192 119.416 31.5174 118.693 32.2085 118.192C33.1137 117.579 34.1841 117.257 35.2773 117.267C37.185 117.21 39.0942 117.307 40.9861 117.558C44.6378 117.987 48.2379 118.758 51.8381 119.547C55.917 120.531 60.0582 121.235 64.233 121.656C68.3717 121.996 72.5381 121.608 76.5422 120.507C76.7822 120.507 76.9708 120.833 76.7308 120.935L76.7994 120.935Z" fill="#9EC6FC"/>
<path d="M72.7364 121.827C75.4347 120.22 78.5106 119.356 81.6511 119.324C83.3655 119.17 85.0799 119.033 86.9142 118.981L89.5544 118.981C90.4208 118.892 91.296 118.95 92.1431 119.153C92.2419 119.186 92.3279 119.249 92.3888 119.334C92.4497 119.418 92.4824 119.52 92.4824 119.624C92.4824 119.728 92.4497 119.83 92.3888 119.915C92.3279 119.999 92.2419 120.062 92.1431 120.096C91.3536 120.256 90.5445 120.296 89.743 120.216L87.1028 120.216C85.3885 120.216 83.8455 120.318 82.2169 120.438C80.638 120.506 79.0641 120.661 77.5023 120.901C75.944 121.241 74.4267 121.747 72.9764 122.41C72.6164 122.564 72.4621 122.033 72.7364 121.827Z" fill="#9EC6FC"/>
<path d="M96.2763 128.324C91.2361 132.01 84.7043 133.896 78.7383 135.027C72.4142 136.158 66.0117 136.794 59.5888 136.93C57.6172 136.93 54.6342 137.599 53.657 139.587C53.4521 140.16 53.4473 140.786 53.6434 141.362C53.8396 141.938 54.2251 142.43 54.7371 142.759C55.9302 143.591 57.3642 144.007 58.8173 143.942C61.8665 144.094 64.9232 143.928 67.9378 143.445C71.3579 142.79 74.7014 141.785 77.9154 140.445C81.1012 139.203 84.1468 137.629 87.0016 135.747C89.8735 133.766 92.4234 131.355 94.562 128.598C94.922 128.17 95.6249 128.735 95.3334 129.198C91.9047 134.718 85.8015 138.319 79.9041 140.839C76.6423 142.298 73.2499 143.446 69.7721 144.268C66.4465 144.913 63.0613 145.2 59.6745 145.125C57.0515 145.125 54.2056 144.696 52.817 142.227C52.57 141.81 52.4146 141.344 52.3609 140.862C52.3072 140.38 52.3566 139.891 52.5057 139.429C52.6548 138.968 52.9002 138.543 53.2258 138.183C53.5513 137.823 53.9496 137.536 54.3942 137.341C56.7601 135.85 59.5373 135.919 62.1432 135.799C65.7262 135.644 69.3264 135.387 72.8923 134.959C76.8812 134.515 80.8264 133.741 84.6872 132.644C88.6188 131.432 92.4388 129.883 96.1049 128.015C96.1271 127.993 96.1539 127.977 96.1834 127.967C96.2129 127.957 96.2443 127.954 96.2752 127.958C96.3061 127.962 96.3357 127.972 96.3618 127.989C96.3879 128.007 96.4097 128.029 96.4258 128.056C96.4418 128.083 96.4515 128.113 96.4543 128.144C96.457 128.175 96.4527 128.206 96.4416 128.235C96.4305 128.264 96.413 128.29 96.3903 128.312C96.3676 128.333 96.3404 128.349 96.3106 128.358L96.2763 128.324Z" fill="#9EC6FC"/>
<path d="M94.1657 129.132C95.7138 127.64 97.5853 126.525 99.6346 125.874C101.718 125.061 103.905 124.542 106.132 124.332C108.301 124.14 110.485 124.232 112.63 124.606C114.851 124.786 116.986 125.549 118.818 126.817C119.213 127.16 118.818 127.64 118.373 127.589C117.402 127.347 116.45 127.032 115.527 126.646C114.523 126.319 113.498 126.061 112.458 125.874C110.381 125.512 108.267 125.42 106.166 125.6C104.106 125.781 102.074 126.207 100.115 126.869C99.0446 127.228 98.0019 127.663 96.9944 128.172C96.1611 128.667 95.3028 129.119 94.4229 129.526C94.1829 129.526 94.0629 129.286 94.2 129.132L94.1657 129.132Z" fill="#9EC6FC"/>
<path d="M102.858 84.8136C101.52 80.4077 100.595 75.9161 99.5659 71.4415C98.5509 67.4984 97.8176 63.4881 97.3715 59.4409C97.1937 57.2567 97.2685 55.0592 97.5944 52.892C97.8515 51.2805 98.3487 49.1204 99.9602 48.3146C101.572 47.5089 103.663 48.709 104.743 49.9262C105.825 51.3266 106.496 53.0006 106.681 54.7607C107.279 59.902 107.094 65.1042 106.132 70.19C105.429 75.1103 104.418 79.962 103.44 84.8479C103.44 85.2594 102.686 85.1737 102.703 84.8479C102.978 81.042 103.869 77.3047 104.418 73.5674C105.364 68.6169 105.852 63.5896 105.875 58.5495C105.875 55.395 105.429 49.8919 101.4 49.1718C99.5316 48.8461 98.8802 51.1434 98.5716 52.6006C98.1778 54.6963 98.0568 56.8341 98.2116 58.9609C98.5623 62.94 99.2331 66.8844 100.217 70.7558C101.28 75.4532 102.463 80.1163 103.183 84.8651C103.197 84.9151 103.19 84.9685 103.164 85.0135C103.139 85.0585 103.096 85.0915 103.046 85.1051C102.996 85.1187 102.943 85.112 102.898 85.0862C102.853 85.0605 102.82 85.018 102.806 84.9679L102.858 84.8136Z" fill="#9EC6FC"/>
<path d="M99.0325 87.0273C100.48 89.1912 101.72 91.4873 102.736 93.8848C103.824 96.1258 104.542 98.5286 104.861 100.999C104.861 101.239 104.501 101.274 104.433 100.999C103.175 96.1405 101.156 91.5115 98.4496 87.2845C98.261 86.9759 98.741 86.7016 98.9467 86.993L99.0325 87.0273Z" fill="#9EC6FC"/>
<path d="M100.132 89.6307C97.9023 87.1926 95.5445 84.8749 93.0685 82.6875C90.5973 80.3719 88.4982 77.6887 86.8453 74.7328C85.203 71.6169 83.8045 68.3785 82.6623 65.0466C81.2907 62.0506 80.5385 58.8085 80.4507 55.5147C80.4507 53.8003 80.8622 50.783 82.8166 50.1315C84.1366 49.6858 85.1138 51.0573 85.6967 52.0345C86.6044 53.6639 87.3288 55.3888 87.8568 57.1776L89.9141 63.6579C91.1999 67.6524 92.4513 71.6812 93.8743 75.6586C95.3836 79.682 97.1003 83.6246 99.0174 87.4706C99.0519 87.5513 99.0557 87.6418 99.0282 87.7251C99.0006 87.8085 98.9436 87.8789 98.8678 87.9231C98.792 87.9673 98.7026 87.9823 98.6165 87.9653C98.5304 87.9483 98.4535 87.9004 98.4002 87.8306C96.6545 85.066 95.2335 82.1091 94.1657 79.0187C92.9314 75.8814 91.8856 72.6755 90.857 69.4697C89.3826 64.8751 88.114 60.2121 86.5025 55.7547C86.0985 54.1033 85.2916 52.5777 84.1538 51.3145C82.3023 49.7544 81.5136 53.9032 81.4279 55.0175C81.3342 58.0903 81.9196 61.1459 83.1423 63.9665C84.2326 67.1632 85.5326 70.2844 87.0339 73.3099C88.7064 76.6082 90.9332 79.5947 93.6171 82.1389C95.983 84.3847 98.7602 86.5105 100.475 89.425C100.475 89.5964 100.337 89.785 100.2 89.6307L100.132 89.6307Z" fill="#9EC6FC"/>
<path d="M107.47 90.3164C107.573 94.5166 107.573 98.7169 108.002 102.9C108.522 107.166 109.301 111.397 110.333 115.569C110.339 115.649 110.316 115.728 110.27 115.793C110.223 115.858 110.156 115.904 110.078 115.924C110.001 115.945 109.919 115.937 109.847 115.904C109.775 115.87 109.716 115.813 109.682 115.741C108.414 111.69 107.569 107.519 107.162 103.294C106.57 98.9916 106.518 94.6319 107.007 90.3164C107.007 90.0421 107.47 90.0078 107.47 90.3164Z" fill="#9EC6FC"/>
<path d="M106.734 93.6231C106.992 90.1419 106.992 86.6466 106.734 83.1654C106.657 79.7654 106.864 76.3649 107.352 72.9992C107.881 69.6042 108.719 66.2645 109.855 63.0215C110.425 60.6641 111.437 58.4361 112.838 56.4555C113.746 55.444 115.375 54.844 116.164 56.3012C116.715 57.7732 116.852 59.3685 116.558 60.9128C116.043 66.1321 114.79 71.2519 112.838 76.1193C111.86 78.6395 110.798 81.1253 109.923 83.6797C108.841 86.9387 107.954 90.259 107.266 93.6231C107.266 93.8974 106.717 93.846 106.752 93.6231C107.39 88.5355 108.735 83.5617 110.746 78.8452C112.493 74.5606 113.864 70.1323 114.843 65.6102C115.315 63.5506 115.573 61.448 115.615 59.3356C115.615 58.2384 115.512 55.5297 113.901 57.0212C113.128 57.8264 112.542 58.7923 112.186 59.8499C111.723 61.0157 111.295 62.1986 110.866 63.3815C109.852 66.2835 109.083 69.2656 108.569 72.2963C107.967 75.8176 107.697 79.3878 107.763 82.9597C107.99 86.5456 107.812 90.1457 107.232 93.6917C107.232 94.0002 106.666 93.9317 106.7 93.6917L106.734 93.6231Z" fill="#9EC6FC"/>
<path d="M73.4385 94.9116C77.5844 95.5162 81.6573 96.5445 85.5934 97.9803C87.2214 98.6468 88.7732 99.4859 90.2222 100.483C91.7564 101.346 93.057 102.57 94.011 104.049C94.1653 104.375 93.8224 104.855 93.4452 104.598C92.8316 104.07 92.2585 103.497 91.7309 102.883C91.0347 102.228 90.2896 101.626 89.5022 101.083C88.0744 100.12 86.559 99.2936 84.9762 98.6146C81.2577 97.0969 77.3989 95.9485 73.4556 95.1859C73.2328 95.1859 73.3185 94.8087 73.4556 94.843L73.4385 94.9116Z" fill="#9EC6FC"/>
<path d="M75.5821 95.9907C69.8744 94.1762 64.4237 91.6352 59.3641 88.4303C54.6766 85.6051 50.5219 81.9783 47.0892 77.7155C46.0606 76.3783 43.6604 72.0238 41.3803 73.8925C39.1002 75.7611 40.9003 79.7899 42.0318 81.6929C44.9634 86.6302 50.8094 89.4932 56.0039 91.4305C59.1845 92.5715 62.4376 93.4993 65.7416 94.2078C69.3943 95.1143 73.1606 95.4782 76.9193 95.2878C77.605 95.2878 77.605 96.3165 76.9193 96.3679C73.4659 96.5437 70.0047 96.2437 66.633 95.4764C63.2907 94.8007 59.9974 93.9015 56.7754 92.7848C51.358 90.8305 45.3577 87.9503 41.9804 83.0815C40.3659 80.9777 39.579 78.3548 39.7688 75.7097C40.0603 73.7039 41.6889 72.2809 43.6947 73.1381C44.6065 73.5641 45.3965 74.2126 45.992 75.0239C46.9349 76.2754 47.8264 77.5441 48.855 78.727C50.9623 81.1663 53.3244 83.3733 55.9011 85.3102C58.8645 87.487 62.0073 89.4083 65.2958 91.0533C68.7246 92.7677 72.239 94.1906 75.7021 95.785C75.8564 95.785 75.7021 96.1107 75.5821 96.0593L75.5821 95.9907Z" fill="#9EC6FC"/>
<path d="M57.7877 72.8817C59.5545 74.3063 61.3973 75.634 63.308 76.859C65.3477 78.0261 67.4741 79.0349 69.6683 79.8763C71.7078 80.7117 73.646 81.7757 75.4457 83.0479C77.1739 84.1689 78.6698 85.6124 79.8517 87.2995C79.8787 87.3333 79.8988 87.3721 79.9108 87.4136C79.9229 87.4552 79.9266 87.4987 79.9218 87.5416C79.917 87.5846 79.9038 87.6262 79.883 87.6641C79.8621 87.702 79.834 87.7354 79.8002 87.7624C79.7665 87.7894 79.7277 87.8095 79.6862 87.8216C79.6446 87.8336 79.6011 87.8374 79.5581 87.8326C79.5152 87.8278 79.4735 87.8146 79.4357 87.7937C79.3978 87.7729 79.3644 87.7448 79.3374 87.711C78.5659 87.0424 77.9316 86.2195 77.1944 85.5166C76.3392 84.7141 75.422 83.9804 74.4514 83.3222C72.598 82.083 70.6286 81.0265 68.5711 80.1678C66.517 79.3464 64.538 78.3483 62.6565 77.1847C60.8616 75.9664 59.144 74.6381 57.5134 73.2074C57.3077 73.0188 57.5991 72.6417 57.822 72.8131L57.7877 72.8817Z" fill="#9EC6FC"/>
<path d="M60.4624 75.6937C51.8906 69.8305 43.9016 62.8187 40.85 52.5325C40.3871 50.9381 39.9585 48.2637 41.4157 46.995C42.3244 46.1893 43.3701 46.995 44.0387 47.6808C45.0717 48.8515 46.0118 50.1011 46.8503 51.4181C48.4927 53.8307 49.9814 56.3444 51.3077 58.9442C52.7649 61.6872 54.1364 64.4645 55.645 67.1904C57.1537 69.9162 59.0738 72.5906 60.8739 75.2993C61.131 75.7108 60.5481 76.1394 60.2053 75.8137C58.5399 74.0788 57.1208 72.1232 55.9879 70.0019C54.7364 67.859 53.6392 65.6131 52.5592 63.3845C50.4428 58.9943 48.0552 54.7402 45.4102 50.6467C44.7073 49.6009 43.9359 48.0922 42.7358 47.5265C41.9129 47.1151 41.5872 47.8694 41.3814 48.5894C41.1134 49.827 41.2209 51.1163 41.69 52.2925C43.1872 56.9428 45.6397 61.229 48.8904 64.876C52.5907 68.6185 56.5246 72.1229 60.6681 75.3679C60.8396 75.5222 60.6681 75.8308 60.411 75.6937L60.4624 75.6937Z" fill="#9EC6FC"/>
<path d="M79.9872 76.4982C80.815 78.5624 81.7949 80.5622 82.9188 82.4814C84.0331 84.3672 85.2675 86.2015 86.2275 88.1731C87.0996 90.125 87.8664 92.1222 88.5248 94.1562L89.6563 97.3107C90.1741 98.3441 90.4884 99.4674 90.582 100.619C90.582 100.911 90.1706 101.134 89.9477 100.877C89.3996 100.059 89.0099 99.1462 88.7991 98.185C88.4219 97.0707 88.0619 95.9392 87.7019 94.7563C87.0343 92.4598 86.2036 90.214 85.216 88.0359C84.256 86.133 83.1245 84.3329 82.1302 82.4471C81.1426 80.5484 80.3168 78.5699 79.6615 76.5325C79.6615 76.3268 79.9015 76.2582 79.9872 76.5325L79.9872 76.4982Z" fill="#9EC6FC"/>
<path d="M81.1361 80.1689C81.1361 78.7974 79.6789 77.5973 78.9245 76.5516C78.1702 75.5058 77.3645 74.2715 76.6444 73.1228C75.2711 70.879 74.0566 68.5417 73.0099 66.1282C70.7346 61.3465 69.1695 56.2584 68.364 51.0246C68.0021 49.2855 68.2314 47.4754 69.0155 45.8814C69.5983 44.8528 70.7298 44.1671 71.7927 44.8357C72.4501 45.332 72.926 46.0308 73.1471 46.8244C73.6393 48.1643 74.029 49.5398 74.3129 50.9388C74.8786 53.6476 75.1872 56.3906 75.7015 59.1164C76.2844 62.168 77.1759 65.1853 77.9816 68.2026C78.7874 71.2199 79.9017 74.5458 80.656 77.7688C80.656 78.1288 80.176 78.4031 80.0046 78.0259C79.0871 75.6849 78.3479 73.278 77.793 70.8256C77.1244 68.2883 76.4901 65.6825 75.8387 63.2138C74.6043 58.4649 74.3814 53.5447 73.1299 48.813C72.8385 47.6987 72.5299 46.0529 71.4156 45.3843C70.3012 44.7157 69.7869 45.7443 69.4269 46.5329C68.7306 48.5661 68.6886 50.7664 69.3069 52.8247C69.8108 55.2786 70.5161 57.6869 71.4156 60.025C72.2385 62.3394 73.13 64.6367 74.09 66.8825C75.178 69.2872 76.4325 71.6129 77.8445 73.8429C78.5474 74.9572 79.3017 76.0373 80.056 77.1002C80.4625 77.5013 80.7855 77.9791 81.0062 78.5058C81.2269 79.0325 81.341 79.5978 81.3418 80.1689C81.3418 80.2889 81.1361 80.2889 81.1361 80.1689Z" fill="#9EC6FC"/>
<path d="M57.1545 51.4004C54.4972 47.543 52.0114 43.5657 49.3027 39.7255C46.6347 36.1139 44.3372 32.2428 42.4452 28.1706C40.7677 24.2058 39.6151 20.039 39.0164 15.7757C38.6997 13.6966 38.4936 11.6021 38.3993 9.50111C38.2579 8.09546 38.3859 6.67573 38.7764 5.31804C38.8439 4.97759 38.9937 4.65883 39.2128 4.38962C39.4318 4.1204 39.7134 3.90891 40.0331 3.77362C40.3527 3.63833 40.7006 3.58336 41.0463 3.6135C41.3921 3.64365 41.7252 3.75799 42.0166 3.94654C43.7889 5.18077 45.1741 6.89301 46.0111 8.88394C47.0896 11.3278 47.8834 13.8876 48.3769 16.5129C49.1655 19.8216 49.8856 23.1475 50.6227 26.4563C51.5999 30.6908 52.5943 34.9253 53.7943 39.0912C54.9944 43.2571 56.3659 47.1487 57.806 51.0918C57.9431 51.469 57.3431 51.7261 57.1717 51.3661C54.0001 45.2286 52.3886 38.2169 50.8113 31.5308C49.3713 25.4448 48.2226 19.273 46.6283 13.2213C46.0783 10.8234 45.0395 8.56474 43.5767 6.58668C42.9595 5.79807 41.0737 3.53509 40.0108 4.8723C39.4636 5.92689 39.2428 7.12051 39.3765 8.30105C39.4079 10.224 39.5683 12.1427 39.8565 14.0442C40.3297 18.235 41.2965 22.3552 42.7366 26.3191C44.5326 30.6443 46.8345 34.7416 49.5941 38.5254C52.5572 42.5204 55.271 46.6942 57.7203 51.0232C57.7416 51.0604 57.7555 51.1014 57.7611 51.1439C57.7666 51.1864 57.7637 51.2296 57.7526 51.271C57.7414 51.3123 57.7222 51.3511 57.6961 51.3851C57.67 51.4191 57.6374 51.4476 57.6002 51.469C57.5631 51.4904 57.5221 51.5042 57.4796 51.5098C57.4371 51.5153 57.3939 51.5124 57.3525 51.5013C57.3111 51.4901 57.2724 51.4709 57.2384 51.4448C57.2044 51.4187 57.1759 51.3861 57.1545 51.349L57.1545 51.4004Z" fill="#9EC6FC"/>
<path d="M28.4171 32.4395C34.4517 36.7597 41.3435 39.657 47.5153 43.7543C49.9435 45.3164 52.1617 47.1831 54.1156 49.3089C55.83 51.2976 57.5443 53.4234 59.1387 55.5663C60.8575 57.7027 62.3674 59.999 63.6475 62.4238C63.6912 62.5205 63.6975 62.63 63.6651 62.731C63.6328 62.8321 63.5641 62.9175 63.4724 62.9709C63.3806 63.0242 63.2724 63.0416 63.1686 63.0197C63.0648 62.9978 62.9727 62.9382 62.9103 62.8524C59.9788 58.7379 57.1672 54.5377 53.9099 50.6804C49.7782 45.7944 44.0351 42.6228 38.4805 39.4855C34.8891 37.5195 31.4197 35.3383 28.0914 32.9538C27.8343 32.748 28.0914 32.3195 28.3486 32.508L28.4171 32.4395Z" fill="#9EC6FC"/>
<path d="M34.2819 36.8284C30.862 35.4706 27.5247 33.9136 24.2871 32.1653C21.0891 30.6616 18.0213 28.8955 15.1152 26.885C10.976 24.0255 7.73546 20.0477 5.77186 15.4159C5.18897 13.9929 2.54884 7.85547 5.89186 7.85547C7.06026 7.9991 8.14677 8.53028 8.97773 9.36412C10.049 10.2289 11.0734 11.1503 12.0465 12.1243C14.1783 14.2914 16.1818 16.5811 18.0468 18.9818C22.1686 24.4715 26.5749 29.7418 31.2474 34.7711C31.5217 35.0454 31.1274 35.4054 30.836 35.1826C26.6358 31.9081 23.4985 27.245 20.2926 23.0448C17.0927 18.4869 13.4522 14.2548 9.42347 10.4099C8.44627 9.51841 7.09192 8.16406 5.70328 8.36978C4.9661 8.47265 4.77752 9.12411 4.79466 9.79271C4.95187 11.552 5.46514 13.261 6.30331 14.8158C8.18409 19.1028 11.1359 22.834 14.8752 25.6507C17.807 27.7652 20.9225 29.6127 24.1842 31.1709C27.613 32.8853 31.2989 34.2568 34.4705 36.3141C34.7105 36.4855 34.4705 36.9312 34.2476 36.8284L34.2819 36.8284Z" fill="#9EC6FC"/>
<path d="M25.1476 37.3066C29.3993 39.3295 34.0281 39.9124 38.5883 40.8725C40.6436 41.2536 42.6583 41.8276 44.6058 42.5868C45.5159 42.9705 46.3981 43.4173 47.2459 43.9241C48.0979 44.3139 48.8443 44.9017 49.4232 45.6384C49.4535 45.6855 49.4686 45.7407 49.4666 45.7967C49.4646 45.8527 49.4455 45.9067 49.4119 45.9515C49.3783 45.9963 49.3318 46.0297 49.2787 46.0473C49.2255 46.0649 49.1683 46.0658 49.1146 46.0499C48.2492 45.6134 47.4233 45.1029 46.6459 44.5241C45.7459 43.9845 44.806 43.5145 43.8343 43.1183C41.8062 42.3202 39.72 41.6783 37.594 41.1982C33.2978 40.3991 29.1014 39.1345 25.0791 37.4266C24.9419 37.4266 25.0791 37.1351 25.2162 37.2209L25.1476 37.3066Z" fill="#9EC6FC"/>
<path d="M26.8426 38.3206C22.1624 37.3091 17.825 35.389 13.3162 33.8803C9.34418 32.8112 5.71359 30.7391 2.77284 27.8629C1.75226 26.9714 1.05842 25.7647 0.801308 24.4342C0.8013 24.1265 0.862166 23.8219 0.980408 23.5379C1.09865 23.2539 1.27193 22.9961 1.49025 22.7794C1.70857 22.5627 1.96763 22.3913 2.25249 22.2751C2.53735 22.159 2.84238 22.1003 3.15 22.1026C4.05822 22.1797 4.93729 22.461 5.72156 22.9255C6.73111 23.4016 7.71017 23.9398 8.65314 24.537C10.5635 25.744 12.4063 27.0546 14.1734 28.4629C16.3335 30.1773 18.4422 31.8917 20.6366 33.606C22.831 35.3204 24.9054 36.469 27.0827 37.8577C27.4598 38.0977 27.2198 38.7663 26.7741 38.5949C23.1567 37.2748 19.9166 34.4289 17.0536 32.0288C13.8782 29.2543 10.4777 26.7484 6.88733 24.537C5.75584 23.9027 2.39567 21.8969 1.74421 24.057C1.38419 25.2913 2.87569 26.7657 3.64716 27.4857C6.47237 30.121 9.87892 32.0534 13.5905 33.126C18.0822 34.6861 22.4367 36.5548 27.0141 37.9434C27.0641 37.9571 27.1066 37.99 27.1324 38.035C27.1581 38.08 27.1649 38.1334 27.1512 38.1834C27.1376 38.2334 27.1046 38.276 27.0596 38.3017C27.0146 38.3274 26.9612 38.3342 26.9112 38.3206L26.8426 38.3206Z" fill="#9EC6FC"/>
<path d="M63.9729 46.1049C63.5334 53.0647 64.24 60.0495 66.0644 66.7803C66.1673 67.1746 65.5672 67.466 65.3787 67.0717C64.1256 64.2422 63.3882 61.2116 63.2014 58.1227C62.8881 54.123 62.9857 50.1018 63.4928 46.1221C63.4928 45.8135 63.99 45.8135 63.9729 46.1221L63.9729 46.1049Z" fill="#9EC6FC"/>
<path d="M63.7008 45.7268C64.0291 40.3867 65.3488 35.1544 67.5924 30.2974C69.9239 25.1543 72.7355 20.3541 73.7298 14.7138C74.0041 12.9994 74.5185 9.57067 72.9755 8.23346C71.4326 6.89625 69.7696 9.94783 69.2039 11.045C66.8768 15.7424 65.3748 20.805 64.7637 26.0115C64.0325 32.5849 63.8147 39.2053 64.1122 45.8125C64.1122 46.1382 63.6493 46.1211 63.615 45.8125C63.0692 39.2148 63.2186 32.578 64.0608 26.0115C64.5718 20.6524 66.0348 15.4274 68.381 10.5821C69.0667 9.19351 70.0954 7.1534 71.8097 6.93054C73.5241 6.70767 74.5356 8.35346 74.827 9.87926C75.177 12.4289 74.9485 15.0246 74.1584 17.4739C73.3082 20.3793 72.1591 23.1887 70.7297 25.8572C69.0865 28.8864 67.6545 32.0255 66.4438 35.252C65.2789 38.6658 64.452 42.1857 63.9751 45.7611C63.9751 45.9497 63.6665 45.9668 63.6665 45.7611L63.7008 45.7268Z" fill="#9EC6FC"/>
<path d="M63.3056 38.5766C62.7227 36.8622 62.2941 35.1479 61.6941 33.4335C61.094 31.7191 60.3397 29.8162 59.5854 28.0504C58.1967 24.8102 56.7224 21.6215 55.6423 18.2956C54.4448 14.8742 53.9265 11.252 54.1165 7.63216C54.288 5.55777 54.3565 2.88335 55.6252 1.15183C56.4481 -0.0482268 57.7339 -0.408245 58.5225 0.860391C59.3175 2.41655 59.7788 4.12161 59.8768 5.86636C60.2883 8.79794 60.5797 11.7467 60.9569 14.6782C61.3855 17.9184 61.7969 21.1757 62.2084 24.4159C62.6884 28.4447 63.357 32.4906 63.597 36.5536C63.5942 36.6212 63.568 36.6858 63.5228 36.7361C63.4777 36.7865 63.4164 36.8196 63.3495 36.8297C63.2826 36.8399 63.2143 36.8264 63.1562 36.7917C63.0981 36.7569 63.054 36.7031 63.0313 36.6394C62.3798 33.4678 62.0712 30.2276 61.6769 27.0217C61.2997 24.1244 60.9569 21.21 60.614 18.3127C60.2711 15.4154 59.894 12.1753 59.4997 9.10653C59.2768 7.39215 59.0711 5.67778 58.711 4.06627C58.5568 3.41481 58.0767 0.328935 56.9967 1.08326C56.1938 1.858 55.7054 2.902 55.6252 4.01484C55.429 5.11537 55.2917 6.22557 55.2137 7.34072C54.9881 10.825 55.4482 14.3198 56.5681 17.627C57.6996 21.1757 59.2596 24.5873 60.6997 28.0161C62.3537 31.3237 63.4045 34.8999 63.8027 38.5766C63.7915 38.6109 63.7696 38.6408 63.7404 38.6619C63.7112 38.6831 63.676 38.6945 63.6399 38.6945C63.6038 38.6945 63.5686 38.6831 63.5393 38.6619C63.5101 38.6408 63.4883 38.6109 63.477 38.5766L63.3056 38.5766Z" fill="#9EC6FC"/>
</svg>
