<svg width="40" height="27" viewBox="0 0 40 27" fill="none" xmlns="http://www.w3.org/2000/svg">
<path fill-rule="evenodd" clip-rule="evenodd" d="M10.2822 0L20.4922 24.504C20.6907 24.9806 20.4654 25.5278 19.9889 25.7264C19.5123 25.9249 18.9651 25.6996 18.7665 25.223L15.1115 16.4511H5.45277L1.79778 25.223C1.59923 25.6996 1.05198 25.9249 0.575456 25.7264C0.0989346 25.5278 -0.126405 24.9806 0.0721453 24.504L10.2822 0ZM6.23171 14.5816H14.3326L10.2822 4.86054L6.23171 14.5816Z" fill="#C4C4C4"/>
<path fill-rule="evenodd" clip-rule="evenodd" d="M30.8422 10.8431C27.2285 10.8431 24.2991 13.7725 24.2991 17.3861C24.2991 20.9997 27.2285 23.9291 30.8422 23.9291C34.4558 23.9291 37.3852 20.9997 37.3852 17.3861C37.3852 13.7725 34.4558 10.8431 30.8422 10.8431ZM22.4297 17.3861C22.4297 12.74 26.1961 8.97363 30.8422 8.97363C35.4882 8.97363 39.2546 12.74 39.2546 17.3861C39.2546 22.0322 35.4882 25.7986 30.8422 25.7986C26.1961 25.7986 22.4297 22.0322 22.4297 17.3861Z" fill="#C4C4C4"/>
<path fill-rule="evenodd" clip-rule="evenodd" d="M37.3895 8.03809C37.9057 8.03809 38.3242 8.45657 38.3242 8.97281L38.3242 25.7978C38.3242 26.314 37.9057 26.7325 37.3895 26.7325C36.8733 26.7325 36.4548 26.314 36.4548 25.7978L36.4548 8.97281C36.4548 8.45657 36.8733 8.03809 37.3895 8.03809Z" fill="#C4C4C4"/>
</svg>
