<svg width="135" height="248" viewBox="0 0 135 248" fill="none" xmlns="http://www.w3.org/2000/svg">
<path d="M78.5234 0.50514C75.3685 6.13559 72.8774 12.113 71.1 18.3175C68.9681 25.0214 67.3185 31.8692 66.1638 38.8085C65.6891 41.4641 65.3951 44.1488 65.2837 46.8442C65.2934 51.0895 65.5425 55.3309 66.0299 59.5482C66.8909 69.7076 68.4597 79.8096 68.7085 90.0072C69.0376 109.463 65.7952 128.813 59.1422 147.099C52.8002 164.427 44.1578 180.823 33.4472 195.848C23.3069 210.236 11.5404 223.935 4.74835 240.389C3.92565 242.417 3.12209 244.483 2.35678 246.55C2.30857 246.727 2.19178 246.878 2.03212 246.97C1.87245 247.061 1.68299 247.086 1.50538 247.038C1.32778 246.989 1.1766 246.873 1.08511 246.713C0.99361 246.553 0.969287 246.364 1.0175 246.186C3.50425 237.808 7.28034 229.869 12.21 222.653C16.9932 215.153 22.3886 208.074 27.6309 200.899C38.8097 186.071 48.0728 169.891 55.2009 152.743C62.6007 134.671 66.7025 115.419 67.3118 95.9C67.2581 85.7569 66.6193 75.6253 65.3985 65.5558C64.6715 57.9028 63.6192 49.9628 64.6523 42.2524C65.5897 35.6144 67.0353 29.0582 68.9763 22.6415C70.7952 16.1308 73.1832 9.79259 76.1127 3.70028C76.725 2.49493 77.3755 1.30871 78.026 0.160754C78.1982 -0.107102 78.6574 0.160754 78.466 0.42861L78.5234 0.50514Z" fill="#447AC5"/>
<path d="M15.7312 218.064C17.3192 213.434 18.9837 208.861 20.1508 204.097C21.3197 199.258 22.1382 194.341 22.5998 189.385C23.4863 179.536 22.9386 169.611 20.9735 159.92C19.86 154.444 18.2789 149.074 16.2478 143.868C15.9799 143.199 17.0705 142.892 17.3383 143.562C24.5735 162.292 26.0785 182.75 21.6623 202.337C20.5275 207.857 18.7687 213.229 16.42 218.351C16.3779 218.439 16.3039 218.508 16.213 218.543C16.1222 218.578 16.0213 218.577 15.931 218.541C15.8408 218.504 15.7678 218.434 15.7271 218.346C15.6864 218.257 15.681 218.157 15.712 218.064L15.7312 218.064Z" fill="#447AC5"/>
<path d="M17.1805 144.23C21.6767 151.52 25.905 159.23 27.5312 167.744C28.9677 176.595 28.2323 185.662 25.3884 194.166C24.0599 198.933 22.2255 203.545 19.9165 207.922C19.8717 207.977 19.8102 208.016 19.7415 208.032C19.6728 208.049 19.6005 208.043 19.5357 208.014C19.4708 207.986 19.4168 207.938 19.382 207.876C19.3471 207.815 19.3333 207.744 19.3425 207.674C20.7583 203.598 22.6333 199.714 23.9726 195.62C25.3765 191.459 26.376 187.173 26.9573 182.82C28.0737 174.104 26.7972 165.248 23.2647 157.202C21.3514 152.821 19.1129 148.611 16.9701 144.364C16.9701 144.211 17.104 144.096 17.1805 144.23Z" fill="#447AC5"/>
<path d="M17.2613 144.252C19.5242 151.394 20.5845 158.861 20.3991 166.35C20.3991 170.483 19.9973 174.597 20.1695 178.71C20.3417 182.824 20.8391 186.822 21.2026 190.878C21.7093 195.44 21.7862 200.039 21.4322 204.616C21.4322 205.247 20.3799 205.247 20.4373 204.616C21.1835 196.637 19.7485 188.716 19.2128 180.776C18.9833 176.755 18.9833 172.725 19.2128 168.704C19.3852 164.754 19.2893 160.797 18.9258 156.861C18.4688 152.655 17.779 148.477 16.8595 144.348C16.8595 144.302 16.8777 144.259 16.91 144.226C16.9423 144.194 16.9861 144.176 17.0317 144.176C17.0774 144.176 17.1212 144.194 17.1535 144.226C17.1858 144.259 17.2039 144.302 17.2039 144.348L17.2613 144.252Z" fill="#447AC5"/>
<path d="M16.8999 143.695C17.6143 146.316 17.8349 149.048 17.5504 151.75C17.5504 155.576 17.2634 159.403 17.0912 163.382C16.919 167.362 16.766 171.341 16.8808 175.321C17.0813 179.608 17.677 183.867 18.6601 188.044C19.2915 190.991 19.9611 193.956 20.4394 196.941C20.6499 198.318 20.8412 199.696 20.956 201.093C21.2048 202.607 21.2048 204.151 20.956 205.665C20.956 205.736 20.9278 205.804 20.8775 205.855C20.8273 205.905 20.7592 205.933 20.6881 205.933C20.6171 205.933 20.549 205.905 20.4987 205.855C20.4485 205.804 20.4203 205.736 20.4203 205.665C20.2543 204.448 20.1648 203.221 20.1524 201.992C20.0698 200.53 19.9101 199.074 19.6741 197.63C19.2532 194.855 18.6601 192.119 18.067 189.383C17.0859 185.246 16.446 181.036 16.1537 176.794C15.7902 168.988 16.479 161.163 16.766 153.357C16.8808 150.143 16.766 146.928 16.766 143.791C16.766 143.76 16.778 143.731 16.7996 143.709C16.8211 143.688 16.8503 143.676 16.8808 143.676C16.9112 143.676 16.9404 143.688 16.9619 143.709C16.9835 143.731 16.9956 143.76 16.9956 143.791L16.8999 143.695Z" fill="#447AC5"/>
<path d="M22.8651 199.41C23.7317 197.972 24.3767 196.411 24.7783 194.78C25.3674 193.182 26.0444 191.617 26.8064 190.093C28.6002 186.885 30.1789 183.561 31.5321 180.144C32.6567 176.356 33.2995 172.441 33.4454 168.492C33.7515 164.398 34.0321 160.291 34.2872 156.171C34.8673 151.485 34.9123 146.748 34.4211 142.051L35.3778 141.917C35.3078 143.42 34.8603 144.881 34.0768 146.165C33.1201 148.25 32.3357 150.393 31.5704 152.536C29.5205 157.639 28.2312 163.015 27.7439 168.492C27.7439 169.105 26.749 169.105 26.7872 168.492C27.2511 163.241 28.4757 158.085 30.4224 153.186C31.1686 151.082 31.8765 148.939 32.7949 146.911C33.7571 145.424 34.3356 143.721 34.4785 141.955C34.4785 141.42 35.3395 141.286 35.4352 141.822C35.9489 145.955 35.9874 150.134 35.55 154.277C35.3395 158.62 35.0142 162.982 34.689 167.325C34.5591 171.397 34.0012 175.443 33.0245 179.398C31.8266 182.934 30.2821 186.344 28.4135 189.576C27.3777 191.472 26.4824 193.442 25.735 195.469C25.4498 197.156 24.6078 198.698 23.3434 199.851C23.0755 200.042 22.6929 199.678 22.8842 199.41L22.8651 199.41Z" fill="#447AC5"/>
<path d="M104.428 186.803C92.8149 193.958 79.5561 197.498 66.3929 200.923C53.8037 204.214 41.0805 207.504 29.4288 213.455C22.9855 216.645 17.1101 220.872 12.0373 225.967C11.3103 226.713 10.1241 225.565 10.9085 224.819C29.7158 205.457 57.9937 202.874 82.5025 195.393C90.0479 193.185 97.3543 190.231 104.314 186.573C104.342 186.568 104.371 186.573 104.397 186.586C104.423 186.599 104.444 186.62 104.457 186.645C104.469 186.671 104.474 186.7 104.469 186.729C104.464 186.757 104.449 186.783 104.428 186.803Z" fill="#447AC5"/>
<path d="M104.424 186.801C95.4513 189.747 85.8659 190.053 76.7588 192.54C67.7697 194.982 59.0467 198.315 50.7194 202.489C46.0319 204.766 41.4401 207.215 36.8865 209.76C36.772 209.805 36.6452 209.807 36.5289 209.767C36.4126 209.727 36.3145 209.647 36.2522 209.54C36.19 209.434 36.1676 209.309 36.1892 209.188C36.2108 209.067 36.2749 208.958 36.3699 208.88C44.4062 204.306 52.7122 200.223 61.2423 196.654C69.8915 193.108 78.9361 190.615 88.1809 189.231C93.5954 188.408 99.0099 187.7 104.386 186.609C104.407 186.618 104.424 186.633 104.436 186.652C104.449 186.67 104.455 186.692 104.455 186.715C104.455 186.737 104.449 186.759 104.436 186.778C104.424 186.796 104.407 186.811 104.386 186.82L104.424 186.801Z" fill="#447AC5"/>
<path d="M105.08 186.439C102.289 189.663 98.9457 192.365 95.2075 194.417C91.5301 196.607 87.6546 198.445 83.6323 199.908C74.4921 203.028 64.9999 205.001 55.3736 205.782C49.8243 206.16 44.3327 207.141 38.9961 208.709C38.3456 208.92 38.0586 207.887 38.7091 207.657C43.124 206.304 47.672 205.432 52.2741 205.055C57.1529 204.538 62.0126 204.079 66.834 203.142C76.0436 201.76 84.9481 198.809 93.1604 194.417C97.2674 191.928 101.199 189.16 104.927 186.133C105.061 186.133 105.176 186.133 105.08 186.343L105.08 186.439Z" fill="#447AC5"/>
<path d="M104.43 186.569C99.3979 187.047 94.3086 187.067 89.2768 187.487C84.2199 187.868 79.1953 188.597 74.2386 189.669C69.2996 190.737 64.4937 192.347 59.9083 194.471C55.2932 196.748 50.8207 199.304 46.5155 202.124L31.0182 212.054C30.4442 212.417 29.9085 211.499 30.4825 211.135L44.6979 202.124C49.0813 199.22 53.6157 196.55 58.2821 194.126C67.3935 189.938 77.2016 187.473 87.2105 186.856C92.9293 186.255 98.6815 186.031 104.43 186.186C104.481 186.186 104.529 186.207 104.565 186.242C104.601 186.278 104.621 186.327 104.621 186.378C104.621 186.428 104.601 186.477 104.565 186.513C104.529 186.549 104.481 186.569 104.43 186.569Z" fill="#447AC5"/>
<path d="M31.7241 211.098C38.0616 204.184 44.0388 196.949 49.6322 189.421C52.2342 185.95 55.0523 182.646 58.0696 179.529C61.2074 176.391 64.7086 173.656 68.0568 170.767C71.8792 167.47 75.4066 163.847 78.5988 159.937C78.9815 159.459 79.8042 160.071 79.4407 160.588C78.3347 162.519 77.5344 164.611 77.0682 166.787C76.4777 168.681 75.7487 170.529 74.8871 172.316C73.0611 176.016 70.7724 179.468 68.0759 182.59C62.038 189.176 55.2729 195.055 47.9102 200.116C43.4715 203.407 39.0327 206.678 34.9001 210.333C34.2879 210.868 33.4078 209.988 34.02 209.453C47.298 197.724 64.6321 189.249 73.2226 173.101C74.3612 170.981 75.2965 168.758 76.0159 166.462C76.527 164.197 77.3785 162.023 78.5414 160.014L79.4024 160.684C76.5713 164.14 73.4821 167.376 70.1614 170.365C66.8706 173.311 63.3502 176.104 60.1168 179.051C53.4969 185.25 48.3694 192.979 42.6871 200.097C39.6591 204.296 36.1749 208.146 32.2981 211.576C31.992 211.825 31.5902 211.442 31.858 211.155L31.7241 211.098Z" fill="#447AC5"/>
<path d="M41.6356 181.194C44.3907 175.818 49.5565 171.781 54.4353 168.395C59.9837 164.568 65.9148 161.143 71.6546 157.719C77.3943 154.294 83.5933 150.831 89.4096 147.138C95.3061 143.592 100.865 139.512 106.017 134.951C111.756 129.728 115.296 123.089 118.893 116.392L120.003 117.043C114.473 125.748 105.883 131.507 97.2922 136.883C87.4883 142.797 78.0573 149.308 69.0525 156.379C64.1155 160.411 59.4139 164.723 54.971 169.294C54.4353 169.849 53.6126 169.026 54.1292 168.452C61.8632 160.256 70.5027 152.965 79.8816 146.718C84.4351 143.542 89.0843 140.519 93.7718 137.572C98.4593 134.626 102.649 132.139 106.82 129.058C111.665 125.702 115.773 121.392 118.893 116.392C118.991 116.272 119.129 116.19 119.282 116.162C119.435 116.134 119.593 116.162 119.727 116.241C119.862 116.319 119.963 116.444 120.014 116.591C120.064 116.738 120.06 116.898 120.003 117.043C117.166 123.03 113.529 128.603 109.193 133.612C104.416 138.365 99.1067 142.551 93.37 146.086C81.8905 153.739 69.6074 159.938 58.0322 167.362C54.9906 169.252 52.082 171.349 49.3269 173.637C46.6397 176.01 44.1742 178.623 41.9608 181.443C41.8078 181.654 41.5208 181.443 41.6356 181.194Z" fill="#447AC5"/>
<path d="M119.58 116.24C119.676 119.199 119.175 122.146 118.107 124.907C117.203 127.73 116.004 130.449 114.529 133.019C111.682 137.973 107.877 142.311 103.337 145.781C94.268 152.745 83.0946 156.17 72.6673 160.398C66.7437 162.626 61.0688 165.467 55.735 168.874C55.1419 169.276 54.6062 168.319 55.1802 167.936C73.4135 155.596 99.185 154.371 112.176 134.741C114.026 131.92 115.548 128.897 116.71 125.73C117.858 122.63 118.279 119.34 119.351 116.164C119.351 116.133 119.363 116.104 119.384 116.082C119.406 116.061 119.435 116.049 119.466 116.049C119.496 116.049 119.525 116.061 119.547 116.082C119.568 116.104 119.58 116.133 119.58 116.164L119.58 116.24Z" fill="#447AC5"/>
<path d="M119.352 116.046C118.668 117.909 117.3 119.441 115.526 120.332C113.249 121.766 110.876 123.106 108.504 124.388C103.721 127.028 98.8229 129.477 94.1545 132.328C85.2766 137.942 77.1994 144.731 70.1432 152.512C66.1636 156.779 62.3371 161.237 58.5106 165.733C58.0897 166.231 57.3818 165.523 57.8027 165.025C64.2594 157.045 71.2936 149.551 78.8485 142.602C82.5436 139.272 86.4761 136.215 90.615 133.456C95.092 130.491 99.856 127.965 104.582 125.459C107.26 124.024 109.939 122.608 112.56 121.097C114.875 119.758 117.745 118.399 118.931 115.855C119.046 115.606 119.448 115.855 119.371 116.046L119.352 116.046Z" fill="#447AC5"/>
<path d="M82.1027 140.329C85.2449 135.144 86.8505 129.172 86.7328 123.11C86.618 117.6 85.4892 112.185 84.8195 106.733L85.4892 106.733C84.7665 111.4 83.6659 116 82.1984 120.489C80.7252 124.736 78.9841 128.888 77.2622 133.04C74.2687 140.891 70.8124 148.557 66.9115 155.999C66.8379 156.123 66.7179 156.213 66.578 156.249C66.4381 156.285 66.2896 156.264 66.1653 156.19C66.041 156.117 65.951 155.997 65.9151 155.857C65.8792 155.717 65.9004 155.568 65.974 155.444C69.9018 148.002 73.3899 140.336 76.4204 132.485C78.2379 128.257 79.9981 124.048 81.4713 119.858C82.9348 115.534 84.0795 111.109 84.8961 106.618C84.8961 106.216 85.5466 106.35 85.5657 106.618C86.1205 112.358 87.479 117.963 87.5746 123.722C87.7155 129.698 85.8421 135.547 82.2558 140.329L82.1218 140.329L82.1027 140.329Z" fill="#447AC5"/>
<path d="M2.54848 81.535C12.3635 90.7186 23.7665 98.0081 33.1606 107.613C41.0021 115.252 47.2741 124.352 51.6235 134.398C54.0996 140.518 55.6846 146.961 56.3301 153.531C56.3301 154.258 55.2778 154.239 55.2013 153.531C53.7915 142.244 49.7406 131.448 43.3773 122.019C36.6023 112.446 28.4536 103.924 19.1938 96.7262C13.2009 92.1262 7.45326 87.2151 1.9745 82.0133C1.66838 81.7072 2.14669 81.248 2.45282 81.535L2.54848 81.535Z" fill="#447AC5"/>
<path d="M3.56144 82.6618C12.3836 86.3901 20.6398 91.3361 28.0894 97.3556C34.9572 103.248 40.5664 110.464 44.5816 118.574C47.1837 123.816 49.3839 129.25 51.6989 134.607C51.9668 135.181 51.1058 135.697 50.8571 135.104C47.0306 126.265 43.4719 117.158 37.7322 109.313C32.1926 101.902 25.2658 95.6385 17.3369 90.8696C12.7833 88.0763 8.01933 85.6082 3.38925 82.9679C3.17879 82.8531 3.38924 82.5661 3.56144 82.6618Z" fill="#447AC5"/>
<path d="M2.39423 81.7243C7.33042 89.2817 14.0077 95.3467 20.8189 101.086C27.9082 107.032 34.6117 113.422 40.8889 120.219C42.5471 122.056 44.1542 123.931 45.7103 125.844C47.4627 127.849 49.1103 129.944 50.6465 132.119C50.9718 132.598 50.2256 133.191 49.843 132.751C48.2358 130.952 46.8774 128.924 45.3659 127.011C43.8545 125.098 42.5917 123.567 41.1376 121.903C37.866 118.076 34.3456 114.613 30.7678 111.15C27.5727 108.07 24.3775 105.047 21.0485 102.139C17.7194 99.2306 14.5817 96.399 11.4822 93.4717C7.89791 89.9838 4.76159 86.0634 2.14551 81.8009C2.14551 81.8009 2.1455 81.6095 2.31769 81.8009L2.39423 81.7243Z" fill="#447AC5"/>
<path d="M2.54663 81.6283C4.44376 85.6979 6.86896 89.4997 9.75959 92.9356C12.1129 95.7098 14.7149 98.2927 17.2022 100.952C20.5023 104.6 23.9958 108.068 27.6677 111.341C31.1115 114.307 34.8998 116.851 38.3628 119.798C40.276 121.5 42.3041 123.261 44.2365 125.04C46.0657 126.614 47.7498 128.349 49.2683 130.225C49.4022 130.416 49.1153 130.703 48.9239 130.55C47.2899 129.277 45.7371 127.904 44.2747 126.437C42.5145 124.791 40.7543 123.127 38.9559 121.539C35.4546 118.439 31.6472 115.799 28.0886 112.738C24.391 109.499 20.8838 106.05 17.5848 102.406C15.0402 99.6702 12.3808 97.0108 9.93179 94.1792C6.72054 90.5152 4.07054 86.3951 2.06831 81.9535C1.93439 81.6283 2.39357 81.3413 2.54663 81.6665L2.54663 81.6283Z" fill="#447AC5"/>
<path d="M48.9423 130.188C47.3926 121.789 46.2637 113.314 42.9729 105.316C41.2893 101.279 39.2804 97.3762 37.2332 93.4731C35.186 89.5701 33.4067 85.9349 31.1873 82.338C28.6543 78.2362 25.8281 74.323 22.7307 70.6289L23.1516 70.2845C24.5866 73.4796 26.1746 76.6173 27.5712 79.8507C28.9303 82.9941 29.9811 86.262 30.709 89.6083C31.2141 92.7379 32.0743 95.7997 33.2727 98.7346C34.6885 101.719 36.3722 104.474 37.7115 107.574C37.9602 108.11 37.1566 108.588 36.9079 108.052C35.5878 105.087 33.9424 102.312 32.5457 99.3851C31.3353 96.6216 30.4803 93.7158 30.0011 90.7372C29.3766 87.3319 28.4284 83.9941 27.1694 80.7691C25.7728 77.3252 24.2804 73.9196 22.7498 70.5523C22.635 70.2845 22.9603 69.9592 23.1707 70.2079C28.6346 76.7687 33.3511 83.9172 37.2332 91.5216C41.2893 99.1746 45.2306 107.038 47.029 115.629C48.0384 120.415 48.754 125.258 49.1719 130.131C49.1719 130.303 48.904 130.361 48.8658 130.131L48.9423 130.188Z" fill="#447AC5"/>
<path d="M123.809 51.3421C121.837 57.4397 119.03 63.2346 115.467 68.5614C112.206 73.1833 108.509 77.4822 104.428 81.3994C96.3156 89.4733 87.2085 96.5523 79.1346 104.588C76.7621 106.922 74.4662 109.352 72.2851 111.858C70.104 114.365 68.229 117.177 66.0288 119.703C65.5696 120.219 64.7852 119.55 65.0913 118.976C66.5137 116.436 68.2211 114.068 70.1805 111.916C72.0938 109.716 74.007 107.573 75.9203 105.526C79.9955 101.393 84.3386 97.5281 88.7008 93.7207C97.1 86.393 105.92 79.2565 112.731 70.3599C117.222 64.5813 120.839 58.1735 123.465 51.3421C123.465 51.1317 123.886 51.2082 123.809 51.4378L123.809 51.3421Z" fill="#447AC5"/>
<path d="M124.191 51.3428C123.387 55.6743 122.103 59.903 120.365 63.9512C118.906 67.5989 116.977 71.0401 114.625 74.1871C109.724 80.3127 103.918 85.6547 97.4058 90.0289C93.388 92.937 89.2362 95.7686 85.2184 98.6002C84.5488 99.0785 83.9174 97.988 84.5679 97.5097C97.5398 88.2878 112.081 80.0417 118.834 64.9843C120.8 60.5163 122.381 55.8886 123.56 51.1515C123.656 50.788 124.172 50.9602 124.115 51.3237L124.191 51.3428Z" fill="#447AC5"/>
<path d="M124.171 51.1723C121.569 54.3865 118.431 57.2181 115.6 60.1837C112.819 63.0818 110.212 66.142 107.794 69.3482C103.03 75.6811 98.342 82.0905 93.4632 88.3277C90.7319 91.8682 87.8199 95.2655 84.7388 98.5062C84.2222 99.0228 83.4378 98.2192 83.9352 97.7026C89.3817 91.8735 94.4555 85.7069 99.1265 79.2397C103.675 72.7677 108.588 66.5588 113.839 60.6429C116.999 57.2023 120.346 53.9384 123.865 50.8661C123.905 50.8255 123.961 50.8027 124.018 50.8027C124.075 50.8027 124.13 50.8255 124.171 50.8661C124.212 50.9067 124.234 50.9618 124.234 51.0192C124.234 51.0766 124.212 51.1317 124.171 51.1723Z" fill="#447AC5"/>
<path d="M123.998 51.3419C120.746 53.8674 117.302 56.125 114.088 58.6888C110.859 61.2513 107.834 64.0594 105.038 67.088C102.23 70.1192 99.7369 73.4269 97.5955 76.9604C95.1657 80.9973 93.1376 85.2065 90.5356 89.1287C87.7611 93.4456 84.6791 97.557 81.3137 101.431C80.9119 101.852 80.1466 101.278 80.491 100.78C83.1504 96.9539 86.2308 93.357 88.9667 89.4922C91.7027 85.6274 93.769 81.4374 96.1414 77.3622C100.404 70.2891 105.892 64.031 112.347 58.8801C115.871 55.8705 119.722 53.265 123.826 51.1123C123.96 51.1123 124.132 51.2462 123.998 51.3419Z" fill="#447AC5"/>
<path d="M77.887 105.586C79.464 104.208 81.1254 102.93 82.8615 101.759C84.5763 100.709 86.3977 99.8427 88.2951 99.1764C92.2747 97.684 96.4456 96.8613 100.521 95.7325C108.376 93.6904 115.914 90.5811 122.925 86.4915C126.829 84.1503 130.433 81.3427 133.658 78.1306L134.29 78.9533C127.019 83.4877 118.295 84.0234 110.164 86.3576C101.586 89.006 93.4954 93.0317 86.2097 98.2771C85.6549 98.6598 85.1383 97.7606 85.674 97.3779C92.8312 92.24 100.754 88.2626 109.15 85.5923C117.357 83.105 126.369 82.6841 133.773 78.0349C133.827 77.9934 133.889 77.963 133.955 77.9454C134.02 77.9278 134.089 77.9233 134.157 77.9322C134.224 77.941 134.289 77.9631 134.348 77.9972C134.407 78.0312 134.459 78.0765 134.5 78.1306C134.542 78.1846 134.572 78.2462 134.59 78.312C134.607 78.3778 134.612 78.4464 134.603 78.5139C134.585 78.6502 134.514 78.7739 134.405 78.8576C128.728 84.3347 122.059 88.6789 114.755 91.6573C111.174 93.1507 107.507 94.4285 103.773 95.4838C99.7747 96.67 95.6803 97.531 91.6816 98.6981C89.3466 99.3354 87.0931 100.241 84.9661 101.396C82.661 102.768 80.4611 104.309 78.3845 106.007C78.0401 106.275 77.5235 105.796 77.887 105.509L77.887 105.586Z" fill="#447AC5"/>
<path d="M17.105 31.7891C20.2054 36.0247 23.6411 40.0044 27.3792 43.6895C31.0526 47.2864 35.0322 50.4816 39.0118 53.7724C46.621 60.1383 53.3451 67.493 59.0053 75.6409C62.4409 80.4797 65.572 85.5277 68.3802 90.7556C68.4218 90.8579 68.4252 90.9717 68.3897 91.0763C68.3541 91.1808 68.2821 91.2691 68.1869 91.3249C68.0916 91.3806 67.9794 91.4002 67.8708 91.38C67.7623 91.3598 67.6646 91.3011 67.5958 91.2148C62.49 82.2559 56.5928 73.7719 49.9747 65.8641C43.2018 58.2111 35.1661 51.8974 27.8384 44.8183C23.7775 40.8987 20.1237 36.5783 16.9328 31.923C16.9328 31.923 16.9328 31.7317 17.105 31.923L17.105 31.7891Z" fill="#447AC5"/>
<path d="M17.3198 31.3872C19.7497 33.9318 22.0456 36.5721 24.7241 38.9063C27.4027 41.2404 30.2152 43.3833 33.0085 45.6027C38.7115 49.8554 43.8542 54.8117 48.3146 60.3539C50.8588 63.6625 53.0939 67.1978 54.9918 70.915C55.298 71.489 54.437 72.0056 54.1309 71.4316C50.7537 64.8149 46.3133 58.7975 40.9868 53.6192C35.9549 48.7213 30.1004 44.8374 24.7624 40.2264C21.6611 37.861 18.9885 34.9813 16.8607 31.7124C16.8336 31.6464 16.8289 31.5733 16.8475 31.5044C16.866 31.4355 16.9067 31.3746 16.9632 31.3311C17.0198 31.2876 17.0891 31.2639 17.1604 31.2637C17.2318 31.2634 17.3012 31.2867 17.3581 31.3298L17.3198 31.3872Z" fill="#447AC5"/>
<path d="M17.6628 32.5947C20.3987 36.5169 23.1156 40.4773 25.9472 44.323C28.5637 48.1264 31.6565 51.5792 35.1499 54.5972C38.6321 57.467 42.4968 59.8395 45.9981 62.6711C47.72 64.0486 49.3846 65.4836 50.9917 66.9759C52.7706 68.5093 54.4274 70.1788 55.947 71.9695C56.0348 72.073 56.08 72.2059 56.0736 72.3414C56.0672 72.4769 56.0096 72.6049 55.9125 72.6996C55.8154 72.7943 55.6859 72.8487 55.5503 72.8516C55.4146 72.8546 55.2829 72.806 55.1817 72.7157C53.4215 71.1851 51.8527 69.4249 50.1307 67.8369C48.4088 66.2489 46.6103 64.7374 44.7736 63.2833C41.2915 60.5091 37.465 57.9836 34.0594 55.1711C30.7484 52.2563 27.8287 48.9251 25.3732 45.2605C22.5225 41.2426 19.8056 37.1483 17.3375 32.8817C17.2228 32.6713 17.5289 32.5182 17.6628 32.6904L17.6628 32.5947Z" fill="#447AC5"/>
<path d="M17.5463 31.8627C24.0131 37.3538 32.5271 39.5157 39.2617 44.6815C45.4184 49.698 50.2586 56.1406 53.3624 63.4506C55.2757 67.6215 56.3854 72.2898 58.9683 76.1354C59.1979 76.499 58.6813 76.8816 58.3752 76.5946C55.5627 73.763 54.7209 69.3051 53.1902 65.7465C51.618 62.0572 49.696 58.5271 47.4505 55.2044C45.2059 51.8459 42.5083 48.8134 39.4339 46.193C36.1246 43.5622 32.5231 41.3216 28.7006 39.5157C24.5193 37.6062 20.6494 35.0779 17.221 32.0158C17.221 32.0158 17.2211 31.7671 17.3932 31.8627L17.5463 31.8627Z" fill="#447AC5"/>
<path d="M52.7666 63.3178C51.1403 59.77 50.1247 55.973 49.7628 52.087C49.3801 48.0883 49.4375 44.0705 48.9401 40.0718C48.5057 36.0398 47.1293 32.1665 44.9222 28.7644C42.7036 25.6192 40.2063 22.68 37.4605 19.9826L38.1302 19.466C40.4304 24.6082 42.0698 30.0212 43.009 35.5756C43.9273 41.1241 44.2526 46.6342 46.2233 51.9722C46.4146 52.4697 45.5919 52.8141 45.3623 52.3357C43.009 47.4378 42.9899 41.7172 42.2246 36.4557C41.4165 30.7377 39.813 25.1608 37.4605 19.8869C37.2692 19.4852 37.7667 19.0068 38.1302 19.3704C40.871 22.0144 43.3801 24.8884 45.6301 27.9609C47.8003 31.1037 49.2386 34.6929 49.8393 38.4646C50.4515 42.4059 50.4133 46.4046 50.662 50.3842C50.9153 54.7461 51.765 59.0527 53.1875 63.1839C53.1875 63.3752 52.9388 63.5091 52.8622 63.3178L52.7666 63.3178Z" fill="#447AC5"/>
<path d="M78.4453 0.563535C77.4313 6.78161 74.6188 12.6744 72.7055 18.6821C71.6724 22.0303 71.1176 25.5124 70.2183 28.8988C68.7953 33.3903 67.953 38.0455 67.712 42.7508C67.4239 48.2436 66.7139 53.7061 65.5883 59.09C65.5883 59.6449 64.6508 59.3961 64.7273 58.8413C65.8083 53.7993 66.5054 48.6826 66.8127 43.5352C66.9063 39.0808 67.6014 34.6595 68.879 30.3912C69.8548 26.7943 70.5053 23.1017 71.5385 19.5239C72.4951 16.2714 73.6622 13.0954 74.7719 9.95762C75.8816 6.81988 77.1826 3.64388 78.0435 0.391342C78.0435 0.180884 78.3879 0.276546 78.3497 0.487004L78.4453 0.563535Z" fill="#447AC5"/>
<path d="M78.5573 0.314782C75.1709 5.95888 71.6887 11.5456 68.7423 17.5341C67.1689 20.5954 65.8877 23.7984 64.9158 27.1004C63.7613 31.9022 63.272 36.8399 63.4617 41.775C63.4141 44.5217 63.5291 47.2689 63.8061 50.002C64.1505 52.9867 64.8775 55.8374 65.4898 58.7647C65.5177 58.8687 65.5031 58.9796 65.4493 59.0729C65.3955 59.1662 65.3068 59.2343 65.2028 59.2622C65.0988 59.2901 64.9879 59.2755 64.8946 59.2217C64.8014 59.1679 64.7333 59.0792 64.7054 58.9752C63.3042 54.1293 62.5704 49.1151 62.5242 44.0709C62.2705 39.1024 62.585 34.1212 63.4617 29.2241C65.375 22.0307 68.4027 15.1812 72.4349 8.92443C74.1557 5.8393 76.1199 2.89632 78.3086 0.123456C78.4234 -0.0104715 78.653 0.123456 78.5573 0.314782Z" fill="#447AC5"/>
<path d="M78.543 0.96539C78.1636 3.38188 78.0417 5.83181 78.1794 8.27402C78.1794 9.95769 78.0647 11.6605 77.9116 13.3633C77.5672 17.1898 77.0124 21.0163 76.3427 24.8428C75.0787 32.4364 73.1189 39.8976 70.4882 47.1322C69.5889 49.5429 68.7088 51.9728 67.9627 54.4409C67.2165 56.909 66.6999 59.3962 66.0494 61.826C66.024 61.925 65.9604 62.0098 65.8725 62.0618C65.7846 62.1138 65.6796 62.1288 65.5807 62.1035C65.4817 62.0781 65.3969 62.0144 65.3449 61.9265C65.2928 61.8386 65.2779 61.7337 65.3032 61.6347C67.006 53.4268 70.5264 45.8121 72.6884 37.7573C74.7893 29.9726 76.2671 22.033 77.108 14.0138C77.2994 12.1005 77.4141 10.2829 77.4715 8.40795C77.4063 5.87819 77.67 3.35067 78.256 0.88886C78.2669 0.859568 78.2864 0.834305 78.3121 0.816465C78.3377 0.798625 78.3682 0.789063 78.3995 0.789063C78.4307 0.789063 78.4612 0.798625 78.4869 0.816465C78.5125 0.834305 78.5321 0.859568 78.543 0.88886L78.543 0.96539Z" fill="#447AC5"/>
<path d="M77.1816 5.92285C77.0094 10.7251 75.2684 15.3743 74.3692 20.0618C73.6804 23.8883 73.2212 27.8488 72.5516 31.7135C71.8966 36.0991 70.9117 40.4289 69.6052 44.6663C68.859 46.9239 67.9406 49.1242 67.1371 51.3627C66.3558 53.6682 65.7169 56.0196 65.2238 58.4034C65.197 58.4838 65.1431 58.5523 65.0712 58.5971C64.9994 58.6418 64.9141 58.6602 64.8302 58.6488C64.7463 58.6375 64.669 58.5972 64.6116 58.5349C64.5542 58.4727 64.5204 58.3923 64.5159 58.3078C64.5159 54.3282 66.4292 50.3295 67.8258 46.6561C69.2996 42.5122 70.4134 38.249 71.1549 33.9138C71.9585 29.5707 72.7046 25.1893 73.3551 20.8271C73.7769 18.5091 74.3262 16.2161 75.0005 13.9585C75.8683 11.3292 76.5586 8.64461 77.0669 5.92285L77.1816 5.92285Z" fill="#447AC5"/>
<path d="M66.9504 56.7018C68.3289 53.0608 70.4091 49.726 73.0728 46.8868C75.8113 43.6444 78.7439 40.5711 81.8547 37.684C85.1081 34.7194 88.1752 31.5565 91.0383 28.2134C93.6699 24.635 95.616 20.6002 96.7781 16.313L97.5625 16.6382C95.8857 19.3932 93.9164 21.959 91.6888 24.2912C89.2529 26.6187 86.615 28.7252 83.8062 30.5858C78.214 34.4647 73.8039 39.8151 71.0639 46.0449C70.8152 46.6189 69.8777 46.3702 70.1264 45.7962C72.6228 39.9803 76.5766 34.9063 81.606 31.0642C84.5332 28.8256 87.671 26.8933 90.3878 24.3869C92.9481 22.0294 95.1066 19.27 96.7781 16.2173C97.0077 15.7772 97.6582 16.0834 97.5434 16.5426C96.6363 20.5842 94.9534 24.4113 92.588 27.8116C89.892 31.1933 86.9298 34.3539 83.7297 37.2631C80.5919 40.3052 77.3968 43.2899 74.5078 46.5615C73.0654 48.1573 71.7356 49.8514 70.5282 51.6316C69.3994 53.3153 68.5002 55.152 67.3713 56.8548C67.2374 57.027 66.9313 56.8548 66.9887 56.7018L66.9504 56.7018Z" fill="#447AC5"/>
<path d="M83.1893 98.1235C83.1668 93.9491 83.461 89.779 84.0694 85.6491C84.5405 81.6497 85.4122 77.7077 86.6714 73.8826C87.9725 70.2474 90.1918 67.1671 91.8181 63.7041C93.3211 59.9025 94.287 55.9101 94.688 51.8419C94.688 51.5358 95.262 51.5358 95.3194 51.8419C96.8465 59.4467 96.183 67.3288 93.4061 74.5714C92.7365 76.3316 91.9138 78.0152 91.1293 79.7371C90.3167 81.7488 89.714 83.8389 89.3309 85.9744C88.3922 89.8039 86.8761 93.4683 84.8347 96.8416C84.6051 97.2434 84.0694 96.8416 84.2416 96.4973C86.0768 92.9219 87.5509 89.1726 88.6421 85.3047C88.9312 83.5088 89.3991 81.7462 90.0388 80.0433C90.7849 78.2448 91.7033 76.5038 92.4303 74.6862C95.5155 67.5322 96.3043 59.5971 94.688 51.9758L95.3385 51.8802C95.177 55.7934 94.3689 59.653 92.9469 63.3023C91.4354 66.8418 89.0056 69.8839 87.6089 73.4808C84.586 81.2486 84.1268 89.8965 83.5911 98.1235C83.5763 98.1755 83.5449 98.2212 83.5017 98.2538C83.4586 98.2863 83.406 98.3039 83.3519 98.3039C83.2979 98.3039 83.2453 98.2863 83.2022 98.2538C83.159 98.2212 83.1276 98.1755 83.1128 98.1235L83.1893 98.1235Z" fill="#447AC5"/>
<path d="M15.1994 218.333C14.9882 201.537 10.1129 185.129 1.11787 170.942L1.92144 170.464C3.58597 173.295 3.43291 176.682 3.83469 179.839C4.25404 183.722 5.00291 187.562 6.0732 191.318C7.98645 197.919 11.0859 204.003 13.2479 210.451C14.5087 213.716 15.1573 217.186 15.1612 220.687C15.1612 220.819 15.1088 220.945 15.0155 221.038C14.9222 221.132 14.7957 221.184 14.6637 221.184C14.5318 221.184 14.4053 221.132 14.312 221.038C14.2187 220.945 14.1663 220.819 14.1663 220.687C13.8602 212.536 9.89972 205.151 7.0681 197.728C5.40001 193.347 4.182 188.809 3.43291 184.182C3.06939 181.943 2.82068 179.705 2.64848 177.447C2.67302 175.193 2.16842 172.965 1.17527 170.942C1.14386 170.889 1.12315 170.831 1.11433 170.77C1.1055 170.709 1.10874 170.647 1.12384 170.588C1.13894 170.528 1.16562 170.472 1.20234 170.423C1.23907 170.374 1.28513 170.333 1.33789 170.301C1.39066 170.27 1.44909 170.249 1.50986 170.24C1.57063 170.231 1.63253 170.235 1.69205 170.25C1.75156 170.265 1.80752 170.291 1.85673 170.328C1.90594 170.365 1.94742 170.411 1.97883 170.464C6.42507 177.515 9.88208 185.144 12.253 193.136C14.807 201.286 16.0281 209.794 15.8691 218.333C15.8504 218.413 15.8052 218.484 15.741 218.535C15.6767 218.586 15.5971 218.614 15.5151 218.614C15.4331 218.614 15.3535 218.586 15.2892 218.535C15.225 218.484 15.1799 218.413 15.1612 218.333L15.1994 218.333Z" fill="#447AC5"/>
</svg>
