<?xml version="1.0" encoding="utf-8"?>
<!-- Generator: Adobe Illustrator 22.1.0, SVG Export Plug-In . SVG Version: 6.00 Build 0)  -->
<svg version="1.1" id="Слой_1" xmlns="http://www.w3.org/2000/svg" xmlns:xlink="http://www.w3.org/1999/xlink" x="0px" y="0px"
	 viewBox="0 0 760.9841309 188.6216888" style="enable-background:new 0 0 760.9841309 188.6216888;" xml:space="preserve">
<style type="text/css">
	.st0{fill-rule:evenodd;clip-rule:evenodd;fill:url(#SVGID_1_);}
	.st1{fill-rule:evenodd;clip-rule:evenodd;fill:url(#SVGID_2_);}
	.st2{fill-rule:evenodd;clip-rule:evenodd;fill:url(#SVGID_3_);}
	.st3{fill-rule:evenodd;clip-rule:evenodd;fill:#FFFFFF;}
</style>
<g>
	<linearGradient id="SVGID_1_" gradientUnits="userSpaceOnUse" x1="161.2031403" y1="86.9270554" x2="83.2801971" y2="177.077179">
		<stop  offset="0" style="stop-color:#3C6981"/>
		<stop  offset="1" style="stop-color:#639C9E"/>
	</linearGradient>
	<path class="st0" d="M159.8148499,81.9095306l-65.296608,47.1029053c-2.0588379,1.4858246-4.4854813,2.2008209-6.9067993,2.1711731
		v48.5986938l0.0444641,0.0004578h0.0447083c0.91465-0.0043945,1.7714005-0.2401886,1.9710541-0.3840179l69.7714462-49.8992157
		c2.1148834-1.5289001,3.3996582-3.945816,3.4941559-6.5424728V83.3527298
		C162.8244781,81.8400421,161.076004,80.9983521,159.8148499,81.9095306z"/>
	<linearGradient id="SVGID_2_" gradientUnits="userSpaceOnUse" x1="13.1132212" y1="83.7274857" x2="89.259758" y2="176.5503235">
		<stop  offset="0" style="stop-color:#70B18B"/>
		<stop  offset="1" style="stop-color:#487F74"/>
	</linearGradient>
	<path class="st1" d="M87.8076172,131.1961212c-2.361557,0.0111084-4.7263641-0.6999512-6.7467575-2.1343536l-66.0817871-46.940773
		c-1.1923618-0.8502655-2.8474932,0.0025482-2.8474932,1.4672928v39.502182c0,2.7126923,1.3019161,5.2613983,3.5001879,6.8509827
		l70.2133636,49.3595428c0.5266953,0.3905182,1.2671738,0.4956665,1.9624863,0.4773712V131.1961212z"/>
	<linearGradient id="SVGID_3_" gradientUnits="userSpaceOnUse" x1="137.0791321" y1="68.0264435" x2="0.6236049" y2="65.2531586">
		<stop  offset="0" style="stop-color:#7BA669"/>
		<stop  offset="1" style="stop-color:#B3C958"/>
	</linearGradient>
	<path class="st2" d="M158.8457489,60.6530914l-33.8747482-24.3710442
		c-4.6973572-3.3963509-10.9122925-3.6004868-15.8354187-0.6845016v0.1663895L65.2958374,67.5361328
		c-2.4452324,1.7720413-5.768074,1.7275085-8.1648178-0.1082916l-0.9037628-0.6928406
		c-2.023674-1.5512238-1.9856491-4.6060333,0.0780334-6.1058006l51.0306854-37.097084l-14.8438644-10.845993
		c-1.2987442-0.9395285-2.8106689-1.4419489-4.3377228-1.5088148h-0.7006149
		c-1.5264893,0.0668659-3.038414,0.5692863-4.3377228,1.5088148L16.6166592,60.7574196
		c-4.4253664,3.1987228-4.4246597,9.7905464,0.0007076,12.9899712L48.4480896,96.752121
		c5.4047585,3.9072571,12.7284431,3.8238449,18.0445633-0.2028656l1.6156921-1.2245255l45.44384-33.2712517
		c1.187767-0.8692703,2.8017654-0.8660164,3.9854355,0.0079155l3.4896545,2.5769882
		c1.82901,1.3511887,1.8178406,4.0910339-0.0224762,5.4276581L66.391716,109.7203217l15.6160202,11.2855072
		c3.4586945,2.4993744,8.1313095,2.4955597,11.5847778-0.0113068l65.2651215-47.3609314
		C163.2715454,70.4296417,163.266449,63.8485603,158.8457489,60.6530914z"/>
</g>
<path class="st3" d="M204.242157,136.9361877c-0.5753784-0.4863281-1.1956635-0.8237305-1.8616333-1.01297
	c-0.6659698-0.1884613-1.3142853-0.2828827-1.9433899-0.2828827c-0.4145508,0-0.8279572,0.0587311-1.2413483,0.1750336
	c-0.4145508,0.1174469-0.783432,0.3112946-1.1077728,0.581131c-0.3231964,0.2698517-0.5884399,0.6203003-0.7953186,1.0521088
	c-0.2076721,0.4318237-0.3113098,0.9542389-0.3113098,1.5657043v5.4252319c0,0.6114502,0.1036377,1.1292572,0.3113098,1.5514832
	c0.2068787,0.4230042,0.4767303,0.7692261,0.8095245,1.0402222c0.3331757,0.2698364,0.7016602,0.4678955,1.1066132,0.5930328
	c0.4045715,0.1259003,0.8137512,0.1892395,1.228302,0.1892395c0.6291046,0,1.2632141-0.0905914,1.9030914-0.2698517
	c0.6387024-0.1796265,1.2816467-0.5223999,1.929184-1.026001l1.7549286,2.8615417
	c-0.6843872,0.5753784-1.5211639,1.0248566-2.5099487,1.3492126c-0.9903107,0.3239594-2.0335999,0.4863281-3.1313782,0.4863281
	c-0.8813019,0-1.7453308-0.126297-2.5909424-0.3788605c-0.8463745-0.2510376-1.6013947-0.6245117-2.2673645-1.119278
	c-0.6659546-0.495163-1.2056427-1.115448-1.6201935-1.862793c-0.4134064-0.7465668-0.620285-1.6236572-0.620285-2.6320038
	v-6.9636841c0-0.989151,0.2026672-1.8574066,0.6072388-2.6047516c0.404953-0.7465668,0.9358063-1.3722382,1.5929413-1.8758392
	c0.6559906-0.5039825,1.4079285-0.8813019,2.25354-1.1338654c0.8452148-0.2514191,1.7092438-0.3777008,2.5905609-0.3777008
	c1.0805054,0,2.1195679,0.1439362,3.1183319,0.4322052c0.9987488,0.288269,1.8574066,0.7461853,2.5774994,1.3764648
	L204.242157,136.9361877L204.242157,136.9361877z M223.2266235,135.7478027v15.27771h-3.6983185v-15.27771h-4.9385223v-3.319458
	h13.5492706v3.319458H223.2266235L223.2266235,135.7478027z M241.129425,140.7151184h3.7789307
	c0.8463745,0,1.4850922-0.2341461,1.9172974-0.7062683c0.4318237-0.4679108,0.6471558-1.0574951,0.6471558-1.7637634
	c0-0.7246857-0.2207031-1.3231049-0.6613617-1.7910004c-0.4406433-0.4721375-1.0751343-0.7062836-1.9030914-0.7062836h-3.7789307
	V140.7151184L241.129425,140.7151184z M245.7451324,132.4283447c0.9181519,0,1.709259,0.1750336,2.3752289,0.5266266
	c0.6659546,0.3504486,1.2194672,0.8049164,1.6601105,1.3622589c0.44104,0.5581055,0.7649994,1.1837616,0.9718933,1.8769836
	c0.2065125,0.6916962,0.3101501,1.3718567,0.3101501,2.0366669c0,0.6844025-0.1209106,1.36763-0.3646545,2.0520325
	c-0.2425842,0.6832428-0.5930328,1.3046722-1.0521088,1.8616333c-0.4590759,0.5581055-1.0260162,1.0129547-1.7008057,1.3634033
	c-0.6744232,0.3516083-1.443634,0.5266418-2.307663,0.5266418h-4.5078583v6.990921h-3.6971588v-18.597168H245.7451324
	L245.7451324,132.4283447z M274.5536804,145.0867004c0,1.0087433-0.1884766,1.8900452-0.5657959,2.6462097
	c-0.3788452,0.7550201-0.8870544,1.3937378-1.5342102,1.9161377c-0.6486816,0.5212555-1.4079285,0.9127808-2.2761841,1.1737976
	c-0.8728638,0.2613983-1.7910156,0.3919067-2.7625122,0.3919067c-0.9718933,0-1.8888855-0.1305084-2.7629089-0.3919067
	c-0.8682556-0.2610168-1.6275024-0.6525421-2.2761841-1.1737976c-0.6471558-0.5223999-1.155365-1.1611176-1.5330811-1.9161377
	c-0.3784485-0.7561646-0.566925-1.6374664-0.566925-2.6462097v-6.8285675c0-0.989151,0.1972961-1.8616333,0.5930481-2.6177979
	c0.3961182-0.7561646,0.92276-1.3852844,1.5887146-1.8888855c0.6659546-0.5047607,1.4305725-0.8824615,2.2892456-1.1338806
	c0.8640137-0.2525635,1.7507019-0.3784637,2.6680908-0.3784637c0.9169922,0,1.8036804,0.1347351,2.6676941,0.4045715
	c0.8640442,0.2709961,1.6232605,0.6617432,2.2892456,1.1753235c0.6659546,0.5124359,1.1925964,1.1511383,1.5887146,1.9157562
	c0.3961182,0.7649994,0.5930481,1.6420746,0.5930481,2.6320038V145.0867004L274.5536804,145.0867004z M270.8565063,139.0143127
	c0-0.6114655-0.0990295-1.1292725-0.2970886-1.5526428c-0.1980591-0.422226-0.4594727-0.7692261-0.7822876-1.0390625
	c-0.3243408-0.2698517-0.6889954-0.4679108-1.0935669-0.5930328c-0.4049377-0.126297-0.8237305-0.1892395-1.2555542-0.1892395
	c-0.4310303,0-0.8544312,0.0629425-1.2678223,0.1892395c-0.4145508,0.1251221-0.7834167,0.3231812-1.1073914,0.5930328
	c-0.3231812,0.2698364-0.5845947,0.6168365-0.7826538,1.0390625c-0.1976624,0.4233704-0.2966919,0.9411774-0.2966919,1.5526428
	v5.4252319c0,0.6114502,0.0990295,1.1334839,0.2966919,1.5656891c0.1980591,0.4318237,0.4594727,0.7822723,0.7826538,1.0521088
	c0.3239746,0.2698517,0.6928406,0.4633026,1.1073914,0.5807648c0.4133911,0.116684,0.836792,0.175415,1.2678223,0.175415
	c0.4318237,0,0.8506165-0.0587311,1.2555542-0.175415c0.4045715-0.1174622,0.7692261-0.3109131,1.0935669-0.5807648
	c0.3228149-0.2698364,0.5842285-0.620285,0.7822876-1.0521088c0.1980591-0.4322052,0.2970886-0.9542389,0.2970886-1.5656891
	V139.0143127L270.8565063,139.0143127z M296.210083,138.9064484l-1.8355408,2.8335266
	c-0.2164917,0.3427734-0.48172,0.7603912-0.7964783,1.2555542c-0.3143616,0.4951477-0.6613464,1.0302277-1.0390625,1.6059875
	c-0.3773193,0.5753784-0.7646179,1.1695709-1.1607361,1.7810364s-0.7780457,1.2056427-1.1469116,1.7814178
	c-0.3688965,0.5765228-0.7147217,1.1119843-1.0390625,1.6056061c-0.3243713,0.495163-0.5942078,0.9143219-0.8095398,1.2559357
	h-3.3467102v-18.597168h3.6971741v12.2276764h0.1074524l3.8779602-6.0735321l3.9593506-6.1541443h3.3643799v18.597168h-3.6971741
	v-12.1190643H296.210083L296.210083,138.9064484z M318.0280762,135.7478027v15.27771h-3.6983337v-15.27771h-4.9389038v-3.319458
	h13.5496521v3.319458H318.0280762L318.0280762,135.7478027z M332.2870483,132.4283447h12.8215027v3.319458h-9.1231689v4.2652588
	h7.8000488v3.3198547h-7.8000488v4.3727417h9.1231689v3.3198547h-12.8215027V132.4283447L332.2870483,132.4283447z
	 M360.7723999,135.7478027v4.9400635c0,1.5472717-0.09021,2.950592-0.2698364,4.2107544
	c-0.179657,1.2586212-0.5039978,2.3479614-0.9715271,3.2653503c-0.4678955,0.9181519-1.1208191,1.6558838-1.9575806,2.2140045
	c-0.836792,0.5569458-1.9115295,0.925827-3.2250366,1.1066132l-0.8095398-3.0239105
	c0.7738342-0.2510376,1.3937378-0.5753784,1.8616333-0.9715118c0.4678955-0.3961182,0.83255-0.8997192,1.0935669-1.5111847
	s0.4318237-1.3407593,0.5124512-2.1859894c0.0817566-0.8463593,0.1220398-1.8443604,0.1220398-2.9966583v-8.3669891h12.253418
	v18.597168h-3.7512817v-15.27771H360.7723999L360.7723999,135.7478027z M383.8313599,147.705658h3.8334351
	c0.8267822,0,1.4885254-0.2337646,1.9836731-0.7016602c0.4947815-0.4679108,0.7419739-1.0532684,0.7419739-1.7553101
	c0-0.7189484-0.2471924-1.304306-0.7419739-1.7537842c-0.4951477-0.4506378-1.1653442-0.674408-2.0109253-0.674408h-3.8061829
	V147.705658L383.8313599,147.705658z M380.1334229,151.0255127v-18.597168h3.697937v7.0711365h4.2913513
	c0.9185181,0,1.7365112,0.1447144,2.4569702,0.4322052c0.7193298,0.288269,1.3319397,0.6886139,1.8355408,1.192215
	c0.5036011,0.5039978,0.8901367,1.1066284,1.1599731,1.8128967c0.2698364,0.7016602,0.4045715,1.4708862,0.4045715,2.2988281
	c0,0.6836243-0.1074829,1.3722382-0.3232117,2.055481c-0.2164917,0.6843872-0.5534973,1.3046875-1.0129395,1.8539581
	c-0.4579468,0.5485077-1.0475159,1.0033722-1.7668457,1.3538208c-0.720459,0.3512115-1.592926,0.5266266-2.6189575,0.5266266
	H380.1334229L380.1334229,151.0255127z M414.1242065,151.0255127v-7.7731934h-6.8558044v7.7731934h-3.6971741v-18.597168h3.6971741
	v7.5033417h6.8558044v-7.5033417h3.7528381v18.597168H414.1242065L414.1242065,151.0255127z M438.6674805,147.1920776h-6.477356
	l-1.2152405,3.8334351h-3.9397583l6.5314636-18.597168h3.7789307l6.4781189,18.597168h-4.0222778L438.6674805,147.1920776
	L438.6674805,147.1920776z M433.18927,144.0890961h4.4805908l-0.7292786-2.3752289l-1.4578552-4.912796h-0.1078491
	l-1.4305725,4.8310394L433.18927,144.0890961L433.18927,144.0890961z M466.8012085,132.4283447v18.597168h-3.6971741v-7.3686218
	h-2.1594849c-0.3776855,0-0.7193298,0.0360718-1.025238,0.1078491c-0.3067017,0.0717773-0.5853577,0.1980743-0.836792,0.3777008
	c-0.2521667,0.1804047-0.477478,0.4276123-0.6755371,0.7419739c-0.1980896,0.3155212-0.3688965,0.7247009-0.5124512,1.228302
	l-1.403717,4.912796h-4.0756226l1.5656738-5.1020355c0.2164917-0.6832428,0.4590759-1.2904816,0.7289429-1.8213348
	c0.2698364-0.5312347,0.6932068-0.9488525,1.2685852-1.2555542c-0.5581055-0.1612091-1.026001-0.4091644-1.403717-0.7423401
	c-0.3773193-0.3327942-0.6885986-0.7147217-0.9311829-1.1465454c-0.2426147-0.4322052-0.4187927-0.8955078-0.5266418-1.3906555
	c-0.1078491-0.4940033-0.1619873-0.9845581-0.1619873-1.4708862c0-0.7020569,0.1132507-1.3941193,0.3370056-2.0785065
	c0.2253418-0.6832428,0.5723267-1.2904816,1.0348511-1.8213348c0.4678955-0.5308533,1.0574951-0.9584503,1.7679749-1.2816467
	c0.7062683-0.3243561,1.5484314-0.4863281,2.5203247-0.4863281H466.8012085L466.8012085,132.4283447z M463.1040344,135.7478027
	h-3.7255554c-0.9169922,0-1.5917969,0.2253265-2.0236206,0.6748047c-0.4318237,0.4502411-0.6475525,1.0617065-0.6475525,1.8355255
	c0,0.7200928,0.2241821,1.264389,0.6748047,1.633255c0.4494629,0.3688812,1.0977783,0.553894,1.9433899,0.553894h3.7785339
	V135.7478027L463.1040344,135.7478027z M490.1860657,151.0255127v-18.597168h3.6971741v7.4772491h1.8900452
	c0.3588867,0,0.6974182-0.0318604,1.0118103-0.0948181c0.3143616-0.0629425,0.6026306-0.1807861,0.8636475-0.351593
	c0.2613831-0.1708069,0.4951477-0.4133911,0.7020264-0.7289124c0.2065125-0.3143768,0.3903809-0.7147217,0.5527344-1.2010498
	l1.6202087-5.1008759h3.7785339l-1.6731567,5.4248352c-0.2886658,0.9185486-0.6575317,1.6823883-1.1066284,2.2949982
	c-0.4506226,0.6114655-0.9630432,1.016037-1.5384216,1.2140961c0.7734375,0.2525635,1.3760681,0.6974487,1.8082581,1.3361511
	c0.4318237,0.6387177,0.7822876,1.4167633,1.052124,2.3349152l1.7810364,5.9921722h-4.0215149l-1.5384521-5.3979797
	c-0.1435547-0.5036011-0.318573-0.9181519-0.5266418-1.2424927c-0.2064819-0.3231964-0.4406433-0.5757751-0.7016602-0.7550201
	c-0.2602234-0.1796417-0.5527344-0.3016968-0.8770752-0.3646545c-0.3243408-0.0629425-0.674408-0.0948029-1.052124-0.0948029
	h-2.0247498v7.85495H490.1860657L490.1860657,151.0255127z M528.440979,145.0867004
	c0,1.0087433-0.1881104,1.8900452-0.5657959,2.6462097c-0.3788452,0.7550201-0.8866577,1.3937378-1.5342407,1.9161377
	c-0.6483154,0.5212555-1.4078979,0.9127808-2.2761841,1.1737976c-0.8724365,0.2613983-1.7910156,0.3919067-2.7625122,0.3919067
	c-0.9718628,0-1.888855-0.1305084-2.7625122-0.3919067c-0.8682251-0.2610168-1.6278687-0.6525421-2.2761841-1.1737976
	c-0.647522-0.5223999-1.1557617-1.1611176-1.5330811-1.9161377c-0.3788452-0.7561646-0.5668945-1.6374664-0.5668945-2.6462097
	v-6.8285675c0-0.989151,0.1968994-1.8616333,0.5930176-2.6177979c0.395752-0.7561646,0.9223633-1.3852844,1.5883179-1.8888855
	c0.6660156-0.5047607,1.4309692-0.8824615,2.2892456-1.1338806c0.8640747-0.2525635,1.7507324-0.3784637,2.6680908-0.3784637
	c0.9169922,0,1.8040771,0.1347351,2.6677246,0.4045715c0.8640137,0.2709961,1.6236572,0.6617432,2.2892456,1.1753235
	c0.6659546,0.5124359,1.1925659,1.1511383,1.5886841,1.9157562c0.3961792,0.7649994,0.5930786,1.6420746,0.5930786,2.6320038
	V145.0867004L528.440979,145.0867004z M524.7437744,139.0143127c0-0.6114655-0.098999-1.1292725-0.2970581-1.5526428
	c-0.1980591-0.422226-0.4591064-0.7692261-0.7822876-1.0390625c-0.3243408-0.2698517-0.6890259-0.4679108-1.0935669-0.5930328
	c-0.4046021-0.126297-0.8237305-0.1892395-1.2555542-0.1892395c-0.4310303,0-0.8540649,0.0629425-1.2678223,0.1892395
	c-0.4145508,0.1251221-0.78302,0.3231812-1.1074219,0.5930328c-0.3231812,0.2698364-0.5841675,0.6168365-0.7822266,1.0390625
	c-0.1980591,0.4233704-0.2971191,0.9411774-0.2971191,1.5526428v5.4252319c0,0.6114502,0.0990601,1.1334839,0.2971191,1.5656891
	c0.1980591,0.4318237,0.4590454,0.7822723,0.7822266,1.0521088c0.3244019,0.2698517,0.6928711,0.4633026,1.1074219,0.5807648
	c0.4137573,0.116684,0.836792,0.175415,1.2678223,0.175415c0.4318237,0,0.8509521-0.0587311,1.2555542-0.175415
	c0.404541-0.1174622,0.7692261-0.3109131,1.0935669-0.5807648c0.3231812-0.2698364,0.5842285-0.620285,0.7822876-1.0521088
	c0.1980591-0.4322052,0.2970581-0.9542389,0.2970581-1.5656891V139.0143127L524.7437744,139.0143127z M553.1201172,141.0379333
	l-1.72229,3.4284821l-2.1011353,3.9942627h-2.6635132l-2.0739136-3.9136658l-1.8036499-3.509079h-0.1078491v9.9875793h-3.6983643
	v-18.597168h3.4012451l3.3198853,6.5587158l2.2400513,4.5884552h0.1619873l2.2677612-4.6963196l3.1847534-6.4508514h3.4012451
	v18.597168h-3.6983643v-9.9875793H553.1201172L553.1201172,141.0379333z M578.0410767,151.0255127v-15.27771h-6.8557739v15.27771
	h-3.6972046v-18.597168h14.3058472v18.597168H578.0410767L578.0410767,151.0255127z M602.5843506,147.1920776h-6.4769287
	l-1.2156372,3.8334351h-3.9397583l6.5314941-18.597168h3.7789307l6.4784546,18.597168h-4.022644L602.5843506,147.1920776
	L602.5843506,147.1920776z M597.1062012,144.0890961h4.4805908l-0.7289429-2.3752289l-1.4581909-4.912796h-0.1074829
	l-1.4309692,4.8310394L597.1062012,144.0890961L597.1062012,144.0890961z M627.5065308,151.0255127v-7.7731934h-6.855835v7.7731934
	h-3.6971436v-18.597168h3.6971436v7.5033417h6.855835v-7.5033417h3.7524414v18.597168H627.5065308L627.5065308,151.0255127z
	 M652.9951782,138.9064484l-1.8355103,2.8335266c-0.2164917,0.3427734-0.4821167,0.7603912-0.7965088,1.2555542
	c-0.3143311,0.4951477-0.6613159,1.0302277-1.0390625,1.6059875c-0.3776855,0.5753784-0.7649536,1.1695709-1.1610718,1.7810364
	c-0.395752,0.6114655-0.77771,1.2056427-1.1465454,1.7814178c-0.3688965,0.5765228-0.7150879,1.1119843-1.0390625,1.6056061
	c-0.3243408,0.495163-0.5941772,0.9143219-0.8095703,1.2559357h-3.3471069v-18.597168h3.6972046v12.2276764h0.1078491
	l3.8779907-6.0735321l3.9592896-6.1541443h3.3643799v18.597168h-3.6971436v-12.1190643H652.9951782L652.9951782,138.9064484z
	 M681.182312,132.4283447v18.597168h-3.6972046v-7.3686218h-2.1594849c-0.3776855,0-0.7192993,0.0360718-1.0252686,0.1078491
	c-0.3066406,0.0717773-0.5853271,0.1980743-0.836731,0.3777008c-0.2521973,0.1804047-0.4775391,0.4276123-0.6755981,0.7419739
	c-0.1980591,0.3155212-0.3688354,0.7247009-0.5123901,1.228302l-1.4037476,4.912796h-4.0756226l1.5656738-5.1020355
	c0.2164917-0.6832428,0.4591064-1.2904816,0.7289429-1.8213348c0.2698364-0.5312347,0.6931763-0.9488525,1.2685547-1.2555542
	c-0.5581055-0.1612091-1.026001-0.4091644-1.4033203-0.7423401c-0.3776855-0.3327942-0.6889648-0.7147217-0.9315796-1.1465454
	c-0.2425537-0.4322052-0.4187622-0.8955078-0.5266113-1.3906555c-0.1074829-0.4940033-0.1619873-0.9845581-0.1619873-1.4708862
	c0-0.7020569,0.1132202-1.3941193,0.3374023-2.0785065c0.2249146-0.6832428,0.5723267-1.2904816,1.0344238-1.8213348
	c0.4679565-0.5308533,1.0579224-0.9584503,1.7683716-1.2816467c0.7059326-0.3243561,1.5480347-0.4863281,2.5199585-0.4863281
	H681.182312L681.182312,132.4283447z M677.4851074,135.7478027h-3.7251587c-0.9174194,0-1.5922241,0.2253265-2.0240479,0.6748047
	c-0.4318237,0.4502411-0.647522,1.0617065-0.647522,1.8355255c0,0.7200928,0.2241821,1.264389,0.6748047,1.633255
	c0.4494629,0.3688812,1.0977783,0.553894,1.9433594,0.553894h3.7785645V135.7478027z"/>
<g>
	<g>
		<path class="st3" d="M268.427063,40.142601h-19.914917c-0.6732483,0-1.2762756,0.4164696-1.5146332,1.0455894
			l-14.6006165,38.4464378c-0.3623352,0.9956894-0.9116211,1.2471085-1.1856842,1.2471085
			c-0.2756042,0-0.8237305-0.2514191-1.1895294-1.2471085l-14.6006012-38.4464378
			c-0.2391357-0.6291199-0.8421478-1.0455894-1.5157928-1.0455894h-19.9091492
			c-0.5155029,0-0.8605804,0.5320053-0.6483154,1.0018311l21.766571,48.4666519
			c2.29039,5.0713272,5.9449463,9.394165,16.096817,9.394165c10.1480255,0,13.8060455-4.3228378,16.0910645-9.394165
			l21.7711792-48.4666519C269.2853394,40.6746063,268.941803,40.142601,268.427063,40.142601z"/>
		<path class="st3" d="M333.9063721,68.9933624c-2.287323-2.0804291-6.0378418-3.4100571-8.8709717-4.0748749l-21.5761719-5.237915
			c-2.473114-0.5819054-5.3991394-1.3292465-5.3991394-3.1586418c0-0.6667328,0.4571533-1.3303986,1.0064392-1.5806618
			c0.3669434-0.1665878,1.0075684-0.3320236,3.3839417-0.3320236h31.490448c0.5865173,0,1.0632629-0.4763489,1.0632629-1.0628624
			V41.2043114c0-0.5865135-0.4767456-1.0617104-1.0632629-1.0617104h-41.1839905
			c-5.4859009,0-8.9612122,1.830162-10.9706116,3.6591721c-3.7505188,3.407753-4.026123,7.979702-4.026123,11.637722
			c0,4.3251381,0.458313,9.3139381,3.4764709,12.9719582c1.2816467,1.5775986,3.5666504,3.4914322,7.3171692,4.4030609
			l24.7774353,6.3195877c2.100769,0.5005264,4.1159363,1.080513,4.1159363,2.910675
			c0,0.8302536-0.5492859,1.82901-3.5666504,1.82901h-34.4172668c-0.5876465,0-1.0620728,0.4755783-1.0620728,1.0617065v12.3439941
			c0,0.5865097,0.4744263,1.0609436,1.0620728,1.0609436h42.8280029c4.3915405,0,9.2375793-0.0825272,12.8955994-4.4894257
			c2.9256287-3.4914322,3.1098938-8.1482086,3.1098938-11.5548096
			C338.2967834,78.3038483,337.9286499,72.5665512,333.9063721,68.9933624z"/>
		<path class="st3" d="M416.0241089,69.287384c0-0.9434814-0.763855-1.7073288-1.7061768-1.7073288h-17.2510376
			c-0.9434814,0-1.7061768,0.7638474-1.7061768,1.7073288v10.262413c0,1.1653519-0.0924988,2.4949799-1.0954895,3.4100647
			c-1.0075684,0.8310165-2.3817444,0.9139252-3.4753113,0.9139252h-6.2193909c-3.4741516,0-6.6750183-0.7477264-8.960022-3.9900436
			c-2.2861938-3.4100571-2.377533-7.4837799-2.377533-10.6412659c0-3.2434692,0.0913391-7.2354355,2.2861633-10.4758339
			c2.1925049-3.1594086,5.8505249-4.822216,11.0623474-4.822216h26.4364014c0.8540344,0,1.5472412-0.6928329,1.5472412-1.5461159
			V41.6898727c0-0.854435-0.6932068-1.5472717-1.5472412-1.5472717h-35.7633972
			c-1.7353516,0-10.2397766,0.0825272-16.0922241,3.9896622c-8.319397,5.4881783-9.1442566,16.2131233-9.1442566,25.4410858
			c0,7.6499786,0.6409912,18.208725,7.6795349,23.8623428c4.1170959,3.3248444,10.8850098,4.9047394,16.0945129,4.9047394H406.06073
			c2.6504211,0,5.2106628-0.748497,6.8538818-1.9944458c1.1000977-0.8321686,3.1094971-2.9102936,3.1094971-6.7349014V69.287384z"/>
		<path class="st3" d="M486.440033,80.6303177c4.9408264,0,9.5108643-2.0773544,11.8880005-7.2323608
			c2.1936646-4.7373886,2.3763733-11.6388779,2.3763733-14.2992897c0-4.4065132-0.5450745-9.5596008-3.2879944-13.3036003
			c-4.2088623-5.6524658-11.2496643-5.6524658-15.270813-5.6524658h-46.1720276
			c-0.7312317,0-1.3238831,0.5930367-1.3238831,1.3238754v6.4228363v5.4110298v44.3752708
			c0,0.3688736,0.2967224,0.6648178,0.6648254,0.6648178h19.3345337c0.368866,0,0.6659546-0.2959442,0.6659546-0.6648178v-41.664959
			c0-0.7703743,0.6310425-1.3925819,1.4014282-1.3914299c8.392334,0.0130501,16.0085144,0.0314751,16.0085144,0.0314751
			c1.91922,0,4.2088318-0.1239815,5.7614746,1.3718529c0.4567871,0.4145508,1.5526428,1.7464828,1.5526428,4.9051247
			c0,1.4962196-0.3623352,3.6580238-1.3699341,4.8233681c-1.4654846,1.5775909-3.9324646,1.7453308-5.7603149,1.7453308h-3.2914429
			c-5.3031616,0-9.2364197,2.6600266-9.2364197,6.566391v1.246727c0,2.8281479,2.2861633,5.3208237,4.3915405,7.8994751
			l11.5037842,14.1065979c0.5289307,0.6494675,1.3223267,1.0248642,2.1587219,1.0248642h21.0192261
			c0.9127808,0,1.3591919-1.1139145,0.6962891-1.7441788l-16.4522705-15.6319885v-0.3339462H486.440033z"/>
		<path class="st3" d="M578.8912354,45.4641953c-6.855835-5.7372971-18.284729-5.9887123-27.9783325-5.9887123
			c-9.6935425,0-21.1235962,0.2514153-27.9805908,5.9887123c-6.9494629,5.8198204-7.2235107,15.9640121-7.2235107,23.7782822
			c0,7.6469116,0.2740479,17.8736267,7.2235107,23.7775116c6.7644653,5.736145,18.4697876,5.98526,27.9805908,5.98526
			c9.510498,0,21.2150269-0.249115,27.9783325-5.98526c6.9506226-5.9038849,7.2258301-16.1306,7.2258301-23.7775116
			C586.1170654,61.4282074,585.8418579,51.2840157,578.8912354,45.4641953L578.8912354,45.4641953z M562.5245361,80.2994461
			L562.5245361,80.2994461c-2.8342896,3.8246078-6.2182617,4.2410736-11.6116333,4.2410736
			c-5.211792,0-8.8709717-0.4164658-11.6127319-4.2410736c-2.1034546-2.9095306-2.3764038-6.4850235-2.3764038-11.0569687
			c0-4.8233643,0.09021-7.9820099,2.3764038-11.0577393c2.7417603-3.8246078,6.3095703-4.2403107,11.6127319-4.2403107
			c5.3933716,0,8.7773438,0.4157028,11.6116333,4.2403107c2.4700317,3.2434692,2.3764038,5.986412,2.3764038,11.0577393
			C564.9009399,73.8973312,564.9009399,77.1396561,562.5245361,80.2994461z"/>
		<path class="st3" d="M665.2937622,40.142601h-19.1671753c-0.4122314,0-0.7484741,0.3362465-0.7484741,0.7496452v32.6722984
			c0,2.3272324-0.0913696,5.9034958-3.2012329,8.2311172c-1.8267212,1.3303986-4.9354858,2.078125-7.8622437,2.078125
			c-2.9268188,0-6.0355835-0.7477264-7.8665161-2.078125c-3.017334-2.2458649-3.2023926-5.6524658-3.2023926-8.2311172V40.8922462
			c0-0.4133987-0.3339233-0.7496452-0.7473145-0.7496452h-19.1671753c-0.4133911,0-0.7496338,0.3362465-0.7496338,0.7496452
			V75.060379c0,5.9038849,1.0064087,12.3059921,6.6761475,17.3773193
			c6.5848389,5.9027328,15.9118042,6.5675507,25.0568848,6.5675507c9.1408081,0,18.4674072-0.6648178,25.0526123-6.5675507
			c5.6685791-5.0713272,6.6762085-11.4734344,6.6762085-17.3773193V40.8922462
			C666.043457,40.4788475,665.7072144,40.142601,665.2937622,40.142601z"/>
		<path class="st3" d="M744.2313843,44.2170906c-3.5678101-3.4937363-8.3205566-4.0744896-13.440979-4.0744896h-35.3880005
			c-4.3911743,0-7.1333618,1.5787468-8.5021362,2.992054c-2.1986084,2.2447128-2.5644531,5.5707054-2.5644531,7.9820061v46.4011917
			c0,0.4548569,0.3688965,0.8225784,0.8225708,0.8225784h19.0194092c0.454834,0,0.8245239-0.3677216,0.8245239-0.8225784V81.5461655
			h26.9752808c3.4741821,0,8.2280273-0.8310165,11.2462158-3.1605606
			c5.3945313-4.2391586,5.7603149-14.2144547,5.7603149-18.2893295
			C748.9841309,51.6985664,747.2472534,47.1266174,744.2313843,44.2170906L744.2313843,44.2170906z M726.6744385,65.5833054
			L726.6744385,65.5833054c-1.7365112,1.6628036-4.3001709,1.4962158-6.8600464,1.4962158h-14.114624
			c-0.3850098,0-0.6974487-0.3124466-0.6974487-0.6985931v-8.3627777c0-1.2467194,0.2744141-3.408905,3.5658569-3.408905h11.4289551
			c2.3771362,0,4.7581177,0,6.4934692,1.33078c1.6451416,1.2467232,1.8278198,3.0757332,1.8278198,4.571949
			C728.3184204,62.924427,727.6808472,64.585701,726.6744385,65.5833054z"/>
	</g>
</g>
</svg>
