<?xml version="1.0" encoding="utf-8"?>
<!-- Generator: Adobe Illustrator 22.1.0, SVG Export Plug-In . SVG Version: 6.00 Build 0)  -->
<svg version="1.1" id="Слой_1" xmlns="http://www.w3.org/2000/svg" xmlns:xlink="http://www.w3.org/1999/xlink" x="0px" y="0px"
	 viewBox="0 0 1144.5 149.4" style="enable-background:new 0 0 1144.5 149.4;" xml:space="preserve">
<style type="text/css">
	.st0{fill:#6691CD;}
	.st1{fill:#5771B2;}
</style>
<g>
	<path class="st0" d="M186.3,129.5c25.4-15.2,43.2-38,58.8-62.2c22.7-35.1,44.1-55,103.2-45c-30.7,6.7-50.7,34.6-67.8,56.1
		C264.6,98.3,242.2,132.5,186.3,129.5"/>
	<path class="st1" d="M184,128.1c-24.2-15.2-41.4-37.3-56.5-60.8c-22.7-35.1-44.1-55-103.2-45C55.1,29,75,56.9,92.2,78.4
		c15.3,19.1,36.6,51.6,88.1,51.3C181.6,129.1,182.8,128.6,184,128.1"/>
	<path class="st1" d="M440,112.4c3.8-11.6,8-23.2,12.4-35l20.3-54.5h12.9l-40.2,106h-11.3L394,22.9h12.9l20.3,54.5
		c4.5,11.8,8.6,23.4,12.4,35H440z"/>
	<rect x="501.1" y="22.9" class="st1" width="12.9" height="106"/>
	<path class="st1" d="M552.3,85v43.9h-12.9v-106h27.4c4.6,0,8.6,0.2,11.8,0.5c3.2,0.3,6.2,0.9,8.9,1.6c7.4,2,13,5.4,16.9,10.3
		s5.9,10.9,5.9,18.1c0,4.3-0.7,8.1-2.1,11.5c-1.4,3.4-3.3,6.3-5.8,8.8c-2.5,2.5-5.5,4.5-8.9,6.1c-3.5,1.6-7.3,2.7-11.5,3.5v0.3
		l31.4,45.3h-12.9L567.9,85H552.3z M552.3,34.5v38.8H565c4,0,7.3-0.1,10.1-0.4c2.8-0.3,5.3-0.7,7.5-1.4c4.5-1.4,7.9-3.6,10.4-6.6
		c2.4-3,3.6-6.9,3.6-11.8c-0.1-4.5-1.2-8.2-3.5-11c-2.3-2.8-5.4-4.8-9.4-6c-1.9-0.6-4.2-1-6.8-1.3c-2.6-0.3-6-0.4-10.1-0.4H552.3z"
		/>
	<polygon class="st1" points="671.7,128.9 658.8,128.9 658.8,34.5 623.4,34.5 623.4,22.9 707.1,22.9 707.1,34.5 671.7,34.5 	"/>
	<path class="st1" d="M702.7,128.9l43.2-106h11.2l43.2,106h-14l-12.7-31.9h-44.3l-12.7,31.9H702.7z M751.4,39.4
		c-4.7,13.2-9.2,25.2-13.5,36l-4,10H769l-4-10c-4.3-11-8.8-23-13.3-36H751.4z"/>
	<path class="st0" d="M871,128.9h-5.9l-26.7-63.3c-3.7-8.7-7.4-18.2-11.1-28.4h-0.6c0.7,14.7,1.1,28.2,1.1,40.5v51.2h-12.9v-106
		h18.6l25,60c2.8,6.9,6,15.1,9.4,24.8h0.4c3.8-10.7,6.9-19,9.4-24.8l25-60h18.6v106h-12.9V77.6c0-12,0.4-25.5,1.1-40.5h-0.6
		c-3.9,10.8-7.6,20.3-11.1,28.4L871,128.9z"/>
	<polygon class="st0" points="959.4,117.2 1013.8,117.2 1013.8,128.9 946.5,128.9 946.5,22.9 1010.8,22.9 1010.8,34.5 959.4,34.5 
		959.4,68.8 1005.1,68.8 1005.1,80.4 959.4,80.4 	"/>
	<path class="st0" d="M1120.2,75.4c0,6.2-0.8,12-2.3,17.4c-1.5,5.4-3.8,10.3-6.9,14.7c-3.1,4.4-6.9,8.1-11.6,11.3
		c-4.6,3.2-10,5.6-16.2,7.4c-3.5,1-7.4,1.7-11.5,2.1c-4.1,0.4-8.6,0.6-13.4,0.6h-24v-106h24.2c4.8,0,9.3,0.2,13.4,0.6
		c4.1,0.4,7.9,1.1,11.5,2.1c6.2,1.7,11.6,4.2,16.2,7.3c4.6,3.1,8.4,6.8,11.5,11c3,4.3,5.3,9,6.8,14.3
		C1119.4,63.6,1120.2,69.3,1120.2,75.4 M1107.3,75.4c0-10.2-2.2-18.5-6.7-24.8c-4.5-6.3-10.9-10.8-19.3-13.5
		c-3.2-1-6.8-1.7-10.8-2.1c-4-0.4-8.4-0.5-13.4-0.5h-9.9v82.7h9.9c5,0,9.4-0.2,13.4-0.6c4-0.4,7.5-1.1,10.8-2.1
		c8.4-2.6,14.8-7.3,19.3-13.9C1105.1,94.2,1107.3,85.7,1107.3,75.4"/>
</g>
</svg>
