<svg xmlns="http://www.w3.org/2000/svg" width="200" height="155" fill="none"><g clip-path="url(#a)"><path fill="url(#b)" d="M28 99.5 12.4 83.9 28 68.3l15.6 15.6L28 99.5Zm-9.1-15.6 9.1 9.2 9.2-9.2-9.2-9.1-9.1 9.1Z"/><path fill="url(#c)" d="M40.4 87.2 24.8 71.6 40.4 56l15.5 15.6-15.5 15.6Zm-9.1-15.6 9.2 9.2 9.2-9.2-9.2-9.2-9.2 9.2Z"/><path fill="url(#d)" d="M15.6 87.2 0 71.6 15.6 56l15.6 15.6-15.6 15.6ZM6.5 71.6l9.2 9.2 9.2-9.2-9.2-9.2-9.2 9.2Z"/><path fill="url(#e)" d="M72.5 76v-2.9c0-.8 0-1.5.1-2.3l-4 5.3h-4V62.5h5.1v2.9c0 .8 0 1.6-.1 2.4l4-5.3h4v13.6l-5.1-.1Z"/><path fill="url(#f)" d="M92.3 62.4V76h-5.2v-4.6h-2.7V76h-5.1V62.4h5.2V67h2.7v-4.6h5.1Z"/><path fill="url(#g)" d="M101.2 62.4c3.1 0 4.8 1 4.8 3.4.2 1.3-.6 2.5-1.9 2.9 1.5.4 2.5 1.8 2.4 3.3 0 3.1-2.5 3.9-5.6 3.9h-7.1V62.3h7.4v.1Zm-.8 3.7h-1.3v1.6h1.3c.4 0 .8-.3.8-.7v-.1c0-.4-.3-.8-.8-.8Zm.2 4.5h-1.5v1.7h1.5c.5 0 .9-.3.9-.7v-.1c0-.5-.4-.9-.9-.9Z"/><path fill="url(#h)" d="M118.3 62.4v3.9h-5.5v1.2h4.7v3.4h-4.7v1.2h5.6V76h-10.8V62.4h10.7Z"/><path fill="url(#i)" d="M126.7 62.1c1.4 0 2.8.3 4 .8v4.5c-1-.5-2-.8-3.1-.8-1.6 0-3.1.7-3.1 2.7 0 1.7 1.4 2.5 3 2.5 1.2.1 2.3-.2 3.3-.8v4.6c-1.3.5-2.7.8-4 .8-4 0-7.7-2-7.7-7 0-5.1 3.9-7.3 7.6-7.3Z"/><path fill="url(#j)" d="M143.8 62.4v4.4h-3.5v9.1h-5.2v-9.1h-3.5v-4.5h12.2v.1Z"/><path fill="url(#k)" d="M152.8 76v-2.9c0-.8 0-1.6.1-2.4l-4 5.3h-4V62.4h5.2v2.9c0 .8 0 1.6-.1 2.4l4-5.3h4V76h-5.2Z"/><path fill="url(#l)" d="M165.9 62.4c3.5 0 6.2 1.3 6.2 5.3 0 3.9-2.7 5.3-6.2 5.3h-1.2v3h-5.2V62.4h6.4Zm-.2 4.2h-1v2.3h1c.9 0 1.3-.4 1.3-1.1.1-.8-.3-1.2-1.3-1.2Z"/><path fill="url(#m)" d="M176.1 76.3c-.9 0-1.8-.2-2.7-.4v-4c.5.2 1.1.3 1.6.3s1.1-.2 1.3-.6l.2-.4-5-8.6h5.4l2.1 4.7 1.7-4.7h5.4l-4.9 10.5c-.8 1.9-2.8 3.3-5.1 3.2Z"/><path fill="url(#n)" d="M194.9 76v-2.9c0-.8 0-1.6.1-2.4l-4 5.3h-4V62.4h5.2v2.9c0 .8 0 1.6-.1 2.4l4-5.3h4V76h-5.2Zm2.5-15.5v-3c-1.1.7-2.4 1-3.7 1-1.3 0-2.6-.3-3.8-1v3c1.1.7 2.4 1.1 3.8 1.1 1.3 0 2.6-.4 3.7-1.1Z"/><path fill="url(#o)" d="M71.9 81.1c3.1 0 4.8 1 4.8 3.4.2 1.3-.6 2.5-1.9 2.9 1.5.4 2.5 1.8 2.4 3.3 0 3.1-2.5 3.9-5.6 3.9h-7.2V81.1h7.5Zm-.9 3.6h-1.3v1.6H71c.4 0 .8-.3.8-.7v-.1c.1-.4-.3-.7-.8-.8 0 0 .1 0 0 0Zm.2 4.5h-1.5V91h1.5c.5 0 .9-.3.9-.7v-.1c0-.4-.3-.8-.7-.9-.1-.1-.1-.1-.2-.1Z"/><path fill="url(#p)" d="M94.7 95c-3.2.3-6.1-1.8-6.9-4.9h-1.1v4.6h-5.2V81.1h5.2v4.5h1.1c.8-2.9 3.1-4.9 6.9-4.9 4.9 0 7.4 3.1 7.4 7.1 0 4-2.5 7.2-7.4 7.2Zm0-4.6c1.3 0 2.1-.8 2.1-2.5 0-1.6-.8-2.5-2.1-2.5s-2.1.8-2.1 2.5.8 2.4 2.1 2.5Z"/><path fill="url(#q)" d="M103.3 94.7V81.1h10.5v4.5h-5.4v9.1h-5.1Z"/><path fill="url(#r)" d="M121.1 81.1c3.5 0 6.2 1.3 6.2 5.3 0 3.9-2.7 5.3-6.2 5.3h-1.2v3h-5.2V81.1h6.4Zm-.2 4.1h-1v2.3h1c1 0 1.3-.4 1.3-1.1.1-.8-.3-1.2-1.3-1.2Z"/><path fill="url(#s)" d="M131.3 95c-.9 0-1.8-.2-2.7-.4v-4c.5.2 1.1.3 1.6.3.6.1 1.1-.2 1.4-.6l.2-.4-5-8.6h5.4l2.1 4.7 1.7-4.7h5.4l-4.9 10.5c-.8 2-2.9 3.4-5.2 3.2Z"/></g><defs><linearGradient id="k" x1="-2.325" x2="199.452" y1="69.203" y2="69.203" gradientUnits="userSpaceOnUse"><stop stop-color="#1C8AE2"/><stop offset=".486" stop-color="#8B00B3"/><stop offset="1" stop-color="#6900B5"/></linearGradient><linearGradient id="b" x1="-2.325" x2="199.452" y1="83.942" y2="83.942" gradientUnits="userSpaceOnUse"><stop stop-color="#1C8AE2"/><stop offset=".486" stop-color="#8B00B3"/><stop offset="1" stop-color="#6900B5"/></linearGradient><linearGradient id="d" x1="-2.326" x2="199.451" y1="71.567" y2="71.567" gradientUnits="userSpaceOnUse"><stop stop-color="#1C8AE2"/><stop offset=".486" stop-color="#8B00B3"/><stop offset="1" stop-color="#6900B5"/></linearGradient><linearGradient id="e" x1="-2.326" x2="199.451" y1="69.23" y2="69.23" gradientUnits="userSpaceOnUse"><stop stop-color="#1C8AE2"/><stop offset=".486" stop-color="#8B00B3"/><stop offset="1" stop-color="#6900B5"/></linearGradient><linearGradient id="f" x1="-2.326" x2="199.452" y1="69.21" y2="69.21" gradientUnits="userSpaceOnUse"><stop stop-color="#1C8AE2"/><stop offset=".486" stop-color="#8B00B3"/><stop offset="1" stop-color="#6900B5"/></linearGradient><linearGradient id="g" x1="-2.327" x2="199.452" y1="69.21" y2="69.21" gradientUnits="userSpaceOnUse"><stop stop-color="#1C8AE2"/><stop offset=".486" stop-color="#8B00B3"/><stop offset="1" stop-color="#6900B5"/></linearGradient><linearGradient id="h" x1="-2.327" x2="199.452" y1="69.244" y2="69.244" gradientUnits="userSpaceOnUse"><stop stop-color="#1C8AE2"/><stop offset=".486" stop-color="#8B00B3"/><stop offset="1" stop-color="#6900B5"/></linearGradient><linearGradient id="i" x1="-2.326" x2="199.451" y1="69.183" y2="69.183" gradientUnits="userSpaceOnUse"><stop stop-color="#1C8AE2"/><stop offset=".486" stop-color="#8B00B3"/><stop offset="1" stop-color="#6900B5"/></linearGradient><linearGradient id="j" x1="-2.326" x2="199.451" y1="69.21" y2="69.21" gradientUnits="userSpaceOnUse"><stop stop-color="#1C8AE2"/><stop offset=".486" stop-color="#8B00B3"/><stop offset="1" stop-color="#6900B5"/></linearGradient><linearGradient id="c" x1="-2.326" x2="199.452" y1="71.567" y2="71.567" gradientUnits="userSpaceOnUse"><stop stop-color="#1C8AE2"/><stop offset=".486" stop-color="#8B00B3"/><stop offset="1" stop-color="#6900B5"/></linearGradient><linearGradient id="l" x1="-2.326" x2="199.452" y1="69.217" y2="69.217" gradientUnits="userSpaceOnUse"><stop stop-color="#1C8AE2"/><stop offset=".486" stop-color="#8B00B3"/><stop offset="1" stop-color="#6900B5"/></linearGradient><linearGradient id="m" x1="-2.326" x2="199.452" y1="69.388" y2="69.388" gradientUnits="userSpaceOnUse"><stop stop-color="#1C8AE2"/><stop offset=".486" stop-color="#8B00B3"/><stop offset="1" stop-color="#6900B5"/></linearGradient><linearGradient id="n" x1="-2.326" x2="199.452" y1="66.744" y2="66.744" gradientUnits="userSpaceOnUse"><stop stop-color="#1C8AE2"/><stop offset=".486" stop-color="#8B00B3"/><stop offset="1" stop-color="#6900B5"/></linearGradient><linearGradient id="o" x1="-2.325" x2="199.451" y1="87.881" y2="87.881" gradientUnits="userSpaceOnUse"><stop stop-color="#1C8AE2"/><stop offset=".486" stop-color="#8B00B3"/><stop offset="1" stop-color="#6900B5"/></linearGradient><linearGradient id="p" x1="-2.326" x2="199.452" y1="87.885" y2="87.885" gradientUnits="userSpaceOnUse"><stop stop-color="#1C8AE2"/><stop offset=".486" stop-color="#8B00B3"/><stop offset="1" stop-color="#6900B5"/></linearGradient><linearGradient id="q" x1="-2.326" x2="199.452" y1="87.915" y2="87.915" gradientUnits="userSpaceOnUse"><stop stop-color="#1C8AE2"/><stop offset=".486" stop-color="#8B00B3"/><stop offset="1" stop-color="#6900B5"/></linearGradient><linearGradient id="r" x1="-2.325" x2="199.452" y1="87.888" y2="87.888" gradientUnits="userSpaceOnUse"><stop stop-color="#1C8AE2"/><stop offset=".486" stop-color="#8B00B3"/><stop offset="1" stop-color="#6900B5"/></linearGradient><linearGradient id="s" x1="-2.327" x2="199.452" y1="88.116" y2="88.116" gradientUnits="userSpaceOnUse"><stop stop-color="#1C8AE2"/><stop offset=".486" stop-color="#8B00B3"/><stop offset="1" stop-color="#6900B5"/></linearGradient><clipPath id="a"><path fill="#fff" d="M0 0h200v155H0z"/></clipPath></defs></svg>