<?xml version="1.0" encoding="utf-8"?>
<!-- Generator: Adobe Illustrator 22.1.0, SVG Export Plug-In . SVG Version: 6.00 Build 0)  -->
<svg version="1.1" id="Слой_1" xmlns="http://www.w3.org/2000/svg" xmlns:xlink="http://www.w3.org/1999/xlink" x="0px" y="0px"
	 viewBox="0 0 771.4 199.9" style="enable-background:new 0 0 771.4 199.9;" xml:space="preserve">
<style type="text/css">
	.st0{fill:#C10D19;}
	.st1{fill:#FFFFFF;}
</style>
<rect x="285.7" y="-285.7" transform="matrix(6.123234e-17 -1 1 6.123234e-17 285.73 485.63)" class="st0" width="199.9" height="771.4"/>
<g>
	<path class="st1" d="M62.4,128.6l1.5-14.7h9.3l3.6-34.6h-9.5l1.5-14.7h9.5l3.2-30.4h17l-3.2,30.4h12.3l3.2-30.4h17l-3.2,30.4h9.6
		l-1.5,14.7H123l-3.6,34.6h9.7l-1.6,14.7h-9.6l-3.9,37.8H97l3.9-37.8H88.6l-4,37.8h-17l4-37.8H62.4z M90.1,113.9h12.3l3.6-34.6H93.8
		L90.1,113.9z"/>
	<path class="st1" d="M142.7,134.6V65.9c0-10.6,2.6-18.8,7.9-24.6c5.3-5.7,13-8.6,23.1-8.6c10.2,0,18,2.9,23.6,8.6
		c5.6,5.7,8.4,13.9,8.4,24.6v12.9H185V64.6c0-8.7-3.6-13-10.7-13c-7.2,0-10.8,4.3-10.8,13v71.3c0,8.6,3.6,12.9,10.8,12.9
		c7.2,0,10.7-4.3,10.7-12.9V117h20.7v17.6c0,10.6-2.8,18.8-8.4,24.6c-5.6,5.7-13.5,8.6-23.6,8.6c-10.2,0-17.9-2.9-23.1-8.6
		C145.3,153.5,142.7,145.3,142.7,134.6z"/>
	<path class="st1" d="M217.2,166.3V34.2H238v56.7h23.6V34.2h20.7v132.1h-20.7v-56.6H238v56.6H217.2z"/>
	<path class="st1" d="M297.8,166.3V34.2h20.7v132.1H297.8z"/>
	<path class="st1" d="M333.4,166.3V34.2h28l21.3,79.1V34.2h18.5v132.1h-21.4l-25.7-95.6v95.6H333.4z"/>
	<path class="st1" d="M408.7,166.3l21-132.1h32l21,132.1h-20.7l-3.6-24H433l-3.6,24H408.7z M435.7,124.4h20l-10-66.5L435.7,124.4z"
		/>
	<path class="st1" d="M490.9,166.3V34.2h20.7v113.2h34.2v18.9H490.9z"/>
	<path class="st1" d="M554.9,166.3V34.2h20.7v132.1H554.9z"/>
	<path class="st1" d="M590.7,166.3V34.2h54.9v18.9h-34.2v39.8h26.8v18.9h-26.8v54.5H590.7z"/>
	<path class="st1" d="M655.6,166.3V34.2h56.6v18.9h-35.8V90h28.5v18.8h-28.5v38.7h35.8v18.9H655.6z"/>
</g>
</svg>
