<svg xmlns="http://www.w3.org/2000/svg" width="199" height="155" fill="none"><g fill-rule="evenodd" clip-path="url(#a)" clip-rule="evenodd"><path fill="url(#b)" d="M18.5 64C9.7 64 2.5 72.8.1 84.8c0 .1 0 .4-.1.5.2 0 1 .1 1.2-.6 4.6-9.6 10.2-15.6 17.2-15.6 7.1 0 13 7.1 16.5 16.2.7-.7 1.9-1.8 1.9-2.9C34 71.8 26.8 64 18.5 64Z"/><path fill="url(#c)" d="M158.5 64c-8.8 0-16 8.8-18.4 20.8 0 .1 0 .4-.1.5.2 0 1 .1 1.2-.6 4.6-9.6 10.2-15.6 17.2-15.6 7.1 0 13 7.1 16.5 16.2.8-.7 1.9-1.8 1.9-2.9-2.8-10.6-10-18.4-18.3-18.4Z"/><path fill="url(#d)" d="M39.9 64c-1 0-2 .5-2 1.7 0 .6 1.2 2.6 2 4.6.8-2 2-3.9 2-4.6.1-1.2-.9-1.7-2-1.7Z"/><path fill="url(#e)" d="M56.1 64.5c-6.4 0-10.3 1.6-12.5 3l2.5 1.2c2-1.3 4.5-2.6 9.2-2.6 9.4 0 11.1 5.6 11.4 7.9v-.1c-.1 0-.2 0-.3.1-1.1.3-2.3.7-4.5.7-1 0-1.6-.2-2.3-.5-1-.4-2.2-.8-4.3-.8-1.7 0-3.2.4-4.4.7v2.3c1.1-.3 2.6-.8 4.4-.8 1.7 0 2.6.3 3.5.7.9.3 1.8.7 3.1.7 2.3 0 3.8-.4 4.9-.7v.8c-.2 1.9-1.7 7.2-11.4 7.2-5.3 0-7.4-1-9.4-2.5l-2.3 1.4c2.5 1.5 5.4 2.7 12.6 2.7 9.4 0 15.8-4.2 15.8-10.2-.2-6-6.6-11.2-16-11.2Z"/><path fill="url(#f)" d="M73.1 70.3v.9h6.2v14.1h4.3V71.2h6v-1.9H73.1v1Z"/><path fill="url(#g)" d="M115.5 69.3H114l-9 12.6-8.3-12.6h-4.6l10.5 16-4.5 6.3h2.9l16-22.3h-1.5Z"/><path fill="url(#h)" d="M127.5 69c-5.8 0-9.8 1.2-9.9 4v.6h4.6c0-1.5.8-2.6 5.6-2.6 4.9 0 5.4 1 5.4 2.6v2.3h-7c-6.4 0-9.7 2.2-9.7 5.1 0 2.5 2.7 4.4 7.9 4.4h13.1V73.5c.1-3.4-2.4-4.5-10-4.5Zm5.7 14.4h-7.6c-3.3 0-4.4-1.1-4.4-2.7s1.4-2.9 4.8-2.9h7.2v5.6Z"/><path fill="url(#i)" d="M190.2 75.8h-6.5v-6.5h-4.4v16h12.3c4.9 0 7.5-2 7.5-4.9-.1-3.2-4.1-4.6-8.9-4.6Zm.3 7.6h-6.8v-5.6h6.4c3.2 0 4.5 1.1 4.5 2.7 0 1.9-1 2.9-4.1 2.9Z"/></g><defs><linearGradient id="b" x1="-.967" x2="198.155" y1="74.645" y2="74.645" gradientUnits="userSpaceOnUse"><stop stop-color="#1C8AE2"/><stop offset=".486" stop-color="#8B00B3"/><stop offset="1" stop-color="#6900B5"/></linearGradient><linearGradient id="c" x1="-.967" x2="198.155" y1="74.645" y2="74.645" gradientUnits="userSpaceOnUse"><stop stop-color="#1C8AE2"/><stop offset=".486" stop-color="#8B00B3"/><stop offset="1" stop-color="#6900B5"/></linearGradient><linearGradient id="d" x1="-.966" x2="198.156" y1="67.132" y2="67.132" gradientUnits="userSpaceOnUse"><stop stop-color="#1C8AE2"/><stop offset=".486" stop-color="#8B00B3"/><stop offset="1" stop-color="#6900B5"/></linearGradient><linearGradient id="e" x1="-.967" x2="198.155" y1="75.148" y2="75.148" gradientUnits="userSpaceOnUse"><stop stop-color="#1C8AE2"/><stop offset=".486" stop-color="#8B00B3"/><stop offset="1" stop-color="#6900B5"/></linearGradient><linearGradient id="f" x1="-.967" x2="198.155" y1="77.317" y2="77.317" gradientUnits="userSpaceOnUse"><stop stop-color="#1C8AE2"/><stop offset=".486" stop-color="#8B00B3"/><stop offset="1" stop-color="#6900B5"/></linearGradient><linearGradient id="g" x1="-.967" x2="198.16" y1="80.434" y2="80.434" gradientUnits="userSpaceOnUse"><stop stop-color="#1C8AE2"/><stop offset=".486" stop-color="#8B00B3"/><stop offset="1" stop-color="#6900B5"/></linearGradient><linearGradient id="h" x1="-.967" x2="198.155" y1="77.164" y2="77.164" gradientUnits="userSpaceOnUse"><stop stop-color="#1C8AE2"/><stop offset=".486" stop-color="#8B00B3"/><stop offset="1" stop-color="#6900B5"/></linearGradient><linearGradient id="i" x1="-.967" x2="198.155" y1="77.329" y2="77.329" gradientUnits="userSpaceOnUse"><stop stop-color="#1C8AE2"/><stop offset=".486" stop-color="#8B00B3"/><stop offset="1" stop-color="#6900B5"/></linearGradient><clipPath id="a"><path fill="#fff" d="M0 0h199v155H0z"/></clipPath></defs></svg>