<svg width="466" height="69" viewBox="0 0 466 69" fill="none" xmlns="http://www.w3.org/2000/svg">
<path d="M49.4937 1.86063V68.0107H41.4834V8.9666H8.14993V68.0107H0.139564V1.86063H49.4937ZM65.6518 68.0107V1.86063H105.574V8.9666H73.6621V31.3181H103.507V38.4241H73.6621V60.9048H106.091V68.0107H65.6518ZM120.012 68.0107V1.86063H128.023V31.3181H163.294V1.86063H171.305V68.0107H163.294V38.4241H128.023V68.0107H120.012ZM183.724 8.9666V1.86063H233.336V8.9666H212.535V68.0107H204.525V8.9666H183.724ZM249.575 1.86063L266.63 29.3801H267.146L284.201 1.86063H293.632L272.831 34.9357L293.632 68.0107H284.201L267.146 41.0081H266.63L249.575 68.0107H240.144L261.462 34.9357L240.144 1.86063H249.575ZM306.77 68.0107H298.372L322.662 1.86063H330.93L355.22 68.0107H346.822L327.054 12.3258H326.538L306.77 68.0107ZM309.871 42.1709H343.721V49.2768H309.871V42.1709ZM362.261 68.9151V61.4216H366.396C367.989 61.4216 369.324 61.1093 370.401 60.4849C371.499 59.8604 372.404 59.0529 373.114 58.0624C373.846 57.0719 374.449 56.0383 374.923 54.9616L375.956 52.5068L353.088 1.86063H361.745L379.962 42.9461L396.628 1.86063H405.156L382.287 57.2872C381.383 59.3544 380.349 61.2708 379.186 63.0366C378.045 64.8023 376.484 66.2235 374.503 67.3001C372.543 68.3768 369.884 68.9151 366.525 68.9151H362.261ZM465.653 22.5325H457.643C457.169 20.2285 456.34 18.2044 455.156 16.4602C453.993 14.716 452.572 13.2517 450.892 12.0674C449.234 10.8615 447.393 9.95713 445.369 9.3542C443.345 8.75127 441.234 8.4498 439.038 8.4498C435.033 8.4498 431.405 9.46187 428.153 11.486C424.923 13.5101 422.35 16.4925 420.433 20.4331C418.538 24.3736 417.591 29.2078 417.591 34.9357C417.591 40.6635 418.538 45.4977 420.433 49.4383C422.35 53.3789 424.923 56.3613 428.153 58.3854C431.405 60.4095 435.033 61.4216 439.038 61.4216C441.234 61.4216 443.345 61.1201 445.369 60.5172C447.393 59.9142 449.234 59.0206 450.892 57.8363C452.572 56.6304 453.993 55.1554 455.156 53.4112C456.34 51.6455 457.169 49.6214 457.643 47.3388H465.653C465.05 50.7196 463.952 53.745 462.359 56.4151C460.765 59.0852 458.784 61.357 456.415 63.2304C454.047 65.0822 451.387 66.4926 448.437 67.4616C445.509 68.4306 442.376 68.9151 439.038 68.9151C433.396 68.9151 428.379 67.537 423.986 64.7808C419.594 62.0245 416.138 58.1055 413.618 53.0236C411.099 47.9418 409.839 41.9125 409.839 34.9357C409.839 27.9589 411.099 21.9296 413.618 16.8478C416.138 11.7659 419.594 7.84687 423.986 5.09062C428.379 2.33436 433.396 0.956236 439.038 0.956236C442.376 0.956236 445.509 1.44073 448.437 2.40973C451.387 3.37873 454.047 4.79992 456.415 6.67331C458.784 8.52517 460.765 10.7862 462.359 13.4563C463.952 16.1049 465.05 19.1303 465.653 22.5325Z" fill="white"/>
</svg>
