<svg xmlns="http://www.w3.org/2000/svg" xml:space="preserve" id="Layer_1" x="0" y="0" style="enable-background:new 0 0 100 25" version="1.1" viewBox="0 0 100 25"><style>.st6{fill:#fff}.st48{fill:#86d2bf}</style><path d="M87.68 4.327V1.426c0-.219.196-.384.412-.351 6.122.946 10.958 5.783 11.904 11.905a.356.356 0 0 1-.351.412h-2.902a.352.352 0 0 1-.347-.282 10.71 10.71 0 0 0-8.434-8.435.354.354 0 0 1-.282-.348z" class="st48"/><circle cx="85.896" cy="15.175" r="1.783" class="st48" transform="rotate(-9.213 85.89 15.166)"/><path d="M87.898 10.213a5.366 5.366 0 0 1 2.961 2.961.352.352 0 0 0 .327.218h3.003a.355.355 0 0 0 .345-.441 8.933 8.933 0 0 0-6.413-6.411.355.355 0 0 0-.441.345v3.002c0 .142.085.272.218.326z" class="st48"/><path d="M91.237 15.511a5.351 5.351 0 0 1-5.549 5.011c-2.773-.105-5.033-2.365-5.138-5.138a5.351 5.351 0 0 1 5.011-5.549.356.356 0 0 0 .336-.354V1.262a.355.355 0 0 0-.355-.355h-2.858a.355.355 0 0 0-.355.355v5.511a.358.358 0 0 1-.208.323 8.916 8.916 0 0 0-5.142 8.154c.039 4.785 3.918 8.727 8.701 8.84a8.918 8.918 0 0 0 9.126-8.545.355.355 0 0 0-.355-.37H91.59a.355.355 0 0 0-.353.336zM0 23.164V6.632c0-.398.084-.654.251-.767.167-.113.391-.17.672-.17h2.965c.173 0 .319.062.437.185a.618.618 0 0 1 .178.444c0 .215.07.328.209.339.043 0 .15-.059.321-.178.482-.398.953-.672 1.414-.823a4.77 4.77 0 0 1 1.481-.226c.614 0 1.189.119 1.728.355.377.172.796.463 1.259.872.248.194.425.291.533.291.086 0 .28-.097.581-.291.635-.484 1.219-.81 1.752-.977.533-.167 1.144-.25 1.832-.25 1.173 0 2.131.35 2.874 1.049.904.861 1.356 2.153 1.356 3.875v12.803c0 .398-.084.651-.25.759-.167.108-.396.161-.686.161h-2.631c-.291 0-.52-.054-.686-.161-.167-.107-.25-.36-.25-.759v-11.85c0-.441-.138-.81-.412-1.106-.274-.296-.654-.444-1.138-.444-.711 0-1.184.312-1.421.936-.129.355-.194.861-.194 1.518v10.947c0 .398-.083.651-.25.759-.167.108-.396.161-.686.161H8.59c-.398 0-.651-.083-.759-.25-.107-.167-.161-.39-.161-.67V11.313c0-.441-.136-.81-.409-1.106-.274-.295-.652-.444-1.134-.444-.707 0-1.178.312-1.414.936-.129.355-.198.861-.209 1.518v10.947c0 .398-.081.651-.243.759-.162.108-.389.161-.68.161H.924c-.399 0-.654-.081-.761-.242-.109-.161-.163-.387-.163-.678zM22.798 13.669v-2.84c0-.385.083-.632.25-.741.167-.109.395-.164.686-.164h2.939c.291 0 .517.055.678.164.161.109.242.356.242.741v2.84c0 .281-.054.499-.161.655-.108.156-.361.234-.759.234h-2.939c-.291 0-.519-.052-.686-.156-.167-.103-.25-.348-.25-.733zM22.798 23.195V20.34c0-.385.083-.629.25-.733.167-.104.395-.156.686-.156h2.939c.398 0 .651.081.759.242.107.161.161.377.161.647v2.855c0 .385-.081.63-.242.733-.161.104-.388.156-.678.156h-2.939c-.398 0-.654-.078-.767-.234-.113-.155-.169-.374-.169-.655zM30.886 22.922V2.094c0-.398.048-.662.145-.791.171-.248.509-.371 1.014-.371h2.575c.504 0 .823.094.957.282.134.188.201.482.201.88v6.281l4.65-6.668c.355-.506.807-.764 1.356-.775h3.681c.42 0 .624.199.614.597a.875.875 0 0 1-.064.363 1.612 1.612 0 0 1-.226.331l-5.231 7.12 6.329 12.949c.215.42.323.775.323 1.066 0 .484-.264.726-.791.726h-3.407a1.01 1.01 0 0 1-.767-.315c-.199-.21-.374-.493-.525-.847l-4.489-9.187-1.453 1.986v7.201c0 .506-.094.826-.282.96-.188.135-.48.202-.877.202h-2.575c-.504 0-.823-.094-.957-.282-.134-.188-.201-.481-.201-.88zM48.872 22.922V2.094c0-.398.043-.662.129-.791.172-.248.516-.371 1.033-.371h10.833c.506 0 .826.094.961.281.135.188.202.48.202.877v2.332a.736.736 0 0 1-.25.587c-.167.145-.422.217-.767.217h-6.652c-.398 0-.597.174-.597.52v3.496c0 .401.124.602.371.602h5.215c.215 0 .396.056.541.169a.551.551 0 0 1 .218.458v3.008c0 .44-.221.659-.662.659H54.2c-.291 0-.436.183-.436.549v4.699c0 .269.124.403.371.403h7.427c.377 0 .622.07.735.21s.17.344.17.614v2.309c0 .398-.049.662-.145.791-.173.248-.511.371-1.017.371h-11.27c-.398 0-.668-.043-.807-.129-.237-.182-.356-.527-.356-1.033z" class="st6"/><path d="M63.775 1.4c0-.194.072-.32.218-.38.145-.059.315-.089.508-.089h3.843c.291 0 .511.081.662.242.086.086.172.226.258.42l2.616 6.684c0 .043.054.129.161.258a.624.624 0 0 0 .161-.226l2.987-6.652c.129-.269.266-.458.412-.565a.78.78 0 0 1 .476-.161h3.875c.506 0 .759.188.759.565a.775.775 0 0 1-.065.331.631.631 0 0 0-.064.17L74.883 13.04a26.01 26.01 0 0 0-.291.605 1.912 1.912 0 0 0-.161.815v8.46c0 .506-.095.826-.283.96-.188.135-.482.202-.88.202h-2.583c-.398 0-.662-.043-.791-.129-.248-.172-.366-.517-.355-1.033v-8.46c0-.312-.014-.522-.04-.63-.027-.107-.137-.371-.331-.791L63.936 1.998c-.107-.269-.161-.469-.161-.598z" class="st6"/></svg>