<svg xmlns="http://www.w3.org/2000/svg" xml:space="preserve" id="Layer_1" x="0" y="0" style="enable-background:new 0 0 100 25" version="1.1" viewBox="0 0 100 25"><style>.st52{fill:#c1272d}.st53{fill:#29abe2}</style><path d="M.116 5.61c0-.538.391-1.003.923-1.081a36.155 36.155 0 0 1 4.869-.38c1.001 0 1.912.076 2.732.228.819.152 1.516.407 2.089.767a3.684 3.684 0 0 1 1.325 1.414c.31.584.464 1.298.464 2.145 0 .895-.196 1.637-.587 2.229-.392.591-1.052 1.094-1.981 1.51.619.224 1.129.483 1.529.779.401.296.71.623.929.982.218.359.369.731.451 1.114.082.383.123.767.123 1.15 0 .895-.164 1.629-.491 2.205a3.877 3.877 0 0 1-1.339 1.39c-.565.352-1.229.595-1.994.731-.765.136-1.585.204-2.459.204H1.127c-.674 0-1.011-.279-1.011-.839V5.61zm4.59 3.95c0 .604.489 1.093 1.093 1.093h.327c.692 0 1.188-.108 1.489-.323.301-.215.451-.636.451-1.262 0-.613-.146-1.027-.437-1.242-.292-.214-.811-.322-1.558-.322-.182 0-.419.003-.71.01-.292.007-.51.016-.655.029V9.56zm0 6.529c0 .604.489 1.093 1.093 1.093h.491c.783 0 1.343-.13 1.68-.389.337-.259.505-.68.505-1.263 0-.608-.187-1.035-.56-1.282-.373-.247-1.006-.37-1.899-.37h-.217c-.604 0-1.093.489-1.093 1.093v1.118zM16.753 7.336c-.929 0-1.589-.14-1.981-.419-.392-.279-.587-.746-.587-1.402 0-.655.195-1.122.587-1.402.392-.279 1.052-.419 1.981-.419s1.589.14 1.981.419c.391.28.587.747.587 1.402 0 .655-.196 1.122-.587 1.402-.393.279-1.053.419-1.981.419zm2.294 12.838a.82.82 0 0 1-.821.821h-2.73c-.674 0-1.011-.279-1.011-.839V9.379a.82.82 0 0 1 .821-.821h2.731c.673 0 1.01.28 1.01.839v10.777zM29.428 20.851c-.546.144-1.043.248-1.489.311-.446.064-.934.096-1.462.096a9.012 9.012 0 0 1-1.953-.192 3.574 3.574 0 0 1-1.475-.683c-.41-.327-.724-.767-.943-1.318-.218-.551-.328-1.25-.328-2.097v-5.32h-.547c-.674 0-1.01-.279-1.01-.839V8.558h1.721l.218-3.019h3.169c.674 0 1.011.28 1.011.839v2.181h2.076c.673 0 1.01.28 1.01.839v2.253h-3.087v5.248c0 .847.427 1.27 1.283 1.27h.793c.673 0 1.01.28 1.01.839v1.843z" class="st52"/><path d="M32.023 20.995c-.674 0-1.011-.279-1.011-.839V4.676a35.905 35.905 0 0 1 3.1-.395 33.826 33.826 0 0 1 2.8-.132c1.147 0 2.145.096 2.991.287s1.548.503 2.104.935c.555.431.965.999 1.229 1.701.264.703.397 1.566.397 2.588 0 1.981-.478 3.414-1.435 4.301-.956.887-2.372 1.33-4.248 1.33a13.388 13.388 0 0 1-2.295-.192v5.895h-3.632zm3.633-9.265c.218.026.419.044.601.057.182.013.355.019.519.019.401 0 .742-.028 1.025-.085.282-.057.514-.164.697-.322.182-.158.318-.369.409-.634.091-.265.137-.606.137-1.022 0-.391-.041-.713-.123-.965a1.327 1.327 0 0 0-.368-.596 1.322 1.322 0 0 0-.642-.293 4.962 4.962 0 0 0-.915-.076c-.164 0-.392.003-.683.009-.292.006-.51.016-.655.028v3.88zM50.763 21.306c-1.111 0-2.063-.124-2.855-.371-.792-.248-1.439-.635-1.939-1.162-.501-.527-.865-1.202-1.093-2.025-.228-.823-.341-1.809-.341-2.959 0-1.166.113-2.16.341-2.983.227-.823.592-1.498 1.093-2.025.5-.527 1.147-.911 1.939-1.15.792-.24 1.744-.359 2.855-.359s2.062.12 2.854.359c.793.24 1.439.623 1.94 1.15.5.527.865 1.202 1.093 2.025.227.823.341 1.818.341 2.983 0 1.15-.114 2.137-.341 2.959-.228.823-.592 1.498-1.093 2.025-.501.527-1.147.914-1.94 1.162-.792.247-1.743.371-2.854.371zm1.612-6.832c0-.635-.023-1.141-.068-1.519-.046-.377-.132-.668-.259-.874a.916.916 0 0 0-.492-.407c-.2-.066-.464-.099-.792-.099s-.592.033-.793.099a.91.91 0 0 0-.491.407c-.128.205-.214.496-.26.874a13.19 13.19 0 0 0-.068 1.519c0 .649.022 1.165.068 1.549.046.384.132.679.26.883a.906.906 0 0 0 .491.407c.2.066.464.099.793.099.328 0 .592-.033.792-.099a.916.916 0 0 0 .492-.407c.127-.205.214-.499.259-.883.044-.384.068-.9.068-1.549zM60.869 16.363c.406-.067.599.676 1.101.922.694.339 1.53.314 1.843.282.388-.04.663.035.663-.333a.767.767 0 0 0-.082-.383.745.745 0 0 0-.301-.263 2.612 2.612 0 0 0-.587-.216 17.97 17.97 0 0 0-.97-.216 17.644 17.644 0 0 1-1.967-.515c-.547-.184-1.002-.411-1.366-.683a2.422 2.422 0 0 1-.806-1.042c-.173-.423-.259-.962-.259-1.618 0-.83.127-1.505.382-2.025.255-.519.615-.93 1.079-1.234.464-.303 1.015-.511 1.652-.623a12.19 12.19 0 0 1 2.104-.168c1.074 0 1.932.021 2.524.314 2.554 1.262 2.365 3.017 2.365 3.017-.81.382-1.734 1.019-2.308.995-.574-.024-1.061-.985-1.654-1.162-.639-.191-1.088.044-1.406.132-.319.088-.478.3-.478.635 0 .32.15.543.451.671s.769.256 1.407.383c.765.176 1.434.352 2.008.527s1.042.404 1.407.683c.364.28.637.631.82 1.054.182.424.273.963.273 1.618 0 .815-.182 1.343-.446 1.886-.265.543-.704.973-1.178 1.293-.474.32-.867.525-1.523.653-.655.128-1.278.154-2.061.154-.929 0-1.766-.102-2.669-.653-1.88-1.147-2.813-2.599-2.813-2.871l2.795-1.214zM78.354 20.851c-.546.144-1.043.248-1.489.311-.446.064-.934.096-1.462.096a9.012 9.012 0 0 1-1.953-.192 3.574 3.574 0 0 1-1.475-.683c-.41-.327-.724-.767-.943-1.318s-.328-1.25-.328-2.097v-5.32h-.547c-.674 0-1.01-.279-1.01-.839V8.558h1.721l.218-3.019h3.169c.674 0 1.011.28 1.011.839v2.181h2.076c.673 0 1.01.28 1.01.839v2.253h-3.087v5.248c0 .847.427 1.27 1.283 1.27h.793c.673 0 1.01.28 1.01.839v1.843zM85.792 20.995s-1.627.196-3.187-.28a4.255 4.255 0 0 1-1.882-1.133c-.519-.527-.99-.987-1.236-1.81-.246-.823-.368-1.817-.368-2.983 0-2.316.496-3.982 1.489-4.996.992-1.014 2.545-1.522 4.657-1.522 1.111 0 2.017.136 2.718.407.701.272 1.252.643 1.653 1.114.4.471.673 1.03.819 1.677.146.647.219 1.346.219 2.097 0 .16-.01.359-.028.599-.019.24-.05.479-.095.719-.046.239-.096.467-.151.683s-.109.38-.164.491h-6.884c0 .815.223 1.382.67 1.701.446.32 1.016.113 1.981.113.892 0 1.494-1.032 1.959-1.056.464-.024 1.158.391 1.457.566.674.394.843.824.843 1.095a5.853 5.853 0 0 1-1.359 1.392c-1.192.868-2.39 1.035-3.111 1.126zm1.003-7.961c0-.725-.114-1.225-.341-1.5-.228-.275-.642-.412-1.243-.412-.728 0-1.216.146-1.462.439-.245.292-.378.784-.396 1.473h3.442zM99.425 8.271c.71 0 .384.595.384 1.154l-.026 2.125c-.128-.016.109 0 0 0s.145 0 0 0c-.583 0-1.346.125-1.92.205-.574.08-.9.298-.988.949v8.291h-3.552c-.674 0-1.01-.279-1.01-.839V10.115c.092-.254.289-.684.705-1.062.808-.731 1.809-.692 2.029-.678.401 0 3.74-.104 4.378-.104z" class="st53"/></svg>