<svg xmlns="http://www.w3.org/2000/svg" xml:space="preserve" id="Layer_1" x="0" y="0" style="enable-background:new 0 0 69.474 25" version="1.1" viewBox="0 0 69.474 25"><style>.st6{fill:#fff}.st21{fill:#016268}.st22{fill:#00a9c2}</style><path d="m29.048 7.571-1.538 2.834h-2.386L27.261 7a2.312 2.312 0 0 1-.906-.871 2.345 2.345 0 0 1-.316-1.212c0-1.534 1.06-2.301 3.176-2.301h2.582v7.788h-2.103V7.571h-.646zm.645-3.362h-.445c-.341 0-.603.068-.794.203-.195.135-.291.336-.291.602 0 .323.091.566.274.731.183.163.47.244.861.244h.395v-1.78zM39.133 5.093c0 .871-.258 1.542-.769 2.016-.515.475-1.243.712-2.187.712h-.594v2.584H33.48V2.616h2.698c.981 0 1.721.214 2.216.644.494.43.739 1.041.739 1.833zm-3.55 1.012h.387c.316 0 .565-.088.752-.266.187-.178.279-.423.279-.736 0-.525-.291-.788-.873-.788h-.545v1.79zM48.217 12.828h-2.049v-2.424h-4.539v2.424H39.58v-4.15h.644c.461-.789.848-1.7 1.147-2.735.303-1.035.499-2.144.586-3.327h5.196v6.062h1.064v4.15zm-3.185-4.15V4.336h-1.384a12.922 12.922 0 0 1-1.201 4.342h2.585z" class="st6"/><path d="M9.979.09 0 24.91l14.585-6.602-9.621.154 8.7-11.207z" class="st21"/><path d="m13.971 7.971 7.318 16.939L9.723 13.447z" class="st21"/><path d="M9.979.09 4.964 18.462l9.621-.154-12.931 2.489z" class="st22"/><path d="m13.971 7.971.638 10.319-4.886-4.843z" class="st22"/><path d="M31.191 22.239h-1.497l-3.205-3.947v3.947h-1.272V14.45h1.272v3.771l3.155-3.771h1.393l-3.143 3.761 3.297 4.028zM35.773 22.239l-.249-.82h-.042c-.283.359-.57.603-.856.732-.291.13-.661.195-1.11.195-.578 0-1.031-.157-1.355-.47-.324-.312-.486-.755-.486-1.326 0-.607.224-1.065.673-1.375.453-.309 1.139-.477 2.062-.506l1.018-.031v-.315c0-.376-.087-.658-.262-.844-.179-.187-.449-.28-.819-.28-.303 0-.59.044-.869.133a6.1 6.1 0 0 0-.798.314l-.407-.895a4.29 4.29 0 0 1 1.052-.38c.378-.087.74-.131 1.077-.131.748 0 1.314.163 1.696.491.382.326.574.84.574 1.539v3.969h-.899zm-1.863-.853c.453 0 .819-.127 1.093-.381s.416-.61.416-1.068v-.511l-.757.032c-.59.022-1.018.12-1.289.296-.266.176-.403.445-.403.806 0 .263.079.467.237.61.154.145.391.216.703.216zM43.567 16.346v5.893h-1.255v-4.901h-2.644v4.901h-1.251v-5.893h5.15zM46.556 16.346v3.021c0 .351-.025.869-.083 1.551l2.956-4.572h1.53v5.893h-1.206v-2.967c0-.163.012-.428.029-.794.021-.366.037-.632.054-.799l-2.947 4.56h-1.53v-5.893h1.197zM57.169 16.346v.981h-1.916v4.912h-1.26v-4.912h-1.916v-.981h5.092zM61.991 22.239l-.249-.82h-.046c-.283.359-.57.603-.856.732-.287.13-.657.195-1.106.195-.582 0-1.031-.157-1.359-.47-.324-.312-.486-.755-.486-1.326 0-.607.224-1.065.678-1.375.449-.309 1.139-.477 2.062-.506l1.018-.031v-.315c0-.376-.091-.658-.266-.844-.175-.187-.449-.28-.819-.28-.299 0-.59.044-.865.133a6.388 6.388 0 0 0-.802.314l-.403-.895a4.32 4.32 0 0 1 1.048-.38c.382-.087.74-.131 1.077-.131.748 0 1.318.163 1.696.491.382.326.574.84.574 1.539v3.969h-.896zm-1.867-.853c.457 0 .819-.127 1.097-.381.274-.254.412-.61.412-1.068v-.511l-.757.032c-.59.022-1.018.12-1.285.296-.27.176-.403.445-.403.806 0 .263.079.467.233.61.159.145.392.216.703.216zM69.474 22.239h-1.26v-4.912h-1.625c-.1 1.264-.233 2.251-.403 2.962-.166.71-.387 1.228-.661 1.556-.27.326-.624.489-1.056.489-.274 0-.503-.038-.686-.117v-.98c.129.05.262.075.391.075.362 0 .648-.407.856-1.222.208-.816.37-2.063.486-3.743h3.958v5.892z" class="st6"/></svg>