<svg width="127" height="155" fill="none" xmlns="http://www.w3.org/2000/svg"><path d="m76.378 28.613-16.303 53.91c-.274 1.096-1.302 1.85-2.398 1.85h-7.466c-1.302.068-2.466-.822-2.877-2.055l-8.837-28.29-8.836 28.29a3.025 3.025 0 0 1-2.877 2.055h-7.81c-1.095 0-2.123-.754-2.397-1.85L.206 28.613c-.274-1.096 0-2.603 1.575-2.603h9.727c1.781-.137 3.288 1.096 3.562 2.877l8.768 30.14 8.494-30.14c.343-1.233.96-2.877 3.014-2.877h6.165c1.918 0 2.603 1.576 2.946 2.877l8.563 30.14 8.768-30.14c.205-1.712 1.78-3.014 3.562-2.877h9.384c1.713 0 1.987 1.507 1.644 2.603Z" fill="url(#a)"/><path d="M126.863 28.613v7.33c0 1.575-.548 2.602-2.603 2.602h-13.563v43.156c0 1.986-.959 2.603-2.603 2.603h-8.7c-1.575 0-2.603-.548-2.603-2.603V38.545h-13.7c-1.986 0-2.603-.959-2.603-2.603v-7.33c0-1.575.548-2.602 2.603-2.602h41.101c2.192 0 2.671.959 2.671 2.603Z" fill="url(#b)"/><path d="M15.139 128.761h-2.26l-2.535-16.851c-.274-1.576-.411-3.22-.48-4.864-.068.48-.137 1.028-.137 1.507a29.16 29.16 0 0 1-.41 3.425L6.37 128.761H4.179L0 102.799h2.466l2.329 16.372c.137.959.274 1.918.343 2.945 0 .685 0 1.302.137 1.918.137-1.712.479-3.356.753-5.069l2.74-16.166h2.124l2.397 16.44c.137.959.274 1.918.343 2.809.068.685.137 1.301.274 1.918.205-1.644.41-3.288.685-4.932l2.534-16.304h2.466l-4.452 26.031Z" fill="url(#c)"/><path d="m26.784 128.762-.685-3.699h-3.836l-.685 3.699h-1.781l3.63-18.153h1.507l3.63 18.153h-1.78Zm-2.192-11.577c-.274-1.438-.411-2.808-.48-4.247-.342 3.562-.822 7.124-1.507 10.686h3.151l-1.164-6.439Z" fill="url(#d)"/><path d="M30.072 128.762v-18.153h1.713v16.646h3.904v1.507h-5.617Z" fill="url(#e)"/><path d="M42.127 104.991v23.77H39.73v-23.77h-3.905v-2.261h10.138v2.261h-3.836Z" fill="url(#f)"/><path d="M71.789 122.939c-.685.959-1.507 1.849-2.26 2.671l1.575 3.151h-2.535l-.753-1.507c-1.096 1.165-2.672 1.781-4.247 1.781-3.836 0-6.302-3.493-6.302-7.055 0-3.22 1.507-5.343 3.836-7.535-1.37-2.055-2.124-4.453-2.33-6.919 0-2.808 2.193-5.137 5.001-5.137h.137c2.535 0 4.658 2.055 4.658 4.589v.206c0 3.562-2.466 5.822-4.52 7.74l4.52 8.494a27.522 27.522 0 0 0 1.781-2.192l1.439 1.713Zm-9.659-6.234c-1.507 1.37-2.466 3.357-2.671 5.412 0 2.192 1.507 4.658 3.904 4.658a5.241 5.241 0 0 0 3.357-1.507l-4.59-8.563Zm1.576-12.124c-1.576 0-2.809 1.301-2.809 2.877v.137c.069 2.055.754 3.973 1.918 5.617 1.987-1.37 3.22-3.631 3.357-6.028.068-1.37-1.028-2.535-2.466-2.603Z" fill="url(#g)"/><path d="M87.886 104.991v23.77h-2.397v-23.77h-3.905v-2.261h10.207v2.261h-3.905Z" fill="url(#h)"/><path d="M93.366 128.762v-18.153h1.713v18.153h-1.713Z" fill="url(#i)"/><path d="M98.024 128.762v-18.153h5.686v1.507h-3.973v6.371h3.836v1.507h-3.836v7.124h3.973v1.507h-5.686v.137Z" fill="url(#j)"/><path d="M109.463 112.185v16.577h-1.712v-16.577h-2.74v-1.507h7.124v1.507h-2.672Z" fill="url(#k)"/><path d="M114.464 127.255h4.59v1.507h-6.645l5.069-16.577h-4.521v-1.507h6.645l-5.138 16.577Z" fill="url(#l)"/><path d="M121.314 128.762v-18.153H127v1.507h-3.973v6.371h3.836v1.507h-3.836v7.124H127v1.507h-5.686v.137Z" fill="url(#m)"/><defs><linearGradient id="g" x1="-1.631" y1="115.764" x2="125.836" y2="115.764" gradientUnits="userSpaceOnUse"><stop stop-color="#1C8AE2"/><stop offset=".486" stop-color="#8B00B3"/><stop offset="1" stop-color="#6900B5"/></linearGradient><linearGradient id="a" x1="-1.631" y1="55.184" x2="125.836" y2="55.184" gradientUnits="userSpaceOnUse"><stop stop-color="#1C8AE2"/><stop offset=".486" stop-color="#8B00B3"/><stop offset="1" stop-color="#6900B5"/></linearGradient><linearGradient id="c" x1="-1.631" y1="115.786" x2="125.836" y2="115.786" gradientUnits="userSpaceOnUse"><stop stop-color="#1C8AE2"/><stop offset=".486" stop-color="#8B00B3"/><stop offset="1" stop-color="#6900B5"/></linearGradient><linearGradient id="d" x1="-1.631" y1="119.686" x2="125.836" y2="119.686" gradientUnits="userSpaceOnUse"><stop stop-color="#1C8AE2"/><stop offset=".486" stop-color="#8B00B3"/><stop offset="1" stop-color="#6900B5"/></linearGradient><linearGradient id="e" x1="-1.631" y1="119.686" x2="125.837" y2="119.686" gradientUnits="userSpaceOnUse"><stop stop-color="#1C8AE2"/><stop offset=".486" stop-color="#8B00B3"/><stop offset="1" stop-color="#6900B5"/></linearGradient><linearGradient id="f" x1="-1.632" y1="115.786" x2="125.836" y2="115.786" gradientUnits="userSpaceOnUse"><stop stop-color="#1C8AE2"/><stop offset=".486" stop-color="#8B00B3"/><stop offset="1" stop-color="#6900B5"/></linearGradient><linearGradient id="b" x1="-1.631" y1="55.159" x2="125.836" y2="55.159" gradientUnits="userSpaceOnUse"><stop stop-color="#1C8AE2"/><stop offset=".486" stop-color="#8B00B3"/><stop offset="1" stop-color="#6900B5"/></linearGradient><linearGradient id="h" x1="-1.631" y1="115.786" x2="125.836" y2="115.786" gradientUnits="userSpaceOnUse"><stop stop-color="#1C8AE2"/><stop offset=".486" stop-color="#8B00B3"/><stop offset="1" stop-color="#6900B5"/></linearGradient><linearGradient id="i" x1="-1.631" y1="119.686" x2="125.836" y2="119.686" gradientUnits="userSpaceOnUse"><stop stop-color="#1C8AE2"/><stop offset=".486" stop-color="#8B00B3"/><stop offset="1" stop-color="#6900B5"/></linearGradient><linearGradient id="j" x1="-1.631" y1="119.686" x2="125.836" y2="119.686" gradientUnits="userSpaceOnUse"><stop stop-color="#1C8AE2"/><stop offset=".486" stop-color="#8B00B3"/><stop offset="1" stop-color="#6900B5"/></linearGradient><linearGradient id="k" x1="-1.632" y1="119.686" x2="125.836" y2="119.686" gradientUnits="userSpaceOnUse"><stop stop-color="#1C8AE2"/><stop offset=".486" stop-color="#8B00B3"/><stop offset="1" stop-color="#6900B5"/></linearGradient><linearGradient id="l" x1="-1.632" y1="119.686" x2="125.836" y2="119.686" gradientUnits="userSpaceOnUse"><stop stop-color="#1C8AE2"/><stop offset=".486" stop-color="#8B00B3"/><stop offset="1" stop-color="#6900B5"/></linearGradient><linearGradient id="m" x1="-1.631" y1="119.686" x2="125.836" y2="119.686" gradientUnits="userSpaceOnUse"><stop stop-color="#1C8AE2"/><stop offset=".486" stop-color="#8B00B3"/><stop offset="1" stop-color="#6900B5"/></linearGradient></defs></svg>