<svg width="200" height="155" fill="none" xmlns="http://www.w3.org/2000/svg"><path d="M33.7 96.6V38l.3.1 14.4 9.3c.2.1.3.3.3.5v48.3c0 .4 0 .4-.4.4H33.7Z" fill="url(#a)"/><path d="M20.9 54.9v-8.7H22v50.6h-8.6l-.1-46.9 7.6 5Z" fill="url(#b)"/><path d="M79.3 87.4h-2.9c-.2 0-.3-.1-.4-.3l-3.7-11.6c-.1-.3-.2-.4-.5-.4h-2.3c-.3 0-.3.1-.3.3v11.4c0 .5 0 .4-.4.4h-2.4c-.3 0-.3 0-.3-.3V59.6h6.3c1 0 2 .2 2.9.6 1.5.7 2.6 2 3 3.5.4 1.5.6 3.2.4 4.8-.1.8-.2 1.7-.4 2.5-.4 1.5-1.4 2.8-2.8 3.4l-.3.1c1.3 4.3 2.7 8.6 4.1 12.9Zm-10.1-20V72c0 .3 0 .3.3.3H72c1.7.1 3.1-1.1 3.3-2.7.2-1.3.2-2.7 0-4-.1-1.8-1.7-3.2-3.5-3.1h-2.4c-.3 0-.3 0-.3.4v4.5h.1Z" fill="url(#c)"/><path d="M150.6 87.4h-2.9c-.2 0-.4-.1-.4-.3-1.1-3.2-2.1-6.4-3.1-9.5-.2-.7-.5-1.4-.7-2.2 0-.1-.1-.2-.3-.2h-2.4c-.4 0-.4 0-.4.4V87c0 .4 0 .3-.3.3h-2.5c-.3 0-.3 0-.3-.3V59.6h6.4c1 0 2 .2 2.9.5 1.5.6 2.6 1.9 3 3.5.5 1.6.6 3.2.5 4.9-.1.8-.2 1.7-.4 2.5-.4 1.5-1.4 2.8-2.8 3.4l-.3.1c1.1 4.3 2.6 8.6 4 12.9Zm-10.1-20V72c0 .2 0 .3.3.3h2.6c1.6.1 3.1-1.1 3.3-2.7.3-1.3.3-2.7 0-4-.1-1.8-1.7-3.2-3.6-3h-2.3c-.4 0-.4 0-.4.4v4.4h.1Z" fill="url(#d)"/><path d="M153.7 73.9v-7.7c0-1.3.3-2.7.9-3.9.8-1.7 2.4-2.8 4.2-2.9 1.2-.2 2.3-.1 3.5.1 2 .4 3.6 2 3.9 4 .2 1 .3 2 .3 3v14.2c0 1.4-.3 2.7-.9 4-.6 1.3-1.8 2.3-3.2 2.6-1.5.4-3.1.4-4.6 0-1.8-.4-3.2-1.7-3.7-3.5-.3-.9-.4-1.8-.4-2.8v-7.1Zm9.5-.5v-6.2c0-.7 0-1.3-.1-2 0-1.5-1.1-2.8-2.7-3-1.2-.2-2.5.4-3 1.6-.1.2-.2.4-.3.7-.3 1-.4 2-.3 3v13.4c0 .5.1.9.1 1.4.4 1.7 2.1 2.8 3.8 2.4 1-.2 1.8-.9 2.2-1.9.2-.6.3-1.1.3-1.7.1-2.7.1-5.2 0-7.7Z" fill="url(#e)"/><path d="M170.4 59.7h3.2v21c0 .6.1 1.3.2 1.9.4 1.5 1.9 2.5 3.5 2.2 1.4-.2 2.4-1.2 2.6-2.6.1-.7.2-1.3.2-2V60.1l-.1-.4h3.2v21c0 1.4-.3 2.9-.9 4.2-.7 1.5-2.1 2.5-3.7 2.7-1.5.3-3.1.2-4.6-.3-1.6-.5-2.8-1.9-3.2-3.5-.3-.9-.4-1.9-.4-2.9V60" fill="url(#f)"/><path d="m133.1 65.5-3.1.7c0-.5-.1-1.1-.2-1.6-.1-.4-.2-.8-.4-1.1-.4-.7-1-1.1-1.8-1.1-.4-.1-.9-.1-1.3 0-.8.1-1.5.7-1.8 1.4-.4.8-.6 1.6-.6 2.5v15c0 .7.2 1.5.5 2.1.6 1.1 1.8 1.6 3.1 1.4.2 0 .5-.1.7-.1 1.2-.3 2-1.4 2-2.6v-6.8H127v-2.7h6.4v9.5c0 3-2.3 5.4-5.2 5.7-1.1.2-2.3.1-3.4-.2-1.9-.5-3.4-2-3.7-3.9-.2-.7-.3-1.4-.3-2.1V66.7c0-1.4.3-2.8.9-4.1.8-1.7 2.4-2.8 4.2-2.9 1.1-.1 2.1-.1 3.2.2 1.5.3 2.8 1.3 3.3 2.7.4.7.6 1.8.7 2.9Z" fill="url(#g)"/><path d="M190.3 76.3v11.1h-2.8c-.3 0-.3 0-.3-.3V59.6h5.9c.9 0 1.9.1 2.8.4 1.9.6 3.3 2.2 3.6 4.1.5 2.4.5 5 0 7.4-.5 2.4-2.5 4.2-4.9 4.5-1.3.1-2.6.2-3.9.2l-.4.1Zm0-13.8v10.8c1.2 0 2.3 0 3.4-.2 1.4-.1 2.6-1.3 2.8-2.7.3-1.7.3-3.4 0-5.1-.2-1.6-1.5-2.8-3.1-2.8-.9 0-1.9.1-3.1 0Z" fill="url(#h)"/><path d="M106.5 66.2c-.1-.6-.2-1.2-.3-1.7-.2-1.2-1.3-2.1-2.6-2.1h-1.1c-1.1.2-2.1 1-2.3 2.2-.3 1.2-.4 2.5-.1 3.8.1.6.5 1.2 1 1.6.8.7 1.7 1.2 2.6 1.6 1 .4 2 .9 2.9 1.4 1.5.7 2.5 2.1 2.8 3.7.1.6.2 1.3.2 1.9.2 1.7 0 3.5-.5 5.1-.6 2.2-2.5 3.8-4.8 4-1.3.2-2.6.1-3.9-.3-2-.6-3.5-2.3-3.8-4.4 0-.4-.1-.9-.2-1.3 0-.2 0-.3.2-.3l2.9-.6c0 .4 0 .8.1 1.2.2 1.7 1.7 2.9 3.4 2.8.1 0 .2 0 .3-.1.5 0 .9-.1 1.4-.3.8-.4 1.4-1.2 1.5-2.1.2-1.5.2-3 0-4.4-.1-.9-.7-1.8-1.6-2.2-.6-.3-1.3-.6-1.9-.9-1.3-.5-2.6-1.3-3.7-2.1-1.4-1.1-2.3-2.8-2.3-4.6-.1-1.4 0-2.8.4-4.2.6-2.3 2.7-4 5.1-4.2 1.1-.2 2.1-.1 3.2.2 2.2.5 3.8 2.3 4 4.5 0 .4 0 .7.1 1.1 0 .1-.1.2-.1.2-1 .1-2 .3-2.9.5Z" fill="url(#i)"/><path d="M82.6 59.6h11.9v2.5c0 .2 0 .3-.3.3h-8.4v9.4h7.6v2.5c0 .3 0 .3-.4.3h-7.2v9.8h8.7v2.8H82.6V59.6Z" fill="url(#j)"/><path d="M58.5 59.6h3.1v27.7h-3.1V59.6Z" fill="url(#k)"/><path d="M32.1 96.8H31V39.4h1.1v57.4Z" fill="url(#l)"/><path d="M29.6 96.8h-1.1V41.5h1.1v55.3Z" fill="url(#m)"/><path d="M24.5 96.8h-1.1V44.6h1.1v52.2Z" fill="url(#n)"/><path d="M26 96.8V43.1h.9c.1 0 .1.1.1.1V96.6s-.1.1-.2.1l-.8.1Z" fill="url(#o)"/><path d="M12 96.8h-1.1V52.2c0-.3 0-.3.3-.3.7 0 .7 0 .7.7l.1 44.2Z" fill="url(#p)"/><path d="M8.2 53.6h1v43.2h-1V53.6Z" fill="url(#q)"/><path d="M5.5 55.5h1v41.3h-1V55.5Z" fill="url(#r)"/><path d="M2.8 57.4h1v39.5h-1V57.4Z" fill="url(#s)"/><path d="M1 96.8H0V59.1h1v37.7Z" fill="url(#t)"/><path d="M161.7 96.8c-.7.1-.7.1-.7-.6v-5.6h.7s.2.1.2.2c.6 1.1 1.2 2.1 1.8 3.2 0 .1.1.2.2.3l.2-.3c.6-1.1 1.2-2.2 1.8-3.2.2-.2.6-.3.8-.2v5.9c0 .2 0 .2-.2.2-.7 0-.5 0-.5-.5v-4.1l-.2.3-1.6 2.7c-.1.2-.3.3-.5.2-.1 0-.1-.1-.2-.2l-1.6-2.7c-.1-.1-.1-.2-.2-.2v4.6Z" fill="url(#u)"/><path d="M124.8 95.399v-4.6h.7v5.8c0 .3 0 .3-.3.3s-.5-.1-.6-.3c-.8-1.4-1.6-2.7-2.5-4.1 0-.1-.1-.1-.2-.2v4.3c0 .3 0 .4-.3.3h-.4v-6.1h.6c.1 0 .2.1.2.2l2.6 4.3s.1.1.2.1Z" fill="url(#v)"/><path d="M79 95.4V91c0-.3.1-.4.3-.3h.3c.1 0 .1.1.2.2V96.5c0 .3-.1.3-.3.3-.3 0-.5-.1-.6-.3l-2.5-4.1c0-.1-.1-.1-.2-.2v4.3c0 .2 0 .3-.3.3h-.1c-.4 0-.4 0-.4-.3V91c0-.2.1-.3.3-.3.3 0 .5.1.7.4.8 1.4 1.6 2.7 2.5 4.1l.1.2Z" fill="url(#w)"/><path d="M190.6 95.4v-4.3c0-.3 0-.4.3-.3h.4v6.1c-.5.2-.7.1-1-.3l-2.5-4.1c0-.1-.1-.1-.2-.2v4.3c0 .2 0 .3-.3.3-.4 0-.4 0-.4-.3V91c0-.3 0-.2.2-.2.3-.1.6.1.7.4.8 1.4 1.6 2.7 2.5 4.1.2-.1.3.1.3.1Z" fill="url(#x)"/><path d="M156.4 93.7v1.5c.1.8-.4 1.5-1.2 1.6h-.1c-.6.1-1.1.1-1.7 0-.7-.1-1.1-.7-1.1-1.4v-3.1c-.1-.8.5-1.5 1.3-1.6h.1c.6-.2 1.2-.2 1.7 0 .6.1 1 .7 1 1.3v1.7Zm-.8 0v-1.6c0-.3-.1-.6-.4-.8-.5-.3-1.1-.3-1.6 0-.4.2-.6.7-.6 1.2v2.7c-.1.6.3 1.1.8 1.2H154.7c.5 0 .9-.5.9-1 .1-.6.1-1.1 0-1.7Z" fill="url(#y)"/><path d="M66.8 93.8v-1.5c-.1-.8.5-1.5 1.3-1.6h.1c.6-.1 1.2-.1 1.8.1.5.1.9.6.9 1.2v3.5c0 .6-.3 1.1-.9 1.3-.7.2-1.4.2-2 0-.6-.1-1-.7-1-1.3v-1.6l-.2-.1Zm3.3 0V92c0-.5-.3-.9-.7-.9-.3-.1-.6-.1-.8 0-.6 0-1 .5-1 1.1v3.2c0 .4.2.8.7.9.3.1.7.1 1 0 .5 0 .9-.4.9-.9v-1.6h-.1Z" fill="url(#z)"/><path d="M92.5 90.799c.7 0 .7 0 .7.6v3.9c-.1.6.3 1.1.8 1.2h1c.5-.1.8-.6.7-1v-4.6h.6s.1.2.1.3v4.2c.1.7-.4 1.4-1.1 1.6h-.1c-.6.2-1.3.2-1.9 0-.6-.1-1-.7-1-1.3v-4.5c.2-.3.2-.3.2-.4Z" fill="url(#A)"/><path d="m134 92-.7.1c0-.4-.3-.7-.7-.8-.5-.2-1-.1-1.4.3-.2.2-.3.4-.3.7v3.4c0 .4.2.7.6.8.5.2 1 .2 1.4 0 .3-.1.5-.4.5-.7v-1.2c0-.4 0-.3-.3-.2h-.8v-.5h1.8v1.6c0 1-.3 1.4-1.3 1.6-.6.2-1.2.2-1.7 0-.6-.1-1-.7-1-1.3v-3.2c-.1-.8.5-1.5 1.3-1.6h.3c.5 0 1 0 1.5.1.5-.1.8.4.8.9Z" fill="url(#B)"/><path d="M183 96.8h-.6c-.1 0-.1-.1-.2-.2-.1-.4-.2-.7-.3-1.1 0-.1-.1-.2-.3-.2h-1.8c-.1 0-.3.1-.3.2 0 .3-.2.7-.3 1-.1.3-.2.3-.4.3h-.4l.8-2.5c.3-1.1.7-2.2 1.1-3.3 0-.2.1-.3.4-.3h.2c.2 0 .3.1.3.3l1.6 4.8.2 1Zm-1.3-1.9-1-3.2-1 3.2h2Z" fill="url(#C)"/><path d="M172 94.3v2.3c0 .3 0 .3-.3.3-.6 0-.5 0-.5-.5v-5.3c0-.3 0-.4.3-.3.8 0 1.6 0 2.3.1 1.1.1 1.4.8 1.4 1.9 0 .9-.7 1.6-1.6 1.6h-.1c-.4-.1-1-.1-1.5-.1Zm0-.4c.6 0 1.1 0 1.6-.1.4 0 .8-.3.9-.8v-1c0-.3-.2-.5-.5-.6-.6-.2-1.3-.3-2-.2v2.7Z" fill="url(#D)"/><path d="M87.5 92.1c0-.5-.4-.9-1-.9h-.9c-.4.1-.7.4-.7.8-.1.4.1.8.5 1 .4.2.9.3 1.3.5.3.1.7.3 1 .4.3.2.5.5.5.9v.5c.1.8-.4 1.5-1.2 1.6h-.1c-.7.2-1.4.1-2-.1-.4-.1-.7-.5-.8-.9 0 0 0-.2.1-.2s.4 0 .6-.1c.1.6.6 1 1.1.9h.8c.3-.1.6-.3.7-.7v-.9c0-.3-.2-.5-.5-.5-.3-.1-.7-.2-1-.4-.4-.1-.7-.3-1.1-.5-.7-.4-.9-1.3-.5-1.9.1-.2.3-.3.5-.5.4-.2.8-.3 1.2-.3.5-.1 1.1 0 1.6.3.3.2.6.5.7.8 0 .1 0 .2-.2.2-.2-.1-.4-.1-.6 0Z" fill="url(#E)"/><path d="m62.6 92-.7.1c-.1-.7-.8-1.1-1.5-1-.1 0-.2.1-.3.1-.4.1-.7.4-.7.9v3.2c0 .9.4 1.3 1.3 1.2.9 0 1.1-.3 1.2-1l.7.1c0 .4-.2.8-.6 1-.9.4-1.9.4-2.7 0-.4-.2-.7-.6-.7-1.1v-3.3c0-.7.5-1.4 1.2-1.5.6-.2 1.2-.2 1.8 0 .7.2 1 .7 1 1.3Z" fill="url(#F)"/><path d="m148.1 92-.7.1c-.2-.7-.9-1.1-1.6-1-.1 0-.2.1-.3.1-.4.2-.6.5-.6.9v3.3c0 .5.3.9.8.9h.9c.5 0 .6-.2.8-.9h.7c0 .4-.2.8-.6 1-.5.3-1 .4-1.6.3-.3 0-.6-.1-1-.2-.5-.2-.8-.7-.8-1.2v-3.2c-.1-.8.5-1.5 1.3-1.6.6-.1 1.2-.1 1.8.1.6.2.9.8.9 1.4Z" fill="url(#G)"/><path d="M197.3 96.8v-1.2c.1-1-.1-1.9-.7-2.7-.4-.7-.7-1.4-1.1-2.2h.7l.2.2c.4.8.7 1.6 1.1 2.4l.1.3c.1-.1.1-.2.2-.3.4-.7.7-1.5 1.1-2.3 0-.2.3-.4.5-.3h.4c0 .1-.1.2-.1.3l-1.6 3c-.1.2-.1.3-.1.5v2.1c0 .2 0 .3-.3.3l-.4-.1Z" fill="url(#H)"/><path d="M107.7 91.199c-.1-.4 0-.4.3-.4h3.6v.4h-1.2c-.4 0-.4 0-.4.4v5c0 .3 0 .4-.3.3h-.2c-.2 0-.2 0-.2-.2v-5.1c0-.3 0-.3-.3-.3s-1-.1-1.3-.1Z" fill="url(#I)"/><path d="M101.1 90.7h.7v5.6h2.7c.1.4.1.5-.3.5h-2.9c-.2 0-.3 0-.3-.3v-5.7c.1.1.1 0 .1-.1Z" fill="url(#J)"/><path d="M115.7 90.7h.8v5.8c0 .3 0 .3-.3.3-.6 0-.5 0-.5-.5v-5.6Z" fill="url(#K)"/><defs><linearGradient id="s" x1="-.156" y1="77.09" x2="198.36" y2="77.09" gradientUnits="userSpaceOnUse"><stop stop-color="#1C8AE2"/><stop offset=".486" stop-color="#8B00B3"/><stop offset="1" stop-color="#6900B5"/></linearGradient><linearGradient id="a" x1="-.155" y1="67.356" x2="198.361" y2="67.356" gradientUnits="userSpaceOnUse"><stop stop-color="#1C8AE2"/><stop offset=".486" stop-color="#8B00B3"/><stop offset="1" stop-color="#6900B5"/></linearGradient><linearGradient id="c" x1="-.156" y1="73.502" x2="198.361" y2="73.502" gradientUnits="userSpaceOnUse"><stop stop-color="#1C8AE2"/><stop offset=".486" stop-color="#8B00B3"/><stop offset="1" stop-color="#6900B5"/></linearGradient><linearGradient id="d" x1="-.155" y1="73.502" x2="198.36" y2="73.502" gradientUnits="userSpaceOnUse"><stop stop-color="#1C8AE2"/><stop offset=".486" stop-color="#8B00B3"/><stop offset="1" stop-color="#6900B5"/></linearGradient><linearGradient id="e" x1="-.154" y1="73.528" x2="198.361" y2="73.528" gradientUnits="userSpaceOnUse"><stop stop-color="#1C8AE2"/><stop offset=".486" stop-color="#8B00B3"/><stop offset="1" stop-color="#6900B5"/></linearGradient><linearGradient id="f" x1="-.156" y1="73.682" x2="198.361" y2="73.682" gradientUnits="userSpaceOnUse"><stop stop-color="#1C8AE2"/><stop offset=".486" stop-color="#8B00B3"/><stop offset="1" stop-color="#6900B5"/></linearGradient><linearGradient id="g" x1="-.155" y1="73.531" x2="198.36" y2="73.531" gradientUnits="userSpaceOnUse"><stop stop-color="#1C8AE2"/><stop offset=".486" stop-color="#8B00B3"/><stop offset="1" stop-color="#6900B5"/></linearGradient><linearGradient id="h" x1="-.154" y1="73.5" x2="198.361" y2="73.5" gradientUnits="userSpaceOnUse"><stop stop-color="#1C8AE2"/><stop offset=".486" stop-color="#8B00B3"/><stop offset="1" stop-color="#6900B5"/></linearGradient><linearGradient id="i" x1="-.155" y1="73.571" x2="198.361" y2="73.571" gradientUnits="userSpaceOnUse"><stop stop-color="#1C8AE2"/><stop offset=".486" stop-color="#8B00B3"/><stop offset="1" stop-color="#6900B5"/></linearGradient><linearGradient id="j" x1="-.156" y1="73.461" x2="198.36" y2="73.461" gradientUnits="userSpaceOnUse"><stop stop-color="#1C8AE2"/><stop offset=".486" stop-color="#8B00B3"/><stop offset="1" stop-color="#6900B5"/></linearGradient><linearGradient id="k" x1="-.155" y1="73.461" x2="198.36" y2="73.461" gradientUnits="userSpaceOnUse"><stop stop-color="#1C8AE2"/><stop offset=".486" stop-color="#8B00B3"/><stop offset="1" stop-color="#6900B5"/></linearGradient><linearGradient id="l" x1="-.155" y1="68.126" x2="198.357" y2="68.126" gradientUnits="userSpaceOnUse"><stop stop-color="#1C8AE2"/><stop offset=".486" stop-color="#8B00B3"/><stop offset="1" stop-color="#6900B5"/></linearGradient><linearGradient id="m" x1="-.155" y1="69.182" x2="198.357" y2="69.182" gradientUnits="userSpaceOnUse"><stop stop-color="#1C8AE2"/><stop offset=".486" stop-color="#8B00B3"/><stop offset="1" stop-color="#6900B5"/></linearGradient><linearGradient id="n" x1="-.155" y1="70.73" x2="198.357" y2="70.73" gradientUnits="userSpaceOnUse"><stop stop-color="#1C8AE2"/><stop offset=".486" stop-color="#8B00B3"/><stop offset="1" stop-color="#6900B5"/></linearGradient><linearGradient id="o" x1="-.155" y1="69.983" x2="198.361" y2="69.983" gradientUnits="userSpaceOnUse"><stop stop-color="#1C8AE2"/><stop offset=".486" stop-color="#8B00B3"/><stop offset="1" stop-color="#6900B5"/></linearGradient><linearGradient id="p" x1="-.155" y1="74.39" x2="198.357" y2="74.39" gradientUnits="userSpaceOnUse"><stop stop-color="#1C8AE2"/><stop offset=".486" stop-color="#8B00B3"/><stop offset="1" stop-color="#6900B5"/></linearGradient><linearGradient id="q" x1="-.155" y1="75.216" x2="198.361" y2="75.216" gradientUnits="userSpaceOnUse"><stop stop-color="#1C8AE2"/><stop offset=".486" stop-color="#8B00B3"/><stop offset="1" stop-color="#6900B5"/></linearGradient><linearGradient id="r" x1="-.155" y1="76.185" x2="198.361" y2="76.185" gradientUnits="userSpaceOnUse"><stop stop-color="#1C8AE2"/><stop offset=".486" stop-color="#8B00B3"/><stop offset="1" stop-color="#6900B5"/></linearGradient><linearGradient id="b" x1="-.156" y1="71.515" x2="198.359" y2="71.515" gradientUnits="userSpaceOnUse"><stop stop-color="#1C8AE2"/><stop offset=".486" stop-color="#8B00B3"/><stop offset="1" stop-color="#6900B5"/></linearGradient><linearGradient id="t" x1="-.155" y1="77.987" x2="198.361" y2="77.987" gradientUnits="userSpaceOnUse"><stop stop-color="#1C8AE2"/><stop offset=".486" stop-color="#8B00B3"/><stop offset="1" stop-color="#6900B5"/></linearGradient><linearGradient id="u" x1="-.158" y1="93.792" x2="198.361" y2="93.792" gradientUnits="userSpaceOnUse"><stop stop-color="#1C8AE2"/><stop offset=".486" stop-color="#8B00B3"/><stop offset="1" stop-color="#6900B5"/></linearGradient><linearGradient id="v" x1="-.153" y1="93.767" x2="198.359" y2="93.767" gradientUnits="userSpaceOnUse"><stop stop-color="#1C8AE2"/><stop offset=".486" stop-color="#8B00B3"/><stop offset="1" stop-color="#6900B5"/></linearGradient><linearGradient id="w" x1="-.156" y1="93.763" x2="198.362" y2="93.763" gradientUnits="userSpaceOnUse"><stop stop-color="#1C8AE2"/><stop offset=".486" stop-color="#8B00B3"/><stop offset="1" stop-color="#6900B5"/></linearGradient><linearGradient id="x" x1="-.156" y1="93.795" x2="198.361" y2="93.795" gradientUnits="userSpaceOnUse"><stop stop-color="#1C8AE2"/><stop offset=".486" stop-color="#8B00B3"/><stop offset="1" stop-color="#6900B5"/></linearGradient><linearGradient id="y" x1="-.155" y1="93.79" x2="198.36" y2="93.79" gradientUnits="userSpaceOnUse"><stop stop-color="#1C8AE2"/><stop offset=".486" stop-color="#8B00B3"/><stop offset="1" stop-color="#6900B5"/></linearGradient><linearGradient id="z" x1="-.155" y1="93.83" x2="198.36" y2="93.83" gradientUnits="userSpaceOnUse"><stop stop-color="#1C8AE2"/><stop offset=".486" stop-color="#8B00B3"/><stop offset="1" stop-color="#6900B5"/></linearGradient><linearGradient id="A" x1="-.155" y1="93.857" x2="198.36" y2="93.857" gradientUnits="userSpaceOnUse"><stop stop-color="#1C8AE2"/><stop offset=".486" stop-color="#8B00B3"/><stop offset="1" stop-color="#6900B5"/></linearGradient><linearGradient id="B" x1="-.156" y1="93.855" x2="198.36" y2="93.855" gradientUnits="userSpaceOnUse"><stop stop-color="#1C8AE2"/><stop offset=".486" stop-color="#8B00B3"/><stop offset="1" stop-color="#6900B5"/></linearGradient><linearGradient id="C" x1="-.154" y1="93.783" x2="198.361" y2="93.783" gradientUnits="userSpaceOnUse"><stop stop-color="#1C8AE2"/><stop offset=".486" stop-color="#8B00B3"/><stop offset="1" stop-color="#6900B5"/></linearGradient><linearGradient id="D" x1="-.156" y1="93.763" x2="198.36" y2="93.763" gradientUnits="userSpaceOnUse"><stop stop-color="#1C8AE2"/><stop offset=".486" stop-color="#8B00B3"/><stop offset="1" stop-color="#6900B5"/></linearGradient><linearGradient id="E" x1="-.156" y1="93.776" x2="198.36" y2="93.776" gradientUnits="userSpaceOnUse"><stop stop-color="#1C8AE2"/><stop offset=".486" stop-color="#8B00B3"/><stop offset="1" stop-color="#6900B5"/></linearGradient><linearGradient id="F" x1="-.156" y1="93.78" x2="198.36" y2="93.78" gradientUnits="userSpaceOnUse"><stop stop-color="#1C8AE2"/><stop offset=".486" stop-color="#8B00B3"/><stop offset="1" stop-color="#6900B5"/></linearGradient><linearGradient id="G" x1="-.156" y1="93.676" x2="198.36" y2="93.676" gradientUnits="userSpaceOnUse"><stop stop-color="#1C8AE2"/><stop offset=".486" stop-color="#8B00B3"/><stop offset="1" stop-color="#6900B5"/></linearGradient><linearGradient id="H" x1="-.158" y1="93.751" x2="198.361" y2="93.751" gradientUnits="userSpaceOnUse"><stop stop-color="#1C8AE2"/><stop offset=".486" stop-color="#8B00B3"/><stop offset="1" stop-color="#6900B5"/></linearGradient><linearGradient id="I" x1="-.154" y1="93.773" x2="198.358" y2="93.773" gradientUnits="userSpaceOnUse"><stop stop-color="#1C8AE2"/><stop offset=".486" stop-color="#8B00B3"/><stop offset="1" stop-color="#6900B5"/></linearGradient><linearGradient id="J" x1="-.156" y1="93.779" x2="198.361" y2="93.779" gradientUnits="userSpaceOnUse"><stop stop-color="#1C8AE2"/><stop offset=".486" stop-color="#8B00B3"/><stop offset="1" stop-color="#6900B5"/></linearGradient><linearGradient id="K" x1="-.145" y1="93.779" x2="198.353" y2="93.779" gradientUnits="userSpaceOnUse"><stop stop-color="#1C8AE2"/><stop offset=".486" stop-color="#8B00B3"/><stop offset="1" stop-color="#6900B5"/></linearGradient></defs></svg>