<svg width="200" height="155" fill="none" xmlns="http://www.w3.org/2000/svg"><g clip-path="url(#a)"><path d="M82.5 15 65 25.2h35L82.5 15Z" fill="url(#b)"/><path d="m65 45.401 17.5 10.1-17.5-30.3v20.2Z" fill="url(#c)"/><path d="M100 45.401v-20.2l-17.5 30.3 17.5-10.1Z" fill="url(#d)"/><path d="M117.6 55.5 100 45.4h35.1l-17.5 10.1Z" fill="url(#e)"/><path d="M100 25.2 117.6 15 100 45.4V25.2Z" fill="url(#f)"/><path d="M135.101 25.1v20.3l-17.5-30.4 17.5 10.1Z" fill="url(#g)"/><path d="m49.1 63.9-12 30.4h8.4l8.2-22.5 8.1 22.5h8.5L58.2 63.9h-9.1Z" fill="url(#h)"/><path d="M117 63.201c-9.8 0-16.899 6.3-16.899 15.9 0 9.6 6.999 15.9 16.899 15.9 9.9 0 16.901-6.1 16.901-15.9s-7.001-15.9-16.901-15.9Zm0 25.1c-5.2 0-8.899-3.8-8.899-9.2 0-5.4 3.699-9.2 8.899-9.2 5.2 0 8.901 3.6 8.901 9.2s-3.601 9.2-8.901 9.2Z" fill="url(#i)"/><path d="M13.2 63.9 0 94.3h9l12.5-7.2H11.3l6.1-15.7 8.9 22.9h8.5L21.5 63.9h-8.3Z" fill="url(#j)"/><path d="M85.4 63.9H72.8v30.4h8V70.6h4c2.9 0 5.3 1.5 5.3 4.6 0 3.2-2.5 4.6-5.3 4.6h-2.2l3.6 6.1c5.9 0 11.5-3.7 11.5-11.2 0-7.5-5.5-10.8-12.3-10.8Z" fill="url(#k)"/><path d="M186.9 63.9h-8.3l-13.3 30.4h8.5l8.9-22.9 6.1 15.7h-10.2l12.5 7.2h9l-13.2-30.4Z" fill="url(#l)"/><path d="M153.2 69.9c2.7 0 5.4.7 7.8 2l2.601-6c-3.1-1.8-6.7-2.7-10.3-2.8-10.9 0-16.7 7.7-16.7 15.9s5.8 15.9 16.7 15.9c3.6 0 7.1-1 10.3-2.8l-2.601-6c-2.4 1.3-5.1 2-7.8 2-4.8-.1-8.6-4.2-8.5-9v-.2c-.2-4.8 3.5-8.9 8.3-9.2 0 .2.1.2.2.2Z" fill="url(#m)"/></g><defs><linearGradient id="h" x1="-.773" y1="79.113" x2="194.449" y2="79.113" gradientUnits="userSpaceOnUse"><stop stop-color="#1C8AE2"/><stop offset=".486" stop-color="#8B00B3"/><stop offset="1" stop-color="#6900B5"/></linearGradient><linearGradient id="b" x1="-.774" y1="20.098" x2="194.449" y2="20.098" gradientUnits="userSpaceOnUse"><stop stop-color="#1C8AE2"/><stop offset=".486" stop-color="#8B00B3"/><stop offset="1" stop-color="#6900B5"/></linearGradient><linearGradient id="d" x1="-.774" y1="40.345" x2="194.449" y2="40.345" gradientUnits="userSpaceOnUse"><stop stop-color="#1C8AE2"/><stop offset=".486" stop-color="#8B00B3"/><stop offset="1" stop-color="#6900B5"/></linearGradient><linearGradient id="e" x1="-.774" y1="50.464" x2="194.449" y2="50.464" gradientUnits="userSpaceOnUse"><stop stop-color="#1C8AE2"/><stop offset=".486" stop-color="#8B00B3"/><stop offset="1" stop-color="#6900B5"/></linearGradient><linearGradient id="f" x1="-.775" y1="30.218" x2="194.449" y2="30.218" gradientUnits="userSpaceOnUse"><stop stop-color="#1C8AE2"/><stop offset=".486" stop-color="#8B00B3"/><stop offset="1" stop-color="#6900B5"/></linearGradient><linearGradient id="g" x1="-.773" y1="30.218" x2="194.449" y2="30.218" gradientUnits="userSpaceOnUse"><stop stop-color="#1C8AE2"/><stop offset=".486" stop-color="#8B00B3"/><stop offset="1" stop-color="#6900B5"/></linearGradient><linearGradient id="c" x1="-.774" y1="40.345" x2="194.449" y2="40.345" gradientUnits="userSpaceOnUse"><stop stop-color="#1C8AE2"/><stop offset=".486" stop-color="#8B00B3"/><stop offset="1" stop-color="#6900B5"/></linearGradient><linearGradient id="i" x1="-.774" y1="79.107" x2="194.45" y2="79.107" gradientUnits="userSpaceOnUse"><stop stop-color="#1C8AE2"/><stop offset=".486" stop-color="#8B00B3"/><stop offset="1" stop-color="#6900B5"/></linearGradient><linearGradient id="j" x1="-.774" y1="79.113" x2="194.449" y2="79.113" gradientUnits="userSpaceOnUse"><stop stop-color="#1C8AE2"/><stop offset=".486" stop-color="#8B00B3"/><stop offset="1" stop-color="#6900B5"/></linearGradient><linearGradient id="k" x1="-.774" y1="79.113" x2="194.448" y2="79.113" gradientUnits="userSpaceOnUse"><stop stop-color="#1C8AE2"/><stop offset=".486" stop-color="#8B00B3"/><stop offset="1" stop-color="#6900B5"/></linearGradient><linearGradient id="l" x1="-.774" y1="79.113" x2="194.449" y2="79.113" gradientUnits="userSpaceOnUse"><stop stop-color="#1C8AE2"/><stop offset=".486" stop-color="#8B00B3"/><stop offset="1" stop-color="#6900B5"/></linearGradient><linearGradient id="m" x1="-.773" y1="79.112" x2="194.449" y2="79.112" gradientUnits="userSpaceOnUse"><stop stop-color="#1C8AE2"/><stop offset=".486" stop-color="#8B00B3"/><stop offset="1" stop-color="#6900B5"/></linearGradient><clipPath id="a"><path fill="#fff" d="M0 0h200v155H0z"/></clipPath></defs></svg>