<svg xmlns="http://www.w3.org/2000/svg" xml:space="preserve" id="Слой_1" x="0" y="0" style="enable-background:new 0 0 2459 803.2904053" version="1.1" viewBox="0 0 2459 803.29"><style>.st0{fill:#fff}</style><path d="M0 449.315V4.958h102.723c34.441 0 60.388 9.405 77.814 28.198 17.435 18.802 26.148 46.071 26.148 81.807v57.636c0 35.744-8.713 62.959-26.13 81.651-17.416 18.702-43.336 28.044-77.75 28.044H69.72v167.02H0zM69.721 219.08h33.157c11.565 0 20.141-3.2 25.719-9.606 5.578-6.398 8.367-17.244 8.367-32.537v-66.622c0-15.284-2.79-26.075-8.367-32.382-5.578-6.298-14.154-9.451-25.72-9.451H69.722V219.08zM236.432 342.719V111.554c0-35.526 9.15-63.004 27.46-82.426C282.194 9.715 308.424 0 342.565 0s60.315 9.715 78.516 29.128c18.2 19.422 27.305 46.9 27.305 82.426v231.165c0 35.535-9.105 63.013-27.305 82.426-18.2 19.421-44.376 29.128-78.516 29.128s-60.37-9.707-78.671-29.128c-18.31-19.413-27.46-46.891-27.46-82.426zm69.722 4.338c0 29.337 12.13 44.002 36.41 44.002 24.06 0 36.1-14.665 36.1-44.002V107.216c0-29.128-12.04-43.692-36.1-43.692-24.28 0-36.41 14.564-36.41 43.692v239.84zM477.823 4.958h69.721l37.477 350.265L618.195 4.958h69.721l34.67 353.318L758.877 4.958h60.735l-49.07 444.357h-92.906l-26.348-236.743-26.34 236.743h-98.02L477.824 4.958zM850.91 449.315V4.958h190.26v63.524H920.63V192.43h95.75v63.214h-95.75V385.79h120.54v63.524H850.91zM1084.243 449.315V4.958h105.201c35.681 0 61.83 8.367 78.435 25.1 16.605 16.733 24.908 42.452 24.908 77.158v35.015c0 45.66-15.211 75.719-45.633 90.173 16.65 7.027 28.526 18.392 35.617 34.086 7.09 15.703 10.636 35.845 10.636 60.425v68.482c0 24.59 2.169 42.562 6.507 53.918h-69.721c-1.66-5.159-2.79-9.032-3.409-11.62-.62-2.58-1.294-7.538-2.014-14.874-.73-7.328-1.085-16.679-1.085-28.044v-69.721c0-20.452-3.618-35.016-10.845-43.692-7.237-8.676-18.802-13.015-34.706-13.015h-24.17v180.966h-69.721zm69.721-244.18h27.269c13.835 0 24.27-3.563 31.297-10.69 7.018-7.127 10.536-19.258 10.536-36.41v-43.692c0-15.904-2.79-27.524-8.367-34.86-5.578-7.328-14.564-11.001-26.959-11.001h-33.776v136.653zM1436.877 449.315V4.958h96.845l51.611 316.498 47.885-316.498h100.517v444.357h-69.721V130.766l-48.195 318.549h-66.148l-52.059-313.463v313.463h-60.735zM1780.526 449.315V4.958h190.261v63.524h-120.54V192.43h95.75v63.214h-95.75V385.79h120.54v63.524h-190.261zM1995.577 449.315l70.715-444.357H2174l70.714 444.357h-69.721l-12.14-80.567h-85.479l-12.076 80.567h-69.721zm90.865-140.992h67.288L2119.99 84.64l-33.548 223.682zM2271.983 449.315V4.958h69.721v380.833h114.963v63.524h-184.684zM21.472 778.891H93.3v19.45H.92V643.63h91.275v19.45H21.472v47.52h65.201v19.23h-65.2v49.06zM264.193 778.007c-15.247-15.475-22.766-34.478-22.766-57.016 0-22.548 7.519-41.56 22.766-57.026 15.257-15.466 34.706-23.204 58.129-23.204 28.29 0 53.48 14.582 66.75 37.567l-17.909 10.39c-8.84-17.015-27.624-28.07-48.841-28.07-17.9 0-32.491 5.75-43.765 17.243-11.265 11.493-16.788 25.856-16.788 43.1 0 17.015 5.523 31.379 16.788 42.871 11.274 11.493 25.865 17.244 43.765 17.244 21.217 0 40-11.055 48.841-27.852l17.909 10.17c-6.416 11.484-15.694 20.771-27.633 27.625-11.93 6.845-24.972 10.162-39.117 10.162-23.423 0-42.872-7.729-58.129-23.204zM559.52 664.184c15.466-15.685 34.478-23.423 56.798-23.423s41.331 7.738 56.797 23.423c15.694 15.475 23.432 34.478 23.432 56.807 0 22.32-7.738 41.103-23.432 56.797-15.466 15.694-34.477 23.423-56.797 23.423s-41.332-7.729-56.798-23.423c-15.476-15.694-23.204-34.478-23.204-56.797 0-22.33 7.728-41.332 23.204-56.807zm99.232 13.926c-11.274-11.712-25.419-17.462-42.434-17.462s-31.16 5.75-42.653 17.462c-11.274 11.492-17.025 25.856-17.025 42.88 0 17.016 5.75 31.161 17.025 42.872 11.492 11.493 25.637 17.244 42.653 17.244s31.16-5.751 42.434-17.244c11.492-11.711 17.243-25.856 17.243-42.871 0-17.025-5.75-31.389-17.243-42.881zM1097.996 643.632c14.372 0 26.084 4.867 35.59 14.363 9.496 9.506 14.363 21.218 14.363 35.362 0 13.926-4.867 25.865-14.364 35.362-9.505 9.506-21.217 14.364-35.59 14.364h-35.58v55.257h-20.552V643.632h56.133zm0 80.23c8.621 0 15.694-2.871 21.217-8.622 5.532-5.97 8.403-13.261 8.403-21.883 0-17.68-12.605-30.495-29.62-30.495h-35.581v61h35.58zM1325.46 778.891h71.827v19.45h-92.379V643.63h91.276v19.45h-70.724v47.52h65.2v19.23h-65.2v49.06zM1568.628 664.184c15.466-15.685 34.478-23.423 56.798-23.423s41.331 7.738 56.797 23.423c15.694 15.475 23.432 34.478 23.432 56.807 0 22.32-7.738 41.103-23.432 56.797-15.466 15.694-34.478 23.423-56.797 23.423s-41.332-7.729-56.798-23.423c-15.476-15.694-23.204-34.478-23.204-56.797 0-22.33 7.728-41.332 23.204-56.807zm99.232 13.926c-11.274-11.712-25.419-17.462-42.434-17.462s-31.16 5.75-42.653 17.462c-11.274 11.492-17.025 25.856-17.025 42.88 0 17.016 5.75 31.161 17.025 42.872 11.492 11.493 25.637 17.244 42.653 17.244s31.16-5.751 42.434-17.244c11.492-11.711 17.243-25.856 17.243-42.871 0-17.025-5.75-31.389-17.243-42.881zM1919.203 643.632c14.363 0 26.084 4.867 35.58 14.363 9.506 9.506 14.373 21.218 14.373 35.362 0 13.926-4.867 25.865-14.373 35.362-9.496 9.506-21.217 14.364-35.58 14.364h-35.581v55.257h-20.552V643.632h56.133zm0 80.23c8.621 0 15.694-2.871 21.217-8.622 5.523-5.97 8.403-13.261 8.403-21.883 0-17.68-12.596-30.495-29.62-30.495h-35.581v61h35.58zM2146.676 778.891h66.741v19.45h-87.293V643.63h20.552v135.26zM2387.173 778.891H2459v19.45h-92.378V643.63h91.275v19.45h-70.724v47.52h65.201v19.23h-65.2v49.06z" class="st0"/></svg>