<svg width="111" height="155" fill="none" xmlns="http://www.w3.org/2000/svg"><g clip-path="url(#a)"><path d="m0 97.376 6.4-1.6 2.5-.6c.6-.1.6-.3.3-.7-.5-.8-.7-1.7-.6-2.6.1-1.2-.4-2.3-1.3-3.1l-3.1-2.9c-2.4-2-2.6-5.6-.6-8 .6-.7 1.4-1.2 2.2-1.6.7-.2 1.1-.9 1-1.6v-12.6c0-.7-.1-1-.9-1.3-2.3-.8-4.7-5-3.9-7.3.5-1.7 1.2-3.4 2-5 .2-.6.4-1.2.4-1.8l.5-2.6c.1-.3.1-.5 0-.8-.6-1.5-.6-3.1 0-4.5.5-2 1.3-3.9 2.4-5.6.3-.4.5-1 .3-1.6-.2-1.5.1-3.1 1-4.4.9-1.9 2.4-3.5 4.3-4.5-.1 1.3 0 2.5.4 3.8 1.6-1.1 2.5-3 2.4-4.9 0-1 .3-.9 1-.6 1.4.7 2.5 1.9 3 3.3 3.6-2 4.9-3.3 6-5.6 1.1.8 1.9 2 2.1 3.3.5-.3.9-.7 1.2-1.2.3-.7.6-.4.9 0 .6.9 1 1.9 1.1 3 .9-1 2.1-1.7 3.4-2 .9-.2 1.3-1.2 1.8-2 .5-1.2 1.5-2.1 2.6-2.7.7-.3 1.1-1.2 1.8-1.6.4-.3 0-.5-.2-.7-1.6-2-3.7-3.7-6-4.9-.7-.4-.8-.6-.2-1.2 3.3-3.2 7.6-5.1 12.1-5.6 7.3-.7 12.7 3.5 13.5 10.8.1 1.6.4 3.2.8 4.8.1.5.6.9 1.1.9 2.7.1 5.3.9 7.6 2.3.9.4 1.8.5 2.7.5 10.5 1.3 20.8 3.6 30.8 7.1.5.1.9.6.8 1.2v8.9c-.1.6.3 1.2.8 1.4 5.6 2.7 7.3 9.9 6.4 14-.4 1.6-1.3 3-2.4 4.2-.3.2-.4.6-.4 1 .1 2.3-1.3 4.5-3.5 5.2-.6.1-.9.7-.8 1.3v8.9c-.1.6.3 1.1.8 1.3 2.9 1.1 4.4 4.2 3.6 7.1-.3.9-.9 1.8-1.6 2.4-1.1 1.1-2.1 2-3.3 3.1-.9.8-1.4 1.9-1.3 3.1.1.8-.1 1.7-.6 2.4-.3.5-.4.7.4.9 2.6.6 5.3 1.3 7.9 2l.9.3-4.2 5.7c-.4.5-.6 1.1-.6 1.8v26.9c0 .8 0 1.2-1.1.9-5.3-1.3-10.7-2.3-16.1-3.3-.4-.1-.9.1-1.1.4-8.6 10.1-19.5 16.9-31.8 21.7-.3.1-.7.1-1.1 0-10.7-4-20.4-10.2-28.5-18.2-1.1-1.2-2.1-2.3-3.2-3.5-.3-.4-.8-.5-1.2-.4-5.4 1-10.9 2-16.2 3.3-.9.2-.9-.1-.9-.8v-27c0-.7-.2-1.3-.6-1.9-1.1-2.5-2.5-4.4-3.9-6.4Zm13.8-32.9c0 .2 0 .2.2.2.6 1 1.6 1.1 2.7 1.3-.3.5-.9.3-1.3.8.2.2.5.3.7.5 1.8 1.4 2.9 3.6 2.9 5.8 0 .3.1.5.3.7.9.5 1.4 1.5 1.3 2.5 0 .5 0 1.1.6 1.2 1 .3 2 .7 2.9 1.3.7.4 1.2.2 1.4-.6.3-1.2.3-2.4-.1-3.6-.1-.3-.3-.8-.7-.8-.4 0-.3.5-.5.8-.3.7-.6 1.5-1.6 1.6.1-.4.3-.8.4-1.2.2-.6 0-1.2-.3-1.6-1.6-1.9-2.7-4.1-3.2-6.6-.2-.5-.1-1.1.1-1.5.4-.6.4-1.5 0-2.1-.6-.7-.5-1.7.2-2.3h.1c.2 0 .2 0 .2-.2.3-.2.5-.6.5-.9-1.7.6-3.5.9-5.3.9-.9 0-1.7.4-2.1 1.2-.5.9-.3 1.9.4 2.6 0 .1 0 .2.2.2v-.2Zm15.6.2c0 .2 0 .2.2.2.1.7.8.9 1.2 1.5-.2.1-.4.1-.6.1-1.1-.2-1.2.3-1.2 1.2 0 3.3-.5 6.7-1.5 9.9-.2.7-.2 1.4.2 2 1.2 2.2 3 2.7 4.9 1.2 1.6-1.4 3.5-2.4 5.6-2.7 1.1 0 1.5-1 1.3-2.1-.3-1.3-1.1-2.3-2.3-2.9-.9-.6-2-.6-2.9-.2 1.4.9 2 1.9 1.6 3.2-.6-.6-1.3-1.1-2.2-1.3 0 1.2.3 2.3-.5 3.3-.2-.9-.6-1.7-1.2-2.4-.2-.2-.3-.5-.2-.7 0-2.3.5-4.6 1.3-6.8.1-.3.2-.8.6-.9 1.3-.6 2.3-1.6 3.1-2.8.4.9.3 1.9-.2 2.7-.1.3-.5.6.2.7 2.6.5 5.1 1.5 7.3 3 1 .6 2 1.1 3.1 1.5 1 .3 2-.1 2.5-1 .8-1.2 1.3-2.5 1.6-3.9.1 0 .2-.1 0-.2l-.1.1c-.9.7-2.1 1.2-3.3 1.2 0-.4.4-.6.6-.8.8-.9 1.3-1.9 1.6-3.1.7-1.5.1-3.2-1.2-4.1-.8-.4-1.4-1.3-1.3-2.2l-.3-1.8c-.3-1.1-1.3-2-2.4-2.2-2.2-.3-4.4.6-5.9 2.3 1 .3 2 .5 3 .9 1 .3 1.9.8 2.6 1.6-.8-.1-1.7-.2-2.5-.3-2.8 0-5.6-.2-8.3-.5-2-.3-3.9.8-4.8 2.6-.7 1-.6 2.4.2 3.3-.2.3-.2.5.2.4Zm38.9-33.9c-1.1-.4-2.4 0-3.1 1 1.3 0 2.5.2 3.8.4l2.3.7c-.7-1.2-1.8-1.9-3-2.1Zm-21.4-12.1c.7-2.1 2.9-3.4 5.1-2.9-.2-.4-.6-.6-1.1-.6-1.5-.2-3.1.4-4 1.6-.3.4-.7.7-1.1.8l-1.4.2c-.3 0-.7 0-.5.4.2.4 0 1 .6.9.9.1 1.7-.1 2.4-.4Zm-5.7 1.2c0-.2-.1-.2-.2-.2-1.2-.5-1.5-.4-2.1.7-.4.8-.8 1.5-1.4 2.2-.5.5-1 1-.4 2-.4-.2-.9-.3-1.3-.3-1.2-.1-2.2.7-2.4 1.9 0 .4 0 .8.2 1.1.2.5.4.7.9.3 1-1.1 2.3-2 3.6-2.6l2.3-1.2c.5-.4 1.2-.5 1.9-.3.6.2.8-.2.7-.7 0-1.2-.7-2.2-1.8-2.7v-.2Zm12.5 40.3.2.3c3.3 3.9 8.4 5.8 13.5 4.8-3-.2-5.8-1.5-7.8-3.8-4.4-5.2-4.6-12.7-.6-18.1 2.9-3.9 8.2-5.3 12.6-3.2 3.2 1.5 5.6 4.4 6.4 7.9.4 1.5.6 3.1.7 4.6.6-2.8.6-5.7 0-8.5-.2-1.3-.7-2.6-1.5-3.7-.5-1.7-1.5-3.1-3-4-5.6-4.4-13.5-4.1-18.7.8-.8.7-1.1 1.4-.5 2.4.5 1.9 1 3.9 1.3 5.9.1.6 0 .8-.7.7-1.2-.3-2.4-.4-3.7-.7-.5.1-1.3-.9-1.6.3-1.3 5.1-.1 10.5 3.4 14.3Zm-42.4-4.4c-.2.3-.4.6-.6.8-.2.2-.5.5-.9.4-.4-.1-.4-.5-.4-.9 0-1.6.6-2.1 2.2-1.6-.7-1-1.9-1.6-3.1-1.6-2.2-.3-2.8 0-3.2 2.3-.4-.4-.4-1-.6-1.6-.4.4-.6 1.1-.3 1.6.3 1 .8 2 1.4 2.9 1 1 2.5 1.3 3.8.8 1.1-.8 1.7-1.9 1.7-3.1l.1.1-.1-.1Zm38.7-15.4c-2.2-.1-4.3-1.2-5.6-3-.7-1-1.5-1.9-2.4-2.7-.3-.3-.7-.9-1.1-.7-.4.2 0 .9.1 1.3.7 1.8 1.8 3.5 2.7 5.2.4.8 1.1 1.4 2 1.8 2.9 1.1 5.9 1.9 9 2.4.4-.1.2-.4.2-.6-.4-2.1-1-4.2-1.9-6.2-.4-.9-1-1.7-1.9-2.2l-8.1-4.9c-.3-.2-.6-.5-1-.2 1.8 1.4 3.6 2.9 5.5 4.2 1.6 1.2 2.7 2.9 3 4.9.2.6-.1.7-.5.7Zm-37.9 4.9c-.4.5-.7 1-1.2 1.5-.4.5-.2-.2-.3-.2.2-1.2 1.1-2.1.9-3.4 2.6-.2 2.8-3 4.3-4.5.3.4.1.9.3 1.3 1.4-2.2 2.3-4.8 5.3-5.5-1.1-.8-2.5-1.1-3.9-.8.5-2 1.8-3.6 2.4-5.6.5 1 .7 2.1.5 3.1 1-1.4.7-3.3-.7-4.4-.2-.1-.3-.2-.5-.3-.5 2.6-2.4 4.4-3.5 6.9-.5-1.5-.9-1.6-2-.6-1.2 1.1-2.2 2.4-3 3.9-.2.4-.5.8-.7 1.2h-.2v-3.5c-1.4 1.8-2.3 4-2.6 6.3-.2 1 0 1.7 1.2 2-.9 1.7-1.4 3.6-1.5 5.5l2.7.2h.8c1.2.8 2.9.5 3.8-.7l.3-.6c.6-1 1.5-1.8 2.6-2.3-.4 1.5-.3 2 .2 2.5.8.5 1.8.4 2.4-.2 2.4-2.2 2.7-6 .6-8.5-.3-.4-.8-.4-1.2-.1l-.1.1c-1.2.9-2.2 2.2-2.7 3.6-.4.9-1 1.8-2.1 1.6-1.1 0-1.6.6-2.1 1.5Zm37.2-22.3c1-.7 1.9-1.4 2.8-2.3.2.3.3.7.2 1.1.1 2-1 3.8-2.7 4.7-.4.3-.7.5-.8 1.1 0 1.5-.2 3-.3 4.5 0 .7.5 1.2 1.2 1.2.2 0 .4 0 .6-.1 2.6-1.3 4.8-3.1 6.7-5.2.7-.8 1.3-1.7 1.6-2.7.4-1.1 0-1.6-1.1-1.6.2.3.3.7.2 1.1-.8 1.9-2.1 3.6-3.9 4.7h-.3c1.2-1.2 2.2-2.6 2.9-4.2.2-.5.4-.9-.1-1.4-.6-.6-1-1.4-1.2-2.3-.3-1.2-.7-2.3-1.3-3.3-.7-1.3-2.3-1.9-3.7-1.4-1.1.3-2 1.1-2.3 2.3-.2.9-.6 1.1-1.4 1-.5-.1-1.1 0-1.5.4-.4 1.1-.2 2.4.6 3.3.7.3 1 1 .9 1.6v1c0 .3.2.8.5.8s.6-.3.6-.7v-.1c-.5-1.6.3-2.6 1.6-3.3.2-.1.2-.2.2-.2Zm-20 20.5v-.1h-.1l.1.1c1.2 2.3 1.8 5 1.8 7.6 0 .5.2.6.7.4 1.3-.4 2.6-1 3.9-1.6 1.6-.7 3-1.6 4.3-2.7 1.3-1.2 1.2-2.3-.3-3.2-1.3-.8-2.8-1.3-4.2-1.5-.8-.2-1.6-.3-2.6-.4 1.4-.6 2.9-.8 4.3-.8-1.2-3.5-9.2-8.7-13.2-8.4 2.4 1.3 4.3 3.3 5.7 5.6 1.6 2.6 2.7 6.1 2.4 7.3-.9-.9-1.4-2-2.8-2.3Zm32.3 17.6c1 .9 2.1 1.6 3.4 2 0-.5-.3-.6-.5-.8-1.2-.9-2.1-2.1-2.8-3.4-.3-.6-.3-.9.4-1.2 1.5-.6 2.9-1.4 4.3-2.3 1.5-1 3-2.1 4.4-3.3l.9 3.1c.2-1.2.3-2.5.4-3.8 0-.4.2-.9.5-1.2.9-1 1.6-2.1 2.1-3.3 1.7 3.3 2 7.2.8 10.8 1.3-2.1 1.7-4.6 1.4-7.1-.2-2.6-1.3-5.1-3.1-7-3.2-3.5-8.7-3.7-12.2-.5-.4.4-.7.8-1.1 1.2-1.4 1.8-2.3 3.9-2.5 6.2-.7 3.9.7 7.9 3.6 10.6Zm-6.2 86.7.5-.1c3.7-1.5 7.4-3.2 10.9-5.2 6.1-3.5 11.7-7.8 16.4-12.9.2-.2.6-.4.4-.7-.2-.3-.5-.1-.7-.2-3.3-.5-6.6-.9-10-1.2-.6-.1-1.2 0-1.6.3-4.9 3.6-10.2 6.6-15.8 8.9-4.8-1.9-9.4-4.3-13.6-7.3-1.8-1.5-4.1-2.1-6.4-1.6-2.7.6-5.6.8-8.4 1.1.2.4.5.8.8 1.1 5.9 6.2 12.9 11.3 20.7 15 2.2 1.1 4.5 2.1 6.8 2.8Zm45.3-95.2.2.2c-.7.8-1.6 1.3-2.6 1.5-3.1.8-6.4-.1-8.6-2.4-2.3-2.4-4.2-5.2-5.5-8.2-1.6-3.2-3-6.6-4.8-9.7-2.2-4.1-6.1-6.9-10.6-7.7-1.7-.3-3.4-.4-5.1-.4.6-.5 1.4-.8 2.2-.9.8-.2 1.5-.3 2.4-.4-1-1.6-6.6-2.5-8.6-2 1.8 1.9 1.9 2.6.4 4.9-.7 1-1.4 1.9-2.3 2.8-1.8 1.8-3.8 3.3-5.9 4.7.5.3.9 1 1.4.9 1.5-.3 3.1-.5 3.9-2.1.5-1.1 1.2-2.1 1.9-3.1 1.4-1.8 3.4-2.9 5.7-3 4.2-.1 8.2 1.7 10.8 4.9.1.1.1.2 0 .3-1.1-.8-2.4-1.4-3.8-1.5 1.2 2.8 3.9 4 5.8 6.1.3-.7-.2-1.3 0-2 .4.6.8 1 1.1 1.5 1.4 2.4 2.6 4.9 3.5 7.4 1.1 3.1 2.5 6.1 4.2 8.9 1.6 2.5 4.1 4.3 7 4.9.5.1 1.1.1 1.6.2v.3c-4.3.5-8.6-1.1-11.5-4.3-.1 1.5-.4 3.1-.9 4.6-.2.5-.1 1 .1 1.4.9 2 2.4 3.7 4.3 4.9.3.2.6.2.8.7-1.8-.4-3.5-1.2-4.9-2.4-.5-.4-1-1.3-1.5-1.2-.5.1-.7 1-1.1 1.6-.4.6-.7.7-.5 1.3 1.1 3.3 3.8 5.8 7.1 6.7.6.2 1.3.2 1.8-.1.2-.1.4-.3.3-.6 0-.3-.2-.2-.4-.3-1 0-1.3-.6-.8-1.4.5-.9 1.4-1.4 2.4-1.4h3.3c1 0 2-.3 2.8-.9.4-.3.7-.8.5-1.3-.2-.5-.6-.5-1.1-.6-2.4-.2-4.6-.8-6.8-1.8-1.1-.5-2-1.1-2.7-2h.4c4 1.6 8.4 2.2 12.7 1.5 1.5-.1 2.9-.5 4.3-1.1.9-.3 1.5-1 1.6-1.9 0-.6 0-1-.8-.7-1 .4-2 .5-3 .3 1.2-.3 2.3-.9 3.3-1.5 2.1-1.1 3.5-3.2 3.7-5.6.2-3.1-1-6.2-3.3-8.4-.4-.5-1-.9-1.6-1 .6 1.3.1 2.9-1.1 3.7-.9.9-2.1 1.6-3.3 1.9-2.2.6-4.5.8-6.8.5-.5 0-1.4-.4-1.5 0-.2.7.7.8 1.2 1.1 1.7.8 3.5 1 5.3.8-.5.5-1.2.8-1.9 1-.2.1-.5.1-.5.4 0 .2.3.4.6.4 1.8.4 3.6.2 5.2-.4Zm-22.6 33.1c.4 1.8 1.7 3.2 3.5 3.8 3.6 1.8 7.5 3.2 11.5 4 1.5.5 3 .6 4.6.5.8 0 1.5-.7 1.4-1.5v-.2c-.1-2 .7-4 2.3-5.4l2.9-2.7c.7-.6 1.2-1.4 1.4-2.3.2-.9-.3-1.9-1.2-2.1-.4-.2-.8-.1-1.1.2-.3.3-.1.7 0 1 .6 1 .4 1.6-.8 2-.5.2-1.1.2-1.6.2-2.4-.1-4.7-.6-7-1.5-2.9-1.1-5.6-2.5-8.4-3.7-4.9-2.2-10-3.8-15.5-3.1-.6.1-1.6 0-1.6.6s1 .5 1.5.6c2.6.3 5.2 1.1 7.5 2.4.5.3 1.3.7.9 1.4s-1.1.3-1.6.1c-2.3-.7-4.7-1.2-7.1-1.5-8-1.1-16.2-1.3-24.2-.6-1.6.2-3.3.1-4.6 1.5-.4.4-.8.6-1.3.7-2.3.4-4.5 1.4-6.2 3-.1.1-.2.1-.3.2-1.9 1.2-4.3.9-5.9-.6-.3-.3-.5-.6-.7-.9-.2-.3-.6-.5-1-.4-1.1.1-2.1-.2-2.9-.9-.6-.6-1.6-.6-2.3-.2-2.6 1.3-5.5 2.3-8.4 2.8-1.2.2-2.4.2-3.6-.2-1-.4-1.2-1-.8-1.8.3-.4.6-.9 0-1.3s-1-.2-1.5.1c-.5.3-.8.9-.7 1.5 0 .9.4 1.8 1.1 2.4.9.9 1.8 1.6 2.7 2.5 1.8 1.4 2.8 3.6 2.7 5.9-.1.8.5 1.5 1.3 1.6h.1c.5.1 1.1.1 1.6 0 4.6-.6 9-1.9 13.2-3.9 2-.9 4.1-1.9 4.8-4.5.2.5.2.9.3 1.2.2 1 .2 2.1 0 3.1-.1 1.5.3 1.9 1.8 1.8.6-.1 1.3-.1 1.9-.3 11.5-2.6 23.4-2.7 35-.5 1.5.4 3 .7 4.5.8 1.2 0 1.6-.4 1.6-1.6 0-.3 0-.6-.1-.9-.3-1.1-.1-2.3.3-3.3Zm-43.2 24.3-.3-1.1-3.8-13.4c-.2-.8-.5-.9-1.2-.8-1.3.2-2.7.5-4 .6-.8 0-.9.4-.9 1.1v21.3c-.1.5.1.7.6.6 1-.2 1.9-.3 2.9-.4.7 0 .8-.3.8-.9v-10.5c1.1 2.6 1.9 5.2 2.8 7.8.3 1 .3 2.3 1.1 2.8s2-.2 3-.1h.1c.5 0 .7-.2.9-.8.5-1.6 1.1-3.4 1.6-5.1l1.6-5.1h.2v9.7c0 .4-.2.9.5.8 1.2-.1 2.3-.2 3.4-.2.5 0 .6-.2.6-.7v-21.6c0-.6-.2-.7-.7-.6-1.5.1-3 .3-4.5.3-.6 0-.8.3-.9.8l-1.5 6.2-2.3 9.3Zm70.3-10.5c-.2-.1-.3-.2-.5-.2-5-1.3-10.1-2.3-15.2-3.3-.8-.1-.8.2-.8.8v28.4c0 .5 0 .8.6.9 4.2.7 8.5 1.5 12.6 2.6.5.1.8 0 .8-.6v-13.7c0-.7-.2-.7-.8-.6-1 .4-2 .6-3.1.9-.8.2-.9.5-.9 1.2v6.9c0 .7-.2.8-.8.7l-2.7-.6c-.5 0-.7-.3-.7-.8v-10.8c0-.5.1-.7.7-.6 1.2.3 2.5.5 3.7.8.5.1.7 0 .7-.5v-.7c0-2.6 0-2.6-2.5-3.1-.8-.2-2 0-2.4-.7-.4-.7-.2-1.6-.1-2.5.1-.6-.2-1.3-.7-1.6-.7-.5-1.2-1-1.8-1.5 1.6.1 3.2.4 4.8.7 1.7.3 1.7.3 1.8 2.1 0 .4 0 .8.5.9 1.2.2 2.4.5 3.5.8.5.1.8 0 .7-.5-.2-1.4.3-2.8 1.3-3.7.6-.6 1-1.1 1.3-1.7Zm-99.7-.1c.6.8 1.1 1.6 1.6 2.2.7.8 1 1.8.9 2.9v23.4c0 .5-.1 1 .8.8 4.2-1.1 8.4-1.9 12.6-2.6.5 0 .7-.2.7-.7v-12.7c0-.6-.2-.6-.7-.4-1.1.6-2.2 1.2-3.3 1.6-.5.2-.9.7-.8 1.3v6.5c0 .6-.2.8-.7.9-.8.1-1.7.3-2.5.5-.7.2-1 .1-.9-.7v-9.2c0-2 0-2 2-2.5 1-.2 2.3-.1 2.8-.7s.1-2 .2-3c0-.8-.3-.7-.8-.6-1.2.3-2.4.5-3.5.7-.5.1-.7 0-.7-.6v-2.2c.1-.5-.2-1.1-.7-1.2h-.1c-.8-.2-1.6-.5-2.3-.9l5.3-1.1c1.8-.4 1.8-.4 1.9 1.5 0 .5.2.7.7.5 1.1-.3 2.2-.5 3.3-.6.6 0 .7-.3.7-.9v-5c0-.8-.3-.9-1-.7l-9.1 1.8-6.4 1.7Zm80.6 24v-1.5c0-.5-.2-.8-.7-.8-19.5-2.9-39.3-3-58.8-.2-1.9.3-1.9.3-1.9 2.2v1.4c-.1.9.2 1.1 1 .9 7.6-1.2 15.3-1.9 23-2.1 11.7-.4 23.5.2 35.1 1.9 2.3.4 2.3.3 2.3-1.8Zm-.5-5.2-1.8-4.9c-.1-.3-.4-.7.2-.8 1.4-.3 2.3-1.6 2.1-3v-10.7c0-1.9-1.4-3.6-3.3-3.8-3.3-.4-6.6-.8-9.9-1.1-.6 0-.8 0-.8.7v21.4c0 .6.2.8.8.8 1 0 2 .1 3 .3.9.2 1-.2 1-.9v-3.6c0-.2-.1-.6.2-.6.7 0 1.4-.2 1.6.8.4 1.4 1 2.8 1.5 4.2.1.3.1.7.6.7 1.7.1 3.2.2 4.8.5Zm-37.9-13.6v10.7c0 .7.2.9.9.8 1-.1 2.1-.1 3.1-.1.6 0 .8-.2.8-.8v-3.6c0-.7.2-.9.9-.9h5c1.8.1 3.2-1.3 3.3-3.1V96.276c.1-1.8-1.3-3.2-3.1-3.3h-10c-.7 0-.9.2-.9.9v10.7Zm30-77.9c2.3 1.9 4.2 4.3 5.6 7 .2.4.6.4.9.5 2.9.6 5.8 1.3 8.7 2.1.8.2 1 .5 1 1.3v7.8c0 .3-.2.9.5.9 1.8.1 3.6-.3 5.2-1 .5-.2.7-.7.6-1.2v-10.9c0-.7-.3-1-.9-1.2-3.1-1.1-6.3-2-9.5-2.7-4-1.2-8.1-2-12.1-2.6Zm-8.4 78.4v-10.7c0-.4.1-.8-.6-.8-1.2 0-2.4-.1-3.5-.2-.5 0-.6.1-.6.6v21.6c0 .5.1.7.6.7 1.1 0 2.1 0 3.3.2.7.1.9-.1.9-.8-.1-3.6-.1-7.1-.1-10.6Zm-17.1-93.1c.2-.7.3-1.3.5-1.8.4-1.3 1.2-1.5 2.1-.4.8 1 1.4 2.2 1.6 3.5.4 1.6.6 3.3 1.2 4.8.1.3.2.8.7 1l-.3-2.3c-.1-2.5-.7-4.9-1.6-7.1-1-2.2-3-3.8-5.4-4.4-.7-.2-1.3-.2-1.2.9 0 .6-.1 1.2-.2 1.7-.3-.8-.6-1.3-.8-1.8-.3-.8-.8-1-1.5-.8-1.4.4-2.7 1-3.9 1.8-.5.4-.5.7-.2 1.2 1.3 1.9 2.3 3.9 2.9 6.1.1.4.1.9.4 1.2 1.6-1.4 1.6-1.3 1.2-3.3-.3-1.3-.6-2.6-1-3.8.6 0 .6.5.8.7.7 1.3 1.2 2.7 1.6 4.1.1.4.1.9.8.8.7-.1.7-.5.8-1l.7-5.1c.4 1.3.7 2.6.8 4Zm-11 38.6c1.4-1 2.7-2.3 3.7-3.7.2-.3.5-.7.1-1-.4-.3-.6.1-.9.3-.9.7-1.6 1.5-2.5 2.2-6.4 5.1-14.6 7.4-22.8 6.3-1-.1-2.1-.3-3.1-.4-.3 0-.8-.2-.9.2-.1.4.3.6.5.8.6.4 1.2.6 1.9.8 5 1 10.1.8 15-.5 4.6-.9 8.9-2.9 12.7-5.7.5-.2.8-.7.9-1.2-1.5.8-3 1.4-4.6 1.9Zm-30.6 15v14c0 .6.3.6.7.5.9-.2 1.8-.4 2.6-.7 3-.9 3-1 2.9-4.1.1-2.7-1.2-5.3-3.3-7-1.1-.8-2.1-1.7-2.9-2.7Zm89.6 1.8c-1.1 2.2-3.3 3.6-5.7 3.8-.5 0-.6.3-.6.7v5.8c0 .5.2.7.6.9 1.6.6 3.2 1.1 4.8 1.5.6.1.9 0 .9-.7v-12Zm-77.8-39.1c2.2-.5 4.5-.5 6.7.1-.5.3-1.1.2-1.4.7 5.1 1.7 9.5 5 12.6 9.4-.3-1.2-.9-2.2-1.6-3.2-.7-1-1.6-1.9-2.5-2.7 1.6-.1 1.9-.3 2.3-1.2-2.5-.3-4.9-1.2-6.9-2.7.2-.4.7 0 .9-.4-1.2-.8-2.7-1.3-4.1-1.3 1.1-1.3 1.2-1.6.8-2.8-.6.8-1.5 1.4-2.4 1.6-.9.3-1.8.6-2.6 1-.9.3-1.5.8-1.8 1.5Zm15.3-19.2v.2c2.6 1.8 4.8 4.3 6.2 7.1.2.6.8.3 1.2.2.4-.1.2-.5.2-.8-.6-2.3-1.6-4.4-3-6.4-.3-.8-1.2-1.1-2-.8-.9.2-1.7.4-2.6.5ZM24 48.476c0 .9 0 1.8-.1 2.6s-.7 1.6-.1 2c.6.4 1.5.1 2.3-.1h.2c.4 0 .7-.2.7-.7.5-2.9-.1-6-1.5-8.5 0-.2-.2-.4-.4-.3-.2.1 0 .3 0 .5.6 2 .7 4.2.2 6.3-.4-.6-.8-1.2-1.3-1.8Zm-10.1 3.8c-.2-.6-.5-1.2-1.1-1.5-1.6-1.1-3.7-1.6-5.6-1.4-.4 0-.7.2-1 .5-.4.4-.6 1.1-.4 1.6.2.6.8.3 1.2.2 1.6-.2 3.2.2 4.5 1 .4.3.9.7 1.3 1.1 0-1.7 0-1.7 1.1-1.5Zm66.2 7.2c-4.2 7.7-10.4 11.5-19.4 10.2 8.3 3.3 17.3-2.9 19.4-10.2Zm-54-1.2H23c-.4 0-.5.2-.5.5-.1 2.8 1.5 5.4 4.1 6.6-1.4-2.1-1.6-4.8-.5-7.1Zm-14.6-25.2c1.2-1.5 2.6-2.8 4.3-3.8 0 .4 0 .7.1 1.2 2.3-3.3 2.7-5.5 1.4-7 0 1.2-.4 2.3-1.3 3.1l-2.7 3.1c-.9.9-1.5 2.1-1.8 3.4Zm48.3-.3c1.4-.6 3.1-.4 3.9-2.1.1-.2.4-.4.6-.5.9-.6 1.9-.9 3-.9-2.6-1.4-6.6.8-7.5 3.5Zm-10.9 5.9.3-.1c0-.9-.5-1.8-1.2-2.4l-6.3-4.9c-.2-.2-.3-.4-.8-.3l8 7.7Zm-13.7-10 .5.3c.5.2.9.4.9-.5.2-1 1.2-1.6 2.2-1.4h.1c.6.3 1.3.1 1.7-.5.5-.5 1-.9 1.4-1.3.2-.2.5-.3.3-.7-.2-.4-.5-.2-.8-.1-1.1.5-2.1 1.1-3.3 1.6-1.1.7-2.2 1.6-3 2.6Zm-25 2.6c1.9-2.9 1.9-2.9 1.4-4.9-1.2 1.3-1.7 3.1-1.4 4.9Zm16.5-9.4c-.7.8-1.6 1.4-2.6 1.9s-1.7 1.2-2.2 2.2c1.2-1 2.8-1.4 4-2.4.6-.4.8-1.1.8-1.7Zm17.8 3.3c-.1.4-.1.9.1 1.3.5 1 .8 2.1 1 3.1.1.5 0 1.1.6 1.5-.3-2.1 0-4.3-1.7-5.9Zm-1-5c-.1-.9-.3-1.7-.8-2.5-.1-.2-.2-.4-.5-.2s-.6.5-.8.9c-.1.2 0 .2.2.3.7.2 1.1.9 1.9 1.5Zm-.5-14.6c-1.4.3-2.8.9-4 1.7 1.5.1 3-.5 4-1.7Zm-28.7 51.3c.1-.3 0-.6-.3-.7h-.1c-.4 0-.3.3-.4.6-.2.4-.4.8-.7 1.1-.2.2-.3.4-.2.6.2.2.5.1.7 0 .8-.3.9-1 1-1.6Z" fill="url(#b)"/><path d="M78.1 85.676c-.5 1.1-.7 2.3-.4 3.5.1.3.1.6.1.9 0 1.2-.3 1.6-1.6 1.6-1.5-.1-3.1-.4-4.6-.8-11.6-2.2-23.5-2.1-35 .5-.6.1-1.3.2-1.9.3-1.5.1-1.9-.3-1.8-1.8.2-1 .2-2.1 0-3.1l-.3-1.2c-.7 2.7-2.7 3.6-4.7 4.5-4.2 1.9-8.6 3.3-13.2 3.9-.5.1-1.1.1-1.6 0-.8-.1-1.4-.8-1.4-1.6v-.1c.1-2.3-.9-4.5-2.7-5.9l-2.6-2.5c-.7-.6-1.1-1.5-1.1-2.4 0-.6.2-1.2.7-1.5.5-.3 1-.5 1.5-.1s.2.9 0 1.3c-.5.8-.2 1.4.8 1.8 1.2.4 2.4.4 3.6.2 2.9-.5 5.7-1.4 8.4-2.7.7-.5 1.7-.4 2.3.2.8.7 1.9 1 2.9.9.4-.1.8.1 1 .4.3.3.6.7.9.9 1.6 1.6 4 1.8 5.9.6.1-.1.2-.1.3-.2 1.7-1.6 3.9-2.6 6.2-3 .5-.1 1-.3 1.3-.7 1.3-1.1 2.9-1.7 4.6-1.5 8.1-.7 16.2-.5 24.2.6 2.4.3 4.8.9 7.1 1.6.5.2 1.3.5 1.6-.1.3-.7-.4-1.1-1-1.4-2.3-1.3-4.9-2.1-7.5-2.4-.6-.1-1.6-.1-1.5-.6.1-.5 1-.5 1.6-.6 5.5-.7 10.6.9 15.5 3.1l8.4 3.7c2.2.9 4.6 1.4 7 1.5.6 0 1.1-.1 1.6-.2 1.2-.4 1.4-1 .8-2.1-.2-.3-.4-.7 0-1 .3-.3.7-.4 1.1-.2.9.3 1.5 1.2 1.2 2.1-.2.9-.7 1.7-1.4 2.3l-2.9 2.7c-1.5 1.4-2.4 3.3-2.3 5.4.1.8-.5 1.6-1.4 1.6h-.1c-1.5.2-3.1 0-4.6-.4-4-.8-7.9-2.2-11.5-4-1.6-.6-3-2.1-3.5-4Zm-8.2.3-1.9-4.5c-.5-.6-1.3-.9-2.1-.8-.2.1-.2.3-.2.4v5.8c0 .9.8.4 1.3.6.4.1.5-.3.5-.6v-2.4c.6.8 1 1.7 1.3 2.7.3.8 1 .7 1.5.8.6.1.7-.4.9-.7l1.1-2.2c.1.9.2 1.9.2 2.8 0 .9.8.6 1.3.7.5.1.3-.4.3-.7v-5.3c0-.5 0-.9-.7-.9s-1.3-.7-1.6.4c-.5 1.1-1.3 2.5-1.9 3.9Zm-6.1-2.5c-1 0-1.2-.5-1.1-1.2v-1.2c0-.7-.2-.8-.8-.8l-4.4-.2c-.8-.1-1.5.4-1.6 1.2v5c0 .3 0 .5.4.6 1.3.3 1.8 0 1.6-1.3 0-.7.2-.9.9-.8h.8c.7 0 .9.2.9.9 0 1.4 0 1.4 1.5 1.4.4 0 .7-.1.6-.6-.2-1.1.2-2.3 1.2-3Zm-9.9-3.4-7.2.4c-.5 0-.5.4-.5.7v5.4c0 .5.2.7.7.7l5.4-.3c.8 0 .6-.5.6-1 0-.4 0-.8-.7-.7l-3.3.2c-.3 0-.8.2-.8-.4 0-.7.4-.5.8-.5h1c1.4 0 1.6-.3 2.1-1.8l-3.3.2c-.3 0-.5 0-.6-.4 0-.4.1-.6.5-.6.9-.1 1.7-.1 2.6-.1 1.1.2 2.2-.5 2.5-1.7.2 0 .2 0 .2-.1Zm-9.9.8c-2.3.2-4.6.7-6.8 1-1 .2-.8.7-.7 1.3 0 .9.6.2 1 .3.2 0 .4 0 .6-.1.6-.2.8 0 .7.6v3.4c0 .3-.3 1 .4.9.7-.1 1.7.4 1.6-1-.1-1.4 0-2.3 0-3.4 0-.8.2-1.2 1-1.2 1.4.1 2-.8 2.2-1.8Zm56.7-28.3c-1.6.7-3.4.8-5.1.5-.2 0-.6-.1-.6-.4 0-.3.3-.3.5-.4.7-.2 1.3-.6 1.9-1-1.8.2-3.7 0-5.4-.8-.5-.2-1.4-.4-1.3-1.1.1-.4 1-.1 1.5 0 2.3.3 4.6.2 6.8-.5 1.2-.3 2.2-1 3.1-1.8 1.2-.8 1.7-2.4 1.1-3.7.6.2 1.2.5 1.6 1 2.3 2.2 3.5 5.2 3.3 8.4-.2 2.4-1.6 4.5-3.7 5.6-1 .7-2.1 1.2-3.3 1.5 1 .2 2.1.1 3-.3.8-.3.9 0 .8.7-.1.9-.8 1.7-1.6 1.9-1.3.6-2.8 1-4.3 1.1-4.3.6-8.7.1-12.7-1.5h-.4c.8.9 1.8 1.5 2.9 1.9 2.1.9 4.4 1.5 6.7 1.8.4 0 .9.1 1.1.6.1.5-.1 1-.5 1.3-.8.6-1.8 1-2.8.9h-3c-1 0-1.9.5-2.4 1.4-.5.8-.2 1.4.8 1.4.2 0 .4 0 .4.3 0 .2-.1.5-.3.6-.6.3-1.2.3-1.8.1-3.3-.9-6-3.4-7.1-6.7-.2-.6.3-.9.5-1.3s.6-1.5 1.1-1.6c.5-.2 1 .8 1.5 1.2 1.4 1.2 3.1 2 4.9 2.4-.2-.4-.5-.5-.8-.7-1.9-1.2-3.3-2.9-4.3-4.9-.2-.4-.3-1-.1-1.4.5-1.5.8-3 .9-4.6 2.9 3.2 7.2 4.8 11.5 4.3v-.3c-.5 0-1.1-.1-1.6-.2-2.9-.6-5.5-2.3-7-4.9-1.7-2.8-3.1-5.8-4.1-8.9-.9-2.6-2.1-5.1-3.5-7.5l-1.1-1.5c-.2.7.3 1.3 0 2-1.9-2.1-4.6-3.3-5.8-6.1 1.4.1 2.7.6 3.8 1.4.1-.1.1-.2 0-.3-2.6-3.3-6.6-5.1-10.8-4.9-2.2.1-4.3 1.2-5.6 3-.8 1-1.4 2-2 3-.9 1.6-2.5 1.7-3.9 2.1-.5.1-.9-.5-1.4-.9 2.1-1.3 4.1-2.9 5.9-4.7.8-.9 1.6-1.8 2.3-2.8 1.5-2.3 1.4-3-.4-4.9 2-.5 7.5.3 8.6 2l-2.4.4c-.8.1-1.5.5-2.2.9 1.7 0 3.4.1 5.1.4 4.5.8 8.4 3.7 10.6 7.7 1.8 3.1 3.2 6.5 4.8 9.7 1.4 3 3.2 5.8 5.5 8.2 2.2 2.3 5.5 3.2 8.6 2.4 1-.2 1.9-.7 2.6-1.5.1 0 .2-.2.2-.2-.3-.1-.5 0-.6.2Z" fill="#fff"/><path d="M52.2 11.976c-.2-1.3-.4-2.7-.8-3.9l-.7 5c0 .4 0 .9-.8 1-.8 0-.7-.4-.8-.8-.4-1.4-1-2.8-1.6-4.1-.2-.3-.2-.7-.8-.7.4 1.3.8 2.5 1 3.8.3 2.1.4 2.1-1.3 3.4-.3-.3-.3-.8-.4-1.2-.6-2.2-1.6-4.3-3-6.1-.4-.5-.4-.8.2-1.2 1.2-.9 2.5-1.5 3.9-1.8.8-.2 1.3 0 1.5.8.2.5.4 1 .8 1.8.1-.6.2-1.2.2-1.8-.1-1.1.5-1.1 1.2-.9 2.4.5 4.4 2.2 5.5 4.4 1 2.3 1.5 4.7 1.6 7.1l.3 2.3c-.5-.2-.5-.7-.7-1-.6-1.6-.8-3.2-1.2-4.8-.3-1.3-.8-2.5-1.6-3.6-.9-1.1-1.6-.9-2.1.4l-.4 1.9Zm-11 38.6c1.6-.5 3.1-1.1 4.6-1.9-.1.5-.5.9-.9 1.2-3.8 2.8-8.1 4.7-12.7 5.6-4.9 1.3-10 1.5-15 .5-.7-.1-1.3-.4-1.9-.8-.3-.2-.7-.4-.5-.8.1-.4.6-.3.9-.2l3.1.4c8.1 1.1 16.4-1.2 22.8-6.3.9-.7 1.6-1.5 2.5-2.2.2-.2.5-.6.9-.3.3.3.1.7-.1 1-1.1 1.5-2.3 2.7-3.7 3.8Zm-30.6 15c.9 1.1 1.9 2 3 2.8 2.1 1.7 3.3 4.3 3.3 7 0 3.1 0 3.2-2.9 4.1l-2.6.7c-.4 0-.7 0-.7-.5l-.1-14.1ZM22.4 28.276c.3-.8 1-1.4 1.7-1.6l2.6-1c1-.2 1.8-.8 2.4-1.6.3 1.2.2 1.5-.8 2.8 1.5.1 2.9.5 4.1 1.3-.2.4-.7 0-.9.4 2 1.5 4.4 2.4 6.9 2.7-.4.9-.7 1.1-2.3 1.2.9.8 1.7 1.8 2.4 2.7.8.9 1.3 2 1.6 3.2-3.1-4.3-7.5-7.6-12.6-9.3.4-.5.9-.4 1.4-.7-2-.6-4.3-.6-6.5-.1Z" fill="#fff"/><path d="M50.3 16.875c-1.6 1.4-1.3 3.3-1.2 5.1 0 .3.1.7.2 1 0 .1-.1.1-.1.1-1.4.7-2.3 1.6-1.6 3.3.1.3-.1.7-.4.8H47c-.3 0-.5-.4-.5-.7v-1c.1-.7-.2-1.4-.9-1.6-.7-.3-1.1-2.7-.6-3.3.4-.3 1-.5 1.5-.4.8 0 1.2-.2 1.4-1 .4-1.2 1.3-2.1 2.4-2.3Z" fill="#F6F6F5"/><path d="M37.7 9.075c.9-.1 1.7-.3 2.6-.5.8-.3 1.6 0 1.9.8 1.4 2 2.4 4.1 3 6.4.1.3.4.7-.2.8-.6.1-.9.4-1.2-.2-1.4-2.9-3.6-5.3-6.2-7.2.2 0 .1-.1.1-.1ZM13.9 52.276c-1.1-.2-1.1-.2-1.1 1.4-.4-.4-.9-.7-1.3-1-1.4-.8-3-1.2-4.5-1.1-.4 0-1 .3-1.2-.2-.2-.6 0-1.2.4-1.6.3-.3.6-.5 1-.5 2-.2 4 .3 5.6 1.4.6.4 1 1 1.1 1.6ZM11.5 33.075c.3-1.3.9-2.5 1.8-3.5l2.7-3.1c.8-.8 1.3-1.9 1.3-3.1 1.3 1.5.8 3.7-1.4 7 0-.4 0-.7-.1-1.2-1.7 1.1-3.2 2.4-4.3 3.9Z" fill="#fff"/><path d="M59.8 32.776c.8-2.7 4.8-4.9 7.5-3.4-1.1 0-2.1.3-3 .9-.2.2-.5.3-.6.5-.7 1.6-2.4 1.4-3.9 2ZM48.9 38.675l-8-7.7c.4-.1.6.2.8.3l6.3 4.9c.8.6 1.2 1.4 1.2 2.4l-.3.1Z" fill="#F1F0EE"/><path d="M26.6 21.875c.1.7-.2 1.4-.7 1.8-1.2 1-2.8 1.4-4 2.4.4-1 1.2-1.8 2.2-2.2.9-.6 1.8-1.2 2.5-2Z" fill="#fff"/><path d="M68.9 32.175c-1.2-.2-2.5-.4-3.8-.4.7-1 2-1.4 3.1-1.1.2.6 1.1.8.7 1.5Zm-24.4-7c1.7 1.6 1.4 3.8 1.6 5.9-.6-.4-.5-1-.6-1.5-.2-1.1-.5-2.1-1-3.1-.1-.4-.1-.9 0-1.3Zm1.4-7.6c.9-.2.7.7 1 1.1-.7.3-1.5.5-2.3.5-.5.1-.4-.6-.6-.9-.1-.3.2-.4.5-.4l1.4-.3Z" fill="#F1F0EE"/><path d="M42.9 5.576c-1 1.2-2.5 1.8-4 1.7 1.3-.7 2.6-1.3 4-1.7Z" fill="#fff"/><path d="m53.8 60.275.2.3c-.1-.2-.2-.3-.2-.3Z" fill="#F1F0EE"/><path d="m51.1 67.276.1-.1v.2l-.1-.1Zm-41.6-18.8c.1-.1.1-.1.2 0h-.2Zm31.8-28.6c-.1 0-.2 0-.2-.2-.1-.1.2.1.2.2Z" fill="#C7B086"/><path d="M74.3 98.176c1.8 0 3.5.2 5.3.5 1.8.2 1.8.3 1.8 2.1v6.7c0 .6-.1.8-.7.7-1-.2-1.9-.3-2.9-.3-.6 0-.9-.2-.8-.9v-5.9c.1-.6-.2-1.1-.7-1.4-.6-.5-1.2-.9-2-1.5Z" fill="url(#c)"/><path d="M49.9 97.176h6.6c.4 0 .5.3.5.6v8.2c0 .6-.2.7-.7.7-1-.1-2-.1-2.9 0-.8 0-.9-.3-.9-.9v-5.7c.1-.7-.2-1.4-.9-1.6-.6-.3-1.2-.7-1.7-1.1-.1-.1 0-.1 0-.2Z" fill="url(#d)"/><path d="M59.4 83.174c-.5-.3-1.5.3-1.4-.9 0-.4.1-.6.6-.6h.8c.6 0 1.3-.2 1.2.8-.2 1.1-1 .3-1.2.7Z" fill="#fff"/></g><defs><linearGradient id="b" x1="-.033" y1="77.257" x2="109.773" y2="77.257" gradientUnits="userSpaceOnUse"><stop stop-color="#1C8AE2"/><stop offset=".486" stop-color="#8B00B3"/><stop offset="1" stop-color="#6900B5"/></linearGradient><linearGradient id="c" x1="-.033" y1="103.192" x2="109.773" y2="103.192" gradientUnits="userSpaceOnUse"><stop stop-color="#1C8AE2"/><stop offset=".486" stop-color="#8B00B3"/><stop offset="1" stop-color="#6900B5"/></linearGradient><linearGradient id="d" x1="-.034" y1="101.935" x2="109.774" y2="101.935" gradientUnits="userSpaceOnUse"><stop stop-color="#1C8AE2"/><stop offset=".486" stop-color="#8B00B3"/><stop offset="1" stop-color="#6900B5"/></linearGradient><clipPath id="a"><path fill="#fff" d="M0 0h111v155H0z"/></clipPath></defs></svg>