<?xml version="1.0" encoding="utf-8"?>
<!-- Generator: Adobe Illustrator 22.1.0, SVG Export Plug-In . SVG Version: 6.00 Build 0)  -->
<svg version="1.1" id="Слой_1" xmlns="http://www.w3.org/2000/svg" xmlns:xlink="http://www.w3.org/1999/xlink" x="0px" y="0px"
	 viewBox="0 0 1036 232.3" style="enable-background:new 0 0 1036 232.3;" xml:space="preserve">
<style type="text/css">
	.st0{fill:#FFFFFF;}
</style>
<g>
	<path class="st0" d="M158.5,42l-18.3,27L216,31.9c1.8-0.7,4.6-1.8,8.3-3.4c3.7-1.6,6.8-2.7,9.2-3.6c2.5-0.8,4.6-1.2,6.4-1.2
		c2.6,0,3.9,1.4,3.9,4.2c0,1.9-0.5,3.8-1.4,5.9c-2.9,6.8-6.9,12.1-11.8,16.1c-4.9,3.9-9.5,5.9-13.6,5.9c-0.7,0-1.6-0.2-2.7-0.7
		c-1.1-0.4-1.9-0.7-2.3-0.8l-90.6,45.1c-6.8,3.5-10.2,7.4-10.2,11.8c0,2.6,1.4,4.7,4.3,6.5l86.4,53.5c3.3,1.1,5.8,2.9,7.5,5.6
		c1.7,2.7,2.6,6.9,2.6,12.6c0,9-3.4,13.5-10.1,13.5c-4.9,0-10.5-1.8-16.9-5.4l-96-57.1L68.8,165c-1.5,6-4.1,11.3-7.9,15.7
		c-3.8,4.4-8,7.7-12.5,10c-4.5,2.2-8.6,3.3-12.3,3.3c-5.4,0-8.1-2.1-8.1-6.2c0-2.2,1.2-5,3.6-8.5l41.1-51.5c-3-4.7-4.5-8.5-4.5-11.5
		c0-4.8,3.2-9.6,9.7-14.5c6.5-4.9,17.6-11.2,33.4-18.8l25.1-36.8c-7.9,0.7-16.9,2.9-26.9,6.7c-10.1,3.8-22.5,9-37.3,15.8
		c-14.8,6.8-26,11.8-33.7,14.9c-7.7,3.2-13.8,4.7-18.1,4.7c-4.3,0-6.5-2.1-6.5-6.2l-0.5-1.1c0-5.5,1.5-12.1,4.4-19.9
		s5.5-12.8,7.7-15c1.3-1.3,4.1-3.4,8.5-6.4c4.4-3,7.6-5.6,9.8-8c5.5-4.4,10.2-6.5,13.8-6.5c1.3,0,1.9,0.7,1.9,2
		c0,2.9-3.2,7.1-9.6,12.6c1.9-0.7,8.9-3.5,21-8.6c12.1-5,23.1-9.1,33.1-12.2c10-3.1,19.3-5,28.1-5.6c1.1,0,2.5-0.1,4.2-0.3
		c1.7-0.2,2.8-0.3,3.4-0.3c4.6,0,7.9,0.8,9.8,2.3c1.9,1.5,4.3,4.3,7.1,8.5c2.6,3.5,3.9,7.1,3.9,10.7C160.5,37.2,159.9,39.8,158.5,42
		z"/>
	<path class="st0" d="M326.6,142.2l3.7,12.7c-6.5,9.1-12.7,15-18.4,17.9c-5.7,2.9-11.8,4.3-18.2,4.3c-0.5,0-1.4,0-2.6-0.1
		c-1.2-0.1-2-0.1-2.5-0.1c-4.4,6.4-10.1,11.3-16.9,14.9s-13.4,5.4-19.6,5.4c-11.5,0-19-4.8-22.5-14.4c-3.6-8.7-5.4-16.7-5.4-24.2
		c0-8.9,1.9-17.6,5.8-25.9c3.9-8.3,9.2-15.7,16.1-22c6.8-6.3,14.6-11.1,23.2-14.3c7.9-2.7,15.8-4,23.9-4c4.3,0,8,0.6,10.8,1.9
		c2.9,1.2,4.3,3,4.3,5.2c0,2.6-1.1,5.1-3.4,7.6c4.7,2.7,7,7.7,7,15.3c0,7-3.1,18.5-9.3,34.6c0.3,0,0.8,0.1,1.5,0.3s1,0.3,1.1,0.3
		C310.4,157.4,317.5,152.4,326.6,142.2z M243.3,163.6c0,0.2-0.1,0.6-0.3,1.2c-0.2,0.6-0.3,1.1-0.3,1.2c0,3,1.1,5.5,3.3,7.6
		c2.2,2.1,4.9,3.1,8,3.1c5.4,0,11.9-2.9,19.4-8.7c-2.1-3.6-3.1-8.2-3.1-13.8c0-7.7,2.7-17.6,8.2-29.8c-11,5.6-19.4,11.2-25.2,16.6
		C247.6,146.4,244.3,154,243.3,163.6z"/>
	<path class="st0" d="M434.1,117.7c0,5.5-1.3,11.7-4,18.5c-2.7,6.8-5.4,12.4-8.1,16.6c0.2,0,0.6,0.1,1.2,0.3
		c0.6,0.2,1.1,0.3,1.2,0.3c2.7,0,5.5-0.8,8.7-2.3c3.1-1.5,8.2-4.3,15.3-8.3l3.9,10.1c-11.1,11.1-23.6,16.6-37.4,16.6
		c-0.6,0-1.4,0-2.6-0.1c-1.2-0.1-2-0.1-2.5-0.1c-2.8,3.8-6.9,7.6-12.4,11.4s-11.2,6.9-17,9.3c-5.8,2.4-10.4,3.6-13.9,3.6
		c-0.2,0-0.7,0.1-1.3,0.3c-0.6,0.2-1.1,0.3-1.2,0.3c-6.5,0-11.6-3.1-15.3-9.3s-5.6-14-5.6-23.4c0-7.7,1.1-16,3.3-25
		c2.2-9,5.5-18.4,10-27.9c4.4-9.6,9.9-18.9,16.4-27.8c6.5-9,13.9-17,22.1-24.2c20.1-20,36.5-32.9,49.2-38.6c2.7-1.5,5.3-2.3,7.9-2.3
		c4.7,0,7,3.6,7,10.7c0,7.4-1.5,14-4.5,20c-4.2,8.5-10.5,17-18.9,25.5c-8.4,8.5-19.6,18.8-33.6,30.9c-14,12-23.4,20.4-28,25.1
		c-1.3,7.9-1.9,13.9-1.9,18.1c0,6.5,0.8,12.1,2.3,16.7c1.6,4.6,3.7,6.9,6.4,6.9c3.6,0,7.7-3.6,12.1-10.7c-2.7-2.9-4-6.6-4-11
		c0-5.7,2-11.7,6.1-18.2c4-6.4,8.9-11.8,14.5-16.1c5.6-4.3,10.6-6.5,14.8-6.5c2.6,0,4.8,0.9,6.7,2.7S434.1,114.1,434.1,117.7z
		 M376.7,113.8c7-4.8,18-17,33.2-36.6c17.2-20.7,26.7-33.7,28.4-39.1c-9.9,8.5-22.2,21.4-36.8,38.7
		C386.9,94,378.6,106.4,376.7,113.8z"/>
	<path class="st0" d="M512.3,127.8c-1.3,1.2-5.1,4.3-11.3,9.3c-6.2,5-10.9,9.2-14,12.7c-3.2,3.5-4.7,6.7-4.7,9.5
		c0,0.2,0.5,1.4,1.6,3.6c3.4,6.4,8.9,9.6,16.6,9.6c7.8,0,17.2-3,28.3-9c11.1-6,21.3-12.9,30.8-20.8l4,10.1
		c-12.5,13.8-25,24.3-37.6,31.5c-12.6,7.1-23.8,10.7-33.6,10.7c-7.1,0-13-1.9-17.7-5.7c-4.7-3.8-7.7-9.2-9-16.3
		c-1.5-7.7-2.3-13.2-2.3-16.4c0-11.7,4-22.1,11.9-31.2c7.9-9.1,21.6-18.5,41-28.1c7.8-3.8,15.3-5.6,22.5-5.6c3.9,0,7,1,9.3,2.9
		c2.3,1.9,3.4,4.5,3.4,7.8c0,6.6-4.8,15.8-14.4,27.8c-5.3,5.8-9.7,8.7-13.3,8.7C519.9,139.1,516.1,135.3,512.3,127.8z"/>
	<path class="st0" d="M623.8,146.2c0.6,0,1.6,0.4,3,1.1c1.4,0.7,2.5,1.1,3.2,1.1c1.3,1.3,2.6,2.7,3.9,4c5,8.1,12.3,12.1,22,12.1
		c7.7,0,16.3-2.3,25.7-6.8c9.4-4.5,17.4-9.7,24.2-15.5l4.5,12.1c-16,13.9-29.1,24-39.4,30.3c-10.3,6.3-18.6,9.4-25,9.4
		c-4.6,0-8.6-1.4-12.2-4.1c-3.6-2.7-7-6.5-10.5-11.1c-3.4-4.7-7.9-10.7-13.3-18.2c-1.6,3.3-4.6,7.5-8.8,12.7
		c-4.2,5.2-6.7,8.3-7.6,9.5c-2.2,2.8-4.4,4.3-6.7,4.3c-2.8,0-5.3-2.9-7.5-8.8c-2.2-5.9-3.3-12.4-3.3-19.7c0-11.8,2.5-21.3,7.4-28.4
		c0.5-0.7,1.7-2.6,3.8-5.8c2.1-3.2,4.1-6,5.9-8.4c1.9-2.4,4.2-5.1,6.9-7.9s6-5.7,9.8-8.6c2.4-2.7,5.9-4.8,10.3-6.3
		c4.5-1.5,8.8-2.2,13-2.2c2.8,0,5.2,0.4,7.3,1.3c2.1,0.9,3.1,1.9,3.1,3.2c0,1.1-0.5,2.1-1.4,3.1c-3.9,4.9-7.7,9.3-11.5,13.3
		c-3.8,4-8.3,8.5-13.5,13.5c-5.2,5.1-9.6,9.4-13,12.9c-3.4,3.5-7,7.6-10.7,12.1v3.9c4.6-3.9,8.9-7.5,12.9-10.8
		c4-3.3,8.3-6.7,12.7-10.3c4.4-3.5,7.9-6.3,10.3-8.2c2.5-1.9,8.2-6.5,17.4-13.7c1.3-0.7,4.5-2.7,9.6-5.9c5.1-3.3,9.6-5.8,13.4-7.7
		c3.9-1.9,7.5-2.8,11-2.8h2.5c8.2,3.3,12.4,8.7,12.4,16.4c0,4.4-1.4,9-4.2,13.8c-2.8,4.9-5.5,8.5-8.2,10.9c-4.4,3-8.6,4.5-12.6,4.5
		c-2.2,0-4-0.5-5.5-1.6c-1.4-1.1-2.2-2.3-2.2-3.7c0-0.2,0.1-0.6,0.3-1.2c0.2-0.6,0.3-1,0.3-1.1c5.5-4.3,8.2-7.3,8.2-9
		c0-0.7-0.8-1.1-2.5-1.1c-3.1,0-8.7,2.1-16.8,6.2C644.1,133.1,634.6,138.8,623.8,146.2z"/>
	<path class="st0" d="M794.4,155.5l-40.2,34.9c-2.4,2.1-4.9,3.1-7.6,3.1c-3.7,0-7.5-1.9-11.4-5.6c-3.9-3.7-7.1-8.4-9.6-14
		c-2.5-5.6-3.8-11.1-3.8-16.5c0-2.1,0.5-4.8,1.4-8.2c2.6-8.5,8.3-16.6,17.1-24.3c8.8-7.7,18.9-14.3,30.4-19.8
		c11.4-5.5,22.2-9.3,32.1-11.4c4.7-1.3,9.5-2,14.4-2c5.9,0,10.5,1.3,13.8,3.9c3.3,2.6,5,5.4,5,8.5c0,1.6-0.7,3-2.2,4.4
		c-1.5,1.4-3.3,2.1-5.3,2.1l-1.2-0.6c6.2,3.4,9.3,7,9.3,10.7c0,1.7-0.7,3.5-2,5.5c-1.3,2-3.5,4.7-6.4,8c-2.9,3.4-5.3,6.3-7.1,8.7
		c-1.6,1.8-3.3,4.4-5,7.6c-1.7,3.2-2.5,6.1-2.5,8.7c0,2.8,1.2,4.9,3.6,6.2c0.2,0,0.6,0.2,1,0.6c0.4,0.4,0.8,0.6,1,0.6
		c3.6,0,9.5-2.8,17.8-8.5c8.2-5.6,14.5-10.7,18.8-15.2l4.3,10.4c-9.7,11.8-20.6,21.9-32.6,30.1c-12,8.3-21.7,12.4-29.1,12.4
		c-7.5,0-11.2-4.4-11.2-13.3C787.1,177.9,789.5,168.8,794.4,155.5z M741.5,165.6c0,1,0.4,1.8,1.2,2.6s1.6,1.1,2.4,1.1
		c5,0,14.2-5.7,27.5-17.1c13.3-11.4,25.4-22.7,36.4-33.9c-19.6,6.5-34.7,13.4-45.3,20.8c-6.5,3.6-11.9,7.7-16.3,12.2
		c-4.4,4.5-6.5,8.6-6.5,12.3c0,0.2,0.1,0.5,0.3,1C741.4,165.1,741.5,165.4,741.5,165.6z"/>
	<path class="st0" d="M978.4,152.4l-44.7,26.5c-11.8,7-21.5,12.3-28.9,15.9c-7.5,3.6-13.6,6-18.4,7.4c-4.8,1.4-9.1,2-12.9,2
		c-2.1-0.5-3.1-2-3.1-4.5c0-2.9,1.8-6.8,5.5-11.6c3.7-4.8,8.2-9,13.5-12.6c5.3-3.6,10.3-5.4,15-5.4c3.9,0,7.1,1.2,9.5,3.6l56.3-24.5
		c-4.1,1.9-10,4.2-17.7,7c-7.7,2.8-14,4.2-18.9,4.2c-0.3,0-0.8-0.1-1.5-0.3c-0.7-0.2-1.2-0.3-1.3-0.3c-0.2,0-0.6,0.1-1.2,0.3
		c-0.5,0.2-0.9,0.3-1.1,0.3c-3.3,0-6.2-1.9-8.8-5.8c-2.6-3.8-3.8-8.4-3.8-13.7c0-5.9,1.6-11.5,4.7-16.6
		c7.6-11.8,18.2-20.6,31.6-26.4c13.4-5.8,26.5-8.8,39.3-8.8c7.7,0,14,1.1,19,3.2c5,2.2,7.5,5,7.5,8.6v2.5c-2.4,1.8-5.7,4.1-9.8,6.9
		c-4.1,2.7-7,4.1-8.5,4.1c-0.2,0-0.6,0.1-1.2,0.3c-0.6,0.2-1.1,0.3-1.3,0.3c-3,0-4.5-0.7-4.5-2c0-0.5,0.3-1.2,1-2.1
		c0.6-0.8,1.2-1.4,1.6-1.9c-0.8-0.4-2.3-0.5-4.5-0.5c-7,0-16.5,3.6-28.7,10.8s-21.5,15.1-27.8,23.5c0.6,4.5,3.5,6.7,8.7,6.7
		c4.9,0,12.2-2.2,21.9-6.7c5.9-2.2,12.2-6,18.8-11.2c6.6-5.2,11.5-9.4,14.8-12.4c0.2-0.4,1-0.6,2.5-0.6c2,0,3.9,1.2,5.6,3.6
		c1.7,2.4,2.6,5.2,2.6,8.5c0,3.4-0.8,6.5-2.3,9.3l-16.6,38.6c0.2-0.1,2.7-1.6,7.3-4.5c4.6-2.8,7.9-5,10-6.5c2-1.5,4.2-3.5,6.7-5.9
		l2,7.6c-4.9,6.7-11.1,13-18.7,18.8c-7.6,5.8-15.4,8.7-23.5,8.7c-3.3,0-6.3-0.6-9.1-1.7c-2.8-2.2-4.2-4.7-4.2-7.6
		c0-2.7,0.8-5.6,2.3-8.8c1.5-3.1,3.5-6.6,5.9-10.5c2.4-3.8,3.6-6.1,3.6-6.7L978.4,152.4z"/>
</g>
</svg>
