<?xml version="1.0" encoding="utf-8"?>
<!-- Generator: Adobe Illustrator 22.1.0, SVG Export Plug-In . SVG Version: 6.00 Build 0)  -->
<svg version="1.1" id="Слой_1" xmlns="http://www.w3.org/2000/svg" xmlns:xlink="http://www.w3.org/1999/xlink" x="0px" y="0px"
	 viewBox="0 0 1144.5 424.9" style="enable-background:new 0 0 1144.5 424.9;" xml:space="preserve">
<style type="text/css">
	.st0{fill:#FFFFFF;}
</style>
<g>
	<path class="st0" d="M616,134.7l-75-88.9l-31.1,12.3l11.2-14.5L484,7.1L383.2,120.8l60.2,60.2l40.1-10.5l-27.9,29.6l46.2,102
		l-27,40.1l-42.7-7.8l10.5,66.3h39.2l87.2-107.2L616,134.7z M480.4,390.9l61.5-99.1l-14.7-45.4l31.1,46.1L480.4,390.9z M541.9,64.5
		l61.9,71.5l-37.9,132.5l17.4-132.1L541.9,64.5z"/>
	<path class="st0" d="M383.2,263.8l-5.2,23.5l67.1-83.4l-82-86.6l58-61L376.2,7.1l-48,13.4l2.2,18.3L313,31.7L211,58.9L29.6,207.1
		l-8.7,40.8l55.8-42.1L0,372.3l0.4,29.2l80.2-0.9l-8.7-27.9l87.7-89.7l-9.5,21.7h97l18.3-27.9l-20.1,123.8h75.9l-0.9-65.4
		L383.2,263.8z M46.4,393.7l19-17l6.1,17H46.4z M222.6,80.7l-107.8,96.6L14.5,359.9l91.3-200.2l108.8-93.5l93.5-26l31.3,10.8
		l-0.5-23.9l19.9,46.9l-47.2-20L222.6,80.7z M355.8,133.6l69.3,70.7L393,247.9l4.9-25.4l-88.1,105.9L355.8,133.6z"/>
	<polygon class="st0" points="131.3,341.9 136.8,400.6 200.1,400.6 220.5,316 145.8,316 	"/>
	<path class="st0" d="M440.9,226.5l-64.1,81.1l-7.4,9.2l-24.4,30.6v53.2h77.5l-13.7-56.1L440.9,226.5z M411.6,392.6h-31.7l21.9-40.9
		L411.6,392.6z"/>
	<path class="st0" d="M584.1,289.5h37.7c7.6,0,14.2-0.7,19.7-2.1c5.5-1.4,10.2-3.4,14-6c3.8-2.6,6.9-5.7,9.3-9.4
		c2.3-3.7,4.2-7.7,5.4-12.2c1-3.4,1.4-6.3,1.3-8.8c-0.1-2.5-0.6-4.7-1.5-6.5c-0.9-1.8-2.2-3.4-3.8-4.7c-1.6-1.3-3.5-2.3-5.7-3.2
		l0.3-1c5.6-1.8,9.9-4.5,13-8.2c3.1-3.7,5.4-8.1,6.9-13.3c1.3-4.5,1.5-8.3,0.8-11.6c-0.8-3.2-2.3-5.9-4.6-7.9
		c-2.3-2-5.2-3.5-8.7-4.5c-3.5-1-7.4-1.5-11.5-1.5h-43.6L584.1,289.5z M635.6,208.2h8.1c3.3,0,5.6,0.7,7.1,2.1
		c1.4,1.4,1.7,3.7,0.8,6.9c-1.9,6.5-6.1,9.8-12.6,9.8h-8.6L635.6,208.2z M624.6,246.7h8.8c3.9,0,6.4,1,7.7,2.9
		c1.2,1.9,1.4,4.6,0.4,8c-1.1,3.8-2.9,6.5-5.3,8.1c-2.4,1.6-5.5,2.4-9,2.4h-8.6L624.6,246.7z"/>
	<path class="st0" d="M735.8,273.8l-0.9,15.7h29.4l1.7-15.7l-0.3-85.8l-33.7,0.7c-3.4,0-6.7,0-10.1,0c-3.3,0-6.6,0-9.7,0l-4.9,20.3
		l6.2,1.1l-36.9,63.7l-7.3,15.7h29.3l8.1-15.7H735.8z M735.9,217l3-7h1.3l-1,7l-1.9,33.2h-18.3L735.9,217z"/>
	<path class="st0" d="M813.2,257.7h5.4c1.4,0,2.5,0.4,3.3,1.1c0.7,0.7,1.2,1.7,1.5,2.8c0.3,1.2,0.4,2.5,0.5,3.9c0,1.4,0,2.9,0,4.4
		l-0.4,19.5h30.4l-0.1-26.4c0.1-4.2-0.4-7.5-1.4-9.7c-1-2.2-2.2-3.7-3.6-4.4c3.2-1.1,6.1-2.8,8.8-5.1c2.7-2.3,5-4.8,7-7.6
		c2-2.8,3.7-5.6,5.1-8.5c1.4-2.9,2.4-5.6,3.1-8.1c1.7-6,2.1-10.9,1.3-14.9c-0.8-4-2.8-7.2-5.8-9.6c-3-2.4-7.1-4.1-12.2-5.1
		c-5.1-1-11-1.5-17.8-1.5h-34.1l-28.9,100.9h28.8L813.2,257.7z M826.3,212h8.2c1.6,0,3,0.2,4.3,0.5c1.3,0.3,2.3,0.9,3.1,1.7
		c0.8,0.8,1.3,1.9,1.5,3.2c0.2,1.3,0,3-0.6,5.1c-0.5,1.8-1.2,3.6-2,5.1c-0.8,1.6-1.8,3-3,4.1c-1.2,1.2-2.6,2.1-4.3,2.8
		c-1.7,0.7-3.6,1-5.8,1h-8.3L826.3,212z"/>
	<path class="st0" d="M963.8,219.8c1.7-6,2.1-10.9,1.3-14.9c-0.8-4-2.8-7.2-5.8-9.6c-3-2.4-7.1-4.1-12.2-5.1c-5.1-1-11-1.5-17.8-1.5
		h-34.1l-28.9,100.9h28.8l9.1-31.8h5.4c1.4,0,2.5,0.4,3.3,1.1c0.7,0.7,1.2,1.7,1.5,2.8c0.3,1.2,0.4,2.5,0.5,3.9c0,1.4,0,2.9,0,4.4
		l-0.4,19.5h30.4l-0.1-26.4c0.1-4.2-0.4-7.5-1.4-9.7c-1-2.2-2.2-3.7-3.6-4.4c3.2-1.1,6.1-2.8,8.8-5.1c2.7-2.3,5-4.8,7-7.6
		c2-2.8,3.7-5.6,5.1-8.5C962.1,224.9,963.1,222.2,963.8,219.8z M933.9,222.4c-0.5,1.8-1.2,3.6-2,5.1c-0.8,1.6-1.8,3-3,4.1
		c-1.2,1.2-2.6,2.1-4.3,2.8c-1.7,0.7-3.6,1-5.8,1h-8.3l6.7-23.5h8.2c1.6,0,3,0.2,4.3,0.5c1.3,0.3,2.3,0.9,3.1,1.7
		c0.8,0.8,1.3,1.9,1.5,3.2C934.7,218.7,934.5,220.4,933.9,222.4z"/>
	<path class="st0" d="M967.6,281.4c2.2,3.4,5.6,5.9,10.2,7.6c4.6,1.7,10.5,2.6,17.8,2.6c7.5,0,13.9-0.9,19.5-2.7
		c5.5-1.8,10.3-4.4,14.3-7.8c4-3.4,7.3-7.4,10-12.2c2.7-4.8,4.8-10.1,6.5-16l18.4-64.3h-29.4l-19.1,66.5c-0.5,1.9-1.2,3.6-2.1,5.2
		c-0.8,1.6-1.8,3-3,4.1c-1.1,1.1-2.5,2-4,2.6c-1.5,0.6-3.2,0.9-5.2,0.9c-1.9,0-3.4-0.3-4.4-1c-1.1-0.7-1.8-1.6-2.2-2.7
		c-0.4-1.1-0.6-2.5-0.4-4.1c0.1-1.6,0.4-3.2,0.9-5l19.1-66.6h-29.4l-18.1,63.1c-1.9,6.6-2.8,12.3-2.8,17.3
		C964.4,273.9,965.5,278,967.6,281.4z"/>
	<path class="st0" d="M1101.3,212c2.1-1,5.1-1.5,9.1-1.5c1.7,0,3.4,0.1,5.1,0.2c1.7,0.1,3.5,0.3,5.3,0.6c1.8,0.3,3.8,0.6,5.8,1.1
		c2,0.4,4.3,1,6.7,1.6l11.2-22.2c-2.8-1-5.5-1.8-8.1-2.5c-2.5-0.7-5-1.2-7.5-1.6c-2.4-0.4-4.9-0.7-7.3-0.9c-2.4-0.2-4.9-0.3-7.5-0.3
		c-6.1,0-11.7,0.6-16.9,1.8c-5.1,1.2-9.7,3-13.8,5.6c-4.1,2.5-7.6,5.7-10.4,9.7c-2.9,3.9-5.1,8.6-6.7,14.2c-1.1,4-1.6,7.5-1.3,10.6
		c0.3,3.1,1.3,5.9,3,8.4c1.8,2.5,4.3,4.8,7.5,6.9c3.3,2.1,7.3,4.1,12.2,6c2.4,0.9,4.4,1.8,5.9,2.5c1.5,0.7,2.7,1.5,3.5,2.3
		s1.3,1.6,1.4,2.5c0.1,0.9,0,2-0.4,3.3c-0.4,1.2-1,2.3-2,3.2c-1,0.9-2.1,1.6-3.4,2.2c-1.3,0.6-2.8,1-4.4,1.3
		c-1.6,0.3-3.2,0.4-4.9,0.4c-4.4,0-8.8-0.4-13.2-1.2c-4.4-0.8-8.6-2.1-12.8-3.8l-12,22.1c1.4,0.8,3.1,1.7,5.1,2.5
		c2,0.8,4.4,1.6,7.1,2.3c2.7,0.7,5.7,1.2,9.1,1.7c3.4,0.4,7.1,0.7,11.1,0.7c6.6,0,12.6-0.7,18.2-2.1c5.6-1.4,10.5-3.5,14.9-6.3
		c4.4-2.8,8.1-6.3,11.2-10.5c3.1-4.2,5.5-9.3,7.1-15c1.1-3.8,1.4-7.1,1-10c-0.4-2.9-1.4-5.5-2.9-7.7c-1.5-2.3-3.6-4.3-6.2-6.1
		c-2.6-1.8-5.6-3.5-8.9-5.1c-3.5-1.7-6.4-3.1-8.5-4.1c-2.2-1.1-3.8-2-4.9-2.8c-1.1-0.8-1.8-1.6-2-2.4c-0.2-0.8-0.2-1.7,0.1-2.7
		C1097.8,214.6,1099.2,213,1101.3,212z"/>
	<path class="st0" d="M624.4,327.2c-0.4-3.4-1.6-6.2-3.5-8.4c-1.9-2.2-4.6-3.9-8-5c-3.4-1.1-7.4-1.6-12.1-1.6h-24.6L551.4,399h10.1
		l9-31.4h15.3c9.3,0,17.2-2.4,23.6-7.1c6.4-4.7,11-11.9,13.7-21.4C624.4,334.6,624.8,330.6,624.4,327.2z M612.6,339.3
		c-2,6.9-5.1,12-9.4,15.3c-4.3,3.3-9.4,4.9-15.3,4.9h-15.1l11.2-39.2h14.7c6.5,0,10.9,1.5,13.2,4.6
		C614.3,328.1,614.5,332.8,612.6,339.3z"/>
	<path class="st0" d="M691.6,317.9c-1.9-2-4.4-3.4-7.7-4.4c-3.3-0.9-7.1-1.4-11.6-1.4h-25.8L621.5,399h10l10.1-35.1h14.8
		c0.9,0,1.9,0.2,2.8,0.6c0.9,0.4,1.8,1,2.5,1.9c0.8,0.9,1.5,2,2.1,3.4c0.6,1.4,1.1,3.1,1.4,5.2l3.5,24.1h10.5l-3.6-26.7
		c-0.3-2.8-1-5.2-2-7.1c-1-1.9-2.1-3.2-3.3-3.9c3-0.5,5.8-1.6,8.3-3.2c2.5-1.6,4.8-3.6,6.7-5.8c2-2.3,3.6-4.7,5-7.4
		c1.4-2.7,2.4-5.3,3.2-8c1.3-4.4,1.7-8.2,1.3-11.3C694.6,322.5,693.5,319.9,691.6,317.9z M683.3,337.4c-1.7,6-4.4,10.6-8.1,13.8
		c-3.7,3.2-8.6,4.8-14.8,4.8h-16.5l10.2-35.6h16.3c6,0,10.1,1.3,12.2,4C684.8,327,685,331.4,683.3,337.4z"/>
	<path class="st0" d="M773,355.4c2-7,3.1-13.2,3.2-18.8c0.1-5.6-0.7-10.3-2.5-14.2c-1.8-3.9-4.6-6.9-8.3-8.9
		c-3.7-2.1-8.5-3.1-14.3-3.1c-5.9,0-11.3,1.1-16.2,3.2c-5,2.1-9.5,5.2-13.5,9.1c-4,4-7.6,8.7-10.7,14.4c-3.1,5.6-5.6,11.9-7.6,18.9
		c-2,7.1-3.1,13.3-3.2,18.9c-0.1,5.5,0.7,10.2,2.5,14.1c1.8,3.8,4.6,6.8,8.4,8.8c3.8,2,8.6,3,14.4,3c5.8,0,11.1-1,16.1-3.1
		c4.9-2.1,9.4-5.1,13.5-8.9c4-3.9,7.6-8.6,10.7-14.3C768.5,368.8,771,362.5,773,355.4z M762.5,355.4c-1.6,5.4-3.4,10.4-5.6,14.9
		c-2.2,4.5-4.7,8.4-7.6,11.7c-2.9,3.3-6.2,5.8-9.8,7.6c-3.6,1.8-7.6,2.7-12,2.7s-7.9-0.9-10.4-2.6c-2.6-1.7-4.3-4.2-5.4-7.4
		c-1-3.2-1.3-7-0.9-11.5c0.4-4.5,1.4-9.4,3-14.9c1.6-5.7,3.6-10.9,6-15.5c2.3-4.6,5-8.5,7.9-11.6c2.9-3.2,6.1-5.6,9.7-7.3
		c3.5-1.7,7.3-2.6,11.4-2.6c4,0,7.3,0.8,9.9,2.5c2.6,1.6,4.4,4,5.6,7.2c1.2,3.1,1.6,7,1.3,11.5C765.1,344.5,764.2,349.7,762.5,355.4
		z"/>
	<path class="st0" d="M804.4,312.2l-22.1,77.1c-0.7,2.6-1.5,4.9-2.2,7c-0.7,2.1-1.8,3.9-3.1,5.5c-1.3,1.6-3,3.1-5.2,4.3
		c-2.2,1.3-5,2.4-8.7,3.4l-0.7,8.2c4.9-1,8.9-2.2,12.1-3.6c3.2-1.3,5.9-3,8.1-5c2.2-2,4-4.4,5.3-7.3c1.4-2.9,2.6-6.3,3.8-10.4
		l22.7-79.3H804.4z"/>
	<polygon class="st0" points="845.5,320.4 884.3,320.4 887.2,312.2 837.8,312.2 812.9,399 863.1,399 864.9,390.8 825.3,390.8 
		834.5,359 866.3,359 868.7,350.8 836.8,350.8 	"/>
	<path class="st0" d="M932.9,310.4c-5.6,0-10.9,1.1-15.8,3.2c-4.9,2.1-9.3,5.2-13.3,9.1c-4,4-7.6,8.8-10.7,14.5
		c-3.1,5.7-5.6,12.1-7.7,19.2c-1.9,6.6-3,12.7-3.1,18.1c-0.2,5.4,0.6,10.1,2.3,14c1.7,3.9,4.4,6.9,8,9.1c3.7,2.2,8.4,3.2,14.3,3.2
		c4,0,7.8-0.4,11.6-1.2c3.7-0.8,7.6-2,11.5-3.7l-0.1-7.8c-3.2,1.2-6.4,2.2-9.8,3c-3.4,0.7-6.8,1.1-10.2,1.1c-4.4,0-7.9-0.9-10.5-2.7
		c-2.5-1.8-4.3-4.3-5.3-7.5c-1-3.2-1.3-7-0.9-11.4c0.4-4.4,1.4-9.3,2.9-14.6c1.7-5.8,3.7-11,6-15.6c2.3-4.6,5-8.5,7.9-11.7
		c2.9-3.2,6.1-5.7,9.7-7.3c3.5-1.7,7.3-2.5,11.2-2.5c2.2,0,4.3,0.2,6.1,0.6c1.8,0.4,3.7,0.9,5.5,1.7l-3.4,10.9h9l4.9-16.9
		c-3-1.5-6.2-2.7-9.4-3.5C940.5,310.8,936.9,310.4,932.9,310.4z"/>
	<polygon class="st0" points="1017.1,312.2 961.6,312.2 959.8,320.5 981.9,320.5 959.4,399 969.6,399 992.1,320.5 1014.1,320.5 	"/>
	<path class="st0" d="M1062.3,311.3c-1.7-0.3-3.3-0.6-4.8-0.7c-1.6-0.1-3.2-0.2-4.8-0.2c-4.4,0-8.6,0.5-12.4,1.5
		c-3.8,1-7.2,2.4-10.2,4.4c-3,1.9-5.5,4.3-7.6,7.1c-2.1,2.8-3.7,6.1-4.7,9.7c-0.9,3.3-1.3,6.1-1.2,8.5c0.1,2.4,0.9,4.6,2.3,6.5
		c1.4,1.9,3.5,3.7,6.2,5.3c2.7,1.6,6.2,3.2,10.5,4.8c2.9,1.1,5.3,2.1,7.3,3.1c2,1,3.6,2.1,4.8,3.4c1.2,1.3,1.9,2.8,2.1,4.6
		c0.2,1.8,0,3.9-0.7,6.5c-0.7,2.6-1.8,4.9-3.3,6.9c-1.5,2.1-3.2,3.8-5.2,5.2c-2,1.4-4.3,2.5-6.8,3.3c-2.5,0.8-5.2,1.2-8.1,1.2
		c-7.9,0-15.6-1.8-23-5.5l-4.7,7.6c1.5,1,3.2,1.9,5.1,2.6c2,0.8,4.1,1.4,6.3,2c2.2,0.6,4.5,1,6.9,1.3c2.4,0.3,4.7,0.4,7,0.4
		c4.7,0,9-0.6,12.9-1.7c4-1.1,7.5-2.8,10.6-5c3.1-2.2,5.8-4.9,8-8.1c2.2-3.2,3.9-6.9,5.1-11.1c1-3.5,1.3-6.4,1-8.9
		c-0.4-2.5-1.3-4.7-2.8-6.6c-1.5-1.9-3.6-3.6-6.2-5s-5.7-2.9-9.2-4.3c-3.9-1.5-6.9-2.9-9.1-4.2c-2.2-1.3-3.7-2.6-4.7-3.9
		c-0.9-1.3-1.4-2.8-1.3-4.3c0.1-1.5,0.4-3.3,1-5.4c1.2-4.1,3.7-7.4,7.5-9.7c3.8-2.4,8.6-3.5,14.3-3.5c2.8,0,5.7,0.3,8.6,0.8
		c2.9,0.6,6.3,1.5,10.1,2.7l4.4-8.1c-2.2-0.7-4.2-1.3-6-1.8C1065.7,312,1063.9,311.6,1062.3,311.3z"/>
</g>
</svg>
