<svg width="129" height="14" viewBox="0 0 129 14" fill="none" xmlns="http://www.w3.org/2000/svg">
<path d="M61.9442 0.0627816L56.5768 4.84017L56.4202 4.6992C55.4151 3.80377 52.1623 0.906004 51.199 0.0627816L51.1442 0.0131836H48.6693V13.5883H51.2642V3.57665C53.2457 5.33097 56.4071 8.01466 56.4411 8.05643L56.5664 8.16607L56.6917 8.05643C56.7334 8.02249 60.4849 4.79318 61.8685 3.57665V13.5987H64.4817V0.0236242H62.0069L61.9442 0.0627816Z" fill="#fff"/>
<path d="M4.04643 2.6106H12.9042L13.6874 0H4.04904C3.51687 -4.42438e-07 2.98992 0.104904 2.49833 0.308714C2.00674 0.512523 1.56015 0.811237 1.18409 1.18778C0.808035 1.56432 0.509894 2.0113 0.306718 2.50315C0.103542 2.99501 -0.000682857 3.52209 3.36665e-06 4.05426C-0.000212104 4.65431 0.134511 5.24674 0.394203 5.78769C0.723566 6.47823 1.24148 7.06157 1.88817 7.47037C2.53486 7.87917 3.28397 8.09677 4.04904 8.09807H9.62788C9.9998 8.11389 10.3512 8.27277 10.6088 8.54154C10.8664 8.8103 11.0102 9.16817 11.0102 9.54042C11.0102 9.91268 10.8664 10.2705 10.6088 10.5393C10.3512 10.8081 9.9998 10.9669 9.62788 10.9828H0.783182L3.36665e-06 13.5934H9.63049C10.7016 13.5934 11.7288 13.1679 12.4862 12.4105C13.2436 11.6531 13.6691 10.6259 13.6691 9.55478C13.6691 8.48368 13.2436 7.45645 12.4862 6.69907C11.7288 5.94168 10.7016 5.51619 9.63049 5.51619L4.04904 5.49008C3.66616 5.49008 3.29896 5.33798 3.02822 5.06724C2.75748 4.7965 2.60538 4.42931 2.60538 4.04642C2.60538 3.66354 2.75748 3.29634 3.02822 3.0256C3.29896 2.75486 3.66616 2.60276 4.04904 2.60276L4.04643 2.6106Z" fill="#fff"/>
<path d="M26.9048 5.52688H18.5457V0.0341797H15.9429V13.6223H18.5457V8.12964H26.9048V13.6223H29.5076V0.0341797H26.9048V5.52688Z" fill="#fff"/>
<path d="M113.3 4.05972C113.299 2.99611 112.877 1.97614 112.127 1.2221C111.377 0.46806 110.359 0.0410675 109.295 0.0341797H99.7692V13.6093H102.38V8.08265H106.494L110.334 13.5649H113.524L109.645 8.06438C110.643 7.97031 111.57 7.50807 112.246 6.76774C112.921 6.0274 113.297 5.06202 113.3 4.05972ZM110.689 4.05972C110.689 4.43283 110.542 4.79081 110.28 5.05682C110.019 5.32284 109.663 5.47566 109.29 5.4825H102.369V2.63694H109.287C109.661 2.6431 110.017 2.79563 110.279 3.06172C110.541 3.3278 110.689 3.68617 110.689 4.05972Z" fill="#fff"/>
<path d="M45.6828 2.63694L46.4556 0.0341797H32.7839V13.6223H46.4556L45.6828 11.0196H35.384V8.12964H44.1974V5.52688H35.384V2.63694H45.6828Z" fill="#fff"/>
<path d="M96.7513 2.63694L97.524 0.0341797H83.8497V13.6223H97.524L96.7513 11.0196H86.4525V8.12964H95.2633V5.52688H86.4525V2.63694H96.7513Z" fill="#fff"/>
<path d="M77.1849 0.0341797H67.6666V13.6093H77.1849C78.2395 13.6043 79.2509 13.1899 80.0059 12.4535C80.7608 11.7171 81.2002 10.7162 81.2313 9.66206V9.46104C81.2099 8.48239 80.831 7.54542 80.1662 6.82695C80.8303 6.10597 81.209 5.16766 81.2313 4.18764V3.98662C81.2015 2.93154 80.7627 1.92936 80.0076 1.19183C79.2526 0.454298 78.2403 0.0391788 77.1849 0.0341797ZM77.1849 5.51643H70.2668V2.64478H77.1849C77.5657 2.64478 77.9309 2.79605 78.2001 3.06532C78.4694 3.33459 78.6207 3.6998 78.6207 4.0806C78.6207 4.46141 78.4694 4.82662 78.2001 5.09589C77.9309 5.36516 77.5657 5.51643 77.1849 5.51643ZM70.2668 8.12703H77.1849C77.5657 8.12703 77.9309 8.2783 78.2001 8.54757C78.4694 8.81684 78.6207 9.18205 78.6207 9.56286C78.6207 9.94366 78.4694 10.3089 78.2001 10.5781C77.9309 10.8474 77.5657 10.9987 77.1849 10.9987H70.2668V8.12703Z" fill="#fff"/>
<path d="M122.628 8.11922H126.319V11.0039H119.401C119.019 11.0032 118.653 10.8512 118.383 10.5811C118.113 10.311 117.961 9.94485 117.96 9.56287V4.08062C117.96 3.69819 118.112 3.33139 118.382 3.06072C118.652 2.79006 119.018 2.63765 119.401 2.63696H128.217L129 0.0263672H119.195C118.158 0.0779912 117.181 0.526447 116.466 1.2788C115.751 2.03115 115.353 3.02971 115.354 4.06757V9.54982C115.355 10.5888 115.755 11.5878 116.472 12.3397C117.188 13.0916 118.167 13.5388 119.205 13.5884H128.922V5.49557H123.4L122.628 8.11922Z" fill="#fff"/>
</svg>
