<svg xmlns="http://www.w3.org/2000/svg" width="200" height="155" fill="none"><path fill="url(#a)" d="M.1 63.861c0-1.1.8-2 1.8-2.2 1.5-.2 2.9-.4 4.3-.5 2-.2 3.9-.3 5.5-.3 1.8 0 3.7.1 5.5.4 1.5.2 2.9.8 4.2 1.5 1.1.7 2 1.7 2.6 2.9.7 1.4 1 2.8.9 4.4 0 1.5-.4 3-1.2 4.4-1 1.4-2.4 2.4-4 3 1.1.4 2.1.9 3.1 1.6 1.4 1 2.4 2.5 2.8 4.1.2.8.3 1.5.2 2.3.1 1.5-.3 3-1 4.4-.6 1.1-1.6 2.1-2.7 2.8-1.2.7-2.6 1.2-4 1.5-1.6.3-3.3.4-4.9.4H2c-1.3.1-2-.4-2-1.6v-29.1h.1Zm9.2 7.9c0 1.2 1 2.2 2.2 2.2h.7c1 .1 2.1-.1 3-.7.7-.6 1.1-1.6 1-2.5.1-.9-.2-1.8-.9-2.5-1-.5-2-.8-3.1-.7H9.4l-.1 4.2Zm0 13.1c0 1.2 1 2.2 2.2 2.2h1c1.2.1 2.4-.2 3.4-.8.7-.6 1.1-1.6 1-2.5.1-1-.3-1.9-1.1-2.6-1.2-.6-2.5-.9-3.8-.8h-.4c-1.2 0-2.2 1-2.2 2.2v2.3h-.1Z"/><path fill="url(#b)" d="M33.4 67.26c-1.4.1-2.8-.2-4-.8-.8-.7-1.3-1.7-1.2-2.8-.1-1.1.3-2.1 1.2-2.8 1.2-.7 2.6-1 4-.8 1.4-.1 2.8.2 4 .8.8.7 1.3 1.7 1.2 2.8.1 1.1-.3 2.1-1.2 2.8-1.2.7-2.6.9-4 .8Zm4.6 25.7c0 .9-.7 1.6-1.6 1.7h-5.5c-1.3 0-2-.6-2-1.7v-21.6c0-.9.7-1.6 1.6-1.6h5.6c1.3 0 2 .6 2 1.7l-.1 21.5Z"/><path fill="url(#c)" d="M58.8 94.36c-1 .3-2 .5-3 .6-1 .1-1.9.2-2.9.2-1.3 0-2.6-.1-3.9-.3-1.1-.2-2-.7-2.9-1.4-.9-.7-1.5-1.6-1.9-2.6-.5-1.3-.7-2.8-.7-4.2v-10.7h-1.1c-1.3 0-2-.6-2-1.7v-4.5h3.4l.4-6.1h6.3c1.3 0 2 .6 2 1.7v4.4h4.1c1.3 0 2 .6 2 1.7v4.6h-6.1v10.5c-.2 1.2.7 2.4 1.9 2.6h2.3c1.3 0 2 .6 2 1.7l.1 3.5Z"/><path fill="url(#d)" d="M64 94.661c-1.3 0-2-.6-2-1.7v-31c2-.3 4.1-.6 6.2-.8 2.1-.2 4-.3 5.6-.3 2 0 4 .1 6 .5 1.5.3 3 1 4.2 1.9 1.1.9 2 2.1 2.5 3.4.6 1.7.8 3.4.8 5.2 0 4-.9 6.8-2.9 8.6-2 1.8-4.7 2.7-8.4 2.7-.9 0-1.7 0-2.6-.1-.8-.1-1.5-.2-2-.3v11.8l-7.4.1Zm7.2-18.6c.4 0 .8.1 1.2.1h1c.7 0 1.4 0 2.1-.1.5-.1 1-.3 1.5-.6.4-.3.7-.8.8-1.3.2-.7.3-1.4.3-2 0-.7-.1-1.3-.3-1.9-.1-.4-.4-.9-.8-1.2-.4-.3-.8-.5-1.3-.6-.6-.1-1.2-.2-1.8-.2h-2.7v7.8Z"/><path fill="url(#e)" d="M101.5 95.261c-1.9 0-3.9-.2-5.7-.7-1.5-.4-2.8-1.2-3.9-2.3-1.1-1.1-1.8-2.5-2.2-4-.5-1.9-.7-3.9-.7-5.9 0-2 .2-4 .7-6 .4-1.5 1.1-2.9 2.2-4.1 1.1-1.1 2.4-1.9 3.9-2.3 3.7-1 7.7-1 11.4 0 1.5.4 2.8 1.2 3.9 2.3 1.1 1.1 1.8 2.5 2.2 4.1.5 1.9.7 4 .7 6s-.2 4-.7 5.9c-.4 1.5-1.1 2.9-2.2 4s-2.4 1.9-3.9 2.3c-1.9.5-3.8.7-5.7.7Zm3.2-13.7c0-1 0-2-.1-3 0-.6-.2-1.2-.5-1.7-.2-.4-.6-.7-1-.8-1-.3-2.1-.3-3.2 0-.4.1-.8.4-1 .8-.3.5-.5 1.1-.5 1.7-.1 1-.1 2-.1 3s0 2.1.1 3.1c0 .6.2 1.2.5 1.8.2.4.6.7 1 .8 1 .3 2.1.3 3.2 0 .4-.1.8-.4 1-.8.3-.5.5-1.1.6-1.8v-3.1Z"/><path fill="url(#f)" d="M121.7 85.36c.8-.1 1.2 1.3 2.2 1.8 1.2.5 2.4.7 3.7.6.8-.1 1.3.1 1.3-.7 0-.3 0-.5-.2-.8-.2-.2-.4-.4-.6-.5-.4-.2-.8-.3-1.2-.4-.5-.1-1.1-.3-1.9-.4-1.3-.3-2.6-.6-3.9-1-1-.3-1.9-.8-2.7-1.5-.7-.5-1.3-1.2-1.6-2.1-.4-1-.6-2.1-.6-3.2-.1-1.4.2-2.8.8-4.1.5-1 1.2-1.9 2.1-2.5 1-.6 2.1-1.1 3.3-1.2 1.4-.2 2.8-.3 4.2-.3 1.7-.1 3.4.1 5 .6 5.2 2.5 4.8 6 4.8 6-1.6.8-3.5 2-4.6 2-1.1 0-2.1-2-3.3-2.3-.9-.2-1.9-.1-2.8.3-.6.1-1 .7-1 1.3 0 .6.3 1.2.9 1.3.9.3 1.9.6 2.8.8 1.5.3 2.9.7 4 1 1 .3 2 .7 2.8 1.4.7.6 1.3 1.3 1.6 2.1.4 1 .6 2.1.5 3.2 0 1.3-.3 2.6-.9 3.8-.5 1.1-1.4 1.9-2.4 2.6-.9.7-1.9 1.1-3 1.3-1.4.2-2.7.4-4.1.3-1.9.1-3.7-.4-5.3-1.3-3.8-2.3-5.6-5.2-5.6-5.8l5.7-2.3Z"/><path fill="url(#g)" d="M156.7 94.36c-1 .3-2 .5-3 .6-1 .1-1.9.2-2.9.2-1.3 0-2.6-.1-3.9-.4-1.1-.2-2-.7-2.9-1.4-.8-.7-1.5-1.6-1.9-2.6-.5-1.3-.7-2.8-.7-4.2v-10.6h-1.1c-1.3 0-2-.6-2-1.7v-4.5h3.4l.4-6.1h6.3c1.3 0 2 .6 2 1.7v4.4h4.1c1.3 0 2 .6 2 1.7v4.6h-6.2v10.5c-.2 1.2.7 2.4 1.9 2.5h2.2c1.3 0 2 .6 2 1.7l.3 3.6Z"/><path fill="url(#h)" d="M171.6 94.662c-2.1.2-4.3 0-6.4-.6-1.4-.4-2.7-1.2-3.8-2.3-1.1-1-2-2.2-2.5-3.6-.5-2-.7-4-.7-6 0-4.6 1-8 3-10s5.1-3 9.3-3c1.8-.1 3.7.2 5.4.8 1.3.5 2.4 1.2 3.3 2.2.8 1 1.4 2.1 1.6 3.4.3 1.4.4 2.8.4 4.2v1.2c0 .5-.1 1-.2 1.5s-.2.9-.3 1.4c-.1.3-.2.7-.3 1h-13.8c-.1 1.3.4 2.6 1.3 3.4.9.6 2 .2 4 .2s3-2.1 3.9-2.1c1 .1 2 .5 2.9 1.1 1.3.8 1.7 1.6 1.7 2.2-.7 1.1-1.7 2-2.7 2.8-1.7 1.2-3.9 2-6.1 2.2Zm2-16c.1-1-.1-2.1-.7-3-.7-.6-1.6-.9-2.5-.8-1-.1-2.1.2-2.9.9-.6.9-.8 1.9-.8 2.9h6.9Z"/><path fill="url(#i)" d="M198.9 69.16c1.5 0 .8 1.2.8 2.3v4.3c-.2 0 .2 0 0 0-1.3.1-2.6.2-3.8.4-1.1 0-1.9.8-2 1.9v16.6h-7.1c-1.3 0-2-.6-2-1.7v-20.1c.3-.8.8-1.6 1.5-2.1 1.1-1 2.6-1.5 4.1-1.3.5-.1 7.2-.3 8.5-.3Z"/><defs><linearGradient id="a" x1="-1.663" x2="198.95" y1="77.74" y2="77.74" gradientUnits="userSpaceOnUse"><stop stop-color="#1C8AE2"/><stop offset=".486" stop-color="#8B00B3"/><stop offset="1" stop-color="#6900B5"/></linearGradient><linearGradient id="b" x1="-1.663" x2="198.95" y1="77.321" y2="77.321" gradientUnits="userSpaceOnUse"><stop stop-color="#1C8AE2"/><stop offset=".486" stop-color="#8B00B3"/><stop offset="1" stop-color="#6900B5"/></linearGradient><linearGradient id="c" x1="-1.663" x2="198.95" y1="79.439" y2="79.439" gradientUnits="userSpaceOnUse"><stop stop-color="#1C8AE2"/><stop offset=".486" stop-color="#8B00B3"/><stop offset="1" stop-color="#6900B5"/></linearGradient><linearGradient id="d" x1="-1.663" x2="198.95" y1="77.796" y2="77.796" gradientUnits="userSpaceOnUse"><stop stop-color="#1C8AE2"/><stop offset=".486" stop-color="#8B00B3"/><stop offset="1" stop-color="#6900B5"/></linearGradient><linearGradient id="e" x1="-1.663" x2="198.949" y1="82.225" y2="82.225" gradientUnits="userSpaceOnUse"><stop stop-color="#1C8AE2"/><stop offset=".486" stop-color="#8B00B3"/><stop offset="1" stop-color="#6900B5"/></linearGradient><linearGradient id="f" x1="-1.663" x2="198.95" y1="81.982" y2="81.982" gradientUnits="userSpaceOnUse"><stop stop-color="#1C8AE2"/><stop offset=".486" stop-color="#8B00B3"/><stop offset="1" stop-color="#6900B5"/></linearGradient><linearGradient id="g" x1="-1.663" x2="198.949" y1="79.437" y2="79.437" gradientUnits="userSpaceOnUse"><stop stop-color="#1C8AE2"/><stop offset=".486" stop-color="#8B00B3"/><stop offset="1" stop-color="#6900B5"/></linearGradient><linearGradient id="h" x1="-1.663" x2="198.95" y1="81.948" y2="81.948" gradientUnits="userSpaceOnUse"><stop stop-color="#1C8AE2"/><stop offset=".486" stop-color="#8B00B3"/><stop offset="1" stop-color="#6900B5"/></linearGradient><linearGradient id="i" x1="-1.663" x2="198.949" y1="81.91" y2="81.91" gradientUnits="userSpaceOnUse"><stop stop-color="#1C8AE2"/><stop offset=".486" stop-color="#8B00B3"/><stop offset="1" stop-color="#6900B5"/></linearGradient></defs></svg>