<svg xmlns="http://www.w3.org/2000/svg" width="200" height="155" fill="none"><path fill="url(#a)" d="M65.8 22.5c-1-7.4-9-12.3-9-12.3 2.2 3 3.7 6.4 4.4 10.1.5 2.7.3 5.5-.5 8.2-1.3-5.1-3.9-9.9-7.5-13.8-4.7-5-12.3-8.2-12.3-8.2S37.5 18.7 47 31c-2-1.4-4.1-2.5-6.4-3.3-3.5-1-7.1-1.2-10.7-.9 0 0 3.9 11.8 18.9 15.4C38.9 35.3 36 29.3 36 29.3c2.6.4 5.1 1.2 7.4 2.3 3 1.3 10.5 5.5 17.7 9.8-3.4-2.8-6.5-5.9-9.4-9.1-7.9-9.3-5.3-18.7-5.3-18.7 3.4 2 6.3 4.8 8.5 8.1 2.6 3.7 6.1 13.4 6.1 13.4s6-3.7 4.8-12.6Zm30.1 18.6c-4.3-1.2-8.7-2-13.1-2.4 0 0 3.8-.7 8.2-1.2 4.5-.4 9 .1 13.3 1.2-.4 1.6-1 3.1-1.8 4.6.9-.4 1.8-.9 2.7-1.5 1.8-1.1 3-2.9 3.4-5-4.4-2-9.3-2.7-14.1-2.1-.2 0-.7.1-.7.1.5-.2 1-.5 1.5-.9 2.8-2.2 4.8-5.3 5.7-8.8-3.6-.4-7.2-.3-10.8.2-5.3 1.1-9.8 4.6-12.2 9.5 2.5-1.8 5.1-3.3 7.9-4.5 2.5-.8 5.2-1.2 7.9-1.3-2.6 3.5-6.3 6-10.4 7.3-3.2.9-6.5 1.6-9.9 1.9 0 0 2.8-11.4 16.6-15 8.4-2.1 20.5.3 20.5.3S96.2 16.1 83.4 22c8.7-9.3 2.1-22 2.1-22s-8.6 1.7-14 6.5c-4.6 4.1-5.9 9.7-5.1 12.9 1.7-3 3.8-5.7 6.3-8 2.4-2.3 5.1-4.4 8.1-6.1.8 6.2 0 12.5-2.4 18.3C72.1 38.1 64 42.3 64 42.3s15.2-1.7 24.6.6c4.2.9 8.2 2.5 11.8 4.8 0 0-11.5 8-30.4 4-12.6-2.7-18.8-7.6-18.8-7.6 6.8 6.3 15.3 10.6 24.4 12.3 24.6 4.4 32.7-7.4 32.7-7.4-3.4-3.6-7.6-6.4-12.4-7.9ZM31.1 58.2c4.4-.2 8.8-.8 13.1-1.9-1.8 1.2-3.6 2.4-5.5 3.4-2.4 1.4-5.2 2-7.9 1.6-4.5-.6-8.8-2.4-12.4-5.1-.1-.1 3.5 2.2 12.7 2Zm-2.3-5.9c-6.4-2-12.1-5.9-16.4-11.1 5.4 1.8 11 3.3 16.6 4.4 7 1.3 16.4 4.2 21.3 8.4-3.7-6.7-11.6-11.5-21.8-12.8C6.4 38.4 1 33 0 32c1.1 3.3 6.5 17.5 20.4 22 11.3 3.7 25.1.6 25.1.6s-6.9 1-16.7-2.3Z"/><path fill="url(#b)" d="M55.1 75.7h-3l-.8 2.3h-1l3.1-8.3h.4l3.1 8.3h-1l-.8-2.3Zm-2.7-.8h2.4l-.9-2.5-.3-1.3-.3 1.3-.9 2.5Zm10.1-4.3h-3.4v7.3h-1v-8.2h4.4v.9Zm.8-.8h4.5v.9h-3.5v2.7h3.2v.9h-3.2v2.9h3.6v.9h-4.5v-8.3h-.1Zm11.2 4.4h-3.9V78h-1v-8.2h1v3.6h4v-3.6h1V78h-1l-.1-3.8Zm8.2-3.6h-2.6v7.3h-1v-7.3h-2.6v-.9h6.1v.9h.1Zm5.9 7c-.3.2-.6.3-.9.4-.4.1-.8.1-1.1.1-.5 0-.9-.1-1.3-.3-.4-.2-.8-.4-1.1-.8-.3-.4-.6-.8-.8-1.3-.2-.6-.3-1.3-.3-1.9 0-.7.1-1.3.3-1.9.2-.5.5-.9.8-1.3.3-.3.7-.6 1.1-.7.4-.1.8-.2 1.2-.2.4 0 .8 0 1.1.1.3 0 .5.1.8.2l-.2.9c-.5-.2-1.1-.3-1.6-.3-.3 0-.6.1-.9.2-.3.1-.6.3-.8.6-.3.3-.5.7-.6 1-.2.5-.2 1-.2 1.6 0 .5.1 1 .2 1.5.1.4.3.7.6 1.1.2.3.5.5.9.6.3.1.7.2 1.1.2.3 0 .6 0 .9-.1.2-.1.5-.2.7-.3l.1.6Zm6.7-7h-2.6v7.3h-1v-7.3h-2.5v-.9h6.1v.9Zm6.1 1c0 .2 0 .4-.1.6-.1.4-.4.8-.8 1-.2.2-.4.3-.7.3.2 0 .5.1.7.2.2.1.4.2.6.4.2.2.3.4.4.6.2.6.2 1.3-.1 1.9-.2.3-.4.6-.7.8-.3.2-.6.4-1 .4-.4.1-.8.1-1.1.1H97c-.2 0-.3 0-.5-.1v-8.1c.3-.1.7-.1 1-.1h1.3c.3 0 .6 0 .9.1.3 0 .6.1.9.3.3.1.5.4.6.6.2.4.2.7.2 1ZM98 73.4h1l.5-.2c.2-.1.3-.2.4-.3.1-.1.2-.3.3-.4.2-.4.2-.8 0-1.2-.1-.2-.2-.3-.4-.4-.2-.1-.4-.2-.6-.2H97.4v2.8l.6-.1Zm.7 3.8c.2 0 .5 0 .7-.1.2 0 .4-.1.6-.3.2-.1.3-.3.4-.5.1-.2.2-.4.2-.7 0-.5-.3-1-.7-1.2-.2-.1-.5-.2-.7-.2h-1.8v2.9l1.3.1Zm4.3-3.3c-.1-1.1.3-2.2.9-3.1.6-.7 1.5-1.1 2.4-1.1.5 0 1 .1 1.5.3.4.2.8.5 1.1.9.3.4.5.9.6 1.3.1.6.2 1.1.2 1.7.1 1.1-.2 2.2-.9 3.1-.6.7-1.5 1.2-2.5 1.1-.5 0-1-.1-1.5-.3-.4-.2-.8-.5-1-.9-.3-.4-.5-.9-.6-1.3-.2-.6-.2-1.1-.2-1.7Zm1 0c0 .4 0 .9.1 1.3s.2.7.4 1.1c.2.3.4.6.7.7.3.2.7.3 1 .3.7 0 1.3-.3 1.7-.8.5-.8.7-1.7.6-2.6 0-.4 0-.9-.1-1.3s-.2-.7-.4-1.1c-.2-.3-.4-.6-.7-.7-.3-.2-.7-.3-1.1-.3-.7 0-1.3.3-1.7.8-.4.8-.6 1.7-.5 2.6Zm15.2-3.3h-3.8v7.3h-1v-8.2h5.7v8.2h-1v-7.3h.1Zm2.6 3.3c-.1-1.1.2-2.2.9-3.1.6-.8 1.5-1.2 2.5-1.1.5 0 1 .1 1.5.3.4.2.8.5 1 .9.3.4.5.9.6 1.3.1.6.2 1.2.2 1.7.1 1.1-.2 2.2-.9 3.1-.6.7-1.5 1.2-2.5 1.1-.5 0-1-.1-1.5-.3-.4-.2-.8-.5-1.1-.9-.3-.4-.5-.9-.6-1.3 0-.6 0-1.1-.1-1.7Zm1.1 0c0 .4 0 .9.1 1.3s.2.7.4 1.1c.2.3.4.6.7.7.3.2.7.3 1 .3.7 0 1.3-.3 1.7-.8.5-.8.7-1.7.6-2.6 0-.4 0-.9-.1-1.3s-.2-.7-.4-1.1c-.2-.3-.4-.6-.7-.7-.3-.2-.7-.3-1.1-.3-.7 0-1.3.3-1.7.8-.4.8-.6 1.7-.5 2.6Zm10.4-4.1c.3-.1.6-.1 1-.1h1c.4 0 .7 0 1.1.1.4.1.7.2 1 .4.3.2.6.5.7.8.2.4.3.8.3 1.3s-.1.9-.3 1.3c-.2.3-.4.6-.7.8-.3.2-.6.4-1 .5-.4.1-.8.1-1.2.1h-.9v3.1h-1v-8.3Zm2 .7h-1.1v3.4h.9c.3 0 .5 0 .8-.1.3-.1.5-.1.7-.3.2-.1.4-.3.5-.6.1-.3.2-.6.2-.9 0-.3-.1-.6-.2-.8-.1-.2-.3-.4-.5-.5-.2-.1-.4-.2-.7-.3 0 .1-.3.1-.6.1Zm7.8 5.2h-3l-.8 2.3h-1l3.1-8.4h.5l3.1 8.3h-1.1l-.8-2.2Zm-2.7-.8h2.4l-.9-2.5-.3-1.3-.3 1.3-.9 2.5Zm6.3-.8v-.8h1.3c.2 0 .4-.1.6-.2.2-.1.3-.2.5-.3.1-.1.2-.2.3-.4.1-.2.1-.3.1-.5s0-.4-.1-.6c-.1-.2-.2-.3-.4-.4-.2-.1-.3-.2-.5-.2-.2-.1-.4-.1-.6-.1-.4 0-.7 0-1.1.1-.2 0-.5.1-.7.2l-.3-.8c.3-.1.5-.2.8-.3.4-.1.9-.1 1.3-.1.3 0 .6 0 .9.1.3.1.6.2.8.3l.6.6c.2.3.2.6.2 1s-.1.8-.4 1.1c-.3.4-.7.7-1.2.8.5 0 1 .3 1.3.6.3.4.5.8.5 1.3 0 .4-.1.8-.3 1.2-.2.3-.4.6-.7.8-.3.2-.6.4-1 .5-.4.1-.8.1-1.1.1-.4 0-.9 0-1.3-.1-.3 0-.6-.1-.8-.2l.3-.9c.2.1.5.2.8.2.4.1.8.1 1.2.1.2 0 .5 0 .7-.1l.6-.3c.2-.1.3-.3.4-.5.1-.2.2-.5.2-.7 0-.4-.2-.8-.5-1.1-.4-.2-.9-.4-1.3-.4h-1.1Zm10.6-2.4c0 .2-.1.4-.1.6l-.3.6c-.1.2-.3.3-.5.5-.2.1-.4.2-.7.3.2 0 .5.1.7.2.2.1.4.2.6.4.4.4.6.9.5 1.4 0 .4-.1.8-.3 1.1-.2.3-.4.6-.7.8-.3.2-.6.4-1 .4-.4.1-.7.1-1.1.1h-1.6c-.2 0-.3 0-.5-.1v-8.1c.3-.1.7-.1 1-.1h1.3c.3 0 .6 0 .9.1.3 0 .6.1.9.3.3.1.5.4.6.6.2.2.3.5.3.9Zm-3.3 1.7h1c.2-.1.4-.1.5-.2.2-.1.3-.2.4-.3.1-.1.2-.3.3-.4.1-.2.1-.3.1-.5s0-.4-.1-.6c-.1-.2-.2-.3-.4-.4-.2-.1-.4-.2-.6-.2h-1.9v2.8l.7-.2Zm.6 3.9c.2 0 .5 0 .7-.1.2 0 .4-.1.6-.3.2-.1.3-.3.4-.5.1-.2.2-.4.2-.7 0-.5-.2-1-.7-1.2-.2-.1-.5-.2-.7-.2h-1.8v2.9l1.3.1Zm9.7-4.9v-.9l-.5 1-4 5.5h-.6v-8.2h1v5.6l-.1.9.5-1 4-5.6h.6v8.2h-1l.1-5.5Zm8.2-1.8H170v7.3h-1v-7.3h-2.6v-.9h6.1v.9Zm6.3 1.8.1-.9-.5 1-4 5.5h-.6v-8.2h1v5.6l-.1.9.5-1 4-5.6h.6v8.2h-1v-5.5Zm3.9 1h1.5c0-1 .3-2 .9-2.8.6-.7 1.4-1 2.3-1 .5 0 1 .1 1.5.3.4.2.7.5 1 .9.3.4.5.9.6 1.3.1.6.2 1.2.2 1.7.1 1.1-.2 2.2-.8 3.1-.6.8-1.5 1.2-2.4 1.1-.5 0-1-.1-1.4-.3-.4-.2-.7-.4-1-.8-.3-.4-.5-.8-.6-1.2-.1-.5-.2-1.1-.2-1.6h-1.4v3.8h-1v-8.2h1l-.2 3.7Zm2.5.5c0 .4 0 .9.1 1.3s.2.7.4 1.1c.2.3.4.6.7.7.9.5 2.1.3 2.7-.5.4-.8.6-1.7.5-2.6 0-.4 0-.9-.1-1.3s-.2-.7-.4-1.1c-.2-.3-.4-.6-.7-.7-.3-.2-.7-.3-1-.3-.7 0-1.3.3-1.6.8-.5.8-.6 1.7-.6 2.6ZM52 83.9v2.7c0 1.1.5 1.6 1.5 1.6.3 0 .7 0 1-.1.3-.1.6-.2.8-.4V84h1v8.2h-1v-3.5c-.3.1-.5.3-.8.4-.4.1-.8.2-1.2.2-.3 0-.6 0-.9-.1-.3-.1-.5-.2-.7-.4-.2-.2-.4-.4-.5-.7-.1-.4-.2-.7-.2-1.1v-2.9l1-.2Zm6.3 0h4.5v.9h-3.5v2.7h3.3v.9h-3.2v2.9h3.5v.9h-4.6v-8.3Zm10.6.8h-2.4l-.3 3.9c-.1.8-.3 1.6-.6 2.4-.1.3-.3.6-.6.8-.2.2-.5.3-.8.3h-.4c-.1 0-.2 0-.3-.1l.1-.9h.3c.1 0 .3 0 .4-.1.2-.1.3-.3.4-.5.1-.3.2-.6.3-.8.1-.4.2-.9.3-1.3 0-.5.1-1.2.2-1.9l.1-2.7h4.3V92h-1v-7.3Zm2.7 3.3c-.1-1.1.2-2.2.9-3.1.6-.7 1.5-1.2 2.5-1.1.5 0 1 .1 1.5.3.4.2.8.5 1.1.9.3.4.5.9.6 1.3.1.6.2 1.2.2 1.7.1 1.1-.2 2.2-.9 3.1-.6.7-1.5 1.2-2.5 1.1-.5 0-1-.1-1.5-.3-.4-.2-.8-.5-1-.9-.3-.4-.5-.9-.6-1.3-.3-.6-.3-1.1-.3-1.7Zm1 0c0 .4 0 .9.1 1.3s.2.7.4 1.1c.2.3.4.6.7.7.3.2.7.3 1 .3.7 0 1.3-.3 1.7-.8.5-.8.7-1.7.6-2.6 0-.4 0-.9-.1-1.3s-.2-.7-.4-1.1c-.2-.3-.4-.6-.7-.7-.3-.2-.7-.3-1-.3-.7 0-1.3.3-1.7.8-.5.7-.7 1.7-.6 2.6Zm12.3-2.3c0 .2 0 .4-.1.6l-.3.6c-.1.2-.3.3-.5.5-.2.1-.4.2-.7.3.2 0 .5.1.7.2.2.1.4.2.6.4.2.2.3.4.4.6.1.3.2.6.1.8 0 .4-.1.8-.3 1.1-.2.3-.4.6-.7.8-.3.2-.6.3-1 .4-.4.1-.8.1-1.1.1h-1.6c-.2 0-.3 0-.5-.1v-8.1c.3 0 .6-.1 1-.1h1.3c.3 0 .6 0 .9.1.3 0 .6.1.9.3.3.1.5.4.6.6.2.3.3.6.3.9Zm-3.4 1.8h.9c.2-.1.4-.1.5-.2.2-.1.3-.2.4-.3.3-.2.4-.6.4-.9 0-.2 0-.4-.1-.6-.1-.2-.2-.3-.4-.4-.2-.1-.4-.2-.6-.2-.2 0-.4-.1-.6-.1h-1.2v2.8l.7-.1Zm.6 3.8c.2 0 .5 0 .7-.1.2 0 .4-.1.6-.3.2-.1.3-.3.4-.5.1-.2.2-.4.2-.7 0-.5-.3-1-.7-1.2-.2-.1-.5-.2-.7-.2h-1.8v2.9l1.3.1Zm4.7-7.4h4.5v.9h-3.5v2.7H91v.9h-3.2v2.9h3.6v.9h-4.5l-.1-8.3Zm7.1 0v2.7c0 1.1.5 1.6 1.5 1.6.4 0 .7 0 1-.1.3-.1.5-.2.8-.4V84h1v8.2h-1v-3.5c-.3.1-.5.3-.8.4-.4.1-.8.2-1.2.2-.3 0-.6 0-.9-.1-.3-.1-.5-.2-.7-.4-.2-.2-.4-.4-.5-.7-.1-.4-.2-.7-.2-1.1v-2.9l1-.2Zm6.3 0h4.5v.9h-3.4v2.7h3.2v.9h-3.2v2.9h3.6v.9h-4.5l-.2-8.3Zm11.5 7.8c-.3.2-.6.3-.9.4-.4.1-.8.1-1.1.1-.5 0-.9-.1-1.3-.3-.4-.2-.8-.4-1.1-.8-.4-.4-.6-.8-.8-1.3-.2-.6-.3-1.3-.3-1.9 0-.7.1-1.3.3-1.9.2-.5.5-1 .8-1.3.3-.3.7-.6 1.1-.7.4-.2.9-.2 1.3-.2h1.1c.3 0 .5.1.8.2l-.2.9c-.5-.2-1.1-.3-1.6-.3-.3 0-.6.1-.9.2-.3.1-.6.3-.8.6-.3.3-.5.7-.6 1-.2.5-.2 1-.2 1.6 0 .5.1 1 .2 1.5.1.4.3.7.6 1.1.2.3.5.5.9.6.3.1.7.2 1.1.2.3 0 .6 0 .9-.1.2 0 .4-.1.6-.2l.1.6Zm3-3.4h-.6v3.8h-.9v-8.2h1v3.8l.5-.2 2.8-3.7h1.1l-2.7 3.5-.5.4.6.5 3 3.8h-1.2l-3.1-3.7Zm5.1-.3c-.1-1.1.2-2.2.9-3.1.6-.7 1.5-1.1 2.5-1.1.5 0 1 .1 1.5.3.4.2.8.5 1.1.9.3.4.5.9.6 1.3.1.6.2 1.2.2 1.7.1 1.1-.2 2.2-.9 3.1-.6.7-1.5 1.2-2.5 1.1-.5 0-1-.1-1.5-.3-.4-.2-.8-.5-1-.9-.3-.4-.5-.9-.6-1.3-.3-.6-.3-1.2-.3-1.7Zm1 0c0 .4 0 .9.1 1.3s.2.7.4 1.1c.2.3.4.6.7.7.3.2.7.3 1 .3.7 0 1.3-.3 1.7-.8.5-.8.7-1.7.6-2.5 0-.4 0-.9-.1-1.3s-.2-.7-.4-1.1c-.2-.3-.4-.6-.7-.7-.3-.2-.7-.3-1.1-.3-.7 0-1.3.3-1.7.8-.4.7-.6 1.6-.5 2.5Zm11.7-3.3h-3.4V92h-1v-8.2h4.4v.9Zm.2 3.3c-.1-1.1.2-2.2.9-3.1.6-.7 1.5-1.1 2.5-1.1.5 0 1 .1 1.5.3.4.2.8.5 1.1.9.3.4.5.9.6 1.3.1.6.2 1.2.2 1.7.1 1.1-.2 2.2-.9 3.1-.6.7-1.5 1.2-2.5 1.1-.5 0-1-.1-1.5-.3-.4-.2-.8-.5-1-.9-.3-.4-.5-.9-.6-1.3-.2-.6-.3-1.2-.3-1.7Zm1 0c0 .4 0 .9.1 1.3s.2.7.4 1.1c.2.3.4.6.7.7.3.2.7.3 1 .3.7 0 1.3-.3 1.7-.8.5-.8.7-1.7.6-2.5 0-.4 0-.9-.1-1.3s-.2-.7-.4-1.1c-.2-.3-.4-.6-.7-.7-.3-.2-.7-.3-1.1-.3-.7 0-1.3.3-1.7.8-.3.7-.5 1.6-.5 2.5Zm12 .3h-.5v3.8h-1v-8.2h1v3.8l.5-.2 2.8-3.7h1.1l-2.7 3.5-.5.4.6.5 3 3.8h-1.2l-3.1-3.7Zm9.6 1.5h-3l-.8 2.3h-1l3.1-8.3h.4l3.1 8.3h-1l-.8-2.3Zm-2.7-.9h2.4l-.9-2.5-.3-1.3-.3 1.3-.9 2.5Zm10.4-4.2h-3.8V92h-1v-8.2h5.7V92h-1v-7.3h.1Zm8 1.8.1-.9-.5 1-4 5.5h-.6v-8.2h1v5.6l-.1.9.5-1 4-5.6h.6V92h-1v-5.5Zm8.3-1.8h-2.6V92h-1v-7.3h-2.5v-.9h6.1v.9Zm4.3 5.1h-3l-.8 2.3h-1l3.1-8.3h.4l3.1 8.3h-1l-.8-2.3Zm-2.7-.9h2.4l-.9-2.5-.3-1.3-.3 1.3-.9 2.5Z"/><path fill="url(#c)" d="M190.8 84.7h-2.5l-.2 3.9c-.1.8-.3 1.6-.6 2.4-.1.3-.3.6-.6.8-.2.2-.5.3-.8.3h-.4c-.1 0-.2 0-.3-.1l.1-.9h.2c.1 0 .3 0 .4-.1.2-.1.3-.3.4-.5.1-.3.2-.6.3-.8.1-.4.2-.9.3-1.3.1-.5.1-1.2.2-1.9l.1-2.7h4.3V92h-1v-7.3h.1Zm6.9 5.1h-3l-.8 2.3h-1l3.1-8.3h.5l3.1 8.3h-1l-.9-2.3Zm-2.6-.9h2.4l-.9-2.5-.3-1.3-.3 1.3-.9 2.5Zm-139 13.501h-4v3.8h-1v-8.2h1v3.6h4v-3.6h1v8.2h-1v-3.8Zm6.9 1.5h-3l-.8 2.3h-1l3.1-8.3h.5l3.1 8.3h-1l-.9-2.3Zm-2.7-.9h2.4l-.9-2.5-.3-1.2-.3 1.3-.9 2.4Zm14.6 4.7h-.7l-.2-1.5h-5.8l-.2 1.5h-.7v-2.4h.8l.3-.6c.2-.4.3-.9.4-1.3.1-.6.2-1.3.3-2.2.1-1 .2-2.1.1-3.2h4.4v7.3h1.1l.2 2.4Zm-2.1-2.4v-6.5h-2.5c0 .9-.1 1.6-.1 2.3l-.2 1.8c-.1.5-.2.9-.3 1.3-.1.3-.2.6-.4 1l3.5.1Zm7.3-1.4h-3l-.8 2.3h-1l3.1-8.3h.5l3.1 8.3h-1l-.9-2.3Zm-2.7-.9h2.4l-.9-2.5-.3-1.2-.3 1.3-.9 2.4Z"/><path fill="url(#d)" d="M87.3 98.8h-2.5l-.3 3.9c-.1.8-.3 1.6-.6 2.4-.1.3-.3.6-.6.8-.2.2-.5.3-.8.3h-.4c-.1 0-.2 0-.3-.1l.1-.9h.3c.1 0 .3 0 .4-.1.2-.1.3-.3.4-.5.1-.3.2-.6.3-.8.1-.4.2-.9.3-1.3 0-.5.1-1.2.2-1.9l.1-2.7h4.3v8.2h-1l.1-7.3Zm3-.9h1v3.2h1.2c.4 0 .7 0 1.1.1.3.1.7.2.9.4.3.2.5.5.7.8.2.4.3.8.3 1.2 0 .4-.1.8-.3 1.2-.2.3-.4.6-.7.9-.3.2-.6.4-1 .5-.4.1-.8.2-1.3.2h-1.4l-.5-.1v-8.4Zm2 7.5c.3 0 .5 0 .8-.1.2-.1.5-.2.7-.3.2-.2.3-.4.4-.6.1-.3.2-.5.2-.8 0-.3-.1-.6-.2-.8-.1-.2-.3-.4-.5-.5-.2-.1-.4-.2-.7-.3h-1.8v3.3h.5l.6.1Zm9.4-3h-4v3.8h-1V98h1v3.6h4V98h1v8.2h-1v-3.8Zm3-4.5h4.5v.9h-3.6v2.7h3.2v.9h-3.2v2.9h3.6v.9h-4.5v-8.3Zm12.6 2.7.1-1.2-.4 1.1-2.2 3.8h-.3l-2.3-3.7-.4-1.1.2 1.2v5.5h-.9v-8.3h.7l2.6 4.2.4.9.4-.9 2.5-4.2h.8v8.2h-1l-.2-5.5Zm11.1-.8c0 .2 0 .4-.1.6l-.3.6c-.1.2-.3.3-.5.5-.2.1-.4.2-.7.3.2 0 .5.1.7.2.2.1.4.2.6.4.2.2.3.4.4.6.1.3.2.6.1.8 0 .4-.1.8-.3 1.1-.2.3-.4.6-.7.8-.3.2-.6.3-1 .4-.4.1-.7.1-1.1.1h-1.7c-.2 0-.3 0-.5-.1V98l1-.1h1.3c.3 0 .6 0 .9.1.3 0 .6.1.9.3.3.1.5.4.6.6.3.2.4.6.4.9Zm-3.4 1.8h1c.2-.1.4-.1.5-.2.2-.1.3-.2.4-.3.1-.1.2-.3.3-.4.2-.4.2-.8 0-1.2-.1-.2-.2-.3-.4-.4-.2-.1-.4-.2-.6-.2h-1.9v2.8l.7-.1Zm.7 3.8c.2 0 .5 0 .7-.1.2 0 .4-.1.6-.3.2-.1.3-.3.4-.5.1-.2.2-.4.2-.7 0-.3-.1-.5-.2-.8-.1-.2-.3-.4-.5-.5-.2-.1-.5-.2-.7-.2h-1.8v2.9h.2l1.1.2Zm4.2-3.4c-.1-1.1.2-2.2.9-3.1.6-.7 1.5-1.2 2.5-1.1.5 0 1 .1 1.5.3.4.2.8.5 1.1.9.3.4.5.9.6 1.3.1.6.2 1.2.2 1.7.1 1.1-.2 2.2-.9 3.1-.6.7-1.5 1.1-2.5 1.1-.5 0-1-.1-1.5-.3-.4-.2-.8-.5-1-.9-.3-.4-.5-.9-.6-1.3-.2-.4-.3-1.1-.3-1.7Zm1.1 0c0 .4 0 .9.1 1.3s.2.7.4 1.1c.2.3.4.6.7.7.3.2.7.3 1 .3.7 0 1.3-.3 1.7-.8.5-.8.7-1.7.6-2.5 0-.4 0-.9-.1-1.3s-.2-.7-.4-1.1c-.2-.3-.4-.6-.7-.7-.3-.2-.7-.3-1-.3-.7 0-1.3.3-1.7.8-.5.7-.7 1.6-.6 2.5Zm12.6 3.8c-.3.2-.6.3-.9.4-.4.1-.8.1-1.2.1-.5 0-.9-.1-1.3-.2-.4-.2-.8-.4-1.1-.8-.3-.4-.6-.8-.8-1.3-.2-.6-.3-1.3-.3-1.9 0-.7.1-1.3.3-2 .2-.5.5-1 .8-1.3.3-.3.7-.6 1.1-.7.4-.2.9-.2 1.3-.2s.8 0 1.1.1c.3 0 .5.1.8.2l-.2.9c-.5-.2-1.1-.3-1.6-.3-.3 0-.7.1-1 .2-.3.1-.6.3-.8.6-.3.3-.5.7-.6 1-.2.5-.2 1-.2 1.6 0 .5.1 1 .2 1.5.1.4.3.7.6 1.1.2.3.5.5.9.6.3.1.7.2 1.1.2.3 0 .6 0 .9-.1.2-.1.5-.1.7-.3l.2.6Zm6.6-7h-2.6v7.3h-1.1v-7.3h-2.6v-.9h6.1l.2.9Zm.3 3.2c-.1-1.1.2-2.2.9-3.1.6-.7 1.5-1.2 2.5-1.1.5 0 1 .1 1.5.3.4.2.8.5 1.1.9.3.4.5.9.6 1.3.1.6.2 1.2.2 1.7.1 1.1-.2 2.2-.9 3.1-.6.7-1.5 1.2-2.5 1.1-.5 0-1-.1-1.5-.3-.4-.2-.8-.5-1-.9-.3-.4-.5-.9-.6-1.3-.2-.5-.3-1.1-.3-1.7Zm1 0c0 .4 0 .9.1 1.3s.2.7.4 1.1c.2.3.4.6.7.7.3.2.7.3 1 .3.7 0 1.3-.3 1.7-.8.5-.8.7-1.7.6-2.5 0-.4 0-.9-.1-1.3s-.2-.7-.4-1.1c-.2-.3-.4-.6-.7-.7-.3-.2-.7-.3-1.1-.3-.7 0-1.3.3-1.7.8-.3.7-.6 1.6-.5 2.5Zm8.9.4h-.5v3.8h-1V98h1v3.8l.5-.2 2.7-3.7h1.1l-2.7 3.5-.5.4.6.5 3 3.8h-1.2l-3-3.7ZM166 98h4.5v.9H167v2.7h3.2v.9H167v2.9h3.6v.9h-4.5L166 98Z"/><defs><linearGradient id="a" x1="-.678" x2="211.863" y1="30.814" y2="30.814" gradientUnits="userSpaceOnUse"><stop stop-color="#1C8AE2"/><stop offset=".486" stop-color="#8B00B3"/><stop offset="1" stop-color="#6900B5"/></linearGradient><linearGradient id="b" x1="-.678" x2="211.863" y1="80.925" y2="80.925" gradientUnits="userSpaceOnUse"><stop stop-color="#1C8AE2"/><stop offset=".486" stop-color="#8B00B3"/><stop offset="1" stop-color="#6900B5"/></linearGradient><linearGradient id="c" x1="-.678" x2="211.863" y1="95.678" y2="95.678" gradientUnits="userSpaceOnUse"><stop stop-color="#1C8AE2"/><stop offset=".486" stop-color="#8B00B3"/><stop offset="1" stop-color="#6900B5"/></linearGradient><linearGradient id="d" x1="-.678" x2="211.863" y1="102.054" y2="102.054" gradientUnits="userSpaceOnUse"><stop stop-color="#1C8AE2"/><stop offset=".486" stop-color="#8B00B3"/><stop offset="1" stop-color="#6900B5"/></linearGradient></defs></svg>