<?xml version="1.0" encoding="utf-8"?>
<!-- Generator: Adobe Illustrator 22.1.0, SVG Export Plug-In . SVG Version: 6.00 Build 0)  -->
<svg version="1.1" id="Слой_1" xmlns="http://www.w3.org/2000/svg" xmlns:xlink="http://www.w3.org/1999/xlink" x="0px" y="0px"
	 viewBox="0 0 971.6 239.4" style="enable-background:new 0 0 971.6 239.4;" xml:space="preserve">
<style type="text/css">
	.st0{fill:#42B550;}
	.st1{fill:url(#SVGID_1_);}
	.st2{fill:#FFFFFF;}
	.st3{font-family:'GothamPro-Medium';}
	.st4{font-size:43.0454px;}
	.st5{letter-spacing:1;}
</style>
<g>
	<g>
		<polygon class="st0" points="85.2,116 165.1,83.6 133.5,163.1 119.7,129.5 		"/>
		<g>
			<linearGradient id="SVGID_1_" gradientUnits="userSpaceOnUse" x1="21.129" y1="235.076" x2="247.2784" y2="-17.9668">
				<stop  offset="0" style="stop-color:#0975D9"/>
				<stop  offset="1" style="stop-color:#1647C1"/>
			</linearGradient>
			<path class="st1" d="M228.7,116.8c0-26.9-10.3-51.5-27.2-69.9l40.3-40.3L237.2,2l-40.3,40.3c-18.6-17.9-43.9-29-71.8-29
				s-53.2,11-71.8,29L13.1,2L8.5,6.6l40.3,40.3C32,65.4,21.7,89.9,21.7,116.8c0,27.9,11,53.2,29,71.8L8.5,230.7l4.6,4.6l42.2-42.2
				c18.4,16.9,42.9,27.2,69.9,27.2c26.9,0,51.5-10.3,69.9-27.2l42.2,42.2l4.6-4.6l-42.1-42.1C217.6,170,228.7,144.7,228.7,116.8z
				 M172.5,170.6c-12.6,11.1-29.2,17.9-47.3,17.9s-34.7-6.8-47.3-17.9c-1.6-1.4-3.2-2.9-4.7-4.5c-12.2-12.9-19.7-30.2-19.7-49.3
				c0-18.1,6.8-34.7,17.9-47.3c1.4-1.6,2.9-3.2,4.5-4.7c12.9-12.2,30.2-19.7,49.3-19.7s36.4,7.5,49.3,19.7c1.6,1.5,3.1,3.1,4.5,4.7
				c11.1,12.6,17.9,29.2,17.9,47.3c0,19.1-7.5,36.4-19.7,49.3C175.7,167.7,174.1,169.2,172.5,170.6z"/>
		</g>
	</g>
	<text transform="matrix(1 0 0 1 323.1289 53.967)"><tspan x="0" y="0" class="st2 st3 st4 st5">ФОНД</tspan><tspan x="0" y="51.7" class="st2 st3 st4 st5">ПОДДЕРЖКИ</tspan><tspan x="0" y="103.3" class="st2 st3 st4 st5">ПРЕДПРИНИМАТЕЛЬСТВА</tspan><tspan x="0" y="155" class="st2 st3 st4 st5">ЮГРЫ</tspan></text>
</g>
</svg>
