<?xml version="1.0" encoding="utf-8"?>
<!-- Generator: Adobe Illustrator 22.1.0, SVG Export Plug-In . SVG Version: 6.00 Build 0)  -->
<svg version="1.1" id="Слой_1" xmlns="http://www.w3.org/2000/svg" xmlns:xlink="http://www.w3.org/1999/xlink" x="0px" y="0px"
	 viewBox="0 0 1144.5 424.8999939" style="enable-background:new 0 0 1144.5 424.8999939;" xml:space="preserve">
<style type="text/css">
	.st0{fill:#F40000;}
	.st1{fill:#FFFFFF;}
</style>
<g>
	<g>
		<g>
			<g>
				<polygon class="st0" points="67.8078995,226.151001 67.8078995,198.7489929 36.2264519,198.7489929 36.2264519,80.7823105 
					76.6323318,80.7823105 76.6323318,50.1293259 0,50.1293259 0,374.768219 36.2264519,374.768219 36.2264519,226.151001 				"/>
			</g>
			<g>
				<g>
					<path class="st0" d="M109.6056137,50.1293259c-5.2697144,1.8593788-9.9847107,4.6450119-14.1643829,8.361557
						c-4.1818848,3.7138481-7.5121613,8.5179825-9.9866714,14.3979111
						c-2.4816284,5.884346-3.7140884,13.0038605-3.7140884,21.3629608v236.3964691
						c0,8.3588562,1.23246,15.4855042,3.7140884,21.3629761c2.4745102,5.884613,5.8047867,10.6838074,9.9866714,14.3979187
						c4.1796722,3.7165527,8.8946686,6.5019226,14.1643829,8.3591003c5.2623444,1.859375,10.5222397,2.7878418,15.7914581,2.7878418
						h8.3593521c5.2598877,0,10.5222321-0.9284668,15.7894897-2.7878418
						c5.2623444-1.8571777,9.9869232-4.6425476,14.1663361-8.3591003c4.1794281-3.7141113,7.5028381-8.5133057,9.9844666-14.3979187
						c2.4747467-5.8774719,3.7163086-13.0041199,3.7163086-21.3629761V94.2517548
						c0-8.3591003-1.2415619-15.4786148-3.7163086-21.3629608c-2.4816284-5.8799286-5.8050385-10.684063-9.9844666-14.3979111
						c-4.1794128-3.7165451-8.9039917-6.5021782-14.1663361-8.361557
						c-5.2672577-1.8569221-10.5296021-2.7853851-15.7894897-2.7853851h-8.3593521
						C120.1278534,47.3439407,114.8679581,48.2724037,109.6056137,50.1293259z M138.4014282,342.0267334
						c-1.859375,3.2509766-4.4932556,4.8765869-7.896225,4.8765869h-1.8569183
						c-3.4123001,0-6.0388107-1.6256104-7.8957291-4.8765869c-1.8574142-3.250946-2.7880859-8.8968811-2.7880859-16.9519653
						v-98.8171844h23.2225876v98.8171844C141.1870575,333.1298523,140.2583466,338.7757874,138.4014282,342.0267334z
						 M130.5052032,77.9966812c7.1197662,0,10.6818542,7.2786331,10.6818542,21.826088v98.7629242h-23.2225876V99.8227692
						c0-14.5474548,3.5571747-21.826088,10.683815-21.826088H130.5052032z"/>
				</g>
			</g>
			<g>
				<g>
					<path class="st0" d="M247.0226746,247.0483856v69.6650848c0,16.7225952,0.3766937,29.651825,1.1462708,38.7827148
						c0.7622223,9.1355591,2.2124939,15.5579224,4.3547516,19.2720337h36.2966766
						c-0.3108521-0.6151428-0.7764587-2.0091858-1.3918152-4.1772156c-0.6242065-2.1658325-1.2415466-5.4961243-1.859375-9.9869385
						c-0.6242065-4.4858704-1.1600342-10.2908936-1.6251221-17.4151001
						c-0.4631348-7.1192627-0.6973877-15.9436951-0.6973877-26.4754944v-72.9160461
						c0-9.9026947-1.5293579-17.2559814-4.5841064-22.0598602c-3.0635986-4.7947998-6.8805847-7.8164215-11.4671631-9.0559998
						c4.5865784-1.5438385,8.4035645-4.7152405,11.4671631-9.5191345
						c3.0547485-4.7992096,4.5841064-12.1478424,4.5841064-22.0623169V96.5718079
						c0-14.8610382-4.2378845-26.3119812-12.713623-34.3670769c-8.4737549-8.0479774-18.7131195-12.0754051-30.7327881-12.0754051
						h-52.2261353V374.768219h36.2264404V226.151001h13.9325714
						C243.9237061,226.151001,247.0226746,233.1182709,247.0226746,247.0483856z M223.8005676,199.214325V80.7823105h12.5382843
						c7.1197662,0,10.6838226,7.1263885,10.6838226,21.3654175v76.6298752c0,13.6283264-3.0989685,20.4367218-9.2895355,20.4367218
						H223.8005676z"/>
				</g>
			</g>
			<g>
				<polygon class="st0" points="452.071167,374.768219 481.33255,50.1293259 449.7510986,50.1293259 430.7079468,274.9159851 
					429.3141479,274.9159851 410.2734375,50.1293259 375.4412842,50.1293259 405.628418,374.768219 				"/>
			</g>
			<g>
				<polygon class="st0" points="332.7173462,226.151001 364.2987671,226.151001 364.2987671,198.7489929 332.7173462,198.7489929 
					332.7173462,80.7823105 372.0842896,80.7823105 369.2557983,50.1293259 296.4913635,50.1293259 296.4913635,374.768219 
					375.908844,374.768219 375.908844,344.1152344 332.7173462,344.1152344 				"/>
			</g>
			<g>
				<g>
					<path class="st0" d="M499.1929321,58.4908829c-4.1818848,3.7138481-7.5126648,8.5179825-9.986908,14.3979111
						c-2.4816284,5.884346-3.7143555,13.0038605-3.7143555,21.3629608v236.3964691
						c0,8.3588562,1.2327271,15.4855042,3.7143555,21.3629761c2.4742432,5.884613,5.8050232,10.6838074,9.986908,14.3979187
						c4.1794434,3.7165527,8.8946533,6.5019226,14.1638794,8.3591003c5.2623291,1.859375,10.5227661,2.7878418,15.7919312,2.7878418
						h8.3588867c5.260376,0,10.5227051-0.9284668,15.789978-2.7878418
						c5.2623291-1.8571777,9.9864502-4.6425476,14.1663208-8.3591003c4.1794434-3.7141113,7.5028687-8.5133057,9.9844971-14.3979187
						c2.4742432-5.8774719,3.7163086-13.0041199,3.7163086-21.3629761V94.2517548
						c0-8.3591003-1.2420654-15.4786148-3.7163086-21.3629608c-2.4816284-5.8799286-5.8050537-10.684063-9.9844971-14.3979111
						c-4.1798706-3.7165451-8.9039917-6.5021782-14.1663208-8.361557
						c-5.2672729-1.8569221-10.5296021-2.7853851-15.789978-2.7853851h-8.3588867
						c-5.269165,0-10.5296021,0.928463-15.7919312,2.7853851C508.0875854,51.9887047,503.3723755,54.7743378,499.1929321,58.4908829
						z M542.1526489,342.0267334c-1.859375,3.2509766-4.4927979,4.8765869-7.895752,4.8765869h-1.8569336
						c-3.4127808,0-6.0393066-1.6256104-7.8961792-4.8765869c-1.8569336-3.250946-2.7880859-8.8968811-2.7880859-16.9519653
						v-98.8171844h23.2225952v98.8171844C544.9382935,333.1298523,544.0095825,338.7757874,542.1526489,342.0267334z
						 M534.256897,77.9966812c7.1192627,0,10.6813965,7.2786331,10.6813965,21.826088v98.7629242h-23.2225952V99.8227692
						c0-14.5474548,3.5576782-21.826088,10.6842651-21.826088H534.256897z"/>
				</g>
			</g>
			<g>
				<polygon class="st0" points="629.3276978,347.3661804 629.3276978,50.1293259 593.1011963,50.1293259 593.1011963,374.768219 
					667.8761597,374.768219 667.8761597,347.3661804 				"/>
			</g>
			<g>
				<path class="st0" d="M753.99823,366.4091187c4.1582642-3.7141113,7.4679565-8.5133057,9.9353638-14.3979187
					c2.4673462-5.8774719,3.7000732-13.0041199,3.7000732-21.3629761V50.1293259h-36.223999v274.9454346
					c0,8.0550842-0.9287109,13.7010193-2.7880859,16.9519653c-1.8569336,3.2509766-4.338562,4.8765869-7.4301758,4.8765869
					h-2.3225098c-3.4103394,0-6.0368042-1.6256104-7.8961792-4.8765869
					c-1.8569336-3.250946-2.7856445-8.8968811-2.7856445-16.9519653V50.1293259h-36.2264404v280.5188904
					c0,8.3588562,1.3078613,15.4855042,3.927002,21.3629761c2.6196289,5.884613,6.0088501,10.7633667,10.1671143,14.6319275
					c4.1583252,3.8729553,8.8598022,6.6607971,14.0985718,8.3591003c5.2387695,1.6978149,10.4805298,2.553833,15.7192993,2.553833
					h7.8515015c5.5432739,0,10.9367676-0.9284668,16.1755371-2.7878418
					C745.1384277,372.9110413,749.8325195,370.1256714,753.99823,366.4091187z"/>
			</g>
			<g>
				<polygon class="st0" points="774.0142822,50.1293259 774.0142822,80.7823105 805.5952148,80.7823105 805.5952148,198.5856934 
					791.065979,198.5856934 791.065979,226.2575836 805.5952148,226.2575836 805.5952148,374.768219 841.8217163,374.768219 
					841.8217163,226.2575836 855.8863525,226.2575836 855.8863525,198.5856934 841.8217163,198.5856934 841.8217163,80.7823105 
					872.9380493,80.7823105 872.9380493,50.1293259 				"/>
			</g>
			<g>
				<rect x="879.3181763" y="50.1293259" class="st0" width="36.2264519" height="324.6388855"/>
			</g>
			<g>
				<g>
					<path class="st0" d="M940.9352417,58.4908829c-4.1818237,3.7138481-7.512146,8.5179825-9.9868774,14.3979111
						c-2.4816284,5.884346-3.7138672,13.0038605-3.7138672,21.3629608v236.3964691
						c0,8.3588562,1.2322388,15.4855042,3.7138672,21.3629761c2.4747314,5.884613,5.8050537,10.6838074,9.9868774,14.3979187
						c4.1794434,3.7165527,8.8947144,6.5019226,14.1639404,8.3591003c5.2628174,1.859375,10.5227051,2.7878418,15.7919312,2.7878418
						h8.359314c5.2599487,0,10.5222778-0.9284668,15.7895508-2.7878418
						c5.2623291-1.8571777,9.9868774-4.6425476,14.1663208-8.3591003c4.1794434-3.7141113,7.5028076-8.5133057,9.984436-14.3979187
						c2.4747925-5.8774719,3.7163086-13.0041199,3.7163086-21.3629761V94.2517548
						c0-8.3591003-1.2415161-15.4786148-3.7163086-21.3629608c-2.4816284-5.8799286-5.8049927-10.684063-9.984436-14.3979111
						c-4.1794434-3.7165451-8.9039917-6.5021782-14.1663208-8.361557
						c-5.2672729-1.8569221-10.5296021-2.7853851-15.7895508-2.7853851h-8.359314
						c-5.2692261,0-10.5291138,0.928463-15.7919312,2.7853851
						C949.8299561,51.9887047,945.1146851,54.7743378,940.9352417,58.4908829z M983.8954468,342.0267334
						c-1.859375,3.2509766-4.4932251,4.8765869-7.8961792,4.8765869h-1.8569336
						c-3.4122925,0-6.0388184-1.6256104-7.895752-4.8765869c-1.8574219-3.250946-2.7880859-8.8968811-2.7880859-16.9519653
						v-98.8171844h23.2221069v98.8171844C986.680603,333.1298523,985.7523804,338.7757874,983.8954468,342.0267334z
						 M975.9992676,77.9966812c7.1192627,0,10.6813354,7.2786331,10.6813354,21.826088v98.7629242h-23.2221069V99.8227692
						c0-14.5474548,3.5571899-21.826088,10.6838379-21.826088H975.9992676z"/>
				</g>
			</g>
			<g>
				<polygon class="st0" points="1064.6164551,374.768219 1064.6164551,162.5227814 1065.545166,162.5227814 
					1104.0941162,374.768219 1144.5,374.768219 1144.5,50.1293259 1111.5247803,50.1293259 1111.5247803,258.195343 
					1075.2983398,50.1293259 1034.4293213,50.1293259 1034.4293213,374.768219 				"/>
			</g>
		</g>
	</g>
	<g>
		<path class="st1" d="M286.0621643,164.5641785c19.2033386,0,37.1898499,9.737793,37.1898499,32.0537567v32.1880341
			c0,22.0457916-17.9865112,31.6478882-37.1898499,31.5123901h-35.8368988v-95.7541809H286.0621643z M286.8739319,237.5969086
			c8.2493286,0,12.035553-4.1925201,12.035553-10.4138641v-29.8894501c0-6.2213287-3.9217224-10.1434631-12.035553-10.1434631
			h-12.3063354v50.4467773H286.8739319z M420.8092651,260.3183594h-25.9650574l-6.2211304-19.2047882h-25.5591736
			l-5.9503174,19.2047882h-25.9650574l33.4030151-95.7541809h22.0429077L420.8092651,260.3183594z M382.8082275,219.6093597
			l-6.6268005-27.9955139h-0.6758728l-7.0322876,27.9955139H382.8082275z M462.6900635,229.8879242h-4.3274231v30.4304352
			h-24.4776306v-95.7541809h38.271637c19.7443237,0,35.0257263,9.0613098,35.5667114,31.5121765
			c0,17.7175598-7.1677856,27.7255249-18.7976685,31.3770752l26.1003723,32.8649292h-30.1573792L462.6900635,229.8879242z
			 M472.5623169,209.0599976c15.2814331,0,15.2814331-21.9098663,0-21.9098663h-14.1996765v21.9098663H472.5623169z
			 M578.3567505,164.5641785h30.1573486l-37.8661499,46.2540588l37.730835,49.5001221H577.680481l-24.477417-34.2174683
			l-0.8117676,1.0821533v33.1353149h-24.3419189v-95.7541809h24.3419189v35.4349213L578.3567505,164.5641785z
			 M628.9614258,230.0232239c9.6018677,11.6311188,30.6983643,12.1720886,31.3740234,1.8939362
			c0.2709961-5.4095612-8.519104-8.5209503-16.362793-9.6031189c-15.4168701-2.4342957-29.4816895-12.1720886-29.4816895-30.4302063
			c0-18.7989044,17.0400391-28.6722107,34.6203003-28.6722107c11.6304932,0,22.8548584,3.2458649,32.7271118,15.2828674
			l-15.8225708,12.1720886c-10.0075684-10.6844482-27.182312-10.2787781-27.5877686,0.8115692
			c0.2699585,4.5982056,5.2738647,7.3030853,12.711792,8.9266357c17.039856,3.1101532,34.0793457,9.0608978,32.9971313,32.5939178
			c-0.8109131,18.528717-20.2852783,28.6721954-37.8654785,28.6721954c-11.4952393,0-23.6660767-5.8152466-32.5916748-17.311676
			L628.9614258,230.0232239z M723.2460938,260.3183594h-24.2070313v-95.7541809h24.2070313V260.3183594z M777.5281982,164.5641785
			c19.2033691,0,37.1898804,9.737793,37.1898804,32.0535583v32.1882324c0,22.0453796-17.9865112,31.6478882-37.1898804,31.5123901
			h-35.8375244v-95.7541809H777.5281982z M778.3393555,237.5969086c8.2493286,0,12.0361938-4.1925201,12.0361938-10.4138641
			v-29.8894501c0-6.2213287-3.9217529-10.1434631-12.0361938-10.1434631h-12.3061523v50.4467773H778.3393555z
			 M856.0292969,202.1623993h38.8123779v20.9634247h-38.8123779v14.3357849h42.1931763v22.8567505h-66.6705933v-95.7541809
			h66.6705933v22.7212372h-42.1931763V202.1623993z"/>
	</g>
</g>
</svg>
