<svg xmlns="http://www.w3.org/2000/svg" width="200" height="155" fill="none"><path fill="url(#a)" d="m.2 92.8 1.8.1 2.1.2 2.7.3.7.1h.8l1.6.2c.6.1 1.1.1 1.7.1l1.8.1h3.8c1.3 0 2.6-.1 3.9-.2l7.7-.4 3.6-.2 3.2-.1 4.8-.2h1.8l-1.8.2-4.8.4-3.2.3-11.3.9-3.9.3h-5.7c-.6 0-1.2-.1-1.8-.1l-1.6-.2-1.5-.3-2.6-.5-2-.4-1.8-.6Zm0-1.4 1.8-.2 2.1-.2 2.7-.2.8-.1h.8c.5 0 1.1 0 1.6-.1h7.4l3.9.1 3.9.1 7.4.3 3.2.1 4.8.2c1.1 0 1.8.1 1.8.1H29l-3.8-.1H13.5l-3.6.1H2c.1 0-1.8-.1-1.8-.1Zm0-1.3 1.7-.6 2-.6 2.6-.8 1.5-.4.8-.2.8-.2c1.2-.2 2.4-.3 3.6-.4 1.3-.1 2.6-.1 3.9 0l4 .4 7.8.9 3.6.4 3.2.4 4.8.6 1.8.3-1.8-.1-4.8-.3-6.8-.6-11.8-1.1c-1.3-.1-2.5-.1-3.8 0-.6 0-1.2.1-1.8.1l-.9.1h-.4l-.4.1c-.3 0-.6 0-.8.1l-.8.1-1.5.4-2.6.6-2.1.4-1.8.4Zm42.1-1.4-1.9-.3-4.9-.8-3.3-.5-3.6-.6-3.9-.7-6-1-1-.2-.5-.1-.5-.1h-2.9l-.9.1c-1.2.1-2.4.3-3.5.7-1.1.3-2.1.8-3 1.2l-2.6 1-2 .8-1.8.6 1.7-.9 1.9-1 2.5-1.2c1-.5 2-1 3-1.4l.9-.3c.3-.1.6-.1.9-.2l.5-.1h.5c.3 0 .6-.1 1-.1l1-.1h2.6l.5.1h.5l.5.1 1 .2 2 .4 4 .8 3.9.8 3.6.8 3.2.7 4.8 1 1.8.3Z"/><path fill="url(#b)" d="m42.3 94.2-1.8.3-4.8.9-3.2.6-3.6.6-7.8 1.3-2 .3c-.3 0-.7.1-1 .1h-1c-.7.1-1.3.1-2 .1h-1.9c-1.2-.1-2.5-.3-3.7-.6l-.4-.1c-.1-.1-.3-.1-.4-.1l-.8-.2-1.5-.6-2.6-1-1.9-.8-1.8-.8 1.8.5 2 .6 2.6.8 1.5.5.8.2.4.1.4.1c1.2.3 2.3.4 3.5.5H15c.6 0 1.3 0 1.9-.1h.5l.5-.1c.3 0 .7-.1 1-.1l9.8-1.4 3.6-.5 3.2-.4 4.9-.6 1.9-.1Zm0 1.3-1.8.5-4.9 1.3-3.2.8-3.6.9-7.9 1.9-2 .5-1 .3h-.5l-.5.1h-2c-.7.1-1.4.1-2.1.1-1.3-.2-2.5-.5-3.7-1.1-.3-.1-.6-.3-.8-.4l-.7-.4-1.4-.8L2 96.6.3 95.5l.5.2 1.3.6 4.5 2.2 1.4.8.8.4.8.4c1.1.4 2.3.7 3.5.9.6.1 1.3.1 1.9.2h1.9l.5-.1h.1l.1-.1h.2c.3 0 .7-.1 1-.2l2.1-.7 4-.9 3.9-.9 6.9-1.4 4.9-1 1.7-.4Zm0-8.1-1.9-.4-5-1.2-3.3-.8-3.7-.9-8-2.1-2-.6-1-.3-.3-.1h-.2l-.2-.1h-.3c-1.3-.2-2.6-.2-3.8.1-1.2.2-2.4.6-3.4 1.2L6.3 84l-4.4 2.6-1.3.7-.4.2.4-.3 1.1-.9 4.2-2.9 1.4-.9.7-.4.8-.5c1.1-.7 2.4-1.1 3.7-1.4.7-.1 1.4-.2 2.1-.2.7 0 1.4 0 2.1.1h.6l.3.1.2.1 1 .3 2 .6 7.9 2.4 3.6 1.1 3.3 1 4.9 1.4 1.8.3Zm0-1.4-1.9-.6-5-1.6-3.4-1.1-3.8-1.3-4-1.4-4.2-1.4-2-.8-.5-.2-.3-.1H17l-.5-.1-.5-.1c-.7-.1-1.4-.1-2-.1-.7.1-1.3.2-1.9.3-.6.2-1.2.4-1.8.7-.1.1-.3.1-.4.2-.1.1-.2.2-.4.3l-.4.3-.4.3-2.8 2.2-4.2 3.3-1.2.9-.4.3.4-.4 1.1-1L5.5 81l3.4-3c.1-.1.3-.2.4-.3.1-.1.3-.2.4-.3.6-.4 1.3-.6 1.9-.8 1.4-.4 2.9-.6 4.4-.3.2 0 .4.1.6.1l.5.2h.2l.3.1 6.7 2.4 4 1.4 7 2.6 5 1.9 2 1Zm0-1.4-1.9-.8-8.6-3.5-3.8-1.6-8.3-3.6-2.1-.9-.5-.2H17l-.3-.1-.5-.1-.6-.1c-1.4-.2-2.9 0-4.2.6-.6.3-1.1.6-1.6 1.1l-1.4 1.5-2.6 2.6-4 3.9-1.1 1.1-.4.3.3-.4 1-1.2L5.3 79c.8-.9 1.6-1.8 2.5-2.8l1.4-1.5c.5-.6 1.2-1 1.9-1.4 1.4-.7 3-1 4.6-.8l.6.1c.2 0 .4.1.6.2l.3.1h.3l.5.2 2.1.9 12 5.4 3.4 1.6 5 2.4 1.8 1.2Zm0-1.4L35 79.7l-11.6-5.8-4.3-2.2-2.2-1.1-.2-.1-.3-.1-.5-.2-.5-.1c-.2 0-.4-.1-.5-.1-.8-.1-1.5 0-2.2.2-.7.2-1.3.5-1.9 1-.3.2-.5.5-.7.7l-.7.9L8 74.4l-2.4 3-3.8 4.5-1.1 1.3-.4.4.3-.5 1-1.4L5.1 77l2.4-3.1 1.4-1.7.7-.9c.3-.3.5-.6.8-.9 1.3-1 3-1.5 4.7-1.4.2 0 .4 0 .6.1.2 0 .4.1.6.2l.6.3.6.3 2.2 1.1 4.2 2.3 4.2 2.2 7.3 4 5.1 2.9 1.8.8Zm0-1.3-2-1.1-9-5.1-4-2.3-4.2-2.5-4.4-2.7-2.2-1.3-.3-.1-.3-.1-.5-.2c-.4-.1-.8-.2-1.1-.2-1.5 0-3 .7-3.9 1.9l-5.1 7.1-2.1 2.8-1.6 2.2-1.1 1.4c-.1.2-.2.3-.4.5l.3-.5.9-1.5 1.4-2.3C3.2 77 3.9 76 4.6 75L7 71.5l2.6-3.9c1.1-1.5 2.8-2.3 4.6-2.3.5 0 .9.1 1.4.2.4.1.9.3 1.3.5h.1l.1.1.3.2.6.3 1.1.7 4.4 2.6 4.2 2.6 3.9 2.5 3.5 2.2 5.2 3.4 2 1.3Zm0-1.3-2.1-1.4-5.6-3.6-3.6-2.4-4.1-2.8-8.7-5.9-1.1-.8-.6-.4-.1-.1h-.1L16 63c-.3-.2-.7-.3-1.1-.4-.4-.1-.8-.2-1.3-.2-.8.1-1.5.4-2.2.9-.3.2-.6.5-.8.9-.1.2-.2.3-.3.5l-.3.6-4.9 7.8-2 3.1-1.6 2.4-1 1.5c-.3.3-.3.6-.3.6l.3-.6.9-1.6L2.8 76l1.8-3.2 4.7-8.1.3-.6.3-.6c.3-.4.6-.7.9-1.1.8-.6 1.7-1 2.6-1.1.5-.1 1-.1 1.5 0s1 .3 1.4.5l.3.2.1.2.7.5 5.6 3.8 4.3 3 4 2.8 3.6 2.5 5.3 3.8 2.1 2Zm0-1.4-2.1-1.5-5.6-4.1-3.7-2.8-4.2-3.1-4.4-3.3-5.7-4.4-.3-.3-.1-.1-.1-.1-.3-.2-.3-.1c-.4-.2-.8-.3-1.2-.4-.4 0-.8 0-1.2.1-.8.2-1.5.7-2 1.4 0 .1-.1.2-.2.3-.1.1-.1.2-.1.3l-.3.6-.7 1.2-2.5 4.5-2.3 4-1.9 3.4-1.5 2.6-1 1.7-.3.6.3-.6.9-1.7 1.4-2.7L4.6 71l2.1-4.1 3.3-6.3c.1-.1.1-.2.2-.3l.2-.3c.6-.9 1.5-1.5 2.5-1.8.5-.1 1.1-.2 1.6-.1s1 .2 1.5.5l.4.2c.1.1.2.1.3.2l.2.1.4.3 1.2.9 8.8 6.9 4 3.2 3.7 2.9 5.4 4.4 1.9 1.5Zm0-1.4L40.1 76l-5.7-4.7-8-6.6L16.2 56l-.1-.1v-.1l-.4-.3-.3-.1c-.1-.1-.2-.1-.3-.2-.8-.4-1.7-.4-2.5 0-.4.2-.7.5-1 .8l-.2.3c-.1.1-.1.2-.2.3l-.3.6-1.3 2.6-4.7 9.3L3 72.8l-1.5 2.8-1 1.8-.3.6.3-.7.8-1.9 1.4-2.9 1.7-3.8 2.1-4.5c.7-1.7 1.5-3.2 2.3-4.9l1.2-2.6.1-.3.2-.3c0-.1.2-.2.2-.3l.3-.4c.4-.4.8-.8 1.3-1 .5-.2 1.1-.4 1.6-.4.6 0 1.1.1 1.7.3.1.1.3.1.4.2l.4.2.3.2.1.1.3.2 1.1 1 4.6 3.9L27 64l7.8 6.9 7.5 6.9Z"/><path fill="url(#c)" d="M70.1 58.5v8.9h-1.8v-7.2h-3.2v7.2h-1.7v-8.9h6.7Zm5.1 9.2c-.9 0-1.8-.3-2.4-1-.6-.6-1-1.5-1-2.4 0-.9.3-1.8 1-2.4 1.3-1.3 3.5-1.3 4.8 0 .6.6 1 1.5 1 2.4 0 .9-.3 1.8-1 2.4-.7.6-1.5 1-2.4 1Zm0-1.7c.5 0 .9-.2 1.2-.5.3-.3.5-.8.5-1.3.1-1-.7-1.8-1.6-1.8-.5 0-1 .2-1.4.5-.3.3-.5.8-.5 1.3s.2.9.5 1.3.8.6 1.3.5Zm10.5-.1h.8v3.3H85v-1.7h-4v1.7h-1.6v-3.3h.8c.4-.7.6-1.5.5-2.3v-2.5h5v4.8Zm-1.6 0v-3.4h-1.8v1.1c0 .8-.1 1.5-.4 2.3h2.2Zm4.2.8c-.6-.7-1-1.5-.9-2.5-.1-.9.1-1.7.4-2.5.5-.7 1.2-1.3 2-1.6.2-.1.4-.2.7-.3l.5-.3c.1-.1.3-.1.4-.2.4-.2.7-.5.8-.9l1.4.8c-.1.5-.3.9-.7 1.2-.6.3-1.1.6-1.8.8-1.1.4-1.5.8-1.7 1.4.5-.5 1.2-.8 1.9-.7.7 0 1.4.3 1.9.8.6.5.9 1.3.8 2 0 .8-.3 1.6-.9 2.2-.6.6-1.5.9-2.3.8-.9-.1-1.8-.4-2.5-1Zm1.3-3.2c-.3.3-.5.6-.5 1.1 0 .4.2.8.5 1.1.3.3.7.4 1.2.4.4 0 .8-.1 1.1-.4.3-.3.5-.7.4-1.1 0-.8-.7-1.5-1.5-1.5h-.1c-.4 0-.8.2-1.1.4Zm8.9 4.2c-1.8 0-3.3-1.4-3.4-3.3v-.1c0-.9.3-1.8 1-2.4 1.3-1.3 3.5-1.3 4.8 0 .7.6 1 1.5 1 2.4 0 .9-.3 1.8-1 2.4-.7.6-1.6 1-2.4 1Zm0-1.7c.5 0 .9-.2 1.2-.5.7-.7.7-1.8 0-2.5-.3-.3-.8-.5-1.2-.5-.5 0-.9.2-1.2.5-.3.3-.5.8-.5 1.3s.2.9.5 1.3c.3.3.7.5 1.2.4Zm10.9-4.1c.6.6.9 1.5.9 2.4 0 .9-.3 1.8-.9 2.4-.5.6-1.4 1-2.2 1-.8 0-1.6-.3-2.1-1V70h-1.7v-8.9h1.6v.7c.5-.6 1.3-1 2.1-.9.9 0 1.7.3 2.3 1Zm-2.5 4.1c.5 0 .9-.2 1.3-.5s.6-.8.6-1.3-.2-1-.5-1.3c-.4-.3-.8-.5-1.3-.4-.9 0-1.7.7-1.8 1.6v.1c0 .5.2 1 .5 1.3.2.4.7.6 1.2.5Zm13.2-4.9h1.3v6.4h-1.6v-3.6l-3.1 3.6h-1.3v-6.3h1.6v3.6l3.1-3.7Zm12.7.8c.6.6.9 1.5.9 2.4 0 .9-.3 1.8-.9 2.4-.5.6-1.4 1-2.2 1-.8 0-1.6-.3-2.1-1V70h-1.7v-8.9h1.6v.7c.5-.6 1.3-1 2.1-.9 1 0 1.8.3 2.3 1Zm-2.5 4.2c.5 0 .9-.2 1.3-.5.3-.3.5-.8.5-1.3s-.2-1-.5-1.3c-.3-.3-.8-.5-1.3-.4-.9 0-1.7.7-1.8 1.6v.2c0 .5.2 1 .5 1.3.4.2.9.4 1.3.4Zm6.4-1.2c.2.8 1 1.3 1.8 1.2.5 0 1.1-.2 1.4-.6l1.4.8c-.6.9-1.7 1.4-2.8 1.4-1 0-1.9-.3-2.6-1-.6-.6-1-1.5-1-2.4 0-.9.3-1.8.9-2.4.6-.6 1.5-1 2.4-1 .9 0 1.7.3 2.3 1 .6.6 1 1.5.9 2.4 0 .2 0 .5-.1.7h-4.6v-.1Zm3.3-1.2c-.1-.8-.8-1.3-1.6-1.3s-1.5.5-1.7 1.3h3.3Zm9.9-2.6v6.4h-1.6v-3.8l-1.6 2.6h-.3l-1.6-2.6v3.8h-1.6v-6.3h1.6l1.7 2.7 1.7-2.7h1.7v-.1Zm4.9 6.6c-.9 0-1.8-.3-2.4-1-.6-.6-1-1.5-1-2.4 0-.9.3-1.8 1-2.4.6-.6 1.5-1 2.4-1 .9 0 1.8.3 2.4 1 .6.6 1 1.5 1 2.4 0 .9-.3 1.8-1 2.4-.6.6-1.5 1-2.4 1Zm0-1.7c.5 0 .9-.2 1.2-.5.7-.7.7-1.8 0-2.5s-1.8-.7-2.4 0c-.3.3-.5.8-.5 1.3s.2.9.5 1.3c.3.3.8.5 1.2.4Zm9.2-4.9h1.7v6.4H164V65h-2.5v2.4h-1.7v-6.3h1.7v2.4h2.5v-2.4Zm8.7 0v1.5h-2v4.8H169v-4.8h-2v-1.5h5.7ZM67.5 76.4h1.7v6.4h-1.7v-2.4H65v2.4h-1.7v-6.4H65v2.4h2.5v-2.4Zm6.7 6.6c-1.9 0-3.4-1.6-3.4-3.4 0-.9.4-1.7 1-2.3 1.3-1.3 3.5-1.3 4.8 0 1.3 1.3 1.3 3.5 0 4.8-.6.5-1.5.9-2.4.9Zm0-1.6c.5 0 .9-.2 1.2-.5.7-.7.7-1.8 0-2.5s-1.8-.7-2.4 0c-.3.3-.5.8-.5 1.3s.2.9.5 1.3c.3.2.7.4 1.2.4Zm10.5-.4c0 1.1-.8 1.8-2.1 1.8h-3.4v-6.4h3.1c1.4 0 2.1.7 2.1 1.8 0 .5-.2 1-.6 1.3.5.3.9.9.9 1.5Zm-4-3.2v1.1h1.4c.5 0 .7-.2.7-.6 0-.4-.2-.6-.7-.6l-1.4.1Zm1.7 3.6c.5 0 .7-.2.7-.6 0-.4-.3-.6-.7-.6h-1.6v1.2h1.6Zm6.8 1.6c-1.9 0-3.4-1.5-3.4-3.4 0-.9.4-1.7 1-2.4 1.3-1.3 3.5-1.3 4.8 0 1.3 1.3 1.3 3.4 0 4.7-.6.8-1.5 1.1-2.4 1.1Zm0-1.6c.5 0 .9-.2 1.2-.5.7-.7.7-1.8 0-2.5-.3-.3-.8-.5-1.2-.5-.5 0-.9.2-1.2.5-.3.3-.5.8-.5 1.3s.2.9.5 1.3c.3.2.8.4 1.2.4Zm5.6.6c-1.3-1.3-1.3-3.4 0-4.8.6-.6 1.5-1 2.4-1 1.2 0 2.3.6 2.9 1.7l-1.4.8c-.3-.5-.8-.9-1.4-.9-.9 0-1.7.7-1.7 1.6v.1c0 .5.2.9.5 1.3.3.3.8.5 1.2.5.6 0 1.2-.3 1.5-.8l1.4.8c-.6 1-1.7 1.7-2.9 1.7-1 0-1.9-.4-2.5-1Zm11.6-5.6V78h-2v4.8h-1.7V78h-2v-1.6h5.7Zm7.2.8c1.2 1.4 1.2 3.4 0 4.8-.5.6-1.4 1-2.2 1-.8 0-1.6-.3-2.1-.9v3.3h-1.7v-9h1.7v.8c.5-.6 1.3-1 2.1-.9.9-.1 1.7.3 2.2.9Zm-2.5 4.2c.5 0 .9-.2 1.3-.5.7-.7.7-1.9 0-2.6-.3-.3-.8-.5-1.3-.5s-.9.2-1.3.5c-.7.7-.7 1.9 0 2.6.4.3.8.5 1.3.5Zm8.1 1.6c-1.9 0-3.4-1.6-3.4-3.4 0-.9.4-1.7 1-2.3 1.3-1.3 3.5-1.3 4.8 0 1.3 1.3 1.3 3.5 0 4.8-.6.6-1.5.9-2.4.9Zm0-1.6c.5 0 .9-.2 1.2-.5.7-.7.7-1.8 0-2.5s-1.8-.7-2.4 0c-.3.3-.5.8-.5 1.3s.2.9.5 1.3c.3.2.7.4 1.2.4Zm6.4-1.1c.2.8 1 1.3 1.8 1.2.5 0 1.1-.2 1.4-.6l1.4.8c-.6.9-1.7 1.4-2.8 1.4-.9 0-1.9-.3-2.5-1-.6-.6-1-1.5-1-2.4 0-.9.3-1.8.9-2.4.6-.6 1.5-1 2.4-1 .9 0 1.7.3 2.3 1 .6.6.9 1.5.9 2.4v.7l-4.8-.1Zm3.2-1.3c-.1-.8-.8-1.3-1.6-1.3s-1.5.5-1.7 1.3h3.3Zm9.1 3.8H136l-2.3-2.9v2.9H132v-6.4h1.7v2.8l2.2-2.8h2l-2.6 3.2 2.6 3.2Zm10.4-1.8c0 1.1-.8 1.8-2.1 1.8h-3.4v-6.4h3.1c1.4 0 2.1.7 2.1 1.8 0 .5-.2 1-.6 1.3.6.3.9.9.9 1.5Zm-3.9-3.2v1.1h1.4c.5 0 .7-.2.7-.6 0-.4-.2-.6-.7-.6l-1.4.1Zm1.6 3.6c.5 0 .7-.2.7-.6 0-.4-.3-.6-.7-.6h-1.6v1.2h1.6Zm16.3-7.5v8.9h-1.8V77l-2.5 4.2h-.2l-2.5-4.2v5.8h-1.8v-8.9h1.8l2.6 4.2 2.5-4.2h1.9Zm5 9.1c-1.8 0-3.3-1.4-3.4-3.3v-.1c0-.9.3-1.8 1-2.4 1.3-1.3 3.5-1.3 4.8 0 .6.6 1 1.5 1 2.4 0 .9-.3 1.8-1 2.4-.6.7-1.5 1-2.4 1Zm0-1.6c.5 0 .9-.2 1.2-.5.7-.7.7-1.8 0-2.5s-1.8-.7-2.4 0c-.3.3-.5.8-.5 1.3s.2.9.5 1.3c.3.2.8.4 1.2.4Zm5.6.6c-1.3-1.3-1.3-3.5 0-4.8 1.3-1.3 3.5-1.3 4.8 0 .2.2.4.4.5.7l-1.4.8c-.3-.5-.8-.9-1.4-.9-.9 0-1.7.7-1.7 1.6v.1c0 .5.2.9.5 1.3.3.3.8.5 1.2.5.6 0 1.1-.3 1.4-.8l1.4.8c-.6 1-1.7 1.7-2.9 1.7-.9.1-1.7-.3-2.4-1Zm12.6.8h-1.9l-2.3-2.9v2.9h-1.6v-6.4h1.6v2.8l2.2-2.8h2l-2.6 3.2 2.6 3.2Zm6.7-1.8c0 1.1-.8 1.8-2.1 1.8h-3.4v-6.4h3.1c1.4 0 2.1.7 2.1 1.8 0 .5-.2 1-.6 1.3.6.3.9.9.9 1.5Zm-3.9-3.2v1.1h1.4c.5 0 .7-.2.7-.6 0-.4-.2-.6-.7-.6l-1.4.1Zm1.6 3.6c.5 0 .7-.2.7-.6 0-.4-.3-.6-.7-.6h-1.6v1.2h1.6Zm5.2-1.1c.2.8 1 1.3 1.8 1.2.5 0 1.1-.2 1.4-.6l1.4.8c-.6.9-1.7 1.4-2.8 1.4-.9 0-1.9-.3-2.5-1-.6-.6-1-1.5-1-2.4 0-.9.3-1.8.9-2.4.6-.6 1.5-1 2.4-1 .9 0 1.7.3 2.3 1 .6.6.9 1.5.9 2.4v.7l-4.8-.1Zm3.2-1.3c-.1-.8-.8-1.3-1.6-1.3s-1.5.5-1.7 1.3h3.3ZM63.2 92.8l1-3.6h1.4l-.5 3.6h-1.9Zm2.4 0 1-3.6H68l-.5 3.6h-1.9Zm9.9-1.1v6.4h-1.6v-4.8h-2.5v4.8h-1.6v-6.4h5.7Zm5 6.6c-1.9 0-3.4-1.5-3.4-3.3 0-.9.3-1.8 1-2.4 1.3-1.3 3.5-1.3 4.8 0 .7.6 1 1.5 1 2.4 0 .9-.3 1.8-1 2.4-.6.6-1.5.9-2.4.9Zm0-1.6c.5 0 .9-.2 1.2-.5.3-.3.5-.8.5-1.3s-.2-.9-.5-1.3c-.3-.3-.8-.5-1.2-.5-.5 0-.9.2-1.2.5-.3.3-.5.8-.5 1.3s.2.9.5 1.3.8.5 1.2.5Zm10.5-.1h.8v3.3h-1.6v-1.7h-4v1.7h-1.6v-3.2h.8c.4-.7.6-1.5.6-2.3v-2.6h5v4.8Zm-1.6 0v-3.4h-1.8v1.1c0 .8-.1 1.5-.4 2.3h2.2Zm13.5 1.6H101l-2.3-2.9v2.9H97v-6.4h1.7v2.8l2.2-2.8h2l-2.6 3.2 2.6 3.2Zm6.7-6.5v6.4H108v-4.8h-1.8v2.1c0 2-.9 2.9-2.7 2.7v-1.5c.7.2 1.1-.2 1.1-1.2v-3.7h5Zm10.2.9c.7.6 1 1.5 1 2.4 0 .9-.3 1.8-1 2.4-.6.6-1.5 1-2.4 1-1.6 0-2.9-1.1-3.2-2.6h-.9v2.4h-1.7v-6.4h1.7v2.4h.9c.2-.7.6-1.4 1.1-1.9 1.3-1.1 3.3-1 4.5.3Zm-2.4 4.1c.5 0 .9-.2 1.2-.5.3-.3.5-.8.5-1.3s-.2-.9-.5-1.3c-.3-.3-.8-.5-1.2-.5-.5 0-.9.2-1.2.5-.3.3-.5.8-.5 1.3s.2.9.5 1.3c.3.3.7.5 1.2.5Zm8.5-5h1.7v6.4h-1.7v-2c-.5.2-1 .2-1.5.2-1.2.2-2.4-.7-2.5-1.9v-2.7h1.6v2.1c0 .6.4 1 1.2 1 .4 0 .8-.1 1.2-.2v-2.9Zm5.8-2.5-1 3.6h-1.4l.5-3.6h1.9Zm2.4 0-1 3.6h-1.4l.6-3.6h1.8Z"/><path fill="url(#d)" d="M52.3 54.3h.2v47.501h-.2v-47.5Z"/><defs><linearGradient id="a" x1="-1.044" x2="199.257" y1="89.207" y2="89.207" gradientUnits="userSpaceOnUse"><stop stop-color="#1C8AE2"/><stop offset=".486" stop-color="#8B00B3"/><stop offset="1" stop-color="#6900B5"/></linearGradient><linearGradient id="b" x1="-1.045" x2="199.257" y1="78.018" y2="78.018" gradientUnits="userSpaceOnUse"><stop stop-color="#1C8AE2"/><stop offset=".486" stop-color="#8B00B3"/><stop offset="1" stop-color="#6900B5"/></linearGradient><linearGradient id="c" x1="-1.044" x2="199.257" y1="79.088" y2="79.088" gradientUnits="userSpaceOnUse"><stop stop-color="#1C8AE2"/><stop offset=".486" stop-color="#8B00B3"/><stop offset="1" stop-color="#6900B5"/></linearGradient><linearGradient id="d" x1="-1.043" x2="199.256" y1="78.052" y2="78.052" gradientUnits="userSpaceOnUse"><stop stop-color="#1C8AE2"/><stop offset=".486" stop-color="#8B00B3"/><stop offset="1" stop-color="#6900B5"/></linearGradient></defs></svg>