<svg xmlns="http://www.w3.org/2000/svg" width="198" height="155" fill="none"><g clip-path="url(#a)"><path fill="url(#b)" d="m67.9 76.4 9.5 27.8h-9.5l-6.6-16.5 6.6-11.3Z"/><path fill="url(#c)" d="m58.3 44 16.1 47.2-16.1 21.9L41.9 72l16.4-28Z"/><path fill="url(#d)" d="m113.7 44 16.2 47.2-16.2 21.9L97.4 72l16.3-28Z"/><path fill="url(#e)" d="m169.1 44 23.7 69.1h-23.7L152.7 72l16.4-28Z"/><path fill="url(#f)" d="M32.5 44h25.7l-29.8 69.1H2.7L32.5 44Z"/><path fill="url(#g)" d="M88.1 44h25.6l-29.8 69.1H58.3L88.1 44Z"/><path fill="url(#h)" d="M143.5 44h25.7l-29.8 69.1h-25.7L143.5 44Z"/><path fill="url(#i)" d="M14.9 126.699c.2 0 .4.1.4.3v.1c.2 2.8.4 5.5.5 8.1.1 2.6.2 5.2.3 7.7h-1.2c-.3 0-.4-.1-.4-.3 0-1.1 0-2.1-.1-3.3-.1-1.1-.1-2.3-.2-3.5-.1-1.2-.1-2.3-.2-3.5-.1-1.2-.1-2.1-.1-3.2l-5 9.6H7.4c-.1 0-.2 0-.3-.1-.1-.1-.1-.2-.2-.2l-4.8-9.2c0 1.1-.1 2.2-.1 3.4 0 1.2-.1 2.3-.2 3.5l-.2 3.5c0 1.1 0 2.3-.1 3.3H.4c-.3 0-.4-.1-.4-.3 0-2.6.1-5.2.3-7.7.1-2.5.3-5.2.5-8.1h1.4c.2 0 .4.1.5.3l5.4 10.4 5.6-10.6 1.2-.2Z"/><path fill="url(#j)" d="M26.8 130.899c1.6-.2 3.3.4 4.5 1.5 1 1.3 1.5 3 1.4 4.6.1 1.7-.4 3.3-1.4 4.7-1.2 1.1-2.9 1.7-4.5 1.5-1.7.2-3.3-.4-4.5-1.5-1-1.3-1.5-3-1.4-4.7-.1-1.7.4-3.3 1.4-4.6 1.2-1.1 2.8-1.7 4.5-1.5Zm0 11.1c.6 0 1.3-.1 1.9-.3.5-.2 1-.5 1.3-.9.4-.4.7-1 .8-1.6.2-.8.3-1.6.3-2.3 0-.8-.1-1.6-.3-2.3-.1-.6-.4-1.1-.8-1.5-.4-.4-.8-.7-1.3-.9-1.2-.3-2.5-.3-3.7 0-.5.2-1 .5-1.3.9-.4.4-.6 1-.8 1.5-.2.8-.3 1.5-.3 2.3 0 .8.1 1.6.2 2.3.1.6.4 1.1.8 1.6.4.4.8.7 1.3.8.6.4 1.2.5 1.9.4Z"/><path fill="url(#k)" d="M39.1 132c.6-.3 1.2-.6 1.8-.8.8-.2 1.7-.3 2.5-.3 1.5-.1 2.9.5 3.9 1.5 1 1.3 1.4 2.9 1.3 4.5 0 1-.1 2-.4 2.9-.2.7-.6 1.4-1.1 1.9-.5.5-1.2.9-1.9 1.1-.9.2-1.8.3-2.7.3h-1.4c-.5 0-.9-.1-1.4-.2l-1.2-.3c-.3 0-.5-.1-.8-.2-.3 0-.4-.2-.5-.3v-16h.9c.2 0 .4 0 .6.1.1.1.2.3.2.5l.2 5.3Zm0 9.6c.5.1 1 .2 1.6.3.6.1 1.2.1 1.7.1.7 0 1.4-.1 2-.2.5-.1 1-.4 1.4-.8.4-.4.7-1 .8-1.5.2-.8.3-1.7.3-2.5.1-1.3-.2-2.7-1-3.8-.8-.8-1.8-1.2-2.9-1.1-.8 0-1.6.1-2.3.4-.6.2-1.2.5-1.7.8l.1 8.3Z"/><path fill="url(#l)" d="M54.4 128.9c-.3 0-.6-.1-.9-.2-.4-.4-.4-1.1 0-1.5.3-.2.6-.2.9-.2.3 0 .6 0 .9.2.4.4.4 1.1 0 1.5-.3.1-.6.2-.9.2Zm-.7 2.2h1.2c.3 0 .4.1.4.4v11.4h-1.2c-.3 0-.4-.1-.4-.3v-11.5Z"/><path fill="url(#m)" d="m64.4 142.8-.7.1h-.8c-.7.1-1.3-.2-1.8-.6-.4-.4-.6-1-.6-1.6v-14.6h1.2c.3 0 .4.1.4.3v14.3c0 .5.1.8.3.9.3.1.7.2 1.1.2h.6c.1 0 .2 0 .3.1V142.8Z"/><path fill="url(#n)" d="M79.4 142.599c-.2-.7-.3-1.5-.5-2.3l-.6-2.4h-8c-.2.8-.5 1.7-.7 2.5-.2.8-.4 1.6-.6 2.5h-1.2c-.3 0-.5-.1-.4-.3.4-1.8.8-3.6 1.4-5.3.6-1.7 1.1-3.2 1.7-4.6.6-1.4 1.1-2.6 1.6-3.6.4-.8.8-1.6 1.3-2.4h1.7l.3.3c.4.6.8 1.5 1.4 2.5.5 1.1 1.1 2.3 1.6 3.7.5 1.4 1.1 2.9 1.6 4.5s.9 3.3 1.3 5.2H80c-.3.1-.5 0-.6-.3Zm-5.2-14.5c-.7 1.4-1.4 2.8-2 4.2-.6 1.4-1.1 2.9-1.6 4.4h7.3c-.5-1.5-1-2.9-1.6-4.4-.6-1.4-1.3-2.8-2.1-4.2Z"/><path fill="url(#o)" d="M85.2 142.699c-.2 0-.4-.2-.4-.4v-.7c.5 0 1.1.2 1.9.2.8.1 1.5.1 2.3.1.7 0 1.3 0 2-.1.4-.1.8-.2 1.2-.4.3-.2.5-.4.6-.7.1-.3.2-.6.2-.9 0-.4-.1-.7-.2-1-.2-.3-.5-.5-.7-.6-.4-.2-.8-.3-1.2-.4l-1.7-.4c-.6-.1-1.1-.2-1.7-.4-.5-.1-.9-.3-1.4-.6-.4-.2-.7-.5-.9-.9-.2-.4-.3-.9-.3-1.4 0-.9.4-1.8 1.2-2.3 1.1-.6 2.4-.9 3.7-.8H91.7l1.1.1c.3 0 .6.1.9.2.2 0 .4.2.4.4v.6c-.6-.1-1.2-.2-1.9-.2h-2c-.6 0-1.2 0-1.7.1-.4.1-.8.2-1.1.4-.3.1-.5.3-.6.6-.1.3-.2.6-.2.8-.1.6.2 1.2.8 1.5.4.2.7.3 1.1.4.5.1 1 .2 1.7.4.7.1 1.3.3 1.8.4.5.1 1 .3 1.5.6.4.2.7.6 1 1 .3.5.4 1 .4 1.5.1 1.1-.5 2.1-1.4 2.6-1.2.6-2.5.8-3.8.8h-2.1l-1.2-.1c-.6-.1-1-.2-1.2-.4Z"/><path fill="url(#p)" d="M98.8 142.699c-.2 0-.4-.2-.4-.4v-.7c.5 0 1.1.2 1.9.2.8.1 1.5.1 2.3.1.7 0 1.3 0 2-.1.4-.1.8-.2 1.2-.4.3-.2.5-.4.6-.7.1-.3.2-.6.2-.9 0-.4-.1-.7-.2-1-.2-.3-.4-.5-.7-.6-.4-.2-.8-.3-1.2-.4l-1.7-.4c-.6-.1-1.1-.2-1.7-.4-.5-.1-.9-.3-1.4-.6-.4-.2-.7-.5-.9-.9-.2-.4-.3-.9-.3-1.4 0-.9.4-1.8 1.2-2.3 1.1-.6 2.4-.9 3.7-.8H105.3l1.1.1c.3 0 .6.1.9.2.2 0 .4.2.4.4v.6c-.6-.1-1.2-.2-1.9-.2h-2c-.6 0-1.2 0-1.7.1-.4.1-.8.2-1.1.4-.3.1-.5.3-.6.6-.1.3-.2.6-.2.8 0 .3.1.6.2.9.1.3.4.5.6.6.4.2.7.3 1.1.4.5.1 1 .2 1.7.4.7.1 1.3.3 1.8.4.5.1 1 .3 1.5.6.4.2.7.6 1 1 .3.5.4 1 .4 1.5.1 1.1-.4 2.1-1.4 2.6-1.2.6-2.5.8-3.8.8h-2.2l-1.2-.1c-.6-.1-.9-.2-1.1-.4Z"/><path fill="url(#q)" d="M113.6 128.9c-.3 0-.6-.1-.9-.2-.4-.4-.4-1.1 0-1.5.3-.2.6-.2.9-.2.3 0 .6 0 .9.2.4.4.4 1.1 0 1.5-.3.1-.6.2-.9.2Zm-.8 2.2h1.2c.3 0 .4.1.4.4v11.4h-1.2c-.3 0-.4-.1-.4-.3v-11.5Z"/><path fill="url(#r)" d="M119.5 142.699c-.2 0-.4-.2-.4-.4v-.7c.5 0 1.1.2 1.9.2.8.1 1.5.1 2.3.1.7 0 1.3 0 2-.1.4-.1.8-.2 1.2-.4.3-.2.5-.4.6-.7.1-.3.2-.6.2-.9 0-.4-.1-.7-.2-1-.2-.3-.5-.5-.7-.6-.4-.2-.8-.3-1.2-.4l-1.7-.4c-.6-.1-1.1-.2-1.7-.4-.5-.1-.9-.3-1.4-.6-.4-.2-.7-.5-.9-.9-.2-.4-.3-.9-.3-1.4 0-.9.4-1.8 1.2-2.3 1.1-.6 2.4-.9 3.7-.8H126l1.1.1c.3 0 .6.1.9.2.2 0 .4.2.4.4v.6c-.6-.1-1.2-.2-1.9-.2h-2c-.6 0-1.2 0-1.7.1-.4.1-.8.2-1.1.4-.3.1-.5.3-.6.6-.2.6-.2 1.2 0 1.7l.6.6c.4.2.7.3 1.1.4.5.1 1 .2 1.7.4.7.1 1.3.3 1.8.4.5.1 1 .3 1.5.6.4.2.7.6 1 1 .2.5.4 1 .3 1.5.1 1.1-.4 2.1-1.4 2.6-1.2.6-2.5.8-3.8.8h-2.1l-1.2-.1c-.5-.1-.8-.2-1.1-.4Z"/><path fill="url(#s)" d="M138.9 141.9c.2 0 .3 0 .5.1.1.1.1.1.1.2v.6c-.7.1-1.4.2-2.1.2-.5 0-1.1 0-1.6-.2-.4-.1-.7-.2-1-.5-.2-.2-.4-.5-.5-.7-.1-.3-.2-.6-.2-1v-8.4h-1.3c-.3 0-.4-.1-.4-.3v-.8h1.7v-3.2h1.2c.3 0 .4.1.4.4v2.8h3.3c.3 0 .4.1.4.3v.8h-3.7v8.9c0 .2.1.3.3.4.2.2.4.3.6.3h1.1l1.2.1Z"/><path fill="url(#t)" d="M152.4 141.6c-.3.2-.5.4-.8.5-.3.2-.7.4-1 .6-.4.1-.8.3-1.3.4-.5.1-.9.1-1.4.1-1.2.1-2.5-.3-3.5-1-.8-.7-1.2-1.7-1.1-2.7-.1-1.1.4-2.2 1.4-2.8 1.2-.6 2.6-.9 4-.9h3.6v-.9c0-.4 0-.9-.2-1.3-.1-.3-.4-.6-.7-.8-.4-.2-.8-.4-1.2-.5-.6-.1-1.3-.2-1.9-.2-.8 0-1.6 0-2.4.2-.5.1-1 .1-1.4.1-.3 0-.5-.1-.5-.4v-.6c.8-.2 1.6-.3 2.3-.3h2.3c.9 0 1.8.1 2.6.3.6.1 1.2.4 1.6.8.4.3.7.8.8 1.2.2.5.2 1 .2 1.6v8h-1.1c-.3 0-.5-.1-.5-.4l.2-1Zm0-4.8h-3.9c-.6 0-1.3.1-1.9.2-.4.1-.9.3-1.2.5-.3.2-.5.5-.6.8-.1.3-.2.7-.2 1-.1.8.3 1.6.9 2 .7.4 1.6.6 2.4.6.9.1 1.8-.1 2.7-.4.6-.3 1.2-.7 1.7-1.1l.1-3.6Z"/><path fill="url(#u)" d="M160.7 132.4c.2-.2.5-.4.7-.5.3-.2.7-.4 1.1-.5.4-.2.9-.3 1.4-.4.6-.1 1.2-.2 1.7-.2 1.2-.1 2.4.3 3.3 1 .9.8 1.4 2 1.2 3.1v7.9h-1.2c-.3 0-.4-.1-.4-.3V135c.1-.9-.3-1.7-.9-2.3-.7-.5-1.6-.7-2.4-.7-.5 0-1 .1-1.5.2-.4.1-.8.2-1.2.4-.3.2-.7.3-1 .5-.3.2-.5.3-.7.6v9.2h-1.2c-.3 0-.4-.1-.4-.3v-11.5h1.1c.3 0 .4.1.4.4v.9Z"/><path fill="url(#v)" d="M184.1 142.699c-.6.1-1.1.3-1.7.3-.7.1-1.3.1-2 .1-.9 0-1.8-.1-2.7-.4-.7-.3-1.3-.7-1.7-1.2-.4-.6-.7-1.2-.9-1.9-.2-.8-.3-1.6-.3-2.5-.2-1.7.3-3.4 1.4-4.7 1.1-1 2.7-1.6 4.2-1.4h1l1 .1.8.1c.2 0 .4.1.5.1.3 0 .4.2.4.4v.6l-1.7-.2h-1.7c-.6 0-1.2.1-1.7.2-.5.2-.9.4-1.3.8s-.7.9-.8 1.5c-.2.8-.3 1.6-.2 2.3 0 .8.1 1.7.3 2.5.2.6.5 1.1.9 1.5.4.4.8.6 1.3.7.6.1 1.1.2 1.7.2.6 0 1.2 0 1.9-.1.4-.1.8-.1 1.2-.1.1 0 .3 0 .4.1v.2l-.3.8Z"/><path fill="url(#w)" d="M193.9 143.1c-.9 0-1.9-.1-2.8-.3-.7-.2-1.4-.5-2-1-.5-.5-.9-1.2-1.1-1.9-.3-.9-.4-1.9-.4-2.8 0-1 .1-2 .4-2.9.2-.7.6-1.4 1.1-1.9.5-.5 1.1-.9 1.7-1.1.8-.2 1.7-.4 2.5-.3.9 0 1.8.1 2.6.4.6.2 1.2.6 1.6 1.1.4.4.7 1 .8 1.6.2.6.2 1.3.2 2v.9c0 .3-.1.5-.2.7h-9.2c0 .7.1 1.4.3 2 .1.5.4 1 .8 1.4.4.4.9.7 1.5.8.8.2 1.6.3 2.4.2.8 0 1.5 0 2.3-.1.6 0 1-.1 1.2-.1.1 0 .3 0 .4.1.1.1.1.1.1.2v.7c-.6.2-1.1.3-1.7.3h-2.5Zm-.5-11.1c-.7 0-1.4.1-2 .3-.5.2-.9.5-1.3.9-.3.4-.6.9-.7 1.4-.1.6-.2 1.1-.2 1.7h7.8v-.6c0-.6 0-1.2-.2-1.7-.1-.4-.3-.9-.6-1.2-.3-.3-.7-.6-1.1-.7-.5-.1-1.1-.2-1.7-.1Z"/></g><defs><linearGradient id="b" x1="72.94" x2="65.998" y1="100.295" y2="86.635" gradientUnits="userSpaceOnUse"><stop stop-color="#1C8AE2"/><stop offset=".486" stop-color="#8B00B3"/><stop offset="1" stop-color="#6900B5"/></linearGradient><linearGradient id="c" x1="48.673" x2="67.562" y1="57.117" y2="99.339" gradientUnits="userSpaceOnUse"><stop stop-color="#1C8AE2"/><stop offset=".486" stop-color="#8B00B3"/><stop offset="1" stop-color="#6900B5"/></linearGradient><linearGradient id="d" x1="105.504" x2="122.393" y1="57.919" y2="102.585" gradientUnits="userSpaceOnUse"><stop stop-color="#1C8AE2"/><stop offset=".486" stop-color="#8B00B3"/><stop offset="1" stop-color="#6900B5"/></linearGradient><linearGradient id="e" x1="161.167" x2="179.167" y1="56.536" y2="112.536" gradientUnits="userSpaceOnUse"><stop stop-color="#1C8AE2"/><stop offset=".486" stop-color="#8B00B3"/><stop offset="1" stop-color="#6900B5"/></linearGradient><linearGradient id="f" x1="14.207" x2="46.207" y1="113.503" y2="44.614" gradientUnits="userSpaceOnUse"><stop stop-color="#1C8AE2"/><stop offset=".486" stop-color="#8B00B3"/><stop offset="1" stop-color="#6900B5"/></linearGradient><linearGradient id="g" x1="71.848" x2="99.626" y1="113.349" y2="45.127" gradientUnits="userSpaceOnUse"><stop stop-color="#1C8AE2"/><stop offset=".486" stop-color="#8B00B3"/><stop offset="1" stop-color="#6900B5"/></linearGradient><linearGradient id="h" x1="128.717" x2="154.494" y1="112.11" y2="44.332" gradientUnits="userSpaceOnUse"><stop stop-color="#1C8AE2"/><stop offset=".486" stop-color="#8B00B3"/><stop offset="1" stop-color="#6900B5"/></linearGradient><linearGradient id="i" x1="-.167" x2="197.611" y1="134.765" y2="134.765" gradientUnits="userSpaceOnUse"><stop stop-color="#1C8AE2"/><stop offset=".486" stop-color="#8B00B3"/><stop offset="1" stop-color="#6900B5"/></linearGradient><linearGradient id="j" x1="-.166" x2="197.612" y1="137.025" y2="137.025" gradientUnits="userSpaceOnUse"><stop stop-color="#1C8AE2"/><stop offset=".486" stop-color="#8B00B3"/><stop offset="1" stop-color="#6900B5"/></linearGradient><linearGradient id="k" x1="-.166" x2="197.611" y1="134.627" y2="134.627" gradientUnits="userSpaceOnUse"><stop stop-color="#1C8AE2"/><stop offset=".486" stop-color="#8B00B3"/><stop offset="1" stop-color="#6900B5"/></linearGradient><linearGradient id="l" x1="-.166" x2="197.611" y1="134.92" y2="134.92" gradientUnits="userSpaceOnUse"><stop stop-color="#1C8AE2"/><stop offset=".486" stop-color="#8B00B3"/><stop offset="1" stop-color="#6900B5"/></linearGradient><linearGradient id="m" x1="-.167" x2="197.611" y1="134.55" y2="134.55" gradientUnits="userSpaceOnUse"><stop stop-color="#1C8AE2"/><stop offset=".486" stop-color="#8B00B3"/><stop offset="1" stop-color="#6900B5"/></linearGradient><linearGradient id="n" x1="-.167" x2="197.611" y1="134.843" y2="134.843" gradientUnits="userSpaceOnUse"><stop stop-color="#1C8AE2"/><stop offset=".486" stop-color="#8B00B3"/><stop offset="1" stop-color="#6900B5"/></linearGradient><linearGradient id="o" x1="-.167" x2="197.611" y1="137.047" y2="137.047" gradientUnits="userSpaceOnUse"><stop stop-color="#1C8AE2"/><stop offset=".486" stop-color="#8B00B3"/><stop offset="1" stop-color="#6900B5"/></linearGradient><linearGradient id="p" x1="-.166" x2="197.611" y1="137.047" y2="137.047" gradientUnits="userSpaceOnUse"><stop stop-color="#1C8AE2"/><stop offset=".486" stop-color="#8B00B3"/><stop offset="1" stop-color="#6900B5"/></linearGradient><linearGradient id="q" x1="-.166" x2="197.611" y1="134.911" y2="134.911" gradientUnits="userSpaceOnUse"><stop stop-color="#1C8AE2"/><stop offset=".486" stop-color="#8B00B3"/><stop offset="1" stop-color="#6900B5"/></linearGradient><linearGradient id="r" x1="-.167" x2="197.611" y1="137.046" y2="137.046" gradientUnits="userSpaceOnUse"><stop stop-color="#1C8AE2"/><stop offset=".486" stop-color="#8B00B3"/><stop offset="1" stop-color="#6900B5"/></linearGradient><linearGradient id="s" x1="-.166" x2="197.611" y1="135.529" y2="135.529" gradientUnits="userSpaceOnUse"><stop stop-color="#1C8AE2"/><stop offset=".486" stop-color="#8B00B3"/><stop offset="1" stop-color="#6900B5"/></linearGradient><linearGradient id="t" x1="-.166" x2="197.611" y1="137.167" y2="137.167" gradientUnits="userSpaceOnUse"><stop stop-color="#1C8AE2"/><stop offset=".486" stop-color="#8B00B3"/><stop offset="1" stop-color="#6900B5"/></linearGradient><linearGradient id="u" x1="-.166" x2="197.611" y1="136.884" y2="136.884" gradientUnits="userSpaceOnUse"><stop stop-color="#1C8AE2"/><stop offset=".486" stop-color="#8B00B3"/><stop offset="1" stop-color="#6900B5"/></linearGradient><linearGradient id="v" x1="-.167" x2="197.611" y1="137.061" y2="137.061" gradientUnits="userSpaceOnUse"><stop stop-color="#1C8AE2"/><stop offset=".486" stop-color="#8B00B3"/><stop offset="1" stop-color="#6900B5"/></linearGradient><linearGradient id="w" x1="-.168" x2="197.611" y1="136.99" y2="136.99" gradientUnits="userSpaceOnUse"><stop stop-color="#1C8AE2"/><stop offset=".486" stop-color="#8B00B3"/><stop offset="1" stop-color="#6900B5"/></linearGradient><clipPath id="a"><path fill="#fff" d="M0 0h198v155H0z"/></clipPath></defs></svg>