<svg xmlns="http://www.w3.org/2000/svg" xml:space="preserve" id="Слой_1" x="0" y="0" style="enable-background:new 0 0 600 480" version="1.1" viewBox="0 0 600 480"><style>.st0{fill:#fff}</style><path d="m358.8 15.6-74.7 246.9s-2 8.5-11 8.5H239c-10.6 0-13-9.3-13-9.3l-40.6-129.5-40.6 129.5s-2.4 9.3-13 9.3H96.1c-8.9 0-11-8.5-11-8.5l-75-246.9c-1.2-4.9 0-11.8 7.3-11.8H62c12.2 0 14.6 8.1 16.2 13l40.2 138 39-138c1.6-5.7 4.5-13 13.8-13h28.4c8.9 0 11.8 7.3 13.4 13l39.4 138 40.2-138c1.2-4.9 4.1-13 16.2-13h43c7.4.1 8.7 7 7 11.8zM590.2 15.6v33.7c0 7.3-2.4 11.8-11.8 11.8h-62.1v198.1c0 9.3-4.5 11.8-11.8 11.8h-40.2c-7.3 0-11.8-2.4-11.8-11.8V61.1H390c-9.3 0-11.8-4.5-11.8-11.8V15.6c0-7.3 2.4-11.8 11.8-11.8h188.4c9.4.1 11.8 4.5 11.8 11.8zM78.2 474.5H68l-11.6-77.3c-1.1-7.3-1.8-14.8-2.1-22.1-.4 2.3-.4 4.5-.5 6.8-.2 5.4-1.1 10.5-2 15.7l-13.4 76.9h-10l-19.1-119h11.4l10.7 74.9c.7 4.5 1.1 8.9 1.4 13.4.2 3 .2 5.9.7 8.9.7-7.9 2.1-15.5 3.4-23.2l12.7-74h9.6l11.1 75.3c.7 4.3 1.1 8.7 1.6 13 .4 3 .7 5.9 1.2 8.9.9-7.5 2-15 3-22.5l11.6-74.8H99L78.2 474.5zM131.6 474.5l-3.1-17.1h-17.6l-3.1 17.1h-8.2l16.5-83.3h7.2l16.6 83.3h-8.3zm-9.9-53.2c-1.2-6.5-2-13-2.4-19.6-1.1 16.5-4.4 32.7-7.2 49h15.1l-5.5-29.4zM146.8 474.5v-83.3h7.7v76.2h18v7.1h-25.7zM201.9 365.7v108.8h-11.1V365.7H173v-10.2h46.7v10.2h-17.8zM337.9 447.8c-3.2 4.3-6.8 8.4-10.5 12.3l7.3 14.5H323l-3.6-6.6c-5.7 5.2-11.8 8.2-19.6 8.2-17.5 0-28.7-15.9-28.7-32.3 0-14.8 7.1-24.6 17.7-34.3-4.8-8.6-10.9-19.8-10.9-32.1 0-13.2 10.3-23.6 23.6-23.6 12.5 0 21.4 9.8 21.4 22.1 0 16.4-11.2 26.8-21.1 35.3l20.5 38.9c3-3.2 5.7-6.4 8.2-10l7.4 7.6zm-44.3-28.6c-6.4 6.8-12.1 15.2-12.1 24.8 0 10 6.8 21.4 17.8 21.4 5.9 0 10.9-3.2 15.2-7l-20.9-39.2zm7.3-55.6c-7.5 0-12.8 6.2-12.8 13.6 0 10.9 4.6 18.7 8.7 25.9 7.5-6.1 15.3-14.8 15.3-27.3.1-6.5-4.6-12.2-11.2-12.2zM411.5 365.7v108.8h-11.1V365.7h-17.8v-10.2h46.7v10.2h-17.8zM436.6 474.5v-83.3h7.7v83.3h-7.7zM457.9 474.5v-83.3h26v7.1h-18.2v29.3h17.7v7.1h-17.7v32.6h18.2v7.1h-26zM510.3 398.4v76.2h-7.7v-76.2H490v-7.1h32.7v7.1h-12.4zM533.5 467.4h21.1v7.1H524l23.1-76.2h-20.9v-7.1h30.6l-23.3 76.2zM564.7 474.5v-83.3h26v7.1h-18.2v29.3h17.7v7.1h-17.7v32.6h18.2v7.1h-26z" class="st0"/></svg>