<svg width="285" height="263" viewBox="0 0 285 263" fill="none" xmlns="http://www.w3.org/2000/svg">
<path d="M235.796 45.9826C233.173 52.0576 229.853 57.8077 225.904 63.1177C221.769 69.0273 217.216 74.6335 212.281 79.8935C210.413 81.9331 208.409 83.8437 206.282 85.6121C202.817 88.2466 199.206 90.6835 195.467 92.9113C186.653 98.5332 177.446 103.543 168.982 109.687C152.926 121.528 139.178 136.214 128.42 153.016C118.25 168.968 110.269 186.216 104.694 204.294C99.2828 221.511 95.4451 239.625 86.2664 255.4C85.1261 257.332 83.9427 259.273 82.7355 261.183C82.6208 261.333 82.5703 261.522 82.5951 261.709C82.62 261.896 82.7181 262.065 82.8679 262.18C83.0177 262.295 83.207 262.345 83.394 262.32C83.5811 262.296 83.7506 262.198 83.8653 262.048C89.1434 254.807 93.2618 246.789 96.0727 238.281C99.2063 229.716 101.616 220.914 104.199 212.177C109.323 193.839 116.74 176.221 126.275 159.74C136.394 142.463 149.526 127.138 165.05 114.493C173.348 108.223 182.001 102.438 190.965 97.165C197.653 92.994 204.777 88.9093 210.416 83.2685C215.241 78.3732 219.683 73.1147 223.703 67.5393C227.875 62.0049 231.553 56.1143 234.694 49.9355C235.295 48.6864 235.856 47.4181 236.387 46.1736C236.498 45.8666 235.994 45.6592 235.895 45.9818L235.796 45.9826Z" fill="#465760"/>
<path d="M97.6226 232.555C100.407 228.38 103.096 224.177 106.251 220.261C109.466 216.297 112.963 212.57 116.715 209.108C124.187 202.256 132.614 196.525 141.733 192.095C146.888 189.593 152.248 187.539 157.753 185.954C158.466 185.755 158.036 184.676 157.324 184.875C137.56 190.638 119.955 202.145 106.745 217.934C102.954 222.294 99.6713 227.071 96.96 232.173C96.9146 232.262 96.9048 232.365 96.9327 232.461C96.9606 232.557 97.024 232.638 97.11 232.689C97.196 232.74 97.2982 232.756 97.3956 232.734C97.4931 232.712 97.5785 232.654 97.6345 232.571L97.6226 232.555Z" fill="#465760"/>
<path d="M156.874 185.416C148.136 186.29 139.222 187.644 131.273 191.618C123.168 195.957 116.238 202.199 111.079 209.809C108.022 213.859 105.406 218.224 103.277 222.83C103.26 222.9 103.267 222.974 103.296 223.041C103.325 223.107 103.375 223.162 103.439 223.198C103.502 223.233 103.575 223.247 103.647 223.237C103.719 223.227 103.785 223.194 103.837 223.143C106.276 219.453 108.273 215.508 110.776 211.868C113.292 208.134 116.162 204.652 119.347 201.469C125.754 195.135 133.763 190.663 142.518 188.533C147.279 187.364 152.101 186.568 156.896 185.671C157.02 185.575 157.031 185.395 156.874 185.416Z" fill="#465760"/>
<path d="M156.811 185.365C149.584 187.966 142.839 191.75 136.853 196.563C133.486 199.135 130.384 202.023 126.926 204.443C123.467 206.863 119.899 208.946 116.368 211.174C112.336 213.601 108.541 216.401 105.033 219.538C104.518 219.931 105.173 220.788 105.652 220.348C111.688 214.775 119.035 211.014 125.837 206.508C129.256 204.192 132.541 201.684 135.674 198.994C138.785 196.395 142.068 194.01 145.502 191.856C149.213 189.611 153.046 187.573 156.983 185.752C157.02 185.723 157.044 185.681 157.051 185.635C157.057 185.589 157.044 185.542 157.016 185.504C156.987 185.467 156.945 185.443 156.899 185.437C156.853 185.43 156.806 185.443 156.768 185.471L156.811 185.365Z" fill="#465760"/>
<path d="M157.488 185.316C154.908 186.366 152.545 187.886 150.521 189.8C147.403 192.181 144.464 194.797 141.329 197.414C138.194 200.031 135.046 202.633 131.732 205.017C128.115 207.521 124.274 209.687 120.259 211.486C117.465 212.805 114.632 214.106 111.903 215.574C110.649 216.26 109.408 216.961 108.198 217.737C106.81 218.477 105.551 219.438 104.473 220.583C104.415 220.627 104.377 220.693 104.367 220.765C104.357 220.837 104.377 220.91 104.421 220.968C104.465 221.026 104.531 221.064 104.603 221.073C104.675 221.083 104.748 221.064 104.806 221.019C105.901 220.397 106.957 219.706 107.966 218.951C109.208 218.109 110.494 217.333 111.818 216.626C114.34 215.242 116.938 214.022 119.537 212.803C123.518 211.027 127.347 208.928 130.985 206.526C137.571 201.963 143.518 196.532 149.7 191.439C152.247 189.345 154.937 187.438 157.494 185.485C157.519 185.466 157.535 185.438 157.539 185.407C157.543 185.376 157.535 185.345 157.516 185.32C157.497 185.295 157.469 185.279 157.438 185.275C157.407 185.271 157.376 185.279 157.351 185.298L157.488 185.316Z" fill="#465760"/>
<path d="M108.38 215.13C109.012 213.528 109.883 212.031 110.961 210.689C111.897 209.214 112.751 207.688 113.518 206.119C115.016 202.661 116.741 199.306 118.683 196.076C121.069 192.802 123.859 189.842 126.985 187.265C130.131 184.467 133.303 181.682 136.501 178.91C139.958 175.521 143.789 172.536 147.921 170.013L147.435 169.15C146.254 170.142 145.343 171.416 144.784 172.854C143.681 174.931 142.423 176.904 141.153 178.861C138.272 183.708 134.694 188.104 130.534 191.911C130.035 192.292 130.655 193.102 131.13 192.69C135.119 189.044 138.558 184.837 141.338 180.202C142.588 178.284 143.893 176.373 144.974 174.363C145.587 172.653 146.614 171.122 147.964 169.907C148.4 169.573 147.973 168.788 147.477 169.044C143.79 171.198 140.361 173.768 137.258 176.703C133.85 179.577 130.498 182.557 127.162 185.526C123.926 188.166 120.976 191.139 118.362 194.396C116.226 197.573 114.41 200.954 112.939 204.488C112.039 206.512 110.991 208.468 109.805 210.338C108.608 211.62 107.875 213.267 107.724 215.014C107.734 215.351 108.269 215.437 108.368 215.114L108.38 215.13Z" fill="#465760"/>
<path d="M67.8864 140.829C69.2847 154.745 74.6534 167.751 80.0561 180.607C85.2106 192.913 90.4484 205.328 92.8526 218.524C94.2637 225.76 94.4765 233.178 93.4825 240.483C93.3271 241.539 95.0007 241.791 95.1204 240.688C99.19 213.313 83.6938 188.665 74.5342 164.04C71.637 156.518 69.4966 148.726 68.145 140.78C68.1313 140.753 68.1096 140.732 68.083 140.719C68.0564 140.706 68.0264 140.702 67.9973 140.708C67.9683 140.714 67.9418 140.728 67.9218 140.75C67.9018 140.772 67.8894 140.8 67.8864 140.829Z" fill="#465760"/>
<path d="M67.8876 140.828C71.072 149.973 76.7887 157.973 80.4306 166.941C84.0359 175.785 86.7498 184.967 88.5319 194.35C89.5945 199.586 90.4571 204.851 91.2181 210.145C91.2527 210.267 91.3295 210.371 91.4347 210.441C91.5398 210.511 91.6664 210.541 91.7916 210.525C91.9168 210.51 92.0325 210.451 92.1177 210.358C92.203 210.265 92.2523 210.144 92.2567 210.018C90.9813 200.624 89.1379 191.315 86.7368 182.144C84.2426 172.89 80.6439 163.969 76.0181 155.575C73.3183 150.651 70.525 145.799 68.0673 140.74C68.0473 140.729 68.0244 140.724 68.0016 140.725C67.9787 140.727 67.9569 140.735 67.9387 140.749C67.9205 140.763 67.9067 140.782 67.8991 140.804C67.8915 140.825 67.8904 140.848 67.8958 140.871L67.8876 140.828Z" fill="#465760"/>
<path d="M67.7784 140.072C66.8888 144.353 66.7683 148.758 67.4227 153.081C67.9276 157.44 68.8419 161.742 70.1534 165.93C73.3007 175.319 77.6013 184.281 82.9565 192.61C86.1027 197.367 88.721 202.452 90.765 207.776C90.9985 208.437 92.0189 208.028 91.801 207.355C90.1556 202.916 88.0356 198.667 85.478 194.683C82.8623 190.386 80.2116 186.141 77.9746 181.629C73.3684 173.265 70.2304 164.174 68.6969 154.749C68.1687 149.854 67.9769 144.928 68.1231 140.006C68.0397 139.897 67.9683 139.803 67.8564 140.012L67.7784 140.072Z" fill="#465760"/>
<path d="M68.0746 140.685C70.8168 145.082 73.9688 149.24 76.7578 153.602C79.5951 157.959 82.1287 162.507 84.3407 167.212C86.5446 171.901 88.2237 176.819 89.3474 181.877C90.3644 187.055 91.0658 192.29 91.4479 197.553L93.0033 216.36C93.0643 217.054 94.146 216.918 94.0849 216.225L92.5792 199.033C92.2172 193.654 91.57 188.298 90.6402 182.988C88.3815 172.957 84.2851 163.432 78.5583 154.893C75.4887 149.859 72.0907 145.033 68.3863 140.446C68.3548 140.405 68.308 140.378 68.2565 140.371C68.2049 140.364 68.1527 140.378 68.1114 140.41C68.07 140.441 68.0429 140.488 68.036 140.539C68.0291 140.591 68.043 140.643 68.0746 140.685Z" fill="#465760"/>
<path d="M93.3421 215.188C95.0305 205.722 97.2052 196.348 99.8576 187.105C101.066 182.825 102.004 178.472 102.665 174.074C103.269 169.565 103.319 165.009 103.589 160.483C103.895 155.317 104.652 150.188 105.85 145.153C106.002 144.544 104.991 144.255 104.796 144.872C103.911 146.976 102.705 148.929 101.222 150.664C100.047 152.324 98.9945 154.068 98.0746 155.882C96.197 159.673 94.8086 163.686 93.943 167.827C92.3358 176.845 91.7562 186.016 92.2154 195.165C92.2969 200.83 92.394 206.483 91.9888 212.124C91.9334 212.957 93.1983 213.126 93.2537 212.294C94.545 194.175 90.6617 174.777 98.4715 157.727C99.49 155.48 100.719 153.334 102.142 151.319C103.669 149.493 104.91 147.446 105.824 145.248L104.742 144.963C103.688 149.421 102.974 153.952 102.606 158.518C102.254 163.033 102.169 167.64 101.781 172.108C100.85 181.36 97.7441 190.349 95.482 199.409C93.9455 204.489 92.9773 209.725 92.5951 215.018C92.583 215.423 93.1448 215.512 93.212 215.115L93.3421 215.188Z" fill="#465760"/>
<path d="M111.538 188.5C114.204 182.909 114.278 176.188 114 170.105C113.665 163.202 112.763 156.238 111.981 149.43C111.199 142.622 110.162 135.416 109.551 128.379C108.77 121.367 108.634 114.299 109.144 107.262C109.827 99.3345 113.033 92.3185 116.251 85.2199L115.03 84.7206C111.379 94.644 112.033 105.228 113 115.573C114.284 127.242 114.849 138.979 114.692 150.717C114.48 157.249 113.893 163.763 112.934 170.228C112.816 171.01 113.998 171.168 114.144 170.39C116.008 158.987 116.572 147.41 115.824 135.88C115.578 130.193 115.147 124.523 114.63 118.87C114.113 113.217 113.532 108.255 113.445 102.94C113.164 96.9036 114.119 90.8738 116.251 85.2199C116.288 85.0648 116.269 84.9014 116.196 84.7593C116.124 84.6172 116.003 84.5059 115.855 84.4455C115.707 84.3851 115.543 84.3796 115.391 84.4301C115.24 84.4806 115.112 84.5837 115.03 84.7206C111.918 90.7582 109.64 97.1904 108.259 103.841C107.359 110.691 107.253 117.622 107.943 124.497C108.853 138.613 111.447 152.479 112.603 166.531C112.956 170.186 113.058 173.861 112.909 177.53C112.648 181.196 112.054 184.831 111.133 188.39C111.057 188.646 111.407 188.748 111.538 188.5Z" fill="#465760"/>
<path d="M115.946 84.564C113.476 86.3277 111.386 88.5705 109.801 91.1588C108.064 93.6518 106.595 96.3214 105.419 99.123C103.155 104.527 101.989 110.327 101.988 116.185C101.958 127.909 106.122 139.144 109.167 150.272C111.039 156.485 112.256 162.877 112.8 169.343C112.842 170.076 113.955 169.917 113.91 169.211C112.615 146.675 97.5724 124.915 105.48 102.112C106.627 98.8487 108.144 95.7273 110 92.8088C111.811 89.9443 114.23 87.5532 116.151 84.7034C116.176 84.6844 116.192 84.6564 116.196 84.6255C116.201 84.5945 116.192 84.5632 116.173 84.5384C116.154 84.5136 116.126 84.4973 116.095 84.4932C116.064 84.4891 116.033 84.4974 116.008 84.5163L115.946 84.564Z" fill="#465760"/>
<path d="M116.245 84.6324C115.153 86.3495 114.756 88.4182 115.134 90.4176C115.382 93.1657 115.768 95.9323 116.2 98.6631C117.026 104.204 118.079 109.719 118.662 115.297C119.614 126.024 119.109 136.831 117.161 147.423C116.162 153.321 114.912 159.214 113.63 165.13C113.487 165.783 114.504 165.919 114.647 165.266C117.13 155.039 118.858 144.643 119.818 134.162C120.231 129.079 120.274 123.972 119.946 118.883C119.575 113.389 118.668 107.936 117.768 102.526C117.27 99.4501 116.757 96.3865 116.357 93.3101C116.007 90.5903 115.328 87.4065 116.662 84.8562C116.794 84.6079 116.341 84.4353 116.233 84.6168L116.245 84.6324Z" fill="#465760"/>
<path d="M119.649 130.094C121.918 124.306 125.784 119.281 130.797 115.604C135.358 112.268 140.472 109.818 145.331 106.969L144.915 106.424C141.562 109.917 138.499 113.678 135.755 117.667C133.211 121.511 130.912 125.514 128.601 129.501C124.068 136.826 119.972 144.414 116.337 152.224C116.282 152.362 116.283 152.515 116.341 152.652C116.399 152.788 116.508 152.896 116.646 152.951C116.783 153.007 116.937 153.006 117.073 152.948C117.21 152.89 117.317 152.78 117.373 152.643C120.992 144.81 125.067 137.197 129.577 129.841C131.891 125.729 134.225 121.675 136.722 117.866C139.334 113.983 142.226 110.296 145.377 106.836C145.705 106.585 145.191 106.139 144.96 106.29C139.939 109.41 134.526 111.793 129.774 115.299C124.817 118.904 121.218 124.071 119.554 129.969L119.637 130.078L119.649 130.094Z" fill="#465760"/>
<path d="M217.067 158.317C203.475 156.036 190.439 151.283 176.766 149.607C165.661 147.973 154.343 148.526 143.451 151.236C136.923 153.027 130.687 155.746 124.933 159.309C124.34 159.762 125.011 160.607 125.635 160.229C135.709 154.352 147.026 150.933 158.669 150.249C170.686 149.811 182.701 151.146 194.329 154.21C201.807 156.23 209.386 157.856 217.034 159.083C217.474 159.141 217.551 158.466 217.126 158.395L217.067 158.317Z" fill="#465760"/>
<path d="M215.517 158.193C206.988 153.326 197.819 149.677 188.278 147.354C179.203 145.426 169.832 145.348 160.725 147.124C154.835 148.266 149.038 149.856 143.232 151.304C142.598 151.443 142.713 152.466 143.351 152.299C152.935 149.915 162.57 147.146 172.534 146.941C182.02 146.841 191.435 148.586 200.255 152.078C205.365 154.05 210.341 156.395 215.375 158.524C215.599 158.624 215.702 158.274 215.517 158.193Z" fill="#465760"/>
<path d="M217.007 158.561C207.777 159.243 198.679 157.577 189.763 155.6C180.507 153.524 171.128 152.04 161.683 151.156C159.154 150.948 156.626 150.806 154.099 150.729C151.374 150.549 148.642 150.511 145.913 150.613C145.321 150.646 145.302 151.623 145.899 151.661C148.365 151.851 150.863 151.695 153.362 151.736C155.862 151.777 157.895 151.853 160.156 152.001C165.31 152.285 170.323 152.998 175.371 153.758C179.87 154.444 184.321 155.166 188.763 156.068C193.204 156.97 197.465 157.764 201.779 158.468C206.851 159.217 211.998 159.332 217.099 158.811C217.099 158.811 217.255 158.692 216.992 158.671L217.007 158.561Z" fill="#465760"/>
<path d="M216.99 158.376C212.493 159.364 207.886 159.754 203.288 159.537C199.563 159.347 195.839 158.834 192.124 158.463C187.098 158.045 182.098 157.357 177.145 156.402C172.586 155.442 168.154 153.939 163.598 152.952C161.02 152.453 158.324 151.896 155.671 151.429C153.25 150.918 150.788 150.626 148.315 150.556C148.076 150.566 148.02 150.979 148.264 151.04C150.318 151.579 152.404 151.989 154.509 152.267C156.946 152.677 159.397 153.075 161.811 153.552C166.515 154.476 171.036 155.935 175.745 156.929C180.685 157.926 185.679 158.636 190.701 159.056C194.514 159.427 198.336 159.938 202.167 160.171C207.151 160.507 212.158 160.102 217.023 158.968C217.371 158.875 217.319 158.322 216.959 158.4L216.99 158.376Z" fill="#465760"/>
<path d="M148.547 150.799C156.355 146.834 163.963 142.478 172.528 140.182C176.865 139.041 181.295 138.248 185.75 137.487C190.204 136.725 194.273 135.913 198.585 135.482C203.504 134.993 208.451 134.86 213.389 135.084L213.407 134.527C209.911 135.346 206.366 136.006 202.862 136.88C199.455 137.729 196.139 138.907 192.959 140.397C190.095 141.933 187.065 143.138 183.928 143.988C180.615 144.693 177.322 145.036 173.963 145.874C173.372 146.004 173.482 146.957 174.074 146.826C177.311 146.056 180.596 145.67 183.85 144.986C186.855 144.252 189.755 143.14 192.48 141.676C195.643 140.066 198.953 138.761 202.364 137.779C206.039 136.774 209.743 135.87 213.439 135.021C213.729 134.948 213.792 134.48 213.458 134.464C204.712 134.095 195.952 134.702 187.34 136.272C178.58 137.731 169.72 139.414 161.601 143.295C157.073 145.452 152.682 147.883 148.451 150.576C148.311 150.683 148.431 150.937 148.642 150.825L148.547 150.799Z" fill="#465760"/>
<path d="M166.191 40.725C162.451 46.1267 159.476 52.0209 157.354 58.2392C155.618 63.7734 154.416 69.461 153.765 75.2243C152.236 86.8592 152.137 98.6854 150.615 110.265C150.19 113.651 149.639 117.034 148.954 120.371C148.27 123.708 147.145 126.987 146.457 130.351C146.322 131.047 147.356 131.269 147.633 130.662C148.816 127.923 149.684 125.058 150.217 122.122C150.819 119.193 151.374 116.301 151.851 113.468C152.682 107.575 153.128 101.631 153.515 95.7071C154.257 84.3028 154.582 72.6746 157.591 61.5877C159.504 54.3319 162.474 47.3969 166.406 41.0056C166.577 40.8746 166.253 40.5793 166.113 40.7845L166.191 40.725Z" fill="#465760"/>
<path d="M165.953 40.4133C162.925 43.765 160.278 47.4427 158.062 51.3787C155.998 54.8375 154.395 58.5516 153.295 62.4262C151.354 70.2318 150.615 78.2878 151.105 86.3161C151.236 91.3997 151.513 96.5449 151.707 101.581C151.734 102.424 153.015 102.26 153 101.432C152.44 85.1233 150.108 68.1435 158.173 53.2688C160.589 48.8859 163.376 44.7173 166.502 40.8087C166.739 40.5045 166.277 40.1907 166.016 40.4638L165.953 40.4133Z" fill="#465760"/>
<path d="M166.105 40.3217C165.106 44.4423 164.752 48.7613 164.098 52.9142C163.467 56.9836 162.596 61.012 161.49 64.9785C159.295 72.8017 156.99 80.6102 154.945 88.4674C153.761 92.8965 152.805 97.3836 152.082 101.911C151.983 102.653 153.126 102.792 153.237 102.066C154.597 93.9999 156.463 86.0278 158.825 78.1967C161.267 70.4621 163.268 62.5953 164.819 54.6342C165.656 49.9183 166.232 45.1599 166.545 40.3806C166.553 40.3222 166.537 40.2632 166.501 40.2164C166.466 40.1696 166.413 40.139 166.355 40.1312C166.296 40.1233 166.237 40.139 166.19 40.1748C166.144 40.2105 166.113 40.2633 166.105 40.3217Z" fill="#465760"/>
<path d="M166.071 40.5701C166.037 44.792 166.341 49.0032 166.253 53.2178C166.175 57.4431 165.77 61.656 165.043 65.8189C164.32 69.9932 163.177 74.0836 161.631 78.0276C159.854 82.52 157.687 86.7923 156.111 91.3535C154.321 96.301 152.889 101.371 151.828 106.524C151.735 107.114 152.679 107.38 152.87 106.79C154.332 102.241 155.345 97.4927 156.791 92.858C158.237 88.2234 160.365 83.9319 162.209 79.4624C165.318 71.5868 167.002 63.2208 167.181 54.7554C167.439 50.0104 167.166 45.2515 166.365 40.5675C166.282 40.4583 166.065 40.4014 166.071 40.5701Z" fill="#465760"/>
<path d="M150.577 111.898C150.718 109.756 150.725 107.607 150.599 105.464C150.387 103.412 149.959 101.39 149.321 99.4288C148.06 95.2576 146.134 91.3472 144.517 87.3243C141.292 79.653 139.134 71.5759 138.102 63.3183C137.58 58.6805 137.624 53.9963 138.234 49.3692L137.17 49.3668C138.001 58.1128 142.995 65.5546 146.154 73.6325C149.335 82.27 151.091 91.3673 151.352 100.568C151.385 101.259 152.439 101.12 152.418 100.445C152.149 91.4157 150.459 82.4852 147.409 73.9824C144.326 65.7468 139.061 58.1426 138.24 49.2161C138.24 49.1463 138.227 49.0771 138.2 49.0126C138.173 48.948 138.134 48.8893 138.085 48.8398C138.036 48.7904 137.977 48.7511 137.913 48.7242C137.848 48.6974 137.779 48.6834 137.71 48.6833C137.64 48.6831 137.571 48.6967 137.506 48.7233C137.441 48.7499 137.383 48.7889 137.333 48.8382C137.233 48.9377 137.177 49.0728 137.177 49.2138C136.247 57.2476 136.859 65.3851 138.978 73.1899C139.99 77.0372 141.232 80.8204 142.696 84.5194C144.218 88.5157 146.065 92.3875 147.603 96.372C148.537 98.6711 149.202 101.071 149.585 103.523C149.902 106.255 150.015 109.006 149.924 111.755C149.921 112.202 150.632 112.325 150.639 111.851L150.577 111.898Z" fill="#465760"/>
<path d="M248.535 115.492C243.154 115.603 237.773 115.28 232.444 114.528C227.227 113.774 222.147 112.52 216.989 111.326C207.066 109.089 196.889 108.188 186.727 108.648C180.646 108.86 174.584 109.451 168.577 110.417C168.468 110.447 168.373 110.515 168.31 110.609C168.247 110.703 168.22 110.816 168.233 110.929C168.247 111.041 168.301 111.145 168.385 111.221C168.469 111.296 168.578 111.339 168.691 111.342C179.168 109.926 189.751 109.45 200.313 109.92C210.764 110.675 220.91 113.292 231.239 114.857C236.96 115.726 242.754 116.014 248.533 115.716C248.533 115.716 248.689 115.597 248.426 115.576L248.535 115.492Z" fill="#465760"/>
<path d="M248.732 115.071C245.146 114.675 241.566 114.447 237.997 113.718C234.428 112.988 230.931 112.03 227.384 111.136C220.37 109.136 213.131 108.031 205.839 107.846C201.56 107.833 197.288 108.212 193.078 108.98C192.42 109.087 192.535 110.11 193.193 110.003C200.686 108.636 208.353 108.508 215.887 109.625C223.01 110.676 229.818 113.029 236.897 114.508C240.755 115.563 244.765 115.948 248.752 115.647C248.823 115.628 248.885 115.586 248.93 115.528C248.975 115.47 248.999 115.399 248.999 115.326C248.999 115.253 248.976 115.182 248.931 115.124C248.887 115.065 248.825 115.023 248.755 115.004L248.732 115.071Z" fill="#465760"/>
<path d="M247.535 115.54C242.637 115.752 237.719 116.004 232.823 116.09C228.096 116.326 223.358 115.955 218.724 114.987C214.219 113.936 209.88 112.264 205.394 111.174C203.2 110.628 200.995 110.165 198.778 109.785C196.422 109.29 194.03 108.979 191.625 108.855C191.487 108.848 191.35 108.894 191.244 108.984C191.137 109.073 191.069 109.2 191.052 109.338C191.035 109.476 191.072 109.615 191.154 109.728C191.236 109.84 191.357 109.917 191.494 109.943C193.836 110.425 196.247 110.607 198.613 111.022C200.978 111.437 203.329 111.961 205.657 112.553C210.085 113.663 214.524 115.209 218.935 116.233C223.371 117.116 227.903 117.422 232.417 117.142C237.465 116.964 242.492 116.629 247.504 115.984C247.747 115.947 247.681 115.602 247.457 115.6L247.535 115.54Z" fill="#465760"/>
<path d="M248.2 115.18C239.701 113.329 232.64 107.738 224.239 105.466C216.32 103.572 208.058 103.639 200.171 105.659C195.581 106.697 191.087 108.698 186.346 108.987C185.907 109.027 185.917 109.686 186.341 109.756C190.399 110.285 194.555 108.197 198.407 107.229C202.392 106.214 206.464 105.582 210.569 105.344C214.702 105.082 218.852 105.393 222.901 106.267C227.104 107.325 231.171 108.865 235.022 110.856C239.18 113.074 243.649 114.653 248.278 115.541C248.278 115.541 248.48 115.386 248.295 115.305L248.2 115.18Z" fill="#465760"/>
<path d="M200.648 106.06C204.551 105.177 208.277 103.641 211.668 101.517C215.165 99.3402 218.402 96.7927 221.97 94.7091C225.525 92.5535 229.538 91.2641 233.684 90.9449C237.627 90.7949 241.576 91.0002 245.483 91.5584L245.487 90.6913C239.866 92.0177 234.435 94.0512 229.325 96.7431C224.233 99.4483 219.541 102.613 213.965 104.33C213.441 104.483 213.672 105.368 214.205 105.257C219.66 104.126 224.333 100.581 229.096 97.93C234.258 95.0294 239.8 92.8647 245.561 91.4989C246.007 91.4047 246.087 90.7017 245.565 90.6318C241.705 90.0443 237.801 89.7888 233.898 89.8679C229.986 90.0559 226.167 91.118 222.72 92.9762C219.127 94.9305 215.893 97.4505 212.496 99.7248C208.784 102.233 204.747 104.222 200.495 105.634C200.34 105.753 200.385 106.039 200.589 105.982L200.648 106.06Z" fill="#465760"/>
<path d="M235.798 46.081C231.363 50.7774 228.312 56.7367 224.608 62.0348C222.523 64.9605 220.031 67.5799 217.832 70.4204C215.058 74.3754 211.789 77.9591 208.106 81.0842C203.81 84.7377 199.801 88.7161 196.115 92.9843C195.663 93.3296 196.449 93.9387 196.854 93.531C200.289 89.512 204.024 85.7593 208.026 82.3051C211.597 79.4563 214.767 76.1381 217.45 72.4404C219.773 69.4066 222.377 66.5783 224.649 63.5096C226.703 60.7058 228.564 57.7781 230.43 54.921C232.296 52.0639 234.074 49.027 236.188 46.3011C236.36 46.1701 236.067 45.9491 235.92 46.1113L235.798 46.081Z" fill="#465760"/>
<path d="M235.928 45.8325C233.438 52.1046 231.053 58.419 228.008 64.5469C226.493 67.7344 224.681 70.7718 222.595 73.6188C219.401 77.5483 215.683 81.0202 211.544 83.9373C209.336 85.6858 207.026 87.3019 204.626 88.7774C201.98 90.3545 199.205 91.5365 196.439 92.8596C196.337 92.9016 196.256 92.9825 196.213 93.0844C196.171 93.1863 196.17 93.3009 196.212 93.4031C196.254 93.5052 196.335 93.5864 196.437 93.6289C196.539 93.6715 196.654 93.6717 196.756 93.6297C201.576 91.7552 206.118 89.2321 210.257 86.1302C214.463 83.2445 218.326 79.8878 221.77 76.1254C226.44 70.0893 230.136 63.3592 232.724 56.1796C234.167 52.8573 235.342 49.4252 236.239 45.916C236.277 45.7391 236.025 45.6354 235.928 45.8325Z" fill="#465760"/>
<path d="M235.411 46.2533C233.678 48.0665 231.758 49.6906 229.682 51.0985C228.31 52.1464 226.994 53.2998 225.702 54.4844C222.799 57.1467 220.026 59.9804 217.326 62.9077C211.925 68.664 207.066 74.9047 202.809 81.5511C201.404 83.7842 199.972 86.0136 198.426 88.1578C196.879 90.3019 195.174 92.2709 193.6 94.3133C193.535 94.3955 193.505 94.5002 193.518 94.6042C193.53 94.7082 193.583 94.803 193.665 94.8679C193.748 94.9327 193.852 94.9622 193.956 94.9499C194.06 94.9375 194.155 94.8844 194.22 94.8021C199.848 88.3061 203.861 80.6982 209.078 73.9233C214.113 67.3663 219.662 61.2204 225.672 55.544C227.112 54.1973 228.522 52.9724 230.013 51.7586C232.115 50.2373 234.01 48.4492 235.652 46.4395C235.669 46.4124 235.677 46.3807 235.676 46.3487C235.674 46.3167 235.663 46.2859 235.644 46.2605C235.624 46.235 235.597 46.2161 235.567 46.2063C235.536 46.1965 235.504 46.1963 235.473 46.2057L235.411 46.2533Z" fill="#465760"/>
<path d="M232.218 50.4443C228.412 53.5736 225.708 57.8859 222.448 61.5362C219.759 64.479 216.818 67.3182 214.086 70.2693C210.921 73.5326 208.006 77.03 205.367 80.7319C203.992 82.7451 202.771 84.8628 201.447 86.9108C200.055 88.9823 198.537 90.9664 196.901 92.8519C196.852 92.9237 196.83 93.0103 196.838 93.0968C196.847 93.1832 196.885 93.264 196.946 93.3253C197.008 93.3867 197.089 93.4246 197.175 93.4326C197.262 93.4406 197.348 93.4182 197.42 93.3692C200.662 90.8922 202.729 86.8445 204.853 83.4201C207.312 79.6401 210.092 76.0792 213.163 72.7767C216.201 69.4188 219.307 66.0838 222.456 62.8387C224.082 61.0523 225.609 59.1775 227.028 57.223C228.63 54.8794 230.388 52.646 232.289 50.5379L232.218 50.4443Z" fill="#465760"/>
<path d="M197.217 90.3898C199.326 87.0005 200.748 83.23 201.403 79.2925C202.341 75.0432 203.019 70.7409 203.435 66.4094C203.826 61.9134 204.494 57.4458 205.436 53.0323C206.713 48.6609 208.789 44.5639 211.559 40.9487L210.806 40.512C209.605 43.5929 208.74 46.7945 208.226 50.061C207.846 53.4944 207.772 56.9548 208.004 60.4014C208.324 67.372 206.71 74.2953 203.34 80.4053C203.027 80.9652 203.813 81.5743 204.126 81.0144C207.31 75.3605 208.984 68.9809 208.984 62.4918C208.986 58.7134 208.607 54.9542 208.958 51.1806C209.285 47.6272 210.19 44.1511 211.637 40.8891C211.853 40.4282 211.198 40.0887 210.896 40.468C208.167 43.7226 206.097 47.4759 204.798 51.5195C203.721 55.821 202.99 60.2017 202.611 64.6198C202.086 69.0697 201.643 73.5307 200.775 77.9209C200.373 80.0894 199.82 82.2273 199.121 84.3191C198.452 86.2867 197.515 88.1626 196.83 90.1422C196.773 90.3585 197.104 90.5007 197.193 90.3587L197.217 90.3898Z" fill="#465760"/>
<path d="M153.358 102.936C156.773 100.356 159.988 97.5208 162.974 94.4545C165.939 91.5815 168.608 88.4177 170.941 85.0108C173.093 81.6882 174.222 77.9627 176.031 74.4822C178.193 70.8915 180.845 67.6196 183.91 64.7607C184.159 64.5702 183.802 64.1026 183.517 64.2463C176.37 67.7355 170.361 73.182 166.188 79.9524C165.171 81.5935 164.311 83.3118 163.396 85.0227C162.263 86.9368 160.935 88.7288 159.434 90.3701C156.898 93.5185 154.856 97.0346 153.378 100.797C153.194 101.235 153.854 101.421 154.028 101.066C155.799 97.3457 157.936 93.811 160.408 90.5145C161.692 89.1611 162.836 87.6829 163.826 86.1018C164.827 84.3744 165.674 82.5425 166.702 80.8188C170.611 73.8525 176.585 68.2708 183.8 64.8441L183.473 64.2546C180.386 66.8218 177.744 69.8825 175.656 73.3124C173.713 76.747 172.746 80.6202 170.685 83.9969C166.238 91.2947 159.477 97.0515 153.108 102.609C153.075 102.653 153.057 102.707 153.057 102.762C153.058 102.818 153.076 102.872 153.11 102.916C153.143 102.96 153.19 102.992 153.244 103.007C153.297 103.021 153.354 103.019 153.405 102.998L153.358 102.936Z" fill="#465760"/>
<path d="M97.7387 233.158C111.556 222.875 127.958 216.635 145.116 215.134L145.006 214.181C141.663 214.588 138.999 216.82 136.176 218.458C132.752 220.533 129.157 222.313 125.43 223.779C118.861 226.328 111.975 227.59 105.376 229.842C101.93 230.847 98.6997 232.478 95.8451 234.654C95.7377 234.736 95.6672 234.857 95.6492 234.991C95.6313 235.126 95.6673 235.261 95.7495 235.369C95.8316 235.476 95.953 235.547 96.0871 235.565C96.2212 235.583 96.3569 235.547 96.4644 235.464C103.296 230.641 111.778 229.271 119.589 226.958C124.196 225.59 128.652 223.758 132.888 221.488C134.938 220.391 136.917 219.201 138.863 217.936C140.684 216.513 142.814 215.537 145.08 215.087C145.143 215.08 145.203 215.06 145.258 215.03C145.313 214.999 145.362 214.958 145.401 214.909C145.44 214.859 145.469 214.803 145.486 214.742C145.503 214.682 145.509 214.618 145.501 214.556C145.494 214.493 145.475 214.433 145.444 214.378C145.413 214.323 145.372 214.274 145.323 214.235C145.273 214.196 145.217 214.167 145.156 214.15C145.096 214.133 145.032 214.127 144.97 214.135C136.457 214.901 128.09 216.833 120.103 219.875C111.873 222.867 104.18 227.168 97.3219 232.612C97.2685 232.677 97.2386 232.758 97.2371 232.842C97.2356 232.926 97.2625 233.009 97.3135 233.075C97.3646 233.142 97.4367 233.19 97.5182 233.21C97.5997 233.231 97.6858 233.224 97.7625 233.189L97.7387 233.158Z" fill="#465760"/>
</svg>
