<svg width="248" height="260" viewBox="0 0 248 260" fill="none" xmlns="http://www.w3.org/2000/svg">
<path d="M179.882 210.886C177.561 207.364 176.701 203.096 174.526 199.548C172.192 196.01 169.348 192.835 166.087 190.126C160.458 185.612 154.079 182.124 147.241 179.822C145.108 178.77 142.744 178.278 140.369 178.393C138.276 178.782 138.177 180.823 139.196 182.35C141.002 184.616 143.247 186.495 145.797 187.874C149.232 190.1 152.787 192.135 156.446 193.97C165.005 198.281 174.219 202.787 179.06 211.469C179.427 212.164 180.64 211.498 180.273 210.804C176.743 204.213 170.6 199.87 164.195 196.314C157.47 192.997 150.931 189.314 144.609 185.281C143.776 184.705 138.771 181.268 140.258 179.888C140.778 179.424 142.031 179.734 142.631 179.826C143.891 180.066 145.126 180.421 146.322 180.887C152.61 182.911 158.532 185.932 163.862 189.834C167.535 192.636 170.738 196.007 173.35 199.818C175.776 203.427 176.853 207.823 179.552 211.19C179.604 211.237 179.671 211.264 179.74 211.267C179.81 211.271 179.879 211.25 179.935 211.209C179.991 211.168 180.032 211.108 180.049 211.041C180.067 210.973 180.061 210.901 180.032 210.838L179.882 210.886Z" fill="#465760"/>
<path d="M179.341 211.182C181.699 216.624 186.926 219.078 191.694 222.053C194.305 223.682 196.909 225.357 199.392 227.202C202.012 229.233 204.393 231.556 206.488 234.125C206.867 234.585 207.73 234.197 207.415 233.629C204.712 228.276 198.84 224.943 193.95 221.831C189.06 218.72 182.818 216.417 179.944 210.943C179.759 210.608 179.182 210.827 179.341 211.182Z" fill="#465760"/>
<path d="M165.972 206.017C170.067 207.746 173.861 210.114 177.214 213.031C178.789 214.427 180.455 215.717 182.202 216.89C183.047 217.423 183.919 217.911 184.815 218.354C185.565 218.854 186.429 219.157 187.327 219.234C187.398 219.226 187.466 219.199 187.522 219.156C187.579 219.113 187.624 219.056 187.651 218.99C187.678 218.924 187.686 218.852 187.676 218.781C187.666 218.711 187.636 218.645 187.591 218.589C186.902 218.018 186.11 217.584 185.258 217.31C184.264 216.851 183.328 216.33 182.368 215.805C180.474 214.693 178.693 213.399 177.05 211.942C173.85 209.15 170.107 207.048 166.057 205.77C166.027 205.765 165.996 205.773 165.971 205.791C165.946 205.809 165.929 205.837 165.924 205.868C165.92 205.898 165.927 205.929 165.946 205.954C165.964 205.979 165.992 205.996 166.022 206.001L165.972 206.017Z" fill="#465760"/>
<path d="M169.544 207.083C155.598 199.513 141.253 188.219 124.524 189.726C122.126 189.95 114.118 190.38 114.363 194.341C114.599 197.284 118.237 197.911 120.541 198.146C125.477 198.641 130.386 199.77 135.291 200.615C140.836 201.605 146.424 202.317 151.988 203.334C157.813 204.41 163.572 205.82 169.235 207.556C169.335 207.574 169.437 207.557 169.526 207.509C169.615 207.461 169.685 207.384 169.724 207.291C169.763 207.197 169.769 207.093 169.741 206.996C169.713 206.899 169.653 206.814 169.57 206.756C161.245 202.93 151.749 201.808 142.791 200.414C138.172 199.708 133.366 198.831 128.675 197.972C126.574 197.65 124.513 197.217 122.393 197.011C120.654 196.97 118.931 196.658 117.287 196.088C116.564 195.717 115.472 194.818 115.852 193.883C116.231 192.948 117.151 192.805 117.781 192.547C119.937 191.796 122.185 191.345 124.463 191.205C130.467 190.73 136.499 191.652 142.085 193.901C151.58 197.504 159.849 203.709 169.34 207.335C169.478 207.357 169.549 207.202 169.372 207.128L169.544 207.083Z" fill="#465760"/>
<path d="M142.218 212.191C149.242 212.395 156.241 213.134 163.153 214.4C165.811 214.949 168.451 215.613 171.122 216.234C174.316 216.982 177.559 217.573 180.743 218.391C183.017 218.975 185.132 219.677 187.282 220.455C189.052 221.279 190.883 221.962 192.76 222.498C193.291 222.579 193.509 221.927 193.159 221.59C191.773 220.542 190.197 219.771 188.519 219.32C186.705 218.665 184.857 218.075 182.972 217.574C179.567 216.651 176.096 216.167 172.62 215.399C167.106 214.012 161.516 212.944 155.879 212.2C151.317 211.771 146.735 211.599 142.154 211.685C141.877 211.642 141.868 212.161 142.08 212.17L142.218 212.191Z" fill="#465760"/>
<path d="M146.297 211.8C141.919 210.752 137.502 209.958 133.168 208.775C128.835 207.592 124.968 206.292 120.823 205.114C116.726 203.885 112.493 203.166 108.221 202.974C105.378 202.668 102.504 202.902 99.748 203.663C98.1622 204.295 97.0356 205.943 98.3958 207.404C99.8726 208.622 101.631 209.452 103.51 209.817C107.379 210.952 111.264 211.972 115.195 212.857C119.448 213.956 123.788 214.691 128.166 215.054C131.635 215.166 135.107 214.904 138.52 214.274C141.813 213.761 145.172 213.282 148.418 212.455C148.885 212.337 148.549 211.601 148.208 211.667C142.703 212.266 137.274 213.303 131.723 213.589C124.383 213.979 116.856 211.882 109.799 210.117C107.1 209.52 104.437 208.773 101.821 207.88C100.954 207.647 100.141 207.25 99.4238 206.71C98.229 205.558 99.955 204.782 101.024 204.591C102.26 204.352 103.52 204.259 104.778 204.314C106.39 204.277 107.984 204.214 109.622 204.323C113.436 204.642 117.209 205.346 120.882 206.423C129.207 208.713 137.484 211.775 146.175 212.443C146.254 212.455 146.335 212.435 146.4 212.387C146.465 212.34 146.509 212.268 146.521 212.188C146.533 212.109 146.513 212.028 146.465 211.963C146.418 211.898 146.346 211.854 146.266 211.842L146.297 211.8Z" fill="#465760"/>
<path d="M175.922 110.368C176.491 114.686 178.239 118.712 178.857 123.013C179.321 127.666 179.018 132.362 177.96 136.916C177.115 141.514 176.232 145.894 175.89 150.451C175.514 154.877 175.506 159.326 175.864 163.754C176.18 168.793 177 173.789 178.31 178.665C178.544 179.457 179.942 179.127 179.761 178.296C177.56 169.443 176.711 160.308 177.24 151.201C177.687 146.656 178.378 142.138 179.311 137.667C180.242 133.429 180.533 129.075 180.175 124.751C179.544 119.762 177.232 115.248 176.35 110.197C176.335 110.15 176.304 110.11 176.262 110.084C176.221 110.057 176.171 110.046 176.122 110.053C176.073 110.06 176.028 110.083 175.995 110.12C175.962 110.156 175.942 110.203 175.94 110.253L175.922 110.368Z" fill="#465760"/>
<path d="M126.214 155.19C135.801 156.673 145.123 159.532 153.894 163.678C158.28 165.757 162.502 168.165 166.525 170.881C170.552 173.601 174.11 176.769 177.914 179.714C178.694 180.33 179.947 179.245 179.218 178.448C175.751 174.982 171.872 171.951 167.669 169.425C163.547 166.739 159.235 164.358 154.766 162.299C145.821 158.035 136.184 155.408 126.313 154.543C125.92 154.483 125.798 155.126 126.214 155.19Z" fill="#465760"/>
<path d="M85.8471 83.6135C109.864 99.1065 131.33 118.234 149.479 140.313C167.626 162.474 183.056 186.728 195.44 212.556C199.147 219.98 202.473 227.589 205.402 235.353C206.897 239.278 208.17 243.284 209.215 247.353C210.182 251.235 210.757 255.199 211.432 259.132C211.598 260.055 213.136 260.196 213.176 259.162C213.474 252.117 211.199 244.891 208.971 238.286C206.512 231.088 203.645 224.037 200.384 217.165C194.247 204.121 187.417 191.415 179.922 179.1C165.003 154.193 146.604 131.545 125.281 111.84C113.296 100.881 100.212 91.1888 86.2373 82.9168C85.8925 82.6986 85.5164 83.3029 85.8612 83.5211L85.8471 83.6135Z" fill="#465760"/>
<path d="M177.943 117.862C177.33 113.918 176.458 110.018 175.333 106.188C174.336 102.349 173.214 98.5607 171.87 94.8332C169.662 88.87 167.307 81.7025 162.083 77.6888C161.194 77.0092 159.932 76.2962 159.173 77.551C158.621 79.1193 158.567 80.8201 159.019 82.4202C159.972 87.4266 161.617 92.2762 163.906 96.8296C167.211 104.615 171.783 111.8 177.436 118.092C178.102 118.832 179.381 117.893 178.691 117.149C174.031 112.205 170.109 106.614 167.048 100.548C165.509 97.4766 164.103 94.307 162.766 91.1479C161.928 89.286 161.235 87.3624 160.691 85.3942C160.233 83.6927 159.93 81.9533 159.785 80.1972C159.66 79.5099 159.711 78.8022 159.934 78.1401C160.414 77.3154 161.296 78.3485 161.835 78.6909C166.585 82.5611 168.76 89.2047 170.884 94.6351C172.268 98.3405 173.466 102.113 174.473 105.939C175.544 109.908 176.233 114.055 177.553 117.945C177.564 117.993 177.594 118.036 177.637 118.062C177.679 118.088 177.731 118.097 177.779 118.086C177.828 118.074 177.87 118.044 177.897 118.001C177.923 117.959 177.932 117.908 177.92 117.859L177.943 117.862Z" fill="#465760"/>
<path d="M181.961 127.295C186.478 120.02 187.152 110.976 187.079 102.645C186.968 93.1731 185.494 83.493 186.576 73.944C186.99 71.2417 187.396 66.5765 191.155 66.7261C194.914 66.8756 195.784 72.1614 196.331 74.9161C198.105 84.3348 195.653 93.7216 192.877 102.752C191.451 106.953 189.636 111.012 187.454 114.875C185.058 118.684 182.976 122.682 181.229 126.828C181.144 127.383 181.747 127.924 182.135 127.392C184.523 123.885 186.664 120.216 188.542 116.412C190.67 112.633 192.498 108.692 194.009 104.627C195.574 100.065 196.802 95.3938 197.683 90.652C198.673 85.7272 198.799 80.6678 198.055 75.6998C197.519 72.4033 196.88 67.9326 193.803 65.9493C192.824 65.3212 191.659 65.0487 190.504 65.1775C189.348 65.3062 188.271 65.8284 187.455 66.6564C186.442 67.7496 185.787 69.125 185.575 70.5999C185.105 73.1582 184.843 75.7504 184.791 78.351C184.616 83.3588 184.914 88.368 185.234 93.3807C185.72 99.0785 185.815 104.803 185.521 110.514C185.127 116.16 183.745 121.693 181.437 126.86C181.387 127.183 181.787 127.505 181.975 127.203L181.961 127.295Z" fill="#465760"/>
<path d="M183.999 122.004C181.278 125.308 179.481 129.273 178.79 133.498C178.229 135.776 177.691 138.057 177.244 140.518L176.7 144.074C176.401 145.223 176.299 146.414 176.397 147.597C176.421 147.737 176.489 147.866 176.591 147.966C176.692 148.065 176.822 148.13 176.963 148.152C177.103 148.173 177.247 148.15 177.373 148.085C177.5 148.021 177.603 147.918 177.668 147.792C178.046 146.761 178.267 145.679 178.324 144.583L178.868 141.026C179.221 138.716 179.678 136.659 180.175 134.49C180.591 132.376 181.124 130.288 181.77 128.233C182.549 126.204 183.543 124.264 184.735 122.447C185.017 121.994 184.333 121.676 183.999 122.004Z" fill="#465760"/>
<path d="M187.902 155.054C193.907 149.023 197.793 140.612 200.547 132.808C203.374 124.521 205.55 116.026 207.057 107.401C207.463 104.745 208.979 100.864 211.859 99.9577C212.673 99.7996 213.517 99.922 214.253 100.305C214.988 100.688 215.572 101.309 215.91 102.066C216.785 103.845 217.049 105.863 216.662 107.807C216.239 111.946 215.385 116.03 214.113 119.992C212.526 124.464 210.483 128.762 208.015 132.815C205.686 136.852 202.938 140.63 199.814 144.088C196.554 147.549 192.78 150.488 188.625 152.801C187.974 153.197 188.591 154.261 189.275 153.964C197.418 150.482 203.526 143.002 208.137 135.576C210.775 131.482 213.021 127.149 214.844 122.633C216.398 118.285 217.483 113.784 218.079 109.206C218.62 105.672 218.629 101.75 215.589 99.37C215.077 98.9512 214.482 98.6459 213.843 98.4742C213.205 98.3025 212.537 98.2683 211.884 98.374C211.231 98.4797 210.608 98.7228 210.056 99.0872C209.504 99.4516 209.035 99.9291 208.682 100.488C206.185 103.368 205.705 107.124 205.006 110.61C204.06 115.405 202.972 120.202 201.659 124.918C200.24 130.2 198.384 135.356 196.111 140.331C193.667 145.378 190.794 150.205 187.522 154.759C187.488 154.785 187.46 154.817 187.441 154.855C187.421 154.893 187.41 154.934 187.409 154.977C187.408 155.019 187.417 155.061 187.434 155.1C187.452 155.139 187.478 155.173 187.511 155.2C187.543 155.227 187.582 155.246 187.623 155.256C187.664 155.266 187.707 155.267 187.749 155.258C187.79 155.249 187.829 155.231 187.863 155.205C187.896 155.179 187.923 155.145 187.942 155.107L187.902 155.054Z" fill="#465760"/>
<path d="M189.422 152.379C187.093 154.157 185.206 156.449 183.907 159.076C182.382 161.716 181.232 164.555 180.49 167.511C179.784 170.393 179.458 173.355 179.52 176.321C179.305 179.351 179.893 182.385 181.224 185.115C181.605 185.717 182.333 185.284 182.355 184.673C182.23 183.315 182.001 181.968 181.672 180.645C181.437 179.225 181.301 177.79 181.265 176.352C181.204 173.479 181.516 170.611 182.192 167.819C182.86 165.08 183.853 162.431 185.148 159.927C185.852 158.56 186.653 157.245 187.546 155.992C188.385 154.972 189.171 153.909 189.901 152.807C189.95 152.484 189.651 152.273 189.415 152.426L189.422 152.379Z" fill="#465760"/>
<path d="M127.928 154.956C122.267 152.247 116.407 150.074 110.591 147.766C105.488 145.586 100.236 143.772 94.8757 142.337C91.9697 141.647 88.9938 141.295 86.007 141.287C83.783 141.302 80.7704 141.527 79.3528 143.532C77.9352 145.537 79.1209 148.602 80.5382 150.307C82.2019 152.054 84.3189 153.302 86.6521 153.914C93.4553 155.779 100.502 156.601 107.552 156.354C114.325 156.421 121.07 156.058 127.854 155.748C128.408 155.833 128.448 154.799 128.006 154.755C122.822 154.341 117.603 154.771 112.455 154.74C105.591 154.995 98.7172 154.617 91.9224 153.609C87.6727 152.959 80.3507 151.224 80.2109 145.648C80.1571 143.064 83.3862 142.659 85.413 142.544C88.3175 142.445 91.2226 142.723 94.0559 143.37C99.3443 144.662 104.52 146.379 109.533 148.502C115.642 150.902 121.68 153.457 127.93 155.406C127.994 155.434 128.068 155.436 128.134 155.411C128.2 155.385 128.253 155.335 128.281 155.27C128.31 155.206 128.312 155.132 128.287 155.066C128.261 155 128.211 154.947 128.146 154.919L127.928 154.956Z" fill="#465760"/>
<path d="M131.695 150.262C134.311 152.658 137.149 154.802 140.17 156.664C142.965 158.592 146.054 160.055 149.317 160.994C149.64 161.043 149.761 160.565 149.405 160.416C143.118 157.721 137.298 154.046 132.161 149.53C131.784 149.212 131.316 149.802 131.666 150.139L131.695 150.262Z" fill="#465760"/>
<path d="M134.979 152.277C132.154 148.771 129.517 145.117 127.081 141.33C124.47 137.524 121.288 134.143 117.646 131.307C113.787 128.452 109.713 125.901 105.459 123.676C101.706 121.21 97.4927 119.529 93.0734 118.732C90.7637 118.379 86.614 118.311 85.3336 120.81C84.4611 122.496 86.1074 124.095 87.3038 125.082C89.3119 126.641 91.4864 127.972 93.7875 129.052L102.094 133.159C107.21 135.714 112.38 138.231 117.445 140.967C122.555 143.83 127.512 146.955 132.299 150.33C132.4 150.393 132.521 150.417 132.639 150.397C132.757 150.377 132.864 150.315 132.939 150.222C133.014 150.129 133.053 150.012 133.048 149.892C133.043 149.773 132.994 149.659 132.911 149.573C129.546 146.651 125.855 144.128 121.912 142.052C117.94 139.743 113.836 137.673 109.729 135.627C103.843 132.694 97.8225 130.024 92.1496 126.934C90.008 126.05 88.1191 124.648 86.6517 122.855C84.9315 120.039 90.6833 119.832 92.2022 119.946C96.3612 120.453 100.357 121.871 103.905 124.1C107.987 126.227 111.924 128.622 115.691 131.268C119.79 134.201 123.354 137.816 126.229 141.956C128.767 145.606 131.058 149.786 134.631 152.696C134.862 152.731 135.145 152.586 134.965 152.369L134.979 152.277Z" fill="#465760"/>
<path d="M134.391 162.303C140.029 163.307 145.687 164.173 151.234 165.612C156.875 167.192 162.414 169.113 167.822 171.364C167.928 171.388 168.039 171.374 168.136 171.325C168.233 171.275 168.31 171.194 168.353 171.094C168.396 170.994 168.403 170.882 168.373 170.778C168.343 170.674 168.277 170.583 168.187 170.522C162.991 167.979 157.546 165.982 151.939 164.562C146.264 162.879 140.401 161.91 134.487 161.68C134.117 161.623 133.975 162.24 134.391 162.303Z" fill="#465760"/>
<path d="M139.001 161.993C134.258 161.622 129.549 160.902 124.912 159.838C120.347 159.034 115.723 158.611 111.089 158.574C106.406 158.588 101.734 159.029 97.1308 159.89C93.8372 160.173 90.6271 161.078 87.6703 162.556C86.1203 163.572 84.9764 165.642 86.777 167.005C88.6464 168.052 90.7676 168.564 92.9086 168.486C100.046 168.868 107.202 168.236 114.162 166.608C117.758 165.811 121.326 164.891 124.948 164.24C129.561 163.454 134.217 162.943 138.891 162.709C139.261 162.765 139.304 162.016 138.997 162.016C132.011 161.828 125.034 162.614 118.265 164.352C112.133 165.822 105.884 166.757 99.5903 167.145C96.7184 167.355 93.8326 167.27 90.9781 166.891C89.4999 166.665 85.8719 165.968 88.2134 164.105C89.4574 163.229 90.8793 162.64 92.3776 162.378C94.0435 161.994 95.7254 161.661 97.4074 161.327C101.526 160.559 105.702 160.138 109.891 160.069C114.759 159.984 119.624 160.356 124.423 161.181C129.207 162.226 134.094 162.728 138.99 162.677C139.406 162.74 139.43 161.964 139.1 161.961L139.001 161.993Z" fill="#465760"/>
<path d="M147.594 117.404C147.554 123.114 148.1 128.813 149.223 134.412C149.785 136.743 150.596 139.006 151.641 141.164C152.487 143.408 153.868 145.413 155.664 147.003C156.071 147.278 156.789 146.915 156.52 146.354C155.936 145.418 155.282 144.528 154.564 143.691C153.824 142.618 153.167 141.49 152.598 140.317C151.595 138.195 150.793 135.984 150.205 133.711C148.926 128.389 148.174 122.954 147.96 117.484C148.005 117.184 147.48 117.222 147.498 117.413L147.594 117.404Z" fill="#465760"/>
<path d="M148.607 120.515C147.339 112.452 145.039 104.585 141.764 97.1083C138.923 90.2111 134.894 83.8664 129.858 78.3634C128.269 76.7021 122.897 72.5713 125.884 69.8846C128.871 67.1979 133.928 70.4532 136.259 72.3697C142.306 77.3366 144.959 85.8024 146.498 93.1997C147.38 97.7198 147.959 102.294 148.233 106.891C148.702 111.998 148.416 117.147 147.385 122.172C147.243 123.096 148.629 123.308 148.84 122.395C149.788 117.778 150.097 113.054 149.758 108.353C149.537 103.711 149.004 99.089 148.164 94.5182C146.647 86.817 144.003 78.1398 138.14 72.5865C135.638 69.9779 132.267 68.3774 128.664 68.088C125.902 68.0673 123.649 69.9682 124.391 72.8471C124.777 74.1633 125.488 75.3612 126.458 76.3306C127.95 77.8588 129.475 79.3213 130.857 80.9508C133.709 84.2924 136.195 87.9295 138.274 91.7999C140.596 96.2408 142.537 100.871 144.075 105.64C145.678 110.613 146.871 115.641 148.305 120.635C148.273 120.842 148.744 120.702 148.7 120.529L148.607 120.515Z" fill="#465760"/>
<path d="M121.14 91.7772C122.696 94.4511 124.105 97.2073 125.361 100.034C126.513 103.022 127.434 106.095 128.115 109.224C128.821 112.144 129.855 114.975 131.198 117.661C132.352 120.221 133.988 122.533 136.018 124.473C136.058 124.517 136.106 124.552 136.159 124.576C136.213 124.601 136.27 124.615 136.329 124.618C136.388 124.62 136.447 124.611 136.502 124.59C136.558 124.57 136.608 124.539 136.652 124.499C136.695 124.459 136.73 124.411 136.755 124.358C136.78 124.304 136.794 124.246 136.796 124.188C136.799 124.129 136.789 124.07 136.769 124.015C136.749 123.959 136.718 123.908 136.678 123.865C135.936 122.688 134.958 121.664 134.163 120.526C133.258 119.208 132.459 117.822 131.772 116.378C130.485 113.626 129.467 110.755 128.734 107.806C128.051 104.87 127.114 101.998 125.934 99.2233C124.663 96.5542 123.227 93.9664 121.636 91.4748C121.424 91.1588 120.856 91.4737 121.041 91.8093L121.14 91.7772Z" fill="#465760"/>
<path d="M124.377 95.9595C118.244 83.2032 110.444 70.9955 97.2154 64.7646C95.1629 63.8125 91.6482 62.684 89.6388 64.3857C88.366 65.4438 89.236 67.0187 90.0221 68.0607C91.3864 69.6937 92.8762 71.2176 94.4777 72.6187C97.3895 75.3285 100.469 77.8521 103.698 80.1746C107.093 82.703 110.552 85.123 113.914 87.7172C117.275 90.3114 120.483 93.4493 123.761 96.4326C124.262 96.8638 124.96 96.1669 124.592 95.6378C122.597 93.0367 120.255 90.7219 117.631 88.7585C115.002 86.6309 112.202 84.69 109.422 82.7756C103.944 79.0197 98.7049 74.9265 93.7351 70.5196C92.4711 69.3572 90.5976 68.0069 90.0827 66.2736C89.698 65.0802 90.7814 64.7968 91.7938 64.6681C93.5163 64.562 95.2312 64.9724 96.719 65.8469C102.675 68.8222 107.944 73.0095 112.188 78.1404C116.467 83.8968 120.378 89.9186 123.896 96.1696C124.068 96.4323 124.519 96.265 124.387 95.8902L124.377 95.9595Z" fill="#465760"/>
<path d="M121.438 122.434C124.049 123.974 126.541 125.706 128.895 127.616C131.206 129.506 133.423 131.547 135.881 133.246C138.331 134.823 140.864 136.268 143.468 137.574L147.485 139.749C148.77 140.659 150.219 141.314 151.752 141.678C152.144 141.738 152.529 141.229 152.229 140.876C151.241 139.969 150.091 139.256 148.839 138.774C147.416 138.036 145.966 137.318 144.446 136.589C141.49 135.217 138.636 133.635 135.905 131.855C133.539 130.17 131.347 128.275 129.011 126.546C126.657 124.825 124.161 123.304 121.552 122.002C121.275 121.959 121.133 122.269 121.485 122.441L121.438 122.434Z" fill="#465760"/>
<path d="M126.145 124.735C124.297 124.453 122.981 122.242 121.727 121.011C120.474 119.779 118.977 118.439 117.578 117.232C114.838 114.92 111.939 112.802 108.904 110.894C102.93 106.844 96.3982 103.687 89.5131 101.523C87.2448 100.677 84.7589 100.613 82.45 101.341C80.9441 101.914 79.7871 103.297 80.4688 104.867C81.0021 105.855 81.8454 106.64 82.8689 107.101C84.5727 108.041 86.3455 108.849 88.1718 109.52C91.7044 110.84 95.3362 111.821 98.9025 113.076C102.894 114.49 106.775 116.313 110.674 118.02C114.573 119.727 118.824 121.914 123.01 123.594C123.495 123.668 123.964 123.078 123.491 122.769C120.526 121.051 117.436 119.559 114.246 118.306C110.966 116.883 107.586 115.491 104.394 114.105C98.2509 111.463 91.6683 110.149 85.5516 107.488C84.1104 106.866 81.9568 106.111 81.2856 104.472C80.6145 102.833 82.1063 102.352 83.2429 102.029C86.1256 101.51 89.0984 101.907 91.7439 103.164C94.9461 104.349 98.0452 105.795 101.01 107.489C103.958 109.074 106.869 110.749 109.697 112.505C112.713 114.466 115.587 116.636 118.301 118.997C119.657 120.174 120.957 121.413 122.233 122.648C122.69 123.278 123.267 123.812 123.931 124.218C124.595 124.624 125.333 124.894 126.102 125.013C126.264 125.037 126.306 124.76 126.145 124.735Z" fill="#465760"/>
<path d="M92.3314 86.497C87.6824 82.1222 82.8363 77.9537 78.2209 73.5131C73.9052 69.1745 69.1633 65.2816 64.0672 61.8935C59.0715 58.8165 53.6954 56.405 48.0752 54.72C45.3395 53.8648 42.5602 53.1556 39.7492 52.5955C37.8846 52.1154 35.9456 51.9953 34.036 52.2417C33.5634 52.2624 33.1031 52.3985 32.6953 52.6381C32.2875 52.8778 31.9445 53.2136 31.6964 53.6163C31.4483 54.019 31.3025 54.4764 31.2719 54.9484C31.2412 55.4204 31.3266 55.8928 31.5206 56.3242C32.8182 58.9662 34.8394 61.1853 37.3492 62.7231C40.4193 64.6797 43.7043 66.2766 47.1395 67.4825C51.4345 69.2267 55.7668 70.8821 60.0725 72.5571C65.5758 74.7462 71.0757 76.9584 76.4408 79.4336C81.8059 81.9088 86.7661 84.5584 91.7814 87.3111C92.2613 87.5736 92.7314 86.8182 92.2817 86.513C84.6668 80.9755 75.5526 77.3595 66.8701 73.8569C58.9677 70.6626 50.8897 67.8434 43.0653 64.4483C39.9482 63.2133 37.1194 61.3483 34.7559 58.97C33.8207 57.976 31.1606 54.9691 33.1811 53.8127C34.7147 53.2929 36.3682 53.2414 37.9311 53.6647C40.5153 54.1033 43.0671 54.7148 45.5694 55.4949C51.1178 56.9961 56.4693 59.1475 61.5128 61.9046C66.9697 65.2154 72.0153 69.1608 76.5441 73.6584C81.3156 78.4735 86.3794 82.9897 91.7067 87.1815C91.7524 87.2179 91.8047 87.2451 91.8609 87.2613C91.917 87.2775 91.9757 87.2825 92.0338 87.276C92.0919 87.2696 92.1481 87.2517 92.1992 87.2235C92.2504 87.1953 92.2955 87.1573 92.332 87.1116C92.3684 87.066 92.3955 87.0136 92.4118 86.9575C92.428 86.9014 92.433 86.8426 92.4265 86.7846C92.4201 86.7265 92.4022 86.6703 92.374 86.6191C92.3458 86.568 92.3078 86.5229 92.2621 86.4864L92.3314 86.497Z" fill="#465760"/>
<path d="M72.7082 43.8796C77.2849 52.8997 79.768 62.7815 84.0162 71.9404C85.6202 75.5337 87.678 78.9068 90.1392 81.9771C92.4651 84.6965 94.9757 87.4442 97.5342 90.0338C100.058 92.7897 102.841 95.297 105.844 97.5212C105.965 97.6 106.111 97.631 106.254 97.6083C106.397 97.5855 106.526 97.5106 106.617 97.398C106.707 97.2854 106.753 97.1432 106.745 96.9988C106.737 96.8544 106.676 96.7182 106.573 96.6164C101.634 91.8191 96.5547 87.1657 92.0293 81.9826C86.2983 75.4095 83.209 67.0187 80.127 58.8891C78.2184 53.6455 75.9948 48.5221 73.4682 43.5468C73.2441 43.1579 72.6137 43.4161 72.8147 43.8014L72.7082 43.8796Z" fill="#465760"/>
<path d="M77.4123 52.6835C76.2879 47.7964 74.8779 42.9795 73.1898 38.2574C71.8231 33.6393 70.0759 29.1424 67.9662 24.8129C64.9669 18.6472 60.2757 13.4619 54.4403 9.86197C52.6434 8.78348 44.919 3.96191 44.2301 8.46567C44.1828 10.0693 44.6745 11.6426 45.6267 12.9339C46.571 14.5553 47.6011 16.1252 48.7128 17.6369C51.193 20.9555 53.8649 24.1265 56.7148 27.1337C63.2612 33.818 69.4534 40.8402 75.2661 48.1715C75.5791 48.5976 76.1454 48.1405 75.9052 47.702C72.3594 41.3686 66.7237 36.1811 61.7258 30.9966C56.2447 25.7464 51.2934 19.9697 46.9437 13.7499C45.944 12.2497 44.3985 10.146 44.9619 8.3176C45.2523 7.34566 46.1689 7.22585 47.0661 7.38672C49.4039 7.96105 51.6005 9.00472 53.5224 10.4543C58.9103 13.8715 63.3286 18.6172 66.3528 24.2351C68.5974 28.6207 70.4443 33.1986 71.8714 37.914C73.4745 42.8865 74.5626 48.1348 76.6806 52.8315C76.8621 53.1902 77.5121 52.9587 77.4194 52.6373L77.4123 52.6835Z" fill="#465760"/>
<path d="M79.9422 40.4708C81.7914 46.6155 81.6228 52.9716 81.9764 59.313C82.0663 62.1604 82.4244 64.9929 83.046 67.7731C83.3753 69.0783 83.7955 70.3589 84.3035 71.6055C84.6531 72.8336 85.2912 73.9604 86.1644 74.892C86.2216 74.9425 86.2929 74.9743 86.3687 74.9831C86.4445 74.992 86.5212 74.9774 86.5885 74.9414C86.6557 74.9053 86.7104 74.8496 86.745 74.7816C86.7797 74.7136 86.7927 74.6366 86.7823 74.561C86.3726 73.3053 85.855 72.0873 85.2355 70.9207C84.694 69.5971 84.2545 68.234 83.921 66.8433C83.2637 63.9465 82.8288 61.0037 82.6202 58.0406C82.429 52.088 81.59 46.174 80.118 40.4031C80.1462 40.2184 79.7253 40.3431 79.8125 40.5455L79.9422 40.4708Z" fill="#465760"/>
<path d="M80.9551 42.9662C80.5569 36.4525 78.8639 30.2134 77.7606 23.8282C77.1387 18.2567 75.0953 12.9386 71.8265 8.38407C70.8357 6.82541 69.3531 5.64202 67.6136 5.02144C67.1991 4.95804 66.7762 4.97727 66.3693 5.07804C65.9623 5.17881 65.5793 5.35914 65.2423 5.6086C64.9053 5.85807 64.6211 6.17176 64.4059 6.53159C64.1907 6.89141 64.0488 7.29027 63.9885 7.70517C63.9053 8.94462 64.1031 10.1869 64.5672 11.3392C65.0005 12.7973 65.5239 14.2273 66.1341 15.6207C67.3665 18.443 68.7524 21.1958 70.2856 23.8667C72.1501 27.1301 74.0251 30.3242 75.8826 33.6338C77.74 36.9434 78.8599 39.9748 80.2821 43.1941C80.5277 43.7517 81.4779 43.5661 81.3388 42.9303C80.3058 37.785 77.1396 32.8333 74.4961 28.4817C71.4125 23.632 68.7373 18.5345 66.498 13.2418C65.8766 11.5867 63.8668 6.64652 66.9111 6.214C68.6483 5.98334 70.3272 8.29654 71.1382 9.48425C74.1063 13.8335 76.0076 18.821 76.6879 24.0424C77.864 30.415 79.4842 36.6666 80.4117 43.1194C80.4198 43.1896 80.4554 43.2537 80.5107 43.2976C80.5661 43.3416 80.6366 43.3617 80.7068 43.3536C80.777 43.3456 80.8411 43.3099 80.885 43.2546C80.9289 43.1993 80.9491 43.1287 80.941 43.0585L80.9551 42.9662Z" fill="#465760"/>
<path d="M83.7885 94.5963C93.2554 95.4385 102.52 97.8298 111.212 101.675C111.722 101.894 112.238 101.146 111.746 100.811C108.192 98.5396 104.261 96.9217 100.138 96.0335C94.8142 94.7872 89.3766 94.0901 83.9106 93.9531C83.4948 93.8896 83.3924 94.5593 83.8116 94.5998L83.7885 94.5963Z" fill="#465760"/>
<path d="M83.3371 94.1514C76.0752 93.4932 68.7543 94.1929 61.7485 96.2147C54.3392 98.2959 47.2929 101.095 39.4893 101.272C37.1232 101.288 32.398 101.274 30.9144 98.9202C29.4309 96.5659 33.8847 94.9544 35.4794 94.4184C42.2873 92.2513 49.4172 91.2711 56.5574 91.5206C65.5638 91.8902 74.5277 92.961 83.3678 94.7234C83.8066 94.7905 83.8789 94.1634 83.4702 94.0536C74.6942 91.9586 65.7222 90.7923 56.7023 90.5737C49.3771 90.1577 42.0365 91.052 35.0254 93.2144C33.0133 93.8521 30.0529 94.8174 29.3993 97.0811C28.7458 99.3448 30.7546 101.047 32.7501 101.754C36.1129 102.751 39.657 102.978 43.1195 102.418C47.2089 101.871 51.2305 100.902 55.1201 99.5263C59.5397 97.9368 64.0638 96.6544 68.66 95.6882C73.4992 94.8224 78.4117 94.4337 83.3267 94.528C83.5808 94.5669 83.6675 94.1547 83.3903 94.1123L83.3371 94.1514Z" fill="#465760"/>
<path d="M73.7872 92.1463C71.5977 91.0078 69.3764 90.0771 67.1904 88.9154C65.0044 87.7538 62.5962 86.3454 60.3727 84.9653C56.2937 82.4268 52.3016 79.7834 48.0435 77.643C43.681 75.3247 38.908 73.88 33.9921 73.39C31.1622 73.1935 27.545 72.7348 24.9509 74.0871C23.1646 74.9484 22.4146 76.6064 23.9612 77.9303C25.8938 79.3221 28.0958 80.2949 30.4262 80.7865C34.2908 81.9449 38.2033 82.9452 42.0751 84.0574C46.3519 85.3025 50.6554 86.528 54.9358 87.7501C60.2645 89.227 65.5774 90.9615 71.0018 92.1221C71.0934 92.1322 71.1857 92.1102 71.2629 92.0597C71.3401 92.0093 71.3973 91.9335 71.4247 91.8455C71.4522 91.7575 71.4481 91.6626 71.4133 91.5773C71.3785 91.4919 71.315 91.4213 71.2338 91.3776C67.0953 89.8463 62.7937 88.7629 58.556 87.5711C54.7304 86.4659 50.8747 85.4034 47.0421 84.3444C43.2095 83.2855 38.9221 82.1096 34.8691 80.946C32.6054 80.2925 30.3382 79.6621 28.2413 78.845C27.3955 78.5029 23.3371 77.2202 24.5759 75.9206C25.785 74.9986 27.2922 74.5558 28.8079 74.677C30.331 74.6396 31.855 74.6833 33.3734 74.8081C38.114 75.2221 42.7273 76.5622 46.952 78.7524C51.4998 81.008 55.7744 83.8128 60.0969 86.4595C64.2122 89.3694 68.8135 91.522 73.6847 92.8161C73.7333 92.808 73.778 92.7848 73.8125 92.7497C73.8471 92.7147 73.8697 92.6696 73.8771 92.621C73.8846 92.5724 73.8765 92.5226 73.854 92.4788C73.8315 92.4351 73.7957 92.3995 73.7519 92.3773L73.7872 92.1463Z" fill="#465760"/>
</svg>
