<svg width="363" height="296" viewBox="0 0 363 296" fill="none" xmlns="http://www.w3.org/2000/svg">
<path d="M32.4912 90.0524C40.8101 89.6071 49.1526 90.1283 57.3514 91.6055C66.3305 92.9568 75.2015 94.9485 83.8964 97.5657C87.2425 98.5292 90.5194 99.7186 93.7046 101.126C98.6159 103.556 103.386 106.262 107.993 109.229C119.268 116.016 130.074 123.59 141.743 129.689C164.088 141.157 188.347 148.429 213.316 151.144C236.999 153.674 260.914 153.008 284.42 149.166C306.862 145.621 329.433 139.8 352.36 141.31C355.177 141.513 358.028 141.76 360.858 142.051C361.091 142.096 361.332 142.047 361.529 141.914C361.726 141.782 361.862 141.576 361.908 141.343C361.953 141.11 361.904 140.868 361.771 140.671C361.639 140.474 361.433 140.338 361.2 140.293C350.08 138.398 338.733 138.247 327.566 139.845C316.154 141.11 304.881 143.325 293.584 145.308C270.039 149.805 246.021 151.312 222.099 149.796C196.952 148.068 172.317 141.847 149.364 131.43C137.647 125.587 126.277 119.074 115.31 111.922C106.861 106.718 98.265 100.975 88.7463 97.7777C80.5242 95.0805 72.1072 93.0186 63.5695 91.61C54.9924 90.0063 46.2909 89.1602 37.5655 89.0812C35.8206 89.1034 34.0761 89.1809 32.3758 89.2801C31.9675 89.3269 32.016 90.0113 32.4353 89.9424L32.4912 90.0524Z" fill="#E8E3DB"/>
<path d="M320.241 141.308C313.974 140.508 307.729 139.83 301.546 138.467C295.276 137.063 289.115 135.209 283.111 132.919C271.199 128.334 260.017 122.043 249.913 114.245C244.205 109.835 238.887 104.943 234.015 99.6242C233.392 98.9324 232.416 100.021 233.039 100.713C250.608 119.766 273.444 133.167 298.646 139.215C305.686 141.046 312.91 142.07 320.181 142.269C320.307 142.27 320.428 142.224 320.521 142.139C320.613 142.053 320.67 141.936 320.679 141.811C320.688 141.685 320.649 141.561 320.569 141.463C320.49 141.366 320.376 141.302 320.252 141.286L320.241 141.308Z" fill="#E8E3DB"/>
<path d="M233.903 100.915C239.783 110.276 246.303 119.567 255.237 126.303C264.67 133.01 275.59 137.326 287.06 138.878C293.338 140.056 299.725 140.56 306.11 140.38C306.199 140.359 306.279 140.31 306.337 140.24C306.395 140.17 306.429 140.083 306.434 139.991C306.438 139.9 306.413 139.81 306.361 139.735C306.31 139.659 306.236 139.603 306.149 139.573C300.622 138.891 295.056 138.849 289.551 138.067C283.932 137.322 278.398 136.037 273.025 134.23C262.294 130.555 252.765 124.03 245.459 115.354C241.475 110.641 237.876 105.65 234.178 100.748C234 100.661 233.791 100.75 233.903 100.915Z" fill="#E8E3DB"/>
<path d="M233.881 101.016C240.862 107.706 248.907 113.19 257.686 117.243C262.472 119.598 267.466 121.477 272.132 124.02C276.798 126.564 281.145 129.419 285.636 132.151C290.63 135.338 295.913 138.048 301.415 140.246C302.146 140.605 302.746 139.387 301.982 139.093C292.316 135.411 283.96 129.235 275.07 124.09C270.544 121.533 265.875 119.236 261.088 117.21C256.415 115.159 251.887 112.793 247.535 110.129C242.924 107.203 238.479 104.023 234.221 100.605C234.168 100.579 234.107 100.575 234.051 100.594C233.995 100.613 233.949 100.654 233.923 100.706C233.897 100.759 233.893 100.82 233.912 100.876C233.931 100.932 233.971 100.978 234.024 101.004L233.881 101.016Z" fill="#E8E3DB"/>
<path d="M233.445 100.278C236.074 102.599 239.112 104.411 242.403 105.621C246.835 107.802 251.43 109.65 256.138 111.719C260.845 113.787 265.541 115.878 270.085 118.278C274.935 120.953 279.528 124.07 283.806 127.59C286.859 130 289.912 132.465 293.096 134.72C294.572 135.749 296.058 136.756 297.61 137.684C299.222 138.835 301.011 139.716 302.906 140.29C302.988 140.331 303.083 140.337 303.17 140.307C303.257 140.278 303.328 140.215 303.369 140.133C303.409 140.05 303.416 139.955 303.386 139.869C303.356 139.782 303.294 139.71 303.211 139.67C301.896 138.784 300.526 137.981 299.11 137.266C297.464 136.338 295.869 135.323 294.33 134.226C291.357 132.158 288.526 129.912 285.695 127.666C281.463 124.172 276.951 121.032 272.205 118.276C263.372 113.406 253.916 109.745 244.712 105.629C240.924 103.93 237.266 101.965 233.632 100.177C233.597 100.16 233.556 100.157 233.519 100.17C233.482 100.183 233.451 100.209 233.434 100.245C233.417 100.28 233.414 100.321 233.427 100.358C233.439 100.395 233.466 100.426 233.502 100.443L233.445 100.278Z" fill="#E8E3DB"/>
<path d="M294.57 138.941C292.41 139.125 290.234 138.983 288.117 138.519C285.93 138.29 283.731 138.182 281.532 138.196C276.795 138.446 272.046 138.38 267.317 138C262.288 137.144 257.388 135.657 252.732 133.576C247.815 131.597 242.899 129.582 237.982 127.53C232.224 125.531 226.712 122.883 221.552 119.638L220.852 120.67C222.632 121.445 224.579 121.759 226.513 121.584C229.473 121.664 232.402 121.977 235.32 122.311C242.398 122.845 249.359 124.416 255.981 126.973C256.69 127.322 257.257 126.169 256.526 125.865C250.18 123.41 243.511 121.89 236.727 121.353C233.865 121.017 230.979 120.616 228.107 120.524C225.837 120.791 223.535 120.491 221.409 119.65C220.788 119.345 220.143 120.266 220.708 120.682C225.203 123.632 230.021 126.059 235.068 127.913C240.218 130.144 245.456 132.253 250.671 134.351C255.461 136.521 260.465 138.181 265.602 139.303C270.38 139.931 275.209 140.085 280.018 139.763C282.804 139.644 285.596 139.73 288.369 140.019C290.485 140.65 292.752 140.554 294.807 139.746C295.181 139.545 294.978 138.895 294.559 138.964L294.57 138.941Z" fill="#E8E3DB"/>
<path d="M233.488 226.219C248.393 216.846 260.048 203.507 271.516 190.214C282.501 177.508 293.563 164.648 307.095 154.544C314.461 148.9 322.705 144.504 331.497 141.533C332.776 141.116 332.122 139.088 330.811 139.571C297.669 150.319 278.563 181.598 255.932 205.72C249.075 213.201 241.489 219.979 233.287 225.955C233.265 225.985 233.254 226.021 233.254 226.059C233.254 226.096 233.267 226.132 233.289 226.162C233.312 226.191 233.343 226.213 233.379 226.223C233.415 226.233 233.453 226.232 233.488 226.219Z" fill="#E8E3DB"/>
<path d="M233.488 226.22C242.014 217.507 247.83 206.58 255.901 197.449C263.852 188.43 272.683 180.227 282.262 172.961C287.571 168.829 293.024 164.907 298.566 161.083C298.683 160.976 298.758 160.831 298.778 160.673C298.798 160.516 298.76 160.356 298.673 160.224C298.586 160.091 298.454 159.994 298.301 159.95C298.149 159.906 297.985 159.918 297.841 159.983C287.964 166.684 278.502 173.977 269.507 181.823C260.471 189.819 252.431 198.874 245.558 208.792C241.52 214.594 237.615 220.462 233.288 226.067C233.286 226.095 233.294 226.124 233.308 226.149C233.323 226.174 233.345 226.194 233.37 226.206C233.396 226.219 233.425 226.224 233.454 226.221C233.483 226.217 233.51 226.205 233.532 226.187L233.488 226.22Z" fill="#E8E3DB"/>
<path d="M232.696 226.764C238.021 225.369 243.055 223.037 247.563 219.877C252.194 216.866 256.532 213.425 260.518 209.6C269.34 200.792 277.035 190.923 283.425 180.219C287.025 174.007 291.291 168.206 296.148 162.919C296.763 162.286 295.73 161.365 295.093 161.987C291.01 166.329 287.408 171.099 284.349 176.215C280.971 181.571 277.669 186.938 273.836 191.987C266.987 201.866 258.495 210.497 248.729 217.506C243.506 220.844 238.06 223.82 232.429 226.413C232.353 226.568 232.287 226.701 232.586 226.71L232.696 226.764Z" fill="#E8E3DB"/>
<path d="M233.222 226.089C236.643 220.534 239.566 214.651 242.921 209.063C246.243 203.423 249.951 198.019 254.016 192.889C258.068 187.777 262.672 183.129 267.745 179.029C273.012 174.981 278.521 171.258 284.24 167.879L304.572 155.589C305.32 155.131 304.562 153.987 303.814 154.445L285.276 165.774C279.414 169.195 273.739 172.926 268.272 176.949C258.23 185.115 249.785 195.07 243.367 206.31C239.412 212.591 235.874 219.125 232.779 225.871C232.75 225.93 232.745 225.998 232.766 226.06C232.787 226.122 232.832 226.173 232.891 226.202C232.95 226.231 233.018 226.235 233.08 226.214C233.142 226.193 233.193 226.148 233.222 226.089Z" fill="#E8E3DB"/>
<path d="M303.061 155.862C291.442 159.262 279.657 162.061 267.75 164.249C262.247 165.285 256.815 166.666 251.486 168.384C246.064 170.23 240.9 172.726 235.646 174.958C229.65 177.506 223.443 179.527 217.096 180.996C216.324 181.167 216.564 182.468 217.37 182.342C220.237 182.162 223.115 182.426 225.901 183.127C228.432 183.522 230.987 183.731 233.548 183.752C238.873 183.745 244.176 183.062 249.329 181.718C260.396 178.478 271.061 173.993 281.118 168.35C287.459 165.084 293.777 161.808 300.365 159.104C301.334 158.7 300.816 157.179 299.847 157.583C278.697 166.278 259.003 181.524 235.405 182.271C232.301 182.381 229.194 182.198 226.124 181.723C223.21 181.024 220.207 180.771 217.218 180.973L217.503 182.352C223.119 181.043 228.627 179.309 233.981 177.166C239.269 175.034 244.51 172.549 249.765 170.483C260.717 166.349 272.591 164.815 284.072 162.29C290.661 161.175 297.105 159.334 303.288 156.799C303.75 156.586 303.536 155.903 303.051 156.05L303.061 155.862Z" fill="#E8E3DB"/>
<path d="M262.778 150.301C254.982 150.428 247.362 154.11 240.66 157.831C233.066 162.076 225.72 166.994 218.483 171.69C211.245 176.386 203.702 181.592 196.111 186.224C188.643 191.032 180.751 195.145 172.532 198.512C163.212 202.183 153.506 202.5 143.7 202.849L143.821 204.505C157.054 203.062 168.62 196.395 179.742 189.509C192.178 181.525 205.093 174.312 218.414 167.913C225.897 164.493 233.571 161.505 241.396 158.964C242.344 158.659 241.86 157.238 240.901 157.509C227.001 161.796 213.633 167.646 201.053 174.949C194.78 178.413 188.629 182.075 182.546 185.824C176.462 189.574 171.193 193.01 165.249 196.085C158.602 199.783 151.269 202.085 143.7 202.849C143.504 202.894 143.331 203.007 143.211 203.169C143.092 203.33 143.034 203.529 143.049 203.729C143.064 203.93 143.149 204.118 143.291 204.26C143.433 204.403 143.621 204.49 143.821 204.505C152.371 204.631 160.899 203.596 169.171 201.428C177.398 198.604 185.271 194.84 192.635 190.211C208.04 181.277 222.22 170.584 237.414 161.408C241.337 158.963 245.422 156.789 249.642 154.902C253.922 153.142 258.353 151.775 262.881 150.819C263.212 150.762 263.132 150.309 262.778 150.301Z" fill="#E8E3DB"/>
<path d="M143.13 203.56C146.503 205.356 150.202 206.456 154.008 206.792C157.792 207.354 161.624 207.515 165.442 207.272C172.802 206.797 179.995 204.862 186.6 201.581C199.834 195.046 210.168 184.057 221.007 174.39C226.963 168.8 233.487 163.846 240.472 159.61C241.276 159.152 240.473 157.986 239.703 158.433C215.02 172.518 198.915 201.668 168.777 205.527C164.456 206.063 160.087 206.102 155.757 205.644C151.513 205.207 147.462 203.819 143.173 203.25C143.137 203.233 143.097 203.23 143.059 203.243C143.022 203.255 142.992 203.282 142.974 203.318C142.957 203.353 142.954 203.394 142.967 203.431C142.98 203.468 143.007 203.499 143.042 203.516L143.13 203.56Z" fill="#E8E3DB"/>
<path d="M143.04 203.184C145.588 203.453 148.142 202.742 150.184 201.195C153.144 199.375 156.047 197.391 158.883 195.374C164.667 191.339 170.295 187.062 176.257 183.279C187.818 176.196 200.284 170.711 213.317 166.973C220.526 164.795 227.87 162.904 235.258 161.034C236.074 160.83 235.657 159.607 234.841 159.811C221.92 162.742 209.232 166.618 196.878 171.407C190.916 173.789 185.135 176.602 179.581 179.823C173.595 183.319 167.955 187.397 162.359 191.442C159.171 193.726 156.005 196.022 152.761 198.196C149.89 200.114 146.682 202.664 143.058 202.588C142.705 202.579 142.764 203.186 143.029 203.206L143.04 203.184Z" fill="#E8E3DB"/>
<path d="M192.388 173.877C184.591 174.561 176.76 173.018 169.806 169.427C163.49 166.153 157.862 161.761 151.929 157.878L151.547 158.653C157.364 160.476 163.319 161.823 169.354 162.681C175.113 163.395 180.914 163.745 186.704 164.117C197.502 165.124 208.351 165.489 219.193 165.212C219.379 165.198 219.551 165.11 219.672 164.969C219.794 164.827 219.854 164.643 219.839 164.457C219.825 164.271 219.737 164.099 219.596 163.977C219.454 163.856 219.27 163.796 219.084 163.81C208.226 164.118 197.36 163.789 186.541 162.825C180.608 162.521 174.73 162.161 169.038 161.479C163.196 160.71 157.419 159.514 151.752 157.901C151.287 157.672 151.071 158.502 151.37 158.676C157.702 162.59 163.42 167.358 170.036 170.75C176.876 174.319 184.718 175.483 192.3 174.054L192.377 173.899L192.388 173.877Z" fill="#E8E3DB"/>
<path d="M169.629 48.2351C174.672 64.8359 176.616 82.1966 182.386 98.5499C186.766 111.985 193.73 124.435 202.887 135.197C208.564 141.552 215.123 147.06 222.364 151.551C223.206 151.966 223.783 150.736 223.007 150.244C210.738 142.179 200.543 131.335 193.25 118.593C186.023 105.29 180.796 90.9961 177.737 76.1702C175.825 66.6079 173.412 57.1525 170.51 47.8429C170.33 47.3139 169.525 47.6062 169.683 48.1243L169.629 48.2351Z" fill="#E8E3DB"/>
<path d="M170.358 50.0529C169.649 62.3951 170.672 74.7758 173.399 86.8339C176.309 98.1457 181.47 108.755 188.574 118.026C193.163 124.027 198.202 129.672 203.087 135.406C203.599 136.043 204.688 135.34 204.143 134.714C196.086 125.245 187.567 115.934 181.753 104.816C176.326 94.1773 173.019 82.5852 172.014 70.6846C171.374 63.819 171.23 56.895 170.811 50.0279C170.798 49.7188 170.346 49.799 170.358 50.0529Z" fill="#E8E3DB"/>
<path d="M169.937 48.1684C175.877 58.192 179.096 69.3817 181.862 80.5411C184.708 92.1396 188.289 103.545 192.584 114.689C193.766 117.656 195.022 120.586 196.351 123.478C197.675 126.65 199.162 129.752 200.806 132.771C201.175 133.421 202.287 132.894 201.995 132.2C200.828 129.314 199.253 126.585 197.899 123.744C196.544 120.903 195.491 118.569 194.392 115.936C191.825 109.966 189.82 103.916 187.848 97.7986C186.101 92.3427 184.421 86.9195 182.95 81.4067C181.479 75.8938 179.988 70.6461 178.364 65.3882C176.367 59.2494 173.613 53.3829 170.167 47.9239C170.167 47.9239 169.946 47.8149 170.069 48.1234L169.937 48.1684Z" fill="#E8E3DB"/>
<path d="M169.739 48.29C173.371 52.8064 176.393 57.7817 178.725 63.0875C180.597 67.394 182.105 71.8795 183.768 76.2756C186.112 82.1765 188.138 88.1988 189.836 94.3168C191.308 99.9953 192.097 105.833 193.536 111.523C194.417 114.709 195.3 118.061 196.26 121.313C197.04 124.328 198.091 127.268 199.397 130.095C199.543 130.359 200.039 130.191 199.97 129.882C199.427 127.264 198.721 124.683 197.856 122.153C196.953 119.177 196.028 116.19 195.214 113.202C193.62 107.38 192.731 101.466 191.214 95.6002C189.57 89.4723 187.574 83.4446 185.234 77.5474C183.515 73.0412 181.951 68.4456 180.067 63.9957C177.653 58.1885 174.392 52.7715 170.389 47.9214C170.088 47.5809 169.494 47.9492 169.784 48.3118L169.739 48.29Z" fill="#E8E3DB"/>
<path d="M199.539 129.696C190.694 123.115 181.521 116.977 174.134 108.609C170.418 104.358 167.043 99.8072 163.689 95.212C160.335 90.6168 157.139 86.4845 154.238 81.8643C150.931 76.5933 148.009 71.09 145.496 65.3975L144.857 65.6888C147.74 69.1715 150.469 72.7987 153.418 76.2589C156.284 79.6243 159.47 82.7035 162.931 85.4535C166.267 87.822 169.323 90.563 172.039 93.6235C174.689 96.9641 176.921 100.484 179.747 103.802C180.226 104.395 181.238 103.737 180.759 103.143C178.077 99.9245 175.801 96.4379 173.207 93.1522C170.696 90.1755 167.818 87.5293 164.641 85.2769C161.053 82.6131 157.728 79.6128 154.71 76.3169C151.518 72.7368 148.424 69.0677 145.396 65.3761C145.151 65.0905 144.589 65.2818 144.757 65.6673C149.242 75.7341 154.834 85.2704 161.429 94.0999C167.981 103.159 174.842 112.205 183.766 119.183C188.734 123.079 193.935 126.668 199.341 129.929C199.541 130.027 199.76 129.75 199.516 129.575L199.539 129.696Z" fill="#E8E3DB"/>
<path d="M65.5593 171.472C73.745 172.663 82.0563 172.714 90.2559 171.623C97.4675 170.479 104.553 168.648 111.415 166.153C125.389 161.359 138.778 154.846 152.686 150.074C156.741 148.656 160.863 147.382 165.009 146.284C169.155 145.186 173.481 144.618 177.66 143.509C178.52 143.271 178.191 141.981 177.352 142.008C173.6 142.209 169.884 142.837 166.275 143.88C162.636 144.842 159.064 145.836 155.603 146.886C148.494 149.25 141.543 152.078 134.648 154.96C121.375 160.512 108.083 166.661 93.898 169.479C84.6461 171.388 75.1638 171.925 65.7556 171.073C65.5118 170.953 65.3606 171.484 65.6701 171.526L65.5593 171.472Z" fill="#E8E3DB"/>
<path d="M65.3415 171.915C70.8167 173.451 76.4456 174.375 82.1247 174.668C87.1806 175.058 92.2657 174.784 97.2505 173.854C107.138 171.669 116.634 167.988 125.411 162.939C131.068 159.943 136.714 156.748 142.283 153.708C143.219 153.205 142.315 151.852 141.391 152.333C123.318 162.102 105.481 174.243 84.1935 173.485C77.8983 173.216 71.6376 172.409 65.4797 171.075C65.0041 170.979 64.9092 171.675 65.3629 171.816L65.3415 171.915Z" fill="#E8E3DB"/>
<path d="M65.1526 171.795C70.358 170.613 75.4256 168.593 80.4739 167.004C85.4149 165.435 90.4446 164.16 95.5363 163.185C105.586 161.277 115.68 159.5 125.684 157.404C131.341 156.258 136.935 154.822 142.444 153.1C143.337 152.796 142.853 151.43 141.972 151.712C132.117 154.698 122.083 157.06 111.931 158.784C101.844 160.364 91.8532 162.515 82.0088 165.227C76.2234 166.925 70.536 168.942 64.9725 171.266C64.9023 171.29 64.8445 171.341 64.8118 171.408C64.7791 171.474 64.7742 171.551 64.798 171.621C64.8219 171.691 64.8727 171.749 64.9392 171.782C65.0057 171.814 65.0824 171.819 65.1526 171.795Z" fill="#E8E3DB"/>
<path d="M65.4498 171.695C70.2282 169.367 74.8055 166.665 79.6065 164.403C84.414 162.125 89.3904 160.221 94.4913 158.709C99.6019 157.184 104.854 156.181 110.166 155.715C116.227 155.201 122.257 155.251 128.283 154.473C134.863 153.719 141.381 152.493 147.786 150.803C148.502 150.577 148.274 149.364 147.501 149.479C141.554 150.379 135.633 151.896 129.598 152.863C123.562 153.829 117.532 153.834 111.46 154.26C100.839 155.166 90.4643 157.955 80.8202 162.496C75.326 164.863 70.1141 167.838 65.282 171.365C65.2057 171.52 65.2627 171.795 65.4498 171.695Z" fill="#E8E3DB"/>
<path d="M154.546 149.201C152.052 150.243 149.625 151.438 147.28 152.782C145.086 154.169 143.045 155.785 141.192 157.603C137.196 161.362 133.866 165.724 130.236 169.8C123.395 177.734 115.498 184.693 106.766 190.482C101.83 193.669 96.5243 196.243 90.9662 198.148L91.5592 199.348C100.954 193.512 106.546 183.713 113.883 175.626C121.839 167.2 131.112 160.124 141.339 154.675C142.098 154.251 141.351 153.14 140.603 153.543C130.573 158.904 121.452 165.813 113.575 174.015C106.017 182.104 100.394 192.301 90.7899 198.227C90.7111 198.266 90.6408 198.32 90.5829 198.386C90.525 198.452 90.4807 198.529 90.4525 198.612C90.4243 198.695 90.4128 198.783 90.4186 198.871C90.4244 198.959 90.4475 199.045 90.4864 199.123C90.5254 199.202 90.5794 199.272 90.6456 199.33C90.7117 199.388 90.7886 199.433 90.8718 199.461C91.04 199.518 91.2238 199.505 91.383 199.427C100.961 195.974 109.793 190.726 117.405 183.964C121.175 180.667 124.745 177.148 128.095 173.425C131.747 169.47 135.078 165.219 138.708 161.253C140.777 158.912 143.109 156.818 145.659 155.012C148.562 153.124 151.6 151.455 154.75 150.017C155.257 149.771 154.997 148.9 154.458 149.158L154.546 149.201Z" fill="#E8E3DB"/>
<path d="M103.719 36.7502C106.858 42.7547 109.509 49.0017 111.647 55.4311C113.72 61.7353 115.152 68.1651 116.696 74.6495C119.732 87.09 124.418 99.0688 130.63 110.267C134.276 117.004 138.338 123.507 142.793 129.739C142.887 129.845 143.017 129.914 143.159 129.932C143.3 129.951 143.443 129.918 143.562 129.839C143.681 129.76 143.768 129.642 143.806 129.504C143.844 129.367 143.832 129.221 143.771 129.092C136.305 118.073 129.84 106.408 124.453 94.2371C119.449 82.0317 116.716 69.1271 112.693 56.6062C110.467 49.6694 107.546 42.9756 103.972 36.627C103.972 36.627 103.751 36.518 103.874 36.8265L103.719 36.7502Z" fill="#E8E3DB"/>
<path d="M103.133 36.7651C104.696 41.0294 106.445 45.193 107.622 49.6254C108.799 54.0578 109.678 58.5363 110.657 63.0362C112.332 72.0647 115.142 80.8453 119.019 89.1694C121.401 94.0015 124.222 98.6048 127.445 102.921C127.936 103.603 129.025 102.9 128.534 102.219C122.796 94.5365 118.357 85.9647 115.395 76.8448C112.59 68.2259 111.428 59.232 109.129 50.4221C108.157 45.4823 106.345 40.7459 103.772 36.4187C103.711 36.3497 103.629 36.3026 103.538 36.2849C103.448 36.2671 103.354 36.2795 103.272 36.3202C103.189 36.3609 103.122 36.4276 103.081 36.5101C103.04 36.5926 103.027 36.6863 103.045 36.7767L103.133 36.7651Z" fill="#E8E3DB"/>
<path d="M104.334 37.8509C107.317 43.2547 110.356 48.6582 113.196 54.1292C116.11 59.327 118.346 64.8766 119.851 70.6424C121.19 76.3108 121.736 82.1388 123.02 87.8075C123.634 90.5868 124.347 93.3323 125.16 96.0441C125.922 98.9782 126.912 101.848 128.12 104.629C128.189 104.79 128.317 104.918 128.478 104.987C128.639 105.057 128.82 105.064 128.985 105.005C129.15 104.946 129.287 104.827 129.367 104.672C129.448 104.517 129.467 104.336 129.42 104.168C128.65 101.257 127.506 98.4368 126.648 95.5376C125.79 92.6384 125.064 89.6941 124.427 86.7382C123.198 81.1244 122.454 75.2535 121.137 69.7065C119.648 64.2107 117.454 58.9309 114.609 53.9987C111.58 48.4074 108.386 42.9276 104.851 37.6378C104.673 37.3849 104.321 37.6522 104.444 37.9054L104.334 37.8509Z" fill="#E8E3DB"/>
<path d="M103.556 37.3046C106.23 47.9235 103.882 59.0161 106.027 69.7598C108.329 79.7491 113.032 89.0261 119.73 96.7867C123.47 101.379 128.244 105.325 131.226 110.508C131.517 110.981 132.254 110.601 132.096 110.083C130.419 105.212 125.736 101.696 122.487 97.8956C119.11 93.9723 116.117 89.7346 113.548 85.2404C110.938 80.7269 108.963 75.8745 107.68 70.8206C106.519 65.4886 105.976 60.0406 106.063 54.5844C106.234 48.6535 105.511 42.7307 103.919 37.0152C103.919 37.0152 103.63 36.8734 103.643 37.1274L103.556 37.3046Z" fill="#E8E3DB"/>
<path d="M119.913 96.0238C116.73 92.1185 112.912 88.7786 108.617 86.1448C104.204 83.4229 99.518 81.1998 95.1703 78.3449C90.7482 75.5441 87.0465 71.7429 84.3641 67.2479C81.9857 62.886 80.0048 58.3187 78.4454 53.6015L77.4655 54.0827C82.1103 59.6772 87.4452 64.6605 93.3429 68.9135C99.2456 73.139 105.442 76.6558 110.501 81.98C110.968 82.4851 111.836 81.7285 111.413 81.1901C107.081 75.6734 100.467 72.3912 94.8093 68.5065C88.6473 64.3123 83.1021 59.277 78.3346 53.547C77.9783 53.0965 77.1409 53.4 77.3547 54.0282C78.8551 58.7092 80.7538 63.2531 83.03 67.6099C85.4333 71.9143 88.7705 75.6254 92.7965 78.4705C97.0124 81.4256 101.665 83.66 106.133 86.2159C111.04 88.995 115.544 92.4333 119.518 96.435C119.739 96.544 120.036 96.3323 119.858 96.1346L119.913 96.0238Z" fill="#E8E3DB"/>
<path d="M32.6011 89.9964C40.3806 92.3654 48.8082 92.4662 56.8564 93.6739C61.3229 94.3853 65.672 95.7271 70.1065 96.6154C76.1193 97.5269 81.9908 99.2042 87.5777 101.606C94.1035 104.403 100.835 106.694 107.712 108.458C108.354 108.774 108.6 107.547 107.914 107.319C101.459 105.698 95.1354 103.589 88.9987 101.012C83.7864 98.5819 78.2696 96.8673 72.5981 95.9147C67.8762 94.9951 63.2289 93.6442 58.4964 92.8019C54.1843 92.0564 49.8408 91.5981 45.5744 91.0953C41.308 90.5924 36.8883 90.2893 32.6307 89.4329C32.3869 89.313 32.3014 89.7664 32.567 89.842L32.6011 89.9964Z" fill="#E8E3DB"/>
<path d="M32.2474 89.9885C40.7141 89.2828 49.1688 88.4336 57.7836 88.4337C62.2258 88.356 66.6654 88.6974 71.0435 89.4535C77.2628 90.8528 83.2604 93.1 88.8679 96.132C92.0762 97.6421 95.1924 99.3408 98.1999 101.219C101.46 103.319 104.348 105.785 107.389 108.163C107.494 108.254 107.63 108.301 107.769 108.291C107.908 108.282 108.037 108.218 108.129 108.114C108.22 108.009 108.267 107.873 108.258 107.734C108.248 107.595 108.185 107.466 108.08 107.374C103.266 102.99 97.8769 99.2825 92.0612 96.3546C86.4514 93.2293 80.5031 90.755 74.3318 88.9797C64.9103 87.0962 55.252 86.6995 45.7078 87.804C41.1541 88.039 36.6263 88.6366 32.1676 89.5914C31.9471 89.648 31.9713 89.9903 32.2474 89.9885Z" fill="#E8E3DB"/>
<path d="M33.0109 90.3388C36.0258 91.2764 38.9326 92.5314 41.6827 94.0827C43.6326 95.0421 45.6702 95.8796 47.7295 96.6727C52.3575 98.4544 57.1055 99.9924 61.9188 101.397C71.4338 104.261 81.192 106.243 91.0701 107.319C94.3745 107.651 97.6902 108.017 100.974 108.559C104.258 109.101 107.433 109.92 110.618 110.551C110.747 110.578 110.881 110.553 110.991 110.481C111.102 110.409 111.179 110.296 111.206 110.167C111.233 110.038 111.208 109.903 111.135 109.793C111.063 109.682 110.95 109.605 110.821 109.578C100.345 106.873 89.5193 106.611 78.9585 104.525C68.7453 102.522 58.7077 99.7087 48.9409 96.1127C46.6159 95.244 44.4454 94.3411 42.2412 93.3391C39.3485 91.8219 36.2709 90.687 33.0858 89.9628C33.0456 89.9587 33.0052 89.9669 32.97 89.9865C32.9347 90.006 32.9062 90.0359 32.8884 90.0721C32.8706 90.1083 32.8643 90.149 32.8703 90.1889C32.8764 90.2288 32.8945 90.2659 32.9222 90.2952L33.0109 90.3388Z" fill="#E8E3DB"/>
<path d="M39.5244 91.5889C45.1844 94.1261 51.5611 94.7591 57.5025 96.3888C62.3267 97.7717 67.1753 99.4968 72.0329 100.924C77.4854 102.664 83.0614 103.991 88.7135 104.893C91.7534 105.315 94.825 105.505 97.8755 105.85C100.991 106.259 104.078 106.859 107.12 107.647C107.229 107.661 107.339 107.638 107.431 107.58C107.524 107.522 107.594 107.434 107.629 107.331C107.663 107.227 107.661 107.114 107.621 107.012C107.582 106.911 107.508 106.826 107.413 106.772C102.804 104.504 97.0824 104.441 92.032 103.966C86.3928 103.311 80.8205 102.172 75.3771 100.56C69.8891 99.0156 64.3896 97.383 58.9667 95.6505C56.0416 94.818 53.0729 94.1475 50.074 93.642C46.5343 93.1486 43.0317 92.4183 39.5898 91.4559L39.5244 91.5889Z" fill="#E8E3DB"/>
<path d="M104.167 108.669C99.1648 108.191 94.1172 108.7 89.3109 110.167C83.9951 111.49 78.7645 113.136 73.648 115.093C68.3605 117.172 62.9495 118.921 57.446 120.332C51.8019 121.341 46.0199 121.296 40.3924 120.198L40.322 121.292C44.4683 120.92 48.5622 120.102 52.5328 118.851C56.6166 117.356 60.5595 115.501 64.315 113.308C71.9942 109.042 80.704 106.983 89.4807 107.36C90.2872 107.399 90.5334 106.172 89.7269 106.133C81.5684 105.71 73.4388 107.397 66.1228 111.033C61.8621 113.147 57.836 115.68 53.385 117.398C49.1956 119.02 44.7696 119.948 40.2816 120.144C39.6411 120.159 39.6249 121.087 40.2221 121.215C45.4199 122.468 50.8114 122.7 56.0975 121.898C61.5505 120.703 66.899 119.073 72.092 117.025C77.4034 115.124 82.6809 113.125 88.1164 111.643C90.7866 110.882 93.5064 110.307 96.2563 109.923C98.8496 109.575 101.489 109.581 104.105 109.244C104.38 109.187 104.355 108.734 104.145 108.713L104.167 108.669Z" fill="#E8E3DB"/>
<path d="M142.884 151.087C138.062 148.682 133.065 146.646 127.935 144.997C123.035 143.264 117.973 142.027 112.825 141.305C107.873 140.741 103.041 141.556 98.1034 141.466C92.8441 141.04 87.6697 139.884 82.7296 138.03C82.375 137.855 82.0479 138.52 82.3698 138.761C90.3072 144.863 99.8141 148.587 109.785 149.498C112.205 149.725 114.624 149.732 117.065 149.805C119.858 150.01 122.622 150.503 125.314 151.276C130.284 152.371 135.392 152.704 140.462 152.262C141.058 152.225 140.898 151.375 140.401 151.379C135.214 151.467 130.032 151.037 124.931 150.097C122.686 149.408 120.378 148.946 118.041 148.716C115.533 148.555 112.993 148.627 110.474 148.433C100.43 147.929 90.7904 144.321 82.8847 138.106L82.4032 138.805C87.0274 140.848 91.9579 142.111 96.9948 142.544C101.956 142.811 106.863 141.73 111.825 142.162C122.544 143.088 132.822 147.484 142.655 151.552C142.724 151.564 142.795 151.554 142.857 151.523C142.919 151.491 142.97 151.44 143.001 151.378C143.031 151.315 143.041 151.244 143.028 151.176C143.015 151.107 142.98 151.045 142.928 150.998L142.884 151.087Z" fill="#E8E3DB"/>
<path d="M320.856 140.84C301.523 131.023 285.299 116.027 273.994 97.5241L272.982 98.1822C275.313 101.724 279.322 103.476 282.749 105.741C287.008 108.439 291.029 111.495 294.769 114.875C301.323 120.852 306.604 127.909 312.839 134.087C315.903 137.409 319.552 140.137 323.604 142.136C323.757 142.212 323.933 142.223 324.094 142.168C324.255 142.113 324.388 141.997 324.463 141.844C324.539 141.691 324.55 141.515 324.495 141.353C324.44 141.192 324.324 141.059 324.171 140.984C314.906 135.985 308.609 127.19 301.625 119.68C297.503 115.252 292.94 111.254 288.008 107.75C285.623 106.054 283.172 104.49 280.656 103.004C278.031 101.748 275.738 99.8938 273.961 97.5906C273.918 97.5241 273.862 97.4668 273.797 97.422C273.731 97.3772 273.658 97.3456 273.58 97.3292C273.503 97.3128 273.423 97.3118 273.345 97.3263C273.267 97.3408 273.193 97.3705 273.126 97.4137C273.06 97.4569 273.002 97.5128 272.958 97.5781C272.913 97.6435 272.881 97.717 272.865 97.7945C272.848 97.8721 272.847 97.9521 272.862 98.03C272.876 98.1079 272.906 98.1822 272.949 98.2487C278.582 107.417 285.447 115.768 293.352 123.068C301.336 130.67 310.494 136.933 320.475 141.615C320.578 141.639 320.686 141.627 320.782 141.582C320.877 141.537 320.955 141.46 321.002 141.365C321.048 141.27 321.062 141.162 321.039 141.059C321.017 140.955 320.96 140.862 320.878 140.795L320.856 140.84Z" fill="#E8E3DB"/>
</svg>
