<svg width="346" height="342" viewBox="0 0 346 342" fill="none" xmlns="http://www.w3.org/2000/svg">
<path d="M280.305 154.681C275.673 155.262 271.016 154.028 266.431 154.451C261.777 155.037 257.234 156.306 252.951 158.218C245.716 161.596 239.133 166.221 233.502 171.882C231.415 173.484 229.77 175.591 228.721 178.004C228.084 180.271 230.061 181.369 232.075 181.104C235.209 180.42 238.172 179.111 240.788 177.255C244.678 174.935 248.438 172.402 252.049 169.667C260.515 163.281 269.496 156.34 280.482 155.783C281.351 155.759 281.283 154.229 280.415 154.253C272.146 154.533 264.83 158.505 258.166 163.123C251.584 168.175 244.73 172.863 237.634 177.165C236.654 177.71 230.794 180.997 230.152 178.846C229.946 178.102 230.866 177.011 231.251 176.46C232.106 175.327 233.063 174.274 234.11 173.316C239.195 168.065 245.091 163.664 251.572 160.282C256.151 158.008 261.063 156.478 266.123 155.75C270.893 155.108 275.782 156.19 280.445 155.158C280.517 155.129 280.577 155.077 280.614 155.009C280.652 154.942 280.665 154.863 280.652 154.787C280.638 154.711 280.599 154.642 280.54 154.591C280.482 154.541 280.408 154.512 280.33 154.51L280.305 154.681Z" fill="#E8E3DB"/>
<path d="M280.334 155.364C286.89 155.686 291.882 151.699 297.168 148.421C300.062 146.626 302.998 144.861 306.045 143.299C309.343 141.692 312.813 140.466 316.388 139.643C317.03 139.492 317.067 138.446 316.349 138.481C309.713 138.544 303.532 142.742 298.051 146.073C292.571 149.404 287.231 154.474 280.392 154.648C279.969 154.667 279.904 155.347 280.334 155.364Z" fill="#E8E3DB"/>
<path d="M268.667 166.106C272.387 162.888 276.593 160.28 281.129 158.379C283.285 157.499 285.38 156.476 287.4 155.317C288.342 154.739 289.253 154.112 290.13 153.439C290.994 152.94 291.718 152.23 292.234 151.376C292.261 151.302 292.267 151.222 292.252 151.145C292.237 151.067 292.202 150.995 292.15 150.936C292.097 150.877 292.03 150.833 291.955 150.809C291.88 150.785 291.8 150.781 291.723 150.799C290.819 151.203 290 151.777 289.312 152.489C288.37 153.25 287.394 153.925 286.404 154.621C284.374 155.957 282.218 157.092 279.968 158.01C275.631 159.82 271.714 162.506 268.463 165.9C268.444 165.929 268.436 165.963 268.442 165.997C268.448 166.031 268.467 166.061 268.495 166.08C268.523 166.1 268.558 166.108 268.592 166.102C268.626 166.096 268.656 166.077 268.675 166.049L268.667 166.106Z" fill="#E8E3DB"/>
<path d="M271.472 163.083C257.136 173.222 238.907 181.934 232.218 199.276C231.268 201.766 227.776 209.924 231.828 211.619C234.864 212.825 237.267 209.521 238.627 207.348C241.533 202.692 245.056 198.372 248.294 193.916C251.99 188.897 255.431 183.7 259.162 178.674C263.08 173.419 267.297 168.393 271.791 163.62C271.857 163.531 271.891 163.421 271.887 163.309C271.882 163.197 271.84 163.09 271.766 163.006C271.693 162.921 271.593 162.864 271.483 162.844C271.373 162.825 271.259 162.843 271.161 162.897C263.29 169.288 257.531 178.165 251.765 186.374C248.803 190.613 245.582 194.955 242.434 199.19C241.087 201.118 239.648 202.952 238.407 204.955C237.515 206.662 236.363 208.219 234.993 209.572C234.271 210.108 232.844 210.751 232.102 209.918C231.359 209.084 231.668 208.101 231.72 207.349C232.029 204.842 232.681 202.39 233.657 200.06C236.122 193.869 239.989 188.333 244.954 183.888C253.176 176.227 263.38 171.055 271.623 163.409C271.712 163.282 271.593 163.136 271.432 163.276L271.472 163.083Z" fill="#E8E3DB"/>
<path d="M263.175 192.703C266.814 185.831 270.971 179.246 275.61 173.005C277.455 170.635 279.406 168.339 281.329 165.993C283.635 163.188 285.807 160.259 288.177 157.499C289.87 155.527 291.6 153.772 293.425 152.018C295.108 150.665 296.683 149.181 298.133 147.58C298.474 147.093 297.933 146.557 297.427 146.74C295.708 147.603 294.173 148.79 292.904 150.235C291.365 151.715 289.876 153.261 288.456 154.887C285.875 157.814 283.696 161.023 281.234 164.097C277.159 168.892 273.364 173.918 269.868 179.149C267.21 183.467 264.797 187.931 262.641 192.52C262.463 192.774 262.974 193.036 263.086 192.831L263.175 192.703Z" fill="#E8E3DB"/>
<path d="M264.781 188.463C261.599 192.296 258.65 196.292 255.356 200.014C252.061 203.737 248.879 206.939 245.682 210.477C242.458 213.942 239.673 217.791 237.392 221.938C235.698 224.61 234.524 227.578 233.931 230.685C233.782 232.568 234.867 234.493 236.982 233.857C238.914 232.988 240.598 231.648 241.88 229.961C244.899 226.677 247.813 223.319 250.614 219.851C253.786 216.167 256.638 212.22 259.14 208.051C260.949 204.663 262.388 201.089 263.432 197.393C264.534 193.873 265.702 190.305 266.469 186.678C266.581 186.157 265.685 186.13 265.584 186.501C263.486 192.258 261.859 198.155 259.426 203.804C256.222 211.28 250.459 217.725 245.254 223.866C243.341 226.253 241.297 228.531 239.131 230.691C238.476 231.437 237.683 232.05 236.797 232.498C235.069 233.12 235.143 231.027 235.476 229.872C235.844 228.529 236.368 227.233 237.038 226.012C237.791 224.393 238.507 222.78 239.416 221.207C241.599 217.577 244.144 214.177 247.01 211.058C253.356 203.916 260.445 197.199 265.359 188.899C265.41 188.826 265.43 188.736 265.415 188.648C265.399 188.56 265.349 188.482 265.276 188.431C265.203 188.38 265.113 188.36 265.025 188.376C264.937 188.391 264.859 188.441 264.808 188.514L264.781 188.463Z" fill="#E8E3DB"/>
<path d="M178.599 109.435C183.163 110.983 188.013 111.218 192.586 112.709C197.43 114.524 201.944 117.123 205.946 120.401C210.097 123.49 214.012 126.509 218.367 129.078C222.577 131.616 226.989 133.801 231.559 135.612C236.716 137.763 242.075 139.394 247.556 140.479C248.456 140.635 248.813 139.086 247.899 138.858C238.035 136.711 228.553 133.086 219.773 128.104C215.48 125.437 211.333 122.54 207.352 119.428C203.601 116.43 199.423 114.011 194.956 112.251C189.694 110.437 184.084 110.523 178.638 108.927C178.584 108.919 178.529 108.93 178.483 108.958C178.436 108.987 178.401 109.031 178.384 109.083C178.366 109.135 178.368 109.191 178.388 109.242C178.407 109.292 178.445 109.335 178.493 109.361L178.599 109.435Z" fill="#E8E3DB"/>
<path d="M198.767 180.701C204.93 171.911 212.329 164.056 220.735 157.38C224.945 154.044 229.401 151.031 234.064 148.367C238.734 145.7 243.619 143.718 248.404 141.384C249.397 140.911 248.933 139.136 247.786 139.47C242.648 141.215 237.743 143.583 233.179 146.518C228.497 149.296 224.023 152.411 219.793 155.839C211.185 162.631 203.863 170.911 198.174 180.286C197.922 180.647 198.501 181.082 198.767 180.701Z" fill="#E8E3DB"/>
<path d="M107.974 185.751C135.102 169.493 164.589 157.545 195.382 150.333C226.258 143.163 257.88 139.714 289.575 140.059C298.758 140.01 307.937 140.433 317.076 141.324C321.704 141.76 326.303 142.456 330.853 143.409C335.179 144.35 339.395 145.718 343.629 146.972C344.626 147.259 345.519 145.801 344.512 145.256C337.665 141.513 329.379 140.236 321.734 139.216C313.387 138.135 304.985 137.531 296.569 137.406C280.619 137.116 264.666 137.678 248.776 139.092C216.756 141.715 185.273 148.897 155.283 160.421C138.542 166.955 122.521 175.199 107.473 185.023C107.088 185.259 107.504 185.928 107.889 185.692L107.974 185.751Z" fill="#E8E3DB"/>
<path d="M187.026 111.095C182.811 109.774 178.514 108.731 174.162 107.975C169.863 107.085 165.554 106.346 161.196 105.857C154.197 105.131 145.931 103.961 139.391 107.183C138.282 107.732 136.957 108.636 137.831 110.004C139.117 111.319 140.779 112.205 142.589 112.539C148.024 114.042 153.642 114.782 159.282 114.738C168.627 115.266 177.995 114.244 187.005 111.711C188.066 111.412 187.76 109.684 186.684 110.004C179.497 112.211 172.028 113.368 164.51 113.438C160.708 113.463 156.874 113.308 153.085 113.09C150.827 113.01 148.578 112.758 146.359 112.334C144.446 111.956 142.571 111.406 140.757 110.691C140.014 110.479 139.336 110.082 138.788 109.537C138.205 108.656 139.661 108.286 140.265 107.919C146.43 105.098 154.088 106.19 160.517 106.738C164.873 107.177 169.203 107.834 173.493 108.706C177.957 109.585 182.41 110.93 186.916 111.523C186.97 111.535 187.027 111.526 187.074 111.497C187.121 111.468 187.155 111.421 187.167 111.367C187.18 111.313 187.17 111.256 187.141 111.209C187.112 111.162 187.065 111.129 187.011 111.116L187.026 111.095Z" fill="#E8E3DB"/>
<path d="M198.352 111.722C193.341 103.68 184.694 98.5858 176.389 94.5822C166.934 90.0586 156.605 86.7856 147.656 81.0393C145.176 79.307 140.744 76.6213 142.732 72.9634C144.719 69.3055 150.391 71.0284 153.394 71.8325C163.61 74.6798 171.727 81.7063 179.332 88.8793C182.805 92.3502 185.945 96.1382 188.712 100.194C191.32 104.435 194.27 108.457 197.531 112.22C198.04 112.576 198.872 112.242 198.534 111.597C196.221 107.511 193.627 103.591 190.77 99.8656C188.06 95.9044 185.043 92.1622 181.747 88.6736C177.984 84.8884 173.949 81.3845 169.674 78.19C165.27 74.7978 160.31 72.1973 155.015 70.5049C151.481 69.4239 146.73 67.8717 143.256 69.9551C142.154 70.6194 141.314 71.6423 140.876 72.8525C140.438 74.0627 140.43 75.3865 140.852 76.6021C141.442 78.1418 142.487 79.4655 143.847 80.397C146.156 82.115 148.601 83.6434 151.157 84.9672C156.042 87.591 161.159 89.7465 166.292 91.8808C172.184 94.1869 177.913 96.8925 183.437 99.9787C188.849 103.131 193.664 107.21 197.664 112.03C197.961 112.237 198.475 111.997 198.268 111.663L198.352 111.722Z" fill="#E8E3DB"/>
<path d="M194.099 107.109C196.047 111.426 199.104 115.15 202.959 117.903C204.946 119.574 206.947 121.224 209.17 122.872L212.435 125.152C213.429 126.011 214.561 126.695 215.783 127.176C215.934 127.22 216.095 127.216 216.243 127.164C216.392 127.112 216.52 127.015 216.61 126.886C216.7 126.757 216.747 126.603 216.745 126.446C216.743 126.289 216.691 126.137 216.598 126.01C215.76 125.13 214.794 124.381 213.734 123.789L210.47 121.509C208.35 120.028 206.531 118.568 204.621 117.014C202.728 115.566 200.915 114.016 199.192 112.369C197.559 110.604 196.119 108.668 194.899 106.595C194.587 106.094 193.938 106.617 194.099 107.109Z" fill="#E8E3DB"/>
<path d="M228.813 119.407C225.764 110.497 219.317 102.525 212.918 95.973C206.076 89.1132 198.709 82.797 190.886 77.0816C188.448 75.3789 185.338 71.976 185.847 68.6733C186.088 67.7879 186.623 67.0105 187.363 66.4678C188.102 65.9251 189.005 65.6491 189.921 65.6848C192.115 65.6866 194.247 66.411 195.988 67.7462C199.889 70.1913 203.525 73.0373 206.835 76.2378C210.498 80.0009 213.763 84.1316 216.58 88.5644C219.446 92.8504 221.852 97.4276 223.757 102.219C225.596 107.149 226.667 112.333 226.93 117.588C227.005 118.429 228.362 118.336 228.402 117.512C228.93 107.726 224.494 98.0036 219.379 89.7944C216.606 85.173 213.404 80.8237 209.813 76.8047C206.259 73.1347 202.322 69.8558 198.069 67.024C194.826 64.7586 190.937 62.8307 187.088 64.6836C186.422 64.9869 185.828 65.4281 185.345 65.9781C184.862 66.5281 184.502 67.1744 184.287 67.8741C184.073 68.5739 184.009 69.3113 184.101 70.0375C184.192 70.7637 184.437 71.4621 184.819 72.0866C186.456 75.974 189.949 78.2878 193.067 80.6867C197.363 83.972 201.593 87.3993 205.631 91.0089C210.18 95.0023 214.389 99.3667 218.215 104.057C222.029 108.952 225.414 114.166 228.334 119.641C228.343 119.687 228.361 119.731 228.389 119.769C228.417 119.806 228.453 119.837 228.495 119.859C228.536 119.881 228.582 119.893 228.629 119.895C228.676 119.896 228.723 119.887 228.766 119.868C228.809 119.849 228.847 119.82 228.877 119.784C228.907 119.748 228.929 119.706 228.94 119.66C228.952 119.615 228.952 119.567 228.943 119.521C228.933 119.475 228.913 119.432 228.885 119.395L228.813 119.407Z" fill="#E8E3DB"/>
<path d="M226.901 116.589C227.527 119.771 228.878 122.765 230.85 125.339C232.724 128.144 234.979 130.675 237.551 132.858C240.066 134.968 242.846 136.741 245.821 138.131C248.723 139.827 252.021 140.728 255.383 140.742C256.166 140.658 256.093 139.724 255.498 139.403C254.088 138.863 252.64 138.431 251.165 138.111C249.641 137.649 248.15 137.082 246.704 136.414C243.824 135.069 241.13 133.356 238.689 131.32C236.298 129.316 234.154 127.035 232.302 124.524C231.289 123.157 230.376 121.718 229.57 120.219C228.967 118.887 228.296 117.586 227.56 116.323C227.263 116.116 226.908 116.309 226.944 116.618L226.901 116.589Z" fill="#E8E3DB"/>
<path d="M199.374 178.886C193.915 183.178 188.891 187.932 183.755 192.576C179.095 196.574 174.724 200.899 170.678 205.518C168.571 208.065 166.766 210.846 165.297 213.807C164.223 216.022 162.972 219.122 164.269 221.51C165.565 223.898 169.188 224.22 171.574 223.648C174.122 222.851 176.397 221.361 178.145 219.344C183.324 213.504 187.589 206.912 190.792 199.794C194.173 193.103 197.112 186.231 200.124 179.347C200.479 178.838 199.472 178.292 199.212 178.71C196.265 183.652 194.139 189.043 191.589 194.137C188.484 201.076 184.745 207.713 180.421 213.964C177.696 217.864 172.393 224.283 166.79 221.694C164.198 220.482 165.377 217.079 166.254 215.011C167.577 212.08 169.273 209.332 171.302 206.837C175.172 202.22 179.408 197.922 183.968 193.986C189.339 189.096 194.829 184.353 199.821 179.103C199.881 179.053 199.918 178.981 199.926 178.903C199.933 178.826 199.908 178.748 199.858 178.688C199.808 178.628 199.736 178.59 199.659 178.583C199.581 178.576 199.503 178.6 199.443 178.65L199.374 178.886Z" fill="#E8E3DB"/>
<path d="M196.557 172.851C200.216 171.426 203.732 169.659 207.058 167.571C210.339 165.741 213.302 163.39 215.831 160.611C216.038 160.314 215.622 159.961 215.301 160.241C209.549 165.162 203.055 169.141 196.058 172.03C195.559 172.249 195.915 173.002 196.421 172.82L196.557 172.851Z" fill="#E8E3DB"/>
<path d="M200.164 170.578C195.302 171.667 190.385 172.496 185.435 173.062C180.379 173.79 175.467 175.295 170.87 177.522C166.149 179.956 161.623 182.752 157.333 185.885C153.05 188.405 149.32 191.763 146.366 195.76C144.886 197.88 142.789 201.965 144.642 204.459C145.889 206.15 148.282 205.298 149.847 204.594C152.376 203.363 154.762 201.856 156.959 200.1L165.1 193.865C170.139 190.037 175.166 186.137 180.36 182.448C185.701 178.777 191.229 175.385 196.921 172.286C197.033 172.216 197.116 172.107 197.154 171.98C197.192 171.854 197.182 171.717 197.126 171.597C197.071 171.477 196.973 171.381 196.852 171.328C196.731 171.275 196.595 171.267 196.469 171.308C191.922 173.218 187.612 175.647 183.623 178.545C179.387 181.358 175.325 184.419 171.285 187.494C165.494 191.901 159.898 196.571 154.056 200.69C152.13 202.383 149.815 203.572 147.317 204.151C143.681 204.481 146.289 198.67 147.145 197.219C149.683 193.339 153.046 190.066 156.994 187.635C161.102 184.624 165.405 181.888 169.875 179.444C174.791 176.811 180.123 175.041 185.639 174.214C190.504 173.48 195.774 173.251 200.41 171.128C200.558 170.916 200.552 170.564 200.249 170.637L200.164 170.578Z" fill="#E8E3DB"/>
<path d="M209.828 176.065C213.583 170.961 217.21 165.768 221.353 160.966C225.681 156.14 230.297 151.582 235.177 147.316C235.253 147.222 235.293 147.105 235.292 146.985C235.29 146.864 235.247 146.748 235.169 146.656C235.091 146.565 234.984 146.503 234.865 146.482C234.747 146.461 234.625 146.482 234.52 146.541C229.454 150.454 224.808 154.882 220.655 159.753C216.208 164.562 212.378 169.907 209.256 175.665C209.019 176.004 209.561 176.446 209.828 176.065Z" fill="#E8E3DB"/>
<path d="M211.774 171.338C209.086 175.864 206.067 180.185 202.742 184.267C199.711 188.404 197.029 192.787 194.725 197.369C192.448 202.024 190.599 206.877 189.203 211.867C187.872 215.275 187.199 218.904 187.22 222.562C187.47 224.597 188.965 226.745 191.199 225.625C193.152 224.281 194.699 222.427 195.669 220.264C199.54 213.366 202.413 205.954 204.203 198.25C205.171 194.29 206.004 190.299 207.129 186.385C208.606 181.422 210.377 176.55 212.431 171.797C212.668 171.457 211.945 171.047 211.795 171.352C208.191 178.194 205.557 185.505 203.971 193.073C202.43 199.879 200.301 206.538 197.606 212.975C196.41 215.929 194.914 218.751 193.141 221.399C192.193 222.756 189.727 226.016 189.023 222.78C188.763 221.117 188.873 219.417 189.346 217.802C189.781 215.961 190.272 214.128 190.764 212.296C192.016 207.832 193.642 203.481 195.623 199.29C197.92 194.416 200.669 189.769 203.836 185.41C207.214 181.172 210.103 176.567 212.448 171.682C212.715 171.301 211.956 170.897 211.791 171.223L211.774 171.338Z" fill="#E8E3DB"/>
<path d="M171.722 140.994C177.37 143.827 183.294 146.073 189.4 147.698C191.989 148.28 194.632 148.582 197.285 148.601C199.927 148.859 202.592 148.469 205.049 147.464C205.521 147.195 205.512 146.305 204.823 146.297C203.609 146.42 202.406 146.633 201.223 146.936C199.796 147.146 198.355 147.246 196.913 147.237C194.316 147.195 191.729 146.908 189.185 146.38C183.277 145.045 177.514 143.133 171.98 140.67C171.705 140.477 171.485 141.018 171.684 141.094L171.722 140.994Z" fill="#E8E3DB"/>
<path d="M175.304 141.511C166.68 138.825 157.747 137.259 148.723 136.852C140.488 136.296 132.219 137.192 124.293 139.498C121.867 140.263 115.138 143.574 113.933 139.294C112.728 135.014 118.433 131.588 121.475 130.212C129.364 126.64 139.065 128.149 147.16 130.24C152.078 131.576 156.901 133.239 161.598 135.216C166.897 137.25 171.868 140.053 176.351 143.535C177.199 144.127 178.087 142.855 177.283 142.199C173.166 139 168.627 136.381 163.796 134.418C159.08 132.367 154.232 130.634 149.284 129.232C140.898 126.97 130.992 125.348 122.611 128.451C118.798 129.658 115.56 132.221 113.51 135.655C112.138 138.387 112.923 141.553 116.143 142.226C117.638 142.486 119.175 142.367 120.612 141.878C122.859 141.145 125.057 140.346 127.35 139.772C132.062 138.576 136.889 137.888 141.747 137.718C147.291 137.586 152.836 137.925 158.323 138.732C164.042 139.573 169.617 140.849 175.275 141.869C175.466 142.002 175.556 141.466 175.364 141.426L175.304 141.511Z" fill="#E8E3DB"/>
<path d="M133.344 154.715C136.759 154.48 140.184 154.43 143.604 154.565C147.134 154.884 150.634 155.473 154.074 156.328C157.317 157.056 160.632 157.415 163.956 157.396C167.061 157.503 170.157 157.01 173.075 155.945C173.138 155.926 173.196 155.896 173.247 155.855C173.298 155.814 173.34 155.763 173.371 155.706C173.402 155.649 173.422 155.586 173.429 155.521C173.436 155.456 173.43 155.391 173.412 155.328C173.393 155.266 173.363 155.207 173.322 155.157C173.281 155.106 173.23 155.064 173.173 155.032C173.116 155.001 173.053 154.981 172.988 154.975C172.923 154.968 172.857 154.974 172.795 154.992C171.264 155.152 169.769 155.622 168.25 155.854C166.5 156.108 164.732 156.223 162.964 156.198C159.602 156.13 156.255 155.735 152.969 155.02C149.72 154.261 146.411 153.786 143.08 153.6C139.809 153.556 136.538 153.715 133.286 154.075C132.869 154.131 132.904 154.849 133.327 154.829L133.344 154.715Z" fill="#E8E3DB"/>
<path d="M139.079 153.546C123.417 153.391 107.484 155.161 94.8276 165.243C92.8783 166.814 90.0386 169.751 90.7446 172.578C91.1721 174.359 93.161 174.266 94.5799 173.995C96.8681 173.44 99.1096 172.707 101.284 171.803C105.398 170.239 109.41 168.417 113.295 166.348C117.465 164.215 121.56 161.965 125.779 159.898C129.999 157.831 134.682 156.183 139.247 154.388C139.921 154.102 139.57 153.069 138.865 153.175C135.307 153.882 131.864 155.074 128.631 156.718C125.233 158.287 121.937 160.116 118.677 161.939C112.269 165.539 105.643 168.736 98.837 171.513C97.0648 172.199 94.808 173.398 92.8357 173.061C91.4629 172.859 91.7117 171.645 92.0792 170.577C92.8166 168.816 94.063 167.314 95.6589 166.265C101.526 161.809 108.26 158.628 115.429 156.926C123.236 155.495 131.127 154.559 139.052 154.126C139.397 154.083 139.452 153.554 139.015 153.501L139.079 153.546Z" fill="#E8E3DB"/>
<path d="M163.917 169.416C166.723 167.579 169.662 165.953 172.709 164.551C175.715 163.182 178.826 161.98 181.716 160.371C184.48 158.711 187.153 156.904 189.723 154.958L193.847 152.035C195.379 151.205 196.738 150.087 197.849 148.744C198.1 148.384 197.784 147.753 197.287 147.878C195.903 148.415 194.633 149.208 193.542 150.214C192.113 151.266 190.691 152.354 189.224 153.506C186.415 155.768 183.449 157.827 180.347 159.667C177.516 161.191 174.562 162.439 171.704 163.912C168.844 165.407 166.114 167.14 163.544 169.093C163.366 169.347 163.604 169.639 163.947 169.374L163.917 169.416Z" fill="#E8E3DB"/>
<path d="M168.506 165.871C167.321 167.566 164.483 167.792 162.647 168.433C160.811 169.075 158.749 169.905 156.867 170.703C153.231 172.291 149.711 174.132 146.332 176.212C139.39 180.159 133.06 185.098 127.544 190.873C125.595 192.711 124.315 195.147 123.908 197.795C123.74 199.57 124.547 201.395 126.438 201.486C127.68 201.44 128.872 200.987 129.83 200.197C131.596 198.966 133.266 197.602 134.825 196.117C137.864 193.257 140.614 190.132 143.604 187.206C146.961 183.936 150.669 180.976 154.271 177.941C157.873 174.907 162.123 171.757 165.839 168.424C166.15 167.979 165.794 167.225 165.256 167.543C162.1 169.645 159.107 171.982 156.303 174.535C153.285 177.095 150.25 179.769 147.313 182.258C141.685 187.064 137.16 192.955 131.526 197.724C130.204 198.85 128.401 200.618 126.446 200.482C124.49 200.347 124.743 198.631 124.979 197.345C125.874 194.229 127.722 191.473 130.264 189.462C133.007 186.863 135.959 184.495 139.09 182.381C142.106 180.23 145.193 178.16 148.319 176.212C151.741 174.179 155.301 172.387 158.973 170.849C160.804 170.079 162.669 169.395 164.52 168.732C165.369 168.587 166.181 168.275 166.909 167.815C167.637 167.354 168.266 166.754 168.76 166.048C168.864 165.9 168.609 165.722 168.506 165.871Z" fill="#E8E3DB"/>
<path d="M114.007 180.724C107.391 183.198 100.882 185.969 94.2166 188.377C87.7988 190.538 81.615 193.34 75.7588 196.741C70.2606 200.194 65.2367 204.35 60.8147 209.104C58.6274 211.401 56.5637 213.813 54.6325 216.329C53.2437 217.945 52.1758 219.811 51.4861 221.827C51.2755 222.306 51.1854 222.829 51.2237 223.351C51.262 223.873 51.4276 224.378 51.7059 224.821C51.9842 225.265 52.3669 225.633 52.8204 225.895C53.2739 226.156 53.7845 226.302 54.3076 226.321C57.5648 226.325 60.7563 225.405 63.5105 223.666C66.9546 221.576 70.1469 219.097 73.0244 216.277C76.857 212.867 80.6196 209.377 84.3887 205.923C89.254 201.532 94.1405 197.155 99.2222 193.041C104.304 188.927 109.361 185.3 114.546 181.668C115.042 181.32 114.522 180.484 113.999 180.781C104.777 185.63 96.729 192.908 89.0045 199.812C81.9678 206.093 75.2174 212.731 68.0196 218.837C65.2686 221.326 62.0335 223.222 58.5166 224.404C57.0725 224.846 52.7865 226.015 52.6272 223.444C52.8615 221.667 53.6194 220.001 54.8042 218.657C56.5039 216.306 58.3592 214.073 60.3578 211.971C64.5623 207.198 69.316 202.939 74.5201 199.282C80.476 195.485 86.8606 192.408 93.5405 190.113C100.654 187.733 107.614 184.916 114.381 181.679C114.44 181.652 114.492 181.613 114.536 181.565C114.579 181.517 114.613 181.461 114.635 181.401C114.657 181.34 114.667 181.275 114.664 181.211C114.661 181.146 114.645 181.083 114.618 181.024C114.59 180.966 114.552 180.913 114.504 180.87C114.456 180.826 114.4 180.792 114.339 180.77C114.279 180.748 114.214 180.739 114.15 180.742C114.085 180.745 114.022 180.76 113.963 180.788L114.007 180.724Z" fill="#E8E3DB"/>
<path d="M62.1071 179.352C73.2993 179.222 84.3223 181.592 95.4916 181.857C99.8429 182.022 104.198 181.63 108.449 180.69C112.286 179.711 116.242 178.564 120.064 177.291C124.034 176.134 127.884 174.599 131.561 172.707C131.699 172.625 131.801 172.495 131.848 172.342C131.895 172.189 131.884 172.024 131.817 171.879C131.75 171.734 131.631 171.619 131.484 171.556C131.336 171.494 131.171 171.488 131.02 171.54C123.842 174.095 116.738 176.86 109.379 178.816C100.051 181.289 90.2116 180.25 80.6345 179.331C74.4962 178.66 68.323 178.361 62.1485 178.435C61.6529 178.467 61.6007 179.219 62.0815 179.208L62.1071 179.352Z" fill="#E8E3DB"/>
<path d="M73.1465 178.989C67.7456 177.714 62.2747 176.757 56.7619 176.122C51.5094 175.22 46.1911 174.754 40.8617 174.729C33.2745 174.69 25.8325 176.809 19.4045 180.84C17.4549 182.096 8.89004 187.404 13.0233 190.291C14.5919 191.123 16.394 191.404 18.1415 191.091C20.2129 190.947 22.2751 190.693 24.3194 190.329C28.8268 189.491 33.2814 188.39 37.6605 187.033C47.4979 183.805 57.4974 181.095 67.618 178.912C68.1941 178.81 68.0175 178.024 67.4647 178.048C59.4436 178.469 51.5375 181.525 43.9463 183.949C36.0536 186.821 27.8974 188.909 19.5958 190.183C17.6177 190.441 14.7735 190.946 13.2343 189.493C12.4117 188.729 12.7412 187.76 13.3398 186.949C15.0536 184.909 17.1642 183.239 19.5433 182.041C25.5711 178.365 32.4432 176.301 39.4989 176.048C44.95 175.966 50.3975 176.372 55.7759 177.263C61.4958 178.105 67.2374 179.592 72.9354 179.788C73.3802 179.783 73.4685 179.025 73.1041 178.96L73.1465 178.989Z" fill="#E8E3DB"/>
<path d="M62.2638 170.504C69.2675 171.675 75.4939 174.952 81.9612 177.703C84.8313 179.007 87.818 180.037 90.8816 180.781C92.3382 181.092 93.8148 181.302 95.3007 181.408C96.6907 181.661 98.1213 181.579 99.4732 181.168C99.5513 181.136 99.6178 181.081 99.6636 181.01C99.7095 180.939 99.7325 180.856 99.7297 180.772C99.7268 180.687 99.6982 180.606 99.6477 180.538C99.5972 180.47 99.5271 180.42 99.447 180.393C98.0002 180.186 96.5381 180.103 95.077 180.147C93.4983 180.037 91.9303 179.807 90.3868 179.457C87.1899 178.693 84.0563 177.684 81.0131 176.442C75.0113 173.719 68.7308 171.659 62.2826 170.296C62.1131 170.178 62.0309 170.657 62.2745 170.669L62.2638 170.504Z" fill="#E8E3DB"/>
<path d="M65.2358 170.72C58.5757 167.929 51.5548 166.557 44.6773 164.528C38.843 162.419 32.5647 161.846 26.4448 162.862C24.413 163.083 22.513 163.975 21.046 165.398C20.7803 165.779 20.5925 166.208 20.4934 166.661C20.3943 167.114 20.3859 167.583 20.4687 168.039C20.5514 168.496 20.7237 168.932 20.9756 169.321C21.2274 169.711 21.5539 170.047 21.9362 170.31C23.1257 170.999 24.4555 171.41 25.8263 171.513C27.4857 171.796 29.161 171.977 30.8426 172.053C34.2469 172.21 37.6572 172.181 41.0584 171.966C45.2097 171.712 49.2974 171.414 53.4911 171.189C57.6849 170.965 61.2416 171.336 65.1328 171.5C65.8064 171.529 66.0871 170.495 65.3879 170.322C59.7755 168.83 53.3116 169.55 47.699 170.045C41.3768 170.733 35.0083 170.894 28.6594 170.528C26.7126 170.335 20.8259 169.912 21.886 166.679C22.507 164.842 25.6244 164.307 27.2 164.083C32.969 163.265 38.8497 163.818 44.365 165.698C51.2657 167.648 58.2634 169.098 65.122 171.335C65.1957 171.361 65.2767 171.357 65.3474 171.324C65.4181 171.29 65.4726 171.23 65.4989 171.157C65.5252 171.083 65.5212 171.002 65.4878 170.931C65.4544 170.86 65.3942 170.806 65.3206 170.78L65.2358 170.72Z" fill="#E8E3DB"/>
<path d="M117.868 193.168C123.336 184.183 130.242 176.158 138.311 169.412C138.778 169.013 138.288 168.134 137.714 168.459C133.721 170.875 130.192 173.985 127.294 177.643C123.452 182.317 120.1 187.373 117.29 192.732C117.023 193.113 117.638 193.543 117.883 193.146L117.868 193.168Z" fill="#E8E3DB"/>
<path d="M117.203 193.396C112.997 200.282 110.11 207.891 108.689 215.834C107.13 224.206 106.46 232.569 102.818 240.401C101.677 242.758 99.3516 247.441 96.2891 247.762C93.2266 248.083 93.8061 242.874 94.0542 241.029C95.234 233.211 97.7493 225.655 101.49 218.69C106.263 209.931 111.712 201.558 117.786 193.646C118.067 193.243 117.48 192.864 117.171 193.216C110.798 200.902 105.251 209.237 100.621 218.082C96.6246 225.15 93.9208 232.873 92.637 240.89C92.2856 243.199 91.7954 246.61 93.7225 248.366C95.6496 250.122 98.3216 248.961 99.9997 247.326C102.634 244.476 104.594 241.07 105.732 237.359C107.19 233.033 108.196 228.567 108.733 224.033C109.318 218.869 110.258 213.751 111.548 208.716C113.056 203.489 115.074 198.423 117.572 193.591C117.735 193.358 117.368 193.07 117.191 193.324L117.203 193.396Z" fill="#E8E3DB"/>
<path d="M110.542 201.895C108.34 203.511 106.33 205.26 104.107 206.862C101.885 208.463 99.3086 210.164 96.851 211.696C92.3357 214.503 87.7589 217.172 83.5511 220.351C79.1157 223.547 75.3466 227.578 72.4552 232.217C70.8756 234.93 68.6506 238.296 68.7236 241.532C68.7046 243.727 69.9834 245.282 72.0541 244.395C74.381 243.158 76.424 241.448 78.052 239.376C81.0926 236.106 83.9996 232.712 86.9978 229.414C90.326 225.778 93.6479 222.106 96.955 218.455C101.028 213.889 105.349 209.464 109.155 204.648C109.21 204.562 109.233 204.459 109.221 204.358C109.208 204.257 109.161 204.163 109.087 204.092C109.013 204.022 108.917 203.98 108.815 203.973C108.714 203.965 108.612 203.994 108.529 204.053C104.985 207.412 101.805 211.151 98.5485 214.774C95.5799 218.031 92.6389 221.338 89.7128 224.624C86.7866 227.91 83.5219 231.59 80.384 235.044C78.6279 236.971 76.8929 238.913 75.056 240.594C74.3026 241.266 71.044 244.667 70.3601 242.802C70.0365 241.15 70.3343 239.438 71.1963 237.993C71.9043 236.463 72.6933 234.971 73.56 233.525C76.2903 229.023 79.8774 225.099 84.1182 221.977C88.5821 218.567 93.4574 215.696 98.1991 212.701C103.101 210.04 107.489 206.526 111.156 202.324C111.172 202.272 111.171 202.216 111.153 202.165C111.135 202.113 111.101 202.069 111.057 202.038C111.012 202.007 110.959 201.99 110.904 201.991C110.85 201.992 110.797 202.01 110.754 202.043L110.542 201.895Z" fill="#E8E3DB"/>
</svg>
