<svg xmlns="http://www.w3.org/2000/svg" xmlns:xlink="http://www.w3.org/1999/xlink" viewBox="0 0 131 131">
  <defs>
    <linearGradient id="a" data-name="Безымянный градиент 219" x1="-41.41" y1="-431.5" x2="-57.54" y2="-478.71" gradientTransform="matrix(1, 0, 0, -1, 0, 133.42)" gradientUnits="userSpaceOnUse">
      <stop offset="0" stop-color="#ff525e"/>
      <stop offset="1" stop-color="#ff525e"/>
    </linearGradient>
    <linearGradient id="b" x1="13614.21" y1="-1267.07" x2="19510.51" y2="-1828.17" xlink:href="#a"/>
    <linearGradient id="c" x1="16774.31" y1="-1350.36" x2="24051.21" y2="-1947.56" xlink:href="#a"/>
    <linearGradient id="d" x1="19406.48" y1="-1389.94" x2="27833.28" y2="-2004.13" xlink:href="#a"/>
    <linearGradient id="e" x1="21722.82" y1="-1416.66" x2="31161.72" y2="-2042.27" xlink:href="#a"/>
    <linearGradient id="f" x1="23800.31" y1="-1432.6" x2="34147.01" y2="-2064.9" xlink:href="#a"/>
    <linearGradient id="g" x1="25690.85" y1="-1441.41" x2="36863.75" y2="-2077.31" xlink:href="#a"/>
    <linearGradient id="h" x1="27440.98" y1="-1447.92" x2="39378.78" y2="-2086.42" xlink:href="#a"/>
    <linearGradient id="i" x1="29085.82" y1="-1456.23" x2="41742.52" y2="-2098.13" xlink:href="#a"/>
    <linearGradient id="j" x1="30648.04" y1="-1457.43" x2="43987.54" y2="-2099.63" xlink:href="#a"/>
    <linearGradient id="k" x1="32156.36" y1="-1455.4" x2="46155.26" y2="-2096.5" xlink:href="#a"/>
    <linearGradient id="l" x1="33630.91" y1="-1449.7" x2="48274.21" y2="-2088.1" xlink:href="#a"/>
    <linearGradient id="m" x1="35097.83" y1="-1442.57" x2="50382.43" y2="-2077.67" xlink:href="#a"/>
    <linearGradient id="n" x1="36587.83" y1="-1433.17" x2="52523.73" y2="-2063.98" xlink:href="#a"/>
    <linearGradient id="o" x1="38122.5" y1="-1406.54" x2="54729.01" y2="-2025.54" xlink:href="#a"/>
    <linearGradient id="p" x1="39754.68" y1="-1374.77" x2="57074.78" y2="-1979.77" xlink:href="#a"/>
    <linearGradient id="q" x1="41648.21" y1="-1280.12" x2="59795.7" y2="-1843.72" xlink:href="#a"/>
    <linearGradient id="r" x1="44100.09" y1="-1172.12" x2="63319.39" y2="-1688.62" xlink:href="#a"/>
    <linearGradient id="s" x1="46889.71" y1="-1134.85" x2="67328.22" y2="-1635.14" xlink:href="#a"/>
    <linearGradient id="t" x1="49878.79" y1="-1134.09" x2="71622.79" y2="-1634.09" xlink:href="#a"/>
    <linearGradient id="u" x1="53031.79" y1="-1150.12" x2="76154.2" y2="-1657.12" xlink:href="#a"/>
    <linearGradient id="v" x1="56526.14" y1="-1178.01" x2="81173.24" y2="-1697.01" xlink:href="#a"/>
    <linearGradient id="w" x1="60949.2" y1="-1206.37" x2="87529.51" y2="-1737.37" xlink:href="#a"/>
    <linearGradient id="x" x1="67442.3" y1="-1240.55" x2="96858.71" y2="-1785.55" xlink:href="#a"/>
    <linearGradient id="y" x1="72638.43" y1="-1283.5" x2="104323.03" y2="-1846.5" xlink:href="#a"/>
    <linearGradient id="z" x1="76663.83" y1="-1321.4" x2="110107.93" y2="-1900.4" xlink:href="#a"/>
    <linearGradient id="aa" x1="79936.08" y1="-1363.8" x2="114808.28" y2="-1960.8" xlink:href="#a"/>
    <linearGradient id="ab" x1="82630.83" y1="-1401.47" x2="118680.72" y2="-2014.47" xlink:href="#a"/>
    <linearGradient id="ac" x1="84864.61" y1="-1443.69" x2="121890.41" y2="-2074.69" xlink:href="#a"/>
    <linearGradient id="ad" x1="86702.51" y1="-1485.87" x2="124531.61" y2="-2134.87" xlink:href="#a"/>
    <linearGradient id="ae" x1="88201.94" y1="-1528.07" x2="126686.44" y2="-2195.07" xlink:href="#a"/>
    <linearGradient id="af" x1="89386.51" y1="-1561.21" x2="128387.41" y2="-2242.21" xlink:href="#a"/>
    <linearGradient id="ag" x1="90301.57" y1="-1608.02" x2="129703.47" y2="-2309.02" xlink:href="#a"/>
    <linearGradient id="ah" x1="90938.43" y1="-1645.81" x2="130617.72" y2="-2362.81" xlink:href="#a"/>
    <linearGradient id="ai" x1="91327.37" y1="-1676.73" x2="131176.57" y2="-2406.73" xlink:href="#a"/>
    <linearGradient id="aj" x1="91494.1" y1="-1673.21" x2="131419.4" y2="-2401.21" xlink:href="#a"/>
    <linearGradient id="ak" x1="91440.81" y1="-1676.75" x2="131342.52" y2="-2405.75" xlink:href="#a"/>
    <linearGradient id="al" x1="91167.65" y1="-1680.35" x2="130949.65" y2="-2410.35" xlink:href="#a"/>
    <linearGradient id="am" x1="90675.81" y1="-1681.66" x2="130243.41" y2="-2411.66" xlink:href="#a"/>
    <linearGradient id="an" x1="89979.43" y1="-1671.52" x2="129244.33" y2="-2396.52" xlink:href="#a"/>
    <linearGradient id="ao" x1="89097.63" y1="-1665.99" x2="127979.03" y2="-2387.99" xlink:href="#a"/>
    <linearGradient id="ap" x1="88009.76" y1="-1655.96" x2="126416.96" y2="-2372.96" xlink:href="#a"/>
    <linearGradient id="aq" x1="86763.82" y1="-1645.99" x2="124626.92" y2="-2357.99" xlink:href="#a"/>
    <linearGradient id="ar" x1="85472.87" y1="-1638.24" x2="122773.07" y2="-2346.24" xlink:href="#a"/>
    <linearGradient id="as" x1="84188.47" y1="-1630.51" x2="120926.97" y2="-2334.51" xlink:href="#a"/>
    <linearGradient id="at" x1="82758.09" y1="-1622.81" x2="118870.89" y2="-2322.81" xlink:href="#a"/>
    <linearGradient id="au" x1="81177.74" y1="-1610.38" x2="116602.94" y2="-2304.38" xlink:href="#a"/>
    <linearGradient id="av" x1="79396.91" y1="-1604.96" x2="114045.11" y2="-2295.96" xlink:href="#a"/>
    <linearGradient id="aw" x1="77268.97" y1="-1597.42" x2="110987.17" y2="-2284.42" xlink:href="#a"/>
    <linearGradient id="ax" x1="74446.03" y1="-1587.84" x2="106931.43" y2="-2269.84" xlink:href="#a"/>
    <linearGradient id="ay" x1="66759.75" y1="-1585.14" x2="95889.05" y2="-2264.14" xlink:href="#a"/>
    <linearGradient id="az" x1="59901.17" y1="-1584.33" x2="86034.57" y2="-2261.33" xlink:href="#a"/>
    <linearGradient id="ba" x1="55911.61" y1="-1568.17" x2="80304.11" y2="-2237.17" xlink:href="#a"/>
    <linearGradient id="bb" x1="52490.48" y1="-1560.92" x2="75388.59" y2="-2225.92" xlink:href="#a"/>
    <linearGradient id="bc" x1="49251.86" y1="-1545.82" x2="70736.87" y2="-2203.51" xlink:href="#a"/>
    <linearGradient id="bd" x1="46030.54" y1="-1525.4" x2="66109.45" y2="-2173.5" xlink:href="#a"/>
    <linearGradient id="be" x1="42707.81" y1="-1498.51" x2="61336.01" y2="-2134.2" xlink:href="#a"/>
    <linearGradient id="bf" x1="39177.94" y1="-1466.56" x2="56264.94" y2="-2087.66" xlink:href="#a"/>
    <linearGradient id="bg" x1="35281.95" y1="-1420.13" x2="50668.15" y2="-2020.33" xlink:href="#a"/>
    <linearGradient id="bh" x1="30854.42" y1="-1353.07" x2="44307.72" y2="-1923.37" xlink:href="#a"/>
    <linearGradient id="bi" x1="25598.01" y1="-1239.33" x2="36756.31" y2="-1759.33" xlink:href="#a"/>
    <linearGradient id="bj" x1="18731.22" y1="-946.01" x2="26891.62" y2="-1337.31" xlink:href="#a"/>
    <linearGradient id="bk" x1="6269.28" y1="-43.13" x2="8987.99" y2="-39.53" xlink:href="#a"/>
    <linearGradient id="bl" data-name="Безымянный градиент 243" x1="16.6" y1="71.78" x2="-38.44" y2="67.98" gradientTransform="matrix(1, 0, 0, -1, 0, 133.42)" gradientUnits="userSpaceOnUse">
      <stop offset="0" stop-color="#ff525e"/>
      <stop offset="0.13" stop-color="#ff8261"/>
      <stop offset="0.28" stop-color="#ffaf64"/>
      <stop offset="0.39" stop-color="#ffcb65"/>
      <stop offset="0.46" stop-color="#ffd666"/>
      <stop offset="1" stop-color="#ff525e"/>
    </linearGradient>
    <linearGradient id="bm" x1="-27524.86" y1="-31404.75" x2="-43505.76" y2="-49691.45" xlink:href="#bl"/>
    <linearGradient id="bn" data-name="Безымянный градиент 241" x1="54.75" y1="52.34" x2="11.74" y2="109.62" gradientTransform="matrix(1, 0, 0, -1, 0, 133.42)" gradientUnits="userSpaceOnUse">
      <stop offset="0.04" stop-color="#ff525e"/>
      <stop offset="0.26" stop-color="#ff525e"/>
      <stop offset="0.53" stop-color="#ff525e"/>
      <stop offset="0.6" stop-color="#ff595e"/>
      <stop offset="0.69" stop-color="#ff6e60"/>
      <stop offset="0.81" stop-color="#ff8f62"/>
      <stop offset="0.94" stop-color="#ffbd65"/>
      <stop offset="1" stop-color="#ffd666"/>
    </linearGradient>
    <linearGradient id="bo" x1="-1887.42" y1="98.73" x2="-7338.16" y2="59.75" xlink:href="#bl"/>
    <linearGradient id="bp" x1="-1921.56" y1="101.23" x2="-7372.3" y2="62.25" xlink:href="#bl"/>
    <linearGradient id="bq" x1="-2889.49" y1="120.93" x2="-11130.34" y2="145.19" xlink:href="#bl"/>
    <linearGradient id="br" x1="-3614.8" y1="113.8" x2="-13874.01" y2="119.29" xlink:href="#bl"/>
    <linearGradient id="bs" x1="-4219.05" y1="101.25" x2="-16158.91" y2="72.98" xlink:href="#bl"/>
    <linearGradient id="bt" x1="-4751.2" y1="88.13" x2="-18170.69" y2="24.39" xlink:href="#bl"/>
    <linearGradient id="bu" x1="-5228.92" y1="74.73" x2="-19976.3" y2="-25.28" xlink:href="#bl"/>
    <linearGradient id="bv" x1="-5664.11" y1="61.35" x2="-21620.71" y2="-74.92" xlink:href="#bl"/>
    <linearGradient id="bw" x1="-6067.11" y1="48.44" x2="-23143.2" y2="-122.87" xlink:href="#bl"/>
    <linearGradient id="bx" x1="-6445.72" y1="36.36" x2="-24573.07" y2="-167.74" xlink:href="#bl"/>
    <linearGradient id="by" x1="-6805.9" y1="23.85" x2="-25933.18" y2="-214.27" xlink:href="#bl"/>
    <linearGradient id="bz" x1="-7153.71" y1="11.05" x2="-27246.6" y2="-262" xlink:href="#bl"/>
    <linearGradient id="ca" x1="-7494.79" y1="-3.33" x2="-28534.38" y2="-315.73" xlink:href="#bl"/>
    <linearGradient id="cb" x1="-7834.03" y1="-18.15" x2="-29814.98" y2="-371.21" xlink:href="#bl"/>
    <linearGradient id="cc" x1="-8177.63" y1="-33.45" x2="-31112.17" y2="-428.59" xlink:href="#bl"/>
    <linearGradient id="cd" x1="-8531.85" y1="-51.95" x2="-32449.69" y2="-498.23" xlink:href="#bl"/>
    <linearGradient id="ce" x1="-8907.95" y1="-74.15" x2="-33869.67" y2="-582.09" xlink:href="#bl"/>
    <linearGradient id="cf" x1="-9340.25" y1="-109.7" x2="-35502.49" y2="-717.04" xlink:href="#bl"/>
    <linearGradient id="cg" x1="-9899.68" y1="-150.83" x2="-37616.68" y2="-873.85" xlink:href="#bl"/>
    <linearGradient id="ch" x1="-10541" y1="-178.57" x2="-40041" y2="-980.08" xlink:href="#bl"/>
    <linearGradient id="ci" x1="-11229.75" y1="-202.48" x2="-42645.35" y2="-1071.67" xlink:href="#bl"/>
    <linearGradient id="cj" x1="-11957.88" y1="-223.58" x2="-45398.77" y2="-1152.18" xlink:href="#bl"/>
    <linearGradient id="ck" x1="-12763.13" y1="-245.75" x2="-48444.63" y2="-1235.89" xlink:href="#bl"/>
    <linearGradient id="cl" x1="-13783.72" y1="-275.19" x2="-52307.02" y2="-1345.29" xlink:href="#bl"/>
    <linearGradient id="cm" x1="-15279.39" y1="-321.63" x2="-57970.99" y2="-1515.53" xlink:href="#bl"/>
    <linearGradient id="cn" x1="-16475.96" y1="-355.83" x2="-62501.36" y2="-1640.73" xlink:href="#bl"/>
    <linearGradient id="co" x1="-17405.43" y1="-380.47" x2="-66018.84" y2="-1730.83" xlink:href="#bl"/>
    <linearGradient id="cp" x1="-18160.12" y1="-398.48" x2="-68874.82" y2="-1796.38" xlink:href="#bl"/>
    <linearGradient id="cq" x1="-18783.38" y1="-412.26" x2="-71231.79" y2="-1846.14" xlink:href="#bl"/>
    <linearGradient id="cr" x1="-19300.11" y1="-421.62" x2="-73185.81" y2="-1879.27" xlink:href="#bl"/>
    <linearGradient id="cs" x1="-19725.66" y1="-427.89" x2="-74794.66" y2="-1900.72" xlink:href="#bl"/>
    <linearGradient id="ct" x1="-20072.82" y1="-431.76" x2="-76106.22" y2="-1913.06" xlink:href="#bl"/>
    <linearGradient id="cu" x1="-20348.56" y1="-434.18" x2="-77147.27" y2="-1919.85" xlink:href="#bl"/>
    <linearGradient id="cv" x1="-20561.23" y1="-432.68" x2="-77949.13" y2="-1911.72" xlink:href="#bl"/>
    <linearGradient id="cw" x1="-20710.13" y1="-430.49" x2="-78509.62" y2="-1900.83" xlink:href="#bl"/>
    <linearGradient id="cx" x1="-20801.16" y1="-426.6" x2="-78851.26" y2="-1883.41" xlink:href="#bl"/>
    <linearGradient id="cy" x1="-20836.33" y1="-421.17" x2="-78981.03" y2="-1859.99" xlink:href="#bl"/>
    <linearGradient id="cz" x1="-20826.19" y1="-423.05" x2="-78938.89" y2="-1864.13" xlink:href="#bl"/>
    <linearGradient id="da" x1="-20766.71" y1="-425.11" x2="-78710.52" y2="-1868.84" xlink:href="#bl"/>
    <linearGradient id="db" x1="-20657.53" y1="-425.4" x2="-78293.44" y2="-1866.71" xlink:href="#bl"/>
    <linearGradient id="dc" x1="-20500.29" y1="-424.5" x2="-77694.7" y2="-1859.96" xlink:href="#bl"/>
    <linearGradient id="dd" x1="-20298.55" y1="-420.49" x2="-76926.94" y2="-1841.27" xlink:href="#bl"/>
    <linearGradient id="de" x1="-20049.41" y1="-415.65" x2="-75980.21" y2="-1819.35" xlink:href="#bl"/>
    <linearGradient id="df" x1="-19763.62" y1="-409.68" x2="-74894.32" y2="-1793.05" xlink:href="#bl"/>
    <linearGradient id="dg" x1="-19468.11" y1="-402.65" x2="-73820.21" y2="-1764.05" xlink:href="#bl"/>
    <linearGradient id="dh" x1="-19173.02" y1="-396.09" x2="-72650.31" y2="-1734.53" xlink:href="#bl"/>
    <linearGradient id="di" x1="-18844.59" y1="-388.15" x2="-71402.99" y2="-1700.99" xlink:href="#bl"/>
    <linearGradient id="dj" x1="-18483.2" y1="-379.38" x2="-70030.91" y2="-1664.26" xlink:href="#bl"/>
    <linearGradient id="dk" x1="-18074.3" y1="-368.35" x2="-68478.8" y2="-1618.79" xlink:href="#bl"/>
    <linearGradient id="dl" x1="-17585.34" y1="-355.2" x2="-66623.34" y2="-1564.98" xlink:href="#bl"/>
    <linearGradient id="dm" x1="-16936.9" y1="-336.86" x2="-64164.7" y2="-1490.65" xlink:href="#bl"/>
    <linearGradient id="dn" x1="-15169.5" y1="-281.13" x2="-57469.39" y2="-1267.65" xlink:href="#bl"/>
    <linearGradient id="do" x1="-13591.91" y1="-231.55" x2="-51492.61" y2="-1069.39" xlink:href="#bl"/>
    <linearGradient id="dp" x1="-12676.35" y1="-205.35" x2="-48021.55" y2="-964.14" xlink:href="#bl"/>
    <linearGradient id="dq" x1="-11889.79" y1="-182.39" x2="-45039.68" y2="-872.24" xlink:href="#bl"/>
    <linearGradient id="dr" x1="-11146.45" y1="-162.01" x2="-42220.46" y2="-790.62" xlink:href="#bl"/>
    <linearGradient id="ds" x1="-10406.59" y1="-142.79" x2="-39415.29" y2="-713.76" xlink:href="#bl"/>
    <linearGradient id="dt" x1="-9643.66" y1="-123.99" x2="-36521.87" y2="-638.71" xlink:href="#bl"/>
    <linearGradient id="du" x1="-8832.66" y1="-104.94" x2="-33446.31" y2="-562.88" xlink:href="#bl"/>
    <linearGradient id="dv" x1="-7937.61" y1="-86.01" x2="-30052.36" y2="-487.58" xlink:href="#bl"/>
    <linearGradient id="dw" x1="-6919.78" y1="-67.53" x2="-26193.41" y2="-413.96" xlink:href="#bl"/>
    <linearGradient id="dx" x1="-5709.37" y1="-53.47" x2="-21604.9" y2="-357.1" xlink:href="#bl"/>
    <linearGradient id="dy" x1="-4120.9" y1="-66.11" x2="-15584.25" y2="-401.39" xlink:href="#bl"/>
    <linearGradient id="dz" x1="-1443.4" y1="1.27" x2="-5437.97" y2="-142.54" xlink:href="#bl"/>
    <linearGradient id="ea" data-name="Безымянный градиент 245" x1="57.41" y1="114.41" x2="217.31" y2="101.17" gradientTransform="matrix(1, 0, 0, -1, 0, 133.42)" gradientUnits="userSpaceOnUse">
      <stop offset="0" stop-color="#ff525e"/>
      <stop offset="0.53" stop-color="#ff525e"/>
      <stop offset="0.6" stop-color="#ff595e"/>
      <stop offset="0.69" stop-color="#ff6e60"/>
      <stop offset="0.81" stop-color="#ff8f62"/>
      <stop offset="0.94" stop-color="#ffbd65"/>
      <stop offset="1" stop-color="#ffd666"/>
    </linearGradient>
    <linearGradient id="eb" x1="249.75" y1="-177.23" x2="-738.6" y2="1219.56" xlink:href="#bl"/>
    <linearGradient id="ec" x1="-2195.28" y1="129.01" x2="-3156.83" y2="146.54" xlink:href="#bl"/>
    <linearGradient id="ed" x1="-1413.71" y1="921.59" x2="-2050.86" y2="1305.36" xlink:href="#bl"/>
    <linearGradient id="ee" x1="181.42" y1="-102.36" x2="-443.5" y2="798.74" xlink:href="#bl"/>
    <linearGradient id="ef" x1="98.89" y1="-36.8" x2="-73.11" y2="473.76" xlink:href="#bl"/>
    <linearGradient id="eg" x1="97.53" y1="-35.68" x2="-73.1" y2="493.36" xlink:href="#bl"/>
    <linearGradient id="eh" x1="123.36" y1="33.14" x2="36.71" y2="138.15" xlink:href="#bl"/>
    <linearGradient id="ei" x1="125.99" y1="35.41" x2="39.42" y2="140.48" xlink:href="#bl"/>
    <linearGradient id="ej" x1="142.01" y1="-8.85" x2="-126.34" y2="370.41" xlink:href="#bl"/>
    <linearGradient id="ek" x1="143.94" y1="-7.56" x2="-115.2" y2="358.66" xlink:href="#bl"/>
    <linearGradient id="el" x1="143.94" y1="-7.18" x2="-124.37" y2="372.01" xlink:href="#bl"/>
    <linearGradient id="em" x1="143.28" y1="-11.05" x2="-125.04" y2="368.14" xlink:href="#bl"/>
    <linearGradient id="en" x1="1443.83" y1="-1828.38" x2="3181.75" y2="-4101.19" xlink:href="#bl"/>
    <linearGradient id="eo" x1="228.53" y1="-353.64" x2="483.44" y2="-857.15" xlink:href="#bl"/>
    <linearGradient id="ep" x1="232.14" y1="-368.51" x2="491.64" y2="-892.76" xlink:href="#bl"/>
    <linearGradient id="eq" x1="82.85" y1="-28.42" x2="170.41" y2="-132.8" xlink:href="#bl"/>
    <linearGradient id="er" x1="84.44" y1="-27.04" x2="171.95" y2="-131.46" xlink:href="#bl"/>
    <linearGradient id="es" x1="244.74" y1="-245.37" x2="527.88" y2="-615.66" xlink:href="#bl"/>
    <linearGradient id="et" x1="238.81" y1="-235.21" x2="512.28" y2="-592.84" xlink:href="#bl"/>
    <linearGradient id="eu" x1="245.85" y1="-244.3" x2="528.94" y2="-614.52" xlink:href="#bl"/>
    <linearGradient id="ev" x1="245.57" y1="-246.58" x2="528.68" y2="-616.82" xlink:href="#bl"/>
    <linearGradient id="ew" x1="-7746.66" y1="5114.58" x2="10896.1" y2="-7094.52" xlink:href="#bn"/>
    <linearGradient id="ex" data-name="Безымянный градиент 244" x1="82.37" y1="67.37" x2="-34.16" y2="112.3" gradientTransform="matrix(1, 0, 0, -1, 0, 133.42)" gradientUnits="userSpaceOnUse">
      <stop offset="0" stop-color="#ff809c"/>
      <stop offset="0.15" stop-color="#ff7b98"/>
      <stop offset="0.33" stop-color="#ff6d8d"/>
      <stop offset="0.52" stop-color="#ff567a"/>
      <stop offset="0.53" stop-color="#ff5479"/>
      <stop offset="0.75" stop-color="#fc5b75"/>
      <stop offset="1" stop-color="#f76b6c"/>
    </linearGradient>
    <linearGradient id="ey" x1="-23504.22" y1="11340.96" x2="-108710.92" y2="52085.08" xlink:href="#bl"/>
    <linearGradient id="ez" x1="28450.72" y1="-28600.36" x2="-8840.04" y2="9154.95" xlink:href="#bn"/>
    <linearGradient id="fa" x1="5657.82" y1="3515.35" x2="2710.52" y2="1672.25" xlink:href="#a"/>
    <linearGradient id="fb" x1="8632.75" y1="5374.86" x2="4223.75" y2="2618.86" xlink:href="#a"/>
    <linearGradient id="fc" x1="10979.14" y1="6819.94" x2="5416.64" y2="3354.74" xlink:href="#a"/>
    <linearGradient id="fd" x1="12929.45" y1="8026.01" x2="6408.55" y2="3969.01" xlink:href="#a"/>
    <linearGradient id="fe" x1="14638.31" y1="9085.95" x2="7278.01" y2="4509.05" xlink:href="#a"/>
    <linearGradient id="ff" x1="16179.02" y1="10041.77" x2="8061.52" y2="4995.87" xlink:href="#a"/>
    <linearGradient id="fg" x1="17584.82" y1="10914.18" x2="8776.62" y2="5440.38" xlink:href="#a"/>
    <linearGradient id="fh" x1="18881.21" y1="11720.26" x2="9436.41" y2="5851.36" xlink:href="#a"/>
    <linearGradient id="fi" x1="20097.41" y1="12478.03" x2="10055.21" y2="6237.63" xlink:href="#a"/>
    <linearGradient id="fj" x1="21250.53" y1="13198.28" x2="10642.03" y2="6604.88" xlink:href="#a"/>
    <linearGradient id="fk" x1="22366.73" y1="13894.65" x2="11209.83" y2="6959.85" xlink:href="#a"/>
    <linearGradient id="fl" x1="23456.32" y1="14574.45" x2="11764.32" y2="7306.55" xlink:href="#a"/>
    <linearGradient id="fm" x1="24538.39" y1="15249.62" x2="12314.69" y2="7650.72" xlink:href="#a"/>
    <linearGradient id="fn" x1="25637.38" y1="15937.13" x2="12874.08" y2="8001.43" xlink:href="#a"/>
    <linearGradient id="fo" x1="26780.47" y1="16652.46" x2="13455.67" y2="8366.16" xlink:href="#a"/>
    <linearGradient id="fp" x1="28002.43" y1="17417.07" x2="14077.32" y2="8755.97" xlink:href="#a"/>
    <linearGradient id="fq" x1="29448.27" y1="18324.22" x2="14812.67" y2="9218.22" xlink:href="#a"/>
    <linearGradient id="fr" x1="31304.06" y1="19490.17" x2="15757.27" y2="9812.67" xlink:href="#a"/>
    <linearGradient id="fs" x1="33339.83" y1="20771.45" x2="16792.83" y2="10465.45" xlink:href="#a"/>
    <linearGradient id="ft" x1="35469.9" y1="22116.42" x2="17876.61" y2="11150.73" xlink:href="#a"/>
    <linearGradient id="fu" x1="37670.51" y1="23513.14" x2="18996.11" y2="11862.14" xlink:href="#a"/>
    <linearGradient id="fv" x1="40009.39" y1="25015.76" x2="20185.59" y2="12626.97" xlink:href="#a"/>
    <linearGradient id="fw" x1="43140.11" y1="26990.39" x2="21778.01" y2="13631.79" xlink:href="#a"/>
    <linearGradient id="fx" x1="47854.68" y1="29938.96" x2="24175.68" y2="15131.26" xlink:href="#a"/>
    <linearGradient id="fy" x1="51616.26" y1="32290.68" x2="26089.26" y2="16327.78" xlink:href="#a"/>
    <linearGradient id="fz" x1="54523.89" y1="34111.4" x2="27566.89" y2="17253.4" xlink:href="#a"/>
    <linearGradient id="ga" x1="56885.62" y1="35586.86" x2="28770.61" y2="18005.86" xlink:href="#a"/>
    <linearGradient id="gb" x1="58877.49" y1="36827.72" x2="29782.49" y2="18636.72" xlink:href="#a"/>
    <linearGradient id="gc" x1="60558.27" y1="37875.93" x2="30638.27" y2="19170.93" xlink:href="#a"/>
    <linearGradient id="gd" x1="61932.43" y1="38735.26" x2="31338.43" y2="19609.26" xlink:href="#a"/>
    <linearGradient id="ge" x1="63034.95" y1="39430.6" x2="31897.95" y2="19962.6" xlink:href="#a"/>
    <linearGradient id="gf" x1="63907.75" y1="39983.6" x2="32340.75" y2="20243.61" xlink:href="#a"/>
    <linearGradient id="gg" x1="64574.21" y1="40405.61" x2="32681.21" y2="20459.61" xlink:href="#a"/>
    <linearGradient id="gh" x1="65039.62" y1="40703.16" x2="32917.62" y2="20611.16" xlink:href="#a"/>
    <linearGradient id="gi" x1="65317.4" y1="40883.68" x2="33059.4" y2="20703.68" xlink:href="#a"/>
    <linearGradient id="gj" x1="65419.83" y1="40953.29" x2="33112.83" y2="20740.28" xlink:href="#a"/>
    <linearGradient id="gk" x1="65349.53" y1="40916.65" x2="33076.52" y2="20721.65" xlink:href="#a"/>
    <linearGradient id="gl" x1="65117.8" y1="40779.09" x2="32958.8" y2="20652.1" xlink:href="#a"/>
    <linearGradient id="gm" x1="64735.67" y1="40544.47" x2="32766.67" y2="20534.47" xlink:href="#a"/>
    <linearGradient id="gn" x1="64197.19" y1="40214.61" x2="32492.2" y2="20366.61" xlink:href="#a"/>
    <linearGradient id="go" x1="63506.9" y1="39791.58" x2="32140.9" y2="20151.57" xlink:href="#a"/>
    <linearGradient id="gp" x1="62682.33" y1="39281.06" x2="31721.33" y2="19892.06" xlink:href="#a"/>
    <linearGradient id="gq" x1="61768.91" y1="38709.2" x2="31257.91" y2="19602.2" xlink:href="#a"/>
    <linearGradient id="gr" x1="60872.22" y1="38138.46" x2="30802.22" y2="19312.46" xlink:href="#a"/>
    <linearGradient id="gs" x1="59915.5" y1="37542.66" x2="30315.5" y2="19009.66" xlink:href="#a"/>
    <linearGradient id="gt" x1="58854.96" y1="36881.67" x2="29775.96" y2="18673.68" xlink:href="#a"/>
    <linearGradient id="gu" x1="57670.85" y1="36147" x2="29174.85" y2="18301" xlink:href="#a"/>
    <linearGradient id="gv" x1="56330.56" y1="35315.26" x2="28493.57" y2="17878.46" xlink:href="#a"/>
    <linearGradient id="gw" x1="54789.91" y1="34346.81" x2="27710.91" y2="17386.71" xlink:href="#a"/>
    <linearGradient id="gx" x1="52734.98" y1="33060.16" x2="26663.98" y2="16731.26" xlink:href="#a"/>
    <linearGradient id="gy" x1="47139.37" y1="29552.23" x2="23819.97" y2="14947.23" xlink:href="#a"/>
    <linearGradient id="gz" x1="42139.78" y1="26419.46" x2="21277.38" y2="13353.16" xlink:href="#a"/>
    <linearGradient id="ha" x1="39248.63" y1="24605.43" x2="19807.24" y2="12430.63" xlink:href="#a"/>
    <linearGradient id="hb" x1="36761.67" y1="23045.12" x2="18542.67" y2="11637.32" xlink:href="#a"/>
    <linearGradient id="hc" x1="34417.99" y1="21572.93" x2="17351.29" y2="10889.13" xlink:href="#a"/>
    <linearGradient id="hd" x1="32090.6" y1="20109.51" x2="16168.11" y2="10145.41" xlink:href="#a"/>
    <linearGradient id="he" x1="29695.67" y1="18602.29" x2="14950.27" y2="9379.29" xlink:href="#a"/>
    <linearGradient id="hf" x1="27150.52" y1="17007.12" x2="13656.02" y2="8568.42" xlink:href="#a"/>
    <linearGradient id="hg" x1="24350.7" y1="15256.62" x2="12232.7" y2="7678.82" xlink:href="#a"/>
    <linearGradient id="hh" x1="21178.68" y1="13273.6" x2="10619.97" y2="6670.89" xlink:href="#a"/>
    <linearGradient id="hi" x1="17437.59" y1="10935.12" x2="8717.89" y2="5482.22" xlink:href="#a"/>
    <linearGradient id="hj" x1="12653.55" y1="7943.98" x2="6285.15" y2="3961.48" xlink:href="#a"/>
    <linearGradient id="hk" x1="4250.79" y1="2689.74" x2="2012.35" y2="1289.99" xlink:href="#a"/>
    <linearGradient id="hl" x1="3985.09" y1="36453.58" x2="1456.69" y2="12314.48" xlink:href="#ea"/>
    <linearGradient id="hm" x1="-2866.72" y1="8755.9" x2="2721.48" y2="-7529.57" xlink:href="#ea"/>
    <linearGradient id="hn" x1="2678.53" y1="-3478.08" x2="1689.52" y2="-2080.58" xlink:href="#bl"/>
    <linearGradient id="ho" x1="1722.41" y1="-2190.42" x2="1097.51" y2="-1289.33" xlink:href="#bl"/>
    <linearGradient id="hp" x1="575.64" y1="-1161.18" x2="403.62" y2="-650.97" xlink:href="#bl"/>
    <linearGradient id="hq" x1="572.8" y1="-1207.2" x2="402.2" y2="-677.78" xlink:href="#bl"/>
    <linearGradient id="hr" x1="339.61" y1="-118.41" x2="252.95" y2="-13.39" xlink:href="#bl"/>
    <linearGradient id="hs" x1="342.13" y1="-116.22" x2="255.55" y2="-11.13" xlink:href="#bl"/>
    <linearGradient id="ht" x1="811.18" y1="-823.49" x2="542.85" y2="-444.26" xlink:href="#bl"/>
    <linearGradient id="hu" x1="790.71" y1="-790.51" x2="531.55" y2="-424.27" xlink:href="#bl"/>
    <linearGradient id="hv" x1="813.11" y1="-821.82" x2="544.78" y2="-442.6" xlink:href="#bl"/>
    <linearGradient id="hw" x1="812.47" y1="-825.68" x2="544.13" y2="-446.47" xlink:href="#bl"/>
    <linearGradient id="hx" x1="4093.43" y1="-5172.7" x2="5832.39" y2="-7446.67" xlink:href="#bl"/>
    <linearGradient id="hy" x1="650.4" y1="-998.55" x2="905.32" y2="-1502.09" xlink:href="#bl"/>
    <linearGradient id="hz" x1="662.29" y1="-1044.53" x2="921.79" y2="-1568.78" xlink:href="#bl"/>
    <linearGradient id="ia" x1="219.42" y1="-82.73" x2="306.97" y2="-187.09" xlink:href="#bl"/>
    <linearGradient id="ib" x1="221" y1="-81.37" x2="308.5" y2="-185.77" xlink:href="#bl"/>
    <linearGradient id="ic" x1="683.7" y1="-699.1" x2="966.81" y2="-1069.34" xlink:href="#bl"/>
    <linearGradient id="id" x1="663.05" y1="-669.69" x2="936.46" y2="-1027.26" xlink:href="#bl"/>
    <linearGradient id="ie" x1="684.85" y1="-698.11" x2="967.97" y2="-1068.36" xlink:href="#bl"/>
    <linearGradient id="if" x1="684.54" y1="-700.35" x2="967.65" y2="-1070.6" xlink:href="#bl"/>
    <linearGradient id="ig" x1="12453.54" y1="-8060.87" x2="31096.27" y2="-20270.07" xlink:href="#bn"/>
    <linearGradient id="ih" x1="48598.93" y1="-23939.26" x2="-38870.46" y2="19349.55" xlink:href="#ex"/>
    <linearGradient id="ii" x1="47656.6" y1="-23321.25" x2="-37472" y2="18537.95" xlink:href="#bl"/>
    <linearGradient id="ij" x1="-20593.23" y1="-25860.11" x2="-7156.63" y2="-9017.42" xlink:href="#ex"/>
    <linearGradient id="ik" x1="-20581.82" y1="-25846.26" x2="-7145.12" y2="-9003.56" xlink:href="#ea"/>
    <mask id="il" x="-39.33" y="-11.95" width="217.26" height="208.57" maskUnits="userSpaceOnUse">
      <g>
        <g style="opacity: 0.550000011920929">
          <path d="M109.92,110.81l4.08,6.78.81,1.35a10.44,10.44,0,0,0-.15-1.59l-.07-.12-3.25-5.39h0A13.18,13.18,0,0,0,109.92,110.81Z" style="opacity: 0.550000011920929;isolation: isolate;fill: url(#a)"/>
          <path d="M107.29,109.44l5.38,9,1.92,3.19c.07-.37.12-.73.16-1.08L113.26,118,108.4,110C108,109.78,107.67,109.61,107.29,109.44Z" style="opacity: 0.550000011920929;isolation: isolate;fill: url(#b)"/>
          <path d="M105,108.57l6.39,10.62,2.73,4.53c.09-.31.18-.61.25-.91l-2.39-4-6-9.91C105.63,108.8,105.3,108.68,105,108.57Z" style="opacity: 0.550000011920929;isolation: isolate;fill: url(#c)"/>
          <path d="M102.76,107.92,110,120l3.39,5.64c.11-.28.22-.55.31-.82l-3.11-5.17-6.88-11.44Z" style="opacity: 0.550000011920929;isolation: isolate;fill: url(#d)"/>
          <path d="M100.64,107.42l0,.08,8,13.28,4,6.58.17-.35.18-.41-3.71-6.17-7.71-12.8C101.26,107.55,101,107.48,100.64,107.42Z" style="opacity: 0.550000011920929;isolation: isolate;fill: url(#e)"/>
          <path d="M98.59,107l.78,1.3,8,13.28,4.45,7.39c.13-.23.25-.46.37-.7l-4.23-7-8-13.29-.46-.76Z" style="opacity: 0.550000011920929;isolation: isolate;fill: url(#f)"/>
          <path d="M96.56,106.65,98,109.1l8,13.28,4.87,8.09c.14-.21.27-.43.41-.65L106.62,122l-8-13.29-1.17-1.94Z" style="opacity: 0.550000011920929;isolation: isolate;fill: url(#g)"/>
          <path d="M94.57,106.35l2.14,3.55,8,13.28,5.24,8.7.43-.61-5.08-8.44-8-13.29-1.85-3.06Z" style="opacity: 0.550000011920929;isolation: isolate;fill: url(#h)"/>
          <path d="M92.6,106.07l2.78,4.62,8,13.29,5.56,9.24.45-.59-5.42-9-8-13.29-2.5-4.15Z" style="opacity: 0.550000011920929;isolation: isolate;fill: url(#i)"/>
          <path d="M90.63,105.81l3.42,5.68,8,13.29,5.85,9.72c.16-.18.31-.37.47-.56l-5.73-9.51-8-13.29-3.14-5.21Z" style="opacity: 0.550000011920929;isolation: isolate;fill: url(#j)"/>
          <path d="M88.67,105.56l4,6.73,8,13.29,6.11,10.16c.17-.18.32-.36.48-.55l-6-10-8-13.28-3.77-6.27Z" style="opacity: 0.550000011920929;isolation: isolate;fill: url(#k)"/>
          <path d="M86.71,105.31l4.68,7.79,8,13.28,6.35,10.56.48-.53L100,126l-8-13.29-4.4-7.32Z" style="opacity: 0.550000011920929;isolation: isolate;fill: url(#l)"/>
          <path d="M84.73,105l5.33,8.86,8,13.29,6.58,10.94.49-.52-6.48-10.77-8-13.29-5-8.39Z" style="opacity: 0.550000011920929;isolation: isolate;fill: url(#m)"/>
          <path d="M82.73,104.71l6,10,8,13.29,6.8,11.3.49-.51-6.7-11.15-8-13.28-5.7-9.48Z" style="opacity: 0.550000011920929;isolation: isolate;fill: url(#n)"/>
          <path d="M80.68,104.32l6.73,11.17,8,13.29,7,11.65c.15-.14.29-.29.43-.44l.07-.07L96,128.42l-8-13.28-6.4-10.63Z" style="opacity: 0.550000011920929;isolation: isolate;fill: url(#o)"/>
          <path d="M78.56,103.8l7.52,12.49,8,13.29,7.21,12,.5-.5-7.12-11.84-8-13.28-7.15-11.89Z" style="opacity: 0.550000011920929;isolation: isolate;fill: url(#p)"/>
          <path d="M76.25,103l.51.84,8,13.28,8,13.29,7.41,12.31.5-.51L93.33,130l-8-13.28-8-13.29,0,0C76.94,103.26,76.58,103.12,76.25,103Z" style="opacity: 0.550000011920929;isolation: isolate;fill: url(#q)"/>
          <path d="M73.62,101.59l1.81,3,8,13.29,8,13.28L99,143.85c.16-.18.32-.35.49-.52L92,130.82l-8-13.28-8-13.29-1.21-2C74.42,102,74,101.82,73.62,101.59Z" style="opacity: 0.550000011920929;isolation: isolate;fill: url(#r)"/>
          <path d="M70.87,100l3.23,5.36,8,13.29,8,13.28L98,145.09c.15-.19.3-.38.46-.56l-7.76-12.91-8-13.29-8-13.28-2.6-4.31Z" style="opacity: 0.550000011920929;isolation: isolate;fill: url(#s)"/>
          <path d="M68.11,98.45l4.66,7.75,8,13.29,8,13.28,8,13.29.24.4.43-.63-.08-.13-8-13.28-8-13.29-8-13.28-4-6.7Z" style="opacity: 0.550000011920929;isolation: isolate;fill: url(#t)"/>
          <path d="M65.39,96.94l6,10.06,8,13.29,8,13.28,8,13.29.72,1.19c.11-.25.23-.49.36-.74l-.49-.8-8-13.29-8-13.28-8-13.29L66.59,97.6Z" style="opacity: 0.550000011920929;isolation: isolate;fill: url(#u)"/>
          <path d="M62.74,95.55l7.38,12.25,8,13.29,8,13.28,8,13.29,1.46,2.42a8.43,8.43,0,0,1,.19-.9.31.31,0,0,0,0-.08l-1.08-1.8-8-13.28-8-13.29-8-13.28-6.8-11.3Z" style="opacity: 0.550000011920929;isolation: isolate;fill: url(#v)"/>
          <path d="M60.19,94.32l.6,1,8,13.28,8,13.29,8,13.28,8,13.29,2.85,4.73a12.06,12.06,0,0,1-.16-1.59h0l-2.1-3.5-8-13.28-8-13.29-8-13.28L61.38,95l-.07-.12Z" style="opacity: 0.550000011920929;isolation: isolate;fill: url(#w)"/>
          <path d="M57.75,93.26l1.71,2.86,8,13.28,8,13.29,8,13.28,8,13.29L97,158.53c-.2-.83-.46-1.67-.71-2.53L92,148.9l-8-13.28-8-13.29-8-13.28-8-13.29-1.23-2.05Z" style="opacity: 0.550000011920929;isolation: isolate;fill: url(#x)"/>
          <path d="M55.42,92.4l2.72,4.52,8,13.28,8,13.29,8,13.28,8,13.29,7.64,12.7c-.06-.58-.14-1.15-.23-1.72L90.7,149.7l-8-13.28-8-13.29-8-13.28-8-13.29-2.28-3.8Z" style="opacity: 0.550000011920929;isolation: isolate;fill: url(#y)"/>
          <path d="M53.21,91.74l3.6,6,8,13.28,8,13.28,8,13.29,8,13.28,8,13.29,1.14,1.9c0-.46,0-.92,0-1.37h0l-.53-.88-8-13.28-8-13.28-8-13.29-8-13.28-8-13.29L54.18,92Z" style="opacity: 0.550000011920929;isolation: isolate;fill: url(#z)"/>
          <path d="M51.12,91.27l4.36,7.24,8,13.29,8,13.28,8,13.29,8,13.28,8,13.29,2.3,3.82c0-.38.08-.77.1-1.15h0l-1.82-3L88,151.3l-8-13.29-8-13.28-8-13.28-8-13.29-4-6.7Z" style="opacity: 0.550000011920929;isolation: isolate;fill: url(#aa)"/>
          <path d="M49.15,91l5,8.3,8,13.29,8,13.28,8,13.29,8,13.28,8,13.29,3.24,5.38c.07-.33.14-.67.19-1l-2.84-4.73-8-13.28-8-13.29-8-13.28-8-13.29L54.74,99,50,91.1C49.72,91.06,49.44,91,49.15,91Z" style="opacity: 0.550000011920929;isolation: isolate;fill: url(#ab)"/>
          <path d="M47.3,90.93l5.52,9.18,8,13.29,8,13.28,8,13.29,8,13.28,8,13.29,4,6.67c.09-.3.18-.6.26-.9l-3.69-6.13-8-13.28-8-13.29-8-13.28L61.4,113l-8-13.28-5.3-8.82Z" style="opacity: 0.550000011920929;isolation: isolate;fill: url(#ac)"/>
          <path d="M45.56,91.05l5.93,9.86,8,13.29,8,13.28,8,13.29,8,13.28,8,13.29,4.67,7.77.12-.29c.07-.18.13-.36.2-.53L92.05,167l-8-13.28-8-13.29-8-13.28-8-13.29-8-13.28L46.32,91Z" style="opacity: 0.550000011920929;isolation: isolate;fill: url(#ad)"/>
          <path d="M43.94,91.36l6.23,10.35,8,13.29,8,13.28,8,13.29,8,13.28,8,13.29,5.25,8.71c.11-.25.23-.5.34-.76l-5-8.31-8-13.28-8-13.29-8-13.28-8-13.29-8-13.28L44.64,91.2Z" style="opacity: 0.550000011920929;isolation: isolate;fill: url(#ae)"/>
          <path d="M42.42,91.85l6.42,10.66,8,13.29,8,13.28,8,13.29,8,13.28,8,13.29,5.74,9.53c.13-.23.26-.46.38-.7l-5.53-9.19-8-13.28L73.4,142l-8-13.28-8-13.29-8-13.28L43.08,91.61Z" style="opacity: 0.550000011920929;isolation: isolate;fill: url(#af)"/>
          <path d="M41.62,92.19l-.61.32,6.5,10.8,8,13.29,8,13.28,8,13.29,8,13.28,8,13.29L93.65,180c.13-.22.27-.44.4-.67l-6-10-8-13.28-8-13.29-8-13.28-8-13.29L48.1,103Z" style="opacity: 0.550000011920929;isolation: isolate;fill: url(#ag)"/>
          <path d="M40.27,93l-.57.39,6.48,10.77,8,13.29,8,13.28,8,13.29,8,13.28,8,13.29,6.55,10.88.42-.62-6.39-10.62-8-13.28-8-13.29-8-13.28-8-13.29-8-13.28Z" style="opacity: 0.550000011920929;isolation: isolate;fill: url(#ah)"/>
          <path d="M39,93.88l-.53.46,6.36,10.57,8,13.28,8,13.29,8,13.28,8,13.29,8,13.28,6.88,11.43.44-.58L85.41,171l-8-13.29-8-13.28-8-13.29-8-13.28-8-13.29Z" style="opacity: 0.550000011920929;isolation: isolate;fill: url(#ai)"/>
          <path d="M37.86,95q-.24.25-.48.54l6.14,10.2,8,13.28,8,13.29,8,13.28,8,13.29,8,13.28L90.65,184l.47-.55-7-11.7-8-13.29-8-13.28-8-13.29-8-13.28-8-13.28Z" style="opacity: 0.550000011920929;isolation: isolate;fill: url(#aj)"/>
          <path d="M36.8,96.22l-.44.6,5.83,9.69,8,13.28,8,13.29,8,13.28,8,13.29,8,13.28,7.39,12.29c.17-.17.33-.34.49-.52l-7.29-12.12-8-13.29-8-13.28-8-13.29-8-13.28-8-13.29Z" style="opacity: 0.550000011920929;isolation: isolate;fill: url(#ak)"/>
          <path d="M35.84,97.62c-.14.22-.27.44-.4.67l5.42,9,8,13.28,8,13.29,8,13.28,8,13.29,8,13.28,7.6,12.62.5-.49-7.51-12.48-8-13.29-8-13.28-8-13.29-8-13.28-8-13.29Z" style="opacity: 0.550000011920929;isolation: isolate;fill: url(#al)"/>
          <path d="M35,99.17l-.36.73,4.94,8.21,8,13.28,8,13.29,8,13.28,8,13.29,8,13.28,7.76,12.89.52-.47-7.69-12.77-8-13.29-8-13.28-8-13.29-8-13.28-8-13.29Z" style="opacity: 0.550000011920929;isolation: isolate;fill: url(#am)"/>
          <path d="M34.17,100.87c-.11.26-.21.52-.32.79l4.36,7.24,8,13.29,8,13.29,8,13.28,8,13.28,8,13.29,7.87,13.09c.19-.14.36-.29.54-.43l-7.83-13-8-13.29-8-13.28-8-13.29-8-13.28-8-13.29Z" style="opacity: 0.550000011920929;isolation: isolate;fill: url(#an)"/>
          <path d="M33.47,102.7c-.1.29-.19.57-.28.86l3.69,6.14,8,13.29,8,13.28,8,13.29,8,13.29,8,13.28,8,13.24.56-.41-7.94-13.18-8-13.29-8-13.29-8-13.28-8-13.28-8-13.29Z" style="opacity: 0.550000011920929;isolation: isolate;fill: url(#ao)"/>
          <path d="M32.85,104.68c-.09.31-.17.61-.25.91h0l2.95,4.9,8,13.29,8,13.28,8,13.29,8,13.28,8,13.29,8,13.28,0,0,.57-.38v0l-8-13.29-8-13.28-8-13.29-8-13.28-8-13.29-8-13.28Z" style="opacity: 0.550000011920929;isolation: isolate;fill: url(#ap)"/>
          <path d="M32.29,106.76c-.08.32-.15.63-.23.94h0l2.16,3.6,8,13.29,8,13.28,8,13.29,8,13.28,8,13.29,8,13.28.06.09.58-.36,0-.08-8-13.29-8-13.28-8-13.29-8-13.28-8-13.29-8-13.28Z" style="opacity: 0.550000011920929;isolation: isolate;fill: url(#aq)"/>
          <path d="M31.73,108.84l-.26.89,1.43,2.37,8,13.29,8,13.28,8,13.29,8,13.28,8,13.29,8,13.28,0,.08.6-.34-.06-.09-8-13.29-8-13.28-8-13.29-8-13.28-8-13.29-8-13.28Z" style="opacity: 0.550000011920929;isolation: isolate;fill: url(#ar)"/>
          <path d="M31.13,110.85l-.24.93.68,1.12,8,13.29,8,13.28,8,13.29,8,13.28,8,13.29,8,13.28h0l.61-.32,0,0-8-13.29-8-13.28-8-13.29-8-13.28-8-13.29-8-13.28Z" style="opacity: 0.550000011920929;isolation: isolate;fill: url(#as)"/>
          <path d="M30.59,113c-.08.32-.15.64-.22,1L38.23,127l8,13.28,8,13.29,8,13.28,8,13.29,7.93,13.17.62-.29-8-13.24-8-13.28-8-13.29-8-13.28-8-13.29-8-13.28Z" style="opacity: 0.550000011920929;isolation: isolate;fill: url(#at)"/>
          <path d="M30.1,115.15c-.07.34-.13.68-.19,1l7,11.62,8,13.28,8,13.29,8,13.28,8,13.29,7.81,13,.64-.27-7.87-13.08-8-13.28-8-13.29-8-13.28-8-13.29Z" style="opacity: 0.550000011920929;isolation: isolate;fill: url(#au)"/>
          <path d="M29.7,117.49c-.05.38-.09.75-.13,1.12h0l6,10,8,13.29,8,13.28,8,13.29,8,13.29,7.68,12.76.65-.25-7.74-12.87-8-13.28-8-13.29-8-13.28-8-13.29Z" style="opacity: 0.550000011920929;isolation: isolate;fill: url(#av)"/>
          <path d="M29.47,120.12c0,.45,0,.89,0,1.33l4.77,7.94,8,13.28,8,13.29,8,13.28,8,13.29L73.72,195l.67-.22-7.58-12.61-8-13.28-8-13.29-8-13.28-8-13.29Z" style="opacity: 0.550000011920929;isolation: isolate;fill: url(#aw)"/>
          <path d="M29.62,123.38a18.83,18.83,0,0,0,.38,2h0l2.92,4.84,8,13.29,8,13.28,8,13.29,8,13.28,7.29,12.13.69-.19L65.48,183l-8-13.29-8-13.28-8-13.29-8-13.28Z" style="opacity: 0.550000011920929;isolation: isolate;fill: url(#ax)"/>
          <path d="M32.63,131.38a28.78,28.78,0,0,1,1.65,4.08h0l5.29,8.8,8,13.28,8,13.29,8,13.28,7,11.71.7-.16-7.16-11.9-8-13.29-8-13.28-8-13.29Z" style="opacity: 0.550000011920929;isolation: isolate;fill: url(#ay)"/>
          <path d="M35.11,138.5q.21,1,.39,2l2.75,4.59,8,13.28,8,13.29,8,13.28L69,196.15l.72-.13-6.89-11.45-8-13.29-8-13.28-8-13.29Z" style="opacity: 0.550000011920929;isolation: isolate;fill: url(#az)"/>
          <path d="M35.82,142.7c.07.54.13,1.08.18,1.63h0l.92,1.54,8,13.28,8,13.29,8,13.28,6.42,10.67c.25,0,.5-.06.75-.09l-6.58-10.93-8-13.29-8-13.28-8-13.29Z" style="opacity: 0.550000011920929;isolation: isolate;fill: url(#ba)"/>
          <path d="M36.16,146.27l.09,1.48L43.59,160l8,13.29,8,13.28,6,10c.26,0,.51,0,.77-.06l-6.22-10.32-8-13.29-8-13.28-8-13.29Z" style="opacity: 0.550000011920929;isolation: isolate;fill: url(#bb)"/>
          <path d="M36.33,149.56c0,.46,0,.93,0,1.41l5.89,9.78,8,13.29,8,13.28,5.59,9.3.79,0L58.84,187l-8-13.29-8-13.28Z" style="opacity: 0.550000011920929;isolation: isolate;fill: url(#bc)"/>
          <path d="M36.42,152.72l0,1.39,4.48,7.44,8,13.29,8,13.28L62,196.57l.82,0-5.32-8.84-8-13.29-8-13.28Z" style="opacity: 0.550000011920929;isolation: isolate;fill: url(#bd)"/>
          <path d="M36.5,155.85c0,.47,0,.93,0,1.4h0l3.07,5.1,8,13.29,8,13.28,4.5,7.48.86.09-4.77-7.92-8-13.29-8-13.28Z" style="opacity: 0.550000011920929;isolation: isolate;fill: url(#be)"/>
          <path d="M36.6,159c0,.48,0,1,.07,1.45h0l1.61,2.66,8,13.28,8,13.29,3.81,6.33.91.17-4.13-6.86-8-13.28-8-13.29Z" style="opacity: 0.550000011920929;isolation: isolate;fill: url(#bf)"/>
          <path d="M36.8,162.36c0,.52.08,1,.13,1.55h0l0,0,8,13.28,8,13.29,3,5,1,.28-3.37-5.59-8-13.29-8-13.28Z" style="opacity: 0.550000011920929;isolation: isolate;fill: url(#bg)"/>
          <path d="M37.14,165.94c.07.57.14,1.14.22,1.7h0L43.61,178l8,13.29,2,3.3c.35.15.7.29,1.06.42L52.19,191l-8-13.28Z" style="opacity: 0.550000011920929;isolation: isolate;fill: url(#bh)"/>
          <path d="M37.72,169.91c.11.65.23,1.3.37,1.94h0l4.19,7,8,13.29.69,1.14h0c.39.23.8.46,1.21.67l-1.31-2.18-8-13.28Z" style="opacity: 0.550000011920929;isolation: isolate;fill: url(#bi)"/>
          <path d="M38.72,174.58c.22.86.47,1.71.73,2.55l1.5,2.5,6.76,11.23a19.34,19.34,0,0,0,1.57,1.27l-7.74-12.85Z" style="opacity: 0.550000011920929;isolation: isolate;fill: url(#bj)"/>
          <path d="M41.2,181.71a29.49,29.49,0,0,0,3.71,6.16Z" style="opacity: 0.550000011920929;isolation: isolate;fill: url(#bk)"/>
        </g>
        <path d="M-18.34,74.16a10.19,10.19,0,0,0,5.17-2.87A10.15,10.15,0,0,0-10.46,66a10.19,10.19,0,0,0-.67-5.87,10.15,10.15,0,0,0-3.81-4.51A10.13,10.13,0,0,0-20.62,54a10.09,10.09,0,0,0-5.63,1.8,10.12,10.12,0,0,0-3.68,4.62,10.14,10.14,0,0,0-.5,5.89A10.23,10.23,0,0,0-26,72.75,10.23,10.23,0,0,0-18.34,74.16Zm-4.09-19.1a9.4,9.4,0,0,1,5.4.45,9.41,9.41,0,0,1,4.25,3.38,9.3,9.3,0,0,1,1.65,5.17,9.36,9.36,0,0,1-1.49,5.22,9.45,9.45,0,0,1-4.15,3.51,9.38,9.38,0,0,1-5.39.61A9.27,9.27,0,0,1-27,70.91a9.35,9.35,0,0,1-2.63-4.75,9.36,9.36,0,0,1,1.29-7A9.4,9.4,0,0,1-22.43,55.06Z" style="fill: url(#bl)"/>
        <path d="M-16,83.68h0a18.77,18.77,0,0,0,4.24-1.5,19.07,19.07,0,0,0,6.23-4.9.38.38,0,0,0,.09-.15.88.88,0,0,0,0-.17.75.75,0,0,0,0-.16.76.76,0,0,0-.11-.14.53.53,0,0,0-.15-.08.47.47,0,0,0-.17,0l-.16,0a.49.49,0,0,0-.14.11A17.48,17.48,0,0,1-8.47,79a18,18,0,0,1-7.76,3.86h0a.48.48,0,0,0-.27.19.44.44,0,0,0-.07.33h0a.4.4,0,0,0,.19.28A.46.46,0,0,0-16,83.68Zm-8.08,0a.48.48,0,0,0,.22-.12.39.39,0,0,0,.11-.22.32.32,0,0,0,0-.17.33.33,0,0,0-.07-.16.43.43,0,0,0-.11-.12.46.46,0,0,0-.16-.07,18,18,0,0,1-10-6h0a.5.5,0,0,0-.19-.13.45.45,0,0,0-.23,0,.42.42,0,0,0-.2.1.5.5,0,0,0-.13.19.41.41,0,0,0,0,.22.4.4,0,0,0,.09.2A19.08,19.08,0,0,0-24.31,83.7Zm22-13.44a.45.45,0,0,0,.21-.12.37.37,0,0,0,.12-.2,19.14,19.14,0,0,0-.82-12.25.49.49,0,0,0-.24-.23.4.4,0,0,0-.34,0,.42.42,0,0,0-.14.09.42.42,0,0,0-.09.14.35.35,0,0,0,0,.17.47.47,0,0,0,0,.17,18.25,18.25,0,0,1,.79,11.69.44.44,0,0,0,0,.2.53.53,0,0,0,.11.21.45.45,0,0,0,.21.12.44.44,0,0,0,.2,0Zm-34.19,4.55a.29.29,0,0,0,.13,0,.41.41,0,0,0,.2-.26.42.42,0,0,0,0-.33,18.15,18.15,0,0,1-2.29-11.49.46.46,0,0,0-.09-.32.48.48,0,0,0-.29-.17h-.15a.41.41,0,0,0-.23.13.44.44,0,0,0-.11.24,19.1,19.1,0,0,0,2.4,12,.49.49,0,0,0,.2.18A.5.5,0,0,0-36.29,74.81ZM-7.56,51.68a.44.44,0,0,0,.16-.06.49.49,0,0,0,.12-.13.39.39,0,0,0,.06-.15.54.54,0,0,0,0-.18.49.49,0,0,0-.13-.23A19.12,19.12,0,0,0-18.59,46h-.13a.42.42,0,0,0-.26.16.41.41,0,0,0-.09.3.45.45,0,0,0,.12.27.41.41,0,0,0,.28.13,18.34,18.34,0,0,1,10.73,4.7.4.4,0,0,0,.18.1A.34.34,0,0,0-7.56,51.68Zm-28.33,3.78a.33.33,0,0,0,.16-.07.34.34,0,0,0,.12-.12,18.35,18.35,0,0,1,9.12-7.35.38.38,0,0,0,.23-.2.4.4,0,0,0,.05-.3.14.14,0,0,0,0-.06.4.4,0,0,0-.22-.24.45.45,0,0,0-.34,0,19.18,19.18,0,0,0-9.56,7.7.42.42,0,0,0-.07.24.41.41,0,0,0,.08.24.45.45,0,0,0,.2.16A.43.43,0,0,0-35.89,55.46Z" style="fill: url(#bm)"/>
        <path d="M9.08,32.37c.64-1.07,5.24-2.38,6.42-3,2.94-1.43,5.88-2.85,8.91-4.09,6.32-2.6,13.42-4.85,20.32-3.77a17.89,17.89,0,0,1,8.6,3.76c5.6,4.58,9.85,9.69,8.23,17.38-1.06,5-4.6,8.28-6.47,12.8-3.54,8.58,1.51,18.92-5.55,26.34-5.17,5.45-13.64,6.06-20.67,4.93A33.18,33.18,0,0,1,10,76.94a29.92,29.92,0,0,1-3.22-4.13C-1.15,60.51,1.85,44.59,9.08,32.37Z" style="fill: url(#bn)"/>
        <path d="M65.47,16.36l3.12,7.27.62,1.45a8.57,8.57,0,0,0,.06-1.6l0-.12-2.48-5.79h0A14.52,14.52,0,0,0,65.47,16.36Z" style="fill: url(#bo)"/>
        <path d="M66.38,13.61l3.12,7.26.62,1.45a10.65,10.65,0,0,0,.06-1.6l-.05-.12-2.48-5.78h0A12,12,0,0,0,66.38,13.61Z" style="fill: url(#bp)"/>
        <path d="M63.05,14.65l4.12,9.59,1.47,3.42c.11-.35.21-.7.29-1L67.8,24l-3.72-8.66C63.75,15.08,63.4,14.86,63.05,14.65Z" style="fill: url(#bq)"/>
        <path d="M60.85,13.46l4.89,11.39,2.09,4.86c.13-.29.26-.58.37-.86l-1.83-4.27L61.81,14C61.5,13.78,61.18,13.62,60.85,13.46Z" style="fill: url(#br)"/>
        <path d="M58.76,12.52l5.56,12.94,2.59,6c.15-.26.28-.51.42-.77L65,25.19,59.68,12.92Z" style="fill: url(#bs)"/>
        <path d="M56.74,11.74l0,.09,6.11,14.24,3,7.06.21-.33.24-.38L63.52,25.8,57.63,12.07Z" style="fill: url(#bt)"/>
        <path d="M54.76,11.05l.59,1.39,6.12,14.25,3.4,7.92c.16-.21.32-.42.47-.64L62.1,26.41,56,12.17l-.35-.83Z" style="fill: url(#bu)"/>
        <path d="M52.8,10.43l1.13,2.62L60,27.3,63.77,36l.49-.59L60.67,27,54.56,12.78l-.9-2.08C53.38,10.6,53.09,10.52,52.8,10.43Z" style="fill: url(#bv)"/>
        <path d="M50.87,9.85l1.63,3.81,6.12,14.25,4,9.33c.18-.18.35-.37.51-.55l-3.88-9L53.13,13.39,51.72,10.1Z" style="fill: url(#bw)"/>
        <path d="M49,9.31l2.13,5,6.11,14.25,4.26,9.91c.17-.17.35-.34.52-.52l-4.15-9.66L51.71,14,49.8,9.55Z" style="fill: url(#bx)"/>
        <path d="M47,8.79l2.61,6.09,6.12,14.25,4.47,10.43.54-.5L56.4,28.86,50.28,14.61,47.88,9Z" style="fill: url(#by)"/>
        <path d="M45.13,8.28l3.1,7.22,6.11,14.24L59,40.64l.54-.48L55,29.47,48.86,15.22,46,8.5Z" style="fill: url(#bz)"/>
        <path d="M43.22,7.75l3.58,8.36,6.12,14.24,4.86,11.33.55-.46L53.55,30.08,47.43,15.84,44.06,8Z" style="fill: url(#ca)"/>
        <path d="M41.3,7.21l4.08,9.51L51.49,31l5,11.73.56-.45-5-11.55L46,16.45l-3.86-9Z" style="fill: url(#cb)"/>
        <path d="M39.36,6.63,44,17.33l6.11,14.25,5.2,12.12.56-.44L50.7,31.31,44.59,17.06,40.22,6.89Z" style="fill: url(#cc)"/>
        <path d="M37.39,6l5.14,12,6.12,14.25L54,44.69l.49-.38.07-.06L49.28,31.92,43.16,17.67,38.27,6.27C38,6.17,37.67,6.07,37.39,6Z" style="fill: url(#cd)"/>
        <path d="M35.35,5.16,41.1,18.55,47.22,32.8l5.51,12.85.57-.42-5.45-12.7L41.73,18.28,36.26,5.54Z" style="fill: url(#ce)"/>
        <path d="M33.18,4l.38.9,6.12,14.25,6.11,14.24,5.67,13.2.57-.43-5.6-13L40.31,18.89,34.19,4.65l0-.06A11.26,11.26,0,0,1,33.18,4Z" style="fill: url(#cf)"/>
        <path d="M30.75,2.3l1.39,3.23,6.11,14.25L44.37,34l5.84,13.6.55-.46L45,33.75,38.89,19.51,32.77,5.26,31.84,3.1Z" style="fill: url(#cg)"/>
        <path d="M28.24.39l2.47,5.75,6.12,14.25L43,34.64,49,48.7l.54-.49L43.58,34.37,37.46,20.12,31.35,5.87l-2-4.62Z" style="fill: url(#ch)"/>
        <path d="M25.72-1.56l3.57,8.31L35.41,21l6.11,14.25L47.64,49.5l.18.43c.16-.2.33-.38.51-.57l-.06-.13L42.15,35,36,20.73,29.92,6.48,26.84-.7Z" style="fill: url(#ci)"/>
        <path d="M23.23-3.42,27.86,7.36,34,21.61,40.1,35.86l6.11,14.25.55,1.27a7.38,7.38,0,0,1,.46-.68l-.38-.86L40.73,35.59,34.61,21.34,28.5,7.09l-4.17-9.7Z" style="fill: url(#cj)"/>
        <path d="M20.8-5.16,26.44,8l6.12,14.24,6.11,14.25,6.12,14.25,1.11,2.6a8.14,8.14,0,0,1,.31-.87s0-.05,0-.08l-.83-1.92L39.3,36.2,33.19,22,27.07,7.71,21.87-4.41C21.51-4.67,21.16-4.92,20.8-5.16Z" style="fill: url(#ck)"/>
        <path d="M18.44-6.73l.46,1.07L25,8.59l6.11,14.24,6.12,14.25,6.11,14.25,2.18,5.08a12.16,12.16,0,0,1,.07-1.6h0L44,51.06,37.88,36.81,31.76,22.56,25.65,8.32,19.53-5.93l-.05-.13Z" style="fill: url(#cl)"/>
        <path d="M16.16-8.11,17.47-5,23.59,9.2l6.12,14.25,6.11,14.24,6.12,14.25,4.26,9.94c-.09-.84-.23-1.71-.36-2.6l-3.27-7.61L36.45,37.42,30.34,23.18,24.22,8.93,18.1-5.32l-.94-2.2Z" style="fill: url(#cm)"/>
        <path d="M14-9.27l2.08,4.84L22.17,9.81l6.11,14.25L34.4,38.31l6.11,14.24,5.85,13.63c0-.58,0-1.16,0-1.74L41.15,52.28,35,38,28.91,23.79,22.8,9.54,16.68-4.71,14.93-8.78Z" style="fill: url(#cn)"/>
        <path d="M11.87-10.23l2.75,6.41,6.12,14.24,6.12,14.25L33,38.92l6.12,14.24,6.12,14.25.87,2c.07-.45.12-.9.16-1.36h0l-.4-.94L39.72,52.89,33.6,38.65,27.49,24.4,21.37,10.15,15.26-4.1,12.79-9.83C12.49-10,12.18-10.11,11.87-10.23Z" style="fill: url(#co)"/>
        <path d="M9.87-11,13.2-3.21,19.32,11l6.11,14.24,6.12,14.25,6.12,14.25L43.78,68l1.76,4.1c.1-.37.19-.75.26-1.13h0l-1.39-3.24L38.3,53.51,32.18,39.26,26.06,25,20,10.76,13.83-3.48l-3.08-7.19Z" style="fill: url(#cp)"/>
        <path d="M8-11.51,11.77-2.6l6.12,14.24L24,25.89l6.11,14.25,6.12,14.25,6.11,14.24,2.48,5.77c.12-.32.23-.64.33-1L43,68.36,36.87,54.12,30.75,39.87,24.64,25.62,18.52,11.37,12.4-2.87,8.79-11.3Z" style="fill: url(#cq)"/>
        <path d="M6.12-11.83,10.35-2l6.12,14.25,6.11,14.25L28.7,40.75,34.81,55l6.12,14.25L44,76.41c.14-.29.26-.57.38-.86L41.56,69,35.45,54.73,29.33,40.48,23.21,26.23,17.1,12,11-2.26,6.92-11.71C6.66-11.76,6.39-11.8,6.12-11.83Z" style="fill: url(#cr)"/>
        <path d="M4.39-11.95,8.92-1.38,15,12.87l6.12,14.25,6.11,14.24,6.12,14.25,6.12,14.25,3.57,8.33.16-.27.26-.5-3.36-7.83L34,55.34,27.91,41.09,21.79,26.84,15.67,12.6,9.56-1.65,5.15-11.92Z" style="fill: url(#cs)"/>
        <path d="M2.73-11.87,7.5-.77l6.12,14.25,6.11,14.25L25.85,42,32,56.22l6.11,14.25,4,9.34c.16-.23.3-.46.45-.7L38.71,70.2,32.6,56,26.48,41.7,20.37,27.46,14.25,13.21,8.13-1,3.46-11.93Z" style="fill: url(#ct)"/>
        <path d="M1.17-11.59,6.08-.15l6.11,14.24,6.12,14.25,6.11,14.25,6.12,14.24,6.12,14.25,4.39,10.23c.16-.21.31-.43.47-.65l-4.23-9.85L31.17,56.56,25.06,42.32,18.94,28.07,12.82,13.82,6.71-.42,1.85-11.74C1.62-11.7,1.39-11.65,1.17-11.59Z" style="fill: url(#cu)"/>
        <path d="M.33-11.36l-.65.23L4.65.46l6.12,14.25L16.88,29,23,43.2l6.12,14.25,6.11,14.24L40,82.7l.49-.6L35.86,71.42,29.75,57.18,23.63,42.93,17.52,28.68,11.4,14.43,5.28.19Z" style="fill: url(#cv)"/>
        <path d="M-1.11-10.79l-.62.31,5,11.55L9.34,15.32l6.12,14.24,6.12,14.25,6.11,14.25L33.81,72.3l5,11.68.51-.56L34.44,72,28.32,57.79,22.21,43.54,16.09,29.29,10,15.05,3.86.8Z" style="fill: url(#cw)"/>
        <path d="M-2.48-10c-.2.12-.39.25-.58.39L1.8,1.68,7.92,15.93,14,30.18l6.12,14.24,6.12,14.25,6.11,14.25,5.26,12.25c.18-.17.36-.34.53-.52L33,72.64,26.9,58.4,20.78,44.15,14.67,29.9,8.55,15.66,2.43,1.41Z" style="fill: url(#cx)"/>
        <path d="M-3.77-9.11c-.19.14-.37.3-.55.46L.38,2.29,6.49,16.54l6.12,14.25L18.73,45l6.11,14.25L31,73.53l5.48,12.76L37,85.8,31.59,73.26,25.47,59,19.36,44.76,13.24,30.52,7.12,16.27,1,2Z" style="fill: url(#cy)"/>
        <path d="M-5-8l-.52.54L-1,2.9,5.07,17.15,11.19,31.4,17.3,45.65l6.12,14.24,6.11,14.25,5.66,13.18.56-.45-5.58-13L24.05,59.62,17.93,45.37,11.82,31.13,5.7,16.88-.42,2.63Z" style="fill: url(#cz)"/>
        <path d="M-6.14-6.76q-.24.28-.48.6l4.15,9.67L3.64,17.76,9.76,32l6.12,14.25L22,60.5l6.12,14.25,5.81,13.54.57-.42L28.74,74.48,22.62,60.23,16.51,46,10.39,31.74,4.28,17.49-1.84,3.24Z" style="fill: url(#da)"/>
        <path d="M-7.22-5.35l-.45.68,3.77,8.8L2.22,18.37,8.34,32.62l6.11,14.25,6.12,14.24,6.11,14.25,5.94,13.82.58-.39-5.88-13.7L21.2,60.84,15.08,46.6,9,32.35,2.85,18.1-3.27,3.86Z" style="fill: url(#db)"/>
        <path d="M-8.23-3.77-8.66-3l3.34,7.77L.8,19,6.91,33.23,13,47.48l6.11,14.25L25.26,76l6,14c.2-.11.39-.23.59-.36l-6-14L19.77,61.46,13.66,47.21,7.54,33,1.43,18.71-4.69,4.47Z" style="fill: url(#dc)"/>
        <path d="M-9.17-2c-.14.27-.27.54-.4.81l2.82,6.59L-.63,19.6,5.49,33.85,11.6,48.09l6.12,14.25,6.11,14.25,6.1,14.2.61-.34L24.47,76.31,18.35,62.07,12.23,47.82,6.12,33.57,0,19.33-6.11,5.08Z" style="fill: url(#dd)"/>
        <path d="M-10.06-.17l-.37.87h0L-8.17,6-2,20.21,4.06,34.46,10.18,48.7,16.29,63,22.41,77.2l6.12,14.24,0,.06.61-.31v0L23,76.93,16.92,62.68,10.81,48.43,4.69,34.19-1.42,19.94-7.54,5.69Z" style="fill: url(#de)"/>
        <path d="M-10.89,1.81l-.36.9h0l1.66,3.86,6.11,14.25L2.64,35.07,8.75,49.32l6.12,14.24L21,77.81,27.1,92.06l0,.09.63-.28,0-.08L21.62,77.54,15.5,63.29,9.39,49,3.27,34.8-2.85,20.55-9,6.3Z" style="fill: url(#df)"/>
        <path d="M-11.73,3.79l-.38.85L-11,7.18-4.9,21.43,1.21,35.68,7.33,49.93l6.11,14.24,6.12,14.25,6.12,14.25,0,.08.64-.26,0-.09L20.19,78.15,14.08,63.9,8,49.66,1.84,35.41-4.27,21.16-10.39,6.91Z" style="fill: url(#dg)"/>
        <path d="M-12.59,5.71l-.37.88.51,1.21L-6.33,22-.21,36.29,5.9,50.54,12,64.78,18.13,79l6.12,14.25h0l.65-.23,0,0L18.77,78.76,12.65,64.51,6.53,50.27.42,36-5.7,21.77-11.81,7.53Z" style="fill: url(#dh)"/>
        <path d="M-13.42,7.72c-.12.31-.24.61-.35.92l6,14L-1.64,36.9,4.48,51.15,10.6,65.4l6.11,14.24,6.06,14.13.66-.21L17.34,79.37,11.23,65.12,5.11,50.88-1,36.63-7.12,22.38-13.24,8.14Z" style="fill: url(#di)"/>
        <path d="M-14.2,9.82c-.12.33-.22.66-.33,1l5.35,12.47,6.12,14.24L3.05,51.76,9.17,66l6.12,14.24,6,13.94.67-.18-6-14L9.8,65.74,3.69,51.49-2.43,37.24-8.55,23Z" style="fill: url(#dj)"/>
        <path d="M-14.91,12.09c-.11.37-.2.73-.28,1.09h0l4.59,10.7,6.11,14.25L1.63,52.37,7.75,66.62l6.11,14.25,5.88,13.68.68-.15L14.49,80.6,8.38,66.35,2.26,52.1-3.86,37.85-10,23.61Z" style="fill: url(#dk)"/>
        <path d="M-15.5,14.67c-.07.44-.13.87-.18,1.31L-12,24.49l6.12,14.25L.2,53,6.32,67.23l6.12,14.25,5.74,13.38.69-.13-5.8-13.52L7,67,.84,52.71-5.28,38.47-11.4,24.22Z" style="fill: url(#dl)"/>
        <path d="M-15.79,17.91a16.76,16.76,0,0,0,.11,2h0l2.23,5.19,6.11,14.25L-1.22,53.6,4.89,67.84,11,82.09l5.58,13L17.3,95,11.64,81.82,5.53,67.57-.59,53.32-6.71,39.08l-6.11-14.25Z" style="fill: url(#dm)"/>
        <path d="M-13.9,26.25a29.69,29.69,0,0,1,1.09,4.27h0L-8.76,40l6.11,14.25L3.47,68.45,9.59,82.7,15,95.26l.72-.07L10.22,82.43,4.1,68.18-2,53.94-8.13,39.69Z" style="fill: url(#dn)"/>
        <path d="M-12.41,33.64c.05.67.09,1.34.12,2l2.11,4.91,6.11,14.25L2.05,69.07,8.16,83.31l5.17,12c.25,0,.49,0,.74,0L8.79,83,2.68,68.79-3.44,54.55-9.55,40.3Z" style="fill: url(#do)"/>
        <path d="M-12.27,37.9c0,.54,0,1.09-.05,1.64h0l.71,1.64,6.12,14.25L.62,69.68,6.74,83.92l4.91,11.45h.75l-5-11.72L1.25,69.41-4.86,55.16-11,40.91Z" style="fill: url(#dp)"/>
        <path d="M-12.43,41.48c0,.49-.07,1-.11,1.48L-6.92,56-.8,70.29,5.31,84.54,9.93,95.3l.77,0L5.94,84.27-.17,70-6.29,55.77-12.4,41.53Z" style="fill: url(#dq)"/>
        <path d="M-12.7,44.76l-.15,1.4,4.51,10.49L-2.23,70.9,3.89,85.15l4.28,10,.79.09L4.52,84.88-1.6,70.63-7.71,56.38Z" style="fill: url(#dr)"/>
        <path d="M-13,47.9c-.05.46-.1.92-.16,1.38l3.43,8,6.12,14.25L2.46,85.76l3.9,9.07.81.14L3.1,85.49-3,71.24-9.14,57Z" style="fill: url(#ds)"/>
        <path d="M-13.39,51l-.15,1.39h0l2.35,5.47,6.11,14.24L1,86.37l3.44,8c.28.07.56.15.84.21L1.67,86.1-4.44,71.85l-6.12-14.24Z" style="fill: url(#dt)"/>
        <path d="M-13.72,54.18c0,.48-.09,1-.12,1.45h0l1.22,2.86L-6.5,72.74-.39,87l2.92,6.79q.44.17.87.3L.25,86.71-5.87,72.47-12,58.22Z" style="fill: url(#du)"/>
        <path d="M-14,57.51c0,.52-.06,1-.08,1.55h0l0,0,6.11,14.25L-1.81,87.6.47,92.92c.31.14.61.28.93.41l-2.58-6L-7.3,73.08l-6.11-14.25Z" style="fill: url(#dv)"/>
        <path d="M-14.12,61.1c0,.57,0,1.14,0,1.71h0L-9.35,74l6.11,14.25,1.52,3.53c.33.2.66.39,1,.57L-2.6,87.93-8.72,73.69Z" style="fill: url(#dw)"/>
        <path d="M-14.09,65.11c0,.66.06,1.32.1,2h0l3.22,7.48,6.11,14.25.53,1.23h0q.54.44,1.11.84l-1-2.34L-10.14,74.3Z" style="fill: url(#dx)"/>
        <path d="M-13.73,69.88c.1.88.23,1.76.38,2.62l1.15,2.68,5.17,12A19.19,19.19,0,0,0-5.65,88.7l-5.92-13.79Z" style="fill: url(#dy)"/>
        <path d="M-12.24,77.27A29.19,29.19,0,0,0-9.4,83.89Z" style="fill: url(#dz)"/>
        <path d="M4,12.07l-.23-.15c-1.88-1.18-5-.44-7-.16a5.06,5.06,0,0,0-2.35.79,2,2,0,0,0-.77,2.19,2.54,2.54,0,0,0,1,1,10.77,10.77,0,0,0,4.9,1.54,6.74,6.74,0,0,0,4-.56A2.81,2.81,0,0,0,4,12.07Z" style="fill: url(#ea)"/>
        <path d="M41.78,16.31A2.59,2.59,0,0,0,39,12a2.59,2.59,0,0,0-1.29,1.28,2.59,2.59,0,0,0,1,3.26,2.56,2.56,0,0,0,1.77.38A2.5,2.5,0,0,0,41.78,16.31Zm-3.06-3.56A2,2,0,0,1,40,12.24a2.1,2.1,0,0,1,2.11,1.48,2.08,2.08,0,0,1,0,1.37,2.1,2.1,0,0,1-3.43.77A2.09,2.09,0,0,1,38,14.64h0a2.06,2.06,0,0,1,.12-1A2,2,0,0,1,38.72,12.75Z" style="fill: url(#eb)"/>
        <path d="M-31.7,45.92a.26.26,0,0,0,.07-.11.33.33,0,0,0,0-.14l-1-3.78a.25.25,0,0,0-.11-.15.32.32,0,0,0-.19,0,.29.29,0,0,0-.15.12.22.22,0,0,0,0,.18l1,3.79a.21.21,0,0,0,.06.1.41.41,0,0,0,.11.07h.12A.27.27,0,0,0-31.7,45.92Z" style="fill: url(#ec)"/>
        <path d="M-30.32,43.52a.29.29,0,0,0,.08-.14.22.22,0,0,0,0-.16.2.2,0,0,0-.11-.11.22.22,0,0,0-.16,0l-3.79,1a.24.24,0,0,0-.15.11.25.25,0,0,0,0,.19.26.26,0,0,0,.11.14.25.25,0,0,0,.19,0l3.78-1A.31.31,0,0,0-30.32,43.52Z" style="fill: url(#ed)"/>
        <path d="M24.33,7a.24.24,0,0,0,.09-.16.34.34,0,0,0-.05-.17L22.63,4.42a.25.25,0,0,0-.22-.1.33.33,0,0,0-.12,0,.39.39,0,0,0-.08.1L21.13,7.1a.3.3,0,0,0,0,.13.37.37,0,0,0,.05.11.25.25,0,0,0,.1.08.27.27,0,0,0,.13,0l2.82-.38A.27.27,0,0,0,24.33,7ZM22.5,5.05l1.22,1.58-2,.27Z" style="fill: url(#ee)"/>
        <path d="M41.21-2a.18.18,0,0,0,0-.07.19.19,0,0,0,0-.07.11.11,0,0,0,0-.08.1.1,0,0,0,0-.07l-.87-1-.06-.05-.08,0h-.08l-.07,0a.15.15,0,0,0,0,.06.19.19,0,0,0,0,.08.22.22,0,0,0,0,.08.25.25,0,0,0,0,.07l.87,1a.23.23,0,0,0,.14.08A.25.25,0,0,0,41.21-2Z" style="fill: url(#ef)"/>
        <path d="M43.61.77l0-.06a.24.24,0,0,0,0-.08.19.19,0,0,0,0-.08.16.16,0,0,0,0-.07L42.71-.59a.21.21,0,0,0-.14-.07.21.21,0,0,0-.15.05.21.21,0,0,0-.07.14.21.21,0,0,0,0,.15L43.32.75a.21.21,0,0,0,.14.07A.27.27,0,0,0,43.61.77Z" style="fill: url(#eg)"/>
        <path d="M40.07.5l1.12-1a.17.17,0,0,0,.07-.14.21.21,0,0,0,0-.15.21.21,0,0,0-.14-.07.27.27,0,0,0-.15,0L39.8.19a.27.27,0,0,0-.07.14.25.25,0,0,0,.05.15.21.21,0,0,0,.14.07A.17.17,0,0,0,40.07.5Z" style="fill: url(#eh)"/>
        <path d="M42.8-1.85l1.07-.92a.17.17,0,0,0,.07-.14.18.18,0,0,0,0-.15.21.21,0,0,0-.14-.07.3.3,0,0,0-.15,0l-1.06.92a.23.23,0,0,0-.08.14.25.25,0,0,0,0,.15.21.21,0,0,0,.14.07A.17.17,0,0,0,42.8-1.85Z" style="fill: url(#ei)"/>
        <path d="M41.78,1.37l0-.06a.26.26,0,0,0,0-.08L42-.18a.21.21,0,0,0-.05-.15.21.21,0,0,0-.14-.07.27.27,0,0,0-.15.05.27.27,0,0,0-.07.14l-.1,1.41a.14.14,0,0,0,0,.11.2.2,0,0,0,.09.09l.12,0Z" style="fill: url(#ej)"/>
        <path d="M42.06-2.29a.18.18,0,0,0,0-.07.19.19,0,0,0,0-.07l.1-1.34a.2.2,0,0,0,0-.15A.19.19,0,0,0,42-4a.17.17,0,0,0-.15.05.17.17,0,0,0-.07.14l-.1,1.34a.2.2,0,0,0,0,.11.15.15,0,0,0,.08.08.27.27,0,0,0,.12,0Z" style="fill: url(#ek)"/>
        <path d="M44.47-.94a.61.61,0,0,0,.07-.1.16.16,0,0,0,0-.12.14.14,0,0,0-.07-.1.15.15,0,0,0-.11,0L43-1.41a.2.2,0,0,0-.15,0,.19.19,0,0,0-.07.14.17.17,0,0,0,.05.15.17.17,0,0,0,.14.07l1.4.11h.08Z" style="fill: url(#el)"/>
        <path d="M40.88-1.21a.21.21,0,0,0,.06-.1.24.24,0,0,0,0-.12.23.23,0,0,0-.07-.1.21.21,0,0,0-.11,0l-1.41-.11a.24.24,0,0,0-.14.05.23.23,0,0,0-.08.14.25.25,0,0,0,0,.15.21.21,0,0,0,.14.07l1.41.11h.08Z" style="fill: url(#em)"/>
        <path d="M22.89,103.3a2.58,2.58,0,1,0-1.32.6A2.57,2.57,0,0,0,22.89,103.3Zm-3.06-3.57a2.13,2.13,0,0,1,1.27-.51,2.11,2.11,0,0,1,1.21,3.9,2,2,0,0,1-1.33.3,2.08,2.08,0,0,1-1.24-.58,2,2,0,0,1-.62-1.21h0a2.16,2.16,0,0,1,.11-1A2.1,2.1,0,0,1,19.83,99.73Z" style="fill: url(#en)"/>
        <path d="M33.27,101.1l0,0a.09.09,0,0,0,0,0s0,0,0,0,0,0,0,0l-.53-.61a.09.09,0,0,0-.08,0,.08.08,0,0,0-.09,0,.14.14,0,0,0-.05.08.14.14,0,0,0,0,.09l.53.61a.09.09,0,0,0,.08,0A.09.09,0,0,0,33.27,101.1Z" style="fill: url(#eo)"/>
        <path d="M34.71,102.78l0,0a.09.09,0,0,0,0,0v0l0,0-.55-.64a.12.12,0,0,0-.17,0,.14.14,0,0,0,0,.08.14.14,0,0,0,0,.09l.56.64a.09.09,0,0,0,.08,0A.1.1,0,0,0,34.71,102.78Z" style="fill: url(#ep)"/>
        <path d="M32.59,102.61l.67-.57a.15.15,0,0,0,0-.09.16.16,0,0,0,0-.09.12.12,0,0,0-.08,0,.14.14,0,0,0-.09,0l-.67.58a.14.14,0,0,0,0,.08.14.14,0,0,0,0,.09.12.12,0,0,0,.09,0A.09.09,0,0,0,32.59,102.61Z" style="fill: url(#eq)"/>
        <path d="M34.23,101.2l.64-.55a.12.12,0,0,0,0-.08.14.14,0,0,0,0-.09.09.09,0,0,0-.08,0,.08.08,0,0,0-.09,0l-.64.55a.14.14,0,0,0,0,.08.14.14,0,0,0,0,.09.1.1,0,0,0,.09,0A.09.09,0,0,0,34.23,101.2Z" style="fill: url(#er)"/>
        <path d="M33.62,103.13l0,0s0,0,0,0l.06-.85a.16.16,0,0,0,0-.09.12.12,0,0,0-.08,0,.14.14,0,0,0-.09,0,.1.1,0,0,0,0,.09l-.07.84a.19.19,0,0,0,0,.07.12.12,0,0,0,0,.05h.07A.11.11,0,0,0,33.62,103.13Z" style="fill: url(#es)"/>
        <path d="M33.78,100.94l0,0a.09.09,0,0,0,0-.05l.06-.8v0l0,0,0,0h-.1l0,0,0,0a.09.09,0,0,0,0,0l-.06.8a.15.15,0,0,0,0,.07.12.12,0,0,0,0,0s0,0,.07,0Z" style="fill: url(#et)"/>
        <path d="M35.23,101.75a.21.21,0,0,0,0-.06.22.22,0,0,0,0-.08.07.07,0,0,0,0,0,.09.09,0,0,0-.06,0l-.85-.06a.09.09,0,0,0-.09,0,.12.12,0,0,0,0,.08.16.16,0,0,0,0,.09.12.12,0,0,0,.08,0l.85.07h0Z" style="fill: url(#eu)"/>
        <path d="M33.07,101.58a.09.09,0,0,0,0-.06.08.08,0,0,0,0-.07.21.21,0,0,0,0-.06l-.07,0-.84-.07h0l0,0,0,0a.09.09,0,0,0,0,0s0,0,0,0,0,0,0,0l0,0h0l.84.06H33Z" style="fill: url(#ev)"/>
        <path d="M3.93,107.51a6.38,6.38,0,0,1-6.07-1.57A8.07,8.07,0,0,1-4.25,100a6.08,6.08,0,0,1,.65-2.91A14.65,14.65,0,0,1-1.89,95,9.16,9.16,0,0,0,.21,90.2c.16-1.41,0-2.84.1-4.26A5.31,5.31,0,0,1,2,82.14a4.57,4.57,0,0,1,2.87-.88,8.36,8.36,0,0,1,6.31,3.39,17,17,0,0,1,2.9,6.74,13.5,13.5,0,0,1,.12,7C13,102.1,8.42,106.54,3.93,107.51Z" style="fill: url(#ew)"/>
        <path d="M5.54,70c5.4-1.54,9.84-4.59,14.35-8.57s9.53-6.55,14.93-9.31c10.34-5.29,20.51-13.4,18-25.16C50.69,17.12,39.39,7.59,27.43,8.42a19.08,19.08,0,0,0-10.52,4.22c-2.28,1.76-3.85,3.79-6.9,3.86-6.35.16-12-4.4-18.58-4.34-5.72.06-9.44,2.91-9.54,8.93-.14,8.29,5.43,16,4.93,24.28C-13.62,52.8-16.39,63.63-9.37,69c2.51,1.91,5.89,2.22,9,2A28.64,28.64,0,0,0,5.54,70Z" style="opacity: 0.4399999976158142;isolation: isolate;fill: url(#ex)"/>
        <path d="M5.88,69c5.4-1.54,9.84-4.59,14.35-8.57s9.53-6.55,14.93-9.32c10.33-5.29,20.5-13.39,18-25.15C51,16.11,39.73,6.58,27.77,7.4a19.15,19.15,0,0,0-10.52,4.22c-2.29,1.77-3.86,3.79-6.9,3.87-6.35.15-12-4.4-18.58-4.34-5.72,0-9.44,2.91-9.54,8.93-.15,8.29,5.42,16,4.93,24.28C-13.28,51.79-16,62.62-9,68c2.51,1.92,5.89,2.23,9,2A29.31,29.31,0,0,0,5.88,69Z" style="fill: url(#ey)"/>
        <path d="M113.61,54.12c.48-1.15,4.85-3.08,6-3.81,2.71-1.83,5.44-3.63,8.26-5.28,5.9-3.44,12.63-6.64,19.61-6.52a17.8,17.8,0,0,1,9,2.54c6.19,3.77,11.1,8.25,10.54,16.09-.36,5.08-3.42,8.83-4.64,13.57-2.33,9,4.09,18.53-1.89,26.85-4.37,6.1-12.68,7.87-19.8,7.72a33.22,33.22,0,0,1-20-7.14,29.48,29.48,0,0,1-3.76-3.65C107.34,83.4,108.12,67.22,113.61,54.12Z" style="fill: url(#ez)"/>
        <g style="opacity: 0.550000011920929">
          <path d="M166.57,47.89l-1.39,7.78-.28,1.55a9,9,0,0,0,.93-1.29l0-.14L167,49.6h0A12.45,12.45,0,0,0,166.57,47.89Z" style="opacity: 0.550000011920929;isolation: isolate;fill: url(#fa)"/>
          <path d="M165.49,45.13,163.65,55.4,163,59.07c.29-.23.56-.47.82-.71l.51-2.84L166,46.25C165.83,45.88,165.67,45.5,165.49,45.13Z" style="opacity: 0.550000011920929;isolation: isolate;fill: url(#fb)"/>
          <path d="M164.3,42.93l-2.18,12.2-.93,5.21c.28-.17.54-.35.8-.52l.81-4.57,2-11.39Q164.58,43.4,164.3,42.93Z" style="opacity: 0.550000011920929;isolation: isolate;fill: url(#fc)"/>
          <path d="M163.07,41,160.6,54.86l-1.16,6.47.78-.42L161.28,55l2.34-13.15C163.45,41.55,163.26,41.28,163.07,41Z" style="opacity: 0.550000011920929;isolation: isolate;fill: url(#fd)"/>
          <path d="M161.82,39.23l0,.09-2.73,15.26-1.35,7.56.36-.16.4-.18,1.27-7.1L162.38,40C162.19,39.74,162,39.48,161.82,39.23Z" style="opacity: 0.550000011920929;isolation: isolate;fill: url(#fe)"/>
          <path d="M160.54,37.56l-.27,1.49-2.72,15.26L156,62.8l.75-.27,1.44-8.1L161,39.17l.16-.88Z" style="opacity: 0.550000011920929;isolation: isolate;fill: url(#ff)"/>
          <path d="M159.25,36l-.5,2.81L156,54l-1.66,9.29.74-.22,1.6-9,2.72-15.26.4-2.23Z" style="opacity: 0.550000011920929;isolation: isolate;fill: url(#fg)"/>
          <path d="M158,34.42l-.73,4.08-2.73,15.26-1.78,10c.24,0,.49-.11.73-.18l1.73-9.69,2.73-15.27.62-3.52Z" style="opacity: 0.550000011920929;isolation: isolate;fill: url(#fh)"/>
          <path d="M156.64,32.92l-.95,5.31L153,53.49l-1.9,10.62.73-.15,1.84-10.35,2.73-15.26.85-4.77Z" style="opacity: 0.550000011920929;isolation: isolate;fill: url(#fi)"/>
          <path d="M155.33,31.43,154.17,38l-2.73,15.26-2,11.17.72-.12,2-10.93,2.72-15.26,1.07-6Z" style="opacity: 0.550000011920929;isolation: isolate;fill: url(#fj)"/>
          <path d="M154,30l-1.38,7.74L149.91,53l-2.08,11.67.71-.1,2.05-11.45,2.73-15.26,1.28-7.2Z" style="opacity: 0.550000011920929;isolation: isolate;fill: url(#fk)"/>
          <path d="M152.71,28.46l-1.6,8.95-2.72,15.27-2.17,12.13.71-.08,2.14-11.93,2.72-15.27,1.5-8.41Z" style="opacity: 0.550000011920929;isolation: isolate;fill: url(#fl)"/>
          <path d="M151.41,27l-1.82,10.18L146.86,52.4,144.62,65l.71-.07,2.21-12.37,2.72-15.27L152,27.63Z" style="opacity: 0.550000011920929;isolation: isolate;fill: url(#fm)"/>
          <path d="M150.11,25.4l-2.05,11.47-2.72,15.26-2.32,13,.71-.07L146,52.25,148.74,37l1.94-10.89Z" style="opacity: 0.550000011920929;isolation: isolate;fill: url(#fn)"/>
          <path d="M148.83,23.76l-2.3,12.84-2.72,15.26-2.39,13.39.61,0h.1L144.49,52l2.72-15.26,2.18-12.22C149.2,24.25,149,24,148.83,23.76Z" style="opacity: 0.550000011920929;isolation: isolate;fill: url(#fo)"/>
          <path d="M147.57,22,145,36.32l-2.73,15.27-2.46,13.76.71,0L143,51.71l2.72-15.27,2.44-13.65C147.93,22.52,147.75,22.24,147.57,22Z" style="opacity: 0.550000011920929;isolation: isolate;fill: url(#fp)"/>
          <path d="M146.38,19.82l-.17,1-2.73,15.26-2.72,15.26-2.53,14.14.71,0,2.49-14,2.73-15.26,2.73-15.26v-.06C146.7,20.5,146.53,20.15,146.38,19.82Z" style="opacity: 0.550000011920929;isolation: isolate;fill: url(#fq)"/>
          <path d="M145.3,17.06l-.62,3.45L142,35.78,139.23,51l-2.6,14.56.71-.07,2.57-14.37,2.72-15.26,2.73-15.26.41-2.32C145.62,17.92,145.46,17.5,145.3,17.06Z" style="opacity: 0.550000011920929;isolation: isolate;fill: url(#fr)"/>
          <path d="M144.26,14.08l-1.11,6.16-2.72,15.27-2.72,15.26L135,65.84l.72-.12,2.65-14.83,2.73-15.26,2.72-15.27.89-4.95C144.57,15,144.41,14.53,144.26,14.08Z" style="opacity: 0.550000011920929;isolation: isolate;fill: url(#fs)"/>
          <path d="M143.22,11.07,141.63,20,138.9,35.23,136.18,50.5l-2.73,15.26-.08.46c.24-.07.48-.14.73-.19l0-.15,2.72-15.26,2.73-15.27,2.73-15.26,1.37-7.69Z" style="opacity: 0.550000011920929;isolation: isolate;fill: url(#ft)"/>
          <path d="M142.17,8.14,140.1,19.7,137.38,35l-2.73,15.26-2.72,15.27-.25,1.37c.25-.12.5-.23.76-.33l.16-.92,2.73-15.27,2.72-15.26,2.73-15.26,1.86-10.4C142.48,9,142.33,8.57,142.17,8.14Z" style="opacity: 0.550000011920929;isolation: isolate;fill: url(#fu)"/>
          <path d="M141.09,5.35l-2.51,14.07-2.73,15.27L133.13,50,130.4,65.21,129.9,68c.24-.2.49-.39.74-.56l.07,0,.37-2.07,2.72-15.26,2.73-15.26,2.72-15.26,2.32-13C141.42,6.16,141.26,5.75,141.09,5.35Z" style="opacity: 0.550000011920929;isolation: isolate;fill: url(#fv)"/>
          <path d="M140,2.74l-.2,1.15-2.73,15.26-2.72,15.27L131.6,49.68l-2.72,15.26-1,5.44a13.33,13.33,0,0,1,.93-1.3h0l.71-4,2.73-15.26L135,34.54l2.73-15.27L140.46,4l0-.14C140.32,3.49,140.15,3.12,140,2.74Z" style="opacity: 0.550000011920929;isolation: isolate;fill: url(#fw)"/>
          <path d="M138.84.34l-.59,3.28-2.73,15.26L132.8,34.14l-2.73,15.27-2.72,15.26-1.9,10.65c.38-.76.74-1.56,1.12-2.37L128,64.79l2.73-15.26,2.73-15.27L136.2,19l2.73-15.26.42-2.36Z" style="opacity: 0.550000011920929;isolation: isolate;fill: url(#fx)"/>
          <path d="M137.65-1.84l-.93,5.18L134,18.61l-2.73,15.26-2.72,15.26-2.73,15.26L123.22,79c.33-.47.65-1,1-1.45l2.33-13,2.72-15.26L132,34l2.73-15.26L137.4,3.46l.78-4.36C138-1.22,137.83-1.53,137.65-1.84Z" style="opacity: 0.550000011920929;isolation: isolate;fill: url(#fy)"/>
          <path d="M136.42-3.79,135.2,3.07l-2.73,15.26L129.75,33.6,127,48.86l-2.73,15.26-2.72,15.27-.39,2.17c.31-.34.6-.69.89-1h0l.18-1L125,64.24,127.7,49l2.72-15.26,2.73-15.27,2.72-15.26L137-3C136.79-3.24,136.61-3.52,136.42-3.79Z" style="opacity: 0.550000011920929;isolation: isolate;fill: url(#fz)"/>
          <path d="M135.16-5.52,133.67,2.8,131,18.06l-2.73,15.26-2.73,15.27-2.72,15.26L120,79.11l-.78,4.4c.29-.27.57-.53.84-.8h0l.62-3.48L123.45,64l2.72-15.26,2.73-15.27,2.72-15.26,2.73-15.26,1.37-7.7C135.54-5,135.35-5.28,135.16-5.52Z" style="opacity: 0.550000011920929;isolation: isolate;fill: url(#ga)"/>
          <path d="M133.85-7l-1.71,9.55-2.72,15.26-2.73,15.26L124,48.31l-2.73,15.27-2.72,15.26L117.41,85c.28-.2.55-.41.81-.62l1-5.44,2.73-15.26,2.72-15.26,2.73-15.27,2.73-15.26,2.72-15.26,1.61-9C134.24-6.6,134.05-6.81,133.85-7Z" style="opacity: 0.550000011920929;isolation: isolate;fill: url(#gb)"/>
          <path d="M132.5-8.29,130.62,2.25l-2.73,15.27-2.72,15.26L122.44,48l-2.72,15.27L117,78.57l-1.37,7.67c.27-.17.53-.33.79-.51l1.26-7,2.72-15.26,2.73-15.27,2.72-15.26,2.73-15.26,2.72-15.27L133.1-7.75A7.7,7.7,0,0,0,132.5-8.29Z" style="opacity: 0.550000011920929;isolation: isolate;fill: url(#gc)"/>
          <path d="M131.12-9.35,129.09,2l-2.72,15.26-2.73,15.27-2.72,15.26L118.19,63l-2.73,15.26-1.59,8.93.28-.14.49-.27,1.5-8.39,2.73-15.27,2.72-15.26,2.73-15.26L127,17.36,129.77,2.1l2-11Z" style="opacity: 0.550000011920929;isolation: isolate;fill: url(#gd)"/>
          <path d="M129.69-10.19l-2.12,11.9L124.84,17l-2.72,15.26L119.39,47.5l-2.73,15.26L113.94,78l-1.79,10,.76-.34,1.7-9.55,2.73-15.26,2.73-15.26,2.72-15.26,2.73-15.27,2.72-15.26,2.09-11.67C130.12-10,129.91-10.08,129.69-10.19Z" style="opacity: 0.550000011920929;isolation: isolate;fill: url(#ge)"/>
          <path d="M128.23-10.82,126,1.44,123.31,16.7,120.59,32l-2.73,15.26-2.72,15.27-2.73,15.26-2,11,.74-.28,1.89-10.56,2.72-15.26,2.73-15.26,2.72-15.27L124,16.82l2.73-15.26,2.16-12.12C128.67-10.66,128.45-10.74,128.23-10.82Z" style="opacity: 0.550000011920929;isolation: isolate;fill: url(#gf)"/>
          <path d="M127.4-11.08l-.67-.17L124.51,1.16l-2.72,15.27-2.73,15.26L116.34,47l-2.73,15.26-2.72,15.27-2.11,11.78.74-.23,2-11.43,2.73-15.26L117,47.07l2.73-15.26,2.72-15.26,2.73-15.27Z" style="opacity: 0.550000011920929;isolation: isolate;fill: url(#gg)"/>
          <path d="M125.88-11.4l-.68-.08L123,.89l-2.73,15.26-2.72,15.27-2.73,15.26-2.73,15.26L109.36,77.2l-2.24,12.51.74-.18L110,77.33l2.72-15.27,2.73-15.26,2.72-15.26,2.73-15.27L123.66,1Z" style="opacity: 0.550000011920929;isolation: isolate;fill: url(#gh)"/>
          <path d="M124.33-11.53h-.7L121.46.62l-2.72,15.26L116,31.14l-2.73,15.27-2.72,15.26-2.73,15.26-2.34,13.13.72-.14,2.3-12.87,2.73-15.26L114,46.53l2.73-15.27L119.41,16,122.14.74Z" style="opacity: 0.550000011920929;isolation: isolate;fill: url(#gi)"/>
          <path d="M122.74-11.46l-.71.08L119.93.34l-2.72,15.27-2.73,15.26-2.72,15.26L109,61.4l-2.72,15.26-2.44,13.67.71-.11L107,76.78l2.73-15.26,2.72-15.26L115.16,31l2.72-15.26L120.61.47Z" style="opacity: 0.550000011920929;isolation: isolate;fill: url(#gj)"/>
          <path d="M121.12-11.22c-.24.05-.48.1-.73.17l-2,11.12-2.73,15.27L113,30.6l-2.73,15.26-2.72,15.26-2.73,15.27-2.52,14.12.71-.07,2.49-13.93,2.72-15.26L110.91,46l2.72-15.26,2.73-15.26L119.08.19Z" style="opacity: 0.550000011920929;isolation: isolate;fill: url(#gk)"/>
          <path d="M119.47-10.8l-.74.24L116.88-.2l-2.72,15.26-2.73,15.27-2.72,15.26L106,60.85l-2.73,15.27-2.59,14.5.71,0,2.56-14.34L106.66,61l2.72-15.26,2.73-15.26,2.72-15.27L117.56-.08Z" style="opacity: 0.550000011920929;isolation: isolate;fill: url(#gl)"/>
          <path d="M117.79-10.21,117-9.9,115.36-.47l-2.73,15.26L109.9,30.05l-2.72,15.27-2.73,15.26-2.72,15.26L99.08,90.65h.7L102.4,76l2.73-15.26,2.73-15.26,2.72-15.27,2.73-15.26L116-.35Z" style="opacity: 0.550000011920929;isolation: isolate;fill: url(#gm)"/>
          <path d="M116.08-9.45l-.77.38L113.83-.75,111.1,14.52l-2.72,15.26-2.73,15.27-2.72,15.26L100.2,75.57l-2.69,15,.7,0,2.67-15,2.72-15.26,2.73-15.26,2.73-15.27,2.72-15.26L114.51-.62Z" style="opacity: 0.550000011920929;isolation: isolate;fill: url(#gn)"/>
          <path d="M114.34-8.53l-.78.46L112.3-1l-2.72,15.27-2.73,15.26-2.72,15.26L101.4,60,98.68,75.3,96,90.51l.69,0,2.7-15.14,2.73-15.26,2.72-15.27,2.73-15.26,2.72-15.26L113-.9Z" style="opacity: 0.550000011920929;isolation: isolate;fill: url(#go)"/>
          <path d="M112.57-7.45l-.79.52h0l-1,5.64L108.05,14l-2.73,15.27L102.6,44.5,99.87,59.76,97.15,75,94.42,90.29v0l.69.09v0l2.72-15.26,2.73-15.27,2.73-15.26L106,29.36l2.73-15.27,2.72-15.26Z" style="opacity: 0.550000011920929;isolation: isolate;fill: url(#gp)"/>
          <path d="M110.79-6.25l-.8.55h0l-.74,4.14L106.53,13.7,103.8,29l-2.73,15.27L98.35,59.49,95.62,74.75,92.9,90l0,.11.68.11v-.09L96.3,74.87,99,59.61l2.72-15.26,2.73-15.27,2.72-15.26,2.73-15.26Z" style="opacity: 0.550000011920929;isolation: isolate;fill: url(#gq)"/>
          <path d="M109-5.06l-.79.5-.48,2.72L105,13.43l-2.73,15.26L99.55,44,96.82,59.22,94.1,74.48,91.37,89.74v.09L92,90l0-.11L94.77,74.6,97.5,59.34l2.72-15.27L103,28.81l2.73-15.26L108.4-1.71Z" style="opacity: 0.550000011920929;isolation: isolate;fill: url(#gr)"/>
          <path d="M107.22-3.93l-.79.53-.23,1.29-2.73,15.26-2.72,15.27L98,43.68,95.29,58.94,92.57,74.21,89.84,89.47h0l.67.16v0l2.73-15.26L96,59.06,98.7,43.8l2.72-15.26,2.73-15.26L106.87-2Z" style="opacity: 0.550000011920929;isolation: isolate;fill: url(#gs)"/>
          <path d="M105.43-2.71l-.8.57-2.68,15L99.22,28.15,96.49,43.41,93.77,58.67,91,73.94l-2.7,15.13.67.19,2.71-15.2,2.73-15.27,2.72-15.26L99.9,28.27,102.62,13l2.73-15.26Z" style="opacity: 0.550000011920929;isolation: isolate;fill: url(#gt)"/>
          <path d="M103.62-1.38l-.82.64-2.38,13.35L97.7,27.87,95,43.14,92.24,58.4,89.52,73.66,86.85,88.59l.66.22,2.68-15,2.73-15.26,2.73-15.26L98.37,28l2.73-15.26Z" style="opacity: 0.550000011920929;isolation: isolate;fill: url(#gu)"/>
          <path d="M101.77.12c-.28.25-.56.5-.83.76h0l-2,11.46L96.17,27.6,93.44,42.86,90.72,58.13,88,73.39,85.37,88.05l.66.25,2.64-14.79,2.72-15.26L94.12,43l2.73-15.26,2.72-15.26Z" style="opacity: 0.550000011920929;isolation: isolate;fill: url(#gv)"/>
          <path d="M99.87,2c-.3.33-.6.66-.87,1l-1.63,9.11L94.64,27.33,91.92,42.59,89.19,57.85,86.46,73.12,83.9,87.45l.66.27,2.58-14.48L89.87,58l2.72-15.26,2.73-15.26L98,12.19Z" style="opacity: 0.550000011920929;isolation: isolate;fill: url(#gw)"/>
          <path d="M97.84,4.5a18.6,18.6,0,0,0-1,1.73h0l-1,5.56L93.11,27.06,90.39,42.32,87.66,57.58,84.94,72.84,82.45,86.77l.64.31L85.61,73,88.34,57.7l2.73-15.26,2.72-15.26,2.73-15.27Z" style="opacity: 0.550000011920929;isolation: isolate;fill: url(#gx)"/>
          <path d="M94.84,12.51a30.53,30.53,0,0,1-1.44,4.16h0L91.59,26.78,88.86,42.05,86.14,57.31,83.41,72.57,81,86l.64.34,2.44-13.68,2.72-15.26,2.73-15.26L92.27,26.9Z" style="opacity: 0.550000011920929;isolation: isolate;fill: url(#gy)"/>
          <path d="M92,19.5c-.32.59-.65,1.17-1,1.75l-.94,5.26L87.34,41.77,84.61,57,81.89,72.3,79.58,85.2l.63.38,2.35-13.16,2.73-15.26L88,41.89l2.73-15.26Z" style="opacity: 0.550000011920929;isolation: isolate;fill: url(#gz)"/>
          <path d="M89.79,23.13c-.31.45-.62.9-.94,1.34h0l-.31,1.76L85.81,41.5,83.09,56.76,80.36,72,78.17,84.29l.62.41L81,72.15l2.72-15.27,2.73-15.26,2.72-15.26Z" style="opacity: 0.550000011920929;isolation: isolate;fill: url(#ha)"/>
          <path d="M87.7,26c-.3.4-.6.79-.91,1.18l-2.5,14L81.56,56.49,78.83,71.75l-2,11.53.61.46,2.12-11.87,2.73-15.26L85,41.35l2.73-15.26Z" style="opacity: 0.550000011920929;isolation: isolate;fill: url(#hb)"/>
          <path d="M85.66,28.62l-.9,1.1L82.76,41,80,56.22,77.31,71.48,75.4,82.16c.2.18.4.35.61.51L78,71.6l2.73-15.26,2.72-15.26Z" style="opacity: 0.550000011920929;isolation: isolate;fill: url(#hc)"/>
          <path d="M83.65,31.07l-.89,1.06-1.53,8.55L78.51,56,75.78,71.21l-1.73,9.71.59.57,1.82-10.16,2.72-15.26,2.73-15.26Z" style="opacity: 0.550000011920929;isolation: isolate;fill: url(#hd)"/>
          <path d="M81.64,33.47l-.89,1.08h0l-1,5.86L77,55.67,74.26,70.94l-1.54,8.58c.19.22.39.43.59.64l1.62-9.1,2.73-15.27,2.72-15.26Z" style="opacity: 0.550000011920929;isolation: isolate;fill: url(#he)"/>
          <path d="M79.63,35.94q-.47.56-.9,1.14h0l-.55,3.06L75.45,55.4,72.73,70.66l-1.3,7.27c.18.25.37.49.57.73l1.4-7.88,2.73-15.26,2.73-15.26Z" style="opacity: 0.550000011920929;isolation: isolate;fill: url(#hf)"/>
          <path d="M77.58,38.57c-.31.42-.62.83-.92,1.26h0v0L73.93,55.13,71.2,70.39l-1,5.7c.18.29.36.57.55.85l1.15-6.43L74.6,55.25,77.33,40Z" style="opacity: 0.550000011920929;isolation: isolate;fill: url(#hg)"/>
          <path d="M75.49,41.5c-.33.47-.64.94-1,1.42h0L72.4,54.86,69.68,70.12,69,73.91q.24.51.51,1l.84-4.69L73.08,55Z" style="opacity: 0.550000011920929;isolation: isolate;fill: url(#hh)"/>
          <path d="M73.31,44.86c-.35.57-.68,1.14-1,1.71h0l-1.43,8L68.15,69.85l-.24,1.32h0c.14.44.3.87.47,1.3l.45-2.5L71.55,54.7Z" style="opacity: 0.550000011920929;isolation: isolate;fill: url(#hi)"/>
          <path d="M71,49c-.4.79-.78,1.59-1.13,2.4l-.51,2.87L67,67.21c.09.67.2,1.33.35,2L70,54.43Z" style="opacity: 0.550000011920929;isolation: isolate;fill: url(#hj)"/>
          <path d="M68.16,56a29.86,29.86,0,0,0-1.26,7.09Z" style="opacity: 0.550000011920929;isolation: isolate;fill: url(#hk)"/>
        </g>
        <path d="M172.26,65.17A3.49,3.49,0,0,1,175.7,65a4.43,4.43,0,0,1,2.06,2.76,3.35,3.35,0,0,1,.12,1.63,9,9,0,0,1-.56,1.37,5,5,0,0,0-.32,2.87c.14.77.46,1.49.63,2.25a2.91,2.91,0,0,1-.27,2.26,2.45,2.45,0,0,1-1.36.92,4.56,4.56,0,0,1-3.85-.77,9.3,9.3,0,0,1-2.61-3.06,7.46,7.46,0,0,1-1.19-3.68A8.55,8.55,0,0,1,172.26,65.17Z" style="fill: url(#hl)"/>
        <path d="M106.05,25.21l-.23-.15c-1.87-1.18-5-.44-7-.16a5.06,5.06,0,0,0-2.34.79,2,2,0,0,0-.77,2.19,2.45,2.45,0,0,0,1,1.05,10.81,10.81,0,0,0,4.9,1.54,6.74,6.74,0,0,0,4-.56A2.8,2.8,0,0,0,106.05,25.21Z" style="fill: url(#hm)"/>
        <path d="M143.82,29.46a2.62,2.62,0,0,0,.74-1.06,2.64,2.64,0,0,0-.19-2.24,2.71,2.71,0,0,0-.68-.75,2.56,2.56,0,0,0-.91-.44,2.65,2.65,0,0,0-1,0,2.59,2.59,0,0,0-2.2,2.93,2.49,2.49,0,0,0,.33,1,2.56,2.56,0,0,0,.68.75,2.41,2.41,0,0,0,.91.44,2.65,2.65,0,0,0,1,.06A2.58,2.58,0,0,0,143.82,29.46Zm-3.06-3.57a2.1,2.1,0,0,1,1.08-.49,2.07,2.07,0,0,1,.82,0,2,2,0,0,1,.74.36,2,2,0,0,1,.55.61,2.13,2.13,0,0,1,.27.78,2.12,2.12,0,0,1-2.61,2.34,2,2,0,0,1-.74-.36,2,2,0,0,1-.55-.61,2.15,2.15,0,0,1-.27-.77h0a2.2,2.2,0,0,1,.11-1.05A2.13,2.13,0,0,1,140.76,25.89Z" style="fill: url(#hn)"/>
        <path d="M126.38,20.14a.2.2,0,0,0,.06-.09.25.25,0,0,0,0-.12.33.33,0,0,0,0-.12l-1.74-2.25a.2.2,0,0,0-.1-.08.25.25,0,0,0-.12,0l-.12.05a.23.23,0,0,0-.07.1l-1.09,2.63a.28.28,0,0,0,0,.13.16.16,0,0,0,0,.11.16.16,0,0,0,.1.08.23.23,0,0,0,.12,0l2.82-.38A.38.38,0,0,0,126.38,20.14Zm-1.84-1.95,1.23,1.58-2,.27Z" style="fill: url(#ho)"/>
        <path d="M143.26,11.13a.16.16,0,0,0,0-.07.11.11,0,0,0,0-.08s0-.05,0-.07a.43.43,0,0,0,0-.07l-.88-1-.06-.05-.08,0h-.08l-.07,0a.17.17,0,0,0-.07.14.21.21,0,0,0,.05.15l.88,1a.17.17,0,0,0,.14.07A.21.21,0,0,0,143.26,11.13Z" style="fill: url(#hp)"/>
        <path d="M145.65,13.91l0-.06a.24.24,0,0,0,0-.08.22.22,0,0,0,0-.08.16.16,0,0,0,0-.07l-.92-1.07-.06-.05-.08,0h-.08l-.07,0a.23.23,0,0,0-.07.14.21.21,0,0,0,.05.15l.92,1.07a.27.27,0,0,0,.14.07A.25.25,0,0,0,145.65,13.91Z" style="fill: url(#hq)"/>
        <path d="M142.12,13.64l1.11-1a.16.16,0,0,0,.07-.14.2.2,0,0,0,0-.15.21.21,0,0,0-.14-.07.2.2,0,0,0-.15,0l-1.12,1a.21.21,0,0,0-.07.14.17.17,0,0,0,.05.15.17.17,0,0,0,.14.07A.18.18,0,0,0,142.12,13.64Z" style="fill: url(#hr)"/>
        <path d="M144.85,11.29l1.07-.92a.21.21,0,0,0,.07-.14.27.27,0,0,0-.05-.15.27.27,0,0,0-.14-.07.25.25,0,0,0-.15.05l-1.07.92-.05.06a.31.31,0,0,0,0,.08.19.19,0,0,0,0,.08.16.16,0,0,0,0,.07.15.15,0,0,0,.06.05l.08,0h.08Z" style="fill: url(#hs)"/>
        <path d="M143.83,14.51l0-.06a.24.24,0,0,0,0-.08L144,13s0-.05,0-.08l0-.07-.07-.05-.07,0a.25.25,0,0,0-.15,0,.17.17,0,0,0-.07.14l-.11,1.41a.21.21,0,0,0,.19.22h.08Z" style="fill: url(#ht)"/>
        <path d="M144.1,10.85a.18.18,0,0,0,.05-.07.19.19,0,0,0,0-.07l.1-1.34a.11.11,0,0,0,0-.08.15.15,0,0,0,0-.07.18.18,0,0,0-.07-.05l-.08,0H144l-.08,0,0,.06s0,.05,0,.08l-.1,1.34a.3.3,0,0,0,.05.15.27.27,0,0,0,.14.07H144Z" style="fill: url(#hu)"/>
        <path d="M146.51,12.2a.2.2,0,0,0,.06-.07s0-.05,0-.07a.25.25,0,0,0-.05-.15.17.17,0,0,0-.14-.07L145,11.73a.21.21,0,1,0,0,.41l1.41.1h.08Z" style="fill: url(#hv)"/>
        <path d="M142.92,11.93a.18.18,0,0,0,.05-.07.19.19,0,0,0,0-.08.17.17,0,0,0,0-.07.16.16,0,0,0,0-.07.15.15,0,0,0-.06-.05s0,0-.08,0l-1.4-.1h-.08l-.07,0-.05.06a.12.12,0,0,0,0,.08.17.17,0,0,0,0,.15.21.21,0,0,0,.14.07l1.4.1a.11.11,0,0,0,.08,0A.15.15,0,0,0,142.92,11.93Z" style="fill: url(#hw)"/>
        <path d="M124.94,116.44a2.72,2.72,0,0,0,.74-1.06,2.66,2.66,0,0,0,.14-1.28,2.57,2.57,0,0,0-.34-1,2.66,2.66,0,0,0-.67-.75,2.89,2.89,0,0,0-.92-.44,2.62,2.62,0,0,0-2.72,1,2.6,2.6,0,0,0-.49,1.93,2.52,2.52,0,0,0,.34,1,2.41,2.41,0,0,0,.67.75,2.52,2.52,0,0,0,.92.44,2.46,2.46,0,0,0,1,.06A2.58,2.58,0,0,0,124.94,116.44Zm-3.06-3.57a2.11,2.11,0,0,1,1.07-.49,2.27,2.27,0,0,1,.82,0,2,2,0,0,1,.74.36,2.17,2.17,0,0,1,.56.61,2.12,2.12,0,0,1-1.52,3.17,2.07,2.07,0,0,1-.82,0,2.11,2.11,0,0,1-1.3-1,2.08,2.08,0,0,1-.27-.77h0a2.05,2.05,0,0,1,.12-1A2,2,0,0,1,121.88,112.87Z" style="fill: url(#hx)"/>
        <path d="M135.32,114.24l0,0s0,0,0,0a.09.09,0,0,0,0,0,.08.08,0,0,0,0,0l-.53-.61,0,0h-.09l0,0a.12.12,0,0,0,0,.08.1.1,0,0,0,0,.09l.52.61a.1.1,0,0,0,.09,0S135.29,114.26,135.32,114.24Z" style="fill: url(#hy)"/>
        <path d="M136.75,115.91l0,0a.06.06,0,0,0,0,0s0,0,0,0,0,0,0,0l-.55-.64,0,0-.05,0h0l0,0a.12.12,0,0,0,0,.09s0,.06,0,.09l.55.64a.12.12,0,0,0,.17,0Z" style="fill: url(#hz)"/>
        <path d="M134.63,115.76l.67-.58s0,0,0,0l0,0a.43.43,0,0,1,0,0l0,0,0,0h-.1l0,0-.67.58a.12.12,0,0,0,0,.08.14.14,0,0,0,0,.09.09.09,0,0,0,.08,0A.1.1,0,0,0,134.63,115.76Z" style="fill: url(#ia)"/>
        <path d="M136.27,114.34l.64-.55a.14.14,0,0,0,.05-.08.12.12,0,0,0,0-.09.2.2,0,0,0-.09-.05.16.16,0,0,0-.09,0l-.64.56,0,0a.09.09,0,0,0,0,0v.05l0,0,0,0h.09Z" style="fill: url(#ib)"/>
        <path d="M135.66,116.27l0,0a.11.11,0,0,0,0,0l.06-.84s0,0,0,0a.05.05,0,0,0,0,0,.05.05,0,0,0,0,0l0,0a.16.16,0,0,0-.09,0,.13.13,0,0,0,0,.09l-.06.84a.1.1,0,0,0,0,.09.12.12,0,0,0,.08,0h.05Z" style="fill: url(#ic)"/>
        <path d="M135.82,114.07s0,0,0,0,0,0,0-.05l.06-.8a.07.07,0,0,0,0,0,.05.05,0,0,0,0,0l0,0h-.05s0,0-.05,0l0,0,0,0s0,0,0,0l-.06.8a.14.14,0,0,0,0,.09.09.09,0,0,0,.08,0s0,0,.05,0S135.81,114.09,135.82,114.07Z" style="fill: url(#id)"/>
        <path d="M137.27,114.88l0,0a.09.09,0,0,0,0,0,.1.1,0,0,0,0-.09.18.18,0,0,0-.09,0l-.84-.06a.09.09,0,0,0-.09,0,.11.11,0,0,0,0,.09.1.1,0,0,0,0,.09.18.18,0,0,0,.09,0l.84.06s0,0,0,0S137.26,114.9,137.27,114.88Z" style="fill: url(#ie)"/>
        <path d="M135.12,114.72l0,0s0,0,0,0a.09.09,0,0,0,0,0,.08.08,0,0,0,0,0l0,0H135l-.84-.07h0l0,0,0,0a.07.07,0,0,0,0,0,.16.16,0,0,0,0,.09.12.12,0,0,0,.08,0l.85.06h0Z" style="fill: url(#if)"/>
        <path d="M106,120.65a6.37,6.37,0,0,1-6.07-1.57,8.12,8.12,0,0,1-2.12-5.91,6.09,6.09,0,0,1,.66-2.91,14.65,14.65,0,0,1,1.71-2.08,9.15,9.15,0,0,0,2.09-4.84c.17-1.41,0-2.84.1-4.26A5.31,5.31,0,0,1,104,95.29a4.54,4.54,0,0,1,2.88-.89,8.37,8.37,0,0,1,6.31,3.39,17,17,0,0,1,2.9,6.74,13.5,13.5,0,0,1,.11,7C115.06,115.24,110.46,119.68,106,120.65Z" style="fill: url(#ig)"/>
        <path d="M102.17,107c5.43-1.57,9.92-4.65,14.5-8.66s9.65-6.64,15.1-9.44c10.43-5.35,20.77-13.57,18.57-25.59-1.86-10.11-13-20.08-25.19-19.32a19.38,19.38,0,0,0-10.78,4.33c-2.36,1.83-4,3.93-7.1,4-6.5.12-12.28-4.68-19-4.67-5.9,0-9.75,3-9.87,9.29-.15,8.64,5.54,16.64,5,25.14-.47,7.61-3.31,18.62,3.78,24,2.52,1.92,5.93,2.22,9.1,2A29,29,0,0,0,102.17,107Z" style="opacity: 0.4399999976158142;isolation: isolate;fill: url(#ih)"/>
        <path d="M102.47,106.12c5.42-1.47,9.9-4.46,14.46-8.38s9.61-6.43,15-9.12c10.41-5.16,20.68-13.13,18.3-24.93-2-9.83-13.16-19.5-25.13-18.83a19.11,19.11,0,0,0-10.57,4.08c-2.31,1.74-3.9,3.74-7,3.78-6.35.07-12-4.56-18.52-4.58-5.72,0-9.48,2.79-9.66,8.8C79.2,65.23,84.67,73,84.07,81.28c-.53,7.43-3.44,18.23,3.51,23.68,2.48,1.94,5.86,2.3,9,2.11A28.61,28.61,0,0,0,102.47,106.12Z" style="fill: url(#ii)"/>
        <path d="M73.5,92.19a3.51,3.51,0,0,1-3.15-1.38,4.47,4.47,0,0,1-.62-3.39,3.4,3.4,0,0,1,.61-1.51,8,8,0,0,1,1.11-1A5,5,0,0,0,73,82.49c.21-.75.25-1.54.43-2.29a2.88,2.88,0,0,1,1.24-1.91,2.47,2.47,0,0,1,1.63-.23,4.57,4.57,0,0,1,3.11,2.4,9,9,0,0,1,1,3.9,7.35,7.35,0,0,1-.56,3.83A8.53,8.53,0,0,1,73.5,92.19Z" style="opacity: 0.4399999976158142;isolation: isolate;fill: url(#ij)"/>
        <path d="M73.92,92.32a3.48,3.48,0,0,1-3.15-1.39,4.44,4.44,0,0,1-.63-3.38A3.44,3.44,0,0,1,70.75,86a8.57,8.57,0,0,1,1.11-1,5,5,0,0,0,1.56-2.44c.22-.75.25-1.54.43-2.3a2.92,2.92,0,0,1,1.24-1.9,2.48,2.48,0,0,1,1.63-.23,4.6,4.6,0,0,1,3.12,2.39,9.25,9.25,0,0,1,1,3.91,7.3,7.3,0,0,1-.56,3.82A8.5,8.5,0,0,1,73.92,92.32Z" style="fill: url(#ik)"/>
      </g>
    </mask>
  </defs>
  <g style="mask: url(#il)">
    <circle cx="65.5" cy="65.5" r="65.5" style="fill: #2dc2b9"/>
  </g>
</svg>
