<svg width="54" height="85" viewBox="0 0 54 85" fill="none" xmlns="http://www.w3.org/2000/svg">
<path fill-rule="evenodd" clip-rule="evenodd" d="M30.5873 63.1631C26.1105 60.042 20.7755 58.3722 15.3101 58.3815C9.63916 58.3815 4.7102 60.0963 -0.0200197 63.1631C4.43195 65.9397 9.08929 67.7072 14.2766 67.8721C20.0737 68.059 25.7798 66.4026 30.5674 63.1433L30.5873 63.1631ZM29.4809 63.1631C27.7661 64.0343 25.8676 64.4865 23.9424 64.4821C22.0208 64.4921 20.1253 64.0395 18.4172 63.1631C20.1399 62.307 22.0369 61.8557 23.9623 61.844C25.8919 61.8563 27.7931 62.3075 29.5207 63.1631L29.4809 63.1631ZM14.1706 66.7179C10.0334 66.3585 6.01485 65.1551 2.36496 63.1829C6.23535 60.9814 10.5784 59.7331 15.0319 59.5423C17.0488 59.4495 19.0693 59.6224 21.0407 60.0567C19.0448 59.958 17.0441 60.0886 15.0783 60.4458C12.3677 60.9606 9.7517 61.8835 7.32043 63.1829C9.52283 64.322 11.8628 65.1754 14.2833 65.722C16.5153 66.1722 18.7904 66.3757 21.0672 66.3288C18.7913 66.7051 16.4813 66.8355 14.1773 66.7179L14.1706 66.7179Z" fill="#4C73B7"/>
<path fill-rule="evenodd" clip-rule="evenodd" d="M36.2251 68.0241C35.7806 67.6484 35.4353 67.17 35.2193 66.6308C35.0033 66.0916 34.9233 65.508 34.9862 64.9309C35.1916 62.8336 36.4437 61.4948 38.5305 61.3826C42.5055 61.1782 44.9435 66.4412 44.758 69.7323C44.7307 71.8603 43.9352 73.9074 42.5169 75.4998C41.0987 77.0922 39.1522 78.1234 37.0333 78.4051C35.6592 78.5988 34.259 78.483 32.9359 78.0664C31.6127 77.6498 30.4003 76.9429 29.3881 75.9978C28.4615 75.0863 27.7315 73.9962 27.2428 72.7941C26.7541 71.592 26.517 70.3033 26.546 69.0068L14.5747 69.0068C14.5747 77.9302 20.9082 84.5189 29.6134 85.0003C39.3057 85.5016 45.8842 78.4908 46.1757 69.5542C46.3745 64.7858 44.5924 61.2573 41.5051 57.9597L31.1835 57.9597L31.1835 68.0241L36.2251 68.0241Z" fill="#4C73B7"/>
<path fill-rule="evenodd" clip-rule="evenodd" d="M45.8512 55.5983L45.8512 52.6172L33.542 52.6172L33.542 51.2454L31.1968 51.2454L31.1968 55.5983L45.8512 55.5983Z" fill="#4C73B7"/>
<path fill-rule="evenodd" clip-rule="evenodd" d="M31.1968 49.7087L45.8512 51.1201L45.8512 48.482L43.2012 48.172L43.2012 47.0178L45.8512 46.6947L45.8512 44.0566L31.1968 45.4284L31.1968 49.7087ZM40.4783 48.0665L35.1784 47.6708L35.1784 47.5257L40.4783 47.1102L40.4783 48.0665Z" fill="#4C73B7"/>
<path fill-rule="evenodd" clip-rule="evenodd" d="M38.2989 37.0194L38.1332 37.0194C38.0272 36.3599 36.7354 36.3599 36.1458 36.3599L33.7873 36.3599C31.9919 36.3599 31.1704 36.4852 31.1704 38.5627L31.1704 41.0689C31.1704 43.1662 32.2238 43.2915 33.7873 43.2915L35.7748 43.2915L35.7748 40.3104L34.1185 40.3104C34.0551 40.3131 33.9918 40.303 33.9324 40.2806C33.873 40.2583 33.8188 40.2242 33.773 40.1805C33.7272 40.1367 33.6907 40.0842 33.6659 40.0261C33.641 39.9679 33.6282 39.9054 33.6283 39.8422C33.6282 39.7787 33.641 39.7158 33.6658 39.6574C33.6906 39.5989 33.7269 39.5459 33.7726 39.5016C33.8183 39.4574 33.8725 39.4227 33.9319 39.3996C33.9913 39.3765 34.0548 39.3655 34.1185 39.3673L35.8609 39.3673C36.7685 39.3673 36.954 39.6575 36.954 40.5083L36.954 41.0689L39.5112 41.0689L39.5112 40.5611C39.5112 39.4399 40.0214 39.3673 40.4785 39.3673L43.1285 39.3673C43.1924 39.3646 43.2563 39.3749 43.3161 39.3977C43.376 39.4204 43.4305 39.4551 43.4764 39.4995C43.5223 39.544 43.5586 39.5973 43.5831 39.6562C43.6075 39.7152 43.6197 39.7784 43.6187 39.8422C43.6197 39.9056 43.6076 39.9686 43.583 40.0272C43.5585 40.0858 43.5221 40.1387 43.4761 40.1827C43.4301 40.2266 43.3755 40.2606 43.3156 40.2826C43.2558 40.3046 43.1921 40.3141 43.1285 40.3104L40.5315 40.3104L40.5315 43.2915L43.2212 43.2915C45.3081 43.2915 45.8712 43.1662 45.8712 41.0689L45.8712 38.5891C45.8712 36.6764 45.5068 36.3862 43.2212 36.3862L40.2797 36.3862C39.7497 36.3862 38.2922 36.2939 38.2922 37.0458L38.2989 37.0194Z" fill="#4C73B7"/>
<path fill-rule="evenodd" clip-rule="evenodd" d="M45.8512 35.0474L45.8512 32.0663L33.5751 32.0663L33.5751 31.1232L45.8512 31.1232L45.8512 28.1421L31.1968 28.1421L31.1968 35.0474L45.8512 35.0474Z" fill="#4C73B7"/>
<path fill-rule="evenodd" clip-rule="evenodd" d="M31.1969 21.9029L31.1969 26.5856L45.8513 26.5856L45.8513 23.6045L40.8627 23.6045L40.8627 21.9029C40.8627 19.8122 39.9154 19.6869 38.2127 19.6869L33.7873 19.6869C32.4954 19.6869 31.1704 19.8122 31.1704 21.9029L31.1969 21.9029ZM37.8219 22.668C38.2922 22.668 38.5639 22.8988 38.5639 23.2286L38.5639 23.6045L33.5421 23.6045L33.5421 23.2286C33.5421 22.8988 33.8138 22.668 34.2709 22.668L37.8484 22.668L37.8219 22.668Z" fill="#4C73B7"/>
<path fill-rule="evenodd" clip-rule="evenodd" d="M31.1969 13.738L31.1969 16.2112C31.1969 18.2887 32.396 18.4207 33.7806 18.4207L43.2212 18.4207C44.9238 18.4207 45.8712 18.2887 45.8712 16.2112L45.8712 13.738C45.8712 11.6407 45.0563 11.5154 43.2212 11.5154L33.7873 11.5154C32.3695 11.5154 31.1704 11.6407 31.1704 13.738L31.1969 13.738ZM43.0622 14.4965C43.187 14.4965 43.3066 14.5458 43.3948 14.6336C43.483 14.7214 43.5326 14.8405 43.5326 14.9647C43.5365 15.0272 43.5269 15.0898 43.5047 15.1484C43.4824 15.2069 43.4479 15.2601 43.4034 15.3044C43.3589 15.3487 43.3055 15.383 43.2467 15.4052C43.1879 15.4274 43.125 15.4368 43.0622 15.433L34.0523 15.433C33.989 15.4378 33.9253 15.4291 33.8657 15.4074C33.8061 15.3856 33.7518 15.3514 33.7066 15.307C33.6614 15.2627 33.6263 15.2091 33.6036 15.1501C33.581 15.091 33.5713 15.0278 33.5753 14.9647C33.5753 14.9027 33.5876 14.8412 33.6117 14.784C33.6357 14.7267 33.671 14.6748 33.7154 14.6313C33.7598 14.5877 33.8124 14.5533 33.8702 14.5302C33.9281 14.5071 33.9899 14.4956 34.0523 14.4965L43.0622 14.4965Z" fill="#4C73B7"/>
<path fill-rule="evenodd" clip-rule="evenodd" d="M31.1968 3.95719L37.9012 5.15094L31.1968 6.23256L31.1968 10.1238L45.8512 10.1238L45.8512 7.12292L39.2063 7.12292L39.2063 7.01081L45.8512 6.01492L45.8512 4.18803L39.2063 3.15917L39.2063 3.05364L45.8512 3.05364L45.8512 0.0725702L31.1968 0.0725708L31.1968 3.95719Z" fill="#4C73B7"/>
<path fill-rule="evenodd" clip-rule="evenodd" d="M49.992 83.2655C49.9901 83.2226 49.9972 83.1797 50.0129 83.1397C50.0285 83.0996 50.0524 83.0632 50.0829 83.0328C50.1134 83.0024 50.15 82.9787 50.1902 82.9631C50.2304 82.9475 50.2735 82.9405 50.3166 82.9423L52.2577 82.9423C52.3017 82.9396 52.3458 82.9459 52.3871 82.961C52.4285 82.9761 52.4663 82.9996 52.498 83.03C52.5298 83.0604 52.5549 83.097 52.5717 83.1375C52.5885 83.1781 52.5966 83.2217 52.5956 83.2655C52.5957 83.3088 52.5869 83.3516 52.5697 83.3914C52.5524 83.4312 52.5272 83.467 52.4956 83.4966C52.4639 83.5263 52.4265 83.5492 52.3855 83.5639C52.3446 83.5786 52.3011 83.5848 52.2577 83.5821L50.3498 83.5821C50.307 83.5849 50.264 83.5787 50.2238 83.5639C50.1836 83.5491 50.1469 83.526 50.1163 83.4961C50.0857 83.4662 50.0617 83.4302 50.046 83.3905C50.0303 83.3507 50.0232 83.3082 50.0251 83.2655L49.992 83.2655ZM50.3498 84.4988L52.0656 84.4988C52.231 84.5181 52.3986 84.499 52.5553 84.4431C52.712 84.3872 52.8537 84.296 52.9691 84.1766C53.0846 84.0572 53.1708 83.9128 53.2209 83.7548C53.271 83.5967 53.2838 83.4293 53.2581 83.2655C53.2581 82.4015 52.8341 82.0256 52.0656 82.0256L50.3829 82.0256C49.7866 82.0256 49.2964 82.3949 49.2964 83.2589C49.2964 84.1229 49.7734 84.4988 50.3498 84.4988Z" fill="#888685"/>
<path fill-rule="evenodd" clip-rule="evenodd" d="M50.1505 80.8581L50.1505 81.577L49.3887 81.577L49.3887 79.3478L50.1505 79.3478L50.1505 80.0205L53.2046 80.0205L53.2046 80.8581L50.1505 80.8581Z" fill="#888685"/>
<path fill-rule="evenodd" clip-rule="evenodd" d="M49.3887 78.8533L49.3887 77.9761L50.9058 77.9761L49.3887 77.3364L49.3887 76.3405L51.0714 77.1847L53.2046 76.3405L53.2046 77.3034L51.8796 77.7255L52.3169 77.9761L53.2046 77.9761L53.2046 78.8533L49.3887 78.8533Z" fill="#888685"/>
<path fill-rule="evenodd" clip-rule="evenodd" d="M51.0121 74.9423L50.0713 74.9423L50.0713 74.7972C50.0713 74.5334 50.1641 74.3487 50.5417 74.3487C50.9193 74.3487 51.0319 74.5531 51.0319 74.7774L51.0121 74.9423ZM53.185 75.859L53.185 74.9423L51.7143 74.9423L51.7143 74.5334C51.7313 74.3797 51.7126 74.2241 51.6596 74.0788C51.6066 73.9335 51.5208 73.8022 51.4087 73.6951C51.2967 73.588 51.1614 73.508 51.0134 73.4612C50.8654 73.4145 50.7085 73.4022 50.5549 73.4253C49.5744 73.4253 49.3823 74.0057 49.3823 74.5334L49.3823 75.8524L53.2049 75.8524L53.185 75.859Z" fill="#888685"/>
<path fill-rule="evenodd" clip-rule="evenodd" d="M49.3823 72.8713L49.3823 71.9546L50.8729 71.9546L50.8729 71.5457C50.8729 71.0049 51.0982 70.4377 52.0456 70.4377C52.9929 70.4377 53.2049 71.0115 53.2049 71.5457L53.2049 72.8647L49.3823 72.8647L49.3823 72.8713ZM51.5619 71.9546L52.5226 71.9546L52.5226 71.8095C52.5226 71.5457 52.4298 71.3544 52.0522 71.3544C51.6746 71.3544 51.5619 71.5655 51.5619 71.7897L51.5619 71.9546ZM53.2049 70.0617L53.2049 69.1714L49.3823 69.1714L49.3823 70.0617L53.2049 70.0617Z" fill="#888685"/>
<path fill-rule="evenodd" clip-rule="evenodd" d="M50.1505 67.9513L50.1505 68.6702L49.3887 68.6702L49.3887 66.4344L50.1505 66.4344L50.1505 67.1071L53.2046 67.1071L53.2046 67.9513L50.1505 67.9513Z" fill="#888685"/>
<path fill-rule="evenodd" clip-rule="evenodd" d="M49.992 64.7591C49.992 64.7173 50.0004 64.6759 50.0169 64.6374C50.0334 64.5989 50.0575 64.5641 50.0878 64.5351C50.1182 64.5062 50.1541 64.4836 50.1934 64.4688C50.2327 64.4541 50.2746 64.4474 50.3166 64.4491L52.2577 64.4491C52.3456 64.4491 52.4298 64.4839 52.492 64.5457C52.5541 64.6076 52.589 64.6914 52.589 64.7789C52.589 64.8664 52.5541 64.9502 52.492 65.0121C52.4298 65.0739 52.3456 65.1087 52.2577 65.1087L50.3498 65.1087C50.3066 65.1105 50.2636 65.1034 50.2233 65.0879C50.1831 65.0723 50.1466 65.0486 50.116 65.0182C50.0855 64.9878 50.0617 64.9514 50.046 64.9113C50.0304 64.8713 50.0233 64.8284 50.0251 64.7855L49.992 64.7591ZM50.3498 65.999L52.0656 65.999C52.8341 65.999 53.2581 65.6165 53.2581 64.7591C53.2581 63.9017 52.8341 63.5324 52.0656 63.5324L50.3829 63.5324C49.7866 63.5324 49.2964 63.8951 49.2964 64.7591C49.2964 65.6231 49.7734 65.999 50.3763 65.999L50.3498 65.999Z" fill="#888685"/>
<path fill-rule="evenodd" clip-rule="evenodd" d="M49.3887 62.9059L49.3887 60.769L50.1108 60.769L50.1108 61.9825L50.8462 61.9825L50.8462 60.8613L51.5749 60.8613L51.5749 61.9825L52.4825 61.9825L52.4825 60.769L53.2046 60.769L53.2046 62.9059L49.3887 62.9059Z" fill="#888685"/>
<path fill-rule="evenodd" clip-rule="evenodd" d="M51.7541 57.8341L50.0713 57.5967L51.7541 57.3461L51.7541 57.8341ZM53.2049 58.9553L53.2049 58.0452L52.4431 57.9265L52.4431 57.2274L53.2049 57.0889L53.2049 56.1919L49.3823 57.0295L49.3823 58.1243L53.2049 58.9553Z" fill="#888685"/>
<path fill-rule="evenodd" clip-rule="evenodd" d="M49.3887 55.7566L49.3887 54.8794L50.9058 54.8794L49.3887 54.2397L49.3887 53.2438L51.0714 54.0814L53.2046 53.2438L53.2046 54.2001L51.8796 54.6288L52.3169 54.8794L53.2046 54.8794L53.2046 55.7566L49.3887 55.7566Z" fill="#888685"/>
<path fill-rule="evenodd" clip-rule="evenodd" d="M52.4428 51.252L49.3887 51.252L49.3887 50.3353L52.4428 50.3353L52.4428 50.1308L53.9996 50.1308L53.9996 51.0344L53.2046 51.0344L53.2046 52.7623L49.3887 52.7623L49.3887 51.8456L52.4428 51.8456L52.4428 51.252Z" fill="#888685"/>
<path fill-rule="evenodd" clip-rule="evenodd" d="M53.2049 47.2354L53.2049 48.106L52.3371 48.106C51.9263 48.106 51.3036 47.9807 50.8994 47.9411L53.2049 48.726L53.2049 49.6229L49.3823 49.6229L49.3823 48.726L50.3496 48.726C50.7736 48.726 51.3764 48.8381 51.8004 48.8645L49.3956 48.0928L49.3956 47.2222L53.2182 47.2222L53.2049 47.2354Z" fill="#888685"/>
<path fill-rule="evenodd" clip-rule="evenodd" d="M49.992 45.3888C49.99 45.3461 49.9972 45.3035 50.0129 45.2638C50.0286 45.2241 50.0525 45.1881 50.0832 45.1582C50.1138 45.1283 50.1505 45.1052 50.1907 45.0904C50.2309 45.0756 50.2738 45.0694 50.3166 45.0722L52.2577 45.0722C52.3456 45.0722 52.4298 45.107 52.492 45.1688C52.5541 45.2306 52.589 45.3145 52.589 45.402C52.589 45.4894 52.5541 45.5733 52.492 45.6352C52.4298 45.697 52.3456 45.7317 52.2577 45.7317L50.3498 45.7317C50.307 45.7346 50.264 45.7284 50.2238 45.7136C50.1836 45.6987 50.1469 45.6756 50.1163 45.6458C50.0857 45.6159 50.0617 45.5799 50.046 45.5402C50.0303 45.5004 50.0232 45.4578 50.0251 45.4152L49.992 45.3888ZM50.3498 46.6221L52.0656 46.6221C52.231 46.6414 52.3986 46.6223 52.5553 46.5664C52.712 46.5105 52.8537 46.4193 52.9691 46.2999C53.0846 46.1805 53.1707 46.0361 53.2209 45.8781C53.271 45.72 53.2838 45.5526 53.2581 45.3888C53.2581 44.5314 52.8341 44.1489 52.0656 44.1489L50.3829 44.1489C49.7866 44.1489 49.2964 44.5182 49.2964 45.3822C49.2964 46.2462 49.7734 46.6221 50.3763 46.6221L50.3498 46.6221Z" fill="#888685"/>
<path fill-rule="evenodd" clip-rule="evenodd" d="M53.2046 42.6122L53.2046 43.5289L49.3887 43.5289L49.3887 42.6122L50.8329 42.6122L50.8329 42.012L49.3887 42.012L49.3887 41.0953L53.2046 41.0953L53.2046 42.012L51.5948 42.012L51.5948 42.6122L53.2046 42.6122Z" fill="#888685"/>
<path fill-rule="evenodd" clip-rule="evenodd" d="M49.3887 40.4093L49.3887 38.279L50.1108 38.279L50.1108 39.4926L50.8462 39.4926L50.8462 38.3714L51.5749 38.3714L51.5749 39.4926L52.4825 39.4926L52.4825 38.279L53.2046 38.279L53.2046 40.4093L49.3887 40.4093Z" fill="#888685"/>
<path fill-rule="evenodd" clip-rule="evenodd" d="M51.0121 36.8018L50.0713 36.8018L50.0713 36.6501C50.0713 36.3863 50.1641 36.2016 50.5417 36.2016C50.9193 36.2016 51.0319 36.4126 51.0319 36.6369L51.0121 36.8018ZM53.185 37.7185L53.185 36.8018L51.7143 36.8018L51.7143 36.3863C51.7313 36.2326 51.7126 36.077 51.6596 35.9317C51.6066 35.7864 51.5208 35.6551 51.4087 35.548C51.2967 35.4409 51.1614 35.3609 51.0134 35.3141C50.8654 35.2674 50.7085 35.2551 50.5549 35.2782C49.5744 35.2782 49.3823 35.852 49.3823 36.3863L49.3823 37.7053L53.2049 37.7053L53.185 37.7185Z" fill="#888685"/>
<path fill-rule="evenodd" clip-rule="evenodd" d="M53.2046 33.8141L53.2046 34.7308L49.3887 34.7308L49.3887 33.8141L50.8329 33.8141L50.8329 33.2139L49.3887 33.2139L49.3887 32.2972L53.2046 32.2972L53.2046 33.2139L51.5948 33.2139L51.5948 33.8141L53.2046 33.8141Z" fill="#888685"/>
<path fill-rule="evenodd" clip-rule="evenodd" d="M49.992 30.4372C49.9911 30.3948 49.9989 30.3527 50.0149 30.3134C50.031 30.2741 50.055 30.2386 50.0854 30.2089C50.1158 30.1792 50.1521 30.1561 50.1918 30.1409C50.2316 30.1257 50.2741 30.1188 50.3166 30.1206L52.2577 30.1206C52.3011 30.1179 52.3446 30.1241 52.3855 30.1388C52.4265 30.1535 52.4639 30.1764 52.4956 30.2061C52.5272 30.2357 52.5524 30.2716 52.5697 30.3113C52.5869 30.3511 52.5957 30.3939 52.5956 30.4372C52.5957 30.4805 52.5869 30.5234 52.5697 30.5631C52.5524 30.6029 52.5272 30.6387 52.4956 30.6684C52.4639 30.698 52.4265 30.7209 52.3855 30.7356C52.3446 30.7503 52.3011 30.7565 52.2577 30.7538L50.3498 30.7538C50.307 30.7566 50.264 30.7504 50.2238 30.7356C50.1836 30.7208 50.1469 30.6977 50.1163 30.6678C50.0857 30.6379 50.0617 30.6019 50.046 30.5622C50.0303 30.5225 50.0232 30.4799 50.0251 30.4372L49.992 30.4372ZM50.3498 31.6705L52.0656 31.6705C52.8341 31.6705 53.2581 31.288 53.2581 30.4372C53.2581 29.5864 52.8341 29.1973 52.0656 29.1973L50.3829 29.1973C49.7866 29.1973 49.2964 29.5666 49.2964 30.4306C49.2964 31.2946 49.7734 31.6705 50.3763 31.6705L50.3498 31.6705Z" fill="#888685"/>
<path fill-rule="evenodd" clip-rule="evenodd" d="M49.3887 28.5774L49.3887 26.4471L50.1108 26.4471L50.1108 27.6541L50.8462 27.6541L50.8462 26.5395L51.5749 26.5395L51.5749 27.6541L52.4825 27.6541L52.4825 26.4471L53.2046 26.4471L53.2046 28.5774L49.3887 28.5774Z" fill="#888685"/>
<path fill-rule="evenodd" clip-rule="evenodd" d="M49.992 23.1824C49.9911 23.1401 49.9989 23.0979 50.0149 23.0587C50.031 23.0194 50.055 22.9838 50.0854 22.9541C50.1158 22.9245 50.1521 22.9013 50.1918 22.8861C50.2316 22.871 50.2741 22.8641 50.3166 22.8659L52.2577 22.8659C52.3456 22.8659 52.4298 22.9006 52.492 22.9625C52.5541 23.0243 52.589 23.1082 52.589 23.1956C52.589 23.2831 52.5541 23.367 52.492 23.4288C52.4298 23.4907 52.3456 23.5254 52.2577 23.5254L50.3498 23.5254C50.3066 23.5273 50.2636 23.5202 50.2233 23.5046C50.1831 23.489 50.1466 23.4653 50.116 23.4349C50.0855 23.4045 50.0617 23.3681 50.046 23.3281C50.0304 23.288 50.0233 23.2452 50.0251 23.2022L49.992 23.1824ZM50.3498 24.4224L52.0656 24.4224C52.8341 24.4224 53.2581 24.0332 53.2581 23.1824C53.2581 22.3317 52.8341 21.9491 52.0656 21.9491L50.3829 21.9491C49.7866 21.9491 49.2964 22.3185 49.2964 23.1824C49.2964 24.0464 49.7734 24.4224 50.3763 24.4224L50.3498 24.4224Z" fill="#888685"/>
<path fill-rule="evenodd" clip-rule="evenodd" d="M49.3823 21.3226L49.3823 19.2517L50.0448 19.2517L50.0448 20.4059L50.8464 20.4059L50.8464 19.997C50.8464 19.4562 51.0717 18.889 52.0191 18.889C52.9664 18.889 53.1784 19.4628 53.1784 19.997L53.1784 21.316L49.3823 21.316L49.3823 21.3226ZM51.5619 20.4059L52.5226 20.4059L52.5226 20.2608C52.5226 19.997 52.4298 19.8123 52.0522 19.8123C51.6746 19.8123 51.5619 20.0168 51.5619 20.241L51.5619 20.4059Z" fill="#888685"/>
<path fill-rule="evenodd" clip-rule="evenodd" d="M49.3887 18.2954L49.3887 17.3787L52.4428 17.3787L52.4428 16.7719L49.3887 16.7719L49.3887 15.8881L52.4428 15.8881L52.4428 15.2814L49.3887 15.2814L49.3887 14.3646L52.4428 14.3646L52.4428 14.1734L53.9996 14.1734L53.9996 15.0703L53.2046 15.0703L53.2046 18.2954L49.3887 18.2954Z" fill="#888685"/>
<path fill-rule="evenodd" clip-rule="evenodd" d="M49.3887 13.639L49.3887 11.5088L50.1108 11.5088L50.1108 12.7223L50.8462 12.7223L50.8462 11.6011L51.5749 11.6011L51.5749 12.7223L52.4825 12.7223L52.4825 11.5088L53.2046 11.5088L53.2046 13.639L49.3887 13.639Z" fill="#888685"/>
<path fill-rule="evenodd" clip-rule="evenodd" d="M51.6747 8.57389L52.0325 8.57389C52.9004 8.57389 53.2714 8.96301 53.2714 9.8138C53.2714 10.6646 52.907 11.0537 52.0259 11.0537L50.3829 11.0537C49.78 11.0537 49.2964 10.6844 49.2964 9.8138C49.2964 8.94322 49.7933 8.57389 50.3895 8.57389L50.734 8.57389L50.734 9.49063L50.3034 9.49063C50.2619 9.49231 50.2212 9.50222 50.1836 9.5198C50.146 9.53738 50.1123 9.56226 50.0845 9.59299C50.0568 9.62372 50.0354 9.65967 50.0218 9.69872C50.0082 9.73777 50.0026 9.77915 50.0053 9.8204C50.0006 9.85944 50.0043 9.89904 50.0161 9.93655C50.028 9.97406 50.0477 10.0086 50.074 10.038C50.1004 10.0673 50.1327 10.0907 50.1688 10.1066C50.2049 10.1226 50.244 10.1307 50.2835 10.1304L52.2047 10.1304C52.4896 10.1304 52.6022 10.0117 52.6022 9.8204C52.6022 9.62913 52.4896 9.49063 52.2047 9.49063L51.6747 9.49063L51.6747 8.57389Z" fill="#888685"/>
<path fill-rule="evenodd" clip-rule="evenodd" d="M50.1505 7.41307L50.1505 8.13196L49.3887 8.13196L49.3887 5.89616L50.1505 5.89616L50.1505 6.56888L53.2046 6.56888L53.2046 7.41307L50.1505 7.41307Z" fill="#888685"/>
<path fill-rule="evenodd" clip-rule="evenodd" d="M50.0713 4.53763L50.0713 4.26722C50.0636 4.21842 50.0675 4.1685 50.0827 4.12145C50.0978 4.0744 50.1238 4.03154 50.1586 3.99628C50.1933 3.96103 50.2359 3.93436 50.2829 3.91842C50.3299 3.90249 50.3799 3.89771 50.4291 3.90449C50.7338 3.90449 50.8663 4.01001 50.8663 4.26722L50.8663 4.53763L50.0713 4.53763ZM51.5487 4.53763L51.5487 4.3068C51.5487 3.98363 51.7276 3.8847 52.0456 3.8847C52.3636 3.8847 52.5226 3.98363 52.5226 4.33318L52.5226 4.53763L51.5487 4.53763ZM53.2049 4.14851C53.227 3.9944 53.2135 3.8373 53.1653 3.68921C53.1171 3.54111 53.0356 3.40592 52.9269 3.29395C52.8183 3.18199 52.6854 3.0962 52.5384 3.04313C52.3914 2.99006 52.2342 2.97112 52.0787 2.98774C51.8839 2.96193 51.6861 3.00267 51.5177 3.10331C51.3492 3.20395 51.22 3.35852 51.1512 3.54174C51.0951 3.37745 50.9845 3.23704 50.8376 3.14356C50.6908 3.05009 50.5163 3.00909 50.343 3.02731C50.2166 3.01783 50.0897 3.03518 49.9707 3.07819C49.8516 3.12121 49.743 3.18891 49.6522 3.27683C49.5614 3.36475 49.4904 3.47087 49.4438 3.58817C49.3973 3.70547 49.3764 3.83128 49.3823 3.95725L49.3823 5.39502L53.2049 5.39502L53.2049 4.14851Z" fill="#888685"/>
<path fill-rule="evenodd" clip-rule="evenodd" d="M49.992 1.23998C49.9901 1.19705 49.9972 1.15419 50.0129 1.11413C50.0285 1.07408 50.0524 1.0377 50.0829 1.00731C50.1134 0.976923 50.15 0.953182 50.1902 0.937603C50.2304 0.922024 50.2735 0.914947 50.3166 0.916816L52.2577 0.916816C52.3017 0.914064 52.3458 0.920433 52.3871 0.935525C52.4285 0.950616 52.4663 0.974097 52.498 1.00448C52.5298 1.03486 52.5549 1.07149 52.5717 1.11203C52.5885 1.15257 52.5966 1.19614 52.5956 1.23998C52.5957 1.28328 52.5869 1.32613 52.5697 1.36588C52.5524 1.40564 52.5272 1.44146 52.4956 1.47113C52.4639 1.5008 52.4264 1.52369 52.3855 1.53839C52.3446 1.55308 52.3011 1.55927 52.2577 1.55656L50.3498 1.55656C50.307 1.55939 50.264 1.55319 50.2238 1.53837C50.1836 1.52355 50.1469 1.50045 50.1163 1.47057C50.0857 1.44068 50.0617 1.4047 50.046 1.36496C50.0303 1.32523 50.0232 1.28264 50.0251 1.23998L49.992 1.23998ZM50.3763 2.47331L52.0921 2.47331C52.2575 2.49257 52.4251 2.4735 52.5818 2.41761C52.7385 2.36171 52.8802 2.2705 52.9956 2.15108C53.1111 2.03167 53.1972 1.8873 53.2474 1.72925C53.2975 1.5712 53.3103 1.40375 53.2846 1.23998C53.2846 0.376001 52.8606 0.00666794 52.0921 0.00666797L50.3829 0.00666804C49.7866 0.00666807 49.2964 0.369405 49.2964 1.23339C49.2964 2.09737 49.7734 2.47331 50.3763 2.47331Z" fill="#888685"/>
</svg>
