<svg width="128" height="37" viewBox="0 0 128 37" fill="none" xmlns="http://www.w3.org/2000/svg">
<path d="M18.1748 0C14.5802 0 11.0663 1.06593 8.07743 3.063C5.0886 5.06008 2.75909 7.89859 1.38348 11.2196C0.00787488 14.5406 -0.352047 18.195 0.349232 21.7205C1.05051 25.2461 2.78149 28.4845 5.32328 31.0263C7.86507 33.5681 11.1035 35.2991 14.6291 36.0004C18.1546 36.7016 21.809 36.3417 25.13 34.9661C28.451 33.5905 31.2895 31.261 33.2866 28.2722C35.2837 25.2833 36.3496 21.7694 36.3496 18.1748C36.3476 13.3551 34.4321 8.73347 31.0241 5.32546C27.6161 1.91746 22.9944 0.00198299 18.1748 0V0Z" fill="#2A2F6E"/>
<path d="M52.0026 7.34028L52.1373 6.08323H52.0849L51.7408 7.21308L50.6708 9.52515H50.2742L49.1369 7.19811L48.7852 6.06079H48.7328L48.9124 7.3328V10.7373H47.79V4.15277H48.9274L50.3041 7.00357L50.5286 7.81915L50.7456 6.98861L52.0326 4.15277H53.1549V10.7373H52.0026V7.34028Z" fill="#2A2F6E"/>
<path d="M56.3201 8.68711L56.4024 7.93886L56.0582 8.73948L54.7937 10.7523H54.0454V6.03833H55.1603V8.17082L55.078 8.91906L55.4147 8.17082L56.6867 6.08322L57.4349 6.08322V10.7822H56.3201V8.68711Z" fill="#2A2F6E"/>
<path d="M60.4954 8.86668H59.3655V10.7373H58.2432V6.03833H59.3655V7.84159H60.4954V6.03833L61.6103 6.03833V10.7373H60.4954V8.86668Z" fill="#2A2F6E"/>
<path d="M64.7227 8.68711L64.805 7.93886L64.4609 8.73948L63.2038 10.7523H62.4556V6.03833H63.5704V8.17082L63.4881 8.91906L63.8248 8.17082L65.0969 6.03833L65.8451 6.03833V10.7373H64.7227V8.68711Z" fill="#2A2F6E"/>
<path d="M69.4217 10.4754C69.2546 10.6053 69.0641 10.7018 68.8605 10.7598C68.6459 10.8185 68.4246 10.8486 68.2021 10.8496C67.9228 10.8578 67.6457 10.7988 67.394 10.6775C67.1793 10.5553 66.9971 10.3834 66.8627 10.1761C66.7213 9.94631 66.6224 9.69284 66.5709 9.42791C66.5083 9.09238 66.4783 8.7516 66.4811 8.4103C66.4335 7.76103 66.5877 7.11291 66.9226 6.55466C67.069 6.35093 67.2643 6.18729 67.4905 6.07877C67.7167 5.97025 67.9665 5.92033 68.2171 5.93362C68.4512 5.93041 68.6848 5.95553 68.9129 6.00844C69.0765 6.05315 69.2346 6.11589 69.3843 6.1955L69.1224 7.10836C69.0315 7.05777 68.9364 7.01521 68.8381 6.98116C68.716 6.94921 68.5901 6.93411 68.464 6.93626C68.3431 6.93226 68.2235 6.96243 68.1189 7.02331C68.0143 7.08419 67.9291 7.17331 67.8729 7.28045C67.7144 7.62702 67.645 8.00766 67.6708 8.38785C67.6607 8.74519 67.7297 9.10036 67.8729 9.42791C67.927 9.5522 68.0174 9.65726 68.1322 9.72936C68.247 9.80145 68.3809 9.83721 68.5163 9.83196C68.6536 9.83759 68.7907 9.81728 68.9204 9.7721C69.0297 9.73489 69.1331 9.68196 69.2272 9.61497L69.4217 10.4754Z" fill="#2A2F6E"/>
<path d="M72.7664 7.06342H71.7339V10.7373H70.6115V7.06342H69.5415V6.03833L72.7664 6.03833V7.06342Z" fill="#2A2F6E"/>
<path d="M76.3208 10.3856C76.1332 10.5447 75.9138 10.662 75.6774 10.7298C75.4035 10.8145 75.1185 10.8574 74.8318 10.857C74.5437 10.8657 74.2573 10.8094 73.9938 10.6924C73.7625 10.58 73.5641 10.41 73.4177 10.1986C73.2604 9.97197 73.1463 9.71832 73.081 9.45034C73.0049 9.10904 72.9697 8.7599 72.9762 8.41028C72.9225 7.74525 73.0996 7.08202 73.4775 6.5322C73.6474 6.33105 73.8613 6.17174 74.1026 6.06663C74.344 5.96153 74.6063 5.91344 74.8693 5.92612C75.0673 5.92546 75.2642 5.95576 75.4529 6.01591C75.6416 6.07389 75.8136 6.17656 75.9542 6.31521C76.1155 6.47505 76.2383 6.66952 76.3134 6.88387C76.4111 7.16766 76.4567 7.46678 76.448 7.7668C76.448 7.90896 76.448 8.05113 76.448 8.20826C76.448 8.36539 76.4481 8.53748 76.3807 8.71706H74.0761C74.0703 9.03389 74.156 9.34566 74.323 9.61495C74.4131 9.72348 74.5284 9.80822 74.6589 9.86172C74.7894 9.91521 74.931 9.93582 75.0713 9.92173C75.4052 9.92025 75.731 9.81859 76.0066 9.62992L76.3208 10.3856ZM74.8244 6.86142C74.7163 6.85648 74.6089 6.88017 74.513 6.9301C74.4171 6.98003 74.3361 7.05443 74.2781 7.14575C74.1473 7.39516 74.0781 7.67223 74.0761 7.95386H75.393C75.4204 7.67695 75.3819 7.39749 75.2808 7.13827C75.24 7.05265 75.1751 6.98082 75.094 6.93163C75.0129 6.88244 74.9192 6.85804 74.8244 6.86142Z" fill="#2A2F6E"/>
<path d="M77.1587 6.03838H77.9967L78.1089 6.56963C78.2333 6.37163 78.3992 6.20311 78.5953 6.07579C78.8014 5.97141 79.0303 5.91998 79.2612 5.92614C79.4721 5.91498 79.6823 5.95876 79.8711 6.0532C80.06 6.14763 80.2211 6.28949 80.3387 6.46488C80.622 7.01879 80.7464 7.64038 80.6979 8.26066C80.7396 8.93653 80.5836 9.60992 80.2489 10.1986C80.1063 10.4128 79.9109 10.5866 79.6815 10.7033C79.4522 10.82 79.1966 10.8755 78.9395 10.8645C78.8129 10.8816 78.6845 10.8816 78.5579 10.8645C78.4492 10.8437 78.3452 10.8031 78.2511 10.7448V12.6528H77.1362L77.1587 6.03838ZM78.2736 9.68232C78.3361 9.74317 78.4098 9.79144 78.4906 9.82448C78.5868 9.85749 78.6882 9.8727 78.7898 9.86938C78.9114 9.87223 79.0311 9.8389 79.1336 9.77362C79.2362 9.70834 79.3171 9.61406 79.366 9.50274C79.5284 9.102 79.5974 8.66959 79.568 8.23821C79.587 7.89909 79.5335 7.55981 79.4109 7.24305C79.3731 7.14414 79.305 7.05974 79.2162 7.00194C79.1275 6.94414 79.0228 6.91591 78.917 6.9213C78.7613 6.92135 78.6107 6.97724 78.4926 7.07883C78.3746 7.18043 78.2968 7.32099 78.2736 7.475V9.68232Z" fill="#2A2F6E"/>
<path d="M84.1322 10.4754C83.965 10.6053 83.7745 10.7018 83.571 10.7598C83.3564 10.8185 83.135 10.8486 82.9125 10.8496C82.6333 10.8578 82.3561 10.7988 82.1044 10.6775C81.8897 10.5553 81.7075 10.3834 81.5732 10.1761C81.4317 9.94631 81.3329 9.69284 81.2814 9.42791C81.2188 9.09238 81.1887 8.7516 81.1916 8.4103C81.1439 7.76103 81.2981 7.11291 81.633 6.55466C81.7795 6.35093 81.9747 6.18729 82.2009 6.07877C82.4271 5.97025 82.677 5.92033 82.9275 5.93362C83.1616 5.93041 83.3953 5.95553 83.6234 6.00844C83.7869 6.05315 83.945 6.11589 84.0948 6.1955L83.8029 7.10836C83.7001 7.05566 83.5923 7.01306 83.4812 6.98116C83.3591 6.94921 83.2332 6.93411 83.1071 6.93626C82.9862 6.93226 82.8666 6.96243 82.762 7.02331C82.6574 7.08419 82.5722 7.17331 82.516 7.28045C82.3575 7.62702 82.2881 8.00766 82.3139 8.38785C82.3001 8.74548 82.3693 9.10145 82.516 9.42791C82.5701 9.5522 82.6605 9.65726 82.7753 9.72936C82.8901 9.80145 83.024 9.83721 83.1595 9.83196C83.2967 9.83759 83.4338 9.81728 83.5635 9.7721C83.6728 9.73489 83.7762 9.68196 83.8703 9.61497L84.1322 10.4754Z" fill="#2A2F6E"/>
<path d="M87.4844 7.06342H86.4443V10.7373H85.2995V7.06342H84.252V6.03833L87.4844 6.03833V7.06342Z" fill="#2A2F6E"/>
<path d="M87.8958 6.04585C88.0679 6.04585 88.2924 6.00844 88.5617 5.99348C88.8311 5.97851 89.1229 5.99348 89.4147 5.99348C89.8519 5.95292 90.2903 6.05532 90.6643 6.28529C90.7911 6.39281 90.8905 6.52896 90.9542 6.68249C91.018 6.83602 91.0443 7.00251 91.0309 7.16822C91.0314 7.39227 90.9775 7.61308 90.8738 7.8117C90.7686 8.01322 90.5967 8.17192 90.3874 8.26065V8.29806C90.6352 8.3537 90.8534 8.49929 91 8.70664C91.1465 8.91399 91.2108 9.16834 91.1806 9.42042C91.1954 9.61934 91.1624 9.81892 91.0843 10.0025C91.0062 10.186 90.8852 10.3482 90.7316 10.4754C90.2846 10.7529 89.759 10.8764 89.2352 10.8271H88.4869C88.225 10.8271 88.008 10.8271 87.8359 10.7747L87.8958 6.04585ZM89.4372 7.95387C89.5059 7.95669 89.5745 7.94555 89.6388 7.92112C89.7031 7.89668 89.7618 7.85946 89.8113 7.8117C89.8613 7.7651 89.9006 7.70817 89.9265 7.64486C89.9523 7.58155 89.9641 7.51337 89.9609 7.44507C89.968 7.3755 89.961 7.30524 89.9404 7.23842C89.9199 7.17159 89.8861 7.10956 89.8412 7.05598C89.7138 6.95684 89.5528 6.91121 89.3923 6.92878H88.9658V7.9389L89.4372 7.95387ZM88.9658 9.81699H89.1454H89.3549C89.5465 9.83215 89.7373 9.77915 89.8936 9.66734C89.9546 9.6106 90.0019 9.54064 90.0317 9.46282C90.0615 9.38501 90.0732 9.3014 90.0657 9.2184C90.0699 9.14614 90.0594 9.07378 90.035 9.00564C90.0106 8.93751 89.9727 8.87499 89.9235 8.82183C89.8564 8.76322 89.7779 8.71903 89.6929 8.692C89.608 8.66497 89.5184 8.65568 89.4297 8.6647H88.9658V9.81699Z" fill="#2A2F6E"/>
<path d="M91.6523 8.38778C91.6048 7.73012 91.7758 7.07517 92.1387 6.52466C92.3134 6.33074 92.5269 6.17568 92.7653 6.06955C93.0038 5.96341 93.2619 5.90857 93.5229 5.90857C93.7839 5.90857 94.042 5.96341 94.2805 6.06955C94.519 6.17568 94.7325 6.33074 94.9072 6.52466C95.2511 7.07965 95.4108 7.72911 95.3636 8.3803C95.4111 9.03796 95.2402 9.69291 94.8772 10.2434C94.7116 10.4456 94.5006 10.6059 94.2614 10.7112C94.0222 10.8166 93.7615 10.8639 93.5005 10.8495C92.2659 10.857 91.6523 10.0339 91.6523 8.38778ZM92.8121 8.38778C92.7972 8.75602 92.8505 9.12384 92.9692 9.47273C93.0034 9.58655 93.0738 9.68612 93.1696 9.75633C93.2655 9.82655 93.3817 9.86358 93.5005 9.86182C93.6134 9.86468 93.7247 9.83429 93.8204 9.77443C93.9162 9.71456 93.9923 9.62786 94.0392 9.52511C94.1778 9.16281 94.2365 8.77486 94.2113 8.38778C94.2291 8.0145 94.1758 7.64123 94.0542 7.28787C94.0145 7.17365 93.9393 7.07508 93.8398 7.00645C93.7402 6.93783 93.6214 6.90273 93.5005 6.90626C93.3922 6.90733 93.2866 6.93969 93.1963 6.99943C93.106 7.05917 93.035 7.14375 92.9917 7.24297C92.8369 7.60403 92.7653 7.9953 92.7822 8.38778H92.8121Z" fill="#2A2F6E"/>
<path d="M50.132 20.2773C49.9648 20.4071 49.7743 20.5037 49.5708 20.5617C49.3563 20.6209 49.1349 20.6511 48.9123 20.6515C48.6355 20.6596 48.3608 20.6006 48.1117 20.4794C47.894 20.3614 47.7109 20.1886 47.5805 19.978C47.4342 19.7498 47.3327 19.4959 47.2812 19.2298C47.2186 18.8943 47.1885 18.5535 47.1914 18.2122C47.1476 17.5632 47.3015 16.9162 47.6328 16.3565C47.7781 16.1465 47.9746 15.977 48.2038 15.8644C48.433 15.7518 48.6872 15.6997 48.9423 15.7131C49.1739 15.7102 49.405 15.7354 49.6307 15.7879C49.7942 15.8326 49.9523 15.8953 50.102 15.9749L49.8402 16.9102C49.7378 16.8563 49.63 16.8136 49.5184 16.783C49.3964 16.7506 49.2705 16.7355 49.1443 16.7381C49.0232 16.7332 48.9033 16.763 48.7985 16.824C48.6938 16.885 48.6087 16.9746 48.5532 17.0823C48.3979 17.4297 48.3311 17.8102 48.3586 18.1897C48.3448 18.5474 48.414 18.9033 48.5607 19.2298C48.6139 19.3547 48.7041 19.4604 48.8191 19.5326C48.9341 19.6048 49.0685 19.6401 49.2042 19.6338C49.3387 19.6358 49.4727 19.6155 49.6007 19.574C49.7101 19.5368 49.8134 19.4838 49.9075 19.4169L50.132 20.2773Z" fill="#2A2F6E"/>
<path d="M53.8734 20.2025C53.6888 20.3603 53.4716 20.4753 53.2374 20.5392C52.9586 20.6234 52.668 20.6613 52.3769 20.6515C52.0858 20.6576 51.797 20.5988 51.5314 20.4794C51.2999 20.3708 51.1011 20.203 50.9553 19.993C50.798 19.7664 50.6839 19.5127 50.6186 19.2448C50.5458 18.9055 50.5107 18.5592 50.5138 18.2122C50.4601 17.5472 50.6372 16.8839 51.0151 16.3341C51.1807 16.1347 51.3892 15.9753 51.625 15.8678C51.8608 15.7603 52.1178 15.7074 52.3769 15.7131C52.5749 15.713 52.7717 15.7433 52.9606 15.8029C53.1485 15.8626 53.3201 15.9651 53.4619 16.1021C53.6194 16.2621 53.7418 16.4533 53.821 16.6633C53.9187 16.9497 53.9643 17.2513 53.9557 17.5537C53.9557 17.6959 53.9557 17.8381 53.9557 17.9952C53.9557 18.1523 53.9108 18.3244 53.8809 18.504H51.5688C51.5614 18.8187 51.6473 19.1285 51.8157 19.3944C51.9045 19.5048 52.0195 19.5914 52.1501 19.6462C52.2807 19.7011 52.423 19.7226 52.564 19.7087C52.753 19.7115 52.9409 19.6785 53.1177 19.6114C53.2565 19.5667 53.3877 19.5011 53.5068 19.4169L53.8734 20.2025ZM52.3769 16.6783C52.269 16.6741 52.1619 16.6981 52.0661 16.748C51.9703 16.7979 51.8892 16.8718 51.8307 16.9626C51.7033 17.2053 51.6341 17.4743 51.6287 17.7483H52.9456C52.9806 17.4713 52.9419 17.1899 52.8334 16.9327C52.7942 16.8458 52.7296 16.7729 52.6481 16.7234C52.5666 16.674 52.4721 16.6504 52.3769 16.6558V16.6783Z" fill="#2A2F6E"/>
<path d="M56.7767 16.8504H56.1182C56.1182 17.3966 56.0584 17.8979 56.0135 18.3469C55.981 18.7467 55.9109 19.1425 55.804 19.5291C55.7339 19.8038 55.6036 20.0594 55.4224 20.2773C55.3481 20.3693 55.2531 20.4423 55.1451 20.4904C55.0372 20.5385 54.9194 20.5604 54.8013 20.5542C54.667 20.5671 54.5317 20.5671 54.3973 20.5542C54.2939 20.5352 54.1949 20.4972 54.1055 20.442L54.2402 19.4692C54.299 19.4957 54.3627 19.5093 54.4272 19.5093C54.4917 19.5093 54.5555 19.4957 54.6143 19.4692C54.719 19.4169 54.8088 19.2597 54.8762 19.0053C54.964 18.6343 55.0191 18.2562 55.0408 17.8755C55.0408 17.3742 55.1081 16.6933 55.1306 15.8403H57.914V20.5467H56.7917L56.7767 16.8504Z" fill="#2A2F6E"/>
<path d="M59.8595 17.5014C59.988 17.4761 60.118 17.4586 60.2486 17.449H60.6077C60.8349 17.4427 61.0611 17.4808 61.2737 17.5612C61.4495 17.6229 61.6066 17.7285 61.7301 17.868C61.8456 18.0026 61.9299 18.161 61.977 18.3319C62.0295 18.5194 62.0547 18.7134 62.0519 18.9081C62.0584 19.161 62.0256 19.4135 61.9546 19.6563C61.8956 19.8568 61.7876 20.0394 61.6403 20.1876C61.477 20.3397 61.2794 20.4501 61.0642 20.5093C60.7791 20.5873 60.4841 20.6226 60.1887 20.6141C59.867 20.6141 59.5901 20.6141 59.3507 20.6141L58.7446 20.5692V15.8253H59.8595V17.5014ZM59.8595 19.5441C59.996 19.5813 60.1371 19.5989 60.2785 19.5965C60.3632 19.6056 60.4488 19.597 60.53 19.5712C60.6111 19.5455 60.686 19.5031 60.7499 19.4468C60.8576 19.3001 60.9081 19.1192 60.8921 18.938C60.9049 18.7652 60.8573 18.5933 60.7574 18.4516C60.6977 18.3903 60.6251 18.343 60.5449 18.3133C60.4646 18.2835 60.3787 18.272 60.2935 18.2796C60.146 18.277 59.9992 18.2997 59.8595 18.3469V19.5441Z" fill="#2A2F6E"/>
<path d="M65.3438 20.2774C65.1748 20.4087 64.9816 20.5053 64.7751 20.5617C64.5607 20.6214 64.3392 20.6516 64.1167 20.6515C63.8399 20.6588 63.5654 20.5998 63.3161 20.4794C63.0983 20.3614 62.9152 20.1886 62.7848 19.9781C62.6415 19.7484 62.5401 19.495 62.4855 19.2299C62.4256 18.8941 62.3981 18.5533 62.4032 18.2122C62.3515 17.5522 62.5085 16.8926 62.8522 16.3267C62.9987 16.1254 63.1932 15.9639 63.4179 15.8568C63.6426 15.7496 63.8905 15.7003 64.1391 15.7131C64.3708 15.7098 64.602 15.735 64.8275 15.7879C64.993 15.834 65.1535 15.8967 65.3064 15.975L65.037 16.9103C64.9347 16.8564 64.8268 16.8137 64.7153 16.7831C64.5958 16.7511 64.4723 16.736 64.3486 16.7382C64.2266 16.7337 64.1058 16.7635 63.9999 16.8244C63.8941 16.8853 63.8075 16.9747 63.75 17.0824C63.5985 17.4309 63.5318 17.8105 63.5555 18.1898C63.5417 18.5474 63.6108 18.9034 63.7575 19.2299C63.8117 19.3541 63.902 19.4592 64.0168 19.5313C64.1317 19.6034 64.2655 19.6392 64.401 19.6339C64.5356 19.6364 64.6697 19.6162 64.7976 19.574C64.9076 19.5385 65.0112 19.4854 65.1044 19.4169L65.3438 20.2774Z" fill="#2A2F6E"/>
<path d="M67.2295 18.5863H66.9751V20.5318H65.8452V15.8253H66.9601V17.8306L67.1921 17.7034L67.9777 15.8253H69.1824L68.3294 17.6361L67.9104 18.0027L68.3668 18.3693L69.3171 20.5318H68.0899L67.2295 18.5863Z" fill="#2A2F6E"/>
<path d="M69.4292 18.1823C69.378 17.5233 69.5521 16.8664 69.923 16.3192C70.097 16.1254 70.3099 15.9705 70.5477 15.8644C70.7856 15.7584 71.0431 15.7036 71.3035 15.7036C71.5639 15.7036 71.8214 15.7584 72.0593 15.8644C72.2971 15.9705 72.51 16.1254 72.684 16.3192C73.0279 16.8742 73.1877 17.5236 73.1404 18.1748C73.1938 18.833 73.0223 19.4898 72.6541 20.038C72.49 20.24 72.2804 20.4003 72.0423 20.5057C71.8043 20.6111 71.5447 20.6585 71.2848 20.644C70.0502 20.6515 69.4292 19.8284 69.4292 18.1823ZM70.5889 18.1823C70.5741 18.5506 70.6273 18.9184 70.7461 19.2673C70.7806 19.3823 70.8521 19.4828 70.9495 19.5532C71.0469 19.6235 71.1647 19.6598 71.2848 19.6563C71.3967 19.6587 71.5067 19.628 71.6012 19.5681C71.6957 19.5082 71.7704 19.4218 71.8161 19.3196C71.9546 18.9573 72.0133 18.5694 71.9882 18.1823C72.006 17.809 71.9526 17.4358 71.831 17.0824C71.7917 16.9757 71.7217 16.883 71.6298 16.8161C71.538 16.7491 71.4283 16.7108 71.3147 16.706C71.2011 16.7012 71.0886 16.7301 70.9915 16.7891C70.8943 16.8481 70.8167 16.9345 70.7685 17.0375C70.6239 17.4009 70.5626 17.7921 70.5889 18.1823Z" fill="#2A2F6E"/>
<path d="M76.3205 16.8504H74.8914V20.5318H73.769V15.8253H76.3205V16.8504Z" fill="#2A2F6E"/>
<path d="M76.478 18.1823C76.4268 17.5233 76.601 16.8664 76.9718 16.3192C77.1459 16.1254 77.3587 15.9705 77.5966 15.8644C77.8344 15.7584 78.0919 15.7036 78.3523 15.7036C78.6128 15.7036 78.8703 15.7584 79.1081 15.8644C79.346 15.9705 79.5588 16.1254 79.7328 16.3192C80.0794 16.8733 80.2417 17.5228 80.1968 18.1748C80.2479 18.8339 80.0738 19.4908 79.7029 20.038C79.5389 20.24 79.3292 20.4003 79.0912 20.5057C78.8532 20.6111 78.5935 20.6585 78.3336 20.644C77.0691 20.6515 76.478 19.8284 76.478 18.1823ZM77.6378 18.1823C77.6229 18.5506 77.6762 18.9184 77.7949 19.2673C77.8305 19.3817 77.9023 19.4815 77.9994 19.5516C78.0965 19.6218 78.2138 19.6585 78.3336 19.6563C78.4455 19.6587 78.5556 19.628 78.65 19.5681C78.7445 19.5082 78.8193 19.4218 78.8649 19.3196C79.0035 18.9573 79.0622 18.5694 79.037 18.1823C79.0548 17.809 79.0015 17.4358 78.8798 17.0824C78.8415 16.9688 78.7678 16.8704 78.6695 16.8018C78.5712 16.7331 78.4535 16.6977 78.3336 16.7008C78.2245 16.7023 78.1181 16.7347 78.0267 16.7943C77.9353 16.8539 77.8627 16.9382 77.8173 17.0375C77.6728 17.4009 77.6114 17.7921 77.6378 18.1823Z" fill="#2A2F6E"/>
<path d="M83.6086 18.1224L82.4863 15.8253H83.8032L84.2821 16.9402L84.4616 17.5388L84.6637 16.9402L85.15 15.8253H86.3622L85.2323 18.07L86.437 20.5168H85.165L84.5963 19.2897L84.3868 18.6237L84.1698 19.2897L83.6012 20.5168H82.3965L83.6086 18.1224Z" fill="#2A2F6E"/>
<path d="M86.6465 18.1823C86.5989 17.5247 86.7699 16.8697 87.1328 16.3192C87.3068 16.1254 87.5197 15.9705 87.7575 15.8644C87.9954 15.7584 88.2529 15.7036 88.5133 15.7036C88.7737 15.7036 89.0313 15.7584 89.2691 15.8644C89.507 15.9705 89.7198 16.1254 89.8938 16.3192C90.2437 16.8719 90.4064 17.5225 90.3577 18.1748C90.4053 18.8325 90.2343 19.4874 89.8714 20.038C89.705 20.2393 89.4938 20.3989 89.2548 20.5041C89.0158 20.6093 88.7555 20.6573 88.4946 20.644C87.26 20.6515 86.6465 19.8284 86.6465 18.1823ZM87.7988 18.1823C87.7839 18.5506 87.8372 18.9184 87.9559 19.2673C87.9931 19.3766 88.0623 19.4722 88.1546 19.5416C88.2468 19.6111 88.3578 19.6513 88.4731 19.6569C88.5884 19.6626 88.7028 19.6334 88.8013 19.5733C88.8999 19.5132 88.9781 19.4248 89.0259 19.3196C89.168 18.9583 89.2269 18.5695 89.198 18.1823C89.2158 17.809 89.1625 17.4358 89.0408 17.0824C89.0036 16.9681 88.9301 16.8691 88.8315 16.8002C88.733 16.7314 88.6147 16.6965 88.4946 16.7008C88.3864 16.7019 88.2807 16.7342 88.1905 16.794C88.1002 16.8537 88.0291 16.9383 87.9858 17.0375C87.8343 17.3991 87.7702 17.7913 87.7988 18.1823Z" fill="#2A2F6E"/>
<path d="M91.3901 18.5863V17.7408H91.839C91.9157 17.7435 91.9923 17.731 92.0642 17.704C92.1361 17.677 92.2019 17.6362 92.258 17.5837C92.309 17.5375 92.3495 17.4808 92.3766 17.4175C92.4037 17.3542 92.4168 17.2859 92.4151 17.217C92.4151 16.9103 92.2206 16.7531 91.8315 16.7531C91.6638 16.7489 91.4966 16.7742 91.3377 16.828C91.2145 16.8657 91.0963 16.9185 90.986 16.9851L90.7316 16.0947C90.9315 15.9858 91.1456 15.9053 91.3676 15.8552C91.6366 15.7864 91.913 15.7512 92.1907 15.7505C93.0886 15.7505 93.53 16.1471 93.53 16.9252C93.534 17.1512 93.4827 17.3747 93.3804 17.5762C93.2916 17.7728 93.131 17.9281 92.9314 18.0102V18.0551C93.1651 18.1087 93.3705 18.2474 93.5076 18.4442C93.6358 18.672 93.698 18.9311 93.6872 19.1924C93.6859 19.3835 93.653 19.5732 93.5899 19.7536C93.5203 19.9228 93.4127 20.0738 93.2756 20.195C93.1262 20.3297 92.9504 20.4316 92.7593 20.4943C92.5181 20.5738 92.2651 20.6118 92.0111 20.6066C91.7588 20.6104 91.5071 20.5802 91.2629 20.5168C91.0738 20.4708 90.8923 20.3977 90.7241 20.2998L90.9486 19.3869C91.08 19.4609 91.221 19.5163 91.3676 19.5516C91.5344 19.5909 91.7051 19.6109 91.8764 19.6114C92.3403 19.6114 92.5648 19.4318 92.5648 19.0652C92.5675 18.9948 92.5532 18.9248 92.5233 18.861C92.4933 18.7972 92.4486 18.7415 92.3927 18.6986C92.1957 18.593 91.9716 18.5487 91.7492 18.5714L91.3901 18.5863Z" fill="#2A2F6E"/>
<path d="M96.3812 18.7509L95.9622 18.8632L95.2888 20.5317H93.9868L94.7351 19.0353L95.1017 18.736C94.8486 18.6716 94.6309 18.5104 94.4956 18.287C94.3282 18.0155 94.2449 17.7005 94.2562 17.3816C94.2365 17.1503 94.2686 16.9174 94.3501 16.7C94.4317 16.4825 94.5606 16.286 94.7276 16.1246C95.1636 15.8191 95.694 15.6786 96.2241 15.728C96.4859 15.728 96.7329 15.728 96.9723 15.7654C97.1684 15.7881 97.3631 15.8205 97.5559 15.8627V20.5542H96.4336L96.3812 18.7509ZM96.3812 18.1224V16.7681C96.2734 16.7187 96.1554 16.6956 96.037 16.7007C95.5955 16.7007 95.3785 16.9477 95.3785 17.449C95.3785 17.9503 95.6255 18.1523 96.1268 18.1972L96.3812 18.1224Z" fill="#2A2F6E"/>
<path d="M100.586 18.4816L100.668 17.7334L100.264 18.519L98.9997 20.5318H98.2515V15.8253H99.3663V17.9578L99.284 18.7061L99.6207 17.9578L100.893 15.8702H101.641V20.5767H100.526L100.586 18.4816ZM99.6282 13.9099C99.627 14.0928 99.679 14.2722 99.7779 14.4261C99.8109 14.4773 99.8563 14.5193 99.91 14.5481C99.9637 14.5769 100.024 14.5916 100.085 14.5908C100.146 14.593 100.207 14.5797 100.262 14.5523C100.317 14.5248 100.364 14.484 100.399 14.4336C100.497 14.2785 100.554 14.1007 100.564 13.9173L101.409 14.1268C101.377 14.4872 101.208 14.8217 100.938 15.0621C100.689 15.2644 100.375 15.3706 100.055 15.3614C99.8928 15.3612 99.7316 15.3385 99.5759 15.2941C99.424 15.2518 99.2818 15.1807 99.1568 15.0846C99.0252 14.9821 98.9179 14.8518 98.8426 14.703C98.7472 14.5222 98.6911 14.3233 98.678 14.1194L99.6282 13.9099Z" fill="#2A2F6E"/>
<path d="M105.285 20.2774C105.116 20.4087 104.923 20.5053 104.716 20.5617C104.502 20.6213 104.28 20.6516 104.058 20.6515C103.781 20.6588 103.507 20.5998 103.257 20.4794C103.041 20.3587 102.859 20.1865 102.726 19.9781C102.583 19.7484 102.481 19.495 102.427 19.2298C102.371 18.8936 102.343 18.5531 102.344 18.2122C102.297 17.563 102.451 16.9148 102.786 16.3566C102.93 16.1487 103.124 15.9807 103.35 15.8682C103.577 15.7556 103.828 15.7023 104.08 15.7131C104.312 15.7098 104.543 15.735 104.769 15.7879C104.934 15.834 105.095 15.8967 105.248 15.975L104.986 16.9103C104.881 16.8562 104.77 16.8136 104.656 16.7831C104.537 16.7511 104.414 16.736 104.29 16.7382C104.168 16.7336 104.047 16.7635 103.941 16.8244C103.835 16.8852 103.749 16.9746 103.691 17.0824C103.54 17.4309 103.473 17.8105 103.497 18.1898C103.483 18.5474 103.552 18.9034 103.699 19.2298C103.753 19.3541 103.843 19.4592 103.958 19.5313C104.073 19.6034 104.207 19.6391 104.342 19.6339C104.479 19.6357 104.616 19.6155 104.746 19.574C104.853 19.5367 104.954 19.4838 105.046 19.4169L105.285 20.2774Z" fill="#2A2F6E"/>
<path d="M108.63 16.8504H107.597V20.5318H106.475V16.8504H105.405V15.8253H108.63V16.8504Z" fill="#2A2F6E"/>
<path d="M109.041 15.8403C109.221 15.8403 109.445 15.8029 109.715 15.7879C109.984 15.7729 110.276 15.7879 110.568 15.7879C111.005 15.7484 111.443 15.8507 111.817 16.0797C111.944 16.1872 112.043 16.3234 112.107 16.4769C112.171 16.6304 112.197 16.7969 112.184 16.9626C112.184 17.1867 112.13 17.4075 112.027 17.6061C111.919 17.8081 111.744 17.9667 111.533 18.0551C111.782 18.1091 112.002 18.254 112.15 18.4615C112.298 18.6691 112.364 18.9243 112.334 19.1774C112.348 19.3763 112.315 19.5759 112.237 19.7595C112.159 19.943 112.038 20.1052 111.885 20.2324C111.436 20.5048 110.911 20.6255 110.388 20.5766C110.164 20.5766 109.924 20.5766 109.64 20.5766C109.42 20.5679 109.2 20.5479 108.981 20.5168L109.041 15.8403ZM110.583 17.7483C110.653 17.7517 110.722 17.7408 110.788 17.7164C110.854 17.692 110.914 17.6544 110.964 17.6061C111.014 17.5595 111.054 17.5026 111.079 17.4393C111.105 17.376 111.117 17.3078 111.114 17.2395C111.126 17.0969 111.083 16.955 110.994 16.8429C110.865 16.7478 110.705 16.705 110.545 16.7232H110.119V17.7333L110.583 17.7483ZM110.119 19.6114H110.298H110.508C110.699 19.6287 110.889 19.5784 111.047 19.4692C111.107 19.4118 111.153 19.3418 111.183 19.2641C111.213 19.1865 111.225 19.1032 111.219 19.0203C111.222 18.9475 111.21 18.8748 111.185 18.8067C111.159 18.7385 111.12 18.6763 111.069 18.6237C111.004 18.5645 110.927 18.5199 110.843 18.4928C110.759 18.4657 110.67 18.4568 110.583 18.4666H110.119V19.6114Z" fill="#2A2F6E"/>
<path d="M112.985 16.1097C113.204 15.9844 113.441 15.8936 113.688 15.8403C114.002 15.7677 114.323 15.7325 114.646 15.7356C114.851 15.712 115.059 15.7369 115.252 15.8084C115.446 15.8799 115.62 15.9959 115.761 16.1471C115.991 16.4939 116.101 16.9065 116.075 17.3218C116.075 17.6211 116.075 17.9055 116.075 18.1973C116.075 18.4891 116.075 18.7584 116.075 19.0278C116.075 19.2972 116.075 19.5666 116.075 19.821C116.087 20.0746 116.13 20.3259 116.202 20.5692H115.229L115.057 19.993C114.954 20.1774 114.808 20.334 114.631 20.4495C114.423 20.5738 114.184 20.6337 113.942 20.6216C113.778 20.6292 113.615 20.6002 113.463 20.5368C113.312 20.4734 113.177 20.3771 113.067 20.2549C112.846 19.9717 112.735 19.6185 112.753 19.2598C112.73 19.0242 112.775 18.7871 112.881 18.5755C112.986 18.3638 113.149 18.1861 113.351 18.0626C113.85 17.8023 114.415 17.6955 114.975 17.7558C115.019 17.4924 114.996 17.2222 114.908 16.9702C114.859 16.8832 114.785 16.813 114.695 16.769C114.606 16.7249 114.505 16.7089 114.406 16.7232C114.21 16.7243 114.014 16.7469 113.823 16.7906C113.636 16.829 113.454 16.8919 113.284 16.9776L112.985 16.1097ZM114.324 19.6339C114.472 19.6433 114.619 19.5981 114.735 19.5067C114.837 19.4357 114.919 19.3405 114.975 19.2298V18.4816C114.838 18.4626 114.7 18.4626 114.563 18.4816C114.442 18.4877 114.323 18.5156 114.212 18.5639C114.117 18.6073 114.034 18.6743 113.972 18.7584C113.91 18.8537 113.878 18.9662 113.883 19.0802C113.875 19.2362 113.917 19.3906 114.002 19.5217C114.043 19.5645 114.094 19.597 114.15 19.6165C114.206 19.636 114.265 19.642 114.324 19.6339Z" fill="#2A2F6E"/>
<path d="M47.79 24.9614C48.0372 24.91 48.287 24.8725 48.5383 24.8491C48.8191 24.8184 49.1013 24.8034 49.3838 24.8042C49.6678 24.8016 49.9512 24.8292 50.2293 24.8866C50.4989 24.9348 50.7544 25.0421 50.9775 25.2008C51.2081 25.3731 51.393 25.5992 51.5163 25.8593C51.6639 26.2118 51.7329 26.5922 51.7183 26.9741C51.7296 27.3336 51.6712 27.6919 51.5462 28.0292C51.4464 28.2955 51.2878 28.5359 51.0823 28.7325C50.8895 28.9123 50.6597 29.0477 50.4089 29.1291C50.1669 29.2062 49.9146 29.2466 49.6606 29.2488H49.3613H49.1818H49.0546V31.4935H47.79V24.9614ZM48.9797 28.1489C49.0493 28.1577 49.1197 28.1577 49.1893 28.1489H49.3988C49.5328 28.1509 49.6664 28.1333 49.7953 28.0965C49.9212 28.0587 50.0364 27.9921 50.132 27.902C50.2372 27.7982 50.3145 27.6695 50.3565 27.5278C50.4188 27.3321 50.4467 27.127 50.4388 26.9218C50.4452 26.7441 50.4198 26.5668 50.364 26.398C50.3216 26.2669 50.247 26.1486 50.147 26.0538C50.0593 25.9664 49.9514 25.9021 49.8327 25.8668C49.7114 25.8305 49.5853 25.8129 49.4586 25.8144C49.2978 25.8108 49.1371 25.8258 48.9797 25.8593V28.1489Z" fill="#2A2F6E"/>
<path d="M51.8155 29.129C51.7656 28.4701 51.9396 27.8136 52.3094 27.2659C52.4834 27.0722 52.6962 26.9172 52.9341 26.8112C53.1719 26.7051 53.4294 26.6503 53.6899 26.6503C53.9503 26.6503 54.2078 26.7051 54.4457 26.8112C54.6835 26.9172 54.8964 27.0722 55.0704 27.2659C55.4133 27.8213 55.573 28.4704 55.5268 29.1215C55.5802 29.7797 55.4087 30.4365 55.0404 30.9847C54.8764 31.1868 54.6667 31.3471 54.4287 31.4524C54.1907 31.5578 53.9311 31.6052 53.6712 31.5907C52.4366 31.5982 51.8155 30.7752 51.8155 29.129ZM52.9753 29.129C52.9568 29.4969 53.0076 29.8649 53.125 30.214C53.1595 30.3291 53.2309 30.4295 53.3283 30.4999C53.4257 30.5702 53.5436 30.6065 53.6637 30.6031C53.7755 30.6054 53.8856 30.5747 53.9801 30.5148C54.0746 30.455 54.1493 30.3685 54.1949 30.2664C54.3335 29.9041 54.3922 29.5161 54.367 29.129C54.3848 28.7557 54.3315 28.3825 54.2099 28.0291C54.1748 27.9154 54.1053 27.8154 54.011 27.7428C53.9167 27.6702 53.8022 27.6285 53.6833 27.6236C53.5644 27.6187 53.4468 27.6507 53.3469 27.7153C53.2469 27.7799 53.1694 27.8738 53.125 27.9842C52.9905 28.3499 52.9394 28.741 52.9753 29.129Z" fill="#2A2F6E"/>
<path d="M58.9388 31.2242C58.7717 31.354 58.5812 31.4505 58.3776 31.5085C58.1632 31.5677 57.9417 31.5979 57.7192 31.5983C57.442 31.6103 57.1664 31.551 56.9186 31.4262C56.6991 31.3106 56.5155 31.1373 56.3873 30.9249C56.2411 30.6967 56.1395 30.4428 56.088 30.1767C56.025 29.8412 55.9949 29.5004 55.9982 29.1591C55.9554 28.5102 56.1092 27.8635 56.4397 27.3034C56.5868 27.0986 56.7833 26.9342 57.0109 26.8257C57.2385 26.7171 57.4899 26.6678 57.7416 26.6824C57.9733 26.6795 58.2044 26.7047 58.43 26.7572C58.595 26.801 58.7535 26.8664 58.9014 26.9517L58.6395 27.8796C58.5372 27.8256 58.4293 27.783 58.3178 27.7524C58.1958 27.7199 58.0699 27.7048 57.9437 27.7075C57.8229 27.7043 57.7037 27.7349 57.5993 27.7957C57.4949 27.8564 57.4094 27.9451 57.3526 28.0517C57.0869 28.7428 57.0869 29.5079 57.3526 30.1991C57.4058 30.324 57.496 30.4297 57.611 30.5019C57.726 30.5741 57.8604 30.6095 57.996 30.6032C58.1308 30.6087 58.2655 30.5884 58.3926 30.5433C58.502 30.5061 58.6053 30.4532 58.6994 30.3862L58.9388 31.2242Z" fill="#2A2F6E"/>
<path d="M62.1042 31.2241C61.9371 31.3539 61.7466 31.4504 61.543 31.5084C61.3284 31.5671 61.107 31.5973 60.8846 31.5982C60.61 31.6076 60.3374 31.5485 60.0914 31.4261C59.8737 31.3081 59.6906 31.1353 59.5602 30.9248C59.4187 30.695 59.3199 30.4415 59.2684 30.1766C59.2054 29.8411 59.1753 29.5003 59.1786 29.159C59.1319 28.5098 59.286 27.8619 59.62 27.3033C59.7665 27.0996 59.9617 26.9359 60.1879 26.8274C60.4141 26.7189 60.664 26.669 60.9145 26.6823C61.1462 26.6785 61.3774 26.7037 61.6029 26.7571C61.7768 26.7958 61.9453 26.8561 62.1042 26.9367L61.8423 27.8645C61.7375 27.8104 61.6271 27.7678 61.5131 27.7373C61.3936 27.7053 61.2702 27.6902 61.1465 27.6924C61.0255 27.6884 60.9059 27.7186 60.8014 27.7795C60.6968 27.8403 60.6116 27.9295 60.5553 28.0366C60.3969 28.3832 60.3275 28.7638 60.3533 29.144C60.3395 29.5016 60.4087 29.8576 60.5553 30.184C60.6095 30.3083 60.6999 30.4134 60.8147 30.4855C60.9295 30.5576 61.0634 30.5933 61.1988 30.5881C61.3361 30.5937 61.4732 30.5734 61.6029 30.5282C61.7099 30.491 61.8107 30.438 61.9022 30.3711L62.1042 31.2241Z" fill="#2A2F6E"/>
<path d="M64.9397 29.4283L65.022 28.6801L64.6778 29.4807L63.4133 31.4935H62.665V26.7795H63.75V28.912L63.6677 29.6603L64.0044 28.912L65.2764 26.8244H66.0246V31.5234H64.9397V29.4283Z" fill="#2A2F6E"/>
<path d="M69.1672 29.4284L69.2495 28.6801L68.8979 29.4808L67.6408 31.4935H66.8926V26.7796H68.0149V28.9121L67.9326 29.6603L68.2768 28.9121L69.5414 26.8245H70.2896V31.5235H69.1672V29.4284ZM68.2095 24.8566C68.2082 25.0396 68.2602 25.219 68.3591 25.3729C68.3938 25.4242 68.4407 25.4661 68.4955 25.4948C68.5504 25.5236 68.6115 25.5382 68.6734 25.5375C68.7345 25.5384 68.795 25.5246 68.8497 25.4973C68.9044 25.4699 68.9517 25.4298 68.9877 25.3804C69.0827 25.2265 69.1392 25.052 69.1523 24.8716L69.9978 25.0736C69.9565 25.433 69.7863 25.7653 69.5189 26.0089C69.2719 26.2095 68.9616 26.3156 68.6435 26.3082C68.4815 26.3084 68.3202 26.2857 68.1646 26.2409C68.0105 26.1986 67.8657 26.1275 67.7381 26.0314C67.6065 25.9289 67.4991 25.7986 67.4238 25.6498C67.3318 25.4677 67.2759 25.2695 67.2592 25.0661L68.2095 24.8566Z" fill="#2A2F6E"/>
<path d="M73.8664 31.2241C73.6993 31.3539 73.5087 31.4504 73.3052 31.5084C73.0906 31.5671 72.8692 31.5973 72.6468 31.5982C72.3645 31.6135 72.0832 31.5542 71.8312 31.4261C71.6117 31.3105 71.4281 31.1372 71.2999 30.9248C71.1537 30.6966 71.0521 30.4427 71.0006 30.1766C70.9376 29.8411 70.9075 29.5003 70.9108 29.159C70.868 28.5101 71.0218 27.8634 71.3523 27.3033C71.4987 27.0996 71.694 26.9359 71.9202 26.8274C72.1464 26.7189 72.3962 26.669 72.6468 26.6823C72.8809 26.6791 73.1145 26.7042 73.3426 26.7571C73.5076 26.8009 73.6661 26.8663 73.814 26.9516L73.5521 27.8795C73.4498 27.8255 73.3419 27.7829 73.2304 27.7523C73.1083 27.7203 72.9824 27.7052 72.8563 27.7074C72.7353 27.7034 72.6157 27.7335 72.5112 27.7944C72.4066 27.8553 72.3214 27.9444 72.2652 28.0516C72.1099 28.399 72.043 28.7794 72.0706 29.159C72.0583 29.5157 72.1248 29.8708 72.2652 30.199C72.3201 30.3227 72.4107 30.4272 72.5253 30.4991C72.6399 30.5711 72.7734 30.6073 72.9086 30.6031C73.0459 30.6087 73.183 30.5884 73.3127 30.5432C73.422 30.506 73.5254 30.4531 73.6195 30.3861L73.8664 31.2241Z" fill="#2A2F6E"/>
<path d="M75.7596 29.5331H75.5052V31.4785H74.3828V26.7795H75.5052V28.7773L75.7296 28.6501L76.5228 26.7795H77.7274L76.867 28.5828L76.4554 28.9494L76.9044 29.3161L77.8547 31.4785H76.5976L75.7596 29.5331Z" fill="#2A2F6E"/>
<path d="M77.9668 29.1291C77.9192 28.4715 78.0902 27.8165 78.4531 27.266C78.6169 27.065 78.8252 26.9048 79.0615 26.7983C79.2979 26.6918 79.5559 26.6419 79.8149 26.6524C80.0822 26.6336 80.3501 26.6804 80.5953 26.7886C80.8404 26.8968 81.0554 27.0633 81.2216 27.2735C81.5646 27.8289 81.7242 28.478 81.6781 29.1291C81.7256 29.7868 81.5546 30.4417 81.1917 30.9922C81.0261 31.1945 80.8151 31.3547 80.5759 31.46C80.3366 31.5654 80.0759 31.6127 79.8149 31.5983C78.5654 31.5983 77.9668 30.7752 77.9668 29.1291ZM79.1266 29.1291C79.1105 29.4974 79.1638 29.8655 79.2837 30.2141C79.3179 30.3279 79.3882 30.4274 79.4841 30.4977C79.58 30.5679 79.6961 30.6049 79.8149 30.6031C79.9279 30.606 80.0391 30.5756 80.1349 30.5158C80.2307 30.4559 80.3068 30.3692 80.3537 30.2664C80.4923 29.9041 80.551 29.5162 80.5258 29.1291C80.5436 28.7558 80.4903 28.3826 80.3686 28.0292C80.3286 27.9157 80.2532 27.8181 80.1535 27.7507C80.0538 27.6834 79.9351 27.6498 79.8149 27.6551C79.7073 27.6546 79.6019 27.6854 79.5115 27.7439C79.4211 27.8024 79.3498 27.8859 79.3061 27.9843C79.1615 28.3477 79.1002 28.7389 79.1266 29.1291Z" fill="#2A2F6E"/>
<path d="M84.6187 29.4284L84.7085 28.6801L84.3643 29.4808L83.0549 31.4786H82.3066V26.7796H83.4215V28.9121L83.3392 29.6603L83.6759 28.9121L84.9404 26.8245H85.6887V31.5235H84.5663L84.6187 29.4284ZM83.661 24.8566C83.6652 25.0399 83.7195 25.2184 83.8181 25.3729C83.8505 25.4246 83.8959 25.467 83.9497 25.4958C84.0035 25.5247 84.0638 25.5391 84.1249 25.5375C84.1861 25.5391 84.2468 25.5255 84.3016 25.4982C84.3564 25.4708 84.4036 25.4303 84.4391 25.3804C84.5374 25.228 84.5942 25.0526 84.6037 24.8716L85.4493 25.0736C85.4169 25.434 85.2483 25.7685 84.9779 26.0089C84.7289 26.2112 84.4156 26.3174 84.0949 26.3082C83.9329 26.3084 83.7717 26.2857 83.6161 26.2409C83.4636 26.2003 83.321 26.129 83.197 26.0314C83.0652 25.9271 82.9558 25.7973 82.8753 25.6498C82.7866 25.4664 82.7309 25.2688 82.7107 25.0661L83.661 24.8566Z" fill="#2A2F6E"/>
<path d="M90.5371 30.7603C90.4352 30.7717 90.3323 30.7717 90.2303 30.7603H89.8936C89.6535 30.7622 89.4159 30.7111 89.1978 30.6106C88.9811 30.4987 88.794 30.3372 88.6516 30.1392C88.4868 29.8895 88.3653 29.6138 88.2924 29.3236C88.1955 28.9347 88.1503 28.5347 88.1577 28.1339C88.1145 27.4241 88.2923 26.7184 88.6665 26.1137C88.8185 25.8903 89.0243 25.7087 89.2649 25.5858C89.5055 25.4628 89.7732 25.4025 90.0433 25.4103H90.2902C90.3734 25.4157 90.456 25.4282 90.5371 25.4477V24.692H91.7268V25.5226C91.8359 25.4878 91.9491 25.4677 92.0635 25.4627H92.3778C92.6224 25.456 92.8647 25.5115 93.082 25.624C93.2992 25.7366 93.4843 25.9025 93.6199 26.1062C93.7851 26.3575 93.9042 26.6362 93.9716 26.9293C94.0649 27.3111 94.1076 27.7035 94.0988 28.0965C94.1069 28.4978 94.059 28.8982 93.9566 29.2862C93.8772 29.5886 93.7455 29.8748 93.5675 30.1317C93.4166 30.3457 93.2164 30.5202 92.9839 30.6405C92.7523 30.7583 92.4954 30.8174 92.2356 30.8126H91.9513C91.8648 30.8046 91.7795 30.7871 91.6969 30.7603V31.6806H90.5371V30.7603ZM90.2079 29.7875H90.395C90.462 29.7958 90.5299 29.7958 90.597 29.7875V26.5028H90.4249H90.2453C90.1112 26.5045 89.9801 26.5422 89.8655 26.6119C89.751 26.6817 89.6574 26.781 89.5943 26.8993C89.4008 27.302 89.3157 27.7482 89.3474 28.1938C89.3248 28.6027 89.4019 29.0109 89.5719 29.3835C89.6263 29.5014 89.7126 29.6017 89.821 29.6731C89.9294 29.7445 90.0557 29.7841 90.1855 29.7875H90.2079ZM92.0336 26.4878H91.8316C91.7607 26.4933 91.6905 26.5058 91.6221 26.5252V29.7576C91.6716 29.7666 91.7222 29.7666 91.7717 29.7576H91.9588C92.0949 29.7565 92.2282 29.7183 92.3442 29.6471C92.4602 29.5759 92.5546 29.4744 92.6172 29.3536C92.8177 28.9584 92.9057 28.5158 92.8716 28.0741C92.892 27.6668 92.8204 27.2602 92.6621 26.8844C92.6078 26.7639 92.5193 26.662 92.4075 26.5915C92.2958 26.521 92.1657 26.4849 92.0336 26.4878Z" fill="#2A2F6E"/>
<path d="M97.8399 31.1269C97.6522 31.2859 97.4329 31.4033 97.1964 31.4711C96.9226 31.5558 96.6375 31.5986 96.3509 31.5983C96.0627 31.6069 95.7763 31.5507 95.5129 31.4337C95.2816 31.3213 95.0831 31.1512 94.9367 30.9398C94.7795 30.7132 94.6653 30.4596 94.6 30.1916C94.5239 29.8503 94.4888 29.5012 94.4952 29.1516C94.4416 28.4865 94.6186 27.8233 94.9966 27.2735C95.1676 27.0717 95.3827 26.9121 95.6254 26.807C95.868 26.7019 96.1317 26.6541 96.3958 26.6674C96.5913 26.6674 96.7857 26.6977 96.9719 26.7572C97.1614 26.8135 97.3338 26.9164 97.4733 27.0565C97.6346 27.2163 97.7574 27.4108 97.8324 27.6251C97.9301 27.9089 97.9757 28.208 97.9671 28.5081C97.978 28.655 97.978 28.8026 97.9671 28.9495C97.9671 29.1067 97.9297 29.2788 97.8997 29.4583H95.5952C95.5893 29.7752 95.6751 30.0869 95.8421 30.3562C95.9321 30.4648 96.0474 30.5495 96.1779 30.603C96.3084 30.6565 96.45 30.6771 96.5903 30.663C96.7787 30.6654 96.9661 30.635 97.144 30.5732C97.2803 30.5247 97.4089 30.4566 97.5256 30.3712L97.8399 31.1269ZM96.3434 27.6027C96.2345 27.5977 96.1263 27.6222 96.0302 27.6736C95.9341 27.7249 95.8536 27.8012 95.7972 27.8945C95.6627 28.1401 95.5907 28.4151 95.5877 28.6951H96.9046C96.932 28.4182 96.8935 28.1388 96.7924 27.8795C96.7537 27.7985 96.6934 27.7298 96.6182 27.6809C96.5429 27.6321 96.4556 27.605 96.3658 27.6027H96.3434Z" fill="#2A2F6E"/>
<path d="M102.606 32.5486H101.761L101.641 31.4786H99.1418L99.0221 32.5486H98.2065V30.4535H98.6555C98.7147 30.3379 98.7648 30.2178 98.8051 30.0943C98.886 29.8652 98.9486 29.63 98.9922 29.391C99.0628 29.03 99.1128 28.6652 99.1418 28.2985C99.1894 27.8012 99.2118 27.3017 99.2092 26.8021H102.038V30.4535H102.606V32.5486ZM100.923 30.5208V27.7748H100.212C100.212 27.9992 100.174 28.2462 100.152 28.523C100.13 28.7999 100.107 29.0468 100.07 29.2713C100.032 29.4957 99.9874 29.7576 99.9425 29.9746C99.9017 30.1582 99.8466 30.3383 99.7779 30.5133L100.923 30.5208Z" fill="#2A2F6E"/>
<path d="M106.251 31.1269C106.065 31.2845 105.848 31.4017 105.615 31.4711C105.341 31.5552 105.056 31.5981 104.769 31.5983C104.478 31.6068 104.19 31.5506 103.924 31.4337C103.692 31.3213 103.494 31.1512 103.347 30.9398C103.19 30.7132 103.076 30.4596 103.011 30.1916C102.938 29.8497 102.903 29.501 102.906 29.1516C102.852 28.4865 103.029 27.8233 103.407 27.2735C103.578 27.0717 103.793 26.9121 104.036 26.807C104.279 26.7019 104.542 26.6541 104.806 26.6674C105.004 26.6679 105.201 26.6982 105.39 26.7572C105.578 26.817 105.75 26.9194 105.891 27.0565C106.048 27.2186 106.168 27.4126 106.243 27.6251C106.347 27.9074 106.396 28.2073 106.385 28.5081C106.396 28.655 106.396 28.8026 106.385 28.9495C106.385 29.1067 106.348 29.2788 106.318 29.4583H104.006C104 29.7752 104.086 30.0869 104.253 30.3562C104.343 30.4642 104.459 30.5486 104.589 30.6021C104.719 30.6555 104.861 30.6764 105.001 30.663C105.189 30.6654 105.377 30.635 105.555 30.5732C105.693 30.5233 105.824 30.4553 105.944 30.3712L106.251 31.1269ZM104.754 27.6027C104.645 27.5977 104.537 27.6222 104.441 27.6736C104.345 27.7249 104.264 27.8012 104.208 27.8945C104.073 28.1401 104.001 28.4151 103.998 28.6951H105.315C105.35 28.4181 105.312 28.1368 105.203 27.8795C105.167 27.8028 105.111 27.7369 105.042 27.6883C104.972 27.6398 104.891 27.6102 104.806 27.6027H104.754Z" fill="#2A2F6E"/>
<path d="M107.126 26.7796H107.964L108.076 27.3109C108.197 27.1105 108.364 26.9413 108.562 26.817C108.765 26.7117 108.992 26.6602 109.221 26.6674C109.432 26.6555 109.642 26.6989 109.831 26.7934C110.02 26.8879 110.181 27.0302 110.298 27.2061C110.582 27.76 110.706 28.3816 110.657 29.0019C110.699 29.6778 110.543 30.3512 110.208 30.9399C110.066 31.1541 109.87 31.3279 109.641 31.4446C109.412 31.5612 109.156 31.6167 108.899 31.6058C108.771 31.6105 108.642 31.5979 108.517 31.5684C108.411 31.5475 108.309 31.5069 108.218 31.4487V33.3567H107.096L107.126 26.7796ZM108.248 30.4236C108.306 30.4867 108.377 30.5354 108.457 30.5657C108.556 30.5991 108.66 30.6144 108.764 30.6106C108.885 30.612 109.003 30.578 109.104 30.5128C109.205 30.4476 109.285 30.3541 109.333 30.244C109.495 29.8433 109.564 29.4108 109.535 28.9795C109.552 28.6411 109.501 28.3027 109.385 27.9843C109.345 27.8855 109.276 27.8014 109.186 27.7438C109.096 27.6862 108.991 27.6578 108.884 27.6626C108.57 27.6626 108.36 27.8421 108.248 28.2163V30.4236Z" fill="#2A2F6E"/>
<path d="M111.338 27.0565C111.558 26.9325 111.795 26.8417 112.042 26.7871C112.356 26.7153 112.677 26.6802 112.999 26.6823C113.204 26.6605 113.412 26.6863 113.605 26.7577C113.798 26.8291 113.973 26.9441 114.114 27.0939C114.344 27.4434 114.455 27.8584 114.428 28.2761C114.428 28.5679 114.428 28.8597 114.428 29.144C114.428 29.4284 114.428 29.7052 114.428 29.9821C114.428 30.2589 114.428 30.5133 114.428 30.7303C114.436 30.9844 114.479 31.2361 114.556 31.4786H113.643L113.463 30.9024H113.426C113.327 31.0898 113.18 31.2474 112.999 31.3588C112.795 31.4848 112.558 31.5473 112.318 31.5384C112.154 31.5467 111.989 31.5173 111.838 31.4525C111.686 31.3877 111.551 31.2891 111.443 31.1643C111.217 30.8864 111.102 30.5344 111.121 30.1766C111.1 29.9393 111.146 29.7008 111.253 29.488C111.36 29.2751 111.524 29.0964 111.727 28.972C112.226 28.7098 112.792 28.6054 113.351 28.6727C113.394 28.4062 113.368 28.1333 113.276 27.8795C113.228 27.7918 113.154 27.7211 113.065 27.6769C112.975 27.6327 112.874 27.6172 112.775 27.6326C112.578 27.6336 112.383 27.6562 112.191 27.6999C112.007 27.7397 111.829 27.8026 111.66 27.887L111.338 27.0565ZM112.685 30.5882C112.833 30.5931 112.978 30.5483 113.097 30.4609C113.193 30.3861 113.272 30.2918 113.329 30.1841V29.3984C113.192 29.3836 113.054 29.3836 112.917 29.3984C112.799 29.4081 112.683 29.4359 112.573 29.4808C112.476 29.522 112.393 29.5894 112.333 29.6753C112.267 29.7689 112.235 29.8826 112.244 29.997C112.233 30.1548 112.272 30.312 112.356 30.446C112.396 30.4934 112.447 30.5309 112.504 30.5556C112.561 30.5803 112.623 30.5914 112.685 30.5882Z" fill="#2A2F6E"/>
<path d="M119.075 32.5485H118.259L118.132 31.4785H115.229V26.7795H116.344V30.4534H117.406V26.7795H118.529V30.4534H119.09L119.075 32.5485Z" fill="#2A2F6E"/>
<path d="M121.874 29.4283L121.963 28.6801L121.619 29.4807L120.355 31.4935H119.606V26.7795H120.721V28.912L120.639 29.6603L120.983 28.912L122.248 26.8244H122.996V31.5234H121.874V29.4283Z" fill="#2A2F6E"/>
<path d="M126.109 29.4283L126.191 28.6801L125.847 29.4807L124.582 31.4935H123.834V26.7795H124.956V28.912L124.874 29.6603L125.211 28.912L126.483 26.8244H127.231V31.5234H126.116L126.109 29.4283Z" fill="#2A2F6E"/>
<path d="M17.7409 31.1793C15.9002 29.2563 14.4636 29.4059 12.3535 27.2286V23.1506C14.4636 25.328 15.9002 25.1784 17.7409 27.1014V31.1793Z" fill="white"/>
<path d="M17.7409 25.9416C15.9002 24.0186 14.4636 24.1683 12.3535 21.9909V17.913C14.4636 20.0903 15.9002 19.9407 17.7409 21.8637V25.9416Z" fill="white"/>
<path d="M17.7409 20.8161C15.9002 18.8856 14.4636 19.0428 12.3535 16.8654V12.7875C14.4636 14.9649 15.9002 14.8077 17.7409 16.7382V20.8161Z" fill="white"/>
<path d="M17.7406 14.733C16.7005 12.7875 15.1367 12.4882 15.1367 10.5578C15.1367 7.98381 17.3814 6.94376 17.7406 4.49701V14.733Z" fill="white"/>
<path d="M18.7061 4.4895C19.0802 6.93625 21.3174 7.97631 21.3174 10.5503C21.3174 12.4583 19.7461 12.795 18.7061 14.7254V4.4895Z" fill="white"/>
<path d="M23.9962 27.2286C21.8862 29.4059 20.4496 29.2563 18.6089 31.1793V27.1014C20.4496 25.1784 21.8862 25.328 23.9962 23.1506V27.2286Z" fill="white"/>
<path d="M23.9962 21.9909C21.8862 24.1683 20.4496 24.0186 18.6089 25.9416V21.8637C20.4496 19.9407 21.8862 20.0903 23.9962 17.913V21.9909Z" fill="white"/>
<path d="M23.9962 16.8654C21.8862 19.0428 20.4496 18.8856 18.6089 20.8161V16.7382C20.4496 14.8077 21.8862 14.9649 23.9962 12.7875V16.8654Z" fill="white"/>
</svg>
