<svg width="77" height="14" viewBox="0 0 77 14" fill="none" xmlns="http://www.w3.org/2000/svg">
<g clip-path="url(#clip0)">
<path d="M14.5183 6.06705C14.5183 6.06705 14.8803 2.12683 14.9105 1.74908C14.9202 1.52591 14.8834 1.30313 14.8023 1.09387C14.7212 0.884602 14.5975 0.693088 14.4383 0.530609C14.2792 0.368131 14.0879 0.237974 13.8757 0.14781C13.6635 0.0576464 13.4348 0.00929855 13.2029 0.00561595H2.89077C2.41528 -0.0264936 1.94583 0.123319 1.58433 0.422533C1.22282 0.721747 0.998438 1.14621 0.959884 1.60379C0.911612 2.05709 0.0608162 11.5648 0.000476135 12.1169C-0.0300772 12.3502 -0.00924057 12.5871 0.0616278 12.8121C0.132496 13.0371 0.251806 13.2453 0.41178 13.4229C0.571754 13.6006 0.768802 13.7438 0.990081 13.8432C1.21136 13.9426 1.4519 13.9959 1.69603 13.9998H11.9538C13.3175 13.9998 13.8425 13.3082 13.9571 12.2563C14.0295 11.6171 14.3614 7.74659 14.3614 7.74659H8.16449L7.89296 10.7395H6.33015L7.00596 3.28914H8.5748L8.32741 6.07286H14.5183V6.06705Z" fill="#00A5BF"/>
<path d="M24.0821 1.1972C23.8589 1.81322 22.0547 7.24701 22.0547 7.24701L22.8512 2.15959e-05H16.6603L15.3569 14H20.0273C20.4162 14.0338 20.8052 13.9364 21.1277 13.7243C21.4503 13.5123 21.6862 13.1989 21.7952 12.8377L23.7442 7.65382L23.1408 13.9942H29.3076L30.5868 2.15959e-05H25.7596C25.386 -0.00476692 25.0214 0.110269 24.7231 0.327012C24.4249 0.543755 24.21 0.849889 24.1123 1.1972" fill="#00A5BF"/>
<path d="M55.4586 0L54.9095 6.39269H53.3045L53.9079 0H47.6687C47.6687 0 47.0653 6.75882 47.011 7.40971C46.9743 7.65054 46.9933 7.89621 47.0667 8.12913C47.1401 8.36204 47.2661 8.57644 47.4356 8.75695C47.6052 8.93746 47.8141 9.07962 48.0474 9.17324C48.2806 9.26686 48.5325 9.30962 48.785 9.29846H54.6199L54.4871 10.7165H46.7395L46.4619 14H58.7653C59.2251 14.0047 59.6682 13.8336 59.9973 13.5242C60.3264 13.2148 60.5148 12.7924 60.5212 12.3495L61.6555 0H55.4586Z" fill="#00A5BF"/>
<path d="M71.6299 3.07756e-05H63.2185L61.9453 13.9942H68.1422L68.5284 9.65881H74.5624C74.8089 9.67986 75.0573 9.64978 75.2907 9.57058C75.5242 9.49138 75.7373 9.36492 75.9157 9.1997C76.0941 9.03449 76.2336 8.83436 76.3249 8.61281C76.4163 8.39126 76.4572 8.15343 76.445 7.91535C76.4873 7.45043 76.976 2.14449 77.0122 1.67957C77.0212 1.44711 76.9784 1.2155 76.8865 1.00035C76.7947 0.785203 76.6561 0.591515 76.4799 0.432347C76.3038 0.273178 76.0943 0.152228 75.8655 0.0776526C75.6368 0.00307676 75.3941 -0.023392 75.1538 3.07756e-05H71.6299ZM68.7879 6.75885L69.1077 3.27193H70.6584L70.3447 6.75885H68.7879Z" fill="#00A5BF"/>
<path d="M37.9421 4.70154L38.0748 3.28352H45.8587L46.1363 0H32.1736L30.9004 14H43.2641C43.4893 14.0062 43.7135 13.9691 43.9236 13.8909C44.1337 13.8127 44.3255 13.6949 44.4879 13.5445C44.6502 13.3941 44.7799 13.2141 44.8691 13.0149C44.9584 12.8157 45.0056 12.6013 45.0079 12.3844C45.0863 11.5068 45.4725 7.34579 45.5389 6.57285C45.5706 6.32559 45.5444 6.07463 45.4622 5.83839C45.3801 5.60216 45.244 5.38666 45.064 5.20773C44.884 5.02879 44.6646 4.89097 44.4221 4.80438C44.1795 4.71779 43.9199 4.68463 43.6623 4.70735H37.9421V4.70154ZM38.9437 11.0942H37.3628L37.6766 7.60731H39.2575L38.9437 11.0942Z" fill="#00A5BF"/>
</g>
<defs>
<clipPath id="clip0">
<rect width="77" height="14" fill="white"/>
</clipPath>
</defs>
</svg>
