<svg width="281" height="101" viewBox="0 0 281 101" fill="none" xmlns="http://www.w3.org/2000/svg">
<path d="M255.104 0.912109V33.1524L265.496 33.1667L280.958 56.119H270.249L255.104 33.8071V56.119H246.715V0.912109H255.104Z" fill="#B3DCDB"/>
<path d="M238.722 0.912109V56.119H230.205V0.912109H238.722Z" fill="#B3DCDB"/>
<path d="M66.3705 37.7435C66.3491 35.1577 66.7473 32.5855 67.5495 30.1272C68.285 27.8573 69.4896 25.7675 71.0852 23.9934C72.7204 22.2167 74.7281 20.8232 76.9647 19.9128C79.3133 18.9244 82.0422 18.4302 85.1514 18.4302C88.2437 18.4302 90.9642 18.9244 93.3128 19.9128C95.5493 20.8234 97.5569 22.2168 99.1923 23.9934C100.79 25.7705 102.002 27.8589 102.753 30.1272C103.572 32.5822 103.979 35.1557 103.958 37.7435C103.979 40.3147 103.572 42.8715 102.753 45.309C102 47.5655 100.788 49.6415 99.1923 51.4062C97.6213 53.1287 95.6614 54.4842 93.3128 55.4726C90.9642 56.461 88.2437 56.9552 85.1514 56.9552C82.0433 56.9552 79.3143 56.461 76.9647 55.4726C74.615 54.4842 72.6552 53.1287 71.0852 51.4062C69.4915 49.6446 68.2868 47.5671 67.5495 45.309C66.7473 42.8682 66.349 40.3127 66.3705 37.7435ZM75.0896 37.7435C75.0896 39.6875 75.3513 41.3983 75.8746 42.8762C76.3318 44.2411 77.0605 45.4994 78.0166 46.5755C78.9019 47.5511 79.9929 48.318 81.2106 48.8208C82.4612 49.3317 83.8006 49.5899 85.1514 49.5804C86.4696 49.5867 87.7757 49.3284 88.9922 48.8208C90.2 48.3132 91.2816 47.5468 92.1608 46.5755C93.1171 45.4977 93.8491 44.2401 94.3139 42.8762C94.8436 41.3983 95.1084 39.6875 95.1084 37.7435C95.1084 35.8525 94.8436 34.1671 94.3139 32.6872C93.8407 31.3113 93.11 30.0381 92.1608 28.9354C91.2874 27.9364 90.2059 27.1407 88.9922 26.6043C87.7819 26.0728 86.4733 25.8021 85.1514 25.8097C83.797 25.7987 82.455 26.0693 81.2106 26.6043C79.9867 27.1357 78.8959 27.9318 78.0166 28.9354C77.0676 30.0363 76.3403 31.3103 75.8746 32.6872C75.3523 34.165 75.0906 35.8504 75.0896 37.7435Z" fill="#B3DCDB"/>
<path d="M186.932 37.7435C186.911 35.1577 187.31 32.5857 188.111 30.1272C188.847 27.8576 190.052 25.7679 191.647 23.9934C193.282 22.2168 195.29 20.8234 197.526 19.9128C199.875 18.9244 202.603 18.4302 205.711 18.4302C208.82 18.4302 211.541 18.9244 213.874 19.9128C216.111 20.8232 218.119 22.2167 219.754 23.9934C221.351 25.7705 222.564 27.8589 223.315 30.1272C224.133 32.5822 224.54 35.1557 224.519 37.7435C224.54 40.3147 224.133 42.8715 223.315 45.309C222.562 47.5655 221.349 49.6415 219.754 51.4062C218.182 53.1287 216.222 54.4842 213.874 55.4726C211.527 56.461 208.806 56.9552 205.711 56.9552C202.603 56.9552 199.875 56.461 197.526 55.4726C195.178 54.4842 193.218 53.1287 191.647 51.4062C190.054 49.6442 188.849 47.5668 188.111 45.309C187.309 42.868 186.911 40.3127 186.932 37.7435ZM195.651 37.7435C195.651 39.6875 195.916 41.3983 196.446 42.8762C196.902 44.2413 197.63 45.4997 198.586 46.5755C199.471 47.5511 200.562 48.318 201.78 48.8208C203.031 49.3316 204.37 49.5897 205.721 49.5804C207.039 49.5867 208.345 49.3284 209.562 48.8208C210.769 48.3132 211.851 47.5468 212.73 46.5755C213.688 45.4985 214.42 44.2406 214.883 42.8762C215.413 41.3983 215.678 39.6875 215.678 37.7435C215.678 35.8525 215.413 34.1671 214.883 32.6872C214.411 31.3107 213.681 30.0373 212.73 28.9354C211.857 27.9364 210.775 27.1407 209.562 26.6043C208.351 26.0728 207.043 25.8021 205.721 25.8097C204.366 25.7989 203.024 26.0694 201.78 26.6043C200.556 27.1357 199.465 27.9318 198.586 28.9354C197.633 30.0351 196.902 31.3092 196.434 32.6872C195.912 34.165 195.651 35.8504 195.651 37.7435Z" fill="#B3DCDB"/>
<path d="M148.978 19.2676L162.562 56.1193H171.409L158.431 19.2676H148.978Z" fill="#B3DCDB"/>
<path d="M177.272 19.2676C175.86 19.2676 174.506 19.8286 173.507 20.8272C172.508 21.8258 171.947 23.1802 171.947 24.5925C171.947 28.2203 177.272 34.8959 177.272 34.8959C177.272 34.8959 182.599 28.2902 182.599 24.5925C182.599 23.8931 182.461 23.2005 182.193 22.5544C181.925 21.9082 181.533 21.3211 181.038 20.8267C180.544 20.3322 179.957 19.94 179.31 19.6725C178.664 19.4049 177.972 19.2674 177.272 19.2676Z" fill="#B3DCDB"/>
<path d="M15.583 5.11816L33.2231 55.7835H42.9814L25.4431 5.11816H15.583Z" fill="#B3DCDB"/>
<path d="M47.6628 5.11816H37.8027L55.4444 55.7835H65.2028L47.6628 5.11816Z" fill="#B3DCDB"/>
<path d="M0.0419922 49.2624C0.0419922 51.0826 0.765063 52.8282 2.05215 54.1153C3.33923 55.4024 5.0849 56.1255 6.90511 56.1255C8.72532 56.1255 10.471 55.4024 11.7581 54.1153C13.0451 52.8282 13.7682 51.0826 13.7682 49.2624C13.7682 44.589 6.90669 35.9858 6.90669 35.9858C6.90669 35.9858 0.0419922 44.4952 0.0419922 49.2624Z" fill="#B3DCDB"/>
<path d="M277.074 20.8262C276.076 19.8276 274.721 19.2666 273.309 19.2666C271.897 19.2666 270.542 19.8276 269.544 20.8262C266.979 23.3909 266.022 31.8781 266.022 31.8781C266.022 31.8781 274.46 30.9723 277.076 28.3583C278.074 27.3592 278.635 26.0044 278.635 24.5919C278.635 23.1794 278.073 21.8249 277.074 20.8262Z" fill="#B3DCDB"/>
<path d="M137.957 37.3637C136.706 36.4927 135.336 35.8056 133.889 35.3233C132.343 34.7937 130.701 34.317 128.963 33.8932L126.378 33.2846C125.279 33.0303 124.236 32.7766 123.249 32.5234C122.358 32.3032 121.485 32.0153 120.638 31.6622C119.978 31.3998 119.368 31.0233 118.838 30.5498C118.624 30.3589 118.453 30.1244 118.337 29.8622C118.221 29.5999 118.163 29.3159 118.166 29.0291C118.149 28.4495 118.358 27.8861 118.749 27.4575C119.17 27.0134 119.68 26.6635 120.246 26.431C120.898 26.1564 121.583 25.9689 122.284 25.8733C122.65 25.8192 123.011 25.7811 123.37 25.7541V18.4619C122.442 18.4901 121.518 18.5729 120.6 18.7098C119.427 18.8883 118.273 19.1723 117.152 19.5584C116.078 19.9262 115.05 20.4145 114.087 21.0139C113.161 21.5874 112.328 22.2972 111.614 23.1194C110.905 23.9451 110.344 24.8869 109.955 25.9034C109.536 27.0301 109.331 28.2246 109.348 29.4264C109.296 31.6764 110.139 33.8551 111.692 35.4838C112.432 36.2622 113.282 36.9286 114.214 37.4622C115.199 38.0309 116.229 38.5177 117.293 38.9178C118.392 39.3358 119.514 39.6917 120.653 39.984C121.802 40.2796 122.917 40.537 123.997 40.7563C125.129 41.0106 126.232 41.268 127.306 41.5286C128.282 41.7612 129.239 42.071 130.166 42.455C130.912 42.7503 131.593 43.1899 132.168 43.7485C132.413 43.994 132.606 44.2866 132.735 44.6086C132.863 44.9306 132.925 45.2753 132.917 45.622C132.917 46.4515 132.684 47.1273 132.219 47.6496C131.726 48.1944 131.115 48.6195 130.433 48.8923C129.67 49.2055 128.868 49.4145 128.05 49.5136C127.719 49.5549 127.396 49.5819 127.074 49.6089V56.8979C127.794 56.8566 128.504 56.7978 129.229 56.712C130.525 56.5591 131.805 56.2932 133.055 55.9175C134.247 55.5599 135.395 55.0707 136.478 54.4587C138.615 53.2618 140.245 51.3302 141.066 49.0226C141.536 47.6699 141.764 46.245 141.739 44.8132C141.739 43.0726 141.401 41.6027 140.725 40.4035C140.041 39.1961 139.096 38.1574 137.957 37.3637Z" fill="#B3DCDB"/>
<path d="M137.983 28.8826C138.668 28.7042 139.311 28.3908 139.874 27.9608C140.437 27.5309 140.909 26.993 141.261 26.3786C141.614 25.7642 141.84 25.0857 141.927 24.3828C142.014 23.6798 141.96 22.9666 141.768 22.2847C141.576 21.6029 141.251 20.9662 140.81 20.4119C140.369 19.8576 139.822 19.3968 139.2 19.0564C138.579 18.7161 137.896 18.5031 137.192 18.4299C136.487 18.3567 135.775 18.4247 135.097 18.63C131.539 19.6343 126.626 26.553 126.626 26.553C126.626 26.553 134.492 29.8662 137.983 28.8826Z" fill="#B3DCDB"/>
<path d="M112.742 45.5152C111.343 45.7071 110.077 46.4472 109.223 47.5727C108.369 48.6981 107.997 50.1166 108.189 51.5162C108.381 52.9158 109.121 54.1819 110.247 55.0358C111.372 55.8897 112.791 56.2616 114.19 56.0697C117.783 55.5771 123.674 49.3956 123.674 49.3956C123.674 49.3956 116.405 45.013 112.742 45.5152Z" fill="#B3DCDB"/>
<path d="M202.198 98.0656V97.6733C202.058 97.8188 201.891 97.9359 201.707 98.0182C201.503 98.1073 201.282 98.1508 201.06 98.1454C200.814 98.1529 200.57 98.1149 200.338 98.0333C200.161 97.9703 200.003 97.8635 199.879 97.7229C199.762 97.5849 199.679 97.4219 199.635 97.2465C199.586 97.047 199.562 96.842 199.564 96.6365V94.0498H200.51V96.7076C200.505 96.7896 200.517 96.8717 200.546 96.9489C200.574 97.026 200.618 97.0965 200.674 97.156C200.739 97.213 200.814 97.2565 200.896 97.2839C200.978 97.3113 201.065 97.322 201.151 97.3155C201.307 97.3192 201.463 97.2928 201.61 97.2379C201.729 97.1904 201.837 97.1168 201.924 97.0223C202.007 96.9273 202.069 96.8155 202.106 96.6947C202.147 96.5593 202.168 96.4182 202.166 96.2765V94.0584H203.099V98.0656H202.198Z" fill="#BCBDBD"/>
<path d="M41.8039 92.0664V94.4074C41.8766 94.3256 41.9591 94.2532 42.0496 94.1918C42.1377 94.1297 42.2324 94.0776 42.332 94.0366C42.4305 93.9957 42.5332 93.9653 42.6381 93.9461C42.7411 93.9264 42.8458 93.9163 42.9507 93.9159C43.1512 93.9141 43.3509 93.9417 43.5434 93.9978C43.8826 94.093 44.1838 94.2911 44.4057 94.5647C44.5119 94.6962 44.6003 94.8412 44.6687 94.9958C44.7391 95.1556 44.7919 95.3226 44.826 95.4938C44.8605 95.6706 44.8778 95.8504 44.8778 96.0305C44.8798 96.3099 44.8405 96.5881 44.7613 96.8561C44.6912 97.1008 44.5724 97.3288 44.4121 97.5265C44.2519 97.7205 44.05 97.876 43.8215 97.9813C43.559 98.0971 43.2742 98.1537 42.9873 98.1473C42.8827 98.147 42.7782 98.1391 42.6748 98.1236C42.5717 98.1074 42.4706 98.0807 42.373 98.0438C42.2716 98.0031 42.1748 97.9518 42.0841 97.8908C41.9857 97.8221 41.8953 97.7426 41.8147 97.6537V98.0568H40.8921V92.0686L41.8039 92.0664ZM43.897 95.9917C43.8973 95.8352 43.8771 95.6794 43.8366 95.5283C43.8008 95.3817 43.7371 95.2434 43.6491 95.1209C43.5617 95.0007 43.4482 94.9019 43.3171 94.832C43.1659 94.7547 42.9976 94.7169 42.8278 94.7221C42.6668 94.7156 42.5068 94.7504 42.363 94.8232C42.2193 94.896 42.0965 95.0044 42.0065 95.1381C41.9199 95.2693 41.8585 95.4155 41.8254 95.5692C41.7877 95.723 41.7688 95.8808 41.7694 96.0392C41.7688 96.2033 41.7884 96.3669 41.8276 96.5263C41.8637 96.6765 41.9281 96.8184 42.0173 96.9445C42.1061 97.0671 42.2229 97.1669 42.3579 97.2355C42.5182 97.3132 42.695 97.3509 42.8731 97.3454C43.0427 97.3511 43.2108 97.3117 43.3602 97.2312C43.4879 97.1574 43.5959 97.0539 43.675 96.9294C43.7568 96.7969 43.8144 96.6509 43.8452 96.4983C43.8806 96.3318 43.8979 96.1619 43.897 95.9917Z" fill="#BCBDBD"/>
<path d="M52.5816 95.1361C52.5353 95.051 52.4705 94.9773 52.3919 94.9206C52.3167 94.8637 52.2298 94.824 52.1376 94.8042C52.0374 94.7801 51.9346 94.7685 51.8315 94.7697C51.6513 94.7635 51.4722 94.8012 51.3098 94.8796C51.1753 94.9501 51.0599 95.0522 50.9736 95.1771C50.8864 95.3077 50.8256 95.4542 50.7946 95.6082C50.7579 95.7738 50.7399 95.943 50.7407 96.1126C50.7404 96.2675 50.76 96.4218 50.799 96.5718C50.8359 96.7149 50.8987 96.85 50.9843 96.9705C51.0687 97.086 51.1786 97.1804 51.3055 97.2465C51.4515 97.3206 51.6139 97.3569 51.7776 97.3521C52.0132 97.3686 52.2457 97.2911 52.4243 97.1365C52.5894 96.9588 52.691 96.7314 52.7131 96.4898H53.6616C53.6195 96.7364 53.5471 96.9767 53.446 97.2055C53.3548 97.4031 53.226 97.581 53.0666 97.7293C52.9083 97.8726 52.7218 97.9812 52.5191 98.0483C52.2837 98.1234 52.0376 98.1598 51.7905 98.1561C51.4958 98.1622 51.2029 98.1102 50.9283 98.0031C50.6945 97.907 50.4853 97.7597 50.3161 97.5719C50.1505 97.3841 50.0257 97.1639 49.9497 96.9253C49.8656 96.6612 49.8241 96.3854 49.8268 96.1083C49.8248 95.8243 49.8655 95.5417 49.9475 95.2698C50.0206 95.0207 50.1447 94.7894 50.3118 94.5908C50.4802 94.3945 50.691 94.239 50.9283 94.1359C51.2071 94.0187 51.5076 93.9621 51.8099 93.97C52.0368 93.9687 52.2629 93.9969 52.4825 94.054C52.6827 94.1063 52.8709 94.1971 53.0364 94.3213C53.2012 94.4479 53.3371 94.6081 53.4352 94.7912C53.546 95.0051 53.6134 95.2388 53.6335 95.4789H52.7088C52.6857 95.3583 52.6427 95.2425 52.5816 95.1361Z" fill="#BCBDBD"/>
<path d="M62.5233 92.0664V98.0546H61.6007V97.6515C61.5191 97.7394 61.4288 97.8188 61.3313 97.8886C61.2421 97.9496 61.1468 98.0009 61.0467 98.0417C60.9501 98.079 60.8496 98.1058 60.7471 98.1214C60.6415 98.1371 60.5349 98.1451 60.4281 98.1452C60.1405 98.1515 59.8551 98.0949 59.5917 97.9792C59.3632 97.8738 59.1614 97.7183 59.0011 97.5243C58.8416 97.3261 58.7229 97.0983 58.6519 96.8539C58.5745 96.5856 58.536 96.3076 58.5376 96.0284C58.5376 95.8482 58.5549 95.6685 58.5894 95.4916C58.6225 95.3202 58.6753 95.1531 58.7467 94.9937C58.8151 94.839 58.9035 94.6941 59.0097 94.5626C59.115 94.43 59.2401 94.3144 59.3805 94.2198C59.5287 94.1251 59.6899 94.0525 59.859 94.0043C60.0508 93.9481 60.2498 93.9205 60.4496 93.9224C60.5551 93.923 60.6604 93.9324 60.7644 93.9504C60.8697 93.97 60.9729 93.9996 61.0726 94.0388C61.172 94.0795 61.2666 94.1308 61.355 94.1918C61.4462 94.2523 61.5289 94.3248 61.6007 94.4074V92.0664H62.5233ZM59.5055 95.9917C59.5056 96.1582 59.5222 96.3243 59.5551 96.4875C59.5859 96.6401 59.6436 96.7861 59.7254 96.9186C59.8047 97.0436 59.9135 97.1472 60.0422 97.2204C60.1917 97.3007 60.3598 97.3401 60.5294 97.3347C60.7082 97.3404 60.8857 97.3027 61.0467 97.2247C61.1814 97.1556 61.298 97.0559 61.3873 96.9337C61.4759 96.8075 61.5395 96.6656 61.5749 96.5155C61.6141 96.3561 61.6336 96.1925 61.6331 96.0284C61.6326 95.8701 61.6138 95.7124 61.577 95.5585C61.5419 95.4054 61.4807 95.2596 61.3959 95.1273C61.3107 95.0041 61.1987 94.9017 61.0683 94.8277C60.9168 94.7462 60.7466 94.7061 60.5747 94.7113C60.4049 94.7064 60.2367 94.7442 60.0854 94.8212C59.9538 94.8905 59.8402 94.9894 59.7534 95.1101C59.6646 95.2325 59.6002 95.3708 59.5637 95.5175C59.5241 95.6724 59.5046 95.8318 59.5055 95.9917Z" fill="#BCBDBD"/>
<path d="M71.4861 96.6689C71.4432 96.896 71.3631 97.1145 71.249 97.3155C71.0422 97.6721 70.7054 97.9347 70.3092 98.0484C70.0988 98.1078 69.8811 98.1375 69.6625 98.1368C69.3617 98.1441 69.0626 98.0906 68.783 97.9795C68.5464 97.8852 68.3347 97.7377 68.1644 97.5484C67.9977 97.3534 67.8736 97.1258 67.8001 96.8801C67.7182 96.606 67.6783 96.3212 67.6815 96.0351C67.6763 95.7415 67.7245 95.4493 67.8238 95.1729C67.913 94.9323 68.0501 94.7123 68.2269 94.5262C68.4013 94.3396 68.6138 94.1926 68.8498 94.0951C69.1052 93.9951 69.3775 93.9453 69.6517 93.9485C69.8632 93.9449 70.0738 93.977 70.2747 94.0434C70.6246 94.1598 70.9272 94.3867 71.1369 94.6901C71.242 94.8433 71.3274 95.0091 71.3913 95.1837C71.4564 95.3652 71.5027 95.5531 71.5292 95.7441C71.5569 95.9412 71.5663 96.1403 71.5573 96.3391H68.6192C68.6242 96.4698 68.6512 96.5988 68.699 96.7206C68.744 96.8361 68.8114 96.9416 68.8973 97.031C68.9893 97.1251 69.1002 97.1985 69.2227 97.2466C69.368 97.3014 69.5224 97.3277 69.6776 97.3242C69.7814 97.3251 69.8848 97.3135 69.9858 97.2897C70.0787 97.2679 70.167 97.23 70.2466 97.1776C70.3318 97.1204 70.4051 97.0472 70.4622 96.962C70.5259 96.8635 70.5725 96.7549 70.6002 96.6408L71.4861 96.6689ZM69.6064 94.7676C69.4823 94.7666 69.3589 94.7878 69.2422 94.8302C69.1366 94.8704 69.0388 94.9287 68.9533 95.0026C68.8671 95.0741 68.7942 95.1602 68.7377 95.257C68.682 95.3533 68.6427 95.4581 68.6214 95.5674H70.5808C70.5549 95.4592 70.512 95.3559 70.4536 95.2613C70.3963 95.1652 70.3234 95.0792 70.238 95.0069C70.1523 94.9328 70.0546 94.8738 69.9492 94.8323C69.8414 94.7899 69.7266 94.768 69.6108 94.7676H69.6064Z" fill="#BCBDBD"/>
<path d="M93.613 92.0662V94.3835C93.6906 94.3168 93.7744 94.2577 93.8631 94.2068C93.9545 94.1553 94.0496 94.1106 94.1476 94.0731C94.2433 94.0358 94.3421 94.0069 94.4429 93.9869C94.5363 93.966 94.6317 93.9551 94.7275 93.9545C94.9725 93.9477 95.2166 93.9864 95.4474 94.0688C95.6219 94.1349 95.7773 94.243 95.9001 94.3835C96.014 94.5213 96.0945 94.6836 96.1351 94.8577C96.1821 95.0525 96.2052 95.2523 96.204 95.4527V98.0545H95.2793V95.3966C95.2846 95.3123 95.2728 95.2278 95.2447 95.1482C95.2165 95.0685 95.1726 94.9954 95.1155 94.9332C95.0497 94.8734 94.9723 94.8278 94.8881 94.7992C94.8039 94.7706 94.7148 94.7597 94.6262 94.7672C94.474 94.7632 94.3228 94.7911 94.1821 94.8491C94.0627 94.8971 93.9553 94.9707 93.8674 95.0647C93.7821 95.1604 93.7176 95.2727 93.6777 95.3945C93.6341 95.5229 93.6122 95.6577 93.613 95.7933V98.0458H92.6904V92.0576L93.613 92.0662Z" fill="#BCBDBD"/>
<path d="M125.076 92.0664V98.0546H124.147V92.0664H125.076Z" fill="#BCBDBD"/>
<path d="M149.387 96.0609C149.384 95.7806 149.427 95.5017 149.514 95.2353C149.594 94.9894 149.724 94.7631 149.898 94.5714C150.077 94.3763 150.298 94.2245 150.544 94.1273C151.116 93.9146 151.745 93.9146 152.316 94.1273C152.562 94.225 152.783 94.3768 152.963 94.5714C153.136 94.7636 153.268 94.9897 153.349 95.2353C153.438 95.5012 153.483 95.7803 153.48 96.0609C153.483 96.3401 153.438 96.6177 153.349 96.8821C153.268 97.1271 153.136 97.3525 152.963 97.5439C152.782 97.7334 152.561 97.8806 152.316 97.975C151.745 98.1905 151.115 98.1905 150.544 97.975C150.3 97.8811 150.079 97.7338 149.898 97.5439C149.724 97.3529 149.594 97.1274 149.514 96.8821C149.427 96.6172 149.384 96.3398 149.387 96.0609ZM150.331 96.0609C150.327 96.2506 150.356 96.4395 150.417 96.6192C150.467 96.7673 150.546 96.9038 150.65 97.0201C150.746 97.1257 150.863 97.2089 150.995 97.2637C151.132 97.3188 151.278 97.3466 151.426 97.3456C151.569 97.3461 151.71 97.3183 151.842 97.2637C151.973 97.2088 152.09 97.1257 152.185 97.0201C152.289 96.9033 152.369 96.7671 152.42 96.6192C152.48 96.4392 152.509 96.2505 152.506 96.0609C152.508 95.8748 152.479 95.6897 152.42 95.5134C152.368 95.364 152.288 95.2258 152.185 95.106C152.09 94.9979 151.973 94.9118 151.842 94.8538C151.711 94.7959 151.569 94.7666 151.426 94.7675C151.278 94.7658 151.131 94.7952 150.995 94.8538C150.863 94.9118 150.745 94.9978 150.65 95.106C150.547 95.2253 150.468 95.3637 150.417 95.5134C150.357 95.6894 150.328 95.8747 150.331 96.0609Z" fill="#BCBDBD"/>
<path d="M158.595 100.122V94.0579H159.52V94.4674C159.6 94.3774 159.691 94.2977 159.792 94.2303C159.883 94.1684 159.982 94.117 160.085 94.0772C160.183 94.0394 160.285 94.012 160.389 93.9954C160.492 93.9808 160.597 93.9735 160.701 93.9738C160.989 93.9664 161.275 94.0231 161.538 94.1398C161.765 94.2431 161.966 94.3981 162.124 94.5924C162.282 94.7915 162.4 95.0201 162.469 95.265C162.546 95.5333 162.585 95.8113 162.583 96.0906C162.583 96.2707 162.566 96.4505 162.531 96.6273C162.498 96.7985 162.446 96.9654 162.376 97.1252C162.307 97.2789 162.219 97.4236 162.115 97.5564C162.01 97.6877 161.886 97.8026 161.747 97.897C161.599 97.9925 161.438 98.0652 161.268 98.1125C161.076 98.1686 160.877 98.1962 160.677 98.1944C160.571 98.194 160.465 98.1839 160.361 98.1642C160.255 98.1432 160.152 98.1122 160.052 98.0715C159.951 98.0322 159.855 97.9808 159.766 97.9185C159.675 97.8571 159.593 97.7847 159.52 97.7029V100.119L158.595 100.122ZM161.613 96.1164C161.613 95.9507 161.596 95.7853 161.563 95.6228C161.533 95.4701 161.475 95.3241 161.393 95.1917C161.314 95.0672 161.206 94.9637 161.078 94.8899C160.929 94.8086 160.761 94.7691 160.591 94.7757C160.413 94.7706 160.237 94.8075 160.076 94.8835C159.941 94.9521 159.824 95.0518 159.735 95.1745C159.645 95.2998 159.581 95.442 159.546 95.5926C159.505 95.7525 159.485 95.9169 159.485 96.0819C159.486 96.2402 159.505 96.3979 159.541 96.5519C159.577 96.701 159.639 96.8426 159.725 96.97C159.808 97.0949 159.919 97.1983 160.05 97.2718C160.202 97.3516 160.372 97.391 160.544 97.3861C160.714 97.3913 160.883 97.3535 161.035 97.2761C161.167 97.2064 161.28 97.1076 161.367 96.9873C161.455 96.8648 161.519 96.7265 161.555 96.5799C161.593 96.4283 161.611 96.2727 161.611 96.1164H161.613Z" fill="#BCBDBD"/>
<path d="M170.6 100.122V97.701C170.527 97.7828 170.445 97.8552 170.354 97.9166C170.264 97.9789 170.167 98.0302 170.065 98.0696C169.965 98.1105 169.861 98.1416 169.755 98.1623C169.651 98.1818 169.546 98.1919 169.44 98.1925C169.24 98.1946 169.041 98.167 168.849 98.1106C168.68 98.0641 168.518 97.9913 168.371 97.895C168.231 97.8017 168.106 97.6868 168.002 97.5544C167.898 97.4222 167.81 97.2773 167.741 97.1233C167.672 96.9634 167.621 96.7964 167.588 96.6254C167.554 96.4486 167.536 96.2688 167.537 96.0886C167.535 95.8096 167.573 95.5317 167.649 95.263C167.719 95.018 167.837 94.7894 167.996 94.5905C168.153 94.3957 168.354 94.2406 168.582 94.1378C168.845 94.0211 169.131 93.9644 169.418 93.9718C169.522 93.9715 169.626 93.9788 169.729 93.9934C169.833 94.0103 169.936 94.0378 170.035 94.0753C170.137 94.1151 170.235 94.1665 170.326 94.2284C170.426 94.2963 170.518 94.3759 170.6 94.4655V94.0624H171.522V100.126L170.6 100.122ZM168.505 96.1166C168.504 96.2738 168.524 96.4304 168.565 96.5823C168.601 96.7288 168.664 96.8671 168.752 96.9896C168.839 97.1104 168.953 97.2093 169.084 97.2785C169.236 97.3553 169.404 97.3931 169.574 97.3884C169.745 97.3936 169.915 97.3542 170.067 97.2742C170.199 97.2007 170.311 97.0973 170.395 96.9724C170.481 96.8454 170.542 96.7036 170.576 96.5542C170.613 96.4003 170.632 96.2426 170.632 96.0843C170.633 95.9194 170.613 95.7551 170.574 95.595C170.54 95.4445 170.476 95.3023 170.386 95.1768C170.297 95.0542 170.181 94.9544 170.046 94.8858C169.885 94.8099 169.708 94.773 169.531 94.778C169.36 94.7715 169.191 94.811 169.041 94.8923C168.914 94.9661 168.806 95.0696 168.727 95.1941C168.644 95.326 168.586 95.4722 168.556 95.6252C168.522 95.7867 168.504 95.9515 168.505 96.1166Z" fill="#BCBDBD"/>
<path d="M208.133 94.0581L209.605 98.0546H210.564L209.157 94.0581H208.133Z" fill="#BCBDBD"/>
<path d="M211.2 94.0581C211.124 94.0581 211.049 94.0731 210.979 94.1021C210.909 94.1312 210.846 94.1738 210.792 94.2274C210.739 94.2811 210.696 94.3448 210.668 94.4149C210.639 94.485 210.624 94.5601 210.625 94.6358C210.625 95.0281 211.2 95.7524 211.2 95.7524C211.2 95.7524 211.778 95.0368 211.778 94.6358C211.778 94.4826 211.717 94.3357 211.609 94.2273C211.5 94.119 211.353 94.0581 211.2 94.0581Z" fill="#BCBDBD"/>
<path d="M141.519 94.0581H140.596V98.0546H141.519V95.5843L143.013 98.0546H144.036L141.555 94.0581H141.519Z" fill="#BCBDBD"/>
<path d="M144.036 94.6358C144.036 94.5599 144.021 94.4848 143.992 94.4147C143.963 94.3446 143.921 94.281 143.867 94.2273C143.813 94.1737 143.75 94.1311 143.68 94.1021C143.61 94.073 143.534 94.0581 143.459 94.0581C143.383 94.0581 143.308 94.073 143.237 94.1021C143.167 94.1311 143.104 94.1737 143.05 94.2273C142.996 94.281 142.954 94.3446 142.925 94.4147C142.896 94.4848 142.881 94.5599 142.881 94.6358C142.881 95.0281 143.459 95.7524 143.459 95.7524C143.459 95.7524 144.036 95.0368 144.036 94.6358Z" fill="#BCBDBD"/>
<path d="M116.484 95.5649L115.356 95.5628V92.0664H114.447V98.0546H115.356V95.6339L116.999 98.0546H118.161L116.484 95.5649Z" fill="#BCBDBD"/>
<path d="M117.739 94.2264C117.63 94.1186 117.483 94.0581 117.33 94.0581C117.177 94.0581 117.03 94.1186 116.922 94.2264C116.644 94.5045 116.54 95.4249 116.54 95.4249C116.54 95.4249 117.456 95.3279 117.739 95.0434C117.792 94.9899 117.835 94.9262 117.864 94.8561C117.894 94.786 117.909 94.7108 117.909 94.6349C117.909 94.5589 117.894 94.4838 117.864 94.4136C117.835 94.3435 117.792 94.2799 117.739 94.2264Z" fill="#BCBDBD"/>
<path d="M102.561 94.0581H101.638V98.0546H102.561V94.0581Z" fill="#BCBDBD"/>
<path d="M102.679 92.6397C102.679 92.4865 102.618 92.3396 102.51 92.2312C102.402 92.1229 102.255 92.062 102.102 92.062C101.948 92.062 101.801 92.1229 101.693 92.2312C101.585 92.3396 101.524 92.4865 101.524 92.6397C101.524 93.0342 102.102 93.7585 102.102 93.7585C102.102 93.7585 102.679 93.0407 102.679 92.6397Z" fill="#BCBDBD"/>
<path d="M86.6915 94.3814C86.3296 94.0823 85.8664 93.9341 85.3981 93.9675C85.175 93.9641 84.9526 93.9946 84.7386 94.0581C84.5589 94.1141 84.3893 94.1985 84.2363 94.3081C84.0959 94.4082 83.9735 94.5314 83.8742 94.6724C83.7761 94.8098 83.6957 94.959 83.6349 95.1165C83.5734 95.2707 83.5285 95.4312 83.5012 95.595C83.4759 95.7525 83.4629 95.9118 83.4624 96.0714C83.461 96.3352 83.5003 96.5977 83.5789 96.8495C83.6516 97.0864 83.7711 97.3063 83.9302 97.4962C84.0911 97.6818 84.2914 97.8291 84.5165 97.9273C84.7764 98.0417 85.0582 98.0976 85.3421 98.0912C85.4425 98.091 85.5428 98.0823 85.6417 98.0653C85.7407 98.0463 85.8379 98.0196 85.9327 97.9855C86.0264 97.9494 86.1172 97.9062 86.2043 97.8562C86.2905 97.8047 86.3714 97.7447 86.4458 97.6773V97.757C86.4473 97.9282 86.4285 98.099 86.3897 98.2658C86.3576 98.4061 86.2967 98.5382 86.2108 98.6538C86.1265 98.7613 86.0159 98.8452 85.8896 98.8973C85.7368 98.958 85.5733 98.9873 85.4089 98.9836H85.3486V99.7509C85.6476 99.7565 85.9458 99.7158 86.2324 99.6302C86.4636 99.5637 86.674 99.4394 86.8437 99.2689C87.0135 99.0984 87.1369 98.8874 87.2024 98.6559C87.2866 98.3764 87.3266 98.0855 87.3209 97.7937V96.4206C87.3317 95.6467 87.4244 95.0194 86.6915 94.3814ZM86.366 96.4658C86.335 96.6191 86.2758 96.7653 86.1914 96.897C86.1102 97.0217 86.0009 97.1258 85.8724 97.2009C85.7225 97.2847 85.5525 97.3257 85.3809 97.3194C85.2196 97.3257 85.0599 97.2845 84.9218 97.2009C84.7991 97.1266 84.6968 97.0229 84.6243 96.8991C84.547 96.7707 84.4923 96.63 84.4626 96.4831C84.4309 96.3321 84.415 96.1782 84.4152 96.0239C84.4142 95.8636 84.4323 95.7037 84.4691 95.5476C84.5027 95.4048 84.5626 95.2696 84.6459 95.1488C84.7284 95.033 84.8379 94.939 84.9649 94.875C85.1122 94.8029 85.2751 94.7681 85.4391 94.7737C85.5981 94.7683 85.7557 94.8047 85.8961 94.8793C86.0176 94.9483 86.121 95.0451 86.1979 95.1617C86.2772 95.282 86.3341 95.4157 86.366 95.5562C86.3993 95.6975 86.4167 95.8421 86.4177 95.9873C86.418 96.1482 86.4007 96.3087 86.366 96.4658Z" fill="#BCBDBD"/>
<path d="M87.5321 93.1357C87.1398 93.1357 86.4155 93.7134 86.4155 93.7134C86.4155 93.7134 87.1312 94.2912 87.5321 94.2912C87.6853 94.2912 87.8323 94.2303 87.9406 94.1219C88.049 94.0136 88.1098 93.8667 88.1098 93.7134C88.1098 93.5602 88.049 93.4133 87.9406 93.305C87.8323 93.1966 87.6853 93.1357 87.5321 93.1357Z" fill="#BCBDBD"/>
<path d="M83.8893 98.2745C83.7619 98.3597 83.6733 98.4916 83.6426 98.6418C83.612 98.7919 83.6417 98.948 83.7255 99.0764C83.941 99.404 84.8227 99.6907 84.8227 99.6907C84.8227 99.6907 84.911 98.7746 84.6912 98.4405C84.6067 98.3123 84.4749 98.2228 84.3245 98.1917C84.1742 98.1606 84.0177 98.1904 83.8893 98.2745Z" fill="#BCBDBD"/>
<path d="M35.5656 97.3239C35.5311 97.3239 35.5117 97.3024 35.5053 97.2636C35.5009 97.2011 35.5009 97.1385 35.5053 97.076V95.136C35.5087 94.9897 35.4868 94.8438 35.4406 94.7049C35.3641 94.4803 35.2044 94.2936 34.9944 94.1833C34.8887 94.1284 34.7774 94.085 34.6624 94.0539C34.5401 94.0222 34.4154 94.0006 34.2895 93.9893H34.1257V94.7933C34.2001 94.7987 34.273 94.8169 34.3412 94.8472C34.4097 94.8755 34.4687 94.9225 34.5115 94.983C34.5581 95.0578 34.5807 95.145 34.5762 95.233C34.5754 95.2645 34.5671 95.2954 34.5521 95.3231C34.5372 95.3508 34.5159 95.3746 34.49 95.3925C34.4242 95.4411 34.3515 95.4796 34.2744 95.5068C34.1781 95.5428 34.0794 95.5724 33.9791 95.5952L33.6644 95.6728L33.2333 95.7719C33.0932 95.8021 32.9595 95.8387 32.8323 95.8775C32.711 95.9148 32.5934 95.9631 32.481 96.022C32.3767 96.0775 32.2827 96.1504 32.2029 96.2375C32.1223 96.3278 32.0607 96.4334 32.0218 96.5479C31.9738 96.6909 31.9512 96.8412 31.955 96.992C31.9499 97.1781 31.9891 97.3628 32.0693 97.5309C32.141 97.6748 32.2469 97.7992 32.3775 97.893C32.5142 97.9928 32.6685 98.0659 32.8323 98.1086C33.013 98.1524 33.1983 98.1741 33.3842 98.1732C33.5011 98.1735 33.618 98.1642 33.7334 98.1452C33.8484 98.1262 33.9616 98.0973 34.0718 98.059C34.1798 98.0223 34.2844 97.9761 34.3843 97.921C34.4808 97.8666 34.5724 97.8038 34.6581 97.7335C34.6746 97.8064 34.7054 97.8752 34.7487 97.9361C34.789 97.9906 34.8395 98.0367 34.8974 98.0719C34.9561 98.1077 35.0201 98.1339 35.0871 98.1495C35.1579 98.165 35.2301 98.1729 35.3026 98.1732H35.7682V97.3541L35.5656 97.3239ZM34.574 96.6255C34.5723 96.7086 34.5524 96.7902 34.5158 96.8648C34.4726 96.9549 34.4101 97.0344 34.3326 97.0976C34.2367 97.176 34.1271 97.236 34.0093 97.2744C33.8535 97.3251 33.6902 97.3492 33.5264 97.3455C33.4454 97.3462 33.3646 97.339 33.285 97.3239C33.2149 97.3108 33.1473 97.2868 33.0846 97.2528C33.0293 97.2208 32.9821 97.1765 32.9466 97.1235C32.9123 97.0639 32.8952 96.996 32.897 96.9273C32.8934 96.8408 32.9226 96.7561 32.9789 96.6902C33.0397 96.6241 33.113 96.5706 33.1945 96.5328C33.2942 96.4864 33.3982 96.4496 33.5049 96.4229L33.8627 96.3302C33.9705 96.3043 34.0783 96.272 34.2162 96.2375C34.3373 96.2051 34.4561 96.1648 34.5719 96.1168L34.574 96.6255Z" fill="#BCBDBD"/>
<path d="M33.1235 95.2049C33.4037 94.9312 33.5158 94.0107 33.5158 94.0107C33.5158 94.0107 32.5997 94.0991 32.3151 94.3815C32.2565 94.4335 32.2091 94.4968 32.1757 94.5677C32.1423 94.6386 32.1237 94.7155 32.121 94.7938C32.1182 94.8721 32.1315 94.9501 32.1598 95.0231C32.1882 95.0962 32.2312 95.1626 32.286 95.2185C32.3409 95.2745 32.4066 95.3186 32.4791 95.3483C32.5516 95.3781 32.6294 95.3928 32.7077 95.3915C32.786 95.3902 32.8633 95.373 32.9348 95.3409C33.0063 95.3089 33.0705 95.2626 33.1235 95.2049Z" fill="#BCBDBD"/>
<path d="M108.082 98.4253C108.09 98.5336 108.072 98.6422 108.03 98.7422C108.011 98.7734 107.983 98.7984 107.95 98.8145C107.917 98.8305 107.881 98.8369 107.844 98.8327H107.678H107.584L107.452 98.8176V99.6411C107.528 99.6543 107.605 99.6629 107.683 99.6669C107.763 99.6669 107.84 99.6669 107.913 99.6669C108.066 99.6691 108.218 99.6473 108.364 99.6023C108.496 99.5613 108.616 99.4892 108.714 99.392C108.813 99.2948 108.886 99.1755 108.929 99.044C108.984 98.878 109.011 98.7037 109.006 98.5288V94.0581H108.082V98.4253Z" fill="#BCBDBD"/>
<path d="M109.129 92.6397C109.129 92.4865 109.068 92.3396 108.96 92.2312C108.851 92.1229 108.705 92.062 108.551 92.062C108.398 92.062 108.251 92.1229 108.143 92.2312C108.035 92.3396 107.974 92.4865 107.974 92.6397C107.974 93.0342 108.551 93.7585 108.551 93.7585C108.551 93.7585 109.129 93.0407 109.129 92.6397Z" fill="#BCBDBD"/>
<path d="M248.677 94.0581L247.621 94.0603L244.883 97.3993V98.0546H248.505V97.2441H246.121L248.677 94.0581Z" fill="#BCBDBD"/>
<path d="M245.734 95.1704C246.066 94.9548 246.364 94.0797 246.364 94.0797C246.364 94.0797 245.448 93.9805 245.111 94.1982C245.045 94.2377 244.986 94.2903 244.94 94.3527C244.894 94.4152 244.861 94.4863 244.843 94.5618C244.825 94.6374 244.823 94.7157 244.836 94.7922C244.849 94.8688 244.877 94.9419 244.919 95.0072C244.961 95.0726 245.015 95.1288 245.08 95.1726C245.144 95.2164 245.216 95.2468 245.292 95.262C245.368 95.2772 245.447 95.277 245.523 95.2613C245.599 95.2455 245.671 95.2146 245.734 95.1704Z" fill="#BCBDBD"/>
<path d="M193.863 97.2248C193.826 97.2228 193.79 97.2133 193.757 97.1968C193.731 97.183 193.711 97.1599 193.701 97.1321C193.689 97.0954 193.683 97.0567 193.684 97.0179V92.0601H192.774V94.0518H192.164V94.914H192.774V97.0696C192.77 97.2361 192.789 97.4024 192.832 97.5633C192.866 97.6804 192.931 97.7858 193.022 97.8672C193.117 97.9444 193.231 97.9963 193.352 98.0181C193.514 98.048 193.678 98.0618 193.843 98.0591H194.57V97.2378H194.033C193.976 97.2373 193.919 97.233 193.863 97.2248Z" fill="#BCBDBD"/>
<path d="M195.281 94.1984C194.943 93.9829 194.029 94.0799 194.029 94.0799C194.029 94.0799 194.324 94.9572 194.656 95.1706C194.785 95.2535 194.942 95.2818 195.091 95.2493C195.241 95.2167 195.372 95.126 195.455 94.9971C195.538 94.8681 195.566 94.7116 195.533 94.5618C195.501 94.412 195.41 94.2813 195.281 94.1984Z" fill="#BCBDBD"/>
<path d="M177.819 94.0581H176.894V98.0546H177.819V94.0581Z" fill="#BCBDBD"/>
<path d="M179.429 94.1984C179.091 93.9829 178.177 94.0799 178.177 94.0799C178.177 94.0799 178.472 94.9572 178.804 95.1706C178.933 95.2535 179.09 95.2818 179.239 95.2493C179.389 95.2167 179.52 95.126 179.603 94.9971C179.686 94.8681 179.714 94.7116 179.681 94.5618C179.649 94.412 179.558 94.2813 179.429 94.1984Z" fill="#BCBDBD"/>
<path d="M79.3107 92.8856V92.0665H78.1402C77.8125 92.0443 77.4882 92.145 77.2306 92.3489C77.1198 92.4554 77.0338 92.5849 76.9787 92.7283C76.9235 92.8717 76.9006 93.0255 76.9116 93.1788V94.0583H76.3037V94.9205H76.9116V98.0633H77.8363V93.2197C77.8313 93.1739 77.8369 93.1276 77.8526 93.0842C77.8683 93.0409 77.8937 93.0017 77.9268 92.9697C78.0055 92.9148 78.1007 92.8889 78.1963 92.8964L79.3107 92.8856Z" fill="#BCBDBD"/>
<path d="M79.3691 94.1984C79.0328 93.9829 78.1167 94.0799 78.1167 94.0799C78.1167 94.0799 78.4142 94.9572 78.7461 95.1706C78.8749 95.2467 79.0282 95.2699 79.1738 95.2353C79.3193 95.2007 79.4457 95.1109 79.5265 94.985C79.6072 94.859 79.6359 94.7066 79.6065 94.5599C79.5772 94.4132 79.4921 94.2836 79.3691 94.1984Z" fill="#BCBDBD"/>
<path d="M187.025 96.0198C186.892 95.9281 186.747 95.8555 186.594 95.8042C186.426 95.746 186.247 95.6943 186.06 95.649L185.779 95.5822L185.439 95.5003C185.343 95.4752 185.248 95.4435 185.156 95.4054C185.085 95.3767 185.018 95.3358 184.96 95.2847C184.937 95.2641 184.919 95.2388 184.907 95.2105C184.895 95.1823 184.889 95.1517 184.889 95.1209C184.888 95.0898 184.893 95.0587 184.903 95.0295C184.914 95.0002 184.93 94.9734 184.952 94.9506C184.996 94.9016 185.052 94.8633 185.113 94.8385C185.182 94.8091 185.255 94.7888 185.329 94.7781L185.445 94.7652V93.9741C185.345 93.977 185.245 93.9864 185.146 94.0021C185.019 94.0208 184.894 94.0512 184.773 94.0927C184.656 94.1327 184.543 94.1862 184.439 94.2522C184.338 94.314 184.248 94.3911 184.171 94.4807C184.094 94.5702 184.033 94.6722 183.99 94.7825C183.946 94.9047 183.924 95.034 183.926 95.164C183.922 95.2911 183.946 95.4173 183.995 95.5348C184.039 95.6407 184.101 95.7379 184.18 95.8215C184.26 95.9065 184.352 95.9791 184.454 96.037C184.561 96.0992 184.672 96.1525 184.788 96.1965C184.907 96.2407 185.029 96.2789 185.152 96.3108C185.274 96.3438 185.395 96.3718 185.514 96.3948L185.872 96.4789C185.978 96.5039 186.082 96.5378 186.182 96.5802C186.264 96.6109 186.337 96.6587 186.398 96.7203C186.425 96.7468 186.446 96.7784 186.46 96.8133C186.474 96.8481 186.481 96.8854 186.48 96.923C186.482 97.0016 186.455 97.0783 186.404 97.1385C186.35 97.1966 186.284 97.2422 186.211 97.2722C186.128 97.3067 186.041 97.3299 185.952 97.3411H185.846V98.1322L186.079 98.1129C186.22 98.0956 186.359 98.0667 186.495 98.0266C186.624 97.9877 186.749 97.9342 186.866 97.8671C186.978 97.8036 187.079 97.7212 187.163 97.6235C187.25 97.521 187.317 97.4043 187.364 97.2786C187.414 97.1317 187.439 96.9771 187.437 96.8217C187.442 96.6554 187.404 96.4905 187.327 96.3431C187.251 96.2149 187.148 96.1046 187.025 96.0198Z" fill="#BCBDBD"/>
<path d="M187.027 95.1014C187.1 95.0807 187.169 95.0459 187.228 94.9988C187.288 94.9518 187.338 94.8935 187.375 94.8272C187.412 94.761 187.435 94.6881 187.444 94.6127C187.453 94.5373 187.447 94.4609 187.426 94.3879C187.406 94.3149 187.371 94.2466 187.324 94.1871C187.277 94.1275 187.218 94.0778 187.152 94.0408C187.086 94.0037 187.013 93.9801 186.938 93.9712C186.862 93.9624 186.786 93.9685 186.713 93.9891C186.327 94.0969 185.794 94.8514 185.794 94.8514C185.794 94.8514 186.659 95.207 187.027 95.1014Z" fill="#BCBDBD"/>
<path d="M184.288 96.9037C184.139 96.9274 184.005 97.0084 183.915 97.1296C183.825 97.2507 183.786 97.4023 183.806 97.5518C183.826 97.7014 183.904 97.837 184.023 97.9298C184.142 98.0226 184.293 98.0651 184.443 98.0483C184.833 97.9965 185.473 97.3261 185.473 97.3261C185.473 97.3261 184.687 96.8498 184.288 96.9037Z" fill="#BCBDBD"/>
<path d="M218.339 94.0581L219.814 98.0546H220.773L219.365 94.0581H218.339Z" fill="#BCBDBD"/>
<path d="M216.307 94.0581L217.781 98.0546H218.74L217.333 94.0581H216.307Z" fill="#BCBDBD"/>
<path d="M221.383 94.0581C221.23 94.0581 221.083 94.119 220.974 94.2273C220.866 94.3357 220.805 94.4826 220.805 94.6358C220.805 95.0281 221.383 95.7524 221.383 95.7524C221.383 95.7524 221.961 95.0368 221.961 94.6358C221.961 94.4826 221.9 94.3357 221.791 94.2273C221.683 94.119 221.536 94.0581 221.383 94.0581Z" fill="#BCBDBD"/>
<path d="M131.256 94.0581L132.663 98.0546H133.687L132.215 94.0581H131.256Z" fill="#BCBDBD"/>
<path d="M134.246 94.0581H133.287L134.694 98.0546H135.72L134.246 94.0581Z" fill="#BCBDBD"/>
<path d="M130.066 97.4857C130.066 97.639 130.127 97.7859 130.236 97.8942C130.344 98.0026 130.491 98.0634 130.644 98.0634C130.797 98.0634 130.944 98.0026 131.053 97.8942C131.161 97.7859 131.222 97.639 131.222 97.4857C131.222 97.0913 130.644 96.3691 130.644 96.3691C130.644 96.3691 130.066 97.0762 130.066 97.4857Z" fill="#BCBDBD"/>
<path d="M235.989 94.0581L237.552 98.0114L236.726 100.053H237.658L238.494 98.0028L237 94.0581H235.989Z" fill="#BCBDBD"/>
<path d="M239.199 94.0581C239.046 94.0581 238.899 94.119 238.79 94.2273C238.682 94.3357 238.621 94.4826 238.621 94.6358C238.621 95.0281 239.199 95.7524 239.199 95.7524C239.199 95.7524 239.776 95.0368 239.776 94.6358C239.776 94.4826 239.716 94.3357 239.607 94.2273C239.499 94.119 239.352 94.0581 239.199 94.0581Z" fill="#BCBDBD"/>
<path d="M227.365 94.0581L230.238 98.0546H231.376L228.503 94.0581H227.365Z" fill="#BCBDBD"/>
<path d="M231.206 94.2264C231.097 94.1186 230.95 94.0581 230.797 94.0581C230.644 94.0581 230.497 94.1186 230.389 94.2264C230.111 94.5045 230.007 95.4249 230.007 95.4249C230.007 95.4249 230.923 95.3279 231.206 95.0434C231.26 94.9899 231.303 94.9262 231.332 94.8561C231.361 94.786 231.376 94.7108 231.376 94.6349C231.376 94.5589 231.361 94.4838 231.332 94.4136C231.303 94.3435 231.26 94.2799 231.206 94.2264Z" fill="#BCBDBD"/>
<path d="M227.535 97.8845C227.588 97.9384 227.652 97.9811 227.722 98.0102C227.791 98.0394 227.866 98.0544 227.942 98.0544C228.018 98.0544 228.093 98.0394 228.163 98.0102C228.233 97.9811 228.296 97.9384 228.35 97.8845C228.63 97.6065 228.733 96.686 228.733 96.686C228.733 96.686 227.817 96.7852 227.535 97.0676C227.481 97.1211 227.438 97.1847 227.409 97.2548C227.38 97.3249 227.365 97.4001 227.365 97.476C227.365 97.552 227.38 97.6272 227.409 97.6973C227.438 97.7674 227.481 97.831 227.535 97.8845Z" fill="#BCBDBD"/>
<path d="M40.4887 82.1807C40.4141 82.0528 40.3153 81.9408 40.1977 81.8509C40.0773 81.7624 39.9412 81.6973 39.7967 81.659C39.635 81.6164 39.4683 81.5954 39.301 81.5965C39.1191 81.5944 38.938 81.6206 38.7642 81.6741C38.4609 81.7694 38.1958 81.9589 38.0076 82.2152C37.9141 82.3432 37.8366 82.4822 37.777 82.629C37.7156 82.7819 37.6708 82.9409 37.6433 83.1033C37.6131 83.2712 37.598 83.4414 37.5981 83.612C37.5968 83.8818 37.6308 84.1507 37.6994 84.4117C37.7596 84.6491 37.8642 84.8729 38.0076 85.0713C38.1473 85.2606 38.3297 85.4142 38.54 85.5197C38.7804 85.6356 39.045 85.6925 39.3117 85.6857C39.5112 85.6896 39.7094 85.6522 39.8938 85.5757C40.0579 85.5081 40.2051 85.405 40.3249 85.2739C40.4465 85.1396 40.5396 84.9819 40.5986 84.8105C40.6669 84.6204 40.7075 84.4215 40.7193 84.2199H41.6872C41.6587 84.5547 41.5795 84.8832 41.4522 85.1942C41.3414 85.4628 41.1763 85.7058 40.9672 85.9077C40.7555 86.1018 40.5049 86.2488 40.2322 86.3388C39.9177 86.4445 39.5874 86.4956 39.2557 86.4897C38.9845 86.4928 38.714 86.4594 38.4517 86.3905C38.2243 86.328 38.0067 86.2344 37.805 86.1125C37.6127 85.9962 37.4396 85.8507 37.292 85.6813C37.1466 85.5077 37.0248 85.3157 36.9298 85.1101C36.8311 84.8932 36.7587 84.6652 36.7143 84.4311C36.6661 84.1796 36.6423 83.9241 36.6431 83.668C36.6415 83.4068 36.6667 83.146 36.7186 82.8899C36.7677 82.6509 36.8451 82.4186 36.9492 82.1979C37.0483 81.9867 37.176 81.7902 37.3286 81.6138C37.4793 81.4379 37.656 81.286 37.8524 81.1633C38.0585 81.0353 38.2822 80.9379 38.5163 80.8744C38.7794 80.805 39.0505 80.771 39.3225 80.7731C39.6092 80.7703 39.8948 80.8102 40.1697 80.8917C40.4224 80.965 40.6593 81.0849 40.8681 81.2452C41.0746 81.4084 41.248 81.6096 41.3789 81.838C41.524 82.0942 41.6212 82.3747 41.6656 82.6657H40.6741C40.6404 82.4946 40.5777 82.3306 40.4887 82.1807Z" fill="#BCBDBD"/>
<path d="M86.4693 80.8877V83.1511H89.056V80.8877H90.0239V86.3844H89.056V83.9917H86.4693V86.3887H85.5015V80.8877H86.4693Z" fill="#BCBDBD"/>
<path d="M96.6353 80.8877V86.3844H95.6675V80.8877H96.6353Z" fill="#BCBDBD"/>
<path d="M105.253 84.9251C105.253 85.1227 105.226 85.3193 105.171 85.5092C105.118 85.6957 105.023 85.8679 104.895 86.0137C104.75 86.171 104.57 86.292 104.369 86.3672C104.104 86.4634 103.822 86.5088 103.539 86.5008C103.311 86.5165 103.081 86.4864 102.864 86.4124C102.648 86.3384 102.448 86.2219 102.276 86.0697C102.124 85.9033 102.007 85.7076 101.933 85.4945C101.859 85.2813 101.829 85.0553 101.845 84.8303V84.4121H102.835V84.7505C102.834 84.8768 102.844 85.0029 102.863 85.1277C102.878 85.2321 102.916 85.3319 102.973 85.4209C103.025 85.5025 103.1 85.5676 103.188 85.6084C103.305 85.6578 103.432 85.6806 103.559 85.6752C103.677 85.6789 103.794 85.6584 103.904 85.6149C103.988 85.5784 104.062 85.5214 104.119 85.4489C104.177 85.3726 104.218 85.2842 104.238 85.1902C104.263 85.0792 104.275 84.9657 104.274 84.8518V80.8877H105.242L105.253 84.9251Z" fill="#BCBDBD"/>
<path d="M111.782 80.8877V83.3429L114.248 80.8877H115.52L113.179 83.1295L115.565 86.3844H114.395L112.513 83.7977C112.384 83.9184 112.261 84.037 112.149 84.1534C112.037 84.2698 111.912 84.3884 111.782 84.5091V86.3887H110.814V80.8877H111.782Z" fill="#BCBDBD"/>
<path d="M121.601 80.8877V85.561H124.337V86.3844H120.633V80.8877H121.601Z" fill="#BCBDBD"/>
<path d="M150.402 83.6426C150.402 83.3949 150.427 83.1479 150.477 82.9054C150.522 82.6712 150.594 82.4433 150.693 82.2263C150.791 82.0155 150.917 81.8185 151.066 81.64C151.216 81.4604 151.392 81.3048 151.59 81.1787C151.8 81.0465 152.028 80.9449 152.266 80.8769C152.537 80.8029 152.816 80.7666 153.096 80.7692C153.379 80.7667 153.66 80.803 153.933 80.8769C154.173 80.9453 154.402 81.0469 154.614 81.1787C154.812 81.3053 154.99 81.4608 155.142 81.64C155.294 81.8172 155.421 82.0145 155.519 82.2263C155.621 82.4432 155.697 82.671 155.746 82.9054C155.796 83.1479 155.821 83.3949 155.821 83.6426C155.821 83.8888 155.796 84.1344 155.746 84.3755C155.697 84.6085 155.621 84.835 155.519 85.0502C155.421 85.26 155.294 85.4551 155.142 85.63C154.99 85.8079 154.812 85.962 154.614 86.087C154.402 86.2183 154.173 86.3185 153.933 86.3845C153.66 86.4577 153.379 86.4932 153.096 86.4901C152.816 86.4933 152.537 86.4578 152.266 86.3845C152.027 86.3189 151.799 86.2186 151.59 86.087C151.393 85.9625 151.216 85.8083 151.066 85.63C150.917 85.4539 150.791 85.2589 150.693 85.0502C150.594 84.8349 150.521 84.6083 150.477 84.3755C150.427 84.1344 150.402 83.8888 150.402 83.6426ZM151.37 83.6426C151.37 83.8109 151.384 83.9789 151.413 84.1448C151.441 84.3068 151.485 84.4657 151.544 84.6191C151.602 84.7716 151.679 84.9164 151.773 85.0502C151.865 85.1792 151.977 85.2927 152.105 85.3864C152.236 85.4806 152.382 85.5533 152.536 85.602C152.717 85.6585 152.906 85.6861 153.096 85.6839C153.289 85.6863 153.481 85.6586 153.665 85.602C153.825 85.5542 153.977 85.4814 154.114 85.3864C154.242 85.2926 154.355 85.1792 154.448 85.0502C154.543 84.917 154.621 84.7721 154.679 84.6191C154.739 84.466 154.783 84.3071 154.81 84.1448C154.838 83.9789 154.853 83.8109 154.853 83.6426C154.853 83.4735 154.838 83.3048 154.81 83.1382C154.784 82.9744 154.739 82.8139 154.679 82.6596C154.62 82.5066 154.543 82.3617 154.448 82.2285C154.355 82.0987 154.242 81.9845 154.114 81.8901C153.977 81.7944 153.826 81.7216 153.665 81.6745C153.481 81.6179 153.289 81.5903 153.096 81.5926C152.906 81.5904 152.717 81.618 152.536 81.6745C152.225 81.775 151.954 81.973 151.764 82.2393C151.671 82.3731 151.594 82.5179 151.536 82.6704C151.476 82.825 151.432 82.9854 151.404 83.1489C151.379 83.3123 151.368 83.4774 151.37 83.6426Z" fill="#BCBDBD"/>
<path d="M163.555 80.8876C163.82 80.8832 164.085 80.921 164.338 80.9996C164.546 81.0654 164.738 81.1765 164.898 81.3251C165.049 81.4725 165.164 81.6524 165.235 81.8511C165.311 82.081 165.348 82.3223 165.345 82.5646C165.348 82.8034 165.311 83.0411 165.235 83.2673C165.165 83.4657 165.05 83.645 164.898 83.7911C164.738 83.9404 164.547 84.0517 164.338 84.1166C164.085 84.196 163.82 84.2317 163.555 84.2222H162.046V86.3778H161.079V80.8876H163.555ZM163.305 83.401C163.596 83.4275 163.887 83.3512 164.127 83.1854C164.209 83.1033 164.275 83.0055 164.32 82.8979C164.365 82.7902 164.388 82.6747 164.388 82.5581C164.388 82.4415 164.365 82.3261 164.32 82.2184C164.275 82.1107 164.209 82.013 164.127 81.9308C163.885 81.7686 163.596 81.6927 163.305 81.7153H162.057V83.3945L163.305 83.401Z" fill="#BCBDBD"/>
<path d="M199.868 81.7262V80.8877H204.205V81.7219H202.502V86.3844H201.532V81.7219L199.868 81.7262Z" fill="#BCBDBD"/>
<path d="M213.899 84.3733C213.906 84.6903 213.855 85.0058 213.748 85.3045C213.659 85.5566 213.511 85.7841 213.317 85.9684C213.114 86.1517 212.872 86.2879 212.61 86.3672C212.298 86.4605 211.974 86.5056 211.649 86.5008C211.314 86.5061 210.98 86.464 210.657 86.3758C210.386 86.303 210.135 86.1712 209.922 85.99C209.718 85.8098 209.561 85.5827 209.465 85.3282C209.355 85.0221 209.303 84.6984 209.31 84.3733V80.8877H210.278V84.369C210.263 84.5475 210.287 84.727 210.346 84.8959C210.405 85.0649 210.5 85.2195 210.622 85.3497C210.909 85.587 211.277 85.7037 211.649 85.6752C211.823 85.6889 211.998 85.6671 212.164 85.6112C212.329 85.5552 212.482 85.4663 212.612 85.3497C212.728 85.2155 212.816 85.0598 212.871 84.8914C212.926 84.7231 212.947 84.5455 212.933 84.369V80.8877H213.903L213.899 84.3733Z" fill="#BCBDBD"/>
<path d="M31.5346 84.3362C31.5005 84.2073 31.4467 84.0844 31.3751 83.9719C31.305 83.8604 31.2177 83.7607 31.1164 83.6766C31.0122 83.5866 30.8943 83.5138 30.7672 83.461C30.9506 83.3405 31.0993 83.174 31.1983 82.9782C31.2983 82.7623 31.347 82.5262 31.3406 82.2884C31.3449 82.1103 31.3172 81.9329 31.2587 81.7646C31.2099 81.624 31.1329 81.4949 31.0323 81.3852C30.9357 81.2811 30.8201 81.1962 30.6917 81.1352C30.5543 81.0684 30.4097 81.0178 30.2606 80.9843C30.1045 80.9484 29.9461 80.9239 29.7864 80.911C29.6204 80.8981 29.4566 80.8916 29.2906 80.8916H27.0747V81.7258H29.6226C29.7078 81.727 29.7928 81.7342 29.877 81.7474C29.9511 81.7583 30.0235 81.7786 30.0925 81.8077C30.1533 81.8348 30.2065 81.8762 30.2477 81.9284C30.2947 81.9882 30.3285 82.0573 30.3469 82.1311C30.3711 82.2298 30.3827 82.3312 30.3814 82.4328C30.384 82.5416 30.3635 82.6496 30.321 82.7497C30.2793 82.8367 30.2154 82.9111 30.1356 82.9653C30.0373 83.0318 29.9266 83.078 29.8101 83.1011C29.6532 83.1317 29.4936 83.1462 29.3338 83.1442H27.0812V86.3775H29.795C29.9739 86.3789 30.1521 86.3572 30.3253 86.3129C30.4761 86.272 30.621 86.2118 30.7564 86.134C30.8847 86.0607 31.0022 85.97 31.1056 85.8645C31.2045 85.7643 31.2893 85.6512 31.3578 85.5283C31.4264 85.4086 31.4786 85.2803 31.513 85.1467C31.5473 85.0151 31.5647 84.8796 31.5648 84.7436C31.5725 84.6071 31.5624 84.4701 31.5346 84.3362ZM30.5603 85.0756C30.5223 85.1764 30.4627 85.2676 30.3857 85.3429C30.3028 85.4177 30.2051 85.4742 30.099 85.5088C29.9729 85.5487 29.8411 85.5677 29.7088 85.5649H28.0641V83.9913H29.573C29.7015 83.9916 29.8298 84.0017 29.9567 84.0215C30.0756 84.0412 30.1906 84.0798 30.2973 84.1357C30.3944 84.1873 30.4779 84.2612 30.5409 84.3513C30.6051 84.4609 30.6365 84.5866 30.6314 84.7134C30.6314 84.8376 30.6072 84.9606 30.5603 85.0756Z" fill="#BCBDBD"/>
<path d="M51.5041 82.3552C51.3945 82.0459 51.2136 81.7667 50.976 81.5404C50.7288 81.3152 50.4341 81.1487 50.1137 81.0533C49.7348 80.9399 49.3408 80.8854 48.9454 80.8916H47.0054V81.7258H49.0316C49.2996 81.7182 49.5665 81.7614 49.8184 81.853C50.0217 81.929 50.2026 82.0551 50.3444 82.2194C50.485 82.3935 50.5851 82.5967 50.6375 82.8143C50.7029 83.0765 50.7341 83.3461 50.7302 83.6162C50.7352 83.8774 50.7033 84.1379 50.6354 84.3901C50.5813 84.5819 50.4969 84.7639 50.3853 84.929C50.2937 85.0638 50.1774 85.1801 50.0426 85.2717C49.9242 85.3518 49.7959 85.4162 49.661 85.4636C49.5435 85.5062 49.4211 85.5345 49.2968 85.5476C49.2009 85.5588 49.1044 85.5645 49.0079 85.5649H47.9732V83.1549H47.0054V86.3883H48.9454C49.3645 86.3974 49.7819 86.3325 50.1784 86.1965C50.5075 86.0845 50.8037 85.8927 51.0406 85.6382C51.2712 85.3786 51.4394 85.0696 51.5321 84.735C51.6436 84.3344 51.6973 83.9199 51.6916 83.5042C51.6976 83.1131 51.6341 82.7241 51.5041 82.3552Z" fill="#BCBDBD"/>
<path d="M218.93 80.894L220.833 86.3886H221.902L219.988 80.894H218.93Z" fill="#BCBDBD"/>
<path d="M222.842 80.8574C222.645 80.8574 222.456 80.9358 222.316 81.0752C222.177 81.2147 222.099 81.4039 222.099 81.6011C222.099 82.1077 222.842 83.041 222.842 83.041C222.842 83.041 223.588 82.1185 223.588 81.6011C223.588 81.5033 223.569 81.4064 223.531 81.316C223.494 81.2256 223.439 81.1436 223.37 81.0745C223.3 81.0054 223.218 80.9507 223.128 80.9134C223.037 80.8762 222.94 80.8571 222.842 80.8574Z" fill="#BCBDBD"/>
<path d="M19.0838 80.8877H18.0146L19.9288 86.3823H20.9872L19.0838 80.8877Z" fill="#BCBDBD"/>
<path d="M16.3291 85.6753C16.3394 85.8659 16.4223 86.0453 16.5608 86.1766C16.6994 86.3078 16.883 86.381 17.0739 86.381C17.2647 86.381 17.4483 86.3078 17.5869 86.1766C17.7254 86.0453 17.8084 85.8659 17.8186 85.6753C17.8186 85.1687 17.075 84.2354 17.075 84.2354C17.075 84.2354 16.3291 85.1579 16.3291 85.6753Z" fill="#BCBDBD"/>
<path d="M140.596 80.894V86.3886H141.564V82.3232L144.03 86.3886H145.142L141.698 80.894H140.596Z" fill="#BCBDBD"/>
<path d="M145.365 81.6013C145.354 81.4107 145.271 81.2313 145.133 81.1C144.994 80.9687 144.811 80.8955 144.62 80.8955C144.429 80.8955 144.245 80.9687 144.107 81.1C143.968 81.2313 143.885 81.4107 143.875 81.6013C143.875 82.1078 144.619 83.0412 144.619 83.0412C144.619 83.0412 145.365 82.1186 145.365 81.6013Z" fill="#BCBDBD"/>
<path d="M66.1792 80.894V86.3886H67.1471V81.7261H69.9623V80.894H66.1792Z" fill="#BCBDBD"/>
<path d="M68.9878 82.8018C68.4812 82.8018 67.5479 83.5454 67.5479 83.5454C67.5479 83.5454 68.4704 84.2913 68.9878 84.2913C69.1784 84.281 69.3578 84.1981 69.4891 84.0595C69.6203 83.921 69.6935 83.7374 69.6935 83.5465C69.6935 83.3556 69.6203 83.172 69.4891 83.0335C69.3578 82.895 69.1784 82.812 68.9878 82.8018Z" fill="#BCBDBD"/>
<path d="M57.9146 85.5652V81.7261H60.9195V80.894H56.9468V86.3886H60.9303V85.5652H57.9146Z" fill="#BCBDBD"/>
<path d="M58.3457 83.5454C58.3457 83.5454 59.2683 84.2913 59.7856 84.2913C59.9762 84.281 60.1556 84.1981 60.2869 84.0595C60.4182 83.921 60.4914 83.7374 60.4914 83.5465C60.4914 83.3556 60.4182 83.172 60.2869 83.0335C60.1556 82.895 59.9762 82.812 59.7856 82.8018C59.2791 82.8018 58.3457 83.5454 58.3457 83.5454Z" fill="#BCBDBD"/>
<path d="M79.0714 83.3819C79.1246 83.831 79.1005 84.2859 79.0003 84.727C78.9459 84.9225 78.8453 85.1021 78.7071 85.2508C78.5627 85.3859 78.3937 85.492 78.2092 85.5633C77.8352 85.7031 77.4259 85.7174 77.043 85.6043C76.8889 85.5555 76.7434 85.4828 76.6119 85.3887C76.484 85.2996 76.37 85.1921 76.2735 85.0697C76.1736 84.9464 76.0909 84.81 76.0278 84.6644C75.9604 84.5145 75.9098 84.3577 75.8768 84.1967C75.8423 84.03 75.8249 83.8603 75.8251 83.6901C75.8252 83.5145 75.8404 83.3393 75.8704 83.1663C75.8979 82.9976 75.9426 82.8322 76.004 82.6727C76.0615 82.5198 76.1383 82.375 76.2325 82.2416C76.3257 82.1096 76.4384 81.9926 76.5666 81.8945C76.6975 81.7993 76.8431 81.7265 76.9978 81.679C77.1766 81.6209 77.3637 81.5925 77.5517 81.5949C77.7238 81.5948 77.8953 81.6151 78.0626 81.6553C78.2168 81.6936 78.3628 81.7593 78.4937 81.8492C78.6231 81.9418 78.733 82.059 78.8171 82.1942C78.9133 82.3526 78.9777 82.5283 79.0068 82.7115H79.9638C79.9417 82.4903 79.891 82.2729 79.8129 82.0648C79.7443 81.8871 79.6507 81.7202 79.5349 81.569C79.4268 81.4271 79.2974 81.3027 79.1512 81.2004C79.0043 81.0973 78.845 81.0133 78.677 80.9504C78.5028 80.8843 78.3222 80.8366 78.1381 80.8081C77.9441 80.7775 77.7481 80.7624 77.5517 80.7628C77.2727 80.76 76.9947 80.797 76.7262 80.8728C76.4872 80.9415 76.2598 81.0454 76.0515 81.181C75.8532 81.3108 75.6759 81.47 75.5255 81.6531C75.3756 81.8385 75.2496 82.042 75.1504 82.2588C75.0519 82.4848 74.9796 82.7213 74.9349 82.9637C74.8834 83.2177 74.8581 83.4762 74.8594 83.7354C74.8582 83.9749 74.8857 84.2137 74.9413 84.4467C74.9947 84.6711 75.0751 84.8883 75.1806 85.0934C75.286 85.2968 75.4179 85.4852 75.5729 85.6538C75.7293 85.8218 75.9085 85.967 76.1054 86.085C76.3132 86.2107 76.5373 86.3071 76.7714 86.3716C77.0287 86.4406 77.294 86.4747 77.5604 86.473C77.7048 86.472 77.849 86.4598 77.9915 86.4363C78.1379 86.4103 78.2821 86.3728 78.4226 86.3242C78.5659 86.2742 78.7044 86.2114 78.8365 86.1367C78.9684 86.0601 79.0913 85.969 79.2029 85.8651L79.3624 86.3716H80.0501V83.3538L79.0714 83.3819Z" fill="#BCBDBD"/>
<path d="M77.1228 83.6146C76.9619 83.729 76.853 83.9025 76.82 84.0972C76.7871 84.2918 76.8328 84.4916 76.9471 84.6525C77.0615 84.8135 77.235 84.9224 77.4297 84.9553C77.6243 84.9883 77.8241 84.9426 77.985 84.8282C78.3989 84.5351 78.7309 83.3883 78.7309 83.3883C78.7309 83.3883 77.5453 83.315 77.1228 83.6146Z" fill="#BCBDBD"/>
<path d="M230.342 80.894L232.245 86.3886H233.314L231.4 80.894H230.342Z" fill="#BCBDBD"/>
<path d="M227.932 80.894L229.835 86.3886H230.904L228.99 80.894H227.932Z" fill="#BCBDBD"/>
<path d="M234.256 80.8574C234.158 80.8571 234.061 80.8762 233.971 80.9134C233.88 80.9507 233.798 81.0054 233.729 81.0745C233.66 81.1436 233.605 81.2256 233.567 81.316C233.53 81.4064 233.51 81.5033 233.51 81.6011C233.51 82.1077 234.256 83.041 234.256 83.041C234.256 83.041 235 82.1185 235 81.6011C235 81.4039 234.921 81.2147 234.782 81.0752C234.642 80.9358 234.453 80.8574 234.256 80.8574Z" fill="#BCBDBD"/>
<path d="M130.885 80.894L132.797 86.3886H133.858L131.954 80.894H130.885Z" fill="#BCBDBD"/>
<path d="M134.365 80.894H133.295L135.21 86.3886H136.268L134.365 80.894Z" fill="#BCBDBD"/>
<path d="M129.2 85.6792C129.194 85.7803 129.21 85.8816 129.245 85.9767C129.28 86.0718 129.334 86.1587 129.403 86.2323C129.473 86.3058 129.557 86.3644 129.65 86.4044C129.743 86.4444 129.843 86.4651 129.945 86.4651C130.046 86.4651 130.146 86.4444 130.239 86.4044C130.332 86.3644 130.416 86.3058 130.486 86.2323C130.556 86.1587 130.61 86.0718 130.645 85.9767C130.68 85.8816 130.695 85.7803 130.689 85.6792C130.689 85.1726 129.943 84.2393 129.943 84.2393C129.943 84.2393 129.2 85.164 129.2 85.6792Z" fill="#BCBDBD"/>
<path d="M249.423 80.894L251.54 84.1813V86.3886H252.518V84.0649L250.593 80.894H249.423Z" fill="#BCBDBD"/>
<path d="M253.236 80.8574C253.138 80.8571 253.041 80.8762 252.951 80.9134C252.861 80.9507 252.778 81.0055 252.709 81.0746C252.64 81.1437 252.586 81.2258 252.548 81.3162C252.511 81.4065 252.492 81.5034 252.492 81.6011C252.492 82.1077 253.236 83.041 253.236 83.041C253.236 83.041 253.98 82.1185 253.98 81.6011C253.98 81.5034 253.961 81.4065 253.924 81.3162C253.886 81.2258 253.831 81.1437 253.762 81.0746C253.693 81.0055 253.611 80.9507 253.521 80.9134C253.43 80.8762 253.334 80.8571 253.236 80.8574Z" fill="#BCBDBD"/>
<path d="M264.299 80.894L263.057 80.9026L259.408 85.6342V86.3886H263.969V85.5652H260.682L264.299 80.894Z" fill="#BCBDBD"/>
<path d="M260.744 82.3622C261.156 82.0668 261.479 80.9179 261.479 80.9179C261.479 80.9179 260.295 80.8533 259.875 81.155C259.731 81.2751 259.637 81.4454 259.613 81.6317C259.588 81.8181 259.636 82.0066 259.745 82.1595C259.854 82.3124 260.017 82.4183 260.201 82.4559C260.385 82.4935 260.577 82.46 260.737 82.3622H260.744Z" fill="#BCBDBD"/>
<path d="M194.804 83.8709C194.701 83.7552 194.58 83.6575 194.445 83.582C194.303 83.501 194.155 83.4338 194 83.3815C193.84 83.3255 193.677 83.2787 193.511 83.2415L193.007 83.1337C192.828 83.097 192.66 83.0582 192.5 83.0216C192.355 82.9882 192.215 82.9398 192.08 82.8771C191.971 82.8255 191.874 82.7521 191.795 82.6616C191.724 82.5769 191.686 82.4686 191.69 82.3576C191.685 82.2288 191.716 82.1012 191.78 81.989C191.842 81.8908 191.926 81.8087 192.026 81.7498C192.133 81.6872 192.251 81.6435 192.373 81.6205C192.504 81.5937 192.636 81.58 192.77 81.5795H192.836V80.7539H192.802C192.626 80.7542 192.451 80.7686 192.278 80.797C192.111 80.8262 191.946 80.871 191.787 80.9307C191.635 80.9858 191.491 81.0581 191.356 81.1462C191.227 81.2342 191.113 81.3419 191.017 81.4653C190.923 81.5922 190.851 81.7334 190.802 81.8834C190.748 82.0506 190.722 82.2253 190.724 82.4008C190.72 82.5688 190.747 82.7361 190.804 82.8944C190.852 83.0283 190.925 83.1518 191.019 83.2587C191.117 83.3642 191.23 83.4537 191.356 83.5238C191.488 83.5999 191.627 83.6634 191.772 83.7135C191.925 83.7667 192.081 83.8113 192.239 83.8472C192.403 83.886 192.567 83.9204 192.729 83.9528C192.89 83.9851 193.099 84.0282 193.274 84.0713C193.432 84.1067 193.586 84.1587 193.733 84.2265C193.856 84.282 193.965 84.3637 194.052 84.4658C194.134 84.5659 194.177 84.6922 194.173 84.8215C194.175 84.9231 194.158 85.0241 194.121 85.119C194.088 85.1985 194.042 85.2715 193.983 85.3345C193.922 85.3988 193.849 85.4507 193.768 85.4876C193.685 85.5295 193.599 85.562 193.509 85.5846C193.413 85.6088 193.316 85.6261 193.218 85.6363C193.115 85.6363 193.002 85.6514 192.914 85.6514C192.877 85.6514 192.845 85.6514 192.811 85.6514V86.4921H192.89C193.069 86.4919 193.246 86.4789 193.423 86.4532C193.598 86.4291 193.77 86.3887 193.938 86.3325C194.1 86.2793 194.256 86.207 194.401 86.117C194.543 86.0332 194.669 85.9269 194.776 85.8023C194.885 85.6743 194.97 85.5284 195.029 85.3712C195.092 85.1949 195.123 85.0088 195.121 84.8215C195.125 84.6344 195.095 84.4483 195.033 84.2718C194.982 84.1252 194.905 83.9892 194.804 83.8709Z" fill="#BCBDBD"/>
<path d="M191.117 85.007C190.921 85.0296 190.741 85.1291 190.619 85.2837C190.496 85.4384 190.44 85.6354 190.462 85.8315C190.485 86.0276 190.585 86.2067 190.739 86.3294C190.894 86.452 191.091 86.5083 191.287 86.4857C191.791 86.4275 192.632 85.5804 192.632 85.5804C192.632 85.5804 191.63 84.9466 191.117 85.007Z" fill="#BCBDBD"/>
<path d="M194.671 82.2474C194.858 82.2054 195.021 82.0932 195.128 81.9341C195.234 81.7749 195.275 81.581 195.242 81.3924C195.21 81.2038 195.106 81.035 194.952 80.9209C194.799 80.8068 194.607 80.7562 194.417 80.7795C193.919 80.8657 193.124 81.7581 193.124 81.7581C193.124 81.7581 194.163 82.3337 194.671 82.2474Z" fill="#BCBDBD"/>
<path d="M240.067 80.894L243.736 86.3886H244.92L241.238 80.894H240.067Z" fill="#BCBDBD"/>
<path d="M244.7 81.1032C244.631 81.0341 244.549 80.9793 244.459 80.9419C244.369 80.9045 244.272 80.8853 244.174 80.8853C244.076 80.8853 243.98 80.9045 243.89 80.9419C243.799 80.9793 243.717 81.0341 243.648 81.1032C243.29 81.461 243.157 82.6466 243.157 82.6466C243.157 82.6466 244.336 82.5194 244.7 82.1551C244.769 82.086 244.824 82.0041 244.861 81.9138C244.899 81.8236 244.918 81.7268 244.918 81.6291C244.918 81.5314 244.899 81.4347 244.861 81.3445C244.824 81.2542 244.769 81.1722 244.7 81.1032Z" fill="#BCBDBD"/>
<path d="M240.286 86.171C240.355 86.2401 240.437 86.2949 240.527 86.3323C240.617 86.3697 240.714 86.389 240.811 86.389C240.909 86.389 241.006 86.3697 241.096 86.3323C241.186 86.2949 241.268 86.2401 241.337 86.171C241.695 85.8111 241.829 84.6255 241.829 84.6255C241.829 84.6255 240.65 84.7527 240.286 85.117C240.146 85.2568 240.067 85.4464 240.067 85.644C240.067 85.8416 240.146 86.0312 240.286 86.171Z" fill="#BCBDBD"/>
<path d="M185.471 83.7955C185.622 83.6498 185.737 83.4703 185.805 83.2717C185.884 83.0459 185.922 82.808 185.917 82.5689C185.922 82.3264 185.884 82.085 185.805 81.8554C185.736 81.6565 185.622 81.4763 185.471 81.3295C185.31 81.1813 185.119 81.0702 184.911 81.004C184.657 80.9257 184.393 80.8878 184.128 80.8919H181.662V86.3886H182.63V84.233H183.641L184.68 86.3886H185.719L184.661 84.1835C184.745 84.168 184.829 84.1471 184.911 84.121C185.119 84.0556 185.311 83.9444 185.471 83.7955ZM184.697 83.1962C184.458 83.362 184.168 83.4383 183.878 83.4118H182.63V81.7326H183.878C184.168 81.7091 184.457 81.7851 184.697 81.9481C184.78 82.03 184.847 82.1276 184.892 82.2353C184.937 82.343 184.96 82.4586 184.96 82.5754C184.96 82.6922 184.937 82.8078 184.892 82.9155C184.847 83.0232 184.78 83.1208 184.697 83.2027V83.1962Z" fill="#BCBDBD"/>
<path d="M176.159 85.6063H175.161C175.303 85.4369 175.422 85.25 175.517 85.0502C175.616 84.8348 175.688 84.6083 175.732 84.3755C175.782 84.1344 175.808 83.8888 175.808 83.6426C175.808 83.3949 175.782 83.1479 175.732 82.9054C175.688 82.6712 175.615 82.4433 175.517 82.2263C175.418 82.015 175.292 81.8178 175.142 81.64C174.989 81.4602 174.81 81.3047 174.611 81.1787C174.4 81.0465 174.17 80.9449 173.93 80.8769C173.658 80.8029 173.376 80.7666 173.094 80.7692C172.813 80.7667 172.534 80.803 172.264 80.8769C172.025 80.9453 171.797 81.0469 171.587 81.1787C171.391 81.3058 171.214 81.4613 171.063 81.64C170.914 81.8185 170.789 82.0155 170.69 82.2263C170.593 82.4436 170.52 82.6715 170.475 82.9054C170.425 83.1479 170.401 83.395 170.401 83.6426C170.401 83.8887 170.425 84.1343 170.475 84.3755C170.52 84.6081 170.592 84.8345 170.69 85.0502C170.789 85.2589 170.914 85.4539 171.063 85.63C171.214 85.8072 171.391 85.9612 171.587 86.087C171.797 86.2183 172.025 86.3185 172.264 86.3845C172.534 86.4577 172.814 86.4932 173.094 86.4901C173.37 86.4924 173.645 86.4584 173.913 86.3888H176.159V85.6063ZM173.094 85.6796C172.904 85.6818 172.716 85.6542 172.535 85.5977C172.381 85.5488 172.236 85.4761 172.104 85.3821C171.976 85.2884 171.864 85.1749 171.772 85.0459C171.679 84.9121 171.602 84.7673 171.544 84.6147C171.484 84.4614 171.44 84.3025 171.412 84.1405C171.384 83.9746 171.37 83.8066 171.369 83.6383C171.37 83.4692 171.384 83.3005 171.412 83.1339C171.44 82.9703 171.484 82.8099 171.544 82.6553C171.602 82.5028 171.679 82.358 171.772 82.2242C171.962 81.9569 172.234 81.7586 172.546 81.6594C172.727 81.6029 172.915 81.5753 173.104 81.5775C173.297 81.5752 173.489 81.6028 173.674 81.6594C173.834 81.706 173.985 81.7788 174.122 81.875C174.251 81.9699 174.364 82.0841 174.458 82.2134C174.553 82.3467 174.629 82.4916 174.687 82.6445C174.748 82.7988 174.792 82.9593 174.818 83.1231C174.847 83.2896 174.862 83.4584 174.861 83.6275C174.862 83.7958 174.848 83.964 174.818 84.1297C174.791 84.292 174.747 84.4509 174.687 84.604C174.63 84.7569 174.553 84.9019 174.458 85.0351C174.265 85.3019 173.989 85.498 173.674 85.5934C173.486 85.6526 173.29 85.6817 173.094 85.6796Z" fill="#BCBDBD"/>
</svg>
