<svg width="230" height="34" viewBox="0 0 230 34" fill="none" xmlns="http://www.w3.org/2000/svg">
<path d="M25.729 1.27148C24.147 1.27148 22.2573 1.22754 20.5435 1.13965V2.04053C23.1143 2.10645 24.4766 2.7876 24.4766 4.76514C24.4766 5.68799 24.1689 6.89648 23.5757 8.43457L16.2368 27.4409L8.08496 5.81982C7.7334 4.91895 7.55762 4.23779 7.55762 3.71045C7.55762 2.45801 8.59033 2.12842 10.7437 2.04053V1.13965C9.49121 1.22754 7.31592 1.27148 4.98682 1.27148C3.27295 1.27148 1.3833 1.22754 0.174805 1.13965V2.04053C1.11963 2.08447 2.37207 2.63379 3.27295 4.91895L14.2593 33.2197C14.3911 33.2197 14.479 33.2197 14.6108 33.2197H14.9844L25.5532 5.95166C26.5859 3.24902 27.9263 2.3042 29.1128 2.04053V1.13965C28.2119 1.22754 27.2671 1.27148 25.729 1.27148ZM66.7722 27.2432C66.7722 25.9907 66.8161 24.8042 66.904 23.9912H65.8713C65.2341 29.9458 64.1135 31.9673 58.4885 31.9673H55.1926C52.1384 31.9673 51.5451 31.5059 51.5451 28.2319V17.4214H54.5334C58.4445 17.4214 58.4885 20.4976 58.84 23.376H59.8728C59.653 19.9482 59.6091 18.4541 59.6091 16.9819C59.6091 16.3228 59.5871 15.6636 59.5871 14.8286C59.5871 13.7959 59.6091 12.4995 59.7409 10.5879H58.7082C58.3566 12.7412 58.4445 16.5205 54.5334 16.5205H51.5451V5.90771C51.5451 2.63379 52.1384 2.17236 55.1926 2.17236H58.9279C63.696 2.17236 64.3771 3.93018 64.9704 9.24756H66.0031C65.9152 8.56641 65.8713 7.53369 65.8713 6.45703C65.8713 5.42432 65.9592 3.24902 66.1789 1.13965C63.3884 1.27148 59.5212 1.27148 56.7746 1.27148C54.072 1.27148 48.1394 1.27148 43.7229 1.13965V2.04053C46.7771 2.17236 47.3703 2.63379 47.3703 5.90771V28.2319C47.3703 31.5059 46.7771 31.9673 43.7229 32.0991V33C48.1394 32.8682 54.072 32.8682 56.7746 32.8682C59.7849 32.8682 64.0256 32.8682 67.0798 33C66.8601 30.7148 66.7722 28.3638 66.7722 27.2432ZM99.0043 0.502441C90.6327 0.502441 84.7001 7.27002 84.7001 17.3335C84.7001 27.6387 90.413 33.6372 98.9604 33.6372C107.332 33.6372 113.265 26.8696 113.265 16.8062C113.265 6.50098 107.552 0.502441 99.0043 0.502441ZM98.8285 1.31543C104.366 1.31543 108.76 7.40186 108.76 16.9819C108.76 26.2983 104.981 32.8242 99.1361 32.8242C93.599 32.8242 89.1825 26.7378 89.1825 17.1577C89.1825 7.84131 92.9618 1.31543 98.8285 1.31543ZM158.504 1.13965C157.516 1.22754 155.846 1.27148 154.33 1.27148C152.792 1.27148 150.814 1.22754 149.737 1.13965V2.04053C153.253 2.17236 153.824 3.07324 153.824 6.36914V25.6172L137.938 1.13965C136.949 1.22754 135.741 1.27148 134.422 1.27148C132.906 1.27148 131.236 1.22754 130.248 1.13965V2.04053C133.302 2.17236 133.895 2.63379 133.895 5.90771V27.7705C133.895 31.0664 133.302 31.9673 130.248 32.0991V33C131.236 32.9121 132.906 32.8682 134.422 32.8682C135.961 32.8682 137.938 32.9121 139.015 33V32.0991C135.521 31.9673 134.928 31.0664 134.928 27.7705V4.01807L153.824 33.2197H154.857V6.36914C154.857 3.07324 155.45 2.17236 158.504 2.04053V1.13965ZM186.54 1.13965C185.156 1.22754 182.892 1.27148 180.827 1.27148C178.498 1.27148 176.323 1.22754 175.07 1.13965V2.04053C178.124 2.17236 178.718 2.63379 178.718 5.90771V28.2319C178.718 31.5059 178.124 31.9673 175.07 32.0991V33C176.323 32.9121 178.498 32.8682 180.827 32.8682C182.892 32.8682 185.156 32.9121 186.54 33V32.0991C183.486 31.9673 182.892 31.5059 182.892 28.2319V5.90771C182.892 2.63379 183.486 2.17236 186.54 2.04053V1.13965ZM217.366 15.5757L223.672 6.17139C225.32 3.71045 226.902 2.3042 228.748 2.04053V1.13965C227.847 1.22754 226.462 1.27148 224.924 1.27148C223.342 1.27148 221.453 1.22754 219.739 1.13965V2.04053C221.98 2.08447 223.232 2.52393 223.232 3.84229C223.232 4.78711 222.617 6.17139 221.277 8.1709L216.86 14.7847L209.851 4.06201C209.609 3.6665 209.456 3.33691 209.456 3.07324C209.456 2.41406 210.312 2.08447 212.466 2.08447V1.13965C210.796 1.22754 208.555 1.31543 206.116 1.31543C204.578 1.31543 203.018 1.18359 202.249 1.13965V2.08447C203.589 2.17236 204.138 2.58984 205.259 4.32568L214.07 17.8389L207.28 27.9683C205.61 30.4292 204.05 31.8354 202.205 32.0991V33C203.105 32.9121 204.49 32.8682 206.028 32.8682C207.61 32.8682 210.4 32.9121 212.092 33V32.0991C209.697 32.0332 208.093 31.5498 208.093 29.9458C208.093 29.0449 208.621 27.7485 209.807 25.9907L214.663 18.7397L222.354 30.5171C222.573 30.8467 222.683 31.1104 222.683 31.3301C222.683 31.9233 221.694 32.0552 219.475 32.0552V33C220.684 32.9561 223.386 32.8242 225.825 32.8242C227.363 32.8242 228.923 32.9561 229.692 33V32.0552C228.352 31.9673 227.803 31.5498 226.682 29.814L217.366 15.5757Z" fill="#D1D3D7"/>
</svg>
