<svg xmlns="http://www.w3.org/2000/svg" xmlns:xlink="http://www.w3.org/1999/xlink" viewBox="0 0 270 326">
  <defs>
    <mask id="a" x="-87" y="-91.61" width="544.71" height="578.88" maskUnits="userSpaceOnUse">
      <g>
        <path d="M142.25-24.2a13.47,13.47,0,0,1,2,8.56,8.27,8.27,0,0,1-4.41,6.34,5.34,5.34,0,0,1-4.11.83l-.91-.28-1.32-.73-.18.1L134.45-7l-7.11,4.11L127-3.49l3.3-1.9L115.18-31.55l-3.29,1.9-.35-.6s6.48-3.89,7.31-4.62l6.3,10.92.19-.11a5.58,5.58,0,0,1,2.9-5.07C132-31.32,138.1-31.38,142.25-24.2Zm-3.94,4.68c-.42-7-1.93-10.13-5.1-9.95s-4.35,3.52-4,10c.41,7,2.22,9.77,5.32,9.59S138.7-12.9,138.31-19.52Z" style="fill: #fff"/>
        <path d="M171.37-64,171-64.6s6.48-3.88,7.31-4.61L194-42.14l3.29-1.9.35.6-10.77,6.22-.34-.6,3.29-1.9L174.66-65.89Z" style="fill: #fff"/>
        <path d="M176.15-30.27A10.24,10.24,0,0,1,168-29.12a11.65,11.65,0,0,1-6.79-5.81c-1.77-3.06-2.32-6-1.61-8.74a10.12,10.12,0,0,1,5-6.49,10.08,10.08,0,0,1,8.14-1.1c2.73.76,5,2.69,6.77,5.76a11.68,11.68,0,0,1,1.63,8.78A10.24,10.24,0,0,1,176.15-30.27Zm-4.8.81a4.24,4.24,0,0,0,3.8-2.63c.68-1.62.86-4.5.51-8.58s-1-6.89-2-8.32a4.17,4.17,0,0,0-4.2-2,4.21,4.21,0,0,0-3.8,2.67c-.69,1.58-.86,4.45-.51,8.54s1,6.88,2,8.36a4.25,4.25,0,0,0,4.2,1.93Z" style="fill: #fff"/>
        <path d="M153.82-18.07a13.89,13.89,0,0,0-2.34.7.52.52,0,0,0-.29.71l-.37.22-3.54-6.13.45-.26c2.32,4.29,5.22,5.16,9.14,2.89,3-1.74,3.88-3.73,2.61-5.94A3.69,3.69,0,0,0,157-27.81a19.45,19.45,0,0,0-5-.09A18.09,18.09,0,0,1,147.4-28a5.65,5.65,0,0,1-4.27-2.82c-1.64-2.84-.76-6.49,3.17-8.76a8.72,8.72,0,0,1,2.87-1.06,9.26,9.26,0,0,0,1.81-.5c.45-.26.57-.57.37-.91l.38-.22,2.57,4.55-.45.26q-2.85-4-7.28-1.48c-2,1.14-2.47,2.62-1.46,4.38a3.65,3.65,0,0,0,2.77,1.94,15.84,15.84,0,0,0,3.56,0,35.86,35.86,0,0,1,5.91,0,5.12,5.12,0,0,1,3.7,2.7,6.46,6.46,0,0,1,.44,5.68,8.87,8.87,0,0,1-4.16,4.8A13.82,13.82,0,0,1,153.82-18.07Z" style="fill: #fff"/>
        <path d="M221.39-63.07,213.5-76.75l-2.73,1.57-.35-.6a6.23,6.23,0,0,0,3.28-4.58,8.45,8.45,0,0,0-1.12-5.84l.75-.43,4,6.88L223-83l.35.6-5.65,3.26,8.7,15.07c1.1,1.9,2.61,2.53,3.92,1.77a4.14,4.14,0,0,0,2-4.33l.62-.06c.23,2.31-.84,4.17-3.19,5.53C226.57-59.38,223.14-60,221.39-63.07Z" style="fill: #fff"/>
        <path d="M217.23-55.58l3.29-1.9.34.6-7.47,4.32-1.69-2.92-.19.11a23.29,23.29,0,0,1-.38,2.62,8.39,8.39,0,0,1-4,4.59c-3.89,2.24-7.62,2-10.23-2.52l-7.15-12.38-3.29,1.9-.34-.6,7.47-4.31,7.28,12.6c2.24,3.88,4.9,5.29,7.14,4a5.3,5.3,0,0,0,2.38-3.21,8.84,8.84,0,0,0,.16-4.73l-7.64-13.23L200-69l-.34-.6s6.1-3.67,6.93-4.4Z" style="fill: #fff"/>
        <path d="M245.86-89.24a8.78,8.78,0,0,0-7.14-2.33,8.76,8.76,0,0,0-7.09,4.09,13.05,13.05,0,0,0-1.84,8.18,12.62,12.62,0,0,0,3.41,7.85,9.31,9.31,0,0,0,8,2.72,9.31,9.31,0,0,0,8.28-5.45h0a2.28,2.28,0,0,0,.15-.36,3.19,3.19,0,0,0-2.12-3.67,3.18,3.18,0,0,0-3.66,2.12,3.16,3.16,0,0,0,2.11,3.66,2.89,2.89,0,0,0,1.72-.11,8.31,8.31,0,0,1-5.74,3.06c-4.3.38-6.16-2.58-6.86-10.53l0-.39,9.37-.82,2.54-.22,2.24-.2A11.16,11.16,0,0,0,245.86-89.24Zm-1.52,7.32L235-81.1c-.28-3.65-.1-6.18.47-7.53a3.87,3.87,0,0,1,3.49-2.26,3.61,3.61,0,0,1,3.69,1.63C243.41-88.08,244-85.61,244.34-81.92Z" style="fill: #fff"/>
        <path d="M125.53-2.07l-.16.13c-.79.45-1.47.24-2-.69L116.63-14.3c-1.36-2.36-2.9-3.56-4.71-3.66a10.9,10.9,0,0,0-6,1.73C101.07-13.44,99.42-10.7,101-8a2.66,2.66,0,0,0,3.88,1.19,2.37,2.37,0,0,0,.93-3.47A2.34,2.34,0,0,0,104-11.4a1.5,1.5,0,0,1-1.19-.6q-.72-1.23,2.76-3.24a4.55,4.55,0,0,1,3.34-.79c.88.24,1.87,1.27,2.93,3.1l1.7,2.95a22.93,22.93,0,0,0-7.76,6.68,6,6,0,0,0-.46,6.79c1.9,3.29,5.81,3.77,10,1.33,2.69-1.55,3.93-3.56,3.71-6.08l.16-.09c1.63,1.55,3.48,1.73,5.61.5a5.33,5.33,0,0,0,1-.71ZM117.65-.69a5,5,0,0,1-1,3.29,4.55,4.55,0,0,1-3.42,1.7c-2.8.21-3.85-1.65-4.18-5.83-.2-2.49.23-4.21,1.24-5.12s2.52-1.28,4.64-1.51C114.89-8.16,117.51-3.62,117.65-.69Z" style="fill: #fff"/>
        <path d="M-22.3,70.8a13.48,13.48,0,0,1,2,8.56,8.31,8.31,0,0,1-4.42,6.34,5.34,5.34,0,0,1-4.11.83l-.9-.28L-31,85.52l-.19.1L-30.1,88l-7.1,4.11-.35-.61,3.29-1.9L-49.37,63.45l-3.29,1.9-.34-.6s6.47-3.89,7.3-4.62l6.3,10.92.19-.11a5.6,5.6,0,0,1,2.91-5.07C-32.59,63.68-26.44,63.62-22.3,70.8Zm-3.94,4.68c-.41-7-1.93-10.13-5.1-10-3,.18-4.35,3.52-4,10,.41,7,2.22,9.77,5.31,9.59S-25.85,82.1-26.24,75.48Z" style="fill: #fff"/>
        <path d="M6.82,31l-.34-.61s6.47-3.88,7.3-4.61L29.41,52.86,32.7,51l.35.6L22.28,57.78l-.35-.6,3.29-1.9L10.11,29.11Z" style="fill: #fff"/>
        <path d="M11.6,64.73a10.23,10.23,0,0,1-8.11,1.15A11.65,11.65,0,0,1-3.3,60.07c-1.77-3.06-2.31-6-1.61-8.74a10.13,10.13,0,0,1,5-6.49,10.05,10.05,0,0,1,8.13-1.1c2.73.76,5,2.69,6.77,5.76a11.68,11.68,0,0,1,1.63,8.78A10.2,10.2,0,0,1,11.6,64.73Zm-4.79.81a4.24,4.24,0,0,0,3.8-2.63c.68-1.62.86-4.5.5-8.58s-1-6.89-2-8.32a4.2,4.2,0,0,0-4.21-2,4.2,4.2,0,0,0-3.79,2.67C.44,48.29.26,51.16.62,55.25s1,6.88,2,8.36A4.23,4.23,0,0,0,6.8,65.54Z" style="fill: #fff"/>
        <path d="M-10.73,76.93a14.25,14.25,0,0,0-2.34.7.51.51,0,0,0-.28.71l-.38.22-3.54-6.13.45-.26c2.33,4.29,5.22,5.16,9.15,2.89,3-1.74,3.87-3.73,2.6-5.94a3.67,3.67,0,0,0-2.51-1.93,19.53,19.53,0,0,0-5-.09A17.64,17.64,0,0,1-17.15,67a5.61,5.61,0,0,1-4.27-2.81c-1.64-2.84-.75-6.49,3.17-8.76a8.69,8.69,0,0,1,2.88-1.06,9.76,9.76,0,0,0,1.81-.5c.44-.26.56-.57.37-.91l.37-.22,2.58,4.55-.45.26q-2.85-4-7.28-1.48c-2,1.14-2.48,2.62-1.46,4.38a3.64,3.64,0,0,0,2.76,1.94,15.86,15.86,0,0,0,3.56,0,36,36,0,0,1,5.92,0,5.14,5.14,0,0,1,3.7,2.7A6.5,6.5,0,0,1-3,70.8a8.91,8.91,0,0,1-4.16,4.8A13.9,13.9,0,0,1-10.73,76.93Z" style="fill: #fff"/>
        <path d="M56.85,31.93,49,18.25l-2.73,1.57-.35-.6a6.26,6.26,0,0,0,3.29-4.59A8.48,8.48,0,0,0,48,8.8l.74-.43,4,6.88L58.43,12l.35.6-5.64,3.26,8.7,15.07c1.1,1.9,2.6,2.53,3.91,1.77a4.15,4.15,0,0,0,2-4.33l.61-.06c.24,2.31-.83,4.17-3.19,5.53C62,35.62,58.6,35,56.85,31.93Z" style="fill: #fff"/>
        <path d="M52.68,39.42,56,37.52l.35.6-7.48,4.32-1.68-2.92-.19.11a23.32,23.32,0,0,1-.39,2.62,8.31,8.31,0,0,1-4,4.59c-3.89,2.24-7.61,2-10.23-2.52L25.23,31.94l-3.29,1.9-.35-.6,7.48-4.31,7.27,12.6c2.25,3.88,4.9,5.29,7.15,4a5.25,5.25,0,0,0,2.37-3.21A8.74,8.74,0,0,0,46,37.58L38.38,24.35,35.47,26l-.35-.6s6.11-3.67,6.93-4.4Z" style="fill: #fff"/>
        <path d="M81.32,5.76a8.78,8.78,0,0,0-7.14-2.33,8.78,8.78,0,0,0-7.1,4.09,13.18,13.18,0,0,0-1.84,8.18,12.63,12.63,0,0,0,3.42,7.85,9.29,9.29,0,0,0,8,2.72c4.44-.39,6.65-2.36,8.28-5.45h0a2.28,2.28,0,0,0,.15-.36,3,3,0,0,0-5.78-1.55,3.17,3.17,0,0,0,2.12,3.66,2.85,2.85,0,0,0,1.71-.11,8.31,8.31,0,0,1-5.73,3.06c-4.3.38-6.16-2.58-6.86-10.53l0-.39,9.37-.82,2.54-.22,2.23-.2A11.15,11.15,0,0,0,81.32,5.76Zm-1.53,7.32-9.37.82c-.28-3.65-.11-6.19.47-7.53a3.84,3.84,0,0,1,3.48-2.26,3.62,3.62,0,0,1,3.7,1.63C78.86,6.92,79.42,9.39,79.79,13.08Z" style="fill: #fff"/>
        <path d="M-39,92.93a1.09,1.09,0,0,1-.17.13c-.79.45-1.46.24-2-.69L-47.92,80.7c-1.36-2.36-2.9-3.56-4.7-3.66a10.93,10.93,0,0,0-6,1.73c-4.82,2.79-6.47,5.53-4.92,8.23a2.66,2.66,0,0,0,3.88,1.19,2.36,2.36,0,0,0,.93-3.47,2.3,2.3,0,0,0-1.78-1.12,1.52,1.52,0,0,1-1.2-.6q-.7-1.23,2.77-3.24A4.47,4.47,0,0,1-55.64,79c.89.23,1.88,1.26,2.93,3.09L-51,85a22.83,22.83,0,0,0-7.76,6.68,6,6,0,0,0-.47,6.79c1.9,3.29,5.82,3.77,10,1.33,2.7-1.55,3.93-3.56,3.72-6.08l.15-.09c1.64,1.55,3.49,1.73,5.62.5a5.69,5.69,0,0,0,1-.71Zm-7.89,1.38a4.91,4.91,0,0,1-1,3.29,4.55,4.55,0,0,1-3.42,1.7c-2.79.21-3.85-1.65-4.18-5.83-.19-2.49.24-4.21,1.25-5.12s2.51-1.28,4.64-1.51C-49.65,86.84-47,91.38-46.9,94.31Z" style="fill: #fff"/>
        <path d="M-51.74,223.85l-7.9-13.69-2.73,1.58-.35-.6a6.28,6.28,0,0,0,3.29-4.59,8.49,8.49,0,0,0-1.13-5.83l.75-.43,4,6.88,5.69-3.28.34.6-5.64,3.26,8.7,15.06c1.1,1.91,2.6,2.54,3.91,1.78a4.17,4.17,0,0,0,2-4.34l.61-.05c.24,2.3-.83,4.17-3.19,5.53C-46.57,227.54-50,226.88-51.74,223.85Z" style="fill: #fff"/>
        <path d="M-55.91,231.34l3.29-1.9.35.6-7.48,4.32-1.68-2.92-.19.11a22.81,22.81,0,0,1-.39,2.61,8.32,8.32,0,0,1-4,4.6c-3.89,2.24-7.61,2-10.23-2.52l-7.14-12.38-3.29,1.9-.35-.6,7.48-4.32,7.27,12.6c2.25,3.89,4.9,5.29,7.15,4a5.27,5.27,0,0,0,2.37-3.22,8.74,8.74,0,0,0,.16-4.73l-7.64-13.23L-73.12,218l-.35-.6s6.1-3.68,6.93-4.4Z" style="fill: #fff"/>
        <path d="M-27.27,197.67a8.81,8.81,0,0,0-7.14-2.32,8.74,8.74,0,0,0-7.1,4.09,13.15,13.15,0,0,0-1.84,8.18,12.6,12.6,0,0,0,3.42,7.84,9.28,9.28,0,0,0,8,2.73c4.43-.39,6.65-2.36,8.28-5.45h0a2.39,2.39,0,0,0,.15-.37,3.17,3.17,0,0,0-2.12-3.66,3.16,3.16,0,0,0-3.66,2.12,3.16,3.16,0,0,0,2.12,3.66,2.82,2.82,0,0,0,1.72-.12,8.33,8.33,0,0,1-5.74,3.07c-4.3.38-6.16-2.58-6.86-10.54l0-.38,9.37-.82,2.54-.22,2.23-.2A11.18,11.18,0,0,0-27.27,197.67ZM-28.8,205l-9.37.82c-.28-3.66-.11-6.19.47-7.54A3.85,3.85,0,0,1-34.22,196a3.63,3.63,0,0,1,3.7,1.62C-29.73,198.84-29.17,201.3-28.8,205Z" style="fill: #fff"/>
        <path d="M198.2,72.71a13.52,13.52,0,0,1,2,8.57,8.31,8.31,0,0,1-4.42,6.34,5.28,5.28,0,0,1-4.11.82l-.9-.28-1.32-.73-.19.11,1.13,2.39L183.3,94l-.35-.6,3.29-1.9L171.13,65.36l-3.29,1.9-.35-.6s6.48-3.89,7.31-4.61L181.1,73l.19-.1a5.58,5.58,0,0,1,2.91-5.07C187.91,65.6,194.06,65.54,198.2,72.71Zm-3.94,4.69c-.41-7.05-1.93-10.14-5.1-10-3,.18-4.35,3.51-4,10,.41,7,2.22,9.77,5.31,9.58S194.65,84,194.26,77.4Z" style="fill: #fff"/>
        <path d="M227.32,32.92l-.34-.6s6.47-3.89,7.3-4.61l15.63,27.06,3.29-1.89.35.6-10.77,6.21-.35-.6,3.29-1.9L230.61,31Z" style="fill: #fff"/>
        <path d="M232.1,66.65A10.19,10.19,0,0,1,224,67.79,11.63,11.63,0,0,1,217.2,62c-1.77-3.06-2.31-6-1.61-8.74a10.85,10.85,0,0,1,13.16-7.6c2.73.77,5,2.7,6.77,5.77a11.67,11.67,0,0,1,1.63,8.78A10.2,10.2,0,0,1,232.1,66.65Zm-4.79.8a4.24,4.24,0,0,0,3.8-2.63c.68-1.62.86-4.5.5-8.58s-1-6.88-2-8.32a4.63,4.63,0,0,0-8,.7c-.69,1.58-.87,4.46-.51,8.54s1,6.89,2,8.36a4.19,4.19,0,0,0,4.19,1.93Z" style="fill: #fff"/>
        <path d="M209.77,78.84a14.88,14.88,0,0,0-2.34.71.51.51,0,0,0-.28.71l-.38.22-3.54-6.13.45-.26c2.33,4.29,5.22,5.16,9.15,2.89,3-1.75,3.87-3.73,2.6-5.94a3.73,3.73,0,0,0-2.51-1.94,19.64,19.64,0,0,0-5-.08,17.64,17.64,0,0,1-4.53-.08,5.62,5.62,0,0,1-4.27-2.82c-1.64-2.84-.75-6.49,3.17-8.75a8.94,8.94,0,0,1,2.88-1.07,8.84,8.84,0,0,0,1.8-.49c.46-.26.57-.58.38-.91l.37-.22,2.58,4.55-.45.25c-1.91-2.69-4.33-3.18-7.29-1.47-2,1.14-2.47,2.62-1.45,4.38a3.64,3.64,0,0,0,2.76,1.94,16.48,16.48,0,0,0,3.56,0,36,36,0,0,1,5.92,0A5.13,5.13,0,0,1,217,67a6.49,6.49,0,0,1,.44,5.68,8.9,8.9,0,0,1-4.16,4.79A13.53,13.53,0,0,1,209.77,78.84Z" style="fill: #fff"/>
        <path d="M277.35,33.85l-7.9-13.69-2.73,1.58-.35-.6a6.28,6.28,0,0,0,3.29-4.59,8.44,8.44,0,0,0-1.13-5.83l.75-.43,4,6.88,5.68-3.28.35.6-5.64,3.26,8.7,15.06c1.1,1.91,2.6,2.54,3.91,1.78a4.14,4.14,0,0,0,2-4.34l.62-.05c.24,2.3-.83,4.17-3.19,5.53C282.52,37.54,279.1,36.88,277.35,33.85Z" style="fill: #fff"/>
        <path d="M273.18,41.34l3.29-1.9.35.6-7.48,4.32-1.68-2.92-.19.11a22.81,22.81,0,0,1-.39,2.61,8.32,8.32,0,0,1-4,4.6c-3.89,2.24-7.62,2-10.23-2.52l-7.14-12.38-3.29,1.9-.35-.6,7.48-4.32,7.27,12.6c2.25,3.89,4.9,5.29,7.15,4a5.27,5.27,0,0,0,2.37-3.22,8.74,8.74,0,0,0,.16-4.73l-7.64-13.23L256,28l-.35-.6s6.11-3.68,6.93-4.4Z" style="fill: #fff"/>
        <path d="M301.82,7.67a9.66,9.66,0,0,0-14.24,1.77,13.17,13.17,0,0,0-1.84,8.18,12.6,12.6,0,0,0,3.42,7.84,9.25,9.25,0,0,0,8,2.73c4.43-.39,6.65-2.36,8.28-5.45h0a2.39,2.39,0,0,0,.15-.37,3,3,0,0,0-5.78-1.54,3.17,3.17,0,0,0,2.12,3.66,2.89,2.89,0,0,0,1.72-.11,8.36,8.36,0,0,1-5.74,3.06c-4.3.38-6.17-2.58-6.86-10.53l0-.39,9.37-.82,2.54-.22,2.23-.2A11.18,11.18,0,0,0,301.82,7.67ZM300.29,15l-9.37.82c-.28-3.66-.11-6.19.47-7.54A3.85,3.85,0,0,1,294.87,6a3.63,3.63,0,0,1,3.7,1.62C299.36,8.84,299.92,11.3,300.29,15Z" style="fill: #fff"/>
        <path d="M181.49,94.85l-.17.12c-.79.46-1.46.25-2-.69l-6.74-11.66c-1.36-2.36-2.9-3.56-4.7-3.67a11,11,0,0,0-6,1.74c-4.82,2.78-6.47,5.53-4.92,8.22a2.67,2.67,0,0,0,3.88,1.2,2.37,2.37,0,0,0,.93-3.48A2.34,2.34,0,0,0,160,85.52a1.56,1.56,0,0,1-1.2-.61q-.7-1.23,2.77-3.24a4.56,4.56,0,0,1,3.33-.78c.89.24,1.88,1.26,2.93,3.1l1.71,3a22.82,22.82,0,0,0-7.76,6.67c-1.58,2.36-1.72,4.63-.47,6.8,1.9,3.29,5.82,3.77,10,1.33,2.7-1.55,3.93-3.56,3.72-6.08l.15-.09c1.64,1.55,3.49,1.73,5.62.5a5.69,5.69,0,0,0,1-.71Zm-7.89,1.38a4.87,4.87,0,0,1-1,3.28,4.52,4.52,0,0,1-3.42,1.7c-2.79.22-3.85-1.64-4.18-5.82-.19-2.5.24-4.22,1.25-5.12s2.51-1.28,4.64-1.51C170.85,88.76,173.47,93.29,173.6,96.23Z" style="fill: #fff"/>
        <path d="M33.66,167.71a13.51,13.51,0,0,1,2,8.57,8.24,8.24,0,0,1-4.41,6.33,5.3,5.3,0,0,1-4.11.83l-.91-.27-1.32-.74-.19.11,1.14,2.39L18.75,189l-.35-.6,3.29-1.9L6.59,160.36l-3.29,1.9-.35-.6s6.48-3.89,7.31-4.61L16.56,168l.18-.1a5.6,5.6,0,0,1,2.91-5.07C23.37,160.6,29.51,160.54,33.66,167.71Zm-3.94,4.69c-.42-7.05-1.93-10.14-5.1-10s-4.35,3.51-4,10c.41,7,2.23,9.77,5.32,9.58S30.11,179,29.72,172.4Z" style="fill: #fff"/>
        <path d="M62.78,127.92l-.35-.6s6.48-3.89,7.31-4.61l15.62,27.06,3.29-1.89.35.6-10.77,6.21-.34-.6,3.29-1.9L66.07,126Z" style="fill: #fff"/>
        <path d="M67.56,161.65a10.2,10.2,0,0,1-8.11,1.14,11.63,11.63,0,0,1-6.79-5.8c-1.77-3.06-2.32-6-1.61-8.74a10.84,10.84,0,0,1,13.16-7.6q4.1,1.15,6.76,5.77a11.63,11.63,0,0,1,1.64,8.78A10.24,10.24,0,0,1,67.56,161.65Zm-4.8.8a4.23,4.23,0,0,0,3.8-2.62c.68-1.63.86-4.5.51-8.59s-1-6.88-2-8.32a4.63,4.63,0,0,0-8,.7c-.69,1.58-.86,4.46-.51,8.54s1,6.89,2,8.36a4.22,4.22,0,0,0,4.2,1.93Z" style="fill: #fff"/>
        <path d="M45.23,173.84a14.49,14.49,0,0,0-2.34.71.52.52,0,0,0-.29.71l-.37.22-3.54-6.13.45-.26c2.32,4.29,5.22,5.16,9.14,2.89,3-1.75,3.88-3.73,2.61-5.94a3.73,3.73,0,0,0-2.52-1.94,19.56,19.56,0,0,0-5-.08,17.64,17.64,0,0,1-4.53-.08,5.61,5.61,0,0,1-4.27-2.82c-1.64-2.84-.76-6.49,3.17-8.75a8.74,8.74,0,0,1,2.87-1.07,9,9,0,0,0,1.81-.49c.45-.26.57-.58.37-.91l.38-.22,2.57,4.55-.45.25q-2.85-4-7.28-1.47c-2,1.14-2.47,2.62-1.46,4.38a3.68,3.68,0,0,0,2.77,1.94,16.45,16.45,0,0,0,3.56,0,35.83,35.83,0,0,1,5.91,0,5.1,5.1,0,0,1,3.7,2.7,6.46,6.46,0,0,1,.44,5.68,8.82,8.82,0,0,1-4.16,4.79A13.45,13.45,0,0,1,45.23,173.84Z" style="fill: #fff"/>
        <path d="M112.8,128.85l-7.9-13.69-2.72,1.58-.35-.6a6.27,6.27,0,0,0,3.28-4.59,8.43,8.43,0,0,0-1.12-5.83l.75-.43,4,6.88,5.68-3.28.35.6-5.65,3.26,8.7,15.06c1.1,1.91,2.61,2.54,3.92,1.78a4.16,4.16,0,0,0,2-4.34l.61,0c.24,2.3-.83,4.17-3.18,5.53C118,132.54,114.55,131.88,112.8,128.85Z" style="fill: #fff"/>
        <path d="M108.64,136.34l3.29-1.9.34.6-7.48,4.32-1.68-2.92-.19.11a20.77,20.77,0,0,1-.38,2.61,8.4,8.4,0,0,1-4,4.6c-3.89,2.24-7.62,2-10.23-2.52l-7.15-12.38-3.29,1.9-.34-.6L85,125.84l7.28,12.6c2.24,3.89,4.9,5.29,7.14,4a5.32,5.32,0,0,0,2.38-3.22,8.93,8.93,0,0,0,.16-4.73l-7.64-13.23L91.42,123l-.34-.6s6.1-3.68,6.93-4.4Z" style="fill: #fff"/>
        <path d="M137.27,102.67A9.65,9.65,0,0,0,123,104.44a13,13,0,0,0-1.84,8.18,12.59,12.59,0,0,0,3.41,7.84,9.31,9.31,0,0,0,8,2.73c4.43-.39,6.64-2.36,8.27-5.45h0a1.66,1.66,0,0,0,.14-.37,3,3,0,1,0-3.66,2.12,2.82,2.82,0,0,0,1.72-.12,8.29,8.29,0,0,1-5.74,3.07c-4.3.38-6.16-2.58-6.86-10.53l0-.39,9.37-.82,2.54-.22,2.24-.2A11.18,11.18,0,0,0,137.27,102.67ZM135.75,110l-9.38.82c-.28-3.66-.11-6.19.47-7.54a3.88,3.88,0,0,1,3.49-2.25,3.62,3.62,0,0,1,3.69,1.62C134.82,103.84,135.38,106.3,135.75,110Z" style="fill: #fff"/>
        <path d="M16.94,189.85l-.17.12c-.78.46-1.46.25-2-.69L8,177.62c-1.36-2.36-2.9-3.56-4.71-3.67a11,11,0,0,0-6,1.74c-4.83,2.78-6.48,5.53-4.92,8.22a2.67,2.67,0,0,0,3.88,1.2,2.38,2.38,0,0,0,.93-3.48,2.35,2.35,0,0,0-1.79-1.11,1.56,1.56,0,0,1-1.19-.6q-.72-1.24,2.76-3.25a4.58,4.58,0,0,1,3.34-.78c.88.24,1.87,1.26,2.93,3.09l1.7,3a22.92,22.92,0,0,0-7.76,6.67,6,6,0,0,0-.46,6.8c1.9,3.29,5.81,3.77,10,1.33,2.69-1.55,3.92-3.56,3.72-6.08l.14-.09c1.64,1.55,3.49,1.73,5.62.5a5.69,5.69,0,0,0,1-.71Zm-7.88,1.38a5,5,0,0,1-1,3.29,4.56,4.56,0,0,1-3.42,1.69c-2.8.22-3.85-1.64-4.18-5.82-.2-2.5.23-4.22,1.24-5.12S4.18,184,6.3,183.76C6.3,183.76,8.92,188.29,9.06,191.23Z" style="fill: #fff"/>
        <path d="M-45.77,319.92l-.34-.6s6.47-3.89,7.3-4.62l15.63,27.07,3.29-1.9.35.6-10.77,6.22-.35-.6,3.29-1.9L-42.48,318Z" style="fill: #fff"/>
        <path d="M-41,353.64a10.19,10.19,0,0,1-8.11,1.15,11.66,11.66,0,0,1-6.79-5.8c-1.77-3.07-2.31-6-1.61-8.75a10.09,10.09,0,0,1,5-6.48,10.06,10.06,0,0,1,8.13-1.11c2.73.76,5,2.7,6.77,5.76a11.68,11.68,0,0,1,1.63,8.78A10.2,10.2,0,0,1-41,353.64Zm-4.79.81a4.24,4.24,0,0,0,3.8-2.63c.68-1.62.86-4.5.5-8.58s-1-6.89-2-8.32a4.21,4.21,0,0,0-4.21-2,4.2,4.2,0,0,0-3.79,2.67c-.69,1.58-.87,4.45-.51,8.54s1,6.88,2,8.36a4.23,4.23,0,0,0,4.19,1.93Z" style="fill: #fff"/>
        <path d="M-63.32,365.84a14.25,14.25,0,0,0-2.34.7.52.52,0,0,0-.28.72l-.38.21-3.54-6.13.45-.26c2.33,4.29,5.22,5.16,9.15,2.9,3-1.75,3.87-3.74,2.6-5.94a3.68,3.68,0,0,0-2.51-1.94,19.53,19.53,0,0,0-5-.09,18.1,18.1,0,0,1-4.53-.07A5.65,5.65,0,0,1-74,353.12c-1.64-2.84-.75-6.49,3.17-8.76A8.69,8.69,0,0,1-68,343.3a9.76,9.76,0,0,0,1.81-.5c.44-.26.56-.57.37-.91l.37-.22,2.58,4.55-.45.26q-2.85-4-7.28-1.48c-2,1.14-2.48,2.62-1.46,4.38a3.6,3.6,0,0,0,2.76,1.94,15.86,15.86,0,0,0,3.56,0,36,36,0,0,1,5.92,0,5.14,5.14,0,0,1,3.7,2.7,6.5,6.5,0,0,1,.44,5.68,8.91,8.91,0,0,1-4.16,4.8A13.9,13.9,0,0,1-63.32,365.84Z" style="fill: #fff"/>
        <path d="M4.26,320.84l-7.9-13.68-2.73,1.57-.35-.59a6.3,6.3,0,0,0,3.29-4.59,8.47,8.47,0,0,0-1.13-5.83l.75-.44,4,6.88,5.69-3.28.34.6L.55,304.74l8.7,15.07c1.1,1.9,2.6,2.53,3.91,1.77a4.15,4.15,0,0,0,2-4.33l.61-.06c.24,2.31-.83,4.17-3.19,5.53C9.43,324.54,6,323.87,4.26,320.84Z" style="fill: #fff"/>
        <path d="M.09,328.33l3.29-1.9.35.61-7.48,4.31-1.68-2.92-.19.11A23.32,23.32,0,0,1-6,331.16a8.27,8.27,0,0,1-4,4.59c-3.89,2.24-7.61,2-10.23-2.52l-7.14-12.37-3.29,1.89-.35-.6,7.48-4.31,7.27,12.6c2.25,3.89,4.9,5.29,7.15,4a5.25,5.25,0,0,0,2.37-3.21,8.74,8.74,0,0,0,.16-4.73l-7.64-13.23-2.91,1.68-.35-.6s6.1-3.67,6.93-4.4Z" style="fill: #fff"/>
        <path d="M28.73,294.67a8.75,8.75,0,0,0-7.14-2.32,8.73,8.73,0,0,0-7.1,4.08,13.18,13.18,0,0,0-1.84,8.18,12.63,12.63,0,0,0,3.42,7.85,9.28,9.28,0,0,0,8,2.72,9.3,9.3,0,0,0,8.28-5.45h0a2.28,2.28,0,0,0,.15-.36,3.17,3.17,0,0,0-2.12-3.66,3,3,0,1,0-1.54,5.78,2.89,2.89,0,0,0,1.72-.12,8.4,8.4,0,0,1-5.74,3.07c-4.3.37-6.16-2.58-6.86-10.54l0-.39,9.37-.82,2.54-.22,2.23-.19A11.18,11.18,0,0,0,28.73,294.67ZM27.2,302l-9.37.82c-.28-3.65-.11-6.18.47-7.53A3.84,3.84,0,0,1,21.78,293a3.62,3.62,0,0,1,3.7,1.63C26.27,295.83,26.83,298.3,27.2,302Z" style="fill: #fff"/>
        <path d="M254.2,169.71a13.48,13.48,0,0,1,2,8.56,8.31,8.31,0,0,1-4.42,6.34,5.34,5.34,0,0,1-4.11.83l-.9-.28-1.32-.73-.19.11,1.13,2.38L239.3,191l-.35-.61,3.29-1.9-15.11-26.16-3.29,1.9-.35-.6s6.48-3.89,7.31-4.62L237.1,170l.19-.11a5.58,5.58,0,0,1,2.91-5.06C243.91,162.59,250.06,162.53,254.2,169.71Zm-3.94,4.68c-.41-7-1.93-10.13-5.1-9.95-3,.18-4.35,3.52-4,10,.41,7,2.22,9.76,5.31,9.58S250.65,181,250.26,174.39Z" style="fill: #fff"/>
        <path d="M283.32,129.92l-.34-.6s6.47-3.89,7.3-4.62l15.63,27.07,3.29-1.9.35.6-10.77,6.22-.35-.6,3.29-1.9L286.61,128Z" style="fill: #fff"/>
        <path d="M288.1,163.64a10.19,10.19,0,0,1-8.11,1.15,11.66,11.66,0,0,1-6.79-5.8c-1.77-3.07-2.31-6-1.61-8.75a10.83,10.83,0,0,1,13.16-7.59c2.73.76,5,2.7,6.77,5.76a11.68,11.68,0,0,1,1.63,8.78A10.2,10.2,0,0,1,288.1,163.64Zm-4.79.81a4.24,4.24,0,0,0,3.8-2.63c.68-1.62.86-4.5.5-8.58s-1-6.89-2-8.32a4.63,4.63,0,0,0-8,.7c-.69,1.58-.87,4.45-.51,8.54s1,6.88,2,8.36a4.23,4.23,0,0,0,4.19,1.93Z" style="fill: #fff"/>
        <path d="M265.77,175.84a14.25,14.25,0,0,0-2.34.7.52.52,0,0,0-.28.72l-.38.21-3.54-6.13.45-.26c2.33,4.29,5.22,5.16,9.15,2.9,3-1.75,3.87-3.74,2.6-5.94a3.68,3.68,0,0,0-2.51-1.94,19.53,19.53,0,0,0-5-.09,18.1,18.1,0,0,1-4.53-.07,5.65,5.65,0,0,1-4.27-2.82c-1.64-2.84-.75-6.49,3.17-8.76a8.69,8.69,0,0,1,2.88-1.06,9.31,9.31,0,0,0,1.8-.5c.46-.26.57-.57.38-.91l.37-.22,2.58,4.55-.45.26c-1.91-2.69-4.33-3.18-7.29-1.48-2,1.14-2.47,2.62-1.45,4.38a3.6,3.6,0,0,0,2.76,1.94,15.86,15.86,0,0,0,3.56,0,36,36,0,0,1,5.92,0A5.16,5.16,0,0,1,273,164a6.5,6.5,0,0,1,.44,5.68,8.91,8.91,0,0,1-4.16,4.8A13.9,13.9,0,0,1,265.77,175.84Z" style="fill: #fff"/>
        <path d="M333.35,130.84l-7.9-13.68-2.73,1.57-.35-.59a6.3,6.3,0,0,0,3.29-4.59,8.42,8.42,0,0,0-1.13-5.83l.75-.44,4,6.88,5.68-3.28.35.6-5.64,3.26,8.7,15.07c1.1,1.9,2.6,2.53,3.91,1.77a4.13,4.13,0,0,0,2-4.33l.62-.06c.24,2.31-.83,4.17-3.19,5.53C338.52,134.54,335.1,133.87,333.35,130.84Z" style="fill: #fff"/>
        <path d="M329.18,138.33l3.29-1.9.35.61-7.48,4.31-1.68-2.92-.19.11a23.32,23.32,0,0,1-.39,2.62,8.27,8.27,0,0,1-4,4.59c-3.89,2.24-7.62,2-10.23-2.52l-7.14-12.37-3.29,1.89-.35-.6,7.48-4.31,7.27,12.6c2.25,3.89,4.9,5.29,7.15,4a5.25,5.25,0,0,0,2.37-3.21,8.74,8.74,0,0,0,.16-4.73l-7.64-13.23L312,124.94l-.35-.6s6.11-3.67,6.93-4.4Z" style="fill: #fff"/>
        <path d="M357.82,104.67a9.67,9.67,0,0,0-14.24,1.76,13.18,13.18,0,0,0-1.84,8.18,12.63,12.63,0,0,0,3.42,7.85,10.45,10.45,0,0,0,16.27-2.73h0a2.28,2.28,0,0,0,.15-.36,3,3,0,1,0-3.66,2.12,2.89,2.89,0,0,0,1.72-.12,8.4,8.4,0,0,1-5.74,3.07c-4.3.37-6.17-2.58-6.86-10.54l0-.39,9.37-.82,2.54-.22,2.23-.2A11.17,11.17,0,0,0,357.82,104.67ZM356.29,112l-9.37.82c-.28-3.65-.11-6.18.47-7.53a3.84,3.84,0,0,1,3.48-2.26,3.62,3.62,0,0,1,3.7,1.63C355.36,105.84,355.92,108.3,356.29,112Z" style="fill: #fff"/>
        <path d="M237.49,191.84l-.17.13c-.79.45-1.46.24-2-.69l-6.74-11.67c-1.36-2.35-2.9-3.56-4.7-3.66a10.93,10.93,0,0,0-6,1.73c-4.82,2.79-6.47,5.53-4.92,8.23a2.67,2.67,0,0,0,3.88,1.2,2.38,2.38,0,0,0,.93-3.48,2.32,2.32,0,0,0-1.78-1.12,1.51,1.51,0,0,1-1.2-.6q-.7-1.23,2.77-3.24a4.47,4.47,0,0,1,3.33-.78q1.33.35,2.93,3.09l1.71,3a22.83,22.83,0,0,0-7.76,6.68,6,6,0,0,0-.47,6.79c1.9,3.29,5.82,3.77,10,1.33,2.7-1.55,3.93-3.56,3.72-6.08l.15-.08c1.64,1.54,3.49,1.72,5.62.49a6.22,6.22,0,0,0,1-.7Zm-7.89,1.38a4.91,4.91,0,0,1-1,3.29,4.55,4.55,0,0,1-3.42,1.7c-2.79.22-3.85-1.65-4.18-5.82-.19-2.5.24-4.22,1.25-5.12s2.51-1.29,4.64-1.52C226.85,185.75,229.47,190.29,229.6,193.22Z" style="fill: #fff"/>
        <path d="M89.66,264.71a13.47,13.47,0,0,1,2,8.56,8.27,8.27,0,0,1-4.41,6.34,5.34,5.34,0,0,1-4.11.83l-.91-.28-1.32-.73-.19.11,1.14,2.38L74.75,286l-.35-.61,3.3-1.9L62.59,257.36l-3.29,1.9-.35-.6s6.48-3.89,7.3-4.62L72.56,265l.19-.11a5.57,5.57,0,0,1,2.9-5.06C79.37,257.59,85.51,257.53,89.66,264.71Zm-3.94,4.68c-.42-7-1.93-10.13-5.1-9.95s-4.35,3.52-4,10c.41,7,2.23,9.76,5.32,9.58S86.11,276,85.72,269.39Z" style="fill: #fff"/>
        <path d="M118.78,224.92l-.35-.6s6.48-3.89,7.31-4.62l15.62,27.07,3.29-1.9.35.6-10.77,6.22-.34-.6,3.29-1.9L122.07,223Z" style="fill: #fff"/>
        <path d="M123.56,258.64a10.2,10.2,0,0,1-8.11,1.15,11.66,11.66,0,0,1-6.79-5.8c-1.77-3.07-2.32-6-1.61-8.75a10.84,10.84,0,0,1,13.16-7.59c2.73.76,5,2.7,6.77,5.76a11.67,11.67,0,0,1,1.62,8.78A10.19,10.19,0,0,1,123.56,258.64Zm-4.8.81a4.22,4.22,0,0,0,3.8-2.63c.68-1.62.86-4.5.51-8.58s-1-6.89-2-8.32a4.63,4.63,0,0,0-8,.7c-.69,1.58-.86,4.45-.51,8.54s1,6.88,2,8.36a4.25,4.25,0,0,0,4.2,1.93Z" style="fill: #fff"/>
        <path d="M101.23,270.84a13.89,13.89,0,0,0-2.34.7.53.53,0,0,0-.29.72l-.37.21-3.54-6.13.45-.26c2.32,4.29,5.22,5.16,9.14,2.9,3-1.75,3.88-3.74,2.61-5.94a3.67,3.67,0,0,0-2.52-1.94,19.45,19.45,0,0,0-5-.09,18.09,18.09,0,0,1-4.53-.07,5.65,5.65,0,0,1-4.27-2.82c-1.64-2.84-.76-6.49,3.17-8.76a8.72,8.72,0,0,1,2.87-1.06,9.51,9.51,0,0,0,1.81-.5c.45-.26.57-.57.37-.91l.38-.22,2.57,4.55-.45.26q-2.85-4-7.28-1.48c-2,1.14-2.47,2.62-1.46,4.38a3.63,3.63,0,0,0,2.77,1.94,15.84,15.84,0,0,0,3.56,0,35.83,35.83,0,0,1,5.91,0,5.12,5.12,0,0,1,3.7,2.7,6.46,6.46,0,0,1,.44,5.68,8.87,8.87,0,0,1-4.16,4.8A13.82,13.82,0,0,1,101.23,270.84Z" style="fill: #fff"/>
        <path d="M168.8,225.84l-7.9-13.68-2.72,1.57-.35-.59a6.29,6.29,0,0,0,3.28-4.59,8.41,8.41,0,0,0-1.12-5.83l.75-.44,4,6.88,5.68-3.28.35.6-5.65,3.26,8.7,15.07c1.1,1.9,2.61,2.53,3.92,1.77a4.14,4.14,0,0,0,2-4.33l.61-.06c.24,2.31-.83,4.17-3.18,5.53C174,229.54,170.55,228.87,168.8,225.84Z" style="fill: #fff"/>
        <path d="M164.64,233.33l3.29-1.9.34.61-7.48,4.31-1.68-2.92-.19.11a21.2,21.2,0,0,1-.38,2.62,8.36,8.36,0,0,1-4,4.59c-3.89,2.24-7.62,2-10.23-2.52l-7.15-12.37-3.29,1.89-.34-.6,7.47-4.31,7.28,12.6c2.24,3.89,4.9,5.29,7.14,4a5.3,5.3,0,0,0,2.38-3.21,8.94,8.94,0,0,0,.16-4.73l-7.64-13.23-2.92,1.68-.34-.6s6.1-3.67,6.93-4.4Z" style="fill: #fff"/>
        <path d="M193.27,199.67A9.66,9.66,0,0,0,179,201.43a13.05,13.05,0,0,0-1.84,8.18,12.62,12.62,0,0,0,3.41,7.85,10.44,10.44,0,0,0,16.27-2.73h0a1.58,1.58,0,0,0,.14-.36,3,3,0,1,0-3.66,2.12,2.89,2.89,0,0,0,1.72-.12,8.36,8.36,0,0,1-5.74,3.07c-4.3.37-6.16-2.58-6.86-10.54l0-.39,9.37-.82,2.54-.22,2.24-.19A11.18,11.18,0,0,0,193.27,199.67ZM191.75,207l-9.38.82c-.28-3.65-.11-6.18.47-7.53a3.87,3.87,0,0,1,3.49-2.26,3.61,3.61,0,0,1,3.69,1.63C190.82,200.83,191.38,203.3,191.75,207Z" style="fill: #fff"/>
        <path d="M72.94,286.84l-.16.13c-.79.45-1.46.24-2-.69L64,274.61c-1.36-2.35-2.9-3.56-4.71-3.66a10.9,10.9,0,0,0-6,1.73c-4.83,2.79-6.48,5.53-4.92,8.23a2.67,2.67,0,0,0,3.88,1.2,2.38,2.38,0,0,0,.93-3.48,2.34,2.34,0,0,0-1.79-1.12,1.5,1.5,0,0,1-1.19-.6q-.72-1.23,2.76-3.24a4.49,4.49,0,0,1,3.34-.78c.88.23,1.87,1.26,2.93,3.09l1.7,2.95a22.93,22.93,0,0,0-7.76,6.68,6,6,0,0,0-.46,6.79c1.9,3.29,5.81,3.77,10,1.33,2.69-1.55,3.92-3.56,3.72-6.08l.14-.08c1.64,1.54,3.49,1.72,5.62.49a5.28,5.28,0,0,0,1-.7Zm-7.88,1.38a5,5,0,0,1-1,3.29,4.57,4.57,0,0,1-3.42,1.7c-2.8.22-3.85-1.65-4.18-5.82-.2-2.5.23-4.22,1.24-5.12s2.52-1.29,4.64-1.52C62.3,280.75,64.92,285.29,65.06,288.22Z" style="fill: #fff"/>
        <path d="M-18.89,456.7a13.52,13.52,0,0,1,2,8.57,8.27,8.27,0,0,1-4.42,6.33,5.25,5.25,0,0,1-4.11.83l-.9-.27-1.32-.74-.19.11,1.13,2.39-7.1,4.1-.35-.6,3.29-1.9L-46,449.35l-3.29,1.9-.35-.6s6.48-3.89,7.31-4.61L-36,457l.19-.11a5.58,5.58,0,0,1,2.91-5.07C-29.18,449.58-23,449.53-18.89,456.7Zm-3.94,4.69c-.41-7.05-1.93-10.14-5.1-9.95-3,.18-4.35,3.51-4,10,.41,7,2.22,9.77,5.31,9.58S-22.44,468-22.83,461.39Z" style="fill: #fff"/>
        <path d="M10.23,416.91l-.34-.6s6.47-3.89,7.3-4.61l15.63,27.06,3.29-1.9.35.61-10.77,6.21-.35-.6,3.29-1.9L13.52,415Z" style="fill: #fff"/>
        <path d="M15,450.64a10.19,10.19,0,0,1-8.11,1.14A11.63,11.63,0,0,1,.11,446q-2.65-4.61-1.61-8.74a10.08,10.08,0,0,1,5-6.49,10.1,10.1,0,0,1,8.13-1.11c2.73.77,5,2.7,6.77,5.77a11.67,11.67,0,0,1,1.63,8.78A10.23,10.23,0,0,1,15,450.64Zm-4.79.8a4.24,4.24,0,0,0,3.8-2.62c.68-1.63.86-4.5.5-8.59s-1-6.88-2-8.32a4.23,4.23,0,0,0-4.21-2,4.2,4.2,0,0,0-3.79,2.67c-.69,1.58-.87,4.46-.51,8.54s1,6.89,2,8.37a4.2,4.2,0,0,0,4.19,1.92Z" style="fill: #fff"/>
        <path d="M-7.32,462.83a14.88,14.88,0,0,0-2.34.71.51.51,0,0,0-.28.71l-.38.22-3.54-6.13.45-.26c2.33,4.28,5.22,5.16,9.15,2.89,3-1.75,3.87-3.73,2.6-5.94a3.73,3.73,0,0,0-2.51-1.94,19.64,19.64,0,0,0-5-.08,17.64,17.64,0,0,1-4.53-.08A5.62,5.62,0,0,1-18,450.11c-1.64-2.84-.75-6.49,3.17-8.75A8.5,8.5,0,0,1-12,440.29a9.24,9.24,0,0,0,1.81-.49c.44-.26.56-.58.37-.91l.37-.22,2.58,4.54-.45.26q-2.85-4-7.28-1.47c-2,1.14-2.48,2.62-1.46,4.38a3.64,3.64,0,0,0,2.76,1.94,16.48,16.48,0,0,0,3.56,0,36,36,0,0,1,5.92,0A5.09,5.09,0,0,1-.08,451a6.49,6.49,0,0,1,.44,5.68A8.9,8.9,0,0,1-3.8,461.5,13.53,13.53,0,0,1-7.32,462.83Z" style="fill: #fff"/>
        <path d="M60.26,417.84l-7.9-13.69-2.73,1.58-.35-.6a6.28,6.28,0,0,0,3.29-4.59,8.49,8.49,0,0,0-1.13-5.83l.75-.43,4,6.88,5.69-3.28.34.6-5.64,3.26,8.7,15.06c1.1,1.91,2.6,2.54,3.91,1.78a4.17,4.17,0,0,0,2-4.34l.61-.05c.24,2.3-.83,4.17-3.19,5.53C65.43,421.53,62,420.86,60.26,417.84Z" style="fill: #fff"/>
        <path d="M56.09,425.33l3.29-1.9.35.6-7.48,4.32-1.68-2.92-.19.11a22.81,22.81,0,0,1-.39,2.61,8.27,8.27,0,0,1-4,4.59c-3.89,2.25-7.61,2-10.23-2.52l-7.14-12.37-3.29,1.9-.35-.6,7.48-4.32,7.27,12.6c2.25,3.89,4.9,5.29,7.15,4a5.27,5.27,0,0,0,2.37-3.22,8.83,8.83,0,0,0,.16-4.73l-7.64-13.23-2.91,1.69-.35-.6s6.1-3.68,6.93-4.4Z" style="fill: #fff"/>
        <path d="M84.73,391.66a8.81,8.81,0,0,0-7.14-2.32,8.74,8.74,0,0,0-7.1,4.09,13.07,13.07,0,0,0-1.84,8.17,12.63,12.63,0,0,0,3.42,7.85,9.25,9.25,0,0,0,8,2.73c4.43-.39,6.65-2.36,8.28-5.45h0c.05-.12.1-.24.14-.37a3,3,0,1,0-3.66,2.12,2.78,2.78,0,0,0,1.71-.12,8.32,8.32,0,0,1-5.73,3.07c-4.3.38-6.17-2.58-6.86-10.54l0-.38,9.37-.82,2.54-.22,2.23-.2A11.18,11.18,0,0,0,84.73,391.66ZM83.2,399l-9.37.82c-.28-3.66-.11-6.19.46-7.54A3.88,3.88,0,0,1,77.78,390a3.63,3.63,0,0,1,3.7,1.62C82.27,392.83,82.83,395.29,83.2,399Z" style="fill: #fff"/>
        <path d="M-35.6,478.84l-.17.12c-.79.46-1.46.25-2-.69l-6.74-11.66c-1.36-2.36-2.9-3.56-4.7-3.67a11,11,0,0,0-6,1.74c-4.82,2.78-6.47,5.53-4.92,8.22a2.67,2.67,0,0,0,3.88,1.2,2.37,2.37,0,0,0,.93-3.48,2.32,2.32,0,0,0-1.78-1.11,1.56,1.56,0,0,1-1.2-.61q-.7-1.23,2.77-3.24a4.56,4.56,0,0,1,3.33-.78c.89.24,1.87,1.26,2.93,3.09l1.71,3a22.71,22.71,0,0,0-7.76,6.67c-1.58,2.36-1.72,4.63-.47,6.8,1.9,3.29,5.82,3.77,10,1.33,2.7-1.55,3.93-3.56,3.72-6.08l.15-.09c1.64,1.55,3.49,1.73,5.62.49a5.15,5.15,0,0,0,1-.7Zm-7.89,1.38a4.91,4.91,0,0,1-1,3.29,4.54,4.54,0,0,1-3.42,1.69c-2.79.22-3.85-1.65-4.18-5.82-.19-2.5.24-4.22,1.25-5.12s2.51-1.28,4.64-1.51C-46.24,472.75-43.62,477.28-43.49,480.22Z" style="fill: #fff"/>
        <path d="M310.2,266.7a13.51,13.51,0,0,1,2,8.57,8.31,8.31,0,0,1-4.42,6.34,5.28,5.28,0,0,1-4.11.82l-.9-.28-1.32-.73-.19.11,1.13,2.39-7.1,4.1-.35-.6,3.29-1.9-15.11-26.17-3.29,1.9-.35-.6s6.48-3.89,7.31-4.61L293.1,267l.19-.1a5.58,5.58,0,0,1,2.91-5.07C299.91,259.58,306.06,259.52,310.2,266.7Zm-3.94,4.69c-.41-7.05-1.93-10.14-5.1-9.95-3,.18-4.35,3.51-4,10,.41,7,2.22,9.77,5.31,9.58S306.65,278,306.26,271.39Z" style="fill: #fff"/>
        <path d="M339.32,226.91l-.34-.6s6.47-3.89,7.3-4.61l15.63,27.06,3.29-1.9.35.6-10.77,6.22-.35-.6,3.29-1.9L342.61,225Z" style="fill: #fff"/>
        <path d="M344.1,260.64a10.19,10.19,0,0,1-8.11,1.14,11.63,11.63,0,0,1-6.79-5.8c-1.77-3.06-2.31-6-1.61-8.74a10.85,10.85,0,0,1,13.16-7.6,11.53,11.53,0,0,1,6.77,5.76,11.7,11.7,0,0,1,1.63,8.79A10.23,10.23,0,0,1,344.1,260.64Zm-4.79.8a4.24,4.24,0,0,0,3.8-2.62c.68-1.63.86-4.5.5-8.59s-1-6.88-2-8.32a4.63,4.63,0,0,0-8,.7c-.69,1.58-.87,4.46-.51,8.54s1,6.89,2,8.37a4.2,4.2,0,0,0,4.19,1.92Z" style="fill: #fff"/>
        <path d="M321.77,272.83a14.88,14.88,0,0,0-2.34.71.51.51,0,0,0-.28.71l-.38.22-3.54-6.14.45-.25c2.33,4.28,5.22,5.16,9.15,2.89,3-1.75,3.87-3.73,2.6-5.94a3.73,3.73,0,0,0-2.51-1.94,19.64,19.64,0,0,0-5-.08,17.64,17.64,0,0,1-4.53-.08,5.62,5.62,0,0,1-4.27-2.82c-1.64-2.84-.75-6.49,3.17-8.75a8.71,8.71,0,0,1,2.88-1.07,8.84,8.84,0,0,0,1.8-.49c.46-.26.57-.58.38-.91l.37-.22,2.58,4.54-.45.26c-1.91-2.69-4.33-3.18-7.29-1.47-2,1.14-2.47,2.62-1.45,4.38a3.64,3.64,0,0,0,2.76,1.94,16.48,16.48,0,0,0,3.56,0,36,36,0,0,1,5.92,0A5.11,5.11,0,0,1,329,261a6.49,6.49,0,0,1,.44,5.68,8.9,8.9,0,0,1-4.16,4.79A13.53,13.53,0,0,1,321.77,272.83Z" style="fill: #fff"/>
        <path d="M389.35,227.84l-7.9-13.69-2.73,1.58-.35-.6a6.28,6.28,0,0,0,3.29-4.59,8.44,8.44,0,0,0-1.13-5.83l.75-.43,4,6.88,5.68-3.28.35.6-5.64,3.26,8.7,15.06c1.1,1.91,2.6,2.54,3.91,1.78a4.14,4.14,0,0,0,2-4.34l.62-.05c.24,2.3-.83,4.17-3.19,5.53C394.52,231.53,391.1,230.86,389.35,227.84Z" style="fill: #fff"/>
        <path d="M385.18,235.33l3.29-1.9.35.6-7.48,4.32-1.68-2.92-.19.11a22.81,22.81,0,0,1-.39,2.61,8.27,8.27,0,0,1-4,4.59c-3.89,2.25-7.62,2-10.23-2.51l-7.14-12.38-3.29,1.9-.35-.6,7.48-4.32,7.27,12.6c2.25,3.89,4.9,5.29,7.15,4a5.27,5.27,0,0,0,2.37-3.22,8.74,8.74,0,0,0,.16-4.73l-7.64-13.23L368,221.94l-.35-.6s6.11-3.68,6.93-4.4Z" style="fill: #fff"/>
        <path d="M413.82,201.66a9.66,9.66,0,0,0-14.24,1.77,13.15,13.15,0,0,0-1.84,8.18,12.63,12.63,0,0,0,3.42,7.84,9.25,9.25,0,0,0,8,2.73c4.43-.39,6.65-2.36,8.28-5.45h0a2.39,2.39,0,0,0,.15-.37,3,3,0,1,0-3.66,2.12,2.89,2.89,0,0,0,1.72-.11,8.39,8.39,0,0,1-5.74,3.06c-4.3.38-6.17-2.58-6.86-10.54l0-.38,9.37-.82,2.54-.23,2.23-.19A11.18,11.18,0,0,0,413.82,201.66ZM412.29,209l-9.37.82c-.28-3.66-.11-6.19.47-7.54a3.85,3.85,0,0,1,3.48-2.25,3.63,3.63,0,0,1,3.7,1.62C411.36,202.83,411.92,205.29,412.29,209Z" style="fill: #fff"/>
        <path d="M293.49,288.84l-.17.12c-.79.46-1.46.25-2-.69l-6.74-11.66c-1.36-2.36-2.9-3.56-4.7-3.67a11,11,0,0,0-6,1.74c-4.82,2.78-6.47,5.53-4.92,8.22a2.67,2.67,0,0,0,3.88,1.2,2.37,2.37,0,0,0,.93-3.48,2.34,2.34,0,0,0-1.78-1.11,1.54,1.54,0,0,1-1.2-.61q-.7-1.23,2.77-3.24a4.56,4.56,0,0,1,3.33-.78c.89.24,1.87,1.26,2.93,3.1l1.71,2.95a22.71,22.71,0,0,0-7.76,6.67c-1.58,2.36-1.72,4.63-.47,6.8,1.9,3.29,5.82,3.77,10,1.33,2.7-1.55,3.93-3.56,3.72-6.08l.15-.09c1.64,1.55,3.49,1.73,5.62.49a5.15,5.15,0,0,0,1-.7Zm-7.89,1.38a4.91,4.91,0,0,1-1,3.29,4.54,4.54,0,0,1-3.42,1.69c-2.79.22-3.85-1.65-4.18-5.82-.19-2.5.24-4.22,1.25-5.12s2.51-1.28,4.64-1.51C282.85,282.75,285.47,287.28,285.6,290.22Z" style="fill: #fff"/>
        <path d="M145.66,361.7a13.49,13.49,0,0,1,2,8.57,8.24,8.24,0,0,1-4.41,6.33,5.26,5.26,0,0,1-4.11.83l-.91-.27-1.32-.74-.19.11,1.14,2.39-7.11,4.1-.35-.6,3.3-1.9-15.11-26.17-3.29,1.9-.35-.6s6.48-3.89,7.31-4.61l6.3,10.91.18-.1a5.58,5.58,0,0,1,2.91-5.07C135.37,354.58,141.51,354.52,145.66,361.7Zm-3.94,4.69c-.42-7.05-1.93-10.14-5.1-9.95s-4.35,3.51-4,10c.41,7,2.23,9.77,5.32,9.58S142.11,373,141.72,366.39Z" style="fill: #fff"/>
        <path d="M174.78,321.91l-.35-.6s6.48-3.89,7.31-4.61l15.62,27.06,3.29-1.9.35.6-10.77,6.22-.34-.6,3.29-1.9L178.07,320Z" style="fill: #fff"/>
        <path d="M179.56,355.64a10.2,10.2,0,0,1-8.11,1.14,11.63,11.63,0,0,1-6.79-5.8c-1.77-3.06-2.32-6-1.61-8.74a10.84,10.84,0,0,1,13.16-7.6c2.73.77,5,2.7,6.77,5.76a11.69,11.69,0,0,1,1.62,8.79A10.21,10.21,0,0,1,179.56,355.64Zm-4.8.8a4.23,4.23,0,0,0,3.8-2.62c.68-1.63.86-4.5.51-8.59s-1-6.88-2-8.32a4.63,4.63,0,0,0-8,.7c-.69,1.58-.86,4.46-.51,8.54s1,6.89,2,8.37a4.23,4.23,0,0,0,4.2,1.92Z" style="fill: #fff"/>
        <path d="M157.23,367.83a14.49,14.49,0,0,0-2.34.71.52.52,0,0,0-.29.71l-.37.22-3.54-6.14.45-.25c2.32,4.28,5.22,5.16,9.14,2.89,3-1.75,3.88-3.73,2.61-5.94a3.73,3.73,0,0,0-2.52-1.94,19.56,19.56,0,0,0-5-.08,17.64,17.64,0,0,1-4.53-.08,5.62,5.62,0,0,1-4.27-2.82c-1.64-2.84-.76-6.49,3.17-8.75a8.74,8.74,0,0,1,2.87-1.07,9,9,0,0,0,1.81-.49c.45-.26.57-.58.37-.91l.38-.22,2.57,4.54-.45.26q-2.85-4-7.28-1.47c-2,1.14-2.47,2.62-1.46,4.38a3.68,3.68,0,0,0,2.77,1.94,16.45,16.45,0,0,0,3.56,0,35.83,35.83,0,0,1,5.91,0,5.07,5.07,0,0,1,3.7,2.7,6.46,6.46,0,0,1,.44,5.68,8.85,8.85,0,0,1-4.16,4.79A13.45,13.45,0,0,1,157.23,367.83Z" style="fill: #fff"/>
        <path d="M224.8,322.84l-7.9-13.69-2.72,1.58-.35-.6a6.27,6.27,0,0,0,3.28-4.59,8.43,8.43,0,0,0-1.12-5.83l.75-.43,4,6.88,5.68-3.28.35.6-5.65,3.26,8.7,15.06c1.1,1.91,2.61,2.54,3.92,1.78a4.16,4.16,0,0,0,2-4.34l.61-.05c.24,2.3-.83,4.17-3.18,5.53C230,326.53,226.55,325.86,224.8,322.84Z" style="fill: #fff"/>
        <path d="M220.64,330.33l3.28-1.9.35.6-7.47,4.32-1.69-2.92-.19.11a20.77,20.77,0,0,1-.38,2.61,8.36,8.36,0,0,1-4,4.59c-3.89,2.25-7.62,2-10.23-2.51l-7.15-12.38-3.29,1.9-.34-.6,7.47-4.32,7.28,12.6c2.24,3.89,4.9,5.29,7.14,4a5.32,5.32,0,0,0,2.38-3.22,8.83,8.83,0,0,0,.16-4.73l-7.64-13.23-2.92,1.69-.34-.6s6.1-3.68,6.93-4.4Z" style="fill: #fff"/>
        <path d="M249.27,296.66A9.65,9.65,0,0,0,235,298.43a13,13,0,0,0-1.84,8.18,12.62,12.62,0,0,0,3.41,7.84,10.45,10.45,0,0,0,16.28-2.72h0a1.66,1.66,0,0,0,.14-.37,3,3,0,1,0-3.66,2.12,2.89,2.89,0,0,0,1.72-.11,8.35,8.35,0,0,1-5.74,3.06c-4.3.38-6.16-2.58-6.86-10.54l0-.38,9.37-.82,2.54-.23,2.24-.19A11.18,11.18,0,0,0,249.27,296.66ZM247.75,304l-9.38.82c-.28-3.66-.11-6.19.47-7.54a3.88,3.88,0,0,1,3.49-2.25,3.62,3.62,0,0,1,3.69,1.62C246.82,297.83,247.38,300.29,247.75,304Z" style="fill: #fff"/>
        <path d="M128.94,383.84l-.17.12c-.78.46-1.45.25-2-.69L120,371.61c-1.36-2.36-2.9-3.56-4.71-3.67a10.92,10.92,0,0,0-6,1.74c-4.83,2.78-6.48,5.53-4.93,8.22a2.68,2.68,0,0,0,3.89,1.2,2.38,2.38,0,0,0,.93-3.48,2.35,2.35,0,0,0-1.79-1.11,1.54,1.54,0,0,1-1.19-.61q-.72-1.23,2.76-3.24a4.58,4.58,0,0,1,3.34-.78c.88.24,1.87,1.26,2.93,3.09l1.7,3a22.81,22.81,0,0,0-7.76,6.67,6,6,0,0,0-.46,6.8c1.9,3.29,5.81,3.77,10,1.33,2.69-1.55,3.92-3.56,3.72-6.08l.14-.09c1.64,1.55,3.49,1.73,5.62.49a5.15,5.15,0,0,0,1-.7Zm-7.88,1.38a5,5,0,0,1-1,3.29,4.56,4.56,0,0,1-3.42,1.69c-2.8.22-3.86-1.65-4.18-5.82-.2-2.5.23-4.22,1.24-5.12s2.52-1.28,4.64-1.51C118.3,377.75,120.92,382.28,121.06,385.22Z" style="fill: #fff"/>
        <path d="M-61.65,135.1l-.34-.61s6.47-3.88,7.3-4.61L-39.06,157l3.29-1.9.35.6-10.77,6.21-.35-.59,3.29-1.91L-58.36,133.2Z" style="fill: #fff"/>
        <path d="M-56.87,168.82A10.19,10.19,0,0,1-65,170a11.66,11.66,0,0,1-6.79-5.8c-1.77-3.07-2.31-6-1.61-8.75a10.11,10.11,0,0,1,5-6.49,10.05,10.05,0,0,1,8.13-1.1c2.73.76,5,2.69,6.77,5.76a11.67,11.67,0,0,1,1.63,8.78A10.2,10.2,0,0,1-56.87,168.82Zm-4.79.81a4.25,4.25,0,0,0,3.8-2.63c.68-1.62.86-4.5.5-8.58s-1-6.89-2-8.32a4.22,4.22,0,0,0-4.21-2,4.22,4.22,0,0,0-3.79,2.68c-.69,1.58-.87,4.45-.51,8.54s1,6.88,2,8.36a4.23,4.23,0,0,0,4.19,1.93Z" style="fill: #fff"/>
        <path d="M-11.62,136l-7.9-13.68-2.73,1.57-.35-.6a6.27,6.27,0,0,0,3.29-4.58,8.51,8.51,0,0,0-1.13-5.84l.75-.43,4,6.88,5.69-3.28.34.6-5.64,3.26L-6.63,135c1.1,1.9,2.6,2.53,3.91,1.77a4.15,4.15,0,0,0,2-4.33l.61-.06c.24,2.31-.83,4.17-3.19,5.53C-6.45,139.71-9.87,139.05-11.62,136Z" style="fill: #fff"/>
        <path d="M-15.79,143.51l3.29-1.9.35.6-7.48,4.32-1.68-2.92-.19.11a23.32,23.32,0,0,1-.39,2.62,8.31,8.31,0,0,1-4,4.59c-3.89,2.24-7.61,2-10.23-2.52L-43.24,136l-3.29,1.9-.35-.6L-39.4,133l7.27,12.6c2.25,3.88,4.9,5.29,7.15,4a5.27,5.27,0,0,0,2.37-3.21,8.74,8.74,0,0,0,.16-4.73l-7.64-13.23L-33,130.12l-.35-.6s6.1-3.67,6.93-4.4Z" style="fill: #fff"/>
        <path d="M12.85,109.85a8.78,8.78,0,0,0-7.14-2.33,8.76,8.76,0,0,0-7.1,4.09,13.18,13.18,0,0,0-1.84,8.18,12.63,12.63,0,0,0,3.42,7.85,9.28,9.28,0,0,0,8,2.72,9.3,9.3,0,0,0,8.28-5.45h0a2.28,2.28,0,0,0,.15-.36,3.18,3.18,0,0,0-2.12-3.67,3,3,0,1,0-1.54,5.78,2.89,2.89,0,0,0,1.72-.11A8.36,8.36,0,0,1,8.9,129.6C4.6,130,2.74,127,2,119.07l0-.39,9.37-.82,2.54-.22,2.23-.2A11.17,11.17,0,0,0,12.85,109.85Zm-1.53,7.32L2,118c-.28-3.66-.11-6.19.47-7.53A3.84,3.84,0,0,1,5.9,108.2a3.62,3.62,0,0,1,3.7,1.63C10.39,111,11,113.48,11.32,117.17Z" style="fill: #fff"/>
        <path d="M238.32-15.11a13.48,13.48,0,0,1,2,8.56,8.31,8.31,0,0,1-4.42,6.34,5.34,5.34,0,0,1-4.11.83l-.9-.28-1.32-.73-.19.1,1.13,2.39-7.1,4.1-.35-.6,3.29-1.9L211.25-22.46,208-20.56l-.35-.6s6.48-3.89,7.31-4.62l6.3,10.92.19-.11A5.6,5.6,0,0,1,224.32-20C228-22.23,234.18-22.29,238.32-15.11Zm-3.94,4.68c-.41-7-1.93-10.13-5.1-9.95-3,.18-4.35,3.52-4,10,.41,7,2.22,9.77,5.31,9.59S234.77-3.81,234.38-10.43Z" style="fill: #fff"/>
        <path d="M267.44-54.9l-.34-.61s6.47-3.88,7.3-4.61L290-33l3.29-1.9.35.6L282.9-28.14l-.35-.6,3.29-1.9L270.73-56.8Z" style="fill: #fff"/>
        <path d="M272.22-21.18A10.19,10.19,0,0,1,264.11-20a11.69,11.69,0,0,1-6.79-5.8c-1.77-3.07-2.31-6-1.61-8.75a10.08,10.08,0,0,1,5-6.49,10.1,10.1,0,0,1,8.13-1.11c2.73.77,5,2.7,6.77,5.77a11.67,11.67,0,0,1,1.63,8.78A10.2,10.2,0,0,1,272.22-21.18Zm-4.79.81a4.27,4.27,0,0,0,3.8-2.63c.68-1.62.86-4.5.5-8.58s-1-6.89-2-8.32a4.21,4.21,0,0,0-4.2-2,4.22,4.22,0,0,0-3.8,2.68c-.69,1.58-.87,4.45-.51,8.54s1,6.88,2,8.36a4.23,4.23,0,0,0,4.19,1.93Z" style="fill: #fff"/>
        <path d="M249.89-9a14.25,14.25,0,0,0-2.34.7.51.51,0,0,0-.28.71l-.38.22-3.54-6.13.45-.26c2.33,4.29,5.22,5.16,9.15,2.89,3-1.75,3.87-3.73,2.6-5.94A3.69,3.69,0,0,0,253-18.72a19.53,19.53,0,0,0-5-.09,17.64,17.64,0,0,1-4.53-.08,5.64,5.64,0,0,1-4.27-2.81c-1.64-2.84-.75-6.49,3.17-8.76a8.69,8.69,0,0,1,2.88-1.06,9.31,9.31,0,0,0,1.8-.5c.46-.26.57-.57.38-.91l.37-.22,2.58,4.55-.45.26c-1.91-2.69-4.33-3.19-7.29-1.48-2,1.14-2.47,2.62-1.45,4.38A3.64,3.64,0,0,0,244-23.5a15.86,15.86,0,0,0,3.56,0,36,36,0,0,1,5.92,0,5.16,5.16,0,0,1,3.7,2.7,6.5,6.5,0,0,1,.44,5.68,8.86,8.86,0,0,1-4.16,4.79A13.53,13.53,0,0,1,249.89-9Z" style="fill: #fff"/>
        <path d="M317.47-54l-7.9-13.68-2.73,1.57-.35-.6a6.26,6.26,0,0,0,3.29-4.59,8.44,8.44,0,0,0-1.13-5.83l.75-.43,4,6.88,5.68-3.28.35.6-5.64,3.26L322.46-55c1.1,1.9,2.6,2.53,3.91,1.77a4.15,4.15,0,0,0,2-4.33l.61-.06c.24,2.31-.83,4.17-3.19,5.53C322.64-50.29,319.22-50.95,317.47-54Z" style="fill: #fff"/>
        <path d="M313.3-46.49l3.29-1.9.35.6-7.48,4.32-1.68-2.92-.19.11a23.32,23.32,0,0,1-.39,2.62,8.34,8.34,0,0,1-4,4.59c-3.89,2.24-7.61,2-10.23-2.52L285.85-54l-3.29,1.9-.35-.6L289.69-57,297-44.38c2.25,3.88,4.9,5.29,7.15,4a5.27,5.27,0,0,0,2.37-3.21,8.84,8.84,0,0,0,.16-4.73L299-61.56l-2.91,1.68-.35-.6s6.11-3.67,6.93-4.4Z" style="fill: #fff"/>
        <path d="M341.93-80.15a8.75,8.75,0,0,0-7.13-2.33,8.76,8.76,0,0,0-7.1,4.09,13.18,13.18,0,0,0-1.84,8.18,12.63,12.63,0,0,0,3.42,7.85,9.29,9.29,0,0,0,8,2.72c4.43-.39,6.65-2.36,8.28-5.45h0a2.28,2.28,0,0,0,.15-.36,3.18,3.18,0,0,0-2.12-3.67A3.18,3.18,0,0,0,339.89-67,3.16,3.16,0,0,0,342-63.35a2.89,2.89,0,0,0,1.72-.11A8.36,8.36,0,0,1,338-60.4c-4.3.38-6.16-2.58-6.86-10.53l0-.39,9.37-.82,2.54-.22,2.23-.2A11.11,11.11,0,0,0,341.93-80.15Zm-1.52,7.32L331-72c-.28-3.65-.11-6.19.47-7.54A3.85,3.85,0,0,1,335-81.8a3.62,3.62,0,0,1,3.7,1.63C339.48-79,340-76.52,340.41-72.83Z" style="fill: #fff"/>
        <path d="M221.61,7l-.17.13c-.79.45-1.46.24-2-.69L212.7-5.21c-1.36-2.36-2.9-3.56-4.7-3.66a10.93,10.93,0,0,0-6,1.73c-4.82,2.79-6.47,5.53-4.92,8.23a2.66,2.66,0,0,0,3.88,1.19,2.37,2.37,0,0,0,.93-3.48,2.32,2.32,0,0,0-1.78-1.11,1.57,1.57,0,0,1-1.2-.6c-.47-.82.45-1.91,2.77-3.24A4.47,4.47,0,0,1,205-6.93c.89.23,1.88,1.26,2.93,3.09l1.71,2.95a22.83,22.83,0,0,0-7.76,6.68,6,6,0,0,0-.47,6.79c1.9,3.29,5.82,3.77,10,1.33,2.7-1.55,3.93-3.56,3.72-6.08l.15-.09c1.64,1.55,3.49,1.73,5.62.5a5.69,5.69,0,0,0,1-.71ZM213.72,8.4a4.91,4.91,0,0,1-1,3.29,4.51,4.51,0,0,1-3.42,1.69c-2.79.22-3.85-1.64-4.18-5.82-.19-2.49.24-4.21,1.25-5.12S208.84,1.16,211,.93C211,.93,213.59,5.47,213.72,8.4Z" style="fill: #fff"/>
        <path d="M73.78,79.89a13.47,13.47,0,0,1,2,8.56,8.27,8.27,0,0,1-4.41,6.34,5.34,5.34,0,0,1-4.11.83l-.91-.28L65,94.61l-.19.1L66,97.1l-7.11,4.1-.35-.6,3.3-1.9L46.71,72.54l-3.29,1.9-.35-.6s6.48-3.89,7.31-4.62l6.3,10.92.18-.11A5.6,5.6,0,0,1,59.77,75C63.49,72.77,69.64,72.71,73.78,79.89Zm-3.94,4.68c-.42-7-1.93-10.13-5.1-9.95-3,.18-4.35,3.52-4,10,.41,7,2.23,9.77,5.32,9.59S70.23,91.19,69.84,84.57Z" style="fill: #fff"/>
        <path d="M102.9,40.1l-.35-.61s6.48-3.88,7.31-4.61L125.48,62l3.29-1.9.35.6-10.77,6.22-.34-.61,3.29-1.89L106.19,38.2Z" style="fill: #fff"/>
        <path d="M107.68,73.82A10.24,10.24,0,0,1,99.57,75a11.65,11.65,0,0,1-6.79-5.81c-1.77-3.06-2.32-6-1.61-8.74a10.85,10.85,0,0,1,13.16-7.6q4.1,1.16,6.77,5.77a11.67,11.67,0,0,1,1.63,8.78A10.24,10.24,0,0,1,107.68,73.82Zm-4.8.81a4.27,4.27,0,0,0,3.8-2.63c.68-1.62.86-4.5.51-8.58s-1-6.89-2-8.32a4.62,4.62,0,0,0-8,.7c-.69,1.58-.86,4.45-.51,8.54s1,6.88,2,8.36a4.25,4.25,0,0,0,4.2,1.93Z" style="fill: #fff"/>
        <path d="M85.35,86a13.89,13.89,0,0,0-2.34.7.52.52,0,0,0-.29.71l-.37.22-3.54-6.13.45-.26c2.32,4.29,5.22,5.16,9.14,2.89,3-1.75,3.88-3.73,2.61-5.94a3.69,3.69,0,0,0-2.52-1.93,19.45,19.45,0,0,0-5-.09,18.09,18.09,0,0,1-4.53-.07,5.66,5.66,0,0,1-4.27-2.82c-1.64-2.84-.76-6.49,3.17-8.76a8.72,8.72,0,0,1,2.87-1.06,9.51,9.51,0,0,0,1.81-.5c.45-.26.57-.57.37-.91l.38-.22,2.57,4.55-.45.26q-2.85-4-7.28-1.48c-2,1.14-2.47,2.62-1.46,4.38a3.65,3.65,0,0,0,2.77,1.94,15.84,15.84,0,0,0,3.56,0,35.86,35.86,0,0,1,5.91,0,5.16,5.16,0,0,1,3.71,2.7A6.49,6.49,0,0,1,93,79.89a8.82,8.82,0,0,1-4.16,4.79A13.45,13.45,0,0,1,85.35,86Z" style="fill: #fff"/>
        <path d="M152.93,41,145,27.34l-2.72,1.57-.35-.6a6.23,6.23,0,0,0,3.28-4.58,8.45,8.45,0,0,0-1.12-5.84l.75-.43,4,6.88,5.68-3.28.35.6-5.65,3.26L157.91,40c1.1,1.9,2.61,2.53,3.92,1.77a4.14,4.14,0,0,0,2-4.33l.62-.06c.23,2.31-.84,4.17-3.19,5.53C158.1,44.71,154.67,44.05,152.93,41Z" style="fill: #fff"/>
        <path d="M148.76,48.51l3.28-1.9.35.6-7.48,4.32-1.68-2.92-.19.11a23.29,23.29,0,0,1-.38,2.62,8.42,8.42,0,0,1-4,4.59c-3.89,2.24-7.62,2-10.23-2.52L121.3,41,118,42.93l-.34-.6L125.14,38l7.28,12.61c2.24,3.88,4.9,5.29,7.14,4a5.32,5.32,0,0,0,2.38-3.21,8.84,8.84,0,0,0,.16-4.73l-7.64-13.23-2.92,1.68-.34-.6s6.1-3.67,6.93-4.4Z" style="fill: #fff"/>
        <path d="M177.39,14.85a9.64,9.64,0,0,0-14.23,1.76,13.05,13.05,0,0,0-1.84,8.18,12.62,12.62,0,0,0,3.41,7.85A10.46,10.46,0,0,0,181,29.91h0a1.58,1.58,0,0,0,.14-.36,3,3,0,1,0-3.66,2.11,2.89,2.89,0,0,0,1.72-.11,8.31,8.31,0,0,1-5.74,3.06c-4.3.38-6.16-2.58-6.86-10.53l0-.39,9.38-.82,2.53-.22,2.24-.2A11.2,11.2,0,0,0,177.39,14.85Zm-1.52,7.32-9.38.82c-.28-3.65-.11-6.19.47-7.53a3.87,3.87,0,0,1,3.49-2.26,3.61,3.61,0,0,1,3.69,1.63C174.94,16,175.5,18.48,175.87,22.17Z" style="fill: #fff"/>
        <path d="M57.06,102a1.09,1.09,0,0,1-.17.13c-.78.45-1.46.24-2-.69L48.16,89.79c-1.36-2.36-2.9-3.56-4.71-3.66a10.9,10.9,0,0,0-6,1.73c-4.83,2.79-6.48,5.53-4.92,8.23a2.66,2.66,0,0,0,3.88,1.19,2.38,2.38,0,0,0,.93-3.48,2.35,2.35,0,0,0-1.79-1.11,1.56,1.56,0,0,1-1.19-.6c-.48-.82.44-1.91,2.76-3.24a4.49,4.49,0,0,1,3.34-.78c.88.23,1.87,1.26,2.93,3.09l1.7,3a22.93,22.93,0,0,0-7.76,6.68,6,6,0,0,0-.46,6.79c1.9,3.29,5.81,3.77,10,1.33,2.69-1.55,3.93-3.56,3.72-6.08l.14-.09c1.64,1.55,3.49,1.73,5.62.5a5.69,5.69,0,0,0,1-.71Zm-7.88,1.38a5,5,0,0,1-1,3.29,4.53,4.53,0,0,1-3.42,1.69c-2.8.22-3.85-1.64-4.18-5.82-.2-2.49.23-4.21,1.24-5.12s2.52-1.28,4.64-1.51C46.42,95.93,49,100.47,49.18,103.4Z" style="fill: #fff"/>
        <path d="M-34.81,271.8a13.51,13.51,0,0,1,2,8.57,8.24,8.24,0,0,1-4.41,6.33,5.26,5.26,0,0,1-4.11.83l-.91-.27-1.32-.74-.19.11,1.14,2.39-7.11,4.1-.35-.6,3.29-1.9-15.1-26.17-3.29,1.9-.35-.6s6.48-3.89,7.3-4.61l6.31,10.91.18-.1a5.6,5.6,0,0,1,2.91-5.07C-45.1,264.68-39,264.62-34.81,271.8Zm-3.94,4.69c-.42-7.05-1.93-10.14-5.1-9.95q-4.53.27-4,10c.41,7,2.22,9.77,5.32,9.58S-38.36,283.11-38.75,276.49Z" style="fill: #fff"/>
        <path d="M-5.69,232l-.35-.6s6.48-3.89,7.31-4.61l15.62,27.06,3.29-1.9.35.61L9.76,258.78l-.34-.6,3.29-1.9L-2.4,230.11Z" style="fill: #fff"/>
        <path d="M-.91,265.74A10.2,10.2,0,0,1-9,266.88a11.63,11.63,0,0,1-6.79-5.8c-1.77-3.06-2.32-6-1.61-8.74a10.07,10.07,0,0,1,5-6.49,10.12,10.12,0,0,1,8.14-1.11q4.09,1.15,6.76,5.77a11.63,11.63,0,0,1,1.63,8.78A10.19,10.19,0,0,1-.91,265.74Zm-4.8.8a4.24,4.24,0,0,0,3.8-2.62c.68-1.63.86-4.5.51-8.59s-1-6.88-2-8.32a4.21,4.21,0,0,0-4.2-2,4.21,4.21,0,0,0-3.8,2.67c-.69,1.58-.86,4.46-.51,8.54s1,6.89,2,8.36a4.22,4.22,0,0,0,4.2,1.93Z" style="fill: #fff"/>
        <path d="M-23.24,277.93a14.49,14.49,0,0,0-2.34.71.52.52,0,0,0-.29.71l-.37.22-3.54-6.14.45-.25c2.32,4.28,5.22,5.16,9.14,2.89,3-1.75,3.88-3.73,2.61-5.94a3.73,3.73,0,0,0-2.52-1.94,19.56,19.56,0,0,0-5-.08,17.64,17.64,0,0,1-4.53-.08,5.61,5.61,0,0,1-4.27-2.82c-1.64-2.84-.76-6.49,3.17-8.76a9,9,0,0,1,2.87-1.06,9,9,0,0,0,1.81-.49c.45-.26.57-.58.37-.91l.38-.22,2.57,4.54-.45.26q-2.85-4-7.28-1.47c-2,1.14-2.47,2.62-1.46,4.38a3.68,3.68,0,0,0,2.77,1.94,16.45,16.45,0,0,0,3.56,0,35.86,35.86,0,0,1,5.91,0,5.1,5.1,0,0,1,3.7,2.7,6.46,6.46,0,0,1,.44,5.68,8.85,8.85,0,0,1-4.16,4.79A13.45,13.45,0,0,1-23.24,277.93Z" style="fill: #fff"/>
        <path d="M44.33,232.94l-7.9-13.69-2.72,1.58-.35-.6a6.24,6.24,0,0,0,3.28-4.59,8.43,8.43,0,0,0-1.12-5.83l.75-.43,4,6.88L45.92,213l.35.6-5.65,3.26,8.7,15.06c1.1,1.91,2.61,2.53,3.92,1.78a4.16,4.16,0,0,0,2-4.34l.61-.05c.24,2.3-.83,4.17-3.18,5.53C49.51,236.63,46.08,236,44.33,232.94Z" style="fill: #fff"/>
        <path d="M40.17,240.43l3.29-1.9.34.6-7.48,4.32-1.68-2.92-.19.11a22.79,22.79,0,0,1-.38,2.61,8.36,8.36,0,0,1-4,4.59c-3.89,2.25-7.62,2-10.23-2.51L12.71,233l-3.29,1.9-.34-.6,7.47-4.32,7.28,12.6c2.24,3.89,4.9,5.29,7.14,4a5.32,5.32,0,0,0,2.38-3.22,8.83,8.83,0,0,0,.16-4.73l-7.64-13.23L23,227l-.34-.6s6.1-3.68,6.93-4.4Z" style="fill: #fff"/>
        <path d="M68.8,206.76a8.81,8.81,0,0,0-7.14-2.32,8.73,8.73,0,0,0-7.09,4.09,13,13,0,0,0-1.84,8.17,12.62,12.62,0,0,0,3.41,7.85,9.31,9.31,0,0,0,8,2.73,9.32,9.32,0,0,0,8.28-5.45h0a1.66,1.66,0,0,0,.14-.37,3,3,0,1,0-3.66,2.12,2.82,2.82,0,0,0,1.72-.12,8.29,8.29,0,0,1-5.74,3.07c-4.3.38-6.16-2.58-6.86-10.54l0-.38,9.37-.82,2.54-.23,2.24-.19A11.23,11.23,0,0,0,68.8,206.76Zm-1.52,7.33-9.38.82c-.28-3.66-.11-6.19.47-7.54a3.88,3.88,0,0,1,3.49-2.25,3.62,3.62,0,0,1,3.69,1.62C66.35,207.93,66.91,210.39,67.28,214.09Z" style="fill: #fff"/>
        <path d="M-51.53,293.94l-.17.12c-.78.46-1.46.25-2-.69l-6.73-11.66c-1.36-2.36-2.9-3.56-4.71-3.67a11,11,0,0,0-6,1.74c-4.83,2.78-6.48,5.53-4.93,8.22a2.68,2.68,0,0,0,3.89,1.2,2.38,2.38,0,0,0,.93-3.48,2.33,2.33,0,0,0-1.79-1.11,1.54,1.54,0,0,1-1.19-.61q-.72-1.23,2.76-3.24a4.54,4.54,0,0,1,3.34-.78c.88.24,1.87,1.26,2.93,3.1l1.7,2.95a22.92,22.92,0,0,0-7.76,6.67,6,6,0,0,0-.46,6.8c1.9,3.29,5.81,3.77,10,1.33,2.69-1.56,3.92-3.56,3.71-6.08l.15-.09c1.64,1.55,3.49,1.73,5.62.49a5.15,5.15,0,0,0,1-.7Zm-7.88,1.38a5,5,0,0,1-1,3.29,4.56,4.56,0,0,1-3.42,1.69c-2.8.22-3.85-1.65-4.18-5.82-.2-2.5.23-4.22,1.24-5.12s2.52-1.28,4.64-1.51C-62.17,287.85-59.55,292.38-59.41,295.32Z" style="fill: #fff"/>
        <path d="M294.28,81.8a13.51,13.51,0,0,1,2,8.57,8.27,8.27,0,0,1-4.41,6.34,5.33,5.33,0,0,1-4.11.82l-.91-.27-1.32-.74-.19.11L286.48,99l-7.11,4.1-.35-.6,3.29-1.9-15.1-26.17-3.29,1.9-.35-.6s6.48-3.89,7.31-4.61l6.3,10.91.18-.1a5.58,5.58,0,0,1,2.91-5.07C284,74.68,290.13,74.62,294.28,81.8Zm-3.94,4.69c-.42-7-1.93-10.14-5.11-9.95-3,.18-4.34,3.51-4,10,.41,7,2.22,9.77,5.32,9.58S290.73,93.1,290.34,86.49Z" style="fill: #fff"/>
        <path d="M323.4,42l-.35-.6s6.48-3.89,7.31-4.62L346,63.86l3.29-1.9.35.61-10.77,6.21-.34-.6,3.29-1.9L326.69,40.11Z" style="fill: #fff"/>
        <path d="M328.18,75.74a10.2,10.2,0,0,1-8.11,1.14,11.63,11.63,0,0,1-6.79-5.8c-1.77-3.07-2.32-6-1.61-8.74a10.84,10.84,0,0,1,13.16-7.6q4.1,1.15,6.76,5.77a11.63,11.63,0,0,1,1.63,8.78A10.19,10.19,0,0,1,328.18,75.74Zm-4.8.8a4.24,4.24,0,0,0,3.8-2.63c.68-1.62.86-4.5.51-8.58s-1-6.88-2-8.32a4.63,4.63,0,0,0-8,.7c-.69,1.58-.87,4.46-.51,8.54s1,6.89,2,8.37a4.23,4.23,0,0,0,4.2,1.92Z" style="fill: #fff"/>
        <path d="M305.85,87.93a14.49,14.49,0,0,0-2.34.71.52.52,0,0,0-.29.71l-.37.22-3.54-6.14.45-.25c2.32,4.28,5.22,5.16,9.14,2.89,3-1.75,3.88-3.73,2.61-5.94A3.73,3.73,0,0,0,309,78.19a19.56,19.56,0,0,0-5-.08,17.64,17.64,0,0,1-4.53-.08,5.61,5.61,0,0,1-4.27-2.82c-1.64-2.84-.76-6.49,3.17-8.75a8.45,8.45,0,0,1,2.87-1.07A9,9,0,0,0,303,64.9c.45-.26.57-.58.37-.91l.38-.22,2.57,4.54-.45.26q-2.85-4-7.28-1.47c-2,1.14-2.47,2.62-1.46,4.38a3.68,3.68,0,0,0,2.77,1.94,16.45,16.45,0,0,0,3.56,0,35.86,35.86,0,0,1,5.91,0,5.1,5.1,0,0,1,3.7,2.7,6.46,6.46,0,0,1,.44,5.68,8.85,8.85,0,0,1-4.16,4.79A13.45,13.45,0,0,1,305.85,87.93Z" style="fill: #fff"/>
        <path d="M373.42,42.94l-7.9-13.69-2.72,1.58-.35-.6a6.27,6.27,0,0,0,3.28-4.59,8.43,8.43,0,0,0-1.12-5.83l.75-.43,4,6.88L375,23l.35.6-5.65,3.26,8.7,15.06c1.1,1.91,2.61,2.53,3.92,1.78a4.16,4.16,0,0,0,2-4.34l.61-.05c.24,2.3-.83,4.17-3.18,5.53C378.6,46.63,375.17,46,373.42,42.94Z" style="fill: #fff"/>
        <path d="M369.26,50.43l3.29-1.9.34.6-7.47,4.32-1.69-2.92-.19.11a22.79,22.79,0,0,1-.38,2.61,8.36,8.36,0,0,1-4,4.59c-3.89,2.25-7.62,2-10.23-2.52L341.8,43l-3.29,1.9-.34-.6,7.47-4.32,7.28,12.6c2.24,3.89,4.9,5.29,7.14,4a5.32,5.32,0,0,0,2.38-3.22,8.83,8.83,0,0,0,.16-4.73L355,35.35,352,37l-.34-.6s6.1-3.68,6.93-4.4Z" style="fill: #fff"/>
        <path d="M397.89,16.76a9.65,9.65,0,0,0-14.23,1.77,13,13,0,0,0-1.84,8.18,12.62,12.62,0,0,0,3.41,7.84,10.45,10.45,0,0,0,16.28-2.72h0a1.66,1.66,0,0,0,.14-.37A3,3,0,1,0,398,33.57a2.89,2.89,0,0,0,1.72-.11,8.31,8.31,0,0,1-5.74,3.06c-4.3.38-6.16-2.58-6.86-10.54l0-.38,9.37-.82,2.54-.23,2.24-.19A11.23,11.23,0,0,0,397.89,16.76Zm-1.52,7.33-9.38.82c-.28-3.66-.11-6.19.47-7.54A3.88,3.88,0,0,1,391,15.12a3.62,3.62,0,0,1,3.69,1.62C395.44,17.93,396,20.39,396.37,24.09Z" style="fill: #fff"/>
        <path d="M277.56,103.94l-.17.12c-.78.46-1.46.25-2-.69l-6.73-11.66c-1.36-2.36-2.9-3.56-4.71-3.67a11,11,0,0,0-6,1.74c-4.83,2.78-6.48,5.53-4.92,8.22a2.67,2.67,0,0,0,3.88,1.2,2.38,2.38,0,0,0,.93-3.48A2.35,2.35,0,0,0,256,94.61a1.54,1.54,0,0,1-1.19-.61q-.72-1.23,2.76-3.24a4.54,4.54,0,0,1,3.34-.78c.88.24,1.87,1.26,2.93,3.09l1.7,3a22.92,22.92,0,0,0-7.76,6.67,6,6,0,0,0-.46,6.8c1.9,3.29,5.81,3.77,10,1.33,2.69-1.56,3.92-3.56,3.72-6.08l.14-.09c1.64,1.55,3.49,1.72,5.62.49a5.15,5.15,0,0,0,1-.7Zm-7.88,1.38a4.92,4.92,0,0,1-1,3.28,4.54,4.54,0,0,1-3.42,1.7c-2.8.22-3.86-1.65-4.18-5.82-.2-2.5.23-4.22,1.24-5.12s2.52-1.28,4.64-1.51C266.92,97.85,269.54,102.38,269.68,105.32Z" style="fill: #fff"/>
        <path d="M129.73,176.8a13.52,13.52,0,0,1,2,8.57,8.27,8.27,0,0,1-4.42,6.33,5.25,5.25,0,0,1-4.11.83l-.9-.27-1.32-.74-.19.11,1.13,2.39-7.11,4.1-.34-.6,3.29-1.9-15.11-26.17-3.29,1.9-.35-.6s6.48-3.89,7.31-4.61l6.3,10.91.19-.1a5.58,5.58,0,0,1,2.91-5.07C119.44,169.68,125.59,169.62,129.73,176.8Zm-3.94,4.69c-.41-7.05-1.93-10.14-5.1-10-3,.18-4.35,3.51-4,10,.41,7,2.22,9.77,5.31,9.58S126.18,188.11,125.79,181.49Z" style="fill: #fff"/>
        <path d="M158.85,137l-.34-.6s6.47-3.89,7.3-4.61l15.63,27.06,3.29-1.9.34.61-10.76,6.21-.35-.6,3.29-1.9-15.11-26.17Z" style="fill: #fff"/>
        <path d="M163.63,170.74a10.19,10.19,0,0,1-8.11,1.14,11.63,11.63,0,0,1-6.79-5.8c-1.77-3.06-2.31-6-1.61-8.74a10.85,10.85,0,0,1,13.16-7.6c2.73.77,5,2.7,6.77,5.77a11.67,11.67,0,0,1,1.63,8.78A10.2,10.2,0,0,1,163.63,170.74Zm-4.79.8a4.22,4.22,0,0,0,3.79-2.62c.69-1.63.87-4.5.51-8.59s-1-6.88-2-8.32a4.23,4.23,0,0,0-4.21-2,4.19,4.19,0,0,0-3.79,2.67c-.69,1.58-.87,4.46-.51,8.54s1,6.89,2,8.36a4.19,4.19,0,0,0,4.19,1.93Z" style="fill: #fff"/>
        <path d="M141.3,182.93a14.88,14.88,0,0,0-2.34.71.51.51,0,0,0-.28.71l-.38.22-3.54-6.14.45-.25c2.33,4.28,5.22,5.16,9.15,2.89,3-1.75,3.87-3.73,2.6-5.94a3.71,3.71,0,0,0-2.51-1.94,19.64,19.64,0,0,0-5-.08,17.64,17.64,0,0,1-4.53-.08,5.62,5.62,0,0,1-4.27-2.82c-1.64-2.84-.75-6.49,3.17-8.76a8.92,8.92,0,0,1,2.88-1.06,8.84,8.84,0,0,0,1.8-.49c.45-.26.57-.58.38-.91l.37-.22,2.58,4.54-.45.26c-1.91-2.69-4.33-3.18-7.29-1.47-2,1.14-2.47,2.62-1.45,4.38a3.64,3.64,0,0,0,2.76,1.94,16.48,16.48,0,0,0,3.56,0,36,36,0,0,1,5.92,0,5.13,5.13,0,0,1,3.7,2.7,6.49,6.49,0,0,1,.44,5.68,8.9,8.9,0,0,1-4.16,4.79A13.53,13.53,0,0,1,141.3,182.93Z" style="fill: #fff"/>
        <path d="M208.88,137.94,201,124.25l-2.73,1.58-.35-.6a6.28,6.28,0,0,0,3.29-4.59,8.49,8.49,0,0,0-1.13-5.83l.75-.43,4,6.88,5.68-3.28.35.6-5.64,3.26,8.69,15.06c1.11,1.91,2.61,2.53,3.92,1.78a4.17,4.17,0,0,0,2-4.34l.61-.05c.24,2.3-.83,4.17-3.19,5.53C214.05,141.63,210.63,141,208.88,137.94Z" style="fill: #fff"/>
        <path d="M204.71,145.43l3.29-1.9.35.6-7.48,4.32-1.68-2.92-.19.11a22.81,22.81,0,0,1-.39,2.61,8.27,8.27,0,0,1-4,4.59c-3.89,2.25-7.62,2-10.23-2.51L177.26,138l-3.29,1.9-.35-.6,7.48-4.32,7.27,12.6c2.25,3.89,4.9,5.29,7.15,4a5.27,5.27,0,0,0,2.37-3.22,8.74,8.74,0,0,0,.16-4.73l-7.64-13.23L187.5,132l-.35-.6s6.11-3.68,6.93-4.4Z" style="fill: #fff"/>
        <path d="M233.35,111.76a9.66,9.66,0,0,0-14.24,1.77,13.14,13.14,0,0,0-1.84,8.17,12.63,12.63,0,0,0,3.42,7.85,9.28,9.28,0,0,0,8,2.73c4.43-.39,6.65-2.36,8.28-5.45h0a2.39,2.39,0,0,0,.15-.37,3,3,0,1,0-3.66,2.12,2.82,2.82,0,0,0,1.72-.12,8.33,8.33,0,0,1-5.74,3.07c-4.3.38-6.17-2.58-6.86-10.54l0-.38,9.37-.82,2.54-.23,2.23-.19A11.18,11.18,0,0,0,233.35,111.76Zm-1.53,7.33-9.37.82c-.28-3.66-.11-6.19.47-7.54a3.85,3.85,0,0,1,3.48-2.25,3.63,3.63,0,0,1,3.7,1.62C230.89,112.93,231.45,115.39,231.82,119.09Z" style="fill: #fff"/>
        <path d="M113,198.94l-.17.12c-.79.46-1.46.25-2-.69l-6.74-11.66c-1.36-2.36-2.9-3.56-4.7-3.67a11,11,0,0,0-6,1.74c-4.82,2.78-6.47,5.53-4.92,8.22a2.67,2.67,0,0,0,3.88,1.2,2.37,2.37,0,0,0,.93-3.48,2.31,2.31,0,0,0-1.78-1.11,1.56,1.56,0,0,1-1.2-.61q-.71-1.23,2.77-3.24a4.51,4.51,0,0,1,3.33-.78c.89.24,1.87,1.26,2.93,3.1L101,191a22.82,22.82,0,0,0-7.76,6.67c-1.58,2.36-1.72,4.63-.47,6.8,1.9,3.29,5.82,3.77,10,1.33,2.7-1.56,3.93-3.56,3.72-6.08l.15-.09c1.64,1.55,3.49,1.73,5.62.49a5.15,5.15,0,0,0,1-.7Zm-7.89,1.38a4.93,4.93,0,0,1-1,3.29,4.54,4.54,0,0,1-3.42,1.69c-2.79.22-3.85-1.65-4.18-5.82-.19-2.5.24-4.22,1.25-5.12s2.51-1.28,4.64-1.51C102.38,192.85,105,197.38,105.13,200.32Z" style="fill: #fff"/>
        <path d="M21.19,368.8a13.47,13.47,0,0,1,2,8.56,8.27,8.27,0,0,1-4.41,6.34,5.34,5.34,0,0,1-4.11.83l-.91-.28-1.32-.73-.19.1L13.39,386l-7.11,4.1-.35-.59,3.29-1.91-15.1-26.16-3.29,1.9-.35-.6s6.48-3.89,7.3-4.62l6.31,10.92.18-.11a5.59,5.59,0,0,1,2.91-5.06C10.9,361.68,17,361.62,21.19,368.8Zm-3.94,4.68c-.42-7-1.93-10.13-5.1-10-3,.18-4.35,3.52-4,10,.41,7,2.22,9.76,5.32,9.58S17.64,380.1,17.25,373.48Z" style="fill: #fff"/>
        <path d="M50.31,329l-.35-.6s6.48-3.89,7.3-4.62l15.63,27.07,3.29-1.9.35.6-10.77,6.22-.34-.6,3.29-1.9L53.6,327.11Z" style="fill: #fff"/>
        <path d="M55.09,362.73A10.2,10.2,0,0,1,47,363.88a11.66,11.66,0,0,1-6.79-5.8c-1.77-3.07-2.32-6-1.61-8.75a10.12,10.12,0,0,1,5-6.49,10.08,10.08,0,0,1,8.14-1.1c2.73.76,5,2.69,6.76,5.76a11.69,11.69,0,0,1,1.64,8.78A10.24,10.24,0,0,1,55.09,362.73Zm-4.8.81a4.24,4.24,0,0,0,3.8-2.63c.68-1.62.86-4.5.51-8.58s-1-6.89-2-8.32a4.19,4.19,0,0,0-4.2-2,4.21,4.21,0,0,0-3.8,2.67c-.69,1.58-.86,4.45-.51,8.54s1,6.88,2,8.36a4.23,4.23,0,0,0,4.2,1.93Z" style="fill: #fff"/>
        <path d="M32.76,374.93a13.89,13.89,0,0,0-2.34.7.52.52,0,0,0-.29.71l-.37.22-3.54-6.13.45-.26c2.32,4.29,5.22,5.16,9.14,2.89,3-1.74,3.88-3.73,2.61-5.94a3.69,3.69,0,0,0-2.52-1.93,19.45,19.45,0,0,0-5-.09,18.09,18.09,0,0,1-4.53-.07,5.63,5.63,0,0,1-4.27-2.82c-1.64-2.84-.76-6.49,3.17-8.76a8.72,8.72,0,0,1,2.87-1.06,9.51,9.51,0,0,0,1.81-.5c.45-.26.57-.57.37-.91l.38-.22,2.57,4.55-.45.26q-2.85-4-7.28-1.48c-2,1.14-2.47,2.62-1.46,4.38a3.65,3.65,0,0,0,2.77,1.94,15.84,15.84,0,0,0,3.56,0,37.09,37.09,0,0,1,5.91,0,5.12,5.12,0,0,1,3.7,2.7,6.46,6.46,0,0,1,.44,5.68,8.87,8.87,0,0,1-4.16,4.8A13.82,13.82,0,0,1,32.76,374.93Z" style="fill: #fff"/>
        <path d="M100.33,329.93l-7.9-13.68-2.72,1.58-.35-.61a6.23,6.23,0,0,0,3.28-4.58,8.45,8.45,0,0,0-1.12-5.84l.75-.43,4,6.88,5.68-3.28.35.6-5.65,3.26,8.7,15.07c1.1,1.9,2.61,2.53,3.92,1.77a4.14,4.14,0,0,0,2-4.33l.62-.06c.23,2.31-.84,4.17-3.19,5.53C105.51,333.62,102.08,333,100.33,329.93Z" style="fill: #fff"/>
        <path d="M96.16,337.42l3.3-1.9.34.6-7.48,4.32-1.68-2.92-.19.11a23.29,23.29,0,0,1-.38,2.62,8.39,8.39,0,0,1-4,4.59c-3.89,2.24-7.62,2-10.23-2.52l-7.15-12.38-3.29,1.9-.34-.6,7.47-4.31,7.28,12.6c2.24,3.89,4.9,5.29,7.14,4a5.3,5.3,0,0,0,2.38-3.21,8.94,8.94,0,0,0,.16-4.73l-7.64-13.23L79,324l-.34-.6s6.1-3.67,6.93-4.4Z" style="fill: #fff"/>
        <path d="M124.8,303.76a9.66,9.66,0,0,0-14.23,1.76,13.05,13.05,0,0,0-1.84,8.18,12.62,12.62,0,0,0,3.41,7.85,10.44,10.44,0,0,0,16.27-2.73h0a1.58,1.58,0,0,0,.14-.36,3,3,0,1,0-3.66,2.11,2.81,2.81,0,0,0,1.72-.11,8.36,8.36,0,0,1-5.74,3.07c-4.3.37-6.16-2.59-6.86-10.54l0-.39,9.37-.82,2.54-.22,2.24-.19A11.23,11.23,0,0,0,124.8,303.76Zm-1.52,7.32-9.38.82c-.28-3.65-.11-6.18.47-7.53a3.86,3.86,0,0,1,3.49-2.26,3.61,3.61,0,0,1,3.69,1.63C122.35,304.92,122.91,307.39,123.28,311.08Z" style="fill: #fff"/>
        <path d="M4.47,390.93a1.09,1.09,0,0,1-.17.13c-.78.45-1.46.24-2-.69L-4.43,378.7c-1.36-2.36-2.9-3.56-4.71-3.66a10.9,10.9,0,0,0-6,1.73Q-22.4,381-20.09,385a2.68,2.68,0,0,0,3.89,1.2,2.38,2.38,0,0,0,.93-3.48,2.34,2.34,0,0,0-1.79-1.12,1.5,1.5,0,0,1-1.19-.6q-.72-1.23,2.76-3.24a4.49,4.49,0,0,1,3.34-.78c.88.23,1.87,1.26,2.93,3.09l1.7,2.95a22.93,22.93,0,0,0-7.76,6.68,6,6,0,0,0-.46,6.79c1.9,3.29,5.81,3.77,10,1.33,2.69-1.55,3.92-3.56,3.71-6.08l.15-.08c1.64,1.54,3.49,1.72,5.62.49a5.64,5.64,0,0,0,1-.7Zm-7.88,1.38a5,5,0,0,1-1,3.29,4.57,4.57,0,0,1-3.42,1.7c-2.8.22-3.85-1.65-4.18-5.83-.2-2.49.23-4.21,1.24-5.12s2.52-1.28,4.64-1.51C-6.17,384.84-3.55,389.38-3.41,392.31Z" style="fill: #fff"/>
        <path d="M350.28,178.8a13.47,13.47,0,0,1,2,8.56,8.27,8.27,0,0,1-4.41,6.34,5.34,5.34,0,0,1-4.11.83l-.91-.28-1.32-.73-.19.1,1.14,2.39-7.11,4.1-.35-.59,3.29-1.91-15.1-26.16-3.29,1.9-.35-.6s6.48-3.89,7.31-4.62l6.3,10.92.18-.11a5.58,5.58,0,0,1,2.91-5.06C340,171.68,346.13,171.62,350.28,178.8Zm-3.94,4.68c-.42-7-1.93-10.13-5.11-9.95-3,.18-4.34,3.52-4,10,.41,7,2.22,9.76,5.32,9.58S346.73,190.1,346.34,183.48Z" style="fill: #fff"/>
        <path d="M379.4,139l-.35-.6s6.48-3.89,7.31-4.62L402,160.86l3.29-1.9.35.6-10.77,6.22-.34-.6,3.29-1.9-15.11-26.17Z" style="fill: #fff"/>
        <path d="M384.18,172.73a10.2,10.2,0,0,1-8.11,1.15,11.66,11.66,0,0,1-6.79-5.8c-1.77-3.07-2.32-6-1.61-8.75a10.82,10.82,0,0,1,13.16-7.59c2.73.76,5,2.69,6.76,5.76a11.63,11.63,0,0,1,1.63,8.78A10.19,10.19,0,0,1,384.18,172.73Zm-4.8.81a4.24,4.24,0,0,0,3.8-2.63c.68-1.62.86-4.5.51-8.58s-1-6.89-2-8.32a4.63,4.63,0,0,0-8,.7c-.69,1.58-.87,4.45-.51,8.54s1,6.88,2,8.36a4.23,4.23,0,0,0,4.2,1.93Z" style="fill: #fff"/>
        <path d="M361.85,184.93a13.89,13.89,0,0,0-2.34.7.53.53,0,0,0-.29.72l-.37.21-3.54-6.13.45-.26c2.32,4.29,5.22,5.16,9.14,2.89,3-1.74,3.88-3.73,2.61-5.94a3.69,3.69,0,0,0-2.52-1.93,19.45,19.45,0,0,0-5-.09,18.09,18.09,0,0,1-4.53-.07,5.63,5.63,0,0,1-4.27-2.82c-1.64-2.84-.76-6.49,3.17-8.76a8.64,8.64,0,0,1,2.87-1.06,9.51,9.51,0,0,0,1.81-.5c.45-.26.57-.57.37-.91l.38-.22,2.57,4.55-.45.26q-2.85-4-7.28-1.48c-2,1.14-2.47,2.62-1.46,4.38a3.65,3.65,0,0,0,2.77,1.94,15.84,15.84,0,0,0,3.56,0,37.09,37.09,0,0,1,5.91,0,5.12,5.12,0,0,1,3.7,2.7,6.46,6.46,0,0,1,.44,5.68,8.87,8.87,0,0,1-4.16,4.8A13.82,13.82,0,0,1,361.85,184.93Z" style="fill: #fff"/>
        <path d="M429.42,139.93l-7.9-13.68-2.72,1.58-.35-.61a6.25,6.25,0,0,0,3.28-4.58,8.45,8.45,0,0,0-1.12-5.84l.75-.43,4,6.88L431,120l.35.6-5.65,3.26,8.7,15.07c1.1,1.9,2.61,2.53,3.92,1.77a4.14,4.14,0,0,0,2-4.33l.61-.06c.24,2.31-.83,4.17-3.18,5.53C434.6,143.62,431.17,143,429.42,139.93Z" style="fill: #fff"/>
        <path d="M425.26,147.42l3.29-1.9.34.6-7.47,4.32-1.69-2.92-.19.11a23.29,23.29,0,0,1-.38,2.62,8.39,8.39,0,0,1-4,4.59c-3.89,2.24-7.62,2-10.23-2.52l-7.15-12.38-3.29,1.9-.34-.6,7.47-4.31,7.28,12.6c2.24,3.89,4.9,5.29,7.14,4a5.3,5.3,0,0,0,2.38-3.21,8.84,8.84,0,0,0,.16-4.73L411,132.35,408,134l-.34-.6s6.1-3.67,6.93-4.4Z" style="fill: #fff"/>
        <path d="M453.89,113.76a9.66,9.66,0,0,0-14.23,1.76,13.05,13.05,0,0,0-1.84,8.18,12.62,12.62,0,0,0,3.41,7.85,10.46,10.46,0,0,0,16.28-2.73h0a1.58,1.58,0,0,0,.14-.36,3,3,0,1,0-3.66,2.11,2.81,2.81,0,0,0,1.72-.11,8.36,8.36,0,0,1-5.74,3.07c-4.3.37-6.16-2.59-6.86-10.54l0-.39,9.37-.82,2.54-.22,2.24-.19A11.23,11.23,0,0,0,453.89,113.76Zm-1.52,7.32-9.38.82c-.28-3.65-.11-6.18.47-7.53a3.87,3.87,0,0,1,3.49-2.26,3.61,3.61,0,0,1,3.69,1.63C451.44,114.92,452,117.39,452.37,121.08Z" style="fill: #fff"/>
        <path d="M333.56,200.93a1.09,1.09,0,0,1-.17.13c-.78.45-1.46.24-2-.69l-6.73-11.67c-1.36-2.35-2.9-3.56-4.71-3.66a10.9,10.9,0,0,0-6,1.73c-4.83,2.79-6.48,5.53-4.92,8.23a2.67,2.67,0,0,0,3.88,1.2,2.38,2.38,0,0,0,.93-3.48A2.34,2.34,0,0,0,312,191.6a1.53,1.53,0,0,1-1.19-.6q-.72-1.23,2.76-3.24a4.49,4.49,0,0,1,3.34-.78c.88.23,1.87,1.26,2.93,3.09l1.7,3a22.93,22.93,0,0,0-7.76,6.68,6,6,0,0,0-.46,6.79c1.9,3.29,5.81,3.77,10,1.33,2.69-1.55,3.92-3.56,3.72-6.08l.14-.08c1.64,1.54,3.49,1.72,5.62.49a6.22,6.22,0,0,0,1-.7Zm-7.88,1.38a5,5,0,0,1-1,3.29,4.57,4.57,0,0,1-3.42,1.7c-2.8.22-3.86-1.65-4.18-5.83-.2-2.49.23-4.21,1.24-5.11s2.52-1.29,4.64-1.52C322.92,194.84,325.54,199.38,325.68,202.31Z" style="fill: #fff"/>
        <path d="M185.73,273.8a13.48,13.48,0,0,1,2,8.56,8.31,8.31,0,0,1-4.42,6.34,5.34,5.34,0,0,1-4.11.83l-.9-.28-1.32-.73-.19.1,1.13,2.39-7.11,4.1-.34-.59,3.29-1.91-15.11-26.16-3.29,1.9-.35-.6s6.48-3.89,7.31-4.62l6.3,10.92.19-.11a5.58,5.58,0,0,1,2.91-5.06C175.44,266.68,181.59,266.62,185.73,273.8Zm-3.94,4.68c-.41-7-1.93-10.13-5.1-10-3,.18-4.35,3.52-4,10,.41,7,2.22,9.76,5.31,9.58S182.18,285.1,181.79,278.48Z" style="fill: #fff"/>
        <path d="M214.85,234l-.34-.6s6.47-3.89,7.3-4.62l15.63,27.07,3.29-1.9.35.6-10.77,6.22-.35-.6,3.29-1.9-15.11-26.17Z" style="fill: #fff"/>
        <path d="M219.63,267.73a10.19,10.19,0,0,1-8.11,1.15,11.66,11.66,0,0,1-6.79-5.8c-1.77-3.07-2.31-6-1.61-8.75a10.83,10.83,0,0,1,13.16-7.59c2.73.76,5,2.69,6.77,5.76a11.68,11.68,0,0,1,1.63,8.78A10.2,10.2,0,0,1,219.63,267.73Zm-4.79.81a4.24,4.24,0,0,0,3.8-2.63c.68-1.62.86-4.5.5-8.58s-1-6.89-2-8.32a4.63,4.63,0,0,0-8,.7c-.69,1.58-.87,4.45-.51,8.54s1,6.88,2,8.36a4.21,4.21,0,0,0,4.19,1.93Z" style="fill: #fff"/>
        <path d="M197.3,279.93a14.25,14.25,0,0,0-2.34.7.52.52,0,0,0-.28.72l-.38.21-3.54-6.13.45-.26c2.33,4.29,5.22,5.16,9.15,2.89,3-1.74,3.87-3.73,2.6-5.94a3.67,3.67,0,0,0-2.51-1.93,19.53,19.53,0,0,0-5-.09,18.09,18.09,0,0,1-4.53-.07,5.65,5.65,0,0,1-4.27-2.82c-1.64-2.84-.75-6.49,3.17-8.76a8.69,8.69,0,0,1,2.88-1.06,9.31,9.31,0,0,0,1.8-.5c.45-.26.57-.57.38-.91l.37-.22,2.58,4.55-.45.26c-1.91-2.69-4.33-3.18-7.29-1.48-2,1.14-2.47,2.62-1.45,4.38a3.62,3.62,0,0,0,2.76,1.94,15.86,15.86,0,0,0,3.56,0,37.21,37.21,0,0,1,5.92,0,5.16,5.16,0,0,1,3.7,2.7,6.5,6.5,0,0,1,.44,5.68,8.91,8.91,0,0,1-4.16,4.8A13.9,13.9,0,0,1,197.3,279.93Z" style="fill: #fff"/>
        <path d="M264.88,234.93,257,221.25l-2.73,1.58-.35-.61a6.27,6.27,0,0,0,3.29-4.58,8.51,8.51,0,0,0-1.13-5.84l.75-.43,4,6.88,5.68-3.28.35.6-5.64,3.26,8.69,15.07c1.11,1.9,2.61,2.53,3.92,1.77a4.15,4.15,0,0,0,2-4.33l.61-.06c.24,2.31-.83,4.17-3.19,5.53C270.05,238.62,266.63,238,264.88,234.93Z" style="fill: #fff"/>
        <path d="M260.71,242.42l3.29-1.9.35.6-7.48,4.32-1.68-2.92-.19.11a23.32,23.32,0,0,1-.39,2.62,8.31,8.31,0,0,1-4,4.59c-3.89,2.24-7.61,2-10.23-2.52l-7.14-12.38-3.29,1.9-.35-.6,7.48-4.31,7.27,12.6c2.25,3.89,4.9,5.29,7.15,4a5.25,5.25,0,0,0,2.37-3.21,8.74,8.74,0,0,0,.16-4.73l-7.64-13.23L243.5,229l-.35-.6s6.11-3.67,6.93-4.4Z" style="fill: #fff"/>
        <path d="M289.35,208.76a9.67,9.67,0,0,0-14.24,1.76,13.18,13.18,0,0,0-1.84,8.18,12.63,12.63,0,0,0,3.42,7.85A10.45,10.45,0,0,0,293,223.82h0a2.28,2.28,0,0,0,.15-.36,3,3,0,1,0-3.66,2.11,2.81,2.81,0,0,0,1.72-.11,8.4,8.4,0,0,1-5.74,3.07c-4.3.37-6.17-2.59-6.86-10.54l0-.39,9.37-.82,2.54-.22,2.23-.19A11.18,11.18,0,0,0,289.35,208.76Zm-1.53,7.32-9.37.82c-.28-3.65-.11-6.18.47-7.53a3.84,3.84,0,0,1,3.48-2.26,3.62,3.62,0,0,1,3.7,1.63C286.89,209.92,287.45,212.39,287.82,216.08Z" style="fill: #fff"/>
        <path d="M169,295.93l-.17.13c-.79.45-1.46.24-2-.69l-6.74-11.67c-1.36-2.35-2.9-3.56-4.7-3.66a10.93,10.93,0,0,0-6,1.73c-4.82,2.79-6.47,5.53-4.92,8.23a2.67,2.67,0,0,0,3.88,1.2,2.38,2.38,0,0,0,.93-3.48,2.32,2.32,0,0,0-1.78-1.12,1.55,1.55,0,0,1-1.2-.6q-.71-1.23,2.77-3.24a4.47,4.47,0,0,1,3.33-.78q1.34.34,2.93,3.09L157,288a22.83,22.83,0,0,0-7.76,6.68c-1.58,2.35-1.72,4.63-.47,6.79,1.9,3.29,5.82,3.77,10,1.33,2.7-1.55,3.93-3.56,3.72-6.08l.15-.08c1.64,1.54,3.49,1.72,5.62.49a6.22,6.22,0,0,0,1-.7Zm-7.89,1.38a4.91,4.91,0,0,1-1,3.29,4.55,4.55,0,0,1-3.42,1.7c-2.79.22-3.85-1.65-4.18-5.82-.19-2.5.24-4.22,1.25-5.12s2.51-1.29,4.64-1.52C158.38,289.84,161,294.38,161.13,297.31Z" style="fill: #fff"/>
      </g>
    </mask>
  </defs>
  <g style="mask: url(#a)">
    <rect width="270" height="326" style="fill: #fff"/>
  </g>
</svg>
