<svg width="381" height="461" viewBox="0 0 381 461" fill="none" xmlns="http://www.w3.org/2000/svg">
<path d="M82.0183 59.1484C90.8597 64.9673 98.9962 71.7921 106.265 79.4861C114.426 87.6398 121.994 96.3668 128.91 105.6C131.604 109.109 134.058 112.797 136.253 116.638C139.442 122.827 142.278 129.191 144.75 135.7C151.16 151.143 156.496 167.036 163.826 182.073C178.023 210.651 197.342 236.383 220.823 257.991C243.129 278.439 268.083 295.795 295.013 309.595C320.633 322.896 348.1 333.968 370.402 352.804C373.13 355.136 375.859 357.539 378.532 359.97C378.736 360.193 379.021 360.325 379.322 360.338C379.624 360.35 379.918 360.243 380.14 360.039C380.362 359.834 380.494 359.55 380.507 359.249C380.52 358.947 380.412 358.653 380.208 358.431C370.267 348.107 358.78 339.395 346.158 332.606C333.535 325.293 320.339 319.055 307.293 312.562C279.829 299.402 254.135 282.829 230.82 263.236C206.412 242.503 185.917 217.563 170.305 189.6C162.732 174.79 156.019 159.555 150.201 143.971C145.487 132.279 141.03 119.923 133.709 109.475C127.336 100.516 120.286 92.0598 112.619 84.1804C105.059 76.0719 96.8004 68.6439 87.9389 61.9825C86.1381 60.6892 84.296 59.4525 82.4829 58.2717C82.0301 58.0115 81.5635 58.7479 82.0441 58.9937L82.0183 59.1484Z" fill="#E8E3DB"/>
<path d="M337.568 328.577C331.763 323.033 325.89 317.63 320.597 311.574C315.244 305.409 310.344 298.866 305.932 291.997C297.212 278.325 290.523 263.459 286.074 247.866C283.565 239.052 281.816 230.039 280.846 220.926C280.731 219.749 278.912 220.126 279.028 221.303C282.621 254.035 295.862 284.96 317.068 310.151C322.884 317.332 329.498 323.828 336.782 329.515C336.91 329.611 337.069 329.655 337.228 329.638C337.387 329.621 337.533 329.543 337.637 329.422C337.741 329.3 337.794 329.144 337.787 328.984C337.779 328.825 337.711 328.674 337.596 328.563L337.568 328.577Z" fill="#E8E3DB"/>
<path d="M279.755 222.161C278.707 236.167 278.366 250.584 282.42 264.209C287.005 278.18 294.916 290.829 305.472 301.067C311.003 307.006 317.153 312.338 323.817 316.97C323.924 317.016 324.042 317.026 324.155 316.998C324.267 316.971 324.368 316.907 324.441 316.817C324.515 316.727 324.557 316.616 324.561 316.5C324.565 316.384 324.532 316.27 324.465 316.175C319.33 311.309 313.669 307.068 308.631 302.116C303.448 297.116 298.759 291.629 294.629 285.729C286.428 273.879 281.607 260.021 280.681 245.639C280.162 237.816 280.246 229.998 280.162 222.197C280.047 221.974 279.765 221.908 279.755 222.161Z" fill="#E8E3DB"/>
<path d="M279.658 222.248C281.75 234.354 285.84 246.028 291.759 256.793C294.876 262.811 298.565 268.497 301.417 274.617C304.269 280.737 306.561 286.935 309.092 293.116C311.795 300.14 315.152 306.896 319.12 313.292C319.596 314.212 321.128 313.418 320.569 312.542C313.464 301.487 309.578 288.87 304.369 276.905C301.67 270.876 298.629 265.007 295.262 259.325C292.031 253.704 289.186 247.87 286.746 241.863C284.239 235.394 282.092 228.791 280.316 222.084C280.281 222.018 280.222 221.967 280.15 221.945C280.079 221.922 280.001 221.929 279.935 221.963C279.868 221.998 279.818 222.057 279.796 222.128C279.773 222.2 279.78 222.277 279.814 222.344L279.658 222.248Z" fill="#E8E3DB"/>
<path d="M279.769 221.166C280.706 225.522 282.445 229.666 284.898 233.386C287.785 238.958 291.089 244.313 294.342 249.978C297.594 255.643 300.819 261.323 303.654 267.204C306.596 273.598 308.941 280.249 310.661 287.073C311.964 291.84 313.226 296.663 314.781 301.37C315.514 303.535 316.274 305.685 317.161 307.806C317.941 310.198 319.106 312.447 320.61 314.464C320.664 314.568 320.756 314.646 320.867 314.681C320.978 314.716 321.099 314.706 321.202 314.652C321.306 314.599 321.384 314.506 321.419 314.395C321.454 314.284 321.444 314.164 321.39 314.06C320.713 312.162 319.918 310.308 319.009 308.509C318.027 306.318 317.161 304.078 316.415 301.796C314.935 297.439 313.735 293.007 312.535 288.576C310.843 281.812 308.598 275.198 305.824 268.801C300.465 257.16 293.559 246.285 287.253 235.134C284.661 230.541 282.403 225.774 280.036 221.205C280.013 221.16 279.974 221.127 279.926 221.112C279.879 221.097 279.827 221.101 279.783 221.124C279.738 221.147 279.705 221.187 279.69 221.234C279.675 221.282 279.679 221.333 279.702 221.378L279.769 221.166Z" fill="#E8E3DB"/>
<path d="M313.104 306.796C310.757 305.355 308.641 303.569 306.826 301.497C304.762 299.613 302.596 297.845 300.337 296.201C295.305 292.883 290.499 289.234 285.95 285.279C281.455 280.611 277.566 275.396 274.375 269.756C270.84 264.024 267.334 258.255 263.854 252.449C259.474 246.062 255.836 239.198 253.008 231.989L251.514 232.516C252.749 234.651 254.503 236.441 256.612 237.719C259.579 240.034 262.337 242.563 265.068 245.106C271.903 250.99 277.835 257.846 282.677 265.455C283.139 266.346 284.588 265.596 284.07 264.733C279.433 257.436 273.761 250.852 267.231 245.187C264.556 242.686 261.909 240.099 259.042 237.839C256.519 236.399 254.392 234.356 252.852 231.893C252.448 231.113 251.093 231.568 251.358 232.42C253.728 238.827 256.825 244.941 260.587 250.643C264.169 256.809 267.934 262.915 271.683 268.994C274.944 274.825 278.809 280.296 283.214 285.318C287.626 289.564 292.447 293.364 297.607 296.661C300.545 298.641 303.335 300.834 305.952 303.222C307.64 305.463 310.03 307.074 312.74 307.797C313.274 307.874 313.557 307.056 313.077 306.81L313.104 306.796Z" fill="#E8E3DB"/>
<path d="M184.827 349.964C207.136 351.623 229.113 346.775 250.864 341.832C271.678 337.127 292.687 332.322 314.143 332.196C325.932 331.982 337.676 333.705 348.906 337.298C350.528 337.836 351.389 335.269 349.684 334.774C307.692 320.768 264.567 338.338 223.235 345.933C210.582 348.409 197.714 349.619 184.821 349.543C184.776 349.557 184.737 349.585 184.709 349.623C184.681 349.662 184.667 349.708 184.667 349.755C184.668 349.803 184.684 349.848 184.713 349.886C184.741 349.923 184.782 349.951 184.827 349.964Z" fill="#E8E3DB"/>
<path d="M184.826 349.962C200.115 347.483 214.304 340.698 229.441 337.45C244.373 334.225 259.589 332.498 274.864 332.294C283.407 332.074 291.941 332.176 300.491 332.446C300.692 332.425 300.878 332.333 301.017 332.187C301.156 332.041 301.238 331.85 301.249 331.648C301.26 331.447 301.198 331.248 301.075 331.088C300.952 330.928 300.776 330.817 300.579 330.775C285.427 330.177 270.252 330.498 255.139 331.735C239.869 333.096 224.819 336.289 210.312 341.246C201.807 344.133 193.389 347.187 184.738 349.654C184.714 349.683 184.7 349.717 184.696 349.754C184.693 349.79 184.7 349.827 184.717 349.859C184.733 349.892 184.759 349.919 184.791 349.937C184.823 349.955 184.86 349.963 184.896 349.961L184.826 349.962Z" fill="#E8E3DB"/>
<path d="M183.605 349.923C190.101 352.512 197.007 353.925 203.999 354.093C211.005 354.508 218.036 354.261 224.996 353.357C240.659 351.005 255.969 346.718 270.576 340.593C278.942 336.957 287.679 334.244 296.632 332.502C297.738 332.317 297.377 330.596 296.256 330.753C288.807 332.113 281.526 334.273 274.541 337.197C267.047 340.125 259.624 343.122 251.896 345.394C237.443 350.329 222.251 352.749 206.98 352.549C199.122 352.023 191.309 350.958 183.597 349.362C183.402 349.463 183.234 349.549 183.532 349.784L183.605 349.923Z" fill="#E8E3DB"/>
<path d="M184.653 349.627C192.341 346.528 199.766 342.716 207.41 339.534C215.061 336.273 222.928 333.544 230.954 331.366C238.951 329.195 247.164 327.915 255.443 327.548C263.882 327.383 272.322 327.731 280.718 328.589L310.775 331.358C311.885 331.455 311.973 329.713 310.863 329.617L283.365 327.218C274.791 326.296 266.175 325.829 257.552 325.82C241.125 326.595 224.983 330.404 209.943 337.055C201.162 340.494 192.617 344.507 184.364 349.07C184.29 349.108 184.234 349.174 184.209 349.253C184.184 349.333 184.191 349.419 184.23 349.493C184.268 349.567 184.334 349.622 184.413 349.647C184.493 349.673 184.579 349.665 184.653 349.627Z" fill="#E8E3DB"/>
<path d="M309.023 330.5C294.58 325.214 280.418 319.187 266.594 312.444C260.187 309.352 253.591 306.667 246.846 304.405C239.91 302.203 232.748 300.86 225.693 299.179C217.641 297.263 209.771 294.648 202.174 291.363C201.256 290.955 200.52 292.467 201.439 292.945C204.506 294.923 207.249 297.364 209.569 300.182C211.858 302.495 214.314 304.636 216.916 306.588C222.366 310.598 228.303 313.898 234.585 316.411C248.345 321.445 262.631 324.903 277.169 326.719C286.115 328.162 295.047 329.578 303.821 331.782C305.117 332.1 305.735 330.154 304.439 329.836C276.257 322.774 244.622 323.508 219.932 306.475C216.675 304.247 213.636 301.716 210.856 298.915C208.404 296.003 205.524 293.479 202.315 291.431L201.566 293.055C208.296 295.952 215.236 298.335 222.326 300.182C229.34 301.99 236.574 303.402 243.505 305.253C257.82 309.286 271.117 316.673 284.761 322.751C292.337 326.581 300.315 329.559 308.548 331.63C309.182 331.761 309.478 330.901 308.872 330.685L309.023 330.5Z" fill="#E8E3DB"/>
<path d="M272.033 294.431C263.966 288.68 253.399 286.699 243.74 285.448C232.774 284.061 221.554 283.549 210.612 282.891C199.671 282.234 188.032 281.868 176.777 280.878C165.516 280.162 154.344 278.415 143.401 275.659C131.103 272.383 120.941 265.386 110.652 258.348L109.527 260.132C124.145 268.638 140.998 270.543 157.563 271.892C176.3 273.108 194.945 275.474 213.391 278.978C223.622 281.125 233.721 283.857 243.638 287.161C244.837 287.565 245.414 285.747 244.229 285.301C226.784 279.2 208.703 275.1 190.334 273.078C181.307 271.888 172.257 270.993 163.209 270.239C154.161 269.485 146.183 269.024 137.786 267.684C128.2 266.452 118.966 263.275 110.652 258.348C110.418 258.246 110.155 258.231 109.911 258.306C109.667 258.381 109.458 258.541 109.322 258.757C109.186 258.973 109.132 259.23 109.169 259.482C109.207 259.735 109.334 259.966 109.527 260.132C118.174 266.71 127.674 272.083 137.766 276.105C148.307 279.423 159.196 281.513 170.216 282.334C192.705 284.818 215.268 284.579 237.723 286.657C243.578 287.115 249.395 287.974 255.133 289.228C260.836 290.656 266.397 292.601 271.747 295.038C272.129 295.229 272.388 294.706 272.033 294.431Z" fill="#E8E3DB"/>
<path d="M109.534 258.645C111.626 263.025 114.579 266.939 118.217 270.154C121.662 273.582 125.459 276.637 129.546 279.268C137.43 284.333 146.242 287.78 155.471 289.407C173.93 292.707 192.783 289.266 211.157 287.557C221.463 286.333 231.87 286.189 242.206 287.126C243.373 287.264 243.431 285.466 242.307 285.342C206.447 281.127 167.996 298.785 134.272 280C129.449 277.288 124.953 274.033 120.871 270.299C116.861 266.651 113.766 262.177 109.81 258.36C109.787 258.316 109.748 258.283 109.7 258.267C109.652 258.252 109.601 258.257 109.556 258.28C109.512 258.303 109.479 258.342 109.464 258.39C109.448 258.438 109.453 258.489 109.476 258.534L109.534 258.645Z" fill="#E8E3DB"/>
<path d="M109.724 258.194C112.126 260.391 115.274 261.59 118.529 261.548C122.927 261.92 127.392 262.081 131.813 262.158C140.77 262.394 149.749 262.266 158.698 262.895C175.86 264.373 192.744 268.167 208.888 274.175C217.902 277.385 226.836 280.99 235.8 284.651C236.788 285.058 237.285 283.493 236.297 283.086C220.875 276.337 204.979 270.73 188.736 266.31C180.843 264.248 172.811 262.764 164.703 261.869C155.947 260.928 147.105 260.844 138.333 260.759C133.35 260.69 128.381 260.649 123.425 260.426C119.043 260.222 113.839 260.409 110.193 257.598C109.838 257.323 109.44 257.988 109.696 258.209L109.724 258.194Z" fill="#E8E3DB"/>
<path d="M182.282 265.447C173.795 260.266 166.952 252.782 162.55 243.866C158.561 235.756 156.12 227.02 152.982 218.575L152.007 219.08C156.58 225.33 161.653 231.199 167.176 236.629C172.525 241.702 178.192 246.434 183.832 251.181C194.113 260.355 204.929 268.911 216.223 276.805C216.424 276.93 216.667 276.971 216.897 276.918C217.128 276.864 217.328 276.722 217.454 276.521C217.579 276.32 217.62 276.077 217.567 275.846C217.513 275.615 217.371 275.415 217.17 275.29C205.836 267.416 194.974 258.884 184.639 249.738C178.803 244.952 173.064 240.151 167.758 235.161C162.366 229.969 157.361 224.389 152.784 218.465C152.481 217.88 151.635 218.566 151.809 218.97C155.331 227.747 157.582 236.935 161.786 245.392C166.089 254.2 173.23 261.305 182.059 265.563L182.254 265.462L182.282 265.447Z" fill="#E8E3DB"/>
<path d="M253.773 119.825C246.408 140.601 235.303 159.818 228.869 180.89C223.213 197.93 220.944 215.911 222.189 233.821C223.2 244.6 225.752 255.178 229.769 265.232C230.317 266.29 231.835 265.469 231.412 264.38C224.951 246.881 222.706 228.105 224.859 209.575C227.503 190.525 232.94 171.967 240.994 154.502C246.251 143.283 250.915 131.796 254.969 120.088C255.184 119.411 254.141 119.104 253.912 119.752L253.773 119.825Z" fill="#E8E3DB"/>
<path d="M253.147 122.232C243.113 134.316 234.822 147.746 228.515 162.131C222.959 175.891 220.235 190.631 220.505 205.468C220.671 215.065 221.566 224.637 222.236 234.184C222.279 235.222 223.922 235.324 223.837 234.273C222.741 218.515 221.053 202.57 223.494 186.817C225.97 171.847 231.331 157.5 239.279 144.575C243.803 137.073 248.878 129.885 253.628 122.547C253.848 122.222 253.325 121.962 253.147 122.232Z" fill="#E8E3DB"/>
<path d="M254.139 119.987C252.652 134.716 247.504 148.584 241.916 162.08C236.077 176.085 231.137 190.447 227.123 205.08C226.094 209.005 225.169 212.948 224.346 216.908C223.307 221.15 222.488 225.443 221.892 229.77C221.779 230.711 223.313 231.012 223.538 230.083C224.522 226.252 224.97 222.274 225.728 218.348C226.485 214.421 227.17 211.24 228.031 207.719C229.909 199.679 232.423 191.981 235.02 184.24C237.349 177.344 239.721 170.532 242.375 163.786C245.029 157.04 247.462 150.55 249.767 143.949C252.355 136.166 253.965 128.092 254.559 119.911C254.559 119.911 254.415 119.633 254.308 120.041L254.139 119.987Z" fill="#E8E3DB"/>
<path d="M253.844 119.962C254.151 127.319 253.488 134.685 251.87 141.869C250.536 147.683 248.696 153.407 247.08 159.156C245.026 166.957 242.555 174.643 239.678 182.179C236.9 189.095 233.303 195.658 230.483 202.561C228.982 206.483 227.356 210.576 225.885 214.625C224.408 218.297 223.265 222.094 222.469 225.971C222.418 226.351 223.052 226.552 223.216 226.185C224.635 223.099 225.86 219.927 226.883 216.688C228.204 212.964 229.512 209.212 230.933 205.543C233.693 198.389 237.246 191.672 240.118 184.53C243.06 177.025 245.564 169.356 247.62 161.562C249.261 155.659 251.128 149.78 252.558 143.809C254.47 136.052 255.221 128.053 254.786 120.075C254.735 119.5 253.85 119.429 253.873 120.018L253.844 119.962Z" fill="#E8E3DB"/>
<path d="M222.915 225.672C218.835 212.272 214.085 199.079 212.845 184.951C212.251 177.803 212.232 170.604 212.269 163.376C212.305 156.148 212.154 149.513 212.673 142.601C213.267 134.717 214.43 126.887 216.154 119.171L215.281 118.987C215.602 124.722 215.657 130.489 216.062 136.251C216.454 141.854 217.389 147.405 218.854 152.827C220.479 157.765 221.536 162.872 222.005 168.05C222.195 173.464 221.821 178.746 222.209 184.27C222.251 185.237 223.782 185.328 223.74 184.36C223.425 179.046 223.729 173.765 223.554 168.449C223.232 163.512 222.285 158.635 220.736 153.936C219.077 148.507 217.939 142.931 217.34 137.285C216.776 131.217 216.38 125.132 216.068 119.074C216.033 118.598 215.315 118.369 215.196 118.89C212.189 132.565 210.713 146.533 210.797 160.534C210.663 174.738 210.856 189.161 214.717 203.027C216.858 210.758 219.469 218.35 222.537 225.762C222.667 226.012 223.1 225.894 222.983 225.531L222.915 225.672Z" fill="#E8E3DB"/>
<path d="M54.4206 167.334C61.8914 174.725 70.3507 181.046 79.5569 186.115C87.7928 190.385 96.4187 193.856 105.316 196.481C123.22 202.119 141.821 205.557 159.64 211.168C164.855 212.777 170.031 214.583 175.098 216.588C180.164 218.592 185.016 221.273 190.125 223.291C191.184 223.697 191.821 222.13 190.942 221.525C186.955 218.9 182.682 216.739 178.206 215.084C173.76 213.323 169.357 211.646 165.027 210.108C155.976 207.165 146.736 204.813 137.512 202.56C119.754 198.225 101.527 194.487 84.8975 186.67C73.9988 181.643 63.8988 175.041 54.9221 167.074C54.7633 166.768 54.2081 167.196 54.4927 167.473L54.4206 167.334Z" fill="#E8E3DB"/>
<path d="M53.8636 167.623C58.3029 173.323 63.3616 178.512 68.9467 183.096C73.8223 187.307 79.228 190.862 85.0261 193.671C96.7831 198.894 109.268 202.293 122.05 203.75C130.095 204.953 138.276 205.945 146.263 207.037C147.599 207.229 147.695 205.164 146.387 204.958C120.542 201.315 93.1478 200.277 71.9548 183.445C65.7213 178.423 59.9282 172.876 54.6386 166.868C54.2251 166.41 53.6028 167.051 53.9606 167.537L53.8636 167.623Z" fill="#E8E3DB"/>
<path d="M53.7612 167.356C59.9748 170.074 66.6799 171.83 73.0402 174.013C79.2754 176.135 85.3794 178.625 91.3203 181.469C103.035 187.097 114.695 192.894 126.505 198.296C133.153 201.391 139.956 204.142 146.887 206.536C148.029 206.899 148.565 205.137 147.451 204.76C135.123 200.38 123.083 195.228 111.403 189.335C99.8964 183.342 88.0598 178.006 75.9497 173.353C68.7533 170.727 61.4176 168.499 53.976 166.68C53.8863 166.651 53.7889 166.66 53.7053 166.703C53.6217 166.746 53.5588 166.821 53.5303 166.911C53.5018 167 53.5101 167.098 53.5534 167.181C53.5967 167.265 53.6715 167.328 53.7612 167.356Z" fill="#E8E3DB"/>
<path d="M54.1432 167.479C60.7844 168.703 67.5023 169.393 74.1167 170.702C80.7507 171.998 87.2747 173.804 93.6304 176.105C100.005 178.401 106.131 181.337 111.915 184.867C118.499 188.912 124.627 193.512 131.375 197.26C138.671 201.453 146.26 205.115 154.083 208.217C154.986 208.527 155.667 207.114 154.791 206.65C148.031 203.084 140.833 200.17 133.933 196.606C127.034 193.042 120.864 188.499 114.336 184.355C102.793 177.271 90.0815 172.298 76.7963 169.667C69.3937 167.943 61.8213 167.054 54.2207 167.015C54.0257 167.116 53.876 167.441 54.1432 167.479Z" fill="#E8E3DB"/>
<path d="M162.202 211.68C158.866 210.863 155.483 210.255 152.072 209.86C148.782 209.624 145.477 209.737 142.211 210.198C135.291 211.027 128.597 212.975 121.811 214.406C108.832 217.358 95.5097 218.516 82.216 217.85C74.7655 217.386 67.3992 216.016 60.2795 213.772L59.9808 215.446C73.9881 216.565 87.0963 210.763 100.698 208.028C115.186 205.414 130.004 205.173 144.57 207.315C145.666 207.454 145.74 205.755 144.671 205.602C130.374 203.519 115.837 203.704 101.597 206.149C87.7687 208.719 74.3291 214.904 60.0402 213.719C59.9303 213.7 59.8176 213.702 59.7085 213.726C59.5994 213.75 59.4961 213.795 59.4045 213.859C59.3129 213.923 59.2348 214.004 59.1746 214.098C59.1144 214.192 59.0733 214.297 59.0537 214.407C59.0341 214.517 59.0363 214.63 59.0603 214.739C59.0842 214.848 59.1294 214.951 59.1933 215.043C59.3222 215.228 59.5194 215.354 59.7414 215.393C72.1386 219.087 85.1265 220.382 98.009 219.209C104.35 218.683 110.654 217.777 116.887 216.497C123.605 215.208 130.216 213.373 136.919 212.056C140.8 211.223 144.764 210.841 148.733 210.918C153.124 211.177 157.49 211.762 161.795 212.668C162.499 212.798 162.89 211.712 162.144 211.568L162.202 211.68Z" fill="#E8E3DB"/>
<path d="M195.046 58.3702C193.726 66.8768 191.725 75.2635 189.062 83.4494C186.426 91.4581 183.042 99.1127 179.729 106.907C173.451 121.916 169.208 137.698 167.112 153.833C165.76 163.47 165.008 173.183 164.863 182.914C164.879 183.094 164.96 183.263 165.091 183.388C165.221 183.513 165.393 183.588 165.574 183.597C165.755 183.606 165.933 183.55 166.076 183.439C166.218 183.328 166.316 183.168 166.351 182.991C167.028 166.094 169.215 149.291 172.887 132.784C176.976 116.531 183.915 101.275 189.245 85.4395C192.201 76.6687 194.263 67.6212 195.398 58.4353C195.398 58.4353 195.253 58.1567 195.147 58.5652L195.046 58.3702Z" fill="#E8E3DB"/>
<path d="M194.436 57.9455C192.818 63.4838 191.466 69.0604 189.327 74.4799C187.187 79.8994 184.708 85.1413 182.315 90.4802C177.218 100.975 173.468 112.071 171.154 123.506C169.945 130.243 169.358 137.077 169.398 143.922C169.385 144.989 171.029 145.091 171.041 144.025C170.968 131.842 172.894 119.73 176.744 108.172C180.377 97.244 185.972 87.172 190.267 76.4311C192.998 70.6473 194.718 64.4378 195.35 58.0728C195.34 57.9562 195.292 57.8463 195.213 57.7599C195.134 57.6736 195.028 57.6156 194.913 57.5949C194.798 57.5742 194.679 57.592 194.575 57.6454C194.471 57.6989 194.388 57.7851 194.337 57.8908L194.436 57.9455Z" fill="#E8E3DB"/>
<path d="M194.844 59.9599C193.818 67.735 192.85 75.5515 191.627 83.2873C190.686 90.7995 188.788 98.1603 185.977 105.19C183.072 111.996 179.233 118.366 176.271 125.13C174.803 128.435 173.462 131.78 172.247 135.166C170.813 138.741 169.66 142.421 168.798 146.175C168.748 146.392 168.783 146.62 168.894 146.812C169.006 147.005 169.186 147.148 169.399 147.212C169.612 147.277 169.842 147.259 170.041 147.161C170.241 147.063 170.396 146.892 170.476 146.685C171.884 143.128 172.841 139.381 174.15 135.77C175.46 132.159 176.938 128.601 178.516 125.098C181.494 118.432 185.161 111.868 187.998 105.203C190.621 98.4613 192.359 91.408 193.17 84.2195C194.291 76.2185 195.158 68.207 195.534 60.1324C195.542 59.7394 194.981 59.7474 194.916 60.0992L194.844 59.9599Z" fill="#E8E3DB"/>
<path d="M194.462 58.8134C189.188 71.6875 178.421 81.2582 172.511 93.8606C167.33 105.81 165.142 118.842 166.137 131.828C166.497 139.345 168.403 146.98 167.543 154.528C167.483 155.23 168.523 155.398 168.753 154.749C170.712 148.504 168.575 141.378 168.119 135.041C167.626 128.483 167.762 121.893 168.525 115.361C169.26 108.777 170.901 102.326 173.401 96.1914C176.235 89.8642 179.789 83.8848 183.993 78.3716C188.641 72.4369 192.369 65.836 195.051 58.791C195.051 58.791 194.864 58.4288 194.685 58.698L194.462 58.8134Z" fill="#E8E3DB"/>
<path d="M166.9 131.185C166.592 124.792 165.206 118.497 162.802 112.565C160.343 106.454 157.228 100.647 154.936 94.4487C152.527 88.2499 151.609 81.5715 152.257 74.9527C153.115 68.6991 154.534 62.5354 156.498 56.5363L155.133 56.2892C155.662 65.5122 157.359 74.631 160.181 83.4276C163.029 92.1997 166.712 100.469 167.869 109.728C167.966 110.597 169.424 110.478 169.397 109.608C169.129 100.701 164.842 92.3562 161.987 84.1174C158.85 75.1816 156.978 65.8511 156.426 56.397C156.401 55.6676 155.316 55.3463 155.061 56.1499C153.064 62.0675 151.579 68.1453 150.62 74.3166C149.831 80.5301 150.444 86.8415 152.414 92.7868C154.496 98.9878 157.568 104.782 160.208 110.764C163.129 117.307 165.141 124.219 166.186 131.308C166.33 131.586 166.793 131.594 166.76 131.257L166.9 131.185Z" fill="#E8E3DB"/>
<path d="M82.1724 59.1734C88.3396 67.4629 96.8803 73.9222 104.198 81.2269C108.228 85.3231 111.663 89.975 115.527 94.2279C120.987 99.6947 125.725 105.838 129.626 112.508C134.189 120.289 139.343 127.707 145.044 134.698C145.462 135.506 146.64 134.437 146.11 133.686C140.732 127.16 135.857 120.235 131.527 112.972C128.031 106.556 123.683 100.642 118.603 95.3907C114.469 90.8891 110.736 86.0028 106.533 81.5724C102.686 77.5578 98.5908 73.8135 94.608 70.0816C90.6251 66.3496 86.3349 62.7063 82.6276 58.6196C82.4689 58.3131 82.0395 58.7122 82.254 58.9898L82.1724 59.1734Z" fill="#E8E3DB"/>
<path d="M81.8184 58.8988C91.0072 64.5629 100.292 70.0713 109.1 76.5688C113.7 79.8397 117.982 83.5372 121.888 87.6122C127.192 93.7336 131.629 100.555 135.075 107.884C137.217 111.848 139.122 115.935 140.78 120.123C142.53 124.729 143.622 129.429 144.938 134.153C144.976 134.326 145.081 134.476 145.23 134.572C145.379 134.667 145.559 134.699 145.732 134.661C145.904 134.623 146.055 134.519 146.15 134.37C146.245 134.221 146.277 134.041 146.239 133.868C144.624 125.755 141.91 117.9 138.172 110.52C134.794 103.094 130.578 96.0774 125.608 89.6078C117.395 80.5763 107.82 72.8864 97.2283 66.8173C92.3952 63.623 87.3151 60.8192 82.0363 58.4326C81.7681 58.3242 81.5348 58.6924 81.8184 58.8988Z" fill="#E8E3DB"/>
<path d="M82.3366 59.831C84.7119 63.0636 86.7375 66.5391 88.3792 70.1992C89.6493 72.6509 91.101 75.0439 92.6084 77.4079C95.9964 82.7201 99.6908 87.8735 103.552 92.9404C111.121 103.044 119.603 112.431 128.892 120.981C132.02 123.813 135.134 126.687 138.082 129.718C141.031 132.749 143.659 135.981 146.439 139.029C146.551 139.154 146.708 139.229 146.875 139.239C147.042 139.248 147.206 139.191 147.331 139.079C147.456 138.968 147.532 138.811 147.541 138.644C147.551 138.476 147.493 138.312 147.382 138.187C138.71 127.52 127.84 119.087 118.616 108.989C109.684 99.2383 101.543 88.7919 94.2692 77.749C92.5473 75.1073 91.0091 72.5472 89.5111 69.8603C87.6978 66.1273 85.4072 62.6458 82.6968 59.503C82.6589 59.4686 82.6113 59.4466 82.5605 59.44C82.5097 59.4333 82.4581 59.4424 82.4126 59.466C82.3671 59.4895 82.3299 59.5265 82.306 59.5718C82.2821 59.6171 82.2726 59.6687 82.2789 59.7195L82.3366 59.831Z" fill="#E8E3DB"/>
<path d="M88.0532 66.0244C91.9266 72.8874 97.9689 78.3439 102.814 84.4913C106.704 89.5437 110.36 94.9643 114.251 100.087C118.512 105.979 123.213 111.541 128.312 116.725C131.101 119.45 134.098 121.961 136.957 124.615C139.834 127.383 142.538 130.324 145.054 133.424C145.154 133.521 145.284 133.58 145.423 133.591C145.561 133.602 145.699 133.564 145.813 133.484C145.926 133.404 146.008 133.287 146.045 133.153C146.082 133.019 146.07 132.877 146.013 132.75C143.011 126.956 137.209 122.576 132.404 118.281C127.132 113.358 122.294 107.991 117.944 102.237C113.498 96.5192 109.106 90.7021 104.868 84.8408C102.505 81.7835 99.9759 78.8589 97.291 76.0803C94.044 72.9061 91.0136 69.5177 88.2204 65.9378L88.0532 66.0244Z" fill="#E8E3DB"/>
<path d="M141.263 132.243C136.509 127.981 130.964 124.695 124.944 122.57C118.51 119.914 111.921 117.651 105.214 115.794C98.2398 113.931 91.3878 111.639 84.6968 108.931C78.1654 105.705 72.2879 101.298 67.3617 95.9315L66.4648 96.9969C70.9847 99.7436 75.7878 101.994 80.7909 103.71C86.0937 105.262 91.5239 106.339 97.0175 106.93C108.087 108.359 118.544 112.824 127.234 119.828C128.029 120.477 129.206 119.407 128.411 118.759C120.389 112.173 110.804 107.767 100.582 105.966C94.631 104.915 88.6043 104.468 82.7575 102.868C77.2509 101.366 72.0263 98.9765 67.2896 95.7922C66.6233 95.3246 65.907 96.2611 66.4205 96.8432C70.7901 102.044 76.1277 106.347 82.1371 109.515C88.6138 112.405 95.3115 114.773 102.166 116.595C109.03 118.658 115.934 120.594 122.609 123.178C125.913 124.414 129.127 125.878 132.228 127.559C135.142 129.159 137.837 131.156 140.765 132.784C141.09 132.933 141.406 132.452 141.207 132.272L141.263 132.243Z" fill="#E8E3DB"/>
<path d="M148.856 204.812C145.74 198.717 142.166 192.866 138.164 187.311C134.461 181.843 130.218 176.76 125.499 172.14C120.863 167.828 115.307 165.017 110.327 161.201C105.27 156.799 100.852 151.714 97.1995 146.093C96.9686 145.647 96.1328 146.08 96.2801 146.569C99.7931 158.795 106.705 169.772 116.212 178.224C118.515 180.282 120.983 182.113 123.424 184.028C126.125 186.345 128.579 188.934 130.748 191.754C135.004 196.622 139.976 200.815 145.493 204.187C146.13 204.599 146.607 203.609 146.097 203.238C140.727 199.416 135.753 195.068 131.246 190.259C129.47 187.862 127.459 185.649 125.243 183.651C122.8 181.596 120.149 179.753 117.72 177.655C107.831 169.565 100.696 158.605 97.3005 146.288L96.2811 146.64C99.4682 152.216 103.556 157.226 108.38 161.468C113.251 165.482 119.084 168.078 123.831 172.263C134.092 181.293 141.285 193.54 148.271 205.115C148.332 205.18 148.412 205.223 148.499 205.238C148.587 205.252 148.676 205.238 148.755 205.198C148.834 205.157 148.897 205.092 148.935 205.012C148.974 204.932 148.985 204.841 148.967 204.754L148.856 204.812Z" fill="#E8E3DB"/>
<path d="M338.549 328.561C326.186 303.943 320.908 276.373 323.305 248.929L321.774 248.839C321.486 254.218 324.263 259.034 326.06 263.934C328.378 269.904 330.185 276.061 331.46 282.338C333.653 293.393 333.729 304.591 335.445 315.61C336.072 321.317 337.745 326.858 340.38 331.959C340.48 332.151 340.652 332.295 340.858 332.361C341.064 332.426 341.288 332.407 341.48 332.308C341.672 332.208 341.817 332.036 341.882 331.83C341.948 331.624 341.929 331.4 341.829 331.208C336.126 319.109 336.322 305.367 334.846 292.422C333.971 284.785 332.32 277.257 329.921 269.955C328.762 266.421 327.435 262.974 325.983 259.556C324.247 256.293 323.301 252.668 323.221 248.973C323.227 248.872 323.213 248.771 323.18 248.676C323.147 248.581 323.096 248.493 323.029 248.418C322.962 248.343 322.881 248.281 322.79 248.237C322.7 248.194 322.601 248.168 322.501 248.162C322.4 248.156 322.299 248.17 322.204 248.203C322.109 248.236 322.022 248.287 321.946 248.354C321.871 248.421 321.81 248.502 321.766 248.593C321.722 248.683 321.696 248.782 321.69 248.882C320.535 262.504 321.256 276.221 323.832 289.647C326.261 303.44 330.901 316.752 337.574 329.066C337.662 329.168 337.781 329.238 337.913 329.263C338.045 329.289 338.182 329.269 338.301 329.208C338.421 329.146 338.516 329.045 338.571 328.923C338.626 328.8 338.638 328.662 338.605 328.532L338.549 328.561Z" fill="#E8E3DB"/>
</svg>
