<svg width="338" height="384" viewBox="0 0 338 384" fill="none" xmlns="http://www.w3.org/2000/svg">
<path d="M265.674 111.745C235.284 134.969 201.744 153.524 169.449 174.198C153.451 184.237 138.084 195.249 123.436 207.171C108.103 220.074 93.8715 234.23 80.8884 249.495C73.4735 258.121 66.32 266.988 59.3089 275.979C52.2979 284.971 45.0513 293.851 38.8556 303.374C38.1888 304.413 39.4968 305.669 40.3507 304.661C46.8981 296.949 52.8497 288.609 59.0528 280.59C65.2558 272.571 71.6224 264.572 78.1451 256.791C90.957 241.195 104.968 226.623 120.049 213.209C148.632 188.262 181.423 169.035 213.521 148.959C231.788 137.756 249.373 125.478 266.184 112.19C266.551 111.902 266.154 111.281 265.752 111.58L265.674 111.745Z" fill="#E8E3DB"/>
<path d="M38.5407 306.225C44.9669 301.774 52.3646 298.926 60.1161 297.917C68.068 296.755 75.9147 294.962 83.5818 292.555C90.8375 289.9 97.8577 286.642 104.569 282.813C111.455 279.03 118.109 274.838 124.495 270.26C131.716 265.133 138.212 259.056 143.809 252.193C143.935 252.025 143.999 251.819 143.991 251.609C143.983 251.4 143.902 251.199 143.764 251.042C143.625 250.885 143.436 250.78 143.229 250.745C143.022 250.711 142.81 250.749 142.628 250.853C135.699 254.742 128.392 257.915 120.819 260.32C112.822 263.062 104.83 265.836 96.8423 268.641C89.1678 271.374 81.4103 274.038 73.9337 277.326C67.1963 280.197 60.899 284.007 55.2292 288.642C49.0322 293.799 43.1636 299.339 37.6577 305.228C36.7331 306.203 38.2742 307.454 39.2123 306.572C44.4962 301.522 49.5771 296.23 55.1942 291.511C60.8199 286.683 67.0965 282.67 73.8398 279.59C81.1428 276.364 88.573 273.659 96.0379 270.943C103.503 268.226 111.849 265.294 119.803 262.52C128.093 259.903 136.107 256.479 143.73 252.299L142.561 250.994C132.603 263.578 119.142 272.479 105.533 280.357C98.6586 284.378 91.4636 287.823 84.0213 290.657C76.2449 293.163 68.284 295.056 60.2119 296.317C52.293 297.924 44.3672 300.335 38.2858 305.728C37.988 305.991 38.4412 306.495 38.7626 306.243L38.5407 306.225Z" fill="#E8E3DB"/>
<path d="M54.1211 193.329C56.6599 205.611 58.4694 218.032 59.54 230.528C61.0809 242.96 60.6402 255.558 58.2342 267.852C56.4673 274.81 53.8426 281.521 50.4203 287.831C50.3177 288.038 50.2952 288.276 50.357 288.498C50.4188 288.721 50.5606 288.913 50.7552 289.038C50.9499 289.162 51.1836 289.211 51.4117 289.174C51.6398 289.137 51.8462 289.017 51.9914 288.837C55.6846 283.741 58.3149 277.954 59.7256 271.821C61.337 265.557 62.212 259.126 62.3328 252.659C62.4193 239.85 61.3362 227.06 59.0969 214.448C58.0202 207.302 56.5687 200.217 54.7485 193.223C54.6719 192.898 54.1363 192.933 54.1682 193.352L54.1211 193.329Z" fill="#E8E3DB"/>
<path d="M73.6568 199.95C71.1414 208.711 68.8951 217.512 66.5904 226.315C65.4703 230.394 64.1233 234.407 62.5556 238.336C61.427 241.32 59.4292 245.71 60.9263 248.815C60.9619 248.919 61.0277 249.009 61.1153 249.075C61.2028 249.141 61.308 249.179 61.4173 249.184C61.5265 249.189 61.6349 249.162 61.7284 249.105C61.8219 249.048 61.8961 248.964 61.9416 248.865C62.5172 247.183 62.9425 245.454 63.2125 243.697C63.7411 241.755 64.3956 239.849 65.1719 237.991C66.6959 234.211 67.9266 230.32 68.853 226.351C70.8092 217.613 72.7183 208.854 74.3831 200.122C74.4028 200.024 74.3828 199.923 74.3275 199.84C74.2723 199.757 74.1863 199.699 74.0885 199.679C73.9907 199.66 73.8891 199.68 73.806 199.735C73.723 199.79 73.6653 199.876 73.6456 199.974L73.6568 199.95Z" fill="#E8E3DB"/>
<path d="M179.822 234.323C168.673 229.604 156.849 226.676 144.786 225.649C133.081 224.534 120.435 224.185 109.119 227.842C102.849 229.474 97.0419 232.533 92.1496 236.779C90.9955 237.934 92.9404 239.55 94.0833 238.419C98.3927 234.792 103.426 232.126 108.848 230.599C114.314 228.764 120.011 227.71 125.772 227.469C137.324 226.722 148.924 227.451 160.292 229.636C166.805 230.957 173.193 232.833 179.386 235.241C179.904 235.487 180.296 234.663 179.767 234.441L179.822 234.323Z" fill="#E8E3DB"/>
<path d="M167.58 209.002C148.48 210.638 129.039 213.784 111.989 222.769C109.67 223.947 107.399 225.264 105.212 226.65C102.934 227.914 100.85 229.499 99.0237 231.357C98.4652 231.986 99.1781 233.219 100.02 232.783C102.559 231.507 104.758 229.55 107.176 228.044C109.594 226.537 112.129 225.087 114.703 223.799C119.982 221.163 125.456 218.939 131.077 217.147C143.094 213.632 155.375 211.098 167.801 209.569C167.867 209.546 167.924 209.501 167.962 209.442C167.999 209.383 168.016 209.313 168.01 209.243C168.003 209.173 167.973 209.108 167.924 209.057C167.876 209.007 167.812 208.974 167.742 208.964L167.58 209.002Z" fill="#E8E3DB"/>
<path d="M109.666 219.821C117.743 211.877 125.238 203.364 132.094 194.346C138.68 186.016 144.231 176.919 148.625 167.252C154.766 152.692 159.64 137.63 163.194 122.232C165.384 113.974 166.974 105.568 167.953 97.0805C168.038 96.1111 166.662 95.5444 166.251 96.5321C159.817 111.54 151.889 125.925 144.148 140.283C135.259 156.693 126.45 173.054 119.151 190.248C114.534 200.981 110.515 211.961 107.111 223.138C106.786 223.821 108.136 224.259 108.39 223.543C115.191 203.662 123.283 184.247 132.614 165.421C140.216 150.506 148.55 135.996 156.246 121.126C160.296 113.325 164.264 105.457 167.737 97.3531L166.035 96.8047C165.244 104.084 163.957 111.301 162.183 118.405C160.263 126.641 157.992 134.767 155.486 142.839C153.266 150.066 150.846 157.227 147.944 164.188C144.066 173.344 139.102 182.002 133.16 189.975C129.428 195.099 125.494 200.041 121.347 204.824C117.201 209.607 112.877 214.276 108.953 219.136C108.876 219.226 108.838 219.343 108.847 219.46C108.856 219.578 108.911 219.688 109.001 219.765C109.09 219.842 109.207 219.88 109.325 219.871C109.443 219.862 109.552 219.807 109.629 219.717L109.666 219.821Z" fill="#E8E3DB"/>
<path d="M160.581 183.028C167.114 177.474 177.321 179.435 185.008 180.2C193.527 181.158 201.931 182.783 210.366 184.221C218.683 185.752 227.105 186.645 235.558 186.892C243.409 186.987 251.226 185.829 258.713 183.461C266.754 181.057 274.353 177.367 281.214 172.534C281.359 172.442 281.469 172.304 281.524 172.142C281.58 171.98 281.579 171.803 281.522 171.642C281.464 171.48 281.354 171.343 281.208 171.253C281.062 171.162 280.89 171.124 280.72 171.145C266.558 173.076 252.277 170.277 238.098 168.478C231.078 167.503 223.987 167.128 216.903 167.357C209.573 167.882 202.31 169.099 195.209 170.992C186.938 173.037 178.64 175.503 170.549 177.836C169.355 178.163 170.009 179.945 171.18 179.607C185.71 175.744 200.132 170.531 215.241 169.338C229.559 168.231 243.776 171.347 257.958 172.715C265.564 173.63 273.253 173.619 280.856 172.681L280.361 171.292C267.461 180.515 251.993 185.462 236.134 185.435C218.642 185.265 201.662 180.433 184.325 178.722C176.567 177.923 166.509 176.379 160.24 182.289C159.92 182.598 160.421 183.183 160.789 182.896L160.581 183.028Z" fill="#E8E3DB"/>
<path d="M208.945 84.9496C205.866 110.761 196.772 135.489 182.394 157.145C178.287 163.174 173.863 168.981 169.142 174.542C169.033 174.716 168.99 174.924 169.022 175.127C169.054 175.331 169.157 175.516 169.313 175.65C169.47 175.783 169.669 175.857 169.875 175.856C170.081 175.855 170.279 175.781 170.435 175.646C179.264 165.968 186.711 155.113 192.562 143.391C198.401 131.905 202.874 119.773 205.889 107.245C207.626 99.9497 208.832 92.5372 209.496 85.0667C209.523 84.7047 208.985 84.6224 208.934 84.9732L208.945 84.9496Z" fill="#E8E3DB"/>
<path d="M188.11 82.0379C189.525 90.2987 192.794 97.9973 195.033 106.043C196.274 110.183 196.995 114.46 197.18 118.778C197.248 121.329 197.116 123.881 196.787 126.411C196.363 128.737 196.076 131.087 195.927 133.447C195.938 133.972 196.828 134.163 197.016 133.647C197.651 131.361 198.048 129.017 198.203 126.65C198.509 124.304 198.668 121.941 198.677 119.575C198.589 115.366 197.956 111.185 196.792 107.138C194.464 98.6746 190.697 90.6247 188.878 81.9989C188.788 81.581 188.101 81.63 188.18 82.0714L188.11 82.0379Z" fill="#E8E3DB"/>
<path d="M220.385 83.8899C217.356 100.614 209.332 116.028 197.37 128.102C196.832 128.626 197.711 129.389 198.225 128.854C210.499 116.787 218.448 101.008 220.841 83.9623C220.84 83.9072 220.82 83.8543 220.783 83.8128C220.747 83.7712 220.698 83.7438 220.643 83.7351C220.589 83.7265 220.533 83.7373 220.486 83.7656C220.439 83.7939 220.403 83.8379 220.385 83.8899Z" fill="#E8E3DB"/>
<path d="M306.611 138.255C301.328 136.376 295.948 134.785 290.494 133.487C285.248 132.378 279.898 131.83 274.535 131.852C268.95 131.826 263.328 132.301 257.798 132.705C252.193 133.124 246.621 133.899 241.115 135.026C235.312 136.001 229.692 137.857 224.449 140.529C224.011 140.783 224.408 141.405 224.849 141.267C229.789 139.978 234.517 137.981 239.563 136.713C244.911 135.498 250.336 134.652 255.799 134.18C266.453 132.748 277.25 132.732 287.908 134.134C294.14 135.293 300.279 136.907 306.275 138.961C306.723 139.174 307.115 138.408 306.622 138.231L306.611 138.255Z" fill="#E8E3DB"/>
<path d="M292.348 153.525C286.051 148.694 279.327 144.448 272.258 140.84C265.705 137.382 258.124 133.782 250.561 133.422C249.686 133.382 249.397 134.658 250.322 134.838C254.109 135.43 257.843 136.325 261.487 137.514C265.077 138.844 268.582 140.392 271.981 142.151C278.944 145.718 285.43 149.923 292.268 153.632L292.358 153.443L292.348 153.525Z" fill="#E8E3DB"/>
<path d="M225.456 139.564C231.548 135.57 237.327 131.119 242.744 126.248C246.654 122.533 250.094 118.352 252.984 113.798C259.407 103.979 264.46 93.2784 269.894 82.9897C272.442 77.8622 275.387 72.9414 278.701 68.272C278.807 68.1279 278.861 67.9516 278.853 67.7726C278.845 67.5936 278.776 67.4227 278.657 67.2885C278.539 67.1543 278.377 67.0651 278.2 67.0356C278.024 67.0062 277.842 67.0383 277.686 67.1267C274.395 69.3733 271.281 71.8687 268.371 74.5911C264.157 78.3609 260.078 82.4545 256.163 86.6263C247.289 95.7685 239.549 105.947 233.111 116.942C229.572 123.964 226.753 131.325 224.696 138.915C224.383 139.574 225.513 140.111 225.732 139.407C227.627 132.614 230.061 125.983 233.013 119.578C235.946 114.167 239.353 109.026 243.194 104.215C250.655 94.4999 258.927 85.4353 267.921 77.1186C271.222 73.9297 274.777 71.0149 278.552 68.4033L277.537 67.258C271.248 75.6403 266.854 85.4415 262.099 94.7254C256.974 104.728 251.75 115.059 244.093 123.224C238.215 128.987 231.859 134.241 225.093 138.93C225.048 138.962 225.009 139.002 224.979 139.048C224.949 139.095 224.929 139.147 224.919 139.201C224.91 139.255 224.911 139.311 224.923 139.365C224.934 139.419 224.957 139.47 224.988 139.515C225.02 139.56 225.06 139.599 225.106 139.629C225.153 139.659 225.205 139.679 225.259 139.689C225.313 139.698 225.369 139.697 225.423 139.686C225.477 139.674 225.528 139.651 225.573 139.62L225.456 139.564Z" fill="#E8E3DB"/>
<path d="M286.144 94.401C281.43 98.251 276.761 102.007 272.07 105.81C269.592 107.807 267.256 109.871 264.684 111.824C262.431 113.378 260.364 115.184 258.521 117.207C258.462 117.278 258.431 117.368 258.432 117.46C258.433 117.552 258.466 117.64 258.526 117.71C258.586 117.78 258.669 117.826 258.759 117.841C258.85 117.856 258.943 117.839 259.022 117.792C261.328 116.252 263.489 114.507 265.48 112.577C267.922 110.534 270.317 108.468 272.865 106.505C277.534 102.749 282.073 98.9025 286.517 94.9531C286.826 94.667 286.488 94.1026 286.144 94.401Z" fill="#E8E3DB"/>
<path d="M306.251 98.7262C298.487 100.251 290.863 102.422 283.461 105.217C279.517 106.777 275.679 108.418 271.855 110.151C267.763 111.807 263.811 113.79 260.037 116.081C259.945 116.129 259.876 116.212 259.846 116.311C259.815 116.41 259.825 116.517 259.873 116.609C259.921 116.7 260.004 116.769 260.103 116.8C260.202 116.831 260.309 116.821 260.401 116.773C264.451 115.291 268.262 112.917 272.178 111.112C276.094 109.307 279.815 107.669 283.713 106.144C291.052 103.278 298.603 100.988 306.297 99.2965C306.553 99.2447 306.521 98.8256 306.195 98.8439L306.251 98.7262Z" fill="#E8E3DB"/>
<path d="M73.7956 199.9C72.7819 199.807 71.8176 199.42 71.0215 198.786C70.2255 198.151 69.6326 197.298 69.316 196.33C68.95 195.347 68.8888 194.277 69.1406 193.259C69.3924 192.241 69.9455 191.322 70.7275 190.624C71.5062 190.018 72.4299 189.626 73.4067 189.488C74.3836 189.349 75.3797 189.469 76.2961 189.834C77.1219 190.208 77.8176 190.82 78.2943 191.591C78.7709 192.362 79.007 193.258 78.9724 194.164C78.9997 195.373 78.5903 196.552 77.819 197.484C77.0478 198.416 75.9665 199.039 74.7732 199.239C73.9015 199.373 74.0576 200.746 74.9058 200.6C76.2506 200.404 77.493 199.77 78.4407 198.796C79.3885 197.822 79.9885 196.562 80.1479 195.212C80.3249 194.063 80.168 192.886 79.6958 191.823C79.2237 190.76 78.4561 189.855 77.4845 189.216C76.4487 188.636 75.2748 188.349 74.0884 188.385C72.9021 188.422 71.7479 188.78 70.7497 189.422C69.7081 190.085 68.9034 191.061 68.4512 192.21C67.999 193.358 67.9226 194.621 68.2329 195.816C68.4869 197.08 69.13 198.233 70.0721 199.113C70.5586 199.574 71.1386 199.924 71.7727 200.141C72.4068 200.357 73.0801 200.435 73.7468 200.368C73.8025 200.371 73.8574 200.352 73.8993 200.315C73.9412 200.278 73.9667 200.226 73.9702 200.171C73.9737 200.115 73.9549 200.06 73.918 200.018C73.881 199.976 73.829 199.951 73.7733 199.947L73.7956 199.9Z" fill="#E8E3DB"/>
<path d="M167.718 208.894C167.766 207.895 168.1 206.931 168.681 206.118C169.262 205.304 170.065 204.674 170.994 204.304C171.949 203.878 173.009 203.75 174.038 203.935C175.067 204.12 176.016 204.609 176.763 205.341C177.441 206.093 177.904 207.014 178.103 208.007C178.302 209.001 178.229 210.029 177.892 210.984C177.549 211.825 176.963 212.544 176.208 213.049C175.454 213.555 174.567 213.824 173.659 213.822C172.454 213.891 171.265 213.527 170.305 212.796C169.345 212.065 168.678 211.015 168.425 209.836C168.279 208.987 166.894 209.109 167.063 209.968C167.31 211.2 167.919 212.331 168.813 213.215C169.706 214.098 170.844 214.695 172.079 214.928C173.314 215.161 174.59 215.019 175.744 214.522C176.898 214.025 177.878 213.194 178.556 212.137C179.102 211.071 179.346 209.877 179.262 208.682C179.179 207.488 178.77 206.34 178.081 205.361C177.358 204.36 176.339 203.611 175.168 203.221C173.997 202.83 172.733 202.818 171.554 203.185C170.319 203.504 169.213 204.199 168.388 205.173C167.955 205.671 167.634 206.257 167.447 206.89C167.261 207.524 167.214 208.19 167.308 208.844C167.23 209.009 167.732 209.045 167.729 208.87L167.718 208.894Z" fill="#E8E3DB"/>
<path d="M208.587 85.1563C207.588 85.2901 206.571 85.131 205.66 84.6984C204.749 84.2657 203.983 83.5781 203.454 82.7188C202.857 81.8698 202.526 80.8615 202.505 79.8233C202.484 78.7851 202.773 77.7643 203.336 76.8917C203.949 76.0976 204.764 75.4833 205.696 75.1135C206.628 74.7438 207.643 74.6321 208.633 74.7904C209.5 74.9628 210.297 75.386 210.925 76.0075C211.554 76.629 211.985 77.4215 212.167 78.2864C212.497 79.4627 212.391 80.7189 211.867 81.8226C211.342 82.9263 210.436 83.803 209.316 84.2904C208.506 84.5983 208.952 85.9067 209.773 85.5752C211.043 85.0636 212.106 84.1429 212.794 82.959C213.482 81.7751 213.755 80.3956 213.57 79.039C213.466 77.9077 213.046 76.8284 212.358 75.9248C211.669 75.0212 210.74 74.3298 209.677 73.9298C208.527 73.5872 207.304 73.5663 206.143 73.8694C204.982 74.1725 203.926 74.7881 203.089 75.6492C202.223 76.5549 201.669 77.7144 201.51 78.9577C201.351 80.201 201.594 81.4627 202.204 82.5577C202.76 83.7067 203.665 84.6511 204.789 85.2567C205.371 85.5767 206.015 85.7685 206.678 85.8194C207.34 85.8703 208.006 85.779 208.63 85.5518C208.673 85.5303 208.706 85.4951 208.726 85.4518C208.746 85.4086 208.75 85.36 208.738 85.314C208.726 85.268 208.699 85.2275 208.661 85.199C208.623 85.1705 208.576 85.1559 208.529 85.1575L208.587 85.1563Z" fill="#E8E3DB"/>
<path d="M305.889 98.699C305.836 97.6945 306.065 96.6953 306.55 95.814C307.034 94.9327 307.756 94.2045 308.633 93.7115C309.549 93.1727 310.609 92.9271 311.669 93.0077C312.729 93.0882 313.74 93.4912 314.565 94.1623C315.306 94.8464 315.852 95.7164 316.144 96.6822C316.436 97.648 316.465 98.6744 316.227 99.655C315.957 100.504 315.449 101.257 314.765 101.827C314.08 102.397 313.247 102.759 312.363 102.87C311.173 103.046 309.96 102.805 308.927 102.189C307.895 101.572 307.107 100.618 306.698 99.487C306.436 98.6412 305.151 99.0987 305.413 99.9445C305.836 101.259 306.685 102.395 307.827 103.172C308.968 103.949 310.336 104.323 311.714 104.235C312.85 104.213 313.956 103.874 314.908 103.255C315.86 102.636 316.619 101.762 317.1 100.733C317.527 99.5999 317.632 98.3701 317.402 97.1808C317.172 95.9916 316.616 94.8895 315.797 93.9974C314.953 93.0624 313.832 92.4212 312.598 92.1674C311.364 91.9135 310.081 92.0602 308.936 92.5861C307.754 93.0952 306.749 93.9433 306.048 95.0231C305.681 95.6012 305.448 96.2535 305.365 96.9327C305.282 97.6119 305.351 98.3011 305.568 98.9503C305.631 99.1822 305.944 99.1292 305.951 98.8726L305.889 98.699Z" fill="#E8E3DB"/>
<path d="M286.232 94.095C285.81 93.4729 285.559 92.7503 285.504 92.0001C285.45 91.2499 285.595 90.4987 285.924 89.8224C286.24 89.1246 286.744 88.5288 287.38 88.1019C288.016 87.675 288.759 87.434 289.524 87.4058C290.25 87.4453 290.954 87.6624 291.576 88.0381C292.197 88.4138 292.717 88.9365 293.089 89.5603C293.487 90.2215 293.654 90.9968 293.562 91.7632C293.469 92.5296 293.124 93.2433 292.58 93.7912C291.893 94.4997 290.967 94.928 289.982 94.9932C288.997 95.0584 288.023 94.756 287.248 94.1444C287.111 94.0378 286.939 93.9877 286.766 94.0044C286.594 94.021 286.434 94.1032 286.32 94.2339C286.206 94.3647 286.147 94.5341 286.154 94.7073C286.161 94.8805 286.235 95.0443 286.359 95.1651C287.253 95.9523 288.396 96.3987 289.587 96.4257C290.777 96.4527 291.939 96.0586 292.868 95.3127C293.683 94.6862 294.28 93.8178 294.572 92.8319C294.864 91.8459 294.836 90.7928 294.494 89.8233C294.131 88.9615 293.556 88.2054 292.822 87.6252C292.089 87.0449 291.221 86.6593 290.299 86.504C289.359 86.3955 288.408 86.5629 287.561 86.9859C286.715 87.4089 286.01 88.0691 285.532 88.886C284.978 89.7308 284.697 90.7256 284.727 91.7355C284.766 92.2192 284.87 92.6956 285.036 93.1516C285.253 93.6378 285.586 94.0634 286.005 94.3911C286.043 94.4137 286.087 94.4237 286.131 94.4196C286.175 94.4155 286.217 94.3975 286.25 94.3684C286.283 94.3392 286.306 94.3002 286.316 94.2571C286.325 94.214 286.321 94.169 286.303 94.1286L286.232 94.095Z" fill="#E8E3DB"/>
<path d="M306.777 138.938C307.057 138.172 307.551 137.502 308.2 137.007C308.849 136.513 309.626 136.214 310.439 136.147C311.223 136.059 312.015 136.203 312.717 136.562C313.418 136.921 313.999 137.479 314.386 138.166C314.698 138.838 314.841 139.578 314.801 140.318C314.761 141.059 314.54 141.779 314.158 142.414C313.774 142.996 313.227 143.451 312.585 143.721C311.943 143.992 311.235 144.065 310.551 143.933C309.618 143.761 308.778 143.258 308.187 142.515C307.595 141.773 307.292 140.843 307.332 139.894C307.408 139.007 306.05 138.766 305.975 139.654C305.877 140.762 306.149 141.871 306.748 142.808C307.347 143.745 308.24 144.457 309.287 144.833C310.181 145.14 311.145 145.185 312.064 144.962C312.983 144.739 313.819 144.257 314.473 143.574C315.078 142.877 315.488 142.032 315.66 141.125C315.832 140.218 315.76 139.282 315.452 138.412C315.127 137.475 314.519 136.663 313.711 136.088C312.903 135.513 311.936 135.204 310.945 135.204C309.859 135.153 308.786 135.453 307.884 136.059C307.431 136.36 307.051 136.757 306.77 137.222C306.489 137.688 306.315 138.21 306.26 138.75C306.17 138.939 306.558 139.094 306.637 138.929L306.777 138.938Z" fill="#E8E3DB"/>
<path d="M292.613 153.391C293.13 152.812 293.793 152.384 294.534 152.151C295.274 151.918 296.064 151.89 296.819 152.07C297.55 152.233 298.224 152.592 298.766 153.109C299.309 153.626 299.7 154.281 299.898 155.004C300.02 155.703 299.974 156.421 299.762 157.099C299.551 157.776 299.181 158.394 298.683 158.899C298.133 159.463 297.409 159.825 296.628 159.925C295.847 160.026 295.055 159.859 294.38 159.453C293.509 158.967 292.853 158.169 292.544 157.22C292.235 156.271 292.296 155.24 292.714 154.334C292.791 154.171 292.8 153.985 292.74 153.816C292.68 153.646 292.555 153.508 292.392 153.431C292.23 153.354 292.044 153.344 291.874 153.405C291.705 153.465 291.567 153.59 291.49 153.752C290.984 154.798 290.853 155.986 291.121 157.117C291.388 158.247 292.036 159.251 292.956 159.96C293.769 160.628 294.775 161.017 295.826 161.07C296.877 161.122 297.917 160.834 298.792 160.25C299.523 159.709 300.11 158.997 300.5 158.175C300.89 157.354 301.071 156.449 301.028 155.541C300.927 154.609 300.559 153.726 299.966 152.999C299.374 152.272 298.584 151.733 297.692 151.446C296.723 151.086 295.667 151.038 294.669 151.309C294.183 151.433 293.728 151.657 293.333 151.966C292.938 152.275 292.612 152.663 292.374 153.105C292.273 153.317 292.568 153.485 292.751 153.284L292.613 153.391Z" fill="#E8E3DB"/>
<path d="M187.915 81.6575C186.911 81.795 185.888 81.6366 184.972 81.2017C184.056 80.7668 183.287 80.0743 182.759 79.2089C182.161 78.3599 181.831 77.3516 181.809 76.3134C181.788 75.2752 182.078 74.2544 182.641 73.3818C183.26 72.5901 184.08 71.9787 185.016 71.6112C185.952 71.2437 186.969 71.1333 187.961 71.2917C188.825 71.4702 189.619 71.8955 190.246 72.516C190.874 73.1365 191.307 73.9256 191.495 74.7876C191.826 75.964 191.719 77.2201 191.195 78.3239C190.67 79.4276 189.764 80.3042 188.644 80.7916C187.858 81.1107 188.315 82.3956 189.101 82.0765C190.368 81.5619 191.43 80.6432 192.12 79.4632C192.811 78.2832 193.093 76.908 192.921 75.5515C192.812 74.422 192.39 73.3455 191.702 72.4429C191.014 71.5403 190.088 70.8474 189.028 70.4422C187.878 70.1025 186.656 70.0831 185.496 70.3861C184.335 70.6891 183.279 71.3029 182.441 72.1616C181.575 73.0673 181.021 74.2268 180.862 75.4701C180.702 76.7134 180.945 77.9751 181.555 79.0701C182.116 80.2161 183.019 81.1593 184.14 81.7692C184.721 82.0924 185.366 82.286 186.029 82.337C186.692 82.3879 187.358 82.2949 187.982 82.0642C188.19 81.9901 188.172 81.664 187.904 81.6811L187.915 81.6575Z" fill="#E8E3DB"/>
<path d="M219.969 83.5489C218.985 83.1936 218.127 82.5588 217.499 81.7224C216.871 80.8859 216.501 79.8843 216.434 78.8404C216.348 77.8176 216.565 76.7919 217.059 75.8921C217.553 74.9923 218.302 74.2583 219.211 73.7823C220.047 73.4108 220.959 73.2464 221.872 73.3029C222.784 73.3595 223.67 73.6354 224.453 74.1073C225.25 74.6174 225.867 75.3656 226.215 76.2458C226.564 77.1259 226.627 78.0935 226.395 79.0113C226.138 80.2125 225.465 81.2844 224.494 82.0379C223.524 82.7913 222.319 83.178 221.092 83.1297C220.215 83.0309 219.975 84.3882 220.828 84.4758C222.201 84.606 223.579 84.2784 224.747 83.5441C225.915 82.8097 226.808 81.7098 227.286 80.4156C227.721 79.3085 227.824 78.0986 227.583 76.9337C227.342 75.7688 226.767 74.6993 225.928 73.8558C225.063 73.107 224.018 72.5954 222.896 72.371C221.773 72.1465 220.612 72.2168 219.525 72.5751C218.381 72.9684 217.386 73.706 216.678 74.6869C215.969 75.6677 215.581 76.8437 215.567 78.0536C215.415 79.3906 215.771 80.736 216.564 81.8232C217.357 82.9105 218.529 83.6603 219.849 83.9244C220.037 84.0138 220.192 83.6259 220.016 83.5712L219.969 83.5489Z" fill="#E8E3DB"/>
<path d="M179.877 233.54C180.003 232.076 180.551 230.68 181.454 229.52C182.357 228.36 183.576 227.487 184.964 227.005C186.352 226.523 187.85 226.453 189.277 226.804C190.704 227.155 191.999 227.912 193.006 228.983C193.875 230.08 194.446 231.383 194.664 232.765C194.882 234.148 194.739 235.563 194.25 236.874C193.727 238.067 192.867 239.082 191.775 239.794C190.684 240.505 189.409 240.883 188.106 240.881C186.36 240.944 184.649 240.38 183.282 239.292C181.915 238.203 180.982 236.662 180.652 234.947C180.506 234.099 179.145 234.231 179.29 235.079C179.586 236.867 180.455 238.51 181.765 239.762C183.075 241.013 184.756 241.806 186.555 242.02C188.097 242.262 189.676 242.059 191.107 241.435C192.537 240.811 193.761 239.793 194.633 238.499C195.448 237.094 195.862 235.493 195.829 233.869C195.796 232.245 195.318 230.662 194.446 229.292C193.531 227.869 192.188 226.774 190.61 226.165C189.032 225.555 187.302 225.464 185.668 225.902C183.888 226.208 182.28 227.149 181.142 228.551C180.004 229.953 179.414 231.72 179.48 233.525C179.391 233.713 179.904 233.726 179.877 233.54Z" fill="#E8E3DB"/>
<path d="M53.8692 192.949C52.8488 192.722 51.9163 192.203 51.185 191.457C50.4537 190.71 49.9551 189.767 49.7497 188.742C49.5448 187.731 49.6444 186.682 50.036 185.727C50.4275 184.773 51.0934 183.956 51.9494 183.38C52.7739 182.865 53.7174 182.572 54.6886 182.527C55.6598 182.483 56.626 182.69 57.494 183.128C58.29 183.589 58.9272 184.28 59.3209 185.112C59.7147 185.943 59.8465 186.874 59.6987 187.782C59.5796 188.983 59.0345 190.103 58.1618 190.937C57.2892 191.772 56.1467 192.267 54.941 192.332C54.0557 192.373 54.2589 193.768 55.0735 193.694C56.443 193.621 57.7492 193.094 58.7865 192.197C59.8237 191.3 60.533 190.083 60.8025 188.739C61.0253 187.635 60.9368 186.491 60.5468 185.434C60.1568 184.378 59.4807 183.45 58.594 182.756C57.6454 182.089 56.5367 181.686 55.3814 181.589C54.226 181.492 53.0655 181.703 52.0187 182.202C50.9213 182.735 50.0157 183.595 49.4258 184.663C48.836 185.731 48.5908 186.955 48.7238 188.168C48.8374 189.508 49.3781 190.776 50.2663 191.786C50.6986 192.304 51.2382 192.723 51.848 193.012C52.4577 193.302 53.1231 193.456 53.798 193.463C53.9864 193.552 53.9769 193.086 53.8133 193.066L53.8692 192.949Z" fill="#E8E3DB"/>
</svg>
