<svg width="126" height="36" viewBox="0 0 126 36" fill="none" xmlns="http://www.w3.org/2000/svg">
<path d="M122.219 16.0793L122.154 16.0059H120.308V16.5019H121.015V18.6973L121.089 18.7708H121.438V16.5019H122.154L122.219 16.3641V16.0793Z" fill="#51636C"/>
<path d="M125.048 16.0793V16.0059H124.561L123.781 17.7787L123.073 16.0059H122.577V18.7708H123V16.8602L123.569 18.3391H123.992L124.626 16.8602L124.561 18.6973L124.626 18.7708H125.048V18.6973V16.0793Z" fill="#51636C"/>
<path d="M76.7853 16.0059C74.1673 16.0059 72.6792 17.494 72.321 20.5345L72.0454 23.6486C72.0728 24.1788 71.8986 24.6998 71.5578 25.107C71.2171 25.5142 70.735 25.7775 70.2082 25.844C70.1529 25.8344 70.0961 25.8372 70.042 25.8524C69.9879 25.8676 69.9379 25.8946 69.8956 25.9316C69.8533 25.9686 69.8199 26.0146 69.7976 26.0662C69.7754 26.1178 69.7651 26.1737 69.7673 26.2298V27.4332C69.7582 27.4912 69.7627 27.5505 69.7806 27.6063C69.7984 27.6622 69.8291 27.7132 69.8702 27.7551C69.9112 27.7971 69.9615 27.8288 70.017 27.8479C70.0725 27.867 70.1317 27.8728 70.1898 27.8649C72.67 27.8649 74.0847 26.3768 74.3694 23.474L74.6542 20.7826C74.6406 20.1048 74.8398 19.4398 75.2237 18.8811C75.4645 18.6702 75.7463 18.5115 76.0514 18.4151C76.3566 18.3186 76.6784 18.2865 76.9966 18.3207H78.9532V27.3321C78.9437 27.3898 78.948 27.4489 78.9659 27.5045C78.9837 27.5601 79.0146 27.6107 79.0559 27.652C79.0972 27.6933 79.1478 27.7242 79.2034 27.742C79.259 27.7599 79.3181 27.7642 79.3758 27.7547H80.7904C80.8481 27.7642 80.9071 27.7599 80.9628 27.742C81.0184 27.7242 81.069 27.6933 81.1103 27.652C81.1516 27.6107 81.1825 27.5601 81.2003 27.5045C81.2182 27.4489 81.2225 27.3898 81.213 27.3321V16.5019C81.2149 16.4479 81.205 16.3941 81.1837 16.3444C81.1625 16.2946 81.1306 16.2502 81.0903 16.2142C81.0499 16.1783 81.0021 16.1516 80.9503 16.1363C80.8984 16.1209 80.8439 16.1171 80.7904 16.1253H76.7853V16.0059Z" fill="#51636C"/>
<path d="M60.6454 22.8768V16.5017C60.6549 16.4441 60.6506 16.385 60.6327 16.3294C60.6149 16.2737 60.584 16.2232 60.5427 16.1818C60.5014 16.1405 60.4508 16.1097 60.3952 16.0918C60.3396 16.0739 60.2805 16.0696 60.2228 16.0792H58.7439C58.6863 16.0696 58.6272 16.0739 58.5715 16.0918C58.5159 16.1097 58.4653 16.1405 58.424 16.1818C58.3827 16.2232 58.3518 16.2737 58.334 16.3294C58.3161 16.385 58.3118 16.4441 58.3213 16.5017V23.5841C58.3213 26.4777 59.736 27.9658 62.4918 27.9658C63.9051 27.9418 65.2635 27.4141 66.3223 26.4777L66.5336 27.5432C66.6714 27.681 66.7449 27.7545 66.8827 27.7545H67.9299C68.2146 27.7545 68.3524 27.6167 68.3524 27.4054V16.5017C68.3524 16.2169 68.2146 16.0792 67.8564 16.0792H66.4509C66.3933 16.0696 66.3342 16.0739 66.2786 16.0918C66.2229 16.1097 66.1724 16.1405 66.131 16.1818C66.0897 16.2232 66.0589 16.2737 66.041 16.3294C66.0231 16.385 66.0188 16.4441 66.0284 16.5017V24.1444C65.6538 24.6332 65.171 25.0286 64.618 25.2995C64.0649 25.5705 63.4567 25.7096 62.8408 25.706C61.3527 25.706 60.6454 24.714 60.6454 22.8768Z" fill="#51636C"/>
<path d="M56.6129 22.446C56.6129 18.8818 54.6287 17.0447 50.6696 17.0447H47.7209V13.3703H54.592C54.8676 13.3703 55.0145 13.2325 55.0145 12.8742V11.6249C55.0145 11.2667 54.8676 11.1289 54.592 11.1289H45.7092C45.4336 11.1289 45.2866 11.2667 45.2866 11.6249V22.8043C45.2866 26.1296 46.8482 27.829 50.0266 27.829H50.4767C54.5093 27.829 56.6313 26.0561 56.6313 22.446H56.6129ZM50.7339 19.2677C53.0028 19.2677 54.1327 20.324 54.1327 22.5195C54.1327 24.7149 53.0028 25.6335 50.7339 25.707H50.0266C48.4741 25.707 47.7668 24.8527 47.7668 23.1533V19.332H50.7339V19.2677Z" fill="#51636C"/>
<path d="M115.495 20.7187H110.121V16.5023C110.129 16.4442 110.123 16.385 110.104 16.3295C110.085 16.274 110.053 16.2237 110.011 16.1827C109.969 16.1416 109.919 16.1109 109.863 16.0931C109.807 16.0752 109.747 16.0707 109.689 16.0798H108.211C107.926 16.0798 107.779 16.2176 107.852 16.5023V27.3326C107.852 27.6173 107.926 27.7551 108.211 27.7551H109.689C109.747 27.7642 109.807 27.7597 109.863 27.7418C109.919 27.7239 109.969 27.6933 110.011 27.6522C110.053 27.6112 110.085 27.5609 110.104 27.5054C110.123 27.4499 110.129 27.3907 110.121 27.3326V22.8039H115.495V27.3326C115.495 27.6173 115.642 27.7551 115.991 27.7551H117.406C117.464 27.7642 117.523 27.7597 117.579 27.7418C117.635 27.7239 117.686 27.6933 117.728 27.6522C117.77 27.6112 117.801 27.5609 117.82 27.5054C117.839 27.4499 117.845 27.3907 117.837 27.3326V16.5023C117.845 16.4442 117.839 16.385 117.82 16.3295C117.801 16.274 117.77 16.2237 117.728 16.1827C117.686 16.1416 117.635 16.1109 117.579 16.0931C117.523 16.0752 117.464 16.0707 117.406 16.0798H115.991C115.706 16.0798 115.495 16.2176 115.495 16.5023V20.7187Z" fill="#51636C"/>
<path d="M104.674 16.0052H103.259C102.91 16.0052 102.763 16.1521 102.763 16.4277V24.0796C102.394 24.5714 101.913 24.9686 101.361 25.2385C100.808 25.5084 100.2 25.6432 99.5848 25.6321C98.1702 25.6321 97.3894 24.64 97.3894 22.8028V16.4277C97.3969 16.3705 97.3912 16.3122 97.3726 16.2575C97.354 16.2028 97.3231 16.1531 97.2823 16.1123C97.2414 16.0714 97.1918 16.0405 97.1371 16.0219C97.0823 16.0034 97.0241 15.9976 96.9668 16.0052H95.5522C95.1939 16.0052 95.0562 16.1521 95.0562 16.4277V23.4734C95.0562 26.3761 96.4708 27.8642 99.2266 27.8642C100.647 27.8918 102.02 27.3569 103.048 26.3761L103.259 27.4325C103.307 27.5014 103.372 27.557 103.448 27.5939C103.523 27.6309 103.607 27.648 103.691 27.6438H104.747C105.032 27.6438 105.17 27.506 105.17 27.2947V16.5012C105.106 16.1521 104.959 16.0052 104.674 16.0052Z" fill="#51636C"/>
<path d="M105.023 11.624C105.023 11.2657 104.885 11.1279 104.6 11.1279H95.5429C95.1847 11.1279 95.0469 11.2657 95.0469 11.624V12.8916C95.0469 13.2499 95.1847 13.3877 95.5429 13.3877H104.6C104.885 13.3877 105.023 13.2499 105.023 12.8916V11.624Z" fill="#51636C"/>
<path d="M89.976 18.2743C90.2406 18.7362 90.3531 19.2697 90.2975 19.7991V20.0747L87.6795 20.2217C84.7768 20.433 83.2979 21.7098 83.2979 24.1165C83.2979 26.7345 84.7768 28.0757 87.753 28.0757C88.8236 28.0686 89.873 27.777 90.7936 27.2306L91.0049 27.6531C91.1247 27.7648 91.2749 27.8383 91.4366 27.8644H92.3552C92.4026 27.8672 92.45 27.8598 92.4942 27.8427C92.5385 27.8255 92.5785 27.7991 92.6116 27.7651C92.6447 27.7311 92.6701 27.6904 92.6861 27.6457C92.7021 27.601 92.7083 27.5534 92.7043 27.5062V19.7991C92.7043 17.0434 91.2253 15.693 88.1113 15.693C86.9 15.6791 85.697 15.8942 84.5655 16.3268C84.4277 16.4646 84.2807 16.6116 84.2807 16.7494V17.9619C84.3542 18.1732 84.4277 18.311 84.5012 18.311C84.6189 18.3289 84.7354 18.3534 84.8503 18.3845C85.8715 18.0117 86.9506 17.822 88.0378 17.8242C88.7033 17.7599 89.3721 17.9078 89.9485 18.2467L89.976 18.2743ZM87.753 25.77C86.4119 25.77 85.7689 25.2097 85.7689 24.0063C85.7689 22.8029 86.3384 22.2334 87.6061 22.0956L90.2241 21.8843L90.2884 25.0627C89.513 25.5083 88.6379 25.7515 87.7438 25.77H87.753Z" fill="#51636C"/>
<path d="M4.59277 6.52531C13.3066 5.78125 22.0681 5.78125 30.7819 6.52531C29.1376 4.67711 27.1207 3.19792 24.8638 2.18501C22.6069 1.17211 20.1611 0.648437 17.6873 0.648438C15.2136 0.648437 12.7678 1.17211 10.5109 2.18501C8.254 3.19792 6.23708 4.67711 4.59277 6.52531Z" fill="#51636C"/>
<path d="M30.9196 29.5264C22.0862 30.197 13.2147 30.197 4.38135 29.5264C6.01191 31.4426 8.0413 32.9797 10.3277 34.03C12.614 35.0804 15.1022 35.6187 17.6183 35.6075C20.1448 35.6256 22.6447 35.0907 24.9425 34.0402C27.2403 32.9897 29.2804 31.449 30.9196 29.5264Z" fill="#51636C"/>
<path d="M0.771384 13.6712C12.162 13.4599 23.277 13.4599 34.6032 13.6712C34.9697 15.1281 35.1578 16.6241 35.1636 18.1263C35.1678 19.4363 35.0261 20.7426 34.741 22.0212C23.2035 22.3794 11.8864 22.3059 0.633595 22.0212C0.345451 20.743 0.200644 19.4366 0.201855 18.1263C0.174077 16.6215 0.36594 15.1206 0.771384 13.6712Z" fill="#51636C"/>
</svg>
