<svg width="200" height="35" viewBox="0 0 200 35" fill="none" xmlns="http://www.w3.org/2000/svg">
<path d="M150.262 30.0303V27.2002H150.703V29.381L152.16 27.2002H152.601V30.0303H152.16V27.8661L150.703 30.0469L150.262 30.0303Z" fill="#51636C"/>
<path d="M153.492 30.0302V27.2001H153.942V29.3809L155.39 27.2001H155.839V30.0302H155.39V27.866L153.942 30.0468L153.492 30.0302ZM154.658 26.7007C154.566 26.7001 154.475 26.6802 154.391 26.6424C154.306 26.6084 154.227 26.5606 154.158 26.5009C154.092 26.4346 154.036 26.3588 153.992 26.2762C153.959 26.1847 153.936 26.0897 153.925 25.9932H154.308C154.311 26.0942 154.343 26.1922 154.399 26.2762C154.421 26.3181 154.455 26.3526 154.497 26.3749C154.538 26.3971 154.586 26.4063 154.633 26.401C154.684 26.4049 154.735 26.3954 154.782 26.3735C154.829 26.3517 154.869 26.3181 154.899 26.2762C154.952 26.1892 154.989 26.0933 155.007 25.9932H155.373C155.37 26.091 155.347 26.1872 155.307 26.2762C155.269 26.363 155.215 26.442 155.149 26.5092C155.084 26.5747 155.004 26.6233 154.916 26.6507C154.832 26.6781 154.745 26.6894 154.658 26.684V26.7007ZM157.937 30.0968C157.749 30.0964 157.562 30.0596 157.388 29.9886C157.226 29.9201 157.076 29.8244 156.947 29.7056C156.819 29.5823 156.723 29.4313 156.664 29.2644C156.587 29.0712 156.55 28.8645 156.555 28.6568C156.551 28.4572 156.588 28.2589 156.664 28.0741C156.728 27.8987 156.831 27.7396 156.963 27.608C157.09 27.4787 157.242 27.3761 157.409 27.3061C157.576 27.236 157.756 27.2 157.937 27.2001C158.081 27.199 158.224 27.2186 158.362 27.2584C158.499 27.2842 158.628 27.3443 158.736 27.4332C158.86 27.5185 158.963 27.6311 159.037 27.7625C159.11 27.8938 159.153 28.0403 159.161 28.1906H158.72C158.711 28.0974 158.682 28.007 158.636 27.9253C158.59 27.8437 158.528 27.7724 158.453 27.7162C158.298 27.62 158.119 27.5709 157.937 27.5747C157.814 27.5702 157.692 27.5929 157.579 27.6413C157.473 27.6963 157.377 27.7696 157.296 27.8577C157.21 27.954 157.144 28.0675 157.105 28.1906C157.053 28.3347 157.028 28.487 157.03 28.6401C157.012 28.923 157.101 29.2022 157.28 29.4226C157.368 29.5105 157.473 29.5795 157.589 29.6253C157.705 29.6711 157.829 29.6928 157.954 29.6889C158.048 29.7028 158.143 29.7028 158.237 29.6889C158.325 29.6619 158.409 29.6227 158.486 29.5724C158.564 29.5186 158.625 29.4435 158.661 29.356C158.715 29.2648 158.747 29.1621 158.753 29.0563H159.169C159.159 29.2053 159.117 29.3503 159.044 29.4808C158.979 29.6089 158.888 29.7222 158.778 29.8138C158.665 29.9094 158.539 29.988 158.403 30.0468C158.254 30.0887 158.1 30.1056 157.945 30.0968H157.937ZM160.318 28.6152V30.0635H159.868V27.2334H160.318V28.5402L161.483 27.2334H162.016L160.809 28.5652L162.124 30.0635H161.575L160.318 28.6152ZM163.73 30.0968C163.542 30.097 163.355 30.0602 163.181 29.9886C163.012 29.9204 162.859 29.8185 162.732 29.6889C162.607 29.554 162.511 29.3955 162.449 29.2228C162.378 29.0423 162.342 28.8505 162.34 28.6568C162.34 28.4575 162.377 28.26 162.449 28.0741C162.511 27.9014 162.607 27.7429 162.732 27.608C162.857 27.4756 163.011 27.3732 163.181 27.3083C163.355 27.2342 163.542 27.1973 163.73 27.2001C163.919 27.1966 164.106 27.2335 164.28 27.3083C164.448 27.3764 164.6 27.4801 164.725 27.6122C164.85 27.7444 164.945 27.9019 165.004 28.0741C165.08 28.2589 165.116 28.4572 165.112 28.6568C165.116 28.8564 165.08 29.0547 165.004 29.2394C164.945 29.4116 164.85 29.5692 164.725 29.7013C164.6 29.8335 164.448 29.9371 164.28 30.0052C164.102 30.0626 163.917 30.0935 163.73 30.0968ZM163.73 29.7056C163.865 29.7105 163.999 29.6848 164.122 29.6307C164.23 29.5822 164.326 29.5113 164.405 29.4226C164.482 29.3199 164.542 29.2044 164.579 29.0813C164.619 28.9431 164.641 28.8005 164.646 28.6568C164.65 28.507 164.627 28.3577 164.579 28.2156C164.531 28.0266 164.418 27.8606 164.26 27.7465C164.102 27.6324 163.908 27.5775 163.714 27.5913C163.579 27.5843 163.445 27.61 163.323 27.6662C163.21 27.7067 163.112 27.779 163.04 27.8743C162.959 27.9765 162.897 28.092 162.856 28.2156C162.815 28.359 162.792 28.5074 162.79 28.6568C162.778 28.939 162.866 29.2163 163.04 29.4392C163.131 29.528 163.239 29.5974 163.358 29.6432C163.476 29.689 163.603 29.7102 163.73 29.7056ZM165.828 30.0385V27.2084H166.269V29.3893L167.726 27.2084H168.142V30.0385H167.701V27.8743L166.244 30.0552L165.828 30.0385ZM166.993 26.709C166.901 26.7084 166.811 26.6886 166.727 26.6507C166.642 26.6167 166.563 26.5689 166.494 26.5092C166.43 26.4398 166.377 26.3612 166.336 26.2762C166.3 26.185 166.275 26.0901 166.261 25.9932H166.652C166.652 26.0948 166.684 26.1938 166.744 26.2762C166.765 26.3181 166.799 26.3526 166.841 26.3749C166.882 26.3971 166.93 26.4063 166.977 26.401C167.028 26.4041 167.079 26.3943 167.126 26.3725C167.172 26.3506 167.213 26.3175 167.243 26.2762C167.297 26.1907 167.332 26.0939 167.343 25.9932H167.718C167.714 26.091 167.692 26.1872 167.651 26.2762C167.613 26.365 167.556 26.4445 167.484 26.5092C167.422 26.5743 167.345 26.623 167.26 26.6507C167.175 26.6829 167.084 26.697 166.993 26.6924V26.709ZM172.47 26.6757C172.698 26.6793 172.924 26.7101 173.145 26.7673C173.341 26.8182 173.527 26.9027 173.694 27.017C173.852 27.1253 173.981 27.2712 174.069 27.4415C174.157 27.6433 174.2 27.8622 174.193 28.0824C174.194 28.3093 174.146 28.5337 174.052 28.74C173.96 28.9123 173.832 29.0628 173.677 29.1812C173.511 29.2972 173.325 29.3818 173.128 29.4309C172.908 29.4881 172.681 29.5188 172.454 29.5224V30.0718H171.996V29.5224C171.768 29.5205 171.542 29.4897 171.322 29.4309C171.122 29.3828 170.933 29.2981 170.764 29.1812C170.606 29.0749 170.48 28.9283 170.398 28.7567C170.306 28.5561 170.263 28.3363 170.273 28.1157C170.267 27.8884 170.315 27.6629 170.414 27.4582C170.504 27.2841 170.632 27.1331 170.789 27.017C170.956 26.9027 171.142 26.8182 171.338 26.7673C171.559 26.7095 171.785 26.6788 172.013 26.6757V26.1263H172.47V26.6757ZM172.013 27.0336C171.85 27.0315 171.688 27.0483 171.53 27.0836C171.392 27.1187 171.26 27.1748 171.139 27.2501C171.027 27.3402 170.936 27.4539 170.872 27.583C170.797 27.7503 170.76 27.9323 170.764 28.1157C170.765 28.2863 170.796 28.4554 170.856 28.6152C170.913 28.7435 171.005 28.8531 171.122 28.9315C171.238 29.0188 171.372 29.0811 171.513 29.1146C171.678 29.1466 171.845 29.1688 172.013 29.1812V27.0336ZM172.47 29.1978C172.633 29.1995 172.795 29.1827 172.953 29.1479C173.089 29.1144 173.219 29.0581 173.336 28.9814C173.45 28.9 173.542 28.7913 173.602 28.6651C173.682 28.4991 173.719 28.3161 173.711 28.1324C173.712 27.9623 173.684 27.7933 173.627 27.633C173.565 27.5077 173.474 27.3993 173.361 27.3166C173.246 27.2288 173.112 27.1689 172.97 27.1418C172.806 27.1035 172.639 27.0784 172.47 27.0669V29.1978ZM176.133 30.1134C175.944 30.113 175.758 30.0763 175.584 30.0052C175.424 29.9407 175.28 29.8444 175.159 29.7222C175.037 29.5946 174.941 29.4448 174.876 29.2811C174.801 29.0932 174.764 28.8923 174.768 28.6901C174.766 28.4922 174.797 28.2954 174.859 28.1074C174.919 27.9372 175.009 27.7792 175.126 27.6413C175.249 27.5177 175.393 27.4163 175.55 27.3416C175.875 27.2204 176.233 27.2204 176.557 27.3416C176.709 27.3953 176.848 27.4804 176.965 27.5913C177.096 27.7118 177.193 27.8637 177.248 28.0325C177.328 28.2421 177.365 28.4658 177.356 28.6901V28.7816H175.226C175.221 29.0448 175.31 29.3011 175.475 29.5058C175.562 29.5952 175.667 29.664 175.784 29.7072C175.901 29.7504 176.026 29.7669 176.15 29.7555C176.591 29.7555 176.84 29.589 176.899 29.2727H177.34C177.328 29.4043 177.284 29.531 177.213 29.6424C177.142 29.7539 177.046 29.8469 176.932 29.9137C176.689 30.0513 176.411 30.1149 176.133 30.0968V30.1134ZM176.899 28.3654C176.901 28.1325 176.811 27.9081 176.649 27.7412C176.49 27.6095 176.289 27.5413 176.083 27.5497C175.872 27.5438 175.667 27.6182 175.509 27.7578C175.358 27.9288 175.259 28.1398 175.226 28.3654H176.899ZM178.131 30.746H177.773V29.6889H177.964C178.019 29.6735 178.069 29.6415 178.106 29.5974C178.145 29.5505 178.176 29.497 178.197 29.4392C178.197 29.356 178.197 29.2977 178.247 29.2061C178.259 29.1178 178.259 29.0282 178.247 28.9398C178.247 28.7733 178.247 28.5819 178.297 28.3904C178.347 28.199 178.297 27.9992 178.297 27.841C178.297 27.6829 178.297 27.4249 178.339 27.2417H180.195V29.6889H180.611V30.746H180.261V30.0552H178.131V30.746ZM178.68 28.9731C178.663 29.1158 178.638 29.2575 178.605 29.3976C178.578 29.4979 178.542 29.5954 178.497 29.6889H179.795V27.608H178.747C178.755 27.7077 178.755 27.8079 178.747 27.9076V28.6401C178.725 28.7534 178.694 28.8647 178.655 28.9731H178.68ZM182.426 30.1134C182.237 30.1122 182.051 30.0755 181.876 30.0052C181.717 29.9407 181.573 29.8444 181.452 29.7222C181.333 29.5924 181.237 29.4432 181.169 29.2811C181.097 29.0923 181.06 28.892 181.061 28.6901C181.063 28.4925 181.094 28.2963 181.152 28.1074C181.215 27.9386 181.305 27.7812 181.418 27.6413C181.542 27.5177 181.685 27.4163 181.843 27.3416C182.012 27.2706 182.193 27.2338 182.376 27.2334C182.54 27.2304 182.703 27.2557 182.858 27.3083C183.01 27.362 183.149 27.4471 183.266 27.558C183.391 27.6829 183.488 27.8334 183.549 27.9992C183.622 28.2106 183.656 28.4334 183.649 28.6568V28.7816H181.527C181.515 29.046 181.604 29.3049 181.776 29.5058C181.863 29.5952 181.968 29.664 182.085 29.7072C182.202 29.7504 182.327 29.7669 182.451 29.7555C182.892 29.7555 183.141 29.589 183.2 29.2727H183.641C183.629 29.4043 183.585 29.531 183.514 29.6424C183.443 29.7539 183.347 29.8469 183.233 29.9137C182.991 30.0536 182.713 30.1175 182.434 30.0968L182.426 30.1134ZM183.191 28.3654C183.194 28.1325 183.104 27.9081 182.942 27.7412C182.783 27.6095 182.582 27.5413 182.376 27.5497C182.272 27.5443 182.169 27.5599 182.071 27.5957C181.974 27.6315 181.885 27.6866 181.81 27.7578C181.656 27.9268 181.557 28.1388 181.527 28.3654H183.191ZM184.373 27.2168H184.79V27.6995C184.827 27.6224 184.881 27.5543 184.948 27.4998C185.017 27.435 185.095 27.3816 185.181 27.3416L185.447 27.2168C185.546 27.1986 185.648 27.1986 185.747 27.2168C185.923 27.2174 186.097 27.2484 186.263 27.3083C186.419 27.37 186.558 27.4669 186.671 27.5913C186.782 27.7237 186.872 27.8725 186.937 28.0325C187.005 28.2276 187.036 28.4337 187.029 28.6401C187.025 28.8376 186.994 29.0337 186.937 29.2228C186.885 29.3965 186.794 29.556 186.671 29.6889C186.555 29.8134 186.416 29.915 186.263 29.9886C186.094 30.0596 185.913 30.0963 185.73 30.0968C185.523 30.103 185.32 30.0448 185.148 29.9303C185 29.8404 184.873 29.7214 184.773 29.5807V31.029H184.357L184.373 27.2168ZM185.739 29.7139C185.858 29.7182 185.977 29.6967 186.088 29.6507C186.199 29.6047 186.298 29.5354 186.379 29.4475C186.55 29.2053 186.63 28.9104 186.604 28.6152C186.611 28.457 186.588 28.299 186.538 28.149C186.498 28.0238 186.43 27.9098 186.338 27.8161C186.264 27.7244 186.166 27.6553 186.055 27.6163C185.95 27.5689 185.836 27.5461 185.722 27.5497C185.594 27.5475 185.467 27.5701 185.347 27.6163C185.229 27.6613 185.123 27.7327 185.036 27.825C184.95 27.9173 184.885 28.0281 184.848 28.149C184.797 28.3047 184.775 28.4682 184.781 28.6318C184.775 28.7872 184.797 28.9425 184.848 29.0896C184.894 29.2141 184.962 29.3295 185.048 29.4309C185.126 29.5235 185.23 29.5903 185.347 29.6223C185.472 29.6762 185.604 29.7099 185.739 29.7222V29.7139ZM188.535 30.1134C188.411 30.1138 188.287 30.0942 188.169 30.0552C188.058 30.0281 187.955 29.9738 187.869 29.897C187.776 29.8319 187.706 29.7385 187.67 29.6307C187.62 29.5121 187.598 29.3843 187.603 29.2561C187.596 29.111 187.637 28.9676 187.72 28.8482C187.807 28.7367 187.918 28.6458 188.044 28.5819C188.188 28.5089 188.342 28.461 188.502 28.4404C188.678 28.4076 188.856 28.3909 189.035 28.3904H189.451V28.174C189.467 28.0034 189.417 27.8332 189.309 27.6995C189.248 27.6444 189.175 27.6032 189.096 27.5788C189.017 27.5543 188.934 27.5473 188.852 27.558C188.46 27.558 188.244 27.7245 188.186 28.0575H187.745C187.75 27.913 187.793 27.7724 187.869 27.6496C187.934 27.5479 188.016 27.4578 188.111 27.3832C188.22 27.3081 188.341 27.2518 188.469 27.2168C188.597 27.1838 188.728 27.167 188.86 27.1668C188.992 27.166 189.124 27.1828 189.251 27.2168C189.37 27.2553 189.482 27.3114 189.584 27.3832C189.689 27.4655 189.77 27.5748 189.817 27.6995C189.878 27.8589 189.91 28.0282 189.909 28.199V30.0552H189.459V29.7056C189.364 29.8279 189.245 29.9298 189.11 30.0052C188.926 30.0761 188.732 30.1128 188.535 30.1134ZM188.594 29.7555C188.707 29.757 188.819 29.7402 188.927 29.7056C189.02 29.6756 189.11 29.6337 189.193 29.5807C189.266 29.5196 189.328 29.4464 189.376 29.3643C189.417 29.2753 189.439 29.1791 189.443 29.0813V28.7234H189.051C188.921 28.7143 188.79 28.7143 188.66 28.7234C188.552 28.7391 188.446 28.767 188.344 28.8066C188.258 28.8489 188.183 28.9118 188.127 28.9897C188.077 29.0692 188.054 29.1625 188.061 29.2561C188.056 29.3199 188.064 29.3841 188.085 29.4444C188.107 29.5047 188.141 29.5597 188.186 29.6057C188.299 29.7035 188.444 29.7568 188.594 29.7555ZM193.113 30.7544V30.0635H190.841V27.2334H191.282V29.614H192.614V27.2001H193.055V29.614H193.471V30.6795H193.113V30.7544Z" fill="#51636C"/>
<path d="M194.029 30.0303V27.2002H194.47V29.381L195.927 27.2002H196.368V30.0303H195.927V27.8661L194.47 30.0469L194.029 30.0303Z" fill="#51636C"/>
<path d="M197.275 30.0303V27.2002H197.716V29.381L199.173 27.2002H199.614V30.0303H199.173V27.8661L197.716 30.0469L197.275 30.0303Z" fill="#51636C"/>
<path d="M72.0523 19.7334C72.2074 19.7576 72.3605 19.7938 72.5101 19.8416L72.9263 20.0081V20.366H69.9214V20.0081C70.1556 19.8806 70.4084 19.7907 70.6705 19.7417V14.5477C70.542 14.53 70.4162 14.4965 70.296 14.4478C70.1653 14.4064 70.0397 14.3505 69.9214 14.2813V13.9317H74.5827V15.0138L74.5328 15.5965C74.5328 15.7879 74.4745 15.971 74.4495 16.1125H74.0833L73.5173 14.5144H72.0523V19.7251V19.7334ZM75.2486 17.128C75.2475 16.6847 75.3149 16.2439 75.4484 15.8212C75.5728 15.4371 75.7707 15.0809 76.031 14.7724C76.2968 14.4687 76.6304 14.232 77.0049 14.0815C77.8616 13.7489 78.8118 13.7489 79.6685 14.0815C80.0404 14.2281 80.3695 14.4657 80.6258 14.7724C80.8947 15.075 81.0936 15.4331 81.2084 15.8212C81.3446 16.2431 81.4093 16.6848 81.3999 17.128C81.4043 17.5737 81.3397 18.0173 81.2084 18.4432C81.0841 18.8273 80.8862 19.1835 80.6258 19.492C80.3613 19.7897 80.0344 20.0256 79.6685 20.1829C78.8118 20.5156 77.8616 20.5156 77.0049 20.1829C76.6304 20.0324 76.2968 19.7957 76.031 19.492C75.7621 19.1894 75.5632 18.8314 75.4484 18.4432C75.3115 18.0182 75.2413 17.5746 75.2403 17.128H75.2486ZM76.8135 17.128C76.8141 17.4903 76.8419 17.852 76.8967 18.2101C76.9467 18.5007 77.0422 18.7817 77.1797 19.0425C77.3007 19.2669 77.4715 19.4606 77.6792 19.6085C77.8936 19.7503 78.1463 19.823 78.4033 19.8166C78.6431 19.8294 78.8803 19.762 79.0775 19.6252C79.2723 19.477 79.4268 19.2824 79.527 19.0592C79.6491 18.7955 79.7305 18.5149 79.7684 18.2268C79.8794 17.5097 79.8794 16.7797 79.7684 16.0626C79.727 15.7722 79.6369 15.4908 79.5021 15.2302C79.3919 15.0011 79.2223 14.8056 79.011 14.6642C78.7893 14.517 78.5278 14.4415 78.2618 14.4478C78.0086 14.4405 77.7601 14.5166 77.5543 14.6642C77.3572 14.8121 77.1999 15.0066 77.0965 15.2302C76.9775 15.4944 76.8989 15.775 76.8634 16.0626C76.8218 16.3956 76.8052 16.7535 76.8052 17.128H76.8135ZM86.9019 18.4266H87.2765C87.2765 18.5098 87.3264 18.6347 87.3431 18.7762C87.3597 18.9177 87.3431 19.0592 87.4013 19.2256C87.4596 19.3921 87.4013 19.5253 87.4013 19.6834V20.0996C87.1481 20.2541 86.8639 20.3507 86.569 20.3826C86.2477 20.442 85.9218 20.4726 85.5951 20.4742C85.1272 20.4758 84.6616 20.4084 84.2133 20.2744C83.8236 20.1633 83.4647 19.964 83.1645 19.6918C82.8662 19.4018 82.636 19.0493 82.4903 18.6596C82.3492 18.165 82.2984 17.649 82.3405 17.1364C82.3281 16.6269 82.4187 16.1201 82.6068 15.6464C82.7655 15.2668 83.0007 14.924 83.2977 14.6392C83.5895 14.373 83.9361 14.1741 84.3132 14.0566C84.7083 13.927 85.121 13.8596 85.5368 13.8568C85.905 13.8552 86.2727 13.8858 86.6355 13.9484C86.9205 13.992 87.1997 14.0674 87.4679 14.1731C87.4752 14.2979 87.4752 14.4229 87.4679 14.5477C87.4608 14.7099 87.4413 14.8712 87.4097 15.0305C87.4097 15.1969 87.3597 15.3634 87.3431 15.5299C87.3264 15.6964 87.2848 15.8379 87.2598 15.9461H86.8187L86.3192 14.5643C86.2352 14.5263 86.1449 14.5037 86.0529 14.4977C85.9291 14.4756 85.8039 14.4617 85.6783 14.4561C85.4331 14.4588 85.1915 14.5157 84.9708 14.6226C84.744 14.736 84.5451 14.898 84.3881 15.097C84.1958 15.3431 84.0569 15.6266 83.9803 15.9294C83.8737 16.3282 83.8261 16.7404 83.8387 17.153C83.7952 17.8582 83.9727 18.5595 84.3465 19.159C84.5059 19.3863 84.7197 19.5701 84.9683 19.6937C85.2169 19.8172 85.4924 19.8767 85.7699 19.8666C85.9112 19.8776 86.0531 19.8776 86.1944 19.8666C86.2838 19.8468 86.3685 19.8101 86.4441 19.7584L86.9019 18.4266ZM92.9366 14.5477L92.5538 14.4478C92.4423 14.3989 92.3338 14.3433 92.2291 14.2813V13.9317H94.4516V14.2813C94.3675 14.3368 94.2783 14.3842 94.1852 14.4228C94.0663 14.4805 93.9404 14.5225 93.8106 14.5477L92.0626 18.5015C91.8541 19.0533 91.5403 19.5593 91.1387 19.9914C91.0198 20.1392 90.8642 20.2531 90.6874 20.3217C90.5107 20.3904 90.319 20.4114 90.1315 20.3826C90.0646 20.3188 90.0109 20.2424 89.9734 20.1579C89.9158 20.0545 89.8684 19.9458 89.8319 19.8333C89.7568 19.6395 89.701 19.4387 89.6654 19.234L89.9151 18.8594L90.9972 19.1923C91.051 19.1307 91.0984 19.0638 91.1387 18.9926C91.1917 18.9096 91.2336 18.82 91.2636 18.7262L88.833 14.5643L88.5001 14.4644C88.394 14.4208 88.2935 14.3649 88.2004 14.298V13.9484H91.0555V14.298C90.84 14.4213 90.6071 14.5111 90.3646 14.5643L91.6548 17.0615L91.8546 17.6441L92.021 17.0365L92.9366 14.5477ZM101.027 19.7584V20.2328C101.027 20.3993 101.027 20.6074 100.977 20.7822C100.927 20.957 100.919 21.1568 100.894 21.3316C100.879 21.5005 100.848 21.6676 100.803 21.831H100.453L99.9536 20.3327H95.5753L95.0759 21.831H94.7263C94.7263 21.6645 94.643 21.498 94.618 21.3149L94.5348 20.7489C94.5098 20.5574 94.5348 20.3743 94.4849 20.1995C94.4349 20.0247 94.4849 19.8666 94.4849 19.7584H95.3172C95.4867 19.4517 95.6234 19.1281 95.7251 18.7928C95.8767 18.3879 96.0018 17.9736 96.0997 17.5526C96.2063 17.0861 96.2842 16.6135 96.3327 16.1375C96.3915 15.6373 96.4249 15.1345 96.4326 14.6309C96.2654 14.597 96.1012 14.5497 95.9415 14.4894C95.773 14.4357 95.611 14.3631 95.4587 14.273V13.9234H100.719V14.273C100.487 14.405 100.234 14.4951 99.9702 14.5394V19.7417L101.027 19.7584ZM98.5802 19.7584V14.5477H97.1069C97.1069 15.2552 97.0236 15.8961 96.9404 16.4455C96.8803 16.9414 96.7914 17.4333 96.674 17.9188L96.3577 19.0175C96.2616 19.2669 96.1475 19.5089 96.0164 19.7417H98.5718L98.5802 19.7584ZM103.866 20.3577H101.618V19.9998L101.951 19.8333C102.058 19.7848 102.17 19.7485 102.284 19.7251L104.648 13.8402H105.314L107.595 19.7251C107.723 19.7495 107.848 19.7857 107.969 19.8333L108.286 19.9998V20.3577H105.431V19.9998L105.805 19.8333C105.933 19.7878 106.064 19.7516 106.196 19.7251L105.664 18.2767H103.633L103.1 19.7251C103.392 19.759 103.675 19.8494 103.932 19.9914V20.3493L103.866 20.3577ZM103.866 17.6941H105.481L104.881 15.9627L104.715 15.1803L104.515 16.0127L103.866 17.6941ZM111.041 19.7334C111.207 19.7593 111.371 19.7954 111.532 19.8416L111.948 20.0081V20.366H108.902V20.0081C109.019 19.9385 109.145 19.8853 109.276 19.8499C109.401 19.8499 109.543 19.7833 109.651 19.7417V14.5477C109.511 14.5311 109.374 14.4976 109.243 14.4478L108.885 14.2813V13.9317H110.034C110.283 13.9317 110.55 13.9317 110.866 13.8901C111.182 13.8485 111.465 13.8901 111.698 13.8901C112.014 13.8908 112.329 13.9215 112.639 13.9817C112.932 14.0408 113.213 14.1477 113.471 14.298C113.71 14.453 113.909 14.6609 114.054 14.9056C114.207 15.1948 114.282 15.5191 114.27 15.8462C114.279 16.1547 114.212 16.4606 114.075 16.7375C113.939 17.0145 113.737 17.2542 113.488 17.436C113.243 17.6224 112.958 17.7505 112.656 17.8106C112.344 17.897 112.022 17.9391 111.698 17.9355H111.341C111.271 17.9437 111.202 17.9437 111.132 17.9355C111.08 17.9462 111.026 17.9462 110.974 17.9355V19.7917L111.041 19.7334ZM111.54 14.4728C111.446 14.4628 111.351 14.4628 111.257 14.4728H111.049V17.2612C111.132 17.2738 111.216 17.2738 111.299 17.2612H111.549C111.714 17.2598 111.877 17.2288 112.031 17.1697C112.183 17.116 112.322 17.0309 112.439 16.92C112.565 16.7952 112.661 16.6447 112.722 16.4788C112.801 16.2687 112.837 16.0453 112.83 15.8212C112.858 15.4274 112.73 15.0386 112.473 14.7391C112.21 14.5354 111.879 14.44 111.549 14.4728H111.54ZM119.698 18.4266H120.064C120.095 18.5417 120.12 18.6584 120.139 18.7762C120.139 18.9177 120.139 19.0592 120.189 19.2256C120.239 19.3921 120.189 19.5253 120.189 19.6834V20.0996C119.949 20.2508 119.679 20.3475 119.398 20.3826C119.074 20.4427 118.745 20.4734 118.416 20.4742C117.948 20.4752 117.482 20.4079 117.034 20.2744C116.647 20.1633 116.291 19.9638 115.994 19.6918C115.693 19.404 115.462 19.0508 115.319 18.6596C115.157 18.169 115.089 17.6522 115.12 17.1364C115.107 16.6269 115.198 16.1201 115.386 15.6464C115.542 15.2652 115.777 14.9217 116.077 14.6392C116.365 14.3732 116.709 14.1742 117.084 14.0566C117.479 13.927 117.892 13.8596 118.308 13.8568C118.676 13.8552 119.043 13.8858 119.406 13.9484C119.692 13.9896 119.971 14.0651 120.239 14.1731C120.246 14.2979 120.246 14.4229 120.239 14.5477C120.23 14.7093 120.214 14.8705 120.189 15.0305C120.189 15.1969 120.13 15.3634 120.105 15.5299L120.039 15.9461H119.598L119.098 14.5643C119.015 14.5251 118.924 14.5025 118.832 14.4977C118.711 14.4761 118.589 14.4622 118.466 14.4561C118.218 14.4576 117.973 14.5145 117.75 14.6226C117.525 14.7381 117.326 14.8998 117.167 15.097C116.98 15.3466 116.842 15.6289 116.759 15.9294C116.661 16.3297 116.613 16.7408 116.618 17.153C116.572 17.8596 116.753 18.5623 117.134 19.159C117.293 19.3851 117.505 19.5681 117.752 19.6916C117.999 19.8152 118.273 19.8753 118.549 19.8666C118.69 19.8779 118.832 19.8779 118.973 19.8666C119.063 19.8485 119.148 19.8117 119.223 19.7584L119.698 18.4266ZM125.558 20.3577H122.419V19.9998L122.836 19.8333C122.991 19.7854 123.149 19.7492 123.31 19.7251V14.5477H122.245L121.662 16.1125H121.287C121.287 15.9877 121.238 15.8295 121.221 15.6464L121.138 15.0637C121.121 14.8723 121.138 14.6476 121.088 14.4644C121.038 14.2813 121.088 14.0899 121.088 13.9484H126.914V14.4644L126.864 15.0471C126.852 15.2427 126.827 15.4373 126.789 15.6298C126.789 15.7962 126.74 15.9627 126.723 16.1125H126.348L125.691 14.5477H124.65V19.7417L125.133 19.8499C125.277 19.8793 125.415 19.9328 125.541 20.0081V20.366L125.558 20.3577ZM127.58 20.3577V19.9998C127.696 19.93 127.819 19.8714 127.946 19.825C128.069 19.7846 128.194 19.754 128.321 19.7334V14.5477C128.188 14.5281 128.056 14.4947 127.93 14.4478L127.555 14.2813V13.9317H129.02C129.24 13.9308 129.46 13.9169 129.678 13.8901H130.385C130.665 13.8881 130.943 13.9132 131.218 13.965C131.469 14.0026 131.713 14.0784 131.942 14.1898C132.152 14.2963 132.331 14.4573 132.458 14.6559C132.592 14.8851 132.659 15.1478 132.649 15.4133C132.652 15.602 132.615 15.7892 132.541 15.9627C132.478 16.13 132.382 16.2829 132.258 16.4122C132.128 16.5399 131.98 16.6466 131.817 16.7285C131.645 16.8183 131.46 16.8774 131.268 16.9033C131.468 16.9227 131.664 16.9703 131.85 17.0448C132.043 17.1071 132.223 17.2029 132.383 17.3278C132.543 17.4587 132.676 17.6199 132.774 17.8023C132.883 18.0101 132.937 18.242 132.932 18.4765C132.939 18.7676 132.867 19.0553 132.724 19.3089C132.573 19.5447 132.371 19.7437 132.133 19.8915C131.878 20.0518 131.596 20.1646 131.301 20.2245C130.976 20.2992 130.644 20.3356 130.31 20.3327C130.169 20.3404 130.027 20.3404 129.886 20.3327H127.58V20.3577ZM129.936 16.8117C130.036 16.8205 130.136 16.8205 130.236 16.8117C130.331 16.8038 130.425 16.7899 130.519 16.7701C130.748 16.6853 130.946 16.5311 131.085 16.329C131.225 16.126 131.301 15.885 131.301 15.6381C131.311 15.4862 131.289 15.3339 131.238 15.1907C131.186 15.0474 131.106 14.9164 131.001 14.8057C130.782 14.6236 130.504 14.5288 130.219 14.5394C130.1 14.5302 129.98 14.5302 129.861 14.5394C129.772 14.5317 129.683 14.5317 129.595 14.5394V16.8117H129.928H129.936ZM130.352 19.8083C130.519 19.8199 130.686 19.7954 130.843 19.7365C130.999 19.6776 131.141 19.5857 131.259 19.467C131.482 19.2217 131.602 18.8995 131.592 18.5681C131.602 18.3735 131.565 18.1794 131.484 18.002C131.415 17.8598 131.312 17.7369 131.184 17.6441C131.047 17.5529 130.89 17.4932 130.727 17.4693C130.538 17.4285 130.345 17.409 130.152 17.4111H129.678V19.7584L129.944 19.8083H130.352ZM138.31 13.965C138.31 14.2314 138.31 14.5144 138.226 14.7974C138.143 15.0804 138.143 15.3634 138.101 15.6298H137.727L137.344 14.5477H135.679V16.7951H136.795L137.211 16.0876H137.494C137.529 16.4166 137.545 16.7473 137.544 17.0781C137.545 17.42 137.529 17.7618 137.494 18.1019H137.211L136.795 17.3778H135.613V19.7584H137.386L137.86 18.593H138.235C138.235 18.7179 138.285 18.8427 138.318 18.9842C138.351 19.1258 138.318 19.2839 138.368 19.4421C138.418 19.6002 138.368 19.775 138.368 19.9248C138.376 20.0718 138.376 20.2191 138.368 20.366H133.473V20.0164C133.587 19.9545 133.704 19.8989 133.823 19.8499C133.954 19.7995 134.091 19.766 134.231 19.75V14.5477C134.1 14.527 133.972 14.4936 133.848 14.4478C133.725 14.4018 133.605 14.3462 133.49 14.2813V13.9317H138.318L138.31 13.965ZM142.055 20.3577H139.292V19.9998L139.641 19.8333C139.769 19.7878 139.9 19.7516 140.033 19.7251V14.5477C139.888 14.5302 139.745 14.4967 139.608 14.4478C139.492 14.4042 139.38 14.3484 139.275 14.2813V13.9317H142.039V14.2813C141.945 14.3466 141.844 14.4023 141.739 14.4478C141.63 14.4963 141.515 14.5299 141.398 14.5477V16.7701H143.828V14.5477C143.707 14.5357 143.588 14.5018 143.479 14.4478L143.187 14.2813V13.9317H145.959V14.2813C145.848 14.3534 145.728 14.4094 145.601 14.4478L145.21 14.5477V19.7251C145.349 19.7473 145.486 19.7836 145.618 19.8333L145.951 19.9998V20.3577H143.171V19.9998L143.479 19.8333C143.59 19.7824 143.708 19.746 143.828 19.7251V17.3778H141.414V19.7334C141.532 19.7556 141.647 19.7919 141.756 19.8416C141.867 19.8808 141.974 19.9339 142.072 19.9998V20.3577H142.055ZM149.422 20.3577H146.675V19.9998L147.033 19.8333C147.161 19.7878 147.291 19.7516 147.424 19.7251V14.5477C147.276 14.5312 147.131 14.4977 146.991 14.4478C146.875 14.4025 146.764 14.3468 146.658 14.2813V13.9317H149.422V14.2813C149.329 14.3483 149.228 14.4041 149.122 14.4478C149.016 14.4951 148.904 14.5287 148.789 14.5477V16.7701H151.203V14.5477C151.082 14.5345 150.964 14.5007 150.854 14.4478C150.756 14.3978 150.662 14.3422 150.571 14.2813V13.9317H153.334V14.2813C153.225 14.3518 153.108 14.4077 152.984 14.4478L152.593 14.5477V19.7251C152.732 19.7473 152.869 19.7836 153.001 19.8333L153.334 19.9998V20.3577H150.571V19.9998L150.87 19.8333C150.985 19.7839 151.105 19.7476 151.228 19.7251V17.3778H148.798V19.7334C148.913 19.7555 149.024 19.7919 149.131 19.8416C149.245 19.8806 149.354 19.9338 149.455 19.9998V20.3577H149.422ZM156.206 20.3577H153.992V19.9998C154.075 19.9498 154.183 19.8999 154.308 19.8333C154.418 19.7859 154.532 19.7497 154.649 19.7251L157.005 13.8402H157.671L159.96 19.7251C160.085 19.7484 160.208 19.7847 160.326 19.8333L160.659 19.9998V20.3577H157.804V19.9998L158.178 19.8333C158.303 19.7879 158.431 19.7517 158.561 19.7251L158.029 18.2767H156.014L155.482 19.7251C155.774 19.759 156.056 19.8494 156.314 19.9914V20.3493L156.206 20.3577ZM156.206 17.6941H157.821L157.238 15.9627L157.055 15.1803L156.863 16.0127L156.206 17.6941ZM167.26 13.965V14.3146C167.158 14.3773 167.049 14.4276 166.935 14.4644C166.796 14.511 166.654 14.5499 166.511 14.581V19.7667C166.655 19.7934 166.797 19.8324 166.935 19.8832L167.268 20.033V20.3826H164.438V20.033L164.771 19.8666C164.891 19.8179 165.017 19.7843 165.145 19.7667V17.7107H164.38L163.83 18.9593C163.647 19.3547 163.421 19.7287 163.156 20.0747L162.79 20.3743H161.208V20.058L161.624 19.8416C161.967 19.4777 162.282 19.0882 162.565 18.6763L163.231 17.6774C163.062 17.6218 162.9 17.5463 162.748 17.4527C162.588 17.3678 162.442 17.2583 162.315 17.128C162.185 16.9755 162.084 16.8006 162.016 16.612C161.942 16.3893 161.905 16.1558 161.908 15.9211C161.893 15.61 161.974 15.3019 162.141 15.0388C162.294 14.7953 162.499 14.5879 162.74 14.4311C162.995 14.2709 163.277 14.1581 163.572 14.0982C163.903 14.0252 164.241 13.9889 164.579 13.99H164.829C164.934 13.9815 165.04 13.9815 165.145 13.99C165.259 13.9817 165.373 13.9817 165.487 13.99H167.21L167.26 13.965ZM164.579 17.1946C164.679 17.2064 164.78 17.2064 164.879 17.1946C164.962 17.1998 165.046 17.1998 165.129 17.1946V14.5477C165.051 14.5435 164.973 14.5435 164.896 14.5477C164.807 14.5406 164.718 14.5406 164.629 14.5477C164.463 14.5441 164.297 14.5665 164.138 14.6143C163.988 14.6632 163.849 14.7426 163.73 14.8473C163.602 14.9566 163.505 15.0971 163.447 15.2552C163.369 15.4478 163.332 15.6549 163.339 15.8628C163.31 16.2348 163.43 16.603 163.672 16.8867C163.796 16.9938 163.94 17.0749 164.096 17.125C164.252 17.175 164.416 17.1931 164.579 17.178V17.1946ZM176.899 19.7584V20.2328C176.899 20.3993 176.857 20.6074 176.84 20.7822L176.774 21.3316C176.754 21.4999 176.724 21.6667 176.682 21.831H176.324L175.825 20.3327H171.472L170.972 21.831H170.614L170.464 21.2899C170.464 21.0985 170.414 20.9154 170.398 20.7239C170.381 20.5325 170.398 20.3493 170.339 20.1746C170.281 19.9998 170.339 19.8416 170.339 19.7334H171.172C171.371 19.4319 171.533 19.1078 171.655 18.7678C171.806 18.363 171.931 17.9487 172.029 17.5276C172.133 17.0609 172.208 16.5884 172.254 16.1125C172.299 15.6201 172.316 15.1253 172.304 14.6309C172.134 14.597 171.967 14.5497 171.804 14.4894C171.639 14.434 171.48 14.3615 171.33 14.273V13.9234H176.591V14.273C176.362 14.4062 176.111 14.4964 175.85 14.5394V19.7417L176.899 19.7584ZM174.451 19.7584V14.5477H172.978C172.978 15.2552 172.895 15.8961 172.812 16.4455C172.747 16.9407 172.659 17.4324 172.545 17.9188L172.212 19.0175C172.119 19.2665 172.007 19.5085 171.879 19.7417H174.435L174.451 19.7584Z" fill="#51636C"/>
<path d="M182.076 14.5483L181.685 14.4485C181.575 14.4013 181.469 14.3456 181.369 14.282V13.9324H183.583V14.282C183.5 14.3392 183.41 14.3867 183.316 14.4235C183.197 14.4812 183.071 14.5232 182.942 14.5483L181.194 18.5021C180.985 19.054 180.671 19.56 180.27 19.9921C180.151 20.1405 179.996 20.2549 179.819 20.3236C179.642 20.3923 179.45 20.4129 179.263 20.3833C179.198 20.3177 179.144 20.2417 179.104 20.1586C179.047 20.0552 179 19.9465 178.963 19.8339C178.908 19.7299 178.872 19.6173 178.855 19.501C178.826 19.415 178.809 19.3253 178.805 19.2346L179.055 18.8601L180.137 19.193C180.19 19.1314 180.238 19.0644 180.278 18.9932C180.331 18.9102 180.373 18.8207 180.403 18.7269L177.989 14.565L177.656 14.4651C177.55 14.4215 177.45 14.3656 177.356 14.2986V13.949H180.212V14.2986C179.997 14.4234 179.764 14.5133 179.521 14.565L180.811 17.0621L181.011 17.6448L181.177 17.0372L182.076 14.5483ZM192.314 20.3583H189.584V20.0004C189.706 19.9543 189.826 19.9015 189.942 19.8423L190.317 19.7341V15.9218L190.367 14.8646H190.283L189.984 15.8385L188.236 20.3583H187.819L186.071 15.8635L185.738 14.7981H185.622V19.6924C185.756 19.7212 185.887 19.763 186.013 19.8173C186.155 19.8672 186.28 19.9422 186.404 19.9838V20.3417H184.157V19.9838L184.515 19.8173C184.646 19.7579 184.783 19.7106 184.923 19.6758V14.5483C184.789 14.5288 184.658 14.4953 184.532 14.4485C184.404 14.4185 184.285 14.3618 184.182 14.282V13.9324H186.679L188.111 17.6531L188.377 18.4855L188.644 17.5948L190.059 13.8908H192.323V14.2404L191.99 14.4068C191.875 14.4555 191.755 14.489 191.632 14.5067V19.6841C191.76 19.7086 191.885 19.7448 192.006 19.7923L192.323 19.9338V20.3084L192.314 20.3583ZM195.211 20.3583H192.964V20.0004L193.28 19.8339C193.39 19.7866 193.504 19.7504 193.621 19.7257L195.977 13.8408H196.643L198.932 19.7257C199.06 19.7502 199.185 19.7864 199.306 19.8339L199.623 20.0004V20.3583H196.768V20.0004L197.142 19.8339C197.27 19.7884 197.4 19.7523 197.533 19.7257L197.001 18.2774H194.978L194.445 19.7257C194.737 19.7596 195.02 19.8501 195.278 19.9921V20.35L195.211 20.3583ZM195.169 17.6947H196.784L196.201 15.9634L196.035 15.1809L195.844 16.0133L195.169 17.6947ZM72.1189 26.6678C72.3465 26.6708 72.5729 26.7016 72.7931 26.7593C72.9893 26.8102 73.1751 26.8947 73.3425 27.009C73.5006 27.1173 73.6293 27.2632 73.717 27.4336C73.8093 27.6342 73.8521 27.8539 73.8419 28.0745C73.8429 28.3013 73.7947 28.5257 73.7004 28.7321C73.6087 28.9043 73.481 29.0548 73.3258 29.1732C73.1603 29.2908 72.9738 29.3755 72.7765 29.4229C72.5561 29.4801 72.3298 29.5109 72.1022 29.5145V30.0639H71.6444V29.5145C71.4167 29.5126 71.1902 29.4818 70.9702 29.4229C70.7728 29.3755 70.5863 29.2908 70.4208 29.1732C70.2648 29.0767 70.1359 28.9421 70.0462 28.782C69.954 28.5814 69.9112 28.3616 69.9214 28.1411C69.9153 27.9137 69.9639 27.6882 70.0629 27.4835C70.1546 27.3112 70.2823 27.1607 70.4375 27.0423C70.6048 26.928 70.7907 26.8435 70.9868 26.7926C71.207 26.7349 71.4334 26.7041 71.6611 26.7011V26.1184H72.1189V26.6678ZM71.6611 27.0257C71.4987 27.0236 71.3367 27.0404 71.1783 27.0756C71.0401 27.1107 70.9082 27.1669 70.7871 27.2421C70.6772 27.3345 70.5867 27.4476 70.5207 27.5751C70.4485 27.7431 70.4144 27.925 70.4208 28.1078C70.4192 28.2778 70.4474 28.4469 70.5041 28.6072C70.5614 28.7355 70.6537 28.8452 70.7704 28.9235C70.8868 29.0108 71.02 29.0732 71.1616 29.1066C71.3267 29.1386 71.4934 29.1609 71.6611 29.1732V27.034V27.0257ZM72.1189 29.1899C72.2812 29.1915 72.4431 29.1748 72.6017 29.1399C72.7398 29.1048 72.8718 29.0487 72.9929 28.9735C73.0994 28.8866 73.1872 28.779 73.2509 28.6572C73.3231 28.4891 73.3572 28.3072 73.3508 28.1244C73.3524 27.9544 73.3242 27.7853 73.2676 27.625C73.2068 27.4988 73.1152 27.3901 73.0012 27.3087C72.8901 27.2161 72.7591 27.1505 72.6183 27.1173C72.4541 27.0789 72.2871 27.0538 72.1189 27.0423V29.2065V29.1899ZM75.7813 30.1055C75.6012 30.1078 75.4224 30.0744 75.2553 30.0072C75.0881 29.9401 74.9359 29.8405 74.8075 29.7143C74.6858 29.5866 74.5898 29.4369 74.5244 29.2731C74.4495 29.0853 74.4127 28.8843 74.4162 28.6821C74.4149 28.4842 74.4458 28.2874 74.5078 28.0995C74.5676 27.9292 74.6579 27.7713 74.7742 27.6333C74.8973 27.5097 75.041 27.4084 75.1987 27.3337C75.5235 27.2124 75.8811 27.2124 76.2058 27.3337C76.3587 27.3855 76.4981 27.4708 76.6137 27.5834C76.7441 27.7039 76.8416 27.8557 76.8967 28.0245C76.9767 28.2342 77.0136 28.4579 77.0049 28.6821V28.782H74.9157C74.9055 29.0447 74.9913 29.3021 75.1571 29.5062C75.2436 29.5956 75.3491 29.6644 75.4658 29.7076C75.5825 29.7508 75.7074 29.7673 75.8313 29.7559C76.2808 29.7559 76.5222 29.5894 76.5804 29.2731H76.9966C76.9844 29.4046 76.941 29.5314 76.8701 29.6428C76.7991 29.7543 76.7027 29.8472 76.5887 29.914C76.3485 30.0581 76.0687 30.1222 75.7897 30.0972L75.7813 30.1055ZM76.5804 28.3658C76.5828 28.1329 76.4931 27.9085 76.3307 27.7415C76.1679 27.6059 75.9595 27.5374 75.748 27.5501C75.6445 27.5447 75.541 27.5603 75.4437 27.5961C75.3464 27.6318 75.2574 27.687 75.182 27.7582C75.0281 27.9272 74.9293 28.1392 74.899 28.3658H76.5804ZM77.7624 30.7298H77.4128V29.6727H77.6126C77.6603 29.6621 77.7056 29.6423 77.7457 29.6144C77.7799 29.5653 77.8079 29.5122 77.829 29.4562C77.829 29.373 77.8706 29.3147 77.8873 29.2232C77.8954 29.1346 77.8954 29.0454 77.8873 28.9568C77.8873 28.7903 77.8873 28.5989 77.9372 28.4074C77.9871 28.216 77.9788 28.0162 77.9788 27.8581V27.2588H79.9099V29.7059H80.3261V30.7631H79.9682V30.0722H77.804L77.7624 30.7298ZM78.3284 28.9568C78.3192 29.1006 78.2941 29.243 78.2535 29.3813C78.2254 29.4801 78.192 29.5774 78.1536 29.6727H79.4854V27.5917H78.4449V28.6239C78.4449 28.7487 78.3617 28.8569 78.3367 28.9568H78.3284ZM82.1074 30.0972C81.919 30.0974 81.7323 30.0606 81.558 29.989C81.3966 29.9287 81.2513 29.8318 81.1335 29.7059C81.0121 29.5765 80.9136 29.4273 80.8422 29.2648C80.7734 29.0755 80.7396 28.8752 80.7423 28.6738C80.7425 28.4766 80.7706 28.2805 80.8255 28.0911C80.8885 27.9224 80.9785 27.7649 81.0919 27.625C81.2151 27.5014 81.3587 27.4 81.5164 27.3253C81.6853 27.2552 81.8662 27.2184 82.0491 27.2171C82.2132 27.2134 82.3767 27.2388 82.5319 27.2921C82.6839 27.3458 82.8229 27.4308 82.9398 27.5418C83.0694 27.6532 83.1719 27.7927 83.2394 27.9496C83.3152 28.1604 83.3519 28.3833 83.3477 28.6072V28.7737H81.2001C81.1923 29.0374 81.2811 29.295 81.4498 29.4979C81.5364 29.5872 81.6419 29.656 81.7586 29.6993C81.8753 29.7425 82.0002 29.759 82.1241 29.7476C82.5652 29.7476 82.8149 29.5811 82.8732 29.2648H83.3227C83.3051 29.3948 83.2595 29.5193 83.1891 29.63C83.1187 29.7406 83.0251 29.8347 82.9148 29.9057C82.672 30.0433 82.3942 30.107 82.1157 30.0888L82.1074 30.0972ZM82.8566 28.3492C82.8606 28.2335 82.8405 28.1182 82.7975 28.0107C82.7545 27.9032 82.6896 27.8059 82.6068 27.7249C82.4484 27.5932 82.2467 27.525 82.0408 27.5334C81.9374 27.529 81.8341 27.545 81.737 27.5808C81.6398 27.6165 81.5507 27.6711 81.4748 27.7415C81.3208 27.9106 81.2221 28.1226 81.1918 28.3492H82.8566ZM84.0718 27.2005H84.513V27.6833C84.554 27.6059 84.6107 27.5378 84.6795 27.4835C84.7451 27.4187 84.821 27.3652 84.9042 27.3253L85.1706 27.2005C85.2697 27.1837 85.371 27.1837 85.4702 27.2005C85.6463 27.2005 85.821 27.2314 85.9863 27.2921C86.1422 27.3538 86.2818 27.4506 86.3942 27.5751C86.5086 27.705 86.5988 27.8544 86.6605 28.0162C86.7318 28.2105 86.7629 28.4172 86.7521 28.6239C86.7528 28.8217 86.7219 29.0184 86.6605 29.2065C86.612 29.3817 86.5204 29.5419 86.3942 29.6727C86.2762 29.8046 86.131 29.9094 85.9686 29.9798C85.8063 30.0503 85.6305 30.0846 85.4536 30.0805C85.247 30.0851 85.0439 30.0271 84.8709 29.914C84.7253 29.8219 84.5983 29.7033 84.4963 29.5644V31.0128H84.0718V27.2005ZM85.4369 29.6976C85.557 29.7055 85.6774 29.6856 85.7885 29.6394C85.8997 29.5932 85.9987 29.522 86.0779 29.4313C86.2522 29.1904 86.3348 28.8952 86.3109 28.5989C86.3152 28.4402 86.2898 28.2821 86.236 28.1328C86.199 28.0084 86.1335 27.8943 86.0446 27.7998C85.9659 27.7097 85.8657 27.6409 85.7532 27.6C85.6491 27.5518 85.535 27.5289 85.4203 27.5334C85.2923 27.5312 85.1651 27.5538 85.0457 27.6C84.9324 27.644 84.8302 27.7121 84.746 27.7998C84.655 27.8927 84.5891 28.0073 84.5546 28.1328C84.4968 28.2868 84.4713 28.4512 84.4797 28.6155C84.4713 28.7718 84.4968 28.9279 84.5546 29.0733C84.5949 29.1988 84.66 29.3149 84.746 29.4146C84.8259 29.5054 84.9298 29.5718 85.0457 29.6061C85.1644 29.6593 85.2909 29.6931 85.4203 29.7059L85.4369 29.6976ZM88.2337 30.0972C88.1065 30.0982 87.98 30.0785 87.8591 30.0389C87.7477 30.0119 87.6447 29.9575 87.5595 29.8807C87.4684 29.8133 87.399 29.7207 87.3597 29.6144C87.3105 29.4959 87.2878 29.368 87.2931 29.2398C87.2848 29.0933 87.3291 28.9487 87.418 28.832C87.4993 28.718 87.6081 28.6264 87.7343 28.5656C87.8802 28.4915 88.038 28.4436 88.2004 28.4241C88.3733 28.391 88.5488 28.3743 88.7248 28.3741H89.141V28.1577C89.1575 27.9872 89.1067 27.8169 88.9995 27.6833C88.9388 27.6266 88.8661 27.5845 88.7868 27.56C88.7075 27.5355 88.6237 27.5292 88.5417 27.5418C88.1505 27.5418 87.9424 27.7082 87.8758 28.0412H87.4013C87.4068 27.8967 87.4499 27.7561 87.5262 27.6333C87.5916 27.5293 87.6763 27.4389 87.7759 27.367C87.8811 27.2903 87.9997 27.2338 88.1255 27.2005C88.2533 27.1675 88.3847 27.1507 88.5167 27.1505C88.6488 27.1497 88.7803 27.1665 88.9079 27.2005C89.0273 27.2372 89.1399 27.2935 89.2409 27.367C89.3483 27.4469 89.4294 27.557 89.474 27.6833C89.5393 27.8414 89.5705 28.0116 89.5655 28.1827V30.0389H89.1493V29.6893C89.0511 29.812 88.9294 29.9139 88.7914 29.989C88.6131 30.0567 88.4244 30.0933 88.2337 30.0972ZM88.2337 29.7392C88.3494 29.7403 88.4645 29.7234 88.575 29.6893C88.6655 29.6578 88.7521 29.6159 88.833 29.5644C88.906 29.5033 88.9679 29.4301 89.0161 29.348C89.0568 29.259 89.0795 29.1628 89.0827 29.065V28.7071H88.6915C88.5641 28.6976 88.4361 28.6976 88.3086 28.7071C88.1977 28.7229 88.0888 28.7508 87.984 28.7903C87.9003 28.8329 87.8288 28.8959 87.7759 28.9735C87.7193 29.0502 87.6927 29.1449 87.701 29.2398C87.6957 29.3036 87.7041 29.3678 87.7256 29.4281C87.7472 29.4884 87.7813 29.5434 87.8258 29.5894C87.9419 29.6825 88.0851 29.7351 88.2337 29.7392ZM91.0055 28.9485C90.9889 29.2347 90.9241 29.5161 90.8141 29.7809C90.7658 29.8701 90.6933 29.944 90.605 29.9941C90.5167 30.0441 90.4161 30.0683 90.3147 30.0639C90.2679 30.0731 90.2199 30.0731 90.1732 30.0639V29.6144H90.298C90.3498 29.6159 90.4002 29.5981 90.4395 29.5644C90.4832 29.5205 90.5148 29.466 90.5311 29.4063C90.5311 29.3231 90.5311 29.2648 90.581 29.1732C90.631 29.0817 90.581 29.0067 90.581 28.8902C90.6086 28.7084 90.6225 28.5248 90.6226 28.3409V27.1755H92.4872V30.0056H92.0377V27.5584H91.0971C91.1048 27.6637 91.1048 27.7694 91.0971 27.8747C91.105 27.9939 91.105 28.1135 91.0971 28.2326V28.5906C91.0551 28.6981 91.0244 28.8097 91.0055 28.9235V28.9485ZM93.4527 27.2005H93.9022V28.1993H94.4016C94.5446 28.1995 94.6871 28.2163 94.8261 28.2493C94.9483 28.2815 95.0639 28.3351 95.1674 28.4074C95.2583 28.4901 95.3368 28.5854 95.4005 28.6904C95.4567 28.8248 95.4851 28.9693 95.4837 29.115C95.4835 29.2605 95.4553 29.4046 95.4005 29.5395C95.3389 29.646 95.2602 29.7416 95.1674 29.8225C95.0639 29.8949 94.9483 29.9484 94.8261 29.9806C94.6874 30.0155 94.5447 30.0322 94.4016 30.0306H93.4444V27.2005H93.4527ZM94.4266 29.6976C94.5991 29.7082 94.7699 29.6582 94.9094 29.5561C95.0086 29.4442 95.0595 29.2976 95.0509 29.1483C95.0564 29.0717 95.0468 28.9947 95.0225 28.9219C94.9982 28.849 94.9598 28.7817 94.9094 28.7237C94.7789 28.6228 94.6163 28.5725 94.4516 28.5822H93.9189V29.7226L94.4266 29.6976ZM97.9559 28.782H96.5575V30.0306H96.1163V27.2005H96.5575V28.3908H97.9392V27.2005H98.3887V30.0306H97.9392L97.9559 28.782ZM100.536 30.0972C100.348 30.0959 100.162 30.0592 99.9869 29.989C99.8182 29.9209 99.6662 29.8172 99.5413 29.6851C99.4163 29.5529 99.3213 29.3954 99.2627 29.2232C99.1887 29.0438 99.1518 28.8512 99.1545 28.6572C99.1503 28.4576 99.1871 28.2592 99.2627 28.0745C99.325 27.9018 99.4212 27.7433 99.5457 27.6084C99.6697 27.4781 99.8201 27.3759 99.9869 27.3087C100.161 27.2362 100.348 27.1994 100.536 27.2005C100.725 27.1962 100.913 27.2331 101.086 27.3087C101.256 27.3736 101.41 27.476 101.535 27.6084C101.66 27.7433 101.756 27.9018 101.818 28.0745C101.963 28.4494 101.963 28.8649 101.818 29.2398C101.757 29.4167 101.654 29.5765 101.518 29.7059C101.393 29.8383 101.239 29.9407 101.069 30.0056C100.898 30.0666 100.718 30.0976 100.536 30.0972ZM100.536 29.7059C100.668 29.7117 100.799 29.686 100.919 29.631C101.03 29.5875 101.128 29.5158 101.202 29.4229C101.286 29.3227 101.348 29.2066 101.385 29.0817C101.425 28.9435 101.447 28.8009 101.452 28.6572C101.455 28.5073 101.433 28.3581 101.385 28.216C101.337 28.0255 101.222 27.8583 101.062 27.744C100.902 27.6298 100.707 27.5758 100.511 27.5917C100.38 27.586 100.248 27.6117 100.128 27.6666C100.015 27.7092 99.9142 27.781 99.8371 27.8747C99.7592 27.9774 99.7001 28.0929 99.6623 28.216C99.6204 28.3594 99.598 28.5078 99.5957 28.6572C99.5846 28.9379 99.6697 29.2139 99.8371 29.4396C99.9318 29.5331 100.045 29.6053 100.17 29.6512C100.295 29.6972 100.429 29.7158 100.561 29.7059H100.536ZM103.117 27.5917V30.0389H102.675V27.2088H104.465V27.5834H103.117V27.5917ZM106.23 30.0888C106.041 30.0884 105.855 30.0517 105.68 29.9806C105.515 29.9103 105.365 29.8086 105.239 29.681C105.112 29.5484 105.015 29.3892 104.956 29.2148C104.882 29.0355 104.845 28.8429 104.848 28.6488C104.844 28.4492 104.881 28.2509 104.956 28.0662C105.015 27.894 105.11 27.7364 105.235 27.6043C105.36 27.4721 105.512 27.3685 105.68 27.3004C105.854 27.227 106.041 27.1901 106.23 27.1922C106.419 27.1879 106.606 27.2248 106.779 27.3004C106.948 27.3634 107.099 27.4662 107.22 27.6C107.347 27.7345 107.446 27.8929 107.512 28.0662C107.58 28.2526 107.614 28.4501 107.611 28.6488C107.614 28.8475 107.58 29.0451 107.512 29.2315C107.446 29.4047 107.347 29.5632 107.22 29.6976C107.099 29.8315 106.948 29.9342 106.779 29.9973C106.602 30.0554 106.416 30.0863 106.23 30.0888ZM106.23 29.6976C106.364 29.7025 106.498 29.6769 106.621 29.6227C106.732 29.5792 106.829 29.5075 106.904 29.4146C106.985 29.3139 107.044 29.1978 107.079 29.0733C107.125 28.9365 107.15 28.7933 107.154 28.6488C107.159 28.4982 107.133 28.3482 107.079 28.2077C107.045 28.0794 106.979 27.9619 106.887 27.8664C106.807 27.7802 106.711 27.7096 106.604 27.6583C106.482 27.602 106.348 27.5763 106.213 27.5834C106.079 27.5785 105.945 27.6041 105.822 27.6583C105.708 27.7047 105.605 27.7757 105.522 27.8664C105.441 27.9671 105.382 28.0832 105.347 28.2077C105.299 28.3497 105.274 28.4987 105.272 28.6488C105.264 28.9304 105.353 29.2064 105.522 29.4313C105.715 29.6086 105.968 29.7041 106.23 29.6976ZM111.39 30.0888C111.132 30.0875 110.875 30.0396 110.633 29.9473C110.419 29.8578 110.226 29.7245 110.067 29.5561C109.898 29.381 109.775 29.1665 109.709 28.9318C109.617 28.6643 109.575 28.3822 109.584 28.0995C109.58 27.8157 109.628 27.5335 109.726 27.2671C109.81 27.0373 109.937 26.8255 110.1 26.6428C110.272 26.4781 110.48 26.3556 110.708 26.2849C110.939 26.1948 111.184 26.1468 111.432 26.1434C111.627 26.1481 111.82 26.1789 112.006 26.2349C112.175 26.2888 112.335 26.3674 112.481 26.468C112.623 26.5758 112.744 26.7084 112.839 26.8592C112.929 27.0292 112.983 27.2164 112.997 27.4086H112.539C112.51 27.1549 112.388 26.9209 112.198 26.751C111.977 26.5866 111.707 26.5042 111.432 26.5179C111.243 26.5152 111.056 26.552 110.883 26.6262C110.719 26.6981 110.574 26.8063 110.458 26.9425C110.334 27.0876 110.243 27.258 110.192 27.4419C110.129 27.6552 110.101 27.8772 110.109 28.0995C110.109 28.3213 110.136 28.5422 110.192 28.757C110.245 28.9401 110.336 29.1102 110.458 29.2565C110.574 29.3926 110.719 29.5008 110.883 29.5728C111.065 29.6454 111.26 29.6821 111.457 29.681C111.734 29.696 112.008 29.6135 112.231 29.4479C112.341 29.3631 112.433 29.2565 112.5 29.1348C112.568 29.0131 112.609 28.8788 112.622 28.7404H113.064C113.046 28.9321 112.991 29.1184 112.901 29.2884C112.811 29.4585 112.688 29.6089 112.539 29.7309C112.21 29.9886 111.799 30.1187 111.382 30.0972L111.39 30.0888Z" fill="#51636C"/>
<path d="M114.928 30.0972C114.74 30.096 114.553 30.0593 114.379 29.989C114.21 29.9209 114.058 29.8172 113.933 29.6851C113.808 29.5529 113.713 29.3954 113.654 29.2232C113.58 29.0438 113.544 28.8512 113.546 28.6572C113.542 28.4576 113.579 28.2593 113.654 28.0745C113.717 27.9018 113.813 27.7433 113.937 27.6084C114.061 27.4781 114.212 27.3759 114.379 27.3087C114.553 27.2362 114.739 27.1994 114.928 27.2005C115.117 27.1962 115.304 27.2331 115.477 27.3087C115.648 27.3736 115.801 27.476 115.927 27.6084C116.051 27.7433 116.148 27.9018 116.21 28.0745C116.355 28.4494 116.355 28.865 116.21 29.2399C116.148 29.4126 116.051 29.5711 115.927 29.706C115.801 29.8383 115.648 29.9407 115.477 30.0056C115.3 30.065 115.115 30.096 114.928 30.0972ZM114.928 29.706C115.06 29.7117 115.191 29.686 115.311 29.6311C115.423 29.5854 115.523 29.5141 115.602 29.423C115.68 29.3203 115.739 29.2048 115.777 29.0817C115.817 28.9435 115.839 28.8009 115.844 28.6572C115.847 28.5074 115.825 28.3581 115.777 28.216C115.744 28.0937 115.683 27.9807 115.599 27.8855C115.516 27.7903 115.411 27.7154 115.294 27.6667C115.046 27.5671 114.769 27.5671 114.52 27.6667C114.406 27.7092 114.306 27.781 114.229 27.8748C114.151 27.9774 114.092 28.0929 114.054 28.216C114.012 28.3594 113.99 28.5078 113.987 28.6572C113.976 28.9379 114.061 29.214 114.229 29.4396C114.323 29.5331 114.437 29.6053 114.562 29.6512C114.687 29.6972 114.82 29.7159 114.953 29.706H114.928ZM118.299 30.0972C118.112 30.0939 117.927 30.063 117.75 30.0056C117.58 29.9444 117.428 29.8414 117.309 29.706C117.177 29.5571 117.08 29.3808 117.026 29.1899C116.948 28.9508 116.912 28.7004 116.917 28.4491V28.266C116.918 27.9878 116.934 27.7098 116.967 27.4336C116.997 27.1714 117.076 26.9171 117.2 26.6845C117.312 26.4678 117.479 26.2842 117.683 26.1517C117.934 25.9995 118.222 25.9216 118.516 25.927H119.098C119.213 25.918 119.326 25.8899 119.431 25.8438L119.489 26.2183C119.369 26.267 119.243 26.3006 119.115 26.3182C118.957 26.3279 118.798 26.3279 118.64 26.3182H118.532C118.337 26.3217 118.145 26.3642 117.966 26.4431C117.812 26.5085 117.682 26.6187 117.592 26.7594C117.495 26.9142 117.422 27.0825 117.375 27.2588C117.318 27.4846 117.29 27.7168 117.292 27.9497C117.384 27.7511 117.531 27.5834 117.716 27.4669C117.919 27.3441 118.154 27.2833 118.391 27.2921C118.574 27.2886 118.756 27.3255 118.923 27.4003C119.079 27.462 119.219 27.5589 119.331 27.6833C119.442 27.8156 119.532 27.9645 119.598 28.1245C119.655 28.3021 119.686 28.4872 119.689 28.6738C119.69 28.8812 119.653 29.0871 119.581 29.2815C119.517 29.4457 119.42 29.5956 119.298 29.7226C119.169 29.8469 119.016 29.9433 118.848 30.0056C118.673 30.0697 118.486 30.1007 118.299 30.0972ZM118.299 29.706C118.424 29.7124 118.549 29.692 118.665 29.646C118.781 29.6001 118.887 29.5297 118.973 29.4396C119.151 29.2189 119.24 28.94 119.223 28.6572C119.25 28.4057 119.181 28.1534 119.032 27.9497C118.952 27.8573 118.852 27.785 118.739 27.7387C118.626 27.6924 118.504 27.6734 118.382 27.6833C118.249 27.6739 118.116 27.6945 117.992 27.7435C117.868 27.7925 117.757 27.8686 117.666 27.9663C117.483 28.1749 117.388 28.4463 117.4 28.7238C117.389 28.9906 117.478 29.252 117.65 29.4563C117.739 29.5398 117.844 29.6049 117.958 29.6478C118.072 29.6906 118.194 29.7104 118.316 29.706H118.299ZM120.447 27.2088H120.888V27.6916C120.928 27.6163 120.982 27.5487 121.046 27.4919C121.116 27.4289 121.195 27.3757 121.279 27.3337L121.529 27.2088C121.628 27.1921 121.729 27.1921 121.828 27.2088C122.004 27.2088 122.179 27.2398 122.344 27.3004C122.5 27.3621 122.64 27.459 122.752 27.5834C122.867 27.7134 122.957 27.8628 123.019 28.0246C123.09 28.2189 123.121 28.4256 123.11 28.6322C123.107 28.8297 123.076 29.0258 123.019 29.2149C122.97 29.39 122.879 29.5503 122.752 29.681C122.634 29.813 122.489 29.9178 122.327 29.9882C122.164 30.0586 121.989 30.093 121.812 30.0889C121.605 30.0935 121.402 30.0354 121.229 29.9224C121.084 29.8302 120.956 29.7117 120.855 29.5728V31.0211H120.413V27.2005L120.447 27.2088ZM121.812 29.706C121.932 29.7139 122.052 29.694 122.163 29.6478C122.275 29.6016 122.374 29.5303 122.453 29.4396C122.623 29.1973 122.703 28.9025 122.677 28.6072C122.684 28.4491 122.662 28.291 122.611 28.1411C122.574 28.0167 122.508 27.9027 122.419 27.8082C122.341 27.718 122.24 27.6493 122.128 27.6084C122.024 27.5601 121.91 27.5373 121.795 27.5418C121.667 27.5396 121.54 27.5622 121.421 27.6084C121.307 27.6523 121.205 27.7205 121.121 27.8082C121.03 27.9011 120.964 28.0157 120.929 28.1411C120.872 28.2952 120.846 28.4595 120.855 28.6239C120.846 28.7801 120.872 28.9363 120.929 29.0817C120.97 29.2071 121.035 29.3232 121.121 29.423C121.201 29.5138 121.305 29.5801 121.421 29.6144C121.544 29.6694 121.677 29.7032 121.812 29.7143V29.706ZM124.609 30.1055C124.481 30.1065 124.355 30.0868 124.234 30.0473C124.122 30.0202 124.02 29.9659 123.934 29.8891C123.841 29.8239 123.771 29.7306 123.735 29.6227C123.685 29.5042 123.663 29.3764 123.668 29.2482C123.66 29.1017 123.704 28.9571 123.793 28.8403C123.874 28.7263 123.983 28.6347 124.109 28.5739C124.252 28.5009 124.407 28.4531 124.567 28.4324C124.743 28.3997 124.921 28.383 125.1 28.3825H125.516V28.1661C125.532 27.9955 125.481 27.8253 125.374 27.6916C125.313 27.636 125.24 27.5945 125.161 27.57C125.082 27.5456 124.999 27.5388 124.917 27.5501C124.525 27.5501 124.309 27.7166 124.251 28.0496H123.809C123.815 27.9051 123.858 27.7645 123.934 27.6417C123.999 27.54 124.081 27.4499 124.176 27.3753C124.285 27.3002 124.406 27.2439 124.534 27.2088C124.661 27.1759 124.793 27.1591 124.925 27.1589C125.057 27.158 125.188 27.1748 125.316 27.2088C125.435 27.2456 125.548 27.3018 125.649 27.3753C125.756 27.4553 125.838 27.5654 125.882 27.6916C125.943 27.851 125.974 28.0203 125.974 28.1911V30.0473H125.524V29.6977C125.431 29.8218 125.312 29.9241 125.175 29.9973C124.994 30.0676 124.802 30.1042 124.609 30.1055ZM124.658 29.7476C124.771 29.7491 124.884 29.7323 124.991 29.6977C125.085 29.6677 125.175 29.6257 125.258 29.5728C125.331 29.5117 125.393 29.4385 125.441 29.3564C125.482 29.2674 125.504 29.1712 125.507 29.0734V28.7155H125.116C124.989 28.7059 124.861 28.7059 124.733 28.7155C124.622 28.7312 124.514 28.7592 124.409 28.7987C124.325 28.8412 124.254 28.9042 124.201 28.9818C124.144 29.0585 124.117 29.1532 124.126 29.2482C124.12 29.312 124.129 29.3762 124.15 29.4365C124.172 29.4968 124.206 29.5518 124.251 29.5978C124.366 29.6919 124.51 29.7447 124.658 29.7476ZM128.654 28.7904H127.272V30.0389H126.831V27.2088H127.272V28.3992H128.654V27.2005H129.103V30.0306H128.654V28.7904ZM130.002 30.0389V27.2088H130.452V29.3897L131.9 27.2088H132.35V30.0389H131.9V27.8748L130.452 30.0556L130.002 30.0389ZM133.448 30.0389H132.932L133.765 28.857L133.557 28.7737C133.48 28.7344 133.407 28.687 133.34 28.6322C133.216 28.4825 133.148 28.294 133.149 28.0995C133.147 27.9645 133.175 27.8309 133.232 27.7083C133.29 27.6038 133.369 27.513 133.465 27.4419C133.564 27.3663 133.677 27.3124 133.798 27.2838C133.936 27.2461 134.079 27.2265 134.222 27.2255H135.188V30.0556H134.722V28.9069H134.247L133.448 30.0389ZM134.198 27.5418C134.036 27.5345 133.875 27.5781 133.74 27.6667C133.691 27.7188 133.653 27.7804 133.629 27.8476C133.604 27.9149 133.594 27.9865 133.598 28.0579C133.594 28.1243 133.604 28.1908 133.629 28.2527C133.653 28.3146 133.691 28.3703 133.74 28.4158C133.877 28.5141 134.046 28.5585 134.214 28.5407H134.747V27.5584H134.198V27.5418ZM137.594 26.185H138.692C138.867 26.181 139.041 26.2034 139.208 26.2516C139.361 26.2908 139.505 26.3586 139.633 26.4514C139.758 26.5397 139.855 26.6607 139.916 26.801C139.992 26.962 140.03 27.1389 140.024 27.3171C140.032 27.5008 139.995 27.6837 139.916 27.8498C139.848 27.9876 139.751 28.1095 139.633 28.2077C139.505 28.2979 139.361 28.3629 139.208 28.3992C139.04 28.4462 138.867 28.4714 138.692 28.4741H138.076V30.0556H137.594V26.185ZM138.717 28.0995C138.946 28.1135 139.171 28.0423 139.35 27.8997C139.426 27.8273 139.484 27.7389 139.522 27.6411C139.559 27.5432 139.574 27.4382 139.566 27.3337C139.576 27.2251 139.56 27.1157 139.52 27.0144C139.479 26.9131 139.415 26.8229 139.333 26.751C139.151 26.6305 138.936 26.5694 138.717 26.5762H138.051V28.1161L138.717 28.0995ZM141.855 30.0972C141.667 30.0974 141.48 30.0607 141.306 29.989C141.137 29.9209 140.984 29.8189 140.857 29.6893C140.732 29.5544 140.636 29.3959 140.574 29.2232C140.503 29.0427 140.467 28.8509 140.465 28.6572C140.465 28.458 140.502 28.2604 140.574 28.0745C140.636 27.9018 140.732 27.7433 140.857 27.6084C140.982 27.476 141.136 27.3736 141.306 27.3087C141.48 27.2346 141.667 27.1978 141.855 27.2005C142.044 27.197 142.231 27.2339 142.405 27.3087C142.573 27.3768 142.725 27.4805 142.85 27.6126C142.975 27.7448 143.07 27.9023 143.129 28.0745C143.205 28.2593 143.241 28.4576 143.237 28.6572C143.241 28.8568 143.205 29.0551 143.129 29.2399C143.071 29.4183 142.967 29.5788 142.829 29.706C142.705 29.8363 142.555 29.9385 142.388 30.0056C142.216 30.0623 142.037 30.0932 141.855 30.0972ZM141.855 29.706C141.99 29.7109 142.124 29.6853 142.247 29.6311C142.355 29.5826 142.451 29.5117 142.53 29.423C142.607 29.3203 142.667 29.2048 142.704 29.0817C142.744 28.9435 142.766 28.8009 142.771 28.6572C142.775 28.5074 142.752 28.3581 142.704 28.216C142.656 28.027 142.543 27.861 142.385 27.7469C142.227 27.6328 142.033 27.5779 141.839 27.5917C141.704 27.5847 141.57 27.6104 141.448 27.6667C141.335 27.7071 141.237 27.7794 141.165 27.8748C141.084 27.977 141.022 28.0925 140.981 28.216C140.94 28.3594 140.917 28.5078 140.915 28.6572C140.903 28.9394 140.991 29.2167 141.165 29.4396C141.256 29.5285 141.364 29.5979 141.483 29.6436C141.601 29.6894 141.728 29.7106 141.855 29.706ZM145.185 30.0972C144.997 30.0968 144.81 30.06 144.636 29.989C144.473 29.9206 144.324 29.8248 144.194 29.706C144.067 29.5827 143.97 29.4317 143.911 29.2648C143.835 29.0716 143.798 28.8649 143.803 28.6572C143.799 28.4576 143.836 28.2593 143.911 28.0745C143.976 27.8992 144.078 27.7401 144.211 27.6084C144.338 27.4791 144.49 27.3765 144.657 27.3065C144.824 27.2365 145.004 27.2004 145.185 27.2005C145.328 27.1994 145.471 27.219 145.609 27.2588C145.747 27.2846 145.876 27.3448 145.984 27.4336C146.098 27.5123 146.195 27.6145 146.267 27.7332C146.347 27.8736 146.396 28.0299 146.409 28.1911H145.967C145.958 28.0978 145.93 28.0075 145.884 27.9258C145.838 27.8441 145.776 27.7728 145.701 27.7166C145.546 27.6205 145.367 27.5713 145.185 27.5751C145.065 27.5718 144.946 27.5945 144.835 27.6417C144.725 27.6944 144.626 27.7679 144.544 27.8581C144.458 27.9545 144.392 28.0679 144.353 28.1911C144.304 28.3357 144.281 28.4879 144.286 28.6405C144.266 28.9223 144.352 29.2014 144.527 29.423C144.616 29.5109 144.721 29.5799 144.837 29.6257C144.953 29.6715 145.077 29.6932 145.202 29.6893C145.295 29.7032 145.391 29.7032 145.485 29.6893C145.573 29.6623 145.657 29.6231 145.734 29.5728C145.812 29.5168 145.875 29.4425 145.917 29.3564C145.964 29.2626 145.992 29.161 146.001 29.0567H146.417C146.407 29.2057 146.365 29.3507 146.292 29.4812C146.227 29.6093 146.136 29.7226 146.026 29.8142C145.916 29.9097 145.792 29.9883 145.659 30.0473C145.502 30.0874 145.339 30.1042 145.177 30.0972H145.185ZM148.331 30.0972C148.143 30.096 147.957 30.0593 147.782 29.989C147.62 29.9206 147.471 29.8248 147.341 29.706C147.214 29.5827 147.117 29.4317 147.058 29.2648C146.985 29.0704 146.949 28.8646 146.95 28.6572C146.949 28.458 146.986 28.2604 147.058 28.0745C147.162 27.8205 147.338 27.6024 147.564 27.4471C147.79 27.2918 148.057 27.2061 148.331 27.2005C148.478 27.1994 148.623 27.219 148.764 27.2588C148.899 27.2859 149.025 27.346 149.13 27.4336C149.245 27.5123 149.341 27.6145 149.413 27.7332C149.494 27.8736 149.542 28.0299 149.555 28.1911H149.114C149.105 28.0978 149.076 28.0075 149.031 27.9258C148.985 27.8441 148.922 27.7728 148.847 27.7166C148.693 27.6205 148.513 27.5713 148.331 27.5751C148.212 27.5741 148.093 27.5988 147.984 27.6476C147.875 27.6965 147.778 27.7683 147.699 27.8581C147.609 27.9538 147.541 28.0673 147.499 28.1911C147.45 28.3357 147.427 28.4879 147.432 28.6405C147.42 28.7823 147.437 28.9251 147.483 29.0598C147.529 29.1945 147.602 29.3182 147.699 29.423C147.786 29.5117 147.892 29.5813 148.008 29.6271C148.124 29.673 148.248 29.6942 148.373 29.6893C148.467 29.702 148.562 29.702 148.656 29.6893C148.743 29.659 148.827 29.62 148.906 29.5728C148.981 29.5166 149.041 29.4421 149.08 29.3564C149.127 29.2621 149.158 29.1609 149.172 29.0567H149.588C149.574 29.205 149.532 29.3492 149.463 29.4812C149.396 29.6076 149.305 29.7204 149.197 29.8142C149.083 29.9082 148.957 29.9865 148.822 30.0473C148.659 30.087 148.491 30.1038 148.323 30.0972H148.331Z" fill="#51636C"/>
<path d="M55.5696 32.885V6.68169H47.8451V8.155H41.519V9.77813H37.1907V6.68169H30.8812V5.14179H28.7337V3.64351L31.6803 2.69459V0.480469L28.7337 1.45435H28.3591V5.14179H26.2282V6.69001H20.0603V9.76981H15.5072V8.22159H9.28102V6.68169H1.5399V32.9432H0V34.5247H57.1011V32.8933L55.5696 32.885ZM3.12974 29.8052H7.77441V31.3284H3.0798L3.12974 29.8052ZM7.77441 28.2486H6.1596V11.3014H7.74112L7.77441 28.2486ZM49.4349 28.2486V11.3014H50.9832V28.2819L49.4349 28.2486ZM47.8867 31.3284H46.3052V12.833H47.8368L47.8867 31.3284ZM15.424 26.6671H16.9805V31.3451H15.399L15.424 26.6671ZM18.5287 26.6671H20.0603V31.3451H18.5121L18.5287 26.6671ZM21.6085 12.8163H23.1901V31.3617H21.6085V12.8163ZM24.7383 26.717H26.2865V31.3451H24.7216L24.7383 26.717ZM29.3663 12.7913V25.1688H27.8014V12.833L29.3663 12.7913ZM30.9145 26.717H32.4378V31.3451H30.8812L30.9145 26.717ZM33.961 12.8163H35.5176V31.3617H33.9361L33.961 12.8163ZM37.0658 26.717H38.6223V31.3451H37.0408L37.0658 26.717ZM40.1622 26.717H41.7188V31.3451H40.1373L40.1622 26.717ZM43.267 12.8163H44.8152V31.3617H43.2504L43.267 12.8163ZM41.7021 25.1855H40.1456V12.8663H41.7021V25.1855ZM38.6223 25.1855H37.0741V12.8663H38.6223V25.1855ZM32.4211 25.1855H30.8812V12.833H32.4045L32.4211 25.1855ZM26.2615 25.1855H24.7216V12.833H26.2699L26.2615 25.1855ZM20.0603 25.1855H18.5121V12.8663H20.0603V25.1855ZM16.9639 25.1855H15.399V12.8663H16.9805L16.9639 25.1855ZM13.8841 12.8663V31.3617H12.3858V12.833H13.8341L13.8841 12.8663ZM49.3933 31.37V29.8468H54.0213V31.37H49.3933ZM54.0213 28.2902H52.4898V11.3014H54.0213V28.2902ZM10.8376 12.833V31.3617H9.28102V12.833H10.8376ZM4.61138 11.3014V28.2569H3.0798V11.3014H4.61138Z" fill="#51636C"/>
</svg>
