<svg width="90" height="57" viewBox="0 0 90 57" fill="none" xmlns="http://www.w3.org/2000/svg">
<path fill-rule="evenodd" clip-rule="evenodd" d="M23.5274 32.0701C26.8124 27.3795 28.5699 21.7894 28.5601 16.0628C28.5601 10.1208 26.7553 4.95629 23.5274 0C20.605 4.66475 18.7447 9.54468 18.5711 14.9799C18.3745 21.054 20.1178 27.0329 23.5483 32.0493L23.5274 32.0701ZM23.5274 30.9109C22.6105 29.1142 22.1346 27.1249 22.1391 25.1077C22.1287 23.0943 22.605 21.1082 23.5274 19.3184C24.4285 21.1235 24.9034 23.1112 24.9158 25.1285C24.9029 27.1503 24.428 29.1424 23.5274 30.9525V30.9109ZM19.7859 14.8689C20.1643 10.534 21.4308 6.32331 23.5066 2.49897C25.8237 6.55434 27.1375 11.105 27.3384 15.7713C27.436 17.8847 27.254 20.0017 26.7969 22.0673C26.9008 19.976 26.7634 17.8797 26.3874 15.8199C25.8456 12.9797 24.8742 10.2388 23.5066 7.69128C22.3076 9.99894 21.4095 12.4508 20.8341 14.9869C20.3603 17.3256 20.1461 19.7094 20.1955 22.0951C19.7995 19.7104 19.6622 17.29 19.7859 14.8758V14.8689Z" fill="#51636C"/>
<path fill-rule="evenodd" clip-rule="evenodd" d="M18.4114 37.9771C18.8068 37.5114 19.3103 37.1496 19.8778 36.9233C20.4453 36.697 21.0596 36.6131 21.667 36.679C23.8744 36.8942 25.2835 38.2062 25.4015 40.3928C25.6167 44.5577 20.0773 47.1122 16.6135 46.9179C14.3738 46.8892 12.2191 46.0558 10.5431 44.5697C8.86714 43.0836 7.78178 41.0442 7.4853 38.824C7.28143 37.3843 7.40323 35.9171 7.84174 34.5307C8.28024 33.1443 9.02427 31.874 10.019 30.8134C10.9783 29.8425 12.1257 29.0776 13.3909 28.5656C14.6561 28.0535 16.0125 27.8051 17.3771 27.8354V15.292C7.9851 15.292 1.05045 21.9282 0.543714 31.0494C0.0161528 41.2049 7.39506 48.0979 16.8009 48.4034C21.8197 48.6116 25.5334 46.7443 29.0042 43.5096V32.6946H18.4114V37.9771Z" fill="#51636C"/>
<path fill-rule="evenodd" clip-rule="evenodd" d="M31.4893 48.0638H34.6269V35.1663H36.0707V32.709H31.4893V48.0638Z" fill="#51636C"/>
<path fill-rule="evenodd" clip-rule="evenodd" d="M37.6881 32.709L36.2026 48.0638H38.9793L39.3055 45.2871H40.5203L40.8604 48.0638H43.6371L42.1932 32.709H37.6881ZM39.4166 42.4342L39.8331 36.8809H39.9858L40.4231 42.4342H39.4166Z" fill="#51636C"/>
<path fill-rule="evenodd" clip-rule="evenodd" d="M51.0438 40.1508V39.9773C51.738 39.8662 51.738 38.5126 51.738 37.8948V35.4236C51.738 33.5424 51.6061 32.6816 49.4195 32.6816H46.7817C44.5743 32.6816 44.4424 33.7854 44.4424 35.4236V37.506H47.58V35.7706C47.5772 35.7042 47.5878 35.6379 47.6113 35.5756C47.6349 35.5134 47.6707 35.4566 47.7168 35.4086C47.7628 35.3606 47.8181 35.3224 47.8793 35.2964C47.9405 35.2703 48.0063 35.2569 48.0728 35.257C48.1397 35.2569 48.2058 35.2703 48.2674 35.2963C48.3289 35.3223 48.3846 35.3603 48.4312 35.4082C48.4778 35.4561 48.5144 35.5129 48.5386 35.5751C48.5629 35.6374 48.5745 35.7039 48.5726 35.7706V37.5963C48.5726 38.5473 48.2672 38.7416 47.3717 38.7416H46.7817V41.4211H47.3162C48.4963 41.4211 48.5726 41.9556 48.5726 42.4346V45.2112C48.5755 45.2783 48.5646 45.3452 48.5407 45.4079C48.5167 45.4705 48.4802 45.5277 48.4335 45.5758C48.3867 45.6239 48.3305 45.6619 48.2685 45.6875C48.2065 45.7132 48.1399 45.7259 48.0728 45.7249C48.006 45.7259 47.9397 45.7132 47.8781 45.6875C47.8164 45.6618 47.7607 45.6237 47.7145 45.5754C47.6682 45.5272 47.6324 45.47 47.6093 45.4073C47.5861 45.3447 47.5762 45.2779 47.58 45.2112V42.4901H44.4424V45.3084C44.4424 47.495 44.5743 48.085 46.7817 48.085H49.3917C51.4048 48.085 51.7102 47.7032 51.7102 45.3084V42.2263C51.7102 41.671 51.8074 40.1438 51.0161 40.1438L51.0438 40.1508Z" fill="#51636C"/>
<path fill-rule="evenodd" clip-rule="evenodd" d="M53.1191 48.0638H56.2567V35.201H57.2494V48.0638H60.387V32.709H53.1191V48.0638Z" fill="#51636C"/>
<path fill-rule="evenodd" clip-rule="evenodd" d="M66.9539 32.7094H62.0254V48.0642H65.163V42.8372H66.9539C69.1544 42.8372 69.2863 41.8445 69.2863 40.0606V35.4236C69.2863 34.07 69.1544 32.6816 66.9539 32.6816V32.7094ZM66.1487 39.651C66.1487 40.1438 65.9057 40.4285 65.5587 40.4285H65.163V35.1667H65.5587C65.9057 35.1667 66.1487 35.4513 66.1487 35.9303V39.6788V39.651Z" fill="#51636C"/>
<path fill-rule="evenodd" clip-rule="evenodd" d="M75.5477 32.7094H72.9446C70.758 32.7094 70.6191 33.9658 70.6191 35.4166V45.3084C70.6191 47.0924 70.758 48.085 72.9446 48.085H75.5477C77.7551 48.085 77.887 47.2312 77.887 45.3084V35.4236C77.887 33.9381 77.7551 32.6816 75.5477 32.6816V32.7094ZM74.7494 45.1418C74.7494 45.2725 74.6975 45.3979 74.605 45.4903C74.5126 45.5827 74.3872 45.6346 74.2565 45.6346C74.1908 45.6387 74.1249 45.6287 74.0632 45.6054C74.0016 45.5821 73.9456 45.5459 73.899 45.4993C73.8524 45.4527 73.8163 45.3967 73.7929 45.3351C73.7696 45.2735 73.7596 45.2076 73.7637 45.1418V35.7012C73.7586 35.6349 73.7678 35.5682 73.7907 35.5058C73.8135 35.4433 73.8495 35.3864 73.8962 35.3391C73.943 35.2917 73.9993 35.2549 74.0615 35.2311C74.1236 35.2074 74.1901 35.1973 74.2565 35.2014C74.3218 35.2014 74.3865 35.2144 74.4468 35.2396C74.507 35.2648 74.5617 35.3017 74.6075 35.3482C74.6534 35.3947 74.6895 35.4499 74.7139 35.5105C74.7382 35.5711 74.7503 35.6359 74.7494 35.7012V45.1418Z" fill="#51636C"/>
<path fill-rule="evenodd" clip-rule="evenodd" d="M85.8419 32.709L84.5855 39.7339L83.4471 32.709H79.3516V48.0638H82.51V41.1014H82.628L83.6762 48.0638H85.599L86.6819 41.1014H86.7929V48.0638H89.9305V32.709H85.8419Z" fill="#51636C"/>
<path fill-rule="evenodd" clip-rule="evenodd" d="M2.36922 52.4017C2.41441 52.3997 2.45952 52.4072 2.50168 52.4236C2.54384 52.44 2.58213 52.465 2.61411 52.497C2.6461 52.5289 2.67108 52.5672 2.68748 52.6094C2.70388 52.6516 2.71133 52.6967 2.70936 52.7419V54.7757C2.71226 54.8218 2.70555 54.868 2.68967 54.9113C2.67378 54.9546 2.64907 54.9942 2.61709 55.0275C2.58511 55.0608 2.54657 55.0871 2.5039 55.1047C2.46123 55.1223 2.41537 55.1308 2.36922 55.1298C2.32366 55.1298 2.27856 55.1206 2.23671 55.1026C2.19487 55.0845 2.15717 55.0581 2.12594 55.0249C2.09471 54.9917 2.07062 54.9525 2.05515 54.9097C2.03969 54.8668 2.03318 54.8212 2.03603 54.7757V52.7766C2.03305 52.7317 2.03957 52.6867 2.05517 52.6446C2.07076 52.6024 2.09508 52.5641 2.12653 52.532C2.15798 52.4998 2.19586 52.4747 2.23768 52.4583C2.2795 52.4418 2.32433 52.4344 2.36922 52.4364V52.4017ZM1.07115 52.7766V54.5744C1.05087 54.7477 1.07093 54.9233 1.12976 55.0875C1.18859 55.2518 1.2846 55.4002 1.41028 55.5211C1.53596 55.6421 1.68792 55.7324 1.85427 55.7849C2.02062 55.8374 2.19686 55.8508 2.36922 55.8239C3.27857 55.8239 3.67424 55.3797 3.67424 54.5744V52.8113C3.67424 52.1865 3.28551 51.6729 2.37616 51.6729C1.46682 51.6729 1.07115 52.1726 1.07115 52.7766Z" fill="#51636C"/>
<path fill-rule="evenodd" clip-rule="evenodd" d="M4.90312 52.5688H4.14648V51.7705H6.49274V52.5688H5.7847V55.7689H4.90312V52.5688Z" fill="#51636C"/>
<path fill-rule="evenodd" clip-rule="evenodd" d="M7.01318 51.7705H7.93641V53.3601L8.60975 51.7705H9.65793L8.76941 53.5337L9.65793 55.7689H8.64446L8.2002 54.3805L7.93641 54.8387V55.7689H7.01318V51.7705Z" fill="#51636C"/>
<path fill-rule="evenodd" clip-rule="evenodd" d="M11.1294 53.4723V52.4866H11.2821C11.5598 52.4866 11.7542 52.5838 11.7542 52.9794C11.7542 53.3751 11.539 53.4931 11.303 53.4931L11.1294 53.4723ZM10.1646 55.7491H11.1294V54.2081H11.5598C11.7216 54.2259 11.8853 54.2063 12.0382 54.1507C12.1912 54.0952 12.3294 54.0053 12.4421 53.8879C12.5548 53.7705 12.639 53.6288 12.6882 53.4737C12.7374 53.3186 12.7504 53.1542 12.726 52.9933C12.726 51.966 12.1151 51.7646 11.5598 51.7646H10.1715V55.7699L10.1646 55.7491Z" fill="#51636C"/>
<path fill-rule="evenodd" clip-rule="evenodd" d="M13.3091 51.7646H14.274V53.3265H14.7043C15.2736 53.3265 15.8705 53.5625 15.8705 54.5552C15.8705 55.5478 15.2666 55.7699 14.7043 55.7699H13.316V51.7646H13.3091ZM14.274 54.0484V55.055H14.4267C14.7043 55.055 14.9056 54.9578 14.9056 54.5621C14.9056 54.1664 14.6835 54.0484 14.4475 54.0484H14.274ZM16.2662 55.7699H17.2033V51.7646H16.2662V55.7699Z" fill="#51636C"/>
<path fill-rule="evenodd" clip-rule="evenodd" d="M18.4876 52.5688H17.731V51.7705H20.0842V52.5688H19.3761V55.7689H18.4876V52.5688Z" fill="#51636C"/>
<path fill-rule="evenodd" clip-rule="evenodd" d="M21.8475 52.4017C21.8915 52.4017 21.9351 52.4106 21.9756 52.4278C22.0162 52.4451 22.0528 52.4703 22.0832 52.5021C22.1137 52.5339 22.1375 52.5715 22.153 52.6127C22.1686 52.6539 22.1756 52.6979 22.1738 52.7419V54.7757C22.1738 54.8678 22.1372 54.9561 22.0721 55.0212C22.007 55.0863 21.9187 55.1228 21.8267 55.1228C21.7346 55.1228 21.6463 55.0863 21.5813 55.0212C21.5162 54.9561 21.4796 54.8678 21.4796 54.7757V52.7766C21.4776 52.7314 21.4851 52.6863 21.5015 52.6441C21.5179 52.6019 21.5429 52.5637 21.5748 52.5317C21.6068 52.4997 21.6451 52.4747 21.6873 52.4583C21.7294 52.4419 21.7745 52.4345 21.8197 52.4364L21.8475 52.4017ZM20.5425 52.7766V54.5744C20.5425 55.3797 20.9451 55.8239 21.8475 55.8239C22.7499 55.8239 23.1386 55.3797 23.1386 54.5744V52.8113C23.1386 52.1865 22.7568 51.6729 21.8475 51.6729C20.9382 51.6729 20.5425 52.1726 20.5425 52.8043V52.7766Z" fill="#51636C"/>
<path fill-rule="evenodd" clip-rule="evenodd" d="M23.7979 51.7705H26.0469V52.5271H24.7697V53.2977H25.9497V54.0612H24.7697V55.0122H26.0469V55.7689H23.7979V51.7705Z" fill="#51636C"/>
<path fill-rule="evenodd" clip-rule="evenodd" d="M29.1361 54.2497L29.386 52.4866L29.6498 54.2497H29.1361ZM27.9561 55.7699H28.914L29.0389 54.9717H29.7748L29.9205 55.7699H30.8646L29.983 51.7646H28.8307L27.9561 55.7699Z" fill="#51636C"/>
<path fill-rule="evenodd" clip-rule="evenodd" d="M31.3228 51.7705H32.246V53.3601L32.9193 51.7705H33.9675L33.0859 53.5337L33.9675 55.7689H32.961L32.5098 54.3805L32.246 54.8387V55.7689H31.3228V51.7705Z" fill="#51636C"/>
<path fill-rule="evenodd" clip-rule="evenodd" d="M36.0637 54.9706V51.7705H37.0286V54.9706H37.2438V56.6019H36.2928V55.7689H34.4741V51.7705H35.439V54.9706H36.0637Z" fill="#51636C"/>
<path fill-rule="evenodd" clip-rule="evenodd" d="M40.2912 55.7699H39.3749V54.8606C39.3749 54.4302 39.5068 53.7777 39.5484 53.3543L38.7224 55.7699H37.7783V51.7646H38.7224V52.7781C38.7224 53.2224 38.6044 53.8541 38.5766 54.2983L39.3888 51.7785H40.3051V55.7838L40.2912 55.7699Z" fill="#51636C"/>
<path fill-rule="evenodd" clip-rule="evenodd" d="M42.2349 52.4017C42.2798 52.3997 42.3247 52.4071 42.3665 52.4236C42.4083 52.44 42.4462 52.4651 42.4776 52.4972C42.5091 52.5294 42.5334 52.5677 42.549 52.6099C42.5646 52.652 42.5711 52.697 42.5681 52.7419V54.7757C42.5681 54.8678 42.5316 54.9561 42.4665 55.0212C42.4014 55.0862 42.3131 55.1228 42.2211 55.1228C42.129 55.1228 42.0407 55.0862 41.9756 55.0212C41.9106 54.9561 41.874 54.8678 41.874 54.7757V52.7766C41.871 52.7317 41.8775 52.6867 41.8931 52.6446C41.9087 52.6024 41.933 52.5641 41.9645 52.532C41.9959 52.4998 42.0338 52.4747 42.0756 52.4583C42.1175 52.4418 42.1623 52.4344 42.2072 52.4364L42.2349 52.4017ZM40.9369 52.7766V54.5744C40.9166 54.7477 40.9367 54.9233 40.9955 55.0875C41.0543 55.2518 41.1503 55.4002 41.276 55.5211C41.4017 55.6421 41.5536 55.7324 41.72 55.7849C41.8863 55.8374 42.0626 55.8508 42.2349 55.8239C43.1374 55.8239 43.54 55.3797 43.54 54.5744V52.8113C43.54 52.1865 43.1512 51.6729 42.2419 51.6729C41.3325 51.6729 40.9369 52.1726 40.9369 52.8043V52.7766Z" fill="#51636C"/>
<path fill-rule="evenodd" clip-rule="evenodd" d="M45.1573 55.7689H44.1924V51.7705H45.1573V53.2838H45.7889V51.7705H46.7538V55.7689H45.7889V54.0821H45.1573V55.7689Z" fill="#51636C"/>
<path fill-rule="evenodd" clip-rule="evenodd" d="M47.4756 51.7705H49.7177V52.5271H48.4405V53.2977H49.6205V54.0612H48.4405V55.0122H49.7177V55.7689H47.4756V51.7705Z" fill="#51636C"/>
<path fill-rule="evenodd" clip-rule="evenodd" d="M51.273 53.4723V52.4866H51.4326C51.7103 52.4866 51.9047 52.5838 51.9047 52.9794C51.9047 53.3751 51.6825 53.4931 51.4465 53.4931L51.273 53.4723ZM50.3081 55.7491H51.273V54.2081H51.7103C51.8721 54.2259 52.0358 54.2063 52.1887 54.1507C52.3417 54.0952 52.4799 54.0053 52.5926 53.8879C52.7053 53.7705 52.7895 53.6288 52.8387 53.4737C52.8879 53.3186 52.9009 53.1542 52.8765 52.9933C52.8765 51.966 52.2726 51.7646 51.7103 51.7646H50.322V55.7699L50.3081 55.7491Z" fill="#51636C"/>
<path fill-rule="evenodd" clip-rule="evenodd" d="M54.4175 55.7689H53.4526V51.7705H54.4175V53.2838H55.0492V51.7705H56.0141V55.7689H55.0492V54.0821H54.4175V55.7689Z" fill="#51636C"/>
<path fill-rule="evenodd" clip-rule="evenodd" d="M57.9714 52.4017C58.016 52.4007 58.0604 52.4089 58.1017 52.4257C58.143 52.4426 58.1805 52.4677 58.2117 52.4996C58.243 52.5315 58.2673 52.5694 58.2833 52.6111C58.2993 52.6528 58.3065 52.6973 58.3046 52.7419V54.7757C58.3075 54.8212 58.301 54.8668 58.2855 54.9097C58.27 54.9525 58.2459 54.9917 58.2147 55.0249C58.1835 55.0581 58.1458 55.0845 58.1039 55.1026C58.0621 55.1206 58.017 55.1298 57.9714 55.1298C57.9259 55.1298 57.8808 55.1206 57.8389 55.1026C57.7971 55.0845 57.7594 55.0581 57.7281 55.0249C57.6969 54.9917 57.6728 54.9525 57.6573 54.9097C57.6419 54.8668 57.6354 54.8212 57.6382 54.7757V52.7766C57.6352 52.7317 57.6418 52.6867 57.6574 52.6446C57.673 52.6024 57.6973 52.5641 57.7287 52.532C57.7602 52.4998 57.7981 52.4747 57.8399 52.4583C57.8817 52.4418 57.9265 52.4344 57.9714 52.4364V52.4017ZM56.6733 52.7766V54.5744C56.6733 55.3797 57.076 55.8239 57.9714 55.8239C58.8669 55.8239 59.2764 55.3797 59.2764 54.5744V52.8113C59.2764 52.1865 58.8877 51.6729 57.9784 51.6729C57.069 51.6729 56.6733 52.1726 56.6733 52.8043V52.7766Z" fill="#51636C"/>
<path fill-rule="evenodd" clip-rule="evenodd" d="M59.9292 51.7705H62.1713V52.5271H60.901V53.2977H62.0741V54.0612H60.901V55.0122H62.1713V55.7689H59.9292V51.7705Z" fill="#51636C"/>
<path fill-rule="evenodd" clip-rule="evenodd" d="M65.6073 52.4017C65.6519 52.4007 65.6962 52.4089 65.7376 52.4257C65.7789 52.4426 65.8163 52.4677 65.8476 52.4996C65.8788 52.5315 65.9032 52.5694 65.9191 52.6111C65.9351 52.6528 65.9424 52.6973 65.9405 52.7419V54.7757C65.9405 54.8678 65.9039 54.9561 65.8388 55.0212C65.7737 55.0863 65.6854 55.1228 65.5934 55.1228C65.5013 55.1228 65.413 55.0863 65.348 55.0212C65.2829 54.9561 65.2463 54.8678 65.2463 54.7757V52.7766C65.2443 52.7314 65.2518 52.6863 65.2682 52.6441C65.2846 52.6019 65.3096 52.5637 65.3416 52.5317C65.3735 52.4997 65.4118 52.4747 65.454 52.4583C65.4961 52.4419 65.5412 52.4345 65.5864 52.4364L65.6073 52.4017ZM64.3022 52.7766V54.5744C64.3022 55.3797 64.7118 55.8239 65.6073 55.8239C66.5027 55.8239 66.9053 55.3797 66.9053 54.5744V52.8113C66.9053 52.1865 66.5166 51.6729 65.6073 51.6729C64.6979 51.6729 64.3022 52.1726 64.3022 52.8043V52.7766Z" fill="#51636C"/>
<path fill-rule="evenodd" clip-rule="evenodd" d="M67.5649 51.7646H69.7446V52.4588H68.5298V53.2987H68.9602C69.5294 53.2987 70.1264 53.5348 70.1264 54.5274C70.1264 55.52 69.5225 55.7422 68.9602 55.7422H67.5719V51.7646H67.5649ZM68.5298 54.0484V55.055H68.6825C68.9602 55.055 69.1546 54.9578 69.1546 54.5621C69.1546 54.1664 68.9394 54.0484 68.7034 54.0484H68.5298Z" fill="#51636C"/>
<path fill-rule="evenodd" clip-rule="evenodd" d="M70.751 51.7705H71.7159V54.9706H72.3545V51.7705H73.2847V54.9706H73.9233V51.7705H74.8882V54.9706H75.0895V56.6019H74.1454V55.7689H70.751V51.7705Z" fill="#51636C"/>
<path fill-rule="evenodd" clip-rule="evenodd" d="M75.6519 51.7705H77.894V52.5271H76.6167V53.2977H77.7968V54.0612H76.6167V55.0122H77.894V55.7689H75.6519V51.7705Z" fill="#51636C"/>
<path fill-rule="evenodd" clip-rule="evenodd" d="M80.9831 54.1649V54.5397C80.9831 55.4491 80.5735 55.8378 79.6781 55.8378C78.7826 55.8378 78.373 55.456 78.373 54.5328V52.8113C78.373 52.1796 78.7618 51.6729 79.6781 51.6729C80.5944 51.6729 80.9831 52.1935 80.9831 52.8182V53.1792H80.0182V52.728C80.0164 52.6845 80.006 52.6418 79.9875 52.6024C79.969 52.5631 79.9428 52.5278 79.9105 52.4987C79.8781 52.4696 79.8403 52.4472 79.7992 52.433C79.7581 52.4187 79.7145 52.4128 79.6711 52.4156C79.63 52.4107 79.5883 52.4145 79.5489 52.427C79.5094 52.4394 79.473 52.4601 79.4421 52.4877C79.4113 52.5153 79.3866 52.5491 79.3699 52.5869C79.3531 52.6248 79.3446 52.6658 79.3449 52.7071V54.7202C79.3449 55.0187 79.4698 55.1367 79.6711 55.1367C79.8724 55.1367 80.0182 55.0187 80.0182 54.7202V54.1649H80.9831Z" fill="#51636C"/>
<path fill-rule="evenodd" clip-rule="evenodd" d="M82.2044 52.5688H81.4478V51.7705H83.801V52.5688H83.0929V55.7689H82.2044V52.5688Z" fill="#51636C"/>
<path fill-rule="evenodd" clip-rule="evenodd" d="M85.231 52.4857H85.5156C85.567 52.4776 85.6195 52.4817 85.6691 52.4975C85.7186 52.5134 85.7637 52.5406 85.8008 52.5771C85.8379 52.6135 85.866 52.6581 85.8827 52.7073C85.8995 52.7565 85.9045 52.809 85.8974 52.8605C85.8974 53.1798 85.7864 53.3187 85.5156 53.3187H85.231V52.4857ZM85.231 54.0336H85.474C85.8141 54.0336 85.9182 54.2211 85.9182 54.5543C85.9182 54.8875 85.8141 55.0541 85.4462 55.0541H85.231V54.0336ZM85.6406 55.769C85.8028 55.7922 85.9681 55.778 86.124 55.7275C86.2799 55.677 86.4222 55.5916 86.54 55.4778C86.6579 55.3639 86.7481 55.2247 86.804 55.0707C86.8599 54.9166 86.8798 54.7519 86.8623 54.589C86.8895 54.3849 86.8466 54.1776 86.7407 54.0011C86.6347 53.8246 86.4721 53.6892 86.2792 53.6171C86.4521 53.5583 86.5999 53.4425 86.6983 53.2886C86.7967 53.1347 86.8398 52.9519 86.8206 52.7703C86.8306 52.6379 86.8124 52.5049 86.7671 52.3802C86.7218 52.2554 86.6506 52.1417 86.558 52.0465C86.4655 51.9513 86.3538 51.8769 86.2303 51.8282C86.1069 51.7794 85.9745 51.7575 85.8419 51.7637H84.3286V55.769H85.6406Z" fill="#51636C"/>
<path fill-rule="evenodd" clip-rule="evenodd" d="M88.7017 52.4017C88.7469 52.3997 88.792 52.4072 88.8342 52.4236C88.8764 52.44 88.9146 52.465 88.9466 52.497C88.9786 52.5289 89.0036 52.5672 89.02 52.6094C89.0364 52.6516 89.0438 52.6967 89.0419 52.7419V54.7757C89.0448 54.8218 89.0381 54.868 89.0222 54.9113C89.0063 54.9546 88.9816 54.9942 88.9496 55.0275C88.9176 55.0608 88.8791 55.0871 88.8364 55.1047C88.7937 55.1223 88.7479 55.1308 88.7017 55.1298C88.6562 55.1298 88.6111 55.1206 88.5692 55.1026C88.5274 55.0845 88.4897 55.0581 88.4585 55.0249C88.4272 54.9917 88.4031 54.9525 88.3877 54.9097C88.3722 54.8668 88.3657 54.8212 88.3685 54.7757V52.7766C88.3656 52.7317 88.3721 52.6867 88.3877 52.6446C88.4033 52.6024 88.4276 52.5641 88.4591 52.532C88.4905 52.4998 88.5284 52.4747 88.5702 52.4583C88.612 52.4418 88.6568 52.4344 88.7017 52.4364V52.4017ZM87.4037 52.8043V54.6022C87.3834 54.7755 87.4035 54.9511 87.4623 55.1153C87.5211 55.2795 87.6171 55.4279 87.7428 55.5489C87.8685 55.6699 88.0204 55.7601 88.1868 55.8127C88.3531 55.8652 88.5294 55.8786 88.7017 55.8517C89.6111 55.8517 89.9998 55.4074 89.9998 54.6022V52.8113C89.9998 52.1865 89.618 51.6729 88.7087 51.6729C87.7993 51.6729 87.4037 52.1726 87.4037 52.8043Z" fill="#51636C"/>
</svg>
