<svg width="144" height="22" viewBox="0 0 144 22" fill="none" xmlns="http://www.w3.org/2000/svg">
<path d="M32.1386 4.22412L31.0539 3.60609C32.0399 2.91761 33.1242 2.38184 34.2702 2.01686C36.0369 1.4869 37.8746 1.23166 39.7189 1.26009C42.5767 1.14986 45.3831 2.0422 47.6524 3.78267C48.5916 4.53032 49.3684 5.46163 49.9354 6.51967C50.4555 7.53818 50.7196 8.6681 50.7048 9.81163C50.7152 10.9316 50.4419 12.0359 49.9104 13.0217C49.3789 14.0076 48.6064 14.8428 47.6651 15.4496C45.3107 16.991 42.5299 17.7502 39.7189 17.619C38.5838 17.619 37.5495 17.619 36.6414 17.4803C35.8074 17.4229 34.9802 17.292 34.1693 17.0893C33.0406 16.7613 31.9717 16.2546 31.0034 15.5883L32.0755 14.8946C32.9221 15.5237 33.8688 16.0055 34.8756 16.3199C36.2747 16.685 37.7185 16.8506 39.164 16.8118C41.2815 16.9422 43.3706 16.2713 45.0163 14.9325C45.6721 14.3756 46.1974 13.6813 46.5548 12.8988C46.9123 12.1163 47.0933 11.2647 47.0849 10.4044L45.8992 10.6819C45.0709 10.8871 44.205 10.8871 43.3767 10.6819L42.1911 10.2657C41.8595 10.1334 41.5178 10.028 41.1694 9.95037C40.7564 9.85057 40.333 9.79977 39.9081 9.79902C39.3785 9.80301 38.8506 9.85792 38.3315 9.96299C38.0553 10.0073 37.7816 10.0662 37.5117 10.1396C37.2318 10.2164 36.9578 10.3134 36.6918 10.4297V9.23144C37.6719 8.78283 38.7302 8.53004 39.8072 8.48728C40.2906 8.4857 40.7727 8.53644 41.2451 8.63863C41.7066 8.73852 42.1552 8.89087 42.5821 9.0927L43.7424 9.4837C44.116 9.56017 44.4963 9.5982 44.8776 9.59721C45.6414 9.59157 46.3993 9.46383 47.1227 9.21883C47.1451 7.409 46.4515 5.66364 45.1929 4.36286C44.4 3.6039 43.458 3.01802 42.4266 2.64239C41.3953 2.26676 40.2971 2.10959 39.2018 2.18083C37.7801 2.16422 36.3654 2.38154 35.0143 2.82409C34.004 3.15118 33.054 3.64113 32.2016 4.27457L32.1386 4.22412Z" fill="#51636C"/>
<path d="M54.2363 6.45801H65.2474V7.15172H61.2617V17.7339H58.3481V7.15172H54.2363V6.45801Z" fill="#51636C"/>
<path d="M67.6436 6.35645H70.822L77.4312 15.0593L83.5989 6.35645H84.5953L73.7356 21.782H72.7265L75.9428 17.2161L67.6436 6.35645Z" fill="#51636C"/>
<path d="M97.7509 8.76611C97.7757 8.4522 97.7149 8.13744 97.575 7.85535C97.435 7.57327 97.2212 7.33442 96.9562 7.16427C96.0042 6.74941 94.9643 6.57611 93.9292 6.65976C92.853 6.5776 91.7727 6.75045 90.7759 7.16427C90.4918 7.34494 90.2635 7.60102 90.1165 7.90393C89.9695 8.20684 89.9096 8.54464 89.9435 8.87962H87.2822C87.2822 7.90843 87.875 7.1895 89.0732 6.69759C90.6341 6.16227 92.2801 5.91857 93.9292 5.97866C95.7173 5.86278 97.511 6.08967 99.214 6.64714C99.6787 6.84578 100.07 7.18487 100.332 7.61689C100.594 8.0489 100.715 8.55219 100.677 9.0562V17.5321H91.848C90.4726 17.6162 89.101 17.3148 87.8876 16.6618C87.4786 16.4361 87.137 16.1057 86.8976 15.7046C86.6583 15.3035 86.5298 14.8459 86.5254 14.3788C86.539 13.835 86.7013 13.3052 86.9949 12.8471C87.2884 12.389 87.7018 12.0202 88.1903 11.7806C89.6929 11.0134 91.3757 10.669 93.0589 10.7842H97.7509V8.76611ZM97.7509 16.8636V11.4527H92.8949C91.9587 11.3903 91.0327 11.678 90.2966 12.2599C89.9989 12.5013 89.7602 12.8074 89.5984 13.1548C89.4367 13.5023 89.3563 13.8821 89.3633 14.2653C89.3487 14.6221 89.4148 14.9775 89.5568 15.3051C89.6988 15.6327 89.9129 15.924 90.1831 16.1573C90.9063 16.6994 91.8062 16.9513 92.7057 16.8636H97.7509Z" fill="#51636C"/>
<path d="M132.474 6.25553V10.7836H136.498C138.203 10.6874 139.905 11.0123 141.454 11.7295C141.984 11.8787 142.45 12.1965 142.781 12.6348C143.113 13.0731 143.293 13.6078 143.293 14.1575C143.293 14.7072 143.113 15.2419 142.781 15.6802C142.45 16.1185 141.984 16.4364 141.454 16.5855C139.916 17.3108 138.222 17.6445 136.523 17.5567H129.485V6.20508H132.499L132.474 6.25553ZM136.662 16.8377C137.626 16.9039 138.583 16.6368 139.373 16.081C139.672 15.8565 139.913 15.5648 140.078 15.2294C140.242 14.8941 140.325 14.5246 140.319 14.1512C140.325 13.7797 140.247 13.4118 140.089 13.0752C139.932 12.7387 139.7 12.4424 139.411 12.2088C138.683 11.6724 137.792 11.405 136.889 11.452H132.525V16.8377H136.662Z" fill="#51636C"/>
<path d="M102.985 17.7328C107.703 -0.303658 122.649 1.13421 127.126 17.8715C127.126 18.0733 128.098 16.6985 128.148 16.9129C123.38 -4.3524 105.432 -2.37217 102.153 18.5652L102.985 17.7328Z" fill="#51636C"/>
<path d="M1.23683 17.7328C5.96667 -0.303658 20.9129 1.13421 25.3779 17.8715C25.3779 18.0733 26.3491 16.6985 26.3996 16.9129C21.6319 -4.3524 3.69634 -2.37217 0.416992 18.5652L1.23683 17.7328Z" fill="#51636C"/>
<path d="M25.63 3.46727L26.1976 5.19523L27.0174 3.47988C27.2706 3.32813 27.4671 3.09755 27.5768 2.82345C27.6864 2.54935 27.7031 2.24687 27.6244 1.96235C27.5457 1.67783 27.3758 1.42697 27.1409 1.24821C26.906 1.06945 26.6189 0.972656 26.3237 0.972656C26.0285 0.972656 25.7414 1.06945 25.5065 1.24821C25.2716 1.42697 25.1017 1.67783 25.023 1.96235C24.9443 2.24687 24.961 2.54935 25.0706 2.82345C25.1803 3.09755 25.3768 3.32813 25.63 3.47988V3.46727Z" fill="#51636C"/>
</svg>
