<svg width="150" height="38" viewBox="0 0 150 38" fill="none" xmlns="http://www.w3.org/2000/svg">
<path d="M44.1005 22.12V22.3828C44.0925 22.4609 44.1012 22.5398 44.1261 22.6143C44.1509 22.6888 44.1913 22.7571 44.2445 22.8148C44.2978 22.8725 44.3627 22.9182 44.435 22.9489C44.5072 22.9796 44.5852 22.9946 44.6637 22.9929C44.9758 23.0234 45.2902 23.0234 45.6023 22.9929C45.6746 22.9917 45.746 22.9761 45.8122 22.947C45.8784 22.9179 45.9381 22.8759 45.9879 22.8235C46.0377 22.7711 46.0766 22.7092 46.1023 22.6416C46.1279 22.574 46.1398 22.502 46.1373 22.4297C46.1373 22.12 46.1373 21.8008 46.1373 21.4911H44.4478V20.8622H46.0904C46.0904 20.4868 46.0904 20.1395 46.0904 19.7922C46.0858 19.6717 46.0358 19.5574 45.9505 19.4721C45.8653 19.3869 45.751 19.3369 45.6305 19.3323C45.3181 19.3062 45.0042 19.3062 44.6919 19.3323C44.6181 19.3329 44.5452 19.3492 44.4783 19.3803C44.4113 19.4114 44.3518 19.4565 44.3038 19.5126C44.2558 19.5686 44.2203 19.6343 44.1998 19.7052C44.1793 19.7761 44.1743 19.8506 44.185 19.9236C44.185 20.0363 44.185 20.1489 44.185 20.2615C43.6594 20.3366 43.5092 20.2052 43.5374 19.7171C43.5368 19.4792 43.6266 19.2499 43.7887 19.0756C43.9507 18.9014 44.1729 18.7952 44.4103 18.7785C44.8779 18.7223 45.3506 18.7223 45.8182 18.7785C45.9626 18.7867 46.1039 18.8239 46.2336 18.8878C46.3634 18.9517 46.4789 19.041 46.5735 19.1505C46.6681 19.2599 46.7397 19.3872 46.784 19.5249C46.8284 19.6625 46.8447 19.8077 46.8319 19.9518C46.8319 20.7496 46.8319 21.538 46.8319 22.3265C46.8579 22.4898 46.8479 22.6569 46.8026 22.816C46.7572 22.9751 46.6777 23.1224 46.5695 23.2475C46.4614 23.3727 46.3272 23.4727 46.1763 23.5406C46.0254 23.6085 45.8616 23.6426 45.6962 23.6405C45.2358 23.6509 44.7758 23.6068 44.3258 23.5091C44.1199 23.4917 43.9255 23.4068 43.7728 23.2677C43.6201 23.1285 43.5175 22.9428 43.4811 22.7394C43.3872 22.2608 43.5374 22.0543 44.1005 22.12Z" fill="#51636C"/>
<path d="M49.9574 13.3621H46.081C45.756 13.3634 45.434 13.3004 45.1334 13.1769C44.8328 13.0534 44.5596 12.8718 44.3294 12.6424C44.0991 12.4131 43.9165 12.1405 43.7918 11.8404C43.6672 11.5403 43.603 11.2186 43.603 10.8936C43.603 9.01637 43.603 7.2424 43.603 5.41212C43.6304 4.77864 43.8874 4.17679 44.3262 3.71904C44.7649 3.26129 45.3553 2.97895 45.9871 2.9248C46.9257 2.9248 47.8643 2.9248 48.8029 2.9248C50.5112 2.9248 52.2195 2.9248 53.9183 2.9248C54.4667 2.9512 54.9882 3.16976 55.3915 3.54218C55.7948 3.9146 56.0541 4.4171 56.1241 4.96158C56.185 5.45404 56.185 5.95213 56.1241 6.44459C56.1024 6.59115 56.0517 6.73193 55.9751 6.85874C55.8985 6.98554 55.7974 7.09583 55.6777 7.18318C55.558 7.27054 55.4221 7.33321 55.278 7.36755C55.1339 7.40188 54.9844 7.4072 54.8382 7.38319C54.563 7.35421 54.3075 7.22741 54.118 7.02585C53.9285 6.8243 53.8177 6.56141 53.8057 6.28502C53.8057 6.05037 53.8057 5.80633 53.8057 5.57168C53.8057 5.33703 53.7118 5.27133 53.4866 5.27133C51.1025 5.27133 48.7216 5.27133 46.3438 5.27133C46.1091 5.27133 46.0059 5.36519 46.0059 5.59045V10.7528C45.9975 10.7978 46.0001 10.8441 46.0137 10.8878C46.0272 10.9315 46.0512 10.9713 46.0835 11.0036C46.1159 11.036 46.1556 11.06 46.1994 11.0735C46.2431 11.087 46.2894 11.0897 46.3344 11.0813H53.4866C53.5282 11.087 53.5706 11.0834 53.6106 11.0706C53.6507 11.0578 53.6873 11.0362 53.7179 11.0074C53.7485 10.9786 53.7723 10.9433 53.7875 10.9041C53.8027 10.8649 53.8089 10.8229 53.8057 10.781C53.8057 10.5557 53.8057 10.3398 53.8057 10.1145C53.8057 9.80089 53.9303 9.50008 54.1521 9.27829C54.3739 9.0565 54.6747 8.9319 54.9883 8.9319C55.302 8.9319 55.6028 9.0565 55.8246 9.27829C56.0464 9.50008 56.171 9.80089 56.171 10.1145C56.2385 10.6648 56.197 11.2229 56.049 11.7571C55.8975 12.2444 55.5948 12.6709 55.1847 12.9746C54.7746 13.2784 54.2785 13.4437 53.7682 13.4466L49.9574 13.3621Z" fill="#51636C"/>
<path d="M112.506 9.66459L113.389 8.93248L119.959 3.30083C120.108 3.15202 120.288 3.0366 120.485 2.96218C120.682 2.88775 120.893 2.85602 121.104 2.86907C121.406 2.89233 121.689 3.02729 121.897 3.24765C122.105 3.46801 122.224 3.75799 122.23 4.0611C122.23 6.77368 122.23 9.49564 122.23 12.2082C122.216 12.5211 122.08 12.8162 121.853 13.0315C121.625 13.2468 121.323 13.3655 121.01 13.3627C120.856 13.3703 120.703 13.3473 120.558 13.2951C120.413 13.243 120.28 13.1626 120.167 13.0587C120.054 12.9549 119.962 12.8296 119.897 12.69C119.832 12.5505 119.796 12.3995 119.79 12.2458V6.61412C119.71 6.65742 119.635 6.70768 119.565 6.76429L112.422 12.8277C112.126 13.1593 111.711 13.3615 111.267 13.3909C110.962 13.3886 110.669 13.2681 110.45 13.0546C110.231 12.8411 110.104 12.5513 110.094 12.2458C110.094 10.9599 110.094 9.68337 110.094 8.39747C110.094 7.11158 110.094 5.58165 110.094 4.11742C110.088 3.85147 110.171 3.59106 110.329 3.37702C110.487 3.16299 110.711 3.00744 110.967 2.93477C111.211 2.85686 111.474 2.86154 111.715 2.94807C111.956 3.03461 112.161 3.19819 112.3 3.41346C112.436 3.67138 112.51 3.95739 112.516 4.24882C112.516 5.93832 112.516 7.62781 112.516 9.30792L112.506 9.66459Z" fill="#51636C"/>
<path d="M93.4995 6.6131L92.4858 7.46724C90.3082 9.34445 88.1118 11.1654 85.9155 13.0332C85.7775 13.179 85.6058 13.2888 85.4156 13.353C85.2253 13.4171 85.0223 13.4337 84.8241 13.4013C84.626 13.3689 84.4388 13.2885 84.2789 13.167C84.119 13.0456 83.9913 12.8869 83.9069 12.7047C83.8253 12.5183 83.7837 12.3168 83.7849 12.1133C83.7849 9.4915 83.7849 6.87278 83.7849 4.25719C83.7616 3.96691 83.8382 3.67737 84.0021 3.43665C84.166 3.19592 84.4073 3.01848 84.6859 2.93376C84.9294 2.85739 85.1914 2.86387 85.4308 2.95217C85.6703 3.04048 85.8737 3.20564 86.0094 3.42183C86.1383 3.63792 86.2095 3.8836 86.2158 4.13518C86.2158 5.85283 86.2158 7.5611 86.2158 9.27875V9.65419L86.4693 9.46647L92.1948 4.59509L93.828 3.23411C94.0096 3.06081 94.239 2.94586 94.4866 2.90404C94.7342 2.86222 94.9886 2.89545 95.2171 2.99946C95.4493 3.09275 95.6456 3.25783 95.7773 3.4706C95.909 3.68336 95.9693 3.93267 95.9492 4.18211V11.5783C95.9492 11.7942 95.9492 12.0101 95.9492 12.2354C95.9435 12.3945 95.9054 12.5509 95.8373 12.6949C95.7691 12.8388 95.6724 12.9674 95.553 13.0728C95.4335 13.1782 95.2939 13.2582 95.1426 13.3078C94.9912 13.3575 94.8314 13.3758 94.6727 13.3617C94.3706 13.3519 94.0847 13.223 93.8772 13.0033C93.6697 12.7835 93.5576 12.4906 93.5652 12.1884C93.5652 10.4426 93.5652 8.69681 93.5652 6.951C93.5276 6.83837 93.5088 6.73512 93.4995 6.6131Z" fill="#51636C"/>
<path d="M60.2164 9.66322L61.8308 8.29285L67.791 3.24314C67.934 3.10124 68.1094 2.99635 68.3021 2.93757C68.4948 2.87878 68.6989 2.86787 68.8968 2.90578C69.0947 2.94368 69.2803 3.02927 69.4376 3.15511C69.5949 3.28096 69.7192 3.44326 69.7996 3.62797C69.8749 3.82252 69.9131 4.02945 69.9122 4.23807C69.9122 6.83488 69.9122 9.42857 69.9122 12.0191C69.9292 12.2216 69.8962 12.4251 69.816 12.6118C69.7357 12.7985 69.6109 12.9626 69.4523 13.0896C69.2937 13.2167 69.1063 13.3028 68.9067 13.3403C68.707 13.3779 68.5011 13.3658 68.3072 13.305C68.0799 13.2314 67.8802 13.0907 67.7344 12.9014C67.5887 12.712 67.5037 12.483 67.4906 12.2444V6.61275C67.4 6.66762 67.3123 6.72714 67.2278 6.79108L59.8598 13.0422C59.7114 13.1862 59.5292 13.2905 59.3299 13.3454C59.1305 13.4004 58.9206 13.4041 58.7194 13.3564C58.5183 13.3087 58.3324 13.211 58.179 13.0724C58.0256 12.9339 57.9096 12.7588 57.8417 12.5635C57.8046 12.4226 57.7857 12.2775 57.7854 12.1318V4.17236C57.7709 3.93461 57.8274 3.69792 57.9478 3.49236C58.0681 3.2868 58.2468 3.12164 58.4612 3.01788C58.6538 2.91458 58.8719 2.86853 59.0897 2.88516C59.3076 2.90179 59.5162 2.98041 59.6908 3.11174C59.8538 3.22818 59.9848 3.38381 60.0718 3.56427C60.1587 3.74472 60.1988 3.94417 60.1883 4.14421C60.1883 5.23299 60.1883 6.32178 60.1883 7.40118V9.27839C60.1893 9.40715 60.1987 9.5357 60.2164 9.66322Z" fill="#51636C"/>
<path d="M126.51 9.33621V10.5564C126.51 11.0914 126.51 11.6358 126.51 12.1708C126.499 12.4577 126.389 12.7319 126.199 12.9473C126.009 13.1628 125.751 13.3062 125.468 13.3535C125.188 13.3968 124.901 13.3396 124.659 13.1919C124.416 13.0441 124.234 12.8154 124.145 12.5462C124.102 12.4128 124.083 12.2731 124.088 12.1333C124.088 9.46761 124.088 6.79884 124.088 4.12693C124.075 3.96275 124.097 3.79762 124.151 3.64229C124.206 3.48696 124.293 3.34491 124.406 3.22538C124.52 3.10585 124.657 3.01153 124.809 2.94854C124.961 2.88556 125.125 2.85532 125.29 2.85981C125.451 2.86104 125.611 2.89406 125.76 2.95699C125.908 3.01992 126.043 3.11152 126.156 3.22657C126.27 3.34162 126.359 3.47786 126.42 3.62751C126.481 3.77717 126.511 3.9373 126.51 4.09877C126.51 4.96229 126.51 5.82581 126.51 6.68933C126.51 6.90521 126.557 6.98969 126.791 6.98969C128.988 6.98969 131.178 6.98969 133.362 6.98969C133.578 6.98969 133.634 6.92398 133.634 6.7081C133.634 5.85397 133.634 4.99045 133.634 4.13632C133.625 3.96947 133.65 3.80255 133.709 3.64605C133.767 3.48954 133.858 3.34685 133.974 3.22695C134.09 3.10705 134.23 3.01253 134.385 2.94934C134.54 2.88616 134.706 2.85568 134.873 2.85981C135.036 2.86077 135.198 2.89509 135.348 2.96067C135.498 3.02626 135.632 3.12173 135.744 3.24123C135.856 3.36073 135.942 3.50176 135.997 3.65567C136.052 3.80957 136.075 3.97313 136.065 4.13632V12.0676C136.074 12.2287 136.05 12.3901 135.995 12.5417C135.939 12.6934 135.854 12.8322 135.743 12.9499C135.633 13.0675 135.499 13.1614 135.351 13.2259C135.203 13.2905 135.044 13.3243 134.882 13.3253C134.717 13.328 134.553 13.2968 134.4 13.2337C134.247 13.1705 134.108 13.0766 133.993 12.9579C133.878 12.8391 133.788 12.698 133.73 12.5433C133.671 12.3885 133.645 12.2234 133.653 12.0582C133.653 11.2228 133.653 10.3874 133.653 9.56147C133.653 9.34559 133.596 9.2705 133.38 9.2705H126.81L126.51 9.33621Z" fill="#51636C"/>
<path d="M103.11 6.32177L101.825 8.48996L99.281 12.7325C99.1457 12.9707 98.9384 13.16 98.6887 13.273C98.4391 13.386 98.1601 13.4169 97.8918 13.3613C97.7152 13.3164 97.5519 13.2299 97.4155 13.1091C97.279 12.9884 97.1734 12.8368 97.1073 12.667C97.0412 12.4971 97.0166 12.314 97.0355 12.1328C97.0544 11.9515 97.1163 11.7774 97.216 11.6249C97.8731 10.5174 98.5489 9.40041 99.2153 8.29285C100.154 6.73476 101.092 5.17667 102.031 3.59981C102.148 3.36444 102.336 3.17214 102.569 3.05067C102.801 2.92921 103.067 2.88485 103.326 2.92401C103.506 2.93841 103.679 2.99747 103.83 3.09584C103.981 3.1942 104.104 3.32873 104.19 3.48717L109.042 11.531C109.149 11.6901 109.216 11.8726 109.237 12.063C109.258 12.2533 109.233 12.446 109.164 12.6246C109.095 12.8033 108.984 12.9626 108.84 13.0892C108.697 13.2159 108.524 13.306 108.339 13.3519C108.079 13.412 107.806 13.3859 107.562 13.2775C107.319 13.1692 107.117 12.9845 106.987 12.7512L105.504 10.2733L103.298 6.61274L103.11 6.32177Z" fill="#51636C"/>
<path d="M76.914 2.85944H81.5414C81.8226 2.84285 82.1003 2.92883 82.323 3.10144C82.5456 3.27405 82.6981 3.52156 82.7522 3.79805C82.7775 3.94495 82.7733 4.09544 82.7396 4.24066C82.7059 4.38588 82.6434 4.52288 82.556 4.6436C82.4685 4.76431 82.3577 4.86629 82.2302 4.94353C82.1027 5.02077 81.9611 5.07171 81.8136 5.09333C81.6263 5.11215 81.4376 5.11215 81.2504 5.09333C80.3118 5.09333 79.3732 5.09333 78.4346 5.09333C78.2093 5.09333 78.153 5.16842 78.153 5.3843C78.153 7.59941 78.153 9.80514 78.153 12.0203C78.1562 12.3199 78.0482 12.6101 77.8498 12.8347C77.6514 13.0593 77.3768 13.2024 77.0791 13.2362C76.7813 13.2701 76.4816 13.1923 76.2379 13.018C75.9941 12.8437 75.8237 12.5852 75.7595 12.2925C75.7409 12.1491 75.7409 12.004 75.7595 11.8607V5.55325C75.7595 5.22474 75.7595 5.22474 75.4404 5.22474C74.4455 5.22474 73.4506 5.22474 72.4556 5.22474C72.2331 5.2272 72.0115 5.19555 71.7986 5.13088C71.5424 5.05227 71.3251 4.88039 71.1895 4.64924C71.0539 4.41809 71.01 4.14448 71.0665 3.88253C71.1116 3.63273 71.2384 3.40499 71.4269 3.23509C71.6155 3.06519 71.8552 2.96277 72.1083 2.94392C73.122 2.94392 74.1264 2.94392 75.1401 2.94392L76.914 2.85944Z" fill="#51636C"/>
<path d="M144.438 8.14347L146.315 9.32612L149.225 11.2033C149.43 11.3255 149.592 11.5088 149.688 11.7276C149.784 11.9464 149.809 12.1897 149.76 12.4235C149.736 12.6372 149.645 12.8378 149.5 12.9964C149.355 13.155 149.163 13.2633 148.952 13.3058C148.767 13.3561 148.573 13.3637 148.384 13.3279C148.196 13.2921 148.018 13.214 147.864 13.0993L142.88 9.93621L141.688 9.16655C141.515 9.05619 141.373 8.90421 141.275 8.7246C141.177 8.54499 141.125 8.34353 141.125 8.13878C141.125 7.93402 141.177 7.73257 141.275 7.55296C141.373 7.37335 141.515 7.22136 141.688 7.111L147.845 3.1313C148.007 3.01852 148.192 2.94318 148.387 2.91071C148.582 2.87825 148.781 2.88947 148.971 2.94358C149.171 2.99328 149.351 3.10399 149.486 3.26037C149.62 3.41676 149.703 3.6111 149.722 3.81648C149.773 4.04594 149.752 4.28565 149.661 4.50252C149.57 4.7194 149.415 4.90276 149.215 5.02729L147.085 6.41643L144.682 7.97452L144.438 8.14347Z" fill="#51636C"/>
<path d="M140.42 8.16256V12.1516C140.424 12.3085 140.397 12.4646 140.34 12.6107C140.282 12.7568 140.197 12.8901 140.087 13.0028C139.978 13.1155 139.848 13.2053 139.703 13.2671C139.559 13.3288 139.404 13.3612 139.247 13.3624C139.086 13.3662 138.925 13.3377 138.775 13.2785C138.625 13.2193 138.488 13.1307 138.373 13.0179C138.257 12.9051 138.166 12.7704 138.103 12.6216C138.04 12.4728 138.008 12.313 138.008 12.1516V4.12654C138.002 3.9616 138.029 3.79709 138.088 3.64296C138.147 3.48883 138.237 3.34829 138.352 3.22983C138.467 3.11138 138.605 3.01747 138.757 2.9538C138.909 2.89014 139.073 2.85803 139.238 2.85942C139.397 2.85929 139.555 2.89137 139.701 2.95371C139.848 3.01606 139.981 3.10739 140.091 3.22223C140.202 3.33707 140.288 3.47304 140.344 3.62199C140.401 3.77094 140.427 3.92978 140.42 4.089V8.16256Z" fill="#51636C"/>
<path d="M102.135 23.03C102.213 21.827 102.453 20.64 102.848 19.5008C102.878 19.2547 103.005 19.0306 103.2 18.8776C103.396 18.7246 103.643 18.6551 103.89 18.6843H104.575C104.894 18.6843 104.997 18.7875 104.997 19.116V22.9831C104.997 22.9831 104.997 22.9831 105.063 22.9831C105.607 22.9831 105.664 23.0863 105.664 23.6307V23.7058C105.664 24.2502 105.607 24.3065 105.016 24.2408V23.6026H102.078V24.3065C101.947 24.3065 101.844 24.3065 101.731 24.3065C101.693 24.3121 101.654 24.3091 101.616 24.2978C101.579 24.2865 101.545 24.2672 101.517 24.2412C101.488 24.2152 101.465 24.1831 101.45 24.1474C101.436 24.1116 101.429 24.073 101.431 24.0343C101.412 23.822 101.412 23.6084 101.431 23.3961C101.431 23.1614 101.581 23.0488 101.815 23.03H102.135ZM104.331 19.2756H104.115C103.589 19.2756 103.533 19.2756 103.411 19.8387C103.223 20.5615 103.026 21.2842 102.876 22.0163C102.826 22.3549 102.804 22.6971 102.81 23.0394H104.331V19.2756Z" fill="#51636C"/>
<path d="M94.8225 22.2893C94.8788 22.1954 94.9257 22.1391 94.9633 22.064C95.564 21.0128 96.1741 19.9616 96.7842 18.9197C96.851 18.8043 96.9579 18.7175 97.0845 18.6757C97.3567 18.61 97.4881 18.732 97.4881 19.0042V23.0496C97.4881 23.5001 97.3192 23.6315 96.8405 23.5564V19.9991C96.7959 20.0623 96.7552 20.1281 96.7185 20.1962C96.1084 21.2193 95.5077 22.2424 94.907 23.2748C94.907 23.3499 94.8225 23.4532 94.7568 23.4907C94.6547 23.5598 94.5325 23.5928 94.4095 23.5846C94.3063 23.5846 94.2218 23.4156 94.1842 23.303C94.1652 23.1912 94.1652 23.0769 94.1842 22.9651V19.267C94.1842 18.732 94.2781 18.6475 94.8319 18.685L94.8225 22.2893Z" fill="#51636C"/>
<path d="M107.832 18.6835V22.2784L108.001 22.0062C108.592 20.9737 109.183 19.9413 109.784 18.9182C109.838 18.8106 109.928 18.7246 110.037 18.6741C110.31 18.5803 110.479 18.6741 110.479 19.0027V23.0481C110.479 23.508 110.338 23.63 109.85 23.5549V19.9788L109.718 20.1853C109.099 21.2459 108.489 22.2972 107.841 23.3484C107.765 23.4675 107.648 23.5544 107.512 23.5925C107.471 23.6052 107.426 23.6074 107.384 23.5987C107.341 23.5901 107.301 23.571 107.267 23.543C107.234 23.5151 107.208 23.4792 107.192 23.4387C107.175 23.3982 107.17 23.3542 107.175 23.3109C107.175 21.8842 107.175 20.495 107.175 19.0308C107.212 18.7305 107.362 18.646 107.832 18.6835Z" fill="#51636C"/>
<path d="M75.1215 21.1436V22.3637C75.1317 22.522 75.1095 22.6807 75.0562 22.83C75.0029 22.9794 74.9196 23.1163 74.8115 23.2323C74.7034 23.3483 74.5727 23.441 74.4275 23.5047C74.2823 23.5684 74.1256 23.6018 73.967 23.6027C73.6359 23.6309 73.3031 23.6309 72.9721 23.6027C72.6954 23.5944 72.4315 23.4846 72.2307 23.2942C72.0299 23.1037 71.9062 22.846 71.8833 22.5702C71.869 22.3609 71.869 22.1508 71.8833 21.9414V19.9515C71.8677 19.8022 71.8819 19.6514 71.925 19.5076C71.9682 19.3639 72.0393 19.2301 72.1345 19.114C72.2296 18.9979 72.3468 18.9018 72.4793 18.8313C72.6118 18.7608 72.7569 18.7173 72.9064 18.7032C73.3478 18.6328 73.7977 18.6328 74.2392 18.7032C74.5078 18.7403 74.7529 18.8764 74.9265 19.0847C75.1001 19.293 75.1897 19.5586 75.1778 19.8295V21.1248L75.1215 21.1436ZM74.4457 21.1436C74.4457 20.7118 74.4457 20.2894 74.4457 19.8671C74.4497 19.7871 74.4369 19.7072 74.4082 19.6325C74.3794 19.5578 74.3353 19.4899 74.2787 19.4333C74.2221 19.3767 74.1543 19.3326 74.0795 19.3038C74.0048 19.2751 73.9249 19.2623 73.845 19.2663H73.1598C73.0793 19.2638 72.9992 19.2775 72.9241 19.3066C72.8491 19.3356 72.7806 19.3795 72.7228 19.4355C72.665 19.4915 72.6191 19.5586 72.5878 19.6327C72.5564 19.7069 72.5403 19.7866 72.5403 19.8671C72.5403 20.693 72.5403 21.5284 72.5403 22.3544C72.5343 22.4471 72.5487 22.54 72.5823 22.6267C72.616 22.7133 72.6682 22.7915 72.7352 22.8559C72.8023 22.9202 72.8826 22.9692 72.9705 22.9993C73.0584 23.0294 73.1518 23.0399 73.2443 23.0302H73.7605C74.2298 23.0302 74.4457 22.8143 74.4551 22.3356L74.4457 21.1436Z" fill="#51636C"/>
<path d="M85.2017 20.7673V18.6836H85.5021C85.7837 18.6836 85.8681 18.7775 85.8681 19.059V23.0481C85.8681 23.555 85.7461 23.6488 85.2111 23.555V21.4149H83.2494V23.5737H82.9866C82.6675 23.5737 82.583 23.4799 82.583 23.1608V19.106C82.583 18.7681 82.6675 18.693 82.996 18.6836H83.24V20.7485L85.2017 20.7673Z" fill="#51636C"/>
<path d="M132.658 23.5831H132.367C132.076 23.5831 131.982 23.4799 131.973 23.1795V19.2374C131.973 18.7211 132.104 18.6179 132.658 18.7211V20.7767H134.601V18.6836H134.901C135.192 18.6836 135.267 18.7775 135.277 19.0778V23.0387C135.277 23.555 135.155 23.6394 134.62 23.555V21.4149H132.658V23.5831Z" fill="#51636C"/>
<path d="M77.8715 18.721V20.7766H79.8144V18.7398C80.3118 18.5803 80.4996 18.7398 80.4996 19.1997V23.0386C80.4996 23.5455 80.3775 23.6394 79.8332 23.5549V21.4055H77.8715V23.583H77.5617C77.2989 23.583 77.2051 23.4798 77.2051 23.217C77.2051 22.9542 77.2051 22.4379 77.2051 22.0437V19.2279C77.1769 18.721 77.3177 18.6272 77.8715 18.721Z" fill="#51636C"/>
<path d="M54.3312 22.973H56.5838C56.6871 23.4423 56.5838 23.5831 56.1239 23.5831H54.0965C53.7305 23.5831 53.646 23.4987 53.646 23.1326V19.2937C53.646 18.8056 53.7774 18.6836 54.2561 18.6836H56.1333C56.5838 18.6836 56.6871 18.8056 56.5932 19.2843H54.3406V20.7861H56.2835V21.3962H54.3312V22.973Z" fill="#51636C"/>
<path d="M142.438 19.2843V20.6171C142.438 20.6171 142.438 20.711 142.438 20.7861H144.381V21.3868H142.447V22.973H144.691C144.794 23.4236 144.691 23.5831 144.259 23.5831H142.194C141.837 23.5831 141.753 23.4987 141.753 23.1326V19.2937C141.753 18.8056 141.875 18.6836 142.363 18.6836H144.24C144.672 18.6836 144.775 18.815 144.691 19.2843H142.438Z" fill="#51636C"/>
<path d="M119.517 21.0033L120.006 21.3131C120.181 21.4281 120.323 21.5859 120.42 21.7715C120.517 21.9571 120.565 22.1644 120.559 22.3737V23.5845H120.268C119.987 23.5845 119.902 23.4812 119.902 23.209C119.926 22.9154 119.926 22.6204 119.902 22.3268C119.869 22.1301 119.773 21.9493 119.63 21.8105C119.461 21.6385 119.25 21.514 119.018 21.4498C118.785 21.3855 118.54 21.3837 118.307 21.4445V23.5751C118.179 23.5845 118.05 23.5845 117.922 23.5751C117.668 23.5751 117.631 23.3592 117.631 23.1527V19.2294C117.631 18.7507 117.781 18.638 118.297 18.7131V20.7781C118.804 20.9095 118.926 20.8625 119.17 20.4589C119.414 20.0553 119.536 19.877 119.705 19.5766C119.763 19.4733 119.796 19.3573 119.799 19.2387C119.799 18.7225 119.94 18.6193 120.465 18.7225C120.548 19.172 120.454 19.636 120.203 20.0178C119.93 20.3181 119.743 20.6936 119.517 21.0033Z" fill="#51636C"/>
<path d="M124.839 23.5749C124.839 23.237 124.839 22.9179 124.773 22.6363C124.773 22.4674 124.661 22.4017 124.473 22.4111C124.041 22.4111 123.61 22.4111 123.178 22.4111C122.999 22.4111 122.915 22.4674 122.906 22.6269C122.896 22.7865 122.906 23.0024 122.859 23.1901V23.6219H122.521C122.478 23.6246 122.435 23.6183 122.395 23.6032C122.356 23.5881 122.319 23.5647 122.289 23.5345C122.259 23.5043 122.235 23.468 122.22 23.4281C122.205 23.3881 122.199 23.3454 122.202 23.3027C122.17 22.8955 122.224 22.4862 122.361 22.1013C122.746 21.0782 123.093 20.0458 123.459 19.0227C123.525 18.835 123.6 18.666 123.835 18.666C124.069 18.666 124.145 18.8256 124.21 19.0133C124.614 20.1396 125.036 21.266 125.402 22.4017C125.473 22.7093 125.492 23.0264 125.459 23.3403C125.459 23.4154 125.308 23.528 125.205 23.5562C125.085 23.5816 124.961 23.5879 124.839 23.5749ZM124.511 21.7634L123.863 19.7548H123.807L123.168 21.7634H124.511Z" fill="#51636C"/>
<path d="M59.0713 20.7967H59.1276C59.3018 20.8531 59.4913 20.8384 59.6548 20.7558C59.8183 20.6732 59.9425 20.5293 60.0005 20.3556C60.1225 20.074 60.3196 19.8393 60.4604 19.5765C60.5246 19.4643 60.563 19.3393 60.573 19.2105C60.573 18.7036 60.6669 18.6285 61.2301 18.6848C61.3018 19.0991 61.2324 19.5255 61.0329 19.8956C60.7889 20.2335 60.573 20.609 60.329 20.9844C60.4416 21.0595 60.5543 21.1346 60.6763 21.2003C60.8941 21.3141 61.075 21.4874 61.198 21.7001C61.321 21.9129 61.381 22.1562 61.3708 22.4017C61.3708 22.7772 61.3708 23.1526 61.3708 23.5656H60.9954C60.9547 23.5658 60.9144 23.5574 60.8771 23.5411C60.8399 23.5247 60.8064 23.5007 60.779 23.4707C60.7516 23.4406 60.7308 23.4051 60.7179 23.3665C60.7051 23.3279 60.7005 23.287 60.7044 23.2465C60.7044 23.0212 60.7044 22.7866 60.7044 22.5613C60.7228 22.3688 60.6813 22.1753 60.5855 22.0073C60.4897 21.8393 60.3444 21.705 60.1694 21.6227C59.8405 21.4229 59.4502 21.3495 59.0713 21.4162V23.5656H58.6864C58.6473 23.566 58.6085 23.5579 58.5728 23.5419C58.5371 23.526 58.5052 23.5025 58.4794 23.4731C58.4535 23.4437 58.4343 23.4091 58.4231 23.3716C58.4118 23.3341 58.4088 23.2946 58.4142 23.2559V19.079C58.4142 18.7412 58.6207 18.6285 59.0713 18.7224V20.7967Z" fill="#51636C"/>
<path d="M50.8957 23.5547V19.2934C50.7056 19.2693 50.5133 19.2693 50.3232 19.2934C50.2562 19.314 50.1947 19.3491 50.1428 19.3961C50.0909 19.4431 50.0499 19.501 50.0228 19.5656C49.7319 20.4573 49.4315 21.3583 49.1968 22.2688C49.1265 22.6968 49.0951 23.1303 49.103 23.564H48.8496C48.5492 23.564 48.4835 23.4796 48.4647 23.1886C48.4416 22.6582 48.5245 22.1285 48.7088 21.6305C48.9622 20.9078 49.1781 20.1663 49.4127 19.4436C49.4517 19.2289 49.5697 19.0365 49.7434 18.9045C49.9171 18.7725 50.134 18.7103 50.3513 18.7302H51.1867C51.4307 18.7302 51.5246 18.8241 51.5246 19.0681C51.5246 20.4573 51.5246 21.8839 51.5246 23.2261C51.5621 23.5077 51.3932 23.6391 50.8957 23.5547Z" fill="#51636C"/>
<path d="M147.338 21.7059V23.5831C146.831 23.7145 146.662 23.5831 146.662 23.0951V19.3594C146.662 18.8338 146.812 18.6836 147.329 18.6836C147.845 18.6836 148.192 18.6836 148.624 18.6836C148.754 18.6832 148.882 18.7097 149.001 18.7615C149.12 18.8133 149.227 18.8892 149.316 18.9845C149.404 19.0798 149.471 19.1923 149.514 19.315C149.556 19.4377 149.573 19.5679 149.562 19.6973V20.4388C149.578 20.5908 149.563 20.7443 149.518 20.8903C149.473 21.0364 149.4 21.172 149.302 21.2892C149.204 21.4064 149.083 21.5028 148.948 21.5728C148.812 21.6427 148.663 21.6848 148.511 21.6965C148.121 21.7202 147.729 21.7233 147.338 21.7059ZM147.338 21.1052C147.676 21.1052 147.995 21.1052 148.323 21.1052C148.459 21.1011 148.589 21.0472 148.688 20.9537C148.786 20.8602 148.847 20.7338 148.858 20.5984C148.887 20.3081 148.887 20.0157 148.858 19.7255C148.852 19.6166 148.805 19.5141 148.727 19.4378C148.649 19.3616 148.545 19.3169 148.436 19.3125C148.079 19.3125 147.713 19.3125 147.347 19.3125L147.338 21.1052Z" fill="#51636C"/>
<path d="M115.059 20.1098C115.059 19.9503 115.059 19.8095 115.059 19.6781C115.059 19.5467 114.937 19.2933 114.702 19.2839C114.39 19.2615 114.076 19.2615 113.764 19.2839C113.692 19.2898 113.623 19.3098 113.559 19.3428C113.495 19.3757 113.438 19.421 113.392 19.476C113.346 19.5309 113.311 19.5945 113.289 19.663C113.268 19.7315 113.26 19.8036 113.266 19.8752C113.266 20.7199 113.266 21.5647 113.266 22.4C113.266 22.8036 113.473 22.9914 113.876 23.0008C114.092 23.0008 114.318 23.0008 114.533 23.0008C114.937 23.0008 115.097 22.8318 115.097 22.4376C115.097 22.3156 115.097 22.1936 115.097 22.0528H115.435C115.475 22.0501 115.516 22.056 115.554 22.07C115.592 22.0841 115.627 22.1059 115.656 22.1342C115.685 22.1625 115.708 22.1966 115.723 22.2343C115.739 22.272 115.746 22.3125 115.744 22.3531C115.776 22.4974 115.776 22.6468 115.744 22.791C115.712 22.9353 115.649 23.0709 115.56 23.1886C115.471 23.3063 115.357 23.4034 115.227 23.473C115.097 23.5426 114.953 23.5833 114.806 23.5921C114.397 23.6296 113.985 23.6296 113.576 23.5921C113.316 23.5799 113.072 23.4655 112.896 23.2739C112.72 23.0822 112.627 22.8289 112.637 22.569C112.637 21.6304 112.637 20.6918 112.637 19.7532C112.637 19.5111 112.725 19.2772 112.883 19.0943C113.042 18.9115 113.261 18.7922 113.501 18.7582C114.015 18.6926 114.536 18.6926 115.05 18.7582C115.181 18.7766 115.306 18.8241 115.416 18.8972C115.526 18.9703 115.618 19.0672 115.685 19.1807C115.753 19.2942 115.794 19.4215 115.806 19.553C115.818 19.6846 115.8 19.8172 115.754 19.9409C115.736 19.9872 115.709 20.0289 115.673 20.063C115.637 20.0972 115.594 20.1228 115.547 20.138C115.384 20.1475 115.22 20.138 115.059 20.1098Z" fill="#51636C"/>
<path d="M88.6466 18.7021V20.8421C88.9657 20.8421 89.2661 20.8421 89.5852 20.8421C89.8309 20.8175 90.0784 20.867 90.2958 20.984C90.5132 21.1011 90.6906 21.2805 90.8054 21.4991C90.8981 21.714 90.946 21.9456 90.946 22.1796C90.946 22.4136 90.8981 22.6452 90.8054 22.8601C90.7336 23.0539 90.6063 23.2223 90.4394 23.3442C90.2725 23.466 90.0733 23.536 89.8668 23.5453C89.329 23.5734 88.7902 23.5734 88.2524 23.5453C88.0084 23.5453 87.9614 23.3482 87.9614 23.1417C87.9614 22.7005 87.9614 22.25 87.9614 21.7995V19.2371C87.9614 18.749 88.1116 18.627 88.6466 18.7021ZM88.6466 22.9821H89.5852C89.6669 22.9872 89.7487 22.9758 89.8259 22.9486C89.9031 22.9213 89.974 22.8789 90.0344 22.8237C90.0948 22.7686 90.1435 22.7018 90.1776 22.6274C90.2117 22.553 90.2305 22.4726 90.2329 22.3908C90.2986 21.8652 90.1578 21.546 89.7542 21.4522C89.3855 21.424 89.0153 21.424 88.6466 21.4522V22.9821Z" fill="#51636C"/>
<path d="M68.1756 21.7251V23.6023H67.9128C67.603 23.6023 67.5186 23.5178 67.5186 23.2081V19.2565C67.5186 18.8623 67.6781 18.6934 68.0629 18.6934C68.5257 18.6699 68.9893 18.6699 69.4521 18.6934C69.701 18.6934 69.9398 18.7923 70.1158 18.9683C70.2918 19.1443 70.3907 19.383 70.3907 19.632C70.4254 19.9439 70.4254 20.2587 70.3907 20.5706C70.3793 20.8516 70.2632 21.1182 70.0652 21.318C69.8672 21.5177 69.6016 21.6362 69.3207 21.65C69.0485 21.65 68.7669 21.65 68.4947 21.65L68.1756 21.7251ZM68.1756 21.115H68.4478C68.6637 21.115 68.8889 21.115 69.1048 21.115C69.187 21.115 69.2683 21.0987 69.3441 21.0669C69.4198 21.0352 69.4885 20.9888 69.5462 20.9302C69.6038 20.8717 69.6493 20.8023 69.6798 20.7261C69.7104 20.6498 69.7255 20.5683 69.7243 20.4861C69.7384 20.2673 69.7384 20.0479 69.7243 19.8291C69.7295 19.7002 69.6845 19.5743 69.5987 19.478C69.5129 19.3817 69.393 19.3225 69.2644 19.3129C68.9171 19.3129 68.5604 19.3129 68.185 19.3129L68.1756 21.115Z" fill="#51636C"/>
<path d="M128.538 21.6313L129.608 18.9C129.618 18.8543 129.639 18.8116 129.669 18.7751C129.698 18.7387 129.736 18.7094 129.778 18.6895C129.821 18.6696 129.867 18.6597 129.914 18.6603C129.961 18.661 130.007 18.6724 130.049 18.6935C130.089 18.7106 130.126 18.7359 130.156 18.7678C130.187 18.7998 130.21 18.8377 130.225 18.8791C130.24 18.9205 130.246 18.9646 130.244 19.0086C130.241 19.0526 130.229 19.0955 130.208 19.1346C129.645 20.5144 129.073 21.8847 128.5 23.2645C128.47 23.3662 128.404 23.4536 128.314 23.5105C128.224 23.5673 128.117 23.59 128.012 23.5742H127.862C127.374 23.5742 127.289 23.4804 127.336 22.9548H127.665C127.756 22.9669 127.85 22.9528 127.934 22.914C128.018 22.8752 128.089 22.8133 128.139 22.7356C128.189 22.6579 128.216 22.5676 128.217 22.4751C128.218 22.3826 128.192 22.2918 128.143 22.2133C127.796 21.3404 127.439 20.4674 127.092 19.5852C127.026 19.435 126.97 19.2848 126.914 19.1346C126.858 18.9844 126.914 18.7404 127.073 18.6935C127.118 18.6707 127.167 18.6581 127.216 18.6564C127.266 18.6548 127.316 18.6642 127.361 18.6839C127.407 18.7036 127.448 18.7332 127.481 18.7706C127.514 18.8079 127.538 18.8521 127.552 18.9L128.538 21.6313Z" fill="#51636C"/>
<path d="M138.815 23.5644H138.186V19.2561H136.591C136.534 18.7868 136.591 18.6836 137.06 18.6836H139.876C140.289 18.6836 140.383 18.7962 140.317 19.2561H138.843L138.815 23.5644Z" fill="#51636C"/>
<path d="M64.0365 23.555V19.2655H62.5065C62.4408 18.7775 62.5065 18.6836 62.9571 18.6836H65.7729C66.2234 18.6836 66.2891 18.7681 66.2328 19.2561H64.7123V23.555H64.0365Z" fill="#51636C"/>
<path d="M91.4346 23.5554V18.7121C91.8945 18.5995 92.0822 18.7121 92.0822 19.1908V23.0297C92.0822 23.5084 91.9414 23.6398 91.4346 23.5554Z" fill="#51636C"/>
<path d="M96.8127 17.8216C96.8972 18.2533 96.8127 18.3941 96.3434 18.3941H95.1514V18.1125C95.1514 17.9342 95.2452 17.8216 95.4142 17.8216C95.8835 17.8122 96.3434 17.8216 96.8127 17.8216Z" fill="#51636C"/>
<path d="M12.5631 20.2889V19.8102C12.5631 16.7598 12.5631 13.7187 12.5631 10.6682C12.5672 9.87781 12.853 9.11479 13.3691 8.51613C13.8852 7.91747 14.5977 7.5224 15.3789 7.40184C15.8074 7.33528 16.2449 7.35424 16.6661 7.45762C17.0873 7.561 17.4839 7.74676 17.8329 8.00417C18.182 8.26159 18.4766 8.58557 18.6998 8.95742C18.923 9.32928 19.0703 9.74164 19.1333 10.1707C19.1803 10.7956 19.1803 11.4231 19.1333 12.048C19.1333 12.9209 19.1333 13.8031 19.1333 14.6761C19.1333 14.9013 19.2084 14.9764 19.4337 14.9764C20.3055 14.9715 21.1446 15.3084 21.7708 15.915C21.8212 15.9568 21.8799 15.9876 21.9429 16.0054C22.006 16.0232 22.072 16.0276 22.1369 16.0183C22.7808 15.8533 23.4592 15.882 24.0869 16.1007C24.7147 16.3194 25.264 16.7185 25.666 17.2478C25.7089 17.2871 25.7593 17.3174 25.8141 17.3367C25.8689 17.3561 25.9271 17.3642 25.9852 17.3605C26.7809 17.2228 27.5997 17.3779 28.2899 17.7972C28.9801 18.2165 29.4951 18.8716 29.7396 19.6413C29.8632 19.9791 29.936 20.3334 29.9555 20.6925C29.9555 21.3589 29.9555 22.0254 29.9555 22.6918C29.9555 22.8513 29.9555 22.9734 30.1714 22.9734C31.11 22.9734 32.0486 22.9734 32.9872 22.9076C33.1997 22.8969 33.408 22.844 33.5999 22.752C33.7918 22.66 33.9635 22.5308 34.105 22.3718C34.2465 22.2128 34.355 22.0273 34.4241 21.826C34.4933 21.6248 34.5217 21.4117 34.5077 21.1994C34.5077 19.951 34.5077 18.7121 34.5077 17.445C34.489 17.1045 34.5853 16.7676 34.781 16.4885C34.9768 16.2093 35.2607 16.004 35.5871 15.9056C35.8063 15.8352 36.0389 15.8171 36.2662 15.8528C36.4936 15.8885 36.7095 15.9769 36.8966 16.1111C37.0836 16.2452 37.2367 16.4213 37.3434 16.6252C37.4501 16.8291 37.5076 17.0552 37.5113 17.2854C37.5113 18.6839 37.5676 20.1012 37.5113 21.4622C37.498 22.5716 37.0609 23.634 36.2896 24.4316C35.5182 25.2291 34.471 25.7014 33.3626 25.7516C32.3583 25.8267 31.3446 25.8079 30.3403 25.8079C30.0869 25.8079 30.0024 25.8737 30.0118 26.1271C30.1003 27.7074 29.9355 29.2918 29.5237 30.8201C28.9606 32.4908 28.3692 34.1052 27.7685 35.7103C27.515 36.3321 27.0765 36.861 26.5124 37.2253C25.9483 37.5896 25.2859 37.7717 24.6148 37.747C22.7376 37.747 20.9448 37.747 19.1052 37.747C18.4821 37.7729 17.8618 37.6502 17.2955 37.389C16.7292 37.1279 16.2331 36.7359 15.8482 36.2453C14.4778 34.5839 13.1825 32.8944 11.8873 31.2049C10.592 29.5155 9.26855 27.7978 7.97327 26.0895C7.91422 25.9983 7.83153 25.9248 7.734 25.8769C7.63648 25.829 7.52779 25.8084 7.41949 25.8173C6.58413 25.8173 5.75816 25.8173 4.93218 25.8173C3.84586 25.8354 2.78491 25.4883 1.91925 24.8318C1.0155 24.1005 0.430152 23.0476 0.286072 21.894C0.232933 21.5461 0.207822 21.1946 0.210983 20.8427C0.210983 15.793 0.210983 10.7527 0.210983 5.6748C0.189011 4.93197 0.348486 4.19498 0.675591 3.52769C1.0027 2.86039 1.48757 2.28291 2.0882 1.84528C2.8133 1.32388 3.67403 1.02393 4.56612 0.98176H32.837C33.5005 0.952655 34.1619 1.07436 34.7716 1.33773C35.3812 1.6011 35.9232 1.99927 36.3568 2.50231C37.116 3.40739 37.5168 4.55961 37.4831 5.7405C37.4831 6.95444 37.4831 8.16524 37.4831 9.37292C37.4961 9.57454 37.4672 9.77667 37.3983 9.96658C37.3293 10.1565 37.2218 10.3301 37.0825 10.4764C36.9432 10.6228 36.7751 10.7387 36.5889 10.8169C36.4026 10.8952 36.2021 10.934 36.0001 10.931C35.8018 10.9335 35.6049 10.8964 35.421 10.822C35.2372 10.7475 35.07 10.6371 34.9293 10.4973C34.7886 10.3575 34.6772 10.191 34.6016 10.0076C34.526 9.82422 34.4877 9.62759 34.489 9.42923C34.489 8.20904 34.489 6.98885 34.489 5.76866C34.5138 5.516 34.4822 5.26097 34.3967 5.02195C34.3111 4.78292 34.1736 4.56584 33.9941 4.38632C33.8146 4.2068 33.5975 4.06931 33.3584 3.98374C33.1194 3.89817 32.8644 3.86665 32.6117 3.89145H5.07297C4.82142 3.87168 4.56858 3.90667 4.33185 3.99402C4.09513 4.08137 3.88015 4.21899 3.70173 4.39742C3.52331 4.57584 3.38568 4.79082 3.29833 5.02754C3.21098 5.26427 3.17599 5.51711 3.19576 5.76866V20.946C3.16234 21.212 3.18903 21.4822 3.27387 21.7366C3.35871 21.9909 3.49953 22.223 3.68596 22.4158C3.8724 22.6085 4.09969 22.757 4.35111 22.8502C4.60252 22.9435 4.87165 22.9791 5.13868 22.9546C5.43903 22.9546 5.73938 22.9546 6.07728 22.9546C6.41518 22.9546 6.46211 22.8701 6.4715 22.5791C6.46934 22.0479 6.59533 21.5239 6.83879 21.0517C7.08225 20.5795 7.43599 20.1729 7.87003 19.8666C8.50376 19.426 9.26164 19.1993 10.0332 19.2196C10.8048 19.2398 11.5497 19.506 12.1595 19.9792C12.2533 20.0637 12.4129 20.1481 12.5631 20.2889ZM15.1912 19.3503V23.743C15.204 23.8868 15.1881 24.0318 15.1444 24.1694C15.1007 24.307 15.0301 24.4345 14.9366 24.5446C14.8431 24.6547 14.7287 24.745 14.6 24.8104C14.4713 24.8759 14.3309 24.915 14.1869 24.9257C14.0149 24.9459 13.8406 24.926 13.6777 24.8673C13.5148 24.8087 13.3678 24.713 13.2483 24.5878C12.441 23.8369 11.6432 23.086 10.8173 22.3633C10.575 22.1687 10.2979 22.0221 10.0007 21.9315C9.90515 21.9029 9.80488 21.8935 9.70572 21.904C9.60656 21.9146 9.51049 21.9447 9.42311 21.9928C9.33574 22.0409 9.25881 22.1058 9.19682 22.1839C9.13483 22.2621 9.08902 22.3517 9.06206 22.4477C9.0034 22.6524 8.9985 22.8688 9.04782 23.076C9.09715 23.2831 9.19903 23.4741 9.34364 23.6304L14.4591 30.3039C15.4728 31.6367 16.5052 32.9508 17.5095 34.293C17.7069 34.5844 17.977 34.8192 18.2932 34.974C18.6093 35.1287 18.9604 35.1981 19.3117 35.1753C20.9918 35.1753 22.6625 35.1753 24.3332 35.1753C24.4702 35.2096 24.613 35.2142 24.7519 35.1886C24.8908 35.1629 25.0226 35.1078 25.1383 35.0268C25.254 34.9458 25.351 34.8408 25.4226 34.7191C25.4942 34.5973 25.5388 34.4616 25.5534 34.3211L26.6797 31.1956C27.1128 30.0227 27.3444 28.7851 27.3649 27.535C27.3649 25.2823 27.3649 23.0203 27.3649 20.7582C27.3713 20.6625 27.3585 20.5665 27.3274 20.4758C27.2962 20.3851 27.2474 20.3015 27.1836 20.2298C27.1198 20.1582 27.0424 20.1 26.9559 20.0586C26.8694 20.0171 26.7755 19.9933 26.6797 19.9886C26.5808 19.9885 26.4828 20.0083 26.3916 20.0468C26.3004 20.0852 26.2178 20.1415 26.1487 20.2124C26.0796 20.2832 26.0253 20.3672 25.9892 20.4593C25.9531 20.5515 25.9357 20.6499 25.9382 20.7488C25.9382 20.9741 25.9382 21.19 25.9382 21.4153C25.9236 21.6883 25.8023 21.9447 25.6004 22.1291C25.3984 22.3134 25.1321 22.411 24.8588 22.4008C24.7245 22.4058 24.5904 22.3843 24.4644 22.3375C24.3383 22.2907 24.2227 22.2194 24.1242 22.1279C24.0257 22.0364 23.9462 21.9263 23.8903 21.804C23.8343 21.6818 23.803 21.5496 23.7982 21.4153C23.7982 20.8521 23.7982 20.2889 23.7982 19.7258C23.7982 19.585 23.7982 19.4348 23.7982 19.3034C23.7982 19.2073 23.7793 19.112 23.7425 19.0232C23.7057 18.9344 23.6518 18.8537 23.5838 18.7857C23.5158 18.7177 23.4351 18.6638 23.3463 18.627C23.2574 18.5902 23.1622 18.5713 23.0661 18.5713C22.9694 18.5734 22.8743 18.5955 22.7865 18.636C22.6987 18.6766 22.6203 18.7348 22.556 18.807C22.4917 18.8792 22.443 18.9639 22.4129 19.0557C22.3827 19.1476 22.3719 19.2447 22.3809 19.3409C22.3809 19.7633 22.3809 20.1857 22.3809 20.6081C22.395 20.7589 22.3774 20.911 22.3293 21.0547C22.2812 21.1983 22.2036 21.3304 22.1016 21.4424C21.9996 21.5543 21.8753 21.6438 21.7367 21.705C21.5981 21.7662 21.4483 21.7978 21.2968 21.7978C21.1453 21.7978 20.9955 21.7662 20.8569 21.705C20.7183 21.6438 20.5941 21.5543 20.492 21.4424C20.39 21.3304 20.3124 21.1983 20.2643 21.0547C20.2163 20.911 20.1987 20.7589 20.2127 20.6081C20.2127 19.8853 20.2127 19.1532 20.2127 18.4305C20.2246 18.327 20.2145 18.2223 20.1832 18.123C20.1519 18.0237 20.1 17.9321 20.031 17.8542C19.9619 17.7762 19.8772 17.7137 19.7824 17.6707C19.6875 17.6277 19.5847 17.6052 19.4806 17.6045C19.0582 17.6045 18.7954 17.9236 18.7954 18.4305C18.7954 19.1814 18.7954 19.9229 18.7954 20.6738C18.7904 20.8578 18.7388 21.0376 18.6454 21.1963C18.552 21.3549 18.42 21.4874 18.2615 21.5811C18.103 21.6749 17.9234 21.7269 17.7394 21.7324C17.5553 21.7379 17.3729 21.6966 17.2092 21.6124C17.0108 21.5102 16.8476 21.3511 16.7405 21.1553C16.6335 20.9596 16.5875 20.7363 16.6085 20.5142C16.6085 18.9843 16.6085 17.4637 16.6085 15.9432C16.6085 14.2725 16.6085 12.5923 16.6085 10.9216C16.6178 10.7998 16.6178 10.6774 16.6085 10.5556C16.6014 10.4729 16.578 10.3924 16.5397 10.3187C16.5014 10.2451 16.4488 10.1798 16.3851 10.1266C16.3214 10.0733 16.2478 10.0333 16.1686 10.0086C16.0893 9.98398 16.0059 9.97528 15.9233 9.98301C15.8379 9.97262 15.7514 9.97957 15.6688 10.0035C15.5862 10.0273 15.5093 10.0677 15.4426 10.122C15.376 10.1764 15.3211 10.2436 15.2811 10.3197C15.2411 10.3958 15.2169 10.4793 15.2099 10.5649C15.2006 10.7056 15.2006 10.8467 15.2099 10.9873C15.2099 12.3295 15.2099 13.6717 15.2099 15.014L15.1912 19.3503Z" fill="#51636C"/>
</svg>
