<svg xmlns="http://www.w3.org/2000/svg" xml:space="preserve" id="Слой_1" x="0" y="0" style="enable-background:new 0 0 547.9841309 188.6216888" version="1.1" viewBox="0 0 547.984 188.622"><style>.st0{fill:#fff}</style><path d="M15.471 162.227c0-12.457 9.864-22.32 22.58-22.32 12.458 0 22.58 9.863 22.58 22.32 0 12.716-10.122 22.838-22.58 22.838-12.716 0-22.58-10.122-22.58-22.838zM163.95 118.473c0-19.63-10.187-39.011-31.306-39.011-17.394 0-31.806 14.164-31.806 39.26 0 24.101 12.674 39.756 31.308 39.756 16.4 0 31.804-11.929 31.804-40.005zm-37.519-66.094c27.58 0 36.526 15.405 36.526 15.405h.498s-.25-3.232-.25-7.455V32.494L147.8 32.5V5.665h46.962V155.44l15.158.055v26.587h-44.726v-17.641h-.496s-10.436 20.623-39.51 20.623c-34.286 0-56.402-27.085-56.402-66.344 0-40.253 24.103-66.342 57.646-66.342zM299.122 102.32c-.496-15.154-10.932-25.59-23.852-25.59-16.15 0-27.58 9.69-31.059 25.59h54.911zM275.27 52.38c36.278 0 56.154 26.587 56.154 60.13 0 3.728-.742 11.68-.742 11.68h-87.464c2.482 22.36 18.883 34.04 38.016 34.04 20.374 0 35.533-14.164 35.533-14.164l13.168 21.867s-19.382 19.133-50.936 19.133c-41.994 0-68.084-30.316-68.084-66.344 0-39.01 26.339-66.342 64.355-66.342zM484.796 127.17c0 15.405-11.93 33.295-28.825 33.295-12.923 0-19.133-7.952-19.133-16.4 0-17.64 26.09-19.877 42.49-19.877h5.468v2.981zm31.045 28.326.011-52.677c0-28.326-12.422-50.44-54.665-50.44-42.883 0-47.626 39.506-47.626 39.506h30.349c1.519-9.611 9.771-16.982 19.808-16.982 15.886 0 19.813 10.058 20.463 23.027.023.403.036.824.054 1.24.017.47.062 2.065.062 2.407v.994h-3.973c-20.624 0-75.29 3.23-75.29 42.986 0 25.344 20.625 39.508 43.235 39.508 28.574 0 38.264-22.364 38.264-22.364h.499l-.022 19.382h44.25v-26.587h-15.419zM348.211 80.455h-15.654V55.361h15.654v-3.728c0-41.496 34.039-46.962 51.681-46.962 6.461 0 10.684.747 10.684.747v26.834s-2.732-.498-6.459-.498c-8.945 0-24.35 2.236-24.35 20.625v2.982h27.083v25.094h-27.084v101.628h-31.555V80.455z" class="st0"/></svg>