<?xml version="1.0" encoding="utf-8"?>
<!-- Generator: Adobe Illustrator 22.0.0, SVG Export Plug-In . SVG Version: 6.00 Build 0)  -->
<svg version="1.1" id="Layer_1" xmlns="http://www.w3.org/2000/svg" xmlns:xlink="http://www.w3.org/1999/xlink" x="0px" y="0px"
	 viewBox="0 0 78.61 25" style="enable-background:new 0 0 78.61 25;" xml:space="preserve">
<style type="text/css">
	.st0{fill-rule:evenodd;clip-rule:evenodd;fill:#A6AAAA;}
	.st1{fill-rule:evenodd;clip-rule:evenodd;fill:#F3792E;}
	.st2{fill-rule:evenodd;clip-rule:evenodd;fill:#F06022;}
	.st3{fill-rule:evenodd;clip-rule:evenodd;fill:#D95122;}
	.st4{fill-rule:evenodd;clip-rule:evenodd;fill:#F89A2C;}
	.st5{fill-rule:evenodd;clip-rule:evenodd;fill:#FFFFFF;}
	.st6{fill:#FFFFFF;}
	.st7{fill-rule:evenodd;clip-rule:evenodd;fill:#B4008D;}
	.st8{fill-rule:evenodd;clip-rule:evenodd;fill:#9DBC0A;}
	.st9{fill:none;stroke:#9DBC0A;stroke-width:0.1962;stroke-miterlimit:10;}
	.st10{fill-rule:evenodd;clip-rule:evenodd;fill:#DF3F17;}
	.st11{fill:none;stroke:#DF3F17;stroke-width:0.1962;stroke-miterlimit:10;}
	.st12{fill-rule:evenodd;clip-rule:evenodd;fill:#F5B208;}
	.st13{fill:none;stroke:#F5B208;stroke-width:0.1962;stroke-miterlimit:10;}
	.st14{fill:#9DBC0A;}
	.st15{fill:none;stroke:#9DBC0A;stroke-width:0.2023;stroke-miterlimit:10;}
	.st16{fill:none;stroke:#DF3F17;stroke-width:0.2023;stroke-miterlimit:10;}
	.st17{fill:none;stroke:#F5B208;stroke-width:0.2023;stroke-miterlimit:10;}
	.st18{fill-rule:evenodd;clip-rule:evenodd;fill:#85754E;}
	.st19{fill:#85754E;}
	.st20{fill-rule:evenodd;clip-rule:evenodd;fill:#1A171B;}
	.st21{fill:#016268;}
	.st22{fill:#00A9C2;}
	.st23{fill:#21427B;}
	.st24{fill:#FAE101;}
	.st25{fill-rule:evenodd;clip-rule:evenodd;fill:#32327F;}
	.st26{fill-rule:evenodd;clip-rule:evenodd;fill:#FCB813;}
	.st27{fill:#F79420;}
	.st28{fill:#FCB831;}
	.st29{fill:#FDDD2E;}
	.st30{fill:#C6C7C8;}
	.st31{fill:#F3C700;}
	.st32{fill:#DB6216;}
	.st33{fill:#EAA600;}
	.st34{fill:#E32427;}
	.st35{fill:#FFFFFF;stroke:#FFFFFF;stroke-width:0.1124;stroke-miterlimit:10;}
	.st36{fill:url(#SVGID_1_);}
	.st37{fill-rule:evenodd;clip-rule:evenodd;fill:#C1272D;}
	.st38{fill-rule:evenodd;clip-rule:evenodd;fill:url(#SVGID_2_);}
	.st39{fill-rule:evenodd;clip-rule:evenodd;fill:url(#SVGID_3_);}
	.st40{fill-rule:evenodd;clip-rule:evenodd;fill:url(#SVGID_4_);}
	.st41{fill-rule:evenodd;clip-rule:evenodd;fill:url(#SVGID_5_);}
	.st42{fill-rule:evenodd;clip-rule:evenodd;fill:url(#SVGID_6_);}
	.st43{fill-rule:evenodd;clip-rule:evenodd;fill:url(#SVGID_7_);}
	.st44{fill-rule:evenodd;clip-rule:evenodd;fill:url(#SVGID_8_);}
	.st45{fill:#006937;}
	.st46{fill:#929990;}
	.st47{fill:#FFFFFF;stroke:#FFFFFF;stroke-width:0.1949;stroke-miterlimit:10;}
	.st48{fill:#86D2BF;}
	.st49{fill:#EC1848;}
	.st50{fill:#29A151;}
	.st51{fill:#C1272D;}
	.st52{fill:#29ABE2;}
	.st53{fill:#F7BE3E;}
	.st54{fill:url(#SVGID_9_);}
	.st55{fill-rule:evenodd;clip-rule:evenodd;fill:none;}
	.st56{clip-path:url(#SVGID_11_);fill-rule:evenodd;clip-rule:evenodd;}
	.st57{fill:#EFAF1F;}
	.st58{fill:#EFB022;}
	.st59{fill:#0E0A08;}
	.st60{fill:#DA2A28;}
	.st61{fill:#F6F6F5;}
	.st62{fill:#C7B086;}
	.st63{fill:#F1F0EE;}
	.st64{fill-rule:evenodd;clip-rule:evenodd;fill:url(#SVGID_12_);}
	.st65{fill-rule:evenodd;clip-rule:evenodd;fill:#FAF9F9;}
	.st66{fill-rule:evenodd;clip-rule:evenodd;fill:#F8B132;}
	.st67{fill-rule:evenodd;clip-rule:evenodd;fill:#1A70B7;}
	.st68{fill-rule:evenodd;clip-rule:evenodd;fill:#36A834;}
	.st69{fill-rule:evenodd;clip-rule:evenodd;fill:#E2000F;}
	.st70{fill-rule:evenodd;clip-rule:evenodd;fill:#1A1A18;}
	.st71{fill:url(#SVGID_13_);}
	.st72{fill:url(#SVGID_14_);}
	.st73{fill:url(#SVGID_15_);}
	.st74{fill:url(#SVGID_16_);}
	.st75{fill:url(#SVGID_17_);}
	.st76{fill:url(#SVGID_18_);}
	.st77{fill:url(#SVGID_19_);}
	.st78{fill:#00A85D;}
	.st79{fill:#FFFFFF;stroke:#FFFFFF;stroke-width:0.1;stroke-miterlimit:10;}
	.st80{fill:#9FD8F5;}
	.st81{fill:#274888;}
	.st82{fill:#267DBF;}
	.st83{fill:#2F91CF;}
	.st84{fill:#2955A0;}
	.st85{fill:#236EB3;}
	.st86{fill:#CFEBFA;}
	.st87{fill:#42B7E9;}
	.st88{fill:#3FAAE0;}
	.st89{fill:#FFAF10;}
	.st90{fill:#151416;}
	.st91{fill:#E57641;}
	.st92{fill:none;}
	.st93{fill:#1C191B;}
	.st94{fill:#19181A;}
	.st95{fill:#DD7340;}
	.st96{fill:#181617;}
	.st97{fill:#EA7944;}
	.st98{fill:#0C0E13;}
	.st99{fill:#181719;}
	.st100{fill:#BA673F;}
	.st101{fill:#4E362A;}
	.st102{fill:#6A6567;}
	.st103{fill:#F2F1F2;}
	.st104{fill:none;stroke:#EA7944;stroke-width:0.3013;stroke-linecap:round;stroke-miterlimit:10;}
	.st105{fill:none;stroke:#FF00FF;stroke-width:0.25;stroke-miterlimit:10;}
	.st106{fill:#002169;}
	.st107{fill:#FC9E22;}
</style>
<path class="st90" d="M4.465,15.737c0,0,0.281,2.706,3.168,3.482c0,0,1.882,0.396,2.224,0.379c0.343-0.017,0.574,0.709,0.574,0.709
	v4.569c0,0-0.281,0.119-1.499-0.432s-4.012-1.017-5.618-3.345S2.197,16.07,2.197,16.07l1.299-0.95L4.465,15.737z"/>
<path class="st90" d="M16.144,15.737c0,0-0.281,2.706-3.168,3.482c0,0-1.882,0.396-2.224,0.379
	c-0.343-0.017-0.574,0.709-0.574,0.709v4.569c0,0,0.281,0.119,1.499-0.432s4.012-1.017,5.618-3.345s1.116-5.029,1.116-5.029
	l-1.299-0.95L16.144,15.737z"/>
<path class="st91" d="M2.856,16.072c0,0-0.371,2.452,0.185,3.422c0.557,0.971,2.204,3.251,5.114,4.132l1.529,0.453
	c0,0,0.304,0.086,0.296-0.324c-0.008-0.411,0-3.233,0-3.233s0.072-0.365-0.296-0.442c-0.368-0.078-3.353-0.338-4.417-1.722
	s-1.1-2.527-1.1-2.527L2.856,16.072z"/>
<path class="st91" d="M17.884,16.072c0,0,0.371,2.452-0.185,3.422c-0.557,0.971-2.204,3.251-5.114,4.132l-1.529,0.453
	c0,0-0.304,0.086-0.296-0.324c0.008-0.411,0-3.233,0-3.233s-0.072-0.365,0.296-0.442c0.368-0.078,3.353-0.338,4.417-1.722
	s1.1-2.527,1.1-2.527L17.884,16.072z"/>
<g>
	<path class="st92" d="M6.928,17.306c0.001,0.028,0.024,0.056,0.037,0.084c0.016-0.055,0.037-0.11,0.046-0.166
		c0.003-0.016-0.029-0.037-0.058-0.072C6.942,17.216,6.928,17.261,6.928,17.306z"/>
	<path class="st92" d="M10.763,15.233c-0.188,0.007-0.353-0.009-0.424,0.238c-0.159,0.555-0.345,1.102-0.521,1.652
		c0.012,0.051,0.024,0.102,0.036,0.152c0.584-0.498,1.164-0.198,1.794-0.042c-0.182-0.642-0.346-1.183-0.486-1.73
		C11.104,15.274,10.972,15.225,10.763,15.233z"/>
	<path class="st92" d="M4.117,12.554c-0.025-0.494-0.223-0.469-0.59-0.414c-0.521,0.079-0.263,0.414-0.21,0.623
		c0.158,0.621-0.341,0.473-0.628,0.58c-0.373,0.139-0.342-0.151-0.413-0.365c-0.07-0.211-0.01-0.541-0.392-0.527
		c-0.032-0.163-0.049-0.371-0.247-0.384c-0.189-0.013-0.217,0.245-0.386,0.335c-0.128,0.068,0.036,0.183,0.132,0.243
		c0.043,0.724,0.352,1.384,0.497,2.084c0.055,0.266,0.093,0.479,0.499,0.356c0.364-0.11,0.402-0.268,0.282-0.557
		c-0.147-0.356-0.111-0.556,0.338-0.644c0.401-0.078,0.632-0.057,0.644,0.408c0.002,0.082,0.022,0.167,0.048,0.246
		c0.127,0.394,0.386,0.074,0.578,0.092c0.147,0.013,0.242-0.036,0.175-0.28C4.284,13.763,4.147,13.158,4.117,12.554z"/>
	<path class="st92" d="M9.715,15.245c-0.201-0.033-0.392-0.033-0.429,0.266c-0.036,0.293-0.129,0.579-0.232,1.011
		c-0.138-0.435-0.225-0.718-0.317-0.999c-0.041-0.126-0.074-0.26-0.259-0.25c-0.202,0.011-0.221,0.148-0.261,0.304
		c-0.074,0.289-0.05,0.606-0.228,0.928c-0.102-0.296-0.198-0.528-0.262-0.768c-0.108-0.402-0.322-0.492-0.676-0.268
		c0.216,0.535,0.435,1.057,0.634,1.586c0.064,0.17,0.142,0.24,0.328,0.21c0.17-0.027,0.334-0.02,0.362-0.253
		c0.023-0.192,0.073-0.381,0.111-0.572c0.03-0.002,0.061-0.003,0.091-0.005c0.05,0.156,0.111,0.309,0.147,0.469
		c0.048,0.214,0.156,0.297,0.386,0.29c0.231-0.007,0.311-0.093,0.356-0.315c0.087-0.424,0.225-0.838,0.326-1.26
		C9.823,15.494,10.018,15.295,9.715,15.245z"/>
	<path class="st92" d="M7.317,13.319c-0.023-0.297-0.054-0.761-0.098-1.224c-0.028-0.294-0.233-0.457-0.5-0.432
		c-0.615,0.059-1.232,0.136-1.834,0.268c-0.251,0.055-0.499,0.179-0.396,0.611c0.101,0.426,0.168,0.874,0.223,1.316
		c0.054,0.436,0.303,0.64,0.728,0.577c0.397-0.058,0.792-0.127,1.191-0.168C7.303,14.198,7.343,14.162,7.317,13.319z"/>
	<path class="st92" d="M19.253,11.774c-0.457-0.208-0.921-0.38-1.434-0.332C18.271,11.675,18.74,11.823,19.253,11.774z"/>
	<path class="st92" d="M1.495,11.746c0.421-0.078,0.842-0.155,1.263-0.233c-0.485-0.137-0.924,0.047-1.376,0.135
		c-1.023,0.15-1.268,0.655-0.644,1.395c-0.019-0.202-0.073-0.4-0.12-0.599c-0.034-0.143-0.101-0.305,0.138-0.338
		c0.055,0.091,0.132,0.154,0.235,0.092c0.119-0.072,0.07-0.198,0.068-0.307C1.189,11.794,1.409,11.971,1.495,11.746z"/>
	<path class="st92" d="M10.737,14.061c0.32,0.017,0.393-0.092,0.394-0.395c0.001-0.638,0.018-0.622,0.644-0.555
		c0.524,0.056,0.191,0.432,0.267,0.652c0.038,0.11-0.077,0.302,0.139,0.311c0.189,0.007,0.406,0.155,0.567-0.019
		c0.338-0.364,0.076-1.408-0.533-1.644c0.362-0.256,0.672-0.476,0.982-0.696c-0.038-0.043-0.075-0.085-0.113-0.128
		c-0.106-0.022-0.213-0.044-0.319-0.066c-0.014-0.098-0.043-0.185-0.167-0.175c-0.098,0.007-0.117,0.084-0.134,0.162
		c-0.599,0.054-0.688,0.831-1.3,0.912c0-0.226-0.014-0.44,0.003-0.652c0.035-0.419-0.278-0.273-0.478-0.303
		c-0.233-0.035-0.373,0.014-0.363,0.31c0.022,0.636,0.03,1.275,0,1.911C10.31,14.031,10.464,14.047,10.737,14.061z"/>
	<path class="st92" d="M7.629,13.387c0.032,0.51,0.305,0.741,0.798,0.711c0.402-0.024,0.805-0.038,1.208-0.036
		c0.235,0.001,0.36-0.026,0.358-0.323c-0.002-0.3-0.137-0.322-0.365-0.31c-0.285,0.015-0.571,0.013-0.856,0.02
		c-0.119,0.003-0.208,0.01-0.255-0.157c-0.276-0.978-0.163-1.143,0.86-1.185c0.067-0.003,0.135-0.013,0.201-0.004
		c0.276,0.035,0.373-0.062,0.374-0.357c0.001-0.338-0.194-0.281-0.392-0.271c-0.218,0.011-0.436,0.022-0.654,0.033
		c0,0.01,0,0.02,0,0.029c-0.285,0-0.571-0.006-0.856,0.001c-0.406,0.011-0.61,0.285-0.505,0.62
		C7.677,12.576,7.603,12.979,7.629,13.387z"/>
	<path class="st92" d="M19.658,11.895c0.487,0.249,0.291,0.561,0.251,0.85c-0.217,0.279-0.148,0.625-0.225,0.941
		c0.333-0.224,0.331-0.569,0.339-0.91C20.286,12.126,20.246,11.982,19.658,11.895z"/>
	<path class="st92" d="M18.521,12.477c-0.354,0.138-0.64,0.454-0.985,0.719c-0.257-0.671-0.492-1.353-1.422-1.211
		c0.136,0.273,0.257,0.547,0.406,0.807c0.279,0.487,0.507,0.995,0.366,1.561c-0.112,0.449,0.212,0.373,0.439,0.462
		c0.387,0.151,0.338-0.187,0.361-0.345c0.053-0.361,0.23-0.601,0.517-0.813c0.402-0.296,0.775-0.632,1.198-0.983
		C19.058,12.587,18.736,12.394,18.521,12.477z"/>
	<path class="st92" d="M13.963,15.541c-0.129,0.478-0.145,0.962-0.162,1.445c0.045,0.003,0.09,0.007,0.135,0.01
		c0.041-0.379,0.081-0.759,0.122-1.138c-0.137-0.823,0.521-0.563,0.966-0.641C14.342,14.86,14.005,14.979,13.963,15.541z"/>
	<path class="st92" d="M12.706,15.581c-0.146-0.084-0.293-0.125-0.445-0.016c-0.169-0.311-0.42-0.382-0.764-0.259
		c0.287,0.575,0.785,1.054,0.667,1.771c-0.031,0.186,0.181,0.154,0.302,0.172c0.159,0.024,0.215-0.086,0.196-0.216
		c-0.067-0.439,0.232-0.709,0.448-1.019c0.135-0.195,0.337-0.352,0.38-0.566C13.157,15.216,12.942,15.443,12.706,15.581z"/>
	<path class="st92" d="M16.918,11.484c0.012-0.001,0.031-0.02,0.031-0.031c0.006-0.11-0.079-0.108-0.152-0.121
		c-0.014-0.008-0.028-0.015-0.042-0.023c0.014,0.008,0.028,0.016,0.041,0.024C16.81,11.405,16.808,11.491,16.918,11.484z"/>
	<path class="st92" d="M15.55,11.848c-0.616-0.066-1.232-0.135-1.844-0.229c-0.298-0.045-0.435,0.142-0.418,0.345
		c0.044,0.535-0.159,1.045-0.111,1.617c0.209,0.122-0.25,0.527,0.214,0.595c0.613,0.09,1.228,0.16,1.842,0.246
		c0.256,0.036,0.305-0.15,0.351-0.321c0.053-0.194-0.077-0.206-0.236-0.269c-0.32-0.127-0.666-0.022-0.975-0.17
		c-0.127-0.061-0.405,0.049-0.35-0.197c0.043-0.191,0.338-0.21,0.475-0.126c0.229,0.141,0.448,0.07,0.674,0.092
		c0.29,0.028,0.27-0.172,0.307-0.346c0.046-0.217-0.084-0.21-0.248-0.254c-0.293-0.078-0.592-0.091-0.886-0.143
		c-0.101-0.018-0.197-0.039-0.188-0.18c0.01-0.155,0.088-0.194,0.232-0.175c0.348,0.048,0.699,0.077,1.046,0.133
		c0.197,0.032,0.35,0.086,0.374-0.213C15.826,12.026,15.827,11.878,15.55,11.848z"/>
	<path class="st90" d="M12.864,10.74c0.74,0.057,1.48,0.114,2.22,0.171c-0.61-0.212-1.137-0.59-1.722-0.851
		c-0.017-0.008-0.067,0.059-0.102,0.091c0.085,0.115,0.332,0.088,0.299,0.287c-0.027,0.164-0.198,0.091-0.295,0.079
		c-0.33-0.039-0.66-0.066-0.99-0.087v0.291C12.47,10.728,12.667,10.734,12.864,10.74z"/>
	<polygon class="st90" points="17.82,11.442 17.814,11.439 17.811,11.439 17.811,11.442 	"/>
	<polygon class="st90" points="18.079,4.352 18.079,4.352 18.083,4.348 	"/>
	<path class="st90" d="M5.561,11.083c-0.438-0.258-0.827-0.093-1.222,0.02c0.001,0.047,0.003,0.093,0.004,0.14
		C4.749,11.19,5.155,11.136,5.561,11.083z"/>
	<path class="st90" d="M20.306,11.641c-0.5-0.04-0.965-0.283-1.451-0.303c-0.355-0.015-0.37-0.175-0.403-0.41
		c-0.237-0.106-0.139-0.319-0.139-0.485c-0.007-1.853-0.002-3.707-0.007-5.56c0-0.201,0.086-0.455-0.226-0.531
		c-0.031,0.036-0.063,0.072-0.094,0.108l-0.03-0.014c0.012,2.117,0.022,4.234,0.038,6.351c0.001,0.154-0.044,0.256-0.187,0.312
		c0.002,0.11,0.003,0.22,0.005,0.329c0.001,0,0.002,0.001,0.003,0.001c0.002,0.001,0.004,0.002,0.006,0.003
		c0.513-0.049,0.977,0.124,1.434,0.332c-0.513,0.049-0.983-0.099-1.434-0.332c-0.003,0-0.006,0-0.009,0c0-0.001,0-0.002,0-0.003
		c-0.217,0.012-0.334-0.078-0.311-0.309c-0.149-0.002-0.249-0.074-0.304-0.211c-0.096,0.003-0.193,0.006-0.289,0.009
		c-0.208-0.392-0.119-0.796-0.045-1.198c0.016-1.246,0.032-2.492,0.048-3.738c-0.121-0.019-0.309,0.039-0.283-0.176
		c0.019-0.163,0.177-0.11,0.287-0.116l-0.009,0c-0.003-0.273-0.005-0.545-0.008-0.818c-0.356,0.028-0.474,0.229-0.451,0.571
		c0.018,0.266-0.016,0.535-0.017,0.803c-0.003,0.906-0.001,1.813-0.001,2.719c-0.309-0.404-1.1-0.97-1.143-0.865
		c0.35,0.26,0.646,0.559,0.738,1.007c0.37,0.197,0.572,0.105,0.572-0.333c0-0.347,0-0.695,0-1.042c0.034,0,0.067-0.001,0.1-0.001
		c0,0.888-0.006,1.776,0.004,2.664c0.002,0.214-0.033,0.392-0.206,0.527c0.022,0.236-0.091,0.328-0.318,0.297
		c-1.145-0.127-2.29-0.255-3.435-0.382c-0.156-0.004-0.313-0.007-0.469-0.011v0.601H4.135V5.377l0,0
		c-0.036-0.272-0.114-0.439-0.44-0.488c0.027,1.829,0.055,3.659,0.082,5.488c0.002,0.117,0.002,0.235,0.008,0.352
		c0.009,0.178-0.14,0.257-0.251,0.263c-0.182,0.009-0.108-0.17-0.11-0.269C3.402,9.817,3.388,8.911,3.371,8.005
		C3.251,8,3.131,7.996,3.011,7.991c-0.09,0.885-0.019,1.773-0.039,2.66c-0.005,0.2,0.043,0.419-0.247,0.465
		c-0.047,0.004-0.093,0.008-0.14,0.012c-0.032-0.073-0.093-0.147-0.093-0.22C2.498,8.737,2.51,6.566,2.521,4.395
		C2.424,4.287,2.328,4.18,2.168,4.002c0,0.193,0,0.305,0,0.417c0,2.13-0.005,4.26,0.004,6.39c0.001,0.275-0.022,0.404-0.36,0.437
		c-0.458,0.045-0.908,0.198-1.356,0.325c-0.353,0.101-0.549,0.262-0.411,0.714c0.345,1.134,0.629,2.287,0.936,3.433
		c0.175,0.651,0.203,0.678,0.854,0.545c0.256-0.052,0.333-0.021,0.342,0.274c0.03,0.988,0.313,0.444,0.321-0.304
		c0.001-0.055,0.063-0.109,0.097-0.163c0.033-0.002,0.066-0.002,0.099,0.002c0.104-0.013,0.208-0.084,0.313-0.003
		c0.144,0.023,0.185,0.118,0.185,0.25C3.19,17.004,3.19,17.688,3.19,18.372c0,0.115-0.051,0.189-0.166,0.214
		c0.106,0.82,0.149,0.865,0.75,0.776c0.068,0.345-0.3,0.744,0.121,1.046c0.034-0.036,0.069-0.071,0.103-0.107
		c0.147-0.172,0.23-0.011,0.317,0.069c0.372,0.34,0.637,0.893,1.3,0.647c0.142-0.019,0.316-0.162,0.261,0.186
		c-0.14,0.882-0.121,0.889,0.657,1.321c0.307,0.17,0.619,0.331,0.936,0.483c0.496,0.238,0.619,0.159,0.782-0.358
		c0.099-0.311,0.018-0.696,0.345-0.923c0.076,0.273,0.032,0.551,0.027,0.826c-0.006,0.066-0.018,0.133-0.018,0.199
		C8.6,23.567,8.607,23.575,9.44,23.72c0.021-0.063,0.043-0.125,0.064-0.188c0-1.011,0-2.023,0-3.034
		c-0.021-0.027-0.042-0.053-0.063-0.08c-0.055-0.01-0.11-0.02-0.165-0.03C9.192,20.4,9.11,20.401,9.044,20.335
		c-0.032-0.009-0.064-0.02-0.097-0.026c-0.378-0.075-0.776-0.258-1.13-0.196c-0.402,0.07-0.35,0.638-0.705,0.979
		c0.073-0.342,0.127-0.6,0.182-0.857c0.034-0.16,0.037-0.282-0.167-0.349c-0.443-0.145-0.876-0.317-1.314-0.478
		c0.053,0.271-0.102,0.427-0.318,0.529c-0.172,0.082-0.173-0.071-0.199-0.176c-0.677,0.095-0.009-0.36-0.191-0.467
		C4.987,19.219,5.01,19.1,5.005,18.99c-0.212,0.014-0.414-0.051-0.449-0.266c-0.031-0.19,0.181-0.112,0.287-0.149
		c-0.433-0.557-0.701-1.193-0.895-1.92c-0.217,0.26-0.076,0.547-0.247,0.914c-0.055-0.651-0.243-1.15-0.201-1.688
		c-0.111-0.176-0.083-0.385,0.123-0.357c0.324,0.044,0.601-0.148,0.952-0.095c-0.121,0.208-0.283,0.312-0.497,0.349
		c0.164,0.618,0.253,1.26,0.586,1.823c0.046-0.184,0.073-0.381,0.3-0.442c-0.24-0.408-0.335-0.873-0.416-1.322
		c-0.06-0.328,0.357-0.042,0.474-0.222c0.007-0.114,0.014-0.228,0.021-0.343l-0.019-0.011c-0.098,0.016-0.196,0.147-0.291,0.007
		c-0.02-0.029-0.013-0.105,0.011-0.131c0.102-0.108,0.194-0.068,0.27,0.041c0.43-0.048,0.858-0.105,1.289-0.14
		c0.123-0.01,0.358-0.015,0.131,0.218c-0.126,0.143-0.005,0.223,0.08,0.312c0.038,0.001,0.076,0.001,0.114,0.002
		c0.09,0.524,0.262,1.043,0.084,1.582c0.032,0.286,0.073,0.571,0.211,0.83c0.378-0.222,0.798-0.178,1.21-0.19
		c1.443-0.062,2.885-0.071,4.328,0.005c0.428-0.13,0.949,0.22,1.321-0.249c0.008-0.01,0.04,0.136,0.044,0.214
		c0.15,0.065,0.145,0.204,0.157,0.334c0.277-0.271,0.107-0.648,0.17-0.962c0.071-0.355,0.156-0.753,0.135-1.145
		c-0.018-0.33,0.229-0.477,0.523-0.46c0.347,0.019,0.691,0.091,1.035,0.149c0.283,0.048,0.153,0.261,0.126,0.397
		c-0.185,0.936-0.529,1.791-1.302,2.411c0.591,0.016,0.652-0.618,1.064-0.892c0.035,0.245-0.22,0.374-0.148,0.579
		c0.552-0.531,0.576-1.293,0.855-1.944c0.062-0.146-0.094-0.451,0.331-0.386c0.423,0.065,0.247,0.277,0.229,0.483
		c-0.01,0.115,0.006,0.232,0.01,0.349c0.268,0.132,0.269,0.266,0.004,0.403c-0.015,0.166-0.03,0.332-0.044,0.499
		c-0.175,0.023-0.128-0.117-0.157-0.194c-0.037-0.099-0.098-0.194-0.196-0.201c-0.13-0.01-0.128,0.133-0.165,0.216
		c-0.213,0.482-0.416,0.969-0.829,1.327c-0.193,0.167-0.173,0.383-0.116,0.601c0.039,0.151,0.083,0.3,0.09,0.524
		c-0.437-0.773-0.916-0.341-1.453-0.212c-0.839,0.201-0.951,0.641-0.715,1.354c-0.039-0.05-0.085-0.095-0.115-0.149
		c-0.436-0.794-0.435-0.792-1.372-0.527c-0.09,0.025-0.191,0.011-0.286,0.016c0,0.025-0.001,0.05-0.002,0.074
		c-0.06,0.092-0.122,0.113-0.189,0.007l-0.034-0.034c-0.06,0.01-0.119,0.019-0.179,0.029c-0.035,0.033-0.07,0.066-0.105,0.099
		c0,1.007,0,2.014,0,3.022c0.109,0.005,0.193,0.047,0.231,0.156c0.06-0.02,0.119-0.039,0.179-0.059
		c0.049-0.029,0.098-0.058,0.147-0.087c0.409,0.022,0.326-0.26,0.309-0.501c-0.029,0.058-0.057,0.116-0.086,0.174
		c-0.153-0.573-0.098-1.267,0.118-1.501c0.354,0.32,0.269,0.792,0.393,1.19c0.096,0.307,0.189,0.384,0.477,0.224
		c0.483-0.267,0.97-0.528,1.471-0.76c0.417-0.193,0.582-0.458,0.414-0.909c-0.051-0.136-0.038-0.295-0.056-0.46
		c0.274,0.046,0.354,0.237,0.429,0.449c0.046,0.128,0.128,0.362,0.298,0.177c0.358-0.389,0.845-0.624,1.165-1.063
		c0.28-0.384,0.32-0.771,0.16-1.301c0.608,0.48,0.671,0.029,0.76-0.321c0.052-0.207,0.04-0.43,0.057-0.646
		c-0.165-0.17-0.164-0.341,0-0.511c0-0.3,0-0.6,0-0.899c-0.176-0.236-0.171-0.473-0.005-0.711c0.171-0.135,0.379-0.183,0.372,0.099
		l0.329,0.211c0.003-0.231,0.085-0.08,0.143-0.021c0.018-0.197,0.129-0.258,0.304-0.187c0.567,0.23,0.739-0.132,0.86-0.568
		c0.284-1.027,0.557-2.056,0.851-3.08c0.067-0.232,0.067-0.457,0.06-0.69C20.522,11.773,20.445,11.652,20.306,11.641z
		 M10.326,11.776c-0.01-0.296,0.13-0.345,0.363-0.31c0.2,0.03,0.512-0.116,0.478,0.303c-0.018,0.212-0.003,0.426-0.003,0.652
		c0.612-0.081,0.701-0.858,1.3-0.912c0.016-0.078,0.035-0.155,0.134-0.162c0.125-0.01,0.153,0.077,0.167,0.175
		c0.106,0.022,0.213,0.044,0.319,0.066c0.038,0.043,0.075,0.085,0.113,0.128c-0.31,0.22-0.62,0.439-0.982,0.696
		c0.61,0.236,0.871,1.28,0.533,1.644c-0.162,0.174-0.378,0.027-0.567,0.019c-0.216-0.008-0.1-0.201-0.139-0.311
		c-0.076-0.22,0.257-0.596-0.267-0.652c-0.627-0.067-0.643-0.083-0.644,0.555c0,0.303-0.074,0.412-0.394,0.395
		c-0.273-0.014-0.427-0.03-0.411-0.375C10.356,13.051,10.348,12.412,10.326,11.776z M8.051,11.539
		c0.285-0.007,0.57-0.001,0.856-0.001c0-0.01,0-0.02,0-0.029c0.218-0.011,0.436-0.022,0.654-0.033
		c0.198-0.01,0.394-0.067,0.392,0.271c-0.001,0.294-0.098,0.392-0.374,0.357c-0.066-0.008-0.134,0.002-0.201,0.004
		c-1.023,0.042-1.136,0.207-0.86,1.185c0.047,0.166,0.135,0.159,0.255,0.157c0.285-0.007,0.571-0.005,0.856-0.02
		c0.228-0.012,0.363,0.01,0.365,0.31c0.002,0.297-0.123,0.324-0.358,0.323c-0.403-0.002-0.806,0.011-1.208,0.036
		c-0.493,0.03-0.766-0.202-0.798-0.711c-0.026-0.408,0.048-0.811-0.083-1.228C7.441,11.824,7.645,11.549,8.051,11.539z M1.06,11.89
		c0.002,0.108,0.051,0.235-0.068,0.307c-0.103,0.062-0.18-0.001-0.235-0.092c-0.239,0.034-0.173,0.195-0.138,0.338
		c0.048,0.199,0.101,0.397,0.12,0.599c-0.625-0.74-0.38-1.245,0.644-1.395c0.452-0.087,0.891-0.272,1.376-0.135
		c-0.421,0.078-0.842,0.155-1.263,0.233C1.409,11.971,1.189,11.794,1.06,11.89z M4.27,14.629c-0.192-0.017-0.452,0.302-0.578-0.092
		c-0.026-0.079-0.046-0.163-0.048-0.246c-0.011-0.465-0.243-0.486-0.644-0.408c-0.449,0.088-0.485,0.288-0.338,0.644
		c0.119,0.289,0.082,0.447-0.282,0.557c-0.406,0.122-0.443-0.09-0.499-0.356c-0.146-0.7-0.455-1.36-0.497-2.084
		c-0.096-0.06-0.26-0.175-0.132-0.243c0.17-0.09,0.198-0.347,0.386-0.335c0.198,0.013,0.216,0.221,0.247,0.384
		c0.382-0.014,0.322,0.316,0.392,0.527c0.071,0.215,0.039,0.504,0.413,0.365c0.287-0.107,0.785,0.042,0.628-0.58
		c-0.053-0.209-0.311-0.545,0.21-0.623c0.367-0.055,0.565-0.079,0.59,0.414c0.03,0.603,0.168,1.209,0.329,1.795
		C4.513,14.593,4.417,14.642,4.27,14.629z M6.63,14.267c-0.399,0.041-0.794,0.109-1.191,0.168c-0.424,0.063-0.674-0.141-0.728-0.577
		c-0.054-0.442-0.121-0.89-0.223-1.316c-0.103-0.432,0.145-0.556,0.396-0.611c0.602-0.132,1.219-0.208,1.834-0.268
		c0.267-0.026,0.471,0.137,0.5,0.432c0.044,0.463,0.075,0.927,0.098,1.224C7.343,14.162,7.303,14.198,6.63,14.267z M6.965,17.39
		c-0.013-0.028-0.036-0.056-0.037-0.084c-0.001-0.044,0.013-0.089,0.025-0.154c0.029,0.035,0.061,0.056,0.058,0.072
		C7.002,17.28,6.981,17.334,6.965,17.39z M9.467,16.88c-0.046,0.222-0.125,0.308-0.356,0.315c-0.229,0.007-0.337-0.076-0.386-0.29
		c-0.036-0.159-0.097-0.313-0.147-0.469c-0.03,0.002-0.061,0.003-0.091,0.005c-0.038,0.19-0.089,0.38-0.111,0.572
		c-0.028,0.233-0.192,0.226-0.362,0.253c-0.186,0.029-0.264-0.04-0.328-0.21c-0.199-0.529-0.419-1.051-0.634-1.586
		c0.354-0.224,0.568-0.135,0.676,0.268c0.065,0.24,0.16,0.472,0.262,0.768c0.177-0.323,0.154-0.64,0.228-0.928
		c0.04-0.156,0.059-0.292,0.261-0.304c0.184-0.01,0.217,0.125,0.259,0.25c0.092,0.281,0.179,0.564,0.317,0.999
		c0.102-0.433,0.196-0.718,0.232-1.011c0.037-0.298,0.228-0.299,0.429-0.266c0.303,0.05,0.108,0.249,0.078,0.375
		C9.692,16.042,9.554,16.456,9.467,16.88z M9.855,17.276c-0.012-0.051-0.024-0.102-0.036-0.152c0.175-0.55,0.362-1.097,0.521-1.652
		c0.071-0.247,0.236-0.231,0.424-0.238c0.209-0.008,0.341,0.041,0.4,0.271c0.14,0.547,0.304,1.089,0.486,1.73
		C11.019,17.077,10.438,16.777,9.855,17.276z M13.109,16.014c-0.216,0.311-0.515,0.581-0.448,1.019
		c0.02,0.13-0.036,0.239-0.196,0.216c-0.121-0.018-0.332,0.014-0.302-0.172c0.118-0.717-0.38-1.196-0.667-1.771
		c0.345-0.122,0.596-0.051,0.764,0.259c0.153-0.109,0.3-0.067,0.445,0.016c0.236-0.138,0.451-0.365,0.783-0.133
		C13.446,15.661,13.245,15.819,13.109,16.014z M14.058,15.858c-0.041,0.379-0.081,0.759-0.122,1.138
		c-0.045-0.003-0.09-0.007-0.135-0.01c0.017-0.483,0.033-0.967,0.162-1.445c0.042-0.563,0.379-0.681,1.061-0.324
		C14.579,15.295,13.92,15.035,14.058,15.858z M15.808,12.255c-0.024,0.299-0.177,0.246-0.374,0.213
		c-0.347-0.057-0.698-0.086-1.046-0.133c-0.144-0.02-0.222,0.02-0.232,0.175c-0.009,0.142,0.087,0.162,0.188,0.18
		c0.294,0.052,0.593,0.065,0.886,0.143c0.164,0.044,0.294,0.036,0.248,0.254c-0.037,0.174-0.017,0.375-0.307,0.346
		c-0.225-0.022-0.445,0.049-0.674-0.092c-0.138-0.085-0.432-0.065-0.475,0.126c-0.055,0.246,0.223,0.136,0.35,0.197
		c0.31,0.148,0.655,0.043,0.975,0.17c0.159,0.063,0.289,0.075,0.236,0.269c-0.047,0.17-0.095,0.357-0.351,0.321
		c-0.613-0.086-1.229-0.156-1.842-0.246c-0.464-0.068-0.006-0.473-0.214-0.595c-0.048-0.573,0.155-1.082,0.111-1.617
		c-0.017-0.203,0.12-0.39,0.418-0.345c0.612,0.093,1.228,0.162,1.844,0.229C15.827,11.878,15.826,12.026,15.808,12.255z
		 M16.797,11.331c0.073,0.013,0.159,0.011,0.152,0.121c-0.001,0.011-0.02,0.031-0.031,0.031c-0.11,0.007-0.109-0.079-0.122-0.151
		c-0.014-0.008-0.028-0.016-0.041-0.024C16.769,11.316,16.783,11.324,16.797,11.331z M18.203,13.656
		c-0.287,0.212-0.464,0.452-0.517,0.813c-0.023,0.158,0.026,0.497-0.361,0.345c-0.227-0.089-0.55-0.012-0.439-0.462
		c0.141-0.566-0.087-1.075-0.366-1.561c-0.149-0.259-0.27-0.534-0.406-0.807c0.93-0.141,1.166,0.54,1.422,1.211
		c0.345-0.265,0.63-0.581,0.985-0.719c0.215-0.083,0.537,0.11,0.88,0.196C18.977,13.024,18.605,13.36,18.203,13.656z M20.024,12.776
		c-0.008,0.341-0.006,0.685-0.339,0.91c0.076-0.315,0.008-0.661,0.225-0.941c0.04-0.289,0.236-0.601-0.251-0.85
		C20.246,11.982,20.286,12.126,20.024,12.776z"/>
	<path class="st90" d="M8.709,10.708c-0.359,0.011-0.717,0.021-1.076,0.032c-0.541,0.038-1.082,0.076-1.623,0.114
		c0.002,0.043,0.005,0.085,0.007,0.128c0.647,0.019,1.291-0.025,1.934-0.138c0.425-0.012,0.851-0.024,1.276-0.036
		c0.679,0,1.358,0,2.037,0c0.336,0.008,0.672,0.016,1.008,0.024v-0.111c-0.097-0.003-0.194-0.006-0.291-0.009
		C10.891,10.588,9.8,10.586,8.709,10.708z"/>
</g>
<path class="st93" d="M9.036,0.056c0.194-0.021,0.389-0.042,0.583-0.063c0.482,0.251,0.966,0.235,1.451,0.01
	c1.304,0.19,2.622,0.315,3.908,0.835c-0.166,0.131-0.314,0.249-0.463,0.366c-0.498-0.141-0.992-0.298-1.494-0.421
	c-2.359-0.579-4.669-0.387-6.934,0.463C5.933,1.126,5.778,1.006,5.569,0.843C6.614,0.528,7.586,0.19,8.626,0.13
	C8.796,0.289,8.947,0.34,9.036,0.056z"/>
<path class="st94" d="M14.301,1.454c-0.053,0.17-0.189,0.256-0.337,0.329c-0.517-0.131-1.03-0.279-1.551-0.389
	C10.454,0.978,8.537,1.148,6.66,1.83c-0.173-0.059-0.3-0.177-0.405-0.32c0.073-0.04,0.142-0.094,0.22-0.119
	C9.09,0.546,11.699,0.537,14.301,1.454z"/>
<path class="st93" d="M13.679,2.001C13.452,2.324,13.19,2.4,12.781,2.29c-1.664-0.446-3.34-0.439-5.003,0.018
	C7.384,2.417,7.101,2.357,6.889,2.007C9.152,1.328,11.415,1.29,13.679,2.001z"/>
<path class="st95" d="M14.301,1.454C11.699,0.537,9.09,0.546,6.474,1.392C6.397,1.417,6.328,1.471,6.255,1.51
	C6.199,1.422,6.143,1.335,6.087,1.247c2.265-0.85,4.575-1.042,6.934-0.463c0.502,0.123,0.996,0.28,1.494,0.421
	C14.444,1.288,14.372,1.371,14.301,1.454z"/>
<path class="st96" d="M17.5,11.13c-0.149-0.002-0.249-0.074-0.304-0.211c0.013-0.57,0.025-1.141,0.038-1.711
	c0.134-1.431,0.069-2.864,0.034-4.297c-0.018-0.052-0.036-0.104-0.054-0.156c0.145-0.08,0.284-0.175,0.463-0.157
	c-0.001,0.061-0.001,0.122-0.002,0.183c-0.116,0.167-0.065,0.357-0.065,0.536c-0.004,1.904-0.003,3.808-0.003,5.711
	C17.571,11.062,17.535,11.096,17.5,11.13z"/>
<path class="st95" d="M13.679,2.001c-2.264-0.711-4.527-0.673-6.79,0.005C6.813,1.948,6.736,1.889,6.66,1.83
	c1.877-0.682,3.794-0.852,5.753-0.436c0.521,0.111,1.034,0.259,1.551,0.389C13.898,1.894,13.794,1.955,13.679,2.001z"/>
<path class="st91" d="M3.695,4.889c0.027,1.829,0.055,3.659,0.082,5.488c0.002,0.117,0.002,0.235,0.008,0.352
	c0.009,0.178-0.14,0.257-0.251,0.263c-0.182,0.009-0.108-0.17-0.11-0.269C3.402,9.817,3.388,8.911,3.371,8.005
	c-0.003-1.009-0.007-2.018-0.01-3.027c0.01-0.071,0.02-0.142,0.029-0.212C3.504,4.777,3.614,4.796,3.695,4.889z"/>
<path class="st95" d="M3.011,7.991c-0.09,0.886-0.019,1.773-0.039,2.66c-0.005,0.2,0.043,0.419-0.247,0.465
	c-0.02-0.13-0.058-0.261-0.058-0.391c0-2.074,0.005-4.149,0.008-6.223c0.105,0.04,0.211,0.081,0.316,0.121c0,0.087,0,0.173,0,0.26
	C2.96,5.86,2.947,6.839,2.998,7.817C3.002,7.875,3.006,7.933,3.011,7.991z"/>
<path class="st95" d="M17.675,4.78c0.001-0.061,0.001-0.122,0.002-0.183c0.093-0.05,0.186-0.1,0.278-0.151
	c0.012,2.117,0.022,4.234,0.038,6.351c0.001,0.154-0.044,0.256-0.187,0.312c-0.037-0.025-0.073-0.05-0.11-0.076
	C17.689,8.949,17.682,6.865,17.675,4.78z"/>
<path class="st97" d="M17.234,9.207c-0.013,0.57-0.025,1.141-0.038,1.711c-0.097,0.003-0.193,0.006-0.29,0.009
	c-0.015-0.399-0.03-0.799-0.045-1.198c0.016-1.246,0.032-2.492,0.048-3.738c0.001-0.098,0.003-0.195,0.004-0.293
	c0,0-0.009,0-0.009,0c0.101-0.284,0.046-0.578,0.06-0.868c0.083-0.025,0.166-0.05,0.249-0.075c0.018,0.052,0.036,0.104,0.054,0.155
	C17.256,6.342,17.245,7.774,17.234,9.207z"/>
<path class="st98" d="M18.451,10.928c-0.237-0.106-0.139-0.319-0.139-0.485c-0.007-1.853-0.002-3.707-0.007-5.56
	c0-0.201,0.086-0.456-0.226-0.531c0.106-0.145,0.212-0.29,0.322-0.439c0.156,0.13,0.07,0.291,0.07,0.425
	C18.47,6.534,18.46,8.731,18.451,10.928z"/>
<path class="st93" d="M4.295,4.343c0.108,0.12,0.223,0.095,0.34,0.017c0.035,0.037,0.07,0.074,0.105,0.111
	C4.657,4.728,4.789,4.809,5.22,4.768C5.443,5,5.713,5.155,6.016,5.257c0.209,0.267,0.568,0.305,0.806,0.527
	C6.819,5.857,6.817,5.93,6.814,6.004C5.772,5.499,4.73,4.995,3.687,4.49C3.884,4.418,4.142,4.597,4.295,4.343z"/>
<path class="st98" d="M3.011,7.991C3.006,7.933,3.002,7.875,2.998,7.817C3.166,7.781,3.19,7.654,3.191,7.513
	c0-0.781-0.001-1.563,0.001-2.344c0-0.146-0.026-0.266-0.2-0.287c0-0.087,0-0.173,0-0.26c0.1,0.033,0.199,0.067,0.299,0.1
	c0.003,0.091-0.009,0.186,0.071,0.256c0.003,1.009,0.007,2.018,0.01,3.027C3.251,8,3.131,7.996,3.011,7.991z"/>
<path class="st99" d="M9.626,4.426c0.174-0.339,0.4-0.642,0.646-0.943c0.346,0.237,0.515,0.612,0.787,0.895
	c0.028,0.069,0.055,0.138,0.083,0.206c-0.118-0.003-0.237-0.011-0.301,0.12c-0.12-0.169-0.243-0.336-0.36-0.508
	c-0.074-0.108-0.141-0.192-0.235-0.02c-0.067,0.069-0.133,0.137-0.2,0.206C9.964,4.433,9.883,4.484,9.802,4.535
	C9.743,4.499,9.684,4.462,9.626,4.426z"/>
<path class="st93" d="M2.675,4.502C2.671,6.576,2.667,8.65,2.667,10.725c0,0.13,0.038,0.261,0.058,0.391
	c-0.047,0.004-0.093,0.008-0.14,0.012c0.001-2.22,0.002-4.44,0.004-6.66C2.619,4.475,2.648,4.486,2.675,4.502z"/>
<path class="st98" d="M2.588,4.468c-0.001,2.22-0.002,4.44-0.004,6.66c-0.032-0.073-0.093-0.147-0.093-0.22
	C2.498,8.737,2.51,6.566,2.521,4.395C2.543,4.42,2.566,4.444,2.588,4.468z"/>
<path class="st98" d="M6.705,6.287C6.81,6.351,6.833,6.463,6.866,6.569c-0.205,0.215-0.41,0.43-0.616,0.645
	c-0.317,0.012-0.472,0.203-0.539,0.49C5.613,7.705,5.514,7.706,5.416,7.707l-0.03-0.023C5.756,7.153,6.227,6.716,6.705,6.287z"/>
<path class="st98" d="M18.308,18.056c-0.002-0.526-0.006-1.052,0.001-1.578c0.003-0.231,0.085-0.08,0.143-0.021
	C18.497,17.099,18.309,18.184,18.308,18.056z"/>
<path class="st96" d="M15.511,7.895c-0.106,0.038-0.183,0.107-0.226,0.212c-0.262-0.115-0.468-0.302-0.652-0.517
	c0.046-0.112,0.129-0.175,0.249-0.189"/>
<path class="st98" d="M11.07,0.003c-0.485,0.225-0.969,0.241-1.451-0.01C10.103-0.059,10.587-0.077,11.07,0.003z"/>
<path class="st99" d="M8.852,5.89C8.759,5.887,8.674,5.868,8.627,5.774c0.021-0.23,0.413-0.311,0.247-0.616
	c0.019-0.032,0.039-0.063,0.058-0.095C9.141,5.185,9.176,4.955,9.29,4.887c0.04,0.086,0.081,0.171,0.121,0.257
	C9.225,5.392,9.039,5.641,8.852,5.89z"/>
<path class="st99" d="M9.29,4.887c0.017-0.07,0.033-0.139,0.05-0.209c0-0.031,0-0.061-0.001-0.092
	c0.144,0.033,0.19-0.109,0.286-0.16c0.059,0.036,0.117,0.072,0.176,0.108C9.728,4.679,9.656,4.823,9.716,4.993
	c-0.101,0.05-0.203,0.1-0.304,0.151C9.371,5.058,9.331,4.972,9.29,4.887z"/>
<path class="st98" d="M6.814,6.004c0.002-0.073,0.005-0.147,0.007-0.22c0.103,0.023,0.207,0.048,0.306-0.013l-0.02,0.015L7.115,5.81
	c0.003,0.06,0.006,0.12,0.01,0.18C7.017,6.058,6.964,6.216,6.797,6.184C6.803,6.124,6.809,6.064,6.814,6.004z"/>
<path class="st94" d="M8.027,6.405C8.012,6.492,8.055,6.654,7.929,6.633c-0.172-0.029-0.073-0.216-0.105-0.33
	C7.892,6.336,7.959,6.371,8.027,6.405z"/>
<path class="st98" d="M9.036,0.056c-0.09,0.285-0.24,0.233-0.41,0.074c0.041-0.012,0.085-0.024,0.131-0.034
	C8.858,0.074,8.952,0.062,9.036,0.056z"/>
<path class="st96" d="M16.965,4.83c-0.014,0.29,0.041,0.584-0.06,0.868c-0.003-0.273-0.005-0.545-0.008-0.818
	C16.911,4.852,16.934,4.835,16.965,4.83z"/>
<polygon class="st90" points="6.665,6.004 3.88,9.114 4.041,11.004 9.18,9.319 8.301,8.829 11.194,7.679 8.706,6.766 11.434,5.137 
	10.238,3.416 7.919,6.35 3.731,4.196 3.635,4.404 6.739,6.004 "/>
<path class="st93" d="M7.625,6.196c-0.177,0.144-0.18,0.003-0.195-0.119C7.495,6.116,7.56,6.156,7.625,6.196z"/>
<path class="st94" d="M3.361,4.978c-0.08-0.07-0.068-0.165-0.071-0.256c0.033,0.015,0.067,0.029,0.1,0.044
	C3.381,4.837,3.371,4.907,3.361,4.978z"/>
<path class="st93" d="M8.966,4.377c0.059-0.001,0.117-0.001,0.176-0.002c0.031,0.01,0.043,0.03,0.038,0.062
	C9.154,4.463,9.128,4.489,9.101,4.515C9.041,4.485,8.926,4.507,8.966,4.377z"/>
<path class="st93" d="M9.339,4.586C9.34,4.617,9.341,4.647,9.34,4.678C9.303,4.649,9.266,4.619,9.228,4.59
	c0.023-0.024,0.045-0.05,0.064-0.078C9.326,4.525,9.342,4.55,9.339,4.586z"/>
<path class="st93" d="M9.228,4.59C9.186,4.565,9.144,4.54,9.101,4.515C9.128,4.489,9.154,4.463,9.18,4.438
	c0.037,0.025,0.075,0.05,0.112,0.075C9.273,4.54,9.252,4.566,9.228,4.59z"/>
<path class="st98" d="M18.083,4.348c-0.033,0.037-0.065,0.075-0.098,0.112C18.018,4.422,18.05,4.385,18.083,4.348z"/>
<path class="st96" d="M11.155,5.281c-0.105-0.192-0.209-0.385-0.314-0.577c0.064-0.131,0.183-0.123,0.301-0.12
	c0.021,0.002,0.04-0.003,0.057-0.015c-0.045,0.29,0.194,0.395,0.357,0.549c0.002,0.06,0.004,0.12,0.005,0.18
	c0.237,0.356,0.475,0.712,0.712,1.068c-0.017,0.261,0.169,0.398,0.352,0.501c0.281,0.157,0.321-0.154,0.476-0.266
	c0.393-0.285,0.174,0.267,0.357,0.296c-0.022,0.205-0.305,0.332-0.171,0.586c0.278,0.529,0.525,1.076,0.834,1.586
	c0.207,0.342,0.551,0.598,0.973,0.493c0.326-0.081,0.62-0.293,0.928-0.447c0.37,0.197,0.572,0.105,0.572-0.333
	c0-0.347,0-0.695,0-1.042c0.033,0,0.067-0.001,0.1-0.001c0,0.888-0.006,1.776,0.004,2.664c0.002,0.214-0.033,0.392-0.206,0.527
	c-0.117,0.039-0.234,0.079-0.35,0.118c-0.354-0.045-0.725,0.051-1.061-0.135c-0.61-0.212-1.137-0.59-1.722-0.851
	c-0.017-0.008-0.067,0.059-0.102,0.091c-0.097-0.046-0.195-0.093-0.292-0.139c-0.067-0.205-0.161-0.353-0.402-0.194
	c-0.592-0.166-1.053-0.602-1.649-0.779c-0.329-0.097-0.377-0.327-0.02-0.552c0.417-0.262,0.853-0.508,1.271-0.903
	c-0.594-0.251-1.132-0.479-1.735-0.733c0.362-0.265,0.859-0.633,1.164-0.833"/>
<path class="st90" d="M7.317,13.319c0.026,0.842-0.014,0.879-0.687,0.948c-0.399,0.041-0.794,0.109-1.191,0.168
	c-0.424,0.063-0.674-0.141-0.727-0.577c-0.054-0.442-0.121-0.89-0.223-1.316c-0.103-0.432,0.145-0.556,0.396-0.611
	c0.602-0.132,1.219-0.209,1.834-0.268c0.267-0.026,0.471,0.137,0.499,0.432C7.263,12.558,7.294,13.022,7.317,13.319z M5.85,13.77
	c0.308-0.137,0.831,0.041,0.648-0.536c-0.096-0.302,0.223-0.867-0.408-0.854c-0.226,0.004-0.79-0.178-0.659,0.423
	C5.503,13.136,5.292,13.658,5.85,13.77z"/>
<path class="st90" d="M13.177,13.582c-0.048-0.573,0.155-1.082,0.111-1.617c-0.017-0.203,0.12-0.39,0.418-0.345
	c0.612,0.093,1.228,0.162,1.844,0.229c0.277,0.03,0.276,0.178,0.258,0.407c-0.024,0.3-0.177,0.246-0.374,0.213
	c-0.347-0.057-0.698-0.086-1.046-0.133c-0.144-0.02-0.222,0.02-0.231,0.175c-0.009,0.142,0.087,0.162,0.188,0.18
	c0.294,0.052,0.593,0.065,0.886,0.143c0.164,0.044,0.294,0.036,0.248,0.254c-0.037,0.174-0.017,0.374-0.307,0.346
	c-0.225-0.022-0.445,0.049-0.674-0.092c-0.138-0.085-0.432-0.065-0.475,0.126c-0.055,0.246,0.223,0.136,0.35,0.197
	c0.31,0.148,0.655,0.043,0.975,0.17c0.159,0.063,0.289,0.075,0.236,0.269c-0.047,0.17-0.095,0.357-0.351,0.321
	c-0.613-0.086-1.229-0.156-1.842-0.246C12.927,14.109,13.386,13.704,13.177,13.582z"/>
<path class="st90" d="M12.765,11.522c0.106,0.022,0.213,0.044,0.319,0.066c0.038,0.043,0.075,0.085,0.113,0.128
	c-0.31,0.22-0.62,0.439-0.982,0.696c0.61,0.236,0.871,1.28,0.533,1.644c-0.162,0.174-0.378,0.027-0.567,0.019
	c-0.216-0.008-0.1-0.2-0.139-0.311c-0.076-0.22,0.257-0.596-0.267-0.652c-0.627-0.067-0.643-0.083-0.644,0.555
	c0,0.303-0.074,0.412-0.394,0.395c-0.273-0.014-0.427-0.03-0.411-0.375c0.03-0.636,0.022-1.274,0-1.911
	c-0.01-0.296,0.13-0.345,0.363-0.31c0.2,0.03,0.512-0.116,0.478,0.303c-0.018,0.212-0.003,0.426-0.003,0.652
	c0.612-0.081,0.701-0.858,1.3-0.912C12.565,11.513,12.665,11.517,12.765,11.522z"/>
<path class="st90" d="M1.885,12.451c0.382-0.014,0.322,0.316,0.392,0.527c0.071,0.215,0.04,0.504,0.413,0.365
	c0.287-0.107,0.785,0.042,0.628-0.58c-0.053-0.209-0.311-0.545,0.21-0.623c0.367-0.055,0.565-0.079,0.59,0.414
	c0.03,0.603,0.168,1.209,0.329,1.795c0.067,0.244-0.028,0.293-0.175,0.28c-0.192-0.017-0.452,0.302-0.578-0.092
	c-0.025-0.079-0.046-0.163-0.048-0.246c-0.011-0.465-0.243-0.486-0.644-0.408c-0.449,0.088-0.485,0.288-0.338,0.644
	c0.119,0.289,0.082,0.447-0.282,0.556c-0.406,0.122-0.444-0.09-0.499-0.356c-0.146-0.7-0.455-1.36-0.497-2.084
	C1.565,12.615,1.762,12.629,1.885,12.451z"/>
<path class="st90" d="M8.907,11.508c0.218-0.011,0.436-0.022,0.654-0.033c0.198-0.01,0.394-0.067,0.392,0.271
	c-0.001,0.295-0.098,0.392-0.374,0.357c-0.066-0.008-0.134,0.002-0.201,0.004c-1.023,0.042-1.136,0.207-0.86,1.185
	c0.047,0.166,0.135,0.159,0.255,0.157c0.285-0.007,0.571-0.005,0.856-0.02c0.228-0.012,0.363,0.01,0.364,0.31
	c0.002,0.297-0.123,0.324-0.358,0.323c-0.403-0.002-0.806,0.011-1.208,0.036c-0.493,0.03-0.766-0.202-0.798-0.711
	c-0.026-0.408,0.048-0.811-0.083-1.228c-0.105-0.334,0.099-0.609,0.505-0.62c0.285-0.007,0.57-0.001,0.856-0.001
	C8.907,11.527,8.907,11.518,8.907,11.508z"/>
<path class="st90" d="M16.114,11.985c0.93-0.141,1.165,0.54,1.422,1.211c0.345-0.265,0.63-0.581,0.985-0.719
	c0.215-0.083,0.537,0.11,0.88,0.196c-0.423,0.35-0.796,0.687-1.198,0.983c-0.287,0.212-0.464,0.452-0.517,0.813
	c-0.023,0.158,0.026,0.497-0.361,0.345c-0.227-0.089-0.55-0.012-0.439-0.462c0.141-0.566-0.087-1.075-0.366-1.561
	C16.371,12.532,16.25,12.257,16.114,11.985z"/>
<path class="st90" d="M8.487,16.441c-0.038,0.191-0.089,0.38-0.111,0.572c-0.028,0.233-0.192,0.226-0.362,0.253
	c-0.186,0.029-0.264-0.04-0.328-0.21c-0.199-0.529-0.419-1.051-0.634-1.586c0.355-0.224,0.568-0.135,0.676,0.267
	c0.065,0.24,0.16,0.472,0.262,0.768c0.177-0.323,0.153-0.64,0.228-0.928c0.04-0.156,0.059-0.293,0.261-0.304
	c0.184-0.01,0.217,0.125,0.259,0.25c0.092,0.281,0.179,0.564,0.317,0.999c0.102-0.433,0.196-0.718,0.232-1.011
	c0.037-0.298,0.228-0.299,0.429-0.266c0.303,0.05,0.108,0.249,0.078,0.375c-0.101,0.422-0.239,0.836-0.326,1.26
	c-0.046,0.222-0.125,0.308-0.356,0.315c-0.229,0.007-0.337-0.076-0.386-0.29c-0.036-0.159-0.097-0.313-0.147-0.469
	C8.548,16.438,8.518,16.439,8.487,16.441z"/>
<path class="st90" d="M9.818,17.123c0.175-0.55,0.362-1.097,0.521-1.652c0.071-0.247,0.236-0.231,0.424-0.238
	c0.209-0.008,0.341,0.041,0.4,0.271c0.14,0.547,0.304,1.089,0.486,1.73c-0.631-0.157-1.211-0.457-1.794,0.042
	C9.843,17.225,9.831,17.174,9.818,17.123z"/>
<path class="st90" d="M12.706,15.581c0.236-0.138,0.451-0.365,0.783-0.133c-0.043,0.214-0.244,0.371-0.38,0.566
	c-0.215,0.311-0.515,0.581-0.448,1.019c0.02,0.13-0.036,0.239-0.196,0.216c-0.121-0.018-0.332,0.014-0.302-0.172
	c0.118-0.717-0.38-1.196-0.667-1.771c0.345-0.122,0.596-0.051,0.764,0.259c0.051,0.153,0.08,0.319,0.24,0.41
	C12.618,15.862,12.704,15.743,12.706,15.581z"/>
<path class="st98" d="M6.921,18.285c-0.464,0.068-0.464-0.308-0.495-0.576c-0.064-0.558-0.155-1.116-0.193-1.673
	c-0.029-0.432-0.208-0.509-0.563-0.472c-0.216,0.023-0.432,0.033-0.649,0.048c0.007-0.114,0.014-0.228,0.021-0.343
	c0.113,0.082,0.22,0.105,0.367,0.053c0.331-0.118,0.679-0.1,1.024-0.068c-0.126,0.143-0.005,0.223,0.08,0.312
	c0.002,0.033,0.003,0.065,0.003,0.098c-0.016,0.506-0.004,1.008,0.196,1.485c0.032,0.286,0.073,0.571,0.211,0.83L6.924,17.98
	C6.86,18.081,6.858,18.183,6.921,18.285z"/>
<path class="st96" d="M12.167,7.584l-1.783,1.248l3.175,1.606c0,0-6.52-0.45-9.22,0.589l9.833,0.494l2.796,0.139l-0.647-1.544
	l-3.353-2.823L12.167,7.584z"/>
<path class="st96" d="M5.616,21.016c-0.022,0.08-0.036,0.162-0.066,0.239c-0.193,0.502-0.237,0.52-0.634,0.181
	c-0.33-0.281-0.68-0.545-0.924-0.914c0.002-0.074,0.005-0.148,0.007-0.222c0.147-0.172,0.23-0.011,0.317,0.069
	C4.688,20.709,4.952,21.261,5.616,21.016z"/>
<path class="st95" d="M15.083,10.911c0.336,0.186,0.707,0.09,1.061,0.135c0.011,0.06,0.021,0.12,0.032,0.179
	c-1.145-0.127-2.29-0.255-3.435-0.382c0.041-0.034,0.081-0.069,0.122-0.103C13.604,10.797,14.343,10.854,15.083,10.911z"/>
<path class="st100" d="M11.265,10.808c-0.679,0-1.358,0-2.037,0c-0.152-0.142-0.352-0.034-0.518-0.099
	c1.091-0.123,2.181-0.121,3.272,0.004C11.748,10.789,11.486,10.646,11.265,10.808z"/>
<path class="st98" d="M3.024,18.586c-0.006-0.839-0.011-1.677-0.017-2.516c0.144,0.023,0.185,0.118,0.185,0.25
	C3.19,17.004,3.19,17.688,3.19,18.372C3.19,18.486,3.139,18.561,3.024,18.586z"/>
<path class="st97" d="M8.135,17.791c1.443-0.062,2.885-0.071,4.328,0.005c0,0.057,0,0.113,0,0.17
	c-1.334-0.137-2.672-0.068-4.009-0.068C8.348,17.86,8.214,17.905,8.135,17.791z"/>
<path class="st95" d="M12.462,17.966c0-0.057,0-0.113,0-0.17c0.428-0.13,0.949,0.22,1.321-0.249c0.008-0.01,0.04,0.136,0.044,0.214
	c-0.058,0.061-0.115,0.123-0.173,0.184C13.263,18.243,12.86,17.968,12.462,17.966z"/>
<path class="st98" d="M4.077,15.776c-0.193,0.034-0.385,0.069-0.578,0.103c-0.111-0.176-0.083-0.385,0.123-0.357
	c0.324,0.044,0.601-0.148,0.952-0.095C4.453,15.635,4.291,15.739,4.077,15.776z"/>
<path class="st100" d="M7.951,10.844c-0.643,0.113-1.288,0.157-1.934,0.138c-0.002-0.043-0.005-0.085-0.007-0.128
	c0.541-0.038,1.082-0.076,1.623-0.114C7.714,10.852,7.846,10.806,7.951,10.844z"/>
<path class="st95" d="M17.811,11.442c0.516-0.051,0.983,0.123,1.442,0.332c-0.515,0.049-0.987-0.1-1.44-0.335
	C17.814,11.439,17.811,11.442,17.811,11.442z"/>
<path class="st100" d="M6.713,17.15c-0.199-0.478-0.212-0.98-0.196-1.485c0.037-0.032,0.074-0.064,0.112-0.096
	C6.719,16.092,6.892,16.612,6.713,17.15z"/>
<path class="st98" d="M12.045,21.708c-0.011,0.442-0.021,0.885-0.032,1.327c-0.029,0.058-0.057,0.116-0.086,0.174
	C11.775,22.636,11.83,21.942,12.045,21.708z"/>
<path class="st96" d="M1.885,12.451c-0.123,0.178-0.321,0.164-0.502,0.194c-0.096-0.06-0.26-0.175-0.132-0.243
	c0.17-0.09,0.198-0.347,0.387-0.335C1.837,12.08,1.854,12.287,1.885,12.451z"/>
<path class="st98" d="M2.663,18.592c0.008,0.032,0.007,0.063-0.004,0.095c-0.114-0.024-0.17-0.094-0.169-0.21
	c0.001-0.748,0.001-1.496,0.009-2.243c0.001-0.055,0.063-0.109,0.097-0.163C2.624,16.91,2.503,17.755,2.663,18.592z"/>
<path class="st91" d="M6.434,15.255c-0.345-0.031-0.694-0.05-1.024,0.068c-0.147,0.053-0.254,0.029-0.367-0.053
	c0,0-0.019-0.011-0.019-0.011c-0.01-0.027-0.013-0.055-0.009-0.083c0.43-0.048,0.858-0.105,1.289-0.14
	C6.427,15.027,6.661,15.021,6.434,15.255z"/>
<path class="st100" d="M4.339,11.103c0.395-0.113,0.785-0.279,1.222-0.02c-0.406,0.053-0.812,0.107-1.218,0.16
	C4.341,11.196,4.34,11.15,4.339,11.103z"/>
<path class="st101" d="M2.663,18.592c-0.16-0.837-0.039-1.681-0.068-2.522c0.033-0.002,0.066-0.002,0.099,0.002
	C2.684,16.912,2.673,17.752,2.663,18.592z"/>
<path class="st95" d="M13.963,15.541c0.042-0.563,0.379-0.681,1.061-0.324c-0.445,0.077-1.103-0.182-0.966,0.641
	C13.95,15.775,13.991,15.648,13.963,15.541z"/>
<path class="st100" d="M13.963,15.541c0.028,0.107-0.013,0.234,0.095,0.317c-0.041,0.379-0.081,0.759-0.122,1.138
	c-0.045-0.003-0.09-0.007-0.135-0.01C13.818,16.503,13.833,16.02,13.963,15.541z"/>
<path class="st93" d="M20.024,12.776c-0.008,0.341-0.006,0.685-0.339,0.91c0.076-0.315,0.008-0.661,0.225-0.941
	C19.948,12.755,19.986,12.765,20.024,12.776z"/>
<path class="st100" d="M8.135,17.791c0.08,0.115,0.213,0.069,0.319,0.107c-0.505,0.125-1.017,0.109-1.529,0.082l0.001,0.001
	C7.303,17.758,7.723,17.802,8.135,17.791z"/>
<path class="st96" d="M5.296,19.76c0.136-0.171,0.235-0.396,0.517-0.353c0.053,0.271-0.102,0.427-0.318,0.529
	C5.323,20.018,5.322,19.865,5.296,19.76z"/>
<path class="st97" d="M7.951,10.844c-0.105-0.038-0.237,0.008-0.318-0.104c0.359-0.011,0.717-0.021,1.076-0.032
	c0.166,0.066,0.366-0.043,0.518,0.099C8.802,10.82,8.377,10.832,7.951,10.844z"/>
<path class="st97" d="M11.265,10.808c0.221-0.162,0.484-0.019,0.717-0.096c0.294,0.009,0.588,0.019,0.883,0.028
	c-0.041,0.034-0.081,0.069-0.122,0.103C12.249,10.832,11.757,10.82,11.265,10.808z"/>
<path class="st96" d="M4.843,18.575c0.057,0.064,0.114,0.128,0.17,0.192c-0.003,0.075-0.006,0.149-0.008,0.224
	c-0.212,0.014-0.414-0.051-0.449-0.266C4.525,18.534,4.737,18.612,4.843,18.575z"/>
<path class="st99" d="M12.706,15.581c-0.002,0.162-0.088,0.281-0.205,0.394c-0.16-0.091-0.19-0.257-0.24-0.41
	C12.413,15.456,12.561,15.497,12.706,15.581z"/>
<path class="st96" d="M16.862,9.729c0.015,0.399,0.03,0.799,0.045,1.198C16.699,10.535,16.788,10.132,16.862,9.729z"/>
<path class="st98" d="M17.697,11.034c0.037,0.025,0.073,0.05,0.11,0.076c0.002,0.111,0.003,0.222,0.005,0.333
	c0,0,0.003-0.003,0.003-0.003c-0.22,0.013-0.337-0.078-0.314-0.31c0.036-0.034,0.071-0.068,0.107-0.102c0,0,0.045,0.006,0.045,0.006
	L17.697,11.034z"/>
<path class="st96" d="M16.913,5.698c-0.001,0.098-0.003,0.195-0.004,0.293c-0.121-0.019-0.309,0.039-0.283-0.176
	C16.646,5.651,16.803,5.704,16.913,5.698z"/>
<path class="st96" d="M0.757,12.105c0.057-0.134,0.175-0.181,0.303-0.215c0.002,0.108,0.051,0.235-0.068,0.307
	C0.889,12.259,0.812,12.196,0.757,12.105z"/>
<path class="st98" d="M16.176,11.226c-0.011-0.06-0.021-0.12-0.032-0.179c0.117-0.039,0.234-0.079,0.35-0.118
	C16.516,11.164,16.404,11.257,16.176,11.226z"/>
<path class="st98" d="M5.014,15.176c-0.004,0.029-0.001,0.056,0.009,0.083c-0.098,0.016-0.196,0.147-0.291,0.007
	c-0.02-0.029-0.013-0.105,0.011-0.131C4.846,15.027,4.938,15.067,5.014,15.176z"/>
<path class="st93" d="M8.624,22.551c-0.077-0.273-0.068-0.55-0.027-0.827C8.673,21.998,8.628,22.275,8.624,22.551z"/>
<path class="st96" d="M17.015,17.076c-0.001-0.134-0.002-0.269-0.004-0.403C17.28,16.805,17.281,16.939,17.015,17.076z"/>
<path class="st96" d="M13.655,17.944c0.058-0.061,0.115-0.123,0.173-0.184c0.15,0.065,0.145,0.204,0.157,0.334l0.002-0.002
	C13.86,18.081,13.723,18.09,13.655,17.944z"/>
<path class="st94" d="M5.416,7.707c0.099-0.001,0.197-0.002,0.296-0.003l0,0c0.016,0.08,0.033,0.16,0.049,0.24
	c0,0,0.002,0.005,0.002,0.005C5.578,7.968,5.365,8.027,5.416,7.707z"/>
<path class="st98" d="M5.005,18.99c0.003-0.075,0.006-0.149,0.008-0.224c0.255,0.136,0.222,0.322,0.091,0.526
	C4.987,19.219,5.01,19.1,5.005,18.99z"/>
<path class="st98" d="M17.608,16.167c0.002,0.237,0.003,0.474,0.005,0.711C17.437,16.643,17.442,16.405,17.608,16.167z"/>
<path class="st98" d="M12.765,11.522c-0.1-0.004-0.201-0.009-0.301-0.013c0.016-0.078,0.035-0.155,0.134-0.162
	C12.723,11.337,12.751,11.423,12.765,11.522z"/>
<path class="st98" d="M17.613,17.778c0,0.17,0,0.341,0,0.511C17.449,18.119,17.449,17.948,17.613,17.778z"/>
<path class="st98" d="M6.953,17.151c0.029,0.035,0.061,0.056,0.058,0.072c-0.009,0.056-0.03,0.111-0.046,0.166
	c-0.013-0.028-0.036-0.056-0.037-0.084C6.928,17.261,6.942,17.216,6.953,17.151z"/>
<path class="st98" d="M11.379,23.682c-0.157,0.066-0.28,0.082-0.231-0.156C11.257,23.53,11.341,23.572,11.379,23.682z"/>
<path class="st98" d="M16.797,11.331c0.073,0.013,0.159,0.011,0.152,0.121c-0.001,0.011-0.02,0.031-0.031,0.031
	c-0.11,0.007-0.109-0.079-0.122-0.151L16.797,11.331z"/>
<path class="st93" d="M7.115,5.81c0.124-0.028,0.15,0.078,0.202,0.148C7.253,5.969,7.189,5.979,7.125,5.99
	C7.121,5.93,7.118,5.87,7.115,5.81z"/>
<path class="st98" d="M3.999,20.3c-0.002,0.074-0.005,0.148-0.007,0.222c-0.032-0.038-0.064-0.077-0.097-0.115
	C3.93,20.371,3.964,20.336,3.999,20.3z"/>
<path class="st93" d="M9.044,20.335c0.077,0.018,0.155,0.035,0.232,0.053C9.192,20.4,9.11,20.401,9.044,20.335z"/>
<path class="st96" d="M11.432,20.376c0.075-0.016,0.15-0.032,0.225-0.047c0,0.025-0.001,0.05-0.002,0.074
	c-0.063,0.002-0.126,0.005-0.189,0.007L11.432,20.376z"/>
<path class="st98" d="M11.467,20.41c0.063-0.002,0.126-0.005,0.189-0.007C11.596,20.495,11.534,20.516,11.467,20.41z"/>
<path class="st93" d="M9.504,23.532C9.52,23.608,9.557,23.69,9.44,23.72C9.461,23.658,9.482,23.595,9.504,23.532z"/>
<path class="st98" d="M16.796,11.332c-0.014-0.008-0.028-0.016-0.041-0.024c0.014,0.008,0.028,0.015,0.042,0.023
	C16.797,11.331,16.796,11.332,16.796,11.332z"/>
<path class="st98" d="M11.148,20.503c-0.002-0.072,0.039-0.099,0.105-0.099C11.218,20.438,11.183,20.47,11.148,20.503z"/>
<path class="st93" d="M9.442,20.418c0.053,0.002,0.079,0.024,0.063,0.079C9.483,20.471,9.462,20.445,9.442,20.418z"/>
<path class="st98" d="M11.704,23.536c-0.049,0.029-0.098,0.058-0.147,0.087C11.606,23.594,11.655,23.565,11.704,23.536z"/>
<path class="st99" d="M6.629,15.569c-0.037,0.032-0.074,0.064-0.112,0.096c0-0.033-0.001-0.065-0.003-0.098
	C6.553,15.567,6.591,15.568,6.629,15.569z"/>
<path class="st93" d="M8.337,23.755c0.043,0.021,0.085,0.041,0.128,0.062C8.422,23.796,8.379,23.776,8.337,23.755z"/>
<path class="st93" d="M6.412,19.264c-0.038-0.022-0.076-0.044-0.114-0.066C6.336,19.22,6.374,19.242,6.412,19.264z"/>
<path class="st93" d="M8.424,19.855c-0.042-0.016-0.084-0.032-0.127-0.047C8.34,19.824,8.382,19.84,8.424,19.855z"/>
<path class="st93" d="M10.85,24.034c0.04,0.03,0.08,0.06,0.119,0.09C10.93,24.095,10.89,24.064,10.85,24.034z"/>
<path class="st93" d="M8.926,19.949c-0.04-0.014-0.08-0.028-0.12-0.041C8.846,19.921,8.886,19.935,8.926,19.949z"/>
<path class="st93" d="M5.413,22.236c0.033,0.026,0.066,0.053,0.099,0.079C5.479,22.289,5.446,22.263,5.413,22.236z"/>
<path class="st93" d="M11.797,19.91c-0.044,0.015-0.087,0.03-0.131,0.045C11.71,19.94,11.753,19.925,11.797,19.91z"/>
<path class="st93" d="M14.688,2.52c0.018-0.029,0.043-0.049,0.075-0.061C14.738,2.48,14.713,2.5,14.688,2.52z"/>
<path class="st93" d="M2.59,3.478c0.034-0.072,0.068-0.144,0.102-0.217c0.239,0.223,0.676,0.191,0.772,0.599
	C3.173,3.733,2.882,3.606,2.59,3.478z"/>
<path class="st96" d="M2.692,3.175C2.734,2.923,2.861,2.75,3.128,2.706C2.983,2.862,2.837,3.019,2.692,3.175z"/>
<path class="st101" d="M17.697,11.034l-0.045,0c0,0-0.045-0.006-0.045-0.006c0-1.904-0.001-3.808,0.003-5.711
	c0-0.179-0.05-0.369,0.065-0.536C17.682,6.865,17.689,8.949,17.697,11.034z"/>
<path class="st93" d="M17.234,9.207c0.011-1.432,0.023-2.865,0.034-4.297C17.303,6.342,17.367,7.775,17.234,9.207z"/>
<path class="st90" d="M2.992,4.882c0.174,0.021,0.201,0.141,0.2,0.287C3.19,5.951,3.191,6.732,3.191,7.513
	c0,0.141-0.025,0.268-0.192,0.304C2.947,6.839,2.96,5.86,2.992,4.882z"/>
<path class="st102" d="M4.74,4.471c0.184,0.06,0.375,0.11,0.48,0.297C4.789,4.809,4.657,4.728,4.74,4.471z"/>
<path class="st103" d="M10.25,4.971c0.161,0.129,0.341,0.243,0.425,0.507C10.242,5.46,9.985,5.213,9.716,4.993
	c-0.06-0.169,0.012-0.314,0.086-0.458c0.081-0.051,0.163-0.102,0.244-0.152c0.005,0.067,0.009,0.134,0.014,0.201
	c-0.002,0.065-0.003,0.13-0.005,0.194C10.068,4.895,10.138,4.954,10.25,4.971z"/>
<path class="st94" d="M6.251,7.214c0.04,0.31-0.273,0.332-0.408,0.501C5.799,7.711,5.755,7.707,5.712,7.704l0,0
	C5.779,7.417,5.934,7.226,6.251,7.214z"/>
<path class="st90" d="M13.655,17.944c0.068,0.146,0.205,0.137,0.332,0.148c-0.4,0.449-0.922,0.201-1.358,0.167
	c-1.589-0.126-3.171-0.142-4.756,0.016c-0.315,0.031-0.635,0.008-0.952,0.01c-0.063-0.102-0.06-0.204,0.003-0.305
	c0.513,0.028,1.025,0.043,1.529-0.082c1.337,0,2.675-0.069,4.009,0.068C12.86,17.968,13.263,18.243,13.655,17.944z"/>
<path class="st90" d="M12.967,10.012c-0.151-0.03-0.287-0.089-0.402-0.194C12.806,9.66,12.901,9.807,12.967,10.012z"/>
<path class="st99" d="M11.556,5.118c0.051-0.036,0.102-0.072,0.153-0.108c0.014,0.028,0.032,0.054,0.053,0.077
	c-0.067,0.071-0.134,0.141-0.2,0.212C11.56,5.239,11.558,5.178,11.556,5.118z"/>
<path class="st93" d="M5.85,13.77c-0.558-0.113-0.347-0.634-0.42-0.968c-0.131-0.601,0.433-0.418,0.659-0.423
	c0.632-0.013,0.312,0.552,0.408,0.854C6.68,13.811,6.158,13.634,5.85,13.77z"/>
<path class="st90" d="M5.712,7.704c0.044,0.004,0.088,0.007,0.132,0.011C5.846,7.802,5.887,7.903,5.76,7.944
	C5.744,7.864,5.728,7.784,5.712,7.704z"/>
<path class="st99" d="M11.709,5.01c0.039-0.006,0.077-0.013,0.116-0.019c-0.021,0.032-0.042,0.064-0.063,0.096
	C11.741,5.064,11.723,5.038,11.709,5.01z"/>
<ellipse transform="matrix(0.9659 -0.2588 0.2588 0.9659 -0.5545 1.1992)" cx="4.278" cy="2.705" rx="1.986" ry="1.749"/>
<ellipse transform="matrix(0.3362 -0.9418 0.9418 0.3362 8.0192 17.3534)" cx="16.321" cy="2.988" rx="1.749" ry="1.986"/>
<path class="st93" d="M4.2,2.061c-0.035,0.025-0.071,0.05-0.106,0.075C4.086,2.123,4.078,2.11,4.069,2.098
	C4.113,2.085,4.156,2.073,4.2,2.061L4.2,2.061z"/>
<ellipse transform="matrix(0.9659 -0.2588 0.2588 0.9659 -0.7024 1.2371)" class="st97" cx="4.347" cy="3.286" rx="1.806" ry="1.254"/>
<ellipse transform="matrix(0.2013 -0.9795 0.9795 0.2013 9.5396 18.57)" class="st97" cx="16.157" cy="3.436" rx="1.281" ry="1.845"/>
<path class="st90" d="M0.503,13.064c-0.075-0.111-0.32-0.952-0.32-0.952l0.414-0.328l1.288-0.387l3.035-0.553l3.377-0.226
	l6.021,0.001l3.294,0.727l0.783-0.025l1.783,0.52l0.132,0.271l-0.392,1.659l-0.665,0.256v-1.915L8.396,11.895L0.503,13.064z"/>
<path class="st90" d="M0.914,12.644l0.812,3.093h2.739l1.749-0.168l0.661-0.132l0.644,2.263l6.053,0.463c0,0,0.4-0.78,0.415-0.773
	c0.016,0.007,0.095,0.207,0.095,0.207l0.297-2.056l0.923-0.341l2.9,0.536l1.483-2.051c0,0-0.09-1.867-0.146-1.902
	c-0.056-0.035-4.064-0.387-4.064-0.387l-8.494-0.064l-6.224,0.563L0.914,12.644z"/>
<path class="st90" d="M6.298,15.288l0.273,2.081l0.353,0.75l3.297-0.12c0,0-0.228-0.848-0.567-1.121
	c-0.339-0.272-2.933-1.845-2.933-1.845L6.298,15.288z"/>
<polygon class="st90" points="13.566,18.095 14.121,17.858 14.38,15.541 13.572,15.499 "/>
<g>
	<path class="st102" d="M5.963,1.976C6.599,2.346,7.177,2.79,7.76,3.227c0.566,0.46,1.136,0.913,1.649,1.441
		c-0.636-0.37-1.214-0.814-1.797-1.251C7.046,2.957,6.476,2.503,5.963,1.976z"/>
</g>
<g>
	<path class="st102" d="M10.907,4.836c0.511-0.529,1.079-0.986,1.643-1.448c0.581-0.44,1.158-0.886,1.792-1.258
		c-0.511,0.53-1.079,0.986-1.643,1.448C12.118,4.018,11.541,4.463,10.907,4.836z"/>
</g>
<g>
	<path class="st102" d="M11.203,5.348c0.567-0.469,1.183-0.859,1.794-1.255c0.627-0.373,1.249-0.751,1.921-1.051
		c-0.566,0.469-1.182,0.859-1.794,1.255C12.498,4.67,11.875,5.048,11.203,5.348z"/>
</g>
<g>
	<path class="st102" d="M11.928,6.452c0.567-0.469,1.183-0.859,1.794-1.255c0.627-0.373,1.249-0.751,1.921-1.051
		c-0.566,0.469-1.182,0.859-1.794,1.255C13.222,5.773,12.599,6.152,11.928,6.452z"/>
</g>
<g>
	<path d="M12.13,6.958c0.824-0.558,1.705-1.002,2.58-1.456c0.893-0.419,1.781-0.847,2.726-1.159
		c-0.824,0.559-1.704,1.003-2.58,1.456C13.963,6.217,13.075,6.645,12.13,6.958z"/>
</g>
<g>
	<path class="st102" d="M5.511,3.373c0.682,0.276,1.317,0.633,1.957,0.983C8.093,4.73,8.723,5.098,9.305,5.547
		C8.623,5.272,7.988,4.915,7.348,4.564C6.723,4.19,6.094,3.821,5.511,3.373z"/>
</g>
<g>
	<path class="st102" d="M4.278,4.261c0.682,0.276,1.317,0.633,1.957,0.983C6.86,5.618,7.489,5.986,8.071,6.436
		C7.389,6.16,6.754,5.803,6.115,5.453C5.489,5.078,4.86,4.71,4.278,4.261z"/>
</g>
<path class="st104" d="M0.597,12.056c2.351-0.702,5.728-1.436,9.826-1.437c3.973-0.001,7.26,0.688,9.577,1.36"/>
<g>
	<path class="st6" d="M25.212,12.473h1.579v-2.272h1.251c0.208,0,0.305,0.093,0.305,0.26v5.61h-1.251
		c-0.208,0-0.305-0.092-0.305-0.26v-2.029h-1.579v2.289h-1.25c-0.208,0-0.305-0.092-0.305-0.26v-5.559
		c0.305-0.075,0.657-0.134,1.146-0.134c0.273,0,0.409,0.109,0.409,0.344V12.473z"/>
	<path class="st6" d="M32.166,16.172c-1.588,0-2.83-1.124-2.83-3.036c0-1.911,1.243-3.035,2.83-3.035c1.588,0,2.83,1.124,2.83,3.035
		C34.996,15.048,33.754,16.172,32.166,16.172z M33.441,13.203c0-1.106-0.593-1.795-1.314-1.795c-0.69,0-1.234,0.52-1.234,1.66
		c0,1.107,0.593,1.795,1.314,1.795C32.896,14.863,33.441,14.343,33.441,13.203z"/>
	<path class="st6" d="M38.463,11.408c-0.681,0-1.146,0.563-1.146,1.56c0,1.098,0.681,1.895,1.779,1.895
		c0.481,0,0.986-0.109,1.323-0.311c0.12,0.168,0.24,0.504,0.24,0.705c0,0.394-0.89,0.914-1.908,0.914
		c-1.708,0-2.991-1.292-2.991-3.179c0-1.736,1.147-2.893,2.726-2.893c1.099,0,1.884,0.486,2.269,1.173
		c0.064,0.118,0.088,0.202,0.088,0.327c0,0.16-0.097,0.294-0.272,0.402c-0.281,0.168-0.69,0.286-1.059,0.311
		C39.297,11.676,38.928,11.408,38.463,11.408z"/>
	<path class="st6" d="M44.953,12.91c0.321,0.746,0.705,1.384,1.018,1.736c0.152,0.175,0.329,0.251,0.513,0.251h0.112
		c0.064,0.177,0.104,0.394,0.104,0.638c0,0.301-0.433,0.638-0.938,0.638c-0.585,0-0.938-0.311-1.259-0.788
		c-0.265-0.386-0.53-0.931-0.746-1.526c-0.16,0.109-0.337,0.218-0.465,0.302v1.911h-1.25c-0.209,0-0.305-0.092-0.305-0.26v-5.559
		c0.305-0.075,0.657-0.134,1.146-0.134c0.273,0,0.409,0.109,0.409,0.344v1.996c0.681-0.561,1.395-1.375,1.964-2.356
		c0.898,0.268,1.131,0.537,1.131,0.872c0,0.109-0.048,0.235-0.128,0.37C45.931,11.895,45.482,12.424,44.953,12.91z"/>
	<path class="st6" d="M48.932,11.509v0.981h1.523c0.16,0,0.248,0.1,0.248,0.318v0.99h-1.772v0.118c0,0.637,0.12,0.846,0.537,0.846
		h1.483c0.16,0,0.248,0.101,0.248,0.319v0.99h-2.012c-1.259,0-1.812-0.654-1.812-2.045v-3.825h3.463
		c0.192,0,0.297,0.118,0.297,0.353c0,0.301-0.04,0.654-0.096,0.956H48.932z"/>
	<path class="st6" d="M53.818,16.07c-0.208,0-0.305-0.092-0.305-0.26V14.05l-1.716-3.212c0.281-0.344,0.762-0.721,1.123-0.721
		c0.16,0,0.257,0.084,0.337,0.244l1.09,2.272c0.425-0.671,0.858-1.669,1.026-2.432h1.114c0.337,0,0.425,0.168,0.353,0.428
		c-0.289,1.065-1.019,2.415-1.772,3.413v2.029H53.818z"/>
	<path class="st6" d="M66.064,16.07H65.11l-0.938-3.832c-0.2,1.031-0.633,2.465-1.042,3.53c-0.088,0.226-0.249,0.301-0.617,0.301
		h-0.954l-1.691-5.476c0.368-0.268,0.866-0.478,1.162-0.478c0.241,0,0.361,0.084,0.425,0.319l0.97,3.799
		c0.377-0.99,0.754-2.693,0.946-4.034h0.97c0.409,0,0.553,0.118,0.617,0.361l0.906,3.673c0.377-1.032,0.761-2.693,0.97-4.034h0.906
		c0.457,0,0.65,0.193,0.577,0.554c-0.305,1.509-0.914,3.446-1.635,5.014C66.577,15.995,66.432,16.07,66.064,16.07z"/>
	<path class="st6" d="M72.402,16.07c-0.224,0-0.321-0.075-0.368-0.235l-0.209-0.695h-1.732l-0.264,0.931h-1.299
		c-0.193,0-0.297-0.118-0.241-0.293l1.868-5.409c0.321-0.142,0.69-0.226,1.05-0.226c0.377,0,0.513,0.1,0.625,0.435l1.9,5.492H72.402
		z M70.446,13.916h1.026l-0.513-1.752L70.446,13.916z"/>
	<path class="st6" d="M75.564,16.07c-0.208,0-0.305-0.092-0.305-0.26V14.05l-1.716-3.212c0.281-0.344,0.762-0.721,1.123-0.721
		c0.16,0,0.257,0.084,0.337,0.244l1.09,2.272c0.425-0.671,0.858-1.669,1.026-2.432h1.114c0.337,0,0.425,0.168,0.352,0.428
		c-0.288,1.065-1.018,2.415-1.772,3.413v2.029H75.564z"/>
</g>
<g>
	<g>
		<path class="st6" d="M3.008,13.31c0.3-0.065,0.451-0.096,0.752-0.154c-0.074-0.385-0.112-0.577-0.186-0.962
			c0.246-0.047,0.369-0.07,0.615-0.113c0.103-0.018,0.157,0.014,0.169,0.085c0.162,0.954,0.244,1.43,0.406,2.384
			c-0.229,0.039-0.343,0.059-0.571,0.102c-0.095,0.018-0.147-0.013-0.161-0.084c-0.066-0.343-0.1-0.515-0.166-0.858
			c-0.296,0.057-0.444,0.088-0.74,0.152c0.084,0.386,0.125,0.579,0.209,0.964c-0.227,0.049-0.34,0.075-0.567,0.128
			c-0.094,0.022-0.147-0.006-0.164-0.077c-0.224-0.932-0.336-1.399-0.56-2.331c0.141-0.067,0.308-0.133,0.547-0.186
			c0.133-0.03,0.21,0.003,0.231,0.102C2.898,12.801,2.934,12.971,3.008,13.31z"/>
		<path class="st6" d="M6.512,14.344c-0.728,0.084-1.371-0.302-1.498-1.118c-0.127-0.813,0.412-1.392,1.199-1.482
			c0.788-0.091,1.441,0.35,1.503,1.171C7.777,13.738,7.241,14.26,6.512,14.344z M6.974,13.007c-0.046-0.474-0.364-0.742-0.716-0.701
			c-0.336,0.039-0.572,0.297-0.507,0.784c0.063,0.474,0.379,0.73,0.716,0.691C6.789,13.744,7.022,13.497,6.974,13.007z"/>
		<path class="st6" d="M9.352,12.088c-0.334,0.008-0.552,0.261-0.534,0.691c0.02,0.472,0.354,0.8,0.869,0.792
			c0.226-0.004,0.462-0.051,0.621-0.138c0.056,0.072,0.111,0.217,0.111,0.304c-0.001,0.17-0.412,0.391-0.882,0.401
			c-0.788,0.017-1.414-0.497-1.466-1.309c-0.048-0.747,0.491-1.285,1.278-1.305c0.547-0.014,0.94,0.198,1.127,0.496
			c0.031,0.05,0.042,0.087,0.042,0.142c-0.001,0.069-0.048,0.126-0.134,0.173c-0.137,0.072-0.335,0.122-0.513,0.135
			C9.763,12.196,9.58,12.082,9.352,12.088z"/>
		<path class="st6" d="M12.482,12.799c0.133,0.331,0.294,0.618,0.428,0.782c0.065,0.081,0.145,0.12,0.231,0.128
			c0.021,0.002,0.031,0.003,0.052,0.005c0.023,0.078,0.034,0.174,0.024,0.278c-0.012,0.13-0.224,0.255-0.457,0.237
			c-0.269-0.021-0.422-0.166-0.559-0.379c-0.112-0.174-0.224-0.415-0.314-0.677c-0.079,0.043-0.164,0.086-0.227,0.12
			c-0.014,0.329-0.021,0.494-0.035,0.824c-0.231-0.01-0.346-0.014-0.577-0.02c-0.096-0.002-0.14-0.043-0.138-0.116
			c0.02-0.959,0.03-1.438,0.05-2.397c0.152-0.029,0.329-0.05,0.573-0.041c0.136,0.005,0.201,0.056,0.197,0.157
			c-0.015,0.344-0.022,0.515-0.037,0.859c0.34-0.227,0.708-0.557,1.021-0.959c0.438,0.147,0.542,0.275,0.529,0.419
			c-0.004,0.047-0.032,0.099-0.076,0.153C12.986,12.397,12.751,12.606,12.482,12.799z"/>
		<path class="st6" d="M14.458,12.38c-0.021,0.168-0.031,0.252-0.052,0.42c0.293,0.036,0.439,0.056,0.732,0.098
			c0.077,0.011,0.113,0.06,0.099,0.154c-0.025,0.169-0.038,0.253-0.063,0.421c-0.334-0.05-0.502-0.073-0.837-0.114
			c-0.003,0.02-0.004,0.03-0.006,0.051c-0.034,0.273,0.012,0.369,0.206,0.394c0.277,0.036,0.415,0.056,0.692,0.098
			c0.075,0.011,0.109,0.061,0.095,0.153c-0.026,0.169-0.04,0.253-0.066,0.422c-0.368-0.058-0.553-0.084-0.922-0.131
			c-0.578-0.073-0.804-0.376-0.744-0.973c0.066-0.656,0.099-0.984,0.166-1.64c0.687,0.069,1.03,0.113,1.714,0.216
			c0.094,0.014,0.139,0.072,0.123,0.173c-0.02,0.128-0.063,0.275-0.11,0.399C15.074,12.459,14.869,12.431,14.458,12.38z"/>
		<path class="st6" d="M16.447,14.686c-0.095-0.018-0.132-0.066-0.118-0.137c0.057-0.298,0.085-0.447,0.142-0.745
			c-0.217-0.605-0.333-0.907-0.578-1.509c0.161-0.123,0.426-0.244,0.603-0.212c0.079,0.014,0.12,0.059,0.146,0.134
			c0.142,0.425,0.21,0.638,0.34,1.064c0.259-0.243,0.558-0.619,0.711-0.923c0.218,0.047,0.327,0.072,0.544,0.123
			c0.164,0.038,0.19,0.12,0.129,0.22c-0.247,0.413-0.726,0.898-1.168,1.245c-0.073,0.342-0.109,0.513-0.182,0.855
			C16.788,14.754,16.675,14.73,16.447,14.686z"/>
		<path class="st6" d="M9.059,16.958c-0.133,0.005-0.199,0.008-0.331,0.015c-0.158-0.539-0.239-0.808-0.409-1.345
			c-0.05,0.371-0.171,0.891-0.285,1.28c-0.024,0.083-0.078,0.114-0.206,0.124c-0.132,0.011-0.198,0.016-0.331,0.029
			c-0.306-0.756-0.466-1.132-0.803-1.88c0.125-0.11,0.301-0.204,0.411-0.215c0.089-0.009,0.137,0.017,0.168,0.098
			c0.194,0.526,0.288,0.789,0.469,1.318c0.104-0.362,0.196-0.977,0.233-1.459c0.144-0.01,0.216-0.015,0.36-0.024
			c0.152-0.009,0.208,0.029,0.236,0.115c0.161,0.516,0.239,0.774,0.389,1.292c0.119-0.372,0.238-0.969,0.301-1.449
			c0.134-0.004,0.202-0.006,0.336-0.008c0.17-0.003,0.242,0.065,0.217,0.193c-0.106,0.54-0.313,1.234-0.546,1.8
			C9.236,16.925,9.187,16.953,9.059,16.958z"/>
		<path class="st6" d="M11.262,16.953c-0.078-0.003-0.11-0.03-0.125-0.088c-0.026-0.1-0.039-0.15-0.065-0.25
			c-0.243-0.007-0.365-0.009-0.608-0.011c-0.038,0.132-0.057,0.198-0.094,0.331c-0.18-0.001-0.271-0.001-0.451,0.001
			c-0.067,0.001-0.103-0.041-0.085-0.104c0.25-0.775,0.384-1.161,0.667-1.93c0.12-0.049,0.257-0.077,0.391-0.074
			c0.14,0.003,0.19,0.04,0.228,0.161c0.259,0.791,0.38,1.187,0.604,1.983C11.539,16.963,11.446,16.959,11.262,16.953z
			 M10.592,16.168c0.146,0.002,0.219,0.003,0.365,0.007c-0.067-0.251-0.101-0.377-0.172-0.628
			C10.707,15.795,10.668,15.919,10.592,16.168z"/>
		<path class="st6" d="M12.36,17.011c-0.072-0.005-0.103-0.041-0.099-0.099c0.017-0.251,0.026-0.376,0.043-0.627
			c-0.213-0.473-0.323-0.709-0.555-1.179c0.109-0.117,0.295-0.242,0.43-0.234c0.059,0.004,0.093,0.036,0.12,0.095
			c0.14,0.334,0.208,0.501,0.34,0.836c0.172-0.226,0.361-0.567,0.448-0.832c0.165,0.015,0.248,0.023,0.413,0.04
			c0.125,0.013,0.151,0.075,0.114,0.165c-0.147,0.366-0.46,0.818-0.758,1.149c-0.025,0.288-0.037,0.432-0.062,0.72
			C12.62,17.03,12.533,17.024,12.36,17.011z"/>
	</g>
</g>
<polygon class="st91" points="7.081,6.314 8.153,7.966 5.071,8.832 "/>
<path class="st96" d="M12.828,6.895l0.791-1.005l2.882,3.039L16.43,9.671c0,0-2.894-0.807-2.941-0.839S12.828,6.895,12.828,6.895z"
	/>
<polygon class="st95" points="8.56,6.997 8.335,6.883 11.142,5.154 10.089,3.886 7.71,6.729 8.045,7.294 "/>
<polyline class="st97" points="13.561,6.176 16.321,9.141 16.321,10.328 12.349,8.344 "/>
</svg>
