<svg xmlns="http://www.w3.org/2000/svg" xml:space="preserve" id="Слой_1" x="0" y="0" style="enable-background:new 0 0 878 163.2" version="1.1" viewBox="0 0 878 163.2"><style>.st9{fill:#dd5370}</style><linearGradient id="SVGID_1_" x1="40.025" x2="40.025" y1="-16.528" y2="155.231" gradientUnits="userSpaceOnUse"><stop offset="0" style="stop-color:#f0f0f0"/><stop offset="1" style="stop-color:#c9c9c9"/></linearGradient><path d="M40.1 3.8c11.4 0 20.5 3.6 27.3 10.8 6.3 6.9 9.4 15.7 9.4 26.3v22.6c0 10.3-3.6 19.1-10.7 26.3-7.2 7.3-15.8 10.9-26 10.9H26.6v58.6H3.1V3.8h37zm14.1 37.5c0-4.1-1.2-7.3-3.7-9.8-2.4-2.5-5.7-3.7-9.8-3.7H26.6v49.8h14.2c3.7 0 6.9-1.3 9.5-4 2.6-2.6 3.9-5.8 3.9-9.6V41.3z" style="fill:url(#SVGID_1_)"/><linearGradient id="SVGID_2_" x1="130.947" x2="130.947" y1="-16.528" y2="155.231" gradientUnits="userSpaceOnUse"><stop offset="0" style="stop-color:#f0f0f0"/><stop offset="1" style="stop-color:#c9c9c9"/></linearGradient><path d="m118.7 123.6-5.7 35.8H88.5L115 3.8h32.3l26.1 155.7h-24.7l-5.5-35.8h-24.5zM131 39.4l-8.7 61.4h17.4L131 39.4z" style="fill:url(#SVGID_2_)"/><linearGradient id="SVGID_3_" x1="240.381" x2="240.381" y1="-16.528" y2="155.231" gradientUnits="userSpaceOnUse"><stop offset="0" style="stop-color:#f0f0f0"/><stop offset="1" style="stop-color:#c9c9c9"/></linearGradient><path d="M238 3.8c13.1 0 22.7 3.6 28.8 10.8 5.4 6.3 8.1 15.1 8.1 26.3v22.6c0 11-4.2 20.3-12.5 28l17.4 68h-25.4l-14.2-58.6h-15.6v58.6H201V3.8h37zm14.1 37.5c0-9-4.5-13.5-13.4-13.5h-14.2v49.8h14.2c3.7 0 6.9-1.3 9.5-4 2.6-2.6 3.9-5.8 3.9-9.6V41.3z" style="fill:url(#SVGID_3_)"/><linearGradient id="SVGID_4_" x1="336.709" x2="336.709" y1="-16.528" y2="155.231" gradientUnits="userSpaceOnUse"><stop offset="0" style="stop-color:#f0f0f0"/><stop offset="1" style="stop-color:#c9c9c9"/></linearGradient><path d="M325 27.4h-25V3.8h73.3v23.6h-24.8v132.1H325V27.4z" style="fill:url(#SVGID_4_)"/><linearGradient id="SVGID_5_" x1="440.615" x2="440.615" y1="-16.528" y2="155.231" gradientUnits="userSpaceOnUse"><stop offset="0" style="stop-color:#f0f0f0"/><stop offset="1" style="stop-color:#c9c9c9"/></linearGradient><path d="M428.8 94.2 397.4 3.6h25.8l17.4 55.9 17.3-55.9h26l-31.6 90.6v65.2h-23.5V94.2z" style="fill:url(#SVGID_5_)"/><linearGradient id="SVGID_6_" x1="539.865" x2="538.607" y1="-19.953" y2="151.133" gradientUnits="userSpaceOnUse"><stop offset="0" style="stop-color:#42a194"/><stop offset="1" style="stop-color:#247a78"/></linearGradient><path d="M539.2 161.4c-10.4 0-19.2-3.6-26.4-10.9-7.2-7.2-10.9-16-10.9-26.3v-85c0-10.4 3.6-19.2 10.9-26.4C520.1 5.6 528.9 2 539.2 2c10.4 0 19.1 3.6 26.3 10.9 7.2 7.3 10.8 16.1 10.8 26.3V57H552V38.8c0-3.7-1.3-6.9-4-9.6-2.7-2.6-5.8-4-9.6-4-3.7 0-6.9 1.3-9.5 4-2.6 2.7-3.9 5.8-3.9 9.6V124c0 3.7 1.3 6.9 3.9 9.5 2.6 2.6 5.8 3.9 9.5 3.9s6.9-1.3 9.6-3.9c2.6-2.6 4-5.8 4-9.5v-21.5h24.4v21.7c0 10.4-3.6 19.1-10.9 26.3-7.4 7.3-16.1 10.9-26.3 10.9z" style="fill:url(#SVGID_6_)"/><linearGradient id="SVGID_7_" x1="641.354" x2="640.096" y1="-19.206" y2="151.88" gradientUnits="userSpaceOnUse"><stop offset="0" style="stop-color:#42a194"/><stop offset="1" style="stop-color:#247a78"/></linearGradient><path d="m627.8 123.6-5.7 35.8h-24.4L624.1 3.8h32.3l26.1 155.7h-24.7l-5.5-35.8h-24.5zm12.3-84.2-8.7 61.4h17.4l-8.7-61.4z" style="fill:url(#SVGID_7_)"/><linearGradient id="SVGID_8_" x1="742.854" x2="741.596" y1="-18.46" y2="152.626" gradientUnits="userSpaceOnUse"><stop offset="0" style="stop-color:#42a194"/><stop offset="1" style="stop-color:#247a78"/></linearGradient><path d="M780.7 120.7c.2 10.9-2.7 20.1-8.4 27.8-3.8 5.2-9.2 8.9-16.2 11.1-3.7 1.2-8.1 1.7-13 1.7-9.2 0-16.8-2.3-22.9-6.8-5.1-3.7-9.1-8.8-12-15.2-2.9-6.4-4.7-13.8-5.2-22.1l22.4-1.6c1 9.1 3.4 15.7 7.2 19.7 2.8 3.1 6 4.5 9.7 4.4 5.1-.2 9.2-2.7 12.3-7.6 1.6-2.4 2.4-5.8 2.4-10.3 0-6.5-2.9-12.9-8.8-19.3-4.6-4.4-11.6-11-20.9-19.8-7.8-7.5-13.3-14.3-16.5-20.3-3.5-6.7-5.2-14-5.2-21.9 0-14.2 4.8-24.9 14.3-32.2 5.9-4.4 13.2-6.6 21.9-6.6 8.4 0 15.5 1.9 21.5 5.6 4.6 2.9 8.4 7 11.2 12.2 2.9 5.2 4.6 11.2 5.2 18l-22.5 4.1c-.7-6.4-2.5-11.3-5.5-14.9-2.2-2.6-5.3-3.9-9.3-3.9-4.3 0-7.6 1.9-9.8 5.7-1.8 3.1-2.7 6.9-2.7 11.4 0 7.1 3.1 14.4 9.2 21.7 2.3 2.8 5.8 6.1 10.4 9.9 5.5 4.6 9.1 7.7 10.8 9.6 5.8 5.8 10.3 11.5 13.4 17.1 1.5 2.7 2.7 5.1 3.6 7.3 2.1 5.8 3.3 10.8 3.4 15.2z" style="fill:url(#SVGID_8_)"/><linearGradient id="SVGID_9_" x1="842.183" x2="840.926" y1="-17.73" y2="153.357" gradientUnits="userSpaceOnUse"><stop offset="0" style="stop-color:#42a194"/><stop offset="1" style="stop-color:#247a78"/></linearGradient><path d="M808 159.4V3.6h66.8v23.6h-43.4v42.5h31.7v23.6h-31.7v42.5h43.4v23.6H808z" style="fill:url(#SVGID_9_)"/><path d="m117.2 133.1 7.5-48.6c.8 0 1.5.4 2 1.1l7.1 10.4c.5.7 1.3 1.2 2.2 1.2l12.6.1c2.2 0 3.4 2.5 2.1 4.2l-7.7 10c-.5.7-.7 1.6-.4 2.4l3.8 12c.7 2.1-1.3 4-3.4 3.3l-11.9-4.3c-.8-.3-1.7-.2-2.4.3l-10.2 7.4c-.4.3-.8.5-1.3.5zM653.8 133.1l-7.5-48.6c-.8 0-1.5.4-2 1.1L637.2 96c-.5.7-1.3 1.2-2.2 1.2l-12.6.1c-2.2 0-3.4 2.5-2.1 4.2l7.7 10c.5.7.7 1.6.4 2.4l-3.8 12c-.7 2.1 1.3 4 3.4 3.3l11.9-4.3c.8-.3 1.7-.2 2.4.3l10.2 7.4c.4.3.8.5 1.3.5z" class="st9"/></svg>