<svg width="200" height="155" fill="none" xmlns="http://www.w3.org/2000/svg"><path d="M.1 61.4h12.2l5 5v8.1l-2.4 2.9 3.3 3.3v8.9l-5 5H2.4V66.8l1.7-1v-.3H0v-4.1h.1Zm10.6 14.4L13 73v-4.8l-2.6-2.6H6.3v10.2h4.4ZM6.5 90.7h4.9L14 88v-5.3l-2.8-2.8H6.6v10.8h-.1Z" fill="url(#a)"/><path d="m48.8 89.5-5 5.3h-6.4l-5-5.3V66l5-5h6.4l5 5v23.5Zm-4.1-1.6V67.6L42 64.9h-3l-2.7 2.7v20.3l2.7 2.9h2.9l2.8-2.9Z" fill="url(#b)"/><path d="M61.9 61.5h7.9l3.8 11.9 3.6 13.9h.1l-.9-14.1V61.5h4v33.2h-4.3l-5.2-16.3-3-10.9h-.1l.5 11.3v16h-4V66.9l1.7-1v-.3h-4.1v-4.1Z" fill="url(#c)"/><path d="M107.5 77v4.1h-7.4v13.7H96V67l1.7-1v-.3h-4.1v-4.1h16v7.9h-4v-3.8H100v11.5h7.5V77Z" fill="url(#d)"/><path d="M127.9 61.3v26.6l2.5 2.8h2.7l2.5-2.8V61.3h4.1v28.2l-4.8 5.3h-6.3l-4.8-5.3V66.3l1.7-1V65h-4.1v-3.6h6.5v-.1Z" fill="url(#e)"/><path d="m158.3 88.1 2.6 2.7h2.9l2.6-2.7v-5.3l-12-8.4v-8.3l4.8-5h6.2l4.8 5v11l-4.1-2.6v-6.8l-2.5-2.6h-2.8l-2.4 2.6v4.6l11.9 8.4v9l-4.9 5.2H159l-4.9-5.2V77.6l4.1 2.7.1 7.8Z" fill="url(#f)"/><path d="M197 76.2v4.1h-7.5v10.4h6v-3.4h4.1v7.5h-14V66.9l1.7-1v-.5h-4.1v-4h16v7.9h-4.1v-3.9h-5.6v10.8h7.5Z" fill="url(#g)"/><defs><linearGradient id="a" x1=".956" y1="78.067" x2="198.536" y2="78.067" gradientUnits="userSpaceOnUse"><stop stop-color="#1C8AE2"/><stop offset=".486" stop-color="#8B00B3"/><stop offset="1" stop-color="#6900B5"/></linearGradient><linearGradient id="b" x1=".956" y1="77.871" x2="198.536" y2="77.871" gradientUnits="userSpaceOnUse"><stop stop-color="#1C8AE2"/><stop offset=".486" stop-color="#8B00B3"/><stop offset="1" stop-color="#6900B5"/></linearGradient><linearGradient id="c" x1=".956" y1="78.087" x2="198.536" y2="78.087" gradientUnits="userSpaceOnUse"><stop stop-color="#1C8AE2"/><stop offset=".486" stop-color="#8B00B3"/><stop offset="1" stop-color="#6900B5"/></linearGradient><linearGradient id="d" x1=".955" y1="78.086" x2="198.535" y2="78.086" gradientUnits="userSpaceOnUse"><stop stop-color="#1C8AE2"/><stop offset=".486" stop-color="#8B00B3"/><stop offset="1" stop-color="#6900B5"/></linearGradient><linearGradient id="e" x1=".956" y1="78.101" x2="198.536" y2="78.101" gradientUnits="userSpaceOnUse"><stop stop-color="#1C8AE2"/><stop offset=".486" stop-color="#8B00B3"/><stop offset="1" stop-color="#6900B5"/></linearGradient><linearGradient id="f" x1=".954" y1="78.025" x2="198.535" y2="78.025" gradientUnits="userSpaceOnUse"><stop stop-color="#1C8AE2"/><stop offset=".486" stop-color="#8B00B3"/><stop offset="1" stop-color="#6900B5"/></linearGradient><linearGradient id="g" x1=".957" y1="78.04" x2="198.536" y2="78.04" gradientUnits="userSpaceOnUse"><stop stop-color="#1C8AE2"/><stop offset=".486" stop-color="#8B00B3"/><stop offset="1" stop-color="#6900B5"/></linearGradient></defs></svg>