<?xml version="1.0" encoding="utf-8"?>
<!-- Generator: Adobe Illustrator 23.0.3, SVG Export Plug-In . SVG Version: 6.00 Build 0)  -->
<svg version="1.1" id="Слой_1" xmlns="http://www.w3.org/2000/svg" xmlns:xlink="http://www.w3.org/1999/xlink" x="0px" y="0px"
	 viewBox="0 0 635.7 239.4" style="enable-background:new 0 0 635.7 239.4;" xml:space="preserve">
<style type="text/css">
	.st0{fill:#FFFFFF;}
	.st1{fill:#585858;}
</style>
<g>
	<path class="st0" d="M230,230.4H9.5c-0.2,0-0.3-0.2-0.3-0.3V9.5c0-0.2,0.2-0.3,0.3-0.3H230c0.2,0,0.3,0.2,0.3,0.3V230
		C230.3,230.2,230.2,230.4,230,230.4z"/>
	<g>
		<path class="st1" d="M88.5,139.8c0-4-1.2-7.3-3.6-9.9c-2.4-2.6-6.7-4.9-12.8-7.1c-8.7-2.6-15.4-5.9-20-9.9c-4.7-4-7-9.4-7-16.1
			c0-6.9,2.6-12.6,7.7-17c5.1-4.5,11.7-6.7,19.8-6.7c8.6,0,15.4,2.5,20.6,7.4c5.2,5,7.7,11.2,7.5,18.7l-0.1,0.4H88.2
			c0-5.1-1.4-9.3-4.3-12.4c-2.9-3.2-6.7-4.7-11.4-4.7c-4.6,0-8.1,1.4-10.6,4.1c-2.5,2.7-3.8,6.1-3.8,10.2c0,3.8,1.3,6.9,4,9.4
			c2.7,2.5,7.2,4.8,13.5,7c8.4,2.6,14.9,6,19.3,10.2c4.4,4.2,6.6,9.6,6.6,16.3c0,7.1-2.6,12.8-7.8,17c-5.2,4.2-12,6.3-20.4,6.3
			c-8.1,0-15.2-2.3-21.2-6.8c-6-4.6-8.9-11.1-8.7-19.6l0.1-0.4h12.5c0,5.9,1.7,10.3,5,13.3c3.3,2.9,7.4,4.4,12.4,4.4
			c4.8,0,8.5-1.3,11.3-3.8C87.2,147.5,88.5,144.1,88.5,139.8z"/>
		<path class="st1" d="M154.5,145.7h0.4L177,74.4h16.5v87.4h-12.8v-63l-0.4-0.1l-21.2,63h-8.8l-21.6-64l-0.4,0.1v63.9h-12.8V74.4
			h16.8L154.5,145.7z"/>
	</g>
	<g>
		<path class="st0" d="M339.3,83.8h-24.5v78h-13v-78h-24.3v-9.4h61.9V83.8z"/>
		<path class="st0" d="M363.2,124.2v37.6h-12.9V74.5h27.3c8.9,0,15.8,2.1,20.6,6.4c4.9,4.3,7.3,10.4,7.3,18.4c0,4.6-1.1,8.6-3.4,12
			c-2.3,3.4-5.5,6.1-9.8,8c4.7,1.5,8.2,4,10.3,7.6c2.1,3.5,3.1,7.9,3.1,13.1v7.6c0,2.7,0.3,5.2,0.8,7.5c0.5,2.3,1.5,4.1,2.9,5.4v1.4
			h-13.3c-1.4-1.3-2.4-3.3-2.8-6c-0.4-2.7-0.7-5.5-0.7-8.4V140c0-4.9-1.2-8.7-3.6-11.6c-2.4-2.8-5.7-4.3-9.9-4.3H363.2z
			 M363.2,114.9h13.7c5.3,0,9.3-1.3,11.8-4c2.5-2.7,3.8-6.4,3.8-11.3c0-5-1.2-8.9-3.7-11.6c-2.5-2.8-6.2-4.1-11.3-4.1h-14.4V114.9z"
			/>
		<path class="st0" d="M463.6,139.7H436l-6.7,22.1h-13.4l27.8-87.4h12.5l27.5,87.4h-13.4L463.6,139.7z M438.9,130h21.9l-10.7-35.5
			h-0.4L438.9,130z"/>
		<path class="st0" d="M494.3,161.8V74.4h26.3c10,0,18.2,3.5,24.5,10.5c6.3,7,9.5,16,9.5,27v12.4c0,11-3.2,20-9.5,27
			c-6.3,7-14.5,10.4-24.5,10.4H494.3z M507.2,83.8v68.8h13.4c6.4,0,11.4-2.6,15.3-7.9c3.8-5.3,5.7-12,5.7-20.3v-12.5
			c0-8.2-1.9-14.9-5.7-20.1c-3.8-5.3-8.9-7.9-15.3-7.9H507.2z"/>
		<path class="st0" d="M614.4,121.2H583v31.3h37v9.2h-49.9V74.4h49.6v9.4H583v28.1h31.4V121.2z"/>
	</g>
</g>
</svg>
