<svg width="202" height="155" fill="none" xmlns="http://www.w3.org/2000/svg"><path d="M0 52v50.5h50.5V52H0Zm27.1 33.5c-2.4-.6-4.5-2.2-5.6-4.4-1 2.1-2.9 3.7-5.2 4.3-1.7.5-3.6.5-5.3-.2-4.4-1.6-6.6-6.5-5-10.9 1.6-4.4 6.5-6.6 10.9-5 2 .7 3.6 2.2 4.6 4.1 2.1-4.1 7.2-5.8 11.3-3.7.4.2.8.4 1.1.7l-2 2.7c-2.2-1.5-5.2-1.1-6.9 1-1.7 2.2-1.3 5.4.9 7.1 1.8 1.4 4.2 1.4 6 .1l2 2.8c-1.8 1.5-4.4 2-6.8 1.4Zm17.5 0h-4.3c-.2 0-.3-.1-.5-.2l-6.5-8 .8-1c1.9-2.3 3.7-4.7 5.6-7 .1-.2.4-.3.6-.3h4.6c-2.5 2.8-4.9 5.5-7.4 8.3l7.4 8.3h-.3v-.1Z" fill="url(#a)"/><path d="M14 72.2c-2.8 0-5 2.2-5.1 5 0 2.8 2.2 5 5 5s5-2.2 5-5c.1-2.7-2.1-4.9-4.9-5Z" fill="url(#b)"/><path d="M58.9 64.3c-1.8.2-3.4-1.1-3.5-2.9v-2.9c-.2-1.8 1.1-3.3 2.9-3.5h.6c1.8-.2 3.3 1.1 3.5 2.8v2.9c.2 1.8-1.2 3.3-2.9 3.5-.2.2-.4.2-.6.1Zm0-1.4c1 .1 1.9-.6 2-1.6v-2.8c0-1.4-.7-2.1-2-2.1-1-.1-1.9.6-2 1.6v2.8c-.1 1 .6 1.9 1.5 2.1h.5Z" fill="url(#c)"/><path d="M69 58.7c2.1 0 3.2.8 3.2 2.7 0 1.9-1.2 2.8-3.1 2.8h-3.4c-.1 0-.2-.1-.2-.2v-8.6c0-.1.1-.2.2-.2h5.5c.1 0 .2.1.2.2v1c0 .1-.1.2-.1.2h-4.2v2.1H69Zm0 4.1c1 0 1.6-.4 1.6-1.4 0-1-.5-1.3-1.6-1.3h-1.9v2.7H69Z" fill="url(#d)"/><path d="M76.1 64.2c-.1 0-.2 0-.2-.1v-7.5h-1.7c-.1 0-.2-.1-.2-.2v-1.1c0-.1.1-.2.2-.2h3c.1 0 .2 0 .2.2v2.9h1.8c2 0 3.2.9 3.2 2.9.1 1.5-1.1 2.9-2.6 3h-3.7v.1Zm1.4-1.4h1.8c.8.1 1.5-.4 1.6-1.2v-.4c0-1-.5-1.5-1.6-1.5h-1.8v3.1Z" fill="url(#e)"/><path d="M86.8 62.8h4c.1 0 .2.1.2.2v1c0 .1-.1.2-.2.2h-5.4c-.1 0-.2-.1-.2-.2v-8.6c0-.1.1-.2.2-.2h5.2c.1 0 .2 0 .2.1v1.1c0 .1 0 .2-.1.2h-4v2.3h3.5c.1 0 .2 0 .2.1v1.1c0 .1-.1.2-.2.2h-3.5v2.5h.1Z" fill="url(#f)"/><path d="M93.3 65.9c-.1 0-.2 0-.2-.1V63c0-.1 0-.2.1-.2h.5c.9-.3 1.2-1.7 1.6-7.4 0-.1.1-.2.2-.2h4.9c.1 0 .2 0 .2.2v7.4h.7c.1 0 .2.1.2.2v2.7c0 .1-.1.2-.2.2h-1.1c-.1 0-.2-.1-.2-.1v-1.5h-5.3v1.5c0 .1 0 .2-.2.2h-1.2v-.1Zm2.4-3.1h3.4v-6.2h-2.4c-.1 3.2-.3 5.2-1 6.2Z" fill="url(#g)"/><path d="M109.9 64.2c-.1 0-.2-.1-.2-.2v-2.9c0-1.1 0-2.4.1-3.5-.4.7-.9 1.7-1.3 2.5l-2.4 4c0 .1-.1.1-.2.1h-1.2c-.1 0-.2 0-.2-.1v-8.7c0-.1 0-.2.1-.2H105.8c.1 0 .2.1.2.1v3.1c0 1.1 0 2.4-.1 3.4.3-.7.8-1.5 1.2-2.3l2.5-4.3c0-.1.1-.1.2-.1h1.2c.1 0 .2 0 .2.2v8.6c0 .1 0 .2-.2.2l-1.1.1Z" fill="url(#h)"/><path d="M119.8 55.4c0-.1 0-.2.2-.2h1.2c.1 0 .2 0 .2.2V64c0 .1-.1.2-.2.2H120c-.1 0-.2-.1-.2-.2v-3.7h-3.6V64c0 .1 0 .2-.1.2h-1.3c-.1 0-.2-.1-.2-.2v-8.6c0-.1 0-.2.2-.2h1.2c.1 0 .2 0 .2.1V59h3.6v-3.6Z" fill="url(#i)"/><path d="M126.2 62.8h4.1c.1 0 .2.1.2.2v1c0 .1-.1.2-.2.2h-5.4c-.1 0-.2-.1-.2-.2v-8.6c0-.1 0-.2.2-.2h5.2c.1 0 .2 0 .2.1v1.1c0 .1 0 .2-.1.2h-4v2.3h3.5c.1 0 .2 0 .2.1v1.1c0 .1-.1.2-.2.2h-3.5v2.5Z" fill="url(#j)"/><path d="M138.6 55.4c0-.1 0-.2.2-.2h1.2c.1 0 .2 0 .2.2V64c0 .1-.1.2-.2.2h-1.2c-.1 0-.2-.1-.2-.2v-3.7H135V64c0 .1 0 .2-.1.2h-1.3c-.1 0-.2-.1-.2-.2v-8.6c0-.1 0-.2.2-.2h1.2c.1 0 .2 0 .2.1V59h3.6v-3.6Z" fill="url(#k)"/><path d="M148.6 55.4c0-.1.1-.2.2-.2h1.2c.1 0 .2 0 .2.2V64c0 .1-.1.2-.2.2h-1.2c-.1 0-.2 0-.2-.1V60.3H145V64c0 .1 0 .2-.2.2h-1.2c-.1 0-.2-.1-.2-.2v-8.6c0-.1 0-.2.2-.2h1.2c.1 0 .2 0 .2.2V59h3.6v-3.6Z" fill="url(#l)"/><path d="M152.7 64.2c-.1 0-.2-.1-.2-.2l3-8.6c0-.1.1-.2.2-.1h1.4c.1 0 .2.1.2.1l3 8.6c0 .1 0 .2-.2.2h-1.2c-.1 0-.2-.1-.2-.1l-.6-1.9h-3.5l-.6 1.9c0 .1-.1.2-.2.1h-1.1Zm2.5-3.4h2.6l-1.2-3.9-1.4 3.9Z" fill="url(#m)"/><path d="M165.8 55.2h3.2c.1 0 .2 0 .2.1V64c0 .1 0 .2-.1.2h-1.3c-.1 0-.2-.1-.2-.2v-3h-1.4l-2.1 3.1c0 .1-.1.1-.2.1h-1.5c-.1 0-.2-.1-.1-.2l2.3-3.2c-1.2-.3-2.1-1.4-2-2.7-.1-1.5 1.1-2.9 2.6-2.9.2-.1.4-.1.6 0Zm1.8 4.4v-3h-1.8c-1.1 0-1.6.5-1.6 1.5s.6 1.4 1.6 1.4h1.8v.1Z" fill="url(#n)"/><path d="M58.7 81.2c-1.7.2-3.3-1-3.5-2.8V75c-.1-1.7 1.3-3.2 3-3.3h.4c1 0 1.9.3 2.7.9.1 0 .1.1 0 .2l-.6.9c-.1.1-.1.1-.3 0-.6-.4-1.2-.6-1.9-.6-.9-.1-1.8.6-1.9 1.5V77.7c-.1 1 .7 1.8 1.6 1.8h.3c.7 0 1.5-.2 2.1-.7.1-.1.2 0 .3 0l.6.9c.1.1.1.2 0 .2-.7.9-1.8 1.3-2.8 1.3Z" fill="url(#o)"/><path d="M65.1 81c-.1 0-.2-.1-.1-.2l1.2-2.6-2.8-6c-.1-.1 0-.2.1-.2h1.2c.1 0 .2 0 .2.1l1.9 4.4 1.8-4.4c0-.1.1-.2.2-.1H70c.1 0 .2.1.1.2l-3.8 8.6c0 .1-.1.2-.2.1l-1 .1Z" fill="url(#p)"/><path d="M71.6 82.7c-.1 0-.2-.1-.2-.2v-2.7c0-.1 0-.2.1-.2h.4c.9-.3 1.2-1.7 1.6-7.4 0-.1.1-.2.2-.2h4.9c.1 0 .2.1.2.2v7.4h.7c.1 0 .2.1.2.2v2.7c0 .1-.1.2-.2.2h-1.1c-.1 0-.2-.1-.2-.2V81h-5.3v1.5c0 .1-.1.2-.1.2h-1.2Zm2.4-3.1h3.4v-6.2H75c-.2 3.3-.4 5.2-1 6.2Z" fill="url(#q)"/><path d="M85.8 81.2c-1.8.2-3.4-1.1-3.5-2.9v-2.9c0-2 1.6-3.5 3.5-3.5 2 0 3.5 1.6 3.5 3.5v2.3c.2 1.8-1.1 3.3-2.9 3.5h-.6Zm0-1.4c1 .1 1.9-.6 2-1.6V75.5c.1-1.1-.7-2.1-1.8-2.1s-2.1.7-2.1 1.8V77.8c-.1 1 .6 1.9 1.6 2h.3Z" fill="url(#r)"/><path d="M95.7 81.2c-1.7.2-3.3-1-3.5-2.8V75c-.1-1.7 1.3-3.2 3-3.3h.4c1 0 1.9.3 2.7.9.1 0 .1.1 0 .2l-.6.9c0 .1-.1.1-.3 0-.6-.4-1.2-.6-1.9-.6-.9-.1-1.8.5-1.9 1.5V77.8c-.1 1 .7 1.8 1.6 1.8h.3c.7 0 1.5-.2 2.1-.7.1-.1.2 0 .3 0l.6.9c.1.1.1.2 0 .2-.7.8-1.7 1.2-2.8 1.2Z" fill="url(#s)"/><path d="M107.3 72c.1 0 .2.1.2.2v1c0 .1-.1.2-.1.2h-2.5v7.4c0 .1 0 .2-.2.2h-1.2c-.1 0-.2-.1-.2-.2v-7.4h-2.6c-.1 0-.2 0-.2-.1v-1c0-.1.1-.2.2-.2h6.6V72Z" fill="url(#t)"/><path d="M113.4 72c1.6-.2 3 1 3.2 2.6v.5c.1 1.6-1 3-2.6 3.1h-2.5v2.7c0 .1 0 .2-.2.2h-1.2c-.1 0-.2-.1-.2-.2v-8.6c0-.1.1-.2.2-.2l3.3-.1Zm-.2 4.8c1.2 0 1.8-.5 1.8-1.7 0-1.1-.6-1.7-1.8-1.7h-1.7v3.4h1.7Z" fill="url(#u)"/><path d="M122.6 81.2c-1.8.2-3.4-1.1-3.5-2.9v-2.9c0-2 1.6-3.5 3.5-3.5 2 0 3.5 1.6 3.5 3.5v2.3c.2 1.8-1.1 3.3-2.9 3.5h-.6Zm0-1.4c1 .1 1.9-.6 2-1.6V75.5c0-1.1-.9-2-2-2s-2 .9-2 2v2.3c-.1 1 .6 1.9 1.6 2h.4Z" fill="url(#v)"/><path d="M134.8 81c-.1 0-.2-.1-.2-.2v-2.9c0-1.1 0-2.4.1-3.5-.4.8-.9 1.7-1.3 2.5l-2.4 3.9c0 .1-.1.1-.2.1h-1.2c-.1 0-.2-.1-.2-.2v-8.6c0-.1 0-.2.1-.2H130.7c.1 0 .2.1.2.2v3.1c0 1.1 0 2.3-.1 3.4.3-.7.8-1.5 1.2-2.3l2.5-4.3c0-.1.1-.1.2-.1h1.2c.1 0 .2.1.2.2v8.6c0 .1-.1.2-.2.2l-1.1.1Z" fill="url(#w)"/><path d="M145.5 72c.1 0 .2.1.2.1v1c0 .1-.1.2-.2.2H143v7.4c0 .1 0 .2-.2.2h-1.2c-.1 0-.2-.1-.2-.2v-7.4h-2.5c-.1 0-.2-.1-.2-.2v-1c0-.1.1-.2.2-.2h6.6v.1Z" fill="url(#x)"/><path d="M149.7 79.6h4.1c.1 0 .2 0 .2.1v1.1c0 .1 0 .2-.1.2h-5.5c-.1 0-.2-.1-.2-.2v-8.6c0-.1.1-.2.2-.2h5.2c.1 0 .2 0 .2.1v1.1c0 .1 0 .2-.2.2h-3.9v2.4h3.5c.1 0 .2 0 .2.1V77c0 .1 0 .2-.1.2h-3.6v2.4Z" fill="url(#y)"/><path d="M156.3 81.1c-.1 0-.2 0-.2-.2v-1c0-.1.1-.2.1-.2.7 0 1-.4 1.3-1.8.3-1.9.4-3.7.4-5.6 0-.1.1-.2.2-.2h5.2c.1 0 .2.1.2.2v8.6c0 .1 0 .2-.2.2h-1.2c-.1 0-.2-.1-.2-.2v-7.4h-2.4c0 1.6-.2 3.2-.5 4.8-.4 2.1-1.2 2.7-2.7 2.8Z" fill="url(#z)"/><path d="M167.2 81c-.1 0-.2-.1-.2-.2v-8.6c0-.1 0-.2.2-.2h1.2c.1 0 .2.1.2.2v2.9h1.8c1.5-.2 3 .8 3.2 2.4v.5c.1 1.6-1.1 2.9-2.6 3h-3.8Zm1.3-1.4h1.8c1.1 0 1.5-.5 1.5-1.6s-.5-1.5-1.5-1.5h-1.8v3.1Z" fill="url(#A)"/><path d="M181.3 72.2c0-.1 0-.2.2-.2h1.2c.1 0 .2 0 .2.1v8.7c0 .1-.1.2-.2.2h-1.2c-.1 0-.2-.1-.2-.2v-3.7h-3.6v3.7c0 .1 0 .2-.2.2h-1c-.1 0-.2 0-.2-.1v-8.7c0-.1 0-.2.1-.2h1.3c.1 0 .2.1.2.2v3.6h3.6v-3.6h-.2Z" fill="url(#B)"/><path d="M185.5 81c-.1 0-.2-.1-.2-.2l3-8.6c0-.1.1-.2.2-.1h1.4c.1 0 .2.1.2.1l3 8.6c0 .1 0 .2-.2.2h-1.2c-.1 0-.2-.1-.2-.1l-.6-1.9h-3.5l-.6 1.9c0 .1-.1.2-.2.1h-1.1Zm2.5-3.4h2.6l-1.2-3.9-1.4 3.9Z" fill="url(#C)"/><path d="M198.6 72h3.2c.1 0 .2.1.2.1v8.6c0 .1-.1.2-.2.2h-1.1c-.1 0-.2-.1-.2-.1v-3h-1.4l-2.1 3.1c-.1.1-.1.1-.2.1h-1.5c-.1 0-.2-.1-.1-.2l2.3-3.2c-1.2-.3-2.1-1.4-2-2.7-.1-1.5 1.1-2.8 2.6-2.9h.5Zm1.8 4.4v-3h-1.8c-1.1 0-1.6.5-1.6 1.5s.6 1.5 1.6 1.5h1.8Z" fill="url(#D)"/><path d="M55.5 97.9c-.1 0-.2 0-.2-.2v-8.6c0-.1 0-.2.2-.2h1.2c.1 0 .2.1.2.2v3.7l3.2-3.7c.1-.1.1-.1.2-.1h1.5c.2 0 .2.1.1.2L58.6 93l3.6 4.6c.1.1 0 .2-.1.2h-1.6c-.1 0-.2 0-.2-.1l-2.8-3.8-.6.7v3c0 .1 0 .2-.2.2l-1.2.1Z" fill="url(#E)"/><path d="M67.4 98c-1.8.2-3.4-1.1-3.5-2.9v-2.9c-.2-1.8 1.1-3.3 2.9-3.5h.6c1.8-.2 3.4 1.1 3.5 2.9v2.9c.2 1.8-1.2 3.4-2.9 3.5-.2.1-.4.1-.6 0Zm0-1.4c1 .1 1.9-.6 2-1.6V92.3c0-1.1-.9-2-2-2s-2 .9-2 2v2.3c-.1 1 .5 1.9 1.5 2.1.2-.1.3-.1.5-.1Z" fill="url(#F)"/><path d="M77.4 88.8c1.6-.2 3 1 3.2 2.6v.5c.1 1.6-1 3-2.6 3.1h-2.4v2.7c0 .1 0 .2-.2.2h-1.2c-.1 0-.2 0-.2-.2v-8.6c0-.1.1-.2.2-.2l3.2-.1Zm-.1 4.8c1.2 0 1.8-.5 1.8-1.7 0-1.1-.6-1.7-1.8-1.7h-1.7v3.3l1.7.1Z" fill="url(#G)"/><path d="M83.6 97.9c-.1 0-.2 0-.2-.2v-8.6c0-.1 0-.2.2-.2h6.3c.1 0 .2 0 .2.1v8.7c0 .1 0 .2-.1.2h-1.3c-.1 0-.2 0-.2-.2v-7.5h-3.6v7.4c0 .1-.1.2-.2.2l-1.1.1Z" fill="url(#H)"/><path d="M96.7 98c-1.8.2-3.4-1.1-3.5-2.9v-2.9c0-2 1.6-3.5 3.5-3.5s3.5 1.6 3.5 3.5v2.3c.2 1.8-1.2 3.4-2.9 3.5-.2.1-.4.1-.6 0Zm0-1.4c1 .1 1.9-.6 2-1.6v-2.8c0-1.1-.9-2-2-2s-2 .9-2 2v2.3c-.1 1 .6 1.9 1.5 2.1h.5Z" fill="url(#I)"/><path d="M106.8 88.8c1.6-.2 3 1 3.2 2.6v.5c.1 1.6-1 3-2.6 3.1H105v2.7c0 .1 0 .2-.2.2h-1.2c-.1 0-.2 0-.2-.2v-8.6c0-.1.1-.2.2-.2l3.2-.1Zm-.2 4.8c1.2 0 1.8-.5 1.8-1.7 0-1.1-.6-1.7-1.8-1.7h-1.7v3.3l1.7.1Z" fill="url(#J)"/><path d="M111.5 97.9c-.1 0-.2-.1-.1-.2l3-8.6c0-.1.1-.2.2-.2h1.4c.1 0 .2.1.2.2l3 8.6c0 .1 0 .2-.1.2h-1.2c-.1 0-.2-.1-.2-.2l-.6-1.9h-3.5l-.6 1.9c0 .1-.1.2-.2.2h-1.3Zm2.4-3.5h2.6l-1.2-3.9-1.4 3.9Z" fill="url(#K)"/><path d="M127.9 99.5c-.1 0-.2-.1-.2-.2v-1.5h-5.8c-.1 0-.2 0-.2-.2V89c0-.1.1-.2.2-.2h1.2c.1 0 .2.1.2.2v7.4h3.5V89c0-.1.1-.2.1-.2h1.2c.1 0 .2.1.2.2v7.4h.7c.1 0 .2 0 .2.2v2.7c0 .1-.1.2-.1.2h-1.2Z" fill="url(#L)"/><path d="M137.5 97.9c-.1 0-.2 0-.2-.2v-2.9c0-1.1 0-2.4.1-3.5-.4.8-.9 1.7-1.3 2.5l-2.4 3.9c0 .1-.1.1-.2.1h-1.2c-.1 0-.2 0-.2-.1V88.9c0-.1 0-.2.1-.2H133.4c.1 0 .2.1.2.2V92c0 1.1 0 2.4-.1 3.4.4-.7.8-1.5 1.2-2.3l2.5-4.3c0-.1.1-.1.2-.1h1.2c.1 0 .2.1.2.2v8.6c0 .1-.1.2-.2.2l-1.1.2Z" fill="url(#M)"/><path d="M145.1 88.8h3.2c.1 0 .2.1.2.2v8.6c0 .1 0 .2-.2.2h-1.2c-.1 0-.2-.1-.2-.2v-3.1h-1.4l-2.1 3.1c0 .1-.1.1-.2.1h-1.5c-.1 0-.2-.1-.1-.2l2.3-3.2c-1.2-.3-2.1-1.4-2-2.7-.1-1.5 1.1-2.9 2.6-2.9.3.1.4.1.6.1Zm1.9 4.4v-3h-1.8c-1.1 0-1.6.5-1.6 1.5s.6 1.5 1.6 1.5h1.8Z" fill="url(#N)"/><defs><linearGradient id="u" x1="-.278" y1="76.517" x2="201.642" y2="76.517" gradientUnits="userSpaceOnUse"><stop stop-color="#1C8AE2"/><stop offset=".486" stop-color="#8B00B3"/><stop offset="1" stop-color="#6900B5"/></linearGradient><linearGradient id="a" x1="-.278" y1="77.277" x2="201.641" y2="77.277" gradientUnits="userSpaceOnUse"><stop stop-color="#1C8AE2"/><stop offset=".486" stop-color="#8B00B3"/><stop offset="1" stop-color="#6900B5"/></linearGradient><linearGradient id="c" x1="-.278" y1="59.677" x2="201.642" y2="59.677" gradientUnits="userSpaceOnUse"><stop stop-color="#1C8AE2"/><stop offset=".486" stop-color="#8B00B3"/><stop offset="1" stop-color="#6900B5"/></linearGradient><linearGradient id="d" x1="-.278" y1="59.688" x2="201.641" y2="59.688" gradientUnits="userSpaceOnUse"><stop stop-color="#1C8AE2"/><stop offset=".486" stop-color="#8B00B3"/><stop offset="1" stop-color="#6900B5"/></linearGradient><linearGradient id="e" x1="-.278" y1="59.686" x2="201.641" y2="59.686" gradientUnits="userSpaceOnUse"><stop stop-color="#1C8AE2"/><stop offset=".486" stop-color="#8B00B3"/><stop offset="1" stop-color="#6900B5"/></linearGradient><linearGradient id="f" x1="-.278" y1="59.688" x2="201.642" y2="59.688" gradientUnits="userSpaceOnUse"><stop stop-color="#1C8AE2"/><stop offset=".486" stop-color="#8B00B3"/><stop offset="1" stop-color="#6900B5"/></linearGradient><linearGradient id="g" x1="-.278" y1="60.546" x2="201.641" y2="60.546" gradientUnits="userSpaceOnUse"><stop stop-color="#1C8AE2"/><stop offset=".486" stop-color="#8B00B3"/><stop offset="1" stop-color="#6900B5"/></linearGradient><linearGradient id="h" x1="-.278" y1="59.684" x2="201.641" y2="59.684" gradientUnits="userSpaceOnUse"><stop stop-color="#1C8AE2"/><stop offset=".486" stop-color="#8B00B3"/><stop offset="1" stop-color="#6900B5"/></linearGradient><linearGradient id="i" x1="-.278" y1="59.664" x2="201.641" y2="59.664" gradientUnits="userSpaceOnUse"><stop stop-color="#1C8AE2"/><stop offset=".486" stop-color="#8B00B3"/><stop offset="1" stop-color="#6900B5"/></linearGradient><linearGradient id="j" x1="-.278" y1="59.688" x2="201.642" y2="59.688" gradientUnits="userSpaceOnUse"><stop stop-color="#1C8AE2"/><stop offset=".486" stop-color="#8B00B3"/><stop offset="1" stop-color="#6900B5"/></linearGradient><linearGradient id="k" x1="-.277" y1="59.664" x2="201.642" y2="59.664" gradientUnits="userSpaceOnUse"><stop stop-color="#1C8AE2"/><stop offset=".486" stop-color="#8B00B3"/><stop offset="1" stop-color="#6900B5"/></linearGradient><linearGradient id="l" x1="-.277" y1="59.665" x2="201.642" y2="59.665" gradientUnits="userSpaceOnUse"><stop stop-color="#1C8AE2"/><stop offset=".486" stop-color="#8B00B3"/><stop offset="1" stop-color="#6900B5"/></linearGradient><linearGradient id="m" x1="-.278" y1="59.695" x2="201.641" y2="59.695" gradientUnits="userSpaceOnUse"><stop stop-color="#1C8AE2"/><stop offset=".486" stop-color="#8B00B3"/><stop offset="1" stop-color="#6900B5"/></linearGradient><linearGradient id="n" x1="-.277" y1="59.665" x2="201.642" y2="59.665" gradientUnits="userSpaceOnUse"><stop stop-color="#1C8AE2"/><stop offset=".486" stop-color="#8B00B3"/><stop offset="1" stop-color="#6900B5"/></linearGradient><linearGradient id="o" x1="-.277" y1="76.52" x2="201.642" y2="76.52" gradientUnits="userSpaceOnUse"><stop stop-color="#1C8AE2"/><stop offset=".486" stop-color="#8B00B3"/><stop offset="1" stop-color="#6900B5"/></linearGradient><linearGradient id="p" x1="-.278" y1="76.525" x2="201.641" y2="76.525" gradientUnits="userSpaceOnUse"><stop stop-color="#1C8AE2"/><stop offset=".486" stop-color="#8B00B3"/><stop offset="1" stop-color="#6900B5"/></linearGradient><linearGradient id="q" x1="-.277" y1="77.381" x2="201.642" y2="77.381" gradientUnits="userSpaceOnUse"><stop stop-color="#1C8AE2"/><stop offset=".486" stop-color="#8B00B3"/><stop offset="1" stop-color="#6900B5"/></linearGradient><linearGradient id="r" x1="-.278" y1="76.504" x2="201.641" y2="76.504" gradientUnits="userSpaceOnUse"><stop stop-color="#1C8AE2"/><stop offset=".486" stop-color="#8B00B3"/><stop offset="1" stop-color="#6900B5"/></linearGradient><linearGradient id="s" x1="-.277" y1="76.52" x2="201.642" y2="76.52" gradientUnits="userSpaceOnUse"><stop stop-color="#1C8AE2"/><stop offset=".486" stop-color="#8B00B3"/><stop offset="1" stop-color="#6900B5"/></linearGradient><linearGradient id="t" x1="-.278" y1="76.5" x2="201.641" y2="76.5" gradientUnits="userSpaceOnUse"><stop stop-color="#1C8AE2"/><stop offset=".486" stop-color="#8B00B3"/><stop offset="1" stop-color="#6900B5"/></linearGradient><linearGradient id="b" x1="-.277" y1="77.276" x2="201.642" y2="77.276" gradientUnits="userSpaceOnUse"><stop stop-color="#1C8AE2"/><stop offset=".486" stop-color="#8B00B3"/><stop offset="1" stop-color="#6900B5"/></linearGradient><linearGradient id="v" x1="-.278" y1="76.504" x2="201.641" y2="76.504" gradientUnits="userSpaceOnUse"><stop stop-color="#1C8AE2"/><stop offset=".486" stop-color="#8B00B3"/><stop offset="1" stop-color="#6900B5"/></linearGradient><linearGradient id="w" x1="-.278" y1="76.513" x2="201.642" y2="76.513" gradientUnits="userSpaceOnUse"><stop stop-color="#1C8AE2"/><stop offset=".486" stop-color="#8B00B3"/><stop offset="1" stop-color="#6900B5"/></linearGradient><linearGradient id="x" x1="-.278" y1="76.5" x2="201.642" y2="76.5" gradientUnits="userSpaceOnUse"><stop stop-color="#1C8AE2"/><stop offset=".486" stop-color="#8B00B3"/><stop offset="1" stop-color="#6900B5"/></linearGradient><linearGradient id="y" x1="-.278" y1="76.537" x2="201.642" y2="76.537" gradientUnits="userSpaceOnUse"><stop stop-color="#1C8AE2"/><stop offset=".486" stop-color="#8B00B3"/><stop offset="1" stop-color="#6900B5"/></linearGradient><linearGradient id="z" x1="-.278" y1="76.542" x2="201.641" y2="76.542" gradientUnits="userSpaceOnUse"><stop stop-color="#1C8AE2"/><stop offset=".486" stop-color="#8B00B3"/><stop offset="1" stop-color="#6900B5"/></linearGradient><linearGradient id="A" x1="-.278" y1="76.559" x2="201.641" y2="76.559" gradientUnits="userSpaceOnUse"><stop stop-color="#1C8AE2"/><stop offset=".486" stop-color="#8B00B3"/><stop offset="1" stop-color="#6900B5"/></linearGradient><linearGradient id="B" x1="-.278" y1="76.513" x2="201.641" y2="76.513" gradientUnits="userSpaceOnUse"><stop stop-color="#1C8AE2"/><stop offset=".486" stop-color="#8B00B3"/><stop offset="1" stop-color="#6900B5"/></linearGradient><linearGradient id="C" x1="-.278" y1="76.544" x2="201.641" y2="76.544" gradientUnits="userSpaceOnUse"><stop stop-color="#1C8AE2"/><stop offset=".486" stop-color="#8B00B3"/><stop offset="1" stop-color="#6900B5"/></linearGradient><linearGradient id="D" x1="-.278" y1="76.512" x2="201.641" y2="76.512" gradientUnits="userSpaceOnUse"><stop stop-color="#1C8AE2"/><stop offset=".486" stop-color="#8B00B3"/><stop offset="1" stop-color="#6900B5"/></linearGradient><linearGradient id="E" x1="-.278" y1="93.374" x2="201.641" y2="93.374" gradientUnits="userSpaceOnUse"><stop stop-color="#1C8AE2"/><stop offset=".486" stop-color="#8B00B3"/><stop offset="1" stop-color="#6900B5"/></linearGradient><linearGradient id="F" x1="-.278" y1="93.366" x2="201.642" y2="93.366" gradientUnits="userSpaceOnUse"><stop stop-color="#1C8AE2"/><stop offset=".486" stop-color="#8B00B3"/><stop offset="1" stop-color="#6900B5"/></linearGradient><linearGradient id="G" x1="-.278" y1="93.358" x2="201.642" y2="93.358" gradientUnits="userSpaceOnUse"><stop stop-color="#1C8AE2"/><stop offset=".486" stop-color="#8B00B3"/><stop offset="1" stop-color="#6900B5"/></linearGradient><linearGradient id="H" x1="-.278" y1="93.374" x2="201.642" y2="93.374" gradientUnits="userSpaceOnUse"><stop stop-color="#1C8AE2"/><stop offset=".486" stop-color="#8B00B3"/><stop offset="1" stop-color="#6900B5"/></linearGradient><linearGradient id="I" x1="-.278" y1="93.344" x2="201.642" y2="93.344" gradientUnits="userSpaceOnUse"><stop stop-color="#1C8AE2"/><stop offset=".486" stop-color="#8B00B3"/><stop offset="1" stop-color="#6900B5"/></linearGradient><linearGradient id="J" x1="-.277" y1="93.358" x2="201.642" y2="93.358" gradientUnits="userSpaceOnUse"><stop stop-color="#1C8AE2"/><stop offset=".486" stop-color="#8B00B3"/><stop offset="1" stop-color="#6900B5"/></linearGradient><linearGradient id="K" x1="-.278" y1="93.38" x2="201.641" y2="93.38" gradientUnits="userSpaceOnUse"><stop stop-color="#1C8AE2"/><stop offset=".486" stop-color="#8B00B3"/><stop offset="1" stop-color="#6900B5"/></linearGradient><linearGradient id="L" x1="-.278" y1="94.2" x2="201.642" y2="94.2" gradientUnits="userSpaceOnUse"><stop stop-color="#1C8AE2"/><stop offset=".486" stop-color="#8B00B3"/><stop offset="1" stop-color="#6900B5"/></linearGradient><linearGradient id="M" x1="-.278" y1="93.335" x2="201.641" y2="93.335" gradientUnits="userSpaceOnUse"><stop stop-color="#1C8AE2"/><stop offset=".486" stop-color="#8B00B3"/><stop offset="1" stop-color="#6900B5"/></linearGradient><linearGradient id="N" x1="-.278" y1="93.353" x2="201.641" y2="93.353" gradientUnits="userSpaceOnUse"><stop stop-color="#1C8AE2"/><stop offset=".486" stop-color="#8B00B3"/><stop offset="1" stop-color="#6900B5"/></linearGradient></defs></svg>