<svg xmlns="http://www.w3.org/2000/svg" width="200" height="155" fill="none"><g clip-path="url(#a)"><path fill="url(#b)" d="m47.4 73.6-21 15.2c-.6.5-1.4.7-2.2.7V105c.2 0 .4 0 .6-.1l22.4-16c.7-.5 1.1-1.3 1.1-2.1V74.1c0-.4-.4-.6-.7-.6 0 0-.1.1-.2.1Z"/><path fill="url(#c)" d="M24.3 89.5c-.8 0-1.5-.2-2.2-.7L.9 73.7c-.3-.2-.6-.1-.8.1-.1.1-.1.2-.1.3v12.6c0 .9.4 1.7 1.1 2.2l22.5 15.901c.2.1.4.2.6.2v-15.5h.1Z"/><path fill="url(#d)" d="M47.1 66.8 36.2 59c-1.5-1.1-3.5-1.2-5.1-.2L17.1 69c-.8.6-1.8.6-2.6 0l-.3-.2c-.5-.4-.6-1.2-.2-1.7.1-.1.1-.2.2-.2L30.6 55l-4.8-3.5c-.4-.3-.9-.5-1.4-.5h-.2c-.5 0-1 .2-1.4.5L1.4 66.9c-1.1.8-1.4 2.4-.6 3.6.2.2.3.4.6.6l10.3 7.4a4.8 4.8 0 0 0 5.8 0l.5-.4 14.6-10.7c.4-.3.9-.3 1.3 0l1.1.8c.5.4.6 1 .2 1.5-.1.1-.1.2-.2.2L17.5 82.6l5 3.6c1.1.8 2.6.8 3.7 0L47.1 71c1.2-.8 1.4-2.4.6-3.6-.1-.2-.3-.4-.6-.6Z"/><path fill="url(#e)" d="M64.3 87.5c-.1-.1-.3-.2-.5-.2s-.3-.1-.5-.1H63c-.1 0-.2.1-.3.1-.1.1-.1.2-.2.3-.1.1-.1.3-.1.4v1.4c0 .1 0 .3.1.4 0 .1.1.2.2.3.1.1.2.1.3.1h.8c.2 0 .3-.1.5-.3l.4.7c-.2.2-.4.3-.6.3-.3.1-.5.1-.8.1-.2 0-.4 0-.6-.1l-.6-.3c-.2-.1-.3-.3-.4-.5-.1-.2-.2-.4-.2-.7v-1.7c0-.2 0-.4.2-.6.1-.2.3-.3.5-.4l.6-.3c.2-.1.4-.1.6-.1.3 0 .5 0 .8.1.2.1.5.2.6.3l-.5.8Zm4.7-.3V91h-.9v-3.8h-1.2v-.8h3.4v.8H69Zm4.5 1.3h1c.2 0 .4 0 .5-.2.1-.1.2-.3.2-.4 0-.2-.1-.3-.2-.5-.1-.1-.3-.2-.5-.2h-1v1.3Zm1.2-2.1c.2 0 .4 0 .6.1.2.1.3.2.4.3.1.1.2.3.2.5s.1.3.1.5 0 .4-.1.5c-.1.2-.2.3-.3.5-.1.1-.3.3-.4.3-.2.1-.4.1-.6.1h-1.1V91h-.9v-4.6h2.1Zm7.1 3.2c0 .2 0 .4-.1.6-.1.2-.2.4-.4.5l-.6.3c-.2.1-.5.1-.7.1-.2 0-.5 0-.7-.1l-.6-.3c-.2-.1-.3-.3-.4-.5-.1-.2-.1-.4-.1-.6v-1.7c0-.2 0-.4.2-.6.1-.2.2-.4.4-.5l.6-.3c.2-.1.4-.1.7-.1.2 0 .5 0 .7.1l.6.3c.2.1.3.3.4.5.1.2.1.4.1.7v1.6h-.1Zm-.9-1.5c0-.1 0-.3-.1-.4-.1-.2-.3-.3-.5-.4h-.6c-.1 0-.2.1-.3.2-.1.1-.1.2-.2.2v2.2c0 .1.1.2.2.3.1.1.2.1.3.2h.6c.1 0 .2-.1.3-.2.1-.1.2-.2.2-.3.1-.1.1-.3.1-.4v-1.4Zm6.3 0-.5.7-.2.3-.3.4-.3.4-.3.4c-.1.2-.2.3-.3.4l-.2.3h-.8v-4.7h.9v3.1l1-1.5 1-1.5h.8V91h-.9l.1-2.9Zm5.5-.8v3.8h-.9v-3.8h-1.2v-.8h3.3v.8h-1.2Zm3.6-.9h3.2v.8h-2.4v1.1h2v.8h-2v1.1h2.3v.8h-3.2l.1-4.6Zm7.1.9v2.2c0 .3-.1.6-.2.8-.1.2-.3.4-.5.6-.2.2-.5.2-.8.3l-.2-.7c.2-.1.3-.1.5-.2.1-.1.2-.2.3-.4.1-.2.1-.4.1-.6v-2.8h3.1v4.6h-.9v-3.8h-1.4Zm5.8 2.9h1c.2 0 .4-.1.5-.2.1-.1.2-.3.2-.4 0-.2-.1-.3-.2-.4-.1-.1-.3-.2-.5-.2h-1v1.2Zm-.9.9v-4.7h.9v1.8h1.1c.2 0 .4 0 .6.1.2.1.3.2.5.3.1.1.2.3.3.5.1.2.1.4.1.6 0 .2 0 .3-.1.5 0 .2-.1.3-.2.5-.1.1-.3.3-.4.3-.2.1-.4.1-.6.1h-2.2Zm8.4 0v-2h-1.8V91h-.9v-4.6h.9v1.9h1.7v-1.9h.9V91l-.8.1Zm6.1-1h-1.6l-.3 1h-1l1.6-4.6h.9l1.6 4.6h-1l-.2-1Zm-1.4-.8h1.1l-.2-.6-.4-1.2-.4 1.2-.1.6Zm8.4-2.9V91h-.9v-1.8h-.9c-.1 0-.1 0-.2.1l-.2.2c-.1.1-.1.2-.1.3l-.3 1.2h-1l.4-1.3c0-.2.1-.3.2-.5l.3-.3c-.1 0-.3-.1-.4-.2-.1-.1-.2-.2-.2-.3 0-.1-.1-.2-.1-.3v-.4c0-.2 0-.4.1-.5.1-.2.1-.3.3-.5.1-.1.3-.2.4-.3.2-.1.4-.1.6-.1h2v.1Zm-.9.8h-.9c-.2 0-.4.1-.5.2-.1.1-.2.3-.2.5s0 .3.2.4c.1.1.3.2.5.1h1v-1.2h-.1Zm6.8 3.8v-4.6h.9v1.9h.7c.2 0 .3-.1.4-.3.1-.1.1-.2.1-.3l.4-1.3h.9l-.4 1.4-.3.6c-.1.1-.2.2-.4.3.2.1.3.2.5.3l.3.6.4 1.5h-1l-.4-1.4c0-.1-.1-.2-.1-.3 0-.1-.1-.1-.2-.2-.1 0-.1-.1-.2-.1h-.8v2l-.8-.1Zm9.5-1.4c0 .2 0 .4-.1.6-.1.2-.2.4-.4.5l-.6.3c-.2.1-.5.1-.7.1-.2 0-.5 0-.7-.1l-.6-.3c-.2-.1-.3-.3-.4-.5-.1-.2-.1-.4-.1-.6v-1.7c0-.2 0-.5.2-.6.1-.2.2-.4.4-.5l.6-.3c.2-.1.4-.1.7-.1.2 0 .4 0 .7.1l.6.3c.2.1.3.3.4.5.1.2.1.4.1.7v1.6h-.1Zm-.9-1.5v-.4c0-.1-.1-.2-.2-.2-.1-.1-.2-.1-.3-.2h-.6c-.1 0-.2.1-.3.2-.1.1-.1.2-.2.2 0 .1-.1.3-.1.4v1.4c0 .1 0 .3.1.4 0 .1.1.2.2.3.1.1.2.1.3.2h.6c.1 0 .2-.1.3-.2.1-.1.1-.2.2-.3v-1.8Zm7.1.5-.4.9-.5 1h-.7l-.5-1-.5-.9v2.5h-.9v-4.6h.8l.8 1.6.6 1.1.6-1.2.8-1.6h.9V91h-.9v-2.4h-.1Zm6.2 2.4v-3.8h-1.7V91h-.9v-4.6h3.6V91h-1Zm6.1-.9h-1.6l-.3 1h-1l1.6-4.6h1l1.6 4.6h-1l-.3-1Zm-1.4-.8h1.1l-.2-.6-.4-1.2-.4 1.2-.1.6Zm7.6 1.7v-1.9h-1.7V91h-.9v-4.6h.9v1.9h1.7v-1.9h.9V91h-.9Zm6.4-3-.5.7-.2.3c0 .1-.2.2-.2.4l-.3.4c-.1.2-.2.3-.3.4l-.3.4-.2.3h-.8v-4.6h.9v3.1l1-1.5 1-1.5h.8V91h-.9v-3Zm7-1.6V91h-.9v-1.8h-.7c-.1 0-.1 0-.2.1l-.2.2c0 .1-.1.2-.1.3l-.3 1.2h-1l.4-1.3c.1-.2.1-.3.2-.5l.3-.3c-.1 0-.2-.1-.3-.2-.1-.1-.2-.2-.2-.3-.1-.1-.1-.2-.1-.3v-.4c0-.2 0-.4.1-.5.1-.2.1-.3.2-.5.1-.1.3-.2.4-.3.2-.1.4-.1.6-.1l1.8.1Zm-.9.8h-.9c-.2 0-.4.1-.5.2-.1.1-.2.3-.2.5s0 .3.2.4c.1.1.3.2.5.1h.9v-1.2Z"/><path fill="url(#f)" d="M80.3 63.4h-5c-.2 0-.3.1-.4.3l-3.7 9.7c-.1.2-.2.3-.3.3-.1 0-.2 0-.3-.3L67 63.7c-.1-.2-.2-.3-.4-.3h-5c-.1 0-.2.1-.2.2v.1l5.4 12.2c.6 1.6 2.3 2.6 4 2.3 1.7.2 3.4-.7 4-2.3l5.4-12.1c.1 0 .1-.1.1-.2.2-.2.1-.3 0-.2Z"/><path fill="url(#g)" d="M96.6 70.6c-.7-.5-1.4-.9-2.2-1L89 68.2c-.6-.1-1.4-.3-1.4-.8 0-.2.1-.3.2-.4.3-.1.6-.1.8-.1h7.9c.2 0 .3-.1.3-.3v-3c0-.1-.1-.3-.3-.3H86.3c-1-.1-2 .3-2.8.9-.7.8-1.1 1.8-1 2.9-.1 1.1.2 2.3.9 3.2.5.6 1.1.9 1.8 1.1l6.2 1.6c.5.1 1 .3 1 .7 0 .2-.1.5-.9.5h-8.6c-.1 0-.3.1-.3.3v3.1c0 .1.1.3.3.3h10.7c1.2.2 2.4-.2 3.2-1.1.6-.8.9-1.9.8-2.9.2-1.2-.2-2.4-1-3.3Z"/><path fill="url(#h)" d="M117.1 70.6c0-.2-.2-.4-.4-.4h-4.3c-.2 0-.4.2-.4.4v2.6c0 .3-.1.6-.3.9-.3.2-.6.2-.9.2h-1.6c-.9.1-1.7-.3-2.2-1-.5-.8-.7-1.7-.6-2.6-.1-.9.1-1.8.6-2.6.7-.8 1.7-1.3 2.8-1.2h6.6c.2 0 .4-.2.4-.4v-2.7c0-.2-.2-.4-.4-.4h-8.9c-1.4 0-2.7.3-4 1-2.1 1.4-2.3 4.1-2.3 6.4 0 1.9.2 4.5 1.9 6 1.2.8 2.6 1.2 4 1.2h7.6c.6 0 1.2-.2 1.7-.5.5-.4.7-1 .7-1.6v-5.3Z"/><path fill="url(#i)" d="M134.7 73.5c1.3.1 2.4-.7 3-1.8.4-1.1.6-2.4.6-3.6.1-1.2-.2-2.3-.8-3.3-1-1-2.4-1.6-3.8-1.4h-11.6c-.2 0-.3.1-.3.3v14c0 .1.1.2.2.2h4.8c.1 0 .2-.1.2-.2V67.3c0-.2.2-.3.3-.3h4c.5-.1 1 .1 1.4.3.3.3.4.8.4 1.2 0 .4-.1.8-.3 1.2-.4.3-.9.5-1.4.4h-.8c-1.4 0-2.3.7-2.3 1.6v.3c.1.8.5 1.5 1.1 2l2.9 3.5c.1.2.3.3.5.2h5.3c.1 0 .2-.1.2-.3 0-.1 0-.1-.1-.2l-4.1-3.9v-.1h.6v.3Z"/><path fill="url(#j)" d="M157.8 64.7c-1.7-1.4-4.6-1.5-7-1.5-2.4 0-5.3 0-7 1.5-1.7 1.5-1.8 4-1.8 5.9 0 2 0 4.5 1.8 5.9 1.8 1.5 4.6 1.5 7 1.5 2.4 0 5.3 0 7-1.5 1.7-1.5 1.8-4 1.8-5.9 0-1.8 0-4.4-1.8-5.9Zm-4.1 8.7c-.7 1-1.5 1-2.9 1s-2.2-.1-2.9-1c-.5-.8-.7-1.8-.6-2.8-.1-1 .1-1.9.6-2.8.7-1 1.6-1 2.9-1 1.3 0 2.2.1 2.9 1 .5.8.7 1.8.6 2.8.1 1-.1 2-.6 2.8Z"/><path fill="url(#k)" d="M179.4 63.4h-4.8c-.1 0-.2.1-.2.2v8.2c.1.8-.2 1.5-.8 2.1-.6.4-1.3.5-2 .5s-1.4-.2-2-.5c-.6-.5-.9-1.3-.8-2.1v-8.2c0-.1-.1-.2-.2-.2h-4.8c-.1 0-.2.1-.2.2v8.5c-.1 1.6.5 3.2 1.7 4.3 1.6 1.5 4 1.6 6.3 1.6s4.6-.2 6.2-1.6c1.2-1.1 1.8-2.7 1.7-4.3v-8.5c.1-.2 0-.2-.1-.2Z"/><path fill="url(#l)" d="M199.1 64.4c-.9-.8-2.2-1.2-3.4-1h-8.8c-.8-.1-1.5.2-2.1.7-.5.6-.7 1.3-.6 2v11.6c0 .1.1.2.2.2h4.8c.1 0 .2-.1.2-.2v-4h6.7c1 0 1.9-.3 2.8-.8 1.4-1.1 1.4-3.5 1.4-4.6.2-1.4-.3-2.9-1.2-4v.1Zm-4.4 5.3c-.5.3-1.1.5-1.7.4h-3.5c-.1 0-.2-.1-.2-.2v-2.1c0-.3.1-.8.9-.8h2.9c.6-.1 1.1 0 1.6.3.3.3.5.7.5 1.1 0 .5-.2 1-.5 1.3Z"/></g><defs><linearGradient id="h" x1="58.656" x2="199.107" y1="70.626" y2="70.626" gradientUnits="userSpaceOnUse"><stop stop-color="#1C8AE2"/><stop offset=".486" stop-color="#8B00B3"/><stop offset="1" stop-color="#6900B5"/></linearGradient><linearGradient id="b" x1="47.89" x2="22.896" y1="75.263" y2="104.188" gradientUnits="userSpaceOnUse"><stop stop-color="#1C8AE2"/><stop offset=".486" stop-color="#8B00B3"/><stop offset="1" stop-color="#6900B5"/></linearGradient><linearGradient id="d" x1="40.139" x2="-3.642" y1="69.211" y2="68.328" gradientUnits="userSpaceOnUse"><stop stop-color="#1C8AE2"/><stop offset=".486" stop-color="#8B00B3"/><stop offset="1" stop-color="#6900B5"/></linearGradient><linearGradient id="e" x1="58.656" x2="199.106" y1="88.772" y2="88.772" gradientUnits="userSpaceOnUse"><stop stop-color="#1C8AE2"/><stop offset=".486" stop-color="#8B00B3"/><stop offset="1" stop-color="#6900B5"/></linearGradient><linearGradient id="f" x1="58.656" x2="199.107" y1="70.753" y2="70.753" gradientUnits="userSpaceOnUse"><stop stop-color="#1C8AE2"/><stop offset=".486" stop-color="#8B00B3"/><stop offset="1" stop-color="#6900B5"/></linearGradient><linearGradient id="g" x1="58.656" x2="199.106" y1="70.642" y2="70.642" gradientUnits="userSpaceOnUse"><stop stop-color="#1C8AE2"/><stop offset=".486" stop-color="#8B00B3"/><stop offset="1" stop-color="#6900B5"/></linearGradient><linearGradient id="c" x1=".386" x2="24.814" y1="74.223" y2="104.003" gradientUnits="userSpaceOnUse"><stop stop-color="#1C8AE2"/><stop offset=".486" stop-color="#8B00B3"/><stop offset="1" stop-color="#6900B5"/></linearGradient><linearGradient id="i" x1="58.655" x2="199.106" y1="70.607" y2="70.607" gradientUnits="userSpaceOnUse"><stop stop-color="#1C8AE2"/><stop offset=".486" stop-color="#8B00B3"/><stop offset="1" stop-color="#6900B5"/></linearGradient><linearGradient id="j" x1="58.656" x2="199.106" y1="70.68" y2="70.68" gradientUnits="userSpaceOnUse"><stop stop-color="#1C8AE2"/><stop offset=".486" stop-color="#8B00B3"/><stop offset="1" stop-color="#6900B5"/></linearGradient><linearGradient id="k" x1="58.655" x2="199.106" y1="70.708" y2="70.708" gradientUnits="userSpaceOnUse"><stop stop-color="#1C8AE2"/><stop offset=".486" stop-color="#8B00B3"/><stop offset="1" stop-color="#6900B5"/></linearGradient><linearGradient id="l" x1="58.655" x2="199.106" y1="70.613" y2="70.613" gradientUnits="userSpaceOnUse"><stop stop-color="#1C8AE2"/><stop offset=".486" stop-color="#8B00B3"/><stop offset="1" stop-color="#6900B5"/></linearGradient><clipPath id="a"><path fill="#fff" d="M0 0h200v155H0z"/></clipPath></defs></svg>