<?xml version="1.0" encoding="utf-8"?>
<!-- Generator: Adobe Illustrator 22.1.0, SVG Export Plug-In . SVG Version: 6.00 Build 0)  -->
<svg version="1.1" id="Слой_1" xmlns="http://www.w3.org/2000/svg" xmlns:xlink="http://www.w3.org/1999/xlink" x="0px" y="0px"
	 viewBox="0 0 931 239.4" style="enable-background:new 0 0 931 239.4;" xml:space="preserve">
<style type="text/css">
	.st0{fill:#FFFFFF;}
	.st1{enable-background:new    ;}
</style>
<g>
	<g>
		<path class="st0" d="M14.8,186.4c0,0,3,0.2,8.3,0.6c2.6,0.3,5.8,0.5,9.4,0.9s7.7,0.8,12.2,1.4c1.1,0.1,2.3,0.3,3.4,0.4
			c0.6,0.1,1.2,0.2,1.8,0.2l0.4,0.1h0.4l0.9,0.1c2.4,0.2,4.9,0.5,7.5,0.7c2.6,0.3,5.2,0.3,7.8,0.5c2.7,0.2,5.4,0.3,8.2,0.4
			c2.8,0.1,5.6,0.2,8.5,0.2c2.9-0.1,5.8-0.1,8.7-0.2c5.9-0.3,11.9-0.7,17.9-1c12-0.7,24-1.3,35.2-1.9c5.6-0.3,11.1-0.5,16.2-0.8
			c5.2-0.2,10-0.4,14.5-0.6c9-0.4,16.5-0.6,21.8-0.8c5.3-0.1,8.3-0.2,8.3-0.2s-3,0.3-8.2,0.8s-12.7,1.2-21.7,2
			c-4.5,0.4-9.4,0.8-14.5,1.3c-5.1,0.4-10.6,0.9-16.2,1.3c-11.2,0.9-23.2,1.8-35.2,2.7c-6,0.4-12,0.9-17.9,1.2c-3,0.1-6,0.2-8.9,0.3
			c-2.9,0-5.8-0.1-8.6-0.2c-1.4,0-2.8,0-4.2-0.1c-1.4-0.1-2.8-0.2-4.2-0.3c-2.7-0.2-5.4-0.3-8-0.6c-2.6-0.4-5-0.7-7.5-1
			s-4.7-0.8-7-1.2c-4.4-0.8-8.5-1.6-12.1-2.4c-3.6-0.7-6.7-1.4-9.3-2C17.7,187.1,14.8,186.4,14.8,186.4z"/>
	</g>
	<g>
		<path class="st0" d="M14.8,180.3c0,0,3-0.4,8.2-1.1c2.6-0.3,5.8-0.7,9.4-1c3.6-0.4,7.7-0.7,12.2-1.1c1.1-0.1,2.3-0.2,3.4-0.3
			c0.6,0,1.2-0.1,1.8-0.1s1.2-0.1,1.8-0.1c2.4-0.1,4.9-0.2,7.5-0.4c2.6-0.1,5.2-0.2,7.9-0.3c1.4,0,2.7-0.1,4.1-0.1s2.8,0,4.2,0
			c5.6,0,11.5,0,17.4,0c5.9,0.1,11.9,0.3,17.9,0.4c6,0.2,12,0.3,17.8,0.5c5.9,0.2,11.7,0.4,17.3,0.6c5.6,0.2,11,0.4,16.2,0.6
			c5.1,0.2,10,0.4,14.5,0.6c9,0.4,16.4,0.8,21.7,1c5.2,0.3,8.2,0.5,8.2,0.5s-3,0.1-8.2,0.2c-5.2,0.1-12.7,0.2-21.7,0.2
			c-4.5,0-9.3,0-14.5,0c-5.1,0-10.6,0-16.2,0c-5.6,0-11.4-0.1-17.3-0.1c-5.9-0.1-11.9-0.1-17.9-0.2c-6-0.1-12-0.2-17.9-0.2
			s-11.6,0-17.2,0s-11,0.2-16.2,0.3c-2.6,0-5.1,0-7.5,0.1c-0.6,0-1.2,0-1.8,0s-1.2,0-1.7,0c-1.2,0-2.3,0-3.4,0
			c-4.5,0.1-8.6,0.1-12.3,0.1c-3.7,0-6.8-0.1-9.5-0.1C17.8,180.5,14.8,180.3,14.8,180.3z"/>
	</g>
	<g>
		<path class="st0" d="M14.8,174.2c0,0,2.9-1,7.9-2.6c2.5-0.8,5.6-1.8,9.1-2.8c3.5-1.1,7.5-2.2,11.9-3.4c2.2-0.6,4.4-1.3,6.9-1.9
			c1.2-0.3,2.4-0.6,3.6-0.9c1.2-0.3,2.6-0.5,3.9-0.7c5.3-0.9,10.7-1.5,16.5-1.8c5.7-0.3,11.7-0.4,17.7,0.2c6,0.6,11.9,1.2,18,1.9
			c12,1.3,24,2.7,35.3,4c5.6,0.7,11.1,1.3,16.2,2c5.2,0.6,10,1.3,14.5,1.8c9,1.1,16.5,2.2,21.7,2.9s8.2,1.2,8.2,1.2s-3-0.2-8.3-0.5
			c-5.3-0.4-12.8-0.9-21.9-1.6c-4.5-0.4-9.4-0.8-14.6-1.2c-5.2-0.4-10.6-0.9-16.3-1.4c-11.3-1-23.3-2.1-35.4-3.2
			c-6-0.6-12-1.2-17.9-1.7c-5.8-0.5-11.6-0.4-17.2-0.1c-2.8,0.1-5.5,0.4-8.2,0.6c-1.3,0.1-2.7,0.3-4,0.4c-0.7,0.1-1.3,0.2-1.9,0.2
			c-0.6,0.1-1.3,0.2-1.9,0.3c-1.3,0.2-2.5,0.3-3.7,0.5s-2.5,0.5-3.7,0.7c-2.4,0.5-4.7,1-6.9,1.5c-4.4,1-8.5,1.8-12.1,2.5
			s-6.8,1.3-9.4,1.8C17.8,173.8,14.8,174.2,14.8,174.2z"/>
	</g>
	<g>
		<path class="st0" d="M206.2,167.9c0,0-3.1-0.4-8.4-1.2c-5.3-0.8-13-2-22.1-3.5c-4.6-0.7-9.5-1.6-14.8-2.4
			c-5.2-0.9-10.8-1.8-16.5-2.8s-11.6-2-17.6-3c-6-1.1-12.1-2.1-18.2-3.2c-3-0.6-6.1-1.1-9.1-1.6c-1.5-0.3-3-0.6-4.5-0.8l-2.3-0.4
			l-2.2-0.3l-2.3-0.3c-0.7-0.1-1.4-0.1-2.2-0.1c-1.4,0-2.8-0.2-4.3-0.1c-1.5,0-2.9,0.1-4.3,0.1c-1.4,0.1-2.9,0.3-4.3,0.4
			c-5.6,0.6-11,1.6-16,3.1c-4.8,1.5-9.4,3.7-13.7,5.4c-4.3,1.8-8.2,3.3-11.7,4.7s-6.6,2.5-9.1,3.5c-5.1,1.9-8,2.9-8,2.9
			s2.7-1.5,7.5-4c2.4-1.2,5.3-2.8,8.7-4.5c3.4-1.7,7.2-3.6,11.3-5.6c4.2-2,8.6-4.3,13.8-6.2c1.3-0.4,2.6-0.8,4-1.2
			c1.3-0.4,2.7-0.6,4.1-0.9c0.7-0.1,1.4-0.3,2.1-0.4c0.7-0.1,1.4-0.2,2.1-0.3c1.4-0.2,2.9-0.5,4.4-0.6s3-0.3,4.5-0.4
			c1.5,0,3-0.1,4.6-0.1c1.5-0.1,3.1,0.1,4.7,0.1c0.8,0.1,1.6,0,2.4,0.1l2.3,0.3l1.1,0.2l0.6,0.1h0.3l0.4,0.1l2.3,0.4
			c1.5,0.3,3,0.6,4.5,0.9c3,0.6,6.1,1.2,9.1,1.8c6.1,1.2,12.1,2.4,18.1,3.5c6,1.2,11.8,2.4,17.5,3.5c5.7,1.2,11.2,2.3,16.4,3.4
			c5.2,1.1,10.1,2.1,14.6,3.1c9.1,1.9,16.6,3.6,21.9,4.7C203.2,167.2,206.2,167.9,206.2,167.9z"/>
	</g>
	<g>
		<path class="st0" d="M206.2,192.7c0,0-3,0.6-8.3,1.5c-5.3,1-12.8,2.3-21.8,3.9c-4.5,0.8-9.4,1.6-14.6,2.5
			c-5.2,0.9-10.6,1.8-16.3,2.7c-11.3,1.9-23.4,3.8-35.4,5.7c-3,0.5-6,0.9-9,1.4c-1.5,0.2-3,0.4-4.5,0.7l-2.2,0.3l-0.6,0.1l-0.6,0.1
			l-1.1,0.1c-2.9,0.4-6.1,0.5-9.1,0.5c-1.5,0-3-0.1-4.5-0.1s-2.9-0.2-4.4-0.3c-5.8-0.5-11.4-1.3-16.6-2.7c-0.7-0.2-1.3-0.3-1.9-0.5
			c-0.6-0.2-1.3-0.4-1.9-0.6c-1.2-0.4-2.5-0.8-3.7-1.2c-2.3-0.9-4.5-1.7-6.7-2.6c-4.3-1.7-8.2-3.2-11.6-4.6
			c-3.5-1.4-6.4-2.7-8.9-3.7c-4.9-2.1-7.7-3.4-7.7-3.4s3,0.7,8.1,2.2c2.6,0.7,5.7,1.6,9.3,2.7c3.6,1.1,7.6,2.3,11.9,3.7
			c2.2,0.7,4.5,1.4,6.8,2.2c1.2,0.4,2.3,0.7,3.5,1c0.6,0.2,1.2,0.3,1.8,0.5c0.6,0.1,1.2,0.3,1.9,0.4c5,1.2,10.4,1.9,16,2.3
			c1.4,0.1,2.8,0.2,4.2,0.3c1.4,0,2.9,0.1,4.3,0.1c2.9,0,5.6-0.1,8.7-0.4l1.1-0.1h0.5l0.6-0.1l2.2-0.3c1.5-0.2,3-0.4,4.5-0.7
			c3-0.4,6-0.9,9.1-1.3c12.1-1.7,24.2-3.4,35.5-4.9c5.7-0.8,11.2-1.5,16.4-2.1c5.2-0.7,10.1-1.3,14.7-1.8c9.1-1.1,16.7-2,22-2.6
			C203.2,193,206.2,192.7,206.2,192.7z"/>
	</g>
	<g>
		<path class="st0" d="M206.2,198.9c0,0-3,0.8-8.3,2.3c-5.3,1.4-12.9,3.4-22,5.8c-4.6,1.2-9.5,2.4-14.7,3.8
			c-5.2,1.3-10.8,2.7-16.5,4.1c-5.7,1.4-11.6,2.9-17.6,4.3c-6,1.5-12.1,2.9-18.2,4.4c-3.1,0.7-6.1,1.4-9.2,2.2
			c-1.5,0.4-3,0.7-4.6,1.1l-1.1,0.3l-0.6,0.1l-0.3,0.1H93h-0.3l-2.3,0.4c-0.8,0.1-1.5,0.3-2.3,0.3l-2.4,0.2l-2.4,0.2
			c-0.8,0-1.6,0-2.4-0.1c-3.1,0-6.2-0.4-9.2-0.7c-6-1-11.7-2.5-16.8-4.8c-1.2-0.6-2.6-1.2-3.7-1.9c-1.1-0.7-2.2-1.3-3.4-1.9
			c-2.2-1.3-4.3-2.5-6.3-3.7c-8.1-4.8-14.8-9-19.4-11.9c-2.3-1.5-4.1-2.7-5.4-3.5c-1.2-0.8-1.9-1.3-1.9-1.3s0.7,0.3,2.1,0.9
			c1.3,0.6,3.3,1.5,5.8,2.7c5,2.4,12,5.8,20.4,10.2c2.1,1.1,4.3,2.2,6.5,3.4c1.1,0.6,2.3,1.2,3.4,1.8c1.2,0.6,2.3,1.1,3.5,1.6
			c4.8,1.9,10.1,3.4,15.8,4.2c2.8,0.3,5.7,0.7,8.7,0.7l2.2,0.1l2.1-0.1l2.2-0.1c0.7,0,1.5-0.2,2.3-0.3l2.3-0.4l0.4-0.1L93,223
			l1.1-0.3c1.5-0.3,3-0.7,4.6-1c3-0.7,6.1-1.4,9.2-2.1c6.1-1.4,12.3-2.7,18.3-4.1c6-1.3,12-2.6,17.7-3.9c5.8-1.2,11.3-2.4,16.6-3.5
			s10.3-2.1,14.9-3.1c9.2-1.9,16.9-3.4,22.3-4.5C203.1,199.5,206.2,198.9,206.2,198.9z"/>
	</g>
	<g>
		<path class="st0" d="M206.2,161.7c0,0-3.1-0.7-8.6-2c-5.4-1.3-13.2-3.2-22.5-5.4c-4.6-1.1-9.7-2.4-15-3.7s-10.9-2.8-16.7-4.2
			c-11.6-2.9-24-6.2-36.3-9.4c-3.1-0.8-6.2-1.6-9.2-2.5c-1.5-0.4-3.1-0.8-4.6-1.2l-1.1-0.3l-1.1-0.2l-1.1-0.3l-1.1-0.2
			c-5.8-0.9-11.9-0.5-17.6,0.5s-11.1,2.8-15.6,5.3c-4.7,2.8-9.1,5.5-13.1,8c-8.2,5-15.1,9-20,11.8c-2.4,1.4-4.4,2.5-5.7,3.2
			s-2,1.1-2,1.1s0.6-0.5,1.8-1.4c1.2-0.9,3-2.2,5.2-3.9c4.5-3.3,11-8,18.9-13.4c2-1.4,4-2.8,6.2-4.2c1.1-0.7,2.2-1.5,3.3-2.2
			s2.2-1.5,3.5-2.3c5-3,10.7-4.9,16.8-6.1c3-0.6,6.2-1,9.4-1c3.2-0.1,6.4,0,9.8,0.6l1.3,0.2l1.2,0.3l1.2,0.3l1.1,0.3
			c1.5,0.4,3.1,0.8,4.6,1.3c3.1,0.8,6.1,1.7,9.2,2.5c12.3,3.4,24.6,6.9,36.1,10.2c5.8,1.7,11.3,3.3,16.6,4.8s10.2,3,14.8,4.4
			c9.2,2.8,16.8,5.1,22.2,6.7C203.2,160.7,206.2,161.7,206.2,161.7z"/>
	</g>
	<g>
		<path class="st0" d="M206.2,155.4c0,0-3.2-1-8.7-2.7c-5.5-1.8-13.5-4.3-23-7.4c-4.7-1.6-9.9-3.3-15.3-5.1
			c-5.4-1.8-11.1-3.7-17.1-5.7c-5.9-2-12-4.1-18.2-6.2c-6.2-2.1-12.5-4.3-18.8-6.5c-3.1-1.1-6.3-2.2-9.4-3.3l-2.3-0.8l-1.2-0.4
			l-0.6-0.2l-0.2-0.1l-0.3-0.1c-0.8-0.2-1.6-0.5-2.3-0.7c-0.7-0.1-1.4-0.3-2.2-0.4c-3-0.5-6.1-0.5-9.2-0.3c-3,0.2-6.1,0.8-8.9,1.6
			c-2.9,0.8-5.6,2-8,3.3c-0.6,0.3-1.2,0.7-1.8,1.1s-1.1,0.8-1.7,1.2c-0.5,0.4-1.1,0.8-1.7,1.3c-0.6,0.5-1.1,0.9-1.7,1.4
			c-4.4,3.7-8.6,7-12.5,10.2c-7.8,6.2-14.4,11.4-19,14.9c-2.3,1.8-4.2,3.1-5.4,4.1c-1.3,0.9-1.9,1.4-1.9,1.4s0.6-0.6,1.7-1.7
			c1.1-1.1,2.8-2.7,4.9-4.7c4.2-4,10.3-9.7,17.8-16.4c3.7-3.3,7.7-7,12.1-10.7c0.5-0.5,1.1-0.9,1.6-1.4s1.1-1,1.7-1.5
			c0.6-0.5,1.2-1,1.9-1.4s1.3-0.9,2-1.3c2.7-1.6,5.7-2.9,8.9-3.8c6.2-1.9,13.1-2.6,20-1.5c0.8,0.1,1.8,0.3,2.6,0.5
			c0.9,0.2,1.6,0.5,2.4,0.7l0.3,0.1l0.4,0.1l0.6,0.2l1.2,0.4l2.3,0.8c3.1,1.1,6.3,2.2,9.4,3.4c6.3,2.3,12.5,4.5,18.7,6.8
			c6.2,2.2,12.2,4.5,18.1,6.6c5.8,2.2,11.5,4.3,16.9,6.3s10.4,3.9,15.1,5.7c9.3,3.6,17.1,6.6,22.5,8.7
			C203.1,154.2,206.2,155.4,206.2,155.4z"/>
	</g>
	<g>
		<path class="st0" d="M206.2,149.2c0,0-3.2-1.3-8.9-3.5c-5.7-2.3-13.8-5.6-23.5-9.5c-4.8-2-10.1-4.2-15.6-6.5s-11.4-4.8-17.4-7.3
			c-6-2.6-12.3-5.2-18.6-7.9c-6.3-2.7-12.7-5.5-19.2-8.2c-3.2-1.4-6.4-2.8-9.6-4.2l-2.4-1l-0.3-0.1c-0.1,0,0.1,0,0,0h-0.1l-0.2-0.1
			l-0.6-0.2l-1.2-0.5c-0.7-0.2-1.4-0.4-2.2-0.6c-0.8-0.1-1.6-0.3-2.4-0.4c-6.3-0.8-12.9,0.3-18.5,2.9c-2.8,1.3-5.3,3-7.3,5
			c-2.2,2.2-4.4,4.4-6.5,6.6c-4.2,4.3-8.2,8.3-11.9,12c-7.4,7.4-13.7,13.5-18.1,17.7c-2.2,2.1-4,3.8-5.2,4.9
			c-1.2,1.1-1.8,1.7-1.8,1.7s0.6-0.7,1.6-1.9c1.1-1.3,2.6-3.1,4.6-5.4c4-4.6,9.8-11.2,16.8-19c3.5-3.9,7.3-8.1,11.4-12.5
			c2.1-2.2,4.1-4.5,6.3-6.8c2.4-2.5,5.2-4.4,8.4-6c6.3-3,13.5-4.4,20.8-3.4c0.9,0.1,1.8,0.3,2.7,0.5c0.9,0.2,1.9,0.5,2.8,0.8
			l1.2,0.5L92,97l0.4,0.2l0.3,0.1l2.4,1.1c3.2,1.4,6.4,2.8,9.6,4.2c6.4,2.8,12.8,5.7,19,8.5c6.3,2.8,12.4,5.6,18.4,8.3
			c6,2.7,11.7,5.3,17.2,7.8c5.4,2.5,10.6,4.9,15.4,7.1c9.5,4.5,17.4,8.2,22.9,10.8C203.1,147.7,206.2,149.2,206.2,149.2z"/>
	</g>
	<g>
		<path class="st0" d="M206.2,143c0,0-3.3-1.6-9.1-4.4c-5.8-2.8-14.1-6.9-24-11.7c-9.9-4.9-21.4-10.6-33.7-16.9
			c-6.2-3.1-12.5-6.4-19-9.6c-6.4-3.3-13-6.7-19.5-10c-3.3-1.7-6.5-3.4-9.8-5.1L90,84.8l-1.2-0.6c-0.9-0.4-1.6-0.6-2.3-0.9
			c-0.8-0.2-1.6-0.4-2.4-0.6c-0.8-0.1-1.6-0.3-2.5-0.3c-3.3-0.3-6.7,0.1-9.9,1c-3.2,0.9-6.1,2.4-8.6,4.4c-1.3,1-2.3,2.1-3.4,3.2
			c-1.1,1.3-2.1,2.6-3.2,3.9c-2.1,2.6-4.2,5.1-6.2,7.5c-4.1,4.9-7.9,9.4-11.4,13.7c-7.1,8.4-13.1,15.4-17.4,20.3
			c-2.1,2.4-3.8,4.3-5,5.6c-1.1,1.3-1.8,2-1.8,2s0.5-0.7,1.5-2.2c1-1.4,2.5-3.5,4.4-6.1c3.8-5.2,9.3-12.6,15.9-21.4
			c3.4-4.4,7-9.1,10.8-14.1c1.9-2.5,3.9-5.1,6-7.7c1-1.3,2.1-2.6,3.1-4c1.2-1.4,2.5-2.8,3.9-3.9c5.8-4.7,13.6-7.1,21.4-6.4
			c1,0,1.9,0.3,2.9,0.4c1,0.2,1.9,0.4,2.9,0.7c0.9,0.3,2,0.7,2.8,1.1l1.2,0.6l1.3,0.7c3.2,1.7,6.5,3.4,9.8,5.1
			c6.5,3.4,13,6.9,19.4,10.3c6.4,3.4,12.7,6.8,18.8,10c12.2,6.5,23.5,12.7,33.1,18c9.6,5.4,17.7,9.8,23.3,13
			C203,141.2,206.2,143,206.2,143z"/>
	</g>
	<g>
		<path class="st0" d="M206.2,136.8c0,0-3.4-1.9-9.3-5.2c-5.9-3.4-14.4-8.2-24.5-14c-5-2.9-10.5-6.1-16.3-9.4
			c-5.8-3.4-11.8-6.9-18.1-10.6s-12.8-7.6-19.3-11.5c-6.6-3.9-13.3-7.9-19.9-11.9c-3.3-2-6.6-4-9.9-5.9l-1.3-0.7
			c-0.4-0.2-0.8-0.3-1.2-0.5c-0.7-0.3-1.6-0.6-2.4-0.8c-1.7-0.4-3.4-0.7-5.2-0.7c-7-0.2-13.8,3.3-17.7,8.7
			C56.9,80.2,52.8,86,49,91.4c-3.9,5.4-7.6,10.6-11,15.3c-3.4,4.7-6.6,9-9.4,12.8s-5.3,7.1-7.3,9.8c-2.1,2.7-3.7,4.8-4.8,6.3
			c-1.1,1.5-1.7,2.2-1.7,2.2s0.5-0.8,1.5-2.4c1-1.5,2.4-3.8,4.2-6.7c1.8-2.9,4-6.4,6.6-10.4s5.5-8.5,8.7-13.4s6.7-10.1,10.4-15.7
			c3.7-5.6,7.7-11.4,11.7-17.5c4.6-6.5,12.7-10.7,21-10.5c2.1,0,4.2,0.3,6.2,0.9c1.9,0.5,4.2,1.5,5.8,2.4l0.3,0.2l0.4,0.2l0.6,0.4
			l1.2,0.8l2.5,1.5l5,3c6.6,4,13.3,8.1,19.8,12.1s12.9,8,19.1,11.8c6.2,3.9,12.2,7.6,17.8,11.1c5.6,3.6,11,6.9,15.9,10
			c9.8,6.3,18,11.5,23.7,15.2C203,134.7,206.2,136.8,206.2,136.8z"/>
	</g>
	<g>
		<path class="st0" d="M206.2,130.6c0,0-3.5-2.2-9.5-6.1s-14.6-9.6-25-16.3c-5.1-3.4-10.7-7.1-16.6-11c-5.9-3.9-12.1-8.1-18.5-12.4
			s-13-8.8-19.7-13.3c-6.7-4.6-13.5-9.2-20.3-13.8l-5.1-3.5L89,52.5L88.4,52l-0.6-0.3l-1.3-0.8c-1.5-0.8-3.3-1.5-5.1-1.8
			c-1.8-0.3-3.6-0.5-5.4-0.3c-3.6,0.3-7.1,1.8-9.8,4.1c-1.4,1.1-2.6,2.4-3.6,3.9c-0.5,0.7-1,1.5-1.5,2.4c-0.5,0.8-1,1.7-1.5,2.5
			C51.5,74.8,43.9,87,37.2,97.4c-3.3,5.2-6.3,10-9.1,14.2c-2.7,4.2-5.1,7.9-7.1,10.9s-3.5,5.4-4.6,7c-1.1,1.6-1.6,2.5-1.6,2.5
			s0.5-0.9,1.4-2.6c0.9-1.7,2.3-4.2,4-7.3c1.8-3.1,3.9-7,6.3-11.3c2.4-4.4,5.3-9.3,8.3-14.6c6.2-11,13.5-23.4,21.4-36.7
			c0.5-0.8,1-1.7,1.5-2.5s1-1.7,1.6-2.6c1.2-1.8,2.7-3.4,4.3-4.8c3.3-2.8,7.6-4.6,12-5.1c2.2-0.2,4.5-0.1,6.7,0.3
			c2.2,0.5,4.3,1.3,6.4,2.4L90,48l0.7,0.5l0.6,0.4l2.5,1.8l5.1,3.5c6.8,4.7,13.5,9.4,20.1,14s13.1,9.2,19.5,13.6
			c6.3,4.5,12.4,8.8,18.1,12.9c5.8,4.1,11.2,8,16.2,11.6c10,7.2,18.3,13.3,24.1,17.5C202.9,128.2,206.2,130.6,206.2,130.6z"/>
	</g>
	<g>
		<path class="st0" d="M206.2,124.4c0,0-3.5-2.6-9.7-7c-6.1-4.5-14.9-11-25.4-18.7c-5.2-3.9-10.9-8.1-16.9-12.6s-12.3-9.2-18.8-14.1
			s-13.2-10-20-15.2S101.7,46.3,94.8,41l-5.2-4l-1.3-1l-0.6-0.5L87,35.1c-0.4-0.3-0.9-0.6-1.3-0.9l-1.2-0.7
			c-1.7-0.8-3.6-1.4-5.5-1.7c-1.9-0.2-3.8-0.1-5.6,0.4c-3.7,0.9-6.8,3.3-9,6.3c-0.3,0.4-0.5,0.8-0.8,1.2c-0.2,0.4-0.5,0.8-0.7,1.3
			c-0.5,0.9-1,1.8-1.5,2.7c-1,1.8-2,3.6-3,5.4c-4,7.1-7.8,14-11.4,20.6c-3.7,6.5-7.1,12.7-10.3,18.4c-3.2,5.7-6.2,10.9-8.9,15.5
			s-5,8.6-6.9,11.9s-3.4,5.9-4.5,7.6c-1,1.8-1.6,2.7-1.6,2.7s0.5-1,1.4-2.8s2.2-4.5,3.9-7.9c1.7-3.4,3.8-7.5,6.1-12.3
			s5.1-10.1,8.1-15.9s6.2-12.1,9.7-18.7c3.5-6.6,7.1-13.6,10.9-20.8c0.9-1.8,1.9-3.6,2.9-5.5c0.5-0.9,1-1.8,1.5-2.7
			c0.2-0.4,0.6-1,0.8-1.4c0.3-0.5,0.6-1,0.9-1.4c2.7-3.7,6.7-6.8,11.4-8c2.3-0.6,4.8-0.8,7.2-0.5c2.4,0.3,4.7,1,6.9,2.1l1.6,0.9
			c0.5,0.3,0.9,0.6,1.4,0.9l0.8,0.5l0.6,0.5l1.3,1l5.2,4c6.9,5.4,13.7,10.7,20.5,16c6.7,5.3,13.4,10.5,19.8,15.5
			c6.4,5.1,12.6,10,18.4,14.6c5.8,4.7,11.4,9.1,16.5,13.2c10.1,8.2,18.6,15.1,24.5,19.9C202.9,121.6,206.2,124.4,206.2,124.4z"/>
	</g>
	<g>
		<path class="st0" d="M206.2,118.2c0,0-3.6-2.9-9.9-8c-6.2-5.1-15.1-12.4-25.8-21.2s-23-19.1-36.3-30.2
			c-6.6-5.6-13.4-11.3-20.3-17.2C107,35.8,100,29.9,93,23.9l-5.3-4.5L87,18.8l-0.2-0.1c0,0-0.1-0.1,0,0l-0.1-0.1l-0.3-0.3
			c-0.5-0.3-0.9-0.7-1.4-1l-1.3-0.8c-0.4-0.3-0.9-0.4-1.4-0.7c-3.7-1.7-8-1.8-11.5,0c-1.8,0.8-3.3,2.2-4.6,3.7
			c-0.3,0.4-0.6,0.8-0.9,1.2c-0.3,0.4-0.6,0.8-0.8,1.3l-0.7,1.3l-0.7,1.5c-2,4-3.9,7.9-5.8,11.8c-3.9,7.7-7.5,15.2-11.1,22.3
			c-3.6,7.1-7,13.7-10.1,19.9c-3.2,6.2-6,11.8-8.6,16.8c-2.6,5-4.9,9.3-6.7,12.9c-1.9,3.6-3.4,6.4-4.4,8.3s-1.6,2.9-1.6,2.9
			s0.5-1.1,1.3-3c0.9-2,2.2-4.9,3.8-8.5c1.7-3.7,3.7-8.1,6-13.2s5-10.9,7.9-17.1c2.9-6.3,6.1-13,9.4-20.2s7-14.7,10.7-22.5
			c1.9-3.9,3.8-7.9,5.7-11.9l0.7-1.5l0.9-1.6c0.3-0.5,0.7-1,1-1.5s0.7-1,1.1-1.5c1.6-1.9,3.6-3.6,5.9-4.7c2.3-1.1,4.9-1.8,7.5-1.8
			s5.2,0.6,7.5,1.6c0.6,0.3,1.2,0.5,1.7,0.9l1.7,1.1c0.5,0.4,0.9,0.7,1.4,1.1l0.3,0.3l0.2,0.2l0.2,0.1l0.7,0.6l5.2,4.5
			c7,6,14,12,20.8,17.9s13.6,11.8,20.1,17.5c13,11.4,25.1,22,35.4,31.2s18.9,16.9,24.9,22.3C202.8,115.1,206.2,118.2,206.2,118.2z"
			/>
	</g>
</g>
<g class="st1">
	<path class="st0" d="M332.7,30.5v40.7h-8v-33h-14.4v33h-8V30.5H332.7z"/>
	<path class="st0" d="M355.7,72c-4.3,0-8-1.5-10.9-4.4s-4.4-6.6-4.4-10.9c0-4.3,1.5-7.9,4.4-10.9s6.6-4.5,10.9-4.5s8,1.5,10.9,4.5
		c3,3,4.5,6.6,4.5,10.9c0,4.3-1.5,8-4.5,10.9C363.7,70.5,360,72,355.7,72z M355.7,64.7c2.3,0,4.1-0.8,5.6-2.3
		c1.5-1.5,2.3-3.4,2.3-5.8s-0.8-4.2-2.3-5.8c-1.5-1.5-3.4-2.3-5.6-2.3s-4.1,0.8-5.6,2.3c-1.5,1.5-2.2,3.4-2.2,5.8s0.8,4.2,2.2,5.8
		C351.6,63.9,353.4,64.7,355.7,64.7z"/>
	<path class="st0" d="M403.4,64.1h3.8V79h-7.3v-7.8h-18V79h-7.3V64.1h3.5c1.7-2.5,2.5-5.9,2.5-10.3V42.1h22.8V64.1z M396.1,64.1
		V48.9h-8.1v5c0,4.1-0.6,7.6-1.8,10.3H396.1z"/>
	<path class="st0" d="M415.5,67.6c-2.8-3-4.2-6.7-4.2-11.2c0-4.9,0.8-8.8,2.2-11.5c1.5-2.7,4.4-5.2,8.9-7.4c0.6-0.3,1.6-0.8,2.8-1.3
		l2.4-1.2c0.5-0.2,1.1-0.6,1.9-1c2.1-1.3,2.7-2.3,3.7-4.6l6.2,3.5c-0.5,2.4-1.6,4.2-3.4,5.5c-1.7,1.3-4.4,2.6-7.9,4
		c-4.9,1.9-6.9,3.7-7.9,6.4c2.2-2.2,5.1-3.3,8.7-3.3c3.2,0,6.1,1.2,8.6,3.5c2.5,2.3,3.8,5.4,3.8,9.3c0,4-1.3,7.3-4.1,9.8
		c-2.7,2.6-6.2,3.8-10.6,3.8C422,72,418.3,70.5,415.5,67.6z M421.4,53.3c-1.5,1.2-2.2,2.8-2.2,4.8s0.7,3.7,2.1,5.1
		c1.5,1.3,3.2,2,5.3,2c2.1,0,3.8-0.6,5.2-1.9s2-2.9,2-4.9c0-4-3-6.9-7.3-6.9C424.6,51.5,422.9,52.1,421.4,53.3z"/>
	<path class="st0" d="M461.6,72c-4.3,0-8-1.5-10.9-4.4s-4.4-6.6-4.4-10.9c0-4.3,1.5-7.9,4.4-10.9s6.6-4.5,10.9-4.5s8,1.5,10.9,4.5
		c3,3,4.5,6.6,4.5,10.9c0,4.3-1.5,8-4.5,10.9C469.6,70.5,465.9,72,461.6,72z M461.6,64.7c2.3,0,4.1-0.8,5.6-2.3
		c1.5-1.5,2.3-3.4,2.3-5.8s-0.8-4.2-2.3-5.8s-3.4-2.3-5.6-2.3c-2.3,0-4.1,0.8-5.6,2.3c-1.5,1.5-2.2,3.4-2.2,5.8s0.8,4.2,2.2,5.8
		C457.5,63.9,459.3,64.7,461.6,64.7z"/>
	<path class="st0" d="M511.2,45.8c2.8,3,4.2,6.6,4.2,10.9c0,4.3-1.4,8-4.2,10.9c-2.7,3-6.1,4.4-10,4.4c-4.1,0-7.2-1.4-9.4-4.2v15.1
		h-7.5V42.1h7.5v3.4c2.2-2.8,5.3-4.2,9.4-4.2C505.1,41.3,508.5,42.8,511.2,45.8z M499.8,64.8c2.3,0,4.2-0.8,5.8-2.3
		c1.6-1.6,2.3-3.5,2.3-5.9c0-2.4-0.8-4.4-2.3-5.9c-1.5-1.6-3.4-2.3-5.8-2.3c-2.3,0-4.2,0.8-5.8,2.3c-1.5,1.5-2.3,3.5-2.3,5.9
		c0,2.4,0.8,4.4,2.3,5.9C495.6,64.1,497.5,64.8,499.8,64.8z"/>
	<path class="st0" d="M560.2,42.1h5.6v29.1h-7.3V54.7l-13.7,16.5h-5.6V42.1h7.3v16.5L560.2,42.1z"/>
	<path class="st0" d="M618,45.8c2.8,3,4.2,6.6,4.2,10.9c0,4.3-1.4,8-4.2,10.9c-2.7,3-6.1,4.4-10,4.4c-4.1,0-7.2-1.4-9.4-4.2v15.1
		h-7.5V42.1h7.5v3.4c2.2-2.8,5.3-4.2,9.4-4.2C611.9,41.3,615.3,42.8,618,45.8z M606.6,64.8c2.3,0,4.2-0.8,5.8-2.3
		c1.6-1.6,2.3-3.5,2.3-5.9c0-2.4-0.8-4.4-2.3-5.9c-1.5-1.6-3.4-2.3-5.8-2.3s-4.2,0.8-5.8,2.3c-1.5,1.5-2.3,3.5-2.3,5.9
		c0,2.4,0.8,4.4,2.3,5.9C602.4,64.1,604.3,64.8,606.6,64.8z"/>
	<path class="st0" d="M635.8,59.7c1,3.7,3.7,5.5,8.2,5.5c2.8,0,5.1-1,6.5-2.9l6,3.5c-2.8,4.1-7.1,6.2-12.7,6.2
		c-4.8,0-8.7-1.5-11.6-4.4c-2.9-2.9-4.4-6.6-4.4-11c0-4.4,1.5-8,4.3-10.9c2.8-3,6.6-4.4,11-4.4c4.2,0,7.8,1.5,10.5,4.4
		c2.8,3,4.2,6.6,4.2,10.9c0,1-0.1,2-0.3,3.1H635.8z M650.5,53.9c-0.9-4-3.8-5.9-7.2-5.9c-4,0-6.7,2.2-7.6,5.9H650.5z"/>
	<path class="st0" d="M695.5,42.1v29.1h-7.3v-17l-7.4,11.6h-0.9l-7.4-11.7v17.1h-7.2V42.1h7.4l7.7,12.2l7.7-12.2H695.5z"/>
	<path class="st0" d="M718.1,72c-4.3,0-8-1.5-10.9-4.4c-3-3-4.4-6.6-4.4-10.9c0-4.3,1.5-7.9,4.4-10.9c3-3,6.6-4.5,10.9-4.5
		c4.3,0,8,1.5,10.9,4.5s4.5,6.6,4.5,10.9c0,4.3-1.5,8-4.5,10.9S722.4,72,718.1,72z M718.1,64.7c2.3,0,4.1-0.8,5.6-2.3
		c1.5-1.5,2.3-3.4,2.3-5.8s-0.8-4.2-2.3-5.8c-1.5-1.5-3.4-2.3-5.6-2.3c-2.3,0-4.1,0.8-5.6,2.3c-1.5,1.5-2.2,3.4-2.2,5.8
		s0.8,4.2,2.2,5.8C714,63.9,715.9,64.7,718.1,64.7z"/>
	<path class="st0" d="M759.9,42.1h7.5v29.1h-7.5v-11h-11.6v11h-7.5V42.1h7.5v11h11.6V42.1z"/>
	<path class="st0" d="M799.1,42.1v7.2h-9.1v21.9h-7.5V49.3h-9.2v-7.2H799.1z"/>
</g>
<g class="st1">
	<path class="st0" d="M321,111.9h7.5V141H321v-11h-11.6v11h-7.5v-29.1h7.5v11H321V111.9z"/>
	<path class="st0" d="M351.2,141.8c-4.3,0-8-1.5-10.9-4.4s-4.4-6.6-4.4-10.9c0-4.3,1.5-7.9,4.4-10.9s6.6-4.5,10.9-4.5
		s8,1.5,10.9,4.5c3,3,4.5,6.6,4.5,10.9c0,4.3-1.5,8-4.5,10.9C359.1,140.3,355.5,141.8,351.2,141.8z M351.2,134.5
		c2.3,0,4.1-0.8,5.6-2.3c1.5-1.5,2.3-3.4,2.3-5.8s-0.8-4.2-2.3-5.8c-1.5-1.5-3.4-2.3-5.6-2.3s-4.1,0.8-5.6,2.3
		c-1.5,1.5-2.2,3.4-2.2,5.8s0.8,4.2,2.2,5.8C347.1,133.7,348.9,134.5,351.2,134.5z"/>
	<path class="st0" d="M398.9,132.7c0,4.9-3.5,8.3-9.7,8.3h-15.3v-29.1H388c6.1,0,9.7,3.3,9.7,8.2c0,2.6-0.9,4.5-2.8,6
		C397.5,127.4,398.9,129.6,398.9,132.7z M380.9,118.1v5.2h6.4c2.2,0,3.2-0.9,3.2-2.6c0-1.7-1-2.6-3.2-2.6H380.9z M388.3,134.6
		c2.2,0,3.3-0.9,3.3-2.8c0-1.6-1.2-2.6-3.3-2.6h-7.4v5.4H388.3z"/>
	<path class="st0" d="M419.4,141.8c-4.3,0-8-1.5-10.9-4.4s-4.4-6.6-4.4-10.9c0-4.3,1.5-7.9,4.4-10.9s6.6-4.5,10.9-4.5
		s8,1.5,10.9,4.5c3,3,4.5,6.6,4.5,10.9c0,4.3-1.5,8-4.5,10.9C427.4,140.3,423.7,141.8,419.4,141.8z M419.4,134.5
		c2.3,0,4.1-0.8,5.6-2.3c1.5-1.5,2.3-3.4,2.3-5.8s-0.8-4.2-2.3-5.8c-1.5-1.5-3.4-2.3-5.6-2.3s-4.1,0.8-5.6,2.3
		c-1.5,1.5-2.2,3.4-2.2,5.8s0.8,4.2,2.2,5.8C415.3,133.7,417.1,134.5,419.4,134.5z"/>
	<path class="st0" d="M444.9,137.4c-2.9-3-4.4-6.6-4.4-10.9s1.5-8,4.4-10.9c3-3,6.6-4.4,11-4.4c5.6,0,10.6,2.9,13,7.5l-6.5,3.8
		c-1.2-2.4-3.7-3.9-6.6-3.9c-4.5,0-7.8,3.3-7.8,8c0,2.3,0.8,4.2,2.2,5.7c1.5,1.5,3.3,2.2,5.6,2.2c3,0,5.5-1.5,6.7-3.8l6.5,3.7
		c-2.6,4.6-7.5,7.6-13.1,7.6C451.5,141.8,447.9,140.3,444.9,137.4z"/>
	<path class="st0" d="M497.7,111.9v7.2h-9.1V141h-7.5v-21.9h-9.2v-7.2H497.7z"/>
	<path class="st0" d="M530.6,115.6c2.8,3,4.2,6.6,4.2,10.9c0,4.3-1.4,8-4.2,10.9c-2.7,3-6.1,4.4-10,4.4c-4.1,0-7.2-1.4-9.4-4.2v15.1
		h-7.5v-40.7h7.5v3.4c2.2-2.8,5.3-4.2,9.4-4.2C524.5,111.1,527.9,112.6,530.6,115.6z M519.2,134.6c2.3,0,4.2-0.8,5.8-2.3
		c1.6-1.6,2.3-3.5,2.3-5.9c0-2.4-0.8-4.4-2.3-5.9c-1.5-1.6-3.4-2.3-5.8-2.3c-2.3,0-4.2,0.8-5.8,2.3c-1.5,1.5-2.3,3.5-2.3,5.9
		c0,2.4,0.8,4.4,2.3,5.9C515,133.9,516.9,134.6,519.2,134.6z"/>
	<path class="st0" d="M555.9,141.8c-4.3,0-8-1.5-10.9-4.4s-4.4-6.6-4.4-10.9c0-4.3,1.5-7.9,4.4-10.9s6.6-4.5,10.9-4.5
		s8,1.5,10.9,4.5c3,3,4.5,6.6,4.5,10.9c0,4.3-1.5,8-4.5,10.9C563.9,140.3,560.2,141.8,555.9,141.8z M555.9,134.5
		c2.3,0,4.1-0.8,5.6-2.3c1.5-1.5,2.3-3.4,2.3-5.8s-0.8-4.2-2.3-5.8c-1.5-1.5-3.4-2.3-5.6-2.3s-4.1,0.8-5.6,2.3
		c-1.5,1.5-2.2,3.4-2.2,5.8s0.8,4.2,2.2,5.8C551.8,133.7,553.6,134.5,555.9,134.5z"/>
	<path class="st0" d="M584.9,129.5c1,3.7,3.7,5.5,8.2,5.5c2.8,0,5.1-1,6.5-2.9l6,3.5c-2.8,4.1-7.1,6.2-12.7,6.2
		c-4.8,0-8.7-1.5-11.6-4.4c-2.9-2.9-4.4-6.6-4.4-11c0-4.4,1.5-8,4.3-10.9c2.8-3,6.6-4.4,11-4.4c4.2,0,7.8,1.5,10.5,4.4
		c2.8,3,4.2,6.6,4.2,10.9c0,1-0.1,2-0.3,3.1H584.9z M599.6,123.7c-0.9-4-3.8-5.9-7.2-5.9c-4,0-6.7,2.2-7.6,5.9H599.6z"/>
	<path class="st0" d="M641.2,141h-8.7l-10.6-13.2V141h-7.5v-29.1h7.5v12.8l10-12.8h9l-11.7,14.4L641.2,141z"/>
	<path class="st0" d="M688.4,132.7c0,4.9-3.5,8.3-9.7,8.3h-15.3v-29.1h14.1c6.1,0,9.7,3.3,9.7,8.2c0,2.6-0.9,4.5-2.8,6
		C687,127.4,688.4,129.6,688.4,132.7z M670.4,118.1v5.2h6.4c2.2,0,3.2-0.9,3.2-2.6c0-1.7-1-2.6-3.2-2.6H670.4z M677.8,134.6
		c2.2,0,3.3-0.9,3.3-2.8c0-1.6-1.2-2.6-3.3-2.6h-7.4v5.4H677.8z"/>
	<path class="st0" d="M751.8,100.3V141h-8v-26.4l-11.5,18.9h-0.9l-11.5-18.8V141h-8v-40.7h8.3l11.7,19.2l11.6-19.2H751.8z"/>
	<path class="st0" d="M774.8,141.8c-4.3,0-8-1.5-10.9-4.4s-4.4-6.6-4.4-10.9c0-4.3,1.5-7.9,4.4-10.9s6.6-4.5,10.9-4.5
		c4.3,0,8,1.5,10.9,4.5s4.5,6.6,4.5,10.9c0,4.3-1.5,8-4.5,10.9S779.1,141.8,774.8,141.8z M774.8,134.5c2.3,0,4.1-0.8,5.6-2.3
		c1.5-1.5,2.3-3.4,2.3-5.8s-0.8-4.2-2.3-5.8c-1.5-1.5-3.4-2.3-5.6-2.3c-2.3,0-4.1,0.8-5.6,2.3c-1.5,1.5-2.2,3.4-2.2,5.8
		s0.8,4.2,2.2,5.8C770.6,133.7,772.5,134.5,774.8,134.5z"/>
	<path class="st0" d="M800.3,137.4c-2.9-3-4.4-6.6-4.4-10.9s1.5-8,4.4-10.9c3-3,6.6-4.4,11-4.4c5.6,0,10.6,2.9,13,7.5l-6.5,3.8
		c-1.2-2.4-3.7-3.9-6.6-3.9c-4.5,0-7.8,3.3-7.8,8c0,2.3,0.8,4.2,2.2,5.7c1.5,1.5,3.3,2.2,5.6,2.2c3,0,5.5-1.5,6.7-3.8l6.5,3.7
		c-2.6,4.6-7.5,7.6-13.1,7.6C806.9,141.8,803.3,140.3,800.3,137.4z"/>
	<path class="st0" d="M857.4,141h-8.7l-10.6-13.2V141h-7.5v-29.1h7.5v12.8l10-12.8h9l-11.7,14.4L857.4,141z"/>
	<path class="st0" d="M888.1,132.7c0,4.9-3.5,8.3-9.7,8.3h-15.3v-29.1h14.1c6.1,0,9.7,3.3,9.7,8.2c0,2.6-0.9,4.5-2.8,6
		C886.8,127.4,888.1,129.6,888.1,132.7z M870.1,118.1v5.2h6.4c2.2,0,3.2-0.9,3.2-2.6c0-1.7-1-2.6-3.2-2.6H870.1z M877.5,134.6
		c2.2,0,3.3-0.9,3.3-2.8c0-1.6-1.2-2.6-3.3-2.6h-7.4v5.4H877.5z"/>
	<path class="st0" d="M901.1,129.5c1,3.7,3.7,5.5,8.2,5.5c2.8,0,5.1-1,6.5-2.9l6,3.5c-2.8,4.1-7.1,6.2-12.7,6.2
		c-4.8,0-8.7-1.5-11.6-4.4c-2.9-2.9-4.4-6.6-4.4-11c0-4.4,1.5-8,4.3-10.9c2.8-3,6.6-4.4,11-4.4c4.2,0,7.8,1.5,10.5,4.4
		c2.8,3,4.2,6.6,4.2,10.9c0,1-0.1,2-0.3,3.1H901.1z M915.8,123.7c-0.9-4-3.8-5.9-7.2-5.9c-4,0-6.7,2.2-7.6,5.9H915.8z"/>
</g>
<g class="st1">
	<path class="st0" d="M301.3,186.2l4.4-16.2h6.1l-2.3,16.2H301.3z M312.1,186.2l4.4-16.2h6.1l-2.3,16.2H312.1z"/>
	<path class="st0" d="M357.4,181.7v29.1h-7.5v-22h-11.6v22h-7.5v-29.1H357.4z"/>
	<path class="st0" d="M380.1,211.6c-4.3,0-8-1.5-10.9-4.4s-4.4-6.6-4.4-10.9c0-4.3,1.5-7.9,4.4-10.9s6.6-4.5,10.9-4.5
		s8,1.5,10.9,4.5c3,3,4.5,6.6,4.5,10.9c0,4.3-1.5,8-4.5,10.9C388,210.1,384.4,211.6,380.1,211.6z M380.1,204.3
		c2.3,0,4.1-0.8,5.6-2.3c1.5-1.5,2.3-3.4,2.3-5.8s-0.8-4.2-2.3-5.8c-1.5-1.5-3.4-2.3-5.6-2.3s-4.1,0.8-5.6,2.3
		c-1.5,1.5-2.2,3.4-2.2,5.8s0.8,4.2,2.2,5.8C376,203.5,377.8,204.3,380.1,204.3z"/>
	<path class="st0" d="M427.8,203.7h3.8v14.8h-7.3v-7.8h-18v7.8h-7.3v-14.8h3.5c1.7-2.5,2.5-5.9,2.5-10.3v-11.7h22.8V203.7z
		 M420.4,203.7v-15.3h-8.1v5c0,4.1-0.6,7.6-1.8,10.3H420.4z"/>
	<path class="st0" d="M481.7,210.8h-8.7l-10.6-13.2v13.2h-7.5v-29.1h7.5v12.8l10-12.8h9l-11.7,14.4L481.7,210.8z"/>
	<path class="st0" d="M512.3,181.7v29.1h-7.5v-21.9h-8v9.7c0,9-4.1,13-12.3,12.2v-7c3.1,0.8,4.8-1,4.8-5.5v-16.5H512.3z"/>
	<path class="st0" d="M558.5,185.4c3,3,4.5,6.6,4.5,10.9c0,4.3-1.5,8-4.5,10.9s-6.6,4.4-10.9,4.4c-3.7,0-6.8-1.1-9.5-3.3
		c-2.7-2.2-4.5-5.1-5.2-8.5h-4.2v11h-7.5v-29.1h7.5v11h4.2c0.8-3.4,2.5-6.3,5.2-8.5s5.9-3.3,9.5-3.3
		C551.8,180.9,555.5,182.4,558.5,185.4z M547.5,204.3c2.3,0,4.1-0.8,5.6-2.3c1.5-1.5,2.3-3.4,2.3-5.8s-0.8-4.2-2.3-5.8
		c-1.5-1.5-3.4-2.3-5.6-2.3c-2.3,0-4.1,0.8-5.6,2.3c-1.5,1.5-2.2,3.4-2.2,5.8s0.8,4.2,2.2,5.8C543.4,203.5,545.3,204.3,547.5,204.3z
		"/>
	<path class="st0" d="M586.7,181.7h7.5v29.1h-7.5v-9.2c-2.2,0.7-4.5,1-6.9,1c-7,0-11.6-3.7-11.6-10.5v-10.4h7.5v9.5
		c0,2.9,1.8,4.4,5.4,4.4c2.1,0,4-0.3,5.6-1.1V181.7z"/>
	<path class="st0" d="M612.9,170l-4.4,16.2h-6.1l2.3-16.2H612.9z M623.7,170l-4.4,16.2h-6.1l2.3-16.2H623.7z"/>
</g>
<g>
	<rect x="251.5" y="11.3" class="st0" width="1" height="216"/>
</g>
</svg>
