<svg width="200" height="155" fill="none" xmlns="http://www.w3.org/2000/svg"><g clip-path="url(#a)"><path d="M102.3 76.4c2-3.7 3-7.8 3-12 0-5.1-1.2-8.9-3.6-11.2-2.1-2.2-5.1-3-9.1-3.3-.8-.1-1.7-.2-2.5-.1l-10.3.3v54.199h7.4v-22c1.8 0 3.6-.2 5.4-.4l5 22.4h7.8l-6.3-24.5c1.3-1 2.4-2.1 3.2-3.4Zm-7.1-2.7c-.8.7-1.7 1.1-2.7 1.4-1.7.5-3.6.6-5.4.5V56.4h3.3c.7 0 1.4.1 2.1.3 1.1.2 2 .7 2.9 1.4 1.5 1.4 2.4 3.8 2.4 7.2-.1 3.2-1 6.8-2.6 8.4Zm-39.8 30.399h20.2v-6.8H62.8V82.1h10.7v-6.9H62.8V57.8l12.8-.8v-6.8l-20.2 1.3v52.6Zm141.7-2.6c.7 0 1.2-.5 1.2-1.2 0-.4-.3-.8-.6-.9-.3-.1-.6-.2-.9-.1h-1.5v4.1h.7v-1.7h.4c.3 0 .4 0 .5.3.1.3.4.4.6.8l.4.7h.8l-.5-.8c-.3-.5-.7-.9-1.1-1.2Zm-.4-.5h-.9v-1.2h.9c.6 0 .8.3.8.6s-.3.7-.8.6Zm-153.5-25.8h-7.6V54l-7.5 1.1v49.1h7.5v-22h7.6v22h7.6v-52l-7.6.8v22.2ZM0 67.3l8.5-1.7v38.5h7.4v-39.9l8.5-1.5v-7L0 60.5v6.8Zm123.6 4.4-6.5-21.3-7.3-.4v54.2h7.3v-33.3l5.6 18.5h2l5.8-18.5v33.3h7.6v-52.6l-7-.5-7.5 20.6Zm30.9-18.9c-6.8.1-12.3 5.7-12.3 12.5v26.6c0 6.8 5.5 12.3 12.3 12.3 6.8 0 12.3-5.5 12.3-12.3V65.3c0-6.8-5.5-12.4-12.3-12.5Zm4.7 39.9c0 2.6-2.1 4.6-4.6 4.6-2.6 0-4.6-2.1-4.6-4.6V64.6c0-2.6 2-4.7 4.6-4.8 2.6.1 4.7 2.2 4.7 4.8l-.1 28.1Zm18-25.1c0-1.8.2-3 1-3.7.6-.6 1.5-.8 2.4-.6.8 0 1.6.3 2.2.9.8.8 1.2 1.9 1.2 3v3.9l6.3.4v-4.6c0-2.9-.5-4.7-2-6.1-2-1.9-4.7-3-7.4-3.1-3.6-.4-6.3.4-8 1.9-1.7 1.6-2.7 4.4-2.7 8.4 0 6.3 3.3 10.2 7.4 14.6 6.5 6.7 6.5 7.8 6.5 11.5.1 1.4-.2 2.7-1.1 3.8-.7.6-1.7 1-2.6.9-.8 0-1.6-.3-2.2-.9-.9-1.1-1.4-2.4-1.3-3.8v-4.2l-6.8-.1v5.9c-.1 2.2.7 4.4 2.2 6 2.2 1.9 5 2.8 7.8 2.6 2.8.2 5.7-.7 7.8-2.5 1.8-2 2.7-4.8 2.7-8.8 0-5.6-1.2-7.8-7.3-14.5-5.5-6.1-6.1-7.9-6.1-10.9Zm19.5 29.9c-2.1 0-3.8 1.7-3.8 3.8 0 2.1 1.7 3.8 3.8 3.8 2.1 0 3.8-1.7 3.8-3.8-.1-2.1-1.7-3.8-3.8-3.8Zm0 6.9c-1.7-.1-3-1.6-2.9-3.3.1-1.6 1.4-2.8 2.9-2.9 1.7-.1 3.2 1.2 3.3 2.9.1 1.7-1.2 3.2-2.9 3.3h-.4Z" fill="url(#b)"/><path d="M46.1 35.501h3.4v.3c.1.9-.2 1.8-.7 2.6-.7 1-1.8 1.5-3 1.5-1.1.1-2.3-.4-3-1.2-.8-.8-1.3-1.9-1.3-3s.4-2.2 1.2-3c.8-.8 1.9-1.3 3-1.2.9 0 1.8.3 2.5.8.3.2.6.5.9.9l-.9.9c-.5-.8-1.4-1.3-2.4-1.3-1.6-.1-3 1.2-3 2.9v.2c-.1 1.6 1.2 3 2.9 3h.1c1.2 0 2.3-.9 2.4-2.1h-2v-1.3h-.1Z" fill="url(#c)"/><path d="M65.3 32.7H62v2h3.2v1.2H62v2.8h3.3v1.2h-4.6v-8.2h4.6v1Z" fill="url(#d)"/><path d="M76.7 39.7V31l5.9 6.2v-5.7h1.2v8.7L77.9 34v5.7h-1.2Z" fill="url(#e)"/><path d="M96.9 31.6v4.9c0 .5.1 1 .3 1.4.5.8 1.6 1.1 2.4.6.3-.2.5-.4.6-.6.2-.4.3-.9.3-1.4v-4.9h1.2v5.3c0 .8-.2 1.5-.8 2.1-1.2 1.3-3.2 1.3-4.5.1l-.1-.1c-.5-.6-.8-1.3-.8-2.1v-5.3h1.4Z" fill="url(#f)"/><path d="M114.7 31.6v8.2h-1.2v-8.2h1.2Z" fill="url(#g)"/><path d="M126.5 39.7V31l5.9 6.2v-5.7h1.2v8.7l-5.9-6.2v5.7h-1.2Z" fill="url(#h)"/><path d="M150 32.7h-3.3v2h3.2v1.2h-3.2v2.8h3.3v1.2h-4.6v-8.2h4.6v1Z" fill="url(#i)"/><path d="M59.3 115.2c.7-.1 1.4.1 2 .4.6.4 1 1.1.9 1.8 0 .6-.2 1.2-.7 1.5.9.2 1.5 1 1.4 1.9 0 .7-.3 1.4-.8 1.9-.6.5-1.4.7-2.2.6H58v-8.2h1.3v.1Zm0 3.5h.4c.6.1 1.2-.3 1.3-1v-.2c0-1-.8-1.1-1.3-1.1h-.4v2.3Zm0 3.5h.7c1.4 0 1.6-.7 1.6-1.2s-.3-1.2-1.6-1.2h-.8l.1 2.4Z" fill="url(#j)"/><path d="M75.7 115.199c.7-.1 1.5.1 2.1.5.6.4 1 1.2 1 1.9 0 1.1-.7 2.1-1.8 2.3l2.5 3.5H78l-2.3-3.3h-.2v3.3h-1.2v-8.2h1.4Zm-.2 3.7h.4c.3 0 1.7 0 1.7-1.3s-1.1-1.2-1.7-1.2h-.4v2.5Z" fill="url(#k)"/><path d="M95.4 121.399h-3.5l-.9 2h-1.4l4.1-8.7 3.9 8.7h-1.3l-.9-2Zm-.5-1.2-1.2-2.8-1.3 2.8h2.5Z" fill="url(#l)"/><path d="M108.5 123.3v-8.7l5.9 6.3v-5.7h1.2v8.7l-5.9-6.2v5.7h-1.2v-.1Z" fill="url(#m)"/><path d="M129.1 115.201c1.1-.1 2.2.2 3 .8 1 .8 1.6 2 1.5 3.3 0 1.3-.6 2.599-1.6 3.299-.9.6-2 .901-3 .801h-1.6v-8.2h1.7Zm-.4 7h.5c.8.1 1.5-.201 2.2-.601.7-.5 1.2-1.399 1.2-2.299 0-.9-.4-1.8-1.1-2.3-.7-.4-1.5-.6-2.3-.6h-.5v5.8Z" fill="url(#n)"/></g><defs><linearGradient id="i" x1="-2.047" y1="35.682" x2="197.876" y2="35.682" gradientUnits="userSpaceOnUse"><stop stop-color="#1C8AE2"/><stop offset=".486" stop-color="#8B00B3"/><stop offset="1" stop-color="#6900B5"/></linearGradient><linearGradient id="b" x1="-2.052" y1="77.37" x2="197.877" y2="77.37" gradientUnits="userSpaceOnUse"><stop stop-color="#1C8AE2"/><stop offset=".486" stop-color="#8B00B3"/><stop offset="1" stop-color="#6900B5"/></linearGradient><linearGradient id="d" x1="-2.053" y1="35.682" x2="197.88" y2="35.682" gradientUnits="userSpaceOnUse"><stop stop-color="#1C8AE2"/><stop offset=".486" stop-color="#8B00B3"/><stop offset="1" stop-color="#6900B5"/></linearGradient><linearGradient id="e" x1="-2.053" y1="35.629" x2="197.879" y2="35.629" gradientUnits="userSpaceOnUse"><stop stop-color="#1C8AE2"/><stop offset=".486" stop-color="#8B00B3"/><stop offset="1" stop-color="#6900B5"/></linearGradient><linearGradient id="f" x1="-2.051" y1="35.738" x2="197.876" y2="35.738" gradientUnits="userSpaceOnUse"><stop stop-color="#1C8AE2"/><stop offset=".486" stop-color="#8B00B3"/><stop offset="1" stop-color="#6900B5"/></linearGradient><linearGradient id="g" x1="-2.047" y1="35.652" x2="197.873" y2="35.652" gradientUnits="userSpaceOnUse"><stop stop-color="#1C8AE2"/><stop offset=".486" stop-color="#8B00B3"/><stop offset="1" stop-color="#6900B5"/></linearGradient><linearGradient id="h" x1="-2.054" y1="35.629" x2="197.878" y2="35.629" gradientUnits="userSpaceOnUse"><stop stop-color="#1C8AE2"/><stop offset=".486" stop-color="#8B00B3"/><stop offset="1" stop-color="#6900B5"/></linearGradient><linearGradient id="c" x1="-2.052" y1="35.633" x2="197.877" y2="35.633" gradientUnits="userSpaceOnUse"><stop stop-color="#1C8AE2"/><stop offset=".486" stop-color="#8B00B3"/><stop offset="1" stop-color="#6900B5"/></linearGradient><linearGradient id="j" x1="-2.054" y1="119.286" x2="197.881" y2="119.286" gradientUnits="userSpaceOnUse"><stop stop-color="#1C8AE2"/><stop offset=".486" stop-color="#8B00B3"/><stop offset="1" stop-color="#6900B5"/></linearGradient><linearGradient id="k" x1="-2.051" y1="119.248" x2="197.876" y2="119.248" gradientUnits="userSpaceOnUse"><stop stop-color="#1C8AE2"/><stop offset=".486" stop-color="#8B00B3"/><stop offset="1" stop-color="#6900B5"/></linearGradient><linearGradient id="l" x1="-2.051" y1="119.011" x2="197.877" y2="119.011" gradientUnits="userSpaceOnUse"><stop stop-color="#1C8AE2"/><stop offset=".486" stop-color="#8B00B3"/><stop offset="1" stop-color="#6900B5"/></linearGradient><linearGradient id="m" x1="-2.053" y1="119.225" x2="197.878" y2="119.225" gradientUnits="userSpaceOnUse"><stop stop-color="#1C8AE2"/><stop offset=".486" stop-color="#8B00B3"/><stop offset="1" stop-color="#6900B5"/></linearGradient><linearGradient id="n" x1="-2.05" y1="119.259" x2="197.877" y2="119.259" gradientUnits="userSpaceOnUse"><stop stop-color="#1C8AE2"/><stop offset=".486" stop-color="#8B00B3"/><stop offset="1" stop-color="#6900B5"/></linearGradient><clipPath id="a"><path fill="#fff" d="M0 0h200v155H0z"/></clipPath></defs></svg>