<svg width="200" height="155" fill="none" xmlns="http://www.w3.org/2000/svg"><g clip-path="url(#a)"><path d="M99.8 20c0 .1 0 .3.1.4.6 1.1 1.1 2.3 1.6 3.5.1.3.4.5.7.5 1.4.2 2.8.4 4.3.6l-.4.4-2.7 2.7c-.2.2-.3.5-.2.8.2 1.3.5 2.7.7 4v.3c-1.3-.7-2.6-1.3-3.9-2-.2-.2-.5-.2-.8 0-1.2.7-2.5 1.3-3.8 2l.4-2.4c.1-.6.2-1.3.3-1.9.1-.3 0-.6-.3-.8-.9-.9-1.8-1.8-2.8-2.7-.1-.1-.2-.2-.4-.3l.1-.1 2.9-.4c.4-.1.8-.1 1.2-.2.4 0 .8-.3.9-.7.7-1.2 1.4-2.5 2.1-3.7Z" fill="url(#b)"/><path d="M100.1 97.9c-17.5 0-31.6-14.1-31.7-31.5 0-17.5 14.1-31.6 31.5-31.7 17.5 0 31.6 14.1 31.7 31.5 0 17.4-14.1 31.6-31.5 31.7Zm0-61.8c-16.6 0-30.2 13.4-30.2 30.1 0 16.6 13.4 30.2 30.1 30.2 16.6 0 30.2-13.4 30.2-30.1 0-16.6-13.5-30.1-30.1-30.2Z" fill="url(#c)"/><path d="M194.6 116.399c1.3-1.2 2-3 1.6-4.7 0-.7-.2-1.3-.4-1.9-.7-1.5-2.3-2.4-3.9-2-.4.1-.6.3-.7.7v7.9h-3.3v-7.7c0-.8-.3-1.1-1.1-1.2h-.7c-.2 0-.4-.2-.4-.4v-.1c0-.3.2-.4.5-.4h.8c2.4 0 4.7-.1 7.1 0 1 0 1.9.2 2.8.5 1.7.5 2.9 2 3.1 3.7.4 2-.3 4-1.9 5.3-.2.1-.4.2-.7.2-.9.1-1.8.1-2.8.1Z" fill="url(#d)"/><path d="M122.8 116.3v-7.6c0-.8-.3-1-1.1-1.1h-.7c-.2 0-.4-.1-.5-.4v-.1c0-.3.2-.4.5-.4h5.6c1.5-.2 3 0 4.4.3 2 .5 3.3 2.5 2.8 4.6-.1.3-.2.5-.3.8-.5 1.2-1.4 2.3-2.5 2.9l.7 1.1-8.9-.1Zm3.4-4.5v2.8c0 .2 0 .4.3.4h1.6c1.1.1 2-.7 2.1-1.7v-.2c.1-1 .1-2 0-3 0-1.3-1-2.4-2.4-2.4h-.4c-1 0-1.3.3-1.3 1.3s.1 1.9.1 2.8Z" fill="url(#e)"/><path d="m30.6 115.2.7 1.1h-9v-7.6c0-.9-.3-1.1-1.2-1.2h-.5c-.3 0-.6 0-.6-.5s.3-.4.6-.4h8.7c.5.1 1 .2 1.5.4 1.9.6 3 2.7 2.4 4.6 0 .1 0 .1-.1.2-.3 1.2-1 2.2-2 3-.1.1-.3.3-.5.4Zm-5-.2h2.3c1.2-.2 1.6-.6 1.9-1.9.2-1.2.2-2.5-.1-3.7-.2-.9-.9-1.5-1.8-1.6-2-.3-2.2.1-2.2 1.8v5.4h-.1Z" fill="url(#f)"/><path d="M144.4 116.401h-3.6c-.1-1.2.1-2.5.5-3.6 1.1-2.8 3.4-4.9 6.3-5.8 2.7-1 5.6-.9 8.2.4 3.2 1.7 5.2 5 5 8.6v.4h-3.6c-.1-.8-.2-1.6-.3-2.3-.3-1.9-1.2-3.6-2.6-4.9-1.7-1.5-4-2-6.1-1.2-1.5.5-2.7 1.7-3.1 3.3-.5 1.4-.7 3-.7 4.5v.6Z" fill="url(#g)"/><path d="M98.6 117.7h3.8c.2.6.4 1.3.6 1.9.8 2.5 2.9 4.3 5.4 4.9 1 .2 2.1.2 3.2 0 .6-.1 1.2-.6 1.3-1.2.3-1.3.3-2.6.1-3.9-.1-.4-.5-.7-.9-.8-.5 0-1 0-1.5-.1-.4 0-.6-.1-.6-.5s.2-.5.6-.5h6.6c.3 0 .5.1.5.5 0 .3-.1.5-.5.5-.7 0-.8.1-.8.8 0 1.5 0 3 .1 4.5 0 .7 0 .9-.7 1-2.6.7-5.3.9-8 .7-3.9-.1-7.3-2.6-8.7-6.2-.2-.5-.3-1.1-.5-1.6Z" fill="url(#h)"/><path d="M10.3 116.399H6.9v-6.9c0-1.4-.3-1.6-1.7-1.6s-2.6.8-3.3 2c-.3.7-.6 1.3-.9 2-.1.3-.3.5-.6.4-.3 0-.4-.3-.4-.6.1-1.8.2-3.5.4-5.3 0-.2.2-.4.4-.5.1 0 .4.2.5.3.1.1.4.3.6.3 1.3 0 2.5.1 3.8.1 3.2 0 6.3 0 9.5-.1.4 0 .8-.2 1-.6.1-.1.3-.2.5-.2.2.1.3.3.3.5 0 1.8-.2 3.7-.2 5.5 0 .3-.1.5-.4.5-.3 0-.5-.1-.5-.4-.1-.6-.3-1.2-.5-1.7-.7-1.8-2.7-2.7-4.5-2.1-.3.1-.5.4-.5.7v1l-.1 6.7Z" fill="url(#i)"/><path d="M140.8 117.699h3.7c.3.9.6 1.8 1 2.7.7 1.8 2.1 3.3 4 3.9 2.4.9 5-.1 6.3-2.2.8-1.3 1.2-2.8 1.3-4.4h3.5c-.2 1.1-.5 2.1-1.1 3-2.1 3.6-6.2 5.6-10.3 5.1-4.3-.4-7.9-3.8-8.4-8.1Z" fill="url(#j)"/><path d="M84.8 116.399h-5.6c-1.1-.6-2-1.4-2.8-2.4-1.5-2-1-4.9 1-6.3 0 0 .1 0 .1-.1 1.4-.9 3-1.4 4.7-1.2 1.1.1 2.2.3 3.3.6.7.2.8.5.8 1.1v3.5c0 .1-.2.4-.4.5-.2.1-.4 0-.5-.3l-1.2-2.7c-.5-.9-1.3-1.5-2.2-1.6-1-.3-2.2 0-2.8.9-.7 1-.7 2.3 0 3.3.4.6.9 1.2 1.5 1.6 1 .8 2.1 1.4 3.1 2.1l1 1Z" fill="url(#k)"/><path d="M102.1 116.399h-3.5c-.1-.8 0-1.7.2-2.5.8-3.3 3.4-6 6.7-6.9 2.9-.9 5.9-.9 8.8 0 1.2.3 1.3.5 1.4 1.7.1 1.2.2 1.9.3 2.9 0 .3.1.6-.3.7-.4.1-.5-.2-.6-.5-1.4-3.5-5.4-5.1-8.9-3.8-1.9.7-3.3 2.4-3.6 4.5-.3 1.3-.4 2.6-.5 3.9Z" fill="url(#l)"/><path d="M88.4 35.1c-1-.5-2-1-3-1.6-.2-.1-.5-.1-.8 0l-2.9 1.6c.1-.7.2-1.4.3-2 0-.3.1-.7.2-1 .2-.5 0-1-.4-1.3-.6-.5-1.2-1.1-1.7-1.6l-.4-.4c1.1-.2 2.2-.3 3.3-.5.3 0 .5-.2.6-.4.5-1 1-1.9 1.5-3 0 .1.2.2.2.3.4.9.9 1.8 1.3 2.7.1.2.3.3.5.4 1.1.2 2.2.3 3.3.5l-.1.2c-.7.7-1.4 1.4-2.1 2-.2.2-.3.5-.2.8 0 1.1.2 2.1.4 3.3Z" fill="url(#m)"/><path d="m111.7 35.1.6-3.3c.1-.3 0-.7-.3-.9-.7-.6-1.3-1.2-2-1.9l-.4-.4 3.4-.5c.2 0 .4-.2.5-.4.5-1 1-2 1.5-3.1.5 1 1 2 1.4 2.9.1.3.4.5.7.5 1 .1 2.1.3 3.1.4-.5.6-1.1 1.3-1.7 1.8-.6.4-.9 1.3-.6 2 .2.8.3 1.6.5 2.6-1-.5-2-1-3-1.6-.2-.2-.6-.2-.8 0-.9.8-1.9 1.3-2.9 1.9Z" fill="url(#n)"/><path d="M67 116.4H56.9c0-.1.1-.3.1-.4l4-9.1c.1-.3.2-.5.6-.5.4 0 .5.2.7.5l4.5 9.1c0 .1.1.2.2.4Zm-8.1-1.299h3.6l-1.9-3.901-1.7 3.901Z" fill="url(#o)"/><path d="M166 117.699h3.3c.1 1 .2 1.9.4 2.8.7 2.7 3.4 4.4 6.1 3.7.6-.1 1.1-.4 1.6-.7 1.3-.9 2.1-2.3 2.1-3.9v-1.9h1.4c.7 3.5-1.5 6.9-4.9 7.9-2.1.6-4.4.5-6.3-.5-2.2-1-3.6-3.1-3.7-5.5v-1.9Z" fill="url(#p)"/><path d="M81.2 117.699h4.7c.1 0 .3.2.4.3 1.2 2.1.7 4.8-1.2 6.3-1.3 1-3 1.6-4.7 1.5-1.5 0-3-.3-4.3-.9-.5-.2-.8-.7-.7-1.2 0-1.3-.1-2.6-.1-4 0-.3 0-.6.3-.7.3-.1.5.1.6.4.5 1.3 1.2 2.5 2 3.6.8 1.2 2.2 1.7 3.6 1.5 1.2-.1 2.1-1.1 2-2.3.1-1.5-.5-3-1.8-4-.1-.1-.4-.3-.8-.5Z" fill="url(#q)"/><path d="M47.1 116.401h-3.4v-7.7c-.1-.7-.3-1-1.1-1h-.8c-.2-.1-.4-.3-.4-.5 0-.3.1-.4.4-.4h7c.3 0 .5 0 .6.4 0 .4-.1.5-.4.5h-.8c-.7 0-1 .3-1 1.1v1l-.1 6.6Z" fill="url(#r)"/><path d="M169.3 116.401H166v-7.2c0-1.3-.2-1.5-1.5-1.6h-.5c-.1-.1-.2-.3-.3-.5 0-.1.2-.3.3-.4.1-.1.2 0 .3 0h6.7c.3 0 .6 0 .6.4s-.3.5-.6.5c-1.5.1-1.6.2-1.6 1.8v7h-.1Z" fill="url(#s)"/><path d="M63.8 117.699h3.6c.1 0 .3.2.4.3.6 1.3 1.2 2.5 1.9 3.8.4.7.8 1.3 1.2 2 .3.5.8.8 1.3.8.2 0 .4.2.5.4v.1c0 .3-.2.4-.5.4-.9 0-1.6-.1-2.6-.1-1.3 0-2.6 0-4 .1-.3 0-.6 0-.6-.4s.2-.5.6-.5c1.2 0 1.4-.3.9-1.4-.7-1.6-1.5-3.2-2.3-4.7l-.4-.8Z" fill="url(#t)"/><path d="M129.1 117.699h3.3c.2 0 .4.2.5.3 1 1.3 2 2.7 3.1 4 .6.7 1.2 1.3 1.9 1.8.6.5 1.2.7 2 .8.3 0 .5.2.5.5s-.2.4-.6.4h-4.4c-.4 0-.8-.2-1-.5-.5-.5-1-1.1-1.4-1.7-1.2-1.7-2.4-3.5-3.5-5.3-.3-.1-.3-.2-.4-.3Z" fill="url(#u)"/><path d="M28.6 117.699h3.3c.2 0 .4.2.5.3 1.1 1.4 2.2 2.9 3.4 4.4.4.5.9.9 1.4 1.3.6.5 1.4.8 2.2.9.2 0 .4.2.5.4v.1c0 .3-.2.4-.5.4h-4.5c-.3 0-.6-.2-.8-.4-.5-.4-1-.9-1.4-1.5-1.4-2-2.7-3.9-4.1-5.8v-.1Z" fill="url(#v)"/><path d="M6.9 117.699h3.4v5.5c0 1 .2 1.2 1.3 1.3h.9c.3 0 .5.2.5.5s-.2.5-.5.5H4.8c-.3 0-.5-.1-.5-.5 0-.2.1-.4.4-.5h.1c.4 0 .9 0 1.3-.1.5 0 .8-.4.9-.9 0-.3.1-.7.1-1v-4.8h-.2Z" fill="url(#w)"/><path d="M187.8 117.699h3.3V123.399c0 .8.3 1 1 1.1.7.1 1 .1 1.4.1.5 0 .6 0 .6.5s-.2.5-.6.5h-7.6c-.3 0-.6 0-.6-.5s.2-.5.6-.5c1.5 0 1.6-.2 1.6-1.7v-5.1h.3v-.1Z" fill="url(#x)"/><path d="M43.7 117.699h3.4V123.399c0 .9.3 1.1 1.2 1.2h.6c.3 0 .5.2.5.5s-.2.4-.5.4H42c-.3 0-.5-.1-.5-.4 0-.3.2-.5.6-.5h1c.4 0 .8-.4.8-.8v-2.9c0-1-.2-2.2-.2-3.2Z" fill="url(#y)"/><path d="M122.8 117.699h3.4v5.5c0 1.1.2 1.3 1.4 1.4h.4c.3 0 .5.1.5.5 0 .3-.2.5-.5.5h-7c-.3 0-.5-.1-.5-.4 0-.3.2-.5.5-.5l1-.1c.4 0 .7-.3.7-.7v-.7l.1-5.5Z" fill="url(#z)"/><path d="M22.3 117.699h3.3v6c0 .7.2.8.9.9h.9c.2 0 .4.2.5.4v.1c0 .3-.1.5-.5.5h-6.9c-.3 0-.5-.1-.5-.4 0-.3.2-.5.5-.5h1c.6-.1.8-.3.8-.9v-6.1Z" fill="url(#A)"/><path d="M181 116.401h-1.4v-5.8c0-.6-.1-1.1-.2-1.6-.2-.8-1-1.4-1.8-1.4h-.4c-.1-.1-.2-.3-.2-.5 0-.1.2-.3.3-.3h5.7c.3 0 .6 0 .6.4s-.2.5-.5.5c-1 .1-1.8.9-1.8 1.9-.1.4-.1.9-.1 1.3l-.2 5.5Z" fill="url(#B)"/><path d="m72.5 36 2.1-.3c.2-.1.4-.2.5-.4.3-.6.6-1.2 1-1.9.3.7.7 1.3.9 1.9.1.2.3.4.5.4.7 0 1.3.2 2.1.3-.5.5-.9 1-1.4 1.4-.3.2-.4.6-.3.9.1.6.2 1.2.3 2-.7-.4-1.3-.7-1.9-1-.2-.1-.5-.1-.7 0-.6.3-1.2.6-1.9 1 .1-.7.2-1.2.3-1.8.1-.4 0-.8-.3-1.1-.4-.5-.8-1-1.2-1.4Z" fill="url(#C)"/><path d="M127.5 35.9c-.5.5-.9 1-1.4 1.5-.2.2-.3.5-.2.8l.4 2c-.5-.2-1-.5-1.4-.8-.5-.4-1.2-.4-1.6 0-.5.3-.9.5-1.4.8.1-.7.2-1.3.3-2 .1-.3 0-.7-.3-.9-.5-.4-.9-.9-1.4-1.4l2.1-.3c.2 0 .3-.2.4-.3l1-2 .9 1.9c.1.2.3.4.5.4.8.1 1.5.2 2.1.3Z" fill="url(#D)"/><path d="M57.7 117.699c-.5 1.2-1.1 2.4-1.6 3.5-.2.4-.3.9-.4 1.4-.2.8.3 1.6 1.1 1.8.4.1.8.2 1.3.2.3 0 .5.2.5.5s-.2.4-.5.4c-.8 0-1.6-.1-2.4-.1-1.4 0-2.7 0-4.1.1-.3 0-.6 0-.6-.4s.3-.5.6-.5c.8 0 1.5-.4 1.9-1.1.5-.9 1-1.9 1.5-2.8.5-1 .8-1.6 1.1-2.6.1-.3.3-.4.6-.4h1Z" fill="url(#E)"/><path d="M127.4 133.4c.5-1.4 1-2.7 1.4-4 .3-.8.3-.8 1.2-.7l.4 5.9h-.8l-.2-4.8h-.1c-.5 1.5-1 3-1.6 4.4-.1.2-.2.3-.3.4-.3.1-.4-.1-.5-.4l-1.5-4.5-.3 4.9h-.7l.4-5.9h.3c.5-.1.8.1 1 .7.4 1.3.8 2.6 1.3 3.8v.2Z" fill="url(#F)"/><path d="M8.2 131.6v-.6h21.7v.6H8.2Z" fill="url(#G)"/><path d="M170.1 131.6v-.6h21.8v.6h-21.8Z" fill="url(#H)"/><path d="M153.1 134.6v-5.901h.7v4.901l.2-.3c.9-1.4 1.7-2.9 2.6-4.3.1-.2.5-.2.9-.4v6h-.7v-4.901c-.2.3-.3.601-.5.901-.8 1.2-1.5 2.5-2.3 3.7-.2.5-.6.3-.9.3Z" fill="url(#I)"/><path d="m59.5 133.5 2.7-4.3c.4-.6.4-.6 1.1-.5v5.9h-.7v-4.8c-.1.1-.1.2-.2.4-.9 1.4-1.6 2.8-2.6 4.2-.1.2-.6.2-.9.3v-6h.7v4.8h-.1Z" fill="url(#J)"/><path d="M122.5 131.601c.1 1.3-.7 2.6-1.9 3-1.4.5-2.9-.301-3.4-1.701-.1-.3-.1-.599-.1-.899 0-.5 0-.9.1-1.4.3-1.4 1.6-2.3 3-2 1.3.2 2.3 1.3 2.3 2.6v.4Zm-.7.1c-.1-.6-.3-1.1-.6-1.6-.5-.8-1.5-1-2.3-.5-.2.1-.4.3-.5.5-.7 1.1-.7 2.4 0 3.5.5.8 1.5 1 2.3.6.2-.1.4-.3.6-.6.1-.6.3-1.3.5-1.9Z" fill="url(#K)"/><path d="M54 128.599c1.1 0 2 .6 2.4 1.6.5 1.1.3 2.5-.4 3.4-.7.9-1.8 1.2-2.8.9-1-.3-1.8-1.2-1.9-2.2-.1-.7 0-1.4.2-2.1.3-1 1.4-1.7 2.5-1.6Zm1.9 3c-.1-.6-.4-1.1-.6-1.6-.5-.8-1.5-1.1-2.2-.6-.2.1-.5.3-.6.6-.6 1-.6 2.3 0 3.3.4.8 1.4 1.1 2.2.7.3-.2.6-.4.7-.7.2-.5.4-1.1.5-1.7Z" fill="url(#L)"/><path d="M133.6 134.599h-.7v-5.9h4.3v5.9h-.8v-5.2h-2.8v5.2Z" fill="url(#M)"/><path d="M89.3 128.699h.7v2.4h2.9v-2.4h.8v5.9h-.8v-2.7H90v2.7h-.8v-5.9h.1Z" fill="url(#N)"/><path d="M159.5 134.601c.5-.9.4-2.101 1.5-2.801l-.2-.1c-.6-.2-1-.8-.9-1.4 0-.6.4-1.2 1-1.4.8-.2 1.6-.3 2.4-.1.1.1.2.201.2.301v5.599h-.8v-2.5c-1-.2-1.5.001-1.8.901-.1.3-.2.7-.3 1-.3.6-.3.6-1.1.5Zm3.3-4.201c0-.3 0-.9-.2-1-.4-.1-.8-.1-1.2 0-.5.1-.8.5-.7 1 0 .6.5 1 1.4 1.1.8 0 .8 0 .8-.7l-.1-.4Z" fill="url(#O)"/><path d="M106.1 134.601h-.7v-2.5c-1-.2-1.5 0-1.8 1l-.3.9c-.2.7-.2.7-1.1.7.5-1 .5-2.1 1.5-2.8-.6-.1-1.1-.6-1.2-1.3-.1-.8.4-1.6 1.2-1.8h2.4v5.8Zm-.7-3v-1.3c0-1-.1-1.1-1.1-1-.6.1-1 .6-.9 1.2.1.4.4.8.8.9.3.1.7.1 1.2.2Z" fill="url(#P)"/><path d="M149.8 131.899h-2.9v2.7h-.8v-5.9h.7v2.4h2.9v-2.4h.7v5.9h-.7v-2.7h.1Z" fill="url(#Q)"/><path d="M115.6 134.6c-1 0-.8.1-1.1-.6-.1-.4-.2-.7-.4-1.1-.2-.7-.9-1.1-1.6-.9v2.6h-.8v-5.9h.8v2.7l.4-.4c.5-.6.9-1.2 1.4-1.8.5-.6.5-.6 1.3-.5l-2.3 2.7c1.2.2 1.5 1.2 1.8 2.1l.5 1.1Z" fill="url(#R)"/><path d="M77.4 128.699h3.4v5.9h-.7v-5.2h-2v.6c0 1.1 0 2.2-.2 3.3 0 .9-.8 1.5-1.6 1.5-.1-.3-.2-.5.2-.7.4-.2.7-1 .7-1.6v-3.1l.2-.7Z" fill="url(#S)"/><path d="M100.6 134.6h-.8c-.2-.5-.3-1-.5-1.5-.1-.1-.2-.3-.4-.3-.6 0-1.2-.2-1.6 0-.4.2-.5.9-.7 1.4-.2.5-.5.3-.9.3.5-1.5 1-3 1.5-4.4.1-.4.3-.8.4-1.2.1-.4.3-.3.5-.3s.5-.1.6.2c.6 1.8 1.2 3.6 1.9 5.5v.3Zm-1.6-2.4-.9-2.7-.9 2.7H99Z" fill="url(#T)"/><path d="M139.2 134.601c.7-1.9 1.3-3.8 2-5.6.1-.1.2-.2.4-.2s.6 0 .6.2c.7 1.9 1.3 3.8 2 5.7h-.8c-.2-.5-.3-1-.5-1.4-.2-.4-.3-.5-.6-.4-.5 0-1.2-.2-1.5 0-.4.2-.4.9-.6 1.4-.2.5-.3.4-1 .3Zm3.2-2.4-.9-2.7-.9 2.7h1.8Z" fill="url(#U)"/><path d="M74.4 128.699v.6H72v1.9h2.2v.7H72v2.1h2.5v.6h-3.3v-5.9h3.2Z" fill="url(#V)"/><path d="M83.3 134.599v-5.9h.7v2.2h1.2c1 0 1.8.9 1.8 1.9 0 .9-.7 1.7-1.6 1.8-.7.1-1.4.1-2.1 0Zm.8-3v2.5c.8 0 1.5.1 2-.6.3-.4.3-1 0-1.4-.5-.6-1.3-.8-2-.5Z" fill="url(#W)"/><path d="M46.5 132.499v2.1h-.7v-5.9H48c.7.1 1.2.6 1.4 1.3.2.8-.1 1.6-.9 1.9-.6.3-1.3.5-2 .6Zm0-2v.4c0 .8 0 .8.8.8.7 0 1.2-.5 1.3-1.1v-.2c0-.7-.5-1.1-1.3-1.1s-.8 0-.8.8v.4Z" fill="url(#X)"/><path d="m37.8 133.9.1.5c-1.3.6-2.8.4-3.8-.7-.8-1.2-.8-2.8 0-4 1-1.1 2.6-1.5 3.9-.9l-.2.6c-1.2-.3-2.3-.4-3.1.7-.7.8-.7 2-.2 2.9.8 1.3 2 1.2 3.3.9Z" fill="url(#Y)"/><path d="M65 129.399v-.7h4.4v.6h-1.8v5.3h-.8v-5.2H65Z" fill="url(#Z)"/><path d="M43.9 129.401h-1.8v5.2h-.8v-5.2h-1.8v-.6h4.3v.6h.1Z" fill="url(#aa)"/><path d="M100.1 94.3c-15.5 0-28.1-12.5-28.2-28 0-15.5 12.5-28.1 28-28.2 15.5 0 28.1 12.5 28.2 28 0 15.6-12.5 28.2-28 28.2Zm6-20.8c-.1 1.1-.6 2-1.4 2.8-2.3 2.2-5.8 2.4-8.4.5-2-1.5-3.2-3.8-3.3-6.3-.1-2.5.6-5 2.1-7 .2-.3.3-.6.3-.9v-5.8H95c-2.1.6-4 1.7-5.5 3.2-3.4 3.3-4.9 8.1-3.8 12.8 1.2 6.5 7.1 11.1 13.8 10.7 3.1-.2 6-1.6 8.2-3.9l.7 3.1h4.4V68.5h-8.2v5.1h1.5v-.1ZM87.9 47.7v5.2H96v20.7h7.3V52.8h8.2v-5.2H87.9v.1Zm24.7 16.8c-.4-3.4-5.1-7.6-8.5-7.7v5c-.1.6.1 1.1.6 1.5.3.3.5.5.7.8.1.2.4.4.7.3h6l.5.1Z" fill="url(#ab)"/></g><defs><linearGradient id="C" x1="-.548" y1="36.775" x2="198.097" y2="36.775" gradientUnits="userSpaceOnUse"><stop stop-color="#1C8AE2"/><stop offset=".486" stop-color="#8B00B3"/><stop offset="1" stop-color="#6900B5"/></linearGradient><linearGradient id="b" x1="-.549" y1="26.542" x2="198.097" y2="26.542" gradientUnits="userSpaceOnUse"><stop stop-color="#1C8AE2"/><stop offset=".486" stop-color="#8B00B3"/><stop offset="1" stop-color="#6900B5"/></linearGradient><linearGradient id="d" x1="-.549" y1="111.559" x2="198.098" y2="111.559" gradientUnits="userSpaceOnUse"><stop stop-color="#1C8AE2"/><stop offset=".486" stop-color="#8B00B3"/><stop offset="1" stop-color="#6900B5"/></linearGradient><linearGradient id="e" x1="-.558" y1="111.526" x2="198.087" y2="111.526" gradientUnits="userSpaceOnUse"><stop stop-color="#1C8AE2"/><stop offset=".486" stop-color="#8B00B3"/><stop offset="1" stop-color="#6900B5"/></linearGradient><linearGradient id="f" x1="-.548" y1="111.509" x2="198.097" y2="111.509" gradientUnits="userSpaceOnUse"><stop stop-color="#1C8AE2"/><stop offset=".486" stop-color="#8B00B3"/><stop offset="1" stop-color="#6900B5"/></linearGradient><linearGradient id="g" x1="-.548" y1="111.337" x2="198.098" y2="111.337" gradientUnits="userSpaceOnUse"><stop stop-color="#1C8AE2"/><stop offset=".486" stop-color="#8B00B3"/><stop offset="1" stop-color="#6900B5"/></linearGradient><linearGradient id="h" x1="-.548" y1="121.589" x2="198.097" y2="121.589" gradientUnits="userSpaceOnUse"><stop stop-color="#1C8AE2"/><stop offset=".486" stop-color="#8B00B3"/><stop offset="1" stop-color="#6900B5"/></linearGradient><linearGradient id="i" x1="-.548" y1="111.114" x2="198.098" y2="111.114" gradientUnits="userSpaceOnUse"><stop stop-color="#1C8AE2"/><stop offset=".486" stop-color="#8B00B3"/><stop offset="1" stop-color="#6900B5"/></linearGradient><linearGradient id="j" x1="-.549" y1="121.763" x2="198.098" y2="121.763" gradientUnits="userSpaceOnUse"><stop stop-color="#1C8AE2"/><stop offset=".486" stop-color="#8B00B3"/><stop offset="1" stop-color="#6900B5"/></linearGradient><linearGradient id="k" x1="-.548" y1="111.422" x2="198.096" y2="111.422" gradientUnits="userSpaceOnUse"><stop stop-color="#1C8AE2"/><stop offset=".486" stop-color="#8B00B3"/><stop offset="1" stop-color="#6900B5"/></linearGradient><linearGradient id="l" x1="-.549" y1="111.358" x2="198.098" y2="111.358" gradientUnits="userSpaceOnUse"><stop stop-color="#1C8AE2"/><stop offset=".486" stop-color="#8B00B3"/><stop offset="1" stop-color="#6900B5"/></linearGradient><linearGradient id="m" x1="-.549" y1="29.953" x2="198.099" y2="29.953" gradientUnits="userSpaceOnUse"><stop stop-color="#1C8AE2"/><stop offset=".486" stop-color="#8B00B3"/><stop offset="1" stop-color="#6900B5"/></linearGradient><linearGradient id="n" x1="-.548" y1="29.895" x2="198.097" y2="29.895" gradientUnits="userSpaceOnUse"><stop stop-color="#1C8AE2"/><stop offset=".486" stop-color="#8B00B3"/><stop offset="1" stop-color="#6900B5"/></linearGradient><linearGradient id="o" x1="-.548" y1="111.364" x2="198.098" y2="111.364" gradientUnits="userSpaceOnUse"><stop stop-color="#1C8AE2"/><stop offset=".486" stop-color="#8B00B3"/><stop offset="1" stop-color="#6900B5"/></linearGradient><linearGradient id="p" x1="-.548" y1="121.801" x2="198.098" y2="121.801" gradientUnits="userSpaceOnUse"><stop stop-color="#1C8AE2"/><stop offset=".486" stop-color="#8B00B3"/><stop offset="1" stop-color="#6900B5"/></linearGradient><linearGradient id="q" x1="-.548" y1="121.739" x2="198.098" y2="121.739" gradientUnits="userSpaceOnUse"><stop stop-color="#1C8AE2"/><stop offset=".486" stop-color="#8B00B3"/><stop offset="1" stop-color="#6900B5"/></linearGradient><linearGradient id="r" x1="-.548" y1="111.569" x2="198.098" y2="111.569" gradientUnits="userSpaceOnUse"><stop stop-color="#1C8AE2"/><stop offset=".486" stop-color="#8B00B3"/><stop offset="1" stop-color="#6900B5"/></linearGradient><linearGradient id="s" x1="-.549" y1="111.515" x2="198.098" y2="111.515" gradientUnits="userSpaceOnUse"><stop stop-color="#1C8AE2"/><stop offset=".486" stop-color="#8B00B3"/><stop offset="1" stop-color="#6900B5"/></linearGradient><linearGradient id="t" x1="-.549" y1="121.563" x2="198.098" y2="121.563" gradientUnits="userSpaceOnUse"><stop stop-color="#1C8AE2"/><stop offset=".486" stop-color="#8B00B3"/><stop offset="1" stop-color="#6900B5"/></linearGradient><linearGradient id="u" x1="-.549" y1="121.563" x2="198.098" y2="121.563" gradientUnits="userSpaceOnUse"><stop stop-color="#1C8AE2"/><stop offset=".486" stop-color="#8B00B3"/><stop offset="1" stop-color="#6900B5"/></linearGradient><linearGradient id="v" x1="-.549" y1="121.563" x2="198.098" y2="121.563" gradientUnits="userSpaceOnUse"><stop stop-color="#1C8AE2"/><stop offset=".486" stop-color="#8B00B3"/><stop offset="1" stop-color="#6900B5"/></linearGradient><linearGradient id="w" x1="-.548" y1="121.571" x2="198.099" y2="121.571" gradientUnits="userSpaceOnUse"><stop stop-color="#1C8AE2"/><stop offset=".486" stop-color="#8B00B3"/><stop offset="1" stop-color="#6900B5"/></linearGradient><linearGradient id="x" x1="-.549" y1="121.571" x2="198.098" y2="121.571" gradientUnits="userSpaceOnUse"><stop stop-color="#1C8AE2"/><stop offset=".486" stop-color="#8B00B3"/><stop offset="1" stop-color="#6900B5"/></linearGradient><linearGradient id="y" x1="-.548" y1="121.571" x2="198.098" y2="121.571" gradientUnits="userSpaceOnUse"><stop stop-color="#1C8AE2"/><stop offset=".486" stop-color="#8B00B3"/><stop offset="1" stop-color="#6900B5"/></linearGradient><linearGradient id="z" x1="-.548" y1="121.571" x2="198.098" y2="121.571" gradientUnits="userSpaceOnUse"><stop stop-color="#1C8AE2"/><stop offset=".486" stop-color="#8B00B3"/><stop offset="1" stop-color="#6900B5"/></linearGradient><linearGradient id="A" x1="-.548" y1="121.563" x2="198.098" y2="121.563" gradientUnits="userSpaceOnUse"><stop stop-color="#1C8AE2"/><stop offset=".486" stop-color="#8B00B3"/><stop offset="1" stop-color="#6900B5"/></linearGradient><linearGradient id="B" x1="-.548" y1="111.532" x2="198.098" y2="111.532" gradientUnits="userSpaceOnUse"><stop stop-color="#1C8AE2"/><stop offset=".486" stop-color="#8B00B3"/><stop offset="1" stop-color="#6900B5"/></linearGradient><linearGradient id="c" x1="-.548" y1="66.267" x2="198.098" y2="66.267" gradientUnits="userSpaceOnUse"><stop stop-color="#1C8AE2"/><stop offset=".486" stop-color="#8B00B3"/><stop offset="1" stop-color="#6900B5"/></linearGradient><linearGradient id="D" x1="-.548" y1="36.767" x2="198.098" y2="36.767" gradientUnits="userSpaceOnUse"><stop stop-color="#1C8AE2"/><stop offset=".486" stop-color="#8B00B3"/><stop offset="1" stop-color="#6900B5"/></linearGradient><linearGradient id="E" x1="-.548" y1="121.559" x2="198.097" y2="121.559" gradientUnits="userSpaceOnUse"><stop stop-color="#1C8AE2"/><stop offset=".486" stop-color="#8B00B3"/><stop offset="1" stop-color="#6900B5"/></linearGradient><linearGradient id="F" x1="-.548" y1="131.675" x2="198.098" y2="131.675" gradientUnits="userSpaceOnUse"><stop stop-color="#1C8AE2"/><stop offset=".486" stop-color="#8B00B3"/><stop offset="1" stop-color="#6900B5"/></linearGradient><linearGradient id="G" x1="-.548" y1="131.362" x2="198.099" y2="131.362" gradientUnits="userSpaceOnUse"><stop stop-color="#1C8AE2"/><stop offset=".486" stop-color="#8B00B3"/><stop offset="1" stop-color="#6900B5"/></linearGradient><linearGradient id="H" x1="-.549" y1="131.354" x2="198.097" y2="131.354" gradientUnits="userSpaceOnUse"><stop stop-color="#1C8AE2"/><stop offset=".486" stop-color="#8B00B3"/><stop offset="1" stop-color="#6900B5"/></linearGradient><linearGradient id="I" x1="-.549" y1="131.681" x2="198.098" y2="131.681" gradientUnits="userSpaceOnUse"><stop stop-color="#1C8AE2"/><stop offset=".486" stop-color="#8B00B3"/><stop offset="1" stop-color="#6900B5"/></linearGradient><linearGradient id="J" x1="-.546" y1="131.728" x2="198.095" y2="131.728" gradientUnits="userSpaceOnUse"><stop stop-color="#1C8AE2"/><stop offset=".486" stop-color="#8B00B3"/><stop offset="1" stop-color="#6900B5"/></linearGradient><linearGradient id="K" x1="-.549" y1="131.681" x2="198.098" y2="131.681" gradientUnits="userSpaceOnUse"><stop stop-color="#1C8AE2"/><stop offset=".486" stop-color="#8B00B3"/><stop offset="1" stop-color="#6900B5"/></linearGradient><linearGradient id="L" x1="-.549" y1="131.659" x2="198.1" y2="131.659" gradientUnits="userSpaceOnUse"><stop stop-color="#1C8AE2"/><stop offset=".486" stop-color="#8B00B3"/><stop offset="1" stop-color="#6900B5"/></linearGradient><linearGradient id="M" x1="-.546" y1="131.697" x2="198.097" y2="131.697" gradientUnits="userSpaceOnUse"><stop stop-color="#1C8AE2"/><stop offset=".486" stop-color="#8B00B3"/><stop offset="1" stop-color="#6900B5"/></linearGradient><linearGradient id="N" x1="-.548" y1="131.681" x2="198.098" y2="131.681" gradientUnits="userSpaceOnUse"><stop stop-color="#1C8AE2"/><stop offset=".486" stop-color="#8B00B3"/><stop offset="1" stop-color="#6900B5"/></linearGradient><linearGradient id="O" x1="-.548" y1="131.664" x2="198.098" y2="131.664" gradientUnits="userSpaceOnUse"><stop stop-color="#1C8AE2"/><stop offset=".486" stop-color="#8B00B3"/><stop offset="1" stop-color="#6900B5"/></linearGradient><linearGradient id="P" x1="-.549" y1="131.693" x2="198.099" y2="131.693" gradientUnits="userSpaceOnUse"><stop stop-color="#1C8AE2"/><stop offset=".486" stop-color="#8B00B3"/><stop offset="1" stop-color="#6900B5"/></linearGradient><linearGradient id="Q" x1="-.55" y1="131.681" x2="198.098" y2="131.681" gradientUnits="userSpaceOnUse"><stop stop-color="#1C8AE2"/><stop offset=".486" stop-color="#8B00B3"/><stop offset="1" stop-color="#6900B5"/></linearGradient><linearGradient id="R" x1="-.549" y1="131.674" x2="198.098" y2="131.674" gradientUnits="userSpaceOnUse"><stop stop-color="#1C8AE2"/><stop offset=".486" stop-color="#8B00B3"/><stop offset="1" stop-color="#6900B5"/></linearGradient><linearGradient id="S" x1="-.547" y1="131.748" x2="198.097" y2="131.748" gradientUnits="userSpaceOnUse"><stop stop-color="#1C8AE2"/><stop offset=".486" stop-color="#8B00B3"/><stop offset="1" stop-color="#6900B5"/></linearGradient><linearGradient id="T" x1="-.548" y1="131.656" x2="198.098" y2="131.656" gradientUnits="userSpaceOnUse"><stop stop-color="#1C8AE2"/><stop offset=".486" stop-color="#8B00B3"/><stop offset="1" stop-color="#6900B5"/></linearGradient><linearGradient id="U" x1="-.548" y1="131.71" x2="198.098" y2="131.71" gradientUnits="userSpaceOnUse"><stop stop-color="#1C8AE2"/><stop offset=".486" stop-color="#8B00B3"/><stop offset="1" stop-color="#6900B5"/></linearGradient><linearGradient id="V" x1="-.549" y1="131.681" x2="198.1" y2="131.681" gradientUnits="userSpaceOnUse"><stop stop-color="#1C8AE2"/><stop offset=".486" stop-color="#8B00B3"/><stop offset="1" stop-color="#6900B5"/></linearGradient><linearGradient id="W" x1="-.55" y1="131.704" x2="198.1" y2="131.704" gradientUnits="userSpaceOnUse"><stop stop-color="#1C8AE2"/><stop offset=".486" stop-color="#8B00B3"/><stop offset="1" stop-color="#6900B5"/></linearGradient><linearGradient id="X" x1="-.55" y1="131.665" x2="198.101" y2="131.665" gradientUnits="userSpaceOnUse"><stop stop-color="#1C8AE2"/><stop offset=".486" stop-color="#8B00B3"/><stop offset="1" stop-color="#6900B5"/></linearGradient><linearGradient id="Y" x1="-.548" y1="131.686" x2="198.099" y2="131.686" gradientUnits="userSpaceOnUse"><stop stop-color="#1C8AE2"/><stop offset=".486" stop-color="#8B00B3"/><stop offset="1" stop-color="#6900B5"/></linearGradient><linearGradient id="Z" x1="-.549" y1="131.681" x2="198.098" y2="131.681" gradientUnits="userSpaceOnUse"><stop stop-color="#1C8AE2"/><stop offset=".486" stop-color="#8B00B3"/><stop offset="1" stop-color="#6900B5"/></linearGradient><linearGradient id="aa" x1="-.548" y1="131.691" x2="198.099" y2="131.691" gradientUnits="userSpaceOnUse"><stop stop-color="#1C8AE2"/><stop offset=".486" stop-color="#8B00B3"/><stop offset="1" stop-color="#6900B5"/></linearGradient><linearGradient id="ab" x1="-.548" y1="66.267" x2="198.098" y2="66.267" gradientUnits="userSpaceOnUse"><stop stop-color="#1C8AE2"/><stop offset=".486" stop-color="#8B00B3"/><stop offset="1" stop-color="#6900B5"/></linearGradient><clipPath id="a"><path fill="#fff" d="M0 0h200v155H0z"/></clipPath></defs></svg>