<svg width="603" height="78" viewBox="0 0 603 78" fill="none" xmlns="http://www.w3.org/2000/svg">
<path d="M65.4998 10.9004V67.0004H55.4998V31.3004L45.5998 38.8004L37.3998 45.1004L29.1998 38.8004L19.2998 31.3004V67.0004H9.2998V10.9004L19.2998 18.6004L37.2998 32.5004L55.2998 18.6004L65.4998 10.9004Z" fill="white"/>
<path d="M83.5996 26.0004V31.2004H119.7V41.2004H83.5996V51.8004C83.5996 54.6004 85.8996 56.9004 88.6996 56.9004H129.7V66.9004H88.6996C80.3996 66.9004 73.5996 60.1004 73.5996 51.8004V26.0004C73.5996 17.7004 80.2996 10.9004 88.6996 10.9004H129.7V20.9004H88.6996C85.8996 20.9004 83.5996 23.2004 83.5996 26.0004Z" fill="white"/>
<path d="M183 57.1L188.1 67.1H176.9L171.8 57.1L166.4 46.6L166.2 46.1C164.4 43.2 161.3 41.3 157.7 41.3H147.7V67.1H137.7V11H173.1C177.3 11 181 12.7 183.8 15.4C186.5 18.2 188.2 22 188.2 26.1C188.2 32.2 184.6 37.5 179.4 39.9C178 40.5 176.6 40.9 175.1 41.1L183 57.1ZM173 31.3C173.7 31.3 174.4 31.1 175.1 30.8C176.9 30 178.1 28.2 178.1 26.2C178.1 24.4 177.1 23.1 176.6 22.5C176 21.9 174.8 21.1 173 21.1H147.6V31.4L173 31.3Z" fill="white"/>
<path d="M205.4 38.9002C205.4 48.8002 213.5 56.9002 223.4 56.9002H251.5V66.9002H223.4C207.9 66.9002 195.3 54.3002 195.3 38.8002C195.3 23.3002 207.9 10.7002 223.4 10.7002H251.5V20.7002H223.4C213.5 20.9002 205.4 29.0002 205.4 38.9002Z" fill="white"/>
<path d="M315.6 10.9004V39.0004C315.6 54.5004 303 67.1004 287.5 67.1004C272 67.1004 259.4 54.5004 259.4 39.0004V10.9004H269.4V39.0004C269.4 48.9004 277.5 57.0004 287.4 57.0004C297.3 57.0004 305.4 48.9004 305.4 39.0004V10.9004H315.6Z" fill="white"/>
<path d="M368.9 57.1L374 67.1H362.8L357.7 57.1L352.3 46.6L352.1 46.1C350.3 43.2 347.2 41.3 343.6 41.3H333.6V67.1H323.6V11H359C363.2 11 366.9 12.7 369.7 15.4C372.4 18.2 374.1 22 374.1 26.1C374.1 32.2 370.5 37.5 365.3 39.9C363.9 40.5 362.5 40.9 361 41.1L368.9 57.1ZM359 31.3C359.7 31.3 360.4 31.1 361.1 30.8C362.9 30 364.1 28.2 364.1 26.2C364.1 24.4 363.1 23.1 362.6 22.5C362 21.9 360.8 21.1 359 21.1H333.6V31.4L359 31.3Z" fill="white"/>
<path d="M375.4 67.0003H375.6L375.4 67.2003V67.0003ZM431.5 10.8003L409.8 38.9003L408.6 40.4003V66.9003H398.6V40.6003L397.2 38.9003L375.5 10.8003H388.2L403.6 30.8003L419 10.8003H431.5V10.8003ZM431.4 67.0003L431.5 67.2003L431.4 67.0003Z" fill="white"/>
<path d="M503.4 11.0004C518.9 11.0004 531.5 23.5004 531.5 39.0004C531.5 45.9004 529 52.2004 524.8 57.1004C524.3 57.7004 523.8 58.2004 523.2 58.8004C518.2 63.9004 511.2 67.1004 503.5 67.1004H475.4V10.9004L503.4 11.0004ZM485.3 57.1004H503.3C513.2 57.1004 521.3 49.0004 521.3 39.1004C521.3 29.2004 513.2 21.1004 503.3 21.1004H485.3V57.1004V57.1004Z" fill="white"/>
<path d="M593.5 10.9004L588.4 20.9004L564.9 67.0004L541.4 20.9004L536.3 10.9004H547.5L552.6 20.9004L564.9 44.9004L577.2 20.9004L582.3 10.9004C582.3 10.9004 593.5 10.9004 593.5 10.9004Z" fill="white"/>
</svg>
