<svg width="149" height="24" viewBox="0 0 149 24" fill="none" xmlns="http://www.w3.org/2000/svg">
<path d="M12 0L15.6678 6.95173L23.4127 8.2918L17.9346 13.9283L19.0534 21.7082L12 18.24L4.94658 21.7082L6.06541 13.9283L0.587322 8.2918L8.33222 6.95173L12 0Z" fill="#F7C70A"/>
<path d="M43 0L46.6678 6.95173L54.4127 8.2918L48.9346 13.9283L50.0534 21.7082L43 18.24L35.9466 21.7082L37.0654 13.9283L31.5873 8.2918L39.3322 6.95173L43 0Z" fill="#F7C70A"/>
<path d="M74.4444 0L78.2481 6.95173L86.2798 8.2918L80.5988 13.9283L81.7591 21.7082L74.4444 18.24L67.1298 21.7082L68.2901 13.9283L62.6091 8.2918L70.6408 6.95173L74.4444 0Z" fill="#F7C70A"/>
<path d="M106 0L109.668 6.95173L117.413 8.2918L111.935 13.9283L113.053 21.7082L106 18.24L98.9466 21.7082L100.065 13.9283L94.5873 8.2918L102.332 6.95173L106 0Z" fill="#F7C70A"/>
<path d="M137 0L140.668 6.95173L148.413 8.2918L142.935 13.9283L144.053 21.7082L137 18.24L129.947 21.7082L131.065 13.9283L125.587 8.2918L133.332 6.95173L137 0Z" fill="#F7C70A"/>
</svg>
