<svg version="1.1" id="svg2" xmlns="http://www.w3.org/2000/svg" x="0" y="0" width="506.801" height="118.926" viewBox="42.824 100.919 506.801 118.926" xml:space="preserve"><g id="g38" transform="scale(4.633)"><path id="path40" fill="#FF0303" d="M18.424 22.056h-3.008c-2.955 0-5.461 2.249-5.461 6.616 0 2.62 1.214 4.552 3.377 5.504L9.296 41.48c-.132.238 0 .423.211.423h1.873c.158 0 .264-.053.317-.185l3.667-7.172h1.319v7.172c0 .079.079.185.184.185h1.636c.158 0 .211-.079.211-.211V22.32c0-.185-.105-.264-.29-.264zm-1.741 10.797h-1.108c-1.741 0-3.429-1.27-3.429-4.446 0-3.309 1.583-4.658 3.192-4.658h1.346v9.104z"/><path id="path42" fill="none" d="M34.488 32.155c-.185 3.176-.712 5.769-2.058 8.071h3.825v-9.924h-1.688c-.001.45-.027 1.165-.079 1.853z"/><path id="path44" fill="none" d="M44.407 29.958c-.923 0-1.477 1.137-1.715 3.387-.053.424-.053.821-.053.821s.95-.105 1.556-.105h1.741s0-.477-.026-.9c-.131-2.039-.658-3.203-1.503-3.203z"/><path id="path46" d="M28.341 28.635h-1.636c-.132 0-.211.106-.211.185v5.055H23.46V28.82c0-.132-.052-.185-.184-.185H21.64c-.131 0-.211.079-.211.185v12.862c0 .132.053.211.184.211h1.663c.105 0 .184-.079.184-.211v-6.14h3.034v6.14c0 .132.079.211.211.211h1.636c.132 0 .184-.106.184-.211V28.82a.18.18 0 0 0-.184-.185z"/><path id="path48" d="M65.687 41.047l-.211-.9c-.026-.079-.052-.106-.132-.106-.132 0-.844.29-1.873.29-2.005 0-2.981-1.931-2.981-5.001 0-2.7.818-5.372 2.189-5.372.37 0 .818.106 1.53.768.079.079.132.106.211.106.08 0 .159-.054.238-.186l.712-1.164a.43.43 0 0 0 .079-.239c0-.106-.106-.185-.264-.264-1.082-.556-1.82-.662-2.454-.662-2.479 0-4.405 2.964-4.405 7.595 0 3.996 1.847 6.298 4.485 6.298 1.109 0 2.296-.528 2.77-.873a.262.262 0 0 0 .106-.29z"/><path id="path50" d="M54.221 34.616l3.166-5.796c.053-.079.026-.185-.079-.185h-1.556c-.449 0-.607.159-.765.502l-2.375 4.949c-.132.291-.264.476-.396.556V28.82c0-.106-.053-.185-.158-.185h-1.715c-.079 0-.158.079-.158.185v12.889c0 .079.053.185.158.185h1.715c.106 0 .158-.079.158-.185v-6.643a.579.579 0 0 1 .185.238l3.007 6.192c.158.318.396.397.739.397h1.688c.106 0 .132-.106.08-.185l-3.694-7.092z"/><path id="path52" d="M39.105 40.226h-.317c-.396 0-.501-.159-.501-.476V28.82c0-.132-.053-.185-.158-.185h-5.277c-.132 0-.211.079-.211.185v.953c0 3.202-.184 7.33-1.873 10.453h-.581c-.158 0-.211.08-.211.212v3.864c0 .133.106.185.185.185h1.266c.29 0 .395-.211.395-.397v-2.197h5.646v2.409a.18.18 0 0 0 .184.185h1.346c.158 0 .316-.132.316-.397v-3.652c.001-.132-.078-.212-.209-.212zm-2.85 0H32.43c1.346-2.302 1.873-4.896 2.058-8.071a27.17 27.17 0 0 0 .079-1.853h1.688v9.924z"/><path id="path54" d="M44.486 28.318c-2.849 0-4.115 3.599-4.115 7.515 0 3.996 1.794 6.378 4.432 6.378 1.292 0 2.427-.502 3.007-.873.105-.053.131-.132.105-.238l-.211-.9c-.026-.105-.079-.158-.211-.158-.105 0-.871.29-1.952.29-2.031 0-2.981-1.772-2.981-4.101v-.626s1.029.123 1.636.123h3.852v-1.112c0-4.102-1.452-6.298-3.562-6.298zm-.29 5.743c-.607 0-1.556.105-1.556.105s0-.397.053-.821c.237-2.249.791-3.387 1.715-3.387.845 0 1.372 1.164 1.504 3.202.026.423.026.9.026.9h-1.742v.001z"/></g><path d="M337.579 100.919v41.465h3.401l16.133-41.465h6.398l-17.599 43.997 18.132 49.331h-6.531l-16.533-46.53h-3.401v46.53h-6v-93.328h6zm65.663 78.928c0 4.667 0 10.401.533 14.399h-5.333l-.533-7.065h-.401c-2.398 4.933-6.532 8.132-11.998 8.132-7.866 0-14.133-6.667-14.133-17.598 0-15.466 11.6-22.665 26.131-22.8v-2.398c0-10.934-1.732-18.267-11.066-18.267-3.2 0-6.531 1.202-9.065 3.067l-1.601-4.399c2.134-1.868 7.065-3.733 11.867-3.733 8.667 0 15.6 5.065 15.6 20.398v30.264zm-5.734-20c-4.932 0-20.132.401-20.132 17.466 0 9.599 4.667 12.935 8.933 12.935 5.466 0 9.732-4.402 10.935-12.133.265-1.467.265-2.934.265-4.134v-14.134zm21.328-9.864c0-11.199-.398-16.265-.531-19.733h5.466l.266 8.534h.268c3.999-7.868 9.199-9.6 13.598-9.6 9.334 0 17.734 9.6 17.734 32.797 0 24.399-9.735 33.332-19.198 33.332-6.536 0-9.867-4.133-11.6-8.132h-.269v32.664h-5.733v-69.862zm5.733 20.665c0 1.732 0 3.466.269 5.198 2.397 12.401 8.399 14.402 11.731 14.402 9.998 0 13.065-13.335 13.065-28 0-13.998-3.333-27.999-13.332-27.999-5.866 0-11.067 7.866-11.598 15.468-.135 1.732-.135 3.333-.135 5.065v15.866zm70.794-40.398v5.065h-14.8v58.931h-5.731v-58.931h-14.799v-5.065h35.33zm13.598 0v23.999c.531-.132 3.065-.401 5.864-.401 12.133 0 22 7.066 22 19.866 0 6.535-2.401 11.6-6.398 15.067-4.535 3.999-10.8 6.132-16.4 6.132-3.601 0-7.198-.398-10.799-.934V130.25h5.733zm0 59.064c1.865.398 3.333.534 5.198.534 9.334 0 16.532-6.135 16.532-15.734 0-10.001-7.467-15.333-17.065-15.333-1.865 0-3.2.135-4.665.401v30.132zm40.664-59.064v63.996h-5.2V130.25h5.2z"/></svg>