<svg width="173" height="74" viewBox="0 0 173 74" fill="none" xmlns="http://www.w3.org/2000/svg">
<g clip-path="url(#clip0)">
<path d="M73.8204 37.0003C73.8204 32.4486 72.9601 28.1072 71.4603 24.0803C71.0635 37.3349 57.6245 47.597 49.7345 54.388H69.4838C72.2444 49.2027 73.8204 43.2871 73.8204 37.0003ZM59.5432 7.81511C53.2902 2.93477 45.4501 0 36.911 0C16.5258 0 0 16.5664 0 37.0003C0 57.434 16.5258 74 36.911 74C46.2457 74 54.7453 70.4989 61.2453 64.7692H34.523L34.4416 56.9025C50.5427 42.8709 60.413 33.3816 60.413 24.2158C60.413 20.8093 59.1186 16.5107 53.2938 16.5107C48.6814 16.5107 44.2319 19.189 45.0406 30.3805H35.656C33.3092 17.4046 40.3483 7.10296 53.7779 7.10296C55.8599 7.10296 57.7859 7.35212 59.5432 7.81511Z" fill="#A3C626"/>
<path d="M108.057 25.5734H116.788C117.086 18.9167 114.848 8.36792 100.447 8.36792C89.8502 8.36792 82.1641 14.7276 82.1641 27.9672C82.1641 29.7626 82.2381 39.038 82.2381 44.7977C82.2381 59.1615 92.164 62.3024 100.521 62.3024C105.521 62.3024 112.759 61.1798 116.116 57.5147V34.6245H99.6999V42.9281H107.013V53.0268C101.491 54.8965 91.4168 55.6451 91.4168 42.9281V27.9672C91.4168 19.0653 95.5216 15.9986 100.072 15.9986C104.774 15.9986 108.057 18.3925 108.057 25.5734ZM172.997 47.7893C173.37 27.2944 149.94 34.1003 150.163 22.656C150.237 18.6175 152.849 15.9986 157.104 15.9986C161.655 15.9986 164.34 18.6917 164.265 25.724H172.847C173.071 19.3645 171.579 8.51853 157.402 8.51853C148.596 8.51853 141.359 12.8579 141.209 22.5069C140.836 42.1789 164.416 35.7465 164.043 47.6407C163.893 52.5026 160.385 54.6715 156.431 54.6715C151.806 54.6715 148.074 51.9786 148.821 43.8999H140.163C139.193 54.5973 143.895 62.2281 156.357 62.2281C166.878 62.2281 172.847 56.3921 172.997 47.7893ZM133.576 61.5532H124.772V9.19133H133.576V61.5532ZM133.576 61.5532H124.772V9.19133H133.576V61.5532Z" fill="white"/>
</g>
<defs>
<clipPath id="clip0">
<rect width="173" height="74" fill="white"/>
</clipPath>
</defs>
</svg>
