<svg width="97" height="93" viewBox="0 0 97 93" fill="none" xmlns="http://www.w3.org/2000/svg">
<path fill-rule="evenodd" clip-rule="evenodd" d="M96.9975 92.2542L89.596 72.1644C92.0632 70.6372 96.9975 63.0007 96.9975 44.6732C96.9975 43.9803 96.9981 43.2965 96.9988 42.6216C97.0192 20.9841 97.0308 8.62724 75.4979 5.55111C73.152 5.21597 70.3969 4.77461 67.3523 4.28688C41.5801 0.158255 -4.93286 -7.29297 0.425776 18.2394C6.41745 46.7879 14.8773 80.9757 24.041 83.7953C33.2048 86.615 45.5406 85.5576 58.9337 82.0331C69.6483 79.2135 76.7913 78.0386 79.0235 77.8037L96.9975 92.2542ZM51.3455 35.6525L59.7013 17.7783H75.8317L58.6114 49.3124V68.6398H44.0796V49.3124L26.8594 17.7783H42.9897L51.3455 35.6525Z" fill="#ED484A"/>
</svg>
