<svg width="275" height="65" viewBox="0 0 275 65" fill="none" xmlns="http://www.w3.org/2000/svg">
<g clip-path="url(#clip0)">
<path opacity="0.1" d="M254.252 29.6602L275.001 0H233.512L254.252 29.6602Z" fill="url(#paint0_linear)"/>
<path d="M186.013 11.4795H169.648L176.968 22.4118H193.333L186.013 11.4795Z" fill="url(#paint1_linear)"/>
<path d="M233.777 17.1035L228.295 24.8619L223.107 17.1035H196.183L174.133 50.2067H190.387L192.916 46.5874L195.067 50.2067H211.93L201.712 33.5762L210.711 19.7577L221.381 35.488L212.945 50.2067H227.279L248.315 17.1035H233.777Z" fill="url(#paint2_linear)"/>
<path d="M87.6267 17.1035H79.3473H67.3575H59.0781V28.24H67.3575V50.2067H79.3473V28.24H87.6267V17.1035Z" fill="url(#paint3_linear)"/>
<path d="M212.557 17.1035H196.46L185.273 33.5762H201.481L212.557 17.1035Z" fill="url(#paint4_linear)"/>
<path d="M39.8533 17.1035L28.5742 50.2067H41.5332L42.3639 46.5317H51.0586L51.8893 50.2067H64.8483L53.5692 17.1035H39.8533ZM44.2745 38.0958L46.7113 27.3677L49.148 38.0958H44.2745Z" fill="url(#paint5_linear)"/>
<path d="M92.5955 17.1035L81.3164 50.2067H94.2754L95.1061 46.5317H103.801L104.632 50.2067H117.59L106.311 17.1035H92.5955ZM97.0167 38.0958L99.4534 27.3677L101.89 38.0958H97.0167Z" fill="url(#paint6_linear)"/>
<path d="M130.873 17.4004H118.883V50.2066H141.109V39.0701H130.873V17.4004Z" fill="url(#paint7_linear)"/>
<path d="M159.649 16.0547C149.403 16.0547 141.105 23.8966 141.105 33.5761C141.105 43.2556 149.413 51.0975 159.649 51.0975C169.894 51.0975 178.192 43.2556 178.192 33.5761C178.192 23.8966 169.894 16.0547 159.649 16.0547ZM159.649 40.323C156.446 40.323 153.852 37.3068 153.852 33.5761C153.852 29.8454 156.446 26.8292 159.649 26.8292C162.851 26.8292 165.445 29.8454 165.445 33.5761C165.445 37.3068 162.851 40.323 159.649 40.323Z" fill="url(#paint8_linear)"/>
<path d="M211.932 50.2067L201.714 33.5762H185.211L195.069 50.2067H211.932Z" fill="url(#paint9_linear)"/>
<path d="M16.78 33.7249C19.0782 29.7251 23.5179 27.5627 28.2714 28.333C29.3421 28.4908 30.2651 28.797 31.1788 29.261L35.4708 16.4819C33.7817 15.8694 32.1018 15.2476 30.2651 14.9414C16.4754 12.4728 3.45178 20.788 0.544315 33.7249C0.479705 34.0312 0.452014 34.1704 0.387404 34.4952C-2.06779 47.8961 7.28225 60.833 21.3673 63.4501C22.2903 63.6078 23.0564 63.7563 23.9702 63.7563L28.5667 50.2069C27.1915 50.5132 25.8069 50.5132 24.2748 50.2069C18.3029 49.1304 14.3155 43.2745 15.3862 37.27C15.7093 36.0357 16.1708 34.8014 16.78 33.7249Z" fill="url(#paint10_linear)"/>
<path d="M34.3223 64.143H34.116V64.2711H34.2224C34.2671 64.2717 34.3019 64.2832 34.327 64.3055C34.3521 64.3278 34.3646 64.3582 34.3646 64.3966C34.3646 64.4352 34.352 64.4659 34.3267 64.4889C34.3015 64.5118 34.267 64.5236 34.2233 64.5244H34.0593V64.0966H34.3223V64.143ZM34.116 64.3175V64.4783H34.2192C34.2472 64.4783 34.2689 64.4708 34.2844 64.4559C34.3001 64.4411 34.3079 64.4211 34.3079 64.396C34.3079 64.3719 34.3004 64.3529 34.2853 64.339C34.2704 64.3251 34.2491 64.3179 34.2215 64.3175H34.116ZM34.6829 64.3267H34.4974V64.4783H34.7128V64.5244H34.441V64.0966H34.7099V64.143H34.4974V64.2805H34.6829V64.3267ZM35.0978 64.3887C35.0925 64.4339 35.0757 64.4689 35.0475 64.4936C35.0195 64.518 34.9822 64.5303 34.9356 64.5303C34.885 64.5303 34.8445 64.5122 34.8139 64.4759C34.7836 64.4397 34.7684 64.3912 34.7684 64.3305V64.2893C34.7684 64.2496 34.7754 64.2146 34.7895 64.1844C34.8038 64.1543 34.824 64.1311 34.8501 64.1151C34.8761 64.0988 34.9063 64.0907 34.9406 64.0907C34.986 64.0907 35.0225 64.1034 35.0499 64.1289C35.0773 64.1542 35.0933 64.1892 35.0978 64.2341H35.0411C35.0362 64.2 35.0255 64.1753 35.009 64.16C34.9928 64.1448 34.97 64.1371 34.9406 64.1371C34.9045 64.1371 34.8762 64.1504 34.8556 64.1771C34.8353 64.2037 34.8251 64.2416 34.8251 64.2908V64.3322C34.8251 64.3787 34.8348 64.4156 34.8542 64.443C34.8736 64.4704 34.9007 64.4842 34.9356 64.4842C34.9669 64.4842 34.9909 64.4771 35.0076 64.463C35.0244 64.4487 35.0356 64.4239 35.0411 64.3887H35.0978ZM35.5018 64.5244H35.4451V64.143H35.2341V64.5244H35.1777V64.0966H35.5018V64.5244ZM35.9282 64.0966V64.5244H35.8718V64.143H35.7184L35.7107 64.3126C35.7078 64.3694 35.7019 64.4121 35.6931 64.4407C35.6845 64.4693 35.6718 64.4903 35.6549 64.5038C35.6381 64.5172 35.6155 64.524 35.5873 64.5244H35.5688V64.4783L35.5806 64.4777C35.5988 64.4763 35.6128 64.4704 35.6226 64.4601C35.6324 64.4495 35.6398 64.4327 35.6449 64.4098C35.65 64.3869 35.6536 64.3516 35.6558 64.304L35.6646 64.0966H35.9282ZM36.2723 64.4128H36.093L36.0528 64.5244H35.9946L36.158 64.0966H36.2073L36.371 64.5244H36.3131L36.2723 64.4128ZM36.1101 64.3663H36.2555L36.1827 64.1662L36.1101 64.3663ZM36.686 64.143H36.5485V64.5244H36.4924V64.143H36.3551V64.0966H36.686V64.143ZM37.0783 64.5244H37.0216V64.3267H36.8059V64.5244H36.7495V64.0966H36.8059V64.2805H37.0216V64.0966H37.0783V64.5244ZM37.5076 64.3243C37.5076 64.3662 37.5006 64.4029 37.4865 64.4342C37.4723 64.4654 37.4524 64.4892 37.4265 64.5056C37.4006 64.5221 37.3705 64.5303 37.336 64.5303C37.3023 64.5303 37.2724 64.5221 37.2464 64.5056C37.2203 64.489 37.2 64.4654 37.1856 64.4348C37.1713 64.404 37.1639 64.3685 37.1635 64.3281V64.2973C37.1635 64.2561 37.1707 64.2198 37.185 64.1883C37.1993 64.1567 37.2194 64.1326 37.2455 64.116C37.2717 64.0991 37.3017 64.0907 37.3354 64.0907C37.3697 64.0907 37.3999 64.099 37.4259 64.1157C37.4522 64.1321 37.4723 64.1561 37.4865 64.1877C37.5006 64.219 37.5076 64.2555 37.5076 64.2973V64.3243ZM37.4515 64.2967C37.4515 64.2459 37.4413 64.2071 37.4209 64.18C37.4006 64.1528 37.372 64.1392 37.3354 64.1392C37.2998 64.1392 37.2717 64.1528 37.2511 64.18C37.2307 64.2071 37.2202 64.2447 37.2196 64.2929V64.3243C37.2196 64.3735 37.2299 64.4122 37.2505 64.4404C37.2713 64.4684 37.2998 64.4824 37.336 64.4824C37.3724 64.4824 37.4006 64.4692 37.4206 64.4427C37.4406 64.4161 37.4509 64.378 37.4515 64.3284V64.2967ZM37.8341 64.3267H37.6487V64.4783H37.864V64.5244H37.5922V64.0966H37.8611V64.143H37.6487V64.2805H37.8341V64.3267ZM38.14 64.3569V64.5244H38.0835V64.0966H38.2413C38.2882 64.0966 38.3248 64.1085 38.3512 64.1324C38.3779 64.1563 38.3912 64.188 38.3912 64.2273C38.3912 64.2689 38.3782 64.3009 38.3521 64.3234C38.3263 64.3458 38.2891 64.3569 38.2408 64.3569H38.14ZM38.14 64.3108H38.2413C38.2715 64.3108 38.2946 64.3037 38.3107 64.2896C38.3268 64.2753 38.3348 64.2548 38.3348 64.2279C38.3348 64.2025 38.3268 64.1821 38.3107 64.1668C38.2946 64.1515 38.2726 64.1436 38.2446 64.143H38.14V64.3108ZM38.705 64.3267H38.5196V64.4783H38.735V64.5244H38.4632V64.0966H38.7321V64.143H38.5196V64.2805H38.705V64.3267ZM38.9163 64.3322H38.8643V64.5244H38.8079V64.0966H38.8643V64.2852H38.9084L39.0579 64.0966H39.1282L38.9648 64.304L39.1402 64.5244H39.0712L38.9163 64.3322ZM39.5155 64.0966V64.5244H39.459V64.143H39.3057L39.298 64.3126C39.2951 64.3694 39.2892 64.4121 39.2804 64.4407C39.2718 64.4693 39.259 64.4903 39.2422 64.5038C39.2253 64.5172 39.2028 64.524 39.1746 64.5244H39.1561V64.4783L39.1678 64.4777C39.1861 64.4763 39.2001 64.4704 39.2099 64.4601C39.2197 64.4495 39.2271 64.4327 39.2322 64.4098C39.2373 64.3869 39.2409 64.3516 39.2431 64.304L39.2519 64.0966H39.5155ZM39.8596 64.4128H39.6803L39.6401 64.5244H39.5819L39.7452 64.0966H39.7946L39.9583 64.5244H39.9004L39.8596 64.4128ZM39.6974 64.3663H39.8428L39.7699 64.1662L39.6974 64.3663ZM40.0888 64.0966L40.2286 64.4457L40.3685 64.0966H40.4417V64.5244H40.3852V64.3578L40.3905 64.178L40.2501 64.5244H40.2069L40.0667 64.1789L40.0723 64.3578V64.5244H40.0159V64.0966H40.0888ZM40.8701 64.5244H40.8134V64.3267H40.5977V64.5244H40.5413V64.0966H40.5977V64.2805H40.8134V64.0966H40.8701V64.5244ZM41.2994 64.3243C41.2994 64.3662 41.2923 64.4029 41.2782 64.4342C41.2641 64.4654 41.2442 64.4892 41.2183 64.5056C41.1924 64.5221 41.1623 64.5303 41.1278 64.5303C41.0941 64.5303 41.0642 64.5221 41.0382 64.5056C41.0121 64.489 40.9918 64.4654 40.9773 64.4348C40.963 64.404 40.9557 64.3685 40.9553 64.3281V64.2973C40.9553 64.2561 40.9625 64.2198 40.9768 64.1883C40.9911 64.1567 41.0112 64.1326 41.0373 64.116C41.0635 64.0991 41.0935 64.0907 41.1272 64.0907C41.1615 64.0907 41.1917 64.099 41.2177 64.1157C41.244 64.1321 41.2641 64.1561 41.2782 64.1877C41.2923 64.219 41.2994 64.2555 41.2994 64.2973V64.3243ZM41.2433 64.2967C41.2433 64.2459 41.2331 64.2071 41.2127 64.18C41.1923 64.1528 41.1638 64.1392 41.1272 64.1392C41.0916 64.1392 41.0634 64.1528 41.0429 64.18C41.0225 64.2071 41.012 64.2447 41.0114 64.2929V64.3243C41.0114 64.3735 41.0217 64.4122 41.0423 64.4404C41.0631 64.4684 41.0916 64.4824 41.1278 64.4824C41.1642 64.4824 41.1924 64.4692 41.2124 64.4427C41.2324 64.4161 41.2427 64.378 41.2433 64.3284V64.2967ZM41.6259 64.3267H41.4404V64.4783H41.6558V64.5244H41.384V64.0966H41.6529V64.143H41.4404V64.2805H41.6259V64.3267ZM34.3881 65.5244H34.3314V65.143H34.1204V65.5244H34.064V65.0966H34.3881V65.5244ZM34.5474 65.3569V65.5244H34.491V65.0966H34.6488C34.6956 65.0966 34.7322 65.1085 34.7587 65.1324C34.7853 65.1563 34.7986 65.188 34.7986 65.2273C34.7986 65.2689 34.7856 65.3009 34.7596 65.3234C34.7337 65.3458 34.6966 65.3569 34.6482 65.3569H34.5474ZM34.5474 65.3108H34.6488C34.6789 65.3108 34.7021 65.3037 34.7181 65.2896C34.7342 65.2753 34.7422 65.2548 34.7422 65.2279C34.7422 65.2025 34.7342 65.1821 34.7181 65.1668C34.7021 65.1515 34.68 65.1436 34.652 65.143H34.5474V65.3108ZM35.1997 65.3243C35.1997 65.3662 35.1927 65.4029 35.1786 65.4342C35.1645 65.4654 35.1445 65.4892 35.1186 65.5056C35.0928 65.5221 35.0626 65.5303 35.0281 65.5303C34.9944 65.5303 34.9646 65.5221 34.9385 65.5056C34.9125 65.489 34.8922 65.4654 34.8777 65.4348C34.8634 65.404 34.856 65.3685 34.8556 65.3281V65.2973C34.8556 65.2561 34.8628 65.2198 34.8771 65.1883C34.8914 65.1567 34.9116 65.1326 34.9376 65.116C34.9639 65.0991 34.9939 65.0907 35.0275 65.0907C35.0618 65.0907 35.092 65.099 35.1181 65.1157C35.1443 65.1321 35.1645 65.1561 35.1786 65.1877C35.1927 65.219 35.1997 65.2555 35.1997 65.2973V65.3243ZM35.1436 65.2967C35.1436 65.2459 35.1334 65.2071 35.1131 65.18C35.0927 65.1528 35.0642 65.1392 35.0275 65.1392C34.9919 65.1392 34.9638 65.1528 34.9432 65.18C34.9228 65.2071 34.9124 65.2447 34.9118 65.2929V65.3243C34.9118 65.3735 34.9221 65.4122 34.9426 65.4404C34.9634 65.4684 34.9919 65.4824 35.0281 65.4824C35.0646 65.4824 35.0928 65.4692 35.1128 65.4427C35.1327 65.4161 35.143 65.378 35.1436 65.3284V65.2967ZM35.5991 65.3887C35.5938 65.4339 35.577 65.4689 35.5488 65.4936C35.5208 65.518 35.4835 65.5303 35.4369 65.5303C35.3863 65.5303 35.3458 65.5122 35.3152 65.4759C35.2849 65.4397 35.2697 65.3912 35.2697 65.3305V65.2893C35.2697 65.2496 35.2767 65.2146 35.2908 65.1844C35.3051 65.1543 35.3253 65.1311 35.3514 65.1151C35.3774 65.0988 35.4076 65.0907 35.4419 65.0907C35.4873 65.0907 35.5238 65.1034 35.5512 65.1289C35.5786 65.1542 35.5946 65.1892 35.5991 65.2341H35.5424C35.5375 65.2 35.5268 65.1753 35.5103 65.16C35.4941 65.1448 35.4713 65.1371 35.4419 65.1371C35.4058 65.1371 35.3775 65.1504 35.3569 65.1771C35.3366 65.2037 35.3264 65.2416 35.3264 65.2908V65.3322C35.3264 65.3787 35.3361 65.4156 35.3555 65.443C35.3749 65.4704 35.402 65.4842 35.4369 65.4842C35.4682 65.4842 35.4922 65.4771 35.5089 65.463C35.5257 65.4487 35.5369 65.4239 35.5424 65.3887H35.5991ZM35.9632 65.143H35.8256V65.5244H35.7695V65.143H35.6323V65.0966H35.9632V65.143ZM36.083 65.3569V65.5244H36.0266V65.0966H36.1844C36.2312 65.0966 36.2679 65.1085 36.2943 65.1324C36.321 65.1563 36.3343 65.188 36.3343 65.2273C36.3343 65.2689 36.3213 65.3009 36.2952 65.3234C36.2693 65.3458 36.2322 65.3569 36.1838 65.3569H36.083ZM36.083 65.3108H36.1844C36.2146 65.3108 36.2377 65.3037 36.2538 65.2896C36.2698 65.2753 36.2779 65.2548 36.2779 65.2279C36.2779 65.2025 36.2698 65.1821 36.2538 65.1668C36.2377 65.1515 36.2157 65.1436 36.1877 65.143H36.083V65.3108ZM36.602 65.4128H36.4227L36.3825 65.5244H36.3243L36.4877 65.0966H36.537L36.7007 65.5244H36.6428L36.602 65.4128ZM36.4398 65.3663H36.5852L36.5124 65.1662L36.4398 65.3663ZM37.0871 65.5244H37.0304V65.3267H36.8147V65.5244H36.7583V65.0966H36.8147V65.2805H37.0304V65.0966H37.0871V65.5244ZM37.502 65.3887C37.4967 65.4339 37.48 65.4689 37.4518 65.4936C37.4238 65.518 37.3864 65.5303 37.3398 65.5303C37.2893 65.5303 37.2487 65.5122 37.2182 65.4759C37.1878 65.4397 37.1726 65.3912 37.1726 65.3305V65.2893C37.1726 65.2496 37.1797 65.2146 37.1938 65.1844C37.2081 65.1543 37.2283 65.1311 37.2543 65.1151C37.2804 65.0988 37.3105 65.0907 37.3448 65.0907C37.3903 65.0907 37.4267 65.1034 37.4541 65.1289C37.4816 65.1542 37.4975 65.1892 37.502 65.2341H37.4453C37.4404 65.2 37.4297 65.1753 37.4133 65.16C37.397 65.1448 37.3742 65.1371 37.3448 65.1371C37.3088 65.1371 37.2805 65.1504 37.2599 65.1771C37.2395 65.2037 37.2293 65.2416 37.2293 65.2908V65.3322C37.2293 65.3787 37.239 65.4156 37.2584 65.443C37.2778 65.4704 37.305 65.4842 37.3398 65.4842C37.3712 65.4842 37.3952 65.4771 37.4118 65.463C37.4287 65.4487 37.4398 65.4239 37.4453 65.3887H37.502ZM37.8661 65.143H37.7286V65.5244H37.6725V65.143H37.5352V65.0966H37.8661V65.143ZM37.9296 65.5244V65.0966H38.0694C38.1159 65.0966 38.1507 65.1062 38.1741 65.1254C38.1976 65.1446 38.2093 65.173 38.2093 65.2106C38.2093 65.2306 38.2036 65.2483 38.1923 65.2638C38.1809 65.2791 38.1654 65.2909 38.1458 65.2993C38.169 65.3058 38.1872 65.3181 38.2005 65.3364C38.214 65.3544 38.2208 65.3759 38.2208 65.401C38.2208 65.4394 38.2083 65.4696 38.1835 65.4915C38.1586 65.5134 38.1234 65.5244 38.078 65.5244H37.9296ZM37.986 65.3243V65.4783H38.0791C38.1054 65.4783 38.1261 65.4715 38.1411 65.458C38.1564 65.4443 38.1641 65.4255 38.1641 65.4016C38.1641 65.3501 38.136 65.3243 38.08 65.3243H37.986ZM37.986 65.2791H38.0712C38.0959 65.2791 38.1156 65.2729 38.1303 65.2605C38.1452 65.2482 38.1526 65.2314 38.1526 65.2103C38.1526 65.1868 38.1457 65.1697 38.132 65.1592C38.1183 65.1484 38.0975 65.143 38.0694 65.143H37.986V65.2791ZM38.6336 65.3243C38.6336 65.3662 38.6266 65.4029 38.6125 65.4342C38.5984 65.4654 38.5784 65.4892 38.5525 65.5056C38.5267 65.5221 38.4965 65.5303 38.462 65.5303C38.4283 65.5303 38.3985 65.5221 38.3724 65.5056C38.3463 65.489 38.3261 65.4654 38.3116 65.4348C38.2973 65.404 38.2899 65.3685 38.2895 65.3281V65.2973C38.2895 65.2561 38.2967 65.2198 38.311 65.1883C38.3253 65.1567 38.3455 65.1326 38.3715 65.116C38.3978 65.0991 38.4277 65.0907 38.4614 65.0907C38.4957 65.0907 38.5259 65.099 38.5519 65.1157C38.5782 65.1321 38.5984 65.1561 38.6125 65.1877C38.6266 65.219 38.6336 65.2555 38.6336 65.2973V65.3243ZM38.5775 65.2967C38.5775 65.2459 38.5673 65.2071 38.5469 65.18C38.5266 65.1528 38.4981 65.1392 38.4614 65.1392C38.4258 65.1392 38.3977 65.1528 38.3771 65.18C38.3567 65.2071 38.3462 65.2447 38.3457 65.2929V65.3243C38.3457 65.3735 38.3559 65.4122 38.3765 65.4404C38.3973 65.4684 38.4258 65.4824 38.462 65.4824C38.4985 65.4824 38.5267 65.4692 38.5466 65.4427C38.5666 65.4161 38.5769 65.378 38.5775 65.3284V65.2967Z" fill="#BFC5CE"/>
<path d="M34.3764 64.2832H34.1472V64.5244H34.0751V63.9781H34.4135V64.0374H34.1472V64.2243H34.3764V64.2832ZM34.7002 64.3034H34.5719V64.5244H34.4995V63.9781H34.6803C34.7418 63.9781 34.7891 63.9922 34.8221 64.0202C34.8554 64.0482 34.872 64.089 34.872 64.1425C34.872 64.1765 34.8628 64.2061 34.8443 64.2314C34.826 64.2567 34.8005 64.2755 34.7677 64.288L34.896 64.5199V64.5244H34.8187L34.7002 64.3034ZM34.5719 64.2445H34.6825C34.7183 64.2445 34.7467 64.2353 34.7677 64.2168C34.789 64.1983 34.7996 64.1735 34.7996 64.1425C34.7996 64.1087 34.7895 64.0828 34.7692 64.0648C34.7492 64.0468 34.7202 64.0377 34.6822 64.0374H34.5719V64.2445ZM35.2821 64.2719H35.0453V64.4655H35.3204V64.5244H34.9733V63.9781H35.3166V64.0374H35.0453V64.213H35.2821V64.2719ZM35.7188 64.2719H35.4821V64.4655H35.7571V64.5244H35.41V63.9781H35.7533V64.0374H35.4821V64.213H35.7188V64.2719ZM36.339 64.3818H36.1101L36.0587 64.5244H35.9844L36.193 63.9781H36.2561L36.465 64.5244H36.3911L36.339 64.3818ZM36.1319 64.3226H36.3176L36.2245 64.0671L36.1319 64.3226ZM36.5386 64.5244V63.9781H36.6928C36.7403 63.9781 36.7823 63.9887 36.8188 64.0097C36.8554 64.0307 36.8835 64.0606 36.9033 64.0993C36.9233 64.1381 36.9334 64.1826 36.9336 64.2329V64.2678C36.9336 64.3193 36.9236 64.3645 36.9036 64.4032C36.8839 64.442 36.8555 64.4718 36.8185 64.4925C36.7817 64.5133 36.7388 64.5239 36.6898 64.5244H36.5386ZM36.6106 64.0374V64.4655H36.6864C36.7419 64.4655 36.7851 64.4483 36.8158 64.4137C36.8469 64.3792 36.8624 64.3301 36.8624 64.2663V64.2344C36.8624 64.1724 36.8477 64.1242 36.8185 64.09C36.7894 64.0554 36.7482 64.0379 36.6947 64.0374H36.6106ZM37.2154 64.4287L37.3715 63.9781H37.4503L37.2477 64.5244H37.1839L36.9817 63.9781H37.0601L37.2154 64.4287ZM37.7242 64.3034H37.5958V64.5244H37.5234V63.9781H37.7043C37.7658 63.9781 37.8131 63.9922 37.8461 64.0202C37.8794 64.0482 37.896 64.089 37.896 64.1425C37.896 64.1765 37.8867 64.2061 37.8682 64.2314C37.85 64.2567 37.8245 64.2755 37.7917 64.288L37.92 64.5199V64.5244H37.8427L37.7242 64.3034ZM37.5958 64.2445H37.7065C37.7423 64.2445 37.7707 64.2353 37.7917 64.2168C37.8129 64.1983 37.8236 64.1735 37.8236 64.1425C37.8236 64.1087 37.8134 64.0828 37.7932 64.0648C37.7732 64.0468 37.7442 64.0377 37.7061 64.0374H37.5958V64.2445ZM38.3061 64.2719H38.0693V64.4655H38.3443V64.5244H37.9973V63.9781H38.3406V64.0374H38.0693V64.213H38.3061V64.2719ZM38.8189 64.0374H38.6434V64.5244H38.5717V64.0374H38.3965V63.9781H38.8189V64.0374ZM38.9773 64.5244H38.9052V63.9781H38.9773V64.5244ZM39.2703 64.2809C39.2085 64.2632 39.1635 64.2414 39.1352 64.2156C39.1072 64.1896 39.0932 64.1576 39.0932 64.1196C39.0932 64.0766 39.1103 64.0411 39.1446 64.013C39.1791 63.9848 39.2239 63.9706 39.2789 63.9706C39.3164 63.9706 39.3498 63.9779 39.3791 63.9924C39.4086 64.0069 39.4314 64.0269 39.4474 64.0524C39.4636 64.0779 39.4718 64.1058 39.4718 64.1361H39.3993C39.3993 64.1031 39.3888 64.0772 39.3678 64.0584C39.3468 64.0394 39.3172 64.0299 39.2789 64.0299C39.2434 64.0299 39.2156 64.0378 39.1956 64.0536C39.1759 64.0691 39.166 64.0907 39.166 64.1185C39.166 64.1407 39.1754 64.1596 39.1941 64.1751C39.2131 64.1904 39.2453 64.2044 39.2905 64.2171C39.3361 64.2299 39.3716 64.244 39.3971 64.2595C39.4229 64.2748 39.4419 64.2927 39.4541 64.3132C39.4666 64.3337 39.4729 64.3578 39.4729 64.3856C39.4729 64.4299 39.4556 64.4654 39.4211 64.4921C39.3866 64.5187 39.3404 64.5319 39.2827 64.5319C39.2451 64.5319 39.2101 64.5248 39.1776 64.5105C39.1451 64.496 39.12 64.4763 39.1022 64.4513C39.0847 64.4262 39.0759 64.3979 39.0759 64.3661H39.1484C39.1484 64.3991 39.1605 64.4252 39.1847 64.4445C39.2093 64.4635 39.2419 64.473 39.2827 64.473C39.3207 64.473 39.3498 64.4653 39.3701 64.4498C39.3903 64.4342 39.4005 64.4131 39.4005 64.3863C39.4005 64.3596 39.3911 64.3389 39.3723 64.3244C39.3536 64.3097 39.3196 64.2952 39.2703 64.2809ZM39.6428 64.5244H39.5708V63.9781H39.6428V64.5244ZM40.1947 64.5244H40.1223L39.8473 64.1035V64.5244H39.7749V63.9781H39.8473L40.1231 64.401V63.9781H40.1947V64.5244ZM40.726 64.4528C40.7075 64.4793 40.6816 64.4992 40.6483 64.5124C40.6153 64.5254 40.5768 64.5319 40.5328 64.5319C40.4883 64.5319 40.4487 64.5215 40.4142 64.5008C40.3797 64.4798 40.3529 64.45 40.3339 64.4115C40.3152 64.373 40.3055 64.3283 40.305 64.2775V64.2299C40.305 64.1476 40.3242 64.0838 40.3624 64.0386C40.401 63.9933 40.455 63.9706 40.5245 63.9706C40.5816 63.9706 40.6274 63.9853 40.6622 64.0145C40.697 64.0436 40.7182 64.0848 40.726 64.1384H40.654C40.6405 64.0661 40.5974 64.0299 40.5249 64.0299C40.4766 64.0299 40.44 64.0469 40.415 64.0809C40.3902 64.1147 40.3777 64.1637 40.3775 64.228V64.2727C40.3775 64.3339 40.3915 64.3827 40.4195 64.419C40.4475 64.455 40.4854 64.473 40.5332 64.473C40.5602 64.473 40.5838 64.47 40.6041 64.464C40.6243 64.458 40.6411 64.4479 40.6543 64.4336V64.3109H40.5279V64.2524H40.726V64.4528ZM41.198 64.2809C41.1362 64.2632 41.0912 64.2414 41.0629 64.2156C41.0349 64.1896 41.0209 64.1576 41.0209 64.1196C41.0209 64.0766 41.038 64.0411 41.0723 64.013C41.1068 63.9848 41.1516 63.9706 41.2066 63.9706C41.2441 63.9706 41.2775 63.9779 41.3068 63.9924C41.3363 64.0069 41.3591 64.0269 41.3751 64.0524C41.3913 64.0779 41.3994 64.1058 41.3994 64.1361H41.327C41.327 64.1031 41.3165 64.0772 41.2955 64.0584C41.2745 64.0394 41.2449 64.0299 41.2066 64.0299C41.1711 64.0299 41.1433 64.0378 41.1233 64.0536C41.1036 64.0691 41.0937 64.0907 41.0937 64.1185C41.0937 64.1407 41.1031 64.1596 41.1218 64.1751C41.1408 64.1904 41.173 64.2044 41.2182 64.2171C41.2638 64.2299 41.2993 64.244 41.3248 64.2595C41.3506 64.2748 41.3696 64.2927 41.3818 64.3132C41.3943 64.3337 41.4006 64.3578 41.4006 64.3856C41.4006 64.4299 41.3833 64.4654 41.3488 64.4921C41.3143 64.5187 41.2681 64.5319 41.2104 64.5319C41.1728 64.5319 41.1378 64.5248 41.1053 64.5105C41.0728 64.496 41.0477 64.4763 41.0299 64.4513C41.0124 64.4262 41.0036 64.3979 41.0036 64.3661H41.076C41.076 64.3991 41.0882 64.4252 41.1124 64.4445C41.1369 64.4635 41.1696 64.473 41.2104 64.473C41.2484 64.473 41.2775 64.4653 41.2978 64.4498C41.318 64.4342 41.3282 64.4131 41.3282 64.3863C41.3282 64.3596 41.3188 64.3389 41.3 64.3244C41.2813 64.3097 41.2472 64.2952 41.198 64.2809ZM41.5653 64.3106V64.5244H41.4932V63.9781H41.6947C41.7545 63.9781 41.8013 63.9934 41.835 64.0239C41.8691 64.0544 41.8861 64.0948 41.8861 64.1451C41.8861 64.1981 41.8694 64.239 41.8362 64.2678C41.8031 64.2963 41.7557 64.3106 41.694 64.3106H41.5653ZM41.5653 64.2517H41.6947C41.7332 64.2517 41.7628 64.2427 41.7833 64.2246C41.8038 64.2064 41.814 64.1801 41.814 64.1459C41.814 64.1133 41.8038 64.0873 41.7833 64.0678C41.7628 64.0483 41.7346 64.0382 41.6988 64.0374H41.5653V64.2517ZM42.2279 64.3818H41.999L41.9476 64.5244H41.8733L42.0819 63.9781H42.1449L42.3539 64.5244H42.28L42.2279 64.3818ZM42.0208 64.3226H42.2065L42.1134 64.0671L42.0208 64.3226ZM42.8248 64.3511C42.818 64.4089 42.7966 64.4535 42.7606 64.485C42.7248 64.5163 42.6772 64.5319 42.6177 64.5319C42.5531 64.5319 42.5014 64.5088 42.4623 64.4625C42.4236 64.4162 42.4042 64.3543 42.4042 64.2768V64.2243C42.4042 64.1735 42.4132 64.1288 42.4312 64.0903C42.4495 64.0518 42.4752 64.0223 42.5085 64.0018C42.5418 63.981 42.5803 63.9706 42.624 63.9706C42.6821 63.9706 42.7286 63.9869 42.7636 64.0194C42.7986 64.0517 42.819 64.0965 42.8248 64.1537H42.7524C42.7461 64.1102 42.7325 64.0787 42.7115 64.0592C42.6907 64.0397 42.6616 64.0299 42.624 64.0299C42.578 64.0299 42.5419 64.0469 42.5156 64.0809C42.4896 64.115 42.4766 64.1634 42.4766 64.2261V64.279C42.4766 64.3383 42.489 64.3855 42.5137 64.4205C42.5385 64.4555 42.5731 64.473 42.6177 64.473C42.6577 64.473 42.6883 64.464 42.7096 64.446C42.7311 64.4277 42.7454 64.3961 42.7524 64.3511H42.8248ZM43.2322 64.2719H42.9955V64.4655H43.2705V64.5244H42.9234V63.9781H43.2667V64.0374H42.9955V64.213H43.2322V64.2719Z" fill="#BFC5CE"/>
<path d="M34.3556 64.2911H34.1369V64.47H34.3909V64.5244H34.0703V64.0197H34.3875V64.0745H34.1369V64.2367H34.3556V64.2911ZM34.6225 64.2994C34.5654 64.283 34.5238 64.2629 34.4977 64.2391C34.4718 64.2151 34.4589 64.1855 34.4589 64.1504C34.4589 64.1106 34.4747 64.0778 34.5064 64.0519C34.5383 64.0258 34.5796 64.0128 34.6305 64.0128C34.6651 64.0128 34.696 64.0195 34.723 64.0329C34.7503 64.0463 34.7713 64.0648 34.7861 64.0883C34.8011 64.1119 34.8087 64.1377 34.8087 64.1656H34.7418C34.7418 64.1351 34.732 64.1112 34.7126 64.0939C34.6932 64.0763 34.6658 64.0675 34.6305 64.0675C34.5977 64.0675 34.572 64.0748 34.5535 64.0894C34.5353 64.1037 34.5261 64.1237 34.5261 64.1493C34.5261 64.1699 34.5348 64.1874 34.5521 64.2017C34.5697 64.2158 34.5994 64.2287 34.6412 64.2405C34.6833 64.2523 34.7161 64.2654 34.7397 64.2797C34.7635 64.2938 34.781 64.3103 34.7924 64.3293C34.8039 64.3482 34.8097 64.3705 34.8097 64.3962C34.8097 64.4371 34.7938 64.4699 34.7619 64.4946C34.73 64.5191 34.6873 64.5313 34.6339 64.5313C34.5993 64.5313 34.5669 64.5248 34.5369 64.5116C34.5068 64.4982 34.4836 64.4799 34.4672 64.4568C34.451 64.4337 34.4429 64.4075 34.4429 64.3781H34.5098C34.5098 64.4086 34.5211 64.4328 34.5435 64.4506C34.5661 64.4681 34.5963 64.4769 34.6339 64.4769C34.6691 64.4769 34.696 64.4698 34.7147 64.4554C34.7334 64.4411 34.7428 64.4216 34.7428 64.3968C34.7428 64.3721 34.7341 64.3531 34.7168 64.3397C34.6995 64.326 34.668 64.3126 34.6225 64.2994ZM34.9619 64.3268V64.5244H34.8953V64.0197H35.0815C35.1367 64.0197 35.1799 64.0338 35.2111 64.062C35.2425 64.0902 35.2583 64.1275 35.2583 64.174C35.2583 64.2229 35.2429 64.2607 35.2122 64.2873C35.1816 64.3137 35.1379 64.3268 35.0808 64.3268H34.9619ZM34.9619 64.2724H35.0815C35.1171 64.2724 35.1443 64.2641 35.1633 64.2474C35.1822 64.2306 35.1917 64.2063 35.1917 64.1746C35.1917 64.1446 35.1822 64.1206 35.1633 64.1025C35.1443 64.0845 35.1183 64.0752 35.0853 64.0745H34.9619V64.2724ZM35.574 64.3927H35.3626L35.3151 64.5244H35.2465L35.4392 64.0197H35.4974L35.6905 64.5244H35.6222L35.574 64.3927ZM35.3827 64.3379H35.5543L35.4683 64.1019L35.3827 64.3379ZM36.1256 64.3643C36.1193 64.4176 36.0996 64.4589 36.0663 64.488C36.0332 64.5169 35.9892 64.5313 35.9342 64.5313C35.8746 64.5313 35.8268 64.51 35.7907 64.4672C35.7549 64.4245 35.737 64.3673 35.737 64.2956V64.2471C35.737 64.2002 35.7453 64.1589 35.7619 64.1233C35.7788 64.0878 35.8026 64.0605 35.8333 64.0415C35.8641 64.0224 35.8997 64.0128 35.9401 64.0128C35.9937 64.0128 36.0367 64.0278 36.0691 64.0578C36.1014 64.0876 36.1202 64.129 36.1256 64.1819H36.0587C36.0529 64.1417 36.0403 64.1126 36.0209 64.0946C36.0017 64.0765 35.9748 64.0675 35.9401 64.0675C35.8976 64.0675 35.8642 64.0833 35.8399 64.1147C35.8159 64.1461 35.8039 64.1908 35.8039 64.2488V64.2977C35.8039 64.3525 35.8153 64.396 35.8382 64.4284C35.8611 64.4607 35.8931 64.4769 35.9342 64.4769C35.9712 64.4769 35.9995 64.4686 36.0191 64.452C36.039 64.4351 36.0522 64.4059 36.0587 64.3643H36.1256ZM36.502 64.2911H36.2833V64.47H36.5374V64.5244H36.2167V64.0197H36.5339V64.0745H36.2833V64.2367H36.502V64.2911ZM36.8629 64.3268V64.5244H36.7963V64.0197H36.9825C37.0377 64.0197 37.0809 64.0338 37.1121 64.062C37.1435 64.0902 37.1593 64.1275 37.1593 64.174C37.1593 64.2229 37.1439 64.2607 37.1132 64.2873C37.0826 64.3137 37.0389 64.3268 36.9818 64.3268H36.8629ZM36.8629 64.2724H36.9825C37.0181 64.2724 37.0453 64.2641 37.0643 64.2474C37.0832 64.2306 37.0927 64.2063 37.0927 64.1746C37.0927 64.1446 37.0832 64.1206 37.0643 64.1025C37.0453 64.0845 37.0193 64.0752 36.9863 64.0745H36.8629V64.2724ZM37.5995 64.0197V64.3629C37.5993 64.4105 37.5842 64.4494 37.5544 64.4797C37.5249 64.51 37.4846 64.527 37.4338 64.5307L37.4161 64.5313C37.3609 64.5313 37.3169 64.5164 37.2841 64.4866C37.2512 64.4568 37.2346 64.4158 37.2341 64.3636V64.0197H37.3V64.3615C37.3 64.398 37.31 64.4264 37.3302 64.4468C37.3503 64.4669 37.3789 64.4769 37.4161 64.4769C37.4538 64.4769 37.4826 64.4669 37.5024 64.4468C37.5225 64.4267 37.5326 64.3984 37.5326 64.3618V64.0197H37.5995ZM37.7045 64.5244V64.0197H37.8695C37.9243 64.0197 37.9654 64.031 37.9929 64.0537C38.0207 64.0763 38.0345 64.1098 38.0345 64.1542C38.0345 64.1778 38.0278 64.1987 38.0144 64.2169C38.001 64.235 37.9828 64.2489 37.9597 64.2589C37.9869 64.2665 38.0084 64.2811 38.0241 64.3026C38.0401 64.3238 38.0481 64.3492 38.0481 64.3788C38.0481 64.4241 38.0334 64.4597 38.004 64.4856C37.9747 64.5115 37.9332 64.5244 37.8796 64.5244H37.7045ZM37.7711 64.2883V64.47H37.881C37.9119 64.47 37.9363 64.462 37.9541 64.4461C37.9721 64.4299 37.9812 64.4077 37.9812 64.3795C37.9812 64.3187 37.9481 64.2883 37.882 64.2883H37.7711ZM37.7711 64.235H37.8716C37.9007 64.235 37.924 64.2277 37.9413 64.2131C37.9589 64.1986 37.9676 64.1788 37.9676 64.1539C37.9676 64.1261 37.9595 64.106 37.9434 64.0935C37.9272 64.0808 37.9026 64.0745 37.8695 64.0745H37.7711V64.235ZM38.2138 64.47H38.4529V64.5244H38.1469V64.0197H38.2138V64.47ZM38.6003 64.5244H38.5337V64.0197H38.6003V64.5244ZM39.0935 64.3643C39.0873 64.4176 39.0675 64.4589 39.0343 64.488C39.0012 64.5169 38.9572 64.5313 38.9022 64.5313C38.8426 64.5313 38.7947 64.51 38.7587 64.4672C38.7229 64.4245 38.7049 64.3673 38.7049 64.2956V64.2471C38.7049 64.2002 38.7133 64.1589 38.7299 64.1233C38.7468 64.0878 38.7706 64.0605 38.8013 64.0415C38.8321 64.0224 38.8676 64.0128 38.9081 64.0128C38.9617 64.0128 39.0047 64.0278 39.037 64.0578C39.0694 64.0876 39.0882 64.129 39.0935 64.1819H39.0266C39.0209 64.1417 39.0083 64.1126 38.9889 64.0946C38.9697 64.0765 38.9427 64.0675 38.9081 64.0675C38.8656 64.0675 38.8322 64.0833 38.8079 64.1147C38.7839 64.1461 38.7719 64.1908 38.7719 64.2488V64.2977C38.7719 64.3525 38.7833 64.396 38.8062 64.4284C38.829 64.4607 38.8611 64.4769 38.9022 64.4769C38.9392 64.4769 38.9675 64.4686 38.9871 64.452C39.007 64.4351 39.0202 64.4059 39.0266 64.3643H39.0935ZM39.2561 64.5244H39.1896V64.0197H39.2561V64.5244ZM39.7165 64.0745H39.5542V64.5244H39.488V64.0745H39.3261V64.0197H39.7165V64.0745ZM40.0423 64.3927H39.8309L39.7834 64.5244H39.7147L39.9075 64.0197H39.9657L40.1588 64.5244H40.0905L40.0423 64.3927ZM39.851 64.3379H40.0225L39.9366 64.1019L39.851 64.3379ZM40.2981 64.5244H40.2316V64.0197H40.2981V64.5244ZM40.6053 64.3202H40.4867V64.5244H40.4198V64.0197H40.5869C40.6437 64.0197 40.6874 64.0326 40.7179 64.0585C40.7487 64.0844 40.764 64.1221 40.764 64.1715C40.764 64.203 40.7555 64.2303 40.7384 64.2537C40.7215 64.277 40.6979 64.2945 40.6677 64.306L40.7862 64.5203V64.5244H40.7148L40.6053 64.3202ZM40.4867 64.2658H40.589C40.622 64.2658 40.6482 64.2573 40.6677 64.2402C40.6873 64.2231 40.6971 64.2002 40.6971 64.1715C40.6971 64.1403 40.6878 64.1164 40.669 64.0998C40.6506 64.0831 40.6237 64.0747 40.5886 64.0745H40.4867V64.2658ZM41.1429 64.2911H40.9242V64.47H41.1783V64.5244H40.8576V64.0197H41.1748V64.0745H40.9242V64.2367H41.1429V64.2911ZM41.8099 64.4582C41.7928 64.4827 41.7688 64.5011 41.7381 64.5133C41.7076 64.5253 41.672 64.5313 41.6313 64.5313C41.5902 64.5313 41.5537 64.5218 41.5218 64.5026C41.4899 64.4832 41.4652 64.4557 41.4476 64.4201C41.4303 64.3845 41.4214 64.3432 41.4209 64.2963V64.2523C41.4209 64.1763 41.4386 64.1173 41.474 64.0755C41.5095 64.0337 41.5595 64.0128 41.6237 64.0128C41.6764 64.0128 41.7188 64.0263 41.7509 64.0533C41.783 64.0801 41.8027 64.1183 41.8099 64.1677H41.7433C41.7308 64.1009 41.6911 64.0675 41.624 64.0675C41.5794 64.0675 41.5456 64.0833 41.5225 64.1147C41.4996 64.1459 41.488 64.1912 41.4878 64.2506V64.2918C41.4878 64.3484 41.5008 64.3935 41.5266 64.427C41.5525 64.4603 41.5875 64.4769 41.6317 64.4769C41.6566 64.4769 41.6785 64.4742 41.6972 64.4686C41.7159 64.4631 41.7314 64.4537 41.7436 64.4405V64.3272H41.6268V64.2731H41.8099V64.4582ZM42.1062 64.3202H41.9877V64.5244H41.9208V64.0197H42.0879C42.1447 64.0197 42.1884 64.0326 42.2189 64.0585C42.2496 64.0844 42.265 64.1221 42.265 64.1715C42.265 64.203 42.2564 64.2303 42.2393 64.2537C42.2225 64.277 42.1989 64.2945 42.1686 64.306L42.2872 64.5203V64.5244H42.2158L42.1062 64.3202ZM41.9877 64.2658H42.0899C42.123 64.2658 42.1492 64.2573 42.1686 64.2402C42.1883 64.2231 42.1981 64.2002 42.1981 64.1715C42.1981 64.1403 42.1887 64.1164 42.17 64.0998C42.1515 64.0831 42.1247 64.0747 42.0896 64.0745H41.9877V64.2658ZM42.6373 64.3927H42.4258L42.3783 64.5244H42.3097L42.5024 64.0197H42.5607L42.7538 64.5244H42.6855L42.6373 64.3927ZM42.4459 64.3379H42.6175L42.5316 64.1019L42.4459 64.3379ZM43.1254 64.0745H42.9631V64.5244H42.8969V64.0745H42.735V64.0197H43.1254V64.0745ZM43.5556 64.0197V64.3629C43.5553 64.4105 43.5403 64.4494 43.5105 64.4797C43.4809 64.51 43.4407 64.527 43.3899 64.5307L43.3722 64.5313C43.3169 64.5313 43.2729 64.5164 43.2401 64.4866C43.2073 64.4568 43.1907 64.4158 43.1902 64.3636V64.0197H43.2561V64.3615C43.2561 64.398 43.2661 64.4264 43.2862 64.4468C43.3063 64.4669 43.335 64.4769 43.3722 64.4769C43.4099 64.4769 43.4386 64.4669 43.4585 64.4468C43.4786 64.4267 43.4887 64.3984 43.4887 64.3618V64.0197H43.5556ZM43.732 64.5244H43.6654V64.0197H43.732V64.5244ZM44.1923 64.0745H44.0301V64.5244H43.9639V64.0745H43.802V64.0197H44.1923V64.0745Z" fill="#BFC5CE"/>
<path d="M34.3418 64.3005H34.1318V64.4722H34.3757V64.5244H34.068V64.0399H34.3724V64.0925H34.1318V64.2482H34.3418V64.3005ZM34.598 64.3085C34.5432 64.2927 34.5033 64.2734 34.4782 64.2506C34.4534 64.2275 34.441 64.1991 34.441 64.1654C34.441 64.1272 34.4562 64.0957 34.4866 64.0709C34.5172 64.0458 34.5569 64.0333 34.6057 64.0333C34.6389 64.0333 34.6686 64.0397 34.6945 64.0526C34.7207 64.0654 34.7409 64.0832 34.7551 64.1058C34.7695 64.1284 34.7767 64.1532 34.7767 64.18H34.7125C34.7125 64.1507 34.7032 64.1278 34.6845 64.1111C34.6659 64.0943 34.6396 64.0859 34.6057 64.0859C34.5742 64.0859 34.5496 64.0928 34.5318 64.1068C34.5143 64.1206 34.5055 64.1398 34.5055 64.1644C34.5055 64.1841 34.5138 64.2009 34.5305 64.2146C34.5473 64.2282 34.5758 64.2406 34.616 64.2519C34.6564 64.2632 34.6879 64.2757 34.7105 64.2895C34.7333 64.303 34.7502 64.3189 34.7611 64.3371C34.7722 64.3553 34.7777 64.3767 34.7777 64.4013C34.7777 64.4406 34.7624 64.4721 34.7318 64.4958C34.7012 64.5193 34.6602 64.5311 34.609 64.5311C34.5757 64.5311 34.5447 64.5247 34.5158 64.5121C34.487 64.4992 34.4647 64.4817 34.449 64.4595C34.4334 64.4373 34.4257 64.4122 34.4257 64.384H34.4899C34.4899 64.4133 34.5006 64.4365 34.5222 64.4535C34.5439 64.4704 34.5728 64.4788 34.609 64.4788C34.6427 64.4788 34.6686 64.472 34.6865 64.4582C34.7045 64.4444 34.7135 64.4257 34.7135 64.402C34.7135 64.3782 34.7052 64.3599 34.6885 64.3471C34.6719 64.334 34.6417 64.3211 34.598 64.3085ZM34.9238 64.3347V64.5244H34.8599V64.0399H35.0386C35.0916 64.0399 35.1331 64.0535 35.163 64.0805C35.1932 64.1076 35.2083 64.1434 35.2083 64.188C35.2083 64.235 35.1935 64.2713 35.164 64.2968C35.1347 64.3221 35.0927 64.3347 35.0379 64.3347H34.9238ZM34.9238 64.2825H35.0386C35.0727 64.2825 35.0989 64.2745 35.1171 64.2585C35.1353 64.2424 35.1444 64.2191 35.1444 64.1887C35.1444 64.1598 35.1353 64.1368 35.1171 64.1195C35.0989 64.1022 35.074 64.0932 35.0422 64.0925H34.9238V64.2825ZM35.5114 64.398H35.3084L35.2629 64.5244H35.197L35.382 64.0399H35.4379L35.6232 64.5244H35.5577L35.5114 64.398ZM35.3277 64.3454H35.4924L35.4099 64.1188L35.3277 64.3454ZM36.0408 64.3707C36.0348 64.4219 36.0159 64.4615 35.9839 64.4895C35.9522 64.5172 35.9099 64.5311 35.8571 64.5311C35.7999 64.5311 35.754 64.5105 35.7194 64.4695C35.685 64.4285 35.6678 64.3736 35.6678 64.3048V64.2582C35.6678 64.2132 35.6758 64.1736 35.6918 64.1394C35.708 64.1053 35.7308 64.0791 35.7603 64.0609C35.7898 64.0425 35.824 64.0333 35.8628 64.0333C35.9143 64.0333 35.9555 64.0477 35.9866 64.0765C36.0176 64.1052 36.0357 64.1449 36.0408 64.1957H35.9766C35.9711 64.1571 35.959 64.1291 35.9403 64.1118C35.9219 64.0945 35.8961 64.0859 35.8628 64.0859C35.822 64.0859 35.7899 64.1009 35.7666 64.1311C35.7436 64.1613 35.732 64.2042 35.732 64.2599V64.3068C35.732 64.3594 35.743 64.4012 35.765 64.4322C35.7869 64.4633 35.8177 64.4788 35.8571 64.4788C35.8926 64.4788 35.9198 64.4708 35.9387 64.4549C35.9577 64.4387 35.9704 64.4106 35.9766 64.3707H36.0408ZM36.1969 64.5244H36.133V64.0399H36.1969V64.5244ZM36.6867 64.2978C36.6867 64.3453 36.6787 64.3868 36.6627 64.4223C36.6468 64.4575 36.6241 64.4845 36.5948 64.5031C36.5656 64.5218 36.5314 64.5311 36.4924 64.5311C36.4542 64.5311 36.4204 64.5218 36.3909 64.5031C36.3614 64.4843 36.3384 64.4575 36.322 64.4229C36.3058 64.3881 36.2975 64.3478 36.297 64.3021V64.2672C36.297 64.2206 36.3051 64.1795 36.3213 64.1437C36.3375 64.108 36.3604 64.0807 36.3899 64.0619C36.4196 64.0428 36.4535 64.0333 36.4917 64.0333C36.5305 64.0333 36.5647 64.0427 36.5942 64.0616C36.6239 64.0802 36.6468 64.1074 36.6627 64.1431C36.6787 64.1786 36.6867 64.2199 36.6867 64.2672V64.2978ZM36.6231 64.2665C36.6231 64.2091 36.6116 64.165 36.5885 64.1344C36.5655 64.1036 36.5332 64.0882 36.4917 64.0882C36.4513 64.0882 36.4195 64.1036 36.3962 64.1344C36.3731 64.165 36.3613 64.2076 36.3606 64.2622V64.2978C36.3606 64.3535 36.3722 64.3973 36.3955 64.4292C36.419 64.461 36.4513 64.4768 36.4924 64.4768C36.5336 64.4768 36.5656 64.4619 36.5882 64.4319C36.6108 64.4017 36.6225 64.3586 36.6231 64.3025V64.2665ZM37.0154 64.3347V64.5244H36.9516V64.0399H37.1302C37.1833 64.0399 37.2247 64.0535 37.2547 64.0805C37.2849 64.1076 37.2999 64.1434 37.2999 64.188C37.2999 64.235 37.2852 64.2713 37.2557 64.2968C37.2264 64.3221 37.1844 64.3347 37.1296 64.3347H37.0154ZM37.0154 64.2825H37.1302C37.1644 64.2825 37.1906 64.2745 37.2088 64.2585C37.227 64.2424 37.2361 64.2191 37.2361 64.1887C37.2361 64.1598 37.227 64.1368 37.2088 64.1195C37.1906 64.1022 37.1656 64.0932 37.1339 64.0925H37.0154V64.2825ZM37.7225 64.0399V64.3694C37.7223 64.4151 37.7079 64.4524 37.6793 64.4815C37.6509 64.5105 37.6123 64.5269 37.5635 64.5304L37.5465 64.5311C37.4935 64.5311 37.4512 64.5168 37.4197 64.4881C37.3882 64.4595 37.3723 64.4202 37.3718 64.37V64.0399H37.435V64.368C37.435 64.4031 37.4447 64.4304 37.464 64.4499C37.4833 64.4692 37.5108 64.4788 37.5465 64.4788C37.5827 64.4788 37.6103 64.4692 37.6294 64.4499C37.6487 64.4306 37.6583 64.4034 37.6583 64.3684V64.0399H37.7225ZM37.8234 64.5244V64.0399H37.9817C38.0343 64.0399 38.0738 64.0508 38.1002 64.0725C38.1268 64.0943 38.1401 64.1264 38.1401 64.169C38.1401 64.1917 38.1337 64.2117 38.1208 64.2293C38.108 64.2466 38.0904 64.26 38.0683 64.2695C38.0944 64.2768 38.1151 64.2908 38.1301 64.3115C38.1455 64.3319 38.1531 64.3563 38.1531 64.3847C38.1531 64.4281 38.139 64.4623 38.1108 64.4871C38.0827 64.512 38.0429 64.5244 37.9914 64.5244H37.8234ZM37.8872 64.2978V64.4722H37.9927C38.0224 64.4722 38.0459 64.4645 38.0629 64.4492C38.0802 64.4337 38.0889 64.4124 38.0889 64.3853C38.0889 64.327 38.0572 64.2978 37.9937 64.2978H37.8872ZM37.8872 64.2466H37.9837C38.0117 64.2466 38.034 64.2396 38.0506 64.2256C38.0675 64.2116 38.0759 64.1927 38.0759 64.1687C38.0759 64.1421 38.0681 64.1228 38.0526 64.1108C38.0371 64.0986 38.0135 64.0925 37.9817 64.0925H37.8872V64.2466ZM38.3122 64.4722H38.5418V64.5244H38.2479V64.0399H38.3122V64.4722ZM38.6832 64.5244H38.6193V64.0399H38.6832V64.5244ZM39.1567 64.3707C39.1507 64.4219 39.1317 64.4615 39.0998 64.4895C39.0681 64.5172 39.0258 64.5311 38.973 64.5311C38.9158 64.5311 38.8698 64.5105 38.8352 64.4695C38.8009 64.4285 38.7837 64.3736 38.7837 64.3048V64.2582C38.7837 64.2132 38.7917 64.1736 38.8076 64.1394C38.8238 64.1053 38.8467 64.0791 38.8762 64.0609C38.9057 64.0425 38.9398 64.0333 38.9787 64.0333C39.0301 64.0333 39.0714 64.0477 39.1024 64.0765C39.1335 64.1052 39.1516 64.1449 39.1567 64.1957H39.0925C39.0869 64.1571 39.0748 64.1291 39.0562 64.1118C39.0378 64.0945 39.0119 64.0859 38.9787 64.0859C38.9378 64.0859 38.9058 64.1009 38.8825 64.1311C38.8594 64.1613 38.8479 64.2042 38.8479 64.2599V64.3068C38.8479 64.3594 38.8589 64.4012 38.8808 64.4322C38.9028 64.4633 38.9335 64.4788 38.973 64.4788C39.0085 64.4788 39.0357 64.4708 39.0545 64.4549C39.0736 64.4387 39.0862 64.4106 39.0925 64.3707H39.1567ZM39.3127 64.5244H39.2488V64.0399H39.3127V64.5244ZM39.7546 64.0925H39.5989V64.5244H39.5353V64.0925H39.38V64.0399H39.7546V64.0925ZM40.0674 64.398H39.8644L39.8188 64.5244H39.753L39.938 64.0399H39.9939L40.1792 64.5244H40.1137L40.0674 64.398ZM39.8837 64.3454H40.0484L39.9659 64.1188L39.8837 64.3454ZM40.4221 64.3284H40.3083V64.5244H40.2441V64.0399H40.4045C40.4591 64.0399 40.501 64.0524 40.5303 64.0772C40.5598 64.102 40.5745 64.1382 40.5745 64.1857C40.5745 64.2158 40.5663 64.2421 40.5499 64.2645C40.5337 64.2869 40.5111 64.3037 40.482 64.3148L40.5958 64.5204V64.5244H40.5273L40.4221 64.3284ZM40.3083 64.2762H40.4065C40.4382 64.2762 40.4634 64.268 40.482 64.2516C40.5009 64.2351 40.5103 64.2132 40.5103 64.1857C40.5103 64.1557 40.5013 64.1328 40.4833 64.1168C40.4656 64.1008 40.4399 64.0927 40.4061 64.0925H40.3083V64.2762ZM40.7329 64.5244H40.669V64.0399H40.7329V64.5244ZM41.2227 64.2978C41.2227 64.3453 41.2147 64.3868 41.1988 64.4223C41.1828 64.4575 41.1602 64.4845 41.1309 64.5031C41.1016 64.5218 41.0674 64.5311 41.0284 64.5311C40.9902 64.5311 40.9564 64.5218 40.9269 64.5031C40.8974 64.4843 40.8744 64.4575 40.858 64.4229C40.8418 64.3881 40.8335 64.3478 40.8331 64.3021V64.2672C40.8331 64.2206 40.8412 64.1795 40.8574 64.1437C40.8735 64.108 40.8964 64.0807 40.9259 64.0619C40.9556 64.0428 40.9896 64.0333 41.0277 64.0333C41.0665 64.0333 41.1007 64.0427 41.1302 64.0616C41.1599 64.0802 41.1828 64.1074 41.1988 64.1431C41.2147 64.1786 41.2227 64.2199 41.2227 64.2672V64.2978ZM41.1592 64.2665C41.1592 64.2091 41.1476 64.165 41.1246 64.1344C41.1015 64.1036 41.0692 64.0882 41.0277 64.0882C40.9873 64.0882 40.9555 64.1036 40.9322 64.1344C40.9092 64.165 40.8973 64.2076 40.8966 64.2622V64.2978C40.8966 64.3535 40.9083 64.3973 40.9316 64.4292C40.9551 64.461 40.9873 64.4768 41.0284 64.4768C41.0696 64.4768 41.1016 64.4619 41.1242 64.4319C41.1468 64.4017 41.1585 64.3586 41.1592 64.3025V64.2665ZM41.8453 64.4609C41.8289 64.4844 41.8059 64.502 41.7764 64.5138C41.7471 64.5253 41.713 64.5311 41.6739 64.5311C41.6344 64.5311 41.5994 64.5219 41.5688 64.5035C41.5382 64.4848 41.5144 64.4584 41.4976 64.4243C41.4809 64.3901 41.4724 64.3505 41.4719 64.3055V64.2632C41.4719 64.1902 41.4889 64.1337 41.5229 64.0935C41.557 64.0534 41.6049 64.0333 41.6666 64.0333C41.7172 64.0333 41.7579 64.0463 41.7887 64.0722C41.8196 64.0979 41.8384 64.1345 41.8453 64.182H41.7814C41.7694 64.1179 41.7313 64.0859 41.6669 64.0859C41.6241 64.0859 41.5916 64.1009 41.5694 64.1311C41.5475 64.1611 41.5364 64.2045 41.5362 64.2615V64.3011C41.5362 64.3555 41.5486 64.3987 41.5734 64.4309C41.5983 64.4629 41.6319 64.4788 41.6743 64.4788C41.6982 64.4788 41.7192 64.4762 41.7371 64.4708C41.7551 64.4655 41.77 64.4565 41.7817 64.4439V64.3351H41.6696V64.2832H41.8453V64.4609ZM42.1298 64.3284H42.016V64.5244H41.9518V64.0399H42.1121C42.1667 64.0399 42.2086 64.0524 42.2379 64.0772C42.2674 64.102 42.2822 64.1382 42.2822 64.1857C42.2822 64.2158 42.274 64.2421 42.2576 64.2645C42.2414 64.2869 42.2187 64.3037 42.1897 64.3148L42.3035 64.5204V64.5244H42.2349L42.1298 64.3284ZM42.016 64.2762H42.1141C42.1459 64.2762 42.171 64.268 42.1897 64.2516C42.2085 64.2351 42.218 64.2132 42.218 64.1857C42.218 64.1557 42.209 64.1328 42.191 64.1168C42.1733 64.1008 42.1475 64.0927 42.1138 64.0925H42.016V64.2762ZM42.6396 64.398H42.4366L42.391 64.5244H42.3251L42.5101 64.0399H42.566L42.7514 64.5244H42.6858L42.6396 64.398ZM42.4559 64.3454H42.6206L42.5381 64.1188L42.4559 64.3454ZM43.1081 64.0925H42.9523V64.5244H42.8888V64.0925H42.7334V64.0399H43.1081V64.0925ZM43.521 64.0399V64.3694C43.5208 64.4151 43.5064 64.4524 43.4777 64.4815C43.4494 64.5105 43.4108 64.5269 43.362 64.5304L43.345 64.5311C43.292 64.5311 43.2497 64.5168 43.2182 64.4881C43.1867 64.4595 43.1707 64.4202 43.1703 64.37V64.0399H43.2335V64.368C43.2335 64.4031 43.2432 64.4304 43.2625 64.4499C43.2818 64.4692 43.3093 64.4788 43.345 64.4788C43.3811 64.4788 43.4088 64.4692 43.4278 64.4499C43.4471 64.4306 43.4568 64.4034 43.4568 64.3684V64.0399H43.521ZM43.6904 64.5244H43.6265V64.0399H43.6904V64.5244ZM44.1323 64.0925H43.9765V64.5244H43.913V64.0925H43.7576V64.0399H44.1323V64.0925ZM44.5675 64.2978C44.5675 64.3453 44.5595 64.3868 44.5435 64.4223C44.5276 64.4575 44.5049 64.4845 44.4757 64.5031C44.4464 64.5218 44.4122 64.5311 44.3732 64.5311C44.335 64.5311 44.3012 64.5218 44.2717 64.5031C44.2422 64.4843 44.2192 64.4575 44.2028 64.4229C44.1866 64.3881 44.1783 64.3478 44.1779 64.3021V64.2672C44.1779 64.2206 44.1859 64.1795 44.2021 64.1437C44.2183 64.108 44.2412 64.0807 44.2707 64.0619C44.3004 64.0428 44.3344 64.0333 44.3725 64.0333C44.4113 64.0333 44.4455 64.0427 44.475 64.0616C44.5047 64.0802 44.5276 64.1074 44.5435 64.1431C44.5595 64.1786 44.5675 64.2199 44.5675 64.2672V64.2978ZM44.5039 64.2665C44.5039 64.2091 44.4924 64.165 44.4693 64.1344C44.4463 64.1036 44.414 64.0882 44.3725 64.0882C44.3321 64.0882 44.3003 64.1036 44.277 64.1344C44.2539 64.165 44.2421 64.2076 44.2414 64.2622V64.2978C44.2414 64.3535 44.2531 64.3973 44.2763 64.4292C44.2999 64.461 44.3321 64.4768 44.3732 64.4768C44.4144 64.4768 44.4464 64.4619 44.469 64.4319C44.4916 64.4017 44.5033 64.3586 44.5039 64.3025V64.2665Z" fill="#BFC5CE"/>
</g>
<defs>
<linearGradient id="paint0_linear" x1="254.26" y1="17.1017" x2="254.26" y2="50.2049" gradientUnits="userSpaceOnUse">
<stop stop-color="#FAFBFC"/>
<stop offset="0.5" stop-color="#D5DAE2"/>
<stop offset="1" stop-color="#C4CBD7"/>
</linearGradient>
<linearGradient id="paint1_linear" x1="176.18" y1="7.69021" x2="186.896" y2="26.1506" gradientUnits="userSpaceOnUse">
<stop stop-color="#FFDD67"/>
<stop offset="1" stop-color="#F19F00"/>
</linearGradient>
<linearGradient id="paint2_linear" x1="254.258" y1="17.1014" x2="254.258" y2="50.2046" gradientUnits="userSpaceOnUse">
<stop stop-color="#FAFBFC"/>
<stop offset="0.5" stop-color="#D5DAE2"/>
<stop offset="1" stop-color="#C4CBD7"/>
</linearGradient>
<linearGradient id="paint3_linear" x1="254.256" y1="17.1014" x2="254.256" y2="50.2046" gradientUnits="userSpaceOnUse">
<stop stop-color="#FAFBFC"/>
<stop offset="0.5" stop-color="#D5DAE2"/>
<stop offset="1" stop-color="#C4CBD7"/>
</linearGradient>
<linearGradient id="paint4_linear" x1="254.258" y1="50.3481" x2="254.258" y2="17.2449" gradientUnits="userSpaceOnUse">
<stop offset="0.5" stop-color="#D5DAE2"/>
<stop offset="1" stop-color="#C4CBD7"/>
</linearGradient>
<linearGradient id="paint5_linear" x1="254.257" y1="17.1014" x2="254.257" y2="50.2046" gradientUnits="userSpaceOnUse">
<stop stop-color="#FAFBFC"/>
<stop offset="0.5" stop-color="#D5DAE2"/>
<stop offset="1" stop-color="#C4CBD7"/>
</linearGradient>
<linearGradient id="paint6_linear" x1="254.259" y1="17.1014" x2="254.259" y2="50.2046" gradientUnits="userSpaceOnUse">
<stop stop-color="#FAFBFC"/>
<stop offset="0.5" stop-color="#D5DAE2"/>
<stop offset="1" stop-color="#C4CBD7"/>
</linearGradient>
<linearGradient id="paint7_linear" x1="254.259" y1="17.1013" x2="254.259" y2="50.2045" gradientUnits="userSpaceOnUse">
<stop stop-color="#FAFBFC"/>
<stop offset="0.5" stop-color="#D5DAE2"/>
<stop offset="1" stop-color="#C4CBD7"/>
</linearGradient>
<linearGradient id="paint8_linear" x1="254.256" y1="17.1012" x2="254.256" y2="50.2045" gradientUnits="userSpaceOnUse">
<stop stop-color="#FAFBFC"/>
<stop offset="0.5" stop-color="#D5DAE2"/>
<stop offset="1" stop-color="#C4CBD7"/>
</linearGradient>
<linearGradient id="paint9_linear" x1="198.575" y1="33.5762" x2="198.575" y2="50.2067" gradientUnits="userSpaceOnUse">
<stop stop-color="#EBEBEF"/>
<stop offset="1" stop-color="#EBEBEF"/>
</linearGradient>
<linearGradient id="paint10_linear" x1="17.7371" y1="14.4274" x2="17.7371" y2="63.7579" gradientUnits="userSpaceOnUse">
<stop stop-color="#FEDE69"/>
<stop offset="0.39" stop-color="#F6B120"/>
<stop offset="0.6334" stop-color="#F3A220"/>
<stop offset="1" stop-color="#EF9021"/>
</linearGradient>
<clipPath id="clip0">
<rect width="275" height="65" fill="white"/>
</clipPath>
</defs>
</svg>
