<svg width="240" height="62" viewBox="0 0 240 62" fill="none" xmlns="http://www.w3.org/2000/svg">
<g clip-path="url(#clip0)">
<path d="M2.10753 3.8618H52.086C53.25 3.8618 54.1935 4.80636 54.1935 5.97152V15.81C54.1935 17.1205 53.6255 18.3613 52.6365 19.22L24.6882 42.625H52.086C53.25 42.625 54.1935 43.5523 54.1935 44.7175V56.0123C54.1935 57.1775 53.25 58.1221 52.086 58.1221H2.10753C0.943572 58.1221 0 57.1775 0 56.0123V46.19C0 44.8795 0.568083 43.6387 1.55705 42.78L29.5054 19.375H2.10753C0.943572 19.375 0 18.4089 0 17.2437V5.97152C0 4.80636 0.943572 3.8618 2.10753 3.8618ZM89.0323 1.9375C94.8111 1.9375 99.9632 3.23838 104.264 5.61564C108.565 7.99291 112.015 11.4466 114.39 15.7521C116.765 20.0577 118.065 25.2151 118.065 31C118.065 36.7849 116.765 41.9423 114.39 46.2479C112.015 50.5534 108.565 54.0071 104.264 56.3844C99.9632 58.7616 94.8111 60.0625 89.0323 60.0625C83.2534 60.0625 78.1013 58.7616 73.8002 56.3844C69.4992 54.0071 66.0491 50.5534 63.6743 46.2479C61.2995 41.9423 60 36.7849 60 31C60 25.2151 61.2995 20.0577 63.6743 15.7521C66.0491 11.4466 69.4992 7.99291 73.8002 5.61564C78.1013 3.23838 83.2534 1.9375 89.0323 1.9375ZM89.0323 17.4375C86.2679 17.4375 83.8411 18.022 81.8339 19.1089C79.8268 20.1958 78.2393 21.7849 77.1535 23.7942C76.0678 25.8034 75.4839 28.2328 75.4839 31C75.4839 33.7672 76.0678 36.1966 77.1535 38.2058C78.2393 40.2151 79.8268 41.8042 81.8339 42.8911C83.8411 43.978 86.2679 44.5625 89.0323 44.5625C91.7966 44.5625 94.2234 43.978 96.2306 42.8911C98.2377 41.8042 99.8253 40.2151 100.911 38.2058C101.997 36.1966 102.581 33.7672 102.581 31C102.581 28.2328 101.997 25.8034 100.911 23.7942C99.8253 21.7849 98.2377 20.1958 96.2306 19.1089C94.2234 18.022 91.7966 17.4375 89.0323 17.4375ZM150.968 1.9375C156.747 1.9375 161.899 3.23838 166.2 5.61564C170.501 7.99291 173.951 11.4466 176.326 15.7521C178.7 20.0577 180 25.2151 180 31C180 36.7849 178.7 41.9423 176.326 46.2479C173.951 50.5534 170.501 54.0071 166.2 56.3844C161.899 58.7616 156.747 60.0625 150.968 60.0625C145.189 60.0625 140.037 58.7616 135.736 56.3844C131.435 54.0071 127.985 50.5534 125.61 46.2479C123.235 41.9423 121.935 36.7849 121.935 31C121.935 25.2151 123.235 20.0577 125.61 15.7521C127.985 11.4466 131.435 7.99291 135.736 5.61564C140.037 3.23838 145.189 1.9375 150.968 1.9375ZM150.968 17.4375C148.203 17.4375 145.777 18.022 143.769 19.1089C141.762 20.1958 140.175 21.7849 139.089 23.7942C138.003 25.8034 137.419 28.2328 137.419 31C137.419 33.7672 138.003 36.1966 139.089 38.2058C140.175 40.2151 141.762 41.8042 143.769 42.8911C145.777 43.978 148.203 44.5625 150.968 44.5625C153.732 44.5625 156.159 43.978 158.166 42.8911C160.173 41.8042 161.761 40.2151 162.846 38.2058C163.932 36.1966 164.516 33.7672 164.516 31C164.516 28.2328 163.932 25.8034 162.846 23.7942C161.761 21.7849 160.173 20.1958 158.166 19.1089C156.159 18.022 153.732 17.4375 150.968 17.4375ZM240.007 5.97824V56.0115C240.007 57.1767 239.063 58.1213 237.899 58.1213H228.077C226.768 58.1213 225.529 57.5527 224.671 56.5629L201.29 28.5888V56.0115C201.29 57.1767 200.325 58.1213 199.161 58.1213H187.907C186.743 58.1213 185.8 57.1767 185.8 56.0115V5.97824C185.8 4.81301 186.743 3.8684 187.907 3.8684H197.729C199.038 3.8684 200.278 4.43722 201.135 5.42745L224.516 33.4112V5.97824C224.516 4.81301 225.442 3.8684 226.606 3.8684H237.899C239.063 3.8684 240.007 4.81301 240.007 5.97824Z" fill="url(#paint0_linear)"/>
</g>
<defs>
<linearGradient id="paint0_linear" x1="185.629" y1="31" x2="52.3485" y2="31" gradientUnits="userSpaceOnUse">
<stop stop-color="#6339F5"/>
<stop offset="1" stop-color="#3D3F55"/>
</linearGradient>
<clipPath id="clip0">
<rect width="240" height="62" fill="white"/>
</clipPath>
</defs>
</svg>
