<svg width="89" height="37" viewBox="0 0 89 37" fill="none" xmlns="http://www.w3.org/2000/svg">
<path d="M37.9776 18.8135C37.9776 16.5839 37.536 14.4567 36.7636 12.4825C36.5578 18.9765 29.6446 24.006 25.5855 27.3345H35.7466C37.1675 24.7922 37.9776 21.8942 37.9776 18.8135ZM30.6317 4.5131C27.4158 2.12053 23.3821 0.683655 18.9877 0.683655C8.50119 0.683655 0 8.80058 0 18.8135C0 28.8264 8.50119 36.9434 18.9877 36.9434C23.7916 36.9434 28.165 35.229 31.5071 32.4214H17.7593L17.7184 28.5655C26.0016 21.6905 31.0799 17.0408 31.0799 12.5496C31.0799 10.8805 30.4137 8.77415 27.4181 8.77415C25.0454 8.77415 22.7558 10.0866 23.1708 15.5698H18.3436C17.1352 9.21237 20.7572 4.16297 27.667 4.16297C28.7361 4.16297 29.7287 4.28629 30.6317 4.5131Z" fill="black"/>
<path d="M55.5904 13.2132H60.0822C60.2349 9.95081 59.084 4.78249 51.6751 4.78249C46.2238 4.78249 42.2676 7.89845 42.2676 14.3858C42.2676 15.2656 42.3063 19.8107 42.3063 22.6338C42.3063 29.6706 47.4134 31.2109 51.7127 31.2109C54.2857 31.2109 58.0084 30.6604 59.737 28.8646V17.6482H51.2911V21.7177H55.0537V26.6647C52.2118 27.5808 47.0294 27.9485 47.0294 21.7177V14.3858C47.0294 10.0246 49.1409 8.52055 51.4814 8.52055C53.9017 8.52055 55.5904 9.69426 55.5904 13.2132ZM88.9987 24.1004C89.1923 14.0566 77.1377 17.3917 77.2528 11.783C77.2904 9.80437 78.635 8.52055 80.8228 8.52055C83.1634 8.52055 84.5467 9.8407 84.5068 13.287H88.9223C89.0385 10.1699 88.2716 4.85516 80.9778 4.85516C76.4472 4.85516 72.7222 6.98238 72.6459 11.7103C72.4533 21.35 84.5843 18.1988 84.3917 24.0255C84.3154 26.4082 82.5116 27.4707 80.4765 27.4707C78.0972 27.4707 76.1772 26.1516 76.5612 22.1934H72.107C71.609 27.4343 74.0281 31.1746 80.4388 31.1746C85.8514 31.1746 88.9223 28.3141 88.9987 24.1004ZM68.7195 30.8432H64.189V5.18547H68.7195V30.8432ZM68.7195 30.8432H64.189V5.18547H68.7195V30.8432Z" fill="black"/>
</svg>
