<svg width="110" height="37" viewBox="0 0 110 37" fill="none" xmlns="http://www.w3.org/2000/svg">
<g clip-path="url(#clip0_669_275)">
<path d="M27.0442 13.4153H14.2087V17.2222H23.312C22.8622 22.5611 18.4185 24.8377 14.2242 24.8377C8.85797 24.8377 4.17524 20.6173 4.17524 14.702C4.17524 8.9394 8.63916 4.50155 14.2361 4.50155C18.5543 4.50155 21.0989 7.25299 21.0989 7.25299L23.7656 4.49264C23.7656 4.49264 20.3426 0.683594 14.0999 0.683594C6.14989 0.683891 0 7.39028 0 14.6339C0 21.732 5.78511 28.6535 14.3021 28.6535C21.7931 28.6535 27.2764 23.5242 27.2764 15.9394C27.2764 14.3392 27.0439 13.4144 27.0439 13.4144L27.0442 13.4153Z" fill="black"/>
<path d="M37.5606 10.6582C32.2937 10.6582 28.5195 14.7739 28.5195 19.574C28.5195 24.4451 32.1805 28.6372 37.6228 28.6372C42.5493 28.6372 46.5854 24.8736 46.5854 19.6786C46.5851 13.7246 41.8902 10.6582 37.5606 10.6582ZM37.613 14.1894C40.203 14.1894 42.6572 16.2823 42.6572 19.6551C42.6572 22.956 40.2134 25.109 37.6011 25.109C34.7307 25.109 32.4665 22.811 32.4665 19.629C32.4662 16.515 34.7024 14.1894 37.613 14.1894Z" fill="black"/>
<path d="M57.2208 10.6582C51.9542 10.6582 48.1797 14.7739 48.1797 19.574C48.1797 24.4451 51.8406 28.6372 57.2829 28.6372C62.2094 28.6372 66.2456 24.8736 66.2456 19.6786C66.2453 13.7246 61.5506 10.6582 57.2208 10.6582ZM57.2731 14.1894C59.8632 14.1894 62.3174 16.2823 62.3174 19.6551C62.3174 22.956 59.8736 25.109 57.2612 25.109C54.3908 25.109 52.1266 22.811 52.1266 19.629C52.1266 16.515 54.3629 14.1894 57.2731 14.1894Z" fill="black"/>
<path d="M76.5072 10.666C71.6728 10.666 67.873 14.8982 67.873 19.6484C67.873 25.0591 72.2784 28.6474 76.4239 28.6474C78.9872 28.6474 80.35 27.6305 81.3564 26.4629V28.2355C81.3564 31.337 79.4724 33.1943 76.6287 33.1943C73.8817 33.1943 72.5037 31.1525 72.0248 29.9938L68.5684 31.4381C69.7945 34.0296 72.2629 36.7323 76.6573 36.7323C81.4637 36.7323 85.1273 33.7063 85.1273 27.3598V11.2066H81.3567V12.7292C80.1969 11.4805 78.6114 10.6663 76.5072 10.666ZM76.8571 14.1901C79.2271 14.1901 81.6608 16.2129 81.6608 19.6677C81.6608 23.179 79.2322 25.1141 76.8045 25.1141C74.2272 25.1141 71.8292 23.0224 71.8292 19.701C71.8295 16.2494 74.3199 14.1901 76.8571 14.1901Z" fill="black"/>
<path d="M101.895 10.6465C97.3345 10.6465 93.5059 14.2731 93.5059 19.6241C93.5059 25.2863 97.7736 28.6445 102.333 28.6445C106.138 28.6445 108.474 26.5638 109.867 24.6994L106.758 22.6317C105.952 23.883 104.603 25.1062 102.352 25.1062C99.824 25.1062 98.6613 23.7223 97.9412 22.3818L110 17.3802L109.374 15.9143C108.209 13.044 105.491 10.6468 101.895 10.6468L101.895 10.6465ZM102.052 14.1037C103.695 14.1037 104.878 14.9771 105.38 16.024L97.3264 19.3884C96.9792 16.7838 99.4482 14.1037 102.052 14.1037Z" fill="black"/>
<path d="M87.7578 28.1105H91.719V1.61328H87.7578V28.1105Z" fill="black"/>
</g>
<defs>
<clipPath id="clip0_669_275">
<rect width="110" height="36.0504" fill="white" transform="translate(0 0.683594)"/>
</clipPath>
</defs>
</svg>
