<svg width="104" height="36" viewBox="0 0 104 36" fill="none" xmlns="http://www.w3.org/2000/svg">
<g clip-path="url(#clip0_1314_245)">
<path d="M99.156 29.6749C101.196 29.6749 102.642 29.2992 103.718 28.49V24.8195C102.613 25.5998 101.281 26.0911 99.411 26.0911C96.2655 26.0911 94.962 23.6056 94.962 19.675C94.962 15.5421 96.5489 13.4322 99.4393 13.4322C101.14 13.4322 102.812 14.0392 103.69 14.6172V10.8022C102.755 10.282 101.14 9.90625 98.9293 9.90625C93.29 9.90625 90.3712 14.0392 90.3712 19.8195C90.3996 26.1489 93.2617 29.6749 99.156 29.6749ZM71.5832 27.9986V24.3281C70.223 25.2819 67.8993 26.12 65.774 26.12C62.5434 26.12 61.3249 24.5593 61.1265 21.3802H71.7816V19.0102C71.7816 12.3918 68.9195 9.90625 64.5271 9.90625C59.1429 9.90625 56.5925 14.097 56.5925 19.8484C56.5925 26.4668 59.7947 29.6749 65.4056 29.6749C68.211 29.6749 70.2797 28.8946 71.5832 27.9986ZM31.1451 10.2531V17.7675H25.2508V10.2531H20.8301V29.2992H25.2508V21.3513H31.1451V29.2992H35.5658V10.2531H31.1451ZM55.4873 25.7154H53.532V10.2531H40.6666V11.8716C40.6666 16.5247 40.3832 22.5362 38.8246 25.7154H37.4077V33.6344H41.4884V29.2992H51.3783V33.6344H55.459V25.7154H55.4873ZM85.6671 29.2992H90.6829L83.5985 19.0391L89.8328 10.2531H85.3838L79.1494 19.0391V10.2531H74.7287V29.2992H79.1494V19.9351L85.6671 29.2992ZM64.4137 13.4322C66.5958 13.4322 67.2759 15.2819 67.2759 17.6808V18.0565H61.1265C61.2399 15.0218 62.3167 13.4322 64.4137 13.4322ZM49.1113 25.7154H42.8769C44.0955 22.8542 44.4355 17.6519 44.4355 14.3571V13.7791H49.1113V25.7154Z" fill="black"/>
<path d="M17.1444 29.3004H12.6387V6.55489H10.6267C6.94278 6.55489 5.0158 8.43349 5.0158 11.2369C5.0158 14.4161 6.34768 15.8901 9.09646 17.7687L11.3635 19.3294L4.84578 29.3004H0L5.86594 20.3987C2.49373 17.9421 0.595095 15.5433 0.595095 11.4971C0.595095 6.43929 4.05232 3 10.5984 3H17.1161V29.3004H17.1444Z" fill="black"/>
</g>
<defs>
<clipPath id="clip0_1314_245">
<rect width="104" height="30.6357" fill="white" transform="translate(0 3)"/>
</clipPath>
</defs>
</svg>
