<svg width="85" height="36" viewBox="0 0 85 36" fill="none" xmlns="http://www.w3.org/2000/svg">
<g clip-path="url(#clip0_1314_255)">
<path d="M0.746416 8.68821H18.4471C18.8594 8.68821 19.1935 9.02603 19.1935 9.44274V12.9614C19.1935 13.4301 18.9924 13.8739 18.6421 14.181L8.74373 22.5516H18.4471C18.8594 22.5516 19.1935 22.8833 19.1935 23.3V27.3395C19.1935 27.7562 18.8594 28.0941 18.4471 28.0941H0.746416C0.334182 28.0941 0 27.7562 0 27.3395V23.8266C0 23.3579 0.201196 22.9142 0.551456 22.6071L10.4498 14.2364H0.746416C0.334182 14.2364 0 13.8909 0 13.4742V9.44274C0 9.02603 0.334182 8.68821 0.746416 8.68821ZM31.5323 8C33.5789 8 35.4036 8.46525 36.9269 9.31547C38.4502 10.1657 39.6721 11.4009 40.5132 12.9407C41.3543 14.4806 41.8145 16.3251 41.8145 18.394C41.8145 20.4629 41.3543 22.3075 40.5132 23.8473C39.6721 25.3872 38.4502 26.6224 36.9269 27.4726C35.4036 28.3228 33.5789 28.788 31.5323 28.788C29.4856 28.788 27.6609 28.3228 26.1376 27.4726C24.6143 26.6224 23.3924 25.3872 22.5513 23.8473C21.7102 22.3075 21.25 20.4629 21.25 18.394C21.25 16.3251 21.7102 14.4806 22.5513 12.9407C23.3924 11.4009 24.6143 10.1657 26.1376 9.31547C27.6609 8.46525 29.4856 8 31.5323 8ZM31.5323 13.5435C30.5532 13.5435 29.6937 13.7525 28.9829 14.1412C28.272 14.53 27.7097 15.0983 27.3252 15.8169C26.9407 16.5355 26.7339 17.4043 26.7339 18.394C26.7339 19.3837 26.9407 20.2525 27.3252 20.9711C27.7097 21.6897 28.272 22.2581 28.9829 22.6468C29.6937 23.0355 30.5532 23.2446 31.5323 23.2446C32.5113 23.2446 33.3708 23.0355 34.0817 22.6468C34.7925 22.2581 35.3548 21.6897 35.7393 20.9711C36.1238 20.2525 36.3306 19.3837 36.3306 18.394C36.3306 17.4043 36.1238 16.5355 35.7393 15.8169C35.3548 15.0983 34.7925 14.53 34.0817 14.1412C33.3708 13.7525 32.5113 13.5435 31.5323 13.5435ZM53.4677 8C55.5144 8 57.3391 8.46525 58.8624 9.31547C60.3857 10.1657 61.6076 11.4009 62.4487 12.9407C63.2898 14.4806 63.75 16.3251 63.75 18.394C63.75 20.4629 63.2898 22.3075 62.4487 23.8473C61.6076 25.3872 60.3857 26.6224 58.8624 27.4726C57.3391 28.3228 55.5144 28.788 53.4677 28.788C51.4211 28.788 49.5964 28.3228 48.0731 27.4726C46.5498 26.6224 45.3279 25.3872 44.4868 23.8473C43.6457 22.3075 43.1855 20.4629 43.1855 18.394C43.1855 16.3251 43.6457 14.4806 44.4868 12.9407C45.3279 11.4009 46.5498 10.1657 48.0731 9.31547C49.5964 8.46525 51.4211 8 53.4677 8ZM53.4677 13.5435C52.4887 13.5435 51.6292 13.7525 50.9183 14.1412C50.2075 14.53 49.6452 15.0983 49.2607 15.8169C48.8762 16.5355 48.6694 17.4043 48.6694 18.394C48.6694 19.3837 48.8762 20.2525 49.2607 20.9711C49.6452 21.6897 50.2075 22.2581 50.9183 22.6468C51.6292 23.0355 52.4887 23.2446 53.4677 23.2446C54.4468 23.2446 55.3063 23.0355 56.0171 22.6468C56.728 22.2581 57.2903 21.6897 57.6748 20.9711C58.0593 20.2525 58.2661 19.3837 58.2661 18.394C58.2661 17.4043 58.0593 16.5355 57.6748 15.8169C57.2903 15.0983 56.728 14.53 56.0171 14.1412C55.3063 13.7525 54.4468 13.5435 53.4677 13.5435ZM85.0023 9.44514V27.3392C85.0023 27.756 84.6681 28.0938 84.2559 28.0938H80.7774C80.3138 28.0938 79.8748 27.8904 79.571 27.5364L71.2903 17.5317V27.3392C71.2903 27.756 70.9485 28.0938 70.5363 28.0938H66.5506C66.1383 28.0938 65.8041 27.756 65.8041 27.3392V9.44514C65.8041 9.02841 66.1383 8.69057 66.5506 8.69057H70.029C70.4928 8.69057 70.9317 8.89401 71.2355 9.24816L79.5161 19.2564V9.44514C79.5161 9.02841 79.8442 8.69057 80.2565 8.69057H84.2559C84.6681 8.69057 85.0023 9.02841 85.0023 9.44514Z" fill="url(#paint0_linear_1314_255)"/>
<path d="M0.746416 8.68821H18.4471C18.8594 8.68821 19.1935 9.02603 19.1935 9.44274V12.9614C19.1935 13.4301 18.9924 13.8739 18.6421 14.181L8.74373 22.5516H18.4471C18.8594 22.5516 19.1935 22.8833 19.1935 23.3V27.3395C19.1935 27.7562 18.8594 28.0941 18.4471 28.0941H0.746416C0.334182 28.0941 0 27.7562 0 27.3395V23.8266C0 23.3579 0.201196 22.9142 0.551456 22.6071L10.4498 14.2364H0.746416C0.334182 14.2364 0 13.8909 0 13.4742V9.44274C0 9.02603 0.334182 8.68821 0.746416 8.68821ZM31.5323 8C33.5789 8 35.4036 8.46525 36.9269 9.31547C38.4502 10.1657 39.6721 11.4009 40.5132 12.9407C41.3543 14.4806 41.8145 16.3251 41.8145 18.394C41.8145 20.4629 41.3543 22.3075 40.5132 23.8473C39.6721 25.3872 38.4502 26.6224 36.9269 27.4726C35.4036 28.3228 33.5789 28.788 31.5323 28.788C29.4856 28.788 27.6609 28.3228 26.1376 27.4726C24.6143 26.6224 23.3924 25.3872 22.5513 23.8473C21.7102 22.3075 21.25 20.4629 21.25 18.394C21.25 16.3251 21.7102 14.4806 22.5513 12.9407C23.3924 11.4009 24.6143 10.1657 26.1376 9.31547C27.6609 8.46525 29.4856 8 31.5323 8ZM31.5323 13.5435C30.5532 13.5435 29.6937 13.7525 28.9829 14.1412C28.272 14.53 27.7097 15.0983 27.3252 15.8169C26.9407 16.5355 26.7339 17.4043 26.7339 18.394C26.7339 19.3837 26.9407 20.2525 27.3252 20.9711C27.7097 21.6897 28.272 22.2581 28.9829 22.6468C29.6937 23.0355 30.5532 23.2446 31.5323 23.2446C32.5113 23.2446 33.3708 23.0355 34.0817 22.6468C34.7925 22.2581 35.3548 21.6897 35.7393 20.9711C36.1238 20.2525 36.3306 19.3837 36.3306 18.394C36.3306 17.4043 36.1238 16.5355 35.7393 15.8169C35.3548 15.0983 34.7925 14.53 34.0817 14.1412C33.3708 13.7525 32.5113 13.5435 31.5323 13.5435ZM53.4677 8C55.5144 8 57.3391 8.46525 58.8624 9.31547C60.3857 10.1657 61.6076 11.4009 62.4487 12.9407C63.2898 14.4806 63.75 16.3251 63.75 18.394C63.75 20.4629 63.2898 22.3075 62.4487 23.8473C61.6076 25.3872 60.3857 26.6224 58.8624 27.4726C57.3391 28.3228 55.5144 28.788 53.4677 28.788C51.4211 28.788 49.5964 28.3228 48.0731 27.4726C46.5498 26.6224 45.3279 25.3872 44.4868 23.8473C43.6457 22.3075 43.1855 20.4629 43.1855 18.394C43.1855 16.3251 43.6457 14.4806 44.4868 12.9407C45.3279 11.4009 46.5498 10.1657 48.0731 9.31547C49.5964 8.46525 51.4211 8 53.4677 8ZM53.4677 13.5435C52.4887 13.5435 51.6292 13.7525 50.9183 14.1412C50.2075 14.53 49.6452 15.0983 49.2607 15.8169C48.8762 16.5355 48.6694 17.4043 48.6694 18.394C48.6694 19.3837 48.8762 20.2525 49.2607 20.9711C49.6452 21.6897 50.2075 22.2581 50.9183 22.6468C51.6292 23.0355 52.4887 23.2446 53.4677 23.2446C54.4468 23.2446 55.3063 23.0355 56.0171 22.6468C56.728 22.2581 57.2903 21.6897 57.6748 20.9711C58.0593 20.2525 58.2661 19.3837 58.2661 18.394C58.2661 17.4043 58.0593 16.5355 57.6748 15.8169C57.2903 15.0983 56.728 14.53 56.0171 14.1412C55.3063 13.7525 54.4468 13.5435 53.4677 13.5435ZM85.0023 9.44514V27.3392C85.0023 27.756 84.6681 28.0938 84.2559 28.0938H80.7774C80.3138 28.0938 79.8748 27.8904 79.571 27.5364L71.2903 17.5317V27.3392C71.2903 27.756 70.9485 28.0938 70.5363 28.0938H66.5506C66.1383 28.0938 65.8041 27.756 65.8041 27.3392V9.44514C65.8041 9.02841 66.1383 8.69057 66.5506 8.69057H70.029C70.4928 8.69057 70.9317 8.89401 71.2355 9.24816L79.5161 19.2564V9.44514C79.5161 9.02841 79.8442 8.69057 80.2565 8.69057H84.2559C84.6681 8.69057 85.0023 9.02841 85.0023 9.44514Z" fill="black"/>
</g>
<defs>
<linearGradient id="paint0_linear_1314_255" x1="65.7435" y1="18.394" x2="18.5401" y2="18.394" gradientUnits="userSpaceOnUse">
<stop stop-color="#6339F5"/>
<stop offset="1" stop-color="#3B45B2"/>
</linearGradient>
<clipPath id="clip0_1314_255">
<rect width="85" height="36" fill="white"/>
</clipPath>
</defs>
</svg>
