<?xml version="1.0" encoding="utf-8"?>
<!-- Generator: Adobe Illustrator 22.1.0, SVG Export Plug-In . SVG Version: 6.00 Build 0)  -->
<svg version="1.1" id="Слой_1" xmlns="http://www.w3.org/2000/svg" xmlns:xlink="http://www.w3.org/1999/xlink" x="0px" y="0px"
	 viewBox="0 0 600 480" style="enable-background:new 0 0 600 480;" xml:space="preserve">
<style type="text/css">
	.st0{fill:#FFFFFF;}
</style>
<g>
	<g>
		<path class="st0" d="M358.8,15.6l-74.7,246.9c0,0-2,8.5-11,8.5h-34.1c-10.6,0-13-9.3-13-9.3l-40.6-129.5l-40.6,129.5
			c0,0-2.4,9.3-13,9.3H96.1c-8.9,0-11-8.5-11-8.5L10.1,15.6c-1.2-4.9,0-11.8,7.3-11.8H62c12.2,0,14.6,8.1,16.2,13l40.2,138l39-138
			c1.6-5.7,4.5-13,13.8-13h28.4c8.9,0,11.8,7.3,13.4,13l39.4,138l40.2-138c1.2-4.9,4.1-13,16.2-13h43
			C359.2,3.9,360.5,10.8,358.8,15.6z"/>
		<path class="st0" d="M590.2,15.6v33.7c0,7.3-2.4,11.8-11.8,11.8h-62.1v198.1c0,9.3-4.5,11.8-11.8,11.8h-40.2
			c-7.3,0-11.8-2.4-11.8-11.8V61.1h-62.5c-9.3,0-11.8-4.5-11.8-11.8V15.6c0-7.3,2.4-11.8,11.8-11.8h188.4
			C587.8,3.9,590.2,8.3,590.2,15.6z"/>
	</g>
	<g>
		<path class="st0" d="M78.2,474.5H68l-11.6-77.3c-1.1-7.3-1.8-14.8-2.1-22.1c-0.4,2.3-0.4,4.5-0.5,6.8c-0.2,5.4-1.1,10.5-2,15.7
			l-13.4,76.9h-10l-19.1-119h11.4l10.7,74.9c0.7,4.5,1.1,8.9,1.4,13.4c0.2,3,0.2,5.9,0.7,8.9c0.7-7.9,2.1-15.5,3.4-23.2l12.7-74h9.6
			l11.1,75.3c0.7,4.3,1.1,8.7,1.6,13c0.4,3,0.7,5.9,1.2,8.9c0.9-7.5,2-15,3-22.5l11.6-74.8H99L78.2,474.5z"/>
		<path class="st0" d="M131.6,474.5l-3.1-17.1h-17.6l-3.1,17.1h-8.2l16.5-83.3h7.2l16.6,83.3H131.6z M121.7,421.3
			c-1.2-6.5-2-13-2.4-19.6c-1.1,16.5-4.4,32.7-7.2,49h15.1L121.7,421.3z"/>
		<path class="st0" d="M146.8,474.5v-83.3h7.7v76.2h18v7.1H146.8z"/>
		<path class="st0" d="M201.9,365.7v108.8h-11.1V365.7H173v-10.2h46.7v10.2H201.9z"/>
		<path class="st0" d="M337.9,447.8c-3.2,4.3-6.8,8.4-10.5,12.3l7.3,14.5H323l-3.6-6.6c-5.7,5.2-11.8,8.2-19.6,8.2
			c-17.5,0-28.7-15.9-28.7-32.3c0-14.8,7.1-24.6,17.7-34.3c-4.8-8.6-10.9-19.8-10.9-32.1c0-13.2,10.3-23.6,23.6-23.6
			c12.5,0,21.4,9.8,21.4,22.1c0,16.4-11.2,26.8-21.1,35.3l20.5,38.9c3-3.2,5.7-6.4,8.2-10L337.9,447.8z M293.6,419.2
			c-6.4,6.8-12.1,15.2-12.1,24.8c0,10,6.8,21.4,17.8,21.4c5.9,0,10.9-3.2,15.2-7L293.6,419.2z M300.9,363.6
			c-7.5,0-12.8,6.2-12.8,13.6c0,10.9,4.6,18.7,8.7,25.9c7.5-6.1,15.3-14.8,15.3-27.3C312.2,369.3,307.5,363.6,300.9,363.6z"/>
		<path class="st0" d="M411.5,365.7v108.8h-11.1V365.7h-17.8v-10.2h46.7v10.2H411.5z"/>
		<path class="st0" d="M436.6,474.5v-83.3h7.7v83.3H436.6z"/>
		<path class="st0" d="M457.9,474.5v-83.3h26v7.1h-18.2v29.3h17.7v7.1h-17.7v32.6h18.2v7.1H457.9z"/>
		<path class="st0" d="M510.3,398.4v76.2h-7.7v-76.2H490v-7.1h32.7v7.1H510.3z"/>
		<path class="st0" d="M533.5,467.4h21.1v7.1H524l23.1-76.2h-20.9v-7.1h30.6L533.5,467.4z"/>
		<path class="st0" d="M564.7,474.5v-83.3h26v7.1h-18.2v29.3h17.7v7.1h-17.7v32.6h18.2v7.1H564.7z"/>
	</g>
</g>
</svg>
