<?xml version="1.0" encoding="utf-8"?>
<!-- Generator: Adobe Illustrator 23.0.3, SVG Export Plug-In . SVG Version: 6.00 Build 0)  -->
<svg version="1.1" id="Слой_1" xmlns="http://www.w3.org/2000/svg" xmlns:xlink="http://www.w3.org/1999/xlink" x="0px" y="0px"
	 viewBox="0 0 549.3 239.4" style="enable-background:new 0 0 549.3 239.4;" xml:space="preserve">
<style type="text/css">
	.st0{fill:#FFFFFF;}
</style>
<g>
	<g>
		<path class="st0" d="M40.8,227.6c0.1,1.3,0.4,3.4,2,4c1.1,0.3,2.1,0.3,2.4,0.3c0.2,0,0.3,0,0.3,0.2c0,0.2-0.3,0.3-0.8,0.3
			c-0.8,0-4.8-0.1-6.2-0.2c-0.9-0.1-1-0.2-1-0.4c0-0.1,0.1-0.2,0.3-0.3c0.1,0,0.2-0.3,0.2-0.7c0-0.1,0-0.6-0.1-1l-1.8-18.8H36
			l-9.3,19.8c-0.6,1.3-0.7,1.5-1,1.5c-0.2,0-0.5-0.4-1.1-1.5l-9.4-19.4H15l-1.4,16.3c-0.1,1-0.1,2.1-0.1,2.9c0,0.6,0.4,1,1,1.2
			c0.6,0.1,1.2,0.2,1.4,0.2c0.1,0,0.3,0.1,0.3,0.2c0,0.3-0.2,0.3-0.7,0.3c-1.4,0-3.2-0.1-3.5-0.1c-0.3,0-2.1,0.1-3.1,0.1
			c-0.4,0-0.6-0.1-0.6-0.3c0-0.1,0.2-0.2,0.4-0.2c0.3,0,0.6,0,1.1-0.1c1.2-0.2,1.3-1.5,1.5-3.1l2.7-24.3c0-0.4,0.2-0.7,0.4-0.7
			s0.4,0.1,0.6,0.6l11.4,23.4l11-23.4c0.1-0.3,0.3-0.6,0.6-0.6c0.3,0,0.4,0.3,0.4,1L40.8,227.6z"/>
		<path class="st0" d="M62.6,203.7c8.4,0,14.7,5.3,14.7,14c0,8.4-5.9,15.2-14.9,15.2c-10.2,0-14.5-7.9-14.5-14.7
			C47.9,212.2,52.3,203.7,62.6,203.7z M63.4,231.5c3.4,0,10.3-1.9,10.3-12.8c0-8.9-5.4-13.8-11.3-13.8c-6.2,0-10.9,4.1-10.9,12.3
			C51.5,225.9,56.7,231.5,63.4,231.5z"/>
		<path class="st0" d="M83.9,231.9c-0.5-0.3-0.6-0.4-0.6-1.4c0-1.9,0.1-3.4,0.2-4c0-0.4,0.1-0.6,0.3-0.6c0.2,0,0.3,0.1,0.3,0.4
			c0,0.3,0,0.9,0.1,1.4c0.6,2.8,3,3.8,5.5,3.8c3.6,0,5.3-2.6,5.3-5c0-2.6-1.1-4.1-4.3-6.7l-1.7-1.4c-4-3.2-4.8-5.6-4.8-8.1
			c0-4,3-6.7,7.7-6.7c1.5,0,2.5,0.1,3.5,0.4c0.7,0.1,1,0.2,1.3,0.2c0.3,0,0.4,0.1,0.4,0.3c0,0.2-0.1,1.4-0.1,4
			c0,0.6-0.1,0.9-0.3,0.9c-0.2,0-0.3-0.2-0.3-0.5c0-0.4-0.3-1.5-0.5-1.9c-0.2-0.4-1.2-2-4.7-2c-2.6,0-4.6,1.6-4.6,4.3
			c0,2.1,1,3.4,4.5,6.3l1,0.8c4.4,3.5,5.4,5.8,5.4,8.8c0,1.5-0.6,4.4-3.2,6.2c-1.6,1.1-3.6,1.6-5.6,1.6
			C87.1,232.9,85.4,232.6,83.9,231.9z"/>
		<path class="st0" d="M103.3,217.8c0-6,3.7-14.2,15.5-14.2c4.4,0,7.8,1,9.2,1c0.4,0,0.5,0.2,0.5,0.4c0,0.4-0.3,2.2-0.3,4.4
			c0,1.8-0.1,2.3-0.4,2.3c-0.3,0-0.3-0.3-0.3-0.8c0-4.4-4.4-5.9-9-5.9c-9.6,0-11.9,5.9-11.9,12.5c0,7.1,5.5,13.6,13.5,13.6
			c2.8,0,5-0.3,6.5-1.9c0.8-0.8,1.3-2.5,1.4-3.1c0.1-0.4,0.1-0.6,0.4-0.6c0.2,0,0.3,0.3,0.3,0.6c0,0.3-0.4,3.5-0.8,4.8
			c-0.2,0.7-0.3,0.8-1,1.1c-1.5,0.6-4.3,0.9-6.7,0.9C108.7,232.9,103.3,226.5,103.3,217.8z"/>
		<path class="st0" d="M148,203.7c8.4,0,14.7,5.3,14.7,14c0,8.4-5.9,15.2-14.9,15.2c-10.2,0-14.5-7.9-14.5-14.7
			C133.3,212.2,137.7,203.7,148,203.7z M148.8,231.5c3.4,0,10.3-1.9,10.3-12.8c0-8.9-5.4-13.8-11.3-13.8c-6.2,0-10.9,4.1-10.9,12.3
			C136.8,225.9,142.1,231.5,148.8,231.5z"/>
		<path class="st0" d="M194.8,227.2h0.1c1-3.4,4.4-14.2,5.7-19c0.4-1.4,0.4-1.9,0.4-2.4c0-0.7-0.4-1.1-2.1-1.1
			c-0.2,0-0.3-0.1-0.3-0.3c0-0.2,0.2-0.3,0.6-0.3c1.9,0,3.5,0.1,3.8,0.1c0.3,0,1.9-0.1,3-0.1c0.3,0,0.5,0.1,0.5,0.2
			c0,0.2-0.1,0.3-0.3,0.3c-0.1,0-0.9,0-1.3,0.2c-1.1,0.4-1.7,2-2.4,4c-1.6,4.7-5.4,16.6-6.9,20.8c-1,2.8-1.2,3.2-1.6,3.2
			c-0.4,0-0.6-0.5-1.1-1.9l-7.3-20.7h-0.1c-1.3,3.6-6.4,17.2-7.8,20.7c-0.6,1.6-0.8,2-1.2,2c-0.4,0-0.6-0.4-1.3-2.9l-6.6-22.1
			c-0.6-2-1.1-2.5-2.1-2.9c-0.5-0.2-1.4-0.2-1.7-0.2c-0.2,0-0.3,0-0.3-0.3c0-0.2,0.2-0.3,0.6-0.3c1.9,0,4,0.1,4.4,0.1
			c0.3,0,2-0.1,3.8-0.1c0.5,0,0.7,0.1,0.7,0.3c0,0.2-0.2,0.3-0.4,0.3c-0.3,0-1,0-1.5,0.2c-0.2,0.1-0.5,0.4-0.5,0.9
			c0,0.5,0.3,1.8,0.7,3.4c0.6,2.4,4.4,16.1,5,18h0.1l7.9-21.3c0.6-1.5,0.7-1.7,0.9-1.7c0.3,0,0.5,0.5,0.9,1.8L194.8,227.2z"/>
		<path class="st0" d="M224.8,215c0-5.8,0-6.9-0.1-8.1c-0.1-1.3-0.4-1.9-1.6-2.1c-0.3-0.1-0.9-0.1-1.3-0.1c-0.1,0-0.3-0.1-0.3-0.2
			c0-0.2,0.2-0.3,0.6-0.3c1.7,0,4,0.1,4.2,0.1c0.4,0,3.2-0.1,4.4-0.1c2.3,0,4.8,0.2,6.8,1.6c0.9,0.7,2.6,2.5,2.6,5.1
			c0,2.8-1.2,5.5-4.5,8.6c3.1,3.9,5.6,7.2,7.8,9.5c2,2.1,3.6,2.5,4.5,2.7c0.7,0.1,1.2,0.1,1.5,0.1c0.2,0,0.3,0.1,0.3,0.2
			c0,0.2-0.2,0.3-0.9,0.3h-2.6c-2.1,0-3-0.2-4-0.7c-1.6-0.9-2.9-2.7-5-5.5c-1.6-2.1-3.3-4.5-4.1-5.5c-0.1-0.1-0.3-0.2-0.5-0.2
			l-4.6-0.1c-0.2,0-0.3,0.1-0.3,0.3v0.9c0,3.6,0,6.5,0.2,8.1c0.1,1.1,0.3,1.9,1.5,2.1c0.5,0.1,1.3,0.1,1.7,0.1
			c0.2,0,0.3,0.1,0.3,0.2c0,0.2-0.2,0.3-0.6,0.3c-2.1,0-4.4-0.1-4.6-0.1c0,0-2.4,0.1-3.5,0.1c-0.4,0-0.6-0.1-0.6-0.3
			c0-0.1,0.1-0.2,0.3-0.2c0.3,0,0.8-0.1,1.1-0.1c0.7-0.1,0.9-1,1.1-2.1c0.2-1.6,0.2-4.5,0.2-8.1V215z M227.8,218.3
			c0,0.2,0.1,0.3,0.3,0.4c0.6,0.3,2.3,0.6,3.9,0.6c0.9,0,1.9-0.1,2.8-0.7c1.3-0.9,2.3-2.9,2.3-5.7c0-4.7-2.5-7.5-6.4-7.5
			c-1.1,0-2.1,0.1-2.5,0.2c-0.2,0.1-0.3,0.2-0.3,0.4V218.3z"/>
		<path class="st0" d="M256,216.3c0,0.3,0,0.4,0.2,0.4c0.5,0,5.1,0,5.9-0.1c0.9-0.1,1.4-0.1,1.8-0.5c0.3-0.3,0.4-0.5,0.6-0.5
			c0.1,0,0.2,0.1,0.2,0.3c0,0.1-0.4,2.6-0.4,4.5c0,0.4,0,0.7-0.3,0.7c-0.2,0-0.3-0.1-0.3-0.3c0-0.4,0-0.7-0.1-1.2
			c-0.1-0.5-0.5-1.2-1.9-1.3c-1-0.1-4.7-0.2-5.3-0.2c-0.2,0-0.3,0.1-0.3,0.3v9.7c0,2.5,0.7,3.1,4.3,3.1c1,0,2.6,0,3.6-0.4
			s1.4-1.2,1.7-2.7c0.1-0.4,0.1-0.6,0.3-0.6c0.2,0,0.2,0.3,0.2,0.6c0,0.3-0.3,2.8-0.5,3.6c-0.3,1-0.6,1-2,1c-5.6,0-8.1-0.2-9.2-0.2
			c-1,0-2.8,0.1-3.7,0.1c-0.4,0-0.6-0.1-0.6-0.3c0-0.1,0.1-0.2,0.3-0.2c0.3,0,0.8,0,1.1-0.1c0.6-0.2,0.8-0.5,1-1.6
			c0.2-1,0.3-4,0.3-8.5V215c0-6.3,0-7.8-0.1-8.5c-0.1-0.9-0.3-1.5-1.6-1.7c-0.3-0.1-0.9-0.1-1.3-0.1c-0.1,0-0.3-0.1-0.3-0.2
			c0-0.2,0.2-0.3,0.6-0.3c1.7,0,4,0.1,4.2,0.1c4,0,7.8,0,8.4-0.1c0.6,0,1.5-0.1,1.6-0.1c0.2-0.1,0.4-0.2,0.5-0.2
			c0.1,0,0.2,0.2,0.2,0.4c0,0.3-0.2,0.7-0.3,1.8c0,0.4-0.1,2-0.2,2.5c0,0.2-0.1,0.4-0.3,0.4c-0.2,0-0.3-0.1-0.3-0.4
			c0-0.3-0.1-0.9-0.3-1.4c-0.2-0.5-1.1-1.2-3.3-1.2c-0.2,0-3.6-0.1-4.3-0.1c-0.1,0-0.2,0.1-0.2,0.3V216.3z"/>
		<path class="st0" d="M293.3,222.9c0-3-0.2-3.4-1.7-3.8c-0.3-0.1-0.9-0.1-1.3-0.1c-0.1,0-0.3-0.1-0.3-0.2c0-0.2,0.2-0.3,0.6-0.3
			c1.7,0,4,0.1,4.2,0.1c0.2,0,2.5-0.1,3.7-0.1c0.4,0,0.6,0.1,0.6,0.3c0,0.1-0.1,0.2-0.3,0.2c-0.2,0-0.7,0-0.9,0.1
			c-1,0.2-1.2,0.8-1.3,1.6c-0.1,0.6-0.1,2.6-0.1,4.4v4.2c0,1.7,0,1.8-0.5,2c-2.4,1.3-5.7,1.7-7.9,1.7c-7.3,0-16.7-3.2-16.7-14.6
			c0-11.1,8.5-14.6,16.1-14.6c3.2,0,7.3,1,8.7,1c0.4,0,0.4,0.2,0.4,0.3c0,0.5-0.2,1.6-0.2,5.3c0,0.6-0.1,0.8-0.4,0.8
			c-0.2,0-0.2-0.2-0.3-0.6c0-0.5-0.2-1.6-0.8-2.5c-0.9-1.4-4-3-8.8-3c-6.3,0-11.7,3.1-11.7,11.9c0,9.5,7,14.3,13.7,14.3
			c1.3,0,3.3-0.2,4.2-0.8c0.5-0.3,0.7-0.7,0.7-1.3V222.9z"/>
		<path class="st0" d="M310.9,221.6c0,3.6,0,6.5,0.2,8.1c0.1,1.1,0.3,1.9,1.5,2.1c0.5,0.1,1.3,0.1,1.7,0.1c0.2,0,0.3,0.1,0.3,0.2
			c0,0.2-0.2,0.3-0.6,0.3c-2.1,0-4.4-0.1-4.6-0.1c-0.2,0-2.5,0.1-3.7,0.1c-0.4,0-0.6-0.1-0.6-0.3c0-0.1,0.1-0.2,0.3-0.2
			c0.3,0,0.8-0.1,1.1-0.1c0.7-0.1,0.9-1,1.1-2.1c0.2-1.6,0.2-4.5,0.2-8.1V215c0-5.8,0-6.9-0.1-8.1c-0.1-1.3-0.4-1.9-1.3-2.1
			c-0.4-0.1-0.9-0.1-1.2-0.1c-0.1,0-0.3-0.1-0.3-0.2c0-0.2,0.2-0.3,0.6-0.3c1.2,0,3.6,0.1,3.8,0.1c0.2,0,2.5-0.1,3.7-0.1
			c0.4,0,0.6,0.1,0.6,0.3c0,0.1-0.1,0.2-0.3,0.2c-0.3,0-0.5,0-0.9,0.1c-1,0.2-1.3,0.8-1.4,2.1c-0.1,1.2-0.1,2.2-0.1,8.1V221.6z"/>
		<path class="st0" d="M334.6,203.7c8.4,0,14.7,5.3,14.7,14c0,8.4-5.9,15.2-14.9,15.2c-10.2,0-14.5-7.9-14.5-14.7
			C319.9,212.2,324.3,203.7,334.6,203.7z M335.4,231.5c3.4,0,10.3-1.9,10.3-12.8c0-8.9-5.4-13.8-11.3-13.8
			c-6.2,0-10.9,4.1-10.9,12.3C323.5,225.9,328.7,231.5,335.4,231.5z"/>
		<path class="st0" d="M359.3,227.3c0.1,3.1,0.4,4,1.5,4.3c0.7,0.2,1.5,0.2,1.9,0.2c0.2,0,0.3,0.1,0.3,0.2c0,0.2-0.2,0.3-0.7,0.3
			c-2.1,0-3.6-0.1-4-0.1s-1.9,0.1-3.6,0.1c-0.4,0-0.6,0-0.6-0.3c0-0.1,0.1-0.2,0.3-0.2c0.3,0,1,0,1.5-0.2c0.9-0.3,1.1-1.3,1.1-4.7
			l0-21.4c0-1.5,0.1-1.9,0.4-1.9s0.9,0.8,1.3,1.2c0.6,0.6,6.1,6.6,11.9,12.8c3.7,4,7.8,8.5,8.9,9.7l-0.4-18.9c0-2.4-0.3-3.2-1.5-3.5
			c-0.7-0.1-1.5-0.2-1.8-0.2c-0.3,0-0.3-0.1-0.3-0.3c0-0.2,0.3-0.3,0.7-0.3c1.7,0,3.5,0.1,3.9,0.1c0.4,0,1.6-0.1,3.2-0.1
			c0.4,0,0.7,0,0.7,0.3c0,0.1-0.1,0.3-0.4,0.3c-0.2,0-0.4,0-0.9,0.1c-1.2,0.3-1.4,1.1-1.4,3.3l-0.1,21.8c0,2.5-0.1,2.6-0.3,2.6
			c-0.3,0-0.7-0.4-2.7-2.4c-0.4-0.4-5.8-5.9-9.7-10.1c-4.3-4.7-8.5-9.4-9.7-10.7L359.3,227.3z"/>
		<path class="st0" d="M405.7,215c0-5.8,0-6.9-0.1-8.1c-0.1-1.3-0.4-1.9-1.6-2.1c-0.3-0.1-0.9-0.1-1.3-0.1c-0.1,0-0.3-0.1-0.3-0.2
			c0-0.2,0.2-0.3,0.6-0.3c1.7,0,3.9,0.1,4.2,0.1c0.8,0,3-0.1,4.7-0.1c4.7,0,6.3,1.6,6.9,2.1c0.8,0.8,1.9,2.5,1.9,4.4
			c0,5.3-3.9,8.9-9.2,8.9c-0.2,0-0.6,0-0.8,0c-0.2,0-0.4-0.1-0.4-0.3c0-0.3,0.2-0.3,1-0.3c3.6,0,6.4-2.6,6.4-6.1
			c0-1.2-0.1-3.7-2.1-5.7c-2-2-4.3-1.9-5.1-1.9c-0.6,0-1.3,0.1-1.6,0.2c-0.2,0.1-0.3,0.3-0.3,0.7v15.3c0,3.6,0,6.5,0.2,8.1
			c0.1,1.1,0.3,1.9,1.5,2.1c0.5,0.1,1.3,0.1,1.7,0.1c0.2,0,0.3,0.1,0.3,0.2c0,0.2-0.2,0.3-0.6,0.3c-2.1,0-4.4-0.1-4.6-0.1
			c-0.1,0-2.5,0.1-3.6,0.1c-0.4,0-0.6-0.1-0.6-0.3c0-0.1,0.1-0.2,0.3-0.2c0.3,0,0.8-0.1,1.1-0.1c0.7-0.1,0.9-1,1.1-2.1
			c0.2-1.6,0.2-4.5,0.2-8.1V215z"/>
		<path class="st0" d="M436.6,205c0.6,1.4,6.4,16.8,8.7,22.5c1.3,3.3,2.4,3.9,3.2,4.1c0.6,0.2,1.1,0.2,1.5,0.2c0.2,0,0.4,0,0.4,0.2
			c0,0.2-0.3,0.3-0.7,0.3c-0.6,0-3.3,0-5.9-0.1c-0.7,0-1.1,0-1.1-0.3c0-0.1,0.1-0.3,0.3-0.3c0.1,0,0.3-0.2,0.3-0.5
			c0-0.1,0-0.3-0.1-0.5l-3.5-9.2c-0.1-0.1-0.1-0.2-0.3-0.2h-8c-0.2,0-0.3,0.1-0.4,0.3l-2.2,6.6c-0.3,0.9-0.5,1.8-0.5,2.5
			c0,0.7,0.8,1.1,1.4,1.1h0.4c0.3,0,0.4,0.1,0.4,0.2c0,0.2-0.2,0.3-0.6,0.3c-0.9,0-2.5-0.1-2.9-0.1c-0.4,0-2.5,0.1-4.2,0.1
			c-0.5,0-0.7-0.1-0.7-0.3c0-0.1,0.1-0.2,0.3-0.2c0.3,0,0.8,0,1.1-0.1c1.7-0.2,2.5-1.6,3.1-3.5l8.5-23.2c0.4-1.2,0.6-1.5,0.8-1.5
			S436.2,203.9,436.6,205z M438.9,220c0.2,0,0.2-0.1,0.1-0.3l-3.5-10.1c-0.1-0.3-0.2-0.4-0.3-0.4c-0.1,0-0.2,0.1-0.3,0.4l-3.3,10.1
			c-0.1,0.2,0,0.3,0.1,0.3H438.9z"/>
		<path class="st0" d="M455.7,215c0-5.8,0-6.9-0.1-8.1c-0.1-1.3-0.4-1.9-1.6-2.1c-0.3-0.1-0.9-0.1-1.3-0.1c-0.1,0-0.3-0.1-0.3-0.2
			c0-0.2,0.2-0.3,0.6-0.3c1.7,0,4,0.1,4.2,0.1c0.4,0,3.2-0.1,4.4-0.1c2.3,0,4.8,0.2,6.8,1.6c0.9,0.7,2.6,2.5,2.6,5.1
			c0,2.8-1.2,5.5-4.5,8.6c3.1,3.9,5.6,7.2,7.8,9.5c2,2.1,3.6,2.5,4.5,2.7c0.7,0.1,1.2,0.1,1.5,0.1c0.2,0,0.3,0.1,0.3,0.2
			c0,0.2-0.2,0.3-0.9,0.3h-2.6c-2.1,0-3-0.2-4-0.7c-1.6-0.9-2.9-2.7-5-5.5c-1.6-2.1-3.3-4.5-4.1-5.5c-0.1-0.1-0.3-0.2-0.5-0.2
			l-4.6-0.1c-0.2,0-0.3,0.1-0.3,0.3v0.9c0,3.6,0,6.5,0.2,8.1c0.1,1.1,0.3,1.9,1.5,2.1c0.5,0.1,1.3,0.1,1.7,0.1
			c0.2,0,0.3,0.1,0.3,0.2c0,0.2-0.2,0.3-0.6,0.3c-2.1,0-4.4-0.1-4.6-0.1c0,0-2.4,0.1-3.5,0.1c-0.4,0-0.6-0.1-0.6-0.3
			c0-0.1,0.1-0.2,0.3-0.2c0.3,0,0.8-0.1,1.1-0.1c0.7-0.1,0.9-1,1.1-2.1c0.2-1.6,0.2-4.5,0.2-8.1V215z M458.7,218.3
			c0,0.2,0.1,0.3,0.3,0.4c0.6,0.3,2.3,0.6,3.9,0.6c0.9,0,1.9-0.1,2.8-0.7c1.3-0.9,2.3-2.9,2.3-5.7c0-4.7-2.5-7.5-6.4-7.5
			c-1.1,0-2.1,0.1-2.5,0.2c-0.2,0.1-0.3,0.2-0.3,0.4V218.3z"/>
		<path class="st0" d="M483.8,215c0-5.8,0-6.9-0.1-8.1c-0.1-1.3-0.4-1.9-1.6-2.1c-0.3-0.1-0.9-0.1-1.3-0.1c-0.1,0-0.3-0.1-0.3-0.2
			c0-0.2,0.2-0.3,0.6-0.3c1.7,0,3.9,0.1,4.1,0.1c0.3,0,2.5-0.1,3.6-0.1c0.4,0,0.6,0.1,0.6,0.3c0,0.1-0.1,0.2-0.3,0.2
			c-0.3,0-0.5,0-0.9,0.1c-1,0.2-1.3,0.8-1.4,2.1c-0.1,1.2-0.1,2.2-0.1,8.1v2.2h0.1c0.6-0.7,7.4-7.6,8.7-9c1-1.1,2-2.1,2-2.7
			c0-0.4-0.2-0.7-0.5-0.8c-0.2-0.1-0.3-0.1-0.3-0.3c0-0.2,0.2-0.3,0.4-0.3c0.7,0,1.9,0.1,2.8,0.1c0.2,0,2.6-0.1,3.6-0.1
			c0.4,0,0.6,0.1,0.6,0.3s-0.1,0.3-0.4,0.3c-0.6,0-1.3,0.2-2.1,0.5c-1.5,0.7-2.3,1.6-4,3.2c-0.9,0.9-7.4,7.2-8.2,8.2
			c1,1.1,8.7,9.1,10.3,10.5c3.1,2.9,3.8,3.5,5.6,4.2c1,0.4,2.1,0.5,2.3,0.5c0.3,0,0.5,0.1,0.5,0.2c0,0.2-0.2,0.3-0.8,0.3h-1.9
			c-1,0-1.8,0-2.6-0.1c-2-0.2-2.9-1-4.5-2.3c-1.7-1.4-9.6-9.9-11.4-12.1h-0.2v3.7c0,3.6,0,6.5,0.2,8.1c0.1,1.1,0.3,1.9,1.5,2.1
			c0.5,0.1,1.1,0.1,1.5,0.1c0.2,0,0.3,0.1,0.3,0.2c0,0.2-0.2,0.3-0.6,0.3c-1.8,0-4-0.1-4.3-0.1s-2.5,0.1-3.6,0.1
			c-0.4,0-0.6-0.1-0.6-0.3c0-0.1,0.1-0.2,0.3-0.2c0.3,0,0.8-0.1,1.1-0.1c0.7-0.1,0.9-1,1.1-2.1c0.2-1.6,0.2-4.5,0.2-8.1V215z"/>
		<path class="st0" d="M509.5,231.9c-0.5-0.3-0.6-0.4-0.6-1.4c0-1.9,0.1-3.4,0.2-4c0-0.4,0.1-0.6,0.3-0.6c0.2,0,0.3,0.1,0.3,0.4
			c0,0.3,0,0.9,0.1,1.4c0.6,2.8,3,3.8,5.5,3.8c3.6,0,5.3-2.6,5.3-5c0-2.6-1.1-4.1-4.3-6.7l-1.7-1.4c-4-3.2-4.8-5.6-4.8-8.1
			c0-4,3-6.7,7.7-6.7c1.5,0,2.5,0.1,3.5,0.4c0.7,0.1,1,0.2,1.3,0.2c0.3,0,0.4,0.1,0.4,0.3c0,0.2-0.1,1.4-0.1,4
			c0,0.6-0.1,0.9-0.3,0.9c-0.2,0-0.3-0.2-0.3-0.5c0-0.4-0.3-1.5-0.5-1.9c-0.2-0.4-1.2-2-4.7-2c-2.6,0-4.6,1.6-4.6,4.3
			c0,2.1,1,3.4,4.5,6.3l1,0.8c4.4,3.5,5.4,5.8,5.4,8.8c0,1.5-0.6,4.4-3.2,6.2c-1.6,1.1-3.6,1.6-5.6,1.6
			C512.7,232.9,511,232.6,509.5,231.9z"/>
	</g>
	<g>
		<path class="st0" d="M203.5,149.8c0.9,7.9,2.4,20.2,11.9,23.3c6.4,2,12.1,2,14.3,2c1.1,0,1.8,0.2,1.8,1.1c0,1.3-2,2-4.6,2
			c-4.8,0-28.6-0.7-36.7-1.3c-5.1-0.4-6.1-1.1-6.1-2.2c0-0.9,0.4-1.3,1.5-1.5c0.7-0.2,1.1-1.8,1.1-4.2c0-0.7-0.2-3.5-0.4-6.2
			L175.8,51.8h-0.7l-54.9,116.6c-3.5,7.5-4.4,9-6.1,9c-1.3,0-3.1-2.2-6.4-9L52.6,54h-0.9l-8.3,96.2c-0.4,5.9-0.7,12.1-0.7,16.9
			c0,3.3,2.4,6.1,5.7,6.8c3.7,0.9,7,1.1,8.3,1.1c0.9,0,1.8,0.4,1.8,1.1c0,1.5-1.3,2-4,2c-8.1,0-18.7-0.7-20.4-0.7
			c-2,0-12.5,0.7-18.4,0.7c-2.2,0-3.7-0.4-3.7-2c0-0.7,1.1-1.1,2.2-1.1c1.8,0,3.3,0,6.6-0.7c6.8-1.3,7.7-8.8,8.8-18.2l15.8-143
			c0.2-2.4,1.1-4.2,2.4-4.2c1.3,0,2.2,0.9,3.3,3.3l67.2,138.2l64.6-137.9c0.9-2,1.8-3.5,3.3-3.5c1.5,0,2.2,1.8,2.6,5.9L203.5,149.8z
			"/>
		<path class="st0" d="M270.7,75.7c0-34.3,0-40.4-0.4-47.4c-0.4-7.5-2.2-11-9.4-12.5c-1.8-0.4-5.5-0.7-7.5-0.7
			c-0.9,0-1.8-0.4-1.8-1.3c0-1.3,1.1-1.8,3.5-1.8c9.9,0,23.7,0.7,24.8,0.7c2.4,0,19.1-0.7,25.9-0.7c13.8,0,28.6,1.3,40.2,9.7
			c5.5,4,15.2,14.7,15.2,29.9c0,16.3-6.8,32.5-26.6,50.7c18,23.1,32.9,42.6,45.7,56.2c11.9,12.5,21.3,14.9,26.8,15.8
			c4.2,0.7,7.2,0.7,8.6,0.7c1.1,0,2,0.7,2,1.3c0,1.3-1.3,1.8-5.3,1.8h-15.6c-12.3,0-17.8-1.1-23.5-4.2c-9.4-5.1-17.1-15.8-29.7-32.3
			c-9.2-12.1-19.5-26.8-23.9-32.5c-0.9-0.9-1.5-1.3-2.9-1.3l-27-0.4c-1.1,0-1.5,0.7-1.5,1.8v5.3c0,21.1,0,38.4,1.1,47.7
			c0.7,6.4,2,11.2,8.6,12.1c3.1,0.4,7.9,0.9,9.9,0.9c1.3,0,1.8,0.7,1.8,1.3c0,1.1-1.1,1.8-3.5,1.8c-12.1,0-25.9-0.7-27-0.7
			c-0.2,0-14.1,0.7-20.6,0.7c-2.4,0-3.5-0.4-3.5-1.8c0-0.7,0.4-1.3,1.8-1.3c2,0,4.6-0.4,6.6-0.9c4.4-0.9,5.5-5.7,6.4-12.1
			c1.1-9.2,1.1-26.6,1.1-47.7V75.7z M288.2,94.8c0,1.1,0.4,2,1.5,2.6c3.3,2,13.4,3.5,23.1,3.5c5.3,0,11.4-0.7,16.5-4.2
			c7.7-5.3,13.4-17.1,13.4-33.8c0-27.5-14.5-43.9-38-43.9c-6.6,0-12.5,0.7-14.7,1.3c-1.1,0.4-1.8,1.3-1.8,2.6V94.8z"/>
		<path class="st0" d="M436.3,75.7c0-34.3,0-40.4-0.4-47.4c-0.4-7.5-2.2-11-9.4-12.5c-1.8-0.4-5.5-0.7-7.5-0.7
			c-0.9,0-1.8-0.4-1.8-1.3c0-1.3,1.1-1.8,3.5-1.8c9.9,0,23.1,0.7,24.8,0.7c4.8,0,17.6-0.7,27.7-0.7c27.5,0,37.3,9.2,40.9,12.5
			c4.8,4.6,11,14.5,11,26.1c0,31.2-22.8,52.3-54,52.3c-1.1,0-3.5,0-4.6-0.2c-1.1,0-2.4-0.4-2.4-1.5c0-1.8,1.3-2,5.9-2
			c21.3,0,38-15.6,38-35.8c0-7.2-0.7-22-12.3-33.8c-11.6-11.9-25-11-30.1-11c-3.7,0-7.5,0.4-9.4,1.3c-1.3,0.4-1.8,2-1.8,4.2v90.3
			c0,21.1,0,38.4,1.1,47.7c0.7,6.4,2,11.2,8.6,12.1c3.1,0.4,7.9,0.9,9.9,0.9c1.3,0,1.8,0.7,1.8,1.3c0,1.1-1.1,1.8-3.5,1.8
			c-12.1,0-25.9-0.7-27-0.7c-0.7,0-14.5,0.7-21.1,0.7c-2.4,0-3.5-0.4-3.5-1.8c0-0.7,0.4-1.3,1.8-1.3c2,0,4.6-0.4,6.6-0.9
			c4.4-0.9,5.5-5.7,6.4-12.1c1.1-9.2,1.1-26.6,1.1-47.7V75.7z"/>
	</g>
</g>
</svg>
