<svg xmlns="http://www.w3.org/2000/svg" xmlns:xlink="http://www.w3.org/1999/xlink" xml:space="preserve" id="Слой_1" x="0" y="0" style="enable-background:new 0 0 878 239.4" version="1.1" viewBox="0 0 878 239.4"><style>.st0{fill:#fff}</style><path d="M145.6 127.6c-1.6-15.7-7.5-28.7-23.6-33.3-8.8-2.5-18.4-2.6-26.6-7-2.2-1.2-4.2-2.6-6-4.5-1.5-1.6-2.6-3.8-4.4-5.1-1.7-1.2-3.3-1.6-5.2-.9v.1c4.4-.1 7.4 6.9 10.4 9.5 2 1.8 4.4 3.2 6.8 4.3 6.1 2.7 12.8 3.6 19.3 4.9 8.3 1.8 16.3 4.7 21 12.3 4 6.5 5.3 14.6 5.8 22.1.7 9.9-2.9 17-10.3 23.4-5.3 4.6-11.3 8.3-15.6 13.9-3.6 4.8-6.1 11.1-4.6 17.1.7 2.8 2.4 5.1 3.5 7.7 2.6 6.4-.8 8.8-3 10.9-1.5 1.3-3 2.4-4.7 3.4 5.3-1.5 11.9-4.1 11.7-10.6-.1-3.5-2.4-6.3-3.8-9.4-2.9-6.6-.2-13.5 4.2-18.7 6-7 14.6-11.2 20.3-18.5 5-6.4 5.6-13.5 4.8-21.6z" class="st0"/><linearGradient id="SVGID_1_" x1="23.868" x2="46.164" y1="165.824" y2="165.824" gradientUnits="userSpaceOnUse"><stop offset="0" style="stop-color:#191e2b"/><stop offset="1" style="stop-color:#6dab5e"/></linearGradient><path d="M46.2 185.8c-2.8-2.9-5.4-6.1-7.7-9.4-3.4-4.8-6.2-10.1-8.5-15.5-2.3-5.5-3.4-11.4-5.7-16.9-.1-.2-.4-.1-.4.1-.3 5.6 1.7 11.6 3.7 16.9 2.2 5.7 5.1 11.2 8.5 16.2 2.5 3.8 5.4 7.3 8.5 10.6.4-.8.9-1.4 1.6-2z" style="fill:url(#SVGID_1_)"/><linearGradient id="SVGID_2_" x1="30.099" x2="59.195" y1="150.952" y2="150.952" gradientUnits="userSpaceOnUse"><stop offset="0" style="stop-color:#191e2b"/><stop offset="1" style="stop-color:#6dab5e"/></linearGradient><path d="M55.6 182.4c1.2-.1 2.4-.2 3.6-.2-3.1-3.1-6.1-6.5-8.8-10.1-5.7-7.5-10.1-15.9-13.3-24.8-3.2-9-4.1-18.3-6.2-27.5-.1-.2-.4-.2-.4 0-1.3 9.3 1.3 19.6 4.3 28.3 3.1 9.1 7.6 17.6 13.3 25.3 2.2 3.1 4.8 6.1 7.5 9z" style="fill:url(#SVGID_2_)"/><linearGradient id="SVGID_3_" x1="36.538" x2="74.244" y1="146.219" y2="146.219" gradientUnits="userSpaceOnUse"><stop offset="0" style="stop-color:#191e2b"/><stop offset="1" style="stop-color:#6dab5e"/></linearGradient><path d="M70.8 182c1.1-.1 2.3-.2 3.5-.4C54.1 164 41 138.8 39.1 111.4c-.1-1.7-2.7-1.1-2.5.5 1.8 27.1 14.6 52.2 34.2 70.1z" style="fill:url(#SVGID_3_)"/><linearGradient id="SVGID_4_" x1="45.418" x2="87.864" y1="140.322" y2="140.322" gradientUnits="userSpaceOnUse"><stop offset="0" style="stop-color:#191e2b"/><stop offset="1" style="stop-color:#6dab5e"/></linearGradient><path d="M85.1 179c.9-.4 1.8-.7 2.7-1.2C64.7 160.3 50 132.1 48 103c-.1-1.6-2.7-1.8-2.6-.2 2 29.6 16.5 58.1 39.7 76.2z" style="fill:url(#SVGID_4_)"/><linearGradient id="SVGID_5_" x1="54.555" x2="95.247" y1="134.599" y2="134.599" gradientUnits="userSpaceOnUse"><stop offset="0" style="stop-color:#191e2b"/><stop offset="1" style="stop-color:#6dab5e"/></linearGradient><path d="M95.2 170.2c-22-17.5-36.4-43.6-38.1-72.2-.1-1.6-2.7-1.8-2.6-.2 1.7 29.6 16.5 56.6 39.5 74.6.5-.7.9-1.4 1.2-2.2z" style="fill:url(#SVGID_5_)"/><linearGradient id="SVGID_6_" x1="64.604" x2="98.475" y1="128.213" y2="128.213" gradientUnits="userSpaceOnUse"><stop offset="0" style="stop-color:#191e2b"/><stop offset="1" style="stop-color:#6dab5e"/></linearGradient><path d="M98.1 163.7c0-.8 0-1.6.1-2.4 0-.3.1-.6.3-.8-18.3-17.4-29.9-41-31.3-66.6-.1-1.6-2.7-1.8-2.6-.2 1.5 27.2 13.8 51.9 33.5 70z" style="fill:url(#SVGID_6_)"/><defs><circle id="SVGID_7_" cx="123.8" cy="119.7" r="119.7"/></defs><clipPath id="SVGID_8_"><use xlink:href="#SVGID_7_" style="overflow:visible"/></clipPath><linearGradient id="SVGID_9_" x1="18.508" x2="157.848" y1="146.289" y2="146.289" gradientUnits="userSpaceOnUse"><stop offset="0" style="stop-color:#191e2b"/><stop offset="1" style="stop-color:#6dab5e"/></linearGradient><path d="M86.6 75.1c-32 0-59.2 21.2-68.1 50.3 1.2-1.8 2.4-3.5 3.6-5.3.3-.4.5-.8.8-1.3.6-.8 4.4-7.4 6.3-9.4C41.4 90.6 62.6 78 86.6 78c37.6 0 68.2 30.6 68.2 68.2s-30.6 68.2-68.2 68.2h-2c-4.5.8-9.1 1.1-13.7 1.3 5.1 1.1 10.3 1.7 15.7 1.7 39.3 0 71.2-32 71.2-71.2s-31.9-71.1-71.2-71.1z" style="clip-path:url(#SVGID_8_);fill:url(#SVGID_9_)"/><linearGradient id="SVGID_10_" x1="6.858" x2="166.368" y1="145.521" y2="145.521" gradientUnits="userSpaceOnUse"><stop offset="0" style="stop-color:#191e2b"/><stop offset="1" style="stop-color:#6dab5e"/></linearGradient><path d="M86.6 225.3c-44 0-79.8-35.8-79.8-79.8s35.8-79.8 79.8-79.8 79.8 35.8 79.8 79.8-35.8 79.8-79.8 79.8zm0-156.5c-42.3 0-76.8 34.4-76.8 76.8s34.4 76.8 76.8 76.8 76.8-34.4 76.8-76.8-34.5-76.8-76.8-76.8z" style="clip-path:url(#SVGID_8_);fill:url(#SVGID_10_)"/><linearGradient id="SVGID_11_" x1="-3.595" x2="175.323" y1="146.269" y2="146.269" gradientUnits="userSpaceOnUse"><stop offset="0" style="stop-color:#191e2b"/><stop offset="1" style="stop-color:#6dab5e"/></linearGradient><path d="M85.9 235.7c-49.3 0-89.5-40.1-89.5-89.5s40.1-89.5 89.5-89.5c49.3 0 89.5 40.1 89.5 89.5s-40.2 89.5-89.5 89.5zm0-175.9C38.2 59.8-.6 98.6-.6 146.3s38.8 86.5 86.5 86.5 86.5-38.8 86.5-86.5-38.9-86.5-86.5-86.5z" style="clip-path:url(#SVGID_8_);fill:url(#SVGID_11_)"/><linearGradient id="SVGID_12_" x1="-14.072" x2="185.8" y1="146.269" y2="146.269" gradientUnits="userSpaceOnUse"><stop offset="0" style="stop-color:#191e2b"/><stop offset="1" style="stop-color:#6dab5e"/></linearGradient><path d="M85.9 246.2c-55.1 0-99.9-44.8-99.9-99.9s44.8-99.9 99.9-99.9 99.9 44.8 99.9 99.9-44.8 99.9-99.9 99.9zm0-196.9C32.4 49.3-11 92.8-11 146.2s43.5 96.9 96.9 96.9c53.5 0 96.9-43.5 96.9-96.9s-43.5-96.9-96.9-96.9z" style="clip-path:url(#SVGID_8_);fill:url(#SVGID_12_)"/><linearGradient id="SVGID_13_" x1="-24.302" x2="196.031" y1="146.269" y2="146.269" gradientUnits="userSpaceOnUse"><stop offset="0" style="stop-color:#191e2b"/><stop offset="1" style="stop-color:#6dab5e"/></linearGradient><path d="M85.9 256.4c-60.7 0-110.2-49.4-110.2-110.2S25.1 36.1 85.9 36.1c60.7 0 110.2 49.4 110.2 110.2S146.6 256.4 85.9 256.4zm0-217.3c-59.1 0-107.2 48.1-107.2 107.2S26.8 253.5 85.9 253.5s107.2-48.1 107.2-107.2S145 39.1 85.9 39.1z" style="clip-path:url(#SVGID_8_);fill:url(#SVGID_13_)"/><linearGradient id="SVGID_14_" x1="-34.152" x2="205.881" y1="146.269" y2="146.269" gradientUnits="userSpaceOnUse"><stop offset="0" style="stop-color:#191e2b"/><stop offset="1" style="stop-color:#6dab5e"/></linearGradient><path d="M85.9 266.3c-66.2 0-120-53.8-120-120s53.8-120 120-120 120 53.8 120 120c0 66.1-53.9 120-120 120zm0-237.1c-64.5 0-117 52.5-117 117s52.5 117 117 117 117-52.5 117-117-52.5-117-117-117z" style="clip-path:url(#SVGID_8_);fill:url(#SVGID_14_)"/><linearGradient id="SVGID_15_" x1="-44.629" x2="217.854" y1="145.521" y2="145.521" gradientUnits="userSpaceOnUse"><stop offset="0" style="stop-color:#191e2b"/><stop offset="1" style="stop-color:#6dab5e"/></linearGradient><path d="M86.6 276.8c-72.4 0-131.2-58.9-131.2-131.2S14.2 14.3 86.6 14.3s131.2 58.9 131.2 131.2S159 276.8 86.6 276.8zm0-259.5c-70.7 0-128.2 57.5-128.2 128.2S15.9 273.7 86.6 273.7c70.7 0 128.2-57.5 128.2-128.2S157.3 17.3 86.6 17.3z" style="clip-path:url(#SVGID_8_);fill:url(#SVGID_15_)"/><linearGradient id="SVGID_16_" x1="-55.355" x2="228.58" y1="145.521" y2="145.521" gradientUnits="userSpaceOnUse"><stop offset="0" style="stop-color:#191e2b"/><stop offset="1" style="stop-color:#6dab5e"/></linearGradient><path d="M86.6 287.5c-78.3 0-142-63.7-142-142s63.7-142 142-142 142 63.7 142 142-63.7 142-142 142zm0-281c-76.6 0-139 62.3-139 139s62.3 139 139 139 139-62.3 139-139-62.4-139-139-139z" style="clip-path:url(#SVGID_8_);fill:url(#SVGID_16_)"/><linearGradient id="SVGID_17_" x1="-65.96" x2="239.185" y1="145.521" y2="145.521" gradientUnits="userSpaceOnUse"><stop offset="0" style="stop-color:#191e2b"/><stop offset="1" style="stop-color:#6dab5e"/></linearGradient><path d="M86.6 298.1C2.5 298.1-66 229.6-66 145.5S2.5-7.1 86.6-7.1s152.6 68.4 152.6 152.6-68.5 152.6-152.6 152.6zM86.6-4C4.1-4-62.9 63.1-62.9 145.5s67 149.6 149.5 149.6S236.2 228 236.2 145.5 169.1-4 86.6-4z" style="clip-path:url(#SVGID_8_);fill:url(#SVGID_17_)"/><linearGradient id="SVGID_18_" x1="-77.833" x2="249.035" y1="146.533" y2="146.533" gradientUnits="userSpaceOnUse"><stop offset="0" style="stop-color:#191e2b"/><stop offset="1" style="stop-color:#6dab5e"/></linearGradient><path d="M85.6 310C41.9 310 .9 293-30 262.1c-30.9-30.9-47.9-71.9-47.9-115.6 0-43.7 17-84.7 47.9-115.6C.9.1 41.9-16.9 85.6-16.9c43.7 0 84.7 17 115.6 47.9C232 61.8 249 102.9 249 146.5c0 43.7-17 84.7-47.9 115.6C170.3 293 129.3 310 85.6 310zm0-323.9c-88.5 0-160.4 72-160.4 160.4s72 160.4 160.4 160.4c88.5 0 160.4-72 160.4-160.4S174.1-13.9 85.6-13.9z" style="clip-path:url(#SVGID_8_);fill:url(#SVGID_18_)"/><path d="M32.2 223.1c-.5-1-.4-2.1-.3-3.1.3-4.5.9-9 1.8-13.5s2.1-9 3.7-13.3c1.4-3.7 3.3-7.1 6.8-9.2 2.5-1.5 5.2-2.3 8-2.6 4-.5 8.1-.6 12.2-1 4.7-.5 9.5-.5 14.1-1.4 8.1-1.5 14.3-5.4 17.5-13.4 1.6-4 2.7-8.2 3-12.5.1-1 .5-1.8.7-2.8.5 1.8.4 3.7.2 5.5-.2 3.3-.8 6.6-1.8 9.8-2.4 7.9-7.4 13.3-15.5 15.7-4.9 1.5-9.9 1.9-15 2.4-3.2.3-6.5.4-9.7.7-2.9.3-5.9.4-8.8 1.2-4 1.1-6.5 3.6-8.3 7.1-1.6 3.2-2.6 6.6-3.8 10-1.8 5.2-3 10.5-4.2 15.9-.3 1.4-.4 2.9-.6 4.5zM115.2 127.1c-.2-.1-.4-.1-.5-.2-.2-.2 0-.5.1-.7.8-.8 1.9-1.1 3-1.4.3-.1.7.2.8.5.2.5-.2.8-.5.9-.9.4-1.9.6-2.9.9zM109.4 127c-.8-.2-1.6-.4-2.4-.7-.4-.1-.6-.5-.6-.9.1-.4.5-.5.8-.4.8.2 1.7.3 2.5.8.3.2.6.4.5.8 0 .6-.4.5-.8.4z" class="st0"/><path d="M133.9 140.8c-2.1 1.7-4.3 3.3-6.5 4.8-3.5 2.5-7 4.8-11 6.4-2.7 1.1-5.3 1.2-7.9-.6-4.2-2.9-7.6-6.6-10.7-10.5-3.6-4.5-6.9-9.2-9.5-14.3-2.4-4.5-4.3-9.2-5.8-14.1-.9-3.2-1.7-6.4-2.4-9.6-.3-1.6-.3-1.8 1.4-1.4 4.9 1 9.6.3 14-2 1.5-.8 2.9-1.9 4-3.3-.2-.2-.3-.2-.3-.2-.2 0-.5 0-.7.1-4.7 1-9.5 1.8-14.2 0-1.8-.7-3.8-1.2-5.2-2.3-1-.8-1.1-6.8-1.2-14.9-.2 1.5-.4 2.9-.4 4.3-.2 3.8-.2 7.6.2 11.4.1.9-.3 1.5-1.3 1.5-1.1 0-2.3 0-3.4.1-.2 0-.5-.1-.7.2-.2.4.2.5.4.6 1.6 1.1 3.2 2.2 4.8 3.2.5.3.7.5.8 1.1.6 4.2 1.6 8.4 2.7 12.5.7 3 1.9 5.9 3 8.7 1.2 3.3 3 6.5 4.9 9.6 4.6 7.4 9.9 14.3 16.9 19.7 3.7 2.9 7.5 3.9 12 1.6 4.8-2.4 8.9-5.5 13-8.8 1.6-1.2 3.1-2.5 4.5-4.2-.8-.1-1.1.2-1.4.4zM79.5 95.5c-.2 0-.3-.1-.4-.3-.1-.1-.1-.4.2-.4.2 0 .4.1.5.4.1.3-.1.4-.3.3z" class="st0"/><linearGradient id="SVGID_19_" x1="100.779" x2="123.842" y1="137.078" y2="137.078" gradientUnits="userSpaceOnUse"><stop offset="0" style="stop-color:#191e2b"/><stop offset="1" style="stop-color:#6dab5e"/></linearGradient><path d="M123.2 134.5c-2.7.3-4.9-1-7.1-2.2-.8-.4-1.5-.5-2.2 0-.8.5-1.8.9-2.5.3-1.4-1.1-2.5-.5-3.6.2l-1.5.9c-1.6 1-3.5.9-5.5 1.3 1.1 1.2 2.1 2.3 3.1 3.4 6 6.6 15 4.3 19.8-3 .3-.6.3-1-.5-.9zm-14.1 5.2c-.5-.1-1.2-.2-1.3-.9 0-.5.6-.8 1.1-.7.6 0 1.1.3 1.2.9.1.6-.5.7-1 .7z" style="fill:url(#SVGID_19_)"/><path d="m369.2 95.6-50.9-30.8-13.8 30.8h-9.2l-.2-.1 40.2-89.8h8.8L385 95.6h-15.8zm2.3-8.9-31.8-69.8c-5.9 13.3-11.9 26.5-17.8 39.8l49.6 30zM472.4 5.7h8.9v89.9h-8.9V5.7zM654.9 5.7l-35.7 89.9h-8.6L574 5.7h9.8l31.1 76.4 30.3-76.4h9.7zM810.2 95.6l-50.9-30.8-13.8 30.8h-9.2l-.2-.1 40.2-89.8h8.8L826 95.6h-15.8zm2.3-8.9-31.8-69.8c-5.9 13.3-11.9 26.5-17.8 39.8l49.6 30z" class="st0"/><linearGradient id="SVGID_20_" x1="418.058" x2="729.487" y1="150.386" y2="150.386" gradientUnits="userSpaceOnUse"><stop offset="0" style="stop-color:#191e2b"/><stop offset="1" style="stop-color:#6dab5e"/></linearGradient><path d="M418.1 147.5h311.4v5.8H418.1z" style="fill:url(#SVGID_20_)"/><path d="M389.4 210c-.6 1.9-1.6 4.9-2.3 6.3-1.1.3-4.6 1.1-7.5 1.1-10.2 0-14.7-7-14.7-13.6 0-8.6 6.6-14.3 15.8-14.3 3.3 0 6.1.9 7.3 1.1.3 2.3.6 4 .8 6.2l-1.2.3c-1.1-4.3-3.5-6.1-8-6.1-6.8 0-10.5 5.8-10.5 12 0 7.7 4.5 12.9 10.7 12.9 4.2 0 6.4-2.3 8.4-6.4l1.2.5zM422.2 204c-.2-1.3-.5-2.2-.8-2.9-.5-.7-1.2-1-2.6-1H417v12.7c0 2.3.2 2.6 3 2.9v1.1h-9.2v-1.1c2.8-.2 3-.6 3-2.9v-12.7h-2c-1.2 0-2 .2-2.4 1.1-.4.7-.6 1.5-1 2.9l-1.1-.2c.2-1.8.3-3.6.3-5.1h15.7v5.1l-1.1.1zM461.5 199.9c-2 .4-2.4.8-3.4 3.2-1 2.2-2.3 5.6-4.6 11.7-1.2 3-3 7.9-4.5 10.2-1.1 1.7-2 2.3-2.6 2.3-1.1 0-2.1-.9-2.2-2.1 0-.6.2-.9.8-1 1.9-.5 3.6-1.8 4.7-4 .5-.9.9-1.9 1.1-2.7.2-.5 0-1-.1-1.4-1.8-5-3.8-10-5.2-13.6-.7-1.8-1.2-2.3-3.4-2.6v-1h8.6v1l-1.4.4c-.9.2-.9.6-.5 1.8l4.1 10.6c1.1-2.6 3.2-8.6 3.8-10.7.4-1.2.1-1.5-1-1.8l-1.4-.3v-1h7.4v1zM495.4 199.9c-2.7.2-2.9.5-2.9 2.7v10.7c0 1.8.2 2 1.4 2h1.6l-.8 7.6h-1.2l-.5-3.6c-.3-2.1-.6-2.6-2-2.6h-9.1c-1.4 0-1.8.6-2.3 3l-.8 3.1h-1.2v-7.6h1.5c.5 0 .7-.2 1-.7.4-.8.9-2.4 1.4-4.3.6-2.7.9-6.3.9-8.4 0-1.3-.4-1.6-2-1.8l-1.2-.2v-1h16.3v1.1zm-6.1 2c0-1.6-.2-1.7-1.6-1.7h-2.3c-1.1 0-1.3.3-1.3 1.7-.1 4.8-.9 9.9-1.8 12.7-.2.5 0 .7.5.7h4.4c2 0 2.1-.2 2.1-2.1v-11.3zM534 199.8c-2.6.2-2.8.5-2.8 2.5v10.6c0 2.3.2 2.5 2.8 2.8v1.1h-8.3v-1.1c2.2-.2 2.4-.5 2.4-2.7v-5.8c0-1.1 0-2.6.2-5.7h-.1l-7.4 13.7c-.2.5-.4.9-.4 1.3v.3H514v-1.1c2.5-.2 2.7-.6 2.7-3.1v-9.9c0-2.4-.2-2.7-2.7-2.9v-1h8.5v1c-2.5.2-2.6.5-2.6 2.9v4.7c0 1.4 0 3.4-.2 6.6h.1l7.6-13.9c.2-.4.3-.7.3-.9v-.3h6.4v.9zM562 216.7v-1.1c2.3-.2 2.5-.5 2.5-3.1v-3.7h-1.4c-1.6 0-2.5.5-3 1.3-.7.9-1.2 2.4-2 3.9-.9 2-2 2.7-3.4 2.7h-3v-1.1c.9-.1 1.8-.2 2.3-.9.5-.5.9-1.5 1.6-2.9.8-1.5 1.8-3 4.1-3.5v-.1c-3.2-.6-4.9-2.2-4.9-4.7 0-3.3 2.8-4.8 6.8-4.8h8.7v1c-2.4.2-2.6.4-2.6 3v9.8c0 2.6.2 2.9 2.7 3v1.1H562zm2.5-15.3c0-1-.5-1.3-2.1-1.3-2.6 0-4.2 1.3-4.2 3.8 0 1.4.6 2.3 1.5 2.9.9.6 2 .8 3.6.8h1.2v-6.2zM626.3 207c3 .4 5.2 1.7 5.2 4.4 0 4.2-4.8 5.3-9.1 5.3h-8.1v-1.1c2.7-.2 2.9-.5 2.9-3.1v-9.8c0-2.5-.2-2.8-2.7-3v-.9h9.7c3.6 0 6.1 1.1 6.1 4-.1 2.7-2.4 3.7-4 4.2zm-3.8-.5c2.5 0 4.3-.9 4.3-3.2 0-2.3-1.7-3.2-4.1-3.2-2.1 0-2.3.2-2.3 1.2v5.1h2.1zm-2.1 6.1c0 2.5.8 2.8 2.7 2.8 2.5 0 4.7-1.3 4.7-3.9 0-2.7-2.1-3.8-5.1-3.8h-2.3v4.9zM668.9 207.5c0 6.6-4.8 9.8-8.9 9.8-5.6 0-9-4.5-9-9.1 0-6.8 5.2-9.8 9-9.8 5.1-.1 8.9 4 8.9 9.1zm-14.1-.6c0 5.2 2.3 9 5.6 9 2.5 0 4.6-1.9 4.6-7.5 0-4.8-1.9-8.7-5.5-8.7-2.4 0-4.7 2.5-4.7 7.2zM704.8 199.9c-2.7.3-2.8.6-2.8 2.9v9.8c0 2.5.2 2.9 2.8 3.1v1.1H696v-1.1c2.6-.2 2.7-.5 2.7-3.1V202c0-1.5-.1-1.8-1.4-1.8h-2.2c-1.3 0-1.5.3-1.5 1.7-.2 8.2-2.3 12.3-3.5 14.1-.7.9-1.3 1.3-1.8 1.3-.8 0-1.4-.2-1.8-.3v-.7c1.4-1.1 2.7-3.1 3.5-5 1-2.2 1.8-5.3 1.8-8.9 0-1.7-.1-2.2-3.1-2.5v-1h16.1v1zM741.2 207.5c0 6.6-4.8 9.8-8.9 9.8-5.6 0-9-4.5-9-9.1 0-6.8 5.2-9.8 9-9.8 5-.1 8.9 4 8.9 9.1zm-14.1-.6c0 5.2 2.3 9 5.6 9 2.5 0 4.6-1.9 4.6-7.5 0-4.8-1.9-8.7-5.5-8.7-2.5 0-4.7 2.5-4.7 7.2zM775.8 213.1c-1.8 2.4-4.5 4.2-7 4.2-5.2 0-8.2-4.2-8.2-8.6 0-3.2 1.4-5.9 4.1-8 2.1-1.6 4.6-2.3 6.2-2.3 1.6 0 3 .5 3.6 1.1.5.5.7.8.7 1.3 0 .9-.9 1.8-1.4 1.8-.2 0-.4-.1-.8-.5-1.2-1.1-2.7-1.7-4.1-1.7-2.7 0-5.1 2.3-5.1 6.6 0 5.7 3.9 7.6 6.2 7.6 1.8 0 3.1-.5 5-2.3l.8.8z" class="st0"/></svg>