<svg xmlns="http://www.w3.org/2000/svg" xml:space="preserve" id="Layer_1" x="0" y="0" style="enable-background:new 0 0 72.125 25" version="1.1" viewBox="0 0 72.125 25"><style>.st48{fill:#fff;stroke:#fff;stroke-width:.1949;stroke-miterlimit:10}</style><path d="M9.069 24.72H6.443L2.381 5.217v19.538H0V.245h3.817l4.027 19.573L11.73.245h3.817v24.51h-2.591V5.042L9.069 24.72zM18.137 6.163C18.137 2.416 19.993 0 23.739 0c3.781 0 5.637 2.416 5.637 6.163v12.675c0 3.712-1.856 6.162-5.637 6.162-3.747 0-5.602-2.451-5.602-6.162V6.163zm2.696 12.815c0 2.241.945 3.537 2.906 3.537 1.996 0 2.906-1.295 2.906-3.537V6.023c0-2.206-.91-3.537-2.906-3.537-1.961 0-2.906 1.331-2.906 3.537v12.955zM37.429.245c3.852 0 5.462 1.961 5.462 5.602v1.996c0 2.696-.945 4.377-3.046 5.042 2.241.665 3.081 2.486 3.081 5.112v3.817c0 1.086.035 2.101.49 2.941H40.65c-.315-.7-.455-1.33-.455-2.976v-3.852c0-2.766-1.295-3.641-3.571-3.641h-1.926v10.469h-2.731V.245h5.462zm-.7 11.555c2.171 0 3.466-.7 3.466-3.361V6.093c0-2.206-.805-3.361-2.836-3.361h-2.661V11.8h2.031zM48.528 19.818l-.945 4.937h-2.521L49.754.245h3.957l4.692 24.51h-2.731l-.945-4.937h-6.199zm.351-2.346h5.462L51.575 3.326l-2.696 14.146zM62.954 24.755h-2.451V.245h3.466l5.672 17.717V.245h2.416v24.51h-2.836L62.954 4.937v19.818z" class="st48"/></svg>