<?xml version="1.0" encoding="utf-8"?>
<!-- Generator: Adobe Illustrator 22.1.0, SVG Export Plug-In . SVG Version: 6.00 Build 0)  -->
<svg version="1.1" id="Слой_1" xmlns="http://www.w3.org/2000/svg" xmlns:xlink="http://www.w3.org/1999/xlink" x="0px" y="0px"
	 viewBox="0 0 2459 424.8999939" style="enable-background:new 0 0 2459 424.8999939;" xml:space="preserve">
<style type="text/css">
	.st0{fill:#FFFFFF;}
</style>
<g>
	<path class="st0" d="M80.2722626,264.5813599c-43.4032707,0-78.708931,35.3057251-78.708931,78.7090759
		c0,43.40271,35.3056641,78.6983643,78.708931,78.6983643c34.3990555,0,63.6470032-22.2116394,74.3201294-53.0359192h67.9945831
		v-51.3356323H154.592392C143.9192657,286.7929993,114.6816177,264.5813599,80.2722626,264.5813599 M80.2722626,370.6525269
		c-15.1030731,0-27.3730316-12.2697144-27.3730316-27.3620911c0-15.1030884,12.2802505-27.3734436,27.3730316-27.3734436
		c15.0927048,0,27.3729553,12.2703552,27.3729553,27.3734436
		C107.6452179,358.3828125,95.3649673,370.6525269,80.2722626,370.6525269"/>
	<path class="st0" d="M374.5517578,268.9496155V205.178894h-51.3359375v63.7707214
		c-30.8138733,10.6832581-53.0461121,39.9311523-53.0461121,74.3408203c0,43.40271,35.3160095,78.6983643,78.7089844,78.6983643
		c43.4031982,0,78.7088928-35.2956543,78.7088928-78.6983643
		C427.5875854,308.8807678,405.3656616,279.6328735,374.5517578,268.9496155 M348.8786926,370.6525269
		c-15.0927734,0-27.3730469-12.2697144-27.3730469-27.3620911c0-15.1030884,12.2802734-27.3734436,27.3730469-27.3734436
		c15.0927124,0,27.3729553,12.2703552,27.3729553,27.3734436
		C376.2516479,358.3828125,363.971405,370.6525269,348.8786926,370.6525269"/>
	<path class="st0" d="M54.6042137,155.9403076v68.0050507h51.3359413v-68.0050507
		c30.8241882-10.6732025,53.0461121-39.9110107,53.0461121-74.3200455c0-43.4033546-35.3057022-78.709053-78.7088928-78.709053
		c-43.4032745,0-78.7089386,35.3057022-78.7089386,78.709053C1.5684369,116.0292969,23.7903252,145.2671051,54.6042137,155.9403076
		 M80.2773743,54.2468338c15.0927048,0,27.3729553,12.2703476,27.3729553,27.3734283s-12.2802505,27.3727951-27.3729553,27.3727951
		c-15.0927811,0-27.3730354-12.2697144-27.3730354-27.3727951S65.1845932,54.2468338,80.2773743,54.2468338"/>
	<path class="st0" d="M348.8890686,160.3293152c43.4031982,0,78.7088928-35.3057022,78.7088928-78.709053
		s-35.3056946-78.709053-78.7088928-78.709053c-34.4094238,0-63.6470947,22.2216911-74.3305054,53.0459557h-67.9842987v51.3362579
		h67.9842987C285.2419739,138.1069946,314.4796448,160.3293152,348.8890686,160.3293152 M348.8890686,54.2468338
		c15.0927124,0,27.3729553,12.2804108,27.3729553,27.3734283c0,15.1030807-12.2802429,27.3727951-27.3729553,27.3727951
		c-15.0927734,0-27.3833313-12.2697144-27.3833313-27.3727951
		C321.5057373,66.5272446,333.7962952,54.2468338,348.8890686,54.2468338"/>
	<path class="st0" d="M1721.6289063,329.9725037c-15.8344727,0-23.8907471-3.4508362-23.8907471-21.87146v-2.5856018
		c0-18.1319885,8.0562744-21.5834656,23.8907471-21.5834656c16.401123,0,24.4573975,3.4514771,24.4573975,21.5834656v2.5856018
		C1746.0863037,326.5216675,1738.0300293,329.9725037,1721.6289063,329.9725037"/>
	<path class="st0" d="M1860.0443115,327.0951233c-11.2191162,1.7310791-22.1600342,2.8748474-29.9281006,2.8748474
		c-29.0727539,0-50.6456299-14.6704407-51.5109863-46.3291321v-72.2286682h-20.7176514v-31.370697h22.1599121l6.3359375-36.5519714
		h34.8215332v36.5519714h38.5611572v31.370697h-38.5715332v66.7581177c0,9.4986267,4.3166504,16.9781799,14.6704102,16.9781799
		c5.1820068,0,13.8151855,0,24.1793213-1.4324036V327.0951233z"/>
	<path class="st0" d="M1919.029541,265.7980957c0,22.1600647,8.0563965,27.91922,18.4202881,29.9282227
		c21.0062256,4.3166809,41.723999,1.4424744,61.576416-3.4615173v31.9573364
		c-12.0844727,2.2976379-30.2163086,5.7484741-46.8956299,5.7484741c-53.5303955,0-75.6904297-15.5457458-75.6904297-75.6902008
		c0-64.1725159,26.1984863-76.8339844,69.6533203-76.8339844c38.8496094,0,63.3070068,13.248764,63.3070068,62.1635132
		c0,7.4795532-0.5770264,15.8243103-1.7412109,26.1881561H1919.029541z M1968.2432861,238.1674805
		c1.730835-19.2751465-6.0473633-27.9085236-21.0062256-27.9085236h-1.1435547
		c-14.1140137,0-23.8908691,4.8939209-26.4870605,27.9085236H1968.2432861z"/>
	<path class="st0" d="M2028.0895996,238.1687469c0-17.5553894,1.1538086-47.7615509,40.8688965-57.2601624
		c10.0756836-2.3076782,17.8435059-3.4615173,27.9189453-3.4615173c21.583252,0,41.1469727,2.8849182,64.4506836,9.4985962
		v109.3585358h18.9870605v31.0814209h-53.5302734l-2.5859375-8.3548279
		c-14.3818359,7.489624-29.6396484,10.9410706-40.5703125,10.9410706c-43.7431641,0-55.5390625-25.9001465-55.5390625-61.8755188
		V238.1687469z M2070.9675293,270.1154175c0.2883301,18.9871521,4.8933105,26.1887817,25.3227539,26.1887817
		c5.470459,0,14.9689941-1.7310791,22.1599121-4.028717v-79.718277c-7.7678223-1.1437836-16.4008789-1.7304535-22.1599121-1.7304535
		c-22.1499023,0-25.3227539,9.4986115-25.3227539,28.4958344V270.1154175z"/>
	<path class="st0" d="M2457.4367676,296.3035583v31.0820618h-14.9592285h-47.2045898l0.0102539-83.1697388
		c0-18.9972076-0.8652344-33.3790588-21.2944336-33.3790588c-5.7487793,0-17.2666016,1.7203827-25.322998,4.8832397
		c0.5769043,5.1819153,0.8652344,10.6524506,0.8652344,16.699585l-0.0100098,63.8839111h19.2854004v31.0820618h-14.96875
		h-47.1948242l0.010498-83.1697388c0-18.9972076-0.8754883-33.3790588-21.2944336-33.3790588
		c-6.0476074,0-16.4116211,1.4317627-24.4677734,4.3166809l-0.010498,81.1500549h18.9973145v31.0820618h-18.9973145h-42.8676758
		h-19.2854004v-31.0820618h19.2854004v-85.1888123h-21.5727539v-31.0713806h56.1162109l2.5754395,8.0561523
		c14.690918-7.2009888,28.2180176-10.6524506,39.1586914-10.6524506c20.7075195,0,35.0998535,4.6053009,43.15625,13.2487488
		c15.2470703-7.4896088,33.090332-13.2487488,45.473877-13.2487488c43.7329102,0,55.5288086,20.151062,55.2404785,56.1163635
		v62.7401276H2457.4367676z"/>
	<polygon class="st0" points="704.4512939,140.2210083 704.4512939,213.1507874 631.5219116,213.1507874 631.5219116,140.2210083 
		579.4338989,140.2210083 579.4338989,327.742157 631.5219116,327.742157 631.5219116,258.2846069 704.4512939,258.2846069 
		704.4512939,327.742157 756.5393066,327.742157 756.5393066,140.2210083 	"/>
	<path class="st0" d="M981.9093018,212.1006927c0-44.4440002-28.1351929-71.878418-84.7355957-71.878418h-85.0758057v187.5205231
		h52.0881348v-43.0524902h45.1751709l28.0941772,43.0524902h54.8694458l-39.1380615-60.4840088
		C969.1654663,254.0924072,981.9093018,234.5286407,981.9093018,212.1006927 M864.1860352,239.5351257v-54.1689911h36.6243286
		c20.8310547,0,32.2973633,9.3753662,32.6477661,26.7345581c0.3502197,16.6794739-11.4768066,27.434433-32.6477661,27.434433
		H864.1860352z"/>
	<polygon class="st0" points="1188.5245361,140.2210083 1134.6953125,236.0628967 1080.8765869,140.2210083 
		1027.0474854,140.2210083 1027.0474854,327.742157 1079.135498,327.742157 1079.135498,223.5970001 1116.2956543,286.7703552 
		1153.1054688,286.7703552 1190.255249,223.5970001 1190.2655029,327.742157 1242.3535156,327.742157 1242.3535156,140.2210083 	"/>
	<polygon class="st0" points="1422.9245605,140.2210083 1422.9245605,247.1379089 1351.7362061,140.2210083 
		1297.9071045,140.2210083 1297.9071045,327.742157 1349.9949951,327.742157 1349.9949951,219.2494965 1421.1833496,327.742157 
		1475.0124512,327.742157 1475.0124512,140.2210083 	"/>
	<polygon class="st0" points="1692.045166,140.2210083 1639.9570313,140.2210083 1598.2845459,215.2314758 
		1556.6121826,140.2210083 1502.7832031,140.2210083 1572.2406006,259.6855469 1572.2406006,327.742157 1624.3284912,327.742157 
		1624.3284912,259.6855469 	"/>
</g>
</svg>
