<svg width="200" height="155" fill="none" xmlns="http://www.w3.org/2000/svg"><g clip-path="url(#a)"><path d="M13.2 68.9v18.9l22.2-18.9 22.2 18.9V68.9L35.4 50 13.2 68.9Z" fill="url(#b)"/><path d="M0 104.299h32.9l-16.5-14.6L0 104.3Z" fill="url(#c)"/><path d="M51.8 84.8 35.3 99.3 18.9 84.8h32.9Z" fill="url(#d)"/><path d="M37.8 104.299h32.9l-16.4-14.6-16.5 14.6Z" fill="url(#e)"/><path d="M86.2 94h2c.8 0 1.6-.2 2.2-.7.7-.7 1.1-1.7.9-2.7v-27h5.6v26.6c0 1.5-.2 3-.7 4.4-.4 1-1 2-1.8 2.7-.7.7-1.6 1.1-2.6 1.4-1 .3-2 .4-3 .4h-1.4c-.4 0-.9 0-1.3-.1.1 0 .1-5 .1-5Z" fill="url(#f)"/><path d="M105 78.6h7.6v5.1H105V94h9.6v5.1H99.5V63.7h15.1v5H105v9.9Z" fill="url(#g)"/><path d="M128.6 99c-.1-.2-.1-.5-.2-.6-.1-.3-.1-.5-.2-.8-.1-.4-.1-.8-.1-1.2V89c.1-1.2-.2-2.5-.9-3.5-.7-.7-1.8-1.1-2.8-1h-1.9v14.4h-5.6V63.7h8.4c2.3-.2 4.5.5 6.2 2 1.4 1.7 2.2 3.9 2 6.1v2.8c0 3.6-1.2 6-3.6 7.2 1.3.5 2.4 1.5 2.9 2.8.6 1.5.8 3.1.8 4.7v5.5c0 .9 0 1.6.1 2.3.1.7.3 1.4.5 2l-5.6-.1Zm-6.1-30.3v10.9h2.2c.9 0 1.8-.2 2.4-.8.7-.8 1-1.9.9-2.9v-3.5c.1-1-.2-2-.7-2.8-.5-.6-1.3-1-2.1-.9h-2.7Z" fill="url(#h)"/><path d="M155.5 99h-5.7l-.9-6.4H142l-.9 6.4H136l5.7-35.3h8.1l5.7 35.3Zm-12.7-11.2h5.3l-2.7-17.9-2.6 17.9Z" fill="url(#i)"/><path d="M153.2 63.7h17.1v5h-5.8V99H159V68.7h-5.7v-5h-.1Z" fill="url(#j)"/><path d="M172.3 63.7h5.6V99h-5.6V63.7Z" fill="url(#k)"/><path d="m200 63.7-5.8 17.1 6.2 18.2h-5.8L190 85l-4.7 14h-5.1l6.2-18.2-5.8-17.1h5.8l4.2 13 4.3-13h5.1Z" fill="url(#l)"/></g><defs><linearGradient id="h" x1="-1.777" y1="81.309" x2="199.56" y2="81.309" gradientUnits="userSpaceOnUse"><stop stop-color="#1C8AE2"/><stop offset=".486" stop-color="#8B00B3"/><stop offset="1" stop-color="#6900B5"/></linearGradient><linearGradient id="b" x1="-1.778" y1="68.909" x2="199.56" y2="68.909" gradientUnits="userSpaceOnUse"><stop stop-color="#1C8AE2"/><stop offset=".486" stop-color="#8B00B3"/><stop offset="1" stop-color="#6900B5"/></linearGradient><linearGradient id="d" x1="-1.777" y1="92.073" x2="199.56" y2="92.073" gradientUnits="userSpaceOnUse"><stop stop-color="#1C8AE2"/><stop offset=".486" stop-color="#8B00B3"/><stop offset="1" stop-color="#6900B5"/></linearGradient><linearGradient id="e" x1="-1.778" y1="96.993" x2="199.56" y2="96.993" gradientUnits="userSpaceOnUse"><stop stop-color="#1C8AE2"/><stop offset=".486" stop-color="#8B00B3"/><stop offset="1" stop-color="#6900B5"/></linearGradient><linearGradient id="f" x1="-1.778" y1="81.373" x2="199.56" y2="81.373" gradientUnits="userSpaceOnUse"><stop stop-color="#1C8AE2"/><stop offset=".486" stop-color="#8B00B3"/><stop offset="1" stop-color="#6900B5"/></linearGradient><linearGradient id="g" x1="-1.778" y1="81.326" x2="199.56" y2="81.326" gradientUnits="userSpaceOnUse"><stop stop-color="#1C8AE2"/><stop offset=".486" stop-color="#8B00B3"/><stop offset="1" stop-color="#6900B5"/></linearGradient><linearGradient id="c" x1="-1.778" y1="96.993" x2="199.56" y2="96.993" gradientUnits="userSpaceOnUse"><stop stop-color="#1C8AE2"/><stop offset=".486" stop-color="#8B00B3"/><stop offset="1" stop-color="#6900B5"/></linearGradient><linearGradient id="i" x1="-1.778" y1="81.326" x2="199.56" y2="81.326" gradientUnits="userSpaceOnUse"><stop stop-color="#1C8AE2"/><stop offset=".486" stop-color="#8B00B3"/><stop offset="1" stop-color="#6900B5"/></linearGradient><linearGradient id="j" x1="-1.777" y1="81.326" x2="199.56" y2="81.326" gradientUnits="userSpaceOnUse"><stop stop-color="#1C8AE2"/><stop offset=".486" stop-color="#8B00B3"/><stop offset="1" stop-color="#6900B5"/></linearGradient><linearGradient id="k" x1="-1.779" y1="81.326" x2="199.56" y2="81.326" gradientUnits="userSpaceOnUse"><stop stop-color="#1C8AE2"/><stop offset=".486" stop-color="#8B00B3"/><stop offset="1" stop-color="#6900B5"/></linearGradient><linearGradient id="l" x1="-1.778" y1="81.294" x2="199.56" y2="81.294" gradientUnits="userSpaceOnUse"><stop stop-color="#1C8AE2"/><stop offset=".486" stop-color="#8B00B3"/><stop offset="1" stop-color="#6900B5"/></linearGradient><clipPath id="a"><path fill="#fff" d="M0 0h200v155H0z"/></clipPath></defs></svg>