<svg width="60" height="120" viewBox="0 0 60 120" fill="none" xmlns="http://www.w3.org/2000/svg">
<g clip-path="url(#clip0_1411_3092)">
<path fill-rule="evenodd" clip-rule="evenodd" d="M45.6798 32.0664C49.2136 31.7782 52.5561 32.4282 55.707 34.0161C56.2951 34.4803 56.883 34.9446 57.4711 35.4088C57.5639 37.4505 57.5949 39.493 57.5639 41.5366C56.1402 41.5366 54.7167 41.5366 53.2931 41.5366C53.3239 40.1116 53.2931 38.6879 53.2002 37.2657C48.7658 34.9613 44.8663 35.6422 41.5017 39.3083C38.844 43.7257 39.2464 47.8419 42.7087 51.6567C45.8109 53.9806 49.0915 54.2281 52.5503 52.3994C53.4048 51.8789 54.1476 51.229 54.7786 50.4497C54.9392 50.2486 55.1249 50.2178 55.3356 50.3568C56.2923 51.1754 57.2826 51.9491 58.3067 52.678C55.0699 56.6989 50.8609 58.3391 45.6798 57.5987C40.3651 56.3693 36.9917 53.1197 35.5597 47.85C34.5358 39.7428 37.9092 34.4815 45.6798 32.0664Z" fill="#040404"/>
<path fill-rule="evenodd" clip-rule="evenodd" d="M34.1656 32.6237C34.1656 33.9854 34.1656 35.3472 34.1656 36.7089C32.831 36.6486 31.5312 36.7106 30.2661 36.8946C27.6115 43.6487 25.0428 50.4574 22.5599 57.3205C21.2399 57.5641 19.909 57.5641 18.5676 57.3205C16.0552 50.5261 13.5792 43.7174 11.14 36.8946C9.72171 36.7095 8.29821 36.6474 6.86914 36.7089C6.86914 35.3472 6.86914 33.9854 6.86914 32.6237C9.45246 32.5637 12.0213 32.6256 14.5753 32.8094C16.6539 38.7355 18.6965 44.6776 20.703 50.6357C22.8842 44.6652 24.9578 38.6613 26.9237 32.6237C29.3376 32.6237 31.7516 32.6237 34.1656 32.6237Z" fill="#030303"/>
<path fill-rule="evenodd" clip-rule="evenodd" d="M34.1671 32.623C34.3513 34.0124 34.4131 35.4359 34.3528 36.8939C32.9911 36.8939 31.6292 36.8939 30.2676 36.8939C31.5327 36.7099 32.8325 36.6479 34.1671 36.7082C34.1671 35.3466 34.1671 33.9847 34.1671 32.623Z" fill="#818181"/>
<path fill-rule="evenodd" clip-rule="evenodd" d="M23.9551 70.1325C23.9551 68.8945 23.9551 67.6567 23.9551 66.4187C23.4799 66.3626 23.0465 66.4247 22.6553 66.6044C19.5048 67.4649 17.6479 69.5075 17.0846 72.7322C16.8994 76.228 16.8376 79.7561 16.8989 83.3165C20.3651 83.3165 23.8312 83.3165 27.2975 83.3165C27.2975 84.5545 27.2975 85.7923 27.2975 87.0303C21.1079 87.0303 14.9181 87.0303 8.72852 87.0303C8.72852 85.7305 8.72852 84.4306 8.72852 83.1308C10.0283 83.1308 11.3282 83.1308 12.628 83.1308C12.628 77.6219 12.628 72.1133 12.628 66.6044C11.3629 66.4204 10.0631 66.3584 8.72852 66.4187C8.72852 65.2427 8.72852 64.0666 8.72852 62.8906C11.2043 62.8906 13.6803 62.8906 16.1561 62.8906C16.1013 63.3056 16.1634 63.677 16.3418 64.0047C16.3418 64.438 16.3418 64.8714 16.3418 65.3046C16.2816 66.0575 16.3435 66.8003 16.5275 67.5329C16.6402 67.5098 16.702 67.448 16.7132 67.3472C18.1673 64.9345 20.2717 63.418 23.0266 62.7978C24.6967 62.7049 26.3679 62.6741 28.0403 62.7049C28.0403 65.1807 28.0403 67.6567 28.0403 70.1325C26.6786 70.1325 25.3168 70.1325 23.9551 70.1325Z" fill="#020202"/>
<path fill-rule="evenodd" clip-rule="evenodd" d="M51.9934 77.9317C52.1785 74.2502 52.2404 70.5364 52.1791 66.7903C50.7554 66.7903 49.3319 66.7903 47.9082 66.7903C47.9082 65.4286 47.9082 64.0667 47.9082 62.7051C50.7554 62.7051 53.6028 62.7051 56.45 62.7051C56.4284 69.5147 56.4903 76.3234 56.6356 83.131C57.688 83.131 58.7401 83.131 59.7924 83.131C59.7924 84.4308 59.7924 85.7306 59.7924 87.0305C57.6259 87.0305 55.4597 87.0305 53.2932 87.0305C53.1372 85.7839 52.9205 84.5461 52.6433 83.3167C50.0784 87.4044 46.4574 88.7351 41.7804 87.309C38.277 85.5968 36.482 82.7804 36.3954 78.8601C36.3954 74.8368 36.3954 70.8136 36.3954 66.7903C35.1574 66.7903 33.9196 66.7903 32.6816 66.7903C32.6816 65.4286 32.6816 64.0667 32.6816 62.7051C35.3431 62.7051 38.0048 62.7051 40.6663 62.7051C40.6353 68.0286 40.6663 73.3516 40.7592 78.6744C41.2982 83.074 43.6812 84.6523 47.9082 83.4095C50.2234 82.3006 51.5851 80.4745 51.9934 77.9317Z" fill="#020202"/>
<path fill-rule="evenodd" clip-rule="evenodd" d="M16.34 64.0049C16.1615 63.6772 16.0995 63.3058 16.1543 62.8908C13.6785 62.8908 11.2025 62.8908 8.72671 62.8908C8.72671 64.0667 8.72671 65.2429 8.72671 66.4189C10.0613 66.3585 11.3611 66.4205 12.6262 66.6046C11.2645 66.6046 9.90268 66.6046 8.54102 66.6046C8.54102 65.3047 8.54102 64.0049 8.54102 62.7051C11.1407 62.7051 13.7403 62.7051 16.34 62.7051C16.34 63.1383 16.34 63.5717 16.34 64.0049Z" fill="#4E4E4E"/>
<path fill-rule="evenodd" clip-rule="evenodd" d="M22.6543 66.6041C23.0455 66.4244 23.4789 66.3623 23.9541 66.4184C23.9541 67.6564 23.9541 68.8942 23.9541 70.1322C23.7703 68.9911 23.7085 67.8152 23.7684 66.6041C23.3971 66.6041 23.0257 66.6041 22.6543 66.6041Z" fill="#9D9D9D"/>
<path fill-rule="evenodd" clip-rule="evenodd" d="M16.3406 65.3057C16.4645 65.9866 16.5881 66.6673 16.712 67.3483C16.7008 67.4491 16.639 67.5109 16.5263 67.5339C16.3423 66.8014 16.2804 66.0586 16.3406 65.3057Z" fill="#525252"/>
<path fill-rule="evenodd" clip-rule="evenodd" d="M47.9082 66.79C49.3319 66.79 50.7554 66.79 52.1791 66.79C52.2404 70.5361 52.1785 74.2499 51.9934 77.9314C51.9934 74.2795 51.9934 70.6277 51.9934 66.9757C50.5972 67.0361 49.2355 66.9742 47.9082 66.79Z" fill="#9C9C9C"/>
<path fill-rule="evenodd" clip-rule="evenodd" d="M32.6816 66.79C33.9196 66.79 35.1574 66.79 36.3954 66.79C36.3954 70.8134 36.3954 74.8365 36.3954 78.8599C36.2103 74.9307 36.1483 70.9694 36.2097 66.9757C34.9987 67.0357 33.8227 66.9739 32.6816 66.79Z" fill="#999999"/>
<path fill-rule="evenodd" clip-rule="evenodd" d="M4.27087 87.2172C2.88154 87.4014 1.45804 87.4632 0 87.4028C0 85.9173 0 84.4318 0 82.9463C1.48552 82.9463 2.97104 82.9463 4.45656 82.9463C4.51691 84.4043 4.45507 85.8278 4.27087 87.2172Z" fill="#777777"/>
<path fill-rule="evenodd" clip-rule="evenodd" d="M4.27073 87.2151C2.90906 87.2151 1.54721 87.2151 0.185547 87.2151C0.185547 85.8534 0.185547 84.4915 0.185547 83.1299C1.54721 83.1299 2.90906 83.1299 4.27073 83.1299C4.27073 84.4915 4.27073 85.8534 4.27073 87.2151Z" fill="black"/>
<path fill-rule="evenodd" clip-rule="evenodd" d="M17.0836 72.7324C17.0836 76.1987 17.0836 79.6648 17.0836 83.1311C20.5499 83.1311 24.016 83.1311 27.4823 83.1311C27.4823 84.4927 27.4823 85.8546 27.4823 87.2162C21.1688 87.2162 14.8553 87.2162 8.54188 87.2162C8.48154 85.82 8.54337 84.4584 8.72757 83.1311C8.72757 84.4309 8.72757 85.7307 8.72757 87.0305C14.9172 87.0305 21.107 87.0305 27.2966 87.0305C27.2966 85.7926 27.2966 84.5547 27.2966 83.3167C23.8303 83.3167 20.3642 83.3167 16.8979 83.3167C16.8367 79.7563 16.8985 76.2282 17.0836 72.7324Z" fill="#5B5B5B"/>
<path fill-rule="evenodd" clip-rule="evenodd" d="M59.7921 83.1299C59.9763 84.4572 60.0382 85.8189 59.9778 87.2151C57.7165 87.276 55.4882 87.2141 53.293 87.0294C55.4594 87.0294 57.6257 87.0294 59.7921 87.0294C59.7921 85.7295 59.7921 84.4297 59.7921 83.1299Z" fill="#5A5A5A"/>
</g>
<defs>
<clipPath id="clip0_1411_3092">
<rect width="60" height="120" fill="white"/>
</clipPath>
</defs>
</svg>
