<svg xmlns="http://www.w3.org/2000/svg" xml:space="preserve" viewBox="0 0 591 408"><path fill="#FFF" d="M591 153H174v10h417v153H0V0h591v153zM36.503 408C13.533 408 0 398.276 0 376c0-22.188 13.533-32 36.503-32 19.766 0 32.23 7.16 35.524 22.983l-18.607-.089c-2.226-5.48-7.212-8.662-16.917-8.662-14.245 0-18.251 7.16-18.251 17.68 0 10.607 4.006 17.768 18.251 17.768 9.794 0 14.779-3.536 17.006-9.105h18.607C69 400.752 56.447 408 36.503 408zm45.853-1.238v-61.701H99.45v53.746h1.959c.801-4.066 2.226-9.193 3.205-12.994 5.521-22.365 10.149-40.752 10.149-40.752h30.005v61.701h-17.095v-53.745h-1.959c-.801 4.066-2.137 8.84-3.027 12.641-5.253 22.364-10.327 41.105-10.327 41.105H82.356zm76.657 0v-61.701h29.202c2.048 16.178 3.739 37.569 5.432 53.746h1.602c1.691-16.177 3.383-37.568 5.431-53.746h29.203v61.701h-15.938v-53.745h-1.958c-1.959 15.47-4.274 35.005-6.945 53.745h-21.19c-2.671-18.74-4.985-38.275-6.944-53.745h-1.959v53.745h-15.936zm85.115 0v-61.701h60.542v61.701h-17.45v-47.381h-25.642v47.381h-17.45zm74.698.619c-3.116 0-4.986-.176-5.965-.176v-13.791h1.068c7.924 0 9.17-4.331 10.061-20.773.534-9.635.445-19.006.712-27.58h53.242v61.701h-17.451V358.32h-20.121c-.178 4.508-.357 12.729-.445 14.32-1.514 25.283-4.096 34.741-21.101 34.741zm123.934-48.176h-33.298v9.723h32.586v13.349h-32.586v10.343h33.298v14.143h-50.57v-61.701h50.57v14.143zm48.79 15.027 24.662 32.529h-20.655l-18.964-24.839h-3.561v24.839H455.76V345.06h17.272v23.338h4.273l19.053-23.338h19.32l-24.128 29.172zM555.387 408c-22.971 0-36.504-9.724-36.504-32 0-22.188 13.533-32 36.504-32 19.765 0 32.23 7.16 35.523 22.983l-18.607-.089c-2.226-5.48-7.212-8.662-16.916-8.662-14.246 0-18.252 7.16-18.252 17.68 0 10.607 4.006 17.768 18.252 17.768 9.793 0 14.779-3.536 17.005-9.105H591C587.884 400.752 575.33 408 555.387 408z"/></svg>