<?xml version="1.0" encoding="utf-8"?>
<!-- Generator: Adobe Illustrator 24.0.1, SVG Export Plug-In . SVG Version: 6.00 Build 0)  -->
<svg version="1.1" id="Слой_1" xmlns="http://www.w3.org/2000/svg" xmlns:xlink="http://www.w3.org/1999/xlink" x="0px" y="0px"
	 viewBox="0 0 878 163.2" style="enable-background:new 0 0 878 163.2;" xml:space="preserve">
<style type="text/css">
	.st0{fill:url(#SVGID_1_);}
	.st1{fill:url(#SVGID_2_);}
	.st2{fill:url(#SVGID_3_);}
	.st3{fill:url(#SVGID_4_);}
	.st4{fill:url(#SVGID_5_);}
	.st5{fill:url(#SVGID_6_);}
	.st6{fill:url(#SVGID_7_);}
	.st7{fill:url(#SVGID_8_);}
	.st8{fill:url(#SVGID_9_);}
	.st9{fill:#DD5370;}
</style>
<g>
	<g>
		<g>
			<linearGradient id="SVGID_1_" gradientUnits="userSpaceOnUse" x1="40.0249" y1="-16.528" x2="40.0249" y2="155.2313">
				<stop  offset="0" style="stop-color:#F0F0F0"/>
				<stop  offset="1" style="stop-color:#C9C9C9"/>
			</linearGradient>
			<path class="st0" d="M40.1,3.8c11.4,0,20.5,3.6,27.3,10.8c6.3,6.9,9.4,15.7,9.4,26.3v22.6c0,10.3-3.6,19.1-10.7,26.3
				c-7.2,7.3-15.8,10.9-26,10.9H26.6v58.6H3.1V3.8H40.1z M54.2,41.3c0-4.1-1.2-7.3-3.7-9.8c-2.4-2.5-5.7-3.7-9.8-3.7H26.6v49.8h14.2
				c3.7,0,6.9-1.3,9.5-4c2.6-2.6,3.9-5.8,3.9-9.6V41.3z"/>
		</g>
		<g>
			<linearGradient id="SVGID_2_" gradientUnits="userSpaceOnUse" x1="130.9473" y1="-16.528" x2="130.9473" y2="155.2313">
				<stop  offset="0" style="stop-color:#F0F0F0"/>
				<stop  offset="1" style="stop-color:#C9C9C9"/>
			</linearGradient>
			<path class="st1" d="M118.7,123.6l-5.7,35.8H88.5L115,3.8h32.3l26.1,155.7h-24.7l-5.5-35.8H118.7z M131,39.4l-8.7,61.4h17.4
				L131,39.4z"/>
		</g>
		<g>
			<linearGradient id="SVGID_3_" gradientUnits="userSpaceOnUse" x1="240.3806" y1="-16.528" x2="240.3806" y2="155.2313">
				<stop  offset="0" style="stop-color:#F0F0F0"/>
				<stop  offset="1" style="stop-color:#C9C9C9"/>
			</linearGradient>
			<path class="st2" d="M238,3.8c13.1,0,22.7,3.6,28.8,10.8c5.4,6.3,8.1,15.1,8.1,26.3v22.6c0,11-4.2,20.3-12.5,28l17.4,68h-25.4
				l-14.2-58.6c-0.7,0-1.4,0-2.1,0h-13.5v58.6H201V3.8H238z M252.1,41.3c0-9-4.5-13.5-13.4-13.5h-14.2v49.8h14.2
				c3.7,0,6.9-1.3,9.5-4c2.6-2.6,3.9-5.8,3.9-9.6V41.3z"/>
		</g>
		<g>
			<linearGradient id="SVGID_4_" gradientUnits="userSpaceOnUse" x1="336.7095" y1="-16.528" x2="336.7095" y2="155.2313">
				<stop  offset="0" style="stop-color:#F0F0F0"/>
				<stop  offset="1" style="stop-color:#C9C9C9"/>
			</linearGradient>
			<path class="st3" d="M325,27.4h-25V3.8h73.3v23.6h-24.8v132.1H325V27.4z"/>
		</g>
		<g>
			<linearGradient id="SVGID_5_" gradientUnits="userSpaceOnUse" x1="440.6147" y1="-16.528" x2="440.6147" y2="155.2313">
				<stop  offset="0" style="stop-color:#F0F0F0"/>
				<stop  offset="1" style="stop-color:#C9C9C9"/>
			</linearGradient>
			<path class="st4" d="M428.8,94.2L397.4,3.6h25.8l17.4,55.9l17.3-55.9h26l-31.6,90.6v65.2h-23.5V94.2z"/>
		</g>
		<linearGradient id="SVGID_6_" gradientUnits="userSpaceOnUse" x1="539.8653" y1="-19.9525" x2="538.6072" y2="151.1331">
			<stop  offset="0" style="stop-color:#42A194"/>
			<stop  offset="1" style="stop-color:#247A78"/>
		</linearGradient>
		<path class="st5" d="M539.2,161.4c-10.4,0-19.2-3.6-26.4-10.9c-7.2-7.2-10.9-16-10.9-26.3v-85c0-10.4,3.6-19.2,10.9-26.4
			C520.1,5.6,528.9,2,539.2,2c10.4,0,19.1,3.6,26.3,10.9c7.2,7.3,10.8,16.1,10.8,26.3v17.8H552V38.8c0-3.7-1.3-6.9-4-9.6
			c-2.7-2.6-5.8-4-9.6-4c-3.7,0-6.9,1.3-9.5,4c-2.6,2.7-3.9,5.8-3.9,9.6V124c0,3.7,1.3,6.9,3.9,9.5c2.6,2.6,5.8,3.9,9.5,3.9
			c3.7,0,6.9-1.3,9.6-3.9c2.6-2.6,4-5.8,4-9.5v-21.5h24.4v21.7c0,10.4-3.6,19.1-10.9,26.3C558.1,157.8,549.4,161.4,539.2,161.4z"/>
		<linearGradient id="SVGID_7_" gradientUnits="userSpaceOnUse" x1="641.3539" y1="-19.2062" x2="640.0959" y2="151.88">
			<stop  offset="0" style="stop-color:#42A194"/>
			<stop  offset="1" style="stop-color:#247A78"/>
		</linearGradient>
		<path class="st6" d="M627.8,123.6l-5.7,35.8h-24.4L624.1,3.8h32.3l26.1,155.7h-24.7l-5.5-35.8H627.8z M640.1,39.4l-8.7,61.4h17.4
			L640.1,39.4z"/>
		<linearGradient id="SVGID_8_" gradientUnits="userSpaceOnUse" x1="742.8539" y1="-18.4599" x2="741.5959" y2="152.6259">
			<stop  offset="0" style="stop-color:#42A194"/>
			<stop  offset="1" style="stop-color:#247A78"/>
		</linearGradient>
		<path class="st7" d="M780.7,120.7c0.2,10.9-2.7,20.1-8.4,27.8c-3.8,5.2-9.2,8.9-16.2,11.1c-3.7,1.2-8.1,1.7-13,1.7
			c-9.2,0-16.8-2.3-22.9-6.8c-5.1-3.7-9.1-8.8-12-15.2c-2.9-6.4-4.7-13.8-5.2-22.1l22.4-1.6c1,9.1,3.4,15.7,7.2,19.7
			c2.8,3.1,6,4.5,9.7,4.4c5.1-0.2,9.2-2.7,12.3-7.6c1.6-2.4,2.4-5.8,2.4-10.3c0-6.5-2.9-12.9-8.8-19.3c-4.6-4.4-11.6-11-20.9-19.8
			c-7.8-7.5-13.3-14.3-16.5-20.3c-3.5-6.7-5.2-14-5.2-21.9c0-14.2,4.8-24.9,14.3-32.2c5.9-4.4,13.2-6.6,21.9-6.6
			c8.4,0,15.5,1.9,21.5,5.6c4.6,2.9,8.4,7,11.2,12.2c2.9,5.2,4.6,11.2,5.2,18l-22.5,4.1c-0.7-6.4-2.5-11.3-5.5-14.9
			c-2.2-2.6-5.3-3.9-9.3-3.9c-4.3,0-7.6,1.9-9.8,5.7c-1.8,3.1-2.7,6.9-2.7,11.4c0,7.1,3.1,14.4,9.2,21.7c2.3,2.8,5.8,6.1,10.4,9.9
			c5.5,4.6,9.1,7.7,10.8,9.6c5.8,5.8,10.3,11.5,13.4,17.1c1.5,2.7,2.7,5.1,3.6,7.3C779.4,111.3,780.6,116.3,780.7,120.7z"/>
		<linearGradient id="SVGID_9_" gradientUnits="userSpaceOnUse" x1="842.1835" y1="-17.7295" x2="840.9255" y2="153.3566">
			<stop  offset="0" style="stop-color:#42A194"/>
			<stop  offset="1" style="stop-color:#247A78"/>
		</linearGradient>
		<path class="st8" d="M808,159.4V3.6h66.8v23.6h-43.4v42.5h31.7v23.6h-31.7v42.5h43.4v23.6H808z"/>
		<g>
			<path class="st9" d="M117.2,133.1l7.5-48.6c0.8,0,1.5,0.4,2,1.1l7.1,10.4c0.5,0.7,1.3,1.2,2.2,1.2l12.6,0.1
				c2.2,0,3.4,2.5,2.1,4.2l-7.7,10c-0.5,0.7-0.7,1.6-0.4,2.4l3.8,12c0.7,2.1-1.3,4-3.4,3.3l-11.9-4.3c-0.8-0.3-1.7-0.2-2.4,0.3
				l-10.2,7.4C118.1,132.9,117.7,133.1,117.2,133.1z"/>
		</g>
		<g>
			<path class="st9" d="M653.8,133.1l-7.5-48.6c-0.8,0-1.5,0.4-2,1.1l-7.1,10.4c-0.5,0.7-1.3,1.2-2.2,1.2l-12.6,0.1
				c-2.2,0-3.4,2.5-2.1,4.2l7.7,10c0.5,0.7,0.7,1.6,0.4,2.4l-3.8,12c-0.7,2.1,1.3,4,3.4,3.3l11.9-4.3c0.8-0.3,1.7-0.2,2.4,0.3
				l10.2,7.4C652.9,132.9,653.3,133.1,653.8,133.1z"/>
		</g>
	</g>
</g>
</svg>
