<?xml version="1.0" encoding="utf-8"?>
<!-- Generator: Adobe Illustrator 22.0.0, SVG Export Plug-In . SVG Version: 6.00 Build 0)  -->
<svg version="1.1" id="Layer_1" xmlns="http://www.w3.org/2000/svg" xmlns:xlink="http://www.w3.org/1999/xlink" x="0px" y="0px"
	 viewBox="0 0 72.125 25" style="enable-background:new 0 0 72.125 25;" xml:space="preserve">
<style type="text/css">
	.st0{fill-rule:evenodd;clip-rule:evenodd;fill:#A6AAAA;}
	.st1{fill-rule:evenodd;clip-rule:evenodd;fill:#F3792E;}
	.st2{fill-rule:evenodd;clip-rule:evenodd;fill:#F06022;}
	.st3{fill-rule:evenodd;clip-rule:evenodd;fill:#D95122;}
	.st4{fill-rule:evenodd;clip-rule:evenodd;fill:#F89A2C;}
	.st5{fill-rule:evenodd;clip-rule:evenodd;fill:#FFFFFF;}
	.st6{fill:#FFFFFF;}
	.st7{fill-rule:evenodd;clip-rule:evenodd;fill:#B4008D;}
	.st8{fill-rule:evenodd;clip-rule:evenodd;fill:#9DBC0A;}
	.st9{fill:none;stroke:#9DBC0A;stroke-width:0.1962;stroke-miterlimit:10;}
	.st10{fill-rule:evenodd;clip-rule:evenodd;fill:#DF3F17;}
	.st11{fill:none;stroke:#DF3F17;stroke-width:0.1962;stroke-miterlimit:10;}
	.st12{fill-rule:evenodd;clip-rule:evenodd;fill:#F5B208;}
	.st13{fill:none;stroke:#F5B208;stroke-width:0.1962;stroke-miterlimit:10;}
	.st14{fill:#9DBC0A;}
	.st15{fill:none;stroke:#9DBC0A;stroke-width:0.2023;stroke-miterlimit:10;}
	.st16{fill:none;stroke:#DF3F17;stroke-width:0.2023;stroke-miterlimit:10;}
	.st17{fill:none;stroke:#F5B208;stroke-width:0.2023;stroke-miterlimit:10;}
	.st18{fill-rule:evenodd;clip-rule:evenodd;fill:#85754E;}
	.st19{fill:#85754E;}
	.st20{fill-rule:evenodd;clip-rule:evenodd;fill:#1A171B;}
	.st21{fill:#016268;}
	.st22{fill:#00A9C2;}
	.st23{fill:#21427B;}
	.st24{fill:#FAE101;}
	.st25{fill-rule:evenodd;clip-rule:evenodd;fill:#32327F;}
	.st26{fill-rule:evenodd;clip-rule:evenodd;fill:#FCB813;}
	.st27{fill:#002169;}
	.st28{fill:#C6C7C8;}
	.st29{fill:#F79420;}
	.st30{fill:#FCB831;}
	.st31{fill:#FDDD2E;}
	.st32{fill:#F3C700;}
	.st33{fill:#DB6216;}
	.st34{fill:#EAA600;}
	.st35{fill:#E32427;}
	.st36{fill:#FFFFFF;stroke:#FFFFFF;stroke-width:0.1124;stroke-miterlimit:10;}
	.st37{fill:url(#SVGID_1_);}
	.st38{fill-rule:evenodd;clip-rule:evenodd;fill:#C1272D;}
	.st39{fill-rule:evenodd;clip-rule:evenodd;fill:url(#SVGID_2_);}
	.st40{fill-rule:evenodd;clip-rule:evenodd;fill:url(#SVGID_3_);}
	.st41{fill-rule:evenodd;clip-rule:evenodd;fill:url(#SVGID_4_);}
	.st42{fill-rule:evenodd;clip-rule:evenodd;fill:url(#SVGID_5_);}
	.st43{fill-rule:evenodd;clip-rule:evenodd;fill:url(#SVGID_6_);}
	.st44{fill-rule:evenodd;clip-rule:evenodd;fill:url(#SVGID_7_);}
	.st45{fill-rule:evenodd;clip-rule:evenodd;fill:url(#SVGID_8_);}
	.st46{fill:#006937;}
	.st47{fill:#929990;}
	.st48{fill:#FFFFFF;stroke:#FFFFFF;stroke-width:0.1949;stroke-miterlimit:10;}
	.st49{fill:#18428F;}
	.st50{fill:#EC1848;}
	.st51{fill:#29A151;}
	.st52{fill:#C1272D;}
	.st53{fill:#29ABE2;}
	.st54{fill:#F7BE3E;}
	.st55{fill:url(#SVGID_9_);}
	.st56{fill-rule:evenodd;clip-rule:evenodd;fill:none;}
	.st57{clip-path:url(#SVGID_11_);fill-rule:evenodd;clip-rule:evenodd;}
	.st58{fill:#EFAF1F;}
	.st59{fill:#EFB022;}
	.st60{fill:#0E0A08;}
	.st61{fill:#DA2A28;}
	.st62{fill:#F6F6F5;}
	.st63{fill:#C7B086;}
	.st64{fill:#F1F0EE;}
	.st65{fill-rule:evenodd;clip-rule:evenodd;fill:url(#SVGID_12_);}
	.st66{fill-rule:evenodd;clip-rule:evenodd;fill:#FAF9F9;}
	.st67{fill-rule:evenodd;clip-rule:evenodd;fill:#F8B132;}
	.st68{fill-rule:evenodd;clip-rule:evenodd;fill:#1A70B7;}
	.st69{fill-rule:evenodd;clip-rule:evenodd;fill:#36A834;}
	.st70{fill-rule:evenodd;clip-rule:evenodd;fill:#E2000F;}
	.st71{fill-rule:evenodd;clip-rule:evenodd;fill:#1A1A18;}
	.st72{fill:url(#SVGID_13_);}
	.st73{fill:url(#SVGID_14_);}
	.st74{fill:url(#SVGID_15_);}
	.st75{fill:url(#SVGID_16_);}
	.st76{fill:url(#SVGID_17_);}
	.st77{fill:url(#SVGID_18_);}
	.st78{fill:url(#SVGID_19_);}
	.st79{fill:url(#SVGID_20_);}
	.st80{fill:url(#SVGID_21_);}
	.st81{fill:url(#SVGID_22_);}
	.st82{fill:url(#SVGID_23_);}
	.st83{fill:url(#SVGID_24_);}
	.st84{fill:url(#SVGID_25_);}
	.st85{fill:url(#SVGID_26_);}
	.st86{fill:#00A85D;}
	.st87{fill:#FFFFFF;stroke:#FFFFFF;stroke-width:0.1;stroke-miterlimit:10;}
	.st88{fill:#9FD8F5;}
	.st89{fill:#274888;}
	.st90{fill:#267DBF;}
	.st91{fill:#2F91CF;}
	.st92{fill:#2955A0;}
	.st93{fill:#236EB3;}
	.st94{fill:#CFEBFA;}
	.st95{fill:#42B7E9;}
	.st96{fill:#3FAAE0;}
	.st97{fill:#ED171F;}
	.st98{opacity:0.25;fill:url(#SVGID_27_);}
	.st99{fill:#FFFFFF;stroke:#FFFFFF;stroke-width:1.0606;stroke-miterlimit:10;}
	.st100{fill:#FFAF10;}
	.st101{fill:#151416;}
	.st102{fill:#E57641;}
	.st103{fill:none;}
	.st104{fill:#1C191B;}
	.st105{fill:#19181A;}
	.st106{fill:#DD7340;}
	.st107{fill:#181617;}
	.st108{fill:#EA7944;}
	.st109{fill:#0C0E13;}
	.st110{fill:#181719;}
	.st111{fill:#F2F1F2;}
	.st112{fill:#F6F5F5;}
	.st113{fill:#BA673F;}
	.st114{fill:#4E362A;}
	.st115{fill:#6A6567;}
	.st116{fill:none;stroke:#EA7944;stroke-width:0.3013;stroke-linecap:round;stroke-miterlimit:10;}
	.st117{fill:none;stroke:#FF00FF;stroke-width:0.25;stroke-miterlimit:10;}
</style>
<g>
	<path class="st48" d="M9.069,24.72H6.443L2.381,5.217v19.538H0V0.245h3.817l4.027,19.573L11.73,0.245h3.817v24.51h-2.591V5.042
		L9.069,24.72z"/>
	<path class="st48" d="M18.137,6.163C18.137,2.416,19.993,0,23.739,0c3.781,0,5.637,2.416,5.637,6.163v12.675
		c0,3.712-1.856,6.162-5.637,6.162c-3.747,0-5.602-2.451-5.602-6.162V6.163z M20.833,18.978c0,2.241,0.945,3.537,2.906,3.537
		c1.996,0,2.906-1.295,2.906-3.537V6.023c0-2.206-0.91-3.537-2.906-3.537c-1.961,0-2.906,1.331-2.906,3.537V18.978z"/>
	<path class="st48" d="M37.429,0.245c3.852,0,5.462,1.961,5.462,5.602v1.996c0,2.696-0.945,4.377-3.046,5.042
		c2.241,0.665,3.081,2.486,3.081,5.112v3.817c0,1.086,0.035,2.101,0.49,2.941H40.65c-0.315-0.7-0.455-1.33-0.455-2.976v-3.852
		c0-2.766-1.295-3.641-3.571-3.641h-1.926v10.469h-2.731V0.245H37.429z M36.729,11.8c2.171,0,3.466-0.7,3.466-3.361V6.093
		c0-2.206-0.805-3.361-2.836-3.361h-2.661V11.8H36.729z"/>
	<path class="st48" d="M48.528,19.818l-0.945,4.937h-2.521l4.692-24.51h3.957l4.692,24.51h-2.731l-0.945-4.937H48.528z
		 M48.879,17.472h5.462L51.575,3.326L48.879,17.472z"/>
	<path class="st48" d="M62.954,24.755h-2.451V0.245h3.466l5.672,17.717V0.245h2.416v24.51h-2.836L62.954,4.937V24.755z"/>
</g>
</svg>
