<svg width="200" height="155" fill="none" xmlns="http://www.w3.org/2000/svg"><g clip-path="url(#a)"><path d="M199.8 124.301H.7v.3h199.1v-.3Z" fill="url(#b)"/><path d="M5 30c1.3 0 2.6.5 3.5 1.5 1 .9 1.5 2.2 1.5 3.6 0 1.3-.5 2.6-1.5 3.5-.9 1-2.2 1.5-3.5 1.5-1.3 0-2.6-.5-3.5-1.5-1-.9-1.5-2.2-1.5-3.5 0-1.3.5-2.6 1.5-3.6.9-1 2.2-1.5 3.5-1.5ZM1.9 49.5H8V97H1.9V49.5Z" fill="url(#c)"/><path d="m81.4 44.7-5.1 3.8c-2.7-3.5-6.1-6.3-10-8.2-4-1.9-8.4-2.8-12.9-2.8-5 0-9.9 1.2-14.2 3.7-4.2 2.3-7.7 5.7-10.1 9.8-2.4 4.3-3.7 9.1-3.6 14-.2 7.4 2.7 14.4 8 19.5 5.4 5.3 12.7 8.1 20.3 7.8 8.7.1 17-3.8 22.5-10.5l5.1 3.8c-3.2 4.1-7.3 7.3-12 9.4-5 2.3-10.5 3.4-16 3.3-11.2 0-20.1-3.7-26.5-11.2-5.4-6.3-8.3-14.5-8.1-22.8-.2-8.9 3.4-17.5 9.9-23.6 6.6-6.4 15.5-9.8 24.7-9.6 5.6-.1 11.2 1.1 16.2 3.5 4.7 2.4 8.8 5.9 11.8 10.1Z" fill="url(#d)"/><path d="M92.3 31.2h6.1V97h-6.1V31.2Z" fill="url(#e)"/><path d="M113.199 30c1.3 0 2.6.5 3.5 1.5 1 .9 1.5 2.2 1.5 3.6 0 1.3-.5 2.6-1.5 3.5-.9 1-2.199 1.5-3.599 1.5-1.3 0-2.6-.5-3.5-1.5-1-.9-1.5-2.2-1.5-3.5 0-1.3.5-2.6 1.5-3.6s2.299-1.5 3.599-1.5Zm-3 19.5h6.101V97h-6.101V49.5Z" fill="url(#f)"/><path d="M128.9 49.5h6.1v8.2c1.7-2.6 4.001-4.9 6.601-6.6 2.9-1.8 6.199-2.7 9.599-2.8 2.3 0 4.5.4 6.5 1.3 1.9.8 3.701 2 5.101 3.6 1.5 1.9 2.699 4.1 3.399 6.4 1.8-3.4 4.4-6.4 7.7-8.5 2.9-1.9 6.401-2.9 9.901-2.9 3.1-.1 6.099.8 8.699 2.5 2.5 1.7 4.501 4.1 5.601 6.9 1.5 4.3 2.099 8.9 1.899 13.4v25.9h-6.199v-26c.2-3.5-.201-7.1-1.101-10.5-.7-1.9-2-3.5-3.7-4.6-1.9-1.2-4.1-1.8-6.3-1.7-3-.1-5.9.9-8.2 2.6-2.4 1.7-4.299 4.2-5.399 7-1.1 2.9-1.701 7.8-1.701 14.5v18.7h-6.099V72.6c.2-3.9-.201-7.8-1.101-11.7-.7-2-2-3.7-3.8-4.9-1.8-1.3-4.099-2-6.299-1.9-2.8.1-5.5 1-7.8 2.6-2.5 1.7-4.301 4.1-5.401 6.9-1.4 4.3-1.999 8.7-1.799 13.2v20.1H129V49.5h-.1Z" fill="url(#g)"/><path d="M1.8 105.9h1.6l4.2 9.6 3.8-9.6H13l-5.4 12.5c-.4 1.1-1.5 1.8-2.6 1.8-.5 0-1-.1-1.4-.3-.7-.4-1.2-.9-1.7-1.5l1-.8c.4.5.9.9 1.4 1.2.2.1.5.1.7.1.3 0 .7-.1 1-.3.4-.4.7-.9.9-1.5l-5.1-11.2Z" fill="url(#h)"/><path d="m18.4 119.9 1.9-14h.2l5.7 11.5 5.6-11.5h.2l2 14h-1.4l-1.4-10-5 10h-.3l-5-10.1-1.4 10.1h-1.1Z" fill="url(#i)"/><path d="M40.6 105.9h1.5v5.9h7.1v-5.9h1.4v14h-1.4v-6.8h-7.1v6.8h-1.4l-.1-14Z" fill="url(#j)"/><path d="M57.6 105.9H59v6h1c1.3 0 2.6 0 3.9.2.8.2 1.4.6 1.9 1.2 1 1.5 1 3.4 0 4.9-.4.6-1.1 1.1-1.8 1.3-1.2.3-2.5.4-3.7.3h-2.7v-13.9Zm1.4 12.6h1.5c1 .1 2.1 0 3.1-.2.5-.1.9-.4 1.1-.8.3-.5.4-1 .4-1.6 0-.6-.2-1.2-.5-1.7-.3-.4-.8-.7-1.4-.8-1-.1-2-.2-3.1-.2h-1.2l.1 5.3Zm9.2-12.6h1.4v14h-1.4v-14Z" fill="url(#k)"/><path d="M87.7 119.9h-1.5v-10.7l-9.1 10.7h-.3v-14h1.4v10.9l9.3-10.9h.3v14h-.1Zm-8.9-17.3h1.3c.2.3.5.6.9.7.4.2.9.3 1.3.2.4 0 .8-.1 1.2-.2.4-.2.7-.4.9-.8h1.2c-.2.6-.5 1.1-1.1 1.4-.7.4-1.4.6-2.2.6-.8 0-1.6-.2-2.3-.6-.6-.2-1-.7-1.2-1.3Z" fill="url(#l)"/><path d="M103.8 105.9h1.5v5.2l5.6-5.2h1.9l-6.9 6.4 7.3 7.7h-1.9l-6-6.5v6.5h-1.4l-.1-14.1Z" fill="url(#m)"/><path d="M130.101 119.9h-1.5L124 109.1l-4.6 10.8h-1.5l6.1-14h.301l5.8 14Z" fill="url(#n)"/><path d="M147.2 119.9h-1.5v-10.7l-9.2 10.7h-.3v-14h1.4v10.9l9.3-10.9h.3v14Z" fill="url(#o)"/><path d="m153.6 119.9 1.9-14h.199l5.7 11.5L167 105.9h.199l1.901 14h-1.201l-1.399-10-5 10h-.301l-5-10.1-1.3 10.1H153.6Z" fill="url(#p)"/><path d="m181.5 105.9 6.5 14h-1.5l-2.2-4.6h-6l-2.2 4.6h-1.6l6.6-14h.4Zm-.2 3-2.4 5.1h4.8l-2.4-5.1Z" fill="url(#q)"/><path d="M192.5 107.3v-1.4h7.7v1.4h-3.1V120h-1.4v-12.7h-3.2Z" fill="url(#r)"/></g><defs><linearGradient id="k" x1="1.351" y1="112.91" x2="197.796" y2="112.91" gradientUnits="userSpaceOnUse"><stop stop-color="#1C8AE2"/><stop offset=".486" stop-color="#8B00B3"/><stop offset="1" stop-color="#6900B5"/></linearGradient><linearGradient id="b" x1="1.352" y1="124.481" x2="197.797" y2="124.481" gradientUnits="userSpaceOnUse"><stop stop-color="#1C8AE2"/><stop offset=".486" stop-color="#8B00B3"/><stop offset="1" stop-color="#6900B5"/></linearGradient><linearGradient id="d" x1="1.352" y1="64.815" x2="197.796" y2="64.815" gradientUnits="userSpaceOnUse"><stop stop-color="#1C8AE2"/><stop offset=".486" stop-color="#8B00B3"/><stop offset="1" stop-color="#6900B5"/></linearGradient><linearGradient id="e" x1="1.354" y1="64.074" x2="197.794" y2="64.074" gradientUnits="userSpaceOnUse"><stop stop-color="#1C8AE2"/><stop offset=".486" stop-color="#8B00B3"/><stop offset="1" stop-color="#6900B5"/></linearGradient><linearGradient id="f" x1="1.353" y1="63.462" x2="197.795" y2="63.462" gradientUnits="userSpaceOnUse"><stop stop-color="#1C8AE2"/><stop offset=".486" stop-color="#8B00B3"/><stop offset="1" stop-color="#6900B5"/></linearGradient><linearGradient id="g" x1="1.352" y1="72.611" x2="197.797" y2="72.611" gradientUnits="userSpaceOnUse"><stop stop-color="#1C8AE2"/><stop offset=".486" stop-color="#8B00B3"/><stop offset="1" stop-color="#6900B5"/></linearGradient><linearGradient id="h" x1="1.352" y1="113.084" x2="197.796" y2="113.084" gradientUnits="userSpaceOnUse"><stop stop-color="#1C8AE2"/><stop offset=".486" stop-color="#8B00B3"/><stop offset="1" stop-color="#6900B5"/></linearGradient><linearGradient id="i" x1="1.352" y1="112.93" x2="197.798" y2="112.93" gradientUnits="userSpaceOnUse"><stop stop-color="#1C8AE2"/><stop offset=".486" stop-color="#8B00B3"/><stop offset="1" stop-color="#6900B5"/></linearGradient><linearGradient id="j" x1="1.351" y1="112.91" x2="197.796" y2="112.91" gradientUnits="userSpaceOnUse"><stop stop-color="#1C8AE2"/><stop offset=".486" stop-color="#8B00B3"/><stop offset="1" stop-color="#6900B5"/></linearGradient><linearGradient id="c" x1="1.352" y1="63.462" x2="197.797" y2="63.462" gradientUnits="userSpaceOnUse"><stop stop-color="#1C8AE2"/><stop offset=".486" stop-color="#8B00B3"/><stop offset="1" stop-color="#6900B5"/></linearGradient><linearGradient id="l" x1="1.352" y1="111.235" x2="197.796" y2="111.235" gradientUnits="userSpaceOnUse"><stop stop-color="#1C8AE2"/><stop offset=".486" stop-color="#8B00B3"/><stop offset="1" stop-color="#6900B5"/></linearGradient><linearGradient id="m" x1="1.353" y1="112.91" x2="197.795" y2="112.91" gradientUnits="userSpaceOnUse"><stop stop-color="#1C8AE2"/><stop offset=".486" stop-color="#8B00B3"/><stop offset="1" stop-color="#6900B5"/></linearGradient><linearGradient id="n" x1="1.35" y1="112.93" x2="197.798" y2="112.93" gradientUnits="userSpaceOnUse"><stop stop-color="#1C8AE2"/><stop offset=".486" stop-color="#8B00B3"/><stop offset="1" stop-color="#6900B5"/></linearGradient><linearGradient id="o" x1="1.352" y1="112.91" x2="197.797" y2="112.91" gradientUnits="userSpaceOnUse"><stop stop-color="#1C8AE2"/><stop offset=".486" stop-color="#8B00B3"/><stop offset="1" stop-color="#6900B5"/></linearGradient><linearGradient id="p" x1="1.351" y1="112.93" x2="197.796" y2="112.93" gradientUnits="userSpaceOnUse"><stop stop-color="#1C8AE2"/><stop offset=".486" stop-color="#8B00B3"/><stop offset="1" stop-color="#6900B5"/></linearGradient><linearGradient id="q" x1="1.352" y1="112.91" x2="197.797" y2="112.91" gradientUnits="userSpaceOnUse"><stop stop-color="#1C8AE2"/><stop offset=".486" stop-color="#8B00B3"/><stop offset="1" stop-color="#6900B5"/></linearGradient><linearGradient id="r" x1="1.353" y1="112.91" x2="197.797" y2="112.91" gradientUnits="userSpaceOnUse"><stop stop-color="#1C8AE2"/><stop offset=".486" stop-color="#8B00B3"/><stop offset="1" stop-color="#6900B5"/></linearGradient><clipPath id="a"><path fill="#fff" d="M0 0h200v155H0z"/></clipPath></defs></svg>