<svg xmlns="http://www.w3.org/2000/svg" width="200" height="155" fill="none"><path fill="url(#a)" d="M128.7 62.3c0-3.2 1.9-4.8 4.6-4.8 3.3 0 4.5 2.2 4.5 4.8h-9.1Zm4.6-8.4c-5.4 0-9.1 3.7-9.1 9.9 0 7.4 4 10.3 9.8 10.3 2 0 4.1-.3 6-.9.1 0 .2-.1.3-.3.1-.1.1-.3 0-.4l-.6-2.4c0-.1 0-.1-.1-.2 0-.1-.1-.1-.2-.1s-.1-.1-.2-.1h-.2c-1.5.6-3.1.8-4.7.8-2.8 0-5.3-1.5-5.5-4.8h11c1.1 0 1.9-.4 2.1-1.2.3-1 .3-2.1.1-3.1-.6-4.7-3.5-7.4-8.7-7.5Zm-33.2 14.3c0 3.5-3.2 5.8-8.2 5.8-2.5.1-5.1-.3-7.5-.9-.1 0-.2-.1-.3-.2-.1-.1-.1-.2-.1-.4l.5-2.5c0-.1.1-.1.1-.2s.1-.1.2-.1.1-.1.2-.1h.2c2 .6 4 .8 6 .8 3.2 0 4.4-1.2 4.4-2.7 0-1.1-.9-2.1-4.6-2.2h-1.5c-.8 0-1.1-.4-1.1-.9V63c0-.5.3-.9 1.1-.9H91c3.4-.1 4.3-1.1 4.3-2.3 0-1.2-1.1-2.2-4.2-2.2-1.7 0-3.3.3-4.9.8H86c-.1 0-.1 0-.2-.1-.1 0-.1-.1-.2-.1 0-.1-.1-.1-.1-.2l-.6-2.3v-.4c0-.1.2-.2.3-.2 2-.8 4.2-1.2 6.4-1.2 5.2 0 7.9 1.7 8.2 4.8.1 1-.1 2-.6 2.8-.5.9-1.2 1.6-2.1 2 .9.4 1.7 1 2.3 1.9.4.8.7 1.8.7 2.8Zm16.1 1.6h-8.7l2.2-8.7c.6-2.4 1.4-3 3.3-3h3.2v11.7Zm5.6 0h-1.2V56c0-.4-.2-.8-.5-1.1-.3-.3-.7-.5-1.1-.5h-6.5c-3.9 0-5.6 1.5-6.5 4.9l-2.8 10.5h-1.4c-.1 0-.2 0-.4.1-.1 0-.2.1-.3.2-.1.1-.2.2-.2.3 0 .1-.1.2-.1.4l.3 6.5c0 .1.1.3.2.4.1.1.2.2.4.2h2.8c.1 0 .3-.1.4-.2.1-.1.2-.2.2-.4l.5-3.6h12.5l.5 3.6c0 .1.1.3.2.4.1.1.2.2.4.2h2.8c.1 0 .3-.1.4-.2.1-.1.2-.2.2-.4l.3-6.5c0-.1 0-.2-.1-.4 0-.1-.1-.2-.2-.3-.1-.1-.2-.2-.3-.2-.3 0-.5 0-.5-.1Zm19.8 12v3c0 .1-.1.3-.2.4-.1.1-.2.2-.4.2h-6.2V100c0 .1-.1.3-.2.4-.1.1-.2.2-.4.2h-3.6c-.1 0-.1-.1-.2-.1 0 0-.1-.1-.1-.2V85.5h-6.2c-.1 0-.3-.1-.4-.2-.1-.1-.2-.2-.2-.4v-3c0-.1.1-.3.2-.4.1-.1.2-.2.4-.2h17.1c.1 0 .1.1.2.1s.1.1.1.2.1.1.1.2Zm49.7 15.7c-2.7 0-4.1-1.1-4.1-3.1s1.6-2.8 4.1-2.8h3.8v5.5c-1.2.2-2.5.4-3.8.4Zm0-16.8c-2.2 0-4.4.4-6.5 1.1-.1 0-.2.1-.3.2-.1.1-.1.2-.1.4l.6 2.4c0 .1 0 .1.1.2 0 .1.1.1.2.1s.1.1.2.1h.2c1.6-.5 3.3-.8 5-.8 3.3 0 4.5 1 4.5 4h-4c-5.5 0-8.3 2.5-8.3 6.3s3.1 6.2 8 6.2c2.6.1 5.1-.3 7.6-.9.3-.1.6-.2.8-.5.2-.3.3-.6.2-.9V88.4c.1-5.4-2.1-7.7-8.2-7.7Zm-9.9 18.9c0 .1.1.2 0 .3 0 .1 0 .2-.1.2s-.1.1-.2.2c-.1 0-.2.1-.3.1h-3.3c-.2 0-.5 0-.7-.1-.2-.1-.3-.3-.4-.5l-2.6-5.4c-.3-.7-.7-1.3-1.4-1.7-.6-.4-1.4-.6-2.1-.5h-2v7.9c0 .1-.1.1-.1.2 0 0-.1.1-.2.1h-3.8c-.1 0-.1-.1-.2-.1 0 0-.1-.1-.1-.2V81.6c0-.1.1-.1.1-.2 0 0 .1-.1.2-.1h3.8c.1 0 .1.1.2.1 0 0 .1.1.1.2v6.9h1.9c.7.1 1.4-.1 2.1-.5.6-.4 1.1-.9 1.4-1.6l2.3-4.7c.2-.4.4-.6 1-.6h3c.1 0 .2 0 .3.1.1 0 .1.1.2.2 0 .1.1.2.1.3 0 .1 0 .2-.1.3l-3 6c-.2.5-.6 1-1 1.4-.4.4-.9.7-1.5.8.6.1 1.2.4 1.7.8s.9.9 1.1 1.5l3.6 7.1Zm-34-10.4c0-3.2 1.9-4.8 4.6-4.8 3.3 0 4.5 2.2 4.5 4.8h-9.1Zm4.6-8.5c-5.4 0-9.1 3.7-9.1 9.9 0 7.4 4 10.3 9.8 10.3 2 0 4.1-.3 6-.9.1 0 .2-.1.3-.2.1-.1.1-.3 0-.4l-.6-2.4c0-.1 0-.1-.1-.2 0-.1-.1-.1-.2-.1s-.1-.1-.2-.1h-.2c-1.5.6-3.1.8-4.7.8-2.8 0-5.3-1.4-5.5-4.8h11c1.1 0 1.8-.4 2.1-1.2.3-1 .3-2.1.1-3.1-.6-4.7-3.5-7.5-8.7-7.6Zm-30.5 5V100c0 .1-.1.1-.1.2 0 0-.1.1-.2.1h-3.7c-.1 0-.1-.1-.2-.1 0 0-.1-.1-.1-.2V86.5c0-.7-.3-1.2-1.2-1.2h-6.9c-.8 0-1.2.5-1.2 1.2V100c0 .1-.1.1-.1.2 0 0-.1.1-.2.1h-3.5c-.1 0-.3-.1-.4-.2-.1-.1-.2-.2-.2-.4V85.4c0-1.2.5-2.3 1.3-3.1.8-.8 1.9-1.3 3.1-1.3h9.3c1.2 0 2.3.5 3.1 1.3.8.8 1.3 1.9 1.3 3.1v.3h-.1Zm23.2-22c0-6.4 3.9-9.9 9.1-9.9 2 0 4 .2 6 .8.1 0 .2.1.3.2.1.1.1.3.1.4l-.5 2.5c-.1.4-.4.5-.8.4-1.3-.4-2.7-.5-4.1-.6-3.4 0-5.6 2.2-5.6 6.2 0 4.9 2.1 6.6 5.5 6.6 1.7 0 3.3-.2 4.9-.7h.2s.1 0 .2.1c.1 0 .1.1.2.2s.1.1.1.2l.4 2.5c0 .1 0 .2-.1.3-.1.1-.2.2-.3.2-2 .6-4.1.9-6.2.9-5.9 0-9.4-3-9.4-10.3ZM56.8 89.1H48v8.8c0 1.5-.3 3.1-.9 4.5-.6 1.4-1.4 2.7-2.5 3.8-1.1 1.1-2.4 1.9-3.8 2.5-1.4.6-2.9.9-4.5.9s-3.1-.3-4.5-.9c-1.4-.6-2.7-1.4-3.8-2.5-1.1-1.1-1.9-2.4-2.5-3.8-.6-1.4-.9-2.9-.9-4.5v-4.5h3.6c.8 0 1.6-.2 2.2-.6.7-.4 1.3-.9 1.7-1.6.4-.7.7-1.4.7-2.2 0-.8-.1-1.6-.4-2.3.5-.3.9-.6 1.3-1 .3-.4.6-.9.7-1.5.1-.5.2-1.1.1-1.6s-.3-1.1-.6-1.5c.8-.4 1.5-1.2 1.8-2.1.3-.9.4-1.9 0-2.8h5.6c1.1 0 2.1-.4 2.9-1.2.8-.8 1.2-1.8 1.2-2.9 0-1.1-.4-2.1-1.2-2.9-.8-.8-1.8-1.2-2.9-1.2H31c.7-.9 1.1-2 1.2-3.1.2-1.1 0-2.3-.3-3.3h-7.4V57c0-1.5.3-3 .9-4.5.6-1.4 1.4-2.7 2.5-3.8 1.1-1.1 2.4-1.9 3.8-2.5 1.4-.6 2.9-.9 4.5-.9s3 .3 4.5.9c1.4.6 2.7 1.4 3.8 2.5 1.1 1.1 1.9 2.4 2.5 3.8.6 1.4.9 2.9.9 4.5v8.8h8.8c1.5 0 3.1.3 4.5.9 1.4.6 2.7 1.4 3.8 2.5 1.1 1.1 1.9 2.4 2.5 3.8.6 1.4.9 2.9.9 4.5s-.3 3.1-.9 4.5c-.6 1.4-1.4 2.7-2.5 3.8-1.1 1.1-2.4 1.9-3.8 2.5-1.4.5-2.9.8-4.4.8Zm-40.2.8c-3.2-.1-6.3-1.5-8.6-3.8s-3.5-5.5-3.5-8.7c0-3.2 1.3-6.4 3.5-8.7 2.3-2.3 5.3-3.7 8.6-3.8H29c0 .8-.3 1.6-.9 2.2-.6.6-1.4.9-2.2 1h-6.5c-.3 0-.6.2-.7.4-.2.2-.3.5-.3.8 0 .3.1.6.3.8.2.2.5.3.7.4h21.7c.4 0 .8.2 1.2.5.3.3.5.7.5 1.2s-.2.8-.5 1.2c-.3.3-.7.5-1.2.5H23.2c-.3 0-.6.1-.8.3-.2.2-.3.5-.3.8 0 .3.1.6.3.8.2.2.5.3.8.3h8.2c.4 0 .8.2 1 .5.3.3.4.7.4 1.1 0 .4-.1.8-.4 1.1-.3.3-.6.5-1 .5h-8.2c-.3 0-.6.1-.8.3-.2.2-.3.5-.3.8 0 .3.1.6.3.8.2.2.5.3.8.3h7c.2 0 .4 0 .6.1l.6.3c.2.1.3.3.4.5.1.2.1.4.1.6 0 .2 0 .4-.1.6-.1.2-.2.4-.4.5-.2.1-.4.3-.6.3-.2.1-.4.1-.6.1h-7c-.3 0-.6.1-.8.3-.2.2-.3.5-.3.8 0 .3.1.6.3.8.2.2.5.3.8.3h5.2c.2 0 .4 0 .6.1.2.1.4.2.5.3.2.1.3.3.4.5.1.2.1.4.1.6 0 .2 0 .4-.1.6-.1.2-.2.4-.4.5-.2.1-.3.3-.5.3-.2.1-.4.1-.6.1l-11.8.2Zm40.2-28.4h-4.5v-4.6c0-4.2-1.7-8.3-4.7-11.2-3-3-7-4.7-11.2-4.7-4.2 0-8.3 1.7-11.2 4.7-3 3-4.7 7-4.7 11.2v4.6h-4.6c-4.2 0-8.3 1.7-11.2 4.7-2.9 3-4.7 7-4.7 11.2 0 4.2 1.7 8.3 4.7 11.2 3 2.9 7 4.7 11.2 4.7h4.6v4.5c0 4.2 1.7 8.3 4.7 11.2 3 3 7 4.7 11.2 4.7 4.2 0 8.3-1.7 11.2-4.7 3-3 4.7-7 4.7-11.2v-4.5h4.5c4.2 0 8.3-1.7 11.2-4.7 3-3 4.7-7 4.7-11.2 0-4.2-1.7-8.3-4.7-11.2-3-3-7-4.7-11.2-4.7Zm34.6 35.9c-2.6 0-4.2-1.1-4.2-3.1 0-1.7 1.6-2.8 4.1-2.8h3.8V97c-1.2.3-2.4.5-3.7.4Zm-.1-16.7c-2.2 0-4.4.4-6.5 1.1-.1 0-.2.1-.3.2-.1.1-.1.2-.1.4l.6 2.4c0 .1 0 .1.1.2 0 .1.1.1.2.1s.1.1.2.1h.2c1.6-.5 3.3-.8 4.9-.8 3.3 0 4.5 1 4.5 4h-3.9c-5.5 0-8.3 2.5-8.3 6.3s3.1 6.2 8 6.2c2.6.1 5.2-.3 7.7-.9.3-.1.6-.2.8-.5.2-.3.3-.6.2-.9V88.4c0-5.4-2.3-7.7-8.3-7.7Zm77.2-16.6h4.4c2.6 0 3.7 1.1 3.7 2.7s-1 3.3-3.8 3.3h-4.2l-.1-6Zm-2.8 9.5h7.5c5.2 0 7.6-3.2 7.6-6.9 0-2.8-2-6-7.2-6h-5.1v-6c0-.1-.1-.1-.1-.2-.1 0-.1-.1-.2-.1h-3.5c-.1 0-.3.1-.4.2-.1.1-.2.2-.2.4v17c0 .4.2.8.5 1.1.2.3.6.5 1.1.5Z"/><defs><linearGradient id="a" x1="-.081" x2="199.622" y1="77.359" y2="77.359" gradientUnits="userSpaceOnUse"><stop stop-color="#1C8AE2"/><stop offset=".486" stop-color="#8B00B3"/><stop offset="1" stop-color="#6900B5"/></linearGradient></defs></svg>