<svg xmlns="http://www.w3.org/2000/svg" width="201" height="155" fill="none"><path fill="url(#a)" d="M3.3 107.7c.2 0 .5.1.7.2l.6.3v.6H0v-.7c.4-.2.8-.3 1.2-.4v-8c-.2 0-.4-.1-.6-.2l-.6-.3v-.5h7.2v1.7l-.1.9c0 .3-.1.6-.1.8h-.6l-.9-2.5H3.2v8.1h.1Zm4.9-4c0-.7.1-1.4.3-2 .2-.6.5-1.1.9-1.6s.9-.8 1.5-1.1c1.3-.5 2.8-.5 4.1 0 .6.2 1.1.6 1.5 1.1.4.5.7 1 .9 1.6.2.7.3 1.3.3 2s-.1 1.4-.3 2c-.2.6-.5 1.1-.9 1.6s-.9.8-1.5 1.1c-1.3.5-2.8.5-4.1 0-.6-.2-1.1-.6-1.5-1.1-.4-.5-.7-1-.9-1.6-.2-.7-.3-1.4-.3-2Zm2.5 0c0 .6 0 1.1.1 1.7.1.4.2.9.4 1.3.2.3.5.6.8.9.3.2.7.3 1.1.3.4 0 .7-.1 1-.3.3-.2.5-.5.7-.9.2-.4.3-.8.4-1.3.2-1.1.2-2.2 0-3.3-.1-.4-.2-.9-.4-1.3s-.4-.7-.8-.9c-.3-.2-.7-.3-1.2-.3-.4 0-.8.1-1.1.3-.3.2-.5.5-.7.9-.2.4-.3.8-.4 1.3.1.4 0 1 .1 1.6Zm15.6 2h.6c0 .1.1.3.1.5s0 .4.1.7c.1.3 0 .5 0 .7v.6c-.4.2-.8.4-1.3.4-.5.1-1 .1-1.5.1-.7 0-1.4-.1-2.1-.3-.6-.2-1.2-.5-1.6-.9-.5-.4-.8-1-1-1.6-.2-.8-.3-1.6-.2-2.4 0-.8.1-1.6.4-2.3.2-.6.6-1.1 1.1-1.6.5-.4 1-.7 1.6-.9.6-.2 1.2-.3 1.9-.3.6 0 1.1 0 1.7.1.4.1.9.2 1.3.3v.6c0 .3 0 .5-.1.7 0 .3-.1.5-.1.8 0 .3-.1.5-.1.6h-.7l-.8-2.1c-.1-.1-.3-.1-.4-.1-.2 0-.4-.1-.6-.1-.4 0-.8.1-1.1.3-.4.2-.7.4-.9.7-.3.4-.5.8-.6 1.3-.2.6-.2 1.3-.2 1.9-.1 1.1.2 2.2.8 3.1.5.7 1.3 1.1 2.2 1.1h.7c.1 0 .3-.1.4-.2l.4-1.7Zm9.3-6-.6-.2c-.2-.1-.3-.2-.5-.3v-.5h3.4v.5c-.1.1-.3.2-.4.2-.2.1-.4.2-.6.2l-2.7 6.1c-.3.9-.8 1.6-1.4 2.3-.4.5-1 .7-1.6.6-.1-.1-.2-.2-.2-.3-.1-.2-.2-.3-.2-.5l-.3-.9.4-.6 1.7.5c.1-.1.2-.2.2-.3.1-.1.1-.3.2-.4l-3.8-6.4-.5-.2c-.2-.1-.3-.2-.5-.3v-.5h4.4v.5c-.3.2-.7.3-1.1.4l2 3.9.3.9.3-.9 1.5-3.8Zm12.5 8v.7c0 .3 0 .6-.1.8-.1.3-.1.6-.1.8 0 .3-.1.5-.1.8h-.5l-.8-2.3h-6.8l-.8 2.3h-.5c0-.3-.1-.5-.2-.8l-.1-.9c0-.3 0-.6-.1-.8-.1-.2 0-.5 0-.7h1.3c.3-.5.5-1 .6-1.5.2-.6.4-1.3.6-1.9.2-.7.3-1.5.4-2.2.1-.8.1-1.6.2-2.3-.3-.1-.5-.1-.8-.2-.3-.1-.5-.2-.7-.3v-.5h8.1v.5c-.4.2-.8.3-1.2.4v8l1.6.1Zm-3.8 0v-8.1H42c0 1.1-.1 2.1-.3 2.9-.1.8-.2 1.5-.4 2.3l-.5 1.7c-.1.4-.3.8-.5 1.1l4 .1Zm8.2 1H49v-.6l.5-.3c.2-.1.3-.1.5-.2l3.7-9.1h1l3.5 9.1c.2 0 .4.1.6.2l.5.3v.6h-4.4v-.6l.6-.3c.2-.1.4-.1.6-.2l-.8-2.2h-3.1l-.8 2.2c.5.1.9.2 1.3.4v.6l-.2.1Zm0-4.2H55l-.9-2.7-.3-1.2-.3 1.3-1 2.6Zm11.1 3.2c.3 0 .5.1.8.2l.6.3v.6h-4.7v-.7c.2-.1.4-.2.6-.2.2 0 .4-.1.6-.2v-8c-.2 0-.4-.1-.6-.2l-.6-.3v-.5h1.8c.4 0 .8 0 1.3-.1s.9 0 1.3 0c.5 0 1 0 1.5.1s.9.3 1.3.5.7.6.9.9c.2.4.4.9.3 1.5 0 1-.4 1.9-1.2 2.5-.4.3-.8.5-1.3.6-.5.1-1 .2-1.5.2h-1.1v2.9-.1Zm.8-8.2h-.7v4.3h.8c.3 0 .5-.1.7-.1.2-.1.4-.2.6-.4.2-.2.3-.4.4-.7.1-.3.2-.7.2-1 0-.6-.2-1.2-.6-1.7-.4-.3-.9-.4-1.4-.4Zm12.6 6.2h.6c0 .2.1.4.1.5 0 .2 0 .4.1.7.1.3 0 .5 0 .7v.6c-.4.2-.8.4-1.2.4-.5.1-1 .1-1.5.1-.7 0-1.4-.1-2.1-.3-.6-.2-1.1-.5-1.6-.9s-.8-1-1-1.6c-.3-.8-.4-1.6-.3-2.4 0-.8.1-1.6.4-2.3.2-.6.6-1.1 1.1-1.6.4-.4 1-.7 1.6-.9.6-.2 1.2-.3 1.9-.3.6 0 1.1 0 1.7.1.4.1.9.2 1.3.3v.6c0 .3 0 .5-.1.7 0 .3-.1.5-.1.8l-.1.6h-.7l-.8-2.1c-.1-.1-.3-.1-.4-.1-.2 0-.4-.1-.6-.1-.4 0-.8.1-1.1.3-.3.2-.7.4-.9.7-.3.4-.5.8-.6 1.3-.2.6-.2 1.3-.2 1.9-.1 1.1.2 2.2.8 3.1.5.7 1.3 1.1 2.2 1.1h.7c.1 0 .3-.1.4-.2l.4-1.7Zm9 3h-4.9v-.6l.6-.3c.2-.1.5-.1.7-.2v-8h-1.6l-.9 2.4h-.5c0-.2-.1-.4-.1-.7l-.1-.9c0-.3 0-.6-.1-.9-.1-.3 0-.6 0-.8h9v.8l-.1.9c0 .3-.1.6-.1.9 0 .3-.1.5-.1.7h-.6l-1-2.4h-1.6v8l.7.2c.2 0 .4.1.6.2l.1.7Zm3.2 0v-.6l.6-.3c.2-.1.4-.1.6-.1v-8c-.2 0-.4-.1-.6-.2l-.6-.3v-.5h2.3c.3 0 .7 0 1-.1h1.1c.4 0 .9 0 1.3.1s.8.2 1.1.3c.3.2.6.4.8.7.2.4.3.8.3 1.2 0 .3-.1.6-.2.8-.1.3-.2.5-.4.7-.2.2-.4.4-.7.5-.3.1-.6.2-.8.3.3 0 .6.1.9.2.3.1.6.2.8.4.2.2.5.5.6.7.2.3.3.7.2 1 0 .5-.1.9-.3 1.3-.2.4-.5.7-.9.9-.4.2-.8.4-1.3.5-.5.1-1 .2-1.5.2h-.7l-3.6.3Zm3.6-5.5h.5c.1 0 .3 0 .4-.1.4-.1.7-.4.9-.7.2-.3.3-.7.3-1.1 0-.5-.1-.9-.5-1.3-.3-.3-.8-.4-1.2-.4h-1v3.5h.6v.1Zm.7 4.6c.5 0 1-.2 1.4-.5.3-.4.5-.9.5-1.4 0-.3 0-.6-.2-.9-.1-.2-.3-.4-.5-.6-.2-.1-.5-.2-.7-.3-.3-.1-.6-.1-.9-.1h-.7v3.6l.4.1h.7v.1Zm12.3-9c0 .4 0 .8-.1 1.3-.1.4-.1.9-.2 1.3h-.6l-.6-1.7h-2.6v3.5h1.7l.6-1.1h.4c.1.5.1 1 .1 1.5s0 1.1-.1 1.6h-.4l-.6-1.1h-1.8v3.7h2.7l.7-1.8h.6c0 .2.1.4.1.6.1.2 0 .5.1.7.1.2 0 .5 0 .7v.7h-7.6v-.6c.2-.1.4-.2.5-.3.2-.1.4-.1.6-.2v-8c-.2 0-.4-.1-.6-.2l-.6-.3v-.5l7.7.2Zm5.8 9.9h-4.3v-.6l.5-.3c.2-.1.4-.1.6-.2v-8c-.2 0-.4-.1-.7-.2-.2-.1-.4-.2-.5-.3v-.5h4.3v.5c-.1.1-.3.2-.5.3-.2.1-.3.1-.5.2v3.4h3.8v-3.4c-.2 0-.4-.1-.5-.2l-.5-.3v-.5h4.3v.5l-.6.3-.6.2v8c.2 0 .4.1.6.2l.5.3v.6h-4.3v-.6l.5-.3c.2-.1.4-.1.5-.2V104h-3.7v3.6c.2 0 .4.1.5.2.2.1.3.1.5.2l.1.7Zm11.4 0h-4.2v-.6l.6-.3c.2-.1.4-.1.6-.2v-8c-.2 0-.5-.1-.7-.2-.2-.1-.4-.2-.5-.3v-.5h4.3v.5c-.1.1-.3.2-.5.3-.2.1-.3.1-.5.2v3.4h3.7v-3.4c-.2 0-.4-.1-.5-.2-.2-.1-.3-.2-.4-.3v-.5h4.3v.5c-.2.1-.4.2-.5.3l-.6.2v8c.2 0 .4.1.6.2l.5.3v.6h-4.3v-.6l.5-.3c.2-.1.4-.1.6-.2V104h-3.8v3.6c.2 0 .4.1.5.2.2.1.3.1.5.2l-.2.7Zm10.4 0H130v-.6c.1-.1.3-.2.5-.3.2-.1.3-.1.5-.2l3.6-9.1h1l3.5 9.1c.2 0 .4.1.6.2l.5.3v.6h-4.4v-.6l.6-.3c.2-.1.4-.1.6-.2l-.8-2.2h-3.1l-.8 2.2c.5.1.9.2 1.3.4v.6l-.2.1Zm0-4.2h2.5l-.9-2.7-.3-1.2-.3 1.3-1 2.6Zm17.1-5.7v.5c-.2.1-.3.2-.5.2-.2.1-.4.1-.7.2v8c.2 0 .4.1.7.2l.5.2v.5h-4.4v-.5l.5-.3c.2-.1.4-.1.6-.2v-3.2H146l-.8 1.9c-.3.6-.6 1.2-1 1.7l-.6.5h-2.4v-.5l.6-.3 1.5-1.8 1-1.5c-.3-.1-.5-.2-.7-.3-.2-.1-.5-.3-.7-.5-.2-.2-.4-.5-.5-.8-.1-.3-.2-.7-.2-1.1 0-.5.1-1 .4-1.4.2-.4.6-.7.9-.9.4-.2.8-.4 1.3-.5.5-.1 1-.2 1.6-.2h1.4l2.7.1Zm-4.1 5h.9v-4.1h-.8c-.3 0-.5 0-.8.1-.2.1-.4.2-.6.4-.2.2-.3.4-.4.6-.1.3-.2.6-.2.9 0 .6.1 1.1.5 1.6.4.3.9.5 1.4.5Zm19 3.9v.7c0 .3-.1.6-.1.8l-.1.8c0 .3-.1.5-.1.8h-.6l-.8-2.3H157l-.8 2.3h-.6l-.2-.8c0-.3-.1-.6-.1-.9 0-.3 0-.6-.1-.8-.1-.3 0-.5 0-.7h1.3c.3-.5.6-1 .7-1.5.2-.6.4-1.3.6-1.9.2-.7.3-1.5.3-2.2.1-.8.1-1.5.1-2.3-.3-.1-.5-.1-.8-.2-.3-.1-.5-.2-.7-.3v-.5h8.1v.5c-.4.2-.7.3-1.1.4v8l1.7.1Zm-3.7 0v-8.1h-2.3c0 1.1-.1 2.1-.3 2.9-.1.8-.2 1.5-.4 2.3l-.5 1.7c-.1.4-.3.8-.5 1.1l4 .1Z"/><path fill="url(#b)" d="m173.5 99.7-.6-.2c-.2-.1-.3-.2-.5-.3v-.5h3.4v.5c-.1.1-.3.2-.4.2-.2.1-.4.2-.6.2l-2.7 6.1c-.3.9-.8 1.6-1.4 2.3-.4.5-1 .7-1.6.6-.1-.1-.2-.2-.2-.3-.1-.2-.2-.3-.2-.5-.1-.2-.1-.3-.2-.5 0-.1-.1-.3-.1-.4l.4-.6 1.7.5c.1-.1.2-.2.2-.3.1-.1.1-.3.2-.4l-3.7-6.4-.5-.2c-.2-.1-.3-.2-.5-.3v-.5h4.4v.5c-.3.2-.7.3-1.1.4l2 3.9.3.9.3-.9 1.4-3.8Zm15.8 9h-4.2v-.6c.2-.1.4-.2.6-.2l.6-.2v-5.9l.1-1.6h-.1l-.5 1.5-2.7 7h-.6l-2.7-7-.5-1.6h-.2v7.6c.2 0 .4.1.6.2l.6.3v.6h-3.5v-.7l.6-.3c.2-.1.4-.2.6-.2v-7.9c-.2 0-.4-.1-.6-.2-.2 0-.4-.1-.5-.3v-.5h3.9l2.2 5.8.4 1.3.4-1.4 2.2-5.7h3.5v.5l-.5.3c-.2.1-.4.1-.6.2v8c.2 0 .4.1.6.2l.5.2-.2.6Zm4.5 0h-3.5v-.6l.5-.3c.2-.1.3-.1.5-.2l3.6-9.1h1l3.5 9.1c.2 0 .4.1.6.2l.5.3v.6h-4.4v-.6l.6-.3c.2-.1.4-.1.6-.2l-.8-2.2h-3.1l-.8 2.2c.5.1.9.2 1.3.4v.6l-.1.1Zm-.1-4.2h2.5l-.9-2.7-.3-1.2-.3 1.3-1 2.6ZM3.4 118.4c.4 0 .7.1 1 .1.3.1.6.2.8.4.2.2.4.4.6.7.1.3.2.7.2 1 0 .4-.1.7-.2 1-.1.3-.3.5-.6.7-.3.2-.5.3-.8.4-.3.1-.7.1-1 .1v.8h-.7v-.8c-.4 0-.7-.1-1-.1-.3-.1-.6-.2-.8-.4-.2-.1-.4-.4-.6-.6-.1-.3-.2-.7-.2-1 0-.4.1-.7.2-1 .1-.3.3-.5.6-.7.3-.2.5-.3.8-.4.3-.1.7-.1 1-.1v-.9h.7v.8Zm-.7.6c-.3 0-.5 0-.7.1-.2.1-.4.1-.6.3-.2.1-.3.3-.4.5-.1.3-.2.5-.2.8 0 .3 0 .5.1.8.1.2.2.4.4.5l.6.3c.3 0 .5.1.8.1V119Zm.7 3.3c.3 0 .5 0 .7-.1.2-.1.4-.1.6-.3.2-.1.3-.3.4-.5.1-.3.2-.5.2-.8 0-.3 0-.5-.1-.8-.1-.2-.2-.4-.4-.5l-.6-.3c-.3-.1-.5-.1-.8-.1v3.4Zm5.7 1.4c-.6 0-1.1-.2-1.5-.6-.2-.2-.3-.4-.4-.7-.1-.3-.2-.6-.2-.9 0-.3 0-.6.1-.9.1-.3.2-.5.4-.7.2-.2.4-.3.7-.5.5-.2 1.1-.2 1.6 0 .2.1.5.2.6.4.2.2.4.4.4.7.1.3.2.7.2 1v.2H7.8c0 .4.1.8.4 1.1.3.3.7.4 1 .4.7 0 1.1-.3 1.2-.7h.6c0 .4-.3.8-.6 1-.5.2-.9.3-1.3.2Zm1.2-2.7c0-.4-.1-.7-.4-1-.3-.2-.6-.3-.9-.3-.3 0-.6.1-.9.3-.2.3-.4.6-.4.9h2.6v.1Zm1.8 3.7h-.5v-1.6h.3c.1 0 .1 0 .2-.1s.1-.2.1-.2c0-.1.1-.2.1-.4v-.4c0-.3 0-.6.1-.8.1-.3.1-.6.1-.8v-.9h3v3.8h.6v1.6h-.6v-1.1h-3.3l-.1.9Zm.9-2.8c0 .2-.1.4-.1.7 0 .2-.1.3-.2.5h2.1v-3.2h-1.6v1.6c0 .1-.2.3-.2.4Zm5.8 1.8c-.3 0-.6-.1-.8-.2-.2-.1-.5-.2-.7-.4-.2-.2-.3-.4-.5-.7-.1-.3-.2-.6-.2-.9 0-.3 0-.6.1-.9.1-.3.2-.5.4-.7.2-.2.4-.3.7-.5.3-.1.5-.2.8-.2.3 0 .5 0 .7.1.2.1.4.2.6.4.2.2.4.4.5.6.1.3.2.7.2 1v.3h-3.2c0 .4.1.8.4 1.1.3.3.7.4 1 .4.7 0 1.1-.3 1.2-.7h.7c-.1.4-.3.8-.6 1-.4.2-.8.3-1.3.3ZM20 121c0-.4-.1-.7-.4-1-.2-.2-.6-.3-.9-.3-.3 0-.6.1-.9.3-.2.3-.4.6-.4.9H20v.1Zm1.9-1.8h.7v.7l.3-.3c.1-.1.2-.2.3-.2l.4-.2h.5c.3 0 .5 0 .8.1.2.1.5.2.6.4.2.2.3.4.4.7.1.3.2.6.1.9 0 .3 0 .6-.1.9-.1.3-.2.5-.4.7-.4.4-.9.6-1.5.6-.3 0-.6-.1-.9-.3-.2-.1-.4-.3-.6-.5v2.2h-.7v-5.7h.1Zm2.1 3.9c.4 0 .7-.1 1-.4.3-.4.4-.8.4-1.3 0-.2 0-.5-.1-.7-.1-.2-.2-.4-.3-.5-.1-.1-.3-.2-.5-.3-.2-.1-.3-.1-.5-.1s-.4 0-.6.1c-.2.1-.3.2-.5.3-.1.1-.2.3-.3.5-.1.2-.1.5-.1.7 0 .2 0 .5.1.7.1.2.2.4.3.5.1.1.3.2.5.3.2.1.4.2.6.2Zm4.3.6c-.2 0-.4 0-.6-.1-.2 0-.3-.1-.5-.2-.1-.1-.2-.2-.3-.4-.1-.2-.1-.4-.1-.6 0-.2.1-.5.2-.6.1-.2.3-.3.5-.4.2-.1.5-.2.7-.2.3-.1.5-.1.8-.1h.6v-.3c0-.3-.1-.5-.2-.7-.2-.2-.5-.3-.7-.2-.6 0-.9.3-1 .8H27c0-.2.1-.4.2-.6.1-.2.2-.3.4-.4.2-.1.3-.2.5-.3.2-.1.4-.1.6-.1.2 0 .4 0 .6.1.2.1.4.1.5.3.2.1.3.3.4.5.1.2.1.5.1.8v2.9h-.6v-.8c-.2.2-.3.3-.6.5-.2 0-.5.1-.8.1Zm0-.5c.2 0 .4 0 .5-.1.1 0 .3-.1.4-.2l.3-.3c.1-.1.1-.3.1-.4v-.6h-1.2c-.2 0-.3.1-.5.1l-.3.3c-.1.1-.1.3-.1.4 0 .2.1.4.2.5.2.2.4.3.6.3Zm4.3-1.3c0 .4-.1.9-.3 1.3-.2.3-.5.5-.8.4h-.2v-.7h.2c.1 0 .2 0 .2-.1.1-.1.1-.2.1-.2 0-.1 0-.2.1-.4s0-.3 0-.4c0-.3.1-.6.1-.8v-1.8h2.9v4.4h-.7v-3.8h-1.5v1.7s-.1.2-.1.4Zm3.8-2.7h.7v1.5h.8c.2 0 .4 0 .7.1.2 0 .4.1.5.2l.4.4c.1.2.1.4.1.7 0 .2 0 .4-.1.7-.1.2-.2.3-.4.4-.2.1-.3.2-.5.2-.2.1-.4.1-.7.1h-1.5v-4.3Zm1.5 3.9c.3 0 .5-.1.7-.2.2-.2.2-.4.2-.6 0-.2-.1-.5-.2-.7-.2-.2-.5-.2-.7-.2h-.8v1.8l.8-.1Zm5.5-1.4h-2.2v1.9h-.7v-4.4h.7v1.8h2.1v-1.8h.7v4.4h-.7l.1-1.9Zm3.9 2c-.3 0-.6-.1-.8-.2-.5-.2-.9-.6-1.1-1.2-.1-.3-.2-.6-.2-.9 0-.3.1-.6.2-.9.1-.3.2-.5.4-.7.2-.2.4-.4.7-.5.3-.1.6-.2.8-.2.3 0 .6.1.8.2.3.1.5.3.7.5.2.2.3.5.4.7.2.6.2 1.2 0 1.8-.1.3-.3.5-.5.7-.2.2-.4.4-.7.5-.1.2-.4.2-.7.2Zm0-.6c.2 0 .4 0 .6-.1.2-.1.3-.2.4-.3.1-.2.2-.3.3-.5.1-.2.1-.4.1-.7 0-.2 0-.5-.1-.7-.2-.6-.7-1-1.4-1-.2 0-.4 0-.6.1-.2.1-.3.2-.5.3-.1.2-.2.3-.3.5-.1.2-.1.5-.1.7 0 .4.1.9.4 1.2.5.4.9.5 1.2.5Zm4-3.3v3.8h-.7v-4.4h2.8v.6h-2.1Zm4.8 3.9c-.3 0-.6-.1-.8-.2-.3-.1-.5-.3-.7-.5-.2-.2-.3-.5-.4-.7-.1-.3-.2-.6-.2-.9 0-.3.1-.6.2-.9.2-.5.6-1 1.1-1.2.3-.1.6-.2.8-.2.3 0 .6.1.8.2.3.1.5.3.7.5.2.2.3.5.5.7.1.3.2.6.2.9 0 .3 0 .6-.2.9-.1.3-.3.5-.5.7-.2.2-.4.4-.7.5-.2.1-.5.2-.8.2Zm0-.6c.2 0 .4 0 .6-.1.2-.1.3-.2.4-.3.1-.2.2-.3.3-.5.1-.2.1-.4.1-.7 0-.2 0-.5-.1-.7-.1-.2-.2-.4-.3-.5-.1-.1-.3-.2-.4-.3-.2-.1-.4-.1-.6-.1-.2 0-.4 0-.6.1-.2.1-.3.2-.5.3-.1.2-.2.3-.3.5-.1.2-.1.5-.1.7 0 .4.1.9.4 1.2.4.3.7.4 1.1.4Zm8 .6c-.4 0-.8-.1-1.2-.2-.3-.1-.6-.3-.9-.6-.3-.3-.5-.6-.6-1-.1-.4-.2-.9-.2-1.3s.1-.9.2-1.3.3-.7.6-1c.3-.3.6-.4.9-.6.4-.1.7-.2 1.1-.2.3 0 .6.1.9.1.3.1.5.2.7.4l.6.6c.1.3.2.6.2.8h-.7c0-.4-.2-.8-.5-1-.3-.3-.8-.4-1.2-.4-.3 0-.6.1-.8.2-.3.1-.5.3-.7.5-.2.2-.3.5-.4.8-.1.3-.1.7-.1 1 0 .3 0 .7.1 1 .1.3.2.5.4.8.2.2.4.4.7.5.3.1.6.2.9.2.4 0 .9-.1 1.2-.4.3-.3.6-.7.6-1.1h.7c-.1.6-.3 1.2-.8 1.5-.4.5-1 .7-1.7.7Z"/><path fill="url(#c)" d="M69.6 123.699c-.3 0-.6-.1-.8-.2-.5-.2-.9-.6-1.1-1.2-.1-.3-.2-.6-.2-.9 0-.3.1-.6.2-.9.1-.3.2-.5.4-.7.2-.2.4-.4.7-.5.3-.1.6-.2.8-.2.3 0 .6.1.8.2.3.1.5.3.7.5.2.2.3.5.4.7.2.6.2 1.2 0 1.8-.1.3-.2.5-.4.7-.2.2-.4.4-.7.5-.2.2-.5.2-.8.2Zm0-.6c.2 0 .4 0 .6-.1.2-.1.3-.2.5-.3.1-.2.2-.3.3-.5.1-.2.1-.4.1-.7 0-.2 0-.5-.1-.7-.1-.4-.4-.7-.7-.8-.4-.2-.8-.2-1.2 0-.2.1-.3.2-.5.3-.1.2-.2.3-.3.5-.1.2-.1.5-.1.7 0 .4.1.9.4 1.2.2.3.6.4 1 .4Zm5.2.6c-.3 0-.6-.1-.8-.1-.3-.1-.5-.3-.7-.5-.2-.2-.4-.5-.4-.8-.1-.4-.2-.8-.2-1.1v-.3c0-.4 0-.9.1-1.3 0-.4.2-.8.4-1.2.2-.3.4-.6.7-.8.4-.2.8-.4 1.3-.3h.9c.2 0 .4-.1.5-.1l.1.6c-.2.1-.4.1-.6.2h-.9c-.3 0-.6.1-.9.2-.2.1-.4.3-.6.5-.1.2-.3.5-.3.8-.1.3-.1.7-.1 1.1.1-.3.4-.6.7-.7.3-.2.7-.3 1-.3.3 0 .6.1.8.2.2.1.5.2.6.4.2.2.3.4.4.7.1.3.1.6.1.8 0 .3-.1.6-.2.9-.1.3-.2.5-.4.7-.2.2-.4.3-.7.4h-.8Zm0-.6c.4 0 .8-.1 1-.4.3-.3.4-.8.4-1.2 0-.4-.1-.8-.3-1.1-.2-.3-.6-.4-1-.4s-.8.1-1.1.4c-.3.3-.4.7-.4 1.2 0 .4.1.8.4 1.1.3.3.7.4 1 .4Zm3.3-3.9h.7v.7c.1-.1.1-.2.2-.3.1-.1.2-.2.4-.2l.4-.2h.5c.3 0 .5 0 .8.1.2.1.5.2.6.4.2.2.3.4.4.7.1.3.2.6.1.9 0 .3-.1.6-.1.9-.1.3-.2.5-.4.7-.4.4-.9.6-1.5.6-.3 0-.6-.1-.9-.3-.2-.1-.4-.3-.6-.5v2.2H78l.1-5.7Zm2.1 3.9c.4 0 .7-.1 1-.4.3-.4.4-.8.3-1.3 0-.2 0-.5-.1-.7-.1-.2-.2-.4-.3-.5-.1-.1-.3-.2-.5-.3-.2-.1-.3-.1-.5-.1s-.4 0-.6.1c-.2.1-.3.2-.5.3-.1.1-.2.3-.3.5-.1.2-.1.5-.1.7 0 .2 0 .5.1.7.1.2.2.4.3.5.1.1.3.2.5.3.3.2.5.2.7.2Zm4.4.6c-.2 0-.4 0-.6-.1-.2 0-.3-.1-.5-.2-.1-.1-.3-.2-.3-.4-.1-.2-.1-.4-.1-.6 0-.2.1-.5.2-.6.1-.2.3-.3.5-.4.2-.1.5-.2.7-.2.3-.1.5-.1.8-.1h.6v-.3c0-.3-.1-.5-.2-.7-.2-.2-.5-.3-.7-.2-.6 0-.9.3-1 .8h-.7c0-.2.1-.4.2-.6.1-.2.2-.3.4-.4l.6-.3c.2-.1.4-.1.6-.1.2 0 .4 0 .6.1.2.1.4.1.5.3.2.1.3.3.4.5.1.2.1.5.1.8v2.9H86v-.8c-.1.2-.3.4-.5.5-.3.1-.6.1-.9.1Zm.1-.5c.2 0 .3 0 .5-.1.1 0 .3-.1.4-.2l.3-.3c.1-.1.1-.3.1-.4v-.6h-1.2c-.2 0-.3.1-.5.1l-.3.3c-.1.1-.1.3-.1.4 0 .2.1.4.2.5.1.2.3.3.6.3Zm6.1-1.5h-2.1v1.9H88v-4.4h.7v1.8h2.1v-1.9h.7v4.4h-.7v-1.8Zm2.1 1.9v-4.4h.7v3.4l2.2-3.4h.7v4.4h-.7v-3.3l-2.2 3.4-.7-.1Zm5.3 0h-.8l1.3-1.8-.3-.1c-.1-.1-.2-.1-.3-.2-.2-.2-.3-.5-.3-.8 0-.2 0-.4.1-.6.1-.2.2-.3.4-.4.2-.1.3-.2.5-.2.2-.1.4-.1.7-.1h1.5v4.4h-.7v-1.8h-.7l-1.4 1.6Zm1.2-3.8c-.3 0-.5.1-.7.2-.2.2-.2.4-.2.6 0 .2.1.4.2.6.2.2.5.2.7.2h.8v-1.5l-.8-.1Zm5.3-2.1h1.7c.3 0 .5 0 .8.1.2.1.5.2.7.3.2.1.3.3.4.5.1.2.2.5.2.8 0 .3 0 .6-.2.8-.1.2-.3.4-.4.6-.2.1-.4.2-.7.3-.3.1-.5.1-.8.1h-1v2.4h-.7v-5.9Zm1.7 2.9c.4 0 .7-.1 1-.3.2-.2.4-.5.3-.9 0-.3-.1-.7-.4-.9-.3-.2-.6-.3-1-.3h-1v2.4h1.1Zm4.8 3.1c-.3 0-.6-.1-.8-.2-.3-.1-.5-.3-.7-.5-.2-.2-.3-.5-.4-.7-.1-.3-.2-.6-.2-.9 0-.3.1-.6.2-.9.1-.3.2-.5.4-.7.2-.2.4-.4.7-.5.3-.1.6-.2.8-.2.3 0 .6.1.8.2.5.2.9.6 1.1 1.2.1.3.2.6.2.9 0 .3-.1.6-.2.9-.1.3-.2.5-.5.7-.2.2-.4.4-.7.5-.1.2-.4.2-.7.2Zm0-.6c.2 0 .4 0 .6-.1.2-.1.3-.2.4-.3.1-.2.2-.3.3-.5.1-.2.1-.4.1-.7 0-.2 0-.5-.1-.7-.2-.6-.7-1-1.3-1-.2 0-.4 0-.6.1-.2.1-.3.2-.4.3-.1.2-.2.3-.3.5-.1.2-.1.5-.1.7 0 .4.1.9.4 1.2.3.4.7.5 1 .5Zm5.2.6c-.3 0-.6-.1-.8-.2-.3-.1-.5-.3-.7-.4-.2-.2-.3-.4-.4-.7-.1-.3-.2-.6-.2-.9 0-.3.1-.6.2-.9.1-.3.3-.5.5-.7.4-.4.9-.6 1.5-.6.2 0 .4 0 .7.1.2 0 .4.1.6.3.2.1.3.3.4.5.1.2.2.5.2.7h-.7c0-.3-.2-.6-.4-.7-.2-.1-.5-.2-.8-.2-.2 0-.4 0-.5.1-.2.1-.3.2-.5.3-.1.1-.2.3-.3.5-.1.2-.1.5-.1.7 0 .4.1.9.4 1.2.3.3.7.4 1 .4h.4c.1 0 .3-.1.4-.2l.3-.3c.1-.1.1-.3.1-.5h.6c0 .2-.1.5-.2.7-.1.2-.2.4-.4.5-.2.1-.4.3-.6.4-.2-.1-.5-.1-.7-.1Zm4.9 0c-.3 0-.6-.1-.8-.2-.3-.1-.5-.3-.7-.4-.2-.2-.3-.4-.4-.7-.1-.3-.2-.6-.2-.9 0-.3.1-.6.2-.9.3-.8 1.1-1.3 2-1.4.2 0 .5 0 .7.1.2 0 .4.1.6.3.2.1.3.3.4.5.1.2.2.5.2.7h-.7c0-.3-.2-.6-.4-.7-.2-.1-.5-.2-.8-.2-.4 0-.7.2-1 .4-.1.1-.2.3-.3.5-.1.2-.1.5-.1.7 0 .4.1.9.4 1.2.3.3.7.4 1 .4h.4c.1 0 .3-.1.4-.2l.3-.3c.1-.1.1-.3.1-.5h.6c0 .2-.1.5-.2.7-.1.2-.2.4-.4.5-.2.1-.4.3-.6.4h-.7Z"/><path fill="url(#d)" d="M124.3 123.599v-4.4h.7v3.4l2.3-3.4h.7v4.4h-.7v-3.3l-2.3 3.4-.7-.1Z"/><path fill="url(#e)" d="M129.2 123.6v-4.4h.7v3.4l2.2-3.4h.7v4.4h-.7v-3.3l-2.2 3.4-.7-.1Zm1.8-5.1c-.1 0-.3 0-.4-.1-.1-.1-.3-.1-.4-.2l-.3-.3c-.1-.1-.1-.3-.1-.4h.6c0 .2.1.3.1.4.1.1.2.2.4.2s.3-.1.4-.2c.1-.1.1-.3.2-.4h.6c0 .2 0 .3-.1.4-.1.1-.1.3-.2.4-.1.1-.2.2-.4.2-.1-.1-.2-.1-.4 0Zm5.1 5.2c-.3 0-.6-.1-.8-.2-.3-.1-.5-.3-.7-.4-.2-.2-.3-.4-.4-.7-.1-.3-.2-.6-.2-.9 0-.3.1-.6.2-.9.1-.3.3-.5.5-.7.4-.4.9-.6 1.5-.6.2 0 .4 0 .7.1.2 0 .4.1.6.3.4.3.6.7.7 1.2h-.7c0-.3-.2-.6-.4-.7-.2-.1-.5-.2-.8-.2-.2 0-.4 0-.6.1-.2.1-.3.2-.4.3-.1.1-.2.3-.3.5-.1.2-.1.5-.1.7 0 .4.1.9.4 1.2.3.3.7.4 1 .4h.4c.1 0 .3-.1.4-.2l.3-.3c.1-.1.1-.3.1-.5h.6c0 .2-.1.5-.2.7-.1.2-.2.4-.4.5-.2.1-.4.3-.6.4-.3-.1-.5-.1-.8-.1Zm3.7-2.3v2.2h-.7v-4.4h.7v2l1.8-2h.8l-1.9 2.1 2 2.3h-.8l-1.9-2.2Zm5.3 2.3c-.3 0-.6-.1-.8-.2-.3-.1-.5-.3-.7-.5-.2-.2-.3-.5-.4-.7-.1-.3-.2-.6-.2-.9 0-.3.1-.6.2-.9.1-.3.2-.5.4-.7.2-.2.4-.4.7-.5.3-.1.6-.2.8-.2.3 0 .6.1.8.2.5.2.9.6 1.1 1.2.1.3.2.6.2.9 0 .3-.1.6-.2.9-.2.5-.6 1-1.1 1.2-.2.2-.5.2-.8.2Zm0-.6c.2 0 .4 0 .6-.1.2-.1.3-.2.4-.3.1-.2.2-.3.3-.5.1-.2.1-.4.1-.7 0-.2 0-.5-.1-.7-.2-.6-.7-1-1.3-1-.2 0-.4 0-.6.1-.2.1-.3.2-.4.3-.1.2-.2.3-.3.5-.1.2-.1.5-.1.7 0 .4.1.9.4 1.2.2.4.6.5 1 .5Zm3.2.5v-4.4h.7v3.4l2.3-3.4h.6v4.4h-.7v-3.3l-2.3 3.4-.6-.1Zm1.8-5.1c-.1 0-.3 0-.4-.1-.1-.1-.3-.1-.4-.2-.1-.1-.2-.2-.2-.4-.1-.1-.1-.3-.1-.4h.6c0 .2 0 .3.1.4.1.1.2.2.4.2s.3-.1.4-.2c.1-.1.1-.3.2-.4h.6c0 .2 0 .3-.1.4-.1.1-.1.3-.3.4-.1.1-.2.2-.3.2-.2 0-.3.1-.5.1Zm8.5-.1c.4 0 .7.1 1 .1.3.1.6.2.8.4.2.2.4.4.6.7.1.3.2.7.2 1 0 .4-.1.7-.2 1-.1.3-.3.5-.6.7-.3.2-.5.3-.8.4-.3.1-.7.1-1 .1v.8h-.7v-.8c-.4 0-.7-.1-1-.1-.3-.1-.6-.2-.9-.4-.2-.2-.4-.4-.6-.7-.1-.3-.2-.7-.2-1 0-.4.1-.7.2-1 .1-.3.3-.5.6-.7.3-.2.5-.3.8-.4.3-.1.7-.1 1-.1v-.8h.7v.8h.1Zm-.7.6c-.3 0-.5 0-.7.1-.2.1-.4.1-.6.3-.2.1-.3.3-.4.5-.1.3-.2.5-.2.8 0 .3 0 .5.1.8.1.2.2.4.4.5l.6.3c.3 0 .5.1.8.1V119Zm.7 3.3c.3 0 .5 0 .7-.1.2-.1.4-.1.6-.3.2-.1.3-.3.4-.5.1-.3.2-.5.2-.8 0-.3 0-.5-.1-.8-.1-.2-.2-.4-.4-.5l-.6-.3c-.3-.1-.5-.1-.8-.1v3.4Zm5.7 1.4c-.3 0-.6-.1-.8-.2-.2-.1-.5-.2-.7-.4-.2-.2-.3-.4-.4-.7-.1-.3-.2-.6-.2-.9 0-.3 0-.6.1-.9.1-.3.2-.5.4-.7.2-.2.4-.3.7-.5.5-.2 1.1-.2 1.6 0 .2.1.4.2.6.4.2.2.4.4.4.7.1.3.2.7.2 1v.1h-3.3c0 .4.1.8.4 1.1.3.3.7.4 1 .4.7 0 1.1-.3 1.2-.7h.7c0 .4-.3.8-.6 1-.5.2-.9.3-1.3.3Zm1.1-2.7c0-.4-.1-.7-.4-1-.2-.2-.6-.3-.9-.3-.3 0-.6.1-.9.3-.2.3-.4.6-.4.9h2.6v.1Zm2 3.7h-.6v-1.6h.3c.1 0 .2-.1.2-.1.1-.1.1-.2.1-.2 0-.1 0-.2.1-.4v-.4c0-.3 0-.6.1-.8.1-.3 0-.6 0-.8 0-.2 0-.6.1-.9h2.9v3.8h.6v1.6h-.5v-1.1h-3.3v.9Zm.8-2.7c0 .2-.1.4-.1.7 0 .2-.1.3-.2.5h2V120h-1.6v1.6s-.1.2-.1.4Zm5.8 1.7c-.3 0-.6-.1-.8-.2-.2-.1-.5-.2-.7-.4-.2-.2-.3-.4-.4-.7-.1-.3-.2-.6-.2-.9 0-.3.1-.6.1-.9.1-.3.2-.5.4-.7.2-.2.4-.3.7-.5.3-.1.5-.2.8-.2.3 0 .5 0 .7.1.2.1.4.2.6.4.2.2.3.4.4.7.1.3.2.7.2 1v.2h-3.3c0 .4.1.8.4 1.1.3.3.7.4 1 .4.7 0 1.1-.3 1.2-.7h.7c0 .4-.3.8-.6 1-.3.2-.8.3-1.2.3Zm1.2-2.7c0-.4-.1-.7-.4-1-.2-.2-.6-.3-.9-.3-.3 0-.6.1-.9.3-.2.3-.4.6-.4.9h2.6v.1Zm1.8-1.7h.6v.7c.1-.1.1-.2.2-.3.1-.1.2-.2.4-.2l.4-.2h.5c.3 0 .5 0 .8.1.2.1.5.2.6.4.2.2.3.4.4.7.1.3.2.6.1.9 0 .3-.1.6-.1.9-.1.3-.2.5-.4.7-.2.2-.4.3-.6.5-.3.1-.5.2-.8.2-.3 0-.6-.1-.9-.3-.2-.1-.4-.3-.6-.5v2.2h-.6v-5.8Zm2.1 3.8c.4 0 .7-.1 1-.4.3-.4.4-.8.3-1.3 0-.2 0-.5-.1-.7-.1-.2-.2-.4-.3-.5-.1-.1-.3-.2-.4-.3-.2-.1-.3-.1-.5-.1s-.4 0-.6.1c-.4.1-.7.4-.8.8-.1.2-.1.5-.1.7 0 .2 0 .5.1.7.1.2.2.4.3.5.1.1.3.2.5.3.2.2.4.2.6.2Zm4.3.6c-.2 0-.4 0-.6-.1-.2 0-.3-.1-.5-.2-.1-.1-.3-.2-.3-.4-.1-.2-.1-.4-.1-.6 0-.2.1-.4.2-.6.1-.2.3-.3.5-.4.2-.1.5-.2.7-.2.3-.1.5-.1.8-.1h.6v-.3c0-.3-.1-.5-.2-.7-.2-.2-.5-.3-.7-.2-.6 0-.9.3-1 .8h-.7c0-.2.1-.4.2-.6.1-.2.2-.3.4-.4l.6-.3c.2-.1.4-.1.6-.1.2 0 .4 0 .6.1.2.1.4.1.5.3.2.1.3.3.4.5.1.2.1.5.1.8v2.9h-.7v-.8c-.1.2-.3.3-.5.5-.3.1-.6.1-.9.1Zm.1-.5c.2 0 .3 0 .5-.1.1 0 .3-.1.4-.2l.3-.3c.1-.1.1-.3.1-.4v-.6h-1.2c-.2 0-.3.1-.5.1l-.3.3c-.1.1-.1.3-.1.4 0 .2.1.4.2.5.2.2.4.3.6.3Zm7 1.5v-1.1H187v-4.4h.7v3.7h2.1v-3.7h.7v3.7h.6v1.6h-.6v.2Z"/><path fill="url(#f)" d="M191.9 123.599v-4.4h.7v3.4l2.3-3.4h.7v4.4h-.7v-3.3l-2.3 3.4-.7-.1Z"/><path fill="url(#g)" d="M197 123.599v-4.4h.7v3.4l2.3-3.4h.7v4.4h-.7v-3.3l-2.3 3.4-.7-.1Z"/><path fill="url(#h)" d="M142.1 79.1V38.6h-11.9v2.3h-9.8v2.5h-6.7v-4.8h-9.8v-2.4h-3.3v-2.3l4.6-1.5V29l-4.6 1.5h-.6v5.7h-3.3v2.4h-9.5v4.8h-7V41h-9.6v-2.4h-12v40.6h-2.4v2.4h88.2v-2.5h-2.3ZM61 74.3h7.2v2.4h-7.3l.1-2.4Zm7.1-2.4h-2.5V45.7H68l.1 26.2Zm64.5 0V45.7h2.4V72l-2.4-.1Zm-2.4 4.8h-2.4V48.1h2.4v28.6ZM80 69.5h2.4v7.2H80v-7.2Zm4.8 0h2.4v7.2h-2.4v-7.2Zm4.7-21.4h2.4v28.7h-2.4V48.1Zm4.9 21.5h2.4v7.2h-2.4v-7.2Zm7.1-21.6v19.1h-2.4v-19l2.4-.1Zm2.4 21.6h2.4v7.2h-2.4v-7.2Zm4.7-21.5h2.4v28.7h-2.4V48.1Zm4.8 21.5h2.4v7.2h-2.4v-7.2Zm4.8 0h2.4v7.2h-2.4v-7.2Zm4.8-21.5h2.4v28.7H123V48.1Zm-2.4 19.1h-2.4V48.1h2.4v19.1Zm-4.7 0h-2.4V48.1h2.4v19.1Zm-9.6 0h-2.4V48.1h2.4v19.1Zm-9.6 0h-2.3V48.1h2.4l-.1 19.1Zm-9.6 0h-2.4V48.1h2.4v19.1Zm-4.7 0H80V48.1h2.4v19.1Zm-4.8-19.1v28.6h-2.3V48.1h2.3Zm54.9 28.7v-2.4h7.2v2.4h-7.2Zm7.2-4.8h-2.4V45.7h2.4V72ZM72.9 48.1v28.7h-2.4V48.1h2.4Zm-9.6-2.4v26.2h-2.4V45.7h2.4Z"/><defs><linearGradient id="a" x1="-.718" x2="202.59" y1="104.744" y2="104.744" gradientUnits="userSpaceOnUse"><stop stop-color="#1C8AE2"/><stop offset=".486" stop-color="#8B00B3"/><stop offset="1" stop-color="#6900B5"/></linearGradient><linearGradient id="b" x1="-.718" x2="202.589" y1="111.849" y2="111.849" gradientUnits="userSpaceOnUse"><stop stop-color="#1C8AE2"/><stop offset=".486" stop-color="#8B00B3"/><stop offset="1" stop-color="#6900B5"/></linearGradient><linearGradient id="c" x1="-.718" x2="202.59" y1="121.137" y2="121.137" gradientUnits="userSpaceOnUse"><stop stop-color="#1C8AE2"/><stop offset=".486" stop-color="#8B00B3"/><stop offset="1" stop-color="#6900B5"/></linearGradient><linearGradient id="d" x1="-.719" x2="202.59" y1="121.433" y2="121.433" gradientUnits="userSpaceOnUse"><stop stop-color="#1C8AE2"/><stop offset=".486" stop-color="#8B00B3"/><stop offset="1" stop-color="#6900B5"/></linearGradient><linearGradient id="e" x1="-.718" x2="202.59" y1="121.26" y2="121.26" gradientUnits="userSpaceOnUse"><stop stop-color="#1C8AE2"/><stop offset=".486" stop-color="#8B00B3"/><stop offset="1" stop-color="#6900B5"/></linearGradient><linearGradient id="f" x1="-.718" x2="202.59" y1="121.433" y2="121.433" gradientUnits="userSpaceOnUse"><stop stop-color="#1C8AE2"/><stop offset=".486" stop-color="#8B00B3"/><stop offset="1" stop-color="#6900B5"/></linearGradient><linearGradient id="g" x1="-.717" x2="202.59" y1="121.433" y2="121.433" gradientUnits="userSpaceOnUse"><stop stop-color="#1C8AE2"/><stop offset=".486" stop-color="#8B00B3"/><stop offset="1" stop-color="#6900B5"/></linearGradient><linearGradient id="h" x1="-.718" x2="202.59" y1="55.315" y2="55.315" gradientUnits="userSpaceOnUse"><stop stop-color="#1C8AE2"/><stop offset=".486" stop-color="#8B00B3"/><stop offset="1" stop-color="#6900B5"/></linearGradient></defs></svg>