<svg width="201" height="155" viewBox="0 0 201 155" fill="none" xmlns="http://www.w3.org/2000/svg">
<g clip-path="url(#clip0_1407_2495)">
<path fill-rule="evenodd" clip-rule="evenodd" d="M134.544 40H135.544C136.944 40.2 138.144 41.2 138.544 42.5C138.944 43.6 138.744 44.9 138.044 45.8C137.244 47 135.844 47.6 134.444 47.3C133.244 47.1 132.144 46.3 131.644 45.2C131.044 43.9 131.244 42.3 132.144 41.2C132.844 40.6 133.644 40.1 134.544 40ZM165.444 42.2C167.444 41.9 169.544 41.5 171.544 41.2C171.544 44 171.544 46.8 171.544 49.6C171.544 50.4 171.544 51.2 171.444 52C173.044 50.3 175.244 49.3 177.544 49.3C179.244 49.2 181.144 49.6 182.544 50.7C183.944 51.8 184.444 53.8 184.444 55.5C184.444 61.2 184.444 66.9 184.444 72.6C182.444 72.6 180.544 72.6 178.644 72.6C178.644 67.7 178.644 62.8 178.644 57.9C178.644 57 178.644 56 178.144 55.2C177.744 54.7 177.144 54.4 176.444 54.4C175.044 54.4 173.544 54.9 172.544 56C171.544 57.1 171.544 58.6 171.544 60C171.544 64.2 171.544 68.5 171.544 72.7C169.544 72.7 167.444 72.7 165.444 72.7C165.444 62.5 165.444 52.3 165.444 42.2ZM0.244396 41.8C8.2444 41.8 16.2444 41.8 24.2444 41.8C24.7444 42 25.0443 42.5 25.4443 42.8C29.1443 46.5 32.8444 50.2 36.6444 53.9C40.6444 49.9 44.7444 45.9 48.7444 41.9C56.7444 41.9 64.7444 41.9 72.8444 41.9C72.8444 50 72.8444 58 72.8444 66.1C70.3444 68.5 67.9443 71 65.4443 73.4C63.9443 74.9 62.4444 76.3 61.0444 77.8C60.9444 77.8 60.7444 77.8 60.6444 77.8C60.3444 77.4 59.9444 77.1 59.6444 76.8C54.2444 71.4 48.8443 66.1 43.4443 60.7C41.7443 59.1 40.1444 57.4 38.5444 55.8C37.9444 55.2 37.2444 54.5 36.6444 53.9C34.8444 55.6 33.1444 57.4 31.3444 59.1C25.4444 65 19.4444 70.8 13.5444 76.7C13.2444 77 12.9444 77.3 12.6444 77.6C12.5444 77.6 12.3444 77.6 12.2444 77.6C10.4444 75.6 8.44444 73.8 6.54444 71.9C4.54444 69.9 2.54444 67.9 0.544444 65.9C0.244444 65.6 0.344371 65.2 0.344371 64.8C0.244371 57.3 0.144396 49.5 0.244396 41.8ZM84.3444 72.6C84.3444 62.3 84.3444 52.1 84.3444 41.8C86.4444 41.8 88.5444 41.8 90.6444 41.8C90.6444 46.4 90.6444 51.1 90.6444 55.7C93.6444 51.1 96.4443 46.4 99.4443 41.8C101.944 41.8 104.344 41.8 106.844 41.8C103.644 46.5 100.444 51.2 97.2444 56C97.3444 56.4 97.6444 56.7 97.8444 57C101.244 62.2 104.644 67.4 107.944 72.6C105.344 72.6 102.644 72.6 100.044 72.6C98.2444 69.5 96.4444 66.4 94.6444 63.3C93.3444 61.1 92.1444 58.9 90.7444 56.7C90.7444 62 90.7444 67.3 90.7444 72.6C88.5444 72.6 86.4444 72.6 84.3444 72.6ZM189.744 44.6C191.744 44.3 193.744 44 195.744 43.6C195.744 45.7 195.744 47.8 195.744 49.8C197.544 49.8 199.344 49.8 201.044 49.8C200.544 51.2 200.044 52.6 199.444 54C198.144 54 196.944 54 195.644 54C195.644 57.9 195.644 61.8 195.644 65.7C195.644 66.5 195.644 67.3 196.044 68C196.344 68.5 196.944 68.9 197.544 68.9C198.544 69.1 199.444 68.7 200.444 68.5C200.644 69.7 200.944 70.8 201.244 72V72.2C199.744 72.7 198.244 73.2 196.644 73.2C194.744 73.3 192.744 72.8 191.244 71.5C190.144 70.5 189.744 69 189.744 67.6C189.744 63.1 189.744 58.6 189.744 54C188.944 54 188.144 54 187.444 54C187.444 52.6 187.444 51.2 187.444 49.8C188.244 49.8 188.944 49.8 189.744 49.8C189.744 48.1 189.844 46.4 189.744 44.6ZM114.944 52.5C116.344 50.8 118.444 49.7 120.644 49.5C122.744 49.2 125.044 49.8 126.444 51.4C127.444 52.4 127.544 53.9 127.544 55.3C127.544 61.1 127.544 66.8 127.544 72.6C125.544 72.6 123.644 72.6 121.744 72.6C121.744 67.9 121.744 63.3 121.744 58.6C121.744 57.6 121.744 56.6 121.444 55.6C121.244 55.1 120.844 54.6 120.244 54.5C118.844 54.3 117.444 54.9 116.544 56C115.844 56.9 115.644 58.2 115.644 59.4C115.644 63.8 115.644 68.2 115.644 72.5C113.644 72.5 111.644 72.5 109.644 72.5C109.644 65.1 109.644 57.7 109.644 50.3C111.344 50 113.044 49.7 114.744 49.5C114.744 50.5 114.844 51.5 114.944 52.5ZM132.044 50.4C134.044 50.1 136.044 49.8 138.044 49.4C138.044 57.1 138.044 64.9 138.044 72.6C136.044 72.6 134.044 72.6 132.044 72.6C132.044 65.2 132.044 57.8 132.044 50.4ZM144.244 52.6C145.644 50.7 147.944 49.6 150.344 49.5C152.544 49.3 154.644 50.2 156.144 51.8C156.244 51.2 156.444 50.7 156.544 50.1C158.044 49.9 159.544 49.6 161.044 49.4C161.144 57.1 160.944 64.7 161.044 72.4C161.044 74.4 160.944 76.6 160.044 78.4C159.144 80.2 157.244 81.2 155.344 81.7C152.344 82.5 149.044 82.4 146.144 81.5C144.844 81.1 143.544 80.5 142.344 80C142.744 78.6 143.344 77.2 143.744 75.8C146.044 76.9 148.544 77.8 151.144 77.7C152.144 77.7 153.344 77.6 154.144 76.9C154.744 76.5 155.044 75.8 155.144 75.1C155.444 73.7 155.244 72.2 155.344 70.8C154.244 72 152.744 72.7 151.144 72.9C148.744 73 146.144 72.3 144.444 70.4C142.244 68.1 141.644 64.9 141.644 61.8C141.644 58.6 142.244 55.2 144.244 52.6ZM150.544 54.6C149.644 55 149.044 55.8 148.744 56.7C148.144 58.4 148.244 60.3 148.244 62.1C148.244 63.4 148.344 64.8 148.744 66.1C149.044 67 149.744 67.8 150.644 68C151.844 68.3 153.244 68.4 154.144 67.5C155.144 66.6 155.344 65.2 155.344 64C155.344 61.2 155.344 58.5 155.344 55.7C154.144 54.5 152.244 54 150.544 54.6ZM12.1444 77.9C12.2444 77.9 12.4444 77.9 12.5444 77.9C13.0444 78.6 13.7444 79.2 14.3444 79.8C19.6444 85.1 24.9444 90.3 30.2444 95.6C32.3444 97.6 34.3443 99.7 36.4443 101.7C43.9443 94.2 51.4443 86.8 58.9443 79.3C59.4443 78.8 59.9444 78.4 60.3444 77.8C60.4444 77.8 60.6444 77.8 60.7444 77.8C61.1444 78.4 61.7444 78.9 62.2444 79.4C64.4444 81.6 66.7443 83.8 68.9443 86C70.0443 87.1 71.1444 88.3 72.3444 89.4C72.5444 89.5 72.5444 89.8 72.5444 90C72.5444 97.9 72.5444 105.9 72.5444 113.8C64.6444 113.8 56.7444 113.8 48.8444 113.8C48.3444 113.9 48.0444 113.3 47.7444 113.1C45.7444 111.1 43.7444 109.1 41.7444 107.1C39.9444 105.4 38.2444 103.5 36.3444 101.8C35.8444 102.2 35.3444 102.7 34.8444 103.2C32.5444 105.5 30.2443 107.8 27.9443 110C26.6443 111.3 25.4444 112.6 24.1444 113.8C16.1444 113.8 8.04444 113.8 0.0444444 113.8C-0.0555556 111 0.0444444 108.2 0.0444444 105.5C0.144444 102.7 0.0444444 99.8 0.0444444 97C0.0444444 94.8 0.0444444 92.7 0.0444444 90.5C0.0444444 90.2 -0.0556044 89.9 0.244396 89.7C3.8444 86.1 7.44444 82.6 11.0444 79C11.4444 78.7 11.8444 78.3 12.1444 77.9ZM161.744 83.6C163.744 83.3 165.744 83 167.744 82.6C167.744 88.6 167.744 94.7 167.744 100.7C169.744 97.5 171.644 94.3 173.544 91C175.944 91 178.444 91 180.844 91C178.444 94.2 175.944 97.3 173.544 100.5C176.544 104.9 179.544 109.3 182.544 113.7C180.144 113.7 177.844 113.7 175.444 113.7C173.744 110.8 171.944 107.9 170.244 105C169.444 103.7 168.644 102.3 167.744 101C167.744 105.2 167.744 109.5 167.744 113.7C165.744 113.7 163.744 113.7 161.744 113.7C161.744 103.8 161.744 93.7 161.744 83.6ZM84.2444 83C89.8444 83 95.4444 83 101.044 83C100.744 84.7 100.544 86.3 100.244 88C96.9444 88 93.6444 88 90.3444 88C90.3444 90.4 90.3444 92.8 90.3444 95.2C92.9444 95.2 95.6444 95.2 98.2444 95.2C98.2444 96.9 98.2444 98.6 98.2444 100.3C95.6444 100.3 92.9444 100.3 90.3444 100.3C90.3444 104.8 90.3444 109.4 90.3444 113.9C88.3444 113.9 86.2444 113.9 84.2444 113.9C84.2444 103.6 84.2444 93.3 84.2444 83ZM111.444 90.7C112.644 90.3 113.944 90.5 115.044 91C114.544 92.8 114.044 94.5 113.544 96.3C112.244 95.8 110.744 95.6 109.544 96.4C108.444 97 107.944 98.3 107.944 99.5C107.944 104.3 107.944 109.1 107.944 113.9C105.944 113.9 103.944 113.9 101.844 113.9C101.844 106.6 101.844 99.2 101.844 91.9C103.444 91.7 105.044 91.3 106.744 91.2C106.944 92.2 107.144 93.1 107.344 94.1C108.344 92.6 109.744 91.3 111.444 90.7ZM125.244 90.7C127.444 90.6 129.844 90.7 131.844 92C133.144 92.8 134.044 94.2 134.144 95.7C134.344 97.7 134.244 99.7 134.244 101.7C134.244 103.7 134.144 105.7 134.244 107.7C134.344 108.6 134.644 109.5 135.144 110.1C135.544 110.5 135.944 110.9 136.344 111.3C135.244 112.6 134.144 113.7 133.044 114.9H132.944C131.644 114.3 130.544 113.4 129.844 112.2C128.944 113.2 127.844 113.9 126.544 114.3C125.244 114.7 123.944 114.6 122.644 114.6C120.544 114.5 118.344 113.6 117.144 111.9C115.844 110 115.744 107.6 116.244 105.4C116.644 103.5 117.944 101.9 119.744 101.1C122.444 99.8 125.444 99.7 128.344 99.8C128.344 98.7 128.444 97.5 127.944 96.4C127.544 95.6 126.544 95.4 125.744 95.4C123.244 95.4 120.944 96.5 118.844 97.8C118.144 96.5 117.344 95.2 116.644 93.8C119.244 92.3 122.144 90.9 125.244 90.7ZM124.244 104.2C123.444 104.5 122.844 105.1 122.644 105.9C122.344 106.9 122.344 108.1 122.844 109C123.244 109.7 123.944 110.2 124.644 110.3C125.944 110.4 127.344 109.9 128.244 108.9C128.244 107.1 128.244 105.4 128.244 103.6C126.944 103.7 125.544 103.7 124.244 104.2ZM139.244 91.6C140.944 91.3 142.644 91 144.344 90.8C144.444 91.8 144.544 92.8 144.744 93.7C146.144 92.1 148.044 91 150.144 90.8C151.844 90.5 153.744 90.8 155.244 91.8C156.144 92.4 156.844 93.3 157.144 94.3C157.444 95.5 157.344 96.8 157.444 98.1C157.444 103.3 157.444 108.5 157.444 113.7C155.444 113.7 153.544 113.7 151.544 113.7C151.544 109.1 151.544 104.5 151.544 100C151.544 98.9 151.644 97.8 151.244 96.8C151.044 96.3 150.644 95.9 150.044 95.8C148.244 95.5 146.344 96.6 145.744 98.3C145.244 99.5 145.344 100.9 145.344 102.1C145.344 106 145.344 109.9 145.344 113.8C143.344 113.8 141.344 113.8 139.344 113.8C139.244 106.4 139.244 99 139.244 91.6Z" fill="url(#paint0_linear_1407_2495)"/>
</g>
<defs>
<linearGradient id="paint0_linear_1407_2495" x1="0.157144" y1="77.4608" x2="201.247" y2="77.4608" gradientUnits="userSpaceOnUse">
<stop stop-color="#1C8AE2"/>
<stop offset="0.4865" stop-color="#8B00B3"/>
<stop offset="1" stop-color="#6900B5"/>
</linearGradient>
<clipPath id="clip0_1407_2495">
<rect width="201" height="155" fill="white"/>
</clipPath>
</defs>
</svg>
