<?xml version="1.0" encoding="utf-8"?>
<!-- Generator: Adobe Illustrator 22.1.0, SVG Export Plug-In . SVG Version: 6.00 Build 0)  -->
<svg version="1.1" id="Слой_1" xmlns="http://www.w3.org/2000/svg" xmlns:xlink="http://www.w3.org/1999/xlink" x="0px" y="0px"
	 viewBox="0 0 1005.1 140.7" style="enable-background:new 0 0 1005.1 140.7;" xml:space="preserve">
<style type="text/css">
	.st0{fill:#FFFFFF;}
</style>
<g>
	<g id="XMLID_3201_">
		<g id="XMLID_3482_">
			<path id="XMLID_3529_" class="st0" d="M279.6,68.6c0.9,0.1,1.7,0.3,2.6,0.6c0.8,0.3,1.6,0.6,2.4,0.9v2h-16.9v-2
				c1.5-0.8,2.9-1.3,4.2-1.5V39.4c-0.7-0.1-1.4-0.3-2.1-0.6c-0.7-0.2-1.4-0.5-2.1-0.9v-2H294c0,0.8,0,1.8-0.1,2.8
				c0,1.1-0.1,2.2-0.2,3.3c-0.1,1.1-0.2,2.2-0.3,3.3c-0.1,1.1-0.3,2.1-0.4,2.9h-2.1l-3.2-9h-8.1V68.6z"/>
			<path id="XMLID_3526_" class="st0" d="M297.6,54c0-2.7,0.4-5.2,1.1-7.4c0.8-2.3,1.9-4.3,3.3-5.9c1.5-1.7,3.3-3,5.5-3.9
				c2.2-0.9,4.7-1.4,7.5-1.4c2.8,0,5.3,0.5,7.5,1.4c2.2,0.9,4,2.2,5.4,3.9c1.5,1.7,2.6,3.6,3.3,5.9c0.8,2.3,1.1,4.8,1.1,7.4
				c0,2.7-0.4,5.2-1.1,7.4c-0.8,2.3-1.9,4.3-3.3,5.9c-1.5,1.7-3.3,3-5.4,3.9c-2.2,0.9-4.7,1.4-7.5,1.4c-2.8,0-5.3-0.5-7.5-1.4
				c-2.2-0.9-4-2.2-5.5-3.9c-1.5-1.7-2.6-3.6-3.3-5.9C298,59.2,297.6,56.7,297.6,54z M306.4,54c0,2.2,0.2,4.2,0.5,6.1
				c0.3,1.9,0.9,3.5,1.6,4.8c0.7,1.4,1.7,2.4,2.8,3.2c1.2,0.8,2.5,1.2,4.1,1.2c1.5,0,2.7-0.4,3.8-1.2c1-0.8,1.9-1.8,2.5-3.2
				c0.7-1.4,1.1-3,1.4-4.8c0.3-1.9,0.4-3.9,0.4-6.1c0-2.2-0.2-4.2-0.5-6.1c-0.3-1.9-0.8-3.5-1.5-4.8c-0.7-1.4-1.6-2.4-2.8-3.2
				c-1.2-0.8-2.5-1.2-4.2-1.2c-1.6,0-2.9,0.4-4,1.2c-1.1,0.8-1.9,1.8-2.6,3.2c-0.6,1.4-1.1,3-1.3,4.8
				C306.5,49.8,306.4,51.8,306.4,54z"/>
			<path id="XMLID_3524_" class="st0" d="M363.3,61.2h2.1c0.1,0.5,0.3,1.2,0.4,2c0.1,0.8,0.2,1.6,0.3,2.5c0.1,0.9,0.1,1.7,0.2,2.6
				c0,0.9,0.1,1.6,0.1,2.3c-1.2,0.8-2.7,1.3-4.5,1.6c-1.8,0.3-3.7,0.5-5.5,0.5c-2.9,0-5.4-0.4-7.8-1.1c-2.3-0.7-4.3-1.8-5.9-3.3
				c-1.6-1.5-2.9-3.5-3.8-5.8c-0.9-2.4-1.3-5.2-1.3-8.5c0-3.3,0.5-6.1,1.5-8.4c1-2.4,2.3-4.3,3.9-5.8c1.6-1.5,3.6-2.6,5.7-3.3
				c2.2-0.7,4.5-1.1,6.9-1.1c2.3,0,4.3,0.2,6.2,0.5c1.8,0.3,3.3,0.8,4.5,1.3c0,0.5,0,1.3-0.1,2.1c-0.1,0.9-0.1,1.8-0.3,2.7
				c-0.1,0.9-0.3,1.9-0.4,2.8c-0.2,0.9-0.3,1.7-0.4,2.3h-2.2l-2.8-7.8c-0.3-0.2-0.8-0.3-1.5-0.4c-0.7-0.1-1.4-0.2-2.1-0.2
				c-1.4,0-2.7,0.3-4,0.9c-1.2,0.6-2.3,1.5-3.3,2.7c-1,1.2-1.7,2.8-2.3,4.8c-0.6,1.9-0.8,4.3-0.8,7c0,4.9,1,8.7,2.9,11.3
				c2,2.6,4.6,4,8,4c1,0,1.8-0.1,2.4-0.2c0.7-0.2,1.1-0.4,1.4-0.6L363.3,61.2z"/>
			<path id="XMLID_3522_" class="st0" d="M397.4,39.4c-0.8-0.2-1.5-0.4-2.2-0.6c-0.6-0.3-1.2-0.5-1.8-0.9v-2h12.5v2
				c-0.4,0.3-0.9,0.5-1.5,0.8c-0.6,0.3-1.3,0.5-2.1,0.7l-9.8,22.3c-1.6,3.8-3.4,6.6-5.2,8.4c-1.8,1.8-3.7,2.6-5.7,2.2
				c-0.3-0.3-0.6-0.7-0.9-1.3c-0.3-0.6-0.6-1.2-0.8-1.8c-0.3-0.6-0.5-1.3-0.6-1.9c-0.2-0.6-0.3-1.1-0.3-1.5l1.4-2.1l6.1,1.9
				c0.3-0.3,0.5-0.7,0.8-1.1c0.2-0.4,0.5-0.9,0.7-1.5l-13.7-23.6c-0.7-0.2-1.3-0.4-1.9-0.6c-0.6-0.3-1.2-0.5-1.7-0.9v-2h16.1v2
				c-1,0.6-2.3,1.1-3.9,1.5l7.3,14l1.1,3.3h0.1l1-3.4L397.4,39.4z"/>
			<path id="XMLID_3519_" class="st0" d="M443,68.7c0,0.8,0,1.7-0.1,2.7c-0.1,1-0.2,2.1-0.3,3.1c-0.1,1.1-0.3,2.1-0.4,3.1
				c-0.2,1-0.3,2-0.5,2.8h-2l-2.8-8.4h-24.6l-2.8,8.4h-2c-0.2-0.9-0.4-1.8-0.6-2.9c-0.2-1.1-0.3-2.1-0.4-3.2
				c-0.1-1.1-0.2-2.1-0.3-3.1c-0.1-1-0.1-1.8-0.1-2.5h4.5c1-1.4,1.8-3.2,2.7-5.4c0.8-2.1,1.5-4.5,2.1-7c0.6-2.5,1-5.2,1.3-8
				c0.3-2.8,0.4-5.6,0.4-8.4c-0.9-0.2-1.8-0.4-2.8-0.8c-1-0.3-1.9-0.8-2.7-1.2v-2h29.6v2c-1.2,0.7-2.6,1.2-4.2,1.5v29.3H443z
				 M429.2,68.7V39.3h-8.3c-0.2,4-0.5,7.6-0.9,10.7c-0.4,3.2-0.9,5.9-1.5,8.3c-0.6,2.4-1.2,4.5-1.8,6.2c-0.7,1.7-1.3,3.1-1.9,4.1
				H429.2z"/>
			<path id="XMLID_3516_" class="st0" d="M459,72.1h-12.7v-2c0.5-0.3,1.1-0.6,1.8-0.9c0.6-0.3,1.3-0.5,1.9-0.6l13.3-33.2h3.8
				L480,68.6c0.7,0.1,1.4,0.3,2.1,0.6c0.7,0.3,1.3,0.6,1.8,0.9v2h-16.1v-2c0.7-0.3,1.4-0.6,2.1-0.9c0.8-0.3,1.5-0.5,2.2-0.6l-3-8.2
				h-11.4l-3,8.2c1.6,0.2,3.1,0.7,4.5,1.5V72.1z M458.8,57.1h9.1l-3.3-9.8l-1-4.4h-0.1l-1.1,4.5L458.8,57.1z"/>
			<path id="XMLID_3513_" class="st0" d="M499.4,68.6c0.9,0.1,1.8,0.3,2.8,0.6c0.9,0.3,1.7,0.6,2.4,0.9v2h-17.2v-2
				c0.7-0.4,1.3-0.7,2.1-0.9c0.7-0.2,1.5-0.4,2.1-0.6V39.4c-0.8-0.1-1.5-0.3-2.3-0.6c-0.7-0.3-1.4-0.6-2-0.9v-2h6.5
				c1.4,0,2.9-0.1,4.7-0.2c1.8-0.1,3.4-0.2,4.9-0.2c1.8,0,3.6,0.2,5.3,0.5c1.7,0.4,3.3,1,4.6,1.8c1.4,0.9,2.4,2,3.3,3.4
				c0.8,1.4,1.2,3.2,1.2,5.3c0,2-0.4,3.8-1.2,5.3c-0.8,1.5-1.9,2.7-3.2,3.7c-1.3,1-2.9,1.7-4.6,2.1c-1.8,0.5-3.6,0.7-5.4,0.7
				c-0.2,0-0.4,0-0.8,0c-0.4,0-0.8,0-1.2,0c-0.4,0-0.8,0-1.2-0.1c-0.4,0-0.7,0-0.9-0.1V68.6z M502.2,38.9c-0.7,0-1.2,0-1.6,0.1
				c-0.4,0.1-0.8,0.1-1.2,0.2v15.7c0.3,0.1,0.8,0.2,1.4,0.2c0.6,0,1.1,0,1.5,0c0.9,0,1.8-0.2,2.7-0.5c0.9-0.3,1.6-0.8,2.3-1.4
				c0.7-0.7,1.2-1.5,1.6-2.5c0.4-1,0.6-2.3,0.6-3.7c0-2.7-0.7-4.8-2-6.1C506.2,39.6,504.4,38.9,502.2,38.9z"/>
			<path id="XMLID_3511_" class="st0" d="M548.3,61.2h2.1c0.1,0.5,0.3,1.2,0.4,2c0.1,0.8,0.2,1.6,0.3,2.5c0.1,0.9,0.1,1.7,0.2,2.6
				c0,0.9,0,1.6,0,2.3c-1.2,0.8-2.7,1.3-4.5,1.6c-1.8,0.3-3.6,0.5-5.5,0.5c-2.9,0-5.4-0.4-7.8-1.1c-2.3-0.7-4.3-1.8-5.9-3.3
				c-1.6-1.5-2.9-3.5-3.8-5.8c-0.9-2.4-1.3-5.2-1.3-8.5c0-3.3,0.5-6.1,1.5-8.4c1-2.4,2.3-4.3,3.9-5.8c1.6-1.5,3.6-2.6,5.7-3.3
				c2.2-0.7,4.5-1.1,6.9-1.1c2.3,0,4.3,0.2,6.2,0.5c1.8,0.3,3.3,0.8,4.5,1.3c0,0.5,0,1.3-0.1,2.1c-0.1,0.9-0.1,1.8-0.3,2.7
				c-0.1,0.9-0.3,1.9-0.4,2.8c-0.2,0.9-0.3,1.7-0.4,2.3h-2.2l-2.8-7.8c-0.3-0.2-0.8-0.3-1.5-0.4c-0.7-0.1-1.4-0.2-2.1-0.2
				c-1.4,0-2.7,0.3-4,0.9c-1.2,0.6-2.3,1.5-3.3,2.7c-1,1.2-1.7,2.8-2.3,4.8c-0.5,1.9-0.8,4.3-0.8,7c0,4.9,1,8.7,2.9,11.3
				c2,2.6,4.6,4,8,4c1,0,1.8-0.1,2.4-0.2c0.7-0.2,1.1-0.4,1.4-0.6L548.3,61.2z"/>
			<path id="XMLID_3509_" class="st0" d="M581.3,72.1h-17.7v-2c0.7-0.3,1.5-0.6,2.3-0.9c0.9-0.3,1.8-0.5,2.7-0.6V39.3h-6l-3.3,8.8
				h-2.1c-0.1-0.7-0.3-1.6-0.4-2.6c-0.1-1.1-0.3-2.2-0.4-3.3c-0.1-1.1-0.2-2.3-0.3-3.4c-0.1-1.1-0.1-2.1-0.1-2.9h32.8
				c0,0.8,0,1.8-0.1,2.9c-0.1,1.1-0.2,2.2-0.3,3.3c-0.1,1.1-0.2,2.2-0.4,3.3c-0.1,1-0.3,1.9-0.4,2.7h-2.1l-3.3-8.8h-6v29.3
				c0.9,0.2,1.8,0.4,2.7,0.6c0.9,0.2,1.7,0.5,2.3,0.9V72.1z"/>
			<path id="XMLID_3505_" class="st0" d="M592.7,72.1v-2c0.7-0.4,1.3-0.7,2.1-1c0.7-0.3,1.5-0.4,2.1-0.5V39.4
				c-0.7-0.1-1.4-0.3-2.2-0.6c-0.8-0.3-1.4-0.6-2.1-0.9v-2h8.3c1.3,0,2.5-0.1,3.7-0.2c1.2-0.1,2.5-0.2,4-0.2c1.6,0,3.2,0.1,4.8,0.4
				c1.5,0.2,2.9,0.7,4.1,1.3c1.2,0.6,2.2,1.5,2.9,2.6c0.7,1.1,1.1,2.6,1.1,4.3c0,1.1-0.2,2.1-0.6,3.1c-0.4,0.9-0.9,1.8-1.6,2.5
				c-0.7,0.7-1.5,1.3-2.5,1.8c-0.9,0.5-2,0.8-3.1,1v0.2c1.1,0.1,2.2,0.4,3.3,0.8c1.1,0.4,2.1,0.9,3,1.6c0.9,0.7,1.6,1.6,2.2,2.7
				c0.6,1.1,0.9,2.4,0.9,3.8c0,1.9-0.4,3.5-1.2,4.8c-0.8,1.3-1.9,2.4-3.3,3.3c-1.4,0.9-3,1.5-4.8,1.9c-1.8,0.4-3.6,0.6-5.6,0.6
				c-0.7,0-1.5,0-2.4-0.1c-0.9,0-1.7-0.1-2.6-0.1c-0.9,0-1.7-0.1-2.5-0.1c-0.8,0-1.5-0.1-2-0.1H592.7z M606,52.1
				c0.6,0,1.2,0,1.7-0.1c0.6-0.1,1.1-0.1,1.6-0.2c1.3-0.5,2.4-1.4,3.2-2.5c0.8-1.2,1.2-2.5,1.2-3.9c0-2.2-0.6-3.8-1.7-4.8
				c-1.1-1-2.6-1.5-4.4-1.5c-0.8,0-1.4,0-2,0.1c-0.5,0-1,0.1-1.5,0.2v12.8H606z M608.3,69c2.2,0,3.9-0.6,5.1-1.9
				c1.2-1.3,1.9-3,1.9-5.1c0-1.3-0.2-2.4-0.6-3.2c-0.4-0.8-1-1.5-1.7-2c-0.7-0.5-1.6-0.8-2.6-1c-1-0.2-2.1-0.3-3.2-0.3h-2.7v13.2
				c0.5,0.1,1,0.2,1.5,0.3C606.4,69,607.2,69,608.3,69z"/>
			<path id="XMLID_3503_" class="st0" d="M653.2,36c-0.1,1.5-0.2,3.1-0.4,4.8c-0.2,1.6-0.4,3.2-0.7,4.6h-2.1l-2.4-6.1h-9.6V52h6.3
				l2.3-4h1.6c0.2,1.7,0.3,3.6,0.3,5.6c0,2.1-0.1,4-0.3,5.8h-1.6l-2.3-4.1h-6.3v13.4h10l2.7-6.5h2.1c0.1,0.7,0.3,1.4,0.4,2.2
				c0.1,0.8,0.2,1.7,0.3,2.6c0.1,0.9,0.2,1.8,0.2,2.7c0.1,0.9,0.1,1.7,0.1,2.5h-27.9v-2c0.6-0.3,1.2-0.6,2-0.9
				c0.7-0.3,1.5-0.5,2.3-0.6V39.4c-0.7-0.1-1.4-0.3-2.2-0.6c-0.8-0.3-1.5-0.6-2-0.9v-2H653.2z"/>
			<path id="XMLID_3501_" class="st0" d="M674.3,72.1h-15.6v-2c0.6-0.3,1.3-0.6,2-0.9c0.8-0.3,1.5-0.5,2.2-0.6V39.4
				c-0.8-0.1-1.6-0.3-2.4-0.6c-0.8-0.3-1.4-0.6-1.9-0.9v-2h15.6v2c-0.5,0.3-1.1,0.7-1.7,0.9c-0.6,0.3-1.3,0.5-1.9,0.6v12.5h13.7
				V39.4c-0.8-0.1-1.4-0.3-2-0.6c-0.6-0.3-1.1-0.6-1.6-0.9v-2h15.6v2c-0.6,0.4-1.3,0.7-2,0.9c-0.8,0.2-1.5,0.4-2.2,0.6v29.2
				c0.8,0.1,1.6,0.3,2.3,0.6c0.7,0.3,1.4,0.6,1.9,0.9v2h-15.6v-2c0.5-0.3,1.1-0.6,1.7-0.9c0.6-0.3,1.3-0.5,2-0.6V55.3h-13.7v13.3
				c0.7,0.1,1.3,0.3,1.9,0.6c0.6,0.2,1.2,0.5,1.8,0.9V72.1z"/>
			<path id="XMLID_3499_" class="st0" d="M715.9,72.1h-15.6v-2c0.6-0.3,1.3-0.6,2-0.9c0.8-0.3,1.5-0.5,2.2-0.6V39.4
				c-0.8-0.1-1.6-0.3-2.4-0.6c-0.8-0.3-1.4-0.6-1.9-0.9v-2h15.6v2c-0.5,0.3-1.1,0.7-1.7,0.9c-0.6,0.3-1.3,0.5-1.9,0.6v12.5h13.7
				V39.4c-0.8-0.1-1.4-0.3-2-0.6c-0.6-0.3-1.1-0.6-1.6-0.9v-2h15.6v2c-0.6,0.4-1.3,0.7-2,0.9c-0.8,0.2-1.5,0.4-2.2,0.6v29.2
				c0.8,0.1,1.6,0.3,2.3,0.6c0.7,0.3,1.4,0.6,1.9,0.9v2h-15.6v-2c0.5-0.3,1.1-0.6,1.7-0.9c0.6-0.3,1.3-0.5,2-0.6V55.3h-13.7v13.3
				c0.7,0.1,1.3,0.3,1.9,0.6c0.6,0.2,1.2,0.5,1.8,0.9V72.1z"/>
			<path id="XMLID_3496_" class="st0" d="M754.1,72.1h-12.7v-2c0.5-0.3,1.1-0.6,1.8-0.9c0.6-0.3,1.3-0.5,1.9-0.6l13.3-33.2h3.8
				l12.9,33.2c0.7,0.1,1.4,0.3,2.1,0.6c0.7,0.3,1.3,0.6,1.8,0.9v2h-16.1v-2c0.7-0.3,1.4-0.6,2.1-0.9c0.8-0.3,1.5-0.5,2.2-0.6l-3-8.2
				h-11.4l-3,8.2c1.6,0.2,3.1,0.7,4.5,1.5V72.1z M753.9,57.1h9.1l-3.3-9.8l-1-4.4h-0.1l-1.1,4.5L753.9,57.1z"/>
			<path id="XMLID_3493_" class="st0" d="M816.4,36v2c-0.4,0.3-1,0.5-1.8,0.8c-0.8,0.3-1.6,0.5-2.4,0.7v29.2
				c0.9,0.2,1.7,0.4,2.4,0.7c0.7,0.3,1.3,0.5,1.9,0.8v2h-16v-2c0.6-0.3,1.2-0.6,1.9-0.9c0.7-0.3,1.4-0.5,2.1-0.6V57.2h-4.3
				c-1,2.4-2.1,4.7-3.1,7c-1,2.2-2.3,4.3-3.8,6.3l-2.1,1.7h-8.9v-1.8l2.3-1.2c2.2-2.4,4-4.6,5.3-6.6c1.4-2,2.6-3.9,3.8-5.6
				c-0.9-0.3-1.8-0.7-2.7-1.3c-0.9-0.5-1.7-1.2-2.4-2c-0.7-0.8-1.3-1.8-1.7-2.9c-0.4-1.1-0.6-2.4-0.6-3.9c0-2,0.4-3.7,1.3-5
				c0.9-1.4,2-2.5,3.4-3.4c1.4-0.9,3-1.5,4.9-1.9c1.9-0.4,3.8-0.6,5.7-0.6c0.3,0,0.8,0,1.4,0c0.6,0,1.2,0,1.8,0.1
				c0.6,0,1.3,0,1.9,0.1c0.7,0,1.2,0,1.8,0H816.4z M801.3,54.2c0.5,0,1.1,0,1.7-0.1c0.7-0.1,1.1-0.1,1.4-0.2V39.4
				c-0.3-0.1-0.7-0.1-1.3-0.2c-0.6-0.1-1.1-0.1-1.5-0.1c-1,0-1.9,0.1-2.8,0.4c-0.9,0.3-1.6,0.7-2.3,1.3c-0.7,0.6-1.2,1.3-1.6,2.3
				c-0.4,0.9-0.6,2.1-0.6,3.4c0,2.6,0.6,4.5,1.9,5.8C797.5,53.6,799.2,54.2,801.3,54.2z"/>
			<path id="XMLID_3490_" class="st0" d="M870.8,68.7c0,0.8,0,1.7-0.1,2.7c-0.1,1-0.2,2.1-0.3,3.1c-0.1,1.1-0.3,2.1-0.4,3.1
				c-0.2,1-0.3,2-0.5,2.8h-2l-2.8-8.4H840l-2.8,8.4h-2c-0.2-0.9-0.4-1.8-0.6-2.9c-0.2-1.1-0.3-2.1-0.4-3.2c-0.1-1.1-0.2-2.1-0.3-3.1
				c0-1-0.1-1.8-0.1-2.5h4.5c1-1.4,1.8-3.2,2.7-5.4c0.8-2.1,1.5-4.5,2.1-7c0.6-2.5,1-5.2,1.3-8c0.3-2.8,0.4-5.6,0.4-8.4
				c-0.9-0.2-1.8-0.4-2.8-0.8c-1-0.3-1.9-0.8-2.7-1.2v-2H869v2c-1.2,0.7-2.6,1.2-4.2,1.5v29.3H870.8z M857,68.7V39.3h-8.3
				c-0.2,4-0.5,7.6-0.9,10.7c-0.4,3.2-0.9,5.9-1.5,8.3c-0.6,2.4-1.2,4.5-1.8,6.2c-0.7,1.7-1.3,3.1-1.9,4.1H857z"/>
			<path id="XMLID_3488_" class="st0" d="M900,39.4c-0.8-0.2-1.5-0.4-2.2-0.6c-0.6-0.3-1.2-0.5-1.8-0.9v-2h12.5v2
				c-0.4,0.3-0.9,0.5-1.5,0.8c-0.6,0.3-1.3,0.5-2.1,0.7L895,61.7c-1.6,3.8-3.4,6.6-5.2,8.4c-1.8,1.8-3.7,2.6-5.7,2.2
				c-0.3-0.3-0.6-0.7-0.9-1.3c-0.3-0.6-0.6-1.2-0.8-1.8c-0.3-0.6-0.5-1.3-0.6-1.9c-0.2-0.6-0.3-1.1-0.3-1.5l1.4-2.1l6.1,1.9
				c0.3-0.3,0.5-0.7,0.8-1.1c0.2-0.4,0.5-0.9,0.7-1.5l-13.7-23.6c-0.7-0.2-1.3-0.4-1.9-0.6c-0.6-0.3-1.2-0.5-1.7-0.9v-2h16.1v2
				c-1,0.6-2.3,1.1-3.9,1.5l7.3,14l1.1,3.3h0.1l1-3.4L900,39.4z"/>
			<path id="XMLID_3486_" class="st0" d="M957.8,72.1h-15.4v-2c0.7-0.3,1.4-0.6,2-0.9c0.7-0.2,1.4-0.4,2.1-0.6V47.1l0.3-6h-0.4
				l-1.7,5.5l-9.9,25.5h-2.4l-9.9-25.3l-1.9-6h-0.5l0.1,6.5v21.1c0.7,0.1,1.4,0.4,2.2,0.7c0.8,0.3,1.5,0.7,2.2,1v2H912v-2
				c0.5-0.3,1.2-0.6,2-1c0.8-0.4,1.6-0.6,2.3-0.8V39.4c-0.7-0.1-1.4-0.3-2.2-0.6c-0.8-0.2-1.5-0.5-2-0.9v-2h14l7.9,21l1.5,4.9h0.1
				l1.5-5l8-20.9h12.8v2c-0.6,0.3-1.2,0.6-1.9,0.9c-0.7,0.3-1.3,0.5-2,0.6v29.2c0.7,0.1,1.4,0.3,2.1,0.6c0.7,0.3,1.3,0.5,1.8,0.8
				V72.1z"/>
			<path id="XMLID_3483_" class="st0" d="M974.1,72.1h-12.7v-2c0.5-0.3,1.1-0.6,1.8-0.9c0.6-0.3,1.3-0.5,1.9-0.6l13.3-33.2h3.8
				l12.9,33.2c0.7,0.1,1.4,0.3,2.1,0.6c0.7,0.3,1.3,0.6,1.8,0.9v2h-16.1v-2c0.7-0.3,1.4-0.6,2.1-0.9c0.8-0.3,1.5-0.5,2.2-0.6l-3-8.2
				h-11.4l-3,8.2c1.6,0.2,3.1,0.7,4.5,1.5V72.1z M973.9,57.1h9.1l-3.3-9.8l-1-4.4h-0.1l-1.1,4.5L973.9,57.1z"/>
		</g>
		<g id="XMLID_3202_">
			<path id="XMLID_3478_" class="st0" d="M280,107.7c1.4,0,2.6,0.2,3.8,0.5c1.2,0.3,2.2,0.8,3.1,1.4c0.9,0.6,1.6,1.4,2.1,2.4
				c0.5,1,0.7,2.2,0.7,3.6v0.2c0,1.4-0.3,2.7-0.8,3.7c-0.5,1-1.2,1.8-2.1,2.5c-0.9,0.6-1.9,1.1-3.1,1.4c-1.2,0.3-2.4,0.5-3.8,0.5
				v3.1h-2.6v-3.1c-1.4,0-2.7-0.2-3.8-0.5c-1.2-0.3-2.2-0.8-3.1-1.4c-0.9-0.6-1.6-1.4-2.1-2.4c-0.5-1-0.7-2.2-0.7-3.6v-0.2
				c0-1.5,0.3-2.7,0.8-3.7c0.5-1,1.2-1.8,2.1-2.5c0.9-0.6,1.9-1.1,3.1-1.4c1.2-0.3,2.4-0.5,3.8-0.5v-3.1h2.6V107.7z M277.4,109.7
				c-1,0-1.9,0.1-2.7,0.3c-0.8,0.2-1.6,0.5-2.2,0.9c-0.6,0.5-1.1,1.1-1.5,1.9c-0.4,0.8-0.6,1.8-0.6,3v0.2c0,1.1,0.2,2,0.5,2.8
				c0.3,0.7,0.8,1.3,1.5,1.8c0.6,0.5,1.4,0.8,2.2,1c0.9,0.2,1.8,0.3,2.8,0.4V109.7z M280,121.9c1,0,1.9-0.1,2.7-0.3
				c0.8-0.2,1.6-0.5,2.2-0.9c0.6-0.4,1.1-1.1,1.5-1.8c0.4-0.8,0.6-1.8,0.6-3v-0.2c0-1.1-0.2-2-0.5-2.8c-0.3-0.7-0.8-1.3-1.5-1.8
				c-0.6-0.5-1.4-0.8-2.2-1c-0.9-0.2-1.8-0.3-2.8-0.4V121.9z"/>
			<path id="XMLID_3475_" class="st0" d="M300.7,127c-1.1,0-2.2-0.2-3.1-0.6c-0.9-0.4-1.7-0.9-2.4-1.6c-0.7-0.7-1.2-1.6-1.6-2.5
				c-0.4-1-0.6-2.1-0.6-3.3v-0.2c0-1.2,0.2-2.3,0.5-3.3c0.4-1,0.9-1.9,1.5-2.6c0.7-0.7,1.5-1.3,2.4-1.7c0.9-0.4,1.9-0.6,3-0.6
				c0.9,0,1.8,0.1,2.7,0.4c0.9,0.3,1.6,0.8,2.3,1.4c0.7,0.6,1.2,1.5,1.6,2.5c0.4,1,0.6,2.2,0.6,3.7v0.8h-12c0.1,1.8,0.5,3.2,1.4,4.1
				c0.9,1,2.1,1.4,3.8,1.4c2.5,0,3.9-0.9,4.2-2.7h2.5c-0.3,1.6-1,2.8-2.3,3.6C304.1,126.6,302.6,127,300.7,127z M305.1,117.2
				c-0.1-1.6-0.6-2.8-1.4-3.5c-0.8-0.7-1.9-1.1-3.2-1.1c-1.3,0-2.4,0.4-3.2,1.2c-0.8,0.8-1.3,1.9-1.6,3.4H305.1z"/>
			<path id="XMLID_3472_" class="st0" d="M311.8,130.6h-2v-6h1.1c0.3-0.1,0.6-0.2,0.8-0.5c0.2-0.3,0.4-0.6,0.5-0.9
				c0.1-0.4,0.2-0.8,0.3-1.3c0.1-0.5,0.2-1,0.2-1.5c0.1-0.9,0.2-2,0.3-3.1c0.1-1.1,0.2-2.2,0.2-3.1c0.1-1.1,0.1-2.3,0.2-3.4h10.5
				v13.8h2.4v6h-2l-0.2-3.9H312L311.8,130.6z M315,120.6c-0.1,0.9-0.2,1.7-0.4,2.4c-0.2,0.6-0.4,1.2-0.6,1.6h7.5v-11.7h-5.9
				c0,0.5-0.1,1.1-0.1,1.7c0,0.6-0.1,1.3-0.1,2c-0.1,0.7-0.1,1.4-0.2,2.1C315.1,119.3,315.1,120,315,120.6z"/>
			<path id="XMLID_3469_" class="st0" d="M336.3,127c-1.1,0-2.2-0.2-3.1-0.6c-0.9-0.4-1.8-0.9-2.4-1.6c-0.7-0.7-1.2-1.6-1.6-2.5
				c-0.4-1-0.6-2.1-0.6-3.3v-0.2c0-1.2,0.2-2.3,0.5-3.3c0.4-1,0.9-1.9,1.5-2.6c0.7-0.7,1.5-1.3,2.4-1.7c0.9-0.4,1.9-0.6,3-0.6
				c0.9,0,1.8,0.1,2.7,0.4c0.9,0.3,1.6,0.8,2.3,1.4c0.7,0.6,1.2,1.5,1.6,2.5c0.4,1,0.6,2.2,0.6,3.7v0.8h-12c0.1,1.8,0.5,3.2,1.4,4.1
				c0.9,1,2.1,1.4,3.8,1.4c2.5,0,3.9-0.9,4.2-2.7h2.5c-0.3,1.6-1,2.8-2.3,3.6C339.6,126.6,338.1,127,336.3,127z M340.6,117.2
				c-0.1-1.6-0.6-2.8-1.4-3.5c-0.8-0.7-1.9-1.1-3.2-1.1c-1.3,0-2.4,0.4-3.2,1.2c-0.8,0.8-1.3,1.9-1.6,3.4H340.6z"/>
			<path id="XMLID_3466_" class="st0" d="M347.3,110.7h2.5v2.7c0.2-0.4,0.5-0.8,0.9-1.1c0.4-0.4,0.8-0.7,1.3-0.9
				c0.5-0.3,1-0.5,1.5-0.7c0.5-0.2,1.1-0.2,1.7-0.2c1,0,2,0.2,2.9,0.5c0.9,0.4,1.7,0.9,2.3,1.6c0.6,0.7,1.1,1.5,1.5,2.5
				c0.4,1,0.5,2.1,0.5,3.4v0.2c0,1.2-0.2,2.3-0.5,3.3c-0.3,1-0.8,1.9-1.5,2.6c-0.6,0.7-1.4,1.3-2.3,1.7c-0.9,0.4-1.9,0.6-3,0.6
				c-1.3,0-2.4-0.3-3.3-0.9c-0.9-0.6-1.6-1.3-2.1-2v8.2h-2.5V110.7z M355,124.8c1.6,0,2.8-0.5,3.6-1.5c0.8-1,1.3-2.5,1.3-4.5v-0.2
				c0-1-0.1-1.9-0.4-2.6c-0.3-0.8-0.6-1.4-1.1-1.9c-0.4-0.5-1-0.9-1.6-1.1c-0.6-0.3-1.2-0.4-1.9-0.4c-0.7,0-1.4,0.1-2.1,0.4
				c-0.6,0.2-1.2,0.6-1.7,1.1c-0.5,0.5-0.8,1.1-1.1,1.9c-0.3,0.8-0.4,1.6-0.4,2.7v0.2c0,1,0.1,1.9,0.4,2.6c0.3,0.7,0.6,1.4,1.1,1.9
				c0.5,0.5,1,0.9,1.7,1.1C353.5,124.7,354.2,124.8,355,124.8z"/>
			<path id="XMLID_3462_" class="st0" d="M370.8,127c-0.7,0-1.4-0.1-2.1-0.3c-0.7-0.2-1.2-0.5-1.7-0.9c-0.5-0.4-0.9-0.9-1.1-1.5
				c-0.3-0.6-0.4-1.3-0.4-2.1c0-0.9,0.2-1.7,0.7-2.3c0.4-0.6,1-1.1,1.8-1.5c0.7-0.4,1.6-0.7,2.6-0.8c1-0.2,2-0.3,3-0.3h2.3v-1.2
				c0-1.3-0.3-2.2-0.8-2.7c-0.5-0.6-1.4-0.8-2.6-0.8c-2.2,0-3.4,0.9-3.7,2.8h-2.5c0.1-0.9,0.3-1.7,0.7-2.3c0.4-0.6,0.9-1.1,1.4-1.5
				c0.6-0.4,1.2-0.7,2-0.9c0.7-0.2,1.5-0.3,2.2-0.3c0.8,0,1.5,0.1,2.2,0.3c0.7,0.2,1.3,0.5,1.9,0.9c0.5,0.4,1,1,1.3,1.8
				c0.3,0.7,0.5,1.7,0.5,2.8v10.5h-2.5v-2c-0.6,0.8-1.3,1.3-2,1.7C372.9,126.8,372,127,370.8,127z M371,125c0.7,0,1.3-0.1,1.9-0.3
				c0.6-0.2,1.1-0.4,1.5-0.7c0.4-0.3,0.7-0.7,1-1.2c0.2-0.5,0.4-1,0.4-1.6v-2h-2.2c-0.8,0-1.5,0.1-2.2,0.2c-0.7,0.1-1.3,0.3-1.8,0.5
				c-0.5,0.2-0.9,0.6-1.2,1c-0.3,0.4-0.4,0.9-0.4,1.5c0,0.8,0.2,1.5,0.7,2C369.1,124.7,369.9,125,371,125z"/>
			<path id="XMLID_3460_" class="st0" d="M386.5,120.5c-0.2,2.1-0.6,3.7-1.1,4.7c-0.6,1-1.5,1.6-2.8,1.6c-0.3,0-0.6,0-0.8-0.1
				c-0.1,0-0.2-0.1-0.2-0.1v-2.4c0.1,0,0.1,0,0.2,0.1c0.1,0,0.2,0,0.3,0c0.1,0,0.2,0,0.4,0c0.3,0,0.6-0.1,0.8-0.3
				c0.2-0.2,0.4-0.5,0.5-0.9c0.1-0.4,0.2-0.8,0.3-1.3c0.1-0.5,0.1-1,0.2-1.6c0.1-0.9,0.2-2,0.2-3.1c0.1-1.1,0.1-2.2,0.1-3.1
				c0-1.1,0.1-2.3,0.1-3.4h10.5v16h-2.5v-13.8h-5.7c0,0.5,0,1.1-0.1,1.8c0,0.6,0,1.3-0.1,2c0,0.7-0.1,1.4-0.1,2
				C386.6,119.3,386.5,119.9,386.5,120.5z"/>
			<path id="XMLID_3457_" class="st0" d="M400.3,110.7h2.5v5.6h2.8c0.8,0,1.6,0.1,2.4,0.3c0.7,0.2,1.4,0.5,1.9,0.9
				c0.5,0.4,1,1,1.3,1.6c0.3,0.7,0.5,1.4,0.5,2.4v0.1c0,0.9-0.2,1.7-0.5,2.4c-0.3,0.6-0.8,1.2-1.3,1.6c-0.5,0.4-1.2,0.7-1.9,0.9
				c-0.7,0.2-1.5,0.3-2.4,0.3h-5.4V110.7z M405.8,124.7c1.3,0,2.1-0.3,2.7-0.8c0.5-0.5,0.8-1.3,0.8-2.3v-0.1c0-1.1-0.3-1.9-0.8-2.4
				c-0.5-0.5-1.4-0.8-2.6-0.8h-3v6.4H405.8z"/>
			<path id="XMLID_3455_" class="st0" d="M425.7,119.6h-7.8v7.1h-2.5v-16h2.5v6.7h7.8v-6.7h2.5v16h-2.5V119.6z"/>
			<path id="XMLID_3452_" class="st0" d="M440.2,127c-1.1,0-2.2-0.2-3.1-0.6c-1-0.4-1.8-1-2.5-1.7c-0.7-0.7-1.2-1.6-1.6-2.6
				c-0.4-1-0.6-2.1-0.6-3.2v-0.2c0-1.2,0.2-2.3,0.6-3.3c0.4-1,0.9-1.9,1.6-2.6c0.7-0.7,1.5-1.3,2.5-1.7c1-0.4,2-0.6,3.1-0.6
				c1.1,0,2.2,0.2,3.1,0.6c1,0.4,1.8,1,2.5,1.7c0.7,0.7,1.2,1.6,1.6,2.6c0.4,1,0.6,2.1,0.6,3.3v0.2c0,1.2-0.2,2.3-0.6,3.3
				c-0.4,1-0.9,1.9-1.7,2.6c-0.7,0.7-1.5,1.3-2.5,1.7C442.4,126.8,441.4,127,440.2,127z M440.3,124.8c0.8,0,1.5-0.1,2.2-0.4
				c0.7-0.3,1.2-0.7,1.6-1.2c0.4-0.5,0.8-1.2,1-1.9c0.2-0.7,0.4-1.6,0.4-2.4v-0.2c0-0.9-0.1-1.7-0.4-2.5c-0.2-0.7-0.6-1.4-1.1-1.9
				c-0.5-0.5-1-0.9-1.6-1.2c-0.6-0.3-1.4-0.4-2.2-0.4c-0.8,0-1.5,0.1-2.2,0.4c-0.7,0.3-1.2,0.7-1.6,1.2c-0.4,0.5-0.8,1.2-1,1.9
				c-0.2,0.7-0.4,1.6-0.4,2.5v0.2c0,1.8,0.5,3.3,1.4,4.4C437.4,124.3,438.6,124.8,440.3,124.8z"/>
			<path id="XMLID_3308_" class="st0" d="M454.7,112.9v13.8h-2.5v-16h10.1v2.1H454.7z"/>
			<path id="XMLID_3305_" class="st0" d="M472.2,127c-1.1,0-2.2-0.2-3.1-0.6c-1-0.4-1.8-1-2.5-1.7c-0.7-0.7-1.2-1.6-1.6-2.6
				c-0.4-1-0.6-2.1-0.6-3.2v-0.2c0-1.2,0.2-2.3,0.6-3.3c0.4-1,0.9-1.9,1.6-2.6c0.7-0.7,1.5-1.3,2.5-1.7c1-0.4,2-0.6,3.1-0.6
				c1.1,0,2.2,0.2,3.1,0.6c1,0.4,1.8,1,2.5,1.7c0.7,0.7,1.2,1.6,1.6,2.6c0.4,1,0.6,2.1,0.6,3.3v0.2c0,1.2-0.2,2.3-0.6,3.3
				c-0.4,1-0.9,1.9-1.6,2.6c-0.7,0.7-1.5,1.3-2.5,1.7C474.4,126.8,473.3,127,472.2,127z M472.2,124.8c0.8,0,1.5-0.1,2.2-0.4
				c0.7-0.3,1.2-0.7,1.6-1.2c0.4-0.5,0.8-1.2,1-1.9c0.2-0.7,0.4-1.6,0.4-2.4v-0.2c0-0.9-0.1-1.7-0.4-2.5c-0.2-0.7-0.6-1.4-1.1-1.9
				c-0.5-0.5-1-0.9-1.6-1.2c-0.6-0.3-1.4-0.4-2.2-0.4s-1.5,0.1-2.2,0.4c-0.7,0.3-1.2,0.7-1.7,1.2c-0.4,0.5-0.8,1.2-1,1.9
				c-0.2,0.7-0.4,1.6-0.4,2.5v0.2c0,1.8,0.5,3.3,1.4,4.4C469.3,124.3,470.6,124.8,472.2,124.8z"/>
			<path id="XMLID_3303_" class="st0" d="M501.4,127c-1.6,0-3-0.3-4.3-0.8c-1.3-0.5-2.3-1.3-3.2-2.2c-0.9-1-1.6-2.1-2-3.5
				c-0.5-1.4-0.7-2.9-0.7-4.6v-0.2c0-1.6,0.3-3.1,0.8-4.5c0.5-1.4,1.2-2.5,2.1-3.5c0.9-1,2-1.8,3.3-2.3c1.3-0.5,2.6-0.8,4.1-0.8
				c1.1,0,2.2,0.2,3.2,0.5c1,0.3,1.9,0.8,2.7,1.3c0.8,0.6,1.4,1.3,2,2.2c0.5,0.9,0.8,1.9,0.9,3.1h-2.6c-0.3-1.7-0.9-2.9-1.9-3.7
				c-1-0.8-2.4-1.3-4.3-1.3c-1.1,0-2.2,0.2-3.1,0.6c-0.9,0.4-1.7,1-2.4,1.8c-0.7,0.8-1.2,1.7-1.5,2.8c-0.4,1.1-0.5,2.4-0.5,3.7v0.2
				c0,1.4,0.2,2.6,0.5,3.7c0.3,1.1,0.8,2,1.5,2.8c0.6,0.8,1.4,1.3,2.4,1.8c0.9,0.4,2,0.6,3.2,0.6c1.8,0,3.3-0.4,4.4-1.3
				c1.2-0.9,1.9-2.2,2.2-4h2.5c-0.4,2.5-1.4,4.4-3,5.6C505.9,126.4,503.9,127,501.4,127z"/>
			<path id="XMLID_3300_" class="st0" d="M521.4,127c-1.1,0-2.2-0.2-3.1-0.6c-1-0.4-1.8-1-2.5-1.7c-0.7-0.7-1.2-1.6-1.6-2.6
				c-0.4-1-0.6-2.1-0.6-3.2v-0.2c0-1.2,0.2-2.3,0.6-3.3c0.4-1,0.9-1.9,1.6-2.6c0.7-0.7,1.5-1.3,2.5-1.7c1-0.4,2-0.6,3.1-0.6
				c1.1,0,2.2,0.2,3.1,0.6c1,0.4,1.8,1,2.5,1.7c0.7,0.7,1.2,1.6,1.6,2.6c0.4,1,0.6,2.1,0.6,3.3v0.2c0,1.2-0.2,2.3-0.6,3.3
				c-0.4,1-0.9,1.9-1.6,2.6c-0.7,0.7-1.5,1.3-2.5,1.7C523.6,126.8,522.6,127,521.4,127z M521.5,124.8c0.8,0,1.5-0.1,2.2-0.4
				c0.7-0.3,1.2-0.7,1.6-1.2c0.4-0.5,0.8-1.2,1-1.9c0.2-0.7,0.4-1.6,0.4-2.4v-0.2c0-0.9-0.1-1.7-0.4-2.5c-0.2-0.7-0.6-1.4-1.1-1.9
				c-0.5-0.5-1-0.9-1.6-1.2c-0.6-0.3-1.4-0.4-2.2-0.4c-0.8,0-1.5,0.1-2.2,0.4c-0.7,0.3-1.2,0.7-1.6,1.2c-0.4,0.5-0.8,1.2-1,1.9
				c-0.2,0.7-0.4,1.6-0.4,2.5v0.2c0,1.8,0.5,3.3,1.4,4.4C518.6,124.3,519.8,124.8,521.5,124.8z"/>
			<path id="XMLID_3297_" class="st0" d="M540.4,127c-1.1,0-2.2-0.2-3.1-0.5c-1-0.4-1.8-0.9-2.5-1.7c-0.7-0.8-1.2-1.7-1.6-2.9
				c-0.4-1.2-0.6-2.6-0.6-4.2v-1c0-1.7,0.1-3.4,0.3-4.9c0.2-1.6,0.6-3,1.3-4.2c0.6-1.2,1.5-2.2,2.7-3c1.2-0.8,2.7-1.2,4.6-1.3l0.6,0
				c1.1-0.1,2-0.1,2.7-0.2c0.7-0.1,1.3-0.2,1.9-0.5l0.3,2.1c-0.7,0.3-1.4,0.5-2.1,0.6c-0.8,0.1-1.7,0.2-2.7,0.2l-0.5,0
				c-1.3,0.1-2.4,0.3-3.2,0.7c-0.9,0.4-1.6,1-2.1,1.8c-0.5,0.8-0.9,1.7-1.2,2.8c-0.3,1.1-0.5,2.4-0.5,3.9h0.1c0.5-1.1,1.3-2,2.4-2.7
				c1.1-0.7,2.4-1,3.8-1c1.1,0,2.1,0.2,3,0.6c0.9,0.4,1.7,0.9,2.3,1.6c0.6,0.7,1.1,1.5,1.5,2.5c0.3,0.9,0.5,2,0.5,3.1v0.1
				c0,1.3-0.2,2.4-0.6,3.4c-0.4,1-0.9,1.8-1.6,2.5c-0.7,0.7-1.5,1.2-2.5,1.6C542.6,126.8,541.6,127,540.4,127z M540.5,124.8
				c1.6,0,2.9-0.5,3.8-1.5c0.9-1,1.4-2.5,1.4-4.4v-0.1c0-1.7-0.4-3.1-1.3-4.1c-0.8-1-2.1-1.5-3.7-1.5c-1.7,0-3,0.5-4,1.6
				c-1,1.1-1.5,2.5-1.5,4.3v0.1c0,1.7,0.5,3.1,1.4,4.1C537.6,124.3,538.8,124.8,540.5,124.8z"/>
			<path id="XMLID_3294_" class="st0" d="M552.5,110.7h2.5v2.7c0.2-0.4,0.5-0.8,0.9-1.1c0.4-0.4,0.8-0.7,1.3-0.9
				c0.5-0.3,1-0.5,1.5-0.7c0.5-0.2,1.1-0.2,1.7-0.2c1,0,2,0.2,2.9,0.5c0.9,0.4,1.7,0.9,2.3,1.6c0.6,0.7,1.1,1.5,1.5,2.5
				c0.4,1,0.5,2.1,0.5,3.4v0.2c0,1.2-0.2,2.3-0.5,3.3c-0.3,1-0.8,1.9-1.5,2.6c-0.6,0.7-1.4,1.3-2.3,1.7c-0.9,0.4-1.9,0.6-3,0.6
				c-1.3,0-2.4-0.3-3.3-0.9c-0.9-0.6-1.6-1.3-2.1-2v8.2h-2.5V110.7z M560.2,124.8c1.6,0,2.8-0.5,3.6-1.5c0.8-1,1.3-2.5,1.3-4.5v-0.2
				c0-1-0.1-1.9-0.4-2.6c-0.3-0.8-0.6-1.4-1.1-1.9c-0.4-0.5-1-0.9-1.6-1.1c-0.6-0.3-1.2-0.4-1.9-0.4c-0.7,0-1.4,0.1-2.1,0.4
				c-0.6,0.2-1.2,0.6-1.7,1.1c-0.5,0.5-0.8,1.1-1.1,1.9c-0.3,0.8-0.4,1.6-0.4,2.7v0.2c0,1,0.1,1.9,0.4,2.6c0.3,0.7,0.6,1.4,1.1,1.9
				c0.5,0.5,1,0.9,1.7,1.1C558.7,124.7,559.4,124.8,560.2,124.8z"/>
			<path id="XMLID_3291_" class="st0" d="M575.9,127c-0.7,0-1.4-0.1-2.1-0.3c-0.7-0.2-1.2-0.5-1.7-0.9c-0.5-0.4-0.9-0.9-1.1-1.5
				c-0.3-0.6-0.4-1.3-0.4-2.1c0-0.9,0.2-1.7,0.7-2.3c0.4-0.6,1-1.1,1.8-1.5c0.7-0.4,1.6-0.7,2.6-0.8c1-0.2,2-0.3,3-0.3h2.3v-1.2
				c0-1.3-0.3-2.2-0.8-2.7c-0.5-0.6-1.4-0.8-2.6-0.8c-2.2,0-3.4,0.9-3.7,2.8h-2.5c0.1-0.9,0.3-1.7,0.7-2.3c0.4-0.6,0.9-1.1,1.4-1.5
				c0.6-0.4,1.2-0.7,2-0.9c0.7-0.2,1.5-0.3,2.2-0.3c0.8,0,1.5,0.1,2.2,0.3c0.7,0.2,1.3,0.5,1.9,0.9c0.5,0.4,1,1,1.3,1.8
				c0.3,0.7,0.5,1.7,0.5,2.8v10.5h-2.5v-2c-0.6,0.8-1.3,1.3-2,1.7C578.1,126.8,577.1,127,575.9,127z M576.2,125
				c0.7,0,1.3-0.1,1.9-0.3c0.6-0.2,1.1-0.4,1.5-0.7c0.4-0.3,0.7-0.7,1-1.2c0.2-0.5,0.4-1,0.4-1.6v-2h-2.2c-0.8,0-1.5,0.1-2.2,0.2
				c-0.7,0.1-1.3,0.3-1.8,0.5c-0.5,0.2-0.9,0.6-1.2,1c-0.3,0.4-0.4,0.9-0.4,1.5c0,0.8,0.2,1.5,0.7,2
				C574.3,124.7,575.1,125,576.2,125z"/>
			<path id="XMLID_3289_" class="st0" d="M598.8,119.6h-7.8v7.1h-2.5v-16h2.5v6.7h7.8v-6.7h2.5v16h-2.5V119.6z"/>
			<path id="XMLID_3287_" class="st0" d="M606.4,126.7v-16h2.5V123l8.2-12.3h2.5v16h-2.5v-12.3l-8.2,12.3H606.4z"/>
			<path id="XMLID_3282_" class="st0" d="M625.8,126.7h-2.9l4.9-6.7c-0.5-0.1-1-0.3-1.4-0.5c-0.4-0.2-0.8-0.5-1.2-0.8
				c-0.3-0.3-0.6-0.8-0.8-1.3c-0.2-0.5-0.3-1.1-0.3-1.7v-0.1c0-0.9,0.2-1.6,0.5-2.2c0.3-0.6,0.8-1.1,1.3-1.5
				c0.5-0.4,1.2-0.7,1.9-0.9c0.7-0.2,1.5-0.3,2.4-0.3h5.4v16H633v-6.3h-2.7L625.8,126.7z M630,112.8c-1.2,0-2.1,0.3-2.6,0.7
				c-0.5,0.5-0.8,1.2-0.8,2.2v0.1c0,0.9,0.3,1.6,0.8,2c0.5,0.5,1.4,0.7,2.7,0.7h3v-5.8H630z"/>
			<path id="XMLID_3279_" class="st0" d="M649.2,104.9h6.2c1,0,2,0.1,2.9,0.4c0.9,0.2,1.7,0.6,2.4,1.1c0.7,0.5,1.2,1.2,1.6,2
				c0.4,0.8,0.6,1.8,0.6,2.9v0.1c0,1.2-0.2,2.2-0.6,3c-0.4,0.8-1,1.5-1.6,2c-0.7,0.5-1.5,0.9-2.4,1.1c-0.9,0.2-1.9,0.4-2.9,0.4h-3.5
				v8.9h-2.7V104.9z M655.5,115.7c1.6,0,2.8-0.4,3.6-1.1c0.8-0.7,1.2-1.8,1.2-3.2v-0.1c0-1.5-0.4-2.6-1.3-3.3c-0.9-0.6-2-1-3.5-1
				h-3.7v8.7H655.5z"/>
			<path id="XMLID_3276_" class="st0" d="M673.2,127c-1.1,0-2.2-0.2-3.1-0.6c-1-0.4-1.8-1-2.5-1.7c-0.7-0.7-1.2-1.6-1.6-2.6
				c-0.4-1-0.6-2.1-0.6-3.2v-0.2c0-1.2,0.2-2.3,0.6-3.3c0.4-1,0.9-1.9,1.6-2.6c0.7-0.7,1.5-1.3,2.5-1.7c1-0.4,2-0.6,3.1-0.6
				c1.1,0,2.2,0.2,3.1,0.6c1,0.4,1.8,1,2.5,1.7c0.7,0.7,1.2,1.6,1.6,2.6c0.4,1,0.6,2.1,0.6,3.3v0.2c0,1.2-0.2,2.3-0.6,3.3
				c-0.4,1-0.9,1.9-1.7,2.6c-0.7,0.7-1.5,1.3-2.5,1.7C675.3,126.8,674.3,127,673.2,127z M673.2,124.8c0.8,0,1.5-0.1,2.2-0.4
				c0.7-0.3,1.2-0.7,1.6-1.2c0.4-0.5,0.8-1.2,1-1.9c0.2-0.7,0.4-1.6,0.4-2.4v-0.2c0-0.9-0.1-1.7-0.4-2.5c-0.2-0.7-0.6-1.4-1.1-1.9
				c-0.5-0.5-1-0.9-1.6-1.2c-0.6-0.3-1.4-0.4-2.2-0.4c-0.8,0-1.5,0.1-2.2,0.4c-0.7,0.3-1.2,0.7-1.6,1.2c-0.4,0.5-0.8,1.2-1,1.9
				c-0.2,0.7-0.4,1.6-0.4,2.5v0.2c0,1.8,0.5,3.3,1.4,4.4C670.3,124.3,671.6,124.8,673.2,124.8z"/>
			<path id="XMLID_3274_" class="st0" d="M692,127c-1.1,0-2.2-0.2-3.1-0.6c-0.9-0.4-1.8-0.9-2.5-1.6c-0.7-0.7-1.3-1.6-1.6-2.5
				c-0.4-1-0.6-2.1-0.6-3.4v-0.2c0-1.2,0.2-2.3,0.6-3.3c0.4-1,1-1.9,1.7-2.6c0.7-0.7,1.5-1.3,2.5-1.7c0.9-0.4,1.9-0.6,3-0.6
				c0.8,0,1.6,0.1,2.4,0.3c0.8,0.2,1.5,0.5,2.1,1c0.6,0.4,1.1,1,1.6,1.7c0.4,0.7,0.7,1.6,0.8,2.6h-2.5c-0.2-1.3-0.7-2.1-1.5-2.7
				c-0.8-0.5-1.8-0.8-2.9-0.8c-0.7,0-1.4,0.1-2,0.4c-0.6,0.3-1.2,0.7-1.6,1.2c-0.5,0.5-0.8,1.1-1.1,1.9c-0.3,0.7-0.4,1.6-0.4,2.5
				v0.2c0,2,0.5,3.4,1.4,4.4c1,1,2.2,1.5,3.8,1.5c0.6,0,1.1-0.1,1.6-0.2c0.5-0.2,1-0.4,1.4-0.7c0.4-0.3,0.8-0.7,1-1.2
				c0.3-0.5,0.4-1,0.5-1.7h2.4c-0.1,0.9-0.3,1.7-0.7,2.4c-0.4,0.7-0.9,1.4-1.5,1.9c-0.6,0.5-1.3,0.9-2.1,1.3
				C693.8,126.8,692.9,127,692,127z"/>
			<path id="XMLID_3272_" class="st0" d="M709.8,127c-1.1,0-2.2-0.2-3.1-0.6c-0.9-0.4-1.8-0.9-2.5-1.6c-0.7-0.7-1.3-1.6-1.6-2.5
				c-0.4-1-0.6-2.1-0.6-3.4v-0.2c0-1.2,0.2-2.3,0.6-3.3c0.4-1,1-1.9,1.7-2.6c0.7-0.7,1.5-1.3,2.5-1.7c0.9-0.4,1.9-0.6,3-0.6
				c0.8,0,1.6,0.1,2.4,0.3c0.8,0.2,1.5,0.5,2.1,1c0.6,0.4,1.1,1,1.6,1.7c0.4,0.7,0.7,1.6,0.8,2.6h-2.5c-0.2-1.3-0.7-2.1-1.5-2.7
				c-0.8-0.5-1.8-0.8-2.9-0.8c-0.7,0-1.4,0.1-2,0.4c-0.6,0.3-1.2,0.7-1.6,1.2c-0.5,0.5-0.8,1.1-1.1,1.9c-0.3,0.7-0.4,1.6-0.4,2.5
				v0.2c0,2,0.5,3.4,1.5,4.4c1,1,2.2,1.5,3.8,1.5c0.6,0,1.1-0.1,1.6-0.2c0.5-0.2,1-0.4,1.4-0.7c0.4-0.3,0.8-0.7,1-1.2
				c0.3-0.5,0.4-1,0.5-1.7h2.4c-0.1,0.9-0.3,1.7-0.7,2.4c-0.4,0.7-0.9,1.4-1.5,1.9c-0.6,0.5-1.3,0.9-2.1,1.3
				C711.6,126.8,710.7,127,709.8,127z"/>
			<path id="XMLID_3270_" class="st0" d="M720.6,126.7v-16h2.5V123l8.2-12.3h2.5v16h-2.5v-12.3l-8.2,12.3H720.6z"/>
			<path id="XMLID_3267_" class="st0" d="M738.8,126.7v-16h2.5V123l8.2-12.3h2.5v16h-2.5v-12.3l-8.2,12.3H738.8z M745.4,107.8
				c-0.5,0-1.1-0.1-1.5-0.3c-0.5-0.2-0.9-0.5-1.3-0.8c-0.4-0.4-0.6-0.8-0.9-1.3c-0.2-0.5-0.3-1-0.4-1.6h2.2c0,0.6,0.2,1.1,0.5,1.6
				c0.3,0.5,0.7,0.7,1.3,0.7c0.7,0,1.1-0.2,1.5-0.7c0.3-0.4,0.5-1,0.6-1.6h2.1c0,0.6-0.2,1.1-0.4,1.6c-0.2,0.5-0.5,0.9-0.9,1.3
				c-0.4,0.4-0.8,0.6-1.3,0.8C746.5,107.7,745.9,107.8,745.4,107.8z"/>
			<path id="XMLID_3236_" class="st0" d="M763.9,127c-1.1,0-2.2-0.2-3.1-0.6c-0.9-0.4-1.8-0.9-2.5-1.6c-0.7-0.7-1.3-1.6-1.6-2.5
				c-0.4-1-0.6-2.1-0.6-3.4v-0.2c0-1.2,0.2-2.3,0.6-3.3c0.4-1,1-1.9,1.7-2.6c0.7-0.7,1.5-1.3,2.5-1.7c0.9-0.4,1.9-0.6,3-0.6
				c0.8,0,1.6,0.1,2.4,0.3c0.8,0.2,1.5,0.5,2.1,1c0.6,0.4,1.1,1,1.6,1.7c0.4,0.7,0.7,1.6,0.8,2.6h-2.5c-0.2-1.3-0.7-2.1-1.5-2.7
				c-0.8-0.5-1.8-0.8-2.9-0.8c-0.7,0-1.4,0.1-2,0.4c-0.6,0.3-1.2,0.7-1.6,1.2c-0.5,0.5-0.8,1.1-1.1,1.9c-0.3,0.7-0.4,1.6-0.4,2.5
				v0.2c0,2,0.5,3.4,1.4,4.4c1,1,2.2,1.5,3.8,1.5c0.6,0,1.1-0.1,1.6-0.2c0.5-0.2,1-0.4,1.4-0.7c0.4-0.3,0.8-0.7,1-1.2
				c0.3-0.5,0.4-1,0.5-1.7h2.3c-0.1,0.9-0.3,1.7-0.7,2.4c-0.4,0.7-0.9,1.4-1.5,1.9c-0.6,0.5-1.3,0.9-2.1,1.3
				C765.7,126.8,764.8,127,763.9,127z"/>
			<path id="XMLID_3234_" class="st0" d="M777.3,118.6v8.2h-2.5v-16h2.5v7.4l6.6-7.4h3l-6.8,7.5l7.4,8.5h-3.1L777.3,118.6z"/>
			<path id="XMLID_3231_" class="st0" d="M796.5,127c-1.1,0-2.2-0.2-3.1-0.6c-1-0.4-1.8-1-2.5-1.7c-0.7-0.7-1.2-1.6-1.6-2.6
				c-0.4-1-0.6-2.1-0.6-3.2v-0.2c0-1.2,0.2-2.3,0.6-3.3c0.4-1,0.9-1.9,1.6-2.6c0.7-0.7,1.5-1.3,2.5-1.7c1-0.4,2-0.6,3.1-0.6
				c1.1,0,2.2,0.2,3.1,0.6c1,0.4,1.8,1,2.5,1.7c0.7,0.7,1.2,1.6,1.6,2.6c0.4,1,0.6,2.1,0.6,3.3v0.2c0,1.2-0.2,2.3-0.6,3.3
				c-0.4,1-0.9,1.9-1.6,2.6c-0.7,0.7-1.5,1.3-2.5,1.7C798.7,126.8,797.6,127,796.5,127z M796.5,124.8c0.8,0,1.5-0.1,2.2-0.4
				c0.7-0.3,1.2-0.7,1.6-1.2c0.4-0.5,0.8-1.2,1-1.9c0.2-0.7,0.4-1.6,0.4-2.4v-0.2c0-0.9-0.1-1.7-0.4-2.5c-0.2-0.7-0.6-1.4-1.1-1.9
				c-0.5-0.5-1-0.9-1.6-1.2c-0.6-0.3-1.4-0.4-2.2-0.4c-0.8,0-1.5,0.1-2.2,0.4c-0.7,0.3-1.2,0.7-1.6,1.2c-0.4,0.5-0.8,1.2-1,1.9
				c-0.2,0.7-0.4,1.6-0.4,2.5v0.2c0,1.8,0.5,3.3,1.4,4.4C793.6,124.3,794.9,124.8,796.5,124.8z"/>
			<path id="XMLID_3228_" class="st0" d="M808.4,126.7v-16h2.5V123l8.2-12.3h2.5v16h-2.5v-12.3l-8.2,12.3H808.4z M814.9,107.8
				c-0.5,0-1.1-0.1-1.5-0.3c-0.5-0.2-0.9-0.5-1.3-0.8c-0.4-0.4-0.6-0.8-0.9-1.3c-0.2-0.5-0.3-1-0.4-1.6h2.2c0,0.6,0.2,1.1,0.5,1.6
				c0.3,0.5,0.7,0.7,1.3,0.7c0.7,0,1.1-0.2,1.5-0.7c0.3-0.4,0.5-1,0.6-1.6h2.1c0,0.6-0.2,1.1-0.4,1.6c-0.2,0.5-0.5,0.9-0.9,1.3
				c-0.4,0.4-0.8,0.6-1.3,0.8C816,107.7,815.5,107.8,814.9,107.8z"/>
			<path id="XMLID_3224_" class="st0" d="M845.8,107.7c1.4,0,2.6,0.2,3.8,0.5c1.2,0.3,2.2,0.8,3.1,1.4c0.9,0.6,1.6,1.4,2.1,2.4
				c0.5,1,0.7,2.2,0.7,3.6v0.2c0,1.4-0.3,2.7-0.8,3.7c-0.5,1-1.2,1.8-2.1,2.5c-0.9,0.6-1.9,1.1-3.1,1.4c-1.2,0.3-2.4,0.5-3.8,0.5
				v3.1h-2.6v-3.1c-1.4,0-2.7-0.2-3.8-0.5c-1.2-0.3-2.2-0.8-3.1-1.4c-0.9-0.6-1.6-1.4-2.1-2.4c-0.5-1-0.7-2.2-0.7-3.6v-0.2
				c0-1.5,0.3-2.7,0.8-3.7c0.5-1,1.2-1.8,2.1-2.5c0.9-0.6,1.9-1.1,3.1-1.4c1.2-0.3,2.4-0.5,3.8-0.5v-3.1h2.6V107.7z M843.2,109.7
				c-1,0-1.9,0.1-2.7,0.3c-0.8,0.2-1.6,0.5-2.2,0.9c-0.6,0.5-1.1,1.1-1.5,1.9c-0.4,0.8-0.6,1.8-0.6,3v0.2c0,1.1,0.2,2,0.5,2.8
				c0.3,0.7,0.8,1.3,1.5,1.8c0.6,0.5,1.4,0.8,2.2,1c0.9,0.2,1.8,0.3,2.8,0.4V109.7z M845.8,121.9c1,0,1.9-0.1,2.7-0.3
				c0.8-0.2,1.6-0.5,2.2-0.9c0.6-0.4,1.1-1.1,1.5-1.8c0.4-0.8,0.6-1.8,0.6-3v-0.2c0-1.1-0.2-2-0.5-2.8c-0.3-0.7-0.8-1.3-1.5-1.8
				c-0.6-0.5-1.4-0.8-2.2-1c-0.9-0.2-1.8-0.3-2.8-0.4V121.9z"/>
			<path id="XMLID_3221_" class="st0" d="M866.5,127c-1.1,0-2.2-0.2-3.1-0.6c-0.9-0.4-1.8-0.9-2.4-1.6c-0.7-0.7-1.2-1.6-1.6-2.5
				c-0.4-1-0.6-2.1-0.6-3.3v-0.2c0-1.2,0.2-2.3,0.5-3.3c0.4-1,0.9-1.9,1.5-2.6c0.7-0.7,1.5-1.3,2.4-1.7c0.9-0.4,1.9-0.6,3-0.6
				c0.9,0,1.8,0.1,2.7,0.4c0.9,0.3,1.6,0.8,2.3,1.4c0.7,0.6,1.2,1.5,1.6,2.5c0.4,1,0.6,2.2,0.6,3.7v0.8h-12c0.1,1.8,0.5,3.2,1.4,4.1
				c0.9,1,2.1,1.4,3.8,1.4c2.5,0,3.9-0.9,4.2-2.7h2.5c-0.3,1.6-1,2.8-2.3,3.6C869.8,126.6,868.3,127,866.5,127z M870.8,117.2
				c-0.1-1.6-0.6-2.8-1.4-3.5c-0.8-0.7-1.9-1.1-3.2-1.1c-1.3,0-2.4,0.4-3.2,1.2c-0.8,0.8-1.3,1.9-1.6,3.4H870.8z"/>
			<path id="XMLID_3218_" class="st0" d="M877.6,130.6h-2v-6h1.1c0.3-0.1,0.6-0.2,0.8-0.5c0.2-0.3,0.4-0.6,0.5-0.9
				c0.1-0.4,0.2-0.8,0.3-1.3c0.1-0.5,0.2-1,0.2-1.5c0.1-0.9,0.2-2,0.3-3.1c0.1-1.1,0.2-2.2,0.2-3.1c0.1-1.1,0.1-2.3,0.2-3.4h10.5
				v13.8h2.4v6h-2l-0.2-3.9h-12.1L877.6,130.6z M880.7,120.6c-0.1,0.9-0.2,1.7-0.4,2.4c-0.2,0.6-0.4,1.2-0.6,1.6h7.5v-11.7h-5.9
				c0,0.5,0,1.1-0.1,1.7c0,0.6-0.1,1.3-0.1,2c-0.1,0.7-0.1,1.4-0.2,2.1C880.9,119.3,880.8,120,880.7,120.6z"/>
			<path id="XMLID_3215_" class="st0" d="M902,127c-1.1,0-2.2-0.2-3.1-0.6c-0.9-0.4-1.8-0.9-2.4-1.6c-0.7-0.7-1.2-1.6-1.6-2.5
				c-0.4-1-0.6-2.1-0.6-3.3v-0.2c0-1.2,0.2-2.3,0.5-3.3c0.4-1,0.9-1.9,1.5-2.6c0.7-0.7,1.5-1.3,2.4-1.7c0.9-0.4,1.9-0.6,3-0.6
				c0.9,0,1.8,0.1,2.7,0.4c0.9,0.3,1.6,0.8,2.3,1.4c0.7,0.6,1.2,1.5,1.6,2.5c0.4,1,0.6,2.2,0.6,3.7v0.8h-12c0.1,1.8,0.5,3.2,1.4,4.1
				c0.9,1,2.1,1.4,3.8,1.4c2.5,0,3.9-0.9,4.2-2.7h2.5c-0.3,1.6-1,2.8-2.3,3.6C905.3,126.6,903.8,127,902,127z M906.3,117.2
				c-0.1-1.6-0.6-2.8-1.4-3.5c-0.8-0.7-1.9-1.1-3.2-1.1c-1.3,0-2.4,0.4-3.2,1.2c-0.8,0.8-1.3,1.9-1.6,3.4H906.3z"/>
			<path id="XMLID_3212_" class="st0" d="M913,110.7h2.5v2.7c0.2-0.4,0.5-0.8,0.9-1.1c0.4-0.4,0.8-0.7,1.3-0.9
				c0.5-0.3,1-0.5,1.5-0.7c0.5-0.2,1.1-0.2,1.7-0.2c1,0,2,0.2,2.9,0.5c0.9,0.4,1.7,0.9,2.3,1.6c0.6,0.7,1.1,1.5,1.5,2.5
				c0.4,1,0.5,2.1,0.5,3.4v0.2c0,1.2-0.2,2.3-0.5,3.3c-0.3,1-0.8,1.9-1.5,2.6c-0.6,0.7-1.4,1.3-2.3,1.7c-0.9,0.4-1.9,0.6-3,0.6
				c-1.3,0-2.4-0.3-3.3-0.9c-0.9-0.6-1.6-1.3-2.1-2v8.2H913V110.7z M920.7,124.8c1.6,0,2.8-0.5,3.6-1.5c0.8-1,1.3-2.5,1.3-4.5v-0.2
				c0-1-0.1-1.9-0.4-2.6c-0.3-0.8-0.6-1.4-1.1-1.9c-0.4-0.5-1-0.9-1.6-1.1c-0.6-0.3-1.2-0.4-1.9-0.4c-0.7,0-1.4,0.1-2.1,0.4
				c-0.6,0.2-1.2,0.6-1.7,1.1c-0.5,0.5-0.8,1.1-1.1,1.9c-0.3,0.8-0.4,1.6-0.4,2.7v0.2c0,1,0.1,1.9,0.4,2.6c0.3,0.7,0.6,1.4,1.1,1.9
				c0.5,0.5,1,0.9,1.7,1.1C919.2,124.7,920,124.8,920.7,124.8z"/>
			<path id="XMLID_3209_" class="st0" d="M936.5,127c-0.7,0-1.4-0.1-2.1-0.3c-0.7-0.2-1.2-0.5-1.7-0.9c-0.5-0.4-0.9-0.9-1.1-1.5
				c-0.3-0.6-0.4-1.3-0.4-2.1c0-0.9,0.2-1.7,0.7-2.3c0.4-0.6,1-1.1,1.8-1.5c0.7-0.4,1.6-0.7,2.6-0.8c1-0.2,2-0.3,3-0.3h2.3v-1.2
				c0-1.3-0.3-2.2-0.8-2.7c-0.5-0.6-1.4-0.8-2.6-0.8c-2.2,0-3.4,0.9-3.7,2.8h-2.5c0.1-0.9,0.3-1.7,0.7-2.3c0.4-0.6,0.9-1.1,1.4-1.5
				c0.6-0.4,1.2-0.7,2-0.9c0.7-0.2,1.5-0.3,2.2-0.3c0.8,0,1.5,0.1,2.2,0.3c0.7,0.2,1.3,0.5,1.9,0.9c0.5,0.4,1,1,1.3,1.8
				c0.3,0.7,0.5,1.7,0.5,2.8v10.5h-2.5v-2c-0.6,0.8-1.3,1.3-2,1.7C938.7,126.8,937.7,127,936.5,127z M936.8,125
				c0.7,0,1.3-0.1,1.9-0.3c0.6-0.2,1.1-0.4,1.5-0.7c0.4-0.3,0.7-0.7,1-1.2c0.2-0.5,0.4-1,0.4-1.6v-2h-2.2c-0.8,0-1.5,0.1-2.2,0.2
				c-0.7,0.1-1.3,0.3-1.8,0.5c-0.5,0.2-0.9,0.6-1.2,1c-0.3,0.4-0.4,0.9-0.4,1.5c0,0.8,0.2,1.5,0.7,2
				C934.9,124.7,935.6,125,936.8,125z"/>
			<path id="XMLID_3207_" class="st0" d="M962,130.6l-0.2-3.9H949v-16h2.5v13.8h7.5v-13.8h2.5v13.8h2.4v6H962z"/>
			<path id="XMLID_3205_" class="st0" d="M967.4,126.7v-16h2.5V123l8.2-12.3h2.5v16h-2.5v-12.3l-8.2,12.3H967.4z"/>
			<path id="XMLID_3203_" class="st0" d="M985.6,126.7v-16h2.5V123l8.2-12.3h2.5v16h-2.5v-12.3l-8.2,12.3H985.6z"/>
		</g>
	</g>
	<g id="XMLID_3173_">
		<path id="XMLID_3174_" class="st0" d="M228.3,131v-6.2h0V44.7h0.1V26.2h-30.9v5.9h-25.3v6.5h-17.4l0-12.4l-25.2,0l0-6.2l-8.6,0v-6
			l11.8-3.8V1.4L121,5.3v0h-1.5v14.7l-8.5,0l0,6.2l-24.7,0l0,12.3H68.1v-6.1H43.2v-0.1h0v-6.1h-31v18.4h0v82.2h0v4.3H6.1v6.3h228.4
			V131H228.3z M18.4,118.7H37v6.1H18.4V118.7z M37,112.5h-6.3V44.6H37V112.5z M203.6,112.6V44.7h6.2v67.9H203.6z M197.4,124.9h-6.1
			V50.8h6.1V124.9z M67.7,106.3h6.2v18.6h-6.2V106.3z M80.1,106.3h6.2v18.6h-6.2V106.3z M92.4,50.9h6.3v74h-6.3V50.9z M104.9,106.5
			h6.2v2.1v8.3v8.1h-6.2V106.5z M123.4,50.8v49.4h-6.2V50.8L123.4,50.8z M129.6,106.5h6.1v18.4h-6.1V106.5z M141.8,50.9h6.2v74h-6.2
			V50.9z M154.2,106.5h6.2v18.4h-6.2V106.5z M166.6,106.5h6.2v18.4h-6.2V106.5z M179,50.9h6.2v74H179V50.9z M172.8,100.2h-6.2V50.9
			h6.2V100.2z M160.5,100.2h-6.2V50.9h6.2V100.2z M135.7,100.2h-6.1V50.8l6.1,0V100.2z M111.1,100.2h-6.2V50.8l6.2,0V100.2z
			 M86.3,100.2h-6.2V50.9h6.2V100.2z M73.9,100.2h-6.2V50.9h6.2V100.2z M61.6,50.9v74h-6V50.8h5.8v0.1H61.6z M203.6,124.9v-6.1h18.5
			v6.1H203.6z M222.1,112.6H216V44.7h6.1V112.6z M49.4,50.8v74.1h-6.2V50.8H49.4z M24.5,44.6v67.9h-6.1V44.6H24.5z"/>
	</g>
</g>
</svg>
