<svg xmlns="http://www.w3.org/2000/svg" xml:space="preserve" id="Слой_1" x="0" y="0" style="enable-background:new 0 0 458.7 188.6" version="1.1" viewBox="0 0 458.7 188.6"><style>.st0{fill:#fff}.st1{fill:#e6d882}.st2{fill:none}.st3{fill:#ddd7a3}.st4{fill:#a69a47}</style><path d="M152.7 87.1V59.4h19.4v3.7h-14.3v7.8h12.5v3.8h-12.5v8.7h14.5v3.7h-19.6zM217.7 87.1V64.7h-.1l-10.2 10.5-10.2-10.5h-.2v22.4h-5.2V59.4h6l9.5 10 9.4-10h6v27.7h-5zM254 76.2h-4.7v10.9h-5.2V59.4h9.4c6.8 0 11.3 2.3 11.3 8.4 0 5.8-4.7 8.4-10.8 8.4zm-.5-13.1h-4.3v9.5h4.1c2.7 0 6.2-1 6.2-4.8.1-3.4-3.1-4.7-6-4.7zM284.2 87.1V59.4h5.2v27.7h-5.2zM327.2 87.1 319 75.7h-3v11.4h-5.2V59.4h9.3c5.9 0 11 2.1 11 8.1 0 3.3-2.6 6.9-7.1 7.5l9.3 12.1h-6.1zm-7.2-24h-4v9.1h3.5c4.2 0 6.4-1.6 6.4-4.5s-2.1-4.6-5.9-4.6zM352 87.1V59.4h19.4v3.7h-14.3v7.8h12.5v3.8h-12.5v8.7h14.5v3.7H352z" class="st0"/><path d="M172.2 104c2 0 3.7.1 5.1.4 1.4.2 2.7.5 3.9.7.5.1.9.2 1.2.2.3 0 .5.1.8.2.1 0 .2.1.4.3.2.2.2.5.2.9 0 .6.2 1.5.4 2.5.2 1.1.3 2.1.3 3.1 0 .7-.2 1.1-.7 1.1-.3 0-.6-.4-1-1.2-.5-1.4-1.2-2.6-2-3.6-.3-.3-.7-.7-1.2-1.1-.5-.4-1.2-.7-1.9-1-.7-.3-1.6-.6-2.5-.8-.9-.2-1.9-.3-3-.3-2.3 0-4.3.4-6.1 1.3-1.8.8-3.3 2-4.6 3.4-1.2 1.4-2.2 3-2.9 4.9-.7 1.8-1 3.8-1 5.8 0 3.7.8 6.8 2.4 9.3 1.4 2.3 3.3 4.1 5.7 5.3 2.4 1.2 4.8 1.8 7.3 1.8.1 0 .4 0 .8-.1.4 0 .8-.1 1.3-.2s.9-.2 1.4-.4c.5-.2.9-.3 1.3-.6.1-.1.2-.2.3-.4.1-.2.3-.5.4-.7.1-.3.2-.5.3-.8.1-.3.1-.5.1-.7v-3.1c0-.5 0-1-.1-1.4 0-.4 0-.7-.1-.8-.1-.3-.2-.6-.3-.8-.1-.3-.4-.5-.7-.7-.3-.2-.8-.4-1.4-.5-.6-.2-1.4-.3-2.4-.3-.4 0-.7-.1-1-.3-.3-.2-.4-.4-.4-.6 0-.2.1-.3.4-.5.3-.2.7-.2 1.2-.2h1.2c.5 0 1.2 0 1.8.1.6 0 1.3.1 1.9.1h1.5c.6 0 1.4 0 2.2-.1.8-.1 1.7-.1 2.6-.1.4 0 .8.1 1 .2.3.1.4.3.4.5s-.1.3-.4.5c-.3.2-.5.3-.9.4-.8.2-1.3.5-1.5.8s-.3.5-.4.8c-.1.1-.1.4-.1.9s0 1-.1 1.7c0 .6-.1 1.3-.1 2v1.8c0 .4.1.7.3 1 .2.3.3.4.5.5.5.3.8.5.8.6.1.1.1.2.1.4 0 .1-.1.2-.2.4s-.3.3-.6.3c-.5.1-1.2.3-2 .5-.9.2-1.8.4-2.8.7-.6.2-1.2.3-1.9.4-.7.1-1.4.2-2 .3-.7.1-1.3.1-1.9.2-.6 0-1.1.1-1.6.1-3 0-5.7-.4-8.2-1.3-2.4-.8-4.4-2-6.1-3.4-.6-.5-1.2-1.2-1.9-2s-1.3-1.7-1.8-2.8c-.5-1-1-2.2-1.3-3.5-.3-1.3-.5-2.7-.5-4.2 0-2.3.5-4.5 1.4-6.8.9-2.2 2.5-4.3 4.7-6.1 1.7-1.4 3.8-2.6 6.2-3.4 2.7-1.2 5.2-1.6 7.8-1.6zM211.9 104c.1 0 .2.1.3.2.1.2.3.5.5 1.1.2.7.5 1.6 1 2.7.4 1.1.9 2.3 1.4 3.7.7 1.9 1.4 3.9 2.2 5.9.8 2.1 1.6 4.1 2.3 5.9.7 1.9 1.4 3.5 2 4.9.6 1.4 1 2.4 1.2 2.9.4 1.1.8 1.9 1.2 2.5s.7 1.1 1.1 1.4c.4.3.8.6 1.2.8.4.2.9.3 1.6.5.9.3 1.3.6 1.3.9 0 .2-.1.3-.3.5-.2.1-.7.2-1.4.2-.9 0-1.9 0-3.2-.1-1.2-.1-2.4-.1-3.6-.1-.9 0-1.5 0-2 .1-.5 0-1.1.1-1.8.1s-1.1-.1-1.3-.2c-.2-.1-.3-.3-.3-.4 0-.1.1-.3.3-.5.2-.2.5-.3 1-.4.6-.1 1.1-.3 1.4-.5.3-.2.5-.4.7-.6.1-.2.2-.5.1-.7 0-.3-.1-.5-.1-.8-.2-1.1-.6-2.4-1.2-3.9l-1.8-4.8c0-.1-.2-.2-.3-.3-.2-.1-.7-.2-1.5-.2h-5.1c-.8 0-1.6 0-2.3.1-.7 0-1.2.1-1.4.1-.1 0-.2.1-.3.2l-.3.3c-.4.8-.7 1.7-1 2.6-.3.9-.6 1.8-.9 2.6-.3.8-.5 1.6-.6 2.2-.2.7-.2 1.1-.2 1.5 0 .3.1.7.4 1 .3.4 1 .8 2.2 1.1 1 .3 1.4.6 1.4.9 0 .3-.2.5-.5.5-.3.1-.7.1-1 .1-.5 0-1 0-1.7-.1s-1.5-.1-2.5-.1c-.5 0-1 0-1.6.1-.6 0-1.1.1-1.6.1s-1 0-1.4.1c-.4 0-.7.1-.9.1-.5 0-.8 0-1-.1-.2-.1-.2-.2-.2-.4s.1-.3.3-.5c.2-.2.5-.3.9-.5.7-.2 1.2-.4 1.7-.6.4-.2.8-.4 1.2-.7.4-.3.7-.7 1-1.1.3-.5.7-1.1 1-1.9.2-.4.5-1.2 1-2.3.4-1.1 1-2.3 1.6-3.8.6-1.4 1.2-3 1.9-4.6.7-1.7 1.3-3.3 2-4.9.7-1.6 1.3-3.1 1.8-4.5.6-1.4 1-2.6 1.4-3.5.2-.4.3-.8.3-1.1 0-.2 0-.3.1-.4.2-.3.5-.7.9-1.3.3-.5.6-1 .7-1.2.2-.6.5-.8.7-.8zm2.4 18.3s.1-.1.1-.2c.1-.1.1-.2 0-.3-.2-.6-.5-1.6-1-2.7-.4-1.2-.9-2.3-1.3-3.5-.4-1.2-.8-2.2-1.2-3.1-.4-.9-.6-1.5-.7-1.6-.1-.3-.3-.3-.4 0-.3.6-.6 1.5-1 2.6s-.9 2.2-1.3 3.4c-.4 1.2-.8 2.2-1.2 3.2-.4 1-.6 1.7-.7 2.1-.1.2 0 .4.3.4h6.6c.8-.3 1.4-.3 1.8-.3zM248.4 104c1.3 0 2.6.1 3.8.4 1.2.3 2.1.4 2.6.5.2.1.3.2.5.5.1.3.2.4.2.5 0 .2.1.6.1 1 .1.4.1.9.2 1.3s.1.8.2 1.2c.1.4.1.6.1.6 0 .4 0 .8-.1 1 0 .2-.1.4-.3.4-.2 0-.5-.1-.7-.3-.3-.2-.5-.4-.6-.8-.3-.9-.8-1.7-1.3-2.4-.6-.7-1-1.1-1.3-1.3-.5-.4-1.1-.7-1.7-.9-.6-.2-1.3-.3-2.1-.3-1.8 0-3.3.6-4.4 1.7-1.1 1.1-1.7 2.6-1.7 4.3 0 .9.2 1.7.5 2.4s.8 1.3 1.4 1.9c.6.6 1.4 1.2 2.3 1.8.9.6 2 1.3 3.2 2 1 .7 2 1.4 2.9 2 .9.7 1.7 1.4 2.4 2.2.7.8 1.2 1.6 1.6 2.6.4.9.6 2 .6 3.1 0 1.3-.4 2.6-1.1 3.9-.7 1.3-1.8 2.4-3.3 3.3-.9.5-2 1-3.4 1.3-1.4.3-2.7.5-3.9.5-.4 0-1 0-1.6-.1-.6-.1-1.3-.2-2-.3-.7-.1-1.3-.3-1.9-.4-.6-.2-1.1-.3-1.6-.5-.3-.2-.6-.5-.8-.9-.3-.4-.4-.7-.4-.8-.1-.4-.2-.9-.2-1.4-.1-.5-.2-.9-.3-1.4-.1-.4-.2-.8-.2-1.2-.1-.4-.1-.6-.1-.8 0-.1.1-.3.3-.6.2-.3.3-.4.5-.4s.5.3.9.9c.4.6.7 1.3 1.1 2 .4.7.8 1.3 1.4 1.8.6.5 1.2.9 1.8 1.3.7.3 1.3.6 2 .7.7.2 1.2.3 1.7.3 1.9 0 3.4-.6 4.6-1.7 1.2-1.1 1.8-2.6 1.8-4.5 0-.5-.1-1.1-.3-1.7-.2-.6-.5-1.2-1-1.8-.5-.6-1.2-1.3-2-2-.9-.7-2-1.5-3.4-2.4-1.1-.7-2.2-1.4-3.1-2.2-.9-.7-1.8-1.5-2.5-2.3-.7-.8-1.2-1.7-1.6-2.6-.4-.9-.6-1.9-.6-3 0-1.2.3-2.3.8-3.4s1.2-2 2.2-2.8c.8-.7 1.9-1.3 3.2-1.8s2.7-.4 4.6-.4zM285.1 114.7c0-1.2-.2-2.3-.7-3.3-.4-1.1-1.1-2-1.8-2.8-.8-.8-1.7-1.4-2.8-1.9-1.1-.5-2.2-.7-3.5-.7-.5 0-1 .2-1.6.5-.1.1-.2.3-.3.6-.1.3-.2.8-.2 1.4V132c0 .8 0 1.5.1 2s.3.9.5 1.2c.2.3.6.5 1 .7.4.2 1 .4 1.6.6 1 .2 1.4.6 1.4 1 0 .2-.2.4-.6.5-.4.1-.8.1-1.2.1-.7 0-1.5 0-2.4-.1-.9-.1-2-.1-3.2-.1-.8 0-1.7 0-2.7.1-1 .1-1.9.1-2.7.1-1 0-1.5-.2-1.5-.7 0-.2.1-.3.3-.5.2-.2.5-.3.7-.3 1.5-.3 2.5-.8 2.9-1.3.5-.5.7-1.4.8-2.5 0-.6.1-1.3.1-2.1s.1-1.6.1-2.5 0-1.7.1-2.5v-12.4c0-1 0-1.8-.1-2.5v-1.5c0-.4 0-.8-.1-1.2 0-.3-.2-.6-.3-.8-.2-.2-.5-.4-.9-.6-.4-.2-1-.3-1.7-.4-1.1-.2-1.7-.4-1.7-.8 0-.2.1-.4.3-.5.2-.1.5-.2.9-.2H267.6c.5 0 1.2 0 1.9-.1.7 0 1.5-.1 2.4-.1.8-.1 1.6-.1 2.4-.2.8-.1 1.5-.1 2.2-.1 2.5 0 4.5.3 6.1.8 1.6.6 2.9 1.3 3.9 2.2 1.3 1.2 2.1 2.4 2.5 3.7.4 1.3.6 2.4.6 3.2 0 1.1-.1 2.1-.4 3-.3.9-.6 1.6-.9 2.2-.4.6-.8 1.2-1.2 1.6-.4.4-.8.8-1.2 1.1-.7.6-1.6 1.1-2.8 1.6s-2.3.7-3.4.7c-.3 0-.7 0-1.3-.1-.6 0-1.1-.1-1.5-.3-.6-.2-.9-.5-.9-.8 0-.1.1-.2.2-.3.1-.1.3-.2.5-.2h1.3c.7 0 1.5-.2 2.3-.5.8-.3 1.5-.8 2.2-1.5.7-.7 1.2-1.5 1.7-2.6.6-.7.9-2 .9-3.4zM310.6 104c.1 0 .2.1.3.2.1.2.3.5.5 1.1.2.7.5 1.6 1 2.7.4 1.1.9 2.3 1.4 3.7.7 1.9 1.4 3.9 2.2 5.9.8 2.1 1.6 4.1 2.3 5.9.7 1.9 1.4 3.5 2 4.9.6 1.4 1 2.4 1.2 2.9.4 1.1.8 1.9 1.2 2.5.4.6.7 1.1 1.1 1.4.4.3.8.6 1.2.8.4.2.9.3 1.6.5.9.3 1.3.6 1.3.9 0 .2-.1.3-.3.5-.2.1-.7.2-1.4.2-.9 0-1.9 0-3.2-.1-1.2-.1-2.4-.1-3.6-.1-.9 0-1.5 0-2 .1-.5 0-1.1.1-1.8.1s-1.1-.1-1.3-.2c-.2-.1-.3-.3-.3-.4 0-.1.1-.3.3-.5.2-.2.5-.3 1-.4.6-.1 1.1-.3 1.4-.5.3-.2.5-.4.7-.6.1-.2.2-.5.1-.7 0-.3-.1-.5-.1-.8-.2-1.1-.6-2.4-1.2-3.9l-1.8-4.8c0-.1-.2-.2-.3-.3-.2-.1-.7-.2-1.5-.2h-5.1c-.8 0-1.6 0-2.3.1-.7 0-1.2.1-1.4.1-.1 0-.2.1-.3.2l-.3.3c-.4.8-.7 1.7-1 2.6-.3.9-.6 1.8-.9 2.6-.3.8-.5 1.6-.6 2.2-.2.7-.2 1.1-.2 1.5 0 .3.1.7.4 1 .3.4 1 .8 2.2 1.1 1 .3 1.4.6 1.4.9 0 .3-.2.5-.5.5-.3.1-.7.1-1 .1-.5 0-1 0-1.7-.1s-1.5-.1-2.5-.1c-.5 0-1 0-1.6.1-.6 0-1.1.1-1.6.1s-1 0-1.4.1c-.4 0-.7.1-.9.1-.5 0-.8 0-1-.1-.2-.1-.2-.2-.2-.4s.1-.3.3-.5c.2-.2.5-.3.9-.5.7-.2 1.2-.4 1.7-.6.4-.2.8-.4 1.2-.7.4-.3.7-.7 1-1.1.3-.5.7-1.1 1-1.9.2-.4.5-1.2 1-2.3.4-1.1 1-2.3 1.6-3.8.6-1.4 1.2-3 1.9-4.6.7-1.7 1.3-3.3 2-4.9.7-1.6 1.3-3.1 1.8-4.5.6-1.4 1-2.6 1.4-3.5.2-.4.3-.8.3-1.1 0-.2 0-.3.1-.4.2-.3.5-.7.9-1.3.3-.5.6-1 .7-1.2.2-.6.5-.8.7-.8zm2.4 18.3s.1-.1.1-.2c.1-.1.1-.2 0-.3-.2-.6-.5-1.6-1-2.7-.4-1.2-.9-2.3-1.3-3.5-.4-1.2-.8-2.2-1.2-3.1-.4-.9-.6-1.5-.7-1.6-.1-.3-.3-.3-.4 0-.2.6-.6 1.5-1 2.6s-.9 2.2-1.3 3.4c-.4 1.2-.8 2.2-1.2 3.2-.4 1-.6 1.7-.7 2.1-.1.2 0 .4.3.4h6.6c.8-.3 1.4-.3 1.8-.3zM358.7 113.2c0 1.4-.4 2.7-1.2 4-.8 1.3-1.8 2.3-3.2 3.1-.1.1-.4.2-.8.4s-.7.3-.9.5c-.1.1-.1.2-.2.4s-.1.3 0 .4c.1.3.5.9 1.1 1.8.6.9 1.3 2 2.1 3.1.8 1.2 1.7 2.3 2.6 3.6.9 1.2 1.8 2.2 2.6 3.1.7.8 1.5 1.5 2.3 1.9.8.5 1.8.8 3 1.1l.6.3c.2.2.3.3.3.4 0 .2-.1.3-.2.4-.2.1-.3.2-.5.3-.3.1-.8.2-1.3.3-.5.1-1.1.1-1.7.1-.6 0-1.3-.1-2-.3-.7-.2-1.3-.4-2-.7-.6-.3-1.2-.6-1.8-1-.6-.4-1-.9-1.4-1.3-.5-.6-1-1.3-1.6-2.1-.6-.8-1.2-1.6-1.7-2.4-.6-.8-1.2-1.7-1.8-2.6-.6-.9-1.2-1.7-1.7-2.5-.4-.5-.8-1.1-1.2-1.6-.4-.5-.7-.8-.9-.9-.1 0-.2-.1-.5-.2s-.6-.2-.9-.2c-.4-.1-.7-.1-1.2-.2-.4-.1-.8-.1-1.2-.1-.2 0-.3.1-.5.3-.1.2-.2.3-.2.4v4.4c0 1 0 2.1.1 3.2 0 1.1.1 2 .1 2.8 0 1.1.3 1.9.7 2.3s1.3.8 2.5 1.1c.9.2 1.3.5 1.3.9 0 .3-.2.5-.5.5-.4.1-.6.1-.7.1-.6 0-1.1 0-1.5-.1-.4 0-.9-.1-1.4-.1-.5 0-1.1-.1-1.7-.1-.6 0-1.4-.1-2.3-.1h-1c-.4 0-.9 0-1.3.1-.4 0-.9.1-1.2.1h-.8c-.4 0-.7-.1-1-.2-.3-.1-.4-.3-.4-.6 0-.2.1-.3.3-.4s.5-.2.9-.3c.6-.2 1.1-.3 1.5-.5.4-.2.8-.3 1.1-.5.3-.2.5-.5.6-.8.1-.3.2-.7.3-1.2 0-.4.1-1 .1-1.8s.1-1.7.1-2.7c0-1 .1-2 .1-2.9v-2.7c0-4 0-7.1-.1-9.5-.1-2.4-.1-4-.2-5-.1-.5-.2-.9-.2-1.1-.1-.3-.2-.5-.5-.7-.2-.2-.5-.3-.9-.4-.4-.1-.9-.2-1.5-.4-.9-.2-1.3-.5-1.3-.9 0-.2.1-.3.3-.4.2-.1.6-.2 1.2-.2h3c.5 0 1.1 0 1.8-.1.7 0 1.4-.1 2.2-.1.8 0 1.6 0 2.4-.1.8 0 1.6-.1 2.3-.1 1.9 0 3.5.1 4.9.4 1.4.3 2.7.9 3.8 1.7.9.7 1.6 1.6 2.2 2.8.4 1.4.7 2.6.7 3.8zm-4.7.1c0-.6-.2-1.4-.6-2.5-.4-1-1-1.9-1.8-2.7-.6-.6-1.5-1-2.5-1.4-1-.4-2-.5-2.8-.5h-.4c-.2 0-.5 0-.7.1-.3 0-.5.1-.8.1-.3.1-.5.1-.6.2-.1.1-.3.2-.4.5-.1.3-.2.5-.2.6 0 .3-.1.8-.1 1.5s0 1.5-.1 2.4c0 .9 0 1.8-.1 2.8v4.9c0 .6 0 .9.1 1.1.1.2.2.4.3.5.2.2.3.2.5.2 1.6 0 3-.2 4.2-.5 1.2-.3 2.1-.6 2.5-.8.4-.2.7-.5 1.1-.9s.8-.9 1.2-1.4c.4-.5.6-1.1.9-1.8.1-.9.3-1.6.3-2.4zM389.8 104c2.6 0 5 .4 7.2 1.3s4.2 2 5.9 3.6 3 3.3 4 5.4c1 2.1 1.4 4.3 1.4 6.7 0 1.8-.2 3.5-.6 5-.4 1.5-1 2.9-1.7 4.1-.7 1.2-1.5 2.3-2.4 3.3-.9 1-1.9 1.8-2.8 2.4-.9.6-1.8 1.1-2.7 1.4-.9.4-1.9.7-2.8.9s-1.8.4-2.7.5c-.9.1-1.6.2-2.3.2-2.7 0-5.3-.5-7.8-1.6-2.4-1-4.5-2.5-6.1-4.3-1.4-1.5-2.5-3.3-3.3-5.3-.8-2-1.1-4.1-1.1-6.3 0-3.2.6-5.9 2-8.1 1.3-2.2 3-4.1 5-5.7.6-.5 1.4-1 2.3-1.4.9-.4 1.8-.8 2.8-1.1 1-.3 2-.6 3-.7.8-.2 1.7-.3 2.7-.3zm-1.2 1.7c-.6 0-1.2.1-1.8.2-.7.1-1.3.3-2 .6s-1.3.6-1.9.9c-.6.4-1.2.8-1.6 1.2-1.2 1.1-2.2 2.6-3 4.6-.8 2-1.2 4.4-1.2 7.4 0 1.9.3 3.8 1 5.8.7 1.9 1.7 3.7 3 5.3 1.3 1.6 2.8 2.8 4.6 3.8 1.8 1 3.7 1.5 5.9 1.5 1.1 0 2.1-.1 2.9-.3.8-.2 1.5-.4 2.1-.7.6-.3 1-.5 1.4-.8.3-.3.6-.5.7-.7.5-.4 1.1-1 1.6-1.8.5-.7 1-1.6 1.5-2.7.4-1 .8-2.2 1.1-3.4.3-1.3.4-2.7.4-4.2 0-2.8-.6-5.4-1.7-7.9-1.2-2.5-2.7-4.5-4.7-6.1-1.1-.9-2.4-1.5-3.9-2-1.8-.5-3.2-.7-4.4-.7zM414.6 105.3c0-.2.2-.4.5-.5.3-.1.7-.2 1.1-.2.5 0 1.3 0 2.2.1.9.1 2.1.1 3.4.1.9 0 1.9 0 2.9-.1 1 0 1.8-.1 2.4-.1.4 0 .7.1.9.2.2.1.4.3.4.4 0 .2-.1.3-.3.5-.2.2-.5.3-1 .4-.7.1-1.3.3-1.6.5-.4.2-.6.4-.8.6-.1.2-.2.5-.2.7 0 .2 0 .5.1.7.1.4.4 1.2.8 2.2.4 1 .9 2.2 1.4 3.6.5 1.3 1.1 2.8 1.7 4.3.6 1.5 1.2 3 1.8 4.4.6 1.4 1.1 2.8 1.6 4 .5 1.2.9 2.2 1.2 2.9.1.1.2.1.3.2.1.1.2 0 .3-.2.1-.2.3-.7.6-1.5s.8-1.8 1.3-2.9c.5-1.1 1.1-2.4 1.7-3.8l1.8-4.2c.6-1.4 1.2-2.8 1.8-4 .6-1.3 1-2.4 1.4-3.3.3-.7.5-1.3.5-1.7 0-.5-.1-.9-.4-1.1-.3-.3-.6-.5-1-.7-.4-.2-1-.4-1.5-.5-.4-.1-.7-.2-.9-.4-.2-.2-.3-.3-.3-.5s.2-.3.5-.4c.3-.1.7-.2 1.1-.2.6 0 1.2 0 1.9.1.7 0 1.5.1 2.4.1.8 0 1.6 0 2.6-.1.9-.1 1.7-.1 2.2-.1.4 0 .7.1 1.1.2.3.1.5.3.5.5s-.1.4-.4.5c-.3.2-.6.3-1 .3-1.2.3-2.1.7-2.8 1.4-.7.6-1.3 1.5-1.9 2.7-.6 1.3-1.2 2.4-1.7 3.4s-1 2-1.6 3.1c-.5 1.1-1.1 2.3-1.7 3.6s-1.3 3-2.1 4.9c-.8 1.8-1.4 3.3-1.9 4.4-.5 1.1-.9 2.1-1.3 3-.4.9-.7 1.7-.9 2.4-.3.7-.6 1.6-.9 2.6-.1.3-.2.5-.4.8-.2.3-.4.4-.7.4-.2 0-.3-.1-.5-.3-.2-.2-.3-.4-.3-.7-.2-.7-.5-1.9-.9-3.3-.4-1.5-1.1-3.1-1.8-5-.3-.8-.7-1.7-1.1-2.9-.4-1.1-.9-2.4-1.5-3.7-.5-1.3-1.1-2.6-1.6-3.9-.5-1.3-1-2.6-1.5-3.7s-.9-2.1-1.2-3c-.3-.8-.6-1.4-.7-1.7-.5-1.3-1.1-2.3-1.8-3-.7-.7-1.6-1.2-2.8-1.5l-.9-.3c-.4-.3-.5-.5-.5-.7z" class="st1"/><path d="m60.2 97.3-8.3-4.4-7.8-.3 3.3.8 4.1 8.2 9 2.6.1 1.2 1-.1.2-8zM89.5 93.4l3.3-.8-7.8.3-8.3 4.4h-1.6l.2 6.7 2.6-.3 7.5-2.1zM68.8 87.9l.4-1.3 5.4-3-5.8 2-6-2 5.6 3z" class="st2"/><path d="m68.8 95.2.9-3.1L82.5 85l-13.7 4.7L54.5 85l13.3 7.1zM55.2 111.2l1.5-1.9-4.7-3.1-1.4.2zM75.5 113.6l.9-9.4 1.5-.5-2.6.3zM88.8 103.6l-8.7 5.7 1.6 1.9zM61.4 113.6l.2-8.3-1 .1z" class="st2"/><path d="m50.6 106.4 1.4-.2-4-2.6z" class="st2"/><path d="m102.1 53.1-33.2-7.4-34 7.4-20 24.4 7.4 31.6 3.8-.4-7.6-30.6 3.2.5 5.6 30 3.8-.4-7.2-28.9 3.2.5 5.3 28.3 8.2-.8-.6-10.2 1.7-2.4V81.2l6.1-8.6 9.9-2.8 11 4.9 11-4.9 9.9 2.8 6.1 8.6v13.5l1.7 2.4-.2 4.8 9.1-.9 3.9-21.1 3.2-.5-5.3 21.4 3.4-.3 4.1-21.9 3.2-.5-5.5 22.2 3.8-.4 5.2-22.4-20.2-24.4zm-33.3-2.2-27.4 4.8 27.4-7.3 25.9 7-25.9-4.5z" class="st2"/><path d="m106.7 127.2 5-26.7-3.4.3-6.9 27.6 5.1-27.4-9.1.9-.2 6.5-3.8 2.6v3.3l-7.3 8.4v-3.4l3.4-3.7v-2.2l-5 5.1-3.2-2.8v3L84 122v6.1l-4.2 3.5-10.4-4.2v-3.6l7.2-4.4-.9-3.2-6.9 1.8-6.8-1.8-1.5 3.1 7.7 4.4v3.6l-10.5 4.2-4.2-3.5v-6.1l2.8-3.2v-3l-3.2 2.8-5-5.1v2.2l3.4 3.7v3.4l-7.3-8.4V111l-3.8-2.6v-1l-8.2.8 3.8 20.3-5-20.1-3.8.4 3.5 18.5-4.7-18.6-3.8.4 5.5 23.8 41.1 29.4 40.8-29.4 7.6-32.9-3.8.4-6.7 26.8zM68.8 129l9.5 3.5-1.3 5.4-3.5 1.8H64l-3.7-1.9-1.1-5.4 9.6-3.4zm0 29L50 145.2l18.8 9.1 18.2-9.1L68.8 158z" class="st2"/><path d="m14.9 77.5 19.9-24.4 34-7.4 33.3 7.4 20.2 24.4-5.1 22.4 3.4-.3 5.4-23.2-21.7-26.5L68.8 42l-36.4 7.9L11 76.4l7.8 33 3.4-.3z" class="st3"/><path d="m41.4 55.7 27.4-4.8 25.9 4.4-25.9-6.9zM68.8 38.8l25.1 5.4 6.5-11.8-8.8-2.4-2.2 5.7-4.6-.7 2.1-6-8.9-2.1-1.4 5.8-3.7-.7.3-6.4-4.4-1.2-4.4 1.2V32l-4.4.8-1.2-6-8.7 2.2 1.7 5.8-4.1.8-2.4-5.5-8.9 2.1 6.4 12zM26.9 79.8l-3.2-.4 7.2 28.9 1.3-.2zM21.6 78.6l-3.2-.5 7.6 30.6 1.2-.1zM113.6 79.4l-3.2.4-3.9 21.2 1.8-.2zM118.9 78.1l-3.1.5-4.1 21.9 1.7-.2zM48 103.6l4 2.6 8.6-.8-.1-1.2-9-2.6-4.1-8.2-3.3-.8 7.8.2 8.3 4.4h1.6l-.2 8 13.7-1.3-.1-6.7h1.6l8.3-4.4 7.8-.2-3.3.8-4.1 8.2-7.5 2.2 19.4-1.9.2-4.8-1.7-2.4V81.2l-6.1-8.6-9.9-2.8-11 4.9-11-4.9-9.9 2.8-6.1 8.6v13.5L40 97.1l.4 10.3 10.2-1-2.6-2.8zm20.8-18 5.8-2-5.4 3-.4 1.3-.4-1.3-5.6-3 6 2zm0 4.1L82.5 85l-12.8 7.2-.9 3.1-.9-3.1L54.5 85l14.3 4.7z" class="st3"/><path d="m68.8 166.4 43.6-31.5 8.2-35.3-3.4.3-7.6 33-40.8 29.4-41-29.4-5.6-23.8-3.4.3 6 25.5z" class="st4"/><path d="m32.2 108.1-1.3.2 5 20.1zM27.2 108.6l-1.2.1 4.6 18.5zM108.3 100.8l-1.8.2-5.1 27.4zM113.4 100.3l-1.7.2-5 26.7zM49.9 145.1 68.8 158l18.1-12.9-18.2 9.1zM64 139.7h9.5l3.5-1.9 1.3-5.4-9.5-3.4-9.6 3.4 1.1 5.3z" class="st4"/><path d="M44.2 111v3.3l7.3 8.4v-3.4l-3.4-3.7v-2.2l5 5.1 3.2-2.8v3l-2.8 3.2v6.1l4.2 3.5 10.5-4.2v-3.6l-7.7-4.4 1.5-3.1 6.8 1.8 6.9-1.8.9 3.2-7.2 4.4v3.6l10.4 4.2 4.2-3.5V122l-2.8-3.2v-3l3.2 2.8 5-5.1v2.2l-3.4 3.7v3.4l7.3-8.4V111l3.8-2.6.2-6.5-19.4 1.9-1.6.5-.9 9.4-.2-9.6-13.7 1.3-.2 8.3-.8-8.2-8.6.8 4.7 3.1-1.5 1.9-4.6-4.8-10.2 1v1l3.9 2.5zm44.6-7.4-7.2 7.6-1.5-1.9 8.7-5.7z" class="st4"/></svg>