<?xml version="1.0" encoding="utf-8"?>
<!-- Generator: Adobe Illustrator 22.1.0, SVG Export Plug-In . SVG Version: 6.00 Build 0)  -->
<svg version="1.1" id="Слой_1" xmlns="http://www.w3.org/2000/svg" xmlns:xlink="http://www.w3.org/1999/xlink" x="0px" y="0px"
	 viewBox="0 0 1144.5 239.4" style="enable-background:new 0 0 1144.5 239.4;" xml:space="preserve">
<style type="text/css">
	.st0{fill:#FFFFFF;}
</style>
<g>
	<path class="st0" d="M66.1,186.1c7.9,0,16-6.8,16-19.1V95.8h30.1c1.4,0,2.3,0.9,2.3,2.2v74.6c0,9.7,4.3,16.2,10.1,15.7
		c20-2.2,42.3-25.6,42.5-58.7c0.2-16.8-8.5-25.2-13.3-27.6l0.2,0.4c1.3,2.7,1.8,5.4,1.8,7.9c0,9-7.2,16.2-16.2,16.2
		c-10.4,0-16.2-8.1-16.2-16.2s5.8-16.2,18-16.2c21.1,0,30.6,16.4,30.6,36c0,28.5-20,63.4-53,63.4c-13.2,0-27.6-5.8-33.5-17.7
		c-4.3,12.1-17.1,17.5-28.8,17.5c-18,0-37.1-11.5-37.1-33v-60h-8.3c-0.9,0-1.4-1.1-1.4-2.2c0-1.1,0.5-2.3,1.4-2.3h37.8
		c1.6,0,2.9,0.7,2.9,2.2v69.7C52,180.5,58.9,186.1,66.1,186.1z"/>
	<path class="st0" d="M228.4,171.7c0,7.2,3.4,10.8,7,10.8s7.2-3.6,7.2-10.8c0-1.1,1.3-1.6,2.3-1.6c1.1,0,2.2,0.5,2.2,1.6
		c0,14.4-12.8,21.6-25.6,21.6s-25.6-7.2-25.6-21.6v-71.3h-10.3c-0.9,0-1.4-1.1-1.4-2.2c0-1.1,0.5-2.3,1.4-2.3h40.4
		c1.4,0,2.3,0.7,2.3,2.2V171.7z M212.2,47.7c9,0,16.2,7.2,16.2,16.2c0,8.6-7.2,16-16.2,16c-8.6,0-16-7.4-16-16
		C196.2,54.9,203.5,47.7,212.2,47.7z"/>
	<path class="st0" d="M320.8,100.3c-7.4,0-13.3,3.8-19.3,10.1v81.1h-32.2v-91.2H259c-0.9,0-1.4-1.1-1.4-2.2c0-1.1,0.5-2.3,1.4-2.3
		h38.9c1.1,0,1.8,1.1,1.8,2.2v6.7h1.6c6.5-6.1,15.3-10.6,27.6-10.6c16.4,0,35.1,8.5,35.1,33v44.7c0,7.2,3.4,10.8,7,10.8
		s7.2-3.6,7.2-10.8c0-1.1,1.3-1.6,2.3-1.6c1.1,0,2.2,0.5,2.2,1.6c0,14.4-12.8,21.6-25.6,21.6c-12.8,0-25.6-7.2-25.6-21.6v-58.5
		C331.6,104.7,327.3,100.3,320.8,100.3z"/>
	<path class="st0" d="M395.4,143.6c0-32.4,24.1-49.5,48.1-49.5c23.6,0,47.7,16.8,48.1,51.2c0,0-0.4,1.3-1.3,1.3h-61.1
		c0,31.2,6.5,42.3,20.7,42.3c16,0,32.6-8.6,34.8-25c0-0.9,1.1-1.4,2.2-1.4c1.1,0,2.3,0.5,2.3,1.4c-1.3,16.8-19.3,29.5-40,29.5
		C421.9,193.3,395.4,173.1,395.4,143.6z M460.8,141.9v-21.8c0-14.6-7.9-22-15.9-22c-7.9,0-15.9,7.4-15.9,22v21.8H460.8z"/>
	<path class="st0" d="M561.9,174.2c4.3,8.1,14.1,12.1,24.3,12.1c15.9,0,32.8-9.4,32.8-26.1v-12.3c-19.5-1.6-22.7-6.5-28.1-6.5
		c-7.9,0-11.3,6.1-11.3,12.8c0,4.7,1.8,10.1,5,13c-0.2-0.7-1.1-3.4-1.1-5c0-7,5.9-12.6,13-12.6c7.9,0,12.6,6.5,12.6,13
		c0,8.1-6.5,12.8-14.2,12.8c-11.9,0-20.2-12.3-20.2-25.4c0-21.3,23.4-28.3,39.5-28.3c14.4,0,22.3,6.5,34,6.5c7.9,0,15-6.1,15-12.8
		c0-4.5-1.8-9.9-5.2-12.8c0.4,0.5,1.3,3.2,1.3,4.9c0,7-5.9,12.6-13,12.6c-7.9,0-12.6-6.5-12.6-13c0-8.1,6.5-12.8,14.2-12.8
		c11.9,0,20.2,12.3,20.2,25.4c0,18.2-20,28.3-43.6,28.3v12.3c0,22.2-24.1,33.3-49,33.3c-26.7,0-54.2-12.8-54.2-38.9
		c0-16.2,13.9-32.4,43.6-37.6v-1.1c-24.5-0.2-38.2-14.8-38.2-29.4c0-20,24-30.8,46.7-30.8c27.7,0,39.3,13.9,39.3,25.8
		c0,8.8-6.5,16.6-17.1,16.6c-10.3,0-16.9-8.6-16.9-17.1c0-6.5,3.8-13,12.6-15.7c-5.6-2.7-10.4-3.8-14.2-3.8c-11.9,0-16,11.2-16,27.9
		c0,13.2,1.4,25.8,11.9,25.8h14.6c0.5,0,1.3,1.4,1.3,2.7c0,1.4-0.7,2.7-1.3,2.7h-12.6c-13,0-15.5,18.4-15.5,34
		C559.2,160.1,559.7,170.2,561.9,174.2z"/>
	<path class="st0" d="M727.5,104.1v87.4H695v-87.4h-9.5c-0.9,0-1.4-1.1-1.4-2.2s0.5-2.3,1.4-2.3h9.5v-5.9
		c0-34.2,21.3-47.7,41.1-47.7c17.3,0,33.3,10.1,33.3,25.6c0,9.5-5.8,18-16.2,18c-8.1,0-16.2-6.1-16.2-16.2c0-8.6,7-16.2,15.7-16.2
		c2.3,0,3.6,0.2,5.6,0.7c-4.5-4-10.3-6.1-15.5-6.1c-8.1,0-15.3,5.2-15.3,17.7v30.3H746c0.9,0,1.4,1.3,1.4,2.3s-0.5,2.2-1.4,2.2
		H727.5z"/>
	<path class="st0" d="M827.1,193.3c-31.9,0-51.3-20.7-51.3-49.5c0-28.8,19.5-49.7,51.3-49.7c31.9,0,51.3,20.9,51.3,49.7
		C878.4,172.6,859,193.3,827.1,193.3z M844.2,134.9c0-23.6-2.3-36.9-17.1-36.9c-14.8,0-17.1,13.3-17.1,36.9v17.5
		c0,23.6,2.3,36.9,17.1,36.9c14.8,0,17.1-13.3,17.1-36.9V134.9z"/>
	<path class="st0" d="M947.8,193.3c-31.9,0-51.3-20.7-51.3-49.5c0-28.8,19.5-49.7,51.3-49.7c31.9,0,51.3,20.9,51.3,49.7
		C999.2,172.6,979.7,193.3,947.8,193.3z M964.9,134.9c0-23.6-2.3-36.9-17.1-36.9c-14.8,0-17.1,13.3-17.1,36.9v17.5
		c0,23.6,2.3,36.9,17.1,36.9c14.8,0,17.1-13.3,17.1-36.9V134.9z"/>
	<path class="st0" d="M1057.5,193.3c-21.1,0-40.4-20.9-40.4-49.9c0-25,13.9-49.2,41.8-49.2c8.3,0,16.8,1.8,26.5,10.4l-1.8-14V49.4
		c0-1.3,0.4-1.6,2-1.6h40.7c0.9,0,1.4,1.3,1.4,2.3c0,1.1-0.5,2.2-1.4,2.2h-10.3v120c0,7,3.4,10.6,7,10.6c3.4,0,7-3.6,7-10.8
		c0-1.1,1.3-1.6,2.3-1.6c1.1,0,2.2,0.5,2.2,1.6c0,13.7-11.9,21.3-24,21.3c-9.4,0-18.9-4-23.4-16
		C1078.3,188.6,1067.6,193.3,1057.5,193.3z M1068.2,184.5c8.6,0,17.3-8.3,17.3-24.5v-36.7c0-14.6-8.5-22-17.1-22
		c-8.5,0-17.1,7.4-17.1,22v36.9C1051.2,176.5,1059.7,184.5,1068.2,184.5z"/>
</g>
</svg>
