<svg width="200" height="155" fill="none" xmlns="http://www.w3.org/2000/svg"><g clip-path="url(#a)" fill-rule="evenodd" clip-rule="evenodd"><path d="M22.2 85.2H12.1V75.1h10.1v10.1ZM0 85.2h10.1V75.1H0v10.1Zm0-12.1h10.1V63H0v10.1Z" fill="url(#b)"/><path d="m52 78.3-4.7-6.1h3.9l2.8 4.1 2.9-4.1h3.8L56 78.3l5.3 6.9h-4l-3.4-4.8-3.4 4.8h-3.9l5.4-6.9Zm17.9.9h.7v.5c0 .9-.3 1.8-.9 2.4-.7.6-1.6 1-2.6.9-.3 0-.5 0-.8-.1-.3 0-.5-.1-.7-.3-.2-.1-.4-.3-.5-.5-.1-.2-.2-.5-.2-.8 0-.4.2-.9.5-1.2.4-.3.8-.5 1.2-.7.5-.2 1.1-.2 1.6-.3.6.2 1.2.1 1.7.1Zm.8 4.3c-.5.6-1 1.1-1.7 1.4-.8.4-1.6.6-2.5.6-.6 0-1.1-.1-1.7-.2-.6-.1-1.1-.4-1.6-.7-.5-.3-.9-.7-1.2-1.3-.3-.6-.5-1.2-.5-1.9 0-.9.3-1.7.8-2.3.6-.6 1.3-1.1 2.1-1.4.9-.3 1.9-.5 2.9-.6 1-.1 2.1-.2 3.1-.2v-.2c.1-.7-.3-1.4-.9-1.8-.6-.4-1.4-.6-2.1-.6-.7 0-1.4.2-2 .4-.6.3-1.1.6-1.6 1.1l-1.7-2c.7-.7 1.6-1.2 2.6-1.5.9-.3 2-.5 3-.5s2 .1 2.9.5c.7.3 1.3.7 1.8 1.3.4.5.7 1.1.9 1.8.2.6.2 1.3.2 2v7.9h-3v-1.8h.2Zm13.2-8.7c.5.2.8.5 1.1.9l2.2-2c-.6-.7-1.3-1.1-2.1-1.4-.9-.4-1.8-.5-2.7-.5-.9 0-1.9.2-2.7.5-.8.3-1.6.8-2.2 1.4-.6.6-1.2 1.4-1.5 2.2-.4.9-.6 1.9-.6 2.9s.2 2 .6 2.9c.3.8.9 1.6 1.5 2.2.7.6 1.4 1.1 2.3 1.4.9.3 1.8.5 2.7.5.9 0 1.9-.2 2.7-.5.8-.3 1.5-.8 2.1-1.4l-2-2.1c-.3.4-.7.7-1.2.9-.5.2-1 .3-1.5.3-.6 0-1.1-.1-1.6-.4-.4-.2-.8-.6-1.1-1-.3-.4-.6-.9-.7-1.4-.2-.5-.2-1-.2-1.5s.1-1 .2-1.5.4-1 .7-1.4c.3-.4.7-.7 1.1-1 .5-.3 1-.4 1.6-.4.3 0 .8.2 1.3.4Zm4.2-2.7v2.7h2.3v6.1c0 .6.1 1.2.2 1.8.1.5.3 1 .7 1.5.4.5.8.8 1.4 1 .7.3 1.4.4 2.1.4.4 0 .8 0 1.1-.1.4-.1.7-.1 1-.3l-.1-2.6c-.2.1-.4.2-.7.2h-.7c-.5.1-1-.1-1.4-.6-.3-.4-.4-.9-.4-1.4v-6h3.3v-2.6h-3.3v-3.8h-3.3v3.8l-2.2-.1Zm-42.9-6.2H32.4v19.3h13.3v-3.1h-9.8v-5.5h8.8v-2.9h-8.8v-4.9h9.3v-2.9Z" fill="url(#c)"/><path d="M105.4 73.9V70h8v-3.9h-12.6v19.1h4.6v-7.4h7.4V74h-7.4v-.1Zm16.8 5.5h-.6c-.5 0-1 0-1.5.1-.5 0-.9.1-1.4.3-.4.1-.7.3-1 .6-.3.3-.4.6-.4 1 0 .2.1.4.2.6.1.2.3.3.5.4.2.1.4.2.6.2.2 0 .4.1.7.1.8 0 1.5-.3 2.1-.8.5-.5.8-1.3.7-2l.1-.5Zm-5.2-7.5c-1 .4-1.9.9-2.7 1.7l2.2 2.4c.4-.4 1-.7 1.5-1 .6-.3 1.2-.4 1.8-.4.6 0 1.2.1 1.7.5.5.3.7.9.7 1.5v.2c-1 0-2 .1-3 .2-.9.1-1.9.3-2.7.6-.8.3-1.5.7-2 1.4-.6.7-.8 1.5-.8 2.3 0 .7.1 1.4.5 2 .3.5.7 1 1.2 1.4.5.3 1 .6 1.6.7.5.1 1.1.2 1.7.2.8 0 1.5-.1 2.3-.5.6-.3 1.2-.7 1.6-1.3h.1v1.4h4.1v-6.8c0-1-.1-2.1-.4-3.1-.2-.8-.6-1.6-1.1-2.2-.5-.6-1.2-1.1-1.9-1.4-.9-.3-1.9-.4-2.9-.4-1.4 0-2.5.2-3.5.6Zm20.3 3.5c-.2-.1-.4-.1-.6-.1h-.5c-.9 0-1.9.4-2.5 1.1-.2.3-.4.6-.5 1-.1.3-.2.6-.2.9v6.9h-4.4V71.8h4.3v1.9c.3-.7.9-1.3 1.5-1.7.6-.4 1.4-.7 2.2-.7h.5l.4.1-.2 4Zm19.1 2.5v7.3h4.4v-8.3c0-.7-.1-1.3-.3-1.9-.2-.6-.4-1.2-.8-1.8-.4-.6-.9-1-1.5-1.4-.7-.4-1.5-.5-2.3-.5-.9 0-1.8.2-2.6.6-.7.4-1.3 1-1.7 1.7-.4-.7-.9-1.2-1.6-1.6-.8-.4-1.6-.6-2.5-.6-.5 0-.9.1-1.4.2-.4.1-.8.3-1.1.5-.3.2-.6.4-.9.7-.2.3-.4.5-.6.8v-1.9H139v13.4h4.5v-7.3c0-.7.2-1.4.6-2.1.4-.5 1-.9 1.6-.8.6 0 1.1.2 1.4.7.3.5.5 1.2.5 1.8v7.7h4.4v-7.2c0-.4 0-.7.1-1.1.1-.3.2-.7.4-.9.2-.3.4-.5.7-.6.3-.2.6-.3 1-.2.6 0 1.2.3 1.5.8.2.3.3.6.3.9.3.3.4.7.4 1.1Zm6.9-6.1v13.4h4.4V71.8h-4.4Zm32.3 5.3c.3.8.3 1.8 0 2.6s-.9 1.5-1.7 1.8c-.4.2-.9.3-1.4.3-.9 0-1.8-.3-2.3-1-.3-.3-.5-.7-.6-1.1-.1-.4-.2-.9-.2-1.4 0-.5.1-.9.2-1.4.1-.4.4-.8.6-1.1l.9-.6c.4-.2.9-.3 1.4-.3.5 0 .9.1 1.4.3.4.2.7.4 1 .7.3.5.5.8.7 1.2Zm3.9 10.3c.4-1.1.6-2.3.6-3.4V71.8h-4.3v1.7c-.5-.7-1.1-1.3-1.9-1.6-1.6-.7-3.5-.7-5.1 0-.8.4-1.5.9-2 1.5-.5.7-.9 1.5-1.2 2.3-.6 1.7-.6 3.6 0 5.3.3.8.7 1.6 1.3 2.2.6.6 1.2 1.1 2 1.5.9.4 1.8.6 2.7.5.8 0 1.6-.2 2.3-.5.7-.3 1.2-.8 1.7-1.4h.1v.8c0 1-.3 2-.9 2.7-.8.7-1.8 1.1-2.9 1-.8 0-1.6-.1-2.3-.4-.8-.3-1.5-.7-2.1-1.3l-2.2 3.2c1 .7 2.1 1.2 3.2 1.6 1.2.4 2.4.5 3.7.5 1.1 0 2.2-.2 3.2-.5 1.8-.3 3.3-1.7 4.1-3.5ZM179 85.2v-7.3c0-.4 0-.7-.1-1.1l-.3-.9c-.1-.3-.4-.5-.6-.6-.3-.2-.6-.2-1-.2s-.7.1-1 .3c-.3.2-.5.4-.8.6-.2.3-.3.6-.4.9-.1.4-.1.7-.2 1.1v7.3h-4.4V71.8h4.3v1.9c.2-.3.4-.6.6-.8.3-.3.6-.5.9-.7.4-.2.7-.4 1.1-.5.4-.1.9-.2 1.4-.2.8 0 1.6.1 2.3.5.6.3 1.1.7 1.5 1.3.4.5.7 1.1.8 1.8.2.7.2 1.3.2 2v8.3H179v-.2Zm-11-17.8c0 .3-.1.7-.2 1-.1.3-.3.5-.5.8-.2.2-.5.4-.8.5-.3.1-.7.2-1 .2-.7 0-1.3-.2-1.8-.7-.5-.4-.7-1.1-.7-1.7 0-.3.1-.6.2-.9.1-.3.3-.5.5-.8.2-.2.5-.4.8-.5.3-.1.7-.2 1-.2.3 0 .7.1 1 .2.3.1.6.3.8.5.2.2.4.5.5.8.1.2.1.5.2.8Z" fill="url(#d)"/></g><defs><linearGradient id="b" x1="-.378" y1="74.113" x2="196.075" y2="74.113" gradientUnits="userSpaceOnUse"><stop stop-color="#1C8AE2"/><stop offset=".486" stop-color="#8B00B3"/><stop offset="1" stop-color="#6900B5"/></linearGradient><linearGradient id="c" x1="-.377" y1="75.751" x2="196.075" y2="75.751" gradientUnits="userSpaceOnUse"><stop stop-color="#1C8AE2"/><stop offset=".486" stop-color="#8B00B3"/><stop offset="1" stop-color="#6900B5"/></linearGradient><linearGradient id="d" x1="-.378" y1="78.315" x2="196.074" y2="78.315" gradientUnits="userSpaceOnUse"><stop stop-color="#1C8AE2"/><stop offset=".486" stop-color="#8B00B3"/><stop offset="1" stop-color="#6900B5"/></linearGradient><clipPath id="a"><path fill="#fff" d="M0 0h200v155H0z"/></clipPath></defs></svg>