<svg xmlns="http://www.w3.org/2000/svg" xml:space="preserve" id="Layer_1" x="0" y="0" style="enable-background:new 0 0 100 25" version="1.1" viewBox="0 0 100 25"><style>.st54{fill:#f7be3e}</style><path d="M9.002 19.936H4.918v-7.884c0-.957.021-1.833.062-2.628a8.667 8.667 0 0 1-.938.958l-1.69 1.395L.263 9.21l5.113-4.166h3.626v14.892zM19.871 8.13c-.958 0-1.705.393-2.241 1.177-.537.784-.805 1.866-.805 3.244 0 2.866 1.09 4.299 3.27 4.299.659 0 1.297-.092 1.915-.275a19.364 19.364 0 0 0 1.864-.662v3.402c-1.243.55-2.648.825-4.217.825-2.248 0-3.971-.652-5.169-1.956-1.198-1.304-1.798-3.188-1.798-5.653 0-1.541.291-2.896.871-4.063s1.416-2.066 2.506-2.694 2.372-.942 3.845-.942a10.6 10.6 0 0 1 4.614 1.049l-1.232 3.168c-.55-.258-1.1-.475-1.65-.651a5.705 5.705 0 0 0-1.773-.268zM26.043 10.198c0-.618.187-1.097.56-1.437s.91-.509 1.609-.509c.672 0 1.188.169 1.548.509s.54.818.54 1.437c0 .611-.184 1.09-.55 1.436-.367.347-.879.52-1.538.52-.692 0-1.227-.173-1.604-.52-.376-.346-.565-.824-.565-1.436zm0 8.047c0-.625.185-1.107.555-1.446.37-.34.908-.51 1.614-.51.672 0 1.188.17 1.548.51.36.339.54.821.54 1.446 0 .61-.185 1.088-.555 1.431s-.881.515-1.533.515c-.672 0-1.202-.17-1.589-.51-.386-.339-.58-.819-.58-1.436zM46.741 12.47c0 2.506-.615 4.41-1.844 5.714s-3.029 1.956-5.398 1.956c-2.336 0-4.127-.655-5.373-1.966s-1.869-3.219-1.869-5.725c0-2.479.62-4.371 1.859-5.679 1.239-1.307 3.041-1.961 5.404-1.961 2.37 0 4.166.648 5.388 1.945 1.221 1.299 1.833 3.203 1.833 5.716zm-10.247 0c0 2.879 1.002 4.318 3.005 4.318 1.019 0 1.774-.35 2.267-1.049.492-.699.738-1.789.738-3.27 0-1.487-.25-2.586-.749-3.295-.499-.71-1.245-1.064-2.236-1.064-2.017 0-3.025 1.453-3.025 4.36zM56 19.936h-4.023V8.334H48.34v-3.29h11.286v3.29H56v11.602zM70.596 19.936h-8.841V5.044h8.841v3.229h-4.818v2.343h4.461v3.229h-4.461v2.811h4.818v3.28zM85.884 19.936H81.84V8.334h-2.842a93.209 93.209 0 0 1-.626 5.164c-.262 1.752-.511 2.981-.749 3.688s-.538 1.268-.901 1.686-.813.733-1.35.947-1.185.321-1.945.321a5.229 5.229 0 0 1-1.579-.225v-3.106c.407.136.74.204.998.204a.903.903 0 0 0 .81-.443c.187-.296.358-.798.515-1.508.156-.709.373-2.026.652-3.952.278-1.925.536-3.946.774-6.065h10.288v14.891zM99.737 14.995c0 1.589-.542 2.81-1.625 3.662s-2.62 1.278-4.609 1.278h-4.4V5.044h4.043v5.297h.204c2.078 0 3.662.392 4.751 1.176 1.091.785 1.636 1.944 1.636 3.478zm-6.591 1.855h.184c1.575 0 2.363-.584 2.363-1.752 0-1.114-.795-1.671-2.384-1.671h-.163v3.423z" class="st54"/></svg>