<svg width="214" height="69" viewBox="0 0 214 69" fill="none" xmlns="http://www.w3.org/2000/svg">
<path d="M68.8672 30.4667V17.0068H78.2958V18.8047H71.3458V22.5949H77.421V24.4413H71.3458V28.6688H78.393V30.4667L68.8672 30.4667Z" fill="#666666"/>
<path d="M100.461 30.4667V19.5822H100.412L95.4548 24.6844L90.4975 19.5822H90.4003V30.4667H87.873V17.0068H90.7891L95.4062 21.866L99.9747 17.0068H102.891V30.4667H100.461Z" fill="#666666"/>
<path d="M118.099 25.1702H115.814V30.4667H113.287V17.0068H117.856C121.16 17.0068 123.347 18.1244 123.347 21.0885C123.347 23.9068 121.063 25.1702 118.099 25.1702ZM117.856 18.8047H115.766V23.4209H117.758C119.071 23.4209 120.772 22.935 120.772 21.0885C120.82 19.4364 119.265 18.8047 117.856 18.8047Z" fill="#666666"/>
<path d="M132.779 30.4667V17.0068H135.307V30.4667H132.779Z" fill="#666666"/>
<path d="M153.678 30.4667L149.692 24.9273H148.234V30.4667H145.707V17.0068H150.227C153.094 17.0068 155.573 18.0272 155.573 20.9427C155.535 21.8643 155.164 22.7409 154.53 23.4107C153.896 24.0805 153.04 24.4983 152.122 24.5871L156.642 30.4667H153.678ZM150.178 18.8047H148.234V23.2265H149.935C151.976 23.2265 153.046 22.4491 153.046 21.0399C153.046 19.6308 152.025 18.8047 150.178 18.8047Z" fill="#666666"/>
<path d="M165.73 30.4667V17.0068H175.159V18.8047H168.209V22.5949H174.284V24.4413H168.209V28.6688H175.256V30.4667L165.73 30.4667Z" fill="#666666"/>
<path d="M78.3469 38.6792C79.1776 38.6595 80.0081 38.7246 80.8256 38.8736C81.506 38.9708 82.1378 39.1166 82.721 39.2137C82.9124 39.2621 83.1075 39.2946 83.3042 39.3109C83.4385 39.3202 83.5701 39.3531 83.693 39.4081C83.7416 39.4081 83.7902 39.4567 83.8874 39.5539C83.9846 39.6511 83.9846 39.7968 83.9846 39.9912C84.0166 40.4007 84.0816 40.807 84.179 41.206C84.2734 41.7027 84.3222 42.2069 84.3248 42.7124C84.3248 43.0525 84.2276 43.2469 83.9846 43.2469C83.8388 43.2469 83.693 43.0525 83.4986 42.6638C83.274 42.0308 82.9455 41.4396 82.5266 40.9145C82.3425 40.7253 82.1478 40.5469 81.9434 40.38C81.6574 40.1795 81.3471 40.0163 81.02 39.8941C80.6274 39.7285 80.2207 39.5984 79.8049 39.5053C79.3257 39.4038 78.8368 39.355 78.3469 39.3596C77.3226 39.3329 76.3066 39.5494 75.3822 39.9913C74.5322 40.3839 73.7714 40.9461 73.1466 41.6433C72.5373 42.3457 72.0598 43.1524 71.7372 44.0244C71.4032 44.9259 71.2384 45.8814 71.2511 46.8427C71.1952 48.43 71.6003 49.9996 72.4176 51.3617C73.0761 52.467 74.0374 53.3607 75.1878 53.9371C76.2846 54.5051 77.5005 54.8049 78.7357 54.8117C78.8669 54.8119 78.9975 54.7955 79.1245 54.7631C79.3378 54.7509 79.5493 54.7184 79.7563 54.6659C79.989 54.6238 80.2169 54.5587 80.4368 54.4716C80.6599 54.4041 80.8725 54.306 81.0686 54.18C81.1286 54.1246 81.178 54.0588 81.2144 53.9857C81.263 53.8885 81.3602 53.7427 81.4088 53.6455C81.4574 53.4997 81.506 53.4026 81.5546 53.2568C81.5914 53.1473 81.6078 53.032 81.6032 52.9166V51.4103C81.613 51.1824 81.5967 50.9541 81.5546 50.73C81.5546 50.5356 81.5546 50.3899 81.506 50.3413C81.4655 50.2088 81.4168 50.0789 81.3602 49.9525C81.2863 49.8055 81.167 49.6863 81.02 49.6124C80.8116 49.4869 80.5803 49.4043 80.3395 49.3694C79.9607 49.2605 79.5672 49.2113 79.1731 49.2236C78.9998 49.2276 78.8297 49.1766 78.6871 49.0779C78.632 49.0506 78.5851 49.0092 78.551 48.9581C78.5169 48.9069 78.4968 48.8477 78.4927 48.7863C78.4927 48.6891 78.5413 48.6405 78.6871 48.5434C78.8682 48.4559 79.0707 48.4222 79.2704 48.4462H79.8536C80.146 48.4394 80.4385 48.4557 80.7284 48.4948C81.02 48.4948 81.3602 48.5434 81.6518 48.5434H82.3808C82.7379 48.5493 83.095 48.5331 83.45 48.4948C83.8699 48.4534 84.2918 48.4371 84.7136 48.4462C84.8806 48.445 85.046 48.478 85.1997 48.5434C85.2549 48.5556 85.3043 48.5864 85.3397 48.6306C85.3751 48.6748 85.3942 48.7297 85.394 48.7863C85.394 48.8835 85.3454 48.9321 85.1997 49.0293C85.0684 49.1228 84.9196 49.1888 84.7622 49.2236C84.482 49.2663 84.2248 49.4035 84.0332 49.6124C83.9493 49.7315 83.8838 49.8625 83.8388 50.0011C83.7902 50.0497 83.7902 50.1955 83.7902 50.4384C83.7956 50.7146 83.7793 50.9908 83.7416 51.2645C83.7416 51.556 83.693 51.8962 83.693 52.2363V53.111C83.6891 53.2843 83.7401 53.4544 83.8388 53.5969C83.8931 53.7008 83.9779 53.7856 84.0818 53.8398C84.3248 53.9856 84.4706 54.0828 84.4706 54.1314C84.5192 54.18 84.5192 54.2286 84.5192 54.3258C84.5192 54.3744 84.4706 54.4229 84.422 54.5201C84.3932 54.5705 84.3502 54.6112 84.2983 54.6372C84.2464 54.6631 84.188 54.6731 84.1304 54.6659C83.8874 54.7145 83.5472 54.8117 83.1584 54.9089C82.721 55.006 82.2836 55.1032 81.7976 55.249C81.4964 55.3418 81.1873 55.4069 80.8742 55.4434C80.534 55.4919 80.1938 55.5406 79.9022 55.5891C79.562 55.6377 79.2703 55.6378 78.9787 55.6863C78.6871 55.6863 78.4441 55.7349 78.2011 55.7349C76.846 55.7583 75.4973 55.5445 74.2159 55.1032C72.6832 54.644 71.327 53.7286 70.3278 52.4793C69.9702 52.0717 69.6753 51.6132 69.453 51.1187C69.1765 50.5785 68.9644 50.0077 68.8211 49.418C68.6627 48.7492 68.5812 48.0645 68.5781 47.3772C68.593 46.2426 68.8239 45.1212 69.2585 44.073C69.7624 42.9109 70.5474 41.8923 71.5428 41.1088C72.4378 40.3788 73.4592 39.8188 74.5561 39.4567C75.7482 38.9254 77.0418 38.6601 78.3469 38.6792Z" fill="#333333"/>
<path d="M97.6377 38.6787C97.6863 38.6787 97.7349 38.7273 97.7835 38.7759C97.8819 38.9456 97.9632 39.1247 98.0264 39.3104C98.1552 39.7593 98.3177 40.1979 98.5125 40.6224C98.7069 41.1569 98.9499 41.74 99.1929 42.4203C99.5331 43.3435 99.8733 44.3153 100.262 45.2872C100.651 46.3076 101.04 47.2794 101.38 48.1541C101.72 49.0773 102.06 49.8548 102.352 50.5351C102.644 51.2153 102.838 51.7012 102.935 51.9442C103.081 52.3707 103.277 52.7786 103.518 53.159C103.66 53.4124 103.84 53.642 104.053 53.8393C104.236 53.9854 104.431 54.1155 104.636 54.228C104.888 54.3299 105.148 54.4112 105.414 54.4709C105.851 54.6167 106.046 54.7625 106.046 54.9082C106.046 55.0054 105.997 55.054 105.9 55.1512C105.681 55.2269 105.45 55.2599 105.219 55.2484C104.782 55.2484 104.296 55.2484 103.664 55.1998C103.081 55.1512 102.498 55.1512 101.915 55.1512C101.59 55.1377 101.264 55.1539 100.943 55.1998C100.699 55.1998 100.408 55.2484 100.068 55.2484C99.8526 55.2617 99.6371 55.2286 99.4359 55.1512C99.3976 55.1331 99.3643 55.106 99.3389 55.0721C99.3135 55.0382 99.2968 54.9986 99.2901 54.9568C99.3109 54.8621 99.3621 54.7768 99.4359 54.7139C99.5755 54.6031 99.7444 54.5355 99.9219 54.5195C100.163 54.4847 100.394 54.4021 100.602 54.2766C100.726 54.1917 100.84 54.094 100.943 53.985C100.974 53.9348 100.994 53.8786 101.003 53.82C101.011 53.7615 101.007 53.7018 100.991 53.6449C100.991 53.4991 100.943 53.4019 100.943 53.2562C100.811 52.6069 100.615 51.9722 100.359 51.3611L99.4845 49.0287C99.4845 48.9801 99.3873 48.9315 99.3387 48.8829C99.1042 48.804 98.8567 48.771 98.6097 48.7857H96.131C95.7578 48.7766 95.3843 48.7928 95.0132 48.8343C94.673 48.8343 94.43 48.8829 94.3328 48.8829C94.2842 48.8829 94.2356 48.9315 94.187 48.9801L94.0412 49.1259C93.8501 49.5352 93.6877 49.9574 93.5552 50.3893C93.4094 50.8266 93.2636 51.2639 93.1178 51.6526C92.9877 51.9992 92.89 52.3571 92.8262 52.7217C92.7548 52.9578 92.7219 53.2039 92.729 53.4506C92.7281 53.6316 92.7978 53.8059 92.9234 53.9364C93.2144 54.223 93.5887 54.4101 93.9926 54.4709C94.4786 54.6167 94.673 54.7625 94.673 54.9083C94.675 54.9407 94.67 54.9732 94.6585 55.0035C94.647 55.0339 94.6291 55.0614 94.6062 55.0844C94.5832 55.1074 94.5556 55.1252 94.5253 55.1367C94.4949 55.1483 94.4624 55.1532 94.43 55.1512C94.2713 55.1914 94.1075 55.2078 93.944 55.1998C93.6677 55.2052 93.3915 55.1889 93.1178 55.1512C92.7143 55.1076 92.3084 55.0914 91.9027 55.1026C91.6426 55.096 91.3824 55.1123 91.1251 55.1512C90.8335 55.1512 90.5905 55.1998 90.3475 55.1998C90.1196 55.19 89.8913 55.2063 89.6671 55.2484C89.4727 55.2484 89.3269 55.297 89.2297 55.297C89.0661 55.3138 88.9008 55.2972 88.7437 55.2484C88.6465 55.1998 88.6465 55.1512 88.6465 55.054C88.6465 54.9568 88.6951 54.9083 88.7923 54.8111C88.9257 54.7096 89.073 54.6277 89.2297 54.5681C89.5103 54.4864 89.7861 54.389 90.0559 54.2766C90.2605 54.1816 90.4557 54.0677 90.6391 53.9364C90.8257 53.7823 90.9894 53.6023 91.1251 53.4019C91.3171 53.1108 91.4798 52.8016 91.6111 52.4787C91.7083 52.2843 91.8541 51.8956 92.0971 51.3611C92.2916 50.8266 92.5832 50.2435 92.8748 49.5146C93.1664 48.8343 93.458 48.0569 93.7982 47.2795C94.1384 46.4534 94.43 45.6759 94.7702 44.8985C95.1104 44.121 95.402 43.3921 95.645 42.7118C95.9366 42.0316 96.131 41.4484 96.3254 41.0111C96.4129 40.8459 96.4627 40.6634 96.4712 40.4766C96.4712 40.3794 96.4712 40.3308 96.5198 40.2822C96.617 40.1365 96.7628 39.9421 96.9572 39.6506C97.103 39.4076 97.2488 39.1647 97.2974 39.0675C97.3946 38.7759 97.5405 38.6787 97.6377 38.6787ZM98.8041 47.571C98.8305 47.5448 98.8476 47.5106 98.8527 47.4738C98.864 47.4653 98.8732 47.4543 98.8795 47.4416C98.8858 47.429 98.8891 47.415 98.8891 47.4009C98.8891 47.3867 98.8858 47.3728 98.8795 47.3602C98.8732 47.3475 98.864 47.3365 98.8527 47.328C98.7159 46.8817 98.5536 46.4437 98.3667 46.016C98.1723 45.4329 97.9293 44.8984 97.7349 44.3153C97.5405 43.7322 97.3461 43.2463 97.1517 42.809C96.9573 42.3716 96.86 42.0802 96.8114 42.0316C96.7628 41.8858 96.6656 41.8858 96.617 42.0316C96.4712 42.3231 96.3254 42.7604 96.131 43.2949C95.9366 43.8294 95.6936 44.3639 95.4992 44.947C95.3048 45.5301 95.1104 46.016 94.916 46.5019C94.7797 46.834 94.666 47.1749 94.5758 47.5223C94.5272 47.6195 94.5758 47.7167 94.7216 47.7167H97.9292C98.2085 47.6115 98.5057 47.5621 98.8041 47.571Z" fill="#333333"/>
<path d="M115.378 38.6794C116 38.6693 116.62 38.7346 117.225 38.8738C117.808 39.0196 118.246 39.0682 118.489 39.1168C118.593 39.171 118.678 39.2558 118.732 39.3597C118.78 39.5055 118.829 39.5541 118.829 39.6027C118.829 39.6999 118.878 39.8942 118.878 40.0886C118.926 40.2829 118.926 40.5259 118.975 40.7203C119.023 40.9146 119.023 41.109 119.072 41.3034C119.141 41.558 119.141 41.8263 119.072 42.0808C119.072 42.178 119.023 42.2752 118.926 42.2752C118.799 42.2695 118.678 42.2177 118.586 42.1294C118.513 42.0884 118.45 42.0326 118.399 41.9657C118.349 41.8988 118.313 41.8222 118.294 41.7407C118.143 41.3228 117.93 40.9297 117.663 40.5745C117.478 40.3391 117.266 40.1269 117.031 39.9428C116.783 39.7501 116.503 39.6022 116.205 39.5055C115.874 39.4026 115.53 39.3534 115.184 39.3597C114.79 39.3467 114.398 39.4132 114.031 39.5551C113.663 39.697 113.328 39.9115 113.045 40.1858C112.776 40.4615 112.563 40.7883 112.421 41.1471C112.28 41.5059 112.211 41.8895 112.219 42.2752C112.22 42.6764 112.302 43.0733 112.462 43.4414C112.628 43.7897 112.859 44.1031 113.143 44.3646C113.487 44.691 113.861 44.9839 114.26 45.2393C114.698 45.5308 115.233 45.8709 115.816 46.2111C116.302 46.5512 116.788 46.8914 117.225 47.1829C117.647 47.501 118.038 47.859 118.392 48.2519C118.723 48.6239 118.987 49.0516 119.169 49.5153C119.368 49.9922 119.467 50.5049 119.461 51.0216C119.443 51.688 119.259 52.3393 118.926 52.9167C118.548 53.5873 117.993 54.1418 117.322 54.5202C116.807 54.813 116.249 55.0261 115.67 55.152C115.048 55.2984 114.413 55.3798 113.775 55.3949C113.514 55.4001 113.254 55.3838 112.997 55.3463C112.705 55.2977 112.365 55.2491 112.025 55.2005C111.685 55.1519 111.393 55.0548 111.101 55.0062C110.81 54.909 110.567 54.8604 110.324 54.7632C110.159 54.6535 110.025 54.5028 109.935 54.3259C109.838 54.2148 109.772 54.081 109.741 53.9371C109.681 53.7151 109.648 53.4867 109.643 53.2568C109.595 53.0139 109.546 52.8195 109.498 52.5766C109.442 52.3869 109.409 52.1911 109.4 51.9935C109.366 51.8669 109.349 51.736 109.352 51.6048C109.379 51.4981 109.428 51.3985 109.498 51.3132C109.595 51.1674 109.643 51.1188 109.741 51.1188C109.838 51.1188 109.984 51.2646 110.178 51.5562C110.372 51.8477 110.518 52.1878 110.713 52.528C110.884 52.8589 111.114 53.1554 111.393 53.4026C111.673 53.629 111.965 53.8399 112.268 54.0343C112.575 54.1905 112.902 54.3049 113.24 54.3745C113.507 54.462 113.785 54.5111 114.066 54.5203C114.89 54.5463 115.692 54.25 116.302 53.6942C116.597 53.4143 116.827 53.074 116.978 52.6966C117.129 52.3191 117.197 51.9136 117.177 51.5076C117.171 51.2263 117.122 50.9476 117.031 50.6815C116.926 50.3616 116.761 50.0647 116.545 49.8069C116.246 49.4589 115.921 49.1341 115.573 48.8351C115.135 48.4949 114.601 48.1062 113.92 47.6689C113.391 47.3522 112.887 46.9948 112.414 46.5998C111.975 46.2655 111.568 45.8914 111.199 45.4823C110.877 45.1028 110.615 44.6768 110.421 44.2189C110.222 43.759 110.123 43.2622 110.129 42.7612C110.137 42.1887 110.27 41.6248 110.518 41.109C110.759 40.5754 111.126 40.1084 111.587 39.7485C112.052 39.3698 112.578 39.074 113.143 38.8738C113.87 38.6753 114.627 38.6095 115.378 38.6794Z" fill="#333333"/>
<path d="M133.219 43.8778C133.233 43.324 133.117 42.7746 132.879 42.2743C132.674 41.7702 132.378 41.3088 132.004 40.9137C131.611 40.5248 131.15 40.2118 130.643 39.9905C130.108 39.7523 129.527 39.6361 128.942 39.6504C128.667 39.6704 128.401 39.7535 128.164 39.8933C128.096 39.9793 128.046 40.0786 128.019 40.1849C127.952 40.4053 127.919 40.6347 127.921 40.8651V52.2841C127.909 52.6089 127.926 52.934 127.97 53.2559C128.012 53.4644 128.095 53.6625 128.213 53.839C128.345 53.99 128.512 54.1068 128.699 54.1792C128.952 54.2924 129.212 54.3898 129.477 54.4708C129.963 54.568 130.157 54.7623 130.157 54.9567C130.157 55.0538 130.06 55.151 129.865 55.1996C129.674 55.2399 129.478 55.2562 129.282 55.2482C128.893 55.2544 128.503 55.2381 128.116 55.1996C127.599 55.1567 127.079 55.1406 126.56 55.151C126.123 55.1447 125.685 55.1609 125.248 55.1996C124.812 55.2383 124.374 55.2546 123.936 55.2482C123.45 55.2482 123.207 55.151 123.207 54.9081C123.207 54.8109 123.256 54.7623 123.353 54.6651C123.445 54.5768 123.566 54.525 123.693 54.5193C124.217 54.4609 124.71 54.24 125.102 53.8876C125.361 53.536 125.498 53.1094 125.491 52.6729C125.491 52.3813 125.54 52.0412 125.54 51.6525C125.54 51.2637 125.588 50.875 125.588 50.4376C125.579 50.0321 125.596 49.6264 125.637 49.2229V43.1975C125.648 42.792 125.632 42.3861 125.588 41.9828V41.2539C125.596 41.0583 125.58 40.8624 125.54 40.6708C125.521 40.5319 125.471 40.399 125.394 40.2821C125.264 40.1627 125.117 40.0644 124.957 39.9905C124.692 39.8863 124.414 39.8208 124.13 39.7962C123.596 39.699 123.304 39.6018 123.304 39.4074C123.303 39.3574 123.317 39.308 123.342 39.265C123.368 39.2221 123.405 39.1872 123.45 39.1645C123.586 39.0984 123.736 39.0651 123.887 39.0673H124.714C125.022 39.0729 125.331 39.0567 125.637 39.0187C125.977 39.0187 126.366 38.9701 126.803 38.9701C127.192 38.9215 127.581 38.9215 127.97 38.8729C128.325 38.8335 128.682 38.8173 129.039 38.8243C130.041 38.804 131.041 38.9351 132.004 39.2131C132.697 39.4482 133.34 39.8107 133.899 40.2821C134.459 40.7608 134.879 41.3821 135.114 42.08C135.284 42.582 135.382 43.1054 135.406 43.6349C135.42 44.128 135.354 44.6202 135.211 45.0926C135.092 45.459 134.945 45.8163 134.774 46.1616C134.603 46.4378 134.408 46.698 134.191 46.9391C134.009 47.1302 133.814 47.3089 133.608 47.4736C133.198 47.8024 132.738 48.0647 132.247 48.251C131.725 48.4752 131.163 48.5909 130.594 48.5912C130.383 48.5942 130.171 48.5779 129.963 48.5426C129.712 48.551 129.462 48.5011 129.234 48.3968C128.942 48.2996 128.796 48.1539 128.796 48.0081C128.796 47.9595 128.845 47.9109 128.893 47.8623C128.96 47.8015 129.046 47.7669 129.136 47.7651H129.768C130.152 47.7495 130.53 47.6672 130.886 47.5221C131.291 47.3598 131.656 47.1111 131.955 46.7933C132.307 46.4273 132.587 45.9989 132.781 45.5299C133.104 45.0418 133.257 44.4615 133.219 43.8778Z" fill="#333333"/>
<path d="M145.61 38.6787C145.659 38.6787 145.708 38.7273 145.756 38.7759C145.855 38.9456 145.936 39.1247 145.999 39.3104C146.128 39.7593 146.29 40.1979 146.485 40.6224C146.68 41.1569 146.923 41.74 147.166 42.4203C147.506 43.3435 147.846 44.3153 148.235 45.2872C148.624 46.3076 149.012 47.2794 149.353 48.1541C149.693 49.0773 150.033 49.8548 150.325 50.5351C150.616 51.2153 150.811 51.7012 150.908 51.9442C151.053 52.3707 151.249 52.7786 151.491 53.159C151.632 53.4124 151.813 53.642 152.026 53.8393C152.209 53.9854 152.404 54.1155 152.609 54.228C152.861 54.3299 153.121 54.4112 153.387 54.4709C153.824 54.6167 154.018 54.7625 154.018 54.9082C154.018 55.0054 153.97 55.054 153.873 55.1512C153.654 55.2269 153.423 55.2599 153.192 55.2484C152.755 55.2484 152.269 55.2484 151.637 55.1998C151.054 55.1512 150.47 55.1512 149.887 55.1512C149.562 55.1377 149.237 55.1539 148.915 55.1998C148.672 55.1998 148.381 55.2484 148.04 55.2484C147.825 55.2617 147.61 55.2286 147.409 55.1512C147.37 55.1331 147.337 55.106 147.312 55.0721C147.286 55.0382 147.269 54.9986 147.263 54.9568C147.284 54.8621 147.335 54.7768 147.409 54.7139C147.548 54.6031 147.717 54.5355 147.895 54.5195C148.135 54.4847 148.367 54.4021 148.575 54.2766C148.698 54.1917 148.813 54.094 148.915 53.985C148.947 53.9348 148.967 53.8786 148.975 53.82C148.984 53.7615 148.98 53.7018 148.964 53.6449C148.964 53.4991 148.915 53.4019 148.915 53.2562C148.783 52.6069 148.588 51.9722 148.332 51.3611C148.04 50.5836 147.749 49.8062 147.457 49.0287C147.457 48.9801 147.36 48.9315 147.311 48.8829C147.077 48.804 146.829 48.771 146.582 48.7857H144.104C143.73 48.7766 143.357 48.7928 142.986 48.8343C142.646 48.8343 142.403 48.8829 142.305 48.8829C142.257 48.8829 142.208 48.9315 142.16 48.9801L142.014 49.1259C141.823 49.5352 141.66 49.9574 141.528 50.3893C141.382 50.8266 141.236 51.2639 141.09 51.6526C140.96 51.9992 140.863 52.3571 140.799 52.7217C140.727 52.9578 140.695 53.2039 140.702 53.4506C140.701 53.6316 140.771 53.8059 140.896 53.9364C141.187 54.223 141.561 54.4101 141.965 54.4709C142.451 54.6167 142.646 54.7625 142.646 54.9083C142.648 54.9407 142.643 54.9732 142.631 55.0035C142.62 55.0339 142.602 55.0614 142.579 55.0844C142.556 55.1074 142.528 55.1252 142.498 55.1367C142.468 55.1483 142.435 55.1532 142.403 55.1512C142.244 55.1914 142.08 55.2078 141.917 55.1998C141.64 55.2052 141.364 55.1889 141.09 55.1512C140.687 55.1076 140.281 55.0914 139.875 55.1026C139.615 55.096 139.355 55.1123 139.098 55.1512C138.806 55.1512 138.563 55.1998 138.32 55.1998C138.092 55.19 137.864 55.2063 137.64 55.2484C137.445 55.2484 137.3 55.297 137.202 55.297C137.039 55.3138 136.873 55.2972 136.716 55.2484C136.619 55.1998 136.619 55.1512 136.619 55.054C136.619 54.9568 136.668 54.9083 136.765 54.8111C136.898 54.7096 137.046 54.6277 137.202 54.5681C137.483 54.4864 137.759 54.389 138.029 54.2766C138.233 54.1816 138.428 54.0677 138.612 53.9364C138.798 53.7823 138.962 53.6023 139.098 53.4019C139.29 53.1108 139.453 52.8016 139.584 52.4787C139.681 52.2843 139.827 51.8956 140.07 51.3611C140.264 50.8266 140.556 50.2435 140.847 49.5146C141.139 48.8343 141.431 48.0569 141.771 47.2795C142.111 46.4534 142.403 45.6759 142.743 44.8985C143.083 44.121 143.375 43.3921 143.618 42.7118C143.909 42.0316 144.104 41.4484 144.298 41.0111C144.386 40.8459 144.435 40.6634 144.444 40.4766C144.444 40.3794 144.444 40.3308 144.493 40.2822C144.59 40.1365 144.736 39.9421 144.93 39.6506C145.076 39.4076 145.222 39.1647 145.27 39.0675C145.367 38.7759 145.513 38.6787 145.61 38.6787ZM146.777 47.571C146.803 47.5448 146.82 47.5106 146.825 47.4738C146.837 47.4653 146.846 47.4543 146.852 47.4416C146.859 47.429 146.862 47.415 146.862 47.4009C146.862 47.3867 146.859 47.3728 146.852 47.3602C146.846 47.3475 146.837 47.3365 146.825 47.328C146.689 46.8817 146.526 46.4437 146.339 46.016C146.145 45.4329 145.902 44.8984 145.708 44.3153C145.513 43.7322 145.319 43.2463 145.124 42.809C144.93 42.3716 144.833 42.0802 144.784 42.0316C144.736 41.8858 144.638 41.8858 144.59 42.0316C144.493 42.3231 144.298 42.7604 144.104 43.2949C143.909 43.8294 143.666 44.3639 143.472 44.947C143.277 45.5301 143.083 46.016 142.889 46.5019C142.752 46.834 142.639 47.1749 142.549 47.5223C142.5 47.6195 142.548 47.7167 142.694 47.7167H145.902C146.181 47.6115 146.478 47.5621 146.777 47.571Z" fill="#333333"/>
<path d="M168.988 43.1484C168.983 43.8386 168.781 44.5129 168.405 45.0921C168.027 45.7211 167.491 46.2404 166.85 46.5984C166.726 46.6735 166.596 46.7385 166.461 46.7928C166.304 46.8524 166.157 46.9342 166.024 47.0357C165.975 47.0843 165.975 47.1329 165.926 47.2301C165.878 47.3273 165.878 47.3759 165.926 47.4245C166.079 47.7311 166.258 48.0237 166.461 48.2991C166.753 48.7364 167.093 49.2709 167.482 49.8054C167.87 50.3885 168.308 50.9231 168.745 51.5548C169.183 52.1379 169.62 52.6238 170.009 53.0611C170.321 53.436 170.7 53.7491 171.127 53.9843C171.582 54.2361 172.074 54.4164 172.585 54.5189L172.876 54.6646C172.974 54.7618 173.022 54.8104 173.022 54.859C173.021 54.8966 173.012 54.9335 172.995 54.9672C172.979 55.0008 172.955 55.0303 172.925 55.0534C172.828 55.102 172.779 55.1506 172.682 55.1992C172.474 55.2585 172.263 55.3071 172.05 55.3449C171.777 55.3867 171.5 55.403 171.224 55.3935C170.895 55.3892 170.568 55.3402 170.252 55.2478C169.921 55.1562 169.596 55.0425 169.28 54.9076C168.978 54.7644 168.686 54.6021 168.405 54.4217C168.156 54.236 167.928 54.0243 167.725 53.79C167.482 53.4985 167.239 53.1583 166.947 52.7695C166.655 52.3808 166.364 51.9921 166.121 51.6034C165.829 51.2146 165.538 50.7773 165.246 50.34C164.954 49.9027 164.663 49.5139 164.42 49.1252C164.225 48.8822 164.031 48.5907 163.837 48.3477C163.718 48.1772 163.57 48.0291 163.399 47.9104C163.35 47.9104 163.302 47.8618 163.156 47.8132C163.016 47.7578 162.869 47.7251 162.719 47.7161C162.524 47.6675 162.378 47.6674 162.135 47.6189C161.944 47.5786 161.748 47.5623 161.552 47.5703C161.455 47.5703 161.406 47.6189 161.309 47.7161C161.261 47.8132 161.212 47.8618 161.212 47.9104V50.0484C161.212 50.5343 161.212 51.0689 161.261 51.6034C161.261 52.1379 161.309 52.5752 161.309 52.9639C161.278 53.366 161.4 53.7649 161.649 54.0815C162.007 54.3526 162.423 54.5358 162.864 54.6161C163.302 54.7133 163.496 54.859 163.496 55.0534C163.498 55.0858 163.493 55.1182 163.482 55.1486C163.47 55.179 163.452 55.2066 163.43 55.2295C163.407 55.2525 163.379 55.2703 163.349 55.2818C163.318 55.2933 163.286 55.2983 163.253 55.2964C163.143 55.3277 163.028 55.3441 162.913 55.3449C162.669 55.3565 162.424 55.3402 162.184 55.2964C161.99 55.2964 161.747 55.2478 161.504 55.2478C161.261 55.2478 160.969 55.1992 160.677 55.1992C160.386 55.1992 159.997 55.1506 159.56 55.1506H159.074C158.862 55.1426 158.65 55.1589 158.442 55.1992C158.247 55.1992 158.004 55.2478 157.859 55.2478H157.47C157.303 55.2437 157.139 55.2108 156.984 55.1506C156.922 55.1337 156.868 55.0948 156.832 55.0412C156.796 54.9876 156.781 54.9229 156.789 54.859C156.789 54.7618 156.838 54.7133 156.935 54.6647C157.076 54.6013 157.222 54.5524 157.373 54.5189C157.62 54.4527 157.864 54.3715 158.102 54.2759C158.284 54.2041 158.462 54.123 158.636 54.0329C158.774 53.939 158.876 53.8024 158.928 53.6442C158.988 53.4529 159.037 53.2582 159.074 53.0611C159.074 52.8668 159.122 52.5752 159.122 52.1865C159.122 51.7977 159.171 51.3604 159.171 50.8745C159.171 50.3886 159.219 49.9026 159.219 49.4653V48.1534C159.219 46.2097 159.219 44.7034 159.171 43.5372C159.122 42.371 159.122 41.5935 159.074 41.1075C159.03 40.9316 158.998 40.7531 158.976 40.5731C158.942 40.4327 158.855 40.3108 158.733 40.2329C158.607 40.1305 158.456 40.0634 158.296 40.0386C158.102 39.99 157.859 39.9414 157.567 39.8442C157.13 39.747 156.935 39.6012 156.935 39.4069C156.935 39.3097 156.984 39.2611 157.081 39.2125C157.266 39.1388 157.465 39.1057 157.664 39.1153H159.122C159.415 39.1208 159.707 39.1046 159.997 39.0667C160.337 39.0667 160.677 39.0181 161.066 39.0181C161.456 39.0262 161.845 39.0099 162.233 38.9695C162.621 38.9695 163.01 38.9209 163.35 38.9209C164.149 38.9028 164.947 38.968 165.732 39.1153C166.398 39.2592 167.027 39.5406 167.579 39.9414C168.035 40.307 168.401 40.7725 168.648 41.3019C168.846 41.8987 168.961 42.5201 168.988 43.1484ZM166.704 43.197C166.627 42.243 166.214 41.3473 165.538 40.6702C165.18 40.3669 164.768 40.1358 164.323 39.99C163.888 39.8235 163.427 39.741 162.962 39.747H162.767C162.652 39.7392 162.536 39.7557 162.427 39.7956C162.281 39.7956 162.184 39.8442 162.038 39.8442C161.892 39.8928 161.795 39.8928 161.747 39.9414C161.659 40.0009 161.591 40.0856 161.552 40.1843C161.512 40.2787 161.48 40.3762 161.455 40.4759C161.455 40.6216 161.406 40.8646 161.406 41.2047C161.413 41.5941 161.396 41.9834 161.358 42.3709C161.365 42.825 161.349 43.2791 161.309 43.7315V46.1125C161.29 46.2921 161.306 46.4738 161.358 46.647C161.395 46.7341 161.444 46.8159 161.504 46.89C161.532 46.9256 161.57 46.9533 161.612 46.9703C161.655 46.9873 161.701 46.9931 161.747 46.9871C162.434 46.9901 163.12 46.9085 163.788 46.7442C164.204 46.6511 164.61 46.521 165.003 46.3554C165.204 46.2399 165.384 46.0922 165.538 45.9181C165.744 45.7018 165.938 45.4747 166.121 45.2378C166.305 44.9671 166.452 44.6729 166.558 44.3632C166.628 43.9773 166.676 43.5881 166.704 43.197Z" fill="#333333"/>
<path d="M184.5 38.9645C186.845 38.938 189.115 39.787 190.867 41.3455C191.677 42.0877 192.337 42.9784 192.811 43.9694C193.282 44.9888 193.515 46.1022 193.491 47.225C193.499 48.044 193.401 48.8606 193.199 49.6546C193.013 50.3522 192.735 51.0221 192.373 51.6468C192.04 52.2198 191.649 52.7571 191.207 53.2503C190.803 53.6937 190.346 54.0854 189.846 54.4165C189.44 54.6998 188.999 54.9285 188.534 55.0968C188.095 55.2862 187.64 55.4327 187.173 55.5341C186.74 55.6385 186.302 55.7196 185.861 55.777C185.49 55.8294 185.117 55.8619 184.743 55.8742C183.439 55.884 182.147 55.6191 180.952 55.0968C179.42 54.4758 178.112 53.405 177.201 52.0257C176.29 50.6464 175.818 49.0234 175.849 47.3708C175.788 45.9927 176.125 44.6261 176.821 43.4348C177.456 42.3716 178.279 41.433 179.251 40.6651C179.591 40.3891 179.967 40.1603 180.369 39.9849C180.81 39.7776 181.265 39.599 181.73 39.4504C182.204 39.2912 182.692 39.1773 183.188 39.1103C183.617 39.0084 184.058 38.9594 184.5 38.9645ZM183.917 39.7905C183.623 39.7989 183.33 39.8314 183.042 39.8877C182.706 39.9398 182.379 40.0379 182.07 40.1792C181.73 40.325 181.438 40.4708 181.146 40.6166C180.87 40.7871 180.61 40.9823 180.369 41.1997C179.72 41.8248 179.221 42.5891 178.911 43.4349C178.489 44.5853 178.291 45.8058 178.328 47.0306C178.327 47.9909 178.491 48.9442 178.814 49.8489C179.155 50.7817 179.647 51.6518 180.272 52.4243C180.889 53.1801 181.648 53.8074 182.507 54.2707C183.382 54.7609 184.371 55.0123 185.375 54.9996C185.849 55.007 186.322 54.958 186.784 54.8538C187.135 54.7773 187.478 54.6633 187.805 54.5137C188.043 54.4055 188.271 54.2753 188.485 54.1249C188.611 54.0244 188.725 53.9103 188.825 53.7848C189.131 53.5386 189.394 53.2429 189.603 52.9102C189.887 52.4969 190.131 52.0576 190.332 51.5982C190.546 51.0598 190.725 50.5079 190.867 49.9461C191.008 49.2753 191.073 48.5907 191.061 47.9052C191.059 46.5818 190.778 45.2737 190.235 44.0666C189.711 42.9162 188.93 41.9019 187.951 41.1025C187.384 40.6648 186.741 40.3353 186.055 40.1306C185.361 39.9207 184.642 39.8063 183.917 39.7905H183.917Z" fill="#333333"/>
<path d="M196.154 39.3104C196.154 39.2133 196.251 39.1161 196.397 39.0675C196.569 39.0074 196.75 38.9747 196.932 38.9703C197.289 38.9663 197.646 38.9825 198.001 39.0189C198.439 39.0675 199.022 39.0675 199.654 39.0675C200.091 39.0675 200.577 39.0675 201.063 39.0189C201.549 39.0189 201.938 38.9703 202.229 38.9703C202.381 38.9682 202.531 39.0015 202.667 39.0675C202.764 39.1161 202.861 39.2133 202.861 39.2619C202.861 39.3591 202.813 39.4076 202.715 39.5048C202.576 39.6156 202.407 39.6832 202.229 39.6992C201.957 39.7283 201.693 39.8109 201.452 39.9422C201.306 40.0149 201.174 40.1137 201.063 40.2337C201.008 40.3395 200.975 40.4552 200.966 40.5739C200.958 40.6894 200.975 40.8053 201.014 40.914C201.126 41.2768 201.255 41.6336 201.403 41.983C201.598 42.4689 201.841 43.052 202.084 43.7323C202.327 44.364 202.618 45.0929 202.91 45.8217C203.201 46.5506 203.493 47.2795 203.785 47.9598C204.076 48.64 204.319 49.3203 204.562 49.9034C204.805 50.4865 205 50.9724 205.145 51.3126C205.194 51.3612 205.243 51.3612 205.291 51.4098C205.34 51.4583 205.388 51.4098 205.437 51.3126C205.486 51.2154 205.583 50.9724 205.729 50.5837C205.874 50.195 206.117 49.7091 206.36 49.1745C206.603 48.64 206.895 48.0084 207.187 47.3281C207.478 46.6478 207.77 45.9675 208.061 45.2872C208.353 44.607 208.645 43.9267 208.936 43.3436C209.228 42.7119 209.422 42.1774 209.617 41.74C209.746 41.4811 209.828 41.2015 209.86 40.914C209.874 40.8158 209.863 40.7157 209.829 40.6225C209.795 40.5293 209.739 40.4458 209.665 40.3795C209.524 40.2392 209.36 40.1241 209.179 40.0393C208.947 39.9294 208.702 39.8479 208.45 39.7964C208.29 39.7715 208.139 39.7044 208.013 39.602C207.916 39.5048 207.867 39.4562 207.867 39.359C207.867 39.2619 207.964 39.2133 208.11 39.1647C208.282 39.1046 208.462 39.0718 208.645 39.0675C208.953 39.0607 209.262 39.0769 209.568 39.1161C209.908 39.1161 210.297 39.1647 210.735 39.1647C211.156 39.171 211.578 39.1548 211.998 39.1161C212.353 39.0797 212.71 39.0635 213.067 39.0675C213.249 39.0763 213.429 39.1089 213.602 39.1647C213.748 39.2133 213.845 39.3105 213.845 39.4076C213.845 39.4642 213.826 39.5192 213.791 39.5634C213.755 39.6076 213.706 39.6384 213.651 39.6506C213.508 39.7493 213.338 39.8003 213.165 39.7964C212.656 39.8919 212.185 40.1275 211.804 40.4767C211.413 40.8495 211.099 41.2952 210.88 41.7886C210.589 42.4203 210.297 42.9548 210.054 43.4407C209.811 43.9266 209.568 44.4126 209.277 44.9471C209.034 45.4816 208.742 46.0647 208.45 46.6964C208.159 47.3281 207.818 48.1541 207.43 49.0774C207.041 49.952 206.749 50.6809 206.506 51.2154C206.263 51.7499 206.069 52.2358 205.874 52.6731C205.702 53.0514 205.556 53.441 205.437 53.8393C205.269 54.2523 205.123 54.674 205 55.1027C204.955 55.2413 204.889 55.3723 204.805 55.4915C204.773 55.5527 204.723 55.6034 204.663 55.6378C204.603 55.6722 204.534 55.6889 204.465 55.6858C204.368 55.6858 204.319 55.6372 204.222 55.54C204.175 55.4973 204.137 55.4447 204.112 55.386C204.087 55.3273 204.074 55.2637 204.076 55.1999C203.979 54.8597 203.833 54.2766 203.639 53.5963C203.444 52.8675 203.104 52.09 202.764 51.1668C202.618 50.7781 202.424 50.3407 202.229 49.7576C202.035 49.2231 201.792 48.5915 201.5 47.9598C201.257 47.3281 200.966 46.6964 200.723 46.0647C200.48 45.433 200.237 44.8013 199.994 44.2668C199.774 43.7913 199.58 43.3047 199.411 42.809C199.265 42.4203 199.119 42.1287 199.07 41.983C198.883 41.4418 198.585 40.9455 198.196 40.5253C197.819 40.1605 197.347 39.9081 196.835 39.7964L196.397 39.6506C196.203 39.5048 196.154 39.4076 196.154 39.3104Z" fill="#333333"/>
<path d="M1.89499 25.8022L11.567 13.9458L28.0913 10.3501L44.2759 13.9458L54.0933 25.8022L51.6142 36.6866L53.2666 36.5404L55.8911 25.2672L45.3451 12.3909L28.0913 8.55176L10.4006 12.3909L0 25.2672L3.79088 41.3024L5.44331 41.157L1.89499 25.8022Z" fill="#666666"/>
<path d="M14.7773 15.2097L28.094 12.8773L40.6821 15.0154L28.094 11.6621L14.7773 15.2097Z" fill="#666666"/>
<path d="M28.0885 6.99712L40.2877 9.62111L43.4463 3.8873L39.1694 2.72112L38.1002 5.49127L35.8646 5.15067L36.8856 2.23522L32.5597 1.21521L31.8793 4.03352L30.0816 3.69292L30.2269 0.583089L28.0885 0L25.95 0.583089V3.69292L23.8116 4.08168L23.2284 1.16618L18.9997 2.23522L19.8263 5.05348L17.8332 5.44224L16.6668 2.77015L12.3418 3.79011L15.4522 9.62111L28.0885 6.99712Z" fill="#666666"/>
<path d="M7.72905 26.92L6.17383 26.7256L9.67308 40.769L10.3054 40.6718L7.72905 26.92Z" fill="#666666"/>
<path d="M5.15484 26.3353L3.59961 26.0928L7.29331 40.9618L7.87651 40.9128L5.15484 26.3353Z" fill="#666666"/>
<path d="M49.8643 26.7256L48.3091 26.92L46.4141 37.2214L47.2889 37.1242L49.8643 26.7256Z" fill="#666666"/>
<path d="M52.4387 26.0928L50.9316 26.3353L48.9395 36.9773L49.7652 36.8801L52.4387 26.0928Z" fill="#666666"/>
<path d="M17.9838 38.4845L19.9278 39.7478L24.1075 39.3591L24.0589 38.776L19.6848 37.5126L17.6922 33.5281L16.0884 33.1394L19.8792 33.2366L23.9131 35.3746H24.6907L24.5935 39.2619L31.2518 38.6302L31.2032 35.3746H31.9809L36.0147 33.2366L39.8056 33.1394L38.2018 33.5281L36.2091 37.5126L32.5641 38.5816L41.9926 37.6584L42.0898 35.326L41.2636 34.1598V27.6L38.2989 23.4211L33.4874 22.0605L28.1414 24.4415L22.7953 22.0605L17.9838 23.4211L15.0191 27.6V34.1598L14.0957 35.326L14.2901 40.3309L19.2474 39.845L17.9838 38.4845ZM28.0928 29.738L30.9116 28.7662L28.2872 30.2239L28.0928 30.8556L27.8984 30.2239L25.1767 28.7662L28.0928 29.738ZM28.0928 31.7303L34.7511 29.4465L28.5302 32.9451L28.0928 34.4514L27.6554 32.9451L21.1429 29.4465L28.0928 31.7303Z" fill="#666666"/>
<path d="M28.0934 69L49.2834 53.6941L53.2687 36.541L51.6163 36.6872L47.9226 52.7224L28.0934 67.0082L8.16705 52.7224L5.4454 41.1576L3.79297 41.303L6.70901 53.6941L28.0934 69Z" fill="#333333"/>
<path d="M10.3002 40.6709L9.66797 40.7681L12.098 50.5346L10.3002 40.6709Z" fill="#333333"/>
<path d="M7.87617 40.9141L7.29297 40.9631L9.52858 49.9521L7.87617 40.9141Z" fill="#333333"/>
<path d="M47.2895 37.123L46.4147 37.2202L43.9355 50.5342L47.2895 37.123Z" fill="#333333"/>
<path d="M49.7695 36.8818L48.9437 36.979L46.5137 49.9525L49.7695 36.8818Z" fill="#333333"/>
<path d="M18.9062 58.6494L28.0923 64.9173L36.8895 58.6494L28.0441 63.0708L18.9062 58.6494Z" fill="#333333"/>
<path d="M25.7547 56.0268H30.3722L32.0728 55.1031L32.7051 52.4792L28.0875 50.8271L23.4219 52.4792L23.9569 55.055L25.7547 56.0268Z" fill="#333333"/>
<path d="M16.1337 42.081V43.6845L19.6816 47.7662V46.1141L18.0291 44.3162V43.2472L20.4592 45.7253L22.0144 44.3648V45.8225L20.6536 47.3775V50.3416L22.6948 52.0422L27.7979 50.0014V48.2521L24.0556 46.1141L24.7847 44.6078L28.0895 45.4824L31.443 44.6078L31.8804 46.1627L28.3811 48.3007V50.05L33.4356 52.0908L35.4769 50.3902V47.4261L34.116 45.8711V44.4134L35.6713 45.7739L38.1013 43.2958V44.3648L36.4489 46.1627V47.8148L39.9968 43.7331V42.081L41.8436 40.8177L41.9408 37.6592L32.5122 38.5824L31.7346 38.8254L31.2972 43.393L31.2 38.7282L24.5417 39.3599L24.4444 43.393L24.0557 39.4085L19.876 39.7973L22.1602 41.3036L21.4312 42.2268L19.1956 39.8945L14.2383 40.3804V40.8662L16.1337 42.081ZM37.8097 38.4852L34.3105 42.1782L33.5815 41.255L37.8097 38.4852Z" fill="#333333"/>
</svg>
