<svg width="256" height="278" viewBox="0 0 256 278" fill="none" xmlns="http://www.w3.org/2000/svg">
<path d="M43.9534 52.6499C47.3599 56.4224 49.1616 61.3491 52.3992 65.1778C55.824 68.9673 59.7893 72.2306 64.167 74.8623C71.6933 79.2135 79.9269 82.2058 88.4907 83.7022C91.2222 84.5661 94.1286 84.7211 96.9365 84.1526C99.3576 83.308 99.1043 80.8588 97.6122 79.2259C95.048 76.8552 92.0318 75.0264 88.7441 73.8488C84.2472 71.8229 79.642 70.0466 74.9494 68.528C63.9699 64.9526 52.174 61.2646 44.8261 51.8053C44.2631 51.0452 42.9399 52.0587 43.503 52.8188C48.9083 60.0259 57.0162 64.0799 65.293 67.1485C73.9075 69.8733 82.366 73.0687 90.6303 76.7203C91.7283 77.2552 98.316 80.4365 96.7957 82.3509C96.2608 82.9984 94.7125 82.8576 93.9805 82.8576C92.436 82.8009 90.9 82.603 89.3916 82.2664C81.5334 81.0011 73.9292 78.4823 66.8696 74.806C61.9844 72.1368 57.5558 68.7061 53.7505 64.6429C50.2033 60.786 48.12 55.7467 44.2912 52.2276C44.2209 52.1815 44.1368 52.161 44.0531 52.1696C43.9694 52.1782 43.8912 52.2154 43.8317 52.2749C43.7723 52.3344 43.7351 52.4125 43.7265 52.4962C43.7179 52.5799 43.7384 52.664 43.7845 52.7344L43.9534 52.6499Z" fill="#D7D8D7"/>
<path d="M44.542 52.199C40.7414 46.1462 34.0692 44.1755 27.8475 41.501C24.4411 40.0371 21.0346 38.5168 17.7407 36.7714C14.2499 34.8295 10.9914 32.4966 8.02813 29.8177C7.49323 29.3391 6.53604 29.9585 7.01463 30.5778C11.2094 36.4617 18.8105 39.3614 25.2012 42.1767C31.5918 44.9919 39.4464 46.5966 43.8663 52.5931C44.1479 52.9591 44.7954 52.5931 44.542 52.199Z" fill="#D7D8D7"/>
<path d="M61.4097 55.9151C56.218 54.6013 51.2674 52.4728 46.7422 49.609C44.6123 48.2328 42.3927 47.0007 40.0982 45.921C38.9949 45.4404 37.8672 45.0175 36.7199 44.6541C35.7355 44.1945 34.6509 43.9911 33.5668 44.0629C33.4839 44.0853 33.4085 44.1296 33.3486 44.1911C33.2886 44.2526 33.2464 44.3292 33.2262 44.4127C33.2061 44.4962 33.2088 44.5836 33.234 44.6657C33.2593 44.7478 33.3062 44.8216 33.3698 44.8793C34.2945 45.4343 35.3171 45.807 36.3821 45.9773C37.6489 46.3433 38.8595 46.7937 40.0982 47.2441C42.5567 48.2231 44.9139 49.4394 47.1363 50.8758C51.4565 53.6187 56.2966 55.4397 61.3534 56.2248C61.3907 56.2248 61.4265 56.21 61.4529 56.1836C61.4793 56.1572 61.4941 56.1214 61.4941 56.084C61.4941 56.0467 61.4793 56.0109 61.4529 55.9845C61.4265 55.9581 61.3907 55.9433 61.3534 55.9433L61.4097 55.9151Z" fill="#D7D8D7"/>
<path d="M56.9617 55.2973C74.9512 61.7724 94.0949 72.6111 113.745 67.7689C116.561 67.0651 126.02 65.0944 125.006 60.4211C124.19 56.9583 119.742 56.8738 116.955 57.0146C110.986 57.3243 104.934 56.8738 98.9372 56.7612C92.1524 56.5923 85.3676 56.7612 78.5547 56.5642C71.4207 56.3435 64.3051 55.7137 57.2432 54.6779C57.1214 54.6745 57.0021 54.7128 56.905 54.7865C56.808 54.8601 56.7389 54.9647 56.7094 55.0829C56.6798 55.2011 56.6915 55.3259 56.7425 55.4365C56.7935 55.5472 56.8808 55.6371 56.9899 55.6914C67.6034 58.7319 79.1178 58.3378 90.041 58.3659C95.6715 58.3659 101.555 58.5348 107.298 58.7038C109.86 58.7038 112.394 58.8445 114.956 58.7038C117.035 58.4356 119.144 58.4926 121.206 58.8727C122.135 59.1823 123.599 60.0551 123.317 61.2375C123.036 62.4199 121.966 62.7577 121.262 63.18C118.832 64.4671 116.236 65.4144 113.548 65.9953C106.484 67.6559 99.1318 67.6559 92.0679 65.9953C80.1031 63.4334 69.1236 57.5495 57.1588 54.9595C56.9898 54.9595 56.9335 55.1565 57.1588 55.2128L56.9617 55.2973Z" fill="#D7D8D7"/>
<path d="M88.577 44.2327C80.1735 45.2693 71.7033 45.6646 63.2397 45.4151C59.974 45.2462 56.7083 44.9365 53.4145 44.6831C49.4731 44.3735 45.5036 44.2608 41.5623 43.8667C38.747 43.5852 36.1007 43.1347 33.398 42.5998C31.1401 41.941 28.8339 41.4609 26.5006 41.1641C25.8531 41.1641 25.7124 41.9805 26.191 42.3183C28.033 43.3141 30.05 43.945 32.1312 44.1764C34.4115 44.6268 36.72 44.9928 39.0567 45.2462C43.2796 45.7248 47.5025 45.6685 51.7816 45.95C58.6024 46.5972 65.4549 46.851 72.3048 46.7101C77.8163 46.3907 83.3053 45.761 88.7459 44.8239C89.0838 44.8239 88.9993 44.2045 88.7459 44.2327L88.577 44.2327Z" fill="#D7D8D7"/>
<path d="M83.7924 45.4409C89.1976 45.8914 94.6029 46.0321 99.9801 46.6515C105.357 47.2708 110.199 48.1154 115.351 48.7629C120.455 49.4805 125.627 49.5656 130.751 49.0163C134.192 48.8623 137.573 48.06 140.717 46.6515C142.49 45.6098 143.532 43.4421 141.646 41.95C139.665 40.7676 137.42 40.0998 135.114 40.0075C130.3 39.36 125.486 38.8532 120.644 38.5154C115.378 37.9808 110.075 37.896 104.794 38.262C100.642 38.7605 96.5547 39.7044 92.6041 41.0773C88.7754 42.2878 84.8622 43.4702 81.146 45.0468C80.6111 45.272 81.146 46.0884 81.5401 45.9477C87.9871 44.2304 94.2651 42.0063 100.825 40.655C109.496 38.8532 118.842 39.9793 127.57 40.7958C130.893 41.0153 134.201 41.4194 137.479 42.0063C138.554 42.126 139.596 42.4509 140.548 42.9635C142.181 44.1178 140.266 45.3565 139.028 45.7788C137.599 46.2882 136.116 46.6284 134.608 46.7922C132.693 47.1301 130.807 47.4961 128.836 47.665C124.235 47.9797 119.613 47.8288 115.042 47.2145C104.71 46.004 94.2932 43.8644 83.8205 44.6526C83.7234 44.6526 83.6303 44.6912 83.5617 44.7598C83.4931 44.8285 83.4545 44.9216 83.4545 45.0186C83.4545 45.1157 83.4931 45.2088 83.5617 45.2774C83.6303 45.3461 83.7234 45.3846 83.8205 45.3846L83.7924 45.4409Z" fill="#D7D8D7"/>
<path d="M66.9829 171.65C65.5189 166.61 62.7037 162.134 61.1834 157.123C59.7835 151.666 59.2889 146.017 59.7195 140.4C59.8884 134.77 60.1418 129.393 59.7195 123.903C59.3602 118.563 58.5598 113.261 57.3265 108.053C56.0314 102.109 54.1452 96.3084 51.696 90.7392C51.2737 89.8384 49.669 90.4859 50.035 91.4431C54.2693 101.587 56.9459 112.312 57.974 123.255C58.2697 128.751 58.2697 134.258 57.974 139.753C57.6369 144.97 58.0829 150.208 59.2972 155.293C60.9582 161.121 64.5336 166.075 66.5042 171.931C66.5308 171.984 66.5752 172.027 66.6297 172.05C66.6843 172.074 66.7454 172.078 66.8025 172.061C66.8595 172.044 66.9089 172.008 66.9419 171.959C66.9748 171.909 66.9894 171.85 66.9829 171.79L66.9829 171.65Z" fill="#D7D8D7"/>
<path d="M118.023 109.209C106.334 109.188 94.7094 107.482 83.508 104.141C77.9053 102.464 72.4375 100.365 67.1514 97.8632C61.8587 95.3576 57.0446 92.2327 51.9771 89.4174C50.9355 88.8262 49.6405 90.3464 50.654 91.1629C55.4159 94.6603 60.5874 97.5628 66.0534 99.8057C71.4523 102.254 77.0225 104.305 82.7197 105.943C94.1509 109.392 106.108 110.765 118.023 109.997C118.502 109.997 118.53 109.209 118.023 109.209Z" fill="#D7D8D7"/>
<path d="M179.143 187.106C147.715 173.029 118.663 154.158 93.0241 131.167C67.3724 108.077 44.5758 82.0009 25.1202 53.4942C19.3514 45.3275 14.0048 36.8706 9.10136 28.1569C6.60521 23.7542 4.35884 19.2144 2.37291 14.5592C0.514846 10.1111 -0.892761 5.49409 -2.41301 0.933373C-2.77899 -0.136424 -4.63705 -0.0238139 -4.49629 1.2149C-3.56725 9.66066 0.458541 17.8531 4.31544 25.3135C8.55575 33.4383 13.2555 41.315 18.3917 48.9053C28.0775 63.3234 38.5276 77.2131 49.6974 90.5148C72.0044 117.463 98.0456 141.086 127.032 160.671C143.303 171.54 160.653 180.701 178.805 188.007C179.255 188.204 179.593 187.416 179.143 187.219L179.143 187.106Z" fill="#D7D8D7"/>
<path d="M63.2102 163.092C64.659 167.678 66.4083 172.164 68.4466 176.52C70.3328 180.912 72.3598 185.219 74.6401 189.414C78.3562 196.114 82.4665 204.222 89.4202 208.051C90.6026 208.699 92.2355 209.318 92.9111 207.685C93.2832 205.717 93.0373 203.681 92.2073 201.858C90.1599 196.068 87.3174 190.592 83.7615 185.585C78.4063 176.914 71.6522 169.19 63.7732 162.726C62.8442 161.965 61.4929 163.317 62.4501 164.077C68.9013 169.117 74.5906 175.062 79.3416 181.729C81.7346 185.107 83.9868 188.626 86.1545 192.145C87.4916 194.21 88.6681 196.375 89.6736 198.62C90.5293 200.563 91.2077 202.58 91.7006 204.645C91.9744 205.441 92.0422 206.293 91.8976 207.122C91.4753 208.192 90.2366 207.122 89.5328 206.812C83.1703 203.068 79.3697 195.551 75.8507 189.47C73.5262 185.309 71.4121 181.034 69.5163 176.661C67.5175 172.129 65.941 167.314 63.6606 162.923C63.6382 162.867 63.5945 162.822 63.5391 162.798C63.4836 162.774 63.421 162.774 63.365 162.796C63.309 162.818 63.2642 162.862 63.2405 162.918C63.2167 162.973 63.2159 163.036 63.2383 163.092L63.2102 163.092Z" fill="#D7D8D7"/>
<path d="M56.7093 152.591C52.6553 162.078 53.4999 172.973 55.1046 182.883C56.9627 194.144 60.4817 205.405 60.9322 216.976C60.9322 220.27 61.2981 225.9 56.7937 226.407C52.2893 226.914 50.2905 220.776 49.1362 217.595C45.3075 206.7 46.5181 195.073 48.1791 183.812C49.1121 178.548 50.5353 173.383 52.4301 168.384C54.5897 163.411 56.341 158.27 57.6665 153.013C57.6665 152.337 56.85 151.803 56.4841 152.506C54.2796 157.119 52.3983 161.879 50.8535 166.752C49.0076 171.641 47.5486 176.667 46.4899 181.785C45.4572 187.504 44.8456 193.291 44.66 199.099C44.3778 205.145 45.1494 211.194 46.9403 216.976C48.1791 220.804 49.7556 226.013 53.7814 227.814C55.0616 228.384 56.4987 228.496 57.8519 228.133C59.205 227.769 60.392 226.951 61.2137 225.816C62.2204 224.329 62.7506 222.571 62.7339 220.776C62.8274 217.644 62.6673 214.508 62.2553 211.401C61.5515 205.405 60.2846 199.493 58.9896 193.581C57.3737 186.883 56.2167 180.082 55.5269 173.227C54.9669 166.43 55.6054 159.589 57.4131 153.013C57.4131 152.619 56.8782 152.309 56.7093 152.703L56.7093 152.591Z" fill="#D7D8D7"/>
<path d="M55.2441 159.264C57.8833 154.833 59.3015 149.782 59.3544 144.625C59.6078 141.809 59.833 138.994 59.9175 135.982L59.9175 131.646C60.0643 130.223 59.9691 128.786 59.6359 127.395C59.5816 127.233 59.4776 127.092 59.3387 126.992C59.1998 126.892 59.0329 126.838 58.8617 126.838C58.6906 126.838 58.5237 126.892 58.3848 126.992C58.2459 127.092 58.1419 127.233 58.0875 127.395C57.8244 128.692 57.7579 130.02 57.8905 131.337L57.8905 135.672C57.8905 138.487 57.7216 141.021 57.5245 143.695C57.4135 146.288 57.1597 148.873 56.7644 151.437C56.2069 153.996 55.3763 156.488 54.287 158.87C54.0336 159.461 54.9063 159.714 55.2441 159.264Z" fill="#D7D8D7"/>
<path d="M44.5718 120.609C38.519 128.886 35.4222 139.612 33.5641 149.409C31.7073 159.794 30.6625 170.308 30.4392 180.855C30.4392 184.093 29.3412 188.991 26.0755 190.596C25.1347 190.933 24.1077 190.941 23.1618 190.619C22.216 190.296 21.4071 189.663 20.8673 188.823C19.501 186.863 18.8183 184.508 18.9248 182.122C18.6747 177.115 18.9483 172.095 19.7412 167.145C20.8161 161.529 22.4671 156.038 24.6679 150.76C26.7062 145.529 29.2919 140.527 32.3817 135.839C35.635 131.123 39.5945 126.936 44.1213 123.424C44.8251 122.833 43.8961 121.679 43.136 122.157C34.0709 127.788 28.1588 137.81 24.0204 147.495C21.6239 152.851 19.7387 158.422 18.3899 164.133C17.3304 169.594 16.8585 175.153 16.9823 180.715C16.9823 185.022 17.6861 189.695 21.74 191.976C22.4261 192.381 23.1905 192.636 23.9826 192.725C24.7746 192.813 25.5764 192.732 26.3348 192.487C27.0933 192.242 27.7911 191.839 28.3822 191.304C28.9732 190.77 29.4441 190.116 29.7635 189.386C32.2128 185.501 32.1002 180.94 32.2973 176.661C32.5506 170.777 32.9729 164.865 33.6767 159.009C34.405 152.459 35.6763 145.98 37.4773 139.64C39.4685 133.184 42.0116 126.911 45.0785 120.89C45.1144 120.854 45.1416 120.81 45.158 120.762C45.1743 120.713 45.1795 120.662 45.1731 120.611C45.1667 120.56 45.1488 120.511 45.1209 120.469C45.0929 120.426 45.0556 120.39 45.0118 120.364C44.9679 120.337 44.9187 120.321 44.8677 120.317C44.8168 120.312 44.7655 120.319 44.7177 120.338C44.6699 120.356 44.6269 120.385 44.5918 120.422C44.5568 120.459 44.5307 120.504 44.5154 120.553L44.5718 120.609Z" fill="#D7D8D7"/>
<path d="M43.2507 124.072C45.7009 121.53 47.5314 118.456 48.5997 115.091C49.9349 111.669 50.7876 108.078 51.1334 104.421C51.4482 100.86 51.2968 97.2733 50.683 93.7515C50.3875 90.1033 49.1347 86.5976 47.0513 83.5884C46.4882 82.9409 45.6999 83.5884 45.7844 84.3204C46.1814 85.9151 46.699 87.4774 47.3328 88.9937C47.8705 90.6423 48.2938 92.3261 48.5997 94.033C49.1946 97.4432 49.346 100.916 49.0501 104.365C48.7525 107.749 48.0532 111.085 46.9668 114.303C46.3775 116.06 45.6624 117.772 44.8272 119.427C44.0139 120.795 43.2715 122.205 42.6032 123.649C42.6032 124.044 42.9973 124.241 43.2507 124.015L43.2507 124.072Z" fill="#D7D8D7"/>
<path d="M116.024 109.799C123.259 111.995 130.635 113.515 137.983 115.204C144.458 116.871 151.043 118.075 157.69 118.808C161.276 119.1 164.885 118.977 168.444 118.442C171.09 118.02 174.637 117.203 175.961 114.557C177.284 111.91 175.313 108.476 173.314 106.702C171.014 104.925 168.266 103.824 165.375 103.521C156.932 102.539 148.39 102.843 140.038 104.422C131.958 105.576 123.991 107.237 115.967 108.842C115.292 108.842 115.433 110.081 115.967 110.052C122.217 109.602 128.355 108.138 134.492 107.237C142.621 105.683 150.877 104.882 159.153 104.844C164.334 104.844 173.37 105.576 174.553 112.192C175.088 115.261 171.315 116.33 168.922 116.837C165.481 117.484 161.97 117.683 158.478 117.428C151.943 116.852 145.466 115.751 139.109 114.135C131.395 112.389 123.738 110.447 115.939 109.264C115.857 109.242 115.769 109.253 115.696 109.295C115.622 109.337 115.568 109.407 115.545 109.489C115.523 109.572 115.534 109.659 115.576 109.733C115.618 109.807 115.688 109.861 115.77 109.884L116.024 109.799Z" fill="#D7D8D7"/>
<path d="M112.393 116.078C108.839 113.7 105.069 111.664 101.132 109.997C97.4515 108.209 93.5058 107.03 89.4483 106.506C89.0541 106.506 88.9978 107.097 89.4483 107.21C97.4273 109.275 105.029 112.591 111.97 117.035C112.477 117.345 112.927 116.556 112.449 116.218L112.393 116.078Z" fill="#D7D8D7"/>
<path d="M108.113 114.274C112.117 117.935 115.923 121.807 119.515 125.873C123.318 129.931 127.724 133.378 132.578 136.092C137.695 138.789 143.013 141.086 148.484 142.961C153.404 145.214 158.728 146.449 164.137 146.593C166.952 146.593 171.907 145.917 172.977 142.708C173.709 140.54 171.457 138.936 169.852 137.978C167.176 136.488 164.344 135.298 161.406 134.431L150.765 131.053C144.205 128.941 137.589 126.886 131.058 124.55C124.451 122.071 117.976 119.252 111.661 116.104C111.528 116.047 111.379 116.041 111.243 116.086C111.106 116.131 110.99 116.225 110.918 116.35C110.845 116.474 110.82 116.621 110.848 116.762C110.876 116.904 110.955 117.03 111.069 117.117C115.609 119.984 120.465 122.318 125.54 124.071C130.692 126.098 135.956 127.815 141.221 129.505C148.766 131.926 156.423 134.009 163.743 136.655C166.455 137.319 168.96 138.644 171.034 140.512C173.596 143.553 166.783 144.848 164.953 144.988C159.907 145.142 154.89 144.181 150.258 142.173C145.008 140.383 139.883 138.248 134.915 135.783C129.498 133.036 124.594 129.379 120.416 124.972C116.728 121.087 113.237 116.526 108.451 113.711C108.17 113.711 107.86 113.936 108.113 114.161L108.113 114.274Z" fill="#D7D8D7"/>
<path d="M106.986 102.225C100.089 102.056 93.1917 102.056 86.3225 101.353C79.3165 100.498 72.3689 99.2195 65.5177 97.5238C65.387 97.5148 65.2572 97.5516 65.1507 97.628C65.0442 97.7043 64.9677 97.8155 64.9343 97.9422C64.901 98.069 64.9129 98.2034 64.968 98.3223C65.0231 98.4412 65.118 98.5371 65.2362 98.5936C71.8879 100.676 78.7374 102.062 85.675 102.732C92.7406 103.703 99.8998 103.788 106.986 102.985C107.437 102.985 107.493 102.225 106.986 102.225Z" fill="#D7D8D7"/>
<path d="M101.555 103.437C107.272 103.015 113.012 103.015 118.729 103.437C124.312 103.564 129.896 103.225 135.423 102.424C140.998 101.554 146.482 100.178 151.808 98.3135C155.679 97.3763 159.338 95.7142 162.59 93.415C164.251 91.9229 165.237 89.2484 162.844 87.9534C160.426 87.0472 157.806 86.8232 155.271 87.3059C146.7 88.1513 138.292 90.2081 130.299 93.415C126.161 95.0197 122.079 96.7651 117.884 98.2009C112.532 99.9774 107.08 101.435 101.555 102.565C101.105 102.565 101.189 103.465 101.555 103.409C109.91 102.361 118.078 100.153 125.823 96.8496C132.859 93.9812 140.131 91.7299 147.557 90.1211C150.939 89.3472 154.392 88.9227 157.861 88.8542C159.662 88.8542 164.11 89.0232 161.661 91.6695C160.339 92.9385 158.753 93.8999 157.016 94.4848C155.102 95.2449 153.159 95.9487 151.217 96.6525C146.451 98.3179 141.554 99.5798 136.577 100.425C130.795 101.414 124.932 101.857 119.066 101.748C113.178 101.375 107.266 101.668 101.443 102.621C100.936 102.621 101.049 103.55 101.443 103.494L101.555 103.437Z" fill="#D7D8D7"/>
<path d="M99.4385 158.111C98.4456 151.303 96.7569 144.614 94.3992 138.151C93.3048 135.477 91.9268 132.929 90.2889 130.55C88.8722 128.03 86.8622 125.894 84.4332 124.328C83.8983 124.074 83.11 124.637 83.5323 125.257C84.3987 126.265 85.3398 127.206 86.3475 128.072C87.4242 129.215 88.4124 130.439 89.3035 131.732C90.8852 134.077 92.2425 136.565 93.3575 139.164C95.8499 145.271 97.7358 151.607 98.988 158.083C98.988 158.449 99.6074 158.308 99.5511 158.083L99.4385 158.111Z" fill="#D7D8D7"/>
<path d="M97.6683 154.59C100.648 163.963 104.821 172.914 110.084 181.223C114.723 188.92 120.679 195.743 127.679 201.38C129.875 203.069 137.026 207.01 133.957 210.755C130.888 214.499 124.272 211.543 121.147 209.685C113.04 204.871 108.338 195.271 105.157 186.74C103.283 181.517 101.76 176.175 100.596 170.75C99.1075 164.752 98.5099 158.567 98.8225 152.394C98.8225 151.268 97.1334 151.268 97.0489 152.394C96.7603 158.065 97.2529 163.749 98.5129 169.286C99.6225 174.775 101.099 180.183 102.933 185.474C106.142 194.37 110.872 204.223 118.867 209.769C122.322 212.421 126.629 213.713 130.973 213.401C134.267 212.922 136.603 210.248 135.196 206.954C134.496 205.457 133.431 204.159 132.099 203.182C130.044 201.633 127.96 200.169 126.018 198.48C122.012 195.02 118.388 191.141 115.207 186.909C111.633 182.043 108.478 176.882 105.776 171.482C102.961 165.851 100.624 160.08 98.0061 154.393C98.0061 154.14 97.4712 154.393 97.5557 154.59L97.6683 154.59Z" fill="#D7D8D7"/>
<path d="M135.615 183.812C133.275 180.91 131.095 177.884 129.083 174.747C127.167 171.397 125.51 167.905 124.128 164.302C122.757 160.953 121.009 157.77 118.92 154.815C117.079 151.977 114.709 149.52 111.938 147.579C111.883 147.535 111.819 147.502 111.751 147.482C111.683 147.463 111.611 147.456 111.541 147.464C111.47 147.472 111.402 147.494 111.34 147.528C111.277 147.562 111.223 147.608 111.178 147.664C111.134 147.719 111.101 147.783 111.081 147.851C111.061 147.919 111.055 147.991 111.063 148.061C111.071 148.132 111.093 148.2 111.127 148.263C111.161 148.325 111.207 148.38 111.263 148.424C112.361 149.691 113.712 150.733 114.866 151.943C116.184 153.347 117.389 154.854 118.47 156.447C120.505 159.491 122.24 162.725 123.65 166.104C124.999 169.477 126.638 172.727 128.548 175.816C130.549 178.764 132.73 181.585 135.08 184.262C135.389 184.6 136.009 184.121 135.727 183.755L135.615 183.812Z" fill="#D7D8D7"/>
<path d="M131.001 179.421C140.629 193.497 152.144 206.616 169.035 211.627C171.653 212.387 176.045 213.091 178.128 210.698C179.452 209.206 178.128 207.489 177.002 206.391C175.08 204.695 173.028 203.151 170.865 201.774C166.903 199.077 162.776 196.632 158.506 194.454C154.002 192.061 149.441 189.809 144.965 187.332C140.489 184.854 136.097 181.701 131.649 178.745C130.973 178.323 130.269 179.28 130.804 179.843C133.653 182.578 136.864 184.908 140.348 186.769C143.867 188.824 147.555 190.625 151.215 192.399C158.424 195.875 165.41 199.795 172.132 204.139C173.849 205.293 176.327 206.56 177.256 208.531C177.931 209.882 176.693 210.417 175.51 210.755C173.478 211.195 171.361 211.018 169.429 210.248C161.793 207.789 154.754 203.762 148.765 198.424C142.619 192.347 136.865 185.887 131.536 179.083C131.283 178.801 130.776 179.083 131.001 179.505L131.001 179.421Z" fill="#D7D8D7"/>
<path d="M129.681 147.353C126.291 145.994 123.007 144.385 119.856 142.539C116.759 140.709 113.747 138.682 110.509 137.106C107.304 135.674 104.024 134.414 100.684 133.333L95.5039 131.475C93.8069 130.625 91.9623 130.109 90.0705 129.955C89.5919 129.955 89.2259 130.631 89.6482 130.997C90.9903 131.897 92.4896 132.537 94.0681 132.883C95.898 133.502 97.7561 134.094 99.6986 134.685C103.47 135.781 107.158 137.145 110.734 138.767C113.859 140.343 116.815 142.201 119.912 143.834C123.03 145.456 126.279 146.812 129.625 147.888C129.963 147.888 130.075 147.494 129.625 147.353L129.681 147.353Z" fill="#D7D8D7"/>
<path d="M123.651 145.469C125.903 145.469 127.874 147.862 129.591 149.1C131.309 150.339 133.336 151.662 135.222 152.845C138.907 155.1 142.745 157.094 146.708 158.813C154.56 162.549 162.916 165.12 171.511 166.442C174.366 167.037 177.339 166.66 179.956 165.373C181.645 164.415 182.772 162.557 181.674 160.812C180.858 159.732 179.711 158.951 178.408 158.588C176.207 157.779 173.949 157.14 171.651 156.673C167.203 155.744 162.699 155.238 158.223 154.393C153.211 153.436 148.257 151.972 143.302 150.649C138.347 149.326 132.885 147.496 127.593 146.257C127.001 146.257 126.551 147.045 127.17 147.327C131.015 148.833 134.967 150.047 138.994 150.958C143.161 152.056 147.44 153.098 151.494 154.168C159.292 156.195 167.372 156.561 175.142 158.616C176.972 159.095 179.675 159.601 180.773 161.431C181.871 163.261 180.182 164.106 178.887 164.697C175.548 165.84 171.935 165.909 168.555 164.894C164.525 164.066 160.57 162.908 156.73 161.431C152.93 160.08 149.157 158.616 145.469 157.039C141.521 155.253 137.701 153.193 134.039 150.874C132.21 149.72 130.436 148.481 128.691 147.242C128.032 146.575 127.247 146.044 126.382 145.682C125.517 145.32 124.589 145.132 123.651 145.131C123.454 145.131 123.454 145.469 123.651 145.469Z" fill="#D7D8D7"/>
<path d="M170.891 184.853C177.225 189.217 183.756 193.299 190.062 197.747C195.993 202.128 202.35 205.901 209.037 209.008C215.548 211.763 222.391 213.655 229.392 214.638C232.806 215.159 236.245 215.497 239.695 215.652C242.004 215.884 244.335 215.674 246.565 215.032C247.124 214.922 247.647 214.676 248.089 214.316C248.531 213.956 248.879 213.494 249.101 212.969C249.323 212.444 249.413 211.873 249.364 211.305C249.314 210.737 249.126 210.19 248.817 209.712C246.79 206.801 243.978 204.527 240.709 203.152C236.696 201.381 232.492 200.077 228.181 199.267C222.748 197.972 217.286 196.79 211.853 195.579C204.899 193.974 197.945 192.342 191.104 190.371C184.263 188.4 177.872 186.148 171.397 183.783C170.778 183.558 170.356 184.543 170.947 184.825C181.026 190.033 192.54 192.679 203.519 195.269C213.514 197.634 223.648 199.52 233.586 202.139C237.524 203.042 241.233 204.748 244.481 207.15C245.776 208.163 249.493 211.26 247.297 213.005C245.565 213.904 243.605 214.267 241.666 214.047C238.508 213.996 235.358 213.732 232.235 213.259C225.353 212.482 218.587 210.894 212.078 208.529C204.975 205.58 198.247 201.8 192.033 197.268C185.473 192.402 178.619 187.946 171.51 183.924C171.449 183.889 171.382 183.866 171.312 183.857C171.242 183.848 171.171 183.853 171.103 183.871C171.035 183.889 170.972 183.921 170.916 183.964C170.86 184.007 170.813 184.06 170.778 184.121C170.743 184.182 170.72 184.249 170.711 184.319C170.702 184.389 170.707 184.46 170.725 184.528C170.743 184.596 170.775 184.659 170.818 184.715C170.861 184.771 170.914 184.818 170.975 184.853L170.891 184.853Z" fill="#D7D8D7"/>
<path d="M202.031 232.036C194.937 222.126 190.179 210.809 183.451 200.674C180.885 196.687 177.82 193.044 174.329 189.835C171.063 187.02 167.573 184.205 164.053 181.587C160.545 178.764 156.774 176.285 152.792 174.183C152.634 174.111 152.454 174.101 152.288 174.154C152.122 174.207 151.982 174.32 151.894 174.47C151.807 174.621 151.778 174.799 151.814 174.969C151.85 175.14 151.948 175.291 152.089 175.393C158.845 180.207 165.743 184.824 172.077 190.173C180.1 196.958 185.309 206.389 190.461 215.511C193.689 221.408 197.271 227.105 201.187 232.571C201.525 232.993 202.228 232.571 201.919 232.149L202.031 232.036Z" fill="#D7D8D7"/>
<path d="M194.823 222.411C197.052 228.027 199.609 233.507 202.48 238.824C204.949 244.076 207.85 249.113 211.151 253.886C215.847 260.683 222.379 266.004 229.985 269.229C232.322 270.186 242.4 274.522 242.4 269.032C242.165 267.113 241.292 265.329 239.923 263.964C238.503 262.205 236.99 260.523 235.39 258.925C231.832 255.424 228.072 252.134 224.129 249.072C215.114 242.303 206.46 235.067 198.201 227.394C197.75 226.944 197.159 227.591 197.525 228.07C202.902 234.967 210.56 240.119 217.457 245.384C224.942 250.638 231.892 256.617 238.206 263.232C239.67 264.837 241.894 267.061 241.556 269.341C241.387 270.552 240.317 270.862 239.219 270.834C236.33 270.575 233.524 269.733 230.97 268.356C223.931 265.268 217.803 260.42 213.178 254.28C209.706 249.465 206.672 244.349 204.113 238.993C201.298 233.362 199.045 227.31 195.667 222.101C195.386 221.707 194.654 222.101 194.823 222.467L194.823 222.411Z" fill="#D7D8D7"/>
<path d="M194.034 237.416C190.712 230.434 189.755 222.833 188.179 215.345C187.553 211.97 186.61 208.661 185.364 205.463C184.734 203.968 184 202.52 183.168 201.128C182.527 199.728 181.562 198.503 180.352 197.552C180.275 197.502 180.184 197.477 180.092 197.481C180.001 197.484 179.912 197.515 179.838 197.571C179.765 197.626 179.71 197.702 179.681 197.789C179.652 197.877 179.651 197.971 179.677 198.059C180.394 199.48 181.232 200.836 182.182 202.113C183.068 203.591 183.84 205.134 184.491 206.73C185.801 210.06 186.856 213.486 187.644 216.977C188.956 224.032 191.033 230.924 193.837 237.529C193.837 237.754 194.316 237.529 194.175 237.304L194.034 237.416Z" fill="#D7D8D7"/>
<path d="M192.373 234.627C194.034 242.312 197.188 249.435 199.665 256.839C201.421 263.362 204.823 269.324 209.547 274.153C211.011 275.829 212.992 276.968 215.177 277.391C215.682 277.391 216.182 277.291 216.649 277.096C217.115 276.902 217.538 276.618 217.894 276.259C218.25 275.901 218.532 275.475 218.722 275.007C218.913 274.54 219.009 274.039 219.006 273.534C218.879 272.042 218.417 270.599 217.654 269.311C216.873 267.653 215.989 266.045 215.008 264.497C213.026 261.36 210.874 258.333 208.561 255.432C205.746 251.884 202.931 248.422 200.115 244.818C197.3 241.215 195.414 237.808 193.134 234.233C192.739 233.613 191.641 234.007 191.923 234.739C194.091 240.68 198.764 246 202.705 250.702C207.262 255.916 211.377 261.5 215.008 267.396C216.05 269.254 219.344 274.772 215.796 275.842C213.769 276.433 211.348 273.984 210.166 272.717C205.838 268.078 202.665 262.484 200.904 256.389C198.342 249.013 195.273 241.862 192.993 234.345C192.97 234.263 192.916 234.193 192.842 234.151C192.768 234.109 192.681 234.098 192.599 234.12C192.517 234.142 192.447 234.197 192.404 234.27C192.362 234.344 192.351 234.432 192.373 234.514L192.373 234.627Z" fill="#D7D8D7"/>
<path d="M179.591 173.648C168.162 174.37 156.692 173.21 145.639 170.214C144.992 170.045 144.513 171.03 145.161 171.34C149.807 173.398 154.784 174.608 159.857 174.915C166.425 175.43 173.028 175.269 179.563 174.437C180.07 174.437 180.07 173.62 179.563 173.648L179.591 173.648Z" fill="#D7D8D7"/>
<path d="M180.21 174.099C188.98 173.56 197.572 171.393 205.548 167.708C213.994 163.88 221.876 159.263 231.138 157.63C233.954 157.179 239.584 156.335 241.78 158.868C243.976 161.402 238.965 164.133 237.163 165.062C229.449 168.883 221.136 171.35 212.586 172.354C201.791 173.554 190.92 173.912 180.07 173.423C179.535 173.423 179.563 174.183 180.07 174.24C190.904 175.136 201.803 174.891 212.586 173.508C221.386 172.669 229.967 170.266 237.923 166.413C240.204 165.287 243.554 163.598 243.92 160.783C244.286 157.968 241.583 156.307 239.077 155.828C234.891 155.253 230.628 155.628 226.606 156.926C221.835 158.322 217.221 160.209 212.839 162.556C207.865 165.255 202.71 167.606 197.412 169.595C191.806 171.508 186.025 172.865 180.154 173.649C179.844 173.649 179.816 174.155 180.154 174.155L180.21 174.099Z" fill="#D7D8D7"/>
<path d="M191.951 174.746C194.766 175.703 197.581 176.407 200.396 177.392C203.212 178.378 206.337 179.616 209.236 180.855C214.557 183.136 219.794 185.557 225.255 187.33C230.874 189.297 236.822 190.148 242.766 189.836C246.173 189.554 250.564 189.442 253.408 187.358C255.378 186.007 255.97 183.896 253.886 182.601C251.331 181.295 248.531 180.538 245.666 180.377C240.852 179.701 236.009 179.222 231.195 178.603C225.875 177.899 220.526 177.224 215.205 176.548C208.589 175.76 201.945 174.662 195.273 174.268C195.162 174.272 195.056 174.315 194.973 174.389C194.89 174.464 194.836 174.564 194.819 174.674C194.803 174.784 194.825 174.896 194.882 174.991C194.939 175.087 195.027 175.159 195.132 175.197C200.34 176.266 205.661 176.773 210.926 177.421C215.683 178.04 220.469 178.603 225.227 179.166C229.985 179.729 235.306 180.348 240.345 180.996C243.16 181.362 245.975 181.7 248.622 182.291C249.692 182.544 254.759 183.333 253.52 185.106C252.248 186.425 250.534 187.227 248.706 187.358C246.899 187.681 245.076 187.906 243.245 188.034C237.523 188.405 231.784 187.649 226.353 185.81C220.526 183.952 214.923 181.39 209.293 179.025C203.861 176.309 197.988 174.584 191.951 173.93C191.894 173.948 191.845 173.984 191.811 174.032C191.776 174.08 191.757 174.138 191.757 174.197C191.757 174.256 191.776 174.314 191.811 174.362C191.845 174.41 191.894 174.446 191.951 174.465L191.951 174.746Z" fill="#D7D8D7"/>
</svg>
