<svg width="231" height="426" viewBox="0 0 231 426" fill="none" xmlns="http://www.w3.org/2000/svg">
<path d="M133.686 425.14C128.246 415.431 123.95 405.124 120.885 394.426C117.209 382.866 114.365 371.058 112.374 359.093C111.555 354.514 111.048 349.885 110.856 345.237C110.873 337.917 111.302 330.603 112.143 323.331C113.627 305.813 116.333 288.395 116.761 270.811C117.329 237.264 111.738 203.897 100.266 172.367C89.3307 142.489 74.4286 114.216 55.9602 88.3079C38.4753 63.4991 18.1862 39.878 6.47458 11.5062C5.05599 8.00925 3.6704 4.44633 2.35079 0.883368C2.26766 0.577124 2.06627 0.316443 1.79096 0.158667C1.51564 0.000921951 1.18894 -0.0410397 0.882707 0.0420902C0.576478 0.12522 0.315782 0.326606 0.158021 0.601905C0.000260726 0.877234 -0.0416857 1.20396 0.041429 1.5102C4.32936 15.956 10.8405 29.646 19.3408 42.0883C27.5884 55.0205 36.8917 67.227 45.9311 79.5984C65.2068 105.168 81.1793 133.067 93.4702 162.635C106.23 193.797 113.303 226.993 114.353 260.65C114.261 278.139 113.159 295.609 111.054 312.972C109.8 326.169 107.986 339.86 109.768 353.155C111.384 364.601 113.876 375.905 117.223 386.97C120.36 398.196 124.477 409.125 129.529 419.63C130.584 421.709 131.706 423.754 132.828 425.733C133.125 426.195 133.916 425.733 133.587 425.272L133.686 425.14Z" fill="#D7D8D7"/>
<path d="M25.4122 50.0058C28.1504 57.9895 31.0205 65.8742 33.0329 74.0888C35.0486 82.4328 36.4598 90.9113 37.2557 99.4584C38.7845 116.44 37.8399 133.553 34.4515 150.264C32.5315 159.706 29.8053 168.966 26.3029 177.943C25.8411 179.097 27.7215 179.625 28.1834 178.47C40.659 146.174 43.2541 110.898 35.6392 77.1239C33.6825 67.6067 30.6499 58.3429 26.5998 49.5109C26.5273 49.3594 26.3997 49.2412 26.243 49.1806C26.0864 49.1199 25.9125 49.1212 25.7568 49.1843C25.6011 49.2474 25.4753 49.3676 25.4052 49.5202C25.335 49.6729 25.3257 49.8465 25.3792 50.0058L25.4122 50.0058Z" fill="#D7D8D7"/>
<path d="M27.9176 177.318C35.6704 164.749 42.9612 151.454 45.7654 136.773C48.2423 121.511 46.9743 105.876 42.0705 91.2131C39.7798 82.9927 36.6167 75.0408 32.6352 67.493C32.5579 67.3987 32.452 67.3322 32.3335 67.3035C32.215 67.2748 32.0904 67.2855 31.9786 67.334C31.8667 67.3825 31.7737 67.4661 31.7136 67.5722C31.6535 67.6782 31.6296 67.801 31.6455 67.9219C34.0868 74.9488 37.3199 81.6459 39.6292 88.7058C42.05 95.8802 43.7734 103.271 44.7757 110.776C46.7008 125.806 44.4998 141.076 38.4086 154.951C35.1095 162.505 31.2497 169.763 27.5547 177.087C27.5547 177.351 27.7857 177.549 27.9176 177.318Z" fill="#D7D8D7"/>
<path d="M28.0491 177.284C31.9509 164.97 33.7793 152.093 33.4595 139.18C33.4595 132.054 32.7667 124.961 33.0636 117.868C33.3605 110.775 34.2183 103.88 34.8451 96.8865C35.7188 89.0206 35.8513 81.09 35.241 73.1994C35.241 72.1107 33.4265 72.1107 33.5255 73.1994C34.8121 86.9564 32.3378 100.614 31.4141 114.305C31.0182 121.239 31.0182 128.189 31.4141 135.122C31.7113 141.933 31.546 148.755 30.9192 155.543C30.1311 162.796 28.9417 169.999 27.3563 177.119C27.3563 177.198 27.3876 177.273 27.4432 177.329C27.4989 177.385 27.5744 177.416 27.6532 177.416C27.7319 177.416 27.8074 177.385 27.8631 177.329C27.9188 177.273 27.9501 177.198 27.9501 177.119L28.0491 177.284Z" fill="#D7D8D7"/>
<path d="M27.4265 178.239C28.6584 173.718 29.0388 169.009 28.5481 164.35C28.5481 157.751 28.0533 151.153 27.7564 144.291C27.4595 137.429 27.1955 130.567 27.3935 123.705C27.7394 116.314 28.7664 108.97 30.4616 101.767C31.5503 96.6863 32.7049 91.5728 33.5297 86.4263C33.8926 84.0509 34.2225 81.6756 34.4204 79.2673C34.8494 76.6566 34.8494 73.9933 34.4204 71.3826C34.4204 71.2601 34.3718 71.1427 34.2852 71.056C34.1985 70.9694 34.0811 70.9208 33.9586 70.9208C33.8361 70.9208 33.7186 70.9694 33.632 71.056C33.5454 71.1427 33.4967 71.2601 33.4967 71.3826C33.2105 73.4823 33.0562 75.5978 33.0348 77.7168C32.8923 80.2368 32.617 82.7476 32.2101 85.2386C31.4843 90.0222 30.4616 94.7398 29.4389 99.4574C27.7473 106.591 26.6439 113.851 26.1399 121.165C25.513 134.625 26.7007 148.118 27.1956 161.578C27.3935 167.121 27.1956 172.663 27.1956 178.074C27.1956 178.126 27.2164 178.176 27.2535 178.214C27.2906 178.251 27.341 178.271 27.3935 178.271C27.446 178.271 27.4963 178.251 27.5335 178.214C27.5706 178.176 27.5914 178.126 27.5914 178.074L27.4265 178.239Z" fill="#D7D8D7"/>
<path d="M37.7167 82.1714C39.211 84.6519 40.3232 87.3433 41.0157 90.1551C42.0314 92.9118 43.1989 95.6101 44.5127 98.2378C47.6058 103.769 50.328 109.5 52.6613 115.393C54.6004 121.925 55.7088 128.675 55.9604 135.484C56.4882 142.544 56.9721 149.626 57.4119 156.73C58.4123 164.81 58.4898 172.978 57.6429 181.077L59.2924 181.308C59.1717 178.717 58.4002 176.198 57.0491 173.984C55.3995 170.388 54.0469 166.693 52.7273 162.998C49.1926 154.199 46.9695 144.929 46.1292 135.484C46.1292 134.428 44.4137 134.428 44.4797 135.484C45.2796 144.539 47.3911 153.429 50.7479 161.876C52.0345 165.505 53.2552 169.2 54.8387 172.697C56.4979 175.261 57.4953 178.197 57.7418 181.242C57.7418 182.165 59.2264 182.396 59.3914 181.473C60.2772 174.345 60.3436 167.139 59.5893 159.996C59.2264 152.507 58.6656 144.985 58.1047 137.496C57.8808 130.476 56.9188 123.498 55.2346 116.679C53.169 110.581 50.5058 104.703 47.2839 99.1285C45.4978 95.859 43.9541 92.4629 42.6652 88.9675C42.1736 86.0591 40.7217 83.3993 38.5414 81.4127C38.0796 81.0827 37.4198 81.7096 37.7497 82.1714L37.7167 82.1714Z" fill="#D7D8D7"/>
<path d="M178.357 103.911C158.332 91.5728 135.469 85.4696 112.772 79.5643C91.0642 73.8899 69.1256 68.2156 49.0344 57.9556C37.9242 52.4545 27.7932 45.1655 19.0462 36.3799C17.7925 35.0932 15.7471 37.0727 17.0997 38.3593C49.5293 71.7456 98.2891 76.1993 140.55 89.0985C153.56 92.9059 166.159 98.0006 178.159 104.307C178.208 104.316 178.258 104.308 178.303 104.286C178.347 104.263 178.383 104.227 178.405 104.183C178.428 104.138 178.435 104.088 178.426 104.039C178.417 103.99 178.393 103.945 178.357 103.911Z" fill="#D7D8D7"/>
<path d="M178.355 103.913C162.883 98.8327 146.355 98.3049 130.651 94.0161C115.151 89.8054 100.11 84.0586 85.7513 76.8611C77.6687 72.9353 69.751 68.7125 61.8993 64.3248C61.7018 64.2473 61.4831 64.2428 61.2826 64.3121C61.0821 64.3815 60.913 64.5201 60.8056 64.703C60.6982 64.886 60.6596 65.1013 60.6968 65.3102C60.734 65.519 60.8446 65.7077 61.0085 65.8424C74.8656 73.7289 89.1876 80.7687 103.896 86.9232C118.81 93.0378 134.406 97.3355 150.347 99.7235C159.683 101.142 169.019 102.363 178.289 104.243C178.325 104.228 178.355 104.202 178.376 104.17C178.397 104.138 178.408 104.1 178.408 104.062C178.408 104.023 178.397 103.985 178.376 103.953C178.355 103.921 178.325 103.896 178.289 103.88L178.355 103.913Z" fill="#D7D8D7"/>
<path d="M179.478 104.539C174.665 98.979 168.901 94.3207 162.455 90.7816C156.114 87.0059 149.431 83.8358 142.496 81.3133C126.735 75.9342 110.368 72.5321 93.7692 71.1853C84.2004 70.534 74.7312 68.8415 65.5294 66.1377C64.4077 65.7749 63.9129 67.5563 65.0345 67.9522C72.6471 70.2852 80.4892 71.7895 88.4247 72.4389C96.8373 73.3297 105.217 74.1214 113.53 75.738C129.411 78.121 144.765 83.2093 158.925 90.7816C166.007 95.0735 172.786 99.8463 179.214 105.066C179.445 105.066 179.643 105.066 179.478 104.704L179.478 104.539Z" fill="#D7D8D7"/>
<path d="M178.358 104.309C169.681 103.484 160.906 103.451 152.229 102.725C143.51 102.069 134.846 100.812 126.299 98.9642C117.782 97.1224 109.495 94.3454 101.589 90.6837C93.6311 86.7567 85.9191 82.3499 78.4957 77.4875L51.7735 60.3655C50.7838 59.7387 49.86 61.3222 50.8497 61.949L75.3616 77.4875C82.9198 82.4953 90.7386 87.0985 98.7848 91.2775C114.496 98.4991 131.408 102.75 148.666 103.814C158.527 104.851 168.446 105.236 178.358 104.968C178.445 104.968 178.529 104.934 178.591 104.872C178.653 104.81 178.687 104.726 178.687 104.639C178.687 104.551 178.653 104.467 178.591 104.405C178.529 104.343 178.445 104.309 178.358 104.309Z" fill="#D7D8D7"/>
<path d="M52.9896 62.0169C63.9173 73.9381 74.224 86.4139 83.8686 99.395C88.3553 105.38 93.2145 111.077 98.4174 116.451C103.828 121.861 109.865 126.579 115.638 131.561C122.229 137.244 128.312 143.492 133.816 150.233C134.476 151.058 135.894 150.002 135.268 149.112C133.361 145.781 131.981 142.175 131.177 138.423C130.159 135.157 128.901 131.97 127.416 128.888C124.267 122.509 120.321 116.557 115.671 111.173C105.26 99.8178 93.5949 89.68 80.8995 80.9534C73.2457 75.2791 65.5919 69.6377 58.466 63.3366C57.4103 62.4128 55.8928 63.9304 56.9485 64.8541C79.8438 85.0772 109.733 99.692 124.546 127.536C126.509 131.191 128.122 135.024 129.362 138.984C130.244 142.888 131.712 146.637 133.717 150.101L135.202 148.947C130.32 142.987 124.993 137.407 119.267 132.253C113.593 127.173 107.523 122.356 101.947 117.276C90.5327 106.587 81.6912 93.2588 71.8931 80.9864C66.6721 73.7463 60.6641 67.1076 53.9793 61.1922C53.4515 60.7633 52.7587 61.4231 53.2205 61.918L52.9896 62.0169Z" fill="#D7D8D7"/>
<path d="M70.0805 113.581C74.8312 122.852 83.7386 129.812 92.1511 135.652C101.718 142.25 111.945 148.155 121.842 154.06C131.74 159.966 142.428 165.937 152.458 172.304C162.625 178.419 172.21 185.454 181.093 193.319C190.99 202.325 197.094 213.773 203.296 225.32L205.209 224.198C195.675 209.187 180.862 199.257 166.05 189.987C149.145 179.79 132.883 168.563 117.356 156.37C108.843 149.417 100.736 141.982 93.0749 134.101C92.1511 133.145 90.7325 134.563 91.6233 135.553C104.959 149.685 119.856 162.258 136.028 173.03C143.88 178.506 151.897 183.719 159.979 188.799C168.062 193.88 175.287 198.169 182.479 203.48C190.832 209.267 197.916 216.698 203.296 225.32C203.465 225.528 203.703 225.669 203.967 225.717C204.231 225.765 204.503 225.717 204.735 225.581C204.966 225.446 205.141 225.231 205.228 224.978C205.315 224.724 205.309 224.447 205.209 224.198C200.317 213.875 194.047 204.264 186.57 195.628C178.333 187.432 169.178 180.215 159.287 174.119C139.492 160.922 118.312 150.234 98.3533 137.433C93.1086 134.173 88.0934 130.558 83.3427 126.612C78.7092 122.521 74.4579 118.015 70.6414 113.152C70.3775 112.789 69.8826 113.152 70.0805 113.581Z" fill="#D7D8D7"/>
<path d="M204.482 225.584C204.647 220.483 203.783 215.4 201.942 210.64C200.384 205.773 198.316 201.084 195.773 196.652C190.862 188.11 184.302 180.63 176.473 174.647C160.836 162.639 141.57 156.733 123.59 149.442C113.376 145.6 103.59 140.702 94.3933 134.828C93.3706 134.135 92.4468 135.784 93.4365 136.444C124.876 157.723 169.314 159.834 191.715 193.682C194.906 198.547 197.529 203.76 199.534 209.221C201.513 214.565 202.239 220.24 204.086 225.716C204.086 225.769 204.107 225.819 204.144 225.856C204.181 225.893 204.232 225.914 204.284 225.914C204.337 225.914 204.387 225.893 204.424 225.856C204.461 225.819 204.482 225.769 204.482 225.716L204.482 225.584Z" fill="#D7D8D7"/>
<path d="M204.087 225.911C202.907 222.698 200.548 220.056 197.489 218.521C193.563 216.047 189.472 213.737 185.382 211.527C177.134 206.974 168.688 202.752 160.639 197.836C145.33 188.156 131.403 176.448 119.236 163.031C112.374 155.674 105.776 147.987 99.1777 140.235C98.4519 139.377 97.2313 140.598 97.9571 141.455C109.09 155.215 121.22 168.138 134.246 180.12C140.618 185.862 147.399 191.132 154.536 195.89C162.255 201.003 170.47 205.358 178.619 209.68C183.237 212.154 187.856 214.595 192.376 217.201C196.367 219.511 201.316 221.853 203.361 226.241C203.559 226.67 204.252 226.241 204.12 225.911L204.087 225.911Z" fill="#D7D8D7"/>
<path d="M139.859 184.046C145.277 192.988 148.045 203.284 147.842 213.737C147.644 223.239 145.698 232.575 144.543 241.977L145.698 241.977C144.452 233.93 142.554 225.997 140.024 218.257C137.483 210.933 134.481 203.774 131.512 196.615C126.35 183.078 120.391 169.859 113.664 157.027C113.537 156.813 113.331 156.657 113.089 156.595C112.848 156.534 112.592 156.57 112.378 156.697C112.163 156.824 112.008 157.031 111.946 157.272C111.884 157.513 111.921 157.769 112.048 157.984C118.821 170.816 124.835 184.035 130.06 197.572C133.195 204.863 136.23 212.121 138.77 219.346C141.293 226.801 143.267 234.431 144.675 242.175C144.675 242.868 145.797 242.637 145.83 242.175C146.787 232.278 149.129 222.612 149.294 212.682C149.537 202.378 146.306 192.292 140.123 184.046L139.892 184.046L139.859 184.046Z" fill="#D7D8D7"/>
<path d="M2.68004 285.428C19.6041 269.592 39.2664 257.023 55.4647 240.462C68.9858 227.289 79.8007 211.599 87.3004 194.275C91.57 183.723 94.3031 172.613 95.416 161.285C95.416 160.031 93.6015 160.064 93.4696 161.285C91.0387 180.747 84.0538 199.363 73.0815 215.62C61.3992 232.127 47.3484 246.823 31.3817 259.233C21.0481 267.165 11.1374 275.633 1.69032 284.603C1.16247 285.131 1.98723 285.923 2.51508 285.428L2.68004 285.428Z" fill="#D7D8D7"/>
<path d="M4.4296 283.481C19.6417 277.052 33.878 268.523 46.7233 258.144C58.5655 247.984 68.2375 235.541 75.161 221.558C79.6477 212.518 83.4416 203.149 87.4334 193.912C87.8953 192.922 86.4107 192.031 85.9818 193.054C79.3838 208.295 73.2476 223.999 63.3504 237.525C53.7985 250.304 41.8546 261.105 28.1827 269.328C20.331 274.144 12.1164 278.4 4.1327 282.953C3.76981 283.151 4.13269 283.646 4.4296 283.481Z" fill="#D7D8D7"/>
<path d="M2.41802 285.097C10.9295 272.065 22.4432 261.608 34.1878 251.71C46.4119 241.459 57.9709 230.44 68.7947 218.72C71.6539 215.553 74.4251 212.32 77.1083 209.021C80.13 205.563 82.9709 201.951 85.6198 198.2C86.1806 197.375 84.894 196.353 84.2342 197.111C81.463 200.212 79.1207 203.709 76.5144 207.008C73.9082 210.307 71.7308 212.947 69.2236 215.817C63.5822 222.415 57.512 228.386 51.3428 234.357C45.8334 239.669 40.324 244.881 34.5836 249.896C28.8433 254.91 23.4329 259.793 18.0884 264.841C11.9081 270.855 6.50008 277.615 1.98915 284.965C1.98915 284.965 1.98914 285.295 2.28605 284.965L2.41802 285.097Z" fill="#D7D8D7"/>
<path d="M2.68476 285.262C5.956 278.244 10.1378 271.689 15.1221 265.764C19.1799 260.981 23.6667 256.527 27.9554 251.941C33.6458 245.652 39.6697 239.672 46.0011 234.028C51.9394 228.914 58.4715 224.526 64.4428 219.446C67.7418 216.51 71.2388 213.475 74.5708 210.406C77.725 207.692 80.6288 204.7 83.2473 201.466C83.4782 201.136 82.9834 200.641 82.6535 200.905C79.8358 203.1 77.1584 205.469 74.6368 207.998C71.6017 210.835 68.5666 213.706 65.4655 216.444C59.4282 221.788 52.8631 226.341 46.7269 231.619C40.3511 237.203 34.3037 243.151 28.6152 249.434C24.2275 254.152 19.6418 258.737 15.419 263.62C9.88186 269.938 5.31245 277.042 1.86 284.701C1.62906 285.262 2.42083 285.757 2.68476 285.196L2.68476 285.262Z" fill="#D7D8D7"/>
<path d="M82.6842 201.529C80.012 216.012 78.0655 230.627 72.3912 244.417C69.488 251.378 66.0241 258.108 62.4941 264.838C58.9641 271.568 55.896 277.836 52.0691 284.038C47.7015 291.111 42.8282 297.859 37.4874 304.229L38.2132 304.822C40.6874 299.313 43.4256 293.903 45.8339 288.327C48.1774 282.907 49.9893 277.272 51.2444 271.502C52.1154 266.106 53.5985 260.826 55.6651 255.766C58.1064 250.619 61.0095 245.869 63.3188 240.524C63.7477 239.6 62.3621 238.776 61.9332 239.699C59.6569 244.813 56.8197 249.596 54.4114 254.644C52.3244 259.409 50.85 264.42 50.0237 269.556C48.9469 275.427 47.3119 281.183 45.1411 286.744C42.7328 292.682 40.1596 298.554 37.5204 304.36C37.3224 304.822 37.8833 305.383 38.2461 304.954C47.6675 293.642 55.8002 281.315 62.4941 268.203C69.488 255.007 76.2841 241.448 79.3852 226.635C81.1256 218.383 82.3595 210.032 83.0801 201.628C83.0801 201.332 82.6182 201.233 82.5522 201.628L82.6842 201.529Z" fill="#D7D8D7"/>
<path d="M211.773 337.487C208.373 326.973 203.533 316.981 197.389 307.796C191.765 299.827 185.391 292.414 178.354 285.66C164.366 271.738 148.662 259.531 134.74 245.675C130.65 241.65 126.691 237.461 122.93 233.139C119.169 228.817 115.936 223.968 112.142 219.613C111.35 218.722 109.998 219.877 110.526 220.866C112.978 225.245 115.922 229.329 119.301 233.04C122.6 236.834 125.899 240.529 129.198 244.059C136.225 251.185 143.714 257.849 151.236 264.414C165.718 277.049 180.927 289.354 192.672 304.695C200.416 314.659 206.652 325.708 211.179 337.487C211.179 337.85 211.905 337.718 211.773 337.322L211.773 337.487Z" fill="#D7D8D7"/>
<path d="M212.436 337.484C211.048 330.015 208.835 322.724 205.837 315.743C203.322 309.454 199.995 303.52 195.94 298.094C187.49 287.531 177.478 278.32 166.249 270.778C159.321 265.763 152.162 260.88 145.234 255.998C144.079 255.173 142.991 257.054 144.112 257.878C166.48 273.78 191.553 287.999 203.198 313.962C206.589 321.666 209.315 329.646 211.347 337.814C211.512 338.441 212.403 338.144 212.304 337.517L212.436 337.484Z" fill="#D7D8D7"/>
<path d="M212.4 337.784C207.914 332.241 202.503 327.359 197.621 322.245C192.826 317.248 188.332 311.971 184.161 306.443C175.946 295.523 167.863 284.471 159.451 273.716C154.741 267.611 149.72 261.753 144.407 256.166C143.516 255.275 142.164 256.66 143.022 257.551C152.413 267.602 161.162 278.235 169.216 289.387C177.06 300.547 185.53 311.253 194.586 321.453C200.034 327.386 205.805 333.014 211.873 338.312C211.943 338.382 212.038 338.421 212.137 338.421C212.236 338.421 212.33 338.382 212.4 338.312C212.47 338.242 212.51 338.147 212.51 338.048C212.51 337.949 212.47 337.854 212.4 337.784Z" fill="#D7D8D7"/>
<path d="M212.104 337.486C206.496 333.131 200.557 329.238 195.015 324.818C189.448 320.399 184.231 315.557 179.41 310.335C174.569 305.108 170.27 299.405 166.577 293.312C162.387 286.351 158.89 279.093 154.404 272.33C149.62 264.886 144.305 257.797 138.502 251.117C137.81 250.391 136.49 251.381 137.084 252.239C141.669 258.837 146.981 265.039 151.699 271.703C156.416 278.367 159.979 285.592 164.07 292.619C171.42 304.815 180.882 315.606 192.013 324.488C198.09 329.677 204.73 334.17 211.807 337.882C212.038 337.882 212.335 337.651 212.104 337.486Z" fill="#D7D8D7"/>
<path d="M132.597 243.958C135.316 246.333 138.181 248.537 141.175 250.556C144.131 252.367 147.272 253.86 150.544 255.009C157.406 257.583 164.598 259.001 171.625 260.948C185.17 264.469 198.168 269.83 210.256 276.882C216.988 280.919 223.203 285.76 228.764 291.299L229.853 289.88C217.316 282.061 202.273 281.138 188.252 277.113C173.461 272.546 159.511 265.605 146.948 256.56C145.991 255.9 145.1 257.451 146.024 258.11C158.365 266.97 172.026 273.828 186.503 278.432C200.656 282.721 216.195 283.447 228.962 291.464C229.055 291.535 229.161 291.588 229.275 291.618C229.388 291.648 229.507 291.656 229.623 291.641C229.739 291.625 229.852 291.587 229.953 291.529C230.055 291.47 230.144 291.392 230.216 291.299C230.287 291.206 230.34 291.099 230.37 290.986C230.4 290.872 230.408 290.754 230.393 290.638C230.362 290.403 230.239 290.189 230.051 290.045C220.263 280.601 208.764 273.11 196.17 267.974C189.995 265.399 183.671 263.196 177.233 261.376C170.338 259.331 163.278 257.846 156.383 255.834C152.357 254.735 148.471 253.174 144.803 251.182C140.829 248.817 137.036 246.159 133.455 243.232C132.861 242.77 131.97 243.595 132.597 244.089L132.597 243.958Z" fill="#D7D8D7"/>
<path d="M27.7891 371.2C33.1351 363.897 39.0595 357.034 45.505 350.68C51.8391 344.478 58.7011 338.969 65.5631 333.294C78.6838 322.317 90.2782 309.636 100.038 295.586C105.962 287.243 111.361 278.538 116.203 269.524C116.275 269.347 116.281 269.151 116.22 268.971C116.158 268.791 116.034 268.638 115.87 268.542C115.706 268.446 115.512 268.412 115.325 268.447C115.138 268.482 114.969 268.583 114.851 268.732C106.047 284.18 95.8782 298.809 84.4666 312.444C72.788 325.64 58.9321 336.527 46.2968 348.734C39.2947 355.492 32.9944 362.942 27.4922 370.969C27.4922 370.969 27.4922 371.299 27.7891 370.969L27.7891 371.2Z" fill="#D7D8D7"/>
<path d="M28.1509 371.894C32.3407 367.507 36.2995 362.954 40.9182 358.929C45.5368 354.904 50.3864 351.209 55.203 347.383C65.0366 340.05 73.9043 331.503 81.5953 321.947C85.9823 316.242 89.8363 310.146 93.1089 303.736C93.6368 302.747 92.1522 301.856 91.6244 302.846C85.8011 314.255 78.1445 324.631 68.96 333.56C60.2835 342.005 50.1885 348.702 40.9841 356.653C35.6366 360.732 31.0281 365.697 27.3591 371.334C27.3124 371.447 27.3044 371.573 27.3364 371.692C27.3683 371.811 27.4385 371.916 27.536 371.991C27.6335 372.066 27.753 372.107 27.876 372.107C27.9991 372.108 28.1188 372.068 28.2168 371.993L28.1509 371.894Z" fill="#D7D8D7"/>
<path d="M28.7454 369.814C33.4631 363.051 38.1477 356.222 43.0303 349.591C47.542 343.033 52.8748 337.079 58.8986 331.876C64.9029 326.927 71.5669 322.836 77.6042 317.954C80.5733 315.578 83.4435 313.104 86.2147 310.531C89.2821 307.887 92.1389 305.008 94.7592 301.92C94.9105 301.742 94.9885 301.513 94.9775 301.279C94.9664 301.045 94.8671 300.825 94.6996 300.661C94.5321 300.498 94.3089 300.404 94.075 300.399C93.8412 300.394 93.6141 300.478 93.4396 300.634C90.4044 303.273 87.6992 306.308 84.7301 309.046C81.761 311.784 78.6599 314.391 75.4928 316.898C69.4885 321.681 62.8905 326.036 57.0182 330.886C51.309 335.912 46.2746 341.656 42.0405 347.975C37.125 354.903 32.4404 361.963 28.1846 369.32C27.9867 369.682 28.5145 369.946 28.7454 369.65L28.7454 369.814Z" fill="#D7D8D7"/>
<path d="M28.5457 371.071C39.6964 361.602 54.3771 357.874 65.9898 348.967C76.6058 340.317 84.9516 329.208 90.3037 316.604C93.6027 309.412 95.5162 301.362 99.9699 294.731C100.366 294.104 99.475 293.444 98.9472 293.939C94.0976 298.822 92.646 306.508 90.0068 312.645C87.2958 319.006 83.9816 325.093 80.1097 330.822C76.2393 336.614 71.5877 341.842 66.2867 346.361C60.5804 350.897 54.3702 354.761 47.7791 357.874C40.5692 361.167 33.8963 365.527 27.9848 370.807C27.9848 370.807 27.9849 371.236 28.2818 371.071L28.5457 371.071Z" fill="#D7D8D7"/>
<path d="M89.2801 316.836C86.4758 322.954 84.7247 329.501 84.1006 336.202C83.4408 343.097 83.5397 350.025 82.682 356.92C81.9329 363.872 79.5597 370.551 75.754 376.417C71.9284 381.84 67.6222 386.908 62.8878 391.56L64.0424 392.45C68.0088 383.584 70.8355 374.25 72.455 364.672C74.0385 355.105 74.5993 345.604 77.9974 336.4C78.3273 335.542 76.9087 334.948 76.5128 335.773C72.455 344.218 72.422 354.082 71.1024 363.155C69.7091 373.014 66.9441 382.631 62.8878 391.724C62.5579 392.417 63.4156 393.242 64.0424 392.615C68.7684 388.056 73.095 383.1 76.9747 377.803C80.7167 372.383 83.1967 366.194 84.2325 359.691C85.2882 352.895 85.2222 346 85.6511 339.138C86.0879 331.617 87.5531 324.191 90.0059 317.067C90.0059 316.737 89.577 316.506 89.445 316.836L89.2801 316.836Z" fill="#D7D8D7"/>
<path d="M133.553 425.044C131.804 414.322 126.955 404.161 123.656 393.802C121.874 388.029 120.917 382.024 119.367 376.185C116.913 368.44 115.461 360.413 115.045 352.3C114.548 342.829 113.324 333.41 111.383 324.126C111.383 323.169 109.767 323.598 109.899 324.555C111.763 333.249 112.965 342.072 113.495 350.947C113.656 358.628 114.854 366.252 117.058 373.612C118.74 379.814 119.862 386.181 121.643 392.35C123.293 397.959 125.305 403.435 127.219 408.845C129.132 414.256 131.375 419.732 132.86 425.341C132.86 425.704 133.454 425.539 133.388 425.176L133.553 425.044Z" fill="#D7D8D7"/>
<path d="M133.754 425.472C127.914 415.74 121.91 406.107 116.83 395.781C114.117 390.502 111.907 384.979 110.232 379.286C108.241 371.006 107.397 362.492 107.724 353.982C107.642 349.246 107.84 344.509 108.318 339.796C108.912 334.65 110.166 329.734 111.221 324.687C111.269 324.507 111.244 324.316 111.151 324.155C111.059 323.994 110.906 323.877 110.726 323.829C110.547 323.781 110.356 323.806 110.195 323.899C110.034 323.991 109.917 324.144 109.869 324.324C107.453 332.679 106.187 341.326 106.108 350.023C105.67 358.59 106.213 367.18 107.724 375.624C111.023 388.027 116.244 399.838 123.197 410.627C126.164 415.946 129.551 421.021 133.325 425.802C133.523 426.033 133.919 425.802 133.754 425.472Z" fill="#D7D8D7"/>
<path d="M133.721 424.35C133.067 420.183 132.856 415.959 133.094 411.748C133.094 408.845 132.896 405.909 132.632 402.972C132.038 396.374 131.081 389.776 129.927 383.178C127.747 370.085 124.368 357.219 119.832 344.744C118.281 340.588 116.764 336.398 115.477 332.142C114.19 327.886 113.3 323.598 112.178 319.408C112.134 319.237 112.024 319.091 111.873 319.001C111.721 318.912 111.54 318.886 111.37 318.929C111.199 318.973 111.053 319.083 110.963 319.235C110.873 319.386 110.848 319.567 110.891 319.738C113.827 333.891 119.898 347.021 123.626 360.91C127.248 374.333 129.796 388.023 131.246 401.851C131.576 405.15 131.774 408.284 131.873 411.517C131.761 415.879 132.215 420.237 133.226 424.482C133.245 424.533 133.278 424.576 133.323 424.607C133.367 424.638 133.419 424.654 133.473 424.654C133.527 424.654 133.58 424.638 133.624 424.607C133.668 424.576 133.702 424.533 133.721 424.482L133.721 424.35Z" fill="#D7D8D7"/>
<path d="M131.377 415.802C131.08 407.521 128.078 399.505 126.527 391.422C125.34 384.824 124.548 377.995 123.393 371.331C122.264 363.769 120.566 356.303 118.313 348.996C117.026 345.103 115.443 341.309 114.057 337.45C112.71 333.474 111.608 329.42 110.758 325.309C110.712 325.171 110.619 325.053 110.495 324.975C110.371 324.898 110.224 324.866 110.079 324.886C109.935 324.906 109.801 324.975 109.702 325.082C109.603 325.19 109.545 325.328 109.537 325.474C109.537 332.336 112.836 339.231 115.245 345.565C117.786 352.711 119.706 360.062 120.985 367.537C122.371 375.026 123.657 382.58 124.779 390.102C125.506 394.099 126.453 398.053 127.616 401.946C129.112 406.48 130.303 411.109 131.179 415.802L131.377 415.802Z" fill="#D7D8D7"/>
<path d="M113.727 328.248C116.104 334.526 119.691 340.277 124.284 345.172C129.006 350.763 134.063 356.062 139.427 361.041C145.037 366.153 150.325 371.606 155.262 377.371C159.8 383.541 163.155 390.498 165.159 397.891L166.512 397.33C163.62 392.58 160.225 388.155 156.384 384.134C152.183 380.121 147.635 376.488 142.792 373.28C133.149 366.592 125.545 357.366 120.82 346.624C120.391 345.634 118.775 346.063 119.203 347.053C123.508 357.081 130.326 365.83 138.998 372.455C144.045 376.315 149.456 379.647 154.14 383.969C158.555 388.034 162.277 392.792 165.159 398.056C165.555 398.815 166.677 398.287 166.479 397.495C164.915 390.526 162.013 383.927 157.934 378.064C153.285 372.233 148.178 366.783 142.66 361.766C137.249 356.521 131.74 351.374 126.758 345.733C124.271 342.982 121.978 340.06 119.896 336.991C117.95 334.088 116.399 330.92 114.453 327.984C114.222 327.687 113.694 327.984 113.793 328.248L113.727 328.248Z" fill="#D7D8D7"/>
<path d="M141.737 256.825C141.698 264.023 142.205 271.213 143.254 278.335C144.067 285.231 145.57 292.028 147.741 298.624C149.984 304.892 153.811 310.203 156.615 316.174C159.207 322.73 160.873 329.614 161.564 336.629C161.564 337.156 162.554 337.156 162.653 336.629C165.286 323.515 164.142 309.924 159.354 297.436C158.199 294.401 156.78 291.498 155.428 288.529C154.027 285.06 152.987 281.456 152.327 277.774C150.708 271.17 148.094 264.852 144.574 259.035C144.178 258.342 143.254 259.035 143.551 259.629C146.716 265.794 149.258 272.259 151.139 278.928C151.638 282.025 152.444 285.064 153.547 288.001C154.834 291.102 156.418 294.104 157.671 297.238C162.991 309.574 164.351 323.256 161.564 336.398L162.686 336.563C162.407 329.815 161.014 323.16 158.562 316.867C155.956 310.764 151.766 305.519 149.358 299.316C144.145 285.922 143.353 271.011 142.43 256.825C142.404 256.735 142.35 256.656 142.275 256.6C142.201 256.544 142.11 256.514 142.017 256.514C141.924 256.514 141.833 256.544 141.759 256.6C141.685 256.656 141.63 256.735 141.605 256.825L141.737 256.825Z" fill="#D7D8D7"/>
<path d="M24.4876 49.5486C24.1234 78.5115 15.717 106.803 0.206724 131.266L1.59232 132.091C4.46248 127.208 4.19856 121.369 4.89135 115.925C5.61444 109.23 6.90571 102.608 8.75122 96.131C12.0503 84.7493 17.3947 74.2584 21.1226 63.1406C23.2966 57.5097 24.4149 51.5267 24.4217 45.4907C24.4217 45.2632 24.3313 45.0451 24.1704 44.8842C24.0096 44.7234 23.7914 44.633 23.5639 44.633C23.3364 44.633 23.1182 44.7234 22.9574 44.8842C22.7965 45.0451 22.7062 45.2633 22.7062 45.4907C22.1783 59.5446 15.3493 72.2789 10.4667 85.0792C7.59044 92.6321 5.49022 100.458 4.19856 108.436C3.57174 112.296 3.14288 116.156 2.84596 120.049C2.88827 123.935 2.01819 127.777 0.305692 131.266C0.251537 131.357 0.215824 131.457 0.200609 131.562C0.185392 131.667 0.19098 131.774 0.21702 131.876C0.243059 131.979 0.289051 132.076 0.352382 132.16C0.415712 132.245 0.495128 132.317 0.586107 132.371C0.677087 132.425 0.777853 132.461 0.882631 132.476C0.987409 132.491 1.09415 132.486 1.19677 132.46C1.2994 132.434 1.39589 132.388 1.48074 132.324C1.56559 132.261 1.63713 132.181 1.69128 132.091C9.35796 119.932 15.3189 106.778 19.4071 92.9969C23.811 78.9442 25.9165 64.2726 25.6423 49.5486C25.6101 49.4109 25.5322 49.2881 25.4214 49.2003C25.3106 49.1124 25.1734 49.0646 25.032 49.0646C24.8906 49.0646 24.7533 49.1124 24.6425 49.2003C24.5317 49.2881 24.4539 49.4109 24.4217 49.5486L24.4876 49.5486Z" fill="#D7D8D7"/>
</svg>
