<svg width="311" height="448" viewBox="0 0 311 448" fill="none" xmlns="http://www.w3.org/2000/svg">
<path d="M81.2057 64.7368C105.663 112.303 136.9 155.859 165.294 201.348C179.481 223.625 192.286 246.753 203.638 270.601C215.266 296.096 224.751 322.516 231.995 349.586C236.187 364.931 239.905 380.422 243.367 395.985C246.83 411.549 250.657 427.113 252.771 442.859C252.99 444.572 250.584 445.374 250.11 443.588C246.465 429.919 243.951 415.814 240.925 401.963C237.9 388.112 234.656 374.189 231.084 360.448C224.255 333.062 215.298 306.251 204.294 280.26C183.154 231.6 153.265 187.643 124.762 143.029C108.407 117.921 93.5584 91.8622 80.2945 64.992C80.0029 64.4088 80.8777 63.8621 81.2057 64.4817L81.2057 64.7368Z" fill="#D7D8D7"/>
<path d="M251.453 446.652C246.005 437.175 238.369 429.139 229.183 423.215C219.835 416.978 210.998 410.007 202.757 402.366C195.184 394.661 188.271 386.333 182.091 377.472C175.661 368.562 169.77 359.275 164.449 349.661C158.404 338.853 153.843 327.28 150.89 315.253C150.832 314.966 150.874 314.667 151.01 314.407C151.147 314.147 151.368 313.942 151.638 313.827C151.907 313.711 152.209 313.692 152.491 313.773C152.773 313.853 153.019 314.029 153.186 314.269C159.605 323.339 166.933 331.729 175.056 339.31C183.512 347.571 191.944 355.87 200.351 364.204C208.407 372.26 216.608 380.278 224.08 388.917C230.868 396.585 236.538 405.174 240.919 414.431C245.654 424.663 249.744 435.181 253.166 445.923C253.749 447.709 251.052 448.365 250.396 446.688C246.751 437.139 243.507 427.407 239.243 418.076C235.032 408.603 229.511 399.768 222.841 391.833C215.551 383.376 207.787 375.504 199.987 367.594C192.187 359.685 183.403 350.973 175.019 342.699C166.117 334.42 158.048 325.288 150.927 315.436L153.186 314.488C158.216 336.357 169.88 355.675 182.346 373.79C188.618 382.993 195.64 391.661 203.34 399.706C211.66 407.536 220.581 414.702 230.021 421.138C239.06 427.917 247.626 435.717 252.073 446.178C252.291 446.688 251.417 447.053 251.161 446.543L251.453 446.652Z" fill="#D7D8D7"/>
<path d="M299.5 294.695C288.925 308.686 279.189 323.291 270.341 338.434C260.937 353.213 253.937 369.391 249.601 386.364C247.66 396.213 246.949 406.265 247.487 416.289C247.492 416.612 247.378 416.926 247.167 417.17C246.955 417.414 246.661 417.572 246.34 417.612C246.02 417.653 245.695 417.574 245.429 417.39C245.163 417.206 244.975 416.931 244.899 416.617C243.291 407.964 243.44 399.077 245.337 390.483C247.059 381.603 249.811 372.955 253.538 364.713C261.112 348.481 270.152 332.975 280.546 318.387C286.193 310.006 292.276 301.927 298.771 294.185C299.062 293.82 299.719 294.185 299.427 294.695L299.5 294.695Z" fill="#D7D8D7"/>
<path d="M270.85 291.342C268.772 303.917 266.33 316.382 263.961 328.884C262.929 334.709 262.223 340.586 261.847 346.489C261.482 350.936 261.373 357.679 257.619 360.704C257.511 360.813 257.374 360.888 257.224 360.919C257.074 360.949 256.919 360.934 256.777 360.875C256.636 360.816 256.516 360.716 256.432 360.589C256.348 360.461 256.304 360.31 256.306 360.157C256.588 357.688 257.088 355.249 257.801 352.868C258.298 350.097 258.615 347.296 258.748 344.484C259.091 338.795 259.871 333.141 261.081 327.572C263.851 315.362 266.694 303.151 269.829 291.123C269.863 290.988 269.949 290.871 270.069 290.8C270.188 290.728 270.331 290.706 270.467 290.74C270.602 290.774 270.719 290.86 270.79 290.98C270.862 291.1 270.883 291.243 270.85 291.378L270.85 291.342Z" fill="#D7D8D7"/>
<path d="M116.123 271.078C133.037 271.805 149.73 275.2 165.584 281.138C181.039 286.751 197.222 293.895 209.323 305.304C216.264 311.126 221.765 318.473 225.397 326.772C226.163 328.923 222.736 329.797 221.971 327.683C218.703 320.517 213.944 314.129 208.011 308.949C202.208 303.352 195.643 298.603 188.511 294.843C174.366 286.97 159.276 280.932 143.606 276.874C134.586 274.635 125.392 273.172 116.123 272.5C115.321 272.5 115.321 271.224 116.123 271.26L116.123 271.078Z" fill="#D7D8D7"/>
<path d="M146.775 246.432C169.921 259.955 192.592 275.591 208.739 297.169C210.962 300.049 213.04 303.074 214.972 306.136C217.091 309.099 218.772 312.352 219.965 315.795C220.293 316.925 218.653 318.055 217.851 316.998C215.409 313.863 213.805 310.072 211.655 306.719C209.504 303.366 207.171 300.012 204.693 296.841C199.606 290.345 194.025 284.252 187.999 278.617C174.929 266.969 160.935 256.4 146.156 247.015C146.086 246.947 146.041 246.856 146.029 246.759C146.017 246.662 146.037 246.563 146.088 246.479C146.138 246.395 146.216 246.33 146.307 246.295C146.399 246.26 146.5 246.257 146.593 246.286L146.775 246.432Z" fill="#D7D8D7"/>
<path d="M213.439 294.845C208.002 279.966 203.641 264.715 200.39 249.211C197.067 234.739 195.512 219.917 195.761 205.071C196.737 182.995 199.615 161.044 204.363 139.463C206.55 127.717 209.583 116.145 213.439 104.836C213.912 103.561 215.99 103.67 215.917 105.164C215.042 127.981 216.427 150.908 217.594 173.688C218.979 199.75 220.291 225.701 219.197 251.799C218.591 268.126 217.082 284.407 214.678 300.567C214.678 301.624 212.71 301.369 212.819 300.312C216.153 271.119 217.577 241.74 217.083 212.361C216.427 188.961 214.605 165.633 213.803 142.233C213.366 129.95 213.074 117.63 213.548 105.31L216.026 105.638C212.659 115.308 209.955 125.197 207.935 135.235C205.42 146.789 203.415 158.416 201.738 170.116C200.208 180.577 198.968 191.075 198.458 201.608C197.865 215.501 198.942 229.415 201.666 243.051C203.306 251.762 205.31 260.364 207.68 268.893C210.049 277.422 212.71 285.915 214.751 294.408C214.794 294.567 214.773 294.737 214.691 294.881C214.609 295.024 214.473 295.129 214.313 295.173C214.154 295.216 213.984 295.195 213.84 295.113C213.696 295.031 213.591 294.895 213.548 294.736L213.439 294.845Z" fill="#D7D8D7"/>
<path d="M171.195 217.825C166.275 206.89 152.205 203.245 142.036 199.6C130.701 195.7 119.11 192.711 107.592 189.467C96.1677 186.413 84.9939 182.489 74.1681 177.731C64.1928 173.141 55.0138 166.989 46.9772 159.506C38.2613 151.647 30.8758 142.427 25.1078 132.206C24.9799 132.003 24.9247 131.763 24.9513 131.525C24.978 131.286 25.0848 131.064 25.2544 130.895C25.4239 130.725 25.6461 130.618 25.8844 130.592C26.1227 130.565 26.3629 130.62 26.5658 130.748C43.2958 141.683 63.0147 146.713 82.0047 152.945C91.4576 155.926 100.639 159.706 109.451 164.245C118.395 169.304 126.84 175.199 134.673 181.849C143.895 189.394 152.898 197.486 161.719 205.286C163.031 206.416 161.135 208.275 159.86 207.145C143.822 193.55 128.732 178.314 110.362 167.744C92.9394 157.757 73.1111 153.164 54.3763 146.385C44.2195 142.979 34.5138 138.352 25.4723 132.607L26.9302 131.149C37.6935 150.538 54.2654 166.065 74.3139 175.544C96.5114 185.822 120.859 189.905 143.786 198.142C154.064 201.787 167.696 205.869 172.07 217.096C172.289 217.679 171.305 218.116 171.013 217.533L171.195 217.825Z" fill="#D7D8D7"/>
<path d="M168.932 64.9222C157.339 99.3739 153.993 136.065 159.164 172.046C160.736 182.125 162.841 192.114 165.469 201.97C165.502 202.256 165.431 202.544 165.269 202.782C165.107 203.02 164.865 203.192 164.588 203.267C164.31 203.342 164.014 203.315 163.755 203.191C163.495 203.067 163.289 202.853 163.173 202.59C157.825 185.068 154.931 166.889 154.571 148.573C154.085 130.56 155.712 112.553 159.419 94.9197C161.6 84.6612 164.524 74.5747 168.167 64.7399C168.349 64.2661 169.078 64.4848 168.932 64.9586L168.932 64.9222Z" fill="#D7D8D7"/>
<path d="M197.002 73.7389C190.259 83.3249 181.511 91.0886 173.857 99.9092C169.806 104.394 166.329 109.365 163.505 114.708C161.89 117.889 160.525 121.192 159.423 124.585C158.564 127.779 157.517 130.919 156.288 133.989C155.96 134.645 154.721 134.354 154.794 133.588C155.363 130.321 156.267 127.121 157.491 124.038C158.511 120.891 159.729 117.811 161.136 114.817C163.772 109.552 167.08 104.651 170.977 100.237C178.996 90.9428 188.582 83.0333 196.054 73.2286C196.419 72.7547 197.257 73.2286 196.893 73.7389L197.002 73.7389Z" fill="#D7D8D7"/>
<path d="M155.122 56.7154C148.916 79.658 149.806 103.942 157.674 126.369C158.038 127.354 156.471 127.791 156.143 126.807C147.877 104.201 147.3 79.4998 154.503 56.5332C154.537 56.4643 154.595 56.4097 154.665 56.3789C154.736 56.3481 154.815 56.3432 154.889 56.3649C154.963 56.3866 155.027 56.4336 155.069 56.4977C155.112 56.5618 155.131 56.6389 155.122 56.7154Z" fill="#D7D8D7"/>
<path d="M13.5873 73.6705C21.3867 74.4665 29.1373 75.6832 36.8054 77.3154C44.0986 79.0612 51.1853 81.5782 57.9458 84.8239C65.0169 88.1408 71.8328 92.1137 78.5759 95.9408C85.405 99.8314 91.9791 104.153 98.2584 108.88C105.004 113.593 110.99 119.309 116.009 125.829C116.41 126.412 115.535 126.959 115.061 126.522C109.594 121.929 104.819 116.571 99.206 111.942C93.1794 107.2 86.8346 102.876 80.2161 99.0025C67.6175 90.8025 53.9887 84.3068 39.6848 79.6846C31.1172 77.4107 22.3948 75.7662 13.5873 74.764C12.8948 74.764 12.8584 73.5612 13.5873 73.6341L13.5873 73.6705Z" fill="#D7D8D7"/>
<path d="M22.4492 101.514C33.3007 99.1877 44.342 97.8579 55.4355 97.5407C65.787 97.1033 77.5236 97.1033 87.2919 101.186C88.4219 101.659 88.0209 103.445 86.7452 103.117C81.6057 101.594 76.3524 100.485 71.0357 99.8005C65.7038 99.3266 60.3479 99.1805 54.9981 99.3631C44.0634 99.6912 33.3474 101.113 22.4856 101.696L22.4856 101.404L22.4492 101.514Z" fill="#D7D8D7"/>
<path d="M115.319 124.005C110.019 115.306 105.389 106.216 101.468 96.8138C98.7566 89.7756 96.9204 82.4307 96.001 74.9444C93.7776 58.6881 93.814 42.1403 93.1215 25.884C92.9782 17.8784 92.2104 9.89614 90.8252 2.00994C90.777 1.76402 90.8147 1.509 90.932 1.28757C91.0493 1.06613 91.2392 0.89171 91.4697 0.793509C91.7003 0.695307 91.9576 0.67928 92.1986 0.748111C92.4395 0.816941 92.6495 0.966451 92.7934 1.17162C95.6034 5.98375 98.0404 11.0041 100.083 16.1886C103.145 23.4784 105.842 31.0962 108.284 38.7141C114.01 55.5857 117.682 73.0859 119.219 90.8362C119.476 101.829 118.622 112.82 116.668 123.64C116.668 124.661 114.918 124.661 115.064 123.64C116.745 113.923 117.647 104.087 117.761 94.2259C117.302 85.6302 116.082 77.0921 114.116 68.7116C110.519 51.964 105.507 35.5517 99.1356 19.6513C96.8785 13.6428 94.1357 7.82821 90.9345 2.26509L92.9028 1.42676C95.8187 15.7877 95.4907 30.8046 95.9281 45.3842C96.4019 61.0938 96.8028 77.2771 101.578 92.1848C105.546 102.99 110.423 113.44 116.157 123.422C116.196 123.489 116.22 123.562 116.23 123.639C116.24 123.716 116.234 123.793 116.214 123.868C116.194 123.942 116.159 124.012 116.112 124.073C116.064 124.134 116.006 124.185 115.939 124.223C115.872 124.262 115.798 124.286 115.721 124.296C115.645 124.306 115.567 124.3 115.492 124.28C115.418 124.26 115.348 124.225 115.287 124.178C115.226 124.131 115.175 124.072 115.137 124.005L115.319 124.005Z" fill="#D7D8D7"/>
<path d="M65.751 30.5506C69.3959 38.2414 73.0408 45.7863 76.6857 53.4042C78.6175 57.4136 80.3305 61.4229 82.4081 65.4323C84.3212 68.7467 85.8498 72.2686 86.9643 75.9296C86.9953 76.0544 86.9815 76.1861 86.925 76.3017C86.8686 76.4172 86.7733 76.5092 86.6558 76.5614C86.5383 76.6136 86.4061 76.6228 86.2826 76.5872C86.159 76.5517 86.0519 76.4737 85.9801 76.367C83.9912 73.0391 82.3076 69.5378 80.9502 65.9062C79.0913 61.8603 77.3053 57.8145 75.2641 53.8051C71.6192 46.2602 68.193 38.6788 64.9491 31.0245C64.7304 30.4777 65.4958 29.9675 65.751 30.5506Z" fill="#D7D8D7"/>
<path d="M37.7539 23.9561C46.6473 30.539 54.9745 37.8543 62.6485 45.8255C66.6943 50.1629 70.5579 54.5368 74.3486 59.02C78.525 63.5663 82.328 68.442 85.7207 73.5996C85.8077 73.7156 85.8451 73.8614 85.8246 74.005C85.8041 74.1485 85.7274 74.278 85.6114 74.365C85.4954 74.452 85.3496 74.4894 85.206 74.4689C85.0625 74.4484 84.933 74.3717 84.846 74.2557C80.6179 69.9547 77.2281 64.6696 73.3645 60.0406C69.5009 55.4115 65.7831 51.1106 61.7737 46.846C54.223 38.8232 46.0579 31.4016 37.3529 24.6486C37.0613 24.4299 37.3529 23.9196 37.7539 24.1383L37.7539 23.9561Z" fill="#D7D8D7"/>
<path d="M270.705 291.193C272.041 291.684 273.491 291.773 274.877 291.449C276.263 291.125 277.524 290.403 278.505 289.37C279.557 288.349 280.276 287.033 280.569 285.596C280.861 284.159 280.713 282.667 280.145 281.315C279.525 280.083 278.593 279.034 277.442 278.273C276.291 277.512 274.961 277.066 273.584 276.978C272.317 276.955 271.071 277.31 270.006 277.998C268.942 278.686 268.106 279.676 267.606 280.841C266.846 282.353 266.656 284.088 267.071 285.728C267.486 287.368 268.479 288.803 269.866 289.771C270.887 290.464 269.866 292.104 268.882 291.412C267.301 290.357 266.112 288.81 265.499 287.011C264.887 285.212 264.884 283.261 265.492 281.461C265.958 279.903 266.862 278.511 268.096 277.451C269.331 276.391 270.843 275.708 272.454 275.483C274.11 275.372 275.765 275.714 277.242 276.472C278.719 277.229 279.962 278.374 280.837 279.784C281.756 281.246 282.187 282.962 282.069 284.684C281.951 286.407 281.29 288.047 280.181 289.37C279.102 290.815 277.598 291.885 275.88 292.432C274.989 292.722 274.046 292.817 273.116 292.71C272.185 292.603 271.288 292.297 270.486 291.813C270.413 291.784 270.355 291.727 270.325 291.655C270.294 291.583 270.293 291.502 270.322 291.43C270.351 291.357 270.407 291.299 270.479 291.269C270.551 291.238 270.632 291.237 270.705 291.266L270.705 291.193Z" fill="#D7D8D7"/>
<path d="M146.667 246.217C147.205 244.926 147.36 243.508 147.115 242.131C146.869 240.755 146.233 239.478 145.282 238.453C144.331 237.343 143.068 236.544 141.658 236.161C140.247 235.777 138.754 235.827 137.372 236.302C136.064 236.846 134.927 237.732 134.08 238.867C133.233 240.002 132.708 241.345 132.561 242.754C132.49 244.021 132.799 245.281 133.448 246.372C134.098 247.463 135.058 248.335 136.206 248.877C137.686 249.687 139.407 249.942 141.058 249.594C142.709 249.247 144.181 248.32 145.209 246.982C145.901 245.998 147.578 246.982 146.849 247.966C145.798 249.375 144.35 250.437 142.691 251.017C141.032 251.597 139.238 251.669 137.538 251.222C135.839 250.776 134.311 249.832 133.151 248.511C131.992 247.191 131.253 245.554 131.03 243.811C130.98 242.138 131.388 240.482 132.21 239.024C133.032 237.566 134.238 236.36 135.695 235.537C137.209 234.706 138.945 234.372 140.658 234.581C142.372 234.791 143.976 235.533 145.245 236.703C146.614 237.848 147.594 239.389 148.052 241.114C148.301 242.003 148.355 242.936 148.21 243.848C148.065 244.76 147.725 245.63 147.213 246.399C147.213 246.654 146.557 246.399 146.667 246.18L146.667 246.217Z" fill="#D7D8D7"/>
<path d="M169.264 65.3955C170.447 66.1641 171.827 66.5733 173.237 66.5733C174.647 66.5733 176.027 66.1641 177.21 65.3955C178.474 64.6816 179.497 63.6064 180.146 62.3076C180.796 61.0088 181.042 59.5456 180.855 58.1057C180.558 56.7352 179.896 55.4702 178.94 54.4439C177.985 53.4176 176.77 52.6679 175.424 52.2739C174.226 51.9716 172.965 52.0281 171.799 52.4363C170.632 52.8446 169.611 53.5866 168.863 54.5701C167.74 55.8579 167.122 57.5088 167.122 59.2174C167.122 60.926 167.74 62.5769 168.863 63.8646C169.702 64.7394 168.353 66.1245 167.515 65.2132C166.217 63.8052 165.427 62.0046 165.268 60.0966C165.11 58.1886 165.593 56.2823 166.64 54.6795C167.449 53.3125 168.627 52.2011 170.039 51.4726C171.451 50.7442 173.039 50.4282 174.622 50.5608C176.281 50.818 177.837 51.5247 179.122 52.6043C180.407 53.6838 181.372 55.0949 181.912 56.6842C182.463 58.3481 182.467 60.1448 181.922 61.811C181.378 63.4771 180.314 64.925 178.887 65.9422C177.494 67.0598 175.785 67.7103 174.002 67.8011C173.075 67.8559 172.146 67.7119 171.279 67.3787C170.411 67.0456 169.625 66.531 168.973 65.8693C168.932 65.8168 168.911 65.752 168.912 65.6857C168.913 65.6193 168.937 65.5554 168.979 65.5044C169.022 65.4534 169.08 65.4184 169.145 65.4053C169.21 65.3921 169.278 65.4015 169.337 65.4319L169.264 65.3955Z" fill="#D7D8D7"/>
<path d="M38.2291 24.1361C38.8986 22.8991 39.209 21.4996 39.1252 20.0956C39.0415 18.6916 38.567 17.3389 37.7552 16.1902C36.9205 14.9597 35.7293 14.0139 34.3416 13.4796C32.9539 12.9454 31.436 12.8483 29.9916 13.2014C28.6442 13.6205 27.4335 14.3924 26.4849 15.4371C25.5364 16.4817 24.8846 17.7611 24.5971 19.1426C24.4291 20.3767 24.6178 21.6331 25.141 22.7634C25.6641 23.8937 26.4999 24.8507 27.5495 25.5212C28.9465 26.4571 30.6241 26.8813 32.2981 26.7219C33.9721 26.5624 35.5394 25.8292 36.7346 24.6464C37.573 23.7352 38.9216 25.0838 38.0833 25.995C36.7605 27.4018 35.0061 28.327 33.0981 28.6241C31.19 28.9212 29.2374 28.5732 27.5495 27.6352C26.1286 26.9265 24.9348 25.8336 24.1037 24.4806C23.2725 23.1276 22.8374 21.5688 22.8476 19.9809C22.9871 18.2928 23.5925 16.6765 24.5965 15.3122C25.6004 13.9479 26.9634 12.8891 28.5336 12.2537C30.1611 11.5791 31.9614 11.4415 33.6725 11.8611C35.3836 12.2807 36.916 13.2355 38.0468 14.5865C39.2351 15.939 39.9961 17.6132 40.2338 19.3977C40.3496 20.3476 40.2528 21.3113 39.9502 22.2191C39.6476 23.1269 39.1468 23.956 38.4842 24.6464C38.2655 24.9015 37.901 24.6464 38.0468 24.3184L38.2291 24.1361Z" fill="#D7D8D7"/>
<path d="M65.8243 30.1064C66.7315 29.5742 67.4821 28.812 68.0005 27.8968C68.5189 26.9817 68.7866 25.9459 68.7767 24.8942C68.7961 23.8232 68.5164 22.7681 67.9691 21.8473C67.4218 20.9266 66.6286 20.1767 65.6785 19.682C64.7387 19.2968 63.7186 19.1485 62.708 19.2502C61.6974 19.3519 60.7273 19.7004 59.8831 20.2652C58.9833 20.8614 58.3082 21.741 57.9649 22.7644C57.6215 23.7878 57.6296 24.8965 57.9878 25.9148C58.4312 27.2221 59.3439 28.3185 60.5491 28.9918C61.7543 29.6651 63.1664 29.8674 64.5121 29.5597C64.7488 29.5071 64.9966 29.5472 65.2046 29.6718C65.4125 29.7963 65.5649 29.9958 65.6302 30.2293C65.6956 30.4627 65.669 30.7123 65.556 30.9268C65.4429 31.1412 65.252 31.3042 65.0224 31.3821C63.4212 31.8404 61.7096 31.7187 60.1893 31.0386C58.669 30.3584 57.4376 29.1635 56.7121 27.6643C56.0579 26.3838 55.8255 24.9291 56.048 23.5085C56.2706 22.0879 56.9368 20.774 57.9513 19.7549C58.9269 18.8841 60.1066 18.2739 61.381 17.9807C62.6554 17.6876 63.9831 17.7212 65.2411 18.0782C66.4936 18.505 67.5948 19.2872 68.4103 20.3292C69.2259 21.3713 69.7204 22.6282 69.8337 23.9465C70.0269 25.3461 69.7852 26.7713 69.1412 28.0288C68.8021 28.6167 68.3852 29.1562 67.9019 29.6326C67.3361 30.1165 66.6603 30.4544 65.9336 30.6167C65.8722 30.6225 65.8105 30.6086 65.7574 30.5771C65.7044 30.5455 65.6627 30.498 65.6384 30.4413C65.614 30.3845 65.6083 30.3215 65.6221 30.2614C65.6359 30.2012 65.6684 30.1469 65.715 30.1064L65.8243 30.1064Z" fill="#D7D8D7"/>
<path d="M12.9717 74.4303C13.0771 73.2942 12.8551 72.1516 12.3319 71.1376C11.8088 70.1235 11.0063 69.2804 10.0193 68.7078C9.08275 68.1264 7.99567 67.8336 6.89374 67.866C5.79181 67.8984 4.7238 68.2546 3.823 68.8901C3.02495 69.5527 2.40163 70.401 2.00764 71.3605C1.61365 72.3201 1.46105 73.3616 1.56318 74.3939C1.69833 75.3587 2.11684 76.2617 2.76572 76.9885C3.4146 77.7152 4.26464 78.233 5.20808 78.4762C6.4901 78.8185 7.85263 78.6861 9.0448 78.1034C10.237 77.5207 11.1785 76.527 11.696 75.3051C12.1334 74.1387 13.9923 74.649 13.5549 75.8154C13.0145 77.2739 12.0059 78.5121 10.6869 79.3365C9.36791 80.1608 7.81293 80.5248 6.2651 80.3715C4.95098 80.2229 3.70685 79.7012 2.67985 78.868C1.65285 78.0347 0.885915 76.9249 0.469696 75.6696C0.122552 74.4264 0.111728 73.1133 0.438328 71.8645C0.764928 70.6157 1.41725 69.4761 2.3286 68.562C3.3007 67.5734 4.55674 66.9122 5.92203 66.6705C7.28732 66.4288 8.69399 66.6186 9.94643 67.2134C11.3485 67.7998 12.5244 68.8223 13.2997 70.1293C13.6915 70.7807 13.934 71.5108 14.0097 72.2671C14.0853 73.0235 13.9922 73.7872 13.7371 74.5032C13.7371 74.7948 13.154 74.7584 13.154 74.5032L12.9717 74.4303Z" fill="#D7D8D7"/>
<path d="M22.1915 101.186C21.8864 100.145 21.3053 99.2051 20.5096 98.4671C19.7139 97.7292 18.7333 97.2203 17.6719 96.9944C16.6502 96.7609 15.5841 96.8105 14.5885 97.1381C13.593 97.4657 12.7057 98.0587 12.0223 98.8533C11.4484 99.6631 11.0763 100.598 10.9368 101.581C10.7973 102.564 10.8946 103.565 11.2204 104.503C11.5766 105.545 12.2745 106.436 13.2008 107.031C14.1271 107.627 15.2274 107.892 16.3232 107.783C17.716 107.692 19.0229 107.077 19.9825 106.064C20.942 105.05 21.4836 103.712 21.499 102.316C21.499 102.065 21.5988 101.824 21.7766 101.646C21.9543 101.468 22.1953 101.368 22.4467 101.368C22.698 101.368 22.939 101.468 23.1168 101.646C23.2945 101.824 23.3944 102.065 23.3944 102.316C23.4059 103.94 22.8578 105.519 21.8422 106.787C20.8266 108.055 19.4054 108.934 17.8177 109.278C16.3902 109.635 14.8857 109.522 13.5269 108.958C12.1681 108.393 11.0271 107.406 10.2727 106.143C9.67289 105.022 9.35905 103.77 9.35905 102.498C9.35905 101.227 9.67289 99.9746 10.2727 98.8533C10.959 97.7365 11.9542 96.8426 13.1381 96.2798C14.3219 95.7169 15.6435 95.5094 16.9429 95.6822C18.3821 95.8088 19.7458 96.3823 20.8429 97.3225C21.3825 97.7707 21.8231 98.3262 22.1368 98.9536C22.4505 99.581 22.6305 100.267 22.6654 100.967C22.6654 101.295 22.1915 101.332 22.0822 100.967L22.1915 101.186Z" fill="#D7D8D7"/>
<path d="M197.478 73.3735C198.665 74.1497 200.052 74.5632 201.469 74.5632C202.887 74.5632 204.274 74.1497 205.461 73.3735C206.725 72.6596 207.748 71.5844 208.397 70.2856C209.046 68.9868 209.293 67.5236 209.106 66.0837C208.798 64.7121 208.129 63.4478 207.167 62.4223C206.206 61.3967 204.987 60.6473 203.638 60.2519C202.44 59.9591 201.182 60.0202 200.017 60.4278C198.853 60.8354 197.832 61.5719 197.077 62.5482C195.954 63.836 195.336 65.4868 195.336 67.1954C195.336 68.904 195.954 70.5549 197.077 71.8427C197.879 72.7174 196.531 74.066 195.729 73.1913C194.437 71.7813 193.648 69.9842 193.483 68.0793C193.318 66.1743 193.787 64.2683 194.818 62.6575C195.633 61.2964 196.812 60.1898 198.223 59.4622C199.633 58.7346 201.218 58.4148 202.8 58.5388C204.457 58.7998 206.012 59.508 207.296 60.587C208.581 61.666 209.546 63.075 210.09 64.6622C210.641 66.3261 210.645 68.1228 210.1 69.789C209.556 71.4551 208.492 72.903 207.064 73.9203C205.668 75.0314 203.962 75.681 202.18 75.7792C201.252 75.8387 200.322 75.6969 199.454 75.3635C198.586 75.0301 197.8 74.5129 197.15 73.8474C196.932 73.6287 197.15 73.2277 197.478 73.41L197.478 73.3735Z" fill="#D7D8D7"/>
<path d="M155.855 56.5347C157.311 56.6761 158.776 56.3892 160.071 55.7093C161.366 55.0295 162.434 53.9861 163.145 52.7075C163.868 51.4673 164.208 50.0413 164.124 48.6084C164.04 47.1754 163.534 45.7991 162.671 44.6523C161.839 43.6819 160.784 42.9267 159.598 42.4508C158.411 41.9749 157.127 41.7923 155.855 41.9186C154.542 42.0846 153.314 42.6598 152.346 43.5626C151.377 44.4654 150.718 45.65 150.46 46.9486C150.065 48.6201 150.272 50.3778 151.045 51.9115C151.819 53.4453 153.109 54.6566 154.689 55.3318C155.855 55.7328 155.345 57.5917 154.215 57.1907C152.402 56.5312 150.857 55.2908 149.822 53.6625C148.787 52.0342 148.32 50.1095 148.492 48.1878C148.607 46.5283 149.202 44.938 150.205 43.6111C151.208 42.2842 152.576 41.2781 154.142 40.7158C155.684 40.2892 157.311 40.2698 158.864 40.6595C160.416 41.0491 161.841 41.8346 162.999 42.9392C164.208 44.1224 165.022 45.6508 165.329 47.3148C165.636 48.9788 165.42 50.697 164.712 52.2337C164.102 54.0137 162.845 55.4997 161.192 56.3975C159.538 57.2953 157.607 57.5393 155.782 57.0814C155.49 57.0814 155.527 56.4982 155.782 56.5347L155.855 56.5347Z" fill="#D7D8D7"/>
<path d="M116.523 270.054C117.242 268.128 117.387 266.036 116.943 264.03C116.498 262.024 115.482 260.189 114.017 258.747C112.553 257.306 110.702 256.319 108.689 255.906C106.676 255.494 104.586 255.673 102.673 256.422C100.917 257.286 99.414 258.589 98.3093 260.205C97.2047 261.82 96.5356 263.694 96.3669 265.643C96.3125 267.465 96.7903 269.262 97.742 270.816C98.6937 272.37 100.078 273.612 101.725 274.391C103.893 275.517 106.392 275.832 108.772 275.277C111.151 274.722 113.254 273.335 114.701 271.366C115.393 270.382 117.033 271.366 116.341 272.35C114.895 274.43 112.812 275.985 110.406 276.781C108.001 277.576 105.402 277.569 103.001 276.76C100.908 276.14 99.0352 274.937 97.6021 273.291C96.169 271.645 95.2348 269.624 94.9089 267.466C94.7213 265.203 95.1593 262.931 96.1749 260.9C97.1905 258.869 98.7447 257.156 100.668 255.948C102.677 254.699 105.031 254.122 107.389 254.299C109.748 254.476 111.989 255.398 113.789 256.932C115.854 258.386 117.321 260.539 117.918 262.993C118.514 265.446 118.2 268.033 117.033 270.272C117.033 270.564 116.377 270.272 116.523 270.054Z" fill="#D7D8D7"/>
<path d="M300.042 294.37C301.467 294.695 302.956 294.6 304.328 294.095C305.699 293.59 306.895 292.698 307.769 291.527C308.634 290.373 309.138 288.988 309.216 287.547C309.294 286.107 308.942 284.676 308.206 283.435C307.474 282.29 306.458 281.353 305.258 280.714C304.058 280.076 302.713 279.757 301.354 279.79C300.072 279.894 298.852 280.386 297.856 281.2C296.86 282.014 296.135 283.111 295.777 284.346C295.207 285.936 295.224 287.676 295.826 289.254C296.428 290.832 297.574 292.142 299.058 292.948C300.151 293.531 299.058 295.172 298.074 294.588C296.388 293.675 295.053 292.226 294.281 290.471C293.509 288.716 293.343 286.753 293.809 284.893C294.19 283.365 294.988 281.973 296.114 280.872C297.241 279.771 298.651 279.005 300.188 278.66C301.786 278.387 303.428 278.543 304.946 279.113C306.464 279.683 307.803 280.646 308.826 281.904C309.892 283.236 310.521 284.865 310.625 286.568C310.73 288.271 310.305 289.965 309.409 291.417C308.462 293.042 307.018 294.319 305.291 295.062C304.434 295.458 303.501 295.663 302.557 295.663C301.613 295.663 300.68 295.458 299.823 295.062C299.532 295.062 299.823 294.479 300.042 294.552L300.042 294.37Z" fill="#D7D8D7"/>
</svg>
