<svg width="213" height="59" viewBox="0 0 213 59" fill="none" xmlns="http://www.w3.org/2000/svg">
<path d="M78.7734 38.2946V16.6436H95.0471V21.4716H84.5764V25.2224H94.7411V29.3959H84.5764V33.4675H95.2799V38.2946H78.7734Z" fill="#1D1D1B"/>
<path d="M118.947 29.9634V30.5883C118.947 33.4092 118.326 35.4424 117.085 36.6878C115.844 37.934 113.813 38.5568 110.992 38.5562H109.028C105.964 38.5562 103.817 37.9044 102.585 36.6006C101.354 35.2969 100.738 33.002 100.738 29.716V25.2226C100.738 21.9371 101.354 19.6422 102.585 18.3379C103.817 17.0342 105.964 16.3823 109.028 16.3823H110.628C113.672 16.3823 115.795 16.9543 116.998 18.0983C118.2 19.2425 118.801 21.2588 118.801 24.1472V24.569H113.013V24.1759C113.052 23.7986 113.012 23.4172 112.894 23.0565C112.776 22.6959 112.584 22.3641 112.329 22.0826C111.631 21.6046 110.786 21.3883 109.944 21.4717C109.5 21.4145 109.048 21.4495 108.618 21.5746C108.188 21.6997 107.788 21.9121 107.443 22.1985C107.026 22.6831 106.817 23.8511 106.818 25.7027V29.2653C106.818 31.1068 107.026 32.2676 107.443 32.7478C107.789 33.0318 108.189 33.2422 108.619 33.366C109.049 33.4898 109.5 33.5244 109.944 33.4676C110.808 33.5615 111.676 33.3252 112.373 32.8062C112.892 32.1394 113.132 31.2975 113.042 30.4575V29.9634H118.947Z" fill="#1D1D1B"/>
<path d="M123.973 25.2226C123.973 21.9371 124.588 19.6422 125.819 18.3379C127.05 17.0342 129.196 16.3823 132.258 16.3823H135.103C138.175 16.3823 140.329 17.0368 141.564 18.3458C142.799 19.6539 143.417 21.9461 143.417 25.2226V29.716C143.417 32.9927 142.799 35.2853 141.564 36.5937C140.328 37.9026 138.175 38.5568 135.103 38.5562H132.258C129.196 38.5562 127.049 37.9044 125.819 36.6006C124.588 35.2969 123.973 33.002 123.973 29.7159V25.2226ZM129.906 25.7028V29.2654C129.906 31.1164 130.115 32.2796 130.531 32.7548C130.947 33.2298 131.818 33.4674 133.143 33.4677H134.218C135.543 33.4677 136.419 33.2251 136.845 32.74C137.271 32.2554 137.483 31.0973 137.484 29.2654V25.7028C137.484 23.8614 137.271 22.6956 136.845 22.2055C136.419 21.7166 135.543 21.4721 134.218 21.4718H133.143C131.828 21.4718 130.959 21.714 130.538 22.1986C130.117 22.6831 129.906 23.8512 129.906 25.7028Z" fill="#1D1D1B"/>
<path d="M149.453 38.2946V16.6436H160.462C163.526 16.6436 165.673 17.2835 166.905 18.5634C168.136 19.8428 168.752 22.0819 168.752 25.2808V29.6574C168.752 32.8566 168.136 35.096 166.905 36.3756C165.674 37.6549 163.526 38.2946 160.462 38.2946H149.453ZM155.256 33.4675H159.575C160.904 33.4675 161.776 33.2299 162.193 32.7546C162.61 32.2797 162.818 31.1165 162.819 29.2652V25.7026C162.819 23.8516 162.608 22.6835 162.186 22.1984C161.764 21.7138 160.894 21.4716 159.575 21.4716H155.256L155.256 33.4675Z" fill="#1D1D1B"/>
<path d="M171.773 25.2226C171.773 21.9371 172.389 19.6422 173.62 18.3379C174.85 17.0342 176.997 16.3823 180.059 16.3823H182.904C185.976 16.3823 188.129 17.0368 189.365 18.3458C190.6 19.6539 191.218 21.9461 191.218 25.2226V29.716C191.218 32.9927 190.6 35.2853 189.365 36.5937C188.129 37.9026 185.975 38.5568 182.904 38.5562H180.059C176.996 38.5562 174.85 37.9044 173.62 36.6006C172.389 35.2969 171.773 33.002 171.773 29.7159V25.2226ZM177.707 25.7028V29.2654C177.707 31.1164 177.915 32.2796 178.331 32.7548C178.748 33.2298 179.618 33.4674 180.944 33.4677H182.018C183.344 33.4677 184.22 33.2251 184.646 32.74C185.071 32.2554 185.284 31.0973 185.285 29.2654V25.7028C185.285 23.8614 185.072 22.6956 184.646 22.2055C184.22 21.7166 183.344 21.4721 182.018 21.4718H180.944C179.628 21.4718 178.76 21.714 178.339 22.1986C177.918 22.6831 177.707 23.8512 177.707 25.7028H177.707Z" fill="#1D1D1B"/>
<path d="M194.957 38.2946V16.6436H203.683C207.018 16.6436 209.306 17.0822 210.547 17.9595C211.789 18.8371 212.409 20.3761 212.409 22.5766V24.3213C212.482 25.5581 212.105 26.7795 211.347 27.7601C210.53 28.6437 209.407 29.182 208.206 29.2652C209.404 29.3815 210.53 29.8929 211.405 30.7188C212.124 31.5904 212.483 32.7036 212.409 33.8309V38.2946H206.475V34.3974C206.551 33.7201 206.361 33.0398 205.945 32.5002C205.374 32.0909 204.672 31.9071 203.974 31.9842H200.76V38.2946L194.957 38.2946ZM200.76 27.0987H204.003C204.702 27.177 205.406 26.9959 205.981 26.5897C206.392 26.0558 206.58 25.3831 206.504 24.7134V23.8847C206.58 23.2074 206.39 22.5273 205.974 21.9875C205.403 21.5782 204.701 21.3945 204.003 21.4715H200.76L200.76 27.0987Z" fill="#1D1D1B"/>
<path d="M21.0209 21.3765C22.5257 22.8071 24.1008 24.3022 25.692 25.8153C25.9025 25.704 26.1015 25.5721 26.286 25.4216C29.122 22.4542 31.9537 19.4828 34.7809 16.5071C35.1433 16.1277 35.4726 15.7862 34.9251 15.2711C32.8756 13.3481 30.8451 11.4044 28.7349 9.39985C22.2989 16.1694 15.9427 22.8556 9.49625 29.6375C9.76382 29.9278 10.0181 30.2379 10.3066 30.513C16.3962 36.3178 22.5058 42.1018 28.5641 47.9389C29.4427 48.786 29.92 48.712 30.7265 47.8544C36.4328 41.7821 42.1742 35.742 47.9507 29.7342C48.7582 28.8937 48.9043 28.3425 47.9232 27.5818C47.1433 26.9756 46.4724 26.2299 45.6726 25.4691C47.7809 23.2521 49.8418 21.0835 51.9691 18.8466C55.1164 21.5967 58.4734 24.1429 58.22 28.9649C58.1798 31.098 57.3557 33.1417 55.9048 34.7062C49.3114 41.6541 42.7106 48.5941 36.1026 55.5262C34.4447 57.2162 32.1918 58.1912 29.8247 58.2431C27.4577 58.2951 25.1641 57.4198 23.4337 55.8042C16.5622 49.3192 9.70785 42.8158 2.87051 36.2941C1.99262 35.4685 1.28717 34.477 0.794966 33.377C0.302758 32.2771 0.0335601 31.0905 0.0029426 29.8858C-0.0276749 28.6812 0.180895 27.4825 0.61659 26.359C1.05228 25.2354 1.70646 24.2094 2.54127 23.3403C9.00476 16.4986 15.4891 9.67714 21.9944 2.87595C22.8189 1.9971 23.8097 1.29062 24.9094 0.797469C26.009 0.304316 27.1957 0.034297 28.4005 0.00306019C29.6053 -0.0281766 30.8043 0.179985 31.9281 0.615493C33.0518 1.051 34.0779 1.70516 34.9469 2.5401C37.2801 4.71631 39.5912 6.91623 41.8801 9.13987C42.7651 9.9723 43.4744 10.9734 43.9664 12.0842C44.4584 13.195 44.723 14.393 44.7447 15.6077C44.7663 16.8223 44.5446 18.029 44.0926 19.1566C43.6405 20.2842 42.9673 21.31 42.1126 22.1734C39.2936 25.1569 36.466 28.1325 33.6299 31.1002C33.295 31.4531 32.9591 31.806 32.535 32.2519C34.2182 33.8513 35.7924 35.3483 37.3361 36.814C31.9182 36.9221 26.5659 37.0284 21.39 37.1308C21.2723 32.1191 21.1471 26.7602 21.0209 21.3765" fill="#223E91"/>
</svg>
