<svg width="216" height="61" viewBox="0 0 216 61" fill="none" xmlns="http://www.w3.org/2000/svg">
<path d="M3.94956 38.2213C6.42643 43.2188 9.67414 47.7902 13.5721 51.7658C17.2906 55.6452 21.7076 58.7788 26.5883 60.9999C33.4401 57.9395 39.4105 53.1841 43.9433 47.1766C51.6749 37.0465 51.8421 30.3867 51.8421 30.3867C48.0049 28.2586 44.0593 26.3346 40.0216 24.6227C36.4821 23.2961 25.4454 19.5941 24.4927 19.2749C24.5761 22.7105 25.1043 26.1205 26.0638 29.4187C30.6377 30.7087 35.0859 32.4133 39.3538 34.5116C36.5599 40.271 32.2138 45.1248 26.8109 48.5195C26.8109 48.5195 19.6908 44.7696 14.3516 34.6961C9.66661 25.8601 10.7285 15.4374 10.7285 15.4374L0.277782 12.646C0.277782 12.646 -1.50224 27.2537 3.94959 38.2213" fill="#EC1C24"/>
<path d="M6.33944 2.88069L4.92105 3.3561L3.47451 3.88815L1.72266 4.67071C1.72266 4.67071 10.7055 5.64552 26.8929 10.0451C43.0793 14.4429 53.1752 20.0893 53.1752 20.0893C53.1752 20.0893 53.252 18.8459 53.3211 17.2361C53.3918 15.6649 53.4558 13.8586 53.4251 12.961C53.3612 10.3603 53.1104 7.76778 52.6746 5.20357C52.6746 5.20357 46.856 1.31462 33.6931 0.264281C31.3697 0.0789313 29.153 1.8344e-07 27.0609 1.8344e-07C14.4591 -0.000839413 6.33944 2.88069 6.33944 2.88069Z" fill="#666666"/>
<path d="M1.89844 4.69212C3.20339 4.84914 11.9943 5.99558 26.893 10.045C43.0794 14.4429 53.1753 20.0893 53.1753 20.0893C53.1753 20.0893 53.2521 18.8458 53.3212 17.236C53.3919 15.6648 53.4559 13.8585 53.4252 12.9609C53.4235 12.4014 53.4031 11.8247 53.3698 11.2498C50.6123 9.62195 43.9196 6.35 32.3286 4.56936C27.297 3.79313 22.2142 3.40157 17.1238 3.39804C12.0205 3.37244 6.92516 3.80552 1.89849 4.69212" fill="#B2B2B2"/>
<path d="M79.8862 42.4534C79.5801 41.8413 79.1048 41.3311 78.5174 40.9843C77.93 40.6375 77.2555 40.4688 76.575 40.4986C74.9336 40.4986 73.1275 41.6273 73.1275 43.4445C73.1275 45.0687 74.7144 45.922 76.0006 46.4176L77.4781 46.9959C80.4061 48.1519 82.595 49.7761 82.595 53.2452C82.6051 54.1116 82.4401 54.9711 82.1102 55.7715C81.7803 56.5719 81.2922 57.2965 80.6756 57.9014C80.0589 58.5064 79.3266 58.979 78.523 59.2906C77.7194 59.6023 76.8613 59.7465 76.0006 59.7145C74.4124 59.7097 72.8823 59.1135 71.7051 58.041C70.5278 56.9685 69.7869 55.4955 69.625 53.906L72.2244 53.3552C72.2226 53.8763 72.3239 54.3926 72.5226 54.8739C72.7212 55.3552 73.0131 55.7918 73.3813 56.1583C73.7494 56.5249 74.1865 56.814 74.6669 57.0088C75.1473 57.2035 75.6615 57.3001 76.1794 57.2928C76.6973 57.2855 77.2086 57.1744 77.6834 56.9662C78.1582 56.7579 78.587 56.4566 78.9448 56.0798C79.3026 55.703 79.5822 55.2583 79.7673 54.7716C79.9525 54.2849 80.0394 53.766 80.023 53.2452C80.023 51.0153 78.2444 50.0515 76.4656 49.3082L75.043 48.7026C72.6894 47.7116 70.5555 46.3351 70.5555 43.4445C70.5555 40.0855 73.5106 38.0758 76.6299 38.0758C77.7166 38.0548 78.7878 38.337 79.7248 38.891C80.6618 39.445 81.4281 40.2493 81.9386 41.2147L79.8862 42.4534Z" fill="#939393"/>
<path d="M86.6153 53.2451C86.6423 55.4473 88.1203 57.5122 90.4734 57.5122C92.3615 57.5122 93.374 56.5488 94.3041 55.007L96.384 56.1905C95.8077 57.2668 94.9498 58.164 93.9032 58.7851C92.8565 59.4062 91.6611 59.7276 90.446 59.7144C86.5329 59.7144 84.1523 56.7413 84.1523 52.9421C84.1523 48.9779 86.2592 46.0044 90.3911 46.0044C94.4685 46.0044 96.384 49.0327 96.384 52.8596V53.2451L86.6153 53.2451ZM93.921 51.3731C93.856 50.483 93.4533 49.6521 92.7962 49.0524C92.1391 48.4528 91.2779 48.1303 90.3911 48.1518C89.4986 48.1507 88.6365 48.4773 87.9664 49.0705C87.2964 49.6636 86.8647 50.4824 86.7522 51.3731L93.921 51.3731Z" fill="#939393"/>
<path d="M107.903 50.0516C107.459 49.5055 106.899 49.0663 106.265 48.7662C105.63 48.4661 104.937 48.3127 104.236 48.3173C103.079 48.3595 101.985 48.8556 101.187 49.6994C100.389 50.5432 99.9515 51.6677 99.9675 52.8322C99.9375 53.4309 100.031 54.0295 100.242 54.5903C100.452 55.1511 100.776 55.662 101.192 56.0911C101.608 56.5202 102.108 56.8582 102.66 57.0839C103.212 57.3096 103.804 57.4182 104.4 57.4028C105.072 57.3928 105.734 57.2347 106.339 56.9397C106.945 56.6447 107.478 56.2199 107.903 55.6952V58.8608C106.818 59.4459 105.603 59.74 104.373 59.7146C103.477 59.7318 102.588 59.5694 101.756 59.2368C100.924 58.9043 100.166 58.4083 99.5266 57.7778C98.8873 57.1473 98.3791 56.395 98.0319 55.5648C97.6847 54.7345 97.5054 53.843 97.5045 52.9422C97.4923 52.0185 97.666 51.1017 98.0152 50.2472C98.3643 49.3927 98.8816 48.6181 99.536 47.97C100.19 47.3219 100.968 46.8137 101.823 46.4759C102.678 46.1381 103.592 45.9778 104.509 46.0046C105.694 45.9929 106.863 46.2868 107.903 46.8584V50.0516Z" fill="#939393"/>
<path d="M112.908 46.3899V53.5205C112.908 55.585 113.428 57.4026 115.863 57.4026C118.299 57.4026 118.818 55.585 118.818 53.5205V46.3899H121.281V53.7959C121.281 57.3198 119.64 59.7145 115.863 59.7145C112.087 59.7145 110.445 57.3198 110.445 53.7959V46.3899H112.908Z" fill="#939393"/>
<path d="M127.189 48.4825H127.272C127.526 47.7538 128 47.1232 128.628 46.679C129.256 46.2347 130.006 45.9989 130.774 46.0045C131.495 46.0201 132.196 46.2395 132.799 46.6377L131.677 48.8951C131.26 48.5341 130.722 48.3471 130.172 48.3724C127.518 48.3724 127.189 50.85 127.189 52.9422V59.2742H124.727V46.3899H127.189V48.4825Z" fill="#939393"/>
<path d="M135.397 53.2453C135.424 55.4475 136.902 57.5125 139.255 57.5125C141.143 57.5125 142.155 56.5491 143.085 55.0072L145.165 56.1908C144.589 57.267 143.731 58.1642 142.684 58.7853C141.638 59.4065 140.442 59.7278 139.227 59.7146C135.314 59.7146 132.934 56.7415 132.934 52.9423C132.934 48.9782 135.04 46.0046 139.172 46.0046C143.25 46.0046 145.165 49.033 145.165 52.8599V53.2453H135.397ZM142.702 51.3733C142.637 50.4832 142.234 49.6523 141.577 49.0526C140.92 48.453 140.059 48.1305 139.172 48.152C138.28 48.1509 137.418 48.4775 136.748 49.0707C136.078 49.6638 135.646 50.4826 135.533 51.3733H142.702Z" fill="#939393"/>
<path d="M157.943 59.2743H155.371V38.5166H157.943V59.2743Z" fill="#939393"/>
<path d="M163.99 48.1247H164.045C164.444 47.46 165.012 46.9136 165.69 46.5411C166.367 46.1687 167.131 45.9836 167.903 46.0045C171.515 46.0045 172.445 48.4549 172.445 51.5933V59.2743H169.983V51.8964C169.983 49.6937 169.682 48.2072 167.164 48.2072C163.99 48.2072 163.99 51.0154 163.99 53.3553V59.2743H161.527V46.39H163.99L163.99 48.1247Z" fill="#939393"/>
<path d="M179.664 54.4287L183.359 46.3899H186.122L179.664 59.7145L173.234 46.3899H175.998L179.664 54.4287Z" fill="#939393"/>
<path d="M188.393 53.2453C188.42 55.4475 189.898 57.5125 192.251 57.5125C194.139 57.5125 195.151 56.5491 196.081 55.0072L198.161 56.1908C197.585 57.267 196.727 58.1642 195.681 58.7853C194.634 59.4065 193.438 59.7278 192.223 59.7146C188.31 59.7146 185.93 56.7415 185.93 52.9423C185.93 48.9782 188.037 46.0046 192.168 46.0046C196.246 46.0046 198.161 49.033 198.161 52.8599V53.2453H188.393ZM195.698 51.3733C195.633 50.4832 195.231 49.6523 194.573 49.0526C193.916 48.453 193.055 48.1305 192.168 48.152C191.276 48.1509 190.414 48.4776 189.744 49.0707C189.074 49.6638 188.642 50.4826 188.53 51.3733H195.698Z" fill="#939393"/>
<path d="M205.41 49.336C205.268 49.0133 205.038 48.7368 204.748 48.5375C204.459 48.3382 204.119 48.2239 203.769 48.2073C203.426 48.2034 203.095 48.3331 202.845 48.5691C202.595 48.8052 202.446 49.1293 202.428 49.4737C202.428 50.6024 203.905 51.0979 205.41 51.7864C206.915 52.4744 208.366 53.4106 208.366 55.4475C208.359 56.0198 208.238 56.5848 208.012 57.11C207.786 57.6351 207.459 58.1099 207.049 58.5068C206.639 58.9037 206.155 59.2149 205.625 59.4222C205.095 59.6295 204.529 59.7289 203.96 59.7147C203.019 59.7326 202.094 59.4669 201.304 58.9517C200.514 58.4365 199.895 57.6954 199.527 56.8235L201.634 55.8606C201.814 56.3378 202.132 56.75 202.546 57.0443C202.961 57.3386 203.453 57.5016 203.96 57.5124C204.208 57.5269 204.456 57.4908 204.689 57.4063C204.922 57.3219 205.136 57.1908 205.317 57.021C205.499 56.8513 205.644 56.6463 205.745 56.4184C205.845 56.1905 205.899 55.9446 205.903 55.6952C205.901 55.3991 205.815 55.1096 205.655 54.861C205.495 54.6123 205.268 54.4148 205 54.2916L202.592 52.9975C201.169 52.2266 200.13 51.5109 200.13 49.749C200.132 49.2533 200.231 48.7628 200.422 48.3059C200.613 47.849 200.892 47.4346 201.243 47.0866C201.594 46.7385 202.01 46.4638 202.467 46.2781C202.924 46.0924 203.413 45.9995 203.905 46.0046C204.644 45.9989 205.368 46.2093 205.99 46.6101C206.612 47.011 207.104 47.5851 207.408 48.2625L205.41 49.336Z" fill="#939393"/>
<path d="M213.593 59.2742H211.13V48.7026H209.789V46.3899H211.13V41.4624H213.593V46.3899H216.001V48.7026H213.593V59.2742Z" fill="#939393"/>
<path d="M213.155 31.5574H70.6367V32.84H213.155V31.5574Z" fill="#EC1C24"/>
<path d="M89.5207 14.1236V14.9498C89.5207 20.6482 85.5257 25.0258 79.752 25.0258C76.9345 24.9381 74.2637 23.7411 72.3145 21.6924C70.3652 19.6437 69.2931 16.9069 69.329 14.0711C69.3649 11.2352 70.5058 8.52679 72.5063 6.52864C74.5067 4.53048 77.2069 3.40226 80.0257 3.38672C81.635 3.38568 83.2243 3.74601 84.6776 4.44144C86.1309 5.13687 87.4116 6.14986 88.4263 7.40654L86.6201 9.14086C85.6004 7.72279 84.1557 6.67099 82.498 6.13988C80.8404 5.60877 79.0572 5.62632 77.4102 6.18997C75.7632 6.75362 74.3392 7.83366 73.3473 9.27153C72.3553 10.7094 71.8477 12.4294 71.8989 14.1789C71.8989 18.5285 75.4559 22.6579 79.9163 22.6579C83.1177 22.6579 86.5657 19.8773 86.6751 16.4911H81.339V14.1236H89.5207Z" fill="#939393"/>
<path d="M94.361 24.5851H91.8984V0.688965H94.361V24.5851Z" fill="#939393"/>
<path d="M110.392 18.1705C110.398 19.5329 110.001 20.8662 109.253 22.0016C108.504 23.137 107.438 24.0234 106.188 24.5485C104.939 25.0736 103.562 25.2138 102.234 24.9513C100.905 24.6888 99.6835 24.0355 98.7241 23.074C97.7647 22.1126 97.1105 20.8863 96.8444 19.5505C96.5782 18.2147 96.7121 16.8294 97.2291 15.5702C97.746 14.3111 98.6228 13.2346 99.7483 12.4771C100.874 11.7196 102.198 11.3153 103.552 11.3153C104.452 11.301 105.345 11.4683 106.18 11.8074C107.014 12.1465 107.773 12.6505 108.411 13.2896C109.048 13.9287 109.552 14.6899 109.893 15.5282C110.233 16.3665 110.403 17.265 110.392 18.1705ZM99.1735 18.1705C99.1895 19.0382 99.4599 19.8819 99.9507 20.5956C100.442 21.3092 101.131 21.8612 101.932 22.1821C102.734 22.5031 103.612 22.5787 104.456 22.3995C105.3 22.2204 106.072 21.7944 106.677 21.175C107.281 20.5557 107.69 19.7706 107.852 18.9183C108.015 18.0659 107.923 17.1843 107.589 16.384C107.256 15.5838 106.694 14.9005 105.976 14.4201C105.258 13.9396 104.414 13.6833 103.552 13.6833C102.382 13.7006 101.266 14.1815 100.446 15.0217C99.6263 15.8618 99.1691 16.9933 99.1735 18.1705Z" fill="#939393"/>
<path d="M112.199 0.688965H114.662V13.8482H114.717C115.183 13.0781 115.838 12.4409 116.619 11.9976C117.4 11.5542 118.28 11.3193 119.177 11.3154C122.871 11.3154 125.197 14.5367 125.197 18.0605C125.197 21.7497 123.008 25.0258 119.067 25.0258C118.198 25.0091 117.346 24.7767 116.587 24.3492C115.828 23.9218 115.185 23.3125 114.717 22.5754H114.662V24.5851H112.199V0.688965ZM122.734 18.143C122.734 15.6378 121.229 13.518 118.575 13.518C116.03 13.518 114.525 15.7478 114.525 18.143C114.525 20.5657 115.975 22.8232 118.575 22.8232C121.257 22.8232 122.734 20.6758 122.734 18.143Z" fill="#939393"/>
<path d="M139.615 24.5852H137.152V22.5755H137.098C136.631 23.3149 135.989 23.9259 135.23 24.3537C134.47 24.7814 133.617 25.0124 132.747 25.0259C128.834 25.0259 126.617 21.7498 126.617 18.0606C126.617 14.5367 128.943 11.3154 132.665 11.3154C133.557 11.323 134.432 11.5597 135.208 12.0029C135.984 12.4462 136.634 13.0813 137.098 13.8483H137.152V11.7009H139.615L139.615 24.5852ZM137.289 18.143C137.289 15.6378 135.784 13.5181 133.13 13.5181C130.585 13.5181 129.08 15.7479 129.08 18.143C129.08 20.5658 130.53 22.8232 133.13 22.8232C135.811 22.8232 137.289 20.6759 137.289 18.143H137.289Z" fill="#939393"/>
<path d="M145.388 24.5851H142.926V0.688965H145.388V24.5851Z" fill="#939393"/>
</svg>
