<svg width="142" height="251" viewBox="0 0 142 251" fill="none" xmlns="http://www.w3.org/2000/svg">
<mask id="mask0" mask-type="alpha" maskUnits="userSpaceOnUse" x="0" y="0" width="142" height="251">
<rect x="0.640625" y="0.732422" width="140.371" height="249.459" fill="#C4C4C4"/>
</mask>
<g mask="url(#mask0)">
<path fill-rule="evenodd" clip-rule="evenodd" d="M96.8637 87.1674C96.8637 87.1674 100.172 94.7869 100.86 95.4738C101.547 96.1607 110.97 104.529 111.408 104.841C111.843 105.154 118.771 94.7869 118.771 94.7869L96.8637 87.1674ZM180.619 87.1674C180.619 87.1674 177.31 94.7869 176.625 95.4738C175.939 96.1607 166.514 104.529 166.078 104.841C165.641 105.154 158.714 94.7869 158.714 94.7869L180.619 87.1674ZM117.58 125.949C117.58 125.949 105.723 113.586 99.9822 111.338C94.2416 109.088 86.3753 110.462 86.3753 110.462L78.481 137.507C78.481 137.507 67.6538 116.207 65.1585 103.468C62.6616 90.7273 64.659 84.4832 64.659 84.4832C64.659 84.4832 59.0422 90.9779 56.5453 104.841C54.0484 118.705 55.9398 140.953 55.9398 140.953C55.9398 140.953 49.6807 118.954 49.6807 118.08C49.6807 117.206 49.4303 92.7261 49.4303 92.7261C49.4303 92.7261 40.8186 103.841 36.6998 115.332C32.5811 126.823 32.2054 146.248 32.2054 146.248L26.4648 136.316C26.4648 136.316 27.3369 101.345 37.0725 89.8532C46.8082 78.3628 52.0524 75.6151 52.0524 75.6151L66.163 63.4231C66.163 63.4231 65.1585 57.3794 60.1647 55.8818C55.1709 54.3826 46.0421 52.938 41.6921 49.8838C37.3436 46.8324 36.7204 45.382 36.7204 45.382L50.1801 40.519L93.8674 26.2766L130.562 21.5315L138.742 21.6893L146.922 21.5315L183.618 26.2766L227.303 40.519L240.764 45.382C240.764 45.382 240.139 46.8324 235.79 49.8838C231.442 52.938 222.31 54.3826 217.318 55.8818C212.326 57.3794 211.32 63.4231 211.32 63.4231L225.43 75.6151C225.43 75.6151 230.678 78.3628 240.413 89.8532C250.149 101.345 251.018 136.316 251.018 136.316L245.277 146.248C245.277 146.248 244.903 126.823 240.783 115.332C236.664 103.841 228.052 92.7261 228.052 92.7261C228.052 92.7261 227.802 117.206 227.802 118.08C227.802 118.954 221.543 140.953 221.543 140.953C221.543 140.953 223.434 118.705 220.937 104.841C218.442 90.9779 212.825 84.4832 212.825 84.4832C212.825 84.4832 214.821 90.7273 212.326 103.468C209.829 116.207 199.002 137.507 199.002 137.507L191.107 110.462C191.107 110.462 183.244 109.088 177.502 111.338C171.761 113.586 159.903 125.949 159.903 125.949C159.903 125.949 157.278 135.191 157.154 135.818C157.029 136.443 146.919 138.94 146.169 139.19C145.487 139.417 139.738 138.041 138.742 137.799C137.745 138.041 131.998 139.417 131.313 139.19C130.563 138.94 120.454 136.443 120.33 135.818C120.205 135.191 117.58 125.949 117.58 125.949Z" fill="#EA785E" fill-opacity="0.5"/>
<path fill-rule="evenodd" clip-rule="evenodd" d="M134.214 67.9144L125.178 55.2949L127.588 70.8184L123.286 86.6396C126.785 83.5926 136.457 73.7223 134.214 67.9144ZM112.93 96.2122L110.294 101.004C103.678 97.8955 101.521 93.5323 100.917 90.2481C104.606 91.7826 108.903 93.7917 112.93 96.2122ZM117.659 90.0682C111.559 86.1383 102.053 82.1805 95.5171 79.9826C94.9941 79.8382 94.3519 79.6362 93.5623 79.3503C93.1056 79.2117 92.2763 79.0348 91.2569 78.8624C87.1382 78.4378 81.8984 79.6981 81.8984 79.6981L93.0217 87.2911C92.9706 88.8033 93.0788 90.3166 93.3443 91.8061C89.1534 91.5055 84.9182 89.9577 82.7852 89.0718L77.4998 74.3605L81.8572 59.3589C81.8512 59.3545 81.8439 59.3515 81.8366 59.3471L69.9222 72.005C69.6288 72.5046 69.4517 73.0639 69.404 73.6414C69.3563 74.2189 69.4393 74.7998 69.6467 75.3408L76.0783 93.2478C76.4243 94.2136 77.1381 95.0032 78.064 95.4442C78.0919 95.4604 87.6243 100.108 96.4731 99.5317C98.7873 102.955 102.57 106.286 108.67 108.764C110.301 116.296 116.317 141.173 125.098 143.201C128.759 144.044 131.861 144.597 134.169 144.948C131.399 149.569 122.481 150.446 117.057 150.446C108.844 150.446 102.338 149.354 95.4715 144.606C95.4715 144.606 102.262 145.39 107.411 144.212C112.156 143.123 114.134 140.241 114.418 139.793C114.414 139.78 114.411 139.767 114.408 139.755C114.08 139.893 111.834 140.673 104.08 140.12C95.5981 139.513 84.5971 132.589 84.5971 132.589C83.3229 130.086 82.5245 127.473 82.3639 124.858C82.221 122.495 82.579 120.416 83.2242 118.609C85.2644 120.854 88.0825 123.556 91.5751 125.922C96.4761 128.73 105.621 127.735 106.371 127.645C106.371 127.641 106.374 127.635 106.374 127.632C97.3703 125.598 92.4958 119.362 87.6685 111.973C87.6685 111.973 91.2128 106.172 93.5682 104.947C93.5651 104.941 93.5635 104.934 93.5638 104.927C92.951 104.875 84.6266 104.327 77.5676 112.61C75.5229 116.355 74.3621 120.713 74.642 125.313C74.8806 129.264 76.3434 134.01 78.4793 137.507C85.2482 148.592 95.6231 155.906 108.094 157.597C108.094 157.597 111.06 175.911 123.319 180.514C115.912 174.189 115.887 158.197 115.887 158.197C123.675 158.343 133.489 157.071 138.888 151.507V137.762C137.865 137.664 133.452 137.18 126.826 135.652C122.118 134.565 117.278 112.277 116.101 106.51L119.31 100.671C120.056 101.292 120.769 101.926 121.433 102.58L125.823 107.075C125.823 107.075 125.245 98.6532 121.243 93.2669C120.187 92.0788 118.992 90.9645 117.659 90.0682ZM138.889 30.6529C157.452 26.101 180.343 31.6007 192.119 47.2008C177.761 40.4879 156.445 33.6541 139.966 38.3652H137.814C121.331 33.6541 100.016 40.4879 85.6606 47.2008C97.4351 31.6007 120.328 26.101 138.888 30.6529L138.889 34.509V30.6529ZM138.889 44.9897C141.654 44.2762 149.252 42.609 158.415 43.1441C172.733 44.2438 180.85 54.0818 180.85 54.0818C180.85 54.0818 167.656 48.6248 155.942 49.3323C144.721 50.0104 139.318 52.6298 138.889 52.8509H138.888C138.458 52.6298 133.057 50.0104 121.835 49.3323C110.121 48.6248 96.9284 54.0818 96.9284 54.0818C96.9284 54.0818 105.045 44.2438 119.363 43.1441C128.525 42.609 136.124 44.2762 138.888 44.9897L138.889 48.921V44.9897ZM143.566 67.9144L152.599 55.2949L150.189 70.8184L154.492 86.6396C150.992 83.5926 141.32 73.7223 143.566 67.9144ZM164.848 96.2122L167.488 101.004C174.099 97.8955 176.255 93.5323 176.86 90.2481C173.171 91.7826 168.875 93.7917 164.848 96.2122ZM160.119 90.0682C166.221 86.1383 175.725 82.1805 182.263 79.9826C182.786 79.8382 183.425 79.6362 184.216 79.3503C184.673 79.2117 185.501 79.0348 186.522 78.8624C190.64 78.4378 195.879 79.6981 195.879 79.6981L184.76 87.2911C184.807 88.8033 184.698 90.3163 184.434 91.8061C188.624 91.5055 192.86 89.9577 194.993 89.0718L200.279 74.3605L195.921 59.3589C195.93 59.3545 195.934 59.3515 195.942 59.3471L207.858 72.005C208.151 72.5047 208.328 73.0641 208.375 73.6417C208.422 74.2193 208.338 74.8001 208.13 75.3408L201.699 93.2478C201.354 94.2142 200.639 95.0041 199.713 95.4442C199.686 95.4604 190.154 100.108 181.307 99.5317C178.99 102.955 175.207 106.286 169.107 108.764C167.476 116.296 161.461 141.173 152.682 143.201C149.018 144.044 145.917 144.597 143.609 144.948C146.378 149.569 155.299 150.446 160.72 150.446C168.934 150.446 175.441 149.354 182.306 144.606C182.306 144.606 175.515 145.39 170.366 144.212C165.623 143.123 163.646 140.241 163.362 139.793C163.365 139.781 163.368 139.768 163.369 139.755C163.7 139.893 165.942 140.673 173.697 140.12C182.18 139.513 193.18 132.589 193.18 132.589C194.456 130.086 195.255 127.473 195.415 124.858C195.556 122.495 195.201 120.416 194.553 118.609C192.512 120.854 189.697 123.556 186.202 125.922C181.302 128.73 172.156 127.735 171.408 127.645C171.408 127.641 171.403 127.635 171.403 127.632C180.407 125.598 185.281 119.362 190.11 111.973C190.11 111.973 186.564 106.172 184.209 104.947C184.213 104.941 184.214 104.934 184.213 104.927C184.826 104.875 193.152 104.327 200.212 112.61C202.257 116.355 203.415 120.713 203.138 125.313C202.901 129.264 201.434 134.01 199.301 137.507C192.529 148.592 182.154 155.906 169.684 157.597C169.684 157.597 166.72 175.911 154.46 180.514C161.868 174.189 161.89 158.197 161.89 158.197C154.102 158.343 144.288 157.071 138.889 151.507V137.762C139.911 137.664 144.326 137.18 150.954 135.652C155.662 134.565 160.502 112.277 161.676 106.51L158.467 100.671C157.721 101.292 157.011 101.926 156.344 102.58L151.957 107.075C151.957 107.075 152.533 98.6532 156.535 93.2669C157.592 92.0788 158.786 90.9645 160.119 90.0682ZM138.889 239.673V235.801C149.678 235.801 157.693 232.238 158.926 231.656C162.198 229.969 163.88 232.659 165.58 234.657C168.37 231.153 172.925 224.194 176.942 212.372C182.798 195.159 198.89 188.664 205.358 186.701L208.138 185.752C211.991 184.015 215.281 180.955 215.281 180.955C215.281 180.955 215.529 183.885 214.772 187.627L213.158 194.316C215.113 192.535 217.558 189.984 220.37 186.377C227.107 177.736 238.684 151.444 240.403 137.502C243.551 140.001 243.858 143.4 245.575 146.248C247.241 135.624 248.699 118.348 243.636 105.502C240.512 97.5683 234.946 90.1508 229.372 84.0864C230.484 87.5947 231.49 91.5983 232.274 96.1532C235.761 116.395 229.462 143.152 227.246 151.577C225.994 156.319 222.285 162.304 222.153 162.525L219.243 154.681L216.765 148.804C213.56 153.467 208.298 159.865 200.36 166.132C188.145 175.749 183.144 188.731 178.767 200.115C175.081 209.698 171.801 218.23 165.059 223.725C164.344 224.389 163.404 224.757 162.429 224.756H115.352C114.376 224.757 113.436 224.389 112.72 223.725C105.978 218.23 102.695 209.698 99.0113 200.115C94.6347 188.731 89.635 175.749 77.4188 166.132C69.4803 159.865 64.2199 153.467 61.0115 148.804L58.5338 154.681L55.6273 162.525C55.4918 162.304 51.7841 156.319 50.5319 151.577C48.3165 143.152 42.016 116.395 45.5043 96.1532C46.2894 91.5983 47.2927 87.5947 48.4048 84.0864C42.8321 90.1508 37.2668 97.5683 34.1409 105.502C29.0794 118.348 30.5363 135.624 32.2039 146.248C33.9214 143.4 34.2308 140.001 37.3743 137.502C39.0949 151.444 50.6704 177.736 57.4068 186.377C60.2189 189.984 62.6673 192.535 64.6206 194.316L63.0046 187.627C62.2474 183.885 62.5008 180.955 62.5008 180.955C62.5008 180.955 65.7858 184.015 69.6394 185.752L72.422 186.701C78.8874 188.664 94.9839 195.159 100.835 212.372C104.854 224.194 109.408 231.153 112.198 234.657C113.9 232.659 115.581 229.969 118.851 231.656C120.084 232.238 128.1 235.801 138.888 235.801L138.889 239.673ZM224.025 94.2089C222.503 79.194 212.071 64.101 211.605 63.4347C211.609 63.4304 211.614 63.4264 211.618 63.423C212.289 63.6942 226.068 69.3516 236.901 80.9378C238.684 82.9721 240.445 85.1345 242.123 87.4002C242.549 88.0251 242.969 88.6045 243.375 89.1425C246.347 93.3745 248.976 97.9324 250.848 102.682C255.665 114.911 257.315 151.823 247.518 165.488C246.148 162.401 244.706 159.789 243.008 156.981C239.17 166.879 232.15 183.84 226.458 191.133C217.565 202.543 209.882 206.649 203.517 208.737C203.517 208.737 205.766 205.447 205.95 201.876L206.024 201.806L205.42 194.804C199.358 196.99 188.469 202.516 184.275 214.857C178.315 232.39 170.717 240.755 168.567 242.873L162.733 246.983C162.733 246.971 162.979 243.439 161.29 241.551L159.705 239.692C153.06 242.237 146.005 243.543 138.889 243.545H138.888C131.772 243.542 124.717 242.237 118.072 239.692L116.489 241.551C114.8 243.439 115.046 246.971 115.046 246.983L109.209 242.873C107.06 240.755 99.4635 232.39 93.5034 214.857C89.308 202.516 78.419 196.99 72.3573 194.804L71.7547 201.806L71.8269 201.876C72.011 205.447 74.2619 208.737 74.2619 208.737C67.8982 206.649 60.2116 202.543 51.3186 191.133C45.6295 183.84 38.6073 166.879 34.7699 156.981C33.0715 159.789 31.6308 162.401 30.2623 165.488C20.4633 151.823 22.1146 114.911 26.9316 102.682C28.8039 97.9324 31.4304 93.3745 34.4016 89.1425C34.8097 88.6045 35.2286 88.0237 35.6582 87.4002C37.3331 85.1345 39.0964 82.9721 40.8759 80.9378C51.7119 69.3516 65.4912 63.6942 66.1614 63.423C66.1659 63.4259 66.1673 63.4303 66.1717 63.4347C65.7062 64.101 55.2753 79.194 53.7522 94.2089C53.5356 95.2525 53.3303 96.3355 53.1364 97.4577C50.6896 111.659 53.5076 129.584 55.9382 140.953L57.3435 135.903C58.301 132.62 60.7758 130.85 60.7758 130.85C60.7758 130.85 62.0545 135.857 64.6603 140.088C66.403 143.316 71.5559 151.634 82.2048 160.038C96.0239 170.922 101.502 185.084 106.221 197.36C109.324 205.428 112.104 212.659 116.772 216.996H161.005C165.674 212.659 168.454 205.428 171.556 197.36C176.276 185.084 181.756 170.922 195.575 160.038C206.223 151.634 211.375 143.316 213.12 140.088C215.725 135.857 217.004 130.85 217.004 130.85C217.004 130.85 219.477 132.62 220.436 135.903L221.842 140.953C224.271 129.584 227.087 111.659 224.641 97.4577C224.446 96.3345 224.241 95.2516 224.025 94.2089ZM151.69 202.437C151.943 202.474 152.199 202.474 152.452 202.437C157.518 201.787 162.164 190.261 162.484 189.441C162.491 189.444 162.503 189.444 162.507 189.449C162.604 190.28 163.681 201.302 156.949 208.995C156.588 209.375 156.153 209.678 155.671 209.885C155.188 210.092 154.669 210.198 154.145 210.198H123.635C123.11 210.198 122.591 210.092 122.108 209.885C121.625 209.678 121.19 209.375 120.828 208.995C114.096 201.302 115.174 190.28 115.27 189.449C115.276 189.444 115.286 189.444 115.293 189.441C115.616 190.261 120.261 201.787 125.328 202.437C125.58 202.474 125.836 202.474 126.088 202.437H138.888L138.889 206.318V202.437H151.69ZM150.883 174.078L147.034 167.56H130.743L126.895 174.078H126.85L123.095 162.772C123.298 161.925 123.781 161.171 124.464 160.632C125.148 160.092 125.994 159.799 126.864 159.799H138.888L138.889 163.677V159.799H150.914C151.785 159.799 152.63 160.092 153.314 160.632C153.997 161.171 154.479 161.925 154.682 162.772L150.93 174.078L150.883 174.078ZM138.888 17.8034C135.18 17.2536 115.441 14.73 96.9622 20.445C89.0297 22.9022 82.0089 25.815 75.4507 28.5347C65.7298 32.5662 57.0577 36.163 48.7259 36.8499C42.2296 37.3835 38.1669 37.6046 35.6656 37.6842C31.3848 37.7623 28.253 37.1933 26.6444 34.4177C26.6444 34.4177 26.7754 38.0395 27.6166 41.9826L27.7226 42.5192C29.3667 49.1215 33.6769 59.2749 42.6568 63.7693C47.2057 66.0438 50.6557 59.1348 46.1112 56.8589C41.138 54.3721 38.2493 49.2011 36.7188 45.3818C39.5 45.283 43.5392 45.056 49.3329 44.5784C64.3598 43.3432 82.2843 33.088 99.2337 27.8418C117.714 22.1269 136.591 25.4155 138.564 25.5747C138.672 25.5825 138.78 25.5835 138.888 25.5777H138.889C138.997 25.5836 139.105 25.5826 139.213 25.5747C141.187 25.4155 160.065 22.1269 178.545 27.8418C195.493 33.088 213.42 43.3432 228.444 44.5784C234.239 45.056 238.277 45.283 241.058 45.3818C239.529 49.2011 236.639 54.3721 231.666 56.8589C227.121 59.1348 230.574 66.0438 235.122 63.7693C244.104 59.2749 248.41 49.1215 250.056 42.5192L250.162 41.9826C251.004 38.0395 251.133 34.4177 251.133 34.4177C249.525 37.1933 246.394 37.7623 242.111 37.6842C239.61 37.6046 235.55 37.3835 229.052 36.8499C220.721 36.163 212.047 32.5662 202.326 28.5347C195.77 25.815 188.749 22.9022 180.815 20.445C162.339 14.73 142.598 17.2536 138.889 17.8034V21.6935L138.888 17.8034Z" fill="#BA4C36" fill-opacity="0.5"/>
</g>
</svg>
