<svg width="144" height="144" viewBox="0 0 144 144" fill="none" xmlns="http://www.w3.org/2000/svg">
<path d="M91.8025 73.585C92.9137 62.3653 84.7173 52.3693 73.4954 51.2583C62.2735 50.1473 52.2755 58.3421 51.1643 69.5618C50.0531 80.7816 58.2495 90.7776 69.4714 91.8885C80.6934 92.9995 90.6913 84.8047 91.8025 73.585Z" fill="#87B7FD"/>
<path d="M14.02 47.2456H0.179688V60.0459C0.179685 64.2405 1.00605 68.3941 2.61159 72.2695C4.21714 76.1449 6.57043 79.6662 9.53709 82.6322C12.5038 85.5983 16.0257 87.9512 19.9018 89.5564C23.778 91.1616 27.9324 91.9878 32.1279 91.9878H44.9307V78.1503C44.9307 74.0919 44.1312 70.0731 42.5778 66.3236C41.0244 62.5741 38.7475 59.1671 35.8772 56.2974C33.0068 53.4276 29.5993 51.1512 25.849 49.5981C22.0987 48.045 18.0792 47.2456 14.02 47.2456Z" fill="#87B7FD"/>
<path d="M0.179688 129.446V143.284H12.9825C21.4557 143.284 29.5818 139.918 35.5733 133.928C41.5647 127.938 44.9307 119.813 44.9307 111.342V98.5413H31.0904C22.8924 98.5413 15.0301 101.797 9.23324 107.593C3.43635 113.389 0.179693 121.25 0.179688 129.446Z" fill="#87B7FD"/>
<path d="M65.5981 98.5413H51.7578V111.342C51.7578 115.536 52.5842 119.69 54.1897 123.565C55.7953 127.441 58.1486 130.962 61.1152 133.928C64.0819 136.894 67.6039 139.247 71.48 140.852C75.3561 142.457 79.5105 143.284 83.706 143.284H96.5089V129.446C96.5088 121.25 93.2522 113.389 87.4553 107.593C81.6584 101.797 73.7961 98.5413 65.5981 98.5413Z" fill="#87B7FD"/>
<path d="M129.247 96.7729H143.087V83.9728C143.087 79.7781 142.261 75.6245 140.655 71.7491C139.05 67.8737 136.696 64.3525 133.73 61.3864C130.763 58.4203 127.241 56.0674 123.365 54.4622C119.489 52.857 115.334 52.0308 111.139 52.0308H98.3359V65.8683C98.3359 69.9268 99.1355 73.9455 100.689 77.695C102.242 81.4445 104.519 84.8514 107.389 87.7212C110.26 90.591 113.667 92.8674 117.418 94.4205C121.168 95.9736 125.187 96.7729 129.247 96.7729Z" fill="#87B7FD"/>
<path d="M114.557 102.793H102.902V115.483C102.902 122.856 105.832 129.927 111.047 135.141C116.261 140.354 123.334 143.283 130.709 143.283H143.401V131.631C143.401 127.844 142.655 124.094 141.205 120.595C139.756 117.096 137.631 113.917 134.953 111.239C132.274 108.562 129.094 106.437 125.595 104.988C122.095 103.539 118.345 102.793 114.557 102.793Z" fill="#87B7FD"/>
<path d="M27.986 41.2257H40.678V29.5734C40.678 21.9251 37.6391 14.59 32.2298 9.18184C26.8206 3.77365 19.4841 0.735357 11.8342 0.735352H0.179688V13.4249C0.179708 20.7982 3.10931 27.8694 8.324 33.0831C13.5387 38.2967 20.6113 41.2257 27.986 41.2257Z" fill="#87B7FD"/>
<path d="M143.087 14.5729V0.735352H130.284C121.811 0.735377 113.685 4.10069 107.693 10.091C101.702 16.0812 98.3359 24.2058 98.3359 32.6773V45.4777H112.176C120.374 45.4776 128.237 42.2216 134.033 36.4258C139.83 30.6301 143.087 22.7693 143.087 14.5729Z" fill="#87B7FD"/>
<path d="M77.6648 45.4776H91.505V32.6772C91.505 24.2057 88.1391 16.0812 82.1477 10.0909C76.1562 4.10064 68.0301 0.735352 59.5569 0.735352H46.7539V14.5728C46.7539 18.6313 47.5534 22.65 49.1069 26.3996C50.6603 30.1491 52.9371 33.556 55.8075 36.4258C58.6778 39.2956 62.0854 41.572 65.8357 43.1251C69.586 44.6782 73.6055 45.4776 77.6648 45.4776Z" fill="#87B7FD"/>
</svg>
