<svg width="167" height="167" viewBox="0 0 167 167" fill="none" xmlns="http://www.w3.org/2000/svg">
<path d="M60.2492 59.9842C61.6465 61.2153 63.2177 62.2261 64.9101 62.9825C69.1836 64.6099 73.6197 65.7556 78.1388 66.3993C83.8277 67.6543 89.3111 69.6765 92.5327 74.976C95.0452 79.7173 96.4081 85.0006 96.508 90.3861C96.7895 93.4918 96.289 96.6194 95.0539 99.474C93.8188 102.329 91.8896 104.816 89.4481 106.703C85.8155 109.91 81.7029 112.49 78.7556 116.395C77.4059 118.028 76.4241 119.941 75.8794 122.001C75.3346 124.061 75.2402 126.218 75.6027 128.319C76.2617 130.17 77.0639 131.966 78.0017 133.688C79.7839 138.151 77.4533 139.824 75.9454 141.289C74.9463 142.179 73.8678 142.973 72.724 143.659C76.3567 142.613 80.8805 140.8 80.7434 136.268C80.6749 133.828 79.0984 131.875 78.1388 129.713C76.1511 125.111 78.0017 120.3 81.0176 116.674C85.1301 111.793 91.0248 108.864 94.9317 103.774C98.3588 99.3115 98.7701 94.3608 98.2217 88.7127C97.1251 77.7653 93.081 68.7004 82.0457 65.4928C76.014 63.7496 69.4339 63.6799 63.8134 60.6118C62.2868 59.7957 60.8985 58.7365 59.7009 57.4741C58.846 56.3138 57.9249 55.2055 56.9423 54.155C56.4024 54.1649 55.8635 54.1799 55.3281 54.2086C57.2217 55.6713 58.7371 58.651 60.2492 59.9842Z" fill="white"/>
<path d="M27.7008 128.262C26.2054 126.625 24.8122 124.899 23.5291 123.094C21.173 119.732 19.1837 116.131 17.5947 112.351C15.9889 108.539 15.221 104.45 13.6152 100.638C13.5989 100.61 13.5739 100.588 13.544 100.576C13.5141 100.563 13.4809 100.561 13.4494 100.569C13.4179 100.576 13.3898 100.594 13.3694 100.619C13.3489 100.644 13.3372 100.675 13.3359 100.707C13.4002 104.744 14.2786 108.726 15.9191 112.42C17.4618 116.374 19.4527 120.141 21.8535 123.648C23.1973 125.63 24.6791 127.517 26.2879 129.294C26.6663 128.948 27.0747 128.636 27.5085 128.361C27.5715 128.324 27.6376 128.298 27.7008 128.262Z" fill="white"/>
<path d="M32.2329 119.611C28.1786 114.331 24.9716 108.474 22.7226 102.246C20.4346 95.9436 19.791 89.4314 18.2894 82.9893C18.2178 82.8493 18.0033 82.8493 18.0033 82.9893C17.0738 89.5015 18.933 96.7137 21.078 102.806C23.2946 109.157 26.5028 115.133 30.5883 120.522C32.0066 122.43 33.5412 124.252 35.1836 125.979C36.0036 125.905 36.8201 125.82 37.6476 125.765C35.7146 123.825 33.9062 121.77 32.2329 119.611Z" fill="white"/>
<path d="M23.9624 78.0723C23.8914 76.8858 22.0413 77.3047 22.1836 78.4214C23.5368 96.5073 31.6902 113.456 45.0622 125.979C45.9063 125.922 46.7491 125.861 47.5906 125.794C33.7908 113.43 25.3369 96.3553 23.9624 78.0723Z" fill="white"/>
<path d="M30.6429 71.6408C30.5724 70.5235 28.7401 70.3838 28.8106 71.5011C29.4835 81.5579 32.2075 91.375 36.818 100.359C41.4286 109.343 47.8297 117.307 55.6346 123.769C56.2851 123.537 56.9208 123.266 57.5384 122.958C49.7502 116.683 43.3447 108.891 38.7184 100.064C34.0921 91.2372 31.3436 81.5631 30.6429 71.6408Z" fill="white"/>
<path d="M37.2533 68.323C37.1836 67.2092 35.3697 67.07 35.4395 68.1838C36.0617 78.0923 38.7515 87.7618 43.3364 96.5727C47.9213 105.384 54.3003 113.142 62.0646 119.349C62.4256 118.9 62.7588 118.43 63.0623 117.94C55.566 111.891 49.4039 104.361 44.9625 95.8227C40.5211 87.2842 37.8965 77.9217 37.2533 68.323Z" fill="white"/>
<path d="M43.8835 65.0256C43.8137 63.8906 42.0006 63.7488 42.0703 64.8837C43.1379 83.5531 51.2454 101.084 64.7043 113.825C64.9175 113.164 65.1036 112.496 65.2732 111.824C52.5933 99.5284 44.9526 82.8113 43.8835 65.0256Z" fill="white"/>
<path d="M55.1023 54.053C54.4723 53.5191 53.6777 53.2187 52.8523 53.2024V53.1325C53.4592 52.9054 54.1156 52.844 54.7541 52.9546C55.3926 53.0651 55.9901 53.3437 56.4854 53.7616C56.5809 53.8307 56.6574 53.9235 56.7476 53.9993C57.0339 53.9942 57.3159 53.9713 57.6033 53.9713C63.8633 53.9672 70.0629 55.197 75.8476 57.5904C81.6323 59.9839 86.8889 63.494 91.3169 67.9203C95.7449 72.3466 99.2575 77.6023 101.654 83.3871C104.051 89.1719 105.284 95.3723 105.284 101.634C105.284 107.896 104.051 114.096 101.654 119.881C99.2575 125.666 95.7449 130.922 91.3169 135.348C86.8889 139.774 81.6323 143.284 75.8476 145.678C70.0629 148.071 63.8633 149.301 57.6033 149.297H56.2059C53.0388 149.811 49.8412 150.114 46.6341 150.206C50.2377 150.992 53.9149 151.39 57.6032 151.394C66.8041 151.384 75.8219 148.821 83.6526 143.988C91.4832 139.156 97.8195 132.245 101.956 124.024C106.092 115.803 107.867 106.595 107.081 97.4247C106.296 88.2547 102.981 79.4828 97.5073 72.0854C92.0332 64.6879 84.614 58.9553 76.0757 55.5258C67.5374 52.0962 58.2151 51.1044 49.1466 52.6606C40.0782 54.2167 31.6194 58.2597 24.712 64.3397C17.8046 70.4197 12.7198 78.2981 10.0234 87.0975C10.862 85.8396 11.7003 84.6516 12.5387 83.3936C12.7406 83.1006 12.9271 82.7972 13.0976 82.4849C14.4427 80.2157 15.9122 78.0225 17.4993 75.9156C21.6001 69.5641 27.1442 64.2726 33.6793 60.4731C40.2144 56.6735 47.5551 54.4736 55.1023 54.053Z" fill="white"/>
<path d="M53.1172 53.2718V53.3389C53.8197 53.3545 54.4959 53.6427 55.0319 54.1548C55.4965 54.1272 55.9638 54.1127 56.4322 54.1032C56.3554 54.0305 56.2903 53.9415 56.209 53.8752C55.7875 53.4743 55.279 53.2072 54.7356 53.1011C54.1923 52.9951 53.6337 53.054 53.1172 53.2718Z" fill="white"/>
<path d="M112.788 101.116C112.789 86.3451 106.99 72.1764 96.6635 61.7162C86.3368 51.256 72.3245 45.3579 57.6987 45.3149C43.0729 45.272 29.0269 51.0878 18.6401 61.4872C8.25336 71.8866 2.37331 86.0211 2.28906 100.792C3.07329 104.487 4.10617 108.123 5.38049 111.675C2.99598 99.584 4.80325 87.0323 10.4989 76.1277C16.1945 65.2231 25.4316 56.6296 36.6592 51.79C47.8869 46.9504 60.4214 46.1594 72.1582 49.55C83.8951 52.9405 94.1194 60.3061 101.115 70.41C108.11 80.5139 111.45 92.7407 110.574 105.038C109.699 117.335 104.66 128.953 96.3053 137.942C87.9504 146.931 76.7875 152.743 64.6911 154.402C52.5946 156.061 40.3012 153.467 29.8748 147.055C32.6323 149.402 35.5381 151.566 38.5738 153.533C46.9225 156.612 55.8835 157.612 64.6964 156.447C73.5093 155.283 81.9141 151.989 89.1977 146.845C96.4813 141.7 102.429 134.858 106.536 126.897C110.642 118.936 112.787 110.093 112.788 101.116Z" fill="white"/>
<path d="M119.417 101.777C119.418 87.6428 114.559 73.9331 105.646 62.9205C96.7325 51.9079 84.2998 44.2538 70.4093 41.2274C56.5189 38.2011 42.0049 39.9841 29.2738 46.2809C16.5427 52.5777 6.35925 63.0101 0.411802 75.8483C0.217119 77.9842 0.105894 80.1424 0.078125 82.323C3.68674 71.9217 10.1077 62.7091 18.6368 55.6957C27.1659 48.6823 37.4735 44.1391 48.4292 42.5642C59.3848 40.9894 70.5653 42.4439 80.7441 46.7681C90.9229 51.0923 99.7069 58.1191 106.133 67.078C112.558 76.0368 116.378 86.5816 117.171 97.5556C117.965 108.53 115.703 119.509 110.633 129.289C105.562 139.069 97.8801 147.273 88.4283 153C78.9765 158.727 68.1205 161.756 57.0508 161.755C56.7233 161.755 56.4003 161.736 56.074 161.73C58.0262 162.405 60.0067 163.018 62.0218 163.549C77.643 162.291 92.2169 155.24 102.85 143.797C113.483 132.353 119.396 117.354 119.417 101.777Z" fill="white"/>
<path d="M127.153 101.849C127.162 87.6362 122.837 73.7602 114.757 62.0784C106.677 50.3965 95.2284 41.4662 81.9433 36.483C68.6582 31.4997 54.1708 30.7012 40.4203 34.1945C26.6698 37.6877 14.3125 45.306 5.00261 56.0295C4.41256 57.7457 3.87653 59.4858 3.39453 61.2498C9.79167 52.6784 18.1263 45.749 27.7145 41.0302C37.3027 36.3115 47.871 33.938 58.5522 34.1045C69.2334 34.271 79.723 36.9728 89.16 41.9881C98.597 47.0034 106.712 54.1893 112.84 62.9559C118.968 71.7226 122.934 81.8202 124.412 92.42C125.89 103.02 124.838 113.82 121.342 123.933C117.847 134.047 112.007 143.186 104.304 150.6C96.5995 158.014 87.2505 163.493 77.0238 166.585C78.9272 166.741 80.8469 166.838 82.7844 166.864C95.8464 161.752 107.067 152.813 114.982 141.215C122.897 129.618 127.139 115.899 127.153 101.849Z" fill="white"/>
<path d="M57.0983 25.4253C41.2202 25.4085 25.732 30.3344 12.7904 39.5171C11.8197 41.0679 10.8923 42.6479 10.0234 44.2652C17.9612 37.8075 27.1464 33.051 37.0066 30.2923C46.8667 27.5336 57.1905 26.8318 67.3343 28.2305C77.4782 29.6293 87.2247 33.0986 95.9663 38.4223C104.708 43.7461 112.257 50.8101 118.144 59.174C124.03 67.538 128.128 77.0226 130.181 87.0366C132.234 97.0507 132.199 107.38 130.077 117.379C127.955 127.379 123.793 136.836 117.849 145.159C111.906 153.483 104.308 160.495 95.5303 165.759C97.2619 165.508 98.9758 165.206 100.672 164.853C114.127 155.588 124.26 142.271 129.592 126.848C134.924 111.424 135.174 94.703 130.306 79.1274C125.439 63.5519 115.708 49.9385 102.537 40.2766C89.3655 30.6147 73.4437 25.4108 57.0983 25.4253Z" fill="white"/>
<path d="M56.9311 18.7949C45.4545 18.7865 34.1009 21.1481 23.5866 25.7305C22.3381 27.0102 21.1322 28.3295 19.9688 29.6882C37.4665 20.7783 57.6107 18.4803 76.6774 23.2189C95.7442 27.9575 112.444 39.4122 123.69 55.4656C134.936 71.519 139.967 91.0855 137.854 110.548C135.741 130.01 126.626 148.052 112.194 161.339C113.943 160.694 115.656 159.977 117.347 159.22C128.625 147.449 136.185 132.636 139.086 116.623C141.988 100.609 140.105 84.0985 133.67 69.1417C127.235 54.1849 116.532 41.4401 102.889 32.4897C89.247 23.5392 73.2662 18.7773 56.931 18.7951L56.9311 18.7949Z" fill="white"/>
<path d="M57.8032 9.95533C52.3633 9.9622 46.9349 10.4533 41.5825 11.4229C39.8635 12.4289 38.1836 13.4913 36.543 14.6101C54.1036 10.3071 72.56 11.4226 89.4712 17.8091C106.383 24.1956 120.952 35.5523 131.253 50.3771C141.554 65.2019 147.101 82.7964 147.16 100.834C147.22 118.871 141.789 136.502 131.586 151.394C133.227 150.245 134.831 149.049 136.383 147.788C144.647 133.944 149.086 118.162 149.247 102.049C149.409 85.9367 145.287 70.0694 137.302 56.0627C129.316 42.056 117.753 30.4101 103.788 22.3109C89.8235 14.2118 73.9567 9.94855 57.8032 9.95533Z" fill="white"/>
<path d="M63.0037 2.22021C60.7737 2.79022 58.588 3.46767 56.4336 4.21338C56.8633 4.2077 57.2879 4.18063 57.7188 4.18063C73.5219 4.17506 89.0877 8.03826 103.066 15.4351C117.044 22.8319 129.013 33.539 137.934 46.6276C146.855 59.7162 152.458 74.7911 154.258 90.5445C156.059 106.298 154.001 122.254 148.264 137.029C149.739 135.238 151.127 133.373 152.452 131.461C156.973 116.973 158.134 101.64 155.846 86.6336C153.559 71.6269 147.883 57.3434 139.253 44.874C130.623 32.4046 119.266 22.0793 106.051 14.6869C92.8362 7.29441 78.1121 3.03035 63.0037 2.22034V2.22021Z" fill="white"/>
<path d="M90.7117 0.329246C88.3907 0.13365 86.049 0.0102539 83.6773 0.0102539C83.0637 0.0102539 82.4581 0.0432891 81.8477 0.0566256C106.696 5.90273 128.505 20.762 143.07 41.7694C157.635 62.7769 163.924 88.4448 160.724 113.824C161.794 111.131 162.721 108.383 163.501 105.591C163.566 104.077 163.617 102.558 163.617 101.027C163.589 78.6873 156.527 56.926 143.436 38.8447C130.345 20.7633 111.894 7.28453 90.7117 0.329246Z" fill="white"/>
<path d="M166.934 82.8848C166.878 77.8327 166.37 72.796 165.414 67.836C159.936 50.5335 150.408 34.8085 137.633 21.9845C134.112 18.4534 130.368 15.1552 126.424 12.1105C122.088 9.50392 117.524 7.30299 112.789 5.5354C126.868 13.6808 139.008 24.8236 148.361 38.1843C157.713 51.5451 164.052 66.8009 166.934 82.8848Z" fill="white"/>
<path d="M38.0325 128.924C40.2671 128.713 42.5715 128.643 44.8059 128.432C48.3447 128.225 51.8539 127.661 55.2802 126.747C57.8908 126.033 60.267 124.637 62.1678 122.701C64.0686 120.766 65.4264 118.359 66.1035 115.726C66.7975 113.492 67.2195 111.182 67.3604 108.846C67.5584 107.561 67.511 106.251 67.2209 104.985C67.0252 105.631 66.862 106.287 66.732 106.95C66.6126 108.556 66.3486 110.148 65.943 111.706C66.0919 111.85 66.2327 112.002 66.3828 112.145C66.2429 112.298 66.1677 112.5 66.1733 112.707C66.1152 113.267 66.0919 113.829 66.1035 114.392C65.8543 114.162 65.6193 113.919 65.3734 113.686C65.1489 114.373 64.9034 115.053 64.6371 115.726C64.2726 116.625 63.8273 117.488 63.3067 118.305C63.5667 118.519 63.8154 118.745 64.0784 118.955C63.8689 119.505 63.5872 120.025 63.2406 120.5C62.9226 120.249 62.6216 119.981 62.3081 119.726C61.0694 121.25 59.5221 122.491 57.7692 123.367C58.1519 123.672 58.5215 123.994 58.9113 124.291C58.2827 124.642 57.6543 124.852 57.0259 125.133C56.6356 124.827 56.266 124.497 55.8829 124.182C54.7557 124.595 53.5965 124.913 52.4172 125.133C50.9867 125.396 49.5425 125.578 48.0915 125.677C48.5551 126.105 49.0095 126.542 49.4842 126.958C48.6464 127.099 47.8083 127.169 47.0403 127.239C46.553 126.792 46.0855 126.324 45.6103 125.864C44.5947 125.934 43.5798 126.008 42.5713 126.116C41.0713 126.263 39.5731 126.357 38.0831 126.459C38.3722 126.76 38.6482 127.086 38.9402 127.38C38.1021 127.38 37.2643 127.45 36.4263 127.52C36.1693 127.243 35.9307 126.953 35.6768 126.673C35.1362 126.723 34.5881 126.751 34.0522 126.818C32.1536 127.005 30.3156 127.593 28.6582 128.543C29.0624 128.995 29.4448 129.472 29.8624 129.907C29.3962 130.291 29.0156 130.77 28.7452 131.311C28.2256 130.755 27.7466 130.161 27.2451 129.588C25.6295 131.101 24.4167 132.997 23.7175 135.102C23.1254 136.702 22.6215 138.343 22.1758 140.002C22.6219 140.495 23.0909 140.967 23.5483 141.449C24.2518 139.164 25.1014 136.927 26.0917 134.751C26.6335 133.543 27.4339 132.469 28.4357 131.608C29.4375 130.746 30.6161 130.118 31.8875 129.767C33.9088 129.314 35.9644 129.032 38.0325 128.924Z" fill="white"/>
<path d="M20.43 143.81C19.6921 147.032 19.1959 150.293 18.9447 153.572C18.7802 154.325 18.8661 155.103 19.1921 155.814C19.3572 154.657 19.4397 153.572 19.6873 152.56C20.5899 148.672 21.7471 144.833 23.1532 141.062C23.1977 140.951 23.2392 140.841 23.2832 140.73C22.7427 140.233 22.1884 139.747 21.6613 139.239C21.1944 140.753 20.7789 142.281 20.43 143.81Z" fill="white"/>
<path d="M29.9126 129.278C29.3837 128.931 28.8994 128.551 28.3874 128.189C28.3074 128.218 28.2235 128.239 28.1438 128.27C27.5943 128.492 27.0769 128.744 26.5977 129.024C27.2328 129.481 27.8396 129.955 28.4976 130.399C28.8401 129.967 29.3222 129.585 29.9126 129.278Z" fill="white"/>
<path d="M38.7525 126.938C38.4559 126.632 38.1755 126.293 37.8819 125.979C37.0609 126.037 36.2509 126.125 35.4375 126.202C35.6954 126.494 35.9377 126.795 36.1988 127.084C37.0502 127.011 37.9013 126.938 38.7525 126.938Z" fill="white"/>
<path d="M48.6978 126.687C48.2915 126.098 47.9026 125.48 47.506 124.874C46.7993 124.968 46.0916 125.056 45.3828 125.138C45.7894 125.789 46.1895 126.451 46.6065 127.084C47.2637 126.985 47.9808 126.886 48.6978 126.687Z" fill="white"/>
<path d="M58.6431 123.82C58.2166 123.449 57.812 123.046 57.393 122.664C56.7232 123.052 56.0336 123.393 55.3281 123.685C55.7475 124.078 56.1521 124.491 56.5793 124.874C57.2672 124.523 57.9551 124.259 58.6431 123.82Z" fill="white"/>
<path d="M63.062 118.899C62.8978 118.687 62.7426 118.46 62.5803 118.244C62.3907 118.741 62.1826 119.219 61.957 119.675C62.1527 119.932 62.3406 120.202 62.539 120.454C62.7554 119.976 62.9313 119.453 63.062 118.899Z" fill="white"/>
<path d="M66.1491 112.438C66.143 112.267 66.2252 112.101 66.3784 111.976C66.2141 111.858 66.0599 111.733 65.897 111.614C65.7111 112.161 65.5072 112.705 65.2734 113.243C65.5426 113.435 65.7998 113.635 66.0726 113.824C66.0599 113.361 66.0855 112.898 66.1491 112.438Z" fill="white"/>
<path d="M79.3418 87.9783C79.3945 87.9691 79.4442 87.95 79.4876 87.9223C79.531 87.8946 79.567 87.859 79.593 87.818C79.6191 87.777 79.6347 87.7314 79.6387 87.6846C79.6426 87.6378 79.6349 87.5909 79.616 87.5469C79.5854 87.4691 79.5251 87.4028 79.4452 87.3592C79.3653 87.3156 79.2707 87.2973 79.1772 87.3074C78.5708 87.4012 78.0033 87.6325 77.5315 87.9783C77.4766 88.0742 77.3669 88.218 77.4766 88.3138C77.5315 88.3618 77.6412 88.3617 77.751 88.4097C78.2909 88.2947 78.8222 88.1506 79.3418 87.9783Z" fill="white"/>
<path d="M73.6384 88.3703C73.8697 88.4224 74.101 88.4745 74.101 88.1616C74.1588 87.953 73.9853 87.8487 73.8118 87.7444C73.3584 87.5352 72.8702 87.3944 72.3664 87.3272C72.321 87.3108 72.2723 87.3032 72.2235 87.3049C72.1746 87.3067 72.1268 87.3179 72.0831 87.3376C72.0393 87.3573 72.0008 87.3852 71.9699 87.4194C71.939 87.4535 71.9165 87.4932 71.9039 87.5358C71.895 87.6378 71.9243 87.7395 71.9872 87.8246C72.0501 87.9098 72.1429 87.9733 72.2507 88.0051C72.7051 88.1508 73.1684 88.2727 73.6384 88.3703Z" fill="white"/>
<path d="M50.5061 67.3037C49.7349 67.3037 48.8937 67.3037 48.1227 67.3737C47.9825 67.3737 47.7722 67.3038 47.632 67.5139C47.4917 67.7941 47.7722 67.8639 47.9124 67.934C49.0339 68.7044 50.1556 69.4745 51.2771 70.1748C51.4315 70.2407 51.5651 70.347 51.6639 70.4827C51.7626 70.6183 51.8228 70.7781 51.838 70.9451C52.2936 73.8978 52.9256 76.8206 53.7306 79.6979C54.2837 81.7765 54.9865 83.8125 55.8334 85.7899C56.7525 88.1388 57.9031 90.3907 59.2682 92.5122C62.3539 97.7851 66.3671 102.458 71.1147 106.307C72.2174 107.359 73.6261 108.035 75.1378 108.236C76.6495 108.438 78.1862 108.154 79.5264 107.427C82.7785 105.709 85.834 103.643 88.639 101.265C89.8067 100.417 90.866 99.4294 91.7934 98.3242C91.6192 98.2942 91.4406 98.3039 91.2707 98.3524C91.1008 98.4009 90.944 98.4869 90.812 98.6043C89.34 99.7947 87.7979 100.915 86.2558 101.966C83.8764 103.765 81.2872 105.27 78.545 106.447C77.6693 106.88 76.6929 107.07 75.7184 106.996C74.744 106.922 73.8074 106.587 73.0073 106.027C70.1567 103.96 67.6289 101.482 65.5069 98.6743C62.9528 95.5709 60.7215 92.2158 58.8476 88.661C57.1765 85.5087 55.8149 82.2022 54.782 78.7877C54.1511 76.5469 53.5903 74.3061 53.0997 72.0654C52.8894 70.9451 52.8894 70.805 54.081 71.0851C57.4152 71.7897 60.8913 71.2936 63.8946 69.6846C64.9793 69.1164 65.934 68.3296 66.6986 67.3739C66.5584 67.2338 66.4883 67.2338 66.4883 67.2338C66.3216 67.2226 66.1544 67.2464 65.9975 67.3038C62.7521 68.2841 59.2891 68.2841 56.0437 67.3038C54.7597 66.9386 53.5329 66.3965 52.3986 65.6933C51.6977 65.133 51.6276 60.9317 51.5575 55.2598C51.3978 56.2562 51.3041 57.262 51.2771 58.2708C51.1135 60.9312 51.1604 63.6004 51.4173 66.2535C51.4542 66.3861 51.4577 66.5257 51.4274 66.66C51.3971 66.7942 51.3341 66.919 51.2439 67.023C51.1536 67.127 51.0391 67.2071 50.9103 67.2561C50.7816 67.3051 50.6427 67.3214 50.5061 67.3037ZM52.5388 66.3933C52.6205 66.3931 52.6998 66.4207 52.7636 66.4717C52.8273 66.5226 52.8717 66.5938 52.8894 66.6735C52.9595 66.8836 52.8193 66.9536 52.679 66.8835C52.5388 66.8835 52.4687 66.8135 52.3986 66.6735C52.3758 66.6484 52.3611 66.617 52.3565 66.5834C52.3518 66.5499 52.3575 66.5157 52.3727 66.4854C52.3878 66.4551 52.4118 66.4301 52.4415 66.4137C52.4712 66.3973 52.5051 66.3901 52.5389 66.3933H52.5388Z" fill="white"/>
<path d="M67.4844 93.9978C68.2743 94.8959 68.9922 95.7189 69.7102 96.5421C74.0182 101.481 80.4802 99.7598 83.9267 94.2971C84.1421 93.8481 84.1421 93.5488 83.5676 93.6236C81.7436 93.6538 79.9579 93.0771 78.4699 91.9773C78.2368 91.8126 77.9617 91.7246 77.68 91.7246C77.3984 91.7246 77.1233 91.8126 76.8902 91.9773C76.3158 92.3516 75.5978 92.6509 75.0953 92.2018C74.0899 91.3788 73.3003 91.8276 72.5104 92.3515L71.4334 93.0252C70.1835 93.5931 68.846 93.9225 67.4844 93.9978ZM73.3003 96.3176C73.4988 96.2968 73.6975 96.3546 73.8571 96.4794C74.0167 96.6041 74.1255 96.7868 74.1618 96.9913C74.2336 97.4401 73.8028 97.515 73.4439 97.515C73.0848 97.4402 72.5821 97.3653 72.5104 96.8416C72.5104 96.4674 72.9412 96.2428 73.3003 96.3176Z" fill="white"/>
</svg>
