<svg width="190" height="85" viewBox="0 0 190 85" fill="none" xmlns="http://www.w3.org/2000/svg">
<path fill-rule="evenodd" clip-rule="evenodd" d="M0 83.9191V74.5183H0.589355V83.3813H5.15859V83.9191H0Z" fill="#102F38"/>
<path fill-rule="evenodd" clip-rule="evenodd" d="M11.7422 83.9191V74.5183H16.9824V75.0551H12.3306V78.91H16.1484V79.4468H12.3306V83.3813H17.2416V83.9191H11.7422Z" fill="#102F38"/>
<path fill-rule="evenodd" clip-rule="evenodd" d="M23.043 83.9189L26.6282 74.5188H27.2577L30.8419 83.9189H30.2133L28.9677 80.669H24.9045L23.6724 83.9189H23.043ZM25.1092 80.132H28.7623L27.3119 76.3185L26.9566 75.1898H26.9289C26.7926 75.6735 26.6737 76.0489 26.5729 76.3185L25.1092 80.132Z" fill="#102F38"/>
<path fill-rule="evenodd" clip-rule="evenodd" d="M36.707 82.9108L37.1039 82.4685C37.4311 82.8038 37.8228 83.0694 38.2553 83.2494C38.6879 83.4294 39.1524 83.5201 39.6209 83.5158C40.1876 83.5399 40.744 83.3587 41.1878 83.0054C41.37 82.8474 41.5179 82.6536 41.6223 82.4362C41.7268 82.2188 41.7856 81.9824 41.7952 81.7414C41.8048 81.5004 41.7649 81.26 41.678 81.035C41.5911 80.81 41.4591 80.6051 41.29 80.4331C40.9382 80.0877 40.5224 79.8142 40.0659 79.628C39.5868 79.4266 39.1079 79.2205 38.6293 79.0098C38.1637 78.8091 37.7463 78.5116 37.4047 78.1371C37.0669 77.7647 36.8856 77.2765 36.8983 76.7739C36.8884 76.4372 36.9582 76.1029 37.1021 75.7984C37.246 75.4938 37.46 75.2276 37.7264 75.0214C38.314 74.5662 39.0424 74.331 39.7853 74.3566C40.676 74.3184 41.546 74.6322 42.2071 75.2301L41.8786 75.7264C41.6029 75.4633 41.2742 75.2619 40.9145 75.1358C40.5449 74.9958 40.1532 74.9229 39.7579 74.9206C39.1881 74.9045 38.6293 75.0794 38.1705 75.4177C37.9621 75.5669 37.7933 75.7648 37.679 75.9942C37.5646 76.2236 37.5081 76.4775 37.5144 76.7337C37.5112 76.9522 37.5547 77.1688 37.6419 77.3692C37.7291 77.5695 37.858 77.7489 38.0202 77.8954C38.3765 78.2254 38.7921 78.4851 39.2449 78.6608C39.7241 78.854 40.2028 79.0575 40.6811 79.2713C41.1498 79.4793 41.5677 79.7865 41.9061 80.1717C42.2471 80.5664 42.4278 81.0745 42.4125 81.5957C42.4223 81.9306 42.3595 82.2636 42.2284 82.5719C42.0973 82.8802 41.9011 83.1565 41.6533 83.3819C41.0863 83.8686 40.3537 84.1184 39.6075 84.0796C39.0702 84.0905 38.5362 83.9926 38.0377 83.7917C37.5392 83.5908 37.0866 83.2912 36.707 82.9108" fill="#102F38"/>
<path d="M50.0105 74.5188H49.4219V83.9189H50.0105V74.5188Z" fill="#102F38"/>
<path fill-rule="evenodd" clip-rule="evenodd" d="M57.7266 83.9189V74.5188H58.2741L63.733 81.8907L64.5132 83.073H64.54C64.4942 82.598 64.4716 82.2039 64.4721 81.8907V74.5188H65.0608V83.9189H64.5132L59.0537 76.5463L58.2741 75.3646H58.2463C58.2921 75.8389 58.315 76.2329 58.3149 76.5463V83.9189H57.7266Z" fill="#102F38"/>
<path fill-rule="evenodd" clip-rule="evenodd" d="M72.1305 79.2188C72.1163 78.5807 72.2307 77.9462 72.467 77.3533C72.7033 76.7603 73.0567 76.2211 73.5059 75.7676C73.9434 75.3091 74.4717 74.9468 75.0572 74.704C75.6426 74.4613 76.2723 74.3433 76.9059 74.3577C78.1076 74.3157 79.2869 74.6906 80.2437 75.4187L79.8884 75.861C79.4829 75.5495 79.0236 75.3151 78.5334 75.1695C78.0077 74.9985 77.4587 74.9101 76.9059 74.9073C76.3508 74.8923 75.7988 74.9946 75.2859 75.2075C74.7731 75.4204 74.311 75.7392 73.9298 76.143C73.5387 76.5518 73.2326 77.0342 73.0295 77.5622C72.8264 78.0902 72.7303 78.6533 72.7467 79.2188C72.7125 80.3561 73.128 81.4611 73.9031 82.2943C74.2733 82.697 74.7256 83.0156 75.2295 83.2287C75.7333 83.4417 76.2771 83.5442 76.824 83.5293C77.4473 83.5286 78.0624 83.3862 78.6226 83.1128C79.1905 82.8441 79.6962 82.4599 80.1072 81.9848V80.1718H78.3971V79.6353H80.6958V83.919H80.1071V83.0994L80.1205 82.6967H80.0933C79.6941 83.1261 79.2094 83.4671 78.6704 83.6979C78.0887 83.9538 77.4594 84.084 76.8239 84.0798C76.1989 84.0942 75.5779 83.9766 75.0014 83.7347C74.4249 83.4929 73.9059 83.1322 73.4783 82.6762C73.0353 82.2183 72.6879 81.6767 72.4565 81.083C72.225 80.4894 72.1142 79.8557 72.1305 79.2187" fill="#102F38"/>
<path fill-rule="evenodd" clip-rule="evenodd" d="M95.4473 79.1513C95.429 78.5197 95.5384 77.8909 95.7688 77.3025C95.9992 76.7141 96.3459 76.1781 96.7882 75.7268C97.2302 75.275 97.7613 74.9199 98.3478 74.6841C98.9343 74.4483 99.5634 74.337 100.195 74.3571C101.445 74.2962 102.67 74.7198 103.616 75.5396L103.259 75.9687C102.849 75.6215 102.375 75.357 101.864 75.1897C101.331 75.0045 100.772 74.9092 100.209 74.9077C99.6551 74.8889 99.1038 74.9861 98.5901 75.1932C98.0765 75.4002 97.6118 75.7124 97.2261 76.1098C96.8392 76.5136 96.5369 76.9907 96.3371 77.5131C96.1372 78.0354 96.0439 78.5924 96.0625 79.1513C96.0281 80.3053 96.4485 81.4266 97.2332 82.2735C97.6167 82.6867 98.0845 83.0128 98.6049 83.2295C99.1253 83.4462 99.6863 83.5486 100.25 83.5297C100.848 83.5431 101.443 83.437 102 83.2178C102.556 82.9985 103.064 82.6705 103.492 82.2529L103.862 82.6563C103.383 83.1192 102.817 83.4832 102.198 83.7275C101.578 83.9719 100.916 84.0917 100.25 84.0803C99.6047 84.1026 98.9622 83.9872 98.3653 83.7416C97.7684 83.4961 97.2307 83.126 96.7882 82.6563C95.8954 81.7111 95.4132 80.4509 95.4473 79.1513" fill="#102F38"/>
<path fill-rule="evenodd" clip-rule="evenodd" d="M109.798 79.1507C109.784 78.5168 109.9 77.8868 110.14 77.2999C110.38 76.713 110.739 76.1819 111.193 75.7396C112.122 74.8519 113.357 74.3564 114.641 74.3564C115.926 74.3564 117.161 74.8519 118.089 75.7396C118.544 76.182 118.902 76.7131 119.142 77.3C119.382 77.8868 119.499 78.5168 119.484 79.1507C119.5 79.7987 119.384 80.4431 119.144 81.0454C118.905 81.6476 118.546 82.1953 118.089 82.6556C117.174 83.5676 115.934 84.0796 114.641 84.0796C113.349 84.0796 112.109 83.5676 111.193 82.6556C110.737 82.1954 110.378 81.6477 110.138 81.0455C109.898 80.4432 109.783 79.7987 109.798 79.1507ZM110.413 79.1507C110.398 79.7244 110.498 80.2953 110.706 80.8302C110.914 81.3652 111.226 81.8534 111.624 82.2665C112.018 82.6664 112.488 82.9839 113.006 83.2007C113.524 83.4174 114.079 83.529 114.641 83.529C115.202 83.529 115.758 83.4174 116.276 83.2007C116.794 82.9839 117.264 82.6664 117.658 82.2665C118.056 81.8535 118.369 81.3652 118.577 80.8303C118.785 80.2954 118.884 79.7244 118.869 79.1507C118.878 78.5899 118.776 78.0329 118.567 77.5121C118.359 76.9914 118.049 76.5173 117.655 76.1176C117.262 75.7178 116.793 75.4003 116.275 75.1836C115.758 74.9669 115.202 74.8553 114.641 74.8553C114.08 74.8553 113.525 74.9669 113.008 75.1836C112.49 75.4003 112.021 75.7178 111.628 76.1176C111.234 76.5173 110.924 76.9914 110.716 77.5121C110.507 78.0329 110.404 78.5899 110.413 79.1507Z" fill="#102F38"/>
<path fill-rule="evenodd" clip-rule="evenodd" d="M126.18 83.9189L126.946 74.5188H127.521L130.312 80.4266L130.776 81.4884H130.804C130.968 81.085 131.124 80.7314 131.269 80.4266L134.06 74.5188H134.635L135.401 83.9189H134.813L134.224 76.7477L134.184 75.4986H134.156C134.015 75.9237 133.85 76.3407 133.663 76.7477L131.091 82.1056H130.489L127.931 76.7477L127.424 75.4719H127.397C127.397 76.0183 127.383 76.4435 127.356 76.7477L126.768 83.9189H126.18Z" fill="#102F38"/>
<path fill-rule="evenodd" clip-rule="evenodd" d="M142.746 83.9189V74.5188H145.893C146.661 74.4895 147.411 74.7563 147.987 75.2641C148.261 75.5168 148.476 75.8262 148.618 76.1706C148.759 76.5149 148.824 76.8861 148.808 77.2581C148.825 77.6331 148.76 78.0073 148.618 78.355C148.477 78.7026 148.261 79.0154 147.987 79.2719C147.413 79.7837 146.662 80.0532 145.893 80.0239H143.335V83.9189H142.746ZM143.335 79.4872H145.866C146.487 79.5197 147.096 79.3075 147.563 78.8962C147.777 78.6833 147.945 78.4272 148.053 78.1448C148.162 77.8624 148.21 77.5602 148.193 77.2581C148.21 76.9579 148.163 76.6574 148.055 76.377C147.946 76.0965 147.778 75.8428 147.563 75.6331C147.092 75.2297 146.484 75.023 145.866 75.0557H143.335V79.4872Z" fill="#102F38"/>
<path fill-rule="evenodd" clip-rule="evenodd" d="M153.949 83.9189L157.534 74.5188H158.163L161.747 83.9189H161.119L159.873 80.669H155.81L154.579 83.9189H153.949ZM156.015 80.132H159.669L158.218 76.3185L157.863 75.1898H157.835C157.698 75.6735 157.579 76.0489 157.479 76.3185L156.015 80.132Z" fill="#102F38"/>
<path fill-rule="evenodd" clip-rule="evenodd" d="M168.371 83.9189V74.5188H168.918L174.378 81.8907L175.158 83.073H175.185C175.139 82.598 175.116 82.2039 175.117 81.8907V74.5188H175.704V83.9189H175.158L169.699 76.5463L168.918 75.3646H168.891C168.937 75.8389 168.96 76.2329 168.96 76.5463V83.9189H168.371Z" fill="#102F38"/>
<path fill-rule="evenodd" clip-rule="evenodd" d="M185.541 83.9189V79.8369L182.285 74.5188H182.955L185.226 78.2243L185.815 79.2863H185.842C186.043 78.8829 186.239 78.5289 186.43 78.2243L188.701 74.5188H189.372L186.129 79.8369V83.9189H185.541Z" fill="#102F38"/>
<path d="M74.8958 37.4893H67.582V64.8183H74.8958V37.4893Z" fill="#104065"/>
<path fill-rule="evenodd" clip-rule="evenodd" d="M102.215 64.8175L97.9095 57.566H93.3799V64.8175H86.0664V37.4883H97.7978C100.489 37.4692 103.078 38.5168 104.998 40.4017C106.918 42.2867 108.014 44.8556 108.044 47.546C108.037 48.9354 107.74 50.308 107.171 51.5756C106.602 52.8432 105.774 53.9776 104.74 54.906L110.643 64.8175H102.215ZM93.3799 51.3713H97.9095C98.4316 51.3833 98.9508 51.2909 99.4366 51.0994C99.9225 50.908 100.365 50.6213 100.739 50.2564C101.112 49.8915 101.409 49.4556 101.611 48.9744C101.814 48.4932 101.918 47.9763 101.918 47.4542C101.918 46.9321 101.814 46.4153 101.611 45.9341C101.409 45.4528 101.112 45.017 100.739 44.652C100.365 44.2871 99.9225 44.0005 99.4366 43.809C98.9508 43.6176 98.4316 43.5251 97.9095 43.5371H93.3799V51.3713Z" fill="#104065"/>
<path d="M127.095 37.4893H119.781V64.8183H127.095V37.4893Z" fill="#104065"/>
<path fill-rule="evenodd" clip-rule="evenodd" d="M145.581 53.9221C145.599 54.8752 145.99 55.7834 146.67 56.4512C147.35 57.1191 148.266 57.4933 149.219 57.4933C150.173 57.4933 151.088 57.1191 151.769 56.4512C152.449 55.7834 152.84 54.8752 152.857 53.9221V37.488H160.208V54.0316C160.154 56.9103 158.973 59.6531 156.918 61.6702C154.863 63.6872 152.099 64.8172 149.219 64.8172C146.339 64.8172 143.575 63.6872 141.52 61.6702C139.465 59.6531 138.284 56.9103 138.23 54.0316V37.488H145.581V53.9221Z" fill="#104065"/>
<path fill-rule="evenodd" clip-rule="evenodd" d="M181.595 45.8698C181.583 45.3156 181.356 44.7879 180.96 44.3996C180.564 44.0114 180.032 43.7935 179.478 43.7927C178.928 43.7952 178.401 44.0148 178.011 44.4038C177.622 44.7928 177.403 45.3196 177.4 45.8698C177.402 46.1403 177.457 46.4077 177.563 46.6568C177.669 46.9059 177.822 47.1316 178.015 47.3212C178.208 47.5108 178.437 47.6604 178.688 47.7615C178.939 47.8626 179.207 47.9131 179.478 47.9103C180.77 47.9108 182.045 48.2026 183.208 48.764C184.372 49.3254 185.393 50.142 186.197 51.1529C187.412 52.645 188.069 54.5135 188.054 56.4372C188.003 58.6865 187.069 60.8256 185.455 62.3931C183.841 63.9606 181.675 64.8309 179.424 64.8166C177.174 64.8022 175.02 63.9042 173.425 62.3162C171.831 60.7282 170.925 58.5775 170.902 56.3277H177.4C177.398 56.6009 177.451 56.8719 177.555 57.1247C177.658 57.3775 177.811 57.6072 178.005 57.8004C178.198 57.9937 178.428 58.1466 178.681 58.2503C178.934 58.354 179.204 58.4065 179.478 58.4047C180.028 58.412 180.56 58.2017 180.956 57.8196C181.352 57.4374 181.582 56.9143 181.594 56.3639C181.583 55.8097 181.356 55.282 180.96 54.8937C180.564 54.5055 180.032 54.2876 179.478 54.2869C177.825 54.2526 176.218 53.7314 174.86 52.7885C173.501 51.8455 172.451 50.5228 171.842 48.986C171.232 47.4492 171.089 45.7666 171.431 44.1491C171.774 42.5315 172.586 41.0509 173.766 39.8927C174.946 38.7346 176.442 37.9503 178.066 37.6381C179.689 37.326 181.369 37.4999 182.895 38.1381C184.42 38.7762 185.724 39.8502 186.642 41.2255C187.559 42.6009 188.051 44.2164 188.054 45.8698H181.595Z" fill="#104065"/>
<path fill-rule="evenodd" clip-rule="evenodd" d="M58.7587 45.779C57.2556 41.214 52.1849 37.0971 47.2425 34.8564C44.2065 33.4799 41.072 32.2692 38.1619 30.6734C36.4476 29.7828 34.9192 28.5729 33.659 27.1088C32.2941 25.4074 32.8808 22.3076 34.5794 20.929C36.1359 19.7056 38.0331 18.9939 40.0104 18.8915C41.9877 18.7891 43.9482 19.3011 45.6228 20.3572C46.0642 20.6312 46.4669 20.963 46.8203 21.3436C47.2707 21.8245 47.6609 22.3585 47.9821 22.9338C48.495 23.8488 48.907 23.9245 49.8081 23.6024C53.2522 22.3713 56.691 21.1088 60.2012 20.085C61.4937 19.7954 62.8344 19.7959 64.1267 20.0865C66.3718 20.4881 68.3088 19.932 68.9138 20.6677C69.4399 21.3081 69.2792 22.8698 69.7369 24.7789C70.2205 26.7993 68.2182 30.3719 68.2182 30.3719C68.2182 30.3719 58.884 45.6175 58.7587 45.779Z" fill="#F28F0B"/>
<path fill-rule="evenodd" clip-rule="evenodd" d="M71.254 0.690674L68.3479 15.0899L53.707 18.1992L68.3479 20.8552L71.254 35.1758L74.1173 20.8552L89.0824 18.1992L74.1192 15.0938L71.254 0.690674Z" fill="#FFD000"/>
<path fill-rule="evenodd" clip-rule="evenodd" d="M34.5438 28.0744C35.4975 28.9821 36.5599 29.7683 37.7066 30.4152C41.1453 32.2683 44.693 33.9114 48.3305 35.3354C30.9973 27.0224 35.946 17.3219 47.9847 22.9338C48.0043 22.9433 47.9601 22.8503 47.9601 22.8503L47.9562 22.8447C47.5509 22.1564 47.0472 21.531 46.461 20.9884C43.0286 17.8694 35.0007 18.1374 33.3203 22.6265C32.8806 23.5397 32.7622 24.5745 32.9843 25.5633C33.2064 26.552 33.7559 27.4369 34.5438 28.0744" fill="#D66608"/>
<path fill-rule="evenodd" clip-rule="evenodd" d="M36.3857 41.3623L0.0234375 61.8575V62.123C0.0234375 62.123 11.4941 64.4842 18.6808 66.0089L25.9432 60.0736L25.9509 60.0663L25.9453 60.0617L25.8762 60.0009L25.8013 59.9349C25.7526 59.89 25.703 59.8458 25.654 59.8018L25.5808 59.7339L25.5751 59.7286C25.5066 59.6653 25.4389 59.6026 25.3719 59.5386L25.3564 59.523L25.2956 59.4647L25.2812 59.452C25.2136 59.3858 25.1452 59.3199 25.078 59.2528L25.008 59.1826L24.945 59.1189L24.9378 59.1118L24.8727 59.045L24.8687 59.041L24.7992 58.9693L24.797 58.9669C24.7325 58.8993 24.6677 58.8323 24.604 58.7637L24.5873 58.7457L24.5269 58.681L24.4597 58.6078L24.4417 58.5873L24.3928 58.5345L24.336 58.4708L24.3266 58.4606L24.2614 58.3863L24.2558 58.3795L24.2149 58.3337L24.1541 58.2627L24.1305 58.2367L24.1287 58.2343L24.066 58.161L24.0061 58.0909L24.0019 58.0856L23.9385 58.0099L23.8957 57.9588L23.8753 57.9335L23.8266 57.8744L23.8122 57.8564L23.7492 57.7799L23.728 57.7522L23.7091 57.7289L23.6389 57.6403L23.6302 57.6294L23.6266 57.6238L23.5467 57.5224L23.5333 57.5058L23.5044 57.468L23.4445 57.3892L23.438 57.3815L23.3847 57.3105L23.3695 57.2902L23.3301 57.2372L23.3255 57.2304L23.2664 57.1506L23.2513 57.1302L23.208 57.0704L23.1908 57.046L23.1427 56.9789L23.0773 56.8867L23.0686 56.8743L23.0363 56.8278L22.9795 56.7465L22.9791 56.7458L22.9646 56.7238L22.904 56.6349L22.8914 56.6159L22.8685 56.583L22.8136 56.5L22.782 56.4521L22.7362 56.3813L22.7189 56.3545L22.7055 56.3338L22.6393 56.2299L22.6243 56.2056L22.5644 56.1102L22.551 56.0891L22.5473 56.0828V56.0818L22.4787 55.9708L22.4692 55.955L22.4439 55.9134L22.3935 55.8282L22.3886 55.8205L22.3786 55.8029L22.3251 55.7117L22.3006 55.6699L22.2329 55.5502L22.2287 55.5431L22.173 55.4421L22.155 55.4117L22.1467 55.3974L22.0863 55.2864L22.0712 55.2572L22.0059 55.1353C24.0952 53.2907 26.152 51.2978 28.0985 49.3037L28.1693 49.4178L28.1985 49.4628L28.2467 49.5377L28.264 49.566L28.2767 49.5832C28.3253 49.6579 28.375 49.732 28.4256 49.8054L28.445 49.8353L28.5112 49.93L28.5246 49.9487L28.5256 49.9497L28.5461 49.9787L28.602 50.056L28.6312 50.0962L28.6995 50.1889L28.7112 50.2054L28.7901 50.3086L28.8271 50.3575L28.8799 50.4254L28.9052 50.4584L28.9918 50.5662L28.9932 50.5679L28.995 50.5694L29.0735 50.6662L29.1147 50.7151L29.1658 50.7772L29.2006 50.8183L29.2038 50.8224L29.2763 50.9066L29.2816 50.9127L29.3179 50.9538L29.3738 51.0175L29.4094 51.0577L29.4967 51.1545L29.4999 51.1576L29.5053 51.1643L29.5914 51.257L29.6187 51.2862L29.7053 51.3777L29.7119 51.3854L29.7242 51.3979L29.8024 51.4784L29.8204 51.4974L29.844 51.52L29.9024 51.5798L29.9552 51.6329L29.9584 51.636L30.038 51.7139L30.0412 51.7171L30.071 51.7462L30.1348 51.8076L30.1759 51.847L30.2358 51.903L30.2774 51.9414L30.2799 51.9448L30.3616 52.0195L30.3823 52.0382L30.401 52.0557L30.4823 52.1282L30.5123 52.1549L30.5879 52.2211L30.6112 52.2423L30.6161 52.2462L30.6957 52.3148L30.6996 52.3187L30.7731 52.38L30.7808 52.3871L30.8548 52.4487L30.8665 52.4589L30.9531 52.5299L30.9619 52.5367L31.0038 52.5708L31.0682 52.6219L31.121 52.6655L31.1516 52.6888L31.2668 52.7787L31.3218 52.8211L31.3749 52.8605L31.3928 52.8748L31.47 52.932L31.4819 52.9418L31.5724 53.0077L31.5739 53.0087L31.6408 53.0574L31.6905 53.0929L31.7418 53.1291L31.7545 53.1378L31.8458 53.2024L31.9073 53.2439L31.9473 53.2724L32.0292 53.3276L32.0324 53.3291C32.1183 53.3882 32.2059 53.445 32.2942 53.5016L32.3312 53.5245L32.401 53.5703L32.4246 53.5844C32.4736 53.615 32.5232 53.6459 32.5731 53.6758L32.6077 53.697L32.6831 53.7427L32.7141 53.7615L32.788 53.8048L32.885 53.8615L32.97 53.9103L32.9975 53.9262L33.07 53.9673L33.0795 53.9719L33.1771 54.0264L33.1866 54.0318L33.2756 54.0797L44.0947 45.2358C43.6315 44.9029 43.145 44.6036 42.6389 44.3403C40.5765 43.2714 38.5214 42.2949 36.3856 41.3623" fill="#D66608"/>
<path fill-rule="evenodd" clip-rule="evenodd" d="M27.1384 36.6141C25.5127 35.4605 24.0575 34.0837 22.8158 32.5244C22.6876 32.3058 22.5074 32.1222 22.2913 31.9899C22.0752 31.8575 21.8297 31.7805 21.5767 31.7656L0 38.26V47.8428L27.1384 36.6141Z" fill="#F28F0B"/>
<path fill-rule="evenodd" clip-rule="evenodd" d="M36.3865 41.3624C35.0846 40.7938 33.78 40.2259 32.492 39.6289C30.5736 38.7637 28.741 37.7197 27.0186 36.5107L0 47.8017L0.0243565 61.8749L36.3865 41.3624Z" fill="#E87A08"/>
<path fill-rule="evenodd" clip-rule="evenodd" d="M47.8076 49.8528L44.3477 55.135C44.7699 54.998 45.1845 54.8405 45.5916 54.6625C47.4371 53.8544 47.9635 53.0055 48.1794 51.6209C48.0723 51.0608 47.9501 50.4735 47.8076 49.8528ZM37.6321 65.3905L34.7031 69.8633L44.1618 71.8813L47.4625 64.609C44.7575 66.0795 41.4533 66.0267 38.4008 65.5258C38.144 65.4835 37.8878 65.4384 37.632 65.3905H37.6321Z" fill="#D34C0C"/>
<path fill-rule="evenodd" clip-rule="evenodd" d="M44.0886 45.229C42.7755 46.3 38.1877 50.0492 33.2649 54.0731C34.1092 54.5302 34.9955 54.9049 35.9116 55.1922C38.6623 56.0417 41.608 56.0219 44.347 55.1356L47.8061 49.8531C47.2396 47.8557 45.6297 46.4876 44.0886 45.229ZM25.945 60.0597C21.8376 63.4195 18.6787 66.0059 18.6836 66.0091L34.7025 69.863L37.6314 65.3909C34.5766 64.8552 31.6393 63.7884 28.9527 62.2389C27.8856 61.606 26.8789 60.8765 25.945 60.0597Z" fill="#D45D0A"/>
</svg>
