<svg width="211" height="70" viewBox="0 0 211 70" fill="none" xmlns="http://www.w3.org/2000/svg">
<path d="M44.3547 35.2678C44.8927 29.8361 40.9247 24.9969 35.4919 24.4591C30.0592 23.9212 25.219 27.8885 24.6811 33.3201C24.1431 38.7518 28.1111 43.591 33.5439 44.1289C38.9766 44.6667 43.8168 40.6995 44.3547 35.2678Z" fill="#2F70CF"/>
<path d="M6.70031 22.5164H0V28.7132C-1.19985e-06 30.7439 0.400055 32.7547 1.17733 34.6309C1.9546 36.507 3.09387 38.2117 4.53008 39.6476C5.9663 41.0836 7.67133 42.2226 9.54784 42.9997C11.4243 43.7769 13.4356 44.1768 15.4667 44.1768H21.6647V37.4779C21.6647 35.5131 21.2777 33.5676 20.5256 31.7523C19.7736 29.9371 18.6713 28.2878 17.2818 26.8985C15.8922 25.5092 14.2425 24.4071 12.427 23.6552C10.6114 22.9033 8.66547 22.5164 6.70031 22.5164Z" fill="#2F70CF"/>
<path d="M0 62.3109V69.0099H6.19808C10.3001 69.0099 14.2341 67.3808 17.1346 64.4808C20.0352 61.5808 21.6647 57.6475 21.6647 53.5463V47.3494H14.9644C10.9956 47.3494 7.18935 48.9257 4.38298 51.7315C1.57661 54.5373 2.42319e-06 58.3429 0 62.3109Z" fill="#2F70CF"/>
<path d="M31.673 47.3494H24.9727V53.5463C24.9727 55.577 25.3727 57.5879 26.15 59.464C26.9273 61.3401 28.0665 63.0448 29.5027 64.4808C30.939 65.9167 32.644 67.0557 34.5205 67.8328C36.397 68.61 38.4082 69.0099 40.4393 69.0099H46.6374V62.3109C46.6374 58.3428 45.0608 54.5373 42.2544 51.7315C39.448 48.9257 35.6418 47.3494 31.673 47.3494Z" fill="#2F70CF"/>
<path d="M62.484 46.4935H69.1843V40.2967C69.1843 38.266 68.7842 36.2551 68.007 34.379C67.2297 32.5029 66.0905 30.7982 64.6542 29.3622C63.218 27.9263 61.513 26.7872 59.6365 26.0101C57.76 25.233 55.7488 24.833 53.7176 24.833H47.5195V31.532C47.5195 33.4968 47.9066 35.4423 48.6586 37.2575C49.4107 39.0727 50.5129 40.7221 51.9025 42.1114C53.2921 43.5007 54.9418 44.6027 56.7573 45.3546C58.5729 46.1065 60.5188 46.4935 62.484 46.4935Z" fill="#87B7FD"/>
<path d="M55.3726 49.408H49.7305V55.5512C49.7305 59.1207 51.1487 62.544 53.6733 65.068C56.1978 67.5921 59.6218 69.0101 63.192 69.0101H69.3365V63.369C69.3365 61.5356 68.9753 59.7202 68.2735 58.0263C67.5718 56.3325 66.5432 54.7934 65.2465 53.497C63.9499 52.2006 62.4105 51.1723 60.7163 50.4707C59.0222 49.7691 57.2064 49.4079 55.3726 49.408Z" fill="#6BA0ED"/>
<path d="M13.4615 19.6021H19.6059V13.961C19.6059 10.2583 18.1347 6.70729 15.516 4.08909C12.8973 1.47089 9.34559 2.42273e-06 5.64217 0H0V6.14324C9.69282e-06 9.71275 1.41828 13.1361 3.9428 15.6601C6.46733 18.1841 9.89132 19.6021 13.4615 19.6021Z" fill="#6BA0ED"/>
<path d="M69.1843 6.699V0H62.9862C58.8842 1.21136e-05 54.9502 1.62922 52.0496 4.52921C49.149 7.42921 47.5195 11.3624 47.5195 15.4637V21.6605H54.2198C58.1887 21.6605 61.9949 20.0842 64.8013 17.2784C67.6077 14.4726 69.1843 10.667 69.1843 6.699Z" fill="#87B7FD"/>
<path d="M37.5114 21.6605H44.2117V15.4636C44.2117 11.3624 42.5822 7.42917 39.6816 4.52919C36.781 1.6292 32.847 0 28.745 0H22.5469V6.69895C22.5469 8.66373 22.9339 10.6093 23.686 12.4245C24.438 14.2397 25.5403 15.8891 26.9299 17.2784C28.3195 18.6677 29.9691 19.7697 31.7847 20.5216C33.6003 21.2735 35.5462 21.6605 37.5114 21.6605Z" fill="#87B7FD"/>
<path d="M97.8136 22.3428H90.506V26.065H97.6757V30.3109H90.506V37.3967H86.0938V18.0969H97.8136V22.3428Z" fill="#0F1527"/>
<path d="M106.229 33.1508H113.123V37.3967H101.816V18.0969H106.229V33.1508Z" fill="#0F1527"/>
<path d="M124.537 37.7823C123.217 37.806 121.906 37.5617 120.683 37.0641C119.46 36.5666 118.351 35.8261 117.422 34.8875C116.468 33.9639 115.715 32.8525 115.212 31.6234C114.709 30.3944 114.466 29.0744 114.499 27.7469C114.466 26.4192 114.709 25.0992 115.212 23.87C115.715 22.6409 116.468 21.5294 117.422 20.6057C119.325 18.7498 121.878 17.7109 124.537 17.7109C127.195 17.7109 129.749 18.7498 131.652 20.6057C132.606 21.5294 133.359 22.6409 133.862 23.87C134.365 25.0992 134.608 26.4192 134.575 27.7469C134.608 29.0744 134.365 30.3944 133.862 31.6234C133.359 32.8525 132.606 33.9639 131.652 34.8875C130.723 35.8261 129.614 36.5666 128.391 37.0641C127.168 37.5617 125.857 37.806 124.537 37.7823ZM124.537 33.4816C125.277 33.5033 126.015 33.3725 126.702 33.0974C127.39 32.8223 128.014 32.4088 128.536 31.8826C129.074 31.3404 129.496 30.6938 129.776 29.9827C130.056 29.2715 130.187 28.5107 130.163 27.7469C130.188 26.983 130.056 26.2222 129.776 25.511C129.497 24.7998 129.074 24.1533 128.536 23.6112C128.014 23.0848 127.39 22.6713 126.702 22.3962C126.015 22.1211 125.277 21.9904 124.537 22.0121C123.792 21.9902 123.051 22.1208 122.359 22.3958C121.666 22.6708 121.038 23.0844 120.511 23.6112C119.976 24.1549 119.558 24.8023 119.283 25.5136C119.008 26.2248 118.882 26.9848 118.911 27.7469C118.882 28.5089 119.008 29.2689 119.283 29.9801C119.559 30.6913 119.976 31.3388 120.511 31.8826C121.038 32.4093 121.667 32.8228 122.359 33.0978C123.051 33.3728 123.792 33.5034 124.537 33.4816Z" fill="#0F1527"/>
<path d="M148.59 37.3965L144.95 31.0551H142.854V37.3965H138.441V18.0967H146.163C147.033 18.0931 147.895 18.2618 148.7 18.5931C149.504 18.9243 150.235 19.4116 150.85 20.0268C151.466 20.6419 151.953 21.3728 152.284 22.1773C152.616 22.9817 152.784 23.8438 152.781 24.7138C152.753 25.8819 152.407 27.0204 151.78 28.0066C151.153 28.9928 150.269 29.7894 149.223 30.3107L153.332 37.3965L148.59 37.3965ZM142.854 22.2324V27.1951H146.163C146.471 27.1784 146.773 27.1009 147.051 26.9669C147.329 26.8328 147.578 26.645 147.783 26.4143C147.988 26.1836 148.146 25.9145 148.246 25.6226C148.347 25.3307 148.388 25.0218 148.369 24.7138C148.388 24.4057 148.347 24.0968 148.246 23.8049C148.146 23.5131 147.988 23.244 147.783 23.0133C147.578 22.7826 147.329 22.5948 147.051 22.4607C146.773 22.3267 146.471 22.2491 146.163 22.2324H142.854Z" fill="#0F1527"/>
<path d="M156.781 18.0969H161.193V37.3967H156.781V18.0969Z" fill="#0F1527"/>
<path d="M173.604 18.097C174.849 18.0688 176.087 18.3021 177.236 18.7818C178.386 19.2614 179.422 19.9768 180.278 20.8816C181.164 21.7875 181.86 22.8618 182.324 24.0409C182.788 25.2201 183.011 26.4803 182.98 27.7471C183.011 29.018 182.788 30.2823 182.324 31.4659C181.86 32.6495 181.164 33.7286 180.278 34.6398C179.42 35.5408 178.383 36.2518 177.234 36.7268C176.084 37.2017 174.847 37.43 173.604 37.3968H165.883V18.097H173.604ZM173.604 33.1509C174.288 33.1762 174.969 33.0594 175.605 32.8079C176.241 32.5564 176.818 32.1756 177.299 31.6897C177.788 31.1608 178.167 30.5397 178.413 29.8627C178.659 29.1858 178.768 28.4666 178.733 27.7471C178.771 27.0315 178.663 26.3157 178.417 25.6429C178.17 24.97 177.79 24.3539 177.299 23.8318C176.823 23.3367 176.248 22.9481 175.611 22.6914C174.974 22.4348 174.29 22.316 173.604 22.3429H170.295V33.1509H173.604Z" fill="#0F1527"/>
<path d="M198.426 37.3967L197.461 34.3641H190.291L189.326 37.3967H184.5L191.063 18.0969H196.689L203.252 37.3967H198.426ZM191.615 30.2284H196.137L193.876 23.1425L191.615 30.2284Z" fill="#0F1527"/>
<path d="M93.4013 42.7376C94.2906 42.7143 95.1751 42.8736 96.0004 43.2055C96.8257 43.5375 97.5741 44.0351 98.1995 44.6676C98.8197 45.2805 99.3122 46.0103 99.6483 46.8149C99.9844 47.6194 100.158 48.4827 100.158 49.3546C100.158 50.2265 99.9844 51.0898 99.6483 51.8943C99.3122 52.6989 98.8197 53.4287 98.1995 54.0416C97.5742 54.6742 96.8257 55.1718 96.0005 55.5038C95.1752 55.8358 94.2906 55.995 93.4013 55.9716H90.506V62.0373H86.0938V42.7376H93.4013ZM93.4013 51.836C94.035 51.7997 94.6308 51.5225 95.0666 51.0611C95.5025 50.5998 95.7452 49.9892 95.7452 49.3546C95.7452 48.72 95.5025 48.1095 95.0666 47.6481C94.6308 47.1868 94.035 46.9095 93.4013 46.8733H90.506V51.836H93.4013Z" fill="#87B7FD"/>
<path d="M114.221 42.7375H118.634V62.0373H114.221V54.3725H108.154V62.0373H103.742V42.7375H108.154V50.1267H114.221V42.7375Z" fill="#87B7FD"/>
<path d="M135.598 62.0373L134.633 59.0047H127.463L126.498 62.0373H121.672L128.235 42.7375H133.861L140.424 62.0373H135.598ZM128.787 54.869H133.309L131.048 47.7832L128.787 54.869Z" fill="#87B7FD"/>
<path d="M153.609 62.0374L149.969 55.696H147.873V62.0374H143.461V42.7376H151.182C152.052 42.734 152.914 42.9027 153.719 43.2339C154.524 43.5652 155.255 44.0525 155.87 44.6676C156.485 45.2828 156.973 46.0137 157.304 46.8181C157.635 47.6226 157.804 48.4847 157.8 49.3546C157.773 50.5228 157.427 51.6612 156.8 52.6474C156.173 53.6336 155.289 54.4303 154.243 54.9516L158.352 62.0374L153.609 62.0374ZM147.873 46.8733V51.836H151.182C151.79 51.7642 152.35 51.472 152.757 51.0146C153.164 50.5572 153.388 49.9666 153.388 49.3546C153.388 48.7427 153.164 48.152 152.757 47.6947C152.35 47.2373 151.79 46.945 151.182 46.8733H147.873Z" fill="#87B7FD"/>
<path d="M181.104 42.7375V62.0373H176.692V50.8158L171.7 59.0047H171.204L166.213 50.8158V62.0373H161.801V42.7375H166.213L171.452 51.3122L176.692 42.7375H181.104Z" fill="#87B7FD"/>
<path d="M188.836 6.699V0H195.034C197.065 0 199.076 0.39998 200.953 1.1771C202.829 1.95422 204.534 3.09327 205.971 4.5292C207.407 5.96513 208.546 7.66984 209.323 9.54597C210.101 11.4221 210.501 13.4329 210.501 15.4637V21.6605H203.8C199.832 21.6605 196.025 20.0842 193.219 17.2784C190.413 14.4725 188.836 10.667 188.836 6.699Z" fill="#87B7FD"/>
</svg>
