<svg width="371" height="348" viewBox="0 0 371 348" fill="none" xmlns="http://www.w3.org/2000/svg">
<path d="M300.715 64.9968C295.668 69.5539 289.077 71.9643 283.955 76.2954C278.886 80.8771 274.52 86.1818 271 92.0382C265.179 102.107 261.176 113.122 259.174 124.578C258.018 128.232 257.811 132.12 258.571 135.877C259.701 139.116 262.978 138.777 265.162 136.781C268.334 133.35 270.78 129.315 272.356 124.917C275.066 118.901 277.442 112.74 279.474 106.463C284.257 91.7745 289.19 75.9941 301.845 66.1643C302.862 65.4111 301.506 63.641 300.489 64.3942C290.848 71.6253 285.424 82.472 281.319 93.5446C277.674 105.069 273.399 116.385 268.514 127.44C267.798 128.909 263.543 137.722 260.982 135.688C260.115 134.973 260.304 132.901 260.304 131.922C260.38 129.856 260.644 127.801 261.095 125.783C262.787 115.271 266.157 105.098 271.075 95.6537C274.646 89.1184 279.235 83.1939 284.671 78.1032C289.831 73.3578 296.572 70.5708 301.28 65.4487C301.342 65.3546 301.369 65.2421 301.358 65.1302C301.346 65.0182 301.296 64.9136 301.217 64.834C301.137 64.7545 301.033 64.7047 300.921 64.6932C300.809 64.6817 300.696 64.7091 300.602 64.7708L300.715 64.9968Z" fill="#F3F3F3"/>
<path d="M301.315 65.7874C309.413 60.703 312.049 51.7771 315.627 43.4538C317.585 38.8967 319.619 34.3396 321.954 29.9331C324.552 25.2631 327.673 20.9039 331.257 16.9397C331.897 16.2242 331.068 14.9436 330.24 15.5839C322.368 21.1955 318.489 31.3643 314.723 39.9136C310.957 48.4629 308.81 58.9706 300.788 64.8835C300.298 65.2602 300.788 66.1264 301.315 65.7874Z" fill="#F3F3F3"/>
<path d="M296.346 88.3475C298.104 81.4021 300.951 74.7793 304.782 68.7255C306.623 65.8762 308.272 62.9068 309.716 59.8373C310.359 58.3612 310.925 56.8527 311.411 55.3179C312.026 54.0009 312.298 52.5499 312.202 51.0997C312.172 50.9888 312.113 50.8879 312.03 50.8077C311.948 50.7276 311.846 50.671 311.734 50.6441C311.622 50.6171 311.505 50.6207 311.395 50.6545C311.286 50.6883 311.187 50.751 311.11 50.8361C310.367 52.0732 309.869 53.4412 309.641 54.8659C309.151 56.5607 308.549 58.1802 307.946 59.8373C306.636 63.1263 305.009 66.2797 303.088 69.2528C299.418 75.0323 296.982 81.5073 295.932 88.2722C295.932 88.3221 295.952 88.37 295.987 88.4053C296.022 88.4406 296.07 88.4605 296.12 88.4605C296.17 88.4605 296.218 88.4406 296.253 88.4053C296.289 88.37 296.308 88.3221 296.308 88.2722L296.346 88.3475Z" fill="#F3F3F3"/>
<path d="M297.175 82.3968C288.513 106.463 274.013 132.073 280.491 158.361C281.432 162.127 284.069 174.782 290.321 173.426C294.953 172.334 295.066 166.383 294.878 162.655C294.463 154.67 295.066 146.573 295.217 138.551C295.443 129.474 295.217 120.398 295.48 111.284C295.776 101.74 296.618 92.2207 298.004 82.7734C298.008 82.6105 297.957 82.4508 297.858 82.321C297.76 82.1911 297.62 82.0988 297.462 82.0592C297.304 82.0197 297.137 82.0353 296.989 82.1036C296.841 82.1718 296.72 82.2885 296.648 82.4344C292.58 96.633 293.108 112.037 293.07 126.65C293.07 134.182 292.844 142.053 292.618 149.737C292.618 153.164 292.43 156.553 292.618 159.981C292.977 162.762 292.9 165.583 292.392 168.342C291.978 169.584 290.81 171.543 289.228 171.166C287.647 170.79 287.195 169.358 286.63 168.417C284.908 165.166 283.641 161.693 282.863 158.097C280.642 148.648 280.642 138.811 282.863 129.361C286.291 113.355 294.162 98.6668 297.627 82.6604C297.627 82.4344 297.363 82.3591 297.288 82.6604L297.175 82.3968Z" fill="#F3F3F3"/>
<path d="M311.977 124.691C310.59 113.449 310.061 102.118 310.395 90.7952C310.621 86.4264 311.035 82.0576 311.374 77.6512C311.789 72.3785 311.939 67.0681 312.466 61.7954C312.843 58.0292 313.446 54.489 314.161 50.8734C315.043 47.8529 315.685 44.7676 316.082 41.6462C316.082 40.78 314.99 40.5917 314.538 41.2319C313.206 43.6962 312.362 46.3945 312.052 49.1786C311.45 52.2292 310.96 55.3175 310.621 58.4435C309.981 64.0928 310.056 69.7421 309.679 75.4667C308.814 84.5915 308.474 93.7586 308.663 102.922C309.09 110.296 309.932 117.639 311.186 124.917C311.186 125.369 312.015 125.256 311.977 124.917L311.977 124.691Z" fill="#F3F3F3"/>
<path d="M310.358 118.289C309.755 125.52 309.567 132.751 308.738 139.945C307.91 147.138 306.78 153.616 305.914 160.508C304.954 167.335 304.84 174.254 305.575 181.109C305.781 185.713 306.854 190.236 308.738 194.442C310.132 196.814 313.032 198.208 315.028 195.684C316.61 193.034 317.503 190.031 317.626 186.947C318.493 180.507 319.171 174.066 319.623 167.588C320.338 160.543 320.451 153.449 319.961 146.385C319.295 140.83 318.032 135.362 316.195 130.077C314.576 124.955 312.994 119.72 310.885 114.749C310.584 114.033 309.491 114.749 309.68 115.276C311.977 123.901 314.952 132.299 316.76 141.074C319.171 152.674 317.664 165.178 316.572 176.853C316.278 181.299 315.738 185.725 314.952 190.11C314.792 191.548 314.358 192.942 313.672 194.216C312.128 196.4 310.471 193.839 309.906 192.182C309.224 190.271 308.769 188.286 308.55 186.269C308.098 183.708 307.608 181.184 307.382 178.548C306.961 172.392 307.163 166.209 307.985 160.094C309.604 146.272 312.467 132.337 311.412 118.327C311.412 118.197 311.361 118.072 311.269 117.98C311.177 117.888 311.052 117.837 310.923 117.837C310.793 117.837 310.668 117.888 310.576 117.98C310.485 118.072 310.433 118.197 310.433 118.327L310.358 118.289Z" fill="#F3F3F3"/>
<path d="M141.515 95.8044C148.257 93.846 154.245 90.0797 160.949 88.046C168.248 86.1732 175.806 85.5116 183.32 86.0876C190.852 86.3135 198.046 86.6525 205.39 86.0876C212.534 85.6069 219.626 84.5361 226.594 82.8863C234.546 81.1537 242.306 78.6304 249.756 75.3539C250.961 74.7889 250.095 72.6422 248.814 73.1318C235.245 78.7964 220.896 82.3771 206.256 83.7525C198.905 84.1481 191.538 84.1481 184.186 83.7525C177.207 83.3014 170.199 83.8981 163.397 85.5226C155.601 87.7447 148.972 92.5278 141.139 95.1641C141.067 95.1996 141.011 95.2591 140.979 95.332C140.947 95.4049 140.942 95.4867 140.965 95.5631C140.987 95.6394 141.036 95.7054 141.102 95.7495C141.168 95.7936 141.248 95.8131 141.327 95.8044L141.515 95.8044Z" fill="#F3F3F3"/>
<path d="M225.052 164.086C225.079 148.448 227.363 132.897 231.832 117.912C234.076 110.417 236.883 103.102 240.23 96.0304C243.582 88.9499 247.763 82.5097 251.529 75.7305C252.32 74.337 250.286 72.6046 249.194 73.9604C244.515 80.3308 240.632 87.2491 237.632 94.5615C234.356 101.784 231.612 109.236 229.421 116.857C224.808 132.15 222.971 148.145 223.998 164.086C223.998 164.726 225.052 164.764 225.052 164.086Z" fill="#F3F3F3"/>
<path d="M120.842 245.85C139.674 203.807 164.92 164.941 195.676 130.642C226.565 96.3258 261.45 65.8288 299.586 39.8014C310.511 32.0841 321.824 24.9314 333.481 18.3717C339.371 15.0324 345.445 12.0272 351.672 9.37044C357.623 6.88475 363.799 5.00166 369.901 2.96791C371.332 2.47832 371.181 -0.00737002 369.524 0.180939C358.225 1.42378 347.266 6.80944 337.285 11.9691C326.416 17.6418 315.879 23.9289 305.725 30.8002C286.436 43.7577 267.855 57.7377 250.06 72.6804C214.01 102.522 182.406 137.36 156.206 176.138C141.666 197.905 129.411 221.115 119.636 245.399C119.373 246.001 120.427 246.453 120.691 245.85L120.842 245.85Z" fill="#F3F3F3"/>
<path d="M152.966 90.7563C146.83 92.6946 140.829 95.0347 135.001 97.7615C129.126 100.285 123.363 102.996 117.752 106.047C108.788 111.019 97.9415 116.517 92.8195 125.82C91.9533 127.402 91.1247 129.586 93.3091 130.49C95.9427 130.988 98.6658 130.659 101.105 129.548C108.85 126.809 116.176 123.007 122.874 118.25C134.474 111.086 144.808 102.05 153.455 91.5096C154.472 90.2667 152.665 88.459 151.648 89.7395C144.906 98.3698 136.952 105.981 128.034 112.337C123.514 115.538 118.806 118.551 114.099 121.451C111.336 123.24 108.44 124.814 105.436 126.159C102.837 127.303 100.139 128.211 97.3766 128.87C96.3119 129.237 95.1717 129.327 94.0624 129.134C92.6312 128.569 94.0624 126.912 94.4766 125.97C99.4857 117.459 109.541 112.374 117.676 107.667C123.243 104.557 128.962 101.729 134.813 99.1926C140.876 96.5186 147.316 94.4096 153.192 91.3589C153.267 91.329 153.327 91.2705 153.358 91.1963C153.39 91.1221 153.391 91.0384 153.361 90.9635C153.331 90.8886 153.273 90.8286 153.199 90.7968C153.124 90.7651 153.041 90.764 152.966 90.794L152.966 90.7563Z" fill="#F3F3F3"/>
<path d="M167.014 82.0581C154.322 76.6348 139.746 77.7646 126.489 79.9114C111.425 82.3971 96.3597 87.1048 80.8807 87.7074C76.4742 87.7074 68.9418 88.197 68.2639 82.1711C67.586 76.1452 75.7963 73.4712 80.0521 71.927C94.6273 66.805 110.182 68.4245 125.247 70.6465C132.288 71.8947 139.198 73.7986 145.885 76.3335C152.538 79.2226 159.416 81.5654 166.449 83.3386C167.353 83.3386 168.068 82.2464 167.127 81.7568C160.956 78.8078 154.589 76.2909 148.07 74.2244C141.529 71.755 134.805 69.8031 127.958 68.3868C120.308 67.0052 112.566 66.1871 104.796 65.9388C96.7077 65.5613 88.6153 66.5935 80.8807 68.9894C75.7586 70.6465 68.7911 72.7556 66.3808 78.1413C65.6186 79.8539 65.4683 81.7764 65.9552 83.5867C66.442 85.3969 67.5364 86.9847 69.0548 88.084C71.0433 89.4308 73.3947 90.1401 75.7963 90.1178C79.9872 90.2428 84.1814 90.0287 88.3377 89.4775C96.3598 88.536 104.269 86.8412 112.178 85.1087C121.138 82.9469 130.236 81.3992 139.407 80.4763C148.499 79.7272 157.652 80.5813 166.449 82.9997C166.976 82.9997 167.39 82.2841 166.863 82.0581L167.014 82.0581Z" fill="#F3F3F3"/>
<path d="M158.088 80.0993C164.016 83.6298 170.773 85.5271 177.672 85.5979C181.438 85.9369 185.205 86.2382 189.234 86.3512L195.034 86.3512C196.938 86.5476 198.861 86.4202 200.721 85.9746C200.938 85.9019 201.127 85.7627 201.261 85.5769C201.395 85.391 201.467 85.1678 201.467 84.9388C201.467 84.7098 201.395 84.4866 201.261 84.3008C201.127 84.1149 200.938 83.9758 200.721 83.9031C198.987 83.551 197.209 83.4622 195.449 83.6395L189.649 83.6395C185.882 83.6395 182.493 83.4135 178.915 83.1499C175.447 83.0014 171.989 82.6619 168.558 82.133C165.135 81.3872 161.801 80.2761 158.615 78.8188C157.824 78.4798 157.485 79.6473 158.088 80.0993Z" fill="#F3F3F3"/>
<path d="M209.799 65.825C198.726 57.7277 184.377 53.5848 171.27 51.0991C157.378 48.6151 143.312 47.2174 129.202 46.9187C124.871 46.9187 118.318 45.4498 116.171 41.081C115.721 39.8225 115.71 38.4485 116.141 37.1831C116.572 35.9178 117.419 34.8358 118.544 34.1136C121.165 32.2858 124.315 31.3725 127.507 31.5149C134.206 31.1803 140.921 31.5463 147.543 32.6071C155.057 34.0451 162.402 36.2537 169.463 39.1979C176.461 41.9248 183.152 45.3838 189.424 49.5173C195.733 53.8696 201.334 59.1665 206.033 65.2224C206.823 66.164 208.368 64.9211 207.727 63.9042C200.195 51.7771 186.787 43.868 173.832 38.3317C166.666 35.1257 159.213 32.6037 151.573 30.7993C144.267 29.3819 136.831 28.7506 129.39 28.9162C123.628 28.9162 117.376 29.8578 114.325 35.2811C113.783 36.1989 113.441 37.2215 113.324 38.2811C113.206 39.3407 113.314 40.4133 113.642 41.4279C113.969 42.4426 114.508 43.3761 115.223 44.1668C115.939 44.9575 116.814 45.5874 117.79 46.0148C122.988 49.2914 129.089 49.1407 134.814 49.4044C142.685 49.7433 150.594 50.3082 158.428 51.2498C167.191 52.2241 175.858 53.9248 184.339 56.3342C192.976 58.9979 201.368 62.4 209.422 66.5029C209.471 66.5509 209.53 66.5873 209.595 66.6092C209.659 66.6311 209.728 66.6381 209.796 66.6295C209.864 66.6209 209.929 66.597 209.986 66.5596C210.044 66.5222 210.092 66.4723 210.127 66.4136C210.162 66.355 210.184 66.2891 210.19 66.2209C210.196 66.1528 210.186 66.0842 210.162 66.0202C210.137 65.9563 210.099 65.8987 210.049 65.8519C209.999 65.805 209.939 65.7701 209.874 65.7497L209.799 65.825Z" fill="#F3F3F3"/>
<path d="M205.164 64.0544C208.565 67.3323 212.676 69.7811 217.178 71.2102C221.756 72.9964 226.56 74.1372 231.452 74.5998C236.216 75.0209 241.014 74.8183 245.726 73.9972C250.606 73.6018 255.296 71.926 259.322 69.1388C260.188 68.3855 259.322 67.331 258.343 67.444C256.209 67.975 254.119 68.6675 252.091 69.5154C249.885 70.2347 247.633 70.801 245.349 71.2102C240.787 72.0061 236.141 72.2087 231.527 71.8128C227.001 71.4147 222.538 70.4791 218.232 69.0258C215.882 68.2374 213.591 67.2808 211.378 66.1635C209.547 65.0754 207.662 64.0823 205.729 63.1882C205.201 63.1882 204.938 63.7154 205.239 64.0544L205.164 64.0544Z" fill="#F3F3F3"/>
<path d="M224.262 161.41C221.325 171.089 219.291 180.957 217.031 190.787C214.801 199.449 213.19 208.259 212.21 217.15C211.82 221.949 211.984 226.776 212.7 231.537C213.265 235.077 214.357 239.823 217.897 241.593C221.438 243.363 226.032 240.727 228.405 238.053C230.782 234.976 232.256 231.299 232.661 227.432C233.974 216.137 233.568 204.709 231.456 193.536C229.912 182.727 227.689 172.069 225.543 161.335C225.543 160.431 223.886 160.619 223.923 161.335C224.526 169.696 226.484 177.906 227.689 186.117C229.769 196.992 230.841 208.036 230.891 219.109C230.891 226.038 229.912 238.128 221.061 239.71C216.956 240.425 215.525 235.379 214.847 232.177C213.982 227.573 213.716 222.877 214.056 218.205C214.826 209.463 216.3 200.798 218.462 192.293C220.797 181.974 223.396 171.73 224.978 161.297C225.008 161.187 224.993 161.07 224.936 160.971C224.88 160.872 224.786 160.8 224.676 160.77C224.567 160.74 224.449 160.755 224.35 160.812C224.252 160.868 224.179 160.962 224.149 161.071L224.262 161.41Z" fill="#F3F3F3"/>
<path d="M215.863 156.553C219.044 151.799 221.768 146.755 223.998 141.488C226.389 136.565 227.967 131.286 228.668 125.858C228.668 125.331 227.877 125.256 227.726 125.858C224.964 136.533 220.527 146.702 214.582 155.988C214.168 156.666 215.223 157.268 215.675 156.628L215.863 156.553Z" fill="#F3F3F3"/>
<path d="M218.272 150.828C213.374 156.184 208.195 161.276 202.755 166.081C197.326 171.168 192.715 177.063 189.084 183.556C185.476 190.402 182.404 197.516 179.895 204.835C176.881 211.417 175.229 218.54 175.036 225.776C175.036 229.542 175.94 236.17 180.233 237.601C183.133 238.581 185.28 235.568 186.561 233.421C188.555 229.841 190.146 226.052 191.306 222.122L195.826 207.886C198.65 199.111 201.4 190.26 204.526 181.523C207.841 172.684 211.613 164.022 215.824 155.574C215.9 155.396 215.908 155.197 215.848 155.014C215.787 154.831 215.662 154.677 215.495 154.579C215.329 154.482 215.133 154.449 214.943 154.487C214.754 154.524 214.585 154.629 214.468 154.783C210.633 160.856 207.512 167.352 205.166 174.141C202.454 181.033 200.157 188.076 197.897 195.119C194.658 205.212 191.871 215.456 188.331 225.248C187.443 228.876 185.671 232.228 183.171 235.003C179.104 238.43 177.371 229.316 177.183 226.868C176.977 220.117 178.263 213.405 180.949 207.208C183.344 200.186 186.2 193.329 189.498 186.682C193.173 179.436 198.064 172.876 203.961 167.286C209.158 162.353 215.259 157.683 219.025 151.28C219.025 150.903 218.724 150.489 218.423 150.828L218.272 150.828Z" fill="#F3F3F3"/>
<path d="M234.394 149.322C234.62 140.095 234.62 130.868 235.562 121.678C236.705 112.306 238.415 103.011 240.684 93.8459C240.696 93.671 240.647 93.4974 240.544 93.3549C240.442 93.2125 240.294 93.1101 240.124 93.0655C239.954 93.0208 239.775 93.0368 239.616 93.1105C239.457 93.1842 239.328 93.3111 239.253 93.4693C236.467 102.368 234.612 111.531 233.716 120.812C232.417 130.264 232.303 139.842 233.377 149.322C233.377 149.925 234.394 150 234.394 149.322Z" fill="#F3F3F3"/>
<path d="M232.769 142.053C233.334 149.701 233.334 157.379 232.769 165.027C232.6 172.496 233.054 179.967 234.125 187.361C235.288 194.819 237.129 202.156 239.624 209.28C240.877 214.459 243.101 219.353 246.177 223.704C248.173 225.926 251.751 227.245 253.483 224.043C254.696 220.81 254.995 217.305 254.35 213.912C253.219 202.446 250.467 191.199 246.177 180.506C244.03 174.97 241.695 169.509 239.774 163.897C237.398 156.738 235.448 149.444 233.937 142.053C233.937 141.451 232.732 141.564 232.807 142.053C234.21 153.23 237.163 164.156 241.582 174.518C245.419 183.93 248.431 193.659 250.583 203.593C251.619 208.118 252.187 212.737 252.278 217.377C252.278 219.788 252.052 225.738 248.512 222.462C246.814 220.693 245.528 218.571 244.746 216.247C243.729 213.686 242.787 211.088 241.846 208.489C239.618 202.114 237.93 195.563 236.799 188.905C235.476 181.169 234.883 173.326 235.029 165.479C235.527 157.601 235.136 149.692 233.861 141.902C233.861 141.225 232.619 141.375 232.694 141.902L232.769 142.053Z" fill="#F3F3F3"/>
<path d="M159.633 139.228C168.74 137.899 177.688 135.64 186.335 132.486C189.911 131.022 193.32 129.179 196.504 126.987C199.874 125.092 202.731 122.403 204.827 119.154C205.166 118.438 204.413 117.384 203.584 117.949C202.236 119.108 200.977 120.367 199.818 121.715C198.289 123.155 196.652 124.477 194.922 125.669C191.785 127.785 188.456 129.601 184.979 131.093C176.81 134.427 168.333 136.95 159.67 138.625C159.181 138.625 159.369 139.454 159.67 139.378L159.633 139.228Z" fill="#F3F3F3"/>
<path d="M164.337 136.855C151.798 140.841 139.824 146.423 128.708 153.464C118.411 159.671 109.283 167.638 101.742 177.003C99.4828 179.94 94.2101 189.506 89.201 185.401C84.192 181.296 88.1465 172.446 90.6322 168.265C97.0724 157.418 109.915 151.129 121.327 146.873C128.314 144.366 135.46 142.328 142.719 140.772C150.743 138.78 159.017 137.981 167.274 138.399C168.781 138.399 168.781 136.139 167.274 136.026C159.688 135.64 152.084 136.299 144.677 137.985C137.335 139.469 130.1 141.445 123.022 143.898C111.12 148.191 97.9386 154.518 90.5192 165.214C86.9724 169.836 85.2438 175.598 85.6608 181.409C86.301 185.816 89.8789 188.942 94.2854 187.058C96.2884 186.123 98.0239 184.698 99.3321 182.916C101.404 180.166 103.362 177.379 105.622 174.781C110.251 169.422 115.44 164.573 121.101 160.318C127.611 155.536 134.515 151.315 141.74 147.702C149.272 143.935 156.993 140.809 164.6 137.307C164.939 137.307 164.6 136.591 164.337 136.704L164.337 136.855Z" fill="#F3F3F3"/>
<path d="M125.249 187.624C129.131 184.494 133.179 181.577 137.377 178.886C141.857 176.322 146.529 174.106 151.349 172.258C155.83 170.423 160.088 168.085 164.041 165.29C167.838 162.828 171.124 159.656 173.72 155.95C173.78 155.876 173.824 155.791 173.85 155.699C173.877 155.608 173.885 155.513 173.874 155.418C173.864 155.324 173.835 155.232 173.789 155.149C173.743 155.066 173.682 154.992 173.607 154.933C173.533 154.874 173.448 154.83 173.357 154.803C173.266 154.777 173.17 154.769 173.076 154.779C172.981 154.789 172.89 154.818 172.806 154.864C172.723 154.91 172.65 154.972 172.591 155.046C170.896 156.515 169.502 158.323 167.883 159.867C166.004 161.63 163.989 163.242 161.857 164.688C157.785 167.41 153.459 169.731 148.939 171.617C144.426 173.422 140.079 175.614 135.945 178.171C132.002 180.847 128.229 183.765 124.647 186.908C124.195 187.322 124.835 188.151 125.325 187.774L125.249 187.624Z" fill="#F3F3F3"/>
<path d="M131.109 181.448C112.278 194.329 94.7271 209.732 88.0233 232.33C87.0064 235.832 86.0649 241.707 89.2661 244.494C91.2622 246.265 93.5596 244.494 95.0284 242.988C97.2978 240.416 99.3629 237.671 101.205 234.778C104.813 229.478 108.084 223.955 110.997 218.244C114.198 212.218 117.211 206.117 120.526 200.128C123.84 194.14 128.058 188.265 132.013 182.314C132.577 181.41 131.297 180.469 130.544 181.184C126.885 184.996 123.768 189.292 121.279 193.952C118.53 198.66 116.119 203.593 113.746 208.489C109.097 218.134 103.852 227.48 98.0414 236.472C96.4972 238.77 94.8024 242.084 92.1661 243.327C90.3583 244.231 89.6427 242.574 89.1908 240.992C88.602 238.273 88.838 235.441 89.8687 232.857C93.1577 222.641 98.5456 213.225 105.687 205.213C113.816 196.991 122.458 189.293 131.561 182.164C131.937 181.825 131.561 181.147 130.996 181.448L131.109 181.448Z" fill="#F3F3F3"/>
<path d="M174.02 179.678C175.838 175.144 177.991 170.75 180.46 166.534C182.908 162.391 185.62 158.362 187.729 154.031C189.645 149.742 191.329 145.355 192.775 140.886L195.261 133.957C196.399 131.686 197.089 129.219 197.295 126.688C197.295 126.048 196.391 125.558 195.901 126.123C194.697 127.918 193.841 129.924 193.378 132.036C192.549 134.484 191.759 136.97 190.968 139.568C189.501 144.613 187.676 149.547 185.507 154.332C183.398 158.512 180.912 162.467 178.728 166.61C176.558 170.781 174.744 175.127 173.304 179.603C173.304 180.055 173.831 180.206 174.02 179.603L174.02 179.678Z" fill="#F3F3F3"/>
<path d="M176.542 171.617C176.542 174.63 173.341 177.266 171.684 179.564C170.027 181.861 168.257 184.573 166.675 187.096C163.658 192.026 160.99 197.16 158.69 202.462C153.692 212.967 150.253 224.145 148.484 235.643C147.689 239.463 148.193 243.44 149.915 246.941C151.196 249.201 153.681 250.707 156.016 249.239C157.461 248.148 158.506 246.613 158.992 244.87C160.073 241.926 160.929 238.904 161.553 235.831C162.796 229.88 163.473 223.854 164.603 217.866C165.884 211.162 167.842 204.534 169.612 197.905C171.382 191.277 173.831 183.97 175.488 176.89C175.488 176.099 174.433 175.496 174.056 176.325C172.041 181.468 170.417 186.755 169.198 192.143C167.729 197.717 166.336 203.442 164.905 208.865C162.193 219.297 161.703 230.106 158.954 240.501C158.314 242.949 157.636 246.565 155.188 248.033C152.74 249.502 151.61 247.242 150.819 245.51C149.289 241.043 149.197 236.21 150.555 231.688C151.662 226.297 153.212 221.006 155.188 215.87C156.996 210.786 158.954 205.739 161.063 200.805C163.453 195.523 166.209 190.413 169.311 185.514C170.855 183.066 172.512 180.694 174.169 178.359C175.063 177.477 175.772 176.428 176.257 175.271C176.742 174.114 176.992 172.872 176.994 171.617C176.994 171.353 176.542 171.353 176.542 171.617Z" fill="#F3F3F3"/>
<path d="M123.843 234.815C118.005 243.289 112.544 252.026 106.594 260.463C100.732 268.397 95.6853 276.901 91.5288 285.847C87.8436 294.557 85.3114 303.711 83.9964 313.077C83.3005 317.644 82.8479 322.245 82.6406 326.861C82.3299 329.949 82.6111 333.068 83.4691 336.051C83.6173 336.798 83.9464 337.499 84.4277 338.09C84.9089 338.682 85.5276 339.146 86.2297 339.443C86.9319 339.741 87.6961 339.861 88.4557 339.795C89.2153 339.729 89.9471 339.478 90.5872 339.063C94.4807 336.352 97.5239 332.591 99.3625 328.217C101.732 322.848 103.476 317.225 104.56 311.457C106.292 304.188 107.874 296.882 109.494 289.613C111.64 280.311 113.825 271.008 116.461 261.856C119.097 252.704 122.11 244.155 125.274 235.493C125.575 234.664 124.257 234.099 123.88 234.89C116.913 248.373 113.373 263.777 109.908 278.465C106.744 291.835 104.221 305.394 100.718 318.688C99.5102 323.956 97.228 328.918 94.0145 333.264C92.6586 334.996 88.5158 339.967 86.1808 337.03C84.9787 334.713 84.4936 332.091 84.7873 329.497C84.8563 325.273 85.2086 321.058 85.8418 316.881C86.8815 307.674 89.0052 298.623 92.169 289.914C96.1145 280.413 101.171 271.412 107.234 263.099C113.743 254.323 119.705 245.154 125.086 235.643C125.133 235.562 125.163 235.472 125.175 235.378C125.187 235.285 125.181 235.19 125.157 235.099C125.132 235.008 125.09 234.923 125.033 234.848C124.975 234.774 124.904 234.711 124.822 234.664C124.74 234.617 124.65 234.587 124.557 234.575C124.464 234.562 124.369 234.569 124.278 234.593C124.187 234.618 124.102 234.66 124.027 234.717C123.952 234.775 123.89 234.846 123.843 234.928L123.843 234.815Z" fill="#F3F3F3"/>
<path d="M60.7202 276.47C73.9772 266.979 89.1173 260.614 102.676 251.613C108.01 248.182 112.883 244.081 117.176 239.411C120.942 235.042 124.708 230.372 128.211 225.664C131.987 220.971 135.303 215.926 138.116 210.599C138.212 210.387 138.225 210.146 138.154 209.924C138.083 209.702 137.932 209.515 137.731 209.398C137.529 209.28 137.292 209.242 137.064 209.29C136.835 209.338 136.633 209.469 136.496 209.658C130.056 218.697 123.879 227.924 116.724 236.398C107.647 247.131 95.0303 254.099 82.8278 260.991C74.938 265.31 67.3164 270.102 60.0046 275.34C59.4396 275.792 60.0046 276.734 60.5695 276.32L60.7202 276.47Z" fill="#F3F3F3"/>
<path d="M73.6027 266.827C66.0898 269.81 58.7583 273.231 51.6457 277.071C44.6203 280.375 37.8809 284.254 31.4965 288.671C22.4033 294.953 15.2844 303.692 10.9707 313.867C9.6902 316.993 3.89025 330.476 11.2343 330.476C13.8011 330.161 16.188 328.994 18.0135 327.162C20.3669 325.262 22.6173 323.238 24.755 321.098C29.4383 316.337 33.8397 311.307 37.9367 306.033C46.9918 293.973 56.6716 282.395 66.9365 271.347C67.5391 270.744 66.6729 269.953 66.0326 270.443C56.8054 277.636 49.9133 287.88 42.8705 297.108C35.8409 307.121 27.8431 316.418 18.9927 324.864C16.846 326.823 13.8707 329.798 10.8201 329.346C9.20059 329.12 8.78632 327.689 8.82398 326.22C9.16932 322.355 10.2969 318.601 12.1382 315.185C16.27 305.767 22.7548 297.571 30.9692 291.383C37.41 286.737 44.2542 282.679 51.4197 279.256C58.9521 275.489 67.0495 272.477 74.017 267.957C74.5442 267.58 74.017 266.601 73.5274 266.827L73.6027 266.827Z" fill="#F3F3F3"/>
<path d="M53.5258 265.775C62.866 261.33 73.0348 260.05 83.0529 257.941C87.5679 257.104 91.9939 255.843 96.2722 254.175C98.2717 253.332 100.21 252.35 102.072 251.237C103.944 250.381 105.584 249.089 106.855 247.471C106.922 247.367 106.955 247.246 106.951 247.123C106.946 247 106.904 246.882 106.831 246.783C106.757 246.685 106.655 246.611 106.538 246.573C106.421 246.534 106.295 246.532 106.177 246.567C104.276 247.526 102.462 248.647 100.754 249.919C98.777 251.104 96.7121 252.137 94.5775 253.007C90.122 254.761 85.539 256.171 80.8685 257.225C71.4304 258.981 62.2116 261.759 53.3752 265.511C53.0739 265.511 53.3752 266.151 53.6765 265.963L53.5258 265.775Z" fill="#F3F3F3"/>
<path d="M57.2555 263.552C46.9738 265.774 37.4453 269.992 27.5402 273.307C18.8142 275.656 10.8384 280.208 4.37803 286.526C2.13597 288.485 0.611732 291.136 0.0468898 294.058C0.0468708 294.734 0.180584 295.403 0.440342 296.027C0.7001 296.651 1.08077 297.218 1.56039 297.694C2.04001 298.17 2.60912 298.546 3.23491 298.802C3.8607 299.057 4.5308 299.185 5.2066 299.181C7.20181 299.011 9.13298 298.393 10.8559 297.373C13.0737 296.327 15.2246 295.144 17.2961 293.833C21.4928 291.181 25.5412 288.302 29.4233 285.208C34.1687 281.442 38.8011 277.676 43.6219 273.909C48.4426 270.143 52.9997 267.62 57.7828 264.569C58.6114 264.042 58.0841 262.573 57.1049 262.95C49.1582 265.85 42.0401 272.102 35.7505 277.374C28.7747 283.469 21.3045 288.975 13.4169 293.833C10.9312 295.226 3.54944 299.632 2.11829 294.887C1.32738 292.175 4.60398 288.936 6.29877 287.355C12.5053 281.565 19.989 277.32 28.1428 274.964C38.0102 271.537 47.5764 267.431 57.6322 264.381C57.742 264.351 57.8355 264.278 57.892 264.18C57.9485 264.081 57.9634 263.963 57.9335 263.854C57.9035 263.744 57.8311 263.65 57.7322 263.594C57.6333 263.537 57.516 263.522 57.4062 263.552L57.2555 263.552Z" fill="#F3F3F3"/>
<path d="M138.844 246.451C137.879 231.161 139.431 215.817 143.439 201.03C143.665 200.164 142.347 199.524 141.932 200.39C139.18 206.606 137.56 213.264 137.149 220.05C136.461 228.836 136.676 237.67 137.79 246.413C137.79 247.091 138.882 247.091 138.844 246.413L138.844 246.451Z" fill="#F3F3F3"/>
<path d="M138.241 247.281C138.962 259.013 141.861 270.507 146.79 281.177C151.912 292.476 158.089 303.021 160.273 315.412C160.876 319.178 162.005 326.711 158.616 329.648C155.226 332.586 151.573 325.882 150.33 323.472C145.218 313.152 141.918 302.031 140.576 290.593C138.969 276.152 138.491 261.608 139.144 247.093C139.144 246.378 138.128 246.415 138.052 247.093C136.853 261.587 137.181 276.167 139.032 290.593C140.154 302.366 143.368 313.844 148.522 324.489C150.029 327.539 152.289 332.021 156.055 332.511C159.821 333 162.043 329.385 162.683 326.033C163.452 320.432 162.95 314.729 161.214 309.348C159.347 302.966 156.822 296.794 153.682 290.932C150.072 284.277 146.926 277.381 144.267 270.293C141.707 262.793 139.891 255.061 138.843 247.206C138.843 246.792 138.165 246.754 138.165 247.206L138.241 247.281Z" fill="#F3F3F3"/>
<path d="M137.365 262.987C136.084 266.753 135.143 270.519 133.825 274.285C132.506 278.052 130.849 282.232 129.192 286.111C126.142 293.229 122.903 300.235 120.53 307.541C117.899 315.057 116.761 323.014 117.178 330.967C117.555 335.524 117.705 341.399 120.492 345.203C122.3 347.839 125.125 348.63 126.857 345.843C128.604 342.425 129.617 338.679 129.832 334.846C130.736 328.406 131.377 321.928 132.205 315.488C133.147 308.37 134.051 301.214 134.954 294.096C136.009 285.245 137.478 276.357 138.005 267.431C137.999 267.282 137.941 267.141 137.842 267.03C137.743 266.919 137.608 266.847 137.461 266.824C137.314 266.802 137.164 266.832 137.037 266.908C136.909 266.984 136.812 267.103 136.762 267.243C135.331 274.21 134.653 281.328 133.787 288.371C132.958 294.736 132.205 301.138 131.452 307.503C130.699 313.868 129.87 320.986 129.004 327.728C128.514 331.494 128.062 335.26 127.271 338.8C126.932 340.232 125.878 347.011 123.505 345.354C121.741 343.652 120.668 341.358 120.492 338.913C120.061 336.496 119.76 334.057 119.588 331.607C119.093 323.952 120.103 316.275 122.564 309.01C125.049 301.214 128.477 293.719 131.64 286.187C135.274 278.92 137.582 271.064 138.457 262.987C138.432 262.911 138.384 262.846 138.32 262.799C138.256 262.753 138.179 262.728 138.099 262.728C138.02 262.728 137.943 262.753 137.878 262.799C137.814 262.846 137.766 262.911 137.741 262.987L137.365 262.987Z" fill="#F3F3F3"/>
</svg>
