<svg width="175" height="77" viewBox="0 0 175 77" fill="none" xmlns="http://www.w3.org/2000/svg">
<path fill-rule="evenodd" clip-rule="evenodd" d="M0 76.5101V67.8682H0.541782V76.0157H4.74219V76.5101H0Z" fill="#102F38"/>
<path fill-rule="evenodd" clip-rule="evenodd" d="M10.793 76.5101V67.8682H15.6102V68.3617H11.3339V71.9054H14.8435V72.3988H11.3339V76.0157H15.8485V76.5101H10.793Z" fill="#102F38"/>
<path fill-rule="evenodd" clip-rule="evenodd" d="M21.1797 76.51L24.4755 67.8687H25.0542L28.3491 76.51H27.7712L26.6261 73.5224H22.891L21.7584 76.51H21.1797ZM23.0791 73.0288H26.4373L25.1041 69.523L24.7774 68.4855H24.7519C24.6267 68.9302 24.5173 69.2753 24.4247 69.523L23.0791 73.0288Z" fill="#102F38"/>
<path fill-rule="evenodd" clip-rule="evenodd" d="M33.7461 75.5834L34.1109 75.1767C34.4117 75.485 34.7718 75.7292 35.1694 75.8946C35.567 76.0601 35.994 76.1434 36.4247 76.1395C36.9457 76.1617 37.4572 75.9951 37.8651 75.6703C38.0326 75.525 38.1686 75.3469 38.2646 75.1471C38.3607 74.9472 38.4147 74.7299 38.4235 74.5083C38.4323 74.2868 38.3957 74.0658 38.3158 73.8589C38.236 73.6521 38.1145 73.4638 37.9591 73.3056C37.6357 72.9881 37.2535 72.7367 36.8338 72.5655C36.3934 72.3804 35.9532 72.1909 35.5132 71.9972C35.0852 71.8127 34.7015 71.5392 34.3875 71.1949C34.0769 70.8526 33.9102 70.4038 33.9219 69.9418C33.9128 69.6323 33.977 69.325 34.1093 69.045C34.2416 68.7651 34.4382 68.5203 34.6832 68.3308C35.2234 67.9123 35.893 67.6961 36.5759 67.7197C37.3947 67.6845 38.1945 67.973 38.8022 68.5227L38.5002 68.9789C38.2468 68.737 37.9446 68.5519 37.6139 68.4359C37.2741 68.3072 36.9141 68.2402 36.5507 68.2382C36.0269 68.2233 35.5132 68.3841 35.0914 68.6951C34.8999 68.8322 34.7447 69.0142 34.6396 69.2251C34.5345 69.4359 34.4825 69.6693 34.4883 69.9049C34.4853 70.1057 34.5253 70.3049 34.6055 70.489C34.6857 70.6732 34.8042 70.8381 34.9532 70.9728C35.2808 71.2762 35.6628 71.5149 36.0791 71.6764C36.5196 71.854 36.9597 72.0411 37.3994 72.2376C37.8302 72.4288 38.2145 72.7112 38.5255 73.0654C38.839 73.4281 39.0051 73.8952 38.991 74.3744C39 74.6822 38.9423 74.9883 38.8218 75.2718C38.7013 75.5552 38.5209 75.8092 38.2931 76.0164C37.7719 76.4638 37.0984 76.6935 36.4124 76.6578C35.9185 76.6678 35.4276 76.5778 34.9693 76.3931C34.5111 76.2085 34.095 75.933 33.7461 75.5833" fill="#102F38"/>
<path d="M45.9708 67.8687H45.4297V76.51H45.9708V67.8687Z" fill="#102F38"/>
<path fill-rule="evenodd" clip-rule="evenodd" d="M53.0664 76.51V67.8687H53.5697L58.588 74.6455L59.3053 75.7323H59.3298C59.2878 75.2957 59.267 74.9334 59.2675 74.6455V67.8687H59.8086V76.51H59.3053L54.2864 69.7325L53.5697 68.6461H53.5442C53.5863 69.0822 53.6073 69.4443 53.6073 69.7325V76.51H53.0664Z" fill="#102F38"/>
<path fill-rule="evenodd" clip-rule="evenodd" d="M66.31 72.1894C66.297 71.6028 66.4022 71.0196 66.6194 70.4745C66.8366 69.9294 67.1615 69.4337 67.5745 69.0168C67.9766 68.5953 68.4623 68.2623 69.0005 68.0391C69.5387 67.8159 70.1175 67.7075 70.7 67.7207C71.8047 67.6821 72.8888 68.0267 73.7683 68.6961L73.4417 69.1027C73.069 68.8163 72.6467 68.6008 72.1961 68.467C71.7129 68.3098 71.2082 68.2285 70.7 68.226C70.1897 68.2122 69.6822 68.3062 69.2108 68.5019C68.7393 68.6977 68.3145 68.9907 67.9642 69.3619C67.6046 69.7377 67.3232 70.1812 67.1365 70.6665C66.9498 71.1519 66.8614 71.6696 66.8765 72.1894C66.8451 73.2349 67.227 74.2507 67.9396 75.0167C68.2799 75.3869 68.6957 75.6798 69.1589 75.8756C69.6221 76.0715 70.1219 76.1657 70.6247 76.152C71.1977 76.1514 71.7631 76.0204 72.2781 75.7691C72.8002 75.5221 73.265 75.1689 73.6429 74.7321V73.0655H72.0708V72.5723H74.184V76.5103H73.6428V75.7568L73.6551 75.3866H73.6301C73.2631 75.7813 72.8176 76.0948 72.322 76.3069C71.7873 76.5422 71.2088 76.6619 70.6246 76.6581C70.0501 76.6713 69.4792 76.5632 68.9492 76.3408C68.4193 76.1185 67.9422 75.7869 67.5491 75.3678C67.1418 74.9468 66.8225 74.4489 66.6097 73.9032C66.397 73.3575 66.2951 72.7749 66.31 72.1894" fill="#102F38"/>
<path fill-rule="evenodd" clip-rule="evenodd" d="M87.744 72.1273C87.7272 71.5467 87.8277 70.9687 88.0395 70.4278C88.2513 69.8869 88.5701 69.3942 88.9767 68.9793C89.383 68.5639 89.8712 68.2375 90.4103 68.0208C90.9495 67.804 91.5279 67.7016 92.1087 67.7201C93.2577 67.6642 94.384 68.0536 95.253 68.8072L94.9255 69.2017C94.5479 68.8825 94.1122 68.6394 93.6424 68.4856C93.1531 68.3153 92.639 68.2277 92.121 68.2263C91.6122 68.209 91.1054 68.2984 90.6332 68.4887C90.161 68.6791 89.7338 68.9661 89.3792 69.3314C89.0236 69.7026 88.7457 70.1412 88.562 70.6214C88.3783 71.1015 88.2924 71.6136 88.3095 72.1274C88.2779 73.1882 88.6644 74.219 89.3858 74.9976C89.7383 75.3774 90.1683 75.6771 90.6467 75.8764C91.1252 76.0756 91.6408 76.1697 92.1588 76.1523C92.7087 76.1646 93.2555 76.0671 93.7673 75.8656C94.2791 75.6641 94.7456 75.3625 95.1394 74.9786L95.4796 75.3494C95.0392 75.775 94.5192 76.1096 93.9494 76.3342C93.3797 76.5588 92.7712 76.669 92.1588 76.6585C91.5658 76.679 90.9752 76.5729 90.4265 76.3471C89.8777 76.1214 89.3835 75.7813 88.9767 75.3494C88.1559 74.4805 87.7127 73.3221 87.744 72.1274" fill="#102F38"/>
<path fill-rule="evenodd" clip-rule="evenodd" d="M100.939 72.127C100.926 71.5443 101.033 70.9651 101.253 70.4256C101.474 69.8861 101.803 69.3978 102.221 68.9912C103.075 68.1752 104.21 67.7197 105.391 67.7197C106.572 67.7197 107.707 68.1752 108.561 68.9912C108.978 69.3979 109.308 69.8862 109.528 70.4257C109.749 70.9651 109.856 71.5443 109.843 72.127C109.857 72.7227 109.751 73.3151 109.531 73.8687C109.31 74.4224 108.98 74.9258 108.561 75.349C107.719 76.1873 106.579 76.658 105.391 76.658C104.203 76.658 103.063 76.1873 102.221 75.349C101.801 74.9259 101.471 74.4225 101.251 73.8688C101.031 73.3151 100.924 72.7227 100.939 72.127ZM101.504 72.127C101.491 72.6543 101.582 73.1792 101.773 73.671C101.964 74.1627 102.251 74.6115 102.617 74.9913C102.98 75.3589 103.411 75.6508 103.887 75.8501C104.363 76.0493 104.874 76.1519 105.391 76.1519C105.907 76.1519 106.418 76.0493 106.894 75.8501C107.37 75.6508 107.802 75.3589 108.164 74.9913C108.53 74.6116 108.817 74.1628 109.009 73.671C109.2 73.1793 109.291 72.6544 109.278 72.127C109.286 71.6114 109.191 71.0994 109 70.6207C108.808 70.142 108.523 69.7062 108.162 69.3387C107.8 68.9712 107.369 68.6793 106.893 68.4801C106.417 68.2809 105.907 68.1783 105.391 68.1783C104.875 68.1783 104.365 68.2809 103.889 68.4801C103.413 68.6793 102.982 68.9712 102.62 69.3387C102.259 69.7062 101.974 70.142 101.782 70.6207C101.59 71.0994 101.496 71.6114 101.504 72.127Z" fill="#102F38"/>
<path fill-rule="evenodd" clip-rule="evenodd" d="M115.992 76.51L116.696 67.8687H117.225L119.791 73.2996L120.218 74.2757H120.243C120.394 73.9048 120.537 73.5798 120.67 73.2996L123.236 67.8687H123.765L124.47 76.51H123.928L123.387 69.9176L123.35 68.7694H123.324C123.195 69.1601 123.044 69.5435 122.872 69.9176L120.507 74.843H119.954L117.602 69.9176L117.136 68.7448H117.111C117.111 69.2471 117.098 69.638 117.073 69.9176L116.533 76.51H115.992Z" fill="#102F38"/>
<path fill-rule="evenodd" clip-rule="evenodd" d="M131.223 76.5101V67.8687H134.116C134.822 67.8418 135.511 68.0871 136.041 68.5538C136.292 68.7862 136.49 69.0706 136.62 69.3871C136.75 69.7037 136.81 70.0449 136.795 70.3869C136.811 70.7317 136.751 71.0757 136.621 71.3952C136.491 71.7148 136.293 72.0024 136.041 72.2381C135.513 72.7086 134.823 72.9564 134.116 72.9295H131.764V76.5101H131.223ZM131.764 72.4361H134.09C134.661 72.466 135.221 72.2709 135.65 71.8928C135.848 71.6971 136.002 71.4616 136.102 71.202C136.201 70.9425 136.245 70.6646 136.23 70.3869C136.246 70.1109 136.203 69.8347 136.103 69.5769C136.003 69.3191 135.848 69.0859 135.65 68.893C135.218 68.5223 134.659 68.3322 134.09 68.3623H131.764V72.4361Z" fill="#102F38"/>
<path fill-rule="evenodd" clip-rule="evenodd" d="M141.523 76.51L144.819 67.8687H145.397L148.692 76.51H148.114L146.969 73.5224H143.234L142.102 76.51H141.523ZM143.423 73.0288H146.781L145.448 69.523L145.121 68.4855H145.096C144.97 68.9302 144.86 69.2753 144.768 69.523L143.423 73.0288Z" fill="#102F38"/>
<path fill-rule="evenodd" clip-rule="evenodd" d="M154.781 76.51V67.8687H155.284L160.303 74.6455L161.02 75.7323H161.045C161.003 75.2957 160.982 74.9334 160.982 74.6455V67.8687H161.523V76.51H161.02L156.002 69.7325L155.284 68.6461H155.259C155.301 69.0822 155.322 69.4443 155.322 69.7325V76.51H154.781Z" fill="#102F38"/>
<path fill-rule="evenodd" clip-rule="evenodd" d="M170.563 76.51V72.7574L167.57 67.8687H168.186L170.274 71.275L170.815 72.2513H170.84C171.024 71.8804 171.205 71.555 171.381 71.275L173.469 67.8687H174.085L171.104 72.7574V76.51H170.563Z" fill="#102F38"/>
<path d="M68.8484 33.8281H62.125V58.9511H68.8484V33.8281Z" fill="#104065"/>
<path fill-rule="evenodd" clip-rule="evenodd" d="M93.9665 58.9506L90.0082 52.2844H85.8442V58.9506H79.1211V33.8274H89.9055C92.3793 33.8098 94.7594 34.7728 96.5247 36.5057C98.29 38.2385 99.2967 40.6 99.3246 43.0732C99.3187 44.3504 99.0454 45.6123 98.5223 46.7776C97.9993 47.9428 97.238 48.9857 96.2876 49.8391L101.714 58.9506H93.9665ZM85.8442 46.5898H90.0082C90.4882 46.6008 90.9654 46.5158 91.4121 46.3398C91.8587 46.1638 92.2656 45.9003 92.6089 45.5649C92.9523 45.2294 93.2251 44.8287 93.4114 44.3863C93.5976 43.944 93.6936 43.4688 93.6936 42.9889C93.6936 42.5089 93.5976 42.0338 93.4114 41.5914C93.2251 41.149 92.9523 40.7483 92.6089 40.4129C92.2656 40.0774 91.8587 39.8139 91.4121 39.6379C90.9654 39.4619 90.4882 39.3769 90.0082 39.3879H85.8442V46.5898Z" fill="#104065"/>
<path d="M116.833 33.8281H110.109V58.9511H116.833V33.8281Z" fill="#104065"/>
<path fill-rule="evenodd" clip-rule="evenodd" d="M133.831 48.9346C133.848 49.8108 134.207 50.6457 134.833 51.2596C135.458 51.8736 136.299 52.2176 137.176 52.2176C138.053 52.2176 138.894 51.8736 139.519 51.2596C140.145 50.6457 140.504 49.8108 140.521 48.9346V33.8271H147.277V49.0353C147.228 51.6816 146.143 54.2031 144.254 56.0573C142.365 57.9115 139.823 58.9503 137.176 58.9503C134.528 58.9503 131.987 57.9115 130.098 56.0573C128.209 54.2031 127.123 51.6816 127.074 49.0353V33.8271H133.831V48.9346Z" fill="#104065"/>
<path fill-rule="evenodd" clip-rule="evenodd" d="M166.939 41.5322C166.928 41.0228 166.719 40.5377 166.355 40.1807C165.991 39.8238 165.502 39.6235 164.993 39.6228C164.487 39.6251 164.002 39.827 163.645 40.1846C163.287 40.5422 163.085 41.0265 163.082 41.5322C163.084 41.7809 163.135 42.0268 163.232 42.2557C163.329 42.4847 163.471 42.6922 163.648 42.8665C163.826 43.0408 164.036 43.1783 164.266 43.2712C164.497 43.3642 164.744 43.4107 164.993 43.408C166.18 43.4085 167.352 43.6767 168.422 44.1928C169.491 44.709 170.431 45.4596 171.17 46.3889C172.286 47.7605 172.89 49.4783 172.877 51.2467C172.83 53.3144 171.971 55.2808 170.487 56.7218C169.003 58.1627 167.012 58.9629 164.944 58.9496C162.875 58.9364 160.894 58.1109 159.429 56.6511C157.963 55.1913 157.13 53.2141 157.109 51.1459H163.082C163.081 51.3972 163.129 51.6462 163.225 51.8786C163.32 52.1111 163.461 52.3222 163.638 52.4998C163.816 52.6775 164.027 52.818 164.26 52.9134C164.492 53.0087 164.741 53.057 164.993 53.0553C165.499 53.0621 165.987 52.8687 166.351 52.5174C166.716 52.1661 166.927 51.6852 166.938 51.1793C166.928 50.6698 166.719 50.1847 166.355 49.8277C165.991 49.4708 165.502 49.2706 164.993 49.2699C163.473 49.2384 161.996 48.7593 160.747 47.8924C159.499 47.0256 158.533 45.8097 157.973 44.3969C157.412 42.9841 157.281 41.4374 157.596 39.9504C157.91 38.4634 158.657 37.1024 159.742 36.0377C160.827 34.973 162.202 34.252 163.694 33.965C165.187 33.6781 166.732 33.838 168.134 34.4246C169.536 35.0112 170.734 35.9986 171.578 37.2629C172.422 38.5272 172.873 40.0124 172.877 41.5322H166.939Z" fill="#104065"/>
<path fill-rule="evenodd" clip-rule="evenodd" d="M54.0153 41.4487C52.6336 37.2521 47.9722 33.4676 43.4287 31.4077C40.6378 30.1423 37.7563 29.0294 35.0811 27.5624C33.5051 26.7436 32.1001 25.6314 30.9416 24.2856C29.6869 22.7215 30.2263 19.8719 31.7877 18.6046C33.2187 17.4799 34.9627 16.8256 36.7804 16.7315C38.5981 16.6374 40.4003 17.1081 41.9398 18.0789C42.3455 18.3308 42.7157 18.6358 43.0406 18.9857C43.4547 19.4278 43.8133 19.9187 44.1086 20.4475C44.5801 21.2887 44.9589 21.3583 45.7873 21.0622C48.9533 19.9305 52.1145 18.7699 55.3414 17.8287C56.5296 17.5624 57.762 17.5629 58.95 17.83C61.0138 18.1993 62.7945 17.688 63.3507 18.3643C63.8343 18.953 63.6866 20.3887 64.1074 22.1437C64.5519 24.001 62.7113 27.2852 62.7113 27.2852C62.7113 27.2852 54.1305 41.3002 54.0153 41.4487Z" fill="#F28F0B"/>
<path fill-rule="evenodd" clip-rule="evenodd" d="M65.5016 0L62.8302 13.2369L49.3711 16.0952L62.8302 18.5368L65.5016 31.7014L68.1338 18.5368L81.891 16.0952L68.1356 13.2405L65.5016 0Z" fill="#FFD000"/>
<path fill-rule="evenodd" clip-rule="evenodd" d="M31.7528 25.1733C32.6296 26.0076 33.6062 26.7304 34.6604 27.3251C37.8214 29.0286 41.0828 30.539 44.4266 31.8481C28.4926 24.2062 33.0418 15.2887 44.1088 20.4476C44.1268 20.4563 44.0862 20.3708 44.0862 20.3708L44.0825 20.3657C43.71 19.7329 43.247 19.158 42.7081 18.6592C39.5527 15.7919 32.1728 16.0383 30.6281 20.1651C30.2239 21.0045 30.1151 21.9558 30.3192 22.8648C30.5234 23.7737 31.0285 24.5872 31.7528 25.1732" fill="#D66608"/>
<path fill-rule="evenodd" clip-rule="evenodd" d="M33.4505 37.3887L0.0234375 56.2295V56.4735C0.0234375 56.4735 10.5682 58.6441 17.1747 60.0458L23.8509 54.5896L23.8581 54.5829L23.8529 54.5787L23.7894 54.5227L23.7205 54.4621C23.6757 54.4208 23.6301 54.3802 23.5851 54.3397L23.5178 54.2773L23.5126 54.2724C23.4496 54.2143 23.3874 54.1566 23.3258 54.0977L23.3115 54.0835L23.2556 54.0298L23.2424 54.0181C23.1802 53.9573 23.1174 53.8967 23.0556 53.835L22.9912 53.7705L22.9333 53.712L22.9268 53.7054L22.8668 53.644L22.8632 53.6404L22.7993 53.5744L22.7973 53.5722C22.738 53.51 22.6785 53.4485 22.6198 53.3854L22.6045 53.3688L22.5489 53.3094L22.4872 53.2421L22.4707 53.2233L22.4257 53.1748L22.3735 53.1161L22.3649 53.1067L22.3049 53.0385L22.2998 53.0322L22.2622 52.9902L22.2062 52.9248L22.1845 52.9009L22.183 52.8987L22.1253 52.8314L22.0702 52.767L22.0664 52.7621L22.0081 52.6925L21.9687 52.6455L21.95 52.6222L21.9052 52.5679L21.8919 52.5514L21.834 52.4811L21.8146 52.4556L21.7971 52.4341L21.7327 52.3527L21.7246 52.3427L21.7213 52.3376L21.6479 52.2443L21.6356 52.2291L21.609 52.1943L21.554 52.1219L21.548 52.1148L21.4989 52.0495L21.485 52.0309L21.4488 51.9821L21.4446 51.9759L21.3902 51.9025L21.3764 51.8838L21.3365 51.8288L21.3207 51.8064L21.2766 51.7447L21.2164 51.6599L21.2084 51.6485L21.1787 51.6058L21.1265 51.5311L21.1261 51.5304L21.1128 51.5102L21.0571 51.4284L21.0455 51.411L21.0245 51.3808L20.9739 51.3045L20.9449 51.2604L20.9028 51.1953L20.8869 51.1707L20.8746 51.1517L20.8137 51.0562L20.7999 51.0338L20.7448 50.9461L20.7325 50.9267L20.7292 50.9209V50.92L20.6661 50.818L20.6574 50.8035L20.6341 50.7652L20.5878 50.6869L20.5833 50.6798L20.5741 50.6637L20.5249 50.5798L20.5024 50.5414L20.4401 50.4313L20.4363 50.4248L20.3851 50.332L20.3685 50.304L20.3609 50.2908L20.3054 50.1888L20.2915 50.162L20.2314 50.0499C22.1521 48.3542 24.0429 46.5221 25.8323 44.689L25.8974 44.794L25.9242 44.8353L25.9685 44.9042L25.9844 44.9301L25.996 44.946C26.0408 45.0147 26.0864 45.0827 26.1329 45.1502L26.1508 45.1777L26.2117 45.2648L26.224 45.282L26.2249 45.2829L26.2437 45.3095L26.2951 45.3806L26.322 45.4176L26.3848 45.5028L26.3955 45.518L26.468 45.6128L26.502 45.6578L26.5506 45.7202L26.5738 45.7505L26.6535 45.8496L26.6548 45.8512L26.6564 45.8525L26.7286 45.9415L26.7664 45.9865L26.8134 46.0436L26.8454 46.0814L26.8484 46.0851L26.915 46.1626L26.9199 46.1682L26.9532 46.206L27.0047 46.2645L27.0373 46.3014L27.1176 46.3904L27.1206 46.3933L27.1255 46.3994L27.2046 46.4846L27.2298 46.5115L27.3094 46.5956L27.3155 46.6027L27.3268 46.6142L27.3986 46.6882L27.4152 46.7056L27.4369 46.7264L27.4905 46.7814L27.5391 46.8302L27.542 46.8331L27.6152 46.9047L27.6181 46.9076L27.6456 46.9344L27.7042 46.9908L27.742 47.027L27.7971 47.0785L27.8353 47.1138L27.8376 47.1169L27.9127 47.1856L27.9318 47.2028L27.9489 47.2189L28.0237 47.2856L28.0512 47.3101L28.1207 47.3709L28.1422 47.3904L28.1466 47.394L28.2198 47.4571L28.2234 47.4607L28.2909 47.517L28.2981 47.5236L28.3661 47.5801L28.3768 47.5895L28.4564 47.6548L28.4645 47.6611L28.503 47.6924L28.5622 47.7394L28.6108 47.7794L28.6389 47.8008L28.7448 47.8836L28.7954 47.9225L28.8442 47.9587L28.8607 47.9719L28.9316 48.0245L28.9426 48.0335L29.0257 48.0941L29.0271 48.095L29.0887 48.1397L29.1343 48.1723L29.1815 48.2057L29.1931 48.2137L29.277 48.2731L29.3336 48.3112L29.3704 48.3374L29.4457 48.3881L29.4487 48.3895C29.5276 48.4438 29.6081 48.496 29.6893 48.5481L29.7233 48.5691L29.7875 48.6112L29.8092 48.6242C29.8542 48.6523 29.8998 48.6807 29.9457 48.7083L29.9775 48.7277L30.0468 48.7697L30.0753 48.787L30.1432 48.8268L30.2324 48.8789L30.3106 48.9238L30.3358 48.9384L30.4025 48.9762L30.4112 48.9805L30.5009 49.0306L30.5096 49.0355L30.5915 49.0795L40.5373 40.9495C40.1114 40.6434 39.6642 40.3683 39.199 40.1262C37.3031 39.1437 35.4138 38.246 33.4505 37.3887" fill="#D66608"/>
<path fill-rule="evenodd" clip-rule="evenodd" d="M24.9478 33.0235C23.4533 31.963 22.1156 30.6974 20.9741 29.264C20.8562 29.063 20.6906 28.8942 20.4919 28.7725C20.2932 28.6509 20.0676 28.5801 19.835 28.5664L0 34.5365V43.3458L24.9478 33.0235Z" fill="#F28F0B"/>
<path fill-rule="evenodd" clip-rule="evenodd" d="M33.4494 37.3888C32.2525 36.866 31.0533 36.344 29.8692 35.7951C28.1057 34.9998 26.4211 34.0401 24.8377 32.9287L0 43.3083L0.0223905 56.2454L33.4494 37.3888Z" fill="#E87A08"/>
<path fill-rule="evenodd" clip-rule="evenodd" d="M43.9451 45.1938L40.7645 50.0497C41.1526 49.9238 41.5337 49.779 41.908 49.6153C43.6045 48.8724 44.0885 48.092 44.2869 46.8192C44.1885 46.3043 44.0761 45.7645 43.9451 45.1938ZM34.591 59.4774L31.8984 63.5891L40.5936 65.4442L43.6279 58.7589C41.1412 60.1108 38.1037 60.0622 35.2977 59.6017C35.0616 59.5628 34.826 59.5214 34.5909 59.4774H34.591Z" fill="#D34C0C"/>
<path fill-rule="evenodd" clip-rule="evenodd" d="M40.5301 40.9434C39.3229 41.9279 35.1055 45.3745 30.58 49.0736C31.3562 49.4937 32.171 49.8382 33.0132 50.1024C35.5418 50.8832 38.2498 50.8651 40.7676 50.0503L43.9475 45.1942C43.4267 43.358 41.9468 42.1004 40.5301 40.9434ZM23.8511 54.5769C20.0752 57.6655 17.1713 60.0432 17.1758 60.0461L31.9017 63.5889L34.5941 59.4778C31.7859 58.9853 29.0857 58.0046 26.616 56.5802C25.635 55.9984 24.7095 55.3278 23.8511 54.5769Z" fill="#D45D0A"/>
</svg>
