<svg width="195" height="69" viewBox="0 0 195 69" fill="none" xmlns="http://www.w3.org/2000/svg">
<path d="M86.5863 38.7754C82.1888 38.7754 80.6016 36.2957 80.6016 32.7252V13.8799H85.0321V32.659C85.0321 34.0808 85.5943 34.9401 86.9506 34.9401C88.3723 34.9401 88.9014 34.1135 88.9014 32.659V13.8799H93.3328V32.7252C93.3328 36.2625 91.7124 38.7754 87.3141 38.7754H86.5863Z" fill="#0F1527"/>
<path d="M101.3 38.4779H96.9023V13.8799H101.3V38.4779Z" fill="#0F1527"/>
<path d="M118.097 32.2624V28.2618H122.363V32.4937C122.363 35.9321 120.775 38.7754 116.543 38.7754H115.748C111.549 38.7754 109.797 36.2956 109.797 32.4606V19.9301C109.797 15.9958 111.549 13.6484 115.617 13.6484H116.41C120.775 13.6484 122.362 15.7975 122.362 19.897V22.8726H118.097V20.0956C118.097 18.3762 117.601 17.4507 116.146 17.4507C114.723 17.4507 114.227 18.3431 114.227 20.0956V32.2293C114.227 33.9814 114.723 34.9073 116.146 34.9073C117.601 34.9073 118.097 33.9482 118.097 32.2624Z" fill="#0F1527"/>
<path d="M130.097 38.4779H125.766V13.8799H133.503C136.678 13.8799 138.265 15.2686 138.265 18.5414V21.2195C138.265 23.7987 136.91 24.8566 135.785 25.1869C137.074 25.6828 138.265 26.7408 138.265 29.2537V35.5022C138.227 36.4553 138.361 37.4074 138.662 38.3127V38.4779H134.363C133.988 37.5915 133.84 36.6257 133.933 35.6678V29.9809C133.933 28.2946 133.371 27.5674 131.916 27.5674H130.097V38.4779ZM130.097 24.0627H131.916C133.404 24.0627 133.933 23.2034 133.933 21.6165V19.5005C133.933 17.8142 133.404 17.1859 131.916 17.1859H130.097V24.0627Z" fill="#0F1527"/>
<path d="M154.659 32.0972C154.659 36.4616 152.709 38.7758 148.509 38.7758H147.848C143.582 38.7758 141.664 36.4616 141.664 32.0972V20.2281C141.664 15.9962 143.549 13.6157 147.814 13.6157H148.476C152.841 13.6157 154.659 16.0624 154.659 20.195V32.0972ZM150.229 20.2612C150.229 18.1783 149.435 17.4511 148.146 17.4511C146.822 17.4511 146.095 18.1784 146.095 20.2612V32.1303C146.095 33.9818 146.789 34.9076 148.178 34.9077C149.534 34.9077 150.229 33.9818 150.229 32.1303L150.229 20.2612Z" fill="#0F1527"/>
<path d="M168.878 29.9809C168.349 26.6419 168.018 24.4597 167.919 23.1372C167.787 24.4597 167.456 26.6419 166.96 29.9809L165.638 38.4779H160.909L156.809 13.8799H161.14L162.727 25.1538C163.158 28.3277 163.488 31.072 163.621 32.3614C163.719 31.072 164.083 28.2619 164.513 25.1538L166.1 13.8799H169.903L171.524 25.1538C171.953 28.1626 172.317 31.0389 172.416 32.3614C172.516 31.072 172.879 28.2946 173.309 25.1538L174.896 13.8799H178.997L174.896 38.4779H170.167L168.878 29.9809Z" fill="#0F1527"/>
<path d="M189.374 24.7241C190.134 27.1046 190.532 28.4933 190.895 29.9147C190.796 28.4933 190.73 27.1046 190.73 23.4017V13.8799H194.533V38.4779H190.73L186.762 26.8732C186.129 25.1428 185.599 23.3765 185.175 21.5834C185.306 22.9389 185.406 24.7242 185.406 28.1957V38.4779H181.57V13.8799H185.868L189.374 24.7241Z" fill="#0F1527"/>
<path d="M85.0207 43.2666V54.6773H83.1066V53.7427C82.96 54.0489 82.7288 54.3068 82.4402 54.4858C82.1517 54.6648 81.8179 54.7574 81.4783 54.7527H81.4478C80.2868 54.7527 79.5781 53.9235 79.5781 52.5971V48.4367C79.5781 47.2157 80.1813 46.3865 81.3423 46.3865H81.3877C81.7269 46.3717 82.0641 46.4461 82.3657 46.6021C82.6672 46.7581 82.9227 46.9904 83.1066 47.2758V43.2666H85.0207ZM83.1066 52.1749V48.9491C83.1066 48.2859 82.8799 47.8942 82.2924 47.8942C81.7494 47.8942 81.508 48.2859 81.508 48.9491V52.1749C81.508 52.8834 81.7642 53.2303 82.2924 53.2303C82.8799 53.2302 83.1066 52.8385 83.1066 52.1749Z" fill="#AFAFAF"/>
<path d="M88.5314 45.6178H86.6172V43.7036H88.5314V45.6178ZM88.5314 54.6773H86.6172V46.447H88.5314V54.6773Z" fill="#AFAFAF"/>
<path d="M92.558 57.6464C90.6884 57.6464 90.1305 56.9532 90.1305 55.6869V55.2647H91.9845V55.4002C91.9845 55.9279 92.1353 56.1841 92.7533 56.1841H92.8143C93.4166 56.1841 93.5979 55.9279 93.5979 55.3701V53.7723C93.4279 54.0688 93.1818 54.3146 92.885 54.4842C92.5881 54.6538 92.2514 54.7411 91.9095 54.737C90.7485 54.737 90.0547 53.9082 90.0547 52.506V48.7678C90.0547 47.2453 90.5977 46.386 91.8642 46.386C92.2167 46.3802 92.5646 46.4661 92.8738 46.6352C93.1831 46.8043 93.4431 47.0509 93.6284 47.3507V46.4466H95.5425V55.5061C95.5425 56.7118 94.9246 57.6464 92.9799 57.6464H92.558ZM93.5979 52.1744V48.9639C93.5979 48.2553 93.3111 47.9085 92.7532 47.9085C92.2407 47.9085 91.9844 48.2554 91.9844 48.9639V52.1897C91.9844 52.838 92.2259 53.245 92.7837 53.245C93.3111 53.245 93.5979 52.8228 93.5979 52.1744L93.5979 52.1744Z" fill="#AFAFAF"/>
<path d="M99.0626 45.6178H97.1484V43.7036H99.0626V45.6178ZM99.0626 54.6773H97.1484V46.447H99.0626V54.6773Z" fill="#AFAFAF"/>
<path d="M102.724 54.6772C102.552 54.7012 102.378 54.6856 102.214 54.6317C102.049 54.5778 101.899 54.4869 101.776 54.3662C101.652 54.2454 101.558 54.0978 101.5 53.9349C101.442 53.772 101.422 53.5979 101.442 53.4262V48.0596H100.191V46.447H101.442V43.7637H103.342V46.447H104.729V48.0596H103.342V52.6271C103.342 52.9439 103.403 53.0641 103.749 53.0641H104.729V54.6772H102.724Z" fill="#AFAFAF"/>
<path d="M105.727 51.9035C105.693 51.4587 105.814 51.0159 106.07 50.6503C106.326 50.2848 106.7 50.0192 107.13 49.8986L108.818 49.1147C108.916 49.0822 108.999 49.0156 109.051 48.927C109.104 48.8384 109.123 48.7338 109.105 48.6324V48.5722C109.105 48.0293 108.924 47.7578 108.336 47.7578H108.306C107.763 47.7578 107.566 48.0445 107.566 48.587V49.1448H105.833V48.3609C105.833 47.2005 106.33 46.2959 108.185 46.2959H108.426C110.296 46.2959 110.929 47.0345 110.929 48.3609V52.5514C110.929 52.8983 111.004 53.0037 111.366 53.0037H111.593V54.6769H110.054C109.467 54.6769 109.225 54.2852 109.15 53.7423C108.976 54.0341 108.732 54.278 108.439 54.4516C108.147 54.6253 107.816 54.7235 107.477 54.7371H107.431C107.191 54.7349 106.954 54.6827 106.736 54.5839C106.517 54.4851 106.321 54.3418 106.161 54.1631C106 53.9845 105.879 53.7744 105.804 53.5463C105.73 53.3181 105.703 53.077 105.727 52.8381V51.9035ZM109.105 50.4564C108.909 50.5766 108.351 50.8934 108.109 51.0594C107.936 51.1533 107.795 51.2966 107.704 51.4711C107.613 51.6455 107.575 51.8433 107.597 52.039V52.4459C107.597 52.9736 107.838 53.2751 108.306 53.2751C108.419 53.2735 108.531 53.2482 108.635 53.2007C108.738 53.1532 108.83 53.0847 108.905 52.9996C108.981 52.9144 109.037 52.8145 109.072 52.7061C109.106 52.5978 109.117 52.4835 109.105 52.3705V50.4564Z" fill="#AFAFAF"/>
<path d="M114.547 54.6773H112.633V43.2666H114.547V54.6773Z" fill="#AFAFAF"/>
<path d="M120.492 54.828C118.637 54.828 118.094 53.9086 118.094 52.8079V51.7831H119.874V52.5517C119.874 53.0794 120.085 53.3809 120.642 53.3809C120.746 53.3943 120.851 53.3835 120.95 53.3494C121.048 53.3153 121.138 53.2587 121.211 53.1842C121.284 53.1097 121.339 53.0193 121.371 52.9201C121.403 52.8208 121.412 52.7155 121.396 52.6123V52.597C121.396 52.1147 121.23 51.9038 120.748 51.587L119.511 50.7429C119.099 50.5208 118.755 50.1896 118.519 49.7855C118.282 49.3814 118.161 48.92 118.17 48.4518V48.3764C118.17 47.1254 118.818 46.311 120.552 46.311H120.839C122.632 46.311 123.16 47.0196 123.16 48.2257V48.9943H121.441V48.4666C121.441 47.8788 121.215 47.698 120.672 47.698C120.22 47.698 119.994 47.909 119.994 48.3311C119.997 48.5182 120.05 48.701 120.148 48.8602C120.246 49.0195 120.386 49.1492 120.552 49.2357L121.984 50.2606C122.392 50.4903 122.728 50.8292 122.954 51.2392C123.181 51.6491 123.288 52.1141 123.265 52.5818V52.6572C123.265 53.818 122.632 54.828 120.793 54.828H120.492Z" fill="#AFAFAF"/>
<path d="M126.536 54.6772C126.365 54.7012 126.19 54.6856 126.026 54.6317C125.862 54.5778 125.712 54.4869 125.588 54.3662C125.464 54.2454 125.37 54.0978 125.312 53.9349C125.254 53.772 125.235 53.5979 125.255 53.4262V48.0596H124.004V46.447H125.255V43.7637H127.155V46.447H128.542V48.0596H127.155V52.6271C127.155 52.9439 127.215 53.0641 127.562 53.0641H128.542V54.6772H126.536Z" fill="#AFAFAF"/>
<path d="M135.15 54.6775H133.28V53.7128C133.098 54.0126 132.844 54.2629 132.541 54.4416C132.239 54.6204 131.898 54.722 131.547 54.7377H131.456C131.233 54.7442 131.011 54.7049 130.804 54.6222C130.597 54.5395 130.41 54.4151 130.253 54.2568C130.096 54.0985 129.973 53.9097 129.892 53.7021C129.811 53.4944 129.774 53.2723 129.782 53.0496V46.4473H131.712V52.3563C131.712 52.9441 131.984 53.2605 132.451 53.2605C132.979 53.2605 133.235 52.9441 133.235 52.2958V46.4473H135.15V54.6775Z" fill="#AFAFAF"/>
<path d="M142.114 43.2666V54.6773H140.2V53.7427C140.054 54.0489 139.823 54.3068 139.534 54.4858C139.245 54.6648 138.912 54.7574 138.572 54.7527H138.542C137.381 54.7527 136.672 53.9235 136.672 52.5971V48.4367C136.672 47.2157 137.275 46.3865 138.436 46.3865H138.481C138.821 46.3717 139.158 46.4461 139.459 46.6021C139.761 46.7581 140.016 46.9904 140.2 47.2758V43.2666H142.114ZM140.2 52.1749V48.9491C140.2 48.2859 139.974 47.8942 139.386 47.8942C138.843 47.8942 138.602 48.2859 138.602 48.9491V52.1749C138.602 52.8834 138.858 53.2303 139.386 53.2303C139.974 53.2302 140.2 52.8385 140.2 52.1749Z" fill="#AFAFAF"/>
<path d="M145.629 45.6178H143.715V43.7036H145.629V45.6178ZM145.629 54.6773H143.715V46.447H145.629V54.6773Z" fill="#AFAFAF"/>
<path d="M149.734 54.828C147.879 54.828 147.141 53.8332 147.141 52.3408V48.7834C147.141 47.261 147.924 46.2962 149.734 46.2962H150.05C150.392 46.2498 150.741 46.2812 151.069 46.3882C151.398 46.4952 151.698 46.6749 151.947 46.914C152.196 47.1531 152.389 47.4454 152.509 47.7691C152.63 48.0928 152.675 48.4395 152.643 48.7834V52.3408C152.67 52.6835 152.621 53.028 152.499 53.3493C152.376 53.6706 152.184 53.9607 151.936 54.1987C151.688 54.4367 151.39 54.6166 151.064 54.7254C150.738 54.8343 150.392 54.8693 150.05 54.828H149.734ZM150.713 52.2654V48.8588C150.713 48.1804 150.442 47.8488 149.885 47.8488C149.342 47.8488 149.07 48.1804 149.07 48.8588V52.2654C149.07 52.9138 149.327 53.2755 149.885 53.2755C150.473 53.2755 150.713 52.8685 150.713 52.2654Z" fill="#AFAFAF"/>
<path d="M48.1587 43.7049L65.2881 2.12974L42.3662 20.3289L32.6447 0L22.9225 20.329L0 2.12949L17.1306 43.7049L24.6762 27.9263L32.5345 34.1657L20.7718 43.5049L32.6447 68.3307L44.5169 43.5049L32.7549 34.1657L40.6126 27.9263L48.1587 43.7049ZM53.6769 17.5541L47.8279 31.7489L44.5169 24.8262L53.6769 17.5541ZM17.4608 31.7489L11.6125 17.5544L20.7718 24.8262L17.4608 31.7489ZM32.6447 57.0662L26.8269 44.9028L32.6447 40.2841L38.4618 44.9028L32.6447 57.0662ZM32.6447 28.0478L26.8269 23.4289L32.6447 11.2652L38.4618 23.4289L32.6447 28.0478Z" fill="#FAAF3B"/>
</svg>
