<svg width="206" height="59" viewBox="0 0 206 59" fill="none" xmlns="http://www.w3.org/2000/svg">
<path d="M0 8.00491L33.7105 59.0002L67.426 8.00492H45.6343C45.5318 7.7559 45.4146 7.51186 45.2876 7.27266C45.2201 7.13935 45.1381 7.01533 45.066 6.88487C44.9906 6.74848 44.9143 6.61293 44.8343 6.47955C44.7409 6.32472 44.6476 6.17058 44.5479 6.02021C44.386 5.77434 44.2161 5.53454 44.0379 5.30078C44.0088 5.26267 43.9841 5.22102 43.9546 5.18322C43.8472 5.0416 43.73 4.90491 43.6128 4.76822C43.3496 4.46217 43.081 4.16935 42.7876 3.88951C42.6461 3.74797 42.4996 3.61128 42.3482 3.47942C42.3091 3.44531 42.2701 3.4062 42.2309 3.37208C42.1919 3.33297 42.1529 3.29886 42.1138 3.26467C41.7492 2.95424 41.3678 2.66415 40.9712 2.39571C40.7857 2.27369 40.6001 2.15644 40.4097 2.03934C40.2193 1.92708 40.024 1.81967 39.8238 1.71225C39.5357 1.55112 39.2379 1.40958 38.9351 1.27773C38.7984 1.21918 38.6617 1.16063 38.525 1.10692C38.4029 1.05805 38.276 1.00926 38.1539 0.965305C37.9928 0.906755 37.8267 0.853046 37.6607 0.799336C37.5582 0.765146 37.4557 0.735875 37.3531 0.706596C37.2506 0.672406 37.148 0.643106 37.0455 0.618696C36.9137 0.584578 36.777 0.550387 36.6402 0.516197C36.6105 0.512015 36.5811 0.505489 36.5523 0.496678C36.2008 0.418569 35.8394 0.350228 35.4732 0.301431C35.4616 0.302593 35.4499 0.300907 35.439 0.296519C35.2437 0.277 35.0533 0.252569 34.858 0.23797C34.0964 0.164817 33.3296 0.164817 32.568 0.23797C32.3678 0.252569 32.1627 0.277 31.9674 0.301431C31.7673 0.330709 31.567 0.359988 31.3717 0.399018C31.2154 0.428289 31.0592 0.457648 30.9029 0.491758C30.865 0.497077 30.8274 0.505246 30.7907 0.516197C30.649 0.550387 30.5172 0.584578 30.3805 0.618696C30.278 0.643127 30.1754 0.672427 30.0728 0.706596C29.9703 0.735875 29.8678 0.765146 29.7652 0.799336C29.5992 0.853046 29.4332 0.906755 29.2721 0.965305C29.1304 1.01417 28.9937 1.06781 28.857 1.12643C28.7447 1.17038 28.6275 1.21918 28.5153 1.26805C28.4949 1.27406 28.4752 1.28223 28.4566 1.2924C28.1686 1.42418 27.8805 1.56088 27.6022 1.71225H27.5973C27.3971 1.81475 27.2067 1.92708 27.0162 2.03934C26.8307 2.15644 26.6451 2.2785 26.4596 2.40055C26.0606 2.66947 25.6774 2.96125 25.3121 3.27443C25.279 3.29777 25.248 3.32389 25.2193 3.35249C25.1998 3.36305 25.1831 3.37812 25.1706 3.39644C25.1413 3.42087 25.1119 3.45015 25.0826 3.47942C24.9313 3.61128 24.7848 3.74797 24.6383 3.88951C23.6258 4.87573 22.7828 6.02203 22.1433 7.28233C22.0211 7.51666 21.9089 7.7608 21.8014 8.00492L0 8.00491ZM39.022 15.6926L33.7203 24.7836L33.7155 24.7739L33.7083 24.7631L28.4193 15.7009C27.9912 15.0041 27.7214 14.2217 27.6289 13.4092C27.5365 12.5967 27.6237 11.7738 27.8843 10.9986C27.962 10.7865 28.052 10.579 28.154 10.3774C28.1589 10.3677 28.1687 10.3627 28.1687 10.3579C28.3865 9.92132 28.6571 9.51309 28.9743 9.14233C28.9743 9.1375 28.9743 9.1375 28.9792 9.13257C29.1505 8.93145 29.335 8.74188 29.5313 8.56512L29.5691 8.53147C29.7656 8.35599 29.973 8.19315 30.1901 8.04394C30.2084 8.0292 30.2281 8.01614 30.2487 8.00491C30.3366 7.94628 30.4245 7.88773 30.5173 7.83402C30.6051 7.78031 30.693 7.73152 30.7858 7.6778C30.795 7.66893 30.8072 7.66371 30.82 7.66312C30.903 7.61917 30.9909 7.5753 31.0788 7.53135C31.1737 7.48315 31.2716 7.44077 31.3717 7.40442C31.4303 7.37998 31.4841 7.36047 31.5426 7.33611C31.6061 7.31167 31.6744 7.28724 31.7428 7.26772C31.8029 7.24306 31.865 7.22347 31.9283 7.20917C31.9513 7.19811 31.9762 7.19147 32.0016 7.18958C32.1027 7.1568 32.2054 7.1291 32.3093 7.10659C32.4526 7.07144 32.5976 7.04375 32.7438 7.02365C32.7629 7.01805 32.7826 7.01478 32.8024 7.01389C32.9342 6.99437 33.0661 6.9797 33.2028 6.96994C33.2351 6.96429 33.2677 6.96103 33.3004 6.96018C33.4226 6.95042 33.5494 6.94551 33.6764 6.94551H33.7106C33.8851 6.94379 34.0595 6.95195 34.233 6.96994C34.3649 6.9797 34.4968 6.99435 34.6286 7.01389C34.6516 7.0151 34.6745 7.01836 34.6969 7.02365C34.8385 7.04317 34.9801 7.07244 35.1218 7.10659C35.2195 7.1258 35.3157 7.1519 35.4098 7.1847C35.4397 7.19051 35.4691 7.19868 35.4977 7.20913C35.5609 7.22415 35.6229 7.24372 35.6832 7.26768C35.7514 7.28606 35.8183 7.3089 35.8834 7.33607C35.942 7.3546 35.9991 7.37743 36.0543 7.40438C36.152 7.44341 36.2496 7.48736 36.3473 7.53131C36.436 7.57035 36.5224 7.61434 36.6061 7.66308C36.6178 7.66709 36.6293 7.67199 36.6403 7.67776C36.7325 7.72507 36.8221 7.77722 36.9088 7.83398C37.0054 7.88445 37.0984 7.94155 37.1871 8.00487C37.2018 8.01453 37.2213 8.02438 37.2408 8.03898C37.3824 8.13664 37.524 8.24406 37.6607 8.35632C37.9448 8.58659 38.2064 8.84322 38.442 9.12277C38.4518 9.1276 38.4518 9.1276 38.4518 9.13253C38.7842 9.51562 39.0649 9.94071 39.2867 10.3969C39.2964 10.4018 39.2964 10.4116 39.3062 10.4213C39.403 10.6154 39.4887 10.8148 39.563 11.0186C39.8199 11.7899 39.9045 12.608 39.8111 13.4156C39.7176 14.2231 39.4482 15.0003 39.022 15.6926ZM29.9459 41.8992L48.1879 14.2927H55.7269L33.7105 47.5913L29.9459 41.8992ZM26.1716 36.1924L11.6991 14.2927H19.2381L29.941 30.4904L26.1716 36.1924Z" fill="#0F1527"/>
<path d="M102.297 13.1006V32.6277H97.6095V21.6925L91.8105 25.3876L86.1916 21.7227V32.6277H81.5039V13.1006L91.8702 19.8001L102.297 13.1006Z" fill="#0F1527"/>
<path d="M113.541 16.8862V21.1822C110.295 21.1822 108.313 23.7961 108.313 25.7785V32.6282H104.105V17.1567H108.313V19.4698C109.003 17.5472 110.416 16.8862 113.541 16.8862Z" fill="#0F1527"/>
<path d="M114.895 32.6278V28.4219H119.102V32.6278H114.895Z" fill="#0F1527"/>
<path d="M131.423 32.6277V32.5978L131.393 32.6277V32.5978L120.906 13.1006H126.315L131.423 22.8343L136.501 13.1006H141.91L131.423 32.5978V32.6277Z" fill="#0F1527"/>
<path d="M153.838 26.3196L142.539 26.2894C142.707 26.7999 143.008 27.2564 143.411 27.6113C144.134 28.3185 145.104 28.7171 146.116 28.7228C147.13 28.7036 148.098 28.2949 148.82 27.5814C148.85 27.5511 148.91 27.4913 148.94 27.4611L152.846 28.6929C151.223 31.1861 149.511 32.5984 146.146 32.6283C144.615 32.6372 143.117 32.1922 141.839 31.3496C140.562 30.507 139.563 29.3046 138.97 27.8945C138.376 26.4844 138.213 24.9299 138.503 23.4276C138.793 21.9253 139.522 20.5426 140.598 19.4544C141.674 18.3663 143.048 17.6215 144.547 17.3143C146.046 17.0071 147.603 17.1512 149.02 17.7285C150.437 18.3058 151.651 19.2902 152.509 20.5574C153.366 21.8246 153.829 23.3176 153.838 24.8476C153.838 25.0579 153.868 26.1093 153.838 26.3196ZM143.381 22.2038C143.033 22.5688 142.758 22.9971 142.57 23.4655H149.631C149.437 22.9845 149.151 22.5458 148.79 22.1739C148.062 21.4772 147.093 21.0895 146.085 21.0923C145.583 21.0896 145.086 21.1864 144.622 21.3772C144.158 21.568 143.736 21.8489 143.381 22.2038Z" fill="#0F1527"/>
<path d="M167.633 30.7658C166.206 31.9758 164.395 32.6364 162.524 32.6283C161.508 32.6224 160.503 32.4164 159.567 32.0221C158.63 31.6279 157.781 31.0531 157.066 30.3306C156.352 29.6081 155.787 28.752 155.404 27.8111C155.02 26.8703 154.826 25.8632 154.832 24.8474C154.838 23.8315 155.044 22.8267 155.438 21.8905C155.833 20.9542 156.408 20.1048 157.13 19.3906C157.853 18.6765 158.709 18.1117 159.65 17.7284C160.591 17.3451 161.599 17.1509 162.615 17.1569C164.471 17.1841 166.259 17.8649 167.663 19.0795L164.868 21.8432C164.207 21.3558 163.406 21.0927 162.585 21.0923C161.577 21.0895 160.608 21.4772 159.88 22.1739C159.525 22.5286 159.244 22.9502 159.053 23.4143C158.862 23.8784 158.766 24.3757 158.769 24.8774C158.753 25.3782 158.842 25.8768 159.028 26.342C159.214 26.8072 159.494 27.2291 159.85 27.5814C160.571 28.2947 161.54 28.7034 162.554 28.7228C163.376 28.7226 164.176 28.4594 164.838 27.9718L167.633 30.7658Z" fill="#0F1527"/>
<path d="M179.116 21.3619H175.661V32.6274H171.455V21.3619H167.969V17.156H171.455V11.7485H175.661V17.156H179.116L179.116 21.3619Z" fill="#0F1527"/>
<path d="M194.891 24.8475C194.897 26.3746 194.449 27.8692 193.606 29.1422C192.762 30.4153 191.56 31.4097 190.151 31.9996C188.742 32.5895 187.19 32.7485 185.691 32.4565C184.192 32.1644 182.813 31.4345 181.729 30.3589C180.644 29.2833 179.904 27.9104 179.6 26.4138C179.296 24.9173 179.443 23.3642 180.022 21.9511C180.601 20.538 181.586 19.3282 182.852 18.4748C184.119 17.6215 185.61 17.1628 187.138 17.1568C188.152 17.1525 189.157 17.3481 190.096 17.7323C191.034 18.1166 191.888 18.6819 192.608 19.3961C193.328 20.1103 193.9 20.9594 194.292 21.8948C194.683 22.8301 194.887 23.8335 194.891 24.8475ZM190.984 24.8774C190.981 24.3738 190.879 23.8758 190.683 23.4118C190.487 22.9478 190.202 22.5271 189.843 22.1738C189.115 21.4771 188.145 21.0894 187.138 21.0922C186.64 21.0896 186.147 21.1866 185.688 21.3775C185.229 21.5684 184.813 21.8493 184.464 22.2037C184.109 22.5598 183.828 22.9825 183.637 23.4476C183.446 23.9128 183.349 24.411 183.352 24.9137C183.355 25.4164 183.457 25.9135 183.653 26.3765C183.849 26.8395 184.135 27.2591 184.493 27.6112C185.031 28.1388 185.712 28.4958 186.451 28.6372C187.191 28.7785 187.956 28.698 188.649 28.4058C189.343 28.1135 189.935 27.6226 190.351 26.9947C190.766 26.3669 190.986 25.6302 190.984 24.8774V24.8774Z" fill="#0F1527"/>
<path d="M205.56 16.8862V21.1822C202.315 21.1822 200.332 23.7961 200.332 25.7785V32.6282H196.125V17.1567H200.332V19.4698C201.023 17.5472 202.435 16.8862 205.56 16.8862Z" fill="#0F1527"/>
<path d="M86.6627 46.5028C86.0124 47.0546 85.1863 47.3558 84.3334 47.3521C83.3981 47.346 82.5035 46.9688 81.8462 46.3034C81.1889 45.638 80.8228 44.739 80.8282 43.8038C80.8336 42.8687 81.2102 41.9739 81.8751 41.3163C82.5401 40.6586 83.439 40.2918 84.3743 40.2964C85.2209 40.3091 86.036 40.6195 86.6764 41.1732L85.4019 42.4338C85.1002 42.2115 84.7353 42.0915 84.3605 42.0913C83.9012 42.0901 83.4592 42.2668 83.1273 42.5844C82.9655 42.7462 82.8374 42.9385 82.7504 43.1501C82.6633 43.3618 82.6192 43.5886 82.6204 43.8174C82.6134 44.0458 82.6536 44.2731 82.7385 44.4853C82.8233 44.6974 82.951 44.8898 83.1135 45.0504C83.4426 45.3756 83.8841 45.562 84.3468 45.571C84.7216 45.571 85.0865 45.451 85.3881 45.2285L86.6627 46.5028Z" fill="#AFAFAF"/>
<path d="M94.1743 44.4752L89.0218 44.4615C89.098 44.6944 89.2354 44.9026 89.4198 45.0642C89.7493 45.3866 90.1913 45.5683 90.6523 45.571C91.115 45.5622 91.5566 45.3758 91.8856 45.0504C91.8997 45.0367 91.9272 45.0096 91.9406 44.9958L93.7221 45.5573C93.4354 46.1154 92.996 46.5805 92.4549 46.8983C91.9139 47.2161 91.2936 47.3735 90.6664 47.3522C89.9686 47.3562 89.2851 47.1533 88.7026 46.7691C88.1201 46.3848 87.6646 45.8365 87.3937 45.1934C87.1229 44.5504 87.0489 43.8414 87.181 43.1563C87.3132 42.4712 87.6455 41.8406 88.1361 41.3443C88.6267 40.8481 89.2535 40.5084 89.9371 40.3683C90.6208 40.2281 91.3307 40.2938 91.977 40.5571C92.6233 40.8203 93.1771 41.2693 93.5682 41.8472C93.9593 42.4251 94.1702 43.1059 94.1743 43.8037C94.1743 43.8996 94.1877 44.3793 94.1743 44.4752ZM89.4056 42.5982C89.2465 42.7645 89.121 42.9599 89.036 43.1738H92.256C92.1674 42.9543 92.037 42.7542 91.8721 42.5844C91.5402 42.2669 91.0982 42.0902 90.6389 42.0913C90.41 42.0901 90.1832 42.1343 89.9715 42.2213C89.7598 42.3083 89.5675 42.4364 89.4056 42.5982Z" fill="#AFAFAF"/>
<path d="M99.0406 40.1733V42.1326C98.451 42.1129 97.8762 42.3188 97.4332 42.7083C96.9902 43.0978 96.7125 43.6415 96.6566 44.2286V47.3521H94.7383V40.2964H96.6566V41.3513C96.9712 40.4745 97.6154 40.1733 99.0406 40.1733Z" fill="#AFAFAF"/>
<path d="M104.743 42.2146H103.168V47.3519H101.25V42.2146H99.6602V40.2962H101.25V37.8306H103.168V40.2962H104.743L104.743 42.2146Z" fill="#AFAFAF"/>
<path d="M107.471 39.4191H105.566V37.8027H107.471V39.4191ZM107.485 47.3516H105.566V40.3097H107.485V47.3516Z" fill="#AFAFAF"/>
<path d="M111.46 40.4741V41.2278H112.871V43.1458H111.46V47.3516H109.542V43.132H108.309V41.2278H109.542V39.707C109.542 39.4557 109.591 39.2069 109.688 38.9749C109.784 38.7429 109.926 38.5323 110.104 38.3553C110.283 38.1783 110.494 38.0383 110.727 37.9435C110.96 37.8486 111.209 37.8008 111.46 37.8028H112.871V39.707H112.214C112.012 39.7095 111.82 39.7915 111.679 39.9352C111.538 40.079 111.459 40.2727 111.46 40.4741Z" fill="#AFAFAF"/>
<path d="M115.599 39.4191H113.695V37.8027H115.599V39.4191ZM115.614 47.3516H113.695V40.3097H115.614V47.3516Z" fill="#AFAFAF"/>
<path d="M123.237 44.4752L118.084 44.4615C118.161 44.6944 118.298 44.9026 118.482 45.0642C118.812 45.3866 119.254 45.5683 119.715 45.571C120.177 45.5622 120.619 45.3758 120.948 45.0504C120.962 45.0367 120.99 45.0096 121.003 44.9958L122.785 45.5573C122.498 46.1154 122.058 46.5805 121.517 46.8983C120.976 47.2161 120.356 47.3735 119.729 47.3522C119.031 47.3562 118.348 47.1533 117.765 46.7691C117.183 46.3848 116.727 45.8365 116.456 45.1934C116.185 44.5504 116.111 43.8414 116.244 43.1563C116.376 42.4712 116.708 41.8406 117.199 41.3443C117.689 40.8481 118.316 40.5084 119 40.3683C119.683 40.2281 120.393 40.2938 121.04 40.5571C121.686 40.8203 122.24 41.2693 122.631 41.8472C123.022 42.425 123.233 43.1059 123.237 43.8037C123.237 43.8996 123.25 44.3793 123.237 44.4752ZM118.468 42.5982C118.309 42.7645 118.183 42.9599 118.098 43.1738H121.318C121.23 42.9543 121.1 42.7542 120.935 42.5844C120.603 42.2669 120.161 42.0902 119.701 42.0913C119.473 42.0901 119.246 42.1343 119.034 42.2213C118.822 42.3083 118.63 42.4364 118.468 42.5982Z" fill="#AFAFAF"/>
<path d="M129.47 47.3517V46.5433C128.955 46.9732 128.328 47.2474 127.662 47.334C126.997 47.4205 126.32 47.3159 125.712 47.0322C125.104 46.7485 124.589 46.2976 124.228 45.7321C123.866 45.1666 123.674 44.51 123.672 43.839C123.67 43.1679 123.86 42.5103 124.218 41.943C124.576 41.3756 125.089 40.922 125.695 40.6351C126.302 40.3483 126.978 40.2401 127.644 40.3232C128.31 40.4063 128.939 40.6773 129.456 41.1044V37.7891H131.374L131.389 47.3517L129.47 47.3517ZM128.963 43.817C128.954 43.3544 128.768 42.9129 128.442 42.584C128.11 42.2665 127.668 42.0897 127.209 42.0909C126.748 42.0927 126.306 42.2777 125.981 42.6052C125.655 42.9328 125.474 43.376 125.476 43.8375C125.477 44.2989 125.662 44.7407 125.99 45.0657C126.318 45.3908 126.761 45.5724 127.222 45.5706C127.685 45.5618 128.127 45.3754 128.456 45.05C128.618 44.8884 128.746 44.6961 128.833 44.4844C128.92 44.2728 128.964 44.0459 128.963 43.817Z" fill="#AFAFAF"/>
<path d="M137.7 47.3519H135.781V37.8306H137.7V47.3519Z" fill="#AFAFAF"/>
<path d="M145.51 40.2689V47.3517H143.592V46.5571C143.372 46.8105 143.097 47.0111 142.789 47.1439C142.48 47.2767 142.146 47.3383 141.811 47.3242C140.875 47.3296 139.975 46.9631 139.31 46.3054C138.644 45.6477 138.267 44.7525 138.262 43.8169C138.256 42.8814 138.623 41.9819 139.281 41.3165C139.939 40.6511 140.834 40.2743 141.77 40.2689C142.112 40.2575 142.453 40.3216 142.768 40.4566C143.083 40.5915 143.364 40.794 143.592 41.0497V40.2689H145.51ZM143.524 43.7898C143.525 43.5597 143.48 43.3316 143.391 43.1196C143.301 42.9075 143.169 42.716 143.003 42.5568C142.844 42.3955 142.654 42.2685 142.444 42.1836C142.234 42.0987 142.009 42.0578 141.783 42.0633C141.44 42.0646 141.105 42.1675 140.82 42.3591C140.536 42.5508 140.314 42.8224 140.184 43.1398C140.054 43.4572 140.021 43.8061 140.09 44.1423C140.158 44.4784 140.324 44.7868 140.568 45.0284C140.811 45.27 141.121 45.4339 141.458 45.4994C141.795 45.565 142.143 45.5292 142.46 45.3966C142.776 45.264 143.046 45.0406 143.235 44.7546C143.425 44.4686 143.525 44.1328 143.524 43.7898V43.7898Z" fill="#AFAFAF"/>
<path d="M156.16 40.2007L152.323 47.3519L152.31 47.3382L151.076 45.0365L149.829 47.3519V47.3382L145.992 40.2007H147.966L149.829 43.7763L150.103 43.242L148.472 40.2007H150.445L152.323 43.7763L154.186 40.2007H156.16Z" fill="#AFAFAF"/>
<path d="M160.509 47.6667C160.217 48.3755 159.719 48.9797 159.078 49.4002C158.437 49.8208 157.685 50.038 156.918 50.0235V48.1051C157.212 48.1151 157.503 48.054 157.768 47.927C158.16 47.7531 158.48 47.448 158.672 47.064L159.056 46.0091L156.645 40.2827H158.755L160.029 43.3649L161.166 40.2827H163.29L160.509 47.6667Z" fill="#AFAFAF"/>
<path d="M170.131 44.4752L164.979 44.4615C165.055 44.6944 165.193 44.9026 165.377 45.0642C165.706 45.3866 166.148 45.5683 166.609 45.571C167.072 45.5622 167.514 45.3758 167.843 45.0504C167.857 45.0367 167.884 45.0096 167.898 44.9958L169.679 45.5573C169.393 46.1154 168.953 46.5805 168.412 46.8983C167.871 47.2161 167.251 47.3735 166.624 47.3522C165.926 47.3562 165.242 47.1533 164.66 46.7691C164.077 46.3848 163.622 45.8365 163.351 45.1934C163.08 44.5504 163.006 43.8414 163.138 43.1563C163.27 42.4712 163.603 41.8406 164.093 41.3443C164.584 40.8481 165.211 40.5084 165.894 40.3683C166.578 40.2281 167.288 40.2938 167.934 40.5571C168.58 40.8203 169.134 41.2693 169.525 41.8472C169.916 42.4251 170.127 43.1059 170.131 43.8037C170.131 43.8996 170.145 44.3793 170.131 44.4752ZM165.363 42.5982C165.204 42.7645 165.078 42.9599 164.993 43.1738H168.213C168.125 42.9543 167.994 42.7542 167.829 42.5844C167.497 42.2669 167.055 42.0902 166.596 42.0913C166.367 42.0901 166.14 42.1343 165.929 42.2213C165.717 42.3083 165.525 42.4364 165.363 42.5982Z" fill="#AFAFAF"/>
<path d="M174.998 40.1733V42.1326C174.408 42.1129 173.833 42.3188 173.39 42.7083C172.947 43.0978 172.669 43.6415 172.614 44.2286V47.3521H170.695V40.2964H172.614V41.3513C172.928 40.4745 173.572 40.1733 174.998 40.1733Z" fill="#AFAFAF"/>
</svg>
