<svg width="215" height="71" viewBox="0 0 215 71" fill="none" xmlns="http://www.w3.org/2000/svg">
<path d="M68.9297 31.4409V17.9688H78.3669V19.7682H71.4106V23.5619H77.4912V25.41H71.4106V29.6413H78.4641V31.4408L68.9297 31.4409Z" fill="#666666"/>
<path d="M100.552 31.4409V20.5465H100.504L95.5418 25.6532L90.58 20.5465H90.4827V31.4409H87.9531V17.9688H90.8718L95.4931 22.8323L100.066 17.9688H102.985V31.4409H100.552Z" fill="#666666"/>
<path d="M118.206 26.1395H115.92V31.4409H113.391V17.9688H117.963C121.271 17.9688 123.46 19.0874 123.46 22.0541C123.46 24.875 121.174 26.1395 118.206 26.1395ZM117.963 19.7682H115.871V24.3887H117.866C119.179 24.3887 120.882 23.9023 120.882 22.0541C120.931 20.4005 119.374 19.7682 117.963 19.7682Z" fill="#666666"/>
<path d="M132.898 31.4409V17.9688H135.428V31.4409H132.898Z" fill="#666666"/>
<path d="M153.818 31.4409L149.829 25.8964H148.369V31.4409H145.84V17.9688H150.364C153.234 17.9688 155.715 18.9901 155.715 21.9082C155.676 22.8306 155.305 23.708 154.671 24.3784C154.036 25.0489 153.18 25.4671 152.261 25.5559L156.785 31.4409H153.818ZM150.315 19.7682H148.369V24.1941H150.072C152.115 24.1941 153.185 23.4159 153.185 22.0055C153.185 20.5951 152.164 19.7682 150.315 19.7682Z" fill="#666666"/>
<path d="M165.883 31.4409V17.9688H175.32V19.7682H168.364V23.5619H174.444V25.41H168.364V29.6413H175.417V31.4408L165.883 31.4409Z" fill="#666666"/>
<path d="M78.4183 39.6607C79.2497 39.6409 80.081 39.7061 80.8992 39.8552C81.5802 39.9525 82.2126 40.0984 82.7964 40.1957C82.9879 40.2441 83.1832 40.2766 83.3801 40.2929C83.5145 40.3022 83.6463 40.3352 83.7693 40.3902C83.8179 40.3902 83.8666 40.4389 83.9638 40.5361C84.0611 40.6334 84.0611 40.7793 84.0611 40.9738C84.0931 41.3837 84.1582 41.7904 84.2557 42.1898C84.3502 42.6869 84.399 43.1915 84.4016 43.6975C84.4016 44.038 84.3043 44.2325 84.0611 44.2325C83.9152 44.2325 83.7693 44.0379 83.5747 43.6489C83.3498 43.0153 83.021 42.4235 82.6018 41.8979C82.4176 41.7086 82.2226 41.53 82.018 41.363C81.7318 41.1623 81.4212 40.9989 81.0938 40.8766C80.7008 40.7109 80.2938 40.5807 79.8776 40.4875C79.3979 40.3859 78.9086 40.3371 78.4183 40.3416C77.3931 40.315 76.3762 40.5317 75.4509 40.9739C74.6001 41.3669 73.8386 41.9296 73.2133 42.6275C72.6034 43.3305 72.1255 44.1379 71.8025 45.0107C71.4683 45.913 71.3033 46.8693 71.3161 47.8315C71.2601 49.4204 71.6656 50.9913 72.4836 52.3546C73.1427 53.461 74.1049 54.3555 75.2563 54.9324C76.3541 55.5009 77.5712 55.801 78.8075 55.8078C78.9387 55.808 79.0695 55.7916 79.1966 55.7591C79.41 55.747 79.6218 55.7145 79.829 55.6619C80.0619 55.6197 80.29 55.5545 80.51 55.4674C80.7333 55.3999 80.9462 55.3016 81.1424 55.1755C81.2025 55.1201 81.252 55.0542 81.2884 54.981C81.337 54.8837 81.4343 54.7378 81.4829 54.6405C81.5316 54.4946 81.5802 54.3974 81.6289 54.2515C81.6657 54.1419 81.6822 54.0265 81.6775 53.911V52.4033C81.6874 52.1752 81.671 51.9467 81.6289 51.7224C81.6289 51.5278 81.6289 51.382 81.5802 51.3333C81.5397 51.2007 81.4909 51.0708 81.4343 50.9442C81.3603 50.7971 81.2409 50.6777 81.0938 50.6038C80.8852 50.4781 80.6537 50.3955 80.4127 50.3606C80.0335 50.2516 79.6397 50.2023 79.2453 50.2147C79.0718 50.2186 78.9015 50.1676 78.7588 50.0688C78.7037 50.0414 78.6567 50.0001 78.6226 49.9489C78.5884 49.8977 78.5683 49.8384 78.5642 49.777C78.5642 49.6797 78.6129 49.631 78.7588 49.5338C78.9401 49.4462 79.1427 49.4125 79.3426 49.4365H79.9263C80.219 49.4297 80.5118 49.446 80.8019 49.4851C81.0938 49.4851 81.4343 49.5338 81.7262 49.5338H82.4558C82.8132 49.5397 83.1707 49.5235 83.526 49.4851C83.9463 49.4437 84.3686 49.4274 84.7908 49.4365C84.9579 49.4353 85.1235 49.4684 85.2773 49.5338C85.3326 49.546 85.382 49.5768 85.4174 49.6211C85.4528 49.6653 85.472 49.7203 85.4718 49.777C85.4718 49.8742 85.4232 49.9229 85.2773 50.0202C85.1459 50.1137 84.997 50.1799 84.8394 50.2147C84.559 50.2574 84.3015 50.3947 84.1098 50.6038C84.0258 50.723 83.9602 50.8541 83.9152 50.9928C83.8666 51.0415 83.8665 51.1874 83.8665 51.4305C83.8719 51.707 83.8557 51.9835 83.8179 52.2574C83.8179 52.5492 83.7693 52.8897 83.7693 53.2301V54.1056C83.7653 54.279 83.8164 54.4493 83.9152 54.5919C83.9695 54.6959 84.0544 54.7808 84.1584 54.835C84.4016 54.981 84.5476 55.0782 84.5476 55.1269C84.5962 55.1755 84.5962 55.2242 84.5962 55.3214C84.5962 55.3701 84.5476 55.4187 84.4989 55.5159C84.4701 55.5664 84.427 55.6071 84.3751 55.6331C84.3232 55.6591 84.2647 55.6691 84.2071 55.6619C83.9638 55.7105 83.6233 55.8078 83.2342 55.9051C82.7964 56.0023 82.3586 56.0996 81.8721 56.2455C81.5706 56.3384 81.2612 56.4035 80.9479 56.44C80.6073 56.4887 80.2668 56.5373 79.975 56.586C79.6344 56.6346 79.3425 56.6346 79.0507 56.6832C78.7588 56.6832 78.5156 56.7319 78.2724 56.7319C76.916 56.7553 75.5661 56.5413 74.2835 56.0996C72.7495 55.6399 71.392 54.7238 70.3919 53.4732C70.0339 53.0653 69.7388 52.6064 69.5163 52.1114C69.2395 51.5707 69.0272 50.9994 68.8838 50.4092C68.7253 49.7398 68.6437 49.0545 68.6406 48.3665C68.6555 47.2309 68.8866 46.1085 69.3217 45.0593C69.826 43.8962 70.6117 42.8767 71.608 42.0925C72.5039 41.3618 73.5261 40.8013 74.624 40.4389C75.8172 39.907 77.112 39.6415 78.4183 39.6607Z" fill="#333333"/>
<path d="M97.7259 39.6602C97.7746 39.6602 97.8232 39.7088 97.8718 39.7574C97.9703 39.9273 98.0518 40.1065 98.115 40.2924C98.244 40.7417 98.4066 41.1807 98.6015 41.6056C98.7961 42.1406 99.0393 42.7242 99.2826 43.4051C99.6231 44.3292 99.9636 45.3019 100.353 46.2746C100.742 47.296 101.131 48.2687 101.472 49.1441C101.812 50.0682 102.153 50.8464 102.444 51.5273C102.736 52.2082 102.931 52.6945 103.028 52.9377C103.174 53.3646 103.37 53.7728 103.612 54.1536C103.753 54.4073 103.934 54.6371 104.147 54.8345C104.33 54.9808 104.525 55.1109 104.731 55.2235C104.983 55.3256 105.244 55.4069 105.509 55.4667C105.947 55.6126 106.142 55.7585 106.142 55.9044C106.142 56.0017 106.093 56.0504 105.996 56.1476C105.777 56.2234 105.546 56.2565 105.315 56.2449C104.877 56.2449 104.39 56.2449 103.758 56.1963C103.174 56.1476 102.59 56.1476 102.007 56.1476C101.682 56.1341 101.356 56.1503 101.034 56.1963C100.791 56.1963 100.499 56.2449 100.158 56.2449C99.9429 56.2582 99.7272 56.2251 99.5258 56.1476C99.4875 56.1295 99.4542 56.1023 99.4287 56.0684C99.4033 56.0345 99.3865 55.9949 99.3799 55.9531C99.4006 55.8583 99.4519 55.7728 99.5258 55.7099C99.6655 55.599 99.8346 55.5314 100.012 55.5154C100.253 55.4805 100.485 55.3978 100.693 55.2722C100.817 55.1872 100.931 55.0895 101.034 54.9804C101.065 54.9301 101.086 54.8739 101.094 54.8153C101.102 54.7566 101.098 54.6969 101.082 54.6399C101.082 54.494 101.034 54.3968 101.034 54.2509C100.902 53.601 100.706 52.9657 100.45 52.354L99.5745 50.0196C99.5745 49.9709 99.4772 49.9223 99.4285 49.8737C99.1938 49.7947 98.946 49.7616 98.6988 49.7764H96.2179C95.8443 49.7672 95.4705 49.7835 95.0991 49.825C94.7586 49.825 94.5153 49.8737 94.418 49.8737C94.3694 49.8737 94.3207 49.9223 94.2721 49.9709L94.1262 50.1168C93.9349 50.5266 93.7723 50.9491 93.6397 51.3814C93.4938 51.8191 93.3478 52.2568 93.2019 52.6459C93.0717 52.9927 92.974 53.351 92.91 53.7159C92.8386 53.9522 92.8057 54.1986 92.8127 54.4454C92.8119 54.6267 92.8817 54.8011 93.0073 54.9318C93.2987 55.2185 93.6733 55.4058 94.0775 55.4667C94.564 55.6126 94.7586 55.7586 94.7586 55.9045C94.7605 55.9369 94.7556 55.9694 94.744 55.9998C94.7325 56.0302 94.7147 56.0578 94.6917 56.0807C94.6687 56.1037 94.6411 56.1216 94.6107 56.1331C94.5803 56.1447 94.5478 56.1496 94.5153 56.1476C94.3565 56.1878 94.1925 56.2042 94.0289 56.1963C93.7524 56.2016 93.4759 56.1854 93.2019 56.1476C92.7981 56.104 92.3918 56.0878 91.9858 56.099C91.7254 56.0924 91.465 56.1087 91.2075 56.1476C90.9156 56.1476 90.6724 56.1963 90.4291 56.1963C90.201 56.1864 89.9725 56.2028 89.7481 56.2449C89.5535 56.2449 89.4076 56.2936 89.3103 56.2936C89.1465 56.3103 88.9811 56.2938 88.8239 56.2449C88.7266 56.1963 88.7266 56.1476 88.7266 56.0504C88.7266 55.9531 88.7752 55.9045 88.8725 55.8072C89.006 55.7056 89.1535 55.6237 89.3103 55.564C89.5912 55.4822 89.8673 55.3847 90.1373 55.2722C90.342 55.1771 90.5374 55.0632 90.721 54.9318C90.9078 54.7774 91.0716 54.5973 91.2075 54.3967C91.3996 54.1054 91.5625 53.7959 91.6939 53.4727C91.7912 53.2781 91.9371 52.889 92.1804 52.354C92.3749 51.819 92.6668 51.2354 92.9587 50.5059C93.2506 49.825 93.5424 49.0469 93.8829 48.2687C94.2235 47.4419 94.5153 46.6637 94.8558 45.8856C95.1963 45.1074 95.4882 44.3778 95.7314 43.6969C96.0233 43.0161 96.2179 42.4324 96.4125 41.9947C96.5 41.8293 96.5498 41.6466 96.5584 41.4597C96.5584 41.3624 96.5584 41.3138 96.6071 41.2651C96.7043 41.1192 96.8503 40.9247 97.0449 40.6329C97.1908 40.3897 97.3367 40.1465 97.3854 40.0493C97.4827 39.7574 97.6286 39.6602 97.7259 39.6602ZM98.8934 48.5605C98.9198 48.5343 98.9369 48.5001 98.942 48.4632C98.9533 48.4547 98.9625 48.4437 98.9689 48.431C98.9752 48.4184 98.9785 48.4044 98.9785 48.3902C98.9785 48.3761 98.9752 48.3622 98.9689 48.3495C98.9625 48.3368 98.9533 48.3258 98.942 48.3173C98.8051 47.8706 98.6427 47.4322 98.4556 47.0041C98.261 46.4205 98.0178 45.8855 97.8232 45.3019C97.6286 44.7183 97.434 44.2319 97.2395 43.7942C97.0449 43.3564 96.9476 43.0647 96.8989 43.0161C96.8503 42.8701 96.753 42.8701 96.7044 43.0161C96.5584 43.3079 96.4125 43.7456 96.2179 44.2806C96.0233 44.8156 95.7801 45.3505 95.5855 45.9341C95.3909 46.5178 95.1964 47.0041 95.0018 47.4905C94.8654 47.8229 94.7516 48.1641 94.6613 48.5118C94.6126 48.6091 94.6612 48.7064 94.8072 48.7064H98.0177C98.2973 48.6011 98.5948 48.5516 98.8934 48.5605Z" fill="#333333"/>
<path d="M115.485 39.6604C116.107 39.6503 116.728 39.7157 117.334 39.855C117.918 40.0009 118.355 40.0495 118.599 40.0982C118.703 40.1524 118.788 40.2373 118.842 40.3413C118.891 40.4872 118.939 40.5359 118.939 40.5845C118.939 40.6818 118.988 40.8763 118.988 41.0708C119.036 41.2654 119.036 41.5086 119.085 41.7031C119.134 41.8976 119.134 42.0922 119.182 42.2868C119.251 42.5416 119.251 42.8101 119.182 43.0649C119.182 43.1622 119.134 43.2595 119.036 43.2595C118.909 43.2538 118.788 43.2019 118.696 43.1135C118.623 43.0724 118.559 43.0167 118.509 42.9497C118.459 42.8827 118.423 42.806 118.404 42.7245C118.252 42.3061 118.039 41.9127 117.772 41.5572C117.587 41.3216 117.375 41.1092 117.139 40.9249C116.891 40.7321 116.611 40.584 116.312 40.4872C115.982 40.3842 115.637 40.335 115.291 40.3413C114.897 40.3283 114.504 40.3948 114.136 40.5369C113.769 40.679 113.433 40.8936 113.15 41.1681C112.88 41.4441 112.668 41.7712 112.526 42.1303C112.384 42.4895 112.315 42.8734 112.323 43.2595C112.324 43.6611 112.407 44.0583 112.567 44.4267C112.733 44.7753 112.964 45.089 113.248 45.3508C113.592 45.6775 113.967 45.9706 114.367 46.2262C114.804 46.518 115.339 46.8585 115.923 47.1989C116.41 47.5394 116.896 47.8798 117.334 48.1716C117.756 48.49 118.147 48.8483 118.501 49.2416C118.833 49.6139 119.097 50.042 119.28 50.5061C119.479 50.9835 119.578 51.4966 119.572 52.0138C119.554 52.6808 119.37 53.3327 119.036 53.9106C118.658 54.5818 118.102 55.1368 117.431 55.5156C116.915 55.8087 116.357 56.0219 115.777 56.1479C115.155 56.2945 114.519 56.376 113.88 56.3911C113.62 56.3963 113.359 56.38 113.102 56.3424C112.81 56.2938 112.469 56.2451 112.129 56.1965C111.788 56.1479 111.496 56.0506 111.205 56.002C110.913 55.9047 110.67 55.8561 110.426 55.7588C110.261 55.649 110.127 55.4982 110.037 55.3211C109.94 55.2099 109.874 55.076 109.843 54.932C109.783 54.7097 109.75 54.4811 109.745 54.2511C109.697 54.0079 109.648 53.8134 109.599 53.5702C109.543 53.3803 109.511 53.1843 109.502 52.9866C109.467 52.8599 109.451 52.7289 109.453 52.5975C109.48 52.4907 109.53 52.3911 109.599 52.3057C109.697 52.1598 109.745 52.1111 109.843 52.1111C109.94 52.1111 110.086 52.2571 110.28 52.5489C110.475 52.8407 110.621 53.1811 110.815 53.5215C110.987 53.8528 111.218 54.1496 111.496 54.397C111.777 54.6236 112.069 54.8346 112.372 55.0293C112.68 55.1856 113.007 55.3001 113.345 55.3697C113.612 55.4574 113.891 55.5065 114.172 55.5157C114.997 55.5417 115.8 55.2451 116.41 54.6888C116.705 54.4087 116.936 54.068 117.087 53.6903C117.238 53.3125 117.306 52.9066 117.285 52.5002C117.28 52.2187 117.231 51.9397 117.139 51.6734C117.035 51.3532 116.869 51.056 116.653 50.798C116.353 50.4497 116.028 50.1246 115.68 49.8253C115.242 49.4848 114.707 49.0958 114.026 48.658C113.496 48.3411 112.992 47.9833 112.518 47.588C112.079 47.2534 111.672 46.8789 111.302 46.4694C110.98 46.0896 110.718 45.6633 110.524 45.2049C110.324 44.7446 110.225 44.2473 110.232 43.7458C110.239 43.1729 110.372 42.6084 110.621 42.0922C110.862 41.5581 111.229 41.0907 111.691 40.7304C112.156 40.3515 112.682 40.0553 113.248 39.855C113.976 39.6563 114.734 39.5904 115.485 39.6604Z" fill="#333333"/>
<path d="M133.337 44.8644C133.352 44.31 133.235 43.7601 132.997 43.2594C132.792 42.7549 132.495 42.293 132.121 41.8976C131.728 41.5083 131.266 41.195 130.759 40.9735C130.224 40.7351 129.642 40.6188 129.057 40.6331C128.782 40.6531 128.515 40.7363 128.278 40.8762C128.21 40.9623 128.16 41.0617 128.132 41.168C128.065 41.3887 128.032 41.6183 128.035 41.8489V53.2783C128.023 53.6033 128.039 53.9288 128.084 54.251C128.126 54.4596 128.208 54.6579 128.327 54.8346C128.459 54.9858 128.626 55.1026 128.813 55.1751C129.066 55.2884 129.326 55.3858 129.592 55.4669C130.078 55.5642 130.273 55.7587 130.273 55.9533C130.273 56.0505 130.175 56.1478 129.981 56.1964C129.789 56.2367 129.593 56.2531 129.397 56.2451C129.007 56.2512 128.617 56.235 128.23 56.1964C127.712 56.1535 127.192 56.1373 126.673 56.1478C126.235 56.1415 125.796 56.1576 125.36 56.1964C124.923 56.2352 124.484 56.2515 124.046 56.2451C123.56 56.2451 123.316 56.1478 123.316 55.9046C123.316 55.8074 123.365 55.7587 123.462 55.6614C123.554 55.5731 123.675 55.5212 123.803 55.5155C124.328 55.4571 124.821 55.236 125.214 54.8833C125.473 54.5313 125.609 54.1043 125.603 53.6674C125.603 53.3756 125.651 53.0351 125.651 52.6461C125.651 52.257 125.7 51.8679 125.7 51.4301C125.691 51.0242 125.707 50.6181 125.749 50.2143V44.1835C125.76 43.7775 125.744 43.3713 125.7 42.9676V42.238C125.708 42.0422 125.692 41.8462 125.651 41.6544C125.633 41.5154 125.583 41.3823 125.505 41.2653C125.376 41.1459 125.228 41.0475 125.068 40.9735C124.803 40.8692 124.524 40.8036 124.241 40.779C123.706 40.6817 123.414 40.5845 123.414 40.3899C123.413 40.3398 123.426 40.2904 123.452 40.2474C123.478 40.2044 123.515 40.1695 123.56 40.1467C123.696 40.0806 123.846 40.0473 123.997 40.0494H124.824C125.133 40.0551 125.442 40.0388 125.749 40.0008C126.089 40.0008 126.478 39.9522 126.916 39.9522C127.305 39.9035 127.694 39.9035 128.084 39.8549C128.439 39.8155 128.796 39.7992 129.154 39.8062C130.157 39.7859 131.157 39.9171 132.121 40.1954C132.815 40.4307 133.458 40.7935 134.018 41.2653C134.579 41.7445 134.999 42.3663 135.234 43.0649C135.404 43.5673 135.503 44.0912 135.526 44.6212C135.54 45.1148 135.474 45.6074 135.332 46.0802C135.212 46.447 135.065 46.8046 134.894 47.1502C134.723 47.4267 134.528 47.6871 134.31 47.9284C134.128 48.1197 133.933 48.2985 133.726 48.4634C133.316 48.7925 132.856 49.055 132.364 49.2415C131.842 49.4659 131.279 49.5817 130.71 49.582C130.499 49.585 130.287 49.5687 130.078 49.5334C129.827 49.5418 129.577 49.4919 129.348 49.3874C129.057 49.2902 128.911 49.1443 128.911 48.9984C128.911 48.9497 128.959 48.9011 129.008 48.8525C129.074 48.7916 129.161 48.757 129.251 48.7552H129.883C130.268 48.7395 130.646 48.6572 131.002 48.512C131.408 48.3495 131.773 48.1006 132.073 47.7824C132.425 47.4162 132.705 46.9873 132.9 46.5179C133.222 46.0294 133.376 45.4486 133.337 44.8644Z" fill="#333333"/>
<path d="M145.742 39.6602C145.79 39.6602 145.839 39.7088 145.888 39.7574C145.986 39.9273 146.067 40.1065 146.131 40.2924C146.26 40.7417 146.422 41.1807 146.617 41.6056C146.812 42.1406 147.055 42.7242 147.298 43.4051C147.639 44.3292 147.979 45.3019 148.368 46.2746C148.758 47.296 149.147 48.2687 149.487 49.1441C149.828 50.0682 150.168 50.8464 150.46 51.5273C150.752 52.2082 150.947 52.6945 151.044 52.9377C151.19 53.3646 151.386 53.7728 151.628 54.1536C151.769 54.4073 151.95 54.6371 152.163 54.8345C152.346 54.9808 152.541 55.1109 152.747 55.2235C152.999 55.3256 153.259 55.4069 153.525 55.4667C153.963 55.6126 154.157 55.7585 154.157 55.9044C154.157 56.0017 154.109 56.0504 154.011 56.1476C153.793 56.2234 153.561 56.2565 153.33 56.2449C152.892 56.2449 152.406 56.2449 151.774 56.1963C151.19 56.1476 150.606 56.1476 150.022 56.1476C149.697 56.1341 149.372 56.1503 149.049 56.1963C148.806 56.1963 148.514 56.2449 148.174 56.2449C147.959 56.2582 147.743 56.2251 147.541 56.1476C147.503 56.1295 147.47 56.1023 147.444 56.0684C147.419 56.0345 147.402 55.9949 147.396 55.9531C147.416 55.8583 147.468 55.7728 147.541 55.7099C147.681 55.599 147.85 55.5314 148.028 55.5154C148.269 55.4805 148.5 55.3978 148.709 55.2722C148.832 55.1872 148.947 55.0895 149.049 54.9804C149.081 54.9301 149.101 54.8739 149.11 54.8153C149.118 54.7566 149.114 54.6969 149.098 54.6399C149.098 54.494 149.049 54.3968 149.049 54.2509C148.917 53.601 148.722 52.9657 148.466 52.354C148.174 51.5759 147.882 50.7977 147.59 50.0196C147.59 49.9709 147.493 49.9223 147.444 49.8737C147.209 49.7947 146.962 49.7616 146.715 49.7764H144.234C143.86 49.7672 143.486 49.7835 143.115 49.825C142.774 49.825 142.531 49.8737 142.434 49.8737C142.385 49.8737 142.336 49.9223 142.288 49.9709L142.142 50.1168C141.951 50.5266 141.788 50.9491 141.655 51.3814C141.509 51.8191 141.364 52.2568 141.218 52.6459C141.087 52.9927 140.99 53.351 140.926 53.7159C140.854 53.9522 140.821 54.1986 140.828 54.4454C140.828 54.6267 140.897 54.8011 141.023 54.9318C141.314 55.2186 141.689 55.4058 142.093 55.4667C142.58 55.6126 142.774 55.7586 142.774 55.9045C142.776 55.9369 142.771 55.9694 142.76 55.9998C142.748 56.0302 142.73 56.0578 142.707 56.0807C142.684 56.1037 142.657 56.1216 142.626 56.1331C142.596 56.1447 142.563 56.1496 142.531 56.1476C142.372 56.1878 142.208 56.2042 142.045 56.1963C141.768 56.2016 141.492 56.1854 141.218 56.1476C140.814 56.104 140.407 56.0878 140.001 56.099C139.741 56.0924 139.481 56.1087 139.223 56.1476C138.931 56.1476 138.688 56.1963 138.445 56.1963C138.217 56.1864 137.988 56.2028 137.764 56.2449C137.569 56.2449 137.423 56.2936 137.326 56.2936C137.162 56.3103 136.997 56.2938 136.839 56.2449C136.742 56.1963 136.742 56.1476 136.742 56.0504C136.742 55.9531 136.791 55.9045 136.888 55.8072C137.022 55.7056 137.169 55.6237 137.326 55.564C137.607 55.4822 137.883 55.3847 138.153 55.2722C138.358 55.1771 138.553 55.0632 138.737 54.9318C138.923 54.7774 139.087 54.5973 139.223 54.3967C139.415 54.1054 139.578 53.7959 139.71 53.4727C139.807 53.2781 139.953 52.889 140.196 52.354C140.391 51.819 140.682 51.2354 140.974 50.5059C141.266 49.825 141.558 49.0469 141.899 48.2687C142.239 47.4419 142.531 46.6637 142.871 45.8856C143.212 45.1074 143.504 44.3778 143.747 43.6969C144.039 43.0161 144.234 42.4324 144.428 41.9947C144.516 41.8293 144.566 41.6466 144.574 41.4597C144.574 41.3624 144.574 41.3138 144.623 41.2651C144.72 41.1192 144.866 40.9247 145.061 40.6329C145.206 40.3897 145.352 40.1465 145.401 40.0493C145.498 39.7574 145.644 39.6602 145.742 39.6602ZM146.909 48.5605C146.935 48.5343 146.953 48.5001 146.958 48.4632C146.969 48.4547 146.978 48.4437 146.985 48.431C146.991 48.4184 146.994 48.4044 146.994 48.3902C146.994 48.3761 146.991 48.3622 146.985 48.3495C146.978 48.3368 146.969 48.3258 146.958 48.3173C146.821 47.8706 146.658 47.4322 146.471 47.0041C146.277 46.4205 146.033 45.8855 145.839 45.3019C145.644 44.7183 145.45 44.2319 145.255 43.7942C145.061 43.3564 144.963 43.0647 144.915 43.0161C144.866 42.8701 144.769 42.8701 144.72 43.0161C144.623 43.3079 144.428 43.7456 144.234 44.2806C144.039 44.8156 143.796 45.3505 143.601 45.9341C143.407 46.5178 143.212 47.0041 143.017 47.4905C142.881 47.8229 142.767 48.1641 142.677 48.5118C142.628 48.6091 142.677 48.7064 142.823 48.7064H146.033C146.313 48.6011 146.61 48.5516 146.909 48.5605Z" fill="#333333"/>
<path d="M169.142 44.1347C169.137 44.8255 168.934 45.5004 168.558 46.0801C168.18 46.7097 167.643 47.2295 167.001 47.5878C166.877 47.663 166.747 47.7281 166.612 47.7824C166.456 47.842 166.308 47.9239 166.175 48.0255C166.126 48.0741 166.126 48.1228 166.077 48.2201C166.029 48.3173 166.029 48.366 166.077 48.4146C166.23 48.7215 166.409 49.0144 166.612 49.29C166.904 49.7278 167.245 50.2628 167.634 50.7978C168.023 51.3814 168.461 51.9164 168.899 52.5487C169.337 53.1323 169.774 53.6187 170.163 54.0564C170.475 54.4316 170.855 54.745 171.282 54.9804C171.738 55.2324 172.231 55.4129 172.742 55.5155L173.034 55.6613C173.131 55.7586 173.179 55.8073 173.179 55.8559C173.179 55.8935 173.17 55.9305 173.153 55.9642C173.136 55.9978 173.112 56.0273 173.082 56.0505C172.985 56.0991 172.936 56.1477 172.839 56.1964C172.631 56.2558 172.42 56.3044 172.207 56.3422C171.933 56.3841 171.656 56.4004 171.38 56.3909C171.05 56.3866 170.723 56.3375 170.407 56.245C170.075 56.1533 169.75 56.0396 169.434 55.9045C169.132 55.7612 168.839 55.5987 168.558 55.4182C168.309 55.2324 168.081 55.0204 167.877 54.7859C167.634 54.4941 167.391 54.1536 167.099 53.7646C166.807 53.3755 166.515 52.9864 166.272 52.5973C165.98 52.2082 165.688 51.7705 165.396 51.3328C165.104 50.8951 164.812 50.5059 164.569 50.1169C164.375 49.8737 164.18 49.5819 163.986 49.3387C163.867 49.168 163.718 49.0198 163.548 48.901C163.499 48.901 163.45 48.8523 163.304 48.8037C163.165 48.7483 163.017 48.7155 162.867 48.7065C162.672 48.6578 162.526 48.6578 162.283 48.6092C162.091 48.5689 161.895 48.5525 161.699 48.5605C161.602 48.5605 161.553 48.6092 161.456 48.7065C161.407 48.8037 161.359 48.8523 161.359 48.901V51.041C161.359 51.5273 161.359 52.0623 161.407 52.5973C161.407 53.1323 161.456 53.57 161.456 53.9591C161.425 54.3615 161.546 54.7608 161.796 55.0777C162.154 55.3491 162.571 55.5324 163.013 55.6128C163.45 55.71 163.645 55.8559 163.645 56.0505C163.647 56.0829 163.642 56.1154 163.63 56.1458C163.619 56.1762 163.601 56.2038 163.578 56.2268C163.555 56.2498 163.528 56.2676 163.497 56.2791C163.467 56.2906 163.434 56.2956 163.402 56.2937C163.291 56.3251 163.176 56.3414 163.061 56.3423C162.817 56.3538 162.572 56.3375 162.332 56.2937C162.137 56.2937 161.894 56.245 161.651 56.245C161.407 56.245 161.115 56.1964 160.824 56.1964C160.532 56.1964 160.143 56.1477 159.705 56.1477H159.218C159.006 56.1397 158.794 56.156 158.586 56.1964C158.391 56.1964 158.148 56.245 158.002 56.245H157.613C157.446 56.241 157.282 56.2081 157.127 56.1477C157.064 56.1308 157.01 56.092 156.974 56.0383C156.939 55.9847 156.924 55.9198 156.932 55.8559C156.932 55.7586 156.981 55.71 157.078 55.6614C157.218 55.598 157.365 55.5491 157.516 55.5155C157.764 55.4492 158.007 55.368 158.245 55.2723C158.428 55.2005 158.606 55.1193 158.78 55.0291C158.918 54.935 159.021 54.7983 159.072 54.64C159.133 54.4486 159.181 54.2537 159.218 54.0564C159.218 53.8619 159.267 53.57 159.267 53.1809C159.267 52.7919 159.316 52.3541 159.316 51.8678C159.316 51.3814 159.364 50.8951 159.364 50.4573V49.1442C159.364 47.1987 159.364 45.691 159.316 44.5238C159.267 43.3565 159.267 42.5783 159.218 42.092C159.175 41.9158 159.142 41.7372 159.121 41.557C159.087 41.4165 159 41.2945 158.878 41.2165C158.752 41.114 158.601 41.0469 158.44 41.022C158.245 40.9734 158.002 40.9247 157.71 40.8274C157.272 40.7302 157.078 40.5843 157.078 40.3897C157.078 40.2925 157.127 40.2438 157.224 40.1952C157.409 40.1215 157.608 40.0883 157.808 40.0979H159.267C159.56 40.1034 159.852 40.0872 160.142 40.0493C160.483 40.0493 160.824 40.0006 161.213 40.0006C161.603 40.0087 161.992 39.9925 162.38 39.952C162.769 39.952 163.159 39.9033 163.499 39.9033C164.298 39.8852 165.097 39.9505 165.883 40.0979C166.55 40.242 167.179 40.5236 167.731 40.9247C168.188 41.2906 168.554 41.7566 168.801 42.2865C169 42.8838 169.115 43.5058 169.142 44.1347ZM166.856 44.1833C166.779 43.2284 166.365 42.332 165.688 41.6543C165.331 41.3506 164.918 41.1193 164.472 40.9734C164.037 40.8068 163.575 40.7242 163.11 40.7302H162.915C162.8 40.7224 162.684 40.7389 162.575 40.7788C162.429 40.7788 162.332 40.8274 162.186 40.8274C162.04 40.8761 161.942 40.8761 161.894 40.9247C161.806 40.9843 161.738 41.069 161.699 41.1679C161.659 41.2624 161.626 41.36 161.602 41.4597C161.602 41.6056 161.553 41.8488 161.553 42.1892C161.559 42.5789 161.543 42.9686 161.505 43.3565C161.512 43.811 161.496 44.2655 161.456 44.7183V47.1015C161.437 47.2813 161.453 47.4631 161.505 47.6364C161.542 47.7237 161.591 47.8055 161.651 47.8796C161.679 47.9153 161.717 47.943 161.759 47.96C161.802 47.9771 161.848 47.9828 161.894 47.9769C162.582 47.9798 163.268 47.8982 163.937 47.7337C164.353 47.6406 164.76 47.5103 165.153 47.3446C165.354 47.229 165.535 47.0811 165.688 46.9069C165.895 46.6904 166.089 46.4631 166.272 46.226C166.456 45.955 166.603 45.6606 166.71 45.3505C166.779 44.9644 166.828 44.5747 166.856 44.1833Z" fill="#333333"/>
<path d="M184.267 39.6608C186.614 39.6343 188.887 40.4841 190.64 42.0439C191.451 42.7868 192.111 43.6784 192.586 44.6702C193.058 45.6905 193.29 46.8049 193.267 47.9288C193.275 48.7485 193.177 49.5659 192.975 50.3606C192.789 51.0589 192.511 51.7294 192.148 52.3546C191.815 52.9281 191.424 53.466 190.981 53.9596C190.576 54.4034 190.119 54.7955 189.618 55.1268C189.212 55.4104 188.771 55.6393 188.305 55.8077C187.866 55.9974 187.41 56.1439 186.943 56.2454C186.51 56.3499 186.071 56.4311 185.63 56.4886C185.259 56.541 184.885 56.5735 184.511 56.5859C183.205 56.5956 181.913 56.3305 180.716 55.8077C179.183 55.1862 177.874 54.1144 176.962 52.7339C176.05 51.3533 175.578 49.7288 175.609 48.0747C175.547 46.6953 175.885 45.3275 176.582 44.1352C177.217 43.071 178.041 42.1315 179.014 41.363C179.354 41.0867 179.731 40.8577 180.133 40.6821C180.575 40.4746 181.03 40.2959 181.495 40.1471C181.969 39.9877 182.458 39.8738 182.954 39.8067C183.384 39.7047 183.825 39.6557 184.267 39.6608ZM183.684 40.4876C183.39 40.4959 183.097 40.5285 182.808 40.5848C182.472 40.637 182.145 40.7352 181.835 40.8766C181.495 41.0225 181.203 41.1685 180.911 41.3144C180.634 41.4851 180.374 41.6804 180.133 41.898C179.483 42.5237 178.984 43.2887 178.673 44.1352C178.251 45.2867 178.053 46.5083 178.09 47.7342C178.089 48.6954 178.254 49.6495 178.576 50.5551C178.917 51.4887 179.41 52.3596 180.035 53.1328C180.653 53.8893 181.413 54.5172 182.273 54.9809C183.149 55.4716 184.139 55.7232 185.143 55.7104C185.617 55.7178 186.091 55.6689 186.554 55.5645C186.906 55.4879 187.248 55.3738 187.575 55.2241C187.814 55.1158 188.042 54.9855 188.256 54.835C188.382 54.7343 188.496 54.6202 188.597 54.4946C188.903 54.2481 189.166 53.9522 189.375 53.6191C189.659 53.2055 189.904 52.7658 190.105 52.306C190.319 51.7671 190.498 51.2147 190.64 50.6523C190.782 49.981 190.847 49.2957 190.835 48.6097C190.833 47.285 190.551 45.9757 190.008 44.7675C189.484 43.616 188.701 42.6008 187.721 41.8007C187.154 41.3626 186.511 41.0329 185.824 40.828C185.129 40.6179 184.409 40.5033 183.684 40.4876H183.684Z" fill="#333333"/>
<path d="M196.332 40.2927C196.332 40.1954 196.429 40.0982 196.575 40.0495C196.747 39.9894 196.928 39.9566 197.11 39.9523C197.468 39.9482 197.825 39.9645 198.181 40.0009C198.618 40.0495 199.202 40.0495 199.834 40.0495C200.272 40.0495 200.759 40.0495 201.245 40.0009C201.732 40.0009 202.121 39.9523 202.413 39.9523C202.564 39.9501 202.714 39.9834 202.85 40.0495C202.948 40.0982 203.045 40.1955 203.045 40.2441C203.045 40.3414 202.996 40.39 202.899 40.4872C202.759 40.5981 202.59 40.6658 202.413 40.6818C202.14 40.711 201.875 40.7936 201.634 40.925C201.488 40.9978 201.356 41.0966 201.245 41.2168C201.191 41.3227 201.157 41.4385 201.148 41.5573C201.14 41.6729 201.157 41.7889 201.197 41.8977C201.308 42.2608 201.438 42.618 201.586 42.9677C201.78 43.4541 202.023 44.0377 202.267 44.7186C202.51 45.3508 202.802 46.0804 203.094 46.8099C203.386 47.5394 203.677 48.269 203.969 48.9499C204.261 49.6308 204.504 50.3117 204.748 50.8953C204.991 51.4789 205.185 51.9653 205.331 52.3057C205.38 52.3544 205.429 52.3544 205.477 52.403C205.526 52.4516 205.575 52.403 205.623 52.3057C205.672 52.2085 205.769 51.9653 205.915 51.5762C206.061 51.1871 206.304 50.7008 206.547 50.1658C206.791 49.6308 207.083 48.9985 207.374 48.3176C207.666 47.6367 207.958 46.9558 208.25 46.2749C208.542 45.594 208.834 44.9131 209.126 44.3295C209.418 43.6972 209.612 43.1622 209.807 42.7245C209.936 42.4653 210.018 42.1854 210.05 41.8977C210.064 41.7994 210.053 41.6992 210.019 41.6059C209.985 41.5126 209.929 41.4291 209.855 41.3627C209.714 41.2223 209.549 41.1071 209.369 41.0222C209.136 40.9122 208.891 40.8306 208.639 40.7791C208.479 40.7542 208.327 40.687 208.201 40.5845C208.104 40.4873 208.055 40.4386 208.055 40.3413C208.055 40.2441 208.153 40.1954 208.299 40.1468C208.471 40.0867 208.651 40.0539 208.834 40.0495C209.143 40.0427 209.452 40.059 209.758 40.0982C210.099 40.0982 210.488 40.1468 210.926 40.1468C211.348 40.1531 211.77 40.1369 212.19 40.0982C212.546 40.0617 212.903 40.0455 213.26 40.0495C213.442 40.0583 213.622 40.091 213.796 40.1468C213.941 40.1954 214.039 40.2927 214.039 40.39C214.039 40.4466 214.02 40.5016 213.984 40.5459C213.949 40.5901 213.9 40.6209 213.844 40.6332C213.702 40.7319 213.531 40.783 213.358 40.7791C212.849 40.8746 212.377 41.1105 211.996 41.46C211.605 41.8332 211.291 42.2793 211.071 42.7731C210.78 43.4054 210.488 43.9404 210.244 44.4267C210.001 44.9131 209.758 45.3994 209.466 45.9344C209.223 46.4694 208.931 47.0531 208.639 47.6854C208.347 48.3176 208.007 49.1444 207.618 50.0685C207.228 50.9439 206.937 51.6735 206.693 52.2084C206.45 52.7434 206.256 53.2298 206.061 53.6675C205.888 54.0461 205.742 54.4361 205.623 54.8348C205.455 55.2481 205.309 55.6702 205.185 56.0993C205.14 56.238 205.075 56.3692 204.991 56.4884C204.958 56.5497 204.909 56.6005 204.849 56.6349C204.788 56.6694 204.72 56.686 204.65 56.683C204.553 56.683 204.504 56.6343 204.407 56.537C204.36 56.4942 204.322 56.4416 204.297 56.3828C204.271 56.3241 204.259 56.2605 204.261 56.1966C204.164 55.8561 204.018 55.2725 203.823 54.5916C203.629 53.862 203.288 53.0839 202.948 52.1598C202.802 51.7707 202.607 51.333 202.413 50.7494C202.218 50.2144 201.975 49.5821 201.683 48.9499C201.44 48.3176 201.148 47.6853 200.905 47.053C200.661 46.4208 200.418 45.7885 200.175 45.2535C199.955 44.7776 199.76 44.2906 199.591 43.7945C199.445 43.4054 199.299 43.1135 199.251 42.9676C199.063 42.426 198.765 41.9292 198.375 41.5086C197.998 41.1435 197.526 40.8909 197.013 40.7791L196.575 40.6332C196.381 40.4873 196.332 40.39 196.332 40.2927Z" fill="#333333"/>
<path d="M1.89671 26.7719L11.5775 14.9048L28.1169 11.3058L44.3161 14.9048L54.1424 26.7719L51.6611 37.6663L53.315 37.5199L55.9419 26.2365L45.3863 13.3485L28.1169 9.50586L10.41 13.3485L0 26.2365L3.79432 42.2862L5.44825 42.1407L1.89671 26.7719Z" fill="#666666"/>
<path d="M14.7891 16.17L28.1178 13.8355L40.7173 15.9754L28.1178 12.6191L14.7891 16.17Z" fill="#666666"/>
<path d="M28.1164 7.94977L40.3268 10.5761L43.4883 4.83712L39.2075 3.66988L38.1373 6.44255L35.8996 6.10164L36.9216 3.18354L32.5918 2.1626L31.9108 4.98347L30.1113 4.64256L30.2568 1.52991L28.1164 0.946289L25.9761 1.52991V4.64256L23.8357 5.03168L23.2519 2.11353L19.0194 3.18354L19.8468 6.00436L17.8519 6.39347L16.6844 3.71896L12.3555 4.73984L15.4687 10.5761L28.1164 7.94977Z" fill="#666666"/>
<path d="M7.73632 27.8904L6.17969 27.6958L9.68212 41.752L10.315 41.6547L7.73632 27.8904Z" fill="#666666"/>
<path d="M5.15821 27.3067L3.60156 27.064L7.29862 41.9465L7.88235 41.8974L5.15821 27.3067Z" fill="#666666"/>
<path d="M49.9104 27.6958L48.3537 27.8904L46.457 38.2011L47.3327 38.1038L49.9104 27.6958Z" fill="#666666"/>
<path d="M52.4868 27.064L50.9783 27.3067L48.9844 37.9584L49.8109 37.8611L52.4868 27.064Z" fill="#666666"/>
<path d="M18.001 39.4662L19.9468 40.7307L24.1303 40.3416L24.0816 39.758L19.7036 38.4935L17.7091 34.5054L16.1038 34.1162L19.8982 34.2135L23.9357 36.3535H24.714L24.6167 40.2443L31.2811 39.6121L31.2325 36.3535H32.0108L36.0483 34.2135L39.8426 34.1162L38.2374 34.5054L36.2429 38.4935L32.5945 39.5634L42.0316 38.6394L42.1289 36.3049L41.302 35.1376V28.5718L38.3346 24.3891L33.5187 23.0273L28.1678 25.4105L22.8168 23.0273L18.001 24.3891L15.0336 28.5718V35.1376L14.1094 36.3049L14.3039 41.3143L19.2657 40.828L18.001 39.4662ZM28.1192 30.7118L30.9406 29.7391L28.3137 31.1982L28.1192 31.8304L27.9246 31.1982L25.2005 29.7391L28.1192 30.7118ZM28.1192 32.7059L34.7836 30.42L28.557 33.9217L28.1192 35.4295L27.6814 33.9217L21.163 30.42L28.1192 32.7059Z" fill="#666666"/>
<path d="M28.1194 70.009L49.3287 54.6892L53.3176 37.5205L51.6636 37.6669L47.9666 53.7166L28.1194 68.0154L8.17493 53.7166L5.45081 42.1413L3.79688 42.2868L6.71557 54.6892L28.1194 70.009Z" fill="#333333"/>
<path d="M10.3125 41.6543L9.67969 41.7516L12.1119 51.5269L10.3125 41.6543Z" fill="#333333"/>
<path d="M7.8806 41.8975L7.29688 41.9465L9.53452 50.9437L7.8806 41.8975Z" fill="#333333"/>
<path d="M47.3336 38.1035L46.4579 38.2008L43.9766 51.5269L47.3336 38.1035Z" fill="#333333"/>
<path d="M49.8134 37.8613L48.9869 37.9586L46.5547 50.9438L49.8134 37.8613Z" fill="#333333"/>
<path d="M18.9219 59.6499L28.1162 65.9235L36.9214 59.6499L28.0681 64.0753L18.9219 59.6499Z" fill="#333333"/>
<path d="M25.7803 57.0237H30.402L32.1041 56.0992L32.7369 53.4729L28.1152 51.8193L23.4453 53.4729L23.9809 56.051L25.7803 57.0237Z" fill="#333333"/>
<path d="M16.151 43.065V44.67L19.7021 48.7553V47.1018L18.0482 45.3022V44.2323L20.4804 46.7127L22.0371 45.3509V46.8099L20.675 48.3663V51.3331L22.7181 53.0353L27.8259 50.9926V49.2417L24.0802 47.1018L24.8099 45.5941L28.1177 46.4695L31.4742 45.5941L31.912 47.1504L28.4096 49.2904V51.0412L33.4687 53.0839L35.5118 51.3817V48.4149L34.1497 46.8586V45.3995L35.7064 46.7613L38.1386 44.2809V45.3509L36.4847 47.1504V48.804L40.0358 44.7186V43.065L41.8843 41.8005L41.9816 38.6392L32.5445 39.5633L31.7662 39.8065L31.3283 44.3782L31.231 39.7092L24.5666 40.3414L24.4693 44.3782L24.0802 40.3901L19.8967 40.7792L22.1831 42.2868L21.4534 43.2109L19.2157 40.8765L14.2539 41.3628V41.8491L16.151 43.065ZM37.8468 39.466L34.3444 43.1622L33.6147 42.2382L37.8468 39.466Z" fill="#333333"/>
</svg>
