<svg width="220" height="73" viewBox="0 0 220 73" fill="none" xmlns="http://www.w3.org/2000/svg">
<path d="M26.112 26.2108C26.7306 26.7464 27.4261 27.1861 28.1753 27.5152C30.0671 28.2232 32.0308 28.7217 34.0313 29.0017C36.5497 29.5477 38.977 30.4275 40.4031 32.7331C41.5154 34.7958 42.1187 37.0943 42.1629 39.4373C42.2875 40.7884 42.066 42.1491 41.5192 43.391C40.9725 44.6329 40.1185 45.7152 39.0377 46.5359C37.4296 47.9314 35.609 49.0538 34.3044 50.7526C33.7069 51.4629 33.2723 52.2954 33.0311 53.1916C32.79 54.0878 32.7482 55.026 32.9087 55.9401C33.2004 56.7455 33.5555 57.5267 33.9707 58.276C34.7596 60.2175 33.7279 60.9456 33.0604 61.5826C32.6181 61.97 32.1407 62.3152 31.6343 62.614C33.2424 62.1589 35.245 61.3702 35.1843 59.3984C35.154 58.3367 34.4561 57.4872 34.0313 56.5468C33.1514 54.5446 33.9706 52.4515 35.3057 50.874C37.1262 48.7505 39.7356 47.4763 41.4651 45.2618C42.9822 43.3203 43.1643 41.1665 42.9215 38.7093C42.4361 33.9466 40.6459 30.0028 35.7608 28.6074C33.0907 27.849 30.1779 27.8186 27.6898 26.4839C27.014 26.1288 26.3994 25.668 25.8693 25.1188C25.4909 24.614 25.0831 24.1318 24.6481 23.6748C24.4091 23.6791 24.1706 23.6856 23.9336 23.6981C24.7718 24.3345 25.4427 25.6308 26.112 26.2108Z" fill="#8C99B5"/>
<path d="M12.2391 55.7751C11.5892 55.0587 10.9837 54.3034 10.4261 53.5131C9.40209 52.0416 8.53753 50.4653 7.84694 48.811C7.14908 47.1425 6.81535 45.3527 6.11748 43.6841C6.11037 43.672 6.09951 43.6624 6.08651 43.657C6.07351 43.6515 6.05908 43.6504 6.0454 43.6538C6.03172 43.6572 6.01951 43.665 6.01062 43.6759C6.00173 43.6869 5.99663 43.7004 5.99609 43.7145C6.02403 45.4812 6.40576 47.2245 7.11872 48.8413C7.78919 50.572 8.65446 52.2207 9.69783 53.7558C10.2819 54.6234 10.9258 55.4491 11.6251 56.2269C11.7895 56.0754 11.967 55.9388 12.1555 55.8186C12.1829 55.8023 12.2116 55.7909 12.2391 55.7751Z" fill="black"/>
<path d="M14.0368 52.2086C12.3164 49.9208 10.9556 47.3838 10.0013 44.6853C9.03036 41.955 8.75726 39.1338 8.12008 36.3429C8.08974 36.2822 7.9987 36.2822 7.9987 36.3429C7.60428 39.1641 8.39321 42.2887 9.3034 44.928C10.244 47.6794 11.6053 50.2684 13.3389 52.603C13.9408 53.4296 14.5919 54.2191 15.2889 54.9673C15.6368 54.9352 15.9833 54.8986 16.3345 54.8746C15.5142 54.0343 14.7468 53.1439 14.0368 52.2086Z" fill="black"/>
<path d="M10.6056 33.7946C10.5753 33.2789 9.78639 33.461 9.84708 33.9464C10.4241 41.8074 13.9007 49.174 19.6026 54.6174C19.9626 54.5927 20.322 54.5659 20.6808 54.537C14.7965 49.1627 11.1917 41.7413 10.6056 33.7946Z" fill="black"/>
<path d="M13.3054 31.2464C13.275 30.761 12.4861 30.7003 12.5165 31.1857C12.8062 35.5543 13.979 39.8189 15.9641 43.7215C17.9492 47.624 20.7052 51.0836 24.0656 53.8909C24.3456 53.7901 24.6194 53.6724 24.8853 53.5386C21.5321 50.8129 18.7742 47.428 16.7823 43.5935C14.7905 39.759 13.6071 35.5566 13.3054 31.2464Z" fill="black"/>
<path d="M16.071 29.7298C16.0407 29.2444 15.2518 29.1837 15.2821 29.6691C15.5527 33.9869 16.7226 38.2006 18.7167 42.0401C20.7108 45.8796 23.4852 49.2602 26.862 51.9654C27.019 51.7698 27.1639 51.5647 27.2959 51.3514C24.0356 48.7154 21.3556 45.434 19.4239 41.7132C17.4923 37.9924 16.3507 33.9126 16.071 29.7298Z" fill="black"/>
<path d="M19.1334 28.4856C19.1031 28.0003 18.3143 27.9396 18.3446 28.4249C18.8091 36.4091 22.3364 43.9062 28.1919 49.3549C28.2847 49.0726 28.3656 48.7869 28.4394 48.4993C22.9228 43.241 19.5986 36.0918 19.1334 28.4856Z" fill="black"/>
<path d="M23.9362 23.6979C23.6626 23.4662 23.3175 23.3358 22.959 23.3287V23.2984C23.2226 23.1998 23.5077 23.1731 23.7849 23.2211C24.0622 23.2691 24.3217 23.39 24.5368 23.5715C24.5783 23.6014 24.6115 23.6417 24.6507 23.6746C24.775 23.6724 24.8975 23.6625 25.0223 23.6625C27.7409 23.6607 30.4332 24.1945 32.9454 25.2334C35.4576 26.2724 37.7404 27.796 39.6634 29.7174C41.5864 31.6387 43.1118 33.9201 44.1526 36.4311C45.1934 38.9421 45.7291 41.6336 45.7291 44.3517C45.7291 47.0697 45.1934 49.7612 44.1526 52.2722C43.1118 54.7832 41.5864 57.0646 39.6634 58.9859C37.7404 60.9073 35.4576 62.431 32.9454 63.4699C30.4332 64.5088 27.7409 65.0427 25.0223 65.0409H24.4155C23.0401 65.2639 21.6514 65.3956 20.2586 65.4353C21.8236 65.7765 23.4205 65.9494 25.0223 65.951C29.018 65.9469 32.9343 64.8341 36.335 62.7365C39.7356 60.6389 42.4873 57.6388 44.2837 54.0703C46.0801 50.5018 46.8506 46.5048 46.5095 42.5244C46.1684 38.544 44.7291 34.7363 42.3518 31.5253C39.9745 28.3143 36.7525 25.8259 33.0445 24.3372C29.3365 22.8485 25.288 22.418 21.3498 23.0935C17.4115 23.769 13.738 25.524 10.7383 28.1631C7.73859 30.8023 5.53033 34.2221 4.35938 38.0417C4.72354 37.4956 5.08759 36.98 5.45172 36.4339C5.53937 36.3067 5.62038 36.175 5.69442 36.0395C6.27855 35.0545 6.91672 34.1025 7.606 33.1879C9.38686 30.4309 11.7946 28.134 14.6326 26.4847C17.4707 24.8354 20.6586 23.8805 23.9362 23.6979Z" fill="black"/>
<path d="M22.957 23.2982V23.3285C23.3155 23.3356 23.6606 23.466 23.9341 23.6977C24.1712 23.6852 24.4097 23.6786 24.6487 23.6743C24.6095 23.6414 24.5763 23.6012 24.5348 23.5712C24.3197 23.3898 24.0602 23.269 23.7829 23.221C23.5057 23.173 23.2206 23.1997 22.957 23.2982Z" fill="black"/>
<path d="M49.2348 44.139C49.2351 37.731 46.6941 31.5843 42.1688 27.0465C37.6434 22.5086 31.5031 19.9499 25.0938 19.9313C18.6846 19.9126 12.5294 22.4356 7.97778 26.9471C3.42614 31.4586 0.849417 37.5904 0.8125 43.9983C1.15616 45.6011 1.60878 47.1786 2.16721 48.7197C1.12228 43.4743 1.91425 38.0291 4.41015 33.2985C6.90604 28.5678 10.9539 24.8398 15.874 22.7403C20.7941 20.6407 26.2869 20.2976 31.4302 21.7685C36.5734 23.2394 41.0539 26.4347 44.1193 30.818C47.1848 35.2013 48.6485 40.5055 48.2647 45.8402C47.881 51.1749 45.6731 56.2152 42.0118 60.1147C38.3505 64.0143 33.4588 66.5356 28.158 67.2555C22.8571 67.9753 17.47 66.8498 12.901 64.068C14.1094 65.0864 15.3827 66.0252 16.713 66.8784C20.3715 68.2141 24.2984 68.6478 28.1603 68.1427C32.0223 67.6376 35.7054 66.2085 38.8971 63.9768C42.0889 61.7451 44.6952 58.7766 46.4948 55.3232C48.2945 51.8697 49.2344 48.0331 49.2348 44.139Z" fill="black"/>
<path d="M51.9636 44.3514C51.9642 38.1607 49.8485 32.1557 45.9673 27.3321C42.0861 22.5085 36.6726 19.156 30.6243 17.8304C24.5759 16.5048 18.2561 17.2858 12.7126 20.0438C7.16916 22.8019 2.73498 27.3714 0.145293 32.9946C0.0605222 33.9302 0.0120914 34.8755 0 35.8306C1.5713 31.2747 4.36718 27.2395 8.08099 24.1676C11.7948 21.0957 16.283 19.1057 21.0535 18.4159C25.8239 17.7261 30.6921 18.3632 35.1243 20.2572C39.5564 22.1513 43.3813 25.2291 46.1792 29.1531C48.9772 33.0772 50.6402 37.6959 50.9858 42.5026C51.3315 47.3093 50.3464 52.1183 48.1387 56.4021C45.9309 60.686 42.5858 64.2792 38.4702 66.7877C34.3547 69.2961 29.6276 70.6229 24.8076 70.6225C24.6649 70.6225 24.5243 70.614 24.3822 70.6117C25.2323 70.9071 26.0947 71.1755 26.9721 71.4081C33.774 70.8573 40.1199 67.769 44.7497 62.7566C49.3796 57.7442 51.9546 51.1743 51.9636 44.3514Z" fill="black"/>
<path d="M55.12 44.3819C55.1236 38.2105 53.2416 32.1854 49.7259 27.1129C46.2103 22.0405 41.2286 18.1628 35.448 15.999C29.6673 13.8352 23.3635 13.4885 17.3803 15.0053C11.3972 16.5221 6.02021 19.8301 1.96924 24.4864C1.7125 25.2316 1.47926 25.9872 1.26953 26.7532C4.05308 23.0313 7.6797 20.0224 11.8517 17.9735C16.0238 15.9246 20.6223 14.8939 25.27 14.9662C29.9176 15.0385 34.4819 16.2117 38.5881 18.3894C42.6944 20.5671 46.2256 23.6874 48.892 27.494C51.5584 31.3006 53.2839 35.6851 53.927 40.2877C54.5701 44.8904 54.1124 49.5798 52.5914 53.9713C51.0705 58.3628 48.5296 62.331 45.1774 65.5504C41.8253 68.7698 37.7573 71.1486 33.3074 72.4915C34.1356 72.5592 34.9709 72.601 35.814 72.6123C41.4976 70.3926 46.3799 66.5115 49.8239 61.4755C53.2679 56.4395 55.1136 50.4825 55.12 44.3819Z" fill="black"/>
<path d="M24.8075 10.9517C17.8841 10.9443 11.1307 13.0957 5.48773 17.1061C5.06448 17.7834 4.66009 18.4735 4.28125 19.1798C7.74237 16.3595 11.7474 14.2821 16.0468 13.0773C20.3462 11.8724 24.8477 11.5659 29.2708 12.1768C33.6938 12.7877 37.9436 14.3029 41.7553 16.628C45.5669 18.9531 48.8587 22.0382 51.4254 25.6911C53.9921 29.344 55.7788 33.4863 56.674 37.8598C57.5692 42.2334 57.5538 46.7444 56.6287 51.1118C55.7036 55.4791 53.8887 59.6091 51.297 63.2443C48.7054 66.8796 45.3926 69.9422 41.5652 72.2411C42.3202 72.1316 43.0675 71.9997 43.8072 71.8454C49.6739 67.7991 54.0924 61.983 56.4172 55.2469C58.742 48.5109 58.8511 41.208 56.7287 34.4056C54.6062 27.6031 50.3634 21.6576 44.6202 17.4378C38.8771 13.2181 31.9347 10.9453 24.8075 10.9517Z" fill="black"/>
<path d="M24.8086 7.97853C19.8031 7.97483 14.8512 9.00859 10.2654 11.0145C9.7209 11.5747 9.19493 12.1522 8.6875 12.7469C16.3191 8.84673 25.105 7.84079 33.4209 9.91506C41.7369 11.9893 49.0205 17.0036 53.9254 24.0308C58.8303 31.058 61.0247 39.6231 60.103 48.1425C59.1813 56.662 55.2058 64.5598 48.9114 70.3759C49.6743 70.0935 50.4213 69.7796 51.159 69.4485C56.078 64.2956 59.375 57.8116 60.6406 50.8017C61.9062 43.7918 61.0847 36.5646 58.278 30.0174C55.4714 23.4702 50.8033 17.8912 44.8532 13.9733C38.9031 10.0553 31.9331 7.9708 24.8085 7.97858L24.8086 7.97853Z" fill="black"/>
<path d="M25.0204 4.33838C22.6524 4.34138 20.2893 4.55567 17.9594 4.9787C17.2111 5.41765 16.4798 5.88119 15.7656 6.36931C23.41 4.49186 31.4442 4.97858 38.8059 7.7651C46.1676 10.5516 52.5099 15.5067 56.994 21.975C61.4781 28.4432 63.8927 36.1199 63.9187 43.99C63.9446 51.86 61.5805 59.5525 57.1391 66.0501C57.8534 65.5489 58.5517 65.0268 59.227 64.4768C62.8246 58.4362 64.7569 51.5503 64.8272 44.5202C64.8974 37.4901 63.1032 30.567 59.6271 24.4557C56.151 18.3443 51.1172 13.2631 45.0382 9.7293C38.9592 6.19553 32.0522 4.33542 25.0204 4.33838Z" fill="black"/>
<path d="M27.3125 1.12402C26.3447 1.37054 25.396 1.66352 24.4609 1.98603C24.6474 1.98357 24.8317 1.97186 25.0187 1.97186C31.8777 1.96945 38.6338 3.64021 44.7008 6.83918C50.7678 10.0382 55.9625 14.6688 59.8344 20.3293C63.7063 25.9898 66.1384 32.5094 66.9197 39.3224C67.7011 46.1354 66.8081 53.0362 64.3181 59.426C64.9584 58.6513 65.5607 57.8447 66.1359 57.0179C68.098 50.7523 68.6019 44.1211 67.609 37.631C66.616 31.141 64.1526 24.9636 60.4069 19.5709C56.6611 14.1782 51.7321 9.71268 45.9964 6.51559C40.2607 3.3185 33.8701 1.47439 27.3125 1.12408V1.12402Z" fill="black"/>
<path d="M39.3904 0.139382C38.3737 0.0539176 37.3481 0 36.3092 0C36.0404 0 35.7752 0.0144346 35.5078 0.0202619C46.3917 2.57469 55.9444 9.06739 62.324 18.2465C68.7035 27.4256 71.4582 38.6411 70.0569 49.7305C70.5254 48.5537 70.9314 47.3529 71.2733 46.1332C71.3015 45.4713 71.3239 44.8078 71.3239 44.139C71.3118 34.3776 68.2183 24.8691 62.4843 16.9685C56.7504 9.06795 48.6684 3.17846 39.3904 0.139382Z" fill="black"/>
<path d="M72.615 35.8837C72.5908 33.6871 72.3682 31.4971 71.9497 29.3406C69.5524 21.8175 65.3826 14.9803 59.7912 9.40447C58.2502 7.86916 56.6115 6.4351 54.8853 5.11128C52.9878 3.97794 50.9903 3.02099 48.918 2.25244C55.0797 5.79405 60.393 10.6389 64.4862 16.4481C68.5795 22.2573 71.3537 28.8905 72.615 35.8837Z" fill="black"/>
<path d="M16.312 55.9398C17.2829 55.8488 18.2842 55.8185 19.2551 55.7274C20.7928 55.638 22.3176 55.3941 23.8065 54.9994C24.9408 54.6906 25.9733 54.0874 26.7992 53.251C27.6252 52.4146 28.2152 51.3746 28.5094 50.2366C28.8109 49.2713 28.9943 48.2731 29.0556 47.2637C29.1416 46.7087 29.121 46.1425 28.9949 45.5952C28.9099 45.8746 28.839 46.1582 28.7825 46.4447C28.7306 47.1386 28.6159 47.8263 28.4397 48.4995C28.5043 48.562 28.5655 48.6275 28.6308 48.6895C28.57 48.7555 28.5373 48.8425 28.5397 48.9322C28.5145 49.174 28.5043 49.4172 28.5094 49.6603C28.4011 49.5608 28.299 49.4559 28.1922 49.3551C28.0946 49.652 27.9879 49.9459 27.8722 50.2367C27.7139 50.6251 27.5204 50.9981 27.2941 51.3513C27.4071 51.4437 27.5152 51.5413 27.6295 51.6322C27.5384 51.8699 27.416 52.0943 27.2654 52.2996C27.1272 52.1914 26.9964 52.0755 26.8602 51.9652C26.322 52.6237 25.6496 53.1601 24.888 53.5386C25.0543 53.6706 25.2149 53.8095 25.3842 53.9377C25.1111 54.0894 24.838 54.1805 24.565 54.3017C24.3954 54.1695 24.2348 54.0269 24.0683 53.8909C23.5785 54.0691 23.0748 54.2065 22.5624 54.3017C21.9408 54.4155 21.3133 54.4941 20.6828 54.537C20.8842 54.7218 21.0817 54.9107 21.288 55.0905C20.9239 55.1512 20.5598 55.1815 20.226 55.2118C20.0143 55.0185 19.8111 54.8162 19.6047 54.6174C19.1634 54.6477 18.7224 54.6799 18.2842 54.7265C17.6324 54.79 16.9814 54.8305 16.3339 54.8746C16.4596 55.0047 16.5795 55.1457 16.7064 55.2726C16.3422 55.2726 15.9782 55.3029 15.614 55.3332C15.5023 55.2133 15.3987 55.0883 15.2884 54.9673C15.0534 54.989 14.8153 55.0008 14.5824 55.0299C13.7574 55.1107 12.9588 55.3647 12.2386 55.775C12.4143 55.9706 12.5804 56.1767 12.7619 56.3646C12.5593 56.5306 12.3939 56.7374 12.2764 56.9714C12.0507 56.7311 11.8425 56.4746 11.6246 56.2269C10.9226 56.8806 10.3956 57.6998 10.0918 58.6095C9.83449 59.3009 9.61554 60.0102 9.42188 60.7267C9.61571 60.94 9.81951 61.1437 10.0182 61.3523C10.324 60.3647 10.6931 59.3979 11.1234 58.4579C11.3589 57.9357 11.7066 57.4719 12.1419 57.0996C12.5773 56.7273 13.0894 56.4557 13.6418 56.304C14.5201 56.1084 15.4133 55.9865 16.312 55.9398Z" fill="#8C99B5"/>
<path d="M8.9667 62.6441C8.69538 63.9958 8.51294 65.3639 8.42056 66.7394C8.36008 67.0552 8.39166 67.3816 8.51154 67.6799C8.57224 67.1945 8.60258 66.7394 8.69362 66.3147C9.0255 64.6838 9.45099 63.0734 9.96798 61.4913C9.98438 61.4449 9.99963 61.3986 10.0158 61.3521C9.81708 61.1436 9.61327 60.9398 9.41945 60.7266C9.24775 61.3618 9.095 62.0026 8.9667 62.6441Z" fill="#8C99B5"/>
<path d="M12.7623 56.3645C12.5808 56.1766 12.4147 55.9705 12.239 55.7749C12.2116 55.7908 12.1828 55.8021 12.1555 55.8185C11.9669 55.9387 11.7894 56.0753 11.625 56.2268C11.8429 56.4744 12.0511 56.731 12.2768 56.9713C12.3943 56.7373 12.5597 56.5305 12.7623 56.3645Z" fill="#8C99B5"/>
<path d="M16.7071 55.2725C16.5802 55.1456 16.4603 55.0046 16.3347 54.8745C15.9835 54.8985 15.637 54.9351 15.2891 54.9672C15.3994 55.0882 15.503 55.2132 15.6147 55.3331C15.9789 55.3028 16.343 55.2725 16.7071 55.2725Z" fill="#8C99B5"/>
<path d="M21.2888 55.0906C21.0824 54.9108 20.885 54.722 20.6836 54.5371C20.3247 54.5658 19.9654 54.5926 19.6055 54.6175C19.8119 54.8163 20.0151 55.0186 20.2268 55.2119C20.5605 55.1816 20.9247 55.1512 21.2888 55.0906Z" fill="#8C99B5"/>
<path d="M25.3863 53.9377C25.2169 53.8095 25.0563 53.6705 24.89 53.5386C24.6241 53.6724 24.3504 53.7901 24.0703 53.8909C24.2368 54.0268 24.3974 54.1695 24.567 54.3017C24.8401 54.1804 25.1132 54.0894 25.3863 53.9377Z" fill="#8C99B5"/>
<path d="M27.6286 51.6324C27.5143 51.5415 27.4062 51.4439 27.2933 51.3516C27.1613 51.5649 27.0164 51.7699 26.8594 51.9656C26.9956 52.0758 27.1264 52.1917 27.2645 52.2999C27.4151 52.0946 27.5376 51.8702 27.6286 51.6324Z" fill="#8C99B5"/>
<path d="M28.539 48.9323C28.5365 48.8426 28.5692 48.7555 28.63 48.6896C28.5648 48.6276 28.5036 48.562 28.4389 48.4995C28.3651 48.787 28.2842 49.0727 28.1914 49.3551C28.2982 49.4559 28.4003 49.5608 28.5086 49.6603C28.5036 49.4172 28.5137 49.1741 28.539 48.9323Z" fill="#8C99B5"/>
<path d="M34.5771 38.2843C34.6063 38.2784 34.6338 38.2663 34.6578 38.2488C34.6818 38.2313 34.7017 38.2088 34.7161 38.1828C34.7305 38.1568 34.7391 38.128 34.7413 38.0984C34.7435 38.0688 34.7393 38.0391 34.7288 38.0112C34.7119 37.962 34.6785 37.92 34.6343 37.8924C34.5902 37.8648 34.5378 37.8532 34.4861 37.8596C34.1507 37.919 33.8368 38.0654 33.5758 38.2843C33.5455 38.345 33.4848 38.436 33.5455 38.4966C33.5758 38.527 33.6365 38.527 33.6972 38.5573C33.9959 38.4845 34.2898 38.3933 34.5771 38.2843Z" fill="#8C99B5"/>
<path d="M31.9384 38.5272C32.0598 38.5575 32.1812 38.5878 32.1812 38.4058C32.2115 38.2844 32.1205 38.2237 32.0294 38.1631C31.7915 38.0414 31.5353 37.9594 31.2709 37.9203C31.2471 37.9108 31.2215 37.9063 31.1959 37.9074C31.1702 37.9084 31.1451 37.9149 31.1222 37.9264C31.0992 37.9379 31.079 37.9541 31.0628 37.9739C31.0466 37.9938 31.0348 38.0169 31.0282 38.0417C31.0235 38.101 31.0389 38.1602 31.0719 38.2097C31.1049 38.2593 31.1536 38.2962 31.2102 38.3148C31.4486 38.3995 31.6918 38.4704 31.9384 38.5272Z" fill="#8C99B5"/>
<path d="M21.9247 29.1533C21.5909 29.1533 21.2268 29.1533 20.893 29.1836C20.8323 29.1836 20.7413 29.1533 20.6806 29.2444C20.6199 29.3657 20.7413 29.396 20.802 29.4263C21.2875 29.7601 21.773 30.0937 22.2584 30.3971C22.3252 30.4257 22.3831 30.4718 22.4258 30.5305C22.4686 30.5893 22.4946 30.6585 22.5012 30.7308C22.6984 32.01 22.972 33.2763 23.3204 34.5228C23.5599 35.4233 23.8641 36.3054 24.2307 37.162C24.6285 38.1796 25.1265 39.1552 25.7174 40.0743C27.0531 42.3586 28.7902 44.3832 30.8452 46.0505C31.3225 46.5065 31.9323 46.7991 32.5867 46.8864C33.241 46.9736 33.9062 46.8509 34.4863 46.5359C35.894 45.7916 37.2166 44.8964 38.4307 43.8663C38.9362 43.4989 39.3947 43.071 39.7961 42.5922C39.7207 42.5792 39.6434 42.5834 39.5699 42.6044C39.4963 42.6254 39.4285 42.6627 39.3713 42.7136C38.7342 43.2293 38.0666 43.7147 37.3991 44.1697C36.3692 44.9495 35.2485 45.6014 34.0615 46.1112C33.6824 46.2989 33.2598 46.3811 32.838 46.3491C32.4162 46.3171 32.0108 46.172 31.6645 45.9291C30.4305 45.0339 29.3364 43.9605 28.4179 42.7439C27.3123 41.3994 26.3465 39.9459 25.5354 38.4058C24.812 37.0402 24.2226 35.6077 23.7755 34.1285C23.5025 33.1577 23.2597 32.1869 23.0473 31.2162C22.9563 30.7308 22.9563 30.6702 23.4721 30.7915C24.9153 31.0967 26.42 30.8818 27.72 30.1848C28.1895 29.9386 28.6028 29.5977 28.9337 29.1837C28.873 29.123 28.8427 29.123 28.8427 29.123C28.7705 29.1181 28.6981 29.1285 28.6302 29.1534C27.2255 29.578 25.7264 29.578 24.3217 29.1534C23.7659 28.9951 23.2349 28.7603 22.7439 28.4556C22.4405 28.2129 22.4101 26.3928 22.3798 23.9355C22.3107 24.3672 22.2701 24.803 22.2584 25.24C22.1876 26.3926 22.2079 27.5489 22.3191 28.6983C22.3351 28.7558 22.3366 28.8163 22.3235 28.8744C22.3104 28.9326 22.2831 28.9866 22.244 29.0317C22.205 29.0767 22.1554 29.1114 22.0997 29.1327C22.0439 29.1539 21.9838 29.161 21.9247 29.1533ZM22.8046 28.7589C22.8399 28.7588 22.8742 28.7708 22.9018 28.7928C22.9294 28.8149 22.9487 28.8458 22.9563 28.8803C22.9866 28.9713 22.926 29.0016 22.8653 28.9713C22.8046 28.9713 22.7742 28.9409 22.7439 28.8803C22.734 28.8694 22.7276 28.8558 22.7256 28.8413C22.7236 28.8267 22.7261 28.8119 22.7326 28.7988C22.7392 28.7856 22.7496 28.7748 22.7624 28.7677C22.7753 28.7606 22.79 28.7575 22.8046 28.7589H22.8046Z" fill="#8C99B5"/>
<path d="M29.3281 40.9538C29.6619 41.3179 29.9653 41.6515 30.2687 41.9852C32.0892 43.9874 34.82 43.2896 36.2764 41.0751C36.3675 40.8931 36.3675 40.7717 36.1247 40.8021C35.3539 40.8143 34.5993 40.5805 33.9705 40.1347C33.872 40.0679 33.7557 40.0322 33.6367 40.0322C33.5177 40.0322 33.4014 40.0679 33.3029 40.1347C33.0602 40.2864 32.7568 40.4077 32.5444 40.2257C32.1195 39.892 31.7858 40.074 31.4521 40.2864L30.9969 40.5595C30.4688 40.7897 29.9035 40.9232 29.3281 40.9538ZM31.7859 41.8942C31.8697 41.8857 31.9537 41.9092 32.0212 41.9598C32.0886 42.0104 32.1346 42.0844 32.1499 42.1673C32.1803 42.3493 31.9982 42.3796 31.8465 42.3796C31.6948 42.3493 31.4824 42.3189 31.4521 42.1066C31.4521 41.9549 31.6341 41.8638 31.7859 41.8942Z" fill="black"/>
<path d="M108.518 35.9138L97.2012 29.0672L94.1329 35.9139H92.0874L92.043 35.8916L100.981 15.9297H102.937L112.031 35.9138H108.518ZM109.029 33.9354L101.959 18.4193C100.647 21.3759 99.3133 24.3102 98.0016 27.2667L109.029 33.9354Z" fill="black"/>
<path d="M131.465 15.9297H133.444V35.9139H131.465V15.9297Z" fill="black"/>
<path d="M172.042 15.9297L164.104 35.9139H162.192L154.055 15.9297H156.234L163.148 32.9129L169.885 15.9297H172.042Z" fill="black"/>
<path d="M206.569 35.9142L195.252 29.0676L192.184 35.9142H190.138L190.094 35.892L199.032 15.9302H200.988L210.082 35.9142L206.569 35.9142ZM207.08 33.9358L200.01 18.4197C198.698 21.3762 197.364 24.3105 196.052 27.267L207.08 33.9358Z" fill="black"/>
<path d="M219.011 43.6753H92.2656V44.344H219.011V43.6753Z" fill="#8C99B5"/>
<path d="M97.8382 55.349C97.6957 55.8256 97.5249 56.2932 97.3268 56.7495C96.782 56.894 96.2226 56.976 95.6593 56.994C95.2411 57.0325 94.8196 56.9826 94.422 56.8476C94.0244 56.7126 93.6597 56.4955 93.3514 56.2104C93.0432 55.9253 92.7984 55.5786 92.6329 55.1928C92.4675 54.8069 92.385 54.3906 92.3909 53.9708C92.3909 52.0591 93.8583 50.792 95.9038 50.792C96.4521 50.8146 96.9963 50.8966 97.5269 51.0365C97.5936 51.5478 97.6603 51.9257 97.7048 52.4147L97.438 52.4814C97.3781 52.0675 97.1583 51.6937 96.8257 51.4401C96.4931 51.1865 96.0743 51.0736 95.6593 51.1254C95.3273 51.1371 95.0012 51.2166 94.7011 51.3592C94.4011 51.5017 94.1334 51.7042 93.9147 51.9542C93.6959 52.2041 93.5307 52.4962 93.4293 52.8125C93.3278 53.1287 93.2922 53.4625 93.3247 53.793C93.3247 55.5046 94.3252 56.6605 95.7037 56.6605C96.6376 56.6605 97.1267 56.1492 97.5714 55.2379L97.8382 55.349Z" fill="black"/>
<path d="M105.129 54.0153C105.098 53.7936 105.038 53.5769 104.951 53.3706C104.84 53.215 104.685 53.1483 104.373 53.1483H103.973V55.9714C103.973 56.4827 104.018 56.5493 104.64 56.616V56.8605H102.595V56.616C103.217 56.5716 103.262 56.4827 103.262 55.9714V53.1483H102.817C102.55 53.1483 102.372 53.1928 102.283 53.3929C102.185 53.5986 102.11 53.8148 102.061 54.0375L101.816 53.993C101.859 53.6166 101.881 53.2382 101.883 52.8594H105.374V53.993L105.129 54.0153Z" fill="black"/>
<path d="M113.868 53.1036C113.423 53.1926 113.334 53.2815 113.112 53.815C112.89 54.304 112.601 55.0598 112.089 56.4158C111.813 57.1956 111.479 57.9535 111.089 58.6832C110.844 59.0611 110.644 59.1945 110.511 59.1945C110.386 59.191 110.267 59.1414 110.176 59.0551C110.086 58.9689 110.031 58.8523 110.022 58.7277C110.022 58.5943 110.066 58.5276 110.199 58.5054C110.428 58.4422 110.64 58.3299 110.82 58.1763C111.001 58.0227 111.146 57.8315 111.244 57.6162C111.35 57.427 111.433 57.2254 111.489 57.016C111.516 56.9126 111.508 56.8034 111.467 56.7048C111.067 55.5934 110.622 54.4818 110.311 53.6816C110.155 53.2815 110.044 53.1703 109.555 53.1036V52.8813H111.467V53.1036L111.156 53.1925C110.955 53.237 110.955 53.326 111.044 53.5927L111.956 55.949C112.2 55.371 112.667 54.0372 112.801 53.5704C112.89 53.3037 112.823 53.237 112.578 53.1703L112.267 53.1036V52.8813H113.912V53.1036H113.868Z" fill="black"/>
<path d="M121.403 53.1039C120.803 53.1483 120.758 53.215 120.758 53.704V56.0825C120.758 56.4827 120.803 56.5272 121.069 56.5272H121.425L121.247 58.2166H120.98L120.869 57.4163C120.803 56.9495 120.736 56.8383 120.425 56.8383H118.401C118.09 56.8383 118.001 56.9717 117.89 57.5052L117.712 58.1943H117.445V56.5049H117.779C117.89 56.5049 117.934 56.4605 118.001 56.3493C118.132 56.04 118.236 55.7202 118.312 55.3934C118.438 54.7788 118.505 54.1535 118.513 53.5262C118.513 53.2372 118.424 53.1706 118.068 53.1261L117.801 53.0817V52.8594H121.425V53.1039H121.403ZM120.047 53.5484C120.047 53.1928 120.002 53.1705 119.691 53.1705H119.18C118.935 53.1705 118.89 53.2372 118.89 53.5484C118.877 54.5026 118.743 55.4512 118.49 56.3715C118.446 56.4827 118.49 56.5272 118.601 56.5272H119.58C120.024 56.5272 120.047 56.4827 120.047 56.0603V53.5484H120.047Z" fill="black"/>
<path d="M129.986 53.0817C129.408 53.1261 129.363 53.1928 129.363 53.6374V55.9937C129.363 56.505 129.408 56.5494 129.986 56.6161V56.8606H128.14V56.6161C128.63 56.5716 128.674 56.505 128.674 56.0159V54.7266C128.674 54.4821 128.674 54.1487 128.719 53.4596H128.696L127.051 56.505C127.004 56.5952 126.974 56.6931 126.962 56.7939V56.8607H125.539V56.6161C126.095 56.5716 126.139 56.4828 126.139 55.927V53.7263C126.139 53.1928 126.095 53.1261 125.539 53.0817V52.8594H127.429V53.0817C126.873 53.1261 126.851 53.1928 126.851 53.7263V54.7711C126.851 55.0823 126.851 55.5269 126.806 56.2382H126.829L128.518 53.1483C128.554 53.087 128.577 53.0189 128.585 52.9483V52.8815H130.008V53.0816L129.986 53.0817Z" fill="black"/>
<path d="M136.212 56.8381V56.5936C136.723 56.5491 136.768 56.4824 136.768 55.9045V55.082H136.457C136.33 55.0657 136.201 55.0839 136.083 55.1347C135.966 55.1856 135.864 55.2672 135.79 55.371C135.623 55.6502 135.474 55.9398 135.345 56.2379C135.145 56.6825 134.9 56.8381 134.589 56.8381H133.922V56.5936C134.016 56.5982 134.111 56.5828 134.199 56.5484C134.287 56.5139 134.367 56.4611 134.433 56.3935C134.578 56.194 134.697 55.9775 134.789 55.7489C134.868 55.556 134.992 55.3848 135.15 55.2495C135.309 55.1141 135.498 55.0186 135.701 54.9709V54.9486C134.989 54.8153 134.611 54.4596 134.611 53.9039C134.611 53.1704 135.234 52.8369 136.123 52.8369H138.057V53.0592C137.524 53.1036 137.479 53.1481 137.479 53.7261V55.9045C137.479 56.4824 137.524 56.5491 138.08 56.5714V56.8159H136.212V56.8381ZM136.768 53.4371C136.768 53.2148 136.657 53.1481 136.301 53.1481C135.723 53.1481 135.367 53.4371 135.367 53.9928C135.361 54.1201 135.388 54.2468 135.447 54.36C135.506 54.4732 135.593 54.5689 135.701 54.6374C135.943 54.7763 136.222 54.8384 136.501 54.8152H136.768V53.4371Z" fill="black"/>
<path d="M150.508 54.6822C151.175 54.7711 151.664 55.0601 151.664 55.6602C151.664 56.5939 150.597 56.8384 149.641 56.8384H147.84V56.5939C148.44 56.5494 148.485 56.4827 148.485 55.9048V53.7263C148.485 53.1706 148.44 53.1039 147.884 53.0594V52.8594H150.041C150.841 52.8594 151.397 53.1039 151.397 53.7486C151.372 53.9802 151.271 54.197 151.11 54.3657C150.95 54.5344 150.738 54.6457 150.508 54.6822ZM149.663 54.5711C150.219 54.5711 150.619 54.371 150.619 53.8597C150.619 53.3485 150.241 53.1484 149.707 53.1484C149.241 53.1484 149.196 53.1928 149.196 53.4151V54.5488H149.663V54.5711ZM149.196 55.927C149.196 56.4828 149.374 56.5494 149.796 56.5494C150.352 56.5494 150.841 56.2605 150.841 55.6825C150.841 55.0823 150.374 54.8378 149.707 54.8378H149.196V55.927H149.196Z" fill="black"/>
<path d="M159.98 54.7931C159.999 55.0675 159.963 55.3432 159.874 55.6034C159.784 55.8635 159.642 56.1027 159.457 56.3064C159.272 56.5101 159.048 56.6741 158.797 56.7884C158.547 56.9028 158.276 56.9651 158.001 56.9716C157.735 56.9743 157.472 56.9236 157.227 56.8226C156.981 56.7216 156.758 56.5724 156.572 56.3837C156.385 56.195 156.238 55.9708 156.14 55.7243C156.042 55.4778 155.994 55.214 156 54.9487C155.983 54.6732 156.023 54.3974 156.115 54.1374C156.208 53.8775 156.352 53.6387 156.538 53.4355C156.725 53.2322 156.951 53.0687 157.202 52.9544C157.453 52.8401 157.725 52.7774 158.001 52.7702C158.265 52.7665 158.528 52.8166 158.773 52.9175C159.017 53.0184 159.239 53.168 159.424 53.3572C159.609 53.5464 159.754 53.7713 159.849 54.0181C159.945 54.265 159.989 54.5286 159.98 54.7931ZM156.845 54.6597C156.845 55.8156 157.356 56.6603 158.09 56.6603C158.645 56.6603 159.112 56.238 159.112 54.9931C159.112 53.9261 158.69 53.0592 157.89 53.0592C157.356 53.0592 156.845 53.6149 156.845 54.6597Z" fill="black"/>
<path d="M167.959 53.1037C167.359 53.1704 167.337 53.237 167.337 53.7483V55.9268C167.337 56.4825 167.381 56.5715 167.959 56.6159V56.8604H166.003V56.6159C166.581 56.5715 166.603 56.5048 166.603 55.9268V53.5705C166.603 53.2371 166.581 53.1704 166.292 53.1704H165.803C165.514 53.1704 165.469 53.237 165.469 53.5483C165.514 54.6459 165.244 55.7335 164.691 56.6827C164.535 56.8827 164.402 56.9716 164.291 56.9716C164.155 56.968 164.02 56.9455 163.891 56.9049V56.7493C164.233 56.4446 164.5 56.0639 164.669 55.6379C164.939 55.0136 165.075 54.3396 165.069 53.6594C165.069 53.2815 165.047 53.1703 164.38 53.1036V52.8813H167.959L167.959 53.1037Z" fill="black"/>
<path d="M176.054 54.793C176.074 55.0675 176.038 55.3431 175.948 55.6033C175.858 55.8634 175.716 56.1026 175.531 56.3063C175.346 56.51 175.122 56.674 174.871 56.7883C174.621 56.9027 174.35 56.965 174.075 56.9715C173.809 56.9742 173.546 56.9235 173.301 56.8225C173.055 56.7216 172.833 56.5723 172.646 56.3836C172.459 56.195 172.313 55.9707 172.214 55.7242C172.116 55.4777 172.068 55.2139 172.074 54.9486C172.058 54.6731 172.097 54.3972 172.19 54.1373C172.282 53.8773 172.426 53.6386 172.613 53.4354C172.799 53.2321 173.025 53.0685 173.276 52.9542C173.527 52.8399 173.799 52.7773 174.075 52.7701C174.339 52.7682 174.601 52.8196 174.845 52.9212C175.089 53.0227 175.309 53.1723 175.494 53.3612C175.679 53.55 175.824 53.7741 175.92 54.0201C176.016 54.2661 176.061 54.529 176.054 54.793ZM172.919 54.6596C172.919 55.8155 173.43 56.6603 174.164 56.6603C174.72 56.6603 175.187 56.2379 175.187 54.993C175.187 53.926 174.764 53.0591 173.964 53.0591C173.408 53.0591 172.919 53.6148 172.919 54.6596Z" fill="black"/>
<path d="M183.749 56.038C183.574 56.2983 183.344 56.5168 183.075 56.6782C182.806 56.8396 182.505 56.9397 182.193 56.9716C181.945 56.9721 181.701 56.9223 181.473 56.8253C181.246 56.7282 181.041 56.586 180.87 56.4071C180.7 56.2283 180.568 56.0167 180.481 55.785C180.395 55.5534 180.357 55.3067 180.369 55.0599C180.369 54.7123 180.451 54.3696 180.61 54.0603C180.768 53.751 180.998 53.484 181.281 53.2816C181.678 52.9751 182.159 52.7967 182.659 52.7703C182.947 52.755 183.23 52.8416 183.46 53.0148C183.571 53.1259 183.616 53.1926 183.616 53.3038C183.611 53.3944 183.579 53.4815 183.523 53.5531C183.468 53.6248 183.391 53.6774 183.304 53.7039C183.26 53.7039 183.215 53.6817 183.126 53.5928C182.88 53.3588 182.555 53.2242 182.215 53.2149C181.615 53.2149 181.081 53.7262 181.081 54.682C181.055 54.8844 181.07 55.09 181.126 55.2862C181.182 55.4825 181.277 55.6653 181.406 55.8234C181.535 55.9815 181.695 56.1117 181.876 56.2059C182.057 56.3001 182.256 56.3564 182.459 56.3714C182.671 56.3718 182.88 56.3263 183.071 56.238C183.263 56.1497 183.434 56.0208 183.571 55.8601L183.749 56.038Z" fill="black"/>
</svg>
