<svg width="177" height="65" viewBox="0 0 177 65" fill="none" xmlns="http://www.w3.org/2000/svg">
<path d="M110.11 8.4585H115.485L108.171 32.2677H103.578L98.2367 18.9346L93.1004 32.2677H88.5074L80.9883 8.4585H86.4664L91.1271 24.2746L97.3854 8.69623H99.1218L105.551 24.2746L110.11 8.4585Z" fill="#0F1527"/>
<path d="M118.375 11.4516V6.82568H123.342V11.4516H118.375ZM118.375 37.2318V13.9008H123.342V37.2318L118.375 37.2318Z" fill="#0F1527"/>
<path d="M139.365 14.1384V18.2543H134.738V32.2675H129.771V18.2543H126.574V14.1384H129.805V12.4718C129.728 11.692 129.827 10.905 130.093 10.1681C130.36 9.43123 130.787 8.7631 131.345 8.21239C131.902 7.66168 132.576 7.24229 133.316 6.98481C134.056 6.72733 134.844 6.63825 135.623 6.72405H139.331V10.6351H136.61C136.34 10.5942 136.064 10.6168 135.804 10.7009C135.544 10.785 135.308 10.9285 135.113 11.1199C134.918 11.3114 134.771 11.5455 134.682 11.8038C134.594 12.062 134.566 12.3374 134.603 12.608V14.1385L139.365 14.1384Z" fill="#0F1527"/>
<path d="M142.223 11.4516V6.82568H147.19V11.4516H142.223ZM142.223 37.2318V13.9008H147.19V37.2318L142.223 37.2318Z" fill="#0F1527"/>
<path d="M108.412 56.7817H117.561V61.5778H103.445V37.7686H108.412V56.7817Z" fill="#BFD34B"/>
<path d="M138.176 52.3263C138.176 52.8157 138.141 53.3045 138.073 53.7891H124.194C124.323 54.8944 124.849 55.9155 125.673 56.663C126.52 57.3549 127.591 57.7122 128.684 57.6672C129.479 57.6778 130.264 57.4844 130.964 57.1054C131.629 56.7464 132.182 56.211 132.563 55.5581H137.802C137.183 57.4797 135.962 59.1514 134.321 60.3271C132.679 61.5028 130.703 62.1202 128.684 62.0884C127.418 62.1214 126.16 61.8904 124.989 61.4102C123.817 60.93 122.759 60.211 121.881 59.2991C120.987 58.39 120.285 57.3101 119.817 56.1239C119.35 54.9377 119.126 53.6694 119.16 52.3949C119.155 51.3347 119.31 50.2798 119.618 49.2655C119.907 48.3021 120.356 47.3939 120.945 46.5786C121.513 45.7954 122.195 45.1018 122.969 44.5211C123.762 43.9313 124.647 43.4771 125.589 43.1768C126.589 42.8558 127.634 42.6953 128.684 42.7013C130.421 42.6747 132.132 43.1213 133.634 43.9932C135.064 44.8209 136.231 46.0352 137.002 47.4965C137.788 48.984 138.192 50.6439 138.176 52.3263ZM128.684 46.9187C127.67 46.8865 126.677 47.2114 125.878 47.8366C125.092 48.491 124.547 49.3889 124.33 50.3881H133.209C133.013 49.698 132.677 49.0554 132.223 48.4998C131.801 47.9974 131.272 47.5964 130.674 47.3264C130.048 47.0493 129.369 46.9103 128.684 46.9187Z" fill="#BFD34B"/>
<path d="M156.712 43.1768H160.42V61.5444H156.509L156.1 59.9116C154.454 61.3511 152.332 62.1271 150.146 62.0884C148.869 62.1256 147.598 61.8985 146.412 61.4214C145.227 60.9443 144.153 60.2276 143.258 59.316C142.355 58.4023 141.646 57.3148 141.175 56.1193C140.705 54.9238 140.482 53.6452 140.52 52.361C140.482 51.0854 140.706 49.8155 141.176 48.629C141.646 47.4425 142.353 46.3642 143.254 45.4602C144.155 44.5561 145.231 43.8452 146.416 43.3708C147.601 42.8965 148.87 42.6687 150.146 42.7013C152.366 42.6575 154.519 43.46 156.169 44.9458L156.712 43.1768ZM146.966 55.9659C147.431 56.4371 147.988 56.8073 148.603 57.0532C149.218 57.2991 149.877 57.4154 150.538 57.3948C151.205 57.4044 151.867 57.2816 152.486 57.0335C153.105 56.7854 153.668 56.4169 154.143 55.9494C154.618 55.4819 154.996 54.9247 155.254 54.3101C155.512 53.6955 155.646 53.0358 155.647 52.3692C155.648 51.7026 155.517 51.0425 155.261 50.427C155.005 49.8116 154.629 49.2531 154.155 48.784C153.682 48.3149 153.119 47.9445 152.501 47.6943C151.884 47.4441 151.222 47.3191 150.555 47.3265C149.655 47.3131 148.768 47.5422 147.986 47.9897C147.24 48.4189 146.623 49.0418 146.201 49.7926C145.763 50.5771 145.54 51.463 145.555 52.361C145.534 53.0261 145.648 53.6885 145.89 54.3082C146.133 54.9278 146.499 55.4917 146.966 55.9659Z" fill="#BFD34B"/>
<path d="M176.447 43.449V47.5648H171.82V61.5781H166.853V47.5648H163.656V43.449H166.887V41.7824C166.81 41.0026 166.909 40.2155 167.175 39.4787C167.442 38.7418 167.869 38.0736 168.427 37.5229C168.984 36.9722 169.658 36.5528 170.398 36.2954C171.138 36.0379 171.926 35.9488 172.705 36.0346H176.413V39.9457H173.692C173.422 39.9048 173.146 39.9273 172.886 40.0115C172.626 40.0956 172.39 40.2391 172.195 40.4305C172 40.6219 171.853 40.856 171.764 41.1143C171.676 41.3726 171.648 41.648 171.685 41.9186V43.449L176.447 43.449Z" fill="#BFD34B"/>
<path d="M49.7752 38.2148C50.3007 38.2148 50.827 38.1964 51.3516 38.2182C51.6755 38.1931 52.001 38.2344 52.3083 38.3395C52.6156 38.4446 52.8982 38.6113 53.1388 38.8294C53.3794 39.0475 53.5729 39.3124 53.7075 39.608C53.8421 39.9035 53.915 40.2233 53.9216 40.548C53.9093 41.2927 53.686 42.0187 53.2775 42.6417C52.7125 43.7911 52.1968 44.9678 51.5735 46.0847C50.857 47.3688 50.0792 48.6222 49.2667 49.8483C48.5121 51.0251 47.6936 52.1599 46.8151 53.2473C45.2346 55.2951 43.4212 57.1521 41.4115 58.781C40.328 59.6281 39.1796 60.3887 37.9768 61.0557C37.1745 61.4812 36.3227 61.8471 35.497 62.2332C34.3197 62.715 33.1114 63.1172 31.8802 63.4371C30.9999 63.6603 30.1054 63.8233 29.203 63.925C27.6487 64.2246 26.0613 64.3146 24.4831 64.1926C23.167 64.0581 21.8497 63.8633 20.5419 63.6005C19.5741 63.4061 18.652 63.0793 17.7052 62.8369C16.7518 62.5457 15.8249 62.1736 14.9348 61.7246C14.3682 61.4696 13.8357 61.1379 13.2922 60.833C12.1624 60.2292 11.103 59.5018 10.1337 58.6643C10.0704 58.5823 9.98863 58.5163 9.89505 58.4718C9.80146 58.4273 9.69869 58.4054 9.59508 58.4081C9.49147 58.4107 9.38995 58.4377 9.29875 58.487C9.20755 58.5362 9.12925 58.6062 9.0702 58.6914C8.04053 59.7536 7.00178 60.8073 5.97031 61.8674C5.40094 62.5849 4.70378 63.1909 3.91398 63.6548C3.59958 63.8074 3.24825 63.8673 2.90105 63.8276C2.55385 63.7879 2.22514 63.6502 1.95334 63.4305C1.66554 63.2623 1.4212 63.029 1.23995 62.7493C1.05869 62.4695 0.94557 62.1512 0.909664 61.8199C0.873758 61.4885 0.916071 61.1533 1.0332 60.8413C1.15033 60.5292 1.33902 60.249 1.58411 60.0231C3.09737 58.5477 4.53769 56.9978 6.0245 55.4949C6.2884 55.2282 6.34583 55.0273 6.07925 54.7389C5.25291 53.8217 4.52301 52.8221 3.90103 51.7557C3.13904 50.5064 2.47725 49.1987 1.92189 47.8448C1.42386 46.6747 1.03226 45.4622 0.751824 44.2219C0.563144 43.3035 0.022228 40.1439 0.00725063 39.4942C-0.0211217 38.4734 0.0338046 37.4521 0.171484 36.4403C0.319864 35.3772 0.51398 34.3152 0.64335 33.2465C0.820402 32.2791 1.08767 31.3305 1.44164 30.4129C1.77302 29.3667 2.18831 28.3489 2.68346 27.3694C3.20425 26.3205 3.80195 25.3115 4.47168 24.3507C5.16585 23.3106 5.93991 22.3261 6.78686 21.406C8.596 19.5113 10.5596 17.7703 12.6573 16.201C14.5712 14.7989 16.5799 13.5311 18.669 12.4066C19.432 11.9952 20.2377 11.676 20.9822 11.2255C22.1851 10.4976 24.3375 11.408 24.5752 12.7528C24.6881 13.3917 24.5948 14.0643 24.6679 14.7134C24.767 15.5932 24.912 16.4697 25.0824 17.3389C25.2273 18.0782 25.4581 18.8004 25.6102 19.5386C25.8102 20.3104 26.0715 21.065 26.3916 21.7952C26.8166 22.9263 27.3389 24.0183 27.9527 25.0591C28.6823 26.3392 29.5172 27.5563 30.4488 28.6979C31.3325 29.7891 32.3062 30.8041 33.3598 31.7323C34.5802 32.792 35.8892 33.7451 37.2725 34.581C38.1248 35.1022 39.0077 35.5714 39.9166 35.986C40.7048 36.3412 41.5114 36.6541 42.333 36.9233C43.2673 37.2162 44.2424 37.3671 45.1508 37.7423C45.2701 37.7982 45.3983 37.8328 45.5296 37.8444C46.9374 38.0416 48.3545 38.1652 49.7752 38.2148ZM25.7614 59.8275C25.8364 59.8275 25.9118 59.8328 25.9864 59.8267C27.4597 59.7349 28.9252 59.5431 30.3725 59.2525C30.9011 59.1358 31.4093 58.9767 31.9279 58.8403C32.6939 58.6346 33.4432 58.3707 34.169 58.0509C35.3431 57.5444 36.4611 56.9168 37.505 56.1783C38.4216 55.5718 39.2783 54.8793 40.0636 54.1103C40.2052 53.962 40.3924 53.8201 40.3257 53.5865C40.2416 53.2917 39.9659 53.387 39.7565 53.3496C39.6273 53.3304 39.5002 53.299 39.377 53.2557C38.4403 52.9039 37.4782 52.6235 36.4991 52.4172C34.9931 52.0879 33.5527 51.5325 32.0356 51.2487C31.5444 51.1527 31.0605 51.0224 30.5875 50.859C29.9805 50.6342 29.3557 50.4611 28.7196 50.3414C28.1327 50.2489 27.557 50.0959 27.0016 49.885C25.9857 49.4935 24.9137 49.3585 23.8889 49.029C23.4596 48.8615 23.0176 48.7284 22.5672 48.631C21.8158 48.4946 21.0764 48.2991 20.3558 48.0464C20.1365 47.9396 19.888 47.9085 19.6492 47.9581C19.4103 48.0077 19.1947 48.1351 19.0361 48.3204C18.3832 49.0673 17.6784 49.7692 16.9892 50.484C15.6498 51.8733 14.3065 53.2588 12.9594 54.6406C12.7118 54.8929 12.6369 55.1375 12.9312 55.3441C13.7773 55.9809 14.6595 56.5681 15.5736 57.1027C17.3502 58.1031 19.2683 58.8286 21.2624 59.2543C22.7487 59.5386 24.2513 59.7301 25.7614 59.8275ZM4.61736 40.5114C4.74028 41.6355 4.93713 42.7503 5.20662 43.8486C5.47433 45.0267 5.87876 46.1694 6.4117 47.2536C7.09982 48.7652 7.97974 50.1819 9.02976 51.4688C9.31019 51.8294 9.57832 51.8811 9.90556 51.5323C10.6211 50.7694 11.3138 49.9814 12.0721 49.263C13.4321 47.9747 14.6643 46.5631 16.0117 45.264C16.1355 45.1517 16.2251 45.0068 16.2703 44.846C16.3156 44.6852 16.3146 44.5149 16.2675 44.3545C16.1065 43.5489 15.8171 42.7889 15.5811 42.0089C15.1741 40.6633 14.8828 39.2813 14.4404 37.9485C14.2868 37.4857 14.2168 37.0114 14.0657 36.5542C13.7639 35.6415 13.4245 34.7372 13.1921 33.8065C12.9313 32.7622 12.5747 31.7497 12.281 30.7171C12.0269 29.8234 11.7132 28.943 11.5184 28.0369C11.3061 27.0492 10.9635 26.1039 10.6647 25.147C10.3535 24.1502 10.2635 24.1421 9.56471 24.9236C8.20039 26.4592 7.09036 28.2029 6.27663 30.0889C5.78361 31.1286 5.40811 32.2201 5.15709 33.3431C4.91363 34.2214 4.73612 35.1166 4.62602 36.0214C4.48095 37.5144 4.47805 39.0178 4.61736 40.5114ZM43.0909 49.752C43.5805 49.7549 43.727 49.427 43.9028 49.1849C44.7027 48.0829 45.4822 46.9658 46.2619 45.8492C46.8168 45.0545 47.365 44.2551 47.9065 43.4511C48.0478 43.2415 48.1814 42.9214 47.7967 42.8975C47.0612 42.8519 46.3745 42.5667 45.6364 42.5476C44.2868 42.413 42.9572 42.1227 41.6743 41.6825C40.9051 41.4817 40.174 41.1509 39.4226 40.9007C38.5083 40.5931 37.6201 40.2127 36.7665 39.7633C34.9401 38.8496 33.2177 37.7414 31.6293 36.458C31.5768 36.3941 31.51 36.3434 31.4343 36.3099C31.3586 36.2764 31.2762 36.2612 31.1935 36.2653C31.1109 36.2695 31.0303 36.293 30.9584 36.3339C30.8865 36.3748 30.8251 36.4319 30.7793 36.5008C28.3482 38.945 25.9091 41.3811 23.462 43.8092C23.1241 44.1435 23.2428 44.2711 23.576 44.4635C23.954 44.6818 24.387 44.5927 24.7727 44.7429C25.732 45.0942 26.7152 45.3765 27.7148 45.5878C29.2002 45.9329 30.632 46.4612 32.1328 46.7514C33.3846 46.9934 34.5705 47.5124 35.8336 47.7571C36.3257 47.8499 36.811 47.9753 37.2864 48.1325C37.9742 48.3648 38.6616 48.5816 39.3704 48.7491C39.9971 48.8972 40.6261 49.0485 41.2451 49.2478C41.8769 49.4512 42.5422 49.5779 43.0909 49.752ZM19.9207 16.8612C19.7914 16.8859 19.6718 16.9469 19.5761 17.0372C17.8853 18.1594 16.2345 19.3369 14.5977 20.5367C14.1611 20.8568 13.9729 21.1536 14.1211 21.6484C14.3711 22.4834 14.6448 23.3112 14.894 24.1464C15.1963 25.1593 15.4839 26.1766 15.7772 27.1923C16.04 28.1022 16.2999 29.013 16.5646 29.9224C16.8708 30.9743 17.1374 32.0407 17.5058 33.0705C17.72 33.6694 17.7956 34.2949 18.0071 34.8916C18.3177 35.7461 18.5835 36.6162 18.8033 37.4984C19.0602 38.5668 19.4359 39.5963 19.7454 40.6468C19.848 40.995 20.1124 41.0609 20.3908 40.7885C20.6988 40.4871 20.9922 40.1709 21.2968 39.8659C23.3759 37.7848 25.457 35.7055 27.5399 33.6282C27.6179 33.5761 27.6824 33.5063 27.7285 33.4246C27.7745 33.3429 27.8007 33.2515 27.8049 33.1579C27.8091 33.0642 27.7912 32.9708 27.7528 32.8853C27.7143 32.7998 27.6562 32.7246 27.5833 32.6656C27.0991 32.1213 26.6329 31.5612 26.1848 30.9851C25.2597 29.7907 24.4319 28.5241 23.7092 27.1974C23.0572 26.0548 22.4971 24.8621 22.0344 23.6306C21.5368 22.4271 21.1435 21.1832 20.8587 19.9125C20.701 19.0067 20.3759 18.1253 20.2774 17.1986C20.255 16.9872 20.1601 16.8442 19.9207 16.8612Z" fill="#0F1527"/>
<path d="M54.399 32.7362C53.5781 32.8021 52.7528 32.7908 51.9341 32.7023C51.1249 32.6352 50.328 32.4622 49.564 32.1876C49.0828 32.0187 48.5866 31.8961 48.0821 31.8213C46.6814 31.4225 45.3204 30.8959 44.0161 30.2481C41.7122 29.1497 39.6109 27.6694 37.8011 25.87C36.665 24.7887 35.6238 23.6119 34.6889 22.3527C33.8371 21.1191 33.0746 19.8262 32.4073 18.4838C31.9107 17.4739 31.5324 16.4167 31.1398 15.3755C30.4951 13.9206 30.1004 9.70263 30.0481 8.68622C30.0414 8.55573 30.0641 8.42355 30.0552 8.29339C30.015 7.7621 30.1431 7.23165 30.4213 6.77722C30.6995 6.32278 31.1137 5.96741 31.6052 5.76148C32.1704 5.60431 32.7697 5.6203 33.3257 5.8074C33.8817 5.99449 34.3687 6.34408 34.7238 6.81093C35.2853 7.57691 35.0428 8.3786 35.1021 9.1712C35.1231 9.45165 35.6655 11.8222 35.8175 12.5873C35.9266 13.147 36.1024 13.6916 36.3411 14.2095C36.6169 14.7973 36.8062 15.437 37.0913 16.0342C38.0324 18.0194 39.2863 19.8406 40.8051 21.4283C42.2658 22.9419 43.9425 24.2312 45.7808 25.254C46.9383 25.8967 48.168 26.3999 49.4442 26.7529C50.0316 26.8383 50.6019 27.0158 51.134 27.2789C51.1989 27.3171 51.2713 27.341 51.3462 27.3489C52.798 27.6298 54.2754 27.7572 55.754 27.729C56.3427 27.5853 56.9643 27.6762 57.4873 27.9823C57.949 28.2812 58.3166 28.7048 58.5475 29.2039C58.7784 29.7031 58.8632 30.2574 58.7921 30.8028C58.6497 31.3292 58.3539 31.8013 57.9424 32.1592C57.5309 32.5171 57.0222 32.7445 56.4811 32.8125C55.7874 32.8002 55.0933 32.8101 54.3993 32.8101L54.399 32.7362Z" fill="#BFD34B"/>
<path d="M57.9552 21.2691C57.1954 21.2682 56.4377 21.1921 55.6929 21.0418C54.9322 20.9457 54.2046 20.73 53.4614 20.5855C52.7444 20.421 52.0488 20.1744 51.3884 19.8504C50.2338 19.3463 49.1343 18.7246 48.1074 17.995C47.0246 17.2267 46.0312 16.3398 45.1458 15.3506C44.0272 14.119 43.1052 12.7224 42.4122 11.21C41.8545 10.035 41.4316 8.80082 41.1515 7.53084C40.9764 6.60752 40.9025 5.68638 40.7923 4.76253C40.6817 4.12959 40.7707 3.47792 41.0471 2.89782C41.3234 2.31773 41.7733 1.83791 42.3346 1.52486C42.9992 1.13702 43.7897 1.02585 44.5356 1.21533C45.0182 1.32054 45.4692 1.53776 45.8523 1.84943C46.2354 2.16111 46.5398 2.55851 46.7409 3.00951C46.9021 3.48629 46.9726 3.98904 46.9488 4.49177C47.0592 5.37311 47.2469 6.24304 47.5097 7.0915C47.7643 7.9445 48.1207 8.76371 48.5714 9.53144C49.3888 10.8738 50.4751 12.0326 51.762 12.935C52.7062 13.5827 53.7326 14.1016 54.814 14.478C56.0427 14.8668 57.3339 15.0194 58.6193 14.9277C59.3515 14.9093 60.0669 15.1485 60.6407 15.6036C61.2146 16.0586 61.6104 16.7007 61.7593 17.4177C61.9081 18.1347 61.8005 18.8811 61.4551 19.5269C61.1098 20.1727 60.5487 20.6768 59.8697 20.9512C59.6416 21.0746 59.4025 21.1763 59.1555 21.2551C58.7561 21.2853 58.3551 21.29 57.9552 21.2691Z" fill="#BFD34B"/>
<path d="M53.048 4.47865C53.0426 3.89259 53.1533 3.31127 53.3738 2.76823C53.5943 2.2252 53.9202 1.7312 54.3327 1.31479C54.7453 0.898385 55.2362 0.567807 55.7772 0.342138C56.3182 0.116469 56.8985 0.000186457 57.4847 2.2406e-07C58.0709 -0.000186009 58.6514 0.115724 59.1925 0.341049C59.7336 0.566374 60.2248 0.896645 60.6376 1.31279C61.0503 1.72894 61.3766 2.22272 61.5974 2.76562C61.8183 3.30851 61.9294 3.88977 61.9243 4.47583C61.9195 5.11199 61.7856 5.74055 61.5307 6.32347C61.2759 6.90639 60.9054 7.43155 60.4416 7.86716C59.4274 8.88677 58.1111 8.85951 56.8889 8.87245C55.8153 8.75234 54.8257 8.23471 54.1148 7.42149C53.4039 6.60827 53.0233 5.5584 53.048 4.47865Z" fill="#BFD34B"/>
</svg>
