<svg width="206" height="68" viewBox="0 0 206 68" fill="none" xmlns="http://www.w3.org/2000/svg">
<path d="M43.331 34.5513C43.8565 29.2451 39.9801 24.5176 34.6729 23.9922C29.3656 23.4668 24.6372 27.3424 24.1117 32.6486C23.5862 37.9548 27.4625 42.6823 32.7698 43.2077C38.0771 43.7331 42.8055 39.8575 43.331 34.5513Z" fill="#09A08E"/>
<path d="M6.54556 22.0947H0V28.1484C-1.17214e-06 30.1322 0.390816 32.0966 1.15014 33.9294C1.90946 35.7623 3.02241 37.4276 4.42546 38.8304C5.8285 40.2331 7.49416 41.3459 9.32732 42.105C11.1605 42.8642 13.1253 43.255 15.1095 43.255H21.1644V36.7107C21.1644 34.7913 20.7863 32.8907 20.0516 31.1174C19.3169 29.3441 18.2401 27.7329 16.8826 26.3756C15.5251 25.0184 13.9136 23.9418 12.1399 23.2073C10.3663 22.4728 8.46533 22.0947 6.54556 22.0947Z" fill="#09A08E"/>
<path d="M0 60.97V67.5143H6.05494C10.0622 67.5143 13.9053 65.9228 16.7389 63.0897C19.5725 60.2567 21.1644 56.4143 21.1644 52.4079V46.354H14.6188C10.7417 46.354 7.02331 47.8939 4.28175 50.6349C1.54019 53.376 2.36723e-06 57.0936 0 60.97Z" fill="#09A08E"/>
<path d="M30.9401 46.354H24.3945V52.4078C24.3945 54.3916 24.7853 56.356 25.5447 58.1888C26.304 60.0216 27.417 61.687 28.82 63.0897C30.223 64.4925 31.8887 65.6052 33.7219 66.3644C35.555 67.1236 37.5198 67.5143 39.504 67.5143H45.5589V60.97C45.5589 57.0936 44.0187 53.376 41.2772 50.6349C38.5356 47.8939 34.8173 46.354 30.9401 46.354Z" fill="#09A08E"/>
<path d="M61.0407 45.5176H67.5863V39.464C67.5863 37.4801 67.1955 35.5158 66.4362 33.6829C65.6768 31.8501 64.5639 30.1848 63.1608 28.782C61.7578 27.3793 60.0921 26.2665 58.259 25.5073C56.4258 24.7482 54.461 24.3574 52.4768 24.3574H46.4219V30.9017C46.4219 32.8211 46.8 34.7217 47.5347 36.495C48.2693 38.2683 49.3461 39.8795 50.7036 41.2367C52.0611 42.5939 53.6727 43.6705 55.4463 44.4051C57.22 45.1396 59.1209 45.5176 61.0407 45.5176Z" fill="#5AE3CF"/>
<path d="M54.0939 48.3652H48.582V54.3666C48.582 57.8537 49.9676 61.1979 52.4338 63.6636C54.9 66.1294 58.2449 67.5146 61.7327 67.5146H67.7352V62.0039C67.7352 60.2128 67.3824 58.4393 66.6968 56.7846C66.0113 55.1299 65.0065 53.6263 63.7397 52.3599C62.473 51.0934 60.9692 50.0888 59.3142 49.4034C57.6591 48.718 55.8853 48.3652 54.0939 48.3652Z" fill="#2DBFAA"/>
<path d="M13.1506 19.2475H19.1531V13.7367C19.1531 10.1196 17.7159 6.65053 15.1577 4.0928C12.5994 1.53507 9.12974 0.0981469 5.51186 0.0981445H0V6.0995C9.46896e-06 9.58657 1.38552 12.9308 3.85174 15.3966C6.31796 17.8623 9.66287 19.2475 13.1506 19.2475Z" fill="#2DBFAA"/>
<path d="M67.5863 6.64243V0.0981445H61.5313C57.524 0.0981564 53.6809 1.68974 50.8473 4.52275C48.0138 7.35577 46.4219 11.1982 46.4219 15.2047V21.2584H52.9674C56.8446 21.2584 60.5629 19.7185 63.3045 16.9775C66.0461 14.2364 67.5863 10.5188 67.5863 6.64243Z" fill="#5AE3CF"/>
<path d="M36.6462 21.2584H43.1918V15.2046C43.1918 11.1981 41.5999 7.35574 38.7663 4.52273C35.9328 1.68971 32.0896 0.0981445 28.0824 0.0981445H22.0273V6.64238C22.0273 8.56178 22.4055 10.4624 23.1401 12.2357C23.8748 14.009 24.9516 15.6202 26.3091 16.9775C27.6666 18.3347 29.2782 19.4113 31.0518 20.1458C32.8255 20.8803 34.7264 21.2584 36.6462 21.2584Z" fill="#5AE3CF"/>
<path d="M95.5546 21.9252H88.4158V25.5614H95.4199V29.7092H88.4158V36.6314H84.1055V17.7773H95.5546V21.9252Z" fill="#0F1527"/>
<path d="M103.771 32.4836H110.506V36.6314H99.4609V17.7773H103.771V32.4836Z" fill="#0F1527"/>
<path d="M121.66 37.0082C120.371 37.0314 119.09 36.7927 117.895 36.3066C116.701 35.8205 115.617 35.0972 114.71 34.1803C113.778 33.278 113.043 32.1922 112.551 30.9916C112.06 29.7909 111.822 28.5014 111.854 27.2045C111.822 25.9075 112.059 24.618 112.551 23.4172C113.042 22.2165 113.778 21.1307 114.71 20.2283C116.569 18.4152 119.063 17.4004 121.66 17.4004C124.258 17.4004 126.752 18.4152 128.611 20.2283C129.543 21.1307 130.279 22.2165 130.77 23.4172C131.261 24.618 131.499 25.9075 131.467 27.2045C131.499 28.5014 131.261 29.7909 130.77 30.9916C130.278 32.1922 129.543 33.278 128.611 34.1803C127.704 35.0972 126.62 35.8205 125.426 36.3066C124.231 36.7927 122.95 37.0314 121.66 37.0082ZM121.66 32.8068C122.384 32.828 123.104 32.7002 123.776 32.4315C124.448 32.1628 125.057 31.7588 125.567 31.2447C126.093 30.715 126.505 30.0834 126.779 29.3887C127.052 28.694 127.181 27.9507 127.156 27.2045C127.181 26.4584 127.052 25.7151 126.779 25.0203C126.506 24.3256 126.093 23.694 125.567 23.1644C125.058 22.6502 124.448 22.2462 123.776 21.9774C123.104 21.7087 122.384 21.581 121.66 21.6022C120.933 21.5809 120.209 21.7084 119.533 21.9771C118.856 22.2457 118.242 22.6497 117.728 23.1644C117.205 23.6955 116.797 24.328 116.528 25.0228C116.259 25.7176 116.136 26.4601 116.165 27.2045C116.136 27.9489 116.26 28.6914 116.528 29.3862C116.797 30.081 117.205 30.7135 117.728 31.2447C118.242 31.7593 118.856 32.1632 119.533 32.4319C120.209 32.7005 120.933 32.8281 121.66 32.8068Z" fill="#0F1527"/>
<path d="M145.156 36.6309L141.6 30.436H139.552V36.6309H135.242V17.7769H142.785C143.635 17.7734 144.477 17.9382 145.263 18.2618C146.049 18.5854 146.764 19.0614 147.365 19.6624C147.966 20.2633 148.442 20.9773 148.766 21.7632C149.089 22.5491 149.254 23.3912 149.25 24.2411C149.223 25.3823 148.885 26.4944 148.273 27.4579C147.661 28.4213 146.797 29.1995 145.775 29.7088L149.789 36.631L145.156 36.6309ZM139.553 21.8171V26.6651H142.785C143.086 26.6489 143.381 26.5731 143.653 26.4422C143.925 26.3112 144.168 26.1278 144.368 25.9024C144.569 25.677 144.722 25.4141 144.82 25.129C144.919 24.8438 144.959 24.5421 144.94 24.2411C144.959 23.9402 144.919 23.6384 144.82 23.3533C144.722 23.0681 144.568 22.8053 144.368 22.5799C144.168 22.3545 143.925 22.1711 143.653 22.0401C143.381 21.9092 143.086 21.8334 142.785 21.8171H139.553Z" fill="#0F1527"/>
<path d="M153.164 17.7773H157.474V36.6314H153.164V17.7773Z" fill="#0F1527"/>
<path d="M169.598 17.7771C170.814 17.7496 172.023 17.9775 173.146 18.4461C174.269 18.9146 175.281 19.6135 176.117 20.4975C176.983 21.3824 177.662 22.4318 178.116 23.5838C178.569 24.7357 178.787 25.9668 178.757 27.2044C178.787 28.4459 178.569 29.681 178.116 30.8373C177.663 31.9935 176.983 33.0477 176.117 33.9378C175.279 34.8181 174.266 35.5127 173.143 35.9766C172.02 36.4406 170.812 36.6636 169.598 36.6311H162.055V17.7771H169.598ZM169.598 32.4833C170.265 32.5081 170.931 32.394 171.552 32.1483C172.174 31.9026 172.737 31.5306 173.207 31.0559C173.685 30.5392 174.055 29.9324 174.296 29.2711C174.536 28.6098 174.642 27.9072 174.608 27.2044C174.645 26.5053 174.54 25.8061 174.299 25.1487C174.058 24.4914 173.687 23.8895 173.207 23.3794C172.743 22.8958 172.181 22.5162 171.558 22.2655C170.936 22.0148 170.268 21.8987 169.598 21.9249H166.365V32.4833H169.598Z" fill="#0F1527"/>
<path d="M193.846 36.6314L192.904 33.6688H185.9L184.956 36.6314H180.242L186.654 17.7773H192.149L198.561 36.6314H193.846ZM187.193 29.6286H191.611L189.401 22.7064L187.193 29.6286Z" fill="#0F1527"/>
<path d="M91.2443 41.8489C92.113 41.8261 92.9771 41.9817 93.7833 42.306C94.5895 42.6303 95.3207 43.1164 95.9316 43.7343C96.5376 44.333 97.0187 45.046 97.347 45.832C97.6754 46.618 97.8444 47.4613 97.8444 48.3131C97.8444 49.1648 97.6754 50.0081 97.347 50.7941C97.0187 51.5801 96.5376 52.2931 95.9316 52.8918C95.3207 53.5098 94.5896 53.9959 93.7834 54.3202C92.9772 54.6445 92.113 54.8001 91.2443 54.7772H88.4158V60.7029H84.1055V41.8489H91.2443ZM91.2443 50.7371C91.8633 50.7017 92.4454 50.4309 92.8711 49.9802C93.2969 49.5295 93.5341 48.933 93.5341 48.3131C93.5341 47.6931 93.2969 47.0967 92.8711 46.646C92.4454 46.1953 91.8633 45.9245 91.2443 45.8891H88.4158V50.7371H91.2443Z" fill="#5AE3CF"/>
<path d="M111.585 41.8486H115.895V60.7027H111.585V53.2149H105.658V60.7027H101.348V41.8486H105.658V49.0671H111.585V41.8486Z" fill="#5AE3CF"/>
<path d="M132.464 60.7027L131.521 57.7401H124.517L123.574 60.7027H118.859L125.271 41.8486H130.767L137.178 60.7027H132.464ZM125.81 53.6999H130.228L128.019 46.7777L125.81 53.6999Z" fill="#5AE3CF"/>
<path d="M150.062 60.7027L146.506 54.5078H144.459V60.7027H140.148V41.8487H147.691C148.541 41.8452 149.384 42.0099 150.17 42.3336C150.956 42.6572 151.67 43.1332 152.271 43.7341C152.872 44.3351 153.348 45.0491 153.672 45.835C153.995 46.6208 154.16 47.463 154.157 48.3129C154.129 49.4541 153.792 50.5662 153.179 51.5296C152.567 52.4931 151.703 53.2713 150.681 53.7806L154.696 60.7028L150.062 60.7027ZM144.459 45.8889V50.7369H147.691C148.285 50.6668 148.832 50.3813 149.23 49.9345C149.627 49.4877 149.846 48.9107 149.846 48.3129C149.846 47.7151 149.627 47.1381 149.23 46.6913C148.832 46.2445 148.285 45.9589 147.691 45.8889H144.459Z" fill="#5AE3CF"/>
<path d="M176.92 41.8486V60.7027H172.61V49.7403L167.733 57.7401H167.249L162.373 49.7403V60.7027H158.062V41.8486H162.373L167.491 50.2253L172.61 41.8486H176.92Z" fill="#5AE3CF"/>
<path d="M184.477 6.64243V0.0981445H190.531C192.516 0.0981445 194.48 0.488886 196.314 1.24806C198.147 2.00723 199.812 3.11997 201.215 4.52274C202.619 5.92551 203.731 7.59084 204.491 9.42365C205.25 11.2565 205.641 13.2208 205.641 15.2047V21.2584H199.095C195.218 21.2584 191.5 19.7185 188.758 16.9775C186.017 14.2364 184.477 10.5188 184.477 6.64243Z" fill="#5AE3CF"/>
</svg>
