<svg width="232" height="67" viewBox="0 0 232 67" fill="none" xmlns="http://www.w3.org/2000/svg">
<path d="M107.827 49.6483H107.992C108.519 49.6483 108.783 49.4068 108.783 48.9237C108.78 48.733 108.747 48.544 108.684 48.3638L105.719 40.361H99.9546L97.0886 48.2322C97.0263 48.3896 96.9929 48.557 96.9901 48.7263C96.9764 48.9726 97.0589 49.2146 97.2203 49.4013C97.2804 49.4751 97.3556 49.5353 97.4408 49.5779C97.526 49.6205 97.6193 49.6445 97.7145 49.6483H97.8792V49.9778H94.2227V49.6483H94.3874C94.5569 49.6322 94.7205 49.5779 94.866 49.4896C95.0116 49.4012 95.1352 49.281 95.2277 49.1381C95.5144 48.7754 95.7421 48.3696 95.9023 47.9359L103.446 27.8457L110.825 47.7381C110.985 48.1911 111.201 48.6226 111.467 49.0226C111.575 49.2119 111.731 49.3694 111.918 49.4793C112.106 49.5891 112.32 49.6475 112.538 49.6483H112.703V49.9778H107.827V49.6483ZM100.284 39.2411H105.357L102.821 32.3578L100.284 39.2411Z" fill="#1D1D1B"/>
<path d="M116.328 49.6487H116.493C116.664 49.6504 116.83 49.5854 116.954 49.4674C117.092 49.3387 117.209 49.1887 117.299 49.0229C117.399 48.8464 117.476 48.6584 117.53 48.463C117.583 48.281 117.611 48.0926 117.613 47.9031V30.2831C117.609 30.1046 117.581 29.9274 117.53 29.7563C117.476 29.5609 117.399 29.3729 117.299 29.1964C117.208 29.0308 117.092 28.8808 116.954 28.7519C116.83 28.6341 116.664 28.5691 116.493 28.5706H116.328V28.2412H121.072V28.5706H120.907C120.736 28.5689 120.57 28.6339 120.446 28.7519C120.309 28.8782 120.197 29.0289 120.116 29.1964C120.027 29.3756 119.955 29.5632 119.902 29.7563C119.851 29.9274 119.824 30.1046 119.82 30.2831V48.7593H127.034C127.417 48.7687 127.795 48.6657 128.121 48.463C128.425 48.2689 128.687 48.0172 128.895 47.7222C129.1 47.4317 129.256 47.1089 129.356 46.7671C129.449 46.4627 129.499 46.1465 129.504 45.8281H129.834V49.9781H116.328V49.6487Z" fill="#1D1D1B"/>
<path d="M137.867 49.6487H138.032V49.9781H133.32V49.6487H133.485C133.656 49.6506 133.822 49.5855 133.946 49.4674C134.085 49.339 134.202 49.1889 134.292 49.0229C134.391 48.8479 134.463 48.6592 134.507 48.463C134.549 48.2793 134.571 48.0916 134.573 47.9031V30.2831C134.57 30.1056 134.547 29.929 134.507 29.7563C134.464 29.5623 134.397 29.3743 134.309 29.1964C134.225 29.0261 134.107 28.8748 133.963 28.7519C133.831 28.6352 133.661 28.5708 133.485 28.5706H133.32V28.2412H145.97V31.3041H145.641C145.645 30.8109 145.463 30.3345 145.13 29.9703C144.921 29.7646 144.67 29.6065 144.395 29.507C144.119 29.4075 143.825 29.3689 143.533 29.3938H136.78V37.7264H142.248C142.714 37.7407 143.168 37.5757 143.516 37.2654C143.675 37.1325 143.804 36.9663 143.892 36.7786C143.98 36.5909 144.026 36.3861 144.027 36.1787H144.356V40.2951H144.027C144.026 40.0988 143.982 39.9051 143.896 39.7284C143.81 39.5517 143.686 39.3964 143.533 39.2742C143.172 38.9781 142.714 38.8257 142.248 38.8463H136.78V47.9031C136.781 48.0916 136.803 48.2794 136.845 48.4631C136.888 48.6594 136.961 48.8481 137.06 49.023C137.15 49.1889 137.267 49.3391 137.406 49.4675C137.53 49.5856 137.695 49.6506 137.867 49.6487Z" fill="#1D1D1B"/>
<path d="M154.569 49.6481H154.734V49.9776H150.09V49.6481H150.255C150.336 49.6459 150.415 49.6273 150.489 49.5934C150.562 49.5595 150.628 49.5109 150.683 49.4508C150.818 49.3133 150.935 49.1581 151.029 48.9893C151.129 48.8094 151.201 48.6151 151.242 48.4133C151.284 48.2239 151.307 48.0307 151.308 47.8368V30.2826C151.306 30.1051 151.283 29.9284 151.242 29.7558C151.199 29.5596 151.127 29.3709 151.029 29.1958C150.937 29.0304 150.821 28.8804 150.683 28.7514C150.569 28.638 150.415 28.5731 150.255 28.5701H150.09V28.2407H155.821C157.61 28.1315 159.388 28.5804 160.91 29.5252C161.504 29.9549 161.979 30.5271 162.293 31.1891C162.607 31.8511 162.749 32.5814 162.706 33.3127C162.722 34.0634 162.582 34.8092 162.294 35.5027C162.034 36.1073 161.659 36.6555 161.19 37.1167C160.717 37.5748 160.165 37.943 159.56 38.2034C158.921 38.4821 158.252 38.6865 157.567 38.8126L159.939 42.4353C160.509 43.3138 161.091 44.1757 161.684 45.021C162.278 45.8664 162.86 46.7391 163.43 47.6394C163.584 47.859 163.754 48.0895 163.941 48.3309C164.121 48.5654 164.32 48.7855 164.534 48.9893C164.73 49.1783 164.952 49.3391 165.193 49.4669C165.411 49.5846 165.654 49.6469 165.901 49.6481V49.9776H164.485C163.714 50.0106 162.954 49.7845 162.327 49.3353C161.778 48.9194 161.305 48.4125 160.927 47.8368C159.938 46.3875 158.956 44.9165 157.979 43.4236C157.001 41.9307 156.029 40.4597 155.063 39.0104C154.822 38.9886 154.564 38.9612 154.289 38.9281C154.015 38.895 153.757 38.8571 153.515 38.8126V47.8368C153.517 48.0307 153.539 48.2239 153.582 48.4133C153.623 48.6151 153.695 48.8094 153.795 48.9893C153.887 49.1552 153.998 49.31 154.125 49.4508C154.18 49.514 154.248 49.5644 154.325 49.5984C154.402 49.6325 154.485 49.6495 154.569 49.6481ZM153.515 29.3606V37.7259H153.68C153.855 37.7481 154.136 37.7646 154.52 37.7751C154.904 37.7864 155.382 37.7919 155.953 37.7917C156.449 37.7868 156.942 37.7148 157.419 37.5777C157.944 37.4308 158.436 37.1848 158.868 36.8531C159.334 36.4947 159.716 36.0396 159.988 35.5193C160.306 34.8751 160.459 34.1621 160.433 33.4443C160.463 32.7329 160.297 32.0268 159.955 31.4024C159.636 30.8749 159.181 30.4427 158.638 30.151C158.006 29.8212 157.319 29.6092 156.611 29.5252C155.749 29.4108 154.88 29.3558 154.01 29.3605L153.515 29.3606Z" fill="#1D1D1B"/>
<path d="M169.523 49.6487H169.688C169.86 49.6504 170.025 49.5854 170.149 49.4674C170.287 49.3388 170.404 49.1887 170.494 49.023C170.594 48.8465 170.672 48.6584 170.725 48.463C170.778 48.281 170.806 48.0926 170.808 47.9031V30.2831C170.804 30.1046 170.776 29.9274 170.725 29.7563C170.672 29.5609 170.594 29.3729 170.494 29.1964C170.404 29.0308 170.287 28.8808 170.149 28.7519C170.025 28.6341 169.86 28.5691 169.688 28.5706H169.523V28.2412H182.205V31.3041H181.876C181.835 30.8053 181.625 30.3352 181.283 29.9703C181.065 29.7634 180.805 29.6051 180.521 29.5057C180.238 29.4064 179.936 29.3682 179.636 29.3938H173.015V37.7264H178.483C178.949 37.7407 179.403 37.5757 179.751 37.2654C179.911 37.1325 180.039 36.9663 180.127 36.7786C180.215 36.5909 180.261 36.3861 180.262 36.1787H180.592V40.2951H180.262C180.262 40.0988 180.217 39.9051 180.131 39.7284C180.046 39.5517 179.922 39.3965 179.768 39.2742C179.407 38.9781 178.95 38.8257 178.483 38.8463H173.015V48.8256H180.229C180.613 48.8349 180.99 48.7317 181.316 48.5289C181.614 48.3404 181.876 48.1006 182.09 47.8208C182.295 47.554 182.451 47.253 182.551 46.9319C182.64 46.6717 182.69 46.3997 182.699 46.1249H183.029V49.9782H169.523V49.6487Z" fill="#1D1D1B"/>
<path d="M187.117 49.6482H187.282C187.363 49.646 187.443 49.6274 187.516 49.5934C187.59 49.5595 187.656 49.511 187.71 49.4508C187.846 49.3136 187.962 49.1583 188.056 48.9894C188.156 48.8093 188.229 48.6151 188.27 48.4133C188.312 48.2239 188.334 48.0307 188.336 47.8368V30.2826C188.328 29.9056 188.238 29.5348 188.073 29.1959C187.991 29.0288 187.879 28.8781 187.743 28.7514C187.619 28.6336 187.453 28.5686 187.282 28.5701H187.117V28.2407H193.475C195.08 28.2152 196.673 28.5237 198.152 29.1466C199.477 29.7094 200.671 30.539 201.661 31.5838C202.612 32.5991 203.356 33.7905 203.851 35.091C204.355 36.4049 204.612 37.8007 204.609 39.2079C204.608 40.5528 204.362 41.8863 203.884 43.1435C203.402 44.4268 202.662 45.5981 201.71 46.5854C200.68 47.639 199.447 48.4736 198.086 49.0391C196.488 49.6934 194.773 50.0129 193.046 49.9776H187.117L187.117 49.6482ZM202.402 39.702C202.409 38.3369 202.152 36.9834 201.643 35.7167C201.155 34.4947 200.431 33.3811 199.511 32.44C198.585 31.4982 197.486 30.7435 196.274 30.2168C194.998 29.6614 193.619 29.3808 192.228 29.3933H190.543V48.8251H192.293C193.508 48.8212 194.716 48.6379 195.878 48.2813C197.058 47.9297 198.161 47.3601 199.131 46.602C200.112 45.8303 200.917 44.8593 201.493 43.7531C202.125 42.498 202.437 41.1065 202.402 39.702Z" fill="#1D1D1B"/>
<path d="M220.185 27.9118C221.769 27.8859 223.34 28.1946 224.797 28.8177C226.108 29.3864 227.291 30.2156 228.272 31.2548C229.233 32.2849 229.983 33.4934 230.479 34.8118C230.995 36.1628 231.258 37.5975 231.253 39.0437C231.27 40.6052 230.962 42.1532 230.348 43.5889C229.771 44.9324 228.925 46.1431 227.861 47.1458C226.793 48.1429 225.547 48.9304 224.188 49.4675C222.768 50.0323 221.252 50.3175 219.724 50.3076C218.154 50.3324 216.598 50.0177 215.162 49.3851C213.868 48.8111 212.702 47.9823 211.736 46.948C210.799 45.9335 210.067 44.7482 209.579 43.4568C209.074 42.1433 208.817 40.7476 208.82 39.3404C208.824 37.9175 209.08 36.5066 209.579 35.1738C210.365 33.0067 211.812 31.1406 213.714 29.8379C215.617 28.5353 217.88 27.8616 220.185 27.9118ZM220.169 49.1546C221.521 49.121 222.848 48.7774 224.046 48.1502C225.121 47.5766 226.07 46.7925 226.836 45.8447C227.574 44.9284 228.139 43.8848 228.502 42.7653C229.265 40.4935 229.224 38.0286 228.386 35.7834C227.955 34.5697 227.319 33.439 226.505 32.4404C225.698 31.4475 224.707 30.6199 223.585 30.0033C222.416 29.3686 221.103 29.0454 219.773 29.0647C218.494 29.0436 217.232 29.3556 216.11 29.9702C215.05 30.5591 214.114 31.3476 213.354 32.2922C212.595 33.2361 212.009 34.3064 211.622 35.454C211.236 36.555 211.035 37.7123 211.027 38.8789C211.034 40.1241 211.269 41.3575 211.72 42.5182C212.172 43.7192 212.819 44.8375 213.634 45.8281C214.436 46.8055 215.416 47.6215 216.522 48.2325C217.638 48.8487 218.894 49.1663 220.169 49.1546Z" fill="#1D1D1B"/>
<path d="M98.5625 16.648V10.396H102.156V11.3734H99.6982V13.1433H101.768V14.1207H99.6982V16.648L98.5625 16.648Z" fill="#80807F"/>
<path d="M106.263 13.4779C106.252 13.0572 106.327 12.6387 106.484 12.248C106.641 11.8573 106.875 11.5028 107.174 11.206C107.803 10.6174 108.633 10.29 109.495 10.29C110.357 10.29 111.187 10.6174 111.816 11.206C112.115 11.5028 112.349 11.8573 112.506 12.248C112.663 12.6387 112.738 13.0572 112.727 13.4779C112.739 13.9079 112.664 14.3359 112.507 14.7366C112.351 15.1374 112.116 15.5028 111.816 15.8113C111.195 16.4157 110.362 16.7538 109.495 16.7538C108.628 16.7538 107.795 16.4157 107.174 15.8113C106.874 15.5028 106.639 15.1374 106.482 14.7366C106.326 14.3359 106.251 13.9079 106.263 13.4779ZM107.434 13.4779C107.415 14.0663 107.625 14.6392 108.019 15.0762C108.208 15.2777 108.437 15.4383 108.691 15.5481C108.944 15.6579 109.218 15.7145 109.494 15.7145C109.771 15.7145 110.044 15.6579 110.298 15.5481C110.552 15.4383 110.781 15.2777 110.97 15.0762C111.365 14.6393 111.574 14.0664 111.556 13.4779C111.564 13.1965 111.516 12.9163 111.415 12.6533C111.315 12.3903 111.163 12.1498 110.97 11.9454C110.777 11.7502 110.547 11.5953 110.294 11.4895C110.041 11.3837 109.769 11.3293 109.494 11.3293C109.22 11.3293 108.948 11.3837 108.695 11.4895C108.442 11.5953 108.212 11.7502 108.019 11.9454C107.826 12.1498 107.674 12.3904 107.574 12.6534C107.474 12.9164 107.426 13.1965 107.434 13.4779Z" fill="#80807F"/>
<path d="M117.398 16.648V10.396H119.459C119.859 10.376 120.26 10.4326 120.639 10.5629C120.959 10.6904 121.23 10.9155 121.415 11.2061C121.61 11.5265 121.708 11.8966 121.697 12.2714C121.7 12.6386 121.603 12.9996 121.415 13.315C121.241 13.6163 120.972 13.8505 120.649 13.98V13.9974C120.725 14.1001 120.793 14.2091 120.851 14.3233L122.137 16.648H120.86L119.626 14.3146H118.534V16.648L117.398 16.648ZM118.534 13.3281H119.557C119.689 13.3353 119.821 13.3151 119.945 13.2689C120.07 13.2228 120.183 13.1515 120.278 13.0597C120.369 12.9625 120.439 12.8481 120.484 12.7233C120.529 12.5985 120.549 12.4659 120.542 12.3333C120.563 12.1567 120.527 11.9781 120.438 11.8241C120.349 11.6701 120.213 11.549 120.049 11.4788C119.829 11.3982 119.596 11.3623 119.362 11.3734H118.534V13.3281Z" fill="#80807F"/>
<path d="M126.486 14.4026V10.396H127.623V14.3935C127.612 14.573 127.64 14.7527 127.704 14.9205C127.769 15.0884 127.869 15.2406 127.997 15.3669C128.284 15.5922 128.639 15.7146 129.005 15.7146C129.371 15.7146 129.726 15.5922 130.014 15.3669C130.142 15.2406 130.241 15.0884 130.306 14.9205C130.37 14.7527 130.398 14.573 130.387 14.3935V10.396H131.524V14.4026C131.536 14.7187 131.481 15.0337 131.362 15.3268C131.242 15.6198 131.062 15.8841 130.833 16.102C130.336 16.55 129.682 16.7842 129.014 16.7539C128.341 16.7847 127.683 16.5507 127.182 16.102C126.951 15.8847 126.77 15.6206 126.65 15.3275C126.53 15.0344 126.474 14.7191 126.486 14.4026Z" fill="#80807F"/>
<path d="M136.25 16.648L136.761 10.396H137.968L139.201 13.4867L139.509 14.4026H139.527C139.638 14.0384 139.741 13.733 139.835 13.4867L141.068 10.396H142.275L142.786 16.648H141.649L141.394 13.1521C141.382 13.0287 141.376 12.8867 141.376 12.725C141.376 12.5634 141.379 12.4331 141.385 12.3333V12.1834H141.367C141.232 12.5886 141.118 12.9115 141.024 13.152L140.011 15.5734H139.024L138.012 13.152L137.668 12.1746H137.651C137.669 12.5003 137.666 12.8267 137.642 13.152L137.387 16.648L136.25 16.648Z" fill="#80807F"/>
<path d="M56.5763 38.4831C55.5735 38.4854 54.5737 38.5939 53.5937 38.8067L49.7376 29.4872V29.4873L38.0995 1.3557C37.9333 0.954346 37.6517 0.611315 37.2904 0.369998C36.9291 0.12868 36.5044 -8.87989e-05 36.0699 4.59433e-08C35.6354 8.88908e-05 35.2107 0.129022 34.8495 0.370488C34.4883 0.611953 34.2069 0.955108 34.0408 1.35653L21.3398 32.0566L18.4187 39.1157C14.8886 38.0219 11.0713 38.3459 7.77621 40.0191C4.48115 41.6923 1.96756 44.583 0.768631 48.0782C-0.430301 51.5733 -0.220276 55.3979 1.35411 58.7408C2.92849 62.0837 5.7434 64.682 9.20185 65.9845C9.61495 66.1405 10.0726 66.1296 10.4778 65.954C10.883 65.7784 11.2038 65.452 11.3724 65.0439L20.2039 43.6983C20.3301 43.783 20.4563 43.871 20.5792 43.9614L48.1965 64.1589C50.0083 65.4819 52.1077 66.3571 54.3229 66.7128C56.538 67.0686 58.806 66.8947 60.9411 66.2055C63.0761 65.5164 65.0176 64.3314 66.6065 62.7478C68.1955 61.1641 69.3867 59.2268 70.0826 57.0943C70.7786 54.9618 70.9596 52.6948 70.6107 50.479C70.2618 48.2631 69.393 46.1614 68.0754 44.3458C66.7579 42.5303 65.029 41.0525 63.0303 40.0334C61.0316 39.0144 58.8199 38.4831 56.5763 38.4831ZM8.90625 62.1034C6.60809 60.8053 4.86436 58.7114 4.00376 56.2166C3.14316 53.7218 3.22518 50.9984 4.23437 48.5598C5.24355 46.1213 7.11014 44.1362 9.48224 42.9786C11.8544 41.8211 14.568 41.5713 17.1117 42.2762L8.90625 62.1034ZM21.5241 40.5087L25.7091 30.3913V30.3912L28.994 22.4505L42.9064 56.0761L22.5887 41.2169C22.2416 40.9636 21.8867 40.7276 21.5241 40.5087ZM50.2059 61.4143L48.1832 59.9351L30.834 18.0033L36.0702 5.34719L46.7816 31.2372V31.2371L59.9069 62.9608C58.283 63.4901 56.5566 63.626 54.8699 63.3571C53.1832 63.0882 51.5846 62.4223 50.206 61.4143L50.2059 61.4143ZM62.9409 61.3994L54.9239 42.0218C55.4754 41.9333 56.0327 41.8871 56.5912 41.8835C58.8696 41.884 61.0893 42.6052 62.9326 43.944C64.7759 45.2828 66.1482 47.1704 66.853 49.3366C67.5578 51.5027 67.5589 53.8363 66.8562 56.0031C66.1534 58.17 64.7829 60.0589 62.9409 61.3994Z" fill="#1D1D1B"/>
</svg>
