<svg width="213" height="59" viewBox="0 0 213 59" fill="none" xmlns="http://www.w3.org/2000/svg">
<path d="M78.7734 38.739V17.0879H95.0471V21.9159H84.5764V25.6667H94.7411V29.8403H84.5764V33.9118H95.2799V38.739H78.7734Z" fill="#1D1D1B"/>
<path d="M118.947 30.4077V31.0326C118.947 33.8536 118.326 35.8868 117.085 37.1321C115.844 38.3784 113.813 39.0012 110.992 39.0006H109.028C105.964 39.0006 103.817 38.3487 102.585 37.045C101.354 35.7412 100.738 33.4464 100.738 30.1603V25.6669C100.738 22.3815 101.354 20.0866 102.585 18.7823C103.817 17.4785 105.964 16.8267 109.028 16.8267H110.628C113.672 16.8267 115.795 17.3986 116.998 18.5426C118.2 19.6869 118.801 21.7032 118.801 24.5915V25.0133H113.013V24.6202C113.052 24.2429 113.012 23.8615 112.894 23.5009C112.776 23.1402 112.584 22.8084 112.329 22.527C111.631 22.0489 110.786 21.8326 109.944 21.916C109.5 21.8589 109.048 21.8939 108.618 22.0189C108.188 22.144 107.788 22.3564 107.443 22.6429C107.026 23.1274 106.817 24.2955 106.818 26.1471V29.7097C106.818 31.5511 107.026 32.7119 107.443 33.1921C107.789 33.4762 108.189 33.6865 108.619 33.8103C109.049 33.9341 109.5 33.9687 109.944 33.912C110.808 34.0058 111.676 33.7695 112.373 33.2505C112.892 32.5837 113.132 31.7418 113.042 30.9019V30.4077H118.947Z" fill="#1D1D1B"/>
<path d="M123.973 25.6669C123.973 22.3815 124.588 20.0866 125.819 18.7823C127.05 17.4785 129.196 16.8267 132.258 16.8267H135.103C138.175 16.8267 140.329 17.4811 141.564 18.7901C142.799 20.0982 143.417 22.3905 143.417 25.6669V30.1603C143.417 33.4371 142.799 35.7296 141.564 37.038C140.328 38.347 138.175 39.0011 135.103 39.0005H132.258C129.196 39.0005 127.049 38.3487 125.819 37.045C124.588 35.7412 123.973 33.4463 123.973 30.1602V25.6669ZM129.906 26.1471V29.7097C129.906 31.5608 130.115 32.7239 130.531 33.1991C130.947 33.6741 131.818 33.9117 133.143 33.912H134.218C135.543 33.912 136.419 33.6694 136.845 33.1843C137.271 32.6998 137.483 31.5416 137.484 29.7097V26.1471C137.484 24.3057 137.271 23.14 136.845 22.6499C136.419 22.161 135.543 21.9164 134.218 21.9161H133.143C131.828 21.9161 130.959 22.1584 130.538 22.6429C130.117 23.1275 129.906 24.2955 129.906 26.1471Z" fill="#1D1D1B"/>
<path d="M149.453 38.739V17.0879H160.462C163.526 17.0879 165.673 17.7279 166.905 19.0078C168.136 20.2871 168.752 22.5262 168.752 25.7251V30.1017C168.752 33.3009 168.136 35.5403 166.905 36.82C165.674 38.0993 163.526 38.739 160.462 38.739H149.453ZM155.256 33.9118H159.575C160.904 33.9118 161.776 33.6742 162.193 33.1989C162.61 32.724 162.818 31.5609 162.819 29.7095V26.1469C162.819 24.2959 162.608 23.1278 162.186 22.6427C161.764 22.1582 160.894 21.9159 159.575 21.9159H155.256L155.256 33.9118Z" fill="#1D1D1B"/>
<path d="M171.773 25.6669C171.773 22.3815 172.389 20.0866 173.62 18.7823C174.85 17.4785 176.997 16.8267 180.059 16.8267H182.904C185.976 16.8267 188.129 17.4811 189.365 18.7901C190.6 20.0982 191.218 22.3905 191.218 25.6669V30.1603C191.218 33.4371 190.6 35.7296 189.365 37.038C188.129 38.347 185.975 39.0011 182.904 39.0005H180.059C176.996 39.0005 174.85 38.3487 173.62 37.045C172.389 35.7412 171.773 33.4463 171.773 30.1602V25.6669ZM177.707 26.1471V29.7097C177.707 31.5608 177.915 32.7239 178.331 33.1991C178.748 33.6741 179.618 33.9117 180.944 33.912H182.018C183.344 33.912 184.22 33.6694 184.646 33.1843C185.071 32.6998 185.284 31.5416 185.285 29.7097V26.1471C185.285 24.3057 185.072 23.14 184.646 22.6499C184.22 22.161 183.344 21.9164 182.018 21.9161H180.944C179.628 21.9161 178.76 22.1584 178.339 22.6429C177.918 23.1275 177.707 24.2955 177.707 26.1471H177.707Z" fill="#1D1D1B"/>
<path d="M194.957 38.7389V17.0879H203.683C207.018 17.0879 209.306 17.5265 210.547 18.4038C211.789 19.2814 212.409 20.8204 212.409 23.0209V24.7656C212.482 26.0024 212.105 27.2239 211.347 28.2045C210.53 29.088 209.407 29.6263 208.206 29.7095C209.404 29.8259 210.53 30.3372 211.405 31.1631C212.124 32.0348 212.483 33.1479 212.409 34.2752V38.739H206.475V34.8417C206.551 34.1644 206.361 33.4841 205.945 32.9445C205.374 32.5352 204.672 32.3514 203.974 32.4286H200.76V38.739L194.957 38.7389ZM200.76 27.543H204.003C204.702 27.6213 205.406 27.4402 205.981 27.0341C206.392 26.5002 206.58 25.8274 206.504 25.1578V24.329C206.58 23.6518 206.39 22.9716 205.974 22.4318C205.403 22.0226 204.701 21.8388 204.003 21.9159H200.76L200.76 27.543Z" fill="#1D1D1B"/>
<path d="M21.0209 21.8209C22.5257 23.2515 24.1008 24.7465 25.692 26.2597C25.9025 26.1484 26.1015 26.0165 26.286 25.866C29.122 22.8986 31.9537 19.9271 34.7809 16.9515C35.1433 16.572 35.4726 16.2305 34.9251 15.7154C32.8756 13.7925 30.8451 11.8487 28.7349 9.84418C22.2989 16.6138 15.9427 23.2999 9.49625 30.0818C9.76382 30.3721 10.0181 30.6823 10.3066 30.9574C16.3962 36.7622 22.5058 42.5461 28.5641 48.3832C29.4427 49.2304 29.92 49.1564 30.7265 48.2988C36.4328 42.2265 42.1742 36.1864 47.9507 30.1785C48.7582 29.338 48.9043 28.7869 47.9232 28.0261C47.1433 27.4199 46.4724 26.6743 45.6726 25.9135C47.7809 23.6965 49.8418 21.5278 51.9691 19.2909C55.1164 22.0411 58.4734 24.5873 58.22 29.4092C58.1798 31.5423 57.3557 33.586 55.9048 35.1505C49.3114 42.0984 42.7106 49.0385 36.1026 55.9706C34.4447 57.6606 32.1918 58.6355 29.8247 58.6875C27.4577 58.7394 25.1641 57.8642 23.4337 56.2485C16.5622 49.7635 9.70785 43.2601 2.87051 36.7384C1.99262 35.9128 1.28717 34.9213 0.794966 33.8214C0.302758 32.7214 0.0335601 31.5348 0.0029426 30.3302C-0.0276749 29.1255 0.180895 27.9268 0.61659 26.8033C1.05228 25.6798 1.70646 24.6537 2.54127 23.7846C9.00476 16.9429 15.4891 10.1215 21.9944 3.32028C22.8189 2.44144 23.8097 1.73496 24.9094 1.2418C26.009 0.748651 27.1957 0.478633 28.4005 0.447396C29.6053 0.416159 30.8043 0.624321 31.9281 1.05983C33.0518 1.49534 34.0779 2.1495 34.9469 2.98444C37.2801 5.16065 39.5912 7.36057 41.8801 9.58421C42.7651 10.4166 43.4744 11.4178 43.9664 12.5286C44.4584 13.6394 44.723 14.8374 44.7447 16.052C44.7663 17.2666 44.5446 18.4733 44.0926 19.6009C43.6405 20.7286 42.9673 21.7543 42.1126 22.6177C39.2936 25.6012 36.466 28.5769 33.6299 31.5446C33.295 31.8975 32.9591 32.2504 32.535 32.6962C34.2182 34.2957 35.7924 35.7927 37.3361 37.2583C31.9182 37.3665 26.5659 37.4727 21.39 37.5752C21.2723 32.5635 21.1471 27.2045 21.0209 21.8209" fill="#223E91"/>
</svg>
