<svg width="201" height="79" viewBox="0 0 201 79" fill="none" xmlns="http://www.w3.org/2000/svg">
<path d="M68.7454 36.2784V41.5479H64.1836V25.0747H75.3451C80.5489 25.0747 82.1658 27.3554 82.1658 30.5437V30.7873C82.1658 33.9094 80.4826 36.2785 75.3451 36.2785L68.7454 36.2784ZM68.7454 32.603H75.0126C76.6962 32.603 77.4266 31.8945 77.4266 30.721V30.6321C77.4266 29.4809 76.6962 28.7502 75.0126 28.7502H68.7454V32.603Z" fill="#09A08E"/>
<path d="M85.1562 24.7871H89.4753V31.1859C90.0857 30.4776 90.8445 29.9121 91.6978 29.5295C92.5511 29.1469 93.4781 28.9566 94.4132 28.9719H94.6346C98.245 28.9719 99.861 31.385 99.861 33.5768V41.5478H95.5429V35.149C95.5651 34.7633 95.5028 34.3775 95.3605 34.0184C95.2181 33.6593 94.999 33.3356 94.7185 33.0699C94.438 32.8042 94.1029 32.603 93.7366 32.4803C93.3702 32.3576 92.9815 32.3163 92.5975 32.3593C92.1949 32.3294 91.7903 32.3838 91.4098 32.5188C91.0293 32.6539 90.681 32.8667 90.3873 33.1437C90.0935 33.4207 89.8608 33.7559 89.7037 34.1279C89.5467 34.4998 89.4689 34.9004 89.4753 35.3041V41.5478H85.1563L85.1562 24.7871Z" fill="#09A08E"/>
<path d="M108.037 41.7912H107.682C104.249 41.7912 102.832 39.9314 102.832 37.8943V37.8059C102.832 35.6803 104.183 34.374 108.346 34.0197L111.712 33.7317C112.399 33.6655 112.642 33.4441 112.642 32.9347C112.642 32.3591 112.465 31.7391 110.074 31.7391C107.815 31.7391 107.594 32.6249 107.594 33.0899H103.164V33.0454C103.164 31.8275 103.651 28.9717 109.697 28.9717H110.384C116.474 28.9717 116.85 31.4733 116.85 33.1116V37.1636C116.85 37.9388 117.005 38.2486 117.869 38.2486H118.334V41.5476H114.835C114.344 41.5589 113.865 41.3927 113.487 41.0794C113.108 40.7662 112.856 40.327 112.776 39.8425C112.191 40.512 111.458 41.0365 110.636 41.3746C109.813 41.7128 108.924 41.8554 108.037 41.7912ZM112.642 36.5658V35.6137C111.758 35.8759 110.855 36.0684 109.941 36.1893C107.86 36.5436 107.195 36.8316 107.195 37.6952V37.7392C107.195 38.5144 107.748 39.09 109.254 39.09C111.779 39.09 112.642 37.4956 112.642 36.5658Z" fill="#09A08E"/>
<path d="M120.84 41.5479V29.2597H125.114V31.2745C125.505 30.5606 126.087 29.9693 126.795 29.5666C127.503 29.1639 128.308 28.9656 129.122 28.9939H129.255C132.156 28.9939 133.44 30.8758 133.44 33.7543C133.44 34.2855 133.44 34.6179 133.419 35.1491H128.967V34.9722C128.967 33.2894 128.569 32.3595 127.218 32.3595C125.867 32.3595 125.158 33.4223 125.158 35.0162V41.5479L120.84 41.5479Z" fill="#09A08E"/>
<path d="M136.277 41.5478V29.2596H140.552V31.2522C141.087 30.5208 141.792 29.9308 142.606 29.5334C143.42 29.136 144.319 28.9433 145.225 28.972H145.402C146.297 28.9031 147.192 29.0995 147.976 29.5366C148.76 29.9737 149.397 30.6321 149.809 31.4296C150.406 30.6393 151.185 30.0038 152.079 29.5762C152.973 29.1486 153.956 28.9414 154.946 28.972H155.146C158.999 28.972 160.261 31.6509 160.261 34.064V41.5479H155.943V35.149C155.98 34.781 155.937 34.4092 155.816 34.0596C155.695 33.7101 155.499 33.3912 155.242 33.1255C154.984 32.8597 154.672 32.6534 154.326 32.5211C153.981 32.3887 153.61 32.3335 153.241 32.3594C152.857 32.3478 152.475 32.417 152.12 32.5627C151.764 32.7084 151.444 32.9272 151.178 33.2049C150.913 33.4826 150.709 33.8131 150.58 34.1747C150.451 34.5364 150.399 34.9212 150.429 35.3041V41.5478H146.132V35.149C146.17 34.781 146.127 34.4092 146.006 34.0596C145.885 33.7101 145.688 33.3912 145.431 33.1254C145.174 32.8596 144.861 32.6534 144.516 32.521C144.17 32.3887 143.8 32.3335 143.431 32.3594C143.045 32.3453 142.661 32.4128 142.304 32.5573C141.946 32.7019 141.623 32.9202 141.355 33.1981C141.088 33.4761 140.882 33.8073 140.751 34.1702C140.62 34.5331 140.568 34.9195 140.596 35.3041V41.5478L136.277 41.5478Z" fill="#09A08E"/>
<path d="M177.12 38.4924H168.217L166.889 41.5479H162.305L169.613 25.0747H175.725L183.365 41.5479H178.47L177.12 38.4924ZM172.602 28.3959L169.701 35.105H175.591L172.602 28.3959Z" fill="#09A08E"/>
<path d="M72.9754 61.579C65.4461 61.579 63.4531 56.7523 63.4531 53.3866V52.7226C63.4531 49.2907 65.4461 44.6191 72.9754 44.6191H73.9945C80.904 44.6191 83.2069 48.0066 83.2069 51.1282V51.1727H78.5122C78.446 50.7077 77.8253 48.383 73.485 48.383C69.4544 48.383 68.1923 50.6415 68.1923 52.8555V53.1653C68.1923 55.2024 69.4989 57.7928 73.5072 57.7928C77.8925 57.7928 78.446 55.4237 78.5122 54.8925H83.2069V54.9588C83.2069 57.9697 80.9921 61.579 73.9945 61.579L72.9754 61.579Z" fill="#0F1527"/>
<path d="M93.265 61.6672C86.6431 61.6672 85.625 57.6375 85.625 55.4013V55.0915C85.625 52.8774 86.6431 48.7148 93.2432 48.7148H93.9737C100.794 48.7148 101.592 52.8993 101.592 55.0692V55.4235C101.592 57.6375 100.794 61.6672 93.9519 61.6672H93.265ZM93.7296 58.4349C94.1789 58.479 94.6325 58.4248 95.0588 58.2761C95.4851 58.1275 95.8739 57.8879 96.1984 57.5741C96.5229 57.2602 96.7752 56.8795 96.9378 56.4584C97.1005 56.0373 97.1696 55.5859 97.1404 55.1355C97.1404 53.7407 96.4535 51.8809 93.7296 51.8809H93.4864C90.6518 51.8809 90.0756 53.7407 90.0756 55.1355C90.0756 56.4863 90.6518 58.4349 93.4864 58.4349H93.7296Z" fill="#0F1527"/>
<path d="M104.605 61.3349V49.0466H108.879V51.0392C109.414 50.3079 110.119 49.7179 110.933 49.3205C111.748 48.9231 112.646 48.7302 113.552 48.7585H113.729C114.624 48.6898 115.519 48.8863 116.303 49.3235C117.087 49.7607 117.724 50.4191 118.136 51.2165C118.734 50.4263 119.512 49.7908 120.406 49.3631C121.3 48.9355 122.283 48.7281 123.274 48.7585H123.473C127.327 48.7585 128.589 51.4379 128.589 53.851V61.3349H124.271V54.936C124.308 54.568 124.265 54.1961 124.144 53.8465C124.023 53.497 123.827 53.1781 123.569 52.9123C123.312 52.6466 122.999 52.4403 122.654 52.308C122.308 52.1757 121.938 52.1205 121.569 52.1464C121.185 52.1348 120.803 52.204 120.447 52.3497C120.092 52.4954 119.771 52.7142 119.506 52.992C119.241 53.2697 119.037 53.6002 118.908 53.9618C118.779 54.3235 118.727 54.7082 118.757 55.0911V61.3348H114.46V54.936C114.498 54.568 114.455 54.1961 114.334 53.8465C114.212 53.497 114.016 53.1781 113.759 52.9123C113.501 52.6466 113.189 52.4403 112.843 52.308C112.498 52.1757 112.127 52.1205 111.758 52.1464C111.373 52.1324 110.989 52.1999 110.631 52.3445C110.273 52.489 109.95 52.7074 109.683 52.9853C109.415 53.2632 109.209 53.5944 109.078 53.9573C108.948 54.3201 108.895 54.7065 108.924 55.0911V61.3348L104.605 61.3349Z" fill="#0F1527"/>
<path d="M132.227 49.0472H136.5V50.6193C137.16 50.0017 137.937 49.5228 138.786 49.2109C139.634 48.899 140.536 48.7605 141.439 48.8036H141.727C146.421 48.8036 147.949 52.0141 147.949 54.9366V55.3131C147.949 57.9921 146.378 61.579 141.705 61.579H141.395C140.506 61.6175 139.618 61.4766 138.785 61.1646C137.952 60.8527 137.19 60.3761 136.545 59.7633V65.5643H132.227V49.0472ZM143.476 55.1357C143.476 53.8076 142.856 52.0142 140.154 52.0142H139.933C137.342 52.0142 136.523 53.7188 136.523 55.1357V55.2024C136.523 56.5528 137.342 58.3245 139.933 58.3245H140.154C142.856 58.3245 143.476 56.4643 143.476 55.2024V55.1357Z" fill="#0F1527"/>
<path d="M155.434 61.5787H155.08C151.648 61.5787 150.23 59.719 150.23 57.6819V57.5934C150.23 55.4679 151.582 54.1615 155.745 53.8073L159.111 53.5193C159.797 53.453 160.041 53.2317 160.041 52.7223C160.041 52.1467 159.864 51.5266 157.472 51.5266C155.213 51.5266 154.991 52.4125 154.991 52.8774H150.563V52.833C150.563 51.6151 151.05 48.7588 157.096 48.7588H157.782C163.872 48.7588 164.248 51.2608 164.248 52.8992V56.9511C164.248 57.7263 164.403 58.0361 165.267 58.0361H165.732V61.3351H162.233C161.742 61.3466 161.263 61.1805 160.885 60.8672C160.506 60.5539 160.254 60.1146 160.173 59.6301C159.588 60.2995 158.856 60.824 158.033 61.1622C157.211 61.5003 156.321 61.6429 155.434 61.5787ZM160.041 56.3533V55.4012C159.157 55.6635 158.253 55.856 157.339 55.9768C155.257 56.3311 154.593 56.6191 154.593 57.4827V57.5267C154.593 58.3019 155.147 58.8775 156.653 58.8775C159.177 58.8775 160.041 57.2832 160.041 56.3533Z" fill="#0F1527"/>
<path d="M168.234 49.0468H172.509V50.9954C173.124 50.2795 173.889 49.7079 174.75 49.3213C175.612 48.9347 176.547 48.7426 177.491 48.7587H177.713C181.323 48.7587 182.939 51.1723 182.939 53.3645V61.3351H178.621V54.9362C178.643 54.5506 178.581 54.1647 178.439 53.8056C178.296 53.4465 178.077 53.1228 177.797 52.8572C177.516 52.5915 177.181 52.3903 176.815 52.2676C176.448 52.1448 176.06 52.1036 175.676 52.1466C175.273 52.1167 174.868 52.171 174.488 52.3061C174.107 52.4411 173.759 52.654 173.465 52.931C173.172 53.208 172.939 53.5432 172.782 53.9151C172.625 54.2871 172.547 54.6877 172.553 55.0913V61.3351H168.234V49.0468Z" fill="#0F1527"/>
<path d="M187.13 62.4864H189.832C190.253 62.4864 190.474 62.3095 190.474 61.9774V61.9552C190.438 61.5307 190.301 61.1209 190.076 60.7595L184.805 49.0469H189.544L192.955 57.8588L196.343 49.0469H200.683L195.058 62.5753C194.194 64.5897 193.132 65.564 191.094 65.564H187.13V62.4864Z" fill="#0F1527"/>
<path d="M63.5117 15.9796L63.8316 12.0645H64.5869L65.3592 14L65.5523 14.5735H65.5632C65.6329 14.3456 65.6972 14.1544 65.7562 14L66.5285 12.0645H67.2838L67.6037 15.9796H66.8925L66.7325 13.7904C66.7251 13.7133 66.7213 13.6242 66.7211 13.5233C66.7211 13.4222 66.7233 13.3403 66.7268 13.2776V13.1839H66.7159C66.6314 13.4375 66.5596 13.6396 66.5006 13.7904L65.8665 15.3068H65.249L64.6144 13.7904L64.3995 13.1787H64.3886C64.4 13.3825 64.3981 13.5868 64.383 13.7904L64.223 15.9796L63.5117 15.9796Z" fill="#646464"/>
<path d="M69.0781 15.9796L70.4514 12.0645H71.2014L72.5747 15.9796H71.8469L71.5104 14.9761H70.1371L69.8063 15.9796H69.0781ZM70.3137 14.397H71.3339L70.9865 13.3495L70.8318 12.7429H70.8209C70.7621 13.0004 70.7107 13.2026 70.6666 13.3495L70.3137 14.397Z" fill="#646464"/>
<path d="M74.1953 15.9796V12.0645H74.907L76.391 14.3255C76.4346 14.3952 76.4834 14.4806 76.5366 14.5817C76.5897 14.6828 76.6333 14.7664 76.6664 14.8327L76.7161 14.932H76.7275C76.7013 14.6819 76.6882 14.4798 76.6882 14.3255V12.0645H77.3943V15.9796H76.6882L75.2047 13.7242C75.1606 13.6545 75.112 13.5691 75.0587 13.468C75.0051 13.3669 74.9618 13.2832 74.9288 13.217L74.8791 13.1176H74.8682C74.8939 13.3677 74.9069 13.5699 74.907 13.7242V15.9796H74.1953Z" fill="#646464"/>
<path d="M79.4073 14.5735V12.0645H80.1185V14.5678C80.112 14.6802 80.1295 14.7928 80.1699 14.8979C80.2104 15.003 80.2728 15.0983 80.353 15.1774C80.5332 15.3185 80.7556 15.3952 80.9845 15.3952C81.2134 15.3952 81.4358 15.3185 81.616 15.1774C81.6962 15.0983 81.7586 15.003 81.799 14.8979C81.8395 14.7928 81.857 14.6802 81.8505 14.5678V12.0645H82.5617V14.5735C82.5692 14.7714 82.5344 14.9686 82.4597 15.1521C82.385 15.3356 82.2721 15.501 82.1285 15.6375C81.8177 15.9182 81.4086 16.065 80.9901 16.0458C80.569 16.0652 80.1571 15.9186 79.843 15.6375C79.6986 15.5016 79.585 15.3363 79.5098 15.1527C79.4346 14.9692 79.3997 14.7716 79.4073 14.5735Z" fill="#646464"/>
<path d="M84.5703 15.9796V12.0645H86.82V12.6766H85.2816V13.7852H86.5777V14.3969H85.2816V15.9795L84.5703 15.9796Z" fill="#646464"/>
<path d="M87.9297 15.9796L89.3034 12.0645H90.053L91.4267 15.9796H90.6989L90.3624 14.9761H88.9887L88.6583 15.9796H87.9297ZM89.1656 14.397H90.1855L89.8386 13.3495L89.6834 12.7429H89.6729C89.6137 13.0004 89.5622 13.2026 89.5187 13.3495L89.1656 14.397Z" fill="#646464"/>
<path d="M92.7316 14.0054C92.7239 13.7394 92.7708 13.4745 92.8693 13.2272C92.9678 12.9799 93.1158 12.7554 93.3043 12.5674C93.4929 12.3794 93.7178 12.232 93.9654 12.1341C94.213 12.0363 94.4781 11.9901 94.7442 11.9985C95.0086 11.9869 95.2726 12.0283 95.5207 12.1201C95.7689 12.2119 95.9962 12.3523 96.1894 12.5331L95.8477 13.0625C95.6966 12.9368 95.5262 12.8363 95.343 12.7649C95.1637 12.6903 94.9716 12.651 94.7773 12.649C94.5981 12.6392 94.4188 12.6686 94.2522 12.7353C94.0855 12.802 93.9354 12.9043 93.8124 13.0351C93.5781 13.2986 93.4537 13.6418 93.4646 13.9941C93.456 14.3564 93.5818 14.709 93.8176 14.9841C93.9373 15.1209 94.0862 15.2289 94.2535 15.3001C94.4207 15.3712 94.6018 15.4037 94.7834 15.395C94.9963 15.3927 95.2066 15.3476 95.4017 15.2623C95.5968 15.1771 95.7728 15.0534 95.9191 14.8987L96.2939 15.4116C96.0953 15.6179 95.856 15.7808 95.5912 15.8899C95.3264 15.999 95.0418 16.052 94.7555 16.0456C94.484 16.057 94.2132 16.0114 93.9605 15.9116C93.7078 15.8119 93.4789 15.6602 93.2885 15.4665C93.1033 15.2721 92.9587 15.0428 92.8631 14.792C92.7674 14.5411 92.7228 14.2738 92.7316 14.0054Z" fill="#646464"/>
<path d="M98.8951 15.9795V12.6766H97.6094V12.0645H100.886V12.6766H99.6002V15.9795H98.8951Z" fill="#646464"/>
<path d="M102.501 14.5735V12.0645H103.212V14.5678C103.206 14.6802 103.223 14.7928 103.264 14.8979C103.304 15.003 103.366 15.0983 103.447 15.1774C103.627 15.3185 103.849 15.3952 104.078 15.3952C104.307 15.3952 104.529 15.3185 104.71 15.1774C104.79 15.0984 104.853 15.0032 104.893 14.898C104.933 14.7928 104.951 14.6802 104.944 14.5678V12.0645H105.655V14.5735C105.663 14.7713 105.628 14.9686 105.554 15.152C105.479 15.3355 105.367 15.501 105.223 15.6375C104.912 15.9183 104.503 16.065 104.084 16.0458C103.663 16.0652 103.251 15.9186 102.937 15.6375C102.792 15.5014 102.679 15.3361 102.604 15.1526C102.529 14.9691 102.494 14.7716 102.501 14.5735Z" fill="#646464"/>
<path d="M107.66 15.9795V12.0644H108.951C109.202 12.052 109.453 12.0876 109.69 12.1694C109.89 12.2493 110.06 12.3901 110.176 12.5721C110.298 12.7727 110.359 13.0044 110.352 13.2392C110.354 13.469 110.293 13.695 110.176 13.8924C110.067 14.0813 109.898 14.228 109.695 14.3089V14.3198C109.744 14.384 109.786 14.4522 109.823 14.5237L110.627 15.9795H109.828L109.056 14.5185H108.372V15.9795H107.66ZM108.372 13.9006H109.012C109.095 13.9052 109.178 13.8926 109.255 13.8636C109.333 13.8347 109.404 13.79 109.464 13.7324C109.52 13.6716 109.564 13.6 109.593 13.5218C109.621 13.4437 109.634 13.3606 109.629 13.2775C109.642 13.1671 109.619 13.0554 109.564 12.959C109.508 12.8627 109.423 12.7869 109.321 12.7429C109.183 12.6924 109.037 12.6698 108.89 12.6766H108.372V13.9006Z" fill="#646464"/>
<path d="M112.251 14.5735V12.0645H112.962V14.5678C112.956 14.6802 112.973 14.7928 113.014 14.8979C113.054 15.003 113.117 15.0983 113.197 15.1774C113.377 15.3185 113.599 15.3952 113.828 15.3952C114.057 15.3952 114.28 15.3185 114.46 15.1774C114.54 15.0983 114.602 15.003 114.643 14.8979C114.683 14.7928 114.701 14.6802 114.694 14.5678V12.0645H115.405V14.5735C115.413 14.7714 115.378 14.9686 115.303 15.1521C115.229 15.3356 115.116 15.501 114.972 15.6375C114.661 15.9182 114.252 16.065 113.834 16.0458C113.413 16.0652 113.001 15.9186 112.687 15.6375C112.542 15.5016 112.429 15.3363 112.354 15.1527C112.278 14.9692 112.243 14.7716 112.251 14.5735Z" fill="#646464"/>
<path d="M117.414 15.9796V12.0645H118.125L119.609 14.3255C119.653 14.3952 119.702 14.4806 119.755 14.5817C119.808 14.6828 119.851 14.7664 119.884 14.8327L119.934 14.932H119.945C119.922 14.7306 119.91 14.5282 119.907 14.3255V12.0645H120.613V15.9796H119.907L118.423 13.7242C118.379 13.6545 118.33 13.5691 118.277 13.468C118.224 13.3669 118.18 13.2833 118.147 13.217L118.097 13.1176H118.087C118.112 13.3677 118.125 13.5699 118.125 13.7242V15.9796H117.414Z" fill="#646464"/>
<path d="M122.439 14.0165C122.434 13.75 122.482 13.4852 122.582 13.238C122.682 12.9908 122.83 12.7662 123.019 12.5778C123.207 12.3894 123.432 12.2409 123.679 12.1414C123.926 12.0419 124.191 11.9933 124.458 11.9986C124.988 11.9784 125.507 12.155 125.914 12.4945L125.561 13.0239C125.422 12.9039 125.261 12.8122 125.087 12.7538C124.905 12.6864 124.713 12.6511 124.519 12.6492C124.336 12.6388 124.152 12.6679 123.982 12.7345C123.811 12.8011 123.656 12.9037 123.529 13.0353C123.29 13.2966 123.162 13.6406 123.173 13.9943C123.165 14.1795 123.194 14.3643 123.259 14.5381C123.323 14.7119 123.421 14.8711 123.548 15.0066C123.668 15.1333 123.814 15.2333 123.975 15.3003C124.137 15.3672 124.311 15.3996 124.486 15.3952C124.668 15.3958 124.849 15.36 125.017 15.2899C125.186 15.2198 125.339 15.1168 125.467 14.9869V14.5294H124.866V13.9172H126.107V15.9796H125.5V15.7922L125.505 15.6266H125.495C125.351 15.7608 125.181 15.8641 124.996 15.9299C124.792 16.007 124.576 16.0462 124.358 16.0458C124.105 16.0501 123.854 16.0021 123.62 15.9049C123.386 15.8076 123.175 15.6632 122.999 15.4806C122.812 15.2871 122.666 15.0576 122.569 14.806C122.473 14.5543 122.429 14.2858 122.439 14.0165Z" fill="#646464"/>
<path d="M130.251 14.0059C130.243 13.7398 130.29 13.4749 130.389 13.2275C130.487 12.9801 130.636 12.7556 130.824 12.5676C131.013 12.3796 131.238 12.2321 131.486 12.1344C131.733 12.0366 131.998 11.9905 132.265 11.9989C132.529 11.9875 132.793 12.0289 133.041 12.1207C133.289 12.2125 133.517 12.3529 133.71 12.5336L133.367 13.063C133.216 12.9369 133.046 12.8364 132.863 12.7654C132.684 12.6907 132.492 12.6514 132.298 12.6495C132.118 12.6395 131.939 12.6689 131.772 12.7356C131.606 12.8023 131.456 12.9047 131.333 13.0356C131.099 13.2991 130.974 13.6422 130.985 13.9946C130.976 14.3569 131.102 14.7095 131.338 14.9846C131.458 15.1213 131.606 15.2293 131.773 15.3004C131.941 15.3715 132.122 15.4041 132.303 15.3955C132.516 15.3931 132.726 15.3479 132.922 15.2627C133.117 15.1774 133.293 15.0538 133.44 14.8992L133.814 15.4121C133.616 15.6183 133.376 15.7811 133.112 15.8902C132.847 15.9994 132.562 16.0524 132.276 16.0461C132.004 16.0575 131.734 16.0119 131.481 15.9121C131.228 15.8124 130.999 15.6607 130.809 15.467C130.623 15.2728 130.479 15.0435 130.383 14.7926C130.287 14.5418 130.242 14.2743 130.251 14.0059Z" fill="#646464"/>
<path d="M135.196 13.9942C135.189 13.7308 135.236 13.4687 135.335 13.2241C135.433 12.9796 135.58 12.7576 135.767 12.572C136.161 12.2035 136.68 11.9985 137.22 11.9985C137.76 11.9985 138.279 12.2035 138.673 12.572C138.86 12.7578 139.007 12.9797 139.105 13.2243C139.203 13.4688 139.251 13.7308 139.244 13.9942C139.251 14.2636 139.204 14.5316 139.106 14.7826C139.008 15.0336 138.861 15.2624 138.673 15.4557C138.284 15.834 137.763 16.0457 137.22 16.0457C136.677 16.0457 136.156 15.834 135.767 15.4557C135.579 15.2625 135.432 15.0337 135.334 14.7827C135.236 14.5317 135.189 14.2636 135.196 13.9942ZM135.929 13.9942C135.917 14.3628 136.049 14.7217 136.296 14.9951C136.415 15.1214 136.558 15.222 136.717 15.2908C136.875 15.3596 137.047 15.3951 137.22 15.3951C137.393 15.3951 137.565 15.3596 137.723 15.2908C137.882 15.222 138.025 15.1214 138.144 14.9951C138.391 14.7214 138.522 14.3626 138.51 13.9942C138.515 13.8181 138.485 13.6428 138.423 13.4782C138.36 13.3137 138.265 13.1631 138.144 13.0352C138.023 12.9129 137.879 12.8158 137.721 12.7495C137.562 12.6832 137.392 12.6491 137.22 12.6491C137.048 12.6491 136.878 12.6832 136.719 12.7495C136.561 12.8158 136.417 12.9129 136.296 13.0352C136.175 13.1629 136.08 13.3135 136.017 13.478C135.954 13.6426 135.924 13.8181 135.929 13.9942Z" fill="#646464"/>
<path d="M140.914 15.9796L141.234 12.0645H141.99L142.762 14L142.955 14.5734H142.966C143.036 14.3455 143.1 14.1544 143.159 14L143.931 12.0645H144.687L145.007 15.9796H144.295L144.135 13.7904C144.128 13.7133 144.124 13.6244 144.124 13.5233C144.124 13.4222 144.126 13.3403 144.13 13.2775V13.1838H144.118C144.034 13.4374 143.962 13.6396 143.903 13.7904L143.269 15.3068H142.651L142.017 13.7904L141.802 13.1786H141.791C141.803 13.3824 141.801 13.5868 141.786 13.7904L141.625 15.9795L140.914 15.9796Z" fill="#646464"/>
<path d="M146.91 15.9795V12.0643H148.422C148.588 12.0581 148.753 12.0862 148.908 12.147C149.063 12.2077 149.203 12.2997 149.32 12.4173C149.437 12.5395 149.528 12.6841 149.588 12.8424C149.648 13.0007 149.675 13.1694 149.668 13.3384C149.675 13.5086 149.647 13.6784 149.588 13.8379C149.528 13.9973 149.437 14.1434 149.32 14.2674C149.204 14.3872 149.064 14.4813 148.909 14.5435C148.755 14.6058 148.588 14.6348 148.422 14.6287H147.622V15.9795H146.91ZM147.622 14.0108H148.289C148.378 14.0159 148.467 14.0023 148.55 13.971C148.633 13.9397 148.709 13.8914 148.772 13.8291C148.893 13.695 148.955 13.5185 148.945 13.3385C148.95 13.2505 148.937 13.1626 148.907 13.0797C148.877 12.9968 148.831 12.9207 148.772 12.8557C148.71 12.7948 148.636 12.7474 148.555 12.7166C148.474 12.6858 148.387 12.6721 148.3 12.6766H147.622L147.622 14.0108Z" fill="#646464"/>
<path d="M150.758 15.9796L152.131 12.0645H152.881L154.254 15.9796H153.526L153.19 14.9761H151.817L151.486 15.9796H150.758ZM151.993 14.397H153.014L152.666 13.3495L152.512 12.7429H152.5C152.442 13.0004 152.39 13.2026 152.346 13.3495L151.993 14.397Z" fill="#646464"/>
<path d="M155.879 15.9796V12.0645H156.591L158.075 14.3255C158.118 14.3952 158.167 14.4806 158.22 14.5817C158.273 14.6828 158.317 14.7664 158.35 14.8327L158.4 14.932H158.411C158.385 14.6819 158.372 14.4798 158.372 14.3255V12.0645H159.078V15.9796H158.372L156.888 13.7242C156.845 13.6545 156.796 13.5691 156.743 13.468C156.689 13.3669 156.646 13.2833 156.613 13.217L156.563 13.1176H156.552C156.578 13.3677 156.591 13.5699 156.591 13.7242V15.9796H155.879Z" fill="#646464"/>
<path d="M161.978 15.9796V14.3421L160.672 12.0645H161.477L162.089 13.217L162.326 13.7407H162.338C162.414 13.5534 162.493 13.3788 162.575 13.217L163.181 12.0645H163.987L162.685 14.3421V15.9796H161.978Z" fill="#646464"/>
<path d="M21.9804 4.4053C23.1972 4.4053 24.1835 3.41914 24.1835 2.20265C24.1835 0.986153 23.1972 0 21.9804 0C20.7637 0 19.7773 0.986153 19.7773 2.20265C19.7773 3.41914 20.7637 4.4053 21.9804 4.4053Z" fill="#0F1527"/>
<path d="M8.07025 20.9829C9.28698 20.9829 10.2733 19.9968 10.2733 18.7803C10.2733 17.5638 9.28698 16.5776 8.07025 16.5776C6.85353 16.5776 5.86719 17.5638 5.86719 18.7803C5.86719 19.9968 6.85353 20.9829 8.07025 20.9829Z" fill="#0F1527"/>
<path d="M4.457 45.8496C5.67372 45.8496 6.66006 44.8635 6.66006 43.647C6.66006 42.4305 5.67372 41.4443 4.457 41.4443C3.24028 41.4443 2.25391 42.4305 2.25391 43.647C2.25391 44.8635 3.24028 45.8496 4.457 45.8496Z" fill="#0F1527"/>
<path d="M4.50042 48.7444C3.76702 48.7448 3.04236 48.5852 2.37705 48.2766C1.71175 47.9681 1.12181 47.5181 0.648438 46.958C4.15038 71.526 20.637 78.7216 20.637 78.7216V61.8883L7.16832 47.9771C6.3688 48.4784 5.44416 48.7444 4.50042 48.7444Z" fill="#0F1527"/>
<path d="M4.27427 22.2039C3.88488 21.7464 3.58056 21.2229 3.37574 20.6582C1.16064 25.9806 0.0136533 31.6865 0 37.4513C0 38.7447 0.0365911 39.9966 0.100267 41.2161C0.755026 40.0517 1.84441 39.1941 3.13004 38.8308C4.41567 38.4676 5.79288 38.6282 6.96035 39.2776C8.12781 39.927 8.99047 41.0123 9.35959 42.296C9.72871 43.5797 9.57423 44.9574 8.92995 46.1275L20.6393 58.2216V33.6021L10.6533 23.2879C9.63119 23.882 8.43301 24.099 7.26741 23.9009C6.10181 23.7028 5.04264 23.1023 4.27427 22.2039Z" fill="#0F1527"/>
<path d="M17.9888 5.48416C17.5039 4.91788 17.1507 4.25118 16.9545 3.53203C16.7583 2.81288 16.724 2.05918 16.8541 1.3252C12.8689 5.06996 9.4224 9.34932 6.61328 14.0409C7.58686 13.7467 8.6266 13.7533 9.59637 14.0599C10.5661 14.3664 11.4207 14.9586 12.0482 15.7589C12.6756 16.5592 13.0467 17.5303 13.1129 18.545C13.179 19.5598 12.9372 20.5708 12.4189 21.4458L20.5943 29.8898V7.09725C19.579 6.84384 18.6682 6.27992 17.9888 5.48416Z" fill="#0F1527"/>
<path d="M35.7812 20.9829C36.9979 20.9829 37.9842 19.9968 37.9842 18.7803C37.9842 17.5638 36.9979 16.5776 35.7812 16.5776C34.5645 16.5776 33.5781 17.5638 33.5781 18.7803C33.5781 19.9968 34.5645 20.9829 35.7812 20.9829Z" fill="#09A08E"/>
<path d="M39.3984 45.8496C40.6151 45.8496 41.6015 44.8635 41.6015 43.647C41.6015 42.4305 40.6151 41.4443 39.3984 41.4443C38.1817 41.4443 37.1953 42.4305 37.1953 43.647C37.1953 44.8635 38.1817 45.8496 39.3984 45.8496Z" fill="#09A08E"/>
<path d="M39.4413 48.7444C40.1747 48.7448 40.8993 48.5852 41.5647 48.2766C42.23 47.9681 42.8199 47.5181 43.2933 46.958C39.7913 71.526 23.3047 78.7216 23.3047 78.7216V61.8883L36.7733 47.9772C37.5729 48.4785 38.4975 48.7444 39.4413 48.7444Z" fill="#09A08E"/>
<path d="M39.6698 22.2039C40.0592 21.7464 40.3635 21.2229 40.5683 20.6582C42.7834 25.9806 43.9304 31.6865 43.944 37.4513C43.944 38.7447 43.9074 39.9966 43.8438 41.2161C43.189 40.0517 42.0996 39.1941 40.814 38.8308C39.5284 38.4676 38.1512 38.6282 36.9837 39.2776C35.8162 39.927 34.9536 41.0123 34.5844 42.296C34.2153 43.5797 34.3698 44.9574 35.0141 46.1275L23.3047 58.2216V33.6021L33.2908 23.2879C34.3129 23.882 35.511 24.099 36.6766 23.9009C37.8423 23.7029 38.9014 23.1023 39.6698 22.2039Z" fill="#09A08E"/>
<path d="M25.8634 5.48416C26.3482 4.91788 26.7014 4.25118 26.8976 3.53203C27.0938 2.81288 27.1281 2.05918 26.998 1.3252C30.9833 5.06996 34.4297 9.34932 37.2389 14.0409C36.2653 13.7467 35.2255 13.7533 34.2558 14.0599C33.286 14.3664 32.4314 14.9586 31.804 15.7589C31.1765 16.5592 30.8054 17.5303 30.7392 18.545C30.6731 19.5598 30.915 20.5708 31.4332 21.4458L23.2578 29.8898V7.09725C24.2731 6.84384 25.184 6.27992 25.8634 5.48416Z" fill="#09A08E"/>
</svg>
