<svg width="206" height="74" viewBox="0 0 206 74" fill="none" xmlns="http://www.w3.org/2000/svg">
<path d="M110.416 22.8675L96.9728 6.93556L91.3982 9.13986L93.4057 6.54127L86.7557 0L68.6875 20.3765L79.4782 31.1651L86.666 29.2833L81.6651 34.588L89.9463 52.8677L85.1066 60.0542L77.4528 58.6563L79.3349 70.5381H86.3613L101.992 51.3265L110.416 22.8675ZM86.1104 68.7817L97.1341 51.0217L94.4991 42.8855L100.074 51.1472L86.1104 68.7817ZM97.1341 10.2868L108.23 23.1005L101.436 46.8461L104.555 23.1721L97.1341 10.2868Z" fill="#1B1464"/>
<path d="M68.6877 46.0039L67.7556 50.2154L79.7831 35.269L65.0849 19.7492L75.4812 8.81725L67.433 0L58.8291 2.40142L59.2235 5.68101L56.1045 4.4086L37.8213 9.28316L5.30574 35.8425L3.7463 43.1544L13.7483 35.6095L0 65.4484L0.0716932 70.6814L14.4474 70.5201L12.888 65.5201L28.6079 49.4448L26.9051 53.3337H44.2921L47.5723 48.3337L43.9695 70.5201H57.5744L57.4131 58.7996L68.6877 46.0039ZM8.31712 69.2836L11.7228 66.237L12.8162 69.2836H8.31712ZM39.9006 13.1901L20.5777 30.502L2.5991 63.2262L18.9644 27.3479L38.4665 10.5915L55.2262 5.932L60.8366 7.86744L60.747 3.58429L64.3141 11.9894L55.8536 8.40509L39.9006 13.1901ZM63.7763 22.6704L76.1983 35.3408L70.4444 43.1544L71.3227 38.6024L55.5309 57.581L63.7763 22.6704Z" fill="#1B1464"/>
<path d="M23.5352 60.0003L24.5214 70.5207H35.8678L39.5247 55.3589H26.1343L23.5352 60.0003Z" fill="#1B1464"/>
<path d="M79.0335 39.3193L67.5437 53.8535L66.2173 55.5022L61.8438 60.9862V70.5203H75.7354L73.2797 60.4664L79.0335 39.3193ZM73.7815 69.0866H68.0994L72.025 61.7568L73.7815 69.0866Z" fill="#1B1464"/>
<path d="M104.699 50.6096H111.457C112.645 50.6293 113.831 50.5028 114.988 50.2332C115.881 50.024 116.73 49.66 117.498 49.1579C118.16 48.7135 118.727 48.1407 119.165 47.4734C119.594 46.7969 119.921 46.0599 120.132 45.287C120.295 44.7774 120.374 44.2448 120.365 43.71C120.359 43.3071 120.267 42.9101 120.097 42.5451C119.932 42.2191 119.7 41.932 119.415 41.7028C119.105 41.4624 118.761 41.2691 118.394 41.1293L118.448 40.9501C119.349 40.6939 120.158 40.1838 120.778 39.4806C121.354 38.7821 121.775 37.9698 122.015 37.097C122.234 36.4267 122.283 35.7123 122.158 35.0182C122.037 34.472 121.749 33.9771 121.333 33.6024C120.879 33.2221 120.347 32.9467 119.774 32.796C119.103 32.6117 118.409 32.5212 117.713 32.5271H109.897L104.699 50.6096ZM113.93 36.0397H115.382C115.839 35.9985 116.294 36.133 116.655 36.416C116.788 36.5899 116.872 36.7968 116.897 37.0145C116.923 37.2322 116.889 37.4527 116.798 37.6525C116.697 38.1683 116.413 38.6301 115.998 38.9528C115.583 39.2755 115.065 39.4375 114.54 39.4088H112.998L113.93 36.0397ZM111.959 42.9393H113.536C113.791 42.9052 114.051 42.9348 114.292 43.0255C114.533 43.1162 114.747 43.2651 114.916 43.459C115.03 43.6791 115.095 43.9209 115.107 44.1681C115.12 44.4154 115.079 44.6624 114.988 44.8927C114.855 45.4744 114.518 45.9892 114.038 46.3443C113.554 46.6434 112.993 46.793 112.425 46.7744H110.883L111.959 42.9393Z" fill="#1B1464"/>
<path d="M131.889 47.7959L131.727 50.6096H136.997L137.302 47.7959L137.248 32.4194L131.208 32.5449H127.658L126.78 36.1829L127.892 36.38L121.277 47.7959L119.969 50.6096H125.221L126.673 47.7959H131.889ZM131.907 37.6166L132.444 36.3621H132.677L132.498 37.6166L132.158 43.5665H128.877L131.907 37.6166Z" fill="#1B1464"/>
<path d="M145.762 44.9106H146.73C146.945 44.9011 147.156 44.9713 147.322 45.1077C147.453 45.2493 147.545 45.422 147.591 45.6095C147.64 45.8395 147.67 46.0733 147.68 46.3084V47.097L147.608 50.5916H153.058L153.04 45.8604C153.081 45.2696 152.996 44.6769 152.789 44.122C152.668 43.7941 152.441 43.5164 152.143 43.3335C152.722 43.1315 153.258 42.8214 153.721 42.4195C154.194 42.0191 154.615 41.5616 154.976 41.0575C155.323 40.5768 155.629 40.0671 155.89 39.5342C156.117 39.0676 156.303 38.5819 156.445 38.0825C156.731 37.223 156.811 36.3083 156.678 35.4123C156.551 34.732 156.182 34.1208 155.639 33.6918C154.993 33.2167 154.243 32.9033 153.452 32.7779C152.399 32.5863 151.331 32.4962 150.261 32.509H144.149L138.969 50.5916H144.131L145.762 44.9106ZM148.11 36.7206H149.58C149.84 36.7207 150.098 36.7507 150.351 36.8102C150.562 36.8562 150.755 36.962 150.907 37.1148C151.055 37.2723 151.15 37.4733 151.176 37.6883C151.203 37.9971 151.167 38.3084 151.068 38.6023C150.981 38.9188 150.861 39.2252 150.709 39.5163C150.576 39.7919 150.394 40.0409 150.172 40.2511C149.951 40.4686 149.689 40.6393 149.401 40.7529C149.07 40.8806 148.716 40.9415 148.361 40.9321H146.874L148.11 36.7206Z" fill="#1B1464"/>
<path d="M172.758 38.1186C173.044 37.2591 173.124 36.3444 172.991 35.4484C172.864 34.7681 172.494 34.1569 171.951 33.7279C171.306 33.2528 170.556 32.9394 169.764 32.8139C168.712 32.6224 167.644 32.5324 166.574 32.5451H160.462L155.281 50.6276H160.444L162.075 44.9287H163.043C163.257 44.9191 163.468 44.9893 163.634 45.1258C163.765 45.2673 163.858 45.4401 163.903 45.6276C163.953 45.8576 163.983 46.0914 163.993 46.3265V47.115L163.921 50.6096H169.37L169.352 45.8785C169.394 45.2877 169.308 44.6949 169.101 44.1401C168.981 43.8122 168.754 43.5345 168.456 43.3516C169.035 43.1496 169.57 42.8394 170.033 42.4375C170.506 42.0371 170.928 41.5796 171.288 41.0755C171.636 40.5948 171.942 40.0852 172.202 39.5522C172.427 39.0905 172.613 38.611 172.758 38.1186ZM167.398 38.5846C167.312 38.9011 167.191 39.2075 167.04 39.4985C166.907 39.7741 166.725 40.0231 166.502 40.2333C166.282 40.4508 166.019 40.6215 165.731 40.7351C165.4 40.8628 165.047 40.9237 164.692 40.9143H163.204L164.405 36.7028H165.875C166.134 36.7029 166.393 36.733 166.646 36.7924C166.856 36.8385 167.049 36.9442 167.201 37.0971C167.35 37.2545 167.444 37.4556 167.47 37.6706C167.532 37.9759 167.507 38.2927 167.398 38.5846Z" fill="#1B1464"/>
<path d="M173.441 49.158C173.884 49.8012 174.527 50.28 175.27 50.5201C176.298 50.8598 177.378 51.0175 178.46 50.986C179.644 51.0078 180.823 50.8445 181.956 50.5021C182.893 50.2077 183.764 49.7329 184.519 49.1043C185.243 48.4889 185.85 47.7484 186.311 46.918C186.81 46.0107 187.201 45.0483 187.477 44.0505L190.775 32.5272H185.505L182.081 44.4448C181.996 44.7704 181.87 45.0836 181.705 45.3767C181.572 45.6523 181.39 45.9013 181.167 46.1115C180.962 46.3131 180.718 46.4716 180.45 46.5774C180.153 46.6906 179.836 46.7454 179.518 46.7387C179.243 46.7585 178.969 46.6961 178.729 46.5595C178.546 46.448 178.407 46.2772 178.335 46.0756C178.253 45.8398 178.229 45.588 178.263 45.3409C178.285 45.0373 178.339 44.737 178.425 44.4448L181.848 32.5093H176.578L173.334 43.8176C173.023 44.8227 172.854 45.8661 172.832 46.9179C172.836 47.705 173.046 48.4773 173.441 49.158Z" fill="#1B1464"/>
<path d="M197.407 36.7207C197.925 36.5153 198.481 36.4236 199.038 36.4519C199.343 36.4519 199.647 36.4698 199.952 36.4878C200.27 36.5069 200.587 36.5428 200.902 36.5953C201.225 36.649 201.583 36.7028 201.942 36.7924C202.3 36.8641 202.712 36.9716 203.143 37.0791L205.15 33.1006C204.648 32.9214 204.164 32.778 203.698 32.6526C203.256 32.5314 202.807 32.4356 202.354 32.3658C201.924 32.2941 201.476 32.2404 201.045 32.2045C200.615 32.1687 200.167 32.1508 199.701 32.1508C198.682 32.143 197.666 32.2513 196.672 32.4734C195.797 32.6666 194.96 33.0058 194.198 33.477C193.462 33.9201 192.827 34.5122 192.334 35.2153C191.783 35.9837 191.376 36.8461 191.133 37.7602C190.941 38.3742 190.863 39.0177 190.9 39.6598C190.948 40.1992 191.133 40.7174 191.438 41.1652C191.806 41.6561 192.262 42.0752 192.782 42.4018C193.474 42.8309 194.207 43.1911 194.969 43.477C195.399 43.6383 195.758 43.7996 196.026 43.925C196.257 44.0261 196.469 44.1655 196.654 44.3372C196.787 44.4531 196.875 44.6114 196.905 44.7853C196.921 44.9852 196.897 45.1864 196.833 45.3766C196.766 45.5961 196.643 45.794 196.475 45.9501C196.293 46.112 196.087 46.245 195.865 46.3444C195.613 46.4538 195.348 46.532 195.076 46.5774C194.787 46.6286 194.493 46.6526 194.198 46.649C193.405 46.6486 192.613 46.5766 191.832 46.434C191.046 46.2866 190.277 46.0584 189.538 45.753L187.387 49.7136C187.681 49.8841 187.986 50.0338 188.301 50.1616C188.716 50.3255 189.141 50.4631 189.574 50.5738C190.112 50.704 190.656 50.8057 191.205 50.8784C191.865 50.9594 192.529 51.0013 193.194 51.0039C194.293 51.0131 195.389 50.8867 196.457 50.6276C197.402 50.3988 198.304 50.0174 199.127 49.4985C199.908 49.0016 200.589 48.3635 201.135 47.6168C201.718 46.8047 202.149 45.894 202.408 44.9286C202.593 44.3505 202.654 43.7398 202.587 43.1365C202.523 42.6424 202.345 42.17 202.067 41.7566C201.771 41.3235 201.394 40.9522 200.956 40.6634C200.448 40.3186 199.915 40.013 199.361 39.7494C198.733 39.4447 198.213 39.1938 197.837 39.0146C197.532 38.8703 197.238 38.7025 196.959 38.5128C196.794 38.4139 196.668 38.2624 196.6 38.0827C196.562 37.9228 196.568 37.7555 196.618 37.5988C196.685 37.4075 196.789 37.2314 196.924 37.0806C197.06 36.9299 197.224 36.8076 197.407 36.7207Z" fill="#1B1464"/>
<path d="M111.921 57.366C111.87 56.8121 111.651 56.2869 111.294 55.8606C110.907 55.4359 110.411 55.1259 109.86 54.9645C109.156 54.757 108.424 54.6602 107.691 54.6778H103.281L98.8359 70.2334H100.646L102.26 64.6061H105.002C106.543 64.6935 108.064 64.2265 109.291 63.2897C110.517 62.3528 111.367 61.008 111.688 59.4986C111.906 58.8101 111.985 58.0853 111.921 57.366ZM109.806 59.5344C109.554 60.606 108.963 61.5676 108.121 62.2764C107.332 62.8707 106.366 63.1802 105.378 63.1545H102.672L104.679 56.1294H107.314C107.746 56.0731 108.184 56.1183 108.595 56.2614C109.006 56.4046 109.377 56.6416 109.68 56.9537C109.901 57.3442 110.028 57.781 110.05 58.2292C110.072 58.6773 109.988 59.1244 109.806 59.5344Z" fill="#1B1464"/>
<path d="M123.968 55.6993C123.585 55.319 123.109 55.047 122.587 54.9108C121.909 54.7348 121.209 54.6504 120.508 54.6599H115.884L111.402 70.2334H113.195L115.005 63.9431H117.658C117.831 63.9443 118.002 63.9809 118.16 64.0506C118.335 64.1253 118.489 64.2423 118.608 64.3911C118.766 64.5724 118.893 64.7782 118.985 65.0004C119.109 65.2986 119.193 65.612 119.235 65.9323L119.863 70.2513H121.745L121.1 65.4664C121.061 65.0236 120.939 64.592 120.741 64.194C120.612 63.911 120.407 63.6692 120.15 63.495C120.679 63.4067 121.186 63.2116 121.637 62.9216C122.085 62.6342 122.49 62.2841 122.838 61.8821C123.19 61.4778 123.491 61.0325 123.735 60.5559C123.972 60.0977 124.164 59.6176 124.308 59.1222C124.524 58.4702 124.603 57.781 124.541 57.0971C124.525 56.5773 124.321 56.0809 123.968 55.6993ZM122.48 59.1939C122.25 60.1434 121.745 61.0039 121.028 61.6671C120.28 62.2706 119.335 62.5769 118.375 62.5273H115.418L117.246 56.1473H120.168C120.563 56.0959 120.964 56.1336 121.342 56.2577C121.721 56.3817 122.067 56.5889 122.354 56.8641C122.56 57.2144 122.678 57.6086 122.7 58.0138C122.722 58.4191 122.646 58.8237 122.48 59.1939Z" fill="#1B1464"/>
<path d="M138.559 62.4199C138.895 61.3263 139.088 60.1938 139.133 59.0507C139.178 58.1795 139.024 57.3095 138.685 56.5059C138.378 55.8246 137.855 55.2639 137.197 54.9109C136.405 54.5086 135.522 54.3173 134.634 54.3553C133.637 54.3462 132.649 54.5414 131.73 54.9288C130.828 55.3151 130.007 55.8684 129.31 56.5596C128.549 57.3224 127.903 58.1917 127.392 59.1403C126.811 60.2141 126.354 61.3504 126.03 62.5274C125.695 63.6275 125.503 64.7657 125.456 65.9145C125.413 66.7798 125.566 67.6437 125.904 68.4414C126.218 69.1191 126.748 69.6737 127.41 70.0185C128.214 70.4039 129.1 70.5884 129.991 70.5561C130.981 70.5677 131.963 70.3787 132.877 70.0006C133.77 69.612 134.588 69.0725 135.297 68.4056C136.062 67.653 136.709 66.7889 137.215 65.8429C137.782 64.7523 138.233 63.605 138.559 62.4199ZM136.677 62.4199C136.417 63.3362 136.081 64.2293 135.673 65.0902C135.315 65.8466 134.857 66.5518 134.311 67.1869C133.82 67.751 133.223 68.2136 132.555 68.549C131.886 68.877 131.149 69.0428 130.404 69.0329C129.75 69.0662 129.101 68.904 128.539 68.5669C128.074 68.2486 127.733 67.7806 127.571 67.2408C127.384 66.5709 127.329 65.8707 127.41 65.1798C127.503 64.2744 127.683 63.3801 127.948 62.5095C128.21 61.549 128.57 60.6182 129.023 59.7317C129.393 58.9746 129.87 58.2745 130.439 57.6528C130.926 57.1051 131.517 56.6603 132.178 56.3446C132.815 56.0348 133.514 55.8754 134.222 55.8786C134.844 55.851 135.461 56.0068 135.996 56.3267C136.469 56.6291 136.823 57.0846 137 57.617C137.224 58.2794 137.304 58.9822 137.233 59.6779C137.129 60.6066 136.943 61.5241 136.677 62.4199Z" fill="#1B1464"/>
<path d="M144.189 54.6776L140.227 68.4949C140.102 68.9608 139.958 69.373 139.833 69.7494C139.571 70.4985 139.041 71.1242 138.345 71.5057C137.855 71.7775 137.33 71.9824 136.786 72.115L136.66 73.5845C137.404 73.4452 138.13 73.229 138.829 72.9393C139.362 72.7286 139.854 72.4252 140.281 72.0433C140.685 71.6781 141.009 71.2325 141.231 70.735C141.508 70.1333 141.736 69.51 141.912 68.8712L145.981 54.6597H144.189V54.6776Z" fill="#1B1464"/>
<path d="M151.554 56.1475H158.509L159.029 54.6777H150.174L145.711 70.2332H154.709L155.031 68.7643H147.933L149.582 63.0645H155.282L155.712 61.5956H149.994L151.554 56.1475Z" fill="#1B1464"/>
<path d="M167.221 54.3552C166.248 54.3514 165.284 54.5466 164.389 54.9287C163.5 55.3202 162.692 55.8731 162.005 56.5595C161.244 57.3288 160.598 58.2041 160.087 59.1581C159.508 60.2535 159.045 61.4068 158.707 62.599C158.383 63.6519 158.196 64.7421 158.151 65.8427C158.099 66.6994 158.24 67.5568 158.564 68.3517C158.858 69.0326 159.36 69.6033 159.998 69.9826C160.785 70.4016 161.67 70.5998 162.561 70.5561C163.26 70.5573 163.956 70.4852 164.64 70.341C165.347 70.1884 166.038 69.9663 166.701 69.6779L166.684 68.2801C166.11 68.4969 165.523 68.6764 164.927 68.8177C164.326 68.9452 163.713 69.0113 163.099 69.0149C162.437 69.049 161.78 68.8802 161.217 68.531C160.76 68.2005 160.426 67.7277 160.266 67.1869C160.079 66.523 160.025 65.8289 160.105 65.1439C160.198 64.2577 160.372 63.3819 160.625 62.5273C160.9 61.5654 161.26 60.6298 161.7 59.7316C162.075 58.9716 162.551 58.2662 163.117 57.6349C163.598 57.0818 164.19 56.6361 164.855 56.3266C165.482 56.0265 166.168 55.8732 166.863 55.8786C167.23 55.8752 167.597 55.9113 167.956 55.9861C168.294 56.0547 168.624 56.1567 168.942 56.2908L168.333 58.2442H169.946L170.824 55.2155C170.287 54.9461 169.722 54.7358 169.139 54.5883C168.514 54.4216 167.868 54.3431 167.221 54.3552Z" fill="#1B1464"/>
<path d="M182.311 54.6777H172.363L172.04 56.1654H176.001L171.969 70.2332H173.797L177.83 56.1654H181.774L182.311 54.6777Z" fill="#1B1464"/>
<path d="M190.416 54.5165C190.132 54.4597 189.845 54.4178 189.556 54.3911C189.269 54.3731 188.982 54.3552 188.695 54.3552C187.946 54.3497 187.199 54.44 186.473 54.624C185.824 54.7834 185.206 55.0499 184.644 55.4126C184.116 55.7499 183.655 56.1811 183.282 56.685C182.896 57.2071 182.61 57.7966 182.44 58.4234C182.291 58.9173 182.218 59.4309 182.225 59.9467C182.241 60.3677 182.385 60.7738 182.637 61.1116C182.941 61.4985 183.319 61.8213 183.748 62.0614C184.349 62.4023 184.979 62.6901 185.63 62.9216C186.15 63.1187 186.58 63.298 186.939 63.4772C187.26 63.6267 187.551 63.8331 187.799 64.0865C188.012 64.3122 188.145 64.602 188.176 64.9109C188.207 65.3036 188.165 65.6987 188.05 66.0758C187.934 66.5221 187.733 66.9419 187.459 67.3123C187.204 67.6744 186.889 67.9897 186.527 68.2442C186.152 68.5014 185.741 68.7007 185.308 68.8356C184.838 68.9823 184.348 69.0548 183.856 69.0507C182.423 69.0505 181.011 68.7128 179.733 68.065L178.891 69.427C179.176 69.6177 179.483 69.7741 179.805 69.893C180.174 70.0338 180.551 70.1535 180.934 70.2514C181.34 70.3582 181.754 70.4361 182.171 70.4844C182.587 70.5346 183.006 70.5585 183.426 70.5561C184.207 70.5613 184.985 70.4588 185.738 70.2514C186.419 70.0669 187.062 69.7635 187.638 69.3553C188.198 68.9598 188.683 68.4684 189.072 67.9037C189.483 67.2947 189.791 66.6228 189.986 65.9145C190.151 65.4 190.212 64.8578 190.165 64.3195C190.104 63.8883 189.931 63.4806 189.663 63.1367C189.358 62.7656 188.98 62.4607 188.552 62.2406C188.017 61.9529 187.467 61.6956 186.903 61.47C186.34 61.2633 185.794 61.0116 185.272 60.7173C184.949 60.54 184.663 60.3028 184.429 60.0184C184.267 59.7952 184.185 59.5236 184.196 59.2478C184.222 58.9198 184.282 58.5954 184.376 58.28C184.583 57.5491 185.065 56.9264 185.72 56.5417C186.498 56.0936 187.387 55.876 188.283 55.9144C188.8 55.9185 189.316 55.9665 189.825 56.0578C190.436 56.1887 191.04 56.3502 191.635 56.5417L192.424 55.09C192.029 54.9645 191.671 54.857 191.348 54.7674C191.046 54.655 190.734 54.571 190.416 54.5165Z" fill="#1B1464"/>
</svg>
