<svg width="166" height="67" viewBox="0 0 166 67" fill="none" xmlns="http://www.w3.org/2000/svg">
<path d="M66.9322 50.9337V52.4959H55.2383V20.4927H56.8005V50.9337H66.9322Z" fill="#1D1D1B"/>
<path d="M79.3825 22.0552V34.1745H88.3305V35.737H79.3825V50.9337H90.2715V52.4959H77.8203V20.4927H90.2715V22.0552H79.3825Z" fill="#1D1D1B"/>
<path d="M118.06 20.4927L111.1 52.4959H109.017L102.105 20.4927H103.715L110.059 49.8921L116.45 20.4927H118.06Z" fill="#1D1D1B"/>
<path d="M131.457 22.0552V34.1745H140.405V35.737H131.457V50.9337H142.346V52.4959H129.895V20.4927H142.346V22.0552H131.457Z" fill="#1D1D1B"/>
<path d="M165.873 50.9337V52.4959H154.18V20.4927H155.742V50.9337H165.873Z" fill="#1D1D1B"/>
<path d="M94.4727 57.3672H95.1673V61.273H100.161V57.3672H100.856V66.0047H100.161V61.8759H95.1673V66.0047H94.4727V57.3672Z" fill="#1D1D1B"/>
<path d="M111.387 61.731C111.387 59.1098 113.156 57.3008 115.528 57.3008C117.94 57.3008 119.67 59.1623 119.67 61.731C119.67 64.4573 117.822 66.135 115.528 66.135C113.182 66.135 111.387 64.431 111.387 61.731ZM118.936 61.731C118.936 59.6601 117.743 57.9303 115.528 57.9303C113.457 57.9303 112.121 59.5159 112.121 61.731C112.121 63.9461 113.457 65.5059 115.528 65.5059C117.599 65.5059 118.936 63.9461 118.936 61.731H118.936Z" fill="#1D1D1B"/>
<path d="M130.282 64.2223C130.178 63.8111 130.129 63.388 130.138 62.964V57.3672H130.832V62.8852C130.82 63.2974 130.873 63.7089 130.99 64.1043C131.292 64.9953 132.012 65.5198 133.192 65.5198C134.372 65.5198 135.079 64.9953 135.381 64.1043C135.501 63.6916 135.554 63.2623 135.538 62.8327V57.3672H136.233V62.964C136.241 63.4026 136.184 63.84 136.062 64.2615C135.682 65.4672 134.699 66.1356 133.179 66.1356C131.619 66.1356 130.649 65.4543 130.282 64.2223Z" fill="#1D1D1B"/>
<path d="M147.014 64.9555C147.564 65.3117 148.206 65.5027 148.861 65.5059C149.87 65.5059 150.736 65.0865 150.736 63.9462C150.736 61.7051 146.895 61.967 146.895 59.4113C146.895 58.2184 147.8 57.3008 149.333 57.3008C149.944 57.2985 150.547 57.4282 151.103 57.681V58.3497C150.564 58.058 149.959 57.909 149.347 57.917C148.495 57.917 147.616 58.2972 147.616 59.3325C147.616 61.4429 151.456 61.2462 151.456 63.907C151.456 65.3095 150.422 66.135 148.822 66.135C148.069 66.1457 147.33 65.9313 146.699 65.5192L147.014 64.9555Z" fill="#1D1D1B"/>
<path d="M161.988 57.3672H165.894L165.632 57.9701H162.683V61.273H165.566V61.8758H162.683V65.4018H165.999V66.0046H161.988V57.3672Z" fill="#1D1D1B"/>
<path d="M25.5945 0.555664L18.1253 6.42828L18.0884 0.724098H4.93942V16.7977L0 20.681V61.5037V65.5218V65.9941H90.2434V63.397H2.59711V22.0396L7.53653 18.1563V3.32121H15.4913V11.6884L25.5945 3.90177L48.5915 21.7583L48.8305 49.9015H20.1132V19.4217L17.5157 22.8639V52.4986H51.1886V20.681L25.5945 0.555664Z" fill="#4AB37F"/>
</svg>
