<svg width="247" height="30" viewBox="0 0 247 30" fill="none" xmlns="http://www.w3.org/2000/svg">
<g clip-path="url(#clip0)">
<path d="M25.9414 11.947C26.8083 11.2497 27.5202 10.3799 28.0318 9.39307C28.8005 10.4365 29.4073 11.5895 29.8317 12.8133C30.3074 14.106 29.3828 16.3733 27.3145 18.4939C27.3416 16.2377 26.8729 14.003 25.9414 11.947Z" fill="#2E276C"/>
<path d="M24.547 12.9155C25.5698 14.9001 26.2313 17.0501 26.5006 19.2654C24.7339 20.8058 22.6692 21.9683 20.4344 22.6809C20.5609 19.9624 20.4495 17.2381 20.1016 14.5389C21.6642 14.2505 23.167 13.7017 24.547 12.9155Z" fill="#2E276C"/>
<path d="M25.0818 10.4408C23.6062 8.27985 21.4272 6.69438 18.9141 5.95304C20.6232 5.30327 22.5109 5.2961 24.2249 5.93287C24.6049 6.15967 24.973 6.40577 25.3277 6.6702C26.3341 7.46194 26.2175 8.95255 25.0818 10.4408Z" fill="#2E276C"/>
<path d="M18.6055 7.53369C20.7564 8.32739 22.5897 9.79855 23.8279 11.7246C22.6866 12.6415 21.3903 13.3478 20.0002 13.8099C19.6978 11.6851 19.2315 9.58684 18.6055 7.53369Z" fill="#2E276C"/>
<path d="M50.8069 27.1446H42.332L53.5314 6.53027H63.9363L75.163 27.1446H66.6881L64.9357 23.4837H52.5593L50.8069 27.1446ZM58.5969 10.9017L54.8866 18.6339H62.622L58.9254 10.9017H58.5969Z" fill="#2E276C"/>
<path d="M90.9762 19.6175V16.1475H104.927L104.831 18.0739C104.821 18.1279 104.816 18.183 104.817 18.2381C104.815 18.2935 104.806 18.3485 104.79 18.4017C104.562 19.7403 104.069 21.0202 103.34 22.1669C102.611 23.3137 101.662 24.3046 100.546 25.0818C98.2322 26.6939 95.0287 27.6095 90.9076 27.6095C86.0334 27.6095 82.2687 26.6395 79.7087 24.8632C78.4669 24.0458 77.4553 22.9252 76.77 21.6077C76.0846 20.2902 75.7483 18.8198 75.793 17.3361V16.3525C75.7484 14.8583 76.0871 13.3774 76.7772 12.0505C77.4673 10.7236 78.4857 9.59473 79.7359 8.77094C82.3096 7.02189 86.1021 6.07959 90.9212 6.07959C94.7001 6.07959 97.8077 6.73531 100.163 8.08755C101.326 8.74447 102.342 9.63266 103.147 10.6971C103.953 11.7616 104.531 12.9797 104.845 14.2761H98.3826C97.8039 12.8981 96.7433 11.7767 95.3981 11.1204C94.003 10.4474 92.4707 10.1061 90.9212 10.1232C89.5104 10.1076 88.1073 10.334 86.7733 10.7925C85.5644 11.1978 84.4896 11.9252 83.6652 12.8962C82.8354 13.9233 82.3987 15.2114 82.4332 16.5303V17.1583C82.4106 18.117 82.6355 19.0653 83.0862 19.9123C83.5369 20.7592 84.1983 21.4763 85.0068 21.9946C86.7818 23.0843 88.8382 23.6304 90.9212 23.5654C92.7438 23.6126 94.5513 23.2239 96.1926 22.4317C97.4196 21.873 98.3849 20.8657 98.8893 19.6175H90.9762Z" fill="#2E276C"/>
<path d="M133.939 13.1283V13.4018C133.957 14.0232 133.843 14.6413 133.604 15.2156C133.366 15.79 133.009 16.3077 132.556 16.7348C131.606 17.597 130.467 18.2241 129.229 18.5654C129.857 18.8249 130.418 19.2216 130.872 19.7263C131.314 20.2774 131.666 20.8954 131.913 21.557L132.953 24.1391C133.353 25.2175 133.911 26.2305 134.609 27.1447H128.791C128.218 26.4346 127.773 25.6302 127.477 24.7676L126.313 21.8032C126.04 21.0403 125.481 20.4132 124.753 20.0547C123.774 19.6414 122.72 19.4366 121.658 19.4533H114.333V27.1447H108.926V6.54395H124.136C127.244 6.54395 129.681 7.15886 131.365 8.29253C132.175 8.80888 132.838 9.52546 133.289 10.3728C133.74 11.22 133.964 12.1693 133.939 13.1283ZM128.408 13.2376V13.0875C128.431 12.673 128.354 12.2588 128.182 11.8806C128.011 11.5023 127.75 11.1712 127.422 10.9154C126.71 10.3826 125.601 10.0955 123.972 10.0955H114.333V16.1884H123.548C124.759 16.2394 125.964 15.9857 127.052 15.4506C127.463 15.2454 127.808 14.9292 128.048 14.5379C128.287 14.1467 128.412 13.6961 128.408 13.2376Z" fill="#2E276C"/>
<path d="M137.075 17.2675V16.4345C137.059 15.0175 137.38 13.617 138.013 12.3485C138.647 11.0801 139.573 9.98015 140.716 9.13947C143.153 7.2816 146.809 6.14746 151.724 6.14746C156.639 6.14746 160.294 7.3088 162.717 9.16667C163.855 10.0057 164.777 11.1019 165.407 12.3652C166.038 13.6286 166.36 15.0231 166.345 16.4345V17.2675C166.361 18.6771 166.04 20.0702 165.409 21.3315C164.778 22.5929 163.856 23.6864 162.717 24.5216C160.281 26.3931 156.625 27.5545 151.696 27.5545C146.781 27.5545 143.153 26.4203 140.716 24.5625C139.573 23.7218 138.647 22.6218 138.013 21.3534C137.38 20.085 137.059 18.6844 137.075 17.2675ZM151.696 24.6717C154.763 24.6717 157.337 23.9339 159.144 22.6225C160.033 22.016 160.758 21.2 161.255 20.2467C161.751 19.2934 162.005 18.2325 161.992 17.1582V16.5433C162.003 15.4673 161.749 14.4049 161.253 13.4497C160.756 12.4945 160.032 11.6757 159.144 11.0653C157.337 9.76798 154.763 9.03018 151.696 9.03018C148.643 9.03018 146.083 9.75391 144.276 11.0653C143.388 11.6757 142.663 12.4945 142.167 13.4497C141.67 14.4049 141.417 15.4673 141.428 16.5433V17.1718C141.415 18.2462 141.668 19.3072 142.165 20.2606C142.662 21.2139 143.387 22.0301 144.276 22.6366C146.083 23.948 148.643 24.6717 151.696 24.6717Z" fill="#2E276C"/>
<path d="M181.634 15.625H171.066V6.38721H181.576V8.72584H174.68V9.82762H180.951V12.1597H174.68V13.299H181.634V15.625Z" fill="#2E276C"/>
<path d="M182.467 6.39258H185.971L188.72 9.69322L191.473 6.39258H194.96L190.721 10.9484L195.34 15.6256H191.861L188.712 12.2401L185.591 15.6256H182.094L186.714 10.9423L182.467 6.39258Z" fill="#2E276C"/>
<path d="M208.06 9.42963V9.63789C208.082 10.1145 207.987 10.5892 207.784 11.0212C207.581 11.4531 207.276 11.8293 206.895 12.1172C205.942 12.7381 204.815 13.0386 203.678 12.9746H199.379V15.6252H196.395V6.39212H203.543C204.698 6.33692 205.844 6.61558 206.845 7.19465C207.223 7.43099 207.534 7.76099 207.747 8.1526C207.96 8.54421 208.068 8.98412 208.06 9.42962V9.42963ZM205.011 9.69275V9.56424C205.011 8.76218 204.483 8.32128 203.225 8.32128H199.379V11.0455H203.18C204.416 11.0455 205.011 10.5253 205.011 9.69275" fill="#2E276C"/>
<path d="M208.786 11.2178V10.807C208.77 10.1546 208.917 9.50853 209.214 8.92712C209.511 8.3457 209.949 7.84724 210.487 7.47677C211.61 6.66767 213.271 6.19629 215.457 6.19629C217.641 6.19629 219.304 6.68034 220.427 7.48896C220.961 7.86094 221.394 8.35819 221.689 8.93683C221.985 9.51547 222.133 10.1577 222.12 10.807V11.2164C222.133 11.8642 221.985 12.505 221.69 13.0819C221.394 13.6588 220.961 14.1539 220.427 14.5232C219.297 15.3369 217.635 15.821 215.45 15.821C213.266 15.821 211.603 15.3491 210.48 14.5419C209.944 14.1706 209.509 13.6726 209.214 13.0925C208.918 12.5125 208.771 11.8684 208.786 11.2178ZM215.45 14.2112C216.499 14.2471 217.535 13.97 218.426 13.4153C218.805 13.1705 219.115 12.8336 219.328 12.4362C219.541 12.0389 219.649 11.5941 219.642 11.1437V10.8684C219.648 10.4173 219.54 9.97195 219.327 9.57374C219.115 9.17554 218.805 8.8374 218.426 8.59074C217.52 8.07734 216.495 7.80744 215.453 7.80744C214.411 7.80744 213.387 8.07734 212.481 8.59074C212.102 8.83733 211.792 9.17545 211.579 9.57367C211.367 9.97189 211.259 10.4173 211.265 10.8684V11.1489C211.257 11.5997 211.364 12.0451 211.577 12.4429C211.789 12.8407 212.101 13.1775 212.481 13.4214C213.369 13.9744 214.403 14.2495 215.45 14.2112Z" fill="#2E276C"/>
<path d="M229.193 12.0188H225.916V15.6253H224.008V6.39834H230.519C231.632 6.3333 232.739 6.59763 233.702 7.15818C234.048 7.38688 234.33 7.69971 234.521 8.06718C234.713 8.43465 234.807 8.84466 234.795 9.25854V9.3622C234.8 9.64746 234.744 9.93049 234.631 10.1924C234.517 10.4543 234.349 10.689 234.138 10.881C233.686 11.2725 233.148 11.5513 232.567 11.6943C232.861 11.8059 233.126 11.9817 233.342 12.2088C233.543 12.457 233.702 12.7363 233.813 13.0357L234.348 14.3575C234.513 14.8178 234.756 15.2466 235.066 15.6253H233.005C232.757 15.3221 232.563 14.9784 232.432 14.6094L231.849 13.1333C231.775 12.929 231.657 12.7433 231.504 12.589C231.35 12.4348 231.165 12.3156 230.961 12.2398C230.39 12.0583 229.791 11.9835 229.193 12.0188ZM232.845 9.30732V9.24635C232.86 9.0318 232.822 8.81685 232.734 8.62035C232.646 8.42385 232.512 8.25178 232.342 8.11925C231.782 7.77923 231.129 7.62504 230.476 7.67882H225.916V10.8312H230.224C230.877 10.8601 231.528 10.7297 232.119 10.4513C232.337 10.3499 232.521 10.1882 232.65 9.98539C232.779 9.78261 232.846 9.54727 232.845 9.30732Z" fill="#2E276C"/>
<path d="M246.999 7.68502H242.249V15.6249H240.333V7.68502H235.586V6.39844H246.999V7.68502Z" fill="#2E276C"/>
<path d="M176.737 24.2063L176.758 24.2002H175.116V27.6092H171.066V17.3612H179.438C180.749 17.3056 182.047 17.6259 183.181 18.2842C183.624 18.5513 183.99 18.9291 184.242 19.3803C184.495 19.8315 184.625 20.3406 184.62 20.8574V21.0563C184.637 21.6481 184.421 22.2232 184.019 22.658C183.6 23.0721 183.094 23.3874 182.537 23.5811C183.133 23.8958 183.586 24.4261 183.803 25.0633L184.147 25.8972C184.352 26.5091 184.648 27.0864 185.027 27.6092H180.691C180.393 27.214 180.161 26.7738 180.002 26.3053L179.588 25.204C179.529 25.0408 179.439 24.8908 179.322 24.7626C179.205 24.6343 179.064 24.5304 178.907 24.4568C178.421 24.2723 177.904 24.1851 177.385 24.2002H176.879C176.832 24.2053 176.785 24.2073 176.737 24.2063ZM180.48 20.9193V20.8306C180.488 20.6975 180.462 20.5644 180.404 20.4443C180.346 20.3242 180.258 20.2212 180.148 20.1454C179.883 19.9989 179.583 19.928 179.281 19.9404H175.116V21.8485H179.235C179.542 21.8561 179.845 21.7743 180.106 21.613C180.222 21.5383 180.317 21.4355 180.383 21.3142C180.448 21.1929 180.481 21.057 180.48 20.9193" fill="#80C4B3"/>
<path d="M196.615 17.3672H199.93V22.6847C199.97 23.3818 199.851 24.079 199.583 24.7237C199.314 25.3684 198.902 25.9438 198.378 26.4065C197.287 27.3108 195.594 27.8409 193.138 27.8409C191.764 27.89 190.395 27.6589 189.113 27.1617C188.216 26.8096 187.465 26.1657 186.981 25.3343C186.544 24.5113 186.331 23.5887 186.362 22.658V17.3672H189.677V22.6519C189.652 23.0493 189.708 23.4478 189.843 23.8227C189.978 24.1975 190.188 24.5409 190.461 24.8315C191.005 25.3676 191.876 25.68 193.158 25.68C194.436 25.68 195.299 25.3676 195.847 24.8249C196.116 24.5309 196.323 24.1855 196.455 23.8095C196.587 23.4335 196.641 23.0348 196.615 22.6373V17.3672Z" fill="#80C4B3"/>
<path d="M213.769 24.5935C213.769 26.6859 211.673 27.8412 207.645 27.8412C205.471 27.8412 203.886 27.4397 202.845 26.7877C202.384 26.5396 201.997 26.1737 201.724 25.7274C201.452 25.2811 201.303 24.7705 201.293 24.2478H204.458C204.469 24.4675 204.537 24.6805 204.656 24.8652C204.776 25.0498 204.943 25.1995 205.139 25.299C205.907 25.6947 206.769 25.8737 207.632 25.8168C208.37 25.8615 209.108 25.7428 209.794 25.4692C209.962 25.4129 210.108 25.3078 210.216 25.1676C210.323 25.0273 210.385 24.8583 210.395 24.6822C210.388 24.5404 210.339 24.4038 210.255 24.2891C210.171 24.1745 210.056 24.0868 209.922 24.0368C209.527 23.8604 209.105 23.7525 208.673 23.7178L204.827 23.1817C203.922 23.1049 203.06 22.7646 202.347 22.2028C201.879 21.7804 201.59 21.1953 201.541 20.5675C201.492 19.9397 201.685 19.3168 202.081 18.8267C202.586 18.2583 203.24 17.8424 203.969 17.6264C206.267 16.9867 208.695 16.9723 211.001 17.5847C211.743 17.7965 212.408 18.2161 212.918 18.7938C213.319 19.2917 213.556 19.9008 213.598 20.5382H210.748C210.723 20.3205 210.64 20.1133 210.508 19.938C210.377 19.7627 210.2 19.6257 209.998 19.541C209.22 19.2403 208.386 19.1104 207.553 19.1602C206.835 19.1197 206.117 19.2384 205.45 19.5077C205.043 19.7043 204.903 19.9613 204.903 20.1864C204.902 20.3314 204.946 20.473 205.03 20.5911C205.115 20.7093 205.234 20.7981 205.371 20.845C205.842 21.0243 206.337 21.1338 206.84 21.17L210.101 21.586C212.611 21.9111 213.769 22.8754 213.769 24.5935" fill="#80C4B3"/>
<path d="M226.903 24.6553C226.904 25.1529 226.76 25.64 226.488 26.0572C226.216 26.4743 225.828 26.8036 225.372 27.0048C224.36 27.547 222.866 27.8265 220.933 27.8265C218.838 27.8265 217.295 27.433 216.266 26.8017C215.81 26.5634 215.427 26.2077 215.157 25.7717C214.886 25.3356 214.738 24.8351 214.727 24.3223H217.307C217.317 24.5732 217.394 24.8169 217.529 25.0291C217.663 25.2412 217.852 25.4143 218.074 25.531C218.946 25.9992 219.932 26.2136 220.92 26.1497C221.768 26.1925 222.616 26.0535 223.406 25.7421C223.617 25.6661 223.8 25.5293 223.933 25.3491C224.066 25.1689 224.142 24.9534 224.152 24.7299C224.148 24.5492 224.091 24.3738 223.986 24.2259C223.882 24.0781 223.736 23.9645 223.567 23.8997C223.074 23.6903 222.55 23.5625 222.016 23.5212L218.369 23.024C216.17 22.7323 215 21.8092 215 20.2815C215.003 19.7395 215.195 19.2154 215.544 18.7998C216.039 18.248 216.678 17.8438 217.39 17.6319C218.498 17.2842 219.656 17.1215 220.817 17.1502C222.916 17.1502 224.351 17.4954 225.289 18.0878C225.707 18.3377 226.058 18.6838 226.315 19.0971C226.571 19.5104 226.724 19.979 226.762 20.4635H224.426C224.393 20.2114 224.297 19.9716 224.147 19.7661C223.997 19.5607 223.798 19.3963 223.567 19.2881C222.704 18.9248 221.768 18.7667 220.833 18.8266C219.994 18.7761 219.156 18.9301 218.39 19.2754C218.213 19.3509 218.06 19.4726 217.946 19.6279C217.833 19.7831 217.764 19.966 217.747 20.1572C217.743 20.3318 217.792 20.5034 217.889 20.6491C217.985 20.7949 218.124 20.9078 218.286 20.9729C218.812 21.192 219.372 21.3208 219.941 21.3538L223.207 21.7553C224.189 21.8216 225.139 22.1372 225.965 22.6722C226.27 22.9028 226.515 23.2035 226.678 23.5489C226.842 23.8942 226.919 24.2738 226.903 24.6553" fill="#80C4B3"/>
<path d="M231.073 17.3735H228.957V27.6089H231.073V17.3735Z" fill="#80C4B3"/>
<path d="M234.701 27.6089H232.48L238.368 17.3735H241.102L246.998 27.6089H244.778L243.309 24.9199H236.161L234.701 27.6089ZM239.6 18.6029L236.891 23.5747H242.579L239.87 18.6029H239.6Z" fill="#80C4B3"/>
<path d="M4.16128 21.1971C3.16617 20.2476 1.84932 19.7065 0.472656 19.6816C0.629915 21.0466 1.29631 22.3024 2.3393 23.1994C3.33466 24.1489 4.65161 24.6899 6.02839 24.7149C5.87103 23.3499 5.20446 22.094 4.16128 21.1971Z" fill="#2E276C"/>
<path d="M2.90814 14.8741C2.48988 13.5652 1.59327 12.4612 0.396571 11.7817C-0.120148 13.0553 -0.137433 14.4763 0.348154 15.762C0.766551 17.0709 1.66313 18.1748 2.85973 18.8544C3.3762 17.5808 3.39348 16.1599 2.90814 14.8741Z" fill="#2E276C"/>
<path d="M5.06758 8.71691C4.99641 7.34484 4.41023 6.04978 3.42563 5.08936C2.6018 6.19018 2.22323 7.56001 2.36516 8.92657C2.43627 10.2988 3.02266 11.5939 4.00757 12.5541C4.83138 11.4533 5.20979 10.0834 5.06758 8.71691Z" fill="#2E276C"/>
<path d="M9.5837 4.35176C10.1305 2.95225 10.1293 1.39868 9.58041 0C8.2635 0.727832 7.26938 1.92357 6.79573 3.34942C6.24909 4.74913 6.25043 6.30287 6.79949 7.70164C8.11627 6.97356 9.11021 5.77767 9.5837 4.35176Z" fill="#2E276C"/>
<path d="M27.2381 20.5919C27.1461 21.7192 26.9907 22.8404 26.7728 23.9502C26.7864 22.8949 26.7549 21.9052 26.6844 20.9775C24.7796 22.2634 22.6369 23.1573 20.3817 23.6069C20.3028 24.7926 20.1763 26.0178 19.9906 27.2776C19.9582 26.0595 19.8905 24.8682 19.796 23.712C17.2453 24.1047 14.6426 24.0036 12.1302 23.4141C14.671 23.7453 17.2526 23.5681 19.7241 22.893C19.4664 20.1677 19.0505 17.4596 18.4784 14.7824C16.8682 14.943 15.2454 14.9336 13.6372 14.7542C15.2278 14.7884 16.8167 14.6285 18.3684 14.2782C17.409 9.95033 16.3377 7.11076 16.0801 6.76836C16.0533 6.73345 16.0317 6.69492 16.0157 6.65392C15.9537 6.60748 15.9433 6.53572 16.0115 6.43018L16.012 6.42971C16.0462 6.33917 16.1032 6.25891 16.1774 6.1966C16.7697 5.42878 18.0337 4.45271 20.6055 4.45646C18.0045 3.8299 15.273 4.02064 12.7849 5.00257C10.2967 5.9845 8.17347 7.70964 6.70566 9.9419C5.23785 12.1742 4.49723 14.8045 4.58514 17.4729C4.67305 20.1413 5.5852 22.7174 7.19676 24.8486C8.80833 26.9799 11.0406 28.5622 13.588 29.3789C16.1354 30.1957 18.8735 30.207 21.4276 29.4114C23.9817 28.6157 26.227 27.052 27.8563 24.9341C29.4855 22.8163 30.419 20.2478 30.5291 17.5802C29.5479 18.7033 28.4441 19.7134 27.2381 20.5919ZM10.5329 21.5314C10.0046 22.638 9.07827 23.5058 7.93809 23.962C7.66769 22.772 7.82304 21.5251 8.37722 20.4374C8.9314 19.3497 9.84949 18.4898 10.9724 18.0066C11.275 19.1949 11.118 20.4533 10.5329 21.5314ZM5.96615 18.6365C6.0134 17.4588 6.50307 16.3419 7.33781 15.508C8.12868 14.6324 9.22075 14.0857 10.397 13.9766C10.3497 15.1544 9.85982 16.2712 9.02488 17.1051C8.23445 17.981 7.14239 18.5278 5.96615 18.6365ZM10.0478 11.7618C9.13741 12.5857 7.9496 13.0374 6.72061 13.0272C6.89339 11.8132 7.51763 10.7084 8.46926 9.93251C9.37984 9.10898 10.5675 8.65726 11.7964 8.66704C11.6237 9.88114 10.9995 10.9859 10.0478 11.7618Z" fill="#2E276C"/>
</g>
<defs>
<clipPath id="clip0">
<rect width="247" height="30" fill="white"/>
</clipPath>
</defs>
</svg>
