<svg width="166" height="60" viewBox="0 0 166 60" fill="none" xmlns="http://www.w3.org/2000/svg">
<path d="M36.0837 38.4351C36.0175 42.0291 34.7553 45.4986 32.4968 48.2951C30.0729 51.1531 26.5752 52.5818 22.0039 52.5812C17.4316 52.5812 13.9346 51.1525 11.5129 48.2951C9.2528 45.4995 7.99045 42.0294 7.926 38.4351H0.414062C0.722319 44.518 2.70738 49.5058 6.36925 53.3985C10.3701 57.6442 15.5817 59.7669 22.0039 59.7666C28.6448 59.7666 33.9114 57.6574 37.8037 53.4388C41.3705 49.5724 43.3012 44.5712 43.5957 38.4351L36.0837 38.4351Z" fill="#333333"/>
<path d="M56.6907 38.4341H49.1797V58.4595H56.6907V38.4341Z" fill="#333333"/>
<path d="M61.5117 58.46L81.1079 28.2509L62.6545 0H71.6368L85.8434 22.3716H86.1699L100.377 0H109.358L70.3307 58.46H61.5117Z" fill="#333333"/>
<path d="M100.042 47.5815C98.6837 47.5796 97.3267 47.5594 95.9688 47.5488L103.032 58.4432H111.851L104.799 47.5719C103.214 47.5767 101.627 47.5835 100.042 47.5815" fill="#333333"/>
<path d="M56.8424 3.96657C56.8425 4.72438 56.6179 5.46521 56.1969 6.09536C55.776 6.7255 55.1776 7.21666 54.4775 7.50672C53.7774 7.79677 53.007 7.87269 52.2637 7.72488C51.5205 7.57707 50.8377 7.21216 50.3019 6.67631C49.766 6.14045 49.4011 5.45773 49.2533 4.71447C49.1055 3.97121 49.1814 3.2008 49.4714 2.50069C49.7615 1.80058 50.2526 1.2022 50.8828 0.781243C51.5129 0.360282 52.2537 0.135645 53.0115 0.135742C54.0275 0.135773 55.0019 0.539385 55.7203 1.2578C56.4387 1.97621 56.8424 2.95058 56.8424 3.96657Z" fill="#333333"/>
<path d="M114.396 26.1506C113.847 26.152 113.305 26.0345 112.806 25.8064C112.308 25.5783 111.864 25.2449 111.507 24.8292C110.692 23.9365 110.256 22.7617 110.291 21.5534C110.255 20.3447 110.691 19.1695 111.507 18.2766C111.865 17.861 112.308 17.5277 112.807 17.2998C113.305 17.0718 113.847 16.9546 114.396 16.9561C115.012 16.9461 115.62 17.091 116.166 17.3777C116.644 17.619 117.048 17.9842 117.337 18.4351H117.407L117.337 17.2375V13.2559H118.958V25.8683H117.407V24.6707H117.337C117.048 25.1216 116.644 25.4868 116.166 25.728C115.621 26.0155 115.012 26.1608 114.396 26.1506ZM114.66 24.6707C115.025 24.6759 115.388 24.6033 115.724 24.4576C116.059 24.3119 116.36 24.0965 116.605 23.8256C117.162 23.2036 117.45 22.3869 117.407 21.5534C117.45 20.7199 117.162 19.9032 116.605 19.2812C116.357 19.0137 116.057 18.8004 115.722 18.6548C115.388 18.5092 115.027 18.4344 114.662 18.4351C114.297 18.4359 113.936 18.5121 113.603 18.659C113.269 18.806 112.969 19.0205 112.722 19.289C112.164 19.9075 111.873 20.7214 111.912 21.5535C111.873 22.385 112.164 23.1984 112.722 23.8161C112.966 24.0878 113.265 24.3045 113.599 24.4518C113.933 24.5992 114.295 24.6738 114.66 24.6708" fill="#333333"/>
<path d="M124.452 15.0709C124.265 15.2578 124.019 15.374 123.755 15.3997C123.492 15.4253 123.228 15.3589 123.008 15.2117C122.788 15.0645 122.626 14.8456 122.549 14.5923C122.472 14.3391 122.486 14.067 122.587 13.8226C122.689 13.5781 122.872 13.3764 123.105 13.2517C123.338 13.127 123.608 13.0871 123.867 13.1387C124.127 13.1903 124.361 13.3303 124.528 13.5348C124.696 13.7394 124.788 13.9958 124.788 14.2604C124.791 14.4113 124.762 14.5611 124.704 14.7006C124.647 14.84 124.561 14.966 124.452 15.0709Z" fill="#333333"/>
<path d="M124.452 17.2383H122.832V25.869H124.452V17.2383Z" fill="#333333"/>
<path d="M131.994 29.956C131.097 29.9949 130.214 29.7243 129.493 29.1896C128.889 28.732 128.41 28.1291 128.101 27.4369L129.58 26.8204C129.751 27.2993 130.069 27.7122 130.488 28.0007C130.926 28.3168 131.454 28.4835 131.994 28.476C132.381 28.497 132.768 28.4366 133.131 28.2986C133.493 28.1607 133.823 27.9483 134.098 27.6751C134.632 27.0801 134.908 26.2974 134.865 25.4989V24.671H134.795C134.488 25.1162 134.077 25.4792 133.597 25.7284C133.061 26.015 132.461 26.1604 131.854 26.151C131.305 26.1524 130.763 26.0351 130.264 25.8069C129.765 25.5788 129.322 25.2454 128.964 24.8295C128.149 23.9369 127.713 22.7621 127.748 21.5537C127.712 20.345 128.148 19.1699 128.964 18.277C129.322 17.8612 129.765 17.5279 130.264 17.3C130.763 17.072 131.305 16.9548 131.854 16.9565C132.461 16.9472 133.061 17.0922 133.597 17.3781C134.077 17.6272 134.488 17.9903 134.795 18.4354H134.865V17.2379H136.415V25.4288C136.458 26.0507 136.366 26.6746 136.144 27.2571C135.922 27.8397 135.576 28.367 135.129 28.8025C134.269 29.5723 133.148 29.9849 131.994 29.956L131.994 29.956ZM132.117 24.671C132.483 24.6762 132.845 24.6035 133.181 24.4578C133.517 24.3121 133.818 24.0968 134.064 23.826C134.62 23.2037 134.908 22.3872 134.865 21.5538C134.908 20.7203 134.62 19.9038 134.064 19.2816C133.815 19.014 133.515 18.8008 133.18 18.6552C132.845 18.5096 132.484 18.4348 132.12 18.4355C131.755 18.4362 131.394 18.5125 131.06 18.6594C130.726 18.8063 130.426 19.0208 130.179 19.2893C129.621 19.9078 129.33 20.7218 129.369 21.5538C129.33 22.3854 129.621 23.1988 130.179 23.8164C130.423 24.088 130.722 24.3047 131.056 24.452C131.39 24.5994 131.752 24.674 132.117 24.6711" fill="#333333"/>
<path d="M141.911 15.0712C141.723 15.2589 141.477 15.3759 141.213 15.402C140.949 15.4282 140.684 15.3621 140.463 15.2149C140.243 15.0677 140.08 14.8485 140.003 14.5947C139.926 14.3409 139.939 14.0682 140.04 13.8231C140.141 13.578 140.325 13.3756 140.559 13.2504C140.792 13.1253 141.062 13.085 141.323 13.1367C141.583 13.1883 141.817 13.3285 141.985 13.5335C142.154 13.7384 142.246 13.9954 142.246 14.2607C142.248 14.4115 142.22 14.5612 142.162 14.7006C142.105 14.84 142.019 14.9661 141.911 15.0712Z" fill="#333333"/>
<path d="M141.909 17.2383H140.289V25.869H141.909V17.2383Z" fill="#333333"/>
<path d="M149.431 26.0105C149.057 26.0544 148.677 26.0133 148.321 25.8901C147.964 25.767 147.64 25.5649 147.373 25.2991C147.105 25.0332 146.901 24.7104 146.776 24.3547C146.65 23.999 146.607 23.6195 146.648 23.2447V18.7175H145.133V17.2377H146.648V14.5957H148.268V17.2377H150.381V18.7176H148.268V23.1208C148.268 24.061 148.656 24.5309 149.431 24.5306C149.685 24.5381 149.938 24.4903 150.172 24.3904L150.734 25.782C150.319 25.9454 149.876 26.0232 149.431 26.0105" fill="#333333"/>
<path d="M156.249 26.1512C155.411 26.1785 154.593 25.8965 153.95 25.3589C153.647 25.1022 153.407 24.7802 153.247 24.417C153.086 24.0539 153.011 23.6591 153.025 23.2625C153.009 22.8321 153.101 22.4046 153.291 22.0185C153.482 21.6324 153.766 21.2998 154.117 21.0508C154.905 20.4988 155.851 20.2177 156.813 20.2498C157.626 20.2177 158.434 20.3999 159.155 20.778V20.5312C159.167 20.245 159.114 19.9598 159.001 19.6965C158.888 19.4331 158.718 19.1983 158.503 19.009C158.06 18.6235 157.488 18.4188 156.9 18.4357C156.452 18.43 156.011 18.5454 155.624 18.7699C155.261 18.9712 154.982 19.2969 154.84 19.6871L153.36 19.0523C153.611 18.4722 154.019 17.9746 154.54 17.6165C155.222 17.1477 156.039 16.9159 156.866 16.9568C157.871 16.9215 158.853 17.2676 159.613 17.9258C159.985 18.2726 160.275 18.6969 160.464 19.1687C160.652 19.6404 160.735 20.1479 160.705 20.6551V25.8689H159.155V24.6713H159.085C158.785 25.1467 158.365 25.5341 157.867 25.7941C157.369 26.0541 156.81 26.1773 156.249 26.1512ZM156.513 24.6713C157.195 24.6664 157.848 24.3983 158.336 23.9232C158.593 23.7051 158.799 23.4338 158.941 23.128C159.082 22.8221 159.155 22.4892 159.155 22.1523C158.553 21.7337 157.826 21.5346 157.094 21.5886C156.46 21.5423 155.829 21.7234 155.316 22.0995C155.132 22.2409 154.982 22.4221 154.879 22.6295C154.775 22.8369 154.719 23.0651 154.716 23.297C154.712 23.4974 154.76 23.6955 154.856 23.8716C154.952 24.0478 155.092 24.196 155.262 24.3016C155.631 24.5498 156.068 24.6788 156.513 24.6713" fill="#333333"/>
<path d="M165.917 13.2563H164.297V25.8688H165.917V13.2563Z" fill="#333333"/>
<path d="M97.7853 40.5931C96.9476 40.6207 96.1291 40.3386 95.4862 39.8008C95.1833 39.5442 94.9426 39.2221 94.7823 38.859C94.6219 38.4958 94.5461 38.1011 94.5604 37.7043C94.5444 37.274 94.6359 36.8465 94.8268 36.4605C95.0176 36.0745 95.3017 35.7422 95.6533 35.4936C96.4407 34.9409 97.3866 34.6594 98.348 34.6917C99.1616 34.6595 99.9694 34.8416 100.69 35.2199V34.974C100.702 34.6877 100.649 34.4025 100.536 34.1391C100.424 33.8756 100.254 33.6406 100.039 33.4509C99.5954 33.0656 99.0229 32.8613 98.4354 32.8785C97.9878 32.8727 97.5468 32.9878 97.1591 33.2118C96.7959 33.413 96.5176 33.7387 96.3755 34.1289L94.8955 33.4941C95.1459 32.9142 95.5547 32.4166 96.0749 32.0584C96.757 31.5897 97.5742 31.3579 98.4009 31.3986C99.4065 31.3633 100.388 31.7095 101.149 32.3676C101.52 32.7146 101.811 33.139 101.999 33.6107C102.188 34.0824 102.27 34.5898 102.24 35.097V40.3117H100.69V39.1132H100.62C100.321 39.5885 99.9005 39.9758 99.4025 40.2358C98.9045 40.4958 98.3465 40.6191 97.7853 40.5931ZM98.0484 39.1132C98.7299 39.1088 99.3832 38.8407 99.8712 38.3651C100.128 38.1471 100.334 37.8759 100.476 37.5703C100.617 37.2646 100.69 36.9319 100.69 36.5951C100.089 36.176 99.3608 35.977 98.6294 36.0314C97.9948 35.9849 97.3644 36.1657 96.8508 36.5413C96.667 36.6828 96.5176 36.864 96.4139 37.0714C96.3101 37.2788 96.2546 37.507 96.2516 37.7389C96.2473 37.9394 96.2955 38.1376 96.3914 38.3138C96.4872 38.4899 96.6274 38.6381 96.798 38.7434C97.1671 38.9918 97.6036 39.1209 98.0484 39.1132Z" fill="#333333"/>
<path d="M109.5 44.3979C108.603 44.4371 107.72 44.1665 106.999 43.6315C106.395 43.1738 105.916 42.571 105.606 41.8788L107.086 41.2623C107.257 41.7414 107.575 42.1544 107.994 42.4426C108.432 42.7587 108.96 42.9254 109.5 42.918C109.887 42.9392 110.274 42.8789 110.637 42.7409C110.999 42.6029 111.329 42.3904 111.604 42.117C112.138 41.522 112.414 40.7393 112.371 39.9408V39.113H112.301C111.994 39.5581 111.582 39.9211 111.102 40.1703C110.567 40.4569 109.967 40.6024 109.359 40.5929C108.811 40.5945 108.268 40.4773 107.77 40.2491C107.271 40.021 106.827 39.6874 106.47 39.2714C105.685 38.3603 105.254 37.1979 105.254 35.9956C105.254 34.7934 105.685 33.631 106.47 32.7198C106.827 32.3038 107.271 31.9702 107.77 31.7421C108.268 31.514 108.811 31.3967 109.359 31.3984C109.967 31.3889 110.567 31.5343 111.102 31.8209C111.583 32.0698 111.994 32.4329 112.301 32.8783H112.371V31.6798H113.921V39.8707C113.964 40.4926 113.871 41.1165 113.649 41.699C113.427 42.2816 113.081 42.8089 112.635 43.2444C111.775 44.0146 110.654 44.4272 109.5 44.3979V44.3979ZM109.623 39.113C109.988 39.1182 110.351 39.0456 110.687 38.8998C111.022 38.7541 111.323 38.5387 111.569 38.2678C112.088 37.6242 112.371 36.8224 112.371 35.9956C112.371 35.1688 112.088 34.367 111.569 33.7234C111.321 33.4561 111.02 33.243 110.685 33.0976C110.351 32.9521 109.99 32.8775 109.625 32.8783C109.26 32.8791 108.899 32.9553 108.566 33.1023C108.232 33.2492 107.932 33.4636 107.685 33.732C107.162 34.3703 106.876 35.17 106.876 35.9951C106.876 36.8202 107.162 37.6199 107.685 38.2582C107.929 38.5298 108.228 38.7464 108.562 38.8938C108.896 39.0411 109.257 39.1158 109.623 39.1129" fill="#333333"/>
<path d="M121.476 40.5928C120.884 40.6143 120.294 40.5092 119.746 40.2845C119.198 40.0598 118.704 39.7205 118.297 39.2895C117.471 38.3956 117.031 37.2119 117.073 35.9955C117.048 34.8042 117.473 33.6472 118.262 32.7543C118.635 32.3159 119.102 31.9665 119.628 31.7319C120.154 31.4972 120.726 31.3832 121.301 31.3983C121.874 31.3735 122.444 31.4723 122.975 31.6881C123.505 31.9039 123.982 32.2315 124.375 32.6487C125.176 33.5738 125.589 34.7729 125.528 35.9955L125.511 36.2951H118.694C118.7 37.0704 119.013 37.8116 119.565 38.3561C120.066 38.8466 120.741 39.1187 121.442 39.1128C121.942 39.1541 122.442 39.0324 122.868 38.7658C123.293 38.4993 123.621 38.1022 123.802 37.6339L125.247 38.2322C124.954 38.9148 124.471 39.4988 123.855 39.9147C123.152 40.3837 122.321 40.6208 121.476 40.5928ZM123.802 34.9564C123.748 34.4217 123.508 33.923 123.124 33.5466C122.879 33.3109 122.586 33.1295 122.266 33.0144C121.945 32.8992 121.604 32.8528 121.265 32.8782C120.694 32.8677 120.139 33.0684 119.706 33.4419C119.252 33.839 118.935 34.3688 118.799 34.9564H123.802Z" fill="#333333"/>
<path d="M130.32 31.6793V32.8779H130.39C130.658 32.4339 131.041 32.0714 131.5 31.8291C131.992 31.5446 132.551 31.3958 133.12 31.3979C133.576 31.3685 134.033 31.4419 134.457 31.6126C134.88 31.7833 135.261 32.047 135.569 32.3842C136.163 33.1325 136.464 34.072 136.414 35.0262V40.311H134.793V35.273C134.793 33.6759 134.083 32.8776 132.662 32.8779C132.345 32.8714 132.031 32.9407 131.746 33.08C131.461 33.2193 131.213 33.4246 131.023 33.6788C130.603 34.2064 130.379 34.8636 130.39 35.538V40.311H128.77V31.6793H130.32Z" fill="#333333"/>
<path d="M144.021 40.5929C143.427 40.6115 142.836 40.5043 142.287 40.2782C141.737 40.0521 141.242 39.7123 140.833 39.2811C140.027 38.3765 139.582 37.2072 139.582 35.9957C139.582 34.7841 140.027 33.6149 140.833 32.7103C141.242 32.2793 141.737 31.9396 142.287 31.7135C142.836 31.4874 143.427 31.3801 144.021 31.3984C144.875 31.3653 145.716 31.6126 146.417 32.1024C147.037 32.5545 147.519 33.1708 147.808 33.8819L146.329 34.4975C146.157 34.0025 145.828 33.5768 145.393 33.2847C144.958 32.9926 144.439 32.85 143.916 32.8784C143.556 32.8809 143.2 32.9608 142.874 33.1125C142.547 33.2643 142.257 33.4844 142.022 33.7581C141.493 34.3835 141.203 35.1761 141.203 35.9952C141.203 36.8143 141.493 37.6069 142.022 38.2324C142.318 38.565 142.694 38.817 143.114 38.9648C143.534 39.1126 143.985 39.1514 144.424 39.0775C144.863 39.0036 145.276 38.8194 145.625 38.5423C145.973 38.2652 146.246 37.9041 146.417 37.4929L147.861 38.1094C147.563 38.82 147.071 39.4331 146.443 39.8794C145.734 40.3731 144.884 40.6234 144.021 40.5929Z" fill="#333333"/>
<path d="M153.344 44.1159H151.671L153.68 39.7645L150.121 31.6792H151.883L154.454 37.8802H154.489L156.991 31.6792H158.753L153.344 44.1159Z" fill="#333333"/>
</svg>
