<svg width="220" height="316" viewBox="0 0 220 316" fill="none" xmlns="http://www.w3.org/2000/svg">
<path d="M162.47 45.6489C145.242 79.1537 123.239 109.834 103.239 141.876C93.2461 157.568 84.2261 173.859 76.23 190.657C68.0392 208.615 61.3579 227.225 56.2555 246.293C53.303 257.101 50.6842 268.013 48.2451 278.976C45.8061 289.939 43.1103 300.901 41.6212 311.993C41.4672 313.199 43.1617 313.764 43.4954 312.506C46.0628 302.878 47.8344 292.942 49.9653 283.186C52.0963 273.43 54.3813 263.623 56.8973 253.943C61.7073 234.653 68.0167 215.768 75.7678 197.46C90.6589 163.185 111.712 132.222 131.789 100.797C143.309 83.1107 153.768 64.7556 163.111 45.8286C163.317 45.4178 162.701 45.0327 162.47 45.4691V45.6489Z" fill="#D3D6D8"/>
<path d="M42.5476 314.663C46.385 307.988 51.7637 302.328 58.2345 298.155C64.8192 293.761 71.0434 288.851 76.8483 283.469C82.1826 278.041 87.052 272.176 91.4056 265.934C95.9347 259.657 100.084 253.116 103.832 246.344C108.09 238.731 111.302 230.579 113.383 222.108C113.424 221.905 113.394 221.695 113.298 221.512C113.202 221.329 113.046 221.184 112.856 221.103C112.666 221.022 112.454 221.008 112.255 221.065C112.057 221.122 111.883 221.245 111.765 221.415C107.244 227.803 102.083 233.713 96.3607 239.053C90.4043 244.872 84.465 250.717 78.5428 256.588C72.8688 262.262 67.0921 267.91 61.8289 273.995C57.0471 279.396 53.0537 285.447 49.9675 291.967C46.6327 299.174 43.7515 306.583 41.3409 314.15C40.9302 315.408 42.83 315.87 43.2922 314.689C45.8596 307.962 48.1446 301.107 51.1485 294.535C54.1141 287.862 58.0033 281.639 62.7018 276.049C67.8367 270.093 73.3053 264.547 78.7996 258.976C84.2938 253.405 90.4813 247.268 96.3864 241.44C102.657 235.609 108.341 229.176 113.357 222.236L111.765 221.569C108.222 236.973 100.006 250.58 91.2258 263.34C86.808 269.823 81.8617 275.928 76.4375 281.595C70.577 287.11 64.2933 292.158 57.644 296.691C51.2768 301.467 45.2434 306.961 42.1112 314.329C41.9571 314.689 42.5733 314.946 42.753 314.586L42.5476 314.663Z" fill="#D3D6D8"/>
<path d="M8.70714 207.629C16.1556 217.484 23.014 227.772 29.2465 238.438C35.8704 248.849 40.8012 260.244 43.8551 272.199C45.2227 279.137 45.7229 286.217 45.3442 293.278C45.3404 293.506 45.4208 293.726 45.5699 293.898C45.719 294.071 45.9263 294.181 46.1521 294.21C46.3779 294.239 46.6064 294.183 46.7936 294.054C46.9809 293.924 47.1139 293.73 47.167 293.509C48.3 287.414 48.1953 281.154 46.859 275.101C45.646 268.846 43.7073 262.754 41.0823 256.949C35.747 245.515 29.3791 234.593 22.0577 224.317C18.0802 218.414 13.7953 212.723 9.22062 207.269C9.01523 207.013 8.55309 207.269 8.75849 207.629H8.70714Z" fill="#D3D6D8"/>
<path d="M28.8861 205.266C30.3495 214.123 32.0697 222.904 33.7385 231.71C34.4653 235.813 34.9624 239.953 35.2276 244.111C35.4843 247.243 35.5613 251.993 38.2058 254.124C38.2812 254.201 38.378 254.253 38.4836 254.275C38.5892 254.296 38.6988 254.286 38.7983 254.244C38.8978 254.203 38.9826 254.132 39.0417 254.042C39.1009 253.952 39.1316 253.846 39.1301 253.739C38.9317 251.999 38.5794 250.281 38.0774 248.604C37.727 246.652 37.504 244.679 37.4099 242.699C37.1687 238.691 36.6194 234.709 35.7667 230.786C33.8155 222.185 31.8129 213.584 29.6049 205.112C29.5811 205.016 29.5204 204.934 29.4361 204.884C29.3519 204.833 29.251 204.818 29.1556 204.842C29.0603 204.866 28.9784 204.927 28.9278 205.011C28.8772 205.095 28.8622 205.196 28.8861 205.291V205.266Z" fill="#D3D6D8"/>
<path d="M137.875 190.991C125.961 191.502 114.203 193.894 103.035 198.077C92.1496 202.031 80.7503 207.063 72.2265 215.099C67.3377 219.2 63.4628 224.375 60.9042 230.221C60.365 231.736 62.7784 232.352 63.3175 230.863C65.6193 225.814 68.9716 221.315 73.1508 217.666C77.2384 213.724 81.8627 210.379 86.8864 207.73C96.8495 202.185 107.479 197.931 118.517 195.073C124.87 193.496 131.347 192.466 137.875 191.992C138.44 191.992 138.44 191.093 137.875 191.119V190.991Z" fill="#D3D6D8"/>
<path d="M116.283 173.637C99.98 183.162 84.0107 194.176 72.637 209.375C71.0709 211.403 69.6075 213.534 68.2467 215.691C66.754 217.778 65.5694 220.07 64.7294 222.495C64.4983 223.291 65.6536 224.086 66.2185 223.342C67.9386 221.134 69.0683 218.464 70.5831 216.102C72.0979 213.74 73.741 211.378 75.4868 209.144C79.0697 204.568 83.001 200.277 87.2456 196.307C96.4522 188.102 106.309 180.658 116.72 174.047C116.769 173.999 116.8 173.935 116.809 173.867C116.818 173.798 116.803 173.729 116.767 173.67C116.732 173.61 116.677 173.565 116.613 173.54C116.548 173.516 116.477 173.513 116.411 173.534L116.283 173.637Z" fill="#D3D6D8"/>
<path d="M69.325 207.733C73.1545 197.252 76.2262 186.51 78.5163 175.589C80.857 165.395 81.9518 154.955 81.7769 144.497C81.0892 128.947 79.062 113.485 75.7178 98.2837C74.1769 90.0102 72.0404 81.8588 69.325 73.8932C68.9912 72.9946 67.5278 73.0716 67.5791 74.1243C68.1953 90.1963 67.2197 106.345 66.3981 122.392C65.4225 140.749 64.4982 159.029 65.2684 177.411C65.6956 188.912 66.7584 200.38 68.452 211.763C68.452 212.508 69.8384 212.328 69.7614 211.584C67.4132 191.021 66.4097 170.326 66.7575 149.632C67.2197 133.149 68.5034 116.718 69.0682 100.235C69.3763 91.5827 69.5817 82.9048 69.2479 74.227L67.5021 74.458C69.8744 81.2693 71.7787 88.2347 73.2018 95.3055C74.9733 103.444 76.3853 111.634 77.5664 119.876C78.6447 127.244 79.5176 134.638 79.877 142.058C80.2947 151.844 79.5362 161.645 77.6177 171.25C76.4624 177.386 75.0503 183.445 73.3815 189.453C71.7126 195.46 69.8384 201.442 68.4007 207.425C68.37 207.537 68.3853 207.657 68.4431 207.758C68.5008 207.859 68.5964 207.933 68.7088 207.964C68.8211 207.994 68.941 207.979 69.0422 207.921C69.1433 207.864 69.2173 207.768 69.2479 207.656L69.325 207.733Z" fill="#D3D6D8"/>
<path d="M99.0817 153.48C102.548 145.778 112.458 143.211 119.621 140.643C127.606 137.896 135.77 135.791 143.883 133.506C151.93 131.354 159.801 128.59 167.426 125.239C174.453 122.006 180.918 117.672 186.579 112.402C192.719 106.865 197.921 100.371 201.984 93.1716C202.074 93.0287 202.113 92.8595 202.094 92.6916C202.075 92.5238 202 92.3673 201.88 92.2479C201.761 92.1284 201.605 92.0532 201.437 92.0344C201.269 92.0156 201.1 92.0545 200.957 92.1446C189.172 99.8469 175.283 103.39 161.906 107.78C155.248 109.879 148.78 112.542 142.574 115.739C136.274 119.303 130.325 123.455 124.807 128.14C118.312 133.454 111.97 139.154 105.757 144.648C104.833 145.444 106.168 146.754 107.066 145.958C118.363 136.381 128.992 125.649 141.932 118.204C154.204 111.169 168.171 107.934 181.367 103.159C188.522 100.76 195.358 97.501 201.727 93.454L200.7 92.427C193.119 106.085 181.446 117.021 167.324 123.698C151.688 130.938 134.538 133.814 118.389 139.616C111.149 142.184 101.546 145.059 98.4655 152.967C98.3114 153.377 99.0047 153.686 99.21 153.275L99.0817 153.48Z" fill="#D3D6D8"/>
<path d="M100.674 45.7784C108.84 70.0457 111.196 95.8908 107.554 121.235C106.447 128.334 104.964 135.37 103.113 142.313C103.09 142.515 103.14 142.718 103.254 142.885C103.368 143.053 103.538 143.174 103.734 143.227C103.929 143.28 104.138 143.261 104.32 143.173C104.503 143.085 104.649 142.935 104.73 142.75C108.497 130.407 110.536 117.603 110.789 104.701C111.132 92.013 109.986 79.329 107.375 66.9083C105.838 59.6823 103.779 52.5775 101.213 45.6501C101.084 45.3163 100.571 45.4703 100.674 45.8041V45.7784Z" fill="#D3D6D8"/>
<path d="M80.9043 51.9902C85.654 58.7425 91.8158 64.2111 97.2074 70.4243C100.061 73.5832 102.51 77.0846 104.499 80.848C105.637 83.089 106.598 85.4153 107.374 87.8057C107.98 90.0551 108.717 92.2669 109.582 94.4296C109.813 94.8918 110.686 94.6864 110.635 94.1472C110.234 91.8457 109.598 89.5917 108.735 87.4206C108.017 85.2036 107.159 83.0341 106.168 80.925C104.311 77.2164 101.981 73.7644 99.2357 70.6553C93.5873 64.1084 86.835 58.5371 81.5718 51.6308C81.3151 51.297 80.7246 51.6308 80.9813 51.9902H80.9043Z" fill="#D3D6D8"/>
<path d="M110.402 39.999C114.774 56.1594 114.147 73.2651 108.605 89.0623C108.348 89.7555 109.452 90.0636 109.683 89.3704C115.506 73.4473 115.912 56.048 110.839 39.8706C110.814 39.8221 110.774 39.7836 110.724 39.7619C110.674 39.7402 110.619 39.7368 110.567 39.7521C110.515 39.7674 110.47 39.8005 110.439 39.8456C110.409 39.8908 110.396 39.9451 110.402 39.999Z" fill="#D3D6D8"/>
<path d="M210.095 51.9391C204.602 52.4997 199.142 53.3568 193.741 54.5065C188.604 55.7362 183.612 57.5091 178.85 59.7953C173.869 62.1317 169.068 64.9302 164.318 67.626C159.508 70.3665 154.877 73.4107 150.454 76.7403C145.703 80.06 141.487 84.0859 137.951 88.6788C137.669 89.0896 138.285 89.4747 138.618 89.1666C142.47 85.9317 145.833 82.1576 149.787 78.8969C154.032 75.5565 158.501 72.5112 163.163 69.7826C172.037 64.0066 181.637 59.4311 191.713 56.1753C197.748 54.5736 203.892 53.4152 210.095 52.7093C210.583 52.7093 210.609 51.862 210.095 51.9134V51.9391Z" fill="#D3D6D8"/>
<path d="M203.856 71.5547C196.213 69.9164 188.435 68.9797 180.621 68.7563C173.33 68.4482 165.063 68.4482 158.182 71.3237C157.386 71.6574 157.668 72.9155 158.567 72.6844C162.187 71.6112 165.888 70.8299 169.633 70.3481C173.388 70.0142 177.161 69.9113 180.929 70.04C188.632 70.271 196.18 71.2723 203.831 71.6831V71.4777L203.856 71.5547Z" fill="#D3D6D8"/>
<path d="M138.439 87.3963C142.172 81.2688 145.434 74.866 148.195 68.2433C150.105 63.2857 151.398 58.1121 152.046 52.8388C153.612 41.3882 153.587 29.7321 154.074 18.2814C154.175 12.6423 154.716 7.01975 155.692 1.46483C155.726 1.2916 155.699 1.11197 155.617 0.955993C155.534 0.800015 155.4 0.677158 155.238 0.607986C155.075 0.538815 154.894 0.527526 154.724 0.576009C154.555 0.624492 154.407 0.729805 154.305 0.87432C152.326 4.26392 150.61 7.80019 149.171 11.4521C147.014 16.5869 145.114 21.9528 143.394 27.3187C139.361 39.2028 136.775 51.5297 135.692 64.0328C135.51 71.7759 136.112 79.5175 137.489 87.1395C137.489 87.8584 138.721 87.8584 138.619 87.1395C137.434 80.2948 136.799 73.3664 136.719 66.4205C137.042 60.3658 137.901 54.3517 139.286 48.4486C141.82 36.6518 145.35 25.0912 149.838 13.8911C151.428 9.65887 153.36 5.56313 155.615 1.64455L154.228 1.05404C152.174 11.1697 152.406 21.7474 152.097 32.0171C151.764 43.0827 151.481 54.482 148.118 64.9827C145.323 72.5941 141.887 79.9547 137.848 86.9855C137.821 87.0327 137.804 87.0847 137.797 87.1387C137.79 87.1926 137.794 87.2474 137.808 87.2998C137.823 87.3523 137.847 87.4014 137.88 87.4444C137.914 87.4873 137.955 87.5233 138.002 87.5503C138.05 87.5773 138.102 87.5947 138.156 87.6016C138.209 87.6084 138.264 87.6046 138.317 87.5903C138.369 87.576 138.418 87.5515 138.461 87.5182C138.504 87.4849 138.54 87.4435 138.567 87.3963H138.439Z" fill="#D3D6D8"/>
<path d="M173.356 21.5694C170.789 26.9866 168.221 32.3012 165.654 37.6671C164.293 40.4913 163.086 43.3154 161.623 46.1396C160.275 48.4742 159.199 50.955 158.414 53.5337C158.392 53.6216 158.402 53.7144 158.441 53.7958C158.481 53.8772 158.548 53.942 158.631 53.9787C158.714 54.0155 158.807 54.022 158.894 53.9969C158.981 53.9719 159.056 53.917 159.107 53.8418C160.508 51.4976 161.694 49.0314 162.65 46.4733C163.959 43.6235 165.217 40.7737 166.655 37.9495C169.223 32.635 171.636 27.2947 173.921 21.9032C174.075 21.518 173.536 21.1586 173.356 21.5694Z" fill="#D3D6D8"/>
<path d="M193.075 16.9229C186.811 21.5598 180.945 26.7126 175.54 32.3274C172.69 35.3826 169.968 38.4635 167.298 41.6214C164.357 44.8238 161.678 48.2581 159.288 51.8911C159.227 51.9728 159.2 52.0755 159.215 52.1766C159.229 52.2777 159.283 52.3689 159.365 52.4302C159.447 52.4915 159.549 52.5178 159.651 52.5034C159.752 52.4889 159.843 52.4349 159.904 52.3532C162.882 49.3237 165.27 45.6009 167.992 42.3403C170.713 39.0797 173.332 36.0501 176.156 33.0462C181.475 27.3951 187.226 22.1674 193.358 17.4107C193.563 17.2566 193.358 16.8972 193.075 17.0512V16.9229Z" fill="#D3D6D8"/>
<path d="M28.9889 205.162C28.0478 205.508 27.026 205.571 26.0497 205.342C25.0733 205.114 24.1851 204.605 23.4947 203.878C22.7537 203.159 22.247 202.232 22.0409 201.22C21.8348 200.207 21.9388 199.157 22.3393 198.204C22.7762 197.336 23.4326 196.598 24.2433 196.062C25.054 195.526 25.9908 195.211 26.9607 195.149C27.8535 195.133 28.7309 195.383 29.4808 195.868C30.2308 196.353 30.8193 197.05 31.1712 197.871C31.7066 198.935 31.8404 200.157 31.5481 201.312C31.2557 202.468 30.5568 203.479 29.5794 204.161C28.8606 204.649 29.5794 205.804 30.2726 205.316C31.3862 204.573 32.2237 203.484 32.6554 202.217C33.087 200.949 33.0888 199.575 32.6603 198.307C32.332 197.209 31.6954 196.229 30.8261 195.482C29.9568 194.736 28.8914 194.255 27.7566 194.096C26.5901 194.018 25.4243 194.259 24.3841 194.793C23.3438 195.326 22.4684 196.133 21.8515 197.126C21.2048 198.156 20.9011 199.364 20.9841 200.577C21.0672 201.791 21.5326 202.946 22.3137 203.878C23.0737 204.896 24.133 205.65 25.3432 206.035C25.9708 206.239 26.635 206.306 27.2907 206.231C27.9463 206.155 28.5781 205.94 29.143 205.598C29.1941 205.578 29.2349 205.538 29.2566 205.488C29.2783 205.437 29.2789 205.38 29.2585 205.329C29.2381 205.278 29.1982 205.237 29.1477 205.215C29.0971 205.194 29.04 205.193 28.9889 205.213V205.162Z" fill="#D3D6D8"/>
<path d="M116.358 173.478C115.979 172.569 115.869 171.57 116.042 170.601C116.215 169.631 116.663 168.732 117.333 168.01C118.003 167.228 118.892 166.665 119.886 166.395C120.879 166.125 121.931 166.16 122.905 166.495C123.826 166.878 124.627 167.502 125.224 168.301C125.82 169.101 126.19 170.047 126.294 171.039C126.343 171.932 126.126 172.819 125.668 173.588C125.211 174.356 124.535 174.971 123.726 175.353C122.684 175.923 121.472 176.102 120.309 175.857C119.146 175.613 118.109 174.96 117.385 174.017C116.897 173.324 115.716 174.017 116.229 174.711C116.97 175.703 117.989 176.451 119.158 176.86C120.326 177.269 121.59 177.319 122.788 177.004C123.985 176.69 125.061 176.025 125.878 175.095C126.694 174.165 127.215 173.012 127.372 171.784C127.407 170.605 127.12 169.439 126.541 168.412C125.961 167.385 125.113 166.536 124.086 165.956C123.02 165.371 121.797 165.135 120.59 165.283C119.383 165.43 118.253 165.953 117.359 166.777C116.395 167.584 115.704 168.669 115.382 169.884C115.207 170.51 115.169 171.167 115.271 171.81C115.373 172.452 115.612 173.065 115.973 173.607C115.973 173.786 116.435 173.607 116.358 173.453V173.478Z" fill="#D3D6D8"/>
<path d="M100.442 46.1137C99.6094 46.6551 98.6373 46.9433 97.6439 46.9433C96.6504 46.9433 95.6783 46.6551 94.8454 46.1137C93.9547 45.6109 93.2345 44.8535 92.777 43.9386C92.3196 43.0238 92.1458 41.9932 92.278 40.9789C92.4874 40.0135 92.9533 39.1225 93.6265 38.3996C94.2997 37.6766 95.1554 37.1486 96.1034 36.871C96.9475 36.6581 97.8355 36.6979 98.6571 36.9855C99.4787 37.273 100.198 37.7957 100.725 38.4885C101.516 39.3956 101.952 40.5584 101.952 41.762C101.952 42.9655 101.516 44.1283 100.725 45.0354C100.134 45.6516 101.084 46.6272 101.675 45.9854C102.588 44.9935 103.145 43.7252 103.257 42.3812C103.369 41.0373 103.029 39.6945 102.291 38.5655C101.721 37.6026 100.891 36.8198 99.8966 36.3067C98.9022 35.7936 97.7833 35.5709 96.6682 35.6643C95.5 35.8455 94.4036 36.3434 93.4984 37.1038C92.5931 37.8642 91.9135 38.8581 91.5334 39.9776C91.1451 41.1496 91.1425 42.4152 91.526 43.5888C91.9095 44.7624 92.6589 45.7823 93.6644 46.4988C94.645 47.2861 95.8488 47.7442 97.1047 47.8082C97.7581 47.8468 98.4122 47.7454 99.0233 47.5107C99.6343 47.276 100.188 46.9135 100.648 46.4475C100.676 46.4105 100.691 46.3649 100.691 46.3181C100.69 46.2714 100.673 46.2263 100.643 46.1904C100.613 46.1545 100.572 46.1299 100.526 46.1206C100.48 46.1113 100.433 46.118 100.391 46.1394L100.442 46.1137Z" fill="#D3D6D8"/>
<path d="M192.74 17.0494C192.269 16.1781 192.05 15.1923 192.109 14.2033C192.168 13.2143 192.502 12.2615 193.074 11.4524C193.662 10.5856 194.501 9.91941 195.479 9.54311C196.456 9.1668 197.525 9.09842 198.543 9.34713C199.492 9.64233 200.345 10.186 201.013 10.9219C201.681 11.6577 202.14 12.5589 202.343 13.532C202.461 14.4013 202.328 15.2863 201.96 16.0825C201.591 16.8787 201.002 17.5527 200.263 18.025C199.279 18.6843 198.097 18.983 196.918 18.8708C195.739 18.7585 194.635 18.242 193.793 17.4088C193.203 16.767 192.253 17.7169 192.843 18.3588C193.775 19.3497 195.011 20.0014 196.355 20.2107C197.699 20.42 199.074 20.1748 200.263 19.5141C201.264 19.0149 202.105 18.2451 202.69 17.2921C203.276 16.339 203.582 15.241 203.575 14.1225C203.477 12.9334 203.05 11.795 202.343 10.834C201.636 9.87295 200.676 9.12714 199.57 8.6796C198.423 8.20439 197.155 8.1075 195.95 8.40304C194.745 8.69859 193.665 9.37113 192.869 10.3227C192.032 11.2754 191.496 12.4547 191.328 13.7117C191.247 14.3808 191.315 15.0596 191.528 15.6991C191.741 16.3385 192.094 16.9225 192.561 17.4088C192.715 17.5885 192.972 17.4088 192.869 17.1777L192.74 17.0494Z" fill="#D3D6D8"/>
<path d="M173.303 21.2574C172.664 20.8825 172.136 20.3457 171.77 19.701C171.405 19.0564 171.217 18.3269 171.224 17.586C171.21 16.8317 171.407 16.0884 171.793 15.4399C172.178 14.7913 172.737 14.2631 173.406 13.9146C174.068 13.6433 174.787 13.5388 175.498 13.6105C176.21 13.6821 176.894 13.9276 177.488 14.3254C178.122 14.7454 178.598 15.3649 178.839 16.0858C179.081 16.8067 179.076 17.5876 178.823 18.3049C178.511 19.2258 177.868 19.9981 177.019 20.4723C176.17 20.9466 175.176 21.0891 174.228 20.8723C174.061 20.8353 173.886 20.8636 173.74 20.9513C173.593 21.039 173.486 21.1796 173.44 21.344C173.394 21.5084 173.413 21.6842 173.492 21.8353C173.572 21.9863 173.707 22.1011 173.868 22.156C174.996 22.4788 176.202 22.3931 177.273 21.914C178.343 21.435 179.211 20.5933 179.722 19.5373C180.183 18.6353 180.346 17.6106 180.19 16.61C180.033 15.6093 179.564 14.6838 178.849 13.966C178.162 13.3526 177.331 12.9228 176.433 12.7163C175.536 12.5098 174.6 12.5335 173.714 12.785C172.832 13.0856 172.056 13.6365 171.482 14.3705C170.907 15.1045 170.559 15.9899 170.479 16.9185C170.343 17.9044 170.513 18.9082 170.967 19.794C171.206 20.2081 171.499 20.5881 171.84 20.9237C172.238 21.2646 172.715 21.5026 173.226 21.6169C173.27 21.621 173.313 21.6112 173.35 21.589C173.388 21.5668 173.417 21.5333 173.434 21.4933C173.451 21.4533 173.455 21.409 173.446 21.3666C173.436 21.3242 173.413 21.286 173.38 21.2574H173.303Z" fill="#D3D6D8"/>
<path d="M210.532 52.4793C210.458 51.679 210.614 50.8742 210.983 50.1599C211.351 49.4456 211.917 48.8517 212.612 48.4484C213.272 48.0388 214.037 47.8326 214.814 47.8554C215.59 47.8783 216.342 48.1292 216.977 48.5768C217.539 49.0435 217.978 49.641 218.255 50.3169C218.533 50.9928 218.64 51.7265 218.568 52.4536C218.473 53.1332 218.178 53.7693 217.721 54.2812C217.264 54.7931 216.665 55.1578 216.001 55.3291C215.098 55.5702 214.138 55.477 213.298 55.0666C212.459 54.6561 211.795 53.9561 211.431 53.0954C211.123 52.2739 209.813 52.6333 210.121 53.4549C210.502 54.4822 211.213 55.3544 212.142 55.9351C213.071 56.5158 214.166 56.7721 215.256 56.6641C216.182 56.5595 217.058 56.192 217.782 55.6051C218.505 55.0182 219.045 54.2364 219.339 53.3522C219.583 52.4765 219.591 51.5516 219.361 50.6719C219.131 49.7923 218.671 48.9896 218.029 48.3457C217.344 47.6493 216.46 47.1836 215.498 47.0133C214.536 46.8431 213.545 46.9768 212.663 47.3958C211.676 47.8088 210.847 48.529 210.301 49.4497C210.025 49.9085 209.854 50.4228 209.801 50.9556C209.748 51.4883 209.813 52.0262 209.993 52.5306C209.993 52.736 210.404 52.7103 210.404 52.5306L210.532 52.4793Z" fill="#D3D6D8"/>
<path d="M204.039 71.3248C204.254 70.5912 204.663 69.9294 205.224 69.4096C205.784 68.8898 206.475 68.5313 207.222 68.3722C207.942 68.2077 208.693 68.2427 209.394 68.4734C210.095 68.7042 210.72 69.1219 211.202 69.6816C211.606 70.252 211.868 70.9107 211.966 71.6029C212.065 72.2951 211.996 73.0007 211.767 73.6611C211.516 74.3951 211.024 75.0227 210.372 75.4421C209.719 75.8616 208.944 76.0482 208.172 75.9718C207.191 75.9071 206.271 75.4746 205.595 74.7606C204.919 74.0466 204.537 73.1038 204.527 72.1206C204.527 71.9436 204.456 71.7738 204.331 71.6486C204.206 71.5234 204.036 71.4531 203.859 71.4531C203.682 71.4531 203.512 71.5234 203.387 71.6486C203.262 71.7738 203.192 71.9436 203.192 72.1206C203.183 73.2649 203.569 74.377 204.285 75.2701C205 76.1631 206.001 76.7826 207.12 77.0244C208.125 77.2758 209.185 77.1968 210.142 76.7991C211.099 76.4015 211.903 75.7063 212.434 74.8164C212.857 74.0266 213.078 73.1447 213.078 72.249C213.078 71.3533 212.857 70.4714 212.434 69.6816C211.951 68.8949 211.25 68.2653 210.416 67.8688C209.582 67.4724 208.651 67.3262 207.736 67.448C206.722 67.5371 205.761 67.941 204.989 68.6033C204.609 68.9191 204.298 69.3103 204.077 69.7522C203.856 70.1942 203.73 70.6772 203.705 71.1707C203.705 71.4018 204.039 71.4274 204.116 71.1707L204.039 71.3248Z" fill="#D3D6D8"/>
<path d="M80.569 51.7314C79.7333 52.2782 78.7564 52.5694 77.7577 52.5694C76.759 52.5694 75.7821 52.2782 74.9464 51.7314C74.0557 51.2286 73.3355 50.4712 72.878 49.5563C72.4206 48.6415 72.2468 47.6109 72.379 46.5966C72.5957 45.6304 73.0671 44.7399 73.7444 44.0175C74.4216 43.2951 75.2799 42.7673 76.2301 42.4887C77.0743 42.2825 77.9602 42.3256 78.7804 42.6127C79.6007 42.8997 80.3201 43.4185 80.8514 44.1062C81.6424 45.0133 82.0782 46.1761 82.0782 47.3797C82.0782 48.5832 81.6424 49.746 80.8514 50.6531C80.2866 51.2693 81.2365 52.2192 81.8014 51.6031C82.7111 50.6099 83.2673 49.344 83.3833 48.0022C83.4994 46.6604 83.1689 45.3178 82.4432 44.1832C81.8687 43.2245 81.0381 42.445 80.0448 41.9325C79.0515 41.42 77.9349 41.1947 76.8206 41.282C75.6533 41.4659 74.5583 41.9647 73.6535 42.7248C72.7487 43.4848 72.0684 44.4773 71.6858 45.5953C71.2974 46.7673 71.2948 48.0329 71.6783 49.2065C72.0618 50.3801 72.8112 51.4 73.8167 52.1165C74.8 52.8992 76.0022 53.3568 77.2571 53.4259C77.9108 53.4679 78.5659 53.368 79.1774 53.1331C79.789 52.8983 80.3425 52.534 80.8001 52.0652C80.9541 51.9111 80.8001 51.6287 80.569 51.7571V51.7314Z" fill="#D3D6D8"/>
<path d="M109.89 39.8726C108.865 39.9723 107.833 39.7702 106.92 39.2913C106.008 38.8124 105.256 38.0775 104.755 37.1769C104.246 36.3033 104.006 35.2989 104.066 34.2895C104.125 33.2801 104.481 32.3107 105.089 31.5029C105.675 30.8193 106.418 30.2874 107.254 29.9522C108.09 29.6169 108.994 29.4883 109.89 29.5773C110.815 29.6943 111.68 30.0994 112.362 30.7353C113.044 31.3712 113.509 32.2057 113.69 33.1203C113.969 34.2977 113.823 35.5358 113.278 36.6162C112.733 37.6965 111.824 38.5498 110.712 39.0254C109.89 39.3078 110.25 40.6172 111.046 40.3348C112.323 39.8702 113.41 38.9965 114.139 37.8495C114.868 36.7026 115.198 35.3468 115.076 33.9933C114.996 32.8243 114.577 31.7041 113.87 30.7695C113.163 29.8348 112.2 29.1262 111.097 28.7301C110.01 28.4296 108.864 28.4159 107.771 28.6904C106.677 28.9649 105.674 29.5181 104.858 30.2962C104.006 31.1297 103.433 32.2062 103.217 33.3783C103.001 34.5504 103.153 35.7607 103.651 36.8431C104.081 38.0969 104.966 39.1437 106.131 39.776C107.296 40.4084 108.656 40.5803 109.942 40.2578C110.147 40.2578 110.121 39.847 109.942 39.8726H109.89Z" fill="#D3D6D8"/>
<path d="M137.593 190.272C137.086 188.916 136.984 187.442 137.297 186.029C137.61 184.616 138.326 183.323 139.358 182.308C140.389 181.292 141.693 180.597 143.111 180.307C144.529 180.016 146.001 180.142 147.349 180.67C148.585 181.279 149.644 182.197 150.422 183.335C151.2 184.472 151.672 185.792 151.79 187.165C151.829 188.448 151.492 189.714 150.822 190.809C150.151 191.903 149.176 192.778 148.016 193.327C146.489 194.12 144.728 194.342 143.052 193.951C141.376 193.56 139.895 192.583 138.876 191.196C138.388 190.503 137.233 191.196 137.721 191.889C138.74 193.355 140.207 194.45 141.901 195.01C143.596 195.57 145.426 195.565 147.118 194.996C148.592 194.559 149.911 193.711 150.92 192.552C151.93 191.392 152.588 189.969 152.817 188.449C152.949 186.855 152.641 185.255 151.926 183.824C151.21 182.393 150.115 181.187 148.761 180.336C147.346 179.457 145.688 179.05 144.026 179.174C142.365 179.299 140.786 179.949 139.518 181.029C138.064 182.053 137.031 183.57 136.61 185.298C136.19 187.027 136.411 188.849 137.233 190.426C137.233 190.631 137.695 190.426 137.593 190.272Z" fill="#D3D6D8"/>
<path d="M8.323 207.4C7.31928 207.629 6.27056 207.562 5.3043 207.207C4.33804 206.851 3.49585 206.223 2.88008 205.397C2.27056 204.584 1.91594 203.609 1.8611 202.594C1.80625 201.58 2.05366 200.572 2.57199 199.698C3.08804 198.891 3.80332 198.231 4.64879 197.781C5.49426 197.331 6.44137 197.107 7.39873 197.13C8.30167 197.204 9.16091 197.55 9.86247 198.123C10.564 198.696 11.0748 199.469 11.3269 200.34C11.7286 201.459 11.7165 202.685 11.2927 203.797C10.8689 204.908 10.0614 205.831 9.01621 206.399C8.24598 206.809 9.01621 207.965 9.70941 207.554C10.8971 206.911 11.837 205.89 12.3808 204.654C12.9247 203.417 13.0417 202.035 12.7133 200.725C12.4451 199.648 11.8829 198.668 11.0894 197.892C10.296 197.117 9.30264 196.578 8.22031 196.334C7.09457 196.142 5.93791 196.252 4.86874 196.654C3.79957 197.055 2.85631 197.733 2.13553 198.619C1.38449 199.558 0.941883 200.705 0.868345 201.905C0.794807 203.104 1.09393 204.297 1.72474 205.32C2.39205 206.465 3.40897 207.365 4.62592 207.888C5.22963 208.166 5.8866 208.311 6.55149 208.311C7.21637 208.311 7.87334 208.166 8.47705 207.888C8.68244 207.888 8.47705 207.477 8.323 207.528V207.4Z" fill="#D3D6D8"/>
</svg>
