<svg width="123" height="45" viewBox="0 0 123 45" fill="none" xmlns="http://www.w3.org/2000/svg">
<path d="M26.5091 28.5645C26.4599 31.2355 25.5219 33.8139 23.8434 35.8923C22.0419 38.0163 19.4426 39.0781 16.0452 39.0776C12.6472 39.0776 10.0483 38.0158 8.24851 35.8923C6.56881 33.8146 5.63065 31.2357 5.58275 28.5645H0C0.229091 33.0852 1.70436 36.7921 4.4258 39.685C7.39918 42.8404 11.2723 44.4179 16.0452 44.4177C20.9806 44.4177 24.8947 42.8502 27.7874 39.715C30.4382 36.8416 31.873 33.1247 32.0919 28.5645L26.5091 28.5645Z" fill="#2A79E1"/>
<path d="M41.8242 28.5635H36.2422V43.446H41.8242V28.5635Z" fill="#2A79E1"/>
<path d="M45.4102 43.4465L59.9737 20.9956L46.2595 0H52.935L63.4931 16.6262H63.7357L74.2946 0H80.9686L51.9643 43.4465H45.4102Z" fill="#2A79E1"/>
<path d="M74.0425 35.3622C73.0333 35.3607 72.0248 35.3457 71.0156 35.3379L76.2651 43.4344H82.8192L77.5783 35.3551C76.4 35.3586 75.2209 35.3636 74.0425 35.3622" fill="#2A79E1"/>
<path d="M41.937 2.9476C41.9371 3.51079 41.7701 4.06136 41.4573 4.52968C41.1445 4.99799 40.6998 5.36302 40.1794 5.57858C39.6591 5.79414 39.0866 5.85057 38.5342 5.74072C37.9818 5.63086 37.4744 5.35967 37.0762 4.96143C36.6779 4.56319 36.4067 4.0558 36.2969 3.50342C36.187 2.95104 36.2434 2.37849 36.459 1.85818C36.6746 1.33787 37.0396 0.893163 37.5079 0.580312C37.9762 0.267461 38.5268 0.100514 39.09 0.100586C39.845 0.100609 40.5692 0.400567 41.1031 0.934479C41.637 1.46839 41.937 2.19253 41.937 2.9476Z" fill="#2A79E1"/>
<path d="M84.7082 19.4347C84.3007 19.4357 83.8978 19.3485 83.5272 19.179C83.1566 19.0094 82.8271 18.7616 82.5613 18.4527C81.9554 17.7893 81.6314 16.9162 81.6578 16.0181C81.6313 15.1199 81.9553 14.2465 82.5613 13.5829C82.8271 13.274 83.1566 13.0263 83.5272 12.8569C83.8978 12.6875 84.3007 12.6004 84.7082 12.6015C85.166 12.5941 85.6183 12.7018 86.0236 12.9149C86.3789 13.0942 86.6796 13.3656 86.8944 13.7007H86.9465L86.8944 12.8107V9.85156H88.0991V19.2249H86.9465V18.3349H86.8944C86.6796 18.67 86.3789 18.9414 86.0236 19.1207C85.6185 19.3343 85.1661 19.4423 84.7082 19.4347ZM84.9045 18.3349C85.1763 18.3388 85.4458 18.2848 85.6951 18.1765C85.9444 18.0682 86.1678 17.9081 86.3505 17.7069C86.764 17.2445 86.9782 16.6376 86.9465 16.0182C86.9783 15.3987 86.7641 14.7918 86.3505 14.3295C86.1662 14.1307 85.9427 13.9722 85.6941 13.864C85.4455 13.7558 85.1772 13.7002 84.9061 13.7007C84.635 13.7013 84.3669 13.7579 84.1187 13.8671C83.8706 13.9763 83.6477 14.1357 83.4642 14.3353C83.0495 14.7949 82.8333 15.3998 82.8625 16.0182C82.8331 16.6362 83.0494 17.2407 83.4642 17.6998C83.6455 17.9017 83.8677 18.0627 84.116 18.1722C84.3644 18.2817 84.6331 18.3372 84.9045 18.3349" fill="#2A79E1"/>
<path d="M92.1813 11.2004C92.0421 11.3393 91.859 11.4256 91.6633 11.4447C91.4675 11.4638 91.2712 11.4144 91.1078 11.305C90.9444 11.1956 90.8239 11.033 90.7669 10.8447C90.71 10.6565 90.72 10.4543 90.7953 10.2727C90.8707 10.091 91.0066 9.94105 91.1801 9.84837C91.3536 9.7557 91.5538 9.72602 91.7467 9.76439C91.9396 9.80275 92.1132 9.9068 92.238 10.0588C92.3628 10.2108 92.4311 10.4014 92.4311 10.598C92.433 10.7102 92.4117 10.8215 92.3688 10.9251C92.3258 11.0288 92.262 11.1225 92.1813 11.2004Z" fill="#2A79E1"/>
<path d="M92.1845 12.8115H90.9805V19.2258H92.1845V12.8115Z" fill="#2A79E1"/>
<path d="M97.7858 22.2629C97.1193 22.2918 96.4631 22.0907 95.9272 21.6933C95.4781 21.3533 95.1221 20.9052 94.8923 20.3908L95.9915 19.9326C96.119 20.2885 96.3552 20.5954 96.6667 20.8097C96.9921 21.0447 97.3845 21.1686 97.7858 21.163C98.0736 21.1786 98.3614 21.1337 98.6308 21.0312C98.9001 20.9287 99.145 20.7708 99.3496 20.5678C99.7465 20.1256 99.9516 19.5439 99.9198 18.9505V18.3352H99.8677C99.6395 18.666 99.3337 18.9359 98.977 19.121C98.5789 19.334 98.133 19.4421 97.6816 19.4351C97.2739 19.4362 96.8709 19.3489 96.5001 19.1794C96.1294 19.0099 95.7998 18.762 95.534 18.453C94.9281 17.7896 94.604 16.9165 94.6304 16.0185C94.6039 15.1202 94.928 14.2468 95.534 13.5832C95.7998 13.2743 96.1295 13.0266 96.5002 12.8572C96.8709 12.6877 97.274 12.6007 97.6816 12.6019C98.1329 12.595 98.5787 12.7028 98.977 12.9152C99.3337 13.1004 99.6395 13.3702 99.8677 13.701H99.9199V12.811H101.072V18.8984C101.104 19.3606 101.035 19.8242 100.87 20.2571C100.705 20.6901 100.448 21.082 100.116 21.4057C99.4769 21.9778 98.6434 22.2844 97.7858 22.2629L97.7858 22.2629ZM97.8772 18.3352C98.1491 18.3391 98.4187 18.285 98.6681 18.1768C98.9175 18.0685 99.1411 17.9084 99.3239 17.7072C99.7371 17.2447 99.9513 16.6379 99.9199 16.0185C99.9514 15.3991 99.7372 14.7923 99.3239 14.3298C99.1395 14.131 98.916 13.9725 98.6673 13.8643C98.4187 13.7561 98.1503 13.7005 97.8792 13.7011C97.608 13.7016 97.3399 13.7583 97.0917 13.8675C96.8435 13.9767 96.6205 14.136 96.4369 14.3356C96.0223 14.7953 95.806 15.4002 95.8353 16.0186C95.8059 16.6365 96.0222 17.241 96.4369 17.7001C96.6183 17.9019 96.8405 18.0629 97.0888 18.1725C97.3371 18.282 97.6059 18.3375 97.8772 18.3353" fill="#2A79E1"/>
<path d="M105.158 11.2011C105.019 11.3406 104.835 11.4275 104.639 11.447C104.443 11.4664 104.246 11.4173 104.082 11.3078C103.918 11.1984 103.797 11.0356 103.74 10.8469C103.683 10.6583 103.692 10.4557 103.768 10.2735C103.843 10.0913 103.979 9.94093 104.153 9.8479C104.327 9.75488 104.528 9.725 104.721 9.76336C104.914 9.80171 105.088 9.90594 105.214 10.0583C105.339 10.2106 105.407 10.4016 105.407 10.5987C105.409 10.7108 105.388 10.8221 105.345 10.9257C105.302 11.0293 105.239 11.123 105.158 11.2011Z" fill="#2A79E1"/>
<path d="M105.157 12.8115H103.953V19.2258H105.157V12.8115Z" fill="#2A79E1"/>
<path d="M110.745 19.3309C110.467 19.3636 110.185 19.333 109.92 19.2415C109.655 19.15 109.414 18.9998 109.215 18.8022C109.016 18.6046 108.865 18.3647 108.772 18.1004C108.678 17.836 108.646 17.554 108.677 17.2754V13.9109H107.551V12.8111H108.677V10.8477H109.881V12.8111H111.451V13.911H109.881V17.1834C109.881 17.8821 110.169 18.2314 110.745 18.2311C110.934 18.2367 111.122 18.2011 111.296 18.1269L111.713 19.1611C111.405 19.2826 111.076 19.3404 110.745 19.331" fill="#2A79E1"/>
<path d="M115.815 19.4352C115.193 19.4555 114.584 19.2459 114.107 18.8464C113.882 18.6556 113.703 18.4163 113.584 18.1464C113.465 17.8765 113.408 17.5831 113.419 17.2884C113.407 16.9686 113.475 16.6508 113.617 16.3639C113.759 16.0769 113.97 15.8298 114.231 15.6447C114.816 15.2345 115.52 15.0256 116.234 15.0494C116.839 15.0256 117.439 15.1609 117.975 15.442V15.2585C117.983 15.0458 117.944 14.8339 117.86 14.6382C117.777 14.4425 117.65 14.2679 117.49 14.1273C117.161 13.8407 116.736 13.6886 116.299 13.7012C115.966 13.6969 115.639 13.7827 115.351 13.9496C115.081 14.0991 114.874 14.3412 114.768 14.6312L113.668 14.1594C113.854 13.7283 114.158 13.3585 114.545 13.0924C115.052 12.744 115.659 12.5717 116.273 12.6021C117.021 12.5758 117.75 12.8331 118.315 13.3222C118.591 13.58 118.807 13.8953 118.947 14.2459C119.088 14.5965 119.149 14.9737 119.127 15.3506V19.2254H117.975V18.3354H117.923C117.7 18.6887 117.388 18.9766 117.018 19.1698C116.647 19.3631 116.232 19.4546 115.815 19.4352ZM116.012 18.3354C116.518 18.3317 117.003 18.1325 117.366 17.7794C117.557 17.6173 117.71 17.4157 117.815 17.1884C117.921 16.9611 117.975 16.7137 117.975 16.4633C117.528 16.1522 116.987 16.0043 116.443 16.0443C115.972 16.01 115.503 16.1446 115.122 16.424C114.985 16.5292 114.874 16.6638 114.797 16.818C114.72 16.9721 114.678 17.1417 114.676 17.3141C114.673 17.463 114.709 17.6102 114.78 17.7411C114.851 17.872 114.955 17.9821 115.082 18.0606C115.356 18.2451 115.681 18.341 116.012 18.3354" fill="#2A79E1"/>
<path d="M123.001 9.85254H121.797V19.2259H123.001V9.85254Z" fill="#2A79E1"/>
<path d="M72.3629 30.1686C71.7403 30.1891 71.132 29.9795 70.6542 29.5798C70.4291 29.3891 70.2503 29.1497 70.1311 28.8799C70.0119 28.61 69.9555 28.3166 69.9662 28.0217C69.9543 27.7019 70.0223 27.3842 70.1641 27.0974C70.306 26.8105 70.5171 26.5635 70.7784 26.3788C71.3636 25.968 72.0665 25.7588 72.7811 25.7828C73.3857 25.7589 73.986 25.8942 74.5219 26.1753V25.9926C74.5303 25.7799 74.4912 25.5679 74.4075 25.3721C74.3238 25.1763 74.1976 25.0016 74.038 24.8607C73.7081 24.5743 73.2827 24.4225 72.8461 24.4353C72.5133 24.431 72.1856 24.5165 71.8975 24.6829C71.6276 24.8325 71.4207 25.0746 71.3151 25.3646L70.2153 24.8928C70.4013 24.4618 70.7051 24.092 71.0917 23.8258C71.5987 23.4774 72.206 23.3052 72.8204 23.3354C73.5677 23.3092 74.2974 23.5664 74.863 24.0556C75.1388 24.3134 75.3544 24.6288 75.4945 24.9794C75.6347 25.33 75.6959 25.7071 75.6738 26.084V29.9595H74.5219V29.0688H74.4698C74.2472 29.422 73.9349 29.7099 73.5648 29.9031C73.1947 30.0963 72.7799 30.1879 72.3629 30.1686ZM72.5584 29.0688C73.0649 29.0655 73.5504 28.8663 73.9131 28.5128C74.1039 28.3508 74.2571 28.1492 74.3623 27.9221C74.4674 27.695 74.5219 27.4477 74.5219 27.1974C74.0746 26.8859 73.5337 26.738 72.9902 26.7784C72.5186 26.7439 72.0501 26.8782 71.6684 27.1574C71.5318 27.2625 71.4208 27.3972 71.3437 27.5514C71.2665 27.7055 71.2253 27.8751 71.223 28.0474C71.2199 28.1965 71.2557 28.3437 71.3269 28.4747C71.3982 28.6056 71.5023 28.7157 71.6292 28.794C71.9035 28.9786 72.2278 29.0745 72.5584 29.0688Z" fill="#2A79E1"/>
<path d="M81.0694 32.9953C80.4029 33.0245 79.7466 32.8234 79.2109 32.4258C78.7618 32.0856 78.4058 31.6376 78.176 31.1232L79.2758 30.665C79.4028 31.021 79.6388 31.328 79.9503 31.5422C80.2757 31.7771 80.6681 31.901 81.0694 31.8955C81.3572 31.9112 81.6451 31.8664 81.9145 31.7639C82.1839 31.6613 82.4287 31.5034 82.6332 31.3002C83.0302 30.858 83.2353 30.2763 83.2035 29.6829V29.0677H83.1514C82.9232 29.3985 82.6173 29.6683 82.2606 29.8535C81.8625 30.0665 81.4167 30.1746 80.9652 30.1675C80.5575 30.1687 80.1544 30.0816 79.7837 29.9121C79.4129 29.7425 79.0833 29.4946 78.8176 29.1854C78.2347 28.5083 77.9141 27.6444 77.9141 26.7509C77.9141 25.8574 78.2347 24.9935 78.8176 24.3164C79.0833 24.0072 79.4129 23.7593 79.7837 23.5898C80.1544 23.4202 80.5575 23.3331 80.9652 23.3343C81.4167 23.3273 81.8625 23.4353 82.2606 23.6483C82.6175 23.8333 82.9234 24.1032 83.1514 24.4342H83.2035V23.5434H84.3554V29.6308C84.3874 30.093 84.3184 30.5566 84.1534 30.9896C83.9884 31.4225 83.7312 31.8144 83.3997 32.1381C82.7607 32.7105 81.9271 33.0171 81.0694 32.9953V32.9953ZM81.1608 29.0677C81.4327 29.0716 81.7023 29.0176 81.9517 28.9093C82.2011 28.801 82.4247 28.6409 82.6075 28.4396C82.9932 27.9612 83.2035 27.3653 83.2035 26.7509C83.2035 26.1365 82.9932 25.5405 82.6075 25.0622C82.423 24.8635 82.1994 24.7052 81.9507 24.5971C81.7021 24.489 81.4337 24.4335 81.1626 24.4341C80.8915 24.4347 80.6234 24.4914 80.3752 24.6006C80.127 24.7098 79.9041 24.8691 79.7205 25.0686C79.3319 25.543 79.1195 26.1373 79.1195 26.7505C79.1195 27.3637 79.3319 27.958 79.7205 28.4324C79.9019 28.6343 80.1241 28.7953 80.3724 28.9048C80.6207 29.0143 80.8894 29.0698 81.1608 29.0676" fill="#2A79E1"/>
<path d="M89.9697 30.168C89.5297 30.1841 89.0913 30.1059 88.6839 29.9389C88.2765 29.7719 87.9095 29.5198 87.6073 29.1995C86.9934 28.5351 86.6664 27.6554 86.6973 26.7514C86.6791 25.866 86.9945 25.0062 87.5809 24.3426C87.8584 24.0167 88.2053 23.7571 88.5962 23.5827C88.9871 23.4084 89.412 23.3236 89.8398 23.3348C90.265 23.3164 90.6891 23.3898 91.0832 23.5502C91.4774 23.7106 91.8323 23.9541 92.1238 24.2641C92.7195 24.9517 93.0266 25.8428 92.981 26.7514L92.9681 26.9741H87.9021C87.9064 27.5502 88.1393 28.1011 88.5494 28.5057C88.9216 28.8703 89.4231 29.0725 89.9441 29.0682C90.3159 29.0988 90.6878 29.0084 91.004 28.8103C91.3202 28.6122 91.5638 28.317 91.6984 27.969L92.7718 28.4137C92.554 28.9209 92.195 29.355 91.7376 29.6641C91.2154 30.0126 90.5972 30.1888 89.9697 30.168ZM91.6984 25.9792C91.6579 25.5818 91.4796 25.2111 91.1945 24.9314C91.012 24.7562 90.7946 24.6215 90.5565 24.5359C90.3184 24.4503 90.065 24.4158 89.8127 24.4347C89.3882 24.4269 88.9757 24.5761 88.6544 24.8536C88.317 25.1487 88.081 25.5425 87.9799 25.9792H91.6984Z" fill="#2A79E1"/>
<path d="M96.5426 23.5439V24.4346H96.5947C96.7938 24.1047 97.079 23.8353 97.4197 23.6553C97.7857 23.4438 98.2012 23.3332 98.6238 23.3348C98.9627 23.3129 99.3022 23.3674 99.6172 23.4943C99.9322 23.6212 100.215 23.8171 100.444 24.0678C100.885 24.6239 101.109 25.3221 101.072 26.0312V29.9589H99.8671V26.2147C99.8671 25.0278 99.3392 24.4344 98.2834 24.4346C98.0477 24.4299 97.8143 24.4814 97.6025 24.5849C97.3907 24.6884 97.2067 24.841 97.0657 25.0299C96.7534 25.422 96.5869 25.9104 96.5947 26.4117V29.9589H95.3906V23.5439H96.5426Z" fill="#2A79E1"/>
<path d="M106.729 30.1684C106.287 30.1822 105.848 30.1025 105.44 29.9345C105.031 29.7664 104.663 29.5139 104.36 29.1934C103.761 28.5212 103.43 27.6522 103.43 26.7518C103.43 25.8514 103.761 24.9824 104.36 24.3101C104.663 23.9898 105.032 23.7374 105.44 23.5694C105.848 23.4013 106.287 23.3215 106.729 23.3352C107.363 23.3106 107.989 23.4943 108.509 23.8584C108.97 24.1943 109.329 24.6524 109.543 25.1809L108.444 25.6384C108.316 25.2705 108.072 24.9541 107.748 24.737C107.425 24.52 107.04 24.414 106.651 24.435C106.383 24.4369 106.119 24.4963 105.876 24.6091C105.633 24.7219 105.417 24.8855 105.243 25.0888C104.85 25.5536 104.634 26.1427 104.634 26.7514C104.634 27.3602 104.85 27.9492 105.243 28.4141C105.463 28.6612 105.743 28.8485 106.055 28.9584C106.367 29.0682 106.702 29.097 107.028 29.0421C107.355 28.9872 107.662 28.8504 107.921 28.6444C108.18 28.4384 108.382 28.1701 108.509 27.8645L109.583 28.3227C109.361 28.8508 108.996 29.3064 108.529 29.6381C108.002 30.005 107.37 30.1911 106.729 30.1684Z" fill="#2A79E1"/>
<path d="M113.653 32.7867H112.41L113.903 29.5528L111.258 23.5439H112.567L114.478 28.1525H114.504L116.364 23.5439H117.673L113.653 32.7867Z" fill="#2A79E1"/>
</svg>
