<svg width="181" height="205" viewBox="0 0 181 205" fill="none" xmlns="http://www.w3.org/2000/svg">
<path d="M34.7679 31.2556C38.9506 33.445 42.8653 36.1122 46.4333 39.2038C50.4181 42.4596 54.1649 45.9964 57.645 49.7869C58.9969 51.2244 60.2498 52.7519 61.3949 54.359C63.0852 56.9641 64.6272 59.6625 66.0136 62.4413C69.5452 69.0102 72.6201 75.8269 76.5422 82.1747C84.1139 94.2271 93.8321 104.788 105.215 113.334C116.024 121.418 127.87 128.011 140.437 132.938C152.398 137.703 165.081 141.395 175.817 148.763C177.132 149.677 178.45 150.622 179.744 151.582C179.845 151.672 179.977 151.718 180.111 151.71C180.245 151.702 180.371 151.642 180.461 151.541C180.55 151.441 180.596 151.309 180.589 151.174C180.581 151.04 180.52 150.914 180.419 150.825C175.548 146.685 170.063 143.329 164.159 140.877C158.232 138.193 152.097 136.011 146.018 133.709C133.244 129.09 121.104 122.877 109.885 115.218C98.1298 107.101 87.9245 96.9437 79.7524 85.2273C75.7327 78.9909 72.076 72.5277 68.8008 65.8701C66.1885 60.8903 63.6609 55.6048 59.9471 51.2932C56.7206 47.6004 53.2153 44.1608 49.4622 41.0046C45.7464 37.7421 41.7508 34.8126 37.5216 32.2501C36.6648 31.7562 35.7923 31.2893 34.9351 30.8458C34.7225 30.7505 34.5482 31.0981 34.7725 31.1857L34.7679 31.2556Z" fill="#D5E3F7"/>
<path d="M160.168 139.471C157.345 137.268 154.499 135.131 151.88 132.679C149.23 130.181 146.764 127.495 144.501 124.642C140.023 118.962 136.393 112.662 133.725 105.939C132.219 102.139 131.042 98.2162 130.207 94.2149C130.104 93.6975 129.313 93.9457 129.416 94.463C132.467 108.83 139.719 121.967 150.251 132.204C153.151 135.133 156.375 137.722 159.861 139.922C159.922 139.959 159.995 139.971 160.064 139.956C160.134 139.942 160.196 139.901 160.236 139.842C160.277 139.784 160.294 139.712 160.283 139.642C160.273 139.571 160.236 139.507 160.18 139.463L160.168 139.471Z" fill="#D5E3F7"/>
<path d="M129.776 94.8113C129.934 101.074 130.424 107.488 132.829 113.355C135.485 119.352 139.559 124.614 144.699 128.688C147.418 131.078 150.384 133.171 153.548 134.931C153.597 134.946 153.651 134.945 153.699 134.928C153.748 134.911 153.79 134.878 153.818 134.835C153.847 134.792 153.861 134.741 153.857 134.689C153.854 134.637 153.834 134.588 153.801 134.549C151.305 132.618 148.604 130.987 146.148 129.013C143.625 127.025 141.3 124.798 139.205 122.363C135.038 117.468 132.282 111.532 131.231 105.19C130.653 101.741 130.343 98.268 129.959 94.8093C129.898 94.7155 129.77 94.6987 129.776 94.8113Z" fill="#D5E3F7"/>
<path d="M129.736 94.8538C131.202 100.134 133.536 105.133 136.642 109.648C138.293 112.18 140.183 114.54 141.721 117.129C143.259 119.718 144.552 122.367 145.95 124.998C147.462 127.995 149.253 130.844 151.298 133.507C151.55 133.894 152.195 133.473 151.907 133.109C148.263 128.519 145.977 123.092 143.133 118.013C141.667 115.457 140.056 112.988 138.309 110.616C136.626 108.264 135.103 105.802 133.753 103.244C132.353 100.485 131.107 97.6495 130.02 94.7519C130.002 94.7239 129.973 94.7043 129.94 94.6974C129.908 94.6905 129.874 94.6969 129.846 94.7152C129.818 94.7334 129.798 94.762 129.791 94.7947C129.784 94.8274 129.791 94.8615 129.809 94.8895L129.736 94.8538Z" fill="#D5E3F7"/>
<path d="M129.74 94.3693C130.35 96.2609 131.306 98.0227 132.56 99.5646C134.089 101.909 135.793 104.139 137.489 106.509C139.184 108.878 140.868 111.256 142.388 113.74C143.978 116.447 145.315 119.294 146.381 122.247C147.172 124.304 147.946 126.389 148.846 128.409C149.267 129.337 149.7 130.258 150.188 131.159C150.64 132.186 151.258 133.133 152.015 133.961C152.043 134.005 152.088 134.035 152.139 134.046C152.189 134.056 152.243 134.047 152.286 134.018C152.33 133.99 152.36 133.945 152.371 133.894C152.381 133.844 152.372 133.791 152.343 133.747C151.958 132.935 151.523 132.147 151.04 131.389C150.506 130.461 150.022 129.505 149.59 128.525C148.739 126.657 148.009 124.744 147.28 122.83C146.228 119.904 144.938 117.068 143.422 114.352C140.526 109.424 136.977 104.904 133.683 100.236C132.328 98.3123 131.114 96.297 129.86 94.3744C129.848 94.3557 129.829 94.3427 129.807 94.3381C129.786 94.3335 129.763 94.3378 129.744 94.3499C129.726 94.3621 129.712 94.3812 129.708 94.403C129.703 94.4248 129.708 94.4475 129.72 94.4661L129.74 94.3693Z" fill="#D5E3F7"/>
<path d="M148.341 130.891C147.236 130.356 146.217 129.657 145.319 128.818C144.319 128.074 143.279 127.386 142.204 126.756C139.823 125.507 137.527 124.102 135.333 122.548C133.13 120.677 131.172 118.535 129.505 116.174C127.682 113.787 125.869 111.383 124.066 108.96C121.838 106.321 119.918 103.436 118.343 100.362L117.703 100.662C118.346 101.555 119.204 102.271 120.197 102.745C121.617 103.641 122.954 104.64 124.279 105.647C127.573 107.955 130.512 110.734 132.999 113.896C133.243 114.271 133.853 113.873 133.585 113.513C131.202 110.481 128.392 107.811 125.242 105.587C123.944 104.596 122.654 103.566 121.281 102.69C120.097 102.163 119.062 101.351 118.269 100.326C118.055 99.9982 117.474 100.26 117.63 100.627C118.967 103.365 120.613 105.941 122.536 108.304C124.4 110.881 126.342 113.424 128.277 115.955C129.983 118.398 131.942 120.655 134.12 122.688C136.267 124.376 138.576 125.848 141.012 127.082C142.405 127.83 143.74 128.679 145.008 129.622C145.857 130.542 146.989 131.151 148.224 131.351C148.465 131.362 148.554 130.986 148.33 130.898L148.341 130.891Z" fill="#D5E3F7"/>
<path d="M93.3255 155.755C103.3 155.499 112.839 152.37 122.273 149.21C131.301 146.196 140.412 143.129 149.929 142.119C155.151 141.5 160.44 141.742 165.584 142.837C166.328 143.004 166.596 141.827 165.817 141.683C146.557 137.334 128.199 147.049 110.192 152.258C104.687 153.92 99.0296 155.029 93.3041 155.568C93.2847 155.577 93.2685 155.591 93.2579 155.609C93.2473 155.627 93.2429 155.649 93.2453 155.67C93.2477 155.691 93.2568 155.71 93.2712 155.726C93.2857 155.741 93.3047 155.751 93.3255 155.755Z" fill="#D5E3F7"/>
<path d="M93.3257 155.753C100.001 153.974 105.997 150.331 112.571 148.217C119.054 146.121 125.731 144.678 132.501 143.909C136.283 143.431 140.075 143.097 143.881 142.837C143.97 142.818 144.048 142.769 144.104 142.698C144.159 142.627 144.187 142.539 144.182 142.449C144.178 142.359 144.142 142.273 144.08 142.208C144.019 142.142 143.936 142.101 143.846 142.091C137.095 142.499 130.374 143.316 123.722 144.537C117.005 145.82 110.467 147.907 104.249 150.752C100.603 152.411 97.0026 154.141 93.2727 155.621C93.2637 155.635 93.2589 155.651 93.2589 155.667C93.2589 155.683 93.2636 155.699 93.2725 155.713C93.2814 155.727 93.2942 155.737 93.3091 155.744C93.3241 155.751 93.3407 155.753 93.3568 155.75L93.3257 155.753Z" fill="#D5E3F7"/>
<path d="M92.7846 155.792C95.7831 156.652 98.9108 156.972 102.021 156.736C105.15 156.608 108.259 156.186 111.308 155.475C118.155 153.735 124.759 151.151 130.97 147.784C134.521 145.798 138.278 144.205 142.174 143.034C142.657 142.903 142.42 142.155 141.93 142.274C138.684 143.209 135.549 144.492 132.578 146.1C129.383 147.733 126.221 149.393 122.893 150.745C116.697 153.578 110.062 155.327 103.276 155.918C99.7647 156.034 96.2499 155.908 92.756 155.543C92.674 155.596 92.6036 155.642 92.7463 155.733L92.7846 155.792Z" fill="#D5E3F7"/>
<path d="M93.2365 155.613C96.5107 153.896 99.6367 151.874 102.888 150.121C106.139 148.334 109.509 146.773 112.974 145.449C116.427 144.13 120.015 143.197 123.673 142.666C127.411 142.218 131.173 141.997 134.937 142.004L148.4 141.897C148.897 141.89 148.859 141.113 148.362 141.12L136.051 141.278C132.205 141.25 128.36 141.426 124.532 141.805C117.276 142.88 110.281 145.288 103.902 148.909C100.158 150.826 96.5436 152.987 93.0836 155.379C93.0525 155.399 93.0307 155.431 93.0231 155.467C93.0154 155.503 93.0225 155.541 93.0428 155.572C93.0631 155.603 93.0948 155.625 93.1312 155.633C93.1675 155.64 93.2054 155.633 93.2365 155.613Z" fill="#D5E3F7"/>
<path d="M147.584 141.592C140.939 139.888 134.385 137.843 127.95 135.465C124.969 134.378 121.922 133.48 118.828 132.776C115.652 132.107 112.414 131.829 109.208 131.397C105.549 130.904 101.94 130.094 98.4216 128.974C97.9961 128.833 97.7366 129.537 98.1657 129.709C99.6151 130.45 100.941 131.412 102.096 132.559C103.215 133.483 104.4 134.325 105.642 135.075C108.239 136.613 111.021 137.814 113.92 138.649C120.251 140.272 126.745 141.171 133.279 141.331C137.313 141.573 141.34 141.805 145.332 142.392C145.922 142.476 146.109 141.585 145.52 141.502C132.698 139.621 118.691 141.353 106.975 134.891C105.43 134.047 103.969 133.059 102.611 131.939C101.393 130.756 100.003 129.764 98.4874 128.998L98.2274 129.752C101.343 130.738 104.529 131.487 107.758 131.992C110.951 132.482 114.224 132.787 117.383 133.301C123.916 134.454 130.146 137.141 136.471 139.232C140.004 140.595 143.678 141.562 147.424 142.115C147.711 142.145 147.804 141.75 147.525 141.681L147.584 141.592Z" fill="#D5E3F7"/>
<path d="M129.561 127.229C125.725 125.036 120.947 124.626 116.605 124.5C111.676 124.373 106.673 124.644 101.788 124.839C96.9029 125.034 91.721 125.389 86.6818 125.45C81.6519 125.633 76.6157 125.354 71.6367 124.618C66.0328 123.711 61.2115 121.057 56.332 118.391L55.912 119.233C62.7781 122.358 70.3428 122.454 77.7545 122.316C86.1245 122.022 94.5046 122.244 102.847 122.979C107.483 123.477 112.087 124.24 116.636 125.265C117.185 125.391 117.361 124.559 116.815 124.413C108.801 122.481 100.594 121.466 92.3517 121.385C88.2927 121.258 84.2361 121.264 80.1867 121.331C76.1374 121.399 72.5762 121.549 68.7898 121.328C64.4806 121.207 60.2413 120.208 56.332 118.391C56.2237 118.356 56.1064 118.361 56.0014 118.405C55.8965 118.449 55.8109 118.529 55.76 118.631C55.7092 118.733 55.6966 118.85 55.7245 118.96C55.7524 119.071 55.8189 119.167 55.912 119.233C60.0422 121.768 64.4974 123.73 69.1555 125.066C73.9814 126.07 78.9071 126.513 83.8347 126.388C93.9263 126.49 103.929 125.381 113.988 125.305C116.607 125.248 119.227 125.37 121.829 125.671C124.424 126.052 126.978 126.668 129.461 127.511C129.639 127.579 129.731 127.336 129.561 127.229Z" fill="#D5E3F7"/>
<path d="M55.8491 118.572C56.9727 120.423 58.4574 122.028 60.2147 123.294C61.8961 124.662 63.7173 125.849 65.6481 126.835C69.3723 128.732 73.4368 129.87 77.6049 130.182C85.9442 130.826 94.1588 128.46 102.237 126.885C106.757 125.883 111.369 125.356 115.999 125.313C116.523 125.322 116.469 124.522 115.964 124.516C99.8614 124.24 83.5811 133.787 67.778 126.949C65.5171 125.96 63.3769 124.716 61.3992 123.24C59.4574 121.799 57.8847 119.951 55.9592 118.433C55.947 118.414 55.928 118.401 55.9062 118.397C55.8844 118.392 55.8616 118.396 55.843 118.409C55.8243 118.421 55.8113 118.44 55.8067 118.462C55.8021 118.483 55.8064 118.506 55.8185 118.525L55.8491 118.572Z" fill="#D5E3F7"/>
<path d="M55.9132 118.364C57.0768 119.232 58.5275 119.625 59.9701 119.461C61.9385 119.431 63.9273 119.303 65.8931 119.141C69.8788 118.848 73.8584 118.391 77.8579 118.273C85.5407 118.165 93.2027 119.099 100.635 121.047C104.778 122.071 108.904 123.274 113.045 124.5C113.502 124.637 113.653 123.92 113.196 123.783C106.051 121.474 98.7469 119.692 91.3414 118.453C87.7468 117.889 84.116 117.587 80.4776 117.55C76.5496 117.522 72.6214 117.878 68.7244 118.23C66.5099 118.421 64.3029 118.624 62.093 118.745C60.1394 118.85 57.8382 119.164 56.0946 118.079C55.9249 117.972 55.7781 118.285 55.9014 118.372L55.9132 118.364Z" fill="#D5E3F7"/>
<path d="M88.4398 118.359C84.4425 116.437 81.0729 113.419 78.7228 109.658C76.5916 106.236 75.1199 102.467 73.3516 98.8583L72.9413 99.1258C75.2488 101.697 77.7613 104.076 80.4539 106.24C83.0537 108.254 85.7793 110.102 88.4932 111.958C93.4642 115.572 98.6451 118.889 104.009 121.89C104.103 121.937 104.213 121.944 104.313 121.91C104.413 121.876 104.496 121.804 104.542 121.709C104.589 121.614 104.596 121.505 104.562 121.405C104.528 121.305 104.456 121.222 104.361 121.176C98.9811 118.185 93.7808 114.881 88.7873 111.282C85.9842 109.417 83.2239 107.541 80.6472 105.563C78.0229 103.498 75.5535 101.244 73.2588 98.8185C73.0983 98.5723 72.7532 98.9143 72.8485 99.0861C74.8018 102.825 76.2093 106.802 78.4516 110.369C80.7529 114.087 84.2379 116.923 88.346 118.42L88.428 118.366L88.4398 118.359Z" fill="#D5E3F7"/>
<path d="M113.693 50.5467C111.348 60.0954 107.274 69.1179 105.355 78.7563C103.603 86.5704 103.396 94.6517 104.745 102.545C105.672 107.284 107.276 111.866 109.505 116.149C109.796 116.595 110.433 116.162 110.197 115.698C106.551 108.219 104.719 99.9854 104.851 91.6659C105.178 83.0931 106.766 74.6153 109.564 66.5055C111.398 61.2924 112.957 55.9868 114.236 50.6105C114.301 50.3006 113.824 50.2103 113.752 50.5085L113.693 50.5467Z" fill="#D5E3F7"/>
<path d="M113.523 51.6429C109.607 57.4522 106.524 63.7815 104.364 70.4463C102.511 76.8006 101.957 83.4635 102.737 90.0367C103.237 94.2884 104.06 98.4969 104.782 102.704C104.847 103.163 105.581 103.136 105.496 102.673C104.309 95.7278 102.851 88.7258 103.234 81.626C103.667 74.8718 105.408 68.266 108.361 62.1761C110.035 58.6451 111.968 55.2294 113.75 51.7617C113.833 51.6072 113.59 51.5155 113.523 51.6429Z" fill="#D5E3F7"/>
<path d="M113.864 50.6023C113.859 57.2052 112.191 63.5893 110.311 69.8276C108.342 76.3029 106.788 82.8969 105.658 89.5697C105.376 91.3576 105.14 93.1486 104.951 94.9427C104.679 96.8716 104.506 98.8133 104.434 100.76C104.426 101.183 105.12 101.248 105.178 100.826C105.445 99.0818 105.467 97.2964 105.628 95.5202C105.79 93.744 105.952 92.3016 106.178 90.7007C106.654 87.0489 107.427 83.5204 108.236 79.9691C108.963 76.805 109.713 73.6762 110.591 70.5641C111.469 67.4521 112.26 64.4634 112.989 61.4314C113.792 57.8621 114.147 54.2069 114.047 50.5498C114.047 50.5498 113.971 50.4326 113.942 50.6186L113.864 50.6023Z" fill="#D5E3F7"/>
<path d="M113.73 50.6056C114.193 53.8572 114.226 57.1556 113.828 60.4159C113.495 63.056 112.932 65.6782 112.471 68.3015C111.906 71.8551 111.151 75.3759 110.209 78.8486C109.284 82.0417 107.979 85.1144 107.035 88.3034C106.543 90.1112 106.003 92 105.53 93.8624C105.038 95.5577 104.7 97.2938 104.519 99.0498C104.513 99.2205 104.804 99.2817 104.86 99.1115C105.352 97.6787 105.755 96.2165 106.065 94.7334C106.486 93.022 106.899 91.2988 107.367 89.6072C108.274 86.3091 109.552 83.1701 110.509 79.8726C111.481 76.4109 112.252 72.896 112.817 69.3453C113.283 66.6522 113.85 63.9602 114.219 61.2467C114.723 57.7186 114.701 54.1353 114.153 50.6138C114.105 50.361 113.709 50.3686 113.745 50.629L113.73 50.6056Z" fill="#D5E3F7"/>
<path d="M104.704 98.8972C102.297 93.1316 99.6027 87.4872 98.4237 81.2721C97.8423 78.1259 97.5138 74.9317 97.2087 71.7222C96.9037 68.5128 96.5415 65.5745 96.4642 62.4838C96.3774 58.9584 96.5456 55.4315 96.9675 51.9304L96.572 51.8876C96.9693 54.4187 97.25 56.9757 97.6861 59.515C98.1093 61.984 98.7711 64.4062 99.6622 66.7474C100.603 68.8669 101.299 71.0866 101.738 73.3637C102.063 75.7582 102.132 78.119 102.55 80.5533C102.611 80.9809 103.295 80.9529 103.233 80.5253C102.857 78.1807 102.757 75.8235 102.443 73.4718C102.081 71.2949 101.443 69.1728 100.547 67.1562C99.569 64.8202 98.8164 62.3962 98.2992 59.9171C97.779 57.249 97.3327 54.566 96.9252 51.8912C96.8885 51.6812 96.5592 51.6118 96.5297 51.8483C95.8031 58.0513 95.7694 64.316 96.429 70.5265C97.0015 76.8363 97.7283 83.2292 100.059 89.2115C101.352 92.5473 102.849 95.8008 104.54 98.9538C104.609 99.0593 104.796 98.9874 104.728 98.8315L104.704 98.8972Z" fill="#D5E3F7"/>
<path d="M27.3284 80.4967C30.9728 83.4451 35.0083 85.8741 39.3196 87.7145C43.1648 89.2433 47.1475 90.4004 51.2132 91.1699C59.4098 92.8759 67.8184 93.5747 75.9762 95.2725C78.3624 95.7548 80.74 96.3263 83.0779 96.9906C85.4157 97.6548 87.6883 98.629 90.0455 99.2973C90.5333 99.4304 90.7464 98.7067 90.3295 98.4773C88.4434 97.4898 86.4508 96.7206 84.3904 96.1849C82.339 95.6011 80.3105 95.0526 78.3202 94.5626C74.172 93.6587 69.9667 93.0259 65.7726 92.4359C57.6984 91.3019 49.4427 90.4532 41.7146 87.7234C36.654 85.9771 31.8778 83.4957 27.5395 80.3591C27.4554 80.2301 27.228 80.4452 27.3667 80.5553L27.3284 80.4967Z" fill="#D5E3F7"/>
<path d="M27.0944 80.6507C29.3181 82.9832 31.7941 85.0615 34.4766 86.8474C36.8278 88.4996 39.3851 89.8372 42.0833 90.8259C47.5336 92.6212 53.2258 93.5745 58.9636 93.6527C62.5874 93.8293 66.2627 93.9055 69.8559 94.0352C70.4574 94.0607 70.4085 93.1403 69.8188 93.1071C58.1859 92.6394 45.9817 93.3965 35.8273 86.8689C32.8374 84.9168 30.0196 82.7129 27.4048 80.2812C27.2009 80.0967 26.9532 80.4086 27.1336 80.6084L27.0944 80.6507Z" fill="#D5E3F7"/>
<path d="M27.0381 80.537C29.9166 81.4669 32.9706 81.9482 35.8905 82.6339C38.7522 83.2987 41.572 84.1323 44.3352 85.1304C49.7845 87.1073 55.2175 89.1617 60.699 91.0341C63.7871 92.1122 66.9288 93.0303 70.1115 93.7849C70.6345 93.895 70.794 93.0893 70.2828 92.9715C64.6166 91.5759 59.0439 89.8247 53.5979 87.7283C48.2247 85.5802 42.7341 83.7385 37.1525 82.212C33.8418 81.3663 30.4869 80.7037 27.1033 80.2271C27.0622 80.2185 27.0194 80.2265 26.9842 80.2495C26.949 80.2724 26.9244 80.3084 26.9157 80.3495C26.9071 80.3905 26.9151 80.4334 26.938 80.4686C26.961 80.5037 26.997 80.5284 27.0381 80.537Z" fill="#D5E3F7"/>
<path d="M27.2113 80.5744C30.2132 80.8224 33.2254 80.8297 36.2193 81.1163C39.2212 81.3966 42.197 81.9083 45.1202 82.647C48.0516 83.3825 50.9011 84.4129 53.625 85.7224C56.7267 87.2252 59.6512 88.994 62.8126 90.3576C66.2374 91.8941 69.7685 93.1819 73.3785 94.2109C73.7928 94.3083 74.0324 93.6508 73.6226 93.4836C70.4643 92.2016 67.1397 91.2284 63.9191 89.9535C60.6986 88.6785 57.7584 86.9368 54.6764 85.3877C49.2384 82.757 43.3758 81.1149 37.3625 80.5379C34.0004 80.1021 30.6001 80.0441 27.225 80.365C27.143 80.4185 27.091 80.5693 27.2113 80.5744Z" fill="#D5E3F7"/>
<path d="M77.1371 95.386C75.6204 95.1719 74.0918 95.0526 72.5602 95.0289C71.0897 95.0702 69.6277 95.2675 68.1988 95.6173C65.1642 96.2929 62.2798 97.4553 59.3318 98.3919C53.7027 100.279 47.8415 101.386 41.9118 101.681C38.5844 101.806 35.2542 101.526 31.9946 100.847L31.9364 101.603C38.2029 101.477 43.7627 98.319 49.6776 96.5003C55.9918 94.6958 62.5574 93.93 69.1174 94.2331C69.6102 94.2458 69.5675 93.4884 69.0863 93.468C62.6481 93.1795 56.2046 93.9079 49.9932 95.6262C43.9702 97.3817 38.2804 100.724 31.886 100.834C31.8363 100.83 31.7864 100.836 31.7391 100.852C31.6917 100.867 31.6479 100.892 31.6101 100.924C31.5723 100.957 31.5412 100.996 31.5187 101.041C31.4961 101.085 31.4826 101.133 31.4787 101.183C31.4749 101.233 31.4809 101.283 31.4964 101.33C31.5119 101.377 31.5365 101.421 31.5689 101.459C31.6344 101.535 31.7275 101.583 31.8278 101.59C37.4942 102.678 43.3162 102.676 48.9816 101.582C51.7725 101.066 54.5301 100.384 57.2395 99.539C60.1636 98.6682 63.0163 97.5598 65.9327 96.6773C67.6181 96.1348 69.3606 95.7891 71.1254 95.647C73.0859 95.5666 75.0496 95.632 77.0004 95.8426C77.3185 95.8692 77.4439 95.3697 77.1065 95.3391L77.1371 95.386Z" fill="#D5E3F7"/>
<path d="M84.8937 25.8843C84.6864 29.7184 84.1712 33.5296 83.3532 37.2811C82.5395 40.9528 81.3777 44.5006 80.2541 48.107C78.1352 55.0479 76.9537 62.2409 76.741 69.4948C76.5692 73.8324 76.6677 78.1765 77.0358 82.5018C77.0511 82.5811 77.0946 82.6522 77.1581 82.7021C77.2216 82.752 77.301 82.7773 77.3817 82.7734C77.4624 82.7695 77.5389 82.7367 77.5974 82.6809C77.6558 82.6251 77.6922 82.5502 77.6999 82.4698C77.2489 74.9404 77.4725 67.3857 78.3681 59.8962C79.4603 52.5009 81.8613 45.4216 83.5229 38.1563C84.445 34.1321 84.9576 30.025 85.0527 25.8976C85.0527 25.8976 84.9763 25.7804 84.9472 25.9664L84.8937 25.8843Z" fill="#D5E3F7"/>
<path d="M84.6054 25.7226C84.1333 28.2526 83.7815 30.7877 83.0728 33.2882C82.3642 35.7886 81.4971 38.2253 80.6723 40.7013C78.8771 45.5857 77.7062 50.6773 77.1876 55.8553C76.9507 58.8991 76.9936 61.9583 77.3159 64.9943C77.3577 65.4683 78.0916 65.4408 78.0499 64.9668C77.4755 59.5633 77.792 54.102 78.9867 48.801C80.1129 43.7894 82.1484 39.0704 83.5769 34.1124C84.532 31.4239 85.019 28.5915 85.0167 25.7385C85.007 25.6872 84.9806 25.6405 84.9417 25.6057C84.9028 25.5709 84.8536 25.5499 84.8015 25.5458C84.7495 25.5417 84.6976 25.5549 84.6538 25.5833C84.6099 25.6116 84.5767 25.6536 84.5591 25.7027L84.6054 25.7226Z" fill="#D5E3F7"/>
<path d="M84.8757 26.5991C84.7664 30.0955 84.6841 33.6076 84.4856 37.0954C84.402 40.4713 83.8866 43.8226 82.9518 47.0676C81.9649 50.2173 80.5447 53.2152 79.5307 56.3491C79.0261 57.8812 78.5795 59.4255 78.191 60.982C77.7136 62.6323 77.3656 64.3173 77.1499 66.0216C77.1375 66.1201 77.1628 66.2196 77.2209 66.3C77.279 66.3805 77.3654 66.436 77.4628 66.4552C77.5601 66.4744 77.6612 66.456 77.7455 66.4036C77.8298 66.3512 77.891 66.2688 77.917 66.173C78.3839 64.5319 78.6419 62.8265 79.0625 61.1655C79.4831 59.5045 79.9812 57.8598 80.5256 56.235C81.5508 53.1439 82.8864 50.0676 83.8494 46.9836C84.7135 43.8747 85.1715 40.667 85.2119 37.4405C85.3533 33.8396 85.3821 30.2454 85.1897 26.645C85.1759 26.4702 84.9272 26.4987 84.9139 26.6577L84.8757 26.5991Z" fill="#D5E3F7"/>
<path d="M84.6586 26.1065C82.8902 32.0549 78.5372 36.7813 76.4746 42.6374C74.7066 48.171 74.315 54.0524 75.3338 59.7717C75.828 63.0917 77.0133 66.3955 76.9672 69.7839C76.9718 70.0983 77.4412 70.1264 77.5141 69.8282C78.106 66.9695 76.8407 63.9017 76.3567 61.1096C75.846 58.2209 75.6132 55.29 75.6616 52.3569C75.695 49.4022 76.1363 46.4663 76.973 43.6323C77.9496 40.6981 79.2612 37.8863 80.8818 35.2525C82.6809 32.4118 84.0419 29.3164 84.9191 26.0704C84.9191 26.0704 84.8197 25.918 84.7524 26.0454L84.6586 26.1065Z" fill="#D5E3F7"/>
<path d="M75.6421 59.4522C75.221 56.6285 74.3262 53.8963 72.9953 51.3706C71.6321 48.7676 69.9916 46.3286 68.6988 43.6798C67.354 41.0357 66.6497 38.1125 66.6428 35.1461C66.7456 32.3324 67.1014 29.5337 67.706 26.7839L67.0893 26.7349C67.7345 30.8048 68.8927 34.7765 70.5365 38.5551C72.1907 42.3217 74.193 45.8279 75.1183 49.886C75.1998 50.2673 75.8415 50.1496 75.791 49.7648C75.276 45.8234 73.0021 42.3105 71.3688 38.7809C69.5793 34.9545 68.3336 30.8967 67.6678 26.7253C67.6245 26.4026 67.1286 26.3083 67.0511 26.6763C66.4282 29.3914 66.039 32.155 65.888 34.9366C65.814 37.7293 66.3667 40.5032 67.5057 43.0543C68.7053 45.7139 70.3264 48.1487 71.764 50.6865C73.3516 53.4604 74.5516 56.4387 75.3306 59.5383C75.4071 59.6555 75.613 59.6382 75.5834 59.4904L75.6421 59.4522Z" fill="#D5E3F7"/>
<path d="M34.8386 31.2588C37.9443 34.6637 42.0221 37.1507 45.5947 40.0673C47.5655 41.706 49.2968 43.6179 51.2008 45.3336C53.8673 47.5171 56.2433 50.033 58.2711 52.8198C60.6422 56.0703 63.2598 59.1336 66.1006 61.9828C66.3223 62.3227 66.7974 61.7958 66.5288 61.4864C63.8519 58.8289 61.3804 55.9723 59.1355 52.9411C57.2984 50.2491 55.1059 47.8178 52.6177 45.7129C50.5827 43.8989 48.7087 41.8962 46.6462 40.1168C44.7605 38.5061 42.7764 37.0263 40.8428 35.5471C38.9092 34.0679 36.843 32.6417 35.0159 30.9928C34.9319 30.8638 34.7591 31.06 34.8666 31.1737L34.8386 31.2588Z" fill="#D5E3F7"/>
<path d="M34.6667 31.153C38.9968 33.2583 43.3625 35.2901 47.5606 37.7822C49.7478 39.0294 51.8126 40.48 53.7274 42.1149C56.3534 44.5959 58.626 47.4259 60.4816 50.5256C61.6082 52.1895 62.6354 53.9187 63.5576 55.7041C64.5392 57.6705 65.2327 59.7077 66.0271 61.746C66.0516 61.8209 66.1048 61.883 66.1751 61.9186C66.2453 61.9543 66.3268 61.9606 66.4017 61.9361C66.4766 61.9117 66.5387 61.8584 66.5744 61.7882C66.61 61.7179 66.6163 61.6364 66.5919 61.5615C65.5143 58.0325 63.9604 54.6669 61.9733 51.5578C60.1437 48.412 57.9607 45.4855 55.4669 42.8352C51.4205 39.192 46.8286 36.2048 41.8581 33.9822C39.571 32.7794 37.1917 31.7609 34.7427 30.9364C34.6188 30.9002 34.5316 31.074 34.6667 31.153Z" fill="#D5E3F7"/>
<path d="M34.9376 31.5436C36.1356 32.8727 37.1891 34.3251 38.0805 35.8766C38.7532 36.9082 39.5039 37.9057 40.2781 38.8879C42.0179 41.0949 43.8868 43.2178 45.826 45.2949C49.6345 49.4427 53.8164 53.2314 58.3189 56.6131C59.8331 57.731 61.3432 58.8682 62.7865 60.0823C64.2299 61.2965 65.5401 62.6141 66.9096 63.843C66.9646 63.8935 67.0375 63.92 67.1122 63.9168C67.1868 63.9135 67.2571 63.8808 67.3076 63.8257C67.3581 63.7706 67.3847 63.6977 67.3814 63.6231C67.3782 63.5484 67.3454 63.4781 67.2903 63.4276C62.9675 59.0788 57.768 55.8195 53.225 51.7479C48.8274 47.8174 44.7496 43.5431 41.0303 38.9654C40.1487 37.8695 39.3521 36.8017 38.5678 35.6758C37.597 34.0996 36.4256 32.6563 35.0829 31.382C35.0645 31.3684 35.0425 31.3608 35.0196 31.3601C34.9968 31.3594 34.9743 31.3657 34.9551 31.3782C34.936 31.3907 34.9211 31.4087 34.9125 31.4299C34.9039 31.4511 34.902 31.4744 34.9071 31.4967L34.9376 31.5436Z" fill="#D5E3F7"/>
<path d="M37.75 34.0381C39.7742 36.9118 42.6986 39.0649 45.1225 41.5777C47.0734 43.6472 48.9371 45.8904 50.8916 47.9909C53.0451 50.4164 55.3786 52.6759 57.8722 54.7502C59.2314 55.8354 60.6732 56.8166 62.06 57.8672C63.4599 58.9677 64.7909 60.1532 66.0454 61.4168C66.0939 61.4554 66.1544 61.4758 66.2163 61.4745C66.2782 61.4732 66.3378 61.4504 66.3846 61.4099C66.4315 61.3694 66.4628 61.3139 66.4731 61.2528C66.4834 61.1917 66.472 61.129 66.441 61.0754C64.8509 58.637 62.081 56.9513 59.7575 55.2585C57.1988 53.3082 54.8129 51.1411 52.6265 48.781C50.3988 46.4409 48.1911 44.0545 46.0496 41.6415C44.865 40.3897 43.6122 39.2042 42.2971 38.0903C40.7148 36.826 39.2192 35.4569 37.8203 33.9922L37.75 34.0381Z" fill="#D5E3F7"/>
<path d="M64.3107 61.0613C62.0113 59.3812 59.4043 58.169 56.6377 57.4936C53.6643 56.601 50.6395 55.8896 47.5799 55.3635C44.4019 54.8469 41.2589 54.1343 38.1688 53.2299C35.1266 52.0888 32.3221 50.394 29.8971 48.2314L29.5464 48.7441C31.6746 49.7622 33.9064 50.5476 36.2031 51.0865C38.6257 51.5394 41.0836 51.7761 43.5481 51.794C48.5244 51.9363 53.3643 53.4526 57.5323 56.1751C57.914 56.4274 58.3891 55.9004 58.0074 55.6481C54.154 53.082 49.7041 51.5527 45.0873 51.2079C42.3993 51.0059 39.7046 51.0756 37.0385 50.6253C34.5278 50.2038 32.1027 49.3754 29.8589 48.1728C29.5424 47.9949 29.2661 48.4424 29.5199 48.6779C31.6905 50.7919 34.2508 52.4645 37.0587 53.6029C40.0618 54.5978 43.1397 55.3508 46.2628 55.8547C49.4009 56.465 52.5512 57.0172 55.6285 57.8676C57.1499 58.2691 58.6416 58.7758 60.0927 59.3842C61.4571 59.9648 62.7419 60.7309 64.1139 61.3233C64.2648 61.3753 64.3836 61.1474 64.2872 61.0766L64.3107 61.0613Z" fill="#D5E3F7"/>
<path d="M70.9056 92.9316C69.2515 90.3648 67.4051 87.9272 65.3822 85.6398C63.4956 83.3774 61.3865 81.3103 59.0866 79.4697C56.837 77.7621 54.2464 76.7615 51.8663 75.2894C49.4264 73.5605 47.2394 71.5002 45.3683 69.1677C45.246 68.9801 44.8943 69.2094 44.9814 69.42C47.0842 74.6898 50.64 79.2543 55.2352 82.5826C56.3488 83.3935 57.5256 84.0965 58.6943 84.8381C59.9959 85.746 61.2003 86.7859 62.2883 87.9413C64.3936 89.9127 66.7866 91.5523 69.3852 92.8036C69.6864 92.958 69.8542 92.4978 69.6111 92.3556C67.0581 90.8981 64.6568 89.1897 62.4428 87.2558C61.5481 86.2708 60.5571 85.3778 59.4848 84.59C58.309 83.7861 57.0507 83.0862 55.879 82.263C51.1303 79.1122 47.4765 74.5654 45.4218 69.2497L44.985 69.451C46.6475 71.7843 48.6847 73.8263 51.0141 75.4942C53.3544 77.0591 56.0587 77.9522 58.3516 79.5981C63.3075 83.1499 67.0441 88.2652 70.6594 93.0921C70.6893 93.118 70.7268 93.1335 70.7662 93.1362C70.8057 93.1389 70.8449 93.1287 70.878 93.1071C70.9112 93.0855 70.9363 93.0537 70.9498 93.0165C70.9632 92.9794 70.9642 92.9388 70.9525 92.901L70.9056 92.9316Z" fill="#D5E3F7"/>
<path d="M160.601 139.419C154.019 129.042 150.451 117.041 150.294 104.754L149.611 104.782C149.722 107.183 151.169 109.196 152.184 111.291C153.479 113.838 154.554 116.49 155.399 119.219C156.864 124.028 157.396 128.995 158.647 133.809C159.18 136.314 160.169 138.699 161.565 140.845C161.617 140.926 161.7 140.983 161.795 141.003C161.889 141.023 161.987 141.004 162.068 140.952C162.149 140.899 162.206 140.816 162.226 140.722C162.246 140.627 162.227 140.529 162.174 140.448C159.105 135.332 158.581 129.224 157.35 123.544C156.622 120.194 155.555 116.926 154.166 113.792C153.494 112.275 152.752 110.804 151.955 109.352C151.04 107.981 150.459 106.414 150.259 104.777C150.257 104.732 150.246 104.688 150.228 104.648C150.209 104.607 150.182 104.57 150.149 104.54C150.116 104.509 150.077 104.486 150.035 104.47C149.993 104.455 149.948 104.448 149.903 104.45C149.858 104.451 149.814 104.462 149.774 104.481C149.733 104.5 149.696 104.527 149.666 104.56C149.635 104.593 149.612 104.631 149.596 104.674C149.581 104.716 149.574 104.76 149.576 104.805C149.669 110.903 150.598 116.958 152.339 122.802C154.03 128.816 156.682 134.518 160.191 139.686C160.234 139.728 160.29 139.753 160.35 139.759C160.41 139.765 160.47 139.75 160.52 139.717C160.57 139.684 160.608 139.635 160.627 139.578C160.646 139.522 160.645 139.46 160.625 139.404L160.601 139.419Z" fill="#D5E3F7"/>
</svg>
