<?xml version="1.0" encoding="utf-8"?>
<!-- Generator: Adobe Illustrator 22.0.0, SVG Export Plug-In . SVG Version: 6.00 Build 0)  -->
<svg version="1.1" id="Layer_1" xmlns="http://www.w3.org/2000/svg" xmlns:xlink="http://www.w3.org/1999/xlink" x="0px" y="0px"
	 viewBox="0 0 66.808 25" style="enable-background:new 0 0 66.808 25;" xml:space="preserve">
<style type="text/css">
	.st0{fill-rule:evenodd;clip-rule:evenodd;fill:#A6AAAA;}
	.st1{fill-rule:evenodd;clip-rule:evenodd;fill:#F3792E;}
	.st2{fill-rule:evenodd;clip-rule:evenodd;fill:#F06022;}
	.st3{fill-rule:evenodd;clip-rule:evenodd;fill:#D95122;}
	.st4{fill-rule:evenodd;clip-rule:evenodd;fill:#F89A2C;}
	.st5{fill-rule:evenodd;clip-rule:evenodd;fill:#FFFFFF;}
	.st6{fill:#FFFFFF;}
	.st7{fill-rule:evenodd;clip-rule:evenodd;fill:#B4008D;}
	.st8{fill-rule:evenodd;clip-rule:evenodd;fill:#9DBC0A;}
	.st9{fill:none;stroke:#9DBC0A;stroke-width:0.1962;stroke-miterlimit:10;}
	.st10{fill-rule:evenodd;clip-rule:evenodd;fill:#DF3F17;}
	.st11{fill:none;stroke:#DF3F17;stroke-width:0.1962;stroke-miterlimit:10;}
	.st12{fill-rule:evenodd;clip-rule:evenodd;fill:#F5B208;}
	.st13{fill:none;stroke:#F5B208;stroke-width:0.1962;stroke-miterlimit:10;}
	.st14{fill:#9DBC0A;}
	.st15{fill:none;stroke:#9DBC0A;stroke-width:0.2023;stroke-miterlimit:10;}
	.st16{fill:none;stroke:#DF3F17;stroke-width:0.2023;stroke-miterlimit:10;}
	.st17{fill:none;stroke:#F5B208;stroke-width:0.2023;stroke-miterlimit:10;}
	.st18{fill-rule:evenodd;clip-rule:evenodd;fill:#85754E;}
	.st19{fill:#85754E;}
	.st20{fill-rule:evenodd;clip-rule:evenodd;fill:#1A171B;}
	.st21{fill:#016268;}
	.st22{fill:#00A9C2;}
	.st23{fill:#21427B;}
	.st24{fill:#FAE101;}
	.st25{fill-rule:evenodd;clip-rule:evenodd;fill:#32327F;}
	.st26{fill-rule:evenodd;clip-rule:evenodd;fill:#FCB813;}
	.st27{fill:#002169;}
	.st28{fill:#C6C7C8;}
	.st29{fill:#F79420;}
	.st30{fill:#FCB831;}
	.st31{fill:#FDDD2E;}
	.st32{fill:#F3C700;}
	.st33{fill:#DB6216;}
	.st34{fill:#EAA600;}
	.st35{fill:#E32427;}
	.st36{fill:#FFFFFF;stroke:#FFFFFF;stroke-width:0.1124;stroke-miterlimit:10;}
	.st37{fill:url(#SVGID_1_);}
	.st38{fill-rule:evenodd;clip-rule:evenodd;fill:#C1272D;}
	.st39{fill-rule:evenodd;clip-rule:evenodd;fill:url(#SVGID_2_);}
	.st40{fill-rule:evenodd;clip-rule:evenodd;fill:url(#SVGID_3_);}
	.st41{fill-rule:evenodd;clip-rule:evenodd;fill:url(#SVGID_4_);}
	.st42{fill-rule:evenodd;clip-rule:evenodd;fill:url(#SVGID_5_);}
	.st43{fill-rule:evenodd;clip-rule:evenodd;fill:url(#SVGID_6_);}
	.st44{fill-rule:evenodd;clip-rule:evenodd;fill:url(#SVGID_7_);}
	.st45{fill-rule:evenodd;clip-rule:evenodd;fill:url(#SVGID_8_);}
	.st46{fill:#006937;}
	.st47{fill:#929990;}
	.st48{fill:#FFFFFF;stroke:#FFFFFF;stroke-width:0.1949;stroke-miterlimit:10;}
	.st49{fill:#18428F;}
	.st50{fill:#EC1848;}
	.st51{fill:#29A151;}
	.st52{fill:#C1272D;}
	.st53{fill:#29ABE2;}
	.st54{fill:#F7BE3E;}
	.st55{fill:url(#SVGID_9_);}
	.st56{fill-rule:evenodd;clip-rule:evenodd;fill:none;}
	.st57{clip-path:url(#SVGID_11_);fill-rule:evenodd;clip-rule:evenodd;}
	.st58{fill:#EFAF1F;}
	.st59{fill:#EFB022;}
	.st60{fill:#0E0A08;}
	.st61{fill:#DA2A28;}
	.st62{fill:#F6F6F5;}
	.st63{fill:#C7B086;}
	.st64{fill:#F1F0EE;}
	.st65{fill-rule:evenodd;clip-rule:evenodd;fill:url(#SVGID_12_);}
	.st66{fill-rule:evenodd;clip-rule:evenodd;fill:#FAF9F9;}
	.st67{fill-rule:evenodd;clip-rule:evenodd;fill:#F8B132;}
	.st68{fill-rule:evenodd;clip-rule:evenodd;fill:#1A70B7;}
	.st69{fill-rule:evenodd;clip-rule:evenodd;fill:#36A834;}
	.st70{fill-rule:evenodd;clip-rule:evenodd;fill:#E2000F;}
	.st71{fill-rule:evenodd;clip-rule:evenodd;fill:#1A1A18;}
	.st72{fill:url(#SVGID_13_);}
	.st73{fill:url(#SVGID_14_);}
	.st74{fill:url(#SVGID_15_);}
	.st75{fill:url(#SVGID_16_);}
	.st76{fill:url(#SVGID_17_);}
	.st77{fill:url(#SVGID_18_);}
	.st78{fill:url(#SVGID_19_);}
	.st79{fill:url(#SVGID_20_);}
	.st80{fill:url(#SVGID_21_);}
	.st81{fill:url(#SVGID_22_);}
	.st82{fill:url(#SVGID_23_);}
	.st83{fill:url(#SVGID_24_);}
	.st84{fill:url(#SVGID_25_);}
	.st85{fill:url(#SVGID_26_);}
	.st86{fill:#00A85D;}
	.st87{fill:#FFFFFF;stroke:#FFFFFF;stroke-width:0.1;stroke-miterlimit:10;}
	.st88{fill:#9FD8F5;}
	.st89{fill:#274888;}
	.st90{fill:#267DBF;}
	.st91{fill:#2F91CF;}
	.st92{fill:#2955A0;}
	.st93{fill:#236EB3;}
	.st94{fill:#CFEBFA;}
	.st95{fill:#42B7E9;}
	.st96{fill:#3FAAE0;}
	.st97{fill:#ED171F;}
	.st98{opacity:0.25;fill:url(#SVGID_27_);}
	.st99{fill:#FFFFFF;stroke:#FFFFFF;stroke-width:1.0606;stroke-miterlimit:10;}
	.st100{fill:#FFAF10;}
	.st101{fill:#151416;}
	.st102{fill:#E57641;}
	.st103{fill:none;}
	.st104{fill:#1C191B;}
	.st105{fill:#19181A;}
	.st106{fill:#DD7340;}
	.st107{fill:#181617;}
	.st108{fill:#EA7944;}
	.st109{fill:#0C0E13;}
	.st110{fill:#181719;}
	.st111{fill:#F2F1F2;}
	.st112{fill:#F6F5F5;}
	.st113{fill:#BA673F;}
	.st114{fill:#4E362A;}
	.st115{fill:#6A6567;}
	.st116{fill:none;stroke:#EA7944;stroke-width:0.3013;stroke-linecap:round;stroke-miterlimit:10;}
	.st117{fill:none;stroke:#FF00FF;stroke-width:0.25;stroke-miterlimit:10;}
</style>
<g>
	<path class="st6" d="M12.412,9.761c-0.016-0.048,0-0.072,0.048-0.072c0.024,0,0.046,0.008,0.066,0.024
		c0.02,0.016,0.042,0.032,0.066,0.048c0.297,0.265,0.498,0.526,0.603,0.783c0.048,0.121-0.068,0.229-0.35,0.325
		c-0.088,0.04-0.243,0.046-0.464,0.018c-0.221-0.028-0.516-0.078-0.886-0.151c-0.089,0.458-0.157,0.864-0.205,1.217
		c-0.048,0.354-0.072,0.667-0.072,0.94c0,0.281,0.028,0.506,0.084,0.675c0,0.008,0.014,0.02,0.042,0.036
		c0.028,0.016,0.058,0.032,0.09,0.048c0.032,0.016,0.06,0.032,0.084,0.048c0.024,0.016,0.036,0.028,0.036,0.036
		c-0.016,0.12-0.096,0.181-0.241,0.181c-0.056,0-0.088-0.016-0.096-0.048c-0.129-0.265-0.193-0.731-0.193-1.398
		c0-0.249,0.01-0.522,0.03-0.819c0.02-0.297,0.05-0.622,0.09-0.976c-0.434-0.088-0.892-0.185-1.374-0.289
		c-0.482-0.104-0.992-0.221-1.531-0.349c-0.386,0.41-0.809,0.809-1.271,1.199c-0.462,0.39-0.97,0.781-1.524,1.175
		c-1.551,1.077-2.836,1.623-3.856,1.639c-0.506,0.008-0.898-0.132-1.175-0.422C0.138,13.34,0,12.942,0,12.436
		c0-0.217,0.024-0.446,0.072-0.687c0.048-0.241,0.129-0.49,0.241-0.747c0.369-0.94,1-1.522,1.892-1.747
		C2.39,9.207,2.593,9.172,2.814,9.152c0.221-0.02,0.468-0.03,0.741-0.03c1.221,0,2.779,0.205,4.676,0.615
		c0.466-0.49,1.116-1.237,1.952-2.241c0.458-0.554,0.864-1.056,1.217-1.506c0.353-0.45,0.646-0.856,0.879-1.217
		c0.04-0.04,0.092-0.06,0.157-0.06c0.136,0,0.289,0.056,0.458,0.169c0.169,0.113,0.245,0.197,0.229,0.253
		c-0.209,0.635-0.39,1.187-0.542,1.657c-0.153,0.47-0.281,0.866-0.386,1.187c-0.354,1.189-0.579,2.049-0.675,2.579
		c0.41,0.121,0.743,0.181,1,0.181c0.257,0,0.386-0.064,0.386-0.193c0-0.193-0.132-0.406-0.398-0.639
		C12.444,9.865,12.412,9.817,12.412,9.761z M1.175,10.044c-0.269,0.253-0.488,0.596-0.657,1.03
		c-0.153,0.402-0.229,0.807-0.229,1.217c0,0.45,0.104,0.807,0.313,1.073c0.121,0.153,0.265,0.269,0.434,0.349
		c0.169,0.08,0.369,0.117,0.602,0.108c1.036-0.024,2.273-0.542,3.712-1.554c0.892-0.651,1.767-1.41,2.627-2.278
		C6.419,9.604,4.929,9.411,3.506,9.411c-0.281,0-0.534,0.01-0.759,0.03c-0.225,0.02-0.426,0.05-0.603,0.09
		C1.767,9.62,1.444,9.791,1.175,10.044z M9.839,10.183c0.454,0.113,0.906,0.213,1.356,0.301c0.097-0.972,0.51-2.575,1.241-4.808
		c0.016-0.08,0.024-0.133,0.024-0.157c0-0.129-0.036-0.193-0.108-0.193c-0.04,0-0.072,0.01-0.097,0.03
		c-0.024,0.02-0.056,0.05-0.096,0.09c-0.61,0.812-1.221,1.579-1.831,2.302c-0.611,0.723-1.229,1.41-1.856,2.061
		C8.929,9.946,9.385,10.07,9.839,10.183z"/>
	<path class="st6" d="M13.243,13.593c-0.088,0.016-0.137,0-0.145-0.048c-0.032-0.032-0.024-0.096,0.024-0.193
		c0.185-0.393,0.498-0.928,0.94-1.603c0.209-0.321,0.406-0.608,0.59-0.862s0.358-0.476,0.518-0.669
		c0.024-0.04,0.058-0.072,0.102-0.096c0.044-0.024,0.11-0.044,0.199-0.06c0.048-0.008,0.076-0.008,0.084,0
		c0,0.032-0.012,0.06-0.036,0.084c-0.305,0.354-0.568,0.705-0.789,1.054c-0.221,0.349-0.412,0.705-0.573,1.066
		c-0.032,0.04-0.048,0.092-0.048,0.157c0,0.088,0.032,0.132,0.096,0.132c0.048,0,0.096-0.028,0.144-0.084
		c0.225-0.217,0.46-0.432,0.705-0.645c0.245-0.213,0.496-0.424,0.753-0.633c0.603-0.482,1.008-0.763,1.217-0.844
		c0.112-0.096,0.213-0.161,0.301-0.193c0.177-0.08,0.317-0.097,0.422-0.048c0.112,0.04,0.108,0.132-0.012,0.277
		c-0.571,0.731-1.085,1.575-1.542,2.531c-0.442,0.948-0.679,1.703-0.711,2.266c-0.032,0.369,0.044,0.655,0.229,0.856
		c0.169,0.177,0.39,0.265,0.663,0.265c0.129,0,0.245-0.016,0.35-0.048c0.458-0.129,1.032-0.486,1.723-1.072
		c0.763-0.651,1.145-1.173,1.145-1.567c0-0.08-0.018-0.139-0.054-0.175c-0.036-0.036-0.078-0.06-0.127-0.072
		c-0.048-0.012-0.092-0.018-0.132-0.018c-0.032,0-0.048-0.012-0.048-0.036c0-0.048,0.034-0.088,0.102-0.121
		c0.068-0.032,0.13-0.048,0.187-0.048c0.136,0,0.205,0.092,0.205,0.277c0,0.088-0.024,0.205-0.072,0.349
		c-0.072,0.233-0.201,0.478-0.386,0.735c-0.185,0.257-0.418,0.526-0.699,0.807c-0.771,0.763-1.607,1.193-2.506,1.289
		c-0.321,0.032-0.587-0.056-0.795-0.265c-0.225-0.241-0.317-0.619-0.277-1.133c0.048-0.578,0.301-1.305,0.759-2.181
		c0.185-0.369,0.379-0.725,0.585-1.066c0.205-0.341,0.423-0.673,0.657-0.994c0.024-0.032,0.036-0.072,0.036-0.12
		c0-0.129-0.072-0.193-0.217-0.193c-0.065,0-0.129,0.02-0.193,0.06c-0.458,0.321-0.914,0.699-1.368,1.133
		c-0.454,0.434-0.918,0.928-1.392,1.482C13.777,13.432,13.572,13.521,13.243,13.593z"/>
	<path class="st6" d="M17.124,13.593c-0.088,0.016-0.137,0-0.145-0.048c-0.032-0.032-0.024-0.096,0.024-0.193
		c0.185-0.393,0.498-0.928,0.94-1.603c0.209-0.321,0.406-0.608,0.59-0.862c0.185-0.253,0.358-0.476,0.518-0.669
		c0.024-0.04,0.058-0.072,0.102-0.096c0.044-0.024,0.11-0.044,0.199-0.06c0.048-0.008,0.076-0.008,0.084,0
		c0,0.032-0.012,0.06-0.036,0.084c-0.305,0.354-0.568,0.705-0.789,1.054c-0.221,0.349-0.412,0.705-0.573,1.066
		c-0.032,0.04-0.048,0.092-0.048,0.157c0,0.088,0.032,0.132,0.096,0.132c0.048,0,0.096-0.028,0.144-0.084
		c0.225-0.217,0.46-0.432,0.705-0.645c0.245-0.213,0.496-0.424,0.753-0.633c0.603-0.482,1.008-0.763,1.217-0.844
		c0.112-0.096,0.213-0.161,0.301-0.193c0.177-0.08,0.317-0.097,0.422-0.048c0.112,0.04,0.108,0.132-0.012,0.277
		c-0.571,0.731-1.085,1.575-1.542,2.531c-0.442,0.948-0.679,1.703-0.711,2.266c-0.032,0.369,0.044,0.655,0.229,0.856
		c0.169,0.177,0.39,0.265,0.663,0.265c0.129,0,0.245-0.016,0.35-0.048c0.458-0.129,1.032-0.486,1.723-1.072
		c0.763-0.651,1.145-1.173,1.145-1.567c0-0.08-0.018-0.139-0.054-0.175c-0.036-0.036-0.078-0.06-0.127-0.072
		c-0.048-0.012-0.092-0.018-0.132-0.018c-0.032,0-0.048-0.012-0.048-0.036c0-0.048,0.034-0.088,0.102-0.121
		c0.068-0.032,0.13-0.048,0.187-0.048c0.136,0,0.205,0.092,0.205,0.277c0,0.088-0.024,0.205-0.072,0.349
		c-0.072,0.233-0.201,0.478-0.386,0.735c-0.185,0.257-0.418,0.526-0.699,0.807c-0.771,0.763-1.607,1.193-2.506,1.289
		c-0.321,0.032-0.587-0.056-0.795-0.265c-0.225-0.241-0.317-0.619-0.277-1.133c0.048-0.578,0.301-1.305,0.759-2.181
		c0.185-0.369,0.379-0.725,0.585-1.066c0.205-0.341,0.423-0.673,0.657-0.994c0.024-0.032,0.036-0.072,0.036-0.12
		c0-0.129-0.072-0.193-0.217-0.193c-0.065,0-0.129,0.02-0.193,0.06c-0.458,0.321-0.914,0.699-1.368,1.133
		c-0.454,0.434-0.918,0.928-1.392,1.482C17.658,13.432,17.453,13.521,17.124,13.593z"/>
	<path class="st6" d="M21.245,13.822c-0.201,0-0.301-0.14-0.301-0.422c0-0.57,0.446-1.301,1.338-2.193
		c0.41-0.41,0.795-0.741,1.157-0.994c0.361-0.253,0.699-0.444,1.012-0.573c0.072-0.024,0.151-0.046,0.235-0.066
		c0.084-0.02,0.171-0.03,0.259-0.03c0.096,0,0.193,0.01,0.289,0.03c0.096,0.02,0.193,0.046,0.289,0.078
		c0.136,0.016,0.213,0.02,0.229,0.012C25.896,9.64,26,9.588,26.065,9.508c0.016-0.016,0.04-0.024,0.072-0.024
		c0.032,0,0.06,0.02,0.084,0.06c0.024,0.04,0.032,0.068,0.024,0.084c-0.233,0.361-0.464,0.717-0.693,1.066
		c-0.229,0.35-0.452,0.705-0.669,1.066c-0.169,0.281-0.334,0.605-0.494,0.97c-0.161,0.366-0.308,0.735-0.44,1.109
		c-0.133,0.374-0.247,0.729-0.344,1.066c-0.096,0.337-0.161,0.622-0.193,0.856c-0.008,0.04-0.012,0.076-0.012,0.108
		c0,0.04,0,0.08,0,0.121c0,0.273,0.084,0.476,0.253,0.608c0.169,0.133,0.398,0.199,0.687,0.199c0.289,0,0.574-0.048,0.856-0.144
		c0.426-0.145,0.98-0.49,1.663-1.036c0.329-0.265,0.625-0.538,0.886-0.82c0.261-0.281,0.488-0.546,0.681-0.795
		c0.072-0.08,0.121-0.121,0.145-0.121c0.008,0.008,0.012,0.02,0.012,0.036c0,0.032-0.016,0.076-0.048,0.132
		c-0.185,0.273-0.408,0.562-0.669,0.868c-0.261,0.305-0.573,0.61-0.934,0.916c-0.337,0.273-0.641,0.498-0.91,0.675
		c-0.269,0.177-0.516,0.305-0.741,0.386c-0.113,0.04-0.225,0.07-0.337,0.091c-0.113,0.02-0.233,0.03-0.361,0.03
		c-0.193,0-0.37-0.03-0.53-0.09c-0.161-0.06-0.306-0.135-0.434-0.223c-0.153-0.088-0.259-0.215-0.319-0.379
		c-0.06-0.165-0.086-0.351-0.078-0.56c0.008-0.169,0.042-0.394,0.102-0.675c0.06-0.281,0.138-0.58,0.235-0.898
		c0.096-0.317,0.201-0.633,0.313-0.946c0.113-0.313,0.225-0.59,0.337-0.831c0.136-0.289,0.271-0.558,0.404-0.807
		c0.133-0.249,0.267-0.478,0.404-0.687c0.056-0.088,0.052-0.132-0.012-0.132c-0.008,0-0.02,0.008-0.036,0.024
		c-0.193,0.233-0.424,0.478-0.693,0.735c-0.269,0.257-0.58,0.538-0.934,0.844c-0.707,0.595-1.313,1.041-1.819,1.338
		C21.417,13.79,21.325,13.822,21.245,13.822z M21.666,12.978c0,0.193,0.072,0.289,0.217,0.289c0.056,0,0.116-0.02,0.181-0.06
		c0.45-0.281,0.924-0.661,1.422-1.139c0.498-0.478,1.032-1.058,1.603-1.741c0.024-0.024,0.036-0.052,0.036-0.084
		c0-0.088-0.052-0.171-0.157-0.247c-0.105-0.076-0.237-0.115-0.398-0.115c-0.088,0-0.181,0.012-0.277,0.036
		c-0.378,0.096-0.855,0.462-1.434,1.097c-0.273,0.305-0.504,0.599-0.693,0.88c-0.189,0.281-0.34,0.55-0.452,0.807
		C21.683,12.79,21.666,12.882,21.666,12.978z"/>
	<path class="st6" d="M33.09,9.291c0.016,0.048,0.028,0.095,0.036,0.139c0.008,0.044,0.008,0.076,0,0.097
		c-0.008,0.02-0.028,0.02-0.06,0s-0.076-0.07-0.133-0.151c-0.064-0.096-0.133-0.215-0.205-0.355
		c-0.072-0.14-0.141-0.289-0.205-0.446c-0.064-0.157-0.121-0.309-0.169-0.458c-0.048-0.149-0.077-0.271-0.085-0.368
		c-0.016-0.096-0.022-0.221-0.018-0.374c0.004-0.152,0.04-0.305,0.108-0.458c0.068-0.153,0.185-0.295,0.349-0.428
		c0.165-0.132,0.408-0.231,0.729-0.295c0.233-0.048,0.506-0.072,0.82-0.072s0.646,0.014,1,0.042
		c0.353,0.028,0.717,0.064,1.091,0.108c0.373,0.044,0.737,0.089,1.09,0.133c0.354,0.044,0.683,0.083,0.988,0.115
		c0.305,0.032,0.57,0.048,0.795,0.048c0.04,0,0.094-0.016,0.163-0.048c0.068-0.032,0.118-0.052,0.151-0.06
		c0.072-0.024,0.134-0.022,0.187,0.006c0.052,0.028,0.088,0.066,0.108,0.115c0.02,0.048,0.022,0.102,0.006,0.163
		c-0.016,0.06-0.06,0.107-0.133,0.139c-0.065,0.032-0.122,0.056-0.175,0.072c-0.052,0.016-0.111,0.024-0.175,0.024
		c-0.04,0-0.076,0.008-0.108,0.024s-0.072,0.04-0.121,0.072c-0.281,0.104-0.534,0.241-0.759,0.41
		c-0.225,0.169-0.442,0.366-0.651,0.59c-0.209,0.225-0.42,0.476-0.633,0.753c-0.213,0.277-0.444,0.576-0.693,0.898
		c-0.024,0.04-0.04,0.072-0.048,0.096c-0.008,0.024,0.012,0.036,0.06,0.036h0.603c0.072,0,0.118,0.012,0.138,0.036
		c0.02,0.024,0.02,0.048,0,0.072c-0.02,0.024-0.054,0.046-0.102,0.066c-0.048,0.02-0.1,0.03-0.157,0.03h-0.651
		c-0.04,0-0.068,0.004-0.084,0.012c-0.016,0.008-0.032,0.028-0.048,0.06c-0.144,0.217-0.33,0.472-0.554,0.765
		s-0.462,0.583-0.711,0.868c-0.249,0.285-0.5,0.546-0.753,0.783c-0.253,0.237-0.484,0.404-0.693,0.5
		c-0.08,0.04-0.123,0.078-0.127,0.115c-0.004,0.036,0.026,0.062,0.09,0.078c0.305,0.104,0.629,0.211,0.97,0.319
		c0.341,0.108,0.685,0.209,1.03,0.301c0.345,0.092,0.683,0.171,1.012,0.235c0.329,0.064,0.639,0.108,0.928,0.133
		c0.177,0.016,0.369,0.018,0.578,0.006c0.209-0.012,0.382-0.062,0.518-0.151c0.121-0.088,0.197-0.115,0.229-0.078
		c0.032,0.036-0.004,0.086-0.108,0.15c-0.096,0.056-0.181,0.102-0.253,0.139c-0.072,0.036-0.149,0.064-0.229,0.084
		c-0.08,0.02-0.179,0.032-0.295,0.036c-0.117,0.004-0.263,0.002-0.44-0.006c-0.386-0.008-0.8-0.048-1.241-0.121
		c-0.442-0.072-0.868-0.157-1.277-0.253c-0.41-0.097-0.788-0.195-1.133-0.295c-0.345-0.1-0.615-0.187-0.807-0.259
		c-0.056-0.024-0.129-0.012-0.217,0.036c-0.113,0.072-0.271,0.135-0.476,0.187c-0.205,0.052-0.412,0.083-0.621,0.09
		c-0.089,0.008-0.207-0.002-0.356-0.03c-0.149-0.028-0.301-0.072-0.458-0.132c-0.157-0.06-0.305-0.137-0.446-0.229
		c-0.141-0.092-0.247-0.207-0.319-0.343c-0.088-0.145-0.098-0.281-0.03-0.41c0.068-0.128,0.223-0.193,0.464-0.193
		c0.153-0.008,0.336,0.006,0.548,0.042s0.428,0.084,0.645,0.145c0.217,0.06,0.426,0.123,0.627,0.187
		c0.201,0.064,0.365,0.121,0.494,0.169c0.04,0.016,0.08,0.026,0.121,0.03c0.04,0.004,0.092-0.014,0.157-0.054
		c0.185-0.121,0.39-0.293,0.615-0.518c0.225-0.225,0.45-0.468,0.675-0.729c0.225-0.261,0.442-0.526,0.65-0.795
		c0.209-0.269,0.39-0.512,0.542-0.729c0.024-0.04,0.05-0.072,0.079-0.096c0.028-0.024-0.002-0.036-0.091-0.036h-0.867
		c-0.048,0-0.085-0.01-0.108-0.03c-0.024-0.02-0.034-0.046-0.03-0.078c0.004-0.032,0.022-0.06,0.054-0.084
		c0.032-0.024,0.076-0.036,0.133-0.036c0.032,0,0.096,0,0.193,0c0.096,0,0.197,0,0.301,0c0.112,0,0.217,0,0.313,0
		c0.096,0,0.16,0,0.193,0c0.04-0.016,0.064-0.022,0.072-0.018c0.008,0.004,0.02-0.01,0.036-0.042
		c0.562-0.755,1.088-1.354,1.579-1.796c0.49-0.442,0.968-0.763,1.434-0.964c0.056-0.024,0.104-0.046,0.145-0.066
		c0.04-0.02,0.062-0.04,0.066-0.06c0.004-0.02-0.01-0.04-0.042-0.06c-0.032-0.02-0.093-0.042-0.181-0.066
		c-0.185-0.032-0.472-0.078-0.862-0.139c-0.39-0.06-0.821-0.11-1.295-0.151c-0.474-0.04-0.96-0.056-1.458-0.048
		c-0.498,0.008-0.952,0.06-1.362,0.157c-0.217,0.048-0.392,0.117-0.524,0.205c-0.132,0.089-0.235,0.185-0.307,0.289
		c-0.072,0.104-0.119,0.209-0.138,0.313c-0.02,0.104-0.026,0.193-0.018,0.265C32.805,8.21,32.913,8.753,33.09,9.291z M30.282,13.099
		c0.08,0.096,0.193,0.179,0.337,0.247c0.145,0.068,0.301,0.117,0.47,0.145c0.169,0.028,0.341,0.04,0.518,0.036
		c0.177-0.004,0.337-0.03,0.482-0.078c0.072-0.024,0.129-0.048,0.169-0.072c0.04-0.024,0.016-0.056-0.072-0.097
		c-0.121-0.04-0.265-0.084-0.434-0.132c-0.169-0.048-0.337-0.096-0.506-0.145c-0.169-0.048-0.327-0.09-0.476-0.127
		c-0.149-0.036-0.263-0.062-0.344-0.078c-0.065-0.024-0.129-0.01-0.193,0.042C30.169,12.892,30.186,12.978,30.282,13.099z"/>
	<path class="st6" d="M43.574,10.424c0.032,0,0.056,0.008,0.072,0.024c0.064,0.016,0.122,0.052,0.175,0.108
		c0.052,0.056,0.078,0.117,0.078,0.181c-0.016,0.096-0.06,0.193-0.133,0.289c-0.129,0.386-0.283,0.852-0.464,1.398
		c-0.181,0.546-0.396,1.181-0.645,1.904c1.229-0.217,2.39-0.325,3.483-0.325c0.201,0,0.375,0.006,0.524,0.018
		c0.149,0.012,0.279,0.026,0.392,0.042c0.088,0.016,0.179,0.052,0.271,0.108c0.092,0.056,0.177,0.127,0.253,0.211
		c0.076,0.084,0.139,0.175,0.187,0.271c0.048,0.096,0.072,0.197,0.072,0.301c0,0.096-0.02,0.185-0.06,0.265
		c-0.104,0.201-0.366,0.466-0.783,0.795c-0.072,0.064-0.133,0.096-0.181,0.096c-0.016,0-0.024-0.004-0.024-0.012
		c0-0.048,0.04-0.1,0.121-0.157c0.474-0.442,0.711-0.839,0.711-1.193c0-0.289-0.197-0.45-0.591-0.482
		c-0.113-0.008-0.243-0.014-0.392-0.018c-0.149-0.004-0.315-0.006-0.5-0.006c-0.731,0-1.392,0.022-1.983,0.066
		c-0.59,0.044-1.119,0.118-1.585,0.223c-2.37,6.756-5.242,10.243-8.616,10.46c-1.157,0.064-2.217-0.285-3.181-1.048
		c-0.972-0.763-1.458-1.619-1.458-2.567c0-0.297,0.065-0.599,0.193-0.904c0.611-1.438,2.535-2.796,5.772-4.073
		c2.201-0.876,4.507-1.542,6.917-2c0.185-0.418,0.402-1.072,0.651-1.964c0.04-0.136,0.074-0.263,0.102-0.379
		c0.028-0.116,0.058-0.223,0.09-0.319c-0.137,0.129-0.327,0.283-0.573,0.464c-0.245,0.181-0.548,0.4-0.91,0.657
		c-0.458,0.321-0.856,0.584-1.193,0.789c-0.337,0.205-0.622,0.359-0.856,0.464c-0.064,0.024-0.141,0.036-0.229,0.036
		c-0.289,0-0.434-0.144-0.434-0.434c0-0.112,0.036-0.237,0.108-0.374c0.378-0.771,1.036-1.454,1.976-2.049
		C41.874,10.705,42.754,10.416,43.574,10.424z M29.8,20.799c-0.096,0.257-0.145,0.514-0.145,0.771c0,0.851,0.422,1.603,1.265,2.254
		c0.892,0.683,1.896,1,3.012,0.952c1.944-0.072,3.792-1.526,5.543-4.362c0.538-0.876,1.03-1.796,1.476-2.76
		c0.446-0.964,0.845-1.988,1.199-3.073c-2.9,0.61-5.438,1.41-7.616,2.398C31.909,18.2,30.33,19.473,29.8,20.799z M42.839,11.689
		c0.201-0.153,0.313-0.374,0.337-0.663c0-0.008-0.002-0.012-0.006-0.012c-0.004,0-0.006-0.004-0.006-0.012
		c0-0.024,0.004-0.04,0.012-0.048c0-0.145-0.028-0.221-0.084-0.229c-0.089-0.032-0.273-0.012-0.554,0.06
		c-0.587,0.137-1.169,0.426-1.747,0.868c-0.61,0.482-1,0.972-1.169,1.47c-0.008,0.04-0.014,0.072-0.018,0.097
		c-0.004,0.024-0.006,0.056-0.006,0.096c0,0.257,0.096,0.386,0.289,0.386c0.169,0,0.663-0.293,1.482-0.88
		c0.329-0.233,0.616-0.444,0.862-0.633C42.475,12,42.678,11.834,42.839,11.689z"/>
	<path class="st6" d="M44.791,14.087c-0.056,0.008-0.117,0.002-0.181-0.018c-0.064-0.02-0.122-0.05-0.175-0.09
		c-0.052-0.04-0.096-0.088-0.133-0.145c-0.036-0.056-0.054-0.116-0.054-0.181c0.016-0.667,0.554-1.651,1.615-2.952
		c0.032-0.056,0.024-0.092-0.024-0.108c-0.072-0.04-0.145-0.086-0.217-0.139c-0.072-0.052-0.108-0.102-0.108-0.151
		c0-0.024,0.012-0.056,0.036-0.096c0.024-0.04,0.129-0.064,0.314-0.072c0.297-0.008,0.45-0.012,0.458-0.012
		c0.032,0,0.076-0.016,0.133-0.048c0.177-0.169,0.353-0.257,0.53-0.265c0.129-0.008,0.309,0.064,0.542,0.217
		c0.016,0.008,0.03,0.016,0.042,0.024c0.012,0.008,0.026,0.016,0.042,0.024c0.185,0.008,0.408,0.016,0.669,0.024
		c0.261,0.008,0.56,0.016,0.898,0.024c0.121,0.016,0.181,0.032,0.181,0.048c0,0.048-0.06,0.072-0.181,0.072
		c-0.249,0-0.41,0.048-0.482,0.145c-0.016,0.024-0.016,0.048,0,0.072c0.008,0.024,0.016,0.048,0.024,0.072
		c0.008,0.024,0.012,0.044,0.012,0.06c-0.024,0.305-0.155,0.633-0.392,0.982c-0.237,0.349-0.596,0.729-1.079,1.139
		C46.321,13.525,45.498,13.982,44.791,14.087z M44.622,13.448c-0.048,0.089-0.072,0.177-0.072,0.265
		c0,0.193,0.129,0.265,0.386,0.217c0.546-0.088,1.201-0.482,1.964-1.181c0.803-0.715,1.265-1.366,1.386-1.952
		c0.056-0.241-0.097-0.382-0.458-0.422c-0.193-0.024-0.374-0.026-0.542-0.006c-0.169,0.02-0.325,0.058-0.47,0.114
		c-0.016-0.008-0.084,0.028-0.205,0.108C45.75,11.388,45.088,12.34,44.622,13.448z"/>
	<path class="st6" d="M53.142,9.014c0.144-0.249,0.285-0.49,0.422-0.723c-0.065-0.008-0.127-0.016-0.187-0.024
		c-0.06-0.008-0.119-0.02-0.175-0.036c-0.113-0.016-0.213-0.082-0.301-0.199c-0.088-0.116-0.133-0.239-0.133-0.368
		c0-0.08,0.028-0.149,0.084-0.205c0.386-0.426,0.976-0.723,1.772-0.892h0.024c0.233-0.345,0.45-0.661,0.651-0.946
		c0.201-0.285,0.393-0.544,0.579-0.777c1.839-2.354,3.699-3.856,5.579-4.507C62.083,0.113,62.706,0,63.324,0
		c1.02,0,1.88,0.289,2.579,0.868c0.658,0.562,0.988,1.233,0.988,2.012c0,0.595-0.205,1.157-0.615,1.687
		c-0.458,0.595-1.121,1.093-1.988,1.494c-3.229,1.51-6.391,2.265-9.484,2.265c-0.153,0-0.297,0-0.434,0
		c-0.137,0-0.273-0.004-0.41-0.012c-0.177,0.305-0.354,0.617-0.53,0.934c-0.177,0.317-0.354,0.649-0.53,0.994
		c-0.755,1.47-1.129,2.627-1.121,3.47c0,0.032,0.024,0.076,0.072,0.133c0.032,0.008,0.064,0.014,0.096,0.018
		c0.032,0.004,0.068,0.01,0.108,0.018c0.04,0.016,0.048,0.048,0.024,0.096c-0.032,0.048-0.065,0.076-0.096,0.084
		c-0.089,0.048-0.177,0.024-0.265-0.072c-0.04-0.065-0.074-0.145-0.102-0.241c-0.028-0.097-0.042-0.201-0.042-0.313
		c0-0.466,0.233-1.313,0.699-2.543c0.048-0.137,0.028-0.205-0.06-0.205c-0.024,0-0.048,0.016-0.072,0.048
		c-0.209,0.257-0.45,0.532-0.723,0.825c-0.273,0.293-0.587,0.593-0.94,0.898c-0.803,0.731-1.462,1.201-1.976,1.41
		c-0.048,0.016-0.089,0.024-0.121,0.024c-0.297,0-0.446-0.137-0.446-0.41c0-0.538,0.474-1.257,1.422-2.157
		c0.851-0.803,1.579-1.325,2.181-1.567c0.072-0.024,0.15-0.046,0.235-0.066c0.084-0.02,0.171-0.03,0.259-0.03s0.187,0.01,0.295,0.03
		c0.108,0.02,0.231,0.05,0.368,0.09C52.848,9.52,52.997,9.263,53.142,9.014z M48.647,13.099c0,0.177,0.068,0.265,0.205,0.265
		c0.064,0,0.129-0.02,0.193-0.06c0.53-0.345,1.049-0.739,1.555-1.181c0.506-0.442,1.004-0.948,1.494-1.518
		c0.096-0.121,0.144-0.225,0.144-0.313c0-0.185-0.144-0.277-0.434-0.277c-0.104,0-0.209,0.012-0.313,0.036
		c-0.209,0.048-0.44,0.165-0.693,0.349c-0.253,0.185-0.536,0.43-0.85,0.735c-0.619,0.619-1.032,1.185-1.241,1.699
		C48.667,12.914,48.647,13.002,48.647,13.099z M53.437,8.086c0.076,0.008,0.158,0.016,0.247,0.024
		c0.161-0.257,0.315-0.504,0.464-0.741c0.149-0.237,0.291-0.464,0.428-0.681c-0.354,0.097-0.655,0.221-0.904,0.374
		c-0.249,0.153-0.458,0.33-0.627,0.53c-0.057,0.056-0.085,0.129-0.085,0.217c0,0.137,0.088,0.217,0.265,0.241
		C53.29,8.066,53.36,8.078,53.437,8.086z M54.07,8.146c0.112,0.008,0.225,0.012,0.337,0.012c0.112,0,0.237,0,0.373,0
		c3.35,0,6.463-0.835,9.339-2.507c1.671-0.964,2.507-1.984,2.507-3.061c0-0.699-0.337-1.277-1.012-1.735
		c-0.675-0.482-1.462-0.723-2.362-0.723c-0.595,0-1.169,0.117-1.723,0.349C58.918,1.591,56.431,4.145,54.07,8.146z"/>
	<path class="st6" d="M56.684,12.316c-0.096,0.096-0.243,0.221-0.44,0.374c-0.197,0.153-0.414,0.311-0.651,0.476
		c-0.237,0.165-0.476,0.319-0.717,0.464c-0.241,0.145-0.45,0.257-0.627,0.337c-0.048,0.016-0.123,0.016-0.223,0
		c-0.1-0.016-0.201-0.054-0.301-0.114c-0.101-0.06-0.189-0.141-0.265-0.241c-0.076-0.1-0.115-0.223-0.115-0.368
		c0-0.128,0.032-0.295,0.096-0.5c0.064-0.205,0.145-0.422,0.241-0.651c0.096-0.229,0.201-0.462,0.313-0.699
		c0.112-0.237,0.217-0.454,0.313-0.651c0.096-0.197,0.177-0.365,0.241-0.506c0.064-0.14,0.1-0.227,0.108-0.259
		c0.016-0.096,0.064-0.163,0.144-0.199c0.08-0.036,0.157-0.042,0.229-0.018c0.072,0.024,0.124,0.08,0.157,0.169
		c0.032,0.089,0.012,0.205-0.06,0.349c-0.273,0.514-0.484,0.91-0.633,1.187c-0.149,0.277-0.255,0.48-0.319,0.608
		c-0.064,0.129-0.102,0.207-0.115,0.235c-0.012,0.028-0.022,0.054-0.03,0.078c-0.008,0.024-0.026,0.068-0.054,0.133
		c-0.028,0.064-0.09,0.197-0.187,0.398c-0.096,0.201-0.147,0.356-0.151,0.464c-0.004,0.108,0.022,0.187,0.079,0.235
		c0.056,0.048,0.126,0.07,0.211,0.066c0.084-0.004,0.166-0.014,0.247-0.03c0.153-0.032,0.344-0.108,0.573-0.229
		c0.229-0.121,0.464-0.257,0.705-0.41c0.241-0.152,0.466-0.305,0.675-0.458c0.209-0.153,0.369-0.281,0.482-0.386
		c0.072-0.072,0.124-0.112,0.157-0.12c0.032-0.008,0.05,0,0.054,0.024c0.004,0.024-0.006,0.06-0.03,0.108
		C56.769,12.231,56.733,12.275,56.684,12.316z M55.925,8.592c-0.024,0.137-0.137,0.293-0.337,0.47
		c-0.177,0.169-0.325,0.241-0.446,0.217c-0.177-0.032-0.265-0.1-0.265-0.205c0-0.112,0.092-0.261,0.277-0.446
		c0.185-0.193,0.333-0.301,0.446-0.325c0.088-0.016,0.171,0.01,0.247,0.078C55.923,8.449,55.949,8.52,55.925,8.592z"/>
	<path class="st6" d="M55.226,13.593c-0.088,0.016-0.137,0-0.145-0.048c-0.032-0.032-0.024-0.096,0.024-0.193
		c0.185-0.393,0.498-0.928,0.94-1.603c0.209-0.321,0.406-0.608,0.59-0.862s0.358-0.476,0.518-0.669
		c0.024-0.04,0.058-0.072,0.102-0.096c0.044-0.024,0.11-0.044,0.199-0.06c0.048-0.008,0.076-0.008,0.084,0
		c0,0.032-0.012,0.06-0.036,0.084c-0.305,0.354-0.568,0.705-0.789,1.054c-0.221,0.349-0.412,0.705-0.573,1.066
		c-0.032,0.04-0.048,0.092-0.048,0.157c0,0.088,0.032,0.132,0.096,0.132c0.048,0,0.096-0.028,0.144-0.084
		c0.225-0.217,0.46-0.432,0.705-0.645c0.245-0.213,0.496-0.424,0.753-0.633c0.603-0.482,1.008-0.763,1.217-0.844
		c0.112-0.096,0.213-0.161,0.301-0.193c0.177-0.08,0.317-0.097,0.422-0.048c0.112,0.04,0.108,0.132-0.012,0.277
		c-0.571,0.731-1.085,1.575-1.542,2.531c-0.442,0.948-0.679,1.703-0.711,2.266c-0.032,0.369,0.044,0.655,0.229,0.856
		c0.169,0.177,0.39,0.265,0.663,0.265c0.129,0,0.245-0.016,0.35-0.048c0.458-0.129,1.032-0.486,1.723-1.072
		c0.763-0.651,1.145-1.173,1.145-1.567c0-0.08-0.018-0.139-0.054-0.175c-0.036-0.036-0.078-0.06-0.127-0.072
		c-0.048-0.012-0.092-0.018-0.132-0.018c-0.032,0-0.048-0.012-0.048-0.036c0-0.048,0.034-0.088,0.102-0.121
		c0.068-0.032,0.13-0.048,0.187-0.048c0.136,0,0.205,0.092,0.205,0.277c0,0.088-0.024,0.205-0.072,0.349
		c-0.072,0.233-0.201,0.478-0.386,0.735c-0.185,0.257-0.418,0.526-0.699,0.807c-0.771,0.763-1.607,1.193-2.506,1.289
		c-0.321,0.032-0.587-0.056-0.795-0.265c-0.225-0.241-0.317-0.619-0.277-1.133c0.048-0.578,0.301-1.305,0.759-2.181
		c0.185-0.369,0.379-0.725,0.585-1.066c0.205-0.341,0.423-0.673,0.657-0.994c0.024-0.032,0.036-0.072,0.036-0.12
		c0-0.129-0.072-0.193-0.217-0.193c-0.065,0-0.129,0.02-0.193,0.06c-0.458,0.321-0.914,0.699-1.368,1.133
		c-0.454,0.434-0.918,0.928-1.392,1.482C55.76,13.432,55.556,13.521,55.226,13.593z"/>
	<path class="st6" d="M59.347,13.822c-0.201,0-0.301-0.14-0.301-0.422c0-0.57,0.446-1.301,1.338-2.193
		c0.41-0.41,0.795-0.741,1.157-0.994c0.361-0.253,0.699-0.444,1.012-0.573c0.072-0.024,0.151-0.046,0.235-0.066
		c0.084-0.02,0.171-0.03,0.259-0.03c0.096,0,0.193,0.01,0.289,0.03c0.096,0.02,0.193,0.046,0.289,0.078
		c0.136,0.016,0.213,0.02,0.229,0.012c0.144-0.024,0.249-0.076,0.313-0.157c0.016-0.016,0.04-0.024,0.072-0.024
		s0.06,0.02,0.084,0.06c0.024,0.04,0.032,0.068,0.024,0.084c-0.233,0.361-0.464,0.717-0.693,1.066
		c-0.229,0.35-0.452,0.705-0.669,1.066c-0.169,0.281-0.334,0.605-0.494,0.97c-0.161,0.366-0.308,0.735-0.44,1.109
		c-0.133,0.374-0.247,0.729-0.344,1.066c-0.096,0.337-0.161,0.622-0.193,0.856c-0.008,0.04-0.012,0.076-0.012,0.108
		c0,0.04,0,0.08,0,0.121c0,0.273,0.084,0.476,0.253,0.608c0.169,0.133,0.398,0.199,0.687,0.199c0.289,0,0.574-0.048,0.856-0.144
		c0.426-0.145,0.98-0.49,1.663-1.036c0.329-0.265,0.625-0.538,0.886-0.82c0.261-0.281,0.488-0.546,0.681-0.795
		c0.072-0.08,0.121-0.121,0.145-0.121c0.008,0.008,0.012,0.02,0.012,0.036c0,0.032-0.016,0.076-0.048,0.132
		c-0.185,0.273-0.408,0.562-0.669,0.868c-0.261,0.305-0.573,0.61-0.934,0.916c-0.337,0.273-0.641,0.498-0.91,0.675
		c-0.269,0.177-0.516,0.305-0.741,0.386c-0.113,0.04-0.225,0.07-0.337,0.091c-0.113,0.02-0.233,0.03-0.361,0.03
		c-0.193,0-0.37-0.03-0.53-0.09c-0.161-0.06-0.306-0.135-0.434-0.223c-0.153-0.088-0.259-0.215-0.319-0.379
		c-0.06-0.165-0.086-0.351-0.078-0.56c0.008-0.169,0.042-0.394,0.102-0.675c0.06-0.281,0.138-0.58,0.235-0.898
		c0.096-0.317,0.201-0.633,0.313-0.946s0.225-0.59,0.337-0.831c0.136-0.289,0.271-0.558,0.404-0.807
		c0.133-0.249,0.267-0.478,0.404-0.687c0.056-0.088,0.052-0.132-0.012-0.132c-0.008,0-0.02,0.008-0.036,0.024
		c-0.193,0.233-0.424,0.478-0.693,0.735c-0.269,0.257-0.58,0.538-0.934,0.844c-0.707,0.595-1.313,1.041-1.819,1.338
		C59.52,13.79,59.428,13.822,59.347,13.822z M59.769,12.978c0,0.193,0.072,0.289,0.217,0.289c0.056,0,0.116-0.02,0.181-0.06
		c0.45-0.281,0.924-0.661,1.422-1.139c0.498-0.478,1.032-1.058,1.603-1.741c0.024-0.024,0.036-0.052,0.036-0.084
		c0-0.088-0.052-0.171-0.157-0.247c-0.105-0.076-0.237-0.115-0.398-0.115c-0.088,0-0.181,0.012-0.277,0.036
		c-0.378,0.096-0.855,0.462-1.434,1.097c-0.273,0.305-0.504,0.599-0.693,0.88c-0.189,0.281-0.34,0.55-0.452,0.807
		C59.785,12.79,59.769,12.882,59.769,12.978z"/>
</g>
</svg>
