<?xml version="1.0" encoding="utf-8"?>
<!-- Generator: Adobe Illustrator 22.1.0, SVG Export Plug-In . SVG Version: 6.00 Build 0)  -->
<svg version="1.1" id="Слой_1" xmlns="http://www.w3.org/2000/svg" xmlns:xlink="http://www.w3.org/1999/xlink" x="0px" y="0px"
	 viewBox="0 0 1144.5 239.4" style="enable-background:new 0 0 1144.5 239.4;" xml:space="preserve">
<style type="text/css">
	.st0{fill:#FFFFFF;}
</style>
<g>
	<g>
		<path class="st0" d="M161.3,207v-6.9c20.1-2,20.8-3.4,20.6-29.6l0.2-99.8c-20.1,44.8-52.4,114.8-60.9,136.3h-6.4
			c-8.3-22.3-36-89.6-54.6-133.9c-4.2,85.7-4.4,105-4.4,109.6c0.2,13.7,6.4,15.7,23,17.4v6.9h-58v-6.9c14.2-1.5,20.1-4.4,22-17.6
			c1.5-10.8,1.7-19.6,8.1-108.9c1-12.7-1.5-16.9-23-18.8v-6.9h42.6L124.6,172l58-124.1h42.8v6.9c-21,2.4-23.7,4.6-23.2,21.8l1,94
			c1,26.2,1.7,27.4,23.2,29.6v6.9H161.3z"/>
		<path class="st0" d="M330.2,186.2c-15.7,19.6-32.8,23.7-40.6,23.7c-29.9,0-48-24.5-48-52.6c0-16.6,5.9-32.1,15.9-42.8
			c10.3-11.5,23.7-17.9,36.5-17.9c21.3,0,37.4,18.4,37.4,37.9c-0.2,4.9-1,7.1-4.9,8.1c-4.9,1-36.2,3.2-65.3,4.2
			c-0.7,32.8,19.3,46.3,36.7,46.3c10,0,19.3-4.2,28.4-12.5L330.2,186.2z M288.1,105.9c-11.3,0-22.3,10.5-25.7,30.3
			c13.7,0,27.4,0,41.8-0.7c4.4,0,5.9-1.2,5.9-4.9C310.4,117.7,301.8,105.9,288.1,105.9z"/>
		<path class="st0" d="M402.4,207h-56.3v-6.9c15.4-1.5,16.9-2.7,16.9-18.6v-50.9c0-16.2-1-16.9-15.2-18.6v-6.1c12-2,23-4.9,34.5-10
			c0,8.1,0,18.8,0,26.9c8.6-12.7,18.8-26.2,31.1-26.2c9.1,0,14.2,5.6,14.2,11.7c0,5.6-3.9,11-8.3,13.5c-2.4,1.5-4.4,1.2-6.4-0.5
			c-3.7-3.7-6.6-6.1-11-6.1c-5.1,0-14.2,7.6-19.6,20.1v46c0,16.2,1.2,17.4,20.1,18.8V207z"/>
		<path class="st0" d="M439.8,207v-6.9c15.4-1.5,17.1-2.7,17.1-19.3v-50.4c0-15.2-0.7-16.2-15.4-18.6v-5.9
			c12.7-2.2,24.2-5.4,34.8-9.8c0,10.3,0,20.6,0,30.8v53.8c0,16.6,1.7,17.9,17.6,19.3v6.9H439.8z M465.3,72.2c-6.9,0-13-6.1-13-13
			c0-7.8,6.1-13.5,13.2-13.5c6.9,0,12.5,5.6,12.5,13.5C478,66,472.4,72.2,465.3,72.2z"/>
		<path class="st0" d="M553.1,206.8c-4.2,2.2-8.1,3.2-10.5,3.2c-15.7,0-24-9.5-24-29.1v-71.2h-16.9l-1-2.9l6.6-7.1h11.3V79
			c4.6-4.9,11.7-11.3,16.4-16.2l3.7,0.5c-0.5,10.3-0.7,24.5-0.7,36.2h27.9c2.2,2.4,1.5,7.8-1.5,10h-26.4v62.6
			c0,19.8,7.8,23.5,14.2,23.5c5.9,0,11.5-2.2,14.9-3.9l2.2,6.4L553.1,206.8z"/>
		<path class="st0" d="M639.7,159h-56.3l1.7-14.9h56.3L639.7,159z"/>
		<path class="st0" d="M727.6,47.9c17.4,0,31.3,3.2,41.4,10.5c9.5,7.1,16.2,18.6,16.2,34.8c0,35.7-30.6,50.2-53.8,50.2
			c-2.7,0-5.1-0.2-6.6-0.5l-16.9-4.4v38.2c0,20.6,1.7,21,24.2,23.5v6.9h-67.5v-6.9c21-2.2,22-3.7,22-24V79c0-21.8-2.7-22.3-22-24.2
			v-6.9H727.6z M707.8,129.9c2.9,1.5,9.5,3.2,17.9,3.2c16.4,0,36.7-8.3,36.7-39.2c0-26.9-17.6-37.7-38.2-37.7
			c-7.1,0-12.2,1.2-13.7,2.9c-2,1.7-2.7,4.6-2.7,11.3V129.9z"/>
		<path class="st0" d="M869,207v-6.9c14.2-1.5,16.2-2.7,16.2-18.8v-40.1c0-20.3-7.8-30.6-24.2-30.3c-9.3,0-19.1,4.6-25.9,12.7v57.8
			c0,15.9,2,17.4,16.6,18.8v6.9h-53.3v-6.9c14.2-1.2,17.4-2.4,17.4-18.8v-118c0-13-0.7-16.2-17.1-17.6v-6.4
			c13-1.2,27.7-4.9,36.5-8.3c0,9.5,0,20.3,0,30.3v53.1c8.8-8.8,22.3-17.9,35.5-17.9c20.1,0,34,12.5,34,41.8v43.1
			c0,16.2,2,17.4,16.2,18.6v6.9H869z"/>
	</g>
	<g>
		<path class="st0" d="M1021.7,192.6c-0.5,2.7-3.1,11.7-4,14.4h-40.4v-2.4c7.9-0.8,8.6-1.2,8.6-8.6v-34.5c0-7.4-0.9-7.8-7.8-8.5
			v-2.4h23.3v2.4c-6.9,0.7-7.9,1-7.9,8.5v35.3c0,5.3,0.7,6.5,5.6,6.6c0.1,0.1,6.3,0.1,6.9,0.1c4.4,0,5.7-0.5,7.7-2.7
			c2.2-2.3,4-5.7,5.3-8.9L1021.7,192.6z"/>
		<path class="st0" d="M1065.4,164.2c-0.8-2.8-1.8-5.6-2.8-7.2c-1.4-2.3-2.3-3-7-3h-8.7v42.3c0,6.8,0.7,7.7,8.9,8.2v2.4h-25.3v-2.4
			c8.1-0.5,8.8-1.4,8.8-8.2v-42.3h-7.9c-4.8,0-6.2,0.5-7.6,3.1c-1,1.7-1.7,3.8-2.9,7h-2.6c0.5-5.3,1-10.8,1.3-15.6h2
			c1.3,2.1,2.3,2,4.7,2h34.4c2.4,0,3.1-0.3,4.4-2h2.1c0,4.1,0.3,10.3,0.8,15.4L1065.4,164.2z"/>
		<path class="st0" d="M1099.3,150.6c12.2,0,20,2.4,25.3,7.5c4.3,4.2,7.4,10.2,7.4,18.6c0,10.2-4.2,18.4-10.8,23.4
			c-6.6,4.9-15,6.9-25.7,6.9h-20.3v-2.4c7.5-0.7,7.8-1.3,7.8-8.4v-34.6c0-7.5-1-7.8-7.8-8.5v-2.4H1099.3z M1090.5,195.5
			c0,6.5,2.8,8.3,9.3,8.3c15.6,0,23.6-10.7,23.6-25.9c0-9.5-3.2-16.7-10.1-20.8c-4-2.5-9-3.5-14.8-3.5c-3.9,0-6,0.5-6.9,1.2
			c-0.8,0.5-1.1,1.5-1.1,4.9V195.5z"/>
	</g>
</g>
</svg>
