<svg xmlns="http://www.w3.org/2000/svg" width="103" height="155" fill="none"><g clip-path="url(#a)"><path fill="#151416" d="M22.339 94.838c1.28 8.539 7.6 15.541 16.053 17.59l11.27 1.879c1.623-.086 2.904 3.586 2.904 3.586v23.054s-1.366.598-7.6-2.22c-6.233-2.817-20.322-5.123-28.434-16.906-8.111-11.784-5.635-25.446-5.635-25.446l6.575-4.781 4.867 3.244Z"/><path fill="#151416" d="M81.427 94.839c-1.28 8.539-7.6 15.541-16.053 17.59l-11.27 1.878c-1.708-.085-2.904 3.586-2.904 3.586v23.055s1.366.598 7.6-2.22c6.233-2.818 20.322-5.123 28.434-16.907 8.111-11.783 5.635-25.36 5.635-25.36l-6.66-4.781-4.782 3.159Z"/><path fill="#E57641" d="M14.227 96.547s-1.879 12.296.939 17.334c2.818 4.952 11.186 16.479 25.872 20.919l7.77 2.306s1.538.427 1.538-1.622v-16.395c.256-1.025-.427-1.964-1.452-2.22h-.085c-1.879-.427-16.992-1.708-22.372-8.624-5.38-6.916-5.55-12.808-5.55-12.808l-6.66 1.11Zm75.994 0s1.879 12.296-.939 17.334c-2.818 4.952-11.186 16.479-25.872 20.919l-7.77 2.306s-1.538.427-1.538-1.622v-16.395a1.812 1.812 0 0 1 1.452-2.22h.085c1.879-.427 16.992-1.708 22.372-8.709 5.38-6.917 5.55-12.808 5.55-12.808l6.66 1.195Z"/><path fill="#151416" d="m64.862 69.564 11.27.854c-3.073-1.11-5.72-2.989-8.709-4.27-.085 0-.341.342-.512.427.427.598 1.708.427 1.537 1.452-.17 1.025-1.025.427-1.537.427l-5.038-.427v1.452l2.989.085Zm-36.973 1.708c-2.22-1.367-4.184-.513-6.148.085v.683l6.148-.768Z"/><path fill="#151416" d="M102.517 74.09c-2.561-.171-4.867-1.452-7.343-1.537-1.793-.086-1.879-.854-2.05-2.05-1.195-.512-.682-1.622-.682-2.476V39.935c0-1.025.427-2.306-1.11-2.733l-.513.513-.17-.086c.085 10.674.085 21.433.17 32.106.086.683-.256 1.366-.939 1.537v1.708a14.234 14.234 0 0 1 7.258 1.707c-2.562.171-5.038-.427-7.258-1.707-1.11 0-1.708-.427-1.537-1.537-.683 0-1.28-.427-1.537-1.11h-1.451c-1.025-1.964-.598-4.014-.257-6.063l.257-18.87c-.598-.086-1.537.17-1.367-.854.086-.854.854-.513 1.452-.598v-4.099c-1.793.171-2.39 1.196-2.305 2.904.085 1.366-.086 2.732-.086 4.098v13.662c-1.537-2.05-5.55-4.867-5.806-4.355 1.878 1.196 3.16 2.989 3.757 5.124 1.878 1.024 2.903.512 2.903-1.708v-5.209h.512v13.491a2.8 2.8 0 0 1-1.024 2.647c.085 1.196-.427 1.623-1.623 1.537l-17.675-1.878-2.39-.086v3.074H20.63V42.411c-.17-1.366-.598-2.22-2.22-2.476l.427 27.75v1.794c.085.683-.512 1.28-1.196 1.366h-.085c-.94 0-.512-.854-.512-1.366l-.256-13.662h-1.794c-.426 4.44-.085 8.88-.085 13.32 0 1.025.256 2.135-1.195 2.391h-.684c-.256-.342-.341-.683-.426-1.11 0-10.93.085-21.945.17-32.874l-1.878-1.964v34.411c0 1.366-.085 2.05-1.793 2.22-2.306.342-4.611.854-6.831 1.623C.48 74.346-.46 75.2.223 77.42c1.794 5.72 3.245 11.612 4.782 17.333.854 3.33 1.025 3.416 4.355 2.733 1.366-.256 1.708-.086 1.708 1.366.17 5.038 1.537 2.22 1.622-1.537 0-.256.342-.512.512-.854h.513c.512-.085 1.024-.427 1.622 0 .768.17.94.598.94 1.28v10.418c.085.512-.342 1.025-.855 1.11.513 4.099.769 4.355 3.758 3.928.341 1.793-1.538 3.757.597 5.294l.512-.512c.769-.854 1.196 0 1.623.341 1.878 1.708 3.245 4.526 6.575 3.33.683-.085 1.622-.854 1.366.939-.683 4.441-.598 4.526 3.33 6.661 1.537.854 3.16 1.707 4.696 2.476 2.477 1.195 3.16.854 4.013-1.793.513-1.537.086-3.501 1.708-4.696.256 1.366.256 2.732.17 4.098 0 .342-.085.683-.085 1.025 0 4.098 0 4.098 4.184 4.867l.342-.939v-15.285l-.341-.427-.854-.17a1.48 1.48 0 0 1-1.196-.257c-.17 0-.341-.085-.512-.17-1.879-.342-3.928-1.367-5.721-1.025-2.05.342-1.793 3.245-3.586 4.952l.939-4.354c.17-.854.17-1.367-.854-1.793-2.22-.769-4.44-1.623-6.66-2.391.256 1.195-.427 2.391-1.622 2.732-.854.427-.854-.341-1.025-.854-3.416.513 0-1.793-.94-2.391-.597-.341-.512-1.024-.512-1.537-1.11 0-2.134-.256-2.305-1.366-.17-1.11.94-.597 1.451-.768a27.447 27.447 0 0 1-4.525-9.734c-1.11 1.366-.342 2.732-1.195 4.611-.257-3.331-1.196-5.807-1.025-8.54-.513-.853-.427-1.963.598-1.792 1.622.256 3.073-.769 4.781-.513a3.534 3.534 0 0 1-2.561 1.794c.854 3.159 1.28 6.403 2.988 9.221.256-.939.342-1.878 1.537-2.22-1.11-2.05-1.793-4.355-2.135-6.66-.341-1.622 1.794-.256 2.391-1.11 0-.598.086-1.11.086-1.708h-.086c-.512.086-1.024.769-1.451 0-.086-.17-.086-.427 0-.683.512-.512 1.024-.341 1.366.171l6.49-.683c.597 0 1.793-.085.682 1.11-.597.768 0 1.11.427 1.537h.598c.427 2.647 1.366 5.294.427 8.026.085 1.452.427 2.903 1.11 4.184 1.879-1.11 4.013-.939 6.148-.939a234.81 234.81 0 0 1 21.944 0c2.135-.683 4.782 1.11 6.66-1.281.171.342.171.683.257 1.11.768.342.768 1.025.768 1.708 1.367-1.366.513-3.33.854-4.867.427-1.879.683-3.843.683-5.806-.085-1.708 1.11-2.391 2.647-2.306a50.65 50.65 0 0 1 5.209.769c1.366.256.768 1.366.598 2.049-.94 4.696-2.733 9.051-6.575 12.21 2.988.086 3.33-3.159 5.38-4.525.17 1.195-1.11 1.878-.77 2.903 2.733-2.733 2.904-6.575 4.356-9.82.341-.768-.513-2.305 1.707-1.964 2.135.342 1.196 1.367 1.11 2.477v1.793c1.366.683 1.366 1.366 0 2.049l-.256 2.562c-.854.17-.683-.598-.768-.94-.171-.341-.513-1.024-1.025-1.024-.513 0-.683.683-.854 1.11-.854 2.561-2.305 4.781-4.184 6.745-.768.769-1.025 1.964-.598 3.074.257.854.427 1.708.427 2.647-2.22-3.927-4.61-1.707-7.343-1.11-4.27 1.025-4.782 3.245-3.586 6.831-.171-.256-.427-.512-.598-.768-2.22-4.013-2.22-4.013-6.916-2.733-.513.086-.94.086-1.452.086v.341c-.341.427-.598.513-.94 0l-.17-.17-.94.17-.512.513v15.369c.513 0 1.025.256 1.196.769l.94-.342.768-.427c2.049.086 1.622-1.366 1.537-2.561l-.427.854c-.769-2.904-.513-6.404.597-7.6 1.794 1.622 1.367 4.013 1.964 6.063.513 1.537.94 1.878 2.391 1.11 2.476-1.367 4.867-2.733 7.429-3.843 2.134-.939 2.988-2.305 2.134-4.611a10.593 10.593 0 0 1-.256-2.305c1.366.256 1.793 1.195 2.22 2.305.257.683.683 1.879 1.537.854 1.794-1.964 4.27-3.159 5.892-5.379a6.707 6.707 0 0 0 .769-6.575c3.073 2.391 3.415.171 3.842-1.622.17-1.11.256-2.135.256-3.245-.683-.598-.854-1.622-.256-2.305l.256-.257v-4.611a2.83 2.83 0 0 1 0-3.586c.854-.683 1.879-.94 1.879.512l1.707 1.025c0-1.195.427-.427.684-.085.085-1.025.683-1.367 1.536-.94 2.904 1.196 3.758-.683 4.355-2.903l4.27-15.54c.256-1.11.426-2.305.341-3.501-.171-1.025-.598-1.622-1.281-1.622Zm-50.463.683c0-1.537.683-1.793 1.878-1.537 1.195.17 2.562-.598 2.39 1.537-.085 1.11 0 2.134 0 3.33 3.075-.427 3.587-4.355 6.576-4.611.085-.427.17-.769.683-.854.512 0 .768.427.854.854l1.537.341.597.684-4.952 3.5c3.074 1.196 4.44 6.49 2.732 8.283-.854.854-1.878.17-2.903.085-.94 0-.512-1.024-.683-1.537-.342-1.11 1.28-2.988-1.366-3.33-3.16-.341-3.245-.427-3.245 2.733 0 1.537-.341 2.049-1.964 1.964-1.366-.086-2.135-.171-2.05-1.879 0-3.16 0-6.319-.084-9.563Zm-11.528-1.196h4.355v-.17l3.33-.171c1.025 0 1.964-.342 1.964 1.366 0 1.451-.512 1.964-1.878 1.793h-1.025c-5.209.256-5.721 1.025-4.355 5.977.256.854.683.769 1.28.769 1.367 0 2.904 0 4.356-.086 1.11 0 1.878 0 1.878 1.537s-.597 1.623-1.793 1.623c-2.05 0-4.099 0-6.148.17a3.445 3.445 0 0 1-4.013-2.647c-.085-.341-.085-.597-.085-.939-.171-2.05.256-4.098-.427-6.233-.513-1.537.512-2.903 2.561-2.989ZM5.091 75.371c0 .512.256 1.195-.342 1.536-.598.342-.94 0-1.195-.427-1.196.171-.854 1.025-.683 1.708.256 1.025.512 1.964.597 2.989-3.16-3.757-1.878-6.319 3.245-7.087 2.305-.427 4.526-1.367 7.002-.684L7.31 74.602c-.427 1.195-1.537.256-2.22.769Zm16.223 13.832c-.94-.085-2.305 1.537-2.903-.427a3.426 3.426 0 0 1-.256-1.28c0-2.391-1.196-2.477-3.245-2.05-2.22.427-2.476 1.452-1.708 3.245.598 1.451.427 2.22-1.451 2.818-1.879.597-2.22-.427-2.562-1.794-.768-3.5-2.305-6.83-2.476-10.588-.512-.341-1.366-.853-.683-1.195.854-.427 1.025-1.793 1.964-1.708.939.086 1.11 1.11 1.195 1.879 1.879 0 1.623 1.622 1.964 2.732.342 1.11.17 2.562 2.135 1.793 1.451-.512 4.013.171 3.159-2.903-.256-1.11-1.537-2.732 1.025-3.16 1.878-.255 2.903-.426 2.988 2.05.256 3.074.769 6.148 1.708 9.051.342 1.366-.085 1.623-.854 1.537Zm11.954-1.793c-2.049.17-4.013.512-6.062.854-1.537.427-3.16-.512-3.586-2.05-.086-.256-.086-.597-.086-.853-.256-2.22-.598-4.44-1.11-6.66-.512-1.11.085-2.477 1.196-2.904.256-.085.512-.17.768-.17 3.074-.683 6.148-1.11 9.307-1.367 1.196-.17 2.306.683 2.477 1.879v.256l.512 6.233c.256 4.184.085 4.44-3.416 4.782Zm1.708 15.797c-.085-.171-.17-.257-.17-.427 0-.256.085-.513.17-.769.17.171.342.256.256.342-.085.256-.17.597-.256.854ZM47.7 100.56c-.256 1.11-.598 1.537-1.793 1.622-.854.171-1.794-.427-1.964-1.281v-.171c-.171-.854-.513-1.537-.769-2.39h-.427c-.17.939-.427 1.878-.512 2.903-.085.939-.94 1.11-1.879 1.281-.853.17-1.366-.171-1.622-1.025-1.024-2.647-2.135-5.294-3.245-8.026 1.794-1.11 2.904-.684 3.416 1.366.341 1.195.854 2.39 1.366 3.928.598-1.537 1.025-3.074 1.11-4.697.17-.768.342-1.451 1.366-1.537 1.11-.085 1.11.598 1.366 1.281.427 1.366.94 2.818 1.623 5.038.512-2.22 1.025-3.672 1.195-5.123.171-1.452 1.196-1.537 2.22-1.367 1.537.257.513 1.281.427 1.879-.768 2.135-1.451 4.184-1.878 6.319Zm1.878 2.049c0-.256-.17-.512-.17-.769.853-2.732 1.793-5.464 2.647-8.368.341-1.195 1.195-1.195 2.134-1.195.94 0 1.708.17 2.05 1.366.683 2.733 1.536 5.465 2.476 8.795-3.245-.768-6.148-2.305-9.137.171Zm16.48-6.319c-1.11 1.537-2.562 2.989-2.22 5.124.085.683-.17 1.195-1.025 1.11-.768-.171-1.707.085-1.537-.854.598-3.672-1.878-6.063-3.33-8.966 1.281-.768 2.989-.256 3.757 1.025.086.085.086.17.171.256.683-.427 1.622-.427 2.22.085 1.195-.683 2.305-1.878 4.013-.683-.341 1.025-1.366 1.793-2.049 2.903Zm4.782-.854-.598 5.721h-.683c0-2.476.256-4.952.854-7.343.17-2.818 1.878-3.415 5.38-1.622-2.306.341-5.636-.94-4.953 3.244Zm8.88-18.187c-.17 1.537-.94 1.195-1.879 1.11-1.793-.256-3.5-.427-5.294-.683-.768-.085-1.11.085-1.195.854-.085.768.427.854.94.939 1.536.256 2.988.342 4.44.769.853.256 1.536.17 1.28 1.28-.17.854-.085 1.879-1.537 1.708-1.11-.085-2.22.256-3.415-.427-.683-.427-2.22-.341-2.391.683-.256 1.196 1.11.683 1.793 1.025 1.537.768 3.33.17 4.953.854.768.341 1.451.341 1.195 1.366-.256 1.024-.512 1.793-1.793 1.622l-9.307-1.195c-2.306-.342 0-2.391-1.11-2.989-.257-2.903.768-5.465.512-8.197-.085-1.025.598-1.964 2.135-1.793 3.073.512 6.233.854 9.307 1.196 1.451-.086 1.366.683 1.366 1.878Zm5.038-4.782c.341 0 .854 0 .768.598 0 .085-.085.17-.17.17-.598 0-.598-.34-.598-.768l-.256-.085.256.085Zm7.087 11.784a5.85 5.85 0 0 0-2.647 4.098c-.085.769.17 2.477-1.793 1.708-1.11-.427-2.733 0-2.22-2.305.683-2.904-.427-5.465-1.879-7.941-.768-1.281-1.366-2.733-2.05-4.099 4.697-.683 5.893 2.732 7.173 6.148 1.708-1.366 3.16-2.903 4.953-3.672 1.11-.427 2.732.513 4.44 1.025-2.05 1.878-3.928 3.586-5.977 5.038Zm9.222-4.44c0 1.707 0 3.5-1.708 4.61.342-1.622 0-3.33 1.11-4.781.171-1.452 1.195-3.074-1.28-4.27 2.988.513 3.244 1.281 1.878 4.44Zm-57.21-10.418-5.464.171-8.198.598v.683c3.245.085 6.575-.17 9.82-.683l6.404-.171H56.75l5.123.17v-.511h-1.452c-5.635-.854-11.185-.854-16.565-.257Z"/><path fill="#1C191B" d="m45.479 15.513 2.903-.341a7.966 7.966 0 0 0 7.343 0c6.575.94 13.235 1.622 19.725 4.184l-2.306 1.878c-2.476-.768-5.037-1.537-7.514-2.134-11.612-2.818-23.908-2.05-35.094 2.305l-2.561-2.05c5.294-1.536 10.16-3.244 15.455-3.585.854.939 1.537 1.195 2.049-.257Z"/><path fill="#19181A" d="M72.12 22.6c-.257.768-.94 1.366-1.708 1.622l-7.856-1.964c-9.734-2.05-19.81-1.28-29.117 2.306-.854-.342-1.537-.854-2.05-1.623.342-.256.684-.427 1.11-.598 12.894-4.44 26.812-4.354 39.62.257Z"/><path fill="#1C191B" d="M68.96 25.333c-.939 1.537-2.903 2.134-4.525 1.451-8.283-2.22-17.078-2.22-25.275.086-1.964.512-3.415.256-4.525-1.537a57.405 57.405 0 0 1 34.325 0Z"/><path fill="#DD7340" d="M72.12 22.6c-12.808-4.526-26.727-4.697-39.62-.342-.427.17-.768.341-1.11.598l-.854-1.367c11.186-4.354 23.396-5.208 35.094-2.305l7.514 2.135-1.024 1.28Z"/><path fill="#181617" d="M88.258 71.527c-.683 0-1.281-.427-1.537-1.11l.17-8.624c.513-7.258.513-14.516.171-21.774l-.256-.768a3.931 3.931 0 0 1 2.306-.769v.94c-.427.854-.513 1.793-.342 2.732v28.861l-.512.512Z"/><path fill="#DD7340" d="M68.96 25.333a57.405 57.405 0 0 0-34.325 0l-1.11-.769c9.307-3.5 19.382-4.355 29.117-2.305l7.855 1.963c-.427.513-.94.94-1.537 1.11Z"/><path fill="#E57641" d="m18.41 39.935.427 27.75v1.794c.086.683-.512 1.28-1.195 1.366h-.085c-.94 0-.513-.854-.513-1.366l-.256-13.662V40.533c0-.342.085-.769.17-1.11.513-.086 1.026.17 1.453.512Z"/><path fill="#DD7340" d="M14.995 55.646c-.427 4.526-.17 8.966-.17 13.491 0 1.025.255 2.135-1.196 2.391-.171-.683-.256-1.28-.342-1.964V38.056l1.622.598v1.366c-.17 4.953-.256 9.905 0 14.858.086.17.086.427.086.768Zm74.201-16.223v-.94l1.367-.768c.085 10.673.085 21.432.17 32.105a1.273 1.273 0 0 1-.939 1.537l-.512-.341c-.086-10.503-.086-21.09-.086-31.593Z"/><path fill="#EA7944" d="m86.976 61.793-.17 8.624h-1.452l-.256-6.063c.085-6.318.17-12.637.256-18.87v-1.452a12.5 12.5 0 0 0 .256-4.354l1.28-.342.257.768-.17 21.689Z"/><path fill="#0C0E13" d="M93.125 70.501c-1.195-.512-.683-1.622-.683-2.476V39.933c0-1.025.427-2.306-1.11-2.733l1.622-2.22c.769.684.342 1.452.342 2.135-.086 0-.17 33.386-.17 33.386Z"/><path fill="#1C191B" d="M21.485 37.201c.427.513 1.196.598 1.623.171 0 0 .085 0 .085-.085l.512.512c-.426 1.28.257 1.708 2.391 1.537a10.251 10.251 0 0 0 4.014 2.476c1.024 1.366 2.903 1.537 4.098 2.647v1.11l-15.882-7.685c1.11-.341 2.391.598 3.16-.683Z"/><path fill="#0C0E13" d="M14.995 55.646v-.854c.854-.17.94-.854.94-1.537V41.386c0-.768-.171-1.366-1.025-1.452v-1.366l1.537.513c0 .427 0 .939.342 1.28v15.285h-1.794Z"/><path fill="#181719" d="M48.467 37.627c.94-1.707 1.964-3.33 3.245-4.781 1.793 1.195 2.561 3.074 4.013 4.525l.427 1.025c-.598 0-1.196 0-1.537.598l-1.793-2.562c-.342-.512-.684-.94-1.196-.085l-1.024 1.024-1.196.769-.94-.513Z"/><path fill="#1C191B" d="M13.287 37.97v31.507c.085.683.17 1.367.341 1.964h-.683V37.8c.086 0 .256.085.342.17Z"/><path fill="#0C0E13" d="M12.86 37.799V71.44c-.17-.341-.511-.768-.511-1.11 0-10.93.085-21.944.17-32.874l.342.342Zm20.835 9.221c.427.342.684.854.854 1.367l-3.16 3.244c-1.45 0-2.646 1.11-2.731 2.477h-1.452l-.17-.086c1.963-2.561 4.183-4.952 6.66-7.002Zm58.661 59.515v-8.026c0-1.196.427-.427.769-.085a32.288 32.288 0 0 1-.769 8.111Z"/><path fill="#181617" d="M78.181 55.132a1.794 1.794 0 0 0-1.11 1.11c-1.28-.597-2.476-1.536-3.33-2.646.171-.513.683-.94 1.281-.94"/><path fill="#0C0E13" d="M55.724 15.256a7.966 7.966 0 0 1-7.343 0 26.435 26.435 0 0 1 7.343 0Z"/><path fill="#181719" d="M44.539 44.97c-.427.086-.94-.17-1.11-.597.085-1.196 2.049-1.537 1.195-3.16l.256-.512c1.025.598 1.196-.512 1.793-.854l.598 1.28-2.732 3.843Zm2.22-5.038.256-1.024v-.427c.768.17.94-.513 1.452-.854l.853.512c-.512.683-.597 1.537-.427 2.306l-1.537.768-.597-1.28Z"/><path fill="#0C0E13" d="M34.207 45.57v-1.111a2.37 2.37 0 0 0 1.537 0l-.086.085v1.025c-.512.342-.853 1.11-1.622 1.025.085-.342.17-.683.17-1.025Z"/><path fill="#19181A" d="M40.356 47.617c-.086.427.17 1.281-.513 1.11-.854-.17-.341-1.11-.512-1.707l1.025.597Z"/><path fill="#0C0E13" d="M45.478 15.514c-.427 1.366-1.195 1.195-2.05.341l.684-.17c.427-.086.854-.171 1.366-.171Z"/><path fill="#181617" d="M85.61 39.592c.085 1.451 0 2.988-.341 4.44v-4.099a.666.666 0 0 1 .341-.341Z"/><path fill="#151416" d="M33.439 45.568 19.349 61.28l.855 9.564 26.043-8.539-4.44-2.476 14.6-5.806-12.551-4.611 13.833-8.197-6.063-8.71L39.843 47.36 18.667 36.43l-.513 1.025 15.711 8.112h-.426Z"/><path fill="#1C191B" d="M38.306 46.51c-.94.768-.94 0-1.025-.598l1.025.598Z"/><path fill="#19181A" d="M16.788 40.36c-.427-.34-.342-.853-.342-1.28l.513.256-.171 1.025Z"/><path fill="#1C191B" d="M45.137 37.371h.854c.17 0 .256.17.17.342l-.427.427c-.256-.257-.768-.086-.597-.769Zm1.878 1.025v.427l-.512-.427c.085-.086.256-.257.341-.427a.648.648 0 0 1 .171.427Z"/><path fill="#1C191B" d="m46.417 38.395-.683-.341.427-.427.513.341a.47.47 0 0 1-.257.427Z"/><path fill="#0C0E13" d="m91.246 37.201-.513.598.513-.598Z"/><path fill="#181617" d="m56.152 41.897-1.622-2.903c.341-.683.939-.598 1.537-.598.085 0 .17 0 .256-.086-.256 1.452 1.024 1.964 1.793 2.733v.94l3.586 5.379c0 1.11.683 2.134 1.793 2.561 1.367.769 1.623-.768 2.391-1.366 1.964-1.366.854 1.366 1.793 1.537-.085 1.025-1.537 1.708-.854 2.989l4.184 8.026c.854 1.878 2.904 2.903 4.953 2.476a29.592 29.592 0 0 0 4.696-2.22c1.879 1.025 2.903.512 2.903-1.708V54.45h.513v13.49a2.8 2.8 0 0 1-1.025 2.648l-1.622.598c-1.793-.257-3.672.256-5.38-.684-3.074-1.11-5.72-2.988-8.71-4.269-.085 0-.34.342-.512.427l-1.451-.683c-.342-1.025-.854-1.793-2.05-1.025-2.988-.854-5.379-3.074-8.367-3.927-1.623-.513-1.879-1.623-.086-2.733 2.306-1.28 4.44-2.818 6.404-4.525l-8.794-3.758 5.891-4.183"/><path fill="#151416" d="M36.769 82.542c.17 4.27-.085 4.44-3.501 4.782l-6.063.854c-1.536.427-3.159-.513-3.586-2.05-.085-.256-.085-.597-.085-.853-.256-2.22-.598-4.44-1.11-6.66-.513-1.11.085-2.477 1.195-2.904.256-.085.512-.17.769-.17 3.074-.684 6.148-1.11 9.307-1.367 1.195-.17 2.305.683 2.476 1.879v.256l.598 6.233Zm-7.429 2.306c1.537-.683 4.184.17 3.33-2.733-.512-1.537 1.11-4.355-2.049-4.355-1.11 0-4.013-.939-3.33 2.135.341 1.793-.683 4.44 2.05 4.953Zm37.058-.94c-.256-2.903.769-5.464.513-8.197-.086-1.024.597-1.964 2.134-1.707l9.307 1.11c1.367.17 1.367.939 1.367 2.049-.171 1.537-.94 1.195-1.879 1.11l-5.294-.683c-.768-.086-1.11.085-1.195.854-.086.768.427.853.939.939 1.451.256 2.988.342 4.44.768.854.257 1.451.171 1.195 1.281-.17.854-.085 1.879-1.537 1.793-1.11-.085-2.22.257-3.415-.427-.683-.427-2.22-.341-2.39.598-.257 1.196 1.11.683 1.792 1.025 1.537.768 3.33.256 4.953.854.854.341 1.451.341 1.195 1.366-.256 1.024-.512 1.793-1.793 1.622l-9.307-1.195c-2.306-.513 0-2.562-1.025-3.16Zm-2.049-10.417 1.622.342.598.683-4.953 3.5c3.074 1.196 4.44 6.49 2.733 8.283-.854.854-1.879.171-2.903.086-.94 0-.513-1.025-.683-1.537-.342-1.11 1.28-2.989-1.367-3.33-3.159-.342-3.245-.427-3.245 2.732 0 1.537-.34 2.05-1.963 1.964-1.367-.086-2.135-.17-2.05-1.879v-9.563c0-1.537.684-1.793 1.879-1.537 1.195.17 2.561-.598 2.39 1.537-.085 1.11 0 2.135 0 3.33 3.075-.427 3.587-4.355 6.576-4.61h1.366Zm-54.99 4.696c1.879 0 1.623 1.623 1.964 2.648.342 1.11.171 2.561 2.05 1.878 1.451-.512 4.013.256 3.159-2.903-.256-1.025-1.537-2.733 1.025-3.16 1.878-.256 2.903-.427 2.988 2.135.256 3.074.769 6.148 1.708 9.051.341 1.196-.17 1.537-.854 1.366-.94-.085-2.305 1.537-2.903-.427a3.428 3.428 0 0 1-.256-1.28c0-2.391-1.196-2.477-3.245-2.05-2.305.427-2.476 1.452-1.708 3.245.598 1.452.427 2.22-1.366 2.732-1.793.513-2.305-.341-2.562-1.707-.768-3.501-2.305-6.831-2.561-10.588.854-.086 1.878-.086 2.561-.94Zm35.436-4.781 3.33-.171c1.025 0 1.964-.342 1.964 1.366 0 1.708-.512 1.964-1.878 1.793h-1.025c-5.209.171-5.721 1.025-4.355 5.977.256.854.683.854 1.281.769l4.355-.085c1.11-.086 1.878 0 1.878 1.536 0 1.537-.597 1.623-1.793 1.623l-6.148.17c-1.878.342-3.586-.853-4.013-2.647-.085-.341-.085-.597-.085-.939-.171-2.049.256-4.098-.427-6.233-.512-1.708.512-3.074 2.561-3.16h4.355Zm36.46 2.476c4.697-.683 5.892 2.732 7.173 6.148 1.708-1.366 3.16-2.989 4.952-3.672 1.11-.427 2.733.513 4.44 1.025l-6.062 4.952a5.85 5.85 0 0 0-2.647 4.099c-.085.768.17 2.476-1.793 1.708-1.11-.427-2.733 0-2.22-2.306.683-2.903-.427-5.465-1.879-7.94-.683-1.282-1.28-2.733-1.964-4.014ZM42.66 98.424l-.512 2.903c-.085.94-.94 1.11-1.878 1.281-.854.171-1.367-.171-1.623-1.025l-3.244-8.026c1.793-1.11 2.903-.683 3.415 1.366.342 1.196.854 2.391 1.366 3.843.598-1.537 1.025-3.074 1.11-4.697.171-.768.342-1.451 1.366-1.537 1.11-.085 1.11.598 1.367 1.281l1.622 5.038 1.195-5.123c.171-1.537 1.196-1.537 2.22-1.366 1.537.256.513 1.28.427 1.878l-1.622 6.404c-.256 1.11-.598 1.537-1.793 1.623-.854.17-1.793-.427-1.964-1.281v-.171c-.17-.854-.512-1.537-.769-2.39h-.683Zm6.746 3.416 2.647-8.368c.342-1.281 1.195-1.196 2.135-1.196.939 0 1.707.171 2.049 1.367l2.476 8.794c-3.16-.768-6.148-2.305-9.05.171l-.257-.768Zm14.601-7.856c1.196-.683 2.306-1.878 4.013-.683-.256 1.11-1.195 1.879-1.878 2.903-1.11 1.537-2.562 2.989-2.22 5.123.085.683-.171 1.196-1.025 1.11-.768-.17-1.707.086-1.537-.854.598-3.671-1.878-6.062-3.33-8.965 1.28-.769 2.989-.256 3.757 1.025.086.085.086.17.17.256.257.768.428 1.622 1.196 2.049.427-.427.854-1.195.854-1.964Z"/><path fill="#0C0E13" d="M34.805 107.731c-2.306.341-2.305-1.537-2.476-2.903l-1.025-8.454c-.17-2.22-1.024-2.561-2.818-2.39l-3.33.256c0-.598.086-1.11.086-1.708.512.427 1.28.512 1.878.256 1.708-.512 3.416-.598 5.209-.341-.683.683 0 1.11.427 1.536v.513a16.104 16.104 0 0 0 1.024 7.514c.086 1.451.427 2.903 1.11 4.184-.426.427-.427 1.025-.085 1.537Z"/><path fill="#181617" d="m61.275 53.594-9.051 6.319 16.053 8.112s-32.96-2.306-46.621 2.988l63.869 3.245-3.33-7.77-16.907-14.345-4.013 1.451Zm-33.13 67.968a6.18 6.18 0 0 1-.342 1.196c-.939 2.561-1.195 2.647-3.244.939-1.794-1.281-3.33-2.818-4.697-4.526v-1.109c.769-.854 1.196 0 1.623.341 1.964 1.537 3.33 4.355 6.66 3.159Z"/><path fill="#DD7340" d="M76.047 70.416c1.707.94 3.586.427 5.379.684l.17.939-17.418-1.964.597-.513 11.272.854Z"/><path fill="#BA673F" d="M56.75 69.904H46.417c-.769-.683-1.794-.17-2.648-.512a76.74 76.74 0 0 1 16.566 0c-1.11.341-2.477-.342-3.587.512Z"/><path fill="#0C0E13" d="m15.08 109.182-.085-12.723c.769.085.94.598.94 1.28v10.418c0 .512-.342.939-.854 1.025Z"/><path fill="#EA7944" d="M40.867 105.17a235.493 235.493 0 0 1 21.945 0v.854c-6.746-.427-13.492-.598-20.322-.341-.513-.086-1.196.085-1.623-.513Z"/><path fill="#DD7340" d="M62.813 106.109v-.854c2.134-.683 4.781 1.11 6.66-1.28.17.341.17.683.256 1.11l-.854.939c-1.964 1.452-4.099.085-6.063.085Z"/><path fill="#0C0E13" d="m20.375 95.008-2.904.513c-.512-.854-.427-1.964.598-1.793 1.623.256 3.074-.769 4.782-.513-.512 1.025-1.366 1.623-2.476 1.793Z"/><path fill="#BA673F" d="M40.014 70.076c-3.245.598-6.49.769-9.82.683v-.683l8.198-.597c.426.597 1.11.426 1.622.597Z"/><path fill="#DD7340" d="M89.88 73.065c2.562-.086 5.038.512 7.343 1.707a12.825 12.825 0 0 1-7.343-1.707Z"/><path fill="#BA673F" d="M33.695 101.925a18.66 18.66 0 0 1-1.024-7.514l.512-.513c.512 2.733 1.452 5.294.512 8.027Z"/><path fill="#0C0E13" d="m60.678 124.979-.17 6.745-.428.854c-.768-2.818-.512-6.404.598-7.599Z"/><path fill="#181617" d="M9.36 78.188c-.597.854-1.622.854-2.561.94-.513-.342-1.367-.854-.683-1.196.683-.341 1.024-1.793 1.963-1.708.94.086 1.025 1.11 1.281 1.964Z"/><path fill="#0C0E13" d="M13.202 109.267a.544.544 0 0 1 0 .512c-.513-.085-.94-.512-.854-1.11V97.313c0-.256.341-.513.512-.854.17 4.269-.427 8.539.342 12.808Z"/><path fill="#E57641" d="M32.329 92.362c-1.708-.256-3.501-.171-5.209.341-.598.256-1.366.171-1.878-.256h-.086v-.427l6.49-.683c.597-.085 1.793-.17.683 1.025Z"/><path fill="#BA673F" d="M21.655 71.355c1.964-.598 4.013-1.366 6.148-.085l-6.148.854v-.769Z"/><path fill="#4E362A" d="M13.203 109.268c-.854-4.27-.171-8.454-.342-12.723h.512c0 4.269-.085 8.453-.17 12.723Z"/><path fill="#DD7340" d="M70.412 93.814c.17-2.818 1.879-3.415 5.38-1.622-2.22.341-5.55-.94-4.868 3.244-.597-.427-.427-1.024-.512-1.622Z"/><path fill="#BA673F" d="M70.412 93.813c.17.512 0 1.195.512 1.622l-.598 5.721h-.683a26.53 26.53 0 0 1 .769-7.344Z"/><path fill="#1C191B" d="M101.065 79.81c0 1.707 0 3.5-1.708 4.61.342-1.622 0-3.33 1.11-4.781l.598.17Z"/><path fill="#BA673F" d="M40.868 105.17c.427.598 1.11.341 1.622.512-2.562.513-5.123.683-7.77.427 2.049-1.11 4.098-.854 6.148-.939Z"/><path fill="#181617" d="M26.523 115.158c.683-.854 1.195-1.964 2.561-1.793.256 1.196-.427 2.391-1.622 2.733-.769.341-.769-.427-.94-.94Z"/><path fill="#EA7944" d="M40.014 70.076c-.512-.171-1.196 0-1.622-.513l5.464-.17c.854.341 1.879-.257 2.562.512l-6.404.17Zm16.736-.171c1.11-.854 2.476-.085 3.586-.512l4.44.17-.597.513-7.43-.171Z"/><path fill="#181617" d="m24.303 109.184.854.939v1.11c-1.11 0-2.135-.256-2.306-1.366-.17-1.025.854-.513 1.452-.683Z"/><path fill="#181719" d="M64.007 93.984c-.085.768-.427 1.537-1.025 1.964-.853-.427-.939-1.367-1.195-2.05.683-.427 1.537-.427 2.22.086Z"/><path fill="#181617" d="m85.098 64.44.256 6.062c-1.11-2.05-.597-4.013-.256-6.063Z"/><path fill="#0C0E13" d="m89.282 71.016.513.341v1.708c-1.11 0-1.708-.342-1.623-1.537l.598-.512h.512Z"/><path fill="#181617" d="M85.354 44.031v1.452c-.597-.085-1.537.17-1.366-.854 0-.854.769-.512 1.366-.598ZM3.64 76.478c.341-.597.854-1.024 1.537-1.11 0 .513.256 1.196-.342 1.537-.683.342-.94 0-1.195-.427Z"/><path fill="#0C0E13" d="m81.598 71.954-.171-.854 1.793-.598c.085 1.195-.427 1.622-1.622 1.452ZM25.07 92.02v.427c-.512.085-1.024.768-1.451 0-.086-.171-.086-.428 0-.684.683-.512 1.11-.341 1.451.257Z"/><path fill="#1C191B" d="M43.43 129.247c-.342-1.366-.342-2.732-.171-4.099.256 1.367.256 2.733.17 4.099Z"/><path fill="#181617" d="M85.781 101.583v-2.05c1.366.683 1.366 1.366 0 2.05Zm-16.992 4.354.854-.939c.768.342.768 1.025.768 1.708-.512-.086-1.28 0-1.622-.769Z"/><path fill="#19181A" d="M27.206 54.193h1.537l.256 1.196c-1.025.17-2.135.427-1.793-1.196Z"/><path fill="#0C0E13" d="M25.07 111.233v-1.11c1.282.683 1.11 1.622.428 2.646-.513-.341-.427-.939-.427-1.536Zm63.785-14.26v3.586a2.83 2.83 0 0 1 0-3.586ZM64.349 73.49h-1.537c.085-.427.17-.768.683-.853.512 0 .768.341.854.853Zm24.506 31.679v2.562c-.683-.598-.854-1.623-.256-2.391.085 0 .17-.086.256-.171Zm-53.88-3.245c.171.171.342.257.257.342-.086.256-.171.598-.256.854-.086-.171-.171-.256-.171-.427 0-.256.085-.512.17-.769Zm22.372 33.045c-.768.342-1.366.427-1.195-.768.512 0 1.024.341 1.195.768Zm27.41-62.503c.34 0 .853 0 .768.597 0 .086-.086.171-.17.171-.599 0-.599-.341-.599-.768Z"/><path fill="#1C191B" d="M35.744 44.63c.598-.171.769.427 1.025.768l-.94.17-.085-.938Z"/><path fill="#0C0E13" d="M19.948 117.891v1.11l-.512-.598.512-.512Z"/><path fill="#1C191B" d="m45.563 118.062 1.196.257c-.513.17-.94 0-1.196-.257Z"/><path fill="#181617" d="m57.603 118.235 1.11-.256v.341h-.939l-.17-.085Z"/><path fill="#0C0E13" d="M57.773 118.49h.94c-.257.342-.598.513-.94 0Z"/><path fill="#1C191B" d="M47.869 134.287c0 .342.256.769-.342.939l.342-.939Z"/><path fill="#0C0E13" d="m84.757 72.468-.256-.171.256.17Zm-28.605 46.45c0-.341.171-.512.513-.512l-.513.512Z"/><path fill="#1C191B" d="M47.527 118.49c.256 0 .427.171.342.427-.17-.171-.256-.256-.342-.427Z"/><path fill="#0C0E13" d="m58.97 134.287-.769.427.769-.427Z"/><path fill="#181719" d="m33.268 93.982-.512.513v-.513h.512Z"/><path fill="#1C191B" d="m41.977 135.397.684.342-.684-.342Zm-9.734-22.713-.598-.341.598.341Zm10.161 2.989-.683-.256.683.256Zm12.21 21.09.598.427-.597-.427ZM44.967 116.1l-.598-.171.598.171Zm-17.76 11.612.512.427-.513-.427Zm32.19-11.783-.683.256.683-.256ZM74.083 27.98c.085-.17.256-.256.341-.341l-.341.341ZM12.86 32.762l.513-1.11c1.195 1.11 3.415.94 3.927 2.988l-4.44-1.878Z"/><path fill="#181617" d="M13.373 31.225c.085-1.196 1.025-2.22 2.22-2.391l-2.22 2.39Z"/><path fill="#4E362A" d="M89.282 71.015h-.427v-28.86c-.17-.94-.085-1.88.341-2.733 0 10.503.086 21.09.086 31.593Z"/><path fill="#1C191B" d="M86.977 61.793c.085-7.258.085-14.516.17-21.773.342 7.257.256 14.515-.17 21.773Z"/><path fill="#151416" d="M14.825 39.85c.854.085 1.024.683 1.024 1.451V53.17c0 .683-.17 1.366-.939 1.537-.256-4.867-.17-9.905-.085-14.857Z"/><path fill="#6A6567" d="M23.705 37.799c.94.17 1.878.683 2.39 1.451-2.134.257-2.817-.085-2.39-1.451Z"/><path fill="#F2F1F2" d="M51.627 40.362c.94.597 1.708 1.537 2.134 2.561-1.878-.17-3.586-1.11-4.867-2.476-.17-.769-.085-1.622.427-2.305l1.196-.769v1.964c.085.598.512 1.025 1.11 1.025Z"/><path fill="#19181A" d="M31.39 51.717c.17 1.537-1.367 1.708-2.05 2.561h-.683a2.72 2.72 0 0 1 2.733-2.561Z"/><path fill="#151416" d="M68.79 106.024c.34.768 1.024.683 1.707.768-2.05 2.306-4.696 1.025-6.831.854-8.026-.683-16.053-.683-24.08.086-1.622.171-3.244 0-4.781 0-.342-.427-.342-1.11 0-1.537 2.562.256 5.209.085 7.77-.427 6.746-.256 13.491-.086 20.322.341 1.879 0 4.014 1.367 5.892-.085Zm-3.416-40.217c-.769-.171-1.452-.427-2.05-.94 1.196-.854 1.708-.085 2.05.94Z"/><path fill="#181719" d="m58.201 41.128.769-.513c.085.171.17.256.256.342l-1.025 1.11v-.94Z"/><path fill="#1C191B" d="M29.34 84.848c-2.818-.598-1.793-3.245-2.135-4.867-.683-3.074 2.22-2.135 3.33-2.135 3.16 0 1.537 2.732 2.05 4.355.939 2.903-1.708 1.964-3.245 2.647Z"/><path fill="#151416" d="M28.657 54.193h.683c0 .427.256.94-.427 1.196l-.256-1.196Z"/><path fill="#181719" d="m58.97 40.53.597-.085-.341.513c-.085-.086-.17-.256-.256-.427Z"/><path fill="#000" d="M23.66 37.485c5.375-1.44 8.703-6.448 7.434-11.185-1.27-4.737-6.656-7.41-12.03-5.97-5.376 1.44-8.704 6.448-7.435 11.185 1.27 4.737 6.656 7.41 12.03 5.97Zm68.2-3.831c1.65-4.62-1.262-9.88-6.502-11.752-5.241-1.872-10.827.356-12.476 4.975-1.65 4.619 1.262 9.88 6.503 11.752 5.24 1.871 10.826-.356 12.475-4.975Z"/><path fill="#1C191B" d="m20.972 25.674-.512.341-.17-.17.682-.171Z"/><path fill="#EA7944" d="M23.332 37.92c4.874-1.306 8.092-5.097 7.19-8.468-.904-3.37-5.587-5.044-10.46-3.738-4.875 1.306-8.094 5.097-7.19 8.467.903 3.371 5.586 5.045 10.46 3.739Zm67.191-3.502c.72-3.51-2.776-7.195-7.81-8.229-5.036-1.034-9.702.973-10.423 4.484-.721 3.51 2.776 7.195 7.81 8.229 5.036 1.034 9.702-.973 10.423-4.484Z"/><path fill="#151416" d="M2.273 81.263c-.598-1.537-1.196-3.16-1.623-4.782l2.135-1.622 6.575-1.964 15.37-2.818 17.077-1.11h30.398l16.65 3.671 4.013-.085 9.052 2.647.683 1.366-1.964 8.368-3.33 1.366v-9.734l-54.904-1.11-40.132 5.807Z"/><path fill="#151416" d="m4.408 79.128 4.098 15.626H22.34l8.88-.854 3.33-.683 3.245 11.442 30.654 2.306 2.135-3.928.512 1.024 1.537-10.417 4.696-1.708 14.687 2.733 7.514-10.332-.769-9.563c-.256-.171-20.578-1.964-20.578-1.964l-42.95-.427L3.725 75.2l.683 3.927Z"/><path fill="#151416" d="m31.645 92.533 1.367 10.502 1.793 3.757 16.65-.597s-1.11-4.27-2.903-5.636c-1.793-1.366-14.857-9.307-14.857-9.307l-2.05 1.28Zm36.717 14.259 2.818-1.195 1.28-11.698-4.098-.17v13.063Z"/><path fill="#6A6567" d="M29.939 25.246c3.159 1.964 6.233 4.013 9.136 6.319 2.903 2.305 5.72 4.696 8.368 7.258-3.16-1.964-6.148-4.014-9.051-6.319-3.074-2.305-5.806-4.696-8.454-7.258Zm25.018 14.345c5.294-5.208 11.186-9.734 17.419-13.662-2.647 2.562-5.38 5.038-8.283 7.344a82.86 82.86 0 0 1-9.136 6.318Zm1.451 2.647a82.869 82.869 0 0 1 9.137-6.319c3.16-1.963 6.404-3.756 9.734-5.293-2.903 2.305-5.892 4.44-9.051 6.318-3.16 1.964-6.404 3.757-9.82 5.294Zm3.672 5.55a90.794 90.794 0 0 1 9.051-6.318c3.16-1.964 6.404-3.757 9.734-5.294-2.903 2.305-5.891 4.44-9.05 6.318-3.16 1.964-6.405 3.757-9.735 5.294Z"/><path fill="#000" d="M61.105 50.436a137.31 137.31 0 0 1 26.811-13.235c-4.184 2.733-8.539 5.209-13.064 7.343a130.514 130.514 0 0 1-13.748 5.892Z"/><path fill="#6A6567" d="M27.633 32.25c3.415 1.452 6.745 3.16 9.905 4.952 3.244 1.794 6.318 3.843 9.307 6.063-3.416-1.452-6.66-3.16-9.905-5.038a82.039 82.039 0 0 1-9.307-5.977Zm-6.234 4.526c3.416 1.451 6.66 3.159 9.905 4.952 3.245 1.878 6.319 3.842 9.308 6.062-3.416-1.451-6.66-3.159-9.905-4.952-3.245-1.793-6.319-3.843-9.308-6.063Z"/><path stroke="#EA7944" stroke-linecap="round" stroke-miterlimit="10" stroke-width=".3" d="M2.785 76.223c32.02-9.563 66.09-9.734 98.11-.427"/><path fill="#fff" d="m14.995 82.54 3.842-.768-.939-4.867 3.074-.597c.512-.086.768.085.854.426l2.05 12.04-2.904.512c-.512.086-.769-.085-.854-.427l-.854-4.354-3.757.768 1.025 4.867-2.903.683c-.513.086-.769 0-.854-.427L9.957 78.613c.854-.427 1.793-.769 2.732-.94.684-.17 1.11 0 1.196.513l1.11 4.355Zm17.675 5.21c-3.5.597-6.916-1.794-7.429-5.295 0-.085 0-.256-.085-.341-.683-4.099 2.05-7.002 6.062-7.429 4.014-.427 7.258 1.793 7.6 5.892.427 3.586-2.135 6.745-5.636 7.172h-.512Zm2.305-6.746c-.256-2.391-1.878-3.757-3.586-3.586-1.793.17-2.903 1.536-2.561 4.013.341 2.476 1.878 3.671 3.586 3.5 1.708-.256 2.903-1.451 2.561-3.927ZM47.1 76.307c-1.707 0-2.732 1.367-2.732 3.501.085 2.306 1.964 4.099 4.184 4.014h.17c1.11 0 2.135-.257 3.16-.684.342.427.513.94.598 1.537 0 .854-2.05 1.964-4.44 2.05-3.843.256-7.173-2.647-7.429-6.404v-.171c-.256-3.757 2.476-6.49 6.49-6.575 2.22-.256 4.354.769 5.72 2.562.171.17.257.427.257.683-.086.427-.342.768-.684.854-.853.427-1.707.597-2.561.683-.512-1.196-1.537-2.05-2.733-2.05Zm15.797 3.587c.512 1.451 1.28 2.732 2.135 3.928.256.341.683.597 1.195.683h.256c.171.427.171.939.086 1.366 0 .683-1.11 1.28-2.306 1.195a3.585 3.585 0 0 1-2.903-1.878 17.837 17.837 0 0 1-1.622-3.416l-1.11.598-.171 4.099-2.903-.086c-.513 0-.683-.17-.683-.598l.256-12.124c.94-.171 1.964-.257 2.903-.257.683 0 1.025.257 1.025.769l-.171 4.355c1.964-1.367 3.757-2.989 5.209-4.782 2.22.768 2.732 1.366 2.732 2.135-.085.256-.17.597-.342.768a15.844 15.844 0 0 1-3.586 3.245Zm9.99-2.05-.256 2.135 3.672.513c.427 0 .598.341.512.768l-.341 2.135-4.27-.598v.256c-.17 1.366 0 1.879 1.025 1.964l3.5.512c.342 0 .513.342.513.769l-.341 2.134-4.697-.683c-2.903-.341-4.098-1.878-3.757-4.952l.854-8.283 8.71 1.11c.341 0 .683.342.683.684v.17a9.01 9.01 0 0 1-.513 2.05l-5.294-.684Zm10.076 11.613c-.512-.085-.683-.341-.598-.683l.769-3.757-2.903-7.6c.854-.683 1.964-1.11 3.074-1.11.341.086.683.342.768.684l1.708 5.379a17.592 17.592 0 0 0 3.586-4.696l2.733.597c.853.171.939.598.683 1.11a27.596 27.596 0 0 1-5.892 6.32l-.94 4.354-2.988-.598Zm-37.4 11.527-1.707.086-2.05-6.831c-.341 2.22-.853 4.355-1.451 6.489-.17.427-.427.598-1.025.598l-1.707.171-4.1-9.478c.599-.513 1.282-.94 2.05-1.11.342-.086.769.085.854.512l2.39 6.66c.599-2.39 1.026-4.867 1.196-7.343l1.794-.17c.768 0 1.024.17 1.195.597l1.964 6.575a52.216 52.216 0 0 0 1.537-7.258h1.708c.853 0 1.195.341 1.11.939-.598 3.074-1.537 6.148-2.733 9.136-.085.257-.341.427-1.025.427Zm11.186 0c-.427 0-.512-.17-.683-.427l-.342-1.28h-3.073l-.513 1.707h-2.305c-.17.086-.427-.085-.427-.256v-.256l3.415-9.734c.598-.256 1.281-.427 1.964-.342.683 0 .94.171 1.11.854l3.074 9.99c-.854-.256-1.28-.256-2.22-.256Zm-3.415-4.013h1.878l-.854-3.16-1.024 3.16Zm8.965 4.269c-.341 0-.512-.17-.512-.512l.256-3.16-2.818-5.976c.598-.683 1.367-1.11 2.22-1.196.257 0 .513.171.598.513l1.708 4.184a16.444 16.444 0 0 0 2.22-4.184l2.135.17c.597 0 .768.342.597.854a20.215 20.215 0 0 1-3.842 5.807l-.342 3.671-2.22-.171Z"/><path fill="#E57641" d="m35.574 47.107 5.465 8.368-15.626 4.355 10.161-12.723Z"/><path fill="#181617" d="m64.69 50.094 4.014-5.037 14.6 15.37-.34 3.756-14.858-4.269c-.342-.17-3.416-9.82-3.416-9.82Z"/><path fill="#DD7340" d="m43.087 50.608-1.11-.598 14.174-8.71-5.379-6.403-12.04 14.345 1.708 2.903 2.647-1.537Z"/><path fill="#EA7944" d="m68.362 46.424 14.004 15.028v5.977L62.3 57.353"/></g><defs><clipPath id="a"><path fill="#fff" d="M0 0h103v155H0z"/></clipPath></defs></svg>