<?xml version="1.0" encoding="utf-8"?>
<!-- Generator: Adobe Illustrator 22.1.0, SVG Export Plug-In . SVG Version: 6.00 Build 0)  -->
<svg version="1.1" id="Слой_1" xmlns="http://www.w3.org/2000/svg" xmlns:xlink="http://www.w3.org/1999/xlink" x="0px" y="0px"
	 viewBox="0 0 814 239.4" style="enable-background:new 0 0 814 239.4;" xml:space="preserve">
<style type="text/css">
	.st0{fill:#4BB4DD;}
</style>
<g>
	<g>
		<path class="st0" d="M140.8,235.2c0-78.1,0-156.1,0-234.2c0.4,0.2,0.7,0.4,1,0.6c19.2,12.4,38.5,24.7,57.7,37.1
			c0.8,0.5,1.1,1.1,1.1,2c0,64.3,0,128.7,0,193c0,1.5,0,1.5-1.5,1.5c-18.9,0-37.9,0-56.8,0C141.7,235.2,141.3,235.2,140.8,235.2z"/>
		<path class="st0" d="M89.6,68.2c0-11.7,0-23.2,0-34.7c1.4,0,2.8,0,4.2,0c0,67.4,0,134.8,0,202.3c-11.4,0-22.8,0-34.5,0
			c-0.1-62.4-0.2-124.7-0.3-187.2C69.3,55.1,79.4,61.6,89.6,68.2z"/>
		<path class="st0" d="M323.1,198.2c-1,0-1.8,0-2.6,0c-3,0-6.1,0-9.1,0c-0.8,0-1.2-0.3-1.4-1.1c-5-15.4-10-30.8-14.9-46.3
			c-0.4-1.1-0.8-1.5-2-1.5c-3.1,0.1-6.1,0.1-9.2,0c-1.1,0-1.4,0.4-1.4,1.4c0,15.2,0,30.5,0,45.7c0,1.8,0.2,1.7-1.7,1.7
			c-3.1,0-6.3,0-9.4,0c-1.1,0-1.4-0.3-1.4-1.4c0-30.7,0-61.4,0-92.1c0-5.4,0-10.8,0-16.2c0-0.4,0-0.8,0.1-1.3c0.4,0,0.7,0,1.1,0
			c8,0,16,0,23.9,0c4,0,8,0.6,11.7,2.2c6.3,2.7,9.9,7.7,11.8,14.1c1.9,6.3,2.3,12.8,1.8,19.3c-0.3,3.4-1,6.8-1.8,10.1
			c-1.5,6.3-5.5,10.7-11.2,13.5c-0.4,0.2-0.7,0.4-1.2,0.6C311.9,164,317.5,181,323.1,198.2z M282.6,118.3c0,6.1,0,12.2,0,18.3
			c0,0,0,0.1,0,0.1c-0.2,1.1,0.3,1.3,1.3,1.3c3.4-0.1,6.8,0,10.2,0c7.4-0.2,11.9-3.8,13.3-10.9c1.1-5.3,1.1-10.7,0.2-16
			c-1.5-8.3-6.1-12.1-14.5-12.3c-3-0.1-6.1,0-9.1,0c-1.4,0-1.4,0-1.4,1.4C282.6,106.2,282.6,112.2,282.6,118.3z"/>
		<path class="st0" d="M608.1,198.2c-0.7,0-1.1,0-1.5,0c-3.4,0-6.7,0-10.1,0c-1,0-1.3-0.3-1.6-1.2c-4.1-12.7-8.2-25.4-12.3-38
			c-0.9-2.9-1.9-5.7-2.8-8.6c-0.2-0.7-0.5-0.9-1.2-0.9c-3.1,0-6.3,0-9.4,0c-1.7,0-1.7,0-1.7,1.7c0,13.5,0,27.1,0,40.6
			c0,1.7,0,3.5,0,5.2c0,1-0.2,1.3-1.3,1.3c-3.3-0.1-6.6-0.1-10,0c-1,0-1.3-0.3-1.3-1.3c0-6.5,0-12.9,0-19.4c0-29.5,0-59,0-88.6
			c0-0.6,0-1.1,0-1.9c0.5,0,0.8,0,1.2,0c8,0,16,0,24,0c4,0,7.8,0.6,11.5,2.2c6.2,2.7,9.8,7.6,11.8,13.9c2,6.4,2.4,12.9,1.9,19.5
			c-0.3,3.4-1,6.8-1.7,10.1c-1.5,6.3-5.5,10.7-11.3,13.6c-0.3,0.2-0.7,0.4-1.1,0.6C596.9,164,602.5,181,608.1,198.2z M567.6,118.3
			c0,6.2,0,12.3,0,18.5c0,0.8,0.2,1.2,1.1,1.2c3.5-0.1,6.9,0,10.4,0c7.4-0.2,11.9-3.8,13.3-10.9c1.1-5.3,1.1-10.8,0.1-16.1
			c-1.4-8.1-6.1-12-14.3-12.2c-3.1-0.1-6.1,0-9.2,0c-1.5,0-1.5,0-1.5,1.4C567.6,106.2,567.6,112.3,567.6,118.3z"/>
		<path class="st0" d="M620.4,144.4c0-10.2-0.1-20.4,0.1-30.6c0.1-5.3,0.9-10.6,3.4-15.5c3.5-7,9.2-10.7,16.8-11.7
			c4.6-0.6,9.3-0.5,13.9,0.5c8.8,1.9,13.9,7.4,15.6,16.1c0.8,4,1.1,8.1,1.1,12.1c0.1,18.9,0.1,37.8,0,56.7c0,5.5-1.2,10.9-3.6,15.9
			c-2.7,5.5-7,9-12.9,10.4c-6.1,1.5-12.2,1.5-18.2,0c-7.5-1.8-11.9-6.9-14.3-14c-1.2-3.6-1.8-7.3-1.8-11.2
			C620.3,163.6,620.3,154,620.4,144.4C620.4,144.4,620.4,144.4,620.4,144.4z M658.7,142.4C658.8,142.4,658.8,142.4,658.7,142.4
			c0.1-8.2,0.1-16.5,0.1-24.7c0-2.7-0.1-5.3-0.3-8c-0.6-6.6-4.2-11.4-11.1-11.9c-5.9-0.4-9.2,1.3-12,6.2c-0.5,0.8-0.8,1.8-1.2,2.7
			c-1.4,3.8-1.3,7.8-1.4,11.8c0,17.8,0,35.7,0,53.5c0,1.9,0.2,3.8,0.5,5.6c0.8,4.7,4,9.6,10.3,10.3c6.7,0.7,11.7-2,13.8-8.4
			c0.7-2.2,1.2-4.6,1.2-6.9C658.8,162.4,658.7,152.4,658.7,142.4z"/>
		<path class="st0" d="M725.5,87.4c4.2,0,8.2,0,12.4,0c0,0.3,0.1,0.6,0.1,0.9c0,27.7,0,55.4-0.1,83c0,5.8-1.1,11.4-3.7,16.7
			c-3,6.2-8,9.5-14.6,10.7c-6.2,1.1-12.4,1-18.5-1.1c-6.7-2.3-10.4-7.4-12.5-13.9c-1.2-3.8-1.7-7.7-1.7-11.6c0-27.9,0-55.8,0-83.7
			c0-0.3,0-0.6,0.1-1c4.1,0,8.2,0,12.4,0c0,0.5,0.1,1,0.1,1.6c0,27.5,0,55,0,82.5c0,2.5,0.3,5.2,1,7.6c2,6.9,7.2,9.4,13.9,8.7
			c5.6-0.6,9.3-4.7,10.4-10.5c0.5-2.6,0.7-5.4,0.7-8.1c0-26.7,0-53.5,0-80.2C725.5,88.5,725.5,88,725.5,87.4z"/>
		<path class="st0" d="M538,110.7c-4.2,1-8.3,2-12.3,3c-0.3-2.2-0.4-4.4-0.9-6.6c-0.4-1.6-1-3.2-1.8-4.6c-1.5-2.8-4.1-4.2-7.1-4.5
			c-1.8-0.2-3.6-0.2-5.4,0.1c-3.4,0.6-5.6,2.8-7.2,5.7c-1.7,3.1-2.3,6.5-2.4,10c-0.1,7.1-0.1,14.1-0.1,21.2c0,12.9,0,25.8,0.1,38.8
			c0,3,0.6,5.9,2.2,8.5c2.6,4.4,6.9,6.4,12.3,5.6c1-0.1,1.9-0.3,2.9-0.6c4.9-1.4,8.1-5.3,8.1-10.5c0.1-8.9,0-17.9,0-26.8
			c0-0.1,0-0.3-0.1-0.6c-4.2,0-8.5,0-12.8,0c0-3.7,0-7.3,0-10.9c8.4,0,16.8,0,25.2,0c0,0.3,0.1,0.5,0.1,0.8c0,12.3,0.1,24.7-0.1,37
			c-0.2,12.1-8.7,21.4-20.8,22.9c-4.6,0.6-9.1,0.4-13.5-0.8c-8.1-2.2-12.9-7.7-14.9-15.7c-0.7-2.8-1.1-5.7-1.1-8.5
			c-0.1-19.8-0.1-39.6,0-59.4c0-5.7,0.9-11.3,3.5-16.5c3.5-7,9.3-10.8,16.9-11.7c4.4-0.5,8.7-0.4,13,0.6c6.3,1.4,10.7,5.1,13.4,10.9
			C537.1,102,537.8,106.2,538,110.7z"/>
		<path class="st0" d="M767.1,153.7c0,14.7,0,29.6,0,44.5c-0.8,0-1.5,0-2.2,0c-3,0-6,0-9,0c-1,0-1.3-0.3-1.3-1.3
			c0-10.4,0-20.7,0-31.1c0-25.7,0-51.3,0-77c0-0.5,0-1.1,0-1.7c0.5,0,0.8-0.1,1.2-0.1c7.5,0,14.9,0,22.4,0c3.8,0,7.5,0.4,11.1,1.6
			c8.2,2.6,12.9,8.4,14.6,16.6c2,9.9,2.1,19.8-0.1,29.6c-2.3,10.1-9.4,16.4-19.6,18c-5.2,0.8-10.4,0.5-15.6,0.6c-0.4,0-0.8,0-1.2,0
			C767.3,153.6,767.3,153.6,767.1,153.7z M767.1,98.9c0,14.4,0,28.7,0,43.3c4.6-0.2,9.2-0.1,13.7-0.7c6.2-0.9,10.1-4.7,11.3-10.8
			c1.3-6.7,1.3-13.6-0.1-20.3c-1.4-7-5.3-10.6-12.3-11.3c-4.1-0.4-8.3-0.2-12.4-0.2C767.3,98.7,767.3,98.8,767.1,98.9z"/>
		<path class="st0" d="M431.6,113.6c-0.4-2.4-0.6-4.8-1.2-7c-1.4-5.3-4.9-8.1-10.4-8.4c-1.5-0.1-3-0.1-4.5,0.1
			c-5.1,0.7-8.1,3.9-9.5,8.6c-1.5,5-1.4,10.1-0.5,15.2c0.4,2.5,2,4.5,3.8,6.3c3.1,2.8,6.8,4.6,10.6,6.2c3.9,1.8,8,3.4,11.7,5.5
			c5.9,3.3,10,8.2,11.3,15c0.5,2.5,0.7,5.1,0.9,7.7c0.4,6.9,0.3,13.8-1.9,20.5c-3,9.3-9.4,14.6-19.1,15.8
			c-5.2,0.6-10.3,0.5-15.3-1.1c-8.7-2.7-13.6-8.8-15.3-17.6c-0.3-1.7-0.4-3.5-0.6-5.3c-0.1-0.7,0.1-1,0.8-1.2
			c3.8-0.7,7.6-1.5,11.5-2.3c0.2,1.7,0.3,3.3,0.6,4.9c1.6,8.5,7.2,11.5,14.9,10.8c1.9-0.2,3.8-0.6,5.5-1.4c3.6-1.6,5.3-4.8,5.9-8.5
			c0.9-5.9,0.9-11.9,0-17.8c-0.6-3.9-2.7-6.8-6.1-8.8c-2.6-1.5-5.2-2.8-7.9-4c-5.3-2.4-10.5-4.9-15-8.5c-5.9-4.8-8.9-10.9-9.3-18.4
			c-0.3-5.7-0.2-11.3,1.6-16.7c3.2-9.9,10-15.5,20.3-16.8c4.3-0.5,8.7-0.5,12.9,0.8c9.1,2.7,14.5,8.8,16.1,18.1
			c0.2,1.5,0.3,2.9,0.4,4.4c0,0.3-0.3,0.8-0.5,0.9C439.4,111.7,435.4,112.6,431.6,113.6z"/>
		<path class="st0" d="M336.4,87.2c15.8,0,31.5,0,47.4,0c0,1,0,2,0,2.9c0,2.5,0,4.9,0,7.4c0,1-0.3,1.2-1.2,1.2
			c-10.8,0-21.5,0-32.3,0c-0.5,0-0.9,0-1.5,0c0,12.5,0,24.8,0,37.3c10.1,0,20.1,0,30.3,0c0,0.7,0,1.2,0,1.8c0,2.8,0,5.6,0,8.3
			c0,1.4,0,1.4-1.4,1.4c-9.1,0-18.2,0-27.3,0c-0.5,0-1,0-1.6,0c0,13.1,0,26,0,39.1c11.6,0,23.2,0,34.9,0c0,3.9,0,7.6,0,11.4
			c-15.8,0-31.5,0-47.3,0C336.4,161.2,336.4,124.2,336.4,87.2z"/>
		<path class="st0" d="M240,87.2c4.1,0,8.2,0,12.3,0c0,36.9,0,73.9,0,110.9c-4.1,0-8.1,0-12.3,0C240,161.2,240,124.3,240,87.2z"/>
		<path class="st0" d="M134.3,235.8c-1.5,0-3,0-4.5,0c0-76.4,0-152.9,0-229.4c1.5,0,2.9,0,4.5,0C134.3,82.8,134.3,159.2,134.3,235.8
			z"/>
		<path class="st0" d="M124.1,235.8c-1.4,0-2.8,0-4.3,0c0-73.6,0-147.2,0-220.9c1.4,0,2.8,0,4.3,0
			C124.1,88.5,124.1,162.1,124.1,235.8z"/>
		<path class="st0" d="M104,235.8c-1.5,0-2.8,0-4.2,0c0-69.5,0-139,0-208.6c1.4,0,2.8,0,4.2,0C104,96.7,104,166.2,104,235.8z"/>
		<path class="st0" d="M109.8,235.8c0-71.6,0-143,0-214.5c1.3,0,2.5,0,3.8,0c0.2,0,0.5,0.3,0.5,0.5c0.1,0.4,0,0.8,0,1.2
			c0,70.4,0,140.8,0,211.1c0,0.4,0.1,0.8,0,1.1c-0.1,0.3-0.4,0.6-0.6,0.6C112.3,235.9,111.1,235.8,109.8,235.8z"/>
		<path class="st0" d="M53.9,236.2c-1.5,0-2.8,0-4.3,0c0-0.4,0-0.8,0-1.2c0-59,0-118,0-177c0-1.1,0.3-1.3,1.3-1.3c3,0,3,0,3,3
			c0,58.2,0,116.4,0,174.6C53.9,234.9,53.9,235.5,53.9,236.2z"/>
		<path class="st0" d="M38.8,63.1c1.4,0,2.7,0,4.1,0c0,57.7,0,115.3,0,173.1c-0.7,0-1.4,0-2.1,0c-0.6,0-1.3,0-2,0
			C38.8,178.5,38.8,120.9,38.8,63.1z"/>
		<path class="st0" d="M27.9,71c1.3,0,2.6,0,3.9,0c0,55,0,110.1,0,165.3c-0.6,0-1.3,0-1.9,0c-0.6,0-1.3,0-2,0
			C27.9,181.1,27.9,126,27.9,71z"/>
		<path class="st0" d="M17,78.1c1.3,0,2.6,0,3.9,0c0,52.7,0,105.3,0,158.1c-1.3,0-2.6,0-3.9,0C17,183.5,17,130.9,17,78.1z"/>
		<path class="st0" d="M10,236.2c-1.3,0-2.6,0-3.9,0c0-50.3,0-100.6,0-150.9c1.3,0,2.6,0,3.9,0C10,135.5,10,185.8,10,236.2z"/>
		<path class="st0" d="M652.5,235.7c-0.3,0.1-0.3,0.2-0.3,0.2c-2.7,0.4-2.7,0.4-2.7-2.3c0-6.9,0-13.8,0-20.7c0-0.4,0-0.9,0-1.4
			c1,0,1.8-0.1,2.7,0c0.3,0,0.7,0.5,0.9,0.8c2.4,4.3,4.8,8.6,7.1,12.9c0.2,0.3,0.4,0.7,0.7,1.1c0.3-0.4,0.4-0.7,0.6-1.1
			c2.4-4.3,4.9-8.7,7.3-13c0.4-0.7,2.8-1.2,3.4-0.7c0.2,0.2,0.2,0.5,0.2,0.8c0,7.5,0,15.1,0,22.6c0,0.7-0.3,0.9-1,0.9
			c-2.6,0-2.1,0.1-2.1-2c0-5.1,0-10.2,0-15.3c0-0.4,0-0.8,0-1.1c-0.1,0-0.2-0.1-0.3-0.1c-0.2,0.4-0.5,0.7-0.7,1.1
			c-2,3.6-4.1,7.1-6.1,10.7c-0.7,1.2-2,1.2-2.7,0c-2-3.6-4.1-7.1-6.1-10.7c-0.2-0.3-0.4-0.7-0.8-1
			C652.5,223.6,652.5,229.7,652.5,235.7z"/>
		<path class="st0" d="M504.9,230c0-6.1,0-12.2,0-18.4c1,0,1.9,0,3,0c0,0.4,0.1,0.7,0.1,1.1c0,7.3,0,14.7,0,22c0,1-0.3,1.3-1.3,1.3
			c-1.2,0-1.8-0.3-2.5-1.4c-3.3-5.5-6.7-11-10-16.4c-0.1-0.2-0.3-0.4-0.8-0.6c0,0.4,0,0.8,0,1.2c0,5.3,0,10.5,0,15.8
			c0,1.1-0.3,1.5-1.4,1.4c-0.5-0.1-1,0-1.6,0c0-8.2,0-16.3,0-24.5c0.8,0,1.6-0.1,2.4,0c0.3,0.1,0.7,0.4,0.9,0.8
			c3.5,5.7,6.9,11.3,10.3,17c0.2,0.3,0.3,0.5,0.5,0.8C504.8,230.1,504.8,230.1,504.9,230z"/>
		<path class="st0" d="M321.8,230.4c0-0.7,0.1-1.2,0.1-1.6c0-5.3,0-10.7,0-16c0-1.1,0.3-1.5,1.3-1.3c0.4,0,0.7-0.1,1.1,0
			c0.3,0.1,0.6,0.4,0.6,0.6c0.1,0.6,0,1.1,0,1.7c0,7,0,13.9,0,20.9c0,1-0.3,1.2-1.2,1.2c-1.2,0.1-1.9-0.3-2.6-1.4
			c-3.3-5.5-6.6-10.9-10-16.3c-0.2-0.3-0.4-0.5-0.8-0.7c0,0.4,0,0.8,0,1.1c0,5.4,0,10.8,0,16.1c0,0.9-0.3,1.3-1.2,1.1
			c-0.1,0-0.3,0-0.4,0c-1.4,0-1.5,0-1.5-1.4c0-5,0-10,0-15c0-2.3,0-4.6,0-6.9c0-0.9,0.3-1.1,1.1-1.1c1.3-0.1,2,0.3,2.7,1.4
			c3.2,5.5,6.6,11,9.9,16.5C321.2,229.6,321.4,229.9,321.8,230.4z"/>
		<path class="st0" d="M768.4,230c0-0.4,0.1-0.8,0.1-1.2c0-5.3,0-10.7,0-16c0-1.1,0.3-1.4,1.3-1.3c0.5,0.1,1.1,0,1.6,0
			c0,8.2,0,16.2,0,24.2c-1.9,0.7-2.8,0.3-3.8-1.2c-3.3-5.4-6.6-10.8-9.9-16.2c-0.2-0.3-0.4-0.5-0.7-0.7c0,0.4,0,0.8,0,1.1
			c0,5.4,0,10.8,0,16.1c0,0.9-0.3,1.3-1.2,1.1c-0.1,0-0.3,0-0.4,0c-1.4,0-1.4,0-1.4-1.4c0-6,0-12.1,0-18.1c0-1.4,0-2.7,0-4.1
			c0-0.7,0.3-0.8,0.9-0.9c1.3-0.1,2.2,0.3,2.9,1.5c3.2,5.5,6.6,10.9,9.9,16.4c0.1,0.2,0.3,0.5,0.5,0.7
			C768.2,230.1,768.3,230.1,768.4,230z"/>
		<path class="st0" d="M631.2,223.6c0,2,0,4,0,6c0,3.7-1.5,5.6-5.1,6.3c-2.3,0.5-4.5,0.4-6.8-0.2c-2.8-0.7-4.3-2.6-4.3-5.6
			c0-4,0-8.1,0-12.1c0-3.8,1.6-5.8,5.3-6.5c2.3-0.5,4.7-0.4,7,0.3c2.5,0.8,3.8,2.5,3.9,5.1C631.2,219.2,631.2,221.4,631.2,223.6
			C631.2,223.6,631.2,223.6,631.2,223.6z M628.2,223.6c0-2.2,0-4.3,0-6.5c0-1.3-0.4-2.5-1.6-3.1c-2-1.2-4.1-1.3-6.2-0.3
			c-1.9,0.9-2.3,2.7-2.3,4.6c0,3.7,0,7.5,0,11.2c0,3,1.3,4.5,4.4,4.7c0.7,0.1,1.5,0,2.3-0.1c2.3-0.4,3.5-1.8,3.5-4.1
			C628.2,227.9,628.2,225.8,628.2,223.6z"/>
		<path class="st0" d="M273.2,223.9c0-2,0-4,0-6c0-3.8,1.6-5.7,5.3-6.4c2.4-0.4,4.7-0.4,7.1,0.3c2.3,0.7,3.6,2.3,3.7,4.7
			c0.1,4.7,0.1,9.4,0,14.1c-0.1,2.6-1.5,4.3-4,5c-2.7,0.8-5.5,0.8-8.2,0c-2.6-0.8-3.8-2.4-3.9-5.1c0-0.1,0-0.1,0-0.2
			C273.2,228.2,273.2,226.1,273.2,223.9z M286.3,223.7c0-2.2,0-4.4,0-6.6c0-2-1-3.3-2.9-3.7c-1.1-0.2-2.2-0.3-3.3-0.1
			c-2.5,0.3-3.8,2-3.8,4.4c0,4.2,0,8.4,0,12.7c0,1.8,0.8,3.1,2.6,3.5c1.3,0.3,2.7,0.4,4,0.3c2.3-0.3,3.4-1.7,3.5-4.1
			C286.3,228,286.3,225.9,286.3,223.7z"/>
		<path class="st0" d="M375.7,211.7c0.2-0.1,0.3-0.1,0.4-0.1c2.6-0.3,2.6-0.3,2.6,2.3c0,5.2,0,10.5,0,15.7c0,3,1.2,4.4,4.1,4.7
			c1.1,0.1,2.2,0,3.3-0.3c1.8-0.4,2.8-2,2.8-4c0-5.7,0-11.3,0-17c0-0.4,0-0.9,0-1.4c0.9,0,1.7-0.1,2.4,0c0.2,0,0.5,0.7,0.5,1
			c0,4.8,0,9.7,0,14.5c0,0.9,0,1.8,0,2.7c0,3.4-1.5,5.3-4.8,6c-2.5,0.6-5,0.5-7.5-0.2c-2.6-0.8-3.9-2.6-3.9-5.3c0-5.8,0-11.7,0-17.5
			C375.7,212.4,375.7,212.1,375.7,211.7z"/>
		<path class="st0" d="M541.8,216.5c-0.9,0.2-1.8,0.3-2.7,0.5c-0.1-0.1-0.2-0.2-0.2-0.3c-0.2-1.7-1.1-2.9-2.8-3.3
			c-2.1-0.5-4.2-0.6-5.8,1.1c-0.6,0.6-1.1,1.7-1.1,2.6c-0.1,4.5-0.1,9.1,0,13.6c0,1.6,0.9,2.8,2.5,3.3c1.9,0.7,3.8,0.5,5.7-0.3
			c1.3-0.6,1.9-1.6,1.9-3c0-1.6,0-3.2,0-4.9c0-0.8-0.3-1-1-1c-1.1,0-2.1,0-3.3,0c0-0.6,0-1.1,0-1.7c2.4,0,4.7,0,7.3,0
			c0,1.7,0,3.3,0,5c0,0.4,0,0.8,0,1.2c0,4.1-1.3,5.7-5.3,6.5c-2.3,0.5-4.7,0.4-6.9-0.3c-2.6-0.8-3.8-2.4-3.8-5.1c0-4.2,0-8.4,0-12.6
			c0.1-4.1,2.1-6.3,6.2-6.5c2-0.1,4,0.1,6,0.5C540.6,212.5,541.7,214.2,541.8,216.5z"/>
		<path class="st0" d="M737.8,235.9c-1,0-1.8,0.1-2.6,0c-0.2,0-0.5-0.4-0.6-0.7c-0.5-1.5-1-2.9-1.4-4.4c-0.2-0.6-0.5-0.8-1.1-0.8
			c-2.5,0-4.9,0-7.4,0c-0.6,0-1,0.2-1.1,0.8c-0.4,1.3-0.9,2.6-1.2,3.9c-0.2,0.9-0.7,1.4-1.6,1.2c-0.5-0.1-1,0-1.6,0
			c1.1-3.4,2.1-6.7,3.1-9.9c1.4-4.5,2.9-8.9,4.2-13.4c0.3-0.9,0.6-1.3,1.6-1.2c0.3,0.1,0.7,0.1,1,0c0.9-0.2,1.1,0.4,1.3,1.1
			c2,6.3,4.1,12.7,6.1,19C736.8,232.9,737.3,234.3,737.8,235.9z M732.3,228c-1.3-4.4-2.6-8.7-3.8-13c-0.1,0-0.2,0-0.2,0
			c-1.3,4.3-2.6,8.6-3.9,13C727.1,228,729.6,228,732.3,228z"/>
		<path class="st0" d="M693.7,225.6c0,2.1,0,3.9,0,5.8c0,1.2,0,2.4,0,3.6c0,0.8-0.3,1-1,1c-2.4,0-2,0.1-2-2c0-7,0-14.1,0-21.1
			c0-1.1,0.3-1.5,1.4-1.4c3.1,0.2,6.3,0,9.4,0.4c4.3,0.5,5.8,3.2,5.4,7.5c-0.3,4-2.6,6-6.9,6.3C697.9,225.7,695.9,225.6,693.7,225.6
			z M693.8,224.1c2.2-0.1,4.4-0.2,6.5-0.5c1.7-0.2,3.1-1.2,3.4-3c0.2-1.3,0.2-2.7,0-4c-0.1-1.2-0.9-2-2-2.5
			c-2.5-1.2-5.2-0.7-7.9-0.8C693.8,216.9,693.8,220.4,693.8,224.1z"/>
		<path class="st0" d="M355.7,216.9c-0.5-2.5-1.6-3.5-4-3.6c-1.2,0-2.4,0-3.5,0.3c-1.6,0.4-2.5,1.6-2.7,3.3c-0.2,1.8,0.3,3.2,2,3.9
			c1.6,0.7,3.4,1.2,5.1,1.9c1.3,0.5,2.6,1,3.9,1.7c1.3,0.7,2,2,2.1,3.6c0,0.6,0.1,1.2,0.1,1.8c-0.1,3.6-1.6,5.4-5.2,6.2
			c-2.7,0.6-5.4,0.5-8-0.6c-1.7-0.7-2.9-1.8-3.2-3.8c0-0.3,0.2-0.7,0.4-0.8c0.8-0.2,1.6-0.2,2.4-0.3c0.7,2.6,2,3.7,4.7,3.7
			c1,0,2,0,3-0.2c1.4-0.3,2.4-1.2,2.6-2.7c0.2-1.2,0.1-2.4,0-3.7c-0.1-1.1-0.9-1.8-1.9-2.2c-1.3-0.5-2.7-1-4.1-1.5
			c-1.5-0.6-3-1.1-4.4-1.8c-3.9-1.8-3.1-7.8,0-9.5c1.5-0.8,3.2-1.2,4.9-1.3c2.1-0.1,4.1,0.1,6,1c1.3,0.7,2.3,1.7,2.6,3.3
			c0.1,0.5,0,0.9-0.6,1C357.2,216.6,356.5,216.8,355.7,216.9z"/>
		<path class="st0" d="M256.1,216.5c-1,0.1-1.9,0.3-2.8,0.4c-1.1-3.4-3.6-4.7-7-3.6c-1.7,0.5-2.7,1.7-2.8,3.4
			c-0.1,2.4-0.1,4.8-0.1,7.2c0,1.8,0,3.5,0,5.3c0,3.5,1.6,5.1,5.1,4.9c3.3-0.1,4.3-1.3,4.7-3.8c1,0.1,2,0.2,3,0.4
			c-0.1,1.9-0.8,3.3-2.4,4c-3.6,1.8-7.2,1.7-10.8,0.1c-1.8-0.8-2.6-2.5-2.6-4.4c0-4.4,0-8.7,0-13.1c0-3.2,1.7-5.2,4.8-5.9
			c2.5-0.6,4.9-0.5,7.4,0.3C254.9,212.7,256.1,214.2,256.1,216.5z"/>
		<path class="st0" d="M598,216.6c-1,0.1-1.9,0.3-2.8,0.4c-1-3.5-4.3-4.9-7.6-3.3c-1.6,0.7-2.3,2-2.3,3.7c0,4.4,0,8.7,0,13.1
			c0,2,1.2,3.4,3.1,3.7c1.1,0.2,2.4,0.2,3.5,0c1.8-0.3,2.4-1,3.3-3.6c0.5,0,1,0.1,1.5,0.1c0.5,0.1,0.9,0.2,1.4,0.2
			c0,1.9-0.9,3.2-2.4,4c-2,1.1-4.2,1.4-6.4,1.2c-1.3-0.1-2.6-0.3-3.8-0.8c-2.1-0.8-3.2-2.4-3.2-4.8c0-4.2,0-8.4,0-12.7
			c0-3.7,1.6-5.6,5.1-6.4c2.4-0.5,4.7-0.4,7,0.3C596.8,212.7,598.1,214.3,598,216.6z"/>
		<path class="st0" d="M794.8,236c0-1.7-0.1-3.3,0-4.8c0.4-4-0.6-7.5-2.6-10.9c-1.7-2.8-3-5.7-4.6-8.8c1.1,0,2-0.1,2.8,0
			c0.3,0,0.6,0.5,0.7,0.8c1.5,3.1,3,6.2,4.5,9.4c0.2,0.4,0.3,0.7,0.6,1.3c0.3-0.5,0.5-0.8,0.6-1.1c1.4-3,2.9-6,4.3-9.1
			c0.4-1,0.9-1.5,2-1.3c0.5,0.1,1,0,1.7,0c-0.2,0.5-0.4,0.8-0.5,1.2c-2,4-4.1,8-6.1,12.1c-0.3,0.6-0.4,1.3-0.5,1.9
			c0,2.8,0,5.6,0,8.3c0,0.8-0.3,1.1-1.1,1C796.2,236,795.6,236,794.8,236z"/>
		<path class="st0" d="M436.4,213.3c-0.3-1.8-0.3-1.8,1.3-1.8c4.4,0,8.9,0,13.3,0c0.4,0,0.8,0,1.2,0c0,0.7,0,1.2,0,1.8
			c-1.6,0-3.3,0-4.9,0c-1.5,0-1.5,0-1.5,1.5c0,6.6,0,13.2,0,19.8c0,1-0.3,1.5-1.3,1.3c-0.3,0-0.6,0-1,0c-0.6,0-0.8-0.3-0.8-0.9
			c0-0.8,0-1.7,0-2.5c0-6,0-12,0-18c0-1-0.3-1.4-1.3-1.3C439.8,213.4,438.1,213.3,436.4,213.3z"/>
		<path class="st0" d="M410.2,211.6c1,0,1.9,0,2.9,0c0,7.5,0,15,0,22.5c3.8,0,7.4,0,11,0c0.4,1.7,0.3,1.8-1.2,1.8
			c-3.9,0-7.8,0-11.7,0c-0.7,0-1.1-0.1-1.1-1c0-7.5,0-15.1,0-22.6C410.1,212.1,410.1,211.9,410.2,211.6z"/>
		<path class="st0" d="M468.6,211.6c1.1,0,2.1,0,3.1,0c0,0.5,0,0.8,0,1.2c0,7.3,0,14.6,0,21.8c0,1-0.2,1.4-1.3,1.3
			c-2.3-0.1-1.9,0.1-1.9-1.8c0-7.1,0-14.2,0-21.3C468.6,212.4,468.6,212,468.6,211.6z"/>
	</g>
</g>
</svg>
