<svg xmlns="http://www.w3.org/2000/svg" xml:space="preserve" id="Layer_1" x="0" y="0" style="enable-background:new 0 0 100 25" version="1.1" viewBox="0 0 100 25"><style>.st6{fill:#fff}.st108{fill:#fc9e22}</style><path d="M0 5.469c1.009-.173 2.426-.303 4.424-.303 2.017 0 3.456.388 4.423 1.159.923.732 1.546 1.933 1.546 3.351 0 1.416-.472 2.619-1.331 3.434-1.117 1.053-2.77 1.524-4.702 1.524-.43 0-.816-.021-1.117-.065v5.175H0V5.469zm3.242 6.568c.279.065.622.088 1.095.088 1.739 0 2.813-.882 2.813-2.363 0-1.33-.924-2.125-2.555-2.125-.665 0-1.117.062-1.352.127v4.273zM12.847 5.469c1.052-.173 2.62-.303 4.359-.303 2.147 0 3.65.323 4.68 1.139.859.688 1.331 1.697 1.331 3.028 0 1.848-1.309 3.113-2.555 3.563v.065c1.009.409 1.568 1.374 1.933 2.707.45 1.63.902 3.52 1.18 4.078h-3.349c-.237-.409-.58-1.589-1.009-3.372-.387-1.804-1.009-2.296-2.341-2.319h-.986v5.69h-3.242V5.469zm3.243 6.226h1.288c1.633 0 2.598-.818 2.598-2.083 0-1.333-.902-1.998-2.404-2.018-.794 0-1.246.065-1.482.106v3.995z" class="st108"/><path d="M30.804 13.025v2.169H25.18v-2.169h5.624zM36.498 16.032l-1.03 3.714h-3.393l4.423-14.471h4.294l4.487 14.471h-3.521l-1.117-3.714h-4.143zm3.672-2.448-.902-3.072c-.258-.859-.515-1.931-.73-2.79h-.043c-.215.859-.43 1.954-.666 2.79l-.859 3.072h3.2zM47.693 16.374c.88.453 2.233.903 3.628.903 1.503 0 2.298-.624 2.298-1.568 0-.901-.687-1.416-2.426-2.039-2.405-.838-3.972-2.169-3.972-4.272 0-2.469 2.061-4.358 5.475-4.358 1.633 0 2.835.342 3.694.73l-.731 2.64c-.58-.279-1.61-.686-3.027-.686s-2.104.644-2.104 1.395c0 .924.815 1.33 2.684 2.039 2.554.945 3.757 2.277 3.757 4.316 0 2.425-1.868 4.487-5.841 4.487-1.654 0-3.285-.43-4.1-.88l.665-2.707zM59.66 16.374c.881.453 2.233.903 3.629.903 1.502 0 2.297-.624 2.297-1.568 0-.901-.687-1.416-2.426-2.039-2.405-.838-3.972-2.169-3.972-4.272 0-2.469 2.061-4.358 5.476-4.358 1.632 0 2.834.342 3.693.73l-.731 2.64a6.883 6.883 0 0 0-3.027-.686c-1.417 0-2.104.644-2.104 1.395 0 .924.815 1.33 2.684 2.039 2.554.945 3.757 2.277 3.757 4.316 0 2.425-1.868 4.487-5.841 4.487-1.654 0-3.285-.43-4.1-.88l.665-2.707zM74.805 5.275v14.471H71.52V5.275h3.285zM78.115 16.374c.881.453 2.233.903 3.629.903 1.502 0 2.297-.624 2.297-1.568 0-.901-.687-1.416-2.426-2.039-2.405-.838-3.972-2.169-3.972-4.272 0-2.469 2.061-4.358 5.476-4.358 1.632 0 2.834.342 3.693.73l-.731 2.64a6.883 6.883 0 0 0-3.027-.686c-1.417 0-2.104.644-2.104 1.395 0 .924.815 1.33 2.684 2.039 2.554.945 3.757 2.277 3.757 4.316 0 2.425-1.868 4.487-5.841 4.487-1.654 0-3.285-.43-4.1-.88l.665-2.707zM92.765 8.023h-3.886V5.275H100v2.748h-3.95v11.723h-3.285V8.023z" class="st6"/></svg>