<svg xmlns="http://www.w3.org/2000/svg" width="199" height="155" fill="none"><g clip-path="url(#a)"><path fill="url(#b)" d="M0 81.428v-36h8.3c2.3-.2 4.6.7 6.3 2.3 1.5 1.9 2.3 4.2 2.1 6.6v4.7c.2 2.4-.6 4.8-2.1 6.6-1.7 1.6-4 2.4-6.3 2.3H5.6v13.5H0Zm5.6-18.7h2.7c.8.1 1.5-.2 2.1-.8.5-.8.8-1.7.7-2.6v-5.3c.1-1-.1-1.9-.7-2.7-.6-.5-1.3-.8-2.1-.8H5.6v12.2Z"/><path fill="url(#c)" d="M19.2 72.828v-18.8c-.2-2.4.6-4.8 2.2-6.7 1.7-1.6 4-2.5 6.4-2.3 2.4-.2 4.7.7 6.4 2.4 1.6 1.9 2.4 4.2 2.2 6.7v18.8c.2 2.4-.6 4.8-2.2 6.7-1.7 1.7-4 2.5-6.4 2.4-2.4.2-4.7-.7-6.4-2.4-1.6-2-2.4-4.4-2.2-6.8Zm5.6.3c0 2.4 1 3.6 3 3.6s2.9-1.2 2.9-3.6v-19.5c0-2.4-1-3.5-2.9-3.5s-3 1.2-3 3.5v19.5Z"/><path fill="url(#d)" d="M38.7 45.428h5.7l3 28.4 2.7-28.4h5.7l2.8 28.6 3-28.6h4.9l-4 36.1H55l-2.2-19.2-2.1 19.2h-7.9l-4.1-36.1Z"/><path fill="url(#e)" d="M69 81.428v-36h15.4v5.1h-9.8v10.1h7.8v5.1h-7.8v10.5h9.8v5.2H69Z"/><path fill="url(#f)" d="M87.9 81.428v-36h8.5c2.3-.2 4.6.5 6.4 2 1.5 1.7 2.2 4 2 6.3v2.8c0 3.7-1.2 6.2-3.7 7.3 1.3.5 2.3 1.5 2.9 2.8.6 1.6.9 3.2.9 4.9v5.5c-.1 1.5.1 3 .5 4.4h-5.7c-.1-.4-.2-.7-.3-.9-.1-.4-.1-.8-.2-1.2 0-.6-.1-1.4-.1-2.3v-5.7c.1-1.2-.2-2.5-.9-3.5-.7-.8-1.8-1.1-2.8-1.1h-2v14.7h-5.5Zm5.7-19.8h2.2c.9.1 1.8-.2 2.5-.9.7-.8 1-1.9.9-3v-3.5c.1-1-.2-2-.7-2.8-.5-.6-1.3-1-2.2-.9h-2.8v11.1h.1Z"/><path fill="url(#g)" d="M116.5 81.428v-36h7.8l4.2 25.7 3.9-25.7h8.1v36.1h-5.7v-25.9l-3.9 25.8h-5.4l-4.2-25.4v25.4h-4.8Z"/><path fill="url(#h)" d="M144.4 81.428v-36h15.4v5.1H150v10.1h7.8v5.1H150v10.5h9.8v5.2h-15.4Z"/><path fill="url(#i)" d="m161.8 81.428 5.7-36.1h8.7l5.7 36.1h-5.7l-1-6.5h-6.9l-1 6.5h-5.5Zm7.4-11.4h5.5l-2.7-18.1-2.8 18.1Z"/><path fill="url(#j)" d="M184.2 81.428v-36h5.7v30.9h9.3v5.2h-15v-.1Z"/><path fill="url(#k)" d="M1.7 108.128h5.8v1.5H0v-12.4h7.5v1.6H1.7v3.901H7v1.5H1.7v3.899Z"/><path fill="url(#l)" d="M21.4 108.127c-2.5-2.5-2.6-6.7 0-9.2 1.3-1.3 3-2 4.7-1.9 2.2 0 4.3 1.1 5.4 3l-1.5.8c-.8-1.4-2.3-2.3-4-2.3-1.3 0-2.6.5-3.5 1.4-1.8 2-1.8 5 0 7 .9.9 2.2 1.4 3.5 1.4 1.6 0 3.2-.8 4-2.3l1.5.8c-.5.9-1.3 1.7-2.2 2.3-1 .5-2.1.8-3.2.8-1.7.1-3.4-.6-4.7-1.8Z"/><path fill="url(#m)" d="M45.4 98.828c2.6-2.5 6.7-2.5 9.2 0 2.5 2.6 2.5 6.7 0 9.2-2.6 2.5-6.7 2.5-9.2 0-2.6-2.5-2.6-6.6 0-9.2Zm8 1.1c-.9-.9-2.1-1.5-3.4-1.4-1.3 0-2.6.5-3.5 1.4-1.8 2-1.8 5 0 7 .9.9 2.2 1.4 3.5 1.4 1.3 0 2.5-.5 3.4-1.4 1.9-1.9 1.9-5 0-7Z"/><path fill="url(#n)" d="M89 97.127c2.2-.1 4.1 1.6 4.3 3.8.2 2.2-1.6 4.1-3.8 4.3h-3.4v4.5h-1.7v-12.6H89Zm0 6.6c.6 0 1.3-.2 1.7-.7.4-.5.7-1.1.7-1.8.1-1.3-.9-2.4-2.3-2.5H86v4.9h3v.1Z"/><path fill="url(#o)" d="M107.5 108.128h5.8v1.5h-7.5v-12.4h7.4v1.6h-5.7v3.901h5.2v1.5h-5.2v3.899Z"/><path fill="url(#p)" d="M127.2 98.828c2.6-2.5 6.7-2.5 9.2 0 2.5 2.6 2.5 6.7 0 9.2-2.6 2.5-6.7 2.5-9.2 0-2.5-2.5-2.5-6.6 0-9.2Zm8 1.1c-.9-.9-2.1-1.5-3.4-1.4-1.3 0-2.6.5-3.5 1.4-1.8 2-1.8 5 0 7 .9.9 2.2 1.4 3.5 1.4 1.3 0 2.6-.5 3.5-1.4 1.8-1.9 1.8-5-.1-7Z"/><path fill="url(#q)" d="M155.6 97.127c2.2-.1 4.1 1.6 4.3 3.8.1 2.2-1.6 4.1-3.8 4.3h-3.4v4.5H151v-12.6h4.6Zm0 6.6c.6 0 1.3-.2 1.7-.7.4-.5.7-1.1.7-1.8.1-1.3-.9-2.4-2.3-2.5h-3v4.9h2.9v.1Z"/><path fill="url(#r)" d="M174.1 108.128h5.4v1.5h-7.1v-12.4h1.7v10.9Z"/><path fill="url(#s)" d="M193.6 108.128h5.8v1.5h-7.5v-12.4h7.4v1.6h-5.7v3.901h5.3v1.5h-5.3v3.899Z"/></g><defs><linearGradient id="k" x1="-.456" x2="201.144" y1="103.398" y2="103.398" gradientUnits="userSpaceOnUse"><stop stop-color="#1C8AE2"/><stop offset=".486" stop-color="#8B00B3"/><stop offset="1" stop-color="#6900B5"/></linearGradient><linearGradient id="b" x1="-.456" x2="201.147" y1="63.394" y2="63.394" gradientUnits="userSpaceOnUse"><stop stop-color="#1C8AE2"/><stop offset=".486" stop-color="#8B00B3"/><stop offset="1" stop-color="#6900B5"/></linearGradient><linearGradient id="d" x1="-.455" x2="201.143" y1="63.428" y2="63.428" gradientUnits="userSpaceOnUse"><stop stop-color="#1C8AE2"/><stop offset=".486" stop-color="#8B00B3"/><stop offset="1" stop-color="#6900B5"/></linearGradient><linearGradient id="e" x1="-.456" x2="201.145" y1="63.406" y2="63.406" gradientUnits="userSpaceOnUse"><stop stop-color="#1C8AE2"/><stop offset=".486" stop-color="#8B00B3"/><stop offset="1" stop-color="#6900B5"/></linearGradient><linearGradient id="f" x1="-.455" x2="201.145" y1="63.39" y2="63.39" gradientUnits="userSpaceOnUse"><stop stop-color="#1C8AE2"/><stop offset=".486" stop-color="#8B00B3"/><stop offset="1" stop-color="#6900B5"/></linearGradient><linearGradient id="g" x1="-.456" x2="201.144" y1="63.428" y2="63.428" gradientUnits="userSpaceOnUse"><stop stop-color="#1C8AE2"/><stop offset=".486" stop-color="#8B00B3"/><stop offset="1" stop-color="#6900B5"/></linearGradient><linearGradient id="h" x1="-.454" x2="201.144" y1="63.406" y2="63.406" gradientUnits="userSpaceOnUse"><stop stop-color="#1C8AE2"/><stop offset=".486" stop-color="#8B00B3"/><stop offset="1" stop-color="#6900B5"/></linearGradient><linearGradient id="i" x1="-.457" x2="201.144" y1="63.383" y2="63.383" gradientUnits="userSpaceOnUse"><stop stop-color="#1C8AE2"/><stop offset=".486" stop-color="#8B00B3"/><stop offset="1" stop-color="#6900B5"/></linearGradient><linearGradient id="j" x1="-.456" x2="201.144" y1="63.406" y2="63.406" gradientUnits="userSpaceOnUse"><stop stop-color="#1C8AE2"/><stop offset=".486" stop-color="#8B00B3"/><stop offset="1" stop-color="#6900B5"/></linearGradient><linearGradient id="c" x1="-.456" x2="201.144" y1="63.404" y2="63.404" gradientUnits="userSpaceOnUse"><stop stop-color="#1C8AE2"/><stop offset=".486" stop-color="#8B00B3"/><stop offset="1" stop-color="#6900B5"/></linearGradient><linearGradient id="l" x1="-.455" x2="201.142" y1="103.474" y2="103.474" gradientUnits="userSpaceOnUse"><stop stop-color="#1C8AE2"/><stop offset=".486" stop-color="#8B00B3"/><stop offset="1" stop-color="#6900B5"/></linearGradient><linearGradient id="m" x1="-.455" x2="201.144" y1="103.476" y2="103.476" gradientUnits="userSpaceOnUse"><stop stop-color="#1C8AE2"/><stop offset=".486" stop-color="#8B00B3"/><stop offset="1" stop-color="#6900B5"/></linearGradient><linearGradient id="n" x1="-.454" x2="201.143" y1="103.46" y2="103.46" gradientUnits="userSpaceOnUse"><stop stop-color="#1C8AE2"/><stop offset=".486" stop-color="#8B00B3"/><stop offset="1" stop-color="#6900B5"/></linearGradient><linearGradient id="o" x1="-.456" x2="201.144" y1="103.398" y2="103.398" gradientUnits="userSpaceOnUse"><stop stop-color="#1C8AE2"/><stop offset=".486" stop-color="#8B00B3"/><stop offset="1" stop-color="#6900B5"/></linearGradient><linearGradient id="p" x1="-.455" x2="201.144" y1="103.476" y2="103.476" gradientUnits="userSpaceOnUse"><stop stop-color="#1C8AE2"/><stop offset=".486" stop-color="#8B00B3"/><stop offset="1" stop-color="#6900B5"/></linearGradient><linearGradient id="q" x1="-.458" x2="201.145" y1="103.46" y2="103.46" gradientUnits="userSpaceOnUse"><stop stop-color="#1C8AE2"/><stop offset=".486" stop-color="#8B00B3"/><stop offset="1" stop-color="#6900B5"/></linearGradient><linearGradient id="r" x1="-.452" x2="201.144" y1="103.398" y2="103.398" gradientUnits="userSpaceOnUse"><stop stop-color="#1C8AE2"/><stop offset=".486" stop-color="#8B00B3"/><stop offset="1" stop-color="#6900B5"/></linearGradient><linearGradient id="s" x1="-.455" x2="201.145" y1="103.398" y2="103.398" gradientUnits="userSpaceOnUse"><stop stop-color="#1C8AE2"/><stop offset=".486" stop-color="#8B00B3"/><stop offset="1" stop-color="#6900B5"/></linearGradient><clipPath id="a"><path fill="#fff" d="M0 0h199v155H0z"/></clipPath></defs></svg>