<?xml version="1.0" encoding="utf-8"?>
<!-- Generator: Adobe Illustrator 25.2.0, SVG Export Plug-In . SVG Version: 6.00 Build 0)  -->
<svg version="1.1" id="Слой_1" xmlns="http://www.w3.org/2000/svg" xmlns:xlink="http://www.w3.org/1999/xlink" x="0px" y="0px"
	 viewBox="0 0 601 174.0947418" style="enable-background:new 0 0 601 174.0947418;" xml:space="preserve">
<style type="text/css">
	.st0{fill:#F9F9F9;}
	.st1{fill:#2A2F6E;}
</style>
<g id="Слой_2_2_">
	<g id="Слой_1-2">
		<path class="st0" d="M86.2475891,1.0000075C39.2178078,0.9805342,1.0768486,39.0899239,1.0573754,86.1197052
			c-0.0194733,47.0297852,38.0899124,85.1707306,85.1196976,85.1902161
			c47.0297928,0.0194702,85.1707382-38.08992,85.1902084-85.1196899c0.0093689-22.5967712-8.9630432-44.27071-24.941391-60.249012
			C130.4671173,9.9769201,108.8206177,1.0054121,86.2475891,1.0000075z"/>
		<path class="st0" d="M244.6773529,35.3774109l0.6303864-5.887022h-0.2449341l-1.6120148,5.2915287l-5.0112305,10.8283272
			h-1.8574371l-5.3264008-10.8982506l-1.6471558-5.3265133h-0.2454071l0.8411407,5.9572735v15.9446068h-5.2561646V20.4490547
			h5.326416l6.4480896,13.3514137l1.0509491,3.8196793l1.0162964-3.8897476l6.0275116-13.2813454h5.2566376v30.8379288h-5.3966827
			V35.3774109z"/>
		<path class="st0" d="M264.8969421,41.6851425l0.385437-3.5043488l-1.6119995,3.7496185L257.74823,51.357235h-3.5041199V29.2797298
			h5.2214966v9.9874249l-0.3858948,3.5042992l1.5773621-3.5042992l5.9572449-9.7770462h3.5041199v22.0072594h-5.2214966V41.6851425z
			"/>
		<path class="st0" d="M284.4510498,42.5261383h-5.2912903v8.7608452h-5.2566223V29.2797298h5.2566223v8.4455128h5.2912903
			v-8.4453735h5.2215271v22.0072556h-5.2215271V42.5261383z"/>
		<path class="st0" d="M304.2505493,41.6851425l0.385437-3.5043488l-1.6119995,3.7496185l-5.8871765,9.4268227h-3.5045776
			V29.2797298h5.2214966v9.9874249l-0.385437,3.5042992l1.5769043-3.5042992l5.9572754-9.9872856h3.5041199v22.0072556h-5.2561646
			L304.2505493,41.6851425z"/>
		<path class="st0" d="M326.2573547,50.0604057c-0.7825623,0.6082115-1.6746826,1.0603905-2.6278381,1.331955
			c-1.005127,0.2747078-2.0420227,0.4161072-3.0840149,0.4205666c-1.3079224,0.0384712-2.605896-0.2379646-3.7846375-0.8060112
			c-1.0054626-0.5720787-1.8587341-1.3774452-2.4878235-2.3482513c-0.6627502-1.0762787-1.1258545-2.2633171-1.3670654-3.5040665
			c-0.2930908-1.5713959-0.4337769-3.1674271-0.420105-4.7658653c-0.2233276-3.0407372,0.4987183-6.0761795,2.0672302-8.6906872
			c1.3935852-1.9388504,3.6783142-3.0348854,6.0626831-2.9083843c1.0963745-0.0150299,2.1905823,0.1026287,3.2586975,0.3504124
			c0.7660828,0.2093563,1.5065613,0.5031853,2.2077332,0.8760738l-1.226593,4.27528
			c-0.4256592-0.2369308-0.8711548-0.436264-1.3314819-0.595726c-0.5717163-0.1496239-1.1611633-0.2203751-1.7520447-0.2102852
			c-1.1556396-0.0383339-2.2312927,0.5880013-2.7683716,1.6119766c-0.7422485,1.6230659-1.0674438,3.4057846-0.9460754,5.1863861
			c-0.047699,1.6735687,0.2753601,3.3369713,0.9460754,4.871006c0.5188599,1.1913681,1.715332,1.9425278,3.0137634,1.8920937
			c0.6427002,0.0263519,1.2846069-0.0687637,1.8920898-0.2803497c0.512146-0.1742172,0.9961853-0.422123,1.4368591-0.7359047
			L326.2573547,50.0604057z"/>
		<path class="st0" d="M341.9219055,34.0807648h-4.8360901v17.2062187h-5.2561646V34.0807648h-5.0112305v-4.8008957h15.1034851
			V34.0807648z"/>
		<path class="st0" d="M358.5671387,49.6398354c-0.8788147,0.7451134-1.9061584,1.294632-3.0137634,1.6120262
			c-1.2824402,0.3967514-2.6174011,0.5975952-3.9598083,0.595726c-1.3494568,0.0405998-2.6907959-0.2228661-3.9246521-0.7708855
			c-1.0831604-0.5261993-2.0124512-1.3227081-2.6981201-2.3126602c-0.7365417-1.0613632-1.2712097-2.2493134-1.5773621-3.5043945
			c-0.3560791-1.5984726-0.5206909-3.2336349-0.4903564-4.871006c-0.2513428-3.1145973,0.5777588-6.2207222,2.3477783-8.795784
			c1.6121521-1.9094067,4.0217896-2.9587994,6.5178833-2.8385105c0.9275818-0.0030975,1.8499451,0.1387882,2.7337036,0.4205227
			c0.8839417,0.2716064,1.6893005,0.7524567,2.3477783,1.4017391c0.7554321,0.7487278,1.330658,1.659441,1.682251,2.6632557
			c0.4575806,1.3291245,0.6711121,2.7300148,0.6303711,4.1351051v2.0675278
			c0.04422,0.8069992-0.0626526,1.6151619-0.3151855,2.3829117h-10.793335
			c-0.0272522,1.4837952,0.3742371,2.9439278,1.156311,4.2051735c0.8564148,1.0321388,2.1701355,1.570713,3.5045776,1.4367676
			c1.5639648-0.0070152,3.0898743-0.4830894,4.3804016-1.3666573L358.5671387,49.6398354z M351.5589294,33.1347237
			c-1.0299683-0.0471497-2.0062866,0.4609833-2.5585632,1.3316269c-0.6126709,1.1680603-0.9370422,2.4657326-0.9460449,3.7846985
			h6.1675415c0.1282043-1.2968597-0.0518494-2.6056595-0.5254517-3.8197289
			C353.3057556,33.6119576,352.4660645,33.1026039,351.5589294,33.1347237z"/>
		<path class="st0" d="M362.4918213,29.2801037h3.9251099l0.5254822,2.4880524
			c0.5822144-0.9273434,1.3595886-1.7166138,2.2779846-2.3128471c0.9652405-0.4888821,2.0370483-0.7297497,3.1186829-0.7008705
			c2.0090637-0.1062832,3.9259033,0.8521271,5.0463562,2.5231323c1.3268127,2.5942364,1.9089355,5.5053577,1.6817932,8.4103413
			c0.195282,3.1653252-0.5352478,6.3190346-2.102356,9.0761299c-1.3581543,2.0404167-3.6835938,3.2230301-6.1324463,3.1186714
			c-0.5930481,0.0800858-1.1941528,0.0800858-1.7872009,0c-0.5091858-0.0974274-0.9962158-0.2874413-1.4368591-0.5606041v8.9359093
			h-5.2214966L362.4918213,29.2801037z M367.7133179,46.3460999c0.2929993,0.2849846,0.638031,0.511013,1.0162964,0.6657906
			c0.4506226,0.1546059,0.9256287,0.2258644,1.4017639,0.2102852c1.1643372,0.0272179,2.2299805-0.6508789,2.6985779-1.7171173
			c0.7601929-1.8768654,1.0836792-3.9020042,0.9460449-5.9222908c0.0889893-1.5882645-0.1620178-3.1772232-0.7362366-4.6607246
			c-0.3629456-0.9503212-1.2966919-1.5587311-2.3126526-1.5068817c-1.5075378,0.0004311-2.7884521,1.102581-3.0137634,2.5931931
			L367.7133179,46.3460999z"/>
		<path class="st0" d="M395.1523743,50.0604057c-0.7826538,0.6083069-1.6749268,1.0604973-2.6283264,1.331955
			c-1.0049744,0.2746773-2.0417175,0.4160805-3.0835571,0.4205666c-1.3079224,0.0384712-2.605896-0.2379646-3.7846375-0.8060112
			c-1.0055237-0.5721893-1.8588867-1.3775253-2.4883118-2.3482513c-0.6625977-1.0763054-1.1255493-2.2633476-1.3666077-3.5040665
			c-0.2932434-1.5713844-0.4340515-3.167408-0.4205627-4.7658653c-0.223175-3.0407829,0.4990234-6.0762215,2.0677185-8.6906872
			c1.3934631-1.9387245,3.6779785-3.0347481,6.0621948-2.9083843c1.0965576-0.0150566,2.1908569,0.102602,3.2591553,0.3504124
			c0.7660828,0.2093563,1.5065613,0.5031853,2.2077637,0.8760738l-1.3666382,4.27528
			c-0.4819336-0.2467995-0.9866943-0.4463081-1.5071106-0.595726c-0.5717163-0.1496506-1.1611633-0.2204018-1.7520447-0.2102852
			c-1.1556396-0.0383339-2.2312927,0.5880013-2.7683716,1.6119766c-0.7422485,1.6230659-1.0674438,3.4057846-0.9460754,5.1863861
			c-0.0646973,1.6749153,0.2590942,3.3420868,0.9460754,4.871006c0.5188599,1.1913681,1.715332,1.9425278,3.0137634,1.8920937
			c0.6427002,0.0263519,1.2846069-0.0687637,1.8920898-0.2803497c0.512146-0.1742172,0.9961853-0.422123,1.4368591-0.7359047
			L395.1523743,50.0604057z"/>
		<path class="st0" d="M410.8515625,34.0807648h-4.8711853v17.2062187h-5.3615417V34.0807648h-4.9060059v-4.8008957h15.1385803
			L410.8515625,34.0807648z"/>
		<path class="st0" d="M412.7787781,29.3150883c0.8059998,0,1.8574219-0.1752052,3.1191406-0.2452698
			c1.2612305-0.0702515,2.6283264,0,3.9949036,0c2.0471191-0.1899643,4.100647,0.2896137,5.8518982,1.3666611
			c1.2049561,1.0213737,1.8442383,2.5605984,1.7173767,4.1351032c0.0021973,1.0493507-0.2504272,2.0835381-0.7362366,3.0136681
			c-0.4922485,0.9439392-1.2973633,1.6873398-2.2775269,2.1028442v0.1752052
			c2.4033508,0.5396996,4.0082092,2.810833,3.714386,5.2564507c0.1409912,1.8903198-0.6425476,3.7318001-2.102356,4.940979
			c-2.0937195,1.2995338-4.5552979,1.8780365-7.0086975,1.6471481h-3.5040894
			c-1.0227661,0.0586586-2.0487061-0.023922-3.0488892-0.2454071L412.7787781,29.3150883z M419.9977417,38.2509995
			c0.6504517,0.0267181,1.2835083-0.2138634,1.7520447-0.6658401c0.4743347-0.4417496,0.7306824-1.0695648,0.7010803-1.7170715
			c0.0664978-0.6581612-0.1356201-1.3152809-0.5605774-1.8222618c-0.5968933-0.464283-1.3511047-0.677948-2.1028442-0.595726
			h-1.9974365v4.7308807L419.9977417,38.2509995z M417.7900085,46.97686h1.8222961
			c0.8972778,0.0710182,1.7908325-0.1772079,2.5229187-0.7008667c0.5797424-0.5382462,0.8773804-1.3147163,0.8059998-2.102562
			c0.0393372-0.6837502-0.2008362-1.3541336-0.6654968-1.8572922c-0.6359253-0.5549202-1.4734497-0.821373-2.3131104-0.7359047
			h-2.1726074V46.97686z"/>
		<path class="st0" d="M430.3705444,40.2832642c-0.2226868-3.0801048,0.578125-6.1475182,2.2779846-8.7257195
			c3.2257385-3.5804558,8.7432251-3.8680096,12.3237-0.642271c0.2250977,0.2027931,0.4394531,0.4171753,0.6422729,0.642271
			c1.610321,2.5993462,2.358429,5.6409454,2.1374817,8.6906891c0.2226868,3.0800743-0.578125,6.1474648-2.2779846,8.7256279
			c-1.5731506,1.9208221-3.9685669,2.975441-6.4476318,2.838604
			C433.2442627,51.8475876,430.3705444,47.9926872,430.3705444,40.2832642z M435.8023376,40.2832642
			c-0.0697327,1.7246819,0.1796875,3.4474068,0.7357483,5.0814781c0.3288574,1.0953407,1.3447876,1.8393326,2.4882813,1.8222618
			c1.0809631,0.0272331,2.073822-0.5933456,2.5229187-1.5769463c0.6491089-1.6967659,0.9240417-3.5137177,0.8059998-5.326561
			c0.0834045-1.7482109-0.1662903-3.4963455-0.7357483-5.15131c-0.3818054-1.0977745-1.431427-1.8211594-2.5932007-1.7872276
			c-1.035675,0.0100937-1.968811,0.6276131-2.3829041,1.5769463c-0.7253418,1.6909027-1.0608521,3.5233765-0.9816284,5.3615913
			L435.8023376,40.2832642z"/>
		<path class="st0" d="M235.9165955,95.9665375c-0.7828827,0.6079559-1.6751099,1.0601044-2.6283112,1.331955
			c-1.0046234,0.2772446-2.0418396,0.4186859-3.0840149,0.4205627c-1.2965851,0.038002-2.5830841-0.2385483-3.749527-0.8060074
			c-1.0196686-0.5526733-1.8772583-1.3621445-2.4878082-2.3482513c-0.6852112-1.0685959-1.1609039-2.2577667-1.4017487-3.5041122
			c-0.2932434-1.571373-0.4340973-3.1673813-0.420578-4.7658157c-0.2051697-3.0393448,0.5155945-6.0695038,2.0672455-8.6909714
			c1.3829803-2.0005264,3.7042389-3.1410294,6.1329041-3.0132904c1.0847168-0.013382,2.1670837,0.1042404,3.223587,0.3503113
			c0.7660828,0.2092667,1.506546,0.5029984,2.2077484,0.8758011l-1.2261047,4.3803711
			c-0.4793091-0.2525406-0.9846649-0.4522858-1.5071106-0.595726c-0.5713043-0.1517105-1.1610718-0.222496-1.7520599-0.2102814
			c-1.1577911-0.0468674-2.2376556,0.581955-2.7683411,1.6120224c-0.7271881,1.6270828-1.0402985,3.4088669-0.9113922,5.1863861
			c-0.0645599,1.6750107,0.2593994,3.3422546,0.9465179,4.8712006c0.5105591,1.1982269,1.7122345,1.9527664,3.0132751,1.8920822
			c0.6303253,0.0091629,1.257843-0.0854568,1.8574371-0.2800598c0.512085-0.174324,0.9960938-0.4221649,1.4368591-0.7357635
			L235.9165955,95.9665375z"/>
		<path class="st0" d="M253.4380951,95.6162186c-0.8643646,0.7389679-1.8815765,1.2774887-2.9786377,1.5768967
			c-1.3056183,0.3942413-2.6670074,0.571907-4.0300598,0.5259476c-1.3634033,0.0285721-2.7160645-0.2467575-3.9598236-0.8060074
			c-1.0843658-0.5085297-2.0152588-1.2943497-2.6985626-2.2780075c-0.7363281-1.0613022-1.270874-2.2491608-1.576889-3.5041122
			c-0.340683-1.5890961-0.5051422-3.2109222-0.4903412-4.8360672c-0.2515564-3.1146469,0.5775604-6.2208786,2.3477783-8.7958755
			c1.5709076-1.891716,3.9195251-2.9627228,6.3778534-2.9083862c0.9272308-0.0004425,1.8490295,0.1413956,2.7332153,0.4205627
			c0.880188,0.2797623,1.6837463,0.7593536,2.3477936,1.4012756c0.7379913,0.7491302,1.3110352,1.6444244,1.6822662,2.6283112
			c0.4572754,1.3412933,0.6709137,2.7535629,0.6308594,4.1700974v2.0677109
			c-0.055542,0.8021088-0.1726685,1.5987625-0.3503113,2.3829117h-10.8284607
			c-0.0347137,1.4737091,0.36763,2.9247131,1.1563263,4.1700974c0.8451843,1.050293,2.1628876,1.6037598,3.5045624,1.4719925
			c0.8854065,0.0131073,1.7653046-0.14151,2.5932007-0.4556961c0.6500244-0.2093353,1.2643585-0.5164948,1.8218384-0.9109192
			L253.4380951,95.6162186z M246.4294128,79.1110077c-1.0281525-0.0397873-2.0008545,0.4664993-2.558075,1.3314896
			c-0.5967102,1.1365051-0.9206085,2.3963547-0.9460449,3.6797409h6.1675568
			c0.164032-1.2973557-0.0174255-2.6150284-0.5259552-3.8197784c-0.375351-0.8330688-1.2252502-1.3486938-2.1374969-1.2968216
			L246.4294128,79.1110077z"/>
		<path class="st0" d="M267.0349426,79.9170303h-3.0840454c-0.042572,2.3431168-0.2062378,4.6824722-0.4903259,7.0086899
			c-0.1523132,1.8723068-0.480835,3.7260742-0.9811707,5.536705c-0.3280334,1.2862854-0.9385681,2.4833298-1.7871704,3.5041122
			c-0.7058411,0.8733902-1.7874756,1.3556061-2.9088745,1.2968292c-0.6292419,0.0604095-1.2628479,0.0604095-1.8920746,0
			c-0.4843445-0.0888824-0.9479065-0.2670746-1.3670959-0.5254745l0.6308594-4.5559998
			c0.5573425,0.2504044,1.1951752,0.2504044,1.7525177,0c0.4903564-0.2449417,0.9109192-0.9811707,1.2261047-2.1726227
			c0.4117432-1.7377319,0.6697083-3.5083313,0.7709045-5.2913055c0-2.3477859,0.3156433-5.5366974,0.4205627-9.5316391h13.0362244
			V97.228241h-5.2566223L267.0349426,79.9170303z"/>
		<path class="st0" d="M281.4724121,82.9659119c0.6019287-0.1184845,1.2104797-0.2004471,1.8222961-0.2454147h1.6822815
			c1.0638428-0.0295334,2.12323,0.1489639,3.1186829,0.5254745c0.8233032,0.2889481,1.5591125,0.7835541,2.1375122,1.4368744
			c0.5407715,0.6302567,0.9357605,1.3721085,1.1567993,2.1726227c0.2454224,0.8780975,0.3634033,1.786911,0.3503113,2.6985703
			c0.0307312,1.1846008-0.1230164,2.3667679-0.455719,3.5041122c-0.2761841,0.9388885-0.7821045,1.7940979-1.4719849,2.4882813
			c-0.7647095,0.7124329-1.6903992,1.2293396-2.6980896,1.5066452c-1.3348694,0.365242-2.7164917,0.5306473-4.0998535,0.4908142
			h-3.9251404l-2.8385925-0.210289V75.1160812h5.2214966V82.9659119z M281.4724121,92.5326767
			c0.6392212,0.1741104,1.2998962,0.2567368,1.9623413,0.2454071c0.8016663,0.0861511,1.6026611-0.1682205,2.2077637-0.7011032
			c0.8752441-1.4268723,0.8887634-3.2210007,0.0351257-4.6609039c-0.5662537-0.5815659-1.3641663-0.8774033-2.1726379-0.8055496
			c-0.6905823-0.0122833-1.3781433,0.0943375-2.0325928,0.3151932V92.5326767z"/>
		<path class="st0" d="M307.1589661,95.9670029c-0.7912903,0.6149368-1.6962891,1.0674286-2.6629944,1.3314896
			c-1.0041199,0.2795868-2.041687,0.4210739-3.0840149,0.4205627c-1.2962341,0.0342331-2.5818481-0.2421341-3.7495117-0.8060074
			c-1.0196838-0.5526199-1.8774109-1.361908-2.4882813-2.3477936c-0.6712036-1.0757446-1.1458435-2.2622375-1.4017639-3.5041046
			c-0.2803955-1.5728149-0.4094543-3.1688614-0.385437-4.7662888c-0.2420044-3.0911713,0.4935913-6.1802292,2.1028442-8.8305359
			c1.3944702-1.9149399,3.6618347-2.9959488,6.0275574-2.8737259c1.0848083-0.0152664,2.1673889,0.1023788,3.2235718,0.3503113
			c0.7752075,0.2158432,1.5266418,0.5094223,2.2428589,0.8762665l-1.2617188,4.3803787
			c-0.4790955-0.2526245-0.984314-0.4523697-1.5066528-0.595726c-0.5596924-0.1498337-1.1376038-0.2206192-1.7169189-0.210289
			c-1.1659546-0.0433426-2.2543945,0.5825272-2.8034668,1.61203c-0.7097778,1.6323624-1.0221252,3.4098434-0.911377,5.1863861
			c-0.0645447,1.6750107,0.2594299,3.3422318,0.9465027,4.8712006c0.5188293,1.1911469,1.7150269,1.9422531,3.0132751,1.8920822
			c0.6305237,0.0118484,1.2585449-0.0830002,1.8574219-0.2805328c0.5153809-0.166481,1.0005493-0.4149246,1.4368896-0.7357635
			L307.1589661,95.9670029z"/>
		<path class="st0" d="M315.9899597,88.0469208h-1.1914673v9.1115341h-5.2917786V75.1160812h5.2215271v9.3916092l1.0865479-0.595726
			l3.6792603-8.7958755h5.6420898l-3.9949341,8.4806824l-1.9623413,1.7169266l2.1375122,1.7169342l4.4506226,10.1278381h-5.7471619
			L315.9899597,88.0469208z"/>
		<path class="st0" d="M326.2924805,86.1548386c-0.2393494-3.0865021,0.5760193-6.1628342,2.3126221-8.7256317
			c3.2073669-3.5708847,8.7022705-3.8655701,12.2731018-0.6581955c0.2310181,0.2074814,0.4507446,0.4271927,0.6582336,0.6581955
			c1.6105042,2.5991974,2.3586121,5.6408005,2.1374817,8.690506c0.2497559,3.0826492-0.5533142,6.1588745-2.2779846,8.7260895
			c-1.5586853,1.9199066-3.9438171,2.9754791-6.4129639,2.8381424
			C329.2008667,97.7190628,326.2924805,93.8641586,326.2924805,86.1548386z M331.7242432,86.1548386
			c-0.0697021,1.7246704,0.1797485,3.4473953,0.7357483,5.0814743c0.3321228,1.1080017,1.3666992,1.8550797,2.5229187,1.8218384
			c1.071167,0.0229111,2.0517273-0.5984879,2.4883118-1.5769043c0.6491089-1.6967163,0.9240417-3.5136185,0.8059998-5.3264236
			c0.0834045-1.7481918-0.1662903-3.4963074-0.7357483-5.1512527c-0.5152588-1.3983459-2.0665283-2.1142349-3.4648743-1.5989761
			c-0.6669922,0.2457733-1.2100525,0.7448044-1.5112305,1.3886871
			C331.888092,82.495224,331.6006775,84.3272629,331.7242432,86.1548386z"/>
		<path class="st0" d="M358.5671387,79.9170303h-6.6930237v17.2414398h-5.2566528V75.1160812h11.9496765V79.9170303z"/>
		<path class="st0" d="M359.3033447,86.1548386c-0.2397461-3.0865402,0.5756531-6.1630173,2.3126526-8.7256317
			c3.2067871-3.570755,8.7010803-3.8658142,12.2718201-0.6590347c0.2312927,0.2077332,0.4512939,0.4277267,0.6590271,0.6590347
			c1.6228638,2.595108,2.3833313,5.6370087,2.1726074,8.690506c0.2398376,3.0866852-0.5755615,6.1633301-2.3126221,8.7260895
			c-1.5588684,1.919693-3.9438782,2.9752121-6.4129944,2.8381424
			C362.0717163,97.7190628,359.3033447,93.8641586,359.3033447,86.1548386z M364.7346802,86.1548386
			c-0.0695496,1.7247086,0.1800537,3.4474258,0.7362366,5.0814743c0.3425598,1.1005478,1.3704834,1.8428268,2.5229187,1.8218384
			c1.071106,0.0225754,2.0514526-0.5987167,2.4883118-1.5769043c0.6486511-1.6968307,0.923584-3.5136414,0.8059998-5.3264236
			c0.0832214-1.7482224-0.166626-3.4963379-0.7362671-5.1512527c-0.3685303-1.0922241-1.4057312-1.8168564-2.558075-1.7871857
			c-1.0430908,0.0138855-1.9847107,0.6279449-2.4180298,1.5769043
			C364.8987427,82.495285,364.6113281,84.3272705,364.7346802,86.1548386z"/>
		<path class="st0" d="M392.6992188,85.8742981l-5.2561951-10.7582169h6.167572l2.2424011,5.2215118l0.841156,2.8034821
			l0.9460754-2.8034821l2.2779846-5.2215042h5.6765747l-5.2911377,10.5127945l5.6420593,11.4593277h-5.9573059l-2.6634521-5.746994
			l-0.9811707-3.1191406l-1.0163269,3.1191406l-2.6634521,5.746994h-5.6416016L392.6992188,85.8742981z"/>
		<path class="st0" d="M406.9264221,86.1548386c-0.2223816-3.0800552,0.5783997-6.1473541,2.2779846-8.7256317
			c3.2067871-3.570755,8.7010803-3.8658142,12.2718201-0.6590347c0.2312927,0.2077332,0.4512939,0.4277267,0.6590271,0.6590347
			c1.6387939,2.5883102,2.4006042,5.6355133,2.1726379,8.690506c0.2227783,3.080162-0.5778503,6.1476898-2.2775269,8.7260895
			c-1.5804138,1.9114532-3.9710999,2.963707-6.4480896,2.8381424
			C409.8001709,97.7190628,406.9264221,93.8641586,406.9264221,86.1548386z M412.3230896,86.1548386
			c-0.069519,1.7247086,0.1800537,3.4474258,0.7362366,5.0814743c0.4808044,1.410614,2.0140686,2.1643906,3.4246826,1.683609
			c0.7046814-0.2401733,1.2788086-0.7607956,1.5865479-1.4386749c0.6656799-1.6922989,0.9412231-3.5129318,0.8059998-5.3264236
			c0.0832214-1.7482224-0.166626-3.4963379-0.7362366-5.1512527c-0.3586121-1.0996399-1.4022217-1.828743-2.5581055-1.7871857
			c-1.0355835,0.0102692-1.9686279,0.6277084-2.3828735,1.5769043
			C412.4895935,82.4866714,412.1893921,84.3236084,412.3230896,86.1548386z"/>
		<path class="st0" d="M429.1439514,88.0469208v-3.9598083h2.102356c0.7260437,0.0251923,1.4322205-0.2395401,1.9627991-0.7357635
			c0.4831848-0.4383621,0.7516785-1.0652161,0.7357483-1.7173996c0-1.4363937-0.9109192-2.1726227-2.7332458-2.1726227
			c-0.7856445-0.0197906-1.568634,0.0989532-2.3131104,0.3507843c-0.5770264,0.1766586-1.1300964,0.4237747-1.6466675,0.7357635
			l-1.1914673-4.1700897c0.9362488-0.5098267,1.9386902-0.8873215,2.9786377-1.1216736
			c1.2595825-0.3223038,2.5542603-0.4870071,3.8544312-0.4903488c4.2052307,0,6.2729492,1.8574371,6.2729492,5.5015793
			c0.0187378,1.0582886-0.2219849,2.1050797-0.7011108,3.0488815c-0.4158936,0.9208603-1.1679688,1.6479797-2.102356,2.0325928
			v0.210289c1.0946045,0.2510147,2.056488,0.9006653,2.6981201,1.8223038
			c0.6009216,1.0670242,0.8922424,2.2805634,0.841156,3.5041122c-0.0061646,0.8952103-0.1601257,1.7832718-0.4556885,2.6283112
			c-0.3260498,0.7925034-0.8294678,1.4997025-1.4715271,2.0672531c-0.6995544,0.6306076-1.5231628,1.1080475-2.4180298,1.4017334
			c-1.1300049,0.3723907-2.315033,0.5502396-3.5045776,0.5259476c-1.1816101,0.0178223-2.36026-0.1236343-3.5040894-0.4205627
			c-0.8855286-0.2154694-1.7352905-0.5577698-2.5229187-1.0162964l1.0509644-4.2754669
			c0.6154785,0.3465729,1.2760315,0.606163,1.9627991,0.771347c0.7810059,0.1839447,1.5805054,0.277916,2.3828735,0.2800674
			c2.1726379,0,3.2236023-0.8411407,3.2236023-2.5580673c0.0253601-0.6690903-0.2750244-1.3089981-0.8059998-1.7169342
			c-0.9225769-0.4945297-1.9719543-0.7019882-3.0133057-0.595726L429.1439514,88.0469208z"/>
		<path class="st0" d="M452.5176697,88.8178101l-1.9623413,0.5259476l-3.1537781,7.8142319h-6.0978088l3.5045776-7.0082245
			l1.7169495-1.401741c-1.1853943-0.3014603-2.204895-1.0566864-2.838623-2.1028366
			c-0.7840881-1.2717896-1.1741943-2.7472153-1.1212158-4.2403412c-0.1868286-2.1944962,0.6239319-4.3565445,2.2077332-5.8870239
			c2.0420532-1.4306412,4.5260925-2.0889664,7.0086975-1.8574295c1.1708069-0.0317154,2.3422852,0.0268478,3.5041199,0.1751633
			c0.9180908,0.1061172,1.8303223,0.2582092,2.7332153,0.4556885v21.9721298h-5.2561646L452.5176697,88.8178101z
			 M452.5176697,85.8742981v-6.3427124c-0.5047607-0.2313232-1.057251-0.3395157-1.61203-0.3156586
			c-2.067688,0-3.0840149,1.1567917-3.0840149,3.5045776c0,2.3477936,1.1567993,3.2938385,3.5045776,3.5041122
			L452.5176697,85.8742981z"/>
		<path class="st0" d="M472.2110291,87.556572l0.3887024-3.5041122l-1.896759,3.6792755l-5.9202576,9.4267349h-3.5041199V75.1160812
			h5.2214966v9.9873276l-0.385437,3.5045853l1.5769043-3.5045853l5.9573059-9.7770462h3.5031738v22.0423813h-5.2219849
			L472.2110291,87.556572z M467.7243347,66.1455078c-0.0049133,0.8568878,0.2391357,1.6967545,0.7025146,2.417572
			c0.5418701,0.8097916,1.6376038,1.0269928,2.4473877,0.4851303c0.1799622-0.1204376,0.3362732-0.2729797,0.4609985-0.4500122
			c0.4595947-0.7269287,0.7255554-1.5593109,0.7727661-2.4180298l3.957489,0.9811707
			c-0.151062,1.687645-0.9399414,3.2541885-2.2059021,4.3803711c-1.1660156,0.9476471-2.6335449,1.4450836-4.135437,1.401741
			c-0.7585754-0.001091-1.5133667-0.1071625-2.2428589-0.3151932c-0.7110901-0.197937-1.3773499-0.5310745-1.9623413-0.9811707
			c-0.6165466-0.4797897-1.1192627-1.0901184-1.4719849-1.787178c-0.4463196-0.8467255-0.7089844-1.7780838-0.770874-2.7332306
			L467.7243347,66.1455078z"/>
		<path class="st0" d="M494.2182617,95.9670029c-0.7916565,0.6154099-1.6973877,1.0679398-2.664856,1.3314896
			c-1.0033264,0.2796021-2.0400696,0.4210892-3.081665,0.4205627c-1.296814,0.033989-2.5829773-0.2423477-3.7514038-0.8060074
			c-1.0093384-0.5662537-1.8635254-1.3726501-2.4868774-2.3477936c-0.6714172-1.0756454-1.1456299-2.2624207-1.4003296-3.5045776
			c-0.2636108-1.5747604-0.3920898-3.1691742-0.3840637-4.765831c-0.224884-3.0405655,0.496582-6.0762253,2.0653992-8.6904984
			c1.3683472-1.9788589,3.6566467-3.1168213,6.0603027-3.0137634c1.0858765-0.0152435,2.1695557,0.1024017,3.2268677,0.3503113
			c0.7751465,0.2164154,1.5267029,0.5099716,2.2433167,0.8762665l-1.2270508,4.3803787
			c-0.4907837-0.2531662-1.0073547-0.4528885-1.5408325-0.595726c-0.5603333-0.1497879-1.1388855-0.2205734-1.7187805-0.210289
			c-1.1665344-0.0437012-2.2557373,0.5821609-2.8053589,1.6120224c-0.7084351,1.6327057-1.0198059,3.4100876-0.9085693,5.1863937
			c-0.0658875,1.6749191,0.2579651,3.3422546,0.9460449,4.8707352c0.5174561,1.1915054,1.7133789,1.9430847,3.0114136,1.8925552
			c0.6416626,0.0086823,1.2805481-0.0860367,1.8920898-0.2805328c0.5018616-0.1750946,0.9752502-0.4229965,1.4050293-0.7357635
			L494.2182617,95.9670029z"/>
		<path class="st0" d="M509.8842163,79.9170303h-4.8379211v17.2414398h-5.2547913V79.9170303h-5.0112305v-4.8009491h15.1039429
			V79.9170303z"/>
		<path class="st0" d="M511.8091125,75.1863251c0.8429871,0,1.8920593-0.1751556,3.1565857-0.2454071
			c1.2598267-0.0702515,2.6273804,0,3.9949341,0c2.0460815-0.1851959,4.0973511,0.2940369,5.8495483,1.3666153
			c1.2045898,1.0216904,1.8442383,2.5604401,1.718811,4.1349716c0.0021362,1.0492554-0.2501831,2.083374-0.7352905,3.0137558
			c-0.5067749,0.9458694-1.3237915,1.6884308-2.3135986,2.1028442c2.416748,0.5256042,4.039856,2.7997894,3.7514038,5.2561646
			c0.1370239,1.8897552-0.6459961,3.7295609-2.1028442,4.940979c-2.1034546,1.2758713-4.5615845,1.8410645-7.0110474,1.6120224
			h-3.5031738c-1.0328369-0.0410538-2.0629272-0.1345367-3.0863342-0.2800598L511.8091125,75.1863251z M519.0308838,84.1222382
			c0.3269043,0.0160599,0.6535645-0.0347824,0.960083-0.1494064c0.3075562-0.1132965,0.5882568-0.2891922,0.8243408-0.5165787
			c0.2351685-0.218277,0.4204712-0.4847336,0.5432129-0.781189c0.1181641-0.2972794,0.1724243-0.6161041,0.1592407-0.9357376
			c0.0559692-0.6681213-0.1450195-1.332428-0.5620117-1.8574371c-0.6049194-0.4459229-1.3562012-0.646225-2.1028442-0.5606003
			h-1.9951172v4.73069L519.0308838,84.1222382z M516.8577881,92.8478622h1.8218384
			c0.8934937,0.0808868,1.7870483-0.1548462,2.524353-0.6659851c0.5678101-0.5461426,0.8630371-1.3166656,0.805542-2.1023712
			c0.0131226-0.3406754-0.0410156-0.6805954-0.1591797-1.0003738c-0.1209717-0.3196564-0.3058472-0.61129-0.5432739-0.8570633
			c-0.6177979-0.5608978-1.4469604-0.8289337-2.276123-0.7357635h-2.1730957L516.8577881,92.8478622z"/>
		<path class="st0" d="M530.2803955,76.4480362c1.0262451-0.5870056,2.1367188-1.0125504,3.2924194-1.2617111
			c1.4709473-0.3403168,2.9770508-0.504921,4.4866943-0.4903488c1.947937-0.2230835,3.8860474,0.4921875,5.2219849,1.9272232
			c1.0765991,1.6246109,1.5930176,3.5564651,1.4705811,5.5015793v11.7047272
			c0.0547485,1.1879044,0.2544556,2.3646774,0.5947876,3.5041046h-4.5569458l-0.805481-2.6985703
			c-0.4821167,0.8636856-1.1668091,1.5973663-1.9951782,2.1379623c-0.9721069,0.5821228-2.0951538,0.8626404-3.2268677,0.806015
			c-1.5546875,0.072464-3.0594482-0.5581818-4.0979614-1.7173996c-1.0339966-1.3264389-1.5560303-2.9807587-1.4705811-4.6604385
			c-0.21698-2.2510529,0.8705444-4.42836,2.8006592-5.6069641c2.3378296-1.2193832,4.984314-1.7193527,7.605835-1.4368668
			c0.2061768-1.2333069,0.0982666-2.4986877-0.3137817-3.6792755c-0.4703369-0.8333511-1.4038696-1.2926788-2.3510742-1.1567917
			c-0.9189453,0.005127-1.8345337,0.1109772-2.7304077,0.3156586c-0.8763428,0.1794662-1.7251587,0.4739456-2.524353,0.8757935
			L530.2803955,76.4480362z M536.5514526,92.9532394c0.6929321,0.0440521,1.3779297-0.1679459,1.9248657-0.5957184
			c0.4764404-0.3324051,0.8626709-0.7780457,1.1240234-1.2968292v-3.5041122c-0.6401367-0.0889893-1.2894287-0.0889893-1.9295654,0
			c-0.5666504,0.0285568-1.1235352,0.1591415-1.6438599,0.3854446c-0.4458618,0.2033997-0.8326416,0.5168762-1.1240234,0.9109192
			c-0.2939453,0.4462585-0.4412842,0.9731216-0.4215088,1.5071182c-0.0325317,0.7309494,0.1639404,1.4538269,0.5620728,2.0677109
			c0.1928101,0.2005692,0.4302979,0.3527069,0.6931152,0.4439926
			C535.9978027,92.9634552,536.2772217,92.9913864,536.5514526,92.9532394z"/>
		<path class="st0" d="M224.9481049,117.904007c1.1572571-0.2407379,2.3271484-0.4163361,3.5041046-0.5259476
			c1.3149872-0.1437912,2.6369781-0.2140045,3.9598083-0.210289c1.329895-0.0122375,2.6573181,0.1171188,3.9598083,0.38591
			c1.2625275,0.2257309,2.4593658,0.7282639,3.5045776,1.4715195c1.0797119,0.8070679,1.945816,1.8657913,2.5229492,3.0840149
			c0.6916351,1.6507339,1.0144958,3.4325714,0.9460449,5.2210388c0.0532379,1.6837692-0.2204895,3.3618698-0.806015,4.9414444
			c-0.467514,1.2472534-1.2101135,2.3730927-2.1726379,3.2938385c-0.9028931,0.8421783-1.9794312,1.4761963-3.1537933,1.8574371
			c-1.1333923,0.3612061-2.3145905,0.5501709-3.5041199,0.5605927h-2.8385925v10.5128021h-5.9221344V117.904007z
			 M230.519928,132.8323212c0.3257751,0.041214,0.6554108,0.041214,0.9811707,0h0.9811707
			c0.6278229,0.0094452,1.2536163-0.0732422,1.8574219-0.2454224c0.5892487-0.1770477,1.1291351-0.4889374,1.5769043-0.9109192
			c0.4926758-0.4860535,0.854248-1.088974,1.0509491-1.7525177c0.292099-0.9165344,0.4225464-1.8769073,0.385437-2.8381424
			c0.0300446-0.8320465-0.0885773-1.6627808-0.3503113-2.4531631c-0.1985626-0.6138992-0.5479889-1.1681671-1.0162964-1.6120224
			c-0.4103241-0.4094162-0.9159851-0.7103806-1.4715271-0.8757935c-0.5684357-0.1698532-1.1593018-0.2526016-1.7525177-0.2454147
			c-0.7530975-0.0170288-1.5056152,0.0535431-2.2424164,0.210289L230.519928,132.8323212z"/>
		<path class="st0" d="M243.8011017,137.4225159c-0.233902-3.0859985,0.5809937-6.1605835,2.3126526-8.7256317
			c3.2083435-3.5708847,8.7039795-3.8647842,12.2748871-0.6564484c0.2303467,0.2069702,0.4494629,0.4261017,0.6564331,0.6564484
			c1.6060486,2.6010742,2.3537598,5.6412048,2.1375122,8.690506c0.2497559,3.0826416-0.5533142,6.1588745-2.2780151,8.7260895
			c-1.5586853,1.9199066-3.9438171,2.9754791-6.4129639,2.8381348
			C246.7094727,148.9867401,243.8011017,145.132309,243.8011017,137.4225159z M249.2328949,137.4225159
			c-0.0867767,1.7227631,0.1508942,3.4464874,0.7006378,5.0814819c0.3323822,1.1080933,1.3670197,1.8552551,2.523407,1.8222961
			c1.0708618,0.0222015,2.0508881-0.598999,2.4878235-1.576889c0.6491241-1.6968842,0.924057-3.5139465,0.806015-5.326889
			c0.0834045-1.7481995-0.1662903-3.4963226-0.7357635-5.1512604c-0.4405212-1.4238434-1.951889-2.220993-3.3757324-1.7804718
			c-0.7758789,0.240036-1.4024048,0.8167725-1.7057495,1.5701752
			C249.3040924,133.7737885,249.0647278,135.6054535,249.2328949,137.4225159z"/>
		<path class="st0" d="M277.1621399,147.2351532c-0.7828979,0.6078033-1.6751099,1.0597992-2.6282959,1.3314819
			c-1.0046082,0.2772827-2.0418396,0.4187317-3.0840149,0.420578c-1.2981873,0.056076-2.5890808-0.2214203-3.7495422-0.806015
			c-1.0276489-0.5413666-1.8878784-1.3531952-2.487793-2.3477936c-0.6850281-1.0686951-1.1607056-2.2578278-1.4017639-3.5041046
			c-0.295105-1.5711212-0.4359436-3.1673126-0.4205627-4.7658234c-0.2007751-3.0389709,0.5196838-6.0678406,2.0672302-8.6909637
			c1.4006348-1.949501,3.7013245-3.0468292,6.0977783-2.9083862c1.0848694-0.013382,2.1673889,0.104248,3.2240601,0.3503189
			c0.7727966,0.2051544,1.5151367,0.5114441,2.2077637,0.9109192l-1.226593,4.345726
			c-0.479187-0.2528229-0.9845581-0.4525757-1.5071106-0.5957336c-0.571228-0.1521912-1.1610718-0.2229919-1.7520752-0.2102814
			c-1.1535034-0.0298615-2.2249756,0.5940704-2.7683411,1.6120148c-1.243927,3.2369843-1.243927,6.8201447,0,10.0571136
			c0.5110474,1.1981049,1.712616,1.952652,3.0137634,1.8925629c0.6313782,0.0258179,1.2618408-0.069397,1.8574219-0.2805328
			c0.5119934-0.1742401,0.9958801-0.4220886,1.4364319-0.7357635L277.1621399,147.2351532z"/>
		<path class="st0" d="M291.9850769,147.2346802c-0.7827759,0.6079865-1.6750488,1.0600128-2.6282959,1.3314972
			c-1.0049438,0.2749329-2.0417175,0.4163361-3.0835571,0.4205627c-1.2858887,0.0441895-2.5625-0.2328339-3.714386-0.806015
			c-1.0197754-0.5524902-1.877533-1.3618011-2.4882813-2.3477783c-0.6625977-1.0763397-1.1255493-2.2633972-1.3666382-3.5041199
			c-0.295105-1.571106-0.4359436-3.1672974-0.4205627-4.7658081c-0.218811-3.0405273,0.5030823-6.0747528,2.0677185-8.6909637
			c1.3933411-1.9388809,3.677948-3.0349426,6.0621643-2.9083939c1.0850525-0.0176239,2.1680908,0.1000595,3.2240601,0.3503189
			c0.8146973,0.1810989,1.6034546,0.4636765,2.3477783,0.8411407l-1.226593,4.3452454
			c-0.4910583-0.2533264-1.0079651-0.453064-1.5417786-0.5957184c-0.5596924-0.1498413-1.1376038-0.2206268-1.7169189-0.2102966
			c-1.1555786-0.0380554-2.2310791,0.5882263-2.7683411,1.61203c-0.742157,1.6231079-1.0674744,3.4057617-0.9465027,5.1863861
			c-0.0645752,1.6748657,0.2593689,3.3419495,0.9465027,4.8707275c0.5186157,1.1916046,1.7151794,1.9429932,3.0137634,1.8925629
			c0.6427307,0.0262604,1.2846375-0.0689087,1.8920898-0.2805328c0.5011597-0.1743317,0.9736023-0.4223175,1.4017334-0.7357635
			L291.9850769,147.2346802z"/>
		<path class="st0" d="M305.2668762,138.8242493l0.385437-3.5041046l-1.61203,3.749527l-5.9221497,9.4267273h-3.5045776v-22.077507
			h5.0814819v9.9873276l-0.385437,3.5045776l1.5768738-3.5045776l5.9573059-9.7770538h3.5040894v22.0072632h-5.0809937V138.8242493z
			"/>
		<path class="st0" d="M325.0658875,138.8247223l0.385437-3.5045929l-1.646698,3.75l-5.8876038,9.4262543h-3.5041199v-22.077034
			h5.2561646v9.9873276l-0.385437,3.5041199l1.61203-3.5041199l5.9221497-9.7770462h3.5045776v22.0072556h-5.2566223
			L325.0658875,138.8247223z M320.5805664,117.4131927c-0.006073,0.856926,0.2373657,1.6970978,0.7006226,2.4180298
			c0.3299866,0.4879608,0.8829651,0.777565,1.4720154,0.7708893c0.5810242,0.0089111,1.1300354-0.2655869,1.4715271-0.7357635
			c0.4453735-0.7204971,0.7098694-1.5380554,0.770874-2.3829117l3.9602356,0.9460449
			c-0.1937561,1.6831665-0.990509,3.2392273-2.2428589,4.3803787c-1.1568604,0.939476-2.6104126,1.4363937-4.1003113,1.4017334
			c-0.7585754,0.0008621-1.5134888-0.1052551-2.2424011-0.3151932c-0.7218018-0.1979752-1.3995667-0.5309067-1.997467-0.981163
			c-0.6165466-0.4797974-1.1192627-1.090126-1.4719849-1.7871857c-0.431366-0.8527985-0.6931152-1.7811813-0.770874-2.733696
			L320.5805664,117.4131927z"/>
		<path class="st0" d="M347.0731506,147.2346802c-0.7828064,0.6079865-1.6750488,1.0600128-2.6283264,1.3314972
			c-1.0049438,0.2749023-2.041687,0.4163055-3.0835571,0.4205627c-1.3219604,0.0718231-2.6395264-0.206192-3.8197632-0.806015
			c-1.02771-0.5414734-1.888031-1.3532562-2.4883118-2.3477783c-0.6847839-1.0688019-1.1604614-2.2578888-1.4017334-3.5041199
			c-0.295105-1.571106-0.4359436-3.1672974-0.4205627-4.7658081c-0.2003784-3.0390015,0.5202332-6.0678101,2.0677185-8.6909637
			c1.3934021-1.9390182,3.6782532-3.0350952,6.0626526-2.9083939c1.0963745-0.0150146,2.1905518,0.1026154,3.2586975,0.3503189
			c0.7728577,0.2050705,1.5151672,0.5113602,2.2077637,0.9109192l-1.226593,4.3457184
			c-0.4790955-0.2527313-0.984314-0.4524841-1.5066528-0.5957184c-0.5716858-0.149826-1.1611633-0.2205811-1.7520752-0.2102966
			c-1.1557312-0.0386047-2.2314758,0.5878296-2.7683411,1.61203c-0.727478,1.6269989-1.0405884,3.408844-0.9114075,5.1863861
			c-0.0574341,1.6707916,0.2537231,3.3337402,0.9114075,4.8707275c0.5266113,1.1847229,1.7178955,1.9328308,3.0137634,1.8925629
			c0.6427307,0.0262604,1.2846375-0.0689087,1.8920898-0.2805328c0.5121765-0.1741333,0.9961853-0.4219971,1.4368591-0.7357635
			L347.0731506,147.2346802z"/>
		<path class="st0" d="M355.9388123,139.3150787h-1.1916199v9.1110687h-5.2561646v-22.0072556h5.2561646v9.3564835
			l1.0514526-0.5957336l3.714386-8.7607422h5.6420593l-4.0300598,8.4455566l-1.9271851,1.7169342l2.1028137,1.717392
			l4.4501648,10.1273651h-5.8869934L355.9388123,139.3150787z"/>
		<path class="st0" d="M366.2769165,137.4229889c-0.2227783-3.0800323,0.5778503-6.1473999,2.2775269-8.7256317
			c1.5544739-1.9091644,3.9178772-2.9740601,6.3778381-2.8737259c2.5417786-0.1786194,5.0076904,0.910141,6.5881348,2.9088516
			c1.6062317,2.6009827,2.3539734,5.6411896,2.1374817,8.690506c0.2228699,3.0800171-0.5777893,6.1474152-2.2775269,8.7256165
			c-1.5733948,1.9207458-3.9689331,2.9753113-6.4480896,2.8386078
			C369.0799255,148.9872131,366.2769165,145.132309,366.2769165,137.4229889z M371.7082214,137.4229889
			c-0.0754395,1.7250061,0.1743164,3.4488068,0.7362671,5.0814667c0.3286438,1.0952148,1.3444519,1.8390961,2.487793,1.8218384
			c1.0811768,0.0280609,2.0744324-0.5927582,2.5229187-1.576889c0.6491089-1.6967163,0.9240723-3.5136261,0.8059998-5.3264313
			c0.0836182-1.7481995-0.1660461-3.4963684-0.7357483-5.1512604c-0.3843689-1.0912781-1.4373169-1.8027039-2.5932007-1.7520447
			c-1.0299988-0.0048828-1.9652405,0.6002502-2.3829041,1.5417633
			C371.8723145,133.7634277,371.5849304,135.5954285,371.7082214,137.4229889z"/>
		<path class="st0" d="M397.4299011,138.8247223l0.4205627-3.5045929l-1.61203,3.75l-6.1324463,9.3564758h-3.5040894v-22.0072556
			h5.2210388v9.9873276l-0.385437,3.5041199l1.5769043-3.5041199l5.9226074-9.7770462h3.5041199v22.0072556h-5.2566223
			L397.4299011,138.8247223z M392.9446106,117.4131927c0.0195313,0.8581238,0.2739868,1.6944656,0.7357483,2.4180298
			c0.3093567,0.4925385,0.8554382,0.7855148,1.4368591,0.7708893c0.582428,0.0150833,1.1341553-0.2607727,1.4715271-0.7357635
			c0.4603577-0.7135162,0.7262878-1.5349579,0.7713623-2.3829117l3.9598083,0.9460449
			c-0.1517639,1.6878586-0.9412842,3.2543564-2.2077332,4.3803787c-1.1659546,0.9473648-2.6332397,1.4447632-4.1349487,1.4017334
			c-0.758728,0.0008621-1.5137634-0.1052551-2.2428589-0.3151932c-0.7141113-0.1900711-1.3818665-0.5239487-1.9623413-0.981163
			c-0.6174316-0.4883118-1.1300354-1.0961609-1.5071106-1.7871857c-0.4153748-0.8589401-0.6763-1.7842941-0.770874-2.733696
			L392.9446106,117.4131927z"/>
		<path class="st0" d="M425.1490173,145.0625305c-0.477478,0.0533905-0.9593811,0.0533905-1.4368591,0h-1.5769043
			c-1.1245728,0.0089264-2.2372742-0.230484-3.2586975-0.7011108c-1.0147705-0.5240173-1.8912964-1.2805023-2.558075-2.2077484
			c-0.7719727-1.1693726-1.3407593-2.4608154-1.6822815-3.8197632c-0.4536438-1.8215942-0.6657104-3.694931-0.6308289-5.5718384
			c-0.202179-3.3242188,0.630249-6.6294785,2.3828735-9.46138c1.4465027-2.1263962,3.8774414-3.3683701,6.4481201-3.2942963
			h1.1563416c0.3897095,0.0252686,0.7765808,0.0838699,1.156311,0.1751556v-3.5392456h5.5718384v3.8900299
			c0.5108948-0.1628876,1.0411682-0.257225,1.5769043-0.2805405h1.4719849
			c2.3287659-0.064476,4.5267029,1.074234,5.8172607,3.0137634c0.7737122,1.1768951,1.3314819,2.4822693,1.6471558,3.8548889
			c0.4367981,1.7882614,0.637085,3.626091,0.5957031,5.4664536c0.0378723,1.8791962-0.1862793,3.7545013-0.6659546,5.5718384
			c-0.3717957,1.4161224-0.9885254,2.7562866-1.8223267,3.9598083c-0.7066345,1.0021057-1.6441345,1.8194275-2.7332153,2.3829041
			c-1.0845337,0.551712-2.2879944,0.8284912-3.5045776,0.806015h-1.3315125
			c-0.4049683-0.0373535-0.8045959-0.1195068-1.1914673-0.2449341v4.3101196h-5.4317932V145.0625305z M423.6072693,140.5065308
			h0.8762512c0.3141785,0.0388794,0.6319275,0.0388794,0.9460754,0v-15.3835373h-1.6471558
			c-1.2791138,0.0158997-2.4478455,0.7277374-3.0488892,1.8569565c-0.9062195,1.88591-1.3047791,3.9755859-1.1563416,6.0626526
			c-0.1056824,1.9150085,0.255127,3.8270416,1.0514526,5.5718231c0.5195618,1.126358,1.6336975,1.8599243,2.8737183,1.8920898
			L423.6072693,140.5065308z M432.1577148,125.052742h-0.9460449c-0.3320618,0.0256805-0.6607666,0.0843506-0.9812012,0.1751556
			v15.138588c0.2316589,0.0421448,0.4689636,0.0421448,0.7006226,0h0.8762817
			c1.2990723-0.0104218,2.4858398-0.7386169,3.0835571-1.8920898c0.9389343-1.8504791,1.3511047-3.9234619,1.1914673-5.9923859
			c0.0955505-1.9074097-0.2398071-3.8118134-0.9812012-5.5718307
			C434.581604,125.7565079,433.4226685,125.0251923,432.1577148,125.052742z"/>
		<path class="st0" d="M459.3513794,146.7794647c-0.8789978,0.7448425-1.9062805,1.2943268-3.0137634,1.6120148
			c-1.2824707,0.3964996-2.6174316,0.5973206-3.9598083,0.5957336c-1.3494568,0.0404358-2.6907349-0.2230225-3.9246521-0.7708893
			c-1.0833435-0.5263672-2.0127563-1.3230286-2.6985779-2.3131409c-0.7364197-1.0612488-1.2709656-2.249115-1.5769043-3.5041046
			c-0.3562012-1.5983582-0.5209656-3.233429-0.4908142-4.8707275c-0.2512207-3.1146851,0.578064-6.2208557,2.3482666-8.7958679
			c1.6229858-1.9152145,4.0457764-2.9647217,6.553009-2.8386078c0.9156799,0.0000153,1.8258667,0.1418839,2.6981201,0.4205704
			c0.8875732,0.2636948,1.6949158,0.7456284,2.3482361,1.4017334c0.7554321,0.7485275,1.3305664,1.6591873,1.6817932,2.6629715
			c0.4575195,1.3292694,0.6712341,2.7302246,0.6308594,4.135437c0.0510559,0.6881409,0.0510559,1.3791199,0,2.0672455
			c-0.0427551,0.8013458-0.1482544,1.5980988-0.3156738,2.3829193H448.838623
			c-0.0275269,1.4838409,0.3740234,2.9440613,1.1563416,4.2052155c0.8560486,1.0323486,2.1697083,1.5710144,3.5041199,1.4368744
			c0.8822327,0.0112457,1.7597351-0.131073,2.5932007-0.420578c0.6383667-0.2272186,1.240387-0.5458832,1.7871704-0.9460449
			L459.3513794,146.7794647z M452.3426819,130.2742462c-1.0386047-0.0472565-2.0199585,0.4770203-2.558075,1.3666077
			c-0.6300049,1.1503143-0.9670105,2.4380798-0.9811707,3.749527h6.1675415
			c0.1281738-1.296875-0.0518799-2.6056824-0.5254517-3.8197632c-0.368927-0.7737122-1.1410522-1.274704-1.9979248-1.2963715
			H452.3426819z"/>
		<path class="st0" d="M481.6714478,153.4378357h-3.9574585l-0.5620117-5.0112305h-11.7034607l-0.5605774,5.0112305h-3.8197632
			v-9.8121643h2.102356c0.2775879-0.5414276,0.5120239-1.1039429,0.7010803-1.6822815
			c0.3787842-1.0729828,0.6716614-2.1743927,0.8757935-3.2938232c0.3306885-1.6908417,0.5647583-3.3991394,0.7010803-5.1166077
			c0.2225647-2.3293152,0.3277588-4.6683502,0.3151855-7.0082321h13.2474365v17.1009293h2.6601563L481.6714478,153.4378357z
			 M473.7893066,143.9408569v-12.8605957h-3.3298645c0,1.0509491-0.1733093,2.2077484-0.2810059,3.5041046
			c-0.1030579,1.2968292-0.2107544,2.4531708-0.3840332,3.5045929c-0.1733093,1.0509491-0.3840637,2.2775269-0.5947876,3.2938232
			c-0.1916199,0.859787-0.4500122,1.7033386-0.7727661,2.5229492L473.7893066,143.9408569z"/>
		<path class="st0" d="M498.7377625,146.7794647c-0.8695679,0.7392273-1.8841858,1.2883301-2.9786377,1.6120148
			c-1.2823486,0.3937225-2.6160889,0.5944977-3.957489,0.5957336c-1.3615112,0.0396729-2.7148438-0.2236328-3.9621582-0.7708893
			c-1.0823059-0.5275574-2.0111084-1.3239899-2.6976013-2.3131409c-0.7355652-1.0613098-1.269043-2.2492218-1.5736084-3.5041046
			c-0.3413391-1.6007385-0.5062866-3.2340546-0.4917908-4.8707275c-0.2527771-3.1145477,0.5758972-6.2210388,2.3463745-8.7958679
			c1.6230774-1.9145737,4.0452881-2.9639511,6.5520935-2.8386078c0.9276123,0.0024033,1.8495789,0.1441803,2.7350769,0.4205704
			c0.8797302,0.2801819,1.6827393,0.7599106,2.3463745,1.4017334c0.7347717,0.7586746,1.2970581,1.6670303,1.6485596,2.6629715
			c0.4866333,1.3226166,0.7124329,2.726944,0.6650391,4.135437c0.0515137,0.6881256,0.0515137,1.3791199,0,2.0672455
			c-0.0420532,0.8013-0.1469727,1.598053-0.3138123,2.3829193h-10.8279724
			c-0.0275879,1.483902,0.3741455,2.9441833,1.1567993,4.2052155c0.8592834,1.0274048,2.1699524,1.5650024,3.5031738,1.4368744
			c0.8827209,0.0110474,1.7606201-0.1312561,2.5946045-0.420578c0.6459045-0.2346344,1.2583618-0.5526886,1.8218384-0.9460449
			L498.7377625,146.7794647z M491.7313843,130.2742462c-1.038269-0.046936-2.019165,0.4773102-2.5571289,1.3666077
			c-0.6317749,1.149704-0.969635,2.4377441-0.98349,3.749527h6.1680298c0.1630554-1.297226-0.0178223-2.6145172-0.5245361-3.8197632
			c-0.3469238-0.7305145-1.053894-1.2234497-1.859314-1.2963715H491.7313843z"/>
		<path class="st0" d="M502.8403931,126.4193497h3.9246826l0.5245361,2.4882889
			c0.5675964-0.9382629,1.3471375-1.730484,2.276123-2.3131332c0.9522095-0.4928818,2.0146484-0.7340698,3.0863647-0.7006302
			c2.0098267-0.1131973,3.9291992,0.8468399,5.0440063,2.5229492c1.3286133,2.5937347,1.9122314,5.5049896,1.6860352,8.4104309
			c0.1921387,3.1652069-0.5383911,6.318161-2.1028442,9.0764008c-1.3599243,2.039917-3.685791,3.2222137-6.1352234,3.1186676
			c-0.5999756,0.02211-1.2001648-0.0368042-1.7843628-0.1751556c-0.499176-0.0977936-0.975647-0.2879181-1.4050293-0.5605927
			v8.9359131h-5.2547607L502.8403931,126.4193497z M508.0951843,143.4856262
			c0.2715149,0.2954102,0.6083069,0.5233002,0.98349,0.6655121c0.460907,0.1567993,0.9465942,0.2280731,1.433136,0.2102814
			c1.1524353,0.0146942,2.2018738-0.6614532,2.6648254-1.7169342c0.7608643-1.8766327,1.0844116-3.9018707,0.946106-5.9221344
			c0.0788574-1.584549-0.1583862-3.1689606-0.697876-4.6609192c-0.1895752-0.4624481-0.5165405-0.8555908-0.9366455-1.1263428
			c-0.4208374-0.2699738-0.9149475-0.402832-1.4143982-0.3802948c-1.4706116,0-2.4541016,0.8406677-2.9786377,2.5931854V143.4856262
			z"/>
		<path class="st0" d="M522.5668335,127.7161789c1.0307007-0.5811157,2.1417847-1.0063019,3.2971191-1.2617035
			c1.4716187-0.3363342,2.9771729-0.5010452,4.4866943-0.4908142c1.9445801-0.206543,3.8741455,0.5063858,5.2172852,1.927681
			c1.0803223,1.6362305,1.5982056,3.5798492,1.4752808,5.5367126v11.4939728
			c0.0357666,1.190033,0.2359619,2.3693848,0.5947876,3.5045929h-4.2759399l-0.8430176-2.6985779h-0.1732788
			c-0.4630737,0.8772888-1.1517944,1.6151581-1.9951782,2.1374969c-0.9567261,0.5892181-2.0665283,0.881897-3.1893921,0.8411407
			c-1.56427,0.0782623-3.0774536-0.5679474-4.1026001-1.7520599c-1.059021-1.3015137-1.5964966-2.9501801-1.5080566-4.6257782
			c-0.1998291-2.2676544,0.9013672-4.4529572,2.8428345-5.6416168c2.3326416-1.2280884,4.9838867-1.7170105,7.6011353-1.4017334
			c0.2009277-1.2480011,0.0800171-2.5266418-0.3512573-3.714859c-0.4594727-0.8422546-1.3984985-1.3050385-2.3463745-1.1563416
			c-0.9204712,0.0050049-1.8376465,0.1107025-2.7351074,0.3152008c-0.8623047,0.187027-1.6977539,0.4814148-2.4868774,0.8762665
			L522.5668335,127.7161789z M528.8753662,144.2565155c0.6918945,0.0233459,1.37146-0.1866302,1.9295654-0.5961914
			c0.449707-0.3505249,0.8200073-0.7923431,1.0865479-1.2963715v-3.6797333c-0.6412964-0.0693207-1.288269-0.0693207-1.9295654,0
			c-0.5535889,0.0456848-1.0968628,0.175827-1.611084,0.38591c-0.4506226,0.1934662-0.8383179,0.5089569-1.1193237,0.9109192
			c-0.3137817,0.4367828-0.4630737,0.9704285-0.4215088,1.5066376c-0.052063,0.7387848,0.1315918,1.4750519,0.5245361,2.1028442
			C527.7163696,144.0404816,528.2860718,144.2867279,528.8753662,144.2565155z"/>
		<path class="st0" d="M558.8022461,153.4373627h-3.8170166l-0.5994263-5.0112152H540.789917v-22.0072556h5.2219849v17.2063065
			h4.9784546v-17.2063217h5.2547607v17.2063217h2.6273804L558.8022461,153.4373627z"/>
		<path class="st0" d="M571.9110718,138.8242493l0.4168091-3.5041046l-1.611084,3.749527l-5.9197998,9.4267273h-3.5032349
			v-22.077507h5.2172852v9.9873276l-0.3840332,3.5045776l1.611145-3.5045776l5.9244385-9.7770538h3.5031738v22.0072632h-5.2547607
			L571.9110718,138.8242493z"/>
		<path class="st0" d="M591.7452393,138.8242493l0.3840332-3.5041046l-1.611084,3.749527l-5.9244995,9.4267273h-3.5031738
			v-22.077507h5.2547607v9.9873276l-0.3840332,3.5045776l1.5783081-3.5045776l5.9572754-9.7770538H597v22.0072632h-5.2219849
			L591.7452393,138.8242493z"/>
		<path class="st1" d="M84.2149963,147.0248718c-8.6207199-9.0061646-15.348877-8.3055267-25.230835-18.5026855v-19.0988617
			c9.8819504,10.1976242,16.6101151,9.4969788,25.230835,18.5031433V147.0248718z"/>
		<path class="st1" d="M84.2149963,122.4946747c-8.6207199-9.0061646-15.348877-8.3050613-25.230835-18.5026779V84.8935928
			c9.8819504,10.1971512,16.6101151,9.496521,25.230835,18.5026779V122.4946747z"/>
		<path class="st1" d="M84.2149963,98.4899445c-8.6207199-9.0412903-15.348877-8.3050613-25.230835-18.5026779V60.8888741
			c9.8819504,10.1976204,16.6101151,9.4613838,25.230835,18.5026817V98.4899445z"/>
		<path class="st1" d="M84.2149963,70.000412c-4.8711929-9.1115417-12.1950836-10.5132828-12.1950836-19.5540962
			c0-12.0550461,10.5128098-16.9257774,12.1950836-28.3850498V70.000412z"/>
		<path class="st1" d="M88.7352676,22.0260925c1.7520523,11.4590874,12.2302094,16.3300934,12.2302094,28.3851013
			c0,8.9359093-7.3590164,10.5128059-12.2302094,19.553627V22.0260925z"/>
		<path class="st1" d="M113.5110168,128.5221863c-9.8824234,10.1971588-16.6105804,9.496521-25.230835,18.5026855v-19.0984039
			c8.6202469-9.0061646,15.3484116-8.3055191,25.230835-18.5031433V128.5221863z"/>
		<path class="st1" d="M113.5110168,103.9919968c-9.8824234,10.1976166-16.6105804,9.4965134-25.230835,18.5026779v-19.0984039
			c8.6202469-9.0061569,15.3484116-8.3055191,25.230835-18.5026779V103.9919968z"/>
		<path class="st1" d="M113.5110168,79.9872742c-9.8824234,10.1976242-16.6105804,9.4613953-25.230835,18.5026779V79.3915405
			c8.6202469-9.0412827,15.3484116-8.3050537,25.230835-18.5026703V79.9872742z"/>
	</g>
</g>
</svg>
