<svg width="199" height="155" fill="none" xmlns="http://www.w3.org/2000/svg"><g clip-path="url(#a)"><path d="M10.1 88.8c1.7-.1 3-1.6 2.8-3.2V72.9h5.3c.2 0 .4.1.4.3v13.2c0 1.7.8 2.9 1.7 2.8 3.5-.4 7.5-4.5 7.5-10.3.2-1.9-.7-3.8-2.4-4.9.2.4.3.9.3 1.4 0 1.6-1.3 2.9-2.8 2.9-1.5 0-2.8-1.2-2.9-2.7v-.1c.1-1.6 1.4-2.8 3-2.8h.3c3.7 0 5.4 2.9 5.4 6.4 0 5-3.5 11.2-9.4 11.2-2.4.1-4.7-1.1-5.9-3.1-.9 2-3 3.3-5.2 3.1-3.4.2-6.3-2.3-6.5-5.7V73.8H.2c-.2 0-.2-.2-.2-.4s.1-.4.2-.4h6.6c.3 0 .5.1.5.4v12.4c.3 2 1.4 3 2.8 3Z" fill="url(#b)"/><path d="M38.8 86.2c0 1.3.6 1.9 1.3 1.9.7 0 1.3-.6 1.3-1.9 0-.2.2-.3.4-.3s.4.1.4.3c-.1 2.2-2.1 4-4.3 3.8h-.2c-2.2.3-4.3-1.4-4.5-3.6V73.6h-1.8c-.2 0-.3-.2-.3-.4s.1-.4.3-.4h7.2c.2 0 .4.1.4.3v.1l-.2 13ZM36 64.3c1.6-.1 2.9 1.1 3.1 2.6.1 1.6-1.1 2.9-2.6 3.1h-.4c-1.6 0-2.8-1.3-2.8-2.8-.2-1.6 1.1-2.9 2.7-2.9Z" fill="url(#c)"/><path d="M55.2 73.6c-1.3.1-2.6.7-3.4 1.7v14.5h-5.7V73.6h-1.8c-.2 0-.3-.2-.3-.4s.1-.4.3-.4h6.9c.2 0 .3.2.3.4v1.1h.3c1.3-1.2 3.1-1.8 4.9-1.7 2.9 0 6.2 1.5 6.2 5.9v7.9c0 1.3.6 1.9 1.3 1.9.7 0 1.3-.6 1.3-1.9 0-.2.2-.3.4-.3s.4.1.4.3c-.1 2.2-2.1 4-4.3 3.8h-.2c-2.2.3-4.3-1.4-4.5-3.6V76.1c-.2-1.8-.9-2.5-2.1-2.5Z" fill="url(#d)"/><path d="M68.4 81.3c-.2-4.6 3.3-8.5 7.9-8.8h.7c4.7-.1 8.6 3.7 8.6 8.4v.7s0 .2-.2.2h-11c0 5.5 1.2 7.5 3.7 7.5 2.8 0 5.8-1.5 6.2-4.4 0-.2.2-.3.4-.3s.4.1.4.3c-.2 3-3.4 5.2-7.1 5.2-5.1.1-9.3-3.8-9.6-8.8Zm11.6-.4V77c0-2.6-1.4-3.9-2.8-3.9s-2.8 1.3-2.8 3.9v3.9H80Z" fill="url(#e)"/><path d="M97.9 86.7c.9 1.4 2.6 2.3 4.3 2.1 2.8 0 5.8-1.7 5.8-4.6V82c-1.7-.2-3.4-.6-5-1.2-1.1 0-2 .9-2 2v.3c0 .9.3 1.7.9 2.3-.1-.3-.2-.6-.2-.9 0-1.2 1.1-2.2 2.3-2.2 1.2 0 2.2 1 2.2 2.2v.1c0 1.3-1.1 2.3-2.3 2.3h-.2c-2.2-.3-3.8-2.3-3.6-4.5 0-3.8 4.1-5 7-5 2.6 0 4 1.2 6 1.2 1.3.1 2.5-.9 2.7-2.3 0-.8-.3-1.7-.9-2.3.1.3.2.6.2.9 0 1.3-1.1 2.2-2.3 2.2-1.2 0-2.2-1-2.2-2.2v-.1c0-1.3 1.1-2.3 2.4-2.2h.1c2.2.3 3.8 2.3 3.6 4.5 0 3.2-3.5 5-7.7 5v2.2c0 3.9-4.3 5.9-8.6 5.9-4.7 0-9.6-2.3-9.6-6.9 0-2.9 2.5-5.7 7.7-6.7v-.3c-4.3 0-6.8-2.6-6.8-5.2-.1-3.6 4.2-5.5 8.2-5.5 4.9 0 7 2.5 7 4.6 0 1.6-1.3 2.9-2.9 2.9h-.2c-1.7 0-3-1.3-3-3 0-1.3 1-2.5 2.3-2.8-.8-.4-1.6-.6-2.5-.7-2.1 0-2.8 2-2.8 4.9 0 2.3.2 4.6 2.1 4.6h2.6c.1 0 .2.3.2.5s-.1.5-.2.5h-2.2c-2.3 0-2.8 3.3-2.8 6-.1 1.3.1 2.5.4 3.6Z" fill="url(#f)"/><path d="M127.3 74.3v15.5h-5.8V74.3h-1.7c-.2 0-.2-.2-.2-.4s0-.4.2-.4h1.7v-1.1c0-6.1 3.8-8.4 7.3-8.4 3.1 0 5.9 1.7 5.9 4.5.1 1.6-1 3-2.7 3.2h-.2c-1.6 0-2.8-1.2-2.9-2.8v-.1c0-1.5 1.2-2.8 2.8-2.9.3 0 .7 0 1 .1-.8-.7-1.7-1.1-2.8-1.1-1.4 0-2.7.9-2.7 3.1v5.4h3.3c.2 0 .3.2.3.4s-.1.4-.3.4h-3.2v.1Z" fill="url(#g)"/><path d="M144.9 90c-4.6.4-8.7-3.1-9.1-7.7v-1.1c0-5 4.1-9.1 9.1-9.1s9.1 4.1 9.1 9.1c0 5.1-3.4 8.8-9.1 8.8Zm3-10.3c0-4.2-.4-6.5-3-6.5s-3 2.4-3 6.5v3.2c0 4.2.4 6.5 3 6.5s3-2.4 3-6.5v-3.2Z" fill="url(#h)"/><path d="M166.3 90c-5.7 0-9.1-3.7-9.1-8.8 0-5 4.1-9.1 9.1-9.1s9.1 4.1 9.1 9.1c0 5.1-3.5 8.8-9.1 8.8Zm3-10.3c0-4.2-.4-6.5-3-6.5s-3 2.3-3 6.5v3.2c0 4.2.4 6.5 3 6.5s3-2.4 3-6.5v-3.2Z" fill="url(#i)"/><path d="M185.7 90c-3.7 0-7.2-3.7-7.2-8.8 0-4.4 2.5-8.7 7.4-8.7 1.7-.1 3.4.6 4.7 1.7l-.3-2.5v-7.2c0-.2 0-.3.3-.3h7.2c.2 0 .3.2.3.4s0 .4-.3.4H196v21.3c0 1.2.6 1.9 1.2 1.9s1.3-.6 1.3-1.9c0-.2.2-.3.4-.3s.4 0 .4.3c-.1 2.2-1.9 3.9-4.1 3.8h-.2c-1.9.1-3.6-1.1-4.1-2.8-1.1 1.6-3.1 2.7-5.2 2.7Zm1.9-1.5c1.5 0 3.1-1.5 3.1-4.3v-6.4c0-2.6-1.5-3.9-3-3.9s-3 1.3-3 3.9v6.5c-.1 2.8 1.4 4.2 2.9 4.2Z" fill="url(#j)"/></g><defs><linearGradient id="b" x1="-.411" y1="81.361" x2="197.377" y2="81.361" gradientUnits="userSpaceOnUse"><stop stop-color="#1C8AE2"/><stop offset=".486" stop-color="#8B00B3"/><stop offset="1" stop-color="#6900B5"/></linearGradient><linearGradient id="c" x1="-.411" y1="77.167" x2="197.376" y2="77.167" gradientUnits="userSpaceOnUse"><stop stop-color="#1C8AE2"/><stop offset=".486" stop-color="#8B00B3"/><stop offset="1" stop-color="#6900B5"/></linearGradient><linearGradient id="d" x1="-.411" y1="81.366" x2="197.376" y2="81.366" gradientUnits="userSpaceOnUse"><stop stop-color="#1C8AE2"/><stop offset=".486" stop-color="#8B00B3"/><stop offset="1" stop-color="#6900B5"/></linearGradient><linearGradient id="e" x1="-.412" y1="81.244" x2="197.377" y2="81.244" gradientUnits="userSpaceOnUse"><stop stop-color="#1C8AE2"/><stop offset=".486" stop-color="#8B00B3"/><stop offset="1" stop-color="#6900B5"/></linearGradient><linearGradient id="f" x1="-.411" y1="77.922" x2="197.377" y2="77.922" gradientUnits="userSpaceOnUse"><stop stop-color="#1C8AE2"/><stop offset=".486" stop-color="#8B00B3"/><stop offset="1" stop-color="#6900B5"/></linearGradient><linearGradient id="g" x1="-.411" y1="76.864" x2="197.376" y2="76.864" gradientUnits="userSpaceOnUse"><stop stop-color="#1C8AE2"/><stop offset=".486" stop-color="#8B00B3"/><stop offset="1" stop-color="#6900B5"/></linearGradient><linearGradient id="h" x1="-.412" y1="81.14" x2="197.377" y2="81.14" gradientUnits="userSpaceOnUse"><stop stop-color="#1C8AE2"/><stop offset=".486" stop-color="#8B00B3"/><stop offset="1" stop-color="#6900B5"/></linearGradient><linearGradient id="i" x1="-.41" y1="81.126" x2="197.377" y2="81.126" gradientUnits="userSpaceOnUse"><stop stop-color="#1C8AE2"/><stop offset=".486" stop-color="#8B00B3"/><stop offset="1" stop-color="#6900B5"/></linearGradient><linearGradient id="j" x1="-.41" y1="77.18" x2="197.377" y2="77.18" gradientUnits="userSpaceOnUse"><stop stop-color="#1C8AE2"/><stop offset=".486" stop-color="#8B00B3"/><stop offset="1" stop-color="#6900B5"/></linearGradient><clipPath id="a"><path fill="#fff" d="M0 0h199v155H0z"/></clipPath></defs></svg>