<?xml version="1.0" encoding="utf-8"?>
<!-- Generator: Adobe Illustrator 25.2.0, SVG Export Plug-In . SVG Version: 6.00 Build 0)  -->
<svg version="1.1" id="OBJECTS" xmlns="http://www.w3.org/2000/svg" xmlns:xlink="http://www.w3.org/1999/xlink" x="0px" y="0px"
	 viewBox="0 0 750 169" style="enable-background:new 0 0 750 169;" xml:space="preserve">
<style type="text/css">
	.st0{fill-rule:evenodd;clip-rule:evenodd;fill:#E1BD98;}
</style>
<path class="st0" d="M74.2,23.6v-5.7H71v-0.4H2.3v5.7h3.1v0.4h27.8v130.5h3.1v0.4h6.8V23.6H74.2L74.2,23.6z M131.1,52.8
	c-1.9-0.3-3.9-0.5-5.9-0.5c-13.9,0-26.1,7-33,16.3V20.7h-3.1v-0.4h-5.7v133.8h3.1v0.4h5.7V92.9c0-19,15.6-34.6,34.6-34.6
	c0.8,0,1.6,0,2.5,0.1c16.4,2.7,29,17,29,34.1v61.6h3.1v0.4h5.7V93.1C167.1,71.9,150.9,54.2,131.1,52.8L131.1,52.8z M237.3,52.9
	c-2.6-0.4-5.2-0.6-7.8-0.6c-28.9,0-52.2,23.4-52.2,52.3c0,27.3,20.9,49.9,47.6,52.2c2.5,0.4,5.1,0.6,7.8,0.6c20.9,0,39-12.3,47.3-30
	h-3.3l0.2-0.4h-6.3c-8,14.4-23.4,24.3-41,24.3c-1.3,0-2.5-0.1-3.8-0.2c-22.2-3.4-39.2-23-39.2-46.6h98.6
	C285.1,77.4,263.9,55.2,237.3,52.9L237.3,52.9z M236.6,58.5c20.6,3.1,36.8,19.7,39.2,40.7h-89.3c2.8-23.2,22.3-40.9,46.1-40.9
	C234,58.3,235.3,58.4,236.6,58.5L236.6,58.5z M351.3,154.1h3.1v0.4h6.5V23.6h30c0.9,0,1.8,0,2.7,0.1c17.2,2.8,30.1,17.8,30.1,35.8
	c0,19.8-16.1,35.9-35.9,35.9h-12.9l40.7,58.7h2.9l0.3,0.4h7.2l-37.1-53h3c24.9,0,42-19,42-42.4c0-21.6-16.9-39.3-38.5-41.1
	c-2.2-0.3-4.4-0.5-6.6-0.5h-37.4V154.1L351.3,154.1z M451.6,20.7v-0.4h-5.7v16h3.1v0.4h5.7v-16H451.6L451.6,20.7z M451.6,55.5v-0.4
	h-5.7v99h3.1v0.4h5.7v-99H451.6L451.6,55.5z M508.4,55.5v-0.4H492V20.7h-3.1v-0.4h-5.3v34.8H464v5.7h3.1v0.4h16.4v92.9h3.1v0.4h5.3
	V61.2h19.6v-5.7H508.4L508.4,55.5z M519.3,55.1v61.6c0,21.3,16.2,38.7,36,40.2c1.9,0.3,3.9,0.5,5.9,0.5c13.9,0,26.1-7,33-16.3v13.1
	h3.1v0.4h5.7v-99h-3.1v-0.4h-5.7v61.6c0,19-15.6,34.6-34.6,34.6c-0.8,0-1.6,0-2.5-0.1c-16.4-2.7-29-17-29-34.1V55.5H525v-0.4H519.3
	L519.3,55.1z M713.2,154.1h3.1v0.4h5.7v-99h-3.1v-0.4h-5.7V77c-8.9-14.8-23.5-22.9-38.6-24.2c-2.5-0.4-4.9-0.6-7.4-0.6
	c-29.1,0-53.2,23.2-53.2,51.9c0,27.5,21.6,50.2,48.5,52.6c2.6,0.4,5.2,0.6,7.8,0.6c17.3,0,34.6-12.1,42.8-24.6V154.1L713.2,154.1z
	 M713.2,104.1c0,26-20.7,47.1-46.6,47.1c-1.3,0-2.6-0.1-3.9-0.2c-22.3-3.4-39.5-23-39.5-46.6c0-25.7,20.9-46.2,46.6-46.2
	c1.4,0,2.7,0.1,4.1,0.2C696.1,61.9,713.2,80.9,713.2,104.1L713.2,104.1L713.2,104.1z M743.6,20.7v-0.4h-5.7v133.8h3.1v0.4h5.7V20.7
	H743.6z"/>
</svg>
