<?xml version="1.0" encoding="utf-8"?>
<!-- Generator: Adobe Illustrator 22.1.0, SVG Export Plug-In . SVG Version: 6.00 Build 0)  -->
<svg version="1.1" id="Слой_1" xmlns="http://www.w3.org/2000/svg" xmlns:xlink="http://www.w3.org/1999/xlink" x="0px" y="0px"
	 viewBox="0 0 1144.5 219.9" style="enable-background:new 0 0 1144.5 219.9;" xml:space="preserve">
<style type="text/css">
	.st0{fill:#B5933D;}
	.st1{fill:#FFFFFF;}
	.st2{fill:#807347;}
	.st3{fill:#8E7838;}
	.st4{fill:#9F812A;}
</style>
<g>
	<polygon class="st0" points="74.8,38.1 20.8,42.3 20.8,199.4 74.8,199.4 	"/>
	<g>
		<g>
			<path class="st1" d="M416.3,197.5v-31.2h3.4v16l11.4-16h4.3l-10,13l10.3,18.1h-4l-8.3-15.4l-3.6,4.5v10.9H416.3z"/>
			<path class="st1" d="M445.7,197.6v-3.1c0.4,0.1,0.9,0.2,1.3,0.2c0.4,0,0.7-0.1,1.1-0.2c0.3-0.1,0.6-0.4,0.8-0.7
				c0.2-0.3,0.4-0.7,0.6-1.1c0.2-0.4,0.3-1,0.4-1.6c0.1-0.7,0.2-1.4,0.3-2c0.1-0.7,0.1-1.5,0.2-2.6c0-1,0.1-2,0.1-3
				c0-0.9,0-2.1,0-3.5v-13.6h17.4v31.2h-3.4v-28h-10.5v12.3c0,1,0,1.8,0,2.4c0,0.6,0,1.4-0.1,2.4c0,1-0.1,1.8-0.2,2.5
				c-0.1,0.7-0.2,1.4-0.3,2.3c-0.1,0.9-0.3,1.6-0.5,2.1c-0.2,0.6-0.5,1.1-0.8,1.8c-0.3,0.6-0.7,1.1-1.1,1.4
				c-0.4,0.3-0.9,0.6-1.4,0.9c-0.5,0.2-1.1,0.3-1.8,0.3C447,197.8,446.4,197.8,445.7,197.6z"/>
			<path class="st1" d="M480.4,166.3h3.7l7.3,21.6l6.7-21.6h3.6l-8.6,26c-0.7,2.2-1.5,3.8-2.4,4.6c-0.9,0.9-2,1.3-3.3,1.3
				c-1.1,0-2-0.1-2.6-0.4v-3.1c0.5,0.3,1.3,0.4,2.3,0.4c0.6,0,1.1-0.2,1.5-0.6c0.4-0.4,0.8-1.2,1.1-2.3L480.4,166.3z"/>
			<path class="st1" d="M513.5,197.5v-31.2H529v3.1h-12v10.1h4.1c1.2,0,2.3,0.1,3.2,0.3c1,0.2,1.9,0.5,2.7,0.9
				c0.9,0.4,1.6,1,2.2,1.6c0.6,0.7,1,1.5,1.4,2.6c0.3,1.1,0.5,2.3,0.5,3.7c0,3-0.8,5.2-2.5,6.6c-1.6,1.4-3.9,2.2-6.9,2.2H513.5z
				 M517,194.3h4c2.2,0,3.9-0.4,5-1.3c1.1-0.8,1.6-2.3,1.6-4.4c0-1.2-0.2-2.2-0.5-3c-0.3-0.8-0.8-1.4-1.5-1.8
				c-0.7-0.4-1.5-0.7-2.3-0.9c-0.9-0.2-2-0.2-3.2-0.2h-3V194.3z"/>
			<path class="st1" d="M545.2,197.5v-31.2h3.4v13.3h11.9v-13.3h3.4v31.2h-3.4v-14.8h-11.9v14.8H545.2z"/>
			<path class="st1" d="M579.2,197.5v-31.2h3.4v13.3h4.1c1.2,0,2.3,0.1,3.2,0.3c1,0.2,1.9,0.5,2.7,0.9c0.9,0.4,1.6,1,2.2,1.6
				c0.6,0.7,1,1.5,1.4,2.6c0.3,1.1,0.5,2.3,0.5,3.7c0,3-0.8,5.2-2.5,6.6c-1.6,1.4-3.9,2.2-6.9,2.2H579.2z M582.7,194.3h4
				c2.2,0,3.9-0.4,5-1.3c1.1-0.8,1.6-2.3,1.6-4.4c0-1.2-0.2-2.2-0.5-3c-0.3-0.8-0.8-1.4-1.5-1.8s-1.5-0.7-2.3-0.9
				c-0.9-0.2-2-0.2-3.2-0.2h-3V194.3z M601.6,197.5v-31.2h3.4v31.2H601.6z"/>
			<path class="st1" d="M620.2,197.5v-31.2h3.4v25.5c0,0.8,0,2-0.1,3.5h0.1c0.1-0.3,0.2-0.7,0.3-1.3c0.1-0.5,0.3-1.1,0.4-1.5
				c0.1-0.5,0.3-1,0.5-1.5l9.7-24.6h5v31.2h-3.4v-24.9c0-1.1,0-2.7,0.1-4.8h-0.1c-0.4,2.3-0.8,4-1.2,5.1l-9.7,24.5H620.2z
				 M623.9,159h1.8c0.5,2,1.8,3,4,3c1.1,0,2-0.2,2.6-0.7c0.6-0.5,1.1-1.2,1.3-2.3h1.8c0,1.8-0.5,3.1-1.6,4c-1.1,0.9-2.5,1.3-4.2,1.3
				c-1.6,0-3-0.4-4-1.4C624.4,162.1,623.9,160.8,623.9,159z"/>
			<path class="st1" d="M671.4,194.3h2.1c1.4-2.4,2.3-5,2.7-8c0.4-2.9,0.6-7,0.6-12.1v-8h16.5v28.1h2.5v10.4h-3.3v-7.3h-17.8v7.3
				h-3.3V194.3z M677.2,194.3h12.6v-24.9h-9.6v8.1C680.3,184.6,679.2,190.2,677.2,194.3z"/>
			<path class="st1" d="M707.8,181.8c0-1.1,0-2.2,0.1-3.2c0.1-1,0.2-2,0.4-3.1c0.2-1.1,0.4-2.2,0.7-3.1c0.3-0.9,0.7-1.8,1.2-2.7
				s1.1-1.6,1.8-2.2c0.7-0.6,1.6-1.1,2.6-1.4c1-0.4,2.2-0.5,3.4-0.5c1,0,1.9,0.1,2.7,0.3c0.8,0.2,1.6,0.5,2.2,0.9
				c0.6,0.4,1.2,0.8,1.7,1.4s1,1.1,1.3,1.8c0.4,0.6,0.7,1.3,1,2.1c0.3,0.8,0.5,1.6,0.6,2.3c0.2,0.8,0.3,1.6,0.4,2.5
				c0.1,0.9,0.2,1.7,0.2,2.5c0,0.8,0.1,1.6,0.1,2.4c0,1.4,0,2.6-0.1,3.6c-0.1,1.1-0.2,2.2-0.4,3.4c-0.2,1.2-0.4,2.2-0.7,3.1
				c-0.3,0.9-0.7,1.7-1.2,2.5c-0.5,0.8-1.1,1.5-1.8,2c-0.7,0.5-1.6,0.9-2.6,1.3c-1,0.3-2.2,0.5-3.4,0.5c-1.3,0-2.4-0.2-3.4-0.5
				c-1-0.3-1.9-0.7-2.6-1.3c-0.7-0.5-1.3-1.2-1.8-2c-0.5-0.8-0.9-1.7-1.2-2.5c-0.3-0.9-0.5-1.9-0.7-3.1c-0.2-1.2-0.3-2.3-0.4-3.4
				C707.8,184.4,707.8,183.2,707.8,181.8z M711.4,181.3c0,1.9,0.1,3.6,0.1,4.9c0.1,1.3,0.3,2.6,0.6,3.8c0.3,1.2,0.7,2.1,1.1,2.8
				c0.5,0.7,1.1,1.2,1.9,1.6c0.8,0.4,1.8,0.6,2.9,0.6c0.9,0,1.8-0.1,2.5-0.4c0.7-0.3,1.3-0.7,1.8-1.2c0.5-0.5,0.9-1.2,1.2-1.9
				c0.3-0.7,0.6-1.6,0.7-2.7c0.2-1.1,0.3-2.2,0.4-3.4c0.1-1.2,0.1-2.6,0.1-4.2c0-1.5-0.1-2.8-0.2-4c-0.1-1.2-0.3-2.3-0.6-3.4
				c-0.3-1.1-0.7-2-1.2-2.7c-0.5-0.7-1.2-1.3-2-1.7c-0.8-0.4-1.7-0.6-2.8-0.6c-1,0-2,0.2-2.7,0.6c-0.8,0.4-1.4,1-1.9,1.7
				c-0.5,0.7-0.9,1.6-1.2,2.7c-0.3,1.1-0.5,2.2-0.6,3.4C711.4,178.5,711.4,179.8,711.4,181.3z"/>
			<path class="st1" d="M742.6,197.5v-31.2h6.1l6.1,24.3c0.3,1.2,0.5,2.7,0.6,4.6h0.1c0-0.2,0.1-0.6,0.1-1.1
				c0.1-0.5,0.1-0.9,0.1-1.2c0-0.3,0.1-0.6,0.2-1.1c0.1-0.4,0.2-0.9,0.3-1.3l6.2-24.3h6.1v31.2h-3.4l-0.1-25.7c0-0.4,0-1.1,0.1-2
				c0-0.9,0.1-1.5,0.1-1.9h-0.1c-0.2,0.7-0.4,1.4-0.6,2.3c-0.2,0.9-0.4,1.5-0.5,1.8l-6.5,25.5h-4.1l-6.5-25.8c0-0.2-0.2-0.7-0.4-1.5
				c-0.2-0.9-0.4-1.6-0.6-2.3h-0.1c0,0.6,0,1.3,0.1,2.1c0,0.8,0.1,1.5,0.1,1.9v25.6H742.6z"/>
		</g>
		<g>
			<path class="st1" d="M462.9,42.5v8.3h-40.2v27.7h15c18.8,0,30.4,10,30.4,28.4c0,18.1-12,28.3-30.4,28.3h-24.1V42.5H462.9z
				 M422.8,127h15c12.9,0,21.4-6.9,21.4-20c0-13.2-8-20.2-21.4-20.2h-15V127z"/>
			<path class="st1" d="M545.7,80.5v16.8c0,26.2-11.4,39.6-30.8,39.6c-20.2,0-30.8-13.2-30.8-39.6V80.5c0-26.2,11.6-39.6,30.8-39.6
				C535,40.9,545.7,54.5,545.7,80.5z M493.2,79.6v18.7c0,19.8,7.5,30.3,21.6,30.3c14.1,0,21.6-10.8,21.6-30.3V79.6
				c0-19.8-7.4-30.4-21.6-30.4C500.9,49.2,493.2,60.1,493.2,79.6z"/>
			<path class="st1" d="M615.3,42.5v8.3h-39.1v33h35.6V92h-35.6v35h41.7v8.3H567V42.5H615.3z"/>
			<path class="st1" d="M664.8,42.5c17.6,0,26.7,9.3,26.7,24.2c0,10.1-4.2,17.2-11.1,20.5c8.8,3.5,13.7,11,13.7,22.3
				c0,15.6-9.5,25.7-28.4,25.7h-26.2V42.5H664.8z M648.6,83.8h17.4c10.9,0,16.4-6.3,16.4-16.6c0-10.9-6.3-16.6-17.8-16.6h-16.1V83.8
				z M648.6,127.1h17.1c12.2,0,19.3-6.6,19.3-17.7c0-11.4-6.2-17.6-18.7-17.6h-17.7V127.1z"/>
			<path class="st1" d="M744.1,42.3l28.8,93H763l-7.3-24.5h-33.6l-7.2,24.5h-9.8l29.1-93H744.1z M724.4,102.6h29.1L739,53.2
				L724.4,102.6z"/>
			<path class="st1" d="M877.8,42.5V127h10.8v29.2h-8.8l-0.6-20.9h-57.5l-0.6,20.9h-8.8V127h5.3c6.7-6.6,9.9-16.1,9.9-29.5V42.5
				H877.8z M836.3,50.8V98c0,12.6-2.6,22.5-7.7,28.9h39.9V50.8H836.3z"/>
			<path class="st1" d="M935.7,42.3l28.8,93h-9.9l-7.3-24.5h-33.6l-7.2,24.5h-9.8l29.1-93H935.7z M916.1,102.6h29.1l-14.5-49.5
				L916.1,102.6z"/>
			<path class="st1" d="M983.6,42.5v32.1c0,16.4,6.9,23.6,18.5,23.6c12.1,0,19.8-8.4,19.8-22.3V42.5h9.2v92.7h-9.2V96.1
				c-4.2,6.3-11.7,10.5-21,10.5c-16.3,0-26.5-10.3-26.5-31.8V42.5H983.6z"/>
			<path class="st1" d="M1088.2,42.3l28.8,93h-9.9l-7.3-24.5h-33.6l-7.2,24.5h-9.8l29.1-93H1088.2z M1068.5,102.6h29.1l-14.5-49.5
				L1068.5,102.6z"/>
		</g>
	</g>
	<g>
		<polygon class="st2" points="198,53.5 198,60.2 209.7,64.3 		"/>
		<polygon class="st2" points="252.1,89.1 198,70.2 198,140 252.1,159 		"/>
		<polygon class="st2" points="198,150 198,156.7 213.2,155.3 		"/>
		<polygon class="st2" points="198,166.2 198,199.4 252.1,199.4 252.1,169 234.6,162.8 		"/>
		<polygon class="st2" points="252.1,24.2 198,28.5 198,40.8 232.1,72.1 252.1,79.1 		"/>
	</g>
	<g>
		<polygon class="st2" points="314.6,33.3 262.8,58.9 262.8,113.1 287.7,100.8 316.9,53.3 316.9,33.6 		"/>
		<polygon class="st2" points="303.6,93 316.9,86.4 316.9,71.3 		"/>
		<polygon class="st2" points="262.8,25.4 262.8,48.4 298.3,30.8 		"/>
		<polygon class="st2" points="262.8,199.4 316.9,199.4 316.9,96.9 262.8,123.6 		"/>
	</g>
	<g>
		<polygon class="st3" points="376,116.6 376,102.1 354.7,112.7 		"/>
		<polygon class="st3" points="376,42.6 321.9,34.4 321.9,120.5 376,93.7 		"/>
		<polygon class="st3" points="343.4,118.3 343.4,118.2 321.9,128.9 321.9,199.4 376,199.4 376,124.2 		"/>
	</g>
	<g>
		<polygon class="st3" points="138.9,98.8 138.9,105.5 153.6,103.9 		"/>
		<polygon class="st3" points="138.9,113.1 138.9,199.4 193,199.4 193,117.9 170,109.8 		"/>
		<polygon class="st3" points="193,109.9 193,28.8 138.9,33.1 138.9,90.7 		"/>
	</g>
	<g>
		<polygon class="st4" points="80.1,37.7 79.9,37.7 79.9,47.9 96.3,53.5 		"/>
		<polygon class="st4" points="133.9,66.3 133.9,33.5 87.6,37.1 108.7,57.7 		"/>
		<polygon class="st4" points="79.9,199.4 133.9,199.4 133.9,72.3 79.9,53.9 		"/>
	</g>
</g>
</svg>
