<?xml version="1.0" encoding="utf-8"?>
<!-- Generator: Adobe Illustrator 25.2.0, SVG Export Plug-In . SVG Version: 6.00 Build 0)  -->
<svg version="1.1" id="Слой_1" xmlns="http://www.w3.org/2000/svg" xmlns:xlink="http://www.w3.org/1999/xlink" x="0px" y="0px"
	 viewBox="0 0 561.4 226.7" style="enable-background:new 0 0 561.4 226.7;" xml:space="preserve">
<style type="text/css">
	.st0{fill:#FFFFFF;}
</style>
<g>
	<path class="st0" d="M57.8,100.9c-3.7-2.5-7.5-4.7-11.2-6.7c-3.8-2-8-3-12.7-3c-6.2,0.3-11.8,2.3-16.9,5.9
		c-1.2,0.8-2.3,2.1-3.3,3.9c-0.5,1-1,1.9-1.3,2.8c-0.4,0.8-0.8,1.6-1.2,2.4c-0.9,1.6-2.2,2.2-3.7,1.8c-1.9-0.8-2.7-1.9-2.5-3.5
		c0-1.6,0.3-3,0.8-3.9c1.4-4.7,3.8-8.2,7.3-10.5c7.6-5.3,15.2-7.5,22.7-6.7c3.4,0.3,6.3,1,8.5,2.1C48.6,87.9,53,90,57.3,92
		c0.7,0.2,2.4,0.7,5.2,1.5c1.1-1.3,1.9-2.5,2.4-3.5c3-5.6,6-11.3,9-16.8c2.9-5.6,5.9-11.2,9-16.8c3-6.4,6.3-12.6,9.7-18.7
		c3.4-6.1,6.9-12.3,10.4-18.5c1.5-2.8,3.5-5.6,6-8.4c2.9-3.4,6.5-4.3,11-2.8c3.1,1.4,4.9,3.5,5.5,6.5c0.4,2.7,0.7,5.3,1,8
		c0.3,2.7,0.1,5.3-0.7,7.8c-0.2,0.8-0.4,1.8-0.5,2.8c-0.1,1-0.1,2-0.2,2.9c-1.4,7.3-2.6,12.8-3.4,16.5c-0.9,3.9-1.8,7.8-2.7,11.6
		c-0.9,3.8-1.7,7.8-2.4,11.8c-2.1,9.5-3.8,19-5.2,28.6c-1.4,7.3-2,12.8-1.7,16.7c1,0.7,2.1,1,3.3,0.8c1.2-0.2,2.4-0.4,3.4-0.6
		c1.6,0,2.6,1,2.7,2.8c-0.1,2.5-1.1,4.2-3.2,5c-0.8,0.2-3.5,1-8,2.2c-0.7,1.5-1.1,2.5-1.3,3.2c-2.3,8.7-3.8,17.5-4.6,26.4
		c-0.7,8.9-1.3,17.8-1.8,26.8c-0.2,3-0.3,6.1-0.4,9.1c-0.1,3.2,0.2,6.2,1,9.2c0.1,0.5,0.1,1,0.1,1.5c0,0.5,0.1,1,0.4,1.5
		c1.2,4.8,4.3,6.4,9.1,4.7c2.8-0.8,5.1-2.5,6.8-5c1.2-1.8,2.4-3.5,3.7-5.3c1.2-1.8,2.4-3.6,3.4-5.6c2.2-3.6,4.4-7.2,6.5-10.9
		c2.1-3.7,3.9-7.6,5.3-11.6c0.8-2.8,1.8-5.5,2.9-8.1c1.1-2.6,2.1-5.2,3.1-7.7c0.4-0.6,0.9-1.5,1.5-2.7c1.3-1.5,2.7-1.2,4,0.8
		c0.9,1.7,1,3.6,0.1,5.6c-0.8,2.8-1.7,5.6-2.6,8.4c-0.9,2.8-2,5.5-3.3,8.2c-1.5,3.5-3,7-4.6,10.4c-1.6,3.4-3.4,6.7-5.5,9.8
		c-1.9,2.5-3.8,5.2-5.9,7.9c-2,2.8-4,5.7-6,8.6c-2.4,3.3-6.4,5.2-12,5.6c-5.7,0.5-10-1.4-13-5.5c-5.9-7.1-8.7-14.4-8.4-22
		c0.1-5.8,0.1-11.7,0.2-17.6c0.1-5.9,0.4-11.8,1-17.8c0.9-8.8,2.3-18.7,4.1-29.6c0.6-3.8-0.6-6.8-3.7-9.1c-2.6-1.7-5.1-3.5-7.4-5.3
		c-2.4-1.9-4.8-3.6-7.1-5.2c-1-0.7-2.1-1.4-3.3-2c-1.6-0.9-2.8-0.5-3.6,1.4c-0.2-0.1-0.8,1.2-1.8,3.7c-2.2,4.2-4.3,8.4-6.3,12.5
		c-2,4.1-4,8.2-5.9,12.3c-0.8,1.9-1.7,3.5-2.7,5c-1,1.5-1.9,3-2.6,4.7c-2,3.6-2.9,5.3-2.6,5.2c-1.4,3.1-2.7,6.2-4.1,9.1
		c-1.3,3-2.6,5.9-3.7,8.9c-0.7,1.6-1.3,2.8-1.7,3.3c-1.4,1.5-2.9,1.8-4.6,1.2c-1.7-0.5-2.3-1.7-1.8-3.6c0.4-1.3,1-3.3,1.8-6.1
		c2-4.5,4-9.1,6-13.7c2-4.5,4-9.3,6-14c2-4.5,4.8-10.4,8.3-17.6c1-2.7,2.1-5.6,3.4-8.5c1.2-2.9,2.4-5.9,3.5-8.8L57.8,100.9z
		 M72.1,99.4c3.5,2.4,8.4,6.1,14.5,10.8c0.7,0.9,1.5,1.5,2.3,1.7c0.8,0.5,1.4,0.8,1.8,0.9c1.5,0.4,2.6,0.1,3.2-1.2
		c0.8-1.2,1.3-2.3,1.3-3.5c1-5.8,2-11.6,3-17.5c1-5.9,2.2-11.8,3.4-17.8c1.1-6.2,2.3-12.5,3.4-18.8c1.2-6.3,2.7-12.5,4.8-18.7
		c0.7-1.5,0.7-2.6,0-3.5c-1.8,2.2-2.6,3.3-2.3,3.2c-2.1,3.3-4.2,6.8-6.2,10.3c-2,3.5-3.8,7-5.5,10.5c-2.1,3.8-4,7.6-5.6,11.3
		c-1.7,3.7-3.6,7.3-5.9,10.9c-2.7,3.6-5.3,7.7-7.8,12.1C74.2,94.2,72.7,97.2,72.1,99.4z"/>
	<path class="st0" d="M184.2,174.5v-7.3l-3.6,6H180l-3.6-6v7.2h-1.4v-9.9h1.2l4.2,7l4.1-7h1.2v9.9L184.2,174.5L184.2,174.5z"/>
	<path class="st0" d="M200.2,173.9c-0.8-0.5-1.4-1-1.9-1.8c-0.5-0.8-0.7-1.6-0.7-2.6c0-0.9,0.2-1.8,0.7-2.6c0.5-0.8,1.1-1.4,1.9-1.8
		c0.8-0.5,1.7-0.6,2.8-0.6c1,0,1.9,0.2,2.8,0.6c0.8,0.5,1.4,1,1.9,1.8c0.5,0.8,0.7,1.6,0.7,2.6c0,0.9-0.2,1.8-0.7,2.6
		c-0.5,0.8-1.1,1.4-1.9,1.8c-0.8,0.5-1.7,0.6-2.8,0.6C201.9,174.5,201,174.3,200.2,173.9z M204.9,172.7c0.6-0.3,1-0.8,1.4-1.4
		c0.3-0.5,0.5-1.3,0.5-2c0-0.7-0.2-1.4-0.5-2c-0.3-0.5-0.8-1-1.4-1.4c-0.6-0.4-1.3-0.5-2-0.5c-0.7,0-1.4,0.2-2,0.5
		c-0.6,0.3-1.1,0.8-1.4,1.4c-0.3,0.5-0.5,1.3-0.5,2c0,0.7,0.2,1.4,0.5,2c0.3,0.5,0.8,1,1.4,1.4c0.6,0.3,1.3,0.5,2,0.5
		C203.6,173.3,204.3,173.1,204.9,172.7z"/>
	<path class="st0" d="M220.2,164.4h4.3c1,0,2,0.2,2.8,0.6c0.8,0.4,1.5,1,1.9,1.7c0.5,0.8,0.7,1.6,0.7,2.6c0,0.9-0.2,1.9-0.7,2.6
		c-0.5,0.8-1.1,1.3-1.9,1.7c-0.8,0.4-1.7,0.6-2.8,0.6h-4.3V164.4z M224.3,173.2c0.8,0,1.5-0.2,2.1-0.5c0.6-0.3,1.1-0.8,1.4-1.3
		c0.3-0.5,0.5-1.3,0.5-2c0-0.7-0.2-1.4-0.5-2c-0.3-0.5-0.8-1-1.4-1.3c-0.6-0.3-1.3-0.5-2.1-0.5h-2.7v7.5H224.3z"/>
	<path class="st0" d="M249,173.2v1.3h-7.3v-9.9h7.1v1.3h-5.7v3.1h5v1.2h-5v3.2H249z"/>
	<path class="st0" d="M267.8,174.5l-2.1-3.1c-0.2,0-0.5,0-0.6,0h-2.4v3.1h-1.4v-9.9h3.9c1.3,0,2.3,0.3,3.1,0.9
		c0.8,0.6,1.1,1.5,1.1,2.6c0,0.8-0.2,1.4-0.6,2c-0.4,0.5-0.9,0.9-1.7,1.2l2.4,3.4L267.8,174.5L267.8,174.5z M267.1,169.6
		c0.5-0.4,0.7-0.9,0.7-1.6c0-0.7-0.2-1.3-0.7-1.6c-0.5-0.4-1.2-0.5-2-0.5h-2.4v4.5h2.4C265.9,170.2,266.6,170,267.1,169.6z"/>
	<path class="st0" d="M289.9,164.4v9.9h-1.2l-6-7.4v7.4h-1.4v-9.9h1.2l6,7.4v-7.4H289.9z"/>
	<path class="st0" d="M322.6,172h-5.4l-1.1,2.5h-1.5l4.6-9.9h1.4l4.6,9.9h-1.5L322.6,172z M322.2,170.8l-2.1-4.9l-2.1,4.9H322.2z"/>
	<path class="st0" d="M343.2,174.5l-2.1-3.1c-0.2,0-0.5,0-0.6,0H338v3.1h-1.5v-9.9h3.9c1.3,0,2.3,0.3,3.1,0.9
		c0.7,0.6,1.1,1.5,1.1,2.6c0,0.8-0.2,1.4-0.6,2c-0.4,0.5-0.9,0.9-1.7,1.2l2.4,3.4L343.2,174.5L343.2,174.5z M342.4,169.6
		c0.5-0.4,0.7-0.9,0.7-1.6c0-0.7-0.2-1.3-0.7-1.6c-0.5-0.4-1.2-0.5-2.1-0.5h-2.4v4.5h2.4C341.2,170.2,341.9,170,342.4,169.6z"/>
	<path class="st0" d="M358.5,165.7H355v-1.3h8.3v1.3h-3.5v8.7h-1.4L358.5,165.7L358.5,165.7z"/>
	<path class="st0" d="M397.6,174.5v-7.3l-3.6,6h-0.7l-3.6-6v7.2h-1.3v-9.9h1.2l4.2,7l4.1-7h1.2v9.9L397.6,174.5L397.6,174.5z"/>
	<path class="st0" d="M418.1,172h-5.4l-1.1,2.5h-1.5l4.6-9.9h1.4l4.6,9.9h-1.5L418.1,172z M417.6,170.8l-2.1-4.9l-2.1,4.9H417.6z"/>
	<path class="st0" d="M433.5,165.7H430v-1.3h8.3v1.3h-3.5v8.7h-1.3V165.7z"/>
	<path class="st0" d="M456.9,173.2v1.3h-7.3v-9.9h7.1v1.3H451v3.1h5v1.2h-5v3.2H456.9z"/>
	<path class="st0" d="M475.6,174.5l-2.1-3.1c-0.2,0-0.5,0-0.6,0h-2.4v3.1h-1.5v-9.9h3.9c1.3,0,2.3,0.3,3.1,0.9
		c0.7,0.6,1.1,1.5,1.1,2.6c0,0.8-0.2,1.4-0.6,2c-0.4,0.5-0.9,0.9-1.7,1.2l2.4,3.4L475.6,174.5L475.6,174.5z M474.9,169.6
		c0.5-0.4,0.7-0.9,0.7-1.6c0-0.7-0.2-1.3-0.7-1.6c-0.5-0.4-1.2-0.5-2.1-0.5h-2.4v4.5h2.4C473.7,170.2,474.4,170,474.9,169.6z"/>
	<path class="st0" d="M489.1,164.4h1.4v9.9h-1.4V164.4z"/>
	<path class="st0" d="M509.7,172h-5.3l-1.1,2.5h-1.5l4.6-9.9h1.4l4.6,9.9h-1.5L509.7,172z M509.2,170.8l-2.1-4.9l-2.1,4.9H509.2z"/>
	<path class="st0" d="M523.6,164.4h1.4v8.7h5.4v1.3h-6.9V164.4z"/>
	<path class="st0" d="M542.5,174.2c-0.7-0.2-1.3-0.5-1.7-0.9l0.6-1.1c0.4,0.3,0.9,0.6,1.5,0.9c0.6,0.2,1.2,0.3,1.8,0.3
		c0.9,0,1.4-0.2,1.9-0.4c0.4-0.3,0.6-0.6,0.6-1.1c0-0.3-0.1-0.6-0.3-0.9c-0.2-0.2-0.5-0.4-0.9-0.5c-0.3-0.1-0.8-0.2-1.4-0.4
		c-0.8-0.2-1.3-0.4-1.8-0.5c-0.5-0.2-0.9-0.5-1.2-0.9c-0.3-0.4-0.5-0.9-0.5-1.5c0-0.5,0.2-1,0.4-1.4c0.2-0.4,0.7-0.8,1.3-1
		c0.6-0.2,1.3-0.4,2.1-0.4c0.6,0,1.2,0.1,1.7,0.2c0.6,0.2,1.1,0.4,1.5,0.6l-0.5,1.2c-0.4-0.2-0.9-0.5-1.3-0.6
		c-0.5-0.2-0.9-0.2-1.4-0.2c-0.8,0-1.4,0.2-1.8,0.5c-0.4,0.3-0.6,0.7-0.6,1.2c0,0.3,0.1,0.6,0.3,0.9s0.6,0.4,0.9,0.5
		c0.3,0.2,0.8,0.2,1.4,0.4c0.8,0.2,1.3,0.4,1.8,0.5c0.5,0.2,0.9,0.5,1.2,0.9c0.3,0.4,0.5,0.9,0.5,1.5c0,0.5-0.2,1-0.4,1.4
		c-0.3,0.5-0.7,0.8-1.3,1c-0.6,0.2-1.3,0.4-2.1,0.4C543.9,174.5,543.2,174.5,542.5,174.2z"/>
	<path class="st0" d="M159,137.6l-6.6-9.5h-0.3h-6.9v9.5h-7.9v-34h14.7c3,0,5.7,0.5,7.9,1.5c2.2,1,3.9,2.4,5.1,4.3
		c1.2,1.9,1.8,4,1.8,6.6c0,2.5-0.6,4.7-1.8,6.5c-1.2,1.8-2.9,3.2-5.2,4.2l7.6,10.9H159z M157,111.6c-1.3-1-3.1-1.6-5.4-1.6h-6.5
		v11.8h6.5c2.4,0,4.2-0.5,5.4-1.6s1.9-2.5,1.9-4.4C158.9,114,158.2,112.6,157,111.6z"/>
	<path class="st0" d="M212.9,110h-11v-6.4h29.8v6.4h-11v27.6h-7.9V110z"/>
	<path class="st0" d="M269.3,103.6h7.9v34h-7.9V103.6z"/>
	<path class="st0" d="M321.8,137c-2.5-0.7-4.6-1.6-6.1-2.8l2.7-6c1.5,1.1,3.2,2,5.2,2.6c2,0.6,4,0.9,6.1,0.9c2.2,0,3.9-0.3,5-1
		c1.1-0.6,1.6-1.6,1.6-2.7c0-0.8-0.3-1.5-0.9-2c-0.6-0.5-1.4-0.9-2.4-1.3c-1-0.3-2.4-0.7-4-1.1c-2.6-0.6-4.7-1.3-6.4-1.9
		c-1.7-0.6-3.1-1.6-4.3-3c-1.2-1.4-1.8-3.1-1.8-5.4c0-2,0.6-3.8,1.6-5.3c1.1-1.6,2.7-2.9,4.9-3.8c2.1-0.9,4.8-1.4,8-1.4
		c2.2,0,4.3,0.2,6.4,0.8c2,0.5,3.9,1.3,5.4,2.3l-2.4,6c-3.2-1.8-6.3-2.7-9.5-2.7c-2.2,0-3.9,0.4-4.9,1.1c-1,0.7-1.6,1.6-1.6,2.8
		c0,1.2,0.6,2,1.8,2.6c1.2,0.5,3.1,1.1,5.6,1.6c2.6,0.6,4.7,1.3,6.4,1.9c1.7,0.6,3.1,1.6,4.3,2.9c1.2,1.3,1.8,3.1,1.8,5.4
		c0,2-0.6,3.7-1.7,5.3c-1.1,1.6-2.8,2.9-4.9,3.8c-2.2,0.9-4.8,1.4-8,1.4C327,138.1,324.4,137.8,321.8,137z"/>
	<path class="st0" d="M389.4,110h-11v-6.4h29.8v6.4h-11v27.6h-7.9V110z"/>
	<path class="st0" d="M467.5,137.6l-6.6-9.5h-0.4h-6.9v9.5h-7.9v-34h14.8c3,0,5.7,0.5,7.9,1.5c2.2,1,3.9,2.4,5.1,4.3
		c1.2,1.9,1.8,4,1.8,6.6c0,2.5-0.6,4.7-1.8,6.5c-1.2,1.8-2.9,3.2-5.2,4.2l7.6,10.9H467.5z M465.5,111.6c-1.3-1-3.1-1.6-5.4-1.6h-6.5
		v11.8h6.5c2.4,0,4.2-0.5,5.4-1.6c1.3-1,1.9-2.5,1.9-4.4C467.4,114,466.7,112.6,465.5,111.6z"/>
	<path class="st0" d="M521.8,135.9c-2.8-1.5-5-3.6-6.7-6.3c-1.7-2.7-2.4-5.6-2.4-9c0-3.4,0.8-6.3,2.4-9c1.7-2.7,3.9-4.8,6.7-6.3
		c2.8-1.5,6.1-2.3,9.6-2.3c3.5,0,6.7,0.8,9.5,2.3c2.8,1.5,5,3.6,6.7,6.3c1.7,2.7,2.4,5.6,2.4,9c0,3.4-0.8,6.3-2.4,9
		c-1.7,2.7-3.9,4.8-6.7,6.3c-2.8,1.5-6,2.3-9.5,2.3C527.8,138.1,524.7,137.4,521.8,135.9z M536.9,130.1c1.7-0.9,2.9-2.2,3.9-3.8
		c0.9-1.6,1.4-3.5,1.4-5.6s-0.5-4-1.4-5.6c-0.9-1.6-2.2-2.9-3.9-3.8c-1.7-0.9-3.5-1.4-5.4-1.4c-2,0-3.9,0.5-5.4,1.4
		c-1.6,0.9-2.9,2.2-3.9,3.8c-0.9,1.6-1.4,3.5-1.4,5.6s0.5,4,1.4,5.6c0.9,1.6,2.2,2.9,3.9,3.8c1.7,0.9,3.5,1.4,5.4,1.4
		C533.4,131.5,535.2,131,536.9,130.1z"/>
</g>
</svg>
