<?xml version="1.0" encoding="utf-8"?>
<!-- Generator: Adobe Illustrator 22.0.0, SVG Export Plug-In . SVG Version: 6.00 Build 0)  -->
<svg version="1.1" id="Layer_1" xmlns="http://www.w3.org/2000/svg" xmlns:xlink="http://www.w3.org/1999/xlink" x="0px" y="0px"
	 viewBox="0 0 100 25" style="enable-background:new 0 0 100 25;" xml:space="preserve">
<style type="text/css">
	.st0{fill-rule:evenodd;clip-rule:evenodd;fill:#A6AAAA;}
	.st1{fill-rule:evenodd;clip-rule:evenodd;fill:#F3792E;}
	.st2{fill-rule:evenodd;clip-rule:evenodd;fill:#F06022;}
	.st3{fill-rule:evenodd;clip-rule:evenodd;fill:#D95122;}
	.st4{fill-rule:evenodd;clip-rule:evenodd;fill:#F89A2C;}
	.st5{fill-rule:evenodd;clip-rule:evenodd;fill:#FFFFFF;}
	.st6{fill:#FFFFFF;}
	.st7{fill-rule:evenodd;clip-rule:evenodd;fill:#B4008D;}
	.st8{fill-rule:evenodd;clip-rule:evenodd;fill:#9DBC0A;}
	.st9{fill:none;stroke:#9DBC0A;stroke-width:0.1962;stroke-miterlimit:10;}
	.st10{fill-rule:evenodd;clip-rule:evenodd;fill:#DF3F17;}
	.st11{fill:none;stroke:#DF3F17;stroke-width:0.1962;stroke-miterlimit:10;}
	.st12{fill-rule:evenodd;clip-rule:evenodd;fill:#F5B208;}
	.st13{fill:none;stroke:#F5B208;stroke-width:0.1962;stroke-miterlimit:10;}
	.st14{fill:#9DBC0A;}
	.st15{fill:none;stroke:#9DBC0A;stroke-width:0.2023;stroke-miterlimit:10;}
	.st16{fill:none;stroke:#DF3F17;stroke-width:0.2023;stroke-miterlimit:10;}
	.st17{fill:none;stroke:#F5B208;stroke-width:0.2023;stroke-miterlimit:10;}
	.st18{fill-rule:evenodd;clip-rule:evenodd;fill:#85754E;}
	.st19{fill:#85754E;}
	.st20{fill-rule:evenodd;clip-rule:evenodd;fill:#1A171B;}
	.st21{fill:#016268;}
	.st22{fill:#00A9C2;}
	.st23{fill:#21427B;}
	.st24{fill:#FAE101;}
	.st25{fill-rule:evenodd;clip-rule:evenodd;fill:#32327F;}
	.st26{fill-rule:evenodd;clip-rule:evenodd;fill:#FCB813;}
	.st27{fill:#002169;}
	.st28{fill:#C6C7C8;}
	.st29{fill:#F79420;}
	.st30{fill:#FCB831;}
	.st31{fill:#FDDD2E;}
	.st32{fill:#F3C700;}
	.st33{fill:#DB6216;}
	.st34{fill:#EAA600;}
	.st35{fill:#E32427;}
	.st36{fill:#FFFFFF;stroke:#FFFFFF;stroke-width:0.1124;stroke-miterlimit:10;}
	.st37{fill:url(#SVGID_1_);}
	.st38{fill-rule:evenodd;clip-rule:evenodd;fill:#C1272D;}
	.st39{fill-rule:evenodd;clip-rule:evenodd;fill:url(#SVGID_2_);}
	.st40{fill-rule:evenodd;clip-rule:evenodd;fill:url(#SVGID_3_);}
	.st41{fill-rule:evenodd;clip-rule:evenodd;fill:url(#SVGID_4_);}
	.st42{fill-rule:evenodd;clip-rule:evenodd;fill:url(#SVGID_5_);}
	.st43{fill-rule:evenodd;clip-rule:evenodd;fill:url(#SVGID_6_);}
	.st44{fill-rule:evenodd;clip-rule:evenodd;fill:url(#SVGID_7_);}
	.st45{fill-rule:evenodd;clip-rule:evenodd;fill:url(#SVGID_8_);}
	.st46{fill:#006937;}
	.st47{fill:#929990;}
	.st48{fill:#FFFFFF;stroke:#FFFFFF;stroke-width:0.1949;stroke-miterlimit:10;}
	.st49{fill:#18428F;}
	.st50{fill:#EC1848;}
	.st51{fill:#29A151;}
	.st52{fill:#C1272D;}
	.st53{fill:#29ABE2;}
	.st54{fill:#F7BE3E;}
	.st55{fill:url(#SVGID_9_);}
	.st56{fill-rule:evenodd;clip-rule:evenodd;fill:none;}
	.st57{clip-path:url(#SVGID_11_);fill-rule:evenodd;clip-rule:evenodd;}
	.st58{fill:#EFAF1F;}
	.st59{fill:#EFB022;}
	.st60{fill:#0E0A08;}
	.st61{fill:#DA2A28;}
	.st62{fill:#F6F6F5;}
	.st63{fill:#C7B086;}
	.st64{fill:#F1F0EE;}
	.st65{fill-rule:evenodd;clip-rule:evenodd;fill:url(#SVGID_12_);}
	.st66{fill-rule:evenodd;clip-rule:evenodd;fill:#FAF9F9;}
	.st67{fill-rule:evenodd;clip-rule:evenodd;fill:#F8B132;}
	.st68{fill-rule:evenodd;clip-rule:evenodd;fill:#1A70B7;}
	.st69{fill-rule:evenodd;clip-rule:evenodd;fill:#36A834;}
	.st70{fill-rule:evenodd;clip-rule:evenodd;fill:#E2000F;}
	.st71{fill-rule:evenodd;clip-rule:evenodd;fill:#1A1A18;}
	.st72{fill:url(#SVGID_13_);}
	.st73{fill:url(#SVGID_14_);}
	.st74{fill:url(#SVGID_15_);}
	.st75{fill:url(#SVGID_16_);}
	.st76{fill:url(#SVGID_17_);}
	.st77{fill:url(#SVGID_18_);}
	.st78{fill:url(#SVGID_19_);}
	.st79{fill:url(#SVGID_20_);}
	.st80{fill:url(#SVGID_21_);}
	.st81{fill:url(#SVGID_22_);}
	.st82{fill:url(#SVGID_23_);}
	.st83{fill:url(#SVGID_24_);}
	.st84{fill:url(#SVGID_25_);}
	.st85{fill:url(#SVGID_26_);}
	.st86{fill:#00A85D;}
	.st87{fill:#FFFFFF;stroke:#FFFFFF;stroke-width:0.1;stroke-miterlimit:10;}
	.st88{fill:#9FD8F5;}
	.st89{fill:#274888;}
	.st90{fill:#267DBF;}
	.st91{fill:#2F91CF;}
	.st92{fill:#2955A0;}
	.st93{fill:#236EB3;}
	.st94{fill:#CFEBFA;}
	.st95{fill:#42B7E9;}
	.st96{fill:#3FAAE0;}
	.st97{fill:#ED171F;}
	.st98{opacity:0.25;fill:url(#SVGID_27_);}
	.st99{fill:#FFFFFF;stroke:#FFFFFF;stroke-width:1.0606;stroke-miterlimit:10;}
	.st100{fill:#FFAF10;}
	.st101{fill:#151416;}
	.st102{fill:#E57641;}
	.st103{fill:none;}
	.st104{fill:#1C191B;}
	.st105{fill:#19181A;}
	.st106{fill:#DD7340;}
	.st107{fill:#181617;}
	.st108{fill:#EA7944;}
	.st109{fill:#0C0E13;}
	.st110{fill:#181719;}
	.st111{fill:#F2F1F2;}
	.st112{fill:#F6F5F5;}
	.st113{fill:#BA673F;}
	.st114{fill:#4E362A;}
	.st115{fill:#6A6567;}
	.st116{fill:none;stroke:#EA7944;stroke-width:0.3013;stroke-linecap:round;stroke-miterlimit:10;}
	.st117{fill:none;stroke:#FF00FF;stroke-width:0.25;stroke-miterlimit:10;}
</style>
<g>
	<rect class="st35" width="25.007" height="25"/>
	<path class="st6" d="M10.667,10.618c1.391-2.606,4.471-2.821,6.173-1.507c-0.321,0.451-0.642,0.903-0.964,1.355
		c-1.319-0.858-2.727-0.392-3.424,0.498c-0.719,0.919-0.696,2.243,0.059,3.136c0.727,0.86,2.096,1.256,3.362,0.425
		c0.319,0.447,0.639,0.895,0.978,1.371c-1.061,0.729-2.206,0.957-3.442,0.656c-1.236-0.301-2.131-1.055-2.747-2.189
		c-0.571,1.075-1.415,1.8-2.559,2.144c-0.884,0.266-1.772,0.233-2.641-0.085c-1.653-0.606-2.775-2.274-2.735-3.962
		c0.047-1.964,1.344-3.477,2.969-3.964C7.466,7.963,9.589,8.609,10.667,10.618z M4.427,12.496c-0.002,1.376,1.102,2.483,2.478,2.486
		c1.377,0.003,2.489-1.103,2.491-2.476c0.001-1.382-1.094-2.488-2.47-2.493C5.536,10.007,4.429,11.107,4.427,12.496z"/>
	<path class="st6" d="M22.199,16.589c-0.082,0.009-0.123,0.017-0.164,0.017c-0.713,0.001-1.425,0.004-2.138-0.004
		c-0.076-0.001-0.176-0.041-0.222-0.098c-1.062-1.323-2.118-2.651-3.19-3.996c0.128-0.163,0.255-0.327,0.384-0.489
		c0.922-1.159,1.846-2.316,2.764-3.477c0.083-0.105,0.168-0.15,0.303-0.149c0.681,0.006,1.362,0.002,2.042,0.002
		c0.06,0,0.121,0.006,0.232,0.012c-1.242,1.383-2.449,2.728-3.677,4.096C19.748,13.858,20.962,15.211,22.199,16.589z"/>
	<g>
		<path class="st36" d="M29.128,6.102c-1.106,0-1.756-0.643-1.756-1.737v-1.15c0-1.093,0.65-1.73,1.756-1.73s1.755,0.637,1.755,1.73
			v1.15C30.882,5.459,30.233,6.102,29.128,6.102z M29.128,5.39c0.649,0,0.987-0.356,0.987-1.024V3.223
			c0-0.675-0.338-1.031-0.987-1.031c-0.65,0-0.988,0.356-0.988,1.031v1.143C28.14,5.034,28.478,5.39,29.128,5.39z"/>
		<path class="st36" d="M34.128,3.298c1.055,0,1.574,0.4,1.574,1.343c0,0.949-0.625,1.387-1.543,1.387h-1.636
			c-0.057,0-0.087-0.031-0.087-0.094V1.655c0-0.063,0.031-0.094,0.087-0.094h2.729c0.056,0,0.094,0.031,0.094,0.094v0.5
			c0,0.056-0.038,0.094-0.094,0.094h-2.068v1.049H34.128z M34.14,5.341c0.493,0,0.793-0.175,0.793-0.699
			c0-0.45-0.231-0.662-0.793-0.662h-0.956v1.362H34.14z"/>
		<path class="st36" d="M37.66,6.028c-0.056,0-0.087-0.031-0.087-0.094V2.267h-0.825c-0.056,0-0.087-0.032-0.087-0.094V1.655
			c0-0.063,0.032-0.094,0.087-0.094h1.493c0.056,0,0.087,0.031,0.087,0.094v1.449h0.868c0.975,0,1.581,0.468,1.581,1.45
			c0,0.962-0.631,1.474-1.543,1.474H37.66z M38.328,5.322h0.899c0.475,0,0.768-0.219,0.768-0.768c0-0.475-0.237-0.744-0.8-0.744
			h-0.868V5.322z"/>
		<path class="st36" d="M42.91,5.341h2.005c0.062,0,0.094,0.031,0.094,0.087v0.506c0,0.063-0.032,0.094-0.094,0.094h-2.673
			c-0.057,0-0.087-0.031-0.087-0.094V1.655c0-0.063,0.031-0.094,0.087-0.094h2.586c0.062,0,0.094,0.031,0.094,0.094v0.506
			c0,0.056-0.032,0.087-0.094,0.087H42.91v1.168h1.755c0.062,0,0.094,0.032,0.094,0.094V4.01c0,0.063-0.032,0.094-0.094,0.094H42.91
			V5.341z"/>
		<path class="st36" d="M46.166,6.871c-0.062,0-0.094-0.031-0.094-0.087V5.422c0-0.063,0.032-0.094,0.094-0.094h0.157
			c0.424-0.131,0.612-0.849,0.786-3.667c0.007-0.069,0.038-0.1,0.101-0.1h2.473c0.063,0,0.095,0.031,0.095,0.094v3.673h0.337
			c0.056,0,0.094,0.032,0.094,0.094v1.362c0,0.056-0.038,0.087-0.094,0.087h-0.563c-0.062,0-0.094-0.031-0.094-0.087V6.028h-2.642
			v0.756c0,0.056-0.032,0.087-0.087,0.087H46.166z M47.347,5.328h1.667V2.255h-1.168C47.772,3.854,47.666,4.822,47.347,5.328z"/>
		<path class="st36" d="M54.372,6.028c-0.056,0-0.087-0.031-0.087-0.094V4.503c0-0.531,0.025-1.181,0.056-1.718l-0.018-0.006
			c-0.175,0.368-0.437,0.856-0.668,1.23l-1.181,1.955c-0.024,0.044-0.062,0.063-0.106,0.063h-0.631
			c-0.063,0-0.094-0.031-0.094-0.094V1.655c0-0.063,0.031-0.094,0.094-0.094h0.562c0.063,0,0.094,0.031,0.094,0.094v1.524
			c0,0.524-0.018,1.162-0.056,1.693l0.019,0.006c0.174-0.337,0.412-0.756,0.625-1.131l1.218-2.124
			c0.025-0.038,0.062-0.063,0.113-0.063h0.631c0.056,0,0.087,0.031,0.087,0.094v4.279c0,0.063-0.032,0.094-0.087,0.094H54.372z"/>
		<path class="st36" d="M59.241,1.655c0-0.063,0.032-0.094,0.087-0.094h0.575c0.056,0,0.087,0.031,0.087,0.094v4.279
			c0,0.063-0.032,0.094-0.087,0.094h-0.575c-0.056,0-0.087-0.031-0.087-0.094V4.116h-1.762v1.818c0,0.063-0.031,0.094-0.087,0.094
			h-0.574c-0.057,0-0.087-0.031-0.087-0.094V1.655c0-0.063,0.031-0.094,0.087-0.094h0.574c0.057,0,0.087,0.031,0.087,0.094v1.768
			h1.762V1.655z"/>
		<path class="st36" d="M62.448,5.341h2.005c0.062,0,0.094,0.031,0.094,0.087v0.506c0,0.063-0.032,0.094-0.094,0.094H61.78
			c-0.057,0-0.087-0.031-0.087-0.094V1.655c0-0.063,0.031-0.094,0.087-0.094h2.586c0.062,0,0.094,0.031,0.094,0.094v0.506
			c0,0.056-0.032,0.087-0.094,0.087h-1.918v1.168h1.755c0.062,0,0.094,0.032,0.094,0.094V4.01c0,0.063-0.032,0.094-0.094,0.094
			h-1.755V5.341z"/>
		<path class="st36" d="M68.541,1.655c0-0.063,0.032-0.094,0.087-0.094h0.575c0.056,0,0.087,0.031,0.087,0.094v4.279
			c0,0.063-0.032,0.094-0.087,0.094h-0.575c-0.056,0-0.087-0.031-0.087-0.094V4.116h-1.762v1.818c0,0.063-0.031,0.094-0.087,0.094
			h-0.574c-0.057,0-0.087-0.031-0.087-0.094V1.655c0-0.063,0.031-0.094,0.087-0.094h0.574c0.057,0,0.087,0.031,0.087,0.094v1.768
			h1.762V1.655z"/>
		<path class="st36" d="M73.503,1.655c0-0.063,0.032-0.094,0.087-0.094h0.575c0.056,0,0.087,0.031,0.087,0.094v4.279
			c0,0.063-0.032,0.094-0.087,0.094h-0.575c-0.056,0-0.087-0.031-0.087-0.094V4.116h-1.762v1.818c0,0.063-0.031,0.094-0.087,0.094
			H71.08c-0.057,0-0.087-0.031-0.087-0.094V1.655c0-0.063,0.031-0.094,0.087-0.094h0.574c0.057,0,0.087,0.031,0.087,0.094v1.768
			h1.762V1.655z"/>
		<path class="st36" d="M75.561,6.028c-0.069,0-0.094-0.038-0.075-0.106l1.499-4.285c0.018-0.05,0.05-0.075,0.1-0.075h0.712
			c0.05,0,0.081,0.025,0.1,0.075l1.499,4.285c0.018,0.069-0.012,0.106-0.075,0.106H78.71c-0.051,0-0.095-0.025-0.107-0.075
			l-0.306-0.944h-1.711l-0.306,0.944c-0.019,0.05-0.056,0.075-0.107,0.075H75.561z M76.798,4.329h1.286l-0.631-1.943h-0.024
			L76.798,4.329z"/>
		<path class="st36" d="M82.023,1.561h1.574c0.063,0,0.094,0.031,0.094,0.094v4.279c0,0.063-0.031,0.094-0.094,0.094h-0.568
			c-0.057,0-0.095-0.031-0.095-0.094V4.416h-0.687l-1.05,1.549c-0.024,0.044-0.068,0.063-0.112,0.063h-0.725
			c-0.068,0-0.106-0.044-0.056-0.112l1.137-1.58c-0.612-0.163-0.987-0.643-0.987-1.331C80.455,2.098,81.036,1.561,82.023,1.561z
			 M82.934,3.735V2.267h-0.899c-0.531,0-0.812,0.256-0.812,0.749c0,0.469,0.281,0.719,0.812,0.719H82.934z"/>
		<path class="st36" d="M29.022,14.436c-0.931,0-1.724-0.493-1.724-1.593v-1.424c0-1.1,0.8-1.599,1.712-1.599
			c0.481,0,0.962,0.156,1.337,0.418c0.044,0.032,0.05,0.075,0.018,0.125l-0.293,0.425c-0.032,0.056-0.075,0.056-0.131,0.025
			c-0.281-0.193-0.619-0.281-0.931-0.281c-0.606,0-0.956,0.337-0.956,0.893v1.399c0,0.568,0.356,0.899,0.962,0.899
			c0.356,0,0.744-0.112,1.037-0.325c0.051-0.038,0.095-0.032,0.125,0.025l0.294,0.425c0.032,0.05,0.032,0.094-0.012,0.131
			C30.065,14.287,29.54,14.436,29.022,14.436z"/>
		<path class="st36" d="M32.21,14.361c-0.062,0-0.094-0.044-0.062-0.106l0.593-1.306l-1.393-2.948c-0.032-0.063,0-0.106,0.062-0.106
			h0.638c0.05,0,0.094,0.019,0.112,0.075l0.962,2.187l0.887-2.187c0.018-0.056,0.056-0.075,0.106-0.075h0.631
			c0.063,0,0.101,0.044,0.069,0.106l-1.862,4.285c-0.018,0.056-0.056,0.075-0.112,0.075H32.21z"/>
		<path class="st36" d="M35.404,15.205c-0.062,0-0.094-0.031-0.094-0.087v-1.362c0-0.063,0.032-0.094,0.094-0.094h0.157
			c0.424-0.131,0.612-0.849,0.786-3.667c0.007-0.069,0.038-0.1,0.101-0.1h2.473c0.063,0,0.094,0.031,0.094,0.094v3.673h0.338
			c0.056,0,0.094,0.032,0.094,0.094v1.362c0,0.056-0.038,0.087-0.094,0.087H38.79c-0.062,0-0.094-0.031-0.094-0.087v-0.756h-2.642
			v0.756c0,0.056-0.032,0.087-0.087,0.087H35.404z M36.585,13.661h1.667v-3.073h-1.168C37.009,12.187,36.904,13.156,36.585,13.661z"
			/>
		<path class="st36" d="M42.448,14.436c-1.106,0-1.756-0.643-1.756-1.737v-1.15c0-1.093,0.65-1.73,1.756-1.73
			s1.755,0.637,1.755,1.73v1.15C44.203,13.793,43.554,14.436,42.448,14.436z M42.448,13.724c0.649,0,0.987-0.356,0.987-1.024v-1.143
			c0-0.675-0.338-1.031-0.987-1.031c-0.65,0-0.988,0.356-0.988,1.031V12.7C41.46,13.368,41.798,13.724,42.448,13.724z"/>
		<path class="st36" d="M47.341,14.436c-0.931,0-1.724-0.493-1.724-1.593v-1.424c0-1.1,0.8-1.599,1.712-1.599
			c0.481,0,0.962,0.156,1.337,0.418c0.044,0.032,0.05,0.075,0.018,0.125l-0.293,0.425c-0.032,0.056-0.075,0.056-0.131,0.025
			c-0.281-0.193-0.619-0.281-0.931-0.281c-0.606,0-0.956,0.337-0.956,0.893v1.399c0,0.568,0.356,0.899,0.962,0.899
			c0.356,0,0.744-0.112,1.037-0.325c0.051-0.038,0.095-0.032,0.125,0.025l0.294,0.425c0.032,0.05,0.032,0.094-0.012,0.131
			C48.385,14.287,47.86,14.436,47.341,14.436z"/>
		<path class="st36" d="M53.059,9.895c0.057,0,0.094,0.031,0.094,0.094v0.512c0,0.056-0.037,0.087-0.094,0.087h-1.255v3.68
			c0,0.063-0.032,0.094-0.087,0.094h-0.575c-0.056,0-0.087-0.031-0.087-0.094v-3.68h-1.261c-0.056,0-0.094-0.031-0.094-0.087V9.989
			c0-0.063,0.038-0.094,0.094-0.094H53.059z"/>
		<path class="st36" d="M56.085,9.895c0.987,0,1.568,0.575,1.568,1.524c0,0.962-0.581,1.53-1.568,1.53h-0.919v1.318
			c0,0.063-0.031,0.094-0.087,0.094h-0.575c-0.056,0-0.086-0.031-0.086-0.094V9.989c0-0.063,0.031-0.094,0.086-0.094H56.085z
			 M55.997,12.25c0.606,0,0.887-0.262,0.887-0.831c0-0.563-0.281-0.825-0.887-0.825h-0.831v1.656H55.997z"/>
		<path class="st36" d="M60.648,14.436c-1.106,0-1.756-0.643-1.756-1.737v-1.15c0-1.093,0.65-1.73,1.756-1.73
			s1.755,0.637,1.755,1.73v1.15C62.403,13.793,61.754,14.436,60.648,14.436z M60.648,13.724c0.649,0,0.987-0.356,0.987-1.024v-1.143
			c0-0.675-0.338-1.031-0.987-1.031c-0.65,0-0.988,0.356-0.988,1.031V12.7C59.66,13.368,59.998,13.724,60.648,13.724z"/>
		<path class="st36" d="M66.685,14.361c-0.056,0-0.087-0.031-0.087-0.094v-1.431c0-0.531,0.025-1.181,0.056-1.718l-0.018-0.006
			c-0.175,0.368-0.437,0.856-0.668,1.23l-1.181,1.955c-0.024,0.044-0.062,0.063-0.106,0.063h-0.631
			c-0.063,0-0.094-0.031-0.094-0.094V9.989c0-0.063,0.031-0.094,0.094-0.094h0.562c0.063,0,0.094,0.031,0.094,0.094v1.524
			c0,0.524-0.018,1.162-0.056,1.693l0.019,0.006c0.174-0.337,0.412-0.756,0.625-1.131l1.218-2.124
			c0.025-0.038,0.062-0.063,0.113-0.063h0.631c0.056,0,0.087,0.031,0.087,0.094v4.279c0,0.063-0.032,0.094-0.087,0.094H66.685z"/>
		<path class="st36" d="M71.966,9.895c0.057,0,0.094,0.031,0.094,0.094v0.512c0,0.056-0.037,0.087-0.094,0.087H70.71v3.68
			c0,0.063-0.032,0.094-0.087,0.094h-0.575c-0.056,0-0.087-0.031-0.087-0.094v-3.68h-1.261c-0.056,0-0.094-0.031-0.094-0.087V9.989
			c0-0.063,0.038-0.094,0.094-0.094H71.966z"/>
		<path class="st36" d="M74.081,13.674h2.005c0.062,0,0.094,0.031,0.094,0.087v0.506c0,0.063-0.032,0.094-0.094,0.094h-2.674
			c-0.056,0-0.086-0.031-0.086-0.094V9.989c0-0.063,0.031-0.094,0.086-0.094h2.587c0.062,0,0.094,0.031,0.094,0.094v0.506
			c0,0.056-0.032,0.087-0.094,0.087h-1.918v1.168h1.755c0.062,0,0.094,0.032,0.094,0.094v0.499c0,0.063-0.032,0.094-0.094,0.094
			h-1.755V13.674z"/>
		<path class="st36" d="M77.331,14.38c-0.062,0-0.094-0.032-0.094-0.087v-0.518c0-0.056,0.032-0.094,0.087-0.094
			c0.368-0.025,0.519-0.225,0.65-0.912c0.1-0.537,0.162-1.393,0.212-2.78c0-0.063,0.038-0.094,0.094-0.094h2.555
			c0.056,0,0.087,0.031,0.087,0.094v4.279c0,0.063-0.032,0.094-0.087,0.094h-0.575c-0.056,0-0.087-0.031-0.087-0.094v-3.673h-1.261
			c-0.044,1.075-0.125,1.837-0.232,2.368C78.474,13.993,78.087,14.355,77.331,14.38z"/>
		<path class="st36" d="M82.711,14.361c-0.056,0-0.086-0.031-0.086-0.094V9.989c0-0.063,0.031-0.094,0.086-0.094h0.582
			c0.056,0,0.087,0.031,0.087,0.094v1.449h0.868c0.993,0,1.581,0.538,1.581,1.443c0,0.925-0.575,1.481-1.543,1.481H82.711z
			 M83.381,13.655h0.899c0.525,0,0.768-0.25,0.768-0.775c0-0.499-0.243-0.737-0.768-0.737h-0.899V13.655z"/>
		<path class="st36" d="M89.716,9.989c0-0.063,0.032-0.094,0.087-0.094h0.575c0.056,0,0.087,0.031,0.087,0.094v4.279
			c0,0.063-0.032,0.094-0.087,0.094h-0.575c-0.056,0-0.087-0.031-0.087-0.094V12.45h-1.762v1.818c0,0.063-0.031,0.094-0.087,0.094
			h-0.574c-0.057,0-0.087-0.031-0.087-0.094V9.989c0-0.063,0.031-0.094,0.087-0.094h0.574c0.057,0,0.087,0.031,0.087,0.094v1.768
			h1.762V9.989z"/>
		<path class="st36" d="M91.775,14.361c-0.069,0-0.094-0.038-0.075-0.106L93.2,9.97c0.018-0.05,0.05-0.075,0.1-0.075h0.712
			c0.05,0,0.081,0.025,0.1,0.075l1.499,4.285c0.018,0.069-0.012,0.106-0.075,0.106h-0.611c-0.051,0-0.095-0.025-0.107-0.075
			l-0.306-0.944H92.8l-0.306,0.944c-0.019,0.05-0.056,0.075-0.107,0.075H91.775z M93.012,12.663h1.286l-0.631-1.943h-0.024
			L93.012,12.663z"/>
		<path class="st36" d="M98.236,9.895h1.574c0.063,0,0.094,0.031,0.094,0.094v4.279c0,0.063-0.031,0.094-0.094,0.094h-0.568
			c-0.057,0-0.095-0.031-0.095-0.094v-1.518h-0.687l-1.05,1.549c-0.024,0.044-0.068,0.063-0.112,0.063h-0.725
			c-0.068,0-0.106-0.044-0.056-0.112l1.137-1.58c-0.612-0.163-0.987-0.643-0.987-1.331C96.669,10.432,97.25,9.895,98.236,9.895z
			 M99.148,12.069v-1.468h-0.899c-0.531,0-0.812,0.256-0.812,0.749c0,0.469,0.281,0.719,0.812,0.719H99.148z"/>
		<path class="st36" d="M27.459,22.695c-0.057,0-0.087-0.031-0.087-0.094v-4.279c0-0.063,0.031-0.094,0.087-0.094h0.574
			c0.057,0,0.087,0.031,0.087,0.094v1.812l1.563-1.849c0.037-0.037,0.068-0.056,0.112-0.056h0.731c0.08,0,0.106,0.05,0.056,0.112
			l-1.655,1.88l1.792,2.361c0.05,0.063,0.012,0.112-0.056,0.112h-0.731c-0.05,0-0.087-0.013-0.112-0.056l-1.388-1.868l-0.312,0.338
			v1.493c0,0.063-0.031,0.094-0.087,0.094H27.459z"/>
		<path class="st36" d="M33.327,22.77c-1.106,0-1.756-0.643-1.756-1.737v-1.15c0-1.093,0.65-1.73,1.756-1.73s1.755,0.637,1.755,1.73
			v1.15C35.082,22.126,34.433,22.77,33.327,22.77z M33.327,22.058c0.649,0,0.987-0.356,0.987-1.024V19.89
			c0-0.675-0.338-1.031-0.987-1.031c-0.65,0-0.988,0.356-0.988,1.031v1.143C32.339,21.702,32.677,22.058,33.327,22.058z"/>
		<path class="st36" d="M38.302,18.229c0.987,0,1.568,0.575,1.568,1.524c0,0.962-0.581,1.53-1.568,1.53h-0.919v1.318
			c0,0.063-0.031,0.094-0.087,0.094h-0.575c-0.056,0-0.086-0.031-0.086-0.094v-4.279c0-0.063,0.031-0.094,0.086-0.094H38.302z
			 M38.214,20.584c0.606,0,0.887-0.262,0.887-0.831c0-0.563-0.281-0.825-0.887-0.825h-0.831v1.656H38.214z"/>
		<path class="st36" d="M41.347,22.695c-0.057,0-0.087-0.031-0.087-0.094v-4.279c0-0.063,0.031-0.094,0.087-0.094h3.098
			c0.063,0,0.094,0.031,0.094,0.094v4.279c0,0.063-0.031,0.094-0.094,0.094H43.87c-0.056,0-0.087-0.031-0.087-0.094v-3.68h-1.767
			v3.68c0,0.063-0.032,0.094-0.087,0.094H41.347z"/>
		<path class="st36" d="M47.847,22.77c-1.106,0-1.756-0.643-1.756-1.737v-1.15c0-1.093,0.65-1.73,1.756-1.73s1.755,0.637,1.755,1.73
			v1.15C49.602,22.126,48.953,22.77,47.847,22.77z M47.847,22.058c0.649,0,0.987-0.356,0.987-1.024V19.89
			c0-0.675-0.338-1.031-0.987-1.031c-0.65,0-0.988,0.356-0.988,1.031v1.143C46.859,21.702,47.197,22.058,47.847,22.058z"/>
		<path class="st36" d="M52.821,18.229c0.987,0,1.568,0.575,1.568,1.524c0,0.962-0.581,1.53-1.568,1.53h-0.919v1.318
			c0,0.063-0.031,0.094-0.087,0.094h-0.574c-0.057,0-0.087-0.031-0.087-0.094v-4.279c0-0.063,0.031-0.094,0.087-0.094H52.821z
			 M52.734,20.584c0.606,0,0.887-0.262,0.887-0.831c0-0.563-0.281-0.825-0.887-0.825h-0.831v1.656H52.734z"/>
		<path class="st36" d="M55.148,22.695c-0.069,0-0.094-0.038-0.075-0.106l1.499-4.285c0.018-0.05,0.05-0.075,0.1-0.075h0.712
			c0.05,0,0.081,0.025,0.1,0.075l1.499,4.285c0.018,0.069-0.012,0.106-0.075,0.106h-0.611c-0.051,0-0.095-0.025-0.107-0.075
			l-0.306-0.944h-1.711l-0.306,0.944c-0.019,0.05-0.056,0.075-0.107,0.075H55.148z M56.385,20.996h1.286l-0.631-1.943h-0.024
			L56.385,20.996z"/>
		<path class="st36" d="M63.252,23.514c-0.056,0-0.094-0.032-0.094-0.094v-0.725h-2.855c-0.057,0-0.087-0.031-0.087-0.094v-4.279
			c0-0.063,0.031-0.094,0.087-0.094h0.574c0.057,0,0.087,0.031,0.087,0.094v3.673h1.724v-3.673c0-0.063,0.038-0.094,0.094-0.094
			h0.569c0.063,0,0.094,0.031,0.094,0.094v3.673h0.344c0.056,0,0.087,0.032,0.087,0.087v1.337c0,0.062-0.032,0.094-0.087,0.094
			H63.252z"/>
		<path class="st36" d="M68.04,22.695c-0.056,0-0.087-0.031-0.087-0.094v-1.431c0-0.531,0.025-1.181,0.056-1.718l-0.018-0.006
			c-0.175,0.368-0.437,0.856-0.668,1.23l-1.181,1.955c-0.024,0.044-0.062,0.063-0.106,0.063h-0.631
			c-0.063,0-0.094-0.031-0.094-0.094v-4.279c0-0.063,0.031-0.094,0.094-0.094h0.562c0.063,0,0.094,0.031,0.094,0.094v1.524
			c0,0.524-0.018,1.162-0.056,1.693l0.019,0.006c0.175-0.337,0.412-0.756,0.625-1.131l1.218-2.124
			c0.025-0.038,0.062-0.063,0.113-0.063h0.631c0.056,0,0.087,0.031,0.087,0.094v4.279c0,0.063-0.032,0.094-0.087,0.094H68.04z"/>
		<path class="st36" d="M71.791,18.229h1.574c0.063,0,0.094,0.031,0.094,0.094v4.279c0,0.063-0.031,0.094-0.094,0.094h-0.568
			c-0.057,0-0.095-0.031-0.095-0.094v-1.518h-0.687l-1.05,1.549c-0.024,0.044-0.068,0.063-0.112,0.063h-0.725
			c-0.068,0-0.106-0.044-0.056-0.112l1.137-1.58c-0.612-0.163-0.987-0.643-0.987-1.331C70.223,18.766,70.804,18.229,71.791,18.229z
			 M72.702,20.403v-1.468h-0.899c-0.531,0-0.812,0.256-0.812,0.749c0,0.469,0.281,0.719,0.812,0.719H72.702z"/>
	</g>
</g>
</svg>
