<?xml version="1.0" encoding="utf-8"?>
<!-- Generator: Adobe Illustrator 22.1.0, SVG Export Plug-In . SVG Version: 6.00 Build 0)  -->
<svg version="1.1" id="Слой_1" xmlns="http://www.w3.org/2000/svg" xmlns:xlink="http://www.w3.org/1999/xlink" x="0px" y="0px"
	 viewBox="0 0 2459 803.2904053" style="enable-background:new 0 0 2459 803.2904053;" xml:space="preserve">
<style type="text/css">
	.st0{fill:#FFFFFF;}
</style>
<g>
	<g>
		<path class="st0" d="M0,449.3146973V4.9579554h102.7226334c34.4413834,0,60.3886337,9.4055328,77.8143845,28.1983719
			c17.4348602,18.8019524,26.1477356,46.0707092,26.1477356,81.8062592v57.6362305
			c0,35.7446747-8.7128754,62.9587402-26.1295166,81.6513214c-17.4166412,18.7017059-43.3365326,28.0434418-77.7505722,28.0434418
			H69.7212448v167.0211182H0z M69.7212448,219.0796509h33.1563263c11.5655289,0,20.1416931-3.1989746,25.7193985-9.6060333
			c5.5776978-6.3979492,8.3665466-17.2434845,8.3665466-32.5365906v-66.6225204
			c0-15.283989-2.7888489-26.0748367-8.3665466-32.3816452c-5.5777054-6.297699-14.1538696-9.4511032-25.7193985-9.4511032
			H69.7212448V219.0796509z"/>
		<path class="st0" d="M236.4324951,342.7186584V111.5539932c0-35.5259399,9.1503448-63.0043106,27.460144-82.4260101
			C282.1933289,9.7154055,308.4230957,0,342.5637207,0s60.3157043,9.7154055,78.5161438,29.1279869
			c18.2004395,19.4216957,27.3052063,46.9000664,27.3052063,82.4260101v231.1646729
			c0,35.5350647-9.1047668,63.0134277-27.3052063,82.4259949c-18.2004395,19.4217224-44.3755188,29.1279907-78.5161438,29.1279907
			s-60.3703918-9.7062683-78.6710815-29.1279907C245.58284,405.7320862,236.4324951,378.2537231,236.4324951,342.7186584z
			 M306.1537476,347.0568848c0,29.3375854,12.1305847,44.0018311,36.4099731,44.0018311
			c24.0606689,0,36.1001282-14.6642456,36.1001282-44.0018311v-239.841095
			c0-29.1279831-12.0394592-43.6919785-36.1001282-43.6919785c-24.2793884,0-36.4099731,14.5639954-36.4099731,43.6919785
			V347.0568848z"/>
		<path class="st0" d="M477.822937,4.9579554h69.7212524l37.4763184,350.2649536L618.1950684,4.9579554h69.7212524
			l34.6691895,353.3181152L758.8770142,4.9579554h60.7349854l-49.0692139,444.3567505h-92.9069824l-26.3482056-236.7423706
			l-26.3391724,236.7423706h-98.0198364L477.822937,4.9579554z"/>
		<path class="st0" d="M850.9090576,449.3146973V4.9579554h190.2615967v63.5238037H920.6303101v123.9488754h95.7505493v63.2139435
			h-95.7505493v130.1463165h120.5403442v63.5238037H850.9090576z"/>
		<path class="st0" d="M1084.2427979,449.3146973V4.9579554h105.2016602c35.6809082,0,61.8286133,8.3665495,78.434082,25.0996475
			c16.6055908,16.733099,24.9083252,42.4524918,24.9083252,77.1581802v35.0155563
			c0,45.6605835-15.2110596,75.7181854-45.6333008,90.172821c16.651123,7.0268097,28.5264893,18.3918152,35.6170654,34.0859222
			c7.0906982,15.7032471,10.6359863,35.8449402,10.6359863,60.4251099v68.4817505
			c0,24.5892639,2.1690674,42.5618591,6.5073242,53.9177551h-69.7213135
			c-1.6586914-5.1584473-2.7888184-9.0318604-3.4085693-11.6202087c-0.619751-2.5792236-1.2941895-7.5371704-2.0141602-14.8738708
			c-0.729126-7.3275452-1.0845947-16.6784058-1.0845947-28.0434265v-69.7212524
			c0-20.4515686-3.6181641-35.015564-10.845459-43.6919861c-7.2364502-8.6764221-18.802002-13.0146179-34.7056885-13.0146179
			h-24.1700439v180.9653625H1084.2427979z M1153.9641113,205.1354065h27.2686768
			c13.8349609,0,24.2703857-3.5635376,31.2971191-10.6905975c7.0177002-7.1270599,10.5356445-19.2576447,10.5356445-36.4099884
			v-43.6919785c0-15.9037323-2.7888184-27.523941-8.3664551-34.8606186
			c-5.5777588-7.3275681-14.5640869-11.0004654-26.9589844-11.0004654h-33.776001V205.1354065z"/>
		<path class="st0" d="M1436.8774414,449.3146973V4.9579554h96.8441162l51.6119385,316.4980164l47.8843994-316.4980164h100.5170898
			v444.3567505h-69.7211914v-318.548645l-48.1943359,318.548645h-66.1485596l-52.0584717-313.4630737v313.4630737H1436.8774414z"/>
		<path class="st0" d="M1780.5256348,449.3146973V4.9579554h190.2615967v63.5238037h-120.5402832v123.9488754h95.7504883v63.2139435
			h-95.7504883v130.1463165h120.5402832v63.5238037H1780.5256348z"/>
		<path class="st0" d="M1995.5770264,449.3146973L2066.291748,4.9579554h107.7077637l70.7148438,444.3567505h-69.7214355
			l-12.1396484-80.5667725h-85.4790039l-12.0759277,80.5667725H1995.5770264z M2086.4423828,308.3228455h67.2878418
			l-33.739502-223.6821594L2086.4423828,308.3228455z"/>
		<path class="st0" d="M2271.9829102,449.3146973V4.9579554h69.7214355v380.8329468h114.9624023v63.5238037H2271.9829102z"/>
	</g>
	<g>
		<path class="st0" d="M21.4723206,778.8911133h71.8265533v19.4490356H0.9205027V643.631897h91.2755966v19.4490356H21.4723206
			v47.5198364h65.2007599v19.2302856H21.4723206V778.8911133z"/>
		<path class="st0" d="M264.1933899,778.0070801c-15.2475281-15.4754028-22.7664795-34.4778442-22.7664795-57.0164795
			c0-22.5477905,7.5189514-41.5593262,22.7664795-57.0255737c15.2566528-15.4663086,34.7056885-23.2039795,58.1283875-23.2039795
			c28.2895203,0,53.4802856,14.5822144,66.7501221,37.5674438l-17.908783,10.3898315
			c-8.8404846-17.015625-27.6242065-28.0708008-48.8413391-28.0708008c-17.8996887,0-32.4909973,5.7508545-43.7648926,17.2434692
			c-11.2647705,11.4926147-16.7877808,25.8561401-16.7877808,43.0996094c0,17.015625,5.5230103,31.3790894,16.7877808,42.8717041
			c11.2738953,11.4926147,25.8652039,17.2435303,43.7648926,17.2435303c21.2171326,0,40.0008545-11.0551758,48.8413391-27.8520508
			l17.908783,10.1710815c-6.4161682,11.4835205-15.6941223,20.7705688-27.6333008,27.6242065
			c-11.9300842,6.8445435-24.9720764,10.1619873-39.1168213,10.1619873
			C298.8990784,801.2110596,279.4500427,793.4824829,264.1933899,778.0070801z"/>
		<path class="st0" d="M559.5198364,664.1837158c15.4662476-15.6849976,34.4778442-23.4226685,56.7977295-23.4226685
			c22.3199463,0,41.3314819,7.7376709,56.7977905,23.4226685c15.6940918,15.4754028,23.4317627,34.4778442,23.4317627,56.8068848
			c0,22.3198853-7.7376709,41.1036377-23.4317627,56.7977295c-15.4663086,15.6941528-34.4778442,23.4227295-56.7977905,23.4227295
			c-22.3198853,0-41.3314819-7.7285767-56.7977295-23.4227295c-15.4754028-15.6940918-23.2039795-34.4778442-23.2039795-56.7977295
			C536.3158569,698.6615601,544.0444336,679.6591187,559.5198364,664.1837158z M658.7518311,678.1097412
			c-11.2738647-11.7113647-25.4186401-17.4622192-42.4342651-17.4622192s-31.1603394,5.7508545-42.6529541,17.4622192
			c-11.2739258,11.4926147-17.0247803,25.8561401-17.0247803,42.8808594c0,17.015625,5.7508545,31.1604004,17.0247803,42.8717041
			c11.4926147,11.4926147,25.6373291,17.2435303,42.6529541,17.2435303s31.1604004-5.7509155,42.4342651-17.2435303
			c11.4926147-11.7113037,17.2434692-25.8560791,17.2434692-42.8717041
			C675.9953003,703.9658813,670.2444458,689.602356,658.7518311,678.1097412z"/>
		<path class="st0" d="M1097.9957275,643.631897c14.3725586,0,26.0839844,4.8668213,35.5897217,14.3635254
			c9.4967041,9.5057373,14.3635254,21.2171021,14.3635254,35.3618774c0,13.9260254-4.8668213,25.8651733-14.3635254,35.3618774
			c-9.5057373,9.5057983-21.2171631,14.3634644-35.5897217,14.3634644h-35.5806885v55.2575073h-20.5517578V643.631897H1097.9957275z
			 M1097.9957275,723.8614502c8.6217041,0,15.6940918-2.8708496,21.2171631-8.6217041
			c5.5321045-5.9696045,8.4029541-13.2607422,8.4029541-21.8824463c0-17.6809692-12.6044922-30.4950562-29.6201172-30.4950562
			h-35.5806885v60.9992065H1097.9957275z"/>
		<path class="st0" d="M1325.460083,778.8911133h71.8266602v19.4490356h-92.378418V643.631897h91.2756348v19.4490356h-70.723877
			v47.5198364h65.2008057v19.2302856h-65.2008057V778.8911133z"/>
		<path class="st0" d="M1568.6278076,664.1837158c15.4663086-15.6849976,34.4777832-23.4226685,56.7977295-23.4226685
			s41.331543,7.7376709,56.7977295,23.4226685c15.6940918,15.4754028,23.4318848,34.4778442,23.4318848,56.8068848
			c0,22.3198853-7.737793,41.1036377-23.4318848,56.7977295c-15.4661865,15.6941528-34.4777832,23.4227295-56.7977295,23.4227295
			s-41.3314209-7.7285767-56.7977295-23.4227295c-15.4754639-15.6940918-23.2039795-34.4778442-23.2039795-56.7977295
			C1545.4238281,698.6615601,1553.1523438,679.6591187,1568.6278076,664.1837158z M1667.8598633,678.1097412
			c-11.2739258-11.7113647-25.4187012-17.4622192-42.4343262-17.4622192s-31.1604004,5.7508545-42.6529541,17.4622192
			c-11.2739258,11.4926147-17.0247803,25.8561401-17.0247803,42.8808594c0,17.015625,5.7508545,31.1604004,17.0247803,42.8717041
			c11.4925537,11.4926147,25.6373291,17.2435303,42.6529541,17.2435303s31.1604004-5.7509155,42.4343262-17.2435303
			c11.4925537-11.7113037,17.2434082-25.8560791,17.2434082-42.8717041
			C1685.1032715,703.9658813,1679.352417,689.602356,1667.8598633,678.1097412z"/>
		<path class="st0" d="M1919.2026367,643.631897c14.3635254,0,26.0839844,4.8668213,35.5805664,14.3635254
			c9.5058594,9.5057373,14.3726807,21.2171021,14.3726807,35.3618774c0,13.9260254-4.8668213,25.8651733-14.3726807,35.3618774
			c-9.496582,9.5057983-21.217041,14.3634644-35.5805664,14.3634644h-35.5806885v55.2575073h-20.5517578V643.631897H1919.2026367z
			 M1919.2026367,723.8614502c8.6217041,0,15.6940918-2.8708496,21.2171631-8.6217041
			c5.5229492-5.9696045,8.4029541-13.2607422,8.4029541-21.8824463c0-17.6809692-12.5953369-30.4950562-29.6201172-30.4950562
			h-35.5806885v60.9992065H1919.2026367z"/>
		<path class="st0" d="M2146.6762695,778.8911133h66.7409668v19.4490356h-87.2929688V643.631897h20.552002V778.8911133z"/>
		<path class="st0" d="M2387.1733398,778.8911133H2459v19.4490356h-92.378418V643.631897h91.2756348v19.4490356h-70.723877
			v47.5198364h65.2009277v19.2302856h-65.2009277V778.8911133z"/>
	</g>
</g>
</svg>
