<svg xmlns="http://www.w3.org/2000/svg" width="104" height="50"><style>.st7{fill:#fff}.st16,.st7{fill-rule:evenodd;clip-rule:evenodd}.st16,.st17{fill:#85754e}.st18{fill:#fff}</style><g id="svg_1"><path id="svg_2" d="M70.7 24.9c.1-.1.3-.2.4-.3.9 0 1.8 0 2.6-.2.3-.1.6-.2 1-.3.2 0 .4.1.3.4-.3.1-.6.2-1 .3-.7.2-2.1.2-3.3.1zm5.3-1.1c.3-.1.5-.2.8-.3.8-.3 1.4-.6 2.3-.9.7-.3 1.3-.5 1.2-1.1.4-.1.6.1.5.4.6-.1 2.2-.4 2 1.3-.1.3-.1.6.4.6.4 0 .4.5 0 .5.1-.2 0-.3-.4-.1-.2.1-1 0-1.1-.7 0-.5.1-.9-.9-.9.4-.1.7-.2 1.1 0 .5.3 0 1 .4 1.1-.1-.5.2-.8-.4-1.2-.4-.3-1.7 0-2.4.3-1.2.4-2.1.8-3 1.2.5 0 1.1-.1 1.4.4.1-.1.1-.4-.6-.5.4-.3 1.1-.6 2-.6.7.1 1 .6 1.5.6-.6-.3-.9-.8-1.6-.8.2-.1 1.1-.7 1.8 0 .1.1.1.2 0 .2-.4-.3-.5 0-.2 0 .2 0 .3 0 .3.3.1.3.3.4.5.4-.1.4-.8.7-1.3.2l-.2.2c0-.3-.2-.6-.6-.8-.3 0-.4 0 0 .2s.5.7-.3.9c.2-.2-.1-.3-.4-.3-.2-.3-.5-.5-.5 0 0 .3-.3.4-.8.3.3-.4-.3-.6-.9-.5-.2 0-.3.1-.5.1-.1-.2-.1-.3-.1-.5z" class="st16"/><path id="svg_3" d="M18.4 26.2h84.8v.7H18.4z" class="st16"/><path id="svg_4" d="M18.4 24.6h84.8v.7H18.4z" class="st16"/><path id="svg_5" d="M.6 48.3h102.6v.7H.6z" class="st16"/><path id="svg_6" d="M.6 46.6h102.6v.7H.6z" class="st16"/><g id="svg_7"><path id="svg_8" d="m7.4 29.1.1 3.2c0 1.7.2 3 .7 3.8.5.8 1.3 1.3 2.3 1.3 1 0 1.7-.4 2.2-1.1.5-.7.7-1.8.7-3.3l-.1-3.9c0-.9-.1-1.7-.2-2.4-.1-.6-.3-1.3-.6-1.9h6.8c-.3.6-.4 1.3-.6 1.9-.1.6-.2 1.4-.2 2.4v11.8c0 .9.1 1.7.2 2.4.1.6.3 1.3.6 1.9h-5.6l.2-5.7.1 4.3.1-4.2c-1.4 1.2-3.2 1.8-5.4 1.8s-3.9-.7-5-2-1.6-3.3-1.6-6L2 29.1c0-.9-.1-1.7-.2-2.4-.1-.6-.3-1.3-.6-1.9h6.9c-.3.6-.5 1.3-.6 1.9-.1.7-.1 1.5-.1 2.4z" class="st17"/><path id="svg_9" d="M49.9 33.4c0-.5 0-.9-.2-1.3-.1-.4-.3-.8-.5-1.2 3.4-.3 6.1-.5 9.4-1.6.4.1.8.2 1.1.3.2.1.4.2.5.3.1.1.3.3.6.5l-2.6 3.2c-.2-.3-.4-.5-.6-.7-.2-.2-.4-.3-.6-.4-.6-.3-1.4-.4-2.3-.2v3.8l1.9-1.3c.4 0 .8-.1 1.3-.1 1.7 0 3.1.4 4.1 1.2 1.1.8 1.6 1.9 1.6 3.2 0 1.8-.9 3.3-2.6 4.5-1.7 1.2-3.9 1.7-6.6 1.7h.3-5.6c.2-.4.4-.9.5-1.4.1-.5.2-1.1.2-1.8v-8.7h.1zm5.5 9.7c1.1 0 1.9-.3 2.4-.9.6-.6.8-1.4.8-2.5 0-.9-.2-1.5-.6-2-.4-.5-1-.7-1.7-.7-.6 0-1.1.1-1.6.3v5.8h.7z" class="st16"/><path id="svg_10" d="M94.2 41v-5.6c0-1 0-1.8-.2-2.4-.1-.6-.3-1.3-.5-1.9h2.8c2.2 0 4.3-.3 6.5-.3h.6c.2 0 .4.1.7.1l-.7 4c-1-1.1-3.2-2.5-4.3-1.5v7.4c0 1 .1 1.8.2 2.4.1.6.3 1.3.5 1.9h-6.2c.3-.6.4-1.2.5-1.9 0-.5.1-1.3.1-2.2z" class="st17"/><path id="svg_11" d="M45.5 27.7c-2.1-.6-2.5-1.1-3.3-2-.3.1-.5.2-.6.4-.6.9-1.1 1.5-2.7 1-1.4-.4-2 .8 0 1.7 2.7 1.1 6.4-.1 6.6-1.1z" class="st17"/><path id="svg_12" d="M35.5 44.8c1.2.6 2 .9 3.6.8.4 0 2-1.6 2.6-1.9v1.6h5.6c-.3-.6-.6-1.1-.7-3v-3.8c0-1.2-.1-4.9.3-6.4.1-.4.4-.8.5-1.2h-6.5c.1.4.3.8.4 1.2.4 1.6.3 7.1.3 9.1 0 .4 0 .4-.3.6-.8.6-2.2.6-2.5-.5-.1-.4-.2-1-.2-1.5v-3c0-.7 0-2.3.2-3.6.1-1.1.2-1.5.7-2.4H33c.2.4.7.8.7 3.4 0 1.7-.1 6.8.2 8 .2 1.1.8 2.1 1.6 2.6z" class="st16"/><path id="svg_13" d="M27.1 41.9c-.4.2-1.6.3-2 0-.8-.1-1-1.3-.6-2.1.3-.6.3-.5 1-.5h1.6v2.6zm-2.8-8c1.4 0 2.5.6 2.8 2.1-.2 0-3 .9-3.3 1.1-2.1.8-3.9 2.3-3.9 4.8 0 2.3 2.8 4.1 4.9 3.6.4-.1 1.9-1.5 2.4-1.8v1.5h5.5c-.5-1.2-.5-1.2-.6-3.1-.1-2.2.1-4.4 0-6.5-.1-1.8-.6-3.4-2.2-4.3-.8-.5-1.8-.7-2.8-.8-2.4-.1-2.9.2-4.8.7l-.9 3.4c.7-.2 1.8-.7 2.9-.7z" class="st16"/><path id="svg_14" d="M84.2 42.1v-5.4c0-.8-.3-1.3.9-1.8.5-.2 1-.1 1.4 0 1 .5 1.2 1.7 1.3 2.7.1.8.1 1.6-.1 2.4-.5 2-1.8 2.5-3.5 2.1zm0-8.8v-1.9h-5.4c.3.7.4 1.5.5 2.4.2 1.9.1 4.5.1 6.5 0 2.4.1 5.8-.2 7.5l-.5 1.8H85c-.6-2.1-.8-2-.8-4.5.4.1.7.3 1.1.4 1.3.3 2.7 0 3.8-.5 3.5-1.6 4.4-6.9 3-10.3-.8-1.7-2.2-3.1-4.1-3.4-.5-.1-1.7-.1-2 .1-.4.1-1.5 1.8-1.8 1.9z" class="st16"/><path id="svg_15" d="M62.8 32.4c1 1.8 5.3 10.6 5.3 10.7-.5 1.2-2.9 4.2-4.5 5.6-.4.3-.7.7-1.1.8h5.3c1 0 1.7-.9 2.3-1.6 1.1-1.3 2.1-3.1 2.8-5C74.5 39 76 35.1 78 31.4h-5.5c0 1.7-.5 3.1-1.1 4.6-.2.5-.3.9-.5 1.4l-.2.5-.1.5c-.2-.2-.5-1.2-.7-1.5-.4-1.1-1.7-3.9-1.9-4.8-.1-.6 0-.6-1-.6h-4.8c.3.2.5.7.6.9z" class="st16"/></g><g id="svg_16"><path id="svg_17" d="m6.8 28.5.1 3.2c0 1.7.2 3 .7 3.8.5.8 1.3 1.3 2.3 1.3 1 0 1.7-.4 2.2-1.1.5-.7.7-1.8.7-3.3l-.1-3.9c0-.9-.1-1.7-.2-2.4-.1-.6-.3-1.3-.6-1.9h6.8c-.3.6-.4 1.3-.6 1.9.1.7 0 1.5 0 2.4v11.8c0 .9.1 1.7.2 2.4.1.6.3 1.3.6 1.9h-5.6l.2-5.7-.1 4.2.1-4.2c-1.4 1.3-3.2 1.9-5.4 1.9s-3.9-.7-5-2-1.6-3.3-1.6-6l-.1-4.3c0-.9-.1-1.7-.2-2.4-.1-.6-.3-1.3-.6-1.9h6.9c-.3.6-.5 1.3-.6 1.9-.1.7-.1 1.5-.1 2.4z" class="st18"/><path id="svg_18" d="M49.3 32.8c0-.5 0-.9-.2-1.3-.1-.4-.3-.8-.5-1.2 3.4-.3 6.1-.5 9.4-1.6.4.1.8.2 1.1.3.2.1.4.2.5.3.1.1.3.3.6.5L57.6 33c-.2-.3-.4-.5-.6-.7-.2-.2-.4-.3-.6-.4-.6-.3-1.4-.4-2.3-.2v3.8l1.9-1.3c.4 0 .8-.1 1.3-.1 1.7 0 3.1.4 4.1 1.2 1.1.8 1.6 1.9 1.6 3.2 0 1.8-.9 3.3-2.6 4.5-1.7 1.2-3.9 1.7-6.6 1.7h.3-5.6c.2-.4.4-.9.5-1.4.1-.5.2-1.1.2-1.8v-8.7h.1zm5.5 9.7c1.1 0 1.9-.3 2.4-.9.6-.6.8-1.4.8-2.5 0-.9-.2-1.5-.6-2-.4-.5-1-.7-1.7-.7-.6 0-1.1.1-1.6.3v5.8h.7z" class="st7"/><path id="svg_19" d="M93.6 40.4v-5.6c0-1 0-1.8-.2-2.4-.1-.6-.3-1.3-.5-1.9h2.8c2.2 0 4.3-.3 6.5-.3h.6c.2 0 .4.1.7.1l-.7 4c-1-1.1-3.2-2.5-4.3-1.5v7.4c0 1 .1 1.8.2 2.4.1.6.3 1.3.5 1.9H93c.3-.6.4-1.2.5-1.9 0-.5.1-1.3.1-2.2z" class="st18"/><path id="svg_20" d="M44.9 27c-2.1-.6-2.5-1.1-3.3-2-.3.1-.5.2-.6.4-.6.9-1.1 1.5-2.7 1-1.4-.4-2 .8 0 1.7 2.7 1.2 6.4 0 6.6-1.1z" class="st18"/><path id="svg_21" d="M34.9 44.2c1.2.6 2 .9 3.6.8.4 0 2-1.6 2.6-1.9v1.6h5.6c-.3-.6-.6-1.1-.7-3v-3.8c0-1.2-.1-4.9.3-6.4.1-.4.4-.8.5-1.2h-6.5c.1.4.3.8.4 1.2.4 1.6.3 7.1.3 9.1 0 .4 0 .4-.3.6-.8.6-2.2.6-2.5-.5-.1-.4-.2-1-.2-1.5v-3c0-.7 0-2.3.2-3.6.1-1.1.2-1.5.7-2.4h-6.5c.2.4.7.8.7 3.4 0 1.7-.1 6.8.2 8 .2 1.1.9 2.1 1.6 2.6z" class="st7"/><path id="svg_22" d="M26.5 41.3c-.4.2-1.6.3-2 0-.7-.2-.9-1.3-.6-2.2.3-.6.3-.5 1-.5h1.6v2.7zm-2.8-8.1c1.4 0 2.5.6 2.8 2.1-.2 0-3 .9-3.3 1.1-2.1.8-3.9 2.3-3.9 4.8 0 2.3 2.8 4.1 4.9 3.6.4-.1 1.9-1.5 2.4-1.8v1.5h5.5c-.5-1.2-.5-1.2-.6-3.1-.1-2.2.1-4.4 0-6.5-.1-1.8-.6-3.4-2.2-4.3-.8-.5-1.8-.7-2.8-.8-2.4-.1-2.9.2-4.8.7l-.9 3.4c.8-.2 1.8-.6 2.9-.7z" class="st7"/><path id="svg_23" d="M83.6 41.5v-5.4c0-.8-.3-1.3.9-1.8.5-.2 1-.1 1.4 0 1 .5 1.2 1.7 1.3 2.7.1.8.1 1.6-.1 2.4-.5 2-1.8 2.5-3.5 2.1zm0-8.8v-1.9h-5.4c.3.7.4 1.5.5 2.4.2 1.9.1 4.5.1 6.5 0 2.4.1 5.8-.2 7.5l-.5 1.8h6.3c-.6-2.1-.8-2-.8-4.5.4.1.7.3 1.1.4 1.3.3 2.7 0 3.8-.5 3.5-1.6 4.4-6.9 3-10.3-.8-1.7-2.2-3.1-4.1-3.4-.5-.1-1.7-.1-2 .1-.4.1-1.5 1.8-1.8 1.9z" class="st7"/><path id="svg_24" d="M62.3 31.8c1 1.8 5.3 10.6 5.3 10.7-.5 1.2-2.9 4.2-4.5 5.6-.4.3-.7.7-1.1.8h5.3c1 0 1.7-.9 2.3-1.6 1.1-1.3 2.1-3.1 2.8-5 1.6-3.9 3.1-7.8 5.1-11.5H72c0 1.7-.5 3.1-1.1 4.6-.2.5-.3.9-.5 1.4l-.2.5-.1.5c-.2-.2-.5-1.2-.7-1.5-.4-1.1-1.7-3.9-1.9-4.8-.1-.6 0-.6-1-.6h-4.8c.2.2.4.7.6.9z" class="st7"/></g><path id="svg_25" d="M52.1 23.6c6.5 0 11.8-5.3 11.8-11.8C63.9 5.3 58.6 0 52.1 0S40.3 5.3 40.3 11.8c0 6.5 5.3 11.8 11.8 11.8z" class="st16"/><path id="svg_26" d="M52.1 22.9c6.1 0 11.1-5 11.1-11.1S58.2.7 52.1.7 41 5.7 41 11.8s5 11.1 11.1 11.1z" class="st7"/><path id="svg_27" d="M53.6 28.9c1.2-.2 2.5-.5 3.8-1 .4.1.8.2 1.1.3.2.1.4.2.5.3.1.1.3.3.6.5l-2.5 3.3c-.2-.3-.4-.5-.6-.7-.2-.2-.4-.3-.6-.4-.6-.3-1.4-.4-2.3-.2v.2-2.3z" style="fill-rule:evenodd;clip-rule:evenodd;fill:#1a171b"/><path id="svg_28" d="M46.1 7.2c.4-.1.7-.2 1.1-.3v1c.3-.1.6-.2.9-.2v-1c.6-.2 1.1-.3 1.7-.5v1c.3-.1.6-.2.9-.2V6l1.4-.4c-.1 4.1-.1 8.3-.2 12.4-2.1-1.2-4.5-1.5-6.2-1.6.6-1.5 1.8-5.3.8-6.5L48 9c-.7.2-1.3.3-2 .5-.1-.7 0-1.5.1-2.3z" class="st16"/><path id="svg_29" d="M58.1 7.2c-.4-.1-.7-.2-1.1-.3v1c-.3-.1-.6-.2-.9-.2v-1c-.6-.2-1.1-.3-1.7-.5v1c-.3-.1-.6-.2-.9-.2V6l-1.4-.4c.1 4.1.1 8.3.2 12.4 2.1-1.2 4.5-1.5 6.2-1.6-.6-1.5-1.8-5.3-.8-6.5L56.2 9c.7.2 1.3.3 2 .5.1-.7 0-1.5-.1-2.3z" class="st7"/><path id="svg_30" d="M52.5 22c0-.1 0-.1 0 0 0-.1 0-.1 0 0 .2.1.3.2.6.3h.9c.3-.1.5-.2.7-.3 0 0 .1 0 .1-.1l.1-.1v-.1c0 .2-.1.4-.3.5-.2.1-.4.2-.8.3-.3.1-.6.1-.8 0-.3-.1-.4-.3-.5-.5zm2.4-1.4c.1.2.1.3.1.4h-.1s0-.1-.1-.2c-.1-.2-.3-.3-.6-.3h-.8c-.3.1-.5.2-.7.3-.2.1-.3.3-.3.4v-.1c0-.1 0-.2.1-.4s.2-.3.4-.4c.3-.2.6-.3 1.1-.3.3 0 .7.2.9.6zm-.2.6c-.1 0-.2-.1-.4 0H53c-.1 0-.2 0-.2.1-.1 0-.1.1-.2.2v.1h.1c.5-.1 1.2-.2 2-.4z" class="st18"/><g id="svg_31"><path id="svg_32" d="M55.4 21.5c-.1 0-.1-.1 0 0 0-.1 0-.1 0 0 .2.1.4.1.6.1.3 0 .5-.1.8-.3.3-.2.5-.3.6-.5 0 0 0-.1.1-.1v-.2c0 .2 0 .4-.2.6-.2.2-.4.4-.7.5-.3.1-.6.2-.8.2-.1 0-.3-.1-.4-.3zm1.9-2c-.3-.3-.6-.3-1.1-.2-.5.1-.8.3-1 .6-.2.2-.2.4-.3.5v.4s0 .1 0 0v-.1c0-.1 0-.3.2-.5.1-.2.3-.3.6-.5.3-.1.5-.2.8-.3.3 0 .5 0 .6.2l.1.1h.1v-.1c.2.1.1 0 0-.1zm0 .6c-.1 0-.2 0-.4.1 0 0-.1 0-.3.1-.2.1-.3.1-.3.1-.1 0-.2.1-.3.1-.1 0-.2.1-.3.1-.1 0-.2.1-.2.1-.1 0-.1.1-.1.2v.1h.1c.5-.1 1.1-.4 1.8-.9 0 .1 0 .1 0 0z" class="st7"/><path id="svg_33" d="M58 20.1c.2 0 .4 0 .6-.1.2-.1.5-.3.7-.5.2-.2.4-.5.5-.7v-.4c.1.2.1.4 0 .6-.1.2-.3.5-.5.7-.2.2-.5.4-.7.5-.2.1-.4.1-.6-.1zm1.3-2.5c-.3-.2-.7-.1-1.1.2-.4.3-.7.6-.8.9-.1.2-.1.4-.1.6 0 .2.1.3.1.3h.1v-.1c-.1-.1-.1-.3 0-.6.1-.2.2-.4.5-.6.2-.2.5-.4.7-.5.2-.1.5-.1.6 0 .1 0 .1.1.1.1h.1v-.1c.1 0 0-.1-.2-.2zm.2.6c-.1 0-.2.1-.4.2 0 0-.1.1-.3.2-.2.1-.3.2-.3.2-.1.1-.2.2-.3.2-.1.1-.2.2-.3.2l-.2.2c0 .1-.1.1-.1.3h.1c.7-.4 1.3-.9 1.8-1.5 0 .1.1 0 0 0z" class="st7"/><path id="svg_34" d="M60.1 18s0-.1 0 0c0-.1 0-.1 0 0 .2 0 .4-.1.6-.3.2-.2.4-.4.6-.7.2-.3.3-.5.3-.8v-.4h.1c.1.1.2.3.1.6 0 .2-.1.5-.3.8-.2.3-.4.5-.6.7-.3.1-.5.2-.8.1zm.7-2.8c-.4-.1-.7.1-1 .5-.3.4-.5.7-.6 1.1v.6c.1.1.1.2.2.3h.1v-.1c-.1-.1-.1-.3-.1-.5s.1-.5.3-.7c.2-.3.3-.5.6-.7.2-.2.4-.3.6-.2H61.2c-.2-.2-.3-.3-.4-.3zm.3.5c-.1 0-.2.1-.3.3 0 0-.1.1-.2.3-.1.2-.2.3-.2.3-.1.1-.1.2-.2.3-.1.1-.1.2-.2.3-.1.1-.1.2-.1.2v.3c.4-.6.8-1.2 1.2-2 .1 0 .1 0 0 0z" class="st7"/><path id="svg_35" d="M61.6 15.2s-.1 0 0 0c-.1 0 0-.1 0 0 .2-.1.3-.2.5-.5.1-.3.2-.5.3-.9.1-.3.1-.6.1-.8v-.4c.2.1.3.3.3.5s0 .5-.1.8c-.1.3-.2.6-.4.8-.3.4-.5.5-.7.5zm-.2-2.8c-.4.1-.6.3-.8.8-.2.5-.3.9-.2 1.2 0 .2.1.4.2.5.1.1.2.2.3.2h.1V15c-.1-.1-.2-.2-.2-.5 0-.2 0-.5.1-.8.1-.3.2-.6.3-.8.1-.2.3-.4.5-.4h.2c-.2-.1-.4-.1-.5-.1zm.4.4c-.1.1-.1.2-.2.4 0 0 0 .1-.1.3-.1.2-.1.3-.1.4 0 .1-.1.2-.1.4 0 .1-.1.2-.1.3v.2c0 .1 0 .2.1.2h.1v-.1c.1-.6.3-1.3.4-2.1.1 0 .1 0 0 0 .1 0 0 0 0 0z" class="st7"/><path id="svg_36" d="M62.1 12.2c0-.1 0-.1 0 0 .1-.2.3-.3.3-.6.1-.3.1-.6.1-.9 0-.3-.1-.6-.2-.8 0 0 0-.1-.1-.1 0 0 0-.1-.1-.1H62c.2 0 .3.2.4.4.1.2.1.5.2.8 0 .3 0 .6-.1.9 0 .1-.1.3-.4.4zm-.9-2.7c.2-.1.3-.1.3-.1v.1s-.1 0-.2.1c-.2.1-.3.3-.4.6-.1.3-.1.6-.1.9 0 .3.1.6.1.8.1.2.2.4.4.4v.1h-.1c-.1 0-.2 0-.3-.1-.1-.1-.3-.2-.3-.4-.1-.3-.2-.7-.1-1.2.2-.7.4-1 .7-1.2zm.5.3c-.1.1-.1.2-.1.4v1.7c0 .1.1.1.2.2h.1V12c-.1-.7 0-1.4-.2-2.2.1 0 .1 0 0 0 .1 0 0 0 0 0z" class="st7"/><path id="svg_37" d="M61.8 9.1c-.1 0-.1 0 0 0 .1-.2.1-.4.1-.7 0-.3-.1-.6-.2-.9-.1-.3-.2-.5-.4-.7l-.1-.1s-.1 0-.1-.1H61c.2 0 .4 0 .5.2.2.2.3.4.4.7.1.3.2.6.1.9.1.4 0 .6-.2.7zM60.1 7c-.3.3-.4.7-.3 1.1.1.5.2.9.5 1.1.2.2.3.3.5.3h.3s.1 0 0 0-.3-.1-.5-.2c-.1-.2-.3-.4-.4-.7 0-.4-.1-.7-.1-1 0-.3.1-.5.2-.7l.1-.1v-.1c0 .1-.1.1-.3.3zm.6 0v.4s0 .1.1.3c.1.2.1.3.1.4 0 .1.1.2.1.4 0 .1.1.2.1.3 0 .1.1.2.1.2 0 .1.1.1.2.1h.1V9c-.2-.6-.4-1.3-.8-2 .1 0 .1 0 0 0 .1 0 0 0 0 0z" class="st7"/><path id="svg_38" d="M60.6 6.4c0 .1-.1.1 0 0-.1 0-.1 0 0 0v-.7c-.1-.3-.2-.5-.4-.8-.2-.3-.4-.4-.5-.6 0 0-.1 0-.1-.1h-.2v-.1c.2-.1.4-.1.6.1.2.1.4.3.6.6.2.3.3.5.3.8-.1.4-.2.6-.3.8zm-2.2-1.6c-.2.3-.2.7 0 1.2s.5.8.7.9c.2.1.4.2.5.2.1 0 .3-.1.3-.1v-.1h-.1c-.1.1-.3 0-.5-.1s-.3-.3-.5-.5c-.2-.3-.3-.5-.4-.8-.1-.3-.1-.5.1-.7 0-.1.1-.1.1-.1v-.1h-.1c.1 0 0 .1-.1.2zm.6-.1c0 .1 0 .2.1.4 0 0 .1.1.2.3.1.2.2.3.2.3.1.1.1.2.2.3.1.1.1.2.2.3.1.1.1.2.1.2s.1.1.2.1v-.1c-.3-.6-.7-1.2-1.2-1.8.1-.1 0-.1 0 0z" class="st7"/></g><path id="svg_39" d="M67.3 15.5v.1c.2.1 1 .6 1 .9-.2 0-.2-.1-.5-.1h-.7c-.2 0-.3-.2-.3-.3v-.4c-.2.2-.5.4-.5.8 0 .7.3.6.3 1h-.2c-.2 0 0-.1-.3-.1 0 .4.3.6.6.8 0 .5.6 1.3.6 1.7 0 .2-.5.6-.6.7-.2-.3-.6-.9-1-.9h-.2l-.6.1c-.2.3-.7.5-.7 1v.3c0 .3 1.9 1.8 2.2 1.8.2 0 1.4-.8 1.6-1 .3-.2 1.4-.7 1.4-1.2v-.2c0-.4-.3-.8-.3-1.2v-.2c0-.4.3-.5.7-.5h.3c.4 0 .4.1.7.1.1.1.3.2.3.4v.3c.7.2.9.8 1.2 1.4.3 0 1.2.3 1.4.4.4.2.6.7.6 1.2h-.2c-.3 0-.3.1-.5.3 0 .6-.1.1-.5.4-.2.2-.3.3-.3.7v.5c0 .4.4.5.9.5h2.5c.1-.1.2-.3.2-.4v-.2c.1-.1.3-.1.3-.3v-.4c0-.4-.2-.5-.2-.9v-.1c0-.2.2-.7.3-.9h-.3c-.1-.1-.2-.2-.2-.3 0-.4-.2-.5-.3-.8.1-.1.1-.1.1-.3 0-.1-.1-.1-.1-.3-.1.1-.1.1-.3.1h-.1c-.4 0-.8-.3-.8-.7v-.5c0-.3.1-.5.1-.7l-.5-.1v-.4c0-.2 0-.2.1-.3 1.1 0 2.5-.2 2.5-1.2v-.7c0-.9-1.2-1.5-1.7-1.9l-.2-.1-.5-.3-.1-.1-.1-.1-.3-.1-.2-.1-.5-.4c-.2-.3-.4-.4-.4-.9v-.5c0-.3.3-.7.5-.7s.5.3.5.5v.2c0 .3-.1.2-.1.5 0 .2.2.4.3.6.4.2.6.3 1.1.4l.3-.1h.1c.5-.1.8-.5.8-1.1-.2.1-.3.5-.6.5h-.1c-.1 0-.2 0-.2-.1 0 0 .3-.3.3-.7v-.1c0-.5-.6-.7-1-.7h-.1c-.4 0-.5-.1-.9-.1-.8 0-1.3.5-1.3 1.3v.1c0 .4.2.6.3.9l.3.3v.1l.1.1.5.4.1.1v.1l.1.1.2.1.2.1c.6.4 1.6.9 1.6 1.9 0 .4-.2.8-.7.8h-.2c-.5 0-.8-.2-1.2-.3-.1-.3-.8-1.2-1-1.4-.5-.3-1.3-.2-1.5-.9l-.1-.1-.1-.2-.1-.7v-.1l-.1-.3v-.1l.1-.1c.1-1 .7-1.9 1.4-2.2l.3.1c0-.1.4-.8.6-1 .1-.3.3-.9.3-1.3v-.6l.4.1v-.2c0-.8-.5-2.1-1-2.2 0-.1.1-.3.1-.3 0-.4-1.1-1.2-1.5-1.2h-.1l-.5-.7H71l-.7-.1c-.4-.1-.7.1-1.1.1-.3 0-.4.1-.5.3l-.6.1s-.6.3-.8.3v.3c0 .2.3.3.3.4l-.2.3-.1.3h-.2v.2c-.2.1-1.2.9-1.2 1 0 .2.2.4.4.5l.1.3-.3.2c0 .3.1.4.3.5V8h.3c.3 0 .2-.3.5-.3.2 0 .2 0 .3.1l.2-.1c.1-.1.2-.1.2-.3v-.3c.2.1.3.1.3.5 0 .6-.9 1-1.5 1l-.6.1-.7-.4v-.4l-.3.1-.3.3h-.1c-.1-.5-.2-.2-.2-1.1.3-.4.5-.4.5-1v-.7c0-.3-.2-.5-.5-.5 0-.4-.4-.6-.9-.6H63.3L63 5h-.3c-.2 0-.2.1-.3.2-.2.2-.4.6-.3 1l.1.5c.7.1.8.6.9 1.3l.1 1-.4.2c.3.1.5.4.7.7-.1.1-.3.3-.3.5v.3c.1-.1.2-.2.5-.2h.2c.1 0 .5.2.5.3 0 .1-.2.1-.3.5h.5c.2 0 0 .1.3.1v.1l-.7.1h-1.1c-.1-.1-.3-.7-.3-.9 0-.2-.5-.3-.7-.3-.5 0-1.2.2-1.2.7v.1c0 .3 0 0 .1.2-.1.1-.1 0-.1.2v.3c0 .2.1.5.3.6 0 .2-.1.1-.1.3 0 .4.4.9.9.9.4 0 .5-.2.7-.2.2 0 .8.1.9.2l.5.2c0 .1.1.1.2.1h.1c.1.1.1.2.3.2h.3c.2 0 .2.2.4.2h.3c.1 0 .4.3.7.3h.6l.3.8z" class="st7"/><path id="svg_40" d="M58.6 4.3s0-.1 0 0c0-.2-.1-.4-.2-.6l-.6-.6c-.3-.3-.5-.4-.7-.4h-.4v-.1c.1-.1.3-.2.6-.1.2.1.5.2.7.4.2.2.4.4.6.7.1.2.1.4 0 .7zm-2.5-.8c-.1.4 0 .8.3 1.1.3.4.6.6 1 .6.2.1.4 0 .5 0 .1-.1.2-.1.3-.2v-.1h-.1c-.1.1-.3.1-.5.1s-.4-.2-.7-.3l-.6-.6c-.1-.2-.2-.5-.2-.7 0-.1 0-.1.1-.2v-.1c0 .1 0 .2-.1.4zm.5-.3c0 .1.1.2.3.3l.2.2c.2.1.2.2.3.2.1.1.2.2.3.2.1.1.2.1.3.2.1.1.1.1.2.1h.3v-.1c-.7-.3-1.2-.8-1.9-1.1.1-.1 0-.1 0 0 0-.1 0-.1 0 0z" class="st18"/><path id="svg_41" d="M48.6 3c-.3.1-.5.4-.8.9-.3.5-.5.7-.8.6H46.7v.1c0 .1.1.1.2.1.3.1.5 0 .7-.1.2-.2.3-.3.4-.6.1-.2.2-.4.2-.6.1-.1.2-.2.4-.3.1 0 .1 0 0-.1.1 0 .1 0 0 0zm.1-.3c0 .1 0 .1 0 0v.1h-.1s-.1 0-.2-.1c-.3-.1-.6-.2-.9-.2-.3 0-.6.1-.8.2-.2.1-.4.3-.5.6-.1.3 0 .5.1.6V4h-.1c-.1 0-.1-.2-.2-.3-.1-.2-.1-.3 0-.5s.2-.4.4-.6c.2-.2.4-.3.7-.3.3 0 .6 0 1 .1.1.1.3.2.6.3zm-.8.4c-.3 0-.6.2-.8.4-.2.2-.4.4-.4.7 0 0 0 .1-.1 0h-.1v-.3c.1-.2.2-.4.5-.6.3-.2.5-.3.9-.2 0-.1 0-.1 0 0z" class="st17"/><g id="svg_42"><path id="svg_43" d="M46.3 4.7c-.2.1-.4.5-.6 1.1-.1.5-.4.8-.7.8H44.7v.1c.1 0 .1.1.3.1.3 0 .5-.1.6-.3.1-.2.2-.4.2-.6 0-.2 0-.4.1-.6 0-.1.1-.3.3-.4.2-.1.2-.1.1-.2zm-.1-.3c.1.1.1.1 0 0v.1H45.9c-.3 0-.7 0-.9.1-.3.1-.5.2-.7.4-.2.2-.3.4-.3.7 0 .3.1.5.2.6v.1h-.1c-.1 0-.2-.1-.3-.2-.1-.1-.1-.3-.1-.5s.1-.5.2-.7c.1-.2.4-.4.6-.5.3-.1.6-.2 1-.1.2-.1.4 0 .7 0zm-.7.6c-.3.1-.5.3-.7.6-.2.3-.3.5-.3.7v.1h-.1c0-.1-.1-.2-.1-.3 0-.2.1-.4.3-.7.4-.3.6-.4.9-.4 0-.1 0-.1 0 0 .1 0 .1 0 0 0z" class="st16"/><path id="svg_44" d="M44.5 7c-.2.2-.3.6-.2 1.2 0 .5-.1.8-.4.9h-.2v.1h.3c.3-.1.4-.2.5-.4.1-.2.1-.4.1-.7-.1-.2-.1-.4-.1-.6-.1-.2 0-.3 0-.5.1 0 .1 0 0 0 0-.1 0-.1 0 0zm-.1-.3v.1H44.1l-.9.3c-.3.1-.5.3-.6.6-.1.2-.2.5-.1.8.1.3.2.4.4.5 0 0 .1.1 0 .1h-.1c-.1 0-.2-.1-.3-.2-.1-.1-.2-.2-.2-.4s0-.5.1-.7c.1-.2.2-.4.5-.6.2-.2.5-.3.9-.4.1-.1.3-.1.6-.1zm-.5.7c-.2.2-.4.4-.5.7-.1.3-.1.6 0 .8V9h-.1c-.1-.1-.2-.2-.2-.3 0-.2 0-.4.1-.7.2-.3.3-.5.7-.6-.1-.1-.1-.1 0 0z" class="st16"/><path id="svg_45" d="M43.5 9.7c-.1.2-.1.6.1 1.2.1.5.1.8-.2 1h-.2v.1h.1c.1 0 .2 0 .3-.1.2-.1.4-.3.4-.5s0-.5-.1-.7c-.1-.2-.2-.4-.2-.5v-.5h-.2c.1-.1 0-.1 0 0zm-.1-.3c.1.1.1.1 0 .1h-.1s-.1 0-.1.1c-.3.1-.6.3-.8.5-.2.2-.4.4-.5.7-.1.3-.1.5.1.8.1.2.3.4.5.4 0 0 .1 0 .1.1 0 0 0 .1-.1 0-.1 0-.2 0-.3-.1-.1-.1-.3-.2-.3-.4-.1-.2-.1-.4-.1-.7 0-.2.1-.5.3-.7.2-.2.4-.4.8-.6 0 0 .2-.1.5-.2zm-.4.9c.1-.1.1-.1 0 0 0-.1 0-.1 0 0-.3.2-.4.4-.5.7-.1.3 0 .5 0 .7.1.1.1.2.2.2h.1v-.1c-.1-.2-.2-.5-.1-.8.1-.2.2-.5.3-.7z" class="st16"/><path id="svg_46" d="M43.4 12.5c-.1.3 0 .6.4 1.1.3.5.3.8.1 1l-.1.1c-.1 0-.1.1-.1.1v.1h.1c.1 0 .1 0 .2-.1.2-.2.3-.4.3-.6 0-.2-.1-.4-.3-.6-.2-.2-.3-.3-.3-.5-.1-.1-.1-.3-.1-.5-.1-.1-.1-.1-.2-.1 0-.1 0-.1 0 0zm-.2-.2c-.2.1-.4.3-.6.4-.3.2-.5.5-.6.8-.1.3-.1.5-.1.8 0 .2.1.5.3.6.1.2.3.2.4.3h.4c.1 0 .1 0 .1-.1 0 0 0-.1-.1-.1-.2 0-.4 0-.6-.2-.2-.2-.3-.5-.2-.7 0-.3.1-.5.3-.8.2-.2.4-.5.6-.7.1 0 .1-.1.1-.1v-.2c.1.1.1.1 0 0 .1 0 0 0 0 0zm-.1.9c-.1.3-.1.6-.1.9.1.3.2.5.3.7v.1h-.1c-.1 0-.2-.1-.2-.2-.1-.2-.2-.4-.2-.7 0-.3.1-.6.3-.8-.1-.1-.1-.1 0 0 0-.1 0 0 0 0z" class="st16"/><path id="svg_47" d="M44.2 15.2c0 .3.2.6.6 1 .4.4.5.7.3 1l-.1.1-.1.1v.1h.1c.1 0 .1-.1.2-.2.2-.2.2-.4.1-.6-.1-.2-.2-.4-.4-.5-.2-.1-.3-.3-.4-.4-.1-.1-.2-.3-.2-.4 0-.3 0-.3-.1-.2 0-.1 0-.1 0 0zm-.3-.1c.1-.1.1-.1 0 0 .1 0 .1 0 0 0 .1.1 0 .1 0 .1l-.1.1c-.2.3-.3.5-.4.8-.1.3-.1.6-.1.8 0 .3.2.5.4.7.2.2.4.2.6.1h.1v.1c-.1 0-.2.1-.3.1-.2 0-.3 0-.5-.2-.2-.1-.3-.3-.4-.6-.1-.2-.1-.5-.1-.8 0-.3.2-.6.4-.9.1 0 .2-.1.4-.3zm.1.8c-.1.3 0 .6.1.9.1.3.3.5.5.6v.1h-.1c-.1 0-.2 0-.3-.1-.2-.1-.3-.3-.4-.6.1-.3 0-.6.2-.9-.1 0-.1 0 0 0z" class="st16"/><path id="svg_48" d="M45.7 17.5c.1.3.3.6.8.9.4.3.6.6.5.9V19.6h.1c.1 0 .1-.1.2-.2.1-.2.1-.5 0-.7-.1-.2-.3-.3-.5-.4-.2-.1-.4-.2-.5-.3-.1-.1-.2-.2-.3-.4-.2-.2-.2-.2-.3-.1 0-.1 0 0 0 0zm-.3-.1c.1 0 .1 0 0 0h.1v.1s0 .1-.1.1c-.1.3-.2.6-.2.9 0 .3 0 .6.1.8.1.3.3.4.6.5.2.1.4.1.6 0h.1v.1c-.1.1-.2.1-.3.2h-.5c-.2-.1-.4-.2-.5-.4-.1-.2-.2-.4-.3-.7 0-.3 0-.6.2-.9 0-.2.1-.4.2-.7zm.3.9c0 .3.1.6.3.8.2.2.4.4.6.5 0 0 .1 0 0 .1l-.1.1h-.3c-.2-.1-.4-.3-.5-.5 0-.5-.1-.7 0-1-.1-.1-.1-.1 0 0 0-.1 0-.1 0 0z" class="st16"/><path id="svg_49" d="M47.8 19.2c.1.2.5.4 1.1.6.5.2.8.4.7.7V20.8h.1c0-.1.1-.1.1-.3 0-.3 0-.5-.2-.6l-.6-.3c-.2 0-.4-.1-.6-.1-.1-.1-.3-.1-.4-.3-.1 0-.2-.1-.2 0zm-.3.1c0-.1 0-.1 0 0h.1V20.5c0 .3.2.6.3.8.2.2.4.3.7.4.3 0 .5 0 .6-.2h.1v.1c0 .1-.1.2-.3.2-.1.1-.3.1-.5.1s-.5-.1-.6-.3c-.2-.2-.3-.4-.4-.6-.1-.3-.1-.6-.1-1 0-.2 0-.5.1-.7zm.5.7c.1.3.3.5.5.7.3.2.5.3.7.3h.1v.1c-.1 0-.2.1-.3 0-.2 0-.4-.1-.6-.4-.3-.1-.4-.4-.4-.7-.1 0-.1 0 0 0 0-.1 0 0 0 0z" class="st16"/></g><path id="svg_50" d="M50.3 20.2c.2.2.6.3 1.2.3.5 0 .8.2.9.5v.2h.1v-.3c0-.3-.2-.5-.4-.6-.2-.1-.4-.1-.7-.1h-.6c-.1.1-.3.1-.5 0 .1-.1 0-.1 0 0zm-.3.1s.1 0 0 0c.1-.1.1 0 .1 0V20.6c0 .3.1.6.2.9.1.3.3.5.5.7.2.2.5.2.8.2.3 0 .4-.1.5-.3h.1v.1c0 .1-.1.2-.2.3-.1.1-.3.2-.5.2s-.5 0-.7-.1c-.2-.1-.4-.3-.6-.5-.2-.2-.3-.5-.3-.9.1-.3.1-.6.1-.9zm.7.6c.2.3.4.4.7.5.3.1.6.2.8.1h.1v.1c-.1.1-.2.2-.3.2-.2 0-.5 0-.7-.2-.3-.2-.5-.4-.6-.7-.1 0-.1 0 0 0z" class="st17"/><path id="svg_51" d="m64.5 6.2-.3-.1.1-.8c.1.1.2.2.2.4v.1c.1.2.1.4 0 .4zm10.9 17.7h-.7c0-.3.2-.7.5-.7s.3.1.5.2v.4c-.1.1-.1.1-.3.1zm-1 .2c-.4 0-.5-.1-.7-.2 0 .1 0 .2-.1.2-.2 0-.2 0-.3-.1v-.3c0-.2.1-.5.2-.5.3 0 .3.1.5.2l.2-.5c.2.1.5.2.5.5-.1.3-.1.7-.3.7zm-9.3-2.8c0-.3.4-.4.7-.4h.1c.2 0 .2.1.3.2-.3.1-.6.2-.7.5-.3 0-.4 0-.4-.3zm9.1-1.2c.2.1.3.2.3.5 0 .1-.1.2-.3.2-.1 0-.2-.1-.2-.3 0-.1.1-.3.2-.4zm-9.7 1h.2c.3 0 .3-.4.7-.4h.3c.2 0 .2 0 .2-.2s-.4-.4-.6-.4h-.1c-.5 0-.7.4-.7 1zm10.3-1c.3 0 .8.4.9.6.1.2-.2 1-.2 1.3v.6c0 .4-.4.6-.8.6 0-.3.2-.3.2-.6l-.1-1.1v-.2l.2-.5.4.2V20.7l-.6-.3v-.3zm-7.2-.6v.2c0 .4-.2.8-.5 1-.2.2-.3.2-.4.3-.2.2 0 .4-.4.4h-.2c-.2 0-.3.1-.3.3 0 .2.4.4.5.5.4-.2 1.9-.8 2-1.3l-.6.1c.2-.4.6-.4.6-1v-.5c0-.2 0-.2-.1-.3-.2-.1-.6.1-.6.3zm.7-4.3c.3-.1 1.1-.6 1.1-.2 0 .2-.4.5-.7.5h-.3l-.1-.3zm.8-1.8h-.3c-.3.4-.9.4-.8 1.2l.2.2c.5 0 1-.4 1-.9v-.2c0-.2 0-.2-.1-.3zm-1.9 2.1v.1c.2.1 1 .6 1 .9-.2 0-.2-.1-.5-.1h-.8c-.2 0-.3-.2-.3-.3v-.4c-.2.2-.4.4-.5.8 0 .7.3.6.3 1h-.2c-.2 0 0-.1-.3-.1 0 .4.3.6.6.8 0 .5.6 1.3.6 1.7 0 .2-.5.6-.6.7-.2-.3-.6-.9-1-.9h-.2l-.6.1c-.2.3-.7.5-.7 1v.3c0 .3 1.9 1.8 2.2 1.8.2 0 1.4-.8 1.6-1 .3-.2 1.4-.7 1.4-1.2v-.2c0-.4-.3-.8-.3-1.2v-.2c0-.4.3-.5.7-.5h.3c.4 0 .4.1.7.1.1.1.3.2.3.4v.3c.7.2.9.8 1.2 1.4.3 0 1.2.3 1.4.4.4.2.6.7.6 1.2-.3 0-.3.1-.5.3 0 .6-.1.1-.5.4-.2.2-.3.3-.3.7v.5c0 .4.4.5.9.5h2.5c.1-.1.2-.3.2-.4v-.2c.1-.1.3-.1.3-.3v-.4c0-.4-.2-.5-.2-.9v-.1c0-.2.2-.7.3-.9h-.3c-.1-.1-.2-.2-.2-.3 0-.4-.2-.5-.3-.8.1-.1.1-.1.1-.3 0-.1-.1-.1-.1-.3-.1.1-.1.1-.3.1h-.1c-.4 0-.8-.3-.8-.7v-.5c0-.3.1-.5.1-.7l-.5-.1v-.4c0-.2 0-.2.1-.3 1.1 0 2.5-.2 2.5-1.2v-.7c0-.9-1.2-1.5-1.7-1.9l-.2-.1-.5-.3-.1-.1-.1-.1-.3-.1-.2-.1-.5-.4c-.2-.3-.4-.4-.4-.9v-.5c0-.3.3-.7.5-.7s.5.3.5.5v.2c0 .3-.1.2-.1.5 0 .2.2.4.3.6.4.2.6.3 1.1.4l.3-.1h.1c.5-.1.8-.5.8-1.1-.2.1-.3.5-.6.5h-.1c-.1 0-.2 0-.2-.1 0 0 .3-.3.3-.7v-.1c0-.5-.6-.7-1-.7h-.1c-.4 0-.5-.1-.9-.1-.8 0-1.3.5-1.3 1.3v.1c0 .4.2.6.3.9l.3.3v.1l.1.1.5.4.1.1v.1l.1.1.2.1.2.1c.6.4 1.6.9 1.6 1.9 0 .4-.2.8-.7.8h-.2c-.5 0-.8-.2-1.2-.3-.1-.3-.8-1.2-1-1.4-.5-.3-1.3-.2-1.5-.9l-.1-.1-.1-.2-.2-.5v-.1l-.1-.3v-.1l.1-.1c.1-1 .7-1.9 1.4-2.2l.3.1c0-.1.4-.8.6-1 .1-.3.3-.9.3-1.3v-.6l.4.1v-.4c0-.8-.5-2.1-1-2.2 0-.1.1-.3.1-.3 0-.4-1.1-1.2-1.5-1.2h-.1l-.4-.7H71l-.7-.1c-.4-.1-.7.1-1.1.1-.3 0-.4.1-.5.3l-.6.1s-.6.3-.8.3v.3c0 .2.3.3.3.4l-.2.3-.1.3h-.2V5c-.2.1-1.2.9-1.2 1 0 .2.2.4.4.5l.1.3-.3.2c0 .3.1.4.3.5v.6h.3c.3 0 .2-.3.5-.3.2 0 .2 0 .3.1l.2-.1c.1-.1.2-.1.2-.3v-.3c.2.1.3.1.3.5 0 .6-.9 1-1.5 1l-.6.1-.7-.4v-.5l-.3.1-.3.3h-.1c-.1-.5-.2-.3-.2-1.1.3-.4.5-.4.5-1v-.7c0-.3-.2-.5-.5-.5 0-.4-.4-.6-.9-.6H63.3L63 5h-.3c-.2 0-.2.1-.3.2-.2.2-.4.6-.3 1l.1.5c.7.1.8.6.9 1.3l.1 1-.4.2c.3.1.5.4.7.7-.1.1-.3.3-.3.5v.3c.1-.1.2-.2.5-.2h.2c.1 0 .5.2.5.3 0 .1-.2.1-.3.5h.5c.2 0 0 .1.3.1v.1l-.7.1h-1.1c-.1-.1-.3-.7-.3-.9 0-.2-.5-.3-.7-.3-.5 0-1.2.2-1.2.7v.1c0 .3 0 0 .1.2-.1.1-.1 0-.1.2v.3c0 .2.1.5.3.6 0 .2-.1.1-.1.3 0 .4.4.9.9.9.4 0 .5-.2.7-.2.2 0 .8.1.9.2l.5.2c0 .1.1.1.2.1h.1c.1.1.1.2.3.2h.3c.2 0 .2.2.4.2h.3c.1 0 .4.3.7.3h.6l.2.8zm6.1.6c0 .3.1.3.1.7v2c0 .8.4 1.1.4 1.2 0 .2-.2.4-.3.5l-.8-.2c-.2-.2-.3-.5-.5-.8-.2-.2-.6-.5-.6-.6v-.3c0-.6-.4-1.3-.9-1.5.1.3.2.2.2.5v.2c-.2-.2-.4-.6-.6-.8-.2-.2-.7-.4-.8-.6h.7l1 .1v-1.3c-.2.2-.3.6-.8.6h-.1c-.2 0-.7-.1-.7-.3 0-.1.7-.8.7-1l-.5.2-.3-.3.2-.9-.2-.3c.1-.2.1.1.1-.2v-.1c0-.2 0-.2-.1-.3l.2-.3.4-.2h.1l.1.3.1.9v.1c.2.4.2 1.1.9 1.1.3 0 .6.3.6.5 0 .3-.3.7-.3 1.1 0 .3.1.5.2.7 0-.9.3-1 .4-1.6.1.1.1 0 .1.2v1.1l.1.9c0 .3.1.5.3.7l-.1-.6c0-.2.1-.6.1-1 0-.3.1-.1.1-.5 0-.1 0-.2.1-.2s.3.3.4.3zm2.9-.7c0-.5-.4-.9-.7-1.2.3.1.9.8.9 1.2v.5c0 .6-.5 1-1.1 1h-.2l-.9-.1-.2-.4c.4 0 .7.2 1.2.2.7-.1 1-.6 1-1.2zM68 12.9l-.1.1h-.1l-.2.1-.3.3-.2.1c-.2.2-.7.6-1.1.6v-.2c0-.2.1 0 .1-.3l-.3.1-.5.3c-.1-.1 0-.1 0-.3l-.2.1h-.5v-.2h-.3c-.1 0-.1 0-.2-.1v-.3l.6-.1v.1h.4c.3 0 0 0 .2-.1h.1v.1l.5-.1h.1l.7-.2.4-.1h-.5l-.9.3h-.1v-.2l-.7.2v-.2l-.6.2.1-.2h-.3l-.1.1h-.4l-.1.1-.8.2-.1-.2c-.3.1-.4.2-.7.2h-.2c-.2 0-.3-.3-.3-.5.5-.2.4-.1.9-.1-.1-.2-.3-.4-.6-.4h-.1c-.2 0-.4.2-.4-.1 0-.2-.1-.2-.1-.5.2-.1.2-.1.5-.1h.1c.2 0 .4.2.5.4h.1l2.3.1.3-.1h.5l.1.3.1.1.2.2.2.2.1-.1.3.1.2-.3.6-.5.3.1c.4 0 .2.1.5.3l.1-.3c.3 0 .3.1.4.4h.1l-.1.2-.2.2H68zM61.2 11c.3-.1.3-.3.8-.3.2 0 .6.2.6.4v.1c0 .1-.1.3-.2.3-.3 0-.4-.3-.7-.3l-.5.1V11zm4.1-1.4c.2 0 .4-.1.5-.1l.4.2c-.1 0-.9.6-.9.6-.1 0-.4-.4-.5-.7h.5zm.4 1.9c-.1-.2-.1.1-.1-.2v-.2c0-1.2.9-1.1 1.4-1.5.9-.2 2-1 2.2-1.8h.1c0 2.2-3 1.9-3.4 3.5l-.2.6v-.4zm.9-2.2c-.7 0-1.2-.3-1.4-.7l1 .4c1.2 0 1.8-.3 2.2-1.1H68.7c0 .6-1.2 1.4-2.1 1.4zm-2.8-2.7c-.1.1-.3.3-.5.3h-.2c0-.3-.3-.6-.7-.7V6c0-.2.1-.4.2-.5.8 0 .6.4.9.8 0-.1.1-.2.1-.3v-.3c0-.3-.1-.4-.3-.5l.2-.4h.1c.2 0 .6.2.6.4v.1c0 .5-.3.9-.4 1.3zm4.8 6.2c0-.2.1-.3.3-.3.1 0 .2.1.2.3v.1c0 .2 0 .2-.1.3h-.3c-.1-.2-.1-.2-.1-.4zm6.6-1.9c.1.1.2.1.2.3 0 .1-.1 0-.1.3 0 .2.1.3.1.4-.2 0-.4-.2-.4-.4v-.3h.2v-.3zm-.4.9c-.2-.1-.5-.4-.5-.7v-.8c.1 0 .1.1.3.1h.3l-.1.2.1.2-.2-.1c0 .2-.1.2-.1.5v.1c.1.3.2.3.2.5zm-5.5-.1c0-.8.9-1 .9-2.2.1.1.1.1.1.3v.5c0 .6-.6 1.3-1 1.4zm-2.9.2c0-.9 1-1.4 1.7-1.7.4-.1 1-.3 1.2-.5.3-.3.4-.8.6-1.1 0 1.4-.3 1.7-1.3 2.1-.4.2-.8.3-1.2.5-.5.3-.6.5-1 .7zm4.8-2.7c0 .7-.3.9-.4 1.3-.3-.2-.1-.2-.1-.6 0-1.2-.3-1.9-.7-2.7.1-.1.1-.1.1-.3v-.3c.4.3 1 1.4 1 2.1v.5h.1zm.5.6V8.3c0-1.5-1-1.7-1.1-2.7.8.4 1.4.7 1.5 1.8l.1.7v.1c0 .5-.2 1.5-.5 1.6zm.8-2.4c0-1.5-1.7-2.1-1.8-2.4.6.3 1.1.3 1.5.8.3.3.8.8.8 1.4v.5c0 .5-.2 1.7-.6 1.8 0-.2-.1-.2-.1-.5l.1-.7.1-.9zm.9-.8c-.4-.5-.2-.7-1-1.3-.2-.2-1.3-.7-1.4-.8.7 0 1.3.3 1.7.5.5.4.7.9.7 1.6zm-3.3-2.1c0 .2 0 .3-.1.5-.4.1-.1.2-.5.2.1-.3.2-.2.2-.4v-.1l.1-.6-.2-.1-.3.2c0-.2 0-.3.3-.3h.1c.2 0 .3.1.4.1v.5zm.7-.4c-.2 0-.3-.2-.4-.4.1 0 .2-.1.3-.1h.5c.6 0 1.3.4 1.4.9-.3-.1-.8-.4-1.2-.4h-.6zm-2.7-.7.1.4-.3.1-.3-.3.5-.2zm.6.3h-.3l-.2-.3c0-.2.2-.2.4-.2l.1.5zm.9-.3c0-.3.4-.4.7-.4h.2c.3 0 .4.1.5.3h-.4c-.4 0-.7.2-.9.3v-.2h-.1zm-.7 0c0-.2.1-.4.3-.4h.2c-.1.1-.2.3-.2.5v.1l-.2.2c0-.3-.1-.2-.1-.4zm-1.2 1.1c.1-.3.4-.5.8-.5.2 0 .2.1.5.1l.1.2-.3.1v.1l.1.7c0 .1 0 .1-.1.2l.6-.2c0 .3 0 .3.3.3v1.2c-.3 0-.3-.2-.3-.5v-.1c-.3-.1-.4-.3-.5-.3h-.1c-.3 0-.6.1-.8.3l-.5-.4c0 .2.3.6.5.6l.6-.1c.2 0 .3.5.3.7 0 .1-.3.5-.4.5-.1 0-.2-.4-.7-.5l.3-.2h-.2c-.3 0-.5.1-.5.5v.1c0 .2 0 .2.1.3l-.2.2h-.1l-.3-.3v.2l-.4.1c0-.1-.1-.2-.1-.2 0-.1 0-.1.1-.3h-.3V7h.4c.5 0 .2.2.6.3-.1-.6-.8-.4-.8-.7 0-.3.4-.2.4-.7h-.7c.1-.3.6-.9.9-.9.2 0 .2 0 .3.1l.2.3-.1-.3.5-.1v-.2h-.8l-.1-.2.6-.1.1-.4v.4zm-1.6 1.7h.5l-.2.3-.3-.3z" class="st16"/><path id="svg_52" d="M36.9 15.5v.1c-.2.1-1 .6-1 .9.2 0 .2-.1.5-.1h.7c.2 0 .3-.2.3-.3v-.4c.2.2.4.4.5.8 0 .7-.3.6-.3 1h.2c.2 0 0-.1.3-.1 0 .4-.3.6-.6.8 0 .5-.6 1.3-.6 1.7 0 .2.5.6.6.7.2-.3.6-.9 1-.9h.2l.6.1c.2.3.7.5.7 1v.3c0 .3-1.9 1.8-2.2 1.8-.2 0-1.4-.8-1.6-1-.3-.2-1.4-.7-1.4-1.2v-.2c0-.4.3-.8.3-1.2v-.2c0-.4-.3-.5-.7-.5h-.3c-.4 0-.4.1-.7.1-.1.1-.3.2-.3.4v.3c-.7.2-.9.8-1.2 1.4-.3 0-1.2.3-1.4.4-.4.2-.6.7-.6 1.2h.2c.3 0 .3.1.5.3 0 .6.1.1.5.4.2.2.3.3.3.7v.5c0 .4-.4.5-.9.5H28c-.1-.1-.2-.3-.2-.4v-.2c-.1-.1-.3-.1-.3-.3v-.4c0-.4.2-.5.2-.9v-.1c0-.2-.2-.7-.3-.9h.3c.1-.1.2-.2.2-.3 0-.4.2-.5.3-.8-.1-.1-.1-.1-.1-.3 0-.1.1-.1.1-.3.1.1.1.1.3.1h.1c.4 0 .8-.3.8-.7v-.5c0-.3-.1-.5-.1-.7l.5-.1v-.4c0-.2 0-.2-.1-.3-1.1 0-2.5-.2-2.5-1.2v-.7c0-.9 1.2-1.5 1.7-1.9l.2-.1.5-.3.1-.1.1-.1.3-.1.2-.1.5-.4c.2-.3.4-.4.4-.9v-.5c0-.3-.3-.7-.5-.7s-.5.3-.5.5v.2c0 .3.1.2.1.5 0 .2-.2.4-.3.6-.4.2-.6.3-1.1.4l-.3-.1h-.1c-.5-.1-.8-.5-.8-1.1.2.1.3.5.6.5h.1c.1 0 .2 0 .2-.1 0 0-.3-.3-.3-.7v-.1c0-.5.6-.7 1-.7h.1c.4 0 .5-.1.9-.1.8 0 1.3.5 1.3 1.3v.1c0 .4-.2.6-.3.9l-.3.3v.1l-.1.1-.5.4-.1.1v.1l-.1.1-.1-.2-.2.1c-.6.4-1.6.9-1.6 1.9 0 .4.2.8.7.8h.1c.5 0 .8-.2 1.2-.3.1-.3.8-1.2 1-1.4.5-.3 1.3-.2 1.5-.9l.1-.1.1-.2.1-.4v-.1l.1-.3v-.1l-.1-.1c-.1-1-.7-1.9-1.4-2.2l-.3.1c0-.1-.4-.8-.6-1-.1-.3-.3-.9-.3-1.3v-.6l-.4.1v-.2c0-.8.5-2.1 1-2.2 0-.1-.1-.3-.1-.3 0-.4 1.1-1.2 1.5-1.2h.1l.3-.7h.1l.7-.1c.4-.1.7.1 1.1.1.3 0 .4.1.5.3l.6.1h.1s.6.3.8.3v.3c0 .2-.3.3-.3.4l.2.3.1.3h.3v.2c.2.1 1.2.9 1.2 1 0 .2-.2.4-.4.5l-.1.3.3.2c0 .3-.1.4-.3.5V8h-.3c-.3 0-.2-.3-.5-.3-.2 0-.2 0-.3.1l-.2-.1c-.1-.1-.2-.1-.2-.3v-.3c-.2.1-.3.1-.3.5 0 .6.9 1 1.5 1l.6.1.7-.4v-.4h.3l.3.3h.1c.1-.5.2-.2.2-1.1-.3-.4-.5-.4-.5-1v-.6c0-.3.2-.5.5-.5 0-.4.4-.6.9-.6H40.9l.2.6h.3c.2 0 .2.1.3.2.2.2.4.6.4 1l-.1.5c-.7.1-.8.6-.9 1.3L41 9l.4.2c-.3.1-.5.4-.7.7.1.1.3.3.3.5v.3c-.1-.1-.2-.2-.5-.2h-.2c-.1 0-.5.2-.5.3 0 .1.2.1.3.5h-.5c-.2 0 0 .1-.3.1v.1l.7.1h.9c.1-.1.3-.7.3-.9 0-.2.5-.3.7-.3h.1c.5 0 1.2.2 1.2.7v.1c0 .3 0 0-.1.2.1.1.1 0 .1.2v.3c0 .2-.1.5-.3.6 0 .2.1.1.1.3 0 .4-.4.9-.9.9-.4 0-.5-.2-.7-.2-.2 0-.8.1-.9.2l-.4.1c0 .1-.1.1-.2.1h-.1c-.1.1-.1.2-.3.2h-.3c-.2 0-.2.2-.4.2h-.3c-.1 0-.4.3-.7.3h-.6l-.3.9z" class="st7"/><path id="svg_53" d="m39.6 6.2.3-.1-.1-.8c-.1.1-.2.2-.2.4v.1c-.1.2 0 .4 0 .4zM28.7 23.9h.7c0-.3-.2-.7-.5-.7s-.3.1-.5.2v.4c.1.1.1.1.3.1zm1 .2c.4 0 .5-.1.7-.2 0 .1 0 .2.1.2.2 0 .2 0 .3-.1v-.3c0-.2-.1-.5-.2-.5-.3 0-.3.1-.5.2l-.2-.5c-.2.1-.5.2-.5.5.1.3.2.7.3.7zm9.4-2.8c0-.3-.4-.4-.7-.4h-.1c-.2 0-.2.1-.3.2.3.1.6.2.7.5.2 0 .4 0 .4-.3zm-9.2-1.2c-.2.1-.3.2-.3.5 0 .1.1.2.3.2.1 0 .2-.1.2-.3 0-.1-.1-.3-.2-.4zm9.7 1h-.2c-.3 0-.3-.4-.7-.4h-.3c-.2 0-.2 0-.2-.2s.4-.4.6-.4h.1c.5 0 .7.4.7 1zm-10.2-1c-.3 0-.8.4-.9.6-.1.2.2 1 .2 1.3v.6c0 .4.4.6.8.6 0-.3-.2-.3-.2-.6l.1-1.1v-.2l-.3-.5-.4.2V20.7l.6-.3v-.3h.1zm7.1-.6v.2c0 .4.2.8.5 1 .2.2.3.2.4.3.2.2 0 .4.4.4h.3c.2 0 .3.1.3.3 0 .2-.4.4-.5.5-.4-.2-1.9-.8-2-1.3l.6.1c-.2-.4-.6-.4-.6-1v-.5c0-.2 0-.2.1-.3.1-.1.5.1.5.3zm-.7-4.3c-.3-.1-1.1-.6-1.1-.2 0 .2.4.5.7.5h.3l.1-.3zm-.7-1.8h.3c.3.4.9.4.8 1.2l-.2.2c-.5 0-1-.4-1-.9v-.2c-.1-.2 0-.2.1-.3zm1.8 2.1v.1c-.2.1-1 .6-1 .9.2 0 .2-.1.5-.1h.7c.2 0 .3-.2.3-.3v-.4c.2.2.4.4.5.8 0 .7-.3.6-.3 1h.2c.2 0 0-.1.3-.1 0 .4-.3.6-.6.8 0 .5-.6 1.3-.6 1.7 0 .2.5.6.6.7.2-.3.6-.9 1-.9h.2l.6.1c.2.3.7.5.7 1v.3c0 .3-1.9 1.8-2.2 1.8-.2 0-1.4-.8-1.6-1-.3-.2-1.4-.7-1.4-1.2v-.2c0-.4.3-.8.3-1.2v-.2c0-.4-.3-.5-.7-.5h-.3c-.4 0-.4.1-.7.1-.1.1-.3.2-.3.4v.3c-.7.2-.9.8-1.2 1.4-.3 0-1.2.3-1.4.4-.4.2-.6.7-.6 1.2h.2c.3 0 .3.1.5.3 0 .6.1.1.5.4.2.2.3.3.3.7v.5c0 .4-.4.5-.9.5H28c-.1-.1-.2-.3-.2-.4v-.2c-.1-.1-.3-.1-.3-.3v-.4c0-.4.2-.5.2-.9v-.1c0-.2-.2-.7-.3-.9h.3c.1-.1.2-.2.2-.3 0-.4.2-.5.3-.8-.1-.1-.1-.1-.1-.3 0-.1.1-.1.1-.3.1.1.1.1.3.1h.1c.4 0 .8-.3.8-.7v-.5c0-.3-.1-.5-.1-.7l.5-.1v-.4c0-.2 0-.2-.1-.3-1.1 0-2.5-.2-2.5-1.2v-.7c0-.9 1.2-1.5 1.7-1.9l.2-.1.5-.3.1-.1.1-.1.3-.1.2-.1.5-.4c.2-.3.4-.4.4-.9v-.5c0-.3-.3-.7-.5-.7s-.5.3-.5.5v.2c0 .3.1.2.1.5 0 .2-.2.4-.3.6-.4.2-.6.3-1.1.4l-.3-.1h-.1c-.5-.1-.8-.5-.8-1.1.2.1.3.5.6.5h.1c.1 0 .2 0 .2-.1 0 0-.3-.3-.3-.7v-.1c0-.5.6-.7 1-.7h.1c.4 0 .5-.1.9-.1.8 0 1.3.5 1.3 1.3v.1c0 .4-.2.6-.3.9l-.2.2v.1l-.1.1-.5.4-.1.1v.1l-.1.1-.2-.1-.2.1c-.6.4-1.6.9-1.6 1.9 0 .4.2.8.7.8h.1c.5 0 .8-.2 1.2-.3.1-.3.8-1.2 1-1.4.5-.3 1.3-.2 1.5-.9l.1-.1.1-.2.2-.5v-.1l.1-.3v-.1h-.2c-.1-1-.7-1.9-1.4-2.2l-.3.1c0-.1-.4-.8-.6-1-.1-.3-.3-.9-.3-1.3v-.6l-.4.1v-.2c0-.8.5-2.1 1-2.2.1-.1 0-.4 0-.4 0-.4 1.1-1.2 1.5-1.2h.1l.3-.7h.1l.7-.1c.4-.1.7.1 1.1.1.3 0 .4.1.5.3l.6.1h.1s.6.3.8.3v.3c0 .2-.3.3-.3.4l.2.3.1.3h.2V4.9c.2.1 1.2.9 1.2 1 0 .2-.2.4-.4.5l-.1.3.3.3c0 .3-.1.4-.3.5v.6h-.3c-.3 0-.2-.3-.5-.3-.2 0-.2 0-.3.1l-.2-.1c-.1-.1-.2-.1-.2-.3v-.3c-.2.1-.3.1-.3.5 0 .6.9 1 1.5 1h.6l.7-.4v-.4h.3l.3.3h.1c.1-.5.2-.3.2-1.1-.3-.4-.5-.4-.5-1v-.6c0-.3.2-.5.5-.5 0-.4.4-.6.9-.6H40.9l.3.6h.3c.2 0 .2.1.3.2.1.2.3.6.3 1l-.1.5c-.7.1-.7.6-.9 1.3L41 9l.4.2c-.3.1-.5.4-.7.7.1.1.3.3.3.5v.3c-.1-.1-.2-.2-.5-.2h-.2c-.1 0-.5.2-.5.3 0 .1.2.1.3.5h-.5c-.2 0 0 .1-.3.1v.1l.7.1h.9c.1-.1.3-.7.3-.9 0-.2.5-.3.7-.3h.2c.5 0 1.2.2 1.2.7v.1c0 .3 0 0-.1.2.1.1.1 0 .1.2v.3c0 .2-.1.5-.3.6 0 .2.1.1.1.3 0 .4-.4.9-.9.9-.4 0-.5-.2-.7-.2-.2 0-.8.1-.9.2l-.4.1c0 .1-.1.1-.2.1h-.1c-.1.1-.1.2-.3.2h-.3c-.2 0-.2.2-.4.2h-.3c-.1 0-.4.3-.7.3h-.6l-.4.9zm-6 .6c0 .3-.1.3-.1.7v2c0 .8-.4 1.1-.4 1.2 0 .2.2.4.3.5l.8-.2c.2-.2.3-.5.5-.8.2-.2.6-.5.6-.6v-.3c0-.6.4-1.3.9-1.5-.1.3-.2.2-.2.5v.2c.2-.2.4-.6.6-.8.2-.2.7-.4.8-.6H34l-1 .1v-1.3c.2.2.3.6.8.6h.1c.2 0 .7-.1.7-.3 0-.1-.7-.8-.7-1l.5.2.3-.3-.2-.9.2-.3c-.1-.2-.1.1-.1-.2v-.1c0-.2 0-.2.1-.3l-.2-.3-.4-.2H34l-.1.3-.1.9v.1c-.2.4-.2 1.1-.9 1.1-.3 0-.6.3-.6.5 0 .3.3.7.3 1.1 0 .3-.1.5-.2.7 0-.9-.3-1-.4-1.6-.1.1-.1 0-.1.2v1.1l-.1.9c0 .3-.1.5-.3.7l.1-.6c0-.2-.1-.6-.1-1 0-.3-.1-.1-.1-.5 0-.1 0-.2-.1-.2-.2 0-.4.3-.4.3zm-3-.7c0-.5.4-.9.7-1.2-.3.1-.9.8-.9 1.2v.5c0 .6.5 1 1.1 1h.3l.9-.1.2-.4c-.4 0-.7.2-1.2.2-.8-.1-1.1-.6-1.1-1.2zm8.2-2.5.1.1h.1l.2.1.3.3.2.1c.2.2.7.6 1.1.6v-.2c0-.2-.1 0-.1-.3l.3.1.5.3c.1-.1 0-.1 0-.3l.3.1h.5v-.2h.3c.1 0 .1 0 .2-.1v-.3l-.6-.1v.1h-.4c-.3 0 0 0-.2-.1h-.1v.1l-.5-.1h-.2l-.7-.2-.4-.1h.5l.9.3h.1v-.2l.7.2v-.2l.6.2v-.3h.3l.1.1h.4l.1.1.8.2.1-.2c.3.1.4.2.7.2h.2c.2 0 .3-.3.3-.5-.5-.2-.4-.1-.9-.1.1-.2.3-.4.6-.4h.1c.2 0 .4.2.4-.1 0-.2.1-.2.1-.5-.2-.1-.2-.1-.5-.1h-.1c-.2 0-.4.2-.5.4h-.1l-2.3.1-.3-.1h-.5l-.1.3-.1.1-.2.2-.2.2-.1-.2-.3.1-.2-.3-.6-.5-.3.1c-.4 0-.2.1-.5.3l-.1-.3c-.3 0-.3.1-.4.4h-.1l.1.2.2.2h.1l.1.2zm6.8-1.9c-.3-.1-.3-.3-.8-.3-.2 0-.6.2-.6.4v.1c0 .1.1.3.2.3.3 0 .4-.3.7-.3l.5.1V11zm-4.1-1.4c-.2 0-.4-.1-.5-.1l-.4.2c.1 0 .9.6.9.6.1 0 .4-.4.5-.7h-.5zm-.3 1.9c.1-.2.1.1.1-.2v-.2c0-1.2-.9-1.1-1.4-1.5-.9-.2-2-1-2.2-1.8h-.1c0 2.2 3 1.9 3.4 3.5l.2.6v-.4zm-1-2.2c.7 0 1.2-.3 1.4-.7l-1 .4c-1.2 0-1.8-.3-2.2-1.1H35.4c.1.6 1.2 1.4 2.1 1.4zm2.8-2.7c.1.1.3.3.5.3h.2c0-.3.3-.6.7-.7V6c0-.2-.1-.4-.2-.5-.8 0-.6.4-.9.8 0-.1-.1-.2-.1-.3v-.3c0-.3.1-.4.3-.5l-.2-.4h-.1c-.2 0-.6.2-.6.4v.1c0 .5.4.9.4 1.3zm-4.8 6.2c0-.2-.1-.3-.3-.3-.1 0-.2.1-.2.3v.1c0 .2 0 .2.1.3h.3c.1-.2.1-.2.1-.4zM29 10.9c-.1.1-.2.1-.2.3 0 .1.1 0 .1.3 0 .2-.1.3-.1.4.2 0 .4-.2.4-.4v-.3H29v-.3zm.3.9c.2-.1.5-.4.5-.7v-.8c-.1 0-.1.1-.3.1h-.3l.1.2-.2.2.2-.1c0 .2.1.2.1.5v.1c0 .3-.1.3-.1.5zm5.6-.1c0-.8-.9-1-.9-2.2-.1.1-.1.1-.1.3v.5c-.1.6.5 1.3 1 1.4zm2.8.2c0-.9-1-1.4-1.7-1.7-.4-.1-1-.3-1.2-.5-.3-.3-.4-.8-.6-1.1 0 1.4.3 1.7 1.3 2.1.4.2.8.3 1.2.5.6.3.7.5 1 .7zM33 9.2c0 .7.3.9.4 1.3.3-.2.1-.2.1-.6 0-1.2.3-1.9.7-2.7 0-.1-.1-.1-.1-.3v-.3c-.4.3-1 1.4-1 2.1v.5H33zm-.6.6V8.3c0-1.5 1-1.7 1.1-2.7-.8.4-1.4.7-1.5 1.8l-.1.7v.1c.1.5.2 1.5.5 1.6zm-.8-2.4c0-1.5 1.7-2.1 1.8-2.4-.6.3-1.1.3-1.5.8-.3.3-.8.8-.8 1.4v.5c0 .5.2 1.7.6 1.8 0-.2.1-.2.1-.5l-.1-.7-.1-.9zm-.9-.8c.4-.5.2-.7 1-1.3.2-.2 1.3-.7 1.4-.8-.7 0-1.3.3-1.7.5-.4.4-.7.9-.7 1.6zM34 4.5c0 .3.1.3.1.5.4.1.1.2.5.2-.1-.3-.2-.2-.2-.4v-.1l-.1-.6.2-.1.3.2c0-.2 0-.3-.3-.3h-.1c-.2 0-.3.1-.4.1v.5zm-.6-.4c.2 0 .3-.2.4-.4-.1 0-.2-.1-.3-.1H33c-.6 0-1.3.4-1.4.9.3-.1.8-.4 1.2-.4h.6zm2.6-.7-.1.4.3.1.3-.3-.5-.2zm-.6.3h.3l.2-.3c0-.2-.2-.2-.4-.2l-.1.5zm-.9-.3c0-.3-.4-.4-.7-.4h-.2c-.3 0-.4.1-.5.3h.4c.4 0 .7.2.9.3v-.2h.1zm.7 0c0-.2-.1-.4-.3-.4h-.2c.1.1.2.3.2.5v.1l.2.2c0-.3.1-.2.1-.4zm1.2 1.1c-.1-.3-.4-.5-.8-.5-.2 0-.2.1-.5.1v.2l.3.1v.1l-.1.7c0 .1 0 .1.1.2l-.6-.2c0 .3 0 .3-.3.3v1.2c.3 0 .3-.2.3-.5v-.1c.2-.1.3-.3.5-.3h.1c.3 0 .6.1.8.3l.5-.4c0 .2-.3.6-.5.6l-.6-.1c-.2 0-.3.5-.3.7 0 .1.3.5.4.5.1 0 .2-.4.7-.5l-.3-.2h.2c.3 0 .5.1.5.5v.1c0 .2 0 .2-.1.3l.2.2h.1l.3-.3v.2l.4.1c0-.1.1-.2.1-.2 0-.1 0-.1-.1-.3h.3V7h-.4c-.5 0-.2.2-.6.3.1-.6.8-.4.8-.7 0-.3-.4-.2-.4-.7h.7c-.1-.3-.6-.9-.9-.9-.2 0-.2 0-.3.1l-.2.3.1-.3-.5-.1v-.2h.8l.1-.2-.6-.1-.5-.2.3.2zM38 6.2h-.5l.2.3.3-.3z" class="st16"/><path id="svg_54" d="M71.3 24.2c.1 0 .1-.1 0 0-.9.1-1.6.2-2.2.2-2.4.1-3-.9-2.5-1.1-.2-.4-.5-.4-.7 0-.1.2-.3.1-.2-.2.1-.7-.1-1.3-.8-1.8.1.2-.1.4-.1.6-.1-.1-.2-.1-.3 0 .2.2-.2.5.2 1.1.2.4.6.7 1 .7-.4-.5-.6-.9-.4-1.4 0 .8.5 1.4 1.2 1.7.8.4 1.9.5 2.8.5.7 0 1.6-.1 2-.3z" class="st16"/><path id="svg_55" d="M64.6 23.6c.1.1.1 0 0 0-1.3-.8-1-2.8-.2-2.1.6-.8-.7-1.5-1.2-.8-.4.8 0 1.4.3 2-1.2-1-1.1-2.1.2-2.9.5-.4.7-.9.6-1.2 0-.5.1-.6.2-.6-.2-.2-.4-.1-.6 0-.1-1-1.1-1.4-1.7-.8-.1.2 0 .6.2.5.1 0 .2-.2 0-.3.6-.3.9.5.6.9-.1-.2-.2-.4-.5-.2.1.2 0 .4-.1.6-.4.8-.1 1.1.1 1.3 0-.4 1.3-.9 1.2-1.6.4 1.1-1.4 1.5-1.4 2.7.1 1.3 1.3 1.9 2.3 2.5z" class="st16"/><path id="svg_56" d="M64.6 23.9c.1 0 .2-.1 0-.1-.8-.3-1.5-.7-2.2-1.5-.3-.4-.5-.8-.4-1.5-.1-.4-.2-.6-.4-.6v.2c-.1-.6-1-.5-1-.2.2-.1.3.1.4.3v.3c-.2 0-.3 0-.4.2.2 0 .4.3.6.7 1 1.5 2.8 2 3.4 2.2zm-1.9-1.1c-.1 0-.8-.7-1.1-1.1-.2-.3-.2-.8-.3-1.1.2.2.3.6.5 1.1.1.3.5.6.9 1.1z" class="st16"/><path id="svg_57" d="M64.5 24c.1 0 .1.1 0 0-.4 0-.8 0-1.1-.1-.7 0-1.2.3-.9.7-.5.3-1.1-.6-.5-.9.1 0 0-.1 0-.1-.2.1-.4.2-.6.1-.1-.1-.3-.1-.3 0-.1-.3.3-.6.6-.6-.3-.3-1.4-.3-1.3.2-.8.3-.9-.6-.4-.6.1 0 .1-.2-.2-.1-.2.1-.3.5-.6.5-.1 0 0-.1 0-.2-.3.2-1 .1-1.3-.5.2 0 .4 0 .6-.3.1-.1.3-.1.5 0 .1 0 .1 0 0-.1-.4-.1-.1-.5.1-.5 0 .3.4.4 1 .6.2.1.5.2.7.3.2.1.4.2.5.3-.5-.2-1.1-.1-1.2.3.6-.6 2-.1 2.7.5-.6.2-.6.4-.6.6.2-.5.8-.5 1.3-.4.4.2.8.3 1 .3zm-5.8-1.4c.2.1.4.1.7-.1.2-.1.4-.1.6-.1-.5-.2-.9.1-1.3.2z" class="st16"/><path id="svg_58" d="M60.9 22c0-.2-.1-.3-.1-.5s-.1-.2-.2-.3c-.1-.1-.1-.2 0-.2-.2-.1-.4 0-.2.2 0 .1 0 .1-.1 0-.1-.2-.8-.4-1 .1-.1.3.3.2.1.1 0-.1.1-.1.2 0s.2.2.3.2c-.1 0-.1 0-.2.1.1 0 .3.2.4.3.2.1.4.1.6.1-.1-.2-.3-.4-.6-.5.2 0 .5.1.8.4 0 .1 0 .1 0 0z" class="st16"/><path id="svg_59" d="M33 24.2c-.2 0-.1-.1 0 0 .9.1 1.6.2 2.2.2 2.4.1 3-.9 2.5-1.1.2-.4.5-.4.7 0 .1.2.3.1.2-.2-.1-.7.1-1.3.8-1.8-.1.2.1.4.1.6.1-.1.2-.1.3 0-.2.2.2.5-.2 1.1-.2.4-.6.7-1 .7.4-.5.6-.9.4-1.4 0 .8-.5 1.4-1.2 1.7-.8.4-1.9.5-2.8.5-.8 0-1.6-.1-2-.3z" class="st16"/><path id="svg_60" d="M39.6 23.6c-.1.1-.1 0 0 0 1.3-.8 1-2.8.2-2.1-.6-.8.7-1.5 1.2-.8.4.8 0 1.4-.3 2 1.2-1 1.1-2.1-.2-2.9-.5-.4-.7-.9-.6-1.2 0-.5-.1-.6-.2-.6.2-.2.4-.1.6 0 .1-1 1.1-1.4 1.7-.8.1.2 0 .6-.2.5-.1 0-.2-.2 0-.3-.6-.3-.9.5-.5.9.1-.2.2-.4.5-.2-.1.2 0 .4.1.6.4.8.1 1.1-.1 1.3 0-.4-1.3-.9-1.2-1.6-.4 1.1 1.4 1.5 1.4 2.7-.2 1.3-1.4 1.9-2.4 2.5z" class="st16"/><path id="svg_61" d="M39.7 23.9c-.1 0-.2-.1 0-.1.8-.3 1.5-.7 2.2-1.5.3-.4.5-.8.4-1.5.1-.4.2-.6.4-.6v.2c.1-.6 1-.5 1-.2-.2-.1-.3.1-.4.3v.3c.2 0 .3 0 .4.2-.2 0-.4.3-.6.7-1.1 1.5-2.9 2-3.4 2.2zm1.9-1.1c.1 0 .8-.7 1.1-1.1.2-.3.2-.8.3-1.1-.2.2-.3.6-.5 1.1-.2.3-.6.6-.9 1.1z" class="st16"/><path id="svg_62" d="M39.7 24c-.1 0-.1.1 0 0 .4 0 .8 0 1.1-.1.7 0 1.2.3.9.7.5.3 1.1-.6.5-.9-.1 0 0-.1 0-.1.2.1.4.2.6.1.1-.1.3-.1.3 0 .1-.3-.3-.6-.6-.6.3-.3 1.4-.3 1.3.2.8.3.9-.6.4-.6-.1 0-.1-.2.2-.1.2.1.3.5.6.5.1 0 0-.1 0-.2.3.2 1 .1 1.3-.5-.2 0-.4 0-.6-.3-.1-.1-.3-.1-.5 0-.1 0-.1 0 0-.1.4-.1.1-.5-.1-.5 0 .3-.4.4-1 .6-.2.1-.5.2-.7.3-.2.1-.4.2-.5.3.5-.2 1.1-.1 1.2.3-.6-.6-2-.1-2.7.5.6.2.6.4.6.6-.2-.5-.8-.5-1.3-.4-.3.2-.7.3-1 .3zm5.9-1.4c-.2.1-.4.1-.7-.1-.2-.1-.4-.1-.6-.1.5-.2.8.1 1.3.2z" class="st16"/><path id="svg_63" d="M43.4 22c0-.2.1-.3.1-.5s.1-.2.2-.3c.1-.1.1-.2 0-.2.2-.1.4 0 .2.2 0 .1 0 .1.1 0 .1-.2.8-.4 1 .1.1.3-.3.2-.1.1 0-.1-.1-.1-.2 0s-.2.2-.3.2c.1 0 .1 0 .2.1-.1 0-.3.2-.4.3-.2.1-.4.1-.6.1.1-.2.3-.4.6-.5-.3 0-.6.1-.8.4 0 .1-.1.1 0 0z" class="st16"/><path id="svg_64" d="M33.7 24.9c-.1-.1-.3-.2-.4-.3-.9 0-1.8 0-2.6-.2-.3-.1-.6-.2-1-.3-.2 0-.4.1-.3.4.3.1.6.2 1 .3.7.2 2.1.2 3.3.1zm-5.3-1.1c-.3-.1-.5-.2-.8-.3-.8-.3-1.4-.6-2.3-.9-.7-.3-1.3-.5-1.2-1.1-.4-.1-.6.1-.5.4-.6-.1-2.2-.4-2 1.3.1.3.1.6-.4.6-.4 0-.4.5 0 .5-.1-.2 0-.3.4-.1.2.1 1 0 1.1-.7 0-.5-.1-.9.9-.9-.4-.1-.7-.2-1.1 0-.5.3 0 1-.4 1.1.1-.5-.3-.8.4-1.2.4-.3 1.7 0 2.4.3 1.2.4 2.1.8 3 1.2-.5 0-1.1-.1-1.4.4-.1-.1-.1-.4.6-.5-.4-.3-1.1-.6-2-.6-.7.1-1 .6-1.5.6.6-.3.9-.8 1.6-.8-.2-.1-1.1-.7-1.8 0-.1.1-.1.2 0 .2.4-.3.5 0 .2 0-.2 0-.3 0-.3.3-.1.3-.3.4-.5.4.1.4.8.7 1.3.2l.2.2c0-.3.2-.6.6-.8.3 0 .4 0 0 .2s-.5.7.3.9c-.2-.2.1-.3.4-.3.2-.3.5-.5.5 0 0 .3.3.4.8.3-.3-.4.3-.6.9-.5.2 0 .3.1.5.1.1-.2.1-.3.1-.5z" class="st16"/><g id="svg_65"><path id="svg_66" d="m6.2 27.8.1 3.2c0 1.7.2 3 .7 3.8.5.8 1.3 1.3 2.3 1.3 1 0 1.7-.4 2.2-1.1.5-.7.7-1.8.7-3.3v-3.9c0-.9-.1-1.7-.2-2.4-.1-.6-.3-1.3-.6-1.9h6.8c-.3.6-.4 1.3-.6 1.9-.1.6-.2 1.4-.2 2.4v11.8c0 .9.1 1.7.2 2.4.1.6.3 1.3.6 1.9h-5.6l.2-5.7-.1 4.2.1-4.2C11.4 39.4 9.6 40 7.4 40s-3.9-.7-5-2S.8 34.7.8 32v-4.2c0-.9-.1-1.7-.2-2.4-.1-.6-.3-1.3-.6-1.9h6.8c-.3.6-.5 1.3-.6 1.9.1.7 0 1.5 0 2.4z" class="st18"/><path id="svg_67" d="M48.7 32.1c0-.5 0-.9-.2-1.3-.1-.4-.3-.8-.5-1.2 3.4-.3 6.1-.5 9.4-1.6.4.1.8.2 1.1.3.2.1.4.2.5.3.1.1.3.3.6.5l-2.5 3.2c-.2-.3-.4-.5-.6-.7-.2-.2-.4-.3-.6-.4-.6-.3-1.4-.4-2.3-.2v3.8l1.9-1.3c.4 0 .8-.1 1.3-.1 1.7 0 3.1.4 4.1 1.2 1.1.8 1.6 1.9 1.6 3.2 0 1.8-.9 3.3-2.6 4.5-1.7 1.2-3.9 1.7-6.6 1.7h.3H48c.2-.4.4-.9.5-1.4.1-.5.2-1.1.2-1.8v-8.7zm5.6 9.7c1.1 0 1.9-.3 2.4-.9.6-.6.8-1.4.8-2.5 0-.9-.2-1.5-.6-2-.4-.5-1-.7-1.7-.7-.6 0-1.1.1-1.6.3v5.8h.7z" class="st7"/><path id="svg_68" d="M93 39.7v-5.6c0-1 0-1.8-.2-2.4-.1-.6-.3-1.3-.5-1.9h2.8c2.2 0 4.3-.3 6.5-.3h.6c.2 0 .4.1.7.1l-.7 4c-1-1.1-3.2-2.5-4.3-1.5v7.4c0 1 .1 1.8.2 2.4.1.6.3 1.3.5 1.9h-6.2c.3-.6.4-1.2.5-1.9.1-.5.1-1.3.1-2.2z" class="st18"/><path id="svg_69" d="M44.3 26.3c-2.1-.6-2.5-1.1-3.3-2-.3.1-.5.2-.6.4-.6.9-1.1 1.5-2.7 1-1.4-.4-2 .8 0 1.7 2.8 1.2 6.5 0 6.6-1.1z" class="st18"/><path id="svg_70" d="M34.4 43.5c1.2.6 2 .9 3.6.8.4 0 2-1.6 2.6-1.9V44h5.6c-.3-.6-.6-1.1-.7-3v-3.8c0-1.2-.1-4.9.3-6.4.1-.4.4-.8.5-1.2h-6.5c.1.4.3.8.4 1.2.4 1.6.3 7.1.3 9.1 0 .4 0 .4-.3.6-.8.6-2.2.6-2.5-.5-.1-.4-.2-1-.2-1.5v-3c0-.7 0-2.3.2-3.6.1-1.1.2-1.5.7-2.4h-6.5c.2.4.7.8.7 3.4 0 1.7-.1 6.8.2 8 .1 1.1.8 2.1 1.6 2.6z" class="st7"/><path id="svg_71" d="M25.9 40.6c-.4.2-1.6.3-2 0-.7-.2-.9-1.3-.6-2.2.3-.6.3-.5 1-.5h1.6v2.7zm-2.7-8.1c1.4 0 2.5.6 2.8 2.1-.2 0-3 .9-3.3 1.1-2.1.8-3.9 2.3-3.9 4.8 0 2.3 2.8 4.1 4.9 3.6.4-.1 1.9-1.5 2.4-1.8v1.5h5.5c-.5-1-.5-1.1-.6-3-.1-2.2.1-4.4 0-6.5-.1-1.8-.6-3.4-2.2-4.3-.8-.5-1.8-.7-2.8-.8-2.4-.1-2.9.2-4.8.7l-.9 3.4c.7-.3 1.7-.7 2.9-.8z" class="st7"/><path id="svg_72" d="M83 40.8v-5.4c0-.8-.3-1.3.9-1.8.5-.2 1-.1 1.4 0 1 .5 1.2 1.7 1.3 2.7.1.8.1 1.6-.1 2.4-.4 2-1.7 2.5-3.5 2.1zm0-8.8v-1.9h-5.4c.3.7.4 1.5.5 2.4.2 1.9.1 4.5.1 6.5 0 2.4.1 5.8-.2 7.5l-.5 1.8h6.3c-.6-2.1-.8-2-.8-4.5.4.1.7.3 1.1.4 1.3.3 2.7 0 3.8-.5 3.5-1.6 4.4-6.9 3-10.3-.8-1.7-2.2-3.1-4.1-3.4-.5-.1-1.7-.1-2 .1-.4.1-1.5 1.8-1.8 1.9z" class="st7"/><path id="svg_73" d="M61.7 31.1c1 1.8 5.3 10.6 5.3 10.7-.5 1.2-2.9 4.2-4.5 5.6-.4.3-.7.7-1.1.8h5.3c1 0 1.7-.9 2.3-1.6 1.1-1.3 2.1-3.1 2.8-5 1.6-3.9 3.1-7.8 5.1-11.5h-5.5c0 1.7-.5 3.1-1.1 4.6-.2.5-.3.9-.5 1.4l-.2.5-.1.5c-.2-.2-.5-1.2-.7-1.5-.5-1.1-1.7-3.9-1.9-4.8-.1-.6 0-.6-1-.6h-4.8c.2.2.5.7.6.9z" class="st7"/></g></g></svg>