<?xml version="1.0" encoding="utf-8"?>
<!-- Generator: Adobe Illustrator 22.1.0, SVG Export Plug-In . SVG Version: 6.00 Build 0)  -->
<svg version="1.1" id="Слой_1" xmlns="http://www.w3.org/2000/svg" xmlns:xlink="http://www.w3.org/1999/xlink" x="0px" y="0px"
	 viewBox="0 0 591.9841309 188.6216888" style="enable-background:new 0 0 591.9841309 188.6216888;" xml:space="preserve">
<style type="text/css">
	.st0{fill-rule:evenodd;clip-rule:evenodd;fill:#3F9A46;}
	.st1{fill-rule:evenodd;clip-rule:evenodd;fill:#379847;}
	.st2{fill-rule:evenodd;clip-rule:evenodd;fill:#FFFFFF;}
</style>
<g>
	<polygon class="st0" points="461.3872375,115.256134 461.3872375,122.4340363 456.9361877,115.256134 453.2664795,115.256134 
		453.2664795,127.2806702 456.6582642,127.2806702 456.6582642,120.1326523 461.1360474,127.2806702 464.6517639,127.2806702 
		464.6517639,115.256134 461.3872375,115.256134 	"/>
	<polygon class="st0" points="498.4964294,115.256134 491.3431702,115.256134 491.3431702,127.2806702 498.4964294,127.2806702 
		498.4964294,124.4533386 494.73172,124.4533386 494.73172,122.5580521 498.247406,122.5580521 498.247406,119.8547363 
		494.73172,119.8547363 494.73172,118.0834656 498.4964294,118.0834656 498.4964294,115.256134 	"/>
	<polygon class="st1" points="581.9841309,130.9481049 516.9432983,130.9481049 516.6321411,132.5333405 516.3497314,134.1485596 
		516.164917,134.925705 516.0088501,135.7328186 515.6976929,137.3500061 514.9505615,140.5192566 514.5487671,142.0735321 
		514.4213867,142.4456177 514.3307495,142.8474426 514.1439209,143.6577759 513.8942261,144.4017181 513.7683716,144.7770386 
		513.6787109,145.1788635 513.2084961,146.733139 512.7120361,148.2564392 512.2453003,149.8084869 511.6849365,151.3018188 
		511.4049988,152.0467529 511.1562805,152.8238831 510.5969238,154.317215 510.0390015,155.8373108 508.762207,158.7585602 
		507.4551697,161.6790924 506.7387085,163.1102448 506.0549927,164.5706177 505.3098145,165.9985504 504.93573,166.7147522 
		504.5938416,167.4577026 503.0063782,170.2550964 501.3579712,173.0514984 500.4869385,174.4184875 499.6159058,175.818924 
		498.7121887,177.1849213 497.841156,178.5831146 581.9841309,178.5831146 	"/>
	<polygon class="st1" points="497.841217,178.5832214 498.7124023,177.1850891 499.6156616,175.8189392 500.4868469,174.4186249 
		501.3580322,173.0514832 503.0063782,170.255127 504.59375,167.4577789 504.9358215,166.7147675 505.309845,165.9986877 
		506.0549316,164.5705719 506.7390442,163.1103973 507.4552307,161.6791077 508.7625122,158.758728 510.0389099,155.837265 
		510.5968323,154.3173065 511.1559448,152.8239594 511.4049683,152.0469055 511.6850586,151.3018188 512.2451782,149.8084717 
		512.7122192,148.2564545 513.208313,146.7332153 513.6786499,145.178894 513.7683716,144.7770691 513.8944702,144.4018402 
		514.1436157,143.6578522 514.3306885,142.8476257 514.4215698,142.445694 514.5487671,142.0736389 514.9506836,140.5194397 
		515.6978149,137.3500366 516.0089111,135.7327881 516.164917,134.9257355 516.3499146,134.1485748 516.6320801,132.5334015 
		516.9431763,130.9482117 301.4335022,130.9482117 302.521759,130.9482117 301.4335022,130.9482117 301.2779846,131.0101624 
		301.1540527,131.1330872 300.9043884,131.4751434 299.5982056,133.092514 298.9135437,133.9005432 298.5399475,134.302475 
		298.1973572,134.738678 296.7671509,136.3548431 295.211853,137.9700165 294.2166748,138.8721771 293.7190552,139.3072815 
		293.4699097,139.524231 293.2518921,139.7722626 291.2610474,141.5135345 289.2086792,143.1287231 288.1504211,143.8748016 
		287.1242371,144.6187897 286.0350037,145.3029022 284.9777527,145.9859314 282.8003845,147.2623444 280.5604248,148.411438 
		279.9693298,148.6593628 279.409668,148.940567 278.2894592,149.4674988 278.9116211,151.362793 279.5961914,153.2889404 
		280.3114014,155.1542358 281.0889893,157.04953 281.8666992,158.8827515 282.7067871,160.7480469 283.5469971,162.5812683 
		284.4797058,164.4465637 286.3459778,168.0510559 287.3417358,169.8222046 288.3988953,171.6244507 289.4571533,173.3636475 
		290.5769043,175.1348114 291.6965637,176.8441315 292.9098206,178.5832214 497.841217,178.5832214 	"/>
	<polygon class="st1" points="201.766861,100.0922012 201.766861,99.9672012 201.766861,99.4080811 201.8283691,96.6417236 
		202.0464172,94.0014572 202.3574982,91.3590012 202.8551025,88.812767 203.4152069,86.2633514 204.0998688,83.8090515 
		204.9084473,81.3836594 205.903656,79.0555725 206.9608002,76.7241974 208.1430817,74.4558792 209.4499054,72.2175446 
		210.9116364,70.0754242 212.4669342,67.9311218 214.1473541,65.8776703 215.9511414,63.8584709 217.8800201,61.9311142 
		219.6838989,60.1620369 221.5818176,58.514782 223.4786377,56.9616661 225.4705811,55.5635452 227.4609833,54.1942101 
		229.5137787,52.9841385 231.5982056,51.8649178 233.7756805,50.8708076 235.9220734,49.9066925 238.161499,49.0985565 
		240.4324493,48.3855362 242.7964325,47.7933617 245.1294556,47.2664261 247.5559387,46.8623047 250.0134125,46.5502319 
		252.5333862,46.3952408 253.3730469,46.3952408 254.8973694,46.2723198 256.4836426,46.24123 257.5723267,46.24123 
		258.5675354,46.24123 259.6257935,46.3022003 261.7717285,46.5202446 261.4296875,46.2723198 261.0565186,46.0852509 
		260.5900269,45.8991699 260.1228333,45.7122154 259.5632935,45.431015 259.0966797,45.2471237 258.6305847,45.0889511 
		258.2260132,45.0290794 257.7899475,44.8121338 257.4794006,44.7179985 257.2613525,44.6239738 257.1677856,44.6239738 
		255.5505219,44.0970345 253.9952087,43.6287651 252.3778381,43.1969528 250.7915497,42.8517189 248.0230103,42.3257675 
		245.2223816,41.9206581 244.3207703,41.7656631 243.4805603,41.6427422 242.9210052,41.6427422 241.27211,41.4246979 
		239.6238708,41.3305626 237.9434509,41.2365379 236.2952271,41.2365379 235.891098,41.1766624 235.6105499,41.2365379 
		234.8018646,41.1766624 233.9931793,41.2365379 232.0642853,41.2675133 230.1674652,41.3615417 226.4027252,41.7036018 
		222.6705017,42.231739 220.835083,42.5737991 219.031311,42.9789085 217.1643677,43.3808441 215.3605957,43.9099693 
		211.7833557,45.0600586 209.9790344,45.7122154 208.2366638,46.4262161 204.7524719,48.0104179 201.7358856,49.316597 
		198.8427582,50.7468987 195.9492035,52.3011131 193.1811981,54.0092239 190.4121094,55.81147 187.7681122,57.8007813 
		185.1860809,59.8509521 182.6665497,62.0893936 180.0535431,64.4174805 177.5960693,66.8418961 175.294693,69.2982635 
		173.1791687,71.8765793 171.1573486,74.4558792 169.3213959,77.096138 167.6420746,79.7995605 166.1488342,82.6268921 
		165.0916748,84.5862122 164.1274414,86.6054077 163.2247314,88.6257019 162.4470215,90.7390289 161.7004089,92.820282 
		161.0783539,94.9965515 160.5181427,97.170845 160.0516205,99.4080811 159.9276123,99.6860046 159.8966217,100.0922012 
		159.3365326,103.2295227 159.118927,104.8148193 158.9628296,106.4630585 158.7453308,109.7853622 158.6833801,113.2358475 
		158.6833801,114.790062 158.7453308,116.3753586 158.9318542,119.4806061 159.2744598,122.5281677 159.4919586,124.0182343 
		159.7726135,125.5393906 159.8340149,126.0075455 159.9276123,126.4415512 159.9901123,126.8156891 159.9901123,126.8765488 
		159.9901123,126.9097137 160.0210876,126.9706802 160.0831451,127.1577454 160.1456451,127.4356613 160.2077179,127.6835861 
		160.2077179,127.7766266 160.2386932,127.901741 160.3006439,128.0888062 160.456192,128.5248871 160.4871674,128.8028107 
		160.5807495,129.1769409 161.0162811,131.0401611 161.5454102,132.9684906 162.167572,134.831604 162.8821259,136.7578735 
		163.5983276,138.6231537 164.4379883,140.4862671 164.8419952,141.3874512 165.3091736,142.3216858 166.2738342,144.1538086 
		166.7399139,145.0249939 167.269043,145.9250793 168.3578186,147.6973267 169.5084686,149.4365234 170.7211609,151.208786 
		171.9659271,152.8860321 173.3037415,154.5652313 174.7035065,156.2093201 176.165329,157.8875427 177.6895447,159.4727325 
		179.2759399,161.0901031 180.9247284,162.643219 181.7649384,163.4203796 182.6665497,164.2285156 185.2485809,166.40271 
		187.8925781,168.516037 190.5991669,170.4721832 193.4296722,172.3384552 196.2608337,174.0765686 199.1533051,175.6950226 
		202.1083679,177.1850891 205.1570282,178.5832214 292.9098206,178.5832214 291.6965637,176.8441315 290.5769043,175.1348114 
		289.4571533,173.3636475 288.3988953,171.6244507 287.3417358,169.8222046 286.3459778,168.0510559 284.4797058,164.4465637 
		283.5469971,162.5812683 282.7067871,160.7480469 281.8666992,158.8827515 281.0889893,157.04953 280.3114014,155.1542358 
		279.5961914,153.2889404 278.9116211,151.362793 278.2894592,149.4674988 275.7389526,150.4007568 274.4322205,150.8357391 
		273.1569214,151.2697449 271.8196411,151.6438751 270.5129395,151.9859467 269.1441345,152.2970276 267.8063354,152.6048279 
		267.4338379,152.6379852 267.0912476,152.6989594 266.4065552,152.8239594 265.0377808,153.0410156 263.6070557,153.2280884 
		262.2388,153.3819885 259.3762207,153.5701447 257.9143982,153.6299133 256.4836426,153.6630707 252.5333862,153.6630707 
		250.0134125,153.4129639 247.5869141,153.1040649 245.1609802,152.6689606 242.8274078,152.1698303 240.4945068,151.5198669 
		238.2241058,150.8025818 235.9841309,149.9656525 233.8376312,149.0644684 231.6602783,148.0063324 229.5769348,146.8882141 
		227.4919586,145.6438751 225.5010071,144.3088074 223.5107117,142.8476257 221.5818176,141.3264771 219.6838989,139.6782379 
		217.8800201,137.9700165 216.8538361,136.944931 215.8891754,135.9508209 214.0852814,133.9005432 213.1831207,132.8422852 
		212.3740082,131.8171997 211.5653229,130.7311554 210.8186951,129.6728973 210.0409851,128.5537872 209.3253479,127.4688263 
		208.0190582,125.2303848 207.3964539,124.0792084 206.8368988,122.9599838 206.2772369,121.7809982 205.7791901,120.631897 
		205.2505035,119.4196396 204.8149719,118.2374802 204.3793182,116.9942398 204.0057373,115.7852631 203.6327057,114.5089645 
		203.3221588,113.2668228 203.0106354,111.9938126 202.7620544,110.7494812 202.3265228,108.1403046 202.1398926,106.8051224 
		202.0154419,105.4989395 201.8908691,104.131691 201.8283691,102.7945328 201.766861,101.4272766 201.766861,100.0922012 	"/>
	<polygon class="st1" points="230.0739899,33.2515984 227.7404327,32.7855225 225.3460236,32.4134674 222.9195251,32.0393372 
		220.4620514,31.7604351 217.2894897,31.5123997 214.1783295,31.3563118 211.0057678,31.2622871 207.8635101,31.2313099 
		205.7171326,31.1703396 204.6588745,31.1703396 203.663681,31.2313099 200.2115479,31.4792347 196.8203888,31.8544598 
		193.4606476,32.2873726 190.1635284,32.8164978 186.866394,33.4065933 183.6617584,34.0916977 180.4891968,34.8356934 
		177.3780365,35.7068787 177.3780365,51.8018684 180.2096252,49.9996223 183.1022034,48.3524818 186.0572662,46.801445 
		189.1058197,45.4011307 192.15448,44.0638695 195.2960663,42.8847733 198.4691772,41.7966423 201.7358856,40.8655815 
		205.0014801,39.9943962 208.3605652,39.2803917 211.7523804,38.6571274 215.2360382,38.161171 218.7506561,37.7571564 
		222.3284454,37.5091248 225.9676361,37.3220558 229.6693268,37.3220558 234.9269867,37.4150963 237.539444,37.5091248 
		240.2149506,37.726181 241.8632965,37.85009 243.5436096,38.0682373 245.1919556,38.3161659 246.8718262,38.6571274 
		245.5340118,38.0050812 244.3207703,37.4781456 243.1694794,37.0099907 242.6099243,36.7951202 242.1123199,36.6379356 
		241.0855865,36.2029457 239.9969025,35.8297958 238.7836609,35.3957939 237.5084686,35.0227585 236.7307587,34.7748337 
		235.9531555,34.5877647 235.1129456,34.3397331 234.2107849,34.152668 233.2465515,33.9046326 232.251358,33.6876793 
		231.162674,33.4386635 230.0739899,33.2515984 	"/>
	<polygon class="st1" points="177.3780365,51.8018684 177.3780365,35.7068787 174.7344818,36.4198952 172.1529999,37.2280312 
		169.6020508,38.0682373 167.1129456,39.0302773 164.5935211,39.9943962 162.1366119,41.0494728 159.7095642,42.1387024 
		157.3455811,43.350853 154.950058,44.5630035 152.6177063,45.8372192 150.3156586,47.1722908 148.0758057,48.6025925 
		143.6273804,51.5539436 141.4499054,53.1380386 139.3345032,54.7863846 137.9037628,55.81147 136.5349731,56.897522 
		133.9225006,59.1048775 131.4644928,61.3721046 129.1629944,63.7034798 127.2031326,65.6937714 125.3672867,67.7440567 
		123.5943756,69.7942276 121.9461365,71.9075546 120.3593063,74.0197906 118.8974762,76.1950684 117.5286942,78.3724365 
		116.2844696,80.6097794 115.0717697,82.8139648 113.9825439,85.0821762 112.9558105,87.3825684 112.0536499,89.7449188 
		111.2139893,92.1050797 110.4983444,94.4974213 109.8761749,96.9228134 109.3785782,99.4080811 109.2856445,99.6860046 
		109.2541199,100.0922012 108.6634827,103.7896271 108.4454346,105.6528397 108.2898941,107.5491104 108.1033783,109.9724274 
		108.0413132,112.3956375 108.0103378,114.447998 108.1033783,116.5292587 108.1968536,118.5795364 108.4150085,120.631897 
		108.6324997,122.6179276 108.9745636,124.6393051 109.3166199,126.628624 109.7832489,128.6179352 110.2492142,130.5440826 
		110.8098679,132.4692535 111.4005051,134.3655243 112.1166992,136.2917938 112.8312454,138.1239166 113.64048,139.9903107 
		114.4801407,141.8224335 115.444809,143.6578522 116.4084854,145.4269257 117.4357605,147.1981964 118.5238953,148.940567 
		119.6751862,150.7096405 120.887886,152.3878784 122.1636353,154.0992737 123.501442,155.7763977 124.901207,157.4524384 
		126.3319473,159.069809 127.8562775,160.6849976 129.4425659,162.2690887 131.0914459,163.8874359 132.7402344,165.4085999 
		134.5135803,166.9628143 136.3484497,168.4860382 138.2463684,170.0370789 139.6461334,171.1562958 141.1393738,172.2744293 
		142.6321716,173.3636475 144.2184601,174.4517822 145.8047485,175.4768677 147.4541779,176.5330505 149.102417,177.558136 
		150.8443451,178.5832214 177.3780365,178.5832214 177.3780365,173.5507202 174.5479584,171.6554413 171.7794189,169.6950226 
		169.0419464,167.6148529 166.3978577,165.4417572 164.8110199,164.0103607 163.2872314,162.611145 161.7940063,161.1830292 
		160.3942261,159.7539368 158.9949036,158.261673 157.719162,156.8014832 156.4439545,155.3092346 155.2616882,153.8180695 
		154.0478973,152.263855 152.9597626,150.7428131 151.8705292,149.1586151 150.8753357,147.6044006 149.9111023,145.9859314 
		149.009491,144.4018402 148.1383057,142.7567749 147.3605957,141.1394043 146.5824585,139.4302063 145.8673553,137.753067 
		145.1832275,136.0437622 144.5914917,134.3356476 144.0009613,132.563385 143.5033722,130.8231049 143.0363007,129.0529175 
		142.6625977,127.3116455 142.2585907,125.4784241 141.9790344,123.676178 141.6984863,121.8119736 141.5125122,119.9787521 
		141.326004,118.0834656 141.2318573,116.217186 141.1704559,114.2920227 141.2014313,112.3956375 141.2628479,109.2262497 
		141.5125122,106.1509933 141.8850098,103.0734329 142.4451141,100.0922012 142.4766388,99.6860046 142.5702209,99.4080811 
		143.1607513,96.5475845 143.9079285,93.751236 144.7785645,90.9870605 145.7737579,88.3136292 146.8935394,85.6112976 
		148.1383057,83.0020142 149.506546,80.4227142 150.9997864,77.936348 152.5550842,75.4179077 154.2969208,72.9626312 
		156.1632996,70.5404053 158.1542511,68.2090378 160.2696686,65.8776703 162.5096436,63.6104393 164.8740692,61.3721046 
		167.3615265,59.2288933 169.7580261,57.1786156 172.2150574,55.2524605 174.7344818,53.4502144 177.3780365,51.8018684 	"/>
	<polygon class="st1" points="178.8718262,25.0175285 175.7296906,25.0175285 172.6500549,25.0784969 166.5843658,25.3595886 
		163.567337,25.5134888 160.6117249,25.7615223 157.656662,26.042614 154.7640839,26.4146671 151.8399963,26.7556267 
		148.9785156,27.1917171 143.3478241,28.1869202 140.5482941,28.7160416 137.8107147,29.3349285 135.0736847,29.9891663 
		132.3976288,30.7021828 132.3976288,46.24123 135.7883453,44.1578941 137.4996338,43.1637878 139.2725372,42.231739 
		142.7877197,40.3995018 146.4274597,38.7212753 150.0666504,37.1029205 153.8303986,35.6438293 157.5945892,34.2766838 
		161.4823608,33.0645332 165.3711243,31.9143353 169.3844452,30.9202271 173.3967743,30.0522156 177.5341187,29.3061409 
		181.6713562,28.6220207 185.9327087,28.1227722 190.1946106,27.6909599 194.5809631,27.4397469 199.2159119,27.2226944 
		203.9133453,27.1618347 204.8149719,27.0976925 205.7481079,27.0976925 206.6508179,27.0976925 207.5829773,27.1618347 
		204.4413757,26.6327095 201.2687073,26.229681 198.0651703,25.88554 194.8605347,25.6706715 190.8791656,25.3595886 
		186.8974762,25.1725235 184.8760986,25.0784969 182.8840485,25.047411 178.8718262,25.0175285 	"/>
	<polygon class="st1" points="123.7504654,52.2069778 125.8348923,50.5897179 127.9812775,49.0686722 130.1587524,47.6084862 
		132.3976288,46.24123 132.3976288,30.7021828 127.9492111,31.885437 123.6254578,33.2515984 119.3641052,34.7427597 
		115.2267685,36.3589249 112.675705,37.5700912 110.1878128,38.8752823 107.6988144,40.1814613 105.3038483,41.5785942 
		102.9088821,42.9789085 100.5758667,44.4700737 98.2424164,45.9911156 95.9714661,47.6084862 94.4786606,48.6025925 
		93.0473785,49.6586571 90.2788239,51.8018684 87.0132141,54.3812752 83.9335785,57.0547066 81.009491,59.7580223 
		78.3030014,62.5243835 75.7209702,65.2875748 73.3259964,68.1790466 71.0854797,71.0695343 69.0331192,74.050766 
		67.1042252,77.0021133 65.3624039,80.080658 63.7755737,83.1560211 62.4073334,86.3243179 61.1321335,89.4968872 
		60.0738831,92.7593155 59.1722679,96.0206528 58.4565125,99.4080811 58.3635826,99.6860046 58.332058,100.0922012 
		57.7723923,103.0734329 57.3993568,106.1509933 57.1818619,109.2262497 57.1188126,112.3956375 57.0878334,114.3849487 
		57.1497879,116.4042511 57.2432671,118.3646698 57.4303322,120.3507004 57.6169586,122.2769623 57.8964081,124.2362823 
		58.2390175,126.1625443 58.6431389,128.0888062 59.0477028,129.9541016 59.5453033,131.8503723 60.0738831,133.6824951 
		60.7274628,135.5446167 61.3806076,137.3500366 62.0962486,139.1821747 62.8739586,140.9844208 63.7141685,142.8176422 
		64.5532837,144.5589142 65.486969,146.3279877 66.4511948,148.0393829 67.5398788,149.7774963 68.6285553,151.4568176 
		69.7793045,153.1649323 70.9930954,154.8431549 72.267746,156.520401 73.5434952,158.1387482 74.943367,159.7838135 
		76.343132,161.3680115 77.8673553,162.9852753 79.3916779,164.5374146 80.9779663,166.1247864 82.6263123,167.675827 
		84.3377075,169.2300415 86.7326736,171.2193451 89.2520981,173.2396393 91.8651047,175.2289429 94.6336594,177.2160645 
		95.5669098,177.9621429 96.5315704,178.5832214 130.6558075,178.5832214 130.6558075,178.4282227 130.5627594,178.2743225 
		130.4997101,178.1802979 130.3762512,178.0262909 128.1362762,176.5960999 126.1144562,175.2289429 124.2165375,173.8927765 
		122.5366669,172.6164856 120.5148468,171.0013123 118.5554199,169.417099 116.6575089,167.8030243 114.8537292,166.1857605 
		113.080925,164.5064392 111.431488,162.8623505 109.7832489,161.1499786 108.2589188,159.4727325 106.7345886,157.7036591 
		105.3348236,155.9612885 103.9350586,154.1901245 102.6597519,152.4210358 101.384552,150.5856323 100.2332611,148.7833862 
		99.1440353,146.9202728 98.1178513,145.0848694 97.0911255,143.1596985 96.1889648,141.2634277 95.3493042,139.3072815 
		94.571701,137.3799286 93.8560562,135.3907166 93.202919,133.401413 92.6118393,131.3822174 92.1147842,129.394989 
		91.6476135,127.3116455 91.2435989,125.2303848 90.9009857,123.1171722 90.7459946,122.0600128 90.6518631,121.0348206 
		90.4343643,118.8905106 90.3413239,116.746315 90.2483902,114.5731125 90.2788239,112.3956375 90.3413239,109.2262497 
		90.5278397,106.1509933 90.8699036,103.0734329 91.3680496,100.0922012 91.4610901,99.6860046 91.5235901,99.4080811 
		92.2386932,96.0206528 93.1409607,92.7261505 94.1986694,89.463829 95.474411,86.2943268 96.8736343,83.1560211 
		98.4908905,80.080658 100.2332611,77.0352783 102.1926956,74.0806503 104.2455978,71.130394 106.5170975,68.2731781 
		108.9430389,65.4458466 111.5875702,62.7082748 114.3555756,59.974968 117.3106461,57.3326225 120.4218063,54.7233353 
		123.7504654,52.2069778 	"/>
	<polygon class="st1" points="154.8886566,10.2565165 154.8886566,18.3676624 157.7501373,18.0256023 160.6742249,17.7454967 
		166.6149139,17.3414822 169.6020508,17.1864891 172.6500549,17.0934486 175.7296906,17.0314941 178.8718262,17.0314941 
		182.4180756,17.0314941 185.9327087,17.1255207 189.4169006,17.2484417 192.9010925,17.4665947 196.3227997,17.6835423 
		199.7134094,17.9935322 203.0731354,18.3355923 206.4327698,18.7706909 209.6989288,19.2067776 212.9650879,19.7359028 
		216.199707,20.2939262 219.435318,20.9480553 222.5769196,21.5980225 225.7190552,22.3440971 228.8296661,23.1212578 
		231.9087524,24.0223255 234.9269867,24.8935108 237.9130249,25.8555489 240.8675537,26.8496571 243.8226166,27.9388809 
		246.7162781,29.0249405 249.5772095,30.2061138 252.4083862,31.418375 255.2388916,32.7555275 257.9764709,34.0586395 
		260.7140198,35.4589539 263.4205322,36.9190292 266.1271057,38.4401817 268.7395935,39.9634171 271.3531494,41.6095734 
		273.9346313,43.2579193 276.5166626,45.0290794 276.3920898,45.0290794 277.8543701,46.0542755 279.3781433,47.2033768 
		280.9649658,48.4155312 282.6442871,49.7516975 284.324707,51.1188431 286.0975037,52.6089134 287.9018555,54.1632309 
		289.7991943,55.8424454 293.999054,59.9119186 296.3624878,62.4303589 297.5137939,63.7333603 298.6655273,65.1037903 
		299.754303,66.437767 300.8424377,67.8369827 302.9268799,70.727478 303.0823975,70.727478 303.2368469,70.694313 
		303.3303223,70.6344376 303.4858704,70.6012726 303.517395,70.4462738 303.5800171,70.3533478 303.6109924,70.198349 
		303.5800171,69.8872681 303.4858704,69.6392288 301.9006958,67.3078613 300.313324,65.03965 298.602478,62.8333817 
		297.7312927,61.7473335 296.8916016,60.7221375 295.0878296,58.6388016 294.1540527,57.6137161 293.2518921,56.6494904 
		292.2877502,55.6553802 291.3539734,54.7233353 289.3952026,52.89011 287.4972839,51.2128677 285.5683899,49.5646324 
		283.5469971,47.9184723 281.4935608,46.3022003 279.3161926,44.6870193 277.1071777,43.0697594 274.8052673,41.4556732 
		272.4728088,39.9014626 269.6113281,38.0050812 266.7182007,36.2360039 263.7935791,34.4936333 260.838501,32.8463783 
		257.8214722,31.2013168 254.8037872,29.6769886 251.7242584,28.1869202 248.6451721,26.7887974 245.4719543,25.3894711 
		242.2982941,24.0843887 239.064209,22.8112698 235.828598,21.6610718 232.5320129,20.5130634 229.2033539,19.4237251 
		225.8430634,18.3986397 222.4524536,17.4665947 218.9997864,16.5333462 215.5155945,15.694231 212.0008545,14.9171801 
		208.4547119,14.2041626 204.8459473,13.4890661 201.2377319,12.8978767 197.5670166,12.3698454 193.8968506,11.9048634 
		190.1325531,11.4378004 186.3683472,11.0957403 182.5736237,10.7536802 178.7473602,10.5355282 174.8595886,10.3185797 
		170.939209,10.1945629 166.9884949,10.1026173 163.0066986,10.1326084 160.9543304,10.0384741 158.9318542,10.0705452 
		156.878952,10.1026173 154.8886566,10.2565165 	"/>
	<polygon class="st1" points="154.8886566,18.3676624 154.8886566,10.2565165 151.1868439,10.3506517 147.5466766,10.5355282 
		143.9079285,10.7536802 140.3612213,11.0646496 136.7834473,11.3757372 133.2688141,11.7787657 129.7851715,12.1838741 
		126.363472,12.7119055 122.9102554,13.2399368 119.5196457,13.8300314 116.1599045,14.452198 112.8622284,15.1661997 
		109.5341187,15.8802023 106.2679672,16.6894341 103.0328979,17.5285492 99.8602295,18.4607029 96.6561356,19.3606777 
		93.5145493,20.3879509 90.403389,21.4130363 87.3547287,22.5632343 84.2756424,23.7112427 81.2890472,24.9235039 
		78.3030014,26.1666317 75.3789063,27.5038948 72.4238358,28.8389683 69.5301743,30.2670784 66.6692352,31.7272644 
		63.869709,33.2814789 61.0690842,34.8356934 58.332058,36.4840393 55.5944824,38.128006 52.9194107,39.9014626 
		49.3107567,42.2616196 45.8586311,44.6870193 42.560955,47.1424065 39.4188194,49.6886482 36.4022331,52.2069778 
		33.5396538,54.8173599 30.8026276,57.4576263 28.2521191,60.1930122 25.607584,63.0503349 23.150116,66.0037613 
		20.8480778,68.986084 18.7326698,72.0614548 16.7423725,75.1090164 14.9684772,78.2452393 13.351655,81.4168243 
		11.9209137,84.6792526 10.613533,87.9116974 9.4938745,91.2349854 8.5296488,94.5914459 7.7830272,98.0409393 
		7.1298838,101.4583664 6.694346,104.9698181 6.4147868,108.5122452 6.3213086,112.1477127 6.2902222,114.5089645 
		6.3827152,116.871315 6.5388041,119.2026901 6.6322823,120.3507004 6.7878237,121.5329666 7.0679302,123.8012924 
		7.4409671,126.0994949 7.9075918,128.3699036 8.4361706,130.6371307 9.0277967,132.8422852 9.6809406,135.0486603 
		10.4275618,137.223938 11.2666759,139.4002075 12.1378622,141.5135345 13.1026354,143.6578522 14.1293631,145.7689819 
		15.2799978,147.882309 16.4312897,149.9026031 17.6749649,151.952774 19.0133228,153.9719696 20.4130878,155.991272 
		21.874258,157.9516907 23.4295654,159.9409943 25.0784588,161.8971405 26.7898521,163.8543854 28.5316772,165.7196808 
		30.3669796,167.6148529 32.2637978,169.4780731 34.2868233,171.3433685 36.3397331,173.1455078 38.4861183,174.9788361 
		40.6945648,176.7809753 43.0270309,178.5832214 76.872261,178.5832214 76.7471466,178.2101746 76.6231308,178.0262909 
		74.6632614,176.5960999 72.8278503,175.1658936 70.9930954,173.705719 69.2507248,172.2744293 67.5398788,170.7842407 
		65.8915329,169.3240662 62.7493935,166.3417358 61.2250633,164.7875214 59.7633476,163.2642975 58.332058,161.710083 
		56.9947929,160.1889191 55.6575317,158.5705719 54.443737,157.0195313 53.2304916,155.4022675 52.1108322,153.8180695 
		51.2706261,152.6048279 50.4930267,151.4258423 49.0312004,149.0314178 48.3155556,147.7881775 47.6624107,146.5792084 
		46.4187355,144.1538086 45.2364655,141.6685333 44.178215,139.1821747 43.2139893,136.6338501 42.4054146,134.0844421 
		41.6277046,131.4751434 41.0056496,128.86586 40.4455452,126.1935196 40.0414238,123.5200882 39.6988144,120.7868881 
		39.4813194,118.0834656 39.388279,116.6853485 39.3573036,115.3171082 39.3252296,113.9189835 39.3573036,112.5517273 
		39.3573036,110.90448 39.4188194,109.3203812 39.6058846,106.1819687 39.9479446,103.1066055 40.4455452,100.0922012 
		40.788044,98.1019058 41.2541199,96.1456528 41.7207451,94.1863327 42.3123741,92.2600708 43.5876808,88.4386292 
		45.1119003,84.7401123 46.8227501,81.0415955 48.7821808,77.4702682 49.8089066,75.6680298 50.9291115,73.9267502 
		52.0798569,72.1886444 53.3550568,70.4773636 55.9365425,67.0299454 57.336853,65.3517151 58.7985725,63.7034798 
		60.2609482,62.0252495 61.8466835,60.4100685 63.4335136,58.7927017 65.1449051,57.2097015 66.8557587,55.6244011 
		68.6285553,54.0701904 72.3923111,50.9948273 76.343132,47.9793358 80.5424271,45.0290794 82.5338211,43.6287651 
		84.5861816,42.3257675 88.7235184,39.7763519 92.9233551,37.3541298 95.038765,36.2029457 97.2162399,35.1168938 
		99.3620758,33.997673 101.5710754,32.9405136 106.0194931,30.9533882 110.5298691,29.0870037 115.1648102,27.3787823 
		117.4667358,26.5385742 119.8311691,25.7615223 124.5895767,24.3013382 126.9850922,23.5883198 129.4425659,22.965168 
		134.3885803,21.7861786 136.8466034,21.2259712 139.3660278,20.730011 141.8850098,20.2318573 144.4675903,19.7957764 
		147.0185394,19.3606777 149.6311035,18.9887352 154.8886566,18.3676624 	"/>
	<polygon class="st0" points="356.3063965,115.256134 352.7597046,115.256134 352.7597046,127.2806702 356.0263062,127.2806702 
		356.0263062,120.1326523 360.5062561,127.2806702 364.0198975,127.2806702 364.0198975,115.256134 360.755249,115.256134 
		360.755249,122.4340363 356.3063965,115.256134 	"/>
	<path class="st0" d="M326.2264709,123.7703094l0.1549988-0.6232605l0.1229248-0.6188812l0.0950928-0.6232605l0.0310974-0.5601044
		l-0.0310974-0.6830215l-0.0950928-0.6231537l-0.1229248-0.618988l-0.1549988-0.529129l-0.2501221-0.6199799l-0.2779236-0.5291214
		l-0.3441162-0.529129l-0.3420715-0.4659653l-0.4671631-0.4019318l-0.4649963-0.3420639l-0.5291138-0.3442459l-0.5601196-0.2790146
		l-0.342041-0.1539001l-0.3121948-0.0940247l-0.6830139-0.1560898l-0.7460938-0.0919418l-0.7793274-0.032074l-0.8080444,0.032074
		l-0.7161865,0.0919418l-0.71521,0.1560898l-0.5910645,0.2479248l-0.6221619,0.2790146l-0.528595,0.3442459l-0.4975891,0.3420639
		l-0.4051208,0.4019318l-0.4045715,0.4659653l-0.309967,0.529129l-0.2801208,0.5291214l-0.2169495,0.6199799l-0.2180481,0.529129
		l-0.0935669,0.618988l-0.0940247,0.6231537v0.6830215l0.0940247,1.1833649l0.0935669,0.6188812l0.2180481,0.6232605
		l0.2169495,0.4959641l0.2801208,0.5291214l0.309967,0.4959641l0.4045715,0.4992447l0.4051208,0.3719406l0.4975891,0.3719406
		l0.528595,0.3110809l0.6221619,0.3121796l0.5910645,0.1539001l0.71521,0.1571808l0.7161865,0.123909l0.8080444,0.0908508
		l0.3731384-0.0608597l0.1880493-0.0299911h0.2181396l0.7460938-0.123909l0.6830139-0.1571808l0.3121948-0.0930405
		l0.342041-0.0608597l0.5601196-0.3121796l0.5291138-0.3110809l0.4649963-0.3719406l0.4671631-0.3719406l0.3420715-0.4992447
		l0.3441162-0.4959641l0.1229248-0.2811966l0.1549988-0.2479248L326.2264709,123.7703094L326.2264709,123.7703094z
		 M320.1281738,117.8355408l0.6852112,0.0608597l0.6841125,0.1870651l0.2801208,0.1540146l0.3110657,0.2501144l0.2479248,0.279007
		l0.2491455,0.4051132l0.2180176,0.4019318l0.1560974,0.5291214l0.092926,0.5899887l0.0609741,0.6520462l-0.0609741,0.5601044
		l-0.0619507,0.2480392l-0.0309753,0.1240158v0.157074l-0.0631409,0.0941315l-0.0309753,0.1229248l-0.0619812,0.2480316
		l-0.1250916,0.2180481l-0.092926,0.2490158l-0.2491455,0.3409653l-0.2479248,0.3110809l-0.3110657,0.2180481h-0.0641479h-0.0299988
		v0.0299911l-0.0619507,0.0641403l-0.1240234,0.1229248l-0.6841125,0.2180405l-0.6852112,0.1848755l-0.6851196-0.1848755
		l-0.6520386-0.2180405l-0.3420715-0.2170563l-0.3121643-0.2180481l-0.3099976-0.3110809l-0.2800903-0.3409653l-0.2180481-0.4670639
		l-0.092926-0.4650879l-0.0930481-0.529129v-0.5601044v-0.6520462l0.0930481-0.5899887l0.092926-0.5291214l0.2180481-0.4019318
		l0.2800903-0.4051132l0.3099976-0.279007l0.3121643-0.2501144l0.3420715-0.1540146l0.6520386-0.1870651L320.1281738,117.8355408
		L320.1281738,117.8355408z"/>
	<polygon class="st0" points="423.3405457,115.256134 423.3405457,127.2806702 426.7333374,127.2806702 426.7333374,115.256134 
		423.3405457,115.256134 	"/>
	<polygon class="st0" points="390.5541077,115.256134 390.5541077,127.2806702 397.6176147,127.2806702 397.6176147,124.4533386 
		393.9468994,124.4533386 393.9468994,115.256134 390.5541077,115.256134 	"/>
	<path class="st2" d="M288.585968,67.3378525l-1.1821594-1.2089767l-1.1192322-1.0892258l-1.119751-1.0882454l-1.1207581-0.9620399
		l-2.2704163-1.8353004l-1.119751-0.8370361l-1.1196594-0.7140007l-1.1513062-0.7161903l-1.1196594-0.65205l-1.119751-0.5900955
		l-1.1202087-0.4660759l-1.1202087-0.4659691l-1.1192322-0.40522l-2.2089844-0.5899849l-1.1196594-0.2811966l-1.0582581-0.2147598
		l-2.0213928-0.4041252l-1.9288635-0.3420601l-0.9326172-0.1539001l-0.8717346-0.0941353l-1.7417908-0.2180405l-1.5864258-0.1240196
		l-1.4926758-0.0929298l-1.3378296,0.0298843l-2.3955078,0.031086l-2.3013763,0.1869545l-2.2709503,0.2480354l-2.2089844,0.4041252
		l-2.2084656,0.4659653l-2.1148529,0.5900955l-2.0849762,0.6841202l-2.0213928,0.8092308l-2.0218201,0.8679047l-1.9599762,0.9952011
		l-1.9283447,1.0881348l-1.8358459,1.2421417l-1.8658447,1.3040962l-1.7733459,1.4303055l-1.7423706,1.5242157l-1.6483459,1.6440811
		v0.158165l-1.6797638,1.7082214l-1.5552979,1.7711639l-1.4618378,1.8022461l-1.3067169,1.8962708l-1.2437897,1.8632126
		l-1.1202087,1.9582291l-1.0261688,1.9872284l-0.8711853,2.0833359l-0.84021,2.0501709l-0.6846771,2.1433258l-0.5910797,2.1773605
		l-0.4660645,2.2373428l-0.4045715,2.2350464l-0.2485809,2.3303909l-0.1555481,2.3312607l-0.0315094,2.4255066l0.0315094,2.3623428
		l0.1555481,2.3280945l0.0930481,1.1192169l0.1555328,1.1491013l0.4045715,2.26931l0.4660645,2.2052765l0.5910797,2.1762695
		l0.6846771,2.1112442l0.84021,2.0833435l0.4034576,0.9941025l0.4677277,1.0250854l1.0261688,1.9904099l1.1202087,1.9261551
		l1.2437897,1.9262619l1.3067169,1.8652878l1.4618378,1.8321381l0.7466125,0.8711853l0.8086853,0.9011688l1.6797638,1.73909
		l1.6793365,1.6472626l1.7733307,1.5541992l1.803894,1.4281158l1.8673706,1.3361664l1.8658447,1.212265l1.9598694,1.1500854
		l1.9909515,1.0251923l2.0838776,0.9331512l2.0534668,0.7771606l2.1463776,0.7129059l2.177475,0.5900879l2.2709503,0.4991302
		l2.2394257,0.3720551l2.3334503,0.2790222l2.3639832,0.1870575l2.4569397,0.092926l2.3645325-0.092926l0.5595398-0.0609741
		l0.2805481-0.0331573h0.3105469l1.1817017-0.092926l1.1207581-0.1549988l1.1507568-0.1240234l1.1192322-0.1881561
		l1.1511536-0.1838989l1.0893555-0.2512054l1.1196594-0.2479248l2.1774597-0.5900879l2.1148682-0.7129059l2.1154175-0.7771606
		l0.9952087-0.4681549l0.4981384-0.2480469l0.2484741-0.1240082l0.2806702-0.0929413l0.9950867-0.5270386l1.0261536-0.4981537
		l0.4671936-0.3120575l0.4975891-0.2779236l0.9952087-0.5601044l1.928894-1.212265l1.8658447-1.3361664l0.4355164-0.3730316
		l0.2180481-0.1870728l0.2491455-0.1539001l0.933136-0.7141113l0.870636-0.7770538l0.4356384-0.4051056l0.4670715-0.3720398
		l0.8702087-0.84021l0.90271-0.8070526l0.4970398-0.5899811l0.5291443-0.5601044l1.0266113-1.1171417l0.2181396-0.3120728
		l0.2490234-0.2779083l0.4970703-0.5601044l0.2180176-0.3110809l0.2485962-0.2812042l0.4975891-0.5590057l0.870636-1.2100754
		l0.8717651-1.1821594l0.8085632-1.2132416l0.77771-1.1791l0.0619507-0.1870651l0.0935669-0.1549911l0.1865234-0.3099899
		l0.3741455-0.6210709l0.6835632-1.2453156l0.6226196-1.2731247l0.6210632-1.2720261l0.2501221-0.6841202l0.1240234-0.3409653
		l0.1549683-0.3120651l0.5291443-1.3062897l0.2180176-0.6841202l0.2491455-0.6520462l0.4349976-1.337265v-0.5569229
		l-0.0315247-0.4681625l-0.0923767-0.4649811l-0.157196-0.4030304l-0.3105469-0.4681549l-0.3414917-0.3409653l-0.4040222-0.2790146
		l-0.4367371-0.1549911l-0.5595703-0.1870651h-0.4975891l-0.4970703,0.0940247l-0.4671631,0.2480316l-0.4355164,0.2790146
		l-0.3426208,0.3741302l-0.2784729,0.4349899l-0.1565247,0.5259552l-0.4041138,1.1832504l-0.125,0.2780304l-0.0924988,0.3120651
		l-0.1865234,0.6221695l-0.2496643,0.5590057l-0.1239014,0.2790146l-0.0935974,0.3110809l-0.4666443,1.1789856l-0.5600891,1.1192169
		l-0.5595703,1.1511841l-0.5916138,1.1192245l-0.6216125,1.1159363l-0.7156677,1.0582504l-0.3730164,0.5291214l-0.3420715,0.5591202
		l-0.7467346,1.0250854l-0.7775879,1.0550766l-0.8396606,0.9961929l-0.8711853,1.0250854l-0.9016113,0.9941025l-0.9338074,0.9952087
		v0.1229248l-1.5552979,1.4612732l-0.8091125,0.6830292l-0.77771,0.6830292l-1.6172791,1.2742157l-0.4360657,0.2801056
		l-0.4041443,0.3109741l-0.8086853,0.6210632l-0.870636,0.529129l-0.8406372,0.5591125l-1.741272,0.9951019l-0.9022827,0.4351044
		l-0.870636,0.4649811l-1.8048706,0.8380127l-1.866394,0.683136l-0.9641113,0.3120728l-0.9332581,0.3110809l-1.928894,0.5269318
		l-0.9952087,0.2170563l-0.4975891,0.0940247l-0.4665222,0.1240234l-0.5285645,0.0630493l-0.4976196,0.0941315l-0.9957275,0.1539001
		l-2.0529175,0.2479248l-1.0577087,0.0641479h-0.2799988l-0.2485657,0.0299835l-0.4976196,0.0630493l-2.1159363,0.0609741
		l-2.1774902-0.0609741l-2.1148529-0.1571808l-2.0838928-0.2479248l-1.9913788-0.3110809l-2.0224762-0.4351044l-1.9283447-0.5269318
		l-1.8973694-0.6231537l-1.8354187-0.683136l-1.8347473-0.8380127l-1.7733459-0.9000854l-1.7423706-0.9951019l-1.6793365-1.0882416
		l-1.6798706-1.2121429l-1.5862732-1.2742157l-1.5553131-1.3660583l-1.4933472-1.4612732v-0.1229248l-1.4932404-1.5542145
		l-0.7151031-0.808136l-0.6531372-0.7770538l-1.306839-1.617363l-0.6220551-0.8369293l-0.5601044-0.808136l-0.5911865-0.8711853
		l-0.529129-0.8380203l-0.9951935-1.7413864l-0.9016266-1.7711639l-0.7775879-1.8022461l-0.7467346-1.8632126l-0.3420563-0.964119
		l-0.2799988-0.9321518l-0.529129-1.9251709l-0.404129-1.9272461l-0.3426056-2.0191956l-0.2174988-2.0193024l-0.1555328-2.0833359
		l-0.0309753-2.0811462v-2.177475l0.1245728-2.112236l0.1865082-2.0801544l0.3420563-1.990303l0.4051208-2.0202866
		l0.5280151-1.9251709l0.5912018-1.8963776l0.7466125-1.8332214l0.7776031-1.8652954l0.9022675-1.7711563l0.9641266-1.7392044
		l1.1197662-1.6782227l1.1821594-1.6782303l1.3062744-1.615181l1.369339-1.5840912l1.4932404-1.5233459h0.1549988
		l1.4618225-1.4600754l1.5558624-1.3672562l1.5552979-1.2730103l1.6482391-1.1512909l1.6483459-1.0860596l1.7113953-0.9952011
		l1.7418213-0.9010658l1.8037872-0.7771606l1.7733459-0.7471695l1.8669281-0.619976l1.8658447-0.5291252l1.9598694-0.4351006
		l1.9599762-0.3719444l2.0223694-0.2480354l2.0213776-0.1570702l2.1154022-0.0609703h1.2442322l1.3688049,0.0919456
		l1.4307251,0.1560898l1.5863953,0.2180405l1.6493225,0.2180443l1.7727966,0.3409653l1.8348694,0.4030304l1.9598694,0.4681549
		l0.9332581,0.2148705l0.995636,0.3420563l1.9283447,0.7771606l1.9289856,0.9642296l0.9331665,0.5290146l0.9957581,0.651062
		l1.9277649,1.3350754l1.928894,1.5851898l1.928894,1.7712708l0.9642334,0.96521l0.9950867,1.0251923l1.3068237,1.4291
		l1.1822815,1.5211563l1.0577087,1.5243301l0.9325867,1.5840912l0.8092346,1.5852966l0.7156372,1.6482391l0.559021,1.6440735
		l0.4981384,1.7423706l0.3116455,1.7081146l0.2174683,1.7712708l0.0620728,1.7722549v1.8632126l-0.186615,1.8321304
		l-0.2490234,1.9283371l-0.3730469,1.9262619l-0.4981384,1.9871216l-0.3105469,0.8103256l-0.0934753,0.1848831l-0.0620728,0.2180405
		l-0.1244507,0.4350967l-0.3110657,0.7770538l-0.3116455,0.807045l-0.3730164,0.7472763l-0.3415222,0.7438812l-0.1245728,0.1560898
		l-0.0934753,0.1881638l-0.186615,0.3719406l-0.3730469,0.7439957l-0.2495728,0.3110809l-0.1239929,0.1581726l-0.0935059,0.1838913
		l-0.4356384,0.6830215l-0.2484741,0.3121796l-0.1245728,0.1560898l-0.0930481,0.1859665l-0.2489929,0.3099899l-0.1240234,0.1549988
		l-0.0940247,0.1870651l-0.1555481,0.1251068l-0.1240234,0.1539001l-0.2490234,0.3110886l-0.5285645,0.6220551l-0.5602112,0.5900955
		l-0.1559753,0.1240158l-0.1240234,0.1539001l-0.2491455,0.3120651l-0.6220398,0.4981537l-0.6221619,0.5270462l-0.6531372,0.4980392
		l-0.6220703,0.5291214l-0.7156372,0.4329147l-0.6841125,0.4682617l-0.7156677,0.4329147l-0.71521,0.4350967l-0.7775879,0.3751221
		l-0.7781372,0.3720474l-0.8086853,0.3420639l-0.808136,0.3719406l-0.8717346,0.3110809l-0.8396606,0.3110886l-0.870636,0.279007
		l-0.8711853,0.3109741l-1.4932556,0.3410721l-1.4933472,0.3420639h-0.2484741h-0.1555481l-0.4666138-0.0930405
		l-0.3426208-0.1240158l-0.279541-0.2180481l-0.2180481-0.2169418l-0.2174988-0.3090057l-0.0930481-0.3420639l-0.0630493-0.4051056
		l0.032074-0.4649811l0.0309753-0.5900955l0.1240234-0.654129l0.1555481-0.7461853l0.2174988-0.8080292l0.2485657-0.9310532
		l0.3426208-0.9941101l0.3425903-1.1192245l0.4349976-1.1811752l9.2072754-29.7699432l-20.0323486-0.1539001h-1.5243225
		l-1.399765,0.0299911l-1.3378143,0.0630493l-1.2746582,0.0940247l-1.2137756,0.0908508l-1.1507568,0.1271896l-1.0886841,0.1540146
		l-0.9952087,0.2180405l-0.9646606,0.1870651l-0.9017181,0.2148666l-0.84021,0.2512131l-0.7466278,0.3088913l-0.7156372,0.2810898
		l-0.6216278,0.3410797l-0.5910797,0.3719406l-0.4671631,0.4051056l-0.5595551,0.4360886l-0.4976044,0.4960709l-0.9021606,1.0250854
		l-0.7776031,1.0881271l-0.5917358,1.212265l-0.4970551,1.2730103l-0.1865082,0.6520462l-0.1245728,0.71521l-0.1239014,0.6830215
		l-0.0631561,0.7460785l-0.0309906,1.5243301l-0.030426,0.4329071l0.030426,0.4682693l0.0941467,0.9010696l0.1544342,0.8380203
		l0.2805481,0.777153l0.1240234,0.3420639l0.1865082,0.3708496l0.4045715,0.6841125l0.4671631,0.6521606l0.2485809,0.2810898
		l0.3115234,0.3088989l0.5906525,0.4992371l0.3110809,0.2169495l0.3730316,0.2480392l0.7781525,0.4051056l0.4035645,0.1848755
		l0.4676208,0.2181549l0.9016113,0.2810898l0.466629,0.1229248l0.5285797,0.1549911l1.0886688,0.2180405l1.1822815,0.1870651
		l-1.3067322,0.4649887l-1.0882416,0.5291214l-0.9336853,0.5601044l-0.7466278,0.6199799l-0.4041138,0.2811966l-0.4349976,0.3719406
		l-0.4981537,0.4660797l-0.5285797,0.5280304l-0.5916138,0.5900955l-0.6221771,0.654129l-0.6841125,0.7461853l-0.7156525,0.8380203
		l-3.3596191,4.1934891l-0.6216278,0.6231537l-0.5600891,0.6520462l-0.5601196,0.5900955l-0.4971619,0.5899811l-0.529007,0.529129
		l-0.4660797,0.529129l-0.90271,0.9620361l-0.8396606,0.8070374l-0.7156525,0.7472839l-0.6531372,0.6220551l-0.3116302,0.2491302
		l-0.2484741,0.277916l-0.6221619,0.3741302l-0.3116302,0.1539001l-0.2789001,0.1881638l-0.3426208,0.1239014l-0.3110809,0.1549988
		l-0.6531372,0.2480316l-0.7156525,0.1870651l-0.3735809,0.0630493l-0.1859741,0.0309753l-0.1555328,0.0598755l-0.7467346,0.0941391
		l-0.7466125,0.0630493l-0.529129,1.7690735h16.9229431l14.0912323-17.8673553l0.5590057-0.7438812l0.6227112-0.6232605
		l0.2801056-0.3088913l0.3109741-0.2501144l0.6221771-0.4030304l0.5600891-0.3741302l0.5911865-0.2180481l0.5595703-0.1539001
		l0.6225891-0.0309753l0.2795715,0.125l-1.7423706,7.0539932l-0.3420715,0.9941101l-0.2801208,0.9620361l-0.2484436,0.9010696
		l-0.1555481,0.9010696l-0.1865234,0.808136l-0.0935822,0.7771606l-0.0625153,0.7161865v0.6830292l0.0315247,0.8380203
		l0.0309906,0.4041214l0.0935822,0.4360886l0.1865234,0.808136l0.1245728,0.3709564l0.1870422,0.4062042l0.1549988,0.3409653
		l0.2174988,0.3719406l0.4666138,0.6830292l0.2484741,0.3121719l0.3116455,0.3420639l0.6531372,0.6520462l0.6531372,0.529129
		l0.3420715,0.2148666l0.404541,0.2501144l0.8396912,0.3730392l0.4360657,0.154007l0.4976196,0.1880493l0.9636536,0.2170563
		l0.4985962,0.0929337l0.5591125,0.1251144l1.1511841,0.092926l0.5911865,0.0299911l0.6531372,0.030983l1.0577087-0.030983
		l1.1196594-0.0930405h0.1560974h0.2484741l1.2443237-0.2479248l1.2757568-0.2480316l2.4878845-0.5921783l1.0582581-0.3420563
		l1.0572815-0.3409653l1.0266113-0.3731461l0.4975891-0.1870651l0.2491455-0.0908508l0.2799988-0.0641479l0.9642029-0.4338913
		l0.2174988-0.1251144l0.2491455-0.0930405l0.4980469-0.1837845l0.9327087-0.4692459l0.9331055-0.4329147l0.8706665-0.5291214
		l0.8711853-0.4981537l0.8092041-0.5601044l0.1865234-0.154007l0.2174988-0.123909l0.4356689-0.2480316l0.7775879-0.6221695
		l0.3735657-0.3120651l0.1866455-0.1549988l0.2174988-0.1229172l0.7156372-0.6232605l0.7466431-0.6199799l0.3110657-0.3719406
		l0.1549988-0.1870651l0.1870728-0.1549988l0.6846619-0.6863098l0.6220398-0.743988l0.6221619-0.7161942l0.5595703-0.807045
		l0.1245728-0.2180405l0.1555481-0.1848755l0.3110657-0.3741302l0.5285645-0.8081436l0.5291443-0.8070374l0.0934753-0.2480392
		l0.1240234-0.2169495l0.249115-0.4350967l0.4665222-0.8711853l0.1865234-0.4660797l0.2175903-0.4349899l0.4355469-0.9011765
		l0.3735962-0.9620361l0.3730164-0.96521l0.3110962-0.9941101l0.342041-0.9952011l0.5596924-2.3280945l0.2495422-1.1192169
		l0.2174988-1.1181259l0.3110962-2.238327l0.125-1.1181259l0.0924988-1.0582504v-2.1741943L297.54422,87.475502
		l-0.0609741-1.0571594l-0.2490234-2.080162l-0.3735962-2.0202866l-0.5595398-2.0202942l-0.6852112-1.9582214l-0.4040222-0.9952011
		l-0.4356384-0.9620361l-0.933136-1.8652954l-1.1192322-1.8632126l-1.244751-1.8011551l-0.6841431-0.9353256l-0.7156372-0.8669205
		L288.585968,67.3378525L288.585968,67.3378525z M259.469696,81.2928085l1.0267334-0.0930405l0.9647827-0.0330582
		l0.8391113-0.0309753h0.7775879h0.6542358l0.5601196,0.0309753l0.4660645,0.0330582l0.3730469,0.0930405l-5.257019,16.094986
		h-1.8978882l-0.9017334-0.0298843l-0.8400879-0.0641403l-0.7777252-0.1229248l-0.6841125-0.1251068l-0.6846771-0.1870651
		l-0.5910797-0.2169495l-0.5280304-0.2480392l-0.4671631-0.279007l-0.466629-0.3441391l-0.3420563-0.3709564l-0.3109741-0.4030304
		l-0.2176056-0.4349899l-0.2180481-0.4992447l-0.0934753-0.5258408l-0.0930481-0.5602112l0.0315247-0.5921783v-1.0549622
		l0.1240234-1.0261841l0.1865234-1.0251923l0.3110809-0.964119l0.3735809-0.9941101l0.5280304-0.9620361l0.5911865-0.9343414
		l0.7156525-0.9010696l0.6220551-0.7439957l0.6852112-0.6220551l0.6835785-0.5602112l0.7466278-0.4349899l0.7156372-0.3720551
		l0.77771-0.2479248l0.7781372-0.1870651L259.469696,81.2928085L259.469696,81.2928085z"/>
	<polygon class="st2" points="430.7429504,80.5766144 430.7140503,81.1057434 430.6200256,81.7588806 430.4650269,82.4728851 
		430.2469788,83.3130951 423.7467346,103.7265778 423.4335632,104.4427719 423.1866455,105.0927429 422.9375,105.6860046 
		422.6884766,106.211853 422.3753357,106.6469498 422.1283875,107.053154 422.0332642,107.1130295 421.9744873,107.2070541 
		421.8461914,107.3631439 421.5992737,107.6410599 421.2572021,107.829216 420.8830566,108.0140991 420.446991,108.1403046 
		420.0118713,108.2952957 419.5159302,108.3882294 419.3598328,108.3882294 419.2337341,108.4182205 418.9867859,108.4823608 
		418.6757202,108.4823608 418.5196228,108.4823608 418.3946228,108.5122452 417.7745361,108.5432205 417.463562,109.443306 
		447.0453491,109.443306 450.6209412,100.7110901 449.5957642,100.7110901 448.7866211,101.5214157 448.383606,101.8944473 
		448.0083618,102.2984619 447.5744934,102.6405258 447.1682739,103.0125732 446.3291626,103.6966934 446.0800171,103.8196182 
		445.9560242,103.8837662 445.8918762,103.9136429 445.8630676,103.974617 445.4269104,104.2856979 445.1800537,104.4097137 
		445.0549316,104.4737473 444.992981,104.5037384 444.9619141,104.5667877 444.5258179,104.8778687 443.5926819,105.404808 
		442.6583252,105.8697891 441.6642151,106.245018 441.1661987,106.3989182 440.6990051,106.5859833 440.1698914,106.7110901 
		439.6717529,106.8649902 438.6765442,107.1461945 437.6193848,107.3011856 437.0902405,107.3631439 436.5942993,107.4550858 
		436.0342102,107.4871597 435.5050659,107.5491104 434.4468079,107.5811844 433.8887939,107.5491104 433.3885803,107.5491104 
		432.923584,107.4871597 432.5483704,107.4550858 432.1764221,107.3631439 431.8653259,107.3011856 431.5852356,107.1760788 
		431.3981628,107.0830383 431.1181641,106.894989 430.9310913,106.7110901 430.8380432,106.4630585 430.8070679,106.245018 
		430.8070679,105.8399048 430.9021912,105.3738327 431.0560913,104.7837372 431.2720642,104.1616821 434.5718384,93.5364761 
		436.5301514,93.5364761 437.1821899,93.5364761 437.7754822,93.5364761 438.3045959,93.5364761 438.8005676,93.5663605 
		439.205658,93.5663605 439.5809021,93.627327 439.8897705,93.6594009 440.1698914,93.7202606 440.7620544,93.9383011 
		441.353241,94.2195053 441.8823853,94.5283966 442.3473511,94.9335022 442.6915283,95.3376236 442.8144226,95.5556641 
		442.9406433,95.8335876 443.0003967,96.0816193 443.0945435,96.3936844 443.1564941,97.0457382 443.1276855,97.4187698 
		443.0945435,97.8837585 443.0003967,98.4128799 442.9095459,99.0029755 443.81073,99.0029755 447.6973877,86.6663818 
		446.7342834,86.6663818 446.5162354,86.9774628 446.3291626,87.319519 446.1100159,87.6304932 445.9250488,87.9725571 
		445.4910278,88.561554 445.2729797,88.812767 445.0848389,89.090683 444.8380127,89.3088303 444.6177673,89.5567551 
		444.3686218,89.7449188 444.2457275,89.8379593 444.1506042,89.9618683 443.6546326,90.3339157 443.1564941,90.6759796 
		442.8453979,90.7700043 442.5344238,90.8929291 442.3473511,90.9239044 442.1933594,90.9870605 441.8823853,91.1109695 
		441.1351013,91.2991333 440.3569641,91.4830246 440.1079407,91.4830246 439.98172,91.4830246 439.9229431,91.4830246 
		439.8897705,91.5161896 439.4526062,91.5770493 438.9566345,91.6070404 438.4894714,91.6700897 437.4334106,91.73423 
		436.8722229,91.73423 436.5942993,91.73423 436.3430786,91.7641144 435.1939697,91.7641144 439.0185852,79.4905624 
		442.2853088,79.4905624 443.2185364,79.4905624 444.1217957,79.5205536 444.9288635,79.5515289 445.709198,79.6455536 
		446.3612366,79.7385941 447.0142517,79.8626099 447.543396,79.9866333 448.0725403,80.1746826 448.4445801,80.3286896 
		448.850769,80.545639 449.2206421,80.7636795 449.5957642,81.0415955 450.25,81.6348648 450.8720398,82.3478851 
		450.9950867,82.5659256 451.1500854,82.8770065 451.2750854,83.2190704 451.4011841,83.6210022 451.4621277,84.0261154 
		451.5242004,84.5220718 451.5551758,85.0512009 451.6193237,85.6412964 452.5823364,85.6412964 454.8217773,77.7183075 
		427.260376,77.7183075 426.918335,78.5894928 427.5093994,78.5894928 428.0385132,78.6503525 428.5035095,78.7135086 
		428.9417725,78.8043594 429.283844,78.8685074 429.5949402,78.9614334 429.8439331,79.0854492 430.059906,79.2393494 
		430.3421021,79.4575043 430.5601501,79.7684784 430.6841431,80.1105347 430.7429504,80.5766144 	"/>
	<polygon class="st2" points="419.6088562,79.5515289 419.9221191,79.3034973 420.2918701,79.1164322 420.6980896,78.9304581 
		421.1941528,78.8043594 421.6633911,78.6803436 422.2213135,78.6204681 423.4335632,78.5894928 423.6847839,77.7183075 
		406.5143433,77.7183075 406.2321777,78.5894928 406.8254395,78.5894928 407.4144287,78.6503525 407.8816223,78.7135086 
		408.3486938,78.8043594 408.7207336,78.8685074 409.0627747,78.9614334 409.3427734,79.0854492 409.5608215,79.2393494 
		409.8409424,79.4905624 410.0589905,79.8326187 410.1829834,80.2345581 410.2439575,80.7006302 410.2139587,80.9186783 
		410.1829834,81.1997681 410.0899658,81.8519211 409.9028931,82.5659256 409.7789917,82.9710388 409.684845,83.4360199 
		406.8853149,92.3242188 394.224823,92.3242188 397.1483765,83.4360199 397.3685913,82.7209244 397.6176147,82.0699692 
		397.864563,81.4777908 398.146759,80.9518433 398.3936768,80.4825897 398.7036743,80.1105347 398.9858704,79.7684784 
		399.2947693,79.5515289 399.5748596,79.3034973 399.9501038,79.1164322 400.322052,78.9304581 400.7870178,78.8043594 
		401.2241821,78.6803436 401.7533264,78.6204681 402.8725281,78.5894928 403.245575,77.7183075 386.3242798,77.7183075 
		386.0752563,78.5894928 386.6652527,78.5894928 387.2254639,78.6503525 387.6914368,78.7135086 388.1607971,78.8043594 
		388.5017395,78.8685074 388.843811,78.9614334 389.0907593,79.0854492 389.3088074,79.2393494 389.5599976,79.4905624 
		389.7780457,79.8326187 389.9020691,80.2345581 389.966217,80.7006302 389.9020691,81.2297592 389.8069458,81.8829041 
		389.5909729,82.5958099 389.3729248,83.4360199 382.9646606,103.7896271 382.9025879,103.8505936 382.8716125,103.8837662 
		382.8716125,103.9446182 382.8107605,104.131691 382.6845398,104.5037384 382.4355164,105.1568832 382.1864014,105.7468643 
		381.9395752,106.2759933 381.6262817,106.7110901 381.379364,107.1130295 381.2842407,107.1760788 381.2233582,107.2701035 
		381.097168,107.4550858 380.8502197,107.7350845 380.6631775,107.7971497 380.5991211,107.7971497 380.5702209,107.7971497 
		380.5702209,107.829216 380.5081482,107.8890915 380.1651306,108.0771484 379.7609863,108.2011642 379.355896,108.3251801 
		378.8888245,108.3882294 378.3927612,108.4823608 377.8326416,108.5122452 377.2725525,108.5432205 377.0235291,109.443306 
		393.6337585,109.443306 393.8827515,108.5432205 393.2926636,108.5122452 392.7946167,108.5122452 392.3285522,108.4491959 
		391.9544373,108.4182205 391.5813904,108.3251801 391.3012695,108.2642136 391.0202026,108.1403046 390.8363037,108.0472641 
		390.6182556,107.860199 390.4621582,107.7052002 390.2131348,107.3930283 390.0559692,107.0221786 390.0249939,106.6469498 
		390.0559692,106.087944 390.0891418,105.7468643 390.1820679,105.4347992 390.2441406,105.0317688 390.3670349,104.6608124 
		390.649231,103.7896271 393.6337585,94.3103561 406.2321777,94.3103561 403.245575,103.7896271 402.9986267,104.5037384 
		402.7496033,105.1568832 402.4984131,105.7468643 402.2514648,106.2759933 401.9403992,106.7110901 401.6913757,107.1130295 
		401.5983276,107.1760788 401.5341797,107.2701035 401.4112549,107.4550858 401.1622314,107.7350845 400.9751892,107.7971497 
		400.9153137,107.7971497 400.8821411,107.7971497 400.8821411,107.829216 400.8201904,107.8890915 400.4460449,108.0771484 
		400.0419312,108.2011642 399.6390076,108.3251801 399.1408691,108.3882294 398.6427002,108.4823608 398.0826111,108.5122452 
		397.5224915,108.5432205 397.1483765,109.443306 414.0075989,109.443306 414.2588196,108.5432205 413.6655579,108.5122452 
		413.1695862,108.4823608 412.6714478,108.4182205 412.2663269,108.3882294 411.8623352,108.2642136 411.5534363,108.1701889 
		411.2412415,108.0472641 411.024292,107.9221497 410.6789551,107.6410599 410.4631042,107.3310699 410.3700562,107.1461945 
		410.3368835,106.9890137 410.3081055,106.5859833 410.3081055,106.3380585 410.3368835,106.0579529 410.3700562,105.7468643 
		410.4631042,105.4347992 410.5239563,105.0627441 410.650177,104.6608124 410.7731018,104.2258224 410.9611511,103.7896271 
		417.3994141,83.4360199 417.8366089,82.0998535 418.3657227,81.0117188 418.6457214,80.545639 418.955719,80.1416245 
		419.6088562,79.5515289 	"/>
	<path class="st2" d="M466.0210876,80.5766144l-0.0331726,0.2810898l-0.0309753,0.3420639l-0.0930176,0.4019318
		l-0.0940247,0.4682693l-0.1549988,0.5258408l-0.1539001,0.5900955l-0.2159729,0.6531448l-0.1881714,0.7471619
		l-6.0971985,19.4514465l-0.2180481,0.529129l-0.1870728,0.5259552l-0.1848755,0.4681549l-0.1571655,0.4340057l-0.1870728,0.3431549
		l-0.1240234,0.3088913l-0.1539001,0.2810898l-0.1260986,0.2181549l-0.309967,0.3088913l-0.3110962,0.3110886l-0.3752136,0.2479248
		l-0.1229248,0.033165l-0.0951233,0.0609665l-0.1849976,0.1229248l-0.2799988,0.0641403l-0.3110657,0.0608597h-0.1870728h-0.0951233
		l-0.0587769,0.032074l-0.3420715,0.0609665h-0.406189l-0.4360962,0.0630493h-0.4671631l-0.4959717,0.0309753l-0.3110657,0.9000854
		h14.4017639l0.0951233-0.0289001h0.1229248h0.2469177h0.5003662h0.9630127l0.9022522-0.0641403h0.8721924l0.8070374-0.0608597
		l0.8113098-0.033165l0.7450867-0.0609665l0.7471619-0.0298843l1.3074036-0.1870651l0.5888672-0.1240234l0.5602112-0.0630417
		l0.4980469-0.1251144l0.4981384-0.0929337l0.4362183-0.1240158l0.4338989-0.0930405l0.7151794-0.3088913l0.3430481-0.1870651
		l0.3731689-0.1549988l0.6520386-0.3741302l0.6242371-0.4030304l0.5579224-0.4649811l0.5602112-0.4681549l0.4980469-0.5270462
		l0.5003357-0.5590057l0.4008484-0.6231537l0.4050903-0.5591202l0.3110962-0.6199722l0.2821655-0.5601044l0.1838989-0.6221695
		l0.0630493-0.3109741v-0.0919418l0.0309753-0.0630493l0.0641479-0.1240158l0.0919495-0.6232605l0.0309753-0.5590134
		l-0.0309753-0.6498566l-0.0919495-0.6232605l-0.1581726-0.5890045l-0.1838989-0.5600967l-0.2821655-0.5590134l-0.3110962-0.5291214
		l-0.4050903-0.5270462l-0.4008484-0.4670639l-0.5291443-0.4960709l-0.5932617-0.4659653l-0.7141113-0.4361954l-0.7803345-0.4040146
		l-0.8999634-0.4030228l-0.965332-0.3741379l-1.0582581-0.3420563l-1.1500854-0.2790146l1.090332-0.2479248l1.0538635-0.2501144
		l0.9664307-0.2480316l0.9342346-0.2480316l0.776062-0.3120728l0.7803345-0.2480316l0.3088989-0.1539001l0.3431396-0.1240158
		l0.6199951-0.2512131l0.2511902-0.1837845l0.1229248-0.0941315l0.1549988-0.0630493l0.5002441-0.3088913l0.2159424-0.1881638
		l0.2490234-0.1560898l0.4671936-0.3088913l0.3730164-0.4051056l0.3741455-0.3720551l0.0619507-0.1240158l0.0289001-0.0630493
		l0.0641479-0.0309753l0.1870422-0.1870651l0.3420715-0.3719482l0.4339905-0.9011765l0.3741455-0.8711853l0.1859741-0.8700867
		l0.0641479-0.4329147l0.0298767-0.3741302l-0.0298767-0.5269394l-0.0641479-0.4981461l-0.1240234-0.4959641l-0.1539001-0.4660721
		l-0.4361877-0.9032593l-0.2799988-0.4030304l-0.3110962-0.3719406l-0.4050903-0.4350967l-0.401947-0.3420639l-0.4382629-0.3420563
		l-0.4649963-0.2810974l-0.5291138-0.277916l-0.5601196-0.2181473l-0.5911865-0.2169495l-0.6209412-0.1251144l-0.5602112-0.1229248
		l-0.6220703-0.0940247l-0.7161865-0.0630493l-0.7471619-0.0609665l-0.8711853-0.0630493l-0.9011841-0.0309753h-1.0272827
		h-1.0582581h-13.6855469l-0.2512207,0.8711853h0.5932617l0.5580139,0.0309753l0.4670715,0.0598755l0.4671631,0.0940247
		l0.3730469,0.0630493l0.3409729,0.1240158l0.2801208,0.1240158l0.2191162,0.1539001l0.2810974,0.2512131l0.2469177,0.3089981
		l0.1240234,0.3420639L466.0210876,80.5766144L466.0210876,80.5766144z M478.8067017,87.5674438l-0.3752441,0.4981537
		l-0.3409424,0.4959564l-0.3731384,0.4361954l-0.3741455,0.4349899l-0.4349976,0.3720551l-0.4361877,0.3420563l-0.4649963,0.3110886
		l-0.4371643,0.2810898l-0.5291443,0.1848755l-0.5569153,0.2170563l-0.6242371,0.1581726l-0.3420715,0.0598679l-0.3099976,0.0940323
		l-0.3752136,0.0299911l-0.3420715,0.0641403l-0.7471619,0.0929337l-0.8070374,0.0609665l-0.8391113,0.0630493l3.8866577-12.3366013
		l1.399231-0.0630493h0.4671936l0.4981384,0.0630493l0.434967,0.0630493l0.4671936,0.1549911l0.3719177,0.1229248
		l0.4062195,0.2181549l0.3409729,0.2180405l0.3731384,0.3109741l0.4980469,0.5900955l0.2181396,0.3110809l0.1870728,0.3719406
		l0.1239014,0.3720551l0.0952454,0.4051056l0.0587769,0.4051132l0.0330505,0.4649811l-0.0330505,0.4660721l-0.0587769,0.4959641
		l-0.0952454,0.4981461l-0.1239014,0.5269394l-0.374115,1.0582504l-0.2181702,0.5259552L478.8067017,87.5674438
		L478.8067017,87.5674438z M474.0466309,94.0014572l0.6199951,0.2479248l0.2821655,0.1549988l0.3110962,0.2180405
		l0.5291138,0.4649811l0.2180481,0.2811966l0.2469482,0.3420639l0.3409729,0.5889969l0.2822876,0.6841202l0.1549988,0.7161942
		l0.0630493,0.807045l-0.0630493,0.808136l-0.0952454,0.807045l-0.0908508,0.3741302l-0.0630493,0.1848755l-0.0287781,0.0298843
		v0.0641403v0.1229248l-0.2181396,0.808136l-0.3441467,0.7461853l-0.1849976,0.3730316l-0.1880493,0.4040146l-0.4649658,0.7450943
		l-0.5003662,0.7471619l-0.3110657,0.3099899l-0.3099976,0.3420639l-0.3730164,0.279007l-0.3420715,0.3110886l-0.434021,0.2479248
		l-0.4050903,0.2512054l-0.2511902,0.0908508l-0.2180786,0.1262054l-0.434967,0.2148743l-0.2780457,0.0641403l-0.2510681,0.0940247
		l-0.2780457,0.0598755l-0.2490234,0.0940247l-0.5921631,0.1240158l-0.5580444,0.1240158l-0.6242371,0.0630493l-0.6210632,0.0630493
		l-0.6841125,0.0299911h-0.3409729l-0.3110962,0.0298843l-0.1260986-0.0298843h-0.0919495h-0.1881409h-0.4360962
		l-0.0619507-0.0299911h-0.0299988h-0.0641479h-0.1239929h-0.2490234h-0.5580444l4.3848267-14.1088486h0.7781677
		l0.7161865,0.0309753l0.6531372,0.033165l0.6199646,0.0608597l0.5291443,0.0620651l0.4992371,0.091835l0.4040222,0.0941315
		L474.0466309,94.0014572L474.0466309,94.0014572z"/>
	<path class="st2" d="M514.6416626,76.9411469l-1.3692017,0.0309753l-1.3404541,0.1560898l-1.3639832,0.2159653
		l-1.3094482,0.3741302l-1.3672485,0.4349899l-1.3682556,0.5602112l-1.3713989,0.6199799l-1.3361816,0.7770462l-0.7161865,0.3720551
		l-0.6531372,0.4360886l-1.2763062,0.9000778l-1.2121582,0.9652176l-1.0871277,1.0250778l-1.0881348,1.0871506l-0.9663086,1.1501999
		l-0.9032593,1.2121506l-0.8070374,1.3361664l-0.7782593,1.3041l-0.6541443,1.306282l-0.5580139,1.303009l-0.4360657,1.306282
		l-0.3730469,1.3061752l-0.2491455,1.3031082l-0.1538696,1.3061829l-0.0331726,1.3372574l0.0620422,1.2731247l0.2490234,1.3061752
		l0.3741455,1.3351822l0.5889893,1.3671494l0.3131714,0.6210709l0.374115,0.6220551l0.401947,0.5900955l0.4981689,0.5590057
		l0.4649658,0.4981537l0.5622864,0.4959564l0.5899963,0.4351044l0.6531372,0.4360809l0.6520386,0.3410721l0.7161865,0.3088989
		l0.7471619,0.2810898l0.84021,0.2480316l0.8423157,0.157074l0.9299622,0.1240234l0.9653015,0.0941315l1.0560608,0.0298843
		l0.3132935-0.0298843h0.342041h0.6851196l0.6531372-0.0631561l0.6830139-0.0309753l0.6232605-0.0940323l0.6530457-0.0620575
		l0.5889893-0.1250076l0.623291-0.0941315l0.5600891-0.1539001l0.5910645-0.1229248l0.5291443-0.1881561l0.5591125-0.1539001
		l1.0582275-0.4062042l1.0250854-0.4349899l1.2453613-0.7439957l1.2463989-0.807045l1.1811523-0.9332504l1.1812134-1.0250854
		l1.1201782-1.1501923l1.1201782-1.2121506l1.0562134-1.336174l0.2501221-0.3730316l0.1240234-0.1870651l0.0619507-0.0930405
		l0.0919189-0.0608597l0.5601196-0.7161942l0.9353027-1.5222473l0.8081665-1.4900742l0.684082-1.4933472l0.6231689-1.4900665
		l0.4351196-1.4922562l0.3099976-1.4900665l0.1881104-1.493248l0.0608521-0.743988l0.0311279-0.683136l-0.0311279-0.687294
		l-0.0939941-0.6188889l-0.1240234-0.6841202l-0.1538696-0.6221619l-0.2180786-0.6841202l-0.2491455-0.6199799l-0.3131104-0.6841202
		l-0.3421021-0.6210709l-0.43396-0.654129l-0.4650269-0.5889969l-0.5002441-0.5900955l-0.5290527-0.4980392l-0.5890503-0.5270462
		l-0.5932617-0.4350967l-0.6520386-0.4360886l-0.6520386-0.3409653l-1.4313354-0.6531448l-0.7471313-0.2790146l-0.7161865-0.1870651
		l-0.776062-0.1870651l-0.7471924-0.0940247L514.6416626,76.9411469L514.6416626,76.9411469z M510.3798828,79.5515289
		l0.7130127-0.279007l0.8391113-0.1870728l0.9042358-0.1240158l0.9962769-0.0309753h0.434021l0.4660034,0.0609665
		l0.4052124,0.0940247l0.4360962,0.1870728l0.3751831,0.1549911l0.4008789,0.2480316l0.3441162,0.2810974l0.3720703,0.3720474
		l0.2821655,0.3420639l0.2779541,0.4649811l0.2180176,0.4659653l0.217041,0.5922852l0.1271973,0.5899887l0.1229248,0.6830215
		l0.0619507,0.7130203l0.0331421,0.7771606l-0.0641479,1.2762909l-0.0939941,1.3671494l-0.2159424,1.3971329l-0.2490234,1.4601898
		l-0.3752441,1.4600754l-0.4008179,1.5243301l-0.5291748,1.5542068l-0.5622559,1.6451721l-0.1848755,0.3741302l-0.0952148,0.1848755
		l-0.0619507,0.2180405l-0.3131714,0.7771606l-0.6831665,1.4900742l-0.7449951,1.4003067l-0.2180176,0.3110886l-0.1870728,0.3420563
		l-0.3731689,0.6509552l-0.4338379,0.5911865l-0.1262207,0.1250076l-0.0619507,0.0609665l-0.0300293,0.092926l-0.1880493,0.3110886
		l-0.4361877,0.5291214l-0.4028931,0.5601044l-0.466095,0.4960709l-0.4361877,0.4959564l-0.9342346,0.9331436l-0.5291443,0.3731461
		l-0.1549683,0.0630493l-0.125,0.0908508l-0.2491455,0.1881561l-0.5579224,0.2799988l-0.5601807,0.2790146l-0.6231689,0.1539001
		l-0.6220703,0.1560898l-0.683136,0.0940247h-0.342041l-0.3110962,0.0310822l-0.5290222-0.0310822l-0.5003357-0.0630493
		l-0.4649658-0.1240158l-0.434021-0.1549988l-0.8400879-0.4349899l-0.3741455-0.2801056l-0.3089905-0.3120651l-0.3751221-0.4319305
		l-0.2822876-0.4349899l-0.2468262-0.4992447l-0.1540222-0.4970551l-0.1870728-0.5889969l-0.0951233-0.5921783l-0.059845-0.6498566
		v-0.6874008v-0.8999786l0.0908508-0.9022675l0.0930481-0.9609451l0.1870422-0.9952011l0.1870728-1.0881348l0.2800903-1.1192245
		l0.2799988-1.1480026l0.3730469-1.2132492l0.3099976-1.2431259l0.3420715-1.1481171l0.3442383-1.0892258l0.3719177-1.0250854
		l0.3752441-0.9609451l0.3720703-0.8711853l0.3750916-0.841301l0.434021-0.7130203l0.7471619-1.3981247l0.8070374-1.2121506
		l0.7472839-1.0571594l0.8091125-0.8381271l0.3420715-0.4051056l0.3720398-0.3420639l0.7471924-0.5889969l0.716156-0.529129
		L510.3798828,79.5515289L510.3798828,79.5515289z"/>
	<polygon class="st2" points="340.8143005,77.8433075 339.2601013,77.4371033 338.5428162,77.2832031 337.8907776,77.1891785 
		336.647522,77.0352783 335.5273132,77.0021133 334.0949402,77.0352783 332.665741,77.1591873 331.2333374,77.3762436 
		329.8651123,77.7183075 328.4338074,78.1212234 327.002533,78.6204681 325.5723572,79.2094727 324.2041016,79.9234695 
		322.803772,80.6396637 321.4974976,81.4777908 320.2532654,82.3478851 319.1330566,83.3130951 318.0437317,84.2740402 
		317.0785217,85.3322906 316.1784363,86.4183426 315.4002991,87.6304932 314.6852112,88.812767 314.0935669,90.0228348 
		313.5654297,91.2349854 313.1619568,92.4782257 312.8182678,93.7202606 312.600769,94.9965515 312.4457703,96.2996597 
		312.4147949,97.605835 312.4457703,98.942009 312.5071716,99.593071 312.632843,100.2461014 312.9107666,101.4583664 
		313.0978088,102.0483475 313.3468323,102.671608 313.5654297,103.200737 313.84552,103.7586517 314.1560669,104.2546082 
		314.5296631,104.7837372 315.3078003,105.7468643 315.7434387,106.211853 316.2394104,106.7110901 317.2036438,107.4871597 
		317.7016602,107.829216 318.2618713,108.1701889 318.7910156,108.4491959 319.3809814,108.7602768 319.973175,109.0082016 
		320.6263123,109.2562408 321.9016113,109.6314621 322.5557556,109.7553711 323.2708435,109.9103699 324.7321167,110.0664597 
		325.4804077,110.097435 326.2885437,110.1274261 327.4087219,110.097435 327.9356689,110.033287 328.4947815,110.0034103 
		329.5530396,109.8495102 330.051178,109.7553711 330.5812988,109.6912308 330.6754456,109.6314621 330.7994385,109.6014709 
		331.0453186,109.5373306 331.5455322,109.4144058 332.4786682,109.133316 333.3498535,108.7912598 334.1900635,108.4182205 
		334.9362488,107.8890915 335.7432861,107.3310699 336.5523987,106.6801147 337.3616333,105.9949036 338.139801,105.1568832 
		338.9490051,104.2856979 339.7581482,103.3236618 340.5662842,102.3295517 339.3519287,102.3295517 338.6689148,102.9815979 
		338.0468445,103.5715866 337.423584,104.131691 336.8015442,104.6608124 336.1184082,105.1257935 335.4941711,105.5288239 
		334.8721008,105.9029541 334.2510376,106.245018 333.5979004,106.4930496 332.9747314,106.7409744 332.2915955,106.9591293 
		331.6374817,107.1461945 330.9223633,107.2701035 330.2371521,107.3631439 329.4909973,107.4241104 329.1190491,107.4241104 
		328.9319763,107.4241104 328.836853,107.4241104 328.7749023,107.4550858 327.8127441,107.3930283 326.9726563,107.3011856 
		326.1324463,107.1461945 325.3852844,106.9280396 324.670166,106.5859833 324.0180359,106.245018 323.3937683,105.8399048 
		322.8657532,105.3738327 322.3366089,104.7837372 322.0886841,104.4737473 321.9016113,104.1926575 321.4974976,103.477562 
		321.2174988,102.7645416 321.0614014,102.3295517 320.9694824,101.9243317 320.813385,101.0863113 320.7193604,100.1520767 
		320.6893616,99.1900406 320.7193604,98.0409393 320.813385,96.9228134 320.9694824,95.8035965 321.1854248,94.6855774 
		321.4654236,93.5033112 321.8074951,92.3840866 322.2136841,91.2349854 322.6786804,90.1158752 323.2708435,88.7198334 
		323.9239807,87.4435425 324.6091919,86.2633514 325.3543091,85.1752167 326.1014709,84.1501312 326.9105835,83.2190704 
		327.7166443,82.3788605 328.5899048,81.664856 329.4610901,81.0117188 330.3311768,80.4525986 331.2023621,79.9866333 
		332.0735474,79.6145782 332.943634,79.3034973 333.8148499,79.0854492 334.6860352,78.9614334 335.5892639,78.9304581 
		336.3675232,78.9614334 337.1125183,79.0555725 337.8287048,79.2094727 338.5118408,79.4275131 339.1338806,79.7065201 
		339.7581482,80.0496826 340.3172607,80.4525986 340.8773499,80.9518433 341.3423462,81.4777908 341.7485352,82.0699692 
		342.0906067,82.7209244 342.2467041,83.0629807 342.4315796,83.4669952 342.6496277,84.2441559 342.7426453,84.6460876 
		342.8677673,85.1153412 343.0227661,86.0154266 343.1167908,87.0405121 344.0499268,87.0405121 346.6004333,77.0021133 
		345.6982727,77.0021133 345.3241272,77.2832031 345.0152588,77.5312424 344.7019653,77.7492828 344.3919983,77.936348 
		343.7388306,78.1843872 343.4278564,78.2452393 343.1167908,78.2784119 342.9916992,78.2452393 342.8987427,78.2452393 
		342.6806946,78.2452393 342.4315796,78.1843872 342.1825562,78.1532974 341.87146,78.0603638 341.5614929,77.9973221 
		341.188446,77.903183 340.8143005,77.8433075 	"/>
	<polygon class="st2" points="351.8264465,77.7183075 351.5164795,78.5894928 352.0765686,78.5894928 352.6047058,78.6503525 
		353.0706787,78.7135086 353.5068665,78.8043594 353.848938,78.8685074 354.1589355,78.9614334 354.4079285,79.0854492 
		354.6270752,79.2393494 354.9060974,79.4575043 355.1252441,79.7684784 355.2481384,80.1105347 355.3101196,80.5766144 
		355.2791138,81.1057434 355.1861877,81.7588806 355.0301208,82.4728851 354.8120728,83.3130951 348.31073,103.7265778 
		348.2487793,103.7896271 348.2187805,103.8196182 348.2187805,103.8837662 348.1568298,104.0676575 348.0306396,104.4427719 
		347.7816162,105.0927429 347.6896667,105.2199326 347.6277161,105.3738327 347.5014954,105.6860046 347.2524719,106.211853 
		346.9425049,106.6469498 346.6955566,107.053154 346.6004333,107.1130295 346.5384827,107.2070541 346.4155579,107.3631439 
		346.1664429,107.6410599 345.8243713,107.829216 345.4491577,108.0140991 345.0152588,108.1403046 344.5790405,108.2952957 
		344.0809021,108.3882294 343.9238281,108.3882294 343.8009033,108.4182205 343.5518799,108.4823608 343.2408142,108.4823608 
		343.086792,108.4823608 342.9606934,108.5122452 342.3396301,108.5432205 342.0285339,109.443306 371.6114197,109.443306 
		375.1870117,100.7110901 374.1597595,100.7110901 373.3526917,101.5214157 372.9476013,101.8944473 372.5745544,102.2984619 
		372.140564,102.6405258 371.7354431,103.0125732 370.8952332,103.6966934 370.6462097,103.8196182 370.5221863,103.8837662 
		370.459137,103.9136429 370.4281616,103.974617 369.9941711,104.2856979 369.7450256,104.4097137 369.6211243,104.4737473 
		369.5569763,104.5037384 369.5259094,104.5667877 369.0920105,104.8778687 368.1576538,105.404808 367.2245178,105.8697891 
		366.2282104,106.245018 365.7301941,106.3989182 365.2651978,106.5859833 364.736084,106.7110901 364.237915,106.8649902 
		363.2438354,107.1461945 362.1855774,107.3011856 361.6564331,107.3631439 361.1582947,107.4550858 360.5982056,107.4871597 
		360.0690613,107.5491104 359.0119019,107.5811844 358.4538879,107.5491104 357.9557495,107.5491104 357.4875793,107.4871597 
		357.1156311,107.4550858 356.7404175,107.3631439 356.4304199,107.3011856 356.1503296,107.1760788 355.9621582,107.0830383 
		355.6832581,106.894989 355.5282593,106.7110901 355.4352112,106.4630585 355.4053345,106.245018 355.4053345,105.8399048 
		355.4971619,105.3738327 355.6211853,104.7837372 355.8392334,104.1616821 359.1369324,93.5364761 361.1273193,93.5364761 
		361.7804565,93.5364761 362.3726196,93.5364761 362.9017639,93.5364761 363.3977051,93.5663605 363.8018494,93.5663605 
		364.1758728,93.627327 364.4559631,93.6594009 364.736084,93.7202606 365.3271484,93.9383011 365.9172363,94.2195053 
		366.4463806,94.5283966 366.9123535,94.9335022 367.2554932,95.3376236 367.3795166,95.5556641 367.5046387,95.8335876 
		367.5665894,96.0816193 367.6596375,96.3936844 367.7215881,97.0457382 367.692688,97.4187698 367.6596375,97.8837585 
		367.5665894,98.4128799 367.4735413,99.0029755 368.375824,99.0029755 372.2645569,86.6663818 371.2982788,86.6663818 
		371.0823059,86.9774628 370.8952332,87.319519 370.6772156,87.6304932 370.4901428,87.9725571 370.0550232,88.561554 
		369.8369751,88.812767 369.6499329,89.090683 369.4029846,89.3088303 369.1849365,89.5567551 368.9359131,89.7449188 
		368.8118896,89.8379593 368.7178955,89.9618683 368.2208252,90.3339157 367.7215881,90.6759796 367.4126892,90.7700043 
		367.0993958,90.8929291 366.9123535,90.9239044 366.7573547,90.9870605 366.4463806,91.1109695 365.6990967,91.2991333 
		364.9209595,91.4830246 364.6740112,91.4830246 364.5490112,91.4830246 364.4869385,91.4830246 364.4559631,91.5161896 
		364.0198975,91.5770493 363.7729492,91.5770493 363.6467285,91.5770493 363.5858765,91.5770493 363.5549011,91.6070404 
		363.087738,91.6700897 362.02948,91.73423 361.4693909,91.73423 361.18927,91.73423 360.9402466,91.7641144 
		359.7889709,91.7641144 363.5858765,79.4905624 366.8504028,79.4905624 367.7846375,79.4905624 368.6867981,79.5205536 
		369.4960327,79.5515289 370.2731934,79.6455536 370.9262085,79.7385941 371.5782471,79.8626099 372.1073914,79.9866333 
		372.6365356,80.1746826 373.0117493,80.3286896 373.4147644,80.545639 373.7878113,80.7636795 374.1597595,81.0415955 
		374.815094,81.6348648 375.4361572,82.3478851 375.5600586,82.5659256 375.716156,82.8770065 375.8423462,83.2190704 
		375.965271,83.6210022 376.0272217,84.0261154 376.122345,84.5220718 376.1512451,85.0512009 376.2142944,85.6412964 
		377.1474304,85.6412964 379.3868713,77.7183075 351.8264465,77.7183075 	"/>
</g>
</svg>
