<?xml version="1.0" encoding="utf-8"?>
<!-- Generator: Adobe Illustrator 22.0.0, SVG Export Plug-In . SVG Version: 6.00 Build 0)  -->
<svg version="1.1" id="Layer_1" xmlns="http://www.w3.org/2000/svg" xmlns:xlink="http://www.w3.org/1999/xlink" x="0px" y="0px"
	 viewBox="0 0 93.678 25" style="enable-background:new 0 0 93.678 25;" xml:space="preserve">
<style type="text/css">
	.st0{fill-rule:evenodd;clip-rule:evenodd;fill:#A6AAAA;}
	.st1{fill-rule:evenodd;clip-rule:evenodd;fill:#F3792E;}
	.st2{fill-rule:evenodd;clip-rule:evenodd;fill:#F06022;}
	.st3{fill-rule:evenodd;clip-rule:evenodd;fill:#D95122;}
	.st4{fill-rule:evenodd;clip-rule:evenodd;fill:#F89A2C;}
	.st5{fill-rule:evenodd;clip-rule:evenodd;fill:#FFFFFF;}
	.st6{fill:#FFFFFF;}
	.st7{fill-rule:evenodd;clip-rule:evenodd;fill:#B4008D;}
	.st8{fill-rule:evenodd;clip-rule:evenodd;fill:#9DBC0A;}
	.st9{fill:none;stroke:#9DBC0A;stroke-width:0.1962;stroke-miterlimit:10;}
	.st10{fill-rule:evenodd;clip-rule:evenodd;fill:#DF3F17;}
	.st11{fill:none;stroke:#DF3F17;stroke-width:0.1962;stroke-miterlimit:10;}
	.st12{fill-rule:evenodd;clip-rule:evenodd;fill:#F5B208;}
	.st13{fill:none;stroke:#F5B208;stroke-width:0.1962;stroke-miterlimit:10;}
	.st14{fill:#9DBC0A;}
	.st15{fill:none;stroke:#9DBC0A;stroke-width:0.2023;stroke-miterlimit:10;}
	.st16{fill:none;stroke:#DF3F17;stroke-width:0.2023;stroke-miterlimit:10;}
	.st17{fill:none;stroke:#F5B208;stroke-width:0.2023;stroke-miterlimit:10;}
	.st18{fill-rule:evenodd;clip-rule:evenodd;fill:#85754E;}
	.st19{fill:#85754E;}
	.st20{fill-rule:evenodd;clip-rule:evenodd;fill:#1A171B;}
	.st21{fill:#016268;}
	.st22{fill:#00A9C2;}
	.st23{fill:#21427B;}
	.st24{fill:#FAE101;}
	.st25{fill-rule:evenodd;clip-rule:evenodd;fill:#32327F;}
	.st26{fill-rule:evenodd;clip-rule:evenodd;fill:#FCB813;}
	.st27{fill:#002169;}
	.st28{fill:#C6C7C8;}
	.st29{fill:#F79420;}
	.st30{fill:#FCB831;}
	.st31{fill:#FDDD2E;}
	.st32{fill:#F3C700;}
	.st33{fill:#DB6216;}
	.st34{fill:#EAA600;}
	.st35{fill:#E32427;}
	.st36{fill:#FFFFFF;stroke:#FFFFFF;stroke-width:0.1124;stroke-miterlimit:10;}
	.st37{fill:url(#SVGID_1_);}
	.st38{fill-rule:evenodd;clip-rule:evenodd;fill:#C1272D;}
	.st39{fill-rule:evenodd;clip-rule:evenodd;fill:url(#SVGID_2_);}
	.st40{fill-rule:evenodd;clip-rule:evenodd;fill:url(#SVGID_3_);}
	.st41{fill-rule:evenodd;clip-rule:evenodd;fill:url(#SVGID_4_);}
	.st42{fill-rule:evenodd;clip-rule:evenodd;fill:url(#SVGID_5_);}
	.st43{fill-rule:evenodd;clip-rule:evenodd;fill:url(#SVGID_6_);}
	.st44{fill-rule:evenodd;clip-rule:evenodd;fill:url(#SVGID_7_);}
	.st45{fill-rule:evenodd;clip-rule:evenodd;fill:url(#SVGID_8_);}
	.st46{fill:#006937;}
	.st47{fill:#929990;}
	.st48{fill:#FFFFFF;stroke:#FFFFFF;stroke-width:0.1949;stroke-miterlimit:10;}
	.st49{fill:#18428F;}
	.st50{fill:#EC1848;}
	.st51{fill:#29A151;}
	.st52{fill:#C1272D;}
	.st53{fill:#29ABE2;}
	.st54{fill:#F7BE3E;}
	.st55{fill:url(#SVGID_9_);}
	.st56{fill-rule:evenodd;clip-rule:evenodd;fill:none;}
	.st57{clip-path:url(#SVGID_11_);fill-rule:evenodd;clip-rule:evenodd;}
	.st58{fill:#EFAF1F;}
	.st59{fill:#EFB022;}
	.st60{fill:#0E0A08;}
	.st61{fill:#DA2A28;}
	.st62{fill:#F6F6F5;}
	.st63{fill:#C7B086;}
	.st64{fill:#F1F0EE;}
	.st65{fill-rule:evenodd;clip-rule:evenodd;fill:url(#SVGID_12_);}
	.st66{fill-rule:evenodd;clip-rule:evenodd;fill:#FAF9F9;}
	.st67{fill-rule:evenodd;clip-rule:evenodd;fill:#F8B132;}
	.st68{fill-rule:evenodd;clip-rule:evenodd;fill:#1A70B7;}
	.st69{fill-rule:evenodd;clip-rule:evenodd;fill:#36A834;}
	.st70{fill-rule:evenodd;clip-rule:evenodd;fill:#E2000F;}
	.st71{fill-rule:evenodd;clip-rule:evenodd;fill:#1A1A18;}
	.st72{fill:url(#SVGID_13_);}
	.st73{fill:url(#SVGID_14_);}
	.st74{fill:url(#SVGID_15_);}
	.st75{fill:url(#SVGID_16_);}
	.st76{fill:url(#SVGID_17_);}
	.st77{fill:url(#SVGID_18_);}
	.st78{fill:url(#SVGID_19_);}
	.st79{fill:url(#SVGID_20_);}
	.st80{fill:url(#SVGID_21_);}
	.st81{fill:url(#SVGID_22_);}
	.st82{fill:url(#SVGID_23_);}
	.st83{fill:url(#SVGID_24_);}
	.st84{fill:url(#SVGID_25_);}
	.st85{fill:url(#SVGID_26_);}
	.st86{fill:#00A85D;}
	.st87{fill:#FFFFFF;stroke:#FFFFFF;stroke-width:0.1;stroke-miterlimit:10;}
	.st88{fill:#9FD8F5;}
	.st89{fill:#274888;}
	.st90{fill:#267DBF;}
	.st91{fill:#2F91CF;}
	.st92{fill:#2955A0;}
	.st93{fill:#236EB3;}
	.st94{fill:#CFEBFA;}
	.st95{fill:#42B7E9;}
	.st96{fill:#3FAAE0;}
	.st97{fill:#ED171F;}
	.st98{opacity:0.25;fill:url(#SVGID_27_);}
	.st99{fill:#FFFFFF;stroke:#FFFFFF;stroke-width:1.0606;stroke-miterlimit:10;}
	.st100{fill:#FFAF10;}
	.st101{fill:#151416;}
	.st102{fill:#E57641;}
	.st103{fill:none;}
	.st104{fill:#1C191B;}
	.st105{fill:#19181A;}
	.st106{fill:#DD7340;}
	.st107{fill:#181617;}
	.st108{fill:#EA7944;}
	.st109{fill:#0C0E13;}
	.st110{fill:#181719;}
	.st111{fill:#F2F1F2;}
	.st112{fill:#F6F5F5;}
	.st113{fill:#BA673F;}
	.st114{fill:#4E362A;}
	.st115{fill:#6A6567;}
	.st116{fill:none;stroke:#EA7944;stroke-width:0.3013;stroke-linecap:round;stroke-miterlimit:10;}
	.st117{fill:none;stroke:#FF00FF;stroke-width:0.25;stroke-miterlimit:10;}
</style>
<g>
	<path class="st38" d="M91.655,20.395c-1.091,0-2.013,0.839-2.013,1.976c0,1.148,0.923,1.987,2.013,1.987
		c1.08,0,2.003-0.839,2.003-1.987C93.657,21.233,92.734,20.395,91.655,20.395L91.655,20.395L91.655,20.395L91.655,20.395z
		 M91.655,24.027c-0.907,0-1.615-0.702-1.615-1.657c0-0.938,0.708-1.646,1.615-1.646c0.896,0,1.604,0.708,1.604,1.646
		C93.259,23.325,92.551,24.027,91.655,24.027L91.655,24.027L91.655,24.027L91.655,24.027z"/>
	<path class="st38" d="M91.975,22.512c0.335-0.042,0.592-0.22,0.592-0.629c0-0.451-0.267-0.65-0.807-0.65l0,0h-0.87v2.286h0.346
		v-0.991h0.399l0.603,0.991h0.388L91.975,22.512L91.975,22.512L91.975,22.512z M91.235,22.234v-0.708h0.472l0,0
		c0.241,0,0.498,0.052,0.498,0.335c0,0.351-0.262,0.372-0.556,0.372l0,0H91.235L91.235,22.234L91.235,22.234z"/>
	<path class="st38" d="M30.028,20.459v-5.404h3.804v-3.377h-3.804V4.674l0,0c0-0.533,0.231-0.649,1.064-0.723l0,0l3.878-0.272V0.373
		l-5.226,0.391l0,0c-2.666,0.178-3.719,0.818-3.719,2.738l0,0l0.011,17.989l0,0c0,2.915,0.971,3.306,3.85,3.306l0,0h5.12v-3.413
		h-3.84l0,0C30.134,21.384,30.028,21.242,30.028,20.459L30.028,20.459L30.028,20.459L30.028,20.459z"/>
	<polygon class="st38" points="19.403,11.68 15.422,11.68 15.422,2.224 11.415,2.828 11.415,24.799 15.422,24.799 15.422,15.058 
		19.403,15.058 19.403,24.799 23.421,24.799 23.421,1.299 19.403,1.726 19.403,11.68 19.403,11.68 	"/>
	<path class="st38" d="M0,8.201l2.869-0.569v17.171h4.003V6.885L9.67,6.388V3.081l0,0C5.084,3.899,3.982,4.113,0,5.001l0,0V8.201
		L0,8.201L0,8.201z"/>
	<path class="st38" d="M47.814,2.896c0-1.849-1.195-2.702-3.292-2.702l0,0l-7.416,0.107v24.495h4.039v-9.741h1.778l0,0
		c0.604,0,0.853,0.213,0.853,1.138l0,0v8.603h4.039v-8.923l0,0c0-1.635-0.093-1.849-1.053-2.702
		c0.711-0.711,1.053-1.173,1.053-2.488l0,0V2.896L47.814,2.896L47.814,2.896z M42.566,11.678h-1.422V3.536l1.564-0.036l0,0
		c0.617-0.008,1.057-0.008,1.057,1.38l0,0l0.01,5.232l0,0C43.775,11.215,43.704,11.678,42.566,11.678L42.566,11.678L42.566,11.678
		L42.566,11.678z"/>
	<polygon class="st38" points="57.426,9.331 54.155,0.479 50.614,0.266 50.614,24.796 54.617,24.796 54.617,11.393 56.999,17.544 
		58.03,17.544 60.447,11.393 60.447,24.796 64.497,24.796 64.497,1.297 60.59,0.977 57.426,9.331 57.426,9.331 	"/>
	<path class="st38" d="M86.782,12.789L84.578,11.9l0,0c-0.498-0.213-0.64-0.569-0.64-1.244l0,0V8.807l0,0
		c0-0.782,0.285-1.102,0.782-1.102l0,0l3.572,0.709V5.108l-6.203-1.243l0,0c-1.529,0-2.155,0.746-2.155,2.382l0,0v5.795l0,0
		c0,1.457,0.199,1.635,1.017,2.062l0,0l2.56,1.315l0,0c0.676,0.355,0.782,0.569,0.782,1.28l0,0v3.413l0,0
		c0,1.209,0,1.493-1.067,1.493l0,0H79.94v3.2h5.278l0,0c1.955,0,3.079-0.391,3.079-2.417l0,0v-7.359l0,0
		C88.297,13.856,88.027,13.287,86.782,12.789L86.782,12.789L86.782,12.789L86.782,12.789z"/>
	<path class="st38" d="M74.706,2.545l-4.373-0.604l0,0c-2.773,0-3.257,0.711-3.257,2.951l0,0v16.816l0,0
		c0,2.275,0.697,3.093,3.328,3.093l0,0h4.48l0,0c1.965,0,2.414-0.96,2.414-3.342l0,0V6.065l0,0
		C77.298,3.754,76.732,2.83,74.706,2.545L74.706,2.545L74.706,2.545L74.706,2.545z M73.284,20.89c0,0.426-0.179,0.746-0.57,0.746
		l0,0h-0.971l0,0c-0.518,0.028-0.657-0.226-0.662-0.737l0,0V6.563l0,0c0-0.853,0.178-1.031,0.675-1.031l0,0l0.847,0.036l0,0
		c0.52,0.036,0.693,0.213,0.693,1.209l0,0L73.284,20.89L73.284,20.89L73.284,20.89z"/>
</g>
</svg>
