<svg xmlns="http://www.w3.org/2000/svg" xmlns:xlink="http://www.w3.org/1999/xlink" viewBox="0 0 512 512"><defs><clipPath id="a"><rect width="512" height="512" fill="none"/></clipPath></defs><title>b3_i8</title><rect width="512" height="512" fill="#26c9ff"/><rect x="30" y="30" width="452" height="452" fill="#061e26"/><g clip-path="url(#a)"><path d="M140.86,352V181.6H213.1c33.07,0,54.24,30.4,54.24,56.64,0,30.93-23.51,56.64-53,56.64H174V352ZM174,265.84h38.4c11.62,0,21.36-10.84,21.36-27.6,0-14.4-8.74-27.6-22.8-27.6H174Z" fill="#d9f5ff"/><path d="M334.78,354.4c-29,0-49.68-13.2-56.88-19.44l12-20.16c7.68,5.44,25.35,16.56,44.16,16.56,12.19,0,20.64-5.11,20.64-13.92,0-10.81-17.84-14.32-27.6-17-8.16-2.24-44.88-7.4-44.88-35,0-26.61,23.15-41.52,49.44-41.52,27.59,0,42.32,11.2,49.2,17.28l-13,19.44c-6.4-4.8-20.65-13.92-36.48-13.92-11.67,0-19.2,5-19.2,14.16,0,11.45,20.08,14.72,24.72,15.84,8.64,2.24,48.72,8.36,48.72,37.92,0,34.94-35.2,39.84-50.88,39.84" fill="#d9f5ff"/></g></svg>