<svg version="1.1" id="Capa_1" xmlns="http://www.w3.org/2000/svg" xmlns:xlink="http://www.w3.org/1999/xlink" x="0px" y="0px"
	 viewBox="0 0 512 512" style="enable-background:new 0 0 512 512;" xml:space="preserve">
<style type="text/css">
	.st0{fill:#FFFFFF;}
	.st1{fill:#FF5722;}
	.st2{fill:#FAFAFA;}
</style>
<rect x="246" y="63.3" class="st0" width="254" height="381"/>
<g>
	<path class="st1" d="M373.3,117.4c-5.9,0-10.7,4.8-10.7,10.7v64c0,5.9,4.8,10.7,10.7,10.7h64c5.9,0,10.7-4.8,10.7-10.7
		C448,150.8,414.6,117.4,373.3,117.4z"/>
	<path class="st1" d="M373.3,224c-17.7,0-32-14.3-32-32v-52.2c-40.7,5.8-69.1,43.5-63.3,84.2s43.5,69.1,84.2,63.3
		c32.8-4.7,58.6-30.5,63.3-63.3H373.3z"/>
	<path class="st1" d="M294.7,13c-2.5-2.1-5.9-2.8-9-2.1L8.3,74.9C3.4,76,0,80.4,0,85.4V448c0,5.3,3.8,9.7,9,10.5l277.3,42.7
		c5.8,0.9,11.3-3.1,12.2-8.9c0.1-0.5,0.1-1.1,0.1-1.6V21.4C298.7,18.1,297.2,15,294.7,13z"/>
	<path class="st1" d="M501.3,458.7H288c-5.9,0-10.7-4.8-10.7-10.7s4.8-10.7,10.7-10.7h202.7V74.7H288c-5.9,0-10.7-4.8-10.7-10.7
		s4.8-10.7,10.7-10.7h213.3c5.9,0,10.7,4.8,10.7,10.7v384C512,453.9,507.2,458.7,501.3,458.7z"/>
	<path class="st1" d="M437.3,394.7H288c-5.9,0-10.7-4.8-10.7-10.7s4.8-10.7,10.7-10.7h149.3c5.9,0,10.7,4.8,10.7,10.7
		C448,389.9,443.2,394.7,437.3,394.7z"/>
	<path class="st1" d="M437.3,330.7H288c-5.9,0-10.7-4.8-10.7-10.7s4.8-10.7,10.7-10.7h149.3c5.9,0,10.7,4.8,10.7,10.7
		C448,325.9,443.2,330.7,437.3,330.7z"/>
</g>
<path class="st2" d="M96,352c-5.9,0-10.7-4.8-10.7-10.7V170.7c0-5.9,4.8-10.7,10.7-10.7h42.7c29.5,0,53.3,23.9,53.3,53.3v21.3
	c0,29.5-23.9,53.3-53.3,53.3h-32v53.3C106.7,347.3,101.9,352,96,352z M106.7,266.7h32c17.7,0,32-14.3,32-32v-21.3
	c0-17.7-14.3-32-32-32h-32C106.7,181.4,106.7,266.7,106.7,266.7z"/>
</svg>
