<svg xmlns="http://www.w3.org/2000/svg" viewBox="0 0 99.86 100"><title>b3_i11</title><path d="M49.9,20.34A28.38,28.38,0,0,0,29,29.06a28.34,28.34,0,0,0-8.71,21A28.06,28.06,0,0,0,29,70.87,28.38,28.38,0,0,0,49.9,79.59a28.56,28.56,0,0,0,20.9-8.72A28.25,28.25,0,0,0,79.45,50a28.54,28.54,0,0,0-8.65-21A28.56,28.56,0,0,0,49.9,20.34ZM68.8,68.87a26,26,0,0,1-18.9,7.79,25.54,25.54,0,0,1-18.84-7.79A25.54,25.54,0,0,1,23.2,50a25.51,25.51,0,0,1,7.86-18.91A25.37,25.37,0,0,1,49.9,23.27a25.82,25.82,0,0,1,18.9,7.85A25.65,25.65,0,0,1,76.52,50,25.68,25.68,0,0,1,68.8,68.87ZM49.9,26.26a22.94,22.94,0,0,0-16.84,6.93A22.82,22.82,0,0,0,26.13,50a22.78,22.78,0,0,0,6.93,16.78,23,23,0,0,0,16.84,7,22.71,22.71,0,0,0,16.77-7,22.88,22.88,0,0,0,7-16.78,22.92,22.92,0,0,0-7-16.84A22.71,22.71,0,0,0,49.9,26.26ZM70.67,51a19.78,19.78,0,0,1-6.79,14.45A20.07,20.07,0,0,1,48.83,70.8,20.72,20.72,0,0,1,29.06,48.9,20.11,20.11,0,0,1,36,34.52,20.08,20.08,0,0,1,51,29.19a20,20,0,0,1,14.31,6.86A19.81,19.81,0,0,1,70.67,51ZM82.52,36.25A34.37,34.37,0,0,0,75,24.94a36,36,0,0,0-11.31-7.6A34.78,34.78,0,0,0,49.9,14.55,35.27,35.27,0,0,0,24.8,24.94a34.34,34.34,0,0,0-7.52,11.31A33.38,33.38,0,0,0,14.48,50a33.81,33.81,0,0,0,2.8,13.78A35.3,35.3,0,0,0,49.9,85.45a34.79,34.79,0,0,0,13.78-2.8A36.17,36.17,0,0,0,75,75.06a35.62,35.62,0,0,0,7.53-11.25A34,34,0,0,0,85.38,50,33.59,33.59,0,0,0,82.52,36.25ZM79.85,62.68a32.72,32.72,0,0,1-7,10.32,32.08,32.08,0,0,1-23,9.52A32.8,32.8,0,0,1,37.25,80a33.32,33.32,0,0,1-10.38-7,32.66,32.66,0,0,1-6.93-10.32,33,33,0,0,1,0-25.36A32.54,32.54,0,0,1,26.87,27a33,33,0,0,1,10.38-7A31.55,31.55,0,0,1,49.9,17.48,31.34,31.34,0,0,1,62.54,20a32,32,0,0,1,10.32,7,32.83,32.83,0,0,1,7,10.32,32.22,32.22,0,0,1,0,25.36Z" fill="#1966cc"/><path d="M34.65,58.15a15,15,0,0,0,1.74,2.63V39.16A16.74,16.74,0,0,0,32.61,50,16,16,0,0,0,34.65,58.15Zm5.6,6.21.08.06a17.17,17.17,0,0,0,3.78,1.9V33.63a16.32,16.32,0,0,0-3.86,2ZM48,32.77V67.19h0a8.56,8.56,0,0,0,1.91.14,8.51,8.51,0,0,0,1.92-.14h0V32.78A17.73,17.73,0,0,0,50,32.67C49.31,32.67,48.67,32.71,48,32.77Zm7.78,33.55a16,16,0,0,0,3.78-1.9l.08-.06V35.63a17,17,0,0,0-3.86-2Zm7.73-27.1V60.78a18.27,18.27,0,0,0,1.73-2.56,17,17,0,0,0,2-8.19A16.71,16.71,0,0,0,63.55,39.22Z" fill="#318bff"/><path d="M42.06.62Q39.46,1,37,1.7L39.74,12a38.62,38.62,0,0,1,4-.86Zm-25.15,28L8,22.79Q6.56,25,5.35,27.34l9.48,4.83a40.06,40.06,0,0,1,2.08-3.6M32,3.3a50,50,0,0,0-4.78,2.13L32.1,14.9c1.21-.61,2.46-1.17,3.73-1.66ZM28.49,17,22.7,8.06a49.51,49.51,0,0,0-4.25,3.09l6.71,8.26A39.94,39.94,0,0,1,28.49,17M22.1,22.16,14.52,14.7a50.61,50.61,0,0,0-3.45,3.85l8.29,6.66a39.7,39.7,0,0,1,2.74-3.05m52.6-2.75,6.75-8.22a49.58,49.58,0,0,0-4.32-3.14L71.37,17c1.15.75,2.26,1.56,3.33,2.42m-2.07-14a49.13,49.13,0,0,0-4.74-2.11l-3.84,9.92a39.26,39.26,0,0,1,3.8,1.7Zm7.92,19.83,8.24-6.74c-1.1-1.35-2.27-2.64-3.49-3.87l-7.56,7.49a37.86,37.86,0,0,1,2.81,3.12M85,32.14l9.47-4.87a51.34,51.34,0,0,0-2.6-4.49L83,28.6a37.4,37.4,0,0,1,2,3.54M88,39.78l10.28-2.72a47.22,47.22,0,0,0-1.62-5l-9.93,3.83A40.34,40.34,0,0,1,88,39.78M62.85,1.69A48.66,48.66,0,0,0,57.72.6L56.1,11.12a41.35,41.35,0,0,1,4.07.86ZM52.54.07a50.69,50.69,0,0,0-5.23,0l.56,10.62a40.25,40.25,0,0,1,4.11,0ZM11.92,60.24,1.63,63a51.51,51.51,0,0,0,1.59,4.93l10-3.76a39,39,0,0,1-1.26-3.88m76.89-4.05,10.51,1.64a48,48,0,0,0,.54-5.26L89.24,52a38.24,38.24,0,0,1-.43,4.17m-2.12,7.92,9.93,3.81a47.44,47.44,0,0,0,1.63-5L88,60.2c-.36,1.33-.79,2.63-1.27,3.91M99.32,42.17,88.81,43.82c.2,1.35.36,2.73.43,4.12v0l10.62-.56v0q-.15-2.66-.54-5.22M82.94,71.44l8.93,5.81a50.26,50.26,0,0,0,2.62-4.56L85,67.88a35.81,35.81,0,0,1-2.06,3.56m-5.18,6.4,7.51,7.53a50.09,50.09,0,0,0,3.52-3.91l-8.3-6.66a35.85,35.85,0,0,1-2.73,3M71.42,83l5.75,9q2.2-1.44,4.24-3.08l-6.74-8.25A38.14,38.14,0,0,1,71.42,83M13.17,35.9,3.23,32.11A51.56,51.56,0,0,0,1.63,37L11.91,39.8a39.42,39.42,0,0,1,1.26-3.9m6.14,38.83-8.26,6.72q1.66,2,3.51,3.9l7.56-7.49a42,42,0,0,1-2.81-3.13m-4.46-6.86L5.38,72.73A49.48,49.48,0,0,0,8,77.2l9-5.75a38.3,38.3,0,0,1-2.07-3.58M10.63,52.09,0,52.65a50.61,50.61,0,0,0,.54,5.13l10.51-1.66a37.92,37.92,0,0,1-.42-4M25.17,80.6l-6.73,8.24a51.76,51.76,0,0,0,4.25,3.09L28.53,83a38.82,38.82,0,0,1-3.36-2.43M11.06,43.81.54,42.17A49.49,49.49,0,0,0,0,47.37l10.62.55a39.43,39.43,0,0,1,.44-4.11m53,42.92,3.76,10a50.9,50.9,0,0,0,4.82-2.16l-4.84-9.48a35.79,35.79,0,0,1-3.74,1.67M27.23,94.56A50.4,50.4,0,0,0,32,96.7l3.76-10a38.91,38.91,0,0,1-3.73-1.67Zm20,5.37a51.86,51.86,0,0,0,5.29,0L52,89.31a37.57,37.57,0,0,1-4.11,0Zm8.82-11.05,1.66,10.51a50.69,50.69,0,0,0,5.1-1.07L60.12,88a38.07,38.07,0,0,1-4,.85M37,98.32a51.08,51.08,0,0,0,5.09,1.07l1.69-10.5a40.94,40.94,0,0,1-4-.85Z" fill="#318bff"/></svg>