<svg xmlns="http://www.w3.org/2000/svg" xmlns:xlink="http://www.w3.org/1999/xlink" viewBox="0 0 512 512"><defs><clipPath id="a"><rect width="512" height="512" fill="none"/></clipPath></defs><title>b3_i9</title><rect width="512" height="512" fill="#fe358e"/><rect x="30" y="30" width="452" height="452" fill="#26000f"/><rect x="164.26" y="181.6" width="33.12" height="170.4" fill="#fe358e"/><g clip-path="url(#a)"><path d="M280.42,354.4c-36.92,0-59.76-30.77-59.76-65.28,0-39.12,26.34-65,56.16-65,25.26,0,38.32,17,42.48,24.24V176.8h32.16V315c0,3.36,4.72,9.44,7.44,9.6V352a72.9,72.9,0,0,1-13.68,1.68c-23.22,0-21.12-23.52-21.12-23.52a50.26,50.26,0,0,1-43.68,24.24m8.4-27.36C309,327,318.18,309,319.3,305.92v-30c-1.28-3.52-12.8-24.48-32.4-24.48-21.9,0-32.88,21.73-32.88,38.4,0,18.33,13.48,37.2,34.8,37.2" fill="#fe358e"/></g></svg>