<svg xmlns="http://www.w3.org/2000/svg" xmlns:xlink="http://www.w3.org/1999/xlink" viewBox="0 0 448 512"><defs><clipPath id="a" transform="translate(0 0)"><rect width="448" height="512" fill="none"/></clipPath></defs><title>b3_i4</title><g clip-path="url(#a)"><path d="M96,0A32.09,32.09,0,0,0,64,32V480a32.08,32.08,0,0,0,32,32H416a32.08,32.08,0,0,0,32-32V128L320,0Z" transform="translate(0 0)" fill="#e2e5e7"/><path d="M352,128h96L320,0V96a32.09,32.09,0,0,0,32,32" transform="translate(0 0)" fill="#b0b7bd"/><polygon points="448 224 352 128 448 128 448 224" fill="#cad1d8"/><rect y="240" width="384" height="192" rx="16" fill="#50bee8"/><path d="M85.18,327.84v47.34c0,5.64-4.59,8.84-9.21,8.84-4.1,0-7.67-3.2-7.67-8.84v-72A8.53,8.53,0,0,1,76,294.32c3.71,0,5.89,2.19,8.06,4.61l28.16,38,29.15-39.41c4.24-5.25,14.6-3.2,14.6,5.63v72c0,5.64-3.6,8.84-7.68,8.84-4.6,0-8.2-3.2-8.2-8.84V327.84l-21.23,26.88c-4.59,5.63-10.35,5.63-14.57,0Z" transform="translate(0 0)" fill="#fff"/><path d="M178.29,303.15a8.81,8.81,0,0,1,8.7-8.83h29.55c16.64,0,31.62,11.14,31.62,32.5,0,20.22-15,31.47-31.62,31.47H195.18v16.89c0,5.64-3.58,8.84-8.19,8.84a8.65,8.65,0,0,1-8.7-8.84Zm16.88,7.3V342.3h21.36c8.57,0,15.36-7.55,15.36-15.48,0-9-6.79-16.37-15.36-16.37Z" transform="translate(0 0)" fill="#fff"/><path d="M368,432H64v16H368a16,16,0,0,0,16-16V416a16,16,0,0,1-16,16" transform="translate(0 0)" fill="#cad1d8"/><path d="M321.83,356.31a7.49,7.49,0,0,1-2.52,5.91,8.94,8.94,0,0,1-6.1,2.22h-2.09v11.21q0,4.92-2.1,7.26c-1.4,1.56-3.65,2.34-6.77,2.34s-5.38-.78-6.78-2.34-2.09-4-2.09-7.26V364.44H263.7q-4.56,0-6.59-2.4a7.54,7.54,0,0,1-2-4.87,7.77,7.77,0,0,1,.56-3.26,21.79,21.79,0,0,1,1.17-2.16l27.59-50a14.4,14.4,0,0,1,4.93-5.42A14.56,14.56,0,0,1,297,294.6a16.26,16.26,0,0,1,5.24.86,11.92,11.92,0,0,1,4.49,2.78,14.23,14.23,0,0,1,3.2,4.92,19.07,19.07,0,0,1,1.24,7.21v37.81h2.09a8.94,8.94,0,0,1,6.1,2.22,7.49,7.49,0,0,1,2.52,5.91m-28.45-42.49h-.25l-16.62,34.36h16.87Z" transform="translate(0 0)" fill="#fff"/></g></svg>