<svg xmlns="http://www.w3.org/2000/svg" xmlns:xlink="http://www.w3.org/1999/xlink" viewBox="0 0 560.3 560.3"><defs><clipPath id="a"><circle cx="280.1" cy="280.1" r="256.8" fill="none" stroke="#838383" stroke-miterlimit="10"/></clipPath><clipPath id="b"><path d="M352,249.4l66.8-48.8c5.8-4.8,10.3-3.6,10.3,5.1V354.5c0,9.9-5.5,8.7-10.3,5.1L352,310.9ZM126,206.1v111a45.43,45.43,0,0,0,45.6,45.2H333.4a8.26,8.26,0,0,0,8.3-8.2v-111a45.43,45.43,0,0,0-45.6-45.2H134.3A8.26,8.26,0,0,0,126,206.1Z" fill="#838383" stroke="#838383" stroke-miterlimit="10"/></clipPath></defs><title>del</title><g clip-path="url(#a)"><path d="M10.5,10.5H549.8V549.8H10.5Z" fill="none" stroke="#838383" stroke-miterlimit="10" stroke-width="21"/></g><circle cx="280.1" cy="280.1" r="256.8" fill="none" stroke="#838383" stroke-miterlimit="10"/><circle cx="280.1" cy="280.1" r="256.8" fill="none" stroke="#838383" stroke-miterlimit="10" stroke-width="21"/><path d="M352,249.4l66.8-48.8c5.8-4.8,10.3-3.6,10.3,5.1V354.5c0,9.9-5.5,8.7-10.3,5.1L352,310.9ZM126,206.1v111a45.43,45.43,0,0,0,45.6,45.2H333.4a8.26,8.26,0,0,0,8.3-8.2v-111a45.43,45.43,0,0,0-45.6-45.2H134.3A8.26,8.26,0,0,0,126,206.1Z" fill="#838383"/><g clip-path="url(#b)"><path d="M113.2,185.1H441.9v190H113.2Z" fill="#838383" stroke="#838383" stroke-miterlimit="10"/></g><path d="M352,249.4l66.8-48.8c5.8-4.8,10.3-3.6,10.3,5.1V354.5c0,9.9-5.5,8.7-10.3,5.1L352,310.9ZM126,206.1v111a45.43,45.43,0,0,0,45.6,45.2H333.4a8.26,8.26,0,0,0,8.3-8.2v-111a45.43,45.43,0,0,0-45.6-45.2H134.3A8.26,8.26,0,0,0,126,206.1Z" fill="none" stroke="#838383" stroke-miterlimit="10"/></svg>