<svg xmlns="http://www.w3.org/2000/svg" viewBox="0 0 525.2210693 496.421051">
							<defs></defs>
							<linearGradient id="a" x1="522.2868042" x2="34.2025642" y1="41.1581192" y2="482.2528687" gradientTransform="matrix(1 0 0 -1 0 497.2756042)" gradientUnits="userSpaceOnUse">
							  <stop offset="0" stop-color="#7a5c37"></stop>
							  <stop offset="1" stop-color="#c6bc92"></stop>
							</linearGradient>
							<path fill="url(#a)" d="M516.4850464 172.9934692c.104126-.1697388.1939697-.3583374.2490234-.5869751 5.5553589-23.0761108-3.8563232-48.1223145-26.271759-58.1248169-11.0803223-4.944458-23.0427246-4.821228-34.4235229-.9348755-5.180481 1.769104-11.0127563 5.3470459-17.0266113 8.5253296-.0369263-4.7797241-.0942993-9.6075439-.1956177-14.5413208l-.0480347-2.2756958-.5378418.0111084-.0596313-.4764404-2.2623291.2865601c-4.5472412.576416-9.1680908.2874146-13.6480713-.7523193 13.9448242-5.6470337 27.182373-12.7107544 38.3970337-23.1851196.1187744-.1109619.1624756-.2350464.2503662-.3521118 23.7744751-19.3662148 44.7820435-41.7952919 56.6235046-70.4485474.1794434-.2782593.3771362-.5460815.5546265-.8255615.5106201-.803772.4071045-1.5687261.0269165-2.1759038-.0419922-.0844116-.0825195-.164856-.1375122-.2407837-.036377-.0445557-.0785522-.0806274-.1182251-.1225586-.1529541-.1748047-.3250732-.3249512-.5352173-.4431763-.0396729-.0237427-.0835571-.0355225-.1244507-.0570068-.1785889-.0874023-.3557739-.1678467-.5558472-.2129517-.1882935-.0497437-.3764038-.0576782-.5707397-.0617065-.0759888-.0008545-.1480713-.0107422-.2243652-.005188-.1571045.012146-.3046265.0535889-.4573975.1005249-.6807861.1737671-1.3071899.5966187-1.6288452 1.4016113-.0421143.1054077-.0908203.2064819-.1331177.3117065-13.2437439 20.5458984-31.6089783 37.5297852-52.2499084 51.28302 8.430603-10.9825439 13.5797729-23.9083862 17.5822754-37.7297974.5100708-1.7612305-1.7086792-2.9119873-2.9764404-1.732666-6.9963379 6.5080566-14.0720215 12.9300518-21.2810669 19.2025127-4.1672974 3.6259766-8.6400146 7.1207886-12.848938 10.8511353 4.6832886-8.567627 7.6514893-18.0675011 7.4597168-26.2036705.0608521-.2857666.050415-.5596924-.0248413-.8115234-.0029907-.0595703-.0021362-.1208496-.0054932-.1802979-.0265503-.4709473-.3362427-.7322388-.6821289-.7753906-.8128052-.6101685-2.0753784-.6581421-2.7576294.4672241-9.4083252 15.518856-24.4869385 22.0398521-38.7359619 31.4873619.5419312-3.7328491 1.4589844-6.9207153 2.7949829-10.7876587 1.3151855-3.8068848 3.2471924-7.4575806 3.7580566-11.4760094.0358276-.2823486-.2679443-.4326782-.5107422-.3759155-.1766357-.1400757-.411438-.211853-.7011719-.1314087-7.3474121 2.0399742-15.2589722 6.7012901-22.3322144 12.6302452l.1291504-.4646606-3.0545044-.4561157c-83.0678101-12.4138145-163.1020508-12.5751915-232.6585693-.6235352.9692383-1.0541992 1.9696045-2.0824585 3.0327759-3.0550537 5.7625732-5.2716675 12.1030273-8.018734 19.0570679-10.1397057 2.1169434-.4451904 4.2293701-.9207153 6.3291626-1.482605.2877197-.0770264.4557495-.2504272.5421753-.4537964.1587524-.09552.1882324-.3010254.0609741-.4157104-.0475464-.3942871-.3495483-.7757568-.831604-.8181763-20.3362427-1.7901611-42.8549194 8.7134972-60.0308228 18.5876427-.1621704.0932007-.2948608.2010498-.4129639.3152466h-.0379639c-.0189819.0271606-.0349731.0716553-.0534058.1018677-.3116455.3500366-.4544678.767395-.4487915 1.1905518-.6575928 2.5819702-.7799683 7.6626587-.5336304 10.9939575-1.9346924-.7509155-3.9247437-1.4663696-5.96698-1.3471069-.1694336-.0394897-.3484497-.0290527-.5203247.0310059-.0126953.0016479-.0251465.0004883-.0378418.0022583-.0444946.0061035-.0804443.02771-.1121216.0540771-.0032959.0018311-.0068359.0029907-.0100708.0048828-.001709.0015259-.003479.0025024-.0050659.0040894-.1693726.0979614-.3127441.2501831-.392395.4585571-2.520874 10.6596069-3.8563232 19.3828735-3.1255493 31.3550415-2.7757568-9.5330811-5.2020264-18.8026123-5.6835327-29.170414-.5357666-11.5346069.2507935-21.4502563 2.8719482-33.5459595.328125-.8522339.6373291-1.7116699.9168091-2.5827026.1255493-.3913574-.3817139-.6341553-.6564941-.3821411-9.5876465 8.7927856-13.3078613 25.4588566-14.9836426 37.796814-1.9978638 14.7093544-1.1315308 29.7846107 1.6842651 44.3657875-6.1429443-10.5648193-10.9677734-21.7106323-14.0762329-33.664978-3.9182739-15.0686073-5.2393188-33.9918861-5.2393188-46.5646362l-.722168.4505615c-.0620728.0210571-.1218872.0529175-.1722412.1115723-12.2753905 14.2900986-15.2790526 37.8242782-13.6682128 55.9390892 1.1229858 12.6286621 4.7935791 26.9310913 11.5006714 38.7529907-4.5453491-4.0119629-9.1585693-8.1212158-12.3386841-10.7614136-5.4579468-4.53125-10.1134644-10.1490479-15.8579102-14.2855835-.0906372-.0652466-.1781006-.0736694-.2558594-.0512695-.2990112-.0599365-.6187744.0482178-.6749268.4315186-2.5718994 17.5651245 12.2359009 41.2630615 27.1553345 51.7735596-8.670166-.1958008-17.2682495-1.003418-25.8443604-2.468689-.5322876-.0909424-.9886475.0435181-1.3419189.3016968-1.0670166-.117981-2.2930908.7371216-1.947998 2.1030884 6.0510864 23.9499512 23.9610596 42.0186768 47.4593506 48.2324829-6.357666 1.4061279-12.7363892 2.7078247-19.1387329 3.902832-.0809326.0150757-.1490479.041748-.2213745.0646362-.9349365.1253052-1.7770996.9135742-1.4179077 2.074646 4.217041 13.6322021 14.0792847 23.7176514 26.2091675 29.8886108 1.1356201 8.1046143 2.4329224 15.9175415 3.9033203 23.4380493-33.3344116 7.5829468-61.3737793 30.3344727-74.5003052 62.2368774-12.9453125 31.4619751-9.6474609 70.729126 2.5534668 102.5407104-6.4550171-5.1437378-11.4835815-11.7953491-14.6239624-19.5761108-.9546509-2.3652954-4.6661382-1.5271606-4.2329106.7073364.0019531.0481567-.005127.0905762-.0001831.140564 4.5037236 45.7843628 37.1863403 84.0864258 83.9280396 89.4168091 1.7446899.1989746 2.3549194-1.4819336 1.8605347-2.7954712-.0648804-.2929077-.2442627-.5836182-.5530396-.8536987-.0635376-.0618286-.1326294-.1177368-.2045288-.1721191-.003479-.0024414-.0055542-.005188-.0090942-.0076294-21.2145386-14.7985229-36.8594971-36.9564819-40.9089966-62.5061035-3.5033569-32.6574707 9.215332-62.6224365 28.1693115-88.6600952 7.9065552-10.8615723 17.4522095-20.9127808 20.9555664-34.2098999 2.0057373-7.6130981 2.4615479-15.4511108 2.7978516-23.3087158 3.4512939 13.053894 7.5199585 25.1630859 12.2233276 36.4429932-16.6347046 23.0803833-39.1335449 42.9056396-43.967041 71.9949341-5.175293 31.1463013 6.616272 63.9827881 29.8869019 85.0831299.3733521.338501.7804565.510498 1.1834717.5580444.3086548.1925659.6921387.305603 1.1630249.2825928 5.0006714-.2446899 10.0449219-1.3347778 13.855896-4.7305908.5513306-.2443848.9588623-.7288208 1.0028687-1.4608154.0449219-.2706299.0270996-.5411377-.0441895-.7990723-1.788269-17.2384033-3.0407104-34.8050537 2.357605-51.5735474 4.8408813-15.0372314 13.0100098-28.1813965 11.7156372-44.5133667-.1257324-1.5869751-1.7189941-2.6838379-3.2056885-1.8395386-4.0426025 2.2959595-7.4639282 4.4692993-10.7042847 7.0620117 3.5335083-12.2037354 5.8374634-24.6557007 7.7693481-37.1873169 1.2724609 2.3030396 2.5657959 4.5823364 3.9061279 6.8096313 4.6368408 7.7057495 9.6254883 14.8341064 14.9137573 21.5597534.6985474 6.425354 1.5596313 12.6957397 2.2432251 18.5612793 4.2346191 36.3355713-1.4169922 92.0241089-48.46698 95.7523193-.0235596.0018921-.0422974.0083618-.0653687.0107422-.2843018.0169067-.5447998.0859375-.7769165.2017212-.0432129.0202637-.0797729.0452271-.1199341.0678711-.0629883.0369873-.12677.0719604-.1850586.1151123-.0480957.0355225-.0897217.074585-.1322632.1136475-1.1573486 1.0147705-1.2030029 3.2316895.7161255 3.6533813 31.1861572 6.8529663 63.4345703-8.0406494 76.3337402-37.7786865 6.2927246-14.5073853 6.6461792-30.4465942 4.2360229-45.8510742 2.8815308 2.463623 5.8256226 4.8860474 8.8285522 7.2774048 5.5023193 29.7525024-1.5839233 60.4788818-24.0759888 82.5992432-.5587769.5495605-.7160645 1.0975342-.6231689 1.5597534-.006958 1.3613281 1.5531616 2.8654175 3.2683716 2.1328125 27.2391968-11.6342773 50.8981323-30.8652344 57.7422485-60.190918 9.6769409 6.4650879 19.7642822 12.9839478 30.34552 19.7935181l7.4185181 4.7753906 1.0525513.6775513 1.0498047-.6784058 5.7800903-3.7228394c25.8986206-16.6781616 49.1635132-31.6706543 69.6386719-48.2007446-5.1112671 13.5936279-12.0227661 27.1295776-26.4595947 32.4721069-1.7695923.6548462-1.9547729 3.2023315 0 3.7874756 12.3894043 3.7088623 25.8646851 2.4393311 37.0234985-3.6090088-1.06073 3.7108765-.9898682 7.770752-.3318481 11.9554443 1.7770386 11.3007202 6.3673096 38.0929565-14.3025513 34.9526367-.5054321-.0767822-.9477539.026123-1.3173828.2323608-1.7261353.2434692-2.2236328 3.1764526-.1608887 3.8814697 18.4197998 6.2947388 39.2199097 1.6110229 51.2730103-14.2454834 10.3831787-13.65979 10.7938843-31.6304321 2.1240234-45.7883911 11.2830811 4.041626 24.1522217 3.1704102 34.6416626-3.1981201 15.1429443-9.1938477 24.868042-28.1556396 20.4536133-45.7803345-3.2335205-12.9099731-13.732666-22.364563-26.0210571-23.757019-1.7369995-7.8775635-2.4190063-18.4771118 1.6700439-26.0048218 2.1595459 5.8479614 5.7145996 11.2984619 10.1859741 15.8917236.0797729.0819702.1635742.1442261.2470093.2080078 1.3183594 3.9557495 3.4234009 7.7166748 6.5110474 11.1159058 7.3867798 8.1321411 19.2596436 10.539978 28.6005249 6.0198975 3.9676514-1.4196777 7.3549194-4.8328247 9.5568848-8.9100952 4.9918213-9.243042 3.5021362-19.6593628-.2683105-28.9783325 4.1247559-3.3536987 8.0058594-6.2644043 10.5355835-8.4835815 10.2686157-9.0078735 19.2487183-19.5394287 21.866333-33.3308716 4.4193115-23.2839966-9.1506348-45.2557373-30.3244019-53.1002808 11.2122192-2.2229614 21.8035889-6.9298096 30.4072266-14.5149536 12.3299871-10.8702392 14.9862371-27.7838744 10.5844427-42.8499145zm-85.2674866-62.3605346c.7244873 0 1.4498901-.0205078 2.1957397-.0622559.0849609 4.7590942.1242065 9.4014282.1446533 13.9959106-2.6110229 1.175354-5.2288818 2.1467285-7.8182983 2.7539063.0567017-2.109436.109314-4.1888428.1547852-6.2074585l.0338135-1.5308838-1.5014648-.2959595c-8.1942139-1.6173706-15.6550293-4.3378906-22.1627197-7.9341431 3.979248-1.3197021 7.9495239-2.678772 11.8862305-4.116333 5.4542845 2.1912843 11.2590941 3.3973389 17.0672606 3.3972169zm70.3005982-79.8156128c-11.6755371 17.850399-27.1689453 33.0005493-43.8430176 46.572998-.116333.0776367-.2387695.1116333-.3502197.2156372-.3302612.3084717-.6758423.5906982-1.0097046.8928833-.2495117.2011108-.4953613.4071045-.7453613.6075439-.0740356.0592651-.0957031.1293335-.1582642.1914063-18.5263062 16.3172607-42.374939 23.6036377-65.4746094 31.1239624-10.2485352 3.3364258-20.5202637 6.4779663-29.1133423 13.2287598-11.4155273 8.9679565-20.8267212 17.6467285-34.6513062 23.1315918-1.6846924.668457-1.7165527 2.902832-1.7611084 3.0942383-6.088562 26.1442261-18.7307129 49.8529053-37.0076904 69.4157715-.7450562-4.2600098-1.7250977-8.4987793-2.9661865-12.6689453.4639893-.1460571.9005127-.4379883 1.2443237-.9243164 12.7786865-18.0749512 21.8874512-38.175293 27.1439819-59.6483765 9.8977661-19.2963867 28.7974243-29.151123 45.7598877-37.1386719 21.5403442-10.1434326 44.9208984-14.9755249 66.6616821-24.6652222 27.6833497-12.3381958 55.3155519-30.4020424 76.2709352-53.4292602zM278.3070374 252.2490234c.1201172.3776855.2387695.7982788.355835 1.2540894-.0290527.0611572-.0615845.117981-.0848389.1859741-4.1428223 12.1166382-11.9143677 22.2496338-22.543457 29.3900146-.0778198.0522461-.1416016.111084-.2056274.1697388-1.6348877-.2616577-3.4485474 1.3635864-2.2528687 3.0614624 3.9307861 5.5817261 5.7174683 12.0974731 4.7858887 18.9030762-.0018921.0136719.0001221.0259399-.0015259.0395508-3.7792358 3.5582275-5.6606445 8.6190186-6.2572632 13.8754883-.8230591-2.0186768-1.5990601-4.0581055-2.2905884-6.1382446-.8608398-2.5894165-4.9771729-1.4797363-4.1086426 1.1326904 1.6091309 4.8403931 3.5759277 9.5294189 5.8605957 14.0812988-1.2363281.7609253-2.5693359 1.5802612-3.9261475 2.4584351-.3241577-4.5930176-1.4667969-9.0128784-3.3856812-13.2746582-1.1239014-2.4962158-4.796936-.3321533-3.6791382 2.1505127 1.1120605 2.4697876 1.883606 5.0162354 2.3552856 7.6223145-17.5349731-.5478516-29.1047363-17.3619385-22.7630615-33.8449707 13.8595581-2.550354 27.1306152-12.6542358 26.7994995-27.8864136-.0050659-.229187-6.5348511 12.421936-12.0708618 16.9648438-6.6015625 5.4171143-15.1784058 7.2423706-23.4769287 6.6442261-1.6133423-.0767212-5.4927979.0792847-5.8930054.1663818-.2581787-1.0731812-.5483398-2.1125488-.8741455-3.0944214-.0570068-.1717529-.1410522-.312439-.2419434-.4274292 1.3015747-4.5864868 1.9060059-10.0532227-1.3399048-13.0668335-.274353-.2546997-.5501099-.473999-.8260498-.6680298-.6692505-6.8955688-3.1616211-18.574707-12.336792-16.1957397-3.5048218.9087524-5.9708862 4.0671997-7.043457 7.4090576-.8189697-.897522-1.8105469-1.684082-2.9954834-2.3061523-2.7978516-1.4688721-7.4068604.1233521-9.446167 2.5221558-2.4133911 2.8388672-1.2164917 5.9241333.0369263 8.9766235 1.0776367 2.6242676 1.2505493 5.6846924 2.0145874 8.4591064-3.6201172-2.5126343-8.2051392-5.0476074-11.699707-4.6904297-1.4439697-8.8998413-2.6218262-16.9970093 1.1904907-25.7248535 2.9405518-6.7319946 7.8447266-11.9467773 14.0128784-15.7269897-.7167358 4.7565308-.7559204 9.6779175-.0557251 14.6459351.0229492.1627197.0696411.2998657.1258545.4256592.4611206 2.5494995 1.6016846 6.1938477 1.8978882 5.4807129.2561035-.6165771.2490845-1.2741699.7244263-4.4069214 2.225647-10.1118774 7.5056152-18.770813 15.4502563-25.4020996 1.5541382-1.2971802-.6789551-3.5097046-2.2218628-2.2219238-5.9831543 4.9940796-10.4265137 9.9908447-13.3226318 16.3339233.7272949-13.3108521 7.2112427-25.7849731 18.015564-34.0674438.1159668-.8141479 20.9035645-12.7591553 18.8577271-23.5272217-.8112183-4.2699585-3.4324951-6.3986816-6.6608887-7.1526489 2.5600586-2.1452637 4.7907104-4.854187 6.5765381-8.0927124 1.0178223-1.8458862-1.6723022-3.5185547-2.6884155-1.6757813-4.8770142 8.8443604-13.5952148 13.5020752-23.2072754 12.111084-.4866943-.0704346-.9044189.074585-1.2276611.3358765-.1126709.0377808-.2254028.0750732-.3392334.1295776-4.880127 2.3362427-8.1508179 6.4439697-10.0742188 10.5582886-1.5964355-5.6044922-1.000061-11.81073 4.9387207-14.7243042.4094849-.2009277.62677-.4963379.7453613-.815918-.052063-.1192627-.1061401-.2388916-.1538086-.3602295-.0244141-.0435181-.0568848-.0775146-.0742188-.1298828-.1900024-.5734863-.4226685-1.0997314-.699707-1.6203613-.0184937-.0095215-.0392456-.0140381-.0580444-.0229492-6.2752686-17.5890503 3.9158936-31.5275269 18.2767334-41.0648804 7.3230591-4.8634033 14.3924561-9.5532227 18.4038696-17.1149902 1.0928955 4.9335327 1.4677734 9.7303467.0889893 14.9395752-.0514526.194458-.0611572.3746338-.0531006.5473022-1.0758057 1.4090576.4735718 3.7828979 2.0814819 2.5767212 5.164917-3.8743896 9.6317749-8.3795166 13.4122925-13.5401611 1.1713867 5.1141357 1.0159912 10.2698975-.5367432 15.4388428-.0474243.157959-.0665283.3065186-.0726318.4501343-.0627441.7271118.286377 1.4750977 1.1965942 1.722168 16.9243774 4.5939331 27.9921875 18.5439453 28.8183594 35.7609253-2.9421387-3.1430054-6.1499023-6.079895-9.6676636-8.7390747-1.6132202-1.2194824-3.1807251 1.5076904-1.5859985 2.7132568 29.4790649 22.2842407 35.5994263 59.6876221 30.8842163 94.2658081-1.7420044-8.4113159-5.6844482-16.6665039-12.0543823-21.6223145-.0411987-.0321655-.1288452-.0046387-.102478.0596924 2.1252442 5.1944577 4.9814453 10.0027463 6.6931153 15.3844601zm-11.3844605 62.7062378c-.1796875 1.6038818-.6916504 2.4503784-1.8666382 3.6743164-.8424072.8775024-1.7937622 1.4818726-2.4098511 2.5939331-1.3015747 2.3493042-1.1623535 4.9094238-.1751709 7.2907104-.5483398 1.8980713 2.5544434 3.3961792 4.0228882 1.4684448 5.9507446-7.8118896 22.6213379-18.3330078 24.8917236-3.8183594-8.210144-3.7341309-18.3851318-3.0365601-23.180542 5.5947876-1.1027222 1.0388184-.5651245 3.1248779.8834229 3.5864258.6000366.256958 1.2799683.2565918 1.8330688-.1207275 3.0759888-.68573 6.0979004-.6732178 9.1273193.0164795.1043701.0308228.2067261.0634766.3258057.0806274.0768433.0110474.1408691.0352173.2164307.0476074.4070435.1033936.8141479.2124023 1.2218018.3399658.1734619.0542603.3393555.0842896.4990234.0977783 5.7664795 2.0036621 6.6036987 8.5797729 3.3512573 13.1444092-.1461182-.6934814-.3487549-1.3759766-.6495972-2.0371094-.690918-1.5183105-4.5874634-5.329895-2.845459-7.1551514 1.8932495-1.9836426-1.1150513-5.0012817-3.0128784-3.0128784-1.1133423 1.1665039-1.6712036 2.5405273-1.7142944 4.0133667-1.8685913-.0411377-3.2855835-1.1829834-4.7494507-2.2504272-.5855103-.4269409-1.5585327-.369873-2.1505127 0-2.536499 1.5848999-7.815979 3.7700806-11.5264893 2.7368774 1.3289185-.2694092 2.673645-.4381714 3.9136353-.6113892 2.7041626-.3777466 1.5534058-4.4838867-1.1326904-4.1086426-2.3963623.3347168-5.2174683.8289795-7.7268677 1.8459473-.4780273.0667114-.9313965.2714233-1.2827759.5776978-2.2073364 1.1265259-4.0317993 2.7641602-4.8746338 5.2179565-1.4187012 4.1303711 1.3865967 7.2307739 4.8665771 8.96875-6.8208618 2.8757324-16.888855.7061157-13.086792-8.9418335 2.3255005-5.901123 8.8756714-9.255188 14.2210083-12.4483643 1.3328857.2862549 3.0770264-.8139648 2.7409668-2.6187134-1.2033691-6.4627075-.7887573-14.3231812 3.6224365-19.5941162 3.5700073-4.2658081 10.5200806-6.3915405 15.171936-3.3534546-3.9779053.1900024-7.6332397 1.8696289-8.4298706 6.5436401-.1292723.7584842-.0115965 1.4888919-.0947874 2.2314456zm-79.1270142-2.0532226c-.3261719-.0162964-.7042236-.0355225-1.1105957-.0514526-.0984497-1.9933472.0862427-4.2163086 1.1703491-5.8916626 1.8670654-2.8853149 5.0554199-2.8561401 8.0864868-2.3172607 1.4830933.2636108 2.1195679-2.0070801.6265259-2.272522-3.4179077-.607666-7.0094604-.6812744-9.5901489 1.9477539-.0488892-.00177-.0951538-.0074463-.1477051-.003479-4.5164795.3424072-8.7337036-.8512573-12.2737427-3.4295654 1.8772583.2703247 3.793396.2634277 5.3028564-.3499756.9267578-.3766479 1.5097656-1.0266724 1.5640869-2.0543213.3843384-7.2745361-4.8603516-11.7337646-11.7800293-12.3432007-2.730835-.2405396-2.7146606 4.0217285 0 4.2608643 4.1696777.3671875 7.0218506 2.6149292 7.4694824 6.442749-4.5530396.6307983-9.9538574-3.0216675-12.6206055-5.9942627-.5862427-.6534424-1.2909546-.7862549-1.9203491-.6027222-1.8070679-1.8961182-3.4620972-4.15448-4.0960083-6.5866699-.2750854-1.055481-.3615112-2.210022.1699219-3.2078247 1.4234619-2.6725464 4.6518555-1.925293 6.8706665-.8604736 3.5713501 1.7138672 6.8808594 3.9191284 9.9324951 6.4359131 1.161438.9578857 2.8378906-.7002563 1.6664429-1.6663818-.1913452-.1578369-.4074097-.3341675-.6343994-.5181274-.0471802-.1477661-.125061-.2938843-.2431641-.432251-2.3080444-2.7047729-1.8366699-7.3501587-3.0334473-10.6315918-.9912109-2.7179565-4.572998-7.5251465 1.3406372-9.3547363 4.0483398-1.2525024 6.0982056.9526367 7.7184448 3.2475586-.0365601 1.7457886.3235474 3.3905029.9659424 4.9841919-3.8156738.5892944-5.8145752 5.2688599-4.8789063 9.4838257.5939941 2.6757202 4.7026978 1.543335 4.1086426-1.1326904-.3856812-1.7374878-.2196655-4.548584 2.3665771-4.0233154 2.5065918.5090942 2.9343262 4.1598511 3.0714722 6.09198.1370239 1.9308472.2649536 3.8852539.2755737 5.8344727-1.1207886-1.161499-2.2442627-2.4526367-3.0195923-3.4043579-1.732605-2.1268311-4.7312012.9035034-3.0128784 3.0128174 1.821106 2.2354736 4.3037109 5.2036133 6.8513184 6.6743164 1.5335083.8852539 3.0097656-.2913818 3.2056885-1.8395386.5096436-4.0275269.3873901-8.6079712-.2601929-12.6236572-.3404541-2.1108398-1.1325684-4.1425171-2.5303955-5.6663208-.0496216-.1052246-.0987549-.2105713-.1702881-.3168945-1.4059448-2.090271-2.873291-4.2678833-2.7700806-6.8966675.1066895-2.7160645 1.6708984-6.3031616 4.5839233-6.8917847 5.1503296-1.0406494 6.4351807 6.5200195 6.8718872 11.1569824-2.5598145.7643433-4.5181885 3.6852417-4.6571655 6.8591919-.1199951 2.7415771 4.1411133 2.7357788 4.2608643 0-.0322876-.7842407.1484375-1.5158691.5421753-2.1948853 1.7429199-.5725098 2.7394409-.0443115 2.9894409 1.5846558.3444824 1.4036255-.0852051 2.9025269-.374939 4.2709961-.2060547.9729004-.4047852 1.9404297-.618103 2.902832-.4768066-.8173828-.9373169-1.6437378-1.333374-2.5040894-1.1452637-2.4879761-4.8189697-.3256836-3.6790771 2.1505737 1.0541382 2.289978 2.4476318 5.1532593 4.236084 6.9782715 1.2202148 1.2450562 2.9904785.4882202 3.560791-.9401245.0971069-.2432251.1974487-.5031128.2979126-.7658081 1.4502563 5.9537964 1.9764404 14.0250854-.2426758 19.2822876-1.0686035 2.5314331-3.4369507 4.8567505-5.7111206 6.8103638-.4937134-.171814-1.0679321-.1217041-1.6523438.2910767-2.0484009 1.4469604-4.3731689 1.5408936-6.8086548 1.3878174-.2755127-.017334-.5494995-.0397949-.8223877-.067688 2.6197513.0080563 2.5786136-4.1207889-.1143186-4.2551883zM157.1867371 57.520565c57.8109741-13.4456177 140.8187256-10.6351318 203.0285645-3.1330566-5.0151367 3.9996948-9.7884521 9.7100868-13.2828369 13.943119-3.1347656 3.7974243-5.7897949 7.8430786-7.8965454 12.1920776-.1867065-4.6188354-.5618896-9.2280273-1.1381226-13.8440552-.1251221-1.0021362-1.0006714-2.0587769-2.1574097-1.6434937-14.3729248 5.1599121-21.7603149 21.1536255-24.4453125 35.578186-2.6744385-3.9871216-6.0481567-7.5603027-10.1196289-10.6697998-.7503052-.572998-1.8880005-.0897217-2.3318481.6114502-14.2172852 22.4592896-29.0197754 51.0285034-17.2680054 77.7641602-1.032959-.137085-2.0679321-.1347046-3.0964966.0847168-4.921814 1.0501099-5.3713379 8.2288208-5.0716553 13.7518921-1.8458862-2.8948364-3.8726196-5.6766357-6.0723267-8.3344727.15802-.2423706.2611694-.5383301.2665405-.8997803.2890625-19.3661499-11.4091187-35.5873413-29.7184448-41.2971191 1.6086426-6.3892822 1.3518066-12.9211426-.8445435-19.1933594-.4888306-1.395874-2.2929077-1.6767578-3.1151123-.4071045-2.9893188 4.616272-6.5283203 8.7409058-10.6084595 12.3502808.788269-6.0532227-.3543091-11.8206787-2.0849609-17.8773804-.4678955-1.6375732-2.802002-1.6031494-3.2868652 0-4.9300537 16.2987671-24.3519897 20.0542603-33.8466797 32.9481812-6.9771729 9.4751587-8.7496338 21.092041-4.8013306 32.0616455-7.0992432 4.842041-6.5140991 14.4484253-3.1600952 21.756958.581665 1.2677002 1.8908081 2.0754395 3.0938721 1.5334473 1.2427368-.4437866 1.4615479-1.649292 1.7247314-2.5187378 1.2516479-4.1347046 4.057251-9.3087158 9.1455078-11.7974243 5.5899048.5167847 10.8999023-.6682739 15.4551392-3.3999023 1.7597656.1686401 3.4263306.8999023 4.887146 2.4342041 3.5938721 3.774353 1.5002441 8.244812-1.6593628 11.6854248-3.7105713 4.0404663-13.0205688 10.9508057-13.1698608 11.0614014-4.0762329 3.0178833-7.586731 6.5411987-10.4885254 10.4395142-.159668-.2727661-.3636475-.5335083-.6283569-.7666016-29.7644043-26.2095337-38.3742676-65.8239746-44.4852905-103.2854004-.0379028-.2324829-.1074829-.4304199-.1903076-.6125488-.1477051-1.1984253-.2849121-2.3973389-.4130249-3.5965576 1.4976196-1.4581299 2.9390869-2.9607544 4.2648315-4.5484009 10.1697998-12.1798706 15.0475464-27.5332031 13.5150757-42.3714638zM281.231781 172.8730469c5.1233521.484375 9.8444824 5.9018555 13.5383301 9.0717773-3.5013428 6.6885376-7.4952393 13.199707-11.967041 19.6552124-1.5562744-4.4100952-3.4107666-8.7155762-5.5807495-12.8578491.5759277-.3065186.9662476-.8968506.8699951-1.784668-.3609619-3.3301391-1.8963013-14.5606079 3.1394653-14.0844726zm109.7965698-124.89777c5.9810791-5.6871338 12.7791138-9.5025635 19.5324097-13.8840332-4.2988281 6.2354126-6.5209961 15.1123047-7.4115601 22.300293-11.0269165 7.9362831-20.359314 19.9088173-24.6138306 32.8568153-.0661011.2011719.204895.274231.3140869.1324463 5.2149658-6.7733765 9.4286499-14.2399292 15.1809692-20.6050415 6.1989136-6.8593178 13.5599976-11.6533241 21.5907593-16.0938759 10.992981-6.0784302 21.5717773-12.7839355 29.2966309-22.5605431-1.8661499 5.7067223-3.6260376 11.393856-6.6725464 16.8055382-4.4442139 7.8945313-10.6879272 13.7696533-16.3359985 20.670536-1.1629639 1.4208984.3271484 3.9036865 2.1121826 2.7374268 4.8563232-3.1729126 9.5767212-8.0879555 13.6030273-13.8374672 13.2139893-7.4014893 25.1760254-19.1986694 36.1744995-29.8352013-4.8049316 15.5869713-13.0246582 29.247982-25.1619873 40.2993164-.0361328.0328979-.0593872.0682983-.0921021.1018677-14.4465332 8.3886719-29.65979 15.3492432-44.7796021 20.9656982-31.0341797 11.5280151-74.9029541 22.4898071-93.6698608 52.9382935-.6387939 1.0108032-1.182312 2.5587158-1.4035645 3.5089722-2.7896729 11.9862671-6.7781982 23.0127563-11.940979 33.552063-3.1497803-2.8026733-7.2202148-6.7103882-11.5288086-8.640686-12.5010986-25.4382935 1.9750977-53.8079224 15.527771-75.4624023 7.9312134 6.5593872 12.8311768 15.4659424 14.1395874 25.7550049.2730103 2.1466064 3.6851196 2.1738281 3.4086914 0-.663208-5.215332-2.1115112-10.0404053-4.3076782-14.4423218.0002441-.0018921.0009766-.00354.0012207-.0054321 1.59375-13.1276855 7.7641602-30.15271 20.7756958-36.131897.8695068 7.8981323 1.1738281 15.7832031.90448 23.7405396-.0742798 2.1939697 3.3344727 2.1912231 3.4086304 0 .0391846-1.1577148.0646362-2.3136597.079834-3.4685059.0646362-.1132813.1210327-.2372437.1641846-.3764648 2.87146-9.2600708 8.3231201-16.9679565 15.0849609-23.8311768 2.5552368-2.5935707 6.0808105-7.1666298 9.4031982-8.6564369 5.848999-2.6228638 6.3688354 9.2428017 6.4265137 13.0769081.0078125.5195313.2089233.9120483.5053711 1.18573.6709595.9438477 1.8597412 1.5375366 2.3988647.7694092 5.2507326-7.480774 11.1742556-17.1844521 17.8849489-23.5653726zm-7.6043701-.4071044c-.1903687.8982544-.343811 1.8025513-.4769897 2.7098999-3.8844604 4.111084-7.2578125 8.520813-9.7901001 12.9188843-.2601929-1.7766724-.6488647-3.569519-1.2092285-5.265564-.1334839-1.4005127-.2518311-2.8183594-.3355103-4.2765503l-.0861206-1.5022583-1.4926147-.197876c-.5148315-.0682373-1.053894-.1390381-1.6102295-.2114258-.208252-.2120361-.4165649-.4240112-.6411743-.6172485-.628418-.5406494-1.3276978-.6069336-2.0653687-.2664795-.2820435.130188-.5648804.2827148-.8475952.4302368-36.3933105-4.5581055-136.8175049-14.5038452-210.1066284 3.0620117l-1.6010742.383667.2213745 1.6316528c1.9442139 14.3305702-2.614502 29.3444252-12.5059814 41.191288-.6094971.7299805-1.2573242 1.432312-1.9135132 2.1286011-.3521118-4.3920898-.5150146-8.7825928-.4098511-13.1599731 4.9232178-8.9638672 7.1113892-19.357605 6.3029175-29.755619 1.317627-2.907959 2.866394-5.6982422 4.6325073-8.3443604 69.508728-12.7612915 150.1759643-13.0926514 233.9351806-.8588867zM72.2750549 201.0790405c7.9679565-1.5064697 15.901123-3.1705322 23.8007813-5.0044556 1.3052368-.3029785 1.4713135-1.6461182.9182739-2.5335083-.0025024-.6556396-.3682251-1.2651367-1.225769-1.4161987-24.4663086-4.3103638-43.4486694-21.3596802-50.2327271-45.0941772 9.9007568 1.612793 19.8374634 2.4342651 29.8815308 2.4103394 1.822937-.0043335 2.1281128-2.3544312.9191284-3.1466064-.0438232-.0559692-.0880127-.1119385-.1436768-.1651001-7.6455078-7.302063-15.0369873-13.7104492-20.5203247-22.9951172-4.883606-8.269104-7.5606079-17.223999-9.9285889-25.8041382 3.4960938 5.706604 8.9627686 10.527832 13.9423218 14.7151489 5.0566406 4.2520142 22.2096558 19.1291504 22.7836304 19.6940308 1.2641602 1.2441406 3.3790283-.3461304 2.4675293-1.9039307-4.7167969-8.0610962-10.026123-15.3301392-13.5428467-24.1011353-3.4381714-8.5748291-5.6246338-17.6858521-6.3903198-26.8933105-.7666626-9.2199097-.1281128-18.5745888 1.8428345-27.609745 1.6090698-7.3756104 4.5245972-14.1855469 7.0504761-21.1928062-1.9190063 12.9206505.6430664 27.5884972 3.5522461 39.7918091 3.6828003 15.4481201 10.2508545 30.3114014 19.4035034 43.2978516.8809204 1.249939 2.5796509.8244629 3.1154175-.1843872.0180054-.0202637.0393066-.0345459.0557251-.0576782.0331421-.0466919.0518799-.1373901.0629272-.2502441.0593262-.2260742.0575562-.4715576-.012146-.7280884-.0650635-.8209839-.2497559-1.8883667-.3063354-2.2130737-2.7453003-15.7582397-4.9170532-31.5388184-3.1918945-47.5446205.7509155-6.9667358 2.2123413-13.8800659 4.3897095-20.5427246.8693237-2.6600952 1.9889526-5.213501 3.1568604-7.7427979-5.4443359 22.0220947.2445068 51.0963783 9.5105591 68.4550781 1.3590088 3.1430054 3.0075073 7.5609131 3.3868408 8.793396.1378784-.2228394-2.4770508-18.6876221-2.6901855-27.8085327-.2011108-8.6107178 1.1072388-17.0483398 1.4346924-25.6030312 2.651001 1.5750732 3.8933716 2.0516968 6.2116089 3.0306396.7443848.3143311 1.3909302.1723022 1.8477783-.1848145.2524414-.126709.4522095-.3543091.5455933-.6993408.0004883-.001709.0006714-.0036011.0011597-.0053101.0943604-.2171631.1444092-.4502563.1468506-.68396.4899902-2.5036011.1897583-5.5238647.2715454-7.9961548.0407104-1.230957.1784668-2.4807739.1707153-3.7080688 9.1444092-5.5019531 18.7421875-10.1275024 28.8897095-13.4821777 2.6286011-.8690186 5.282959-1.5611572 7.9490356-2.1731529-8.9431763 5.6469688-16.2780762 14.6979332-20.4265747 23.383419-10.1201172 21.1879921-8.2642212 46.0625038-3.6448364 68.4144897.0631714.305542.1768799.5623779.3196411.7838135 6.626709 33.828064 18.0671387 68.116272 44.6268921 91.5039673.0620117.0546265.1221313.0883789.1834106.1342773-2.8328247 4.5361938-4.8982544 9.4915161-6.1240845 14.6988525-.1915283.0246582-.3891602.0838623-.5899658.1967163-10.8879395 6.1201782-18.7147217 16.2160645-19.2176514 29.3565674-7.6351318-1.9403076-15.3320923-2.8009644-23.2212524-1.9689331-3.9747925.4191895-7.0795288.8729248-10.8226929-1.0245361-3.0796509-1.5610962-6.0244141-3.9066772-8.90271-6.0136719-.0259399-.1350708-.0527954-.2697754-.0786133-.4049683 4.8099365-4.4344482 9.5610352-8.9307251 14.2289429-13.5150757.4138794-.4064941.5450439-.8726807.493042-1.3117676.3613892-1.0148926-.1444092-2.3491211-1.5294189-2.2970581-22.5439455.8471757-46.8890383-10.4781417-54.8182986-32.6559982zm40.8892823 45.8115845c-.6619263-3.666748-1.2753906-7.3471069-1.8412476-11.0358887 3.9844971.8006592 8.0388794 1.2397461 12.0792236 1.3140869-3.375 3.2803956-6.7894897 6.519043-10.237976 9.7218018zm-16.7844849 53.4436646c-4.661499 15.3745117-17.7909546 27.5751953-26.5326538 40.7214355-15.3665161 23.1088867-24.6716919 50.1843872-22.6607056 77.9953613-.0780029.2479248-.1102295.5310669-.069519.8587646.114624.9204102.2775879 1.8202515.4180298 2.7297363.0617065.574585.0957031 1.147583.1672974 1.7226563.0254517.2052612.1114502.3652954.1790771.5395508 4.2617188 23.7703247 17.3394165 43.6900635 36.2498169 58.6295776-36.5480957-7.3713379-62.8973999-36.9418945-70.4537964-72.8319092 4.1959229 6.0153198 9.5853271 11.0907593 16.0548096 14.9932251 2.0403442 1.2307739 3.9180908-1.3707275 2.8546143-3.0083618l.0023193.000061c-13.7927837-31.618042-17.9183331-72.9352417-4.649229-105.2672119 12.7957745-31.1787109 40.2322998-52.9857178 72.8786621-60.0446777-1.7920552 14.2399293-.2600118 29.1801758-4.4387227 42.9617921zm8.5463867-41.8242798c.1234131-.9721069.2597656-1.9423218.4163818-2.909729.2017212-1.2462769-.5783691-2.1552124-1.5133667-2.5080566-1.2755737-6.5371094-2.427002-13.34552-3.4577026-20.430481 2.3323364.9047852 4.7224121 1.6749878 7.1513062 2.3109741.7453613 4.9673462 1.5695801 9.9243164 2.4874878 14.8534546-.1436157.1315308-.2838745.2666016-.4276123.3980103-1.1936646 1.0912476-.2006226 2.6761475 1.0509644 2.8520508 3.2194214 16.517334 7.4842529 32.6732178 13.116394 47.8135986-1.3324585 2.3382568-2.7509766 4.6294556-4.2418823 6.8809204-5.828064-14.5673218-10.7088624-30.8330689-14.5819703-49.2607422zm8.0266724 120.2432861c-1.8771973 1.9968262.6030884 5.9105225 2.4860229 3.9075928 4.1074829-4.3692627 8.550293-8.0426025 13.5270386-11.2029419-.15979 16.8275146-10.2391968 30.9719238-13.7271729 47.2670288-3.1471558 14.7030029-2.0494995 29.7876587-.5205688 44.6201172-2.8780518 2.3076172-6.6567993 3.0140991-10.2846069 3.2105713-25.2557373-23.2384033-37.3547974-62.7904053-24.0847168-95.3789063 10.6179199-26.0751953 33.3676147-44.4282837 47.2139893-68.5675049-4.015564 25.5762329-6.3726197 51.4500733-14.6099854 76.144043zm15.3041382-51.6838379c.5407104-3.7428589 1.0721436-7.4880981 1.6096191-11.2327271.2809448.6281128.5513916 1.2649536.8428955 1.8842163 4.1735229 8.8669434 8.7642212 17.1751709 13.8253174 25.0576172-.0458374 3.8015747.0927734 7.6407471.3515625 11.4692383-6.0512695-8.3452148-11.5964356-17.3497314-16.6293945-27.1783447zM110.934845 479.9902954c25.1292114-7.4526978 39.3095093-32.9561768 42.2655029-58.8461914 2.1990967-19.2614136-1.1279907-38.2449951-3.3416138-57.3182373-2.522583-21.7354126-2.96521-49.2254639 17.1040649-63.3062134.6203003-.4351807.8776245-1.0348511.9140015-1.6408081-1.3904419-.0638428-2.6907349-.5477295-3.576355-1.6536865-13.4476929 9.7081909-18.359314 23.8944702-19.4970703 39.182251-3.835083-6.3577271-7.4271851-13.0728149-10.7991943-20.2367554-1.0949097-2.3261719-2.1345215-4.6998291-3.1500854-7.0933838.8789063-5.8909302 1.8156738-11.7717285 2.9067993-17.6236572.3929443-2.1072998-2.0559082-3.2583618-3.3673096-2.3477783-.6165771.1728516-1.1766357.5872803-1.475647 1.3125-.8692017 2.1082153-1.824646 4.1696777-2.8504639 6.1928711-4.5882568-12.8511963-8.2162476-26.4121704-11.0778198-40.2800293 3.8164063 2.9459229 7.9645386 5.9561157 12.352478 6.2967529 3.5541992.2759399 7.473938-1.1257324 11.0978394-1.2462769 6.2147217-.2067261 12.3250732.7789917 18.3109741 2.3550415.0740967.0195313.1430664.0238037.2141113.0342407.2330933 3.9505615 1.1054688 8.1468506 2.7304077 12.5714111-1.5522461.4833374-2.8060303 1.6962891-3.5282593 3.9763794-1.2987671 4.1002197 1.8226318 8.5714111 4.8051758 11.6628418-.1386719.6102905-.0244141 1.2843628.5072632 1.8770142 2.3787842 2.6515503 5.255188 4.6854858 8.6154175 5.901062.0446777.0161743.0968628.0314331.142334.0475464-.0026245.2694092.0941772.5477905.3411255.7952881 1.7442017 1.7478027 3.7299194 3.1405029 5.8761597 4.1584473-3.1505127 4.6449585-4.805603 9.7646484-5.5509033 15.0891113-.1238403.1488037-.2386475.3171997-.3295288.5309448-13.7085571 32.2431641 6.5699463 63.5080566 6.187561 96.1682129-.4341431 37.0789795-30.1381836 65.2983399-65.8269653 63.4411011zm60.3835449-138.1938476c1.4639282 13.3639526 4.9898071 25.8731079 9.2988892 38.3949585-2.2276611-2.0686646-4.4058228-4.1627197-6.5198364-6.2940674-3.0322876-12.9490356-5.512085-25.9609375-3.4217529-38.8876953.1707152 2.2783813.3973998 4.5477905.6427001 6.7868042zm6.6331787 48.5994873c-.7142944-3.3290405-1.5045776-6.6662598-2.3067017-10.0096436 2.4228516 2.350769 4.9157104 4.6743164 7.5092163 6.9625854.0976563.2689209.1936646.5372925.2918091.8063965 1.1497803 3.1515503 2.1519165 6.3388062 3.0129395 9.5477905-2.895813-2.397705-5.7340088-4.8295898-8.5072632-7.3071288zm44.4002686 28.7603759c-2.1565552 31.8421021-23.3477173 53.0862427-50.1868896 66.3504028 17.6436768-20.3060913 25.4464722-47.1311646 21.7788696-74.0916748-2.2731323-16.7092285-10.0384521-31.6237793-14.2890015-47.7960815-4.4138184-16.793457-10.0176392-41.6964111.7017212-57.0552979.0865479-.1239624.1509399-.2472534.2068481-.369812 1.5505371.3598633 3.1525269.5404053 4.7855225.5305786-.8596802 1.881897-1.1079102 4.0471191-1.0135498 6.1179199-1.8878784.0787354-3.8433228.4207153-4.8388062 1.4981079-1.6472168 1.7827759-.0516357 3.9376221 1.5548096 4.9775391 2.2828369 1.4779053 5.4140625 2.3083496 8.5219116 2.3571777.0134277.03302.0218506.0655518.0370483.0987549 13.8028565 30.1593018 35.0696412 63.0073243 32.7415162 97.3823853zm-28.3465577-97.9888916c1.3587646-.355896 2.619873-.8980103 3.6861572-1.6511841.7681274-.5425415 1.0081787-1.3380127.9118042-2.0827637 2.6452026-2.2473145 5.4609375-4.9741211 6.5736694-8.0713501 1.7141113-4.7711182 1.8983765-10.7124023 1.1112061-16.1862183.0639648.019104.1203613.0437012.1895752.0588989 2.8789063.632019 5.9509277.8295898 9.0654297.6401367-5.4780884 18.663208 7.5517578 37.3249512 27.8804321 37.5620728.0374756.7022705.0564575 1.4077759.0527954 2.1173706-6.1258545 4.6387939-11.1757202 10.6504517-8.0203247 18.4271851 3.9901123 9.8339233 17.006897 7.940918 23.5003052 2.2356567.3029175-.2661743.4851685-.5587158.5880737-.8571777.6022949-1.1251221.352417-2.6435547-1.2364502-2.8979492-3.2405396-.5187988-9.0546875-3.071228-4.9643555-6.7400513.2258301-.2025757.4745483-.3738403.7213135-.5477295 4.6158447 4.0184326 12.2365723 2.5215454 17.4542236-.3052368 2.2711792 1.5150146 4.4830322 2.4136353 7.1696167 2.0824585.2770996.4433594.572876.8761597.8670654 1.3064575 1.6673584 2.4388428 2.1983032 4.305542 2.1744995 7.2937012-.0124512 1.5671997 1.8363037 2.7192993 3.2056885 1.8395386 4.5549316-2.9264526 7.6983643-7.9578857 7.0162354-13.524353-.6644897-5.4229126-4.9865723-9.8180542-10.3460083-10.6350708-2.232605-.5681152-4.4899292-.817749-6.7520142-.760437 4.7329712-3.6116943 11.6929321-2.4708862 17.0181885.7637329.668396.4060059 1.31604.3896484 1.8525391.1382446 1.0917358.0361938 2.199585-.6428223 2.1768799-2.0508423-.1292114-8.0232544-3.6045532-15.6166992-12.7737427-14.9106445-6.5842285.507019-12.2496948 4.4644775-16.742981 9.211853 1.1716309-2.0460815 4.3099365-3.4023438 4.8016968-6.0290527.3908081-2.0874023-.3344116-3.2208252.84021-5.1803589 1.7383423-2.9000244 4.8499756-2.2619629 7.7741089-1.579895 2.1895752.5108032 3.3444214-2.1620483 2.2111816-3.4821777-.0527954-.2167358-.1339111-.4373779-.276001-.661438-4.2150879-6.6481934-12.2817993-7.6826172-18.9542847-4.463623.0938721-5.9545288-1.425293-11.6605225-4.6680908-16.7807007 9.6918945-6.6429443 17.0736084-15.579834 21.6835327-26.2382813 1.2202148 7.4682617 2.1074829 17.0856934 2.3040161 18.8900146.088623.8140259 2.3216553-5.8479614 2.5575562-6.8098145 4.1982422-13.4836426 5.6383057-29.7629395 3.6346436-46.079834.0054321-.0054321.0111694-.0091553.0165405-.0146484 20.1193848-20.5717163 34.1184692-46.0355225 40.645813-74.0645752.036438-.1565552.0045166-.2871094.0128174-.4336548 11.1655273-4.4662476 20.5495605-10.888916 29.5662231-18.8812866 11.1084595-9.8464355 23.5092163-13.8751221 37.414856-18.3901367.5765381-.1871948 1.1535034-.3768311 1.7302856-.5647583 7.0870361 4.381958 15.3568115 7.7147217 24.5383301 9.68927-.0413208 1.7542114-.0883179 3.5543213-.1380615 5.3744507-3.848999.3248291-7.5914307-.3824463-11.1000366-2.7241821-.8226318-.5491333-1.6204224-.3616333-2.1674805.1486816-.65448.3898926-1.0563354 1.1179199-.7174683 2.0690918 2.3401489 6.5675659 7.2980957 12.8143311 13.4315796 16.9559326-1.3641968 34.9141235-4.3687134 77.2230225-10.8898926 112.8147583-5.0050049 27.3068237-30.3530273 120.8144531-146.7467651 179.9025269-13.5231934-7.6260376-25.8599243-14.9091797-37.1824951-22.1429443.1803589-33.149414-19.102539-64.4480591-32.7026367-93.7796631zm73.3878174 127.4701538l-3.4393921 2.2162476-.4419556.2444458-.4257813-.2435913-5.1096802-3.2909546c-11.2180176-7.2191772-21.9287109-14.1290283-32.1611938-20.9980469.0319824-.2124023.0728149-.4196167.1030884-.6329956.3209229-2.2619019.534668-4.5148926.6611938-6.7600708 11.9946289 7.6013184 24.2870483 14.7648315 36.371521 21.5682983l.8462524.4755859.8666992-.4364014c47.6461792-24.0270386 85.5641479-56.5090942 112.7000122-96.5443115 25.0688477-36.9855957 33.8509521-70.0028076 36.8540039-86.3922119 6.43573-35.1217651 9.46698-76.7124634 10.873291-111.3759766 2.3795776 1.1970825 4.8761597 2.0803833 7.4296875 2.536377.2854004.0509644.5707397.0903931.8560791.1298218-.5449219 26.4371338-2.2182617 50.0740356-4.9471436 71.3300171-.3962402.5942993-.5098877 1.3511353-.2558594 1.9400635-17.7406003 134.0752564-77.8828733 172.8489991-160.7808225 226.2337036zm113.7398682 25.2709351c-9.2618408 10.7227173-22.9048462 14.9138184-36.3366699 13.1778564 4.6585693-2.067749 8.3372803-6.1427002 10.2114258-11.4242554 4.791626-13.5032349-7.8779907-32.6635742 3.1772461-43.1893921.8751221-.7424927.7752075-1.7138672.230896-2.4058228-.637085-.8989868-1.9735718-1.3566284-3.0082397-.371521-9.75177 8.2740479-22.930481 11.2417603-35.4360352 9.0727539 14.1657104-7.9204712 20.6585083-23.5345459 25.9487305-38.6311646 5.2451782-4.4386597 10.2970581-9.0049438 15.1489868-13.7600708-.8482666 13.4111938 4.1293335 26.9699707 14.8963623 35.6696777 1.8634033 1.5056152 3.8555908 2.8079224 5.9263916 3.946167 11.1328124 13.8101809 10.8653564 34.457886-.7590943 47.9157717zm36.0164795-148.8390503c-5.989563 8.4289551-6.2263184 20.8237915-4.2713013 30.7055054-2.9152832.0930176-5.8932495.6323242-8.8691406 1.6976929-2.3624878.8457642-1.3439941 4.642334 1.0441895 3.7874756 17.5102539-6.2684326 33.8086548 7.3145142 34.9824829 25.0058594 1.0758057 16.2147217-9.8049927 32.2223511-24.6077881 38.348877-28.5180054 11.8027954-54.6191406-15.0388794-49.8964844-42.7379761 5.7862549-5.9689941 11.2745972-12.2484131 16.4584351-18.942688-.5941772 6.0047607.5871582 11.9880371 4.4506226 17.0861816 7.1051636 9.3759155 21.9130249 10.0581055 27.6525879-1.0792847 1.1560669-2.2433472-2.2319946-4.2325439-3.3915405-1.9824219-6.3011475 12.2270508-21.6088257 5.0037231-24.2346191-5.8945313-1.2845459-5.331604-.5311279-10.9311523 1.4382324-16.1405029 2.8116455-3.9989624 5.5296631-8.1380615 8.1422119-12.4533081 13.2764893-21.9298096 23.3032227-47.3363037 30.3255615-77.4725342 8.3164063-2.7617798 17.8171387-4.9812012 26.800415-4.4519043 10.5040283 5.5810547 3.1377563 17.4778442-3.6477661 21.8032837-3.859314 2.4602661-8.2435303 3.9375-12.3883057 5.8156738-7.8136597 3.5405273-14.1906738 8.0977783-17.8815918 16.0523682-3.1935425 6.8824463-3.6286011 14.0443115-2.1062012 20.8522339zm55.3676147 20.8965454c-.5197144 2.5361938-1.75177 5.7164917-3.5568848 8.4161987-.0476074.0480957-.0974121.086792-.1433105.1425781-2.0761108 2.5209351-4.520874 4.2905273-7.1357422 5.4318848-1.1420898.2005615-2.3539429.1378784-3.6279297-.2633667-.0593262-.0906982-.1182861-.1817017-.1963501-.269165-9.1879883-10.2903442 1.5014038-22.2271118 12.4127808-31.5333862 2.2348022 5.7449951 3.5072632 11.9280395 2.2474365 18.0752563zm27.6738282-86.3296509c6.2072144 16.8485107.6275635 34.4285889-11.3201904 47.0751953-11.1057129 11.755127-49.831665 33.5379028-35.2516479 53.6694336-.1052856.3629761-.1084595.7421875.0174561 1.0944214-6.4960327-.2108765-12.9876709-3.621521-17.1723022-9.4866333-8.5195923-11.9411621-5.7266846-26.967041.5452881-39.2106934 1.1503296-2.2456055-2.2374878-4.2351685-3.3915405-1.9823608-4.3187256 8.430603-6.9724121 18.1348267-6.1921997 27.3649902-6.1572266-8.3961792-9.2424927-18.826416-5.8613892-29.1934204 4.2011719-12.881897 15.4856567-15.8484497 26.3397217-21.2761841 9.4372559-4.7191772 19.1728516-17.1902466 11.9026489-26.1904907 4.890625 1.1635742 9.4769287 3.3846436 13.4402466 7.0858154 17.0077515 15.8828125-.3200684 36.9978027-14.2325439 47.1203613-2.0239868 1.4727173-.0661621 4.8820801 1.9825439 3.3915405 14.8110352-10.7764893 31.9476929-31.1703491 18.2229004-49.7021484-12.0349121-16.2501221-34.4137573-14.171936-51.8373413-8.8312378 2.2807617-10.3713989 4.2155151-21.2972412 5.8162842-32.8212891 10.041687 3.2312622 21.0410156 4.656311 31.859314 3.9671021 15.8471677 2.4702149 29.5073239 12.6567384 35.1327512 27.9255982zm-2.3175049-42.5956421c-18.7546387 12.366333-43.1740112 13.644104-64.1455078 6.7340698.0001831-.0018311.0004883-.00354.0007324-.0053711 22.1297607 1.5751343 50.6984863-8.0626831 55.2290649-32.3939209 4.6446533-24.9445801-24.7166748-34.7106934-43.1705933-24.380127.8164063-7.5318604 4.8006592-14.6219482 10.9664917-19.0994263 7.6759644.3538818 15.2404785 2.4589233 21.4308472 7.1012573 2.0230103 1.5170288 3.9828491-1.8913574 1.9825439-3.3915405-6.7470703-5.0596924-15.1536255-7.3095093-23.5688477-7.6169434-.2643433-.0881348-.553772-.0986938-.8551636-.0231323-2.2935791-.0480347-4.5838013.0379028-6.836853.2580566-7.4169922.7246704-14.2167358 2.4637451-21.3028564-.9902954-5.4075317-2.6359253-10.3144531-6.9562988-13.4663086-12.1918335 6.5463867 2.0322266 13.46698.3341675 19.9360352-2.7694092 12.4665527-5.9810181 23.9424438-13.9398193 38.3728638-13.9724121 27.8585815-.0628662 44.6797791 26.3626709 41.4622498 51.77771-2.6306458-5.736084-6.3260803-10.9786377-10.9363098-15.2090454-1.8597412-1.7064209-4.6447144 1.0639038-2.7773438 2.7774658 8.6661377 7.9520874 13.2636414 19.0284424 14.2497253 30.6688232 1.1845703 13.9843752-5.0340271 25.1192019-16.5707702 32.7260744zm-56.1473999-46.937622c-.6424561 1.6307373.9837646 3.7800903 2.65625 2.5006714 5.7128296-4.3702393 12.7080078-6.0317383 19.3043213-5.5458984 7.8690186 9.2723999-1.2394409 20.0643921-9.6491699 24.7262573-5.4266357 3.0081787-11.3734131 4.3908691-17.4143066 4.3782959 1.192627-14.7129517 1.9397583-30.3043213 2.2549438-46.8502197 3.949707-.2172241 7.8961182-1.0093384 11.8423462-1.331604-5.6514282 5.7670288-8.9975586 13.5997925-9.0263062 21.7888794-.0003662.1185912.0158081.2260741.0319214.3336181zm20.7609253 20.5334472c6.7156372-5.97229 10.1654663-14.953186 6.3500977-22.744873 12.8320923 3.279541 22.09729 15.0376587 13.2767334 30.7420044-9.2670288 16.4995117-29.9049072 22.763916-47.8981934 21.3081665.7948608-6.4584961 1.4943848-13.0923462 2.0908203-19.9261475 9.4995727.0518189 18.894104-2.8989868 26.180542-9.3791504z"></path>
							<linearGradient id="b" x1="529.2272339" x2="41.1430244" y1="48.8379402" y2="489.9326782" gradientTransform="matrix(1 0 0 -1 0 497.2756042)" gradientUnits="userSpaceOnUse">
							  <stop offset="0" stop-color="#7a5c37"></stop>
							  <stop offset="1" stop-color="#c6bc92"></stop>
							</linearGradient>
							<path fill="url(#b)" d="M200.6695862 141.805481c-7.3360596 5.6663818-8.52948 14.78479-10.894165 22.7867432-.1427612.1021729-.2817993.2190552-.4105225.3688354-.4858398.5653076-.8411255 1.2904663-.8120117 2.0123901.0186157.4619751.3018188 1.2012329.9284668 1.2883301.7462158.1038208 1.3775635-.159729 1.930603-.5523071 1.3643799-.1799927 2.8252563-.5317383 4.3151245-.9921875 3.3518066-.2272949 6.9025269-1.9033203 9.4591064-3.5224609 4.1755371-2.6416626 7.4991455-6.8456421 7.8966675-11.5609131.3408813-4.0337524-1.2498169-8.7489624-6.447937-8.7489624-.1988525 0-.3977051.0568237-.625.0568237.5965576-.2841187 1.1362915-.5965576 1.7611084-.7954102 3.7495728-1.2214355 7.300293-.2557373 11.0782471-.6533203.0284424 0 .0284424-.0283813.0284424-.0568237-3.2667237-6.2208863-13.7484131-3.0678711-18.2081299.3692627zm8.8059082 12.6405639c0 3.8062744-3.0963135 6.9025269-6.9025879 6.9025269-3.8348389 0-6.9309692-3.0962524-6.9309692-6.9025269 0-3.8348999 3.0961304-6.9025879 6.9309692-6.9025879 3.8062744 0 6.9025879 3.067688 6.9025879 6.9025879z"></path>
						  </svg>