<svg width="199" height="155" fill="none" xmlns="http://www.w3.org/2000/svg"><path fill-rule="evenodd" clip-rule="evenodd" d="M58 66h22.4v3.7h-8.9v18.7H67V69.7h-9V66Z" fill="url(#a)"/><path fill-rule="evenodd" clip-rule="evenodd" d="M150.6 75v13.4h-4.5V66l13.5 11.2L173.1 66v22.4h-4.6V75l-8.9 7.5-9-7.5Z" fill="url(#b)"/><path fill-rule="evenodd" clip-rule="evenodd" d="M125 84.6h-4.5v3.8h17.9v-3.8H125Z" fill="url(#c)"/><path fill-rule="evenodd" clip-rule="evenodd" d="M120.5 66v3.7h17.9V66h-17.9Z" fill="url(#d)"/><path fill-rule="evenodd" clip-rule="evenodd" d="M125 75.4h-4.5v3.7h17.9v-3.7H125Z" fill="url(#e)"/><path fill-rule="evenodd" clip-rule="evenodd" d="M52.1 82.8v5.6h-6.5L26 71.6V66h6.5l19.6 16.8Z" fill="url(#f)"/><path fill-rule="evenodd" clip-rule="evenodd" d="m47.8 79.1-6.5 5.6-2.2-1.9 6.5-5.6 2.2 1.9Z" fill="url(#g)"/><path fill-rule="evenodd" clip-rule="evenodd" d="M52.1 66v5.6L32.5 88.4H26v-5.6L45.6 66h6.5Z" fill="url(#h)"/><path fill-rule="evenodd" clip-rule="evenodd" d="M4.4 84.6H0v3.8h17.9v-3.8H4.4Z" fill="url(#i)"/><path fill-rule="evenodd" clip-rule="evenodd" d="M0 66v3.7h17.9V66H0Z" fill="url(#j)"/><path fill-rule="evenodd" clip-rule="evenodd" d="M4.4 75.4H0v3.7h17.9v-3.7H4.4Z" fill="url(#k)"/><path fill-rule="evenodd" clip-rule="evenodd" d="M185.2 84.6h-4.4v3.8h17.9v-3.8h-13.5Z" fill="url(#l)"/><path fill-rule="evenodd" clip-rule="evenodd" d="M180.8 66v3.7h17.9V66h-17.9Z" fill="url(#m)"/><path fill-rule="evenodd" clip-rule="evenodd" d="M185.2 75.4h-4.4v3.7h17.9v-3.7h-13.5Z" fill="url(#n)"/><path fill-rule="evenodd" clip-rule="evenodd" d="M108.9 77.7c1-1.2 1.6-2.7 1.6-4.2 0-2.1-1-4-2.6-5.3-1.8-1.5-4-2.2-6.3-2.2H88.2v3.8h13.4c1.1 0 2.3.4 3.1 1.1 1.5 1.1 1.8 3.2.7 4.6-.2.2-.4.5-.7.7-.9.7-2 1.1-3.1 1.1H88.1v11.2h4.5V81h7.6l5.2 7.5h5.2l-5.6-8.1c1.5-.6 2.9-1.5 3.9-2.7Z" fill="url(#o)"/><defs><linearGradient id="h" x1="-.878" y1="77.193" x2="197.028" y2="77.193" gradientUnits="userSpaceOnUse"><stop stop-color="#1C8AE2"/><stop offset=".486" stop-color="#8B00B3"/><stop offset="1" stop-color="#6900B5"/></linearGradient><linearGradient id="a" x1="-.878" y1="77.193" x2="197.028" y2="77.193" gradientUnits="userSpaceOnUse"><stop stop-color="#1C8AE2"/><stop offset=".486" stop-color="#8B00B3"/><stop offset="1" stop-color="#6900B5"/></linearGradient><linearGradient id="c" x1="-.878" y1="86.524" x2="197.028" y2="86.524" gradientUnits="userSpaceOnUse"><stop stop-color="#1C8AE2"/><stop offset=".486" stop-color="#8B00B3"/><stop offset="1" stop-color="#6900B5"/></linearGradient><linearGradient id="d" x1="-.878" y1="67.862" x2="197.028" y2="67.862" gradientUnits="userSpaceOnUse"><stop stop-color="#1C8AE2"/><stop offset=".486" stop-color="#8B00B3"/><stop offset="1" stop-color="#6900B5"/></linearGradient><linearGradient id="e" x1="-.878" y1="77.208" x2="197.028" y2="77.208" gradientUnits="userSpaceOnUse"><stop stop-color="#1C8AE2"/><stop offset=".486" stop-color="#8B00B3"/><stop offset="1" stop-color="#6900B5"/></linearGradient><linearGradient id="f" x1="-.878" y1="77.193" x2="197.028" y2="77.193" gradientUnits="userSpaceOnUse"><stop stop-color="#1C8AE2"/><stop offset=".486" stop-color="#8B00B3"/><stop offset="1" stop-color="#6900B5"/></linearGradient><linearGradient id="g" x1="-.879" y1="80.93" x2="197.029" y2="80.93" gradientUnits="userSpaceOnUse"><stop stop-color="#1C8AE2"/><stop offset=".486" stop-color="#8B00B3"/><stop offset="1" stop-color="#6900B5"/></linearGradient><linearGradient id="b" x1="-.878" y1="77.193" x2="197.027" y2="77.193" gradientUnits="userSpaceOnUse"><stop stop-color="#1C8AE2"/><stop offset=".486" stop-color="#8B00B3"/><stop offset="1" stop-color="#6900B5"/></linearGradient><linearGradient id="i" x1="-.878" y1="86.524" x2="197.028" y2="86.524" gradientUnits="userSpaceOnUse"><stop stop-color="#1C8AE2"/><stop offset=".486" stop-color="#8B00B3"/><stop offset="1" stop-color="#6900B5"/></linearGradient><linearGradient id="j" x1="-.878" y1="67.862" x2="197.028" y2="67.862" gradientUnits="userSpaceOnUse"><stop stop-color="#1C8AE2"/><stop offset=".486" stop-color="#8B00B3"/><stop offset="1" stop-color="#6900B5"/></linearGradient><linearGradient id="k" x1="-.878" y1="77.208" x2="197.028" y2="77.208" gradientUnits="userSpaceOnUse"><stop stop-color="#1C8AE2"/><stop offset=".486" stop-color="#8B00B3"/><stop offset="1" stop-color="#6900B5"/></linearGradient><linearGradient id="l" x1="-.878" y1="86.524" x2="197.028" y2="86.524" gradientUnits="userSpaceOnUse"><stop stop-color="#1C8AE2"/><stop offset=".486" stop-color="#8B00B3"/><stop offset="1" stop-color="#6900B5"/></linearGradient><linearGradient id="m" x1="-.878" y1="67.862" x2="197.028" y2="67.862" gradientUnits="userSpaceOnUse"><stop stop-color="#1C8AE2"/><stop offset=".486" stop-color="#8B00B3"/><stop offset="1" stop-color="#6900B5"/></linearGradient><linearGradient id="n" x1="-.878" y1="77.208" x2="197.028" y2="77.208" gradientUnits="userSpaceOnUse"><stop stop-color="#1C8AE2"/><stop offset=".486" stop-color="#8B00B3"/><stop offset="1" stop-color="#6900B5"/></linearGradient><linearGradient id="o" x1="-.878" y1="77.206" x2="197.027" y2="77.206" gradientUnits="userSpaceOnUse"><stop stop-color="#1C8AE2"/><stop offset=".486" stop-color="#8B00B3"/><stop offset="1" stop-color="#6900B5"/></linearGradient></defs></svg>