<svg width="200" height="155" viewBox="0 0 200 155" fill="none" xmlns="http://www.w3.org/2000/svg">
<path d="M58.0367 63.0686C63.2367 64.6686 68.3367 66.7686 74.4367 66.1686C71.0367 63.8686 68.1367 61.7686 65.1367 59.7686C65.2367 59.4686 65.4367 59.2686 65.5367 59.0686C70.9367 60.7686 75.9367 63.7686 81.9367 64.3686L72.1367 58.2686C72.2367 58.1686 72.2367 57.9686 72.3367 57.8686C78.4367 59.6686 84.4367 61.3686 90.5367 63.1686C92.3367 63.5686 94.1367 64.1686 95.8367 64.8686C97.6367 65.6686 99.7367 65.4686 101.437 64.3686C104.037 62.9686 106.537 61.5686 109.037 60.0686C112.937 57.4686 117.337 55.8686 121.937 55.4686C125.337 55.4686 128.637 55.7686 131.937 56.3686C142.537 58.1686 153.437 58.0686 164.037 56.2686C172.937 54.7686 181.637 51.7686 189.537 47.3686C190.037 47.0686 190.537 46.6686 191.437 46.1686L184.237 44.8686C179.437 43.9686 174.737 42.2686 170.437 39.8686C161.037 34.6686 151.437 29.9686 141.537 25.6686C136.137 23.2686 130.337 21.6686 124.437 20.9686C119.637 20.6686 114.837 20.6686 110.037 21.0686C106.537 21.2686 102.937 21.7686 99.4367 22.4686C97.9367 22.7686 96.5367 23.2686 95.3367 24.1686C92.6367 26.0686 90.2367 28.1686 87.4367 30.4686C86.6367 28.7686 85.8367 27.3686 85.1367 25.6686C74.6367 30.0686 65.1367 36.3686 54.6367 40.3686L85.7368 23.2686L88.1367 27.5686C89.7367 26.2686 91.2367 25.0686 92.8367 23.6686C94.7367 21.8686 97.0367 20.7686 99.6367 20.3686C106.137 19.6686 112.437 18.5686 118.937 18.0686C126.937 17.5686 134.437 19.8686 141.737 22.7686C151.137 26.4686 160.337 30.8686 169.137 35.7686C177.637 40.4686 186.537 43.3686 196.337 42.6686C197.537 42.7686 198.637 43.0686 199.737 43.4686C199.737 43.6686 199.737 43.9686 199.737 44.1686C197.737 45.5686 195.737 47.1686 193.637 48.3686C184.637 53.7686 174.637 57.3686 164.337 59.1686C156.837 60.3686 149.137 60.6686 141.537 60.0686C137.737 59.8686 133.937 59.2686 130.237 58.3686C123.337 56.5686 116.037 57.6686 110.037 61.4686C107.437 63.0686 104.737 64.4686 102.037 65.7686C99.9367 66.9686 97.3367 67.1686 95.1367 66.2686C91.7367 64.9686 88.2368 64.0686 84.7368 62.9686C84.2368 62.8686 83.7367 62.8686 83.3367 63.1686C85.3367 64.5686 87.3367 65.8686 89.3367 67.2686C83.6367 67.2686 78.6367 65.1686 73.3367 63.6686L77.2368 66.5686C72.1368 68.1686 63.6367 66.4686 58.0367 63.0686Z" fill="url(#paint0_linear_1407_2498)"/>
<path d="M0.0371005 44.8692C0.837101 44.9692 1.53709 45.0691 2.33709 45.2691C15.0371 48.7691 27.6371 47.8691 40.3371 45.2691C43.1371 44.6691 45.9371 43.6691 48.7371 43.1691C52.4371 42.4691 56.2371 42.0692 59.9371 41.3692C75.5371 38.3692 91.3371 36.9691 107.137 37.1691C117.737 37.1691 128.337 37.9691 138.737 39.4691C144.937 40.4691 151.137 41.3691 157.337 42.2691C158.337 42.4691 159.337 42.7691 160.237 43.2691L154.937 42.7691C146.437 41.9691 137.937 41.3692 129.437 40.5692C118.837 39.5692 108.137 39.3691 97.4371 40.1691C90.1371 40.6691 82.7371 41.0691 75.4371 42.1691C62.2371 44.1691 49.0371 46.8692 35.8371 48.8692C24.4371 50.7692 13.0371 50.7692 1.93709 46.8692C1.33709 46.5692 -0.2629 46.8692 0.0371005 44.8692Z" fill="url(#paint1_linear_1407_2498)"/>
<path d="M34.5367 96.3681C33.8367 96.5681 33.1367 96.7681 32.3367 96.7681C28.0367 96.8681 23.8367 96.2681 19.7367 95.0681C15.5367 93.6681 11.9367 90.9681 9.33671 87.4681C5.73671 82.2681 5.63672 75.4681 9.03672 70.1681C12.4367 64.9681 18.0367 61.5681 24.3367 61.0681C28.6367 60.6681 31.2367 62.8681 31.0367 66.6681C31.0367 68.8681 29.5367 70.8681 27.3367 71.3681C24.8367 72.1681 21.8367 71.5681 20.6367 69.9681C19.7367 68.7681 20.0367 67.0681 21.6367 65.6681C22.1367 66.5681 22.5367 67.3681 22.9367 68.1681C23.7367 69.7681 25.7367 70.3681 27.2367 69.5681C28.6367 68.9681 29.2367 67.4681 28.6367 66.0681C28.4367 65.4681 28.0367 65.0681 27.4367 64.7681C25.2367 63.4681 22.5367 63.1681 20.1367 63.9681C14.1367 65.9681 10.9367 70.5681 10.1367 76.5681C9.43669 82.0681 11.7367 86.4681 15.8367 89.9681C19.9367 93.4681 25.1367 94.7681 30.6367 95.1681C31.8367 95.2681 33.1367 95.4681 34.3367 95.6681C34.5367 95.8681 34.5367 96.1681 34.5367 96.3681Z" fill="url(#paint2_linear_1407_2498)"/>
<path d="M46.8375 98.7691C47.8375 93.3691 49.4375 87.8691 45.4375 82.4691C43.3375 83.8691 41.4375 85.1691 39.7375 86.3691C39.0375 89.9691 41.7375 93.5692 39.0375 97.0692C38.4375 96.6692 37.9375 96.1691 37.4375 95.6691C36.7375 94.4691 36.0375 93.1691 35.3375 91.9691C34.1375 90.4691 34.1375 88.4691 35.3375 86.9691C36.1375 85.9691 36.3375 84.6691 36.1375 83.4691C35.7375 77.9691 35.2375 72.4691 34.8375 66.9691C34.6375 64.6691 35.8375 63.1691 38.7375 62.3691V82.9691L39.3375 83.1691C40.4375 82.1691 41.5375 81.1691 42.6375 80.2691C45.5375 77.8691 47.5375 78.3691 49.1375 81.7691C51.6375 86.9691 50.9375 92.0691 48.9375 97.2691C48.7375 97.9691 48.0375 98.3691 47.5375 98.9691C47.3375 98.9691 47.0375 98.8691 46.8375 98.7691Z" fill="url(#paint3_linear_1407_2498)"/>
<path d="M118.737 78.868L116.137 79.9679C111.337 82.1679 108.337 86.268 108.837 90.368C108.837 92.368 110.337 93.9679 112.337 93.9679C112.737 93.9679 113.237 93.8679 113.637 93.7679C115.437 93.1679 116.537 91.568 116.537 89.668C116.537 87.468 116.737 85.268 116.937 83.068C117.237 80.868 118.637 79.768 121.337 79.668C121.137 81.768 121.137 83.7679 120.837 85.7679C120.637 87.3679 120.337 88.7679 120.137 90.2679C119.837 91.9679 120.737 93.7679 122.337 94.4679C123.937 95.0679 125.737 94.368 126.537 92.868C126.837 92.468 127.137 92.068 127.537 91.368C128.337 93.968 128.037 94.668 126.137 95.868C122.937 97.868 120.337 97.468 116.737 94.168L115.537 95.068C113.537 96.968 110.537 97.2679 108.137 95.9679C105.637 94.5679 105.037 92.268 105.137 89.568C105.537 84.268 113.337 77.068 118.737 78.868Z" fill="url(#paint4_linear_1407_2498)"/>
<path d="M179.637 78.9684L177.537 79.8685C173.737 81.6685 170.837 84.2684 170.237 88.6684C169.837 91.5684 171.137 93.6685 173.337 93.8685C175.737 94.0685 177.737 92.2684 177.937 89.9684C177.937 89.7684 177.937 89.5684 177.937 89.4684C177.937 87.3684 178.137 85.1685 178.337 83.0685C178.537 80.9685 180.337 79.4685 182.437 79.5685C182.537 81.1685 182.537 82.6684 182.437 84.2684C182.337 85.8684 181.837 87.3684 181.637 88.9684C181.537 89.6684 181.537 90.3685 181.537 91.0685C181.537 92.5685 182.537 93.8684 183.837 94.2684C185.137 94.7684 186.637 94.2684 187.437 93.1684C187.937 92.5684 188.537 92.0684 189.137 91.4684C189.937 93.0684 189.237 94.9684 187.637 95.7684H187.537C184.237 97.7684 181.637 97.3685 178.137 94.0685C177.537 94.5685 176.937 94.9685 176.337 95.3685C174.337 96.8685 171.737 97.0685 169.537 95.8685C167.537 94.7685 166.337 92.5684 166.537 90.2684C166.637 84.3684 173.237 78.1684 179.637 78.9684Z" fill="url(#paint5_linear_1407_2498)"/>
<path d="M154.037 82.3683C154.737 81.2683 155.137 80.3683 155.737 79.4683C156.437 78.0683 158.137 77.4683 159.537 78.1683C159.837 78.3683 160.137 78.5683 160.337 78.7683C161.537 79.6683 162.337 80.9683 162.937 82.3683C164.537 87.0683 163.437 91.4683 161.837 95.8683C161.437 96.4683 160.937 97.0683 160.437 97.6683C160.237 96.7683 160.237 95.8683 160.137 94.8683C160.337 92.1683 160.737 89.5683 160.837 86.8683C160.837 85.2683 160.837 83.2683 158.837 82.8683C156.837 82.4683 156.437 84.6683 155.937 85.9683C155.037 88.3683 154.437 90.8683 153.737 93.3683C153.337 94.9683 152.937 96.4683 150.737 97.1683C150.537 96.1683 150.537 95.1683 150.537 94.0683C150.637 91.6683 151.037 89.2683 151.037 86.8683C151.037 83.5683 150.437 82.9683 147.137 82.7683C146.937 82.7683 146.637 82.5683 146.337 82.3683C147.437 80.5683 149.237 79.3683 151.237 79.0683C151.837 78.9683 152.737 79.5683 153.137 80.0683C153.637 80.7683 153.737 81.3683 154.037 82.3683Z" fill="url(#paint6_linear_1407_2498)"/>
<path d="M58.6375 92.0692C62.5375 95.3692 66.0375 93.8692 69.7375 92.2692C69.6375 92.8692 69.4375 93.3692 69.1375 93.8692C65.6375 97.6692 59.7375 97.9692 55.9375 94.4692C55.4375 94.0692 55.0375 93.5692 54.7375 93.0692C53.9375 91.8692 53.4375 90.3692 53.4375 88.9692C53.7375 84.5692 56.3375 81.4692 59.9375 79.2692C61.3375 78.2692 63.2375 78.4692 64.3375 79.6692C65.7375 80.7692 66.3375 82.5692 65.9375 84.2692C65.2375 86.7692 63.7375 88.9692 61.5375 90.3692C60.6375 90.8692 59.7375 91.3692 58.6375 92.0692ZM61.7375 82.9692C59.5375 82.2692 58.9375 82.5692 57.7375 84.3692C56.1375 86.9692 56.1375 88.8692 57.7375 90.5692C61.0375 88.8692 62.2375 86.6692 61.7375 82.9692Z" fill="url(#paint7_linear_1407_2498)"/>
<path d="M136.737 96.1688C135.937 97.5688 134.937 97.3688 133.937 96.8688C132.237 96.0688 131.137 94.5687 130.837 92.7687C130.537 91.0687 130.337 89.3687 130.337 87.7687C130.337 81.2687 130.337 74.7687 130.437 68.2687C130.237 65.4687 131.737 62.7687 134.237 61.4688C134.137 63.3687 134.137 64.8687 133.937 66.4688C132.937 74.1687 132.937 81.8688 133.837 89.5688C134.037 91.2688 135.437 92.8688 136.137 94.5688C136.337 95.0688 136.637 95.6688 136.737 96.1688Z" fill="url(#paint8_linear_1407_2498)"/>
<path d="M101.938 85.7679C100.938 84.6679 100.238 83.968 99.4375 82.968C96.3375 87.268 97.1375 92.868 94.1375 97.568C93.2375 96.168 92.5375 94.768 91.8375 93.368C90.8375 91.168 90.1376 88.8679 89.0376 86.7679C88.3376 85.2679 87.4375 83.868 86.4375 82.568C84.7375 80.368 84.9375 78.168 85.9375 75.668C88.6375 76.568 89.4376 78.7679 90.2376 80.7679C91.3376 83.8679 92.5375 86.968 93.6375 90.068C93.8375 90.468 94.1375 90.868 94.3375 91.168C95.0375 88.768 95.5375 86.668 96.1375 84.668C96.3375 84.068 96.5376 83.468 96.7376 82.868C97.2376 81.568 98.0375 80.4679 99.6375 80.7679C101.138 81.0679 102.138 82.368 102.038 83.868C102.138 84.368 102.038 84.7679 101.938 85.7679Z" fill="url(#paint9_linear_1407_2498)"/>
<path d="M73.0371 97.068C71.7371 95.868 72.1371 94.368 72.2371 92.868C72.3371 90.468 72.3371 87.968 72.2371 85.468C72.1371 84.268 72.0371 82.9679 72.1371 81.7679C72.1371 80.3679 73.2371 79.068 74.6371 78.868C74.9371 79.468 75.2371 80.0679 75.3371 80.2679C78.1371 79.1679 80.8371 78.168 83.5371 77.168C84.9371 79.068 84.0371 80.068 83.0371 81.168C82.7371 81.168 82.4371 81.168 82.1371 81.168C78.2371 80.268 76.4371 81.468 75.9371 85.668C75.8371 87.468 75.9371 89.368 76.1371 91.168C76.5371 94.168 75.9371 95.468 73.0371 97.068Z" fill="url(#paint10_linear_1407_2498)"/>
<path d="M142.037 97.2683C139.637 95.3683 139.737 93.2683 139.537 91.4683C139.337 88.3683 139.437 85.2683 139.437 82.1683C139.337 80.3683 140.637 78.7684 142.437 78.5684C142.737 78.8684 143.237 79.2684 143.137 79.5684C141.737 85.1684 143.337 91.0683 142.037 97.2683Z" fill="url(#paint11_linear_1407_2498)"/>
<path d="M141.537 62.168C142.637 63.168 143.637 64.268 144.637 65.368C145.437 66.268 145.437 67.668 144.437 68.468C144.237 68.668 144.037 68.768 143.837 68.868C142.737 69.368 141.337 68.868 140.837 67.668C140.737 67.568 140.737 67.4679 140.737 67.2679C140.037 65.8679 140.237 64.468 141.537 62.168Z" fill="url(#paint12_linear_1407_2498)"/>
<defs>
<linearGradient id="paint0_linear_1407_2498" x1="-2.21879" y1="42.655" x2="202.026" y2="42.655" gradientUnits="userSpaceOnUse">
<stop stop-color="#1C8AE2"/>
<stop offset="0.4865" stop-color="#8B00B3"/>
<stop offset="1" stop-color="#6900B5"/>
</linearGradient>
<linearGradient id="paint1_linear_1407_2498" x1="-2.2184" y1="43.581" x2="202.027" y2="43.581" gradientUnits="userSpaceOnUse">
<stop stop-color="#1C8AE2"/>
<stop offset="0.4865" stop-color="#8B00B3"/>
<stop offset="1" stop-color="#6900B5"/>
</linearGradient>
<linearGradient id="paint2_linear_1407_2498" x1="-2.21879" y1="78.8962" x2="202.026" y2="78.8962" gradientUnits="userSpaceOnUse">
<stop stop-color="#1C8AE2"/>
<stop offset="0.4865" stop-color="#8B00B3"/>
<stop offset="1" stop-color="#6900B5"/>
</linearGradient>
<linearGradient id="paint3_linear_1407_2498" x1="-2.21799" y1="80.83" x2="202.027" y2="80.83" gradientUnits="userSpaceOnUse">
<stop stop-color="#1C8AE2"/>
<stop offset="0.4865" stop-color="#8B00B3"/>
<stop offset="1" stop-color="#6900B5"/>
</linearGradient>
<linearGradient id="paint4_linear_1407_2498" x1="-2.21831" y1="87.8374" x2="202.027" y2="87.8374" gradientUnits="userSpaceOnUse">
<stop stop-color="#1C8AE2"/>
<stop offset="0.4865" stop-color="#8B00B3"/>
<stop offset="1" stop-color="#6900B5"/>
</linearGradient>
<linearGradient id="paint5_linear_1407_2498" x1="-2.21804" y1="88.0844" x2="202.027" y2="88.0844" gradientUnits="userSpaceOnUse">
<stop stop-color="#1C8AE2"/>
<stop offset="0.4865" stop-color="#8B00B3"/>
<stop offset="1" stop-color="#6900B5"/>
</linearGradient>
<linearGradient id="paint6_linear_1407_2498" x1="-2.21843" y1="87.7702" x2="202.026" y2="87.7702" gradientUnits="userSpaceOnUse">
<stop stop-color="#1C8AE2"/>
<stop offset="0.4865" stop-color="#8B00B3"/>
<stop offset="1" stop-color="#6900B5"/>
</linearGradient>
<linearGradient id="paint7_linear_1407_2498" x1="-2.21796" y1="87.7363" x2="202.027" y2="87.7363" gradientUnits="userSpaceOnUse">
<stop stop-color="#1C8AE2"/>
<stop offset="0.4865" stop-color="#8B00B3"/>
<stop offset="1" stop-color="#6900B5"/>
</linearGradient>
<linearGradient id="paint8_linear_1407_2498" x1="-2.21908" y1="79.3092" x2="202.027" y2="79.3092" gradientUnits="userSpaceOnUse">
<stop stop-color="#1C8AE2"/>
<stop offset="0.4865" stop-color="#8B00B3"/>
<stop offset="1" stop-color="#6900B5"/>
</linearGradient>
<linearGradient id="paint9_linear_1407_2498" x1="-2.21812" y1="86.6245" x2="202.027" y2="86.6245" gradientUnits="userSpaceOnUse">
<stop stop-color="#1C8AE2"/>
<stop offset="0.4865" stop-color="#8B00B3"/>
<stop offset="1" stop-color="#6900B5"/>
</linearGradient>
<linearGradient id="paint10_linear_1407_2498" x1="-2.21852" y1="87.1451" x2="202.027" y2="87.1451" gradientUnits="userSpaceOnUse">
<stop stop-color="#1C8AE2"/>
<stop offset="0.4865" stop-color="#8B00B3"/>
<stop offset="1" stop-color="#6900B5"/>
</linearGradient>
<linearGradient id="paint11_linear_1407_2498" x1="-2.21816" y1="87.9455" x2="202.026" y2="87.9455" gradientUnits="userSpaceOnUse">
<stop stop-color="#1C8AE2"/>
<stop offset="0.4865" stop-color="#8B00B3"/>
<stop offset="1" stop-color="#6900B5"/>
</linearGradient>
<linearGradient id="paint12_linear_1407_2498" x1="-2.21727" y1="65.68" x2="202.026" y2="65.68" gradientUnits="userSpaceOnUse">
<stop stop-color="#1C8AE2"/>
<stop offset="0.4865" stop-color="#8B00B3"/>
<stop offset="1" stop-color="#6900B5"/>
</linearGradient>
</defs>
</svg>
