<svg xmlns="http://www.w3.org/2000/svg" xml:space="preserve" id="Слой_1" x="0" y="0" style="enable-background:new 0 0 878 163.2" version="1.1" viewBox="0 0 878 163.2"><style>.st0{fill:#7f603b}.st1{fill:#c9ab5b}.st3{fill:#9a7743}.st4{fill:#c49b4d}</style><path d="m74.8 22.3 15 1s5.9 12.7 4.8 18c-1 5.3-.7 9.4-11.1 15.6l-.2 2.4-8.4 11.4-16.5 14.1s2.4-16.7 2.5-17 1.1-4.5 1.1-4.5L47.2 62l19.9-15.8 7.2-13.1.5-10.8zM65.8 93.3l16 1.6s8.1.4 10.8 8.8 4 11.6 15.7 11.8 2.7 3.6 2.7 3.6L73 115s-7.9-12.5-7.7-12.7c.1-.2.5-9 .5-9z" class="st0"/><path d="m18.4 156.2 19.8 1.7s5.6-2.2 9.7-9.7c4-7.5 16.2-39.4 16.2-39.4l2.5-12.5-14.1-1.7-33.1 50.8-1 10.8z" class="st1"/><path d="M66.6 98.2s45.5-54.7 85.5-55.5l1.8-6.9h-18L83.7 61.5 61.6 83.6l-9.1 11 14.1 3.6z" style="fill:#cdab5c"/><path d="M103.7 121.5h27.4s28.1-4.3 47.2-22.1 23.8-31 22.7-51c0 0-3.2-20.6-31.6-22.6l-16-1-5.5 5.9 27.8 9.3 3.7 21.5-3.9 20.2L159 98.2l-10.4 5.6-10 7-29 8-5.9 2.7z" class="st0"/><path d="M17.6 156s-14.1-4.1-3.1-21.8c18.7-30 33.3-39 35.2-43.1s13-32.7 13-32.7S41 71.8 34.5 48.5c0 0 8.5.4 13.2-2S67 34.7 74.8 22.3c0 0 8.2 16.9 4.6 22.8-3.6 5.9-9.8 10.2-9.8 10.2L60.1 81s64.7-70.2 108-53.7 3.5 70-16.3 79.9-49.6 24.4-84.9 3.8c0 0-10.5-6.9-5.4-14.9s16.7 3.7 17.1 6.6c.4 2.9.9 11.8 14.1 12.7s51.3 4.1 74.2-41.3c0 0 14.6-33.4-29.8-32.9 0 0-21.3 0-49.9 22 0 0-23.1 18.7-32.7 31.7 0 0-16.1 45.1-20.9 52.2-5 7.2-8.4 11.2-16 8.9z" class="st3"/><path d="m252.6 26.3 14.5.6s2.8 2.4 1.2 10-3.6 15.8-12.6 23.2c-9 7.3-14.3 11.5-15.8 13.1-1.5 1.6-13.4 16.4-13.4 16.4L207 108l-7.9.7v-4.4s26.6-42.8 27.7-43c1.1-.1 18.9-21.3 18.9-21.3l6.9-13.7z" class="st0"/><path d="m192.8 129.2 16.9 1.5s9.1-2.9 18.3-11.7 29-28.7 29-28.7 17.7-18.3 35-29.7c17.3-11.4 35.7-18.8 35.7-18.8l-18.1-1.6-21.3 9.4-67.8 46.8-18.3 16-9.4 16.8z" class="st1"/><path d="m335.6 30.2 16.3 1.5s5.4 2.7 5.4 12.1-6.7 20.9-18.3 28.7c-11.1 7.5-18.9 10.2-32.2 12.7-1.1.2-2.3.3-3.4.3-6.1 0-26 .1-29-1.3 0 0 1.6-1.7 2.3-1.8.7-.1 20.1-1.7 20.1-1.7l30.3-15.9 7.1-18 1.4-16.6z" class="st0"/><path d="M291.1 85.4s11.1 18.3 20.3 27c9.2 8.8 16.5 12.6 22 13.3 5.5.6-7.1 6.4-7.1 6.4L282.9 120l-15.3-20s-.7-13.2-.2-13.9 6.7-3.8 7.1-3.8 13.2-1.2 13.5-1 3.1 4.1 3.1 4.1z" class="st0"/><path d="M346.9 98.2h8.3l8.8 19s-3.3 13.6-20.4 17.9-34.6-.6-34.6-.6-.6-4.6.7-4.4 18.5.1 18.5.1 7.5-2.7 8.2-3.1c.7-.4 6.4-4.3 6.9-5.1s5.3-7.6 5.3-7.6l-.1-9.1-1.6-7.1z" class="st0"/><path d="M220.8 68.3s-5.3.9-9.6-5.2c-4.3-6.1-5.1-8.1-5.1-8.1s-2-4.3 3.1-3.3 11 1.5 15-1.3c4.1-2.8 26.1-23.3 26.1-23.3s2.2-2.1 3.5 0c1.3 2.1.9 10.4-2.7 18.6-3.6 8.1-12.4 17.2-23.2 23.7 0 0-3.8 2.8-5.2 4.4-1.3 1.6-22.2 31.4-22.2 31.4h.5s26.5-17.9 32.1-21.8c5.6-3.9 28.8-20.5 42-28.5s46.6-29.4 62-24.5c0 0 11.9 5.3 2.1 24.5s-32.6 24.7-37.3 25.9c-4.7 1.1-24.9 3.5-24.9 3.5s15.8 24.6 24 30.9 22.7 16.7 37.5 7.3c0 0 7.6-6 7.6-12.1v-7.5s-1.5-4 0-4.8c1.5-.8 3.8.8 4.3 4.9.5 4.1 0 10.3 0 10.3s-3.4 13.7-16.2 18.6c-12.8 4.9-31.9 4-47.5-5.6s-27.5-29.1-29.9-36.8c0 0-.9-.9 4.4-3.8 5.2-3 10-6 11.4-6 1.4 0 16 .6 21-.2 5-.9 26.8-6.4 29.6-23.1C326 39.7 311 41.8 307 43s-20.2 8.3-37.9 22.4-34.8 32-49 45.2c-14.2 13.3-19 18.3-27.4 18.3 0 0-9.9-3-2.9-14.5s31-46.1 31-46.1z" class="st3"/><path d="M554.3 131.4s25.2 3.6 38.4-2.6 21.3-14.7 22.7-20.2c1.4-5.4 0-21.7 0-21.7l-13.1.5.8 9.1-3.7 10.1-5.8 7-15 6.9-15.2 2.5-9.1 8.4z" class="st0"/><path d="M416.4 28.8s-14.6 3.4-24.5 21.1c0 0-4.2 7.9-3.9 7.9.3 0-11.5 17.4-11.5 17.4l-3.3 7.8-2.7 6.7h-6.4l5.4-40.1s17.6-21 18.1-20.8c.5.2 15-4.4 15.2-4.4.3 0 7.5.8 7.5.8l4 1.1 2.1 2.5z" class="st1"/><path d="m370.4 91.6 14.5 1.3s1.6.1 2.3-2.9 14.2-42.7 63.2-39.3l7-7.2s-10.6-3.2-20.2-3.3-25.5 4.5-25.5 4.5l-13 6.5-10.2 7.6L378 73l-4.2 8.3-2.3 6.2-2.3 2.9 1.2 1.2z" class="st1"/><path d="M385 92.9s8.2 22.7 36.2 23.4l-8.9 4.2s-34-1.1-34.4-1.5c-.4-.4-13.8-11.6-13.8-11.6s-2.1-7.2-1.6-9.2 3.7-8.3 3.7-8.3l4.3 1.7 14.5 1.3z" class="st4"/><path d="M409.4 22.1s25.3-2.8 28.8 9.9-13.1 9.1-13.1 9.1l-4.6-10.2-6.1-4.6-5-4.2zM396.9 130s33.6 3.7 49.9-6 36-20 42.9-54.7c6.9-34.6-28.1-37.6-43.8-37.7l-2.1 6.8L466 49.2l1.5 15.4 1.9 17.7-6.9 15.8-21.4 16-33.4 8.2s-7.1 1-7.6 1.3c-.8.6-3.2 6.4-3.2 6.4z" class="st0"/><path d="M471.1 45.9c-10.5-11.3-18.9-16.8-46.7-12.6 0 0-1.3-11.3-15.7-11.3-14.4 0-26 5.2-41.6 21.6-15.6 16.4-17.6 35.3-15.9 50 1.7 14.7 15.3 31 34.6 35 19.2 4 45.6.9 68.4-20.3 22.9-21.1 27-51.5 16.9-62.4zm-87.3-5.8c5.6-7.5 17.8-14.6 27-13.3 9.2 1.3 9 8.1 9 8.1s-5.2.2-22.4 10.9c-20.3 12.7-26.7 41-26.7 41-3.5-24 7.5-39.1 13.1-46.7zM463 90c-3.6 5.4-21 26.3-49.4 26.3s-40.8-13.1-43.1-24.7c0 0 1.9-.5 2.5-2.9.7-2.4 10.3-38.7 58.5-40.1 48.2-1.4 35.1 36 31.5 41.4z" class="st3"/><path d="M670.9 28.8s-14.6 3.4-24.5 21.1c0 0-4.2 7.9-3.9 7.9.3 0-11.5 17.4-11.5 17.4l-3.3 7.8-2.7 6.7h-6.4l5.4-40.1s17.6-21 18.1-20.8c.5.2 15-4.4 15.2-4.4.3 0 7.5.8 7.5.8l4 1.1 2.1 2.5z" class="st1"/><path d="m625 91.6 14.5 1.3s1.6.1 2.3-2.9c.6-3 14.2-42.7 63.2-39.3l7-7.2s-10.6-3.2-20.2-3.3c-9.7-.1-25.5 4.5-25.5 4.5l-13 6.5-10.2 7.6L632.6 73l-4.2 8.3-2.3 6.2-2.3 2.9 1.2 1.2z" class="st1"/><path d="M639.5 92.9s8.2 22.7 36.2 23.4l-8.9 4.2s-34-1.1-34.4-1.5c-.4-.4-13.8-11.6-13.8-11.6s-2.1-7.2-1.6-9.2 3.7-8.3 3.7-8.3l4.3 1.7 14.5 1.3z" class="st4"/><path d="M663.9 22.1s25.3-2.8 28.8 9.9c3.5 12.6-13.1 9.1-13.1 9.1L675 30.9l-6.1-4.6-5-4.2zM651.4 130s33.6 3.7 49.9-6 36-20 42.9-54.7c6.9-34.6-28.1-37.6-43.8-37.7l-2.1 6.8 22.2 10.8 1.5 15.4 1.9 17.7-6.9 15.8-21.4 16-33.4 8.2s-7.1 1-7.6 1.3c-.8.6-3.2 6.4-3.2 6.4z" class="st0"/><path d="M725.6 45.9c-10.5-11.3-18.9-16.8-46.7-12.6 0 0-1.3-11.3-15.7-11.3-14.4 0-26 5.2-41.6 21.6s-17.6 35.3-15.9 50c1.7 14.7 15.3 31 34.6 35 19.2 4 45.6.9 68.4-20.3 22.9-21.1 27-51.5 16.9-62.4zm-87.3-5.8c5.6-7.5 17.8-14.6 27-13.3 9.2 1.3 9 8.1 9 8.1s-5.2.2-22.4 10.9c-20.3 12.7-26.7 41-26.7 41-3.5-24 7.5-39.1 13.1-46.7zM717.5 90c-3.6 5.4-21 26.3-49.4 26.3s-40.8-13.1-43.1-24.7c0 0 1.9-.5 2.5-2.9.7-2.4 10.3-38.7 58.5-40.1 48.2-1.4 35.1 36 31.5 41.4z" class="st3"/><path d="M495.4 104.4s-4.8 7.2.9 11c5.8 3.8-10.3 3.6-10.3 3.6l-8.5-6.8s.4-9.3.3-9.1 9.2-4.9 9.2-4.9l3.5-1 4.1 1.5.8 5.7zM499.8 90.4s11.9-1.1 22.5 1.6l2.9.9-5.8 6.8-8.6 1.4s-10.5-3.6-10.5-4.3c0-.7-.5-6.4-.5-6.4z" class="st4"/><path d="m522.7 98 14.4.7s12.1-10.6 17.3-16.4c5.2-5.8 11.4-12.8 11.4-12.8s40.5-1 35-33c0 0-1.6-6.7-7.4-8.6l-15.8-.4-9.6 17.7-11.8 16s-16.1 14.1-16.1 14.9c0 .8-11.7 14.1-11.7 14.1l-5.7 7.8z" class="st0"/><path d="M537 98.7s29.3 17.4 42.4 19.7l-15.6 6.9s-40.3-12-41.1-12.6c-.8-.6-6-5.9-6-5.9l1.5-3.6 4.5-5.3 14.3.8z" class="st1"/><path d="M517.5 115.4s-7.6 10.3-30.6 5.4l.7-2 9.8-2.1 12.8-11.4 9.9 3.3-2.6 6.8z" class="st1"/><path d="M605 92.9c-.1-2.6-.5-5.5-2.8-5.5s-1 5.9-1 5.9c.5 8-4.3 14.1-4.3 14.1-8.5 11.2-25.7 11.8-39.3 8.3C544 112.2 522.7 98 522.7 98l29-29.8c16.4-.2 23-6.4 26.7-8.8 3.7-2.4 7.4-8.8 8.3-11.1.9-2.3 2.3-11.9-3.3-17.6-5.6-5.7-10.9-2.3-12.2.5-1.4 2.8-5 8.3-9.4 13.7-4.4 5.4-16.6 11.1-19.8 11.9-3.2.9-13.1.9-13.1.9.6 6.6 12.6 10 12.6 10-3.7 7.8-23.2 28.5-23.2 28.5-10.8-5-15.1-5.7-15.1-5.7-23-2.1-27.3 10.6-28.1 15-.7 4.4.5 13.2 10.9 15s22.1-9.6 22.1-9.6 31.5 20.4 47.7 20.4c16.3 0 29.9-4.4 39.8-15.6 9.9-11 9.5-20.2 9.4-22.8zm-115.5 24.7c-7.3 0-10.4-4.5-10.4-8.7 0-4.2 3.9-7.3 8.5-7.1 4.6.2 16.6 7.1 16.6 7.1s-7.4 8.7-14.7 8.7z" class="st3"/><path d="M815.3 26.1s-19.8 4.6-26.4 32.5 15.9 33.1 15.9 33.1L783.4 96l-18.3-13.6.8-21.7 3.1-14.6 10.7-11.8 15.5-9.8 21-4.3 4.3 1.9-5.2 4z" class="st1"/><path d="M778.8 100.1s20.1 2.6 31.3.7c11.2-1.9 26.8-11.3 26.8-11.3l1.2-11.3-15.8 7.3-28.3 9.9-10.9 2-4.3 2.7z" class="st4"/><path d="m743.4 103.7 15.6.9s2.2 1.4 1.2 3.5c-1 2.1-4 2.7-4.6 7.7-.6 5.1-2.1 20.1 20.3 24.4 0 0-1.3 2.3-2 2.1-.7-.1-24.8-3.7-25-3.8s-9.7-10.2-9.8-11l-1.4-11.3 2.4-5.5 3.3-7z" class="st1"/><path d="M818.1 7.8s13.8-.3 14.6.6c.8.9 5.8 5.6 12.6 8.8 6.9 3.3 14.8 6.7 15.1 7.5.3.8-.3 2.7-1.7 5.5s-6.7 10-7.7 9.9c-1-.1-11.5.1-16.5-1.9-5-1.9-6.6-13.5-6.6-13.5l-9.8-14.2V7.8zM856.7 59.4c.1 0 14.1 1.2 14.1 1.2s2.6.5 2 4.9c-.6 4.5-8.4 27.9-26.3 47.5s-38.9 28.9-56.1 32.4c-17.2 3.4-37.9 0-37.9 0l6.4-1.7 15-2.6 13.5-3.4 8.2-3.1 9.1-4.7 10.6-7.3 10.4-16.9L844 72.2l7.4-7.1 5.3-5.7z" class="st0"/><path d="M743.4 103.7s-10.4 3.3-13.2 19c0 0-1.4 20.5 25.3 23 26.7 2.6 56.8-14.2 69.7-26.7s26.5-29.4 31.3-45.7c4.9-16.3.4-14-3.2-13.8-3.5.2-12.2 3-17.1 15.9 0 0-16.2 12.5-35.7 15.7-19.5 3.2-26-14.5-26.5-19.3s.6-49.8 37.5-47.8c0 0 4.5 2.2 8.3 5.5 3.8 3.3 12.2 10.1 17 8.9 4.9-1.2 9.5-12.2 9.3-13.6-.2-1.4-1.4-1.7-4.9-3.3-3.5-1.6-15.4-8.2-17.3-9.2-1.9-1-4.2-4.5-6-4.5-1.7 0-6 1-7.5 11.6 0 0-24.5.8-45.2 23.3-20.6 22.5-6.8 45.1-5.6 47.2 1.3 2.1 14.3 15 36.3 9.1 22-5.9 38.5-18 38.5-18s-7.4 19.4-18.5 31.7-26.9 27.8-50 27.2c-23-.6-26.1-18.2-25.7-21.2.4-3 1.3-8.5 5.3-12.1.3.1 1.1-3-2.1-2.9z" class="st3"/></svg>