<?xml version="1.0" encoding="utf-8"?>
<!-- Generator: Adobe Illustrator 22.1.0, SVG Export Plug-In . SVG Version: 6.00 Build 0)  -->
<svg version="1.1" id="Слой_1" xmlns="http://www.w3.org/2000/svg" xmlns:xlink="http://www.w3.org/1999/xlink" x="0px" y="0px"
	 viewBox="0 0 458.7 188.6" style="enable-background:new 0 0 458.7 188.6;" xml:space="preserve">
<style type="text/css">
	.st0{fill:#FFFFFF;}
</style>
<g>
	<path class="st0" d="M134,105.3c11.7,3.7,23.2,8.4,37.1,6.9c-7.6-5.2-14.3-9.9-21.1-14.5c0.3-0.6,0.6-1.2,0.9-1.7
		c12.3,3.9,23.6,10.7,37,11.9c-7.4-4.6-14.7-9.1-22.1-13.7c0.1-0.3,0.3-0.6,0.4-0.9c13.7,4,27.4,8,41.2,12.1c4,1.2,8.2,2.1,12,3.8
		c4.6,2.1,8.6,1,12.6-1.2c5.8-3.2,11.6-6.4,17.3-9.8c9.1-5.4,18.7-9.8,29.3-10.2c7.5-0.2,15.1,1,22.6,2.1
		c24.2,3.7,48.4,4.2,72.6-0.2c20.3-3.7,39.6-10.2,57.6-20.2c1.2-0.7,2.3-1.5,4.3-2.7c-6-1.1-11.1-2-16.2-2.9c-11-1.9-21.2-6-31-11.2
		c-21.5-11.4-42.8-23-65.4-32.1c-12.5-5.1-25.3-9.5-38.8-10.7c-10.8-1-21.7-0.4-32.5,0.2c-8,0.4-16,1.7-23.9,3.1
		c-3.2,0.6-6.6,1.9-9.3,3.8c-6,4.3-11.6,9.1-17.9,14.2c-1.8-3.8-3.4-7.1-5.2-10.8c-23.6,10.2-45,24.3-68.9,33.3
		c23.3-12.8,46.5-25.6,70.2-38.6c1.8,3.3,3.5,6.4,5.4,9.8c3.6-2.9,7.2-5.7,10.6-8.7c4.5-3.9,9.2-6.7,15.4-7.4
		c14.6-1.5,29-4.2,43.6-5.2c18-1.2,35,4.2,51.6,10.4c21.4,8.1,41.9,18.5,62,29.4c19.3,10.4,39.3,17.2,61.6,15.5
		c2.5-0.2,5.1,1.3,7.7,1.9c0,0.5,0.1,1,0.1,1.5c-4.6,3.2-9,6.7-13.8,9.5c-20.5,12.4-42.8,20-66.3,24.3c-17.1,3.2-34.5,3.2-51.7,2.3
		c-8.6-0.5-17.2-1.8-25.6-3.9c-16.4-4.2-31.4-1.2-45.7,7.1c-5.9,3.4-11.9,6.7-18,9.7c-4.9,2.5-9.9,3.4-15.6,1.1
		c-7.6-3-15.6-5-23.5-7.4c-0.9-0.3-1.9-0.3-3.2,0.4c4.5,3.1,9,6.2,13.5,9.4c-12.8-0.1-24.2-4.8-36.2-8.1c2.8,2.1,5.7,4.3,8.8,6.6
		C166,116.8,146.7,113.1,134,105.3z"/>
	<path class="st0" d="M3.1,64.2c1.8,0.3,3.6,0.3,5.2,0.8c28.7,8,57.3,5.8,85.9-0.1c6.4-1.3,12.7-3.6,19.1-4.8c8.4-1.6,17-2.4,25.4-4
		c35.3-6.7,70.8-9.8,106.7-9.4c23.9,0.3,47.8,1.6,71.5,5.2c14.1,2.2,28.2,4.2,42.2,6.4c2.2,0.3,4.4,1.1,6.6,2.2
		c-4-0.4-8-0.8-11.9-1.2c-19.2-1.7-38.4-3.2-57.6-4.9c-24.1-2.2-48.2-2.7-72.3-1c-16.6,1.2-33.3,2.1-49.8,4.6
		c-29.9,4.5-59.7,10.5-89.6,15.2c-25.8,4.1-51.6,4.3-76.8-4.5C6,68,2.3,68.7,3.1,64.2z"/>
	<path class="st0" d="M81,180.7c-1.6,0.4-3.2,1-4.9,1c-9.7,0-19.3-0.9-28.6-3.9c-9.7-3.1-17.2-9.2-23.3-17.3
		c-8.3-11.1-8.2-28.4-0.8-39.2c8.4-12.1,19.9-19.2,34.5-20.6c9.7-1,15.5,4.1,15.1,12.7c-0.2,5.3-3,8.7-8.4,10.4
		c-5.6,1.8-12.4,0.4-15.1-3.1c-2.1-2.7-1.4-6.5,2.2-9.7c1.1,2,2,3.9,3,5.7c2,3.6,6.2,4.9,9.8,3.1c4.4-2.2,4.8-8.1,0.6-10.7
		c-5.1-3.1-10.8-3.6-16.3-1.8c-13.6,4.6-20.8,14.8-22.7,28.6c-1.7,12.4,3.7,22.4,12.9,30.3c9.6,8.3,21.2,10.9,33.5,11.8
		c2.8,0.2,5.6,0.7,8.4,1.1C81,179.5,81,180.1,81,180.7z"/>
	<path class="st0" d="M108.7,186c2.2-12.3,5.9-24.7-3.1-36.8c-4.8,3.2-9,6.1-12.9,8.8c-1.6,8.1,4.5,16.2-1.5,24.2
		c-1.5-1.3-2.7-2.1-3.4-3.1c-1.7-2.7-3.1-5.6-4.8-8.3c-2.4-3.8-2.8-7.7,0-11.2c2-2.5,2.1-5.1,1.8-7.9c-1-12.4-2-24.8-2.9-37.2
		c-0.4-5.3,2.2-8.5,8.8-10.3c0,15.6,0,31.1,0,46.5c0.4,0.2,0.8,0.3,1.3,0.5c2.5-2.2,4.9-4.5,7.4-6.6c6.5-5.5,11-4.4,14.7,3.3
		c5.6,11.7,4,23.4-0.4,35.1c-0.5,1.5-2.1,2.5-3.2,3.8C109.9,186.4,109.3,186.2,108.7,186z"/>
	<path class="st0" d="M271.3,141c-2.6,1.2-4.2,1.9-5.8,2.6c-10.8,4.9-17.4,14.3-16.5,23.6c0.6,6.1,5.5,9.7,10.9,7.7
		c4.1-1.5,6.4-4.6,6.6-9.2c0.2-5,0.4-10,1-15c0.6-4.8,3.9-7.4,10-7.8c-0.4,4.6-0.6,9.2-1.1,13.7c-0.4,3.4-1.1,6.7-1.5,10.1
		c-0.4,4.5,1.6,8.3,4.9,9.5c4,1.4,7.1-0.1,9.4-3.4c0.7-0.9,1.3-1.9,2.3-3.3c1.8,5.8,1.1,7.5-3.2,10.2c-7.3,4.6-13.1,3.6-21.3-3.8
		c-0.8,0.6-1.8,1.3-2.7,2c-5.2,4.1-10.9,5.2-16.8,2c-5.6-3.1-6.9-8.4-6.7-14.4C241.4,153.3,259.2,136.9,271.3,141z"/>
	<path class="st0" d="M409,141.4c-1.6,0.7-3.1,1.4-4.7,2.1c-8.5,4.2-15.1,10-16.4,20c-0.9,6.5,2,11.3,7.2,11.8
		c5.6,0.5,10-3.8,10.3-10.1c0.3-4.8,0.2-9.7,1-14.4c0.9-5.3,3.9-7.5,9.4-7.8c0,3.5,0.3,7-0.1,10.5c-0.3,3.6-1.3,7.1-1.9,10.7
		c-0.2,1.6-0.3,3.2-0.2,4.8c0.3,3.5,2,6.2,5.3,7.3c3.1,1,5.9,0.2,8.1-2.4c1.1-1.3,2.4-2.4,3.9-3.9c1.4,5,0.4,7.2-3.7,9.8
		c-7.5,4.6-13.3,3.6-21.3-3.9c-1.3,1-2.6,2.1-4.1,3c-4.9,3.2-10.1,3.9-15.4,1.1c-5-2.6-6.6-7.3-6.8-12.6
		C379.5,153.5,394.6,139.4,409,141.4z"/>
	<path class="st0" d="M351.1,148.9c1.5-2.5,2.5-4.6,3.9-6.5c2.9-4,6.6-4.7,10.4-1.5c2.5,2.1,4.8,5.1,5.8,8.1
		c3.5,10.4,1.2,20.6-2.4,30.6c-0.4,1-1.4,1.8-3.2,4c-0.3-3-0.7-4.7-0.6-6.3c0.4-6,1.4-12,1.5-18c0.1-3.5-0.1-8.2-4.4-9
		c-4.6-0.9-5.5,4-6.6,7.2c-2,5.4-3.3,11.1-5,16.7c-1,3.4-1.8,7-6.7,8.7c-0.2-2.7-0.6-5-0.4-7.2c0.3-5.4,1.1-10.8,1.2-16.2
		c0.1-7.5-1.3-8.8-8.9-9.4c-0.5,0-1-0.5-1.9-0.9c2.6-4.4,6.6-6.5,11.1-7.4c1.3-0.3,3.3,1.1,4.3,2.3
		C350.2,145,350.4,146.8,351.1,148.9z"/>
	<path class="st0" d="M135.4,171c8.8,7.4,16.7,4.1,25.1,0.4c-0.4,1.2-0.5,2.6-1.3,3.4c-8.5,9.7-25.4,9-32.6-1.7
		c-1.8-2.6-3.1-6.3-2.9-9.4c0.6-10,6.5-17,14.7-22c3.3-2.1,7-1.8,10,1c3.1,2.8,4.3,6.3,3.4,10.3c-1.4,6-5.2,10.3-10,13.8
		C139.9,168.1,137.9,169.4,135.4,171z M142.5,150.4c-5-1.5-6.3-1-9,3.2c-3.6,5.8-3.7,10.1-0.2,13.9
		C140.9,163.6,143.6,158.8,142.5,150.4z"/>
	<path class="st0" d="M312.2,180.1c-1.7,3.1-4,2.8-6.3,1.6c-3.8-1.9-6.3-5.1-7-9.3c-0.6-3.7-1.2-7.6-1.2-11.4
		c0-14.7,0.1-29.4,0.3-44c0.1-6,1.5-11.4,8.5-15.4c-0.3,4.4-0.3,7.8-0.8,11.3c-2.2,17.4-2.3,34.9-0.4,52.3c0.4,3.9,3.5,7.5,5.3,11.3
		C311.1,177.8,311.7,179,312.2,180.1z"/>
	<path class="st0" d="M233.3,156.7c-2.3-2.6-3.8-4.1-5.7-6.2c-7.1,9.8-5.2,22.4-11.9,32.9c-2.1-3.7-4-6.5-5.3-9.5
		c-2.2-4.9-3.9-10.1-6.2-15c-1.6-3.4-3.6-6.6-5.9-9.5c-3.9-4.9-3.3-9.9-1.2-15.6c6.1,2,7.9,6.9,9.8,11.6c2.6,6.9,5.1,13.9,7.6,20.9
		c0.3,0.7,0.8,1.3,1.6,2.6c1.5-5.4,2.8-10.1,4.2-14.8c0.4-1.3,0.8-2.7,1.4-4c1.2-3,2.9-5.4,6.6-4.8c3.1,0.5,5.2,3.1,5.5,7
		C233.7,153.4,233.5,154.4,233.3,156.7z"/>
	<path class="st0" d="M168.2,182.2c-2.9-2.7-2.1-6.1-1.9-9.4c0.2-5.5,0.2-11.1,0.1-16.7c0-2.8-0.6-5.7-0.3-8.4
		c0.4-2.9,1.6-5.8,5.5-6.5c0.7,1.4,1.3,2.8,1.5,3.2c6.3-2.4,12.4-4.7,18.6-7.1c3.1,4.3,1,6.6-1.1,9c-0.8,0-1.4,0.2-2,0.1
		c-8.9-2-13,0.7-14,10.1c-0.4,4.1,0.1,8.4,0.6,12.5C176,175.6,174.5,178.6,168.2,182.2z"/>
	<path class="st0" d="M324,182.7c-5.5-4.2-5.3-9-5.6-13.1c-0.5-7-0.2-14-0.3-21.1c0-4.4,2.1-7.1,6.7-8.2c0.6,0.8,1.7,1.7,1.6,2.3
		C323.4,155.4,327,168.8,324,182.7z"/>
	<path class="st0" d="M322.9,103.4c2.6,2.7,5,4.8,6.9,7.3c2.3,3.1,1.4,6.5-1.8,8c-2.8,1.3-5.6-0.1-7-3.5
		C319.5,111.7,319.9,108.5,322.9,103.4z"/>
</g>
</svg>
