<svg xmlns="http://www.w3.org/2000/svg" width="186" height="155" fill="none"><path fill="url(#a)" fill-rule="evenodd" d="M80.097 78.1h1.9c2 0 3.3-.8 3.3-2.5 0-1.8-1.2-2.4-3.2-2.4h-1.9v4.9h-.1Zm0 8h-3.4V70.2h5.5c4 0 6.5 1.7 6.5 5.3 0 3.6-2.6 5.6-6.8 5.6h-1.7v5h-.1Z" clip-rule="evenodd"/><path fill="url(#b)" fill-rule="evenodd" d="M102.997 78.098c0-3.6-1.7-5.2-4.1-5.2-2.2 0-4 1.7-4 5.2s1.8 5.2 4.2 5.2c2.3 0 3.9-1.6 3.9-5.2Zm-11.8 0c0-5.3 3.2-8.2 7.6-8.2 4.9 0 7.7 3.1 7.7 8.2 0 5.7-3.3 8.2-7.7 8.2-4.5 0-7.6-2.8-7.6-8.2Z" clip-rule="evenodd"/><path fill="url(#c)" fill-rule="evenodd" d="M121.698 85.398c-.8.4-2 .9-4.3.9-4.9 0-8.1-2.8-8.1-8 0-5.5 3.2-8.4 8.4-8.4 1.7 0 3.2.4 4 .7l-.7 2.9c-1-.3-2-.5-2.8-.5-3.1 0-5.3 1.6-5.3 5.1 0 3.4 2 5.1 5.2 5.1.7 0 1.8-.2 2.8-.6l.8 2.8Z" clip-rule="evenodd"/><path fill="url(#d)" fill-rule="evenodd" d="M128.098 80h5.5l-2.7-7.5h-.1l-2.7 7.5Zm6.1 1.8h-6.8l-1.5 4.2h-2.1l6.1-15.9h2l6 15.9h-2.1l-1.6-4.2Z" clip-rule="evenodd"/><path fill="url(#e)" fill-rule="evenodd" d="M144.997 86.1h-2.1v-14h-4.7v-1.9h11.5v1.9h-4.7v14Z" clip-rule="evenodd"/><path fill="url(#f)" fill-rule="evenodd" d="M163.998 78.098c0-4.4-2-6.3-5.1-6.3-2.8 0-4.9 2-4.9 6.3 0 4.2 2.1 6.3 5.2 6.3 3 0 4.8-2.2 4.8-6.3Zm-12.2 0c0-5.1 2.9-8.2 7.1-8.2 4.7 0 7.3 3.4 7.3 8.2 0 5.4-3 8.2-7.2 8.2-4.4 0-7.2-3.1-7.2-8.2Z" clip-rule="evenodd"/><path fill="url(#g)" fill-rule="evenodd" d="M185.997 86.1h-2.1l-1-12.5-4 12.5h-2.1l-4-12.4-1 12.4h-2.1l1.4-15.9h2.5l4.3 13.6 4.2-13.6h2.5l1.4 15.9Z" clip-rule="evenodd"/><path fill="url(#h)" fill-rule="evenodd" d="M27.798 73.198c-2.5 2.8-2.3 7.1.5 9.7 2.8 2.5 7.1 2.3 9.7-.5 2.5-2.8 2.3-7.1-.5-9.7-1.3-1.2-3-1.8-4.6-1.8-1.9 0-3.7.8-5.1 2.3Z" clip-rule="evenodd"/><path fill="url(#i)" fill-rule="evenodd" d="M13.298 51.6c10.1-4.9 17-1.5 21.4 2.7.6.6 1.1 1.1 1.6 1.7 2.8 3.3 4 6.5 4 6.5 1.8.3 3.4.4 4.9.3h.6c3.4-.3 7.8-1.6 11.8-5.6l.4-.4c-.6-.7-1.3-1.5-2-2.2-6.4-6.4-14.8-9.6-23.1-9.6-6.9 0-13.8 2.2-19.6 6.6Z" clip-rule="evenodd"/><path fill="url(#j)" fill-rule="evenodd" d="M1.097 68.9c-4.2 15.9 4 32.199 18.7 38.499-9.3-6.3-9.8-14-8.3-19.9.2-.8.4-1.5.7-2.2 1.5-4 3.6-6.8 3.6-6.8-.6-1.7-1.3-3.1-2.2-4.4-.1-.1-.1-.2-.2-.2l-.2-.2c-2-2.8-5.3-5.9-10.8-7.4-.2 0-.4-.1-.6-.1-.1.8-.5 1.8-.7 2.7Z" clip-rule="evenodd"/><path fill="url(#k)" fill-rule="evenodd" d="M51.998 91.098c-.8.2-1.5.4-2.3.5-4.2.7-7.7.2-7.7.2-1.2 1.4-2.1 2.7-2.8 4.1 0 .1-.1.2-.1.3 0 .1-.1.2-.1.2-1.4 3.1-2.5 7.5-1 13 0 .2.1.4.2.6 1-.2 1.9-.4 2.9-.6 15.9-4.3 25.9-19.6 24-35.5-.9 11.2-7.3 15.5-13.1 17.2Z" clip-rule="evenodd"/><path fill="url(#l)" fill-rule="evenodd" d="M13.298 51.6s-7.1 4.5-10.8 13.4c1 .2 10.9 2.2 14.6 13.2.9-.6 3.7-2.8 5.5-8.8 2.3-7.3 6.5-12.7 12.1-15 0 0-3.8-5.4-11.5-5.4-2.8-.1-6.1.6-9.9 2.6Z" clip-rule="evenodd"/><path fill="url(#m)" fill-rule="evenodd" d="M19.798 107.4s7.4 3.9 17 2.7c-.2-.5-1-2.8-1-6.1 0-3.7 1-8.6 5.1-13.2v-.1c-.7-.7-3-2.5-9.1-1.1-7.4 1.7-15.7 1.5-20.5-2.1.2.1-5 11.2 8.5 19.9Z" clip-rule="evenodd"/><path fill="url(#n)" fill-rule="evenodd" d="M44.398 64.399c-1.4 0-2.8-.1-4.3-.5h-.1c-.3 1-.5 3.9 3.6 8.3 5.2 5.6 9.1 12.8 8.4 18.8 0 0 12.2-1.1 13.1-17.1 0 0-.3-8.4-6.2-16.1-1.1 1.3-6.1 6.6-14.5 6.6Z" clip-rule="evenodd"/><defs><linearGradient id="h" x1="26.06" x2="39.733" y1="77.759" y2="77.759" gradientUnits="userSpaceOnUse"><stop stop-color="#1C8AE2"/><stop offset=".486" stop-color="#8B00B3"/><stop offset="1" stop-color="#6900B5"/></linearGradient><linearGradient id="a" x1="-.551" x2="184.34" y1="78.122" y2="78.122" gradientUnits="userSpaceOnUse"><stop stop-color="#1C8AE2"/><stop offset=".486" stop-color="#8B00B3"/><stop offset="1" stop-color="#6900B5"/></linearGradient><linearGradient id="c" x1="-.551" x2="184.341" y1="78.12" y2="78.12" gradientUnits="userSpaceOnUse"><stop stop-color="#1C8AE2"/><stop offset=".486" stop-color="#8B00B3"/><stop offset="1" stop-color="#6900B5"/></linearGradient><linearGradient id="d" x1="-.551" x2="184.341" y1="78.122" y2="78.122" gradientUnits="userSpaceOnUse"><stop stop-color="#1C8AE2"/><stop offset=".486" stop-color="#8B00B3"/><stop offset="1" stop-color="#6900B5"/></linearGradient><linearGradient id="e" x1="-.551" x2="184.34" y1="78.121" y2="78.121" gradientUnits="userSpaceOnUse"><stop stop-color="#1C8AE2"/><stop offset=".486" stop-color="#8B00B3"/><stop offset="1" stop-color="#6900B5"/></linearGradient><linearGradient id="f" x1="-.551" x2="184.341" y1="78.12" y2="78.12" gradientUnits="userSpaceOnUse"><stop stop-color="#1C8AE2"/><stop offset=".486" stop-color="#8B00B3"/><stop offset="1" stop-color="#6900B5"/></linearGradient><linearGradient id="g" x1="-.552" x2="184.34" y1="78.121" y2="78.121" gradientUnits="userSpaceOnUse"><stop stop-color="#1C8AE2"/><stop offset=".486" stop-color="#8B00B3"/><stop offset="1" stop-color="#6900B5"/></linearGradient><linearGradient id="b" x1="-.551" x2="184.34" y1="78.12" y2="78.12" gradientUnits="userSpaceOnUse"><stop stop-color="#1C8AE2"/><stop offset=".486" stop-color="#8B00B3"/><stop offset="1" stop-color="#6900B5"/></linearGradient><linearGradient id="i" x1="32.862" x2="38.691" y1="47.166" y2="61.807" gradientUnits="userSpaceOnUse"><stop stop-color="#1C8AE2"/><stop offset=".486" stop-color="#8B00B3"/><stop offset="1" stop-color="#6900B5"/></linearGradient><linearGradient id="j" x1="16.8" x2="3.516" y1="98.53" y2="73.546" gradientUnits="userSpaceOnUse"><stop stop-color="#1C8AE2"/><stop offset=".486" stop-color="#8B00B3"/><stop offset="1" stop-color="#6900B5"/></linearGradient><linearGradient id="k" x1="63.225" x2="38.267" y1="86.838" y2="99.618" gradientUnits="userSpaceOnUse"><stop stop-color="#1C8AE2"/><stop offset=".486" stop-color="#8B00B3"/><stop offset="1" stop-color="#6900B5"/></linearGradient><linearGradient id="l" x1="14.789" x2="23.09" y1="66.536" y2="51.065" gradientUnits="userSpaceOnUse"><stop stop-color="#1C8AE2"/><stop offset=".486" stop-color="#8B00B3"/><stop offset="1" stop-color="#6900B5"/></linearGradient><linearGradient id="m" x1="36.853" x2="18.997" y1="96.324" y2="99.867" gradientUnits="userSpaceOnUse"><stop stop-color="#1C8AE2"/><stop offset=".486" stop-color="#8B00B3"/><stop offset="1" stop-color="#6900B5"/></linearGradient><linearGradient id="n" x1="52.078" x2="57.91" y1="67.49" y2="84.671" gradientUnits="userSpaceOnUse"><stop stop-color="#1C8AE2"/><stop offset=".486" stop-color="#8B00B3"/><stop offset="1" stop-color="#6900B5"/></linearGradient></defs></svg>