<svg xmlns="http://www.w3.org/2000/svg" xml:space="preserve" id="Слой_1" x="0" y="0" style="enable-background:new 0 0 709 316.5" version="1.1" viewBox="0 0 709 316.5"><style>.st1{fill:#fff}</style><linearGradient id="SVGID_1_" x1="0" x2="387.423" y1="162.945" y2="162.945" gradientUnits="userSpaceOnUse"><stop offset="0" style="stop-color:#dfdf00"/><stop offset=".009" style="stop-color:#dfdf00"/><stop offset=".28" style="stop-color:#dfdf00"/><stop offset=".67" style="stop-color:#6dac3b"/><stop offset=".89" style="stop-color:#297380"/></linearGradient><path d="M380.3 217.4c-2 5.9-4.8 11.5-8.1 16.7-6-18.1-50.5-34.1-118.9-40-2.8-1.6-7.9-2.8-14.7-3.4-8.3-.7-17.2-.1-23.8 1.2-38.4-1-76.7 1.4-109.9 6.4-1.1-.1-2.2-.3-3.4-.4-9-.7-18.7.2-24.3 2.2-12.1-12.7-21.9-26.1-28.7-39.7 1.9-1.2 3.4-2.8 4.3-4.8 1.3-2.9 1.3-6.3-.1-9.8-2.2-5.5-7.5-10.2-13.9-12.7-4.8-21.4-1.8-41.9 8.7-59.2 1.6.4 3.1.5 4.6.5 4.4-.1 8.1-1.8 10.1-4.7 1.9-2.8 2.1-6.3.6-10-.4-.9-.9-1.9-1.5-2.8 16.1-15.3 39.1-25.5 66.6-29.8 3.6 3.6 8.6 5.8 13.5 5.8 3.5 0 6.5-1.3 8.3-3.5 1-1.3 1.6-2.8 1.8-4.4 1.2 0 2.4-.1 3.6-.1 20.8-.2 45.7 4.2 72.2 12.8.1.2.1.4.2.6 2 5 8.1 8.8 13.8 8.8h.1c2.5 0 4.6-.8 6.1-2.1 9.4 3.7 18.6 7.8 27.5 12.1l2.5-4.5c-8.8-5.3-18.1-10.2-27.7-14.5-.1-.6-.3-1.3-.5-1.9-2-5-8.2-8.8-14-8.8-2.5 0-4.7.8-6.2 2.2-28.1-10.3-55.9-15.3-83-15.3-3.5-3-8.3-4.9-12.5-4.8-4.9.1-8.6 2.5-9.7 6.2-30.4 3.6-55.9 15-74 32.8-2.3-.8-4.7-1.2-7-1.2-4.4.1-8.1 1.8-10.1 4.7-1.9 2.8-2.1 6.3-.6 10 .7 1.7 1.8 3.4 3.2 4.9-11.4 19-15.4 41.7-11.9 65.9-2.6 1.1-4.7 2.9-5.9 5.2-1.6 3-1.6 6.6-.1 10.3 2.1 5.2 7.2 9.9 13.4 12.5.5 1.5 1.1 2.9 1.7 4.4 6 14.8 14.6 29.3 25.2 43.2-18 5.1-32.4 11.3-41.5 18.3-.8.6-1.4 1.2-2.1 1.8-5.9.3-11.2 1.4-13.4 3-2.6 2 .4 4 6.6 5-4.5 8.8.1 17.4 12.3 25-1.8.4-3.3 1-4.1 1.6-2.6 2 1.2 4 8.5 4.6 2.6.2 5.3.2 7.7 0 17.9 7.7 44.4 14 77.4 17.9.2 1.2 3.1 2.3 7.7 2.7 4.2.3 8.7 0 11.7-.8 11.7.9 23.5 1.5 35.4 1.7 20.6 8.9 41.9 15.1 63.2 18.4 7 5.6 15.8 8.9 24 8.9h.4c6.7-.1 12.1-2.3 15.6-6.3 66.6-2.1 112.8-38 117.9-91.7l2.1-22.4-6.9 21.3zm-241.4 68.9c-2.2-.2-4.3-.4-6.5-.6 1-1.5-2.1-2.9-7.6-3.3-4.7-.4-9.8.1-12.8 1.1-31-4-55.9-9.9-72.6-17 1.1-.4 2-.8 2.6-1.2 2.6-2-1.2-4-8.5-4.6-2-.2-4-.2-5.9-.1-11.8-7.3-15.7-15.4-9.9-23.5 6.2-.2 11.9-1.4 14.1-3.1 2.4-1.8 0-3.7-5.3-4.8 8.3-5.3 20.9-10.1 36.6-14.2 7.2 8.6 15.1 17 23.9 24.9-.1 2.4.3 4.9 1.4 7.4 4.3 10.6 17.2 18.9 29.6 18.7.9 0 1.8-.1 2.7-.2 12.7 8.3 26 15.6 39.7 21.7-7.3-.3-14.5-.7-21.5-1.2zm204.3-24.7c-1.3-1.9-3.3-3.8-6.1-5.5 1-.2 1.8-.5 2.3-.9 1.4-1.1-.7-2.2-4.7-2.5-1.4-.1-2.9-.1-4.3 0-9.9-4.3-24.5-7.7-42.7-9.9-.1-.7-1.7-1.3-4.3-1.5-2.3-.2-4.8 0-6.5.4-15.9-1.3-32.3-1.4-47.9-.6-.5-.4-1.6-.6-3-.8-2.7-.2-5.6.2-6.5.9-.2.2-.3.3-.3.5-5.6.4-11 1-16.3 1.7 5.2-.5 10.8-.9 16.7-1.2.5.3 1.6.6 3 .7 2.7.2 5.6-.2 6.5-.9.1-.1.2-.2.2-.3 14-.5 28.7-.4 42.1.6l3.6.3c-.5.8 1.2 1.6 4.2 1.8 2.6.2 5.4-.1 7.1-.6 17.1 2.2 30.8 5.5 40.1 9.4-.6.2-1.1.4-1.4.7-1.4 1.1.7 2.2 4.7 2.5 1.1.1 2.2.1 3.3.1 3.7 2.3 6 4.8 6.6 7.3-19.8 11-45.1 17.3-73.9 17.6h-4c-7.3-6.7-17.3-10.9-26.4-10.7-6.6.1-12.1 2.3-15.5 6.3-29.6-5.9-59.5-17.4-86.8-33.3-4.3-9.1-15.3-16.4-26.2-17.4-7.1-5.3-13.7-10.9-19.9-16.6.7-.1 1.4-.3 2.1-.4 10.7.6 21.9-1.1 25.8-3.9 28.2-3.6 60.1-5.4 92.1-5 2.8 1.6 7.9 2.9 14.8 3.4 9.3.8 19.2 0 26-1.8 1.7.1 3.5.2 5.2.4 62 5 105.4 17.6 119.2 32-7.2 10.8-16.9 19.9-28.9 27.2z" style="fill:url(#SVGID_1_)"/><path d="M94.1 69.9H98l13 35.9h-4.6l-3.4-9.5H89.2l-3.4 9.5h-4.6l12.9-35.9zm7.4 22.4-5.3-14.8H96l-5.3 14.8h10.8zM116.5 69.9h19.7v3.8h-15.4v32.1h-4.4V69.9zM141.8 69.9h22.5V74h-18.1v11.2h15.2v4h-15.2v12.6h18.1v4.1h-22.5v-36zM193 69.9h4.3v35.9H193v-16h-17.7v16h-4.4V69.9h4.4v15.9H193V69.9zM202.8 69.9h26.9v3.9h-11.2v32h-4.3v-32h-11.4v-3.9zM248.7 69.6c7.8 0 12 4.1 12.5 12.2h-4.3c-.4-5.9-2.8-8.2-8.2-8.2h-2.2c-5.6 0-8.2 2.5-8.2 8.6v11.7c0 5.2 3 8.4 8.2 8.4h2.2c5.4 0 7.8-3.5 8.1-8.8h4.3c-.3 7.4-4.3 12.8-12.4 12.8h-2.2c-3.9 0-7.1-1.1-9.3-3.4-2.2-2.3-3.3-5.3-3.3-9V82.2c0-8.7 4.7-12.6 12.6-12.6h2.2zM263.7 69.9h26.9v3.9h-11.2v32h-4.3v-32h-11.4v-3.9zM296.1 69.9h14.3c5.4 0 10 4.4 10 9.7 0 3-1.6 5.7-4 7.3 3.3 1.6 5.3 4.9 5.3 8.6 0 2.8-1 5.3-3.1 7.3-2 2-4.5 3-7.5 3h-15V69.9zm4.3 15.4h10.2c1.5 0 2.7-.6 3.8-1.6 1.1-1.1 1.6-2.5 1.6-4s-.6-2.9-1.7-4-2.4-1.7-3.9-1.7h-10v11.3zm0 16.5h10.7c1.7 0 3.2-.6 4.4-1.8 1.2-1.2 1.8-2.7 1.8-4.4 0-3.5-2.8-6.3-6.2-6.3h-10.7v12.5zM341.8 69.6c7.9 0 12.6 4 12.6 12.6v11.6c0 3.7-1.1 6.7-3.4 9-2.2 2.3-5.3 3.4-9.2 3.4h-2.2c-8 0-12.6-5.1-12.6-12.4V82.3c0-9 5-12.6 12.6-12.6h2.2zm8.3 12.7c0-6.2-2.7-8.6-8.3-8.6h-2.2c-5.6 0-8.2 2.5-8.2 8.6v11.6c0 5.2 3 8.4 8.2 8.4h2.2c5.3 0 8.3-3.2 8.3-8.4V82.3zM377.6 69.9h14.3c2.7 0 5.1 1 7.1 2.9s3 4.2 3 6.8c0 2.7-1 5-3 6.9-2 1.9-4.3 2.9-7.1 2.9H382v16.5h-4.4v-36zm4.3 15.4h9.9c1.5 0 2.9-.6 3.9-1.6 1.1-1.1 1.7-2.5 1.7-4.1 0-3.1-2.5-5.6-5.7-5.6h-9.9v11.3zM414.4 69.9h3.9l13 35.9h-4.6l-3.4-9.5h-13.8l-3.4 9.5h-4.6l12.9-35.9zm7.3 22.4-5.3-14.8h-.2l-5.3 14.8h10.8zM434.2 69.7h13.3c2.9 0 5.2 1 7 2.9 1.8 1.9 2.7 4.3 2.7 7.2 0 3.3-1.6 6.2-4 7.6 2.5 1.7 4 4.8 4 8.5 0 3-.9 5.4-2.8 7.3-1.8 1.9-4.1 2.8-6.9 2.8h-13.3v-4.1h13.3c3 0 5.3-2.4 5.3-6.1 0-3.8-2.4-6.6-5-6.6h-9.3v-4h9.3c2.9 0 5-2.3 5-5.5 0-3.5-2.3-6.1-5.3-6.1h-13.3v-3.9zM464 69.9h14.3c5.4 0 10 4.4 10 9.7 0 3-1.6 5.7-4 7.3 3.3 1.6 5.3 4.9 5.3 8.6 0 2.8-1 5.3-3.1 7.3s-4.5 3-7.5 3h-15V69.9zm4.3 15.4h10.2c1.5 0 2.7-.6 3.8-1.6 1.1-1.1 1.6-2.5 1.6-4s-.6-2.9-1.7-4-2.4-1.7-3.9-1.7h-10v11.3zm0 16.5H479c1.7 0 3.2-.6 4.4-1.8 1.2-1.2 1.8-2.7 1.8-4.4 0-3.5-2.8-6.3-6.2-6.3h-10.7v12.5zM518.7 69.9h3.9v35.9h-4.4V78.1l-18.9 27.8h-3.6v-36h4.4v27.3l18.6-27.3zM527.7 69.9h26.9v3.9h-11.2v32H539v-32h-11.4v-3.9zM582.5 69.9h3.9v35.9H582V78.1l-18.9 27.8h-3.6v-36h4.4v27.3l18.6-27.3zM617.9 69.9v35.9h-4.4V89.4h-6.6l-9 16.5h-4.8l9.2-16.8-.7-.1c-2.2-.4-4.2-1.5-5.7-3.2-1.5-1.8-2.3-3.8-2.3-6.1 0-2.7 1-5 2.9-6.9 2-1.9 4.4-2.9 7.1-2.9h14.3zm-4.4 15.4V74h-9.9c-1.6 0-2.9.6-4 1.7s-1.7 2.5-1.7 4.1c0 1.5.6 2.9 1.7 4s2.5 1.6 4 1.6h9.9zM112.2 131.5H139v3.9h-11.2v32h-4.3v-32h-11.4v-3.9zM144.5 131.5H167v4.1h-18.1v11.2h15.2v4h-15.2v12.6H167v4.1h-22.5v-36zM193.5 131.5h5.1l-11.6 18 11.6 18h-5.1l-9.1-14.1-9 14.1h-5.1l11.6-18-11.6-18h5.1l9 14.1 9.1-14.1zM226.2 131.5h4.3v35.9h-4.3v-16h-17.7v16h-4.4v-35.9h4.4v15.9h17.7v-15.9zM253 131.2c7.9 0 12.6 4 12.6 12.6v11.6c0 3.7-1.1 6.7-3.4 9-2.2 2.3-5.3 3.4-9.2 3.4h-2.2c-8 0-12.6-5.1-12.6-12.4v-11.6c0-9 5-12.6 12.6-12.6h2.2zm8.3 12.6c0-6.2-2.7-8.6-8.3-8.6h-2.2c-5.6 0-8.2 2.5-8.2 8.6v11.6c0 5.2 3 8.4 8.2 8.4h2.2c5.3 0 8.3-3.2 8.3-8.4v-11.6zM275.9 131.5h20.5v35.9h-4.3v-31.9h-12.4l-2.8 25.1c-.4 3.7-2.5 6.4-5.7 6.7l-.8.1-.5-3.7h.9c1.2-.4 1.9-1.4 2-3.2l3.1-29zM318.9 131.2c7.9 0 12.6 4 12.6 12.6v11.6c0 3.7-1.1 6.7-3.4 9-2.2 2.3-5.3 3.4-9.2 3.4h-2.2c-8 0-12.6-5.1-12.6-12.4v-11.6c0-9 5-12.6 12.6-12.6h2.2zm8.3 12.6c0-6.2-2.7-8.6-8.3-8.6h-2.2c-5.6 0-8.2 2.5-8.2 8.6v11.6c0 5.2 3 8.4 8.2 8.4h2.2c5.3 0 8.3-3.2 8.3-8.4v-11.6zM339.1 131.5h19.7v3.8h-15.4v32.1H339v-35.9zM387 131.5h3.9v35.9h-4.4v-27.8l-18.9 27.8H364v-35.9h4.4v27.3l18.6-27.3zM422 131.5h3.9v35.9h-4.4v-27.8l-18.9 27.8H399v-35.9h4.4v27.3l18.6-27.3zm-2.4-12.3c.1.3.1.5.1.7 0 1.5-.6 2.8-1.7 3.8-1.1 1.1-2.4 1.6-3.9 1.6h-3.3c-3.1 0-5.6-2.3-5.6-5.2 0-.3 0-.6.1-.9h3.4c.1 1.9.9 2.9 2.5 2.9h2.6c1.5 0 2.3-1 2.3-2.9h3.5zM449.9 131.5h23.2v4.1h-18.9v11.3h10.4c3.3 0 6 1 7.9 3 2 1.9 3 4.4 3 7.3 0 2.8-1 5.3-3.1 7.3-2 2-4.5 3-7.5 3h-15v-36zm4.4 31.9H465c1.7 0 3.2-.6 4.4-1.8 1.2-1.2 1.8-2.7 1.8-4.4 0-3.8-2.8-6.3-6.4-6.3h-10.5v12.5zM497.8 131.5h5l-13.1 35.9h-4.8l4.7-13.1-10.5-22.8h5l7.6 17 6.1-17zM510.3 131.5h20.5v31.9h3.4v9.8h-4.4v-5.8h-23v5.8h-4.4v-9.8h3c.9-.4 1.6-1.5 1.8-3l3.1-28.9zm16.2 31.9v-27.8h-12.4l-2.8 25.3c-.1 1.1-.4 1.9-.9 2.5h16.1zM555.2 131.5h5L547 167.4h-4.8l4.7-13.1-10.5-22.8h5l7.6 17 6.2-17zM597.5 131.5h4.4v31.6h6.1v10.8h-4.4v-6.5h-38.1v-35.9h4.4v31.6h11.7v-31.6h4.4v31.6h11.6v-31.6zM613.9 131.5h22.5v4.1h-18.1v11.2h15.2v4h-15.2v12.6h18.1v4.1h-22.5v-36zM643 131.5h19.7v3.8h-15.4v32.1H643v-35.9zM680.9 131.2c7.9 0 12.6 4 12.6 12.6v11.6c0 3.7-1.1 6.7-3.4 9-2.2 2.3-5.3 3.4-9.2 3.4h-2.2c-8 0-12.6-5.1-12.6-12.4v-11.6c0-9 5-12.6 12.6-12.6h2.2zm8.3 12.6c0-6.2-2.7-8.6-8.3-8.6h-2.2c-5.6 0-8.2 2.5-8.2 8.6v11.6c0 5.2 3 8.4 8.2 8.4h2.2c5.3 0 8.3-3.2 8.3-8.4v-11.6z" class="st1"/></svg>