<svg width="200" height="155" viewBox="0 0 200 155" fill="none" xmlns="http://www.w3.org/2000/svg">
<path d="M163.4 55.8008H158.4L152.4 92.2008H157.6L158.2 88.5008H163.6L164.2 92.2008H169.4L163.4 55.8008ZM159 83.4008L160.8 72.1008L162.6 83.4008H159Z" fill="url(#paint0_linear_1407_2493)"/>
<path d="M170 55.8008H175.2H180.4H185.5V60.9008H180.4V100.201H175.2V60.9008H170V55.8008Z" fill="url(#paint1_linear_1407_2493)"/>
<path d="M169.5 95.0996H152.2V100.3H169.5V95.0996Z" fill="url(#paint2_linear_1407_2493)"/>
<path d="M128.7 55.8008H133.8H133.9V55.9008L141 81.6008V55.8008H146.2V100.201H141L133.9 74.5008V100.201H128.7V55.9008V55.8008Z" fill="url(#paint3_linear_1407_2493)"/>
<path d="M122.2 55.8008H117V100.301H122.2V55.8008Z" fill="url(#paint4_linear_1407_2493)"/>
<path d="M62 55.8008H67.2001H68.3L75.1 86.6008L81.8 55.8008H82.9H88.1V100.201H82.9V74.2008L77.2001 100.201H76.4H73.9H72.9L67.2001 74.2008V100.201H62V55.8008Z" fill="url(#paint5_linear_1407_2493)"/>
<path d="M55.3997 95.0996H38.0996V100.3H55.3997V95.0996Z" fill="url(#paint6_linear_1407_2493)"/>
<path d="M14.5 55.8008H19.7001V69.4008L28.2001 55.8008H34L22.9 73.6008L33.8 100.401H28L19.7001 80.1008V100.201H14.5V55.8008Z" fill="url(#paint7_linear_1407_2493)"/>
<path d="M186.2 41H0V115.3H199.9V41H186.2ZM195.4 110.7H4.59998V45.6H195.4V110.7Z" fill="url(#paint8_linear_1407_2493)"/>
<path d="M19.7001 80.1008L28 100.401H33.8L22.9 73.6008L34 55.8008H28.2001L19.7001 69.4008V55.8008H14.5V100.201H19.7001V80.1008Z" fill="url(#paint9_linear_1407_2493)"/>
<path d="M67.2001 74.2008L72.9 100.201H73.9H76.4H77.2001L82.9 74.2008V100.201H88.1V55.8008H82.9H81.8L75.1 86.6008L68.3 55.8008H67.2001H62V100.201H67.2001V74.2008Z" fill="url(#paint10_linear_1407_2493)"/>
<path d="M108 77.0008C109.5 75.4008 110.3 73.3008 110.3 71.1008V64.2008C110.3 59.6008 106.6 55.8008 102 55.8008H93.5996V100.301H102.6C107.2 100.301 111 96.6008 111 91.9008V83.7008C110.9 81.2008 109.9 78.7008 108 77.0008ZM98.7997 61.0008H101.9C103.6 61.0008 105 62.4008 105 64.1008V71.1008C105 72.8008 103.8 74.3008 102.1 74.7008H98.6997V61.0008H98.7997ZM105.8 91.9008C105.8 93.6008 104.4 95.0008 102.7 95.0008H98.8997V80.1008H101.4C101.8 80.1008 102.1 80.1008 102.5 80.0008C104.4 80.2008 105.8 81.8008 105.8 83.7008V91.9008Z" fill="url(#paint11_linear_1407_2493)"/>
<path d="M122.2 55.8008H117V100.301H122.2V55.8008Z" fill="url(#paint12_linear_1407_2493)"/>
<path d="M169.5 95.0996H152.2V100.3H169.5V95.0996Z" fill="url(#paint13_linear_1407_2493)"/>
<path d="M55.3997 95.0996H38.0996V100.3H55.3997V95.0996Z" fill="url(#paint14_linear_1407_2493)"/>
<path d="M175.2 100.201H180.4V60.9008H185.5V55.8008H180.4H175.2H170V60.9008H175.2V100.201Z" fill="url(#paint15_linear_1407_2493)"/>
<path d="M128.7 100.201H133.9V74.5008L141 100.201H146.2V55.8008H141V81.6008L133.9 55.9008V55.8008H133.8H128.7V55.9008V100.201Z" fill="url(#paint16_linear_1407_2493)"/>
<path d="M47.5997 55.8008H45.9998C41.6998 55.8008 38.2998 59.2008 38.2998 63.5008V84.9008C38.2998 89.2008 41.6998 92.6008 45.9998 92.6008H47.5997C51.8997 92.6008 55.2998 89.2008 55.2998 84.9008V63.5008C55.2998 59.2008 51.8997 55.8008 47.5997 55.8008ZM50.0997 84.9008C50.0997 86.3008 48.9997 87.4008 47.5997 87.4008H45.9998C44.5998 87.4008 43.5997 86.3008 43.5997 84.9008V63.5008C43.5997 62.1008 44.6997 61.0008 46.0997 61.0008H47.6998C49.0998 61.0008 50.1998 62.1008 50.1998 63.5008L50.0997 84.9008Z" fill="url(#paint17_linear_1407_2493)"/>
<defs>
<linearGradient id="paint0_linear_1407_2493" x1="-0.451413" y1="73.9978" x2="198.069" y2="73.9978" gradientUnits="userSpaceOnUse">
<stop stop-color="#1C8AE2"/>
<stop offset="0.4865" stop-color="#8B00B3"/>
<stop offset="1" stop-color="#6900B5"/>
</linearGradient>
<linearGradient id="paint1_linear_1407_2493" x1="-0.451804" y1="78.0112" x2="198.069" y2="78.0112" gradientUnits="userSpaceOnUse">
<stop stop-color="#1C8AE2"/>
<stop offset="0.4865" stop-color="#8B00B3"/>
<stop offset="1" stop-color="#6900B5"/>
</linearGradient>
<linearGradient id="paint2_linear_1407_2493" x1="-0.450965" y1="97.6693" x2="198.069" y2="97.6693" gradientUnits="userSpaceOnUse">
<stop stop-color="#1C8AE2"/>
<stop offset="0.4865" stop-color="#8B00B3"/>
<stop offset="1" stop-color="#6900B5"/>
</linearGradient>
<linearGradient id="paint3_linear_1407_2493" x1="-0.451604" y1="78.0112" x2="198.069" y2="78.0112" gradientUnits="userSpaceOnUse">
<stop stop-color="#1C8AE2"/>
<stop offset="0.4865" stop-color="#8B00B3"/>
<stop offset="1" stop-color="#6900B5"/>
</linearGradient>
<linearGradient id="paint4_linear_1407_2493" x1="-0.453461" y1="78.0112" x2="198.07" y2="78.0112" gradientUnits="userSpaceOnUse">
<stop stop-color="#1C8AE2"/>
<stop offset="0.4865" stop-color="#8B00B3"/>
<stop offset="1" stop-color="#6900B5"/>
</linearGradient>
<linearGradient id="paint5_linear_1407_2493" x1="-0.451742" y1="78.0112" x2="198.069" y2="78.0112" gradientUnits="userSpaceOnUse">
<stop stop-color="#1C8AE2"/>
<stop offset="0.4865" stop-color="#8B00B3"/>
<stop offset="1" stop-color="#6900B5"/>
</linearGradient>
<linearGradient id="paint6_linear_1407_2493" x1="-0.452302" y1="97.6693" x2="198.069" y2="97.6693" gradientUnits="userSpaceOnUse">
<stop stop-color="#1C8AE2"/>
<stop offset="0.4865" stop-color="#8B00B3"/>
<stop offset="1" stop-color="#6900B5"/>
</linearGradient>
<linearGradient id="paint7_linear_1407_2493" x1="-0.451801" y1="78.1052" x2="198.069" y2="78.1052" gradientUnits="userSpaceOnUse">
<stop stop-color="#1C8AE2"/>
<stop offset="0.4865" stop-color="#8B00B3"/>
<stop offset="1" stop-color="#6900B5"/>
</linearGradient>
<linearGradient id="paint8_linear_1407_2493" x1="-0.4518" y1="78.1044" x2="198.069" y2="78.1044" gradientUnits="userSpaceOnUse">
<stop stop-color="#1C8AE2"/>
<stop offset="0.4865" stop-color="#8B00B3"/>
<stop offset="1" stop-color="#6900B5"/>
</linearGradient>
<linearGradient id="paint9_linear_1407_2493" x1="-0.451801" y1="78.1052" x2="198.069" y2="78.1052" gradientUnits="userSpaceOnUse">
<stop stop-color="#1C8AE2"/>
<stop offset="0.4865" stop-color="#8B00B3"/>
<stop offset="1" stop-color="#6900B5"/>
</linearGradient>
<linearGradient id="paint10_linear_1407_2493" x1="-0.451742" y1="78.0112" x2="198.069" y2="78.0112" gradientUnits="userSpaceOnUse">
<stop stop-color="#1C8AE2"/>
<stop offset="0.4865" stop-color="#8B00B3"/>
<stop offset="1" stop-color="#6900B5"/>
</linearGradient>
<linearGradient id="paint11_linear_1407_2493" x1="-0.452326" y1="78.0112" x2="198.068" y2="78.0112" gradientUnits="userSpaceOnUse">
<stop stop-color="#1C8AE2"/>
<stop offset="0.4865" stop-color="#8B00B3"/>
<stop offset="1" stop-color="#6900B5"/>
</linearGradient>
<linearGradient id="paint12_linear_1407_2493" x1="-0.453461" y1="78.0112" x2="198.07" y2="78.0112" gradientUnits="userSpaceOnUse">
<stop stop-color="#1C8AE2"/>
<stop offset="0.4865" stop-color="#8B00B3"/>
<stop offset="1" stop-color="#6900B5"/>
</linearGradient>
<linearGradient id="paint13_linear_1407_2493" x1="-0.450965" y1="97.6693" x2="198.069" y2="97.6693" gradientUnits="userSpaceOnUse">
<stop stop-color="#1C8AE2"/>
<stop offset="0.4865" stop-color="#8B00B3"/>
<stop offset="1" stop-color="#6900B5"/>
</linearGradient>
<linearGradient id="paint14_linear_1407_2493" x1="-0.452302" y1="97.6693" x2="198.069" y2="97.6693" gradientUnits="userSpaceOnUse">
<stop stop-color="#1C8AE2"/>
<stop offset="0.4865" stop-color="#8B00B3"/>
<stop offset="1" stop-color="#6900B5"/>
</linearGradient>
<linearGradient id="paint15_linear_1407_2493" x1="-0.451804" y1="78.0112" x2="198.069" y2="78.0112" gradientUnits="userSpaceOnUse">
<stop stop-color="#1C8AE2"/>
<stop offset="0.4865" stop-color="#8B00B3"/>
<stop offset="1" stop-color="#6900B5"/>
</linearGradient>
<linearGradient id="paint16_linear_1407_2493" x1="-0.451604" y1="78.0112" x2="198.069" y2="78.0112" gradientUnits="userSpaceOnUse">
<stop stop-color="#1C8AE2"/>
<stop offset="0.4865" stop-color="#8B00B3"/>
<stop offset="1" stop-color="#6900B5"/>
</linearGradient>
<linearGradient id="paint17_linear_1407_2493" x1="-0.451998" y1="74.1624" x2="198.069" y2="74.1624" gradientUnits="userSpaceOnUse">
<stop stop-color="#1C8AE2"/>
<stop offset="0.4865" stop-color="#8B00B3"/>
<stop offset="1" stop-color="#6900B5"/>
</linearGradient>
</defs>
</svg>
