<svg xmlns="http://www.w3.org/2000/svg" viewBox="0 0 623.62 294.4"><defs><style>.cls-1{fill:#fff;}</style></defs><title>Эпл пей</title><g id="Слой_2" data-name="Слой 2"><g id="图层_1" data-name="图层 1"><path class="cls-1" d="M186.42,75.89c-2.37,2.18-4.78,4.34-7.12,6.56-8.31,7.86-14.56,17-16.76,28.4-3,15.79.2,30.27,9.77,43.25,4.79,6.49,10.5,11.88,18.1,15,.89.36,1.79.68,2.88,1.1-1,2.69-1.86,5.34-2.92,7.92-6.2,15-14.25,28.88-25.23,40.92a61.45,61.45,0,0,1-6.72,6.18c-8,6.5-17,9-27.15,6.05-5.06-1.48-10.06-3.13-15.09-4.69a58.32,58.32,0,0,0-15.91-3c-6.77-.16-13,1.87-19.29,4.17a126.34,126.34,0,0,1-14.45,4.73c-7.72,1.84-14.71-.54-21.13-4.88a62.77,62.77,0,0,1-16-16.45A168.1,168.1,0,0,1,4.63,159.4a120.16,120.16,0,0,1-3.31-50.6C3.61,93.73,9.23,80.13,19.84,68.89,30.83,57.25,44.35,52.46,60.22,54c7.89.78,15.44,3.07,23,5.27,3.15.92,6.38,1.61,9.56,2.42a25.26,25.26,0,0,0,13.47-.66c6.22-1.83,12.36-3.9,18.57-5.74A58.38,58.38,0,0,1,153,53.65c12.32,2.38,22.06,9,30.21,18.28,1,1.16,2,2.34,3,3.52A2.2,2.2,0,0,1,186.42,75.89Z"/><path class="cls-1" d="M140.1,0a67,67,0,0,1,.33,7.77,55.62,55.62,0,0,1-15.8,35.43c-4.28,4.48-9,8.42-14.82,10.72-5,2-10.24,2.38-15.5,2.77-.08,0-.17-.09-.26-.13C94.79,26,110.24,6.15,140.1,0Z"/><path class="cls-1" d="M252.22,36.39a292.77,292.77,0,0,1,48.57-3.78c25,0,43.35,5.81,55,16.28,10.76,9.31,17.16,23.57,17.16,41,0,17.74-5.23,31.71-15.12,41.89-13.38,14.25-35.2,21.52-59.93,21.52-7.56,0-14.54-.29-20.36-1.74v78.54h-25.3Zm25.3,94.53c5.53,1.46,12.51,2,21,2,30.54,0,49.16-14.83,49.16-41.89,0-25.89-18.33-38.39-46.26-38.39-11.05,0-19.49.87-23.85,2Z"/><path class="cls-1" d="M464.25,230.12l-2-17.75h-.87c-7.85,11.06-23,20.95-43,20.95-28.51,0-43.05-20.07-43.05-40.44,0-34,30.25-52.65,84.64-52.36v-2.9c0-11.64-3.19-32.58-32-32.58-13.09,0-26.76,4.07-36.65,10.47l-5.82-16.87c11.63-7.57,28.5-12.51,46.25-12.51,43.05,0,53.52,29.38,53.52,57.59v52.65c0,12.22.58,24.15,2.33,33.75Zm-3.78-71.85c-27.93-.58-59.63,4.36-59.63,31.7,0,16.59,11.05,24.44,24.14,24.44,18.32,0,30-11.64,34-23.56a26.84,26.84,0,0,0,1.46-8.15Z"/><path class="cls-1" d="M519.19,89.33,550,172.52c3.2,9.31,6.69,20.36,9,28.8h.58c2.61-8.44,5.52-19.2,9-29.38l27.93-82.61h27l-38.4,100.35c-18.32,48.29-30.83,73-48.28,88.14-12.51,11.06-25,15.42-31.42,16.58l-6.4-21.52a67.75,67.75,0,0,0,22.4-12.51,77.69,77.69,0,0,0,21.53-28.51c1.16-2.62,2-4.65,2-6.11s-.58-3.49-1.74-6.69L491.27,89.33Z"/></g></g></svg>