<svg xmlns="http://www.w3.org/2000/svg" viewBox="0 0 459.73 510"><defs><style>.a{fill:#b49d72;}</style></defs><title>file-icon-input</title><path class="a" d="M427.48,314.33l-37.72-37.72L220,106.88A80,80,0,0,0,106.88,220L276.61,389.81a17.78,17.78,0,1,0,25.14-25.15L132,194.89A44.45,44.45,0,1,1,194.89,132L364.66,301.75l37.72,37.72a80,80,0,0,1-113.2,113.16l-31.43-31.44-176-176L69.16,232.61A115.59,115.59,0,0,1,232.61,69.16L421.19,257.75a17.78,17.78,0,1,0,25.15-25.14L257.75,44A151.13,151.13,0,0,0,44,257.75L232.61,446.34l31.47,31.44a115.58,115.58,0,0,0,163.4-163.45Z"/></svg>