<svg width="108" height="102" viewBox="0 0 108 102" fill="none" xmlns="http://www.w3.org/2000/svg">
<path d="M20.6125 14.0076L51.5156 5.72719C62.7772 2.70967 70.9348 7.63229 74.0714 19.3381L82.6703 51.4298C85.8069 63.1357 81.2035 71.4776 69.9419 74.4951L39.0389 82.7756C27.7773 85.7931 19.649 80.8626 16.5125 69.1568L7.91353 37.0651C4.77696 25.3592 9.351 17.0252 20.6125 14.0076Z" fill="url(#paint0_linear_727_96)"/>
<g filter="url(#filter0_f_727_96)">
<path d="M29.3025 25.8578L50.291 20.234C57.9395 18.1846 63.3846 21.1721 65.3466 28.4943L70.7254 48.5684C72.6874 55.8907 69.4655 61.2005 61.817 63.2499L40.8286 68.8737C33.1801 70.9231 27.755 67.9303 25.793 60.608L20.4141 40.5339C18.4522 33.2117 21.654 27.9072 29.3025 25.8578Z" fill="#0062FF" fill-opacity="0.5"/>
</g>
<g filter="url(#filter1_b_727_96)">
<mask id="path-3-outside-1_727_96" maskUnits="userSpaceOnUse" x="25.4409" y="20.1562" width="75" height="75" fill="black">
<rect fill="white" x="25.4409" y="20.1562" width="75" height="75"/>
<path d="M78.6702 21.1562H47.0922C34.7451 21.1562 26.4409 29.8247 26.4409 42.7181V72.4749C26.4409 85.3319 34.7451 94.0004 47.0922 94.0004H78.6702C91.0172 94.0004 99.285 85.3319 99.285 72.4749V42.7181C99.285 29.8247 91.0172 21.1562 78.6702 21.1562Z"/>
</mask>
<path d="M78.6702 21.1562H47.0922C34.7451 21.1562 26.4409 29.8247 26.4409 42.7181V72.4749C26.4409 85.3319 34.7451 94.0004 47.0922 94.0004H78.6702C91.0172 94.0004 99.285 85.3319 99.285 72.4749V42.7181C99.285 29.8247 91.0172 21.1562 78.6702 21.1562Z" fill="#3EA0FE" fill-opacity="0.35"/>
<path d="M78.6702 22.1562C79.2224 22.1562 79.6702 21.7085 79.6702 21.1562C79.6702 20.604 79.2224 20.1562 78.6702 20.1562V22.1562ZM78.6702 20.1562C78.1179 20.1562 77.6702 20.604 77.6702 21.1562C77.6702 21.7085 78.1179 22.1562 78.6702 22.1562V20.1562ZM78.6702 20.1562H47.0922V22.1562H78.6702V20.1562ZM47.0922 20.1562C40.6759 20.1562 35.242 22.4141 31.4142 26.4104C27.59 30.403 25.4409 36.0546 25.4409 42.7181H27.4409C27.4409 36.4882 29.4439 31.3589 32.8586 27.7939C36.2697 24.2326 41.1615 22.1562 47.0922 22.1562V20.1562ZM25.4409 42.7181V72.4749H27.4409V42.7181H25.4409ZM25.4409 72.4749C25.4409 79.1209 27.5905 84.7635 31.4147 88.7512C35.2423 92.7426 40.676 95.0004 47.0922 95.0004V93.0004C41.1614 93.0004 36.2694 90.924 32.8582 87.3669C29.4435 83.8061 27.4409 78.686 27.4409 72.4749H25.4409ZM47.0922 95.0004H78.6702V93.0004H47.0922V95.0004ZM78.6702 95.0004C85.0866 95.0004 90.5116 92.7424 94.3304 88.7503C98.1454 84.7621 100.285 79.1197 100.285 72.4749H98.285C98.285 78.6872 96.2908 83.8075 92.8851 87.3678C89.4832 90.9241 84.6008 93.0004 78.6702 93.0004V95.0004ZM100.285 72.4749V42.7181H98.285V72.4749H100.285ZM100.285 42.7181C100.285 36.0559 98.1458 30.4044 94.3308 26.4113C90.5119 22.4143 85.0867 20.1562 78.6702 20.1562V22.1562C84.6007 22.1562 89.4829 24.2324 92.8847 27.793C96.2904 31.3575 98.285 36.487 98.285 42.7181H100.285Z" fill="url(#paint1_linear_727_96)" mask="url(#path-3-outside-1_727_96)"/>
</g>
<g filter="url(#filter2_bd_727_96)">
<mask id="path-5-inside-2_727_96" fill="white">
<path fill-rule="evenodd" clip-rule="evenodd" d="M41.0704 44.9259C41.0704 49.9663 45.1671 54.0686 50.2089 54.0686C55.2471 54.0686 59.3474 49.9663 59.3474 44.9259C59.3474 39.8855 55.2471 35.7832 50.2089 35.7832C45.1671 35.7832 41.0704 39.8855 41.0704 44.9259ZM90.8926 78.4791C92.2018 75.3693 92.838 71.5952 91.6134 68.4552C91.2052 67.4136 90.5947 66.4436 89.7379 65.5907C87.491 63.3602 85.3911 61.2769 82.8941 59.7371C78.9739 57.2915 75.9474 60.7259 75.131 61.8242C74.4797 62.7018 73.904 63.6544 73.3205 64.6199C73.1989 64.8211 73.077 65.0229 72.9539 65.2246L72.9249 65.2727C71.1886 68.1487 69.1948 71.4512 65.7571 73.3766C60.7337 76.1581 56.9202 73.5955 54.1768 71.7311C53.1471 71.0367 52.1468 70.38 51.1502 69.9422C48.6937 68.8817 46.4835 70.0894 43.2032 74.256C41.4822 76.4336 39.7758 78.5924 38.0474 80.7436C37.014 82.0305 37.2604 84.0157 38.6542 84.8762C40.8791 86.2462 43.593 86.9821 46.66 86.9821H77.4809C79.2203 86.9821 80.9635 86.7444 82.6257 86.2009C86.3693 84.9781 89.3407 82.1777 90.8926 78.4791Z"/>
</mask>
<path fill-rule="evenodd" clip-rule="evenodd" d="M41.0704 44.9259C41.0704 49.9663 45.1671 54.0686 50.2089 54.0686C55.2471 54.0686 59.3474 49.9663 59.3474 44.9259C59.3474 39.8855 55.2471 35.7832 50.2089 35.7832C45.1671 35.7832 41.0704 39.8855 41.0704 44.9259ZM90.8926 78.4791C92.2018 75.3693 92.838 71.5952 91.6134 68.4552C91.2052 67.4136 90.5947 66.4436 89.7379 65.5907C87.491 63.3602 85.3911 61.2769 82.8941 59.7371C78.9739 57.2915 75.9474 60.7259 75.131 61.8242C74.4797 62.7018 73.904 63.6544 73.3205 64.6199C73.1989 64.8211 73.077 65.0229 72.9539 65.2246L72.9249 65.2727C71.1886 68.1487 69.1948 71.4512 65.7571 73.3766C60.7337 76.1581 56.9202 73.5955 54.1768 71.7311C53.1471 71.0367 52.1468 70.38 51.1502 69.9422C48.6937 68.8817 46.4835 70.0894 43.2032 74.256C41.4822 76.4336 39.7758 78.5924 38.0474 80.7436C37.014 82.0305 37.2604 84.0157 38.6542 84.8762C40.8791 86.2462 43.593 86.9821 46.66 86.9821H77.4809C79.2203 86.9821 80.9635 86.7444 82.6257 86.2009C86.3693 84.9781 89.3407 82.1777 90.8926 78.4791Z" fill="url(#paint2_linear_727_96)"/>
<path d="M91.6134 68.4552L91.7997 68.3825L91.7996 68.3822L91.6134 68.4552ZM90.8926 78.4791L90.7083 78.4015L90.7082 78.4018L90.8926 78.4791ZM89.7379 65.5907L89.879 65.449L89.8788 65.4488L89.7379 65.5907ZM82.8941 59.7371L82.7883 59.9068L82.7891 59.9074L82.8941 59.7371ZM75.131 61.8242L74.9705 61.7049L74.9704 61.705L75.131 61.8242ZM73.3205 64.6199L73.1493 64.5165V64.5165L73.3205 64.6199ZM72.9539 65.2246L72.7832 65.1205L72.7827 65.1212L72.9539 65.2246ZM72.9249 65.2727L73.0961 65.3761H73.0961L72.9249 65.2727ZM65.7571 73.3766L65.854 73.5516L65.8549 73.5511L65.7571 73.3766ZM54.1768 71.7311L54.2892 71.5657L54.2886 71.5653L54.1768 71.7311ZM51.1502 69.9422L51.2307 69.7591L51.2295 69.7586L51.1502 69.9422ZM43.2032 74.256L43.3601 74.38L43.3604 74.3797L43.2032 74.256ZM38.0474 80.7436L37.8915 80.6183L37.8915 80.6184L38.0474 80.7436ZM38.6542 84.8762L38.5491 85.0464L38.5493 85.0465L38.6542 84.8762ZM82.6257 86.2009L82.5636 86.0108L82.5635 86.0108L82.6257 86.2009ZM50.2089 53.8686C45.2777 53.8686 41.2704 49.856 41.2704 44.9259H40.8704C40.8704 50.0766 45.0565 54.2686 50.2089 54.2686V53.8686ZM59.1474 44.9259C59.1474 49.8559 55.1365 53.8686 50.2089 53.8686V54.2686C55.3576 54.2686 59.5474 50.0767 59.5474 44.9259H59.1474ZM50.2089 35.9832C55.1365 35.9832 59.1474 39.9958 59.1474 44.9259H59.5474C59.5474 39.7751 55.3576 35.5832 50.2089 35.5832V35.9832ZM41.2704 44.9259C41.2704 39.9958 45.2777 35.9832 50.2089 35.9832V35.5832C45.0565 35.5832 40.8704 39.7751 40.8704 44.9259H41.2704ZM91.4271 68.5279C92.6248 71.5992 92.0077 75.3148 90.7083 78.4015L91.0769 78.5567C92.3959 75.4238 93.0511 71.5913 91.7997 68.3825L91.4271 68.5279ZM89.5968 65.7324C90.433 66.5648 91.0286 67.511 91.4272 68.5282L91.7996 68.3822C91.3818 67.3162 90.7565 66.3225 89.879 65.449L89.5968 65.7324ZM82.7891 59.9074C85.2631 61.433 87.3469 63.499 89.597 65.7326L89.8788 65.4488C87.635 63.2214 85.5191 61.1209 82.9991 59.5669L82.7891 59.9074ZM75.2915 61.9435C75.6922 61.4044 76.6309 60.2995 77.9397 59.6297C79.2362 58.9663 80.897 58.727 82.7883 59.9068L83 59.5674C80.971 58.3017 79.1584 58.5568 77.7575 59.2737C76.3689 59.9843 75.3861 61.1457 74.9705 61.7049L75.2915 61.9435ZM73.4916 64.7234C74.0761 63.7563 74.647 62.8121 75.2916 61.9434L74.9704 61.705C74.3125 62.5916 73.7319 63.5525 73.1493 64.5165L73.4916 64.7234ZM73.1247 65.3287C73.248 65.1266 73.3701 64.9245 73.4916 64.7234L73.1493 64.5165C73.0277 64.7177 72.906 64.9191 72.7832 65.1205L73.1247 65.3287ZM73.0961 65.3761L73.1251 65.328L72.7827 65.1212L72.7537 65.1693L73.0961 65.3761ZM65.8549 73.5511C69.3456 71.596 71.3639 68.2453 73.0961 65.3761L72.7537 65.1693C71.0133 68.052 69.0439 71.3065 65.6594 73.2021L65.8549 73.5511ZM54.0644 71.8965C55.433 72.8266 57.0982 73.9529 59.0592 74.489C61.031 75.028 63.2942 74.9689 65.854 73.5516L65.6602 73.2016C63.1966 74.5658 61.0414 74.6162 59.1647 74.1031C57.2772 73.5872 55.664 72.5 54.2892 71.5657L54.0644 71.8965ZM51.0698 70.1253C52.0475 70.5548 53.0336 71.2014 54.065 71.8969L54.2886 71.5653C53.2605 70.872 52.2461 70.2052 51.2307 69.7591L51.0698 70.1253ZM43.3604 74.3797C44.9968 72.3011 46.3488 70.9846 47.5811 70.3146C48.7976 69.6533 49.8999 69.6203 51.071 70.1258L51.2295 69.7586C49.944 69.2036 48.7129 69.2441 47.3901 69.9632C46.0832 70.6737 44.6899 72.0443 43.0461 74.1322L43.3604 74.3797ZM38.2033 80.8689C39.9323 78.7169 41.6391 76.5575 43.3601 74.38L43.0463 74.132C41.3252 76.3097 39.6193 78.4678 37.8915 80.6183L38.2033 80.8689ZM38.7593 84.706C37.4786 83.9154 37.2371 82.0722 38.2034 80.8688L37.8915 80.6184C36.791 81.9889 37.0422 84.1161 38.5491 85.0464L38.7593 84.706ZM46.66 86.7821C43.6253 86.7821 40.9485 86.0541 38.7591 84.7059L38.5493 85.0465C40.8096 86.4383 43.5608 87.1821 46.66 87.1821V86.7821ZM77.4809 86.7821H46.66V87.1821H77.4809V86.7821ZM82.5635 86.0108C80.9241 86.5468 79.2023 86.7821 77.4809 86.7821V87.1821C79.2383 87.1821 81.0028 86.9419 82.6878 86.391L82.5635 86.0108ZM90.7082 78.4018C89.1779 82.0489 86.2498 84.8067 82.5636 86.0108L82.6878 86.391C86.4888 85.1495 89.5036 82.3065 91.077 78.5565L90.7082 78.4018Z" fill="url(#paint3_linear_727_96)" fill-opacity="0.5" mask="url(#path-5-inside-2_727_96)"/>
</g>
<defs>
<filter id="filter0_f_727_96" x="0.850098" y="0.602539" width="89.4375" height="87.9021" filterUnits="userSpaceOnUse" color-interpolation-filters="sRGB">
<feFlood flood-opacity="0" result="BackgroundImageFix"/>
<feBlend mode="normal" in="SourceGraphic" in2="BackgroundImageFix" result="shape"/>
<feGaussianBlur stdDeviation="9.5" result="effect1_foregroundBlur_727_96"/>
</filter>
<filter id="filter1_b_727_96" x="1.44092" y="-3.84375" width="122.844" height="122.844" filterUnits="userSpaceOnUse" color-interpolation-filters="sRGB">
<feFlood flood-opacity="0" result="BackgroundImageFix"/>
<feGaussianBlur in="BackgroundImage" stdDeviation="12"/>
<feComposite in2="SourceAlpha" operator="in" result="effect1_backgroundBlur_727_96"/>
<feBlend mode="normal" in="SourceGraphic" in2="effect1_backgroundBlur_727_96" result="shape"/>
</filter>
<filter id="filter2_bd_727_96" x="22.4126" y="20.7832" width="84.856" height="81.199" filterUnits="userSpaceOnUse" color-interpolation-filters="sRGB">
<feFlood flood-opacity="0" result="BackgroundImageFix"/>
<feGaussianBlur in="BackgroundImage" stdDeviation="7.5"/>
<feComposite in2="SourceAlpha" operator="in" result="effect1_backgroundBlur_727_96"/>
<feColorMatrix in="SourceAlpha" type="matrix" values="0 0 0 0 0 0 0 0 0 0 0 0 0 0 0 0 0 0 127 0" result="hardAlpha"/>
<feOffset dx="5" dy="5"/>
<feGaussianBlur stdDeviation="5"/>
<feColorMatrix type="matrix" values="0 0 0 0 0.15375 0 0 0 0 0.522433 0 0 0 0 0.9 0 0 0 0.5 0"/>
<feBlend mode="normal" in2="effect1_backgroundBlur_727_96" result="effect2_dropShadow_727_96"/>
<feBlend mode="normal" in="SourceGraphic" in2="effect2_dropShadow_727_96" result="shape"/>
</filter>
<linearGradient id="paint0_linear_727_96" x1="7.73184" y1="17.459" x2="91.4725" y2="45.6258" gradientUnits="userSpaceOnUse">
<stop stop-color="#39AFFD"/>
<stop offset="1" stop-color="#3A76FF"/>
</linearGradient>
<linearGradient id="paint1_linear_727_96" x1="38.0365" y1="29.6427" x2="84.5033" y2="87.1929" gradientUnits="userSpaceOnUse">
<stop stop-color="white" stop-opacity="0.25"/>
<stop offset="1" stop-color="white" stop-opacity="0.06"/>
</linearGradient>
<linearGradient id="paint2_linear_727_96" x1="88.3794" y1="45.0287" x2="27.2846" y2="47.163" gradientUnits="userSpaceOnUse">
<stop stop-color="white"/>
<stop offset="1" stop-color="white" stop-opacity="0.2"/>
</linearGradient>
<linearGradient id="paint3_linear_727_96" x1="43.3218" y1="52.958" x2="89.902" y2="53.2335" gradientUnits="userSpaceOnUse">
<stop stop-color="white"/>
<stop offset="1" stop-color="white" stop-opacity="0"/>
</linearGradient>
</defs>
</svg>
