<svg width="118" height="103" viewBox="0 0 118 103" fill="none" xmlns="http://www.w3.org/2000/svg">
<path d="M86.6667 47.8333C86.6667 70.3856 68.3856 88.6667 45.8333 88.6667C23.2811 88.6667 5 70.3856 5 47.8333C5 25.2852 23.2811 7 45.8333 7C68.3856 7 86.6667 25.2852 86.6667 47.8333Z" fill="url(#paint0_linear_716_44)"/>
<g opacity="0.5" filter="url(#filter0_f_716_44)">
<path d="M63.8018 41.6914C63.8018 53.842 53.9524 63.6914 41.8018 63.6914C29.6512 63.6914 19.8018 53.842 19.8018 41.6914C19.8018 29.543 29.6512 19.6914 41.8018 19.6914C53.9524 19.6914 63.8018 29.543 63.8018 41.6914Z" fill="#E46800"/>
</g>
<g filter="url(#filter1_b_716_44)">
<path d="M19.9989 60.8346C19.9989 38.2824 38.28 20.0013 60.8322 20.0013C83.3845 20.0013 101.666 38.2824 101.666 60.8346C101.666 83.3828 83.3844 101.668 60.8322 101.668C38.2799 101.668 19.9989 83.3828 19.9989 60.8346Z" fill="#FFCBB9" fill-opacity="0.35"/>
<path d="M60.8322 19.5013C38.0038 19.5013 19.4989 38.0062 19.4989 60.8346C19.4989 83.6589 38.0038 102.168 60.8322 102.168C83.6606 102.168 102.166 83.6589 102.166 60.8346C102.166 38.0063 83.6606 19.5013 60.8322 19.5013Z" stroke="url(#paint1_linear_716_44)" stroke-linecap="round" stroke-linejoin="round"/>
</g>
<g filter="url(#filter2_bd_716_44)">
<path d="M67.395 13.8094C66.2642 13.6428 65.1147 13.913 64.2001 14.5601C63.2855 15.2073 62.6808 16.1785 62.5194 17.2593L62.4537 17.8961L61.1815 56.7893C61.044 58.0694 61.4773 59.3506 62.3751 60.3182C63.2729 61.2858 64.5519 61.8501 65.898 61.8725L106.509 63.4425C107.64 63.4885 108.74 63.1015 109.565 62.3671C110.389 61.6327 110.871 60.6114 110.904 59.5292C110.941 59.396 110.955 59.2578 110.946 59.1199C109.651 36.0431 91.3352 16.9873 67.395 13.8094Z" fill="url(#paint2_linear_716_44)"/>
</g>
<g filter="url(#filter3_bd_716_44)">
<circle cx="59.9995" cy="62" r="7" fill="url(#paint3_linear_716_44)"/>
<circle cx="59.9995" cy="62" r="6.8" stroke="url(#paint4_linear_716_44)" stroke-width="0.4"/>
</g>
<defs>
<filter id="filter0_f_716_44" x="0.801758" y="0.691406" width="82" height="82" filterUnits="userSpaceOnUse" color-interpolation-filters="sRGB">
<feFlood flood-opacity="0" result="BackgroundImageFix"/>
<feBlend mode="normal" in="SourceGraphic" in2="BackgroundImageFix" result="shape"/>
<feGaussianBlur stdDeviation="9.5" result="effect1_foregroundBlur_716_44"/>
</filter>
<filter id="filter1_b_716_44" x="-5.00098" y="-4.99854" width="131.667" height="131.667" filterUnits="userSpaceOnUse" color-interpolation-filters="sRGB">
<feFlood flood-opacity="0" result="BackgroundImageFix"/>
<feGaussianBlur in="BackgroundImage" stdDeviation="12"/>
<feComposite in2="SourceAlpha" operator="in" result="effect1_backgroundBlur_716_44"/>
<feBlend mode="normal" in="SourceGraphic" in2="effect1_backgroundBlur_716_44" result="shape"/>
</filter>
<filter id="filter2_bd_716_44" x="46.1562" y="-1.23877" width="79.7925" height="79.6851" filterUnits="userSpaceOnUse" color-interpolation-filters="sRGB">
<feFlood flood-opacity="0" result="BackgroundImageFix"/>
<feGaussianBlur in="BackgroundImage" stdDeviation="7.5"/>
<feComposite in2="SourceAlpha" operator="in" result="effect1_backgroundBlur_716_44"/>
<feColorMatrix in="SourceAlpha" type="matrix" values="0 0 0 0 0 0 0 0 0 0 0 0 0 0 0 0 0 0 127 0" result="hardAlpha"/>
<feOffset dx="-3" dy="5"/>
<feGaussianBlur stdDeviation="5"/>
<feColorMatrix type="matrix" values="0 0 0 0 1 0 0 0 0 0.52549 0 0 0 0 0.137255 0 0 0 0.3 0"/>
<feBlend mode="normal" in2="effect1_backgroundBlur_716_44" result="effect2_dropShadow_716_44"/>
<feBlend mode="normal" in="SourceGraphic" in2="effect2_dropShadow_716_44" result="shape"/>
</filter>
<filter id="filter3_bd_716_44" x="37.9995" y="40" width="44" height="44" filterUnits="userSpaceOnUse" color-interpolation-filters="sRGB">
<feFlood flood-opacity="0" result="BackgroundImageFix"/>
<feGaussianBlur in="BackgroundImage" stdDeviation="7.5"/>
<feComposite in2="SourceAlpha" operator="in" result="effect1_backgroundBlur_716_44"/>
<feColorMatrix in="SourceAlpha" type="matrix" values="0 0 0 0 0 0 0 0 0 0 0 0 0 0 0 0 0 0 127 0" result="hardAlpha"/>
<feOffset dx="5" dy="5"/>
<feGaussianBlur stdDeviation="5"/>
<feColorMatrix type="matrix" values="0 0 0 0 1 0 0 0 0 0.52549 0 0 0 0 0.137255 0 0 0 0.5 0"/>
<feBlend mode="normal" in2="effect1_backgroundBlur_716_44" result="effect2_dropShadow_716_44"/>
<feBlend mode="normal" in="SourceGraphic" in2="effect2_dropShadow_716_44" result="shape"/>
</filter>
<linearGradient id="paint0_linear_716_44" x1="45.8333" y1="7" x2="45.8333" y2="88.6667" gradientUnits="userSpaceOnUse">
<stop stop-color="#FFB37F"/>
<stop offset="1" stop-color="#FF7B0D"/>
</linearGradient>
<linearGradient id="paint1_linear_716_44" x1="101.904" y1="102.223" x2="15.4488" y2="29" gradientUnits="userSpaceOnUse">
<stop stop-color="white" stop-opacity="0.4"/>
<stop offset="1" stop-color="white" stop-opacity="0"/>
</linearGradient>
<linearGradient id="paint2_linear_716_44" x1="110.54" y1="26.9678" x2="22.6271" y2="14.391" gradientUnits="userSpaceOnUse">
<stop stop-color="white" stop-opacity="0.2"/>
<stop offset="1" stop-color="white"/>
</linearGradient>
<linearGradient id="paint3_linear_716_44" x1="66.0069" y1="57.5281" x2="42.3301" y2="56.6772" gradientUnits="userSpaceOnUse">
<stop stop-color="white"/>
<stop offset="1" stop-color="white" stop-opacity="0.2"/>
</linearGradient>
<linearGradient id="paint4_linear_716_44" x1="55.2281" y1="56.631" x2="64.1586" y2="67.6917" gradientUnits="userSpaceOnUse">
<stop stop-color="white" stop-opacity="0.25"/>
<stop offset="1" stop-color="white" stop-opacity="0"/>
</linearGradient>
</defs>
</svg>
