<?xml version="1.0" encoding="utf-8"?>
<!-- Generator: Adobe Illustrator 22.1.0, SVG Export Plug-In . SVG Version: 6.00 Build 0)  -->
<svg version="1.1" id="Capa_1" xmlns="http://www.w3.org/2000/svg" xmlns:xlink="http://www.w3.org/1999/xlink" x="0px" y="0px"
	 viewBox="0 0 512 512" style="enable-background:new 0 0 512 512;" xml:space="preserve">
<style type="text/css">
	.st0{fill:url(#SVGID_1_);}
	.st1{fill:url(#SVGID_2_);}
	.st2{fill:url(#SVGID_3_);}
	.st3{fill:url(#SVGID_4_);}
	.st4{fill:url(#SVGID_5_);}
	.st5{fill:url(#SVGID_6_);}
	.st6{fill:url(#SVGID_7_);}
	.st7{fill:url(#SVGID_8_);}
	.st8{fill:url(#SVGID_9_);}
	.st9{fill:url(#SVGID_10_);}
	.st10{fill:url(#SVGID_11_);}
	.st11{fill:url(#SVGID_12_);}
	.st12{fill:url(#SVGID_13_);}
	.st13{fill:url(#SVGID_14_);}
	.st14{fill:url(#SVGID_15_);}
	.st15{fill:url(#SVGID_16_);}
	.st16{fill:url(#SVGID_17_);}
	.st17{fill:url(#SVGID_18_);}
	.st18{fill:url(#SVGID_19_);}
	.st19{fill:url(#SVGID_20_);}
	.st20{fill:url(#SVGID_21_);}
	.st21{fill:url(#SVGID_22_);}
	.st22{fill:url(#SVGID_23_);}
	.st23{fill:url(#SVGID_24_);}
	.st24{fill:url(#SVGID_25_);}
	.st25{fill:url(#SVGID_26_);}
	.st26{fill:url(#SVGID_27_);}
	.st27{fill:url(#SVGID_28_);}
	.st28{fill:url(#SVGID_29_);}
	.st29{fill:url(#SVGID_30_);}
	.st30{fill:url(#SVGID_31_);}
</style>
<g>
	<g>
		<linearGradient id="SVGID_1_" gradientUnits="userSpaceOnUse" x1="-26.4294" y1="-7.4194" x2="518.5706" y2="543.5806">
			<stop  offset="0" style="stop-color:#C9BD92"/>
			<stop  offset="1" style="stop-color:#846034"/>
		</linearGradient>
		<path class="st0" d="M336,349c-5.52,0-10,4.48-10,10s4.48,10,10,10s10-4.48,10-10S341.52,349,336,349z"/>
	</g>
</g>
<g>
	<g>
		<linearGradient id="SVGID_2_" gradientUnits="userSpaceOnUse" x1="-16.6144" y1="-17.1276" x2="528.3856" y2="533.8724">
			<stop  offset="0" style="stop-color:#C9BD92"/>
			<stop  offset="1" style="stop-color:#846034"/>
		</linearGradient>
		<path class="st1" d="M50,0H10C4.478,0,0,4.477,0,10v40c0,5.523,4.478,10,10,10h40c5.522,0,10-4.477,10-10V10
			C60,4.477,55.522,0,50,0z M40,40H20V20h20V40z"/>
	</g>
</g>
<g>
	<g>
		<linearGradient id="SVGID_3_" gradientUnits="userSpaceOnUse" x1="-242.6009" y1="206.398" x2="302.3991" y2="757.3981">
			<stop  offset="0" style="stop-color:#C9BD92"/>
			<stop  offset="1" style="stop-color:#846034"/>
		</linearGradient>
		<path class="st2" d="M50,452H10c-5.522,0-10,4.477-10,10v40c0,5.523,4.478,10,10,10h40c5.522,0,10-4.477,10-10v-40
			C60,456.477,55.522,452,50,452z M40,492H20v-20h20V492z"/>
	</g>
</g>
<g>
	<g>
		<linearGradient id="SVGID_4_" gradientUnits="userSpaceOnUse" x1="211.86" y1="-243.114" x2="756.86" y2="307.886">
			<stop  offset="0" style="stop-color:#C9BD92"/>
			<stop  offset="1" style="stop-color:#846034"/>
		</linearGradient>
		<path class="st3" d="M502,0h-40c-5.522,0-10,4.477-10,10v40c0,5.523,4.478,10,10,10h40c5.522,0,10-4.477,10-10V10
			C512,4.477,507.522,0,502,0z M492,40h-20V20h20V40z"/>
	</g>
</g>
<g>
	<g>
		<linearGradient id="SVGID_5_" gradientUnits="userSpaceOnUse" x1="-14.1265" y1="-19.5884" x2="530.8735" y2="531.4116">
			<stop  offset="0" style="stop-color:#C9BD92"/>
			<stop  offset="1" style="stop-color:#846034"/>
		</linearGradient>
		<path class="st4" d="M502,452h-40c-5.522,0-10,4.477-10,10v40c0,5.523,4.478,10,10,10h40c5.522,0,10-4.477,10-10v-40
			C512,456.477,507.522,452,502,452z M492,492h-20v-20h20V492z"/>
	</g>
</g>
<g>
	<g>
		<linearGradient id="SVGID_6_" gradientUnits="userSpaceOnUse" x1="-53.1122" y1="18.9728" x2="491.8878" y2="569.9728">
			<stop  offset="0" style="stop-color:#C9BD92"/>
			<stop  offset="1" style="stop-color:#846034"/>
		</linearGradient>
		<path class="st5" d="M30,83c-5.522,0-10,4.477-10,10v20c0,5.523,4.478,10,10,10s10-4.477,10-10V93C40,87.477,35.522,83,30,83z"/>
	</g>
</g>
<g>
	<g>
		<linearGradient id="SVGID_7_" gradientUnits="userSpaceOnUse" x1="-84.6103" y1="50.1279" x2="460.3897" y2="601.1279">
			<stop  offset="0" style="stop-color:#C9BD92"/>
			<stop  offset="1" style="stop-color:#846034"/>
		</linearGradient>
		<path class="st6" d="M30,146c-5.522,0-10,4.477-10,10v20c0,5.523,4.478,10,10,10s10-4.477,10-10v-20C40,150.477,35.522,146,30,146
			z"/>
	</g>
</g>
<g>
	<g>
		<linearGradient id="SVGID_8_" gradientUnits="userSpaceOnUse" x1="-114.6085" y1="79.7995" x2="430.3914" y2="630.7994">
			<stop  offset="0" style="stop-color:#C9BD92"/>
			<stop  offset="1" style="stop-color:#846034"/>
		</linearGradient>
		<path class="st7" d="M30,206c-5.522,0-10,4.477-10,10v20c0,5.523,4.478,10,10,10s10-4.477,10-10v-20C40,210.477,35.522,206,30,206
			z"/>
	</g>
</g>
<g>
	<g>
		<linearGradient id="SVGID_9_" gradientUnits="userSpaceOnUse" x1="-144.6067" y1="109.471" x2="400.3932" y2="660.471">
			<stop  offset="0" style="stop-color:#C9BD92"/>
			<stop  offset="1" style="stop-color:#846034"/>
		</linearGradient>
		<path class="st8" d="M30,266c-5.522,0-10,4.477-10,10v20c0,5.523,4.478,10,10,10s10-4.477,10-10v-20C40,270.477,35.522,266,30,266
			z"/>
	</g>
</g>
<g>
	<g>
		<linearGradient id="SVGID_10_" gradientUnits="userSpaceOnUse" x1="-176.1048" y1="140.6261" x2="368.8951" y2="691.6261">
			<stop  offset="0" style="stop-color:#C9BD92"/>
			<stop  offset="1" style="stop-color:#846034"/>
		</linearGradient>
		<path class="st9" d="M30,329c-5.522,0-10,4.477-10,10v20c0,5.523,4.478,10,10,10s10-4.477,10-10v-20C40,333.477,35.522,329,30,329
			z"/>
	</g>
</g>
<g>
	<g>
		<linearGradient id="SVGID_11_" gradientUnits="userSpaceOnUse" x1="-207.603" y1="171.7813" x2="337.397" y2="722.7813">
			<stop  offset="0" style="stop-color:#C9BD92"/>
			<stop  offset="1" style="stop-color:#846034"/>
		</linearGradient>
		<path class="st10" d="M30,392c-5.522,0-10,4.477-10,10v20c0,5.523,4.478,10,10,10s10-4.477,10-10v-20
			C40,396.477,35.522,392,30,392z"/>
	</g>
</g>
<g>
	<g>
		<linearGradient id="SVGID_12_" gradientUnits="userSpaceOnUse" x1="175.3622" y1="-207.0137" x2="720.3622" y2="343.9864">
			<stop  offset="0" style="stop-color:#C9BD92"/>
			<stop  offset="1" style="stop-color:#846034"/>
		</linearGradient>
		<path class="st11" d="M482,83c-5.522,0-10,4.477-10,10v20c0,5.523,4.478,10,10,10s10-4.477,10-10V93C492,87.477,487.522,83,482,83
			z"/>
	</g>
</g>
<g>
	<g>
		<linearGradient id="SVGID_13_" gradientUnits="userSpaceOnUse" x1="143.864" y1="-175.8585" x2="688.8641" y2="375.1414">
			<stop  offset="0" style="stop-color:#C9BD92"/>
			<stop  offset="1" style="stop-color:#846034"/>
		</linearGradient>
		<path class="st12" d="M482,146c-5.522,0-10,4.477-10,10v20c0,5.523,4.478,10,10,10s10-4.477,10-10v-20
			C492,150.477,487.522,146,482,146z"/>
	</g>
</g>
<g>
	<g>
		<linearGradient id="SVGID_14_" gradientUnits="userSpaceOnUse" x1="113.8658" y1="-146.187" x2="658.8658" y2="404.813">
			<stop  offset="0" style="stop-color:#C9BD92"/>
			<stop  offset="1" style="stop-color:#846034"/>
		</linearGradient>
		<path class="st13" d="M482,206c-5.522,0-10,4.477-10,10v20c0,5.523,4.478,10,10,10s10-4.477,10-10v-20
			C492,210.477,487.522,206,482,206z"/>
	</g>
</g>
<g>
	<g>
		<linearGradient id="SVGID_15_" gradientUnits="userSpaceOnUse" x1="83.8676" y1="-116.5154" x2="628.8676" y2="434.4846">
			<stop  offset="0" style="stop-color:#C9BD92"/>
			<stop  offset="1" style="stop-color:#846034"/>
		</linearGradient>
		<path class="st14" d="M482,266c-5.522,0-10,4.477-10,10v20c0,5.523,4.478,10,10,10s10-4.477,10-10v-20
			C492,270.477,487.522,266,482,266z"/>
	</g>
</g>
<g>
	<g>
		<linearGradient id="SVGID_16_" gradientUnits="userSpaceOnUse" x1="52.3695" y1="-85.3603" x2="597.3695" y2="465.6397">
			<stop  offset="0" style="stop-color:#C9BD92"/>
			<stop  offset="1" style="stop-color:#846034"/>
		</linearGradient>
		<path class="st15" d="M482,329c-5.522,0-10,4.477-10,10v20c0,5.523,4.478,10,10,10s10-4.477,10-10v-20
			C492,333.477,487.522,329,482,329z"/>
	</g>
</g>
<g>
	<g>
		<linearGradient id="SVGID_17_" gradientUnits="userSpaceOnUse" x1="20.8714" y1="-54.2052" x2="565.8714" y2="496.7948">
			<stop  offset="0" style="stop-color:#C9BD92"/>
			<stop  offset="1" style="stop-color:#846034"/>
		</linearGradient>
		<path class="st16" d="M482,392c-5.522,0-10,4.477-10,10v20c0,5.523,4.478,10,10,10s10-4.477,10-10v-20
			C492,396.477,487.522,392,482,392z"/>
	</g>
</g>
<g>
	<g>
		<linearGradient id="SVGID_18_" gradientUnits="userSpaceOnUse" x1="-205.7012" y1="169.9002" x2="339.2988" y2="720.9002">
			<stop  offset="0" style="stop-color:#C9BD92"/>
			<stop  offset="1" style="stop-color:#846034"/>
		</linearGradient>
		<path class="st17" d="M113,472H93c-5.522,0-10,4.477-10,10s4.478,10,10,10h20c5.522,0,10-4.477,10-10S118.522,472,113,472z"/>
	</g>
</g>
<g>
	<g>
		<linearGradient id="SVGID_19_" gradientUnits="userSpaceOnUse" x1="-173.8564" y1="138.4021" x2="371.1436" y2="689.4021">
			<stop  offset="0" style="stop-color:#C9BD92"/>
			<stop  offset="1" style="stop-color:#846034"/>
		</linearGradient>
		<path class="st18" d="M176,472h-20c-5.522,0-10,4.477-10,10s4.478,10,10,10h20c5.522,0,10-4.477,10-10S181.522,472,176,472z"/>
	</g>
</g>
<g>
	<g>
		<linearGradient id="SVGID_20_" gradientUnits="userSpaceOnUse" x1="-143.5279" y1="108.4039" x2="401.4721" y2="659.4039">
			<stop  offset="0" style="stop-color:#C9BD92"/>
			<stop  offset="1" style="stop-color:#846034"/>
		</linearGradient>
		<path class="st19" d="M236,472h-20c-5.522,0-10,4.477-10,10s4.478,10,10,10h20c5.522,0,10-4.477,10-10S241.522,472,236,472z"/>
	</g>
</g>
<g>
	<g>
		<linearGradient id="SVGID_21_" gradientUnits="userSpaceOnUse" x1="-113.1994" y1="78.4057" x2="431.8006" y2="629.4057">
			<stop  offset="0" style="stop-color:#C9BD92"/>
			<stop  offset="1" style="stop-color:#846034"/>
		</linearGradient>
		<path class="st20" d="M296,472h-20c-5.522,0-10,4.477-10,10s4.478,10,10,10h20c5.522,0,10-4.477,10-10S301.522,472,296,472z"/>
	</g>
</g>
<g>
	<g>
		<linearGradient id="SVGID_22_" gradientUnits="userSpaceOnUse" x1="-82.871" y1="48.4075" x2="462.129" y2="599.4075">
			<stop  offset="0" style="stop-color:#C9BD92"/>
			<stop  offset="1" style="stop-color:#846034"/>
		</linearGradient>
		<path class="st21" d="M356,472h-20c-5.522,0-10,4.477-10,10s4.478,10,10,10h20c5.522,0,10-4.477,10-10S361.522,472,356,472z"/>
	</g>
</g>
<g>
	<g>
		<linearGradient id="SVGID_23_" gradientUnits="userSpaceOnUse" x1="-51.0261" y1="16.9094" x2="493.9739" y2="567.9094">
			<stop  offset="0" style="stop-color:#C9BD92"/>
			<stop  offset="1" style="stop-color:#846034"/>
		</linearGradient>
		<path class="st22" d="M419,472h-20c-5.522,0-10,4.477-10,10s4.478,10,10,10h20c5.522,0,10-4.477,10-10S424.522,472,419,472z"/>
	</g>
</g>
<g>
	<g>
		<linearGradient id="SVGID_24_" gradientUnits="userSpaceOnUse" x1="20.2852" y1="-53.6254" x2="565.2852" y2="497.3746">
			<stop  offset="0" style="stop-color:#C9BD92"/>
			<stop  offset="1" style="stop-color:#846034"/>
		</linearGradient>
		<path class="st23" d="M113,20H93c-5.522,0-10,4.477-10,10s4.478,10,10,10h20c5.522,0,10-4.477,10-10S118.522,20,113,20z"/>
	</g>
</g>
<g>
	<g>
		<linearGradient id="SVGID_25_" gradientUnits="userSpaceOnUse" x1="52.1301" y1="-85.1235" x2="597.1301" y2="465.8765">
			<stop  offset="0" style="stop-color:#C9BD92"/>
			<stop  offset="1" style="stop-color:#846034"/>
		</linearGradient>
		<path class="st24" d="M176,20h-20c-5.522,0-10,4.477-10,10s4.478,10,10,10h20c5.522,0,10-4.477,10-10S181.522,20,176,20z"/>
	</g>
</g>
<g>
	<g>
		<linearGradient id="SVGID_26_" gradientUnits="userSpaceOnUse" x1="82.4585" y1="-115.1217" x2="627.4586" y2="435.8783">
			<stop  offset="0" style="stop-color:#C9BD92"/>
			<stop  offset="1" style="stop-color:#846034"/>
		</linearGradient>
		<path class="st25" d="M236,20h-20c-5.522,0-10,4.477-10,10s4.478,10,10,10h20c5.522,0,10-4.477,10-10S241.522,20,236,20z"/>
	</g>
</g>
<g>
	<g>
		<linearGradient id="SVGID_27_" gradientUnits="userSpaceOnUse" x1="112.787" y1="-145.1199" x2="657.787" y2="405.8801">
			<stop  offset="0" style="stop-color:#C9BD92"/>
			<stop  offset="1" style="stop-color:#846034"/>
		</linearGradient>
		<path class="st26" d="M296,20h-20c-5.522,0-10,4.477-10,10s4.478,10,10,10h20c5.522,0,10-4.477,10-10S301.522,20,296,20z"/>
	</g>
</g>
<g>
	<g>
		<linearGradient id="SVGID_28_" gradientUnits="userSpaceOnUse" x1="143.1155" y1="-175.1181" x2="688.1155" y2="375.8819">
			<stop  offset="0" style="stop-color:#C9BD92"/>
			<stop  offset="1" style="stop-color:#846034"/>
		</linearGradient>
		<path class="st27" d="M356,20h-20c-5.522,0-10,4.477-10,10s4.478,10,10,10h20c5.522,0,10-4.477,10-10S361.522,20,356,20z"/>
	</g>
</g>
<g>
	<g>
		<linearGradient id="SVGID_29_" gradientUnits="userSpaceOnUse" x1="174.9603" y1="-206.6162" x2="719.9603" y2="344.3838">
			<stop  offset="0" style="stop-color:#C9BD92"/>
			<stop  offset="1" style="stop-color:#846034"/>
		</linearGradient>
		<path class="st28" d="M419,20h-20c-5.522,0-10,4.477-10,10s4.478,10,10,10h20c5.522,0,10-4.477,10-10S424.522,20,419,20z"/>
	</g>
</g>
<g>
	<g>
		<linearGradient id="SVGID_30_" gradientUnits="userSpaceOnUse" x1="-16.1204" y1="-17.6162" x2="528.8796" y2="533.3838">
			<stop  offset="0" style="stop-color:#C9BD92"/>
			<stop  offset="1" style="stop-color:#846034"/>
		</linearGradient>
		<path class="st29" d="M419,83H93c-5.522,0-10,4.477-10,10v329c0,5.523,4.478,10,10,10h326c5.522,0,10-4.477,10-10V319.005
			c0-0.003,0-0.007,0-0.01V93C429,87.477,424.522,83,419,83z M409,349h-33c-5.522,0-10,4.477-10,10s4.478,10,10,10h33v43H103v-43
			h173c5.522,0,10-4.477,10-10s-4.478-10-10-10H103v-48.762l82.885-80.211l62.949,62.949l51.629,54.623
			c1.967,2.081,4.615,3.131,7.27,3.131c2.465,0,4.935-0.906,6.867-2.732c4.014-3.794,4.192-10.123,0.398-14.137l-35.334-37.383
			L326,240.142l83,83V349z M409,294.857l-75.929-75.929c-3.906-3.905-10.236-3.905-14.143,0L266,271.858l-72.929-72.929
			c-3.862-3.861-10.104-3.91-14.025-0.115L103,272.407V103h306V294.857z"/>
	</g>
</g>
<g>
	<g>
		<linearGradient id="SVGID_31_" gradientUnits="userSpaceOnUse" x1="34.7366" y1="-67.9195" x2="579.7366" y2="483.0805">
			<stop  offset="0" style="stop-color:#C9BD92"/>
			<stop  offset="1" style="stop-color:#846034"/>
		</linearGradient>
		<path class="st30" d="M276,146c-16.542,0-30,13.458-30,30s13.458,30,30,30s30-13.458,30-30S292.542,146,276,146z M276,186
			c-5.514,0-10-4.486-10-10s4.486-10,10-10s10,4.486,10,10S281.514,186,276,186z"/>
	</g>
</g>
</svg>
