<?xml version="1.0" encoding="utf-8"?>
<!-- Generator: Adobe Illustrator 24.0.1, SVG Export Plug-In . SVG Version: 6.00 Build 0)  -->
<svg version="1.1" id="Layer_2" xmlns="http://www.w3.org/2000/svg" xmlns:xlink="http://www.w3.org/1999/xlink" x="0px" y="0px"
	 viewBox="0 0 525.2210693 496.421051" style="enable-background:new 0 0 525.2210693 496.421051;" xml:space="preserve">
<style type="text/css">
	.st0{fill:url(#SVGID_1_);}
	.st1{fill:url(#SVGID_2_);}
</style>
<g>
	
		<linearGradient id="SVGID_1_" gradientUnits="userSpaceOnUse" x1="522.2868042" y1="41.1581192" x2="34.2025642" y2="482.2528687" gradientTransform="matrix(1 0 0 -1 0 497.2756042)">
		<stop  offset="0" style="stop-color:#7A5C37"/>
		<stop  offset="1" style="stop-color:#C6BC92"/>
	</linearGradient>
	<path class="st0" d="M516.4850464,172.9934692c0.104126-0.1697388,0.1939697-0.3583374,0.2490234-0.5869751
		c5.5553589-23.0761108-3.8563232-48.1223145-26.271759-58.1248169c-11.0803223-4.944458-23.0427246-4.821228-34.4235229-0.9348755
		c-5.180481,1.769104-11.0127563,5.3470459-17.0266113,8.5253296c-0.0369263-4.7797241-0.0942993-9.6075439-0.1956177-14.5413208
		l-0.0480347-2.2756958l-0.5378418,0.0111084l-0.0596313-0.4764404l-2.2623291,0.2865601
		c-4.5472412,0.576416-9.1680908,0.2874146-13.6480713-0.7523193c13.9448242-5.6470337,27.182373-12.7107544,38.3970337-23.1851196
		c0.1187744-0.1109619,0.1624756-0.2350464,0.2503662-0.3521118c23.7744751-19.3662148,44.7820435-41.7952919,56.6235046-70.4485474
		c0.1794434-0.2782593,0.3771362-0.5460815,0.5546265-0.8255615c0.5106201-0.803772,0.4071045-1.5687261,0.0269165-2.1759038
		c-0.0419922-0.0844116-0.0825195-0.164856-0.1375122-0.2407837c-0.036377-0.0445557-0.0785522-0.0806274-0.1182251-0.1225586
		c-0.1529541-0.1748047-0.3250732-0.3249512-0.5352173-0.4431763c-0.0396729-0.0237427-0.0835571-0.0355225-0.1244507-0.0570068
		c-0.1785889-0.0874023-0.3557739-0.1678467-0.5558472-0.2129517c-0.1882935-0.0497437-0.3764038-0.0576782-0.5707397-0.0617065
		c-0.0759888-0.0008545-0.1480713-0.0107422-0.2243652-0.005188c-0.1571045,0.012146-0.3046265,0.0535889-0.4573975,0.1005249
		c-0.6807861,0.1737671-1.3071899,0.5966187-1.6288452,1.4016113c-0.0421143,0.1054077-0.0908203,0.2064819-0.1331177,0.3117065
		c-13.2437439,20.5458984-31.6089783,37.5297852-52.2499084,51.28302
		c8.430603-10.9825439,13.5797729-23.9083862,17.5822754-37.7297974c0.5100708-1.7612305-1.7086792-2.9119873-2.9764404-1.732666
		c-6.9963379,6.5080566-14.0720215,12.9300518-21.2810669,19.2025127
		c-4.1672974,3.6259766-8.6400146,7.1207886-12.848938,10.8511353c4.6832886-8.567627,7.6514893-18.0675011,7.4597168-26.2036705
		c0.0608521-0.2857666,0.050415-0.5596924-0.0248413-0.8115234c-0.0029907-0.0595703-0.0021362-0.1208496-0.0054932-0.1802979
		c-0.0265503-0.4709473-0.3362427-0.7322388-0.6821289-0.7753906c-0.8128052-0.6101685-2.0753784-0.6581421-2.7576294,0.4672241
		c-9.4083252,15.518856-24.4869385,22.0398521-38.7359619,31.4873619c0.5419312-3.7328491,1.4589844-6.9207153,2.7949829-10.7876587
		c1.3151855-3.8068848,3.2471924-7.4575806,3.7580566-11.4760094c0.0358276-0.2823486-0.2679443-0.4326782-0.5107422-0.3759155
		c-0.1766357-0.1400757-0.411438-0.211853-0.7011719-0.1314087c-7.3474121,2.0399742-15.2589722,6.7012901-22.3322144,12.6302452
		l0.1291504-0.4646606l-3.0545044-0.4561157c-83.0678101-12.4138145-163.1020508-12.5751915-232.6585693-0.6235352
		c0.9692383-1.0541992,1.9696045-2.0824585,3.0327759-3.0550537c5.7625732-5.2716675,12.1030273-8.018734,19.0570679-10.1397057
		c2.1169434-0.4451904,4.2293701-0.9207153,6.3291626-1.482605c0.2877197-0.0770264,0.4557495-0.2504272,0.5421753-0.4537964
		c0.1587524-0.09552,0.1882324-0.3010254,0.0609741-0.4157104c-0.0475464-0.3942871-0.3495483-0.7757568-0.831604-0.8181763
		c-20.3362427-1.7901611-42.8549194,8.7134972-60.0308228,18.5876427c-0.1621704,0.0932007-0.2948608,0.2010498-0.4129639,0.3152466
		h-0.0379639c-0.0189819,0.0271606-0.0349731,0.0716553-0.0534058,0.1018677
		c-0.3116455,0.3500366-0.4544678,0.767395-0.4487915,1.1905518c-0.6575928,2.5819702-0.7799683,7.6626587-0.5336304,10.9939575
		c-1.9346924-0.7509155-3.9247437-1.4663696-5.96698-1.3471069c-0.1694336-0.0394897-0.3484497-0.0290527-0.5203247,0.0310059
		c-0.0126953,0.0016479-0.0251465,0.0004883-0.0378418,0.0022583c-0.0444946,0.0061035-0.0804443,0.02771-0.1121216,0.0540771
		c-0.0032959,0.0018311-0.0068359,0.0029907-0.0100708,0.0048828c-0.001709,0.0015259-0.003479,0.0025024-0.0050659,0.0040894
		c-0.1693726,0.0979614-0.3127441,0.2501831-0.392395,0.4585571c-2.520874,10.6596069-3.8563232,19.3828735-3.1255493,31.3550415
		c-2.7757568-9.5330811-5.2020264-18.8026123-5.6835327-29.170414c-0.5357666-11.5346069,0.2507935-21.4502563,2.8719482-33.5459595
		c0.328125-0.8522339,0.6373291-1.7116699,0.9168091-2.5827026c0.1255493-0.3913574-0.3817139-0.6341553-0.6564941-0.3821411
		c-9.5876465,8.7927856-13.3078613,25.4588566-14.9836426,37.796814
		c-1.9978638,14.7093544-1.1315308,29.7846107,1.6842651,44.3657875
		c-6.1429443-10.5648193-10.9677734-21.7106323-14.0762329-33.664978
		c-3.9182739-15.0686073-5.2393188-33.9918861-5.2393188-46.5646362l-0.722168,0.4505615
		c-0.0620728,0.0210571-0.1218872,0.0529175-0.1722412,0.1115723
		C62.6985779,38.4711266,59.6949158,62.0053062,61.3057556,80.1201172
		c1.1229858,12.6286621,4.7935791,26.9310913,11.5006714,38.7529907
		c-4.5453491-4.0119629-9.1585693-8.1212158-12.3386841-10.7614136c-5.4579468-4.53125-10.1134644-10.1490479-15.8579102-14.2855835
		c-0.0906372-0.0652466-0.1781006-0.0736694-0.2558594-0.0512695c-0.2990112-0.0599365-0.6187744,0.0482178-0.6749268,0.4315186
		c-2.5718994,17.5651245,12.2359009,41.2630615,27.1553345,51.7735596c-8.670166-0.1958008-17.2682495-1.003418-25.8443604-2.468689
		c-0.5322876-0.0909424-0.9886475,0.0435181-1.3419189,0.3016968c-1.0670166-0.117981-2.2930908,0.7371216-1.947998,2.1030884
		c6.0510864,23.9499512,23.9610596,42.0186768,47.4593506,48.2324829c-6.357666,1.4061279-12.7363892,2.7078247-19.1387329,3.902832
		c-0.0809326,0.0150757-0.1490479,0.041748-0.2213745,0.0646362c-0.9349365,0.1253052-1.7770996,0.9135742-1.4179077,2.074646
		c4.217041,13.6322021,14.0792847,23.7176514,26.2091675,29.8886108c1.1356201,8.1046143,2.4329224,15.9175415,3.9033203,23.4380493
		c-33.3344116,7.5829468-61.3737793,30.3344727-74.5003052,62.2368774
		c-12.9453125,31.4619751-9.6474609,70.729126,2.5534668,102.5407104
		c-6.4550171-5.1437378-11.4835815-11.7953491-14.6239624-19.5761108c-0.9546509-2.3652954-4.6661382-1.5271606-4.2329106,0.7073364
		c0.0019531,0.0481567-0.005127,0.0905762-0.0001831,0.140564c4.5037236,45.7843628,37.1863403,84.0864258,83.9280396,89.4168091
		c1.7446899,0.1989746,2.3549194-1.4819336,1.8605347-2.7954712c-0.0648804-0.2929077-0.2442627-0.5836182-0.5530396-0.8536987
		c-0.0635376-0.0618286-0.1326294-0.1177368-0.2045288-0.1721191c-0.003479-0.0024414-0.0055542-0.005188-0.0090942-0.0076294
		c-21.2145386-14.7985229-36.8594971-36.9564819-40.9089966-62.5061035
		c-3.5033569-32.6574707,9.215332-62.6224365,28.1693115-88.6600952
		c7.9065552-10.8615723,17.4522095-20.9127808,20.9555664-34.2098999
		c2.0057373-7.6130981,2.4615479-15.4511108,2.7978516-23.3087158c3.4512939,13.053894,7.5199585,25.1630859,12.2233276,36.4429932
		c-16.6347046,23.0803833-39.1335449,42.9056396-43.967041,71.9949341
		c-5.175293,31.1463013,6.616272,63.9827881,29.8869019,85.0831299c0.3733521,0.338501,0.7804565,0.510498,1.1834717,0.5580444
		c0.3086548,0.1925659,0.6921387,0.305603,1.1630249,0.2825928c5.0006714-0.2446899,10.0449219-1.3347778,13.855896-4.7305908
		c0.5513306-0.2443848,0.9588623-0.7288208,1.0028687-1.4608154c0.0449219-0.2706299,0.0270996-0.5411377-0.0441895-0.7990723
		c-1.788269-17.2384033-3.0407104-34.8050537,2.357605-51.5735474
		c4.8408813-15.0372314,13.0100098-28.1813965,11.7156372-44.5133667c-0.1257324-1.5869751-1.7189941-2.6838379-3.2056885-1.8395386
		c-4.0426025,2.2959595-7.4639282,4.4692993-10.7042847,7.0620117c3.5335083-12.2037354,5.8374634-24.6557007,7.7693481-37.1873169
		c1.2724609,2.3030396,2.5657959,4.5823364,3.9061279,6.8096313c4.6368408,7.7057495,9.6254883,14.8341064,14.9137573,21.5597534
		c0.6985474,6.425354,1.5596313,12.6957397,2.2432251,18.5612793c4.2346191,36.3355713-1.4169922,92.0241089-48.46698,95.7523193
		c-0.0235596,0.0018921-0.0422974,0.0083618-0.0653687,0.0107422c-0.2843018,0.0169067-0.5447998,0.0859375-0.7769165,0.2017212
		c-0.0432129,0.0202637-0.0797729,0.0452271-0.1199341,0.0678711c-0.0629883,0.0369873-0.12677,0.0719604-0.1850586,0.1151123
		c-0.0480957,0.0355225-0.0897217,0.074585-0.1322632,0.1136475c-1.1573486,1.0147705-1.2030029,3.2316895,0.7161255,3.6533813
		c31.1861572,6.8529663,63.4345703-8.0406494,76.3337402-37.7786865
		c6.2927246-14.5073853,6.6461792-30.4465942,4.2360229-45.8510742c2.8815308,2.463623,5.8256226,4.8860474,8.8285522,7.2774048
		c5.5023193,29.7525024-1.5839233,60.4788818-24.0759888,82.5992432c-0.5587769,0.5495605-0.7160645,1.0975342-0.6231689,1.5597534
		c-0.006958,1.3613281,1.5531616,2.8654175,3.2683716,2.1328125c27.2391968-11.6342773,50.8981323-30.8652344,57.7422485-60.190918
		c9.6769409,6.4650879,19.7642822,12.9839478,30.34552,19.7935181l7.4185181,4.7753906l1.0525513,0.6775513l1.0498047-0.6784058
		l5.7800903-3.7228394c25.8986206-16.6781616,49.1635132-31.6706543,69.6386719-48.2007446
		c-5.1112671,13.5936279-12.0227661,27.1295776-26.4595947,32.4721069c-1.7695923,0.6548462-1.9547729,3.2023315,0,3.7874756
		c12.3894043,3.7088623,25.8646851,2.4393311,37.0234985-3.6090088c-1.06073,3.7108765-0.9898682,7.770752-0.3318481,11.9554443
		c1.7770386,11.3007202,6.3673096,38.0929565-14.3025513,34.9526367c-0.5054321-0.0767822-0.9477539,0.026123-1.3173828,0.2323608
		c-1.7261353,0.2434692-2.2236328,3.1764526-0.1608887,3.8814697c18.4197998,6.2947388,39.2199097,1.6110229,51.2730103-14.2454834
		c10.3831787-13.65979,10.7938843-31.6304321,2.1240234-45.7883911c11.2830811,4.041626,24.1522217,3.1704102,34.6416626-3.1981201
		c15.1429443-9.1938477,24.868042-28.1556396,20.4536133-45.7803345
		c-3.2335205-12.9099731-13.732666-22.364563-26.0210571-23.757019c-1.7369995-7.8775635-2.4190063-18.4771118,1.6700439-26.0048218
		c2.1595459,5.8479614,5.7145996,11.2984619,10.1859741,15.8917236c0.0797729,0.0819702,0.1635742,0.1442261,0.2470093,0.2080078
		c1.3183594,3.9557495,3.4234009,7.7166748,6.5110474,11.1159058c7.3867798,8.1321411,19.2596436,10.539978,28.6005249,6.0198975
		c3.9676514-1.4196777,7.3549194-4.8328247,9.5568848-8.9100952c4.9918213-9.243042,3.5021362-19.6593628-0.2683105-28.9783325
		c4.1247559-3.3536987,8.0058594-6.2644043,10.5355835-8.4835815c10.2686157-9.0078735,19.2487183-19.5394287,21.866333-33.3308716
		c4.4193115-23.2839966-9.1506348-45.2557373-30.3244019-53.1002808
		c11.2122192-2.2229614,21.8035889-6.9298096,30.4072266-14.5149536
		C518.2305908,204.9731445,520.8868408,188.0595093,516.4850464,172.9934692z M431.2175598,110.6329346
		c0.7244873,0,1.4498901-0.0205078,2.1957397-0.0622559c0.0849609,4.7590942,0.1242065,9.4014282,0.1446533,13.9959106
		c-2.6110229,1.175354-5.2288818,2.1467285-7.8182983,2.7539063c0.0567017-2.109436,0.109314-4.1888428,0.1547852-6.2074585
		l0.0338135-1.5308838l-1.5014648-0.2959595c-8.1942139-1.6173706-15.6550293-4.3378906-22.1627197-7.9341431
		c3.979248-1.3197021,7.9495239-2.678772,11.8862305-4.116333
		C419.6045837,109.427002,425.4093933,110.6330566,431.2175598,110.6329346z M501.518158,30.8173218
		c-11.6755371,17.850399-27.1689453,33.0005493-43.8430176,46.572998c-0.116333,0.0776367-0.2387695,0.1116333-0.3502197,0.2156372
		c-0.3302612,0.3084717-0.6758423,0.5906982-1.0097046,0.8928833c-0.2495117,0.2011108-0.4953613,0.4071045-0.7453613,0.6075439
		c-0.0740356,0.0592651-0.0957031,0.1293335-0.1582642,0.1914063
		c-18.5263062,16.3172607-42.374939,23.6036377-65.4746094,31.1239624
		c-10.2485352,3.3364258-20.5202637,6.4779663-29.1133423,13.2287598
		c-11.4155273,8.9679565-20.8267212,17.6467285-34.6513062,23.1315918c-1.6846924,0.668457-1.7165527,2.902832-1.7611084,3.0942383
		c-6.088562,26.1442261-18.7307129,49.8529053-37.0076904,69.4157715
		c-0.7450562-4.2600098-1.7250977-8.4987793-2.9661865-12.6689453c0.4639893-0.1460571,0.9005127-0.4379883,1.2443237-0.9243164
		c12.7786865-18.0749512,21.8874512-38.175293,27.1439819-59.6483765
		c9.8977661-19.2963867,28.7974243-29.151123,45.7598877-37.1386719
		c21.5403442-10.1434326,44.9208984-14.9755249,66.6616821-24.6652222
		C452.9305725,71.9083862,480.5627747,53.8445396,501.518158,30.8173218z M278.3070374,252.2490234
		c0.1201172,0.3776855,0.2387695,0.7982788,0.355835,1.2540894c-0.0290527,0.0611572-0.0615845,0.117981-0.0848389,0.1859741
		c-4.1428223,12.1166382-11.9143677,22.2496338-22.543457,29.3900146c-0.0778198,0.0522461-0.1416016,0.111084-0.2056274,0.1697388
		c-1.6348877-0.2616577-3.4485474,1.3635864-2.2528687,3.0614624c3.9307861,5.5817261,5.7174683,12.0974731,4.7858887,18.9030762
		c-0.0018921,0.0136719,0.0001221,0.0259399-0.0015259,0.0395508c-3.7792358,3.5582275-5.6606445,8.6190186-6.2572632,13.8754883
		c-0.8230591-2.0186768-1.5990601-4.0581055-2.2905884-6.1382446c-0.8608398-2.5894165-4.9771729-1.4797363-4.1086426,1.1326904
		c1.6091309,4.8403931,3.5759277,9.5294189,5.8605957,14.0812988c-1.2363281,0.7609253-2.5693359,1.5802612-3.9261475,2.4584351
		c-0.3241577-4.5930176-1.4667969-9.0128784-3.3856812-13.2746582c-1.1239014-2.4962158-4.796936-0.3321533-3.6791382,2.1505127
		c1.1120605,2.4697876,1.883606,5.0162354,2.3552856,7.6223145c-17.5349731-0.5478516-29.1047363-17.3619385-22.7630615-33.8449707
		c13.8595581-2.550354,27.1306152-12.6542358,26.7994995-27.8864136c-0.0050659-0.229187-6.5348511,12.421936-12.0708618,16.9648438
		c-6.6015625,5.4171143-15.1784058,7.2423706-23.4769287,6.6442261c-1.6133423-0.0767212-5.4927979,0.0792847-5.8930054,0.1663818
		c-0.2581787-1.0731812-0.5483398-2.1125488-0.8741455-3.0944214c-0.0570068-0.1717529-0.1410522-0.312439-0.2419434-0.4274292
		c1.3015747-4.5864868,1.9060059-10.0532227-1.3399048-13.0668335c-0.274353-0.2546997-0.5501099-0.473999-0.8260498-0.6680298
		c-0.6692505-6.8955688-3.1616211-18.574707-12.336792-16.1957397c-3.5048218,0.9087524-5.9708862,4.0671997-7.043457,7.4090576
		c-0.8189697-0.897522-1.8105469-1.684082-2.9954834-2.3061523c-2.7978516-1.4688721-7.4068604,0.1233521-9.446167,2.5221558
		c-2.4133911,2.8388672-1.2164917,5.9241333,0.0369263,8.9766235c1.0776367,2.6242676,1.2505493,5.6846924,2.0145874,8.4591064
		c-3.6201172-2.5126343-8.2051392-5.0476074-11.699707-4.6904297c-1.4439697-8.8998413-2.6218262-16.9970093,1.1904907-25.7248535
		c2.9405518-6.7319946,7.8447266-11.9467773,14.0128784-15.7269897c-0.7167358,4.7565308-0.7559204,9.6779175-0.0557251,14.6459351
		c0.0229492,0.1627197,0.0696411,0.2998657,0.1258545,0.4256592c0.4611206,2.5494995,1.6016846,6.1938477,1.8978882,5.4807129
		c0.2561035-0.6165771,0.2490845-1.2741699,0.7244263-4.4069214c2.225647-10.1118774,7.5056152-18.770813,15.4502563-25.4020996
		c1.5541382-1.2971802-0.6789551-3.5097046-2.2218628-2.2219238c-5.9831543,4.9940796-10.4265137,9.9908447-13.3226318,16.3339233
		c0.7272949-13.3108521,7.2112427-25.7849731,18.015564-34.0674438
		c0.1159668-0.8141479,20.9035645-12.7591553,18.8577271-23.5272217c-0.8112183-4.2699585-3.4324951-6.3986816-6.6608887-7.1526489
		c2.5600586-2.1452637,4.7907104-4.854187,6.5765381-8.0927124c1.0178223-1.8458862-1.6723022-3.5185547-2.6884155-1.6757813
		c-4.8770142,8.8443604-13.5952148,13.5020752-23.2072754,12.111084c-0.4866943-0.0704346-0.9044189,0.074585-1.2276611,0.3358765
		c-0.1126709,0.0377808-0.2254028,0.0750732-0.3392334,0.1295776c-4.880127,2.3362427-8.1508179,6.4439697-10.0742188,10.5582886
		c-1.5964355-5.6044922-1.000061-11.81073,4.9387207-14.7243042c0.4094849-0.2009277,0.62677-0.4963379,0.7453613-0.815918
		c-0.052063-0.1192627-0.1061401-0.2388916-0.1538086-0.3602295c-0.0244141-0.0435181-0.0568848-0.0775146-0.0742188-0.1298828
		c-0.1900024-0.5734863-0.4226685-1.0997314-0.699707-1.6203613c-0.0184937-0.0095215-0.0392456-0.0140381-0.0580444-0.0229492
		c-6.2752686-17.5890503,3.9158936-31.5275269,18.2767334-41.0648804
		c7.3230591-4.8634033,14.3924561-9.5532227,18.4038696-17.1149902c1.0928955,4.9335327,1.4677734,9.7303467,0.0889893,14.9395752
		c-0.0514526,0.194458-0.0611572,0.3746338-0.0531006,0.5473022c-1.0758057,1.4090576,0.4735718,3.7828979,2.0814819,2.5767212
		c5.164917-3.8743896,9.6317749-8.3795166,13.4122925-13.5401611c1.1713867,5.1141357,1.0159912,10.2698975-0.5367432,15.4388428
		c-0.0474243,0.157959-0.0665283,0.3065186-0.0726318,0.4501343c-0.0627441,0.7271118,0.286377,1.4750977,1.1965942,1.722168
		c16.9243774,4.5939331,27.9921875,18.5439453,28.8183594,35.7609253c-2.9421387-3.1430054-6.1499023-6.079895-9.6676636-8.7390747
		c-1.6132202-1.2194824-3.1807251,1.5076904-1.5859985,2.7132568
		c29.4790649,22.2842407,35.5994263,59.6876221,30.8842163,94.2658081
		c-1.7420044-8.4113159-5.6844482-16.6665039-12.0543823-21.6223145c-0.0411987-0.0321655-0.1288452-0.0046387-0.102478,0.0596924
		C273.7391663,242.059021,276.5953674,246.8673096,278.3070374,252.2490234z M266.9225769,314.9552612
		c-0.1796875,1.6038818-0.6916504,2.4503784-1.8666382,3.6743164c-0.8424072,0.8775024-1.7937622,1.4818726-2.4098511,2.5939331
		c-1.3015747,2.3493042-1.1623535,4.9094238-0.1751709,7.2907104c-0.5483398,1.8980713,2.5544434,3.3961792,4.0228882,1.4684448
		c5.9507446-7.8118896,22.6213379-18.3330078,24.8917236-3.8183594c-8.210144-3.7341309-18.3851318-3.0365601-23.180542,5.5947876
		c-1.1027222,1.0388184-0.5651245,3.1248779,0.8834229,3.5864258c0.6000366,0.256958,1.2799683,0.2565918,1.8330688-0.1207275
		c3.0759888-0.68573,6.0979004-0.6732178,9.1273193,0.0164795c0.1043701,0.0308228,0.2067261,0.0634766,0.3258057,0.0806274
		c0.0768433,0.0110474,0.1408691,0.0352173,0.2164307,0.0476074c0.4070435,0.1033936,0.8141479,0.2124023,1.2218018,0.3399658
		c0.1734619,0.0542603,0.3393555,0.0842896,0.4990234,0.0977783c5.7664795,2.0036621,6.6036987,8.5797729,3.3512573,13.1444092
		c-0.1461182-0.6934814-0.3487549-1.3759766-0.6495972-2.0371094c-0.690918-1.5183105-4.5874634-5.329895-2.845459-7.1551514
		c1.8932495-1.9836426-1.1150513-5.0012817-3.0128784-3.0128784c-1.1133423,1.1665039-1.6712036,2.5405273-1.7142944,4.0133667
		c-1.8685913-0.0411377-3.2855835-1.1829834-4.7494507-2.2504272c-0.5855103-0.4269409-1.5585327-0.369873-2.1505127,0
		c-2.536499,1.5848999-7.815979,3.7700806-11.5264893,2.7368774c1.3289185-0.2694092,2.673645-0.4381714,3.9136353-0.6113892
		c2.7041626-0.3777466,1.5534058-4.4838867-1.1326904-4.1086426c-2.3963623,0.3347168-5.2174683,0.8289795-7.7268677,1.8459473
		c-0.4780273,0.0667114-0.9313965,0.2714233-1.2827759,0.5776978c-2.2073364,1.1265259-4.0317993,2.7641602-4.8746338,5.2179565
		c-1.4187012,4.1303711,1.3865967,7.2307739,4.8665771,8.96875c-6.8208618,2.8757324-16.888855,0.7061157-13.086792-8.9418335
		c2.3255005-5.901123,8.8756714-9.255188,14.2210083-12.4483643c1.3328857,0.2862549,3.0770264-0.8139648,2.7409668-2.6187134
		c-1.2033691-6.4627075-0.7887573-14.3231812,3.6224365-19.5941162c3.5700073-4.2658081,10.5200806-6.3915405,15.171936-3.3534546
		c-3.9779053,0.1900024-7.6332397,1.8696289-8.4298706,6.5436401
		C266.888092,313.4822998,267.0057678,314.2127075,266.9225769,314.9552612z M187.7955627,312.9020386
		c-0.3261719-0.0162964-0.7042236-0.0355225-1.1105957-0.0514526c-0.0984497-1.9933472,0.0862427-4.2163086,1.1703491-5.8916626
		c1.8670654-2.8853149,5.0554199-2.8561401,8.0864868-2.3172607c1.4830933,0.2636108,2.1195679-2.0070801,0.6265259-2.272522
		c-3.4179077-0.607666-7.0094604-0.6812744-9.5901489,1.9477539c-0.0488892-0.00177-0.0951538-0.0074463-0.1477051-0.003479
		c-4.5164795,0.3424072-8.7337036-0.8512573-12.2737427-3.4295654c1.8772583,0.2703247,3.793396,0.2634277,5.3028564-0.3499756
		c0.9267578-0.3766479,1.5097656-1.0266724,1.5640869-2.0543213c0.3843384-7.2745361-4.8603516-11.7337646-11.7800293-12.3432007
		c-2.730835-0.2405396-2.7146606,4.0217285,0,4.2608643c4.1696777,0.3671875,7.0218506,2.6149292,7.4694824,6.442749
		c-4.5530396,0.6307983-9.9538574-3.0216675-12.6206055-5.9942627c-0.5862427-0.6534424-1.2909546-0.7862549-1.9203491-0.6027222
		c-1.8070679-1.8961182-3.4620972-4.15448-4.0960083-6.5866699c-0.2750854-1.055481-0.3615112-2.210022,0.1699219-3.2078247
		c1.4234619-2.6725464,4.6518555-1.925293,6.8706665-0.8604736c3.5713501,1.7138672,6.8808594,3.9191284,9.9324951,6.4359131
		c1.161438,0.9578857,2.8378906-0.7002563,1.6664429-1.6663818c-0.1913452-0.1578369-0.4074097-0.3341675-0.6343994-0.5181274
		c-0.0471802-0.1477661-0.125061-0.2938843-0.2431641-0.432251c-2.3080444-2.7047729-1.8366699-7.3501587-3.0334473-10.6315918
		c-0.9912109-2.7179565-4.572998-7.5251465,1.3406372-9.3547363c4.0483398-1.2525024,6.0982056,0.9526367,7.7184448,3.2475586
		c-0.0365601,1.7457886,0.3235474,3.3905029,0.9659424,4.9841919c-3.8156738,0.5892944-5.8145752,5.2688599-4.8789063,9.4838257
		c0.5939941,2.6757202,4.7026978,1.543335,4.1086426-1.1326904c-0.3856812-1.7374878-0.2196655-4.548584,2.3665771-4.0233154
		c2.5065918,0.5090942,2.9343262,4.1598511,3.0714722,6.09198c0.1370239,1.9308472,0.2649536,3.8852539,0.2755737,5.8344727
		c-1.1207886-1.161499-2.2442627-2.4526367-3.0195923-3.4043579c-1.732605-2.1268311-4.7312012,0.9035034-3.0128784,3.0128174
		c1.821106,2.2354736,4.3037109,5.2036133,6.8513184,6.6743164c1.5335083,0.8852539,3.0097656-0.2913818,3.2056885-1.8395386
		c0.5096436-4.0275269,0.3873901-8.6079712-0.2601929-12.6236572c-0.3404541-2.1108398-1.1325684-4.1425171-2.5303955-5.6663208
		c-0.0496216-0.1052246-0.0987549-0.2105713-0.1702881-0.3168945c-1.4059448-2.090271-2.873291-4.2678833-2.7700806-6.8966675
		c0.1066895-2.7160645,1.6708984-6.3031616,4.5839233-6.8917847c5.1503296-1.0406494,6.4351807,6.5200195,6.8718872,11.1569824
		c-2.5598145,0.7643433-4.5181885,3.6852417-4.6571655,6.8591919c-0.1199951,2.7415771,4.1411133,2.7357788,4.2608643,0
		c-0.0322876-0.7842407,0.1484375-1.5158691,0.5421753-2.1948853c1.7429199-0.5725098,2.7394409-0.0443115,2.9894409,1.5846558
		c0.3444824,1.4036255-0.0852051,2.9025269-0.374939,4.2709961c-0.2060547,0.9729004-0.4047852,1.9404297-0.618103,2.902832
		c-0.4768066-0.8173828-0.9373169-1.6437378-1.333374-2.5040894c-1.1452637-2.4879761-4.8189697-0.3256836-3.6790771,2.1505737
		c1.0541382,2.289978,2.4476318,5.1532593,4.236084,6.9782715c1.2202148,1.2450562,2.9904785,0.4882202,3.560791-0.9401245
		c0.0971069-0.2432251,0.1974487-0.5031128,0.2979126-0.7658081c1.4502563,5.9537964,1.9764404,14.0250854-0.2426758,19.2822876
		c-1.0686035,2.5314331-3.4369507,4.8567505-5.7111206,6.8103638c-0.4937134-0.171814-1.0679321-0.1217041-1.6523438,0.2910767
		c-2.0484009,1.4469604-4.3731689,1.5408936-6.8086548,1.3878174c-0.2755127-0.017334-0.5494995-0.0397949-0.8223877-0.067688
		C190.5296326,317.1652832,190.4884949,313.036438,187.7955627,312.9020386z M157.1867371,57.520565
		c57.8109741-13.4456177,140.8187256-10.6351318,203.0285645-3.1330566
		c-5.0151367,3.9996948-9.7884521,9.7100868-13.2828369,13.943119c-3.1347656,3.7974243-5.7897949,7.8430786-7.8965454,12.1920776
		c-0.1867065-4.6188354-0.5618896-9.2280273-1.1381226-13.8440552c-0.1251221-1.0021362-1.0006714-2.0587769-2.1574097-1.6434937
		c-14.3729248,5.1599121-21.7603149,21.1536255-24.4453125,35.578186
		c-2.6744385-3.9871216-6.0481567-7.5603027-10.1196289-10.6697998c-0.7503052-0.572998-1.8880005-0.0897217-2.3318481,0.6114502
		c-14.2172852,22.4592896-29.0197754,51.0285034-17.2680054,77.7641602c-1.032959-0.137085-2.0679321-0.1347046-3.0964966,0.0847168
		c-4.921814,1.0501099-5.3713379,8.2288208-5.0716553,13.7518921c-1.8458862-2.8948364-3.8726196-5.6766357-6.0723267-8.3344727
		c0.15802-0.2423706,0.2611694-0.5383301,0.2665405-0.8997803c0.2890625-19.3661499-11.4091187-35.5873413-29.7184448-41.2971191
		c1.6086426-6.3892822,1.3518066-12.9211426-0.8445435-19.1933594c-0.4888306-1.395874-2.2929077-1.6767578-3.1151123-0.4071045
		c-2.9893188,4.616272-6.5283203,8.7409058-10.6084595,12.3502808c0.788269-6.0532227-0.3543091-11.8206787-2.0849609-17.8773804
		c-0.4678955-1.6375732-2.802002-1.6031494-3.2868652,0c-4.9300537,16.2987671-24.3519897,20.0542603-33.8466797,32.9481812
		c-6.9771729,9.4751587-8.7496338,21.092041-4.8013306,32.0616455c-7.0992432,4.842041-6.5140991,14.4484253-3.1600952,21.756958
		c0.581665,1.2677002,1.8908081,2.0754395,3.0938721,1.5334473c1.2427368-0.4437866,1.4615479-1.649292,1.7247314-2.5187378
		c1.2516479-4.1347046,4.057251-9.3087158,9.1455078-11.7974243c5.5899048,0.5167847,10.8999023-0.6682739,15.4551392-3.3999023
		c1.7597656,0.1686401,3.4263306,0.8999023,4.887146,2.4342041c3.5938721,3.774353,1.5002441,8.244812-1.6593628,11.6854248
		c-3.7105713,4.0404663-13.0205688,10.9508057-13.1698608,11.0614014
		c-4.0762329,3.0178833-7.586731,6.5411987-10.4885254,10.4395142c-0.159668-0.2727661-0.3636475-0.5335083-0.6283569-0.7666016
		c-29.7644043-26.2095337-38.3742676-65.8239746-44.4852905-103.2854004
		c-0.0379028-0.2324829-0.1074829-0.4304199-0.1903076-0.6125488c-0.1477051-1.1984253-0.2849121-2.3973389-0.4130249-3.5965576
		c1.4976196-1.4581299,2.9390869-2.9607544,4.2648315-4.5484009
		C153.8414612,87.7121582,158.7192078,72.3588257,157.1867371,57.520565z M281.231781,172.8730469
		c5.1233521,0.484375,9.8444824,5.9018555,13.5383301,9.0717773c-3.5013428,6.6885376-7.4952393,13.199707-11.967041,19.6552124
		c-1.5562744-4.4100952-3.4107666-8.7155762-5.5807495-12.8578491c0.5759277-0.3065186,0.9662476-0.8968506,0.8699951-1.784668
		C277.7313538,183.6273804,276.1960144,172.3969116,281.231781,172.8730469z M391.0283508,47.9752769
		c5.9810791-5.6871338,12.7791138-9.5025635,19.5324097-13.8840332c-4.2988281,6.2354126-6.5209961,15.1123047-7.4115601,22.300293
		c-11.0269165,7.9362831-20.359314,19.9088173-24.6138306,32.8568153c-0.0661011,0.2011719,0.204895,0.274231,0.3140869,0.1324463
		c5.2149658-6.7733765,9.4286499-14.2399292,15.1809692-20.6050415
		c6.1989136-6.8593178,13.5599976-11.6533241,21.5907593-16.0938759
		c10.992981-6.0784302,21.5717773-12.7839355,29.2966309-22.5605431c-1.8661499,5.7067223-3.6260376,11.393856-6.6725464,16.8055382
		c-4.4442139,7.8945313-10.6879272,13.7696533-16.3359985,20.670536c-1.1629639,1.4208984,0.3271484,3.9036865,2.1121826,2.7374268
		c4.8563232-3.1729126,9.5767212-8.0879555,13.6030273-13.8374672
		c13.2139893-7.4014893,25.1760254-19.1986694,36.1744995-29.8352013
		c-4.8049316,15.5869713-13.0246582,29.247982-25.1619873,40.2993164c-0.0361328,0.0328979-0.0593872,0.0682983-0.0921021,0.1018677
		c-14.4465332,8.3886719-29.65979,15.3492432-44.7796021,20.9656982
		c-31.0341797,11.5280151-74.9029541,22.4898071-93.6698608,52.9382935
		c-0.6387939,1.0108032-1.182312,2.5587158-1.4035645,3.5089722c-2.7896729,11.9862671-6.7781982,23.0127563-11.940979,33.552063
		c-3.1497803-2.8026733-7.2202148-6.7103882-11.5288086-8.640686c-12.5010986-25.4382935,1.9750977-53.8079224,15.527771-75.4624023
		c7.9312134,6.5593872,12.8311768,15.4659424,14.1395874,25.7550049c0.2730103,2.1466064,3.6851196,2.1738281,3.4086914,0
		c-0.663208-5.215332-2.1115112-10.0404053-4.3076782-14.4423218c0.0002441-0.0018921,0.0009766-0.00354,0.0012207-0.0054321
		c1.59375-13.1276855,7.7641602-30.15271,20.7756958-36.131897c0.8695068,7.8981323,1.1738281,15.7832031,0.90448,23.7405396
		c-0.0742798,2.1939697,3.3344727,2.1912231,3.4086304,0c0.0391846-1.1577148,0.0646362-2.3136597,0.079834-3.4685059
		c0.0646362-0.1132813,0.1210327-0.2372437,0.1641846-0.3764648c2.87146-9.2600708,8.3231201-16.9679565,15.0849609-23.8311768
		c2.5552368-2.5935707,6.0808105-7.1666298,9.4031982-8.6564369c5.848999-2.6228638,6.3688354,9.2428017,6.4265137,13.0769081
		c0.0078125,0.5195313,0.2089233,0.9120483,0.5053711,1.18573c0.6709595,0.9438477,1.8597412,1.5375366,2.3988647,0.7694092
		C378.3941345,64.0598755,384.3176575,54.3561974,391.0283508,47.9752769z M383.4239807,47.5681725
		c-0.1903687,0.8982544-0.343811,1.8025513-0.4769897,2.7098999c-3.8844604,4.111084-7.2578125,8.520813-9.7901001,12.9188843
		c-0.2601929-1.7766724-0.6488647-3.569519-1.2092285-5.265564c-0.1334839-1.4005127-0.2518311-2.8183594-0.3355103-4.2765503
		l-0.0861206-1.5022583l-1.4926147-0.197876c-0.5148315-0.0682373-1.053894-0.1390381-1.6102295-0.2114258
		c-0.208252-0.2120361-0.4165649-0.4240112-0.6411743-0.6172485c-0.628418-0.5406494-1.3276978-0.6069336-2.0653687-0.2664795
		c-0.2820435,0.130188-0.5648804,0.2827148-0.8475952,0.4302368
		c-36.3933105-4.5581055-136.8175049-14.5038452-210.1066284,3.0620117l-1.6010742,0.383667l0.2213745,1.6316528
		c1.9442139,14.3305702-2.614502,29.3444252-12.5059814,41.191288c-0.6094971,0.7299805-1.2573242,1.432312-1.9135132,2.1286011
		c-0.3521118-4.3920898-0.5150146-8.7825928-0.4098511-13.1599731c4.9232178-8.9638672,7.1113892-19.357605,6.3029175-29.755619
		c1.317627-2.907959,2.866394-5.6982422,4.6325073-8.3443604C218.9975281,35.6657677,299.6647644,35.3344078,383.4239807,47.5681725
		z M72.2750549,201.0790405c7.9679565-1.5064697,15.901123-3.1705322,23.8007813-5.0044556
		c1.3052368-0.3029785,1.4713135-1.6461182,0.9182739-2.5335083c-0.0025024-0.6556396-0.3682251-1.2651367-1.225769-1.4161987
		c-24.4663086-4.3103638-43.4486694-21.3596802-50.2327271-45.0941772
		c9.9007568,1.612793,19.8374634,2.4342651,29.8815308,2.4103394c1.822937-0.0043335,2.1281128-2.3544312,0.9191284-3.1466064
		c-0.0438232-0.0559692-0.0880127-0.1119385-0.1436768-0.1651001c-7.6455078-7.302063-15.0369873-13.7104492-20.5203247-22.9951172
		c-4.883606-8.269104-7.5606079-17.223999-9.9285889-25.8041382c3.4960938,5.706604,8.9627686,10.527832,13.9423218,14.7151489
		c5.0566406,4.2520142,22.2096558,19.1291504,22.7836304,19.6940308c1.2641602,1.2441406,3.3790283-0.3461304,2.4675293-1.9039307
		c-4.7167969-8.0610962-10.026123-15.3301392-13.5428467-24.1011353
		c-3.4381714-8.5748291-5.6246338-17.6858521-6.3903198-26.8933105c-0.7666626-9.2199097-0.1281128-18.5745888,1.8428345-27.609745
		c1.6090698-7.3756104,4.5245972-14.1855469,7.0504761-21.1928062c-1.9190063,12.9206505,0.6430664,27.5884972,3.5522461,39.7918091
		c3.6828003,15.4481201,10.2508545,30.3114014,19.4035034,43.2978516c0.8809204,1.249939,2.5796509,0.8244629,3.1154175-0.1843872
		c0.0180054-0.0202637,0.0393066-0.0345459,0.0557251-0.0576782c0.0331421-0.0466919,0.0518799-0.1373901,0.0629272-0.2502441
		c0.0593262-0.2260742,0.0575562-0.4715576-0.012146-0.7280884c-0.0650635-0.8209839-0.2497559-1.8883667-0.3063354-2.2130737
		c-2.7453003-15.7582397-4.9170532-31.5388184-3.1918945-47.5446205c0.7509155-6.9667358,2.2123413-13.8800659,4.3897095-20.5427246
		c0.8693237-2.6600952,1.9889526-5.213501,3.1568604-7.7427979c-5.4443359,22.0220947,0.2445068,51.0963783,9.5105591,68.4550781
		c1.3590088,3.1430054,3.0075073,7.5609131,3.3868408,8.793396c0.1378784-0.2228394-2.4770508-18.6876221-2.6901855-27.8085327
		c-0.2011108-8.6107178,1.1072388-17.0483398,1.4346924-25.6030312c2.651001,1.5750732,3.8933716,2.0516968,6.2116089,3.0306396
		c0.7443848,0.3143311,1.3909302,0.1723022,1.8477783-0.1848145c0.2524414-0.126709,0.4522095-0.3543091,0.5455933-0.6993408
		c0.0004883-0.001709,0.0006714-0.0036011,0.0011597-0.0053101c0.0943604-0.2171631,0.1444092-0.4502563,0.1468506-0.68396
		c0.4899902-2.5036011,0.1897583-5.5238647,0.2715454-7.9961548c0.0407104-1.230957,0.1784668-2.4807739,0.1707153-3.7080688
		c9.1444092-5.5019531,18.7421875-10.1275024,28.8897095-13.4821777c2.6286011-0.8690186,5.282959-1.5611572,7.9490356-2.1731529
		c-8.9431763,5.6469688-16.2780762,14.6979332-20.4265747,23.383419
		c-10.1201172,21.1879921-8.2642212,46.0625038-3.6448364,68.4144897c0.0631714,0.305542,0.1768799,0.5623779,0.3196411,0.7838135
		c6.626709,33.828064,18.0671387,68.116272,44.6268921,91.5039673c0.0620117,0.0546265,0.1221313,0.0883789,0.1834106,0.1342773
		c-2.8328247,4.5361938-4.8982544,9.4915161-6.1240845,14.6988525c-0.1915283,0.0246582-0.3891602,0.0838623-0.5899658,0.1967163
		c-10.8879395,6.1201782-18.7147217,16.2160645-19.2176514,29.3565674
		c-7.6351318-1.9403076-15.3320923-2.8009644-23.2212524-1.9689331c-3.9747925,0.4191895-7.0795288,0.8729248-10.8226929-1.0245361
		c-3.0796509-1.5610962-6.0244141-3.9066772-8.90271-6.0136719c-0.0259399-0.1350708-0.0527954-0.2697754-0.0786133-0.4049683
		c4.8099365-4.4344482,9.5610352-8.9307251,14.2289429-13.5150757c0.4138794-0.4064941,0.5450439-0.8726807,0.493042-1.3117676
		c0.3613892-1.0148926-0.1444092-2.3491211-1.5294189-2.2970581
		C104.549408,234.5822144,80.2043152,223.256897,72.2750549,201.0790405z M113.1643372,246.890625
		c-0.6619263-3.666748-1.2753906-7.3471069-1.8412476-11.0358887c3.9844971,0.8006592,8.0388794,1.2397461,12.0792236,1.3140869
		C120.0273132,240.4492188,116.6128235,243.6878662,113.1643372,246.890625z M96.3798523,300.3342896
		c-4.661499,15.3745117-17.7909546,27.5751953-26.5326538,40.7214355
		c-15.3665161,23.1088867-24.6716919,50.1843872-22.6607056,77.9953613
		c-0.0780029,0.2479248-0.1102295,0.5310669-0.069519,0.8587646c0.114624,0.9204102,0.2775879,1.8202515,0.4180298,2.7297363
		c0.0617065,0.574585,0.0957031,1.147583,0.1672974,1.7226563c0.0254517,0.2052612,0.1114502,0.3652954,0.1790771,0.5395508
		c4.2617188,23.7703247,17.3394165,43.6900635,36.2498169,58.6295776
		c-36.5480957-7.3713379-62.8973999-36.9418945-70.4537964-72.8319092
		c4.1959229,6.0153198,9.5853271,11.0907593,16.0548096,14.9932251c2.0403442,1.2307739,3.9180908-1.3707275,2.8546143-3.0083618
		l0.0023193,0.000061c-13.7927837-31.618042-17.9183331-72.9352417-4.649229-105.2672119
		c12.7957745-31.1787109,40.2322998-52.9857178,72.8786621-60.0446777
		C99.0265198,271.6124268,100.5585632,286.5526733,96.3798523,300.3342896z M104.926239,258.5100098
		c0.1234131-0.9721069,0.2597656-1.9423218,0.4163818-2.909729c0.2017212-1.2462769-0.5783691-2.1552124-1.5133667-2.5080566
		c-1.2755737-6.5371094-2.427002-13.34552-3.4577026-20.430481c2.3323364,0.9047852,4.7224121,1.6749878,7.1513062,2.3109741
		c0.7453613,4.9673462,1.5695801,9.9243164,2.4874878,14.8534546c-0.1436157,0.1315308-0.2838745,0.2666016-0.4276123,0.3980103
		c-1.1936646,1.0912476-0.2006226,2.6761475,1.0509644,2.8520508c3.2194214,16.517334,7.4842529,32.6732178,13.116394,47.8135986
		c-1.3324585,2.3382568-2.7509766,4.6294556-4.2418823,6.8809204
		C113.6801453,293.2034302,108.7993469,276.9376831,104.926239,258.5100098z M112.9529114,378.7532959
		c-1.8771973,1.9968262,0.6030884,5.9105225,2.4860229,3.9075928c4.1074829-4.3692627,8.550293-8.0426025,13.5270386-11.2029419
		c-0.15979,16.8275146-10.2391968,30.9719238-13.7271729,47.2670288
		c-3.1471558,14.7030029-2.0494995,29.7876587-0.5205688,44.6201172c-2.8780518,2.3076172-6.6567993,3.0140991-10.2846069,3.2105713
		c-25.2557373-23.2384033-37.3547974-62.7904053-24.0847168-95.3789063
		c10.6179199-26.0751953,33.3676147-44.4282837,47.2139893-68.5675049
		C123.5473328,328.1854858,121.1902771,354.0593262,112.9529114,378.7532959z M128.2570496,327.069458
		c0.5407104-3.7428589,1.0721436-7.4880981,1.6096191-11.2327271c0.2809448,0.6281128,0.5513916,1.2649536,0.8428955,1.8842163
		c4.1735229,8.8669434,8.7642212,17.1751709,13.8253174,25.0576172c-0.0458374,3.8015747,0.0927734,7.6407471,0.3515625,11.4692383
		C138.8351746,345.9025879,133.2900085,336.8980713,128.2570496,327.069458z M110.934845,479.9902954
		c25.1292114-7.4526978,39.3095093-32.9561768,42.2655029-58.8461914
		c2.1990967-19.2614136-1.1279907-38.2449951-3.3416138-57.3182373c-2.522583-21.7354126-2.96521-49.2254639,17.1040649-63.3062134
		c0.6203003-0.4351807,0.8776245-1.0348511,0.9140015-1.6408081c-1.3904419-0.0638428-2.6907349-0.5477295-3.576355-1.6536865
		c-13.4476929,9.7081909-18.359314,23.8944702-19.4970703,39.182251
		c-3.835083-6.3577271-7.4271851-13.0728149-10.7991943-20.2367554c-1.0949097-2.3261719-2.1345215-4.6998291-3.1500854-7.0933838
		c0.8789063-5.8909302,1.8156738-11.7717285,2.9067993-17.6236572c0.3929443-2.1072998-2.0559082-3.2583618-3.3673096-2.3477783
		c-0.6165771,0.1728516-1.1766357,0.5872803-1.475647,1.3125c-0.8692017,2.1082153-1.824646,4.1696777-2.8504639,6.1928711
		c-4.5882568-12.8511963-8.2162476-26.4121704-11.0778198-40.2800293c3.8164063,2.9459229,7.9645386,5.9561157,12.352478,6.2967529
		c3.5541992,0.2759399,7.473938-1.1257324,11.0978394-1.2462769c6.2147217-0.2067261,12.3250732,0.7789917,18.3109741,2.3550415
		c0.0740967,0.0195313,0.1430664,0.0238037,0.2141113,0.0342407c0.2330933,3.9505615,1.1054688,8.1468506,2.7304077,12.5714111
		c-1.5522461,0.4833374-2.8060303,1.6962891-3.5282593,3.9763794c-1.2987671,4.1002197,1.8226318,8.5714111,4.8051758,11.6628418
		c-0.1386719,0.6102905-0.0244141,1.2843628,0.5072632,1.8770142c2.3787842,2.6515503,5.255188,4.6854858,8.6154175,5.901062
		c0.0446777,0.0161743,0.0968628,0.0314331,0.142334,0.0475464c-0.0026245,0.2694092,0.0941772,0.5477905,0.3411255,0.7952881
		c1.7442017,1.7478027,3.7299194,3.1405029,5.8761597,4.1584473c-3.1505127,4.6449585-4.805603,9.7646484-5.5509033,15.0891113
		c-0.1238403,0.1488037-0.2386475,0.3171997-0.3295288,0.5309448c-13.7085571,32.2431641,6.5699463,63.5080566,6.187561,96.1682129
		C176.3276672,453.6281738,146.6236267,481.8475342,110.934845,479.9902954z M171.3183899,341.7964478
		c1.4639282,13.3639526,4.9898071,25.8731079,9.2988892,38.3949585c-2.2276611-2.0686646-4.4058228-4.1627197-6.5198364-6.2940674
		c-3.0322876-12.9490356-5.512085-25.9609375-3.4217529-38.8876953
		C170.846405,337.2880249,171.0730896,339.5574341,171.3183899,341.7964478z M177.9515686,390.3959351
		c-0.7142944-3.3290405-1.5045776-6.6662598-2.3067017-10.0096436c2.4228516,2.350769,4.9157104,4.6743164,7.5092163,6.9625854
		c0.0976563,0.2689209,0.1936646,0.5372925,0.2918091,0.8063965c1.1497803,3.1515503,2.1519165,6.3388062,3.0129395,9.5477905
		C183.5630188,395.3053589,180.724823,392.8734741,177.9515686,390.3959351z M222.3518372,419.156311
		c-2.1565552,31.8421021-23.3477173,53.0862427-50.1868896,66.3504028
		c17.6436768-20.3060913,25.4464722-47.1311646,21.7788696-74.0916748
		c-2.2731323-16.7092285-10.0384521-31.6237793-14.2890015-47.7960815
		c-4.4138184-16.793457-10.0176392-41.6964111,0.7017212-57.0552979c0.0865479-0.1239624,0.1509399-0.2472534,0.2068481-0.369812
		c1.5505371,0.3598633,3.1525269,0.5404053,4.7855225,0.5305786c-0.8596802,1.881897-1.1079102,4.0471191-1.0135498,6.1179199
		c-1.8878784,0.0787354-3.8433228,0.4207153-4.8388062,1.4981079c-1.6472168,1.7827759-0.0516357,3.9376221,1.5548096,4.9775391
		c2.2828369,1.4779053,5.4140625,2.3083496,8.5219116,2.3571777c0.0134277,0.03302,0.0218506,0.0655518,0.0370483,0.0987549
		C203.4131775,351.9332275,224.6799622,384.78125,222.3518372,419.156311z M194.0052795,321.1674194
		c1.3587646-0.355896,2.619873-0.8980103,3.6861572-1.6511841c0.7681274-0.5425415,1.0081787-1.3380127,0.9118042-2.0827637
		c2.6452026-2.2473145,5.4609375-4.9741211,6.5736694-8.0713501c1.7141113-4.7711182,1.8983765-10.7124023,1.1112061-16.1862183
		c0.0639648,0.019104,0.1203613,0.0437012,0.1895752,0.0588989c2.8789063,0.632019,5.9509277,0.8295898,9.0654297,0.6401367
		c-5.4780884,18.663208,7.5517578,37.3249512,27.8804321,37.5620728c0.0374756,0.7022705,0.0564575,1.4077759,0.0527954,2.1173706
		c-6.1258545,4.6387939-11.1757202,10.6504517-8.0203247,18.4271851c3.9901123,9.8339233,17.006897,7.940918,23.5003052,2.2356567
		c0.3029175-0.2661743,0.4851685-0.5587158,0.5880737-0.8571777c0.6022949-1.1251221,0.352417-2.6435547-1.2364502-2.8979492
		c-3.2405396-0.5187988-9.0546875-3.071228-4.9643555-6.7400513c0.2258301-0.2025757,0.4745483-0.3738403,0.7213135-0.5477295
		c4.6158447,4.0184326,12.2365723,2.5215454,17.4542236-0.3052368c2.2711792,1.5150146,4.4830322,2.4136353,7.1696167,2.0824585
		c0.2770996,0.4433594,0.572876,0.8761597,0.8670654,1.3064575c1.6673584,2.4388428,2.1983032,4.305542,2.1744995,7.2937012
		c-0.0124512,1.5671997,1.8363037,2.7192993,3.2056885,1.8395386c4.5549316-2.9264526,7.6983643-7.9578857,7.0162354-13.524353
		c-0.6644897-5.4229126-4.9865723-9.8180542-10.3460083-10.6350708c-2.232605-0.5681152-4.4899292-0.817749-6.7520142-0.760437
		c4.7329712-3.6116943,11.6929321-2.4708862,17.0181885,0.7637329c0.668396,0.4060059,1.31604,0.3896484,1.8525391,0.1382446
		c1.0917358,0.0361938,2.199585-0.6428223,2.1768799-2.0508423c-0.1292114-8.0232544-3.6045532-15.6166992-12.7737427-14.9106445
		c-6.5842285,0.507019-12.2496948,4.4644775-16.742981,9.211853c1.1716309-2.0460815,4.3099365-3.4023438,4.8016968-6.0290527
		c0.3908081-2.0874023-0.3344116-3.2208252,0.84021-5.1803589c1.7383423-2.9000244,4.8499756-2.2619629,7.7741089-1.579895
		c2.1895752,0.5108032,3.3444214-2.1620483,2.2111816-3.4821777c-0.0527954-0.2167358-0.1339111-0.4373779-0.276001-0.661438
		c-4.2150879-6.6481934-12.2817993-7.6826172-18.9542847-4.463623c0.0938721-5.9545288-1.425293-11.6605225-4.6680908-16.7807007
		c9.6918945-6.6429443,17.0736084-15.579834,21.6835327-26.2382813c1.2202148,7.4682617,2.1074829,17.0856934,2.3040161,18.8900146
		c0.088623,0.8140259,2.3216553-5.8479614,2.5575562-6.8098145c4.1982422-13.4836426,5.6383057-29.7629395,3.6346436-46.079834
		c0.0054321-0.0054321,0.0111694-0.0091553,0.0165405-0.0146484c20.1193848-20.5717163,34.1184692-46.0355225,40.645813-74.0645752
		c0.036438-0.1565552,0.0045166-0.2871094,0.0128174-0.4336548c11.1655273-4.4662476,20.5495605-10.888916,29.5662231-18.8812866
		c11.1084595-9.8464355,23.5092163-13.8751221,37.414856-18.3901367c0.5765381-0.1871948,1.1535034-0.3768311,1.7302856-0.5647583
		c7.0870361,4.381958,15.3568115,7.7147217,24.5383301,9.68927c-0.0413208,1.7542114-0.0883179,3.5543213-0.1380615,5.3744507
		c-3.848999,0.3248291-7.5914307-0.3824463-11.1000366-2.7241821c-0.8226318-0.5491333-1.6204224-0.3616333-2.1674805,0.1486816
		c-0.65448,0.3898926-1.0563354,1.1179199-0.7174683,2.0690918c2.3401489,6.5675659,7.2980957,12.8143311,13.4315796,16.9559326
		c-1.3641968,34.9141235-4.3687134,77.2230225-10.8898926,112.8147583
		c-5.0050049,27.3068237-30.3530273,120.8144531-146.7467651,179.9025269
		c-13.5231934-7.6260376-25.8599243-14.9091797-37.1824951-22.1429443
		C226.8882751,381.7976685,207.6053772,350.4990234,194.0052795,321.1674194z M267.3930969,448.6375732l-3.4393921,2.2162476
		l-0.4419556,0.2444458l-0.4257813-0.2435913l-5.1096802-3.2909546
		c-11.2180176-7.2191772-21.9287109-14.1290283-32.1611938-20.9980469c0.0319824-0.2124023,0.0728149-0.4196167,0.1030884-0.6329956
		c0.3209229-2.2619019,0.534668-4.5148926,0.6611938-6.7600708c11.9946289,7.6013184,24.2870483,14.7648315,36.371521,21.5682983
		l0.8462524,0.4755859l0.8666992-0.4364014c47.6461792-24.0270386,85.5641479-56.5090942,112.7000122-96.5443115
		c25.0688477-36.9855957,33.8509521-70.0028076,36.8540039-86.3922119c6.43573-35.1217651,9.46698-76.7124634,10.873291-111.3759766
		c2.3795776,1.1970825,4.8761597,2.0803833,7.4296875,2.536377c0.2854004,0.0509644,0.5707397,0.0903931,0.8560791,0.1298218
		c-0.5449219,26.4371338-2.2182617,50.0740356-4.9471436,71.3300171c-0.3962402,0.5942993-0.5098877,1.3511353-0.2558594,1.9400635
		C410.4333191,356.479126,350.2910461,395.2528687,267.3930969,448.6375732z M381.1329651,473.9085083
		c-9.2618408,10.7227173-22.9048462,14.9138184-36.3366699,13.1778564
		c4.6585693-2.067749,8.3372803-6.1427002,10.2114258-11.4242554c4.791626-13.5032349-7.8779907-32.6635742,3.1772461-43.1893921
		c0.8751221-0.7424927,0.7752075-1.7138672,0.230896-2.4058228c-0.637085-0.8989868-1.9735718-1.3566284-3.0082397-0.371521
		c-9.75177,8.2740479-22.930481,11.2417603-35.4360352,9.0727539c14.1657104-7.9204712,20.6585083-23.5345459,25.9487305-38.6311646
		c5.2451782-4.4386597,10.2970581-9.0049438,15.1489868-13.7600708
		c-0.8482666,13.4111938,4.1293335,26.9699707,14.8963623,35.6696777c1.8634033,1.5056152,3.8555908,2.8079224,5.9263916,3.946167
		C393.0248718,439.8029175,392.7574158,460.4506226,381.1329651,473.9085083z M417.1494446,325.069458
		c-5.989563,8.4289551-6.2263184,20.8237915-4.2713013,30.7055054c-2.9152832,0.0930176-5.8932495,0.6323242-8.8691406,1.6976929
		c-2.3624878,0.8457642-1.3439941,4.642334,1.0441895,3.7874756c17.5102539-6.2684326,33.8086548,7.3145142,34.9824829,25.0058594
		c1.0758057,16.2147217-9.8049927,32.2223511-24.6077881,38.348877
		c-28.5180054,11.8027954-54.6191406-15.0388794-49.8964844-42.7379761
		c5.7862549-5.9689941,11.2745972-12.2484131,16.4584351-18.942688c-0.5941772,6.0047607,0.5871582,11.9880371,4.4506226,17.0861816
		c7.1051636,9.3759155,21.9130249,10.0581055,27.6525879-1.0792847c1.1560669-2.2433472-2.2319946-4.2325439-3.3915405-1.9824219
		c-6.3011475,12.2270508-21.6088257,5.0037231-24.2346191-5.8945313c-1.2845459-5.331604-0.5311279-10.9311523,1.4382324-16.1405029
		c2.8116455-3.9989624,5.5296631-8.1380615,8.1422119-12.4533081
		c13.2764893-21.9298096,23.3032227-47.3363037,30.3255615-77.4725342
		c8.3164063-2.7617798,17.8171387-4.9812012,26.800415-4.4519043c10.5040283,5.5810547,3.1377563,17.4778442-3.6477661,21.8032837
		c-3.859314,2.4602661-8.2435303,3.9375-12.3883057,5.8156738c-7.8136597,3.5405273-14.1906738,8.0977783-17.8815918,16.0523682
		C416.0621033,311.0996704,415.6270447,318.2615356,417.1494446,325.069458z M472.5170593,345.9660034
		c-0.5197144,2.5361938-1.75177,5.7164917-3.5568848,8.4161987c-0.0476074,0.0480957-0.0974121,0.086792-0.1433105,0.1425781
		c-2.0761108,2.5209351-4.520874,4.2905273-7.1357422,5.4318848c-1.1420898,0.2005615-2.3539429,0.1378784-3.6279297-0.2633667
		c-0.0593262-0.0906982-0.1182861-0.1817017-0.1963501-0.269165c-9.1879883-10.2903442,1.5014038-22.2271118,12.4127808-31.5333862
		C472.504425,333.6357422,473.776886,339.8187866,472.5170593,345.9660034z M500.1908875,259.6363525
		c6.2072144,16.8485107,0.6275635,34.4285889-11.3201904,47.0751953
		c-11.1057129,11.755127-49.831665,33.5379028-35.2516479,53.6694336c-0.1052856,0.3629761-0.1084595,0.7421875,0.0174561,1.0944214
		c-6.4960327-0.2108765-12.9876709-3.621521-17.1723022-9.4866333c-8.5195923-11.9411621-5.7266846-26.967041,0.5452881-39.2106934
		c1.1503296-2.2456055-2.2374878-4.2351685-3.3915405-1.9823608c-4.3187256,8.430603-6.9724121,18.1348267-6.1921997,27.3649902
		c-6.1572266-8.3961792-9.2424927-18.826416-5.8613892-29.1934204c4.2011719-12.881897,15.4856567-15.8484497,26.3397217-21.2761841
		c9.4372559-4.7191772,19.1728516-17.1902466,11.9026489-26.1904907c4.890625,1.1635742,9.4769287,3.3846436,13.4402466,7.0858154
		c17.0077515,15.8828125-0.3200684,36.9978027-14.2325439,47.1203613c-2.0239868,1.4727173-0.0661621,4.8820801,1.9825439,3.3915405
		c14.8110352-10.7764893,31.9476929-31.1703491,18.2229004-49.7021484
		c-12.0349121-16.2501221-34.4137573-14.171936-51.8373413-8.8312378
		c2.2807617-10.3713989,4.2155151-21.2972412,5.8162842-32.8212891c10.041687,3.2312622,21.0410156,4.656311,31.859314,3.9671021
		C480.905304,234.1809692,494.5654602,244.3674927,500.1908875,259.6363525z M497.8733826,217.0407104
		c-18.7546387,12.366333-43.1740112,13.644104-64.1455078,6.7340698c0.0001831-0.0018311,0.0004883-0.00354,0.0007324-0.0053711
		c22.1297607,1.5751343,50.6984863-8.0626831,55.2290649-32.3939209
		c4.6446533-24.9445801-24.7166748-34.7106934-43.1705933-24.380127
		c0.8164063-7.5318604,4.8006592-14.6219482,10.9664917-19.0994263c7.6759644,0.3538818,15.2404785,2.4589233,21.4308472,7.1012573
		c2.0230103,1.5170288,3.9828491-1.8913574,1.9825439-3.3915405c-6.7470703-5.0596924-15.1536255-7.3095093-23.5688477-7.6169434
		c-0.2643433-0.0881348-0.553772-0.0986938-0.8551636-0.0231323c-2.2935791-0.0480347-4.5838013,0.0379028-6.836853,0.2580566
		c-7.4169922,0.7246704-14.2167358,2.4637451-21.3028564-0.9902954
		c-5.4075317-2.6359253-10.3144531-6.9562988-13.4663086-12.1918335c6.5463867,2.0322266,13.46698,0.3341675,19.9360352-2.7694092
		c12.4665527-5.9810181,23.9424438-13.9398193,38.3728638-13.9724121
		c27.8585815-0.0628662,44.6797791,26.3626709,41.4622498,51.77771c-2.6306458-5.736084-6.3260803-10.9786377-10.9363098-15.2090454
		c-1.8597412-1.7064209-4.6447144,1.0639038-2.7773438,2.7774658c8.6661377,7.9520874,13.2636414,19.0284424,14.2497253,30.6688232
		C515.6287231,198.2990112,509.4101257,209.4338379,497.8733826,217.0407104z M441.7259827,170.1030884
		c-0.6424561,1.6307373,0.9837646,3.7800903,2.65625,2.5006714c5.7128296-4.3702393,12.7080078-6.0317383,19.3043213-5.5458984
		c7.8690186,9.2723999-1.2394409,20.0643921-9.6491699,24.7262573c-5.4266357,3.0081787-11.3734131,4.3908691-17.4143066,4.3782959
		c1.192627-14.7129517,1.9397583-30.3043213,2.2549438-46.8502197c3.949707-0.2172241,7.8961182-1.0093384,11.8423462-1.331604
		c-5.6514282,5.7670288-8.9975586,13.5997925-9.0263062,21.7888794
		C441.6936951,169.8880615,441.7098694,169.9955444,441.7259827,170.1030884z M462.486908,190.6365356
		c6.7156372-5.97229,10.1654663-14.953186,6.3500977-22.744873c12.8320923,3.279541,22.09729,15.0376587,13.2767334,30.7420044
		c-9.2670288,16.4995117-29.9049072,22.763916-47.8981934,21.3081665
		c0.7948608-6.4584961,1.4943848-13.0923462,2.0908203-19.9261475
		C445.8059387,200.0675049,455.20047,197.1166992,462.486908,190.6365356z"/>
	
		<linearGradient id="SVGID_2_" gradientUnits="userSpaceOnUse" x1="529.2272339" y1="48.8379402" x2="41.1430244" y2="489.9326782" gradientTransform="matrix(1 0 0 -1 0 497.2756042)">
		<stop  offset="0" style="stop-color:#7A5C37"/>
		<stop  offset="1" style="stop-color:#C6BC92"/>
	</linearGradient>
	<path class="st1" d="M200.6695862,141.805481c-7.3360596,5.6663818-8.52948,14.78479-10.894165,22.7867432
		c-0.1427612,0.1021729-0.2817993,0.2190552-0.4105225,0.3688354c-0.4858398,0.5653076-0.8411255,1.2904663-0.8120117,2.0123901
		c0.0186157,0.4619751,0.3018188,1.2012329,0.9284668,1.2883301c0.7462158,0.1038208,1.3775635-0.159729,1.930603-0.5523071
		c1.3643799-0.1799927,2.8252563-0.5317383,4.3151245-0.9921875c3.3518066-0.2272949,6.9025269-1.9033203,9.4591064-3.5224609
		c4.1755371-2.6416626,7.4991455-6.8456421,7.8966675-11.5609131c0.3408813-4.0337524-1.2498169-8.7489624-6.447937-8.7489624
		c-0.1988525,0-0.3977051,0.0568237-0.625,0.0568237c0.5965576-0.2841187,1.1362915-0.5965576,1.7611084-0.7954102
		c3.7495728-1.2214355,7.300293-0.2557373,11.0782471-0.6533203c0.0284424,0,0.0284424-0.0283813,0.0284424-0.0568237
		C215.6109924,135.215332,205.129303,138.3683472,200.6695862,141.805481z M209.4754944,154.4460449
		c0,3.8062744-3.0963135,6.9025269-6.9025879,6.9025269c-3.8348389,0-6.9309692-3.0962524-6.9309692-6.9025269
		c0-3.8348999,3.0961304-6.9025879,6.9309692-6.9025879C206.3791809,147.543457,209.4754944,150.611145,209.4754944,154.4460449z"/>
</g>
</svg>
