<svg width="131" height="96" viewBox="0 0 131 96" fill="none" xmlns="http://www.w3.org/2000/svg">
<path fill-rule="evenodd" clip-rule="evenodd" d="M30.0722 14.7029C30.5711 13.3969 31.0894 12.0421 31.8182 10.7469C33.6798 7.67997 36.9235 6.3245 39.8052 7.09662C41.4141 7.52138 43.1818 9.05649 44.0658 10.3676L51.4757 20.9305L56.4772 22.2707C60.1581 23.257 62.3576 26.8877 61.8193 31.1323C61.2407 35.1913 59.3679 42.6441 57.618 46.8119C55.9462 51.0007 52.3704 53.0395 48.5099 52.0051L43.5083 50.6649L31.5927 56.1767C30.3607 56.7778 28.3301 57.3015 26.7082 56.8669C26.6032 56.8419 26.5105 56.8171 26.4178 56.7923C23.4812 56.0054 21.4718 53.1598 21.3907 49.5818C21.401 48.0812 21.6252 46.7321 21.8418 45.4283L21.8419 45.4282L21.8459 45.4039L22.0548 44.1029C22.6571 39.8627 28.024 19.8332 29.6146 15.8896L30.0722 14.7029ZM19.8833 17.0738C20.6398 16.4159 21.7666 16.5026 22.4027 17.2707C23.0298 18.0408 22.9261 19.1996 22.1701 19.8555C20.0658 21.6844 18.4405 24.4349 17.5913 27.6042C16.7426 30.7715 16.7744 33.9682 17.6822 36.6043C18.009 37.5503 17.5194 38.6057 16.5893 38.9585C16.2425 39.0873 15.8726 39.1055 15.5222 39.0116C14.9572 38.8602 14.5062 38.4329 14.311 37.8699C13.1645 34.5418 13.1045 30.5682 14.1461 26.6811C15.1876 22.794 17.2263 19.3827 19.8833 17.0738ZM17.7893 10.2357C17.1824 9.47282 16.0873 9.39903 15.3534 10.0614C11.3389 13.6637 8.23489 18.9801 6.61522 25.0248C4.99446 31.0735 5.02499 37.2276 6.70046 42.3545C6.88267 42.9144 7.31756 43.3376 7.86336 43.4838C8.20186 43.5745 8.55831 43.5526 8.89522 43.4211C9.79891 43.0608 10.2816 42.0049 9.97582 41.0617C8.52737 36.6242 8.51547 31.2449 9.94321 25.9165C11.3704 20.5901 14.0703 15.9375 17.5435 12.8187C18.2793 12.1568 18.3898 10.999 17.7893 10.2357Z" fill="url(#paint0_linear_723_52)"/>
<g filter="url(#filter0_b_723_52)">
<mask id="path-2-outside-1_723_52" maskUnits="userSpaceOnUse" x="33.5267" y="2.55243" width="97.9102" height="94.3747" fill="black">
<rect fill="white" x="33.5267" y="2.55243" width="97.9102" height="94.3747"/>
<path fill-rule="evenodd" clip-rule="evenodd" d="M87.137 24.774C86.4245 22.909 85.6844 20.9742 84.6436 19.1245C81.985 14.7447 77.3527 12.809 73.2375 13.9116C70.9398 14.5182 68.4154 16.7105 67.1528 18.5828L56.5709 33.6677L49.4283 35.5815C44.1716 36.9901 41.0305 42.1751 41.7992 48.2368C42.6255 54.0335 45.3 64.6767 47.7991 70.6288C50.1866 76.6107 55.2932 79.5223 60.8063 78.045L67.949 76.1311L84.9657 84.0025C86.725 84.8609 89.625 85.6088 91.9411 84.9882C92.0911 84.9525 92.2234 84.9171 92.3558 84.8816C96.5496 83.7579 99.4192 79.694 99.535 74.5844C99.5203 72.4413 99.2001 70.5146 98.8907 68.6526L98.8849 68.618L98.5866 66.76C97.7265 60.7046 90.0621 32.1006 87.7906 26.4688L87.137 24.774ZM101.688 28.1599C100.608 27.2204 98.9985 27.3442 98.0901 28.4412C97.1945 29.5408 97.3426 31.1957 98.4222 32.1324C101.427 34.7443 103.748 38.6723 104.961 43.1984C106.173 47.7215 106.128 52.2867 104.831 56.0513C104.365 57.4022 105.064 58.9095 106.392 59.4133C106.887 59.5972 107.416 59.6232 107.916 59.4891C108.723 59.2729 109.367 58.6627 109.646 57.8587C111.283 53.1059 111.369 47.4312 109.881 41.8801C108.394 36.3289 105.482 31.4573 101.688 28.1599ZM104.678 18.3946C105.544 17.3052 107.108 17.1998 108.157 18.1457C113.89 23.2901 118.322 30.8824 120.635 39.5148C122.95 48.153 122.906 56.9416 120.514 64.2633C120.254 65.0629 119.632 65.6672 118.853 65.876C118.37 66.0056 117.861 65.9743 117.379 65.7864C116.089 65.2719 115.4 63.7639 115.836 62.417C117.905 56.0798 117.922 48.3977 115.883 40.7883C113.845 33.1817 109.989 26.5373 105.029 22.0834C103.978 21.1382 103.82 19.4847 104.678 18.3946Z"/>
</mask>
<path fill-rule="evenodd" clip-rule="evenodd" d="M87.137 24.774C86.4245 22.909 85.6844 20.9742 84.6436 19.1245C81.985 14.7447 77.3527 12.809 73.2375 13.9116C70.9398 14.5182 68.4154 16.7105 67.1528 18.5828L56.5709 33.6677L49.4283 35.5815C44.1716 36.9901 41.0305 42.1751 41.7992 48.2368C42.6255 54.0335 45.3 64.6767 47.7991 70.6288C50.1866 76.6107 55.2932 79.5223 60.8063 78.045L67.949 76.1311L84.9657 84.0025C86.725 84.8609 89.625 85.6088 91.9411 84.9882C92.0911 84.9525 92.2234 84.9171 92.3558 84.8816C96.5496 83.7579 99.4192 79.694 99.535 74.5844C99.5203 72.4413 99.2001 70.5146 98.8907 68.6526L98.8849 68.618L98.5866 66.76C97.7265 60.7046 90.0621 32.1006 87.7906 26.4688L87.137 24.774ZM101.688 28.1599C100.608 27.2204 98.9985 27.3442 98.0901 28.4412C97.1945 29.5408 97.3426 31.1957 98.4222 32.1324C101.427 34.7443 103.748 38.6723 104.961 43.1984C106.173 47.7215 106.128 52.2867 104.831 56.0513C104.365 57.4022 105.064 58.9095 106.392 59.4133C106.887 59.5972 107.416 59.6232 107.916 59.4891C108.723 59.2729 109.367 58.6627 109.646 57.8587C111.283 53.1059 111.369 47.4312 109.881 41.8801C108.394 36.3289 105.482 31.4573 101.688 28.1599ZM104.678 18.3946C105.544 17.3052 107.108 17.1998 108.157 18.1457C113.89 23.2901 118.322 30.8824 120.635 39.5148C122.95 48.153 122.906 56.9416 120.514 64.2633C120.254 65.0629 119.632 65.6672 118.853 65.876C118.37 66.0056 117.861 65.9743 117.379 65.7864C116.089 65.2719 115.4 63.7639 115.836 62.417C117.905 56.0798 117.922 48.3977 115.883 40.7883C113.845 33.1817 109.989 26.5373 105.029 22.0834C103.978 21.1382 103.82 19.4847 104.678 18.3946Z" fill="#FF749F" fill-opacity="0.35"/>
<path d="M84.6436 19.1245L85.5151 18.6341C85.5097 18.6245 85.5041 18.6151 85.4984 18.6057L84.6436 19.1245ZM87.137 24.774L86.2028 25.1309L86.204 25.1339L87.137 24.774ZM73.2375 13.9116L73.4927 14.8785L73.4963 14.8775L73.2375 13.9116ZM67.1528 18.5828L67.9715 19.1571C67.975 19.1521 67.9785 19.147 67.9819 19.1419L67.1528 18.5828ZM56.5709 33.6677L56.8297 34.6336C57.0565 34.5728 57.2547 34.4342 57.3896 34.2419L56.5709 33.6677ZM41.7992 48.2368L40.8072 48.3626C40.8078 48.3677 40.8085 48.3728 40.8092 48.3779L41.7992 48.2368ZM47.7991 70.6288L48.7279 70.2581C48.7257 70.2526 48.7235 70.2471 48.7212 70.2416L47.7991 70.6288ZM67.949 76.1311L68.3688 75.2235C68.1564 75.1253 67.9162 75.1046 67.6901 75.1652L67.949 76.1311ZM84.9657 84.0025L85.4042 83.1038C85.398 83.1008 85.3917 83.0978 85.3855 83.0949L84.9657 84.0025ZM91.9411 84.9882L91.7098 84.0153C91.7006 84.0175 91.6914 84.0198 91.6822 84.0223L91.9411 84.9882ZM99.535 74.5844L100.535 74.607C100.535 74.5972 100.535 74.5874 100.535 74.5775L99.535 74.5844ZM98.8907 68.6526L97.9042 68.8165L97.9042 68.8166L98.8907 68.6526ZM98.8849 68.618L97.8976 68.7765L97.8985 68.7818L98.8849 68.618ZM98.5866 66.76L97.5965 66.9006C97.5974 66.9066 97.5983 66.9125 97.5992 66.9185L98.5866 66.76ZM87.7906 26.4688L86.8576 26.8286C86.8594 26.8334 86.8613 26.8381 86.8632 26.8428L87.7906 26.4688ZM98.0901 28.4412L97.3198 27.8033L97.3147 27.8097L98.0901 28.4412ZM101.688 28.1599L101.032 28.9145L101.032 28.9147L101.688 28.1599ZM98.4222 32.1324L99.0782 31.3776L99.0775 31.377L98.4222 32.1324ZM104.831 56.0513L105.776 56.3778L105.777 56.3769L104.831 56.0513ZM106.392 59.4133L106.037 60.3483L106.044 60.3508L106.392 59.4133ZM109.646 57.8587L110.591 58.1862L110.591 58.1844L109.646 57.8587ZM108.157 18.1457L107.487 18.8881L107.489 18.89L108.157 18.1457ZM104.678 18.3946L103.895 17.772L103.892 17.7762L104.678 18.3946ZM120.514 64.2633L119.563 63.9526L119.563 63.9538L120.514 64.2633ZM117.379 65.7864L117.009 66.7153L117.016 66.7179L117.379 65.7864ZM115.836 62.417L114.886 62.1067L114.885 62.1086L115.836 62.417ZM105.029 22.0834L104.36 22.8269L104.361 22.8274L105.029 22.0834ZM83.7721 19.6149C84.771 21.3901 85.4867 23.2565 86.2028 25.1309L88.0711 24.4172C87.3622 22.5615 86.5978 20.5583 85.5151 18.6341L83.7721 19.6149ZM73.4963 14.8775C77.1232 13.9057 81.3275 15.5887 83.7887 19.6434L85.4984 18.6057C82.6425 13.9007 77.5821 11.7122 72.9787 12.9457L73.4963 14.8775ZM67.9819 19.1419C68.5494 18.3004 69.4233 17.3573 70.4303 16.5545C71.4434 15.7468 72.5248 15.134 73.4927 14.8785L72.9822 12.9447C71.6525 13.2958 70.3228 14.0824 69.1836 14.9906C68.0383 15.9037 67.0188 16.9929 66.3237 18.0237L67.9819 19.1419ZM57.3896 34.2419L67.9715 19.1571L66.3341 18.0085L55.7522 33.0934L57.3896 34.2419ZM49.6871 36.5475L56.8297 34.6336L56.3121 32.7017L49.1694 34.6156L49.6871 36.5475ZM42.7913 48.111C42.0744 42.4582 44.9936 37.8051 49.6871 36.5475L49.1694 34.6156C43.3495 36.1751 39.9866 41.8919 40.8072 48.3626L42.7913 48.111ZM48.7212 70.2416C46.2614 64.3834 43.6059 53.8256 42.7892 48.0957L40.8092 48.3779C41.645 54.2413 44.3386 64.97 46.8771 71.0159L48.7212 70.2416ZM60.5475 77.0791C55.6133 78.4012 50.964 75.8607 48.7279 70.2581L46.8704 70.9994C49.4092 77.3607 54.973 80.6433 61.0651 79.0109L60.5475 77.0791ZM67.6901 75.1652L60.5475 77.0791L61.0651 79.0109L68.2078 77.0971L67.6901 75.1652ZM85.3855 83.0949L68.3688 75.2235L67.5291 77.0387L84.5458 84.9101L85.3855 83.0949ZM91.6822 84.0223C89.6947 84.5548 87.0564 83.9099 85.4042 83.1038L84.5272 84.9013C86.3936 85.8119 89.5552 86.6628 92.1999 85.9541L91.6822 84.0223ZM92.097 83.9157C91.9636 83.9514 91.8441 83.9834 91.7098 84.0153L92.1723 85.9611C92.338 85.9217 92.4833 85.8827 92.6146 85.8475L92.097 83.9157ZM98.5353 74.5617C98.4273 79.3227 95.776 82.9299 92.097 83.9157L92.6146 85.8475C97.3231 84.5859 100.411 80.0653 100.535 74.607L98.5353 74.5617ZM97.9042 68.8166C98.2148 70.6856 98.5209 72.5382 98.535 74.5913L100.535 74.5775C100.52 72.3444 100.185 70.3436 99.8772 68.4887L97.9042 68.8166ZM97.8985 68.7818L97.9042 68.8165L99.8772 68.4888L99.8714 68.4541L97.8985 68.7818ZM97.5992 66.9185L97.8976 68.7765L99.8723 68.4594L99.5739 66.6014L97.5992 66.9185ZM86.8632 26.8428C87.9711 29.5897 90.4387 38.0814 92.7519 46.7143C95.065 55.3469 97.1768 63.946 97.5965 66.9006L99.5766 66.6193C99.1362 63.5186 96.9858 54.788 94.6838 46.1967C92.3819 37.6059 89.8816 28.9796 88.718 26.0947L86.8632 26.8428ZM86.204 25.1339L86.8576 26.8286L88.7236 26.109L88.07 24.4142L86.204 25.1339ZM98.8602 29.079C99.4055 28.4206 100.369 28.3385 101.032 28.9145L102.344 27.4053C100.846 26.1022 98.5914 26.2679 97.3199 27.8033L98.8602 29.079ZM99.0775 31.377C98.4014 30.7904 98.3147 29.7488 98.8654 29.0726L97.3147 27.8097C96.0742 29.3328 96.2838 31.6011 97.7669 32.8878L99.0775 31.377ZM105.927 42.9396C104.672 38.2558 102.259 34.1421 99.0782 31.3776L97.7662 32.8872C100.596 35.3465 102.825 39.0888 103.995 43.4572L105.927 42.9396ZM105.777 56.3769C107.149 52.3925 107.181 47.6204 105.927 42.9396L103.995 43.4572C105.165 47.8227 105.107 52.181 103.886 55.7256L105.777 56.3769ZM106.747 58.4783C105.93 58.1684 105.484 57.2235 105.776 56.3778L103.886 55.7248C103.245 57.5809 104.198 59.6506 106.037 60.3483L106.747 58.4783ZM107.657 58.5232C107.361 58.6026 107.045 58.5889 106.74 58.4758L106.044 60.3508C106.73 60.6055 107.47 60.6438 108.175 60.4551L107.657 58.5232ZM108.701 57.5311C108.527 58.032 108.133 58.3956 107.657 58.5232L108.175 60.4551C109.312 60.1502 110.207 59.2935 110.591 58.1862L108.701 57.5311ZM108.915 42.1389C110.359 47.5255 110.264 52.9943 108.7 57.533L110.591 58.1844C112.302 53.2174 112.379 47.3369 110.847 41.6212L108.915 42.1389ZM101.032 28.9147C104.655 32.0635 107.472 36.7522 108.915 42.1389L110.847 41.6212C109.316 35.9056 106.309 30.851 102.344 27.4051L101.032 28.9147ZM108.827 17.4034C107.368 16.087 105.136 16.2128 103.895 17.7721L105.461 19.0171C105.953 18.3975 106.849 18.3126 107.487 18.8881L108.827 17.4034ZM121.601 39.256C119.246 30.4671 114.724 22.6951 108.824 17.4015L107.489 18.89C113.055 23.8852 117.398 31.2978 119.67 39.7736L121.601 39.256ZM121.464 64.5739C123.926 57.0398 123.958 48.0506 121.601 39.256L119.67 39.7736C121.942 48.2553 121.887 56.8434 119.563 63.9526L121.464 64.5739ZM119.112 66.842C120.236 66.5409 121.105 65.6766 121.465 64.5727L119.563 63.9538C119.402 64.4491 119.029 64.7935 118.594 64.9101L119.112 66.842ZM117.016 66.7179C117.688 66.9804 118.415 67.0287 119.112 66.842L118.594 64.9101C118.324 64.9824 118.033 64.9682 117.743 64.8549L117.016 66.7179ZM114.885 62.1086C114.291 63.9397 115.213 65.9992 117.009 66.7153L117.75 64.8575C116.965 64.5446 116.508 63.5882 116.787 62.7254L114.885 62.1086ZM114.917 41.0471C116.915 48.5039 116.884 55.985 114.886 62.1067L116.787 62.7273C118.926 56.1746 118.929 48.2916 116.849 40.5295L114.917 41.0471ZM104.361 22.8274C109.152 27.13 112.92 33.5932 114.917 41.0471L116.849 40.5295C114.77 32.7702 110.826 25.9447 105.697 21.3394L104.361 22.8274ZM103.892 17.7762C102.698 19.2934 102.93 21.5406 104.36 22.8269L105.698 21.3399C105.026 20.7357 104.942 19.6761 105.464 19.0129L103.892 17.7762Z" fill="url(#paint1_linear_723_52)" mask="url(#path-2-outside-1_723_52)"/>
</g>
<defs>
<filter id="filter0_b_723_52" x="16.6846" y="-11.3933" width="130.656" height="121.61" filterUnits="userSpaceOnUse" color-interpolation-filters="sRGB">
<feFlood flood-opacity="0" result="BackgroundImageFix"/>
<feGaussianBlur in="BackgroundImage" stdDeviation="12"/>
<feComposite in2="SourceAlpha" operator="in" result="effect1_backgroundBlur_723_52"/>
<feBlend mode="normal" in="SourceGraphic" in2="effect1_backgroundBlur_723_52" result="shape"/>
</filter>
<linearGradient id="paint0_linear_723_52" x1="28.5513" y1="34.2906" x2="67.7641" y2="70.3384" gradientUnits="userSpaceOnUse">
<stop stop-color="#FF759F"/>
<stop offset="1" stop-color="#FF196E"/>
</linearGradient>
<linearGradient id="paint1_linear_723_52" x1="49.1147" y1="29.2402" x2="109.48" y2="76.5491" gradientUnits="userSpaceOnUse">
<stop stop-color="white" stop-opacity="0.25"/>
<stop offset="1" stop-color="white" stop-opacity="0"/>
</linearGradient>
</defs>
</svg>
