<svg xmlns="http://www.w3.org/2000/svg" viewBox="0 0 346.81 414.27"><defs><style>.cls-1,.cls-2{fill:#fff;}.cls-2{stroke:#727272;stroke-miterlimit:10;stroke-width:9px;}</style></defs><title>pay pal белый</title><g id="Слой_2" data-name="Слой 2"><g id="Слой_1-2" data-name="Слой 1"><path class="cls-1" d="M313.9,110.32c15.64,11.76,26.26,26.9,30.7,46.07,3.91,16.86,2.36,33.63-2.51,50-13.41,44.95-42.94,73.73-88.14,86.32-12.78,3.56-25.93,4.46-39.07,3.87-16.48-.74-29.7,9.22-32.35,28.65-2.54,18.61-6.1,37.07-9.22,55.59-.84,5-2.13,9.88-2.49,14.87-.65,8.93-4.74,15.14-13,18.63h-56c-4.43-1.93-8.45-4.36-10.89-8.79-3.15-5.73-1.74-11.61-.72-17.5,1.72-9.91,3.44-19.83,5.1-29.75.09-.56-.33-1.2-.52-1.8a45.66,45.66,0,0,0,2-6.43c4.41-26,8.65-52.11,13.09-78.14,1.56-9.13,3.58-18.18,5.38-27.27,4.48-8.42,11.74-11.76,21-11.86,18.36-.19,36.75,0,55.06-1,16.59-1,32.27-6.33,47-13.94,29.4-15.19,51-38,64.53-68.19a124.41,124.41,0,0,0,10.65-39.34Z"/><path class="cls-2" d="M313.73,81.64c-5.34-43.07-41.2-76-84.7-76.71-50.38-.79-100.78-.27-151.17-.2-9.25,0-16.5,6.19-18.41,15.3-1.1,5.21-1.86,10.49-2.74,15.74Q47.28,91.68,37.86,147.6q-9,53.55-18,107.1C14.8,284.76,9.68,314.81,4.78,344.9c-1.93,11.83,6.4,22,18.3,22.16,18.39.26,36.79.19,55.19,0,7.52-.08,13.1-3.87,16.54-10.63a45.66,45.66,0,0,0,2-6.43c4.41-26,8.65-52.11,13.09-78.14,1.56-9.13,3.58-18.18,5.38-27.27,4.48-8.42,11.74-11.76,21-11.86,18.36-.19,36.75,0,55.06-1,16.59-1,32.27-6.33,47-13.94,29.4-15.19,51-38,64.53-68.19a124.41,124.41,0,0,0,10.65-39.34l.31.1C313.9,100.76,314.9,91.06,313.73,81.64Z"/></g></g></svg>