<svg xmlns="http://www.w3.org/2000/svg" viewBox="0 0 342.31 409.77"><defs><style>.cls-1{fill:#1084c7;}.cls-2{fill:#263876;}.cls-3{fill:#252d5c;}</style></defs><title>paypal цвет</title><g id="Слой_2" data-name="Слой 2"><g id="Слой_1-2" data-name="Слой 1"><path class="cls-1" d="M309.4,105.82c15.64,11.76,26.26,26.9,30.7,46.07,3.91,16.86,2.36,33.63-2.51,50-13.41,44.95-42.94,73.73-88.14,86.32-12.78,3.56-25.93,4.46-39.07,3.87-16.48-.74-29.7,9.22-32.35,28.65-2.54,18.61-6.1,37.07-9.22,55.59-.84,5-2.13,9.88-2.49,14.87-.65,8.93-4.74,15.14-13,18.63h-56c-4.43-1.93-8.45-4.36-10.89-8.79-3.15-5.73-1.74-11.61-.72-17.5,1.72-9.91,3.44-19.83,5.1-29.75.09-.56-.33-1.2-.52-1.8a45.66,45.66,0,0,0,2-6.43c4.41-26,8.65-52.11,13.09-78.14,1.56-9.13,3.58-18.18,5.38-27.27,4.48-8.42,11.74-11.76,21-11.86,18.36-.19,36.75,0,55.06-1,16.59-1,32.27-6.33,47-13.94,29.4-15.19,51-38,64.53-68.19a124.41,124.41,0,0,0,10.65-39.34Z"/><path class="cls-2" d="M110.82,240.09c-1.8,9.09-3.82,18.14-5.38,27.27-4.44,26-8.68,52.1-13.09,78.14a45.66,45.66,0,0,1-2,6.43c-3.44,6.76-9,10.55-16.54,10.63-18.4.19-36.8.26-55.19,0C6.68,362.4-1.65,352.23.28,340.4c4.9-30.09,10-60.14,15.07-90.2q9-53.55,18-107.1Q42.78,87.18,52.21,31.27C53.09,26,53.85,20.74,55,15.53,56.86,6.42,64.11.24,73.36.23c50.39-.07,100.79-.59,151.17.2,43.5.69,79.36,33.64,84.7,76.71,1.17,9.42.17,19.12.17,28.68l-.31-.1A77.67,77.67,0,0,0,265,91.5q-53.74-.5-107.49.07a31.05,31.05,0,0,0-14.24,4.08c-8.37,4.72-11.47,12.77-12.68,22.21-1.72,13.36-4.56,26.58-6.83,39.87q-6,35.19-11.85,70.41C111.29,232.08,111.18,236.1,110.82,240.09Z"/><path class="cls-3" d="M110.82,240.09c.36-4,.47-8,1.12-12q5.82-35.22,11.85-70.41c2.27-13.29,5.11-26.51,6.83-39.87,1.21-9.44,4.31-17.49,12.68-22.21a31.05,31.05,0,0,1,14.24-4.08q53.75-.5,107.49-.07a77.67,77.67,0,0,1,44.06,14.22,124.41,124.41,0,0,1-10.65,39.34c-13.54,30.23-35.13,53-64.53,68.19-14.75,7.61-30.43,13-47,13.94-18.31,1.07-36.7.85-55.06,1C122.56,228.33,115.3,231.67,110.82,240.09Z"/></g></g></svg>