<svg id="Слой_1" data-name="Слой 1" xmlns="http://www.w3.org/2000/svg" xmlns:xlink="http://www.w3.org/1999/xlink" viewBox="0 0 47 44"><defs><style>.cls-1{fill:url(#Безымянный_градиент_153);}.cls-2{fill:url(#Безымянный_градиент_153-2);}.cls-3{fill:url(#Безымянный_градиент_153-3);}.cls-4{fill:url(#Безымянный_градиент_153-4);}.cls-5{fill:url(#Безымянный_градиент_153-5);}.cls-6{fill:url(#Безымянный_градиент_153-6);}.cls-7{fill:url(#Безымянный_градиент_153-7);}.cls-8{fill:url(#Безымянный_градиент_153-8);}.cls-9{fill:url(#Безымянный_градиент_153-9);}.cls-10{fill:url(#Безымянный_градиент_153-10);}.cls-11{fill:url(#Безымянный_градиент_153-11);}.cls-12{fill:url(#Безымянный_градиент_153-12);}.cls-13{fill:url(#Безымянный_градиент_153-13);}.cls-14{fill:url(#Безымянный_градиент_153-14);}.cls-15{fill:url(#Безымянный_градиент_153-15);}.cls-16{fill:url(#Безымянный_градиент_153-16);}.cls-17{fill:url(#Безымянный_градиент_153-17);}.cls-18{fill:url(#Безымянный_градиент_153-18);}.cls-19{fill:url(#Безымянный_градиент_153-19);}.cls-20{fill:url(#Безымянный_градиент_153-20);}.cls-21{fill:url(#Безымянный_градиент_153-21);}.cls-22{fill:url(#Безымянный_градиент_153-22);}.cls-23{fill:url(#Безымянный_градиент_153-23);}.cls-24{fill:url(#Безымянный_градиент_153-24);}</style><linearGradient id="Безымянный_градиент_153" x1="-7.99" y1="19.28" x2="72.91" y2="44.39" gradientUnits="userSpaceOnUse"><stop offset="0" stop-color="#c9bd92"/><stop offset="1" stop-color="#846034"/></linearGradient><linearGradient id="Безымянный_градиент_153-2" x1="-4.17" y1="6.96" x2="76.73" y2="32.07" xlink:href="#Безымянный_градиент_153"/><linearGradient id="Безымянный_градиент_153-3" x1="-1.16" y1="-2.73" x2="79.74" y2="22.38" xlink:href="#Безымянный_градиент_153"/><linearGradient id="Безымянный_градиент_153-4" x1="-5.67" y1="11.79" x2="75.23" y2="36.9" xlink:href="#Безымянный_градиент_153"/><linearGradient id="Безымянный_градиент_153-5" x1="-6.32" y1="13.89" x2="74.58" y2="39.01" xlink:href="#Безымянный_градиент_153"/><linearGradient id="Безымянный_градиент_153-6" x1="-9.01" y1="22.56" x2="71.89" y2="47.67" xlink:href="#Безымянный_градиент_153"/><linearGradient id="Безымянный_градиент_153-7" x1="-11.01" y1="29" x2="69.89" y2="54.11" xlink:href="#Безымянный_градиент_153"/><linearGradient id="Безымянный_градиент_153-8" x1="-9.92" y1="25.48" x2="70.98" y2="50.6" xlink:href="#Безымянный_градиент_153"/><linearGradient id="Безымянный_градиент_153-9" x1="-10.75" y1="28.16" x2="70.15" y2="53.28" xlink:href="#Безымянный_градиент_153"/><linearGradient id="Безымянный_градиент_153-10" x1="-7.22" y1="16.78" x2="73.68" y2="41.89" xlink:href="#Безымянный_градиент_153"/><linearGradient id="Безымянный_градиент_153-11" x1="-7" y1="16.07" x2="73.9" y2="41.18" xlink:href="#Безымянный_градиент_153"/><linearGradient id="Безымянный_градиент_153-12" x1="-4.02" y1="6.47" x2="76.88" y2="31.58" xlink:href="#Безымянный_градиент_153"/><linearGradient id="Безымянный_градиент_153-13" x1="-2.66" y1="2.1" x2="78.24" y2="27.21" xlink:href="#Безымянный_градиент_153"/><linearGradient id="Безымянный_градиент_153-14" x1="-1.19" y1="-2.63" x2="79.71" y2="22.48" xlink:href="#Безымянный_градиент_153"/><linearGradient id="Безымянный_градиент_153-15" x1="-2.89" y1="2.84" x2="78.01" y2="27.95" xlink:href="#Безымянный_градиент_153"/><linearGradient id="Безымянный_градиент_153-16" x1="-1.41" y1="-1.91" x2="79.48" y2="23.2" xlink:href="#Безымянный_градиент_153"/><linearGradient id="Безымянный_градиент_153-17" x1="-5.07" y1="9.88" x2="75.82" y2="35" xlink:href="#Безымянный_градиент_153"/><linearGradient id="Безымянный_градиент_153-18" x1="-2.07" y1="0.2" x2="78.83" y2="25.31" xlink:href="#Безымянный_градиент_153"/><linearGradient id="Безымянный_градиент_153-19" x1="-6.52" y1="14.53" x2="74.38" y2="39.64" xlink:href="#Безымянный_градиент_153"/><linearGradient id="Безымянный_градиент_153-20" x1="-6.72" y1="15.18" x2="74.18" y2="40.29" xlink:href="#Безымянный_градиент_153"/><linearGradient id="Безымянный_градиент_153-21" x1="-8.71" y1="21.6" x2="72.19" y2="46.71" xlink:href="#Безымянный_градиент_153"/><linearGradient id="Безымянный_градиент_153-22" x1="-9.02" y1="22.59" x2="71.88" y2="47.7" xlink:href="#Безымянный_градиент_153"/><linearGradient id="Безымянный_градиент_153-23" x1="-9.6" y1="24.46" x2="71.3" y2="49.58" xlink:href="#Безымянный_градиент_153"/><linearGradient id="Безымянный_градиент_153-24" x1="-9.75" y1="24.93" x2="71.15" y2="50.04" xlink:href="#Безымянный_градиент_153"/></defs><title>phoenix</title><path class="cls-1" d="M36.5,31.86a2.37,2.37,0,0,1,2.15.93,2.45,2.45,0,0,1-.21,2.39.08.08,0,0,0,.13.08,2.42,2.42,0,0,0,.19-2.61,2.13,2.13,0,0,0-2.26-.83A0,0,0,0,0,36.5,31.86Z"/><path class="cls-2" d="M39.93,20.61a.07.07,0,0,0,0,.14,4.84,4.84,0,0,1,2.38.24,2.78,2.78,0,0,1,1.47,1.45s0,0,0,0a2.2,2.2,0,0,0-1.31-1.53A3.93,3.93,0,0,0,39.93,20.61Z"/><path class="cls-3" d="M42,9.94a8,8,0,0,0-1,.62,2.18,2.18,0,0,1-1.74.21.06.06,0,0,0,0,.11A2.11,2.11,0,0,0,41,10.72c.67-.38,1.71-1.31,2.39-.39,0,0,0,0,0,0C43.22,9.74,42.43,9.74,42,9.94Z"/><path class="cls-4" d="M46.82,14.08l0-.05a4.55,4.55,0,0,0-2.4-5.32,4.25,4.25,0,0,0-3.15-.09,13.51,13.51,0,0,0-1.62.81c0-.43,0-.87,0-1.32V7.9h0v0l-.21,0a3.57,3.57,0,0,1-1.28-.08,11.28,11.28,0,0,0,3.6-2.16l0,0a.19.19,0,0,0,.05-.33l-.32-.24,1-.29a.2.2,0,0,0,.14-.12l.06-.06A27.35,27.35,0,0,0,44.88.64a.23.23,0,0,0-.24-.33.22.22,0,0,0-.16.09A18.58,18.58,0,0,1,42.23,3,11.52,11.52,0,0,0,43.38.2.16.16,0,0,0,43.11,0q-1,.89-1.95,1.76c-.38.33-.79.65-1.18,1A5,5,0,0,0,40.67.41a.15.15,0,0,0,0-.09s0,0,0,0a.07.07,0,0,0-.06-.07.17.17,0,0,0-.25,0c-.86,1.42-2.24,2-3.54,2.88a5.16,5.16,0,0,1,.26-1,5.37,5.37,0,0,0,.34-1.05s0,0,0,0a.07.07,0,0,0-.06,0,5.55,5.55,0,0,0-2.16,1.29l0-.16-.28,0a68.72,68.72,0,0,0-21.19-.09L14,1.81A4.31,4.31,0,0,1,15.72.88L16.3.75a.07.07,0,0,0,0,0,0,0,0,0,0,0,0,.08.08,0,0,0-.08-.07c-1.86-.16-3.92.8-5.49,1.7l0,0h0a.16.16,0,0,0,0,.11,3.94,3.94,0,0,0,0,1,1.32,1.32,0,0,0-.55-.12H10a.08.08,0,0,0,0,0,9.05,9.05,0,0,0-.29,2.87,11.21,11.21,0,0,1-.52-2.67A11.24,11.24,0,0,1,9.46.5L9.54.27a0,0,0,0,0-.06,0A6,6,0,0,0,8.11,3.69a12.57,12.57,0,0,0,.15,4.05A12.23,12.23,0,0,1,7,4.67,18.55,18.55,0,0,1,6.5.41l-.07,0h0A7.27,7.27,0,0,0,5.16,5.58,9,9,0,0,0,6.22,9.13c-.42-.37-.84-.74-1.13-1-.5-.41-.93-.93-1.45-1.31h0a0,0,0,0,0-.06,0,4.89,4.89,0,0,0,1,3.25l-.29,0a1.24,1.24,0,0,0-.4,0H3.85l0,0a.08.08,0,0,0,0,.06,4.61,4.61,0,0,0,1.68,2.2c-.48,0-1.06,0-1.27,0H4.15a.09.09,0,0,0,0,.11A2.58,2.58,0,0,0,5.21,14a2.6,2.6,0,0,0-.94.45.08.08,0,0,0,0,.07v0a4.8,4.8,0,0,0,2.37,1.06l-.32.15-.86.43c-.09,0-.08.12,0,.18a3.67,3.67,0,0,0,2.15.76l.6,0a.88.88,0,0,0-.36.57.13.13,0,0,0,.1.13,2.9,2.9,0,0,0,.47.1,10.06,10.06,0,0,0-2.06,1.26.16.16,0,0,0,.08.3,7.94,7.94,0,0,0,2.26-.25c-.26.27-.5.58-.78.84a.16.16,0,0,0,.11.27,8.5,8.5,0,0,0,1.11-.06,9.71,9.71,0,0,0-.61.85.14.14,0,0,0,.12.21,6.13,6.13,0,0,0,.95,0,.92.92,0,0,0,0,.46H9.47c-1.93.26-4,.57-5.46,2a8.12,8.12,0,0,0-2,4.78,5.39,5.39,0,0,1-.19-2.13.18.18,0,0,0-.23-.2.22.22,0,0,0-.24.09c-2,3-1.2,6.63.87,9.3A3.44,3.44,0,0,1,.41,34.31a.22.22,0,0,0-.11-.08.21.21,0,0,0-.28.1.16.16,0,0,0,0,.16,5.47,5.47,0,0,0,1.25,3c-.56.12-1.05.25-.67.92a8.49,8.49,0,0,0,1.88,2.24,9.89,9.89,0,0,0,5.4,2.21c.55.06.34-.3.13-.42A6.75,6.75,0,0,1,5.68,33v0a.22.22,0,0,0-.28-.32,11.42,11.42,0,0,0-1.4.93c1-2,3.2-3.27,4.32-5.25a10.52,10.52,0,0,0,1.07-2.75q.34,1,.74,1.9a18.18,18.18,0,0,1-2.26,3.19A6.4,6.4,0,0,1,8,29.72c.36-1.14-.44.1-.53.27a7.38,7.38,0,0,0-.71,5.73,1.81,1.81,0,0,1-.62-.88.21.21,0,0,0-.23-.15.21.21,0,0,0-.25.21,6.47,6.47,0,0,0,3.62,6,.45.45,0,0,0,.23.07,1.85,1.85,0,0,0,1.06-.62.22.22,0,0,0,0-.26,3.42,3.42,0,0,1,.84-2.95c.63-.74-.83-.43-1.2-.36a10.19,10.19,0,0,0,1.47-5c0-.44,0-.89,0-1.33l.29.42c.12,2.51.59,5.16-.49,7.3a3.53,3.53,0,0,1-.33.61,2.55,2.55,0,0,0,.49-.23,5.84,5.84,0,0,0,.89-.55,5.74,5.74,0,0,1-4.05,4c-.38.09-.28.41-.12.48A4.26,4.26,0,0,0,13,41.8a6.25,6.25,0,0,0,1.92-4.18,2.94,2.94,0,0,1,.47,1.53,4.15,4.15,0,0,0,.36-.77A9.48,9.48,0,0,0,15.86,35l.82.67a6,6,0,0,1,0,1.18,6.85,6.85,0,0,1-1.21,3.48c-.12.17-.52.6.14.29a10.14,10.14,0,0,0,1.44-.79,3.09,3.09,0,0,1-2.44,1.35c-.15,0-.33,0-.4.2a3.31,3.31,0,0,1-1,1.08c-.28.21-.14.43,0,.41,2.14-.27,5.65-1.26,6.26-3.68a2.68,2.68,0,0,1,.38.62,6,6,0,0,1,.26.76,3.64,3.64,0,0,0,.12-.83,6.47,6.47,0,0,0-.12-1.57c.82.55,1.68,1.1,2.57,1.67l.68.44.1.06.1-.06.53-.34a73.3,73.3,0,0,0,6.46-4.48,4.39,4.39,0,0,1-2.37,2.83.18.18,0,0,0,0,.35,4.46,4.46,0,0,0,3.39-.33,2.55,2.55,0,0,0,0,1.09c.16,1,.58,3.49-1.31,3.2a.2.2,0,0,0-.14.38,4.14,4.14,0,0,0,4.69-1.3A3.69,3.69,0,0,0,35,37.48a3.72,3.72,0,0,0,3.17-.29A4,4,0,0,0,40.09,33a2.84,2.84,0,0,0-2.38-2.17,3.65,3.65,0,0,1,.15-2.38,4.19,4.19,0,0,0,.93,1.45l0,0a2.83,2.83,0,0,0,.6,1,2.26,2.26,0,0,0,2.62.55,1.71,1.71,0,0,0,.87-.82,3.07,3.07,0,0,0,0-2.65c.38-.31.73-.57,1-.78a5.53,5.53,0,0,0,2-3.05,4.33,4.33,0,0,0-2.78-4.86A5.91,5.91,0,0,0,45.85,18,3.74,3.74,0,0,0,46.82,14.08ZM7.6,28.68C6.32,30.6,4.13,31.79,3.35,34a.18.18,0,0,0,0,.17.24.24,0,0,0,.37.11c.39-.32.79-.62,1.2-.9A7.23,7.23,0,0,0,7.1,42.34a9.34,9.34,0,0,1-3.71-1.51,8.38,8.38,0,0,1-1.74-1.63,3.68,3.68,0,0,1-.68-1,.41.41,0,0,0-.07-.14A.39.39,0,0,0,1.08,38a3.13,3.13,0,0,1,.65-.16.22.22,0,0,0,.1-.36A5,5,0,0,1,.54,35.1a3.42,3.42,0,0,0,2.13,1h0l.09,0,0,.16a12.34,12.34,0,0,0,2.21,5.14s0,0,0,0a25.12,25.12,0,0,1-1.89-5,11.8,11.8,0,0,1,.09-5.49c0-.14-.18-.24-.24-.1a8.24,8.24,0,0,0-.32,4.7C.79,33.16-.11,29.9,1.37,27.14a5.79,5.79,0,0,0,.54,2.35.19.19,0,0,0,.31.05.21.21,0,0,0,.17-.2,8.06,8.06,0,0,1,1.92-5.25c1.29-1.34,3.2-1.65,5-1.89A10.81,10.81,0,0,1,7.6,28.68ZM39,8.42h.2c0,.43,0,.85,0,1.26a3.7,3.7,0,0,1-.72.24c0-.18,0-.36,0-.53V9.24l-.14,0a7,7,0,0,1-2.06-.74l1.09-.38A4.23,4.23,0,0,0,39,8.42ZM36.9,9.91a3.26,3.26,0,0,0,1.17,1.51,78.21,78.21,0,0,1-1,10.48,20,20,0,0,1-1.84,5.29.08.08,0,0,1-.06.12,24.43,24.43,0,0,1-7.24,8.44h.19a.07.07,0,0,1,0,.13h-.39a30,30,0,0,1-4.17,2.55c-1-.59-2-1.16-2.92-1.72a11,11,0,0,0-1.09-4.67c-.8-1.53-2.2-2.74-2.61-4.46a.8.8,0,0,0,.58-.14l.05,0a2.33,2.33,0,0,0,.76-.87,3.2,3.2,0,0,0,.1-1.48h0a2.83,2.83,0,0,0,.42.06,2.71,2.71,0,0,0,2,3.41s0-.45,0-.58l.16.27a.11.11,0,0,0,.2-.05,5.32,5.32,0,0,1,.11-.84,7.24,7.24,0,0,1,.26,1.14.71.71,0,0,0-.26.1.5.5,0,0,0-.11.72.74.74,0,0,0-.28.91,1,1,0,0,0,1.28.42.91.91,0,0,0,.64-.8l-.33.13a.51.51,0,0,1-.41,0,.11.11,0,0,0,0,0,1,1,0,0,1,0-.33.28.28,0,0,1,.14-.19c.58.49,1.27-.25,1.9-.07h0a1.22,1.22,0,0,0,.66.29c.14,0,.19-.19.06-.21-.31,0-.64-.17-.72-.51,0-.14-.24-.08-.21.06a.72.72,0,0,0,0,.12,1.38,1.38,0,0,0-.56.09c-.3.11-.66.29-1,.12a2.49,2.49,0,0,0,.29-.11,1.3,1.3,0,0,0,.52-.47c.07-.12-.11-.23-.19-.11a1.11,1.11,0,0,1-.51.42,4.25,4.25,0,0,0-.51.18c-.21.13-.2.43-.18.66a.56.56,0,0,0-.52.52.57.57,0,0,1-.21-.21.53.53,0,0,1,.38-.8c.14,0,.08-.23-.06-.21l-.07,0c-.35-.5.44-.52.72-.63a1.29,1.29,0,0,0,.53-.42v0c.07.12.25,0,.19-.11a1.12,1.12,0,0,1-.16-.58c0-.2.13-.28.16-.44s-.06-.57.2-.75a.49.49,0,0,0,.54.33h0a.53.53,0,0,1,0,.26c-.07.13-.2.16-.3.23s-.09,0-.12.14a1.49,1.49,0,0,0,.13,1c0,.08.13.06.17,0a.11.11,0,0,0,.05-.06,1.74,1.74,0,0,1,1.27-1l.22,0a.31.31,0,0,0-.12.43c.09.19.3.25.47.35l.07,0a.87.87,0,0,1-1.06-.34c-.08-.11-.27,0-.19.11a1.36,1.36,0,0,0,.28.28,1.58,1.58,0,0,0-.65.49h0l-.24.1c-.13.06,0,.25.11.19a2.53,2.53,0,0,1,.81-.24,2.36,2.36,0,0,1,.47,0,.63.63,0,0,0-.39.42.41.41,0,0,0,.28.42,1.3,1.3,0,0,1,.75.85c.14.32.29-.76,0-1.36a.57.57,0,0,0-.44-.51,1.83,1.83,0,0,0-.94,0,.72.72,0,0,1,.45-.18l.06,0a1,1,0,0,0,.87-.09,1.29,1.29,0,0,1,.39.43c0,.08.09.28.12.12A1.46,1.46,0,0,0,26,27.4a1.08,1.08,0,0,0-1-.49,1.89,1.89,0,0,0-1.6,1,.88.88,0,0,1,0-.53c0-.12,0-.07.16-.12l.1-.06a.74.74,0,0,0,.19-.67c.08-.72.87-.19.87-.19.18.12.1-.06,0-.17A1,1,0,0,0,23.2,26h0l-.08,0a2.85,2.85,0,0,0,0-1.66,5.57,5.57,0,0,0,2-2.42c.11.68.19,1.56.21,1.73a3.22,3.22,0,0,0,.23-.62,10.27,10.27,0,0,0,.33-4.22h0a14.31,14.31,0,0,0,3.72-6.78.24.24,0,0,0,0,0,9.17,9.17,0,0,0,2.7-1.73,8.91,8.91,0,0,1,3.42-1.68l.05,0a7.15,7.15,0,0,0,2.28.9c0,.15,0,.29,0,.44a1.52,1.52,0,0,1-.95-.25.15.15,0,0,0-.2,0A.15.15,0,0,0,36.9,9.91ZM17.57,26.32a.91.91,0,0,0-.87.11l0-.09a.66.66,0,0,1,.74-.21c.14,0,.19-.18.06-.21a.93.93,0,0,0-.88.18h0a1.66,1.66,0,0,1-1.2-.37c.28,0,.53,0,.54,0s.18-.08,0-.13a1.61,1.61,0,0,1-.48-.37.16.16,0,0,0,0-.08.82.82,0,0,0-.36-.8.7.7,0,0,0-.82,0,0,0,0,0,0,0,0c.22.05.45,0,.64.17a.54.54,0,0,1,.17.21.49.49,0,0,0-.84,0,1.39,1.39,0,0,1-.33-.55.4.4,0,0,1,0-.29c.13-.24.43-.18.63-.08a4.48,4.48,0,0,1,.91.59c.11.09.26-.06.15-.15l-.06,0,0,0c-.21-.25-.17-.67-.28-1,0-.07-.07-.16-.11-.26l.14-.11a.73.73,0,0,1,.26-.09,0,0,0,0,0,0-.06.43.43,0,0,0-.33,0l-.14.06c0-.14.06-.27.3-.35.42-.13.55.28.59.58l-.17,0a.11.11,0,0,0,.06.21.71.71,0,0,1,.22,0h0a.51.51,0,0,1,.31.15,1.32,1.32,0,0,0,.36.39.71.71,0,0,0,0,.49.67.67,0,0,0,.55.41.88.88,0,0,1,.08.36,1.37,1.37,0,0,1-.12.42s0,.13.09.09a1.3,1.3,0,0,0,.61-.72,3.14,3.14,0,0,1,0,1.76,1.69,1.69,0,0,1-.44.55.5.5,0,0,0-.41-.48.79.79,0,0,0-.64.24s0,0,0,0l0,0a.71.71,0,0,1,.85-.23C17.64,26.57,17.7,26.36,17.57,26.32Zm-2.13-.86a.45.45,0,0,1-.49.08c-.16-.05-.43-.18-.43-.4h0A.17.17,0,0,1,14.6,25a.13.13,0,0,1,.09,0C14.83,25,15.1,25.43,15.44,25.46Zm.22-4.39v0c0,.23.15.58.18.52a2.61,2.61,0,0,0,.07-.4,4.14,4.14,0,0,1,1.41-2.32c.14-.12-.06-.32-.2-.2a4.22,4.22,0,0,0-1.22,1.5A4.22,4.22,0,0,1,17.54,17c0-.07,1.91-1.17,1.73-2.15a.81.81,0,0,0-.86-.68,2.51,2.51,0,0,0,.54-.64.14.14,0,0,0-.25-.15,2.1,2.1,0,0,1-1.94,1.07,5.91,5.91,0,0,1,.53-.33c.16-.09-.05-.31-.2-.2a4.35,4.35,0,0,0-1.5,1.35,2.72,2.72,0,0,1-.06-.6,1.28,1.28,0,0,1,.06-.49c.15-.3.38-.23.64-.19s.26-.25.08-.28a3.63,3.63,0,0,0-.43,0,1.36,1.36,0,0,1,.26-1.56v0a.15.15,0,0,0,0-.12c-.22-1.62,1.19-2.74,1.4-4.2a2.43,2.43,0,0,1,.11.76,3.65,3.65,0,0,1-.46,1.72h0a1.42,1.42,0,0,0-.46.8.11.11,0,0,0,.21.06c.41-1,1.95-1.35,2.47-2.28,0,.06,0,.12,0,.18a3.64,3.64,0,0,1-.51,1s-.13.26,0,.22a3.24,3.24,0,0,0,1.49-.67,3.41,3.41,0,0,1-.25.49,3.83,3.83,0,0,1-1,1,.17.17,0,0,0,0,.29h.05a3,3,0,0,0,.82-.29l.1-.05a3,3,0,0,1-.59.54,5.27,5.27,0,0,1-1.15.48l-.1-.1a.79.79,0,0,0-.25-.14c.17,0,.34,0,.51,0h0c-.16-.43-.81-.28-1.1-.08a2.82,2.82,0,0,0-.8,1.49.08.08,0,0,0,0,0,.22.22,0,0,0,0,.11s0,.09.06.1a.2.2,0,0,0,.18-.08l.16,0a1.24,1.24,0,0,0,.59-.18,1,1,0,0,0,.54-.71.79.79,0,0,0,0-.29.54.54,0,0,1,.12.29c0,.13-.05.24,0,.36a.14.14,0,0,0,.23.09.53.53,0,0,0,.11-.49.86.86,0,0,0-.07-.21,2.85,2.85,0,0,0,2-1.56s0,0,0,0c-.18.06-.34.18-.51.26a3.45,3.45,0,0,1-.4.15,4.14,4.14,0,0,0,.72-.88,3.63,3.63,0,0,1,2,.84,2.54,2.54,0,0,1,.7,1.11L23,12.09a3.24,3.24,0,0,0-1.1-.7.16.16,0,0,0-.1,0c-.11,0-.18.12,0,.3a3,3,0,0,1,.86,2.2,6.62,6.62,0,0,0-.28-.65c-.06-.12-.28-.06-.27.12A7.07,7.07,0,0,1,22,15.19a13.8,13.8,0,0,1-.39,1.39s0,0,0,0A3.76,3.76,0,0,0,22.42,14a2.65,2.65,0,0,1,.28,1s0,0,0,0A3.77,3.77,0,0,0,23,13.5a7.7,7.7,0,0,1,2.59,5.16.2.2,0,0,0,0,.11,13,13,0,0,1-.06,3.12,3.36,3.36,0,0,0-1.1-2h0c.19.48.46.92.61,1.41l0,.12h0a5.26,5.26,0,0,1-2,2.65,2,2,0,0,0-.49-.64c-.14-.12-.34.08-.2.2.91.8.69,2,.23,3a1.35,1.35,0,0,0-.56-.18c-.14,0-.14.2,0,.22h0a8,8,0,0,0,.39,1.49h0a1.07,1.07,0,0,1-.45.25h0a7.24,7.24,0,0,0-.34-1.38.14.14,0,0,0-.08-.09,1.79,1.79,0,0,1,.37-.57c.1-.1-.06-.25-.15-.15a2.57,2.57,0,0,0-.63,1.59l-.13-.25a.11.11,0,0,0-.2,0c0,.19-.06.43-.08.62a2.53,2.53,0,0,1-1.49-3.09c1.44,0,3-1,3-2.61A7.14,7.14,0,0,1,21,24.09a3,3,0,0,1-2.15.61,1.78,1.78,0,0,0,.85-1.26s-.72,1.09-1.39,1.28l-.06-.21a.72.72,0,0,0,.16-.89.8.8,0,0,0-.51-.45.11.11,0,0,0,0-.09c-.22-.45-.73-1.21-1.31-.76a.6.6,0,0,0-.21.65l-.09,0a.89.89,0,0,0-.4-.76.65.65,0,0,0-.78.17c-.22.26-.11.54,0,.82a6.82,6.82,0,0,1,.19.77,1.89,1.89,0,0,0-1.07-.43,3.94,3.94,0,0,1,.11-2.35,3.17,3.17,0,0,1,1.28-1.44A4.64,4.64,0,0,0,15.65,21.06ZM13.18,5.89a.07.07,0,0,1,0-.13l.3,0a5,5,0,0,0,.27-2.2c5.36-1.25,13.07-1,18.8-.27a5.92,5.92,0,0,0-.63,1.15,1.26,1.26,0,0,0-.57-.73.15.15,0,0,0-.24,0A6.38,6.38,0,0,0,30.49,5c0-.11-.11-.22-.16-.31a1.39,1.39,0,0,0-.46-.56l-.05,0h0a.14.14,0,0,0-.12.06,4.15,4.15,0,0,0-.81,2.17,2.48,2.48,0,0,0-.17-.23,1,1,0,0,0-.56-.41.1.1,0,0,0-.13.05l0,.11a0,0,0,0,1,0,.08h0a4.16,4.16,0,0,0-.23,1.52,2.06,2.06,0,0,0-.29-.22A1,1,0,0,0,26.83,7a.13.13,0,0,0-.17.08,3.46,3.46,0,0,0-.08,1.53,1.3,1.3,0,0,0-.78-.27.1.1,0,0,0-.12.07,2.91,2.91,0,0,0,.2,1.76,1.64,1.64,0,0,0-1-.27l-.05,0a.11.11,0,0,0,0,.08,3.23,3.23,0,0,0,.13,1.26l-.35-.23a.12.12,0,0,0-.17.1,3.92,3.92,0,0,0,.26,1.91L24.56,13a.13.13,0,0,0-.15.09,5.1,5.1,0,0,0-.12,1.4,7.14,7.14,0,0,0-1.35-1.4A2.71,2.71,0,0,0,22.52,12a3.41,3.41,0,0,1,.58.49c.18.25.26.42.26.39a2.87,2.87,0,0,0-.8-2A3.68,3.68,0,0,0,20.5,10a2.12,2.12,0,0,0,.25-1.13,2.15,2.15,0,0,1-.81.76,4.37,4.37,0,0,1-.7.29,2.77,2.77,0,0,0,.39-1.8c0-.15,0,.3-.75,1a4.4,4.4,0,0,1-1,.68l-.12.07A2.77,2.77,0,0,0,17.42,7c0-.07-.07-.11-.07-.08.12,1-.74,2.34-1.2,3.26A3.09,3.09,0,0,0,15.88,12a1.65,1.65,0,0,0-.31,1.77.48.48,0,0,0-.24.29,2.46,2.46,0,0,0,.07,1.72c.09.2.18.15.25-.06a2.44,2.44,0,0,1,.78-1l0,0A2.49,2.49,0,0,0,18,14.5l.19,0a.35.35,0,0,1,.2.19.42.42,0,0,1-.05.37,1.43,1.43,0,0,1-.51.37,1.18,1.18,0,0,0,.38,0A.69.69,0,0,0,18.6,15a.76.76,0,0,0,0-.49.74.74,0,0,1,.19.15c.33.35.14.75-.15,1.07a11.91,11.91,0,0,1-1.21,1,4.62,4.62,0,0,0-1,1l-.06-.07c-2.72-2.4-3.51-6-4.07-9.45a.22.22,0,0,0,0-.06q0-.24-.05-.47l.21-.23a5.55,5.55,0,0,0,.91-1.54Zm13,9.6v0q-.34.6-.74,1.18a8.65,8.65,0,0,0-.89-1.83,12.48,12.48,0,0,1,.09-1.54A3.45,3.45,0,0,1,26.16,15.49Zm-8.1-2.83a.42.42,0,0,1-.73.09v0a.38.38,0,0,1,0-.16.44.44,0,0,1,.24-.42A.4.4,0,0,1,18.06,12.66Zm-1.22.73a.07.07,0,0,1,0-.14A.07.07,0,0,1,16.84,13.39ZM22.61,28l-.05,0a8,8,0,0,1-.33-1.26,1.17,1.17,0,0,1,.35.18.08.08,0,0,0,.12,0V27a2.18,2.18,0,0,0-.17.54A1.24,1.24,0,0,0,22.61,28Zm-4.95-4a.14.14,0,0,1,.19-.12c.18,0,.22.33.22.49a.49.49,0,0,1-.19.44C17.94,24.4,17.65,24.05,17.66,23.91Zm.37-.13a.43.43,0,0,0-.65,0,.41.41,0,0,0-.12.23.54.54,0,0,0,.09.37.54.54,0,0,1,0-.86c.1-.1-.05-.25-.15-.15a.93.93,0,0,0-.14.16,1.12,1.12,0,0,1-.19-.19s.07-.12.12-.16a.67.67,0,0,1,.26-.13,0,0,0,0,0,0-.08.37.37,0,0,0-.35,0,.7.7,0,0,0-.17.13c-.13-.28-.14-.58.21-.66s.66.39.82.7h-.07c-.14,0-.14.21,0,.22a.65.65,0,0,1,.56.28.57.57,0,0,1,0,.68A.76.76,0,0,0,18,23.78Zm-.87,3.14c.19-.2.43.21.21.37a.85.85,0,0,1-.5.15h-.13l-.14,0a.32.32,0,0,1-.24-.17A1.3,1.3,0,0,0,17.16,26.93Zm4.63,3.3a.68.68,0,0,0,.68.07,0,0,0,0,1,0,0,.24.24,0,0,1-.14.16l-.14.05a1,1,0,0,1-.47,0,.14.14,0,0,1-.09-.06C21.57,30.36,21.65,30.14,21.79,30.22Zm1.5-4.1a.19.19,0,0,1,0,0c0-.16.27-.26.41-.29a.49.49,0,0,1,.47.08c-.33,0-.6.38-.73.4a.13.13,0,0,1-.14-.07A.16.16,0,0,1,23.29,26.12Zm2.09,1.05a.19.19,0,0,1,.2,0,1.17,1.17,0,0,1,.43.53s0,0-.12,0l-.47-.22A.15.15,0,0,1,25.38,27.18Zm-.13,1.58a.26.26,0,0,1,.22.11.86.86,0,0,1,.15.25v0a.49.49,0,0,1,0,.48c-.05-.33-.45-.55-.48-.69A.14.14,0,0,1,25.25,28.76ZM43.64,2.13Q43,3.28,42.28,4.37h0l-1.37.4a.22.22,0,0,0-.05.39l.43.29c-1.7,1.53-3.91,2.21-6.05,2.9a8.29,8.29,0,0,0-2.66,1.21,11.91,11.91,0,0,1-3.17,2.12.22.22,0,0,0-.14.24l0,0a13.87,13.87,0,0,1-3.39,6.35,10.27,10.27,0,0,0-.27-1.16.22.22,0,0,0,.11-.08,16,16,0,0,0,2.5-5.53,15.54,15.54,0,0,0,4.72-4.9,6.94,6.94,0,0,1-.35,1.42h0c-.19.2.11.51.3.3a7.77,7.77,0,0,1,3.86-1.76A12.84,12.84,0,0,0,39.9,5.3,15.39,15.39,0,0,0,43.64,2.13Zm-9.09.49q0,.21-.07.43c-.11.13-.21.26-.3.39a2.79,2.79,0,0,0,0-.88Zm-.76-.1c0,.15,0,.3,0,.45a4.35,4.35,0,0,1-.09,1.14.18.18,0,0,0,0,.05c-.06.11-.11.22-.15.33s.16.21.24.1a12.16,12.16,0,0,1,1.51-2,11.61,11.61,0,0,1,1.79-1.27,4.83,4.83,0,0,0-.68,2,6.25,6.25,0,0,0-2.25,3s0,0,0,0c.48-.62.86-1.3,1.39-1.89a7.34,7.34,0,0,1,2-1.47A8.55,8.55,0,0,0,40.27,1a8.3,8.3,0,0,1-.61,1.54,13.59,13.59,0,0,1-1.49,1.89c-.11.13,0,.36.19.25A4.82,4.82,0,0,0,39.6,3.42,17.22,17.22,0,0,0,42.91.69a8.17,8.17,0,0,1-2.07,3.47,12.94,12.94,0,0,1-1.75,1.1c-1.85,1-4.21,1-5.9,2.27a12.84,12.84,0,0,0,.28-1.86h0c.13-.25-.25-.47-.37-.22A15.09,15.09,0,0,1,28,11.16a.19.19,0,0,0-.18.15,15.7,15.7,0,0,1-1.39,3.74A3.35,3.35,0,0,0,25,13.26a4,4,0,0,1-.29-.73,4.8,4.8,0,0,1-.1-1.16c.16.11.3.23.45.35a2.89,2.89,0,0,0,1,1.31,0,0,0,0,0,0,0,11.33,11.33,0,0,1-.76-1.25A5.47,5.47,0,0,1,25,10.12a5.56,5.56,0,0,1,.61.26c.21.12.39.3.59.43a3.36,3.36,0,0,0,.78.84h0c-.23-.46-.56-.86-.78-1.32a3.68,3.68,0,0,1-.33-1.82c.15.08.31.14.46.24a2,2,0,0,1,.32.29,2.78,2.78,0,0,0,.9,1.49s0,0,0,0A13.8,13.8,0,0,1,27,9a5.74,5.74,0,0,1-.08-1.74c.11.07.24.12.34.2a2.88,2.88,0,0,1,.47.43,3.65,3.65,0,0,0,.78,1.93,0,0,0,0,0,0,0A8.85,8.85,0,0,1,28,7.84a6.54,6.54,0,0,1,.18-1.89c.09.09.2.18.28.27s.23.4.37.58A4.94,4.94,0,0,0,29.6,9.4a0,0,0,0,0,.07,0c-.46-1.74-1-3.38.16-5,.07.15.18.3.25.44s.18.47.27.61A3.72,3.72,0,0,0,30.49,8s0,0,0,0a14.49,14.49,0,0,1,.07-2.14,5.61,5.61,0,0,1,.73-1.91c.07.1.15.2.21.31a2.16,2.16,0,0,1,.23.63,3.78,3.78,0,0,0-.14,1.88,0,0,0,0,0,0,0,11.3,11.3,0,0,1,.67-2.48A6.86,6.86,0,0,1,33.67,2.5Zm-.53-.07a5,5,0,0,0-.48.51c-3.4-.42-12.56-1.32-19.26.29l-.15,0,0,.15A4.92,4.92,0,0,1,12.26,7.2,8.18,8.18,0,0,1,12.59,4a5.56,5.56,0,0,1,.65-1.33A66.56,66.56,0,0,1,33.26,2.44ZM4.37,12.62a6.8,6.8,0,0,0,1.51.08,9.46,9.46,0,0,0,2.65,1.18.17.17,0,0,0,.12,0,4,4,0,0,0,.5.57C7.4,14.51,5.47,14.33,4.37,12.62Zm.19,1.91a4,4,0,0,0,.85-.43,6.61,6.61,0,0,0,3.82.61.14.14,0,0,0,.12-.1,1.82,1.82,0,0,0,.82.39l-.34.19a1.1,1.1,0,0,0-.33.22C8.18,15.75,5.61,15,4.57,14.53Zm3.35,2.21a7.37,7.37,0,0,1-2.19-.41c.24-.11.48-.24.71-.37a2.09,2.09,0,0,0,.44-.32,5.79,5.79,0,0,0,2.71.1,2.2,2.2,0,0,0,.6.22,2.67,2.67,0,0,0,.67.1,1.52,1.52,0,0,0-.41.53A12.19,12.19,0,0,1,7.92,16.74Zm1,4.3a5.42,5.42,0,0,0,.47-.81,3.88,3.88,0,0,0,2.28-1c.09-.1,0-.28-.14-.23-.55.18-1,.52-1.59.7A6.72,6.72,0,0,1,8.38,20,3.44,3.44,0,0,0,9,19.12a7.22,7.22,0,0,0,1.55-.7.19.19,0,0,0-.2-.33,8,8,0,0,1-3.44,1c.61-.4,1.26-.75,1.82-1.19A2.75,2.75,0,0,0,10,17.7a.14.14,0,0,0-.07-.26c-.29,0-.57.11-.86.15a3.06,3.06,0,0,1-.93,0,4.88,4.88,0,0,1,.35-.46,7.54,7.54,0,0,0,2-.23.3.3,0,0,0,.08.1,1.61,1.61,0,0,0,1.2.3l0,.07a1.38,1.38,0,0,0-.22.7.13.13,0,0,0,.09.12,1.33,1.33,0,0,0,.67,0c.2,0,.47-.09.58-.28a.11.11,0,0,0-.09-.16c-.17,0-.32.1-.48.14a1.51,1.51,0,0,1-.52.09,1.68,1.68,0,0,1,.57-.92.15.15,0,0,0-.15-.25,6,6,0,0,1-.6.15,1.43,1.43,0,0,1-.63,0c-.16-.06-.27-.13-.18-.31a5.72,5.72,0,0,1,.54-.61c.11,0,.15-.25,0-.27s-.52,0-.78,0a2.78,2.78,0,0,1-.41-.09,2.67,2.67,0,0,1-.3-.09h0a8.38,8.38,0,0,1,.94-.58h0a.14.14,0,0,0-.09-.18,3.27,3.27,0,0,1-1-.32,2.6,2.6,0,0,1-.74-.72,3,3,0,0,1,.86-.17c.24,0,.48,0,.72,0a1.07,1.07,0,0,1,.23,0c.11,0,.27,0,.11-.14a5.62,5.62,0,0,1-2-4,0,0,0,0,0,0,0c-.49,1.27.44,2.86,1.39,3.83a3.12,3.12,0,0,0-1.51.23l0,0a9.56,9.56,0,0,1-2.61-1.25,8.73,8.73,0,0,1-1.83-1.92l.15,0c.17,0,.36.11.51,0h0a5.5,5.5,0,0,0,1.58,1.44.13.13,0,0,0,.15-.2,9.93,9.93,0,0,1-1.88-2.1,9.53,9.53,0,0,1-.91-2.36A5.93,5.93,0,0,0,5,8.5c.46.39,2,1.75,2.08,1.8a.14.14,0,0,0,.23-.17A16.75,16.75,0,0,1,6.09,7.92a8.47,8.47,0,0,1-.42-5A15.44,15.44,0,0,1,6.32,1a10.07,10.07,0,0,0,.33,3.64,11.55,11.55,0,0,0,1.78,4,.17.17,0,0,0,.29,0h0v0a.13.13,0,0,0,0-.07c0-.08,0-.17,0-.2a15.55,15.55,0,0,1-.29-4.35,9.25,9.25,0,0,1,.4-1.88,6.55,6.55,0,0,1,.29-.71A9.83,9.83,0,0,0,10,7.61c.12.29.28.69.31.8S10,6.71,10,5.87s.1-1.56.13-2.34a3.73,3.73,0,0,0,.57.28.16.16,0,0,0,.17,0,.1.1,0,0,0,0-.06h0a.16.16,0,0,0,0-.06,4.81,4.81,0,0,0,0-.73c0-.11,0-.23,0-.34a13.12,13.12,0,0,1,2.64-1.23c.24-.08.48-.14.73-.2A5.34,5.34,0,0,0,12.49,3.3a9.94,9.94,0,0,0-.33,6.26.21.21,0,0,0,0,.07c.61,3.1,1.65,6.23,4.08,8.37h0a4.47,4.47,0,0,0-.56,1.34l-.06,0a3.23,3.23,0,0,0-1.75,2.53c-.1.16-.64.73-.87.16-.08-.2-.54.05-.77.23a3.6,3.6,0,0,0,.26-.88,1.85,1.85,0,0,0,.72-.69.14.14,0,0,0-.19-.19c-.42.19-.74.56-1.16.78a4.56,4.56,0,0,1-1.24.43,3.5,3.5,0,0,0,.37-.81,3.7,3.7,0,0,0,1.16-.74.16.16,0,0,0-.19-.25A7.23,7.23,0,0,1,8.88,21Zm.72,3.53a12.41,12.41,0,0,0,.13-1.82,27.28,27.28,0,0,0,.76,2.66c0,.16,0,.56,0,.69a2.7,2.7,0,0,1-.1.7C10.1,26.1,9.84,25.36,9.6,24.57Zm1.72,7.18a9.58,9.58,0,0,1-1.66,5.19v0a.22.22,0,0,0,.22.36,7.16,7.16,0,0,1,1.06-.18,3.74,3.74,0,0,0-.71,3,1.47,1.47,0,0,1-.67.38h0a6,6,0,0,1-3.37-4.84,2.2,2.2,0,0,0,.85.65l.11,0c.14,0,.31-.08.25-.26a7.48,7.48,0,0,1,.15-5.29c0,.27,0,.83,0,.83s3.18-3.62,3.14-4.71A12.46,12.46,0,0,1,11.31,31.75Zm.7-1.89-.34-.52a11.54,11.54,0,0,0-.36-1.89h0c.21.45.5,1,.74,1.39C12,29.18,12,29.52,12,29.86Zm.11-1.55c-.17-.32-.34-.65-.5-1a24.77,24.77,0,0,1-1.77-5.6c0-.12,0-.34,0-.45a5.49,5.49,0,0,0,.91-.22,7.94,7.94,0,0,0-.52.83.17.17,0,0,0,.15.26A4.82,4.82,0,0,0,12,21.72l.27-.13c-.18.34-.3.74-.43,1.07a.16.16,0,0,0,.2.2,2.47,2.47,0,0,0,.76-.46c.16-.14.07-.1.14,0a.5.5,0,0,0,.14.19c.31.23.63,0,.88-.22a4,4,0,0,0,.25,1.15.5.5,0,0,0-.32.36,1,1,0,0,0,.25.85l0,0A5.31,5.31,0,0,0,12.12,28.31Zm3.64,5.91c0-.28-.1-.56-.15-.85l.61.55.09.08c.1.3.18.59.25.89Zm-.27-1.41a21.34,21.34,0,0,1-.58-4.12A18.62,18.62,0,0,0,16,33.26l0,.1Zm4.11,5.76a.2.2,0,0,0-.31,0,.22.22,0,0,0-.1.16C19,40.89,16.09,41.92,14,42.3a2.62,2.62,0,0,0,.57-.7A3.54,3.54,0,0,0,18,38.89a.22.22,0,0,0-.22-.27h0a.2.2,0,0,0-.17.1,3.07,3.07,0,0,1-1,.87l-.3.19a7.13,7.13,0,0,0,.55-5.63c-.4-1.27-.91-2.47-1.18-3.78a17.57,17.57,0,0,1-.36-4.1l0-.1c.09-.26-.33-.38-.42-.11-1.31,3.86,1.09,7.72.54,11.6a3.36,3.36,0,0,0-.59-.91c-.17-.19-.41-.47-.34.3.28,2.95-2.34,6.16-5.4,5.2a6.43,6.43,0,0,0,4.1-4.85.23.23,0,0,0-.37-.21h0a5.47,5.47,0,0,1-.71.6c.78-2,.54-4.1.39-6.19-.16-2.29-.09-4.9,1.82-6.49a.72.72,0,0,0,.45.53,1.23,1.23,0,0,0,.39.06l0,0a1.88,1.88,0,0,0,1.35.56,1.26,1.26,0,0,0-.09.62v0a.54.54,0,0,1-.51.05l-.09,0s-.11,0,0,.14a1.65,1.65,0,0,0,.67.38.21.21,0,0,0,0,.14c.35,1.56,1.48,2.68,2.31,4a8.92,8.92,0,0,1,1.36,4.69,3.25,3.25,0,0,0-.93-.8.22.22,0,0,0-.27.33,7.52,7.52,0,0,1,.9,3A3,3,0,0,0,19.6,38.57ZM20,37.46a7.28,7.28,0,0,0-.27-.89l.07,0a2.88,2.88,0,0,1,.3.46l.34.68Zm3.85,2-.32.2,0,0,0,0-.47-.3-2.4-1.56c0-.24,0-.49,0-.73.94.58,1.89,1.13,2.83,1.66l.08,0,.08,0A26.9,26.9,0,0,0,34,29.9,21.3,21.3,0,0,0,37.39,22a77.82,77.82,0,0,0,1-10.34,2.52,2.52,0,0,0,.74.26h0C38.8,29.89,32.76,33.79,23.88,39.5Zm10.55,2.11a3.65,3.65,0,0,1-3,1.23,3.57,3.57,0,0,0,2-1.1c.69-.86.28-1.87.29-2.86a0,0,0,0,0,0,0c-.23.92.31,1.81-.32,2.66a2.65,2.65,0,0,1-1.4.9,2.33,2.33,0,0,0,1-1.31,2.94,2.94,0,0,0-.09-1.38,3.3,3.3,0,0,1,0-1.88s0-.05-.06,0c-.52.68-.08,1.65,0,2.39a1.8,1.8,0,0,1-.43,1.58,2.89,2.89,0,0,1-.68.51,1.91,1.91,0,0,0,.31-.55c.44-1.24-.72-3,.29-4a.15.15,0,0,0,0-.22.18.18,0,0,0-.28,0,3.91,3.91,0,0,1-2.79.88,4.18,4.18,0,0,0,1.89-1,0,0,0,0,0,0,0c-.44.22-.85.47-1.31.64a6.12,6.12,0,0,1-.87.24A6.06,6.06,0,0,0,31.16,35l.34-.29a4.55,4.55,0,0,0-.15,1.53s0,0,0,0c.08-.4.11-.81.2-1.21a4.21,4.21,0,0,1,.18-.56q.43-.39.84-.79c0,.08,0,.16,0,.23a.07.07,0,0,0-.06,0A7.74,7.74,0,0,0,32,36.74a0,0,0,0,0,0,0c.18-.85.38-1.67.61-2.51a4,4,0,0,0,.31,1.23,3.61,3.61,0,0,0-.17,1.64s0,0,0,0c.06-.48.13-.95.23-1.42a3.6,3.6,0,0,0,1,1.19,3.68,3.68,0,0,0,.54.36A3.47,3.47,0,0,1,34.43,41.62Zm2.91-10.81a2.65,2.65,0,0,0-.81.16c-.22.08-.12.42.1.35a2.44,2.44,0,0,1,3.2,2.29,3.69,3.69,0,0,1-2.25,3.51A3.43,3.43,0,0,1,33,33.28a20.65,20.65,0,0,0,1.51-1.76A2.16,2.16,0,0,0,34.92,33a1.55,1.55,0,0,0,2.11.39,1.5,1.5,0,0,1-1,.92,1.4,1.4,0,0,1-1.6-.91,0,0,0,0,0,0,0h0a2.21,2.21,0,0,0,1.63,2.11.07.07,0,0,0,.05-.12,3.7,3.7,0,0,1-1-.74,2.33,2.33,0,0,1-.37-.64,1.42,1.42,0,0,0,1.28.49A1.85,1.85,0,0,0,37.38,33l.06-.11c.11-.21-.2-.39-.31-.18-.58,1.12-2,.46-2.22-.54a2.48,2.48,0,0,1,.1-1.4c.24-.34.47-.7.69-1.07a20.73,20.73,0,0,0,1.1-2.07,2.22,2.22,0,0,1,.85-.59,3,3,0,0,0,0,.52,2.35,2.35,0,0,0-.88,2.2s0,0,0,0a2.85,2.85,0,0,1,.87-2c0,.07,0,.15,0,.22A3.77,3.77,0,0,0,37.34,30.81Zm.35-3.93h0a3.62,3.62,0,0,0-.67.41,26.85,26.85,0,0,0,1.55-4.78,6.82,6.82,0,0,1,2.5-.42c1,.51.29,1.6-.33,2a8.82,8.82,0,0,1-1.13.53,3,3,0,0,0-1.64,1.47A2.88,2.88,0,0,0,37.68,26.88Zm5.11,3a2.29,2.29,0,0,1-.33.77h0a1.75,1.75,0,0,1-.65.5.69.69,0,0,1-.33,0l0,0-.1-.13a1.47,1.47,0,0,0,1-.47s0,0,0,0c-.2.06-.37.18-.57.25a2.86,2.86,0,0,1-.45.1,1.06,1.06,0,0,1-.12-.43,1.61,1.61,0,0,0,1.24-.5s0-.05,0,0c-.19.07-.35.19-.53.27a2.3,2.3,0,0,1-.69.15,1.39,1.39,0,0,1,.11-.46,1.59,1.59,0,0,0,1.09-.6s0,0,0,0a5,5,0,0,1-.57.34,2.26,2.26,0,0,1-.4.11,5.33,5.33,0,0,1,1.26-1.42A2.94,2.94,0,0,1,42.79,29.91ZM45.33,22a4.16,4.16,0,0,1-1,4.31c-1,1.08-4.56,3.07-3.23,4.91a.16.16,0,0,0,0,.1,2,2,0,0,1-1.57-.87,3.43,3.43,0,0,1,0-3.59c.11-.21-.2-.39-.31-.18a4.75,4.75,0,0,0-.57,2.5,2.94,2.94,0,0,1-.54-2.67c.38-1.18,1.42-1.45,2.41-1.95s1.75-1.57,1.09-2.4a2.93,2.93,0,0,1,.42.13,2.26,2.26,0,0,1-1.2,2.63s0,0,0,0a2.17,2.17,0,0,0,1.35-2.59,2.59,2.59,0,0,1,.54.35c.14,1.35-.77,2.23-1.76,3a0,0,0,0,0,0,0,3.08,3.08,0,0,0,1.92-2.84,2.1,2.1,0,0,1,.37.5v0a3.34,3.34,0,0,1-.8,2,8.05,8.05,0,0,1-1.41,1.16s0,0,0,0a3.63,3.63,0,0,0,2.34-2.87c.35,1.27-.87,2.65-1.89,3.39-.19.13,0,.45.18.31,1.36-1,2.92-2.85,1.67-4.55-1.11-1.5-3.19-1.29-4.79-.79q.31-1.44.53-3a8,8,0,0,0,3,.38A4,4,0,0,1,45.33,22ZM40,13.81c-.06.15.09.35.24.23A2.59,2.59,0,0,1,42,13.54c.72.85-.11,1.84-.88,2.26a3.25,3.25,0,0,1-1.65.4q.16-2,.2-4.28c.38,0,.76-.09,1.14-.12a2.88,2.88,0,0,0-.83,2A.2.2,0,0,0,40,13.81Zm1.9,1.88a1.78,1.78,0,0,0,.58-2.08,2.53,2.53,0,0,1,.44.16,2.57,2.57,0,0,1-.77,2.2,0,0,0,0,0,0,0,2.12,2.12,0,0,0,.92-2.13,2,2,0,0,1,.51.41,4.12,4.12,0,0,1-.36,1.16,5.2,5.2,0,0,1-.79,1,0,0,0,0,0,0,0,2.78,2.78,0,0,0,1.26-2,1.56,1.56,0,0,1,.27.71,3.62,3.62,0,0,1-.41.9,5.9,5.9,0,0,1-.79.84s0,.05,0,0a2.33,2.33,0,0,0,1.14-1.14,2.57,2.57,0,0,1-.26.65,4.56,4.56,0,0,1-4.43,1.94q.11-.88.19-1.82A3.55,3.55,0,0,0,41.88,15.69Zm3.24,2.42a6.87,6.87,0,0,1-5.87.62c2,.14,4.64-.74,5.06-3s-2.26-3.18-4-2.23a2.51,2.51,0,0,1,1-1.75,3.5,3.5,0,0,1,2,.65c.19.14.36-.17.18-.31a3.8,3.8,0,0,0-2.16-.7h-.08a5.3,5.3,0,0,0-.63,0,3.38,3.38,0,0,1-1.95-.09,3,3,0,0,1-1.23-1.12A2.51,2.51,0,0,0,39.28,10a8.23,8.23,0,0,1,3.51-1.28,4,4,0,0,1,3.79,4.74,4.35,4.35,0,0,0-1-1.39c-.17-.16-.43.1-.25.25a4.24,4.24,0,0,1,1.3,2.81A3.13,3.13,0,0,1,45.12,18.11Z"/><path class="cls-5" d="M18.65,22.84c0,.11.13.19.19.08a2.12,2.12,0,0,0-.48-2.66h0a2.78,2.78,0,0,1,.51,1.23A4,4,0,0,1,18.65,22.84Z"/><path class="cls-6" d="M6.53,25.08c-.67-.44-1.5.19-1.91.69a4.84,4.84,0,0,0-.88,2.75.19.19,0,0,0,0,.12.22.22,0,0,0,.32.24,7.35,7.35,0,0,0,2.47-1.83C6.95,26.53,7.21,25.53,6.53,25.08Zm-1.28,2.6a11.45,11.45,0,0,1-1.06.65,5.07,5.07,0,0,1,.38-1.66A2.89,2.89,0,0,1,5,26c.27-.32,1.11-1.11,1.51-.29S5.73,27.34,5.25,27.69Z"/><path class="cls-7" d="M9.4,31.72a1.61,1.61,0,0,0-1.51,1.2,3.56,3.56,0,0,0,.46,2.7l0,.06a.21.21,0,0,0,.06.07,6.45,6.45,0,0,0,.48,3.07H9c-.1-1-.18-2-.22-3.06l.07-.06a6,6,0,0,0,1.46-2.62C10.33,32.5,10.1,31.78,9.4,31.72Zm-.77,3.51a3.55,3.55,0,0,1-.42-1.56,1.79,1.79,0,0,1,.24-.94c.23-.37,1.18-1.17,1.4.1C10,33.61,9.17,34.56,8.64,35.23Z"/><path class="cls-8" d="M17.11,31.5a21.62,21.62,0,0,1-.7-3.15c0-.13-.23-.1-.23,0a12.91,12.91,0,0,0,1.53,5.13,9.35,9.35,0,0,1,.9,3.12,10.93,10.93,0,0,1-.31,3s0,0,0,0a7,7,0,0,0,0-5.21C17.94,33.41,17.45,32.48,17.11,31.5Z"/><path class="cls-9" d="M13.72,29.46c0-.15-.25-.15-.24,0,.15,2.16.45,4.33.51,6.49a5.9,5.9,0,0,1-.73,3.17,15.28,15.28,0,0,1-1.81,2.31,0,0,0,0,0,0,0,6.69,6.69,0,0,0,2.76-4.73A23.5,23.5,0,0,0,14,33.3C13.94,32,13.84,30.73,13.72,29.46Z"/><path class="cls-10" d="M16,23.3a.46.46,0,0,0-.32.65c.22.41.63.57.85.94C16.57,24.92,16.78,23.18,16,23.3Zm.42.9a.05.05,0,0,1-.08,0,1.69,1.69,0,0,1-.39-.48c-.15-.2.23-.42.34-.2A.94.94,0,0,1,16.45,24.21Z"/><path class="cls-11" d="M21.92,24.44a4.47,4.47,0,0,1,.37.6,2.09,2.09,0,0,1,.07.71c0,.09.14.14.18,0,.21-.44-.08-1.29-.61-1.38A0,0,0,0,0,21.92,24.44Z"/><path class="cls-12" d="M36.17,18.17a27.6,27.6,0,0,0-4.64.08,0,0,0,0,0,0,0c.77,0,1.55,0,2.32,0s1.55,0,2.32,0A0,0,0,0,0,36.17,18.17Z"/><path class="cls-13" d="M33.76,13.92a0,0,0,0,0,0,0,17.76,17.76,0,0,0,3.23,0,0,0,0,0,0,0-.08C35.93,13.82,34.82,13.85,33.76,13.92Z"/><path class="cls-14" d="M24.7,5.92a0,0,0,0,0,0,0,17.77,17.77,0,0,0,3.21,0h0a0,0,0,0,0,0-.08h0C26.87,5.82,25.77,5.85,24.7,5.92Z"/><path class="cls-15" d="M35.16,15.08a18.86,18.86,0,0,0,2.55,0,.06.06,0,0,0,0-.12,18.94,18.94,0,0,0-2.56,0S35.14,15.08,35.16,15.08Z"/><path class="cls-16" d="M20.74,4.57s0,0,0,0a19.46,19.46,0,0,0-2.59-.08.06.06,0,0,0,0,.12A19.38,19.38,0,0,0,20.74,4.57Z"/><path class="cls-17" d="M28.51,21.37c1,0,2,0,3,0s2,0,3-.07a.07.07,0,0,0,0-.13c-1,0-2,0-3,.05s-2,0-3,.16A0,0,0,0,0,28.51,21.37Z"/><path class="cls-18" d="M16.14,5.87c1,0,2,0,3,0a0,0,0,0,0,0,0c-1-.09-2-.07-3-.08s-1.78,0-2.66,0l-.3,0a.07.07,0,0,0,0,.13h.23C14.32,5.93,15.24,5.88,16.14,5.87Z"/><path class="cls-19" d="M35.09,26.08a19.58,19.58,0,0,0-2.23,0H30.72c-1.45,0-2.92-.07-4.37,0a0,0,0,0,0,0,0c1.45.12,2.92.07,4.37.09l2.14,0a19.63,19.63,0,0,0,2.23,0A.06.06,0,0,0,35.09,26.08Z"/><path class="cls-20" d="M35.15,27.15c-2.13,0-4.31-.13-6.43,0a0,0,0,0,0,0,0c2.13.19,4.3.09,6.43.1h0a.08.08,0,0,0,.06-.12A.07.07,0,0,0,35.15,27.15Z"/><path class="cls-21" d="M26,32.38c-1.47,0-2.94-.08-4.4-.05a0,0,0,0,0,0,.05c1.49.14,3,.14,4.49.16h2.2a16.17,16.17,0,0,0,2.13,0c.08,0,0-.12,0-.13a20.64,20.64,0,0,0-2.2,0Z"/><path class="cls-22" d="M28.37,33.59c-.67-.08-1.36-.05-2-.07s-1.35,0-2,0a0,0,0,0,0,0,0c.67.06,1.35.08,2,.1s1.36.09,2,.05A0,0,0,0,0,28.37,33.59Z"/><path class="cls-23" d="M25.49,34.67a16.93,16.93,0,0,0-2.08,0,16.66,16.66,0,0,0-2.08.08,0,0,0,0,0,0,0c.69.05,1.39,0,2.08,0s1.4.06,2.08,0A.05.05,0,0,0,25.49,34.67Z"/><path class="cls-24" d="M22.51,35.85a0,0,0,0,0,0,0c1.73.11,3.49,0,5.22,0h.39a.07.07,0,0,0,0-.13h-.19C26.12,35.75,24.3,35.71,22.51,35.85Z"/></svg>