<?xml version="1.0" encoding="utf-8"?>
<!-- Generator: Adobe Illustrator 22.1.0, SVG Export Plug-In . SVG Version: 6.00 Build 0)  -->
<svg version="1.1" id="Capa_1" xmlns="http://www.w3.org/2000/svg" xmlns:xlink="http://www.w3.org/1999/xlink" x="0px" y="0px"
	 viewBox="0 0 512 512" style="enable-background:new 0 0 512 512;" xml:space="preserve">
<style type="text/css">
	.st0{fill:url(#SVGID_1_);}
	.st1{fill:url(#SVGID_2_);}
	.st2{fill:url(#SVGID_3_);}
	.st3{fill:url(#SVGID_4_);}
	.st4{fill:url(#SVGID_5_);}
	.st5{fill:url(#SVGID_6_);}
	.st6{fill:url(#SVGID_7_);}
	.st7{fill:url(#SVGID_8_);}
	.st8{fill:url(#SVGID_9_);}
	.st9{fill:url(#SVGID_10_);}
	.st10{fill:url(#SVGID_11_);}
	.st11{fill:url(#SVGID_12_);}
	.st12{fill:url(#SVGID_13_);}
	.st13{fill:url(#SVGID_14_);}
	.st14{fill:url(#SVGID_15_);}
	.st15{fill:url(#SVGID_16_);}
	.st16{fill:url(#SVGID_17_);}
	.st17{fill:url(#SVGID_18_);}
	.st18{fill:url(#SVGID_19_);}
	.st19{fill:url(#SVGID_20_);}
	.st20{fill:url(#SVGID_21_);}
	.st21{fill:url(#SVGID_22_);}
	.st22{fill:url(#SVGID_23_);}
	.st23{fill:url(#SVGID_24_);}
	.st24{fill:url(#SVGID_25_);}
	.st25{fill:url(#SVGID_26_);}
	.st26{fill:url(#SVGID_27_);}
	.st27{fill:url(#SVGID_28_);}
	.st28{fill:url(#SVGID_29_);}
	.st29{fill:url(#SVGID_30_);}
</style>
<g>
	<g>
		<g>
			<linearGradient id="SVGID_1_" gradientUnits="userSpaceOnUse" x1="-13.7802" y1="-12.6604" x2="533.5531" y2="520.673">
				<stop  offset="0" style="stop-color:#C9BD92"/>
				<stop  offset="1" style="stop-color:#846034"/>
			</linearGradient>
			<path class="st0" d="M50,0H10C4.478,0,0,4.477,0,10v40c0,5.523,4.478,10,10,10h40c5.522,0,10-4.477,10-10V10
				C60,4.477,55.522,0,50,0z M40,40H20V20h20V40z"/>
		</g>
	</g>
	<g>
		<g>
			<linearGradient id="SVGID_2_" gradientUnits="userSpaceOnUse" x1="-239.7044" y1="219.1943" x2="307.629" y2="752.5276">
				<stop  offset="0" style="stop-color:#C9BD92"/>
				<stop  offset="1" style="stop-color:#846034"/>
			</linearGradient>
			<path class="st1" d="M50,452H10c-5.522,0-10,4.477-10,10v40c0,5.523,4.478,10,10,10h40c5.522,0,10-4.477,10-10v-40
				C60,456.477,55.522,452,50,452z M40,492H20v-20h20V492z"/>
		</g>
	</g>
	<g>
		<g>
			<linearGradient id="SVGID_3_" gradientUnits="userSpaceOnUse" x1="206.3651" y1="-238.5845" x2="753.6984" y2="294.7488">
				<stop  offset="0" style="stop-color:#C9BD92"/>
				<stop  offset="1" style="stop-color:#846034"/>
			</linearGradient>
			<path class="st2" d="M502,0h-40c-5.522,0-10,4.477-10,10v40c0,5.523,4.478,10,10,10h40c5.522,0,10-4.477,10-10V10
				C512,4.477,507.522,0,502,0z M492,40h-20V20h20V40z"/>
		</g>
	</g>
	<g>
		<g>
			<linearGradient id="SVGID_4_" gradientUnits="userSpaceOnUse" x1="-19.559" y1="-6.7299" x2="527.7743" y2="526.6035">
				<stop  offset="0" style="stop-color:#C9BD92"/>
				<stop  offset="1" style="stop-color:#846034"/>
			</linearGradient>
			<path class="st3" d="M502,452h-40c-5.522,0-10,4.477-10,10v40c0,5.523,4.478,10,10,10h40c5.522,0,10-4.477,10-10v-40
				C512,456.477,507.522,452,502,452z M492,492h-20v-20h20V492z"/>
		</g>
	</g>
	<g>
		<g>
			<linearGradient id="SVGID_5_" gradientUnits="userSpaceOnUse" x1="-48.7685" y1="23.2463" x2="498.5648" y2="556.5797">
				<stop  offset="0" style="stop-color:#C9BD92"/>
				<stop  offset="1" style="stop-color:#846034"/>
			</linearGradient>
			<path class="st4" d="M30,80c-5.522,0-10,4.477-10,10v20c0,5.523,4.478,10,10,10s10-4.477,10-10V90C40,84.477,35.522,80,30,80z"/>
		</g>
	</g>
	<g>
		<g>
			<linearGradient id="SVGID_6_" gradientUnits="userSpaceOnUse" x1="-79.5082" y1="54.7929" x2="467.8252" y2="588.1263">
				<stop  offset="0" style="stop-color:#C9BD92"/>
				<stop  offset="1" style="stop-color:#846034"/>
			</linearGradient>
			<path class="st5" d="M30,140c-5.522,0-10,4.477-10,10v23c0,5.523,4.478,10,10,10s10-4.477,10-10v-23
				C40,144.477,35.522,140,30,140z"/>
		</g>
	</g>
	<g>
		<g>
			<linearGradient id="SVGID_7_" gradientUnits="userSpaceOnUse" x1="-110.9976" y1="87.1089" x2="436.3358" y2="620.4423">
				<stop  offset="0" style="stop-color:#C9BD92"/>
				<stop  offset="1" style="stop-color:#846034"/>
			</linearGradient>
			<path class="st6" d="M30,203c-5.522,0-10,4.477-10,10v23c0,5.523,4.478,10,10,10s10-4.477,10-10v-23
				C40,207.477,35.522,203,30,203z"/>
		</g>
	</g>
	<g>
		<g>
			<linearGradient id="SVGID_8_" gradientUnits="userSpaceOnUse" x1="-143.2368" y1="120.1944" x2="404.0966" y2="653.5277">
				<stop  offset="0" style="stop-color:#C9BD92"/>
				<stop  offset="1" style="stop-color:#846034"/>
			</linearGradient>
			<path class="st7" d="M30,269c-5.522,0-10,4.477-10,10v20c0,5.523,4.478,10,10,10s10-4.477,10-10v-20
				C40,273.477,35.522,269,30,269z"/>
		</g>
	</g>
	<g>
		<g>
			<linearGradient id="SVGID_9_" gradientUnits="userSpaceOnUse" x1="-174.7262" y1="152.5104" x2="372.6071" y2="685.8438">
				<stop  offset="0" style="stop-color:#C9BD92"/>
				<stop  offset="1" style="stop-color:#846034"/>
			</linearGradient>
			<path class="st8" d="M30,332c-5.522,0-10,4.477-10,10v20c0,5.523,4.478,10,10,10s10-4.477,10-10v-20
				C40,336.477,35.522,332,30,332z"/>
		</g>
	</g>
	<g>
		<g>
			<linearGradient id="SVGID_10_" gradientUnits="userSpaceOnUse" x1="-204.7161" y1="183.2876" x2="342.6172" y2="716.6209">
				<stop  offset="0" style="stop-color:#C9BD92"/>
				<stop  offset="1" style="stop-color:#846034"/>
			</linearGradient>
			<path class="st9" d="M30,392c-5.522,0-10,4.477-10,10v20c0,5.523,4.478,10,10,10s10-4.477,10-10v-20
				C40,396.477,35.522,392,30,392z"/>
		</g>
	</g>
	<g>
		<g>
			<linearGradient id="SVGID_11_" gradientUnits="userSpaceOnUse" x1="171.3769" y1="-202.6778" x2="718.7102" y2="330.6555">
				<stop  offset="0" style="stop-color:#C9BD92"/>
				<stop  offset="1" style="stop-color:#846034"/>
			</linearGradient>
			<path class="st10" d="M482,80c-5.522,0-10,4.477-10,10v20c0,5.523,4.478,10,10,10s10-4.477,10-10V90
				C492,84.477,487.522,80,482,80z"/>
		</g>
	</g>
	<g>
		<g>
			<linearGradient id="SVGID_12_" gradientUnits="userSpaceOnUse" x1="140.6372" y1="-171.1312" x2="687.9705" y2="362.2021">
				<stop  offset="0" style="stop-color:#C9BD92"/>
				<stop  offset="1" style="stop-color:#846034"/>
			</linearGradient>
			<path class="st11" d="M482,140c-5.522,0-10,4.477-10,10v23c0,5.523,4.478,10,10,10s10-4.477,10-10v-23
				C492,144.477,487.522,140,482,140z"/>
		</g>
	</g>
	<g>
		<g>
			<linearGradient id="SVGID_13_" gradientUnits="userSpaceOnUse" x1="109.1478" y1="-138.8152" x2="656.4811" y2="394.5181">
				<stop  offset="0" style="stop-color:#C9BD92"/>
				<stop  offset="1" style="stop-color:#846034"/>
			</linearGradient>
			<path class="st12" d="M482,203c-5.522,0-10,4.477-10,10v23c0,5.523,4.478,10,10,10s10-4.477,10-10v-23
				C492,207.477,487.522,203,482,203z"/>
		</g>
	</g>
	<g>
		<g>
			<linearGradient id="SVGID_14_" gradientUnits="userSpaceOnUse" x1="76.9086" y1="-105.7298" x2="624.2419" y2="427.6036">
				<stop  offset="0" style="stop-color:#C9BD92"/>
				<stop  offset="1" style="stop-color:#846034"/>
			</linearGradient>
			<path class="st13" d="M482,269c-5.522,0-10,4.477-10,10v20c0,5.523,4.478,10,10,10s10-4.477,10-10v-20
				C492,273.477,487.522,269,482,269z"/>
		</g>
	</g>
	<g>
		<g>
			<linearGradient id="SVGID_15_" gradientUnits="userSpaceOnUse" x1="45.4191" y1="-73.4137" x2="592.7525" y2="459.9196">
				<stop  offset="0" style="stop-color:#C9BD92"/>
				<stop  offset="1" style="stop-color:#846034"/>
			</linearGradient>
			<path class="st14" d="M482,332c-5.522,0-10,4.477-10,10v20c0,5.523,4.478,10,10,10s10-4.477,10-10v-20
				C492,336.477,487.522,332,482,332z"/>
		</g>
	</g>
	<g>
		<g>
			<linearGradient id="SVGID_16_" gradientUnits="userSpaceOnUse" x1="15.4292" y1="-42.6366" x2="562.7626" y2="490.6968">
				<stop  offset="0" style="stop-color:#C9BD92"/>
				<stop  offset="1" style="stop-color:#846034"/>
			</linearGradient>
			<path class="st15" d="M482,392c-5.522,0-10,4.477-10,10v20c0,5.523,4.478,10,10,10s10-4.477,10-10v-20
				C492,396.477,487.522,392,482,392z"/>
		</g>
	</g>
	<g>
		<g>
			<linearGradient id="SVGID_17_" gradientUnits="userSpaceOnUse" x1="-204.1499" y1="182.7065" x2="343.1834" y2="716.0399">
				<stop  offset="0" style="stop-color:#C9BD92"/>
				<stop  offset="1" style="stop-color:#846034"/>
			</linearGradient>
			<path class="st16" d="M113,472H93c-5.522,0-10,4.477-10,10s4.478,10,10,10h20c5.522,0,10-4.477,10-10S118.522,472,113,472z"/>
		</g>
	</g>
	<g>
		<g>
			<linearGradient id="SVGID_18_" gradientUnits="userSpaceOnUse" x1="-174.9271" y1="152.7166" x2="372.4063" y2="686.0499">
				<stop  offset="0" style="stop-color:#C9BD92"/>
				<stop  offset="1" style="stop-color:#846034"/>
			</linearGradient>
			<path class="st17" d="M173,472h-20c-5.522,0-10,4.477-10,10s4.478,10,10,10h20c5.522,0,10-4.477,10-10S178.522,472,173,472z"/>
		</g>
	</g>
	<g>
		<g>
			<linearGradient id="SVGID_19_" gradientUnits="userSpaceOnUse" x1="-144.2431" y1="121.2272" x2="403.0902" y2="654.5605">
				<stop  offset="0" style="stop-color:#C9BD92"/>
				<stop  offset="1" style="stop-color:#846034"/>
			</linearGradient>
			<path class="st18" d="M236,472h-20c-5.522,0-10,4.477-10,10s4.478,10,10,10h20c5.522,0,10-4.477,10-10S241.522,472,236,472z"/>
		</g>
	</g>
	<g>
		<g>
			<linearGradient id="SVGID_20_" gradientUnits="userSpaceOnUse" x1="-115.0203" y1="91.2373" x2="432.313" y2="624.5706">
				<stop  offset="0" style="stop-color:#C9BD92"/>
				<stop  offset="1" style="stop-color:#846034"/>
			</linearGradient>
			<path class="st19" d="M296,472h-20c-5.522,0-10,4.477-10,10s4.478,10,10,10h20c5.522,0,10-4.477,10-10S301.522,472,296,472z"/>
		</g>
	</g>
	<g>
		<g>
			<linearGradient id="SVGID_21_" gradientUnits="userSpaceOnUse" x1="-84.3363" y1="59.7478" x2="462.997" y2="593.0812">
				<stop  offset="0" style="stop-color:#C9BD92"/>
				<stop  offset="1" style="stop-color:#846034"/>
			</linearGradient>
			<path class="st20" d="M359,472h-20c-5.522,0-10,4.477-10,10s4.478,10,10,10h20c5.522,0,10-4.477,10-10S364.522,472,359,472z"/>
		</g>
	</g>
	<g>
		<g>
			<linearGradient id="SVGID_22_" gradientUnits="userSpaceOnUse" x1="-55.1135" y1="29.7579" x2="492.2198" y2="563.0912">
				<stop  offset="0" style="stop-color:#C9BD92"/>
				<stop  offset="1" style="stop-color:#846034"/>
			</linearGradient>
			<path class="st21" d="M419,472h-20c-5.522,0-10,4.477-10,10s4.478,10,10,10h20c5.522,0,10-4.477,10-10S424.522,472,419,472z"/>
		</g>
	</g>
	<g>
		<g>
			<linearGradient id="SVGID_23_" gradientUnits="userSpaceOnUse" x1="21.7742" y1="-49.1481" x2="569.1075" y2="484.1852">
				<stop  offset="0" style="stop-color:#C9BD92"/>
				<stop  offset="1" style="stop-color:#846034"/>
			</linearGradient>
			<path class="st22" d="M113,20H93c-5.522,0-10,4.477-10,10s4.478,10,10,10h20c5.522,0,10-4.477,10-10S118.522,20,113,20z"/>
		</g>
	</g>
	<g>
		<g>
			<linearGradient id="SVGID_24_" gradientUnits="userSpaceOnUse" x1="50.9971" y1="-79.1381" x2="598.3304" y2="454.1953">
				<stop  offset="0" style="stop-color:#C9BD92"/>
				<stop  offset="1" style="stop-color:#846034"/>
			</linearGradient>
			<path class="st23" d="M173,20h-20c-5.522,0-10,4.477-10,10s4.478,10,10,10h20c5.522,0,10-4.477,10-10S178.522,20,173,20z"/>
		</g>
	</g>
	<g>
		<g>
			<linearGradient id="SVGID_25_" gradientUnits="userSpaceOnUse" x1="81.681" y1="-110.6275" x2="629.0143" y2="422.7058">
				<stop  offset="0" style="stop-color:#C9BD92"/>
				<stop  offset="1" style="stop-color:#846034"/>
			</linearGradient>
			<path class="st24" d="M236,20h-20c-5.522,0-10,4.477-10,10s4.478,10,10,10h20c5.522,0,10-4.477,10-10S241.522,20,236,20z"/>
		</g>
	</g>
	<g>
		<g>
			<linearGradient id="SVGID_26_" gradientUnits="userSpaceOnUse" x1="110.9039" y1="-140.6174" x2="658.2372" y2="392.7159">
				<stop  offset="0" style="stop-color:#C9BD92"/>
				<stop  offset="1" style="stop-color:#846034"/>
			</linearGradient>
			<path class="st25" d="M296,20h-20c-5.522,0-10,4.477-10,10s4.478,10,10,10h20c5.522,0,10-4.477,10-10S301.522,20,296,20z"/>
		</g>
	</g>
	<g>
		<g>
			<linearGradient id="SVGID_27_" gradientUnits="userSpaceOnUse" x1="141.5878" y1="-172.1068" x2="688.9211" y2="361.2265">
				<stop  offset="0" style="stop-color:#C9BD92"/>
				<stop  offset="1" style="stop-color:#846034"/>
			</linearGradient>
			<path class="st26" d="M359,20h-20c-5.522,0-10,4.477-10,10s4.478,10,10,10h20c5.522,0,10-4.477,10-10S364.522,20,359,20z"/>
		</g>
	</g>
	<g>
		<g>
			<linearGradient id="SVGID_28_" gradientUnits="userSpaceOnUse" x1="170.8107" y1="-202.0968" x2="718.144" y2="331.2366">
				<stop  offset="0" style="stop-color:#C9BD92"/>
				<stop  offset="1" style="stop-color:#846034"/>
			</linearGradient>
			<path class="st27" d="M419,20h-20c-5.522,0-10,4.477-10,10s4.478,10,10,10h20c5.522,0,10-4.477,10-10S424.522,20,419,20z"/>
		</g>
	</g>
	<g>
		<g>
			<linearGradient id="SVGID_29_" gradientUnits="userSpaceOnUse" x1="-16.6696" y1="-9.6951" x2="530.6637" y2="523.6382">
				<stop  offset="0" style="stop-color:#C9BD92"/>
				<stop  offset="1" style="stop-color:#846034"/>
			</linearGradient>
			<path class="st28" d="M419,80H93c-5.522,0-10,4.477-10,10v332c0,5.523,4.478,10,10,10h326c5.522,0,10-4.477,10-10V90
				C429,84.477,424.522,80,419,80z M409,412H103V100h306V412z"/>
		</g>
	</g>
	<g>
		<g>
			<linearGradient id="SVGID_30_" gradientUnits="userSpaceOnUse" x1="-1.3276" y1="-25.4398" x2="546.0057" y2="507.8935">
				<stop  offset="0" style="stop-color:#C9BD92"/>
				<stop  offset="1" style="stop-color:#846034"/>
			</linearGradient>
			<path class="st29" d="M379,120H133c-5.522,0-10,4.477-10,10v83c0,5.523,4.478,10,10,10h40c5.522,0,10-4.477,10-10v-30h43v149h-30
				c-5.522,0-10,4.477-10,10v40c0,5.523,4.478,10,10,10h120c5.522,0,10-4.477,10-10v-40c0-5.523-4.478-10-10-10h-30V183h43v30
				c0,5.523,4.478,10,10,10h40c5.522,0,10-4.477,10-10v-83C389,124.477,384.522,120,379,120z M369,203h-20v-30
				c0-5.523-4.478-10-10-10h-63c-5.522,0-10,4.477-10,10v169c0,5.523,4.478,10,10,10h30v20H206v-20h30c5.522,0,10-4.477,10-10V173
				c0-5.523-4.478-10-10-10h-63c-5.522,0-10,4.477-10,10v30h-20v-63h226V203z"/>
		</g>
	</g>
</g>
</svg>
