<svg width="17" height="18" viewBox="0 0 17 18" fill="none" xmlns="http://www.w3.org/2000/svg">
<path fill-rule="evenodd" clip-rule="evenodd" d="M14.1026 3.16361C13.3749 2.39625 12.5091 1.7878 11.5554 1.3735C10.6016 0.959193 9.57887 0.747277 8.54638 0.750026C4.21688 0.750026 0.692375 4.44144 0.690625 8.97894C0.690625 10.4291 1.052 11.8444 1.73887 13.0929L0.625 17.3564L4.78912 16.2114C5.94097 16.8683 7.23142 17.2128 8.54287 17.2134H8.54638C12.875 17.2134 16.3995 13.5219 16.4012 8.98444C16.4042 7.90322 16.2026 6.8321 15.8081 5.833C15.4135 4.83389 14.8339 3.92662 14.1026 3.16361ZM8.54638 15.8246H8.54375C7.37433 15.8247 6.22643 15.4951 5.2205 14.8704L4.9825 14.7219L2.5115 15.4011L3.17037 12.8775L3.0155 12.619C2.36169 11.5286 2.01558 10.2667 2.01713 8.97894C2.01888 5.20778 4.9475 2.13969 8.549 2.13969C9.40672 2.1377 10.2563 2.31393 11.0486 2.65821C11.8408 3.00248 12.5601 3.50795 13.1646 4.14536C13.7724 4.77973 14.2542 5.53401 14.582 6.36461C14.9099 7.1952 15.0774 8.08564 15.0747 8.98444C15.073 12.7556 12.1444 15.8246 8.54638 15.8246ZM12.1277 10.7014C11.9309 10.5978 10.9666 10.1009 10.7864 10.0322C10.607 9.96344 10.4766 9.92953 10.3454 10.1349C10.2141 10.3402 9.83787 10.8031 9.72325 10.9406C9.60862 11.0781 9.494 11.0946 9.298 10.9919C9.102 10.8893 8.46937 10.672 7.7195 9.97169C7.13587 9.42628 6.74213 8.75344 6.6275 8.54719C6.51287 8.34094 6.61525 8.23003 6.71412 8.12736C6.8025 8.03569 6.91012 7.88719 7.00812 7.76711C7.10612 7.64703 7.1385 7.56178 7.20412 7.42428C7.26975 7.28678 7.23737 7.16669 7.1875 7.06403C7.1385 6.96044 6.74562 5.94844 6.582 5.53686C6.42362 5.13811 6.26175 5.19128 6.141 5.18578C6.01594 5.18042 5.89079 5.17797 5.76562 5.17844C5.6661 5.1811 5.56817 5.20527 5.47798 5.24944C5.38779 5.2936 5.30728 5.35682 5.2415 5.43511C5.06125 5.64136 4.55463 6.13819 4.55463 7.15019C4.55463 8.16219 5.25812 9.14028 5.35612 9.27778C5.45412 9.41528 6.74038 11.4915 8.70913 12.3825C9.17813 12.5943 9.54387 12.7208 9.82825 12.8161C10.2981 12.9729 10.726 12.9499 11.0646 12.8977C11.4417 12.839 12.2257 12.4009 12.3894 11.9205C12.553 11.4402 12.553 11.0286 12.504 10.9424C12.455 10.8563 12.3229 10.804 12.1277 10.7014Z" fill="white"/>
</svg>
