<svg xmlns="http://www.w3.org/2000/svg" viewBox="0 0 340.8 96.06"><defs><style>.cls-1{fill:#3da536;}.cls-1,.cls-2{fill-rule:evenodd;}.cls-2{fill:#008cd2;}</style></defs><title>Мир цвет</title><g id="Слой_2" data-name="Слой 2"><g id="_1" data-name="1"><path class="cls-1" d="M0,.06q15.66,0,31.32,0A14.93,14.93,0,0,1,43.84,6.68c2.5,3.55,3.45,7.84,4.67,11.92C52.29,31.33,56,44.08,59.8,56.8c.07,1.15,1.77,1.6,2.1.37,3.87-12.85,7.6-25.74,11.44-38.6C74.66,14,75.79,9.22,78.86,5.5A15.1,15.1,0,0,1,86.6.56c2.55-.71,5.23-.44,7.85-.48,9.17,0,18.33-.08,27.5.06-.06,32,0,63.94,0,95.91C112,96,102.06,96.14,92.15,96c0-18.75,0-37.51,0-56.26-.06-1.67-2.82-1.53-3,0C83.21,58.49,77.27,77.21,71.46,96c-7,.17-14,0-21,.07-5.9-18.74-11.75-37.49-17.7-56.2-.25-1.55-2.08-1.6-3.06-.7,0,19,0,37.9,0,56.85-9.9.13-19.8,0-29.7.06V.06ZM135.49.12C145.38,0,155.28.2,165.18,0c.15,19,0,38,.07,57,.84.76,2.4,1,2.92-.27Q178.06,36,187.9,15.23c2.09-4.29,3.78-8.94,7.19-12.4C196.61,1.39,198.5,0,200.71.09,210.8.09,220.89,0,231,.12q0,47.94,0,95.88-14.85.12-29.71,0c0-18.93,0-37.86,0-56.8,0-1.62-2.77-1.49-3.06,0q-9.3,20.55-18.59,41.1c-1.91,4.16-3.72,8.44-6.57,12.07-1.59,2-3.9,3.83-6.6,3.7-10.31,0-20.62,0-30.93,0q0-48,0-95.91Zm110,43.8c31.09-.21,62.2,0,93.3-.1-1.05,4.28-3.82,8-6.75,11.19a32.34,32.34,0,0,1-22.66,10.34c-11.35.06-22.72,0-34.08,0-.07,10.23,0,20.45,0,30.68-9.91,0-19.82,0-29.73,0C245.46,78.65,245.55,61.29,245.46,43.92Z"/><path class="cls-2" d="M241.68.12q34.85,0,69.7,0a31.67,31.67,0,0,1,16.81,6.62,32.89,32.89,0,0,1,12.52,22.71,47.3,47.3,0,0,1-.36,9.59c-14.24.08-28.47,0-42.71,0-4.89,0-9.8.2-14.65-.52-10.94-1.38-21.72-5.93-29.46-13.92A43.34,43.34,0,0,1,241.68.12Z"/></g></g></svg>