<svg width="24" height="24" viewBox="0 0 24 24" fill="none" xmlns="http://www.w3.org/2000/svg">
<g id="b17_icon_2">
<g id="3 User">
<path id="Stroke 1" d="M17.8867 10.8967C19.2817 10.7007 20.3557 9.50473 20.3587 8.05573C20.3587 6.62773 19.3177 5.44373 17.9527 5.21973" stroke="#130F26" stroke-width="1.5" stroke-linecap="round" stroke-linejoin="round"/>
<path id="Stroke 3" d="M19.7305 14.25C21.0815 14.452 22.0245 14.925 22.0245 15.9C22.0245 16.571 21.5805 17.007 20.8625 17.281" stroke="#130F26" stroke-width="1.5" stroke-linecap="round" stroke-linejoin="round"/>
<path id="Stroke 5" fill-rule="evenodd" clip-rule="evenodd" d="M11.8887 14.6641C8.67469 14.6641 5.92969 15.1511 5.92969 17.0961C5.92969 19.0401 8.65769 19.5411 11.8887 19.5411C15.1027 19.5411 17.8467 19.0591 17.8467 17.1131C17.8467 15.1671 15.1197 14.6641 11.8887 14.6641Z" stroke="#130F26" stroke-width="1.5" stroke-linecap="round" stroke-linejoin="round"/>
<path id="Stroke 7" fill-rule="evenodd" clip-rule="evenodd" d="M11.8854 11.888C13.9944 11.888 15.7044 10.179 15.7044 8.069C15.7044 5.96 13.9944 4.25 11.8854 4.25C9.77643 4.25 8.06643 5.96 8.06643 8.069C8.05843 10.171 9.75543 11.881 11.8574 11.888H11.8854Z" stroke="#130F26" stroke-width="1.5" stroke-linecap="round" stroke-linejoin="round"/>
<path id="Stroke 9" d="M5.88606 10.8967C4.49006 10.7007 3.41706 9.50473 3.41406 8.05573C3.41406 6.62773 4.45506 5.44373 5.82006 5.21973" stroke="#130F26" stroke-width="1.5" stroke-linecap="round" stroke-linejoin="round"/>
<path id="Stroke 11" d="M4.044 14.25C2.693 14.452 1.75 14.925 1.75 15.9C1.75 16.571 2.194 17.007 2.912 17.281" stroke="#130F26" stroke-width="1.5" stroke-linecap="round" stroke-linejoin="round"/>
</g>
</g>
</svg>
