<svg width="216" height="397" viewBox="0 0 216 397" fill="none" xmlns="http://www.w3.org/2000/svg">
<path d="M125.055 1.28136C119.993 10.3154 115.996 19.9061 113.144 29.8613C109.723 40.6176 107.076 51.6048 105.224 62.7389C104.462 66.9997 103.99 71.3073 103.812 75.6321C103.827 82.4437 104.227 89.249 105.009 96.0156C106.39 112.316 108.908 128.525 109.307 144.887C109.835 176.103 104.632 207.151 93.9575 236.49C83.7819 264.292 69.9152 290.601 52.73 314.709C36.4601 337.793 17.5807 359.773 6.68293 386.174C5.36291 389.428 4.07359 392.743 2.84567 396.058C2.76832 396.343 2.58093 396.586 2.32474 396.733C2.06855 396.879 1.76456 396.919 1.4796 396.841C1.19464 396.764 0.952075 396.576 0.805271 396.32C0.658474 396.064 0.619442 395.76 0.696788 395.475C4.68677 382.033 10.7455 369.294 18.6552 357.716C26.3297 345.683 34.9865 334.325 43.3978 322.813C61.3341 299.02 76.1968 273.059 87.6337 245.546C99.5068 216.549 106.088 185.66 107.066 154.342C106.979 138.067 105.955 121.811 103.996 105.655C102.829 93.3755 101.141 80.6358 102.799 68.2645C104.303 57.6139 106.622 47.0945 109.736 36.799C112.655 26.3526 116.486 16.183 121.187 6.40794C122.169 4.47396 123.213 2.57068 124.257 0.728799C124.533 0.299026 125.27 0.728799 124.963 1.15857L125.055 1.28136Z" fill="#617580"/>
<path d="M24.3047 350.352C26.8527 342.923 29.5234 335.586 31.396 327.943C33.2715 320.178 34.5847 312.289 35.3253 304.336C36.7479 288.534 35.8689 272.61 32.716 257.061C30.9294 248.275 28.3926 239.658 25.1336 231.305C24.7038 230.231 26.4536 229.739 26.8834 230.814C38.4921 260.866 40.907 293.691 33.8211 325.118C32.0004 333.974 29.1785 342.594 25.4099 350.813C25.3424 350.954 25.2236 351.064 25.0779 351.12C24.9321 351.177 24.7703 351.175 24.6254 351.117C24.4805 351.058 24.3635 350.946 24.2982 350.804C24.2329 350.662 24.2243 350.5 24.274 350.352L24.3047 350.352Z" fill="#617580"/>
<path d="M26.6419 231.884C33.8559 243.58 40.6402 255.951 43.2495 269.612C45.5543 283.813 44.3744 298.362 39.8113 312.006C37.6798 319.655 34.7365 327.054 31.0317 334.078C30.9597 334.165 30.8612 334.227 30.7509 334.254C30.6407 334.281 30.5247 334.271 30.4206 334.226C30.3165 334.181 30.23 334.103 30.1741 334.004C30.1181 333.905 30.0959 333.791 30.1107 333.679C32.3824 327.14 35.3908 320.908 37.5397 314.339C39.7922 307.663 41.3959 300.786 42.3286 293.802C44.1199 279.817 42.0718 265.607 36.4038 252.697C33.334 245.667 29.7424 238.914 26.3042 232.099C26.3042 231.853 26.5191 231.669 26.6419 231.884Z" fill="#617580"/>
<path d="M26.7644 231.91C30.3951 243.368 32.0965 255.35 31.7989 267.366C31.7989 273.997 31.1542 280.597 31.4305 287.197C31.7068 293.797 32.5049 300.213 33.0882 306.721C33.9012 314.04 34.0245 321.42 33.4566 328.762C33.4566 329.775 31.7682 329.775 31.8603 328.762C33.0575 315.961 30.7551 303.252 29.8956 290.513C29.5272 284.061 29.5272 277.594 29.8956 271.142C30.1721 264.805 30.0183 258.456 29.4351 252.14C28.7018 245.392 27.595 238.689 26.1197 232.063C26.1197 231.99 26.1488 231.92 26.2007 231.868C26.2525 231.816 26.3227 231.787 26.396 231.787C26.4693 231.787 26.5396 231.816 26.5914 231.868C26.6432 231.92 26.6723 231.99 26.6723 232.063L26.7644 231.91Z" fill="#617580"/>
<path d="M26.1829 231.025C27.3292 235.231 27.6831 239.613 27.2266 243.949C27.2266 250.088 26.7661 256.228 26.4898 262.613C26.2136 268.998 25.968 275.384 26.1522 281.769C26.474 288.647 27.4297 295.48 29.0071 302.183C30.0201 306.91 31.0945 311.669 31.862 316.458C32.1997 318.668 32.5067 320.878 32.6908 323.119C33.09 325.548 33.09 328.027 32.6908 330.456C32.6908 330.57 32.6456 330.679 32.565 330.76C32.4844 330.84 32.3751 330.886 32.2611 330.886C32.1471 330.886 32.0378 330.84 31.9572 330.76C31.8766 330.679 31.8313 330.57 31.8313 330.456C31.5649 328.502 31.4214 326.534 31.4015 324.562C31.2689 322.217 31.0127 319.881 30.6341 317.563C29.9587 313.111 29.0071 308.722 28.0554 304.332C26.4814 297.694 25.4546 290.938 24.9856 284.132C24.4024 271.608 25.5075 259.052 25.968 246.527C26.1522 241.37 25.968 236.213 25.968 231.178C25.968 231.129 25.9874 231.083 26.0219 231.048C26.0565 231.014 26.1033 230.994 26.1522 230.994C26.201 230.994 26.2479 231.014 26.2824 231.048C26.3169 231.083 26.3364 231.129 26.3364 231.178L26.1829 231.025Z" fill="#617580"/>
<path d="M35.7609 320.415C37.1514 318.107 38.1863 315.603 38.8307 312.986C39.7758 310.421 40.8622 307.91 42.0847 305.465C44.9629 300.318 47.4959 294.985 49.6671 289.502C51.4715 283.424 52.5029 277.143 52.7369 270.807C53.2281 264.238 53.6783 257.648 54.0877 251.038C55.0185 243.518 55.0906 235.918 54.3025 228.382L55.8374 228.167C55.7251 230.578 55.0072 232.922 53.75 234.982C52.2151 238.329 50.9564 241.767 49.7285 245.205C46.4394 253.392 44.3708 262.018 43.5889 270.807C43.5889 271.789 41.9926 271.789 42.054 270.807C42.7983 262.382 44.7631 254.109 47.8866 246.249C49.0839 242.872 50.2197 239.434 51.6932 236.18C53.2371 233.793 54.1652 231.062 54.3946 228.229C54.3946 227.369 55.776 227.154 55.9295 228.014C56.7538 234.647 56.8156 241.352 56.1137 247.998C55.7761 254.967 55.2542 261.966 54.7323 268.935C54.524 275.467 53.6288 281.96 52.0616 288.305C50.1395 293.979 47.6614 299.45 44.6633 304.636C43.0014 307.679 41.565 310.839 40.3656 314.091C39.9081 316.798 38.5572 319.273 36.5284 321.121C36.0986 321.428 35.4846 320.845 35.7916 320.415L35.7609 320.415Z" fill="#617580"/>
<path d="M166.625 300.192C147.992 311.673 126.718 317.352 105.598 322.847C85.3984 328.127 64.9842 333.407 46.2891 342.954C35.9508 348.073 26.5238 354.856 18.3845 363.031C17.218 364.228 15.3147 362.386 16.5733 361.189C46.7495 330.123 92.1213 325.978 131.446 313.975C143.552 310.433 155.275 305.692 166.441 299.824C166.487 299.816 166.534 299.822 166.575 299.843C166.616 299.864 166.65 299.898 166.671 299.939C166.691 299.98 166.698 300.027 166.69 300.073C166.682 300.119 166.659 300.16 166.625 300.192Z" fill="#617580"/>
<path d="M166.619 300.194C152.221 304.921 136.842 305.412 122.229 309.403C107.806 313.321 93.8104 318.669 80.4493 325.366C72.9283 329.019 65.5608 332.949 58.2546 337.031C58.0709 337.104 57.8674 337.108 57.6808 337.043C57.4943 336.979 57.3368 336.85 57.2369 336.679C57.137 336.509 57.1011 336.309 57.1357 336.114C57.1703 335.92 57.2732 335.745 57.4258 335.619C70.32 328.281 83.6469 321.73 97.3333 316.003C111.211 310.313 125.723 306.314 140.556 304.092C149.244 302.772 157.931 301.637 166.557 299.887C166.59 299.901 166.618 299.925 166.638 299.955C166.658 299.985 166.668 300.02 166.668 300.056C166.668 300.091 166.658 300.126 166.638 300.156C166.618 300.186 166.59 300.21 166.557 300.224L166.619 300.194Z" fill="#617580"/>
<path d="M167.668 299.608C163.189 304.782 157.826 309.116 151.828 312.409C145.927 315.923 139.709 318.873 133.255 321.22C118.59 326.225 103.36 329.391 87.9144 330.644C79.0106 331.25 70.1993 332.825 61.6368 335.341C60.5931 335.679 60.1326 334.021 61.1764 333.653C68.26 331.482 75.5572 330.082 82.9413 329.478C90.7693 328.649 98.5666 327.912 106.303 326.408C121.079 324.19 135.366 319.456 148.543 312.409C155.133 308.416 161.441 303.975 167.422 299.117C167.637 299.117 167.821 299.117 167.668 299.455L167.668 299.608Z" fill="#617580"/>
<path d="M166.623 299.821C158.549 300.589 150.383 300.62 142.31 301.295C134.196 301.906 126.134 303.075 118.181 304.794C110.257 306.508 102.545 309.092 95.1883 312.5C87.7834 316.154 80.6072 320.254 73.6997 324.779L48.8342 340.711C47.9133 341.294 47.0537 339.821 47.9747 339.238L70.7833 324.779C77.8164 320.119 85.0919 315.836 92.579 311.947C107.198 305.227 122.935 301.272 138.994 300.282C148.17 299.317 157.4 298.958 166.623 299.207C166.704 299.207 166.782 299.24 166.84 299.297C166.897 299.355 166.93 299.433 166.93 299.514C166.93 299.596 166.897 299.674 166.84 299.731C166.782 299.789 166.704 299.821 166.623 299.821Z" fill="#617580"/>
<path d="M49.9753 339.173C60.1438 328.08 69.7342 316.471 78.7087 304.392C82.8837 298.822 87.4052 293.522 92.2466 288.521C97.2811 283.486 102.899 279.096 108.271 274.461C114.404 269.173 120.064 263.359 125.186 257.086C125.8 256.318 127.12 257.301 126.536 258.13C124.762 261.229 123.478 264.584 122.73 268.076C121.782 271.115 120.613 274.08 119.23 276.948C116.3 282.883 112.628 288.423 108.302 293.432C98.6138 303.998 87.7592 313.432 75.9459 321.552C68.8239 326.832 61.702 332.081 55.0712 337.945C54.0889 338.804 52.6768 337.392 53.6591 336.532C74.9636 317.715 102.776 304.115 116.559 278.206C118.386 274.805 119.887 271.238 121.041 267.554C121.861 263.92 123.228 260.432 125.094 257.209L126.475 258.283C121.932 263.828 116.976 269.021 111.648 273.816C106.368 278.544 100.719 283.026 95.5313 287.753C84.9097 297.699 76.6826 310.101 67.5653 321.521C62.7071 328.258 57.1165 334.436 50.8963 339.94C50.4051 340.339 49.7604 339.725 50.1902 339.265L49.9753 339.173Z" fill="#617580"/>
<path d="M65.868 291.193C70.2886 282.567 78.577 276.09 86.405 270.656C95.3075 264.517 104.824 259.022 114.033 253.527C123.243 248.032 133.189 242.475 142.521 236.551C151.982 230.86 160.901 224.315 169.167 216.996C178.376 208.615 184.056 197.963 189.827 187.219L191.607 188.263C182.736 202.23 168.952 211.47 155.169 220.096C139.438 229.585 124.306 240.032 109.858 251.378C101.937 257.847 94.3933 264.765 87.2646 272.099C86.405 272.989 85.085 271.669 85.9139 270.748C98.3232 257.598 112.185 245.899 127.233 235.875C134.54 230.779 141.999 225.929 149.52 221.202C157.041 216.474 163.764 212.483 170.456 207.541C178.23 202.157 184.821 195.241 189.827 187.219C189.984 187.025 190.205 186.894 190.451 186.849C190.697 186.804 190.95 186.849 191.166 186.975C191.381 187.102 191.544 187.301 191.625 187.537C191.706 187.773 191.7 188.031 191.607 188.263C187.055 197.868 181.221 206.811 174.263 214.847C166.599 222.474 158.08 229.19 148.876 234.862C130.457 247.141 110.749 257.088 92.1763 268.998C87.296 272.032 82.6292 275.396 78.2087 279.067C73.8971 282.875 69.9412 287.067 66.3899 291.592C66.1443 291.93 65.6839 291.592 65.868 291.193Z" fill="#617580"/>
<path d="M190.935 186.969C191.088 191.716 190.284 196.445 188.571 200.875C187.121 205.404 185.197 209.767 182.83 213.891C178.261 221.84 172.157 228.8 164.872 234.367C150.321 245.541 132.394 251.036 115.663 257.82C106.159 261.396 97.0533 265.953 88.4953 271.419C87.5436 272.064 86.6841 270.529 87.605 269.915C116.86 250.115 158.211 248.15 179.055 216.654C182.024 212.128 184.465 207.277 186.33 202.195C188.172 197.222 188.847 191.942 190.566 186.846C190.566 186.797 190.586 186.751 190.62 186.716C190.655 186.682 190.702 186.662 190.751 186.662C190.799 186.662 190.846 186.682 190.881 186.716C190.915 186.751 190.935 186.797 190.935 186.846L190.935 186.969Z" fill="#617580"/>
<path d="M190.565 186.668C189.467 189.657 187.272 192.116 184.426 193.544C180.773 195.847 176.966 197.996 173.159 200.052C165.485 204.289 157.626 208.218 150.136 212.792C135.891 221.8 122.931 232.694 111.61 245.179C105.225 252.024 99.085 259.177 92.9454 266.391C92.27 267.189 91.1342 266.053 91.8095 265.255C102.169 252.452 113.456 240.427 125.577 229.277C131.506 223.934 137.816 219.03 144.457 214.603C151.64 209.845 159.284 205.793 166.866 201.771C171.164 199.469 175.462 197.197 179.667 194.772C183.382 192.623 187.987 190.444 189.89 186.361C190.074 185.962 190.719 186.361 190.596 186.668L190.565 186.668Z" fill="#617580"/>
<path d="M130.796 225.618C135.838 217.297 138.414 207.717 138.225 197.99C138.041 189.149 136.23 180.461 135.155 171.712L136.23 171.712C135.07 179.2 133.304 186.582 130.95 193.784C128.586 200.599 125.793 207.26 123.03 213.922C118.227 226.519 112.681 238.819 106.422 250.76C106.304 250.959 106.112 251.104 105.887 251.161C105.663 251.219 105.424 251.185 105.225 251.067C105.025 250.949 104.881 250.756 104.823 250.532C104.766 250.307 104.8 250.069 104.918 249.869C111.22 237.928 116.817 225.628 121.679 213.032C124.595 206.247 127.42 199.494 129.783 192.771C132.131 185.834 133.968 178.734 135.278 171.528C135.278 170.883 136.322 171.098 136.353 171.528C137.243 180.737 139.423 189.732 139.576 198.972C139.802 208.56 136.796 217.945 131.042 225.618L130.827 225.618L130.796 225.618Z" fill="#617580"/>
<path d="M3.15697 131.29C18.9051 146.025 37.2011 157.721 52.2739 173.131C64.8555 185.389 74.9189 199.989 81.8975 216.109C85.8704 225.927 88.4136 236.266 89.4492 246.807C89.4492 247.973 87.7608 247.943 87.638 246.807C85.3761 228.697 78.8765 211.375 68.6666 196.247C57.7961 180.887 44.7215 167.213 29.8643 155.664C20.2487 148.283 11.0267 140.404 2.23602 132.057C1.74486 131.566 2.5123 130.83 3.00348 131.29L3.15697 131.29Z" fill="#617580"/>
<path d="M4.78329 133.101C18.9383 139.083 32.1854 147.019 44.1382 156.677C55.1576 166.131 64.1575 177.71 70.5999 190.721C74.7749 199.133 78.3051 207.851 82.0196 216.446C82.4494 217.367 81.068 218.196 80.6689 217.245C74.5293 203.062 68.8195 188.45 59.61 175.864C50.7218 163.973 39.6078 153.922 26.8859 146.271C19.5798 141.789 11.9359 137.829 4.50702 133.592C4.16934 133.408 4.50701 132.948 4.78329 133.101Z" fill="#617580"/>
<path d="M2.90806 131.59C10.8282 143.716 21.5418 153.447 32.4703 162.656C43.845 172.195 54.6009 182.449 64.6726 193.354C67.3331 196.301 69.9117 199.31 72.4085 202.38C75.2202 205.597 77.8638 208.958 80.3286 212.449C80.8505 213.216 79.6532 214.168 79.0393 213.462C76.4606 210.576 74.2811 207.322 71.8559 204.252C69.4308 201.182 67.4047 198.726 65.0717 196.056C59.8223 189.916 54.1738 184.36 48.4333 178.803C43.3067 173.861 38.1801 169.011 32.8387 164.345C27.4972 159.679 22.4627 155.135 17.4896 150.438C11.7387 144.842 6.70649 138.552 2.509 131.713C2.509 131.713 2.50898 131.406 2.78527 131.713L2.90806 131.59Z" fill="#617580"/>
<path d="M3.15783 131.44C6.20176 137.969 10.093 144.069 14.731 149.582C18.5069 154.033 22.6818 158.178 26.6726 162.445C31.9676 168.297 37.5729 173.862 43.4644 179.114C48.99 183.872 55.0683 187.955 60.6246 192.682C63.6944 195.414 66.9484 198.239 70.0489 201.094C72.9839 203.619 75.686 206.403 78.1225 209.413C78.3374 209.72 77.8769 210.18 77.5699 209.935C74.9481 207.892 72.4567 205.688 70.1103 203.335C67.2861 200.694 64.4619 198.024 61.5762 195.476C55.9585 190.503 49.8496 186.266 44.1397 181.355C38.2069 176.159 32.5798 170.624 27.2865 164.778C23.2037 160.388 18.9366 156.121 15.0073 151.578C9.85485 145.699 5.60294 139.088 2.39038 131.962C2.17549 131.44 2.91224 130.979 3.15783 131.501L3.15783 131.44Z" fill="#617580"/>
<path d="M77.6043 209.357C75.1177 195.881 73.3066 182.282 68.0265 169.45C65.3251 162.973 62.1018 156.71 58.8171 150.448C55.5324 144.185 52.6775 138.353 49.1165 132.582C45.0524 126 40.5177 119.722 35.5479 113.794L36.2233 113.242C38.5256 118.368 41.0736 123.403 43.3145 128.591C45.4951 133.634 47.1812 138.878 48.349 144.247C49.1595 149.268 50.5396 154.181 52.4626 158.89C54.7342 163.679 57.4357 168.099 59.5845 173.072C59.9836 173.932 58.6943 174.699 58.2952 173.84C56.177 169.082 53.537 164.63 51.296 159.934C49.354 155.5 47.9821 150.837 47.2132 146.058C46.2112 140.594 44.6898 135.239 42.6699 130.064C40.4289 124.539 38.0345 119.074 35.5786 113.672C35.3944 113.242 35.9163 112.72 36.254 113.119C45.0207 123.646 52.5883 135.116 58.8171 147.317C65.3251 159.596 71.6489 172.213 74.5345 185.996C76.154 193.675 77.3022 201.446 77.9726 209.265C77.9726 209.542 77.5429 209.634 77.4815 209.265L77.6043 209.357Z" fill="#617580"/>
<path d="M197.719 82.8386C194.556 92.6221 190.052 101.92 184.335 110.467C179.102 117.883 173.17 124.78 166.622 131.065C153.606 144.02 138.994 155.378 126.039 168.271C122.233 172.016 118.549 175.915 115.05 179.937C111.55 183.958 108.542 188.471 105.011 192.523C104.275 193.352 103.016 192.277 103.507 191.356C105.789 187.282 108.529 183.482 111.673 180.029C114.743 176.498 117.812 173.06 120.882 169.776C127.421 163.145 134.389 156.944 141.389 150.835C154.865 139.077 169.017 127.627 179.945 113.352C187.151 104.081 192.954 93.7994 197.167 82.8386C197.167 82.5009 197.842 82.6237 197.719 82.9921L197.719 82.8386Z" fill="#617580"/>
<path d="M198.334 82.8448C197.043 89.7947 194.984 96.5796 192.194 103.075C189.854 108.928 186.758 114.449 182.985 119.498C175.122 129.327 165.805 137.898 155.357 144.916C148.91 149.582 142.249 154.126 135.802 158.669C134.728 159.436 133.715 157.687 134.758 156.919C155.572 142.123 178.902 128.892 189.739 104.733C192.893 97.5637 195.43 90.1384 197.321 82.5378C197.474 81.9546 198.303 82.2309 198.211 82.8141L198.334 82.8448Z" fill="#617580"/>
<path d="M198.306 82.5695C194.132 87.7267 189.097 92.27 184.554 97.0282C180.092 101.678 175.91 106.588 172.029 111.733C164.385 121.894 156.864 132.178 149.036 142.185C144.654 147.866 139.981 153.317 135.038 158.516C134.209 159.345 132.95 158.056 133.748 157.227C142.487 147.874 150.628 137.98 158.123 127.604C165.421 117.219 173.303 107.257 181.73 97.765C186.799 92.2446 192.169 87.0078 197.815 82.0783C197.88 82.0132 197.969 81.9766 198.061 81.9766C198.153 81.9766 198.241 82.0132 198.306 82.0783C198.372 82.1434 198.408 82.2318 198.408 82.3239C198.408 82.416 198.372 82.5043 198.306 82.5695Z" fill="#617580"/>
<path d="M198.026 82.8488C192.807 86.901 187.281 90.5234 182.124 94.6369C176.944 98.7484 172.09 103.254 167.604 108.113C163.099 112.977 159.098 118.284 155.662 123.954C151.764 130.431 148.51 137.184 144.335 143.478C139.883 150.404 134.938 157.001 129.538 163.216C128.894 163.892 127.666 162.971 128.218 162.173C132.485 156.033 137.428 150.262 141.818 144.061C146.207 137.86 149.523 131.137 153.329 124.598C160.169 113.25 168.973 103.208 179.331 94.9439C184.986 90.1149 191.164 85.9344 197.749 82.4805C197.964 82.4805 198.241 82.6954 198.026 82.8488Z" fill="#617580"/>
<path d="M124.047 169.869C126.577 167.659 129.243 165.608 132.029 163.73C134.78 162.044 137.702 160.655 140.747 159.585C147.132 157.191 153.824 155.871 160.363 154.06C172.967 150.783 185.062 145.794 196.31 139.233C202.574 135.476 208.357 130.971 213.532 125.818L214.545 127.138C202.88 134.413 188.881 135.273 175.835 139.018C162.071 143.267 149.091 149.726 137.401 158.143C136.511 158.757 135.682 157.314 136.541 156.7C148.025 148.456 160.736 142.074 174.208 137.79C187.377 133.799 201.836 133.124 213.716 125.664C213.803 125.598 213.902 125.549 214.007 125.521C214.113 125.492 214.223 125.485 214.331 125.499C214.44 125.514 214.544 125.549 214.639 125.604C214.733 125.658 214.816 125.731 214.883 125.818C214.949 125.904 214.998 126.003 215.026 126.109C215.055 126.214 215.062 126.324 215.048 126.433C215.019 126.651 214.904 126.85 214.729 126.984C205.622 135.772 194.922 142.742 183.202 147.521C177.456 149.917 171.572 151.968 165.582 153.661C159.166 155.564 152.596 156.945 146.18 158.818C142.434 159.841 138.818 161.293 135.405 163.146C131.707 165.348 128.177 167.82 124.845 170.545C124.293 170.974 123.464 170.207 124.047 169.747L124.047 169.869Z" fill="#617580"/>
<path d="M26.5128 51.4746C31.4873 58.2707 37 64.656 42.9977 70.5688C48.8917 76.34 55.2769 81.4666 61.6621 86.7467C73.8711 96.9608 84.6598 108.761 93.7415 121.835C99.254 129.598 104.278 137.698 108.784 146.086C108.85 146.25 108.856 146.433 108.799 146.601C108.742 146.768 108.626 146.91 108.473 146.999C108.32 147.089 108.14 147.12 107.966 147.088C107.792 147.055 107.635 146.961 107.525 146.823C99.3327 132.448 89.8707 118.836 79.2521 106.148C68.385 93.8686 55.4918 83.7383 43.7344 72.38C37.2189 66.091 31.3564 59.1588 26.2365 51.6895C26.2365 51.6895 26.2365 51.3825 26.5128 51.6895L26.5128 51.4746Z" fill="#617580"/>
<path d="M26.8539 50.8271C30.7525 54.9099 34.4363 59.1462 38.734 62.8914C43.0317 66.6366 47.5444 70.0748 52.0263 73.6357C61.1766 80.4593 69.4281 88.4116 76.5847 97.3039C80.6669 102.613 84.2531 108.285 87.2984 114.249C87.7895 115.17 86.4081 115.999 85.9169 115.078C80.4983 104.462 73.3737 94.8067 64.8274 86.4982C56.7538 78.6395 47.3602 72.4078 38.7954 65.0096C33.8194 61.2143 29.5312 56.5938 26.1171 51.3489C26.0737 51.243 26.0662 51.1258 26.096 51.0152C26.1257 50.9046 26.191 50.8069 26.2817 50.7371C26.3724 50.6673 26.4836 50.6293 26.5981 50.6289C26.7126 50.6285 26.824 50.6658 26.9153 50.735L26.8539 50.8271Z" fill="#617580"/>
<path d="M27.4062 52.7617C31.796 59.0548 36.1551 65.4093 40.6985 71.5796C44.8967 77.6822 49.859 83.2222 55.4642 88.0645C61.0513 92.6692 67.2523 96.4757 72.87 101.019C75.6328 103.229 78.3036 105.532 80.8822 107.926C83.7365 110.386 86.3948 113.065 88.833 115.938C88.9738 116.104 89.0464 116.318 89.0361 116.535C89.0259 116.752 88.9335 116.958 88.7776 117.11C88.6217 117.262 88.414 117.349 88.1964 117.354C87.9788 117.358 87.7675 117.281 87.6051 117.136C84.7809 114.68 82.2636 111.855 79.5008 109.308C76.738 106.76 73.8524 104.334 70.9053 102.001C65.3183 97.5502 59.1787 93.498 53.7144 88.9854C48.402 84.3086 43.7174 78.9637 39.7775 73.0838C35.2035 66.6372 30.8444 60.0679 26.8843 53.2222C26.7001 52.8845 27.1913 52.6389 27.4062 52.9152L27.4062 52.7617Z" fill="#617580"/>
<path d="M27.2244 51.5898C37.6003 60.4002 51.261 63.8691 62.0667 72.1575C71.9451 80.2065 79.711 90.5435 84.6912 102.272C87.761 108.965 89.5415 116.455 93.6857 122.625C94.0541 123.208 93.2252 123.822 92.7341 123.362C88.2214 118.819 86.8707 111.666 84.4149 105.956C81.8922 100.037 78.8084 94.3727 75.2055 89.0415C71.6041 83.6527 67.2757 78.7871 62.343 74.5827C57.0332 70.3615 51.2545 66.7666 45.1214 63.869C38.4125 60.8052 32.2032 56.7485 26.7025 51.8354C26.7025 51.8354 26.7025 51.4363 26.9788 51.5898L27.2244 51.5898Z" fill="#617580"/>
<path d="M83.7367 102.062C81.1274 96.37 79.4979 90.2778 78.9171 84.0427C78.3032 77.6268 78.3953 71.1802 77.5971 64.7643C76.9001 58.2951 74.6918 52.0803 71.1505 46.6218C67.5907 41.5752 63.5838 36.8594 59.1783 32.5313L60.2527 31.7025C63.9435 39.9531 66.5738 48.6383 68.0807 57.5503C69.5542 66.4527 70.0761 75.2938 73.238 83.8585C73.545 84.6567 72.225 85.2092 71.8566 84.4418C68.0807 76.5831 68.05 67.4043 66.8221 58.9624C65.5257 49.7879 62.9528 40.8398 59.1783 32.3779C58.8713 31.7332 59.6695 30.9657 60.2527 31.549C64.6503 35.7913 68.6763 40.4026 72.2864 45.3324C75.7684 50.3751 78.0761 56.1339 79.0399 62.1857C80.0223 68.5095 79.9609 74.9254 80.36 81.3106C80.7663 88.3092 82.1297 95.2191 84.4121 101.848C84.4121 102.155 84.013 102.369 83.8902 102.062L83.7367 102.062Z" fill="#617580"/>
<path d="M124.926 1.37366C123.299 11.3505 118.786 20.8055 115.716 30.4447C114.059 35.8169 113.168 41.4039 111.726 46.8375C109.442 54.0441 108.091 61.5132 107.704 69.0629C107.242 77.876 106.103 86.6406 104.297 95.279C104.297 96.1693 102.792 95.7702 102.915 94.88C104.65 86.7902 105.768 78.5805 106.261 70.3215C106.412 63.1744 107.527 56.0804 109.577 49.2319C111.142 43.4607 112.186 37.536 113.844 31.7954C115.379 26.5768 117.251 21.4809 119.032 16.4464C120.812 11.4119 122.9 6.31605 124.281 1.09738C124.281 0.759701 124.834 0.913191 124.772 1.25087L124.926 1.37366Z" fill="#617580"/>
<path d="M125.122 0.968035C119.688 10.024 114.101 18.9878 109.374 28.5963C106.849 33.5082 104.793 38.6473 103.234 43.9453C101.382 51.6499 100.597 59.5724 100.901 67.4907C100.824 71.8978 101.009 76.3056 101.453 80.6909C102.006 85.4798 103.173 90.0538 104.155 94.7506C104.2 94.9175 104.176 95.0954 104.09 95.245C104.004 95.3947 103.861 95.504 103.694 95.5488C103.528 95.5935 103.35 95.5702 103.2 95.4838C103.05 95.3975 102.941 95.2552 102.896 95.0883C100.648 87.3132 99.4707 79.2678 99.3967 71.1745C98.9895 63.2026 99.4942 55.2102 100.901 47.3528C103.971 35.811 108.829 24.821 115.298 14.7822C118.059 9.83209 121.211 5.11009 124.723 0.661055C124.907 0.446168 125.275 0.661055 125.122 0.968035Z" fill="#617580"/>
<path d="M125.086 2.01925C124.477 5.89649 124.282 9.82739 124.503 13.7459C124.503 16.4473 124.318 19.1795 124.073 21.9116C123.52 28.0512 122.63 34.1908 121.556 40.3304C119.527 52.5143 116.383 64.4858 112.162 76.0937C110.719 79.9616 109.307 83.8603 108.11 87.8203C106.913 91.7804 106.084 95.7711 105.04 99.6698C104.999 99.8285 104.897 99.9646 104.756 100.048C104.615 100.132 104.447 100.156 104.288 100.115C104.129 100.074 103.993 99.9721 103.91 99.831C103.826 99.69 103.802 99.5216 103.843 99.3628C106.575 86.1933 112.223 73.9755 115.692 61.0516C119.063 48.5611 121.434 35.8221 122.784 22.9553C123.091 19.8855 123.275 16.9692 123.367 13.9608C123.262 9.90181 123.685 5.84642 124.625 1.89645C124.643 1.84945 124.674 1.80892 124.715 1.78029C124.757 1.75167 124.806 1.73633 124.856 1.73633C124.906 1.73633 124.955 1.75167 124.996 1.78029C125.037 1.80892 125.068 1.84945 125.086 1.89645L125.086 2.01925Z" fill="#617580"/>
<path d="M122.91 9.97461C122.634 17.6798 119.84 25.1395 118.398 32.6605C117.292 38.8001 116.556 45.1546 115.481 51.3556C114.43 58.3922 112.85 65.3394 110.754 72.1382C109.556 75.7606 108.083 79.2908 106.794 82.8825C105.54 86.5818 104.515 90.3545 103.724 94.1794C103.681 94.3083 103.594 94.4182 103.479 94.49C103.364 94.5619 103.227 94.5913 103.092 94.5731C102.958 94.5549 102.834 94.4903 102.742 94.3904C102.65 94.2905 102.595 94.1616 102.588 94.0259C102.588 87.6407 105.658 81.2248 107.899 75.3308C110.263 68.682 112.051 61.8417 113.24 54.8859C114.53 47.9174 115.727 40.8876 116.771 33.8884C117.447 30.1691 118.329 26.49 119.411 22.8678C120.803 18.6491 121.91 14.3417 122.726 9.97461L122.91 9.97461Z" fill="#617580"/>
<path d="M106.487 91.444C108.698 85.6021 112.036 80.2515 116.31 75.6959C120.704 70.4935 125.409 65.5625 130.4 60.9301C135.621 56.1735 140.542 51.0986 145.135 45.7346C149.358 39.9931 152.48 33.5192 154.345 26.6404L155.604 27.1623C152.913 31.5826 149.753 35.6995 146.179 39.4415C142.271 43.176 138.038 46.5558 133.532 49.5412C124.559 55.7648 117.483 64.3495 113.087 74.3452C112.688 75.2661 111.183 74.8671 111.582 73.9461C115.588 64.6146 121.932 56.4734 130.001 50.3086C134.698 46.7169 139.733 43.6164 144.092 39.595C148.2 35.8125 151.663 31.3849 154.345 26.4869C154.713 25.7809 155.757 26.272 155.573 27.0088C154.117 33.4935 151.417 39.6341 147.622 45.0899C143.296 50.5159 138.543 55.587 133.409 60.2548C128.374 65.1358 123.248 69.9247 118.612 75.174C116.298 77.7345 114.164 80.4527 112.227 83.309C110.416 86.0105 108.973 88.9575 107.162 91.6896C106.947 91.9659 106.456 91.6896 106.548 91.444L106.487 91.444Z" fill="#617580"/>
<path d="M132.544 157.91C132.508 151.212 132.98 144.521 133.956 137.895C134.712 131.478 136.111 125.153 138.131 119.016C140.219 113.183 143.779 108.241 146.389 102.684C148.8 96.5848 150.35 90.1789 150.994 83.6516C150.994 83.1604 151.914 83.1604 152.007 83.6516C154.457 95.8535 153.392 108.5 148.937 120.121C147.862 122.945 146.542 125.647 145.284 128.409C143.98 131.637 143.013 134.991 142.398 138.417C140.892 144.561 138.459 150.441 135.184 155.853C134.816 156.498 133.956 155.853 134.232 155.301C137.177 149.564 139.542 143.548 141.293 137.342C141.757 134.461 142.508 131.633 143.534 128.901C144.731 126.015 146.205 123.221 147.371 120.305C152.321 108.827 153.587 96.0948 150.994 83.8665L152.037 83.713C151.778 89.9918 150.482 96.1844 148.2 102.04C145.775 107.719 141.876 112.6 139.635 118.371C134.785 130.835 134.048 144.71 133.189 157.91C133.165 157.994 133.114 158.067 133.045 158.119C132.976 158.171 132.892 158.2 132.805 158.2C132.718 158.2 132.634 158.171 132.565 158.119C132.495 158.067 132.445 157.994 132.421 157.91L132.544 157.91Z" fill="#617580"/>
<path d="M23.4484 350.777C23.1095 323.826 15.2872 297.5 0.854659 274.737L2.14397 273.97C4.8147 278.513 4.56912 283.947 5.21378 289.012C5.88662 295.242 7.08817 301.404 8.80544 307.431C11.8753 318.022 16.8483 327.784 20.3172 338.129C22.3401 343.369 23.3808 348.936 23.387 354.552C23.387 354.764 23.3029 354.967 23.1533 355.117C23.0036 355.266 22.8006 355.351 22.5889 355.351C22.3772 355.351 22.1742 355.266 22.0245 355.117C21.8748 354.967 21.7907 354.764 21.7907 354.552C21.2996 341.475 14.9451 329.626 10.4018 317.715C7.72531 310.687 5.77103 303.404 4.56912 295.981C3.98586 292.389 3.5868 288.797 3.31051 285.175C3.34988 281.559 2.54025 277.984 0.946748 274.737C0.896358 274.653 0.863126 274.559 0.848968 274.462C0.83481 274.364 0.840007 274.265 0.864238 274.169C0.888467 274.074 0.931264 273.984 0.990194 273.905C1.04913 273.826 1.12302 273.759 1.20768 273.709C1.29234 273.659 1.3861 273.625 1.4836 273.611C1.5811 273.597 1.68042 273.602 1.77591 273.627C1.87141 273.651 1.96119 273.694 2.04015 273.753C2.1191 273.811 2.18567 273.885 2.23606 273.97C9.37002 285.284 14.9168 297.524 18.7209 310.347C22.8188 323.423 24.778 337.076 24.5229 350.777C24.4929 350.905 24.4204 351.019 24.3173 351.101C24.2142 351.182 24.0865 351.227 23.955 351.227C23.8234 351.227 23.6956 351.182 23.5925 351.101C23.4894 351.019 23.417 350.905 23.387 350.777L23.4484 350.777Z" fill="#617580"/>
</svg>
