<svg width="116" height="214" viewBox="0 0 116 214" fill="none" xmlns="http://www.w3.org/2000/svg">
<path d="M67.5781 1.05185C64.8641 5.89539 62.7212 11.0374 61.1922 16.3748C59.3583 22.1417 57.9392 28.0325 56.9459 34.0019C56.5375 36.2863 56.2846 38.5958 56.1888 40.9145C56.1971 44.5665 56.4114 48.2151 56.8307 51.843C57.5713 60.5825 58.9209 69.2726 59.1349 78.045C59.418 94.7813 56.6287 111.428 50.9056 127.157C45.45 142.064 38.0154 156.169 28.8017 169.094C20.0787 181.471 9.95664 193.255 4.11384 207.409C3.40612 209.154 2.71486 210.932 2.05652 212.709C2.01505 212.862 1.91458 212.992 1.77723 213.071C1.63988 213.149 1.47689 213.17 1.32411 213.129C1.17133 213.087 1.04128 212.987 0.962578 212.849C0.883866 212.712 0.862946 212.549 0.904412 212.396C3.04362 205.189 6.29196 198.36 10.5327 192.152C14.6473 185.701 19.2886 179.611 23.7983 173.439C33.4147 160.683 41.3833 146.764 47.5151 132.013C53.8808 116.466 57.4093 99.9052 57.9334 83.1143C57.8872 74.3888 57.3377 65.6732 56.2875 57.011C55.6621 50.4276 54.7569 43.5973 55.6457 36.9645C56.452 31.2542 57.6955 25.6143 59.3653 20.0944C60.93 14.4936 62.9843 9.04128 65.5043 3.80043C66.031 2.76354 66.5906 1.74311 67.1502 0.755599C67.2983 0.525179 67.6933 0.755599 67.5288 0.986019L67.5781 1.05185Z" fill="#51636C"/>
<path d="M13.5591 188.2C14.9252 184.217 16.3571 180.283 17.361 176.185C18.3666 172.022 19.0707 167.793 19.4677 163.529C20.2304 155.057 19.7592 146.519 18.0688 138.182C17.1109 133.472 15.7508 128.852 14.0035 124.374C13.7731 123.798 14.7112 123.534 14.9416 124.11C21.1656 140.223 22.4603 157.821 18.6613 174.671C17.6851 179.419 16.1721 184.041 14.1516 188.447C14.1154 188.522 14.0518 188.581 13.9736 188.612C13.8955 188.642 13.8087 188.641 13.731 188.61C13.6534 188.578 13.5906 188.518 13.5556 188.442C13.5206 188.366 13.516 188.279 13.5426 188.2L13.5591 188.2Z" fill="#51636C"/>
<path d="M14.813 124.687C18.6808 130.957 22.3181 137.59 23.7171 144.914C24.9528 152.528 24.3202 160.328 21.8737 167.643C20.7309 171.745 19.1529 175.712 17.1666 179.477C17.128 179.524 17.0752 179.557 17.0161 179.572C16.9569 179.586 16.8948 179.581 16.839 179.557C16.7832 179.532 16.7367 179.491 16.7068 179.438C16.6768 179.385 16.6649 179.324 16.6728 179.263C17.8907 175.758 19.5037 172.416 20.6558 168.894C21.8635 165.315 22.7233 161.628 23.2233 157.884C24.1837 150.385 23.0857 142.767 20.0468 135.846C18.401 132.076 16.4753 128.456 14.632 124.802C14.632 124.67 14.7472 124.571 14.813 124.687Z" fill="#51636C"/>
<path d="M14.8767 124.699C16.8233 130.842 17.7355 137.266 17.5759 143.708C17.5759 147.263 17.2303 150.802 17.3784 154.341C17.5265 157.879 17.9544 161.319 18.2671 164.808C18.703 168.732 18.7691 172.689 18.4646 176.625C18.4646 177.169 17.5594 177.169 17.6088 176.625C18.2507 169.762 17.0163 162.948 16.5555 156.118C16.358 152.659 16.358 149.192 16.5555 145.733C16.7037 142.335 16.6213 138.931 16.3086 135.545C15.9154 131.927 15.322 128.333 14.5311 124.781C14.5311 124.742 14.5467 124.704 14.5744 124.676C14.6022 124.648 14.6399 124.633 14.6792 124.633C14.7185 124.633 14.7561 124.648 14.7839 124.676C14.8117 124.704 14.8273 124.742 14.8273 124.781L14.8767 124.699Z" fill="#51636C"/>
<path d="M14.5671 124.224C15.1817 126.479 15.3714 128.829 15.1267 131.154C15.1267 134.445 14.8798 137.737 14.7316 141.16C14.5835 144.584 14.4519 148.007 14.5506 151.43C14.7232 155.118 15.2355 158.782 16.0812 162.375C16.6244 164.91 17.2004 167.461 17.6119 170.029C17.7929 171.214 17.9575 172.399 18.0563 173.6C18.2703 174.903 18.2703 176.231 18.0563 177.534C18.0563 177.595 18.032 177.654 17.9888 177.697C17.9456 177.74 17.887 177.764 17.8259 177.764C17.7647 177.764 17.7061 177.74 17.6629 177.697C17.6197 177.654 17.5954 177.595 17.5954 177.534C17.4526 176.486 17.3757 175.431 17.365 174.374C17.2939 173.117 17.1566 171.864 16.9536 170.621C16.5915 168.235 16.0813 165.881 15.571 163.528C14.7271 159.969 14.1766 156.347 13.9252 152.698C13.6125 145.983 14.205 139.251 14.4519 132.536C14.5506 129.771 14.4519 127.006 14.4519 124.307C14.4519 124.281 14.4623 124.255 14.4808 124.237C14.4993 124.218 14.5244 124.208 14.5506 124.208C14.5768 124.208 14.6019 124.218 14.6204 124.237C14.639 124.255 14.6494 124.281 14.6494 124.307L14.5671 124.224Z" fill="#51636C"/>
<path d="M19.6996 172.152C20.4451 170.915 21 169.572 21.3455 168.169C21.8522 166.794 22.4346 165.448 23.0901 164.137C24.6332 161.377 25.9912 158.518 27.1553 155.578C28.1227 152.32 28.6757 148.952 28.8012 145.555C29.0645 142.033 29.3059 138.5 29.5254 134.956C30.0244 130.924 30.0631 126.849 29.6406 122.809L30.4635 122.694C30.4033 123.987 30.0184 125.243 29.3443 126.348C28.5214 128.142 27.8466 129.985 27.1883 131.829C25.4248 136.218 24.3157 140.843 23.8965 145.555C23.8965 146.082 23.0407 146.082 23.0736 145.555C23.4727 141.038 24.5261 136.602 26.2007 132.388C26.8426 130.578 27.4516 128.734 28.2416 126.99C29.0693 125.71 29.567 124.246 29.69 122.727C29.69 122.266 30.4306 122.151 30.5129 122.612C30.9548 126.168 30.9879 129.763 30.6116 133.326C30.4306 137.062 30.1508 140.815 29.871 144.551C29.7593 148.053 29.2794 151.534 28.4391 154.936C27.4086 157.979 26.08 160.911 24.4726 163.692C23.5815 165.323 22.8114 167.018 22.1684 168.762C21.9231 170.213 21.1988 171.539 20.1111 172.531C19.8806 172.695 19.5515 172.382 19.7161 172.152L19.6996 172.152Z" fill="#51636C"/>
<path d="M89.8699 161.315C79.8795 167.471 68.4737 170.516 57.1502 173.462C46.3205 176.293 35.3755 179.124 25.3523 184.242C19.8095 186.987 14.7552 190.623 10.3914 195.006C9.76598 195.648 8.74555 194.661 9.42035 194.019C25.5991 177.363 49.9249 175.141 71.0083 168.705C77.4991 166.806 83.7845 164.264 89.7711 161.118C89.7955 161.114 89.8207 161.117 89.8429 161.129C89.865 161.14 89.883 161.158 89.8941 161.18C89.9052 161.202 89.9088 161.227 89.9045 161.252C89.9001 161.276 89.888 161.298 89.8699 161.315Z" fill="#51636C"/>
<path d="M89.8662 161.309C82.1471 163.844 73.9014 164.107 66.0671 166.247C58.3343 168.347 50.8305 171.214 43.667 174.805C39.6346 176.764 35.6846 178.87 31.7674 181.059C31.6689 181.098 31.5598 181.1 31.4598 181.066C31.3598 181.031 31.2754 180.962 31.2218 180.871C31.1682 180.779 31.149 180.672 31.1676 180.568C31.1861 180.464 31.2413 180.369 31.3231 180.302C38.2362 176.368 45.3813 172.856 52.7192 169.785C60.1596 166.735 67.9401 164.591 75.8929 163.399C80.5507 162.692 85.2084 162.083 89.8333 161.145C89.8509 161.152 89.8659 161.165 89.8764 161.181C89.887 161.197 89.8926 161.216 89.8926 161.235C89.8926 161.254 89.887 161.273 89.8764 161.289C89.8659 161.305 89.8509 161.318 89.8333 161.326L89.8662 161.309Z" fill="#51636C"/>
<path d="M90.4247 160.998C88.0236 163.771 85.1478 166.095 81.9321 167.861C78.7686 169.745 75.4347 171.326 71.9746 172.585C64.1118 175.268 55.9463 176.965 47.6653 177.637C42.8916 177.962 38.1675 178.807 33.5768 180.155C33.0172 180.337 32.7703 179.448 33.3299 179.25C37.1277 178.086 41.0401 177.336 44.999 177.012C49.196 176.568 53.3765 176.173 57.524 175.366C65.4465 174.177 73.1065 171.639 80.171 167.861C83.7041 165.72 87.086 163.339 90.293 160.734C90.4083 160.734 90.507 160.734 90.4247 160.915L90.4247 160.998Z" fill="#51636C"/>
<path d="M89.8628 161.109C85.5342 161.52 81.1562 161.536 76.8276 161.899C72.4774 162.226 68.155 162.853 63.8911 163.775C59.6424 164.694 55.5081 166.079 51.5636 167.906C47.5935 169.865 43.7461 172.064 40.0426 174.489L26.7112 183.031C26.2174 183.344 25.7566 182.554 26.2504 182.241L38.4791 174.489C42.2498 171.991 46.1505 169.695 50.1647 167.61C58.0027 164.007 66.44 161.886 75.05 161.355C79.9696 160.838 84.9179 160.646 89.8628 160.779C89.9064 160.779 89.9483 160.797 89.9791 160.828C90.01 160.858 90.0273 160.9 90.0273 160.944C90.0273 160.988 90.01 161.029 89.9791 161.06C89.9483 161.091 89.9064 161.109 89.8628 161.109Z" fill="#51636C"/>
<path d="M27.3236 182.211C32.7753 176.263 37.9172 170.039 42.7288 163.563C44.9672 160.577 47.3914 157.735 49.9871 155.054C52.6863 152.355 55.6982 150.001 58.5784 147.516C61.8666 144.681 64.9011 141.564 67.6471 138.2C67.9763 137.789 68.684 138.316 68.3713 138.76C67.4199 140.422 66.7314 142.22 66.3304 144.093C65.8224 145.722 65.1953 147.312 64.4542 148.849C62.8834 152.032 60.9145 155.001 58.5949 157.687C53.4008 163.352 47.5812 168.41 41.2476 172.763C37.4292 175.594 33.6108 178.409 30.0557 181.552C29.5291 182.013 28.772 181.256 29.2986 180.795C40.7209 170.706 55.6324 163.415 63.0223 149.524C64.0017 147.7 64.8063 145.788 65.4252 143.813C65.8648 141.865 66.5973 139.995 67.5977 138.266L68.3384 138.842C65.903 141.815 63.2455 144.599 60.3889 147.17C57.558 149.705 54.5296 152.108 51.7481 154.643C46.0535 159.975 41.6426 166.624 36.7544 172.747C34.1497 176.359 31.1523 179.671 27.8174 182.622C27.554 182.836 27.2084 182.507 27.4388 182.26L27.3236 182.211Z" fill="#51636C"/>
<path d="M35.8466 156.484C38.2166 151.859 42.6605 148.386 46.8574 145.473C51.6304 142.181 56.7325 139.235 61.6701 136.289C66.6077 133.343 71.9403 130.364 76.9437 127.188C82.0161 124.137 86.7981 120.627 91.2297 116.703C96.1673 112.21 99.2121 106.499 102.306 100.739L103.261 101.298C98.5044 108.787 91.1145 113.741 83.7246 118.366C75.2909 123.453 67.178 129.054 59.4317 135.137C55.1847 138.605 51.1402 142.315 47.3182 146.247C46.8574 146.724 46.1497 146.016 46.5941 145.522C53.2472 138.472 60.6792 132.199 68.7473 126.825C72.6644 124.093 76.6639 121.493 80.6962 118.958C84.7286 116.424 88.333 114.284 91.921 111.634C96.0885 108.747 99.6225 105.04 102.306 100.739C102.391 100.635 102.509 100.564 102.641 100.54C102.773 100.516 102.909 100.54 103.024 100.608C103.14 100.676 103.227 100.783 103.271 100.909C103.314 101.036 103.311 101.174 103.261 101.298C100.82 106.448 97.6922 111.243 93.9618 115.551C89.8528 119.64 85.2855 123.241 80.3506 126.282C70.4755 132.866 59.909 138.198 49.9516 144.584C47.3351 146.211 44.833 148.014 42.463 149.983C40.1514 152.024 38.0304 154.272 36.1264 156.698C35.9947 156.879 35.7479 156.698 35.8466 156.484Z" fill="#51636C"/>
<path d="M102.898 100.608C102.98 103.153 102.549 105.689 101.631 108.064C100.854 110.492 99.822 112.831 98.5533 115.042C96.1035 119.304 92.8306 123.035 88.925 126.02C81.1236 132.011 71.5118 134.957 62.5419 138.594C57.4461 140.511 52.5644 142.955 47.9761 145.885C47.4659 146.231 47.005 145.408 47.4988 145.079C63.1838 134.463 85.3535 133.41 96.5289 116.523C98.1207 114.097 99.4295 111.496 100.43 108.771C101.417 106.105 101.779 103.274 102.701 100.542C102.701 100.516 102.711 100.491 102.73 100.472C102.748 100.454 102.773 100.443 102.8 100.443C102.826 100.443 102.851 100.454 102.869 100.472C102.888 100.491 102.898 100.516 102.898 100.542L102.898 100.608Z" fill="#51636C"/>
<path d="M102.7 100.445C102.111 102.048 100.934 103.366 99.4082 104.132C97.4496 105.366 95.4087 106.518 93.3679 107.621C89.2532 109.892 85.0398 111.999 81.0239 114.451C73.3867 119.28 66.4385 125.121 60.3684 131.815C56.945 135.485 53.6533 139.32 50.3616 143.188C49.9995 143.616 49.3906 143.007 49.7526 142.579C55.307 135.714 61.3581 129.267 67.8571 123.289C71.0357 120.425 74.4187 117.796 77.9791 115.422C81.8304 112.871 85.9286 110.699 89.9939 108.543C92.2981 107.308 94.6023 106.09 96.8571 104.79C98.8486 103.638 101.317 102.469 102.338 100.28C102.437 100.066 102.782 100.28 102.716 100.445L102.7 100.445Z" fill="#51636C"/>
<path d="M70.6595 121.33C73.3626 116.869 74.7438 111.733 74.6425 106.518C74.5437 101.778 73.5727 97.1199 72.9966 92.4292L73.5727 92.4292C72.951 96.4439 72.0042 100.401 70.7418 104.263C69.4745 107.917 67.9768 111.488 66.4955 115.06C63.9204 121.813 60.9472 128.408 57.5914 134.81C57.5281 134.917 57.4249 134.994 57.3046 135.025C57.1842 135.056 57.0565 135.038 56.9495 134.975C56.8426 134.911 56.7652 134.808 56.7343 134.688C56.7034 134.567 56.7216 134.44 56.7849 134.333C60.1638 127.931 63.1645 121.336 65.7713 114.582C67.3349 110.945 68.8491 107.324 70.1164 103.72C71.3753 100 72.36 96.1938 73.0625 92.3304C73.0625 91.9848 73.6221 92.1 73.6385 92.3304C74.1158 97.268 75.2844 102.09 75.3667 107.044C75.4879 112.185 73.8763 117.217 70.7912 121.33L70.676 121.33L70.6595 121.33Z" fill="#51636C"/>
<path d="M2.21933 70.7499C10.6626 78.65 20.4719 84.9207 28.553 93.1829C35.2986 99.7548 40.694 107.582 44.4356 116.225C46.5656 121.489 47.9291 127.032 48.4844 132.683C48.4844 133.309 47.5791 133.292 47.5133 132.683C46.3006 122.974 42.8159 113.687 37.3419 105.576C31.5137 97.341 24.5039 90.0095 16.5383 83.818C11.383 79.8608 6.43861 75.6361 1.72557 71.1613C1.46223 70.898 1.87369 70.503 2.13703 70.7499L2.21933 70.7499Z" fill="#51636C"/>
<path d="M3.10293 71.7284C10.6921 74.9357 17.7944 79.1904 24.2028 84.3686C30.1108 89.4373 34.936 95.6452 38.3901 102.621C40.6285 107.131 42.5212 111.805 44.5127 116.413C44.7431 116.907 44.0025 117.352 43.7885 116.841C40.4968 109.238 37.4355 101.403 32.4979 94.6552C27.7326 88.28 21.7739 82.8915 14.9531 78.7892C11.036 76.3862 6.93778 74.263 2.95481 71.9918C2.77376 71.893 2.9548 71.6461 3.10293 71.7284Z" fill="#51636C"/>
<path d="M2.09253 70.9175C6.33884 77.4186 12.0829 82.636 17.9421 87.5735C24.0406 92.6878 29.8073 98.1851 35.2072 104.032C36.6336 105.612 38.0161 107.225 39.3548 108.871C40.8622 110.596 42.2796 112.398 43.6011 114.269C43.8809 114.681 43.239 115.191 42.9098 114.813C41.5273 113.265 40.3587 111.521 39.0585 109.875C37.7583 108.229 36.672 106.912 35.4211 105.48C32.6067 102.189 29.5784 99.2098 26.5006 96.2308C23.752 93.5809 21.0034 90.9805 18.1396 88.4788C15.2758 85.9771 12.5766 83.5412 9.91035 81.023C6.82702 78.0226 4.12903 74.6501 1.87857 70.9833C1.87857 70.9833 1.87857 70.8187 2.02669 70.9833L2.09253 70.9175Z" fill="#51636C"/>
<path d="M2.22191 70.8314C3.8539 74.3322 5.94015 77.6027 8.42679 80.5584C10.4512 82.9449 12.6896 85.1668 14.8292 87.4545C17.6681 90.5925 20.6733 93.5758 23.832 96.3915C26.7946 98.9426 30.0534 101.132 33.0324 103.666C34.6782 105.131 36.4228 106.645 38.0851 108.176C39.6587 109.53 41.1074 111.023 42.4137 112.636C42.529 112.801 42.2821 113.048 42.1175 112.916C40.7118 111.821 39.3761 110.639 38.1181 109.377C36.6039 107.962 35.0897 106.53 33.5426 105.164C30.5307 102.498 27.2554 100.226 24.1941 97.593C21.0133 94.8073 17.9963 91.8397 15.1583 88.7054C12.9694 86.3518 10.6816 84.0641 8.57492 81.6282C5.81247 78.4763 3.53284 74.932 1.81044 71.1112C1.69523 70.8314 2.09024 70.5845 2.22191 70.8643L2.22191 70.8314Z" fill="#51636C"/>
<path d="M42.1365 112.615C40.8033 105.39 39.8323 98.099 37.0014 91.2193C35.5531 87.7465 33.8249 84.389 32.0638 81.0314C30.3028 77.6739 28.7721 74.5467 26.8629 71.4525C24.684 67.924 22.2527 64.5577 19.5882 61.3799L19.9503 61.0836C21.1847 63.8322 22.5508 66.5314 23.7523 69.3129C24.9214 72.017 25.8253 74.8281 26.4515 77.7068C26.886 80.399 27.6259 83.0329 28.6569 85.5575C29.8748 88.1251 31.3232 90.4951 32.4753 93.1614C32.6893 93.6222 31.998 94.0337 31.784 93.5728C30.6484 91.0218 29.233 88.6353 28.0315 86.1171C26.9903 83.7399 26.2547 81.2402 25.8425 78.6778C25.3053 75.7485 24.4896 72.8772 23.4066 70.1029C22.2051 67.1404 20.9214 64.2107 19.6047 61.314C19.5059 61.0836 19.7857 60.8038 19.9668 61.0178C24.667 66.6616 28.7243 72.8111 32.0638 79.3526C35.5531 85.9361 38.9435 92.7005 40.4906 100.09C41.3589 104.207 41.9745 108.374 42.334 112.566C42.334 112.714 42.1036 112.764 42.0706 112.566L42.1365 112.615Z" fill="#51636C"/>
<path d="M106.535 44.7761C104.839 50.0215 102.424 55.0064 99.359 59.5888C96.5532 63.5647 93.3732 67.2628 89.8624 70.6325C82.884 77.578 75.0497 83.6677 68.1042 90.5803C66.0633 92.5882 64.0883 94.6785 62.212 96.8345C60.3357 98.9906 58.7228 101.41 56.8301 103.583C56.4351 104.027 55.7603 103.451 56.0236 102.957C57.2472 100.773 58.716 98.7352 60.4016 96.8839C62.0474 94.9912 63.6933 93.1478 65.3391 91.3867C68.8448 87.8317 72.5809 84.5071 76.3335 81.2318C83.5588 74.9282 91.1462 68.7891 97.0055 61.1359C100.869 56.1649 103.98 50.6526 106.239 44.7761C106.239 44.595 106.601 44.6609 106.535 44.8584L106.535 44.7761Z" fill="#51636C"/>
<path d="M106.865 44.7831C106.173 48.5092 105.069 52.1469 103.574 55.6293C102.319 58.7672 100.659 61.7274 98.6359 64.4346C94.4202 69.7041 89.4251 74.2995 83.8232 78.0623C80.3669 80.564 76.7954 82.9999 73.3391 85.4357C72.7631 85.8472 72.2199 84.9091 72.7795 84.4976C83.9384 76.5646 96.447 69.4709 102.257 56.518C103.948 52.6745 105.308 48.6935 106.322 44.6185C106.404 44.3058 106.849 44.4539 106.799 44.7666L106.865 44.7831Z" fill="#51636C"/>
<path d="M106.848 44.6314C104.609 47.3964 101.91 49.8323 99.4744 52.3833C97.0824 54.8764 94.8401 57.5089 92.7593 60.267C88.6611 65.7148 84.6287 71.2284 80.4318 76.5939C78.0822 79.6396 75.5772 82.5621 72.9267 85.3499C72.4823 85.7942 71.8075 85.103 72.2354 84.6586C76.9207 79.6441 81.2854 74.3395 85.3035 68.7761C89.2167 63.2086 93.4423 57.8674 97.9602 52.7783C100.678 49.8186 103.557 47.0109 106.584 44.368C106.619 44.3331 106.667 44.3135 106.716 44.3135C106.766 44.3135 106.813 44.3331 106.848 44.368C106.883 44.4029 106.902 44.4503 106.902 44.4997C106.902 44.5491 106.883 44.5964 106.848 44.6314Z" fill="#51636C"/>
<path d="M106.699 44.7834C103.901 46.956 100.938 48.8981 98.173 51.1035C95.3959 53.3079 92.7931 55.7235 90.3881 58.3288C87.9729 60.9364 85.8278 63.7818 83.9857 66.8215C81.8955 70.2942 80.1509 73.9151 77.9125 77.2891C75.5258 81.0027 72.8745 84.5395 69.9795 87.872C69.6338 88.2341 68.9755 87.7403 69.2718 87.3124C71.5595 84.0207 74.2093 80.9265 76.5629 77.6018C78.9165 74.2772 80.694 70.6728 82.7349 67.1671C86.402 61.0826 91.1223 55.6991 96.6753 51.2681C99.7073 48.6791 103.02 46.4378 106.55 44.5859C106.666 44.5859 106.814 44.7011 106.699 44.7834Z" fill="#51636C"/>
<path d="M67.035 91.438C68.3916 90.2529 69.8207 89.1535 71.3142 88.1463C72.7893 87.2425 74.3562 86.4977 75.9885 85.9244C79.4119 84.6407 82.9998 83.9329 86.5055 82.9619C93.2629 81.2051 99.7476 78.5304 105.778 75.0124C109.137 72.9984 112.237 70.5832 115.012 67.82L115.555 68.5277C109.301 72.4284 101.796 72.8892 94.8006 74.8972C87.4215 77.1754 80.4619 80.6385 74.1945 85.1509C73.7172 85.48 73.2728 84.7065 73.7336 84.3773C79.8905 79.9575 86.7058 76.536 93.9283 74.2388C100.989 72.0992 108.741 71.7371 115.111 67.7377C115.157 67.702 115.21 67.6759 115.267 67.6607C115.323 67.6456 115.382 67.6417 115.44 67.6493C115.498 67.657 115.554 67.676 115.605 67.7052C115.656 67.7345 115.7 67.7735 115.736 67.82C115.772 67.8665 115.798 67.9195 115.813 67.9761C115.828 68.0327 115.832 68.0917 115.824 68.1497C115.809 68.267 115.747 68.3734 115.654 68.4454C110.771 73.157 105.034 76.8941 98.7507 79.4562C95.6701 80.7409 92.5154 81.8401 89.3035 82.7479C85.8636 83.7683 82.3415 84.509 78.9016 85.513C76.893 86.0612 74.9544 86.84 73.1247 87.8336C71.1418 89.0137 69.2493 90.3395 67.4629 91.8001C67.1667 92.0306 66.7223 91.6191 67.035 91.3722L67.035 91.438Z" fill="#51636C"/>
<path d="M14.7467 27.957C17.4137 31.6007 20.3693 35.0242 23.5849 38.1943C26.745 41.2885 30.1684 44.0371 33.5918 46.8679C40.1375 52.3442 45.9218 58.6709 50.791 65.6801C53.7464 69.8426 56.4399 74.1851 58.8557 78.6824C58.8914 78.7703 58.8943 78.8683 58.8638 78.9582C58.8332 79.0482 58.7713 79.1241 58.6893 79.1721C58.6073 79.2201 58.5108 79.2369 58.4174 79.2195C58.324 79.2021 58.2401 79.1516 58.1809 79.0774C53.7886 71.3706 48.7156 64.0723 43.0225 57.2698C37.1962 50.6863 30.2836 45.255 23.9799 39.1653C20.4867 35.7935 17.3435 32.0769 14.5986 28.0722C14.5986 28.0722 14.5986 27.9077 14.7467 28.0722L14.7467 27.957Z" fill="#51636C"/>
<path d="M14.926 27.6141C17.0162 29.803 18.9913 32.0743 21.2955 34.0823C23.5997 36.0902 26.0191 37.9336 28.422 39.8428C33.3279 43.5012 37.7519 47.7648 41.5889 52.5323C43.7775 55.3786 45.7002 58.4197 47.3329 61.6175C47.5963 62.1112 46.8556 62.5556 46.5923 62.0619C43.6871 56.3699 39.8673 51.1935 35.2852 46.7389C30.9566 42.5255 25.9203 39.1844 21.3284 35.2179C18.6605 33.1831 16.3614 30.7058 14.531 27.8939C14.5077 27.8371 14.5037 27.7742 14.5196 27.7149C14.5356 27.6556 14.5706 27.6033 14.6192 27.5658C14.6679 27.5284 14.7275 27.508 14.7889 27.5078C14.8502 27.5076 14.91 27.5276 14.9589 27.5647L14.926 27.6141Z" fill="#51636C"/>
<path d="M15.2246 28.6523C17.5781 32.0263 19.9152 35.4333 22.3511 38.7414C24.602 42.0133 27.2625 44.9835 30.2677 47.5797C33.2631 50.0485 36.5878 52.0893 39.5997 54.5252C41.081 55.7102 42.5129 56.9446 43.8954 58.2284C45.4257 59.5474 46.8509 60.9837 48.1582 62.5241C48.2337 62.6131 48.2726 62.7274 48.2671 62.844C48.2615 62.9606 48.212 63.0707 48.1284 63.1522C48.0449 63.2336 47.9335 63.2804 47.8168 63.2829C47.7002 63.2855 47.5869 63.2437 47.4998 63.166C45.9856 61.8493 44.636 60.3351 43.1547 58.969C41.6735 57.603 40.1264 56.3027 38.5463 55.0519C35.5509 52.6654 32.2592 50.4929 29.3295 48.0735C26.4813 45.566 23.9697 42.7004 21.8574 39.5479C19.405 36.0916 17.0679 32.5695 14.9448 28.8992C14.846 28.7182 15.1093 28.5865 15.2246 28.7346L15.2246 28.6523Z" fill="#51636C"/>
<path d="M15.1266 28.0286C20.6896 32.7522 28.0137 34.612 33.8071 39.0558C39.1034 43.3712 43.267 48.9134 45.9371 55.2017C47.583 58.7897 48.5376 62.8056 50.7595 66.1137C50.957 66.4265 50.5126 66.7556 50.2492 66.5088C47.8298 64.0729 47.1057 60.238 45.789 57.1767C44.4365 54.0031 42.7831 50.9664 40.8514 48.1081C38.9205 45.2189 36.5999 42.6103 33.9553 40.3561C31.1085 38.0929 28.0103 36.1655 24.722 34.612C21.1251 32.9694 17.796 30.7944 14.8468 28.1603C14.8468 28.1603 14.8469 27.9463 14.995 28.0286L15.1266 28.0286Z" fill="#51636C"/>
<path d="M45.427 55.0873C44.028 52.0354 43.1544 48.769 42.843 45.4262C42.5138 41.9863 42.5632 38.53 42.1353 35.0902C41.7616 31.6217 40.5776 28.2897 38.679 25.3632C36.7704 22.6575 34.6221 20.1291 32.2601 17.8087L32.8362 17.3643C34.8149 21.7878 36.2251 26.4443 37.0331 31.2224C37.8231 35.9954 38.1029 40.7355 39.7981 45.3274C39.9627 45.7553 39.255 46.0516 39.0575 45.6401C37.0331 41.4267 37.0166 36.5056 36.3583 31.9795C35.6632 27.0607 34.2838 22.2632 32.2601 17.7264C32.0955 17.3807 32.5234 16.9693 32.8362 17.282C35.1939 19.5565 37.3524 22.0288 39.2879 24.6719C41.1548 27.3755 42.3921 30.463 42.9088 33.7077C43.4355 37.0981 43.4026 40.538 43.6165 43.9613C43.8344 47.7136 44.5654 51.4183 45.7891 54.9721C45.7891 55.1367 45.5751 55.2519 45.5093 55.0873L45.427 55.0873Z" fill="#51636C"/>
<path d="M67.5098 1.10014C66.6375 6.44918 64.218 11.5184 62.5722 16.6864C61.6834 19.5667 61.2061 22.5621 60.4326 25.4753C59.2084 29.339 58.4839 33.3436 58.2765 37.3913C58.0287 42.1164 57.4179 46.8155 56.4496 51.4469C56.4496 51.9242 55.6431 51.7103 55.709 51.233C56.6389 46.8957 57.2386 42.4941 57.503 38.0661C57.5835 34.2342 58.1814 30.4308 59.2805 26.7591C60.1199 23.6648 60.6795 20.4883 61.5682 17.4106C62.3912 14.6126 63.3951 11.8805 64.3497 9.1813C65.3043 6.48209 66.4235 3.74997 67.1641 0.952012C67.1641 0.770967 67.4604 0.85326 67.4275 1.0343L67.5098 1.10014Z" fill="#51636C"/>
<path d="M67.6152 0.886924C64.702 5.7422 61.7066 10.5481 59.1719 15.6996C57.8184 18.3331 56.7163 21.0884 55.8802 23.9289C54.8871 28.0597 54.4662 32.3073 54.6294 36.5527C54.5884 38.9155 54.6873 41.2787 54.9256 43.6298C55.2219 46.1974 55.8473 48.6497 56.374 51.1679C56.398 51.2574 56.3855 51.3527 56.3392 51.433C56.2929 51.5132 56.2166 51.5718 56.1271 51.5958C56.0376 51.6198 55.9423 51.6073 55.862 51.561C55.7818 51.5147 55.7232 51.4384 55.6992 51.3489C54.4938 47.1803 53.8626 42.8668 53.8229 38.5277C53.6046 34.2536 53.8752 29.9685 54.6294 25.7558C56.2752 19.5678 58.8798 13.6756 62.3484 8.29328C63.8288 5.63933 65.5184 3.10766 67.4012 0.722338C67.5 0.607128 67.6975 0.722338 67.6152 0.886924Z" fill="#51636C"/>
<path d="M67.5937 1.44465C67.2674 3.52341 67.1626 5.63094 67.281 7.73183C67.281 9.18018 67.1823 10.645 67.0506 12.1098C66.7544 15.4015 66.2771 18.6932 65.701 21.985C64.6136 28.5173 62.9277 34.9357 60.6647 41.1592C59.8911 43.233 59.134 45.3232 58.4921 47.4464C57.8503 49.5695 57.4059 51.7091 56.8463 53.7994C56.8245 53.8845 56.7697 53.9575 56.6941 54.0022C56.6185 54.047 56.5282 54.0598 56.4431 54.038C56.3579 54.0162 56.285 53.9615 56.2402 53.8858C56.1955 53.8102 56.1826 53.7199 56.2044 53.6348C57.6692 46.5741 60.6976 40.0235 62.5574 33.0945C64.3646 26.3978 65.636 19.5679 66.3594 12.6694C66.5239 11.0235 66.6227 9.45998 66.6721 7.84704C66.6159 5.67084 66.8427 3.49657 67.3469 1.37882C67.3562 1.35362 67.3731 1.33189 67.3951 1.31654C67.4172 1.30119 67.4434 1.29297 67.4703 1.29297C67.4972 1.29297 67.5234 1.30119 67.5455 1.31654C67.5676 1.33189 67.5844 1.35362 67.5937 1.37882L67.5937 1.44465Z" fill="#51636C"/>
<path d="M66.4258 5.71191C66.2777 9.84302 64.7799 13.8424 64.0064 17.8748C63.4139 21.1665 63.0189 24.5734 62.4428 27.8981C61.8794 31.6707 61.0321 35.3954 59.9082 39.0405C59.2663 40.9826 58.4763 42.8754 57.785 44.801C57.113 46.7844 56.5633 48.8071 56.1392 50.8578C56.1162 50.9269 56.0697 50.9858 56.0079 51.0243C55.9461 51.0629 55.8728 51.0786 55.8006 51.0689C55.7284 51.0591 55.6619 51.0245 55.6125 50.9709C55.5632 50.9173 55.5341 50.8482 55.5302 50.7755C55.5302 47.3521 57.1761 43.9123 58.3775 40.7522C59.6453 37.1875 60.6035 33.5201 61.2413 29.7908C61.9326 26.0547 62.5745 22.2857 63.1341 18.5331C63.4969 16.5391 63.9694 14.5665 64.5495 12.6245C65.296 10.3627 65.8898 8.05328 66.327 5.71191L66.4258 5.71191Z" fill="#51636C"/>
<path d="M57.6272 49.3917C58.8131 46.2597 60.6025 43.3909 62.894 40.9485C65.2497 38.1593 67.7725 35.5155 70.4484 33.0319C73.2472 30.4817 75.8856 27.7608 78.3486 24.8849C80.6124 21.8067 82.2865 18.3357 83.2861 14.6477L83.9609 14.9275C82.5185 17.2974 80.8244 19.5047 78.9082 21.5109C76.8127 23.5131 74.5434 25.3252 72.1272 26.9258C67.3166 30.2626 63.5229 34.8652 61.1658 40.2243C60.9518 40.7181 60.1454 40.5041 60.3593 40.0104C62.5069 35.0073 65.908 30.6424 70.2345 27.3373C72.7526 25.4116 75.4519 23.7493 77.789 21.5932C79.9915 19.5652 81.8482 17.1914 83.2861 14.5654C83.4836 14.1869 84.0432 14.4502 83.9445 14.8452C83.1642 18.3219 81.7165 21.6142 79.6817 24.5393C77.3625 27.4484 74.8143 30.1672 72.0614 32.6698C69.3622 35.2867 66.6136 37.8543 64.1284 40.6687C62.8875 42.0415 61.7436 43.4988 60.705 45.0302C59.7339 46.4786 58.9604 48.0586 57.9893 49.5234C57.8741 49.6715 57.6108 49.5234 57.6601 49.3917L57.6272 49.3917Z" fill="#51636C"/>
<path d="M71.5982 85.0245C71.5789 81.4335 71.832 77.8462 72.3553 74.2935C72.7605 70.853 73.5104 67.462 74.5937 64.1715C75.7129 61.0443 77.6221 58.3945 79.021 55.4155C80.314 52.1452 81.1449 48.7108 81.4898 45.2112C81.4898 44.9478 81.9836 44.9478 82.033 45.2112C83.3467 51.7531 82.7759 58.5336 80.3871 64.764C79.8111 66.2782 79.1033 67.7265 78.4285 69.2078C77.7295 70.9382 77.2111 72.7363 76.8814 74.5733C76.0739 77.8676 74.7697 81.0199 73.0137 83.9217C72.8162 84.2674 72.3553 83.9217 72.5034 83.6255C74.0821 80.5499 75.3502 77.3245 76.2889 73.9972C76.5376 72.4523 76.9401 70.936 77.4904 69.4711C78.1323 67.924 78.9223 66.4263 79.5477 64.8627C82.2017 58.7086 82.8802 51.8825 81.4898 45.3264L82.0494 45.2441C81.9105 48.6104 81.2153 51.9306 79.9921 55.0699C78.6919 58.1147 76.6016 60.7316 75.4002 63.8258C72.7997 70.508 72.4047 77.9473 71.9439 85.0245C71.9311 85.0692 71.9041 85.1085 71.867 85.1365C71.8299 85.1645 71.7846 85.1797 71.7381 85.1797C71.6916 85.1797 71.6464 85.1645 71.6093 85.1365C71.5722 85.1085 71.5452 85.0692 71.5324 85.0245L71.5982 85.0245Z" fill="#51636C"/>
<path d="M13.1016 188.431C12.9199 173.981 8.72598 159.867 0.988067 147.663L1.67932 147.251C3.11122 149.687 2.97955 152.6 3.32518 155.316C3.68592 158.656 4.33013 161.96 5.25083 165.191C6.89669 170.869 9.56298 176.103 11.4228 181.65C12.5074 184.459 13.0653 187.444 13.0687 190.455C13.0687 190.568 13.0236 190.677 12.9433 190.758C12.8631 190.838 12.7542 190.883 12.6407 190.883C12.5272 190.883 12.4184 190.838 12.3381 190.758C12.2579 190.677 12.2128 190.568 12.2128 190.455C11.9495 183.444 8.54255 177.091 6.10668 170.705C4.67173 166.937 3.62395 163.032 2.97955 159.052C2.66684 157.126 2.45288 155.201 2.30476 153.259C2.32586 151.32 1.89179 149.403 1.03744 147.663C1.01042 147.617 0.992607 147.567 0.985016 147.515C0.977424 147.462 0.980212 147.409 0.993203 147.358C1.00619 147.307 1.02914 147.259 1.06073 147.216C1.09233 147.174 1.13195 147.138 1.17734 147.111C1.22273 147.084 1.273 147.066 1.32527 147.059C1.37754 147.051 1.43079 147.054 1.48199 147.067C1.53319 147.08 1.58133 147.103 1.62366 147.135C1.66599 147.166 1.70168 147.206 1.7287 147.251C5.55353 153.317 8.52739 159.88 10.567 166.755C12.764 173.765 13.8144 181.085 13.6776 188.431C13.6615 188.499 13.6227 188.56 13.5674 188.604C13.5122 188.648 13.4437 188.672 13.3731 188.672C13.3026 188.672 13.2341 188.648 13.1788 188.604C13.1236 188.56 13.0847 188.499 13.0687 188.431L13.1016 188.431Z" fill="#51636C"/>
</svg>
