<svg width="216" height="398" viewBox="0 0 216 398" fill="none" xmlns="http://www.w3.org/2000/svg">
<path d="M90.502 396.734C95.5777 387.676 99.5855 378.059 102.445 368.077C105.875 357.292 108.529 346.275 110.387 335.11C111.15 330.838 111.623 326.519 111.803 322.182C111.787 315.352 111.386 308.528 110.602 301.744C109.217 285.399 106.693 269.146 106.293 252.74C105.763 221.439 110.98 190.307 121.683 160.889C131.886 133.011 145.791 106.632 163.022 82.4586C179.336 59.3111 198.267 37.2718 209.194 10.8C210.518 7.53722 211.811 4.21288 213.042 0.888512C213.119 0.602776 213.307 0.359551 213.564 0.212365C213.821 0.0651482 214.126 0.0260247 214.412 0.10357C214.697 0.181146 214.94 0.369042 215.088 0.625909C215.235 0.882806 215.274 1.18765 215.196 1.47335C211.196 14.9518 205.121 27.725 197.189 39.3342C189.494 51.4004 180.814 62.7894 172.38 74.3324C154.395 98.1894 139.492 124.22 128.024 151.809C116.119 180.884 109.52 211.857 108.54 243.259C108.626 259.578 109.654 275.878 111.618 292.078C112.788 304.391 114.48 317.165 112.818 329.57C111.31 340.249 108.985 350.797 105.862 361.12C102.935 371.595 99.0935 381.792 94.3804 391.594C93.3954 393.533 92.3488 395.441 91.3023 397.288C91.0252 397.719 90.2865 397.288 90.5943 396.857L90.502 396.734Z" fill="#465760"/>
<path d="M191.523 46.7211C188.968 54.1701 186.29 61.5268 184.412 69.1913C182.532 76.9766 181.215 84.8873 180.472 92.862C179.046 108.706 179.927 124.674 183.089 140.265C184.88 149.075 187.424 157.715 190.692 166.09C191.123 167.168 189.368 167.66 188.937 166.583C177.297 136.449 174.876 103.536 181.981 72.0232C183.806 63.1433 186.636 54.4999 190.415 46.2594C190.482 46.118 190.601 46.0077 190.748 45.9511C190.894 45.8945 191.056 45.8957 191.201 45.9546C191.347 46.0135 191.464 46.1256 191.529 46.268C191.595 46.4104 191.603 46.5725 191.554 46.7211H191.523Z" fill="#465760"/>
<path d="M189.185 165.51C181.952 153.783 175.149 141.378 172.533 127.68C170.222 113.441 171.405 98.8527 175.98 85.1715C178.118 77.5016 181.069 70.0823 184.784 63.0399C184.856 62.9519 184.955 62.8898 185.065 62.8631C185.176 62.8363 185.292 62.8463 185.396 62.8915C185.501 62.9368 185.588 63.0148 185.644 63.1137C185.7 63.2127 185.722 63.3273 185.707 63.44C183.429 69.9964 180.413 76.245 178.258 82.8322C176 89.5261 174.391 96.4222 173.456 103.425C171.66 117.448 173.714 131.696 179.397 144.641C182.475 151.69 186.077 158.461 189.524 165.295C189.524 165.541 189.309 165.726 189.185 165.51Z" fill="#465760"/>
<path d="M189.063 165.478C185.423 153.989 183.717 141.975 184.015 129.926C184.015 123.277 184.662 116.66 184.385 110.042C184.108 103.424 183.307 96.9903 182.722 90.4647C181.907 83.1256 181.783 75.7261 182.353 68.3639C182.353 67.3481 184.046 67.3481 183.954 68.3639C182.753 81.1996 185.062 93.943 185.924 106.717C186.293 113.186 186.293 119.671 185.924 126.14C185.646 132.494 185.801 138.86 186.385 145.194C187.121 151.96 188.23 158.681 189.71 165.325C189.71 165.398 189.68 165.468 189.629 165.52C189.577 165.572 189.506 165.602 189.433 165.602C189.359 165.602 189.289 165.572 189.237 165.52C189.185 165.468 189.156 165.398 189.156 165.325L189.063 165.478Z" fill="#465760"/>
<path d="M189.646 166.368C188.497 162.15 188.142 157.756 188.6 153.409C188.6 147.253 189.061 141.096 189.338 134.694C189.615 128.291 189.862 121.889 189.677 115.486C189.354 108.59 188.396 101.738 186.814 95.0169C185.798 90.2766 184.721 85.5055 183.952 80.7037C183.613 78.4874 183.305 76.2712 183.121 74.0242C182.72 71.5883 182.72 69.1034 183.121 66.6674C183.121 66.5532 183.166 66.4436 183.247 66.3627C183.328 66.2819 183.437 66.2365 183.551 66.2365C183.666 66.2365 183.775 66.2819 183.856 66.3627C183.937 66.4436 183.982 66.5532 183.982 66.6674C184.249 68.6265 184.393 70.6004 184.413 72.5775C184.546 74.9287 184.803 77.2713 185.183 79.5956C185.86 84.0588 186.814 88.4605 187.768 92.8622C189.347 99.518 190.376 106.292 190.847 113.116C191.431 125.675 190.323 138.264 189.862 150.823C189.677 155.994 189.862 161.166 189.862 166.214C189.862 166.263 189.842 166.31 189.807 166.344C189.773 166.379 189.726 166.398 189.677 166.398C189.628 166.398 189.581 166.379 189.546 166.344C189.512 166.31 189.492 166.263 189.492 166.214L189.646 166.368Z" fill="#465760"/>
<path d="M180.044 76.7336C178.649 79.048 177.612 81.5592 176.965 84.1827C176.018 86.7547 174.928 89.2724 173.703 91.7241C170.817 96.8852 168.277 102.232 166.1 107.73C164.29 113.825 163.256 120.123 163.022 126.476C162.529 133.063 162.078 139.671 161.667 146.299C160.734 153.839 160.662 161.46 161.452 169.016L159.913 169.231C160.025 166.814 160.745 164.463 162.006 162.398C163.545 159.042 164.807 155.595 166.038 152.147C169.336 143.938 171.41 135.288 172.194 126.476C172.194 125.491 173.795 125.491 173.733 126.476C172.987 134.924 171.017 143.219 167.885 151.101C166.685 154.487 165.546 157.934 164.068 161.197C162.52 163.59 161.589 166.329 161.359 169.169C161.359 170.031 159.974 170.247 159.82 169.385C158.994 162.734 158.932 156.011 159.636 149.346C159.974 142.359 160.498 135.341 161.021 128.354C161.23 121.803 162.127 115.293 163.699 108.931C165.626 103.241 168.111 97.756 171.117 92.5551C172.783 89.5046 174.224 86.3359 175.426 83.0745C175.885 80.3609 177.24 77.8792 179.274 76.0257C179.705 75.7178 180.321 76.3027 180.013 76.7336H180.044Z" fill="#465760"/>
<path d="M48.822 97.0199C67.5061 85.5078 88.8375 79.8133 110.015 74.3035C130.269 69.0091 150.738 63.7147 169.484 54.1418C179.85 49.0091 189.303 42.2082 197.464 34.0109C198.634 32.8105 200.542 34.6573 199.28 35.8578C169.022 67.0083 123.528 71.1638 84.0972 83.1992C71.9579 86.7517 60.203 91.5052 49.0067 97.3893C48.961 97.3974 48.9139 97.3904 48.8724 97.3696C48.831 97.3487 48.7974 97.315 48.7767 97.2735C48.7559 97.232 48.7491 97.1849 48.7573 97.1392C48.7654 97.0935 48.7881 97.0517 48.822 97.0199Z" fill="#465760"/>
<path d="M48.8188 97.0164C63.2552 92.2761 78.6766 91.7836 93.3284 87.782C107.79 83.8533 121.824 78.4913 135.222 71.7758C142.763 68.1129 150.15 64.1729 157.476 60.079C157.661 60.0067 157.865 60.0025 158.052 60.0672C158.239 60.1319 158.397 60.2612 158.497 60.4319C158.597 60.6026 158.633 60.8035 158.598 60.9984C158.564 61.1932 158.46 61.3693 158.307 61.4949C145.378 68.8533 132.015 75.4218 118.292 81.1641C104.377 86.8693 89.8255 90.8791 74.9521 93.1072C66.241 94.4308 57.5299 95.5697 48.8804 97.3242C48.8475 97.3099 48.8194 97.2862 48.7997 97.2561C48.78 97.226 48.7695 97.1909 48.7695 97.1549C48.7695 97.119 48.78 97.0838 48.7997 97.0537C48.8194 97.0237 48.8475 97 48.8804 96.9856L48.8188 97.0164Z" fill="#465760"/>
<path d="M47.7775 97.6032C52.2682 92.4159 57.6464 88.0696 63.6606 84.7675C69.577 81.2446 75.8121 78.2868 82.2832 75.9332C96.9884 70.9143 112.26 67.7401 127.747 66.4834C136.675 65.8758 145.51 64.2966 154.096 61.7739C155.142 61.4353 155.604 63.0975 154.557 63.4669C147.455 65.6437 140.138 67.0472 132.734 67.6531C124.884 68.4842 117.066 69.223 109.309 70.7312C94.4923 72.9547 80.1664 77.7022 66.9542 84.7675C60.3466 88.772 54.0216 93.2252 48.0237 98.0957C47.8083 98.0957 47.6236 98.0957 47.7775 97.7571V97.6032Z" fill="#465760"/>
<path d="M48.8195 97.3896C56.915 96.6201 65.1028 96.5893 73.1982 95.9121C81.3339 95.2996 89.4177 94.1272 97.3922 92.4031C105.338 90.6846 113.07 88.0935 120.447 84.677C127.872 81.013 135.068 76.9013 141.994 72.3645L166.927 56.3891C167.85 55.8043 168.712 57.2818 167.789 57.8666L144.918 72.3645C137.866 77.037 130.571 81.3319 123.064 85.2311C108.405 91.9691 92.6252 95.9349 76.5226 96.9279C67.3219 97.8952 58.0675 98.2551 48.8195 98.0052C48.7379 98.0052 48.6596 97.9728 48.6019 97.9151C48.5441 97.8574 48.5117 97.7791 48.5117 97.6974C48.5117 97.6158 48.5441 97.5375 48.6019 97.4798C48.6596 97.4221 48.7379 97.3896 48.8195 97.3896Z" fill="#465760"/>
<path d="M165.793 57.9287C155.597 69.0515 145.98 80.692 136.982 92.8038C132.795 98.3881 128.262 103.703 123.407 108.718C118.359 113.766 112.726 118.167 107.339 122.815C101.19 128.118 95.5148 133.948 90.379 140.238C89.7634 141.007 88.4398 140.022 89.0246 139.191C90.804 136.084 92.0916 132.719 92.8415 129.218C93.7916 126.171 94.9645 123.197 96.3505 120.322C99.2883 114.37 102.97 108.816 107.309 103.793C117.023 93.1982 127.907 83.7393 139.752 75.5971C146.893 70.3028 154.034 65.0392 160.683 59.16C161.668 58.2981 163.084 59.714 162.099 60.5759C140.737 79.4448 112.849 93.0808 99.0285 119.06C97.1967 122.471 95.6919 126.047 94.5345 129.741C93.7123 133.384 92.3424 136.882 90.4713 140.114L89.0862 139.037C93.641 133.477 98.611 128.27 103.953 123.462C109.248 118.722 114.912 114.227 120.114 109.487C130.764 99.5141 139.013 87.0785 148.155 75.6279C153.027 68.8726 158.632 62.6785 164.869 57.1592C165.362 56.759 166.008 57.3747 165.577 57.8364L165.793 57.9287Z" fill="#465760"/>
<path d="M149.846 106.04C145.413 114.689 137.102 121.184 129.253 126.633C120.326 132.789 110.784 138.299 101.55 143.808C92.3156 149.318 82.3425 154.89 72.985 160.83C63.4985 166.536 54.555 173.099 46.267 180.438C37.0326 188.841 31.3381 199.522 25.5512 210.296L23.7659 209.249C32.6617 195.244 46.4824 185.979 60.3032 177.329C76.076 167.815 91.249 157.34 105.736 145.963C113.679 139.476 121.243 132.539 128.391 125.186C129.253 124.293 130.577 125.617 129.745 126.54C117.303 139.726 103.403 151.457 88.314 161.508C80.9881 166.617 73.5083 171.481 65.9669 176.221C58.4255 180.961 51.6845 184.963 44.9742 189.919C37.1799 195.318 30.5706 202.252 25.5512 210.296C25.3937 210.49 25.1716 210.622 24.9252 210.667C24.6789 210.712 24.4247 210.667 24.2087 210.54C23.9927 210.413 23.8293 210.213 23.748 209.977C23.6668 209.74 23.6731 209.482 23.7659 209.249C28.3301 199.618 34.1807 190.65 41.1573 182.593C48.842 174.946 57.3839 168.211 66.6133 162.523C85.082 150.211 104.844 140.238 123.466 128.295C128.36 125.253 133.039 121.88 137.472 118.198C141.795 114.381 145.761 110.177 149.322 105.64C149.569 105.301 150.03 105.64 149.846 106.04Z" fill="#465760"/>
<path d="M24.4442 210.542C24.2907 205.782 25.0968 201.04 26.8144 196.598C28.2683 192.057 30.1976 187.682 32.5704 183.547C37.152 175.577 43.2731 168.598 50.5774 163.016C65.1677 151.811 83.1439 146.302 99.9196 139.499C109.45 135.914 118.58 131.344 127.161 125.863C128.115 125.216 128.977 126.755 128.054 127.371C98.7192 147.225 57.2569 149.195 36.3565 180.776C33.3794 185.315 30.9318 190.179 29.0614 195.274C27.2145 200.261 26.5373 205.555 24.8136 210.665C24.8136 210.714 24.7941 210.761 24.7595 210.796C24.7249 210.83 24.6779 210.85 24.6289 210.85C24.5799 210.85 24.5329 210.83 24.4983 210.796C24.4637 210.761 24.4442 210.714 24.4442 210.665V210.542Z" fill="#465760"/>
<path d="M24.8158 210.85C25.9167 207.853 28.118 205.387 30.972 203.955C34.635 201.647 38.4518 199.492 42.2687 197.43C49.964 193.182 57.844 189.242 65.3546 184.655C79.6378 175.624 92.6326 164.7 103.985 152.181C110.387 145.317 116.544 138.145 122.7 130.912C123.377 130.111 124.516 131.25 123.839 132.05C113.451 144.888 102.134 156.946 89.9795 168.126C84.0348 173.483 77.7079 178.401 71.0491 182.839C63.8463 187.61 56.1818 191.674 48.5788 195.706C44.2695 198.014 39.9601 200.292 35.7431 202.724C32.0186 204.879 27.4014 207.064 25.493 211.158C25.3083 211.558 24.6619 211.158 24.785 210.85H24.8158Z" fill="#465760"/>
<path d="M84.7431 171.787C79.6878 180.13 77.1046 189.737 77.294 199.49C77.4787 208.355 79.2948 217.066 80.3721 225.839H79.2948C80.4575 218.331 82.2282 210.929 84.5892 203.707C86.9593 196.874 89.7604 190.194 92.5307 183.515C97.3467 170.884 102.907 158.55 109.183 146.577C109.302 146.377 109.495 146.233 109.72 146.175C109.945 146.117 110.184 146.151 110.384 146.27C110.584 146.388 110.729 146.581 110.786 146.806C110.844 147.031 110.81 147.27 110.692 147.47C104.372 159.444 98.7605 171.777 93.8851 184.408C90.9609 191.21 88.129 197.982 85.7588 204.723C83.4043 211.679 81.5628 218.798 80.249 226.024C80.249 226.67 79.2025 226.455 79.1717 226.024C78.279 216.789 76.0936 207.77 75.9397 198.505C75.7129 188.891 78.727 179.481 84.4968 171.787H84.7123H84.7431Z" fill="#465760"/>
<path d="M212.735 266.38C196.944 251.605 178.599 239.877 163.485 224.425C150.869 212.134 140.779 197.495 133.781 181.331C129.797 171.486 127.247 161.12 126.209 150.55C126.209 149.38 127.902 149.411 128.025 150.55C130.293 168.709 136.81 186.078 147.048 201.247C157.948 216.648 171.058 230.36 185.955 241.939C195.597 249.34 204.844 257.241 213.658 265.61C214.151 266.103 213.381 266.841 212.889 266.38H212.735Z" fill="#465760"/>
<path d="M211.102 264.565C196.908 258.567 183.625 250.609 171.64 240.925C160.591 231.445 151.567 219.835 145.107 206.789C140.921 198.355 137.381 189.613 133.656 180.994C133.225 180.071 134.611 179.239 135.011 180.194C141.167 194.415 146.892 209.066 156.127 221.687C165.039 233.61 176.183 243.687 188.939 251.36C196.265 255.854 203.93 259.825 211.379 264.072C211.717 264.257 211.379 264.719 211.102 264.565Z" fill="#465760"/>
<path d="M212.978 266.068C205.036 253.91 194.293 244.152 183.335 234.918C171.93 225.353 161.145 215.072 151.046 204.137C148.378 201.182 145.793 198.165 143.289 195.087C140.47 191.861 137.819 188.491 135.348 184.991C134.824 184.221 136.025 183.267 136.64 183.975C139.226 186.868 141.411 190.131 143.843 193.209C146.275 196.287 148.306 198.75 150.646 201.428C155.909 207.584 161.573 213.156 167.329 218.727C172.47 223.683 177.61 228.546 182.966 233.225C188.322 237.904 193.37 242.459 198.357 247.169C204.123 252.78 209.169 259.088 213.378 265.945C213.378 265.945 213.378 266.253 213.101 265.945L212.978 266.068Z" fill="#465760"/>
<path d="M212.729 266.222C209.677 259.675 205.775 253.558 201.124 248.03C197.338 243.567 193.152 239.412 189.15 235.133C183.841 229.264 178.221 223.685 172.313 218.419C166.773 213.648 160.678 209.554 155.106 204.814C152.028 202.074 148.766 199.242 145.657 196.38C142.714 193.847 140.004 191.055 137.561 188.038C137.346 187.73 137.807 187.268 138.115 187.515C140.744 189.562 143.242 191.773 145.595 194.133C148.427 196.78 151.259 199.458 154.152 202.012C159.785 206.999 165.911 211.247 171.636 216.172C177.585 221.382 183.227 226.932 188.535 232.794C192.629 237.195 196.907 241.474 200.847 246.03C206.014 251.924 210.277 258.553 213.498 265.699C213.714 266.222 212.975 266.684 212.729 266.16V266.222Z" fill="#465760"/>
<path d="M138.088 188.096C140.581 201.609 142.397 215.245 147.692 228.112C150.401 234.607 153.633 240.886 156.926 247.166C160.22 253.445 163.082 259.293 166.653 265.08C170.728 271.679 175.275 277.975 180.258 283.918L179.581 284.472C177.273 279.332 174.718 274.284 172.471 269.082C170.284 264.025 168.594 258.767 167.423 253.383C166.61 248.348 165.226 243.422 163.298 238.701C161.02 233.899 158.311 229.466 156.157 224.48C155.757 223.618 157.049 222.848 157.449 223.71C159.573 228.481 162.221 232.945 164.468 237.654C166.415 242.1 167.791 246.775 168.561 251.567C169.566 257.046 171.092 262.416 173.117 267.604C175.364 273.145 177.765 278.624 180.228 284.041C180.412 284.472 179.889 284.996 179.55 284.595C170.76 274.04 163.172 262.539 156.926 250.305C150.401 237.993 144.06 225.342 141.166 211.521C139.542 203.821 138.391 196.029 137.719 188.189C137.719 187.912 138.15 187.819 138.211 188.189L138.088 188.096Z" fill="#465760"/>
<path d="M17.6439 314.952C20.816 305.142 25.3325 295.819 31.0645 287.249C36.3119 279.813 42.2593 272.897 48.8252 266.595C61.8764 253.605 76.5282 242.216 89.5179 229.288C93.3348 225.533 97.0285 221.623 100.538 217.591C104.047 213.559 107.063 209.034 110.603 204.971C111.342 204.14 112.604 205.217 112.111 206.14C109.823 210.226 107.076 214.036 103.923 217.499C100.845 221.039 97.7672 224.486 94.6891 227.78C88.1327 234.428 81.1454 240.646 74.1273 246.772C60.6144 258.561 46.4243 270.042 35.4662 284.355C28.2407 293.652 22.4224 303.961 18.1979 314.952C18.1979 315.29 17.5207 315.167 17.6439 314.798V314.952Z" fill="#465760"/>
<path d="M17.0273 314.948C18.3221 307.98 20.3869 301.176 23.1836 294.664C25.5303 288.795 28.6348 283.259 32.4179 278.196C40.3023 268.341 49.6442 259.746 60.121 252.709C66.585 248.03 73.2645 243.475 79.7286 238.919C80.8059 238.149 81.8217 239.904 80.7751 240.673C59.9055 255.51 36.5118 268.777 25.6461 293.001C22.4828 300.19 19.9392 307.635 18.0431 315.256C17.8892 315.841 17.0581 315.564 17.1505 314.979L17.0273 314.948Z" fill="#465760"/>
<path d="M17.0551 315.228C21.2414 310.057 26.2895 305.501 30.8451 300.73C35.3187 296.067 39.5122 291.144 43.4038 285.986C51.0683 275.797 58.6097 265.485 66.4589 255.451C70.8531 249.755 75.5381 244.289 80.4951 239.075C81.3262 238.244 82.5882 239.537 81.7879 240.368C73.0254 249.746 64.8625 259.667 57.3477 270.072C50.0292 280.484 42.1263 290.473 33.677 299.991C28.5935 305.526 23.2089 310.777 17.5476 315.72C17.4823 315.786 17.3937 315.822 17.3014 315.822C17.209 315.822 17.1204 315.786 17.0551 315.72C16.9898 315.655 16.9531 315.566 16.9531 315.474C16.9531 315.382 16.9898 315.293 17.0551 315.228Z" fill="#465760"/>
<path d="M17.3358 314.953C22.5686 310.89 28.1092 307.258 33.2804 303.133C38.4743 299.01 43.3419 294.492 47.8399 289.62C52.3569 284.743 56.3686 279.422 59.8138 273.737C63.723 267.242 66.9858 260.47 71.172 254.16C75.6358 247.215 80.5941 240.6 86.0085 234.368C86.6549 233.691 87.8862 234.614 87.3321 235.414C83.0535 241.571 78.0978 247.357 73.6961 253.575C69.2944 259.793 65.97 266.534 62.1531 273.091C55.2948 284.47 46.4667 294.538 36.0815 302.825C30.411 307.667 24.2162 311.859 17.6128 315.322C17.3973 315.322 17.1203 315.107 17.3358 314.953Z" fill="#465760"/>
<path d="M91.5176 227.686C88.9805 229.903 86.3076 231.959 83.5145 233.843C80.7557 235.533 77.8253 236.926 74.7726 237.998C68.3701 240.399 61.6598 241.723 55.1035 243.539C42.4656 246.824 30.3378 251.826 19.0587 258.406C12.7782 262.172 6.97947 266.689 1.79047 271.857L0.77469 270.534C12.4715 263.239 26.5077 262.377 39.5897 258.621C53.3904 254.36 66.4062 247.884 78.1278 239.445C79.0204 238.829 79.8515 240.276 78.9896 240.891C67.4749 249.157 54.7289 255.556 41.2211 259.853C28.016 263.854 13.5181 264.531 1.60578 272.011C1.51887 272.078 1.41968 272.127 1.31386 272.155C1.20805 272.184 1.09768 272.191 0.989064 272.176C0.880449 272.162 0.775713 272.127 0.680834 272.072C0.585956 272.017 0.502794 271.944 0.436097 271.857C0.3694 271.77 0.320474 271.671 0.292113 271.565C0.263751 271.46 0.256509 271.349 0.270801 271.241C0.299664 271.021 0.414484 270.822 0.590003 270.688C9.72222 261.876 20.4513 254.887 32.2023 250.095C37.9637 247.692 43.8637 245.637 49.8707 243.939C56.3039 242.03 62.8911 240.645 69.3243 238.768C73.081 237.742 76.7065 236.286 80.1285 234.427C83.837 232.22 87.3763 229.741 90.7173 227.009C91.2713 226.578 92.1024 227.348 91.5176 227.809V227.686Z" fill="#465760"/>
<path d="M189.31 346.406C184.322 339.592 178.794 333.189 172.78 327.26C166.87 321.474 160.468 316.333 154.065 311.039C141.823 300.797 131.005 288.964 121.899 275.856C116.372 268.071 111.334 259.95 106.816 251.539C106.749 251.374 106.744 251.191 106.801 251.023C106.858 250.855 106.974 250.713 107.127 250.623C107.281 250.533 107.461 250.502 107.636 250.534C107.81 250.567 107.967 250.661 108.078 250.8C116.293 265.213 125.78 278.863 136.428 291.585C147.324 303.897 160.252 314.055 172.041 325.444C178.575 331.75 184.453 338.701 189.587 346.191C189.587 346.191 189.587 346.499 189.31 346.191V346.406Z" fill="#465760"/>
<path d="M188.968 347.057C185.059 342.963 181.365 338.715 177.056 334.96C172.747 331.205 168.222 327.757 163.728 324.187C154.553 317.345 146.279 309.371 139.103 300.454C135.01 295.131 131.414 289.444 128.36 283.463C127.868 282.54 129.253 281.709 129.745 282.632C135.179 293.277 142.322 302.958 150.892 311.289C158.987 319.169 168.406 325.418 176.994 332.836C181.984 336.642 186.284 341.275 189.707 346.534C189.751 346.64 189.758 346.758 189.728 346.869C189.698 346.979 189.633 347.077 189.542 347.147C189.451 347.217 189.339 347.255 189.225 347.256C189.11 347.256 188.998 347.219 188.907 347.149L188.968 347.057Z" fill="#465760"/>
<path d="M188.417 345.113C184.015 338.803 179.644 332.431 175.089 326.244C170.879 320.125 165.903 314.57 160.283 309.715C154.681 305.098 148.463 301.281 142.83 296.725C140.06 294.509 137.382 292.2 134.796 289.8C131.934 287.333 129.269 284.647 126.824 281.766C126.683 281.599 126.61 281.385 126.62 281.167C126.63 280.949 126.723 280.743 126.879 280.591C127.036 280.439 127.244 280.351 127.462 280.346C127.68 280.342 127.892 280.42 128.055 280.565C130.887 283.028 133.411 285.86 136.181 288.414C138.952 290.969 141.845 293.401 144.8 295.74C150.402 300.204 156.558 304.267 162.037 308.792C167.364 313.481 172.062 318.84 176.012 324.736C180.598 331.2 184.969 337.787 188.94 344.652C189.125 344.99 188.632 345.236 188.417 344.959V345.113Z" fill="#465760"/>
<path d="M188.6 346.283C178.196 337.449 164.499 333.971 153.664 325.66C143.759 317.589 135.972 307.224 130.978 295.463C127.9 288.753 126.115 281.243 121.959 275.056C121.59 274.471 122.421 273.855 122.913 274.317C127.438 278.872 128.792 286.044 131.255 291.77C133.784 297.705 136.877 303.384 140.489 308.73C144.1 314.133 148.441 319.012 153.387 323.228C158.711 327.461 164.505 331.065 170.655 333.971C177.382 337.043 183.608 341.11 189.124 346.037C189.124 346.037 189.124 346.437 188.847 346.283H188.6Z" fill="#465760"/>
<path d="M131.929 295.682C134.546 301.39 136.179 307.498 136.762 313.75C137.377 320.183 137.285 326.647 138.085 333.081C138.784 339.568 140.999 345.799 144.549 351.272C148.119 356.333 152.137 361.061 156.554 365.401L155.477 366.232C151.776 357.959 149.139 349.25 147.628 340.314C146.15 331.388 145.627 322.523 142.456 313.935C142.148 313.135 143.472 312.581 143.841 313.35C147.628 321.23 147.658 330.434 148.89 338.898C150.19 348.098 152.769 357.07 156.554 365.555C156.862 366.201 156.062 366.971 155.477 366.386C151.067 362.132 147.03 357.508 143.411 352.565C139.919 347.509 137.605 341.735 136.639 335.666C135.654 329.325 135.715 322.892 135.315 316.49C134.908 309.472 133.54 302.544 131.252 295.897C131.252 295.589 131.652 295.374 131.775 295.682H131.929Z" fill="#465760"/>
<path d="M90.625 396.645C92.2564 386.641 96.7812 377.16 99.8593 367.495C101.522 362.108 102.414 356.506 103.861 351.058C106.15 343.832 107.505 336.342 107.893 328.772C108.357 319.935 109.499 311.147 111.31 302.485C111.31 301.592 112.818 301.993 112.695 302.885C110.956 310.997 109.834 319.229 109.34 327.51C109.189 334.677 108.071 341.79 106.016 348.657C104.446 354.444 103.399 360.384 101.737 366.14C100.198 371.373 98.3203 376.483 96.535 381.531C94.7497 386.579 92.6566 391.689 91.2714 396.922C91.2714 397.26 90.7173 397.106 90.7789 396.768L90.625 396.645Z" fill="#465760"/>
<path d="M90.437 397.047C95.8853 387.966 101.487 378.978 106.228 369.343C108.759 364.418 110.82 359.265 112.384 353.953C114.241 346.227 115.029 338.283 114.723 330.344C114.8 325.925 114.615 321.505 114.169 317.108C113.615 312.306 112.446 307.72 111.461 303.01C111.416 302.843 111.439 302.664 111.526 302.514C111.612 302.364 111.755 302.255 111.922 302.21C112.09 302.165 112.268 302.188 112.418 302.275C112.568 302.361 112.678 302.504 112.723 302.671C114.977 310.468 116.157 318.535 116.232 326.65C116.64 334.644 116.134 342.658 114.723 350.536C111.645 362.109 106.774 373.129 100.287 383.195C97.5184 388.158 94.3585 392.893 90.8372 397.354C90.6525 397.57 90.2831 397.354 90.437 397.047Z" fill="#465760"/>
<path d="M90.4688 396C91.0791 392.112 91.2752 388.17 91.0536 384.241C91.0536 381.532 91.2383 378.793 91.4845 376.053C92.0386 369.897 92.9312 363.741 94.0086 357.585C96.0422 345.368 99.1952 333.364 103.428 321.725C104.874 317.846 106.29 313.937 107.491 309.966C108.691 305.995 109.522 301.994 110.569 298.085C110.61 297.925 110.712 297.789 110.853 297.705C110.995 297.622 111.164 297.598 111.323 297.638C111.482 297.679 111.619 297.782 111.702 297.923C111.786 298.064 111.81 298.233 111.769 298.392C109.03 311.598 103.366 323.848 99.8878 336.807C96.5079 349.332 94.1302 362.105 92.7773 375.007C92.4695 378.085 92.2848 381.009 92.1925 384.026C92.2975 388.096 91.8733 392.162 90.9305 396.123C90.913 396.17 90.8815 396.21 90.8402 396.239C90.7989 396.268 90.7499 396.283 90.6996 396.283C90.6493 396.283 90.6003 396.268 90.559 396.239C90.5177 396.21 90.4862 396.17 90.4688 396.123V396Z" fill="#465760"/>
<path d="M92.6523 388.018C92.9294 380.292 95.7305 372.812 97.1772 365.27C98.2853 359.114 99.024 352.742 100.101 346.525C101.155 339.469 102.74 332.503 104.842 325.686C106.042 322.054 107.52 318.514 108.812 314.912C110.069 311.203 111.097 307.42 111.891 303.585C111.934 303.456 112.02 303.345 112.136 303.273C112.252 303.201 112.389 303.172 112.524 303.19C112.659 303.208 112.783 303.273 112.875 303.373C112.968 303.473 113.022 303.603 113.029 303.739C113.029 310.141 109.951 316.574 107.704 322.484C105.333 329.151 103.541 336.01 102.348 342.985C101.056 349.972 99.8551 357.021 98.8086 364.039C98.13 367.768 97.2463 371.457 96.1614 375.089C94.7654 379.32 93.6547 383.639 92.837 388.018H92.6523Z" fill="#465760"/>
<path d="M109.127 306.332C106.909 312.19 103.562 317.555 99.2768 322.123C94.8712 327.34 90.153 332.284 85.1483 336.929C79.914 341.698 74.9796 346.787 70.3733 352.165C66.1394 357.923 63.0085 364.414 61.139 371.311L59.877 370.788C62.5746 366.356 65.7429 362.228 69.3268 358.476C73.2458 354.731 77.4898 351.342 82.0086 348.349C91.0056 342.108 98.1007 333.5 102.509 323.477C102.909 322.554 104.417 322.954 104.017 323.878C100.001 333.234 93.6398 341.398 85.5484 347.579C80.8389 351.18 75.7908 354.289 71.4199 358.322C67.3008 362.114 63.8281 366.554 61.139 371.465C60.7696 372.173 59.723 371.681 59.9077 370.942C61.3671 364.44 64.0746 358.283 67.8801 352.812C72.2175 347.371 76.9833 342.286 82.1317 337.606C87.1798 332.712 92.3203 327.91 96.9683 322.646C99.2889 320.079 101.428 317.353 103.371 314.489C105.187 311.781 106.634 308.826 108.45 306.086C108.665 305.809 109.158 306.086 109.065 306.332H109.127Z" fill="#465760"/>
<path d="M82.9907 239.694C83.0269 246.41 82.5536 253.119 81.5747 259.764C80.8169 266.198 79.4145 272.54 77.3885 278.694C75.2954 284.543 71.7248 289.498 69.1084 295.07C66.6904 301.186 65.1364 307.609 64.4912 314.154C64.4912 314.647 63.5678 314.647 63.4754 314.154C61.0185 301.919 62.086 289.238 66.5535 277.586C67.6309 274.754 68.9545 272.045 70.2165 269.275C71.5238 266.039 72.4935 262.676 73.1099 259.24C74.6201 253.079 77.0592 247.184 80.3435 241.757C80.7129 241.11 81.5747 241.757 81.2977 242.311C78.3452 248.063 75.9736 254.095 74.218 260.318C73.7529 263.207 73.0002 266.043 71.971 268.783C70.7706 271.676 69.2931 274.477 68.1234 277.401C63.1599 288.911 61.8908 301.677 64.4912 313.939L63.4446 314.092C63.7044 307.797 65.0046 301.587 67.2923 295.716C69.724 290.022 73.6332 285.127 75.8802 279.341C80.7437 266.843 81.4824 252.93 82.3443 239.694C82.3682 239.611 82.4186 239.537 82.4881 239.485C82.5575 239.433 82.6421 239.404 82.729 239.404C82.816 239.404 82.9006 239.433 82.97 239.485C83.0394 239.537 83.0899 239.611 83.1138 239.694H82.9907Z" fill="#465760"/>
<path d="M192.385 46.2938C192.724 73.3172 200.568 99.7144 215.04 122.539L213.747 123.308C211.069 118.753 211.315 113.304 210.669 108.226C209.994 101.978 208.789 95.7998 207.067 89.7568C203.989 79.1373 199.003 69.3489 195.524 58.9756C193.496 53.7219 192.452 48.1395 192.446 42.5077C192.446 42.2955 192.53 42.0919 192.681 41.9418C192.831 41.7917 193.034 41.7074 193.246 41.7074C193.459 41.7074 193.662 41.7917 193.812 41.9418C193.962 42.0919 194.047 42.2955 194.047 42.5077C194.539 55.6205 200.911 67.502 205.467 79.4451C208.15 86.4923 210.11 93.7943 211.315 101.238C211.9 104.84 212.3 108.441 212.577 112.073C212.538 115.699 213.349 119.284 214.947 122.539C214.998 122.624 215.031 122.718 215.045 122.815C215.059 122.913 215.054 123.013 215.03 123.109C215.006 123.204 214.963 123.294 214.904 123.373C214.845 123.453 214.77 123.519 214.686 123.57C214.601 123.62 214.507 123.654 214.409 123.668C214.311 123.682 214.212 123.677 214.116 123.653C214.02 123.628 213.93 123.585 213.851 123.526C213.772 123.467 213.705 123.393 213.654 123.308C206.501 111.964 200.939 99.6904 197.125 86.8326C193.016 73.721 191.051 60.0318 191.307 46.2938C191.337 46.1654 191.41 46.0508 191.513 45.9688C191.617 45.8869 191.745 45.8423 191.877 45.8423C192.009 45.8423 192.137 45.8869 192.24 45.9688C192.343 46.0508 192.416 46.1654 192.446 46.2938H192.385Z" fill="#465760"/>
</svg>
