<svg xmlns="http://www.w3.org/2000/svg" width="200" height="155" fill="none"><path fill="url(#a)" d="M64.4 73.4V60.8h8.8v1.7h-6.5V66h5.7v1.7h-5.7v3.9h6.6v1.7l-8.9.1Zm29.5 0V63.2L89.3 68l-4.6-4.8h-.1v10.2h-2.4V60.8h2.7l4.3 4.5 4.3-4.5h2.7v12.6h-2.3Zm16.4-5h-2.1v4.9h-2.4V60.7h4.3c3.1 0 5.1 1 5.1 3.8 0 2.9-2.1 4-4.9 3.9Zm-.2-5.9h-1.9v4.3h1.9c1.3 0 2.8-.4 2.8-2.2-.1-1.7-1.5-2.1-2.8-2.1ZM124 73.4V60.8h2.4v12.6H124Zm19.5 0-3.7-5.2h-1.4v5.2H136V60.8h4.2c2.7 0 5 1 5 3.7-.1 1.8-1.5 3.2-3.2 3.4l4.2 5.5h-2.7Zm-3.2-10.9h-1.8v4.1h1.6c1.9 0 2.9-.7 2.9-2-.1-1.4-1-2.1-2.7-2.1Zm14.5 10.9V60.8h8.8v1.7h-6.5V66h5.7v1.7h-5.7v3.9h6.6v1.7l-8.9.1Z"/><path fill="url(#b)" d="M73.2 80.999c.8 0 1.6 0 2.3.2l1.8.3c.2 0 .4.1.5.1.1 0 .2 0 .4.1 0 0 .1 0 .2.1s.1.2.1.4c0 .4.1.8.2 1.1.1.5.1.9.1 1.4 0 .3-.1.5-.3.5-.2 0-.3-.2-.5-.5-.2-.6-.5-1.1-.9-1.6-.2-.2-.4-.3-.5-.5-.3-.2-.6-.3-.9-.5-.4-.1-.7-.2-1.1-.3-.4-.1-.9-.1-1.4-.1-1 0-1.9.2-2.8.6-.8.4-1.5.9-2.1 1.5-.6.7-1 1.4-1.3 2.2-.3.8-.5 1.7-.5 2.6-.1 1.5.3 2.9 1.1 4.2.6 1 1.5 1.9 2.5 2.4s2.2.8 3.3.8h.4c.2 0 .4 0 .6-.1.2 0 .4-.1.6-.2l.6-.3c.1-.1.1-.1.1-.2s.1-.2.2-.3c.1-.1.1-.2.1-.4v-2.8c0-.1-.1-.2-.1-.4 0-.1-.2-.2-.3-.3-.2-.1-.4-.2-.6-.2-.4-.1-.7-.2-1.1-.1-.2 0-.3 0-.5-.1-.1-.1-.2-.2-.2-.3 0-.1 0-.1.2-.2s.4-.1.5-.1h5c.2 0 .3 0 .5.1.1 0 .2.1.2.2s0 .1-.2.2c-.1.1-.3.1-.4.2-.3 0-.5.2-.7.4-.1.1-.1.2-.2.4v2.9c0 .2 0 .3.1.5.1.1.1.2.2.2.2.1.4.2.4.3v.2c0 .1 0 .1-.1.2s-.2.1-.3.1l-.9.2-1.3.3c-.3.1-.6.1-.9.2l-.9.1c-.3 0-.6 0-.9.1-.3.1-.5 0-.7 0-1.3 0-2.5-.2-3.7-.6-1-.3-2-.9-2.8-1.5l-.9-.9c-.3-.4-.6-.8-.8-1.3-.3-.5-.4-1-.6-1.6-.2-.6-.2-1.3-.2-1.9 0-1.1.2-2.1.6-3.1.5-1.1 1.2-2 2.1-2.8.8-.7 1.8-1.2 2.8-1.5 1.6-.4 2.7-.6 3.9-.6Zm18 0s.1 0 .1.1c.1.2.2.3.2.5.1.4.3.9.5 1.3l.6 1.7 1 2.7 1 2.7.9 2.2.5 1.3c.1.4.3.8.5 1.1.1.2.3.4.5.6.2.1.4.3.5.4.2.1.5.2.7.2.4.1.6.3.6.4 0 .2 0 .1-.1.2-.2.1-.4.1-.6.1h-4.8c-.2 0-.4 0-.6-.1-.1 0-.1-.1-.1-.2s.1-.2.1-.2c.1-.1.3-.2.4-.2.2 0 .4-.1.6-.2l.3-.3v-.7c-.1-.6-.3-1.2-.5-1.8l-.8-2.1-.1-.1c-.2-.1-.5-.1-.7-.1H88c-.1 0-.1 0-.1.1l-.1.1c-.2.4-.3.8-.4 1.2l-.4 1.2c-.1.3-.2.7-.3 1-.1.2-.1.4-.1.7 0 .2.1.3.2.5.3.3.6.4 1 .5.4.1.6.3.6.4 0 .1-.1.2-.2.2H83c-.1 0-.1-.1-.1-.2s0-.1.1-.2.3-.2.4-.2c.3 0 .5-.1.8-.2.2-.1.4-.2.5-.3.2-.1.3-.3.4-.5.2-.3.3-.6.5-.9.1-.2.2-.5.5-1l.7-1.7.9-2.1.9-2.2 1.5-3.6c.1-.2.1-.3.1-.5v-.2l.4-.6.3-.5c0-.2.2-.5.3-.5Zm1.1 8.3v-.2c-.1-.4-.3-.9-.5-1.3l-.6-1.6c-.2-.5-.3-.9-.5-1.4-.1-.2-.2-.5-.3-.7 0-.1-.1-.1-.2 0l-.5 1.2-.6 1.5-.5 1.5c-.1.3-.2.6-.3 1 0 .1 0 .2.1.2h3c.3-.2.6-.2.9-.2Zm15.501-8.3c.6 0 1.2.1 1.7.2.4.1.8.2 1.2.2.1.1.2.1.2.2s.1.2.1.2v.4c0 .2 0 .4.1.6.1.2 0 .4.1.5v.7c0 .1 0 .2-.1.2s-.2-.1-.3-.1c-.1-.1-.2-.2-.3-.4-.1-.4-.3-.8-.6-1.1l-.6-.6c-.2-.2-.5-.3-.8-.4-.3-.1-.6-.1-1-.1-.7 0-1.5.3-2 .8s-.8 1.2-.8 1.9.3 1.4.9 1.9c.3.3.7.6 1 .8l1.5.9 1.3.9c.4.3.8.6 1.1 1 .3.3.6.7.7 1.2.2.4.3.9.3 1.4 0 .6-.2 1.2-.5 1.8-.3.6-.8 1.2-1.4 1.5-.5.3-1 .5-1.5.6-.6.1-1.2.2-1.8.2h-.7l-.9-.1c-.3 0-.6-.1-.9-.2-.2-.1-.5-.1-.7-.2-.2-.1-.3-.2-.4-.4-.1-.1-.1-.2-.2-.4s-.1-.4-.1-.6l-.1-.6c0-.2-.1-.4-.1-.5v-.4c0-.1.1-.2.1-.3.1-.1.1-.2.2-.2s.2.1.4.4c.2.3.3.6.5.9.2.3.4.6.6.8l.8.6c.3.1.6.3.9.3.2.1.5.1.8.1.8 0 1.5-.3 2.1-.8.6-.5.9-1.3.8-2 0-.3 0-.5-.1-.8-.1-.3-.2-.6-.4-.8l-.9-.9-1.6-1.1c-.5-.3-1-.6-1.4-1-.4-.3-.8-.7-1.1-1-.3-.4-.5-.8-.7-1.2-.2-.4-.3-.9-.3-1.4 0-.6.1-1.1.3-1.6.2-.5.6-.9 1-1.3.4-.3.9-.6 1.5-.8.6.1 1.4.1 2.1.1Zm16.6 4.9c0-.5-.1-1-.3-1.5-.2-.5-.5-.9-.8-1.3-.4-.4-.8-.7-1.3-.9-.5-.2-1-.3-1.6-.3-.3 0-.5.1-.7.2-.1.1-.1.2-.1.3-.1.2-.1.4-.1.6v11.6c0 .2.1.4.2.5.1.1.3.3.5.3.2.1.5.2.7.3.4.1.6.3.6.5s-.1.2-.3.2h-5.6c-.4 0-.7-.1-.7-.3 0-.2 0-.1.1-.2s.2-.1.3-.1c.5-.1.9-.3 1.3-.6.2-.3.4-.7.4-1.1v-11.1c0-.1-.1-.3-.1-.4-.1-.1-.3-.2-.4-.3-.2-.1-.5-.2-.8-.2-.5-.1-.8-.2-.8-.4 0-.1.1-.2.1-.2.1-.1.3-.1.4-.1h2.8c.4 0 .7 0 1.1-.1h1c.9 0 1.9.1 2.8.4.6.2 1.2.6 1.8 1 .5.4.9 1 1.1 1.7.2.4.4.9.5 1.3 0 .5 0 .9-.2 1.4-.1.3-.2.7-.4 1-.6.9-1.4 1.6-2.4 2-.5.2-1 .3-1.5.3h-.6c-.2 0-.5 0-.7-.1-.3-.1-.4-.2-.4-.4 0-.1 0-.1.1-.1.1-.1.1-.1.2-.1h.6c.4 0 .7-.1 1-.2a3.592 3.592 0 0 0 1.8-1.9c.4-.6.5-1.1.4-1.7Zm11.6-4.9s.1 0 .1.1c.1.2.2.3.2.5.1.4.3.9.5 1.3l1.6 4.4 1 2.7.9 2.2.5 1.3c.1.4.3.8.5 1.1.1.2.3.4.5.6.2.1.4.3.5.4.2.1.5.2.7.2.4.1.6.3.6.4 0 .1 0 .1-.1.2-.2.1-.4.1-.6.1h-4.8c-.2 0-.4 0-.6-.1-.1 0-.1-.1-.1-.2s.1-.2.1-.2c.1-.1.3-.2.5-.2s.4-.1.6-.2l.3-.3v-.7c-.1-.6-.3-1.2-.5-1.8l-.8-2.1-.1-.1c-.2-.1-.4-.1-.7-.1h-3.9c-.1 0-.1 0-.1.1l-.1.1c-.2.4-.3.8-.5 1.2l-.4 1.2c-.1.3-.2.7-.3 1-.1.2-.1.4-.1.7 0 .2.1.3.2.5.3.3.6.4 1 .5.5.1.6.3.6.4 0 .1-.1.2-.2.2h-5.2c-.1 0-.1-.1-.1-.2s0-.1.1-.2.3-.2.4-.2c.3-.1.5-.2.8-.3.2-.1.4-.2.5-.3.2-.1.3-.3.5-.5.2-.3.3-.6.5-.9.1-.2.2-.5.4-1l.7-1.7.9-2.1 1.7-4.3c.2-.6.5-1.2.6-1.6.1-.2.1-.3.1-.5v-.2l.4-.6.3-.5c.2-.2.3-.3.4-.3Zm1.1 8.3v-.2l-.5-1.3-.6-1.6c-.2-.5-.4-1-.5-1.4l-.3-.7s-.1-.1-.2 0l-.5 1.2-.6 1.5-.5 1.5c-.1.3-.2.6-.3 1 0 .1 0 .2.1.2h3.1c.3-.2.5-.2.8-.2Zm20.7-4.1c0 .6-.2 1.3-.5 1.8-.3.6-.8 1.1-1.5 1.4-.1.1-.2.1-.4.2-.1.1-.3.1-.4.2 0 0 0 .1-.1.2s0 .1 0 .2c.1.3.3.6.5.8l1 1.4 1.2 1.6c.4.6.8 1 1.2 1.4.3.3.6.6 1 .9.4.2.9.4 1.4.5l.3.1c.1.1.1.1.1.2s0 .1-.1.2l-.2.1c-.2.1-.4.1-.6.1h-.8c-.3 0-.6-.1-.9-.1l-.9-.3c-.3-.1-.6-.3-.8-.5l-.6-.6c-.2-.3-.5-.6-.7-1l-.8-1.1-.8-1.2-.8-1.1-.5-.7c-.1-.2-.3-.3-.4-.4 0 0-.1 0-.2-.1s-.3-.1-.4-.1c-.2 0-.4-.1-.5-.1h-.5c-.1 0-.1 0-.2.1s-.1.1-.1.2v4.8c0 .4.1.7.3 1 .3.2.7.4 1.1.5.4.1.6.2.6.4 0 .1-.1.2-.2.2h-5.4c-.2 0-.3 0-.5-.1-.1 0-.2-.1-.2-.3 0-.1 0-.1.1-.2s.3-.1.4-.1c.3-.1.5-.1.7-.2.2-.1.3-.1.5-.2.1-.1.2-.2.3-.4.1-.2.1-.4.1-.5v-8.9l-.1-2.3c0-.2-.1-.4-.1-.5 0-.1-.1-.3-.2-.3-.1-.1-.3-.2-.4-.2-.2 0-.4-.1-.7-.2-.3-.1-.6-.2-.6-.4s0-.1.1-.2c.2-.1.4-.1.5-.1h5.3c.7 0 1.5 0 2.2.2.6.1 1.2.4 1.7.8.4.3.8.8 1 1.3.2.5.4 1.1.5 1.6Zm-2.1 0c0-.4-.1-.8-.3-1.1-.2-.5-.5-.9-.8-1.3-.3-.3-.7-.5-1.1-.6-.4-.2-.8-.2-1.3-.2h-.9c-.1 0-.2 0-.3.1l-.2.2c0 .1-.1.2-.1.3v5.799c0 .1.1.2.1.2.1.1.1.1.2.1.6 0 1.3-.1 1.9-.2.4 0 .7-.1 1.1-.2.2-.1.4-.2.5-.4.2-.2.4-.4.5-.6.2-.3.3-.5.4-.8.3-.5.3-.9.3-1.3Zm16.3-4.2c2.2 0 4.3.8 5.9 2.2.7.7 1.3 1.5 1.8 2.4.4 1 .6 2 .6 3 0 .8-.1 1.5-.3 2.3-.2.7-.4 1.3-.8 1.9-.3.5-.7 1-1.1 1.5-.4.4-.8.8-1.3 1.1-.4.3-.8.5-1.3.6-.4.2-.8.3-1.3.4l-1.3.2-1 .1c-1.2 0-2.4-.2-3.5-.7-1.1-.4-2-1.1-2.8-1.9-.6-.7-1.1-1.5-1.4-2.4-.3-.9-.5-1.9-.5-2.9-.1-1.3.3-2.6.9-3.7.6-1 1.4-1.8 2.3-2.5.3-.3.7-.5 1-.6.4-.2.8-.4 1.3-.5.4-.2.9-.3 1.4-.3.5-.1 1-.1 1.4-.2Zm-.5.8c-.3 0-.6 0-.8.1-.3 0-.6.1-.9.3l-.9.4c-.3.2-.5.3-.7.5-.6.6-1.1 1.3-1.3 2.1-.4 1.1-.6 2.2-.5 3.4 0 .9.1 1.8.4 2.6.3.9.8 1.7 1.4 2.4.6.7 1.3 1.3 2.1 1.7.8.5 1.7.7 2.7.7.4 0 .9 0 1.3-.1.3-.1.6-.2 1-.3.2-.1.4-.2.6-.4.1-.1.3-.2.3-.3.3-.2.5-.5.7-.8.3-.4.5-.8.7-1.3.2-.5.4-1 .5-1.5.1-.6.2-1.3.2-1.9 0-1.2-.3-2.5-.8-3.6s-1.2-2-2.1-2.8c-.5-.4-1.1-.7-1.8-.9-.9-.2-1.5-.3-2.1-.3Zm11.7-.2c0-.1.1-.2.2-.2.2-.1.3-.1.5-.1h4.9c.1 0 .3 0 .4.1.1 0 .2.1.2.2s0 .1-.1.2-.3.2-.5.2c-.3 0-.5.1-.7.2-.1.1-.3.2-.4.3-.1.1-.1.2-.1.3v.3c.1.3.2.7.4 1l.6 1.7.8 1.9.8 2 .7 1.8.5 1.3s.1 0 .1.1.1 0 .1-.1l.3-.7c.2-.4.4-.9.6-1.3l.8-1.7.8-1.9.8-1.8.6-1.5c.1-.2.2-.5.2-.8 0-.2 0-.4-.2-.5-.1-.1-.3-.2-.4-.3-.2-.1-.5-.2-.7-.2-.1 0-.3-.1-.4-.2-.1-.1-.1-.1-.1-.2s.1-.1.2-.2c.2-.1.3-.1.5-.1h4.2c.2 0 .3 0 .5.1.1 0 .2.1.2.2s-.1.2-.2.2c-.1.1-.3.1-.5.1-.5.1-.9.3-1.3.6-.4.4-.7.8-.9 1.3l-.8 1.5-.6 1.4-.8 1.6-1.8 4.2-.6 1.4c-.2.4-.3.7-.4 1.1l-.4 1.2c0 .1-.1.3-.2.4-.1.1-.2.2-.3.2-.1 0-.1 0-.2-.1s-.1-.2-.1-.3l-.4-1.5c-.2-.6-.5-1.4-.8-2.3l-.5-1.3-2.1-5.1c-.2-.4-.4-.9-.5-1.4l-.3-.8c-.2-.5-.5-1-.8-1.4-.4-.3-.8-.6-1.3-.7l-.4-.1c-.1 0-.1-.1-.1-.3Z"/><path fill="url(#c)" d="m1.8 69 9-11.1 15.4-3.3L41.3 58l9.2 11.1-2.3 10.2 1.5-.1 2.4-10.5-9.8-12-16.1-3.6-16.5 3.6-9.7 12 3.5 15 1.5-.1L1.8 69Zm12.1-9.9 12.4-2.2 11.8 2-11.7-3.1-12.5 3.3Zm12.4-7.6 11.4 2.4 2.9-5.3-4-1.1-1 2.6-2.1-.3 1-2.7-4-.9-.6 2.6-1.7-.3.1-2.9-2-.6-2 .5v2.9l-2 .4-.5-2.7-3.9 1 .8 2.6-1.9.4-1.1-2.5-4 1 2.9 5.4 11.7-2.5Zm-19 18.6-1.5-.2L9.1 83l.6-.1-2.4-12.8Zm-2.4-.6-1.5-.2 3.4 13.9.5-.1-2.4-13.6Zm41.7.4-1.5.2-1.8 9.6.8-.1 2.5-9.7Zm2.4-.6-1.4.2-1.9 9.9.8-.1 2.5-10ZM16.9 80.9l1.8 1.2 3.9-.4v-.5L18.5 80l-1.9-3.7-1.5-.4 3.5.1 3.8 2h.7l-.2 3.6 6.2-.6v-3.1h.7l3.8-2 3.5-.1-1.6.4-1.9 3.7-3.4 1L39 80l.1-2.2-.8-1.1v-6.1l-2.8-3.9-4.5-1.3-5 2.2-5-2.2-4.5 1.3-2.8 3.9v6.1l-.9 1.1.2 4.7 4.6-.4-.7-1.2Zm9.4-8.2 2.6-.9-2.4 1.4-.2.6-.2-.6-2.5-1.4 2.7.9Zm0 1.9 6.2-2.1-5.8 3.3-.4 1.4-.4-1.4-6.1-3.3 6.5 2.1Z"/><path fill="url(#d)" d="m26.3 109.4 19.8-14.3 3.7-16-1.5.1-3.4 15-18.5 13.3L7.8 94.2 5.3 83.4l-1.5.1 2.7 11.6 19.8 14.3ZM9.7 82.9l-.6.1 2.3 9.1-1.7-9.2Zm-2.3.2-.5.1L9 91.6l-1.6-8.5Zm36.8-3.5-.8.1-2.3 12.4 3.1-12.5Zm2.3-.2-.8.1-2.3 12.1 3.1-12.2ZM17.7 99.7l8.6 5.9 8.2-5.9-8.3 4.1-8.5-4.1Zm6.4-2.5h4.3l1.6-.9.6-2.4-4.3-1.5-4.4 1.5.5 2.4 1.7.9Zm-9-13v1.5l3.3 3.8V88l-1.5-1.7v-1l2.3 2.3 1.5-1.3v1.4l-1.3 1.5V92l1.9 1.6 4.8-1.9v-1.6l-3.5-2 .7-1.4 3.1.8 3.1-.8.4 1.5-3.3 2v1.6l4.7 1.9 1.9-1.5v-2.8l-1.3-1.5v-1.4l1.5 1.3 2.3-2.3v1l-1.5 1.7v1.5l3.3-3.8v-1.5l1.7-1.2.1-3-8.8.9-.7.2-.3 4.3-.1-4.4-6.3.6-.1 3.8-.4-3.7-3.9.4 2.1 1.4-.7.9-2.1-2.2-4.6.5v.4l1.7.9Zm20.3-3.3-3.3 3.4-.7-.9 4-2.5Z"/><defs><linearGradient id="a" x1="-.377" x2="199.713" y1="67.09" y2="67.09" gradientUnits="userSpaceOnUse"><stop stop-color="#1C8AE2"/><stop offset=".486" stop-color="#8B00B3"/><stop offset="1" stop-color="#6900B5"/></linearGradient><linearGradient id="b" x1="-.377" x2="199.713" y1="88.973" y2="88.973" gradientUnits="userSpaceOnUse"><stop stop-color="#1C8AE2"/><stop offset=".486" stop-color="#8B00B3"/><stop offset="1" stop-color="#6900B5"/></linearGradient><linearGradient id="c" x1="-.378" x2="199.712" y1="64.225" y2="64.225" gradientUnits="userSpaceOnUse"><stop stop-color="#1C8AE2"/><stop offset=".486" stop-color="#8B00B3"/><stop offset="1" stop-color="#6900B5"/></linearGradient><linearGradient id="d" x1="-.377" x2="199.713" y1="94.214" y2="94.214" gradientUnits="userSpaceOnUse"><stop stop-color="#1C8AE2"/><stop offset=".486" stop-color="#8B00B3"/><stop offset="1" stop-color="#6900B5"/></linearGradient></defs></svg>