<svg width="200" height="155" fill="none" xmlns="http://www.w3.org/2000/svg"><g clip-path="url(#a)" fill-rule="evenodd" clip-rule="evenodd"><path d="M37.8 75.5s.9-10.6 1-11.7c.1-1.7-1.2-4.7-4.5-4.7H7.5c-3.2 0-4.8 2.2-5 4.3-.1 1.3-2.3 27-2.5 28.4V92.4c0 2.2 1.7 4.5 4.4 4.5h26.7c3.5 0 4.9-1.9 5.2-4.8.2-1.7 1.1-12.2 1.1-12.2H21.3l-.7 8.1h-4.1l1.8-20.1h4.1l-.6 7.5h16v.1Z" fill="url(#b)"/><path d="M62.7 62.3c-.6 1.7-5.3 16.4-5.3 16.4l2.1-19.6H43.4L40 96.9h12.2c3.1 0 4.1-1.7 4.6-3.1.6-1.7 5.1-14 5.1-14l-1.6 17.1h16.1l3.3-37.8H67c-2.8 0-3.9 2-4.3 3.2Z" fill="url(#c)"/><path d="m144.4 59.1-1.5 17.3h-4.1l1.5-17.3h-16.1s-1.6 18.3-1.7 20c-.2 2.1 1 5.1 4.6 5.1h15.2L142 88h-20.2l-.8 8.9h32.1c2.2 0 4.3-1.4 4.6-4.5.2-2 3-33.4 3-33.4h-16.3v.1Z" fill="url(#d)"/><path d="m179.2 77.3.8-9.4h4l-.8 9.4h-4Zm21.3-13.9v-.2c-.1-2.5-2.2-4.2-4.8-4.2h-31.1l-3.3 37.8h16.1l1-11.7h5.8-1.1 11c2.8 0 4.6-1.4 4.9-4.7.1-1.3 1.4-15.6 1.5-16.9v-.1Z" fill="url(#e)"/><path d="M101.4 89h-4.1l.8-9.4h4.1l-.8 9.4Zm-2.6-17.2.3-3.8h20.2l.8-8.9H83.8l-3.3 37.8h32.2c2 0 4.3-1.2 4.6-4.4.2-2.4 1.2-13.6 1.4-15.7.2-2.7-1.5-5.1-4.9-5.1h-15v.1Z" fill="url(#f)"/></g><defs><linearGradient id="b" x1=".093" y1="77.978" x2="199.802" y2="77.978" gradientUnits="userSpaceOnUse"><stop stop-color="#1C8AE2"/><stop offset=".486" stop-color="#8B00B3"/><stop offset="1" stop-color="#6900B5"/></linearGradient><linearGradient id="c" x1=".093" y1="77.979" x2="199.802" y2="77.979" gradientUnits="userSpaceOnUse"><stop stop-color="#1C8AE2"/><stop offset=".486" stop-color="#8B00B3"/><stop offset="1" stop-color="#6900B5"/></linearGradient><linearGradient id="d" x1=".093" y1="77.983" x2="199.802" y2="77.983" gradientUnits="userSpaceOnUse"><stop stop-color="#1C8AE2"/><stop offset=".486" stop-color="#8B00B3"/><stop offset="1" stop-color="#6900B5"/></linearGradient><linearGradient id="e" x1=".093" y1="77.982" x2="199.802" y2="77.982" gradientUnits="userSpaceOnUse"><stop stop-color="#1C8AE2"/><stop offset=".486" stop-color="#8B00B3"/><stop offset="1" stop-color="#6900B5"/></linearGradient><linearGradient id="f" x1=".093" y1="77.979" x2="199.802" y2="77.979" gradientUnits="userSpaceOnUse"><stop stop-color="#1C8AE2"/><stop offset=".486" stop-color="#8B00B3"/><stop offset="1" stop-color="#6900B5"/></linearGradient><clipPath id="a"><path fill="#fff" d="M0 0h200v155H0z"/></clipPath></defs></svg>