<svg width="200" height="155" fill="none" xmlns="http://www.w3.org/2000/svg"><g clip-path="url(#a)"><path d="M52.08 60.926h3.7c2.1-.2 4.1 1.3 4.3 3.5v1.5c.1 1.5-.8 2.8-2.1 3.4 1.6.6 2.7 2.2 2.6 4v.9c.2 2.2-1.5 4.1-3.7 4.3h-4.8v-17.6Zm1 1.3v6.5h2.6c1.6.2 3-.9 3.2-2.5v-1.4c0-1.6-1.2-2.7-3.2-2.7l-2.6.1Zm0 7.8v7.1h3.1c1.6.2 3.1-1 3.3-2.6v-1.3c.1-1.7-1.2-3.1-2.9-3.1h-3.5v-.1Z" fill="url(#b)"/><path d="m61.48 78.326 4.8-17.4h1.1l4.7 17.4h-1.1l-1.2-4.3h-6.1l-1.1 4.3h-1.1Zm2.6-5.6h5.5l-2.8-10.3-2.7 10.3Z" fill="url(#c)"/><path d="M75.08 78.326h-1v-17.4h3.9c2.3-.1 4.3 1.8 4.3 4.1v1.4c.2 2-1.1 3.8-3 4.4l3.5 7.6h-1.1l-3.4-7.3h-3.2v7.2Zm0-16.2v7.5h2.9c1.7.1 3.1-1.2 3.2-2.9v-1.3c.1-1.7-1.1-3.2-2.8-3.3h-3.3Z" fill="url(#d)"/><path d="M91.88 65.226c.1-1.7-1.1-3.1-2.8-3.2h-.3c-1.6-.1-2.9 1.1-3 2.7v.3c-.1 1.1.5 2.2 1.5 2.8l4 2.4c1.2.9 2 2.3 1.9 3.8.2 2.3-1.6 4.2-3.8 4.4h-.4c-2.3.1-4.3-1.8-4.3-4.1v-1.1h1.1v.7c-.1 1.7 1.2 3.2 2.9 3.3h.3c1.6.1 3.1-1.1 3.2-2.7v-.4c0-1.1-.5-2.2-1.5-2.7l-4-2.4c-1.3-.9-2-2.3-1.9-3.8-.2-2.2 1.4-4.2 3.6-4.4h.5c2.3 0 4.1 1.8 4.2 4.1v1h-1.1l-.1-.7Z" fill="url(#e)"/><path d="M108.88 73.126v.8c0 2.5-2 4.5-4.5 4.5s-4.5-2-4.5-4.5v-8.6c0-2.5 2-4.5 4.5-4.5s4.5 2 4.5 4.5v.8h-1.1v-.9c-.1-1.9-1.7-3.3-3.6-3.2-1.7.1-3.1 1.5-3.2 3.2v8.7c.1 1.9 1.7 3.3 3.6 3.2 1.7-.1 3.1-1.5 3.2-3.2v-.8h1.1Z" fill="url(#f)"/><path d="m110.38 78.326 4.8-17.4h1.1l4.7 17.4h-1.1l-1.1-4.3h-6.1l-1.1 4.3h-1.2Zm2.7-5.6h5.5l-2.8-10.3-2.7 10.3Z" fill="url(#g)"/><path d="M123.98 71.026v7.4h-1.1v-17.5h4.1c2.3-.1 4.3 1.8 4.3 4.1v1.4c.2 2.3-1.4 4.4-3.8 4.6h-3.5Zm0-8.8v7.5h3c1.7.1 3.1-1.2 3.2-2.9v-1.3c.1-1.7-1.1-3.2-2.8-3.3h-3.4Z" fill="url(#h)"/><path d="M135.28 60.926h-1.1v17.4h1.1v-17.4Z" fill="url(#i)"/><path d="M146.879 62.126h-4.3v16.2h-1v-16.2h-4.3v-1.2h9.6v1.2Z" fill="url(#j)"/><path d="m146.68 78.326 4.8-17.4h1.1l4.7 17.4h-1.1l-1.2-4.3h-6.1l-1.1 4.3h-1.1Zm2.6-5.6h5.5l-2.8-10.3-2.7 10.3Z" fill="url(#k)"/><path d="M159.279 60.926h1v16.1h6v1.3h-7v-17.4Z" fill="url(#l)"/><path d="M173.079 60.926h1v16.1h6v1.3h-7v-17.4Z" fill="url(#m)"/><path d="M189.379 62.126h-4.3v16.2h-1v-16.2h-4.3v-1.2h9.6v1.2Z" fill="url(#n)"/><path d="M191.479 60.926h4.3c2.3-.1 4.301 1.8 4.301 4.1v8.7c.2 2.3-1.501 4.4-3.801 4.6h-4.8v-17.4Zm1 1.3v14.8h3.3c1.7.1 3.201-1.2 3.301-2.9V65.426c.1-1.7-1.2-3.2-2.9-3.3h-.401l-3.3.1Z" fill="url(#o)"/><path d="M57.08 89.326v3c0 1.6-1.3 2.9-2.9 2.9-1.6 0-2.9-1.3-2.9-2.9v-5.5c0-1.6 1.3-2.9 2.9-2.9 1.6 0 2.9 1.3 2.9 2.9v.5h-.7v-.6c-.1-1.2-1.2-2.1-2.4-2-1.1.1-1.9.9-2 2v5.5c.1 1.2 1.2 2.1 2.4 2 1.1-.1 1.9-.9 2-2v-2.1h-2.2v-.8h2.9Z" fill="url(#p)"/><path d="M59.78 95.225h-.7v-11.2h2.5c1.5 0 2.7 1.1 2.7 2.6v.9c.1 1.3-.7 2.4-1.9 2.8l2.3 4.8h-.7l-2.2-4.7h-2v4.8Zm0-10.4v4.9h1.8c1.1.1 2-.8 2.1-1.9v-.8c.1-1.1-.7-2-1.8-2.1h-.3l-1.8-.1Z" fill="url(#q)"/><path d="M69.08 95.325c-1.5.1-2.8-1.1-2.9-2.6v-5.8c0-1.6 1.3-2.9 2.9-2.9 1.6 0 2.9 1.3 2.9 2.9v5.5c.1 1.5-1.1 2.9-2.6 3-.2-.1-.2-.1-.3-.1Zm2.2-8.5c-.1-1.2-1.2-2.1-2.4-2-1.1.1-1.9.9-2 2v5.5c.1 1.2 1.2 2.1 2.4 2 1.1-.1 1.9-.9 2-2v-5.5Z" fill="url(#r)"/><path d="M79.58 84.025v8.3c0 1.6-1.3 2.9-2.9 2.9-1.6 0-2.9-1.3-2.9-2.9v-8.3h.7v8.3c.1 1.2 1.1 2.1 2.3 2 1.1-.1 1.9-.9 2-2v-8.3h.8Z" fill="url(#s)"/><path d="M82.38 90.426v4.7h-.7v-11.2h2.7c1.5 0 2.7 1.1 2.7 2.6v.9c.2 1.5-.9 2.8-2.4 2.9h-.4l-1.9.1Zm0-5.6v4.9h1.9c1.1 0 2-.8 2.1-1.9V86.926c.1-1.1-.7-2-1.8-2.1H82.38Z" fill="url(#t)"/><path d="M97.18 91.826v.5c0 1.6-1.3 2.9-2.9 2.9-1.6 0-2.9-1.3-2.9-2.9v-5.5c0-1.6 1.3-2.9 2.9-2.9 1.6 0 2.9 1.3 2.9 2.9v.5h-.7v-.6c0-1.2-1-2.2-2.2-2.2-1.2 0-2.2 1-2.2 2.2v5.5c0 1.2 1 2.2 2.2 2.2 1.2 0 2.2-1 2.2-2.2v-.5l.7.1Z" fill="url(#u)"/><path d="M101.88 95.326c-1.5 0-2.8-1.2-2.9-2.7v-5.8c0-1.6 1.3-2.9 2.9-2.9 1.6 0 2.899 1.3 2.899 2.9v5.5c.1 1.5-1.099 2.9-2.599 3h-.3Zm2.2-8.5c0-1.2-1-2.2-2.2-2.2-1.2 0-2.2 1-2.2 2.2v5.5c0 1.2 1 2.2 2.2 2.2 1.2 0 2.2-1 2.2-2.2v-5.5Z" fill="url(#v)"/><path d="M106.88 95.225v-11.2h.6l2.8 7.7 3-7.7h.6v11.2h-.7v-9.3l-2.7 7.1h-.3l-2.7-7.1v9.3h-.6Z" fill="url(#w)"/><path d="M116.779 90.426v4.7h-.7v-11.2h2.7c1.5 0 2.7 1.1 2.7 2.6v.9c.2 1.5-.9 2.8-2.4 2.9h-.4l-1.9.1Zm0-5.6v4.9h1.9c1.1.1 2-.8 2.1-1.9v-.8c.1-1.1-.7-2-1.8-2.1h-.3l-1.9-.1Z" fill="url(#x)"/><path d="m121.68 95.225 3-11.2h.7l3 11.2h-.7l-.7-2.8h-4l-.7 2.8h-.6Zm1.6-3.6h3.5l-1.8-6.7-1.7 6.7Z" fill="url(#y)"/><path d="M129.68 95.225v-11.2h.7l4.4 9.5v-9.5h.7v11.2h-.6l-4.5-9.6v9.6h-.7Z" fill="url(#z)"/><path d="m139.58 90.625-2.9-6.6h.7l2.5 5.8 2.5-5.8h.7l-2.9 6.6v4.6h-.6v-4.6Z" fill="url(#A)"/><path d="M22.88 88.426c-.6.1-1.2-.2-1.6-.7-.2-.3-.3-.6-.3-1 0-.8.3-1.5.8-2.1.4-.6.8-1.2 1.1-1.9.5-1.3.8-2.7.7-4.1 0-.6 0-1.1.1-1.7.2-1 .9-1.9 1.9-2.3l.3-.1c.8-.3 1.5-.8 2.2-1.3 1.5-1.4 2.6-3.2 3.2-5.2.6-1.6 1-3.2 1.1-4.9-1.4 0-2.7.3-3.9.9-3.4 1.9-4.7 6.2-5.8 10-.3 1.1-.6 2.2-1 3.1-1 2.9-2.6 5.5-4.9 7.6-4.5 3.8-8.1 3.8-10.4 3.1-2.2-.7-4-2.2-5.1-4.1-1.5-2.9-1.7-6.2-.5-9.3.3-1 1-1.9 2-2.3.7-.1 1.3 0 1.9.4.5.3.9.8 1.1 1.4.1.6-.2 1.2-.6 1.6-.2.3-.4.5-.6.8-.4 1.2-.3 2.5.2 3.6.5 1.5 1.6 2.6 3.1 3.2 3 1.1 6-1.8 6.9-2.7 1.4-1.9 2.4-4.1 2.9-6.4l.1-.3c1.6-5.7 3.6-12.7 9.6-15.4 3.2-1.2 6.5-2 9.9-2.5 1.5-.3 2.8-1.2 3.5-2.5 2-2.7 4.1-5.5 6.4-8 3.4-3.8 7.6-8 13.2-10.1 1.6-.6 3.2-1 4.9-1.3h.2l.8-.1c.7-.1 1.5-.2 2.2-.5.4-.6.7-1.1 1.2-1.3.4-.1.9.1 1.2.4.3.2.4.5.5.9l1.3.1c.6.1 1.1.4 1.5.7.5.6 1 1.1 1.4 1.8l.5.2c1.7.6 2.7.9 2.5 1.7-.2.8-.5 1.6-1 2.3.2.7-.1 1.5-.8 1.7-.4.1-.8.2-1.2.1-.3 0-.6-.1-.9-.2-.6-.2-1-.3-1.3-.1l-.1.1c1.2.5 2.3 1.1 3.3 1.9.5.4 1 .8 1.4 1.3.5.8.7 1.9.6 2.9-.1.6-.4 1-.9 1.3-.6.4-1.3-.2-1.8-.5l-.2-.1c-.4-.3-.7-.6-1.1-.9l-.3-.3c-.4-.4-.8-.7-1.3-.9-.4-.1-.7-.2-1.1-.2-1.6.3-3.1 1-4.5 1.8-2.7 1.6-4.3 2.5-6 2.2a5.7 5.7 0 0 1-3.6-2.4l.7-.6c.7 1.1 1.8 1.8 3 2.1 1.4.2 2.8-.6 5.3-2.1 1.5-.9 3.2-1.6 5-1.9.5 0 1 .1 1.4.2.6.2 1.2.6 1.7 1.1l.4.3c.3.3.6.6.9.8.1 0 .1.1.2.2s.6.5.7.4c.2-.2.4-.4.5-.7.1-.7 0-1.5-.4-2.1-.3-.4-.7-.8-1.2-1.1-1.2-.8-2.4-1.5-3.7-2l-.6-.3.5-.5c.2-.3.5-.5.8-.7.7-.3 1.4-.3 2.1.1.2.1.5.2.7.2.2.1.5.1.7 0 .1 0 .3-.1.3-.5-.1-.1-.2-.3-.2-.5 0-.3.2-.5.4-.6.3-.5.6-1 .7-1.5-.6-.3-1.2-.6-1.9-.8-.7-.2-.9-.3-1-.5-.4-.6-.8-1.1-1.3-1.6-.3-.3-.7-.4-1-.5l-1.6-.1h-.5v-.5c0-.2-.1-.4-.2-.6-.1-.1-.2-.2-.3-.2-.2 0-.5.5-.7.9-.2.4-.7.5-2.9.8-.3 0-.6.1-.7.1h-.2c-1.6.3-3.2.8-4.8 1.3-5.3 2.1-9.5 6.1-12.8 9.8-2.3 2.5-4.3 5.3-6.4 8-.9 1.5-2.4 2.6-4.1 2.9-3.3.5-6.5 1.3-9.6 2.4-5.6 2.5-7.5 9.3-9.1 14.8l-.1.3c-.5 2.5-1.6 4.8-3.1 6.8-.9 1-4.3 4.2-7.9 2.9-1.6-.7-2.9-2.1-3.5-3.7-.6-1.3-.7-2.9-.2-4.3.2-.4.4-.7.7-1 .3-.4.5-.6.5-.9-.1-.4-.4-.6-.7-.8-.3-.2-.8-.3-1.2-.3-.7.3-1.2.9-1.4 1.7-1.1 2.7-.9 5.8.5 8.4 1 1.7 2.7 3 4.6 3.7 2.1.6 5.4.6 9.6-2.9 2.2-2 3.8-4.4 4.6-7.2.3-1 .7-2 1-3.1 1.2-4 2.5-8.5 6.3-10.5 1.5-.8 3.2-1.1 4.8-1h.5v.4c-.1 1.9-.5 3.8-1.2 5.6-.7 2.1-1.9 4-3.5 5.6-.7.6-1.5 1.1-2.4 1.5l-.3.1c-.7.3-1.2.9-1.4 1.7-.1.5-.1 1-.1 1.5.1 1.5-.1 3.1-.7 4.5-.3.7-.7 1.4-1.2 2-.4.5-.6 1-.6 1.6 0 .1 0 .3.1.4.2.3.9.3 1.6.1 1.4-.6 2.5-1.8 2.9-3.3.1-.3.2-.7.4-1.3.2-.6.4-1.3.7-2.3.3-1.1 1.1-2.1 2.1-2.6l1.2-.5c1.1-.4 2.2-1 3.2-1.7 1.3-.9 2.5-2 3.5-3.2l.7.6c-1.1 1.3-2.3 2.4-3.6 3.4-1.1.7-2.2 1.3-3.4 1.7l-1.2.5c-.8.4-1.5 1.1-1.7 2-.3.9-.5 1.7-.7 2.3-.2.6-.3 1-.4 1.3-.5 1.8-1.8 3.3-3.5 3.9-.6.2-.9.2-1.2.2Z" fill="url(#B)"/></g><defs><linearGradient id="p" x1="-1.21" y1="89.576" x2="197.471" y2="89.576" gradientUnits="userSpaceOnUse"><stop stop-color="#1C8AE2"/><stop offset=".486" stop-color="#8B00B3"/><stop offset="1" stop-color="#6900B5"/></linearGradient><linearGradient id="b" x1="-1.21" y1="69.627" x2="197.469" y2="69.627" gradientUnits="userSpaceOnUse"><stop stop-color="#1C8AE2"/><stop offset=".486" stop-color="#8B00B3"/><stop offset="1" stop-color="#6900B5"/></linearGradient><linearGradient id="d" x1="-1.209" y1="69.605" x2="197.469" y2="69.605" gradientUnits="userSpaceOnUse"><stop stop-color="#1C8AE2"/><stop offset=".486" stop-color="#8B00B3"/><stop offset="1" stop-color="#6900B5"/></linearGradient><linearGradient id="e" x1="-1.209" y1="69.607" x2="197.47" y2="69.607" gradientUnits="userSpaceOnUse"><stop stop-color="#1C8AE2"/><stop offset=".486" stop-color="#8B00B3"/><stop offset="1" stop-color="#6900B5"/></linearGradient><linearGradient id="f" x1="-1.209" y1="69.606" x2="197.47" y2="69.606" gradientUnits="userSpaceOnUse"><stop stop-color="#1C8AE2"/><stop offset=".486" stop-color="#8B00B3"/><stop offset="1" stop-color="#6900B5"/></linearGradient><linearGradient id="g" x1="-1.209" y1="69.606" x2="197.47" y2="69.606" gradientUnits="userSpaceOnUse"><stop stop-color="#1C8AE2"/><stop offset=".486" stop-color="#8B00B3"/><stop offset="1" stop-color="#6900B5"/></linearGradient><linearGradient id="h" x1="-1.208" y1="69.632" x2="197.47" y2="69.632" gradientUnits="userSpaceOnUse"><stop stop-color="#1C8AE2"/><stop offset=".486" stop-color="#8B00B3"/><stop offset="1" stop-color="#6900B5"/></linearGradient><linearGradient id="i" x1="-1.206" y1="69.606" x2="197.468" y2="69.606" gradientUnits="userSpaceOnUse"><stop stop-color="#1C8AE2"/><stop offset=".486" stop-color="#8B00B3"/><stop offset="1" stop-color="#6900B5"/></linearGradient><linearGradient id="j" x1="-1.21" y1="69.606" x2="197.47" y2="69.606" gradientUnits="userSpaceOnUse"><stop stop-color="#1C8AE2"/><stop offset=".486" stop-color="#8B00B3"/><stop offset="1" stop-color="#6900B5"/></linearGradient><linearGradient id="k" x1="-1.209" y1="69.606" x2="197.47" y2="69.606" gradientUnits="userSpaceOnUse"><stop stop-color="#1C8AE2"/><stop offset=".486" stop-color="#8B00B3"/><stop offset="1" stop-color="#6900B5"/></linearGradient><linearGradient id="l" x1="-1.21" y1="69.606" x2="197.469" y2="69.606" gradientUnits="userSpaceOnUse"><stop stop-color="#1C8AE2"/><stop offset=".486" stop-color="#8B00B3"/><stop offset="1" stop-color="#6900B5"/></linearGradient><linearGradient id="m" x1="-1.21" y1="69.606" x2="197.469" y2="69.606" gradientUnits="userSpaceOnUse"><stop stop-color="#1C8AE2"/><stop offset=".486" stop-color="#8B00B3"/><stop offset="1" stop-color="#6900B5"/></linearGradient><linearGradient id="n" x1="-1.21" y1="69.606" x2="197.47" y2="69.606" gradientUnits="userSpaceOnUse"><stop stop-color="#1C8AE2"/><stop offset=".486" stop-color="#8B00B3"/><stop offset="1" stop-color="#6900B5"/></linearGradient><linearGradient id="o" x1="-1.21" y1="69.585" x2="197.47" y2="69.585" gradientUnits="userSpaceOnUse"><stop stop-color="#1C8AE2"/><stop offset=".486" stop-color="#8B00B3"/><stop offset="1" stop-color="#6900B5"/></linearGradient><linearGradient id="c" x1="-1.21" y1="69.606" x2="197.47" y2="69.606" gradientUnits="userSpaceOnUse"><stop stop-color="#1C8AE2"/><stop offset=".486" stop-color="#8B00B3"/><stop offset="1" stop-color="#6900B5"/></linearGradient><linearGradient id="q" x1="-1.21" y1="89.582" x2="197.469" y2="89.582" gradientUnits="userSpaceOnUse"><stop stop-color="#1C8AE2"/><stop offset=".486" stop-color="#8B00B3"/><stop offset="1" stop-color="#6900B5"/></linearGradient><linearGradient id="r" x1="-1.209" y1="89.63" x2="197.47" y2="89.63" gradientUnits="userSpaceOnUse"><stop stop-color="#1C8AE2"/><stop offset=".486" stop-color="#8B00B3"/><stop offset="1" stop-color="#6900B5"/></linearGradient><linearGradient id="s" x1="-1.21" y1="89.583" x2="197.471" y2="89.583" gradientUnits="userSpaceOnUse"><stop stop-color="#1C8AE2"/><stop offset=".486" stop-color="#8B00B3"/><stop offset="1" stop-color="#6900B5"/></linearGradient><linearGradient id="t" x1="-1.21" y1="89.582" x2="197.47" y2="89.582" gradientUnits="userSpaceOnUse"><stop stop-color="#1C8AE2"/><stop offset=".486" stop-color="#8B00B3"/><stop offset="1" stop-color="#6900B5"/></linearGradient><linearGradient id="u" x1="-1.209" y1="89.576" x2="197.47" y2="89.576" gradientUnits="userSpaceOnUse"><stop stop-color="#1C8AE2"/><stop offset=".486" stop-color="#8B00B3"/><stop offset="1" stop-color="#6900B5"/></linearGradient><linearGradient id="v" x1="-1.209" y1="89.63" x2="197.469" y2="89.63" gradientUnits="userSpaceOnUse"><stop stop-color="#1C8AE2"/><stop offset=".486" stop-color="#8B00B3"/><stop offset="1" stop-color="#6900B5"/></linearGradient><linearGradient id="w" x1="-1.209" y1="89.582" x2="197.47" y2="89.582" gradientUnits="userSpaceOnUse"><stop stop-color="#1C8AE2"/><stop offset=".486" stop-color="#8B00B3"/><stop offset="1" stop-color="#6900B5"/></linearGradient><linearGradient id="x" x1="-1.209" y1="89.582" x2="197.469" y2="89.582" gradientUnits="userSpaceOnUse"><stop stop-color="#1C8AE2"/><stop offset=".486" stop-color="#8B00B3"/><stop offset="1" stop-color="#6900B5"/></linearGradient><linearGradient id="y" x1="-1.209" y1="89.582" x2="197.47" y2="89.582" gradientUnits="userSpaceOnUse"><stop stop-color="#1C8AE2"/><stop offset=".486" stop-color="#8B00B3"/><stop offset="1" stop-color="#6900B5"/></linearGradient><linearGradient id="z" x1="-1.209" y1="89.582" x2="197.47" y2="89.582" gradientUnits="userSpaceOnUse"><stop stop-color="#1C8AE2"/><stop offset=".486" stop-color="#8B00B3"/><stop offset="1" stop-color="#6900B5"/></linearGradient><linearGradient id="A" x1="-1.21" y1="89.582" x2="197.47" y2="89.582" gradientUnits="userSpaceOnUse"><stop stop-color="#1C8AE2"/><stop offset=".486" stop-color="#8B00B3"/><stop offset="1" stop-color="#6900B5"/></linearGradient><linearGradient id="B" x1="-1.209" y1="60.425" x2="197.47" y2="60.425" gradientUnits="userSpaceOnUse"><stop stop-color="#1C8AE2"/><stop offset=".486" stop-color="#8B00B3"/><stop offset="1" stop-color="#6900B5"/></linearGradient><clipPath id="a"><path fill="#fff" d="M0 0h200v155H0z"/></clipPath></defs></svg>