<svg width="138" height="155" fill="none" xmlns="http://www.w3.org/2000/svg"><path d="M61.3 128.5H46.4c-1-1-2-2-3-3.1h17.9v3.1Zm0-14.9H29.8c-1.4-1-2.7-2.1-4.2-3.1h35.7v3.1Zm0-14.8H6.2c-2-1-4.1-2.1-6.2-3.1h61.3v3.1Zm0-21.3V66.4l-6.2 11.1h-1.8V65.7H55v10.5l5.9-10.5H63v11.8h-1.7Zm6.8-11.9v5.3h4.8v-5.3h1.7v11.8h-1.7v-6h-4.8v6h-1.7V65.6h1.7Zm8.8 0h6v.5h-2.1v11.3h-1.7V66.1h-2.2v-.5Zm14.1 0v.5h-4V71h4v.5h-4v5.4h4v.5h-5.7V65.6H91ZM70 154c3.4-18.7 9.9-36.3 19.4-51 9.1-14.1 20-23.9 31.7-29.3v-.6h-23l5.4-7.4h-9.6v.6h7.1l-6.9 9.8c1.7 0 4-.1 5.7 0C89 87.1 79.4 102 73.1 124c-1.8-2.9-3-12.1-3.7-21.4h-.8l-.1 51.4H70Zm22.1-71.1c.8-1 1.5-1.9 2.3-2.8-19 0-38 0-57-.1 10.8-11 20.4-25.9 26.7-47.9 2 3.2 3.2 14.4 3.9 24.6h.6V2h-1.4c-3.4 18.7-9.9 36.3-19.4 51C38.7 66.9 28 76.6 16.5 82.1v.8h75.6ZM76.4 27.5h14.9c1 1 2 2 3 3.1H76.4v-3.1Zm0 14.9h31.5c1.4 1 2.7 2 4.2 3.1H76.4v-3.1Zm0 14.8h55.1c2 1 4.1 2.1 6.2 3.1H76.4v-3.1Z" fill="url(#a)"/><defs><linearGradient id="a" x1="-3.445" y1="78.011" x2="135.787" y2="78.011" gradientUnits="userSpaceOnUse"><stop stop-color="#1C8AE2"/><stop offset=".486" stop-color="#8B00B3"/><stop offset="1" stop-color="#6900B5"/></linearGradient></defs></svg>