<svg width="161" height="155" fill="none" xmlns="http://www.w3.org/2000/svg"><path d="M80.1 111.101c-17.2 0-32-12.2-35.1-29.2-.2-1.1 0-1.2 1-1.3 1-.2 2 .4 2.3 1.4.2.5.5 1.1.8 1.5.3.6.8 1 1.5 1.2.5.1.6.2.7.7.1.5.8 1 1.4 1.1.3 0 .4-.1.3-.4-.3-.7.2-1 .7-1.3.5-.3 1.8-.3 2.4-1.2h.5c1.1.3 2.3.4 3.4.3 1.3 0 1.7.6 1.4 1.9-.2.6 0 .9.5 1.1.1 0 .3 0 .3.2.3.6 1 .8 1.6.6.7-.1 1 .5 1.2 1.1.2.6.3 1.4.4 2.2.2 1.6 1.6 2.8 3.2 2.8.4 0 .5.2.7.5.4.8.9 1.6 1.6 2.2.4.4 1 .5 1.4.2.6-.4 1.3-.7 2-1 1.1-.7 2.5-.4 3.2.6.2.2.4.3.6.4.4.2.8.2 1.2 0 .4-.3.4-.7.3-1.1-.1-.4-.4-1.2.4-1.6.7-.4 1.6-.2 2.1.5.4.4.6.9 1 1.4.6.8 1.2.9 2 .3.4-.3.9-.4 1.4-.1.7.4 1.4.7 2.1 1 .7.4 1.6.1 2-.7v-.1c.4-.8 1.3-1.3 2.2-1.2h1.7c.7 0 1.2-.5 1.3-1.2v-.1c0-.6.1-1.1.2-1.7.2-.5.1-1-.2-1.4-.4-.6-.2-1 .4-1.2.5-.2.9-.4 1.3-.7.5-.3 1.2-.3 1.7 0s.9.7 1.3 1.2c.5.5.9 1.1 1.4 1.6.9.8 1.7.9 2.5 0 .9-1.2 2.2-.6 3.3-.9.1 0 .2 0 .2.1v.1c0 1.4.7 2.6.6 4 0 .6.1 1.3-.8 1.4-.2 0-.2.4-.2.5-.2 1.1-.7 2.1-1.5 2.9-5.7 5.9-13.2 9.7-21.4 10.7-1.5.5-3 .7-4.5.7Z" fill="url(#a)"/><path d="M113.2 87.4c-.2-.4-.3-.8-.1-1.2.3-.7 0-1-.4-1.4-.9-1-1.8-1.9-2.7-2.9-.1-.1-.3-.4-.5-.3-.2.1-.3.4-.2.6l.5 1.3-1.7-1c-.3-.3-.8-.2-1.1.1-.1.1-.1.2-.1.3-.5.9-1.1 1.1-2 .6-.3-.2-.7-.2-1.1-.1-2.4.5-5 .4-7.4-.2-4.7-.9-7.7-5.4-6.8-10.1.7-3.5 3.5-6.3 7.1-6.9 2.7-.5 5.5-.5 8.2 0 .4 0 .6.2.6.7v3.4c0 .5-.1.6-.6.5-1.5-.5-3.1-.6-4.6-.3-2 .4-3.5 2.3-3.3 4.4 0 2.2 1.7 4 3.9 4.2 1.4.1 2.8 0 4.1-.4.5-.2.7 0 .6.5-.1.5 0 .9 0 1.4.5-.3.7-.9.5-1.4-.2-.9-.4-1.8-.5-2.8-.1-.7.2-1.3.7-1.7.8-.7 1.8-1.3 2.1-2.5 0-.4.6-.3.9-.5.3-.1.5 0 .7-.2.5-.5 1.2-.7.6-1.7s-.4-2.1-.6-3.2c-.1-.5.4-.8.7-1 .4-.3.5 0 .7.2.2.2.5.2.5-.2v-1.2c0-.2.2-.4.5-.5.4 0 .3.3.4.5.3 1.5.5 3.1.5 4.6-.1 1.8.8 3.5 2.3 4.5.3.2.4.5.4.8.1 4.1-.4 8.2-1.7 12.1-.1.4-.4.8-.8.9l-.3.1Z" fill="url(#b)"/><path d="M90.8 140.001c-.2-2 .3-4.1 1.4-5.9 15-20.9 30-41.9 45-62.8.5-.7.7-.6 1.3 0 1.1 1.2 1.1 1.1.2 2.4-15.7 21.9-31.5 43.9-47.2 65.8l-.4.5h-.3Z" fill="url(#c)"/><path d="M75.7 6.7c.3 2.3-.2 4.6-1.5 6.5-14.3 20-28.7 40-43 60-.2.3-.4.5-.6.9-.4-.8-.7-1.6-1.1-2.4-.2-.4.1-.7.3-.9l11.8-16.5L75.1 7.5c.2-.3.4-.6.6-.8Z" fill="url(#d)"/><path d="M83.2 67c2 .8 3.6 2.4 4.5 4.5 2.2 5.4-1 10.9-7 12.1-2.6.4-5.2.4-7.8-.2-.5 0-.7-.2-.7-.8v-3.3c0-.5.1-.6.6-.5 1.7.6 3.6.7 5.4.3 1-.2 1.9-.8 2.4-1.7.3-.5.3-.8-.4-.8h-4.8c-.6 0-.8-.1-.7-.7.1-.7.1-1.4 0-2.1 0-.6.2-.7.7-.7h5c.6 0 .6-.2.4-.7-.9-1.4-2.5-2.2-4.2-2.1-1.2 0-2.4.1-3.6.5-.6.2-.8.2-.8-.5v-3.1c0-.5.1-.7.6-.8 3.1-.6 6.2-.6 9.3.3.5.2.7 0 .9-.4.3-.4.6-.8 1.1-.7.1 0 .2.1.2.2-.1.5-.4.9-.9 1l-.2.2Z" fill="url(#e)"/><path d="M93.6 129.2c.7-1.8 1.2-3.7 1.5-5.6.1-.4.2-.7.4-1.1l38.8-54.2c.4-.5.6-.7 1.1-.1 1.2 1.3 1.2 1.3.2 2.6l-41.2 57.6c-.2.4-.3.8-.8.8Z" fill="url(#f)"/><path d="m26.6 65.9-.1-.1c-1.3-2.3-1.3-2.3.2-4.4 2.5-3.4 5-6.9 7.4-10.4.5-.7.9-1 1.7-.6.8.4 1 .3.8-.6-.2-1.4.2-2.8 1.1-3.9 3.7-5 7.3-9.9 10.8-15 .1-.2.3-.4.5-.5-.3 1.9.3 3.8-1 5.6-7 9.7-14 19.5-21 29.2 0 .2-.2.4-.4.7Z" fill="url(#g)"/><path d="M53.5 35.2c.8-2.8.8-5.6 2.6-8.1 6-8.1 11.7-16.3 17.6-24.5.6-.8.6-.8 1.1 0l.2.3c.6.8.5 1.9-.2 2.6-6.8 9.6-13.7 19.2-20.6 28.7-.3.4-.5.7-.7 1Z" fill="url(#h)"/><path d="M28.6 69.9c-.4-.8-.7-1.5-1.1-2.2-.4-.7.1-.7.3-.9l12.4-17.4L48 38.5c.2-.2.3-.5.6-.6 0 1.1.2 2.1.5 3.2.1.3-.1.4-.2.6l-20 27.9-.3.3Z" fill="url(#i)"/><path d="m48.9 139.8 2.8-3.9c5.2-7.2 10.3-14.4 15.5-21.7.4-.6.8-.8 1.5-.5.6.2 1.1.4 1.7.5l-4.6 6.4c-4.1 5.8-8.3 11.5-12.4 17.3-.5.9-1.4 1.4-2.4 1.5-.6.2-1.2.2-2.1.4Z" fill="url(#j)"/><path d="M92.2 145.3c-.4-.9-.7-1.9-.9-2.8 0-.3.1-.4.3-.6l17.5-24.3c0-.1.2-.2.5-.5-.2 2.2.2 4.1-1.2 6-5.2 7.1-10.4 14.4-15.5 21.6l-.7.6Z" fill="url(#k)"/><path d="M72.5 18.3c-.6 1.5-.9 3.2-.7 4.8 0 .3-.2.5-.4.7-4.2 5.9-8.4 11.7-12.6 17.6-.2.3-.4.6-.7.7-2 1.3-3.8 2.8-5.5 4.4-.2.2-.3.4-.7.3l20.5-28.7.1.2Z" fill="url(#l)"/><path d="M24.7 84.7c1.7-2.5 3.4-4.8 5.1-7.2.3-.4.4-.3.7 0 .3.3.5.5.9.8 0-.5 0-1-.1-1.5-.2-.6-.1-1.4.4-1.9 4-5.5 7.9-11 11.9-16.5l.5-.7c.2.4-.1.6-.2.9-1 2.1-1.8 4.4-2.4 6.6-.1.5-.3.9-.6 1.3-4.4 6.1-8.8 12.2-13.1 18.3-.2.5-.8.7-1.3.5 0 0-.1 0-.1-.1-.5-.2-1-.3-1.7-.5Z" fill="url(#m)"/><path d="m54.9 138.3 6.1-8.6 10.2-14.4c.4-.6.8-.8 1.4-.6.7.3 1.2 0 1.9.4l-5.7 7.9c-2.9 4.1-5.9 8.2-8.8 12.3-.4.7-1 1.2-1.7 1.5-1.1.6-2.2 1.1-3.4 1.5Z" fill="url(#n)"/><path d="M117.7 61.7c-1.5-1.7-.9-3.2.3-4.8 4.3-5.8 8.5-11.7 12.7-17.6.3-.6 1-1 1.7-.7.6.2 1.5-.2 1.7.2.2.4-.5 1-.9 1.5-4.9 6.9-9.8 13.8-14.7 20.6-.4.3-.5.7-.8.8Z" fill="url(#o)"/><path d="m24 106.201 16.8-23.4.7 3.1c0 .3-.2.5-.3.7-4.5 6.4-9.1 12.8-13.7 19.2-.2.2-.3.5-.7.5H24v-.1Z" fill="url(#p)"/><path d="M100.1 41.1c1.9-2.6 3.7-5.1 5.5-7.7 2.8-3.9 5.6-7.9 8.5-11.8.2-.4.6-.6 1-.7 1.1-.3 2.2-.7 3.3-1.2 0 .3-.2.5-.3.6-5.1 7.2-10.2 14.3-15.3 21.4-.4.6-.7.6-1.2.2-.5-.4-1-.6-1.5-.8Z" fill="url(#q)"/><path d="M119.8 79.2c.2-1.4.2-2.7.2-4.1 0-.2.1-.5.3-.6 4.2-5.9 8.5-11.9 12.7-17.8.2-.3.6-.5.9-.3 0 0 .1 0 .1.1 1.7.8 1.7.8.6 2.4-.6.9-1.2 1.7-1.9 2.6-.6 1.2-1.6 2.1-2.8 2.6.4.3.7.4.4.9l-10.2 14.1c-.1.1-.1.2-.1.3l-.2-.2Z" fill="url(#r)"/><path d="M97.3 15c-.5.7-.9 1.2-1.2 1.7-4.3 6.1-8.7 12.1-13 18.2-.3.5-.9.8-1.4.7h-2c0-.4.2-.6.4-.8 4.4-6.2 8.8-12.4 13.3-18.6.3-.4.7-.6 1.1-.7.8-.1 1.7-.3 2.8-.5Z" fill="url(#s)"/><path d="M108.6 124.9c-.2 1.8-.7 3.6-1.3 5.4-.3.9-.7 1.8-1.3 2.6-3.8 5.2-7.5 10.4-11.2 15.7-.5.6-.7.6-1.1 0-1-1.5-1-1.5 0-2.9l14.4-20c.1-.3.3-.5.5-.8Z" fill="url(#t)"/><path d="M44.1 140c0-.3.2-.6.4-.9 3.3-4.6 6.5-9.2 9.8-13.6 2-2.7 4.3-5.1 7-7 .5-.3 1-.6 1.6-1 0 .3-.1.6-.3.8-4.9 6.9-10 13.8-14.9 20.8-.3.6-1 1-1.7.9h-1.9Z" fill="url(#u)"/><path d="M117.8 89c.6-2.1 1.1-4.2 1.5-6.3.1-.3.3-.6.5-.8 3.9-5.4 7.7-10.8 11.6-16.2.4-.6.7-.6 1.3-.2 1.2 1.1 1.3 1 .3 2.4l-14.6 20.4c-.3.3-.4.5-.6.7Z" fill="url(#v)"/><path d="M96.3 112.1c-2.2 3.1-4.4 6.2-6.7 9.4-3 4.2-5.9 8.3-8.9 12.4-.2.2-.3.5-.6.6.2-2.3 0-4.5 1.7-6.6 3.4-4.5 6.6-9.2 9.9-13.8.3-.5.9-.9 1.4-1.1 1-.3 2-.7 3.1-1.1l.1.2Z" fill="url(#w)"/><path d="M91.4 16.3c-1.3 2.1-2.8 4-4.2 6-3 4.2-6 8.5-9 12.7-.3.5-.9.8-1.4.8-.7 0-1.5.1-2.4.2l3.7-5.1c3-4.2 6.1-8.5 9.1-12.8.4-.6 1-1.1 1.7-1.2.8-.3 1.7-.5 2.5-.6Z" fill="url(#x)"/><path d="M115.7 57.6c-.4-.7-.7-1.3-1.1-2-.2-.3 0-.5.1-.8l11.6-16.2c.2-.3.6-.5 1-.4.5.1 1.1.1 1.6.1.6 0 .7.2.3.7-2 2.8-4 5.5-6 8.3l-6.8 9.6c-.2.2-.4.5-.7.7Z" fill="url(#y)"/><path d="m112.4 21.4-1.4 2c-3.9 5.4-7.7 10.8-11.5 16.2-.4.6-.7.7-1.4.4-1.4-.8-1.5-.8-.5-2.2l10.9-15.3c.2-.4.7-.7 1.2-.8.8-.1 1.6-.2 2.7-.3Z" fill="url(#z)"/><path d="m85.4 18-1 1.3c-3.9 5.4-7.8 10.8-11.6 16.3-.3.5-.9.9-1.5 1-.9.2-1.7.4-2.8.7l.8-1.1c3.4-4.7 6.8-9.4 10.2-14.2.6-.9 1.5-1.7 2.4-2.3 1.2-.7 2.3-1.2 3.5-1.7Z" fill="url(#A)"/><path d="M101.2 13.6c-.6 1.7-1.5 3.3-2.5 4.7l-3 4.2c-.7.9-1.1 1.9-1.2 3 0 .3-.2.6-.4.8l-6.6 9.3c-.2.4-.6.6-1 .4-.7-.1-1.4-.2-2.1-.4l2-2.8c4.1-5.8 8.3-11.6 12.4-17.4.5-.8 1.4-1.5 2.4-1.8Z" fill="url(#B)"/><path d="M87.2 127.6c.8-1.3 1.7-2.6 2.6-3.8 3.1-4.3 6.1-8.6 9.2-12.9.2-.3.4-.6.7-.7 1.7-1 3.3-2.1 4.8-3.2.1-.1.2-.2.5 0l-1.5 2.1-10.3 14.4c-.3.5-.7.8-1.2 1.1-1.7 1-3.3 2-4.8 3.2v-.2Z" fill="url(#C)"/><path d="M42.1 87.8c.4.9.6 1.7 1 2.5.1.3 0 .6-.2.8-3.4 4.8-6.8 9.501-10.2 14.301-.2.4-.6.6-1.1.6-.8 0-1.6 0-2.6.1l13.1-18.3Z" fill="url(#D)"/><path d="M48.8 23.9c.3 1.7.8 3.3-.5 5-3.7 4.9-7.2 10-10.8 15-.2.3-.4.5-.7.7.4-2.2.1-4.5 1.6-6.5 3.4-4.5 6.5-9.1 9.8-13.6.1-.2.3-.4.6-.6Z" fill="url(#E)"/><path d="M63.1 133.8c1.8-2.6 3.6-5.1 5.5-7.7 2.4-3.4 4.9-6.8 7.3-10.2.3-.5.8-.7 1.3-.6.7 0 1.3.1 2 .2 0 .3-.2.5-.4.7l-8.5 11.9c-.5.6-1.1 1.2-1.7 1.7-1.7 1.5-3.4 2.9-5.3 4.1l-.2-.1Z" fill="url(#F)"/><path d="M21 106.201c-.5 0-1.3.2-1.5-.2-.2-.4.4-.9.7-1.3l9.9-13.9c1-1.3 1-1.3 2.5-.8 1 .3 1 .3.4 1.2-3.4 4.7-6.7 9.3-10 14-.5.7-1 1.3-2 1Z" fill="url(#G)"/><path d="M119.9 72.3c-.2-1.1-.3-2.1-.4-3-.1-.3.1-.7.3-1 3.2-4.5 6.4-8.9 9.6-13.5.4-.5.6-.5 1.1-.2 1.6.8 1.7.8.6 2.3-3.5 4.9-7 9.8-10.5 14.8-.3.1-.4.4-.7.6Z" fill="url(#H)"/><path d="m106.9 22.1-2 2.8c-3.1 4.3-6.1 8.5-9.2 12.9-.2.5-.8.7-1.3.5 0 0-.1 0-.1-.1-1.6-.6-1.6-.6-.6-2 2.9-4.1 5.8-8.1 8.7-12.2.5-.7 1.2-1.2 2-1.4.9-.2 1.7-.4 2.5-.5Z" fill="url(#I)"/><path d="m29.1 89.7-6.8 9.4c-1.4 1.899-2.8 3.799-4.1 5.799-.3.7-1.1 1-1.8.8-1.7-.4-1.7-.3-.7-1.7l8.2-11.5c1.3-1.5 3.2-2.5 5.2-2.8Z" fill="url(#J)"/><path d="M127.5 91.6c.4.8.7 1.7 1 2.6.1.3 0 .6-.2.8l-9.5 13.3c-.3.4-.5.6-.9.3-.1-.1-.3-.1-.4-.2-.4-.3-1.3-.1-1.3-.7-.1-.5.5-.9.8-1.3l10.5-14.8Z" fill="url(#K)"/><path d="M113.6 53.8c-.5-.7-.9-1.3-1.3-1.8-.2-.2-.2-.6 0-.8 3.1-4.4 6.3-8.7 9.4-13.1.1-.2.4-.4.6-.4l2.6.2-11.3 15.9Z" fill="url(#L)"/><path d="M40.5 69.6c-.1 1.7-.2 3.2-.4 4.7-.1.3-.2.5-.4.7-2.8 3.9-5.6 7.8-8.3 11.6-.3.5-.6.6-1.1.2-.5-.4-1.4-.4-1.4-.9-.1-.5.6-1 .9-1.4 3.4-4.7 6.8-9.4 10.1-14.1l.6-.8Z" fill="url(#M)"/><path d="M119.4 32c-.9 1.3-1.7 2.4-2.5 3.5-2.7 3.7-5.4 7.5-8 11.2-.4.6-.7.6-1.2.1-1.2-1.2-1.2-1.2-.2-2.6 2.7-3.8 5.4-7.5 8.1-11.4.3-.6 1-.9 1.7-.8.7 0 1.4.1 2.1 0Z" fill="url(#N)"/><path d="m43 120.699 8.9-12.4c.5-.8 1.1-1.5 1.7-2.3.2-.4.4-.4.8-.1 1.6 1.2 1.6 1.2.4 2.8-2.6 3.7-5.3 7.4-8 11.1-.3.6-.9.9-1.6.8-.7.1-1.4.1-2.2.1Z" fill="url(#O)"/><path d="M50.9 102.801c1.9 1.7 1.9 1.7.5 3.6-3.1 4.4-6.3 8.7-9.4 13.2-.4.8-1.3 1.2-2.2.9-1.5-.3-1.5-.2-.6-1.5 1.7-2.6 3.7-4.9 6.1-6.8 1.3-1.1 2.5-2.3 3.8-3.4.4-.3.5-.5 0-.8-.5-.3-1.2-.4-1.2-.8s.5-.9.8-1.3c.8-1.1 1.5-2 2.2-3.1Z" fill="url(#P)"/><path d="m138.9 39-1.8 2.6c-2.4 3.3-4.8 6.6-7.1 9.9-.3.5-.9.8-1.5.7-.6-.1-1.3-.1-1.9-.1 0-.4.3-.5.4-.8 2.8-3.9 5.6-7.7 8.3-11.6.3-.6 1-1 1.7-.8.7 0 1.3 0 1.9.1Z" fill="url(#Q)"/><path d="m131.3 52.2 3-4.1c2-2.8 4-5.5 5.9-8.3.3-.5.9-.8 1.4-.7.7 0 1.3 0 2.1.1l-4.2 5.9c-1.5 2.1-3 4.1-4.4 6.2-.3.5-.9.9-1.5.8-.7-.1-1.4 0-2.3.1Z" fill="url(#R)"/><path d="M74.1 26.7c0 .3-.2.5-.4.7l-7.2 10.1c-.1.2-.3.4-.5.6L61.7 40l10.7-14.9 1.1 1.4c.1.1.2.4.6.2Z" fill="url(#S)"/><path d="M129 96.4c.2 1.1.4 2 .6 2.8.1.3 0 .7-.3 1-2.6 3.6-5.1 7.2-7.7 10.8-.3.4-.5.5-.8 0-1.3-1.4-1.4-1.4-.2-3l7.6-10.7.8-.9Z" fill="url(#T)"/><path d="M119 66.8c-.3-1-.5-1.9-.8-2.8-.1-.3 0-.6.2-.8l7.5-10.5c.3-.4.5-.4.9-.2 1.7 1 1.7 1 .5 2.5l-7.8 10.9-.5.9Z" fill="url(#U)"/><path d="m34.1 105.799 9.7-13.6c.4.8.8 1.6 1.2 2.3.2.3 0 .4-.2.6l-7.4 10.2c-.2.2-.3.4-.6.4l-2.7.1Z" fill="url(#V)"/><path d="M118 36.5c.2 1.7 1.5.6 2.2 1.2 0 .2-.2.3-.3.5-2.8 3.9-5.5 7.7-8.3 11.6-.4.5-.6.6-1.1 0-1.1-1.4-1.2-1.4-.1-2.9 2.5-3.3 5-6.8 7.6-10.4Z" fill="url(#W)"/><path d="M24.6 61.9c-.4-.9-.7-1.7-1-2.4-.1-.3-.1-.6.1-.8 2.4-3.4 4.9-6.8 7.3-10.2 3.6-5.1 0-.1.1-.1.9-.3 1.3.7 2 .9.4.1.2.4 0 .6l-8.5 12Z" fill="url(#X)"/><path d="M134.3 86c-.7-.2-1.3-.5-1.9-.8-.4-.2 0-.5.2-.7 1.8-2.6 3.7-5.1 5.6-7.8.7-1 1.5-2 2.1-3 .3-.4.5-.4.9-.1 1.6 1.1 1.6 1.1.4 2.7l-6.6 9.2c-.1.2-.2.5-.7.5Z" fill="url(#Y)"/><path d="M38.6 35.2c1.2-3.1 1.4-6.5 3.6-9.2 1.5-1.8 2.8-3.8 4.2-5.8.3-.5.5-.6.9 0 1.1 1.6 1.1 1.7 0 3.2l-7.9 11c-.2.4-.5.7-.8.8Z" fill="url(#Z)"/><path d="M48.5 120.201c0-.4.2-.5.3-.7 2.6-3.6 5.1-7.2 7.7-10.8.4-.5.6-.6 1.2-.2 1.4 1 1.4 1 .4 2.4l-5.4 7.5c-.4.6-1 1-1.7 1.2-.8.3-1.7.5-2.5.6Z" fill="url(#aa)"/><path d="m114.3 32.3-3.4 4.8c-1.7 2.3-3.4 4.7-5 7-.3.4-.5.6-1 .2-1.4-1.2-1.5-1.1-.4-2.6 1.7-2.3 3.2-4.6 4.9-6.8.5-.6.8-1.4 1.8-1.5 1.1-.2 1.9-.8 3.1-1.1Z" fill="url(#ab)"/><path d="m100.299 24.4-4.8 6.8c-1.3 1.8-2.5 3.5-3.8 5.3-.2.4-.6.6-1.1.4-2-.6-2-.5-.8-2.2l3.6-5.1c1.8-2.3 4.1-4.2 6.8-5.5l.1.3Z" fill="url(#ac)"/><path d="m136 86.5 5.3-7.4c.7-1 1.5-2.1 2.2-3.1.3-.4.4-.5.9-.2 1.7 1 1.7 1 .6 2.6-1.9 2.7-3.8 5.3-5.7 8-.3.6-.9.8-1.5.6-.5-.3-1.1-.3-1.8-.5Z" fill="url(#ad)"/><path d="M130 101.9c1.3 2.4.3 4.2-1.2 6.1-1.5 1.9-3.1 4.2-4.6 6.3-.3.5-.5.6-.8 0-1.1-1.7-1.2-1.7 0-3.2l6.2-8.6c.1-.3.3-.5.4-.6Z" fill="url(#ae)"/><path d="m21.5 93.5-6.6 9.3c-.2.4-.5.7-.8 1.1-.3.4-.5 1.1-1 1.1-.7-.1-1.4-.4-2.1-.7-.3-.1-.1-.3 0-.5l6.1-8.5c0-.1.1-.2.2-.3 1.6-.5 2.8-1.3 4.2-1.5Z" fill="url(#af)"/><path d="M33.7 90.3c-.4-.7-.8-1.3-1.3-1.8-.3-.2-.3-.4 0-.7 2.6-3.5 5.1-7.1 7.8-10.9.1 1.4.2 2.6.3 3.8 0 .1-.1.3-.2.4l-6.6 9.2Z" fill="url(#ag)"/><path d="m136.6 51.6 7-9.7c.4-.5.8-1.1 1.2-1.7.3-.8 1.2-1.2 2-1 .5.1 1 .1 1.7.2l-3.8 5.3c-.1.1-.2.2-.4.2-1.4.3-2.1 1.4-2.5 2.6-.9 2.1-2.9 3.7-5.2 4.1Z" fill="url(#ah)"/><path d="M22.9 57.5c-.3-1.1-.5-2-.7-2.8-.1-.3 0-.5.2-.7l6.5-9.1.2-.2c.3.7.6 1.4 1.1 2 .2.2.2.5 0 .7l-7.3 10.1Z" fill="url(#ai)"/><path d="M21.8 52.2c-.2-1.2-.3-2.5-.2-3.8 0-.2.1-.4.2-.6 2.2-3.1 4.4-6.2 6.8-9.2v3.8c0 .2-.1.3-.2.5l-6.6 9.3Z" fill="url(#aj)"/><path d="M103.7 138.801c-.6 1.7-1 3.5-1.1 5.3-.1.3-.2.6-.4.8-1.5 2.1-3.1 4.2-4.6 6.4-.3.5-.6.5-1 .2-1.5-1.1-1.5-1.1-.4-2.5 2.3-3.2 4.6-6.4 6.8-9.5.2-.2.4-.4.6-.7h.1Z" fill="url(#ak)"/><path d="m142.8 87.6-2-.2c-.5 0-.5-.2-.2-.6l6.4-8.9c.2-.3.4-.4.7-.2h.2c1.7.9 1.7.9.6 2.4l-4.8 6.7c-.2.6-.4.9-.9.8Z" fill="url(#al)"/><path d="M45.9 96.2c.5.7.9 1.3 1.3 1.9.2.3.1.5 0 .7l-4.8 6.699c-.1.3-.4.4-.7.4h-2c-.7 0-.5-.2-.3-.5l.8-1.1 5.7-8.1Z" fill="url(#am)"/><path d="M126 118.401c-.4-.6-.8-1.3-1.2-1.9-.2-.2-.2-.5 0-.7 2-2.8 4.1-5.6 6.2-8.5.2 1.2.4 2.3.6 3.4 0 .2-.1.4-.2.6l-5.1 7.1h-.3Z" fill="url(#an)"/><path d="M20.6 83.6c1.4-1.9 2.7-3.8 4.1-5.7.5-.6 1-1.3 1.4-2 .2-.5.7-.7 1.2-.5 0 0 .1 0 .1.1 1.7.6 1.7.6.7 2.1-1.4 2-2.9 4-4.2 6-.2.5-.8.7-1.3.5h-.1c-.7-.2-1.3-.3-1.9-.5Z" fill="url(#ao)"/><path d="m24.9 75.1-5.5 7.7c-.1.2-.4.3-.7.2-2.2-.6-2.2-.6-.9-2.4 1.1-1.5 2.2-3 3.2-4.5.3-.6 1-1 1.7-1h2.2Z" fill="url(#ap)"/><path d="m145 87.7 3.2-4.5c.7-1.1 1.5-2.1 2.3-3.2.3-.4.4-.4.8-.2 1.7 1 1.7 1 .6 2.6s-2.3 3.1-3.4 4.7c-.3.6-.9.9-1.5.7-.6 0-1.2 0-2-.1Z" fill="url(#aq)"/><path d="m75 124.001 5.9-8.2c.1-.2.3-.3.5-.3l2.8-.2c0 .5-.4.7-.6 1.1-.4.6-.8 1.1-1.2 1.7-1.1 2.1-2.9 3.8-5.1 4.7-.8.4-1.5.8-2.2 1.4l-.1-.2Z" fill="url(#ar)"/><path d="m15.3 95.4-5.5 7.701c-.2.2-.3.3-.6.1-1.9-.9-1.9-.9-.7-2.6 1.2-1.7 2.2-3.1 3.4-4.7.2-.3.5-.5.8-.6.8.1 1.7.1 2.6.1Z" fill="url(#as)"/><path d="M82.9 123.699c.3-.7.6-1.4 1.1-2 .2-.4.1-.5-.3-.6l-1.7-.1c.2-.5.5-.9.8-1.3l3-4.2c.3-.4.7-.7 1.1-.7.9-.2 1.9-.4 3-.6-2.3 3.3-4.6 6.5-6.8 9.6l-.2-.1Z" fill="url(#at)"/><path d="m62.6 111.4-3.6 5.1-.3.3c-1.3.5-2.7 1-4 1.4l2.5-3.5c.9-1.3 1.9-2.6 2.8-3.9.3-.5.6-.6 1.1-.2.4.3 1 .5 1.5.8Z" fill="url(#au)"/><path d="M115.6 108.4c.3 1 .4 2 .6 3.1 0 .3-.1.5-.3.7-1.2 1.7-2.3 3.2-3.4 4.9-.3.4-.5.6-.9 0-.1-.2-.3-.3-.4-.4-1-.9-1-.9-.2-2l4.1-5.7c.2-.3.3-.5.5-.6Z" fill="url(#av)"/><path d="M131.9 112.801c.2 1.1.4 2.1.6 3 .1.3 0 .6-.3.9-1.2 1.6-2.3 3.2-3.4 4.8-.2.3-.4.4-.7 0-1.3-1.7-1.3-1.7-.1-3.4l3.9-5.3Z" fill="url(#aw)"/><path d="M115 27.1c2.9-3.8 5.4-7.9 8.7-11.7 0 .6-.1 1.2-.3 1.7-1.4 4.2-4.2 7.7-7.9 10-.2-.1-.4.1-.5 0Z" fill="url(#ax)"/><path d="M48.3 99.7c1.7 1.999 1.7 1.999.3 3.999-.6.9-1.3 1.7-1.9 2.6-.2.3-.4.4-.8.3-.2-.1-.4-.1-.6-.2-1.6-.4-1.6-.4-.7-1.7 1.3-1.7 2.5-3.3 3.7-5Z" fill="url(#ay)"/><path d="M149.6 88.1c1.5-2.1 2.9-4 4.3-6 0 0 0-.1.1-.1.8 0 1.1.7 1.7 1 .3.2.4.4.2.7-1.1 1.4-2.1 2.9-3.1 4.4-.2.2-.4.3-.7.2l-2.5-.2Z" fill="url(#az)"/><path d="M10.5 95.3c-1.4 1.9-2.7 3.7-4 5.501 0 .1-.2.3-.2.3-.7-.2-1.1-.8-1.6-1.3s-.3-.4 0-.7c1-1.3 1.9-2.6 2.8-3.9.2-.3.5-.4.8-.3l2.2.4Z" fill="url(#aA)"/><path d="M102.6 147.3v5.8c0 .8-.3 1-1 .7-.7-.3-1.7-.6-2.5-1-.3-.1-.5-.2-.2-.6l3.7-5.1v.2Z" fill="url(#aB)"/><path d="m19.6 75.7-4 5.6c-.1.2-.3.2-.5.1H15l-1.4-1c-.3-.2-.2-.4 0-.7.7-.9 1.3-1.8 2-2.7.1-.1.3-.2.4-.3l3.6-1Z" fill="url(#aC)"/><path d="M46.7 133.5c-1.3 2.1-2.8 3.9-4.1 5.9-.1.2-.4.3-.7.3l-2.3-.4c1-1.3 1.5-2.8 3.1-3.4 1.4-.7 2.7-1.5 4-2.4Z" fill="url(#aD)"/><path d="M133 118.199c.3 1 .5 1.9.8 2.8.1.3 0 .5-.2.7-.6.9-1.3 1.8-1.9 2.7-.2.3-.4.4-.8.1-1.5-1.1-1.6-1.3-.5-2.8l2.6-3.5Z" fill="url(#aE)"/><path d="M22.2 44.7c1.1-4.5 3.8-7.7 6.4-11.1.2 1.2-.1 2.5-1 3.4l-5.4 7.7Z" fill="url(#aF)"/><path d="m130.3 91.7-2-.6c-.3-.1-.2-.3 0-.5l3.1-4.3c.3-.4.4-.4.6 0 .2.4.5 1.2.8 1.7.1.2.1.5 0 .7-.7.9-1.3 1.9-2 2.8-.1.2-.3.3-.5.2Z" fill="url(#aG)"/><path d="M41.6 24.5c.2-1.1.3-2.2.3-3.3-.1-1 .2-2 .9-2.8 1.1-1.4 1-1.4 2.5-.4.5.3.6.6.2 1.1-1.3 1.7-2.6 3.5-3.9 5.4Z" fill="url(#aH)"/><path d="M152.6 40.4c-.8 1.2-1.6 2.2-2.3 3.2-.1.2-.4.4-.7.4l-2.9.2c1.1-1.5 2.1-3 3.1-4.4.2-.3.4-.2.6-.1.7.3 1.4.5 2.2.7Z" fill="url(#aI)"/><path d="M116.3 114.1c.3 2.9-.6 5.7-2.6 7.8-.3-.9-.6-1.7-.9-2.7 0-.2 0-.4.1-.5l3.4-4.6Z" fill="url(#aJ)"/><path d="M66.4 113.001c-.8 1.1-1.5 2.1-2.2 3.1-.1.2-.2.4-.5.2-.8-.3-1.7-.4-2.6-.2l2.8-3.9c.1-.2.3-.2.5-.1l2 .9Z" fill="url(#aK)"/><path d="m156.6 89.1-2.1-.5c-.4-.1-.3-.3-.1-.5l2.5-3.4c.3-.4.4-.3.7 0 1.4 1.4 1.4 1.4.2 3l-.8 1.1c0 .2-.1.4-.4.3Z" fill="url(#aL)"/><path d="M3.4 98.3c-.5-.6-1-1.2-1.4-1.9-.3-.5.1-.7.3-1 .5-.6.7-1.7 1.7-1.8.6 0 1.3.4 1.9.6.3.1.3.3.1.5l-2.6 3.6Z" fill="url(#aM)"/><path d="m133.9 62.2 2.9-4c.1-.2.3-.3.5-.2 0 0 .1 0 .1.1.5.4 1.4.5 1.6 1.3.1.5-1.5 2-2.1 2.1l-3 .7Z" fill="url(#aN)"/><path d="M113.2 87.4c.3 1.5-.7 2.7-1.2 3.9 0 .1-.2.3-.3.2-.1-.1-.2-.2-.2-.4.1-1.8-.2-3.5-1-5.1-.3-.5-.4-1.1-.4-1.7.6.2 1.1.6 1.4 1.2.4.5.7 1.1 1 1.5.1.3.2.7.7.4Z" fill="url(#aO)"/><path d="M64.6 12.9c-2.7 3.7-5.4 7.5-8.1 11.2.7-2.8 4.7-8.4 8.1-11.2Z" fill="url(#aP)"/><path d="M123.8 32.7c-.3 1-1.2 1.7-2.1 1.9-1 .3-2 .6-2.9 1l2.1-3c.2-.3.4-.3.7-.2l2.2.3Z" fill="url(#aQ)"/><path d="M151.9 43.9c.7-.9 1.3-1.7 1.8-2.6.2-.3.3-.3.6-.1l.4.2c1.7.8 1.7 1 .4 2.4-.2.2-.4.3-.6.2l-2.6-.1Z" fill="url(#aR)"/><path d="M134.5 122.9c.5 1.2 1.4 2.2 2.6 2.7-1.3.6-2.8.6-4.1.2-.4-.1-.4-.3-.2-.6.6-.7 1.1-1.4 1.7-2.3Z" fill="url(#aS)"/><path d="M33.1 118.3c1.9 0 3.8-.4 5.6-1.2-.4.9-1 1.7-1.6 2.5-.2.2-.4.1-.6 0-1.2-.3-2.3-.7-3.4-1.3Z" fill="url(#aT)"/><path d="M133.5 90c.6 1.4 1.1 2.9 1.4 4.5l-2.9-1.9c-.2-.1-.2-.3 0-.4l1.5-2.2Z" fill="url(#aU)"/><path d="M160.9 92c-.7-.8-1.5-1.5-2.4-2-.3-.2-.2-.3 0-.6l1.2-1.7c.8 1.3 1.2 2.8 1.2 4.3Z" fill="url(#aV)"/><path d="M84.9 93.9c1.2-1.3 1.9-2.9 2.3-4.6 0-.2.1-.3.3-.3.2 0 .3.2.3.3.1.6 0 1.2-.2 1.7-.5 1.1-1.2 2-2.2 2.8-.1.2-.3.2-.5.1Z" fill="url(#aW)"/><path d="M39.3 137.1c-.3.5-.6.8-.8 1.2-.1.3-.5.5-.9.4 0 0-.1 0-.1-.1-.4-.2-.8-.3-1.2-.4-.4-.2-.6 0-.6-.4s.5-.3.7-.3c1 0 1.9-.1 2.9-.4Z" fill="url(#aX)"/><path d="M11.4 76.2c.7.4 1.5.7 2.3.7-.4.7-.8 1.4-1.3 2-.6-.8-.9-1.7-1-2.7Z" fill="url(#aY)"/><path d="M1.2 94.7c-.5-.9-.9-1.9-1.2-2.9l2.1 1c.3.1.3.3.1.5l-1 1.4Z" fill="url(#aZ)"/><path d="M159.7 44.2c-1 0-1.9 0-2.9-.1.5-1.3.6-1.3 1.7-.6.4.1.8.4 1.2.7Z" fill="url(#ba)"/><path d="M48.6 62.3c0 .5.1 1-.6 1-.4 0-.9 0-.8-.6.1-.6.3-1.3.9-1.3.7 0 .2.7.5.9Z" fill="url(#bb)"/><path d="M40.4 16h.4c1.7.3 1.7.3.6 1.7-.3-.4-.6-1-1-1.7Z" fill="url(#bc)"/><path d="M124.9 33.6c.8-1 1.7-.3 2.3-.2l-2.3.2Z" fill="url(#bd)"/><path d="M49.5 64.7v-.5c0-.3-.1-.6.1-.9.2-.3.2 0 .2 0 .2.3.2.7 0 1 0 .1-.1.2-.3.4Z" fill="url(#be)"/><path d="M117.6 89.2v.1h-.1l.1-.1Z" fill="url(#bf)"/><path d="M74.1 26.7v-.1.1H74h.1Z" fill="url(#bg)"/><path d="M100.2 24.4s.1-.1.2 0l-.1.1-.1-.1Z" fill="url(#bh)"/><path d="M72.6 17.9v.1h-.1l.1-.1Z" fill="url(#bi)"/><path d="M87.2 127.7s0 .2-.1 0 0-.1 0-.2l.1.2Z" fill="url(#bj)"/><path d="M46.7 133.401s0-.1.1-.1l-.1.1Z" fill="url(#bk)"/><path d="m62.9 134.001.2-.2.1.1c-.1.1-.2.1-.3.1Z" fill="url(#bl)"/><path d="m96.2 112 .1-.1v.2l-.1-.1Z" fill="url(#bm)"/><path d="M103.6 138.7s0-.2.1-.1 0 .1 0 .2 0 0-.1-.1Z" fill="url(#bn)"/><path d="m108.6 125 .1-.1h-.1v.1Z" fill="url(#bo)"/><path d="M106.5 52.9c.3-.5.199-1.1-.301-1.5-8.5-8.8-18.9-12.9-31.1-11.2-12.5 1.7-21.5 8.6-27.2 19.8-.1.3-.5.6-.2.8.3.3.7.4 1.2.3.5-.1.9-.5 1.1-1 .1-.3.3-.5.5-.7 1.4-1 2.8-2.2 4-3.4.5-.5 1.3-.5 1.9 0 .2.2.3.4.4.7.3 1.2.4 2.4.3 3.7 0 .5-.2.9-.4 1.4-.2.5-.7.8-1.2.6-.2-.1-.4-.2-.5-.4-.2-.4-.4-.8-.6-1.3-.1-.5-.4-.9-.7-1.2-.5 1.2-2 2-1.3 3.8.3-.5.3-1.1.7-1.1.4 0 .4.5.6.8l.4.6c.8-.9 1.1-.9 2.2-.4.1 0 .2 0 .3.2.4.5.6.3.9-.1.3-.4.7-.7 1.1-.8.2-.1.4 0 .5.2.1.1 0 .3-.1.4h-.1c-.2.1-.3.1-.5.1-.5 0-.7.3-.6.9.2.5.6.6 1 .4.5-.2 1-.3 1.5-.2 1.3.4 2.5 1 3.5 1.9H55c-.5 0-.7 0-.7.7v15.9c0 .5.2.7.7.7h14.9c.5 0 .6-.2.6-.6v-2.7c0-.6-.2-.7-.7-.7h-6.5c-1.9 0-1.8 0-1.9-1.9 0-.7.2-.8.8-.8h6.9c.6 0 .8-.1.8-.8-.1-.8-.1-1.5 0-2.3 0-.7-.1-.9-.9-.9h-6c-1.7 0-1.7 0-1.7-1.7 0-.7.2-.9.9-.9h7.3c.3 0 .8.1.7-.4-.2-1.3.7-2.1 1.3-3.1.4-.9 1.3-1.4 2.3-1.2h.4c.4-.7 1-.5 1.7-.5.3 0 .7 0 .5-.4-.2-.4.2-.7.5-1 .6-.4 1.3-.6 2-.8 1.4-.2 2.6-1 3.3-2.2.4.6 1.1 1 1.9 1 1.1 0 1.4.7 1 1.7-.2.5-.6.9-.6 1.5 1 .1 2.1.3 3.1.5.8.2 1.6-.2 1.9-1 .1-.3.5-.6.8-.5.8 0 1.1.5 1.3 1.1.1.6.4 1.2.9 1.6.4.2.7.2.7-.3 0-.6 0-1 .7-1.2.5-.2.9-.6 1.3-.9.3-.3.7-.5.1-1-.3-.2-.2-.6 0-.9.9-.6 1.8-1.1 2.9-1.4h.2c1.4.6 1.7.5 2.5-.8l.3-.5c.3-.6 1-.9 1.6-.7.1 0 .201.1.301.2.2.1.399.3.599 0 .5-.8 1.5-1.2 1.7-2.2 0-.2 0-.2.3-.2s.7-.2 1-.4c-.9-.8-1-1.2-.5-2.3 0-.3.201-.7.301-1ZM69.7 66.2h-1.2l1.5-1.4c.4-.4.7-.2.7.3 0 .6-.4 1.1-1 1.1Zm-5.3-2.8c-.9-1.3-.8-1.5.4-2.3 1.2-.9 2.5-1.6 4-2 1-.2 2-.1 2.9.3-2.9.6-6.2.3-7.3 4Zm8.1-8.2H72c-.6-.1-.8.2-.7.7 0 .6.2.9-.2 1.1-.6.1-1.1.1-1.7 0-.3 0-.2-.3-.2-.5v-4.9c0-.3 0-.6.4-.6 1.1-.1 2.2 0 3.2.1 1.2.1 2.1 1.1 2 2.2-.1 1.2-1.1 2-2.3 1.9Zm8.1 3.6c-.5-.2-.7-.4-.6-.8 0-.2.2-.3.4-.3h.1c.3.3.1.7.1 1.1Zm2.3-1.7c-.6 0-1.3.3-1.5-.7 0-.2-.5-.3-1-.3s-.9.3-1.1.8c0 .3-1 .4-1.6.3H77.4c-.2-.2 0-.3 0-.5l1.8-5.1c.2-.7.8-.5 1.2-.5.9-.3 1.2.2 1.5 1 .5 1.5 1 2.9 1.6 4.4.1.5-.1.7-.6.6Zm6.7.1c-1.7.1-3.1-1.2-3.2-2.9V54c0-1.8 1.3-3.2 3.1-3.3h.2c1.8.1 3.2 1.5 3.2 3.3.1 1.7-1.3 3.2-3 3.2-.2.1-.3.1-.3 0Z" fill="url(#bp)"/><path d="M88.4 54.1c0-.4.1-.7.2-1 .2-.4.6-.6 1-.6s.8.3 1 .7c.3.7.3 1.4 0 2.1-.1.4-.5.6-.9.6s-.8-.2-1-.6c-.2-.5-.3-.8-.3-1.2Z" fill="url(#bq)"/><path d="M71.8 53.8c-.5.1-.6-.2-.6-.7 0-.4 0-.7.6-.7s.9.1.9.7-.4.7-.9.7Z" fill="url(#br)"/><path d="m80.3 53.1.3 1c.3 1.1.3 1.1-.9.8l.6-1.8Z" fill="url(#bs)"/><defs><linearGradient id="aj" x1="5.893" y1="45.257" x2="171.44" y2="46.263" gradientUnits="userSpaceOnUse"><stop stop-color="#1C8AE2"/><stop offset=".486" stop-color="#8B00B3"/><stop offset="1" stop-color="#6900B5"/></linearGradient><linearGradient id="a" x1="5.588" y1="95.565" x2="171.134" y2="96.571" gradientUnits="userSpaceOnUse"><stop stop-color="#1C8AE2"/><stop offset=".486" stop-color="#8B00B3"/><stop offset="1" stop-color="#6900B5"/></linearGradient><linearGradient id="c" x1="5.531" y1="104.812" x2="171.078" y2="105.818" gradientUnits="userSpaceOnUse"><stop stop-color="#1C8AE2"/><stop offset=".486" stop-color="#8B00B3"/><stop offset="1" stop-color="#6900B5"/></linearGradient><linearGradient id="d" x1="5.925" y1="40.051" x2="171.471" y2="41.058" gradientUnits="userSpaceOnUse"><stop stop-color="#1C8AE2"/><stop offset=".486" stop-color="#8B00B3"/><stop offset="1" stop-color="#6900B5"/></linearGradient><linearGradient id="e" x1="5.717" y1="74.249" x2="171.264" y2="75.255" gradientUnits="userSpaceOnUse"><stop stop-color="#1C8AE2"/><stop offset=".486" stop-color="#8B00B3"/><stop offset="1" stop-color="#6900B5"/></linearGradient><linearGradient id="f" x1="5.573" y1="97.89" x2="171.119" y2="98.896" gradientUnits="userSpaceOnUse"><stop stop-color="#1C8AE2"/><stop offset=".486" stop-color="#8B00B3"/><stop offset="1" stop-color="#6900B5"/></linearGradient><linearGradient id="g" x1="5.877" y1="47.906" x2="171.424" y2="48.913" gradientUnits="userSpaceOnUse"><stop stop-color="#1C8AE2"/><stop offset=".486" stop-color="#8B00B3"/><stop offset="1" stop-color="#6900B5"/></linearGradient><linearGradient id="h" x1="6.058" y1="18.227" x2="171.604" y2="19.233" gradientUnits="userSpaceOnUse"><stop stop-color="#1C8AE2"/><stop offset=".486" stop-color="#8B00B3"/><stop offset="1" stop-color="#6900B5"/></linearGradient><linearGradient id="i" x1="5.842" y1="53.709" x2="171.389" y2="54.715" gradientUnits="userSpaceOnUse"><stop stop-color="#1C8AE2"/><stop offset=".486" stop-color="#8B00B3"/><stop offset="1" stop-color="#6900B5"/></linearGradient><linearGradient id="j" x1="5.401" y1="126.366" x2="170.947" y2="127.373" gradientUnits="userSpaceOnUse"><stop stop-color="#1C8AE2"/><stop offset=".486" stop-color="#8B00B3"/><stop offset="1" stop-color="#6900B5"/></linearGradient><linearGradient id="k" x1="5.374" y1="130.538" x2="170.921" y2="131.544" gradientUnits="userSpaceOnUse"><stop stop-color="#1C8AE2"/><stop offset=".486" stop-color="#8B00B3"/><stop offset="1" stop-color="#6900B5"/></linearGradient><linearGradient id="l" x1="5.973" y1="32.199" x2="171.52" y2="33.206" gradientUnits="userSpaceOnUse"><stop stop-color="#1C8AE2"/><stop offset=".486" stop-color="#8B00B3"/><stop offset="1" stop-color="#6900B5"/></linearGradient><linearGradient id="m" x1="5.734" y1="71.431" x2="171.281" y2="72.437" gradientUnits="userSpaceOnUse"><stop stop-color="#1C8AE2"/><stop offset=".486" stop-color="#8B00B3"/><stop offset="1" stop-color="#6900B5"/></linearGradient><linearGradient id="n" x1="5.402" y1="126.09" x2="170.949" y2="127.097" gradientUnits="userSpaceOnUse"><stop stop-color="#1C8AE2"/><stop offset=".486" stop-color="#8B00B3"/><stop offset="1" stop-color="#6900B5"/></linearGradient><linearGradient id="o" x1="5.869" y1="49.369" x2="171.415" y2="50.376" gradientUnits="userSpaceOnUse"><stop stop-color="#1C8AE2"/><stop offset=".486" stop-color="#8B00B3"/><stop offset="1" stop-color="#6900B5"/></linearGradient><linearGradient id="p" x1="5.595" y1="94.351" x2="171.141" y2="95.357" gradientUnits="userSpaceOnUse"><stop stop-color="#1C8AE2"/><stop offset=".486" stop-color="#8B00B3"/><stop offset="1" stop-color="#6900B5"/></linearGradient><linearGradient id="q" x1="5.984" y1="30.349" x2="171.53" y2="31.355" gradientUnits="userSpaceOnUse"><stop stop-color="#1C8AE2"/><stop offset=".486" stop-color="#8B00B3"/><stop offset="1" stop-color="#6900B5"/></linearGradient><linearGradient id="r" x1="5.761" y1="67.004" x2="171.308" y2="68.011" gradientUnits="userSpaceOnUse"><stop stop-color="#1C8AE2"/><stop offset=".486" stop-color="#8B00B3"/><stop offset="1" stop-color="#6900B5"/></linearGradient><linearGradient id="s" x1="6.018" y1="24.802" x2="171.564" y2="25.808" gradientUnits="userSpaceOnUse"><stop stop-color="#1C8AE2"/><stop offset=".486" stop-color="#8B00B3"/><stop offset="1" stop-color="#6900B5"/></linearGradient><linearGradient id="t" x1="5.339" y1="136.39" x2="170.886" y2="137.397" gradientUnits="userSpaceOnUse"><stop stop-color="#1C8AE2"/><stop offset=".486" stop-color="#8B00B3"/><stop offset="1" stop-color="#6900B5"/></linearGradient><linearGradient id="u" x1="5.387" y1="128.457" x2="170.933" y2="129.463" gradientUnits="userSpaceOnUse"><stop stop-color="#1C8AE2"/><stop offset=".486" stop-color="#8B00B3"/><stop offset="1" stop-color="#6900B5"/></linearGradient><linearGradient id="v" x1="5.703" y1="76.399" x2="171.25" y2="77.405" gradientUnits="userSpaceOnUse"><stop stop-color="#1C8AE2"/><stop offset=".486" stop-color="#8B00B3"/><stop offset="1" stop-color="#6900B5"/></linearGradient><linearGradient id="w" x1="5.422" y1="122.795" x2="170.968" y2="123.801" gradientUnits="userSpaceOnUse"><stop stop-color="#1C8AE2"/><stop offset=".486" stop-color="#8B00B3"/><stop offset="1" stop-color="#6900B5"/></linearGradient><linearGradient id="x" x1="6.013" y1="25.65" x2="171.559" y2="26.656" gradientUnits="userSpaceOnUse"><stop stop-color="#1C8AE2"/><stop offset=".486" stop-color="#8B00B3"/><stop offset="1" stop-color="#6900B5"/></linearGradient><linearGradient id="y" x1="5.882" y1="47.123" x2="171.429" y2="48.13" gradientUnits="userSpaceOnUse"><stop stop-color="#1C8AE2"/><stop offset=".486" stop-color="#8B00B3"/><stop offset="1" stop-color="#6900B5"/></linearGradient><linearGradient id="z" x1="5.985" y1="30.118" x2="171.531" y2="31.124" gradientUnits="userSpaceOnUse"><stop stop-color="#1C8AE2"/><stop offset=".486" stop-color="#8B00B3"/><stop offset="1" stop-color="#6900B5"/></linearGradient><linearGradient id="A" x1="6.004" y1="27.18" x2="171.549" y2="28.186" gradientUnits="userSpaceOnUse"><stop stop-color="#1C8AE2"/><stop offset=".486" stop-color="#8B00B3"/><stop offset="1" stop-color="#6900B5"/></linearGradient><linearGradient id="B" x1="6.021" y1="24.34" x2="171.568" y2="25.346" gradientUnits="userSpaceOnUse"><stop stop-color="#1C8AE2"/><stop offset=".486" stop-color="#8B00B3"/><stop offset="1" stop-color="#6900B5"/></linearGradient><linearGradient id="C" x1="5.459" y1="116.676" x2="171.006" y2="117.683" gradientUnits="userSpaceOnUse"><stop stop-color="#1C8AE2"/><stop offset=".486" stop-color="#8B00B3"/><stop offset="1" stop-color="#6900B5"/></linearGradient><linearGradient id="D" x1="5.58" y1="96.82" x2="171.126" y2="97.826" gradientUnits="userSpaceOnUse"><stop stop-color="#1C8AE2"/><stop offset=".486" stop-color="#8B00B3"/><stop offset="1" stop-color="#6900B5"/></linearGradient><linearGradient id="E" x1="5.961" y1="34.036" x2="171.508" y2="35.042" gradientUnits="userSpaceOnUse"><stop stop-color="#1C8AE2"/><stop offset=".486" stop-color="#8B00B3"/><stop offset="1" stop-color="#6900B5"/></linearGradient><linearGradient id="F" x1="5.413" y1="124.182" x2="170.959" y2="125.189" gradientUnits="userSpaceOnUse"><stop stop-color="#1C8AE2"/><stop offset=".486" stop-color="#8B00B3"/><stop offset="1" stop-color="#6900B5"/></linearGradient><linearGradient id="G" x1="5.574" y1="97.835" x2="171.12" y2="98.841" gradientUnits="userSpaceOnUse"><stop stop-color="#1C8AE2"/><stop offset=".486" stop-color="#8B00B3"/><stop offset="1" stop-color="#6900B5"/></linearGradient><linearGradient id="H" x1="5.788" y1="62.614" x2="171.335" y2="63.62" gradientUnits="userSpaceOnUse"><stop stop-color="#1C8AE2"/><stop offset=".486" stop-color="#8B00B3"/><stop offset="1" stop-color="#6900B5"/></linearGradient><linearGradient id="I" x1="5.988" y1="29.686" x2="171.534" y2="30.692" gradientUnits="userSpaceOnUse"><stop stop-color="#1C8AE2"/><stop offset=".486" stop-color="#8B00B3"/><stop offset="1" stop-color="#6900B5"/></linearGradient><linearGradient id="J" x1="5.575" y1="97.66" x2="171.122" y2="98.666" gradientUnits="userSpaceOnUse"><stop stop-color="#1C8AE2"/><stop offset=".486" stop-color="#8B00B3"/><stop offset="1" stop-color="#6900B5"/></linearGradient><linearGradient id="K" x1="5.563" y1="99.459" x2="171.11" y2="100.465" gradientUnits="userSpaceOnUse"><stop stop-color="#1C8AE2"/><stop offset=".486" stop-color="#8B00B3"/><stop offset="1" stop-color="#6900B5"/></linearGradient><linearGradient id="L" x1="5.895" y1="45.107" x2="171.441" y2="46.114" gradientUnits="userSpaceOnUse"><stop stop-color="#1C8AE2"/><stop offset=".486" stop-color="#8B00B3"/><stop offset="1" stop-color="#6900B5"/></linearGradient><linearGradient id="M" x1="5.694" y1="78.133" x2="171.241" y2="79.14" gradientUnits="userSpaceOnUse"><stop stop-color="#1C8AE2"/><stop offset=".486" stop-color="#8B00B3"/><stop offset="1" stop-color="#6900B5"/></linearGradient><linearGradient id="N" x1="5.932" y1="38.951" x2="171.478" y2="39.957" gradientUnits="userSpaceOnUse"><stop stop-color="#1C8AE2"/><stop offset=".486" stop-color="#8B00B3"/><stop offset="1" stop-color="#6900B5"/></linearGradient><linearGradient id="O" x1="5.482" y1="112.952" x2="171.028" y2="113.958" gradientUnits="userSpaceOnUse"><stop stop-color="#1C8AE2"/><stop offset=".486" stop-color="#8B00B3"/><stop offset="1" stop-color="#6900B5"/></linearGradient><linearGradient id="P" x1="5.491" y1="111.474" x2="171.037" y2="112.481" gradientUnits="userSpaceOnUse"><stop stop-color="#1C8AE2"/><stop offset=".486" stop-color="#8B00B3"/><stop offset="1" stop-color="#6900B5"/></linearGradient><linearGradient id="Q" x1="5.897" y1="44.691" x2="171.443" y2="45.697" gradientUnits="userSpaceOnUse"><stop stop-color="#1C8AE2"/><stop offset=".486" stop-color="#8B00B3"/><stop offset="1" stop-color="#6900B5"/></linearGradient><linearGradient id="R" x1="5.896" y1="44.775" x2="171.443" y2="45.781" gradientUnits="userSpaceOnUse"><stop stop-color="#1C8AE2"/><stop offset=".486" stop-color="#8B00B3"/><stop offset="1" stop-color="#6900B5"/></linearGradient><linearGradient id="S" x1="5.973" y1="32.148" x2="171.52" y2="33.154" gradientUnits="userSpaceOnUse"><stop stop-color="#1C8AE2"/><stop offset=".486" stop-color="#8B00B3"/><stop offset="1" stop-color="#6900B5"/></linearGradient><linearGradient id="T" x1="5.541" y1="103.106" x2="171.088" y2="104.112" gradientUnits="userSpaceOnUse"><stop stop-color="#1C8AE2"/><stop offset=".486" stop-color="#8B00B3"/><stop offset="1" stop-color="#6900B5"/></linearGradient><linearGradient id="U" x1="5.811" y1="58.862" x2="171.357" y2="59.869" gradientUnits="userSpaceOnUse"><stop stop-color="#1C8AE2"/><stop offset=".486" stop-color="#8B00B3"/><stop offset="1" stop-color="#6900B5"/></linearGradient><linearGradient id="V" x1="5.567" y1="98.818" x2="171.114" y2="99.824" gradientUnits="userSpaceOnUse"><stop stop-color="#1C8AE2"/><stop offset=".486" stop-color="#8B00B3"/><stop offset="1" stop-color="#6900B5"/></linearGradient><linearGradient id="W" x1="5.909" y1="42.718" x2="171.455" y2="43.725" gradientUnits="userSpaceOnUse"><stop stop-color="#1C8AE2"/><stop offset=".486" stop-color="#8B00B3"/><stop offset="1" stop-color="#6900B5"/></linearGradient><linearGradient id="X" x1="5.841" y1="53.921" x2="171.387" y2="54.927" gradientUnits="userSpaceOnUse"><stop stop-color="#1C8AE2"/><stop offset=".486" stop-color="#8B00B3"/><stop offset="1" stop-color="#6900B5"/></linearGradient><linearGradient id="Y" x1="5.688" y1="78.896" x2="171.235" y2="79.903" gradientUnits="userSpaceOnUse"><stop stop-color="#1C8AE2"/><stop offset=".486" stop-color="#8B00B3"/><stop offset="1" stop-color="#6900B5"/></linearGradient><linearGradient id="Z" x1="6.002" y1="27.289" x2="171.548" y2="28.296" gradientUnits="userSpaceOnUse"><stop stop-color="#1C8AE2"/><stop offset=".486" stop-color="#8B00B3"/><stop offset="1" stop-color="#6900B5"/></linearGradient><linearGradient id="aa" x1="5.476" y1="113.915" x2="171.022" y2="114.921" gradientUnits="userSpaceOnUse"><stop stop-color="#1C8AE2"/><stop offset=".486" stop-color="#8B00B3"/><stop offset="1" stop-color="#6900B5"/></linearGradient><linearGradient id="ab" x1="5.939" y1="37.805" x2="171.485" y2="38.811" gradientUnits="userSpaceOnUse"><stop stop-color="#1C8AE2"/><stop offset=".486" stop-color="#8B00B3"/><stop offset="1" stop-color="#6900B5"/></linearGradient><linearGradient id="ac" x1="5.985" y1="30.081" x2="171.531" y2="31.087" gradientUnits="userSpaceOnUse"><stop stop-color="#1C8AE2"/><stop offset=".486" stop-color="#8B00B3"/><stop offset="1" stop-color="#6900B5"/></linearGradient><linearGradient id="ad" x1="5.68" y1="80.513" x2="171.225" y2="81.519" gradientUnits="userSpaceOnUse"><stop stop-color="#1C8AE2"/><stop offset=".486" stop-color="#8B00B3"/><stop offset="1" stop-color="#6900B5"/></linearGradient><linearGradient id="ae" x1="5.514" y1="107.539" x2="171.062" y2="108.545" gradientUnits="userSpaceOnUse"><stop stop-color="#1C8AE2"/><stop offset=".486" stop-color="#8B00B3"/><stop offset="1" stop-color="#6900B5"/></linearGradient><linearGradient id="af" x1="5.566" y1="99.079" x2="171.113" y2="100.085" gradientUnits="userSpaceOnUse"><stop stop-color="#1C8AE2"/><stop offset=".486" stop-color="#8B00B3"/><stop offset="1" stop-color="#6900B5"/></linearGradient><linearGradient id="ag" x1="5.661" y1="83.446" x2="171.209" y2="84.452" gradientUnits="userSpaceOnUse"><stop stop-color="#1C8AE2"/><stop offset=".486" stop-color="#8B00B3"/><stop offset="1" stop-color="#6900B5"/></linearGradient><linearGradient id="ah" x1="5.897" y1="44.495" x2="171.444" y2="45.501" gradientUnits="userSpaceOnUse"><stop stop-color="#1C8AE2"/><stop offset=".486" stop-color="#8B00B3"/><stop offset="1" stop-color="#6900B5"/></linearGradient><linearGradient id="ai" x1="5.859" y1="50.949" x2="171.406" y2="51.956" gradientUnits="userSpaceOnUse"><stop stop-color="#1C8AE2"/><stop offset=".486" stop-color="#8B00B3"/><stop offset="1" stop-color="#6900B5"/></linearGradient><linearGradient id="b" x1="5.712" y1="75.047" x2="171.259" y2="76.053" gradientUnits="userSpaceOnUse"><stop stop-color="#1C8AE2"/><stop offset=".486" stop-color="#8B00B3"/><stop offset="1" stop-color="#6900B5"/></linearGradient><linearGradient id="ak" x1="5.289" y1="144.659" x2="170.835" y2="145.665" gradientUnits="userSpaceOnUse"><stop stop-color="#1C8AE2"/><stop offset=".486" stop-color="#8B00B3"/><stop offset="1" stop-color="#6900B5"/></linearGradient><linearGradient id="al" x1="5.671" y1="81.815" x2="171.218" y2="82.821" gradientUnits="userSpaceOnUse"><stop stop-color="#1C8AE2"/><stop offset=".486" stop-color="#8B00B3"/><stop offset="1" stop-color="#6900B5"/></linearGradient><linearGradient id="am" x1="5.555" y1="100.799" x2="171.102" y2="101.805" gradientUnits="userSpaceOnUse"><stop stop-color="#1C8AE2"/><stop offset=".486" stop-color="#8B00B3"/><stop offset="1" stop-color="#6900B5"/></linearGradient><linearGradient id="an" x1="5.487" y1="112.098" x2="171.034" y2="113.105" gradientUnits="userSpaceOnUse"><stop stop-color="#1C8AE2"/><stop offset=".486" stop-color="#8B00B3"/><stop offset="1" stop-color="#6900B5"/></linearGradient><linearGradient id="ao" x1="5.683" y1="79.738" x2="171.229" y2="80.745" gradientUnits="userSpaceOnUse"><stop stop-color="#1C8AE2"/><stop offset=".486" stop-color="#8B00B3"/><stop offset="1" stop-color="#6900B5"/></linearGradient><linearGradient id="ap" x1="5.689" y1="79.003" x2="171.234" y2="80.009" gradientUnits="userSpaceOnUse"><stop stop-color="#1C8AE2"/><stop offset=".486" stop-color="#8B00B3"/><stop offset="1" stop-color="#6900B5"/></linearGradient><linearGradient id="aq" x1="5.666" y1="82.975" x2="171.21" y2="83.981" gradientUnits="userSpaceOnUse"><stop stop-color="#1C8AE2"/><stop offset=".486" stop-color="#8B00B3"/><stop offset="1" stop-color="#6900B5"/></linearGradient><linearGradient id="ar" x1="5.444" y1="119.256" x2="170.989" y2="120.262" gradientUnits="userSpaceOnUse"><stop stop-color="#1C8AE2"/><stop offset=".486" stop-color="#8B00B3"/><stop offset="1" stop-color="#6900B5"/></linearGradient><linearGradient id="as" x1="5.565" y1="99.342" x2="171.11" y2="100.348" gradientUnits="userSpaceOnUse"><stop stop-color="#1C8AE2"/><stop offset=".486" stop-color="#8B00B3"/><stop offset="1" stop-color="#6900B5"/></linearGradient><linearGradient id="at" x1="5.449" y1="118.474" x2="170.994" y2="119.48" gradientUnits="userSpaceOnUse"><stop stop-color="#1C8AE2"/><stop offset=".486" stop-color="#8B00B3"/><stop offset="1" stop-color="#6900B5"/></linearGradient><linearGradient id="au" x1="5.476" y1="113.933" x2="171.023" y2="114.939" gradientUnits="userSpaceOnUse"><stop stop-color="#1C8AE2"/><stop offset=".486" stop-color="#8B00B3"/><stop offset="1" stop-color="#6900B5"/></linearGradient><linearGradient id="av" x1="5.487" y1="112.261" x2="171.032" y2="113.267" gradientUnits="userSpaceOnUse"><stop stop-color="#1C8AE2"/><stop offset=".486" stop-color="#8B00B3"/><stop offset="1" stop-color="#6900B5"/></linearGradient><linearGradient id="aw" x1="5.46" y1="116.548" x2="171.007" y2="117.555" gradientUnits="userSpaceOnUse"><stop stop-color="#1C8AE2"/><stop offset=".486" stop-color="#8B00B3"/><stop offset="1" stop-color="#6900B5"/></linearGradient><linearGradient id="ax" x1="6.044" y1="20.541" x2="171.59" y2="21.547" gradientUnits="userSpaceOnUse"><stop stop-color="#1C8AE2"/><stop offset=".486" stop-color="#8B00B3"/><stop offset="1" stop-color="#6900B5"/></linearGradient><linearGradient id="ay" x1="5.543" y1="102.893" x2="171.09" y2="103.9" gradientUnits="userSpaceOnUse"><stop stop-color="#1C8AE2"/><stop offset=".486" stop-color="#8B00B3"/><stop offset="1" stop-color="#6900B5"/></linearGradient><linearGradient id="az" x1="5.657" y1="84.23" x2="171.202" y2="85.237" gradientUnits="userSpaceOnUse"><stop stop-color="#1C8AE2"/><stop offset=".486" stop-color="#8B00B3"/><stop offset="1" stop-color="#6900B5"/></linearGradient><linearGradient id="aA" x1="5.573" y1="97.94" x2="171.121" y2="98.947" gradientUnits="userSpaceOnUse"><stop stop-color="#1C8AE2"/><stop offset=".486" stop-color="#8B00B3"/><stop offset="1" stop-color="#6900B5"/></linearGradient><linearGradient id="aB" x1="5.256" y1="149.969" x2="170.805" y2="150.976" gradientUnits="userSpaceOnUse"><stop stop-color="#1C8AE2"/><stop offset=".486" stop-color="#8B00B3"/><stop offset="1" stop-color="#6900B5"/></linearGradient><linearGradient id="aC" x1="5.691" y1="78.565" x2="171.237" y2="79.571" gradientUnits="userSpaceOnUse"><stop stop-color="#1C8AE2"/><stop offset=".486" stop-color="#8B00B3"/><stop offset="1" stop-color="#6900B5"/></linearGradient><linearGradient id="aD" x1="5.34" y1="136.319" x2="170.885" y2="137.325" gradientUnits="userSpaceOnUse"><stop stop-color="#1C8AE2"/><stop offset=".486" stop-color="#8B00B3"/><stop offset="1" stop-color="#6900B5"/></linearGradient><linearGradient id="aE" x1="5.434" y1="120.692" x2="170.982" y2="121.698" gradientUnits="userSpaceOnUse"><stop stop-color="#1C8AE2"/><stop offset=".486" stop-color="#8B00B3"/><stop offset="1" stop-color="#6900B5"/></linearGradient><linearGradient id="aF" x1="5.931" y1="39.032" x2="171.478" y2="40.038" gradientUnits="userSpaceOnUse"><stop stop-color="#1C8AE2"/><stop offset=".486" stop-color="#8B00B3"/><stop offset="1" stop-color="#6900B5"/></linearGradient><linearGradient id="aG" x1="5.632" y1="88.126" x2="171.179" y2="89.132" gradientUnits="userSpaceOnUse"><stop stop-color="#1C8AE2"/><stop offset=".486" stop-color="#8B00B3"/><stop offset="1" stop-color="#6900B5"/></linearGradient><linearGradient id="aH" x1="6.042" y1="20.678" x2="171.589" y2="21.685" gradientUnits="userSpaceOnUse"><stop stop-color="#1C8AE2"/><stop offset=".486" stop-color="#8B00B3"/><stop offset="1" stop-color="#6900B5"/></linearGradient><linearGradient id="aI" x1="5.918" y1="41.106" x2="171.465" y2="42.112" gradientUnits="userSpaceOnUse"><stop stop-color="#1C8AE2"/><stop offset=".486" stop-color="#8B00B3"/><stop offset="1" stop-color="#6900B5"/></linearGradient><linearGradient id="aJ" x1="5.455" y1="117.325" x2="171.002" y2="118.331" gradientUnits="userSpaceOnUse"><stop stop-color="#1C8AE2"/><stop offset=".486" stop-color="#8B00B3"/><stop offset="1" stop-color="#6900B5"/></linearGradient><linearGradient id="aK" x1="5.477" y1="113.872" x2="171.021" y2="114.878" gradientUnits="userSpaceOnUse"><stop stop-color="#1C8AE2"/><stop offset=".486" stop-color="#8B00B3"/><stop offset="1" stop-color="#6900B5"/></linearGradient><linearGradient id="aL" x1="5.646" y1="85.876" x2="171.193" y2="86.883" gradientUnits="userSpaceOnUse"><stop stop-color="#1C8AE2"/><stop offset=".486" stop-color="#8B00B3"/><stop offset="1" stop-color="#6900B5"/></linearGradient><linearGradient id="aM" x1="5.586" y1="95.95" x2="171.131" y2="96.957" gradientUnits="userSpaceOnUse"><stop stop-color="#1C8AE2"/><stop offset=".486" stop-color="#8B00B3"/><stop offset="1" stop-color="#6900B5"/></linearGradient><linearGradient id="aN" x1="5.806" y1="59.325" x2="171.355" y2="60.331" gradientUnits="userSpaceOnUse"><stop stop-color="#1C8AE2"/><stop offset=".486" stop-color="#8B00B3"/><stop offset="1" stop-color="#6900B5"/></linearGradient><linearGradient id="aO" x1="5.637" y1="87.406" x2="171.183" y2="88.413" gradientUnits="userSpaceOnUse"><stop stop-color="#1C8AE2"/><stop offset=".486" stop-color="#8B00B3"/><stop offset="1" stop-color="#6900B5"/></linearGradient><linearGradient id="aP" x1="6.058" y1="18.212" x2="171.604" y2="19.218" gradientUnits="userSpaceOnUse"><stop stop-color="#1C8AE2"/><stop offset=".486" stop-color="#8B00B3"/><stop offset="1" stop-color="#6900B5"/></linearGradient><linearGradient id="aQ" x1="5.967" y1="33.176" x2="171.513" y2="34.182" gradientUnits="userSpaceOnUse"><stop stop-color="#1C8AE2"/><stop offset=".486" stop-color="#8B00B3"/><stop offset="1" stop-color="#6900B5"/></linearGradient><linearGradient id="aR" x1="5.913" y1="41.664" x2="171.462" y2="42.671" gradientUnits="userSpaceOnUse"><stop stop-color="#1C8AE2"/><stop offset=".486" stop-color="#8B00B3"/><stop offset="1" stop-color="#6900B5"/></linearGradient><linearGradient id="aS" x1="5.416" y1="123.729" x2="170.963" y2="124.735" gradientUnits="userSpaceOnUse"><stop stop-color="#1C8AE2"/><stop offset=".486" stop-color="#8B00B3"/><stop offset="1" stop-color="#6900B5"/></linearGradient><linearGradient id="aT" x1="5.449" y1="118.265" x2="170.995" y2="119.271" gradientUnits="userSpaceOnUse"><stop stop-color="#1C8AE2"/><stop offset=".486" stop-color="#8B00B3"/><stop offset="1" stop-color="#6900B5"/></linearGradient><linearGradient id="aU" x1="5.616" y1="91.464" x2="171.157" y2="92.47" gradientUnits="userSpaceOnUse"><stop stop-color="#1C8AE2"/><stop offset=".486" stop-color="#8B00B3"/><stop offset="1" stop-color="#6900B5"/></linearGradient><linearGradient id="aV" x1="5.634" y1="88.918" x2="171.174" y2="89.925" gradientUnits="userSpaceOnUse"><stop stop-color="#1C8AE2"/><stop offset=".486" stop-color="#8B00B3"/><stop offset="1" stop-color="#6900B5"/></linearGradient><linearGradient id="aW" x1="5.615" y1="91.02" x2="171.163" y2="92.026" gradientUnits="userSpaceOnUse"><stop stop-color="#1C8AE2"/><stop offset=".486" stop-color="#8B00B3"/><stop offset="1" stop-color="#6900B5"/></linearGradient><linearGradient id="aX" x1="5.332" y1="137.753" x2="170.877" y2="138.759" gradientUnits="userSpaceOnUse"><stop stop-color="#1C8AE2"/><stop offset=".486" stop-color="#8B00B3"/><stop offset="1" stop-color="#6900B5"/></linearGradient><linearGradient id="aY" x1="5.697" y1="77.526" x2="171.247" y2="78.532" gradientUnits="userSpaceOnUse"><stop stop-color="#1C8AE2"/><stop offset=".486" stop-color="#8B00B3"/><stop offset="1" stop-color="#6900B5"/></linearGradient><linearGradient id="aZ" x1="5.602" y1="93.245" x2="171.145" y2="94.252" gradientUnits="userSpaceOnUse"><stop stop-color="#1C8AE2"/><stop offset=".486" stop-color="#8B00B3"/><stop offset="1" stop-color="#6900B5"/></linearGradient><linearGradient id="ba" x1="5.908" y1="42.7" x2="171.455" y2="43.706" gradientUnits="userSpaceOnUse"><stop stop-color="#1C8AE2"/><stop offset=".486" stop-color="#8B00B3"/><stop offset="1" stop-color="#6900B5"/></linearGradient><linearGradient id="bb" x1="5.79" y1="62.126" x2="171.34" y2="63.132" gradientUnits="userSpaceOnUse"><stop stop-color="#1C8AE2"/><stop offset=".486" stop-color="#8B00B3"/><stop offset="1" stop-color="#6900B5"/></linearGradient><linearGradient id="bc" x1="6.067" y1="16.682" x2="171.615" y2="17.688" gradientUnits="userSpaceOnUse"><stop stop-color="#1C8AE2"/><stop offset=".486" stop-color="#8B00B3"/><stop offset="1" stop-color="#6900B5"/></linearGradient><linearGradient id="bd" x1="5.968" y1="32.629" x2="171.518" y2="33.635" gradientUnits="userSpaceOnUse"><stop stop-color="#1C8AE2"/><stop offset=".486" stop-color="#8B00B3"/><stop offset="1" stop-color="#6900B5"/></linearGradient><linearGradient id="be" x1="5.787" y1="63.642" x2="171.312" y2="64.648" gradientUnits="userSpaceOnUse"><stop stop-color="#1C8AE2"/><stop offset=".486" stop-color="#8B00B3"/><stop offset="1" stop-color="#6900B5"/></linearGradient><linearGradient id="bf" x1="5.657" y1="88.584" x2="171.163" y2="89.59" gradientUnits="userSpaceOnUse"><stop stop-color="#1C8AE2"/><stop offset=".486" stop-color="#8B00B3"/><stop offset="1" stop-color="#6900B5"/></linearGradient><linearGradient id="bg" x1="6.025" y1="26.263" x2="171.531" y2="27.268" gradientUnits="userSpaceOnUse"><stop stop-color="#1C8AE2"/><stop offset=".486" stop-color="#8B00B3"/><stop offset="1" stop-color="#6900B5"/></linearGradient><linearGradient id="bh" x1="6.047" y1="23.81" x2="171.553" y2="24.816" gradientUnits="userSpaceOnUse"><stop stop-color="#1C8AE2"/><stop offset=".486" stop-color="#8B00B3"/><stop offset="1" stop-color="#6900B5"/></linearGradient><linearGradient id="bi" x1="6.078" y1="17.57" x2="171.584" y2="18.575" gradientUnits="userSpaceOnUse"><stop stop-color="#1C8AE2"/><stop offset=".486" stop-color="#8B00B3"/><stop offset="1" stop-color="#6900B5"/></linearGradient><linearGradient id="bj" x1="5.41" y1="127.135" x2="170.928" y2="128.142" gradientUnits="userSpaceOnUse"><stop stop-color="#1C8AE2"/><stop offset=".486" stop-color="#8B00B3"/><stop offset="1" stop-color="#6900B5"/></linearGradient><linearGradient id="bk" x1="5.369" y1="133.158" x2="170.875" y2="134.164" gradientUnits="userSpaceOnUse"><stop stop-color="#1C8AE2"/><stop offset=".486" stop-color="#8B00B3"/><stop offset="1" stop-color="#6900B5"/></linearGradient><linearGradient id="bl" x1="5.348" y1="133.53" x2="170.921" y2="134.537" gradientUnits="userSpaceOnUse"><stop stop-color="#1C8AE2"/><stop offset=".486" stop-color="#8B00B3"/><stop offset="1" stop-color="#6900B5"/></linearGradient><linearGradient id="bm" x1="5.513" y1="111.469" x2="171.019" y2="112.475" gradientUnits="userSpaceOnUse"><stop stop-color="#1C8AE2"/><stop offset=".486" stop-color="#8B00B3"/><stop offset="1" stop-color="#6900B5"/></linearGradient><linearGradient id="bn" x1="5.345" y1="138.131" x2="170.864" y2="139.137" gradientUnits="userSpaceOnUse"><stop stop-color="#1C8AE2"/><stop offset=".486" stop-color="#8B00B3"/><stop offset="1" stop-color="#6900B5"/></linearGradient><linearGradient id="bo" x1="5.438" y1="124.301" x2="170.944" y2="125.307" gradientUnits="userSpaceOnUse"><stop stop-color="#1C8AE2"/><stop offset=".486" stop-color="#8B00B3"/><stop offset="1" stop-color="#6900B5"/></linearGradient><linearGradient id="bp" x1="5.795" y1="61.352" x2="171.341" y2="62.359" gradientUnits="userSpaceOnUse"><stop stop-color="#1C8AE2"/><stop offset=".486" stop-color="#8B00B3"/><stop offset="1" stop-color="#6900B5"/></linearGradient><linearGradient id="bq" x1="5.841" y1="53.58" x2="171.392" y2="54.586" gradientUnits="userSpaceOnUse"><stop stop-color="#1C8AE2"/><stop offset=".486" stop-color="#8B00B3"/><stop offset="1" stop-color="#6900B5"/></linearGradient><linearGradient id="br" x1="5.848" y1="52.701" x2="171.395" y2="53.708" gradientUnits="userSpaceOnUse"><stop stop-color="#1C8AE2"/><stop offset=".486" stop-color="#8B00B3"/><stop offset="1" stop-color="#6900B5"/></linearGradient><linearGradient id="bs" x1="5.841" y1="53.626" x2="171.391" y2="54.632" gradientUnits="userSpaceOnUse"><stop stop-color="#1C8AE2"/><stop offset=".486" stop-color="#8B00B3"/><stop offset="1" stop-color="#6900B5"/></linearGradient></defs></svg>