<svg width="200" height="155" fill="none" xmlns="http://www.w3.org/2000/svg"><g clip-path="url(#a)" fill-rule="evenodd" clip-rule="evenodd"><path d="M.1 62.049h35.3v7.9H.1v-7.9Z" fill="url(#b)"/><path d="M47.2 62.05H73v5.6c-6.1 0-12.2.1-18.3 0v7.1H73v5.6H54.7v7.4h18.2v5.6H47.1c0-10.4.1-20.8.1-31.3Zm32.8 0h16.5c2.2 0 4.4.1 6.5.7 2.5.8 4.4 3.1 4.9 5.6.3 2 .2 4.1-.7 5.9-.8 1.5-2.2 2.7-3.7 3.5 1.5.7 3 1.7 3.8 3.2 1.1 1.9 1.1 4.2.7 6.3-.3 1.9-1.4 3.7-3.1 4.7-2.1 1.2-4.5 1.5-6.8 1.5h-18c-.2-10.5-.1-20.9-.1-31.4Zm6.6 5.7v7.2h7.8c1.1 0 2.2 0 3.2-.1.9-.1 1.8-.4 2.4-1.1.6-.7.8-1.7.8-2.7 0-1-.3-2.1-1.2-2.6-.9-.6-1.9-.7-2.9-.7H86.6Zm0 12.8v7.4h10.3c1.1 0 2.2-.2 3.1-.9.8-.7 1-1.8 1-2.8 0-1-.2-2-1-2.7-1-.9-2.5-1-3.8-1h-9.6Zm27.4-18.5h11.9c3.1-.1 6.3-.1 9.4.5 2.7.5 4.9 2.5 6 4.9 1 2.3 1.1 4.9.7 7.3-.2 1.4-.7 2.7-1.5 3.8-.8 1.1-1.9 2-3.1 2.6-.9.5-2 .8-3.1.9-1.8.3-3.6.3-5.4.3h-8.3v11H114v-31.3Zm6.7 5.6v9.2h7.6c1.4 0 2.8-.1 4.1-.5 1.4-.5 2.4-1.9 2.5-3.4.1-1.1 0-2.3-.6-3.4-.4-.8-1.2-1.3-2-1.5-1.8-.6-3.8-.4-5.7-.5-2 .1-4 .1-5.9.1Zm32-5.6c-4.4 10.5-8.9 20.9-13.3 31.4h7.1c.9-2.5 1.9-5 2.8-7.5h13.6c1 2.5 1.9 5 2.9 7.5h7.4c-4.5-10.5-8.9-20.9-13.4-31.4h-7.1Zm-1.3 18.3c1.5-4 3-8 4.6-12 1.6 4 3.1 8 4.7 12h-9.3Zm23.3-18.3H187c2.6 0 5.3-.2 7.9.6 1.4.4 2.6 1.1 3.6 2.2s1.5 2.6 1.6 4c.2 1.5.1 3-.4 4.4-.7 1.8-2.1 3.3-3.7 4.4 1.2.7 2.4 1.6 3.1 2.8 1.2 1.9 1.3 4.3 1 6.5-.3 2.1-1.6 4-3.5 5.1-1.6.9-3.5 1.3-5.3 1.4h-16.5v-5.4h12.6c1.3 0 2.8-.1 4-.8.7-.4 1.3-1.2 1.4-2 .2-1.2.1-2.6-.8-3.5-.6-.7-1.6-1-2.6-1.2-1.4-.2-2.7-.1-4.1-.1h-7.2v-5.4h6.5c1.5 0 3 .1 4.4-.1 1.1-.1 2.2-.5 2.9-1.3.7-1 .8-2.3.6-3.4-.2-.9-.8-1.7-1.7-2.1-1.4-.7-2.9-.6-4.4-.6h-11.6c-.1-1.9-.1-3.7-.1-5.5Z" fill="url(#c)"/><path d="M.1 73.85h35.3v7.9H0c.1-2.7.1-5.3.1-7.9Z" fill="url(#d)"/><path d="M.1 85.549h35.3v7.9H.1v-7.9Z" fill="url(#e)"/></g><defs><linearGradient id="b" x1="-1.682" y1="65.999" x2="198.953" y2="65.999" gradientUnits="userSpaceOnUse"><stop stop-color="#1C8AE2"/><stop offset=".486" stop-color="#8B00B3"/><stop offset="1" stop-color="#6900B5"/></linearGradient><linearGradient id="c" x1="-1.682" y1="77.746" x2="198.954" y2="77.746" gradientUnits="userSpaceOnUse"><stop stop-color="#1C8AE2"/><stop offset=".486" stop-color="#8B00B3"/><stop offset="1" stop-color="#6900B5"/></linearGradient><linearGradient id="d" x1="-1.681" y1="77.775" x2="198.954" y2="77.775" gradientUnits="userSpaceOnUse"><stop stop-color="#1C8AE2"/><stop offset=".486" stop-color="#8B00B3"/><stop offset="1" stop-color="#6900B5"/></linearGradient><linearGradient id="e" x1="-1.682" y1="89.52" x2="198.953" y2="89.52" gradientUnits="userSpaceOnUse"><stop stop-color="#1C8AE2"/><stop offset=".486" stop-color="#8B00B3"/><stop offset="1" stop-color="#6900B5"/></linearGradient><clipPath id="a"><path fill="#fff" d="M0 0h200v155H0z"/></clipPath></defs></svg>