<svg width="200" height="155" fill="none" xmlns="http://www.w3.org/2000/svg"><path d="M0 102.901c0-4.8 3.8-8.6 8.6-8.6h.2c4.8 0 8.7 3.8 8.7 8.6v.1c.2 4.8-3.5 8.9-8.3 9.1-4.8.2-8.9-3.5-9.1-8.3-.1-.3-.1-.6-.1-.9Z" fill="url(#a)"/><path d="M57.5 86c0-7.6-3.9-15.1-12.1-15.1-6.7 0-12.3 5.5-12.3 15.2 0 9.3 4.9 15.401 12.1 15.401 6.3 0 12.3-4.6 12.3-15.5ZM43 60.4c10.7 0 14.2 6 14.2 6h.2s-.1-1.3-.1-2.9V52.7h-6.1V42.3h18.3v58.101h5.9v10.2H58.1v-6.8h-.2s-4.1 8-15.3 8c-13.3 0-21.8-10.5-21.8-25.7C20.6 70.5 30 60.4 43 60.4Z" fill="url(#b)"/><path d="M109.9 79.7c-.2-5.9-4.2-9.9-9.1-9.9-5.9-.2-11.1 4-12 9.9h21.1Zm-9.2-19.3c14.1 0 21.8 10.3 21.8 23.3 0 1.4-.3 4.5-.3 4.5h-34c.5 7.6 7 13.501 14.6 13.201 5.1-.2 9.9-2.1 13.8-5.5l5.1 8.5c-5.5 4.8-12.5 7.4-19.7 7.3-16.3 0-26.4-11.7-26.4-25.7 0-15.1 10.2-25.7 24.9-25.7l.2.1Z" fill="url(#c)"/><path d="M181.8 89.4c0 6-4.6 12.9-11.2 12.9-5 0-7.3-3.1-7.3-6.4 0-6.8 10.1-7.7 16.5-7.7h2.1l-.1 1.2Zm12 11V79.9c0-11-4.8-19.5-21.2-19.5-9.2-.4-17.2 6.2-18.4 15.3H166c.6-3.8 3.8-6.6 7.7-6.6 6.1 0 7.7 3.9 7.9 8.9V79.8h-1.5c-8 0-29.3 1.2-29.3 16.7 0 9.8 8 15.3 16.7 15.3 6.2.2 12-3.1 14.8-8.7h.2v7.5h17.1v-10.2h-5.8Z" fill="url(#d)"/><path d="M128.9 71.3h-6.1v-9.7h6.1v-1.4c0-16.1 13.2-18.2 20.1-18.2 1.4 0 2.8.1 4.1.3v10.3c-.8-.1-1.7-.2-2.5-.2-3.5 0-9.4.9-9.4 8v1.2h10.5v9.7h-10.6v39.4h-12.2V71.3Z" fill="url(#e)"/><defs><linearGradient id="a" x1="-.442" y1="103.198" x2="199.293" y2="103.198" gradientUnits="userSpaceOnUse"><stop stop-color="#1C8AE2"/><stop offset=".486" stop-color="#8B00B3"/><stop offset="1" stop-color="#6900B5"/></linearGradient><linearGradient id="b" x1="-.442" y1="77.037" x2="199.293" y2="77.037" gradientUnits="userSpaceOnUse"><stop stop-color="#1C8AE2"/><stop offset=".486" stop-color="#8B00B3"/><stop offset="1" stop-color="#6900B5"/></linearGradient><linearGradient id="c" x1="-.442" y1="85.996" x2="199.293" y2="85.996" gradientUnits="userSpaceOnUse"><stop stop-color="#1C8AE2"/><stop offset=".486" stop-color="#8B00B3"/><stop offset="1" stop-color="#6900B5"/></linearGradient><linearGradient id="d" x1="-.442" y1="86.083" x2="199.293" y2="86.083" gradientUnits="userSpaceOnUse"><stop stop-color="#1C8AE2"/><stop offset=".486" stop-color="#8B00B3"/><stop offset="1" stop-color="#6900B5"/></linearGradient><linearGradient id="e" x1="-.442" y1="76.313" x2="199.293" y2="76.313" gradientUnits="userSpaceOnUse"><stop stop-color="#1C8AE2"/><stop offset=".486" stop-color="#8B00B3"/><stop offset="1" stop-color="#6900B5"/></linearGradient></defs></svg>