<svg width="274" height="155" fill="none" xmlns="http://www.w3.org/2000/svg"><path fill-rule="evenodd" clip-rule="evenodd" d="M58.9 56.6c-4.6-2-7.3-2.8-10.1-2.8-2.9 0-4.7 1-4.7 2.6 0 4.8 16.2 3.4 16.2 14.5 0 6.1-5.1 9.6-12.2 9.6-5.6 0-8.3-1.4-11.5-3.1v-6.8c4.6 3 7.3 4.1 10.9 4.1 3 0 4.7-1.1 4.7-2.9 0-5.2-16.2-3.3-16.2-14.7 0-5.5 4.7-9.1 12.1-9.1 3.6 0 6.8.7 10.8 2.5v6.1Z" fill="url(#a)"/><path fill-rule="evenodd" clip-rule="evenodd" d="M81.6 79.1c-2.7 1-5 1.4-7.3 1.4-7.5 0-12.4-4.4-12.4-11.1 0-6.6 5.1-11.2 12.1-11.2 2.2 0 5 .6 7.2 1.4v5c-1.8-.9-3.8-1.5-5.5-1.5-4 0-6.7 2.4-6.7 6.2 0 3.8 2.6 6.3 6.4 6.3 1.6 0 3.1-.4 6.1-1.5v5h.1Z" fill="url(#b)"/><path fill-rule="evenodd" clip-rule="evenodd" d="M140.4 67c.3-3 2-4.7 4.7-4.7 2.6 0 4.4 1.8 4.7 4.7h-9.4Zm4.2-8.8c-6.6 0-11.3 4.7-11.3 11.3 0 6.6 4.9 11 12.5 11 1.7 0 5.7 0 9.6-2.9v-4.2c-3.2 2.2-5.2 3-7.9 3-4.3 0-6.9-2.2-7.1-6h15.4c.2-7.7-5-12.2-11.2-12.2Z" fill="url(#c)"/><path d="M165 58.6h-6.7v21.5h6.7V58.6Z" fill="url(#d)"/><path fill-rule="evenodd" clip-rule="evenodd" d="M183.8 74.2c-1.4 1.3-2.6 1.8-4 1.8-3.2 0-5.2-2.6-5.2-6.5 0-4.3 2-6.8 5.4-6.8 1.2 0 2.8.6 3.8 1.3v10.2Zm0-25.8v11.2c-1.8-.9-3.6-1.3-5.6-1.3-6.1 0-10.4 4.5-10.4 11.1 0 6.4 4.3 11.2 10 11.2 2.3 0 4.1-.6 6-2.1v1.7h6.7V48.5h-6.7v-.1Z" fill="url(#e)"/><path fill-rule="evenodd" clip-rule="evenodd" d="M200.5 67c.3-3 2-4.7 4.7-4.7 2.6 0 4.4 1.8 4.7 4.7h-9.4Zm4.2-8.8c-6.6 0-11.3 4.7-11.3 11.3 0 6.6 4.9 11 12.4 11 1.7 0 5.7 0 9.6-2.9v-4.2c-3.2 2.2-5.3 3-8 3-4.2 0-6.8-2.2-7.1-6h15.4c.4-7.7-4.8-12.2-11-12.2Z" fill="url(#f)"/><path fill-rule="evenodd" clip-rule="evenodd" d="M225.899 64.8c2.1-4.5 4.3-6.6 6.9-6.6 1.3 0 2.5.5 4.5 2l-1.9 6c-1.8-1.1-2.9-1.6-4-1.6-2.5 0-4.1 2.3-5.5 6.3v9.3h-6.7V58.7h6.7v6.1Z" fill="url(#g)"/><path fill-rule="evenodd" clip-rule="evenodd" d="M165.3 49.6c.6 1.7-.5 4-2.5 5.2-2 1.2-4.201.8-4.801-.9-.6-1.7.5-4 2.5-5.2 2-1.2 4.201-.8 4.801.9Z" fill="url(#h)"/><path fill-rule="evenodd" clip-rule="evenodd" d="M105.9 66.4c0-5.8-4-8.2-7.9-8.2-2.7 0-4.8 1.1-6.8 3.6h-.1V48.4h-6.7v31.7h6.7V66.5c1.6-2.3 2.9-3.3 4.5-3.3 2.1 0 3.5 1.5 3.5 4.7v7.5c2.3-1.2 4.6-1.9 6.7-2.1v-6.9h.1Z" fill="url(#i)"/><path fill-rule="evenodd" clip-rule="evenodd" d="M122.8 58.2c-2.7 0-4.8 1-7 3.5v-3.1h-6.7v14.6c2.3.2 5.3 1.3 6.7 3.1v-10c1.8-2.7 3-3.5 4.7-3.5 1.9 0 3.4 1.3 3.4 4.3v13h6.7V66.5c0-6.4-4.5-8.3-7.8-8.3Z" fill="url(#j)"/><path fill-rule="evenodd" clip-rule="evenodd" d="M134.3 86.2h-7.8v5.6h7.6v2.4h-7.6v5.7h8.1v2.401h-10.7v-18.5h10.4v2.4Z" fill="url(#k)"/><path d="M143.1 83.8h-2.4v18.501h2.4v-18.5Z" fill="url(#l)"/><path fill-rule="evenodd" clip-rule="evenodd" d="M155 92c1.7 0 2.8 1.2 2.8 3h-6.1c.4-1.9 1.5-3 3.3-3Zm-3.3 4.6h8.6c0-4.5-2.1-6.7-5.3-6.7-3.3 0-5.7 2.5-5.7 6.2 0 3.4 2.1 6.5 5.9 6.5 2.1 0 3.4-.5 4.9-1.4v-2.4c-1.4.9-2.8 1.5-4.3 1.5-2.4 0-3.7-1.3-4.1-3.7Z" fill="url(#m)"/><path fill-rule="evenodd" clip-rule="evenodd" d="M175.9 93.3c-1.4-.9-2.3-1.2-3.4-1.2-2.2 0-3.7 1.7-3.7 4.2s1.6 4 4.1 4c1 0 2-.3 3.2-.8v2.4c-.8.4-2.4.7-3.6.7-3.6 0-6.2-2.5-6.2-6.1 0-4 2.3-6.6 6-6.6 1.4 0 2.4.3 3.5.8v2.6h.1Z" fill="url(#n)"/><path fill-rule="evenodd" clip-rule="evenodd" d="M186.9 90.1h3.9v2.2h-3.9v6.3c0 1.4 1 1.799 1.7 1.799.9 0 1.8-.3 2.7-.9v2.3c-.8.5-2.1.8-2.9.8-2.6 0-3.9-1.6-3.9-3.8v-6.4h-2.1v-.3l4.5-4.4v2.4Z" fill="url(#o)"/><path fill-rule="evenodd" clip-rule="evenodd" d="M199.9 90.1v2.8c1.2-2.2 2.4-3.1 3.5-3.1 1 0 1.9.5 2.9 1.4l-1.3 2.1c-.7-.7-1.7-1.2-2.2-1.2-1.7 0-3 1.7-3 3.8v6.401h-2.4v-12.2h2.5Z" fill="url(#p)"/><path fill-rule="evenodd" clip-rule="evenodd" d="M231 93.3c-1.4-.9-2.3-1.2-3.4-1.2-2.2 0-3.7 1.7-3.7 4.2s1.6 4 4.1 4c1 0 2-.3 3.2-.8v2.4c-.8.4-2.4.7-3.6.7-3.6 0-6.2-2.5-6.2-6.1 0-4 2.3-6.6 6-6.6 1.4 0 2.4.3 3.5.8v2.6h.1Z" fill="url(#q)"/><path d="M215.1 90.1h-2.4v12.2h2.4V90.1Z" fill="url(#r)"/><path fill-rule="evenodd" clip-rule="evenodd" d="M215.199 85.798c.2.6-.2 1.4-.9 1.8-.7.4-1.5.3-1.7-.3-.2-.6.2-1.4.9-1.8.7-.5 1.5-.3 1.7.3Z" fill="url(#s)"/><path fill-rule="evenodd" clip-rule="evenodd" d="M107.8 86.7c-.4 0-.6.1-.8.3-.1.1-.1.2-.1.3l-2.2 8.2c-.5 2.9-4 5.699-8.6 5.699h-6.4l1.1-4.2h4.1c.4 0 .7-.2 1-.5.1-.1.2-.3.2-.5l1.7-7.1c.5-2.9 3.5-6 8.1-6h6.5l-.8 3.9h-3.8v-.1Zm1.4 5 .7-2.6h6.6c.8-3.8.2-7.4-2.2-9.7-4.7-4.7-14.5-3.1-21.9 3.9-1.1 1.1-2.1 2.3-3 3.5h4l-.9 2.6h-4.8c-.5.8-.9 1.7-1.2 2.5h5.7l-.9 2.6h-5.6c-1 4-.3 7.799 2 10.199 4.6 4.6 14.5 3 21.8-4 1.3-1.2 2.3-2.5 3.3-3.9h-5.1l.8-2.6h6c.4-.8.8-1.7 1.2-2.5h-6.5Z" fill="url(#t)"/><defs><linearGradient id="k" x1="123.861" y1="93.079" x2="134.561" y2="93.079" gradientUnits="userSpaceOnUse"><stop stop-color="#1C8AE2"/><stop offset=".486" stop-color="#8B00B3"/><stop offset="1" stop-color="#6900B5"/></linearGradient><linearGradient id="a" x1="36.003" y1="64.241" x2="60.334" y2="64.241" gradientUnits="userSpaceOnUse"><stop stop-color="#1C8AE2"/><stop offset=".486" stop-color="#8B00B3"/><stop offset="1" stop-color="#6900B5"/></linearGradient><linearGradient id="c" x1="133.265" y1="69.364" x2="155.689" y2="69.364" gradientUnits="userSpaceOnUse"><stop stop-color="#1C8AE2"/><stop offset=".486" stop-color="#8B00B3"/><stop offset="1" stop-color="#6900B5"/></linearGradient><linearGradient id="d" x1="158.282" y1="69.367" x2="165.023" y2="69.367" gradientUnits="userSpaceOnUse"><stop stop-color="#1C8AE2"/><stop offset=".486" stop-color="#8B00B3"/><stop offset="1" stop-color="#6900B5"/></linearGradient><linearGradient id="e" x1="167.78" y1="64.44" x2="190.519" y2="64.44" gradientUnits="userSpaceOnUse"><stop stop-color="#1C8AE2"/><stop offset=".486" stop-color="#8B00B3"/><stop offset="1" stop-color="#6900B5"/></linearGradient><linearGradient id="f" x1="193.364" y1="69.364" x2="215.78" y2="69.364" gradientUnits="userSpaceOnUse"><stop stop-color="#1C8AE2"/><stop offset=".486" stop-color="#8B00B3"/><stop offset="1" stop-color="#6900B5"/></linearGradient><linearGradient id="g" x1="219.107" y1="69.144" x2="237.259" y2="69.144" gradientUnits="userSpaceOnUse"><stop stop-color="#1C8AE2"/><stop offset=".486" stop-color="#8B00B3"/><stop offset="1" stop-color="#6900B5"/></linearGradient><linearGradient id="h" x1="157.802" y1="51.755" x2="165.513" y2="51.755" gradientUnits="userSpaceOnUse"><stop stop-color="#1C8AE2"/><stop offset=".486" stop-color="#8B00B3"/><stop offset="1" stop-color="#6900B5"/></linearGradient><linearGradient id="i" x1="84.362" y1="64.21" x2="105.855" y2="64.21" gradientUnits="userSpaceOnUse"><stop stop-color="#1C8AE2"/><stop offset=".486" stop-color="#8B00B3"/><stop offset="1" stop-color="#6900B5"/></linearGradient><linearGradient id="j" x1="109.039" y1="69.137" x2="130.601" y2="69.137" gradientUnits="userSpaceOnUse"><stop stop-color="#1C8AE2"/><stop offset=".486" stop-color="#8B00B3"/><stop offset="1" stop-color="#6900B5"/></linearGradient><linearGradient id="b" x1="61.892" y1="69.36" x2="81.577" y2="69.36" gradientUnits="userSpaceOnUse"><stop stop-color="#1C8AE2"/><stop offset=".486" stop-color="#8B00B3"/><stop offset="1" stop-color="#6900B5"/></linearGradient><linearGradient id="l" x1="140.729" y1="93.082" x2="143.129" y2="93.082" gradientUnits="userSpaceOnUse"><stop stop-color="#1C8AE2"/><stop offset=".486" stop-color="#8B00B3"/><stop offset="1" stop-color="#6900B5"/></linearGradient><linearGradient id="m" x1="149.289" y1="96.229" x2="160.247" y2="96.229" gradientUnits="userSpaceOnUse"><stop stop-color="#1C8AE2"/><stop offset=".486" stop-color="#8B00B3"/><stop offset="1" stop-color="#6900B5"/></linearGradient><linearGradient id="n" x1="166.412" y1="96.229" x2="176.193" y2="96.229" gradientUnits="userSpaceOnUse"><stop stop-color="#1C8AE2"/><stop offset=".486" stop-color="#8B00B3"/><stop offset="1" stop-color="#6900B5"/></linearGradient><linearGradient id="o" x1="182.353" y1="95.085" x2="191.337" y2="95.085" gradientUnits="userSpaceOnUse"><stop stop-color="#1C8AE2"/><stop offset=".486" stop-color="#8B00B3"/><stop offset="1" stop-color="#6900B5"/></linearGradient><linearGradient id="p" x1="197.5" y1="96.116" x2="206.368" y2="96.116" gradientUnits="userSpaceOnUse"><stop stop-color="#1C8AE2"/><stop offset=".486" stop-color="#8B00B3"/><stop offset="1" stop-color="#6900B5"/></linearGradient><linearGradient id="q" x1="221.439" y1="96.229" x2="231.242" y2="96.229" gradientUnits="userSpaceOnUse"><stop stop-color="#1C8AE2"/><stop offset=".486" stop-color="#8B00B3"/><stop offset="1" stop-color="#6900B5"/></linearGradient><linearGradient id="r" x1="212.732" y1="96.231" x2="215.133" y2="96.231" gradientUnits="userSpaceOnUse"><stop stop-color="#1C8AE2"/><stop offset=".486" stop-color="#8B00B3"/><stop offset="1" stop-color="#6900B5"/></linearGradient><linearGradient id="s" x1="212.539" y1="86.524" x2="215.279" y2="86.524" gradientUnits="userSpaceOnUse"><stop stop-color="#1C8AE2"/><stop offset=".486" stop-color="#8B00B3"/><stop offset="1" stop-color="#6900B5"/></linearGradient><linearGradient id="t" x1="85.404" y1="92.038" x2="116.92" y2="92.038" gradientUnits="userSpaceOnUse"><stop stop-color="#1C8AE2"/><stop offset=".486" stop-color="#8B00B3"/><stop offset="1" stop-color="#6900B5"/></linearGradient></defs></svg>