<svg width="203" height="155" viewBox="0 0 203 155" fill="none" xmlns="http://www.w3.org/2000/svg">
<path fill-rule="evenodd" clip-rule="evenodd" d="M108.4 67.0996H95.3997C94.6997 67.0996 94.0999 67.6996 94.0999 68.3996C94.0999 69.0996 94.5997 69.5996 95.3997 69.5996H100.7V79.6996C100.7 80.3996 101.3 80.9996 102 80.9996C102.7 80.9996 103.3 80.3996 103.3 79.6996V69.5996H108.4C109.1 69.5996 109.7 69.0996 109.7 68.3996C109.7 67.6996 109.1 67.0996 108.4 67.0996ZM90.9998 67.0996C90.5998 67.0996 90.3997 67.1996 90.1997 67.3996L78.7998 77.0996V68.3996C78.7998 67.6996 78.2998 67.0996 77.4998 67.0996C76.7998 67.0996 76.1997 67.6996 76.1997 68.3996V79.5996C76.1997 80.2996 76.7998 80.8996 77.4998 80.8996C77.8998 80.8996 78.1997 80.6996 78.3997 80.4996L89.6997 70.8996V79.5996C89.6997 80.2996 90.2998 80.8996 90.9998 80.8996C91.6998 80.8996 92.2998 80.2996 92.2998 79.5996V68.3996C92.2998 67.6996 91.6998 67.0996 90.9998 67.0996ZM59.5999 67.0996H69.8997C71.6997 67.0996 73.0999 68.3996 73.0999 70.2996V71.2996C73.0999 72.0996 72.4998 72.5996 71.7998 72.5996C71.0998 72.5996 70.4998 71.9996 70.4998 71.2996V70.3996C70.4998 69.9996 70.1997 69.5996 69.8997 69.5996H59.5999C59.1999 69.5996 58.8997 69.9996 58.8997 70.3996V77.7996C58.8997 78.1996 59.1999 78.4996 59.5999 78.4996H69.8997C70.2997 78.4996 70.4998 78.0996 70.4998 77.7996V76.8996C70.4998 76.1996 71.0998 75.5996 71.7998 75.5996C72.4998 75.5996 73.0999 76.1996 73.0999 76.8996V77.8996C73.0999 79.6996 71.7997 80.9996 69.8997 80.9996H59.5999C57.4999 80.9996 56.2998 79.4996 56.2998 77.7996V70.3996C56.3998 68.5996 57.8999 67.0996 59.5999 67.0996ZM187.7 67.0996C187 67.0996 186.4 67.6996 186.4 68.3996V79.5996C186.4 80.2996 187 80.8996 187.7 80.8996C188.4 80.8996 189 80.2996 189 79.5996V68.3996C188.9 67.6996 188.4 67.0996 187.7 67.0996ZM161.5 67.3996C161.8 67.1996 162 67.0996 162.3 67.0996C163 67.0996 163.6 67.6996 163.6 68.3996V79.5996C163.6 80.2996 163 80.8996 162.3 80.8996C161.6 80.8996 161 80.2996 161 79.5996V70.9996L149.7 80.5996C149.5 80.7996 149.2 80.9996 148.8 80.9996C148.1 80.9996 147.5 80.3996 147.5 79.6996V68.4996C147.5 67.7996 148.1 67.1996 148.8 67.1996C149.6 67.1996 150.1 67.7996 150.1 68.4996V77.1996L161.5 67.3996ZM181.7 67.0996C181 67.0996 180.4 67.6996 180.4 68.3996V72.8996H169.6V68.3996C169.6 67.6996 169 67.0996 168.3 67.0996C167.6 67.0996 167 67.6996 167 68.3996V79.5996C167 80.2996 167.6 80.8996 168.3 80.8996C169 80.8996 169.6 80.2996 169.6 79.5996V75.1996H180.4V79.5996C180.4 80.2996 181 80.8996 181.7 80.8996C182.4 80.8996 183 80.2996 183 79.5996V68.3996C182.9 67.6996 182.4 67.0996 181.7 67.0996ZM193.2 74.0996L200.4 78.7996C200.8 79.0996 201 79.4996 201 79.8996C201 80.4996 200.5 81.0996 199.8 81.0996C199.6 81.0996 199.3 80.9996 199.1 80.8996L190.4 75.2996C190 75.0996 189.9 74.6996 189.9 74.2996C189.9 73.8996 190.1 73.4996 190.4 73.1996L199.1 67.5996C199.4 67.4996 199.6 67.3996 199.9 67.3996C200.4 67.3996 201.1 67.7996 201.1 68.5996C201.1 68.9996 200.9 69.4996 200.5 69.6996L193.2 74.0996ZM138.8 67.7996C138.5 67.2996 138.1 67.0996 137.6 67.0996C137.2 67.0996 136.7 67.2996 136.5 67.6996L129.7 78.9996C129.6 79.1996 129.5 79.3996 129.5 79.6996C129.5 80.3996 130.1 80.8996 130.7 80.8996C131.2 80.8996 131.6 80.6996 131.9 80.2996L137.7 70.6996L143.4 80.2996C143.6 80.6996 144.1 80.8996 144.5 80.8996C145.2 80.8996 145.7 80.2996 145.7 79.5996C145.7 79.3996 145.6 79.0996 145.5 78.8996L138.8 67.7996ZM125.6 67.3996C125.8 67.1996 126 67.0996 126.4 67.0996C127.1 67.0996 127.7 67.6996 127.7 68.3996V79.5996C127.7 80.2996 127.1 80.8996 126.4 80.8996C125.7 80.8996 125.1 80.2996 125.1 79.5996V70.9996L113.8 80.5996C113.6 80.7996 113.3 80.9996 112.9 80.9996C112.2 80.9996 111.6 80.3996 111.6 79.6996V68.4996C111.6 67.7996 112.2 67.1996 112.9 67.1996C113.6 67.1996 114.2 67.7996 114.2 68.4996V77.1996L125.6 67.3996Z" fill="url(#paint0_linear_1407_2496)"/>
<path fill-rule="evenodd" clip-rule="evenodd" d="M43.7 83.4C44.4 83.4 44.8999 83.9 44.8999 84.6V89C44.8999 91.8 43.2999 94.4 39.3999 94.4H35H33.8L33.8999 92.1H35H39.3999C41.1999 92.1 42.3999 90.9 42.3999 89.1V84.6C42.3999 84 43 83.4 43.7 83.4ZM10.3999 94.5L18.1001 104.6C18.6001 105.2 19.1 105.9 19.8 106.3C20.6 106.8 21.4 106.8 22.3 106.8H28C28.7 106.8 29.2999 106.7 29.8999 106.4C30.6999 106 31.0999 105.3 31.3999 104.5C31.7999 103.3 32.3 102.1 32.7 100.9C33 100 33.2999 99.2 33.3999 98.3C33.5999 97.3 33.7 96.2 33.7 95.2V88C33.7 87.2 33.4 86.4 32.8 85.9C32.2 85.3 31.5 85 30.7 85C30.3 85 29.9001 85.1 29.6001 85.2L29.3999 85.3L29.3 85.1C29.1 84.8 28.9 84.5 28.7 84.2C28.1 83.6 27.4001 83.3 26.6001 83.3C26.1001 83.3 25.7 83.4 25.3 83.6L25.1001 83.7L25 83.5C24.9 83.3 24.8001 83.2 24.6001 83C24.0001 82.4 23.3 82.1 22.5 82.1C22.2 82.1 21.9001 82.2 21.6001 82.2L21.3 82.3V76.2C21.3 74.6 20 73.2 18.3 73.2C16.7 73.2 15.3 74.5 15.3 76.2V89.4L13.8999 88.1C12.9999 87.3 11.6999 86.7 10.3999 87.1C9.0999 87.5 8.2001 88.6 8.1001 89.9C8.0001 90.7 8.29995 91.5 8.69995 92.1H7.6001H5.6001C3.8001 92.1 2.6001 90.9 2.6001 89.1V70.3C2.6001 68.4 3.8001 67.3 5.6001 67.3H39.3999C41.1999 67.3 42.3999 68.5 42.3999 70.3V74.8C42.3999 75.5 42.9001 76 43.6001 76C44.3001 76 44.8 75.5 44.8 74.8V70.4C44.8 67.6 43.2 65 39.3 65H5.3999C1.5999 65 0 67.6 0 70.4V89C0 91.8 1.5999 94.4 5.3999 94.4H9.1001H10.3999V94.5ZM31.7 97.9C31.6 98.7 31.3001 99.5 31.1001 100.2L29.8 103.7C29.6 104.1 29.5001 104.5 29.1001 104.8C28.8001 105 28.4001 105 28.1001 105H22.3999C21.8999 105 21.3 105 20.8 104.7C20.4 104.4 20 103.9 19.7 103.5C19.7 103.5 19.7001 103.4 19.6001 103.4L10.5 91.5C10.1 91 9.8999 90.7 9.8999 90.1C9.8999 89.7 10.1 89.4 10.3 89.1C11 88.4 12.0001 88.8 12.6001 89.4L15.3999 92C15.5999 92.2 15.8001 92.3 16.1001 92.3C16.6001 92.3 17 91.9 17 91.4V76.2C17 74.7 19.3999 74.6 19.3999 76.2V85.7V87.8C19.3999 88.3 19.8 88.7 20.3 88.7C20.8 88.7 21.2 88.3 21.2 87.8V85C21.2 84.7 21.3001 84.4 21.6001 84.2C21.8001 84 22.0999 83.9 22.3999 83.9C22.6999 83.9 23 84 23.2 84.3C23.4 84.5 23.6001 84.8 23.6001 85.1V86.2V87.8C23.6001 88.3 24 88.7 24.5 88.7C25 88.7 25.3999 88.3 25.3999 87.8V86.1C25.3999 85.8 25.5 85.6 25.7 85.4C25.9 85.2 26.2 85.1 26.5 85.1C26.8 85.1 27.1 85.2 27.3 85.4C27.5 85.6 27.6001 85.9 27.6001 86.2V88.6C27.6001 89.1 28 89.5 28.5 89.5C29 89.5 29.3999 89.1 29.3999 88.6V87.8C29.3999 87.5 29.5 87.2 29.7 87C29.9 86.8 30.2 86.6 30.5 86.6C30.8 86.6 31.1 86.7 31.3 87C31.5 87.2 31.7 87.5 31.7 87.8V95C31.9 96 31.8 97 31.7 97.9Z" fill="url(#paint1_linear_1407_2496)"/>
<path fill-rule="evenodd" clip-rule="evenodd" d="M58.3005 90.9004H60.4004C60.4004 92.1004 59.7004 92.7004 58.9004 92.7004C58.2004 92.7004 57.8006 92.3004 57.6006 91.8004H56.9004C57.1004 92.7004 57.8004 93.4004 58.9004 93.4004C60.2004 93.4004 61.1006 92.5004 61.1006 90.9004V90.4004C61.1006 88.9004 60.2004 88.0004 58.9004 88.0004C57.7004 88.0004 57.1004 88.7004 56.9004 89.5004H57.6006C57.8006 89.0004 58.2004 88.7004 58.9004 88.7004C59.8004 88.7004 60.4004 89.3004 60.4004 90.4004H58.3005V90.9004ZM63.0005 93.3004H63.2004C64.2004 93.3004 64.8005 92.7004 64.8005 90.5004V88.6004H67.0005V93.2004H67.7004V88.0004H64.2004V90.5004C64.2004 92.2004 63.8005 92.6004 63.3005 92.6004H63.1006V93.3004H63.0005ZM72.4004 93.3004C73.7004 93.3004 74.4006 92.6004 74.6006 91.7004H73.9004C73.7004 92.2004 73.3004 92.6004 72.4004 92.6004C71.5004 92.6004 70.9004 92.0004 70.9004 90.8004H74.7004V90.4004C74.7004 88.8004 73.8005 87.9004 72.5005 87.9004C71.1005 87.9004 70.3005 88.8004 70.3005 90.4004V90.9004C70.2005 92.4004 71.1004 93.3004 72.4004 93.3004ZM72.4004 88.6004C73.3004 88.6004 73.9004 89.1004 73.9004 90.2004H70.8005C70.9005 89.2004 71.5004 88.6004 72.4004 88.6004ZM80.6006 93.2004H81.5005L79.6006 90.5004L81.3005 88.0004H80.4004L78.9004 90.2004H78.0005V88.0004H77.3005V93.2004H78.0005V90.8004H78.9004L80.6006 93.2004ZM83.1006 88.6004H84.8005V93.2004H85.5005V88.6004H87.2004V88.0004H83.0005V88.6004H83.1006ZM91.9004 93.3004C93.1004 93.3004 93.9004 92.4004 93.9004 90.8004V90.3004C93.9004 88.7004 93.1004 87.8004 91.9004 87.8004C91.1004 87.8004 90.5004 88.1004 90.2004 88.7004L90.1006 87.8004H89.6006V95.1004H90.3005V92.3004C90.6005 93.0004 91.2004 93.3004 91.9004 93.3004ZM91.8005 92.6004C90.9005 92.6004 90.3005 92.0004 90.3005 90.8004V90.3004C90.3005 89.2004 91.0005 88.6004 91.8005 88.6004C92.7005 88.6004 93.3005 89.2004 93.3005 90.4004V90.9004C93.2005 92.1004 92.7005 92.6004 91.8005 92.6004ZM98.5005 93.3004C99.9005 93.3004 100.801 92.4004 100.801 90.8004V90.3004C100.801 88.8004 99.9005 87.8004 98.5005 87.8004C97.1005 87.8004 96.2004 88.7004 96.2004 90.3004V90.8004C96.2004 92.4004 97.2005 93.3004 98.5005 93.3004ZM98.5005 92.6004C97.6005 92.6004 96.9004 91.9004 96.9004 90.8004V90.3004C96.9004 89.1004 97.5005 88.5004 98.5005 88.5004C99.4005 88.5004 100.101 89.2004 100.101 90.3004V90.8004C100.101 92.0004 99.5005 92.6004 98.5005 92.6004ZM107 93.2004H107.7V88.0004H107V90.2004H104.101V88.0004H103.4V93.2004H104.101V90.9004H107V93.2004ZM114.2 93.2004H114.9V88.0004H114.2V90.2004H111.301V88.0004H110.601V93.2004H111.301V90.9004H114.2V93.2004ZM117.801 93.2004H119.601C121.001 93.2004 121.7 92.5004 121.7 91.5004C121.7 90.5004 121.101 89.8004 119.601 89.8004H118.4V88.0004H117.7V93.2004H117.801ZM119.7 90.5004C120.7 90.5004 121.101 90.9004 121.101 91.5004C121.101 92.2004 120.7 92.5004 119.7 92.5004H118.5V90.4004H119.7V90.5004ZM122.801 93.2004H123.5V88.0004H122.801V93.2004ZM130 93.2004H130.7V88.0004H129.801L127.7 91.3004L127.101 92.4004V88.0004H126.4V93.2004H127.301L129.4 89.9004L130 88.8004V93.2004ZM128.5 87.3004C129.4 87.3004 129.9 86.8004 129.9 85.9004H129.301C129.301 86.5004 129 86.8004 128.5 86.8004C128 86.8004 127.801 86.5004 127.801 85.9004H127.101C127.101 86.8004 127.7 87.3004 128.5 87.3004ZM141.301 94.6004H142V92.6004H141.301V88.0004H137.801V89.6004C137.801 91.3004 137.7 91.9004 137.2 92.6004H136.601V94.6004H137.301V93.2004H141.301V94.6004ZM138.4 89.6004V88.7004H140.5V92.7004H137.9C138.3 91.9004 138.4 91.3004 138.4 89.6004ZM147.801 93.2004H148.5V88.0004H147.601L145.5 91.3004L144.9 92.4004V88.0004H144.2V93.2004H145.101L147.2 89.9004L147.801 88.8004V93.2004ZM153.301 93.3004C154.501 93.3004 155.101 92.6004 155.301 91.7004H154.601C154.401 92.3004 154.001 92.6004 153.301 92.6004C152.401 92.6004 151.801 91.9004 151.801 90.8004V90.3004C151.801 89.1004 152.401 88.5004 153.301 88.5004C154.001 88.5004 154.401 88.9004 154.601 89.3004H155.301C155.101 88.5004 154.401 87.8004 153.301 87.8004C152.001 87.8004 151.101 88.7004 151.101 90.3004V90.8004C151.101 92.4004 152.001 93.3004 153.301 93.3004ZM161.101 93.2004H162L160.101 90.5004L161.801 88.0004H160.9L159.4 90.2004H158.5V88.0004H157.801V93.2004H158.5V90.8004H159.4L161.101 93.2004ZM165.4 93.3004C166.2 93.3004 166.8 92.9004 167.2 92.2004L167.301 93.2004H167.801V89.7004C167.801 88.6004 167.2 88.0004 165.9 88.0004C164.6 88.0004 164 88.6004 164 89.5004H164.7C164.8 89.0004 165.1 88.7004 165.9 88.7004C166.7 88.7004 167.101 89.0004 167.101 89.8004V90.3004H165.9C164.3 90.3004 163.7 90.9004 163.7 91.9004C163.8 92.7004 164.4 93.3004 165.4 93.3004ZM165.5 92.6004C164.9 92.6004 164.5 92.3004 164.5 91.7004C164.5 91.1004 164.9 90.7004 166 90.7004H167.2V90.9004C167.2 91.9004 166.5 92.6004 165.5 92.6004ZM171.301 95.3004H172L174.801 88.0004H174.101L172.5 92.4004L170.7 88.0004H169.9L172.101 93.2004L171.301 95.3004ZM180.7 93.2004H181.4V88.0004H180.7V90.2004H177.801V88.0004H177.101V93.2004H177.801V90.9004H180.7V93.2004ZM183.7 88.6004H185.4V93.2004H186.101V88.6004H187.801V88.0004H183.601V88.6004H183.7ZM191.9 93.3004C193.2 93.3004 193.901 92.6004 194.101 91.7004H193.4C193.2 92.2004 192.8 92.6004 191.9 92.6004C191 92.6004 190.4 92.0004 190.4 90.8004H194.2V90.4004C194.2 88.8004 193.3 87.9004 192 87.9004C190.6 87.9004 189.801 88.8004 189.801 90.4004V90.9004C189.601 92.4004 190.5 93.3004 191.9 93.3004ZM191.9 88.6004C192.8 88.6004 193.4 89.1004 193.4 90.2004H190.301C190.401 89.2004 191 88.6004 191.9 88.6004ZM199.101 93.3004C200.301 93.3004 201.101 92.4004 201.101 90.8004V90.3004C201.101 88.7004 200.301 87.8004 199.101 87.8004C198.301 87.8004 197.7 88.1004 197.4 88.7004L197.301 87.8004H196.801V95.1004H197.5V92.3004C197.8 93.0004 198.301 93.3004 199.101 93.3004ZM198.9 92.6004C198 92.6004 197.4 92.0004 197.4 90.8004V90.3004C197.4 89.2004 198.1 88.6004 198.9 88.6004C199.8 88.6004 200.4 89.2004 200.4 90.4004V90.9004C200.4 92.1004 199.8 92.6004 198.9 92.6004Z" fill="url(#paint2_linear_1407_2496)"/>
<defs>
<linearGradient id="paint0_linear_1407_2496" x1="56.388" y1="74.0569" x2="200.988" y2="74.0569" gradientUnits="userSpaceOnUse">
<stop stop-color="#1C8AE2"/>
<stop offset="0.4865" stop-color="#8B00B3"/>
<stop offset="1" stop-color="#6900B5"/>
</linearGradient>
<linearGradient id="paint1_linear_1407_2496" x1="0.1423" y1="85.9191" x2="44.8986" y2="85.9191" gradientUnits="userSpaceOnUse">
<stop stop-color="#1C8AE2"/>
<stop offset="0.4865" stop-color="#8B00B3"/>
<stop offset="1" stop-color="#6900B5"/>
</linearGradient>
<linearGradient id="paint2_linear_1407_2496" x1="56.8781" y1="90.6127" x2="201.112" y2="90.6127" gradientUnits="userSpaceOnUse">
<stop stop-color="#1C8AE2"/>
<stop offset="0.4865" stop-color="#8B00B3"/>
<stop offset="1" stop-color="#6900B5"/>
</linearGradient>
</defs>
</svg>
