<svg width="202" height="155" viewBox="0 0 202 155" fill="none" xmlns="http://www.w3.org/2000/svg">
<path d="M47.6 59.8C48.1 57.6 48.1 55.4 47.6 53.2C47.6 53.2 42.5 63.9 36.6 68.1C36.6 68.1 44.5 57.4 45.8 51.7C47.2 46 44.7 43.1 44.7 43.1C44.7 43.1 42.4 56.3 35.8 62.5C35.8 62.5 42.5 52.5 42.8 40.8C42.3 38.3 41.3 36 39.7 34C38.5 41.3 36.3 48.5 33.2 55.2C28.1 66.4 26.9 66.3 26.9 66.3C26.9 66.3 19.7 62.6 15.5 63.6C11.3 64.6 10.5 65.2 10.1 65.6C9.8 65.9 9.8 66.4 10 66.7C10 66.7 7.3 68.4 7.4 70.3C7.4 71.3 8 72.2 8.8 72.7C8.7 72 9.1 71.2 9.7 70.8C10.2 70.3 10.9 70.1 11.6 70.2C13 70.7 14.1 71.7 14.8 73.1C15.4 74.8 14.6 75.1 14.7 76.8C14.8 78.5 18.7 84.2 20.9 86.5C23.2 88.7 26.4 91.7 28.5 92.4L23.6 95.9V100.5C18.2 98 8.8 92.7 5.7 83.2C4.7 79.8 4.1 76.3 3.8 72.7C3.3 67.8 3.3 62.9 3.7 57.9L23.3 52.8L31.2 54.9L32.3 51.9L23.6 49.6L0.5 55.4C0.2 58.6 0 61.7 0 64.9C0 68.7 0.3 71.7 0.5 73C0.9 76.9 2.2 85.2 5.7 90.6L6 91C7.7 93.3 9.6 95.5 11.8 97.3C15.3 100.1 19.1 102.3 23.2 103.9C23.2 103.9 34.5 100.2 39.4 93.4C42.4 89.1 44.5 84.3 45.7 79.2C45.7 79.2 38.9 83.4 35.2 84.4L46.1 76.8C46.8 75 47.1 73 47 71C43.8 74.1 40.1 76.8 36.1 78.8C36.1 78.8 45.4 70.9 47.5 67.9V62.5C47.5 62.5 41.8 70.4 36.6 72.8C36.7 73 46.2 63.6 47.6 59.8ZM14.4 67.5L12.6 66.3L15.8 65.3L14.4 67.5Z" fill="url(#paint0_linear_1407_2497)"/>
<path d="M72.7 67.0996V69.2996H70.3C69.7 69.1996 69.1 69.3996 68.6 69.6996C68.2 70.1996 68.1 70.7996 68.2 71.4996V92.8996C68.1 93.4996 68.3 94.1996 68.6 94.6996C69.1 94.9996 69.7 95.1996 70.3 95.0996H72.7V97.2996H56V95.0996H58.4C59 95.1996 59.6 94.9996 60.1 94.6996C60.5 94.1996 60.6 93.5996 60.5 92.8996V71.4996C60.6 70.8996 60.4 70.1996 60.1 69.6996C59.6 69.3996 59 69.1996 58.4 69.2996H56V67.0996H72.7Z" fill="url(#paint1_linear_1407_2497)"/>
<path d="M93.2996 67.0996V69.2996H90.8996C90.2996 69.1996 89.6996 69.3996 89.1996 69.6996C88.7996 70.1996 88.6996 70.8996 88.7996 71.4996V92.8996C88.6996 93.4996 88.8996 94.0996 89.1996 94.6996C89.6996 94.9996 90.2996 95.1996 90.8996 95.0996H93.2996V97.2996H76.5996V95.0996H78.8996C79.4996 95.1996 80.0996 94.9996 80.5996 94.6996C80.9996 94.1996 81.0996 93.5996 80.9996 92.8996V71.4996C81.0996 70.8996 80.8996 70.1996 80.5996 69.6996C80.0996 69.3996 79.4996 69.1996 78.8996 69.2996H76.5996V67.0996H93.2996Z" fill="url(#paint2_linear_1407_2497)"/>
<path d="M123.3 87.0008C122.8 90.2008 121.1 93.0008 118.7 95.1008C116.2 97.1008 113 98.1008 109.8 97.9008C108.1 97.9008 106.3 97.7008 104.7 97.2008C103.1 96.7008 101.7 96.0008 100.4 95.0008C98.4002 93.5008 96.9002 91.6008 95.8002 89.4008C93.9002 85.2008 93.7002 80.5008 95.3002 76.1008C96.0002 74.3008 97.0002 72.6008 98.3002 71.1008C99.7002 69.5008 101.5 68.3008 103.4 67.5008C105.5 66.7008 107.8 66.3008 110.1 66.3008C111.5 66.3008 113 66.5008 114.4 66.9008C115.7 67.3008 116.9 67.9008 118 68.7008L120.4 66.6008H122.2L122.8 78.8008L120.6 79.0008C120 76.1008 118.7 73.4008 116.7 71.2008C115.1 69.5008 113 68.6008 110.7 68.6008C108.2 68.4008 105.8 69.6008 104.5 71.8008C103.2 73.9008 102.6 77.3008 102.6 82.0008C102.6 86.7008 103.3 90.2008 104.6 92.3008C105.9 94.3008 108.1 95.4008 111.2 95.4008C113.4 95.4008 115.6 94.6008 117.3 93.1008C119.1 91.3008 120.4 88.9008 121 86.4008L123.3 87.0008Z" fill="url(#paint3_linear_1407_2497)"/>
<path d="M137.3 65.4006C137.3 65.8006 137 66.1006 136.7 66.1006H136.6C136.2 66.1006 135.9 65.8006 135.9 65.5006C135.9 65.1006 136.2 64.8006 136.6 64.8006C137 64.7006 137.3 65.0006 137.3 65.4006ZM136 73.0006V67.1006H137.1V73.0006H136Z" fill="url(#paint4_linear_1407_2497)"/>
<path d="M139 68.7C139 68.1 139 67.6 139 67.1H139.9V68.1C140.3 67.4 141.1 67 141.9 67C142.7 67 144 67.5 144 69.5V73.1H142.9V69.7C142.9 68.8 142.5 67.9 141.5 67.9C140.8 67.9 140.2 68.3 140 69C140 69.2 140 69.3 140 69.5V73.1H138.9L139 68.7Z" fill="url(#paint5_linear_1407_2497)"/>
<path d="M147.2 65.4004V67.1004H148.8V68.0004H147.2V71.2004C147.2 71.9004 147.4 72.4004 148 72.4004C148.2 72.4004 148.4 72.4004 148.6 72.3004V73.1004C148.3 73.2004 148 73.3004 147.6 73.2004C147.2 73.2004 146.7 73.1004 146.4 72.8004C146.1 72.4004 145.9 71.8004 146 71.3004V68.1004H145.1V67.3004H146V65.8004L147.2 65.4004Z" fill="url(#paint6_linear_1407_2497)"/>
<path d="M150.5 70.2C150.4 71.3 151.2 72.2 152.3 72.3C152.4 72.3 152.5 72.3 152.6 72.3C153.2 72.3 153.7 72.2 154.3 72L154.5 72.8C153.9 73.1 153.2 73.2 152.5 73.2C151 73.3 149.6 72.2 149.5 70.6C149.5 70.5 149.5 70.3 149.5 70.2C149.3 68.6 150.5 67.2 152.1 67C152.2 67 152.3 67 152.3 67C153.7 67 154.8 68.2 154.8 69.6C154.8 69.7 154.8 69.7 154.8 69.8C154.8 70 154.8 70.1 154.8 70.3H150.5V70.2ZM153.7 69.5C153.8 68.7 153.2 67.9 152.4 67.8C152.3 67.8 152.3 67.8 152.2 67.8C151.3 67.9 150.5 68.6 150.5 69.6H153.7V69.5Z" fill="url(#paint7_linear_1407_2497)"/>
<path d="M156.1 68.9008C156.1 68.2008 156.1 67.5008 156.1 67.0008H157.1V68.2008C157.3 67.4008 158 66.9008 158.8 66.8008C158.9 66.8008 159 66.8008 159.1 66.8008V67.9008C159 67.9008 158.8 67.9008 158.7 67.9008C157.9 67.9008 157.3 68.5008 157.2 69.3008C157.2 69.5008 157.2 69.6008 157.2 69.8008V73.0008H156.1V68.9008Z" fill="url(#paint8_linear_1407_2497)"/>
<path d="M160.3 68.7C160.3 68.1 160.3 67.6 160.3 67.1H161.3V68.1C161.7 67.4 162.5 67 163.3 67C164.1 67 165.4 67.5 165.4 69.5V73.1H164.3V69.7C164.3 68.8 163.9 67.9 162.9 67.9C162.2 67.9 161.6 68.3 161.4 69C161.4 69.2 161.4 69.3 161.4 69.5V73.1H160.3V68.7Z" fill="url(#paint9_linear_1407_2497)"/>
<path d="M170.6 72.9998L170.5 72.2998C170.1 72.8998 169.4 73.1998 168.6 73.1998C167.7 73.2998 166.8 72.5998 166.8 71.5998V71.4998C166.8 70.0998 168.2 69.2998 170.4 69.2998V69.1998C170.5 68.4998 170 67.8998 169.3 67.7998C169.2 67.7998 169.1 67.7998 169 67.7998C168.4 67.7998 167.9 67.9998 167.4 68.1998L167.1 67.4998C167.7 67.0998 168.4 66.9998 169.1 66.9998C170.3 66.8998 171.3 67.7998 171.4 68.9998C171.4 69.0998 171.4 69.2997 171.4 69.3997V71.5998C171.4 72.0998 171.4 72.5998 171.5 72.9998H170.6ZM170.4 69.9998C169.2 69.9998 167.8 70.1997 167.8 71.3997C167.8 71.8997 168.2 72.3997 168.7 72.3997H168.8C169.5 72.3997 170 71.9997 170.3 71.3997C170.3 71.2997 170.3 71.1998 170.3 70.9998L170.4 69.9998Z" fill="url(#paint10_linear_1407_2497)"/>
<path d="M174.5 65.4004V67.1004H176.1V68.0004H174.5V71.2004C174.5 71.9004 174.7 72.4004 175.3 72.4004C175.5 72.4004 175.7 72.4004 175.9 72.3004V73.1004C175.6 73.2004 175.3 73.3004 174.9 73.2004C174.5 73.2004 174 73.1004 173.7 72.8004C173.4 72.4004 173.2 71.8004 173.3 71.3004V68.1004H172.4V67.3004H173.3V65.8004L174.5 65.4004Z" fill="url(#paint11_linear_1407_2497)"/>
<path d="M178.5 65.4006C178.5 65.8006 178.2 66.1006 177.9 66.1006H177.8C177.4 66.1006 177.1 65.8006 177.1 65.5006C177.1 65.1006 177.4 64.8006 177.8 64.8006C178.2 64.7006 178.5 65.0006 178.5 65.4006ZM177.3 73.0006V67.1006H178.4V73.0006H177.3Z" fill="url(#paint12_linear_1407_2497)"/>
<path d="M185.7 70C185.8 71.6 184.6 73 183 73.2C182.9 73.2 182.8 73.2 182.7 73.2C181.1 73.2 179.8 72 179.8 70.4C179.8 70.3 179.8 70.2 179.8 70.1C179.7 68.5 180.9 67.1 182.5 67C182.6 67 182.7 67 182.8 67C184.4 67 185.7 68.2 185.7 69.7C185.7 69.8 185.7 69.9 185.7 70ZM180.9 70.1C180.9 71.5 181.7 72.4 182.7 72.4C183.8 72.4 184.5 71.4 184.5 70.1C184.5 69.1 184 67.8 182.7 67.8C181.5 67.7 180.9 68.9 180.9 70.1Z" fill="url(#paint13_linear_1407_2497)"/>
<path d="M187.1 68.7C187.1 68.1 187.1 67.6 187.1 67.1H188.1L188.2 68.1C188.6 67.4 189.4 67 190.2 67C191 67 192.3 67.5 192.3 69.5V73.1H191.2V69.7C191.2 68.8 190.8 67.9 189.8 67.9C189.1 67.9 188.5 68.3 188.3 69C188.2 69.2 188.2 69.3 188.2 69.5V73.1H187.1V68.7Z" fill="url(#paint14_linear_1407_2497)"/>
<path d="M197.4 72.9998L197.3 72.2998C196.9 72.8998 196.2 73.1998 195.5 73.1998C194.6 73.2998 193.7 72.5998 193.7 71.5998V71.4998C193.7 70.0998 195.1 69.2998 197.3 69.2998V69.1998C197.4 68.4998 196.9 67.8998 196.2 67.7998C196.1 67.7998 196 67.7998 195.9 67.7998C195.3 67.7998 194.8 67.9998 194.3 68.1998L194 67.4998C194.6 67.0998 195.3 66.9998 196 66.9998C197.2 66.8998 198.2 67.7998 198.2 68.9998C198.2 69.0998 198.2 69.2997 198.2 69.3997V71.5998C198.2 72.0998 198.2 72.5998 198.3 72.9998H197.4ZM197.2 69.9998C196 69.9998 194.6 70.1997 194.6 71.3997C194.6 71.8997 195 72.3997 195.5 72.3997H195.6C196.3 72.3997 196.8 71.9997 197.1 71.3997C197.1 71.2997 197.2 71.1998 197.2 70.9998V69.9998Z" fill="url(#paint15_linear_1407_2497)"/>
<path d="M201.1 71.9008V64.3008H200V71.9008V73.0008H201.1H202V71.9008H201.1Z" fill="url(#paint16_linear_1407_2497)"/>
<path d="M140.4 96.4996C139.9 96.6996 139.3 96.8996 138.7 96.7996C137.1 96.8996 135.8 95.6996 135.7 94.1996C135.7 94.0996 135.7 93.8996 135.7 93.7996C135.6 92.0996 136.9 90.6996 138.6 90.5996C138.7 90.5996 138.8 90.5996 138.9 90.5996C139.4 90.5996 139.9 90.6996 140.4 90.8996L140.2 91.6996C139.8 91.4996 139.4 91.3996 138.9 91.3996C137.7 91.4996 136.7 92.5996 136.8 93.7996C136.9 94.8996 137.8 95.7996 138.9 95.8996C139.4 95.8996 139.8 95.7996 140.3 95.5996L140.4 96.4996Z" fill="url(#paint17_linear_1407_2497)"/>
<path d="M147 93.7C147.1 95.3 145.9 96.7 144.3 96.8C144.2 96.8 144.1 96.8 144 96.8C142.4 96.8 141.2 95.5 141.2 93.9C141.2 93.8 141.2 93.7 141.2 93.7C141.1 92.1 142.3 90.7 143.9 90.5C144 90.5 144.1 90.5 144.2 90.5C145.8 90.5 147.1 91.8 147.1 93.3C147.1 93.6 147 93.7 147 93.7ZM142.2 93.7C142.1 94.8 142.9 95.8 144 96H144.1C145.1 96 145.9 95 145.9 93.7C145.9 92.7 145.4 91.4 144.1 91.4C142.8 91.4 142.2 92.6 142.2 93.7Z" fill="url(#paint18_linear_1407_2497)"/>
<path d="M148.4 92.3992C148.4 91.7992 148.4 91.2992 148.4 90.7992H149.3V91.7992C149.7 91.0992 150.4 90.6992 151.2 90.6992C152 90.6992 152.7 91.1992 152.9 91.8992C153.1 91.5992 153.3 91.2992 153.6 91.0992C154 90.7992 154.5 90.6992 155 90.6992C155.8 90.6992 157 91.1992 157 93.2992V96.7992H155.9V93.3992C155.9 92.2992 155.5 91.5992 154.5 91.5992C153.9 91.5992 153.3 91.9992 153.1 92.5992C153 92.7992 153 92.9992 153 93.0992V96.7992H151.9V93.1992C151.9 92.2992 151.5 91.5992 150.6 91.5992C150 91.5992 149.4 92.0992 149.2 92.6992C149.1 92.8992 149.1 92.9992 149.1 93.1992V96.7992H148L148.4 92.3992Z" fill="url(#paint19_linear_1407_2497)"/>
<path d="M158.8 92.6996C158.8 91.8996 158.8 91.2996 158.8 90.7996H159.8V91.7996C160.3 91.0996 161.1 90.5996 162 90.5996C163.5 90.6996 164.7 91.8996 164.6 93.3996C164.6 93.4996 164.6 93.5996 164.6 93.6996C164.8 95.1996 163.7 96.6996 162.2 96.8996C162.1 96.8996 162 96.8996 161.9 96.8996C161.2 96.8996 160.5 96.5996 160 95.9996V99.1996H158.9V92.6996H158.8ZM159.9 94.2996C159.9 94.3996 159.9 94.5996 159.9 94.6996C160.1 95.3996 160.8 95.9996 161.5 95.9996C162.7 95.9996 163.3 95.0996 163.3 93.6996C163.3 92.2996 162.7 91.4996 161.5 91.4996C160.7 91.4996 160 92.0996 159.8 92.8996C159.8 92.9996 159.7 93.1996 159.7 93.2996L159.9 94.2996Z" fill="url(#paint20_linear_1407_2497)"/>
<path d="M169.3 96.6992L169.2 95.9992C168.8 96.5992 168.1 96.8992 167.4 96.8992C166.5 96.9992 165.6 96.2992 165.5 95.3992C165.5 95.2992 165.5 95.1992 165.5 95.1992C165.5 93.7992 166.9 92.9992 169.1 92.9992V92.8992C169.2 92.1992 168.7 91.5992 168 91.4992C167.9 91.4992 167.8 91.4992 167.7 91.4992C167.1 91.4992 166.6 91.6992 166.1 91.8992L165.9 91.1992C166.5 90.7992 167.2 90.6992 167.9 90.6992C169.7 90.6992 170.2 91.8992 170.2 93.0992V95.2992C170.2 95.7992 170.2 96.2992 170.3 96.6992H169.3ZM169.1 93.6992C167.9 93.6992 166.5 93.8992 166.5 95.0992C166.5 95.5992 166.9 96.0992 167.4 96.0992C167.5 96.0992 167.5 96.0992 167.6 96.0992C168.2 96.0992 168.8 95.6992 169.1 95.0992C169.1 94.9992 169.1 94.8992 169.1 94.7992V93.6992Z" fill="url(#paint21_linear_1407_2497)"/>
<path d="M172 92.3992C172 91.7992 172 91.2992 172 90.7992H173V91.7992C173.4 91.0992 174.2 90.6992 175 90.6992C175.8 90.6992 177.1 91.1992 177.1 93.1992V96.7992H176V93.2992C176 92.2992 175.6 91.4992 174.6 91.4992C173.9 91.4992 173.3 91.9992 173.1 92.5992C173.1 92.7992 173.1 92.8992 173.1 93.0992V96.6992H172V92.3992Z" fill="url(#paint22_linear_1407_2497)"/>
<path d="M179.2 90.8008L180.6 94.3008C180.7 94.7008 180.9 95.2008 181 95.5008C181.1 95.1008 181.2 94.7008 181.4 94.3008L182.6 90.8008H183.8L182 95.0008C181.6 96.4008 180.9 97.7008 179.9 98.7008C179.5 99.0008 179 99.3008 178.5 99.4008L178.2 98.5008C178.6 98.4008 178.9 98.2008 179.2 98.0008C179.6 97.7008 179.9 97.3008 180.1 96.8008C180.1 96.7008 180.2 96.6008 180.2 96.5008C180.2 96.4008 180.2 96.3008 180.1 96.2008L177.9 90.8008H179.2Z" fill="url(#paint23_linear_1407_2497)"/>
<path d="M137.3 77.2C137.3 77.6 137 77.9 136.7 77.9H136.6C136.2 77.9 136 77.6 135.9 77.3C135.9 77.3 135.9 77.3 135.9 77.2C135.9 76.8 136.2 76.5 136.5 76.5C136.9 76.5 137.2 76.7 137.3 77.2C137.3 77.1 137.3 77.1 137.3 77.2ZM136 84.8V78.8H137.1V84.7L136 84.8Z" fill="url(#paint24_linear_1407_2497)"/>
<path d="M139 80.3992C139 79.7992 139 79.2992 139 78.7992H139.9V79.7992C140.3 79.0992 141.1 78.6992 141.9 78.6992C142.7 78.6992 144 79.1992 144 81.1992V84.6992H142.9V81.2992C142.9 80.2992 142.5 79.4992 141.5 79.4992C140.8 79.4992 140.2 79.8992 140 80.5992C140 80.7992 140 80.8992 140 81.0992V84.6992H138.9L139 80.3992Z" fill="url(#paint25_linear_1407_2497)"/>
<path d="M145.8 83.6996C146.2 83.9996 146.7 84.0996 147.3 84.0996C148.1 84.0996 148.5 83.6996 148.5 83.1996C148.5 82.6996 148.2 82.3996 147.4 82.0996C146.3 81.6996 145.8 81.0996 145.8 80.3996C145.9 79.3996 146.7 78.5996 147.8 78.5996H147.9C148.4 78.5996 148.9 78.6996 149.4 78.9996L149.1 79.7996C148.7 79.5996 148.3 79.4996 147.9 79.4996C147.2 79.4996 146.9 79.8996 146.9 80.2996C146.9 80.6996 147.3 80.9996 148 81.2996C149.1 81.6996 149.6 82.1996 149.6 83.0996C149.6 83.9996 148.8 84.8996 147.3 84.8996C146.7 84.8996 146.1 84.7996 145.6 84.4996L145.8 83.6996Z" fill="url(#paint26_linear_1407_2497)"/>
<path d="M155.9 83.2008C155.9 83.8008 155.9 84.4008 155.9 84.8008H154.9V83.8008C154.5 84.5008 153.7 84.9008 152.9 84.9008C152 84.9008 150.8 84.4008 150.8 82.3008V78.8008H151.9V82.1008C151.9 83.2008 152.3 84.0008 153.3 84.0008C153.9 84.0008 154.5 83.6008 154.8 83.0008C154.9 82.8008 154.9 82.6008 154.9 82.4008V78.8008H156L155.9 83.2008Z" fill="url(#paint27_linear_1407_2497)"/>
<path d="M157.7 80.6992C157.7 79.9992 157.7 79.2992 157.7 78.8992H158.7V80.0992C158.9 79.2992 159.6 78.7992 160.4 78.6992H160.7V79.6992C160.6 79.6992 160.4 79.6992 160.3 79.6992C159.5 79.6992 158.9 80.2992 158.8 81.0992C158.8 81.1992 158.8 81.3992 158.8 81.5992V84.7992H157.7V80.6992Z" fill="url(#paint28_linear_1407_2497)"/>
<path d="M165.1 84.7992L165 84.0992C164.6 84.6992 163.9 84.9992 163.2 84.9992C162.3 85.0992 161.4 84.3992 161.3 83.3992C161.3 83.2992 161.3 83.2992 161.3 83.1992C161.3 81.7992 162.7 80.9992 164.9 80.9992V80.8992C165 80.1992 164.5 79.5992 163.8 79.4992C163.7 79.4992 163.6 79.4992 163.5 79.4992C162.9 79.4992 162.4 79.6992 161.9 79.8992L161.7 79.1992C162.3 78.8992 163 78.6992 163.7 78.6992C165.5 78.6992 166 79.8992 166 81.0992V83.2992C166 83.7992 166 84.1992 166.1 84.6992L165.1 84.7992ZM164.9 81.6992C163.7 81.6992 162.3 81.8992 162.3 83.0992C162.3 83.5992 162.7 84.0992 163.2 84.0992C163.3 84.0992 163.3 84.0992 163.4 84.0992C164 84.0992 164.6 83.6992 164.9 83.0992C164.9 82.9992 164.9 82.8992 164.9 82.7992V81.6992Z" fill="url(#paint29_linear_1407_2497)"/>
<path d="M167.8 80.3992C167.8 79.7992 167.8 79.2992 167.8 78.7992H168.8V79.7992C169.2 79.0992 170 78.6992 170.8 78.6992C171.6 78.6992 172.9 79.1992 172.9 81.1992V84.6992H171.8V81.2992C171.8 80.2992 171.4 79.4992 170.4 79.4992C169.7 79.4992 169.1 79.8992 168.9 80.5992C168.9 80.7992 168.9 80.8992 168.9 81.0992V84.6992H167.8V80.3992Z" fill="url(#paint30_linear_1407_2497)"/>
<path d="M179 84.5992C178.5 84.7992 177.9 84.9992 177.3 84.8992C175.7 84.9992 174.4 83.7992 174.3 82.2992C174.3 82.1992 174.3 81.9992 174.3 81.8992C174.2 80.1992 175.5 78.7992 177.2 78.6992C177.3 78.6992 177.4 78.6992 177.5 78.6992C178 78.6992 178.5 78.7992 179 78.9992L178.8 79.7992C178.4 79.5992 178 79.4992 177.5 79.4992C176.3 79.5992 175.3 80.6992 175.4 81.8992C175.5 82.9992 176.4 83.8992 177.5 83.9992C178 83.9992 178.4 83.8992 178.9 83.6992L179 84.5992Z" fill="url(#paint31_linear_1407_2497)"/>
<path d="M180.8 82.0008C180.7 83.1008 181.5 84.0008 182.6 84.1008C182.7 84.1008 182.8 84.1008 182.9 84.1008C183.5 84.1008 184 84.0008 184.6 83.8008L184.8 84.6008C184.2 84.9008 183.5 85.0008 182.8 85.0008C181.3 85.2008 180 84.1008 179.8 82.6008C179.8 82.4008 179.8 82.2008 179.8 82.0008C179.6 80.4008 180.8 79.0008 182.4 78.8008C182.5 78.8008 182.6 78.8008 182.6 78.8008C184 78.8008 185.1 79.9008 185.1 81.3008C185.1 81.4008 185.1 81.5008 185.1 81.6008C185.1 81.8008 185.1 81.9008 185.1 82.1008L180.8 82.0008ZM184 81.2008C184.1 80.4008 183.5 79.6008 182.7 79.5008C182.6 79.5008 182.6 79.5008 182.5 79.5008C181.6 79.6008 180.8 80.3008 180.8 81.3008H184V81.2008Z" fill="url(#paint32_linear_1407_2497)"/>
<path d="M137.2 78.8008H135.4V79.5008H137.2V78.8008Z" fill="url(#paint33_linear_1407_2497)"/>
<defs>
<linearGradient id="paint0_linear_1407_2497" x1="-2.7222" y1="68.978" x2="199.946" y2="68.978" gradientUnits="userSpaceOnUse">
<stop stop-color="#1C8AE2"/>
<stop offset="0.4865" stop-color="#8B00B3"/>
<stop offset="1" stop-color="#6900B5"/>
</linearGradient>
<linearGradient id="paint1_linear_1407_2497" x1="-2.72219" y1="82.1753" x2="199.946" y2="82.1753" gradientUnits="userSpaceOnUse">
<stop stop-color="#1C8AE2"/>
<stop offset="0.4865" stop-color="#8B00B3"/>
<stop offset="1" stop-color="#6900B5"/>
</linearGradient>
<linearGradient id="paint2_linear_1407_2497" x1="-2.72258" y1="82.1753" x2="199.946" y2="82.1753" gradientUnits="userSpaceOnUse">
<stop stop-color="#1C8AE2"/>
<stop offset="0.4865" stop-color="#8B00B3"/>
<stop offset="1" stop-color="#6900B5"/>
</linearGradient>
<linearGradient id="paint3_linear_1407_2497" x1="-2.72198" y1="82.2088" x2="199.947" y2="82.2088" gradientUnits="userSpaceOnUse">
<stop stop-color="#1C8AE2"/>
<stop offset="0.4865" stop-color="#8B00B3"/>
<stop offset="1" stop-color="#6900B5"/>
</linearGradient>
<linearGradient id="paint4_linear_1407_2497" x1="-2.72272" y1="68.8698" x2="199.947" y2="68.8698" gradientUnits="userSpaceOnUse">
<stop stop-color="#1C8AE2"/>
<stop offset="0.4865" stop-color="#8B00B3"/>
<stop offset="1" stop-color="#6900B5"/>
</linearGradient>
<linearGradient id="paint5_linear_1407_2497" x1="-2.72198" y1="69.9751" x2="199.947" y2="69.9751" gradientUnits="userSpaceOnUse">
<stop stop-color="#1C8AE2"/>
<stop offset="0.4865" stop-color="#8B00B3"/>
<stop offset="1" stop-color="#6900B5"/>
</linearGradient>
<linearGradient id="paint6_linear_1407_2497" x1="-2.72246" y1="69.2785" x2="199.946" y2="69.2785" gradientUnits="userSpaceOnUse">
<stop stop-color="#1C8AE2"/>
<stop offset="0.4865" stop-color="#8B00B3"/>
<stop offset="1" stop-color="#6900B5"/>
</linearGradient>
<linearGradient id="paint7_linear_1407_2497" x1="-2.72196" y1="70.0402" x2="199.947" y2="70.0402" gradientUnits="userSpaceOnUse">
<stop stop-color="#1C8AE2"/>
<stop offset="0.4865" stop-color="#8B00B3"/>
<stop offset="1" stop-color="#6900B5"/>
</linearGradient>
<linearGradient id="paint8_linear_1407_2497" x1="-2.72259" y1="69.9235" x2="199.946" y2="69.9235" gradientUnits="userSpaceOnUse">
<stop stop-color="#1C8AE2"/>
<stop offset="0.4865" stop-color="#8B00B3"/>
<stop offset="1" stop-color="#6900B5"/>
</linearGradient>
<linearGradient id="paint9_linear_1407_2497" x1="-2.72211" y1="69.9751" x2="199.946" y2="69.9751" gradientUnits="userSpaceOnUse">
<stop stop-color="#1C8AE2"/>
<stop offset="0.4865" stop-color="#8B00B3"/>
<stop offset="1" stop-color="#6900B5"/>
</linearGradient>
<linearGradient id="paint10_linear_1407_2497" x1="-2.72282" y1="70.05" x2="199.946" y2="70.05" gradientUnits="userSpaceOnUse">
<stop stop-color="#1C8AE2"/>
<stop offset="0.4865" stop-color="#8B00B3"/>
<stop offset="1" stop-color="#6900B5"/>
</linearGradient>
<linearGradient id="paint11_linear_1407_2497" x1="-2.72238" y1="69.2781" x2="199.947" y2="69.2781" gradientUnits="userSpaceOnUse">
<stop stop-color="#1C8AE2"/>
<stop offset="0.4865" stop-color="#8B00B3"/>
<stop offset="1" stop-color="#6900B5"/>
</linearGradient>
<linearGradient id="paint12_linear_1407_2497" x1="-2.72181" y1="68.8698" x2="199.946" y2="68.8698" gradientUnits="userSpaceOnUse">
<stop stop-color="#1C8AE2"/>
<stop offset="0.4865" stop-color="#8B00B3"/>
<stop offset="1" stop-color="#6900B5"/>
</linearGradient>
<linearGradient id="paint13_linear_1407_2497" x1="-2.72319" y1="70.0431" x2="199.946" y2="70.0431" gradientUnits="userSpaceOnUse">
<stop stop-color="#1C8AE2"/>
<stop offset="0.4865" stop-color="#8B00B3"/>
<stop offset="1" stop-color="#6900B5"/>
</linearGradient>
<linearGradient id="paint14_linear_1407_2497" x1="-2.72192" y1="69.9751" x2="199.946" y2="69.9751" gradientUnits="userSpaceOnUse">
<stop stop-color="#1C8AE2"/>
<stop offset="0.4865" stop-color="#8B00B3"/>
<stop offset="1" stop-color="#6900B5"/>
</linearGradient>
<linearGradient id="paint15_linear_1407_2497" x1="-2.72095" y1="70.0504" x2="199.947" y2="70.0504" gradientUnits="userSpaceOnUse">
<stop stop-color="#1C8AE2"/>
<stop offset="0.4865" stop-color="#8B00B3"/>
<stop offset="1" stop-color="#6900B5"/>
</linearGradient>
<linearGradient id="paint16_linear_1407_2497" x1="-2.72222" y1="68.6532" x2="199.946" y2="68.6532" gradientUnits="userSpaceOnUse">
<stop stop-color="#1C8AE2"/>
<stop offset="0.4865" stop-color="#8B00B3"/>
<stop offset="1" stop-color="#6900B5"/>
</linearGradient>
<linearGradient id="paint17_linear_1407_2497" x1="-2.72576" y1="93.7032" x2="199.943" y2="93.7032" gradientUnits="userSpaceOnUse">
<stop stop-color="#1C8AE2"/>
<stop offset="0.4865" stop-color="#8B00B3"/>
<stop offset="1" stop-color="#6900B5"/>
</linearGradient>
<linearGradient id="paint18_linear_1407_2497" x1="-2.72227" y1="93.7655" x2="199.947" y2="93.7655" gradientUnits="userSpaceOnUse">
<stop stop-color="#1C8AE2"/>
<stop offset="0.4865" stop-color="#8B00B3"/>
<stop offset="1" stop-color="#6900B5"/>
</linearGradient>
<linearGradient id="paint19_linear_1407_2497" x1="-2.7222" y1="93.6749" x2="199.946" y2="93.6749" gradientUnits="userSpaceOnUse">
<stop stop-color="#1C8AE2"/>
<stop offset="0.4865" stop-color="#8B00B3"/>
<stop offset="1" stop-color="#6900B5"/>
</linearGradient>
<linearGradient id="paint20_linear_1407_2497" x1="-2.72248" y1="94.9035" x2="199.946" y2="94.9035" gradientUnits="userSpaceOnUse">
<stop stop-color="#1C8AE2"/>
<stop offset="0.4865" stop-color="#8B00B3"/>
<stop offset="1" stop-color="#6900B5"/>
</linearGradient>
<linearGradient id="paint21_linear_1407_2497" x1="-2.72177" y1="93.7418" x2="199.946" y2="93.7418" gradientUnits="userSpaceOnUse">
<stop stop-color="#1C8AE2"/>
<stop offset="0.4865" stop-color="#8B00B3"/>
<stop offset="1" stop-color="#6900B5"/>
</linearGradient>
<linearGradient id="paint22_linear_1407_2497" x1="-2.72241" y1="93.6757" x2="199.946" y2="93.6757" gradientUnits="userSpaceOnUse">
<stop stop-color="#1C8AE2"/>
<stop offset="0.4865" stop-color="#8B00B3"/>
<stop offset="1" stop-color="#6900B5"/>
</linearGradient>
<linearGradient id="paint23_linear_1407_2497" x1="-2.72162" y1="95.1094" x2="199.947" y2="95.1094" gradientUnits="userSpaceOnUse">
<stop stop-color="#1C8AE2"/>
<stop offset="0.4865" stop-color="#8B00B3"/>
<stop offset="1" stop-color="#6900B5"/>
</linearGradient>
<linearGradient id="paint24_linear_1407_2497" x1="-2.72272" y1="80.6279" x2="199.947" y2="80.6279" gradientUnits="userSpaceOnUse">
<stop stop-color="#1C8AE2"/>
<stop offset="0.4865" stop-color="#8B00B3"/>
<stop offset="1" stop-color="#6900B5"/>
</linearGradient>
<linearGradient id="paint25_linear_1407_2497" x1="-2.72198" y1="81.7333" x2="199.947" y2="81.7333" gradientUnits="userSpaceOnUse">
<stop stop-color="#1C8AE2"/>
<stop offset="0.4865" stop-color="#8B00B3"/>
<stop offset="1" stop-color="#6900B5"/>
</linearGradient>
<linearGradient id="paint26_linear_1407_2497" x1="-2.72259" y1="81.7814" x2="199.946" y2="81.7814" gradientUnits="userSpaceOnUse">
<stop stop-color="#1C8AE2"/>
<stop offset="0.4865" stop-color="#8B00B3"/>
<stop offset="1" stop-color="#6900B5"/>
</linearGradient>
<linearGradient id="paint27_linear_1407_2497" x1="-2.7223" y1="81.8577" x2="199.946" y2="81.8577" gradientUnits="userSpaceOnUse">
<stop stop-color="#1C8AE2"/>
<stop offset="0.4865" stop-color="#8B00B3"/>
<stop offset="1" stop-color="#6900B5"/>
</linearGradient>
<linearGradient id="paint28_linear_1407_2497" x1="-2.72201" y1="81.7134" x2="199.947" y2="81.7134" gradientUnits="userSpaceOnUse">
<stop stop-color="#1C8AE2"/>
<stop offset="0.4865" stop-color="#8B00B3"/>
<stop offset="1" stop-color="#6900B5"/>
</linearGradient>
<linearGradient id="paint29_linear_1407_2497" x1="-2.7225" y1="81.8183" x2="199.946" y2="81.8183" gradientUnits="userSpaceOnUse">
<stop stop-color="#1C8AE2"/>
<stop offset="0.4865" stop-color="#8B00B3"/>
<stop offset="1" stop-color="#6900B5"/>
</linearGradient>
<linearGradient id="paint30_linear_1407_2497" x1="-2.7226" y1="81.7333" x2="199.946" y2="81.7333" gradientUnits="userSpaceOnUse">
<stop stop-color="#1C8AE2"/>
<stop offset="0.4865" stop-color="#8B00B3"/>
<stop offset="1" stop-color="#6900B5"/>
</linearGradient>
<linearGradient id="paint31_linear_1407_2497" x1="-2.72233" y1="81.8012" x2="199.947" y2="81.8012" gradientUnits="userSpaceOnUse">
<stop stop-color="#1C8AE2"/>
<stop offset="0.4865" stop-color="#8B00B3"/>
<stop offset="1" stop-color="#6900B5"/>
</linearGradient>
<linearGradient id="paint32_linear_1407_2497" x1="-2.72269" y1="81.7967" x2="199.947" y2="81.7967" gradientUnits="userSpaceOnUse">
<stop stop-color="#1C8AE2"/>
<stop offset="0.4865" stop-color="#8B00B3"/>
<stop offset="1" stop-color="#6900B5"/>
</linearGradient>
<linearGradient id="paint33_linear_1407_2497" x1="-2.72205" y1="79.2044" x2="199.947" y2="79.2044" gradientUnits="userSpaceOnUse">
<stop stop-color="#1C8AE2"/>
<stop offset="0.4865" stop-color="#8B00B3"/>
<stop offset="1" stop-color="#6900B5"/>
</linearGradient>
</defs>
</svg>
