<svg width="201" height="155" fill="none" xmlns="http://www.w3.org/2000/svg"><g clip-path="url(#a)"><path d="m84.3 63.7-4.5 8.2h-6.9l6.2-9.9c-1.1-.6-2-1.5-2.6-2.5-.6-1.1-.9-2.3-.9-3.5 0-4.5 3-6.7 9.1-6.7h7.5v22.6h-6.1v-8.2h-1.8Zm1.8-9.8h-1.3c-.8 0-1.6.2-2.3.6-.6.4-.9 1.1-.8 1.8-.1.8.2 1.6.8 2.1.7.5 1.6.8 2.5.7h1.1v-5.2Z" fill="url(#b)"/><path d="M113.5 56.5c.1 2.2-.7 4.3-2.2 5.8-1.8 1.5-4 2.2-6.3 2.1h-1.8v7.5h-6.1V49.3h7.8c2.3-.2 4.5.5 6.4 1.8 1.5 1.4 2.3 3.4 2.2 5.4Zm-10.3 2.9h1.1c.8 0 1.6-.2 2.2-.8.6-.6.8-1.3.8-2.1 0-1.5-.8-2.3-2.5-2.3h-1.5l-.1 5.2Z" fill="url(#c)"/><path d="M139.8 78.9h-5.9v-7h-13.2v7h-5.9v-12h1.9c1.4-2.5 2.5-5.2 3.3-7.9.9-3.1 1.5-6.4 1.7-9.6h15.1V67h3v11.9Zm-9.1-12V54.3h-4.1c-.4 4.4-1.6 8.6-3.5 12.6h7.6Z" fill="url(#d)"/><path d="M29 42 0 114l42.3-19.2-27.9.5 25.3-32.5L29 42Z" fill="url(#e)"/><path d="m40.5 64.8 21.3 49.201-33.6-33.3 12.3-15.9Z" fill="url(#f)"/><path d="M29 42 14.4 95.3l27.9-.5L4.8 102 29 42Z" fill="url(#g)"/><path d="m40.5 64.8 1.9 30-14.2-14.1 12.3-15.9Z" fill="url(#h)"/><path d="M90.5 106.2h-4.3l-9.3-11.4v11.4h-3.6V83.6H77v10.9l9.1-10.9H90l-9.1 10.9 9.6 11.7Z" fill="url(#i)"/><path d="m103.7 106.199-.7-2.4h-.1c-.6.9-1.5 1.7-2.4 2.2-1 .4-2.1.6-3.2.6-1.4.1-2.9-.4-3.9-1.4-1-1-1.5-2.4-1.4-3.8-.1-1.6.7-3.1 2-4 1.8-1.1 3.9-1.6 6-1.5l3-.1v-.9c.1-.9-.2-1.8-.8-2.4-.6-.6-1.5-.9-2.4-.8-.9 0-1.7.1-2.5.4-.8.2-1.6.5-2.3.9l-1.2-2.6c1-.5 2-.9 3-1.1 1-.2 2-.4 3-.4 1.8-.1 3.5.4 4.9 1.4a5.8 5.8 0 0 1 1.7 4.5v11.5h-2.7v-.1Zm-5.3-2.5c1.2.1 2.3-.3 3.2-1.1.8-.8 1.3-1.9 1.2-3v-1.5l-2.2.1c-1.3 0-2.6.3-3.7.9-.8.5-1.2 1.4-1.2 2.3 0 .7.2 1.3.7 1.8.5.4 1.2.6 2 .5Z" fill="url(#j)"/><path d="M126.4 89.1v17.1h-3.6V92h-7.6v14.2h-3.7V89.1h14.9Z" fill="url(#k)"/><path d="M135 89.1v8.8c0 1 0 2.5-.2 4.5l8.5-13.3h4.4v17.1h-3.5V95.3c0-1.1.1-1.8.2-2.3l-8.5 13.2h-4.4V89.1h3.5Z" fill="url(#l)"/><path d="M165.8 89.1V92h-5.5v14.2h-3.7V92h-5.5v-2.9h14.7Z" fill="url(#m)"/><path d="m179.8 106.199-.7-2.4h-.1c-.6.9-1.5 1.7-2.5 2.2-1 .4-2.1.6-3.2.6-1.4.1-2.9-.4-3.9-1.4-1-1-1.5-2.4-1.4-3.8-.1-1.6.7-3.1 2-4 1.8-1.1 3.9-1.6 6-1.5l3-.1v-.9c.1-.9-.2-1.8-.8-2.4-.6-.6-1.5-.9-2.4-.8-.9 0-1.7.1-2.5.4-.8.2-1.6.5-2.3.9l-1.2-2.6c1-.5 2-.9 3-1.1 1-.2 2-.4 3-.4 1.8-.1 3.5.4 4.9 1.4a5.8 5.8 0 0 1 1.7 4.5v11.5h-2.6v-.1Zm-5.4-2.5c1.2.1 2.3-.3 3.2-1.1.8-.8 1.2-1.9 1.2-3v-1.5l-2.2.1c-1.3 0-2.6.3-3.7.9-.8.5-1.2 1.4-1.2 2.3-.1.7.2 1.3.6 1.8.6.4 1.3.6 2.1.5Z" fill="url(#n)"/><path d="M201.5 106.2h-3.7V92h-4.7c-.2 2.9-.6 5.8-1.2 8.6-.3 1.7-.9 3.2-1.9 4.6-.7.9-1.9 1.4-3 1.4-.7 0-1.4-.1-2-.3v-2.9c.4.1.8.2 1.1.2 1 0 1.9-1.2 2.5-3.6.8-3.6 1.3-7.2 1.4-10.9h11.5v17.1Z" fill="url(#o)"/></g><defs><linearGradient id="i" x1=".593" y1="94.918" x2="211.876" y2="94.918" gradientUnits="userSpaceOnUse"><stop stop-color="#1C8AE2"/><stop offset=".486" stop-color="#8B00B3"/><stop offset="1" stop-color="#6900B5"/></linearGradient><linearGradient id="b" x1=".593" y1="60.609" x2="211.877" y2="60.609" gradientUnits="userSpaceOnUse"><stop stop-color="#1C8AE2"/><stop offset=".486" stop-color="#8B00B3"/><stop offset="1" stop-color="#6900B5"/></linearGradient><linearGradient id="d" x1=".593" y1="64.122" x2="211.877" y2="64.122" gradientUnits="userSpaceOnUse"><stop stop-color="#1C8AE2"/><stop offset=".486" stop-color="#8B00B3"/><stop offset="1" stop-color="#6900B5"/></linearGradient><linearGradient id="e" x1=".044" y1="77.977" x2="42.325" y2="77.977" gradientUnits="userSpaceOnUse"><stop stop-color="#1C8AE2"/><stop offset=".486" stop-color="#8B00B3"/><stop offset="1" stop-color="#6900B5"/></linearGradient><linearGradient id="f" x1="28.226" y1="89.402" x2="61.759" y2="89.402" gradientUnits="userSpaceOnUse"><stop stop-color="#1C8AE2"/><stop offset=".486" stop-color="#8B00B3"/><stop offset="1" stop-color="#6900B5"/></linearGradient><linearGradient id="g" x1="4.845" y1="72.017" x2="42.325" y2="72.017" gradientUnits="userSpaceOnUse"><stop stop-color="#1C8AE2"/><stop offset=".486" stop-color="#8B00B3"/><stop offset="1" stop-color="#6900B5"/></linearGradient><linearGradient id="h" x1="28.226" y1="79.807" x2="42.401" y2="79.807" gradientUnits="userSpaceOnUse"><stop stop-color="#1C8AE2"/><stop offset=".486" stop-color="#8B00B3"/><stop offset="1" stop-color="#6900B5"/></linearGradient><linearGradient id="c" x1=".592" y1="60.594" x2="211.877" y2="60.594" gradientUnits="userSpaceOnUse"><stop stop-color="#1C8AE2"/><stop offset=".486" stop-color="#8B00B3"/><stop offset="1" stop-color="#6900B5"/></linearGradient><linearGradient id="j" x1=".592" y1="97.694" x2="211.877" y2="97.694" gradientUnits="userSpaceOnUse"><stop stop-color="#1C8AE2"/><stop offset=".486" stop-color="#8B00B3"/><stop offset="1" stop-color="#6900B5"/></linearGradient><linearGradient id="k" x1=".593" y1="97.669" x2="211.877" y2="97.669" gradientUnits="userSpaceOnUse"><stop stop-color="#1C8AE2"/><stop offset=".486" stop-color="#8B00B3"/><stop offset="1" stop-color="#6900B5"/></linearGradient><linearGradient id="l" x1=".593" y1="97.669" x2="211.877" y2="97.669" gradientUnits="userSpaceOnUse"><stop stop-color="#1C8AE2"/><stop offset=".486" stop-color="#8B00B3"/><stop offset="1" stop-color="#6900B5"/></linearGradient><linearGradient id="m" x1=".592" y1="97.669" x2="211.877" y2="97.669" gradientUnits="userSpaceOnUse"><stop stop-color="#1C8AE2"/><stop offset=".486" stop-color="#8B00B3"/><stop offset="1" stop-color="#6900B5"/></linearGradient><linearGradient id="n" x1=".592" y1="97.694" x2="211.877" y2="97.694" gradientUnits="userSpaceOnUse"><stop stop-color="#1C8AE2"/><stop offset=".486" stop-color="#8B00B3"/><stop offset="1" stop-color="#6900B5"/></linearGradient><linearGradient id="o" x1=".593" y1="97.838" x2="211.877" y2="97.838" gradientUnits="userSpaceOnUse"><stop stop-color="#1C8AE2"/><stop offset=".486" stop-color="#8B00B3"/><stop offset="1" stop-color="#6900B5"/></linearGradient><clipPath id="a"><path fill="#fff" d="M0 0h201v155H0z"/></clipPath></defs></svg>