<svg width="200" height="155" fill="none" xmlns="http://www.w3.org/2000/svg"><path d="M0 31v91.9h65.1l5.1.2 5.3-.2c7.1 0 6 1.2 6-5.1V31H0Zm3.3 3.8h73.9v84.1H3.3V34.8Zm39 24.5L50 47.1c.4-1-.7-.8-1.8-.7-7.8.1-17.1-1.6-25.5 2.2-1.3.5-2.5 1.3-3.5 2.2l-1.3 1.5c-1.5 2.3-.9 5.4 1.3 6.9 1 .7 2.2 1 3.4.8 3.8-.3 8.2-3.1 7.9-7.9 0-.9.1-.7-.6-1-.9.7-.1.7-.4 2.5-.7 4.7-10.6 6-11.5 1.7-1.1-5.4 10.5-6.6 14.6-6.6h6.3c-.1.1-.2.1-.3.2-1.1.4-2.2 1-3.2 1.7-1.5 1.3-2.8 2.7-3.9 4.4l-3.1 5.4c-1.1 1.6-.7 1.3-2.2 3.3-1.5 2-4.2 4.2-7 3.8-3.4-.4-2.6-1-3.2-2.4 2.7-1.8.1-4.5-2.1-2.9s-.2 7.4 8.4 6.1c7.6-1.3 10.5-9.8 14-15 .7-1 1.1-1.5 1.8-2.3.7-.8 1.5-1.3 2.5-1.6 1.3-.2 2.7-.2 4 0-.3 1-10.6 17.4-10.8 18-.2.6.1.8 1 .8H37c1.2-2.1 2.6-4.1 4.2-6 .7-1 1.5-1.9 2.3-2.7.5-.4 2.7-2.2 3.3-1.6 1.1 1.1-4.5 5.8-4.1 8.6.3 2 2.3 2.7 4.4 1.7 1.5-.7 2.5-2.2 3.7-3 .4 1 0 1.2.9 2.2 2 2.3 6 1.2 7.7.3.7-.4 1.4-.8 2-1.3 1.5-1 7.4-6.9 5.5-6.7-.4 0-.6.4-.8.7-.3.3-.5.6-.8.9-1.9 2.3-4.5 5.1-7.7 5.7-2.6.4-3.3-1-3.3-3.3 1.1-.4 2.2-.7 3.4-.9 1.6-.4 3.2-1.1 4.5-2.1 1.8-1.5 1.3-3.3-.4-4-3.4-1.3-9 2.1-10.7 6.6-1 2.5-9.6 8.3-2.6-1 .6-.9 1.1-1.8 1.5-2.8.4-1.2-.2-2.5-1.4-2.8h-.1c-3.1-1-5.3 1.9-6.2 2.6Zm12.4 3.1c.5-1.2 1.3-2.4 2.1-3.4l.7-.7c1-.7 1.3-1.3 2.7-1 0 3.2-4 5-5.5 5.1Zm-12.3-3.1-.2.2.2-.2ZM24.5 78.5v29c0 2.1 3.5 1.6 3.5.4v-9.2c.7 0 1.5.2 2.2.4.1.8.2 1.6.2 2.4v5.5c0 2.2 0 1.9 2.5 1.9.4 0 .8-.3.8-.7v-8.1c0-1.9-.7-1.8-1-3.1.6-.7 1-1.6 1-2.5v-13c-.1-1.2-.7-2.3-1.5-3.1-1.6-1.5-4.1-1.2-6.4-1.2-.7-.1-1.3.3-1.4 1 0 0 0 .1.1.3Zm4.8 16.8h-1.4V80.4l2 .2c.8 1.6.4 10.9.4 13.3 0 .7-.3 1.4-1 1.4Zm18.1-17.4v30.2c0 1.2 3.1 1.2 3.1 0v-8.2h1.2c2.4-.1 4.3-1.9 4.5-4.3 0-2.7.4-14.5-.4-15.9-.3-.5-.6-.9-1-1.3-1.5-1.5-4.3-1.2-6.6-1.2-.5-.1-.8.2-.8.7Zm4.4 18.6h-1.4V80.4c2.9 0 1 0 2.4.4v15.1c-.3.3-.4.6-1 .6Z" fill="url(#a)"/><path d="M13.1 81.8v22.5c0 2.5 2 4.5 4.5 4.4 1.8 0 3.4-1.1 4.1-2.7.6-1.4.2-4.9.2-6.8-.8-.2-1.6-.3-2.3-.2-2.1 0 .7 6.5-2 6.5-.5 0-1.2-.4-1.2-1V81.4c0-.6.7-1 1.2-1 2.4 0 0 4.7 2 4.7 3 0 2.3.7 2.3-4.1-.3-2.3-2.3-3.9-4.6-3.8-2.4.2-4.2 2.2-4.2 4.6Zm22.7-4.5c-.5 2.1-.2 26.3-.2 30.6.1.5.5.9 1 1h7.3c1.2 0 1-1.5 1-2.2 0-1.7-1.6-1.2-4.5-1.2-.7 0-1.3.1-1.3-.6V91.2c5.1 0 4.5.5 4.5-2.5 0-1.2-2.2-.8-4.5-.8v-7.4c1.9.1 3.8 0 5.6-.3.2-.8.6-3.1-.8-3.1-2.7-.2-5.4-.1-8.1.2Zm22.8 0c-.5 2.1-.2 26.1-.2 30.4 0 .3.1.7.2 1 2.7.3 5.4.3 8 .2 1.2 0 1.2-3.3 0-3.3h-4.9V91.3c5 0 4.3.5 4.3-3.1-1.4-.2-2.9-.3-4.3-.2v-7.5c4.7 0 5.9.6 5.8-1.5-.1-2.5.4-1.9-7.9-1.9-.4 0-.7.1-1 .2ZM122.5 44c1.1-.5 2.3-.8 3.5-.9.3 0 .5.1.5.4 0 .2-.4.3-1.3.6l-1.7.5c1.8.9 2.9 2.7 2.8 4.7 0 2.3-1.3 4.2-3.9 5.7-2.2 1.2-4.5 1.9-7 2.1-1 3.1-2.9 5.9-5.4 8-2.5 2.1-5.7 3.3-9 3.2-1.5.1-2.9-.3-4.2-1-1.3-.7-2-2-2-3.5 0-1 .3-1.9 1-2.7.6-.7 1.6-1.2 2.5-1.1.6 0 1.2.2 1.7.6.4.4.7 1 .6 1.6 0 .7-.3 1.3-.9 1.6l-1.8.5c-.6.2-1 .4-1 .8 0 .6.5 1.2 1.5 1.6.7.3 1.5.5 2.3.5 2.4-.1 4.6-1.4 6-3.4 1.4-1.9 2.6-4 3.5-6.3-1.1.1-2.3.4-3.4.7-.2.1-.4.1-.6.1-.3 0-.4-.1-.4-.3 0-.2.3-.6.8-.7 1.4-.4 2.7-.7 4.2-1 2.9-6.1 6.4-10.1 10.7-12-2-.8-4.1-1.2-6.3-1.1-2.2-.1-4.3.2-6.4.8-2 .8-3.8 2-5.3 3.6-1.4 1.3-2.4 3-2.5 4.9 0 .7.2 1.3.6 1.8.4.5 1 .8 1.6.8 1.7 0 3.4-.9 4.4-2.3 1.1-1.3 1.7-3 1.7-4.7 0-.5-.2-.7-.6-.7-.4 0-.9.5-1.5 1.6-.3.7-.6 1.4-.8 2.2-.6.3-1.1.6-1.6 1l-1.5 1.3-.1-.5c0-1.6.4-3.2 1.4-4.6.8-1.4 2.3-2.3 4-2.3 1.5 0 2.2 1 2.2 3v.3c0 1.8-.6 3.6-1.8 5-1.2 1.4-2.9 2.2-4.7 2.1-1 0-2-.3-2.8-1-.7-.7-1.1-1.6-1.1-2.6 0-1.1.4-2.2 1-3.1 1.4-2.4 3.5-4.3 6-5.5 2.4-1.3 5.1-1.9 7.9-1.9 1.3 0 2.6.1 3.9.3 1 .2 2.2.7 3.3 1.3Zm.6 3.6c0-.9-.3-1.8-.9-2.5-1.8 1.2-3.1 2.9-3.9 4.8-.9 2-1.7 4-2.4 6.1 2-.3 3.8-1.4 5.1-3 1.3-1.5 2-3.4 2.1-5.4Zm4.2 9.8c-.1 1.6-.9 3-2.3 3.8-1.3.9-2.8 1.6-4.3 1.9-.3.6-.4 1.2-.5 1.9 0 .5.2.7.6.7 1-.1 2-.5 2.7-1.1.7-.7 1.4-1.4 2-2.1.7-.7 1.1-1.1 1.4-1.1.3 0 .1 0 .1.1-.5 1-1.2 1.9-1.9 2.7-1.8 2.2-3.6 3.4-5.5 3.4s-2.6-.8-2.6-2.5c.1-2.4 1.1-4.6 2.7-6.4 1.9-2.3 3.8-3.5 5.8-3.5 1.1 0 1.8.7 1.8 2.2Zm-1.4-.3c0-.3 0-.5-.2-.8h-.3c-.7 0-1.6.8-2.7 2.5-.8 1.1-1.4 2.4-2 3.6 1.3-.4 2.4-1 3.3-2 1.2-.7 1.9-2 1.9-3.3Zm11.2-.1c0 .7-.3 1.3-.7 1.9-.3.6-.9 1-1.6 1.1l-.6-.3c-.1-.2-.1-.3-.2-.5 0-.5.3-1 .7-1.4.4-.4.9-.6 1.4-.5 0-.4-.3-.5-.8-.5-1 0-2.2 1.1-3.6 3.4-1 1.5-1.7 3.2-2 4.9 0 .5.2.7.6.7 1-.1 2-.5 2.7-1.1.7-.7 1.4-1.4 2-2.1.7-.7 1.1-1.1 1.4-1.1.3 0 .1 0 .1.1-.5 1-1.2 1.9-1.9 2.7-1.8 2.2-3.6 3.4-5.5 3.4s-2.6-.8-2.6-2.5c0-.8.2-1.6.5-2.4.2-.8.6-1.5 1-2.2 2.2-3.5 4.6-5.2 7.2-5.2.5 0 1 .2 1.3.5.5.1.7.6.6 1.1Z" fill="url(#b)"/><path d="M156.4 63c-.3.7-.7 1.4-1.3 2-.5.7-1.2 1.2-1.9 1.7-.8.4-1.7.6-2.6.6-1.5 0-2.1-.7-2.1-2 .3-1.2.8-2.3 1.4-3.3.8-1.3 1.2-2.8 1.4-4.3v-.4c0-.3-.2-.5-.5-.5s-.9.4-1.7 1.2c-.5.5-1 1.1-1.5 1.7-.6 1.1-1.1 2.2-1.5 3.3-.5 1.1-.9 2.2-1.1 3.4 0 .4.3.7.8.9l-3.8.3c-.1-.1-.1-.3-.1-.4.2-1.6.7-3.2 1.5-4.6.8-1.5 1.3-3.2 1.5-4.9v-.4c0-.3-.2-.5-.5-.5-.6 0-1.6.9-3 2.7-.8 1.2-1.4 2.5-1.9 3.8l-1.5 4-3.9.3 3.1-6.6.7-1.4c.3-.4.4-.9.5-1.3 0-.3-.1-.5-.3-.5-.4.3-.7.6-1 .9-.6.6-.9.9-1 .9l-.1-.1v-.1c.4-.9 1-1.8 1.8-2.5 1.1-1.2 1.9-1.9 2.3-1.9 1 0 1.5.8 1.5 2.4 0 .2 0 .3.1.3.5-.4 1-.7 1.5-1 .8-.6 1.6-.9 2.6-1 1-.2 2 .4 2.2 1.5.1.3.1.5 0 .8l1.9-1.5c.7-.4 1.4-.7 2.2-.8 1-.1 1.9.6 2.1 1.6v.5c-.2 1.4-.6 2.8-1.3 4.1-.5 1-1 2-1.3 3 0 .1.1.3.4.4 1.1 0 2.1-.4 3-1.1l1.3-1.1.1-.1Z" fill="url(#c)"/><path d="M166.5 60c0 .3-.3.5-.9.6-.4.1-.9.2-1.3.2-.2 0-.5 0-.7-.1-.8 1.6-1.8 3-3 4.3-1.6 1.8-3 2.7-4.3 2.7-1.7 0-2.6-.8-2.6-2.4.2-2.4 1.2-4.7 2.9-6.6 2-2.5 3.9-3.8 5.9-3.8 1.5 0 2.2.7 2.2 2.1-.1.9-.4 1.8-.7 2.7.2.1.4.1.6.1.3 0 .5 0 .8-.1.3 0 .5-.1.8-.1.2.2.4.3.3.4Zm-4.2.3c-1.1-.1-2.1-.7-2.6-1.8-.7.9-1.2 1.8-1.7 2.8-.1.5-.3.9-.5 1.4-.3.5-.4 1-.4 1.5 0 .3.2.6.5.7h.2c1.4-.1 2.9-1.6 4.5-4.6Zm1.1-3.2c0-.7-.3-1.1-.9-1.1-.5 0-1 .2-1.4.6-.4.3-.7.7-.8 1.2 0 .5.3.9.7 1.2.4.3.8.5 1.3.6h.1c.2 0 .4-.3.6-1 .3-.6.4-1.1.4-1.5Z" fill="url(#d)"/><path d="M174.7 58.5c-.1 2.1-1 4.1-2.4 5.7-1.6 2.2-3.3 3.2-5 3.2l-.9-.3c-.3-.2-.6-.3-.9-.4l-1.1 1.9-2.6 4.7-3.1.4 6.3-11.6 1.4-2.3c.5-.7.9-1.5 1.2-2.3l-.3-.2c-.9.3-1.7 1-2.2 1.8-.3.6-.8 1.1-1.3 1.6h-.1c-.1-.1-.1-.2-.1-.4 0-.9.7-2 2.2-3.5 1.5-1.5 2.6-2.2 3.5-2.2.9 0 1.4.2 1.5.7.1.5.2.7.4 1.2h.2c.2 0 .5-.1.7-.1.2-.1.5-.1.7-.1 1.3.1 1.9.8 1.9 2.2Zm-2.8.5c0-.4 0-.8-.1-1.2 0-.3-.2-.5-.5-.6-.6.4-1 1-1.3 1.6l-1.1 1.9-1.5 2.5c-.5.8-.9 1.6-1.3 2.5.1.3.3.4.6.4.4 0 .7-.2.9-.4 1.1-.9 2-1.9 2.7-3.1.9-.9 1.4-2.2 1.6-3.6Zm16.3-3.8c-.5 1.7-1.3 3.2-2.3 4.6-1 1.4-1.8 2.9-2.5 4.5l.3.2c.9-.4 1.7-1 2.2-1.9.3-.5.7-1 1.2-1.5h.1c.1.1.1.2.1.3 0 .9-.7 2-2.2 3.5-1.5 1.5-2.6 2.2-3.5 2.2-.5.1-1-.1-1.4-.5-.2-.4-.4-.9-.5-1.4-.5 1.2-1.7 1.9-3 1.9-.6 0-1.1-.3-1.5-.7-.4-.4-.6-1-.6-1.6 0-1.6 1-3.6 3.2-6.1 2.2-2.5 4-3.7 5.5-3.7.3 0 .6.2.9.3.3.2.6.3.9.4.1-.1.2-.3.2-.4.4-.2.9-.3 1.3-.3.6.2 1.1.2 1.6.2Zm-3.6 1.5c0-.3-.3-.5-.6-.4-.4 0-.7.2-.9.4-1.1 1-2.2 2.1-3 3.4-.9 1.2-1.5 2.6-1.6 4.1 0 .4.2.7.5.7.4 0 1.5-1.2 3-3.6 1-1.5 1.8-3 2.6-4.6Zm9.6 10.8c-.9-.1-1.7-.8-1.9-1.7-.3-.9.3-2.5 1.6-4.5V61c-2.6 0-4.3 2.2-5 6.6h-3.6l3.5-8.8 1.8-3.7h1.4c.6 0 1.2 0 1.7.1l-2 5h.3c2 0 3.6-1.6 4.6-4.9h3.3v.3c-1.7 2.9-3 5.9-4.1 9.1l.4.3h.3l.2-.1-.1 1.7c-.6.6-1.5.9-2.4.9Zm5.4-4.9v1.5c-.9.9-1.9 1.7-3 2.5l.1-1.7c1.1-.7 2-1.5 2.9-2.3ZM108 82.3c0 .3-.3.4-.9.6-.4.1-.8.2-1.3.2h-.7c-.8 1.5-1.7 2.9-2.8 4.1-1.5 1.7-2.9 2.5-4 2.5-1.6 0-2.5-.7-2.5-2.3.2-2.3 1.2-4.5 2.7-6.2 1.9-2.4 3.8-3.6 5.6-3.6 1.5 0 2.1.7 2.1 2-.1.9-.3 1.8-.7 2.6.2.1.4.1.6.1.3 0 .5 0 .8-.1.2 0 .5-.1.7-.1.3 0 .4 0 .4.2Zm-4.3.8c-1.1-.1-2-.7-2.4-1.7-.6.8-1.1 1.7-1.6 2.7-.1.5-.3.9-.5 1.3s-.4.9-.4 1.4c0 .3.2.6.5.6h.2c1.3-.1 2.8-1.5 4.2-4.3Zm-.3-5.4-2.7.1c-.8 0-1.4-.6-1.7-1.7v-.3c0-.7.2-1.4.5-2h1.7c-.2.5-.3 1-.5 1.5-.1.4.1.9.8 1.3l1.5-.1c1 .3 1.9.9 2.6 1.6l-2.6-.5.4.1Zm1.1-6.5c1.5.1 2.9.5 4.2 1.2.4.2 1.6.9 3.6 2.1.8.6 1.8 1 2.8 1.1h.6c1.8 0 3.6-.4 5.1-1.2 1.5-.9 3-2 4.4-3.1h.1l.1.2c0 .7-.7 1.6-2.2 3-2.1 2.2-5 3.5-8.1 3.7-.8 0-1.7-.1-2.5-.3-.8-.3-1.6-.7-2.4-1.1-4.3-2.5-6.8-3.8-7.4-3.8-.7.1-1.4.5-1.7 1.1l-1.7-.1c.6-2.1 2.7-3.4 4.8-2.8.2-.1.2-.1.3 0Zm.6 8.4c0-.7-.3-1-.8-1s-1 .2-1.3.6c-.4.3-.7.7-.7 1.2s.3.9.6 1.1c.4.3.8.5 1.3.5h.1c.2 0 .4-.3.6-1 .1-.5.2-.9.2-1.4Z" fill="url(#e)"/><path d="M114.7 78.9c-.3.6-.6 1.3-1 1.8l-.3.3h.3c.4 0 .7-.1 1-.1.3-.1.7-.1 1-.1.5 0 .9.1 1.3.4.3.3.5.6.6 1.1.1 1.2-.2 2.3-.7 3.4-.6 1.1-1.4 2.1-2.5 2.8-1.5.9-3.2 1.4-4.9 1.3-2.2 0-3.3-.7-3.5-2.2-.1-.4 1-2.5 3.3-6.1l2.3-3.7 3.8-.6-.7 1.7Zm0 3c0-.3-.3-.4-.7-.4-.3 0-.6.1-.8.2-.7.9-1.3 1.9-1.8 3-.6.9-1 1.9-1.2 3 0 .1.1.2.4.2.4 0 .8-.2 1.1-.4.9-.6 1.7-1.4 2.3-2.4.6-.9.8-1.9.7-2.9v-.3Zm4.5 1.3c1-1.7 2-3.4 2.8-5.2l3.4-.3-2.7 4.5-1.4 2.2c-.5.7-.9 1.5-1.2 2.4l.3.2c.9-.4 1.7-1 2.2-1.9.3-.5.7-1 1.2-1.5h.1c.1.1.1.2.1.3 0 .9-.7 2-2.2 3.5-1.5 1.5-2.6 2.3-3.5 2.3-.5.1-1-.1-1.4-.5-.2-.5-.4-.9-.5-1.4l.4-1.4c1-.9 1.7-2 2.4-3.2Z" fill="url(#f)"/><path d="M133.6 79.2c0 .7-.3 1.3-.7 1.8-.3.6-.9 1-1.6 1.1l-.6-.3c-.1-.2-.1-.3-.2-.5 0-.5.3-1 .7-1.4.4-.4.9-.6 1.4-.5 0-.4-.3-.5-.8-.5-1 0-2.2 1.1-3.6 3.4-1 1.5-1.7 3.2-2 4.9 0 .5.2.7.6.7 1-.1 1.9-.5 2.7-1.1.7-.7 1.4-1.4 2-2.1.7-.7 1.1-1.1 1.4-1.1.3 0 .1 0 .1.1-.5 1-1.2 2-2 2.8-1.8 2.2-3.6 3.4-5.5 3.4s-2.7-.8-2.7-2.5c0-.8.2-1.6.5-2.4.2-.8.6-1.5 1-2.2 2.2-3.5 4.6-5.2 7.2-5.2.5 0 1 .2 1.3.5.6.1.8.6.8 1.1Z" fill="url(#g)"/><path d="M152.9 85.3c-.3.7-.7 1.4-1.3 2-.5.7-1.2 1.2-1.9 1.7-.8.4-1.7.6-2.6.6-1.5 0-2.1-.7-2.1-2 .3-1.2.8-2.3 1.4-3.3.8-1.3 1.3-2.8 1.4-4.3v-.5c0-.4-.2-.5-.5-.5s-.9.4-1.7 1.2c-.5.5-1 1.1-1.5 1.7-.6 1.1-1.1 2.2-1.5 3.4-.5 1.1-.8 2.2-1.1 3.4 0 .4.3.7.8.9l-3.8.3c-.1-.1-.1-.3-.1-.4.2-1.6.7-3.2 1.5-4.6.8-1.5 1.3-3.2 1.5-4.9v-.5c0-.4-.2-.5-.5-.5-.6 0-1.6.9-3 2.7-.8 1.2-1.4 2.5-1.9 3.8l-1.5 4-3.9.3 3.2-6.5.7-1.4c.3-.4.4-.9.5-1.3 0-.3-.1-.5-.3-.5-.2 0-.4.3-1 .9-.6.6-.9.9-1 .9l-.1-.1v-.1c.4-.9 1-1.8 1.8-2.5 1.2-1.3 1.9-1.9 2.3-1.9 1 0 1.5.8 1.5 2.4 0 .2 0 .3.1.3s.5-.3 1.5-1c.7-.6 1.6-.9 2.6-1 1-.2 2 .5 2.2 1.6v.6l1.9-1.5c.7-.4 1.4-.7 2.2-.8 1-.1 2 .6 2.1 1.6v.5c-.2 1.4-.6 2.8-1.3 4.1-.5 1-1 2-1.3 3 0 .1.1.3.4.4 1.1 0 2.1-.4 3-1.1l1.3-1.1Z" fill="url(#h)"/><path d="M161.6 80.7c-.1 2.1-1 4.1-2.4 5.7-1.6 2.2-3.3 3.2-5 3.2l-.9-.3c-.3-.2-.6-.3-.9-.4-.1.2-.5.9-1.1 2l-2.6 4.7-3.1.4 6.3-11.6 1.4-2.3c.5-.7.8-1.5 1.2-2.3l-.3-.2c-.9.3-1.7 1-2.2 1.8-.3.6-.8 1.2-1.3 1.6h-.1c-.1-.1-.1-.2-.1-.4.3-1.4 1.1-2.6 2.2-3.5 1.5-1.5 2.6-2.2 3.5-2.2.9 0 1.4.2 1.5.7.1.5.2.7.4 1.2h.2c.2 0 .5-.1.7-.1.2-.1.5-.1.7-.1 1.3 0 1.9.7 1.9 2.1Zm-2.9.6c0-.4 0-.8-.1-1.2 0-.3-.2-.5-.5-.6-.6.4-1 1-1.3 1.6l-1 1.9-1.5 2.5c-.5.8-.9 1.7-1.3 2.5.1.3.3.4.6.4.4 0 .7-.2 1-.4 1.1-.9 2-1.9 2.7-3.1.8-1 1.3-2.3 1.4-3.6Zm14.8.9c0 .3-.3.5-1 .6-.4.1-.9.2-1.3.2h-.7c-.8 1.5-1.8 3-3 4.3-1.6 1.8-3 2.7-4.3 2.7-1.7 0-2.6-.8-2.6-2.4.2-2.4 1.2-4.8 2.9-6.6 2-2.5 4-3.8 5.9-3.8 1.5 0 2.2.7 2.2 2.1-.1.9-.4 1.8-.7 2.7.2.1.4.1.6.1.3 0 .5 0 .8-.1.3 0 .5-.1.8-.1.3.1.4.2.4.3Zm-4.3.3c-1.1-.1-2.1-.7-2.6-1.8-.6.9-1.2 1.8-1.7 2.8-.1.5-.3.9-.5 1.4-.2.5-.4 1-.4 1.5 0 .3.2.6.5.7h.2c1.4-.1 2.9-1.6 4.5-4.6Zm1.2-3.2c0-.7-.3-1.1-.8-1.1s-1 .2-1.4.6c-.4.3-.7.7-.8 1.2 0 .5.3.9.7 1.2.4.3.8.5 1.3.6h.1c.2 0 .4-.4.6-1 .2-.6.2-1.1.3-1.5Z" fill="url(#i)"/><path d="M173.7 86.1c-.5 2.5 1.3 2.3 5.5-.6v1.1c-3.2 2.1-5.3 3.1-6.4 3.2-2 0-3-.8-3-2.3v-.3c.1-.8.4-1.5 1-2.1l4.6-.6-1.7 1.6Zm1.8-5.8c1.3-2.1.1-2-3.5.1v-1.3h.1c1.2-1.3 3-2 4.8-2 1.6 0 2.4.6 2.4 1.9 0 1.3-1.3 2.9-3.9 5.5l-4.6.6c1.3-1.7 2.9-3.4 4.7-4.8Z" fill="url(#j)"/><path d="M191.3 82.2c0 .3-.3.5-.9.6-.4.1-.9.2-1.3.2h-.7c-.8 1.5-1.8 3-3 4.3-1.6 1.8-3 2.7-4.3 2.7-1.7 0-2.6-.8-2.6-2.4.2-2.4 1.2-4.7 2.9-6.6 2-2.5 3.9-3.8 5.9-3.8 1.5 0 2.2.7 2.2 2.1-.1.9-.4 1.8-.7 2.7.2.1.4.1.6.1.3 0 .5 0 .8-.1.3 0 .5-.1.8-.1.2.1.3.2.3.3Zm-4.3.3c-1.1-.1-2.1-.7-2.6-1.8-.7.9-1.2 1.8-1.7 2.8-.1.5-.3.9-.5 1.4-.3.5-.4 1-.4 1.5 0 .3.2.6.5.7h.2c1.5-.1 3-1.6 4.5-4.6Zm1.2-3.2c0-.7-.3-1.1-.9-1.1-.5 0-1 .2-1.4.6-.4.3-.7.7-.7 1.2s.3.9.7 1.2c.4.3.8.5 1.3.6h.1c.2 0 .4-.4.6-1 .2-.6.2-1.1.3-1.5Zm-77.6 28.099c-.2.8-.7 1.5-1.3 2-.5.7-1.2 1.2-1.9 1.7-.8.4-1.7.6-2.6.6-1.5 0-2.1-.7-2.1-2 .3-1.2.8-2.3 1.4-3.3.8-1.3 1.3-2.8 1.4-4.3v-.4c0-.4-.2-.5-.4-.5-.3 0-.8.4-1.5 1.2-.5.5-1 1-1.4 1.6-.8 1.2-1.4 2.5-1.8 3.8l-1.5 3.9-3.9.2 3.1-6.6.7-1.4c.3-.4.4-.9.5-1.3 0-.3-.1-.5-.3-.5-.2 0-.4.3-1 .9-.6.6-.9.9-1 .9h-.1v-.1c.3-1 .8-1.8 1.5-2.6 1.1-1.2 1.9-1.8 2.3-1.8.9 0 1.5.8 1.5 2.4 0 .2 0 .3.1.3.5-.4 1-.7 1.5-1 .8-.6 1.6-.9 2.6-1 1-.1 1.9.6 2.1 1.6v.5c-.2 1.4-.6 2.8-1.3 4.1-.5 1-1 1.9-1.3 3 0 .1.1.2.4.4 1.1 0 2.1-.4 3-1.1l1.3-1.1v-.1Z" fill="url(#k)"/><path d="M109.8 111.699c-.6 0-1.1-.3-1.5-.7-.4-.4-.6-1-.6-1.6 0-.5.1-.9.3-1.3l3.7-8.1 3.6-.3c-.9 1.2-1.8 2.6-2.5 4-.8 1.3-1.3 2.8-1.5 4.3 0 .3.1.5.2.8.1.3.3.5.5.5s.6-.3 1.1-.8l-.4 1.4c-.5 1.1-1.6 1.8-2.9 1.8Zm5.6-6.5c1-1.7 2-3.4 2.8-5.2l3.4-.3-2.7 4.5-1.4 2.2c-.5.7-.9 1.5-1.2 2.4l.3.2c.9-.4 1.7-1 2.2-1.9.3-.5.7-1 1.2-1.5h.1c.1.1.1.2.1.3-.3 1.4-1.1 2.7-2.2 3.5-1.5 1.5-2.6 2.3-3.5 2.3-.5.1-1-.1-1.4-.5-.2-.5-.4-.9-.5-1.4l.4-1.4c1-.9 1.7-2 2.4-3.2Z" fill="url(#l)"/><path d="M139.9 107.5c-.3.7-.7 1.4-1.3 2-.5.7-1.2 1.2-1.9 1.7-.8.4-1.7.6-2.6.6-1.5 0-2.1-.7-2.1-2 .3-1.2.8-2.3 1.4-3.3.8-1.3 1.3-2.8 1.4-4.3v-.4c0-.4-.2-.5-.5-.5s-.9.4-1.7 1.2c-.5.5-1 1.1-1.5 1.7-.6 1.1-1.1 2.2-1.5 3.3-.5 1.1-.9 2.2-1.1 3.4 0 .4.3.7.8.9l-3.8.2c-.1-.1-.1-.3-.1-.4.2-1.6.7-3.2 1.5-4.6.8-1.5 1.3-3.2 1.5-4.9v-.4c0-.4-.2-.5-.5-.5-.6 0-1.6.9-3 2.7-.8 1.2-1.4 2.5-1.9 3.8l-1.5 4-3.8.3 3.1-6.6.7-1.4c.3-.4.4-.9.5-1.3 0-.3-.1-.5-.3-.5-.4.3-.7.6-1 .9-.6.6-.9.9-1 .9h-.1v-.1c.4-.9 1-1.8 1.8-2.5 1.1-1.2 1.9-1.8 2.3-1.8 1 0 1.5.8 1.5 2.4 0 .2 0 .3.1.3.5-.4 1-.7 1.5-1 .8-.6 1.6-.9 2.6-1 1-.1 2 .6 2.1 1.6v.6l1.9-1.4c.7-.5 1.4-.7 2.2-.8 1-.1 1.9.6 2.1 1.6v.5c-.2 1.4-.6 2.8-1.3 4.1-.5 1-1 2-1.3 3 0 .1.1.2.4.4 1.1 0 2.2-.5 3.1-1.3.2-.3.7-.7 1.3-1.1Z" fill="url(#m)"/><path d="M151.5 99.7c-.5 1.7-1.3 3.2-2.3 4.6-1 1.4-1.8 2.9-2.5 4.5l.3.2c.9-.4 1.7-1 2.2-1.9.3-.5.7-1 1.2-1.5h.1c.1.1.1.2.1.3-.3 1.4-1.1 2.7-2.2 3.5-1.5 1.5-2.6 2.3-3.5 2.3-.5.1-1-.1-1.4-.5-.2-.4-.4-.9-.5-1.4-.5 1.2-1.7 1.9-3 1.9-.6 0-1.1-.3-1.5-.7-.4-.4-.6-1-.6-1.6 0-1.6 1.1-3.6 3.2-6.1 2.1-2.5 4-3.7 5.6-3.8.3 0 .6.2.9.3.3.2.6.3.9.4.1-.1.2-.2.2-.4.4-.2.9-.3 1.3-.3.6.1 1.1.1 1.5.2Zm-3.6 1.5c-.1-.3-.3-.4-.6-.4-.4 0-.7.2-1 .4-1.1 1-2.1 2.1-3 3.4-.9 1.2-1.5 2.6-1.6 4.1 0 .4.2.7.5.7.5 0 1.5-1.2 3-3.6 1.1-1.5 2-3 2.7-4.6Zm9.6 10.8c-.9-.1-1.7-.8-1.9-1.7-.3-.9.3-2.5 1.6-4.5v-.3c-2.6 0-4.3 2.2-5.1 6.6h-3.6l3.5-8.8 1.8-3.7h1.5l1.7.1-2 5h.3c2 0 3.6-1.6 4.6-4.9h3.3v.3c-1.7 2.9-3 5.9-4.1 9.1l.4.3h.3l.2-.1-.1 1.7c-.6.6-1.5.9-2.4.9Zm5.5-5v1.5c-.9.9-1.9 1.7-3 2.5l.1-1.7c1-.7 2-1.4 2.9-2.3Z" fill="url(#n)"/><path d="M164.4 111.7c-.6 0-1.1-.3-1.5-.7-.4-.4-.6-1-.6-1.6 0-.5.1-.9.3-1.3l3.7-8 3.6-.3c-.9 1.3-1.7 2.6-2.5 4-.8 1.3-1.3 2.8-1.5 4.3 0 .3.1.5.2.8.1.3.3.5.5.5s.6-.3 1.1-.8l-.4 1.4c-.5 1-1.7 1.7-2.9 1.7Zm5.6-6.5c1.1-1.7 2-3.4 2.8-5.2l3.4-.3-2.7 4.5-1.4 2.2c-.5.7-.9 1.5-1.2 2.4l.3.2c.9-.4 1.7-1 2.3-1.9.3-.5.7-1 1.2-1.5h.1c.1.1.1.2.1.3-.3 1.4-1.1 2.6-2.2 3.5-1.5 1.5-2.6 2.3-3.5 2.3-.5.1-1-.1-1.4-.5-.2-.5-.4-.9-.5-1.4l.4-1.4c.9-1 1.6-2.1 2.3-3.2Zm5.2 6.3c-.7-.6-1.1-1.4-1.1-2.3 0-.5.2-.9.5-1.3.3-.3.8-.5 1.2-.5 1 0 1.5.5 1.5 1.5 0 .3-.1.7-.4.9-.2.3-.5.4-.9.4-.2 0-.4 0-.5-.1.3.4.8.6 1.3.6s1.3-.8 2.5-2.6l.4 2c-.8 1.5-2.7 2.2-4.2 1.4 0 .2-.2.1-.3 0Zm6.2-8.9c-.7 3 .8 3 4.5 0l-.5 1.5c-2.2 2-3.9 3-5 3-1.4.1-2.7-.9-3-2.3v-.3c0-.6.6-1.3 1.7-2.4l3.4-.8c-.4.3-.8.8-1.1 1.3Zm.4 3.1c1-1.4 1.8-2.9 2.6-4.5-.1-.3-.3-.4-.6-.4-.4 0-.7.2-1 .4-.9.8-1.8 1.7-2.5 2.7l-1.5-1.8c1.1-1.4 2.6-2.3 4.4-2.6.3 0 .6.2.9.3.3.2.6.3.9.4.1-.1.2-.2.2-.4.4-.2.9-.3 1.3-.3.5 0 1 0 1.5.1-.5 1.7-1.3 3.2-2.3 4.6-1 1.4-1.8 2.9-2.5 4.5l.3.2c.9-.4 1.7-1 2.2-1.9.3-.5.7-1 1.2-1.5h.1c.1.1.1.2.1.3-.3 1.4-1.1 2.7-2.2 3.5-1.5 1.5-2.6 2.3-3.5 2.3-.5.1-1-.1-1.4-.5-.2-.3-.3-.5-.4-.8l-.4-2.1c1.1-.7 1.9-1.5 2.6-2.5Z" fill="url(#o)"/><defs><linearGradient id="h" x1="-.7" y1="83.478" x2="200.192" y2="83.478" gradientUnits="userSpaceOnUse"><stop stop-color="#1C8AE2"/><stop offset=".486" stop-color="#8B00B3"/><stop offset="1" stop-color="#6900B5"/></linearGradient><linearGradient id="a" x1="-.7" y1="77.1" x2="200.192" y2="77.1" gradientUnits="userSpaceOnUse"><stop stop-color="#1C8AE2"/><stop offset=".486" stop-color="#8B00B3"/><stop offset="1" stop-color="#6900B5"/></linearGradient><linearGradient id="c" x1="-.7" y1="61.21" x2="200.179" y2="61.21" gradientUnits="userSpaceOnUse"><stop stop-color="#1C8AE2"/><stop offset=".486" stop-color="#8B00B3"/><stop offset="1" stop-color="#6900B5"/></linearGradient><linearGradient id="d" x1="-.7" y1="61.419" x2="200.192" y2="61.419" gradientUnits="userSpaceOnUse"><stop stop-color="#1C8AE2"/><stop offset=".486" stop-color="#8B00B3"/><stop offset="1" stop-color="#6900B5"/></linearGradient><linearGradient id="e" x1="-.7" y1="72.168" x2="200.192" y2="72.168" gradientUnits="userSpaceOnUse"><stop stop-color="#1C8AE2"/><stop offset=".486" stop-color="#8B00B3"/><stop offset="1" stop-color="#6900B5"/></linearGradient><linearGradient id="f" x1="-.7" y1="83.534" x2="200.192" y2="83.534" gradientUnits="userSpaceOnUse"><stop stop-color="#1C8AE2"/><stop offset=".486" stop-color="#8B00B3"/><stop offset="1" stop-color="#6900B5"/></linearGradient><linearGradient id="g" x1="-.7" y1="83.641" x2="200.192" y2="83.641" gradientUnits="userSpaceOnUse"><stop stop-color="#1C8AE2"/><stop offset=".486" stop-color="#8B00B3"/><stop offset="1" stop-color="#6900B5"/></linearGradient><linearGradient id="b" x1="-.7" y1="75.668" x2="200.192" y2="75.668" gradientUnits="userSpaceOnUse"><stop stop-color="#1C8AE2"/><stop offset=".486" stop-color="#8B00B3"/><stop offset="1" stop-color="#6900B5"/></linearGradient><linearGradient id="i" x1="-.7" y1="86.458" x2="200.192" y2="86.458" gradientUnits="userSpaceOnUse"><stop stop-color="#1C8AE2"/><stop offset=".486" stop-color="#8B00B3"/><stop offset="1" stop-color="#6900B5"/></linearGradient><linearGradient id="j" x1="-.7" y1="83.512" x2="200.192" y2="83.512" gradientUnits="userSpaceOnUse"><stop stop-color="#1C8AE2"/><stop offset=".486" stop-color="#8B00B3"/><stop offset="1" stop-color="#6900B5"/></linearGradient><linearGradient id="k" x1="-.7" y1="94.666" x2="200.192" y2="94.666" gradientUnits="userSpaceOnUse"><stop stop-color="#1C8AE2"/><stop offset=".486" stop-color="#8B00B3"/><stop offset="1" stop-color="#6900B5"/></linearGradient><linearGradient id="l" x1="-.7" y1="105.764" x2="200.192" y2="105.764" gradientUnits="userSpaceOnUse"><stop stop-color="#1C8AE2"/><stop offset=".486" stop-color="#8B00B3"/><stop offset="1" stop-color="#6900B5"/></linearGradient><linearGradient id="m" x1="-.7" y1="105.73" x2="200.192" y2="105.73" gradientUnits="userSpaceOnUse"><stop stop-color="#1C8AE2"/><stop offset=".486" stop-color="#8B00B3"/><stop offset="1" stop-color="#6900B5"/></linearGradient><linearGradient id="n" x1="-.7" y1="105.813" x2="200.192" y2="105.813" gradientUnits="userSpaceOnUse"><stop stop-color="#1C8AE2"/><stop offset=".486" stop-color="#8B00B3"/><stop offset="1" stop-color="#6900B5"/></linearGradient><linearGradient id="o" x1="-.7" y1="105.793" x2="200.192" y2="105.793" gradientUnits="userSpaceOnUse"><stop stop-color="#1C8AE2"/><stop offset=".486" stop-color="#8B00B3"/><stop offset="1" stop-color="#6900B5"/></linearGradient></defs></svg>