<svg width="236" height="155" fill="none" xmlns="http://www.w3.org/2000/svg"><path d="M43.2 57.8H0v43.201h43.2v-43.2Z" fill="url(#a)"/><path fill-rule="evenodd" clip-rule="evenodd" d="M36.2 62.1c-1 0-1.7.7-2.1 1.4l-5.4 9c-.4.8-.6 1.8-.6 2.4 0 .6.1 1 .3 1.5l5.9 14H11.4c-.8 0-1.5-.8-1.5-1.6V64.6c-.2-3.3-4.9-3.3-5 .1L5 90.4c0 2.8 2.2 5 4.9 5h31.2L33.5 76c-.2-.7-.3-1.4.2-2.2l5-8.2c.1-.2.2-.9.2-1.1-.2-1.5-1.4-2.5-2.7-2.4Zm-12.3 0c1.2 0 2.5.8 2.5 2.5v17.5c0 4-3 6.7-6.6 6.7-3.6 0-6.5-2.7-6.5-6.7V64.6c0-3.3 4.9-3.3 4.9 0v17.3c0 2.3 3.4 2.5 3.4 0V64.6c-.2-1.7 1-2.5 2.3-2.5Z" fill="#fff"/><path fill-rule="evenodd" clip-rule="evenodd" d="M59.5 62.8v18c0 4.5-.5 7-4.1 7-.7 0-1.1 0-1.8-.2v7.7c1.4.5 2.3.5 3.4.5 10.3 0 10.7-7.7 10.7-12.2v-13h5.9v24.7h8.2V62.8H59.5Z" fill="url(#b)"/><path fill-rule="evenodd" clip-rule="evenodd" d="m84.6 62.8 11.2 23.5-4.1 9h8.901l13.3-32.5h-8.9l-4.8 13.7-5.7-13.7h-9.9Z" fill="url(#c)"/><path fill-rule="evenodd" clip-rule="evenodd" d="M116.4 95.3h8.2v-14l8.5 14h10.5L132 78.5l11.4-15.7h-9.8l-9 13.7V62.8h-8.2v32.5Z" fill="url(#d)"/><path fill-rule="evenodd" clip-rule="evenodd" d="M157.1 96.302c11 0 16-8.5 16-17.2 0-8.5-5-17-16-17-10.7 0-15.8 8.5-15.8 17 0 8.7 5.1 17.2 15.8 17.2Zm0-7.8c-3.7 0-7.3-3.2-7.3-9.5 0-6.2 3.7-9.2 7.3-9.2 3.9 0 7.5 3 7.5 9.2.1 6.3-3.6 9.5-7.5 9.5Z" fill="url(#e)"/><path fill-rule="evenodd" clip-rule="evenodd" d="M177.2 62.8v32.5h8l11.4-19.5v19.5h8V62.8h-8l-11.4 19.5V62.8h-8Zm14-1.8c3.4 0 6.9-1.2 8.5-5l-4.8-2c-.7 2.5-2.7 2.7-3.7 2.7-.7 0-3-.3-3.4-2.7l-4.8 2c1.3 3.8 5 5 8.2 5Z" fill="url(#f)"/><path fill-rule="evenodd" clip-rule="evenodd" d="M213.4 62.8v18c0 4.5-.5 7-4.1 7-.7 0-1.1 0-1.8-.2v7.7c1.4.5 2.3.5 3.4.5 10.3 0 10.7-7.7 10.7-12.2v-13h5.9v24.7h8.2V62.8h-22.3Z" fill="url(#g)"/><defs><linearGradient id="a" x1="-.684" y1="79.37" x2="233.409" y2="79.37" gradientUnits="userSpaceOnUse"><stop stop-color="#1C8AE2"/><stop offset=".486" stop-color="#8B00B3"/><stop offset="1" stop-color="#6900B5"/></linearGradient><linearGradient id="b" x1="-.683" y1="79.27" x2="233.409" y2="79.27" gradientUnits="userSpaceOnUse"><stop stop-color="#1C8AE2"/><stop offset=".486" stop-color="#8B00B3"/><stop offset="1" stop-color="#6900B5"/></linearGradient><linearGradient id="c" x1="-.683" y1="79.02" x2="233.41" y2="79.02" gradientUnits="userSpaceOnUse"><stop stop-color="#1C8AE2"/><stop offset=".486" stop-color="#8B00B3"/><stop offset="1" stop-color="#6900B5"/></linearGradient><linearGradient id="d" x1="-.683" y1="79.02" x2="233.41" y2="79.02" gradientUnits="userSpaceOnUse"><stop stop-color="#1C8AE2"/><stop offset=".486" stop-color="#8B00B3"/><stop offset="1" stop-color="#6900B5"/></linearGradient><linearGradient id="e" x1="-.684" y1="79.147" x2="233.409" y2="79.147" gradientUnits="userSpaceOnUse"><stop stop-color="#1C8AE2"/><stop offset=".486" stop-color="#8B00B3"/><stop offset="1" stop-color="#6900B5"/></linearGradient><linearGradient id="f" x1="-.684" y1="74.649" x2="233.409" y2="74.649" gradientUnits="userSpaceOnUse"><stop stop-color="#1C8AE2"/><stop offset=".486" stop-color="#8B00B3"/><stop offset="1" stop-color="#6900B5"/></linearGradient><linearGradient id="g" x1="-.684" y1="79.27" x2="233.409" y2="79.27" gradientUnits="userSpaceOnUse"><stop stop-color="#1C8AE2"/><stop offset=".486" stop-color="#8B00B3"/><stop offset="1" stop-color="#6900B5"/></linearGradient></defs></svg>