<svg width="200" height="155" fill="none" xmlns="http://www.w3.org/2000/svg"><path d="m64.2 21.9-15.7 1.3v45.3h15.7V21.9Z" fill="url(#a)"/><path d="M49.7 134.3v-8.9h.9v4.5l3.1-4.5h1.2l-2.8 3.7 2.9 5.2h-1.1l-2.5-4.3-1.1 1.4v3.1l-.6-.2Z" fill="url(#b)"/><path d="M58 134.501v-.9h.6c.2 0 .2-.2.3-.3.1-.1.2-.3.2-.3l.2-.3c0-.2 0-.3.2-.5v-6.5h4.9v8.9h-.9v-8h-2.9V132.501c0 .3 0 .3-.2.8 0 .3-.2.3-.2.8 0 .2-.2.3-.3.5-.1.2-.2.3-.3.3-.2.2-.3.2-.3.3-.2 0-.3.2-.5.2-.5-.9-.7-.9-.8-.9Z" fill="url(#c)"/><path d="M67.8 125.5h1.1l1.8 6.2 1.8-6.2h1.1l-2.5 7.4c-.3.8-.3 1.1-.8 1.4-.5.3-.5.3-.9.3-.5 0-.5 0-.9-.2v-.9c.2.2.3.2.8.2.2 0 .3 0 .3-.2.2-.2.3-.3.3-.8l-2.1-7.2Z" fill="url(#d)"/><path d="M77.4 134.3v-8.9h4.3v.9h-3.5v2.9h1.2c.3 0 .8 0 .9.2.3 0 .5.2.9.3.5.2.3.3.8.5.2.2.3.3.3.9.2.3.2.8.2 1.1 0 .9-.3 1.4-.8 1.8-.5.3-1.1.8-1.8.8h-2.5v-.5Zm.9-.9h1.1c.8 0 1.1-.2 1.4-.3.3-.3.5-.8.5-1.2 0-.3 0-.8-.2-.9-.2-.3-.3-.3-.3-.5-.2-.2-.3-.3-.8-.3s-.5-.2-.9-.2h-.6l-.2 3.4Z" fill="url(#e)"/><path d="M86.3 134.3v-8.9h.9v3.7h3.5v-3.7h.9v8.9h-.9v-4.2h-3.4v4.2h-1Z" fill="url(#f)"/><path d="M95.9 134.3v-8.9h.9v3.7H98c.3 0 .8 0 .9.2.3 0 .5.2.9.3.3.2.3.3.8.5.2.2.3.3.3.9.2.3.2.8.2 1.1 0 .9-.3 1.4-.8 1.8-.5.3-1.1.8-1.8.8H96v-.3h-.1v-.1Zm1.2-.9h1.1c.8 0 1.1-.2 1.4-.3.3-.3.5-.8.5-1.2 0-.3 0-.8-.2-.9-.2-.3-.3-.3-.3-.5-.2-.2-.3-.3-.8-.3-.3 0-.5-.2-.9-.2H97l.1 3.4Zm5.2.9v-8.9h.9v8.9h-.9Z" fill="url(#g)"/><path d="M107.601 134.301v-8.9h.899v8c0-.2.001-.3.201-.3s.2-.3.2-.3l.2-.3 2.8-6.9h1.4v8.9h-.9v-8.5c-.2.8-.3 1.1-.3 1.4l-2.8 6.9h-1.7Zm1-10.9h.5c.2.5.5.9 1.1.9.3 0 .5 0 .9-.2.2-.2.3-.3.3-.8h.5c0 .5-.2.9-.3 1.1-.3.3-.8.3-1.2.3-.3 0-.9-.2-1.2-.3-.3-.1-.6-.4-.6-1Z" fill="url(#h)"/><path d="M122.2 133.401h.5c.3-.8.8-1.4.9-2.3.1-.9.2-1.8.2-3.5v-2.3h4.8v8h.5v2.9h-.9v-1.8h-4.9v1.8h-1.1v-2.8Zm1.7 0h3.7v-7.1H125v2.3c-.4 2-.5 3.7-1.1 4.8Z" fill="url(#i)"/><path d="M132.5 129.9v-.9c0-.3 0-.5.2-.9 0-.3.2-.8.3-.9.2-.3.3-.5.3-.9.2-.3.3-.3.5-.8.2-.2.3-.3.9-.3.3-.2.8-.2.9-.2.3 0 .5 0 .9.2.3 0 .3.2.8.3.2.2.3.3.5.3.2.2.3.3.3.5.2.2.2.3.3.5.2.3.2.3.2.8 0 .3.2.3.2.8v2.7c0 .3 0 .8-.2.9 0 .3-.2.8-.3.9-.2.3-.3.5-.3.8l-.5.5c-.3.2-.3.3-.9.3-.3.2-.8.2-.9.2-.3 0-.8 0-.9-.2-.3-.2-.5-.3-.8-.3-.3 0-.3-.3-.5-.5s-.3-.5-.3-.8c-.2-.3-.2-.5-.3-.9 0-.3-.2-.8-.2-.9-.2-.5-.2-.8-.2-1.2Zm1.1-.2v1.4c0 .3.2.9.2 1.1.2.3.2.8.3.9.1.1.3.3.5.3.3.2.5.2.9.2s.5 0 .8-.2c.3-.2.3-.2.5-.3.2-.1.3-.3.3-.5.2-.3.2-.3.3-.9 0-.3.2-.8.2-.9v-2.3c0-.3-.2-.8-.2-.9-.2-.3-.3-.5-.3-.9-.2-.3-.3-.3-.5-.5-.3-.2-.5-.2-.9-.2s-.5 0-.9.2c-.5.2-.3.3-.5.5s-.3.3-.3.9c-.2.3-.2.8-.2.9-.1.1-.2.9-.2 1.2Z" fill="url(#j)"/><path d="M142.3 134.3v-8.9h1.7l1.7 6.9c.2.3.2.9.2 1.4V132.8c0-.1 0-.3.2-.3l1.7-6.9h1.7v8.9h-.9v-8.4c0 .2-.2.3-.2.8 0 .3-.2.3-.2.5l-1.8 7.1h-1.2l-1.8-7.4s0-.2-.2-.3c0-.3-.2-.3-.2-.8v8.4h-.7v-.1Z" fill="url(#k)"/><path d="M14 86.9v2.5H2.6v7.9h4.3c5.4 0 8.8 2.8 8.8 8 0 5.1-3.4 8-8.8 8H0V87h14v-.1ZM2.6 110.8h4.3c3.7 0 6-1.8 6-5.7 0-3.9-2.3-5.7-6-5.7H2.6v11.4Z" fill="url(#l)"/><path d="M37.5 97.5v4.9c0 7.5-3.1 11.1-8.8 11.1-5.7 0-8.8-3.7-8.8-11.1v-4.9c0-7.5 3.4-11.1 8.8-11.1 5.7-.1 8.8 3.7 8.8 11.1Zm-14.9 0v5.4c0 5.5 2.2 8.6 6.2 8.6s6.2-3.1 6.2-8.6v-5.4c0-5.5-2.2-8.8-6.2-8.8s-6.2 3-6.2 8.8Z" fill="url(#m)"/><path d="M57.4 86.9v2.5H46.2v9.4h10.2v2.2H46.2v10h11.9v2.5H43.6V87h13.8v-.1Z" fill="url(#n)"/><path d="M71.2 86.9c4.9 0 7.7 2.6 7.7 6.9 0 2.9-1.2 4.9-3.1 6 2.6.9 3.8 3.1 3.8 6.3 0 4.3-2.6 7.4-8 7.4h-7.5V86.9h7.1Zm-4.4 11.6h4.9c3.1 0 4.8-1.7 4.8-4.8 0-3.1-1.7-4.8-5.1-4.8h-4.5v9.5h-.1v.1Zm0 12.3h4.9c3.5 0 5.4-1.8 5.4-5.1 0-3.1-1.7-4.9-5.4-4.9h-4.9v10Z" fill="url(#o)"/><path d="m94 86.6 8.2 26.5h-2.8l-2.2-6.9h-9.4l-1.8 6.9h-2.9l8.3-26.5H94Zm-5.7 17.1h8.3l-4.2-14-4.1 14Z" fill="url(#p)"/><path d="M131.9 86.9v23.9h3.1v8.3h-2.6l-.2-6h-16.3l-.2 6h-2.5v-8.3h1.4c1.8-1.8 2.8-4.5 2.8-8.3V87h14.5v-.1ZM120 89.1v13.4c0 3.7-.9 6.5-2.2 8.2h11.4V89.1H120Z" fill="url(#q)"/><path d="m148.3 86.6 8.2 26.5h-2.8l-2.2-6.9h-9.4l-1.8 6.9h-2.8l8.3-26.5h2.5Zm-5.5 17.1h8.3l-4.2-14-4.1 14Z" fill="url(#r)"/><path d="M161.9 86.901v9.1c0 4.8 1.8 6.6 5.2 6.6 3.5 0 5.5-2.5 5.5-6.3v-9.4h2.6v26.3h-2.6v-11.1c-1.2 1.7-3.4 2.9-6 2.9-4.8 0-7.5-2.9-7.5-9.1v-9.2l2.8.2Z" fill="url(#s)"/><path d="m191.6 86.6 8.2 26.5H197l-2.2-6.9h-9.4l-1.8 6.9h-2.8l8.3-26.5h2.5Zm-5.5 17.1h8.3l-4.2-14-4.1 14Z" fill="url(#t)"/><path d="M99.8 26.3v1.9l3.3 1.3-3.3-3.2Z" fill="url(#u)"/><path d="m115.4 36.7-15.6-5.6v20.2l15.6 5.6V36.7Z" fill="url(#v)"/><path d="M99.8 54.3v1.9l4.3-.4-4.3-1.5Z" fill="url(#w)"/><path d="M99.8 58.9v9.6h15.6v-8.8l-5-1.8-10.6 1Z" fill="url(#x)"/><path d="m115.4 18-15.6 1.1v3.6l9.8 9 5.8 2.1V18Z" fill="url(#y)"/><path d="m133.5 20.6-15 7.3v15.7l7.1-3.6 8.5-13.7v-5.7h-.6Z" fill="url(#z)"/><path d="m130.2 37.7 3.9-1.8v-4.4l-3.9 6.2Z" fill="url(#A)"/><path d="M118.5 18.2v6.7l10.2-5-10.2-1.7Z" fill="url(#B)"/><path d="M118.5 68.498h15.6v-29.6l-15.6 7.7v21.9Z" fill="url(#C)"/><path d="M151.2 44.7v-4.3l-6.2 3.1 6.2 1.2Z" fill="url(#D)"/><path d="m151.2 23.3-15.7-2.5v24.9l15.7-7.7V23.3Z" fill="url(#E)"/><path d="m141.8 45.102-6.3 3.1v20.3h15.7v-21.7l-9.4-1.7Z" fill="url(#F)"/><path d="M82.8 39.5v1.9l4.2-.5-4.2-1.4Z" fill="url(#G)"/><path d="M82.8 43.6v24.9h15.6V45l-6.8-2.4-8.8 1Z" fill="url(#H)"/><path d="M98.4 42.7V19.2l-15.6 1.3v16.6l15.6 5.6Z" fill="url(#I)"/><path d="M65.7 21.799h-.1v3l4.8 1.5-4.7-4.5Z" fill="url(#J)"/><path d="M81.2 30.1v-9.5l-13.3 1 6.1 6 7.2 2.5Z" fill="url(#K)"/><path d="M65.6 68.5h15.6V31.7l-15.6-5.2v42Z" fill="url(#L)"/><defs><linearGradient id="t" x1="-.756" y1="99.838" x2="201.555" y2="99.838" gradientUnits="userSpaceOnUse"><stop stop-color="#1C8AE2"/><stop offset=".486" stop-color="#8B00B3"/><stop offset="1" stop-color="#6900B5"/></linearGradient><linearGradient id="a" x1="-.756" y1="45.203" x2="201.556" y2="45.203" gradientUnits="userSpaceOnUse"><stop stop-color="#1C8AE2"/><stop offset=".486" stop-color="#8B00B3"/><stop offset="1" stop-color="#6900B5"/></linearGradient><linearGradient id="c" x1="-.756" y1="130.32" x2="201.556" y2="130.32" gradientUnits="userSpaceOnUse"><stop stop-color="#1C8AE2"/><stop offset=".486" stop-color="#8B00B3"/><stop offset="1" stop-color="#6900B5"/></linearGradient><linearGradient id="d" x1="-.756" y1="130.088" x2="201.557" y2="130.088" gradientUnits="userSpaceOnUse"><stop stop-color="#1C8AE2"/><stop offset=".486" stop-color="#8B00B3"/><stop offset="1" stop-color="#6900B5"/></linearGradient><linearGradient id="e" x1="-.755" y1="130.088" x2="201.555" y2="130.088" gradientUnits="userSpaceOnUse"><stop stop-color="#1C8AE2"/><stop offset=".486" stop-color="#8B00B3"/><stop offset="1" stop-color="#6900B5"/></linearGradient><linearGradient id="f" x1="-.757" y1="129.857" x2="201.556" y2="129.857" gradientUnits="userSpaceOnUse"><stop stop-color="#1C8AE2"/><stop offset=".486" stop-color="#8B00B3"/><stop offset="1" stop-color="#6900B5"/></linearGradient><linearGradient id="g" x1="-.756" y1="130.011" x2="201.557" y2="130.011" gradientUnits="userSpaceOnUse"><stop stop-color="#1C8AE2"/><stop offset=".486" stop-color="#8B00B3"/><stop offset="1" stop-color="#6900B5"/></linearGradient><linearGradient id="h" x1="-.754" y1="128.934" x2="201.555" y2="128.934" gradientUnits="userSpaceOnUse"><stop stop-color="#1C8AE2"/><stop offset=".486" stop-color="#8B00B3"/><stop offset="1" stop-color="#6900B5"/></linearGradient><linearGradient id="i" x1="-.756" y1="130.704" x2="201.556" y2="130.704" gradientUnits="userSpaceOnUse"><stop stop-color="#1C8AE2"/><stop offset=".486" stop-color="#8B00B3"/><stop offset="1" stop-color="#6900B5"/></linearGradient><linearGradient id="j" x1="-.757" y1="129.626" x2="201.556" y2="129.626" gradientUnits="userSpaceOnUse"><stop stop-color="#1C8AE2"/><stop offset=".486" stop-color="#8B00B3"/><stop offset="1" stop-color="#6900B5"/></linearGradient><linearGradient id="k" x1="-.755" y1="129.934" x2="201.555" y2="129.934" gradientUnits="userSpaceOnUse"><stop stop-color="#1C8AE2"/><stop offset=".486" stop-color="#8B00B3"/><stop offset="1" stop-color="#6900B5"/></linearGradient><linearGradient id="l" x1="-.756" y1="100.069" x2="201.557" y2="100.069" gradientUnits="userSpaceOnUse"><stop stop-color="#1C8AE2"/><stop offset=".486" stop-color="#8B00B3"/><stop offset="1" stop-color="#6900B5"/></linearGradient><linearGradient id="m" x1="-.755" y1="99.99" x2="201.556" y2="99.99" gradientUnits="userSpaceOnUse"><stop stop-color="#1C8AE2"/><stop offset=".486" stop-color="#8B00B3"/><stop offset="1" stop-color="#6900B5"/></linearGradient><linearGradient id="n" x1="-.756" y1="100.146" x2="201.555" y2="100.146" gradientUnits="userSpaceOnUse"><stop stop-color="#1C8AE2"/><stop offset=".486" stop-color="#8B00B3"/><stop offset="1" stop-color="#6900B5"/></linearGradient><linearGradient id="o" x1="-.756" y1="100.223" x2="201.555" y2="100.223" gradientUnits="userSpaceOnUse"><stop stop-color="#1C8AE2"/><stop offset=".486" stop-color="#8B00B3"/><stop offset="1" stop-color="#6900B5"/></linearGradient><linearGradient id="p" x1="-.756" y1="99.838" x2="201.555" y2="99.838" gradientUnits="userSpaceOnUse"><stop stop-color="#1C8AE2"/><stop offset=".486" stop-color="#8B00B3"/><stop offset="1" stop-color="#6900B5"/></linearGradient><linearGradient id="q" x1="-.755" y1="102.994" x2="201.555" y2="102.994" gradientUnits="userSpaceOnUse"><stop stop-color="#1C8AE2"/><stop offset=".486" stop-color="#8B00B3"/><stop offset="1" stop-color="#6900B5"/></linearGradient><linearGradient id="r" x1="-.756" y1="99.838" x2="201.556" y2="99.838" gradientUnits="userSpaceOnUse"><stop stop-color="#1C8AE2"/><stop offset=".486" stop-color="#8B00B3"/><stop offset="1" stop-color="#6900B5"/></linearGradient><linearGradient id="s" x1="-.756" y1="99.993" x2="201.555" y2="99.993" gradientUnits="userSpaceOnUse"><stop stop-color="#1C8AE2"/><stop offset=".486" stop-color="#8B00B3"/><stop offset="1" stop-color="#6900B5"/></linearGradient><linearGradient id="b" x1="-.755" y1="129.934" x2="201.554" y2="129.934" gradientUnits="userSpaceOnUse"><stop stop-color="#1C8AE2"/><stop offset=".486" stop-color="#8B00B3"/><stop offset="1" stop-color="#6900B5"/></linearGradient><linearGradient id="u" x1="-.757" y1="27.924" x2="201.557" y2="27.924" gradientUnits="userSpaceOnUse"><stop stop-color="#1C8AE2"/><stop offset=".486" stop-color="#8B00B3"/><stop offset="1" stop-color="#6900B5"/></linearGradient><linearGradient id="v" x1="-.756" y1="43.977" x2="201.555" y2="43.977" gradientUnits="userSpaceOnUse"><stop stop-color="#1C8AE2"/><stop offset=".486" stop-color="#8B00B3"/><stop offset="1" stop-color="#6900B5"/></linearGradient><linearGradient id="w" x1="-.757" y1="55.247" x2="201.557" y2="55.247" gradientUnits="userSpaceOnUse"><stop stop-color="#1C8AE2"/><stop offset=".486" stop-color="#8B00B3"/><stop offset="1" stop-color="#6900B5"/></linearGradient><linearGradient id="x" x1="-.756" y1="63.194" x2="201.555" y2="63.194" gradientUnits="userSpaceOnUse"><stop stop-color="#1C8AE2"/><stop offset=".486" stop-color="#8B00B3"/><stop offset="1" stop-color="#6900B5"/></linearGradient><linearGradient id="y" x1="-.756" y1="25.867" x2="201.555" y2="25.867" gradientUnits="userSpaceOnUse"><stop stop-color="#1C8AE2"/><stop offset=".486" stop-color="#8B00B3"/><stop offset="1" stop-color="#6900B5"/></linearGradient><linearGradient id="z" x1="-.756" y1="32.075" x2="201.556" y2="32.075" gradientUnits="userSpaceOnUse"><stop stop-color="#1C8AE2"/><stop offset=".486" stop-color="#8B00B3"/><stop offset="1" stop-color="#6900B5"/></linearGradient><linearGradient id="A" x1="-.756" y1="34.606" x2="201.556" y2="34.606" gradientUnits="userSpaceOnUse"><stop stop-color="#1C8AE2"/><stop offset=".486" stop-color="#8B00B3"/><stop offset="1" stop-color="#6900B5"/></linearGradient><linearGradient id="B" x1="-.756" y1="21.557" x2="201.556" y2="21.557" gradientUnits="userSpaceOnUse"><stop stop-color="#1C8AE2"/><stop offset=".486" stop-color="#8B00B3"/><stop offset="1" stop-color="#6900B5"/></linearGradient><linearGradient id="C" x1="-.756" y1="53.702" x2="201.556" y2="53.702" gradientUnits="userSpaceOnUse"><stop stop-color="#1C8AE2"/><stop offset=".486" stop-color="#8B00B3"/><stop offset="1" stop-color="#6900B5"/></linearGradient><linearGradient id="D" x1="-.757" y1="42.554" x2="201.556" y2="42.554" gradientUnits="userSpaceOnUse"><stop stop-color="#1C8AE2"/><stop offset=".486" stop-color="#8B00B3"/><stop offset="1" stop-color="#6900B5"/></linearGradient><linearGradient id="E" x1="-.756" y1="33.262" x2="201.556" y2="33.262" gradientUnits="userSpaceOnUse"><stop stop-color="#1C8AE2"/><stop offset=".486" stop-color="#8B00B3"/><stop offset="1" stop-color="#6900B5"/></linearGradient><linearGradient id="F" x1="-.756" y1="56.79" x2="201.556" y2="56.79" gradientUnits="userSpaceOnUse"><stop stop-color="#1C8AE2"/><stop offset=".486" stop-color="#8B00B3"/><stop offset="1" stop-color="#6900B5"/></linearGradient><linearGradient id="G" x1="-.755" y1="40.458" x2="201.554" y2="40.458" gradientUnits="userSpaceOnUse"><stop stop-color="#1C8AE2"/><stop offset=".486" stop-color="#8B00B3"/><stop offset="1" stop-color="#6900B5"/></linearGradient><linearGradient id="H" x1="-.756" y1="55.522" x2="201.555" y2="55.522" gradientUnits="userSpaceOnUse"><stop stop-color="#1C8AE2"/><stop offset=".486" stop-color="#8B00B3"/><stop offset="1" stop-color="#6900B5"/></linearGradient><linearGradient id="I" x1="-.756" y1="30.967" x2="201.555" y2="30.967" gradientUnits="userSpaceOnUse"><stop stop-color="#1C8AE2"/><stop offset=".486" stop-color="#8B00B3"/><stop offset="1" stop-color="#6900B5"/></linearGradient><linearGradient id="J" x1="-.755" y1="24.087" x2="201.553" y2="24.087" gradientUnits="userSpaceOnUse"><stop stop-color="#1C8AE2"/><stop offset=".486" stop-color="#8B00B3"/><stop offset="1" stop-color="#6900B5"/></linearGradient><linearGradient id="K" x1="-.756" y1="25.313" x2="201.556" y2="25.313" gradientUnits="userSpaceOnUse"><stop stop-color="#1C8AE2"/><stop offset=".486" stop-color="#8B00B3"/><stop offset="1" stop-color="#6900B5"/></linearGradient><linearGradient id="L" x1="-.756" y1="47.496" x2="201.555" y2="47.496" gradientUnits="userSpaceOnUse"><stop stop-color="#1C8AE2"/><stop offset=".486" stop-color="#8B00B3"/><stop offset="1" stop-color="#6900B5"/></linearGradient></defs></svg>