<svg width="200" height="155" fill="none" xmlns="http://www.w3.org/2000/svg"><path d="M195.5 94.1c-2.4 0-4.3 1.9-4.3 4.3s1.9 4.3 4.3 4.3 4.3-1.9 4.3-4.3-2-4.3-4.3-4.3Zm0 7.7c-1.9.1-3.6-1.5-3.6-3.4-.1-1.9 1.5-3.6 3.4-3.6 1.9-.1 3.6 1.5 3.6 3.4v.1c.1 1.9-1.4 3.5-3.3 3.5h-.1Z" fill="url(#a)"/><path d="M196.2 98.6c.7 0 1.3-.6 1.3-1.3v-.1c0-1-.6-1.4-1.7-1.4H194v4.901h.7v-2.1h.9l1.3 2.1h.8l-1.5-2.1Zm-1.6-.6v-1.5h1c.5 0 1 .1 1 .7s-.6.8-1.2.8h-.8Z" fill="url(#b)"/><path d="M64.1 94.2V82.7h8.1v-7.2h-8.1V60.6c0-1.1.5-1.4 2.3-1.5l8.3-.6v-7.1l-11.1.9c-5.7.4-7.9 1.7-7.9 5.8v38.3c0 6.2 2.1 7.1 8.2 7.1h10.9v-7.3h-8.2c-2.3 0-2.5-.3-2.5-2Z" fill="url(#c)"/><path d="M41.4 75.5h-8.5V55.3l-8.5 1.3v46.901h8.5v-20.8h8.5v20.8H50v-50.2l-8.6 1v21.2Z" fill="url(#d)"/><path d="m0 68 6.1-1.2v36.7h8.5V65.3l6-1.1v-7.1C10.8 58.9 8.5 59.3 0 61.2V68Z" fill="url(#e)"/><path d="M102 56.8c0-3.9-2.6-5.8-7.1-5.8l-15.7.2v52.3h8.6V82.7h3.8c1.3 0 1.8.5 1.8 2.4v18.4h8.6V84.4c0-3.5-.2-3.9-2.3-5.8 1.6-1.3 2.4-3.3 2.3-5.3V56.8ZM90.8 75.5h-3V58.1h3.3c1.3 0 2.3 0 2.3 3v11.1c0 2.3-.2 3.3-2.6 3.3Z" fill="url(#f)"/><path d="m122.5 70.5-7-18.9-7.6-.5v52.4h8.6V74.9l5.1 13.1h2.2l5.1-13.1v28.6h8.7V53.3l-8.4-.6-6.7 17.8Z" fill="url(#g)"/><path d="m185.1 77.9-4.7-1.9c-1.1-.5-1.4-1.2-1.4-2.7v-3.9c0-1.7.6-2.4 1.7-2.4l7.6 1.5v-7.1l-13.2-2.7c-3.3 0-4.6 1.6-4.6 5.1v12.4c0 3.1.4 3.5 2.2 4.4l5.5 2.8c1.2.3 1.9 1.5 1.7 2.7v7.3c0 2.6 0 3.2-2.3 3.2h-7v6.799h11.3c4.2 0 6.6-.8 6.6-5.1V82.6c-.2-2.5-.8-3.7-3.4-4.7Z" fill="url(#h)"/><path d="m159.3 56-9.3-1.3c-5.9 0-7 1.5-7 6.3v35.9c0 4.899 1.4 6.599 7.1 6.599h9.5c4.3 0 5.1-2 5.1-7.1V63.5c.1-4.9-1.1-6.9-5.4-7.5Zm-3 39.1c0 .9-.4 1.6-1.2 1.6H153c-1.1 0-1.4-.5-1.4-1.6V64.5c0-1.8.4-2.2 1.4-2.2l1.8.1c1.1.1 1.4.5 1.4 2.6l.1 30.1Z" fill="url(#i)"/><defs><linearGradient id="a" x1="-1.144" y1="98.328" x2="200.191" y2="98.328" gradientUnits="userSpaceOnUse"><stop stop-color="#1C8AE2"/><stop offset=".486" stop-color="#8B00B3"/><stop offset="1" stop-color="#6900B5"/></linearGradient><linearGradient id="b" x1="-1.148" y1="98.287" x2="200.191" y2="98.287" gradientUnits="userSpaceOnUse"><stop stop-color="#1C8AE2"/><stop offset=".486" stop-color="#8B00B3"/><stop offset="1" stop-color="#6900B5"/></linearGradient><linearGradient id="c" x1="-1.144" y1="77.405" x2="200.191" y2="77.405" gradientUnits="userSpaceOnUse"><stop stop-color="#1C8AE2"/><stop offset=".486" stop-color="#8B00B3"/><stop offset="1" stop-color="#6900B5"/></linearGradient><linearGradient id="d" x1="-1.144" y1="78.406" x2="200.191" y2="78.406" gradientUnits="userSpaceOnUse"><stop stop-color="#1C8AE2"/><stop offset=".486" stop-color="#8B00B3"/><stop offset="1" stop-color="#6900B5"/></linearGradient><linearGradient id="e" x1="-1.145" y1="80.291" x2="200.192" y2="80.291" gradientUnits="userSpaceOnUse"><stop stop-color="#1C8AE2"/><stop offset=".486" stop-color="#8B00B3"/><stop offset="1" stop-color="#6900B5"/></linearGradient><linearGradient id="f" x1="-1.144" y1="77.234" x2="200.191" y2="77.234" gradientUnits="userSpaceOnUse"><stop stop-color="#1C8AE2"/><stop offset=".486" stop-color="#8B00B3"/><stop offset="1" stop-color="#6900B5"/></linearGradient><linearGradient id="g" x1="-1.144" y1="77.305" x2="200.192" y2="77.305" gradientUnits="userSpaceOnUse"><stop stop-color="#1C8AE2"/><stop offset=".486" stop-color="#8B00B3"/><stop offset="1" stop-color="#6900B5"/></linearGradient><linearGradient id="h" x1="-1.145" y1="81.163" x2="200.191" y2="81.163" gradientUnits="userSpaceOnUse"><stop stop-color="#1C8AE2"/><stop offset=".486" stop-color="#8B00B3"/><stop offset="1" stop-color="#6900B5"/></linearGradient><linearGradient id="i" x1="-1.145" y1="79.092" x2="200.191" y2="79.092" gradientUnits="userSpaceOnUse"><stop stop-color="#1C8AE2"/><stop offset=".486" stop-color="#8B00B3"/><stop offset="1" stop-color="#6900B5"/></linearGradient></defs></svg>