<svg width="198" height="155" viewBox="0 0 198 155" fill="none" xmlns="http://www.w3.org/2000/svg">
<g clip-path="url(#clip0_1407_2512)">
<path d="M67.8998 76.4004L77.3998 104.2H67.8998L61.2998 87.7003L67.8998 76.4004Z" fill="url(#paint0_linear_1407_2512)"/>
<path d="M58.3004 44L74.4004 91.2L58.3004 113.1L41.9004 72L58.3004 44Z" fill="url(#paint1_linear_1407_2512)"/>
<path d="M113.7 44L129.9 91.2L113.7 113.1L97.4004 72L113.7 44Z" fill="url(#paint2_linear_1407_2512)"/>
<path d="M169.1 44L192.8 113.1H169.1L152.7 72L169.1 44Z" fill="url(#paint3_linear_1407_2512)"/>
<path d="M32.5002 44H58.2002L28.4002 113.1H2.7002L32.5002 44Z" fill="url(#paint4_linear_1407_2512)"/>
<path d="M88.0998 44H113.7L83.8998 113.1H58.2998L88.0998 44Z" fill="url(#paint5_linear_1407_2512)"/>
<path d="M143.5 44H169.2L139.4 113.1H113.7L143.5 44Z" fill="url(#paint6_linear_1407_2512)"/>
<path d="M14.9 126.699C15.1 126.699 15.3 126.799 15.3 126.999C15.3 126.999 15.3 126.999 15.3 127.099C15.5 129.899 15.7 132.599 15.8 135.199C15.9 137.799 16 140.399 16.1 142.899H14.9C14.6 142.899 14.5 142.799 14.5 142.599C14.5 141.499 14.5 140.499 14.4 139.299C14.3 138.199 14.3 136.999 14.2 135.799C14.1 134.599 14.1 133.499 14 132.299C13.9 131.099 13.9 130.199 13.9 129.099L8.89999 138.699H7.39999C7.29999 138.699 7.20001 138.699 7.10001 138.599C7.00001 138.499 6.99999 138.399 6.89999 138.399L2.10001 129.199C2.10001 130.299 2 131.399 2 132.599C2 133.799 1.89999 134.899 1.79999 136.099L1.60001 139.599C1.60001 140.699 1.6 141.899 1.5 142.899H0.399994C0.0999939 142.899 0 142.799 0 142.599C0 139.999 0.0999878 137.399 0.299988 134.899C0.399988 132.399 0.599988 129.699 0.799988 126.799H2.20001C2.40001 126.799 2.60001 126.899 2.70001 127.099L8.10001 137.499L13.7 126.899L14.9 126.699Z" fill="url(#paint7_linear_1407_2512)"/>
<path d="M26.8002 130.899C28.4002 130.699 30.1002 131.299 31.3002 132.399C32.3002 133.699 32.8003 135.399 32.7003 136.999C32.8003 138.699 32.3002 140.299 31.3002 141.699C30.1002 142.799 28.4002 143.399 26.8002 143.199C25.1002 143.399 23.5002 142.799 22.3002 141.699C21.3002 140.399 20.8003 138.699 20.9003 136.999C20.8003 135.299 21.3002 133.699 22.3002 132.399C23.5002 131.299 25.1002 130.699 26.8002 130.899ZM26.8002 141.999C27.4002 141.999 28.1003 141.899 28.7003 141.699C29.2003 141.499 29.7003 141.199 30.0003 140.799C30.4003 140.399 30.7002 139.799 30.8002 139.199C31.0002 138.399 31.1003 137.599 31.1003 136.899C31.1003 136.099 31.0002 135.299 30.8002 134.599C30.7002 133.999 30.4003 133.499 30.0003 133.099C29.6003 132.699 29.2003 132.399 28.7003 132.199C27.5003 131.899 26.2003 131.899 25.0003 132.199C24.5003 132.399 24.0003 132.699 23.7003 133.099C23.3003 133.499 23.1003 134.099 22.9003 134.599C22.7003 135.399 22.6003 136.099 22.6003 136.899C22.6003 137.699 22.7002 138.499 22.8002 139.199C22.9002 139.799 23.2003 140.299 23.6003 140.799C24.0003 141.199 24.4003 141.499 24.9003 141.599C25.5003 141.999 26.1002 142.099 26.8002 141.999Z" fill="url(#paint8_linear_1407_2512)"/>
<path d="M39.1002 132C39.7002 131.7 40.3002 131.4 40.9002 131.2C41.7002 131 42.6002 130.9 43.4002 130.9C44.9002 130.8 46.3002 131.4 47.3002 132.4C48.3002 133.7 48.7002 135.3 48.6002 136.9C48.6002 137.9 48.5002 138.9 48.2002 139.8C48.0002 140.5 47.6002 141.2 47.1002 141.7C46.6002 142.2 45.9002 142.6 45.2002 142.8C44.3002 143 43.4002 143.1 42.5002 143.1H41.1002C40.6002 143.1 40.2002 143 39.7002 142.9L38.5002 142.6C38.2002 142.6 38.0002 142.5 37.7002 142.4C37.4002 142.4 37.3002 142.2 37.2002 142.1C37.2002 142 37.2002 141.9 37.2002 141.8V126.1H38.1002C38.3002 126.1 38.5002 126.1 38.7002 126.2C38.8002 126.3 38.9002 126.5 38.9002 126.7L39.1002 132ZM39.1002 141.6C39.6002 141.7 40.1002 141.8 40.7002 141.9C41.3002 142 41.9002 142 42.4002 142C43.1002 142 43.8002 141.9 44.4002 141.8C44.9002 141.7 45.4002 141.4 45.8002 141C46.2002 140.6 46.5002 140 46.6002 139.5C46.8002 138.7 46.9002 137.8 46.9002 137C47.0002 135.7 46.7002 134.3 45.9002 133.2C45.1002 132.4 44.1002 132 43.0002 132.1C42.2002 132.1 41.4002 132.2 40.7002 132.5C40.1002 132.7 39.5002 133 39.0002 133.3L39.1002 141.6Z" fill="url(#paint9_linear_1407_2512)"/>
<path d="M54.4002 128.9C54.1002 128.9 53.8002 128.8 53.5002 128.7C53.1002 128.3 53.1002 127.6 53.5002 127.2C53.8002 127 54.1002 127 54.4002 127C54.7002 127 55.0002 127 55.3002 127.2C55.7002 127.6 55.7002 128.3 55.3002 128.7C55.0002 128.8 54.7002 128.9 54.4002 128.9ZM53.7002 131.1H54.9002C55.2002 131.1 55.3002 131.2 55.3002 131.5V142.9H54.1002C53.8002 142.9 53.7002 142.8 53.7002 142.6V131.1Z" fill="url(#paint10_linear_1407_2512)"/>
<path d="M64.4 142.8L63.7 142.9C63.4 142.9 63.1 142.9 62.9 142.9C62.2 143 61.6 142.7 61.1 142.3C60.7 141.9 60.5 141.3 60.5 140.7V126.1H61.7C62 126.1 62.1 126.2 62.1 126.4V140.7C62.1 141.2 62.2 141.5 62.4 141.6C62.7 141.7 63.1 141.8 63.5 141.8H64.1C64.2 141.8 64.3 141.8 64.4 141.9C64.4 142 64.4 142.1 64.4 142.1V142.8Z" fill="url(#paint11_linear_1407_2512)"/>
<path d="M79.4 142.599C79.2 141.899 79.1 141.099 78.9 140.299C78.7 139.499 78.5 138.699 78.3 137.899H70.3C70.1 138.699 69.8 139.599 69.6 140.399C69.4 141.199 69.2 141.999 69 142.899H67.8C67.5 142.899 67.3 142.799 67.4 142.599C67.8 140.799 68.2 138.999 68.8 137.299C69.4 135.599 69.9 134.099 70.5 132.699C71.1 131.299 71.6 130.099 72.1 129.099C72.5 128.299 72.9 127.499 73.4 126.699H74.8H75.1C75.2 126.799 75.3 126.899 75.4 126.999C75.8 127.599 76.2 128.499 76.8 129.499C77.3 130.599 77.9 131.799 78.4 133.199C78.9 134.599 79.5 136.099 80 137.699C80.5 139.299 80.9 140.999 81.3 142.899H80C79.7 142.999 79.5 142.899 79.4 142.599ZM74.2001 128.099C73.5001 129.499 72.8001 130.899 72.2001 132.299C71.6001 133.699 71.1 135.199 70.6 136.699H77.9C77.4 135.199 76.9 133.799 76.3 132.299C75.7 130.899 75.0001 129.499 74.2001 128.099Z" fill="url(#paint12_linear_1407_2512)"/>
<path d="M85.1998 142.699C84.9998 142.699 84.7998 142.499 84.7998 142.299V141.599C85.2998 141.599 85.8998 141.799 86.6998 141.799C87.4998 141.899 88.1998 141.899 88.9998 141.899C89.6998 141.899 90.2998 141.899 90.9998 141.799C91.3998 141.699 91.7998 141.599 92.1998 141.399C92.4998 141.199 92.6998 140.999 92.7998 140.699C92.8998 140.399 92.9998 140.099 92.9998 139.799C92.9998 139.399 92.8998 139.099 92.7998 138.799C92.5998 138.499 92.2998 138.299 92.0998 138.199C91.6998 137.999 91.2998 137.899 90.8998 137.799L89.1998 137.399C88.5998 137.299 88.0998 137.199 87.4998 136.999C86.9998 136.899 86.5998 136.699 86.0998 136.399C85.6998 136.199 85.3998 135.899 85.1998 135.499C84.9998 135.099 84.8998 134.599 84.8998 134.099C84.8998 133.199 85.2998 132.299 86.0998 131.799C87.1998 131.199 88.4998 130.899 89.7998 130.999H90.5998H91.6998L92.7998 131.099C93.0998 131.099 93.3998 131.199 93.6998 131.299C93.8998 131.299 94.0998 131.499 94.0998 131.699V132.299C93.4998 132.199 92.8998 132.099 92.1998 132.099C91.4998 132.099 90.8998 132.099 90.1998 132.099C89.5998 132.099 88.9998 132.099 88.4998 132.199C88.0998 132.299 87.6998 132.399 87.3998 132.599C87.0998 132.699 86.8998 132.899 86.7998 133.199C86.6998 133.499 86.5998 133.799 86.5998 133.999C86.4998 134.599 86.7998 135.199 87.3998 135.499C87.7998 135.699 88.0998 135.799 88.4998 135.899C88.9998 135.999 89.4998 136.099 90.1998 136.299C90.8998 136.399 91.4998 136.599 91.9998 136.699C92.4998 136.799 92.9998 136.999 93.4998 137.299C93.8998 137.499 94.1998 137.899 94.4998 138.299C94.7998 138.799 94.8998 139.299 94.8998 139.799C94.9998 140.899 94.3998 141.899 93.4998 142.399C92.2998 142.999 90.9998 143.199 89.6998 143.199H88.7998H87.5998L86.3998 143.099C85.7998 142.999 85.3998 142.899 85.1998 142.699Z" fill="url(#paint13_linear_1407_2512)"/>
<path d="M98.8004 142.699C98.6004 142.699 98.4004 142.499 98.4004 142.299V141.599C98.9004 141.599 99.5004 141.799 100.3 141.799C101.1 141.899 101.8 141.899 102.6 141.899C103.3 141.899 103.9 141.899 104.6 141.799C105 141.699 105.4 141.599 105.8 141.399C106.1 141.199 106.3 140.999 106.4 140.699C106.5 140.399 106.6 140.099 106.6 139.799C106.6 139.399 106.5 139.099 106.4 138.799C106.2 138.499 106 138.299 105.7 138.199C105.3 137.999 104.9 137.899 104.5 137.799L102.8 137.399C102.2 137.299 101.7 137.199 101.1 136.999C100.6 136.899 100.2 136.699 99.7004 136.399C99.3004 136.199 99.0004 135.899 98.8004 135.499C98.6004 135.099 98.5004 134.599 98.5004 134.099C98.5004 133.199 98.9004 132.299 99.7004 131.799C100.8 131.199 102.1 130.899 103.4 130.999H104.2H105.3L106.4 131.099C106.7 131.099 107 131.199 107.3 131.299C107.5 131.299 107.7 131.499 107.7 131.699V132.299C107.1 132.199 106.5 132.099 105.8 132.099C105.1 132.099 104.5 132.099 103.8 132.099C103.2 132.099 102.6 132.099 102.1 132.199C101.7 132.299 101.3 132.399 101 132.599C100.7 132.699 100.5 132.899 100.4 133.199C100.3 133.499 100.2 133.799 100.2 133.999C100.2 134.299 100.3 134.599 100.4 134.899C100.5 135.199 100.8 135.399 101 135.499C101.4 135.699 101.7 135.799 102.1 135.899C102.6 135.999 103.1 136.099 103.8 136.299C104.5 136.399 105.1 136.599 105.6 136.699C106.1 136.799 106.6 136.999 107.1 137.299C107.5 137.499 107.8 137.899 108.1 138.299C108.4 138.799 108.5 139.299 108.5 139.799C108.6 140.899 108.1 141.899 107.1 142.399C105.9 142.999 104.6 143.199 103.3 143.199H102.3H101.1L99.9004 143.099C99.3004 142.999 99.0004 142.899 98.8004 142.699Z" fill="url(#paint14_linear_1407_2512)"/>
<path d="M113.6 128.9C113.3 128.9 113 128.8 112.7 128.7C112.3 128.3 112.3 127.6 112.7 127.2C113 127 113.3 127 113.6 127C113.9 127 114.2 127 114.5 127.2C114.9 127.6 114.9 128.3 114.5 128.7C114.2 128.8 113.9 128.9 113.6 128.9ZM112.8 131.1H114C114.3 131.1 114.4 131.2 114.4 131.5V142.9H113.2C112.9 142.9 112.8 142.8 112.8 142.6V131.1Z" fill="url(#paint15_linear_1407_2512)"/>
<path d="M119.5 142.699C119.3 142.699 119.1 142.499 119.1 142.299V141.599C119.6 141.599 120.2 141.799 121 141.799C121.8 141.899 122.5 141.899 123.3 141.899C124 141.899 124.6 141.899 125.3 141.799C125.7 141.699 126.1 141.599 126.5 141.399C126.8 141.199 127 140.999 127.1 140.699C127.2 140.399 127.3 140.099 127.3 139.799C127.3 139.399 127.2 139.099 127.1 138.799C126.9 138.499 126.6 138.299 126.4 138.199C126 137.999 125.6 137.899 125.2 137.799L123.5 137.399C122.9 137.299 122.4 137.199 121.8 136.999C121.3 136.899 120.9 136.699 120.4 136.399C120 136.199 119.7 135.899 119.5 135.499C119.3 135.099 119.2 134.599 119.2 134.099C119.2 133.199 119.6 132.299 120.4 131.799C121.5 131.199 122.8 130.899 124.1 130.999H124.9H126L127.1 131.099C127.4 131.099 127.7 131.199 128 131.299C128.2 131.299 128.4 131.499 128.4 131.699V132.299C127.8 132.199 127.2 132.099 126.5 132.099C125.8 132.099 125.2 132.099 124.5 132.099C123.9 132.099 123.3 132.099 122.8 132.199C122.4 132.299 122 132.399 121.7 132.599C121.4 132.699 121.2 132.899 121.1 133.199C120.9 133.799 120.9 134.399 121.1 134.899C121.3 135.099 121.5 135.299 121.7 135.499C122.1 135.699 122.4 135.799 122.8 135.899C123.3 135.999 123.8 136.099 124.5 136.299C125.2 136.399 125.8 136.599 126.3 136.699C126.8 136.799 127.3 136.999 127.8 137.299C128.2 137.499 128.5 137.899 128.8 138.299C129 138.799 129.2 139.299 129.1 139.799C129.2 140.899 128.7 141.899 127.7 142.399C126.5 142.999 125.2 143.199 123.9 143.199H123H121.8L120.6 143.099C120.1 142.999 119.8 142.899 119.5 142.699Z" fill="url(#paint16_linear_1407_2512)"/>
<path d="M138.9 141.9C139.1 141.9 139.2 141.9 139.4 142C139.5 142.1 139.5 142.1 139.5 142.2V142.8C138.8 142.9 138.1 143 137.4 143C136.9 143 136.3 143 135.8 142.8C135.4 142.7 135.1 142.6 134.8 142.3C134.6 142.1 134.4 141.8 134.3 141.6C134.2 141.3 134.1 141 134.1 140.6V132.2H132.8C132.5 132.2 132.4 132.1 132.4 131.9V131.1H134.1V127.9H135.3C135.6 127.9 135.7 128 135.7 128.3V131.1H139C139.3 131.1 139.4 131.2 139.4 131.4V132.2H135.7V140.5C135.7 140.7 135.7 140.9 135.7 141.1C135.7 141.3 135.8 141.4 136 141.5C136.2 141.7 136.4 141.8 136.6 141.8C137 141.8 137.4 141.8 137.7 141.8L138.9 141.9Z" fill="url(#paint17_linear_1407_2512)"/>
<path d="M152.4 141.6C152.1 141.8 151.9 142 151.6 142.1C151.3 142.3 150.9 142.5 150.6 142.7C150.2 142.8 149.8 143 149.3 143.1C148.8 143.2 148.4 143.2 147.9 143.2C146.7 143.3 145.4 142.9 144.4 142.2C143.6 141.5 143.2 140.5 143.3 139.5C143.2 138.4 143.7 137.3 144.7 136.7C145.9 136.1 147.3 135.8 148.7 135.8H152.3V134.9C152.3 134.5 152.3 134 152.1 133.6C152 133.3 151.7 133 151.4 132.8C151 132.6 150.6 132.4 150.2 132.3C149.6 132.2 148.9 132.1 148.3 132.1C147.5 132.1 146.7 132.1 145.9 132.3C145.4 132.4 144.9 132.4 144.5 132.4C144.2 132.4 144 132.3 144 132V131.4C144.8 131.2 145.6 131.1 146.3 131.1C147.1 131.1 147.9 131.1 148.6 131.1C149.5 131.1 150.4 131.2 151.2 131.4C151.8 131.5 152.4 131.8 152.8 132.2C153.2 132.5 153.5 133 153.6 133.4C153.8 133.9 153.8 134.4 153.8 135V143H152.7C152.4 143 152.2 142.9 152.2 142.6L152.4 141.6ZM152.4 136.8H148.5C147.9 136.8 147.2 136.9 146.6 137C146.2 137.1 145.7 137.3 145.4 137.5C145.1 137.7 144.9 138 144.8 138.3C144.7 138.6 144.6 139 144.6 139.3C144.5 140.1 144.9 140.9 145.5 141.3C146.2 141.7 147.1 141.9 147.9 141.9C148.8 142 149.7 141.8 150.6 141.5C151.2 141.2 151.8 140.8 152.3 140.4L152.4 136.8Z" fill="url(#paint18_linear_1407_2512)"/>
<path d="M160.7 132.4C160.9 132.2 161.2 132 161.4 131.9C161.7 131.7 162.1 131.5 162.5 131.4C162.9 131.2 163.4 131.1 163.9 131C164.5 130.9 165.1 130.8 165.6 130.8C166.8 130.7 168 131.1 168.9 131.8C169.8 132.6 170.3 133.8 170.1 134.9V142.8H168.9C168.6 142.8 168.5 142.7 168.5 142.5V135C168.6 134.1 168.2 133.3 167.6 132.7C166.9 132.2 166 132 165.2 132C164.7 132 164.2 132.1 163.7 132.2C163.3 132.3 162.9 132.4 162.5 132.6C162.2 132.8 161.8 132.9 161.5 133.1C161.2 133.3 161 133.4 160.8 133.7V142.9H159.6C159.3 142.9 159.2 142.8 159.2 142.6V131.1H160.3C160.6 131.1 160.7 131.2 160.7 131.5V132.4Z" fill="url(#paint19_linear_1407_2512)"/>
<path d="M184.1 142.699C183.5 142.799 183 142.999 182.4 142.999C181.7 143.099 181.1 143.099 180.4 143.099C179.5 143.099 178.6 142.999 177.7 142.699C177 142.399 176.4 141.999 176 141.499C175.6 140.899 175.3 140.299 175.1 139.599C174.9 138.799 174.8 137.999 174.8 137.099C174.6 135.399 175.1 133.699 176.2 132.399C177.3 131.399 178.9 130.799 180.4 130.999H181.4L182.4 131.099L183.2 131.199C183.4 131.199 183.6 131.299 183.7 131.299C184 131.299 184.1 131.499 184.1 131.699V132.299L182.4 132.099C181.8 132.099 181.3 132.099 180.7 132.099C180.1 132.099 179.5 132.199 179 132.299C178.5 132.499 178.1 132.699 177.7 133.099C177.3 133.499 177 133.999 176.9 134.599C176.7 135.399 176.6 136.199 176.7 136.899C176.7 137.699 176.8 138.599 177 139.399C177.2 139.999 177.5 140.499 177.9 140.899C178.3 141.299 178.7 141.499 179.2 141.599C179.8 141.699 180.3 141.799 180.9 141.799C181.5 141.799 182.1 141.799 182.8 141.699C183.2 141.599 183.6 141.599 184 141.599C184.1 141.599 184.3 141.599 184.4 141.699C184.4 141.799 184.4 141.899 184.4 141.899L184.1 142.699Z" fill="url(#paint20_linear_1407_2512)"/>
<path d="M193.9 143.1C193 143.1 192 143 191.1 142.8C190.4 142.6 189.7 142.3 189.1 141.8C188.6 141.3 188.2 140.6 188 139.9C187.7 139 187.6 138 187.6 137.1C187.6 136.1 187.7 135.1 188 134.2C188.2 133.5 188.6 132.8 189.1 132.3C189.6 131.8 190.2 131.4 190.8 131.2C191.6 131 192.5 130.8 193.3 130.9C194.2 130.9 195.1 131 195.9 131.3C196.5 131.5 197.1 131.9 197.5 132.4C197.9 132.8 198.2 133.4 198.3 134C198.5 134.6 198.5 135.3 198.5 136C198.5 136.3 198.5 136.6 198.5 136.9C198.5 137.2 198.4 137.4 198.3 137.6H189.1C189.1 138.3 189.2 139 189.4 139.6C189.5 140.1 189.8 140.6 190.2 141C190.6 141.4 191.1 141.7 191.7 141.8C192.5 142 193.3 142.1 194.1 142C194.9 142 195.6 142 196.4 141.9C197 141.9 197.4 141.8 197.6 141.8C197.7 141.8 197.9 141.8 198 141.9C198.1 142 198.1 142 198.1 142.1V142.8C197.5 143 197 143.1 196.4 143.1C195.5 143.1 194.7 143.1 193.9 143.1ZM193.4 132C192.7 132 192 132.1 191.4 132.3C190.9 132.5 190.5 132.8 190.1 133.2C189.8 133.6 189.5 134.1 189.4 134.6C189.3 135.2 189.2 135.7 189.2 136.3H197C197 136.2 197 136.1 197 136V135.7C197 135.1 197 134.5 196.8 134C196.7 133.6 196.5 133.1 196.2 132.8C195.9 132.5 195.5 132.2 195.1 132.1C194.6 132 194 131.9 193.4 132Z" fill="url(#paint21_linear_1407_2512)"/>
</g>
<defs>
<linearGradient id="paint0_linear_1407_2512" x1="72.9404" y1="100.295" x2="65.9977" y2="86.6347" gradientUnits="userSpaceOnUse">
<stop stop-color="#1C8AE2"/>
<stop offset="0.4865" stop-color="#8B00B3"/>
<stop offset="1" stop-color="#6900B5"/>
</linearGradient>
<linearGradient id="paint1_linear_1407_2512" x1="48.6727" y1="57.1165" x2="67.5616" y2="99.3386" gradientUnits="userSpaceOnUse">
<stop stop-color="#1C8AE2"/>
<stop offset="0.4865" stop-color="#8B00B3"/>
<stop offset="1" stop-color="#6900B5"/>
</linearGradient>
<linearGradient id="paint2_linear_1407_2512" x1="105.504" y1="57.9186" x2="122.393" y2="102.585" gradientUnits="userSpaceOnUse">
<stop stop-color="#1C8AE2"/>
<stop offset="0.4865" stop-color="#8B00B3"/>
<stop offset="1" stop-color="#6900B5"/>
</linearGradient>
<linearGradient id="paint3_linear_1407_2512" x1="161.167" y1="56.5365" x2="179.167" y2="112.536" gradientUnits="userSpaceOnUse">
<stop stop-color="#1C8AE2"/>
<stop offset="0.4865" stop-color="#8B00B3"/>
<stop offset="1" stop-color="#6900B5"/>
</linearGradient>
<linearGradient id="paint4_linear_1407_2512" x1="14.2067" y1="113.503" x2="46.2067" y2="44.6145" gradientUnits="userSpaceOnUse">
<stop stop-color="#1C8AE2"/>
<stop offset="0.4865" stop-color="#8B00B3"/>
<stop offset="1" stop-color="#6900B5"/>
</linearGradient>
<linearGradient id="paint5_linear_1407_2512" x1="71.8482" y1="113.349" x2="99.626" y2="45.1267" gradientUnits="userSpaceOnUse">
<stop stop-color="#1C8AE2"/>
<stop offset="0.4865" stop-color="#8B00B3"/>
<stop offset="1" stop-color="#6900B5"/>
</linearGradient>
<linearGradient id="paint6_linear_1407_2512" x1="128.717" y1="112.11" x2="154.494" y2="44.3324" gradientUnits="userSpaceOnUse">
<stop stop-color="#1C8AE2"/>
<stop offset="0.4865" stop-color="#8B00B3"/>
<stop offset="1" stop-color="#6900B5"/>
</linearGradient>
<linearGradient id="paint7_linear_1407_2512" x1="-0.1667" y1="134.765" x2="197.611" y2="134.765" gradientUnits="userSpaceOnUse">
<stop stop-color="#1C8AE2"/>
<stop offset="0.4865" stop-color="#8B00B3"/>
<stop offset="1" stop-color="#6900B5"/>
</linearGradient>
<linearGradient id="paint8_linear_1407_2512" x1="-0.166479" y1="137.025" x2="197.612" y2="137.025" gradientUnits="userSpaceOnUse">
<stop stop-color="#1C8AE2"/>
<stop offset="0.4865" stop-color="#8B00B3"/>
<stop offset="1" stop-color="#6900B5"/>
</linearGradient>
<linearGradient id="paint9_linear_1407_2512" x1="-0.166483" y1="134.627" x2="197.611" y2="134.627" gradientUnits="userSpaceOnUse">
<stop stop-color="#1C8AE2"/>
<stop offset="0.4865" stop-color="#8B00B3"/>
<stop offset="1" stop-color="#6900B5"/>
</linearGradient>
<linearGradient id="paint10_linear_1407_2512" x1="-0.166229" y1="134.92" x2="197.611" y2="134.92" gradientUnits="userSpaceOnUse">
<stop stop-color="#1C8AE2"/>
<stop offset="0.4865" stop-color="#8B00B3"/>
<stop offset="1" stop-color="#6900B5"/>
</linearGradient>
<linearGradient id="paint11_linear_1407_2512" x1="-0.166604" y1="134.55" x2="197.611" y2="134.55" gradientUnits="userSpaceOnUse">
<stop stop-color="#1C8AE2"/>
<stop offset="0.4865" stop-color="#8B00B3"/>
<stop offset="1" stop-color="#6900B5"/>
</linearGradient>
<linearGradient id="paint12_linear_1407_2512" x1="-0.166632" y1="134.843" x2="197.611" y2="134.843" gradientUnits="userSpaceOnUse">
<stop stop-color="#1C8AE2"/>
<stop offset="0.4865" stop-color="#8B00B3"/>
<stop offset="1" stop-color="#6900B5"/>
</linearGradient>
<linearGradient id="paint13_linear_1407_2512" x1="-0.167196" y1="137.047" x2="197.611" y2="137.047" gradientUnits="userSpaceOnUse">
<stop stop-color="#1C8AE2"/>
<stop offset="0.4865" stop-color="#8B00B3"/>
<stop offset="1" stop-color="#6900B5"/>
</linearGradient>
<linearGradient id="paint14_linear_1407_2512" x1="-0.166061" y1="137.047" x2="197.611" y2="137.047" gradientUnits="userSpaceOnUse">
<stop stop-color="#1C8AE2"/>
<stop offset="0.4865" stop-color="#8B00B3"/>
<stop offset="1" stop-color="#6900B5"/>
</linearGradient>
<linearGradient id="paint15_linear_1407_2512" x1="-0.165732" y1="134.911" x2="197.611" y2="134.911" gradientUnits="userSpaceOnUse">
<stop stop-color="#1C8AE2"/>
<stop offset="0.4865" stop-color="#8B00B3"/>
<stop offset="1" stop-color="#6900B5"/>
</linearGradient>
<linearGradient id="paint16_linear_1407_2512" x1="-0.167099" y1="137.046" x2="197.611" y2="137.046" gradientUnits="userSpaceOnUse">
<stop stop-color="#1C8AE2"/>
<stop offset="0.4865" stop-color="#8B00B3"/>
<stop offset="1" stop-color="#6900B5"/>
</linearGradient>
<linearGradient id="paint17_linear_1407_2512" x1="-0.165856" y1="135.529" x2="197.611" y2="135.529" gradientUnits="userSpaceOnUse">
<stop stop-color="#1C8AE2"/>
<stop offset="0.4865" stop-color="#8B00B3"/>
<stop offset="1" stop-color="#6900B5"/>
</linearGradient>
<linearGradient id="paint18_linear_1407_2512" x1="-0.166433" y1="137.167" x2="197.611" y2="137.167" gradientUnits="userSpaceOnUse">
<stop stop-color="#1C8AE2"/>
<stop offset="0.4865" stop-color="#8B00B3"/>
<stop offset="1" stop-color="#6900B5"/>
</linearGradient>
<linearGradient id="paint19_linear_1407_2512" x1="-0.166017" y1="136.884" x2="197.611" y2="136.884" gradientUnits="userSpaceOnUse">
<stop stop-color="#1C8AE2"/>
<stop offset="0.4865" stop-color="#8B00B3"/>
<stop offset="1" stop-color="#6900B5"/>
</linearGradient>
<linearGradient id="paint20_linear_1407_2512" x1="-0.16734" y1="137.061" x2="197.611" y2="137.061" gradientUnits="userSpaceOnUse">
<stop stop-color="#1C8AE2"/>
<stop offset="0.4865" stop-color="#8B00B3"/>
<stop offset="1" stop-color="#6900B5"/>
</linearGradient>
<linearGradient id="paint21_linear_1407_2512" x1="-0.167504" y1="136.99" x2="197.611" y2="136.99" gradientUnits="userSpaceOnUse">
<stop stop-color="#1C8AE2"/>
<stop offset="0.4865" stop-color="#8B00B3"/>
<stop offset="1" stop-color="#6900B5"/>
</linearGradient>
<clipPath id="clip0_1407_2512">
<rect width="198" height="155" fill="white"/>
</clipPath>
</defs>
</svg>
