<svg width="241" height="155" fill="none" xmlns="http://www.w3.org/2000/svg"><path fill-rule="evenodd" clip-rule="evenodd" d="M108.1 78c0 9.1-5.6 13.4-12.5 13.4h-4.2v-5.5h3.9c4.2 0 7-2.3 7-7.9 0-5.6-2.6-8.4-7.1-8.4-4.3 0-7.4 2.6-7.4 8.3v22.8H82V64.8h5.8v3.1h.8c1.9-2.6 4.8-3.8 7.8-3.8 6.4.1 11.7 4.7 11.7 13.9Zm-38-2.4-3.9-.4c-3-.3-4.6-1.1-4.6-2.9 0-2.1 2-3.3 5-3.3s5 1.4 5.1 3.5h5.6c-.2-5.2-4.2-8.4-10.6-8.4-6.5 0-10.8 3.4-10.8 8.4 0 4.2 2.6 6.9 8.7 7.5l3.9.4c2.4.2 4 .7 4 3 0 2-1.5 3.5-5.4 3.5-3.6 0-5.4-1.6-6-3.8h-6c.6 5 4.8 8.9 12 8.9 6.8 0 11.2-3.6 11.2-8.9-.2-4.6-3.2-7-8.2-7.5Zm60.5 7.6c-.9 2.1-3.1 3.7-6.2 3.7-4.2 0-7.4-2.8-7.4-8.7 0-5.7 2.9-8.8 7.4-8.8 4 0 6.3 2.4 6.6 6.1h-10.4v4.2h16.1v-2.8c0-7.7-5.1-12.6-12.3-12.6-6.7 0-13.2 4.6-13.2 14s6.5 14 13.2 14c6.2 0 10.5-3.8 11.9-8.9h-5.7v-.2Zm-91.3-19c-6.3 0-11.1 3.3-11.6 8.4h6.2c.4-1.9 2.2-3.3 5.4-3.3 4.2 0 5.6 2.2 5.6 4.9v9.1c-2.4 2.7-5.1 4-7.9 4-2.9 0-4.9-1.4-4.9-3.9 0-2.4 1.5-3.9 4.5-3.9h4.6v-4.2h-4.8c-6.6 0-10.3 3.3-10.3 8.4 0 4.7 3.6 8.3 9.5 8.3 3.3 0 6.2-1.3 8.4-2.9h.8v2.3h5.8V73.6c0-6.5-4.4-9.4-11.3-9.4ZM0 91.4h5.8V55H0v36.4Zm24.3-26.6h-7.1L8.8 75.9v3.5l8.7 12h7.2L14.6 77.6l9.7-12.8Zm209.4 0L229 75.3c-1.2 2.5-2.3 5-2.6 6.7h-.8c-.3-1.7-1.5-4.1-2.6-6.6l-4.7-10.6h-6.4L223 88.7l-5.5 12h6.2l16.5-35.9h-6.5Zm-23.3 0h-7.1l-8.4 11.1v3.5l8.7 12h7.2l-10.1-13.8 9.7-12.8Zm-36.2 10.8-3.9-.4c-3-.3-4.6-1.1-4.6-2.9 0-2.1 2-3.3 5-3.3s5 1.4 5.1 3.5h5.6c-.2-5.2-4.2-8.4-10.6-8.4-6.5 0-10.8 3.4-10.8 8.4 0 4.2 2.6 6.9 8.7 7.5l3.9.4c2.4.2 4 .7 4 3 0 2-1.5 3.5-5.4 3.5-3.6 0-5.4-1.6-6-3.8h-6c.6 5 4.8 8.9 12 8.9 6.8 0 11.2-3.6 11.2-8.9-.2-4.6-3.3-7-8.2-7.5Zm11.9 15.8h5.8V55h-5.8v36.4Zm-38.2-23.5h-.8v-3.1h-5.8v26.6h5.8V77.5c0-4.7 2.2-7.5 6.5-7.5h3.7v-5.8h-2.1c-4.1 0-5.8 1.5-7.3 3.7Z" fill="url(#a)"/><defs><linearGradient id="a" x1="-.008" y1="77.88" x2="240.065" y2="77.88" gradientUnits="userSpaceOnUse"><stop stop-color="#1C8AE2"/><stop offset=".486" stop-color="#8B00B3"/><stop offset="1" stop-color="#6900B5"/></linearGradient></defs></svg>