<svg width="200" height="155" fill="none" xmlns="http://www.w3.org/2000/svg"><path d="M0 93.4V70.1l30.6-5.3v8.6l-19.4 3.5v14.6L0 93.4Z" fill="url(#a)"/><path d="m0 67 30.6-5.5V49.9L0 55.2V67Z" fill="url(#b)"/><path d="M33.5 87.7V64.3l34-5.8c-.3 1.8-1.2 3.4-2.6 4.5 1.2.9 2 2.2 2.4 3.6.2 1.9 0 15.1 0 15.1L56 83.6V69.4l-11 1.5v14.7l-11.5 2.1Z" fill="url(#c)"/><path d="M33.5 61V49.5L59.3 45c3.7-.3 7.2 2 8.2 5.6v4.6l-34 5.8Z" fill="url(#d)"/><path d="M70.2 54.6V43l30.5-5.1v11.4l-30.5 5.3Z" fill="url(#e)"/><path d="m70.2 58.1 30.5-5.4v8.8l-19.2 3.1v3.1l19.2-3.1V76l-30.6 5.4.1-23.3Z" fill="url(#f)"/><path d="M137.5 43V31.4L112 35.8c-4.1.9-7.3 4-8.5 8v5.1l34-5.9Z" fill="url(#g)"/><path d="M103.9 54.6c1 2.5 3.1 4.3 5.7 5l16.5-2.5v2.5l-22.4 4v12l25.4-4.4s4.9-1.8 6.8-5.1c1-1.7 1.6-3.6 1.6-5.5v-6.4s-.9-3.7-2-4.4c-1.1-.8-1.6-2.1-5.9-2-4.3.1-26.2 4.3-26.2 4.3l.5 2.5Z" fill="url(#h)"/><path d="M140.6 42.5V30.9l11-1.9v11.7l-11 1.8Z" fill="url(#i)"/><path d="M163.2 38.6V27l11-2v11.8l-11 1.8Z" fill="url(#j)"/><path d="m140.6 45.8 33.6-5.7v23.2l-11 1.9V50.6l-11.6 2.1v14.6l-10.9 1.8-.1-23.3Z" fill="url(#k)"/><path d="M42 103.5V91.6l25.4-4.2s4.7.4 5.9 1.7c1.1 1.3 1.9 2.9 2.3 4.6v4L42 103.5Z" fill="url(#l)"/><path d="m41.9 106.4 33.6-5.8c-.3 2.7-1.3 5.3-2.9 7.6-2.4 3-4.4 2.7-4.4 2.7l-15.1 2.6V128l-11.2 2.1v-23.7Z" fill="url(#m)"/><path d="M78 97.101v-4.4c.5-1.8 1.5-3.5 2.8-4.9 1.7-1.6 3.7-2.9 5.9-3.8l16.5-2.9s4.1-.2 5.8 1.5c1.4 1.2 2.5 2.8 3 4.6v4.1l-34 5.8Z" fill="url(#n)"/><path d="M89.2 98.1 78 100.098v16.1c.4 1.8 1.4 3.4 2.7 4.7 1.8 1.3 6.1 1.5 6.1 1.5l17-3.1c2-1 3.9-2.3 5.4-4 1.2-1.7 2.1-3.7 2.6-5.8v-15.3L101 96.1v12.2l-11.8 1.8v-12Z" fill="url(#o)"/><path d="m115 79.1 11.1-2v11.8l-11 2-.1-11.8Z" fill="url(#p)"/><path d="m115 93.7 11.1-1.9v23.701l-11.1 2v-23.8Z" fill="url(#q)"/><path d="M129.1 115.001v-23.7l11-2v23.8l-11 1.9Z" fill="url(#r)"/><path d="M151.5 111.1V87.4l11.2-1.8v23.6l-11.2 1.9Z" fill="url(#s)"/><path d="M129 88.4V76.7l26.2-4.4s4.2.1 5.7 2.3c1 1.3 1.7 2.8 1.9 4.5v3.5L129 88.4Z" fill="url(#t)"/><path d="m176.6 83.1 11.7-1.9v23.599l-11.7 2v-23.7Z" fill="url(#u)"/><path d="M165.5 82.2V70.4l33.9-5.8v11.6l-33.9 6Z" fill="url(#v)"/><defs><linearGradient id="l" x1="1.845" y1="103.99" x2="200.511" y2="71.99" gradientUnits="userSpaceOnUse"><stop stop-color="#1C8AE2"/><stop offset=".486" stop-color="#8B00B3"/><stop offset="1" stop-color="#6900B5"/></linearGradient><linearGradient id="a" x1="-1.728" y1="81.807" x2="196.938" y2="49.807" gradientUnits="userSpaceOnUse"><stop stop-color="#1C8AE2"/><stop offset=".486" stop-color="#8B00B3"/><stop offset="1" stop-color="#6900B5"/></linearGradient><linearGradient id="c" x1="-1.778" y1="81.5" x2="196.889" y2="49.5" gradientUnits="userSpaceOnUse"><stop stop-color="#1C8AE2"/><stop offset=".486" stop-color="#8B00B3"/><stop offset="1" stop-color="#6900B5"/></linearGradient><linearGradient id="d" x1="-5.037" y1="61.265" x2="193.63" y2="29.265" gradientUnits="userSpaceOnUse"><stop stop-color="#1C8AE2"/><stop offset=".486" stop-color="#8B00B3"/><stop offset="1" stop-color="#6900B5"/></linearGradient><linearGradient id="e" x1="-5.103" y1="60.854" x2="193.564" y2="28.854" gradientUnits="userSpaceOnUse"><stop stop-color="#1C8AE2"/><stop offset=".486" stop-color="#8B00B3"/><stop offset="1" stop-color="#6900B5"/></linearGradient><linearGradient id="f" x1="-1.838" y1="81.124" x2="196.828" y2="49.124" gradientUnits="userSpaceOnUse"><stop stop-color="#1C8AE2"/><stop offset=".486" stop-color="#8B00B3"/><stop offset="1" stop-color="#6900B5"/></linearGradient><linearGradient id="g" x1="-5.188" y1="60.326" x2="193.478" y2="28.326" gradientUnits="userSpaceOnUse"><stop stop-color="#1C8AE2"/><stop offset=".486" stop-color="#8B00B3"/><stop offset="1" stop-color="#6900B5"/></linearGradient><linearGradient id="h" x1="-1.915" y1="80.645" x2="196.752" y2="48.645" gradientUnits="userSpaceOnUse"><stop stop-color="#1C8AE2"/><stop offset=".486" stop-color="#8B00B3"/><stop offset="1" stop-color="#6900B5"/></linearGradient><linearGradient id="i" x1="-5.22" y1="60.132" x2="193.447" y2="28.132" gradientUnits="userSpaceOnUse"><stop stop-color="#1C8AE2"/><stop offset=".486" stop-color="#8B00B3"/><stop offset="1" stop-color="#6900B5"/></linearGradient><linearGradient id="j" x1="-5.27" y1="59.817" x2="193.397" y2="27.817" gradientUnits="userSpaceOnUse"><stop stop-color="#1C8AE2"/><stop offset=".486" stop-color="#8B00B3"/><stop offset="1" stop-color="#6900B5"/></linearGradient><linearGradient id="k" x1="-1.978" y1="80.255" x2="196.688" y2="48.255" gradientUnits="userSpaceOnUse"><stop stop-color="#1C8AE2"/><stop offset=".486" stop-color="#8B00B3"/><stop offset="1" stop-color="#6900B5"/></linearGradient><linearGradient id="b" x1="-4.959" y1="61.748" x2="193.707" y2="29.748" gradientUnits="userSpaceOnUse"><stop stop-color="#1C8AE2"/><stop offset=".486" stop-color="#8B00B3"/><stop offset="1" stop-color="#6900B5"/></linearGradient><linearGradient id="m" x1="5.058" y1="123.935" x2="203.725" y2="91.935" gradientUnits="userSpaceOnUse"><stop stop-color="#1C8AE2"/><stop offset=".486" stop-color="#8B00B3"/><stop offset="1" stop-color="#6900B5"/></linearGradient><linearGradient id="n" x1="1.75" y1="103.404" x2="200.417" y2="71.404" gradientUnits="userSpaceOnUse"><stop stop-color="#1C8AE2"/><stop offset=".486" stop-color="#8B00B3"/><stop offset="1" stop-color="#6900B5"/></linearGradient><linearGradient id="o" x1="4.989" y1="123.509" x2="203.656" y2="91.509" gradientUnits="userSpaceOnUse"><stop stop-color="#1C8AE2"/><stop offset=".486" stop-color="#8B00B3"/><stop offset="1" stop-color="#6900B5"/></linearGradient><linearGradient id="p" x1="1.707" y1="103.133" x2="200.373" y2="71.133" gradientUnits="userSpaceOnUse"><stop stop-color="#1C8AE2"/><stop offset=".486" stop-color="#8B00B3"/><stop offset="1" stop-color="#6900B5"/></linearGradient><linearGradient id="q" x1="4.954" y1="123.293" x2="203.62" y2="91.293" gradientUnits="userSpaceOnUse"><stop stop-color="#1C8AE2"/><stop offset=".486" stop-color="#8B00B3"/><stop offset="1" stop-color="#6900B5"/></linearGradient><linearGradient id="r" x1="4.916" y1="123.062" x2="203.583" y2="91.062" gradientUnits="userSpaceOnUse"><stop stop-color="#1C8AE2"/><stop offset=".486" stop-color="#8B00B3"/><stop offset="1" stop-color="#6900B5"/></linearGradient><linearGradient id="s" x1="4.887" y1="122.874" x2="203.553" y2="90.874" gradientUnits="userSpaceOnUse"><stop stop-color="#1C8AE2"/><stop offset=".486" stop-color="#8B00B3"/><stop offset="1" stop-color="#6900B5"/></linearGradient><linearGradient id="t" x1="1.678" y1="102.949" x2="200.344" y2="70.949" gradientUnits="userSpaceOnUse"><stop stop-color="#1C8AE2"/><stop offset=".486" stop-color="#8B00B3"/><stop offset="1" stop-color="#6900B5"/></linearGradient><linearGradient id="u" x1="4.846" y1="122.619" x2="203.512" y2="90.619" gradientUnits="userSpaceOnUse"><stop stop-color="#1C8AE2"/><stop offset=".486" stop-color="#8B00B3"/><stop offset="1" stop-color="#6900B5"/></linearGradient><linearGradient id="v" x1="1.604" y1="102.494" x2="200.271" y2="70.494" gradientUnits="userSpaceOnUse"><stop stop-color="#1C8AE2"/><stop offset=".486" stop-color="#8B00B3"/><stop offset="1" stop-color="#6900B5"/></linearGradient></defs></svg>