<svg width="200" height="155" fill="none" xmlns="http://www.w3.org/2000/svg"><path d="M25.3 93.7v-1.2c3.6-.4 3.7-.6 3.7-5.3V69.3c-3.6 8-9.4 20.6-10.9 24.5h-1.2c-1.4-4-6.4-16.2-9.8-24.1-.8 15.4-.8 18.9-.8 19.7 0 2.5 1.2 2.8 4.1 3.1v1.2H0v-1.2c2.6-.3 3.6-.8 4-3.2.3-1.9.3-3.5 1.4-19.5.2-2.3-.3-3-4.1-3.4v-1.2H9l9.7 22.3 10.4-22.3h7.7v1.2c-3.8.4-4.2.8-4.2 3.9l.2 16.8c.2 4.7.3 4.9 4.2 5.3v1.2l-11.7.1Z" fill="url(#a)"/><path d="M55.6 90c-2.8 3.5-5.9 4.2-7.3 4.2-5.4 0-8.6-4.4-8.6-9.4-.1-2.8.9-5.6 2.8-7.7 1.7-2 4.1-3.1 6.7-3.2 3.7.1 6.7 3.1 6.7 6.8 0 .9-.2 1.3-.9 1.4-.7.1-6.5.6-11.7.8-.1 5.9 3.5 8.3 6.6 8.3 1.9-.1 3.8-.9 5.1-2.2l.6 1ZM48 75.6c-2 0-4 1.9-4.6 5.4 2.5 0 4.9 0 7.5-.1.8 0 1.1-.2 1.1-.9.2-2.3-1.5-4.2-3.7-4.4H48Z" fill="url(#b)"/><path d="M68.6 93.7H58.4v-1.2c2.8-.3 3-.5 3-3.3V80c0-2.9-.2-3-2.7-3.3v-1.1c2.1-.3 4.2-.9 6.2-1.8v4.8c1.5-2.3 3.4-4.7 5.6-4.7 1.2-.2 2.4.7 2.5 2v.1c-.1 1-.6 1.9-1.5 2.4-.4.3-.8.2-1.2-.1-.5-.6-1.2-1-2-1.1-.9 0-2.5 1.4-3.5 3.6v8.3c0 2.9.2 3.1 3.6 3.4v1.2h.2Z" fill="url(#c)"/><path d="M75.3 93.7v-1.2c2.8-.3 3.1-.5 3.1-3.5v-9.1c0-2.8-.1-2.9-2.8-3.3v-1.1c2.2-.3 4.3-.9 6.3-1.8v15.2c0 3 .3 3.2 3.2 3.5v1.2l-9.8.1Zm4.6-24.2c-1.3-.1-2.3-1.2-2.2-2.6.1-1.2 1-2.1 2.2-2.2 1.3 0 2.3 1.1 2.3 2.3v.1c-.1 1.3-1.1 2.4-2.3 2.4Z" fill="url(#d)"/><path d="M95.6 93.7c-.6.3-1.2.5-1.9.6-2.8 0-4.3-1.7-4.3-5.2V76.3h-3l-.2-.5 1.2-1.3h2v-3.7c.8-.9 2.1-2 2.9-2.9l.7.1c-.1 1.9-.1 4.4-.1 6.5h5c.3.6.2 1.3-.3 1.8h-4.7v11.2c0 3.6 1.4 4.2 2.6 4.2.9 0 1.9-.3 2.7-.7l.4 1.2-3 1.5Z" fill="url(#e)"/><path d="M111.2 85.1h-10.1l.3-2.7h10.1l-.3 2.7Z" fill="url(#f)"/><path d="M127 65.1c2.6-.2 5.2.5 7.4 1.9 2 1.5 3 3.9 2.9 6.3 0 6.4-5.5 9-9.7 9-.4 0-.8 0-1.2-.1l-3-.8v6.9c0 3.7.3 3.8 4.3 4.2v1.2h-12.1v-1.2c3.8-.4 4-.7 4-4.3V70.7c0-3.9-.5-4-4-4.4v-1.2H127Zm-3.6 14.8c1 .4 2.1.6 3.2.6 2.9 0 6.6-1.5 6.6-7 0-4.8-3.2-6.8-6.9-6.8-.9-.1-1.7.1-2.5.5-.4.3-.5.8-.5 2v10.7h.1Z" fill="url(#g)"/><path d="M152.4 93.7v-1.2c2.6-.3 2.9-.5 2.9-3.4v-7.2c0-3.7-1.4-5.5-4.4-5.4-1.8 0-3.5.9-4.6 2.3v10.4c0 2.8.4 3.1 3 3.4v1.2h-9.6v-1.2c2.6-.2 3.1-.4 3.1-3.4V67.9c0-2.3-.1-2.9-3.1-3.2v-1.2c2.2-.2 4.4-.7 6.6-1.5v15c1.7-1.8 3.9-3 6.4-3.2 3.6 0 6.1 2.2 6.1 7.5v7.8c0 2.9.4 3.1 2.9 3.3v1.2h-9.3v.1Z" fill="url(#h)"/><path d="M179.8 91.1c-.1.5-.6 2.1-.7 2.6h-7.3v-.4c1.4-.1 1.6-.2 1.6-1.5v-6.2c0-1.4-.2-1.4-1.4-1.5v-.4h4.2v.4c-1.2.1-1.4.2-1.4 1.5v6.3c0 .9.1 1.2 1 1.2h1.2c.8 0 1-.1 1.4-.5.4-.5.7-1 1-1.6l.4.1Z" fill="url(#i)"/><path d="M187.7 86c-.1-.4-.3-.9-.5-1.3-.3-.4-.4-.5-1.2-.5h-1.6v7.6c0 1.2.1 1.4 1.6 1.5v.4h-4.5v-.4c1.4-.1 1.6-.3 1.6-1.5v-7.6h-1.4c-.9 0-1.1.1-1.4.6-.2.4-.4.8-.5 1.2h-.5c.1-1 .2-1.9.2-2.8h.4c.2.4.4.4.9.4h6.2c.3.1.6-.1.8-.4h.4c0 .7 0 1.8.1 2.8h-.6Z" fill="url(#j)"/><path d="M193.7 83.6c1.6-.2 3.3.4 4.5 1.4.9.9 1.4 2.1 1.3 3.3.1 1.6-.7 3.2-1.9 4.2-1.4.9-3 1.3-4.6 1.2h-3.7v-.5c1.4-.1 1.4-.2 1.4-1.5v-6.2c0-1.4-.2-1.4-1.4-1.5v-.4h4.4Zm-1.5 8c0 1.2.5 1.5 1.7 1.5 2.8 0 4.2-1.9 4.2-4.6.1-1.5-.6-2.9-1.8-3.7-.8-.5-1.7-.7-2.7-.6-.4 0-.9 0-1.2.2-.1.1-.2.3-.2.9v6.3Z" fill="url(#k)"/><defs><linearGradient id="f" x1="-.824" y1="83.767" x2="197.847" y2="83.767" gradientUnits="userSpaceOnUse"><stop stop-color="#1C8AE2"/><stop offset=".486" stop-color="#8B00B3"/><stop offset="1" stop-color="#6900B5"/></linearGradient><linearGradient id="a" x1="-.822" y1="79.434" x2="197.847" y2="79.434" gradientUnits="userSpaceOnUse"><stop stop-color="#1C8AE2"/><stop offset=".486" stop-color="#8B00B3"/><stop offset="1" stop-color="#6900B5"/></linearGradient><linearGradient id="c" x1="-.822" y1="83.746" x2="197.848" y2="83.746" gradientUnits="userSpaceOnUse"><stop stop-color="#1C8AE2"/><stop offset=".486" stop-color="#8B00B3"/><stop offset="1" stop-color="#6900B5"/></linearGradient><linearGradient id="d" x1="-.823" y1="79.238" x2="197.847" y2="79.238" gradientUnits="userSpaceOnUse"><stop stop-color="#1C8AE2"/><stop offset=".486" stop-color="#8B00B3"/><stop offset="1" stop-color="#6900B5"/></linearGradient><linearGradient id="e" x1="-.821" y1="81.05" x2="197.846" y2="81.05" gradientUnits="userSpaceOnUse"><stop stop-color="#1C8AE2"/><stop offset=".486" stop-color="#8B00B3"/><stop offset="1" stop-color="#6900B5"/></linearGradient><linearGradient id="b" x1="-.822" y1="84.048" x2="197.846" y2="84.048" gradientUnits="userSpaceOnUse"><stop stop-color="#1C8AE2"/><stop offset=".486" stop-color="#8B00B3"/><stop offset="1" stop-color="#6900B5"/></linearGradient><linearGradient id="g" x1="-.822" y1="79.459" x2="197.846" y2="79.459" gradientUnits="userSpaceOnUse"><stop stop-color="#1C8AE2"/><stop offset=".486" stop-color="#8B00B3"/><stop offset="1" stop-color="#6900B5"/></linearGradient><linearGradient id="h" x1="-.822" y1="77.933" x2="197.847" y2="77.933" gradientUnits="userSpaceOnUse"><stop stop-color="#1C8AE2"/><stop offset=".486" stop-color="#8B00B3"/><stop offset="1" stop-color="#6900B5"/></linearGradient><linearGradient id="i" x1="-.822" y1="88.659" x2="197.846" y2="88.659" gradientUnits="userSpaceOnUse"><stop stop-color="#1C8AE2"/><stop offset=".486" stop-color="#8B00B3"/><stop offset="1" stop-color="#6900B5"/></linearGradient><linearGradient id="j" x1="-.822" y1="88.427" x2="197.846" y2="88.427" gradientUnits="userSpaceOnUse"><stop stop-color="#1C8AE2"/><stop offset=".486" stop-color="#8B00B3"/><stop offset="1" stop-color="#6900B5"/></linearGradient><linearGradient id="k" x1="-.826" y1="88.683" x2="197.846" y2="88.683" gradientUnits="userSpaceOnUse"><stop stop-color="#1C8AE2"/><stop offset=".486" stop-color="#8B00B3"/><stop offset="1" stop-color="#6900B5"/></linearGradient></defs></svg>