<svg width="200" height="155" fill="none" xmlns="http://www.w3.org/2000/svg"><path d="M36.915 69.208c0-.1 0-.2.1-.2s.1 0 .2.1l.2.1c.8.6 1.4 1.4 1.8 2.3.2.4-.2.7-1 1-.4.1-.9.1-1.3 0-.7-.1-1.5-.2-2.7-.4-.3 1.3-.5 2.6-.6 3.6-.1.9-.2 1.9-.2 2.8 0 .7.1 1.4.3 2l.1.1.3.1.2.1c.1 0 .1.1.1.1 0 .4-.3.5-.7.5-.2 0-.3 0-.3-.1-.5-1.3-.7-2.8-.6-4.2 0-.7 0-1.5.1-2.4.1-.9.1-1.9.3-2.9-1.3-.3-2.7-.5-4.1-.9l-4.6-1c-1.2 1.3-2.5 2.5-3.8 3.6-1.4 1.2-2.9 2.3-4.5 3.5-4.6 3.2-8.5 4.9-11.5 5-1.3.1-2.6-.4-3.5-1.3-.9-1-1.3-2.3-1.2-3.6 0-.7.1-1.4.2-2.1.2-.8.4-1.5.7-2.2.9-2.6 3-4.5 5.6-5.2.6-.2 1.2-.3 1.8-.3.7-.1 1.3-.1 2.2-.1 4.7.1 9.4.7 14 1.8 1.4-1.5 3.3-3.7 5.8-6.7 1.3-1.6 2.6-3.2 3.6-4.5 1.1-1.3 1.9-2.6 2.7-3.6.1-.1.3-.2.5-.2.5 0 .9.2 1.3.5.5.3.7.6.7.8-.6 1.9-1.2 3.5-1.6 4.9l-1.1 3.5c-1.1 3.6-1.7 6.1-2 7.7 1 .3 2 .5 3 .5.8 0 1.2-.2 1.2-.6-.1-.8-.5-1.5-1.2-1.9-.4.1-.5 0-.5-.2Zm-33.6.8c-.9.9-1.5 1.9-2 3.1-.4 1.2-.7 2.4-.7 3.6-.1 1.1.3 2.3.9 3.2.4.4.8.8 1.3 1 .6.3 1.2.4 1.8.3 3.1-.1 6.7-1.6 11.1-4.6 2.8-2.1 5.4-4.3 7.8-6.8-4.4-1.1-8.8-1.7-13.4-1.7-.8 0-1.6 0-2.3.1-.6.1-1.2.1-1.8.3-.8.2-1.9.7-2.7 1.5Zm25.9.4c1.3.3 2.7.6 4 .9.8-4.9 2-9.7 3.7-14.3 0-.2.1-.3.1-.5 0-.4-.1-.6-.3-.6-.1 0-.2 0-.3.1l-.3.3c-1.8 2.4-3.6 4.7-5.5 6.9-1.8 2.2-3.7 4.2-5.5 6.1 1.4.4 2.8.8 4.1 1.1Z" fill="url(#a)"/><path d="M39.315 80.608c-.3 0-.4 0-.4-.1s-.1-.3 0-.6c.8-1.7 1.8-3.3 2.8-4.8.6-1 1.2-1.8 1.8-2.6.5-.8 1.1-1.4 1.5-2l.3-.3c.2-.1.4-.1.6-.2h.3c0 .1 0 .2-.1.3-.8 1-1.6 2-2.3 3.1-.6 1-1.2 2.1-1.7 3.2-.1.1-.1.3-.1.5 0 .3.1.4.3.4.2 0 .3-.1.4-.3.7-.6 1.3-1.3 2.1-1.9.8-.6 1.5-1.3 2.2-1.9 1.1-1 2.3-1.8 3.6-2.5l.9-.6c.4-.2.9-.3 1.3-.1.3.1.3.4 0 .8-1.8 2.3-3.4 4.9-4.6 7.6-1.1 2.1-1.8 4.4-2.1 6.8-.2.9.1 1.9.7 2.6.5.5 1.2.8 2 .8.4 0 .7 0 1-.1 1.9-.7 3.7-1.8 5.1-3.2 2.3-1.9 3.4-3.5 3.4-4.7 0-.2 0-.4-.2-.5-.1-.1-.2-.2-.4-.2h-.4c-.1 0-.1 0-.1-.1s.1-.3.3-.4c.2-.1.4-.1.6-.1.4 0 .6.3.6.8 0 .4-.1.7-.2 1-.3.8-.7 1.5-1.2 2.2-.6.9-1.3 1.7-2.1 2.4-2 2.1-4.6 3.5-7.5 3.8-.9.1-1.8-.2-2.4-.8-.8-.9-1.1-2.2-.9-3.4.3-2.3 1.1-4.5 2.3-6.5.5-1.1 1.1-2.2 1.7-3.2.6-1 1.3-2 2-3 .1-.1.1-.2.1-.4 0-.4-.2-.6-.7-.6-.2 0-.4.1-.6.2-1.4 1-2.8 2.2-4.1 3.4-1.3 1.3-2.7 2.8-4.1 4.4-.3.5-1 .7-1.7.8Z" fill="url(#b)"/><path d="M50.915 80.608c-.3 0-.4 0-.4-.1s-.1-.3 0-.6c.8-1.6 1.8-3.2 2.8-4.8.6-1 1.2-1.8 1.8-2.6.5-.8 1.1-1.4 1.5-2l.3-.3c.2-.1.4-.1.6-.2h.3c0 .1 0 .2-.1.3-.8 1-1.6 2-2.3 3.1-.6 1-1.2 2.1-1.7 3.2-.1.1-.2.3-.1.5 0 .3.1.4.3.4.2 0 .3-.1.4-.3.7-.6 1.3-1.3 2.1-1.9.8-.6 1.5-1.2 2.2-1.9 1.1-1 2.3-1.8 3.6-2.5l.9-.6c.4-.2.8-.3 1.3-.1.3.1.3.4 0 .8-1.8 2.3-3.3 4.9-4.6 7.6-1.1 2.1-1.8 4.4-2.1 6.8-.1.9.1 1.8.7 2.6.5.5 1.2.8 2 .8.4 0 .7 0 1-.1 1.9-.7 3.7-1.8 5.2-3.2 2.3-1.9 3.4-3.5 3.4-4.7 0-.2 0-.4-.2-.5-.1-.1-.2-.2-.4-.2h-.4c-.1 0-.1 0-.1-.1s.1-.3.3-.4c.2-.1.4-.1.5-.1.4 0 .6.3.6.8 0 .4-.1.7-.2 1-.3.8-.7 1.5-1.1 2.2-.6.9-1.3 1.7-2.1 2.4-2 2.1-4.6 3.5-7.5 3.8-.9.1-1.7-.2-2.4-.8-.8-1-1.1-2.2-.9-3.4.3-2.3 1.1-4.5 2.3-6.5.5-1.1 1.1-2.2 1.7-3.2.6-1 1.3-2 2-3 .1-.1.1-.2.1-.4 0-.4-.2-.6-.6-.6-.2 0-.4.1-.6.2-1.4 1-2.8 2.1-4.1 3.4-1.5 1.4-2.8 2.9-4.2 4.4-.5.5-1.1.7-1.8.8Z" fill="url(#c)"/><path d="M63.215 81.307c-.6 0-.9-.4-.9-1.3 0-1.7 1.3-3.9 4-6.5 1.1-1.1 2.2-2.1 3.5-3 .9-.7 1.9-1.3 3-1.7.2-.1.5-.2.7-.2.2-.1.5-.1.8-.1.3 0 .6 0 .9.1.3.1.6.1.9.2h.7c.4 0 .7-.2.9-.5.1 0 .1-.1.2-.1s.2.1.3.2c0 .1.1.2 0 .3-.7 1.1-1.3 2.1-2.1 3.2-.7 1-1.3 2.1-2 3.2-.6.9-1 1.9-1.5 2.9-.5 1.1-.9 2.2-1.3 3.3-.4 1.1-.7 2.2-1 3.2-.2.8-.4 1.7-.6 2.6v.7c-.1.7.2 1.4.8 1.8.6.4 1.3.6 2 .6.9 0 1.7-.1 2.6-.4 1.8-.7 3.5-1.8 5-3 .9-.8 1.8-1.6 2.7-2.5.8-.8 1.5-1.6 2-2.4l.4-.4c.1 0 0 0 0 .1s-.1.3-.1.4c-.6.9-1.3 1.8-2 2.6-.9 1-1.8 1.9-2.8 2.7-1 .8-1.9 1.5-2.7 2-.7.5-1.4.9-2.2 1.1-.3.1-.7.2-1 .3-.3.1-.7.1-1 .1-.5 0-1.1-.1-1.6-.3-.5-.2-.9-.4-1.3-.7-.4-.2-.8-.7-.9-1.1-.2-.5-.3-1.1-.2-1.7.1-.7.2-1.4.3-2 .2-.8.4-1.7.7-2.7.3-.9.6-1.9.9-2.8.3-.9.7-1.8 1-2.5.3-.7.8-1.7 1.2-2.4.4-.7.8-1.4 1.2-2 .2-.3.2-.4 0-.4 0 0-.1 0-.1.1-.6.8-1.3 1.5-2.1 2.2-.8.8-1.7 1.6-2.8 2.5-1.7 1.5-3.5 2.8-5.4 4-.4.2-.8.3-1.1.3Zm1.3-2.5c0 .6.2.9.6.9.2 0 .4-.1.5-.2 1.5-1 2.9-2.1 4.2-3.4 1.7-1.6 3.3-3.4 4.8-5.2.1-.1.1-.2.1-.3 0-.3-.2-.6-.5-.7-.4-.2-.8-.4-1.2-.3-.3 0-.6 0-.8.1-1.7.7-3.2 1.8-4.3 3.3-.7.8-1.4 1.7-2.1 2.7-.5.8-1 1.6-1.3 2.4v.7Z" fill="url(#d)"/><path d="M98.615 67.808c0 .1.1.3.1.4v.3c0 .1-.1.1-.2 0-.2-.1-.3-.3-.4-.4-.2-.3-.4-.7-.6-1.1-.2-.4-.4-.9-.6-1.3-.2-.4-.4-.9-.5-1.3-.1-.4-.2-.7-.3-1.1v-1.1c0-.5.1-.9.3-1.3.2-.5.6-1 1-1.3.6-.5 1.4-.8 2.2-.9.8-.1 1.6-.2 2.4-.2.9 0 1.9 0 3 .1s2.1.2 3.3.3l3.3.4 3 .3c.9.1 1.7.1 2.4.1.2 0 .3-.1.5-.1.1-.1.3-.1.5-.2s.4-.1.5 0c.1.1.3.2.3.3.1.2.1.3 0 .5s-.2.3-.4.4c-.2.1-.3.2-.5.2h-.5c-.1 0-.2 0-.3.1l-.4.2c-.8.3-1.6.7-2.3 1.2-.7.5-1.3 1.1-1.9 1.8-.6.7-1.3 1.4-1.9 2.2l-2.1 2.7c-.1.1-.1.2-.1.3 0 .1 0 .1.2.1h1.8c.2 0 .3 0 .4.1.1.1.1.2 0 .2-.1.1-.2.1-.3.2-.1.1-.3.1-.5.1h-2.3c-.1 0-.1.1-.1.2-.4.7-1 1.4-1.7 2.3-.7.9-1.3 1.7-2.1 2.6-.7.8-1.5 1.6-2.3 2.3-.6.6-1.3 1.1-2.1 1.5-.2.1-.4.2-.4.3 0 .1.1.2.3.2l2.9.9c1 .3 2 .6 3.1.9 1.1.3 2 .5 3 .7 1 .2 1.9.3 2.8.4h1.7c.5 0 1.1-.2 1.5-.5.4-.3.6-.3.7-.2.1.1 0 .3-.3.4-.3.2-.5.3-.8.4-.2.1-.4.2-.7.2-.3.1-.6.1-.9.1h-1.3c-1.2 0-2.5-.2-3.7-.4-1.3-.2-2.6-.5-3.8-.8-1.2-.3-2.4-.6-3.4-.9-1-.3-1.8-.5-2.4-.8-.2-.1-.5 0-.7.1-.4.3-.9.4-1.4.5-.6.2-1.2.3-1.9.3-.4 0-.7 0-1.1-.1-.5-.1-.9-.2-1.3-.4-.5-.2-.9-.4-1.3-.7-.4-.3-.7-.6-.9-1-.3-.4-.3-.8-.1-1.2.2-.4.7-.6 1.3-.6.5 0 1.1 0 1.6.1.7.1 1.3.3 1.9.4.6.2 1.3.4 1.9.5l1.5.5c.1 0 .2.1.4.1s.3-.1.5-.2c.7-.5 1.3-1 1.8-1.5.7-.7 1.3-1.4 2-2.2.7-.8 1.3-1.6 1.9-2.4.6-.8 1.2-1.5 1.6-2.2.1-.1.1-.2.2-.3.1-.1 0-.1-.3-.1h-2.6c-.1 0-.2 0-.3-.1-.1-.1-.1-.1-.1-.2s.1-.2.2-.3c.1-.1.3-.1.4-.1h3c.1 0 .2-.1.2 0s0 0 .1-.1c1.4-1.9 3-3.7 4.7-5.3 1.3-1.2 2.7-2.2 4.3-2.9l.4-.2c.1-.1.2-.1.2-.2s0-.1-.1-.2c-.2-.1-.3-.2-.5-.2l-2.6-.4c-1.2-.2-2.4-.3-3.9-.5-1.4-.1-2.9-.2-4.4-.1-1.3 0-2.7.2-4 .5-.6.1-1.1.3-1.6.6-.4.2-.7.5-.9.9-.3.5-.5 1.1-.5 1.7.5 2.2.8 3.9 1.3 5.5Zm-8.4 11.3c.3.3.6.6 1 .7.4.2.9.3 1.3.4.5.1 1 .1 1.5.1s1-.1 1.4-.2c.2-.1.3-.1.5-.2.1 0 0-.2-.2-.3-.2-.1-.8-.3-1.3-.4l-1.5-.4-1.4-.4-1-.2c-.2-.1-.4 0-.6.1 0 .2 0 .5.3.8Z" fill="url(#e)"/><path d="M129.915 71.107c.1 0 .2 0 .2.1.2.1.4.2.5.3.1.1.2.3.2.5-.1.3-.2.6-.4.9-.4 1.2-.8 2.6-1.3 4.2s-1.2 3.5-2 5.6c3.4-.6 6.9-.9 10.4-1h1.6l1.2.1c.3.1.6.2.8.3.3.2.5.4.8.6.2.2.4.5.5.8.1.3.2.6.2.9 0 .3-.1.6-.2.8-.6 1-1.4 1.8-2.4 2.4-.1.2-.3.3-.5.3h-.1s.1-.3.4-.5c1.2-.8 2-2.1 2.2-3.6 0-.9-.6-1.3-1.8-1.4h-2.7c-2.2 0-4.2.1-5.9.2-1.6.1-3.2.3-4.7.7-7.1 20.1-15.6 30.4-25.7 31.1-3.4.2-6.8-.9-9.5-3.1-2.9-2.3-4.4-4.8-4.4-7.7 0-.9.2-1.8.6-2.7 1.8-4.3 7.5-8.4 17.2-12.2 6.7-2.6 13.6-4.6 20.6-6 .8-1.9 1.4-3.9 1.9-5.9.1-.4.2-.8.3-1.1.1-.3.2-.7.3-1-.5.5-1.1.9-1.7 1.3-.7.5-1.6 1.2-2.7 2-1.3 1-2.6 1.7-3.6 2.4-.8.5-1.7.9-2.6 1.3-.2.1-.4.1-.7.1-.6.1-1.2-.3-1.3-.9v-.4c0-.4.1-.8.3-1.1 1.4-2.6 3.4-4.7 5.9-6.1 2.5-1.2 5.3-2.1 8.1-2.2Zm-41.1 31c-.3.7-.4 1.5-.4 2.3.1 2.7 1.5 5.2 3.8 6.7 2.6 2 5.7 3 9 2.8 5.8-.2 11.3-4.6 16.5-13 1.6-2.7 3.1-5.4 4.4-8.2 1.4-3 2.6-6 3.6-9.2-7.8 1.6-15.4 4-22.7 7.2-7.9 3.6-12.7 7.4-14.2 11.4Zm38.9-27.2c.6-.5 1-1.2 1-2v-.1c0-.4-.1-.7-.2-.7-.6-.1-1.1 0-1.7.2-1.9.5-3.7 1.4-5.2 2.6-1.6 1.1-2.8 2.6-3.5 4.4v.6c0 .8.3 1.2.9 1.2.6 0 2-.9 4.4-2.7 1-.7 1.8-1.3 2.6-1.9.7-.6 1.2-1.1 1.7-1.6Z" fill="url(#f)"/><path d="M133.515 82.108h-.5c-.2-.1-.4-.2-.5-.3-.2-.1-.3-.3-.4-.4-.1-.2-.2-.3-.2-.5 0-2 1.7-4.9 4.8-8.8.1-.2 0-.3-.1-.3-.2-.1-.4-.3-.7-.4-.2-.2-.3-.3-.3-.5 0-.1 0-.2.1-.3 0-.1.4-.2.9-.2h1.3c.1 0 .3-.1.4-.1.4-.5 1-.7 1.6-.8.6 0 1.2.3 1.6.6l.1.1.1.1 2 .1 2.7.1c.4 0 .5.1.5.1s-.2.2-.5.2c-.7 0-1.2.1-1.4.4V71.808c-.1 1.1-.5 2.1-1.2 2.9-.9 1.3-2 2.4-3.2 3.4-2.5 2.3-5 3.7-7.1 4Zm-.5-1.9c-.1.2-.2.5-.2.8 0 .6.4.8 1.2.7 2.2-.6 4.3-1.8 5.9-3.5 2.4-2.1 3.8-4.1 4.1-5.8.2-.7-.3-1.1-1.3-1.3-.5-.1-1.1-.1-1.6 0s-.9.2-1.3.3c0 0-.3.1-.6.3-2.8 2.3-4.8 5.2-6.2 8.5Z" fill="url(#g)"/><path d="m158.415 66.907 1.3-2.2-.6-.1-.5-.1c-.4-.1-.7-.3-.9-.6-.3-.3-.4-.7-.4-1.1 0-.2.1-.5.3-.6 1.5-1.4 3.3-2.4 5.3-2.7.7-1 1.3-2 1.9-2.8.6-.9 1.2-1.6 1.7-2.3 5.5-7 11.1-11.5 16.7-13.4 1.8-.7 3.7-1 5.6-1 2.8-.1 5.5.8 7.7 2.6 1.9 1.4 2.9 3.7 3 6 0 1.8-.7 3.6-1.8 5-1.6 1.9-3.6 3.5-5.9 4.5-8.8 4.3-18.5 6.6-28.3 6.8h-2.5c-.5.9-1.1 1.8-1.6 2.8-.5.9-1.1 1.9-1.6 3-2.3 4.4-3.4 7.8-3.4 10.4 0 .2.1.3.2.4h.6c.1 0 .1.1.1.3l-.3.3c-.3.1-.6 0-.8-.2-.1-.2-.2-.5-.3-.7-.1-.3-.1-.6-.1-.9.3-2.6 1-5.2 2.1-7.6.1-.4.1-.6-.2-.6-.1 0-.2.1-.2.1-.6.8-1.3 1.6-2.1 2.5-.8.9-1.8 1.8-2.8 2.7-1.7 1.7-3.7 3.2-5.8 4.3-.1 0-.2.1-.4.1-.9 0-1.3-.4-1.3-1.2 0-1.6 1.4-3.7 4.2-6.4 1.9-1.9 4.1-3.5 6.5-4.7l.7-.2c.3-.1.5-.1.8-.1.3 0 .6 0 .9.1.3.1.7.1 1.1.3.2-1.2.7-1.9 1.1-2.7Zm-13.3 12.2c0 .5.2.8.6.8.2 0 .4-.1.6-.2 1.6-1.1 3.2-2.2 4.6-3.5 1.6-1.4 3.1-2.9 4.5-4.5.2-.3.4-.6.4-.9 0-.5-.4-.8-1.3-.8-.3 0-.6 0-.9.1-.8.2-1.5.6-2.1 1-.9.7-1.7 1.4-2.5 2.2-1.6 1.4-2.8 3.2-3.7 5.1-.2.2-.3.5-.2.7Zm14.3-14.9.7.1c.5-.8.9-1.5 1.3-2.2l1.3-2c-.9.2-1.8.6-2.7 1.1-.7.4-1.3 1-1.9 1.6-.2.2-.3.4-.3.6 0 .4.3.7.8.7.3.1.5.1.8.1Zm1.9.1h2.1c9.8.1 19.4-2.5 27.9-7.5 5-2.9 7.5-5.9 7.5-9.1 0-2.1-1.2-4.1-3-5.2-2.1-1.5-4.6-2.2-7.1-2.1-1.8 0-3.5.4-5.2 1-7.8 3.4-15.3 11-22.2 22.9Z" fill="url(#h)"/><path d="M169.015 76.808c-.3.3-.7.7-1.3 1.1-.6.4-1.2.9-1.9 1.4-.7.5-1.4.9-2.1 1.3-.6.4-1.2.7-1.9 1h-.7l-.9-.3c-.3-.2-.6-.4-.8-.7-.2-.3-.4-.7-.3-1.1 0-.5.1-1 .3-1.5.2-.7.5-1.3.7-1.9l.9-2.1c.3-.7.7-1.3.9-1.9.3-.6.5-1.1.7-1.5.1-.2.2-.5.3-.8 0-.3.2-.5.4-.6.2-.1.5-.1.7 0 .2.1.4.3.5.5.1.4 0 .7-.2 1-.8 1.5-1.5 2.7-1.9 3.6-.4.9-.8 1.4-.9 1.8-.2.4-.3.6-.3.7 0 .1-.1.2-.1.2 0 .1-.1.3-.2.4l-.6 1.2c-.2.4-.4.9-.4 1.3 0 .3 0 .5.2.7.2.1.4.2.6.2.2 0 .5 0 .7-.1.6-.2 1.2-.4 1.7-.7.7-.4 1.3-.8 2.1-1.2.8-.5 1.3-.9 2-1.3.5-.4 1-.7 1.4-1.1.1-.2.3-.3.5-.4.1 0 .1 0 .2.1 0 .1 0 .2-.1.3 0 .2-.1.3-.2.4Zm-2.3-11.1c-.2.6-.5 1.1-1 1.4-.5.5-1 .7-1.3.7-.4-.1-.8-.3-.8-.6s.3-.8.8-1.3c.3-.4.8-.8 1.3-1 .3 0 .5 0 .7.2.3.1.4.3.3.6Z" fill="url(#i)"/><path d="M164.615 80.608c-.3 0-.4 0-.4-.1s0-.3.1-.6c.8-1.7 1.8-3.3 2.8-4.8.6-1 1.2-1.8 1.8-2.6.6-.8 1.1-1.4 1.5-2l.3-.3c.2-.1.4-.1.6-.2h.2c0 .1 0 .2-.1.3-.9 1-1.6 2-2.4 3.1-.6 1-1.2 2.1-1.7 3.2-.1.1-.2.3-.1.5 0 .3.1.4.3.4.2 0 .3-.1.4-.3.7-.6 1.3-1.3 2.1-1.9.8-.6 1.5-1.3 2.3-1.9 1.1-1 2.3-1.8 3.6-2.5l.9-.6c.4-.2.8-.3 1.3-.1.3.1.3.4 0 .8-1.8 2.4-3.4 4.9-4.7 7.6-1.1 2.1-1.8 4.4-2.1 6.8-.1.9.1 1.8.7 2.6.5.5 1.2.8 2 .8.4 0 .7 0 1.1-.1 1.9-.7 3.7-1.8 5.1-3.2 2.3-1.9 3.4-3.5 3.4-4.7 0-.2 0-.4-.2-.5-.1-.1-.2-.2-.4-.2h-.4c-.1 0-.1 0-.1-.1s.1-.3.3-.4c.2-.1.4-.1.6-.1.4 0 .6.3.6.8 0 .4-.1.7-.2 1-.3.8-.7 1.5-1.1 2.2-.6.9-1.3 1.7-2.1 2.4-2 2.1-4.6 3.5-7.5 3.8-.9.1-1.8-.2-2.4-.8-.7-1-1-2.2-.8-3.4.3-2.3 1.1-4.5 2.3-6.5.5-1.1 1.1-2.2 1.7-3.2.6-1 1.3-2 1.9-3 .1-.1.1-.2.1-.4 0-.4-.2-.6-.6-.6-.2 0-.4.1-.6.2-1.4 1-2.8 2.1-4.1 3.4-1.4 1.3-2.7 2.8-4.2 4.4-.5.5-1.1.7-1.8.8Z" fill="url(#j)"/><path d="M176.915 81.307c-.6 0-.9-.4-.9-1.3 0-1.7 1.3-3.9 4-6.5 1.1-1.1 2.2-2.1 3.4-3 .9-.7 1.9-1.3 3-1.7.2-.1.5-.2.7-.2.3-.1.5-.1.8-.1.3 0 .6 0 .9.1.3.1.6.1.9.2h.7c.4 0 .7-.2.9-.5.1-.1.1-.1.2-.1s.2.1.3.2c0 .1.1.2 0 .3-.7 1.1-1.3 2.1-2.1 3.2-.7 1-1.3 2.1-2 3.2-.6.9-1.1 1.9-1.5 2.9-.5 1.1-.9 2.2-1.3 3.3-.4 1.1-.7 2.2-1 3.2-.2.8-.4 1.7-.6 2.6v.7c-.1.7.2 1.4.8 1.9.6.4 1.3.6 2 .6.9 0 1.7-.1 2.6-.4 1.8-.8 3.5-1.8 5-3.1l2.7-2.4c.8-.8 1.5-1.6 2-2.4l.4-.4v.1c0 .1-.1.3-.1.4-.6.9-1.3 1.8-2 2.6-.9 1-1.8 1.9-2.8 2.7-.9.7-1.7 1.4-2.7 2-.7.5-1.4.9-2.2 1.2-.3.1-.7.2-1 .3-.4.1-.7.1-1.1.1-.5 0-1.1-.1-1.6-.3-.5-.2-.9-.4-1.3-.7-.4-.2-.8-.7-.9-1.1-.2-.5-.3-1.1-.2-1.7 0-.7.1-1.4.3-2 .2-.8.4-1.7.7-2.7.3-.9.6-1.9.9-2.8.3-.9.7-1.8 1-2.5.3-.7.8-1.7 1.2-2.4l1.2-2.1c.2-.3.1-.4 0-.4s0 0-.1.1c-.6.8-1.3 1.5-2.1 2.2-.8.8-1.7 1.6-2.8 2.5-1.7 1.5-3.5 2.8-5.4 4-.3 0-.6.1-.9.2Zm1.3-2.5c0 .6.2.9.7.9.2 0 .4-.1.5-.2 1.5-1 3-2.1 4.2-3.4 1.7-1.6 3.3-3.4 4.8-5.2.1-.1.1-.2.1-.3 0-.3-.2-.6-.5-.7-.3-.2-.8-.4-1.2-.3-.3 0-.6 0-.8.1-1.7.7-3.2 1.8-4.3 3.3-.7.8-1.4 1.7-2.1 2.7-.5.8-1 1.6-1.3 2.4 0 .2-.1.4-.1.7Z" fill="url(#k)"/><defs><linearGradient id="f" x1="-1.411" y1="92.902" x2="195.09" y2="92.902" gradientUnits="userSpaceOnUse"><stop stop-color="#1C8AE2"/><stop offset=".486" stop-color="#8B00B3"/><stop offset="1" stop-color="#6900B5"/></linearGradient><linearGradient id="a" x1="-1.411" y1="68.054" x2="195.089" y2="68.054" gradientUnits="userSpaceOnUse"><stop stop-color="#1C8AE2"/><stop offset=".486" stop-color="#8B00B3"/><stop offset="1" stop-color="#6900B5"/></linearGradient><linearGradient id="c" x1="-1.411" y1="79.859" x2="195.09" y2="79.859" gradientUnits="userSpaceOnUse"><stop stop-color="#1C8AE2"/><stop offset=".486" stop-color="#8B00B3"/><stop offset="1" stop-color="#6900B5"/></linearGradient><linearGradient id="d" x1="-1.411" y1="79.544" x2="195.09" y2="79.544" gradientUnits="userSpaceOnUse"><stop stop-color="#1C8AE2"/><stop offset=".486" stop-color="#8B00B3"/><stop offset="1" stop-color="#6900B5"/></linearGradient><linearGradient id="e" x1="-1.411" y1="70.612" x2="195.09" y2="70.612" gradientUnits="userSpaceOnUse"><stop stop-color="#1C8AE2"/><stop offset=".486" stop-color="#8B00B3"/><stop offset="1" stop-color="#6900B5"/></linearGradient><linearGradient id="b" x1="-1.412" y1="79.853" x2="195.089" y2="79.853" gradientUnits="userSpaceOnUse"><stop stop-color="#1C8AE2"/><stop offset=".486" stop-color="#8B00B3"/><stop offset="1" stop-color="#6900B5"/></linearGradient><linearGradient id="g" x1="-1.411" y1="75.758" x2="195.089" y2="75.758" gradientUnits="userSpaceOnUse"><stop stop-color="#1C8AE2"/><stop offset=".486" stop-color="#8B00B3"/><stop offset="1" stop-color="#6900B5"/></linearGradient><linearGradient id="h" x1="-1.411" y1="61.02" x2="195.09" y2="61.02" gradientUnits="userSpaceOnUse"><stop stop-color="#1C8AE2"/><stop offset=".486" stop-color="#8B00B3"/><stop offset="1" stop-color="#6900B5"/></linearGradient><linearGradient id="i" x1="-1.411" y1="73.265" x2="195.09" y2="73.265" gradientUnits="userSpaceOnUse"><stop stop-color="#1C8AE2"/><stop offset=".486" stop-color="#8B00B3"/><stop offset="1" stop-color="#6900B5"/></linearGradient><linearGradient id="j" x1="-1.411" y1="79.873" x2="195.089" y2="79.873" gradientUnits="userSpaceOnUse"><stop stop-color="#1C8AE2"/><stop offset=".486" stop-color="#8B00B3"/><stop offset="1" stop-color="#6900B5"/></linearGradient><linearGradient id="k" x1="-1.412" y1="79.531" x2="195.089" y2="79.531" gradientUnits="userSpaceOnUse"><stop stop-color="#1C8AE2"/><stop offset=".486" stop-color="#8B00B3"/><stop offset="1" stop-color="#6900B5"/></linearGradient></defs></svg>