<svg width="177" height="155" fill="none" xmlns="http://www.w3.org/2000/svg"><path d="M39 80.3c-.4-4.3-2.1-7.9-6.5-9.2-2.4-.7-5.1-.7-7.3-1.9-.6-.3-1.2-.8-1.7-1.3-.4-.5-.8-1-1.3-1.4-.4-.3-1-.4-1.4-.3 1.3 0 2 1.9 2.9 2.6.6.5 1.2.9 1.9 1.2 1.7.7 3.5 1.1 5.4 1.4 2.3.5 4.5 1.3 5.8 3.4 1 1.9 1.6 4 1.6 6.1.2 2.5-.8 4.9-2.8 6.5-1.6 1.1-3 2.4-4.3 3.8-1.1 1.3-1.6 3-1.3 4.7.3.7.6 1.5 1 2.1.6 1.1.2 2.4-.8 3-.4.4-.8.7-1.3.9 1.5-.4 3.3-1.1 3.2-2.9-.2-.9-.6-1.8-1.1-2.6-.6-1.8-.2-3.8 1.2-5.2 1.7-1.9 4-3.1 5.6-5.1 1.1-1.6 1.5-3.7 1.2-5.8Z" fill="url(#a)"/><path d="M11.5 96.301c-.8-.8-1.5-1.6-2.1-2.6-.9-1.3-1.7-2.8-2.3-4.3-.6-1.5-.9-3.1-1.6-4.7h-.1c0 1.6.4 3.2 1 4.7 1.1 2.7 2.7 5.3 4.7 7.4.1-.1.2-.3.4-.5Z" fill="url(#b)"/><path d="M14.1 95.4h1c-.9-.9-1.7-1.8-2.4-2.8-1.6-2.1-2.8-4.4-3.7-6.9-.7-2.5-1.3-5.1-1.7-7.7h-.1c-.2 2.7.2 5.3 1.2 7.8.9 2.5 2.1 4.9 3.7 7 .6 1 1.3 1.8 2 2.6Z" fill="url(#c)"/><path d="m18.3 95.2 1-.1c-5.7-4.9-9.2-11.9-9.7-19.4 0-.5-.8-.3-.7.1.5 7.5 3.9 14.4 9.4 19.4Z" fill="url(#d)"/><path d="M22.3 94.5c.2-.1.5-.2.7-.3-6.4-5-10.4-12.5-11-20.7 0-.4-.7-.5-.7 0 .5 8.2 4.5 15.8 11 21Z" fill="url(#e)"/><path d="M25 92c-6.2-4.9-10-12.1-10.5-19.9 0-.4-.7-.5-.7 0 .5 8.1 4.5 15.6 10.9 20.6.2-.2.3-.4.3-.7Z" fill="url(#f)"/><path d="M25.8 90.201v-.7c0-.1 0-.2.1-.2-5.1-4.8-8.2-11.4-8.6-18.4 0-.4-.8-.5-.7 0 .4 7.5 3.8 14.4 9.2 19.3Z" fill="url(#g)"/><path d="M22.7 65.8c-8.6 0-16.3 5.6-18.8 13.9l1-1.5c.1-.1.2-.2.2-.4.5-.9 1.1-1.7 1.7-2.6 5.6-8.8 17.2-11.4 26-5.8 8.8 5.6 11.4 17.2 5.8 26-3.5 5.4-9.5 8.7-15.9 8.7h-.5c-1.3.2-2.5.3-3.8.4 1.4.3 2.9.5 4.3.5 10.9.3 19.9-8.3 20.2-19.2.3-10.9-8.3-19.9-19.2-20.2-.4.1-.8.1-1 .2Z" fill="url(#h)"/><path d="M22.7 63.201c-12.1 0-22 9.8-22.1 21.9.3 1.5.7 2.9 1.2 4.3-.3-1.3-.4-2.7-.4-4.1 0-11.7 9.5-21.2 21.2-21.2 5.9 0 11.2 2.4 15 6.2 3.8 3.8 6.2 9.1 6.2 15 0 11.7-9.5 21.2-21.2 21.2-4.1 0-7.9-1.2-11.1-3.2 1.1 1 2.3 1.8 3.6 2.7 2.4.9 4.9 1.3 7.6 1.3 6.1 0 11.6-2.5 15.6-6.5s6.5-9.5 6.5-15.6c-.1-12.2-10-22-22.1-22Z" fill="url(#i)"/><path d="M22.5 60.701c-9.9 0-18.5 5.9-22.4 14.4-.1.8-.1 1.7-.1 2.6 3.2-9.4 12.1-16.1 22.6-16.1 13.2 0 23.9 10.7 23.9 23.9s-10.7 23.9-23.9 23.9h-.4c.8.3 1.5.5 2.3.7 12.7-1 22.8-11.7 22.8-24.6-.1-13.8-11.2-24.8-24.8-24.8Z" fill="url(#j)"/><path d="M22.5 57.8c-8.3 0-15.7 3.7-20.8 9.4-.2.7-.4 1.3-.6 2C6 62.7 13.8 58.5 22.5 58.5c14.8 0 26.8 12 26.8 26.8 0 12-7.9 22.201-18.8 25.601.7.1 1.3.1 2 .1 3.6-1.4 6.8-3.5 9.5-6.2 5-5 8.1-11.9 8.1-19.5 0-15.1-12.4-27.5-27.6-27.5Z" fill="url(#k)"/><path d="M22.5 55c-6.6 0-12.7 2.1-17.6 5.6-.4.6-.8 1.3-1.1 1.9 5.1-4.2 11.6-6.6 18.7-6.6 16.4 0 29.6 13.3 29.6 29.6 0 10.7-5.7 20.1-14.2 25.3.6-.1 1.3-.2 1.9-.3 7.9-5.5 13.1-14.7 13.2-25C52.9 68.6 39.3 55 22.5 55Z" fill="url(#l)"/><path d="M22.5 52.201c-4.6 0-9.1.9-13.1 2.7-.6.6-1.1 1.1-1.6 1.7 4.4-2.3 9.4-3.5 14.7-3.5 17.8 0 32.3 14.5 32.3 32.3 0 9.3-4 17.8-10.3 23.7l2.1-.9c5.6-5.9 9.1-14 9.1-22.8 0-18.3-14.9-33.2-33.2-33.2Z" fill="url(#m)"/><path d="M22.7 49c-2.2 0-4.3.2-6.4.6-.7.4-1.4.8-2 1.3 2.7-.7 5.5-1 8.4-1 19.6 0 35.4 15.9 35.4 35.4 0 7.4-2.3 14.3-6.2 20 .7-.5 1.3-1 2-1.5 3.2-5.4 5-11.7 5-18.4C58.9 65.2 42.7 49 22.7 49Z" fill="url(#n)"/><path d="M24.8 46c-.9.2-1.8.5-2.6.8h.5c10.6 0 20.2 4.3 27.1 11.3 7 6.9 11.3 16.5 11.3 27.1 0 4.9-.9 9.6-2.6 13.9.6-.7 1.1-1.4 1.6-2.1 1.2-3.7 1.8-7.6 1.8-11.7 0-21.1-16.4-38.2-37.1-39.3Z" fill="url(#o)"/><path d="M35.6 45.1c-.9-.1-1.8-.1-2.7-.1h-.7C50.4 49.3 63.9 65.7 64 85.2c0 1.7-.1 3.3-.3 4.9.4-1 .7-1.9 1-2.9v-1.9c.1-18.8-12.2-34.7-29.1-40.2Z" fill="url(#p)"/><path d="M66 77.6c-1.6-9.1-6-17.2-12.3-23.5-2.7-2.7-5.8-5.1-9.2-7l-.2-.1-1.7-.6c4.3 2.3 8.2 5.2 11.7 8.9C60.7 62 64.6 70.2 66 78.8v-1.2Z" fill="url(#q)"/><path d="M7.6 106.601c-.1-.3-.1-.6-.1-.9.1-1.3.2-2.5.5-3.7.2-1.3.6-2.5 1-3.7.3-1 1-1.9 1.9-2.6.7-.4 1.4-.6 2.2-.7 1.1-.1 2.2-.2 3.4-.3 1.1-.1 2.6-.1 3.9-.4 2.2-.2 4-1.7 4.8-3.7.4-1.1.7-2.3.8-3.5 0-.3.1-.5.2-.8.1.5.1 1 0 1.5-.1.9-.2 1.8-.5 2.7-.5 2.1-2.2 3.8-4.3 4.3-1.4.4-2.7.6-4.1.7-.9.1-1.8.1-2.7.2-.8 0-1.6.1-2.4.3-1 .3-1.9 1-2.3 2-.4.9-.8 1.8-1 2.8-.4 1.5-.8 3-1 4.5-.2.5-.2.9-.3 1.3Z" fill="url(#r)"/><path d="M30.6 80.1h-.1v-.2c.2-.2.5-.3.8-.4.1 0 .2 0 .2.1s0 .2-.1.2c-.3.2-.6.3-.8.3Z" fill="url(#s)"/><path d="M29 80.1c-.2-.1-.4-.1-.7-.2-.1 0-.2-.1-.2-.3 0-.1.1-.1.2-.1.2 0 .5.1.7.2.1 0 .2.1.1.2.1.2 0 .2-.1.2Z" fill="url(#t)"/><path d="M35.7 83.9c-.6.5-1.2.9-1.8 1.3-1 .7-2 1.3-3.1 1.8-.7.3-1.5.3-2.2-.2-1.1-.8-2.1-1.8-2.9-2.9-1-1.2-1.8-2.5-2.6-3.9-.7-1.2-1.2-2.5-1.6-3.9-.3-.9-.5-1.8-.7-2.7-.1-.4-.1-.5.4-.4 1.3.3 2.7.1 3.8-.5.4-.2.8-.5 1.1-.9H25.8c-1.3.4-2.6.4-3.9 0-.5-.1-.9-.3-1.4-.6-.3-.2-.3-1.9-.3-4.1-.1.4-.1.8-.1 1.2-.1 1-.1 2.1 0 3.2 0 .2-.1.4-.2.4h-1s-.1 0-.2.1 0 .1.1.2c.4.3.9.6 1.3.9.1.1.2.2.2.3.2 1.2.4 2.3.7 3.4.2.8.5 1.6.9 2.4.4.9.8 1.8 1.4 2.7 1.2 2.1 2.8 3.9 4.7 5.4.9.9 2.2 1 3.3.4 1.3-.7 2.5-1.5 3.6-2.4.5-.3.9-.7 1.3-1.2-.2-.1-.3-.1-.5 0Zm-15-12.5c-.1 0-.1 0-.1-.1v-.1c.1 0 .1 0 .1.2 0-.1 0-.1 0 0 .1 0 .1 0 0 0Z" fill="url(#u)"/><path d="M32.8 82.2c-.7 0-1.4-.2-1.9-.6-.2-.1-.4-.1-.6 0-.2.1-.5.3-.7.1-.4-.3-.7-.1-1 0l-.4.3c-.5.2-1 .3-1.5.4l.9.9c1.7 1.8 4.1 1.2 5.5-.8-.1-.3-.1-.4-.3-.3Zm-3.9 1.4c-.1 0-.3 0-.4-.3 0-.3.2-.2.3-.2.2 0 .3.1.3.2.1.3-.1.3-.2.3Z" fill="url(#v)"/><path d="m94.8 75.7-9-5.5-2.6 5.5h-1.6l7.2-16.1h1.6l7.3 16.1h-2.9Zm.4-1.6-5.6-12.5c-1.1 2.4-2.1 4.7-3.2 7.1l8.8 5.4Z" fill="url(#w)"/><path d="M113.3 59.701h1.6v16.1h-1.6v-16.1Z" fill="url(#x)"/><path d="m145.9 59.701-6.4 16.1H138l-6.5-16.1h1.7l5.6 13.7 5.4-13.7h1.7Z" fill="url(#y)"/><path d="m173.7 75.7-9.1-5.5-2.5 5.5h-1.6l7.2-16.1h1.6l7.3 16.1h-2.9Zm.4-1.6-5.7-12.5c-1.1 2.4-2.1 4.7-3.2 7.1l8.9 5.4Z" fill="url(#z)"/><path d="M156.9 85h-55.7v1h55.7v-1Z" fill="url(#A)"/><path d="M96.6 96.2c-.1.4-.2.8-.4 1.1-.4.1-.8.2-1.3.2-1.3.1-2.5-.9-2.6-2.2V95c0-1.4 1.1-2.6 2.5-2.6h.3c.4 0 .9.1 1.3.2 0 .4.1.7.2 1.1h-.2c-.1-.7-.7-1.2-1.4-1.1-1.1 0-1.9.9-1.9 2v.1c-.1 1.1.7 2.2 1.8 2.3h.1c.8 0 1.1-.4 1.5-1.1l.1.3Z" fill="url(#B)"/><path d="M102.5 95.101c0-.2-.1-.4-.2-.5-.1-.1-.3-.2-.5-.2h-.3v2.3c0 .4 0 .5.5.5v.2h-1.6v-.2c.5 0 .5-.1.5-.5v-2.3h-.4c-.2 0-.4 0-.4.2-.1.2-.1.3-.2.5h-.2v-.9h2.8v.9Z" fill="url(#C)"/><path d="M109.6 94.401c-.4 0-.4.1-.6.6-.2.5-.4 1-.8 2.1-.2.6-.5 1.2-.8 1.8-.2.3-.4.4-.5.4-.2 0-.4-.2-.4-.4 0-.1 0-.2.1-.2.4-.1.7-.4.8-.7.1-.2.2-.3.2-.5v-.2c-.3-.9-.7-1.8-.9-2.4-.1-.3-.3-.5-.6-.5v-.2h1.5v.2h-.2c-.2 0-.2.1-.1.3l.7 1.9c.2-.5.6-1.5.7-1.9.1-.4 0-.3-.2-.3h-.2v-.2h1.3v.2Z" fill="url(#D)"/><path d="M115.6 94.4c-.5 0-.5.1-.5.5v1.9c0 .3 0 .4.3.4h.3l-.1 1.4h-.2l-.1-.6c0-.4-.1-.5-.4-.5h-1.6c-.2 0-.3.1-.4.5l-.1.6h-.2v-1.4h.3c.1 0 .1 0 .2-.1.1-.2.2-.5.3-.8.1-.5.1-1 .2-1.5 0-.2 0-.3-.4-.3h-.2v-.2h2.9l-.3.1Zm-1.1.4c0-.3 0-.3-.3-.3h-.4c-.2 0-.2 0-.2.3 0 .8-.1 1.5-.3 2.3 0 .1 0 .1.1.1h.8c.4 0 .4 0 .4-.4-.1 0-.1-2-.1-2Z" fill="url(#E)"/><path d="M122.5 94.401c-.5 0-.5.1-.5.4v1.9c0 .4 0 .4.5.5v.2H121v-.2c.4 0 .4-.1.4-.5v-2l-1.3 2.5c0 .1-.1.1-.1.2h-1.2v-.2c.4 0 .5-.1.5-.5v-1.7c0-.4 0-.5-.5-.5v-.2h1.5v.2c-.5 0-.5.1-.5.5v2l1.4-2.6v-.2h1.1l.2.2Z" fill="url(#F)"/><path d="M127.5 97.4v-.2c.4 0 .4-.1.4-.6v-.7h-.2c-.2 0-.4.1-.5.2-.1.2-.3.5-.4.7-.2.4-.4.5-.6.5h-.5v-.2c.2 0 .3 0 .4-.2.1-.2.2-.3.3-.5.1-.3.4-.5.7-.6-.6-.1-.9-.4-.9-.8s.5-.9 1.3-.9h1.6v.2c-.4 0-.5 0-.5.5v1.7c0 .5 0 .5.5.5v.2h-1.6v.2Zm.5-2.7c0-.2-.1-.2-.4-.2-.5 0-.8.2-.8.7 0 .2.1.4.3.5.2.1.4.2.6.2h.2v-1.2h.1Z" fill="url(#G)"/><path d="M139 95.701c.5.1.9.3.9.8 0 .8-.9.9-1.6.9h-1.5v-.2c.5 0 .5-.1.5-.6v-1.7c0-.4 0-.5-.5-.5v-.2h1.7c.6 0 1.1.2 1.1.7.1.5-.3.7-.6.8Zm-.6-.1c.4 0 .8-.2.8-.6 0-.4-.3-.6-.7-.6-.4 0-.4 0-.4.2v.9l.3.1Zm-.4 1.1c0 .4.1.5.5.5s.8-.2.8-.7c0-.5-.4-.7-.9-.7h-.4v.9Z" fill="url(#H)"/><path d="M146.7 95.8c.1.9-.6 1.7-1.5 1.8h-.1c-.9 0-1.6-.7-1.6-1.6v-.1c0-.9.7-1.7 1.6-1.7.8-.1 1.6.6 1.6 1.6 0-.1 0-.1 0 0Zm-2.6-.1c0 .9.4 1.6 1 1.6s.8-.3.8-1.3-.3-1.6-1-1.6c-.4 0-.8.4-.8 1.3Z" fill="url(#I)"/><path d="M153.1 94.4c-.5 0-.5.1-.5.5v1.8c0 .4 0 .5.5.5v.2h-1.6v-.2c.5 0 .5-.1.5-.5v-1.9c0-.3 0-.3-.2-.3h-.4c-.2 0-.3 0-.3.3 0 .9-.2 1.8-.6 2.6-.1.2-.2.2-.3.2h-.3v-.1c.3-.2.5-.5.6-.9.2-.5.3-1 .3-1.6 0-.3 0-.4-.5-.4v-.2h2.8Z" fill="url(#J)"/><path d="M159.6 95.8c.1.9-.6 1.7-1.5 1.8h-.1c-.9 0-1.6-.7-1.6-1.6 0-.9.7-1.7 1.6-1.7.9-.2 1.6.5 1.6 1.5 0-.1 0-.1 0 0Zm-2.6-.1c0 .9.4 1.6 1 1.6s.8-.3.8-1.3-.3-1.6-1-1.6c-.3 0-.7.4-.8 1.3Z" fill="url(#K)"/><path d="M165.8 96.801c-.3.4-.8.7-1.3.8-.8 0-1.5-.7-1.5-1.5v-.1c0-.6.3-1.1.7-1.4.3-.2.7-.4 1.1-.4.2 0 .5.1.7.2.1.1.1.1.1.2s-.1.3-.2.3c0 0-.1 0-.1-.1-.2-.2-.5-.3-.7-.3-.5 0-.9.4-.9 1.2-.1.7.4 1.3 1.1 1.4.3 0 .7-.2.9-.4l.1.1Z" fill="url(#L)"/><defs><linearGradient id="t" x1="-.815" y1="79.813" x2="177.118" y2="79.813" gradientUnits="userSpaceOnUse"><stop stop-color="#1C8AE2"/><stop offset=".486" stop-color="#8B00B3"/><stop offset="1" stop-color="#6900B5"/></linearGradient><linearGradient id="a" x1="-.815" y1="84.065" x2="177.117" y2="84.065" gradientUnits="userSpaceOnUse"><stop stop-color="#1C8AE2"/><stop offset=".486" stop-color="#8B00B3"/><stop offset="1" stop-color="#6900B5"/></linearGradient><linearGradient id="c" x1="-.814" y1="86.74" x2="177.118" y2="86.74" gradientUnits="userSpaceOnUse"><stop stop-color="#1C8AE2"/><stop offset=".486" stop-color="#8B00B3"/><stop offset="1" stop-color="#6900B5"/></linearGradient><linearGradient id="d" x1="-.815" y1="85.341" x2="177.118" y2="85.341" gradientUnits="userSpaceOnUse"><stop stop-color="#1C8AE2"/><stop offset=".486" stop-color="#8B00B3"/><stop offset="1" stop-color="#6900B5"/></linearGradient><linearGradient id="e" x1="-.815" y1="83.782" x2="177.116" y2="83.782" gradientUnits="userSpaceOnUse"><stop stop-color="#1C8AE2"/><stop offset=".486" stop-color="#8B00B3"/><stop offset="1" stop-color="#6900B5"/></linearGradient><linearGradient id="f" x1="-.815" y1="82.205" x2="177.116" y2="82.205" gradientUnits="userSpaceOnUse"><stop stop-color="#1C8AE2"/><stop offset=".486" stop-color="#8B00B3"/><stop offset="1" stop-color="#6900B5"/></linearGradient><linearGradient id="g" x1="-.814" y1="80.434" x2="177.118" y2="80.434" gradientUnits="userSpaceOnUse"><stop stop-color="#1C8AE2"/><stop offset=".486" stop-color="#8B00B3"/><stop offset="1" stop-color="#6900B5"/></linearGradient><linearGradient id="h" x1="-.814" y1="85.411" x2="177.118" y2="85.411" gradientUnits="userSpaceOnUse"><stop stop-color="#1C8AE2"/><stop offset=".486" stop-color="#8B00B3"/><stop offset="1" stop-color="#6900B5"/></linearGradient><linearGradient id="i" x1="-.815" y1="85.203" x2="177.117" y2="85.203" gradientUnits="userSpaceOnUse"><stop stop-color="#1C8AE2"/><stop offset=".486" stop-color="#8B00B3"/><stop offset="1" stop-color="#6900B5"/></linearGradient><linearGradient id="j" x1="-.815" y1="85.348" x2="177.117" y2="85.348" gradientUnits="userSpaceOnUse"><stop stop-color="#1C8AE2"/><stop offset=".486" stop-color="#8B00B3"/><stop offset="1" stop-color="#6900B5"/></linearGradient><linearGradient id="k" x1="-.815" y1="84.473" x2="177.117" y2="84.473" gradientUnits="userSpaceOnUse"><stop stop-color="#1C8AE2"/><stop offset=".486" stop-color="#8B00B3"/><stop offset="1" stop-color="#6900B5"/></linearGradient><linearGradient id="l" x1="-.815" y1="82.877" x2="177.117" y2="82.877" gradientUnits="userSpaceOnUse"><stop stop-color="#1C8AE2"/><stop offset=".486" stop-color="#8B00B3"/><stop offset="1" stop-color="#6900B5"/></linearGradient><linearGradient id="m" x1="-.815" y1="80.623" x2="177.117" y2="80.623" gradientUnits="userSpaceOnUse"><stop stop-color="#1C8AE2"/><stop offset=".486" stop-color="#8B00B3"/><stop offset="1" stop-color="#6900B5"/></linearGradient><linearGradient id="n" x1="-.815" y1="77.052" x2="177.117" y2="77.052" gradientUnits="userSpaceOnUse"><stop stop-color="#1C8AE2"/><stop offset=".486" stop-color="#8B00B3"/><stop offset="1" stop-color="#6900B5"/></linearGradient><linearGradient id="o" x1="-.815" y1="72.557" x2="177.118" y2="72.557" gradientUnits="userSpaceOnUse"><stop stop-color="#1C8AE2"/><stop offset=".486" stop-color="#8B00B3"/><stop offset="1" stop-color="#6900B5"/></linearGradient><linearGradient id="p" x1="-.815" y1="67.562" x2="177.117" y2="67.562" gradientUnits="userSpaceOnUse"><stop stop-color="#1C8AE2"/><stop offset=".486" stop-color="#8B00B3"/><stop offset="1" stop-color="#6900B5"/></linearGradient><linearGradient id="q" x1="-.815" y1="62.663" x2="177.117" y2="62.663" gradientUnits="userSpaceOnUse"><stop stop-color="#1C8AE2"/><stop offset=".486" stop-color="#8B00B3"/><stop offset="1" stop-color="#6900B5"/></linearGradient><linearGradient id="r" x1="-.815" y1="96.577" x2="177.117" y2="96.577" gradientUnits="userSpaceOnUse"><stop stop-color="#1C8AE2"/><stop offset=".486" stop-color="#8B00B3"/><stop offset="1" stop-color="#6900B5"/></linearGradient><linearGradient id="s" x1="-.815" y1="79.826" x2="177.117" y2="79.826" gradientUnits="userSpaceOnUse"><stop stop-color="#1C8AE2"/><stop offset=".486" stop-color="#8B00B3"/><stop offset="1" stop-color="#6900B5"/></linearGradient><linearGradient id="b" x1="-.814" y1="90.865" x2="177.117" y2="90.865" gradientUnits="userSpaceOnUse"><stop stop-color="#1C8AE2"/><stop offset=".486" stop-color="#8B00B3"/><stop offset="1" stop-color="#6900B5"/></linearGradient><linearGradient id="u" x1="-.815" y1="77.299" x2="177.117" y2="77.299" gradientUnits="userSpaceOnUse"><stop stop-color="#1C8AE2"/><stop offset=".486" stop-color="#8B00B3"/><stop offset="1" stop-color="#6900B5"/></linearGradient><linearGradient id="v" x1="-.815" y1="82.863" x2="177.118" y2="82.863" gradientUnits="userSpaceOnUse"><stop stop-color="#1C8AE2"/><stop offset=".486" stop-color="#8B00B3"/><stop offset="1" stop-color="#6900B5"/></linearGradient><linearGradient id="w" x1="-.815" y1="67.723" x2="177.117" y2="67.723" gradientUnits="userSpaceOnUse"><stop stop-color="#1C8AE2"/><stop offset=".486" stop-color="#8B00B3"/><stop offset="1" stop-color="#6900B5"/></linearGradient><linearGradient id="x" x1="-.813" y1="67.699" x2="177.116" y2="67.699" gradientUnits="userSpaceOnUse"><stop stop-color="#1C8AE2"/><stop offset=".486" stop-color="#8B00B3"/><stop offset="1" stop-color="#6900B5"/></linearGradient><linearGradient id="y" x1="-.815" y1="67.699" x2="177.117" y2="67.699" gradientUnits="userSpaceOnUse"><stop stop-color="#1C8AE2"/><stop offset=".486" stop-color="#8B00B3"/><stop offset="1" stop-color="#6900B5"/></linearGradient><linearGradient id="z" x1="-.815" y1="67.723" x2="177.117" y2="67.723" gradientUnits="userSpaceOnUse"><stop stop-color="#1C8AE2"/><stop offset=".486" stop-color="#8B00B3"/><stop offset="1" stop-color="#6900B5"/></linearGradient><linearGradient id="A" x1="-.815" y1="85.539" x2="177.117" y2="85.539" gradientUnits="userSpaceOnUse"><stop stop-color="#1C8AE2"/><stop offset=".486" stop-color="#8B00B3"/><stop offset="1" stop-color="#6900B5"/></linearGradient><linearGradient id="B" x1="-.813" y1="95.036" x2="177.116" y2="95.036" gradientUnits="userSpaceOnUse"><stop stop-color="#1C8AE2"/><stop offset=".486" stop-color="#8B00B3"/><stop offset="1" stop-color="#6900B5"/></linearGradient><linearGradient id="C" x1="-.816" y1="95.831" x2="177.119" y2="95.831" gradientUnits="userSpaceOnUse"><stop stop-color="#1C8AE2"/><stop offset=".486" stop-color="#8B00B3"/><stop offset="1" stop-color="#6900B5"/></linearGradient><linearGradient id="D" x1="-.815" y1="96.763" x2="177.117" y2="96.763" gradientUnits="userSpaceOnUse"><stop stop-color="#1C8AE2"/><stop offset=".486" stop-color="#8B00B3"/><stop offset="1" stop-color="#6900B5"/></linearGradient><linearGradient id="E" x1="-.817" y1="96.379" x2="177.118" y2="96.379" gradientUnits="userSpaceOnUse"><stop stop-color="#1C8AE2"/><stop offset=".486" stop-color="#8B00B3"/><stop offset="1" stop-color="#6900B5"/></linearGradient><linearGradient id="F" x1="-.813" y1="95.818" x2="177.116" y2="95.818" gradientUnits="userSpaceOnUse"><stop stop-color="#1C8AE2"/><stop offset=".486" stop-color="#8B00B3"/><stop offset="1" stop-color="#6900B5"/></linearGradient><linearGradient id="G" x1="-.816" y1="95.803" x2="177.118" y2="95.803" gradientUnits="userSpaceOnUse"><stop stop-color="#1C8AE2"/><stop offset=".486" stop-color="#8B00B3"/><stop offset="1" stop-color="#6900B5"/></linearGradient><linearGradient id="H" x1="-.814" y1="95.805" x2="177.117" y2="95.805" gradientUnits="userSpaceOnUse"><stop stop-color="#1C8AE2"/><stop offset=".486" stop-color="#8B00B3"/><stop offset="1" stop-color="#6900B5"/></linearGradient><linearGradient id="I" x1="-.813" y1="95.83" x2="177.117" y2="95.83" gradientUnits="userSpaceOnUse"><stop stop-color="#1C8AE2"/><stop offset=".486" stop-color="#8B00B3"/><stop offset="1" stop-color="#6900B5"/></linearGradient><linearGradient id="J" x1="-.812" y1="95.952" x2="177.117" y2="95.952" gradientUnits="userSpaceOnUse"><stop stop-color="#1C8AE2"/><stop offset=".486" stop-color="#8B00B3"/><stop offset="1" stop-color="#6900B5"/></linearGradient><linearGradient id="K" x1="-.812" y1="95.829" x2="177.117" y2="95.829" gradientUnits="userSpaceOnUse"><stop stop-color="#1C8AE2"/><stop offset=".486" stop-color="#8B00B3"/><stop offset="1" stop-color="#6900B5"/></linearGradient><linearGradient id="L" x1="-.818" y1="95.83" x2="177.117" y2="95.83" gradientUnits="userSpaceOnUse"><stop stop-color="#1C8AE2"/><stop offset=".486" stop-color="#8B00B3"/><stop offset="1" stop-color="#6900B5"/></linearGradient></defs></svg>