<svg width="200" height="155" fill="none" xmlns="http://www.w3.org/2000/svg"><path d="M25.1 111.601h-7.3l-11.2-54v54.1H0v-67.9h10.5L21.7 98l10.7-54.2H43v67.9h-7.1v-54.6l-10.8 54.5Z" fill="url(#a)"/><path d="M50.2 60.2c0-10.4 5.1-17.2 15.5-17.2s15.6 6.8 15.6 17.2v35.1c0 10.3-5.1 17.2-15.6 17.2s-15.5-6.8-15.5-17.1V60.2Zm7.5 35.5c0 6.2 2.6 9.8 8 9.8s8-3.6 8-9.8V59.8c0-6.1-2.5-9.8-8-9.8s-8 3.6-8 9.8v35.9Z" fill="url(#b)"/><path d="M103.7 43.8c10.7 0 15.1 5.4 15.1 15.5v5.5c0 7.5-2.6 12.1-8.4 14 6.2 1.8 8.6 6.9 8.6 14.2v10.601c-.2 2.8.2 5.6 1.4 8.2h-7.8c-1-2.6-1.5-5.4-1.2-8.2v-10.7c0-7.7-3.6-10.1-9.9-10.1h-5.4v29.1h-7.5v-67.9h15.1v-.2Zm-2 32c6 0 9.6-2 9.6-9.3v-6.4c0-6.1-2.1-9.3-7.9-9.3H96v25h5.7Z" fill="url(#c)"/><path d="m134.4 98-2.6 13.701h-7l13-67.9h11l13 67.9h-7.5l-2.6-13.7h-17.3Zm1-6.4h15l-7.6-39.3-7.4 39.3Z" fill="url(#d)"/><path d="M174.4 111.701h-6.8v-67.9h9.6L193 92.9V43.8h6.7v67.9h-7.9l-17.4-54.9v54.9Z" fill="url(#e)"/><defs><linearGradient id="a" x1="-.4" y1="77.742" x2="197.41" y2="77.742" gradientUnits="userSpaceOnUse"><stop stop-color="#1C8AE2"/><stop offset=".486" stop-color="#8B00B3"/><stop offset="1" stop-color="#6900B5"/></linearGradient><linearGradient id="b" x1="-.4" y1="77.741" x2="197.41" y2="77.741" gradientUnits="userSpaceOnUse"><stop stop-color="#1C8AE2"/><stop offset=".486" stop-color="#8B00B3"/><stop offset="1" stop-color="#6900B5"/></linearGradient><linearGradient id="c" x1="-.4" y1="77.742" x2="197.409" y2="77.742" gradientUnits="userSpaceOnUse"><stop stop-color="#1C8AE2"/><stop offset=".486" stop-color="#8B00B3"/><stop offset="1" stop-color="#6900B5"/></linearGradient><linearGradient id="d" x1="-.4" y1="77.742" x2="197.41" y2="77.742" gradientUnits="userSpaceOnUse"><stop stop-color="#1C8AE2"/><stop offset=".486" stop-color="#8B00B3"/><stop offset="1" stop-color="#6900B5"/></linearGradient><linearGradient id="e" x1="-.4" y1="77.742" x2="197.409" y2="77.742" gradientUnits="userSpaceOnUse"><stop stop-color="#1C8AE2"/><stop offset=".486" stop-color="#8B00B3"/><stop offset="1" stop-color="#6900B5"/></linearGradient></defs></svg>