<svg width="100" height="155" fill="none" xmlns="http://www.w3.org/2000/svg"><g clip-path="url(#a)"><path d="M72.544 69.187H67.69a1.86 1.86 0 0 1-1.558-1.374c0-.458.275-.825.642-1.008.458-.091.915.092 1.19.367.275.366.184.916-.183 1.19l-.458.367c.458.366 1.19.275 1.557-.183.367-.367.55-.733.55-1.191l.55-4.122V61.95h-1.558c-.275 0-.458.183-.55.457-.09.184 0 .459.184.642a.279.279 0 0 0 .366 0c.092-.092.184-.275.092-.367 0-.183-.275-.275-.092-.55.458.184.642.459.458.917-.183.366-.64.55-1.007.366h-.092a1.007 1.007 0 0 1-.55-.916c0-.366.275-.733.642-.916.275-.091.64-.183.916-.092h5.22c.276 0 .459 0 .734-.091-.092-.367-.458-.55-.825-.458H68.88c-.366 0-.732-.092-1.099-.183-1.282-.458-1.923-1.924-1.465-3.206 0 0 0-.092.091-.092.458-.733 1.283-1.099 2.199-1.007.732.091 1.282.733 1.374 1.465 0 .733-.459 1.374-1.1 1.557-.64.092-1.19-.274-1.374-.824a.916.916 0 0 1 .733-1.19h.275c.366.09.641.274.733.64 0 .367-.275.642-.55.733h-.55c.275.275.733.367 1.1.092.366-.183.55-.642.458-1.1-.092-.732-.825-1.19-1.466-1.099h-.091c-.825.092-1.466.825-1.374 1.74 0 .917.64 1.741 1.557 1.924 1.465.275 1.832 0 2.015-1.374L72.36 42.44c.275-.641.824-1.19 1.557-1.282h2.107c-.824.458-1.374 1.374-1.282 2.381-.092 1.008-.184 2.015-.367 2.931-.091.642-.091 1.283-.183 1.924l-.641 5.221-.367 3.572c0 .733-.183 1.466-.274 2.29v1.1c.458.183.55 0 .55-.275l.824-6.412c.183-.55.183-1.1 0-1.649 0-.183 0-.275.091-.366a2.523 2.523 0 0 0 0-2.29c.55-.916.641-2.107.367-3.114.55-.458.458-1.1.55-1.74l.182-1.558c.092-1.1 1.008-1.924 2.107-1.832h1.924a2.223 2.223 0 0 0-.733 2.198l1.19 11.175c0 .55.092 1.191.184 1.74.091.733-.458 1.466-1.19 1.558H76.665c-.275 0-.458 0-.733.091-1.007.367-1.557 1.374-1.282 2.474.183.183.366.091.641.091.183 0 .183-.275.183-.458a.95.95 0 0 1 .733-1.1c.733-.274 1.466.093 1.649.825 0 .092 0 .183.091.183.092.275 0 .642-.091.916-.183.642-.183 1.374 0 2.107l.458 4.672c0 .64-.366 1.282-.916 1.557-.275.183-.275.183-.824 0 0-.275.274-.183.366-.275.641-.091 1.008-.733.916-1.282l-.458-4.397c0-.458-.092-.824-.183-1.282-1.1 0-2.29.091-3.39.366l-.64 5.038c-.184.733.183 1.557.915 1.74v.092c-.55.183-1.099-.092-1.282-.55v-.091c-.183-.55-.183-1.1 0-1.557l.55-4.58v-.367c-.184-.183-.275-.091-.55-.091l-.55 2.473-.366 2.931c-.092.55 0 1.19.458 1.557.092-.275.183-.091.183.092Zm4.03-12-1.19-10.35c0 .458-.092.916-.183 1.282-.092.275-.092.55.091.825.183.183.183.366 0 .55-.458.549-.641 1.373-.366 2.014a.564.564 0 0 1-.092.642.99.99 0 0 0-.275.64c-.091.55-.091 1.1-.183 1.558l-.366 3.297-.275 2.29c0 .275.092.275.367.275-.092-.733 0-1.465.457-2.107.55-.458 1.283-.824 2.016-.916Zm.459 0c.274-.091.55-.458.458-.732v-1.1l-.733-5.679-.458-4.671c-.092-.825-.183-1.649-.367-2.382-.183.733-.366 1.558-.274 2.382l.458 4.213.732 6.137c.092.55.092 1.191.184 1.832Zm-1.924 3.756c.458.55 1.19.733 1.74.275.184-.092.275-.275.367-.458.275-.458.183-1.008-.275-1.374-.366-.275-.825-.183-1.1.091-.274.275-.182.642.276 1.008.091.092.091.183 0 .366-.275.092-.642-.091-1.008.092Zm-48.364-2.198c0 .274 0 .64-.091.916-.092.274 0 .458.183.64a.584.584 0 0 0 .55 0c.091-.182 0-.274 0-.366-.092-.64.366-1.19 1.007-1.282h.092c.732-.092 1.374.458 1.465 1.19a.584.584 0 0 1 0 .55 3.13 3.13 0 0 0 0 2.565c.092.733.183 1.466.183 2.198.184.916.275 1.832.184 2.748 0 .733-.642 1.283-1.374 1.283h-.275c0-.183 0-.275.183-.275.824-.275 1.1-.55 1.008-1.374l-.367-3.572c0-.642-.091-1.283-.274-1.924-.55 0-1.1.092-1.65 0a4.446 4.446 0 0 0-1.556 0 7.142 7.142 0 0 0-.275 2.015l-.367 3.115c-.183.732.092 1.465.825 1.832.091 0 .091.091.183.183 0 .275-.275.183-.367.183-.55-.183-1.007-.641-1.007-1.282 0-.458 0-.825.091-1.283l.459-4.03a.782.782 0 0 0 0-.641c-.184-.184-.275 0-.459 0-.091.916-.183 1.832-.274 2.656l-.275 2.656c-.092.55.091 1.191.458 1.558l.183.183H20.15c-.733-.092-1.465-.55-1.649-1.283-.091-.458.092-.916.55-1.19.458-.184.916 0 1.19.366.276.458.184.916-.182 1.282-.092.092-.275.092-.367.275.733.367 1.557.183 1.924-.55.091-.091.091-.183.091-.366l.642-5.038v-.733H20.79a.626.626 0 0 0-.64.642v.091c0 .184.182.367.366.367.183 0 .274 0 .366-.184.091-.183.183-.274 0-.458-.183-.183-.092-.274 0-.366.458.275.641.458.55.916-.184.275-.458.55-.825.55-.458-.092-.733-.458-.824-.916-.092-.55.275-1.1.824-1.191h6.412c-.091-.55-.458-.55-.824-.55h-5.221c-1.374 0-2.474-1.19-2.474-2.565v-.183c.184-1.099 1.191-1.923 2.29-1.832h.184c.732.184 1.282.916 1.282 1.65 0 .64-.55 1.282-1.19 1.373-.55.092-1.1-.275-1.283-.824-.183-.458.091-1.008.55-1.191h.091a.632.632 0 0 1 .916.458c.091.366-.092.733-.458.824-.183.092-.366.092-.55.092.825.458 1.558.092 1.558-.641s-.55-1.283-1.191-1.374h-.367c-.55.091-1.099.55-1.282 1.099-.275.733-.092 1.466.458 2.015a2.145 2.145 0 0 0 1.557.641c.641.092 1.283-.275 1.374-.916.183-.458.183-1.007.275-1.465l.366-3.298.642-4.671.64-5.77c0-.55.184-1.192.276-1.741.091-.916.824-1.557 1.74-1.557h2.015c-1.1.458-1.19 1.374-1.374 2.381l-.55 4.488c-.183 1.008-.183 2.015-.274 3.023l-.367 3.114-.64 5.771v.458c.366.092.549 0 .549-.275l.824-6.87c0-.366 0-.824-.091-1.19-.092-.367.457-.642.366-1.1 0-.457.091-.824-.092-1.282-.091-.183-.091-.366 0-.458.275-.458.458-1.007.458-1.557a1.461 1.461 0 0 0-.183-1.374c.641-.458.458-1.1.641-1.74.183-.642.092-1.1.183-1.65.184-1.007 1.008-1.74 2.016-1.74h1.832v.184c-.825.64-.642 1.557-.55 2.29l1.282 11.541c0 .275 0 .641.092 1.008.183.732-.366 1.374-1.008 1.557h-1.74c-1.008-.092-1.924.275-2.473 1.007 0 .092-.092.092-.183.092a.279.279 0 0 1 0-.367c.183-.457.64-.824 1.099-1.007.275-.092.641-.092.916-.275l-1.19-10.167c-.093.275-.093.641-.184.916-.183.366-.092.824.091 1.19.184.184.184.367 0 .55-.366.458-.55 1.008-.457 1.557a1.6 1.6 0 0 1-.275 1.558v.183c0 .55-.092 1.19-.183 1.74l-.733 5.587c0 .275.091.367.366.275v-1.099c-.183-.183-.275-.55.183-.55Zm2.382-1.558c.366-.183.55-.55.458-.916 0-1.557-.367-3.022-.458-4.58l-.55-5.312c-.183-1.283-.183-2.473-.55-3.756-.183.733-.366 1.558-.274 2.382l1.008 9.068.366 3.114Zm-1.924 3.664c.458.458 1.1.642 1.74.367.55-.275.825-.916.55-1.558-.091-.091-.091-.183-.183-.274-.366-.275-.824-.275-1.1 0a.719.719 0 0 0 0 1.007l.092.092c.092.092.184.183.092.366-.366 0-.733-.091-1.19 0Z" fill="url(#b)"/><path d="M52.484 145.306c0-.825-.183-1.191-1.007-1.466-.824-.275-1.74-.275-2.565.092-.183.091-.366.183-.458.366-.458.458-.275.916.367 1.191.183 0 .091-.275.183-.366 0-.184.183-.275.366-.184h.092c.183.092.183.275.091.458-.183.367-.732.55-1.099.275-.091-.091-.183-.091-.183-.183-.092-.183-.275-.366-.366-.641-.642.733-1.374 1.374-2.29 1.74a4.464 4.464 0 0 1-.642.275c-1.19.183-2.381.183-3.572 0a25.386 25.386 0 0 1-5.22-1.924l-8.977-4.488a35.778 35.778 0 0 0-5.954-2.198 10.83 10.83 0 0 0-4.855-.275 2.596 2.596 0 0 0-1.832 1.099c0 .183.183.183.275.275a.596.596 0 0 1 .183.824c-.183.367-.55.55-.916.458a1.102 1.102 0 0 1-.458-.458c-.366-.641-.183-1.465.458-1.832.275-.275.641-.458 1.1-.824h-1.283c-.916.183-1.924-.183-2.84 0-.366 0-.64 0-1.007-.092a.99.99 0 0 1-.642-1.282c.092-.55.55-.916 1.1-.916.732 0 1.099.366 1.007 1.008 0 .183 0 .274-.183.366a.278.278 0 0 1-.366 0c-.092-.183 0-.275.091-.458.092-.092.092-.092.092-.183-.458-.458-.641-.458-1.283-.092 0 .275.275.092.367.183v.458c-.092.275.092.55.366.642h79.049c.458 0 .642-.184.55-.642-.092-.458 0-.458.275-.732-.184-.367-.55-.275-.825-.275-.274.091-.366.275-.183.549.275.275.183.184.092.275-.092.092-.183.092-.275.092-.183 0-.275-.092-.275-.275-.091-.275 0-.641.183-.824a1.405 1.405 0 0 1 1.466 0c.458.274.641.732.458 1.19-.092.458-.55.733-1.008.825h-4.305a.698.698 0 0 0-.458.183c.367.183.825.458 1.191.733.458.366.641 1.007.458 1.557-.092.366-.275.641-.641.733-.458.091-.825-.275-.916-.733 0-.275 0-.458.183-.641l.367-.367c-.275-.458-.825-.824-1.375-1.007a9.747 9.747 0 0 0-5.13 0c-1.74.458-3.388 1.099-5.037 1.832l-7.053 3.572c-2.29 1.191-4.58 2.107-7.053 2.931-.824.275-1.74.458-2.656.458-.733 0-1.558 0-2.29-.183-.733-.183-1.283-.55-1.832-1.008l-.825-.824c-.091.458-.091.733-.275.733Zm3.573-4.672c-.55.275-.825.825-.825 1.466 0 1.374 1.1 2.473 2.474 2.565 1.374.091 2.564-.733 3.022-2.016.55-1.282.183-2.839-.916-3.755a4.05 4.05 0 0 0-4.488-.55c-2.107.825-3.023 3.206-2.198 5.313 0 .092.091.092.091.183.825 1.741 2.657 2.748 4.489 2.565 1.374-.092 2.748-.366 4.03-1.008 2.565-1.099 5.13-2.29 7.603-3.572.183 0 .366 0 .366-.366-1.008-.275-1.832-1.099-2.198-2.015-.642 1.007-1.65 1.648-2.748 1.74-1.1.091-2.199-.183-3.115-.641v1.282c0 .275 0 .458-.091.733-.55 1.923-2.565 3.023-4.489 2.473-.458-.092-.916-.366-1.282-.641-.824-.55-1.19-1.649-1.007-2.565.183-.824.916-1.557 1.74-1.649.458-.091.916.092 1.1.458.274.275.182.733-.093.916-.091 0-.091.092-.183.092-.366.183-.824.091-1.007-.275v-.092c-.184-.091-.092-.366-.275-.641Zm-25.281.825.458.274c2.748 1.466 5.496 2.748 8.427 3.848 1.374.549 2.84.732 4.213.641 1.191-.092 2.382-.641 3.115-1.557 1.282-1.558 1.282-3.848-.092-5.313-1.1-1.283-2.84-1.74-4.397-1.282-1.831.366-3.022 2.106-2.748 3.938.092.367.184.733.367 1.099.824 1.374 2.656 1.924 4.03 1.1.733-.458 1.19-1.283 1.19-2.107-.09-.367-.182-.825-.457-1.099-.092-.184-.275-.275-.458-.183 0 .183 0 .457-.092.641-.183.366-.733.549-1.099.274-.366-.183-.458-.641-.275-1.007 0 0 0-.092.092-.092.183-.275.55-.458.824-.458 1.191 0 2.199 1.008 2.199 2.199v.366c-.275 1.649-1.832 2.748-3.481 2.565-2.015-.092-3.48-1.741-3.48-3.664 0-.275 0-.458.09-.733v-.275c-2.197 1.099-4.304 1.191-6.045-.916-.274.825-1.19 1.557-2.381 1.741Zm-.733-1.374c-.183.183-.366.458-.183.733.183.274.458.366.733.366.183 0 .458-.092.64-.183 1.1-.642 1.924-1.466 1.741-2.931.183 0 .183.183.458.091.183 0 .367-.275.367-.641-.275.183-.825-.183-.916.366-.55-.274-.55-.275-.916.092 0 .183.091.183.183.275.091.091.091.183 0 .275-.183.091-.275 0-.367 0-.091-.092-.183-.275-.091-.458 0-.184.183-.275.183-.55H21.067c3.022.824 5.862 2.015 8.61 3.389.091-.55-.092-1.191.64-1.282.276 0 .459.183.55.458-.274.091-.55.091-.824 0Zm41.128.824c2.747-1.374 5.679-2.473 8.61-3.297H68.972c0 .183.183.274.183.458.092.091.092.274 0 .458-.091.183-.183.274-.366.183-.183-.092-.275-.275-.092-.458.184-.183.184-.184.184-.275-.642-.367-.916-.183-1.008.458-.092.549.183 1.191.55 1.557.366.55.916 1.008 1.557 1.191.366.091.733 0 .916-.366.183-.275 0-.459-.183-.642l-.184.092c-.091.091-.274.183-.366 0-.092-.092-.092-.183-.092-.275.092-.183.184-.275.367-.275s.366.092.458.184c.183.091.183.457.275 1.007Zm-32.7-2.839v.183c.09.183-.001.458-.184.549-.092.092-.275 0-.367 0-.091-.091-.183-.275-.091-.458 0-.183.183-.274.091-.641h-2.84c.093.183.276.367.367.55.092.183-.091.641-.274.641-.184 0-.367-.183-.367-.458v-.183c0-.092-.183-.367-.458-.275-.55.091-.824.641-.733 1.191 0 .091.092.275.184.366.274.367.55.55.916.733a6.06 6.06 0 0 0 3.114.275c.641-.092 1.19-.367 1.557-.916.275-.367.366-.916.092-1.283-.275-.458-.458-.549-1.008-.274Zm23.998-.458.275.549c.091.275 0 .641-.275.641-.275.092-.367 0-.458-.458-.092-.458-.183-.458-.55-.274-.458.183-.733.732-.55 1.19 0 .092.092.184.092.184.183.274.458.549.733.732a5.267 5.267 0 0 0 4.397 0c.366-.183.64-.458.824-.824.183-.458 0-1.008-.458-1.282-.091 0-.183-.092-.275-.092-.183 0-.366.092-.366.183v.458c0 .275-.275.275-.55.183-.183-.183-.275-.458-.183-.641 0-.183.275-.275.183-.458l-2.84-.091Zm-13.831.274c-.825 0-1.1.458-.825 1.1.092.274.366.457.641.641.825.458 1.74.549 2.657.366a3.009 3.009 0 0 0 1.465-.641.874.874 0 0 0 .275-1.099c-.183-.367-.367-.367-.916-.275v.183c0 .275 0 .458-.275.458a.394.394 0 0 1-.366-.366v-.092c0-.183.183-.275.183-.458h-2.382c0 .275.367.55.184.825-.092.091-.275.183-.367.091-.274-.183-.183-.458-.274-.733Zm3.48 5.771c-.366-1.191-.275-2.565.366-3.664-1.282.733-2.93.824-4.213.092.458 1.19.55 2.473.275 3.664 1.1-.642 2.473-.642 3.572-.092Zm6.87-6.045c.55.458 1.1.732 1.557 1.282 0-.458.275-1.008.733-1.282h-2.29Zm-18.87 1.282 1.741-1.282a11.115 11.115 0 0 0-2.473 0c.366.366.641.824.733 1.282Zm7.97-1.282h-2.382c.641.458 1.283.916 1.832 1.374-.183-.458 0-1.008.55-1.374Zm5.22 1.374 1.833-1.283h-2.29c.183.275.366.825.458 1.283Zm14.107-.642c.092-.275.275-.366.275-.732a1.266 1.266 0 0 0-.825 0c.092.274.275.549.55.732ZM58.988 32.365a2.067 2.067 0 0 1 1.19-1.557c0-.275-.09-.458-.182-.64-.55.182-.916-.276-1.466-.276-.55 0-1.008-.091-1.557-.183-.183 0-.458-.092-.55-.275a1.349 1.349 0 0 0-1.557-.55c-.458.092-1.007.275-1.374.55.183.458.641.825 1.19.825.825 0 1.558.55 1.833 1.282-.367.183-.733.092-1.008-.183-.274-.275-.64-.458-1.007-.458-.367 0-.733-.183-1.1-.366-.274-.275-.64-.275-1.007-.092a1.59 1.59 0 0 1-1.282.275c.183.64.55 1.282 1.099 1.74-.092.275-.275.366-.458.183-.641-.824-1.466-1.374-2.107-2.198-.458-.366-.916-.641-1.466-.825-.458-.091-.916 0-1.282.367-.458.275-.824.641-1.008 1.099a.689.689 0 0 1-.64.458c-.825 0-1.1.641-1.558 1.008-.183.183-.366.458-.733.458l.642-1.374c.091-.092.183-.275.274-.275.55-.275.733-.733.916-1.374l-1.19.641c-.916.458-1.74 1.19-2.657 1.557-.366.092-.55.275-.366.733-.367 0-.733.183-1.008 0-.275-.275-.733-.275-1.099 0s-.733.458-1.19.092c-.184-.184-.459 0-.642.183-.366.458-1.007.641-1.374 1.099-.183.183-.458.275-.641.092l-.092-.092c-.458-.458-.916-.458-1.465-.275-.641.275-1.374.458-2.107.641-.183 0-.275.092-.366.184-.55.458-1.283.64-2.015.64 0-.182.091-.457.274-.457.916-.458 1.924-1.008 2.748-1.557.458-.275.825-.458 1.283-.733.274-.092.458-.183.64-.367.184-.183.367-.274.55-.274.916-.275 1.74-.825 2.382-1.466.458-.275.824-.55 1.374-.733.916-.458 1.649-1.19 2.565-1.74l2.748-1.557c.916-.458 1.74-1.1 2.564-1.649.825-.641 1.74-1.008 2.473-1.649.184-.091.367-.091.459 0a2.84 2.84 0 0 1 1.19.55c.458.366.916.733 1.466.916a1.406 1.406 0 0 0 1.465 0c.367-.275.733 0 1.1.183l2.381 1.557c.458.366 1.008.641 1.557 1.008.641.458 1.374.916 2.199 1.282.916.55 1.923 1.1 2.93 1.557.184 0 .459.092.55.367 0 .183-.091.274-.274.366-.367.183-.825.366-1.1.641-.183.183-.458.275-.732.092-.642-.183-1.374 0-1.832.458-.184.091-.275.275-.458.366l-.092-.275Zm.641 5.588c0 .183 0 .275-.183.275a1.882 1.882 0 0 1-1.008 0c-.366-.092-.732-.092-1.19 0a15.16 15.16 0 0 1-2.931.274c-.459 0-.916-.183-1.374-.183-.916.092-1.832.092-2.657 0-1.007-.183-2.015.092-3.023-.183h-.183c-.824.458-1.74-.092-2.656.275-.183 0-.458 0-.641-.092a1.011 1.011 0 0 0-.733 0c-.275.092-.458.092-.733.092-2.748-.092-5.404.275-8.152.183a26.962 26.962 0 0 0-3.847 0c-1.374.092-2.748-.092-4.214 0l.733-.366 1.924-1.008c.64-.366 1.465-.55 2.198-.824l1.557-.733c.458-.275 1.1-.183 1.557.092 1.1.64 1.008.64 2.016-.092l.091-.092c.367-.55.916-.824 1.557-.732.275 0 .458-.092.733-.184a1.27 1.27 0 0 1 .825 0l2.198.825c.55.275 1.099.458 1.74.458.458.091.916.183 1.283.366a4.856 4.856 0 0 0 3.022.183c.184-.091.367-.091.458 0 .825.367 1.649.733 2.565 1.008.916.366 1.832.458 2.748.366.275 0 .458 0 .733.092.458.183.916.275 1.374.183h1.832c.733 0 1.374 0 2.106.092.092-.367.275-.367.275-.275Zm-9.8 18.136h-4.855c-1.283-.091-1.832-.55-2.016-1.557-.091-.458.184-1.007.642-1.099h.458c.55.092.824.55.824 1.008a.7.7 0 0 1-.183.457c-.183.184-.458.275-.55.458.641.367 1.466.184 1.832-.366.092-.183.183-.366.183-.458.092-.916.092-1.923 0-2.84-.091-.732-.824-1.282-1.557-1.282h-1.649c-.824 0-1.557.733-1.465 1.649 0 .183.091.458.183.641s.183.366 0 .55c-.458.64-.092 1.374-.183 2.015 0 .091 0 .183.091.275.184.183.184.55 0 .824-.274.733-.274 1.557-.091 2.382.091.183.091.458 0 .732-.092.55-.092 1.008-.092 1.558v1.007H36.73c.366-.458.916-.091 1.19-.458V56.09h-1.007c.733-.366 1.19-1.282 1.008-2.106v-2.107c-.092-.825.55-1.649 1.373-1.74h2.107c0 .274-.183.274-.275.366-.366.366-.55.824-.55 1.282v9.435c0 .275 0 .641.459.55a4.187 4.187 0 0 0-.183-2.382c-.092-.183-.092-.367 0-.458a2.717 2.717 0 0 0 0-2.382.782.782 0 0 1 0-.64c.274-.734.366-1.558.183-2.29 0-.276-.183-.55 0-.825.091-.275.092-.55.092-.825 0-1.007.824-1.831 1.831-1.831H47.172c.916 0 1.74.732 1.832 1.648V53.8c0 .642 0 1.74.916 2.29h-.092Z" fill="url(#c)"/><path d="M51.66 62.134c0-.275.183-.275.275-.367l1.099-.274v-5.404c-.275-.275-.641 0-.916-.184.733-.366 1.1-1.19 1.008-2.015V51.6c0-.824.64-1.557 1.465-1.649h2.015c0 .275-.183.275-.275.367-.366.275-.55.733-.55 1.282v9.893c0 .091.276 0 .367 0 0-.092.092-.183.092-.183v-1.466c.091-.092.091-.275 0-.458-.183-.183-.275-.458-.092-.641l.092-.092v-.274c-.092-.733.275-1.466-.275-2.107a.584.584 0 0 1 0-.55 3.813 3.813 0 0 0 0-2.473c0-.092-.092-.275 0-.366.275-.275.183-.733.183-1.1 0-1.007.825-1.832 1.832-1.832h4.214c.824-.091 1.648.458 1.74 1.374v2.657c-.091.824.275 1.648 1.008 2.015h-5.496c-.641-.092-1.191-.55-1.466-1.1-.183-.457-.091-.915.275-1.19.275-.367.825-.367 1.19 0 .367.275.459.733.367 1.1-.091.365-.458.457-.733.732 1.283.275 2.016-.183 2.016-1.466v-2.015c0-.824-.733-1.557-1.558-1.557H57.89c-.825 0-1.558.733-1.558 1.649 0 .183.092.458.184.64.091.276.091.55 0 .825-.275.733-.275 1.557.091 2.199a.443.443 0 0 1 0 .64 1.767 1.767 0 0 0-.275.917c0 .55-.183 1.099.184 1.557v.183c-.458.641-.184 1.374-.275 2.107v.824c-1.74.184-3.48-.091-5.13.183l.55-.091Zm1.282-25.556a4.935 4.935 0 0 1 1.924-.733c.275-.091.641-.183.824-.458.183-.183.367-.183.55-.183.916 0 1.74-.366 2.381-1.007.458-.458 1.008-.825 1.558-1.191.458-.275.916-.367 1.373-.275.642.183 1.374-.092 1.833-.55a3.647 3.647 0 0 1 1.923-.824c.275 0 .55-.183.55-.458 0-.366.366-.458.64-.641.642.275 1.192.641 1.741 1.007l1.374.825c.367.183.641.458.916.824a.938.938 0 0 0 .55.458 3.848 3.848 0 0 1 2.29 1.1c.64.549 1.465.824 2.106 1.373.642.55 1.283.458 1.833.825.183.091.274.091.366.274-.183.184-.275 0-.458 0-.55-.366-1.191-.55-1.832-.64a2.742 2.742 0 0 1-.733-.367 6.589 6.589 0 0 0-1.923-1.1c-.275-.09-.459-.274-.642-.457-.275-.275-.732-.367-1.099-.367-.183.275 0 .458.183.55.733.641 1.466 1.1 2.382 1.374.183.092.366.092.458.183.091.092.183.183.183.367-.183.183-.275 0-.458 0s-.458-.275-.733-.184c-.091 0-.274 0-.366-.091-.458-.367-1.008-.642-1.557-.916a6.075 6.075 0 0 0-1.74-.825c-.184 0-.367-.091-.459.184a.44.44 0 0 0 .184.55c.274.182.55.274.824.549.275.275.458.275.366.64a.279.279 0 0 1-.366 0c-.366-.274-.733-.365-1.1-.457a.826.826 0 0 1-.549-.55c-.183-.366-.55-.274-.824-.366-.275-.092-.55.091-.825.275-.274.183-.824.824-1.465.824-.183 0-.275.183-.367.275-.183.183-.366.458-.55.55-.274-.092-.274-.275-.09-.459.274-.366.274-.824 0-1.099-1.1.458-2.199.916-3.298 1.283 0-.642.733-.733.824-1.283-.824 0-1.649.367-2.29.916-.458.55-1.19.733-1.74.458-.55-.091-1.008-.091-1.557-.091-.367.091-.733.091-1.191 0-.366-.184-.641.091-1.008 0-.274 0-.64 0-.916-.092Z" fill="url(#d)"/><path d="M61.736 43.997c-.274.458-.824.366-1.282.366-.366 0-.733-.091-1.19-.183a.782.782 0 0 0-.642 0l-2.84 1.19c.55.184 1.191.367 1.74.459l4.672 1.19a6.939 6.939 0 0 0 2.748 0c.825-.09 1.466-.549 1.832-1.282.458-.732.275-1.74-.458-2.198-.091-.092-.183-.092-.275-.183a4.047 4.047 0 0 0-1.465-.55c-.092 0-.275 0-.275-.183.55-.183 1.1.183 1.557 0 .55.458 1.374.733 1.557 1.557.275.641.092 1.466-.366 2.015-.55.733-1.374 1.191-2.198 1.283-1.191.183-2.382.091-3.573-.184-2.015-.457-4.03-1.19-5.953-1.74-.275-.091-.55-.091-.733 0-.55.183-1.1.275-1.74.183a.394.394 0 0 1-.367-.366c0-.183 0-.275.275-.367-.092.367 0 .642.458.55.366 0 .824-.091 1.099-.366-.55-.183-1.008-.184-1.557-.184a.712.712 0 0 1 .733-.183c.366.092.824 0 1.19.184.275.091.458 0 .733-.092l2.84-1.282-2.382-.825c-.733-.183-1.557-.366-2.29-.366-.916-.092-1.74.091-2.565.55.092.183.184.274.275.457.641.733.825 1.74.641 2.657a1.675 1.675 0 0 1-1.374 1.19c-.55-.183-1.007-.64-1.099-1.19-.183-.916 0-1.832.641-2.657.092-.091.184-.274.184-.366 0-.275-.275-.275-.458-.366-.642-.184-1.374-.275-2.107-.184-1.557.275-3.114.733-4.58 1.283l3.023 1.374c.275.091.55.091.733 0 .55-.092 1.007-.183 1.557-.092.275 0 .458.183.458.367v.091c0 .275-.183.366-.458.366-.55.092-1.1 0-1.557-.183a1.168 1.168 0 0 0-1.1 0c-2.198.733-4.488 1.374-6.87 1.832-1.099.183-2.198.183-3.205-.183a3.58 3.58 0 0 1-1.558-1.282c-.55-1.008-.274-2.29.733-2.84.183-.091.275-.183.458-.183.55-.275 1.191-.366 1.74-.183-.366.091-.824.275-1.19.366-1.008.183-1.649 1.1-1.466 2.015 0 .184.092.458.183.641.367.642 1.008 1.008 1.74 1.191.825.092 1.65.092 2.474 0 1.465-.274 2.931-.55 4.305-1.007.641-.183 1.374-.367 2.015-.642 0 0 .092-.091 0-.183-.091-.091-.091 0-.183 0-.55-.458-1.19-.732-1.832-.916h-.275c-.366-.55-.824-.274-1.282-.274h-1.832c-.275-.092-.55-.275-.641-.642 0-.274.274-.458.64-.55.642-.09 1.283 0 1.833.276.366.183.824.183 1.282 0l3.939-1.1c.824-.183 1.649-.183 2.473-.091.366.091.733.275 1.008.458a.584.584 0 0 0 .55 0c.915-.55 2.106-.733 3.114-.367 1.465.275 2.84.642 4.305 1.191.55.183.64.092.916-.275.183.092.458.092.733 0 .457-.091.824-.183 1.282-.183.183 0 .458 0 .641.183.366.275.366.458-.092.733l.092-.366a1.671 1.671 0 0 0-2.015.274c.275.184.641.092 1.007.184.184.275.55.091.916.183Zm-10.991-.55a2.926 2.926 0 0 0-1.008 2.199c0 .55.366 1.007.916 1.007h.092c.55 0 .916-.366.916-1.099-.092-.824-.367-1.557-.916-2.107Zm-11.358.183c.64.459 1.465.459 2.198.092-.733-.275-1.374-.641-2.199-.092Zm7.877 1.924c.458.183.916.55 1.374 0-.55-.458-1.008 0-1.557 0h.183Zm-6.87 32.517c-.183-.091-.275 0-.458.092-.916.367-1.923 0-2.29-.824 0-.092-.092-.092-.092-.183-.091-.184-.091-.459-.274-.642-.184-.183-.367.092-.55.184-1.374.55-3.023-.092-3.572-1.466-.092-.183-.092-.367-.183-.55-.092-.275.091-.55.366-.64.458.09.458.457.458.824 0 .915.55 1.648 1.466 1.832.732.091 1.465-.092 2.015-.55.274-.275.366-.733.091-1.1-.183-.183-.366-.274-.458-.549-.091-.275.184-.091.184-.091.732.091 1.373-.092 2.015-.458 1.282-.458 2.748.091 3.389 1.282.183.275.275.55.366.824.458.092.916 0 1.374 0l-.733.825c-.274.275-.366.64-.274 1.099a1.6 1.6 0 0 1 1.557-.275c-.55.092-1.1.458-1.466.825-.275 0-.091-.275-.275-.275-.183 0-.183.091-.274.183-.275.458-.55.916-1.008 1.282-.641.641-1.465 1.008-2.382 1.1a5.714 5.714 0 0 1-4.488-1.466 73.193 73.193 0 0 1-4.03-3.48c-1.008-1.008-2.382-1.833-3.756-2.29-.824-.184-1.648-.092-2.381.366-.641.274-1.008 1.007-.916 1.74.366-.183.824-.367 1.19-.641.733-.275 1.1-.275 1.558.183.458.458.458 1.1.183 1.557-.458.825-1.557 1.1-2.382.641-.183-.091-.366-.275-.55-.458-.09-.275-.274-.458-.457-.64h-.092c-.274 0-.458.274-.824.182-.366-.091-.458.184-.733.275-.458.183-1.007.183-1.374-.183-.55-.367-.824-.916-.733-1.557.092-.733.55-1.374 1.283-1.557a9.034 9.034 0 0 1 2.198-.275c1.008 0 2.107 0 3.114-.183a6.157 6.157 0 0 1 3.94 1.099 21.729 21.729 0 0 1 2.747 2.107l1.74 1.557c.092.091.275.275.458.275 1.1 1.373 2.931 2.198 4.672 2.015 1.282-.092 2.29-.916 2.84-2.016.457-1.007.366-2.29-.367-3.114-.55-.733-1.557-1.099-2.473-.916-.825.183-1.466.733-1.832 1.557.366 0 .733-.091 1.008-.275.55-.183 1.19-.091 1.557.367.458.366.55 1.008.366 1.557-.092.275-.275.458-.275.825h-.183Zm-18.32-2.564c.367 0 0 .458.367.55h.458a.394.394 0 0 0 .366-.367v-.092c0-.64.275-1.282.825-1.74.091-.092.091-.183 0-.275-1.008-.091-2.015-.091-3.023.092-.825.091-1.466.916-1.374 1.74v.183c.091.458.458.916.916 1.1.366.183.824 0 1.007-.275-.274-.183-.457-.275-.457-.642 0-.366 0-.458.274-.55.275-.09.55 0 .55.367-.275-.183-.55-.275-.733.183.092.184.275.367.55.367.274-.183.274-.367.274-.641Zm18.229 1.19c0-.64-.459-1.099-1.008-1.19h-.092c-.55 0-1.374.458-1.374.824 0 .825.55 1.466 1.374 1.557.55.092 1.1-.458 1.1-1.19 0 .091 0 .091 0 0Zm-14.198-1.099c-.55.367-.825 0-1.191-.275l-1.008.55c-.183.092-.274.275-.183.458.367.55 1.008.916 1.649.733.366-.092.641-.275.733-.641.275-.183.183-.55 0-.825Zm42.135.275c.275.092.458-.092.641-.275a16.198 16.198 0 0 1 2.015-1.465c1.191-.733 2.473-1.1 3.847-.916.916.091 1.924.091 2.84.091.641 0 1.19.092 1.832.184 1.007.091 1.832.915 1.74 2.015v.183c-.091.916-1.374 1.832-2.198 1.1-.458-.367-1.008-.276-1.557-.459-.275.275-.458.733-.825 1.008-.55.366-1.282.458-1.832.183-.55-.183-.916-.825-.824-1.374 0-.458.275-.825.641-1.1.458-.274.916-.183 1.282.184-.366 0-.274.458-.55.641-.274.183-.457 0-.732 0-.275.367-.183.916.183 1.19.092 0 .092.093.183.093.733.366 1.558 0 1.924-.733.092-.092.092-.275.092-.367a1.28 1.28 0 0 0-.275-1.374c-.367-.458-.825-.824-1.466-.916-1.099-.183-2.198 0-3.114.642-.275.183-.55.274-.825.458-.183.091-.274.183-.091.457-.366 0-.733.092-1.008.459l-4.03 3.572c-.55.366-1.1.733-1.74 1.007a4.721 4.721 0 0 1-4.672 0 4.142 4.142 0 0 1-1.832-2.106c-.366-.825-.824-1.558-1.465-2.107h.733c.366.183.732 0 .916-.275 0-.092.091-.092.091-.183.183-.458.55-.916.916-1.19.641-.642 1.649-.825 2.565-.459.732.367 1.557.458 2.381.367-.183.458-.64.55-.824 1.007-.183.458 0 .641.366.825.458.274 1.008.458 1.558.458a1.95 1.95 0 0 0 1.74-1.74c0-.367 0-.734.458-1.008.275.183.458.274.366.732-.091.458-.275 1.008-.641 1.374-.092.092-.183.184-.183.367-.183 0-.275 0-.458.183-.825.55-1.832.55-2.657.092-.183 0-.274-.184-.457-.092-.184.091-.092.275-.092.458-.092.458-.458.916-.824 1.19-.458.367-1.008.367-1.466.092-.55-.183-.824-.733-.916-1.282-.092-.825.641-1.649 1.466-1.649.183 0 .457 0 .64.092.276.183.55.274.917.274-.367-.915-1.191-1.465-2.107-1.557-1.465-.091-2.656 1.008-2.748 2.474v.091c-.092 1.832 1.374 3.48 3.206 3.572 1.282 0 2.473-.366 3.48-1.19.092-.092.184-.184.092-.275.367.091.642-.183.733-.55v-.091c.092 0 .183 0 .183-.183.183.091.367 0 .458-.092l1.924-1.74c.092-.092.183-.184.183-.367h-.183Zm10.076.275v-.55c.091-.275.366-.458.64-.366h.092c.275.091.367.275.275.55 0 .091 0 .091-.091.183-.092.183-.275.366-.458.55 1.19.457 2.015 0 1.923-1.283 0-.825-.641-1.466-1.465-1.557-.825-.092-1.65-.183-2.474-.183-.183 0-.274 0-.366.183.641.458.916 1.19.916 1.923 0 .183.092.367.275.367l.733.183Zm-16.854-.458c-.458-.092-.916.183-1.1.641-.183.55-.091 1.19.367 1.557.366.275.916.367 1.282.092.55-.367.825-.916.825-1.557-.184-.55-.733-.55-1.191-.642l-.183-.091Zm17.312.458c.274-.183.64-.183.458-.55 0-.091-.184-.183-.275-.183h-.092c-.366.275-.458.366-.091.733ZM41.402 62.225c.091.275.183.55.091.824v4.214c-.091.824.55 1.465 1.374 1.557h1.741c.824 0 1.557-.733 1.557-1.557v-3.39c0-.732-.55-1.373-1.374-1.465-.275 0-.458 0-.641.183.274.275.732.458.732.916.092.367-.183.733-.458.916-.366.275-.733.275-1.099 0-.366-.274-.458-.64-.366-1.007.183-.825.916-1.374 1.832-1.374h5.22l-.457.458c-.367.275-.55.733-.458 1.19v3.756c0 .366-.092.641-.183 1.008-.183.55-.825.916-1.374.824H43.05c-.732.092-1.374-.275-1.557-.916-.183-.366-.183-.733-.275-1.007v-4.123c-.183-.549-.274-.915.184-1.007Z" fill="url(#e)"/><path d="m65.033 61.95-.183.275c-.55.367-.825.916-.733 1.558v3.48c0 .275 0 .642-.183.916-.184.55-.733.916-1.283.916h-4.58c-.824.092-1.648-.55-1.74-1.465V62.5c0-.183.092-.275.366-.275.092.275.092.55 0 .825v4.122c-.091.733.458 1.465 1.191 1.557h1.924c.64 0 1.282-.458 1.465-1.1.092-.274.092-.64.184-.915v-2.382c0-.274-.092-.64-.184-.916-.183-.732-1.007-1.19-1.74-1.007-.092 0-.275.091-.367.183.184.092.275.183.367.275.458.274.55.824.275 1.19-.092.092-.092.184-.183.184a1.034 1.034 0 0 1-1.008.274c-.458-.183-.641-.64-.641-1.099.183-.916.916-1.557 1.832-1.557l5.22.092Zm12.732-3.663h1.1a1.95 1.95 0 0 1 1.74 1.74l.366 3.39.275 3.297c0 .916.274 1.832 1.007 2.473h-2.29c-.733 0-.916-.641-1.19-1.19-.092-.55-.184-1.1-.184-1.741l-.458-4.214c0-.275.092-.458.275-.64.366-.367.55-.917.458-1.375.092-.55-.275-1.19-.824-1.465l-.275-.275Zm-43.234 10.9h-1.924c-.916 0-1.649-.641-1.74-1.557l-.55-5.221c-.091-.458 0-1.008.367-1.374.55-.733.457-1.832-.275-2.473-.183-.092-.275-.275-.458-.367.732-.092 1.465 0 2.106.367.275.183.459.458.55.732l.275 1.74.733 6.687c0 .275.183.55.366.733l.55.733Zm21.067-6.962c.092.092.183.275.092.367v4.855c.091.55-.183 1.099-.641 1.373-.184.184-.458.184-.642.275h-2.29c.733-.458 1.1-1.282.916-2.106v-4.03c-.64-.184-1.374 0-1.923.457.183.092.458.092.55.275.183.183.183.458.091.641-.091.184-.366.367-.641.275-.275 0-.458-.183-.458-.458a1.64 1.64 0 0 1 1.1-1.924c.457-.091.823-.183 1.281-.183l2.565.183Zm-17.77.733c-.733-.183-1.374 0-1.923.458.183.184.458 0 .64.183.184.184.276.367.184.642-.092.274-.366.458-.641.366-.275 0-.367-.275-.458-.458-.183-.824.366-1.649 1.19-1.832 1.191-.183 2.382-.183 3.573-.092.183.184.091.367.091.55v4.58c.092.824-.55 1.649-1.373 1.74h-1.924v-.183c.55-.458.733-1.19.641-1.832v-3.572a.584.584 0 0 0 0-.55ZM15.57 116.91v5.13a3.455 3.455 0 0 1-1.374 0v-2.015c-.367.091-.641.366-.825.641-.274.275-.457.275-.64 0l-.825-.733c-.183.641 0 1.374-.092 2.015a3.455 3.455 0 0 1-1.374 0v-5.221c.275-.091.55 0 .733.183l1.832 2.016 1.19-1.283c.276-.275.459-.458.642-.733.183-.274.458-.274.733 0Zm59.905-10.075v2.198c.275 0 .366 0 .458-.183l1.832-1.741.275-.274c.091-.092.55-.092.64.274v4.672c0 .092 0 .275-.09.275a3.492 3.492 0 0 1-1.375 0c.183-.733.183-1.466 0-2.107-.275-.092-.275.092-.458.183l-1.923 1.832c-.183.183-.275.275-.458.275-.183-.092-.275-.275-.275-.55v-4.396c0-.458 0-.55.458-.55.275-.092.641-.092.916.092ZM48.087 129.55c.092 1.374-.916 2.565-2.29 2.748h-.458c-1.557-.092-2.656-1.466-2.564-3.023a2.759 2.759 0 0 1 2.564-2.565c1.374-.183 2.657.825 2.84 2.199 0 .183 0 .366-.092.641Zm-3.939 0c-.091.733.458 1.282 1.191 1.374h.183c.733 0 1.283-.641 1.283-1.374.091-.733-.458-1.374-1.191-1.466h-.183c-.825 0-1.283.458-1.283 1.466Zm-8.243-2.748h2.106c.825-.183 1.65.458 1.832 1.282.092.367 0 .825-.275 1.191v.183c.459.367.642.916.459 1.466-.092.733-.825 1.282-1.558 1.282h-2.381c-.275-1.832-.275-3.664-.183-5.404Zm1.282 4.03c.458.092.916.092 1.374 0 0-.824-.275-.916-1.374-.641v.641Zm0-2.015c.092.092.275.183.458.092h.275c.275 0 .458-.183.458-.458s-.183-.367-.458-.458c-.55-.092-.733.091-.733.824Zm-15.297-9.251-2.198 2.107c-.367.366-.367.366-.916.274v-5.221h.733c.732 0 .732 0 .732.641v1.741c.275.091.367 0 .458-.183l1.832-1.832a.738.738 0 0 1 .825-.275v5.221c-.367.183-.916 0-1.374.183-.183-.824 0-1.649-.092-2.656Zm8.702-7.603v-5.221a13.714 13.714 0 0 1 2.748 0 1.641 1.641 0 0 1 1.1 1.924c0 .091 0 .091-.093.183l-.183.366c.275.275.458.641.458 1.008.183.824-.458 1.649-1.282 1.832h-.275c-.733.091-1.649.091-2.473-.092Zm1.374-1.191h1.008c.183 0 .458-.183.458-.366v-.092a.394.394 0 0 0-.367-.366h-.091a1.873 1.873 0 0 0-1.008 0 1.27 1.27 0 0 0 0 .824Zm0-2.015h.824a.394.394 0 0 0 .367-.366c0-.275-.092-.366-.275-.458a1.554 1.554 0 0 0-.916 0 1.27 1.27 0 0 0 0 .824Zm-2.29 9.893c.092-.55 0-1.191.092-1.741a3.492 3.492 0 0 1 1.374 0v5.222c-.458.183-.825 0-1.283.091-.183-.733 0-1.374-.183-2.107H28.21c-.183.642 0 1.283-.091 2.016a3.492 3.492 0 0 1-1.374 0v-5.222a3.492 3.492 0 0 1 1.374 0v1.283c0 .366.091.733.641.549.55-.183.55.092.916-.091Zm26.105 12.366v1.557c-.274.183-.64.183-1.007.183-.183-.183-.092-.366-.275-.55h-2.84c-.183.092-.091.275-.274.367h-.916v-1.557c.458 0 .64-.275.733-.642l1.373-3.297c.092-.275.275-.366.55-.458.275 0 .275.183.367.458l1.373 3.114c.275.367.459.733.916.825Zm-2.748-1.741c-.366.458-.55 1.099-.55 1.649.367-.092.825.092 1.192 0-.092-.641-.275-1.191-.642-1.649Zm-10.625-17.403c-.55.183-1.1.183-1.557 0-.183 0-.183-.275-.275-.367l-.733-1.282c-.091-.183-.183-.275-.366-.183-.183.091-.275.183-.275.366v1.282c0 .367-.183.458-.458.458-.366 0-.641 0-.916-.183v-5.129a3.455 3.455 0 0 1 1.374 0v1.74c.825.183 1.282-.092 1.374-.824 0-.275.092-.642.183-.916a3.014 3.014 0 0 1 1.283 0c.274 1.007-.184 2.106-1.008 2.748l1.374 2.29Zm28.67 10.167a3.455 3.455 0 0 1-1.374 0v-5.221a3.014 3.014 0 0 1 1.283 0c.183.641 0 1.191.091 1.74.55.183 1.008.183 1.557.092v-1.832a3.455 3.455 0 0 1 1.374 0v5.221a3.455 3.455 0 0 1-1.374 0v-2.015a4.427 4.427 0 0 0-1.557 0v2.015ZM18.96 109.49l1.465 2.29c-.183.275-.457.183-.732.275-.458.091-.916-.092-1.1-.55-.183-.458-.457-.824-.732-1.191-.092-.183-.183-.366-.367-.274-.274.091-.183.274-.183.458v1.557a3.492 3.492 0 0 1-1.374 0v-5.221c.183-.184.367 0 .642-.092h.64c.275.641 0 1.282.184 1.924.641 0 1.007 0 1.19-.458.092-.458.184-.916.184-1.374l.183-.092c1.282 0 1.282 0 1.19 1.191-.274.549-.366.641-1.19 1.557Z" fill="url(#f)"/><path d="M66.682 106.743h1.1c.366 0 .458.183.366.458-.091.458-.091.916.092 1.374.732.091 1.099-.184 1.19-.916 0-.367 0-.642.184-.916a2.603 2.603 0 0 1 1.19 0 2.632 2.632 0 0 1-.916 2.748l1.466 2.381c-.55.275-1.1 0-1.557.183l-1.1-1.832c-.183-.274-.274-.366-.549-.183-.091.641-.092 1.283-.092 1.924a3.046 3.046 0 0 1-1.282 0l-.092-5.221Zm-2.93 1.832h-.917a.504.504 0 0 1-.458-.275c-.366-.55-1.099-.641-1.648-.367-.55.367-.733 1.008-.642 1.649.092.55.458.916 1.008 1.099.55.092 1.1-.091 1.374-.641l.183-.275a2.63 2.63 0 0 1 1.19 0c0 .825-.457 1.466-1.19 1.741-1.374.733-3.023.183-3.755-1.099-.733-1.374-.183-3.023 1.099-3.756a2.929 2.929 0 0 1 1.74-.275c.641.092 1.283.458 1.649 1.008.275.458.458.824.366 1.191Zm-21.71 13.556a3.014 3.014 0 0 1-1.282 0v-5.221a8.902 8.902 0 0 1 3.115 0c.824.366 1.373 1.282 1.19 2.198-.091.916-.916 1.558-1.74 1.558h-.641c-.275 0-.458.091-.458.458 0 .366-.092.641-.183 1.007Zm.092-2.565c.55 0 1.1.184 1.374-.366a.832.832 0 0 0 0-.916c-.366-.458-.916-.183-1.374-.275v1.557Zm16.213 7.237h1.19c.184.183.092.366.092.549 0 1.008-.183 1.008.916 1.008h.367c.733.091 1.374.641 1.557 1.465.183.825-.183 1.649-.825 2.107-.274.183-.55.183-.915.275h-2.016c-.274 0-.458-.092-.458-.458l.092-4.946Zm1.282 3.938c.184.092.459.092.733.092h.275c.275 0 .55-.275.55-.641 0-.275-.275-.55-.55-.55a1.894 1.894 0 0 0-1.008 0v1.099Zm3.023-13.923h1.19c.093.458.093.916.093 1.374.183.184.366.184.64.184 1.375 0 2.2.458 2.29 1.832.092 1.007-.64 1.832-1.648 1.923h-2.199c-.458 0-.366 0-.458-.549-.183-1.283.184-2.565 0-3.939-.091-.275-.091-.641.092-.825Zm1.282 4.031h1.008c.275-.092.55-.367.55-.641 0-.367-.275-.642-.55-.642a1.894 1.894 0 0 0-1.007 0v1.283ZM77.4 122.04v-5.222c.457-.091.824-.091 1.282-.091.275.458 0 1.007.183 1.465l1.19.184c1.008.091 1.65 1.007 1.558 1.923 0 .916-.825 1.649-1.74 1.649h-2.199l-.275.092Zm1.373-1.191c.367.091.642.091 1.008 0 .275 0 .55-.275.55-.55.091-.275-.184-.641-.458-.641h-.092c-.366-.092-.733-.092-1.008 0v1.191Zm-34.257-8.885c.091-.458.275-.916.55-1.374l1.557-3.573v-.183c.274-.366.64-.458.824 0l2.015 4.397c.183.183.183.458.183.641-.641 0-1.282.275-1.557-.549h-1.282c-.367 0-.825 0-.916.458-.092.183-.184.183-.367.183-.366.091-.733.091-1.007 0Zm2.107-1.832c.366.091.732.091 1.099 0a2.837 2.837 0 0 0-.55-1.191 2.836 2.836 0 0 0-.55 1.191Zm-18.686 1.832h-1.191c-.183-.092-.275-.367-.458-.641h-1.283c-.366 0-.732 0-.916.458-.183.458-.274.274-.458.274-.274 0-.64 0-.916-.091.184-.55.367-1.191.733-1.741l1.466-3.206c.091-.183.183-.458.55-.458.274 0 .366.184.457.275l2.199 4.855c-.184.092-.184.183-.184.275Zm-2.748-3.115c-.275.458-.458.916-.458 1.374h1.099c-.092-.458-.367-.916-.641-1.374Zm27.113 13.191a3.492 3.492 0 0 1-1.374 0c0-.55-.367-.642-.916-.642h-1.374c-.275.092-.275.458-.458.55h-1.374l.733-1.557 1.373-3.115c0-.091.092-.183.184-.274.091-.275.366-.367.55-.275l.274.275.825 1.832 1.282 2.748c.274.183.275.366.275.458Zm-3.206-1.832c.366.091.824.091 1.19 0-.183-.458-.366-.916-.64-1.283l-.55 1.283Zm38.288-3.39h3.297v1.1a4.476 4.476 0 0 1-1.557 0c-.183 0-.367 0-.458.183-.092.183 0 .366.183.458h1.099c.275 0 .55 0 .642.641v.641c-.55.092-1.191.092-1.832.092-.092.824-.092.824.64.824h1.283c.092.367.092.733 0 1.099h-3.206v-5.038h-.091ZM37.37 118.65c.183.367.183.825.092 1.283-.55.183-1.1 0-1.65.091-.182.275 0 .458 0 .825h1.924v1.191H34.44v-3.664c0-.367 0-.733-.092-1.1-.091-.366 0-.549.458-.458h2.565c.275 0 .458.184.458.458-.092.275 0 .458 0 .733a6.106 6.106 0 0 1-1.832 0c-.183.275-.091.458-.091.733l1.465-.092Zm47.906-7.877c.091.366.091.733 0 1.191h-3.298v-5.221h3.206c.092.366.092.732 0 1.099a3.968 3.968 0 0 1-1.465 0c-.458 0-.458 0-.458.641.55.183 1.19 0 1.74.092.183.366 0 .732.092 1.007-.641.183-1.283 0-1.832.183-.092.275-.092.55 0 .825l2.015.183ZM71.629 97.674c-1.924 1.466-5.038.642-6.595-1.832 2.29-1.099 5.13-.366 6.595 1.832Zm3.847-83.262c-1.19-.733-2.107-1.832-2.473-3.115-.275-.915-.367-1.923-.092-2.93.092-.367.275-.459.55-.275 1.557.732 2.473 2.29 2.473 4.03 0 .641 0 1.282-.183 1.832 0 .275-.092.366-.275.458ZM6.777 37.678c-2.381-1.832-3.297-4.489-1.832-6.595a5.08 5.08 0 0 1 1.832 6.595ZM.091 50.227c2.015-.275 4.946 3.389 4.213 5.22-2.748-.549-4.763-2.93-4.213-5.22Zm55.325 58.897c.733.916.824 1.557.275 2.29-.642.641-1.558.825-2.382.641a1.617 1.617 0 0 1-1.19-1.74c.183-.183.366-.092.64-.092.184 0 .55 0 .642.275 0 .092.091.183.183.183.183.184.458.275.641.092.183-.092.367-.275.367-.55 0-.274-.184-.458-.367-.549-.183-.092-.366-.092-.641-.092v-1.007c.183-.184.366 0 .55-.184.183-.183.366-.274.274-.549-.091-.275-.458-.458-.64-.275-.184.183-.917.183-1.375.183-.091-.458.092-.916.55-1.099.733-.458 1.557-.366 2.29.183.458.733.64 1.191.183 2.29Zm-39.204-79.69c-1.1 2.381-3.664 3.664-6.229 3.023 1.008-2.565 4.03-4.122 6.229-3.023Zm52.394 59.905c.733 2.382-1.1 4.671-3.755 5.588-.916-1.65 1.465-5.313 3.755-5.588Zm15.755-59.813c1.832-1.008 4.855 0 6.32 3.022a5.5 5.5 0 0 1-6.32-3.022Zm-64.302 57.34c-.183.366-.55.55-1.008.641-1.282.55-2.747.641-4.121.092-.642-.275-1.1-.642-1.558-1.191-.091-.092-.183-.275-.091-.458 0-.092.091-.092.183-.092 2.198-1.099 4.855-.733 6.595 1.008Zm54.959-71.721c-1.924 1.74-4.763 1.923-6.778.274 1.374-2.198 5.13-1.832 6.778-.274Zm-49.83 74.652c-.549-.275-.915-.55-1.282-1.008l-.64-.824c-1.008-1.19-1.192-2.84-.642-4.305 0-.092.091-.183.091-.275l.092-.183c2.382 1.374 3.39 4.122 2.382 6.595Zm55.784-64.668c2.198-1.374 5.496.183 6.503 2.29-2.381.916-5.13-.092-6.503-2.29Zm-2.29-13.74c2.107.825 3.022 4.214 1.557 6.504-2.107-1.466-2.748-4.214-1.557-6.504Zm12.732 20.793c-1.374-2.199-1.008-5.038.916-6.687 1.832 1.008 1.282 5.221-.916 6.687Zm3.023 11.45c-2.565-.092-4.763-1.924-5.13-4.489 2.29-.55 4.58 1.374 5.13 4.489Zm-22.9-31.602c-2.565.641-5.22-.732-6.32-3.114.916-.366 1.832-.458 2.748-.183 1.649.458 2.931 1.74 3.572 3.297ZM47.355 98.132c-.55 2.565-3.114 4.122-5.587 3.573-.092 0-.183 0-.275-.092.824-2.381 3.297-3.847 5.862-3.48Zm48.09-67.05c1.556 1.558.824 4.947-1.741 6.596-1.008-2.382-.275-5.13 1.74-6.595ZM72.727 18.168c1.19-1.557 4.58-1.923 6.87.367-2.015 1.649-4.947 1.465-6.87-.367ZM95.353 43.54c-.825-2.473.275-5.13 2.656-6.32 1.19 1.832.092 5.038-2.656 6.32Z" fill="url(#g)"/><path d="M70.163 92.82c-.641-2.473.641-5.13 3.023-6.137 1.007 1.74.091 4.58-3.023 6.137Zm-56.7-58.806c-.732 2.473-3.114 4.122-5.678 3.847.274-1.1.824-2.107 1.74-2.84 1.008-1.007 2.473-1.374 3.939-1.007Zm63.845 60.454c-1.375 1.558-4.672 1.558-6.779-.824 2.107-1.465 5.038-1.1 6.779.824ZM12.273 26.961c-1.924-1.832-2.107-4.855-.275-6.778l.092-.092c1.74 2.015 1.74 4.855.183 6.87Zm8.335 59.172c-2.381-1.832-3.022-4.946-1.374-6.687 2.015 1.65 2.565 4.489 1.374 6.687Zm42.96 5.313c.366 2.106-1.374 4.58-4.488 5.13-.55-2.016 2.015-5.039 4.488-5.13ZM92.879 37.86c-1.099.183-2.29-.092-3.206-.641-1.19-.642-2.107-1.832-2.565-3.115.825-.274 1.74-.274 2.565.092 1.557.733 2.656 2.015 3.206 3.664Zm-4.58-10.9c-1.649-2.015-1.649-4.947 0-6.87 1.74 1.1 2.199 4.397 0 6.87ZM58.988 97.308c1.649-.366 3.297-.092 4.671.824a4.67 4.67 0 0 1 1.74 2.016c-1.282.549-2.656.549-3.846-.184-1.1-.55-2.015-1.557-2.565-2.656ZM6.228 43.631c-.092-.274 0-.549.091-.824.366-1.832 1.832-3.297 3.664-3.755a3.47 3.47 0 0 1 1.374 0c-.458 2.564-2.565 4.488-5.13 4.58Zm93.43-.183c.732 2.474-.734 5.13-3.298 5.771-.092 0-.183 0-.275.092-.366-2.565 1.1-5.038 3.572-5.863ZM32.424 15.511c-2.107 1.557-4.947 1.374-6.87-.366 2.015-1.832 5.13-1.65 6.87.366ZM4.395 49.402a5.092 5.092 0 0 1-1.557-.824C1.556 47.753.823 46.47.64 45.005c-.092-.55 0-1.099.275-1.557 2.473.825 3.938 3.39 3.48 5.954ZM19.51 25.13a5.448 5.448 0 0 1-6.412 2.29c1.008-2.382 3.847-3.48 6.229-2.473 0 .091.091.183.183.183ZM9.16 32.182c-2.199-1.832-2.565-5.221-.916-6.687 1.832 1.649 2.29 4.488.916 6.687ZM84.727 82.56c1.557-2.107 4.305-2.84 6.686-1.649-.824 2.198-3.847 2.931-6.686 1.649ZM5.31 49.402c0-1.282.458-2.473 1.191-3.48.825-1.1 2.015-1.74 3.298-1.74-.092 2.564-1.924 4.762-4.489 5.22Zm-.183 11.816c-2.84-.091-5.312-2.473-4.763-4.671 2.473.183 4.488 2.198 4.763 4.671Zm54.776 60.822h-.183c-1.1 0-1.1-.001-1.557-1.1-.275-.641-.55-1.282-.916-1.923l-1.283 2.931a3.492 3.492 0 0 1-1.374 0c0-.183 0-.367.092-.55l2.015-4.305c.091-.275.183-.458.55-.458.366 0 .366.275.458.458l1.282 2.657.824 1.557c.092.366.275.549.092.733ZM11.998 77.89c-2.198.915-5.496.09-6.412-2.382 2.473-1.008 5.221.091 6.412 2.381Zm4.305 3.938c-2.015-1.924-2.198-5.221-.641-6.595 1.923 1.649 2.198 4.488.641 6.595Zm71.08-11.358c2.015 1.74 2.107 4.855.367 6.778-1.74-1.832-1.924-4.763-.367-6.778Zm2.107-4.947c2.198 1.466 2.748 4.397 1.282 6.504-2.106-1.008-2.656-4.763-1.282-6.504Zm3.48 1.283c-2.198-1.374-3.114-4.122-2.106-6.504.641.184 1.19.642 1.557 1.191 1.008 1.557 1.19 3.572.55 5.313Zm-76.3-43.967c2.015-2.748 5.495-2.656 6.686-1.374-1.649 1.923-4.397 2.473-6.687 1.374ZM99.29 63.05a2.615 2.615 0 0 1-.733 2.107c-.916 1.19-2.198 1.832-3.664 1.924-.275 0-.55.183-.824.091h-.092c.458-2.473 2.748-4.213 5.313-4.122ZM20.883 18.534a8.058 8.058 0 0 1 3.206-1.557c1.282-.184 2.656.183 3.664 1.099-1.832 1.832-4.763 2.107-6.87.458Zm21.25 74.286c2.566 0 4.855 1.923 5.222 4.488-1.74 0-3.39-.824-4.488-2.29-.458-.641-.733-1.466-.733-2.198Zm-17.22-78.5c-1.099-2.381 0-5.13 2.382-6.228 0 0 .092 0 .092-.092.915 2.473-.184 5.13-2.474 6.32ZM95.17 49.402a5.302 5.302 0 0 1-4.397-5.22c.55-.092 1.191 0 1.65.274 1.465.733 2.472 2.107 2.655 3.755 0 .275.092.55.092.825v.366ZM5.22 43.448a4.674 4.674 0 0 1-2.747-6.045v-.092c2.381 1.008 3.48 3.664 2.748 6.137Zm10.626-21.25c-1.465-2.015-1.282-5.405.733-6.687 1.557 1.374 1.19 5.221-.733 6.687ZM88.482 77.98c.458-2.015 4.214-3.48 6.32-2.473-.732 2.198-3.572 3.206-6.32 2.473ZM17.86 90.62c1.924-1.648 4.764-1.74 6.779-.183-1.832 1.924-4.855 2.015-6.779.183Zm-2.106-8.06c-2.29 1.099-5.405.824-6.687-1.557 1.008-.458 2.198-.642 3.297-.458a5.264 5.264 0 0 1 3.39 2.015Zm66.866 8.06c-1.832 1.832-4.763 1.924-6.687.092l-.091-.092c2.015-1.648 4.855-1.648 6.778 0Zm8.977-17.953c.091-.458.366-.916.64-1.282 1.1-1.557 3.024-2.382 4.856-2.199.458 0 .55.184.274.642-.458 1.19-1.465 2.198-2.656 2.564a8.995 8.995 0 0 1-3.114.275ZM35.63 95.934c-1.007 1.374-2.473 2.198-4.213 2.473-.825 0-1.74-.183-2.473-.733.824-1.923 4.488-2.93 6.686-1.74Zm22.717-3.023c0 2.29-1.924 4.122-5.038 4.397-.55-1.832 2.656-4.672 5.038-4.397Zm37.83-37.555c-.092-2.565 1.74-4.855 4.213-5.22.641 2.38-1.649 4.854-4.213 5.22ZM77.582 83.202c1.374 2.015.275 5.038-2.106 6.412-1.283-1.649-.092-5.038 2.106-6.412ZM35.081 8.824c-1.008 2.29-3.481 3.664-5.954 3.115.733-2.473 3.389-3.94 5.862-3.206 0 .091.092.091.092.091ZM8.975 54.99c.641 2.473-.55 5.038-2.93 6.045-.825-2.473.457-5.22 2.93-6.045Zm26.747 39.845c-2.656-.55-4.672-3.298-3.847-5.496 2.473.733 4.122 3.023 3.847 5.496ZM6.685 67.172a6.147 6.147 0 0 1-4.122-1.282c-.732-.641-1.19-1.557-1.374-2.473 0-.183 0-.458.275-.367 1.1.092 2.199.458 3.115 1.008 1.099.733 1.923 1.832 2.106 3.114ZM84.27 81.92c-1.557-2.016-1.374-4.855.366-6.779 1.832 1.008 1.557 4.58-.366 6.778Zm-56.974 4.763a5.25 5.25 0 0 1 3.023 5.953c-2.657-1.007-4.122-4.03-3.023-5.953ZM5.31 55.356c-.55-2.565 1.1-5.13 3.664-5.77.367 2.564-1.19 5.037-3.664 5.77Zm86.194-.366c2.473.824 3.847 3.48 3.023 5.954 0 0 0 .091-.092.091-2.381-1.007-3.572-3.572-2.93-6.045ZM53.217 98.224c2.565-.366 4.947 1.1 5.77 3.481-1.19.366-2.472.183-3.572-.458-1.007-.733-1.831-1.832-2.198-3.023ZM21.891 11.297a5.384 5.384 0 0 1-1.557 6.595c-1.375-2.198-.733-5.129 1.465-6.503l.092-.091Zm78.316 45.25c.275 2.473-2.107 4.58-4.672 4.671 0-1.007.367-2.015 1.008-2.748.916-1.099 2.198-1.74 3.664-1.923ZM7.51 66.806c-1.1-3.114 0-5.496 2.015-6.412.183 0 .275.183.275.366.366 1.191.183 2.565-.275 3.664-.275 1.008-1.008 1.832-2.015 2.382ZM41.4 97.49c-.916 2.382-3.664 3.664-6.137 2.657-.092 0-.092-.092-.183-.092 1.282-2.198 3.847-3.298 6.32-2.565Zm-11.358-3.939c-1.557 2.107-4.58 2.565-6.778 1.008 1.74-1.923 4.488-2.29 6.778-1.008Zm53.86-78.041c2.015 1.282 2.473 4.03.915 6.595-1.923-1.649-2.381-4.488-.915-6.595Zm-3.298 71.355c1.74-1.832 4.58-2.107 6.595-.733-1.1 2.29-5.038 2.107-6.595.733Zm10.808-37.189c2.565.55 4.214 2.931 3.664 5.496-2.381-.641-3.938-3.023-3.663-5.496Zm-7.51-26.838c-2.29 1.19-5.038.55-6.687-1.374 1.923-1.649 4.946-.916 6.687 1.374ZM13.189 70.56c1.465 2.015 1.374 4.763-.367 6.595-1.74-1.832-1.648-4.763.184-6.503.091 0 .091 0 .183-.092Zm68.149 8.977c1.465 1.557 1.19 4.58-1.283 6.595-1.19-1.465-.916-4.763 1.283-6.595ZM9.067 72.577c-1.374.274-2.84 0-4.122-.642-1.008-.55-1.649-1.557-1.924-2.656 1.191-.183 2.382-.092 3.481.458a6.433 6.433 0 0 1 2.565 2.84Zm32.426 23.907c-2.84-.367-4.947-2.748-4.489-5.038 2.565.366 4.397 2.473 4.489 5.038ZM9.8 72.119c-1.283-2.199-.916-5.405 1.19-6.596 1.283 2.199.825 5.038-1.19 6.596Zm25.006 6.045c0-.183-.092-.275-.183-.458a30.367 30.367 0 0 0-4.214-3.48l-1.374-.825h42.502c-.275.275-.733.458-1.1.55 0-.184.275-.184.367-.367H30.043c0 .275.275.275.366.367 1.191.732 2.29 1.648 3.298 2.564 1.19 1.283 2.656 2.29 4.213 3.115l.092.183c-.825 0-1.282-.55-1.924-.916-.274-.183-.55-.367-.732-.55-.184-.091-.367-.183-.55-.183Zm49.097 43.876c-.367.091-.825.091-1.283 0v-5.222c.367-.091.825-.091 1.282 0v5.222Zm-20.335 4.854c.458-.183.824-.183 1.282-.091v5.221h-1.282v-5.13ZM42.867 75.141s-.184 0-.184-.091c0-.092-.274-.458-.458-.641.367-.642.733-.733 1.283-.367.458.275.824.733 1.099 1.19.275 0 .366-.274.55-.457.183-.183.732-.275.916-.183.274.183.366.55.274.824 0 .183-.183.275-.091.367.64.55.916.55 1.74.183-.092.64-.366.824-1.19.733-.367-.092-.733-.275-.917-.55-.366-.275 0-.733-.091-1.008-.55 0-.916.367-.825 1.008.184 1.007 1.1 1.649 2.016 1.466h.091a1.27 1.27 0 0 1 .824 0c-.091.274-.274.274-.55.274-1.373.275-2.655-.55-3.022-1.923v-.275c-.275-.825-.641-1.1-1.465-1.008v.458Zm15.022-.275c-.733-.274-1.008-.183-1.374.367a4.467 4.467 0 0 0-.275.641c-.183 1.374-1.466 2.29-2.748 2.107-.275 0-.55-.092-.824-.275.183-.183.55-.275.824-.091 1.008.183 1.924-.367 2.107-1.374v-.092c.091-.367-.092-.825-.367-1.008a.278.278 0 0 0-.366 0c-.092 0 0 .183 0 .275.092.458-.183 1.008-.641 1.1-.458.274-1.1.182-1.466-.276-.091-.091-.091-.183 0-.274.458.458 1.283.366 1.649-.183 0-.184-.092-.367-.092-.55-.091-.367.092-.733.458-.824.275-.092.55 0 .733.274l.641.733c.183-.55.55-1.007 1.008-1.282.641-.275.916-.275 1.282.275-.091.091-.183.274-.55.457Zm-7.511-.824c0 .458.183.916.274 1.374l.184 1.282c.091.459.183.917-.275 1.375-.183.183-.092.366-.092.549 0 .824.092 1.649.275 2.473.183.641 0 1.282-.458 1.74a1.442 1.442 0 0 1-.458-1.557c.183-.732.366-1.465.275-2.198 0-.366 0-.824-.275-1.1-.275-.274-.183-.457-.092-.732l.367-2.015c-.092-.458.091-.825.275-1.19Zm-29.953 65.676c-.183.275.183.458 0 .733-.183.274-.733-.092-1.008-.367-.55-.549-1.282-.916-2.015-1.007h-.824a.698.698 0 0 1-.458-.184c.275-.091.55-.183.916-.183 1.282-.091 2.565 0 3.755.275.275.092.642.183.825.366.183.092.183.275.183.458 0 .184-.183.184-.366.184s-.642-.275-1.008-.275Zm-.183 0v.091-.091Zm61.828-.641c-.732.091-1.373.274-2.015.641a.963.963 0 0 1-1.19 0c.091-.367.274-.55.64-.641.917-.275 1.924-.458 2.84-.458.825-.092 1.558 0 2.382.274-.275.092-.55.184-.825.184-1.007.091-1.923.458-2.656 1.099l-.275.275c-.183.183-.458.274-.55 0-.183-.275.092-.367.276-.458.457-.367.915-.641 1.373-.916Z" fill="url(#h)"/><path d="M70.346 73.951c-.366.55-.916.733-1.374 1.19-.458.459-.55.367-.64.734a14.16 14.16 0 0 0-2.474 2.198c-.092 0-.183 0-.183.183-.367.092-.641.275-.733.641-.458 0-.733.458-1.1.642-.549.366-1.282.55-1.923.458.55-.184 1.191-.367 1.65-.733 1.098-.733 2.197-1.557 3.113-2.473.092-.092.275-.183.184-.458.458 0 .732-.367 1.007-.642.641-.55 1.374-1.099 2.107-1.557.092-.091.183-.183.366-.183ZM49.28 97.858c0-.458.275-.916.824-1.007h.092c.55 0 1.007.366 1.099.916-.092.55-.458.916-1.008 1.007-.55.092-.916-.366-1.007-.916Zm-.275-20.426c-.091.091-.183.091-.275 0a.712.712 0 0 0-.733-.183c-.274 0-.64 0-.732-.367.732 0 1.374 0 1.557-.916 0-.183-.183-.183-.275-.275-.275-.183-.458-.366-.275-.732.092-.275.367-.367.642-.184.091 0 .091.092.091.092.458.275.55.733.367 1.19 0 .55-.184 1.008-.367 1.375Zm2.565.733c.824.183 1.648.274 2.564.366.733 0 1.283.55 1.283 1.282v.184c-.092.274-.275.55-.55.64-.274.092-.55.184-.733-.182-.183-.275.184-.184.275-.184.092-.091.367-.274.367-.55a.826.826 0 0 0-.55-.549c-.458-.183-1.007-.275-1.557-.275-.458-.091-.825-.366-1.1-.732Z" fill="url(#i)"/><path d="M51.844 75.875c.091.824.275.916 1.557 1.099-.092.275-.366.458-.641.366-.275-.091-.733 0-1.1.367l-.549-1.832c-.092-.458.183-.825.55-1.008.274 0 .55 0 .64.275a.44.44 0 0 1-.182.55s-.092 0-.184.091c0-.091-.183-.091-.091.092Zm-2.931 2.473c-.275.275-.733.458-1.191.458-.458 0-.916.091-1.374.275-.275.091-.55.366-.55.732 0 .367.275.458.642.458h.091c-.458.367-.733.458-1.007.184-.367-.275-.458-.733-.275-1.191.091-.275.366-.55.641-.641.275-.092.55-.184.824-.184.825 0 1.558 0 2.199-.091Zm1.923.916c.367.733.733 1.374 1.191 2.015.183.275.275.55.366.824.092.458-.091.916-.55 1.008-.366.092-.549 0-.915-.641.366.183.641.366.824.091.183-.275.183-.55 0-.824l-.824-1.466c-.183-.274-.275-.64-.092-1.007Zm-1.282 3.297c.091.458-.275.458-.55.55-.366 0-.64-.183-.732-.55-.092-.275-.092-.64.091-.916l.641-.916a5.092 5.092 0 0 0 .825-1.557c0 .55-.184 1.1-.458 1.557-.183.275-.367.55-.458.916-.275.642-.092.916.64.916Z" fill="url(#j)"/><path d="M73.277 74.407c-.458.458-.733 1.008-.916 1.558 0 .274-.091.55-.091.824 0 .183-.092.458-.458.366-.275-.091-.275-.274-.275-.458 0-.824.366-1.557 1.007-2.015.184-.183.458-.275.733-.275Zm-21.8 4.489c.641.366 1.282.824 1.923 1.282a.504.504 0 0 1 .275.458c.092.275.092.641-.183.916-.275.183-.366.183-.916 0 0-.092 0-.092.092-.183.55-.183.64-.458.366-.825-.366-.366-.733-.732-1.1-1.007-.182-.183-.457-.183-.457-.641Zm-22.9-1.74c-.275-1.008-.275-2.016-1.282-2.749.275-.091.55 0 .733.275.64.458 1.007 1.191 1.007 2.015 0 .367 0 .367-.458.458Zm20.61 1.831c0 .275-.183.367-.366.55l-.916.733c-.092.091-.184.274-.275.366a.443.443 0 0 0 0 .641c.183.275.366 0 .64 0 0 .275-.182.458-.549.367-.366 0-.64-.275-.64-.55-.092-.366.09-.641.274-.916a5.292 5.292 0 0 1 1.832-1.19Z" fill="url(#k)"/><path d="M56.33 78.805c-.09.275.184.367.184.641 0 .275.366.733 0 1.191a.394.394 0 0 1-.366-.366c-.092-.733-.458-1.374-1.1-1.74v-.092c.367-.092.642.275 1.008.092-.091.274 0 .366.275.274Zm-10.35-.55c-.366.367-.824.459-1.007.825-.275.367-.458.733-.458 1.1 0 .182-.092.457-.275.366-.275-.092-.275-.275-.183-.458.183-.641.55-1.283 1.19-1.557.092-.184.367-.275.733-.275Zm-5.038 1.008c.275-.64.367-1.374.367-2.106.458 0 .55.183.55.458.091.64-.275 1.282-.917 1.648Zm33.25-4.671c0 .091-.091.183-.183.275-.458.274-.733.824-.824 1.374 0 .183-.092.366-.367.366-.274-.092-.183-.275-.183-.458.092-.825.733-1.374 1.557-1.557Z" fill="url(#l)"/><path d="M26.105 74.5c.915 0 1.74.732 1.74 1.648v.458c-.092.092-.275 0-.275-.183-.092-.916-.641-1.649-1.465-1.924Zm19.052 3.572c-.641.274-1.191.549-1.374 1.282 0 .091-.183.183-.275.183h-.092c-.091-.824.55-1.374 1.74-1.466Zm10.9.457c0-.274-.275-.183-.366-.366.916 0 1.557.458 1.465 1.374-.275 0-.275-.183-.366-.275-.092-.183-.092-.458-.458-.366 0-.367 0-.367-.275-.367Zm4.397-40.486c.824-.183.916-.183.916.367-.367-.092-.825.183-.916-.367Z" fill="url(#m)"/><path d="M52.393 145.488c-.092.458-.458.275-.733.275-.183 0-.366-.184-.458-.367-.092-.183 0-.366.183-.366h.092c.275.091.091.366.183.458.092.091.458 0 .641 0h.092Zm4.946-67.05c-.366-.458-1.008-.733-1.557-.824 1.19 0 1.557.183 1.557.824ZM26.562 36.303c-.275.366-.733.55-1.19.55.274-.367.732-.55 1.19-.55Zm13.831 41.769c.367 0 .458.274.367.55 0 .366-.183.64-.458.824.092-.458.183-.916.091-1.374Zm12.366-44.15c-.275-.184-.55-.275-.458-.642a.5.5 0 0 1 .458.641Zm-29.494 4.121c0-.458.183-.55.55-.458 0 .458-.276.458-.55.458Zm51.936-1.19c-.183 0-.367.091-.458-.184-.092-.274 0-.183.091-.183l.367.367Zm-17.404-4.306c0 .092 0 .184-.183.184-.092 0-.183-.092-.275-.184 0-.091.092-.183.183-.183.183 0 .184.092.275.183Zm-1.19-.64c.274 0 .366 0 .549.274-.275.092-.367 0-.55-.275ZM42.866 75.14c.274.091.274.274.274.549-.183-.092-.366-.366-.274-.55Zm8.61 3.755c-.275 0-.367-.183-.641-.458.274.092.55.275.64.458Zm-2.29 0a.715.715 0 0 1 .366-.366c-.091.275-.183.366-.366.366Zm8.427-3.572c0-.183.091-.367.275-.458 0 .183 0 .366-.275.458Z" fill="url(#n)"/><path d="M57.614 75.323c0 .183 0 .275-.275.458.092-.275.092-.366.275-.458Zm-16.67 3.939c0 .183 0 .183-.276.275.092-.184.184-.275.275-.275Zm-2.932.55a.279.279 0 0 1 .366 0c-.091.09-.274.182-.366 0Zm13.648-17.68c0 .093-.091.092-.183.092v-.091h.183Zm21.617 12.275c0-.092.092-.183.183-.092.092.092-.091 0-.183.092Zm.916.183s0-.091.092-.091h.091s-.091 0-.183.091ZM59.08 32.455c0 .092-.092.092-.184.092 0 0 .092-.092.184-.092ZM36.363 62.041s.092-.091.184 0c.091.092 0 .092 0 .092l-.184-.092Zm13.19 20.518v-.091c.092.091 0 .091 0 .091Zm2.748 62.928c0-.092.092-.183.092-.183.091.091 0 .183-.092.183Zm13.374-67.325c0-.091 0-.183.183-.183.091.092-.092.183-.183.183ZM20.15 139.625v.091-.091Zm42.227 4.396c.641-.183 1.19-.549 1.557-1.099.183-.275.458-.458.733-.641.183-.091.366 0 .458.092.092.091.092.366 0 .458-.092.183-.275.274-.366.458a9.924 9.924 0 0 1-4.58 2.015c.64-.367 1.19-.825 1.832-1.283.55-.549.732-1.282 1.374-1.831.274.366.091.641-.092.916l-.824.915h-.092Zm-5.496-4.946c.183-.183.367-.275.641-.183.642.092 1.191.366 1.65.824.732.733.915 1.741.457 2.657-.091 0 0-.184 0-.275.183-1.099-.458-2.198-1.557-2.473-.366-.092-.733-.183-1.008-.367l-.183-.183Zm-1.557 6.229c-1.557-.733-2.29-2.565-1.557-4.122v-.092a.585.585 0 0 1 0 .55c-.092 1.099.366 2.198 1.19 3.023.367.183.367.183.367.641Zm-18.136-3.023c.366-.183.458.183.55.367a6.031 6.031 0 0 0 1.923 2.106c.274.183.64.183.916.55-.55 0-1.191-.183-1.74-.367-1.1-.366-2.107-.916-3.023-1.557-.184-.091-.275-.275-.367-.458-.091-.183-.091-.275 0-.458.183-.091.367-.091.458 0 .183.092.367.275.55.367.183.274.458.458.733.641.274-.458-.275-.825 0-1.191Zm.274 1.099c.092.275.367.55.733.641-.183-.274-.366-.549-.733-.641Zm6.32-4.305c-.091.275-.366.275-.549.367-1.74.366-2.29 1.19-2.015 2.931v.091c-.55-1.007-.275-2.198.55-2.931.64-.641 1.465-.824 2.015-.458Zm3.023 1.924c.825 1.557.275 3.389-1.282 4.213-.275-.275 0-.458.183-.641l.55-.55c.641-.824.916-1.923.641-2.931-.183 0-.183-.091-.092-.091Zm-16.762-2.29c-.275.091-.55.091-.733 0-.824-.275-1.74-.367-2.565-.367-.183 0-.366.184-.64 0 .274-.091.549-.183.824-.183.916-.091 1.923-.091 2.84.092.09.091.366.091.274.458Z" fill="url(#o)"/><path d="M29.31 139.808c-.916-.458-1.832-.824-2.84-1.007a5.422 5.422 0 0 1 2.932.549s.091.184-.092.458Zm41.31-1.099c-.09-.183-.09-.275 0-.366.093-.092.184-.092.276-.183 1.282-.367 2.564-.275 3.755.183a8.067 8.067 0 0 0-2.107 0c-.64.091-1.19.549-1.923.366Z" fill="url(#p)"/><path d="M74.468 138.617a.832.832 0 0 1-.64.275c-.734.091-1.375.274-1.924.732-.275.184-.458.275-.733-.183a5.387 5.387 0 0 1 3.297-.824Zm-25.372 4.396v-2.198a3.033 3.033 0 0 1 0 2.198Zm1.465-2.015c.183.55.183 1.191 0 1.741-.183-.55-.183-1.1 0-1.741Zm1.008 2.199c-.183-.733-.183-1.557 0-2.382v2.382Z" fill="url(#q)"/><path d="M49.553 142.831V141h.092v1.831h-.092Zm1.465 0V141h.092v1.831h-.092ZM50.102 141c.092.549.092 1.19 0 1.74a5.535 5.535 0 0 1 0-1.74ZM39.111 77.064h-.092c-.183-.183-.275-.366 0-.641s.183 0 .275 0c.092 0 0 .55-.183.641Zm20.7 2.382c-.732-.367-1.098-1.1-1.098-1.832 0-.184 0-.367.183-.458.091-.092.183-.092.275-.092.091 0 .183.092.183.183v.367c-.092.64.091 1.282.458 1.832Zm.276-1.374c.091.366.091.733 0 1.007-.275-.366-.458-.64 0-1.007Zm1.374-1.008c-.275-.275-.275-.458 0-.733.366.458.366.458 0 .733Z" fill="url(#r)"/></g><defs><linearGradient id="k" x1="-.419" y1="78.084" x2="99.527" y2="78.084" gradientUnits="userSpaceOnUse"><stop stop-color="#1C8AE2"/><stop offset=".486" stop-color="#8B00B3"/><stop offset="1" stop-color="#6900B5"/></linearGradient><linearGradient id="b" x1="-.419" y1="55.088" x2="99.527" y2="55.088" gradientUnits="userSpaceOnUse"><stop stop-color="#1C8AE2"/><stop offset=".486" stop-color="#8B00B3"/><stop offset="1" stop-color="#6900B5"/></linearGradient><linearGradient id="d" x1="-.419" y1="46.23" x2="99.527" y2="46.23" gradientUnits="userSpaceOnUse"><stop stop-color="#1C8AE2"/><stop offset=".486" stop-color="#8B00B3"/><stop offset="1" stop-color="#6900B5"/></linearGradient><linearGradient id="e" x1="-.418" y1="61.481" x2="99.528" y2="61.481" gradientUnits="userSpaceOnUse"><stop stop-color="#1C8AE2"/><stop offset=".486" stop-color="#8B00B3"/><stop offset="1" stop-color="#6900B5"/></linearGradient><linearGradient id="f" x1="-.419" y1="95.425" x2="99.526" y2="95.425" gradientUnits="userSpaceOnUse"><stop stop-color="#1C8AE2"/><stop offset=".486" stop-color="#8B00B3"/><stop offset="1" stop-color="#6900B5"/></linearGradient><linearGradient id="g" x1="-.418" y1="70.102" x2="99.527" y2="70.102" gradientUnits="userSpaceOnUse"><stop stop-color="#1C8AE2"/><stop offset=".486" stop-color="#8B00B3"/><stop offset="1" stop-color="#6900B5"/></linearGradient><linearGradient id="h" x1="-.418" y1="74.282" x2="99.527" y2="74.282" gradientUnits="userSpaceOnUse"><stop stop-color="#1C8AE2"/><stop offset=".486" stop-color="#8B00B3"/><stop offset="1" stop-color="#6900B5"/></linearGradient><linearGradient id="i" x1="-.418" y1="86.384" x2="99.527" y2="86.384" gradientUnits="userSpaceOnUse"><stop stop-color="#1C8AE2"/><stop offset=".486" stop-color="#8B00B3"/><stop offset="1" stop-color="#6900B5"/></linearGradient><linearGradient id="j" x1="-.417" y1="78.976" x2="99.527" y2="78.976" gradientUnits="userSpaceOnUse"><stop stop-color="#1C8AE2"/><stop offset=".486" stop-color="#8B00B3"/><stop offset="1" stop-color="#6900B5"/></linearGradient><linearGradient id="c" x1="-.418" y1="85.044" x2="99.527" y2="85.044" gradientUnits="userSpaceOnUse"><stop stop-color="#1C8AE2"/><stop offset=".486" stop-color="#8B00B3"/><stop offset="1" stop-color="#6900B5"/></linearGradient><linearGradient id="l" x1="-.419" y1="77.563" x2="99.526" y2="77.563" gradientUnits="userSpaceOnUse"><stop stop-color="#1C8AE2"/><stop offset=".486" stop-color="#8B00B3"/><stop offset="1" stop-color="#6900B5"/></linearGradient><linearGradient id="m" x1="-.418" y1="58.712" x2="99.527" y2="58.712" gradientUnits="userSpaceOnUse"><stop stop-color="#1C8AE2"/><stop offset=".486" stop-color="#8B00B3"/><stop offset="1" stop-color="#6900B5"/></linearGradient><linearGradient id="n" x1="-.418" y1="88.843" x2="99.527" y2="88.843" gradientUnits="userSpaceOnUse"><stop stop-color="#1C8AE2"/><stop offset=".486" stop-color="#8B00B3"/><stop offset="1" stop-color="#6900B5"/></linearGradient><linearGradient id="o" x1="-.418" y1="88.955" x2="99.527" y2="88.955" gradientUnits="userSpaceOnUse"><stop stop-color="#1C8AE2"/><stop offset=".486" stop-color="#8B00B3"/><stop offset="1" stop-color="#6900B5"/></linearGradient><linearGradient id="p" x1="-.418" y1="138.879" x2="99.527" y2="138.879" gradientUnits="userSpaceOnUse"><stop stop-color="#1C8AE2"/><stop offset=".486" stop-color="#8B00B3"/><stop offset="1" stop-color="#6900B5"/></linearGradient><linearGradient id="q" x1="-.418" y1="140.901" x2="99.527" y2="140.901" gradientUnits="userSpaceOnUse"><stop stop-color="#1C8AE2"/><stop offset=".486" stop-color="#8B00B3"/><stop offset="1" stop-color="#6900B5"/></linearGradient><linearGradient id="r" x1="-.419" y1="110.243" x2="99.527" y2="110.243" gradientUnits="userSpaceOnUse"><stop stop-color="#1C8AE2"/><stop offset=".486" stop-color="#8B00B3"/><stop offset="1" stop-color="#6900B5"/></linearGradient><clipPath id="a"><path fill="#fff" d="M0 0h100v155H0z"/></clipPath></defs></svg>