<svg width="200" height="155" fill="none" xmlns="http://www.w3.org/2000/svg"><path d="M112.7 84.2h5.2L115.3 67l-2.6 17.2Z" fill="url(#a)"/><path d="M23.2 81.5h3.2l1-8.9h-3.2l-1 8.9Z" fill="url(#b)"/><path d="M0 52v51.7h199.6V52H0Zm34.3 20.6h-2.5l-.9 8.9h2.6l-.4 3.8h-2.5l-1 9.8h-4.4l1-9.8h-3.3l-1 9.8h-4.5l1-9.8h-2.3l.4-3.8h2.4l.9-8.9h-2.4l.4-3.8h2.5l.8-7.9h4.4l-.8 7.9h3.2l.8-7.9h4.4l-.8 7.9h2.5l-.5 3.8Zm10.8-7.2c-1.8 0-2.8 1.1-2.8 3.4v18.5c0 2.2.9 3.3 2.8 3.3s2.8-1.1 2.8-3.3v-4.9h5.4V87c.2 2.3-.6 4.6-2.2 6.4-1.6 1.6-3.9 2.4-6.1 2.2-2.2.2-4.4-.7-6-2.2a8.79 8.79 0 0 1-2-6.4V69.1c-.2-2.3.6-4.6 2-6.4 1.6-1.6 3.8-2.4 6-2.2 2.3-.1 4.5.7 6.1 2.2 1.5 1.7 2.3 4 2.2 6.4v3.3h-5.4v-3.7c-.1-2.2-1-3.3-2.8-3.3ZM73 95.1h-5.4V80.5h-6.1v14.6h-5.4V60.9h5.4v14.7h6.1V60.9H73v34.2Zm9.4 0H77V60.9h5.4v34.2Zm21.4 0h-5.5l-6.7-24.7v24.7h-5.4V60.9h7.3L99 81.4V60.9h4.8v34.2Zm15.7 0-.9-6.2H112l-.9 6.2h-5.3l5.4-34.2h8.3l5.4 34.2h-5.4Zm21.7 0H127V60.9h5.4v29.3h8.8v4.9Zm7.7 0h-5.4V60.9h5.4v34.2ZM167 65.8h-8.8v10.3h6.9V81h-6.9v14.1h-5.4V60.9H167v4.9Zm17.2 0h-9.3v9.5h7.4v4.9h-7.4v10h9.3v4.9h-14.6V60.9h14.6v4.9Z" fill="url(#c)"/><defs><linearGradient id="a" x1="-.454" y1="75.615" x2="197.608" y2="75.615" gradientUnits="userSpaceOnUse"><stop stop-color="#1C8AE2"/><stop offset=".486" stop-color="#8B00B3"/><stop offset="1" stop-color="#6900B5"/></linearGradient><linearGradient id="b" x1="-.455" y1="77.033" x2="197.607" y2="77.033" gradientUnits="userSpaceOnUse"><stop stop-color="#1C8AE2"/><stop offset=".486" stop-color="#8B00B3"/><stop offset="1" stop-color="#6900B5"/></linearGradient><linearGradient id="c" x1="-.456" y1="77.877" x2="197.609" y2="77.877" gradientUnits="userSpaceOnUse"><stop stop-color="#1C8AE2"/><stop offset=".486" stop-color="#8B00B3"/><stop offset="1" stop-color="#6900B5"/></linearGradient></defs></svg>