<svg width="200" height="155" fill="none" xmlns="http://www.w3.org/2000/svg"><path d="M151.6 64.1h-2.1v2.7h2.1c.4 0 .9-.1 1.2-.4.3-.3.4-.6.4-1s-.1-.8-.4-1c-.3-.2-.8-.3-1.2-.3Z" fill="url(#a)"/><path d="M113.701 63.9c-.8 0-1.5.3-2.1.9-.5.6-.8 1.3-.8 2.1s.3 1.6.8 2.2c.5.6 1.3.9 2.1.8.8 0 1.5-.3 2.1-.9.5-.6.8-1.3.8-2.1s-.3-1.6-.8-2.1c-.5-.6-1.3-.9-2.1-.9Z" fill="url(#b)"/><path d="M159.9 64.8c-.6.7-.9 1.4-.9 2.2 0 .8.3 1.6.9 2.1.5.6 1.3.9 2.1.9s1.5-.3 2.1-.9c.5-.6.8-1.3.8-2.1s-.3-1.6-.8-2.1c-1.2-1.2-3-1.3-4.2-.1Z" fill="url(#c)"/><path d="M93.6 67.8h-2.4v2.1h2.5c1 0 1.5-.4 1.5-1.1 0-.7-.5-1-1.6-1Z" fill="url(#d)"/><path d="M94.7 65c0-.3-.1-.6-.4-.7-.3-.2-.7-.3-1-.3h-2.1v2h1.9c1.1.1 1.6-.3 1.6-1Z" fill="url(#e)"/><path d="M169.8 56H71.4l-11 22.1h128.5l11-22.1h-30.1Zm-86.9 8.1h-5.2v2h4.6V68h-4.6v3.7h-2.1v-9.6h7.3v2Zm3.9 7.7h-2.1v-9.6h2.1v9.6Zm9.6-.7c-.8.5-1.7.7-2.6.7h-4.6v-9.6h4.5c.9-.1 1.8.2 2.5.8.4.4.7 1 .7 1.7 0 .9-.5 1.7-1.3 2.1.5.2 1 .5 1.4.9.3.4.5.9.5 1.5-.1.7-.4 1.5-1.1 1.9Zm9.4.4c-.7.3-1.5.5-2.3.5-1.3 0-2.6-.5-3.5-1.4-.9-.9-1.4-2.2-1.4-3.5-.1-2.7 2.1-4.9 4.7-4.9h.2c.7 0 1.4.1 2.1.4.6.3 1.1.7 1.6 1.1l-1.3 1.4c-.3-.3-.7-.6-1.2-.8-.4-.2-.9-.3-1.3-.3-.8 0-1.5.3-2 .9-.5.6-.8 1.4-.8 2.1 0 .8.3 1.5.8 2.1.5.6 1.2.9 2 .9.5 0 .9-.1 1.3-.3.4-.2.8-.5 1.2-.9l1.4 1.4c-.3.5-.9 1-1.5 1.3Zm11.6-1c-2 1.9-5.2 1.9-7.3 0-.9-.9-1.4-2.2-1.4-3.5 0-1.3.5-2.6 1.4-3.5 1-.9 2.3-1.4 3.6-1.4 1.4-.1 2.7.5 3.6 1.4.9.9 1.4 2.2 1.4 3.5.1 1.3-.4 2.5-1.3 3.5Zm12.9 1.3h-2.1v-6.3l-2.6 4.1-2.7-4.1v6.2h-2.1v-9.6h2.2l2.5 4 2.5-4h2.3v9.7Zm15-1.4c-1.1 1-2.5 1.5-4 1.5-1.4 0-2.7-.5-3.6-1.4-.9-.9-1.4-2.2-1.4-3.6 0-2.7 2.2-4.9 4.9-4.9h.1c.7 0 1.4.1 2.1.3.6.2 1.2.6 1.6 1l-1.4 1.6c-.4-.3-.7-.5-1.2-.7-.4-.2-.9-.2-1.4-.2-.7 0-1.5.3-1.9.9-.5.6-.8 1.3-.8 2.1s.3 1.6.8 2.2c.5.6 1.3.9 2.1.9.7 0 1.4-.2 2-.6v-1.4h-2.1v-1.8h4.2v4.1Zm7.9 1.4-2.1-3.1h-1.7v3.1h-2.1v-9.6h4.4c1-.1 2 .3 2.8 1 .6.6.9 1.4.8 2.2.1 1.3-.8 2.6-2.1 3l2.3 3.4h-2.3Zm12.4-1.3c-2 1.9-5.2 1.9-7.3 0-.9-.9-1.4-2.2-1.4-3.5 0-1.3.5-2.6 1.4-3.5 2-1.9 5.2-1.9 7.3 0 .9.9 1.4 2.2 1.4 3.5 0 1.3-.5 2.5-1.4 3.5Zm11.5-2.9c.1 1.2-.3 2.3-1.1 3.2-.8.8-1.9 1.2-3.1 1.1-1.1.1-2.2-.3-3.1-1.1-.8-.9-1.2-2-1.1-3.2v-5.5h2.1v5.4c0 .6.1 1.3.5 1.8.9.8 2.2.8 3.1 0 .4-.5.6-1.1.5-1.7v-5.5h2.1v5.5h.1Zm8.6.4c-.8.6-1.8.9-2.8.9h-1.6v2.9h-2.1v-9.6h3.9c1-.1 1.9.3 2.7.9.7.6 1 1.5 1 2.4.1 1-.3 1.9-1.1 2.5Z" fill="url(#f)"/><path d="M183 64.1h-1.6V67h1.7c.4 0 .9-.1 1.2-.4.3-.3.5-.7.4-1.1 0-.4-.1-.8-.4-1.1-.4-.2-.9-.3-1.3-.3Z" fill="url(#g)"/><path d="m48.3 61.8 4.5-5.8H30.4l-4.5 5.8h22.4Z" fill="url(#h)"/><path d="M7.1 64.3v-2.5h14.3l4.5-5.8H.3v22.1h6.8v-9h9.1l3.6-4.8H7.1Z" fill="url(#i)"/><path d="m39.1 64.3-4 4.8h11.3v3.3h-8.2c-3.4 0-6.6-1.9-6.6-5.1 0-1.1.3-2.2.9-3h-7.3c-.4 1.4-.5 2.9-.2 4.3C27.3 78 37.3 78 37.3 78h15.8V64.3h-14Z" fill="url(#j)"/><path d="M0 97.3v-6.5h4.6v.4H.5v2.5h3.7v.4H.5v2.6h4.2v.4H0v.2Z" fill="url(#k)"/><path d="M9.8 97.3v-4.7h.5v.9c.3-.6 1-1 1.7-1 .5 0 1 .2 1.4.5.3.4.5.9.5 1.4v2.9h-.5v-2.8c0-.4-.1-.8-.4-1.2-.3-.3-.7-.5-1.1-.4-.4 0-.9.2-1.2.5-.3.3-.5.8-.5 1.2v2.7h-.4Z" fill="url(#l)"/><path d="M18.9 94.7c0-.3.1-.6.2-.9.1-.3.3-.5.5-.7.2-.2.5-.3.7-.4.3-.1.5-.2.8-.2.4 0 .8.1 1.2.3.3.2.6.5.8.8v-.9h.5v3.9c0 .6-.2 1.2-.6 1.6-.5.4-1.1.7-1.7.6-.8 0-1.5-.3-2.2-.7l.3-.4c.5.4 1.2.7 1.9.7.5 0 1-.1 1.4-.5.4-.4.5-.9.5-1.4v-.7c-.4.7-1.2 1.1-2 1.1-.3 0-.6-.1-.8-.2-.3-.1-.5-.3-.7-.4-.2-.2-.4-.4-.5-.7-.2-.3-.3-.6-.3-.9Zm.5 0c0 .3.1.7.3.9.2.3.4.5.7.6.3.2.6.2.9.2.2 0 .5-.1.7-.1.2-.1.4-.2.6-.4.4-.3.6-.8.6-1.3 0-.3-.1-.7-.3-.9-.2-.3-.4-.5-.7-.6-.3-.1-.6-.2-.9-.2-.3 0-.6.1-.9.2-.3.1-.5.3-.7.6-.3.3-.3.6-.3 1Z" fill="url(#m)"/><path d="M29 91.3v-.6h.6v.6H29Zm0 6v-4.7h.4v4.7H29Z" fill="url(#n)"/><path d="M35 97.3v-4.7h.4v.9c.3-.6 1-1 1.7-1 .5 0 1 .2 1.4.5.3.4.5.9.5 1.4v2.9h-.5v-2.8c0-.4-.1-.8-.4-1.2-.3-.3-.7-.5-1.1-.4-.4 0-.9.2-1.2.5-.3.3-.5.8-.5 1.2v2.7H35Z" fill="url(#o)"/><path d="M44 94.9c0-.3.1-.6.2-.9.1-.3.3-.6.5-.8.2-.2.4-.4.7-.5.3-.1.6-.2.9-.2.4 0 .8.1 1.1.3.3.2.6.5.8.9.2.4.3.8.3 1.3v.2h-3.9c0 .5.2 1 .6 1.4.3.3.8.5 1.3.5.6 0 1.2-.3 1.6-.7l.3.3c-.2.3-.5.5-.9.7-.3.2-.7.2-1.1.2-.3 0-.6-.1-.9-.2-.3-.1-.5-.3-.7-.5-.2-.2-.4-.5-.5-.8-.2-.5-.3-.8-.3-1.2Zm.5-.2h3.4c0-.2-.1-.5-.1-.7l-.3-.6c-.1-.2-.3-.3-.5-.4-.2-.1-.5-.2-.7-.2-.5 0-.9.2-1.2.5-.4.4-.6.9-.6 1.4Z" fill="url(#p)"/><path d="M53.1 94.9c0-.3.1-.6.2-.9.1-.3.3-.6.5-.8.2-.2.4-.4.7-.5.3-.1.6-.2.9-.2.4 0 .8.1 1.1.3.3.2.6.5.8.9.2.4.3.8.3 1.3v.2h-3.9c0 .5.2 1 .6 1.4.3.3.8.5 1.3.5.6 0 1.2-.3 1.6-.7l.2.2c-.2.3-.5.5-.9.7-.3.2-.7.2-1.1.2-.3 0-.6-.1-.9-.2-.3-.1-.5-.3-.7-.5-.2-.2-.4-.5-.5-.8-.1-.4-.2-.8-.2-1.1Zm.5-.2H57c0-.2-.1-.5-.1-.7l-.3-.6c-.1-.2-.3-.3-.5-.4-.2-.1-.5-.2-.7-.2-.5 0-.9.2-1.2.5-.4.4-.6.9-.6 1.4Z" fill="url(#q)"/><path d="M62.5 97.3v-4.7h.4v1.3c.2-.4.5-.8.8-1 .3-.2.7-.4 1.2-.4h.1v.5c-.3 0-.5.1-.8.2-.2.1-.5.3-.7.4-.2.2-.3.5-.4.7-.1.3-.2.7-.2 1v1.9h-.4v.1Z" fill="url(#r)"/><path d="M69.9 91.3v-.6h.6v.6h-.6Zm0 6v-4.7h.4v4.7h-.4Z" fill="url(#s)"/><path d="M75.9 97.3v-4.7h.5v.9c.3-.6 1-1 1.7-1 .5 0 1 .2 1.4.5.3.4.5.9.5 1.4v2.9h-.4v-2.8c0-.4-.1-.8-.4-1.2-.3-.3-.7-.5-1.1-.4-.4 0-.9.2-1.2.5-.3.3-.5.8-.5 1.2v2.7h-.5Z" fill="url(#t)"/><path d="M84.9 94.7c0-.6.3-1.2.7-1.6.2-.2.5-.3.7-.4.3-.1.5-.2.8-.2.4 0 .8.1 1.2.3.3.2.6.5.8.8v-.9h.4v3.9c0 .6-.2 1.2-.6 1.6-.5.4-1.1.7-1.7.6-.8 0-1.5-.3-2.2-.7l.3-.4c.5.4 1.2.7 1.9.7.5 0 1-.1 1.4-.5.4-.4.5-.9.5-1.4v-.7c-.4.7-1.2 1.1-2 1.1-.3 0-.6-.1-.8-.2-.3-.1-.5-.3-.7-.4-.2-.2-.4-.4-.5-.7-.1-.3-.1-.6-.2-.9Zm.5 0c0 .3.1.7.3.9.2.3.4.5.7.6.3.2.6.2.9.2.2 0 .5-.1.7-.1.2-.1.4-.2.6-.4.4-.3.6-.8.6-1.3 0-.3-.1-.7-.3-.9-.2-.3-.4-.5-.7-.6-.3-.1-.6-.2-.9-.2-.3 0-.6.1-.9.2-.3.1-.5.4-.7.6-.2.3-.3.6-.3 1Z" fill="url(#u)"/><path d="M101.5 97.3v-4.7h.5v.8c.1-.1.2-.2.3-.4l.3-.3c.1-.1.3-.2.4-.2.2-.1.4-.1.6-.1.3 0 .7.1 1 .3.3.2.5.4.6.7.3-.6 1-1 1.7-1 .5 0 1 .2 1.3.5.3.4.5.9.5 1.4v2.9h-.5v-2.8c0-.4-.1-.8-.4-1.2-.3-.3-.6-.5-1-.4-.4 0-.8.2-1 .4-.3.3-.5.8-.4 1.2v2.8h-.5v-2.8c0-.4-.1-.8-.4-1.1-.3-.3-.6-.4-1-.4s-.8.2-1.1.5c-.3.3-.5.8-.4 1.2v2.7h-.5Z" fill="url(#v)"/><path d="M113.6 95.9c0-.5.2-.9.6-1.1.4-.3 1-.4 1.5-.4s1 .1 1.6.2v-.2c0-.4-.1-.8-.4-1.1-.3-.3-.7-.4-1.1-.4-.5 0-1 .1-1.5.4l-.2-.4c.5-.3 1.1-.4 1.7-.4.5 0 1.1.1 1.5.5.4.4.5.9.5 1.4v2.9h-.6v-.8c-.2.3-.4.5-.7.6-.3.2-.7.3-1.1.3-.2 0-.5 0-.7-.1l-.6-.3c-.2-.1-.3-.3-.4-.5-.1-.2-.1-.4-.1-.6Zm.5 0c0 .3.1.6.4.8.3.2.6.3 1 .3.5 0 .9-.1 1.3-.4.3-.2.5-.6.5-1v-.5c-.5-.1-1.1-.2-1.6-.2-.4 0-.8.1-1.1.3-.4 0-.5.3-.5.7Z" fill="url(#w)"/><path d="M123 97.3v-4.7h.4v.9c.3-.6 1-1 1.7-1 .5 0 1 .2 1.4.5.3.4.5.9.5 1.4v2.9h-.4v-2.8c0-.4-.1-.8-.4-1.2-.3-.3-.7-.5-1.1-.4-.4 0-.9.2-1.2.5-.3.3-.5.8-.5 1.2v2.7h-.4Z" fill="url(#x)"/><path d="M131.9 95.9c0-.4.2-.9.6-1.1.4-.3 1-.4 1.5-.4s1 .1 1.6.2v-.2c0-.4-.1-.8-.4-1.1-.3-.3-.7-.4-1.1-.4-.5 0-1 .1-1.5.4l-.2-.4c.5-.3 1.1-.4 1.7-.4.5 0 1.1.1 1.5.5.4.4.5.9.5 1.4v2.9h-.4v-.8c-.2.3-.4.5-.7.6-.3.2-.7.3-1.1.3-.2 0-.4 0-.7-.1l-.6-.3c-.5-.2-.7-.7-.7-1.1Zm.5 0c0 .3.1.6.4.8.3.2.6.3 1 .3.5 0 .9-.1 1.3-.4.3-.2.5-.6.5-1v-.5c-.5-.1-1.1-.2-1.6-.2-.4 0-.8.1-1.1.3-.3 0-.5.3-.5.7Z" fill="url(#y)"/><path d="M141 94.7c0-.3.1-.6.2-.9.1-.3.3-.5.5-.7.2-.2.5-.3.7-.4.3-.1.6-.2.8-.2.4 0 .8.1 1.2.3.3.2.6.5.8.8v-.9h.4v3.9c0 .6-.2 1.2-.6 1.6-.5.4-1.1.7-1.7.6-.8 0-1.5-.3-2.2-.7l.3-.4c.5.4 1.2.7 1.9.7.5 0 1-.1 1.4-.5.4-.4.5-.9.5-1.4v-.7c-.4.7-1.2 1.1-2 1.1-.3 0-.6-.1-.8-.2-.3-.1-.5-.3-.7-.4-.2-.2-.4-.4-.5-.7-.1-.3-.2-.6-.2-.9Zm.5 0c0 .3.1.7.3.9.2.3.4.5.7.6.3.2.6.2.9.2.2 0 .5-.1.7-.1.2-.1.4-.2.6-.4.2-.2.3-.4.4-.6.1-.2.2-.5.2-.7 0-.3-.1-.7-.3-.9-.2-.3-.4-.5-.7-.6-.3-.1-.6-.2-.9-.2-.3 0-.6.1-.9.2-.3.1-.5.4-.7.6-.2.3-.3.6-.3 1Z" fill="url(#z)"/><path d="M150.8 94.9c0-.3.1-.6.2-.9.1-.3.3-.6.5-.8.2-.2.4-.4.7-.5.3-.1.6-.2.9-.2.4 0 .8.1 1.1.3.3.2.6.5.8.9.2.4.3.8.3 1.3v.2h-3.9c0 .5.2 1 .6 1.4.3.3.8.5 1.3.5.6 0 1.2-.3 1.6-.7l.3.3c-.2.3-.5.5-.9.7-.3.2-.7.2-1.1.2-.3 0-.6-.1-.9-.2-.3-.1-.5-.3-.7-.5-.2-.2-.4-.5-.5-.8-.3-.5-.3-.8-.3-1.2Zm.5-.2h3.4c0-.2-.1-.5-.1-.7l-.3-.6c-.1-.2-.3-.3-.5-.4-.2-.1-.5-.2-.7-.2-.5 0-.9.2-1.2.5-.4.4-.6.9-.6 1.4Z" fill="url(#A)"/><path d="M160.2 97.3v-4.7h.5v.8c.1-.1.2-.3.3-.4l.3-.3c.1-.1.3-.2.4-.2.2-.1.4-.1.5-.1.3 0 .7.1 1 .3.3.2.5.4.6.7.3-.6 1-1 1.7-1 .5 0 1 .2 1.3.5.3.4.5.9.5 1.4v2.9h-.4v-2.8c0-.4-.1-.8-.4-1.2-.3-.3-.6-.5-1-.4-.4 0-.8.2-1 .4-.3.3-.5.8-.4 1.2v2.8h-.5v-2.8c0-.4-.1-.8-.4-1.1-.3-.3-.6-.4-1-.4s-.8.2-1.1.5c-.3.3-.4.8-.4 1.2v2.7h-.5Z" fill="url(#B)"/><path d="M172.4 94.9c0-.3.1-.6.2-.9.1-.3.3-.6.5-.8.2-.2.4-.4.7-.5.3-.1.6-.2.9-.2.4 0 .8.1 1.1.3.3.2.6.5.8.9.2.4.3.8.3 1.3v.2H173c0 .5.2 1 .6 1.4.3.3.8.5 1.3.5.6 0 1.2-.3 1.6-.7l.3.3c-.2.3-.5.5-.9.7-.3.2-.7.2-1.1.2-.3 0-.6-.1-.9-.2-.3-.1-.5-.3-.7-.5-.2-.2-.4-.5-.5-.8-.3-.5-.3-.8-.3-1.2Zm.4-.2h3.4c0-.2-.1-.5-.1-.7l-.3-.6c-.1-.2-.3-.3-.5-.4-.2-.1-.5-.2-.7-.2-.5 0-.9.2-1.2.5-.3.4-.5.9-.6 1.4Z" fill="url(#C)"/><path d="M181.8 97.3v-4.7h.5v.9c.3-.6 1-1 1.7-1 .5 0 1 .2 1.4.5.3.4.5.9.5 1.4v2.9h-.4v-2.8c0-.4-.1-.8-.4-1.2-.3-.3-.7-.5-1.1-.4-.4 0-.9.2-1.2.5-.3.3-.5.8-.5 1.2v2.7h-.5Z" fill="url(#D)"/><path d="M190.7 93v-.4h.7v-1.5h.5v1.5h1.6v.4h-1.7v3c-.1.4.3.9.7.9h.2c.2 0 .5-.1.7-.2v.4c-.2.1-.5.2-.8.2-.3 0-.7-.1-.9-.3-.3-.2-.4-.6-.4-1v-3.1h-.6v.1Z" fill="url(#E)"/><defs><linearGradient id="p" x1=".163" y1="94.936" x2="197.553" y2="94.936" gradientUnits="userSpaceOnUse"><stop stop-color="#1C8AE2"/><stop offset=".486" stop-color="#8B00B3"/><stop offset="1" stop-color="#6900B5"/></linearGradient><linearGradient id="a" x1=".163" y1="65.461" x2="197.553" y2="65.461" gradientUnits="userSpaceOnUse"><stop stop-color="#1C8AE2"/><stop offset=".486" stop-color="#8B00B3"/><stop offset="1" stop-color="#6900B5"/></linearGradient><linearGradient id="c" x1=".162" y1="66.945" x2="197.553" y2="66.945" gradientUnits="userSpaceOnUse"><stop stop-color="#1C8AE2"/><stop offset=".486" stop-color="#8B00B3"/><stop offset="1" stop-color="#6900B5"/></linearGradient><linearGradient id="d" x1=".163" y1="68.864" x2="197.553" y2="68.864" gradientUnits="userSpaceOnUse"><stop stop-color="#1C8AE2"/><stop offset=".486" stop-color="#8B00B3"/><stop offset="1" stop-color="#6900B5"/></linearGradient><linearGradient id="e" x1=".163" y1="65.048" x2="197.553" y2="65.048" gradientUnits="userSpaceOnUse"><stop stop-color="#1C8AE2"/><stop offset=".486" stop-color="#8B00B3"/><stop offset="1" stop-color="#6900B5"/></linearGradient><linearGradient id="f" x1=".163" y1="67.034" x2="197.554" y2="67.034" gradientUnits="userSpaceOnUse"><stop stop-color="#1C8AE2"/><stop offset=".486" stop-color="#8B00B3"/><stop offset="1" stop-color="#6900B5"/></linearGradient><linearGradient id="g" x1=".164" y1="65.552" x2="197.554" y2="65.552" gradientUnits="userSpaceOnUse"><stop stop-color="#1C8AE2"/><stop offset=".486" stop-color="#8B00B3"/><stop offset="1" stop-color="#6900B5"/></linearGradient><linearGradient id="h" x1=".163" y1="58.883" x2="197.554" y2="58.883" gradientUnits="userSpaceOnUse"><stop stop-color="#1C8AE2"/><stop offset=".486" stop-color="#8B00B3"/><stop offset="1" stop-color="#6900B5"/></linearGradient><linearGradient id="i" x1=".163" y1="67.034" x2="197.553" y2="67.034" gradientUnits="userSpaceOnUse"><stop stop-color="#1C8AE2"/><stop offset=".486" stop-color="#8B00B3"/><stop offset="1" stop-color="#6900B5"/></linearGradient><linearGradient id="j" x1=".163" y1="71.127" x2="197.553" y2="71.127" gradientUnits="userSpaceOnUse"><stop stop-color="#1C8AE2"/><stop offset=".486" stop-color="#8B00B3"/><stop offset="1" stop-color="#6900B5"/></linearGradient><linearGradient id="k" x1=".163" y1="94.036" x2="197.554" y2="94.036" gradientUnits="userSpaceOnUse"><stop stop-color="#1C8AE2"/><stop offset=".486" stop-color="#8B00B3"/><stop offset="1" stop-color="#6900B5"/></linearGradient><linearGradient id="l" x1=".163" y1="94.857" x2="197.553" y2="94.857" gradientUnits="userSpaceOnUse"><stop stop-color="#1C8AE2"/><stop offset=".486" stop-color="#8B00B3"/><stop offset="1" stop-color="#6900B5"/></linearGradient><linearGradient id="m" x1=".163" y1="95.587" x2="197.553" y2="95.587" gradientUnits="userSpaceOnUse"><stop stop-color="#1C8AE2"/><stop offset=".486" stop-color="#8B00B3"/><stop offset="1" stop-color="#6900B5"/></linearGradient><linearGradient id="n" x1=".163" y1="93.985" x2="197.555" y2="93.985" gradientUnits="userSpaceOnUse"><stop stop-color="#1C8AE2"/><stop offset=".486" stop-color="#8B00B3"/><stop offset="1" stop-color="#6900B5"/></linearGradient><linearGradient id="o" x1=".163" y1="94.857" x2="197.553" y2="94.857" gradientUnits="userSpaceOnUse"><stop stop-color="#1C8AE2"/><stop offset=".486" stop-color="#8B00B3"/><stop offset="1" stop-color="#6900B5"/></linearGradient><linearGradient id="b" x1=".164" y1="66.944" x2="197.554" y2="66.944" gradientUnits="userSpaceOnUse"><stop stop-color="#1C8AE2"/><stop offset=".486" stop-color="#8B00B3"/><stop offset="1" stop-color="#6900B5"/></linearGradient><linearGradient id="q" x1=".163" y1="94.915" x2="197.553" y2="94.915" gradientUnits="userSpaceOnUse"><stop stop-color="#1C8AE2"/><stop offset=".486" stop-color="#8B00B3"/><stop offset="1" stop-color="#6900B5"/></linearGradient><linearGradient id="r" x1=".163" y1="94.873" x2="197.553" y2="94.873" gradientUnits="userSpaceOnUse"><stop stop-color="#1C8AE2"/><stop offset=".486" stop-color="#8B00B3"/><stop offset="1" stop-color="#6900B5"/></linearGradient><linearGradient id="s" x1=".166" y1="93.985" x2="197.548" y2="93.985" gradientUnits="userSpaceOnUse"><stop stop-color="#1C8AE2"/><stop offset=".486" stop-color="#8B00B3"/><stop offset="1" stop-color="#6900B5"/></linearGradient><linearGradient id="t" x1=".164" y1="94.857" x2="197.553" y2="94.857" gradientUnits="userSpaceOnUse"><stop stop-color="#1C8AE2"/><stop offset=".486" stop-color="#8B00B3"/><stop offset="1" stop-color="#6900B5"/></linearGradient><linearGradient id="u" x1=".164" y1="95.587" x2="197.553" y2="95.587" gradientUnits="userSpaceOnUse"><stop stop-color="#1C8AE2"/><stop offset=".486" stop-color="#8B00B3"/><stop offset="1" stop-color="#6900B5"/></linearGradient><linearGradient id="v" x1=".163" y1="94.886" x2="197.553" y2="94.886" gradientUnits="userSpaceOnUse"><stop stop-color="#1C8AE2"/><stop offset=".486" stop-color="#8B00B3"/><stop offset="1" stop-color="#6900B5"/></linearGradient><linearGradient id="w" x1=".162" y1="94.934" x2="197.553" y2="94.934" gradientUnits="userSpaceOnUse"><stop stop-color="#1C8AE2"/><stop offset=".486" stop-color="#8B00B3"/><stop offset="1" stop-color="#6900B5"/></linearGradient><linearGradient id="x" x1=".163" y1="94.857" x2="197.553" y2="94.857" gradientUnits="userSpaceOnUse"><stop stop-color="#1C8AE2"/><stop offset=".486" stop-color="#8B00B3"/><stop offset="1" stop-color="#6900B5"/></linearGradient><linearGradient id="y" x1=".164" y1="94.934" x2="197.553" y2="94.934" gradientUnits="userSpaceOnUse"><stop stop-color="#1C8AE2"/><stop offset=".486" stop-color="#8B00B3"/><stop offset="1" stop-color="#6900B5"/></linearGradient><linearGradient id="z" x1=".163" y1="95.587" x2="197.553" y2="95.587" gradientUnits="userSpaceOnUse"><stop stop-color="#1C8AE2"/><stop offset=".486" stop-color="#8B00B3"/><stop offset="1" stop-color="#6900B5"/></linearGradient><linearGradient id="A" x1=".163" y1="94.936" x2="197.553" y2="94.936" gradientUnits="userSpaceOnUse"><stop stop-color="#1C8AE2"/><stop offset=".486" stop-color="#8B00B3"/><stop offset="1" stop-color="#6900B5"/></linearGradient><linearGradient id="B" x1=".164" y1="94.886" x2="197.553" y2="94.886" gradientUnits="userSpaceOnUse"><stop stop-color="#1C8AE2"/><stop offset=".486" stop-color="#8B00B3"/><stop offset="1" stop-color="#6900B5"/></linearGradient><linearGradient id="C" x1=".163" y1="94.929" x2="197.554" y2="94.929" gradientUnits="userSpaceOnUse"><stop stop-color="#1C8AE2"/><stop offset=".486" stop-color="#8B00B3"/><stop offset="1" stop-color="#6900B5"/></linearGradient><linearGradient id="D" x1=".161" y1="94.857" x2="197.553" y2="94.857" gradientUnits="userSpaceOnUse"><stop stop-color="#1C8AE2"/><stop offset=".486" stop-color="#8B00B3"/><stop offset="1" stop-color="#6900B5"/></linearGradient><linearGradient id="E" x1=".164" y1="94.202" x2="197.553" y2="94.202" gradientUnits="userSpaceOnUse"><stop stop-color="#1C8AE2"/><stop offset=".486" stop-color="#8B00B3"/><stop offset="1" stop-color="#6900B5"/></linearGradient></defs></svg>