<svg width="200" height="155" fill="none" xmlns="http://www.w3.org/2000/svg"><g clip-path="url(#a)"><path d="M80.7 98.8v1.9H66.6V62.1h1.9v36.7h12.2Z" fill="url(#b)"/><path d="M95.7 64v14.6h10.8v1.9H95.7v18.3h13.1v1.9h-15V62.1h15V64H95.7Z" fill="url(#c)"/><path d="m142.3 62.1-8.4 38.6h-2.5l-8.3-38.6h1.9l7.7 35.5 7.7-35.5h1.9Z" fill="url(#d)"/><path d="M158.5 64v14.6h10.8v1.9h-10.8v18.3h13.1v1.9h-15V62.1h15V64h-13.1Z" fill="url(#e)"/><path d="M200 98.8v1.9h-14.1V62.1h1.9v36.7H200Z" fill="url(#f)"/><path d="M113.9 106.6h.8v4.7h6v-4.7h.8V117h-.8v-4.9h-6v5h-.8v-10.5Z" fill="url(#g)"/><path d="M134.4 111.799c.2-2.8 2.6-4.8 5.3-4.7 2.7.1 4.8 2.6 4.7 5.3-.2 2.6-2.4 4.7-5 4.7-2.7 0-5-2.1-5-4.8v-.5Zm9 0c.2-2.3-1.4-4.3-3.7-4.5-2.3-.2-4.3 1.4-4.5 3.7v.9c-.2 2.3 1.4 4.3 3.7 4.5 2.3.2 4.3-1.4 4.5-3.7.1-.3.1-.6 0-.9Z" fill="url(#h)"/><path d="M157 114.8c-.1-.5-.2-1-.2-1.5v-6.8h.8v6.6c0 .5.1 1 .2 1.5.7 1.5 2.4 2.1 3.9 1.4.6-.3 1.1-.8 1.4-1.4.1-.5.2-1 .2-1.5v-6.6h.8v6.7c0 .5-.1 1-.2 1.5-.8 1.9-3.1 2.8-5 2-.8-.3-1.5-1-1.9-1.9Z" fill="url(#i)"/><path d="M177.3 115.7c.7.4 1.4.7 2.2.7 1.2 0 2.3-.5 2.3-1.9 0-2.7-4.6-2.4-4.6-5.5 0-1.4 1.2-2.6 2.6-2.6h.4c.7 0 1.5.2 2.1.5v.8c-.6-.3-1.4-.5-2.1-.5-1 0-2.1.5-2.1 1.7 0 2.5 4.6 2.3 4.6 5.5 0 1.7-1.2 2.7-3.2 2.7-.9 0-1.8-.2-2.6-.7l.4-.7Z" fill="url(#j)"/><path d="M195.3 106.6h4.7l-.3.7h-3.5v4h3.5v.8h-3.5v4.2h4v.7h-4.8v-10.4h-.1Z" fill="url(#k)"/><path d="m30.8 38-9 7.1v-6.9H5.9v19.4L0 62.3V117h108.8v-3.2H3.1V64l6-4.7V41.4h9.5v10.1l12.2-9.4 27.8 21.5.2 33.9H24.2V60.8l-3.1 4.1v35.8h40.6V62.3L30.8 38Z" fill="url(#l)"/></g><defs><linearGradient id="h" x1="-.722" y1="112.132" x2="198.82" y2="112.132" gradientUnits="userSpaceOnUse"><stop stop-color="#1C8AE2"/><stop offset=".486" stop-color="#8B00B3"/><stop offset="1" stop-color="#6900B5"/></linearGradient><linearGradient id="b" x1="-.722" y1="81.382" x2="198.819" y2="81.382" gradientUnits="userSpaceOnUse"><stop stop-color="#1C8AE2"/><stop offset=".486" stop-color="#8B00B3"/><stop offset="1" stop-color="#6900B5"/></linearGradient><linearGradient id="d" x1="-.723" y1="81.382" x2="198.819" y2="81.382" gradientUnits="userSpaceOnUse"><stop stop-color="#1C8AE2"/><stop offset=".486" stop-color="#8B00B3"/><stop offset="1" stop-color="#6900B5"/></linearGradient><linearGradient id="e" x1="-.723" y1="81.382" x2="198.819" y2="81.382" gradientUnits="userSpaceOnUse"><stop stop-color="#1C8AE2"/><stop offset=".486" stop-color="#8B00B3"/><stop offset="1" stop-color="#6900B5"/></linearGradient><linearGradient id="f" x1="-.721" y1="81.382" x2="198.82" y2="81.382" gradientUnits="userSpaceOnUse"><stop stop-color="#1C8AE2"/><stop offset=".486" stop-color="#8B00B3"/><stop offset="1" stop-color="#6900B5"/></linearGradient><linearGradient id="g" x1="-.721" y1="111.785" x2="198.82" y2="111.785" gradientUnits="userSpaceOnUse"><stop stop-color="#1C8AE2"/><stop offset=".486" stop-color="#8B00B3"/><stop offset="1" stop-color="#6900B5"/></linearGradient><linearGradient id="c" x1="-.722" y1="81.382" x2="198.819" y2="81.382" gradientUnits="userSpaceOnUse"><stop stop-color="#1C8AE2"/><stop offset=".486" stop-color="#8B00B3"/><stop offset="1" stop-color="#6900B5"/></linearGradient><linearGradient id="i" x1="-.721" y1="111.826" x2="198.819" y2="111.826" gradientUnits="userSpaceOnUse"><stop stop-color="#1C8AE2"/><stop offset=".486" stop-color="#8B00B3"/><stop offset="1" stop-color="#6900B5"/></linearGradient><linearGradient id="j" x1="-.72" y1="111.785" x2="198.82" y2="111.785" gradientUnits="userSpaceOnUse"><stop stop-color="#1C8AE2"/><stop offset=".486" stop-color="#8B00B3"/><stop offset="1" stop-color="#6900B5"/></linearGradient><linearGradient id="k" x1="-.718" y1="111.785" x2="198.819" y2="111.785" gradientUnits="userSpaceOnUse"><stop stop-color="#1C8AE2"/><stop offset=".486" stop-color="#8B00B3"/><stop offset="1" stop-color="#6900B5"/></linearGradient><linearGradient id="l" x1="-.722" y1="77.501" x2="198.82" y2="77.501" gradientUnits="userSpaceOnUse"><stop stop-color="#1C8AE2"/><stop offset=".486" stop-color="#8B00B3"/><stop offset="1" stop-color="#6900B5"/></linearGradient><clipPath id="a"><path fill="#fff" d="M0 0h200v155H0z"/></clipPath></defs></svg>