<svg width="200" height="155" fill="none" xmlns="http://www.w3.org/2000/svg"><path fill-rule="evenodd" clip-rule="evenodd" d="M70.6 65.2c1-.2 2.2-.5 3.8-.8 1.8-.3 3.7-.4 5.5-.4 1.3 0 2.6.2 3.8.6 1 .4 1.9 1 2.6 1.8.2-.2.5-.4 1-.6.5-.3 1.1-.6 1.7-.8.7-.3 1.4-.5 2.2-.7.9-.2 1.7-.3 2.6-.3 1.5-.1 3 .2 4.4.8 1.1.5 2 1.2 2.7 2.2.7 1 1.2 2.2 1.4 3.4.2 1.4.3 2.9.3 4.3v13.1h-4.1V75.6c0-1.2-.1-2.4-.3-3.5-.1-.9-.4-1.7-.8-2.5-.3-.6-.9-1.1-1.5-1.5-.8-.3-1.6-.5-2.5-.5-1.2 0-2.4.1-3.5.6-.7.2-1.3.6-1.9 1 .2.8.4 1.7.5 2.6.1 1 .2 1.9.2 2.9v13.1h-4.1V75.6c0-1.2 0-2.4-.2-3.5-.1-.9-.4-1.7-.8-2.5-.3-.6-.9-1.1-1.5-1.5-.8-.3-1.6-.5-2.5-.5h-1.4l-1.4.1c-.4 0-.8.1-1.2.2l-.7.1v19.8h-4.1l-.2-22.6ZM27.4 87.9c4-12.5 10.7-24.1 19.5-33.8V41C29.4 52.3 15.7 68.6 7.8 87.9h19.6Zm19.5 0H35.3c2.4-9.1 6.4-17.6 11.7-25.4v25.4h-.1Zm61.2-11.6c0-1.9.3-3.7.9-5.4.5-1.4 1.3-2.7 2.4-3.8 1-1 2.1-1.8 3.4-2.3 1.3-.5 2.6-.8 3.9-.8 2.7-.2 5.4.9 7.2 2.9 1.7 2 2.5 5 2.5 9v1.5h-16c0 2 .8 4 2.1 5.5 1.6 1.4 3.7 2.1 5.8 1.9 1.2 0 2.5-.1 3.7-.4.8-.2 1.5-.4 2.3-.7l.6 3.5c-.9.4-1.8.7-2.7.9-1.4.3-2.9.5-4.3.5-1.8 0-3.6-.3-5.3-.9-1.4-.6-2.7-1.4-3.7-2.5a9.5 9.5 0 0 1-2.1-3.8c-.4-1.9-.7-3.5-.7-5.1Zm16.1-2.3c.1-1.7-.4-3.3-1.4-4.7-1-1.2-2.5-1.9-4-1.8-.9 0-1.7.2-2.5.6-.7.4-1.3.9-1.9 1.5-.5.6-.9 1.3-1.2 2.1-.3.8-.5 1.6-.6 2.4h11.6V74Zm17.6 14.3c-2 .2-4-.4-5.5-1.7-1.2-1.3-1.8-3.1-1.6-4.9V53.6l4.1-.7V81c0 .6.1 1.1.2 1.7.1.4.3.8.6 1.1.3.3.7.5 1.1.6.5.2 1.1.3 1.7.3l-.6 3.6Zm9.7-.4h-4.1V64.5h4.1v23.4Zm-2.1-27.6c-.7 0-1.4-.3-1.9-.7-.5-.5-.8-1.3-.8-2s.3-1.5.8-2c1.1-1 2.7-1 3.8 0 .5.5.8 1.3.8 2s-.3 1.5-.8 2-1.2.7-1.9.7Zm28.1 26.9c-1 .2-2.2.5-3.8.8-1.8.3-3.7.4-5.5.4-1.6 0-3.1-.2-4.5-.8-1.2-.5-2.2-1.2-3-2.2-.8-1-1.3-2.2-1.6-3.4-.3-1.4-.5-2.9-.5-4.3V64.6h4.1v12.2c-.2 2.1.3 4.3 1.4 6.1 1.1 1.3 2.8 2 4.5 1.8h1.4l1.4-.1 1.1-.1c.3 0 .5-.1.7-.2V64.5h4.1l.2 22.7Zm12.9-2.3c1.3.1 2.6-.1 3.8-.7.8-.4 1.3-1.3 1.2-2.2 0-1-.4-1.9-1.2-2.4-1.3-.8-2.6-1.5-4-2-.9-.4-1.8-.7-2.6-1.1-.8-.4-1.5-.8-2.1-1.4-.6-.5-1-1.1-1.4-1.8-.4-.8-.6-1.7-.5-2.6 0-1.9.8-3.6 2.2-4.8 1.8-1.3 4-1.9 6.2-1.8.7 0 1.3 0 2 .1s1.3.2 1.8.3l1.5.3c.4.1.8.2 1 .3l-.8 3.5c-.7-.3-1.4-.6-2.1-.7-1.1-.3-2.3-.4-3.5-.4-1.1 0-2.1.2-3 .7-.9.4-1.4 1.2-1.4 2.2 0 .5.1.9.3 1.4.2.4.5.8.9 1.1.5.4 1 .7 1.5.9.6.3 1.3.6 2.2.8 1.1.4 2.1.8 3 1.2.8.4 1.6.8 2.2 1.4.6.5 1.1 1.2 1.4 1.9.3.9.5 1.8.5 2.8.2 1.9-.7 3.8-2.3 4.9-2.1 1.2-4.5 1.8-6.9 1.7-1.6 0-3.3-.1-4.9-.5-1.2-.3-2-.6-2.4-.8l.8-3.6c.5.2 1.2.4 2.3.8 1.5.3 2.9.5 4.3.5Z" fill="url(#a)"/><path fill-rule="evenodd" clip-rule="evenodd" d="M1.4 104.3h2.9v1.1H1.4v3.5c0 .3 0 .6.1.9 0 .2.1.4.3.6.1.1.3.2.4.3.2.1.4.1.6.1.3 0 .7 0 1-.1l.5-.2.3 1.1c-.2.1-.5.2-.7.3-.4.1-.8.2-1.2.2-.4 0-.9-.1-1.3-.2-.3-.1-.6-.3-.8-.6-.2-.3-.4-.6-.4-1-.1-.5-.1-.9-.1-1.4v-6.7l1.4-.2-.1 2.3Zm195.301 6.6c.4 0 .9 0 1.2-.2.3-.1.4-.4.4-.7 0-.3-.1-.6-.4-.8-.4-.3-.8-.5-1.3-.6l-.8-.4c-.2-.1-.5-.3-.7-.4-.2-.2-.4-.4-.5-.6-.1-.3-.2-.6-.2-.9 0-.6.3-1.2.7-1.6.6-.4 1.3-.6 2-.6h.6l.6.1.5.1.3.1-.2 1.2c-.2-.1-.5-.2-.7-.2-.4-.1-.7-.1-1.1-.1-.3 0-.7.1-1 .2-.3.1-.4.4-.4.7 0 .2 0 .3.1.4.1.1.2.3.3.3.1.1.3.2.5.3.2.1.5.2.7.3.4.1.7.3 1 .4.3.1.499.3.699.5.2.2.4.4.5.6.1.3.201.6.201.9 0 .6-.3 1.2-.8 1.6-.7.4-1.5.6-2.2.5-.5 0-1.1 0-1.6-.2l-.8-.3.199-1.2c.2 0 .401.2.701.3.6.2 1 .3 1.5.3Zm-191.3-2.8c0-.6.1-1.2.3-1.8.2-.5.4-.9.8-1.2.3-.3.7-.6 1.1-.7.4-.2.8-.2 1.3-.2.9-.1 1.8.3 2.4 1 .6.8.9 1.9.8 2.9v.4H6.9c0 .7.3 1.3.7 1.8.5.5 1.2.7 1.9.6.4 0 .8 0 1.2-.1.3-.1.5-.1.7-.2l.2 1.1-.9.3c-.5.1-.9.2-1.4.2-.6 0-1.2-.1-1.7-.3-.5-.2-.9-.5-1.2-.8-.3-.4-.6-.8-.7-1.2-.2-.7-.2-1.2-.3-1.8Zm5.3-.7c0-.6-.1-1.1-.5-1.5-.3-.4-.9-.6-1.4-.6-.3 0-.6.1-.8.2-.2.1-.4.3-.6.5-.2.2-.3.4-.4.7-.1.3-.1.5-.2.8l3.9-.1Zm5.9 3.5h1.5v-2.3c-.1-.1-.3-.1-.5-.1h-1.4c-.2 0-.4.1-.6.2-.2.1-.3.2-.5.4-.1.2-.2.4-.2.6 0 .4.1.8.5 1 .3.2.7.3 1.2.2Zm-.1-6.8c.5 0 .9.1 1.4.2.7.2 1.2.8 1.4 1.5.1.4.1.8.1 1.2v4.8h-.5l-.7.1-.9.1h-.9c-.4 0-.8 0-1.2-.1-.3-.1-.7-.2-.9-.4-.3-.2-.5-.5-.6-.8-.1-.4-.2-.7-.2-1.1 0-.3.1-.6.3-.9.2-.3.4-.6.7-.7.3-.2.7-.3 1-.4.4-.1.8-.1 1.2-.1h.8l.3.1h.2v-.4c0-.2 0-.4-.1-.7-.1-.2-.1-.4-.3-.6-.1-.2-.3-.3-.5-.4-.3-.1-.6-.2-.9-.2-.4 0-.8 0-1.2.1-.3 0-.5.1-.8.2l-.2-1c.3-.1.6-.2.9-.2.7-.3 1.2-.3 1.6-.3Zm5.1.4 1.2-.2c.6-.1 1.2-.1 1.8-.1.4 0 .8.1 1.2.2.3.1.6.3.8.6l.3-.2.6-.2c.2-.1.5-.2.7-.2.3-.1.6-.1.9-.1.5 0 .9.1 1.4.2.4.2.7.4.9.7.2.3.4.7.4 1.1.1.5.1.9.1 1.4v4.3h-1.4v-5.2c0-.3-.1-.6-.2-.8-.1-.2-.3-.4-.5-.5-.3-.1-.5-.2-.8-.2-.4 0-.8 0-1.1.2l-.6.3c.1.3.1.5.2.8v5.3h-1.4v-4c0-.4 0-.8-.1-1.2 0-.3-.1-.5-.2-.8-.1-.2-.3-.4-.5-.5-.3-.1-.5-.2-.8-.2H23.1v6.4h-1.4l-.1-7.1Zm22.7 3.6c0 .6-.1 1.1-.3 1.6-.2.5-.4.9-.7 1.3-.3.4-.7.6-1.1.8-.4.2-.9.3-1.4.3-.5 0-.9-.1-1.4-.3-.4-.2-.8-.5-1.1-.8-.3-.4-.6-.8-.7-1.3-.2-.5-.3-1.1-.3-1.6 0-.6.1-1.1.3-1.6.2-.5.4-.9.7-1.3.3-.3.7-.6 1.1-.8.4-.2.9-.3 1.4-.3.5 0 .9.1 1.4.3.4.2.8.5 1.1.8.3.4.6.8.7 1.3.2.5.3 1 .3 1.6Zm-1.4 0c0-.7-.2-1.4-.6-2-.7-.9-2-1-2.9-.3l-.3.3c-.4.6-.6 1.3-.5 2 0 .7.2 1.4.6 2 .7.9 2 1 2.8.3l.3-.3c.5-.6.7-1.3.6-2Zm6.3-7.6c.3 0 .7 0 1 .1.2 0 .4.1.6.2l-.2 1.2-.5-.2c-.3-.1-.5-.1-.8-.1-.5-.1-1 .1-1.4.5-.3.4-.4.9-.4 1.4v.6h2.9v1.1h-2.9v6.5h-1.4v-8.3c0-.8.2-1.6.7-2.2.7-.6 1.6-.8 2.4-.8Zm8.8 3.6h.4l.4.1h.7l-.2 1.2-.5-.1H57l-.5.1v6.4h-1.3v-7.1c.4-.1.8-.3 1.2-.3.5-.2 1-.3 1.6-.3Zm2.4 4c0-.6.1-1.2.4-1.8.2-.5.4-.9.8-1.2.3-.3.7-.6 1.1-.7.4-.2.8-.2 1.3-.2.9-.1 1.8.3 2.4 1 .6.8.9 1.9.8 2.9v.4H62c0 .7.3 1.3.7 1.8.5.5 1.2.7 1.9.6.4 0 .8 0 1.2-.1.3-.1.5-.1.7-.2l.2 1.1-.9.3c-.5.1-.9.2-1.4.2-.6 0-1.2-.1-1.7-.3-.5-.2-.9-.5-1.2-.8-.3-.4-.5-.8-.7-1.2-.3-.7-.3-1.3-.4-1.8Zm5.2-.8c0-.5-.1-1.1-.5-1.5-.3-.4-.8-.6-1.3-.6-.3 0-.6.1-.8.2-.2.1-.4.3-.6.5-.2.2-.3.4-.4.7-.1.3-.1.5-.2.8h3.8v-.1Zm8.6.8c0-.7-.2-1.5-.6-2-.5-.5-1.1-.7-1.8-.7h-1c-.2 0-.4.1-.6.1v4.8c.2.2.5.3.7.4.3.1.7.2 1 .2.3 0 .7-.1 1-.2.3-.1.5-.3.7-.6.2-.3.3-.6.4-.9.2-.4.2-.8.2-1.1Zm1.4 0c0 .5-.1 1.1-.2 1.6s-.4.9-.7 1.3c-.3.3-.7.6-1.1.8-.5.2-1 .3-1.5.3-.4 0-.8-.1-1.2-.2-.3-.1-.5-.2-.8-.3v3h-1.3v-10.1l1.2-.2c.6-.1 1.1-.1 1.7-.1.5 0 1.1.1 1.6.3.5.2.9.4 1.2.8.3.4.6.8.8 1.3.3.3.4.9.3 1.5Zm4.7-4h.4l.4.1h.7l-.2 1.2-.5-.1h-1.7l-.5.1v6.4h-1.4v-7.1c.4-.1.8-.3 1.2-.3.5-.2 1.1-.3 1.6-.3Zm2.5 4c0-.6.1-1.2.3-1.8.2-.5.4-.9.8-1.2.3-.3.7-.6 1.1-.7.4-.2.8-.2 1.3-.2.9-.1 1.8.3 2.4 1 .6.8.9 1.9.8 2.9v.4h-5.2c0 .7.3 1.3.7 1.8.5.5 1.2.7 1.9.6.4 0 .8 0 1.2-.1.3-.1.5-.1.7-.2l.2 1.1-.9.3c-.5.1-.9.2-1.4.2-.6 0-1.2-.1-1.7-.3-.5-.2-.9-.5-1.2-.8-.3-.4-.5-.8-.7-1.2-.2-.7-.3-1.3-.3-1.8Zm5.2-.8c0-.5-.1-1.1-.5-1.5-.3-.4-.8-.6-1.3-.6-.3 0-.6.1-.8.2-.2.1-.4.3-.6.5-.2.2-.3.4-.4.7-.1.2-.2.5-.2.8H88v-.1Zm5.2 3.6c.4 0 .9 0 1.2-.2.3-.1.4-.4.4-.7 0-.3-.1-.6-.4-.8-.4-.3-.8-.5-1.3-.6l-.8-.4c-.2-.1-.5-.3-.7-.4-.2-.2-.4-.4-.5-.6-.1-.3-.2-.6-.2-.9 0-.6.3-1.2.7-1.6.6-.4 1.3-.6 2-.6h.6l.6.1c.2 0 .3.1.5.1l.3.1-.2 1.2c-.2-.1-.5-.2-.7-.2-.4-.1-.8-.1-1.1-.1-.3 0-.7.1-1 .2-.3.1-.4.4-.4.7 0 .2 0 .3.1.4.1.1.2.3.3.3.1.1.3.2.5.3.2.1.5.2.7.3.4.1.7.3 1 .4.3.1.5.3.7.5.2.2.4.4.5.6.1.3.2.6.2.9 0 .6-.3 1.2-.8 1.6-.7.4-1.5.6-2.2.5-.5 0-1.1 0-1.6-.2l-.8-.3.2-1.2c.2 0 .4.2.7.3.5.2 1 .3 1.5.3Zm4.3-2.8c0-.6.1-1.2.3-1.8.2-.5.4-.9.8-1.2.3-.3.7-.6 1.1-.7.4-.2.899-.2 1.299-.2.9-.1 1.701.3 2.301 1 .6.8.9 1.9.8 2.9v.4h-5.2c0 .7.3 1.3.7 1.8.5.5 1.199.7 1.899.6.4 0 .801 0 1.201-.1.3-.1.5-.1.7-.2l.2 1.1-.9.3c-.5.1-.9.2-1.4.2-.6 0-1.2-.1-1.7-.3-.5-.2-.9-.5-1.2-.8-.3-.4-.5-.8-.7-1.2-.1-.7-.2-1.2-.2-1.8Zm5.2-.7c0-.5-.1-1.1-.5-1.5-.3-.4-.8-.6-1.4-.6-.3 0-.601.1-.801.2-.2.1-.4.3-.6.5-.2.2-.3.4-.4.7-.1.2-.2.5-.2.8h3.901v-.1Zm3.4-2.9 1.2-.2c.6-.1 1.2-.1 1.8-.1.5 0 1 .1 1.5.2.4.2.7.4 1 .7.2.3.4.7.5 1.1.1.5.2.9.2 1.4v4.3h-1.4V108c0-.4 0-.8-.1-1.2-.1-.3-.201-.6-.301-.8-.1-.2-.399-.4-.599-.4-.3-.1-.601-.1-.901-.1h-1.5v6.4h-1.399v-7.4Zm9.7-.3h2.9v1.1h-2.9v3.5c0 .3 0 .6.1.9 0 .2.1.4.3.6.1.1.3.2.4.3.2.1.4.1.6.1.3 0 .7 0 1-.1l.5-.2.299 1.1c-.2.1-.499.2-.699.3-.4.1-.8.2-1.2.2-.4 0-.9-.1-1.3-.2-.3-.1-.601-.3-.801-.6-.2-.3-.399-.6-.399-1-.1-.5-.101-.9-.101-1.4v-6.7l1.401-.2-.1 2.3Zm7.1 6.7h1.5v-2.3c-.2-.1-.3-.1-.5-.1H122.5c-.2 0-.399.1-.599.2-.2.1-.3.2-.5.4-.1.2-.2.4-.2.6 0 .4.1.8.5 1 .4.2.799.3 1.299.3v-.1h-.099Zm-.1-6.8c.5 0 .9.1 1.4.2.3.1.7.3.9.6.2.3.4.6.5 1 .1.4.1.8.1 1.2v4.8h-.5l-.701.1-.899.1h-.9c-.4 0-.801 0-1.201-.1-.3-.1-.599-.2-.899-.4-.3-.2-.501-.5-.601-.8-.2-.4-.199-.7-.199-1.1 0-.3.1-.6.3-.9.2-.3.4-.6.7-.7.3-.2.7-.3 1-.4.4-.1.799-.1 1.199-.1h.801l.3.1h.2v-1.1c0-.2-.101-.4-.301-.6-.1-.2-.3-.3-.5-.4-.3-.1-.599-.2-.899-.2-.4 0-.8 0-1.2.1-.3 0-.5.1-.8.2l-.2-1c.3-.1.6-.2.9-.2.6-.4 1.1-.4 1.5-.4Zm6.5.2h2.9v1.1h-2.9v3.5c0 .3 0 .6.1.9 0 .2.1.4.3.6.1.1.3.2.4.3.2.1.4.1.6.1.3 0 .7 0 1-.1l.5-.2.299 1.1c-.2.1-.499.2-.699.3-.4.1-.8.2-1.2.2-.4 0-.9-.1-1.3-.2-.3-.1-.601-.3-.801-.6-.2-.3-.399-.6-.399-1-.1-.5-.101-.9-.101-1.4v-6.7l1.401-.2-.1 2.3Zm5.9 7.6h-1.4v-7.6h1.4v7.6Zm-.6-9c-.2 0-.501-.1-.601-.2-.2-.2-.299-.4-.299-.6 0-.2.099-.5.299-.6.2-.2.401-.2.601-.2.2 0 .4.1.6.2.2.2.3.4.2.6 0 .2-.1.5-.2.6-.2.1-.4.2-.6.2Zm8.899 1.4c-.4 1.4-.799 2.8-1.399 4.1-.5 1.4-1 2.5-1.5 3.5h-1.2c-.5-1-1-2.2-1.5-3.5-.5-1.4-1.001-2.7-1.401-4.1h1.5c.1.5.201 1 .401 1.5s.3 1.1.5 1.6l.599 1.5c.2.5.4.9.5 1.4.2-.4.3-.8.5-1.4l.601-1.5c.2-.5.3-1.1.5-1.6s.299-1 .399-1.5h1.5Zm.801 3.8c0-.6.1-1.2.3-1.8.2-.5.4-.9.8-1.2.3-.3.699-.6 1.099-.7.4-.2.901-.2 1.301-.2.9-.1 1.7.3 2.3 1 .6.8.9 1.9.8 2.9v.4h-5.2c0 .7.3 1.3.7 1.8.5.5 1.2.7 1.9.6.4 0 .799 0 1.199-.1.3-.1.501-.1.701-.2l.2 1.1-.901.3c-.5.1-.899.2-1.399.2-.6 0-1.2-.1-1.7-.3-.5-.2-.9-.5-1.2-.8-.3-.4-.501-.8-.701-1.2-.1-.7-.199-1.3-.199-1.8Zm5.199-.8c0-.5-.1-1.1-.5-1.5-.3-.4-.799-.6-1.299-.6-.3 0-.6.1-.8.2-.2.1-.5.2-.6.4-.2.2-.3.4-.4.7-.1.2-.2.5-.2.8h3.799Zm13.401.8c0 .6-.1 1.1-.3 1.6-.2.5-.4.9-.7 1.3-.3.4-.7.6-1.1.8-.4.2-.9.3-1.4.3-.5 0-.901-.1-1.401-.3-.4-.2-.799-.5-1.099-.8-.3-.4-.6-.8-.7-1.3-.2-.5-.3-1.1-.3-1.6 0-.6.1-1.1.3-1.6.2-.5.4-.9.7-1.3.3-.3.699-.6 1.099-.8.4-.2.901-.3 1.401-.3s.9.1 1.4.3c.4.2.8.5 1.1.8.3.4.6.8.7 1.3.3.5.3 1 .3 1.6Zm-1.3 0c0-.7-.201-1.4-.601-2-.4-.5-.999-.8-1.599-.7-.6 0-1.2.3-1.6.7-.4.6-.6 1.3-.6 2s.2 1.4.6 2c.4.5.9.8 1.6.8.6 0 1.199-.3 1.599-.8.4-.6.601-1.3.601-2Zm6.3-7.6c.3 0 .7 0 1 .1.2 0 .399.1.599.2l-.199 1.2-.5-.2c-.3-.1-.501-.1-.801-.1-.5-.1-.999.1-1.399.5-.3.4-.4.9-.4 1.4v.6h2.9v1.1h-2.9v6.5h-1.4v-8.3c0-.8.199-1.6.699-2.3.7-.5 1.501-.7 2.401-.7Zm5.7 0c.3 0 .599 0 .899.1.2 0 .4.1.5.1l-.199 1.2-.4-.1h-.7c-.5-.1-1 .1-1.4.5-.3.4-.4.9-.4 1.4v.6h2.9v1.1h-2.9v6.5H170.5v-8.3c0-.8.201-1.6.701-2.3.6-.5 1.5-.8 2.4-.8Zm4.1 11.4h-1.4v-7.6h1.4v7.6Zm-.701-9c-.5 0-.899-.4-.899-.9s.399-.9.899-.9.901.4.901.9-.401.9-.901.9Zm6.301 9.2c-.6 0-1.1-.1-1.6-.3-.4-.2-.801-.5-1.201-.8-.3-.4-.599-.8-.699-1.2-.2-.5-.2-1.1-.2-1.6s.1-1.1.3-1.6c.2-.5.4-.9.7-1.3.3-.4.7-.6 1.1-.8.5-.2 1-.3 1.5-.3.3 0 .7 0 1 .1.3.1.7.1 1 .3l-.3 1.2c-.2-.1-.5-.2-.7-.2-.3-.1-.6-.1-.9-.1-.7 0-1.301.2-1.801.7-.4.6-.699 1.3-.599 2.1 0 .4-.001.8.099 1.1.1.3.201.6.401.9.2.3.5.4.8.6.4.1.7.2 1.1.2.3 0 .7 0 1-.1.2-.1.499-.1.699-.2l.201 1.1c-.1.1-.2.1-.3.1l-.5.1-.6.1c-.1-.2-.3-.2-.5-.1Zm3-4c0-.6.1-1.2.3-1.8.2-.5.4-.9.8-1.2.3-.3.699-.6 1.099-.7.4-.2.901-.2 1.301-.2.9-.1 1.7.3 2.3 1 .6.8.9 1.9.8 2.9v.4h-5.2c0 .7.3 1.3.7 1.8.5.5 1.2.7 1.9.6.4 0 .799 0 1.199-.1.3-.1.501-.1.701-.2l.2 1.1-.901.3c-.5.1-.899.2-1.399.2-.6 0-1.2-.1-1.7-.3-.5-.2-.9-.5-1.2-.8-.3-.4-.501-.8-.701-1.2-.2-.7-.199-1.3-.199-1.8Zm5.199-.8c0-.5-.1-1.1-.5-1.5-.3-.4-.799-.6-1.299-.6-.3 0-.6.1-.8.2-.2.1-.4.3-.6.5-.2.2-.3.4-.4.7-.1.2-.2.5-.2.8h3.799v-.1Z" fill="url(#b)"/><path fill-rule="evenodd" clip-rule="evenodd" d="M13.5 51.4c-4.9 4-9.4 8.3-13.5 13.1V88c5.5-13.4 15.5-25.3 20.1-29.9-2.7-3.1-4.4-4.7-6.6-6.7Z" fill="url(#c)"/><path fill-rule="evenodd" clip-rule="evenodd" d="M0 56.5V41c3.5 2.2 6.8 4.7 10 7.4-2.9 2.2-7 5.4-10 8.1Z" fill="url(#d)"/><path fill-rule="evenodd" clip-rule="evenodd" d="M0 56.5v-1c2.8-2.5 6.4-5.2 9-7.2-2.9-2.4-5.9-4.6-9-6.7V41c3.5 2.2 6.8 4.7 10 7.4-2.9 2.2-7 5.4-10 8.1Z" fill="url(#e)"/><path fill-rule="evenodd" clip-rule="evenodd" d="m13.5 51.4-.5.4c1.9 1.8 3.6 3.4 6.1 6.1C11.3 66.1 4.9 75.4 0 85.6V88c5.5-13.4 15.5-25.3 20.1-29.9-2.7-3.1-4.4-4.7-6.6-6.7Z" fill="url(#f)"/><path fill-rule="evenodd" clip-rule="evenodd" d="M13.3 52C8.7 55.8 4.4 60 .5 64.5v20.2c.2-.3.3-.6.5-1V65.2c3.9-4.5 8.2-8.7 12.8-12.4 1.8 1.7 3.5 3.4 5.2 5.2l.1-.1c-1.9-2.1-3.8-3.9-5.8-5.9ZM.4 55.2V41.9c3 2 5.8 4.1 8.6 6.4l-.2.2c-2.6-2.1-5.2-4-7.9-5.8v12.1l-.5.4Z" fill="url(#g)"/><defs><linearGradient id="a" x1="-.626" y1="64.725" x2="198.401" y2="64.725" gradientUnits="userSpaceOnUse"><stop stop-color="#1C8AE2"/><stop offset=".486" stop-color="#8B00B3"/><stop offset="1" stop-color="#6900B5"/></linearGradient><linearGradient id="b" x1="-.625" y1="107.536" x2="198.402" y2="107.536" gradientUnits="userSpaceOnUse"><stop stop-color="#1C8AE2"/><stop offset=".486" stop-color="#8B00B3"/><stop offset="1" stop-color="#6900B5"/></linearGradient><linearGradient id="c" x1="-.626" y1="69.631" x2="198.402" y2="69.631" gradientUnits="userSpaceOnUse"><stop stop-color="#1C8AE2"/><stop offset=".486" stop-color="#8B00B3"/><stop offset="1" stop-color="#6900B5"/></linearGradient><linearGradient id="d" x1="-.626" y1="48.737" x2="198.401" y2="48.737" gradientUnits="userSpaceOnUse"><stop stop-color="#1C8AE2"/><stop offset=".486" stop-color="#8B00B3"/><stop offset="1" stop-color="#6900B5"/></linearGradient><linearGradient id="e" x1="-.626" y1="48.737" x2="198.401" y2="48.737" gradientUnits="userSpaceOnUse"><stop stop-color="#1C8AE2"/><stop offset=".486" stop-color="#8B00B3"/><stop offset="1" stop-color="#6900B5"/></linearGradient><linearGradient id="f" x1="-.626" y1="69.631" x2="198.402" y2="69.631" gradientUnits="userSpaceOnUse"><stop stop-color="#1C8AE2"/><stop offset=".486" stop-color="#8B00B3"/><stop offset="1" stop-color="#6900B5"/></linearGradient><linearGradient id="g" x1="-.626" y1="63.291" x2="198.402" y2="63.291" gradientUnits="userSpaceOnUse"><stop stop-color="#1C8AE2"/><stop offset=".486" stop-color="#8B00B3"/><stop offset="1" stop-color="#6900B5"/></linearGradient></defs></svg>