<svg width="189" height="155" fill="none" xmlns="http://www.w3.org/2000/svg"><path fill-rule="evenodd" clip-rule="evenodd" d="M18.513 95.06c10.1.1 18.4-7.9 18.5-18-.2-10.1-8.4-18.1-18.5-18-10.1-.1-18.4 7.9-18.5 18 .2 10.1 8.5 18.1 18.5 18Z" fill="url(#a)"/><path fill-rule="evenodd" clip-rule="evenodd" d="M155.312 67.26c3.6.3 6.8-2.5 6.9-6.1h-3.7c-.4 1.5-1.3 2.2-3.2 2.2-2 0-3-.7-3.3-2.2h-3.6c.1 3.7 3.3 6.4 6.9 6.1Z" fill="url(#b)"/><path fill-rule="evenodd" clip-rule="evenodd" d="M79.813 84.36v-15.2h-4.6v22.1h4.8l9.3-15.4v15.4h4.7v-22.1h-4.9l-9.3 15.2Z" fill="url(#c)"/><path fill-rule="evenodd" clip-rule="evenodd" d="M59.413 86.76c-4.2 0-6.7-3-6.7-7.4v-2.3c.9-1.7 3.2-3.1 6.7-3.1 3.6 0 6.4 1.7 6.4 5.9s-2.2 6.9-6.4 6.9Zm1.2-17.4c-3.5-.2-6.7 1.7-8.4 4.8.2-5 1.3-8 7.2-8.8l9.3-1.2-.4-4.9-9.6 1.3c-8.3 1.1-10.7 7.3-10.7 17.1 0 8.6 4 14.1 11.4 14.1 7.2 0 11.2-5.4 11.2-11.8.3-5.8-4.3-10.7-10-10.6Z" fill="url(#d)"/><path fill-rule="evenodd" clip-rule="evenodd" d="M184.212 69.16v8.3h-9v-8.3h-4.6v22.1h4.6v-9.3h9v9.3h4.7v-22.1h-4.7Z" fill="url(#e)"/><path fill-rule="evenodd" clip-rule="evenodd" d="M150.613 84.36v-15.2h-4.6v22.1h4.8l9.4-15.4v15.4h4.6v-22.1h-4.8l-9.4 15.2Z" fill="url(#f)"/><path fill-rule="evenodd" clip-rule="evenodd" d="M102.313 82.659c-.5 2.5-1.2 3.5-2.6 3.5-.6 0-1.2 0-1.7-.2v5.1c.7.3 1.5.5 2.3.4 2.2.1 4.2-1.3 5-3.5.6-1.7.9-3.5 1.1-5.4.3-3 .5-5.9.4-8.9h6.2v17.4h4.6v-22.1h-14.7c.1 4.7-.1 9.2-.6 13.7Z" fill="url(#g)"/><path fill-rule="evenodd" clip-rule="evenodd" d="M130.712 86.96c-2.2 0-3.7-.6-3.7-2.5 0-1.7 1.3-2.4 3.6-3.3l4.4-1.8v6c-1.2 1.2-2.7 1.7-4.3 1.6Zm8.7-1.7.1-8.8c.1-5.6-3.4-7.8-8.5-7.8-4.4-.3-8.3 3-8.6 7.4h4.4c.3-2 1.9-2.7 4.1-2.7 2.3 0 3.8.7 4 3l-5.7 2.2c-3.9 1.5-6.8 3.3-6.8 6.9 0 3.8 2.2 6.2 6.5 6.2 2.7.1 5.3-1.5 6.4-4 .2 2.7 2 3.8 5.2 3.8h1.3v-4.3h-.4c-1.5 0-2-.5-2-1.9Z" fill="url(#h)"/><path fill-rule="evenodd" clip-rule="evenodd" d="M26.513 90.46c-6.3 3.5-13.1 4.2-17.5 2 5.8 3.3 12.9 3.4 18.7.1 5.8-3.2 9.3-9.3 9.3-15.8-.3 4.8-4.2 10.2-10.5 13.7Zm2.2-27.7c-.4-.6-.9-1.1-1.5-1.5 2.3 1.2 4.3 2.8 5.9 4.9.3.3.5.7.8 1.1.7 1.1 1 2.4.9 3.8-.2 4.8-4.5 10.6-11.4 14.5-6.9 3.9-14.2 4.6-18.6 2.4-1.2-.6-2.2-1.5-2.9-2.7-.2-.4-.3-.7-.5-1.1-1-2.4-1.5-4.9-1.4-7.5 0 .7.2 1.4.6 2.1 2.2 3.7 10.3 3.3 18.1-1.1 7.8-4.6 12.3-11.2 10-14.9Zm-7.8-2.4c-.1-.1-.1-.2-.2-.3-1.1-.9-2.4-1.2-3.8-1-.3 0-.5 0-.8.1-2.4.3-4.7 1.1-6.8 2.3-2.1 1.2-3.9 2.7-5.4 4.6-.2.2-.3.4-.5.6-.9 1-1.3 2.3-1 3.7 0 .1.1.2.1.3 1.3 2.1 6.4 1.6 11.5-1.3 5.1-2.8 8.2-6.8 6.9-9Z" fill="url(#i)"/><defs><linearGradient id="a" x1=".153" y1="77.058" x2="189.298" y2="77.058" gradientUnits="userSpaceOnUse"><stop stop-color="#1C8AE2"/><stop offset=".486" stop-color="#8B00B3"/><stop offset="1" stop-color="#6900B5"/></linearGradient><linearGradient id="b" x1=".153" y1="64.22" x2="189.297" y2="64.22" gradientUnits="userSpaceOnUse"><stop stop-color="#1C8AE2"/><stop offset=".486" stop-color="#8B00B3"/><stop offset="1" stop-color="#6900B5"/></linearGradient><linearGradient id="c" x1=".154" y1="80.211" x2="189.298" y2="80.211" gradientUnits="userSpaceOnUse"><stop stop-color="#1C8AE2"/><stop offset=".486" stop-color="#8B00B3"/><stop offset="1" stop-color="#6900B5"/></linearGradient><linearGradient id="d" x1=".153" y1="75.428" x2="189.298" y2="75.428" gradientUnits="userSpaceOnUse"><stop stop-color="#1C8AE2"/><stop offset=".486" stop-color="#8B00B3"/><stop offset="1" stop-color="#6900B5"/></linearGradient><linearGradient id="e" x1=".153" y1="80.211" x2="189.297" y2="80.211" gradientUnits="userSpaceOnUse"><stop stop-color="#1C8AE2"/><stop offset=".486" stop-color="#8B00B3"/><stop offset="1" stop-color="#6900B5"/></linearGradient><linearGradient id="f" x1=".153" y1="80.211" x2="189.298" y2="80.211" gradientUnits="userSpaceOnUse"><stop stop-color="#1C8AE2"/><stop offset=".486" stop-color="#8B00B3"/><stop offset="1" stop-color="#6900B5"/></linearGradient><linearGradient id="g" x1=".153" y1="80.374" x2="189.298" y2="80.374" gradientUnits="userSpaceOnUse"><stop stop-color="#1C8AE2"/><stop offset=".486" stop-color="#8B00B3"/><stop offset="1" stop-color="#6900B5"/></linearGradient><linearGradient id="h" x1=".153" y1="80.14" x2="189.297" y2="80.14" gradientUnits="userSpaceOnUse"><stop stop-color="#1C8AE2"/><stop offset=".486" stop-color="#8B00B3"/><stop offset="1" stop-color="#6900B5"/></linearGradient><radialGradient id="i" cx="0" cy="0" r="1" gradientUnits="userSpaceOnUse" gradientTransform="matrix(18.5109 0 0 17.9852 18.542 77.058)"><stop/><stop offset=".48"/><stop offset="1" stop-color="#474A4B"/></radialGradient></defs></svg>