<svg width="200" height="155" fill="none" xmlns="http://www.w3.org/2000/svg"><g clip-path="url(#a)"><path d="M7.2 60.2H0v34.4h7.2V60.2Z" fill="url(#b)"/><path d="M19.8 87.4h-9.4v7.2h9.4v-7.2Z" fill="url(#c)"/><path d="M187.5 60.2h-7.2v34.4h7.2V60.2Z" fill="url(#d)"/><path d="M200.1 87.4h-9.4v7.2h9.4v-7.2Z" fill="url(#e)"/><path d="M45.7 60.2h-7.2v34.4h7.2V60.2Z" fill="url(#f)"/><path d="M102.5 87.4 98.3 95 80.4 60.2l8-.2 14.1 27.4Z" fill="url(#g)"/><path d="m100.2 76.1 4.1 7.9 12-23.6-8-.3-8.1 16Z" fill="url(#h)"/><path d="M63.4 87.4H48.9v7.2h14.5v-7.2Z" fill="url(#i)"/><path d="M63.4 73.8H48.9V81h14.5v-7.2Z" fill="url(#j)"/><path d="M63.4 60.2H48.9v7.2h14.5v-7.2Z" fill="url(#k)"/><path d="M141.9 60.2h-7.2v34.4h7.2V60.2Z" fill="url(#l)"/><path d="M159.6 87.4h-14.5v7.2h14.5v-7.2Z" fill="url(#m)"/><path d="M159.6 73.8h-14.5V81h14.5v-7.2Z" fill="url(#n)"/><path d="M159.6 60.2h-14.5v7.2h14.5v-7.2Z" fill="url(#o)"/></g><defs><linearGradient id="i" x1="-1.266" y1="91.013" x2="198.765" y2="91.013" gradientUnits="userSpaceOnUse"><stop stop-color="#1C8AE2"/><stop offset=".486" stop-color="#8B00B3"/><stop offset="1" stop-color="#6900B5"/></linearGradient><linearGradient id="b" x1="-1.267" y1="77.426" x2="198.765" y2="77.426" gradientUnits="userSpaceOnUse"><stop stop-color="#1C8AE2"/><stop offset=".486" stop-color="#8B00B3"/><stop offset="1" stop-color="#6900B5"/></linearGradient><linearGradient id="d" x1="-1.267" y1="77.426" x2="198.765" y2="77.426" gradientUnits="userSpaceOnUse"><stop stop-color="#1C8AE2"/><stop offset=".486" stop-color="#8B00B3"/><stop offset="1" stop-color="#6900B5"/></linearGradient><linearGradient id="e" x1="-1.267" y1="90.999" x2="198.765" y2="90.999" gradientUnits="userSpaceOnUse"><stop stop-color="#1C8AE2"/><stop offset=".486" stop-color="#8B00B3"/><stop offset="1" stop-color="#6900B5"/></linearGradient><linearGradient id="f" x1="-1.267" y1="77.426" x2="198.765" y2="77.426" gradientUnits="userSpaceOnUse"><stop stop-color="#1C8AE2"/><stop offset=".486" stop-color="#8B00B3"/><stop offset="1" stop-color="#6900B5"/></linearGradient><linearGradient id="g" x1="-1.266" y1="77.511" x2="198.765" y2="77.511" gradientUnits="userSpaceOnUse"><stop stop-color="#1C8AE2"/><stop offset=".486" stop-color="#8B00B3"/><stop offset="1" stop-color="#6900B5"/></linearGradient><linearGradient id="h" x1="-1.266" y1="72.032" x2="198.765" y2="72.032" gradientUnits="userSpaceOnUse"><stop stop-color="#1C8AE2"/><stop offset=".486" stop-color="#8B00B3"/><stop offset="1" stop-color="#6900B5"/></linearGradient><linearGradient id="c" x1="-1.266" y1="90.999" x2="198.765" y2="90.999" gradientUnits="userSpaceOnUse"><stop stop-color="#1C8AE2"/><stop offset=".486" stop-color="#8B00B3"/><stop offset="1" stop-color="#6900B5"/></linearGradient><linearGradient id="j" x1="-1.266" y1="77.427" x2="198.765" y2="77.427" gradientUnits="userSpaceOnUse"><stop stop-color="#1C8AE2"/><stop offset=".486" stop-color="#8B00B3"/><stop offset="1" stop-color="#6900B5"/></linearGradient><linearGradient id="k" x1="-1.266" y1="63.853" x2="198.765" y2="63.853" gradientUnits="userSpaceOnUse"><stop stop-color="#1C8AE2"/><stop offset=".486" stop-color="#8B00B3"/><stop offset="1" stop-color="#6900B5"/></linearGradient><linearGradient id="l" x1="-1.266" y1="77.426" x2="198.765" y2="77.426" gradientUnits="userSpaceOnUse"><stop stop-color="#1C8AE2"/><stop offset=".486" stop-color="#8B00B3"/><stop offset="1" stop-color="#6900B5"/></linearGradient><linearGradient id="m" x1="-1.267" y1="90.999" x2="198.765" y2="90.999" gradientUnits="userSpaceOnUse"><stop stop-color="#1C8AE2"/><stop offset=".486" stop-color="#8B00B3"/><stop offset="1" stop-color="#6900B5"/></linearGradient><linearGradient id="n" x1="-1.267" y1="77.427" x2="198.765" y2="77.427" gradientUnits="userSpaceOnUse"><stop stop-color="#1C8AE2"/><stop offset=".486" stop-color="#8B00B3"/><stop offset="1" stop-color="#6900B5"/></linearGradient><linearGradient id="o" x1="-1.267" y1="63.853" x2="198.765" y2="63.853" gradientUnits="userSpaceOnUse"><stop stop-color="#1C8AE2"/><stop offset=".486" stop-color="#8B00B3"/><stop offset="1" stop-color="#6900B5"/></linearGradient><clipPath id="a"><path fill="#fff" d="M0 0h200v155H0z"/></clipPath></defs></svg>