<svg width="200" height="155" fill="none" xmlns="http://www.w3.org/2000/svg"><g clip-path="url(#a)"><path d="M18.53 132.3c.3 5-3.5 9.3-8.5 9.7h-.9c-4.9.2-8.9-3.6-9.1-8.5v-.9c-.4-4.9 3.3-9.3 8.3-9.6h1.1c4.8-.2 8.9 3.5 9.1 8.3.1.3.1.6 0 1Zm-13.7.1c0 3.5 1.8 6.2 4.5 6.2s4.4-2.5 4.4-6.2c0-2.8-1.3-6.1-4.4-6.1-3.1 0-4.5 3.1-4.5 6.1Z" fill="url(#b)"/><path d="M19.13 149.801v-1.9l1.8-1.6c3-2.7 4.4-4.2 4.5-5.8 0-1.1-.7-2-2.2-2-1.1.1-2.2.5-3 1.2l-.9-2.3c1.3-.9 2.9-1.4 4.5-1.4 2.3-.3 4.4 1.3 4.7 3.6v.6c0 2.3-1.6 4.1-3.6 5.9l-1.3 1h5.1v2.6l-9.6.1Z" fill="url(#c)"/><path d="M48.83 141c-1.6.7-3.4 1-5.2.9-4.8.3-9-3.3-9.4-8.2v-1.1c0-5.5 3.7-9.7 10.1-9.7 1.5 0 3 .3 4.4.8l-.8 3.5c-1.1-.5-2.3-.8-3.5-.7-3.2 0-5.9 2.6-5.9 5.9 0 3.2 2.6 5.9 5.9 5.9 1.2 0 2.5-.2 3.6-.7l.8 3.4Z" fill="url(#d)"/><path d="M69.33 132.3c.3 5-3.5 9.3-8.5 9.7h-.8c-4.9.2-8.9-3.6-9.1-8.5v-.9c-.4-5 3.4-9.3 8.3-9.6h1c4.8-.2 8.9 3.5 9.1 8.3v1Zm-13.7.2c0 3.5 1.8 6.2 4.5 6.2s4.4-2.6 4.4-6.2c0-2.8-1.3-6.1-4.4-6.1-3.2-.1-4.6 3-4.5 6.1Z" fill="url(#e)"/><path d="M72.93 128.8c0-2.1 0-3.8-.2-5.5h4l.2 2.7h.1c1.3-2 3.5-3.2 5.8-3.1 3.2 0 6.5 2.1 6.5 7.8v10.8h-4.5v-10.2c0-2.6-1-4.6-3.5-4.6-1.7 0-3.1 1.1-3.6 2.7-.2.5-.2 1-.2 1.5v10.7h-4.6v-12.8Z" fill="url(#f)"/><path d="M94.13 137.301c1.4.8 3 1.3 4.6 1.3 2 0 2.9-.9 2.9-2.1 0-1.2-.7-1.8-3-2.7-3.6-1.2-5-3.1-5-5.3 0-3.2 2.6-5.7 6.9-5.7 1.7 0 3.4.3 4.9 1.1l-.9 3.2c-1.2-.7-2.5-1-3.9-1.1-1.6 0-2.5.8-2.5 1.9 0 1.1.9 1.7 3.2 2.5 3.3 1.1 4.8 2.8 4.9 5.5 0 3.3-2.6 5.7-7.4 5.7-1.9 0-3.8-.4-5.5-1.3l.8-3Z" fill="url(#g)"/><path d="M126.23 136.001c0 2.2 0 4 .2 5.5h-4l-.2-2.7h-.1c-1.3 2-3.5 3.2-5.9 3.1-3.3 0-6.3-2-6.3-7.9v-10.7h4.6v9.9c0 3 1 5 3.4 5 1.6 0 3-1 3.5-2.5.2-.4.3-.9.3-1.4v-11h4.6l-.1 12.7Z" fill="url(#h)"/><path d="M135.829 115h-4.6v26.5h4.6V115Z" fill="url(#i)"/><path d="M146.03 118.699v4.6h4.4v3.4h-4.4v8c0 2.2.6 3.3 2.3 3.3.6 0 1.2 0 1.8-.2v3.5c-1.1.3-2.2.5-3.3.5-1.5.1-2.9-.5-4-1.5-1.1-1.5-1.7-3.3-1.5-5.1v-8.6h-2.5v-3.4h2.6v-3.3l4.6-1.2Z" fill="url(#j)"/><path d="M158.83 118.301c0 1.4-1.1 2.5-2.4 2.5h-.2c-1.4-.1-2.4-1.2-2.4-2.6.1-1.4 1.2-2.4 2.6-2.4 1.4 0 2.4 1.1 2.4 2.5Zm-4.9 5h4.6v18.2h-4.6v-18.2Z" fill="url(#k)"/><path d="M163.53 128.8c0-2.1 0-3.8-.2-5.5h4l.3 2.8c1.3-2 3.5-3.2 5.8-3.1 3.2 0 6.5 2.1 6.5 7.8v10.7h-4.5v-10.2c0-2.6-1-4.6-3.5-4.6-1.7 0-3.1 1.1-3.6 2.7-.2.5-.2 1-.2 1.5v10.7h-4.6v-12.8Z" fill="url(#l)"/><path d="M201.33 138.901c0 3.8-.8 6.5-2.7 8.3-2 1.6-4.5 2.3-7 2.2-2.2 0-4.4-.5-6.4-1.5l1-3.5c1.6.9 3.4 1.4 5.3 1.4 3 0 5.2-1.6 5.2-5.5v-1.6c-1.2 1.8-3.2 2.8-5.4 2.7-4.5 0-7.7-3.6-7.7-8.9 0-6 3.9-9.6 8.3-9.6 2.2-.1 4.2 1 5.3 2.8l.2-2.4h4c0 1.2-.1 2.7-.1 5.2v10.4Zm-4.6-8.3c0-.4 0-.8-.1-1.2-.4-1.7-2-3-3.7-2.9-2.6 0-4.5 2.2-4.5 5.9 0 3.1 1.6 5.6 4.4 5.6 1.7 0 3.2-1.2 3.6-2.8.1-.5.2-1.1.2-1.6l.1-3Z" fill="url(#m)"/><path d="m82.23 73.1-.3-1.3-.3-1h-8c1.5 3.4 3.1 6.8 4.9 10h5.9c-.7-2.5-1.5-5.1-2.2-7.7Z" fill="url(#n)"/><path d="M78.63 56.8h-10.1c1 3.5 2.3 7.1 3.6 10.6h8.5c-.7-3.6-1.4-7.1-2-10.6Z" fill="url(#o)"/><path d="m95.83 93.9-.2-1.5-.3-1.9c-.1-.7-.2-1.3-.3-2h-4.2c.7 2 3.9 9.5 4.2 10.2h1.5c-.2-1.5-.4-3.1-.7-4.8Z" fill="url(#p)"/><path d="M100.83 103.6c0-.5 1.2-7.6 1.5-9.7h-2.9c.2 2.2 1.3 9.3 1.4 9.7Z" fill="url(#q)"/><path d="m87.13 88.5-.4-1.1-.8-2.3-.2-.8h-5.2c1.8 3.1 3.6 6.1 5.7 8.9h2.7c-.6-1.6-1.2-3.1-1.8-4.7Z" fill="url(#r)"/><path d="M77.53 17.1h-10.8c-.8 2.9-1.4 5.9-1.7 8.9h11.5c0-.3.8-7.4 1-8.9Z" fill="url(#s)"/><path d="M109.73 16.4V18l.1 1.8v2h11.1c-.2-2.1-1.4-9.5-1.6-10.2h-10c.1 1.5.3 3.1.4 4.8Z" fill="url(#t)"/><path d="M136.629 26c-.3-3-.9-6-1.7-8.9h-10.9c.3 1.5 1 8.6 1 8.9h11.6Z" fill="url(#u)"/><path d="m76.53 39-.1-1.8c-.1-2.7-.1-5.2 0-7.8h-11.7c-.2 3.4-.1 6.8.3 10.2h11.5V39Z" fill="url(#v)"/><path d="M105.229 5h-8.8c-.1 1-.8 9.1-.9 11.4h10.6c-.2-2.3-.8-10.4-.9-11.4Z" fill="url(#w)"/><path d="m91.73 19.8.1-1.8v-1.6c.1-1.7.2-3.3.3-4.8h-10c-.2.7-1.4 8.1-1.6 10.2h11.1c0-.7 0-1.4.1-2Z" fill="url(#x)"/><path d="M78.13 53.4c-.5-3.6-1-7.1-1.3-10.6h-11.3c.5 3.6 1.2 7.1 2.1 10.6h10.5Z" fill="url(#y)"/><path d="m119.73 71.8-.3 1.3c-.7 2.6-1.5 5.2-2.3 7.8h5.9c1.8-3.3 3.4-6.6 4.9-10h-8l-.2.9Z" fill="url(#z)"/><path d="M123.529 53.4h10.5c.9-3.5 1.6-7 2.1-10.6h-11.3c-.3 3.5-.8 7-1.3 10.6Z" fill="url(#A)"/><path d="m106.229 90.5-.3 1.9-.2 1.5c-.2 1.7-.5 3.3-.7 4.8h1.4c.3-.7 3.5-8.2 4.2-10.2h-4.1c-.1.7-.2 1.4-.3 2Z" fill="url(#B)"/><path d="M122.93 56.8c-.6 3.5-1.3 7-2.1 10.6h8.6c1.4-3.5 2.6-7.1 3.6-10.6h-10.1Z" fill="url(#C)"/><path d="m115.729 85.1-.799 2.3-.401 1.1c-.6 1.6-1.2 3.1-1.8 4.7h2.8c2-2.8 3.9-5.8 5.7-8.9h-5.2l-.3.8Z" fill="url(#D)"/><path d="M136.829 29.4h-11.7v7.8l-.1 1.8v.6h11.5c.4-3.4.5-6.7.3-10.2Z" fill="url(#E)"/><path d="M95.83 56.8c.3 4.8.6 9.6 1 14.4 0 .5 0 1 .1 1.5h7.6c0-.5.1-1 .1-1.5.4-4.8.7-9.6 1-14.4h-9.8Z" fill="url(#F)"/><path d="M95.13 38.8c0 4.7.3 9.6.5 14.6h10.3c.2-5 .4-9.9.5-14.6v-1.3h-11.3v1.3Z" fill="url(#G)"/><path d="m93.73 76.1-.1-1.5-.1-1.5h-7.5c.8 3 1.7 6 2.7 8.9.3 1 .7 2.1 1 3.1h5c-.4-2.9-.7-5.9-1-9Z" fill="url(#H)"/><path d="M91.43 35.9V25.1h-11.3c0 .9-.1 1.7-.1 2.6-.1 3-.1 6.1 0 9.4h11.4v-1.2Z" fill="url(#I)"/><path d="M92.23 56.8h-9.9c.7 3.9 1.5 7.9 2.5 11.9.1.3.2.7.3 1h8.1c-.5-4.3-.8-8.6-1-12.9Z" fill="url(#J)"/><path d="M92.03 53.4c-.2-4.4-.4-8.7-.5-12.9h-11.2v.5c.3 4 .8 8.2 1.4 12.4h10.3Z" fill="url(#K)"/><path d="M98.43 86.6c.2 1.3.3 2.6.5 3.9h3.8c.2-1.3.3-2.6.5-3.9.4-3.4.8-6.9 1.1-10.5h-7c.3 3.6.7 7.1 1.1 10.5Z" fill="url(#L)"/><path d="M109.33 56.8c-.2 4.3-.5 8.6-.9 12.9h8.2c0-.3.2-.7.2-1 1-4 1.8-8 2.5-11.9h-10Z" fill="url(#M)"/><path d="M121.53 27.8c0-.9 0-1.7-.1-2.6h-11.3c0 2.9.1 5.9 0 9v3h11.4c0-3.3.1-6.4 0-9.4Z" fill="url(#N)"/><path d="M109.529 53.4h10.3c.7-4.2 1.1-8.4 1.4-12.4v-.5h-11.2c-.1 4.2-.2 8.6-.5 12.9Z" fill="url(#O)"/><path d="M106.43 23.5c0-1.3-.001-2.5-.101-3.6h-10.9c0 1.2-.1 2.5-.1 3.8 0 3.3-.1 6.9-.1 10.6h11.3c0-3.6.001-7.3-.099-10.6v-.2Z" fill="url(#P)"/><path d="m108.029 74.6-.1 1.5c-.3 3.1-.6 6.1-.9 9h5c.4-1 .7-2 1-3.1 1-2.9 1.8-5.9 2.7-8.9h-7.5l-.2 1.5Z" fill="url(#Q)"/></g><defs><linearGradient id="w" x1="-6.582" y1="10.667" x2="204.755" y2="10.667" gradientUnits="userSpaceOnUse"><stop stop-color="#1C8AE2"/><stop offset=".486" stop-color="#8B00B3"/><stop offset="1" stop-color="#6900B5"/></linearGradient><linearGradient id="b" x1="-6.582" y1="132.453" x2="204.756" y2="132.453" gradientUnits="userSpaceOnUse"><stop stop-color="#1C8AE2"/><stop offset=".486" stop-color="#8B00B3"/><stop offset="1" stop-color="#6900B5"/></linearGradient><linearGradient id="d" x1="-6.582" y1="132.449" x2="204.756" y2="132.449" gradientUnits="userSpaceOnUse"><stop stop-color="#1C8AE2"/><stop offset=".486" stop-color="#8B00B3"/><stop offset="1" stop-color="#6900B5"/></linearGradient><linearGradient id="e" x1="-6.582" y1="132.454" x2="204.756" y2="132.454" gradientUnits="userSpaceOnUse"><stop stop-color="#1C8AE2"/><stop offset=".486" stop-color="#8B00B3"/><stop offset="1" stop-color="#6900B5"/></linearGradient><linearGradient id="f" x1="-6.582" y1="132.182" x2="204.756" y2="132.182" gradientUnits="userSpaceOnUse"><stop stop-color="#1C8AE2"/><stop offset=".486" stop-color="#8B00B3"/><stop offset="1" stop-color="#6900B5"/></linearGradient><linearGradient id="g" x1="-6.581" y1="132.401" x2="204.757" y2="132.401" gradientUnits="userSpaceOnUse"><stop stop-color="#1C8AE2"/><stop offset=".486" stop-color="#8B00B3"/><stop offset="1" stop-color="#6900B5"/></linearGradient><linearGradient id="h" x1="-6.581" y1="132.603" x2="204.756" y2="132.603" gradientUnits="userSpaceOnUse"><stop stop-color="#1C8AE2"/><stop offset=".486" stop-color="#8B00B3"/><stop offset="1" stop-color="#6900B5"/></linearGradient><linearGradient id="i" x1="-6.581" y1="128.287" x2="204.755" y2="128.287" gradientUnits="userSpaceOnUse"><stop stop-color="#1C8AE2"/><stop offset=".486" stop-color="#8B00B3"/><stop offset="1" stop-color="#6900B5"/></linearGradient><linearGradient id="j" x1="-6.581" y1="130.292" x2="204.757" y2="130.292" gradientUnits="userSpaceOnUse"><stop stop-color="#1C8AE2"/><stop offset=".486" stop-color="#8B00B3"/><stop offset="1" stop-color="#6900B5"/></linearGradient><linearGradient id="k" x1="-6.581" y1="128.626" x2="204.756" y2="128.626" gradientUnits="userSpaceOnUse"><stop stop-color="#1C8AE2"/><stop offset=".486" stop-color="#8B00B3"/><stop offset="1" stop-color="#6900B5"/></linearGradient><linearGradient id="l" x1="-6.581" y1="132.218" x2="204.756" y2="132.218" gradientUnits="userSpaceOnUse"><stop stop-color="#1C8AE2"/><stop offset=".486" stop-color="#8B00B3"/><stop offset="1" stop-color="#6900B5"/></linearGradient><linearGradient id="m" x1="-6.582" y1="136.182" x2="204.756" y2="136.182" gradientUnits="userSpaceOnUse"><stop stop-color="#1C8AE2"/><stop offset=".486" stop-color="#8B00B3"/><stop offset="1" stop-color="#6900B5"/></linearGradient><linearGradient id="n" x1="-6.581" y1="75.84" x2="204.756" y2="75.84" gradientUnits="userSpaceOnUse"><stop stop-color="#1C8AE2"/><stop offset=".486" stop-color="#8B00B3"/><stop offset="1" stop-color="#6900B5"/></linearGradient><linearGradient id="o" x1="-6.582" y1="62.141" x2="204.756" y2="62.141" gradientUnits="userSpaceOnUse"><stop stop-color="#1C8AE2"/><stop offset=".486" stop-color="#8B00B3"/><stop offset="1" stop-color="#6900B5"/></linearGradient><linearGradient id="p" x1="-6.581" y1="93.616" x2="204.757" y2="93.616" gradientUnits="userSpaceOnUse"><stop stop-color="#1C8AE2"/><stop offset=".486" stop-color="#8B00B3"/><stop offset="1" stop-color="#6900B5"/></linearGradient><linearGradient id="q" x1="-6.58" y1="98.778" x2="204.755" y2="98.778" gradientUnits="userSpaceOnUse"><stop stop-color="#1C8AE2"/><stop offset=".486" stop-color="#8B00B3"/><stop offset="1" stop-color="#6900B5"/></linearGradient><linearGradient id="r" x1="-6.582" y1="88.72" x2="204.756" y2="88.72" gradientUnits="userSpaceOnUse"><stop stop-color="#1C8AE2"/><stop offset=".486" stop-color="#8B00B3"/><stop offset="1" stop-color="#6900B5"/></linearGradient><linearGradient id="s" x1="-6.582" y1="21.562" x2="204.756" y2="21.562" gradientUnits="userSpaceOnUse"><stop stop-color="#1C8AE2"/><stop offset=".486" stop-color="#8B00B3"/><stop offset="1" stop-color="#6900B5"/></linearGradient><linearGradient id="t" x1="-6.581" y1="16.71" x2="204.757" y2="16.71" gradientUnits="userSpaceOnUse"><stop stop-color="#1C8AE2"/><stop offset=".486" stop-color="#8B00B3"/><stop offset="1" stop-color="#6900B5"/></linearGradient><linearGradient id="u" x1="-6.582" y1="21.562" x2="204.755" y2="21.562" gradientUnits="userSpaceOnUse"><stop stop-color="#1C8AE2"/><stop offset=".486" stop-color="#8B00B3"/><stop offset="1" stop-color="#6900B5"/></linearGradient><linearGradient id="v" x1="-6.581" y1="34.47" x2="204.756" y2="34.47" gradientUnits="userSpaceOnUse"><stop stop-color="#1C8AE2"/><stop offset=".486" stop-color="#8B00B3"/><stop offset="1" stop-color="#6900B5"/></linearGradient><linearGradient id="c" x1="-6.581" y1="142.905" x2="204.756" y2="142.905" gradientUnits="userSpaceOnUse"><stop stop-color="#1C8AE2"/><stop offset=".486" stop-color="#8B00B3"/><stop offset="1" stop-color="#6900B5"/></linearGradient><linearGradient id="x" x1="-6.582" y1="16.637" x2="204.756" y2="16.637" gradientUnits="userSpaceOnUse"><stop stop-color="#1C8AE2"/><stop offset=".486" stop-color="#8B00B3"/><stop offset="1" stop-color="#6900B5"/></linearGradient><linearGradient id="y" x1="-6.582" y1="48.142" x2="204.756" y2="48.142" gradientUnits="userSpaceOnUse"><stop stop-color="#1C8AE2"/><stop offset=".486" stop-color="#8B00B3"/><stop offset="1" stop-color="#6900B5"/></linearGradient><linearGradient id="z" x1="-6.582" y1="75.84" x2="204.757" y2="75.84" gradientUnits="userSpaceOnUse"><stop stop-color="#1C8AE2"/><stop offset=".486" stop-color="#8B00B3"/><stop offset="1" stop-color="#6900B5"/></linearGradient><linearGradient id="A" x1="-6.582" y1="48.142" x2="204.755" y2="48.142" gradientUnits="userSpaceOnUse"><stop stop-color="#1C8AE2"/><stop offset=".486" stop-color="#8B00B3"/><stop offset="1" stop-color="#6900B5"/></linearGradient><linearGradient id="B" x1="-6.581" y1="93.625" x2="204.755" y2="93.625" gradientUnits="userSpaceOnUse"><stop stop-color="#1C8AE2"/><stop offset=".486" stop-color="#8B00B3"/><stop offset="1" stop-color="#6900B5"/></linearGradient><linearGradient id="C" x1="-6.581" y1="62.141" x2="204.756" y2="62.141" gradientUnits="userSpaceOnUse"><stop stop-color="#1C8AE2"/><stop offset=".486" stop-color="#8B00B3"/><stop offset="1" stop-color="#6900B5"/></linearGradient><linearGradient id="D" x1="-6.582" y1="88.683" x2="204.756" y2="88.683" gradientUnits="userSpaceOnUse"><stop stop-color="#1C8AE2"/><stop offset=".486" stop-color="#8B00B3"/><stop offset="1" stop-color="#6900B5"/></linearGradient><linearGradient id="E" x1="-6.582" y1="34.479" x2="204.756" y2="34.479" gradientUnits="userSpaceOnUse"><stop stop-color="#1C8AE2"/><stop offset=".486" stop-color="#8B00B3"/><stop offset="1" stop-color="#6900B5"/></linearGradient><linearGradient id="F" x1="-6.581" y1="64.78" x2="204.756" y2="64.78" gradientUnits="userSpaceOnUse"><stop stop-color="#1C8AE2"/><stop offset=".486" stop-color="#8B00B3"/><stop offset="1" stop-color="#6900B5"/></linearGradient><linearGradient id="G" x1="-6.581" y1="45.483" x2="204.756" y2="45.483" gradientUnits="userSpaceOnUse"><stop stop-color="#1C8AE2"/><stop offset=".486" stop-color="#8B00B3"/><stop offset="1" stop-color="#6900B5"/></linearGradient><linearGradient id="H" x1="-6.582" y1="79.097" x2="204.756" y2="79.097" gradientUnits="userSpaceOnUse"><stop stop-color="#1C8AE2"/><stop offset=".486" stop-color="#8B00B3"/><stop offset="1" stop-color="#6900B5"/></linearGradient><linearGradient id="I" x1="-6.581" y1="31.092" x2="204.756" y2="31.092" gradientUnits="userSpaceOnUse"><stop stop-color="#1C8AE2"/><stop offset=".486" stop-color="#8B00B3"/><stop offset="1" stop-color="#6900B5"/></linearGradient><linearGradient id="J" x1="-6.581" y1="63.279" x2="204.757" y2="63.279" gradientUnits="userSpaceOnUse"><stop stop-color="#1C8AE2"/><stop offset=".486" stop-color="#8B00B3"/><stop offset="1" stop-color="#6900B5"/></linearGradient><linearGradient id="K" x1="-6.581" y1="47.003" x2="204.757" y2="47.003" gradientUnits="userSpaceOnUse"><stop stop-color="#1C8AE2"/><stop offset=".486" stop-color="#8B00B3"/><stop offset="1" stop-color="#6900B5"/></linearGradient><linearGradient id="L" x1="-6.581" y1="83.302" x2="204.756" y2="83.302" gradientUnits="userSpaceOnUse"><stop stop-color="#1C8AE2"/><stop offset=".486" stop-color="#8B00B3"/><stop offset="1" stop-color="#6900B5"/></linearGradient><linearGradient id="M" x1="-6.581" y1="63.279" x2="204.756" y2="63.279" gradientUnits="userSpaceOnUse"><stop stop-color="#1C8AE2"/><stop offset=".486" stop-color="#8B00B3"/><stop offset="1" stop-color="#6900B5"/></linearGradient><linearGradient id="N" x1="-6.581" y1="31.192" x2="204.756" y2="31.192" gradientUnits="userSpaceOnUse"><stop stop-color="#1C8AE2"/><stop offset=".486" stop-color="#8B00B3"/><stop offset="1" stop-color="#6900B5"/></linearGradient><linearGradient id="O" x1="-6.582" y1="47.003" x2="204.756" y2="47.003" gradientUnits="userSpaceOnUse"><stop stop-color="#1C8AE2"/><stop offset=".486" stop-color="#8B00B3"/><stop offset="1" stop-color="#6900B5"/></linearGradient><linearGradient id="P" x1="-6.582" y1="27.06" x2="204.756" y2="27.06" gradientUnits="userSpaceOnUse"><stop stop-color="#1C8AE2"/><stop offset=".486" stop-color="#8B00B3"/><stop offset="1" stop-color="#6900B5"/></linearGradient><linearGradient id="Q" x1="-6.582" y1="79.097" x2="204.756" y2="79.097" gradientUnits="userSpaceOnUse"><stop stop-color="#1C8AE2"/><stop offset=".486" stop-color="#8B00B3"/><stop offset="1" stop-color="#6900B5"/></linearGradient><clipPath id="a"><path fill="#fff" d="M0 0h200v155H0z"/></clipPath></defs></svg>