<svg width="200" height="155" fill="none" xmlns="http://www.w3.org/2000/svg"><path d="M.5 72.699v-6.8l3.3-3.1h17.1l3.4 3.1H4.4v6.8h16.1l3.3 3.1v6.4l-3.3 3.1H3.4l-3.4-3.1h19.9v-6.4H3.8l-3.3-3.1Z" fill="url(#a)"/><path d="M34.6 66.1h14.6l3.4 3.1v16.1h-3.9V77h-15v5.3h14.6l-3.1 3.1H32.7l-3.1-3.1V77l3.1-3.1h15.9v-4.7H31.5l3.1-3.1Z" fill="url(#b)"/><path d="M67.3 85.3h-4.6l-3.5-3.1V59.4h3.9v22.8h4.1l.1 3.1Z" fill="url(#c)"/><path d="M75.2 82.2v-13l3.1-3.1h16.8l3.4 3.2v4.9l-3.1 3.1H82.6l-3.1-3h15v-4.9H79.1v13h19.3l-3.1 3.1H78.2l-3-3.3Z" fill="url(#d)"/><path d="M104 73.9v-4.7l3.3-3.1h17l3.4 3.1h-19.8v4.7h16.6l3.3 3.1v5.2l-3.3 3.1h-17.2l-3.3-3.1h19.9V77h-16.6l-3.3-3.1Z" fill="url(#e)"/><path d="M.2 92.8v-1.4l1-.9h5l1 .9H1.4v1.4h4.8l1 .9v1.5l-1 .9h-5l-1-.9H6v-1.5H1.2l-1-.9Z" fill="url(#f)"/><path d="M7.9 95.3v-4.7h1.2v4.7h4.3l-.9.9H8.8l-.9-.9Zm.2 2.3h5.3v-7.1h1.1v7.1l-1 .9H8.9l-.8-.9Z" fill="url(#g)"/><path d="M15.2 92.8v-1.4l1-.9h5l1 .9h-5.8v1.4h4.9l1 .9v1.5l-1 .9h-5.1l-1-.9H21v-1.5h-4.8l-1-.9Z" fill="url(#h)"/><path d="M25.1 95.3v-3.8h-1.3v-.9h1.3v-1h1.2v1H28l.9.9h-2.6v3.8h2.6v.9H26l-.9-.9Z" fill="url(#i)"/><path d="M31.1 95.3v-3.8l.9-.9h4.9l1 .9v1.4l-.9.9h-3.7l-.9-.9h4.4v-1.4h-4.5v3.8H38l-.9.9h-5l-1-.9Z" fill="url(#j)"/><path d="M41.1 90.5v5.6h-1.2v-5.6h1.2Zm8.3.9v4.7h-1.1v-4.7h-3v4.7h-1.2v-4.7h-3l.9-.9h2.2l.5.5.5-.5h3.3l.9.9Z" fill="url(#k)"/><path d="M58.1 88.7v.8l-.2.2H57l-.2-.2v-.8l.2-.2h.9l.2.2Zm-1.2 1.8h1.2v5.6h-1.2v-5.6Z" fill="url(#l)"/><path d="M60.1 90.5h1.2v5.6h-1.2v-5.6Zm2.2 0h3.6l1 .9v4.7h-1.2v-4.7h-4.4l1-.9Z" fill="url(#m)"/><path d="M70.2 95.3v-3.8h-1.3v-.9h1.3v-1h1.2v1h1.7l.9.9h-2.7v3.8H74v.9h-2.9l-.9-.9Z" fill="url(#n)"/><path d="M76.2 95.3v-3.8l.9-.9H82l1 .9v1.4l-.9.9h-3.8l-.9-.9h4.3v-1.4h-4.4v3.8H83l-.9.9h-5l-.9-.9Z" fill="url(#o)"/><path d="M84.6 95.3v-3.8l.9-.9H89l.9.9h-4.2v3.8H90v-4.7h1.2v7.1l-.9.9h-4.6l-.9-.9h5.3v-1.4h-4.6l-.9-1Z" fill="url(#p)"/><path d="M92.8 90.5H94v5.6h-1.2v-5.6Zm2.3 0h2.2l1 .9h-4.1l.9-.9Z" fill="url(#q)"/><path d="M99.8 90.5h4.3l1 .9v4.7h-1.2v-2.5h-4.3v1.5h4.3l-.9.9h-3.7l-.9-.9v-1.5l.9-.9h4.7v-1.4h-5l.8-.8Z" fill="url(#r)"/><path d="M108.8 95.3v-3.8h-1.3v-.9h1.3v-1h1.2v1h1.7l.9.9H110v3.8h2.7v.9h-2.9l-1-.9Z" fill="url(#s)"/><path d="m114.1 91.5 1-.9h5l1 .9v3.8l-1 .9h-5l-1-.9v-3.8Zm5.8 0h-4.6v3.8h4.7l-.1-3.8Z" fill="url(#t)"/><path d="M122.4 90.5h1.2v5.6h-1.2v-5.6Zm2.2 0h2.2l1 .9h-4.1l.9-.9Z" fill="url(#u)"/><path d="M196.3 57h-59.7c-2 0-3.6 1.6-3.6 3.6v31.9c0 2 1.6 3.6 3.6 3.6h59.7c2 0 3.6-1.6 3.6-3.6V60.6c.1-2-1.6-3.6-3.6-3.6ZM156 85.3h-13.8l-3.4-3.1V62.8h3.9v19.4h16.6l-3.3 3.1Zm7.6 0h-3.9V62.8h3.9v22.5Zm28.7-3.1-3.1 3.1h-15.9v8.1h-4V66.1h4v16.1h15v-13h-14.7l3.1-3.1h12.6l3.1 3.1v13h-.1Z" fill="url(#v)"/><defs><linearGradient id="l" x1="-.477" y1="92.348" x2="198.759" y2="92.348" gradientUnits="userSpaceOnUse"><stop stop-color="#1C8AE2"/><stop offset=".486" stop-color="#8B00B3"/><stop offset="1" stop-color="#6900B5"/></linearGradient><linearGradient id="a" x1="-.478" y1="74.05" x2="198.76" y2="74.05" gradientUnits="userSpaceOnUse"><stop stop-color="#1C8AE2"/><stop offset=".486" stop-color="#8B00B3"/><stop offset="1" stop-color="#6900B5"/></linearGradient><linearGradient id="c" x1="-.477" y1="72.341" x2="198.76" y2="72.341" gradientUnits="userSpaceOnUse"><stop stop-color="#1C8AE2"/><stop offset=".486" stop-color="#8B00B3"/><stop offset="1" stop-color="#6900B5"/></linearGradient><linearGradient id="d" x1="-.478" y1="75.704" x2="198.76" y2="75.704" gradientUnits="userSpaceOnUse"><stop stop-color="#1C8AE2"/><stop offset=".486" stop-color="#8B00B3"/><stop offset="1" stop-color="#6900B5"/></linearGradient><linearGradient id="e" x1="-.478" y1="75.667" x2="198.76" y2="75.667" gradientUnits="userSpaceOnUse"><stop stop-color="#1C8AE2"/><stop offset=".486" stop-color="#8B00B3"/><stop offset="1" stop-color="#6900B5"/></linearGradient><linearGradient id="f" x1="-.478" y1="93.329" x2="198.76" y2="93.329" gradientUnits="userSpaceOnUse"><stop stop-color="#1C8AE2"/><stop offset=".486" stop-color="#8B00B3"/><stop offset="1" stop-color="#6900B5"/></linearGradient><linearGradient id="g" x1="-.477" y1="94.534" x2="198.762" y2="94.534" gradientUnits="userSpaceOnUse"><stop stop-color="#1C8AE2"/><stop offset=".486" stop-color="#8B00B3"/><stop offset="1" stop-color="#6900B5"/></linearGradient><linearGradient id="h" x1="-.478" y1="93.329" x2="198.76" y2="93.329" gradientUnits="userSpaceOnUse"><stop stop-color="#1C8AE2"/><stop offset=".486" stop-color="#8B00B3"/><stop offset="1" stop-color="#6900B5"/></linearGradient><linearGradient id="i" x1="-.478" y1="92.881" x2="198.759" y2="92.881" gradientUnits="userSpaceOnUse"><stop stop-color="#1C8AE2"/><stop offset=".486" stop-color="#8B00B3"/><stop offset="1" stop-color="#6900B5"/></linearGradient><linearGradient id="j" x1="-.478" y1="93.365" x2="198.761" y2="93.365" gradientUnits="userSpaceOnUse"><stop stop-color="#1C8AE2"/><stop offset=".486" stop-color="#8B00B3"/><stop offset="1" stop-color="#6900B5"/></linearGradient><linearGradient id="k" x1="-.477" y1="93.358" x2="198.761" y2="93.358" gradientUnits="userSpaceOnUse"><stop stop-color="#1C8AE2"/><stop offset=".486" stop-color="#8B00B3"/><stop offset="1" stop-color="#6900B5"/></linearGradient><linearGradient id="b" x1="-.478" y1="75.667" x2="198.76" y2="75.667" gradientUnits="userSpaceOnUse"><stop stop-color="#1C8AE2"/><stop offset=".486" stop-color="#8B00B3"/><stop offset="1" stop-color="#6900B5"/></linearGradient><linearGradient id="m" x1="-.478" y1="93.358" x2="198.76" y2="93.358" gradientUnits="userSpaceOnUse"><stop stop-color="#1C8AE2"/><stop offset=".486" stop-color="#8B00B3"/><stop offset="1" stop-color="#6900B5"/></linearGradient><linearGradient id="n" x1="-.478" y1="92.881" x2="198.762" y2="92.881" gradientUnits="userSpaceOnUse"><stop stop-color="#1C8AE2"/><stop offset=".486" stop-color="#8B00B3"/><stop offset="1" stop-color="#6900B5"/></linearGradient><linearGradient id="o" x1="-.477" y1="93.365" x2="198.76" y2="93.365" gradientUnits="userSpaceOnUse"><stop stop-color="#1C8AE2"/><stop offset=".486" stop-color="#8B00B3"/><stop offset="1" stop-color="#6900B5"/></linearGradient><linearGradient id="p" x1="-.479" y1="94.534" x2="198.761" y2="94.534" gradientUnits="userSpaceOnUse"><stop stop-color="#1C8AE2"/><stop offset=".486" stop-color="#8B00B3"/><stop offset="1" stop-color="#6900B5"/></linearGradient><linearGradient id="q" x1="-.478" y1="93.358" x2="198.76" y2="93.358" gradientUnits="userSpaceOnUse"><stop stop-color="#1C8AE2"/><stop offset=".486" stop-color="#8B00B3"/><stop offset="1" stop-color="#6900B5"/></linearGradient><linearGradient id="r" x1="-.478" y1="93.358" x2="198.761" y2="93.358" gradientUnits="userSpaceOnUse"><stop stop-color="#1C8AE2"/><stop offset=".486" stop-color="#8B00B3"/><stop offset="1" stop-color="#6900B5"/></linearGradient><linearGradient id="s" x1="-.478" y1="92.881" x2="198.761" y2="92.881" gradientUnits="userSpaceOnUse"><stop stop-color="#1C8AE2"/><stop offset=".486" stop-color="#8B00B3"/><stop offset="1" stop-color="#6900B5"/></linearGradient><linearGradient id="t" x1="-.478" y1="93.358" x2="198.76" y2="93.358" gradientUnits="userSpaceOnUse"><stop stop-color="#1C8AE2"/><stop offset=".486" stop-color="#8B00B3"/><stop offset="1" stop-color="#6900B5"/></linearGradient><linearGradient id="u" x1="-.478" y1="93.358" x2="198.761" y2="93.358" gradientUnits="userSpaceOnUse"><stop stop-color="#1C8AE2"/><stop offset=".486" stop-color="#8B00B3"/><stop offset="1" stop-color="#6900B5"/></linearGradient><linearGradient id="v" x1="-.478" y1="76.599" x2="198.76" y2="76.599" gradientUnits="userSpaceOnUse"><stop stop-color="#1C8AE2"/><stop offset=".486" stop-color="#8B00B3"/><stop offset="1" stop-color="#6900B5"/></linearGradient></defs></svg>