<svg width="200" height="155" fill="none" xmlns="http://www.w3.org/2000/svg"><path d="M61.2 82.7h-2.9l-1.1-2.9H52l-1.1 2.9h-2.7l5-13h2.7l5.3 13Zm-4.8-5.1-1.8-4.8-1.8 4.8h3.6Z" fill="url(#a)"/><path d="M62.6 69.799h5.2c.8 0 1.5 0 2.3.1.5.1 1 .3 1.4.5.4.3.7.7 1 1.1.6 1 .5 2.3-.2 3.2-.3.5-.8.9-1.4 1.1.7.2 1.4.6 1.8 1.2.4.6.7 1.2.6 2 0 .6-.1 1.2-.4 1.7-.3.5-.6 1-1.1 1.4-.5.4-1.1.6-1.7.6-.4 0-1.5.1-3.2.1h-4.3v-13Zm2.7 2.2v3H68.9c.4 0 .8-.2 1.1-.5.3-.3.4-.6.4-1s-.1-.7-.3-1c-.3-.3-.6-.4-1-.5H65.3Zm0 5.2v3.5h2.4c.6 0 1.2 0 1.8-.1.9-.2 1.5-1.2 1.3-2.1 0-.2-.1-.4-.2-.5-.2-.3-.5-.5-.8-.6-.8-.2-1.5-.2-2.3-.2h-2.2Z" fill="url(#b)"/><path d="M86.5 82.7h-2.8l-1.1-2.9h-5.2l-1.1 2.9h-2.7l5-13h2.7l5.2 13Zm-4.8-5.1-1.8-4.8-1.7 4.8h3.5Z" fill="url(#c)"/><path d="M87.9 82.7v-13h2.6v5.1h5.1v-5.1h2.6v13h-2.6v-5.701h-5.1v5.7h-2.6Z" fill="url(#d)"/><path d="M103.9 82.699v-10.7h-3.8v-2.2h10.3v2.2h-3.9v10.8l-2.6-.1Z" fill="url(#e)"/><path d="M112 82.7v-13h4.2c1 0 2.1 0 3.1.2.8.2 1.4.6 1.9 1.3.5.7.8 1.6.8 2.5 0 .7-.2 1.4-.5 2-.3.5-.6.899-1.1 1.299-.4.3-.9.5-1.4.6-.9.1-1.8.2-2.7.2h-1.6v4.9H112Zm2.6-10.701v3.7h1.4c.7 0 1.4 0 2.1-.2.3-.1.6-.3.8-.6.2-.3.3-.6.3-1s-.1-.8-.4-1.2c-.3-.3-.6-.5-1.1-.6-.6-.1-1.2-.1-1.8-.1h-1.3Z" fill="url(#f)"/><path d="M124.1 82.7v-13h9.6v2.2h-6.9v2.9h6.5v2.199h-6.5v3.5h7.2v2.2h-9.9Z" fill="url(#g)"/><path d="M136.2 69.8h2.5v8.6l5.3-8.6h2.6v13h-2.5v-8.5l-5.2 8.5h-2.6v-13h-.1Zm6.7-3.3h1.2c0 .7-.3 1.4-.8 1.9-1.1.9-2.7.9-3.8 0-.5-.5-.8-1.2-.8-1.9h1.2c0 .4.2.7.4 1 .3.2.7.4 1.1.3.4 0 .8-.1 1.1-.3.3-.3.4-.6.4-1Z" fill="url(#h)"/><path d="M150.2 69.799h9v10.8h1.1v5h-2.2v-2.8h-8.2v2.8h-2.2v-5h1.1c.6-1.2.9-2.5 1.1-3.9.2-1.8.3-3.7.3-5.6v-1.3Zm2.5 2.2c.1 2.9-.2 5.8-1.1 8.6h4.9v-8.6h-3.8Z" fill="url(#i)"/><path d="m160.8 82.7 4.4-6.8-4-6.2h3.1l2.6 4.2 2.6-4.2h3l-4 6.4 4.4 6.7h-3.2l-2.9-4.5-2.9 4.5-3.1-.1Z" fill="url(#j)"/><path d="M174.2 69.799h2.5v8.6l5.3-8.6h2.6v13h-2.5v-8.5l-5.2 8.5h-2.6v-13h-.1Z" fill="url(#k)"/><path d="M187.2 82.7v-13h3.9l2.3 8.799 2.3-8.8h3.9v13h-2.4V72.5l-2.6 10.2h-2.5l-2.6-10.2v10.2h-2.3Z" fill="url(#l)"/><path d="M0 98.5 5.1 90 0 84.6v13.9Z" fill="url(#m)"/><path d="M0 84.6 5.1 90 24 84.6H0Z" fill="url(#n)"/><path d="M0 98.5 5.1 90 24 84.6 0 98.5Z" fill="url(#o)"/><path d="m35.9 77.7-9.8-.2-2.1 7.1 11.9-6.9Z" fill="url(#p)"/><path d="m24 84.6 2.1-7.1L12 63.9l12 20.7Z" fill="url(#q)"/><path d="m35.9 77.7-9.8-.2L12 63.9l23.9 13.8Z" fill="url(#r)"/><path d="m0 57 4.8 8.6 7.2-1.7L0 57Z" fill="url(#s)"/><path d="m12 63.9-7.2 1.7-4.8 19 12-20.7Z" fill="url(#t)"/><path d="m0 57 4.8 8.6-4.8 19V57Z" fill="url(#u)"/><defs><linearGradient id="k" x1="-.556" y1="76.249" x2="198.417" y2="76.249" gradientUnits="userSpaceOnUse"><stop stop-color="#1C8AE2"/><stop offset=".486" stop-color="#8B00B3"/><stop offset="1" stop-color="#6900B5"/></linearGradient><linearGradient id="a" x1="-.555" y1="76.249" x2="198.417" y2="76.249" gradientUnits="userSpaceOnUse"><stop stop-color="#1C8AE2"/><stop offset=".486" stop-color="#8B00B3"/><stop offset="1" stop-color="#6900B5"/></linearGradient><linearGradient id="c" x1="-.556" y1="76.249" x2="198.417" y2="76.249" gradientUnits="userSpaceOnUse"><stop stop-color="#1C8AE2"/><stop offset=".486" stop-color="#8B00B3"/><stop offset="1" stop-color="#6900B5"/></linearGradient><linearGradient id="d" x1="-.554" y1="76.249" x2="198.417" y2="76.249" gradientUnits="userSpaceOnUse"><stop stop-color="#1C8AE2"/><stop offset=".486" stop-color="#8B00B3"/><stop offset="1" stop-color="#6900B5"/></linearGradient><linearGradient id="e" x1="-.556" y1="76.269" x2="198.417" y2="76.269" gradientUnits="userSpaceOnUse"><stop stop-color="#1C8AE2"/><stop offset=".486" stop-color="#8B00B3"/><stop offset="1" stop-color="#6900B5"/></linearGradient><linearGradient id="f" x1="-.555" y1="76.243" x2="198.417" y2="76.243" gradientUnits="userSpaceOnUse"><stop stop-color="#1C8AE2"/><stop offset=".486" stop-color="#8B00B3"/><stop offset="1" stop-color="#6900B5"/></linearGradient><linearGradient id="g" x1="-.556" y1="76.27" x2="198.417" y2="76.27" gradientUnits="userSpaceOnUse"><stop stop-color="#1C8AE2"/><stop offset=".486" stop-color="#8B00B3"/><stop offset="1" stop-color="#6900B5"/></linearGradient><linearGradient id="h" x1="-.556" y1="74.633" x2="198.418" y2="74.633" gradientUnits="userSpaceOnUse"><stop stop-color="#1C8AE2"/><stop offset=".486" stop-color="#8B00B3"/><stop offset="1" stop-color="#6900B5"/></linearGradient><linearGradient id="i" x1="-.556" y1="77.661" x2="198.418" y2="77.661" gradientUnits="userSpaceOnUse"><stop stop-color="#1C8AE2"/><stop offset=".486" stop-color="#8B00B3"/><stop offset="1" stop-color="#6900B5"/></linearGradient><linearGradient id="j" x1="-.555" y1="76.235" x2="198.417" y2="76.235" gradientUnits="userSpaceOnUse"><stop stop-color="#1C8AE2"/><stop offset=".486" stop-color="#8B00B3"/><stop offset="1" stop-color="#6900B5"/></linearGradient><linearGradient id="b" x1="-.556" y1="76.274" x2="198.418" y2="76.274" gradientUnits="userSpaceOnUse"><stop stop-color="#1C8AE2"/><stop offset=".486" stop-color="#8B00B3"/><stop offset="1" stop-color="#6900B5"/></linearGradient><linearGradient id="l" x1="-.556" y1="76.249" x2="198.417" y2="76.249" gradientUnits="userSpaceOnUse"><stop stop-color="#1C8AE2"/><stop offset=".486" stop-color="#8B00B3"/><stop offset="1" stop-color="#6900B5"/></linearGradient><linearGradient id="m" x1="-2.258" y1="99.217" x2="2.559" y2="87.261" gradientUnits="userSpaceOnUse"><stop stop-color="#1C8AE2"/><stop offset=".486" stop-color="#8B00B3"/><stop offset="1" stop-color="#6900B5"/></linearGradient><linearGradient id="n" x1="10.128" y1="91.004" x2="11.97" y2="84.644" gradientUnits="userSpaceOnUse"><stop stop-color="#1C8AE2"/><stop offset=".486" stop-color="#8B00B3"/><stop offset="1" stop-color="#6900B5"/></linearGradient><linearGradient id="o" x1="2.302" y1="94.326" x2="17.833" y2="87.994" gradientUnits="userSpaceOnUse"><stop stop-color="#1C8AE2"/><stop offset=".486" stop-color="#8B00B3"/><stop offset="1" stop-color="#6900B5"/></linearGradient><linearGradient id="p" x1="37.435" y1="78.353" x2="24.66" y2="81.165" gradientUnits="userSpaceOnUse"><stop stop-color="#1C8AE2"/><stop offset=".486" stop-color="#8B00B3"/><stop offset="1" stop-color="#6900B5"/></linearGradient><linearGradient id="q" x1="24.523" y1="72.79" x2="18.094" y2="74.375" gradientUnits="userSpaceOnUse"><stop stop-color="#1C8AE2"/><stop offset=".486" stop-color="#8B00B3"/><stop offset="1" stop-color="#6900B5"/></linearGradient><linearGradient id="r" x1="30.856" y1="77.533" x2="19.269" y2="68.757" gradientUnits="userSpaceOnUse"><stop stop-color="#1C8AE2"/><stop offset=".486" stop-color="#8B00B3"/><stop offset="1" stop-color="#6900B5"/></linearGradient><linearGradient id="s" x1="-.449" y1="55.911" x2="8.436" y2="64.81" gradientUnits="userSpaceOnUse"><stop stop-color="#1C8AE2"/><stop offset=".486" stop-color="#8B00B3"/><stop offset="1" stop-color="#6900B5"/></linearGradient><linearGradient id="t" x1="1.817" y1="69.996" x2="7.207" y2="75.51" gradientUnits="userSpaceOnUse"><stop stop-color="#1C8AE2"/><stop offset=".486" stop-color="#8B00B3"/><stop offset="1" stop-color="#6900B5"/></linearGradient><linearGradient id="u" x1="2.428" y1="60.964" x2=".422" y2="76.864" gradientUnits="userSpaceOnUse"><stop stop-color="#1C8AE2"/><stop offset=".486" stop-color="#8B00B3"/><stop offset="1" stop-color="#6900B5"/></linearGradient></defs></svg>