<svg width="201" height="155" fill="none" xmlns="http://www.w3.org/2000/svg"><path d="M10.6 94.502c-.2 0-.4 0-.5.1-.2.1-.3.2-.4.3v2.6H8.5v-4.3h1.1l.1.6c.1-.2.3-.4.5-.5.2-.1.4-.2.7-.2h.4l-.3 1.3h-.2l-.2.1Z" fill="url(#a)"/><path d="m15.1 96.202.6.8c-.2.2-.5.4-.8.5-.3.1-.6.2-.9.2-.6 0-1.2-.2-1.6-.6-.4-.4-.7-1-.6-1.6 0-.6.2-1.2.6-1.6.8-.9 2.2-.9 3.1 0 .4.4.6 1 .6 1.6v.4h-3.2c.1.2.2.5.4.6.2.2.4.3.7.3.2 0 .4 0 .6-.1.1-.2.3-.3.5-.5Zm-1.2-1.9c-.2 0-.4.1-.6.2-.2.1-.3.3-.4.6h2c-.1-.2-.2-.4-.4-.6-.2-.2-.4-.2-.6-.2Z" fill="url(#b)"/><path d="m20 96.202.6.8c-.2.2-.5.4-.8.5-.3.1-.6.2-.9.2-.6 0-1.2-.2-1.6-.6-.4-.4-.7-1-.6-1.6 0-.6.2-1.2.6-1.6.8-.9 2.2-.9 3.1 0 .4.4.6 1 .6 1.6v.4h-3.2c.1.2.2.5.4.6.2.2.5.2.7.2.2 0 .4 0 .6-.1.2-.1.4-.2.5-.4Zm-1.2-2c-.2 0-.4.1-.6.2-.2.1-.3.3-.4.6h2c-.1-.2-.2-.4-.4-.6-.2-.1-.4-.2-.6-.2Z" fill="url(#c)"/><path d="M28 97.6h-1.1l-.1-.6c-.1.2-.3.4-.6.5-.2.1-.5.2-.7.2-.5 0-1.1-.2-1.4-.6-.7-.9-.7-2.2 0-3.2.4-.4.9-.7 1.4-.6.2 0 .5.1.7.2.2.1.4.3.6.5l.1-.6H28v4.2Zm-3.3-2.1c0 .3.1.6.3.8.2.2.5.3.7.3.3 0 .6-.1.8-.3.2-.2.3-.5.3-.8 0-.3-.1-.6-.3-.8-.2-.2-.5-.3-.8-.3-.3 0-.6.1-.7.3-.2.2-.3.5-.3.8Z" fill="url(#d)"/><path d="M33.8 95.501c0 .6-.2 1.1-.6 1.6-.4.4-.9.6-1.4.6-.2 0-.5-.1-.7-.2-.2-.1-.4-.3-.5-.5v2.4h-1.2v-6.1h1.1l.1.6c.1-.2.3-.4.6-.5.2-.1.5-.2.7-.2.6 0 1.1.2 1.4.6.3.5.5 1.1.5 1.7Zm-2.3-1.2c-.3 0-.6.1-.7.3-.2.2-.3.5-.3.8 0 .3.1.6.3.8.2.2.5.3.7.3.3 0 .6-.1.8-.3.2-.2.3-.5.3-.8 0-.3-.1-.6-.3-.8-.3-.2-.5-.3-.8-.3Z" fill="url(#e)"/><path d="M38.9 97.6h-1.1l-.1-.6c-.1.2-.3.4-.6.5-.2.1-.5.2-.7.2-.5 0-1.1-.2-1.4-.6-.8-.9-.8-2.3 0-3.2.4-.4.9-.7 1.4-.6.3 0 .5.1.7.2.2.1.4.3.6.5l.1-.6h1.1v4.2Zm-3.3-2.1c0 .3.1.6.3.8.4.4 1.1.4 1.5 0 .2-.2.3-.5.3-.8 0-.3-.1-.6-.3-.8-.4-.4-1.1-.4-1.5 0-.2.2-.3.5-.3.8Z" fill="url(#f)"/><path d="M42.3 94.502c-.2 0-.4 0-.5.1-.2.1-.3.2-.4.3v2.6h-1.2v-4.3h1.1l.1.6c.1-.2.3-.4.5-.5.2-.1.4-.2.6-.2h.4l-.3 1.3h-.2l-.1.1Z" fill="url(#g)"/><path d="M44.1 94.401h-.9v-1h.9l.2-1.2h1v1.2h1.4v1h-1.4v1.4c0 .2 0 .4.1.5.1.1.2.2.4.2h.3c.1-.1.2-.1.3-.2l.6.9c-.2.2-.4.3-.6.4-.2.1-.5.1-.7.1-.4 0-.9-.1-1.2-.5-.3-.4-.4-.8-.4-1.3v-1.5Z" fill="url(#h)"/><path d="M49.9 94.302c-.2 0-.3.1-.5.2s-.3.3-.4.4v2.6h-1.2v-4.3h1.1l.1.6c.2-.2.3-.4.6-.5.2-.1.4-.2.7-.2.3 0 .6.1.8.2.2.1.4.3.5.6.2-.2.4-.4.7-.6.2-.1.5-.2.8-.2.4 0 .9.2 1.2.5.3.4.5.9.4 1.4v2.5h-1.2v-2.3c0-.2 0-.5-.2-.7-.1-.2-.3-.3-.5-.2-.2 0-.3.1-.5.2s-.3.3-.4.5v2.6h-1.3v-2.3c0-.2-.1-.5-.2-.7-.1-.1-.3-.2-.5-.3Z" fill="url(#i)"/><path d="m58.9 96.202.6.8c-.2.2-.5.4-.8.5-.3.1-.6.2-1 .2-.6 0-1.2-.2-1.6-.6-.4-.4-.7-1-.6-1.6 0-.6.2-1.2.7-1.6.8-.9 2.2-.9 3.1 0 .4.4.6 1 .6 1.6v.4h-3.2c.1.2.2.5.4.6.2.2.5.2.7.2.2 0 .4 0 .6-.1.3-.1.4-.2.5-.4Zm-1.1-2c-.2 0-.4.1-.6.2-.2.1-.3.3-.4.6h2c-.1-.2-.2-.4-.4-.6-.2-.1-.4-.2-.6-.2Z" fill="url(#j)"/><path d="M63 94.402c-.2 0-.4 0-.5.1-.2.1-.3.3-.4.4v2.6h-1.2v-4.3H62l.1.6c.2-.2.4-.4.6-.5.2-.1.5-.2.7-.2.5 0 .9.2 1.2.5.3.4.5.9.4 1.4v2.5h-1.2v-2.3c0-.2-.1-.5-.2-.7-.2 0-.4-.1-.6-.1Z" fill="url(#k)"/><path d="M66.6 94.401h-.9v-1h.9l.2-1.2h1v1.2h1.4v1h-1.4v1.4c0 .2 0 .4.1.5.1.1.2.2.4.2h.3c.1-.1.3-.1.4-.2l.6.9c-.2.2-.4.3-.6.4-.2.1-.5.1-.7.1-.4 0-.9-.1-1.2-.5-.3-.4-.4-.8-.4-1.3l-.1-1.5Z" fill="url(#l)"/><path d="M74.2 93.201c.6 0 1.2.2 1.6.6.4.4.7 1 .6 1.6 0 .6-.2 1.2-.6 1.6-.9.8-2.3.8-3.2 0-.4-.4-.7-1-.6-1.6 0-.6.2-1.2.6-1.6.4-.4 1-.6 1.6-.6Zm0 1.1c-.3 0-.6.1-.8.3-.2.2-.3.5-.3.8 0 .3.1.6.3.8.2.2.5.3.8.3.3 0 .6-.1.7-.3.2-.2.3-.5.3-.8 0-.3-.1-.6-.3-.8-.1-.2-.4-.3-.7-.3Z" fill="url(#m)"/><path d="M79.6 94.402c-.2 0-.4 0-.5.1-.2.1-.3.3-.4.4v2.6h-1.2v-4.3h1.1l.1.6c.2-.2.4-.4.6-.5.2-.1.5-.2.7-.2.5 0 .9.2 1.2.5.3.4.5.9.4 1.4v2.5h-1.2v-2.3c0-.2-.1-.5-.2-.7-.2 0-.4-.1-.6-.1Z" fill="url(#n)"/><path d="M85.1 94.401h-.9v-1h.9l.1-1.2h1v1.2h1.4v1h-1.4v1.4c0 .2 0 .4.1.5.1.1.2.2.4.2h.3c.1 0 .2-.1.3-.2l.6.9c-.2.2-.4.3-.6.4-.2.1-.5.1-.7.1-.4 0-.9-.1-1.2-.5-.3-.4-.5-.8-.4-1.3l.1-1.5Z" fill="url(#o)"/><path d="M91 94.4c-.2 0-.4 0-.5.1-.2.1-.3.3-.4.4v2.6h-1.2v-6.6h1.2v2.9c.2-.2.4-.4.6-.5.2-.1.5-.2.7-.2.5 0 .9.2 1.2.5.3.4.5.9.4 1.4v2.5h-1.2v-2.3c0-.2-.1-.5-.2-.7-.2 0-.4-.1-.6-.1Z" fill="url(#p)"/><path d="m97.2 96.2.6.8c-.2.2-.5.4-.8.5-.3.1-.6.2-.9.2-.6 0-1.2-.2-1.6-.6-.4-.4-.7-1-.6-1.6 0-.6.2-1.2.6-1.6.4-.4 1-.7 1.6-.6.6 0 1.1.2 1.6.6.4.4.6 1 .6 1.6v.4h-3.2c.1.2.2.5.4.6.2.2.5.2.7.2.2 0 .4 0 .6-.1.1-.1.3-.2.4-.4Zm-1.2-2c-.2 0-.4.1-.6.2-.2.1-.3.3-.4.6h2c-.1-.2-.2-.4-.4-.6-.2-.1-.4-.2-.6-.2Z" fill="url(#q)"/><path d="M103.2 94.502c-.2 0-.4 0-.5.1-.2.1-.3.2-.4.3v2.6h-1.2v-4.3h1.1l.2.6c.1-.2.3-.4.5-.5.2-.1.4-.2.6-.2h.4l-.3 1.3h-.2l-.2.1Z" fill="url(#r)"/><path d="M106.5 93.201c.6 0 1.2.2 1.6.6.4.4.7 1 .6 1.6 0 .6-.2 1.2-.6 1.6-.9.8-2.3.8-3.2 0-.4-.4-.7-1-.6-1.6 0-.6.2-1.2.6-1.6.4-.4 1-.6 1.6-.6Zm0 1.1c-.3 0-.6.1-.8.3-.2.2-.3.5-.3.8 0 .3.1.6.3.8.4.4 1.1.4 1.5 0 .2-.2.3-.5.3-.8 0-.3-.1-.6-.3-.8-.1-.2-.4-.3-.7-.3Z" fill="url(#s)"/><path d="M113.9 97.6h-1.1l-.1-.6c-.1.2-.3.4-.6.5-.2.1-.5.2-.7.2-.5 0-1.1-.2-1.4-.6-.8-.9-.8-2.3 0-3.2.4-.4.9-.7 1.4-.6.2 0 .5.1.7.2.2.1.4.3.6.5l.1-.6h1.1v4.2Zm-3.3-2.1c0 .3.1.6.3.8.4.4 1 .4 1.4 0 .2-.2.3-.5.3-.8 0-.3-.1-.6-.3-.8-.2-.2-.5-.3-.7-.3-.3 0-.6.1-.8.3-.1.2-.2.5-.2.8Z" fill="url(#t)"/><path d="M119.4 97.602h-1.1l-.1-.6c-.1.2-.3.4-.6.5-.2.1-.5.2-.7.2-.5 0-1.1-.2-1.4-.6-.8-.9-.8-2.3 0-3.2.4-.4.9-.7 1.4-.6.3 0 .5.1.7.2.2.1.4.3.6.5v-2.9h1.2v6.5Zm-3.3-2.1c0 .3.1.6.3.8.4.4 1.1.4 1.5 0 .2-.2.3-.5.3-.8 0-.3-.1-.6-.3-.8-.4-.4-1.1-.4-1.5 0-.2.2-.3.5-.3.8Z" fill="url(#u)"/><path d="M4.8 97.601H3.5v-6.4h4v1.2H4.8v1.6h2.4v1.1H4.8v2.5Z" fill="url(#v)"/><path d="M27.3 64.002c-3.3-1.8-7-2.8-10.7-2.6-5.2-.2-9.6 3.9-9.8 9.1v.5c-.1 5.3 4.2 9.6 9.4 9.6h.6c1.6 0 3.1-.2 4.6-.7v-5.7h-4.6l-.2-.2v-5.7l.2-.2h10.5l.2.2v16c-3.3 1.8-7 2.7-10.7 2.6-9.4 0-16.8-7-16.8-15.9.1-8.9 7.5-16.1 16.4-15.9h.2c3.7-.2 7.5.5 10.9 2v6.8l-.2.1Z" fill="url(#w)"/><path d="m38.2 55.701.2.3v24.2H50l.2.2v5.7l-.2.2H32.5l-.2-.2v-30.1l.2-.3h5.7Z" fill="url(#x)"/><path d="m94.1 55.3.3.2v24.2h11.5l.2.2v5.7l-.2.2H88.5l-.3-.2V55.5l.3-.2h5.6Z" fill="url(#y)"/><path d="m116 72.9.2.2v12.6l-.2.1h-5.7l-.2-.1V73.1l.2-.2h5.7Z" fill="url(#z)"/><path d="m125.8 65.3.2.3 4.1 11.9 4.2-11.9.2-.3h6.3l.2.3-8 20-.2.2h-5.3l-.2-.2-8.1-20 .3-.3h6.3Z" fill="url(#A)"/><path d="m150 72.9.2.2v12.6l-.2.1h-5.7l-.2-.1V73.1l.2-.2h5.7Z" fill="url(#B)"/><path d="m116 65.3.2.1v5.4l-.2.1h-5.7l-.2-.1v-5.4l.2-.1h5.7Z" fill="url(#C)"/><path d="m150 65.3.2.1v5.4l-.2.1h-5.7l-.2-.1v-5.4l.2-.1h5.7Z" fill="url(#D)"/><path d="m161.3 65.302.2.2v.6c1.7-1 3.5-1.5 5.5-1.5 6.5 0 9.8 3.7 9.8 9.6v11.4l-.2.2h-5.7l-.2-.2v-10.3c0-3.5-1.8-4.8-4.3-4.8-1.8 0-3.6.8-4.8 2.2v12.9l-.2.2h-5.8l-.2-.2v-20.1l.2-.2h5.7Z" fill="url(#E)"/><path d="M200.2 65.6v4.8l-.2.2h-2c.2.7.3 1.4.3 2.2-.1 4.5-3.8 8.1-8.3 8.1-.5 0-1-.1-1.5-.2-.3.2-.4.5-.4.9 0 1.8 12.7.4 12.7 9.2 0 4.3-4.2 6.8-10.3 6.8-6.1 0-11.1-1.5-11.1-6.3.1-2.6 1.7-4.9 4.1-5.9-1-.8-1.6-2-1.5-3.3 0-1.5.8-2.9 2-3.7-1.5-1.4-2.3-3.4-2.2-5.4.1-4.5 3.8-8.1 8.3-8.1 1.1 0 2.2.2 3.3.6h6.8v.1Zm-14.8 24.6c0 1.1 1.3 2 5 2 2.9 0 4.2-.9 4.2-2 0-2.2-4.8-2.6-7-3.5-1.3.7-2.2 2-2.2 3.5Zm1.7-17.5c0 1.6 1.3 2.9 2.9 2.9 1.6 0 2.9-1.3 2.9-2.9 0-1.6-1.3-2.9-2.9-2.9-1.6 0-2.9 1.4-2.9 2.9Z" fill="url(#F)"/><path d="M55.1 81.901c0-2.5 1.9-4.5 4.3-4.7-1.4-1.8-2.1-3.9-2.1-6.2-.1-5.2 4-9.5 9.2-9.6 1.4 0 2.8.3 4.1.8 0-.3-.1-.6-.1-.8 0-2.2 1.5-4.1 3.6-4.6-2.3-1.1-4.8-1.7-7.3-1.8-8.8-.1-16 6.9-16.1 15.7v.2c0 4.1 1.6 8.1 4.5 11.1v-.1" fill="url(#G)"/><path d="M78.1 61.402c0-1.5-1.2-2.8-2.8-2.8-1.6 0-2.8 1.2-2.8 2.8 0 1.6 1.2 2.8 2.8 2.8 1.6 0 2.8-1.3 2.8-2.8Z" fill="url(#H)"/><path d="M59.9 79c-1.6 0-2.9 1.2-2.9 2.8 0 1.6 1.2 2.9 2.8 2.9 1.6 0 2.9-1.2 2.9-2.8v-.1c.1-1.5-1.1-2.8-2.7-2.9 0 .1 0 .1-.1.1Z" fill="url(#I)"/><path d="M80.1 61.9c-.3 2.4-2.4 4.2-4.8 4.2h-.5c.9 1.5 1.3 3.2 1.3 4.9.1 5.2-4 9.5-9.2 9.6-.8 0-1.7-.1-2.5-.3.8 2.3-.3 4.9-2.5 5.9 1.6.5 3.2.7 4.8.7 8.8.1 16-6.9 16.1-15.7V71c.1-3.2-.9-6.4-2.7-9.1Z" fill="url(#J)"/><defs><linearGradient id="s" x1="-.401" y1="95.45" x2="199.718" y2="95.45" gradientUnits="userSpaceOnUse"><stop stop-color="#1C8AE2"/><stop offset=".486" stop-color="#8B00B3"/><stop offset="1" stop-color="#6900B5"/></linearGradient><linearGradient id="a" x1="-.401" y1="95.386" x2="199.72" y2="95.386" gradientUnits="userSpaceOnUse"><stop stop-color="#1C8AE2"/><stop offset=".486" stop-color="#8B00B3"/><stop offset="1" stop-color="#6900B5"/></linearGradient><linearGradient id="c" x1="-.401" y1="95.451" x2="199.718" y2="95.451" gradientUnits="userSpaceOnUse"><stop stop-color="#1C8AE2"/><stop offset=".486" stop-color="#8B00B3"/><stop offset="1" stop-color="#6900B5"/></linearGradient><linearGradient id="d" x1="-.401" y1="95.449" x2="199.719" y2="95.449" gradientUnits="userSpaceOnUse"><stop stop-color="#1C8AE2"/><stop offset=".486" stop-color="#8B00B3"/><stop offset="1" stop-color="#6900B5"/></linearGradient><linearGradient id="e" x1="-.401" y1="96.333" x2="199.72" y2="96.333" gradientUnits="userSpaceOnUse"><stop stop-color="#1C8AE2"/><stop offset=".486" stop-color="#8B00B3"/><stop offset="1" stop-color="#6900B5"/></linearGradient><linearGradient id="f" x1="-.401" y1="95.449" x2="199.719" y2="95.449" gradientUnits="userSpaceOnUse"><stop stop-color="#1C8AE2"/><stop offset=".486" stop-color="#8B00B3"/><stop offset="1" stop-color="#6900B5"/></linearGradient><linearGradient id="g" x1="-.401" y1="95.386" x2="199.718" y2="95.386" gradientUnits="userSpaceOnUse"><stop stop-color="#1C8AE2"/><stop offset=".486" stop-color="#8B00B3"/><stop offset="1" stop-color="#6900B5"/></linearGradient><linearGradient id="h" x1="-.401" y1="94.927" x2="199.718" y2="94.927" gradientUnits="userSpaceOnUse"><stop stop-color="#1C8AE2"/><stop offset=".486" stop-color="#8B00B3"/><stop offset="1" stop-color="#6900B5"/></linearGradient><linearGradient id="i" x1="-.401" y1="95.399" x2="199.718" y2="95.399" gradientUnits="userSpaceOnUse"><stop stop-color="#1C8AE2"/><stop offset=".486" stop-color="#8B00B3"/><stop offset="1" stop-color="#6900B5"/></linearGradient><linearGradient id="j" x1="-.401" y1="95.45" x2="199.718" y2="95.45" gradientUnits="userSpaceOnUse"><stop stop-color="#1C8AE2"/><stop offset=".486" stop-color="#8B00B3"/><stop offset="1" stop-color="#6900B5"/></linearGradient><linearGradient id="k" x1="-.401" y1="95.399" x2="199.719" y2="95.399" gradientUnits="userSpaceOnUse"><stop stop-color="#1C8AE2"/><stop offset=".486" stop-color="#8B00B3"/><stop offset="1" stop-color="#6900B5"/></linearGradient><linearGradient id="l" x1="-.401" y1="94.912" x2="199.719" y2="94.912" gradientUnits="userSpaceOnUse"><stop stop-color="#1C8AE2"/><stop offset=".486" stop-color="#8B00B3"/><stop offset="1" stop-color="#6900B5"/></linearGradient><linearGradient id="m" x1="-.401" y1="95.45" x2="199.718" y2="95.45" gradientUnits="userSpaceOnUse"><stop stop-color="#1C8AE2"/><stop offset=".486" stop-color="#8B00B3"/><stop offset="1" stop-color="#6900B5"/></linearGradient><linearGradient id="n" x1="-.401" y1="95.399" x2="199.719" y2="95.399" gradientUnits="userSpaceOnUse"><stop stop-color="#1C8AE2"/><stop offset=".486" stop-color="#8B00B3"/><stop offset="1" stop-color="#6900B5"/></linearGradient><linearGradient id="o" x1="-.401" y1="94.927" x2="199.718" y2="94.927" gradientUnits="userSpaceOnUse"><stop stop-color="#1C8AE2"/><stop offset=".486" stop-color="#8B00B3"/><stop offset="1" stop-color="#6900B5"/></linearGradient><linearGradient id="p" x1="-.402" y1="94.3" x2="199.72" y2="94.3" gradientUnits="userSpaceOnUse"><stop stop-color="#1C8AE2"/><stop offset=".486" stop-color="#8B00B3"/><stop offset="1" stop-color="#6900B5"/></linearGradient><linearGradient id="q" x1="-.401" y1="95.449" x2="199.719" y2="95.449" gradientUnits="userSpaceOnUse"><stop stop-color="#1C8AE2"/><stop offset=".486" stop-color="#8B00B3"/><stop offset="1" stop-color="#6900B5"/></linearGradient><linearGradient id="r" x1="-.401" y1="95.386" x2="199.718" y2="95.386" gradientUnits="userSpaceOnUse"><stop stop-color="#1C8AE2"/><stop offset=".486" stop-color="#8B00B3"/><stop offset="1" stop-color="#6900B5"/></linearGradient><linearGradient id="b" x1="-.402" y1="95.451" x2="199.718" y2="95.451" gradientUnits="userSpaceOnUse"><stop stop-color="#1C8AE2"/><stop offset=".486" stop-color="#8B00B3"/><stop offset="1" stop-color="#6900B5"/></linearGradient><linearGradient id="t" x1="-.4" y1="95.449" x2="199.718" y2="95.449" gradientUnits="userSpaceOnUse"><stop stop-color="#1C8AE2"/><stop offset=".486" stop-color="#8B00B3"/><stop offset="1" stop-color="#6900B5"/></linearGradient><linearGradient id="u" x1="-.4" y1="94.337" x2="199.718" y2="94.337" gradientUnits="userSpaceOnUse"><stop stop-color="#1C8AE2"/><stop offset=".486" stop-color="#8B00B3"/><stop offset="1" stop-color="#6900B5"/></linearGradient><linearGradient id="v" x1="-.401" y1="94.408" x2="199.719" y2="94.408" gradientUnits="userSpaceOnUse"><stop stop-color="#1C8AE2"/><stop offset=".486" stop-color="#8B00B3"/><stop offset="1" stop-color="#6900B5"/></linearGradient><linearGradient id="w" x1="-.401" y1="70.992" x2="199.719" y2="70.992" gradientUnits="userSpaceOnUse"><stop stop-color="#1C8AE2"/><stop offset=".486" stop-color="#8B00B3"/><stop offset="1" stop-color="#6900B5"/></linearGradient><linearGradient id="x" x1="-.401" y1="71.004" x2="199.718" y2="71.004" gradientUnits="userSpaceOnUse"><stop stop-color="#1C8AE2"/><stop offset=".486" stop-color="#8B00B3"/><stop offset="1" stop-color="#6900B5"/></linearGradient><linearGradient id="y" x1="-.401" y1="70.565" x2="199.719" y2="70.565" gradientUnits="userSpaceOnUse"><stop stop-color="#1C8AE2"/><stop offset=".486" stop-color="#8B00B3"/><stop offset="1" stop-color="#6900B5"/></linearGradient><linearGradient id="z" x1="-.401" y1="79.372" x2="199.718" y2="79.372" gradientUnits="userSpaceOnUse"><stop stop-color="#1C8AE2"/><stop offset=".486" stop-color="#8B00B3"/><stop offset="1" stop-color="#6900B5"/></linearGradient><linearGradient id="A" x1="-.401" y1="75.579" x2="199.719" y2="75.579" gradientUnits="userSpaceOnUse"><stop stop-color="#1C8AE2"/><stop offset=".486" stop-color="#8B00B3"/><stop offset="1" stop-color="#6900B5"/></linearGradient><linearGradient id="B" x1="-.401" y1="79.372" x2="199.718" y2="79.372" gradientUnits="userSpaceOnUse"><stop stop-color="#1C8AE2"/><stop offset=".486" stop-color="#8B00B3"/><stop offset="1" stop-color="#6900B5"/></linearGradient><linearGradient id="C" x1="-.401" y1="68.101" x2="199.718" y2="68.101" gradientUnits="userSpaceOnUse"><stop stop-color="#1C8AE2"/><stop offset=".486" stop-color="#8B00B3"/><stop offset="1" stop-color="#6900B5"/></linearGradient><linearGradient id="D" x1="-.401" y1="68.101" x2="199.718" y2="68.101" gradientUnits="userSpaceOnUse"><stop stop-color="#1C8AE2"/><stop offset=".486" stop-color="#8B00B3"/><stop offset="1" stop-color="#6900B5"/></linearGradient><linearGradient id="E" x1="-.401" y1="75.286" x2="199.719" y2="75.286" gradientUnits="userSpaceOnUse"><stop stop-color="#1C8AE2"/><stop offset=".486" stop-color="#8B00B3"/><stop offset="1" stop-color="#6900B5"/></linearGradient><linearGradient id="F" x1="-.401" y1="81.038" x2="199.719" y2="81.038" gradientUnits="userSpaceOnUse"><stop stop-color="#1C8AE2"/><stop offset=".486" stop-color="#8B00B3"/><stop offset="1" stop-color="#6900B5"/></linearGradient><linearGradient id="G" x1="-.401" y1="68.589" x2="199.719" y2="68.589" gradientUnits="userSpaceOnUse"><stop stop-color="#1C8AE2"/><stop offset=".486" stop-color="#8B00B3"/><stop offset="1" stop-color="#6900B5"/></linearGradient><linearGradient id="H" x1="-.401" y1="61.357" x2="199.719" y2="61.357" gradientUnits="userSpaceOnUse"><stop stop-color="#1C8AE2"/><stop offset=".486" stop-color="#8B00B3"/><stop offset="1" stop-color="#6900B5"/></linearGradient><linearGradient id="I" x1="-.401" y1="81.914" x2="199.719" y2="81.914" gradientUnits="userSpaceOnUse"><stop stop-color="#1C8AE2"/><stop offset=".486" stop-color="#8B00B3"/><stop offset="1" stop-color="#6900B5"/></linearGradient><linearGradient id="J" x1="-.401" y1="74.438" x2="199.719" y2="74.438" gradientUnits="userSpaceOnUse"><stop stop-color="#1C8AE2"/><stop offset=".486" stop-color="#8B00B3"/><stop offset="1" stop-color="#6900B5"/></linearGradient></defs></svg>