<svg width="200" height="155" fill="none" xmlns="http://www.w3.org/2000/svg"><g clip-path="url(#a)"><path d="m123.1 60.2-11.5-19.9c-.6-1-1.3-1.8-2.3-2.4-1-.6-2.1-.9-3.2-.9s-2.2.3-3.2.9c-1 .6-1.8 1.4-2.3 2.4l-.4.7-.4-.7c-.6-1-1.4-1.8-2.3-2.3-1-.6-2.1-.9-3.2-.9s-2.2.3-3.2.9c-1 .6-1.8 1.4-2.3 2.4L77.3 60.3c-.6 1.1-1 2.3-1 3.5 0 1.5.6 2.9 1.6 4 .6.7 1.4 1.2 2.3 1.5.8.3 1.7.5 2.7.5h.8l-.4.7c-.7 1.1-1 2.3-1.1 3.6 0 .8.2 1.7.5 2.5.3.6.6 1.1 1.1 1.6.7.7 1.5 1.2 2.4 1.5.8.3 1.7.5 2.7.5h22.9c.8 0 1.6-.1 2.3-.4 1.2-.4 2.2-1.1 3-2.1.4-.5.7-1.1.9-1.7.2-.6.3-1.2.3-1.9 0-1.2-.4-2.5-1-3.5l-.4-.7h.8c.8 0 1.6-.1 2.3-.4 1.2-.4 2.2-1.1 3-2.1.4-.5.7-1.1.9-1.7.2-.6.3-1.2.3-1.9-.1-1.3-.4-2.5-1.1-3.6Zm-40.3 8.2c-1 0-1.9-.2-2.8-.7-1.5-.8-2.4-2.3-2.3-4 0-1 .3-2 .8-2.8L90 41c.4-.8 1.1-1.4 1.8-1.9s1.6-.7 2.5-.7c.9 0 1.7.3 2.5.7.7.5 1.4 1.1 1.8 1.9l12.5 21.7h-1.6L97.4 41.8c-.3-.6-.8-1.1-1.3-1.4-1.1-.7-2.4-.7-3.4 0-.6.3-1 .8-1.3 1.4L79.9 61.7c-.4.6-.6 1.4-.6 2.1 0 .9.4 1.7 1 2.3.7.6 1.7.9 2.7.9h2.5l-.8 1.4h-1.9Zm5.3 4.9c-.1.2-.2.5-.2.7v.1s0 .1.3.1c.2.1.4.1.6.1h23c.2 0 .5 0 .7-.1 0 0 .1 0 .1-.1V74c0-.3-.1-.5-.2-.7l-2-3.6h1.6l1.6 2.8c.3.4.4.9.5 1.4 0 .5-.2.9-.6 1.2-.5.4-1.1.6-1.7.5h-23c-.6 0-1.2-.2-1.7-.5-.4-.3-.6-.8-.6-1.2 0-.5.2-1 .4-1.4l11.7-20.3.8 1.4-2.5 4.3-8.8 15.4Zm3.7-3.5h16.9l1.8 3.2H89.9l1.9-3.2Zm-4.1-7.1H84L94.3 45l1.8 3.2-4.1 7.1-4.3 7.4Zm7.2-19.5c-.1-.2-.2-.3-.4-.4h-.4c-.2.1-.3.3-.4.4L82.2 63.1c-.1.2-.2.5-.2.7v.1c.1.1.2.1.3.1.2.1.4.1.6.1H87l-.8 1.4H83c-.6 0-1.2-.2-1.7-.5-.4-.3-.6-.8-.6-1.2 0-.5.2-1 .4-1.4l11.5-19.9c.2-.4.5-.7.9-.9.3-.2.6-.3 1-.3.3 0 .7.1 1 .3.4.2.7.5.9.9l11.7 20.3h-1.6L94.9 43.2Zm9.7 19.5h-8.7l4.4-7.6 4.3 7.6ZM95 64.1h22.5c.2 0 .5 0 .7-.1l.1-.1v-.1c0-.3-.1-.5-.2-.7l-11.5-19.9c-.1-.2-.2-.3-.4-.4h-.4c-.2.1-.3.3-.4.4l-2 3.5-.8-1.4 1.6-2.8c.2-.4.5-.7.9-.9.6-.4 1.4-.4 1.9 0 .4.2.7.5.9.9l11.5 19.9c.3.4.4.9.4 1.4 0 .5-.2.9-.5 1.2-.5.4-1.1.6-1.7.5H94.2l.8-1.4Zm17.7-1.4-8.4-14.6 1.9-3.2 10.3 17.8h-3.8Zm3.2 14c-.6.7-1.4 1.3-2.3 1.6-.6.2-1.3.3-1.9.3h-23c-1 0-1.9-.2-2.8-.7-.8-.5-1.5-1.2-1.9-2-.3-.6-.4-1.2-.4-1.9 0-1 .3-2 .8-2.8l8.8-15.3 3.7-6.4.8 1.4-12.1 21c-.4.6-.6 1.4-.6 2.1 0 .9.4 1.7 1.1 2.3.8.6 1.7.9 2.7.9h23c1 0 1.9-.3 2.7-.9.6-.6 1-1.4 1-2.3 0-.8-.2-1.5-.6-2.1l-1.2-2.1h1.6l.8 1.4c.5.9.8 1.8.8 2.8-.1 1-.4 1.9-1 2.7Zm5.9-10.2c-.6.8-1.4 1.3-2.3 1.6-.6.2-1.2.3-1.9.3h-25l.8-1.4h24.2c1 0 1.9-.3 2.7-.9.7-.6 1.1-1.4 1.1-2.3 0-.8-.3-1.5-.7-2.1l-11.5-19.9c-.3-.6-.8-1.1-1.3-1.4-1.1-.7-2.4-.7-3.4 0-.6.4-1 .8-1.3 1.4l-1.2 2.1-.8-1.4.8-1.5c.4-.8 1.1-1.4 1.8-1.9s1.6-.7 2.4-.7c.9 0 1.7.2 2.4.7.8.5 1.4 1.1 1.8 1.9l11.5 19.9c.5.9.8 1.8.8 2.8 0 1-.3 2-.9 2.8Z" fill="url(#b)"/><path d="m117.3 70.6-.5-.8h-8.1l1.7 2.9h7.8c-.2-.8-.5-1.5-.9-2.1Zm-6.1-10.7H103l1.6 2.7h8.1l-1.5-2.7Z" fill="url(#c)"/><path d="m80.9 68.8-.1.2-.2.4c.7.2 1.5.3 2.2.3h.8l4.1-7.1h-3.2l-3.6 6.2Zm15-6.1-4.1 7.1h3.3l4.1-7.1h-3.3Z" fill="url(#d)"/><path d="m94.5 51 4.1 7.1 1.7-2.9-4.1-7.1-1.7 2.9Zm7.8-11.8-.1-.2-.1-.4c-.6.5-1 1.1-1.4 1.8l-.4.6 4.1 7.1 1.6-2.8-3.7-6.1Z" fill="url(#e)"/><path d="M.6 101.299h1.8c.3 0 .6.2.6.6v15.7c0 .3-.3.6-.6.6H.6c-.3 0-.6-.2-.6-.6v-15.7c0-.3.2-.6.6-.6Z" fill="url(#f)"/><path d="M8.8 101.899c0-.3.2-.6.5-.6h.1c.8 0 2.2 1.9 11 10v-9.4c0-.3.3-.6.6-.6h1.8c.3 0 .6.2.6.6v15.7c0 .5-.2.6-.6.6-.7 0-2.4-2.2-11-9.9v9.3c0 .3-.3.6-.6.6H9.4c-.3 0-.6-.2-.6-.6v-15.7Z" fill="url(#g)"/><path d="M42.6 101.9v1.801c0 .4-.3.599-.7.599h-5v13.3c0 .3-.3.601-.6.601h-1.8c-.3 0-.6-.201-.6-.601v-13.3h-5.1c-.4 0-.7-.199-.7-.599v-1.7c0-.4.3-.701.7-.601h13.1c.3-.1.6.2.7.5Z" fill="url(#h)"/><path d="M50.2 104.299v4h8.2c.3 0 .6.3.6.6v1.8c0 .3-.2.6-.6.6h-8.2v3.9h9.7c.3 0 .6.3.6.6v1.8c0 .3-.2.6-.6.6H47.8c-.3 0-.6-.2-.6-.6v-15.7c0-.3.3-.6.6-.6h12.1c.3 0 .6.3.6.6v1.8c0 .3-.2.6-.6.6h-9.7Z" fill="url(#i)"/><path d="M81 117.899c0 .2-.3.3-.9.3H78c-.5 0-.9-.2-1.2-.6l-3.6-4c-1.3 0-2.7 0-4.2-.1v4.1c0 .3-.3.6-.6.6h-1.8c-.3 0-.6-.2-.6-.6v-15.7c0-.3.3-.6.6-.6h1.8c1.8 0 3.6 0 5.1.1 4.3.2 7.4 1.3 7.4 6.1.2 2.6-1.5 5-4.1 5.6l4 4.5c.1.1.2.2.2.3Zm-12-7.3h4.2c2.9 0 4.6-.8 4.6-3.1s-1.6-3.2-4.3-3.2H69v6.3Z" fill="url(#j)"/><path d="M88.7 104.299v4h8.2c.3 0 .6.3.6.6v1.8c0 .3-.2.6-.6.6h-8.2v3.9h9.6c.3 0 .6.3.6.6v1.8c0 .3-.2.6-.6.6h-12c-.3 0-.6-.2-.6-.6v-15.7c0-.3.3-.6.6-.6h12.1c.3 0 .6.3.6.6v1.8c0 .3-.2.6-.6.6h-9.7Z" fill="url(#k)"/><path d="M104.5 101.899c0-.3.2-.6.5-.6h.1c.8 0 2.2 1.9 11 10v-9.4c0-.3.3-.6.6-.6h1.8c.3 0 .6.2.6.6v15.7c0 .5-.2.6-.6.6-.7 0-2.4-2.2-11-9.9v9.3c0 .3-.3.6-.6.6h-1.8c-.3 0-.6-.2-.6-.6v-15.7Z" fill="url(#l)"/><path d="M128 104.299v4h8.2c.3 0 .6.3.6.6v1.8c0 .3-.2.6-.6.6H128v3.9h9.6c.3 0 .6.3.6.6v1.8c0 .3-.2.6-.6.6h-12c-.3 0-.6-.2-.6-.6v-15.7c0-.3.3-.6.6-.6h12.1c.3 0 .6.3.6.6v1.8c0 .3-.2.6-.6.6H128Z" fill="url(#m)"/><path d="M158.8 117.899c0 .2-.3.3-.9.3h-2.1c-.5 0-.9-.2-1.2-.6l-3.6-4c-1.3 0-2.7 0-4.2-.1v4.1c0 .3-.2.6-.6.6h-1.8c-.3 0-.6-.2-.6-.6v-15.7c0-.3.3-.6.6-.6h1.8c1.8 0 3.6 0 5.1.1 4.3.2 7.3 1.3 7.3 6.1.2 2.6-1.5 5-4.1 5.6l4 4.5c.2.1.2.2.3.3Zm-12-7.3h4.2c2.9 0 4.6-.8 4.6-3.1s-1.6-3.2-4.3-3.2h-4.5v6.3Z" fill="url(#n)"/><path d="M178 109.1v6.6c0 .2-.1.4-.3.6-1.6 1.6-3.8 2.4-6 2.4-4.9 0-8.9-4-8.9-8.9s4-8.9 8.9-8.9c2.2 0 4.4.8 6 2.4.2.3.3.4.3.6 0 .2-.1.3-.2.4l-1.3 1c-.2.1-.4.2-.6.2-.2 0-.5-.1-.7-.2-1-.8-2.2-1.2-3.5-1.1-3.2-.2-5.9 2.3-6.1 5.5-.2 3.2 2.3 5.9 5.5 6.1h.6c1.2.1 2.4-.3 3.4-1v-3h-3.6c-.3 0-.6-.3-.6-.6v-1.8c0-.3.2-.6.6-.6h6c.3-.2.5 0 .5.3Z" fill="url(#o)"/><path d="M182.6 109.8c0-4.9 4-8.9 8.9-8.9s8.9 4 8.9 8.9-4 8.9-8.9 8.9-8.9-4-8.9-8.9Zm14.8 0c0-3.2-2.6-5.8-5.8-5.8-3.2 0-5.8 2.6-5.8 5.8 0 3.2 2.6 5.8 5.8 5.8 3.1.2 5.7-2.2 5.8-5.2v-.6Z" fill="url(#p)"/></g><defs><linearGradient id="j" x1="-.7" y1="109.799" x2="198.708" y2="109.799" gradientUnits="userSpaceOnUse"><stop stop-color="#1C8AE2"/><stop offset=".486" stop-color="#8B00B3"/><stop offset="1" stop-color="#6900B5"/></linearGradient><linearGradient id="b" x1="-.7" y1="58.509" x2="198.708" y2="58.509" gradientUnits="userSpaceOnUse"><stop stop-color="#1C8AE2"/><stop offset=".486" stop-color="#8B00B3"/><stop offset="1" stop-color="#6900B5"/></linearGradient><linearGradient id="d" x1="-.701" y1="66.221" x2="198.708" y2="66.221" gradientUnits="userSpaceOnUse"><stop stop-color="#1C8AE2"/><stop offset=".486" stop-color="#8B00B3"/><stop offset="1" stop-color="#6900B5"/></linearGradient><linearGradient id="e" x1="-.7" y1="48.323" x2="198.708" y2="48.323" gradientUnits="userSpaceOnUse"><stop stop-color="#1C8AE2"/><stop offset=".486" stop-color="#8B00B3"/><stop offset="1" stop-color="#6900B5"/></linearGradient><linearGradient id="f" x1="-.7" y1="109.773" x2="198.708" y2="109.773" gradientUnits="userSpaceOnUse"><stop stop-color="#1C8AE2"/><stop offset=".486" stop-color="#8B00B3"/><stop offset="1" stop-color="#6900B5"/></linearGradient><linearGradient id="g" x1="-.7" y1="109.771" x2="198.708" y2="109.771" gradientUnits="userSpaceOnUse"><stop stop-color="#1C8AE2"/><stop offset=".486" stop-color="#8B00B3"/><stop offset="1" stop-color="#6900B5"/></linearGradient><linearGradient id="h" x1="-.7" y1="109.779" x2="198.708" y2="109.779" gradientUnits="userSpaceOnUse"><stop stop-color="#1C8AE2"/><stop offset=".486" stop-color="#8B00B3"/><stop offset="1" stop-color="#6900B5"/></linearGradient><linearGradient id="i" x1="-.7" y1="109.793" x2="198.708" y2="109.793" gradientUnits="userSpaceOnUse"><stop stop-color="#1C8AE2"/><stop offset=".486" stop-color="#8B00B3"/><stop offset="1" stop-color="#6900B5"/></linearGradient><linearGradient id="c" x1="-.7" y1="66.308" x2="198.708" y2="66.308" gradientUnits="userSpaceOnUse"><stop stop-color="#1C8AE2"/><stop offset=".486" stop-color="#8B00B3"/><stop offset="1" stop-color="#6900B5"/></linearGradient><linearGradient id="k" x1="-.7" y1="109.793" x2="198.708" y2="109.793" gradientUnits="userSpaceOnUse"><stop stop-color="#1C8AE2"/><stop offset=".486" stop-color="#8B00B3"/><stop offset="1" stop-color="#6900B5"/></linearGradient><linearGradient id="l" x1="-.7" y1="109.771" x2="198.708" y2="109.771" gradientUnits="userSpaceOnUse"><stop stop-color="#1C8AE2"/><stop offset=".486" stop-color="#8B00B3"/><stop offset="1" stop-color="#6900B5"/></linearGradient><linearGradient id="m" x1="-.7" y1="109.793" x2="198.708" y2="109.793" gradientUnits="userSpaceOnUse"><stop stop-color="#1C8AE2"/><stop offset=".486" stop-color="#8B00B3"/><stop offset="1" stop-color="#6900B5"/></linearGradient><linearGradient id="n" x1="-.7" y1="109.8" x2="198.708" y2="109.8" gradientUnits="userSpaceOnUse"><stop stop-color="#1C8AE2"/><stop offset=".486" stop-color="#8B00B3"/><stop offset="1" stop-color="#6900B5"/></linearGradient><linearGradient id="o" x1="-.7" y1="109.768" x2="198.708" y2="109.768" gradientUnits="userSpaceOnUse"><stop stop-color="#1C8AE2"/><stop offset=".486" stop-color="#8B00B3"/><stop offset="1" stop-color="#6900B5"/></linearGradient><linearGradient id="p" x1="-.7" y1="109.781" x2="198.708" y2="109.781" gradientUnits="userSpaceOnUse"><stop stop-color="#1C8AE2"/><stop offset=".486" stop-color="#8B00B3"/><stop offset="1" stop-color="#6900B5"/></linearGradient><clipPath id="a"><path fill="#fff" d="M0 0h200v155H0z"/></clipPath></defs></svg>