<svg width="172" height="155" fill="none" xmlns="http://www.w3.org/2000/svg"><path d="M57.543 15.023s8.631 3.058 11.239 7.104c-1.259-.36-2.338-.72-2.518-.18-.36 1.708 3.237 2.068 4.856 4.585-1.26-.36-2.518-.989-2.608-.18-.18.81 4.316 2.698 5.395 7.013-1.888-1.168-2.967-1.708-3.417-.899-.45.81 5.575 2.518 5.395 8.812-4.586-6.024-4.855 15.105-6.564 9.8-.719-2.428-11.778-36.055-11.778-36.055Z" fill="url(#a)"/><path d="M129.832 58.091c-.27-1.349-.719-2.607-1.169-3.956-2.068-5.395-5.664-10.07-10.25-13.576-5.215-4.046-11.598-6.294-18.252-6.294-2.517-.09-5.125.09-7.642.539-2.338.36-4.586.9-6.744 1.709 16.094 2.157 30.3 16.004 30.66 32.637l.36.54 14.655 8.361h.18c-.18-6.653-.719-13.396-1.798-19.96Z" fill="url(#b)"/><path d="M85.686 36.512c-6.474 2.158-10.7 6.024-15.465 10.79a42.317 42.317 0 0 0-10.97 19.78 39.991 39.991 0 0 0-1.078 6.563c2.427 1.349 4.765 2.967 6.923 4.675 18.971-28.411 44.596-18.611 51.249-9.08-.359-16.724-14.475-30.57-30.66-32.728Z" fill="url(#c)"/><path d="M85.686 36.512c-6.474 2.158-10.7 6.024-15.465 10.79a42.317 42.317 0 0 0-10.97 19.78 39.991 39.991 0 0 0-1.078 6.563c2.427 1.349 4.765 2.967 6.923 4.675 18.971-28.411 44.596-18.611 51.249-9.08-.359-16.724-14.475-30.57-30.66-32.728Z" fill="url(#d)"/><path d="M70.22 47.302c-.179-4.765-.898-9.53-2.067-14.206C65.456 23.026 58.982 14.305 49.99 9c.27 1.708.45 3.507.63 5.215l-9.711 6.743-15.375 10.79-2.517 1.708 6.113 7.642c3.327-.989 6.744-1.708 10.25-2.248 4.946 0 7.643-.09 9.8-.18 1.53 3.148 2.608 6.564 3.238 10.07.719 4.946.988 9.98.629 14.926v.99a72.196 72.196 0 0 1-.54 6.203c1.978.81 3.867 1.708 5.665 2.787 2.427 1.439 4.765 3.057 7.013 4.765 1.169-2.877 2.068-5.754 2.877-8.721 1.439-5.485 2.248-11.239 2.338-16.903 0-1.978-.09-3.776-.18-5.485ZM47.474 22.217c-.629.27-1.258.45-1.888.63 0 0-.18-1.35 2.967-1.979-.09.09 0 .63-1.079 1.349Z" fill="url(#e)"/><path d="M123.718 43.438s5.664 7.462 7.462 13.396c2.338.18 4.586 1.08 6.294 2.697-1.528-3.956-6.563-12.947-13.756-16.093Z" fill="url(#f)"/><path d="M46.035 91.629c.09-1.17-1.529-1.889-1.889-1.889H1.08s0 4.136 2.967 4.136h32.548l-.72 11.778H10.25l1.618-9.17h-9.26c-.54 6.743-1.53 6.743-1.709 11.418-.09 2.068 2.158 1.709 2.158 1.709h36.684v11.149c0 5.214-3.417 5.214-3.417 5.214h8.632s4.046 0 4.046-4.855v-15.375h-3.867c.09-.179.63-9.8.9-14.115Z" fill="url(#g)"/><path d="M36.234 115.186H0v4.585h36.234v-4.585Z" fill="url(#h)"/><path d="M64.017 106.463v19.511h9.26v-3.596h24.546v-4.586H73.277v-2.158h24.546v-4.585H73.277v-2.068h27.603v13.397c0 2.068-.719 3.596-2.248 3.596h9.081s2.338 0 2.338-4.316v-17.353H66.894c-2.877-.09-2.877 2.158-2.877 2.158Z" fill="url(#i)"/><path d="M93.598 95.225h16.453V90.64H93.598V89.29h-9.261v8.632h-7.553V90.82h-9.26v7.103h-5.305s0 4.585 3.416 4.585h42.978c3.237 0 3.237-4.585 3.237-4.585H93.598v-2.698Z" fill="url(#j)"/><path d="M123.628 90.01c-1.169-.18-2.248.629-2.338 1.798V94.595h20.68v19.331c0 12.048-3.417 12.048-3.417 12.048h10.07s2.518-.18 2.518-10.52v-20.86h17.173c3.596 0 3.596-4.585 3.596-4.585h-48.282Z" fill="url(#k)"/><path d="M126.595 143.866c0-.629.449-1.169 1.079-1.169.629 0 1.169.54 1.169 1.169 0 .63-.45 1.079-1.079 1.169h-.09c-.54 0-1.079-.539-1.079-1.169Z" fill="url(#l)"/><path d="M134.777 133.437v9.621c0 .269.18.539.45.629.27.18.629.27.989.18.359 0 .629-.09.899-.18s.36-.36.36-.629v-2.068h3.416v1.348c0 .45-.09.9-.27 1.349-.449.629-1.078 1.079-1.888 1.079-.719.09-1.528.18-2.247.18h-1.349c-2.697 0-4.046-.719-4.046-2.338v-6.743c-.09-.719.27-1.529.809-1.978.63-.45 1.439-.63 2.248-.63h2.338c1.168-.09 2.427.09 3.506.45.54.18.899.719.899 1.349v1.888h-3.416v-.45" fill="url(#m)"/><path d="M151.95 133.795c-2.608-.719-5.305-.719-7.823 0-.719.27-1.168.989-1.078 1.709v7.282c0 .45.179.899.539 1.259.45.36 1.079.63 1.708.719.989.18 1.978.27 2.967.27 1.529.18 3.147-.09 4.406-.899.36-.36.539-.809.45-1.259v-7.372c0-.81-.45-1.439-1.169-1.709Zm-2.608 9.351c0 .27-.18.54-.449.63-.27.179-.63.269-.989.269-.36 0-.63-.09-.989-.269a.677.677 0 0 1-.45-.63v-9.71l2.697 2.967.18 6.743Z" fill="url(#n)"/><path d="m167.954 133.617-4.226 9.441-4.226-9.441h-3.956v11.419h3.057v-4.406l-1.349-5.215 4.226 9.711h4.496l4.225-9.711-1.348 5.215v.54c0 3.956-1.079 3.956-1.079 3.956h3.416s.81 0 .81-3.507v-7.912h-4.046v-.09Z" fill="url(#o)"/><path d="m22.927 141.17-.72 3.866h-3.506l2.608-11.419h6.203l2.608 11.419h-3.597m-.899-4.406-1.258-6.743-1.35 6.743h2.608Z" fill="url(#p)"/><path d="M42.529 145.036h-3.597c-.27-.45-.45-.899-.45-1.439v-1.079c-.09-.539-.36-1.079-.809-1.348l-2.337-1.978v5.844h-3.507v-11.419h4.765c2.698 0 4.406.36 4.945.989.36.45.45.989.45 1.529v1.168c0 .72-.36 1.439-.899 1.889-.54.449-1.169.629-1.888.629.45 0 .899.09 1.349.27.45.09.899.359 1.168.719.18.27.27.629.27.899v1.888c.09.45.27.989.54 1.439Zm-7.104-11.419v5.395h1.08c.45 0 .899 0 1.348-.18.45-.18.72-.629.72-1.169v-.629" fill="url(#q)"/><path d="M54.756 145.036h-3.507l-2.517-4.406c-.36-.539-.72-.899-1.08-.899v5.305h-3.505v-11.419h3.506v5.035l2.967-5.035h3.417l-3.597 5.395c.36 0 .72.18.99.359.269.18.539.45.718.81l2.608 4.855Z" fill="url(#r)"/><path d="M59.7 143.417v-3.596h3.507v-1.438h-3.506v-.45l-2.518-2.787h6.294v-1.529h-7.283v11.419h7.643v-1.619H59.7Z" fill="url(#s)"/><path d="m12.408 133.617-4.226 9.441-4.226-9.441H0v11.419h3.057v-4.406l-1.349-5.215 4.226 9.711h4.496l4.226-9.711-1.35 5.215v.54c0 3.956-1.078 3.956-1.078 3.956h3.417s.809 0 .809-3.507v-7.912h-4.046v-.09Z" fill="url(#t)"/><path d="M74.986 133.617h-9.26v1.619h2.877v5.214c0 4.586-1.26 4.586-1.26 4.586h3.777s.9 0 .99-3.687v-3.416l-2.338-2.608-.09-.089h5.304v-1.619Z" fill="url(#u)"/><path d="m80.11 139.192-1.078-.27c-.36-.09-.72-.27-.99-.45-.27-.179-.449-.359-.539-.629-.18-.36-.18-.809-.18-1.259 0-.629.09-1.258.36-1.798.27-.449.72-.809 1.259-.899 1.079-.27 2.248-.36 3.416-.36 2.518 0 3.956.45 4.406 1.259.27.54.36 1.169.36 1.798 0 .54-.09 1.079-.36 1.529-.27.36-.54.539-.989.629-.45.18-.9.27-1.349.45l1.08.27c.359.089.719.359 1.078.539.27.18.54.45.63.809.09.36.18.809.18 1.259.09.719-.09 1.349-.54 1.978-.45.449-.99.809-1.618.989-.99.27-1.979.36-3.057.36-2.608 0-4.136-.54-4.676-1.529-.27-.449-.36-.989-.36-1.528 0-.45 0-.899.18-1.349.18-.539.72-.989 1.26-1.169l1.528-.629Zm3.058-3.057-2.518-2.158v3.866c0 .629.45.899 1.439.899.36 0 .719-.09.989-.18.27-.179.36-.449.36-.719v-.809c.09-.36 0-.719-.27-.899Zm.36 6.923v-2.248c0-.27-.18-.539-.45-.719-.36-.18-.72-.18-.99-.18-.988 0-1.438.27-1.438.899v2.248c0 .27.18.539.36.629.36.18.719.27 1.079.18.989 0 1.438-.27 1.438-.809Z" fill="url(#v)"/><path d="m92.429 139.192-.989-.27c-.36-.09-.72-.27-.989-.45-.27-.179-.45-.359-.54-.629-.18-.36-.18-.809-.18-1.259 0-.629.09-1.258.36-1.798.27-.449.72-.809 1.26-.899 1.078-.27 2.247-.36 3.416-.36 2.517 0 3.956.45 4.405 1.259.27.54.36 1.169.27 1.798 0 .54-.09 1.079-.36 1.529-.27.27-.539.539-.988.629-.45.18-.9.27-1.35.45l1.08.27c.36.089.719.269 1.079.539.27.18.54.45.629.809.09.36.18.809.18 1.259.09.719-.09 1.349-.54 1.978-.45.449-.989.809-1.618.989-.99.27-1.978.36-3.057.36-2.607 0-4.136-.54-4.675-1.529-.27-.449-.36-.989-.36-1.528 0-.45 0-.899.18-1.349.18-.539.72-.989 1.259-1.169l1.528-.629Zm3.057-3.057-2.428-2.248v3.956c0 .629.45.899 1.439.899.36 0 .72-.09 1.079-.18.27-.179.36-.449.36-.719v-.809c0-.36-.18-.719-.45-.899Zm.36 6.923v-2.248c0-.27-.18-.539-.45-.719-.36-.18-.72-.27-.989-.18-.989 0-1.438.27-1.438.899v2.248c0 .27.18.539.36.629.359.18.718.27 1.078.18.989 0 1.439-.27 1.439-.809Z" fill="url(#w)"/><path d="m104.746 139.192-1.078-.27a3.31 3.31 0 0 1-.989-.45c-.27-.179-.45-.359-.54-.629-.18-.36-.18-.809-.18-1.259 0-.629.09-1.258.36-1.798.27-.449.719-.809 1.259-.899 1.079-.27 2.247-.36 3.416-.36 2.518 0 3.956.45 4.406 1.259.27.54.36 1.169.27 1.798 0 .54-.09 1.079-.36 1.529-.27.27-.539.539-.989.629l-1.349.45 1.079.27c.36.089.72.269 1.079.539.27.18.45.539.54.899.09.36.179.809.179 1.259.09.719-.089 1.349-.539 1.978-.45.449-.989.809-1.618.989-.989.27-1.978.36-3.057.36-2.608 0-4.136-.54-4.676-1.529-.269-.449-.359-.989-.359-1.528 0-.45 0-.899.179-1.349.18-.539.63-.989 1.259-1.169l1.708-.719Zm3.057-3.057-2.517-2.158v3.866c0 .629.45.899 1.439.899.359 0 .719-.09 1.078-.18.27-.089.45-.449.45-.719v-.809c.09-.36-.09-.719-.45-.899Zm.54 6.923v-2.248c0-.27-.18-.539-.45-.719-.359-.18-.719-.18-.989-.18-.989 0-1.438.27-1.438.899v2.248c0 .27.18.539.359.629.36.18.72.27 1.079.18.899 0 1.439-.27 1.439-.809Z" fill="url(#x)"/><path d="m117.155 139.192-1.079-.27a3.31 3.31 0 0 1-.989-.45c-.27-.179-.45-.359-.54-.629-.18-.36-.18-.809-.18-1.259 0-.629.09-1.258.36-1.798.27-.449.719-.809 1.259-.899 1.079-.27 2.248-.36 3.416-.36 2.518 0 3.956.45 4.406 1.259.27.54.36 1.169.36 1.798 0 .54-.09 1.079-.36 1.529-.27.36-.539.539-.989.629-.45.18-.899.27-1.349.45l1.079.27c.36.089.72.269 1.079.539.27.18.54.45.63.809.09.36.179.809.179 1.259.09.719-.09 1.349-.539 1.978-.45.449-.989.809-1.619.989-.989.27-1.977.36-3.056.36-2.608 0-4.136-.54-4.676-1.529-.27-.449-.359-.989-.359-1.528 0-.45 0-.899.179-1.349.18-.539.72-.989 1.259-1.169l1.529-.629Zm2.967-3.057-2.428-2.158v3.956c0 .629.45.899 1.439.899.359 0 .719-.09.989-.18.269-.18.359-.449.359-.719v-.809c.09-.45-.09-.809-.359-.989Zm.449 6.923v-2.248c0-.27-.18-.539-.449-.719-.27-.18-.63-.27-.989-.18-.989 0-1.439.27-1.439.899v2.248c0 .27.18.539.36.629.359.18.719.27 1.079.18.989 0 1.438-.27 1.438-.809Z" fill="url(#y)"/><defs><linearGradient id="m" x1="-1.828" y1="139.157" x2="171.63" y2="139.157" gradientUnits="userSpaceOnUse"><stop stop-color="#1C8AE2"/><stop offset=".486" stop-color="#8B00B3"/><stop offset="1" stop-color="#6900B5"/></linearGradient><linearGradient id="a" x1="-1.828" y1="33.514" x2="171.63" y2="33.514" gradientUnits="userSpaceOnUse"><stop stop-color="#1C8AE2"/><stop offset=".486" stop-color="#8B00B3"/><stop offset="1" stop-color="#6900B5"/></linearGradient><linearGradient id="c" x1="-1.828" y1="57.417" x2="171.63" y2="57.417" gradientUnits="userSpaceOnUse"><stop stop-color="#1C8AE2"/><stop offset=".486" stop-color="#8B00B3"/><stop offset="1" stop-color="#6900B5"/></linearGradient><linearGradient id="d" x1="-1.828" y1="57.417" x2="171.63" y2="57.417" gradientUnits="userSpaceOnUse"><stop stop-color="#1C8AE2"/><stop offset=".486" stop-color="#8B00B3"/><stop offset="1" stop-color="#6900B5"/></linearGradient><linearGradient id="e" x1="-1.828" y1="43.631" x2="171.63" y2="43.631" gradientUnits="userSpaceOnUse"><stop stop-color="#1C8AE2"/><stop offset=".486" stop-color="#8B00B3"/><stop offset="1" stop-color="#6900B5"/></linearGradient><linearGradient id="f" x1="-1.828" y1="51.456" x2="171.63" y2="51.456" gradientUnits="userSpaceOnUse"><stop stop-color="#1C8AE2"/><stop offset=".486" stop-color="#8B00B3"/><stop offset="1" stop-color="#6900B5"/></linearGradient><linearGradient id="g" x1="-1.828" y1="107.769" x2="171.63" y2="107.769" gradientUnits="userSpaceOnUse"><stop stop-color="#1C8AE2"/><stop offset=".486" stop-color="#8B00B3"/><stop offset="1" stop-color="#6900B5"/></linearGradient><linearGradient id="h" x1="-1.828" y1="117.479" x2="171.63" y2="117.479" gradientUnits="userSpaceOnUse"><stop stop-color="#1C8AE2"/><stop offset=".486" stop-color="#8B00B3"/><stop offset="1" stop-color="#6900B5"/></linearGradient><linearGradient id="i" x1="-1.828" y1="115.085" x2="171.63" y2="115.085" gradientUnits="userSpaceOnUse"><stop stop-color="#1C8AE2"/><stop offset=".486" stop-color="#8B00B3"/><stop offset="1" stop-color="#6900B5"/></linearGradient><linearGradient id="j" x1="-1.828" y1="95.911" x2="171.63" y2="95.911" gradientUnits="userSpaceOnUse"><stop stop-color="#1C8AE2"/><stop offset=".486" stop-color="#8B00B3"/><stop offset="1" stop-color="#6900B5"/></linearGradient><linearGradient id="k" x1="-1.828" y1="108.03" x2="171.63" y2="108.03" gradientUnits="userSpaceOnUse"><stop stop-color="#1C8AE2"/><stop offset=".486" stop-color="#8B00B3"/><stop offset="1" stop-color="#6900B5"/></linearGradient><linearGradient id="l" x1="-1.828" y1="143.842" x2="171.63" y2="143.842" gradientUnits="userSpaceOnUse"><stop stop-color="#1C8AE2"/><stop offset=".486" stop-color="#8B00B3"/><stop offset="1" stop-color="#6900B5"/></linearGradient><linearGradient id="b" x1="-1.828" y1="56.176" x2="171.63" y2="56.176" gradientUnits="userSpaceOnUse"><stop stop-color="#1C8AE2"/><stop offset=".486" stop-color="#8B00B3"/><stop offset="1" stop-color="#6900B5"/></linearGradient><linearGradient id="n" x1="-1.828" y1="139.182" x2="171.63" y2="139.182" gradientUnits="userSpaceOnUse"><stop stop-color="#1C8AE2"/><stop offset=".486" stop-color="#8B00B3"/><stop offset="1" stop-color="#6900B5"/></linearGradient><linearGradient id="o" x1="-1.829" y1="139.284" x2="171.63" y2="139.284" gradientUnits="userSpaceOnUse"><stop stop-color="#1C8AE2"/><stop offset=".486" stop-color="#8B00B3"/><stop offset="1" stop-color="#6900B5"/></linearGradient><linearGradient id="p" x1="-1.829" y1="139.284" x2="171.629" y2="139.284" gradientUnits="userSpaceOnUse"><stop stop-color="#1C8AE2"/><stop offset=".486" stop-color="#8B00B3"/><stop offset="1" stop-color="#6900B5"/></linearGradient><linearGradient id="q" x1="-1.828" y1="139.284" x2="171.631" y2="139.284" gradientUnits="userSpaceOnUse"><stop stop-color="#1C8AE2"/><stop offset=".486" stop-color="#8B00B3"/><stop offset="1" stop-color="#6900B5"/></linearGradient><linearGradient id="r" x1="-1.828" y1="139.284" x2="171.629" y2="139.284" gradientUnits="userSpaceOnUse"><stop stop-color="#1C8AE2"/><stop offset=".486" stop-color="#8B00B3"/><stop offset="1" stop-color="#6900B5"/></linearGradient><linearGradient id="s" x1="-1.828" y1="139.284" x2="171.63" y2="139.284" gradientUnits="userSpaceOnUse"><stop stop-color="#1C8AE2"/><stop offset=".486" stop-color="#8B00B3"/><stop offset="1" stop-color="#6900B5"/></linearGradient><linearGradient id="t" x1="-1.828" y1="139.284" x2="171.63" y2="139.284" gradientUnits="userSpaceOnUse"><stop stop-color="#1C8AE2"/><stop offset=".486" stop-color="#8B00B3"/><stop offset="1" stop-color="#6900B5"/></linearGradient><linearGradient id="u" x1="-1.827" y1="139.284" x2="171.63" y2="139.284" gradientUnits="userSpaceOnUse"><stop stop-color="#1C8AE2"/><stop offset=".486" stop-color="#8B00B3"/><stop offset="1" stop-color="#6900B5"/></linearGradient><linearGradient id="v" x1="-1.829" y1="139.45" x2="171.63" y2="139.45" gradientUnits="userSpaceOnUse"><stop stop-color="#1C8AE2"/><stop offset=".486" stop-color="#8B00B3"/><stop offset="1" stop-color="#6900B5"/></linearGradient><linearGradient id="w" x1="-1.828" y1="139.417" x2="171.63" y2="139.417" gradientUnits="userSpaceOnUse"><stop stop-color="#1C8AE2"/><stop offset=".486" stop-color="#8B00B3"/><stop offset="1" stop-color="#6900B5"/></linearGradient><linearGradient id="x" x1="-1.828" y1="139.476" x2="171.63" y2="139.476" gradientUnits="userSpaceOnUse"><stop stop-color="#1C8AE2"/><stop offset=".486" stop-color="#8B00B3"/><stop offset="1" stop-color="#6900B5"/></linearGradient><linearGradient id="y" x1="-1.828" y1="139.45" x2="171.63" y2="139.45" gradientUnits="userSpaceOnUse"><stop stop-color="#1C8AE2"/><stop offset=".486" stop-color="#8B00B3"/><stop offset="1" stop-color="#6900B5"/></linearGradient></defs></svg>