<svg width="202" height="155" fill="none" xmlns="http://www.w3.org/2000/svg"><path d="m23.05 79.5 8.2-13.3c.4-.7 1.3-1 2-.6s1 1.3.6 2l-.1.1-8.1 13.2 8.6-4.5c.7-.3 1.6 0 1.9.7.3.7.1 1.5-.5 1.9l-7.9 4.1h14.7c3.1-11.5-3.7-23.3-15.2-26.4-1.4-.4-2.8-.6-4.2-.7v23.5Z" fill="url(#a)"/><path d="m18.25 83.1-9.8-10.6c-.6-.6-.6-1.5 0-2 .6-.6 1.5-.6 2 0l.1.1 9.5 10.3V56c-11.8.8-20.8 11-20 22.9.1 1.4.4 2.9.8 4.2h17.4Z" fill="url(#b)"/><path d="M21.65 86H1.85c4.8 10.9 17.6 15.8 28.5 11 4.9-2.2 8.8-6.1 11-11h-19.7Z" fill="url(#c)"/><path d="M78.749 88.699h-5v-13.4c0-1.4 0-3.1.2-4.8h-.1c-.2 1-.4 2-.7 3l-5.3 15.2h-4.2l-5.3-15c-.3-1-.5-2-.7-3.1h-.1c.1 2.2.2 4.1.2 5.8v12.3h-4.5v-22.4h7.4l4.6 13.3c.4 1 .6 2.1.8 3.2.3-1.1.6-2.2.9-3.2l4.6-13.2h7.2v22.3Z" fill="url(#d)"/><path d="M97.15 82.1h-10.4c.2 2.3 1.6 3.5 4.4 3.5 1.6 0 3.2-.4 4.6-1.2V88c-1.8.9-3.8 1.3-5.8 1.2-2.2.1-4.4-.6-6-2.1-1.5-1.6-2.3-3.8-2.1-6-.1-2.3.7-4.6 2.3-6.3 1.5-1.5 3.6-2.4 5.7-2.3 2-.1 4 .6 5.4 2.1 1.4 1.6 2.1 3.6 2 5.6v1.9h-.1Zm-4.6-3.1c0-2.3-.9-3.4-2.8-3.4-.8 0-1.6.4-2.1 1-.6.7-.9 1.6-1 2.6l5.9-.2Z" fill="url(#e)"/><path d="M104.95 65h-4.9v23.6h4.9V65Z" fill="url(#f)"/><path d="M108.05 88.2v-4c.8.5 1.6.8 2.4 1.1.7.2 1.5.4 2.3.4.7 0 1.4-.1 2.1-.4.5-.2.8-.6.8-1.1 0-.3-.1-.6-.3-.8-.3-.2-.6-.4-.9-.5-.4-.2-.8-.3-1.2-.4-.4-.1-.8-.3-1.2-.4-.6-.2-1.1-.5-1.7-.8-.5-.2-.9-.6-1.2-.9-.3-.4-.6-.8-.8-1.3-.2-.6-.3-1.1-.3-1.7 0-.8.2-1.6.6-2.3.4-.6.9-1.2 1.5-1.5.7-.4 1.4-.7 2.2-.9.9-.2 1.7-.3 2.6-.3 1.5 0 2.9.2 4.3.6v3.8c-.6-.4-1.3-.6-2-.8-.7-.2-1.4-.3-2.1-.3-.3 0-.6 0-.9.1-.3.1-.5.1-.8.3-.2.1-.4.2-.5.4-.1.2-.2.4-.2.6 0 .3.1.5.3.8.2.2.5.4.7.5.3.2.7.3 1 .4l1.1.4c.6.2 1.2.5 1.8.8.5.2 1 .5 1.4.9.4.4.7.8.9 1.3.5 1.4.4 2.9-.3 4.2-.4.6-.9 1.1-1.5 1.5-.7.4-1.5.8-2.3.9-.9.2-1.9.3-2.8.3-1.7-.1-3.4-.4-5-.9Z" fill="url(#g)"/><path d="m138.75 72.7-6.5 17.2c-1.5 4.1-3.9 6.2-7.1 6.2-1 0-2-.1-2.9-.4v-3.9c.6.4 1.4.6 2.1.6 1.2.1 2.3-.7 2.7-1.8l.9-2-6.6-15.9h5.5l3 9.7c.2.7.4 1.4.4 2.1.1-.7.3-1.4.5-2.1l3.1-9.7h4.9Z" fill="url(#h)"/><path d="M151.35 88.5c-1 .4-2.2.6-3.3.6-3.5 0-5.2-1.8-5.2-5.4v-7.3h-2.5v-3.6h2.6v-3.5l4.9-1.4v4.9h3.6v3.6h-3.6v6.5c0 1.7.7 2.5 2 2.5.5 0 1.1-.2 1.5-.5v3.6Z" fill="url(#i)"/><path d="M168.549 82.1h-10.5c.2 2.3 1.6 3.5 4.4 3.5 1.6 0 3.2-.4 4.6-1.2V88c-1.8.9-3.8 1.3-5.7 1.2-2.2.1-4.4-.6-6-2.1-1.5-1.6-2.3-3.8-2.1-6-.1-2.3.7-4.6 2.3-6.3 1.5-1.5 3.5-2.4 5.7-2.3 2-.1 4 .6 5.4 2.1 1.3 1.6 2 3.6 1.9 5.6v1.9Zm-4.6-3.1c0-2.3-.9-3.4-2.8-3.4-.8 0-1.6.4-2.1 1-.6.7-.9 1.6-1 2.5h5.9V79Z" fill="url(#j)"/><path d="M183.55 88.1c-1.5.7-3.2 1-4.8.9-2.2.1-4.4-.7-6-2.2-1.5-1.5-2.3-3.5-2.3-5.7-.1-2.4.8-4.7 2.5-6.4 1.8-1.6 4.1-2.5 6.5-2.3 1.4-.1 2.8.2 4.1.7v4.1c-1-.8-2.2-1.2-3.4-1.2-2.4-.2-4.4 1.6-4.6 3.9v.7c-.1 1.2.4 2.4 1.2 3.3.9.8 2.1 1.3 3.3 1.2 1.3 0 2.5-.4 3.6-1.2l-.1 4.2Z" fill="url(#k)"/><path d="M201.949 88.7h-4.9v-9.1c0-2.3-.8-3.5-2.6-3.5-.8 0-1.6.3-2.1 1-.6.7-.8 1.6-.8 2.5v9.1h-4.9V65h4.9v10c1-1.8 2.9-2.8 4.9-2.8 3.6 0 5.4 2.2 5.4 6.5l.1 10Z" fill="url(#l)"/><defs><linearGradient id="g" x1="-.443" y1="80.674" x2="201.04" y2="80.674" gradientUnits="userSpaceOnUse"><stop stop-color="#1C8AE2"/><stop offset=".486" stop-color="#8B00B3"/><stop offset="1" stop-color="#6900B5"/></linearGradient><linearGradient id="a" x1="-.443" y1="69.547" x2="201.04" y2="69.547" gradientUnits="userSpaceOnUse"><stop stop-color="#1C8AE2"/><stop offset=".486" stop-color="#8B00B3"/><stop offset="1" stop-color="#6900B5"/></linearGradient><linearGradient id="c" x1="-.443" y1="92.44" x2="201.039" y2="92.44" gradientUnits="userSpaceOnUse"><stop stop-color="#1C8AE2"/><stop offset=".486" stop-color="#8B00B3"/><stop offset="1" stop-color="#6900B5"/></linearGradient><linearGradient id="d" x1="-.444" y1="77.49" x2="201.039" y2="77.49" gradientUnits="userSpaceOnUse"><stop stop-color="#1C8AE2"/><stop offset=".486" stop-color="#8B00B3"/><stop offset="1" stop-color="#6900B5"/></linearGradient><linearGradient id="e" x1="-.443" y1="80.675" x2="201.04" y2="80.675" gradientUnits="userSpaceOnUse"><stop stop-color="#1C8AE2"/><stop offset=".486" stop-color="#8B00B3"/><stop offset="1" stop-color="#6900B5"/></linearGradient><linearGradient id="f" x1="-.443" y1="76.844" x2="201.04" y2="76.844" gradientUnits="userSpaceOnUse"><stop stop-color="#1C8AE2"/><stop offset=".486" stop-color="#8B00B3"/><stop offset="1" stop-color="#6900B5"/></linearGradient><linearGradient id="b" x1="-.443" y1="69.57" x2="201.039" y2="69.57" gradientUnits="userSpaceOnUse"><stop stop-color="#1C8AE2"/><stop offset=".486" stop-color="#8B00B3"/><stop offset="1" stop-color="#6900B5"/></linearGradient><linearGradient id="h" x1="-.443" y1="84.427" x2="201.04" y2="84.427" gradientUnits="userSpaceOnUse"><stop stop-color="#1C8AE2"/><stop offset=".486" stop-color="#8B00B3"/><stop offset="1" stop-color="#6900B5"/></linearGradient><linearGradient id="i" x1="-.444" y1="78.468" x2="201.04" y2="78.468" gradientUnits="userSpaceOnUse"><stop stop-color="#1C8AE2"/><stop offset=".486" stop-color="#8B00B3"/><stop offset="1" stop-color="#6900B5"/></linearGradient><linearGradient id="j" x1="-.444" y1="80.675" x2="201.039" y2="80.675" gradientUnits="userSpaceOnUse"><stop stop-color="#1C8AE2"/><stop offset=".486" stop-color="#8B00B3"/><stop offset="1" stop-color="#6900B5"/></linearGradient><linearGradient id="k" x1="-.442" y1="80.711" x2="201.04" y2="80.711" gradientUnits="userSpaceOnUse"><stop stop-color="#1C8AE2"/><stop offset=".486" stop-color="#8B00B3"/><stop offset="1" stop-color="#6900B5"/></linearGradient><linearGradient id="l" x1="-.444" y1="76.852" x2="201.039" y2="76.852" gradientUnits="userSpaceOnUse"><stop stop-color="#1C8AE2"/><stop offset=".486" stop-color="#8B00B3"/><stop offset="1" stop-color="#6900B5"/></linearGradient></defs></svg>