<svg width="202" height="155" fill="none" xmlns="http://www.w3.org/2000/svg"><path d="M110.594 93.61c-.6 1.7-1.4 3.4-2.4 4.9-1.8-5.3-14.7-9.9-34.7-11.7-1.3-.6-2.8-.9-4.3-1-2.3-.2-4.6-.1-6.9.4-10.7-.3-21.4.3-32.1 1.9-.3 0-.6-.1-1-.1-2.4-.2-4.8 0-7.1.6-3.3-3.4-6.2-7.3-8.4-11.6.5-.3 1-.8 1.3-1.4.4-.9.4-1.9 0-2.8-.8-1.7-2.3-3.1-4.1-3.7-1.4-5.9-.5-12.1 2.6-17.3.4.1.9.2 1.3.2 1.2.1 2.3-.5 2.9-1.4.5-.9.6-2 .2-2.9-.1-.3-.3-.6-.4-.8 4.6-4.4 11.4-7.4 19.4-8.7 1 1.1 2.5 1.7 4 1.7.9 0 1.8-.3 2.5-1 .3-.4.5-.8.5-1.3h1.1c7.2.1 14.3 1.4 21.1 3.7v.2c.7 1.6 2.3 2.6 4 2.6.6 0 1.3-.2 1.8-.6 2.7 1.1 5.4 2.3 8 3.5l.7-1.3c-2.6-1.6-5.3-3-8-4.3 0-.2-.1-.4-.2-.6-.8-1.5-2.3-2.5-4-2.5-.7 0-1.3.2-1.8.6-7.7-2.9-15.9-4.5-24.2-4.5-1-.9-2.3-1.4-3.6-1.4-1.2-.1-2.4.6-2.8 1.8-8.9 1.1-16.3 4.4-21.6 9.6-.6-.2-1.3-.4-2-.3-1.1-.1-2.2.4-2.9 1.3-.6.9-.6 2-.2 2.9.2.5.5 1 .9 1.4-3.4 5.8-4.6 12.6-3.5 19.3-.7.3-1.3.8-1.7 1.5-.5 1-.5 2.1 0 3 .8 1.7 2.2 3 4 3.6.2.4.3.8.5 1.3 1.9 4.5 4.4 8.7 7.4 12.6-4.3 1-8.4 2.8-12.1 5.3-.2.2-.4.3-.6.5-1.4 0-2.7.3-3.9.9-.8.6.1 1.2 1.9 1.5-1.3 2.599 0 5.099 3.6 7.299-.4.1-.8.2-1.2.5-.7.6.4 1.2 2.5 1.3.8.1 1.5.1 2.3 0 5.2 2.3 12.9 4.1 22.5 5.2 0 .4.9.7 2.3.8 1.1.1 2.3 0 3.4-.2 3.4.3 6.9.4 10.3.5 5.9 2.6 12.1 4.4 18.4 5.4 2 1.6 4.4 2.5 7 2.6h.1c1.7.1 3.4-.6 4.5-1.8 19.4-.6 32.9-11.1 34.4-26.7l.6-6.6-2.3 6.1Zm-70.3 20.099-1.9-.2c.3-.4-.6-.8-2.2-1-1.3-.1-2.5 0-3.7.3-7.3-.7-14.4-2.4-21.2-5 .3-.1.5-.2.8-.3.8-.6-.4-1.2-2.5-1.3h-1.7c-3.5-2.1-4.6-4.5-2.9-6.9 1.4 0 2.8-.4 4.1-1 .7-.5 0-1.1-1.6-1.4 3.3-1.9 6.9-3.3 10.7-4.1 2.1 2.6 4.5 5 7 7.3 0 .7.1 1.5.4 2.2 1.6 3.3 5 5.5 8.7 5.4h.8c3.7 2.4 7.6 4.5 11.6 6.3-2.3-.1-4.4-.2-6.4-.3Zm59.6-7.2c-.5-.7-1.1-1.2-1.8-1.6.2 0 .5-.1.7-.3.4-.3-.2-.6-1.3-.7h-1.2c-4-1.5-8.2-2.5-12.5-2.9 0-.2-.5-.4-1.2-.4-.6 0-1.3 0-1.9.1-4.7-.4-9.4-.5-14.1-.3-.3-.1-.6-.2-.9-.2-.6-.1-1.3 0-1.9.3l-.1.1c-1.6.1-3.2.3-4.7.5 1.5-.1 3.2-.3 4.8-.3.3.1.6.2.9.2.6.1 1.3 0 1.9-.3v-.1c4.1-.2 8.2-.1 12.3.2l1 .1c-.2.2.3.5 1.2.5.7.1 1.4 0 2.1-.2 4 .4 7.9 1.3 11.7 2.7-.2 0-.3.1-.4.2-.4.3.2.6 1.3.7h1c.9.4 1.6 1.2 2 2.1-6.7 3.5-14 5.2-21.5 5.1h-1.2c-2.1-2-4.8-3.1-7.7-3.1-1.7-.1-3.3.6-4.5 1.8-8.9-1.8-17.5-5.1-25.3-9.7-1.6-2.8-4.4-4.7-7.7-5.1-2-1.5-3.9-3.1-5.8-4.8l.6-.1c3.1.2 6.4-.3 7.5-1.1 8.9-1.1 17.9-1.6 26.9-1.5 1.4.6 2.8 1 4.3 1 2.5.2 5.1.1 7.6-.5l1.5.1c18.1 1.5 30.8 5.1 34.8 9.3-2.3 3.4-5.1 6.2-8.4 8.2Z" fill="url(#a)"/><path d="M27.194 50.51h1.1l3.8 10.5h-1.3l-1-2.8h-4l-1 2.8h-1.3l3.7-10.5Zm2.1 6.6-1.6-4.3h-.1l-1.5 4.3h3.2Z" fill="url(#b)"/><path d="M33.693 50.51h5.8v1.1h-4.5v9.4h-1.3v-10.5Z" fill="url(#c)"/><path d="M41.094 50.51h6.5v1.2h-5.3v3.3h4.5v1.2h-4.4v3.7h5.3v1.2h-6.6v-10.6Z" fill="url(#d)"/><path d="M55.994 50.51h1.3v10.5h-1.3v-4.7h-5.2v4.7h-1.3v-10.5h1.3v4.6h5.2v-4.6Z" fill="url(#e)"/><path d="M58.894 50.51h7.8v1.1h-3.3v9.3h-1.3v-9.3h-3.3v-1.1h.1Z" fill="url(#f)"/><path d="M72.294 50.41c2.3 0 3.5 1.2 3.6 3.6h-1.3c-.1-1.7-.8-2.4-2.4-2.4h-.6c-1.6 0-2.4.7-2.4 2.5v3.4c-.1 1.2.8 2.3 2 2.4h1c1.6 0 2.3-1 2.4-2.6h1.2c.2 1.9-1.2 3.6-3.2 3.7h-1.1c-1 0-1.9-.3-2.6-1-.7-.7-1-1.7-1-2.6v-3.4c-.2-1.8 1-3.4 2.8-3.7h.9l.7.1Z" fill="url(#g)"/><path d="M76.693 50.51h7.9v1.1h-3.3v9.3h-1.2v-9.3h-3.3v-1.1h-.1Z" fill="url(#h)"/><path d="M86.094 50.51h4.2c1.6 0 2.9 1.3 2.9 2.8 0 .9-.4 1.7-1.2 2.1 1 .5 1.6 1.5 1.6 2.5 0 .8-.3 1.6-.9 2.1-.6.6-1.4.9-2.2.9h-4.4v-10.4Zm1.3 4.5h3c.4 0 .8-.2 1.1-.5.3-.3.5-.7.5-1.2 0-.4-.2-.9-.5-1.2-.3-.3-.7-.5-1.2-.5h-3l.1 3.4Zm0 4.8h3.1c.5 0 1-.2 1.3-.5.7-.7.7-1.9 0-2.6-.3-.3-.8-.5-1.3-.5h-3.2l.1 3.6Z" fill="url(#i)"/><path d="M99.394 50.409c1.8-.2 3.4 1.1 3.7 2.9v4.2c.1 1.9-1.3 3.5-3.2 3.6h-1.1c-1.9.1-3.5-1.3-3.6-3.2v-3.8c-.2-1.8 1-3.4 2.8-3.7h1.4Zm2.5 3.7c0-1.8-.8-2.5-2.4-2.5h-.6c-1.6 0-2.4.7-2.4 2.5v3.4c-.1 1.2.8 2.3 2 2.4h1c1.2.1 2.3-.8 2.4-2v-3.8Z" fill="url(#j)"/><path d="M109.894 50.51h4.2c.8 0 1.499.3 2.099.9 1.1 1.1 1.1 2.8.1 3.9l-.1.1c-.5.5-1.299.8-2.099.8h-2.901v4.8h-1.299v-10.5Zm1.299 4.5h2.901c.9 0 1.599-.7 1.599-1.7 0-.9-.699-1.6-1.599-1.7h-2.901v3.4Z" fill="url(#k)"/><path d="M120.594 50.51h1.099l3.801 10.5h-1.301l-1-2.8h-4l-1 2.8h-1.299l3.7-10.5Zm2.199 6.6-1.6-4.3-1.5 4.3h3.1Z" fill="url(#l)"/><path d="M126.394 50.51h3.899c.8 0 1.5.3 2 .8.5.6.801 1.3.801 2.1 0 .9-.4 1.8-1.2 2.2.8.6 1.2 1.5 1.2 2.5 0 .8-.301 1.6-.801 2.1-.5.6-1.3.9-2 .8h-3.899v-1.2h3.899c.9 0 1.6-.8 1.5-1.7v-.1c.1-.9-.5-1.8-1.5-1.9h-2.6v-1.2h2.6c.8 0 1.5-.7 1.5-1.5v-.1c.1-.9-.6-1.7-1.5-1.8h-3.899v-1Z" fill="url(#m)"/><path d="M135.094 50.51h4.2c1.6 0 2.9 1.3 2.9 2.8 0 .9-.4 1.7-1.2 2.1 1 .5 1.6 1.5 1.6 2.5 0 .8-.3 1.6-.9 2.1-.6.6-1.4.9-2.2.9h-4.4v-10.4Zm1.2 4.5h3c.4 0 .8-.2 1.1-.5.3-.3.5-.7.5-1.2 0-.9-.7-1.6-1.6-1.7h-2.9v3.4h-.1Zm0 4.8h3.1c.5 0 1-.2 1.3-.5.7-.7.7-1.9 0-2.6-.3-.3-.8-.5-1.3-.5h-3.1v3.6Z" fill="url(#n)"/><path d="M150.994 50.51h1.2v10.5h-1.3v-8.1l-5.5 8.1h-1.1v-10.5h1.3v7.9l5.4-7.9Z" fill="url(#o)"/><path d="M153.594 50.51h7.8v1.1h-3.3v9.3h-1.3v-9.3h-3.3v-1.1h.1Z" fill="url(#p)"/><path d="M169.594 50.51h1.2v10.5h-1.3v-8.1l-5.4 8.1h-1.1v-10.5h1.3v7.9l5.3-7.9Z" fill="url(#q)"/><path d="M179.893 50.51v10.5h-1.3v-4.8h-1.9l-2.6 4.8h-1.4l2.6-4.9h-.2c-.6-.1-1.2-.4-1.7-.9-.4-.5-.7-1.1-.7-1.8 0-.8.3-1.5.8-2 .6-.5 1.3-.8 2.1-.8l4.3-.1Zm-1.2 4.5v-3.3h-2.9c-.4 0-.9.2-1.2.5-.3.3-.5.7-.5 1.2 0 .9.7 1.6 1.7 1.6h2.9Z" fill="url(#r)"/><path d="M32.493 68.51h7.8v1.1h-3.3v9.3h-1.3v-9.3h-3.3v-1.1h.1Z" fill="url(#s)"/><path d="M41.894 68.51h6.6v1.2h-5.3v3.3h4.5v1.2h-4.4v3.7h5.3v1.2h-6.6v-10.6h-.1Z" fill="url(#t)"/><path d="M56.194 68.51h1.5l-3.4 5.2 3.4 5.3h-1.5l-2.6-4.1-2.6 4.1h-1.5l3.4-5.3-3.4-5.2h1.5l2.6 4.1 2.6-4.1Z" fill="url(#u)"/><path d="M65.693 68.51h1.3v10.5h-1.3v-4.7h-5.2v4.7h-1.3v-10.5h1.3v4.6h5.2v-4.6Z" fill="url(#v)"/><path d="M73.494 68.41c1.8-.2 3.4 1 3.7 2.8v4.3c.1 1.9-1.3 3.5-3.2 3.6h-1.1c-1.9.2-3.5-1.2-3.7-3.1v-3.9c-.2-1.8 1-3.4 2.8-3.7h1.5Zm2.5 3.7c0-1.8-.8-2.5-2.4-2.5h-.6c-1.6 0-2.4.7-2.4 2.5v3.4c-.1 1.2.7 2.3 1.9 2.5h1.1c1.2.1 2.3-.8 2.4-2v-3.9Z" fill="url(#w)"/><path d="M80.194 68.51h6v10.5h-1.3v-9.3h-3.6l-.8 7.3c0 1-.7 1.8-1.6 2h-.2l-.1-1.1h.3c.3-.1.5-.4.6-.9l.7-8.5Z" fill="url(#x)"/><path d="M92.693 68.408c1.8-.3 3.5 1 3.7 2.8v4.3c.1 1.9-1.3 3.5-3.2 3.6h-1.2c-1.9.2-3.5-1.2-3.7-3.1v-3.9c-.2-1.8 1-3.4 2.8-3.7h1.6Zm2.4 3.7c0-1.8-.8-2.5-2.4-2.5h-.6c-1.6 0-2.4.7-2.4 2.5v3.4c-.1 1.2.7 2.3 2 2.5h1c1.2.1 2.3-.8 2.4-2v-3.9Z" fill="url(#y)"/><path d="M98.594 68.51h5.8v1.1h-4.5v9.4h-1.3v-10.5Z" fill="url(#z)"/><path d="M112.594 68.51h1.199v10.5h-1.299v-8.1l-5.5 8.1h-1.1v-10.5h1.299v7.9l5.401-7.9Z" fill="url(#A)"/><path d="M122.793 68.51h1.2v10.5h-1.3v-8.1l-5.5 8.1h-1v-10.5h1.3v7.9l5.3-7.9Zm-.7-3.6v.2c0 .4-.2.8-.5 1.1-.3.3-.7.5-1.1.5h-1c-.9 0-1.6-.6-1.6-1.5v-.3h1.1c0 .6.3.8.7.8h.8c.4 0 .7-.3.7-.8h.9Z" fill="url(#B)"/><path d="M130.894 68.51h6.799v1.2h-5.4v3.3h3c.9 0 1.701.3 2.301.9 1.2 1.2 1.2 3.1 0 4.3-.6.6-1.4.9-2.2.9h-4.5v-10.6Zm1.299 9.3h3.1c.5 0 1.001-.2 1.301-.5.7-.7.7-1.9 0-2.6-.3-.3-.801-.5-1.301-.5h-3.1v3.6Z" fill="url(#C)"/><path d="M144.894 68.51h1.5l-3.8 10.5h-1.401l1.301-3.8-3.1-6.6h1.5l2.2 5 1.8-5.1Z" fill="url(#D)"/><path d="M148.594 68.51h6v9.3h1v2.9h-1.3v-1.7h-6.7v1.7h-1.3v-2.9h.9c.3-.2.5-.5.5-.9l.9-8.4Zm4.7 9.3v-8.1h-3.6l-.8 7.4c0 .3-.1.5-.3.7h4.7Z" fill="url(#E)"/><path d="M161.694 68.51h1.5l-3.8 10.5h-1.3l1.3-3.8-3.1-6.6h1.5l2.2 5 1.7-5.1Z" fill="url(#F)"/><path d="M173.993 68.51h1.3v9.3h1.8v3.2h-1.3v-1.9h-11.1v-10.5h1.3v9.3h3.3v-9.3h1.3v9.3h3.4v-9.4Z" fill="url(#G)"/><path d="M178.794 68.51h6.6v1.2h-5.3v3.3h4.5v1.2h-4.5v3.7h5.3v1.2h-6.6v-10.6Z" fill="url(#H)"/><path d="M187.294 68.51h5.8v1.1h-4.5v9.4h-1.3v-10.5Z" fill="url(#I)"/><path d="M198.294 68.41c1.8-.2 3.4 1 3.7 2.8v4.3c0 1-.3 1.9-1 2.6-.7.7-1.7 1-2.6 1h-.6c-1.9.2-3.5-1.2-3.7-3.1v-3.9c-.2-1.8 1-3.4 2.8-3.7h1.4Zm2.5 3.7c0-1.8-.8-2.5-2.4-2.5h-.6c-1.6 0-2.4.7-2.4 2.5v3.4c-.1 1.2.7 2.3 1.9 2.5h1.1c1.2.1 2.3-.8 2.4-2v-3.9Z" fill="url(#J)"/><defs><linearGradient id="s" x1="-4.628" y1="73.74" x2="202.925" y2="73.74" gradientUnits="userSpaceOnUse"><stop stop-color="#1C8AE2"/><stop offset=".486" stop-color="#8B00B3"/><stop offset="1" stop-color="#6900B5"/></linearGradient><linearGradient id="a" x1="-4.628" y1="77.66" x2="202.928" y2="77.66" gradientUnits="userSpaceOnUse"><stop stop-color="#1C8AE2"/><stop offset=".486" stop-color="#8B00B3"/><stop offset="1" stop-color="#6900B5"/></linearGradient><linearGradient id="c" x1="-4.629" y1="55.787" x2="202.929" y2="55.787" gradientUnits="userSpaceOnUse"><stop stop-color="#1C8AE2"/><stop offset=".486" stop-color="#8B00B3"/><stop offset="1" stop-color="#6900B5"/></linearGradient><linearGradient id="d" x1="-4.628" y1="55.787" x2="202.927" y2="55.787" gradientUnits="userSpaceOnUse"><stop stop-color="#1C8AE2"/><stop offset=".486" stop-color="#8B00B3"/><stop offset="1" stop-color="#6900B5"/></linearGradient><linearGradient id="e" x1="-4.628" y1="55.787" x2="202.927" y2="55.787" gradientUnits="userSpaceOnUse"><stop stop-color="#1C8AE2"/><stop offset=".486" stop-color="#8B00B3"/><stop offset="1" stop-color="#6900B5"/></linearGradient><linearGradient id="f" x1="-4.628" y1="55.754" x2="202.928" y2="55.754" gradientUnits="userSpaceOnUse"><stop stop-color="#1C8AE2"/><stop offset=".486" stop-color="#8B00B3"/><stop offset="1" stop-color="#6900B5"/></linearGradient><linearGradient id="g" x1="-4.628" y1="55.762" x2="202.928" y2="55.762" gradientUnits="userSpaceOnUse"><stop stop-color="#1C8AE2"/><stop offset=".486" stop-color="#8B00B3"/><stop offset="1" stop-color="#6900B5"/></linearGradient><linearGradient id="h" x1="-4.629" y1="55.754" x2="202.928" y2="55.754" gradientUnits="userSpaceOnUse"><stop stop-color="#1C8AE2"/><stop offset=".486" stop-color="#8B00B3"/><stop offset="1" stop-color="#6900B5"/></linearGradient><linearGradient id="i" x1="-4.628" y1="55.8" x2="202.928" y2="55.8" gradientUnits="userSpaceOnUse"><stop stop-color="#1C8AE2"/><stop offset=".486" stop-color="#8B00B3"/><stop offset="1" stop-color="#6900B5"/></linearGradient><linearGradient id="j" x1="-4.629" y1="55.733" x2="202.928" y2="55.733" gradientUnits="userSpaceOnUse"><stop stop-color="#1C8AE2"/><stop offset=".486" stop-color="#8B00B3"/><stop offset="1" stop-color="#6900B5"/></linearGradient><linearGradient id="k" x1="-4.627" y1="55.8" x2="202.926" y2="55.8" gradientUnits="userSpaceOnUse"><stop stop-color="#1C8AE2"/><stop offset=".486" stop-color="#8B00B3"/><stop offset="1" stop-color="#6900B5"/></linearGradient><linearGradient id="l" x1="-4.628" y1="55.787" x2="202.927" y2="55.787" gradientUnits="userSpaceOnUse"><stop stop-color="#1C8AE2"/><stop offset=".486" stop-color="#8B00B3"/><stop offset="1" stop-color="#6900B5"/></linearGradient><linearGradient id="m" x1="-4.628" y1="55.794" x2="202.927" y2="55.794" gradientUnits="userSpaceOnUse"><stop stop-color="#1C8AE2"/><stop offset=".486" stop-color="#8B00B3"/><stop offset="1" stop-color="#6900B5"/></linearGradient><linearGradient id="n" x1="-4.628" y1="55.787" x2="202.928" y2="55.787" gradientUnits="userSpaceOnUse"><stop stop-color="#1C8AE2"/><stop offset=".486" stop-color="#8B00B3"/><stop offset="1" stop-color="#6900B5"/></linearGradient><linearGradient id="o" x1="-4.629" y1="55.787" x2="202.928" y2="55.787" gradientUnits="userSpaceOnUse"><stop stop-color="#1C8AE2"/><stop offset=".486" stop-color="#8B00B3"/><stop offset="1" stop-color="#6900B5"/></linearGradient><linearGradient id="p" x1="-4.629" y1="55.754" x2="202.928" y2="55.754" gradientUnits="userSpaceOnUse"><stop stop-color="#1C8AE2"/><stop offset=".486" stop-color="#8B00B3"/><stop offset="1" stop-color="#6900B5"/></linearGradient><linearGradient id="q" x1="-4.626" y1="55.787" x2="202.928" y2="55.787" gradientUnits="userSpaceOnUse"><stop stop-color="#1C8AE2"/><stop offset=".486" stop-color="#8B00B3"/><stop offset="1" stop-color="#6900B5"/></linearGradient><linearGradient id="r" x1="-4.631" y1="55.787" x2="202.928" y2="55.787" gradientUnits="userSpaceOnUse"><stop stop-color="#1C8AE2"/><stop offset=".486" stop-color="#8B00B3"/><stop offset="1" stop-color="#6900B5"/></linearGradient><linearGradient id="b" x1="-4.628" y1="55.787" x2="202.928" y2="55.787" gradientUnits="userSpaceOnUse"><stop stop-color="#1C8AE2"/><stop offset=".486" stop-color="#8B00B3"/><stop offset="1" stop-color="#6900B5"/></linearGradient><linearGradient id="t" x1="-4.628" y1="73.74" x2="202.926" y2="73.74" gradientUnits="userSpaceOnUse"><stop stop-color="#1C8AE2"/><stop offset=".486" stop-color="#8B00B3"/><stop offset="1" stop-color="#6900B5"/></linearGradient><linearGradient id="u" x1="-4.628" y1="73.766" x2="202.927" y2="73.766" gradientUnits="userSpaceOnUse"><stop stop-color="#1C8AE2"/><stop offset=".486" stop-color="#8B00B3"/><stop offset="1" stop-color="#6900B5"/></linearGradient><linearGradient id="v" x1="-4.629" y1="73.74" x2="202.928" y2="73.74" gradientUnits="userSpaceOnUse"><stop stop-color="#1C8AE2"/><stop offset=".486" stop-color="#8B00B3"/><stop offset="1" stop-color="#6900B5"/></linearGradient><linearGradient id="w" x1="-4.629" y1="73.739" x2="202.927" y2="73.739" gradientUnits="userSpaceOnUse"><stop stop-color="#1C8AE2"/><stop offset=".486" stop-color="#8B00B3"/><stop offset="1" stop-color="#6900B5"/></linearGradient><linearGradient id="x" x1="-4.628" y1="73.746" x2="202.927" y2="73.746" gradientUnits="userSpaceOnUse"><stop stop-color="#1C8AE2"/><stop offset=".486" stop-color="#8B00B3"/><stop offset="1" stop-color="#6900B5"/></linearGradient><linearGradient id="y" x1="-4.63" y1="73.733" x2="202.928" y2="73.733" gradientUnits="userSpaceOnUse"><stop stop-color="#1C8AE2"/><stop offset=".486" stop-color="#8B00B3"/><stop offset="1" stop-color="#6900B5"/></linearGradient><linearGradient id="z" x1="-4.629" y1="73.74" x2="202.929" y2="73.74" gradientUnits="userSpaceOnUse"><stop stop-color="#1C8AE2"/><stop offset=".486" stop-color="#8B00B3"/><stop offset="1" stop-color="#6900B5"/></linearGradient><linearGradient id="A" x1="-4.627" y1="73.74" x2="202.926" y2="73.74" gradientUnits="userSpaceOnUse"><stop stop-color="#1C8AE2"/><stop offset=".486" stop-color="#8B00B3"/><stop offset="1" stop-color="#6900B5"/></linearGradient><linearGradient id="B" x1="-4.63" y1="71.945" x2="202.928" y2="71.945" gradientUnits="userSpaceOnUse"><stop stop-color="#1C8AE2"/><stop offset=".486" stop-color="#8B00B3"/><stop offset="1" stop-color="#6900B5"/></linearGradient><linearGradient id="C" x1="-4.628" y1="73.74" x2="202.927" y2="73.74" gradientUnits="userSpaceOnUse"><stop stop-color="#1C8AE2"/><stop offset=".486" stop-color="#8B00B3"/><stop offset="1" stop-color="#6900B5"/></linearGradient><linearGradient id="D" x1="-4.629" y1="73.74" x2="202.927" y2="73.74" gradientUnits="userSpaceOnUse"><stop stop-color="#1C8AE2"/><stop offset=".486" stop-color="#8B00B3"/><stop offset="1" stop-color="#6900B5"/></linearGradient><linearGradient id="E" x1="-4.629" y1="74.581" x2="202.928" y2="74.581" gradientUnits="userSpaceOnUse"><stop stop-color="#1C8AE2"/><stop offset=".486" stop-color="#8B00B3"/><stop offset="1" stop-color="#6900B5"/></linearGradient><linearGradient id="F" x1="-4.629" y1="73.74" x2="202.928" y2="73.74" gradientUnits="userSpaceOnUse"><stop stop-color="#1C8AE2"/><stop offset=".486" stop-color="#8B00B3"/><stop offset="1" stop-color="#6900B5"/></linearGradient><linearGradient id="G" x1="-4.629" y1="74.714" x2="202.927" y2="74.714" gradientUnits="userSpaceOnUse"><stop stop-color="#1C8AE2"/><stop offset=".486" stop-color="#8B00B3"/><stop offset="1" stop-color="#6900B5"/></linearGradient><linearGradient id="H" x1="-4.631" y1="73.74" x2="202.928" y2="73.74" gradientUnits="userSpaceOnUse"><stop stop-color="#1C8AE2"/><stop offset=".486" stop-color="#8B00B3"/><stop offset="1" stop-color="#6900B5"/></linearGradient><linearGradient id="I" x1="-4.63" y1="73.74" x2="202.928" y2="73.74" gradientUnits="userSpaceOnUse"><stop stop-color="#1C8AE2"/><stop offset=".486" stop-color="#8B00B3"/><stop offset="1" stop-color="#6900B5"/></linearGradient><linearGradient id="J" x1="-4.629" y1="73.752" x2="202.928" y2="73.752" gradientUnits="userSpaceOnUse"><stop stop-color="#1C8AE2"/><stop offset=".486" stop-color="#8B00B3"/><stop offset="1" stop-color="#6900B5"/></linearGradient></defs></svg>