<svg width="126" height="155" fill="none" xmlns="http://www.w3.org/2000/svg"><g clip-path="url(#a)"><path d="M3.504 1h121.4v123.4H1.604V1.1h1.9V1Zm117.501 3.9H5.505v115.5h115.5V4.9Z" fill="url(#b)"/><path d="M97.705 49.3c-1.1-.2-2.2 0-3.3.4-3.4 1.1-6.3 1.7-6.3 1.7-8.2 2-16.6 3-25 3-8.4 0-16.7-.9-24.8-2.9 0 0-2.9-.7-6.3-1.7-1-.5-2.2-.6-3.3-.4-1.6 0-3 1.4-2.9 3v.5c.5 2 1.7 3.8 3.4 5 .9.7 3.8 2.3 10.9 3.2 7.1.9 13.5 1.4 14.1 1.4.6 0 6.7.3 9 .3s8.5-.3 9-.3c.6 0 6.9-.4 14.1-1.4 7.2-1 10.1-2.5 10.9-3.2 1.7-1.2 2.8-3 3.4-5 .3-1.6-.8-3.2-2.4-3.5-.1 0-.3 0-.5-.1Zm-10.5-.7c0-.3-.1-.6-.1-.9-.2-1.8.7-30.2.6-32.8-.6-7-48.5-7.5-49.1 0-.1 2.6.8 31 .6 32.8 0 .3 0 .6-.1.9 7.9 2.1 16 3.2 24.1 3.1 8.1 0 16.2-1.1 24-3.1Z" fill="url(#c)"/><path fill-rule="evenodd" clip-rule="evenodd" d="M93.505 76.2c.5 0 1 .4 1 1 0 .2 0 .3-.1.5.5 0 .9.4.9.9 0 .2 0 .3-.1.5.4.1.8.401.8.901 0 .2-.1.4-.2.6.4.1.7.4.7.9 0 .3-.1.5-.3.7.4.2.7.7.5 1.1-.1.1-.2.3-.3.4.4.2.6.7.4 1.1-.1.2-.2.4-.4.5.4.2.5.7.4 1.1-.1.2-.2.4-.5.5.2.1.3.3.3.6.1.4-.2.8-.6 1 .2.1.3.3.3.5.1.4-.1.7-.4.9l.3.3c.2.4.1.9-.3 1.1.1.1.3.2.4.3.2.4.1.8-.2 1.1.2.1.3.2.4.4.2.3.1.8-.1 1.1.2.1.3.2.5.4.2.4.1.8-.2 1.1.2.1.4.2.6.4.2.3.2.7 0 1 .1 0 .3.1.4.2.4.3.4.8.2 1.2.2 0 .3.1.5.2.3.3.4.7.2 1.1.2 0 .4.1.6.2.3.2.4.6.3.9.2 0 .4 0 .6.2.3.2.5.7.3 1.1.2 0 .4 0 .6.2.3.2.4.6.4.9h.4c.4.1.7.5.7 1h.5c.4.1.7.5.7.9.2-.1.4-.1.6 0 .5 0 .9.5.8.9-.1.4-.5.9-.9.8-.1 0-.2 0-.3-.1-.4-.1-.7-.5-.7-.9-.2.1-.4.1-.6 0-.4-.1-.7-.5-.7-1-.5.1-1-.1-1.1-.6v-.5c-.3.1-.5 0-.7-.2-.3-.2-.5-.7-.3-1.1-.2 0-.4-.1-.6-.2-.3-.2-.4-.6-.3-1-.2 0-.5 0-.7-.2-.3-.3-.4-.7-.2-1.1-.2 0-.4-.1-.6-.2-.3-.3-.4-.8-.2-1.2-.5 0-.8-.5-.8-1 0-.2.1-.3.2-.5-.3 0-.5-.2-.6-.4-.2-.4-.1-.8.2-1.1-.2-.1-.4-.2-.6-.4-.2-.3-.1-.8.1-1.1-.2-.1-.3-.2-.5-.4-.2-.4-.1-.8.2-1.1-.2-.1-.3-.2-.4-.4-.2-.4-.1-.9.2-1.2-.1-.1-.3-.2-.3-.3-.2-.4-.1-.9.3-1.2-.2-.1-.4-.4-.4-.6-.1-.4.2-.8.6-1-.1-.1-.2-.3-.3-.5 0-.4.2-.7.6-.9-.3-.2-.4-.6-.3-1 .1-.2.2-.4.4-.5-.4-.2-.5-.7-.4-1.1.1-.2.2-.3.3-.4-.4-.2-.6-.7-.4-1.1.1-.1.1-.3.3-.4-.5-.2-.7-.7-.5-1.2 0-.1.1-.1.1-.2-.4-.1-.7-.5-.7-.9 0-.2 0-.3.1-.5-.4 0-.8-.4-.8-.9V78h-.2c-.2 0-.5-.1-.6-.2-.2.5-.7.8-1.2.8h-.8c-1.4 5.7-7.2 9.1-12.8 7.7-5.6-1.4-9.1-7.2-7.7-12.8 1.4-5.7 7.2-9.1 12.8-7.7 3.8 1 6.7 3.9 7.7 7.7h.8c.7 0 1.3.6 1.3 1.3v1.4h.4Zm-21.4 0c0-4.7 3.9-8.5 8.6-8.4 4.7 0 8.5 3.9 8.4 8.6 0 4.7-3.8 8.4-8.5 8.4s-8.5-3.8-8.5-8.6c-.1 0-.1.1 0 0Z" fill="url(#d)"/><path d="M36.105 100.999c4.1-1.3 4.8 2.3 4.8 2.3s-.7-1.2-3.7-.5-2.2 5.1.6 6c2.8.9 8-1.1 11-4.4 3-3.3 6.7-5.9 10.8-5.4 1.7.3 3.1 1.6 3.6 3.2.5-1.7 1.9-2.9 3.6-3.2 4-.5 7.7 2.2 10.7 5.4 3 3.3 8.2 5.3 11 4.4 2.8-.9 3.6-5.3.6-6-3-.7-3.7.5-3.7.5s.8-3.6 4.8-2.3c4.1 1.3 4.5 6.5 1.5 10.5-4.6 5.6-16.6 3.6-24.2-.4-2-.9-3.6-2.6-4.4-4.7-.8 2-2.4 3.7-4.4 4.7-7.6 4-19.6 6.1-24.2.4-2.9-4-2.5-9.2 1.6-10.5Z" fill="url(#e)"/><path d="M.005 145.399c0-2 .8-3.9 2.2-5.3.7-.7 1.6-1.3 2.5-1.7 1-.4 2.1-.6 3.1-.6 1.1 0 2.1.2 3.1.6.9.4 1.7 1 2.4 1.7s1.3 1.5 1.7 2.3c.4.9.6 1.9.6 3 0 1-.2 2-.6 2.9-.4.9-1 1.7-1.7 2.4s-1.6 1.3-2.5 1.7c-1 .4-2.1.6-3.1.6-1.4 0-2.8-.3-4-1a7.28 7.28 0 0 1-3.7-6.6Zm4.1 0c0 1 .4 2 1.1 2.8.7.8 1.7 1.2 2.7 1.2 1 0 2-.4 2.7-1.1 1.4-1.6 1.4-4 0-5.6-.7-.8-1.7-1.2-2.7-1.2-1 0-2 .4-2.6 1.2-.8.7-1.2 1.7-1.2 2.7Z" fill="url(#f)"/><path d="M17.805 152.7v-14.6h4v5.9l5-5.9h4.8l-5.5 6.3 5.7 8.4h-4.8l-3.7-5.4-1.5 1.7v3.8l-4-.2Z" fill="url(#g)"/><path d="M32.505 145.399c0-2 .8-3.9 2.2-5.3.7-.7 1.6-1.3 2.5-1.7 2-.8 4.3-.8 6.3 0 .9.4 1.8.9 2.5 1.7 3 2.9 3 7.7 0 10.7-.7.7-1.6 1.3-2.5 1.7-1 .4-2.1.6-3.1.6-1.4 0-2.8-.3-4-1-2.4-1.3-3.8-3.8-3.8-6.6l-.1-.1Zm4.1 0c0 1 .4 2 1.1 2.8 1.4 1.5 3.8 1.5 5.2.1l.1-.1c.7-.8 1.1-1.8 1-2.8 0-1-.4-2-1.1-2.8-.7-.8-1.7-1.2-2.7-1.2-1 0-2 .4-2.7 1.2-.5.8-.9 1.8-.9 2.8Z" fill="url(#h)"/><path d="M50.305 152.7v-14.6h4v5.5h5.2v-5.5h4v14.6h-4v-5.5h-5.2v5.5h-4Z" fill="url(#i)"/><path d="M65.705 145.401c0-1 .2-2 .6-3 .4-.9.9-1.7 1.6-2.3.7-.7 1.5-1.3 2.4-1.7 1-.4 2-.6 3.1-.6 2.4-.1 4.7 1.1 6.1 3.1l-3 2.3c-.7-1-1.9-1.7-3.2-1.7-1 0-1.9.4-2.5 1.1-.7.8-1 1.8-1 2.8 0 1 .3 2 1 2.8.6.7 1.5 1.2 2.5 1.1.6 0 1.3-.1 1.8-.5.6-.4 1.1-.8 1.5-1.3l3.1 2.2c-.5.6-1 1.2-1.6 1.7-.6.5-1.3.9-2.1 1.1-.9.3-1.8.4-2.8.4-1.3 0-2.6-.3-3.8-1-1.1-.6-2.1-1.6-2.7-2.7-.7-1-1.1-2.4-1-3.8Z" fill="url(#j)"/><path d="M81.404 152.7v-14.6h4.1v5.9l5-5.9h4.8l-5.5 6.3 5.7 8.4h-5l-3.7-5.4-1.5 1.7v3.8l-3.9-.2Z" fill="url(#k)"/><path d="M96.605 152.7v-14.6h3.999v8.2l5.6-8.2h3.801v14.6h-4v-8.2l-5.601 8.2h-3.8Z" fill="url(#l)"/><path d="M112.604 152.7v-14.6h4v8.2l5.6-8.2h3.801v14.6h-4v-8.2l-5.601 8.2h-3.8Zm3.1-18.7 2.2-.4c.3.8.8 1.2 1.5 1.2.3 0 .7-.1.9-.3.3-.3.5-.6.6-.9l2.2.4c-.1.9-.5 1.7-1.2 2.4a4.2 4.2 0 0 1-5 0c-.7-.7-1.1-1.5-1.2-2.4Z" fill="url(#m)"/></g><defs><linearGradient id="c" x1="-.628" y1="36.13" x2="126.154" y2="36.13" gradientUnits="userSpaceOnUse"><stop stop-color="#1C8AE2"/><stop offset=".486" stop-color="#8B00B3"/><stop offset="1" stop-color="#6900B5"/></linearGradient><linearGradient id="h" x1="-.628" y1="145.467" x2="126.154" y2="145.467" gradientUnits="userSpaceOnUse"><stop stop-color="#1C8AE2"/><stop offset=".486" stop-color="#8B00B3"/><stop offset="1" stop-color="#6900B5"/></linearGradient><linearGradient id="d" x1="-.628" y1="86.08" x2="126.154" y2="86.08" gradientUnits="userSpaceOnUse"><stop stop-color="#1C8AE2"/><stop offset=".486" stop-color="#8B00B3"/><stop offset="1" stop-color="#6900B5"/></linearGradient><linearGradient id="e" x1="-.629" y1="106.969" x2="126.154" y2="106.969" gradientUnits="userSpaceOnUse"><stop stop-color="#1C8AE2"/><stop offset=".486" stop-color="#8B00B3"/><stop offset="1" stop-color="#6900B5"/></linearGradient><linearGradient id="f" x1="-.629" y1="145.44" x2="126.154" y2="145.44" gradientUnits="userSpaceOnUse"><stop stop-color="#1C8AE2"/><stop offset=".486" stop-color="#8B00B3"/><stop offset="1" stop-color="#6900B5"/></linearGradient><linearGradient id="g" x1="-.629" y1="145.465" x2="126.154" y2="145.465" gradientUnits="userSpaceOnUse"><stop stop-color="#1C8AE2"/><stop offset=".486" stop-color="#8B00B3"/><stop offset="1" stop-color="#6900B5"/></linearGradient><linearGradient id="b" x1="-.629" y1="62.687" x2="126.154" y2="62.687" gradientUnits="userSpaceOnUse"><stop stop-color="#1C8AE2"/><stop offset=".486" stop-color="#8B00B3"/><stop offset="1" stop-color="#6900B5"/></linearGradient><linearGradient id="i" x1="-.629" y1="145.415" x2="126.154" y2="145.415" gradientUnits="userSpaceOnUse"><stop stop-color="#1C8AE2"/><stop offset=".486" stop-color="#8B00B3"/><stop offset="1" stop-color="#6900B5"/></linearGradient><linearGradient id="j" x1="-.629" y1="145.44" x2="126.154" y2="145.44" gradientUnits="userSpaceOnUse"><stop stop-color="#1C8AE2"/><stop offset=".486" stop-color="#8B00B3"/><stop offset="1" stop-color="#6900B5"/></linearGradient><linearGradient id="k" x1="-.63" y1="145.465" x2="126.154" y2="145.465" gradientUnits="userSpaceOnUse"><stop stop-color="#1C8AE2"/><stop offset=".486" stop-color="#8B00B3"/><stop offset="1" stop-color="#6900B5"/></linearGradient><linearGradient id="l" x1="-.629" y1="145.415" x2="126.154" y2="145.415" gradientUnits="userSpaceOnUse"><stop stop-color="#1C8AE2"/><stop offset=".486" stop-color="#8B00B3"/><stop offset="1" stop-color="#6900B5"/></linearGradient><linearGradient id="m" x1="-.629" y1="143.161" x2="126.154" y2="143.161" gradientUnits="userSpaceOnUse"><stop stop-color="#1C8AE2"/><stop offset=".486" stop-color="#8B00B3"/><stop offset="1" stop-color="#6900B5"/></linearGradient><clipPath id="a"><path fill="#fff" d="M0 0h126v155H0z"/></clipPath></defs></svg>