<svg width="200" height="155" fill="none" xmlns="http://www.w3.org/2000/svg"><path d="M20.81 99.3c.4-.7.6-1.2.9-1.7.9-1.7 2.3-3 4.1-3.7 5.1-2 9.8-5.1 13.8-8.9 4.2-4 8.3-8 12.2-12.2 3.9-4.3 6.9-8.5 10.3-12.7 2.5-3.1 5.1-6.1 7.7-9.1.6-.6 1.3-1.2 2-1.8l1.8 1.4c-2.3 2.3-2.5 5.1-2.5 8 .2 7.7 1.4 15.3 3.8 22.6 1.1 3.8 2.7 7.5 4.1 11.2.1.3.3.6.5.9l.6.6 2.4-2.2 1.7 1.6-7.4 8.499c-3.8-8.1-6.8-16.6-9.1-25.3-.5 1.9-1.1 3.8-1.6 5.8-.6 2.2-.5 2.2-2.9 1.9.1-1 .2-1.9.3-2.9.2-1.3-.3-2-1.6-2-4.1 0-8.3.1-12.4.3-.5.1-.9.3-1.2.6-1.4 1.3-2.7 2.6-4 4-3.4 3.5-7.2 6.6-11.2 9.2l-1.1.8c.5 0 .8.1 1.1.1 3.9.1 7.8 0 11.5.3 3 .2 6 .7 9 1 3.5.3 6.9 0 9.6-2.4 2-2 3.3-4.6 3.6-7.4v-.5c0-.1.1-.2.2-.2 1.8 0 2.7 2 2.3 3.5-.6 2.1-1.7 3.9-3.3 5.4-2.9 3-6.2 5.6-10.4 6.3-2.8.3-5.6.4-8.4.3-2.2 0-4.4-.4-6.7-.6-2.8-.2-5.6-.5-8.4-.7-1 0-2.1.2-3.1.2-2.5-.2-5.3-.2-8.2-.2Zm46.7-24.7c-1.2-5.2-1.5-10.5-1-15.8l-13.3 15.8h14.3Z" fill="url(#a)"/><path d="m140.611 71.7 2.2 3.5c2.1-1.1 4.2-2.2 6.5-3.3 1.6-.8 1.9-.7 1.8 1.1-.1 1.8-.6 3.4-1 5.4.8-.8 1.3-1.4 2-2 1.8-1.4 3.6-3 5.5-4.4 1.1-.9 2.6-1.1 3.9-.5.6.3.9.6.6 1.3-.5 1.2-.9 2.4-1.3 3.6-3.2-1.3-5.6.1-7.8 2.2-4.2 4.4-7.2 9.8-8.8 15.7-.5 1.5-1 3.1-1.4 4.6-.1.4-.4.6-.8.8-1.5.5-3.1.9-5 1.4l8-23.4-.3-.3-2.6 1.1c-.8-1-.5-3.3-3-2.5-2.9 6.4-6.3 12.7-7.6 19.8l.3.3 3.8-1.7 1.2 1.5c-3.4 2.6-7.4 4.3-11.5 5 .7-4.2 2-8.3 3.7-12.1-1.8 2-3.4 3.9-5.2 5.4-2.9 2.5-5.8 5.3-9.7 6.3-3.9 1-5.1-1.1-4.7-4.3.5-3.9 2.1-7.5 4.6-10.5 4.5-5.9 10.6-10.4 17.7-12.8.3-.1.7-.2 1-.3 2.2-.1 4.1-1.7 4.5-3.8.7-2.1 1.7-4 2.4-6.1.3-1.2.5-2.4.6-3.6l-3.3.4-.9-1.9 11.3-5c-.4 2.2-.9 4.4-1.5 6.6-1.4 3.8-3.1 7.6-4.7 11.4-.2.4-.4.8-.5 1.1Zm-10.6 5.5.4-.1 1.3 4.5 2.5-6.2c-2.9.3-5.8 1.2-8.4 2.6-4.1 2.2-7.5 5.6-9.7 9.7-1.2 2.1-1.8 4.5-1.6 6.9.1 1.2.7 1.7 1.9 1.4.6-.1 1.2-.3 1.7-.5 2.2-1.2 4.1-3 5.5-5.2 2.9-3.8 5.1-8.3 6.4-13.1Z" fill="url(#b)"/><path d="M80.31 31c-7.9 1.6-15.8 3.7-23.4 6.4-5.3 1.9-10.5 4.2-15.7 6.4-6 2.7-11.8 6-17 10-6.1 4.3-11.1 9.9-14.7 16.4-2.5 5-3.6 10.6-3 16.1.4 3.6 1.4 7.1 3 10.4l.7 1.4-.3.3c-1.4-1.8-3.2-3.6-4.5-5.6-2.4-3.5-4.2-7.5-5-11.7-.9-4.8-.3-9.7 1.6-14.2 2.2-5 5.5-9.5 9.7-13 4.9-4.2 10.4-7.8 16.3-10.4 4.3-1.9 8.8-3.6 13.3-5.2 6.8-2.3 13.9-4 21-5.1 5-.8 10-1.3 15.1-1.9l2.9-.3Z" fill="url(#c)"/><path d="M107.411 75.8c-2.2.7-4.2 2-5.8 3.7-5.1 4.8-9.2 10.5-12.2 16.8-.3.7-.7 1.4-1 2.1-.2.3-.4.6-.8.8-1.8.7-3.7 1.3-5.6 1.9 3.8-8.2 8.2-16.1 10.2-25.3-1.1.2-1.7.3-2.3.5-1.6.4-1.7.3-1.7-1.4v-.4l9.8-3.6c.6 1.1.6 2.5 0 3.6-.6 2-1.4 4-2.1 6l-.4 1.2.4.3 1.2-1.5c2.7-2.9 5.7-5.5 9.1-7.6 1.5-1 3.3-1.6 5.2-1.6 1.4.1 2 .6 2 2 .1 2.9-1.3 5.2-2.7 7.7-2.3 4.2-4.3 8.4-6.5 12.6-.3.7-.4 1.5-.3 2.2l3.2-1.4.1.2c1.1 2.1 1.1 1.4-.7 2.7-2.9 1.8-6.2 3.001-9.6 3.501 1.9-8.9 6.7-16.5 10.5-25Z" fill="url(#d)"/><path d="M190.31 62c2.9 2.8 5.3 6.2 6.8 9.9 1.8 4 2.6 8.5 2.3 12.9-.4 4.4-2 8.6-4.5 12.3-3 4.4-6.7 8.1-11 11.2-6.6 4.9-13.9 8.7-21.7 11.4-4.7 1.6-9.5 3-14.3 4.5h-.8c2.4-.9 4.6-1.6 6.7-2.4 5.7-2.3 11.2-5.1 16.4-8.4 5.6-3.5 10.8-7.7 15.3-12.5 4.8-5.1 8.4-11 9.6-18 1-6.6-.3-13.3-3.8-19l-1-1.9Z" fill="url(#e)"/><path d="M162.411 82.8c-2.2 3.3-3.5 7.1-3.7 11.1 0 2.6 1.2 3.5 3.7 2.9 2.7-.9 4.999-2.7 6.399-5.2 1.6-2.5 3.1-5.1 4.5-7.6 1.6 2.2 1.101 4.4-.299 6.6-1.7 2.6-3.8 4.8-6.4 6.5-2 1.5-4.2 2.7-6.5 3.6-4.1 1.4-6.3-1.1-6.6-3.7-.2-1.9 0-3.8.6-5.6 1-3.6 2.599-7 4.699-10 3.7-5.3 9.3-9 15.5-10.3.7-.1 1.401-.1 2.101 0 1.9.3 2.7 1.7 2.2 3.7-.7 2.4-2.3 4.4-4.4 5.6-2.3 1.8-5.1 3.1-8 3.7-1.4.4-2.9-.1-3.8-1.3Zm.899-1.9.401.8c1.9-.2 3.7-.6 5.5-1.1 1.9-.5 3.5-1.9 4.2-3.8.5-1.3.1-1.8-1.2-1.9-1.4-.2-2.7.3-3.8 1.1-1.7 1.6-3.401 3.3-5.101 4.9Z" fill="url(#f)"/><defs><linearGradient id="a" x1="-1.556" y1="75.432" x2="195.682" y2="75.432" gradientUnits="userSpaceOnUse"><stop stop-color="#1C8AE2"/><stop offset=".486" stop-color="#8B00B3"/><stop offset="1" stop-color="#6900B5"/></linearGradient><linearGradient id="b" x1="-1.556" y1="76.847" x2="195.682" y2="76.847" gradientUnits="userSpaceOnUse"><stop stop-color="#1C8AE2"/><stop offset=".486" stop-color="#8B00B3"/><stop offset="1" stop-color="#6900B5"/></linearGradient><linearGradient id="c" x1="-1.556" y1="64.727" x2="195.682" y2="64.727" gradientUnits="userSpaceOnUse"><stop stop-color="#1C8AE2"/><stop offset=".486" stop-color="#8B00B3"/><stop offset="1" stop-color="#6900B5"/></linearGradient><linearGradient id="d" x1="-1.556" y1="85.994" x2="195.682" y2="85.994" gradientUnits="userSpaceOnUse"><stop stop-color="#1C8AE2"/><stop offset=".486" stop-color="#8B00B3"/><stop offset="1" stop-color="#6900B5"/></linearGradient><linearGradient id="e" x1="-1.556" y1="93.105" x2="195.682" y2="93.105" gradientUnits="userSpaceOnUse"><stop stop-color="#1C8AE2"/><stop offset=".486" stop-color="#8B00B3"/><stop offset="1" stop-color="#6900B5"/></linearGradient><linearGradient id="f" x1="-1.556" y1="86.061" x2="195.682" y2="86.061" gradientUnits="userSpaceOnUse"><stop stop-color="#1C8AE2"/><stop offset=".486" stop-color="#8B00B3"/><stop offset="1" stop-color="#6900B5"/></linearGradient></defs></svg>