<svg width="201" height="155" fill="none" xmlns="http://www.w3.org/2000/svg"><g clip-path="url(#a)"><path fill-rule="evenodd" clip-rule="evenodd" d="M158.1 74.9c0 9.8-2.4 18.9-6.7 26.9-31 20-70.9 19.7-101.5 0-4.3-8-6.7-17.2-6.7-26.9 0-31.7 25.7-57.5 57.4-57.5s57.5 25.7 57.5 57.5Z" fill="url(#b)"/><path fill-rule="evenodd" clip-rule="evenodd" d="M100.6 16c-32.5 0-58.9 26.3-58.9 58.9 0 9 2 17.6 5.7 25.3.8.6 1.6 1.1 2.4 1.6.8.5 1.6 1 2.5 1.5-12.7-21.5-9.8-49.6 8.7-68 10.5-10.6 24.8-16.5 39.6-16.4 30.9 0 56 25.1 56 56 0 10.1-2.7 19.9-7.8 28.5.8-.5 1.6-1 2.5-1.5.8-.5 1.7-1.1 2.5-1.6 3.6-7.7 5.7-16.2 5.7-25.2 0-32.7-26.4-59.1-58.9-59.1Z" fill="#99999C"/><path fill-rule="evenodd" clip-rule="evenodd" d="M100.6 27.9c-26 0-47.1 21.1-47.1 47 0 15.2 7.2 28.6 18.3 37.3 3.1 1 6.3 1.8 9.4 2.5-4.3-2.1-8.3-4.9-11.9-8.5C52 88.9 52 60.9 69.3 43.6c8.3-8.3 19.6-13 31.3-13 24.4 0 44.2 19.8 44.2 44.3 0 11.7-4.7 22.9-12.9 31.2-3.6 3.6-7.7 6.5-12 8.6 3.2-.7 6.3-1.5 9.4-2.5 11.2-8.6 18.3-22.1 18.3-37.3v-.1c0-25.9-21-46.9-47-46.9Z" fill="#99999C"/><path fill-rule="evenodd" clip-rule="evenodd" d="M1.4 137.2v-18.3h29.8v16.2l-1.8 2.1h-28Z" fill="url(#c)"/><path fill-rule="evenodd" clip-rule="evenodd" d="M29.8 120.4v14.2l-1 1.1h-26v-15.4h27v.1Zm2.8-2.9H0v21.1h30.1l2.6-3-.1-18.1Z" fill="#99999C"/><path fill-rule="evenodd" clip-rule="evenodd" d="m16.8 104 25.9 18.2L30.5 136l-13.7-32Z" fill="url(#d)"/><path fill-rule="evenodd" clip-rule="evenodd" d="m20.1 108 20.5 14.4-9.7 10.9L20.1 108Zm-6.5-8 16.5 38.6L44.9 122l-31.3-22Z" fill="#99999C"/><path fill-rule="evenodd" clip-rule="evenodd" d="m171.8 137.2-1.8-2.1v-16.2h29.8v18.3h-28Z" fill="url(#e)"/><path fill-rule="evenodd" clip-rule="evenodd" d="M198.4 120.4v15.4h-26l-1-1.1v-14.2h27v-.1Zm2.9-2.9h-32.6v18.2l2.6 3h30v-21.2Z" fill="#99999C"/><path fill-rule="evenodd" clip-rule="evenodd" d="m158.5 122.2 25.9-18.2-13.6 32-12.3-13.8Z" fill="url(#f)"/><path fill-rule="evenodd" clip-rule="evenodd" d="m181.1 108-10.8 25.3-9.7-10.9 20.5-14.4Zm6.5-8-31.3 21.9 14.8 16.6 16.5-38.5Z" fill="#99999C"/><path fill-rule="evenodd" clip-rule="evenodd" d="M31.2 88.001c35.9 38.3 95.999 40.3 134.299 4.5 1.5-1.4 3-2.9 4.5-4.5l6.9 6.1 6.9 6.1c-10.5 11.4-23.2 20.501-37.4 26.701-14.4 6.4-30 9.599-45.8 9.599-15.8 0-31.4-3.199-45.8-9.599-14.2-6.2-26.9-15.301-37.4-26.701l6.9-6.1 6.9-6.1Zm138.599-3.9c-33.7 38.201-92 41.901-130.2 8.2-2.9-2.6-5.6-5.3-8.2-8.2l-18 15.9c42.5 48.2 115.9 52.801 164.1 10.301 3.7-3.2 7.1-6.701 10.3-10.301l-18-15.9Z" fill="#99999C"/><path fill-rule="evenodd" clip-rule="evenodd" d="M155.399 113.402c-.7.4-1.5.8-2.2 1.2.5.9 1 1.7 1.5 2.6.7-.4 1.5-.8 2.1-1.2.4-.2.8-.5 1.1-.8.2-.2.4-.5.4-.8 0-.3 0-.6-.2-.9-.5-.8-1.5-.9-2.7-.1Z" fill="url(#g)"/><path fill-rule="evenodd" clip-rule="evenodd" d="M124.3 120.801c-.6 0-1.1.1-1.7.2l-1 .2c.2 1.1.399 2.1.599 3.2l1.201-.2c.5-.1 1.1-.3 1.6-.5.3-.2.5-.4.6-.7.2-.7-.001-1.4-.401-1.9l-.899-.3Z" fill="url(#h)"/><path fill-rule="evenodd" clip-rule="evenodd" d="m47.1 108.801-.8-.5-1.7 2.8c.3.2.7.4 1.1.6.5.3 1 .5 1.5.7.3.1.6 0 .9-.1.6-.3 1-1 .9-1.7 0-.3-.2-.6-.4-.8-.4-.4-.9-.8-1.5-1Z" fill="url(#i)"/><path fill-rule="evenodd" clip-rule="evenodd" d="M169.899 86.102c-2 2.2-4.1 4.3-6.3 6.3-3.1 2.8-6.4 5.4-9.8 7.799-.8.6-1.6 1.101-2.5 1.601-.8.5-1.6 1-2.5 1.5-6.2 3.8-12.8 6.699-19.6 8.899-3.1 1-6.3 1.8-9.4 2.5-12.8 2.7-25.9 2.7-38.6 0-3.2-.7-6.3-1.5-9.4-2.5-6.8-2.2-13.3-5.099-19.5-8.899-.8-.5-1.6-1-2.5-1.5-.8-.5-1.6-1.101-2.4-1.601-5.8-4-11.2-8.7-16.1-14.1l-15.9 14.1c10.8 12 24.1 21.601 38.9 28.101 14.6 6.4 30.4 9.799 46.4 9.699 16 0 31.8-3.299 46.4-9.699 14.8-6.5 28-16.101 38.8-28.101l-16-14.1Zm-145 18 6.2-7.1-2.4-2.2 1.3-1.4c2.1 2 4.2 3.8 6.4 5.6l-1.2 1.499c-.8-.7-1.7-1.3-2.5-2l-6.1 7.2-1.7-1.599Zm12.9 10c-2.5-1.6-4.9-3.4-7.2-5.2l7-9c2.1 1.6 4.2 3.1 6.3 4.5l-1 1.599c-1.6-1.1-3.2-2.2-4.7-3.3l-1.5 2c1.5 1.1 3 2.101 4.4 3.201l-1.1 1.599c-1.6-1-3.1-2.099-4.6-3.199l-1.8 2.5c1.7 1.3 3.5 2.499 5.3 3.699l-1.1 1.601Zm9.8.399c-.9-.2-1.8-.599-2.6-1.099-.4-.2-.8-.501-1.3-.701l-2.3 3.701-2-1.201h.1l6.1-9.599c.9.6 1.9 1.2 2.9 1.7.7.4 1.4.799 2.1 1.399.4.5.7 1.101.8 1.701.1.8-.1 1.599-.5 2.299-.3.7-.8 1.201-1.5 1.601-.6.2-1.2.299-1.8.199Zm9.2 9.601c1.2-2.8 2.3-5.5 3.4-8.3-1.8 2.5-3.6 4.999-5.5 7.399l-2-.899c.6-3 1.2-6 1.9-9l-3.9 8.1-1.9-.901 5.2-10.099c.9.5 1.9.9 2.8 1.4-.5 2.6-1 5.199-1.5 7.899l4.8-6.299c.9.4 1.9.8 2.9 1.2-1.4 3.5-2.8 7.099-4.2 10.599-.7-.6-1.3-.799-2-1.099Zm10.7 3.8c.7-2.4 1.5-4.7 2.2-7.1-2.1 2-4.3 3.899-6.5 5.699l-2.1-.8H61c1.3-3.6 2.6-7.1 3.9-10.7l1.9.7c-.8 2.4-1.7 4.801-2.5 7.201 2.2-1.9 4.4-3.901 6.4-5.901l2 .601-3 11-2.2-.7Zm10.8 2.7 1-4.901-4.2-.899-1.1 4.8-2.2-.5h-.1l2.9-10.901c.7.2 1.3.3 2 .5-.4 1.5-.7 3.001-1.1 4.401 1.3.3 2.7.599 4.1.899.3-1.5.6-2.999.9-4.399l2 .399c-.7 3.7-1.4 7.5-2 11.2l-2.2-.599Zm12 1.7c-.2-.9-.5-1.8-.7-2.7-1.5-.1-3-.3-4.4-.5l-1.3 2.399-2.4-.399c2.1-3.5 4-7.001 5.8-10.601l2.1.301c.9 3.9 2 7.799 3.2 11.699-.6 0-1.4-.099-2.3-.199Zm10 .5v-9.5h-3.1c0 1.6-.1 3.199-.2 4.899 0 .9-.1 1.9-.2 2.8-.1.5-.3 1.001-.7 1.401-.5.3-1.1.5-1.7.4l-1.5-.2c0-.6.1-1.2.1-1.8h.5c.3.1.6-.001.9-.101.2-.1.3-.4.3-1l.4-8.399c2.3.1 4.7.2 7 .1 0 3.8.1 7.6.2 11.4h-2Zm3.9-3.101c-.1-.7-.1-1.5-.1-2.2 1.3 0 2.7-.099 4-.199 0 .7.1 1.499.1 2.199-1.2.1-2.6.2-4 .2Zm12.6 2c-.4-3.1-.9-6.199-1.3-9.399-1.3.2-2.7.4-4 .5.3 3.1.6 6.199 1 9.399l-2.2.201-.9-11.3c2.7-.2 5.3-.5 8-1 .6 3.8 1.2 7.5 1.8 11.2l-2.4.399Zm10.9-8.099c-.2.6-.5 1.1-1 1.5-.8.5-1.7.799-2.6.899l-1.4.301.8 4.199-2.2.401-2-11.201c1.1-.2 2.1-.399 3.2-.599.8-.2 1.6-.301 2.4-.401.6 0 1.3.301 1.7.701 1 1.2 1.4 2.8 1.1 4.2Zm3.8 5c-1-3.7-2-7.3-3.1-11 2.4-.7 4.8-1.4 7.2-2.3l.7 1.8c-1.8.6-3.5 1.2-5.3 1.7.2.8.5 1.599.7 2.399 1.7-.5 3.4-1.1 5-1.7l.7 1.801c-1.7.6-3.4 1.199-5.2 1.699l.9 3c2-.6 3.9-1.199 5.9-1.899l.7 1.8c-2.7 1.1-5.4 2-8.2 2.7Zm18-6.7-3.8-8.1c.6 3 1.2 6 1.8 9.1l-2 .9c-1.8-2.5-3.6-4.9-5.4-7.4l3.3 8.299-2 .8.1-.099-4-10.6c1-.4 1.9-.701 2.9-1.101 1.5 2.2 3.2 4.301 4.8 6.401-.4-2.6-.9-5.301-1.5-7.901.9-.4 1.9-.899 2.8-1.299 1.7 3.4 3.4 6.8 5 10.2l-2 .8Zm11.1-7.1c-.3 1.1-1.1 2-2.1 2.5-1.6.9-3.3 1.899-4.9 2.699l-5.2-10.099c.6-.3 1.2-.6 1.8-1l2.2 4 2.7-1.5c.8-.6 1.9-.8 2.9-.6.9.2 1.7.8 2.2 1.6.3.7.5 1.5.4 2.4Zm2.9-.801v.101l-6.2-9.5c2.2-1.4 4.3-2.9 6.4-4.5l1.2 1.5c-1.5 1.2-3.1 2.299-4.7 3.399l1.5 2.101c1.5-1 3-2.1 4.4-3.2l1.2 1.5-4.5 3.299c.6.8 1.2 1.7 1.7 2.5 1.7-1.2 3.5-2.499 5.2-3.799l1.2 1.5c-2.5 1.7-4.9 3.499-7.4 5.099Zm11-14.3c-.5.8-1.2 1.501-2 2.101l-1.1 1 2.7 3.3-1.8 1.5v.099l-7.1-8.9c.9-.7 1.8-1.5 2.7-2.2.6-.6 1.3-1.1 2-1.6.6-.3 1.3-.4 1.9-.2 1.5.4 2.6 1.6 3 3.1.1.6 0 1.3-.3 1.8Z" fill="url(#j)"/><path fill-rule="evenodd" clip-rule="evenodd" d="M86.2 127.402c1 .1 1.9.3 2.9.4-.4-1.5-.7-3-1-4.4-.6 1.3-1.2 2.6-1.9 4Z" fill="url(#k)"/><path fill-rule="evenodd" clip-rule="evenodd" d="M171.299 97.102c-.3-.1-.6 0-.9.1-.5.3-1 .7-1.5 1.1l-.9.7 2.1 2.5c.3-.3.7-.5 1-.8.5-.4.9-.8 1.2-1.2.2-.3.2-.6.2-.9 0-.3-.2-.6-.4-.9-.1-.4-.5-.5-.8-.6Z" fill="url(#l)"/><path fill-rule="evenodd" clip-rule="evenodd" d="M86.5 97.801s-7.1-2.5-9.5 1.3c-2.5 3.9-2.4 7.9.6 9.1 2.9 1.2 8.1 1 8.7-1.9 0 0-.4.2-1.6.7-4.3 1.7-7.8.1-7.3-2.3.6-3 1.6-4 5.3-4 3.8 0 3.2 5 6 5.9 2.8.9 7.6-1.4 8.2-2.3.6-1-3.2-7.1-10.4-6.5Z" fill="#B14F46"/><path d="M86.5 97.801s-7.1-2.5-9.5 1.3c-2.5 3.9-2.4 7.9.6 9.1 2.9 1.2 8.1 1 8.7-1.9 0 0-.4.2-1.6.7-4.3 1.7-7.8.1-7.3-2.3.6-3 1.6-4 5.3-4 3.8 0 3.2 5 6 5.9 2.8.9 7.6-1.4 8.2-2.3.6-1-3.2-7.1-10.4-6.5Z" stroke="#909295" stroke-width=".72" stroke-linejoin="round"/><path fill-rule="evenodd" clip-rule="evenodd" d="M96 98.202s3.6-1.7 5.9-1.2c2.4.5 4.4-3.1 2.5-4.4-2-1.4-5.5-5.3-6.7-5.6 0 0 2.7-4.2 5.4-3.7 2.8.5 7 4 8.4 4.4.7.3 1.5.4 2.3.2 0 0-.9 3.7-3.6 4-2.6.4-.3 4.1 1.6 3.2 1.9-.9 5.1-4.6 4.7-7.1-.4-2.5 1.3-1.7 2.4-.3 1.1 1.4 2.7-.1 1.1-1.8-1.7-1.7-2.3-1.8-2.3-1.8s.4-3.1 2-2.8c1.6.4 3.5 3.1 3.1 7.3 0 0 5-.2 4.5 2.5 0 0-5.6-1.1-3.8.5.3 1 .6 2 .7 3-1.5.3-3 .4-4.4.1-2-.5-5 4.4-4 5.5 1 1 .7 2.1 2.5 1.9 1.7-.2 5.4-1.5 5.6-1.1.3.4 2.5 3 2.2 4.9-.7.4-1.6.6-2.4.4 0 0 .6-2.6-.5-2.8-1.1-.2-5.9.6-6.5.1-.6-.4-3.4-1.3-3.4-2.4-2.5 2.9-6.3 4.3-10.1 3.8-3.7-.1-6.7-3-7.2-6.8Z" fill="#B14F46"/><path d="M96.1 98.202s3.6-1.7 5.9-1.2c2.4.5 4.4-3.1 2.5-4.4-1.9-1.3-5.5-5.2-6.7-5.5 0 0 2.699-4.2 5.399-3.7 2.8.5 7.001 4 8.401 4.4.7.3 1.5.4 2.3.2 0 0-.9 3.7-3.6 4-2.7.4-.3 4.1 1.6 3.2 1.9-.9 5.1-4.6 4.7-7.1-.4-2.5 1.3-1.6 2.4-.3 1.1 1.3 2.7-.1 1.1-1.8-1.7-1.7-2.401-1.8-2.401-1.8s.501-3.2 2.101-2.8c1.6.4 3.5 3.1 3.1 7.3 0 0 5-.2 4.5 2.5 0 0-5.6-1.1-3.8.5.3 1 .6 2 .7 3-1.5.3-3 .4-4.4.1-2-.5-5 4.4-4 5.5 1 1.1.7 2.1 2.5 1.9 1.7-.2 5.4-1.5 5.6-1.1.3.4 2.499 3 2.199 4.9-.7.4-1.599.6-2.399.4 0 0 .6-2.6-.5-2.8-1.1-.2-5.9.6-6.5.1-.6-.5-3.4-1.4-3.4-2.4-2.5 2.9-6.3 4.3-10.1 3.8-3.8-.3-6.8-3.2-7.2-6.9Z" stroke="#909295" stroke-width=".72" stroke-linejoin="round"/><path fill-rule="evenodd" clip-rule="evenodd" d="M72.5 107.402c-3.3-1.8-4.5-6-2.7-9.3.1-.1.1-.2.2-.3 2.1-3.6 2.5-7.9 1.2-11.8 0 0 .4-5 7.5-3.8-.2.9-.2 1.9 0 2.8-2 2-2.3 5.1-.8 7.5 2.6 4.1-2.6 10-2.6 10s-3.2 3.8-2.8 4.9Z" fill="#475B7A"/><path d="M72.5 107.402c-3.3-1.8-4.5-6-2.7-9.3.1-.1.1-.2.2-.3 2.1-3.6 2.5-7.9 1.2-11.8 0 0 .4-5 7.5-3.8-.2.9-.2 1.9 0 2.8-2 2-2.3 5.1-.8 7.5 2.6 4.1-2.6 10-2.6 10s-3.2 3.7-2.8 4.9Z" stroke="#909295" stroke-width=".96" stroke-linecap="round" stroke-linejoin="round"/><path fill-rule="evenodd" clip-rule="evenodd" d="M89.9 53.601s-3.6-3.8-3.2-5.9c.4-2.1.7-4.3.7-4.3.5-1.6 1.2-3.2 2.2-4.5.1-.1.2-.1.3 0 .1.1.1.2.1.3-.4.9-.7 1.8-.9 2.8-.4 1.9-.5 3.8-.1 5.7.5 1 3.5 4.7 5.2 4.8.8.2 1.7 0 2.4-.6 0 0-4.9-5.2-2.2-7.1 2.7-1.9 7.5-3.2 8.1-1.3.6 1.9 2.5 11.2 1 11.2s-3 .8-4.6-.6l-9-.5Z" fill="#fff"/><path d="M89.9 53.601s-3.6-3.8-3.2-5.9c.4-2.1.7-4.3.7-4.3.5-1.6 1.2-3.2 2.2-4.5.1-.1.2-.1.3 0 .1.1.1.2.1.2-.4.9-.7 1.8-.9 2.8-.4 1.9-.5 3.8-.1 5.7.5 1 3.5 4.7 5.2 4.8.8.2 1.7 0 2.4-.6 0 0-4.9-5.2-2.2-7.1 2.7-2 7.4-3.2 8.1-1.3.7 1.9 2.5 11.2 1 11.2s-3 .8-4.6-.6" stroke="#909295" stroke-width=".48" stroke-miterlimit="10"/><path fill-rule="evenodd" clip-rule="evenodd" d="M86 92.5s-6.8-3.2-7.3-6.9.4-6.2 3.1-7c-.3-1.6-.3-3.3 0-4.9.5-1.4 3.5-3 3.5-4.1.1-1.2.1-2.8-1.1-3.5-1.2-.8-.7-2.5 1.5-3.4 2.2-.8-.8-3 .4-3.8 1.2-.8 2.3-.7 2.3-1.5s-.8-3 .9-3.5c1.7-.5 2.2-1.8 3-2.1.8-.2.5.4 1.6.7 1.2.4 2.4-1.6 3-.5.7 1.2 1.9 2 3.199 2.2 1.1.1 4.7-2.2 4.3-6.7 0 0 .6-.9 1.3-.8 0 0 .4-2.3 1.3-2.7 0 0-.1 2.8.7 3.1.9.2 3.7 1.1 3.7 1.1s.5 1.4 1.1 1.5c1.9.6 3.9 1 5.9 1.3 0 0-.3 3.1-1.3 4.1-1 1-5.8-1.2-7.3-.6s-3.3 2.9-1.8 3.8c2 .9 3.4 2.8 3.6 5 0 0 5.1 3 5.5 6.6l.1 1.7h8.4l9.1 8 .4 4.9s-2.8 1-2.8-.3v-3.6l-6.8-6.7c-.4 0-.8.3-.8.7 0 .2 0 .4.2.5.6 1.2 1.5 3.3 1.5 3.3s-.4 8.4-.7 8.7c-.2.4-2.1 0-2.1-1 0 0 1-6.2.7-7-.5-1.1-1.1-2.2-1.8-3.2-2.6.9-5.2 1.9-7.7 3.2-1.6 1.1-6.3 4-10.3 4.1-4 .1-9.8 4.6-9.8 6-.6 2.7-2.2 5.1-4.4 6.7 0 0 6.6 2 8.4 4.4 1.8 2.4 3.3 4.1 3.1 6.5-1.3.5-2.8.5-4.1 0-1.4-5.3-6.2-9-11.7-8.9-.1.1.8-3.8 0-5.4Z" fill="#475B7A"/><path d="M86 92.402s-6.8-3.2-7.3-6.8c-.5-3.7.4-6.2 3.1-7-.3-1.6-.3-3.3 0-4.9.5-1.3 3.5-3 3.5-4.1.1-1.2.1-2.8-1.1-3.5-1.2-.8-.7-2.5 1.5-3.4 2.2-.8-.8-2.9.4-3.8 1.2-.9 2.3-.6 2.3-1.5 0-.8-.8-3 .9-3.5 1.7-.5 2.2-1.8 3-2.1.8-.3.5.4 1.6.7 1.2.4 2.4-1.6 3-.5.7 1.2 1.9 2 3.199 2.2 1.1.1 4.7-2.2 4.3-6.7 0 0 .6-.9 1.3-.8 0 0 .4-2.3 1.3-2.6 0 0-.1 2.8.7 3.1.8.2 3.7 1.1 3.7 1.1s.5 1.4 1.2 1.5c1.9.6 3.9 1 5.9 1.3 0 0-.3 3.1-1.3 4.1-1 1-5.8-1.2-7.3-.7-1.5.6-3.3 2.9-1.8 3.8 2 .9 3.4 2.8 3.6 5 0 0 5.1 3 5.5 6.6l.1 1.7h8.4l9.1 8 .4 4.9s-2.8 1-2.8-.3v-3.6l-6.8-6.7c-.4 0-.8.3-.8.7 0 .2 0 .4.2.5.6 1.2 1.5 3.3 1.5 3.3s-.4 8.4-.7 8.7c-.2.4-2.1 0-2.1-1 0 0 1-6.2.7-7-.5-1.1-1.1-2.2-1.8-3.2-2.6.9-5.2 1.9-7.7 3.2-1.6 1.1-6.3 4-10.3 4.1-4 .1-9.7 4.6-9.8 5.9-.6 2.7-2.2 5.1-4.4 6.7 0 0 6.6 2 8.4 4.399 1.8 2.4 3.3 4.1 3.1 6.5-1.3.5-2.8.5-4.1 0-1.4-5.3-6.2-9-11.7-8.9-.2.3.7-3.8-.1-5.4Z" stroke="#909295" stroke-width=".96" stroke-linejoin="round"/><path fill-rule="evenodd" clip-rule="evenodd" d="M96.5 51.7s-4.9-5.2-2.2-7.1c2.7-2 7.4-3.2 8.1-1.3.7 1.9 2.5 10.4 1 11.1-1.5.8-3.4.6-4.6-.6l-2.3-2.1Z" fill="#fff"/><path d="M96.5 51.7s-4.9-5.2-2.2-7.1c2.7-2 7.4-3.2 8.1-1.3.7 1.9 2.5 10.4 1 11.1-1.5.8-3.4.6-4.6-.6l-2.3-2.1Z" stroke="#909295" stroke-width=".96" stroke-miterlimit="10"/><path fill-rule="evenodd" clip-rule="evenodd" d="M107.4 74.501c-1.9-1.8-3.6-3.6-5.2-5.6-.1-.2-.2-.4-.1-.6 0-.1.1-.2.1-.3l2.4-5.1c1.5-5.4-2.8-7.1-2.8-7.1l-2.3-.2c1.2 1.5-1.5 6.5-1.8 10.1-.1 1.3.3 2.1 1 2.5.2.1.4.2.6.4 2.4 2.4 5.1 4.5 8 6.2.1 0 .3 0 .3-.1-.1-.1-.1-.2-.2-.2Z" fill="#fff"/><path d="M107.4 74.501c-1.9-1.8-3.6-3.6-5.2-5.6-.1-.2-.2-.4-.1-.6 0-.1.1-.2.1-.3l2.4-5.1c1.5-5.4-2.8-7.1-2.8-7.1l-2.3-.2c1.2 1.5-1.5 6.5-1.8 10.1-.1 1.3.3 2.1 1 2.5.2.1.4.2.6.4 2.4 2.4 5.1 4.5 8 6.2.1 0 .3 0 .3-.1-.1-.1-.1-.2-.2-.2Z" stroke="#909295" stroke-width=".48" stroke-miterlimit="10"/><path fill-rule="evenodd" clip-rule="evenodd" d="M100.3 72.5s6.7 2.5 5.9 4.8c-.8 2.2-8.5 7.4-8.5 7.4s-2 1.3-.5 2.1 4 3.7 3 5.2c0 0-.7 1.3-3.2-1.9s-4.4-1.5-4.9-2.1c-.5-.6-1.7-4.4 1.5-5.6-.1-.1 8.5-3.6 6.7-9.9Z" fill="#fff"/><path d="M100.3 72.5s6.7 2.5 5.9 4.8c-.8 2.2-8.5 7.4-8.5 7.4s-2 1.3-.5 2.1 4 3.7 3 5.2c0 0-.7 1.3-3.2-1.9s-4.4-1.5-4.9-2.1c-.5-.6-1.7-4.4 1.5-5.6-.1-.1 8.5-3.6 6.7-9.9Z" stroke="#909295" stroke-width=".48" stroke-linejoin="round"/><path fill-rule="evenodd" clip-rule="evenodd" d="m87.4 33.602 31.099 57.9-31.1-57.9Z" fill="#B14F46"/><path d="m87.4 33.602 31.099 57.9" stroke="#909295" stroke-width=".96" stroke-linecap="round" stroke-linejoin="round"/></g><defs><linearGradient id="h" x1=".245" y1="122.654" x2="197.971" y2="122.654" gradientUnits="userSpaceOnUse"><stop stop-color="#1C8AE2"/><stop offset=".486" stop-color="#8B00B3"/><stop offset="1" stop-color="#6900B5"/></linearGradient><linearGradient id="b" x1=".244" y1="67.07" x2="197.972" y2="67.07" gradientUnits="userSpaceOnUse"><stop stop-color="#1C8AE2"/><stop offset=".486" stop-color="#8B00B3"/><stop offset="1" stop-color="#6900B5"/></linearGradient><linearGradient id="d" x1=".244" y1="119.981" x2="197.971" y2="119.981" gradientUnits="userSpaceOnUse"><stop stop-color="#1C8AE2"/><stop offset=".486" stop-color="#8B00B3"/><stop offset="1" stop-color="#6900B5"/></linearGradient><linearGradient id="e" x1=".244" y1="128.042" x2="197.972" y2="128.042" gradientUnits="userSpaceOnUse"><stop stop-color="#1C8AE2"/><stop offset=".486" stop-color="#8B00B3"/><stop offset="1" stop-color="#6900B5"/></linearGradient><linearGradient id="f" x1=".243" y1="119.981" x2="197.972" y2="119.981" gradientUnits="userSpaceOnUse"><stop stop-color="#1C8AE2"/><stop offset=".486" stop-color="#8B00B3"/><stop offset="1" stop-color="#6900B5"/></linearGradient><linearGradient id="g" x1=".241" y1="115.019" x2="197.972" y2="115.019" gradientUnits="userSpaceOnUse"><stop stop-color="#1C8AE2"/><stop offset=".486" stop-color="#8B00B3"/><stop offset="1" stop-color="#6900B5"/></linearGradient><linearGradient id="c" x1=".244" y1="128.042" x2="197.97" y2="128.042" gradientUnits="userSpaceOnUse"><stop stop-color="#1C8AE2"/><stop offset=".486" stop-color="#8B00B3"/><stop offset="1" stop-color="#6900B5"/></linearGradient><linearGradient id="i" x1=".245" y1="110.305" x2="197.968" y2="110.305" gradientUnits="userSpaceOnUse"><stop stop-color="#1C8AE2"/><stop offset=".486" stop-color="#8B00B3"/><stop offset="1" stop-color="#6900B5"/></linearGradient><linearGradient id="j" x1=".244" y1="112.004" x2="197.972" y2="112.004" gradientUnits="userSpaceOnUse"><stop stop-color="#1C8AE2"/><stop offset=".486" stop-color="#8B00B3"/><stop offset="1" stop-color="#6900B5"/></linearGradient><linearGradient id="k" x1=".239" y1="125.535" x2="197.977" y2="125.535" gradientUnits="userSpaceOnUse"><stop stop-color="#1C8AE2"/><stop offset=".486" stop-color="#8B00B3"/><stop offset="1" stop-color="#6900B5"/></linearGradient><linearGradient id="l" x1=".243" y1="99.255" x2="197.971" y2="99.255" gradientUnits="userSpaceOnUse"><stop stop-color="#1C8AE2"/><stop offset=".486" stop-color="#8B00B3"/><stop offset="1" stop-color="#6900B5"/></linearGradient><clipPath id="a"><path fill="#fff" d="M0 0h201v155H0z"/></clipPath></defs></svg>