<svg width="201" height="155" fill="none" xmlns="http://www.w3.org/2000/svg"><path d="m71.1 80.5 4.3 1.3c-.5 2.1-1.6 4-3.3 5.3-1.7 1.2-3.7 1.7-5.8 1.6-2.7.1-5.3-1-7.1-3-1.9-2.2-2.9-5.1-2.8-8.1-.2-3.1.8-6.1 2.8-8.4 1.9-2 4.6-3.1 7.4-3 2.4-.1 4.7.8 6.5 2.4 1.1 1.1 1.9 2.5 2.2 4l-4.3 1c-.4-2.2-2.3-3.8-4.6-3.7-1.5 0-2.9.6-3.9 1.7-1.1 1.6-1.7 3.6-1.5 5.6 0 2.8.5 4.7 1.5 5.9 1 1.1 2.4 1.8 3.9 1.7 1.1 0 2.2-.4 3-1.1.9-.6 1.5-1.9 1.7-3.2Z" fill="url(#a)"/><path d="M79 72.8h4v9.9l6.4-9.9h4.1v15.701h-4v-10.1L83 88.5h-4v-15.7Z" fill="url(#b)"/><path d="M97.6 72.8h4.2v5.8h6v-5.8h4.2v15.701h-4.1v-6.7h-6v6.7h-4.2v-15.7h-.1Z" fill="url(#c)"/><path d="m119.3 77.6-3.8-.7c.3-1.3 1.1-2.5 2.2-3.4 1.4-.8 3-1.2 4.6-1.1 1.4-.1 2.8.2 4.2.7.8.3 1.5.9 1.9 1.7.5 1.2.7 2.5.6 3.7v4.9c0 1 0 2 .2 3.1.2.7.4 1.5.7 2.1h-4.2c-.1-.3-.2-.7-.4-1.2 0-.2-.1-.4-.1-.5-.7.7-1.4 1.2-2.3 1.6-.8.3-1.7.5-2.5.5-1.4.1-2.8-.4-3.8-1.3-.9-.9-1.4-2.1-1.3-3.3 0-.8.2-1.7.6-2.4.4-.7 1-1.3 1.8-1.6 1.1-.5 2.2-.8 3.3-1 1.4-.2 2.7-.6 4-1V78c.1-.6-.2-1.3-.6-1.7-.7-.4-1.5-.6-2.2-.5-1.4-.4-2.6.5-2.9 1.8Zm5.6 3.4c-.8.3-1.7.5-2.5.6-.8.1-1.6.4-2.3.7-.5.3-.8.9-.8 1.5s.2 1.1.6 1.5c.4.4 1.1.7 1.7.6.8 0 1.5-.3 2.2-.7.5-.3.8-.8 1-1.3.1-.7.2-1.4.2-2V81h-.1Z" fill="url(#d)"/><path d="M132.9 72.8h14v15.701h-4.2v-12.4h-5.6v12.4h-4.2v-15.7Z" fill="url(#e)"/><path d="m165.2 77.4-4.1.7c-.1-.7-.4-1.4-.9-1.9-.5-.4-1.2-.7-1.9-.6-1 0-1.9.4-2.5 1.1-.7 1.1-1 2.3-.9 3.6-.1 1.4.2 2.8.9 4 .6.8 1.6 1.2 2.5 1.2.7 0 1.4-.2 1.9-.7.6-.6 1-1.5 1.1-2.3l4.1.7c-.3 1.7-1.2 3.2-2.4 4.3-1.4 1-3.1 1.5-4.9 1.3-2.1.1-4.1-.7-5.5-2.2-1.5-1.7-2.2-3.8-2.1-6-.1-2.2.6-4.4 2.1-6.1 1.5-1.5 3.5-2.3 5.6-2.2 1.6-.1 3.2.4 4.6 1.2 1.2 1.1 2 2.4 2.4 3.9Z" fill="url(#f)"/><path d="M170.2 78.601v-12.4h2.5l2.9 8.8c.3.8.5 1.4.6 1.8l.7-2 3-8.6h2.2v12.4h-1.6v-10.4l-3.6 10.4h-1.5l-3.6-10.6v10.6h-1.6Z" fill="url(#g)"/><path d="m190.5 75.3 1.5.2c-.1.9-.6 1.8-1.3 2.4-.7.6-1.6.9-2.5.9-1.1 0-2.2-.4-3-1.2-.8-1-1.2-2.2-1.1-3.5 0-.9.1-1.7.5-2.5.3-.7.8-1.3 1.5-1.6.7-.4 1.4-.6 2.1-.5.9 0 1.7.2 2.4.7.6.5 1.1 1.3 1.2 2.1l-1.5.2c-.1-.5-.4-1-.7-1.3-.4-.3-.9-.5-1.3-.5-.7 0-1.4.3-1.9.8-.5.8-.8 1.7-.7 2.6-.1.9.2 1.9.7 2.7.4.5 1.1.8 1.8.8.6 0 1.1-.2 1.5-.5.5-.5.8-1.1.8-1.8Z" fill="url(#h)"/><path d="M194 69.701h1.5v3.9c.4 0 .7-.1 1-.3.4-.5.7-1 .9-1.6.2-.5.4-1 .7-1.4.2-.2.4-.4.6-.5.4-.1.8-.1 1.2-.1h.3v1.3h-.4c-.3 0-.5 0-.8.2-.2.3-.4.7-.5 1.1-.2.4-.4.9-.6 1.2-.2.3-.5.5-.9.6.8.3 1.5 1 1.9 1.8l1.7 2.8h-1.7l-1.6-2.8c-.2-.4-.5-.8-.9-1.1-.3-.2-.6-.3-.9-.3v4.1H194v-8.9Z" fill="url(#i)"/><path d="M23.7 77.501c0 4.1 1.1 8.1 3.2 11.6 2 3.6 5 6.5 8.6 8.5 3.5 1.9 7.4 2.9 11.3 3v-45.9c-6.1 0-11.9 2.4-16.2 6.7-4.5 4.1-7 10-6.9 16.1Z" fill="url(#j)"/><path d="M16.3 78c0-5.4 1.4-10.6 4.1-15.3 2-3.4 4.6-6.3 7.7-8.7H0v46.8h27.5c-.8-.7-1.6-1.3-2.4-2.1-5.7-5.3-8.9-12.8-8.8-20.7Z" fill="url(#k)"/><path d="M46.8 100.6c-4-.1-7.8-1.1-11.3-3-3.6-2-6.6-4.9-8.6-8.5-2.1-3.5-3.2-7.6-3.2-11.6-.1-6.1 2.4-12 6.8-16.2 4.3-4.2 10.2-6.6 16.2-6.6v-.6H28c-3.1 2.3-5.7 5.3-7.7 8.7-2.7 4.6-4.2 9.9-4.1 15.3-.1 7.9 3.1 15.4 8.9 20.8.8.8 1.6 1.4 2.4 2.1h19.3v-.4Z" fill="#fff"/><defs><linearGradient id="f" x1="-.593" y1="80.616" x2="198.825" y2="80.616" gradientUnits="userSpaceOnUse"><stop stop-color="#1C8AE2"/><stop offset=".486" stop-color="#8B00B3"/><stop offset="1" stop-color="#6900B5"/></linearGradient><linearGradient id="a" x1="-.592" y1="77.607" x2="198.826" y2="77.607" gradientUnits="userSpaceOnUse"><stop stop-color="#1C8AE2"/><stop offset=".486" stop-color="#8B00B3"/><stop offset="1" stop-color="#6900B5"/></linearGradient><linearGradient id="c" x1="-.593" y1="80.673" x2="198.825" y2="80.673" gradientUnits="userSpaceOnUse"><stop stop-color="#1C8AE2"/><stop offset=".486" stop-color="#8B00B3"/><stop offset="1" stop-color="#6900B5"/></linearGradient><linearGradient id="d" x1="-.593" y1="80.628" x2="198.825" y2="80.628" gradientUnits="userSpaceOnUse"><stop stop-color="#1C8AE2"/><stop offset=".486" stop-color="#8B00B3"/><stop offset="1" stop-color="#6900B5"/></linearGradient><linearGradient id="e" x1="-.592" y1="80.673" x2="198.826" y2="80.673" gradientUnits="userSpaceOnUse"><stop stop-color="#1C8AE2"/><stop offset=".486" stop-color="#8B00B3"/><stop offset="1" stop-color="#6900B5"/></linearGradient><linearGradient id="b" x1="-.593" y1="80.673" x2="198.826" y2="80.673" gradientUnits="userSpaceOnUse"><stop stop-color="#1C8AE2"/><stop offset=".486" stop-color="#8B00B3"/><stop offset="1" stop-color="#6900B5"/></linearGradient><linearGradient id="g" x1="-.592" y1="72.436" x2="198.826" y2="72.436" gradientUnits="userSpaceOnUse"><stop stop-color="#1C8AE2"/><stop offset=".486" stop-color="#8B00B3"/><stop offset="1" stop-color="#6900B5"/></linearGradient><linearGradient id="h" x1="-.592" y1="74.147" x2="198.826" y2="74.147" gradientUnits="userSpaceOnUse"><stop stop-color="#1C8AE2"/><stop offset=".486" stop-color="#8B00B3"/><stop offset="1" stop-color="#6900B5"/></linearGradient><linearGradient id="i" x1="-.593" y1="74.146" x2="198.826" y2="74.146" gradientUnits="userSpaceOnUse"><stop stop-color="#1C8AE2"/><stop offset=".486" stop-color="#8B00B3"/><stop offset="1" stop-color="#6900B5"/></linearGradient><linearGradient id="j" x1="-.592" y1="77.624" x2="198.826" y2="77.624" gradientUnits="userSpaceOnUse"><stop stop-color="#1C8AE2"/><stop offset=".486" stop-color="#8B00B3"/><stop offset="1" stop-color="#6900B5"/></linearGradient><linearGradient id="k" x1="-.593" y1="77.483" x2="198.826" y2="77.483" gradientUnits="userSpaceOnUse"><stop stop-color="#1C8AE2"/><stop offset=".486" stop-color="#8B00B3"/><stop offset="1" stop-color="#6900B5"/></linearGradient></defs></svg>