<svg width="201" height="155" fill="none" xmlns="http://www.w3.org/2000/svg"><path fill-rule="evenodd" clip-rule="evenodd" d="M30.68 88.015h-2.4v-5.3h-18v5.3h-2.4v-12.3c0-2.7 1-4 2.9-4h17c1.9 0 2.9 1.4 2.9 4.1v12.2Zm-20.4-8.6h18v-3.2c0-.9-.3-1.3-.9-1.3h-16.1c-.6 0-.9.4-.9 1.3v3.2h-.1Zm41.7-4.5h-17v4.6h17.1c.6 0 .9-.4.9-1.3v-2c-.1-.9-.4-1.3-1-1.3Zm-17.1 7.9v5.2h-2.4v-16.3h19.9c1.9 0 2.9 1.3 2.9 3.9v3.2c0 2.7-1 4-2.9 4h-17.5Zm37 5.2h-2.8v-13h-11.9v-3.3h26.6v3.2h-11.8l-.1 13.1Zm49.801-4c0 2.7-1 4-2.9 4h-19.9v-16.3h22.8v3.2h-20.4v3.3h17.5c1.9 0 2.9 1.3 2.9 3.9v1.9Zm-20.4.7h17c.7 0 1-.4 1-1.3v-.7c0-.8-.3-1.3-1-1.3h-17v3.3Zm24.6 3.2h-2.3v-16.2h2.4v12.4l18-12.4h2.4v16.3h-2.4v-12.6l-18.1 12.5Zm43.7 0h2.3v-16.2h-19.9c-1.9 0-2.8 1.3-2.8 4v7.7c0 .8-.3 1.3-.9 1.4h-.5v3.2h.9c1.9 0 2.9-1.3 2.9-3.8v-7.8c0-.9.3-1.4.9-1.4h17.1v12.9Zm7.5-3.2h18v-8.4c0-.9-.3-1.3-1-1.3h-16.1c-.6 0-.9.4-.9 1.3v8.4Zm-2.4-9.2c0-2.5.9-3.8 2.8-3.8h17c1.9 0 2.9 1.3 2.9 3.9v9.1h2.4v3.2h-27.4v-3.2h2.3v-9.2Z" fill="url(#a)"/><path fill-rule="evenodd" clip-rule="evenodd" d="M39.281 33.515s-24.2 10.6-31.8 32.6h5.8c5.1-10.9 19.2-27 37.5-27.1 1 0-11.5-5.5-11.5-5.5Zm-36.1 65.3c33.4-5.9 69.3-5 101.7 5 1.8.4 3.7.2 5.3-.7.8-.4 2.4-1.9.7-2.4-33.9-10.4-71.5-11.4-106.5-5.2-1.4.2-3.8.7-4.3 2.2-.6 1.4 2.3 1.3 3.1 1.1Zm59.9-64.8c1.2 0 23.3 8.7 46.8 33.1 0 0-20.5.3-21.1-.5-12.8-17.2-29.7-25.7-47-33.1-3.2-1.4 21.3.5 21.3.5Zm-9.8 25.7c4.3-3.8 3.5-7.9 3.9-10.6.4-3.2 2.1 11.8-1.3 13.6-2.8 1.5-14.3 1.3-14.4.5-.2-.7 8.5-.6 11.8-3.5Zm-10.1-8.3c-4.3 3.8-3.5 7.9-3.9 10.6-.4 3.2-2.1-11.8 1.3-13.6 2.8-1.6 14.3-1.4 14.4-.5.1.7-8.6.6-11.8 3.5Z" fill="url(#b)"/><path fill-rule="evenodd" clip-rule="evenodd" d="M15.28 121.614h-2.1l.9-4.6h2c1 0 1.5.3 1.5.9 0 .6-.3 1-.9 1.2.4.1.7.5.7.9v.3c-.1.9-.8 1.3-2.1 1.3Zm.8-1.6c0-.3-.2-.4-.6-.4h-.5l-.2 1.2h.6c.4-.1.7-.4.7-.8Zm.2-1.9c0-.3-.2-.4-.5-.4h-.5l-.2 1.1h.5c.2 0 .4-.1.6-.2 0-.1.1-.3.1-.5Z" fill="url(#c)"/><path fill-rule="evenodd" clip-rule="evenodd" d="M25.581 121.614h-1.3l-.4-3.2-1.6 3.2h-1.2l2.4-4.7h1.4l.7 4.7Z" fill="url(#d)"/><path fill-rule="evenodd" clip-rule="evenodd" d="M34.28 121.614h-1.3l.1-.5c-.4.5-1 .7-1.6.6-.9.2-1.7-.4-1.8-1.3v-.5c0-.7.2-1.5.7-2.1.5-.7 1.3-1.1 2.2-1 .7 0 1.1.2 1.3.6l.1-.5h1.3l-1 4.7Zm-.8-2.7c0-.7-.3-1.1-1-1.1-.5 0-.9.2-1.1.7-.2.4-.3.8-.3 1.2 0 .7.3 1 .9 1 .5 0 .9-.2 1.2-.6.2-.4.3-.8.3-1.2Z" fill="url(#e)"/><path fill-rule="evenodd" clip-rule="evenodd" d="M43.68 119.915c-.2.5-.6 1-1 1.3-.5.3-1.1.5-1.7.5-.6 0-1.2-.2-1.6-.6-.4-.4-.5-.9-.5-1.4 0-.8.3-1.5.9-2 .6-.6 1.4-1 2.2-1 .6 0 1.1.1 1.6.5.4.3.6.8.5 1.3h-1.3c0-.5-.4-.8-1-.8-.5 0-.9.3-1.1.7-.2.4-.4.8-.3 1.2 0 .7.3 1 1 1 .5 0 1-.3 1.2-.8l1.1.1Z" fill="url(#f)"/><path fill-rule="evenodd" clip-rule="evenodd" d="M51.081 117.914h-1.1l-.7 3.7h-1.4l.7-3.7h-1.1l.2-1h3.6l-.2 1Z" fill="url(#g)"/><path fill-rule="evenodd" clip-rule="evenodd" d="M55.981 121.614h-2l.9-4.6h1.4l-.3 1.8h.6c1.2 0 1.7.4 1.7 1.1 0 .5-.2 1-.6 1.3-.5.3-1.1.4-1.7.4Zm.9-1.6c0-.3-.2-.4-.6-.4h-.5l-.2 1.2h.5c.2 0 .4-.1.6-.2.1-.3.2-.4.2-.6Z" fill="url(#h)"/><path fill-rule="evenodd" clip-rule="evenodd" d="M73.381 121.614h-1.4l.4-1.9h-1.6l-.3 1.9h-1.4l.9-4.7h1.4l-.4 1.8h1.6l.3-1.8h1.4l-.9 4.7Z" fill="url(#i)"/><path fill-rule="evenodd" clip-rule="evenodd" d="M82.381 121.614h-1.3l.1-.5c-.4.5-1 .7-1.6.6-.9.1-1.7-.5-1.8-1.4v-.4c0-.7.2-1.5.7-2.1.5-.7 1.3-1.1 2.2-1 .7 0 1.1.2 1.3.6l.1-.5h1.3l-1 4.7Zm-.8-2.7c0-.7-.3-1.1-1-1.1-.5 0-.9.2-1.1.7-.2.4-.3.8-.3 1.2 0 .7.3 1 .9 1 .5 0 .9-.2 1.2-.6.1-.4.3-.8.3-1.2Z" fill="url(#j)"/><path fill-rule="evenodd" clip-rule="evenodd" d="M91.081 122.614h-1.1l.2-1h-2.7l-.1 1h-1.1l.4-1.9h.5l1.8-3.7h1.5l.5 3.7h.5l-.4 1.9Zm-1.4-2-.2-2.4-1.1 2.4h1.3Z" fill="url(#k)"/><path fill-rule="evenodd" clip-rule="evenodd" d="M105.581 117.914h-1.2l-.7 3.7h-1.3l.7-3.7h-1.2l.2-1h3.6l-.1 1Z" fill="url(#l)"/><path fill-rule="evenodd" clip-rule="evenodd" d="M113.981 119.615h-3.7v.3c0 .3.1.5.3.7.2.2.5.3.8.3.4 0 .9-.2 1.1-.5h1.3c-.2.4-.6.8-1 1-.5.3-1 .399-1.6.399-.6 0-1.2-.199-1.6-.599-.3-.4-.5-.801-.5-1.401 0-.8.3-1.5.8-2 .5-.6 1.4-1 2.2-1 .6 0 1.2.2 1.6.5.3.4.5.801.5 1.301-.1.4-.1.7-.2 1Zm-1.1-.801v-.199c0-.6-.3-.801-1-.801-.3 0-.7.101-.9.301-.3.2-.4.399-.5.699h2.4Z" fill="url(#m)"/><path fill-rule="evenodd" clip-rule="evenodd" d="M121.781 121.614h-1.5l-.7-1.5-1.2 1.5h-1.5l2.2-2.3-1.1-2.4h1.4l.6 1.5 1-1.5h1.5l-2 2.4 1.3 2.3Z" fill="url(#n)"/><path fill-rule="evenodd" clip-rule="evenodd" d="M129.781 121.614h-1.3l.4-1.9h-1.6l-.4 1.9h-1.3l.9-4.7h1.3l-.3 1.8h1.5l.4-1.8h1.3l-.9 4.7Z" fill="url(#o)"/><path fill-rule="evenodd" clip-rule="evenodd" d="M136.381 121.714c-.6 0-1.2-.2-1.6-.6-.4-.4-.5-.9-.5-1.4 0-.8.3-1.5.8-2 .6-.6 1.4-1 2.2-.9.6 0 1.2.2 1.6.6.4.4.6.9.5 1.4 0 .8-.3 1.5-.8 2-.5.6-1.3.9-2.2.9Zm1.8-2.9c0-.7-.3-1-.9-1-.5 0-.9.2-1.1.6-.2.3-.4.7-.3 1.2 0 .7.3 1 .9 1 .5 0 .9-.2 1.1-.7.2-.2.3-.6.3-1.1Z" fill="url(#p)"/><path fill-rule="evenodd" clip-rule="evenodd" d="M147.181 121.614h-1.3l-.4-3.2-1.6 3.2h-1.2l2.4-4.7h1.4l.7 4.7Z" fill="url(#q)"/><path fill-rule="evenodd" clip-rule="evenodd" d="M153.181 121.715c-.6 0-1.2-.2-1.6-.6-.4-.4-.6-.9-.5-1.4 0-.8.3-1.5.8-2 .6-.6 1.3-.901 2.2-.901.6 0 1.2.201 1.6.601.4.4.6.899.5 1.399 0 .8-.3 1.5-.8 2-.6.6-1.4.901-2.2.901Zm1.7-2.901c0-.7-.3-1-1-1-.5 0-.9.201-1.1.601-.2.3-.4.7-.3 1.2 0 .7.3 1 .9 1 .5 0 .9-.3 1.1-.7.2-.2.4-.601.4-1.101Z" fill="url(#r)"/><path fill-rule="evenodd" clip-rule="evenodd" d="M163.081 117.914h-1.5l-.7 3.7h-1.4l.9-4.7h2.9l-.2 1Z" fill="url(#s)"/><path fill-rule="evenodd" clip-rule="evenodd" d="M170.581 121.614h-1.3l.5-2.8-2.3 2.8h-1.3l.9-4.7h1.4l-.5 2.7 2.3-2.7h1.2l-.9 4.7Z" fill="url(#t)"/><path fill-rule="evenodd" clip-rule="evenodd" d="M180.181 119.615h-3.7v.3c0 .3.1.5.3.7.2.2.5.3.8.3.4 0 .9-.2 1.1-.5h1.3c-.2.4-.6.8-1 1-.5.3-1 .399-1.6.399-.6 0-1.2-.199-1.6-.599-.3-.4-.5-.801-.5-1.401 0-.8.3-1.5.8-2 .5-.6 1.4-1 2.2-1 .6 0 1.2.1 1.6.5.4.4.5.801.5 1.301-.1.4-.1.7-.2 1Zm-1.1-.801v-.199c0-.6-.3-.801-1-.801-.3 0-.7.101-1 .301-.3.2-.4.399-.5.699h2.5Z" fill="url(#u)"/><path fill-rule="evenodd" clip-rule="evenodd" d="M188.181 121.615h-1.3l.6-2.801-2.4 2.801h-1.2l.9-4.601h1.3l-.5 2.701 2.3-2.701h1.1l-.8 4.601Zm.4-6.301c-.1.3-.3.701-.5.901-.3.2-.7.399-1.1.299-.3 0-.6-.099-.9-.299-.2-.2-.3-.401-.2-.701v-.2h.8v.2c0 .3.2.5.5.5.4 0 .7-.199.7-.599l.7-.101Z" fill="url(#v)"/><path d="M191.481 111.514H3.981v.7h187.5v-.7Z" fill="url(#w)"/><path fill-rule="evenodd" clip-rule="evenodd" d="M124.181 104.814h-8.9c-.8 0-1.2-.7-1.2-2v-4.3c0-1.3.4-2 1.2-2h8.9v1.6h-8.7c-.3 0-.4.2-.4.6v3.7c0 .4.1.7.4.7h8.7v1.7Zm2.5 0h-1v-8.3h1.1v6.4l8-6.4h1.1v8.3h-1.1v-6.4l-8.1 6.4Zm20.8 0h-8.9c-.8 0-1.2-.7-1.2-2v-4.3c0-1.3.4-2 1.2-2h8.9v1.6h-8.7c-.3 0-.4.2-.4.6v3.7c0 .4.1.7.4.7h8.7v1.7Zm7.9 0h-1.3v-6.7h-5.2v-1.6h11.9v1.6h-5.3l-.1 6.7Zm16.9 0h-10.2v-8.3h10.2v1.6h-9.1v1.7h9.1v1.6h-9.1v1.6h9.1v1.8Zm8.8-2.7-6.3-3.7v6.4h-1.1v-8.3h1.1l6.2 3.7 6-3.7h1.1v8.3h-1.1v-6.4l-5.9 3.7Zm18.7 2.7h-8.9c-.8 0-1.3-.7-1.3-2v-4.3c0-1.3.4-2 1.3-2h8.9v1.6h-8.7c-.3 0-.4.2-.4.6v3.7c0 .4.1.7.4.7h8.7v1.7Z" fill="url(#x)"/><defs><linearGradient id="m" x1="-2.841" y1="119.254" x2="199.233" y2="119.254" gradientUnits="userSpaceOnUse"><stop stop-color="#1C8AE2"/><stop offset=".486" stop-color="#8B00B3"/><stop offset="1" stop-color="#6900B5"/></linearGradient><linearGradient id="a" x1="-2.841" y1="79.828" x2="199.233" y2="79.828" gradientUnits="userSpaceOnUse"><stop stop-color="#1C8AE2"/><stop offset=".486" stop-color="#8B00B3"/><stop offset="1" stop-color="#6900B5"/></linearGradient><linearGradient id="c" x1="-2.842" y1="119.293" x2="199.234" y2="119.293" gradientUnits="userSpaceOnUse"><stop stop-color="#1C8AE2"/><stop offset=".486" stop-color="#8B00B3"/><stop offset="1" stop-color="#6900B5"/></linearGradient><linearGradient id="d" x1="-2.841" y1="119.253" x2="199.233" y2="119.253" gradientUnits="userSpaceOnUse"><stop stop-color="#1C8AE2"/><stop offset=".486" stop-color="#8B00B3"/><stop offset="1" stop-color="#6900B5"/></linearGradient><linearGradient id="e" x1="-2.842" y1="119.266" x2="199.233" y2="119.266" gradientUnits="userSpaceOnUse"><stop stop-color="#1C8AE2"/><stop offset=".486" stop-color="#8B00B3"/><stop offset="1" stop-color="#6900B5"/></linearGradient><linearGradient id="f" x1="-2.841" y1="119.253" x2="199.233" y2="119.253" gradientUnits="userSpaceOnUse"><stop stop-color="#1C8AE2"/><stop offset=".486" stop-color="#8B00B3"/><stop offset="1" stop-color="#6900B5"/></linearGradient><linearGradient id="g" x1="-2.841" y1="119.253" x2="199.233" y2="119.253" gradientUnits="userSpaceOnUse"><stop stop-color="#1C8AE2"/><stop offset=".486" stop-color="#8B00B3"/><stop offset="1" stop-color="#6900B5"/></linearGradient><linearGradient id="h" x1="-2.841" y1="119.286" x2="199.233" y2="119.286" gradientUnits="userSpaceOnUse"><stop stop-color="#1C8AE2"/><stop offset=".486" stop-color="#8B00B3"/><stop offset="1" stop-color="#6900B5"/></linearGradient><linearGradient id="i" x1="-2.841" y1="119.253" x2="199.233" y2="119.253" gradientUnits="userSpaceOnUse"><stop stop-color="#1C8AE2"/><stop offset=".486" stop-color="#8B00B3"/><stop offset="1" stop-color="#6900B5"/></linearGradient><linearGradient id="j" x1="-2.841" y1="119.258" x2="199.233" y2="119.258" gradientUnits="userSpaceOnUse"><stop stop-color="#1C8AE2"/><stop offset=".486" stop-color="#8B00B3"/><stop offset="1" stop-color="#6900B5"/></linearGradient><linearGradient id="k" x1="-2.84" y1="119.761" x2="199.232" y2="119.761" gradientUnits="userSpaceOnUse"><stop stop-color="#1C8AE2"/><stop offset=".486" stop-color="#8B00B3"/><stop offset="1" stop-color="#6900B5"/></linearGradient><linearGradient id="l" x1="-2.841" y1="119.253" x2="199.232" y2="119.253" gradientUnits="userSpaceOnUse"><stop stop-color="#1C8AE2"/><stop offset=".486" stop-color="#8B00B3"/><stop offset="1" stop-color="#6900B5"/></linearGradient><linearGradient id="b" x1="-2.841" y1="68.505" x2="199.233" y2="68.505" gradientUnits="userSpaceOnUse"><stop stop-color="#1C8AE2"/><stop offset=".486" stop-color="#8B00B3"/><stop offset="1" stop-color="#6900B5"/></linearGradient><linearGradient id="n" x1="-2.841" y1="119.253" x2="199.232" y2="119.253" gradientUnits="userSpaceOnUse"><stop stop-color="#1C8AE2"/><stop offset=".486" stop-color="#8B00B3"/><stop offset="1" stop-color="#6900B5"/></linearGradient><linearGradient id="o" x1="-2.841" y1="119.253" x2="199.233" y2="119.253" gradientUnits="userSpaceOnUse"><stop stop-color="#1C8AE2"/><stop offset=".486" stop-color="#8B00B3"/><stop offset="1" stop-color="#6900B5"/></linearGradient><linearGradient id="p" x1="-2.84" y1="119.254" x2="199.232" y2="119.254" gradientUnits="userSpaceOnUse"><stop stop-color="#1C8AE2"/><stop offset=".486" stop-color="#8B00B3"/><stop offset="1" stop-color="#6900B5"/></linearGradient><linearGradient id="q" x1="-2.842" y1="119.253" x2="199.233" y2="119.253" gradientUnits="userSpaceOnUse"><stop stop-color="#1C8AE2"/><stop offset=".486" stop-color="#8B00B3"/><stop offset="1" stop-color="#6900B5"/></linearGradient><linearGradient id="r" x1="-2.84" y1="119.255" x2="199.233" y2="119.255" gradientUnits="userSpaceOnUse"><stop stop-color="#1C8AE2"/><stop offset=".486" stop-color="#8B00B3"/><stop offset="1" stop-color="#6900B5"/></linearGradient><linearGradient id="s" x1="-2.843" y1="119.253" x2="199.234" y2="119.253" gradientUnits="userSpaceOnUse"><stop stop-color="#1C8AE2"/><stop offset=".486" stop-color="#8B00B3"/><stop offset="1" stop-color="#6900B5"/></linearGradient><linearGradient id="t" x1="-2.841" y1="119.253" x2="199.232" y2="119.253" gradientUnits="userSpaceOnUse"><stop stop-color="#1C8AE2"/><stop offset=".486" stop-color="#8B00B3"/><stop offset="1" stop-color="#6900B5"/></linearGradient><linearGradient id="u" x1="-2.84" y1="119.253" x2="199.233" y2="119.253" gradientUnits="userSpaceOnUse"><stop stop-color="#1C8AE2"/><stop offset=".486" stop-color="#8B00B3"/><stop offset="1" stop-color="#6900B5"/></linearGradient><linearGradient id="v" x1="-2.84" y1="118.452" x2="199.233" y2="118.452" gradientUnits="userSpaceOnUse"><stop stop-color="#1C8AE2"/><stop offset=".486" stop-color="#8B00B3"/><stop offset="1" stop-color="#6900B5"/></linearGradient><linearGradient id="w" x1="-2.841" y1="111.843" x2="199.233" y2="111.843" gradientUnits="userSpaceOnUse"><stop stop-color="#1C8AE2"/><stop offset=".486" stop-color="#8B00B3"/><stop offset="1" stop-color="#6900B5"/></linearGradient><linearGradient id="x" x1="-2.841" y1="100.652" x2="199.233" y2="100.652" gradientUnits="userSpaceOnUse"><stop stop-color="#1C8AE2"/><stop offset=".486" stop-color="#8B00B3"/><stop offset="1" stop-color="#6900B5"/></linearGradient></defs></svg>