<svg width="200" height="155" fill="none" xmlns="http://www.w3.org/2000/svg"><path d="M158 74.6v-3h-1.1V71h2.9v.6h-1.1v3h-.7Z" fill="url(#a)"/><path d="M160.3 74.6v-3.7h1.1l.7 2.5.7-2.5h1.1v3.7h-.7v-2.9l-.7 2.9h-.7l-.7-2.9v2.9h-.8Z" fill="url(#b)"/><path d="M64.4 94.6h-.5v-5.2h3v5.2h-.5v-4.9h-2v4.9Z" fill="url(#c)"/><path d="M69.6 94.7c-.4 0-.8-.2-1.1-.5-.3-.7-.5-1.4-.4-2.2-.1-.8.1-1.5.4-2.2.3-.4.7-.6 1.1-.5.6 0 1.1.3 1.3.9.2.6.3 1.2.2 1.8 0 .4 0 .9-.1 1.3 0 .4-.2.7-.4 1-.2.3-.6.5-1 .4Zm0-.4c.4 0 .8-.3.9-.7.1-.5.2-1 .2-1.6 0-.5 0-1-.2-1.6-.1-.5-.5-.8-.9-.8s-.8.3-.9.7c-.1.5-.2 1.1-.2 1.6-.1.7.1 1.3.3 1.9.2.4.5.5.8.5Z" fill="url(#d)"/><path d="M78.6 94.6h-2.4v-5.2h2.4v.4h-1.9v1.9h1.8v.3h-1.8v2.1h2v.5h-.1Z" fill="url(#e)"/><path d="M79.7 94.2c.2-.4.4-.8.5-1.2.1-.6.1-1.2.1-1.8v-1.8h2.6v4.8h.4v1.5h-.4v-1.1h-3v1.1h-.4v-1.6h.2v.1Zm.5 0h2.2v-4.4h-1.6v1.5c0 .6 0 1.1-.1 1.7-.2.4-.3.8-.5 1.2Z" fill="url(#f)"/><path d="M85.3 89.4h.5l1.4 5.2h-.5l-.4-1.6h-1.6l-.4 1.6h-.4l1.4-5.2Zm-.5 3.2h1.4l-.7-2.6-.7 2.6Z" fill="url(#g)"/><path d="M90.4 89.4H93v5.2h-.5v-4.9h-1.7v2.4c0 .6 0 1.2-.2 1.8-.1.4-.4.6-.7.6h-.4v-.4H89.8c.2 0 .3-.2.4-.5.1-.5.1-1.1.1-1.7v-2.5h.1Z" fill="url(#h)"/><path d="M94.9 91.6h.8c0-.6.1-1.1.3-1.7.2-.5.8-.8 1.3-.8.6 0 1.1.3 1.3.9.2.6.2 1.3.2 1.9 0 .4 0 .9-.1 1.3 0 .4-.2.7-.4 1-.3.3-.7.5-1 .4-.6 0-1.1-.3-1.3-.8-.2-.6-.3-1.2-.3-1.8h-.8v2.5h-.5v-5.2h.5v2.3Zm2.4 2.7c.4 0 .8-.3.9-.7.1-.5.2-1 .2-1.5s0-1-.2-1.6c-.1-.5-.5-.8-.9-.8s-.8.3-.9.7c-.1.5-.2 1.1-.2 1.6-.1.7.1 1.3.3 1.9.2.3.5.4.8.4Z" fill="url(#i)"/><path d="M106.8 89.4v5.2h-.5v-4.5l-2 4.5h-.5v-5.2h.5v4.5l2-4.5h.5Z" fill="url(#j)"/><path d="M108.9 89.8h-1.2v-.4h2.8v.4h-1.2v4.8h-.5v-4.8h.1Z" fill="url(#k)"/><path d="M113.8 94.6h-.5v-5.2h2.9v5.2h-.5v-4.9h-2v4.9h.1Z" fill="url(#l)"/><path d="M119.1 94.7c-.4 0-.8-.2-1.1-.5-.3-.7-.5-1.4-.4-2.2-.1-.8.1-1.6.4-2.3.3-.4.7-.6 1.1-.5.6 0 1.1.3 1.3.9.2.6.3 1.3.2 1.9v1.3c0 .4-.2.7-.4 1-.4.3-.7.5-1.1.4Zm0-.4c.4 0 .8-.3.9-.7.1-.5.2-1 .2-1.6 0-.5 0-1.1-.2-1.6s-.5-.8-.9-.8-.8.3-.9.7c-.2.5-.2 1.1-.2 1.6-.1.7 0 1.3.3 1.9.1.4.4.6.8.5Z" fill="url(#m)"/><path d="M121.8 94.2c.2-.4.4-.8.5-1.2.1-.6.1-1.2.1-1.8v-1.8h2.6v4.8h.4v1.5h-.4v-1.1h-3v1.1h-.4v-1.6h.2v.1Zm.5 0h2.2v-4.4h-1.6v1.5c0 .6 0 1.1-.1 1.7-.1.4-.2.8-.5 1.2Z" fill="url(#n)"/><path d="M128.9 89.8h-2v4.9h-.4v-5.2h2.4v.3Z" fill="url(#o)"/><path d="M131.4 94.7c-.4 0-.8-.2-1.1-.5-.3-.7-.5-1.4-.4-2.2-.1-.8.1-1.5.4-2.2.3-.4.7-.6 1.1-.5.6 0 1.1.3 1.3.9.2.6.3 1.2.2 1.8 0 .4 0 .9-.1 1.3 0 .4-.2.7-.4 1-.3.3-.7.5-1 .4Zm0-.4c.4 0 .8-.3.9-.7.1-.5.2-1 .2-1.6 0-.5 0-1-.2-1.6-.1-.5-.5-.8-.9-.8s-.8.3-.9.7c-.1.5-.2 1.1-.2 1.6 0 .7.1 1.3.3 1.9.2.4.5.5.8.5Z" fill="url(#p)"/><path d="M134.9 89.8h-1.2v-.4h2.8v.4h-1.2v4.8h-.5v-4.8h.1Z" fill="url(#q)"/><path d="M139 94.7c-.4 0-.8-.2-1.1-.5-.4-.7-.5-1.5-.4-2.3-.1-.8.1-1.5.4-2.2.3-.4.7-.6 1.1-.5.6 0 1.1.3 1.3.9.2.6.3 1.2.2 1.8 0 .4 0 .9-.1 1.3 0 .4-.2.7-.4 1-.2.4-.6.5-1 .5Zm0-.4c.4 0 .8-.3.9-.7.2-.5.2-1 .2-1.6 0-.5 0-1-.2-1.6-.1-.5-.5-.8-.9-.8s-.8.3-.9.7c-.1.5-.2 1.1-.2 1.6-.1.7.1 1.3.3 1.9.3.4.5.5.8.5Z" fill="url(#r)"/><path d="M142.9 94.6h-1.2v-5.2h1.2c.3 0 .7.1 1 .3.3.3.4.6.4 1 0 .3 0 .5-.2.7-.1.2-.3.4-.5.5.3.1.5.2.6.4.1.2.2.5.2.8.1.5-.1 1-.5 1.3-.3.2-.7.3-1 .2Zm-.7-4.8v1.9h.6c.3 0 .5 0 .7-.2.2-.2.4-.5.3-.8 0-.3-.1-.6-.3-.7-.2-.1-.5-.2-.7-.1h-.6v-.1Zm0 2.3v2.2h.7c.3 0 .6-.1.8-.2.3-.2.4-.6.4-.9 0-.3-.1-.7-.4-.9-.3-.1-.6-.2-.9-.2h-.6Z" fill="url(#s)"/><path d="M146 94.6h-.5v-5.2h.5V92l1.9-2.6h.5l-1.5 2.1 1.6 3.1h-.5l-1.4-2.7-.6.8v1.9Z" fill="url(#t)"/><path d="m152.4 89.4-1.6 4.6c-.1.2-.2.4-.3.5-.1.1-.3.2-.5.2h-.4v-.4h.2c.1 0 .2 0 .3-.1.1-.1.2-.2.2-.3l.1-.3-1.6-4.2h.5l1.3 3.6 1.2-3.6h.6Z" fill="url(#u)"/><path d="M3.3 76.8h2.6l-.3 1.9H3l-.9 5.5H0L2.1 71h5.5l-.3 1.9H4l-.7 3.9Z" fill="url(#v)"/><path d="M9.9 76.5h2.8l-.3 1.9H9.6L9 82.2h3.6l-.3 1.9H6.7l2.1-13.2h5.6l-.3 1.9h-3.6l-.6 3.7Z" fill="url(#w)"/><path d="M15.8 71h3.3c.8-.1 1.6.2 2.2.8.5.7.6 1.6.4 2.4l-1 6.7c-.1.9-.5 1.8-1.2 2.4-.7.6-1.6.9-2.5.8h-3.3L15.8 71Zm1.8 1.8-1.5 9.4h1.2c.3 0 .6-.1.8-.3.2-.3.4-.6.4-1l1.1-6.9c.1-.3.1-.7-.1-1-.2-.2-.5-.3-.7-.3h-1.2v.1Z" fill="url(#x)"/><path d="M24.7 76.5h2.9l-.3 1.9h-2.9l-.6 3.8h3.6l-.3 1.9h-5.7l2.1-13.2h5.6l-.3 1.9h-3.6l-.5 3.7Z" fill="url(#y)"/><path d="M32.8 84.2v-.9c0-.2 0-.4.1-.7l.3-2.1c.1-.4.1-.9-.1-1.3-.2-.3-.6-.4-1-.4h-.7l-.9 5.4h-2.1L30.5 71h3.1c.8-.1 1.6.2 2.2.8.4.7.6 1.5.4 2.3l-.2 1c-.1 1.1-.8 2.1-1.8 2.6.5.2.8.6.9 1 .1.6.1 1.2 0 1.8l-.3 2c0 .3-.1.6-.1.9 0 .2 0 .5.1.7l-2 .1Zm-.4-11.3-.6 4h.8c.3 0 .7-.1 1-.3.3-.3.5-.7.5-1.1l.2-1.3c.1-.3.1-.7-.1-1-.2-.2-.5-.4-.8-.3h-1Z" fill="url(#z)"/><path d="M43.3 84.2h-2.1v-2.4h-2.6l-.7 2.4H36L40.2 71h3.1v13.2ZM39.2 80h2v-6.7l-2 6.7Z" fill="url(#A)"/><path d="M46.6 71h2.1l-1.8 11.3h3.4l-.3 1.9h-5.5L46.6 71Z" fill="url(#B)"/><path d="M56.3 71h6.4l-.3 1.9h-2.2l-1.8 11.3h-2l1.8-11.3H56l.3-1.9Z" fill="url(#C)"/><path d="M66 84.2v-.9c0-.2 0-.4.1-.7l.3-2.1c.1-.4.1-.9-.1-1.3-.2-.3-.6-.4-1-.4h-.7l-.9 5.4h-2.1L63.7 71h3.1c.8-.1 1.6.2 2.2.8.4.7.6 1.5.4 2.3l-.1 1c-.1 1.1-.8 2.1-1.8 2.6.5.2.8.6.9 1 .1.6.1 1.2 0 1.8l-.3 2.1c0 .3-.1.6-.1.9 0 .3 0 .5.1.8H66v-.1Zm-.4-11.4-.6 4h.8c.3 0 .7-.1 1-.3.3-.3.5-.7.5-1.1l.2-1.3c.1-.3.1-.7-.1-1-.2-.2-.5-.4-.8-.3h-1Z" fill="url(#D)"/><path d="M76.5 84.2h-2.1v-2.4h-2.5l-.7 2.4h-1.9L73.5 71h3v13.2Zm-4-4.2h2l.1-6.7-2.1 6.7Z" fill="url(#E)"/><path d="m81.1 74.6-1.5 9.6h-1.9L79.8 71h2.6l.9 7.9 1.3-7.9h1.8l-2.2 13.2h-2.1l-1-9.6Z" fill="url(#F)"/><path d="M87.3 74.1c.1-.9.5-1.8 1.2-2.5.7-.6 1.5-.9 2.4-.9.8-.1 1.6.2 2.2.9.4.7.6 1.6.4 2.5l-.1.5h-2l.1-.6c.1-.3.1-.7-.1-1-.2-.2-.4-.3-.7-.3-.3 0-.6.1-.8.3-.2.3-.4.6-.4 1-.1.4 0 .8.1 1.2.1.4.3.7.6 1 .3.3.5.6.8.9.3.3.6.6.8 1 .3.4.4.8.6 1.2.1.5.1 1.1 0 1.6-.1.9-.5 1.8-1.2 2.4-.7.6-1.5.9-2.4.9-.8.1-1.6-.2-2.2-.9-.5-.7-.6-1.6-.4-2.4l.1-.9h2l-.2 1c-.1.3-.1.7.1 1 .2.2.5.3.7.3.3 0 .6-.1.8-.3.3-.3.4-.6.5-1 .1-.4 0-.8-.1-1.2-.1-.3-.3-.7-.6-1-.3-.3-.5-.6-.8-.9-.3-.3-.6-.6-.8-1-.6-.7-.8-1.8-.6-2.8Z" fill="url(#G)"/><path d="M98.6 71h2.1l-1.8 11.3h3.4l-.3 1.9h-5.5L98.6 71Z" fill="url(#H)"/><path d="M104.6 74.1c.1-.9.501-1.8 1.201-2.5.7-.6 1.6-.9 2.5-.9.8-.1 1.599.2 2.199.9.5.7.601 1.6.401 2.5l-1.1 6.9c-.1.9-.501 1.8-1.201 2.4-.7.6-1.6.9-2.4.9-.8.1-1.6-.2-2.2-.9-.5-.7-.6-1.6-.4-2.4l1-6.9Zm1 7c-.1.3 0 .7.1 1 .2.2.501.3.701.3.3 0 .599-.1.799-.3.3-.3.4-.6.5-1l1.101-7.1c.1-.3-.001-.7-.101-1-.2-.2-.5-.3-.7-.3-.3 0-.6.1-.8.3-.3.3-.399.6-.399 1l-1.201 7.1Z" fill="url(#I)"/><path d="M115.1 76.8h2.9l-.699 4.2c-.1.9-.501 1.8-1.201 2.4-.7.6-1.5.9-2.4.9-.8.1-1.6-.2-2.2-.9-.5-.7-.6-1.6-.4-2.4l1.1-6.9c.1-.9.501-1.8 1.201-2.5.7-.6 1.6-.9 2.4-.9.8-.1 1.599.2 2.199.9.5.7.601 1.6.401 2.5l-.201 1.3h-1.899l.199-1.4c.1-.3.001-.7-.099-1-.2-.2-.501-.3-.701-.3-.3 0-.599.1-.799.3-.3.3-.401.6-.401 1l-1.099 7.1c-.1.3-.001.7.099 1 .2.2.5.3.7.3.3 0 .6-.1.8-.3.3-.3.401-.6.401-1l.4-2.4h-.9l.199-1.9Z" fill="url(#J)"/><path d="M120.3 71h2.1l-2.1 13.2h-2.1l2.1-13.2Z" fill="url(#K)"/><path d="M123.3 74.1c.1-.9.5-1.8 1.2-2.5.7-.6 1.5-.9 2.4-.9.8-.1 1.6.2 2.2.9.4.7.6 1.6.4 2.5l-.1.5h-2l.1-.6c.1-.3.1-.7-.1-1-.2-.2-.4-.3-.7-.3-.3 0-.6.1-.8.3-.2.3-.4.6-.4 1-.1.4 0 .8.1 1.2.1.4.3.7.6 1 .3.3.5.6.8.9.3.3.6.6.8 1 .3.4.4.8.6 1.2.1.5.1 1.1 0 1.6-.1.9-.5 1.8-1.2 2.4-.7.6-1.5.9-2.4.9-.8.1-1.6-.2-2.2-.9-.5-.7-.6-1.6-.4-2.4l.1-.9h2l-.2 1c-.1.3-.1.7.1 1 .2.2.5.3.7.3.3 0 .6-.1.8-.3.3-.3.4-.6.5-1 .1-.4 0-.8-.1-1.2-.1-.3-.3-.7-.6-1-.3-.3-.5-.6-.8-.9-.3-.3-.6-.6-.8-1-.7-.7-.9-1.8-.6-2.8Z" fill="url(#L)"/><path d="M130.7 71h6.4l-.3 1.9h-2.2l-1.8 11.3h-2.1l1.8-11.3h-2.2l.4-1.9Z" fill="url(#M)"/><path d="M138.3 71h2.1l-2.1 13.2h-2l2-13.2Z" fill="url(#N)"/><path d="m146.7 79.2-.3 1.8c-.1.9-.5 1.8-1.2 2.4-.7.6-1.6.9-2.4.9-.8.1-1.6-.2-2.2-.9-.5-.7-.6-1.6-.4-2.4l1.1-6.9c.1-.9.5-1.8 1.2-2.5.7-.6 1.6-.9 2.4-.9.8-.1 1.6.2 2.2.9.5.7.6 1.6.4 2.5l-.2 1.3h-2l.2-1.4c.1-.3.1-.7-.1-1-.2-.2-.5-.3-.7-.3-.3 0-.6.1-.8.3-.3.3-.4.6-.5 1l-1.1 7.1c-.1.3 0 .7.1 1 .2.2.5.3.7.3.3 0 .6-.1.8-.3.3-.3.4-.6.4-1l.3-1.9h2.1Z" fill="url(#O)"/><path d="M148.8 74.1c.1-.9.5-1.8 1.2-2.5.7-.6 1.5-.9 2.4-.9.8-.1 1.6.2 2.2.9.4.7.6 1.6.4 2.5l-.1.5h-2l.1-.6c.1-.3.1-.7-.1-1-.2-.2-.4-.3-.7-.3-.3 0-.6.1-.8.3-.2.3-.4.6-.4 1-.1.4 0 .8.1 1.2.1.4.3.7.6 1 .3.3.5.6.8.9.3.3.6.6.8 1 .3.4.4.8.6 1.2.1.5.1 1.1 0 1.6-.1.9-.5 1.8-1.2 2.4-.7.6-1.6.9-2.4.9-.8.1-1.6-.2-2.2-.9-.5-.7-.6-1.6-.4-2.4l.1-.9h2l-.2 1c-.1.3-.1.7.1 1 .2.2.5.3.7.3.3 0 .6-.1.8-.3.3-.3.4-.6.5-1 .1-.4 0-.8-.1-1.2-.1-.3-.3-.7-.6-1-.3-.3-.5-.6-.8-.9-.3-.3-.6-.6-.8-1-.7-.7-.9-1.8-.6-2.8Z" fill="url(#P)"/><path d="M179.4 74.2c.3-.3.3-.8 0-1.1-.1-.1-.3-.2-.4-.2-.8-.1-1.5-.6-2-1.3-.9-1.4-.6-3.3.8-4.2 1.2-.8 2.8-.6 3.9.4.4.4.7 1 .8 1.6 0 .2.1.3.2.5.3.3.8.3 1.1 0l2.9-2.9c.3-.3.3-.9 0-1.2l-10.2-10.3c-.3-.3-.9-.3-1.2 0l-10.2 10.2c-.3.3-.3.9 0 1.2l10.2 10.2c.3.3.9.3 1.2 0l2.9-2.9Z" fill="url(#Q)"/><path d="m198.3 77.1-10.2-10.2c-.3-.3-.9-.3-1.2 0l-2.9 2.9c-.3.3-.8.3-1.2 0-.1-.1-.2-.3-.2-.5-.1-.6-.4-1.2-.8-1.6-1.2-1.2-3.1-1.2-4.3 0-1.2 1.2-1.2 3.1 0 4.3.4.4 1 .7 1.6.8.2 0 .3.1.4.2.3.3.3.8 0 1.1l-2.9 2.9c-.3.3-.3.9 0 1.2l2.9 2.9c.3.3.8.3 1.1 0 .1-.1.2-.3.2-.4.3-1.6 1.9-2.7 3.6-2.4 1.6.3 2.7 1.9 2.4 3.6-.1.6-.4 1.1-.8 1.5-.4.4-1 .7-1.6.8-.2 0-.3.1-.5.2-.3.3-.3.8 0 1.2l2.9 2.9c.3.3.9.3 1.2 0l10.2-10.2c.4-.3.4-.9.1-1.2Z" fill="url(#R)"/><path d="M182.2 78.7c-.7.5-1.2 1.2-1.3 2 0 .2-.1.3-.2.4-.3.3-.8.3-1.1 0l-2.9-2.9c-.3-.3-.9-.3-1.2 0l-10.2 10.2c-.3.3-.3.9 0 1.2l10.2 10.2c.3.3.9.3 1.2 0l10.2-10.2c.3-.3.3-.9 0-1.2l-2.9-2.9c-.3-.3-.3-.8 0-1.2.1-.1.3-.2.5-.2.6-.1 1.2-.4 1.6-.8 1.2-1.2 1.2-3.1 0-4.3-1.1-.9-2.7-1-3.9-.3Z" fill="url(#S)"/><path d="m199.1 76.3-21.7-21.7c-.4-.4-.9-.6-1.4-.6-.5 0-1 .2-1.4.6l-10.2 10.2c-.8.8-.8 2 0 2.8l9.8 9.8c.2.2.2.4 0 .6l-9.8 9.8c-.8.8-.8 2 0 2.8l10.2 10.2c.8.8 2 .8 2.8 0l21.7-21.7c.8-.7.8-2 0-2.8Zm-23.4 23.4-10.2-10.2c-.2-.2-.2-.4 0-.6l10.2-10.2c.2-.2.4-.2.6 0l2.9 2.9c.5.5 1.3.5 1.8 0 .2-.2.3-.4.3-.7.1-.7.5-1.3 1.1-1.7.9-.6 2-.6 2.8 0 .7.4 1.1 1.1 1.2 1.9.1.8-.2 1.5-.7 2.1-.4.4-.8.6-1.3.7-.3.1-.5.2-.7.4-.5.5-.5 1.3 0 1.8l2.9 2.9c.2.2.2.4 0 .6l-10.2 10.2c-.3.1-.6.1-.7-.1Zm10.8-33.1-2.9 2.9c-.2.1-.4.1-.5-.1 0-.1-.1-.1-.1-.2-.3-1.6-1.7-2.8-3.4-2.8-1.2 0-2.3.6-2.9 1.6-.8 1.2-.8 2.7 0 3.8.5.8 1.3 1.4 2.3 1.5.1 0 .2 0 .2.1.1.1.1.2.1.2 0 .1 0 .2-.1.2l-2.9 2.9c-.2.2-.4.2-.6 0l-10.2-10.2c-.1-.1-.1-.2-.1-.3 0-.1 0-.2.1-.3l10.2-10.2c.2-.2.4-.2.6 0l10.2 10.2c.1.1.2.4 0 .7 0-.1 0-.1 0 0Zm.6 21.6-2.9-2.9c-.2-.1-.2-.4 0-.5.1-.1.1-.1.2-.1.7-.1 1.3-.5 1.8-1 1.4-1.4 1.4-3.6 0-4.9-1.2-1.2-3-1.3-4.3-.5-.8.5-1.4 1.3-1.5 2.3 0 .1 0 .2-.1.2-.1.1-.4.1-.5 0l-2.9-2.9c-.2-.2-.2-.4 0-.6l2.9-2.9c.5-.5.5-1.3 0-1.8-.2-.2-.4-.3-.7-.3-.7-.1-1.3-.5-1.7-1.1-.7-1.3-.3-2.9.9-3.6 1-.6 2.2-.4 3.1.3.4.4.6.8.7 1.3 0 .3.2.5.4.7.5.5 1.3.5 1.8 0l2.9-2.9c.2-.2.4-.2.6 0L198 77.2c.2.2.2.4 0 .6L187.8 88c-.2.4-.5.4-.7.2 0 0 0 .1 0 0Z" fill="url(#T)"/><path d="M73.6 91.7h-.8v-1.9h2v-.4h-2.4v5.2h1.3c.4 0 .7-.1 1-.3.3-.3.4-.7.4-1.1v-.3c-.1-.8-.8-1.3-1.5-1.2Zm.4 2.7h-1.1v-2.5c1.5 0 2 .1 2 1.3 0 1.1-.9 1.2-.9 1.2Z" fill="url(#U)"/><path d="M101.3 91.7h-.8v-1.9h2v-.4h-2.4v5.2h1.3c.4 0 .7-.1 1-.3.3-.3.4-.7.4-1.1v-.3c-.1-.8-.8-1.3-1.5-1.2Zm.3 2.7h-1.1v-2.5c1.5 0 2 .1 2 1.3.1 1.1-.9 1.2-.9 1.2Z" fill="url(#V)"/><defs><linearGradient id="y" x1="-1.37" y1="77.578" x2="195.764" y2="77.578" gradientUnits="userSpaceOnUse"><stop stop-color="#1C8AE2"/><stop offset=".486" stop-color="#8B00B3"/><stop offset="1" stop-color="#6900B5"/></linearGradient><linearGradient id="a" x1="-1.371" y1="72.8" x2="195.766" y2="72.8" gradientUnits="userSpaceOnUse"><stop stop-color="#1C8AE2"/><stop offset=".486" stop-color="#8B00B3"/><stop offset="1" stop-color="#6900B5"/></linearGradient><linearGradient id="c" x1="-1.37" y1="92.023" x2="195.765" y2="92.023" gradientUnits="userSpaceOnUse"><stop stop-color="#1C8AE2"/><stop offset=".486" stop-color="#8B00B3"/><stop offset="1" stop-color="#6900B5"/></linearGradient><linearGradient id="d" x1="-1.37" y1="92" x2="195.765" y2="92" gradientUnits="userSpaceOnUse"><stop stop-color="#1C8AE2"/><stop offset=".486" stop-color="#8B00B3"/><stop offset="1" stop-color="#6900B5"/></linearGradient><linearGradient id="e" x1="-1.37" y1="92.023" x2="195.765" y2="92.023" gradientUnits="userSpaceOnUse"><stop stop-color="#1C8AE2"/><stop offset=".486" stop-color="#8B00B3"/><stop offset="1" stop-color="#6900B5"/></linearGradient><linearGradient id="f" x1="-1.371" y1="92.579" x2="195.766" y2="92.579" gradientUnits="userSpaceOnUse"><stop stop-color="#1C8AE2"/><stop offset=".486" stop-color="#8B00B3"/><stop offset="1" stop-color="#6900B5"/></linearGradient><linearGradient id="g" x1="-1.368" y1="92.023" x2="195.763" y2="92.023" gradientUnits="userSpaceOnUse"><stop stop-color="#1C8AE2"/><stop offset=".486" stop-color="#8B00B3"/><stop offset="1" stop-color="#6900B5"/></linearGradient><linearGradient id="h" x1="-1.37" y1="92.023" x2="195.765" y2="92.023" gradientUnits="userSpaceOnUse"><stop stop-color="#1C8AE2"/><stop offset=".486" stop-color="#8B00B3"/><stop offset="1" stop-color="#6900B5"/></linearGradient><linearGradient id="i" x1="-1.371" y1="91.995" x2="195.766" y2="91.995" gradientUnits="userSpaceOnUse"><stop stop-color="#1C8AE2"/><stop offset=".486" stop-color="#8B00B3"/><stop offset="1" stop-color="#6900B5"/></linearGradient><linearGradient id="j" x1="-1.371" y1="92.023" x2="195.765" y2="92.023" gradientUnits="userSpaceOnUse"><stop stop-color="#1C8AE2"/><stop offset=".486" stop-color="#8B00B3"/><stop offset="1" stop-color="#6900B5"/></linearGradient><linearGradient id="k" x1="-1.372" y1="92.023" x2="195.767" y2="92.023" gradientUnits="userSpaceOnUse"><stop stop-color="#1C8AE2"/><stop offset=".486" stop-color="#8B00B3"/><stop offset="1" stop-color="#6900B5"/></linearGradient><linearGradient id="l" x1="-1.367" y1="92.023" x2="195.762" y2="92.023" gradientUnits="userSpaceOnUse"><stop stop-color="#1C8AE2"/><stop offset=".486" stop-color="#8B00B3"/><stop offset="1" stop-color="#6900B5"/></linearGradient><linearGradient id="m" x1="-1.37" y1="91.966" x2="195.765" y2="91.966" gradientUnits="userSpaceOnUse"><stop stop-color="#1C8AE2"/><stop offset=".486" stop-color="#8B00B3"/><stop offset="1" stop-color="#6900B5"/></linearGradient><linearGradient id="n" x1="-1.372" y1="92.579" x2="195.765" y2="92.579" gradientUnits="userSpaceOnUse"><stop stop-color="#1C8AE2"/><stop offset=".486" stop-color="#8B00B3"/><stop offset="1" stop-color="#6900B5"/></linearGradient><linearGradient id="o" x1="-1.372" y1="92.022" x2="195.766" y2="92.022" gradientUnits="userSpaceOnUse"><stop stop-color="#1C8AE2"/><stop offset=".486" stop-color="#8B00B3"/><stop offset="1" stop-color="#6900B5"/></linearGradient><linearGradient id="p" x1="-1.37" y1="91.999" x2="195.765" y2="91.999" gradientUnits="userSpaceOnUse"><stop stop-color="#1C8AE2"/><stop offset=".486" stop-color="#8B00B3"/><stop offset="1" stop-color="#6900B5"/></linearGradient><linearGradient id="q" x1="-1.373" y1="92.023" x2="195.766" y2="92.023" gradientUnits="userSpaceOnUse"><stop stop-color="#1C8AE2"/><stop offset=".486" stop-color="#8B00B3"/><stop offset="1" stop-color="#6900B5"/></linearGradient><linearGradient id="r" x1="-1.371" y1="91.963" x2="195.765" y2="91.963" gradientUnits="userSpaceOnUse"><stop stop-color="#1C8AE2"/><stop offset=".486" stop-color="#8B00B3"/><stop offset="1" stop-color="#6900B5"/></linearGradient><linearGradient id="s" x1="-1.374" y1="92.027" x2="195.767" y2="92.027" gradientUnits="userSpaceOnUse"><stop stop-color="#1C8AE2"/><stop offset=".486" stop-color="#8B00B3"/><stop offset="1" stop-color="#6900B5"/></linearGradient><linearGradient id="t" x1="-1.37" y1="92.023" x2="195.765" y2="92.023" gradientUnits="userSpaceOnUse"><stop stop-color="#1C8AE2"/><stop offset=".486" stop-color="#8B00B3"/><stop offset="1" stop-color="#6900B5"/></linearGradient><linearGradient id="u" x1="-1.37" y1="92.062" x2="195.764" y2="92.062" gradientUnits="userSpaceOnUse"><stop stop-color="#1C8AE2"/><stop offset=".486" stop-color="#8B00B3"/><stop offset="1" stop-color="#6900B5"/></linearGradient><linearGradient id="v" x1="-1.37" y1="77.564" x2="195.764" y2="77.564" gradientUnits="userSpaceOnUse"><stop stop-color="#1C8AE2"/><stop offset=".486" stop-color="#8B00B3"/><stop offset="1" stop-color="#6900B5"/></linearGradient><linearGradient id="w" x1="-1.37" y1="77.578" x2="195.767" y2="77.578" gradientUnits="userSpaceOnUse"><stop stop-color="#1C8AE2"/><stop offset=".486" stop-color="#8B00B3"/><stop offset="1" stop-color="#6900B5"/></linearGradient><linearGradient id="x" x1="-1.37" y1="77.547" x2="195.766" y2="77.547" gradientUnits="userSpaceOnUse"><stop stop-color="#1C8AE2"/><stop offset=".486" stop-color="#8B00B3"/><stop offset="1" stop-color="#6900B5"/></linearGradient><linearGradient id="b" x1="-1.369" y1="72.8" x2="195.764" y2="72.8" gradientUnits="userSpaceOnUse"><stop stop-color="#1C8AE2"/><stop offset=".486" stop-color="#8B00B3"/><stop offset="1" stop-color="#6900B5"/></linearGradient><linearGradient id="z" x1="-1.37" y1="77.567" x2="195.764" y2="77.567" gradientUnits="userSpaceOnUse"><stop stop-color="#1C8AE2"/><stop offset=".486" stop-color="#8B00B3"/><stop offset="1" stop-color="#6900B5"/></linearGradient><linearGradient id="A" x1="-1.371" y1="77.578" x2="195.766" y2="77.578" gradientUnits="userSpaceOnUse"><stop stop-color="#1C8AE2"/><stop offset=".486" stop-color="#8B00B3"/><stop offset="1" stop-color="#6900B5"/></linearGradient><linearGradient id="B" x1="-1.371" y1="77.564" x2="195.766" y2="77.564" gradientUnits="userSpaceOnUse"><stop stop-color="#1C8AE2"/><stop offset=".486" stop-color="#8B00B3"/><stop offset="1" stop-color="#6900B5"/></linearGradient><linearGradient id="C" x1="-1.37" y1="77.564" x2="195.764" y2="77.564" gradientUnits="userSpaceOnUse"><stop stop-color="#1C8AE2"/><stop offset=".486" stop-color="#8B00B3"/><stop offset="1" stop-color="#6900B5"/></linearGradient><linearGradient id="D" x1="-1.371" y1="77.565" x2="195.765" y2="77.565" gradientUnits="userSpaceOnUse"><stop stop-color="#1C8AE2"/><stop offset=".486" stop-color="#8B00B3"/><stop offset="1" stop-color="#6900B5"/></linearGradient><linearGradient id="E" x1="-1.37" y1="77.578" x2="195.764" y2="77.578" gradientUnits="userSpaceOnUse"><stop stop-color="#1C8AE2"/><stop offset=".486" stop-color="#8B00B3"/><stop offset="1" stop-color="#6900B5"/></linearGradient><linearGradient id="F" x1="-1.371" y1="77.578" x2="195.766" y2="77.578" gradientUnits="userSpaceOnUse"><stop stop-color="#1C8AE2"/><stop offset=".486" stop-color="#8B00B3"/><stop offset="1" stop-color="#6900B5"/></linearGradient><linearGradient id="G" x1="-1.371" y1="77.558" x2="195.766" y2="77.558" gradientUnits="userSpaceOnUse"><stop stop-color="#1C8AE2"/><stop offset=".486" stop-color="#8B00B3"/><stop offset="1" stop-color="#6900B5"/></linearGradient><linearGradient id="H" x1="-1.371" y1="77.564" x2="195.766" y2="77.564" gradientUnits="userSpaceOnUse"><stop stop-color="#1C8AE2"/><stop offset=".486" stop-color="#8B00B3"/><stop offset="1" stop-color="#6900B5"/></linearGradient><linearGradient id="I" x1="-1.37" y1="77.558" x2="195.766" y2="77.558" gradientUnits="userSpaceOnUse"><stop stop-color="#1C8AE2"/><stop offset=".486" stop-color="#8B00B3"/><stop offset="1" stop-color="#6900B5"/></linearGradient><linearGradient id="J" x1="-1.37" y1="77.559" x2="195.766" y2="77.559" gradientUnits="userSpaceOnUse"><stop stop-color="#1C8AE2"/><stop offset=".486" stop-color="#8B00B3"/><stop offset="1" stop-color="#6900B5"/></linearGradient><linearGradient id="K" x1="-1.372" y1="77.564" x2="195.766" y2="77.564" gradientUnits="userSpaceOnUse"><stop stop-color="#1C8AE2"/><stop offset=".486" stop-color="#8B00B3"/><stop offset="1" stop-color="#6900B5"/></linearGradient><linearGradient id="L" x1="-1.371" y1="77.558" x2="195.765" y2="77.558" gradientUnits="userSpaceOnUse"><stop stop-color="#1C8AE2"/><stop offset=".486" stop-color="#8B00B3"/><stop offset="1" stop-color="#6900B5"/></linearGradient><linearGradient id="M" x1="-1.369" y1="77.564" x2="195.764" y2="77.564" gradientUnits="userSpaceOnUse"><stop stop-color="#1C8AE2"/><stop offset=".486" stop-color="#8B00B3"/><stop offset="1" stop-color="#6900B5"/></linearGradient><linearGradient id="N" x1="-1.37" y1="77.564" x2="195.764" y2="77.564" gradientUnits="userSpaceOnUse"><stop stop-color="#1C8AE2"/><stop offset=".486" stop-color="#8B00B3"/><stop offset="1" stop-color="#6900B5"/></linearGradient><linearGradient id="O" x1="-1.371" y1="77.559" x2="195.765" y2="77.559" gradientUnits="userSpaceOnUse"><stop stop-color="#1C8AE2"/><stop offset=".486" stop-color="#8B00B3"/><stop offset="1" stop-color="#6900B5"/></linearGradient><linearGradient id="P" x1="-1.371" y1="77.558" x2="195.765" y2="77.558" gradientUnits="userSpaceOnUse"><stop stop-color="#1C8AE2"/><stop offset=".486" stop-color="#8B00B3"/><stop offset="1" stop-color="#6900B5"/></linearGradient><linearGradient id="Q" x1="-1.37" y1="66.203" x2="195.765" y2="66.203" gradientUnits="userSpaceOnUse"><stop stop-color="#1C8AE2"/><stop offset=".486" stop-color="#8B00B3"/><stop offset="1" stop-color="#6900B5"/></linearGradient><linearGradient id="R" x1="-1.371" y1="77.703" x2="195.765" y2="77.703" gradientUnits="userSpaceOnUse"><stop stop-color="#1C8AE2"/><stop offset=".486" stop-color="#8B00B3"/><stop offset="1" stop-color="#6900B5"/></linearGradient><linearGradient id="S" x1="-1.37" y1="89.129" x2="195.765" y2="89.129" gradientUnits="userSpaceOnUse"><stop stop-color="#1C8AE2"/><stop offset=".486" stop-color="#8B00B3"/><stop offset="1" stop-color="#6900B5"/></linearGradient><linearGradient id="T" x1="163.518" y1="77.709" x2="347.42" y2="77.709" gradientUnits="userSpaceOnUse"><stop stop-color="#1C8AE2"/><stop offset=".486" stop-color="#8B00B3"/><stop offset="1" stop-color="#6900B5"/></linearGradient><linearGradient id="U" x1="-1.369" y1="92.024" x2="195.763" y2="92.024" gradientUnits="userSpaceOnUse"><stop stop-color="#1C8AE2"/><stop offset=".486" stop-color="#8B00B3"/><stop offset="1" stop-color="#6900B5"/></linearGradient><linearGradient id="V" x1="-1.374" y1="92.024" x2="195.767" y2="92.024" gradientUnits="userSpaceOnUse"><stop stop-color="#1C8AE2"/><stop offset=".486" stop-color="#8B00B3"/><stop offset="1" stop-color="#6900B5"/></linearGradient></defs></svg>