<svg width="200" height="155" fill="none" xmlns="http://www.w3.org/2000/svg"><path fill-rule="evenodd" clip-rule="evenodd" d="m177.9 106.799-7-7.1-7.1 7.1 7.1 14.7 7-14.7Z" fill="url(#a)"/><path fill-rule="evenodd" clip-rule="evenodd" d="M170.9 59.2c-2.7 0-4.9 2.2-4.9 4.9s2.2 4.9 4.9 4.9 4.9-2.2 4.9-4.9-2.2-4.9-4.9-4.9Z" fill="url(#b)"/><path fill-rule="evenodd" clip-rule="evenodd" d="M170.9 37.3c-1.4.8-21 11.1-21 27.5 0 14.1 11.5 35.501 11.5 35.501l9.5-9.5 9.5 9.5s11.5-21.4 11.5-35.5c0-16.5-19.5-26.8-21-27.5Zm6.3 47-6.3-6.3-6.3 6.3c-.3-.9-4.5-12.3-4.5-19.7 0-10 10.1-15.7 10.8-16.1.8.4 10.8 6 10.8 16.1 0 7.4-4.2 18.8-4.5 19.7Z" fill="url(#c)"/><path d="m184.7 37.2 7.2-7.2 7.2 7.2-7.2 7.2-7.2-7.2Z" fill="url(#d)"/><path fill-rule="evenodd" clip-rule="evenodd" d="M124.4 44.4c0 1.4-.7 2.4-1.9 2.4s-1.9-.9-1.9-2.4h-6.1c.2 4.5 2.8 7.5 8.1 7.5 4 .3 7.5-2.7 7.8-6.7v-.7h-6v-.1Z" fill="url(#e)"/><path fill-rule="evenodd" clip-rule="evenodd" d="M111.4 74.5v-21h7.1v9.8c0 .5 0 1-.1 1.4h.3l7.7-11.3h6.8v21.1h-7.1v-9.9c0-.5.1-1 .2-1.4h-.3l-7.7 11.3h-6.9Z" fill="url(#f)"/><path fill-rule="evenodd" clip-rule="evenodd" d="M96.9 53c6.7 0 11.7 4.7 11.7 11.1 0 6.4-5 11-11.7 11-6.6 0-11.6-4.7-11.6-11S90.3 53 96.9 53Zm0 15.5c2.3 0 4.3-1.9 4.3-4.2V64c.2-2.4-1.6-4.4-3.9-4.6-2.4-.2-4.4 1.6-4.6 3.9v.7c-.1 2.5 1.8 4.5 4.2 4.5Z" fill="url(#g)"/><path fill-rule="evenodd" clip-rule="evenodd" d="M76.8 53.5s-5.9 7.7-6.1 7.9c-.2.2-.3.3-.3.6h-.3l-.3-.6c-.4-.5-6.5-7.9-6.5-7.9h-5.6v21h6.8v-8.8c0-.5 0-1-.2-1.5h.3l5.5 6.3h.3l5.1-6.3h.3c-.1.5-.2 1-.2 1.5v8.8h6.9v-21h-5.7Z" fill="url(#h)"/><path fill-rule="evenodd" clip-rule="evenodd" d="M12.6 79c-3.6-.1-6.9 1.8-8.7 4.9h-.1c.1-.3.2-.6.2-.9.3-4.5 2.1-8.1 5.6-9.4 2-.6 4-1.1 6.1-1.4 1.8-.4 3.6-.8 4.7-1.1l-1.2-3.6c-2 .5-3.8.9-6.8 1.5-1.5.2-2.9.6-4.3 1.2-5.6 2.4-8.1 7.1-8.1 16 0 8 4 14.3 11.6 14.3 6.1.2 11.1-4.6 11.3-10.7v-.3C22.8 83.1 18.7 79 12.6 79Zm-1.1 17.9c-4.7 0-7.4-4.3-7.4-9.3 1.4-3 4.3-5 7.5-5.2 4.3 0 7 2.6 7 7.2.1 3.9-2.9 7.1-6.8 7.2 0 .1-.2.1-.3.1Z" fill="url(#i)"/><path fill-rule="evenodd" clip-rule="evenodd" d="M30 93.7h-.2c.1-.4.2-.9.2-1.3V78.7h-4.2v21h3.8l12-15.1h.2c-.1.4-.2.9-.2 1.4v13.7h4.2v-21H42l-12 15Z" fill="url(#j)"/><path fill-rule="evenodd" clip-rule="evenodd" d="M61.7 89c2.2-.7 3.8-2.7 3.7-5.1 0-3.5-2.9-5.8-7.9-5.8-3 0-6 .9-8.5 2.7l1.6 3c1.8-1.4 4-2.2 6.3-2.2 2.8 0 4.2 1.1 4.2 3s-1.3 2.9-3.4 2.9h-3.3v3.3H58c2.6 0 3.9.9 3.9 2.6 0 2.1-2.1 3.5-5.2 3.5-2.4-.1-4.6-.9-6.5-2.3l-1.7 3c2.5 2 5.5 3 8.7 2.9 5 0 8.9-2.6 8.9-6.5.2-2.6-1.8-4.8-4.4-5Z" fill="url(#k)"/><path fill-rule="evenodd" clip-rule="evenodd" d="M84.5 87.4H73.2v-8.7H69v21h4.2v-9.1h11.3v9.1h4.2v-21h-4.2v8.7Z" fill="url(#l)"/><path fill-rule="evenodd" clip-rule="evenodd" d="M101.8 78.2c-6.2 0-10.2 4.9-10.2 11.3s4.1 11 11.4 11c3.1.1 6.2-1 8.7-2.9l-1.7-3c-2 1.5-4.5 2.3-7 2.3-4.6 0-6.8-2.5-7.2-6.2h16.1v-1.3c0-6.4-3.1-11.3-10.2-11.3l.1.1ZM96 87.5c.3-3.2 2.9-5.6 6-5.8 3.8 0 5.6 2.5 6 5.8H96Z" fill="url(#m)"/><path fill-rule="evenodd" clip-rule="evenodd" d="M126.5 96.8c-4.1.1-7.4-3.2-7.4-7.2v-.5c-.2-3.8 2.7-7.1 6.6-7.2h.7c2.4 0 4.8.8 6.7 2.1 0 0 1.1-1.9 1.7-3.1-2.5-1.8-5.5-2.7-8.5-2.7-5.9-.3-11 4.3-11.3 10.2v.9c-.2 6 4.6 10.999 10.6 11.199h.8c3 .1 6-.9 8.4-2.8l-1.7-3c-2 1.4-4.3 2.1-6.6 2.1Z" fill="url(#n)"/><defs><linearGradient id="h" x1="-.733" y1="64.02" x2="197.06" y2="64.02" gradientUnits="userSpaceOnUse"><stop stop-color="#1C8AE2"/><stop offset=".486" stop-color="#8B00B3"/><stop offset="1" stop-color="#6900B5"/></linearGradient><linearGradient id="a" x1="-.735" y1="110.637" x2="197.06" y2="110.637" gradientUnits="userSpaceOnUse"><stop stop-color="#1C8AE2"/><stop offset=".486" stop-color="#8B00B3"/><stop offset="1" stop-color="#6900B5"/></linearGradient><linearGradient id="c" x1="-.733" y1="68.763" x2="197.06" y2="68.763" gradientUnits="userSpaceOnUse"><stop stop-color="#1C8AE2"/><stop offset=".486" stop-color="#8B00B3"/><stop offset="1" stop-color="#6900B5"/></linearGradient><linearGradient id="d" x1="-.734" y1="37.209" x2="197.06" y2="37.209" gradientUnits="userSpaceOnUse"><stop stop-color="#1C8AE2"/><stop offset=".486" stop-color="#8B00B3"/><stop offset="1" stop-color="#6900B5"/></linearGradient><linearGradient id="e" x1="-.734" y1="48.147" x2="197.06" y2="48.147" gradientUnits="userSpaceOnUse"><stop stop-color="#1C8AE2"/><stop offset=".486" stop-color="#8B00B3"/><stop offset="1" stop-color="#6900B5"/></linearGradient><linearGradient id="f" x1="-.733" y1="63.999" x2="197.06" y2="63.999" gradientUnits="userSpaceOnUse"><stop stop-color="#1C8AE2"/><stop offset=".486" stop-color="#8B00B3"/><stop offset="1" stop-color="#6900B5"/></linearGradient><linearGradient id="g" x1="-.734" y1="64.027" x2="197.06" y2="64.027" gradientUnits="userSpaceOnUse"><stop stop-color="#1C8AE2"/><stop offset=".486" stop-color="#8B00B3"/><stop offset="1" stop-color="#6900B5"/></linearGradient><linearGradient id="b" x1="-.732" y1="64.128" x2="197.059" y2="64.128" gradientUnits="userSpaceOnUse"><stop stop-color="#1C8AE2"/><stop offset=".486" stop-color="#8B00B3"/><stop offset="1" stop-color="#6900B5"/></linearGradient><linearGradient id="i" x1="-.733" y1="83.961" x2="197.06" y2="83.961" gradientUnits="userSpaceOnUse"><stop stop-color="#1C8AE2"/><stop offset=".486" stop-color="#8B00B3"/><stop offset="1" stop-color="#6900B5"/></linearGradient><linearGradient id="j" x1="-.734" y1="89.243" x2="197.059" y2="89.243" gradientUnits="userSpaceOnUse"><stop stop-color="#1C8AE2"/><stop offset=".486" stop-color="#8B00B3"/><stop offset="1" stop-color="#6900B5"/></linearGradient><linearGradient id="k" x1="-.733" y1="89.333" x2="197.059" y2="89.333" gradientUnits="userSpaceOnUse"><stop stop-color="#1C8AE2"/><stop offset=".486" stop-color="#8B00B3"/><stop offset="1" stop-color="#6900B5"/></linearGradient><linearGradient id="l" x1="-.733" y1="89.243" x2="197.059" y2="89.243" gradientUnits="userSpaceOnUse"><stop stop-color="#1C8AE2"/><stop offset=".486" stop-color="#8B00B3"/><stop offset="1" stop-color="#6900B5"/></linearGradient><linearGradient id="m" x1="-.734" y1="89.288" x2="197.059" y2="89.288" gradientUnits="userSpaceOnUse"><stop stop-color="#1C8AE2"/><stop offset=".486" stop-color="#8B00B3"/><stop offset="1" stop-color="#6900B5"/></linearGradient><linearGradient id="n" x1="-.733" y1="89.358" x2="197.059" y2="89.358" gradientUnits="userSpaceOnUse"><stop stop-color="#1C8AE2"/><stop offset=".486" stop-color="#8B00B3"/><stop offset="1" stop-color="#6900B5"/></linearGradient></defs></svg>