<svg xmlns="http://www.w3.org/2000/svg" viewBox="0 0 238.51 46.16"><defs><style>.b11b2365-5bb3-4f7c-84e1-406cddf313a5{fill:#c6c7c9;}.e9fb210c-be46-4f9c-829e-5416edd24d3a{fill:#a1d5f6;}</style></defs><title>amocrm-logo</title><g id="f0f2e51e-a1a5-4638-af55-94bb6f036cfb" data-name="Слой 2"><g id="f806ada6-e99e-46a3-be4c-da1b56a82366" data-name="Layer 1"><path class="b11b2365-5bb3-4f7c-84e1-406cddf313a5" d="M37.14,30q1.08,0,1.08,2.76A7.5,7.5,0,0,1,37,36.43a16.16,16.16,0,0,1-3.27,3.9,18.49,18.49,0,0,1-4.47,2.91,11.37,11.37,0,0,1-4.8,1.14q-3.18,0-4.26-5.58A13.09,13.09,0,0,1,16.08,43a12.17,12.17,0,0,1-6.75,1.65A9.09,9.09,0,0,1,2.52,42,8.63,8.63,0,0,1,0,35.62q0-10.2,6.78-16.08a15.91,15.91,0,0,1,5.37-3.24,17.46,17.46,0,0,1,5.25-.78,9.27,9.27,0,0,1,4.5,1q.84-1.74,1.92-1.74a5.7,5.7,0,0,1,4,1.83A5.08,5.08,0,0,1,29.7,20a42.45,42.45,0,0,1-2.46,4.74,47.89,47.89,0,0,0-.48,7.74q0,5,1.26,5,1.56,0,7.56-6.24Q36.66,30,37.14,30ZM8.82,33.64q0,4.62,3.42,4.62,3.66-.06,6.06-3.9a12.15,12.15,0,0,0,1.38-3.24,48.06,48.06,0,0,1,1.2-11.52,15.83,15.83,0,0,0-8.46,4.68A12.92,12.92,0,0,0,8.82,33.64Z"/><path class="b11b2365-5bb3-4f7c-84e1-406cddf313a5" d="M63.6,26q0-2-2.28-2-1.56,0-3.48,3a21.51,21.51,0,0,0-2.76,6.51v.12a15,15,0,0,0,.63,4.2,12.92,12.92,0,0,1,.63,3q0,2-5.1,4a3.92,3.92,0,0,1-1.38.3,2.08,2.08,0,0,1-2.07-1.56,12.68,12.68,0,0,1-.57-4.23q0-2.67.15-5t.3-4.38q.15-2,.3-3.54t.15-2.49q0-2-1.86-2t-4.32,4.35q-2.46,4.35-2.46,6.9a16.77,16.77,0,0,0,.63,4.71,12.92,12.92,0,0,1,.63,3q0,2-5.1,4a3.92,3.92,0,0,1-1.38.3,2.08,2.08,0,0,1-2.07-1.56,15,15,0,0,1-.57-4.8,80.19,80.19,0,0,1,.66-12.3,27.64,27.64,0,0,1,4.08-10.56,3,3,0,0,1,2.34-1.68q2,0,3.66,3.24a8.79,8.79,0,0,1,.72,1.56,8.49,8.49,0,0,1,6.78-3.6,7,7,0,0,1,4.62,1.71,5.37,5.37,0,0,1,2,4.29v.66a11.09,11.09,0,0,1,8.94-4.56,6.67,6.67,0,0,1,4.92,1.68,5.63,5.63,0,0,1,1.68,4.14,24.94,24.94,0,0,1-.36,4.44q-.36,2-.81,3.72t-.81,3.09a8.78,8.78,0,0,0-.36,2.1q0,.75.48.75a3.77,3.77,0,0,0,2.22-1.14q1.32-1.14,2.64-2.49l2.43-2.49Q78.6,30.22,79,30.22q.84,0,.84,2,0,4.2-4.23,8.16a13.06,13.06,0,0,1-9,4q-4.32,0-4.32-7.86a31.24,31.24,0,0,1,.66-5.46A30.74,30.74,0,0,0,63.6,26Z"/><path class="b11b2365-5bb3-4f7c-84e1-406cddf313a5" d="M96.6,39.1a14.45,14.45,0,0,1-11.37,5.58q-6.63,0-9.93-3.39a11.4,11.4,0,0,1-3.24-8.43,17.71,17.71,0,0,1,4.5-12.3A15.17,15.17,0,0,1,88.5,15.4a14.42,14.42,0,0,1,5.4.84q3.54,1.44,3.54,2.7,0,1-5,1a11.24,11.24,0,0,0-8.28,3.42,11.7,11.7,0,0,0-3.33,8.55,6.66,6.66,0,0,0,1.59,4.53A5.64,5.64,0,0,0,87,38.26a9,9,0,0,0,4.83-1.2,9.45,9.45,0,0,1-4.26-8.34,7.43,7.43,0,0,1,2.07-5.25,7.1,7.1,0,0,1,5.46-2.4q3.33,0,4.77,1.83a7.57,7.57,0,0,1,1.44,4.77,15.71,15.71,0,0,1-1.38,6.15h.36A6.68,6.68,0,0,0,104.82,32q.72-.72,1.23-1.26a1.46,1.46,0,0,1,1-.54q.84,0,.84,2a6.79,6.79,0,0,1-2.16,5.49A7.21,7.21,0,0,1,101,39.46,22.92,22.92,0,0,1,96.6,39.1Zm-.54-7a9.8,9.8,0,0,0,1-4.2q0-2-1.32-2-.54,0-.9.78a3.58,3.58,0,0,0-.36,1.5A5.37,5.37,0,0,0,96.06,32.14Z"/><path class="e9fb210c-be46-4f9c-829e-5416edd24d3a" d="M238.51,38.67a6,6,0,1,1-6-6A6,6,0,0,1,238.51,38.67Z"/><path class="e9fb210c-be46-4f9c-829e-5416edd24d3a" d="M170.62,31.1c.67,0,1,.92,1,2.76a7.5,7.5,0,0,1-1.26,3.63,16.16,16.16,0,0,1-3.27,3.9,18.49,18.49,0,0,1-4.47,2.91A11.14,11.14,0,0,1,158,45.44a6.22,6.22,0,0,1-3.48-.84,5.79,5.79,0,0,1-2-2.28q-1-2-1.68-7.77a57.75,57.75,0,0,0-1.32-8,6.14,6.14,0,0,1-2.73-1.23A2.82,2.82,0,0,1,145.6,23a2,2,0,0,1,1.23-2,6.32,6.32,0,0,1,2.82-.6,5.33,5.33,0,0,1,2.85.78A11.3,11.3,0,0,0,155.23,18a10.52,10.52,0,0,0,1.05-5.1,6.52,6.52,0,0,0-2.16-5.13Q152,5.84,147.79,5.84a23.63,23.63,0,0,0-6.39.66,24.3,24.3,0,0,0-3.81,1.44q-1.59.78-2.82,1.44a4.92,4.92,0,0,1-2.31.66q-1.08,0-1.08-.69a4.85,4.85,0,0,1,1.14-2.25A14.29,14.29,0,0,1,135.88,4,21.31,21.31,0,0,1,148.48.11a23.07,23.07,0,0,1,11.58,2.67,10.16,10.16,0,0,1,5.34,9.36,13,13,0,0,1-2.7,8.58,15.53,15.53,0,0,1-6.84,4.92,24.82,24.82,0,0,1,1.47,4.26c.37,1.52.75,2.92,1.11,4.2a14.78,14.78,0,0,0,1.23,3.18,2,2,0,0,0,1.68,1.26,4.11,4.11,0,0,0,2.4-1.17q1.41-1.17,2.79-2.55c.91-.92,1.75-1.77,2.49-2.55S170.29,31.1,170.62,31.1ZM144.52,9.5q.78,0,.78,2a30.9,30.9,0,0,1-.24,3.84,55.79,55.79,0,0,1-1.38,6.48q-2.16,8.16-2.16,9.54v8.82a4.48,4.48,0,0,1-2.46,4.44l-2.19,1a5.67,5.67,0,0,1-2.37.48q-2.52,0-2.52-5.79a52,52,0,0,1,2.7-14.61,56.8,56.8,0,0,1,5.64-13.44,8.63,8.63,0,0,1,1.74-1.86A3.75,3.75,0,0,1,144.52,9.5Z"/><path class="e9fb210c-be46-4f9c-829e-5416edd24d3a" d="M222.28,31.1q1,0,1,2.76A7.5,7.5,0,0,1,222,37.49a16.16,16.16,0,0,1-3.27,3.9,18.49,18.49,0,0,1-4.47,2.91,12.2,12.2,0,0,1-5.19,1.14,5.33,5.33,0,0,1-4.26-1.77,5.9,5.9,0,0,1-1.53-4,19.83,19.83,0,0,1,.72-5Q204.76,32,205.6,29q2.28-8,2.34-11.22a5,5,0,0,0-.36-2.13,1.38,1.38,0,0,0-1.38-.75q-1.8,0-3.84,2.16a25.63,25.63,0,0,0-3.84,5.52,33.9,33.9,0,0,0-4.38,15l.24,1.68a12.74,12.74,0,0,1,.12,1.8,4.57,4.57,0,0,1-1.89,3.51,6.41,6.41,0,0,1-4.23,1.59,2.15,2.15,0,0,1-2-1.35,7.41,7.41,0,0,1-.66-3.33,22.13,22.13,0,0,1,.9-5.4q.9-3.42,2-7.26,2.88-10.14,2.94-15.12a10.11,10.11,0,0,0-.63-4,2.4,2.4,0,0,0-2.43-1.44c-2.16,0-4.31,1.54-6.42,4.62s-4,7.86-5.71,14.34c-.44,1.68-.77,3.14-1,4.38l-.06,1.14a46.89,46.89,0,0,1,1.14,7.2q0,3.48-2.45,4.68l-2.2,1a5.28,5.28,0,0,1-2.25.48q-3,0-3-5.73T169.66,18q1.13-6,1.13-6.72,0-4.86-2.45-4.86a2.67,2.67,0,0,0-1.54.48c-.45.32-.92.66-1.37,1s-.93.7-1.41,1a2.93,2.93,0,0,1-1.65.48c-.63,0-.93-.54-.93-1.62a6.3,6.3,0,0,1,3.06-5.4A11.7,11.7,0,0,1,171.63.26c3.6,0,5.73,1.68,6.37,5,.15,1,.28,2.06.36,3.18Q182.79.14,189.58.14,197,.14,198,7.22a22,22,0,0,1,.3,4.38v.48q3.9-5.4,9.24-5.4,7.56,0,7.56,9.12a41.83,41.83,0,0,1-1.23,9.27q-1.23,5.31-1.8,7.62a16.1,16.1,0,0,0-.57,3.57q0,2.28,1.59,2.28t7.59-6.24Q221.8,31.1,222.28,31.1Z"/><path class="e9fb210c-be46-4f9c-829e-5416edd24d3a" d="M136.82,23.13c1,0,1.52,1,1.52,2.9A17.11,17.11,0,0,1,137,32.24a22.5,22.5,0,0,1-4,6.4,23,23,0,0,1-6.78,5.26,20.56,20.56,0,0,1-9.72,2.18,14.3,14.3,0,0,1-9.81-3.74q-4.22-3.75-4.21-10.82a39,39,0,0,1,2-12.79,34.12,34.12,0,0,1,5.22-9.91,24.75,24.75,0,0,1,7.37-6.5A16.14,16.14,0,0,1,125,0q6.48,0,6.48,5.78a10,10,0,0,1-1.22,5.31c-.82,1.33-1.64,2-2.48,2a4,4,0,0,1-3-1.32A3.94,3.94,0,0,0,122,10.38c-1,0-3.76-.1-6.09,3.65a12.61,12.61,0,0,0-2,4.12,29.22,29.22,0,0,0-2,11A10.42,10.42,0,0,0,115.84,36a6.72,6.72,0,0,0,4.38,1.19,11.06,11.06,0,0,0,7.11-3.75c1.36-1.46,2.56-2.84,3.85-4.33s2.43-2.85,3.41-4.12S136.31,23.13,136.82,23.13Z"/></g></g></svg>