<svg xmlns="http://www.w3.org/2000/svg" viewBox="0 0 48 46"><defs><style>.b1c9f21b-6528-44b6-9282-4aafddefe383{fill:none;stroke:#505050;stroke-miterlimit:10;stroke-width:2px;}</style></defs><title>icon-004</title><g id="faf98329-05e4-439e-9c4f-5cd6ceda7328" data-name="Слой 2"><g id="bcc4bd8c-e04c-49b2-9c0a-de37f83b536a" data-name="icons"><path class="b1c9f21b-6528-44b6-9282-4aafddefe383" d="M4,40V15a2,2,0,0,1,2-2h7"/><line class="b1c9f21b-6528-44b6-9282-4aafddefe383" x1="44" y1="28" x2="44" y2="40"/><path class="b1c9f21b-6528-44b6-9282-4aafddefe383" d="M47,40H29l-2,2H22l-2-2H1v1a4,4,0,0,0,4,4H43a4,4,0,0,0,4-4Z"/><path class="b1c9f21b-6528-44b6-9282-4aafddefe383" d="M15,4a3,3,0,0,1,3-3H44a3,3,0,0,1,3,3V23a3,3,0,0,1-3,3H32l-5.29,6.29a1,1,0,0,1-1.71-.7V26H18a3,3,0,0,1-3-3Z"/><polyline class="b1c9f21b-6528-44b6-9282-4aafddefe383" points="37 14 37 20 25 20 25 8 34 8"/><polyline class="b1c9f21b-6528-44b6-9282-4aafddefe383" points="28 14 31 17 38 8"/></g></g></svg>