<svg xmlns="http://www.w3.org/2000/svg" viewBox="0 0 44 45"><defs><style>.f836b305-c943-40c0-82c2-73f68dce202d{fill:none;stroke:#505050;stroke-miterlimit:10;stroke-width:2px;}</style></defs><title>icon-003</title><g id="b4abecfd-a3c8-4be4-847d-68155b03f46c" data-name="Слой 2"><g id="e2384939-ceaf-41a2-bf27-d4a3b64e78b0" data-name="icons"><path class="f836b305-c943-40c0-82c2-73f68dce202d" d="M6,20H3a2.12,2.12,0,0,0-2,2.22v5.56A2.12,2.12,0,0,0,3,30H6V16.33C6,9,13.39,1,22.5,1S39,9,39,16.33V24"/><path class="f836b305-c943-40c0-82c2-73f68dce202d" d="M39,20h2a2.12,2.12,0,0,1,2,2.22v5.56A2.12,2.12,0,0,1,41,30H39"/><path class="f836b305-c943-40c0-82c2-73f68dce202d" d="M35,24v3c0,3.61-1.86,8.26-5,10.62"/><path class="f836b305-c943-40c0-82c2-73f68dce202d" d="M16,8c0,7,13.94,16,21,16"/><path class="f836b305-c943-40c0-82c2-73f68dce202d" d="M17,12c-3,1.25-7,6.81-7,11v4a14,14,0,0,0,8.08,12"/><path class="f836b305-c943-40c0-82c2-73f68dce202d" d="M27,42a2,2,0,0,1-2,2H22a2,2,0,0,1-2-2h0a2,2,0,0,1,2-2h3a2,2,0,0,1,2,2Z"/><path class="f836b305-c943-40c0-82c2-73f68dce202d" d="M26,42h1.18A11.82,11.82,0,0,0,39,30.18V27"/></g></g></svg>