<svg xmlns="http://www.w3.org/2000/svg" viewBox="0 0 45.62 44"><defs><style>.aaa6263c-bd79-4adc-b37f-cb8806374564,.bd315f48-f98c-441b-a874-c89947dc4171{fill:none;stroke:#505050;stroke-width:2px;}.aaa6263c-bd79-4adc-b37f-cb8806374564{stroke-linejoin:round;}.bd315f48-f98c-441b-a874-c89947dc4171{stroke-miterlimit:10;}</style></defs><title>icon-005</title><g id="b75eb2fb-e5ca-45c2-8f2b-c90117b53c6e" data-name="Слой 2"><g id="ae3e517c-56a8-4e94-87da-d8aa9285cfa3" data-name="icons"><polygon class="aaa6263c-bd79-4adc-b37f-cb8806374564" points="6.62 12 25.62 31 28.62 38 21.62 35 2.62 16 6.62 12"/><path class="aaa6263c-bd79-4adc-b37f-cb8806374564" d="M5.62,12l-1-1a2.12,2.12,0,0,0-3,0h0a2.12,2.12,0,0,0,0,3l1,1"/><line class="aaa6263c-bd79-4adc-b37f-cb8806374564" x1="24.62" y1="31" x2="21.62" y2="34"/><path class="bd315f48-f98c-441b-a874-c89947dc4171" d="M12.62,14V3a2,2,0,0,1,2-2h22l8,8V41a2,2,0,0,1-2,2h-28a2,2,0,0,1-2-2V30"/><polyline class="bd315f48-f98c-441b-a874-c89947dc4171" points="41.62 10 35.62 10 35.62 4"/><line class="aaa6263c-bd79-4adc-b37f-cb8806374564" x1="31.62" y1="38" x2="39.62" y2="38"/><line class="aaa6263c-bd79-4adc-b37f-cb8806374564" x1="19.62" y1="16" x2="38.62" y2="16"/><line class="aaa6263c-bd79-4adc-b37f-cb8806374564" x1="19.62" y1="20" x2="38.62" y2="20"/><line class="aaa6263c-bd79-4adc-b37f-cb8806374564" x1="23.62" y1="24" x2="38.62" y2="24"/><line class="aaa6263c-bd79-4adc-b37f-cb8806374564" x1="27.62" y1="28" x2="38.62" y2="28"/></g></g></svg>