<svg xmlns="http://www.w3.org/2000/svg" viewBox="0 0 45.99 48"><defs><style>.af953ba5-3465-473f-a9ed-6cb6b45015da,.bdcdb87f-89c4-4708-b7fb-e85c014831fa{fill:none;stroke:#505050;stroke-width:2px;}.bdcdb87f-89c4-4708-b7fb-e85c014831fa{stroke-miterlimit:10;}.af953ba5-3465-473f-a9ed-6cb6b45015da{stroke-linejoin:round;}</style></defs><title>icon-006</title><g id="f2c8f6b9-1476-4452-9ba0-f55044401244" data-name="Слой 2"><g id="b6487869-7893-4809-8fd3-4026a04ee508" data-name="icons"><path class="bdcdb87f-89c4-4708-b7fb-e85c014831fa" d="M10,32a4.06,4.06,0,0,1-4-4.29V26.29a4,4,0,1,1,8,0v1.42A4.05,4.05,0,0,1,10,32Z"/><path class="bdcdb87f-89c4-4708-b7fb-e85c014831fa" d="M1,47s.66-5.56,1-8,1.8-4,4-4H8l7,8h6s.45,4-3,4H12L7,41"/><polyline class="af953ba5-3465-473f-a9ed-6cb6b45015da" points="15.99 40 19.99 34 37.99 34 31.99 44 22.99 44"/><line class="af953ba5-3465-473f-a9ed-6cb6b45015da" x1="7.99" y1="47" x2="39.99" y2="47"/><path class="af953ba5-3465-473f-a9ed-6cb6b45015da" d="M20,1H42a3,3,0,0,1,3,3V20a4,4,0,0,1-4,4H28l-4.2,5.6A1,1,0,0,1,22,29V24H20a3,3,0,0,1-3-3V4A3,3,0,0,1,20,1Z"/><path class="bdcdb87f-89c4-4708-b7fb-e85c014831fa" d="M36,20V17c0-2-2.75-3-5-3s-5,1-5,3v3"/><path class="bdcdb87f-89c4-4708-b7fb-e85c014831fa" d="M31,14a2.9,2.9,0,0,0,3-3V10a3,3,0,0,0-6,0v1A2.91,2.91,0,0,0,31,14Z"/></g></g></svg>