<svg xmlns="http://www.w3.org/2000/svg" viewBox="0 0 46 46.12"><defs><style>.a1a7f316-ec72-4463-928c-82c9e04977d4,.a8b045d2-5463-418b-b7c0-a5d27f465e5b,.b30beae4-e268-4d57-9a3a-15c4e1f03af9{fill:none;stroke:#505050;stroke-width:2px;}.a1a7f316-ec72-4463-928c-82c9e04977d4{stroke-linecap:round;}.a1a7f316-ec72-4463-928c-82c9e04977d4,.a8b045d2-5463-418b-b7c0-a5d27f465e5b{stroke-miterlimit:10;}.b30beae4-e268-4d57-9a3a-15c4e1f03af9{stroke-linejoin:round;}</style></defs><title>icon-002</title><g id="bdb821e7-0958-4f2e-8813-53ed3b0418d7" data-name="Слой 2"><g id="bcc18cb7-65a2-40ff-bc19-73201768fc2e" data-name="icons"><path class="a1a7f316-ec72-4463-928c-82c9e04977d4" d="M26,18.26c-1.83-2.09-3.89-4.12-6-6.14m-6,0C7,18.82,1,27,1,33.12c0,8.48,7.15,12,16,12a26.68,26.68,0,0,0,6-.63"/><path class="a8b045d2-5463-418b-b7c0-a5d27f465e5b" d="M14,32.12v1a2,2,0,0,0,2,2h2a2,2,0,0,0,2-2V31.56a2,2,0,0,0-1.37-1.89l-3.26-1.09A2,2,0,0,1,14,26.68V25.12a2,2,0,0,1,2-2h2a2,2,0,0,1,2,2v1"/><line class="a8b045d2-5463-418b-b7c0-a5d27f465e5b" x1="17" y1="23.12" x2="17" y2="20.12"/><line class="a8b045d2-5463-418b-b7c0-a5d27f465e5b" x1="17" y1="35.12" x2="17" y2="38.12"/><path class="a8b045d2-5463-418b-b7c0-a5d27f465e5b" d="M20,12.12c-.36.59-2.06,1-3,1s-2.62-.45-3-1c0,0-4.51-8.68-4.34-9C11.11.31,14.15.85,17,1.62a17.73,17.73,0,0,0,6.45.87C23.52,3.64,20,12.12,20,12.12Z"/><rect class="b30beae4-e268-4d57-9a3a-15c4e1f03af9" x="26" y="21.12" width="19" height="24"/><line class="b30beae4-e268-4d57-9a3a-15c4e1f03af9" x1="26" y1="27.12" x2="45" y2="27.12"/><line class="b30beae4-e268-4d57-9a3a-15c4e1f03af9" x1="26" y1="33.12" x2="45" y2="33.12"/><line class="b30beae4-e268-4d57-9a3a-15c4e1f03af9" x1="26" y1="39.12" x2="38" y2="39.12"/><line class="b30beae4-e268-4d57-9a3a-15c4e1f03af9" x1="32" y1="45.12" x2="32" y2="27.12"/><line class="b30beae4-e268-4d57-9a3a-15c4e1f03af9" x1="38" y1="45.12" x2="38" y2="27.12"/></g></g></svg>