<svg xmlns="http://www.w3.org/2000/svg" viewBox="0 0 45 46.71"><defs><style>.afa9b0ab-f07d-497b-93fa-219783dd12f2{fill:none;stroke:#505050;stroke-linejoin:round;stroke-width:2px;}</style></defs><title>icon-001</title><g id="fb5ca59b-a72d-4bac-bc8e-6640ec5f1734" data-name="Слой 2"><g id="aca7fcc5-1b0e-4aab-b6df-a4fa5747c4d5" data-name="icons"><path class="afa9b0ab-f07d-497b-93fa-219783dd12f2" d="M19.31,14.21l3.14-3.13A1.51,1.51,0,0,1,24.9,11l.82.81c.84.84,1.41,2.26.57,3.09l-3.13,3.14"/><path class="afa9b0ab-f07d-497b-93fa-219783dd12f2" d="M27,21.9l4.23-4.23c.84-.84.27-2.26-.57-3.09l-.81-.82a1.53,1.53,0,0,0-2.46.06l-4.23,4.24"/><path class="afa9b0ab-f07d-497b-93fa-219783dd12f2" d="M16,46l4-4c1.24-1.24,3.26-.26,5-2l4-4"/><path class="afa9b0ab-f07d-497b-93fa-219783dd12f2" d="M18.1,32.76c3.09-3.09,1.9-10.17-.61-12.69L21,23.56c2.49,2.49,6.21.71,6.81-.88l-7.89-7.9a3.8,3.8,0,0,0-3.53-1.17,15,15,0,0,0-4.82,2.23A7.32,7.32,0,0,0,9,21v9L2,38"/><rect class="afa9b0ab-f07d-497b-93fa-219783dd12f2" x="27.99" y="24.67" width="10.09" height="5.44" rx="2.14" transform="translate(-9.69 31.38) rotate(-45)"/><path class="afa9b0ab-f07d-497b-93fa-219783dd12f2" d="M25,24.73a1.65,1.65,0,0,0,.5,1.19l.81.82c.84.84,2.29,1.21,3.12.37L33.58,23a2.61,2.61,0,0,0-.09-3.4l-.82-.81c-.83-.84-2.09-.47-2.93.37L27,21.9"/><polyline class="afa9b0ab-f07d-497b-93fa-219783dd12f2" points="10.69 16.69 5 11 1 1 11 5 19.76 13.76"/><path class="afa9b0ab-f07d-497b-93fa-219783dd12f2" d="M35,29l8.41,8.56a2,2,0,0,1,0,2.82l-3,3a2,2,0,0,1-2.82,0L20,25.86"/><line class="afa9b0ab-f07d-497b-93fa-219783dd12f2" x1="8" y1="8" x2="14.3" y2="14.3"/><line class="afa9b0ab-f07d-497b-93fa-219783dd12f2" x1="32" y1="32" x2="38" y2="38"/><line class="afa9b0ab-f07d-497b-93fa-219783dd12f2" x1="41" y1="35" x2="35" y2="41"/><line class="afa9b0ab-f07d-497b-93fa-219783dd12f2" x1="11" y1="5" x2="5" y2="11"/></g></g></svg>