<svg width="205" height="155" fill="none" xmlns="http://www.w3.org/2000/svg"><g clip-path="url(#a)"><path d="M18.9 79h-7l3.7-12.2L18.9 79ZM8.3 92.4l2.4-8h9.4l2.2 8H31l-8.7-30.5c-.5-1.8-1.6-2.6-3.5-2.6H6.4v2.9h1c1.3 0 2 .5 2 1.5 0 .6-.1 1.2-.7 2.7L0 92.5h8.3v-.1Zm32.9 0V61.8c0-1.6-.9-2.5-2.5-2.5H31v2.9h.5c1.3 0 1.8.5 1.8 1.9v28.4h7.9v-.1Zm13.3 0V61.8c0-1.6-.9-2.5-2.5-2.5h-7.6v2.9h.5c1.3 0 1.8.5 1.8 1.9v28.4h7.8v-.1Zm13.6-30.1c0-2.2-1.6-3.6-4.5-3.6-2.8 0-4.5 1.3-4.5 3.6 0 2.2 1.7 3.6 4.5 3.6s4.5-1.4 4.5-3.6Zm-.2 30.1V70.1c0-1.6-.9-2.5-2.5-2.5h-7.6v2.8h.4c1.3 0 1.8.6 1.8 1.9v20.1h7.9ZM85 80.5v4.8c-1.3 1.3-2.9 2.1-4.2 2.1-1.4 0-1.9-.7-1.9-2.5s.4-2.7 1.8-3.2c1-.5 2.4-.9 4.3-1.2Zm-10.5-5.8c2.6-1.2 5.4-1.9 7.7-1.9 2.1 0 2.8.7 2.8 2.9v.6c-3.2.5-4.2.7-6 1.1-1 .2-2 .5-2.9.9-3.1 1.3-4.6 3.7-4.6 7.4 0 4.7 2 7 6.3 7 1.5 0 2.9-.3 4.2-.8 1.1-.5 1.7-.9 3.3-2.1v.3c0 1.5.8 2.3 2.3 2.3h7.1v-2.7h-.4c-1.3 0-1.8-.6-1.8-2.2V75.7c0-6.3-2.2-8.5-8.5-8.5-2 0-4 .3-6 .7-1.9.4-2.9.8-5.3 2l1.8 4.8ZM106 92.4V75.6c1.3-1.4 2.6-2.1 4.2-2.1s2 .7 2 3.1v15.7h7.8V75.4c0-3.9-.3-5.2-1.5-6.5-1-1.2-2.6-1.7-4.7-1.7-3 0-5.2.9-8 3.6v-1c0-1.5-.8-2.3-2.4-2.3H96v2.8h.4c1.3 0 1.8.6 1.8 1.9v20.1l7.8.1Zm37-5.2h-10.8l10.3-14.5v-5.1h-16.2c-1.8 0-2.7.8-2.7 2.7v4.5h2.9v-.4c0-1.1.6-1.7 1.8-1.7h5.6l-10.4 14.7v5.1H143v-5.3Z" fill="url(#b)"/><path d="M186.9 91.8h7.3V69.9c0-2.2-.8-3-3-3h-4.3v24.9Zm-3.2 0V63.7c0-2.2-.8-3-3-3h-6.6v3.1h.4c1.5 0 1.8.3 1.8 2.1v25.8l7.4.1Zm-10.6 0V66.9h-4.3c-2.1 0-3 .8-3 3v21.9h7.3Z" fill="url(#c)"/><path d="M201.1 77.5c0 12.4-8.9 21.4-21.1 21.4-12.2 0-21.101-9-21.101-21.4 0-12.4 8.901-21.4 21.101-21.4s21.1 9.1 21.1 21.4Zm4.299 0C205.399 62.9 194.5 52 180 52c-14.6 0-25.4 10.9-25.4 25.5s10.9 25.4 25.4 25.4c14.6.1 25.399-10.8 25.399-25.4Z" fill="url(#d)"/></g><defs><linearGradient id="b" x1="-1.667" y1="75.694" x2="206.375" y2="75.694" gradientUnits="userSpaceOnUse"><stop stop-color="#1C8AE2"/><stop offset=".486" stop-color="#8B00B3"/><stop offset="1" stop-color="#6900B5"/></linearGradient><linearGradient id="c" x1="-1.666" y1="76.245" x2="206.374" y2="76.245" gradientUnits="userSpaceOnUse"><stop stop-color="#1C8AE2"/><stop offset=".486" stop-color="#8B00B3"/><stop offset="1" stop-color="#6900B5"/></linearGradient><linearGradient id="d" x1="-1.666" y1="77.504" x2="206.374" y2="77.504" gradientUnits="userSpaceOnUse"><stop stop-color="#1C8AE2"/><stop offset=".486" stop-color="#8B00B3"/><stop offset="1" stop-color="#6900B5"/></linearGradient><clipPath id="a"><path fill="#fff" d="M0 0h205v155H0z"/></clipPath></defs></svg>