<?xml version="1.0" encoding="utf-8"?>
<!-- Generator: Adobe Illustrator 22.1.0, SVG Export Plug-In . SVG Version: 6.00 Build 0)  -->
<svg version="1.1" id="Слой_1" xmlns="http://www.w3.org/2000/svg" xmlns:xlink="http://www.w3.org/1999/xlink" x="0px" y="0px"
	 viewBox="0 0 878 239.4" style="enable-background:new 0 0 878 239.4;" xml:space="preserve">
<style type="text/css">
	.st0{fill:#FFFFFF;}
	.st1{fill:url(#SVGID_1_);}
	.st2{fill:url(#SVGID_2_);}
	.st3{fill:url(#SVGID_3_);}
	.st4{fill:url(#SVGID_4_);}
	.st5{fill:url(#SVGID_5_);}
	.st6{fill:url(#SVGID_6_);}
	.st7{clip-path:url(#SVGID_8_);fill:url(#SVGID_9_);}
	.st8{clip-path:url(#SVGID_8_);fill:url(#SVGID_10_);}
	.st9{clip-path:url(#SVGID_8_);fill:url(#SVGID_11_);}
	.st10{clip-path:url(#SVGID_8_);fill:url(#SVGID_12_);}
	.st11{clip-path:url(#SVGID_8_);fill:url(#SVGID_13_);}
	.st12{clip-path:url(#SVGID_8_);fill:url(#SVGID_14_);}
	.st13{clip-path:url(#SVGID_8_);fill:url(#SVGID_15_);}
	.st14{clip-path:url(#SVGID_8_);fill:url(#SVGID_16_);}
	.st15{clip-path:url(#SVGID_8_);fill:url(#SVGID_17_);}
	.st16{clip-path:url(#SVGID_8_);fill:url(#SVGID_18_);}
	.st17{fill:url(#SVGID_19_);}
	.st18{fill:url(#SVGID_20_);}
</style>
<g>
	<path class="st0" d="M145.6,127.6c-1.6-15.7-7.5-28.7-23.6-33.3c-8.8-2.5-18.4-2.6-26.6-7c-2.2-1.2-4.2-2.6-6-4.5
		c-1.5-1.6-2.6-3.8-4.4-5.1c-1.7-1.2-3.3-1.6-5.2-0.9c0,0,0,0.1,0,0.1c4.4-0.1,7.4,6.9,10.4,9.5c2,1.8,4.4,3.2,6.8,4.3
		c6.1,2.7,12.8,3.6,19.3,4.9c8.3,1.8,16.3,4.7,21,12.3c4,6.5,5.3,14.6,5.8,22.1c0.7,9.9-2.9,17-10.3,23.4
		c-5.3,4.6-11.3,8.3-15.6,13.9c-3.6,4.8-6.1,11.1-4.6,17.1c0.7,2.8,2.4,5.1,3.5,7.7c2.6,6.4-0.8,8.8-3,10.9c-1.5,1.3-3,2.4-4.7,3.4
		c0,0,0,0,0,0c5.3-1.5,11.9-4.1,11.7-10.6c-0.1-3.5-2.4-6.3-3.8-9.4c-2.9-6.6-0.2-13.5,4.2-18.7c6-7,14.6-11.2,20.3-18.5
		C145.8,142.8,146.4,135.7,145.6,127.6z"/>
	<g>
		<linearGradient id="SVGID_1_" gradientUnits="userSpaceOnUse" x1="23.8681" y1="165.8238" x2="46.1638" y2="165.8238">
			<stop  offset="0" style="stop-color:#191E2B"/>
			<stop  offset="1" style="stop-color:#6DAB5E"/>
		</linearGradient>
		<path class="st1" d="M46.2,185.8c-2.8-2.9-5.4-6.1-7.7-9.4c-3.4-4.8-6.2-10.1-8.5-15.5c-2.3-5.5-3.4-11.4-5.7-16.9
			c-0.1-0.2-0.4-0.1-0.4,0.1c-0.3,5.6,1.7,11.6,3.7,16.9c2.2,5.7,5.1,11.2,8.5,16.2c2.5,3.8,5.4,7.3,8.5,10.6
			C45,187,45.5,186.4,46.2,185.8z"/>
		<linearGradient id="SVGID_2_" gradientUnits="userSpaceOnUse" x1="30.0994" y1="150.952" x2="59.1946" y2="150.952">
			<stop  offset="0" style="stop-color:#191E2B"/>
			<stop  offset="1" style="stop-color:#6DAB5E"/>
		</linearGradient>
		<path class="st2" d="M55.6,182.4c1.2-0.1,2.4-0.2,3.6-0.2c-3.1-3.1-6.1-6.5-8.8-10.1c-5.7-7.5-10.1-15.9-13.3-24.8
			c-3.2-9-4.1-18.3-6.2-27.5c-0.1-0.2-0.4-0.2-0.4,0c-1.3,9.3,1.3,19.6,4.3,28.3c3.1,9.1,7.6,17.6,13.3,25.3
			C50.3,176.5,52.9,179.5,55.6,182.4z"/>
		<linearGradient id="SVGID_3_" gradientUnits="userSpaceOnUse" x1="36.5375" y1="146.2191" x2="74.244" y2="146.2191">
			<stop  offset="0" style="stop-color:#191E2B"/>
			<stop  offset="1" style="stop-color:#6DAB5E"/>
		</linearGradient>
		<path class="st3" d="M70.8,182c1.1-0.1,2.3-0.2,3.5-0.4C54.1,164,41,138.8,39.1,111.4c-0.1-1.7-2.7-1.1-2.5,0.5
			C38.4,139,51.2,164.1,70.8,182z"/>
		<linearGradient id="SVGID_4_" gradientUnits="userSpaceOnUse" x1="45.4183" y1="140.3217" x2="87.8638" y2="140.3217">
			<stop  offset="0" style="stop-color:#191E2B"/>
			<stop  offset="1" style="stop-color:#6DAB5E"/>
		</linearGradient>
		<path class="st4" d="M85.1,179c0.9-0.4,1.8-0.7,2.7-1.2C64.7,160.3,50,132.1,48,103c-0.1-1.6-2.7-1.8-2.6-0.2
			C47.4,132.4,61.9,160.9,85.1,179z"/>
		<linearGradient id="SVGID_5_" gradientUnits="userSpaceOnUse" x1="54.5554" y1="134.599" x2="95.2467" y2="134.599">
			<stop  offset="0" style="stop-color:#191E2B"/>
			<stop  offset="1" style="stop-color:#6DAB5E"/>
		</linearGradient>
		<path class="st5" d="M95.2,170.2C73.2,152.7,58.8,126.6,57.1,98c-0.1-1.6-2.7-1.8-2.6-0.2c1.7,29.6,16.5,56.6,39.5,74.6
			C94.5,171.7,94.9,171,95.2,170.2z"/>
		<linearGradient id="SVGID_6_" gradientUnits="userSpaceOnUse" x1="64.6043" y1="128.2127" x2="98.4745" y2="128.2127">
			<stop  offset="0" style="stop-color:#191E2B"/>
			<stop  offset="1" style="stop-color:#6DAB5E"/>
		</linearGradient>
		<path class="st6" d="M98.1,163.7c0-0.8,0-1.6,0.1-2.4c0-0.3,0.1-0.6,0.3-0.8c-18.3-17.4-29.9-41-31.3-66.6
			c-0.1-1.6-2.7-1.8-2.6-0.2C66.1,120.9,78.4,145.6,98.1,163.7z"/>
	</g>
	<g>
		<defs>
			<circle id="SVGID_7_" cx="123.8" cy="119.7" r="119.7"/>
		</defs>
		<clipPath id="SVGID_8_">
			<use xlink:href="#SVGID_7_"  style="overflow:visible;"/>
		</clipPath>
		<linearGradient id="SVGID_9_" gradientUnits="userSpaceOnUse" x1="18.5079" y1="146.2888" x2="157.8478" y2="146.2888">
			<stop  offset="0" style="stop-color:#191E2B"/>
			<stop  offset="1" style="stop-color:#6DAB5E"/>
		</linearGradient>
		<path class="st7" d="M86.6,75.1c-32,0-59.2,21.2-68.1,50.3c1.2-1.8,2.4-3.5,3.6-5.3c0.3-0.4,0.5-0.8,0.8-1.3
			c0.6-0.8,4.4-7.4,6.3-9.4C41.4,90.6,62.6,78,86.6,78c37.6,0,68.2,30.6,68.2,68.2s-30.6,68.2-68.2,68.2c-0.7,0-1.3,0-2,0
			c-4.5,0.8-9.1,1.1-13.7,1.3c5.1,1.1,10.3,1.7,15.7,1.7c39.3,0,71.2-32,71.2-71.2S125.9,75.1,86.6,75.1z"/>
		<linearGradient id="SVGID_10_" gradientUnits="userSpaceOnUse" x1="6.8577" y1="145.5209" x2="166.3675" y2="145.5209">
			<stop  offset="0" style="stop-color:#191E2B"/>
			<stop  offset="1" style="stop-color:#6DAB5E"/>
		</linearGradient>
		<path class="st8" d="M86.6,225.3c-44,0-79.8-35.8-79.8-79.8s35.8-79.8,79.8-79.8s79.8,35.8,79.8,79.8S130.6,225.3,86.6,225.3z
			 M86.6,68.8c-42.3,0-76.8,34.4-76.8,76.8s34.4,76.8,76.8,76.8s76.8-34.4,76.8-76.8S128.9,68.8,86.6,68.8z"/>
		<linearGradient id="SVGID_11_" gradientUnits="userSpaceOnUse" x1="-3.5949" y1="146.2694" x2="175.3234" y2="146.2694">
			<stop  offset="0" style="stop-color:#191E2B"/>
			<stop  offset="1" style="stop-color:#6DAB5E"/>
		</linearGradient>
		<path class="st9" d="M85.9,235.7c-49.3,0-89.5-40.1-89.5-89.5s40.1-89.5,89.5-89.5c49.3,0,89.5,40.1,89.5,89.5
			S135.2,235.7,85.9,235.7z M85.9,59.8c-47.7,0-86.5,38.8-86.5,86.5s38.8,86.5,86.5,86.5c47.7,0,86.5-38.8,86.5-86.5
			S133.5,59.8,85.9,59.8z"/>
		<linearGradient id="SVGID_12_" gradientUnits="userSpaceOnUse" x1="-14.0717" y1="146.2694" x2="185.8001" y2="146.2694">
			<stop  offset="0" style="stop-color:#191E2B"/>
			<stop  offset="1" style="stop-color:#6DAB5E"/>
		</linearGradient>
		<path class="st10" d="M85.9,246.2c-55.1,0-99.9-44.8-99.9-99.9s44.8-99.9,99.9-99.9s99.9,44.8,99.9,99.9S141,246.2,85.9,246.2z
			 M85.9,49.3c-53.5,0-96.9,43.5-96.9,96.9s43.5,96.9,96.9,96.9c53.5,0,96.9-43.5,96.9-96.9S139.3,49.3,85.9,49.3z"/>
		<linearGradient id="SVGID_13_" gradientUnits="userSpaceOnUse" x1="-24.3022" y1="146.2694" x2="196.0307" y2="146.2694">
			<stop  offset="0" style="stop-color:#191E2B"/>
			<stop  offset="1" style="stop-color:#6DAB5E"/>
		</linearGradient>
		<path class="st11" d="M85.9,256.4c-60.7,0-110.2-49.4-110.2-110.2S25.1,36.1,85.9,36.1c60.7,0,110.2,49.4,110.2,110.2
			S146.6,256.4,85.9,256.4z M85.9,39.1c-59.1,0-107.2,48.1-107.2,107.2S26.8,253.5,85.9,253.5s107.2-48.1,107.2-107.2
			S145,39.1,85.9,39.1z"/>
		<linearGradient id="SVGID_14_" gradientUnits="userSpaceOnUse" x1="-34.1521" y1="146.2692" x2="205.8809" y2="146.2692">
			<stop  offset="0" style="stop-color:#191E2B"/>
			<stop  offset="1" style="stop-color:#6DAB5E"/>
		</linearGradient>
		<path class="st12" d="M85.9,266.3c-66.2,0-120-53.8-120-120c0-66.2,53.8-120,120-120c66.2,0,120,53.8,120,120
			C205.9,212.4,152,266.3,85.9,266.3z M85.9,29.2c-64.5,0-117,52.5-117,117c0,64.5,52.5,117,117,117s117-52.5,117-117
			C202.9,81.7,150.4,29.2,85.9,29.2z"/>
		<linearGradient id="SVGID_15_" gradientUnits="userSpaceOnUse" x1="-44.6288" y1="145.5211" x2="217.854" y2="145.5211">
			<stop  offset="0" style="stop-color:#191E2B"/>
			<stop  offset="1" style="stop-color:#6DAB5E"/>
		</linearGradient>
		<path class="st13" d="M86.6,276.8c-72.4,0-131.2-58.9-131.2-131.2S14.2,14.3,86.6,14.3s131.2,58.9,131.2,131.2
			S159,276.8,86.6,276.8z M86.6,17.3c-70.7,0-128.2,57.5-128.2,128.2S15.9,273.7,86.6,273.7c70.7,0,128.2-57.5,128.2-128.2
			S157.3,17.3,86.6,17.3z"/>
		<linearGradient id="SVGID_16_" gradientUnits="userSpaceOnUse" x1="-55.355" y1="145.5211" x2="228.5802" y2="145.5211">
			<stop  offset="0" style="stop-color:#191E2B"/>
			<stop  offset="1" style="stop-color:#6DAB5E"/>
		</linearGradient>
		<path class="st14" d="M86.6,287.5c-78.3,0-142-63.7-142-142s63.7-142,142-142c78.3,0,142,63.7,142,142S164.9,287.5,86.6,287.5z
			 M86.6,6.5c-76.6,0-139,62.3-139,139s62.3,139,139,139s139-62.3,139-139S163.2,6.5,86.6,6.5z"/>
		<linearGradient id="SVGID_17_" gradientUnits="userSpaceOnUse" x1="-65.9597" y1="145.5211" x2="239.1849" y2="145.5211">
			<stop  offset="0" style="stop-color:#191E2B"/>
			<stop  offset="1" style="stop-color:#6DAB5E"/>
		</linearGradient>
		<path class="st15" d="M86.6,298.1C2.5,298.1-66,229.6-66,145.5S2.5-7.1,86.6-7.1c84.1,0,152.6,68.4,152.6,152.6
			S170.7,298.1,86.6,298.1z M86.6-4C4.1-4-62.9,63.1-62.9,145.5S4.1,295.1,86.6,295.1S236.2,228,236.2,145.5S169.1-4,86.6-4z"/>
		<linearGradient id="SVGID_18_" gradientUnits="userSpaceOnUse" x1="-77.8332" y1="146.5329" x2="249.0347" y2="146.5329">
			<stop  offset="0" style="stop-color:#191E2B"/>
			<stop  offset="1" style="stop-color:#6DAB5E"/>
		</linearGradient>
		<path class="st16" d="M85.6,310C41.9,310,0.9,293-30,262.1c-30.9-30.9-47.9-71.9-47.9-115.6c0-43.7,17-84.7,47.9-115.6
			C0.9,0.1,41.9-16.9,85.6-16.9c43.7,0,84.7,17,115.6,47.9C232,61.8,249,102.9,249,146.5c0,43.7-17,84.7-47.9,115.6
			C170.3,293,129.3,310,85.6,310z M85.6-13.9c-88.5,0-160.4,72-160.4,160.4s72,160.4,160.4,160.4c88.5,0,160.4-72,160.4-160.4
			S174.1-13.9,85.6-13.9z"/>
	</g>
	<path class="st0" d="M32.2,223.1c-0.5-1-0.4-2.1-0.3-3.1c0.3-4.5,0.9-9,1.8-13.5c0.9-4.5,2.1-9,3.7-13.3c1.4-3.7,3.3-7.1,6.8-9.2
		c2.5-1.5,5.2-2.3,8-2.6c4-0.5,8.1-0.6,12.2-1c4.7-0.5,9.5-0.5,14.1-1.4c8.1-1.5,14.3-5.4,17.5-13.4c1.6-4,2.7-8.2,3-12.5
		c0.1-1,0.5-1.8,0.7-2.8c0.5,1.8,0.4,3.7,0.2,5.5c-0.2,3.3-0.8,6.6-1.8,9.8c-2.4,7.9-7.4,13.3-15.5,15.7c-4.9,1.5-9.9,1.9-15,2.4
		c-3.2,0.3-6.5,0.4-9.7,0.7c-2.9,0.3-5.9,0.4-8.8,1.2c-4,1.1-6.5,3.6-8.3,7.1c-1.6,3.2-2.6,6.6-3.8,10c-1.8,5.2-3,10.5-4.2,15.9
		C32.5,220,32.4,221.5,32.2,223.1z"/>
	<path class="st0" d="M115.2,127.1c-0.2-0.1-0.4-0.1-0.5-0.2c-0.2-0.2,0-0.5,0.1-0.7c0.8-0.8,1.9-1.1,3-1.4c0.3-0.1,0.7,0.2,0.8,0.5
		c0.2,0.5-0.2,0.8-0.5,0.9C117.2,126.6,116.2,126.8,115.2,127.1z"/>
	<path class="st0" d="M109.4,127c-0.8-0.2-1.6-0.4-2.4-0.7c-0.4-0.1-0.6-0.5-0.6-0.9c0.1-0.4,0.5-0.5,0.8-0.4
		c0.8,0.2,1.7,0.3,2.5,0.8c0.3,0.2,0.6,0.4,0.5,0.8C110.2,127.2,109.8,127.1,109.4,127z"/>
	<path class="st0" d="M133.9,140.8c-2.1,1.7-4.3,3.3-6.5,4.8c-3.5,2.5-7,4.8-11,6.4c-2.7,1.1-5.3,1.2-7.9-0.6
		c-4.2-2.9-7.6-6.6-10.7-10.5c-3.6-4.5-6.9-9.2-9.5-14.3c-2.4-4.5-4.3-9.2-5.8-14.1c-0.9-3.2-1.7-6.4-2.4-9.6
		c-0.3-1.6-0.3-1.8,1.4-1.4c4.9,1,9.6,0.3,14-2c1.5-0.8,2.9-1.9,4-3.3C99.3,96,99.2,96,99.2,96c-0.2,0-0.5,0-0.7,0.1
		c-4.7,1-9.5,1.8-14.2,0c-1.8-0.7-3.8-1.2-5.2-2.3c-1-0.8-1.1-6.8-1.2-14.9c-0.2,1.5-0.4,2.9-0.4,4.3c-0.2,3.8-0.2,7.6,0.2,11.4
		c0.1,0.9-0.3,1.5-1.3,1.5c-1.1,0-2.3,0-3.4,0.1c-0.2,0-0.5-0.1-0.7,0.2c-0.2,0.4,0.2,0.5,0.4,0.6c1.6,1.1,3.2,2.2,4.8,3.2
		c0.5,0.3,0.7,0.5,0.8,1.1c0.6,4.2,1.6,8.4,2.7,12.5c0.7,3,1.9,5.9,3,8.7c1.2,3.3,3,6.5,4.9,9.6c4.6,7.4,9.9,14.3,16.9,19.7
		c3.7,2.9,7.5,3.9,12,1.6c4.8-2.4,8.9-5.5,13-8.8c1.6-1.2,3.1-2.5,4.5-4.2C134.5,140.3,134.2,140.6,133.9,140.8z M79.5,95.5
		c-0.2,0-0.3-0.1-0.4-0.3c-0.1-0.1-0.1-0.4,0.2-0.4c0.2,0,0.4,0.1,0.5,0.4C79.9,95.5,79.7,95.6,79.5,95.5z"/>
	<linearGradient id="SVGID_19_" gradientUnits="userSpaceOnUse" x1="100.7793" y1="137.0777" x2="123.8419" y2="137.0777">
		<stop  offset="0" style="stop-color:#191E2B"/>
		<stop  offset="1" style="stop-color:#6DAB5E"/>
	</linearGradient>
	<path class="st17" d="M123.2,134.5c-2.7,0.3-4.9-1-7.1-2.2c-0.8-0.4-1.5-0.5-2.2,0c-0.8,0.5-1.8,0.9-2.5,0.3
		c-1.4-1.1-2.5-0.5-3.6,0.2c-0.5,0.3-1,0.6-1.5,0.9c-1.6,1-3.5,0.9-5.5,1.3c1.1,1.2,2.1,2.3,3.1,3.4c6,6.6,15,4.3,19.8-3
		C124,134.8,124,134.4,123.2,134.5z M109.1,139.7c-0.5-0.1-1.2-0.2-1.3-0.9c0-0.5,0.6-0.8,1.1-0.7c0.6,0,1.1,0.3,1.2,0.9
		C110.2,139.6,109.6,139.7,109.1,139.7z"/>
</g>
<g>
	<path class="st0" d="M369.2,95.6l-50.9-30.8l-13.8,30.8h-9.2l-0.2-0.1l40.2-89.8h8.8L385,95.6H369.2z M371.5,86.7l-31.8-69.8
		c-5.9,13.3-11.9,26.5-17.8,39.8L371.5,86.7z"/>
	<path class="st0" d="M472.4,5.7h8.9v89.9h-8.9V5.7z"/>
	<path class="st0" d="M654.9,5.7l-35.7,89.9h-8.6L574,5.7h9.8l31.1,76.4l30.3-76.4H654.9z"/>
	<path class="st0" d="M810.2,95.6l-50.9-30.8l-13.8,30.8h-9.2l-0.2-0.1l40.2-89.8h8.8L826,95.6H810.2z M812.5,86.7l-31.8-69.8
		c-5.9,13.3-11.9,26.5-17.8,39.8L812.5,86.7z"/>
</g>
<linearGradient id="SVGID_20_" gradientUnits="userSpaceOnUse" x1="418.058" y1="150.3859" x2="729.4868" y2="150.3859">
	<stop  offset="0" style="stop-color:#191E2B"/>
	<stop  offset="1" style="stop-color:#6DAB5E"/>
</linearGradient>
<rect x="418.1" y="147.5" class="st18" width="311.4" height="5.8"/>
<g>
	<path class="st0" d="M389.4,210c-0.6,1.9-1.6,4.9-2.3,6.3c-1.1,0.3-4.6,1.1-7.5,1.1c-10.2,0-14.7-7-14.7-13.6
		c0-8.6,6.6-14.3,15.8-14.3c3.3,0,6.1,0.9,7.3,1.1c0.3,2.3,0.6,4,0.8,6.2l-1.2,0.3c-1.1-4.3-3.5-6.1-8-6.1c-6.8,0-10.5,5.8-10.5,12
		c0,7.7,4.5,12.9,10.7,12.9c4.2,0,6.4-2.3,8.4-6.4L389.4,210z"/>
	<path class="st0" d="M422.2,204c-0.2-1.3-0.5-2.2-0.8-2.9c-0.5-0.7-1.2-1-2.6-1h-1.8v12.7c0,2.3,0.2,2.6,3,2.9v1.1h-9.2v-1.1
		c2.8-0.2,3-0.6,3-2.9v-12.7h-2c-1.2,0-2,0.2-2.4,1.1c-0.4,0.7-0.6,1.5-1,2.9l-1.1-0.2c0.2-1.8,0.3-3.6,0.3-5.1h15.7
		c0,1.5,0,3.3,0,5.1L422.2,204z"/>
	<path class="st0" d="M461.5,199.9c-2,0.4-2.4,0.8-3.4,3.2c-1,2.2-2.3,5.6-4.6,11.7c-1.2,3-3,7.9-4.5,10.2c-1.1,1.7-2,2.3-2.6,2.3
		c-1.1,0-2.1-0.9-2.2-2.1c0-0.6,0.2-0.9,0.8-1c1.9-0.5,3.6-1.8,4.7-4c0.5-0.9,0.9-1.9,1.1-2.7c0.2-0.5,0-1-0.1-1.4
		c-1.8-5-3.8-10-5.2-13.6c-0.7-1.8-1.2-2.3-3.4-2.6v-1h8.6v1l-1.4,0.4c-0.9,0.2-0.9,0.6-0.5,1.8l4.1,10.6c1.1-2.6,3.2-8.6,3.8-10.7
		c0.4-1.2,0.1-1.5-1-1.8l-1.4-0.3v-1h7.4V199.9z"/>
	<path class="st0" d="M495.4,199.9c-2.7,0.2-2.9,0.5-2.9,2.7v10.7c0,1.8,0.2,2,1.4,2h1.6l-0.8,7.6h-1.2l-0.5-3.6
		c-0.3-2.1-0.6-2.6-2-2.6h-9.1c-1.4,0-1.8,0.6-2.3,3l-0.8,3.1h-1.2l0-7.6h1.5c0.5,0,0.7-0.2,1-0.7c0.4-0.8,0.9-2.4,1.4-4.3
		c0.6-2.7,0.9-6.3,0.9-8.4c0-1.3-0.4-1.6-2-1.8l-1.2-0.2v-1h16.3V199.9z M489.3,201.9c0-1.6-0.2-1.7-1.6-1.7h-2.3
		c-1.1,0-1.3,0.3-1.3,1.7c-0.1,4.8-0.9,9.9-1.8,12.7c-0.2,0.5,0,0.7,0.5,0.7h4.4c2,0,2.1-0.2,2.1-2.1V201.9z"/>
	<path class="st0" d="M534,199.8c-2.6,0.2-2.8,0.5-2.8,2.5v10.6c0,2.3,0.2,2.5,2.8,2.8v1.1h-8.3v-1.1c2.2-0.2,2.4-0.5,2.4-2.7v-5.8
		c0-1.1,0-2.6,0.2-5.7h-0.1l-7.4,13.7c-0.2,0.5-0.4,0.9-0.4,1.3v0.3H514v-1.1c2.5-0.2,2.7-0.6,2.7-3.1v-9.9c0-2.4-0.2-2.7-2.7-2.9
		v-1h8.5v1c-2.5,0.2-2.6,0.5-2.6,2.9v4.7c0,1.4,0,3.4-0.2,6.6h0.1l7.6-13.9c0.2-0.4,0.3-0.7,0.3-0.9v-0.3h6.4V199.8z"/>
	<path class="st0" d="M562,216.7v-1.1c2.3-0.2,2.5-0.5,2.5-3.1v-3.7h-1.4c-1.6,0-2.5,0.5-3,1.3c-0.7,0.9-1.2,2.4-2,3.9
		c-0.9,2-2,2.7-3.4,2.7h-3v-1.1c0.9-0.1,1.8-0.2,2.3-0.9c0.5-0.5,0.9-1.5,1.6-2.9c0.8-1.5,1.8-3,4.1-3.5v-0.1
		c-3.2-0.6-4.9-2.2-4.9-4.7c0-3.3,2.8-4.8,6.8-4.8h8.7v1c-2.4,0.2-2.6,0.4-2.6,3v9.8c0,2.6,0.2,2.9,2.7,3v1.1H562z M564.5,201.4
		c0-1-0.5-1.3-2.1-1.3c-2.6,0-4.2,1.3-4.2,3.8c0,1.4,0.6,2.3,1.5,2.9c0.9,0.6,2,0.8,3.6,0.8h1.2V201.4z"/>
	<path class="st0" d="M626.3,207c3,0.4,5.2,1.7,5.2,4.4c0,4.2-4.8,5.3-9.1,5.3h-8.1v-1.1c2.7-0.2,2.9-0.5,2.9-3.1v-9.8
		c0-2.5-0.2-2.8-2.7-3v-0.9h9.7c3.6,0,6.1,1.1,6.1,4C630.2,205.5,627.9,206.5,626.3,207L626.3,207z M622.5,206.5
		c2.5,0,4.3-0.9,4.3-3.2c0-2.3-1.7-3.2-4.1-3.2c-2.1,0-2.3,0.2-2.3,1.2v5.1H622.5z M620.4,212.6c0,2.5,0.8,2.8,2.7,2.8
		c2.5,0,4.7-1.3,4.7-3.9c0-2.7-2.1-3.8-5.1-3.8h-2.3V212.6z"/>
	<path class="st0" d="M668.9,207.5c0,6.6-4.8,9.8-8.9,9.8c-5.6,0-9-4.5-9-9.1c0-6.8,5.2-9.8,9-9.8
		C665.1,198.3,668.9,202.4,668.9,207.5z M654.8,206.9c0,5.2,2.3,9,5.6,9c2.5,0,4.6-1.9,4.6-7.5c0-4.8-1.9-8.7-5.5-8.7
		C657.1,199.7,654.8,202.2,654.8,206.9z"/>
	<path class="st0" d="M704.8,199.9c-2.7,0.3-2.8,0.6-2.8,2.9v9.8c0,2.5,0.2,2.9,2.8,3.1v1.1H696v-1.1c2.6-0.2,2.7-0.5,2.7-3.1V202
		c0-1.5-0.1-1.8-1.4-1.8h-2.2c-1.3,0-1.5,0.3-1.5,1.7c-0.2,8.2-2.3,12.3-3.5,14.1c-0.7,0.9-1.3,1.3-1.8,1.3c-0.8,0-1.4-0.2-1.8-0.3
		v-0.7c1.4-1.1,2.7-3.1,3.5-5c1-2.2,1.8-5.3,1.8-8.9c0-1.7-0.1-2.2-3.1-2.5v-1h16.1V199.9z"/>
	<path class="st0" d="M741.2,207.5c0,6.6-4.8,9.8-8.9,9.8c-5.6,0-9-4.5-9-9.1c0-6.8,5.2-9.8,9-9.8
		C737.3,198.3,741.2,202.4,741.2,207.5z M727.1,206.9c0,5.2,2.3,9,5.6,9c2.5,0,4.6-1.9,4.6-7.5c0-4.8-1.9-8.7-5.5-8.7
		C729.3,199.7,727.1,202.2,727.1,206.9z"/>
	<path class="st0" d="M775.8,213.1c-1.8,2.4-4.5,4.2-7,4.2c-5.2,0-8.2-4.2-8.2-8.6c0-3.2,1.4-5.9,4.1-8c2.1-1.6,4.6-2.3,6.2-2.3
		c1.6,0,3,0.5,3.6,1.1c0.5,0.5,0.7,0.8,0.7,1.3c0,0.9-0.9,1.8-1.4,1.8c-0.2,0-0.4-0.1-0.8-0.5c-1.2-1.1-2.7-1.7-4.1-1.7
		c-2.7,0-5.1,2.3-5.1,6.6c0,5.7,3.9,7.6,6.2,7.6c1.8,0,3.1-0.5,5-2.3L775.8,213.1z"/>
</g>
</svg>
