<?xml version="1.0" encoding="utf-8"?>
<!-- Generator: Adobe Illustrator 22.0.0, SVG Export Plug-In . SVG Version: 6.00 Build 0)  -->
<svg version="1.1" id="Layer_1" xmlns="http://www.w3.org/2000/svg" xmlns:xlink="http://www.w3.org/1999/xlink" x="0px" y="0px"
	 viewBox="0 0 48.161 25" style="enable-background:new 0 0 48.161 25;" xml:space="preserve">
<style type="text/css">
	.st0{fill-rule:evenodd;clip-rule:evenodd;fill:#A6AAAA;}
	.st1{fill-rule:evenodd;clip-rule:evenodd;fill:#F3792E;}
	.st2{fill-rule:evenodd;clip-rule:evenodd;fill:#F06022;}
	.st3{fill-rule:evenodd;clip-rule:evenodd;fill:#D95122;}
	.st4{fill-rule:evenodd;clip-rule:evenodd;fill:#F89A2C;}
	.st5{fill-rule:evenodd;clip-rule:evenodd;fill:#FFFFFF;}
	.st6{fill:#FFFFFF;}
	.st7{fill-rule:evenodd;clip-rule:evenodd;fill:#B4008D;}
	.st8{fill-rule:evenodd;clip-rule:evenodd;fill:#9DBC0A;}
	.st9{fill:none;stroke:#9DBC0A;stroke-width:0.1962;stroke-miterlimit:10;}
	.st10{fill-rule:evenodd;clip-rule:evenodd;fill:#DF3F17;}
	.st11{fill:none;stroke:#DF3F17;stroke-width:0.1962;stroke-miterlimit:10;}
	.st12{fill-rule:evenodd;clip-rule:evenodd;fill:#F5B208;}
	.st13{fill:none;stroke:#F5B208;stroke-width:0.1962;stroke-miterlimit:10;}
	.st14{fill:#9DBC0A;}
	.st15{fill:none;stroke:#9DBC0A;stroke-width:0.2023;stroke-miterlimit:10;}
	.st16{fill:none;stroke:#DF3F17;stroke-width:0.2023;stroke-miterlimit:10;}
	.st17{fill:none;stroke:#F5B208;stroke-width:0.2023;stroke-miterlimit:10;}
	.st18{fill-rule:evenodd;clip-rule:evenodd;fill:#85754E;}
	.st19{fill:#85754E;}
	.st20{fill-rule:evenodd;clip-rule:evenodd;fill:#1A171B;}
	.st21{fill:#016268;}
	.st22{fill:#00A9C2;}
	.st23{fill:#21427B;}
	.st24{fill:#FAE101;}
	.st25{fill-rule:evenodd;clip-rule:evenodd;fill:#32327F;}
	.st26{fill-rule:evenodd;clip-rule:evenodd;fill:#FCB813;}
	.st27{fill:#002169;}
	.st28{fill:#C6C7C8;}
	.st29{fill:#F79420;}
	.st30{fill:#FCB831;}
	.st31{fill:#FDDD2E;}
	.st32{fill:#F3C700;}
	.st33{fill:#DB6216;}
	.st34{fill:#EAA600;}
	.st35{fill:#E32427;}
	.st36{fill:#FFFFFF;stroke:#FFFFFF;stroke-width:0.1124;stroke-miterlimit:10;}
	.st37{fill:url(#SVGID_1_);}
	.st38{fill-rule:evenodd;clip-rule:evenodd;fill:#C1272D;}
	.st39{fill-rule:evenodd;clip-rule:evenodd;fill:url(#SVGID_2_);}
	.st40{fill-rule:evenodd;clip-rule:evenodd;fill:url(#SVGID_3_);}
	.st41{fill-rule:evenodd;clip-rule:evenodd;fill:url(#SVGID_4_);}
	.st42{fill-rule:evenodd;clip-rule:evenodd;fill:url(#SVGID_5_);}
	.st43{fill-rule:evenodd;clip-rule:evenodd;fill:url(#SVGID_6_);}
	.st44{fill-rule:evenodd;clip-rule:evenodd;fill:url(#SVGID_7_);}
	.st45{fill-rule:evenodd;clip-rule:evenodd;fill:url(#SVGID_8_);}
	.st46{fill:#006937;}
	.st47{fill:#929990;}
	.st48{fill:#FFFFFF;stroke:#FFFFFF;stroke-width:0.1949;stroke-miterlimit:10;}
	.st49{fill:#18428F;}
	.st50{fill:#EC1848;}
	.st51{fill:#29A151;}
	.st52{fill:#C1272D;}
	.st53{fill:#29ABE2;}
	.st54{fill:#F7BE3E;}
	.st55{fill:url(#SVGID_9_);}
	.st56{fill-rule:evenodd;clip-rule:evenodd;fill:none;}
	.st57{clip-path:url(#SVGID_11_);fill-rule:evenodd;clip-rule:evenodd;}
	.st58{fill:#EFAF1F;}
	.st59{fill:#EFB022;}
	.st60{fill:#0E0A08;}
	.st61{fill:#DA2A28;}
	.st62{fill:#F6F6F5;}
	.st63{fill:#C7B086;}
	.st64{fill:#F1F0EE;}
	.st65{fill-rule:evenodd;clip-rule:evenodd;fill:url(#SVGID_12_);}
	.st66{fill-rule:evenodd;clip-rule:evenodd;fill:#FAF9F9;}
	.st67{fill-rule:evenodd;clip-rule:evenodd;fill:#F8B132;}
	.st68{fill-rule:evenodd;clip-rule:evenodd;fill:#1A70B7;}
	.st69{fill-rule:evenodd;clip-rule:evenodd;fill:#36A834;}
	.st70{fill-rule:evenodd;clip-rule:evenodd;fill:#E2000F;}
	.st71{fill-rule:evenodd;clip-rule:evenodd;fill:#1A1A18;}
	.st72{fill:url(#SVGID_13_);}
	.st73{fill:url(#SVGID_14_);}
	.st74{fill:url(#SVGID_15_);}
	.st75{fill:url(#SVGID_16_);}
	.st76{fill:url(#SVGID_17_);}
	.st77{fill:url(#SVGID_18_);}
	.st78{fill:url(#SVGID_19_);}
	.st79{fill:url(#SVGID_20_);}
	.st80{fill:url(#SVGID_21_);}
	.st81{fill:url(#SVGID_22_);}
	.st82{fill:url(#SVGID_23_);}
	.st83{fill:url(#SVGID_24_);}
	.st84{fill:url(#SVGID_25_);}
	.st85{fill:url(#SVGID_26_);}
	.st86{fill:#00A85D;}
	.st87{fill:#FFFFFF;stroke:#FFFFFF;stroke-width:0.1;stroke-miterlimit:10;}
	.st88{fill:#9FD8F5;}
	.st89{fill:#274888;}
	.st90{fill:#267DBF;}
	.st91{fill:#2F91CF;}
	.st92{fill:#2955A0;}
	.st93{fill:#236EB3;}
	.st94{fill:#CFEBFA;}
	.st95{fill:#42B7E9;}
	.st96{fill:#3FAAE0;}
	.st97{fill:#ED171F;}
	.st98{opacity:0.25;fill:url(#SVGID_27_);}
	.st99{fill:#FFFFFF;stroke:#FFFFFF;stroke-width:1.0606;stroke-miterlimit:10;}
	.st100{fill:#FFAF10;}
	.st101{fill:#151416;}
	.st102{fill:#E57641;}
	.st103{fill:none;}
	.st104{fill:#1C191B;}
	.st105{fill:#19181A;}
	.st106{fill:#DD7340;}
	.st107{fill:#181617;}
	.st108{fill:#EA7944;}
	.st109{fill:#0C0E13;}
	.st110{fill:#181719;}
	.st111{fill:#F2F1F2;}
	.st112{fill:#F6F5F5;}
	.st113{fill:#BA673F;}
	.st114{fill:#4E362A;}
	.st115{fill:#6A6567;}
	.st116{fill:none;stroke:#EA7944;stroke-width:0.3013;stroke-linecap:round;stroke-miterlimit:10;}
	.st117{fill:none;stroke:#FF00FF;stroke-width:0.25;stroke-miterlimit:10;}
</style>
<g>
	<path class="st0" d="M26.376,10.19h3.094c0.637,0,1.158,0.521,1.158,1.158v1.601c0,0.637-0.521,1.158-1.158,1.158h-3.094
		c-0.637,0-1.158-0.521-1.158-1.158v-1.601C25.218,10.711,25.739,10.19,26.376,10.19z"/>
	<polygon class="st1" points="14.817,14.751 7.253,14.791 14.849,6.447 	"/>
	<path class="st2" d="M4.565,14.786c-0.023-0.13-0.051-0.256-0.085-0.376c-0.093-0.305-0.294-0.493-0.56-0.651
		c-0.035-0.021-0.073-0.039-0.113-0.052l0-0.001c-0.221-0.08-0.521-0.072-0.828-0.009c-0.484,0.1-1.022,0.333-1.492,0.402
		c-0.535,0.008-0.836-0.173-1.148-0.606c-0.429-0.778-0.478-1.994,0.005-2.717c0.31-0.464,0.637-0.635,1.238-0.576
		c0.469,0.046,0.98,0.328,1.445,0.423c0.316,0.064,0.532,0.005,0.722-0.086c0.2-0.096,0.354-0.242,0.509-0.524
		C4.306,9.928,4.346,9.833,4.38,9.73c0.231-1.49-0.159-2.709,0.304-5.089c0.001-0.006,0.03-0.089,0.033-0.095
		c0,0,3.057,0.456,4.522-0.017c0.322-0.104,0.505-0.283,0.628-0.49c0.134-0.224,0.192-0.487,0.117-0.851
		c-0.1-0.484-0.333-1.022-0.402-1.492C9.573,1.16,9.754,0.859,10.187,0.548c0.778-0.428,1.994-0.478,2.717,0.005
		c0.464,0.31,0.635,0.637,0.576,1.238c-0.046,0.469-0.328,0.98-0.423,1.445c-0.064,0.316-0.005,0.532,0.086,0.722
		c0.096,0.2,0.244,0.349,0.524,0.509c0.151,0.087,0.329,0.152,0.526,0.202L4.565,14.786z"/>
	<path class="st2" d="M14.845,20.175c-0.427,0.053-0.831,0.161-1.178,0.359c-0.279,0.159-0.429,0.31-0.524,0.509
		c-0.091,0.189-0.15,0.407-0.086,0.722c0.094,0.464,0.377,0.976,0.423,1.445c0.058,0.6-0.112,0.928-0.576,1.238
		c-0.723,0.483-1.939,0.434-2.717,0.005c-0.433-0.311-0.614-0.613-0.606-1.148c0.069-0.47,0.303-1.009,0.402-1.492
		c0.075-0.363,0.017-0.627-0.117-0.851c-0.123-0.206-0.307-0.386-0.628-0.49c-0.695-0.224-2.819-0.133-3.74-0.175
		c-0.305-0.029-0.652-0.156-0.89-0.515c-0.269-0.406,0.005-1.957,0.043-3.456l10.176-0.006L14.845,20.175z"/>
	<path class="st3" d="M19.195,16.298c0.025,1.372,0.146,1.641,0.132,2.543c-0.001,0.085-0.011,0.164-0.011,0.251
		c0,0.287-0.128,0.755-0.636,1.005c-0.351,0.172-0.97,0.141-1.685,0.094l-0.018-3.882L19.195,16.298z"/>
	<path class="st4" d="M19.316,5.682c-0.002,0.625-0.228,1.423-0.209,2.576c0.007,0.452,0.079,1.093,0.176,1.597
		c0.023,0.056,0.048,0.109,0.075,0.158c0.156,0.283,0.31,0.428,0.509,0.524c0.19,0.091,0.406,0.15,0.722,0.086
		c0.465-0.095,0.975-0.377,1.445-0.423c0.601-0.059,0.927,0.111,1.238,0.576c0.484,0.723,0.434,1.939,0.005,2.717
		c-0.311,0.433-0.613,0.614-1.148,0.606c-0.47-0.069-1.009-0.296-1.492-0.402c-0.575-0.126-1.031,0.095-1.297,0.534
		c-0.091,0.151-0.12,0.315-0.132,0.496l-2.242,0.012L16.919,4.705c0.488-0.051,0.943-0.114,1.305-0.156
		c0.169,0.031,0.333,0.068,0.456,0.128C19.188,4.927,19.316,5.394,19.316,5.682z"/>
	<path class="st5" d="M23.357,9.562L23.353,8.92l-1.185,0.006l-0.023-4.351l-0.79,0.004l0.027,4.993L23.357,9.562L23.357,9.562z
		 M25.001,9.553L24.975,4.56l-0.79,0.004l0.027,4.993L25.001,9.553L25.001,9.553z M28.327,9.536L28.3,4.542l-0.74,0.004l0.015,2.839
		l-1.157-2.833l-0.517,0.003l0.027,4.993l0.747-0.004l-0.015-2.839l1.114,2.833L28.327,9.536L28.327,9.536z M31.135,9.521
		l-0.003-0.642L30.04,8.885l-0.009-1.641l1.042-0.005l-0.003-0.642l-1.042,0.005L30.02,5.175l1.092-0.006l-0.003-0.642l-1.882,0.01
		l0.027,4.993L31.135,9.521L31.135,9.521z M34.206,8.991L34.2,7.714c-0.001-0.228-0.139-0.399-0.204-0.463l-1.199-1.271l-0.004-0.82
		l0.618-0.003l0.005,0.977l0.776-0.004l-0.006-1.098c-0.002-0.321-0.132-0.52-0.599-0.518L32.624,4.52
		C32.214,4.522,32,4.758,32.001,4.994l0.005,0.999c0.001,0.207,0.009,0.264,0.146,0.413l1.279,1.356l0.006,1.106L32.812,8.87
		l-0.006-1.213l-0.79,0.004l0.007,1.348c0.002,0.3,0.211,0.505,0.606,0.503l1.006-0.005C34.116,9.505,34.207,9.198,34.206,8.991z"/>
	<path class="st5" d="M23.076,20.813c1.242,0,2.17-0.451,2.17-1.574c0-0.791-0.451-1.455-1.319-1.54v-0.026
		c0.817-0.187,1.14-0.689,1.14-1.472c0-0.902-0.638-1.446-1.923-1.446h-1.744v6.058H23.076L23.076,20.813z M23.271,15.257
		c0.545,0,1.208,0.204,1.208,1.03c0,1.098-0.961,1.149-1.795,1.149h-0.698v-2.178H23.271L23.271,15.257z M22.761,17.937
		c0.817,0,1.88,0.085,1.88,1.242c0,0.91-0.783,1.132-1.608,1.132h-1.047v-2.374H22.761L22.761,17.937z M29.316,20.719v-4.382h-0.528
		V19.4c-0.247,0.46-0.757,0.961-1.455,0.961c-0.885,0-1.149-0.587-1.149-1.642v-2.383h-0.527v2.774c0,1.14,0.579,1.71,1.574,1.71
		c0.706,0,1.217-0.315,1.54-0.706h0.017v0.604H29.316L29.316,20.719z M30.945,20.821c0.791,0,1.515-0.4,1.515-1.268
		c0-0.698-0.723-0.979-1.344-1.285c-0.502-0.247-0.8-0.391-0.8-0.834c0-0.536,0.562-0.647,1.055-0.647
		c0.196,0,0.596,0.085,0.885,0.179v-0.485c-0.323-0.094-0.647-0.153-0.97-0.153c-0.876,0-1.515,0.459-1.515,1.14
		c0,0.664,0.536,0.97,1.123,1.251c0.425,0.204,1.021,0.391,1.021,0.902c0,0.621-0.664,0.74-1.106,0.74
		c-0.272,0-0.698-0.102-1.047-0.255v0.519C30.128,20.778,30.536,20.821,30.945,20.821L30.945,20.821z M33.475,15.52v-0.766h-0.528
		v0.766H33.475L33.475,15.52z M33.475,20.813v-4.476h-0.528v4.476H33.475L33.475,20.813z M37.291,20.813h0.528v-2.655
		c0-1.14-0.579-1.783-1.574-1.783c-0.706,0-1.217,0.362-1.54,0.753h-0.017v-0.792h-0.527v4.476h0.527v-2.97
		c0.247-0.459,0.757-1.008,1.455-1.008c0.885,0,1.149,0.66,1.149,1.715V20.813L37.291,20.813z M38.792,18.813h3.48v-0.264
		c0-1.251-0.63-2.174-1.957-2.174c-1.191,0-2.059,0.923-2.059,2.234c0,1.327,0.808,2.212,2.306,2.212
		c0.613,0,1.081-0.128,1.412-0.247v-0.536c-0.349,0.17-0.936,0.323-1.37,0.323C39.694,20.362,38.792,19.843,38.792,18.813
		L38.792,18.813z M40.306,16.835c0.859,0,1.429,0.617,1.429,1.536h-2.953C38.843,17.554,39.379,16.835,40.306,16.835L40.306,16.835z
		 M43.705,20.821c0.791,0,1.515-0.4,1.515-1.268c0-0.698-0.723-0.885-1.344-1.191c-0.502-0.247-0.8-0.485-0.8-0.928
		c0-0.536,0.562-0.647,1.055-0.647c0.196,0,0.596,0.085,0.885,0.179v-0.485c-0.323-0.094-0.647-0.153-0.97-0.153
		c-0.876,0-1.515,0.459-1.515,1.14c0,0.664,0.536,1.064,1.123,1.345c0.425,0.204,1.021,0.297,1.021,0.808
		c0,0.621-0.664,0.74-1.106,0.74c-0.272,0-0.698-0.102-1.047-0.255v0.519C42.888,20.778,43.296,20.821,43.705,20.821L43.705,20.821z
		 M46.652,20.821c0.791,0,1.515-0.4,1.515-1.268c0-0.698-0.723-0.885-1.344-1.191c-0.502-0.247-0.8-0.485-0.8-0.928
		c0-0.536,0.562-0.647,1.055-0.647c0.196,0,0.596,0.085,0.885,0.179v-0.485c-0.323-0.094-0.647-0.153-0.97-0.153
		c-0.876,0-1.515,0.459-1.515,1.14c0,0.664,0.536,1.064,1.123,1.345c0.425,0.204,1.021,0.297,1.021,0.808
		c0,0.621-0.664,0.74-1.106,0.74c-0.272,0-0.698-0.102-1.047-0.255v0.519C45.835,20.778,46.244,20.821,46.652,20.821z"/>
	<path class="st5" d="M27.413,11.665c0.032,0.005,0.059,0.019,0.078,0.043c0.02,0.024,0.027,0.05,0.022,0.08
		c0,0.005-0.005,0.039-0.015,0.101c-0.01,0.062-0.029,0.136-0.058,0.222c-0.029,0.086-0.07,0.176-0.125,0.271
		c-0.055,0.095-0.127,0.177-0.217,0.247c-0.005,0.007-0.01,0.011-0.015,0.011c-0.04,0.035-0.082,0.065-0.127,0.092
		c-0.045,0.026-0.092,0.048-0.142,0.065c-0.007,0.005-0.022,0.011-0.045,0.019c0.015,0.027,0.027,0.047,0.037,0.06
		c0.055,0.077,0.091,0.156,0.108,0.237c0.017,0.081,0.019,0.166,0.004,0.256c-0.017,0.095-0.042,0.184-0.075,0.267
		c-0.032,0.083-0.079,0.161-0.138,0.234c-0.027,0.035-0.058,0.065-0.092,0.092c-0.034,0.026-0.072,0.045-0.114,0.058
		c-0.142,0.042-0.265,0.012-0.37-0.09c-0.037-0.035-0.068-0.074-0.092-0.116c-0.024-0.042-0.044-0.087-0.062-0.135
		c-0.047-0.154-0.081-0.319-0.101-0.493c-0.02-0.292-0.019-0.579,0.004-0.863c0.022-0.284,0.072-0.567,0.15-0.848
		c0.035-0.12,0.074-0.234,0.116-0.342c0.042-0.108,0.093-0.216,0.153-0.323c0.03-0.06,0.065-0.117,0.105-0.172
		c0.04-0.055,0.085-0.105,0.135-0.149c0.057-0.062,0.127-0.107,0.209-0.135c0.13-0.05,0.249-0.027,0.359,0.067
		c0.12,0.11,0.168,0.248,0.146,0.415c-0.035,0.222-0.113,0.424-0.236,0.606c-0.179,0.277-0.381,0.531-0.606,0.762
		c-0.035,0.035-0.056,0.071-0.064,0.108c-0.007,0.037-0.009,0.076-0.004,0.116c0,0.015,0.006,0.031,0.017,0.047
		c0.011,0.016,0.024,0.027,0.039,0.032c0.03,0.02,0.062,0.036,0.097,0.049c0.035,0.012,0.07,0.021,0.105,0.026
		c0.052,0,0.11-0.009,0.172-0.028c0.062-0.019,0.125-0.053,0.187-0.103c0.057-0.042,0.105-0.093,0.144-0.153
		c0.039-0.06,0.07-0.121,0.095-0.183c0.005-0.007,0.007-0.016,0.007-0.024c0-0.009,0.001-0.017,0.004-0.024
		c0.01-0.037,0.019-0.074,0.026-0.108c0.008-0.035,0.016-0.07,0.026-0.105c0.002-0.015,0.006-0.029,0.011-0.041
		c0.005-0.013,0.01-0.025,0.015-0.037c0.005-0.032,0.018-0.059,0.039-0.08C27.35,11.672,27.378,11.663,27.413,11.665L27.413,11.665z
		 M26.426,11.818c-0.002,0.012-0.004,0.024-0.004,0.035c0,0.011-0.002,0.023-0.007,0.036c0.02-0.005,0.03-0.009,0.03-0.011
		c0.085-0.095,0.167-0.191,0.247-0.29c0.08-0.098,0.151-0.204,0.213-0.316c0.035-0.065,0.063-0.13,0.084-0.194
		c0.021-0.065,0.034-0.132,0.039-0.202c0.005-0.057-0.001-0.106-0.019-0.146c-0.017-0.057-0.042-0.088-0.073-0.093
		c-0.031-0.005-0.067,0.015-0.107,0.06c-0.035,0.04-0.065,0.084-0.09,0.133s-0.047,0.098-0.067,0.148
		c-0.052,0.137-0.1,0.275-0.142,0.415C26.489,11.532,26.454,11.674,26.426,11.818L26.426,11.818z M26.527,13.657
		c0.035-0.055,0.062-0.112,0.08-0.172c0.019-0.06,0.029-0.122,0.032-0.187c0-0.027-0.001-0.054-0.004-0.08
		c-0.002-0.026-0.009-0.05-0.019-0.073c-0.03-0.072-0.072-0.136-0.127-0.193c-0.055-0.056-0.118-0.111-0.191-0.166
		c-0.005,0.107-0.011,0.211-0.019,0.31c-0.007,0.1-0.005,0.198,0.007,0.295c0.015,0.09,0.034,0.179,0.056,0.269
		c0.005,0.017,0.012,0.035,0.022,0.052c0.01,0.017,0.026,0.029,0.049,0.034c0.022,0.002,0.041-0.004,0.054-0.019
		c0.014-0.015,0.028-0.03,0.043-0.045C26.517,13.679,26.522,13.67,26.527,13.657z"/>
	<path class="st5" d="M28.99,11.688c0.025,0.017,0.041,0.041,0.049,0.071c0.007,0.03,0.002,0.059-0.015,0.086
		c-0.002,0.005-0.02,0.03-0.052,0.075c-0.032,0.045-0.077,0.095-0.133,0.151c-0.056,0.056-0.122,0.11-0.198,0.163
		c-0.076,0.052-0.158,0.087-0.245,0.105c-0.005,0.008-0.011,0.019-0.019,0.034c-0.02,0.06-0.044,0.117-0.073,0.172
		c-0.029,0.055-0.064,0.105-0.107,0.15c-0.027,0.03-0.055,0.059-0.084,0.086c-0.029,0.027-0.06,0.052-0.095,0.075
		c-0.135,0.097-0.277,0.101-0.426,0.011c-0.177-0.105-0.268-0.263-0.273-0.475c0-0.04,0.003-0.079,0.008-0.118
		c0.005-0.039,0.01-0.078,0.015-0.118c0.005-0.045-0.002-0.078-0.022-0.101c-0.067-0.09-0.106-0.179-0.116-0.269
		c-0.01-0.09,0-0.174,0.03-0.252c0.03-0.079,0.075-0.148,0.135-0.208c0.06-0.06,0.126-0.103,0.198-0.131
		c0.12-0.047,0.239-0.06,0.359-0.037c0.008,0.002,0.016,0.004,0.024,0.004c0.009,0,0.017,0,0.024,0c0.037,0,0.071,0.006,0.101,0.019
		c0.03,0.012,0.056,0.035,0.078,0.067c0.005,0.01,0.012,0.017,0.022,0.022c0.105,0.08,0.178,0.173,0.219,0.28
		c0.041,0.107,0.065,0.223,0.073,0.348v0.135c0.02-0.01,0.037-0.018,0.05-0.024c0.014-0.006,0.027-0.013,0.039-0.021
		c0.037-0.02,0.072-0.044,0.103-0.071c0.031-0.027,0.06-0.055,0.088-0.082c0.017-0.022,0.034-0.043,0.049-0.062
		c0.015-0.019,0.027-0.035,0.037-0.05c0.017-0.025,0.041-0.041,0.071-0.049C28.934,11.665,28.963,11.67,28.99,11.688L28.99,11.688z
		 M28.06,11.493c-0.03,0.03-0.06,0.067-0.09,0.11c-0.03,0.044-0.057,0.09-0.08,0.138c-0.024,0.049-0.044,0.097-0.062,0.146
		c-0.017,0.049-0.03,0.094-0.037,0.136c0.027,0.012,0.061,0.024,0.101,0.034c0.04,0.01,0.08,0.017,0.121,0.022
		c0.041,0.005,0.08,0.007,0.118,0.007c0.037,0,0.067-0.004,0.09-0.011c0.017-0.055,0.026-0.113,0.024-0.174
		c-0.001-0.061-0.009-0.119-0.024-0.174c-0.015-0.055-0.036-0.103-0.064-0.146C28.129,11.541,28.097,11.511,28.06,11.493
		L28.06,11.493z M27.884,12.558c0.02-0.002,0.042-0.011,0.065-0.026c0.024-0.015,0.045-0.032,0.065-0.052
		c0.02-0.02,0.037-0.042,0.052-0.065c0.015-0.024,0.025-0.045,0.03-0.065c-0.057-0.005-0.114-0.011-0.17-0.017
		c-0.056-0.006-0.113-0.012-0.17-0.017c-0.01,0.042-0.011,0.083-0.004,0.121c0.007,0.039,0.029,0.072,0.064,0.099
		C27.839,12.554,27.862,12.561,27.884,12.558z"/>
	<path class="st5" d="M30.265,11.673c0.027,0.007,0.049,0.026,0.064,0.054c0.015,0.029,0.016,0.057,0.004,0.084
		c0,0.005-0.007,0.029-0.022,0.073c-0.015,0.044-0.036,0.1-0.062,0.17c-0.026,0.07-0.058,0.149-0.095,0.239
		c-0.037,0.09-0.078,0.182-0.123,0.277c-0.189,0.404-0.365,0.677-0.527,0.819c-0.017,0.017-0.036,0.034-0.054,0.05
		c-0.019,0.016-0.039,0.031-0.062,0.043c-0.045,0.027-0.09,0.045-0.136,0.052c-0.046,0.007-0.091,0.006-0.135-0.006
		c-0.044-0.011-0.084-0.032-0.121-0.062c-0.037-0.03-0.067-0.067-0.09-0.112c-0.022-0.045-0.039-0.092-0.049-0.14
		c-0.01-0.049-0.016-0.098-0.019-0.148c-0.012-0.314,0.059-0.609,0.213-0.886c0.017-0.03,0.034-0.061,0.05-0.093
		c0.016-0.032,0.034-0.066,0.054-0.101c-0.045-0.01-0.088-0.018-0.131-0.024c-0.042-0.006-0.085-0.013-0.127-0.021
		c-0.075-0.017-0.141-0.044-0.2-0.079c-0.059-0.035-0.107-0.077-0.144-0.127c-0.037-0.05-0.062-0.108-0.073-0.176
		c-0.011-0.067-0.004-0.141,0.021-0.221c0.027-0.087,0.068-0.163,0.121-0.226c0.054-0.064,0.125-0.111,0.215-0.144
		c0.025-0.012,0.053-0.02,0.084-0.022c0.031-0.002,0.06-0.004,0.088-0.004c0.062,0.002,0.113,0.023,0.153,0.062
		c0.04,0.039,0.064,0.089,0.071,0.151c0.005,0.035,0.006,0.071,0.002,0.108c-0.004,0.037-0.008,0.074-0.013,0.108
		c-0.007,0.045-0.018,0.088-0.032,0.131c-0.014,0.042-0.027,0.085-0.039,0.127c-0.005,0.005-0.008,0.012-0.009,0.021
		c-0.001,0.009-0.004,0.019-0.009,0.032c0.06,0.007,0.118,0.016,0.176,0.026c0.057,0.01,0.115,0.009,0.172-0.004
		c0.072-0.012,0.131,0.002,0.178,0.043c0.046,0.041,0.068,0.098,0.065,0.17c0,0.025-0.004,0.049-0.011,0.071
		c-0.007,0.022-0.014,0.045-0.019,0.067c-0.04,0.117-0.084,0.23-0.131,0.338c-0.047,0.108-0.101,0.216-0.161,0.323
		c-0.035,0.062-0.064,0.126-0.088,0.191c-0.024,0.065-0.044,0.131-0.062,0.198c-0.005,0.02-0.009,0.041-0.013,0.064
		c-0.004,0.022,0.001,0.047,0.013,0.075c0.02-0.012,0.038-0.024,0.054-0.036c0.016-0.011,0.032-0.023,0.047-0.035
		c0.047-0.04,0.092-0.084,0.133-0.131c0.041-0.047,0.077-0.1,0.106-0.157c0.042-0.075,0.083-0.15,0.123-0.226
		c0.04-0.076,0.08-0.154,0.12-0.234c0.005-0.007,0.015-0.03,0.03-0.067c0.015-0.037,0.033-0.082,0.054-0.133
		c0.021-0.051,0.044-0.105,0.067-0.161c0.024-0.056,0.045-0.108,0.065-0.157c0.02-0.049,0.036-0.089,0.049-0.121
		c0.012-0.032,0.019-0.049,0.019-0.049c0.012-0.027,0.032-0.049,0.06-0.064C30.206,11.661,30.235,11.66,30.265,11.673L30.265,11.673
		z M28.852,11.598c0.035-0.057,0.064-0.118,0.088-0.181c0.024-0.064,0.035-0.131,0.035-0.204c-0.012,0.002-0.021,0.003-0.024,0.002
		c-0.004-0.001-0.008-0.001-0.013,0.002c-0.025,0.01-0.048,0.026-0.069,0.049c-0.021,0.022-0.039,0.047-0.054,0.075
		c-0.015,0.027-0.027,0.056-0.036,0.086c-0.009,0.03-0.011,0.057-0.006,0.082C28.781,11.558,28.807,11.588,28.852,11.598z"/>
</g>
</svg>
