<?xml version="1.0" encoding="utf-8"?>
<!-- Generator: Adobe Illustrator 22.1.0, SVG Export Plug-In . SVG Version: 6.00 Build 0)  -->
<svg version="1.1" id="Слой_1" xmlns="http://www.w3.org/2000/svg" xmlns:xlink="http://www.w3.org/1999/xlink" x="0px" y="0px"
	 viewBox="0 0 1144.5 239.4" style="enable-background:new 0 0 1144.5 239.4;" xml:space="preserve">
<style type="text/css">
	.st0{fill:#FFFFFF;}
</style>
<g>
	<path class="st0" d="M224.2,104.4c0,0,5.3-59.7,5.8-65.5c0.8-9.4-6.8-26.5-25-26.5h-53.8v0h-32.4h-5.1H54.4
		c-18.2,0-27.1,12.4-28.2,24.2c-0.7,7-13.1,151.2-13.9,159.6c-1.3,13.4,7.9,28.5,24.7,28.5h63.3v0h26.4v0h60
		c19.9,0,27.6-10.5,29.3-26.7c1-9.7,5.9-68.4,5.9-68.4h-90.5l-3.9,45.4h-22.9l9.9-112.7h22.9l-3.6,42.2H224.2z"/>
	<path class="st0" d="M363.9,30.6c-3.2,9.3-29.6,91.7-29.6,91.7L346,12.4l-90.5,0l-19,212.3h68.2c17.1,0,23-9.7,25.8-17.5
		c3.4-9.3,28.5-78.6,28.5-78.6l-9.2,96.1h90.5l18.7-212.3c0,0-64.9,0-71,0C372.3,12.4,366.1,24,363.9,30.6"/>
	<path class="st0" d="M822.3,12.4l-8.5,96.8h-23l8.5-96.8h-90.5c0,0-8.7,102.5-9.6,112.4c-1.1,11.8,5.6,28.6,25.6,28.6H810
		l-1.9,21.5H694.9l-4.4,49.8h116.8h5.1h58.2c12.2,0,24-8,25.6-25c1-10.9,16.6-187.3,16.6-187.3H822.3z"/>
	<path class="st0" d="M1058.5,12.5L1058.5,12.5h-32.4v0h-90.5L917,224.7h90.5l5.7-65.7h32.4l-6,0h61.5c15.5,0,25.9-7.9,27.5-26.1
		c0.7-7.1,7.8-87.5,8.3-94.6c1.1-15.7-11.4-25.8-26.9-25.8H1058.5z M1017.1,114.9l4.6-52.7h22.7l-4.6,52.7H1017.1z"/>
	<path class="st0" d="M566.4,83.7l1.9-21.5h113.4l4.4-49.8H572.6h-5.1h-85.4l-18.6,212.3h34v0c0,0,135.7,0,146.6,0
		c11.5,0,23.9-6.8,25.5-24.5c1.2-13.3,6.8-76.4,7.8-87.9c1.3-15.3-8.4-28.5-27.4-28.5H566.4z M581,180.5h-23.1l4.6-52.7h23.1
		L581,180.5z"/>
</g>
</svg>
