<?xml version="1.0" encoding="utf-8"?>
<!-- Generator: Adobe Illustrator 22.1.0, SVG Export Plug-In . SVG Version: 6.00 Build 0)  -->
<svg version="1.1" id="Слой_1" xmlns="http://www.w3.org/2000/svg" xmlns:xlink="http://www.w3.org/1999/xlink" x="0px" y="0px"
	 viewBox="0 0 290 384.2" style="enable-background:new 0 0 290 384.2;" xml:space="preserve">
<style type="text/css">
	.st0{fill-rule:evenodd;clip-rule:evenodd;fill:#D6170D;}
	.st1{fill-rule:evenodd;clip-rule:evenodd;fill:#DE360D;}
	.st2{fill-rule:evenodd;clip-rule:evenodd;fill:#8C4517;}
	.st3{fill-rule:evenodd;clip-rule:evenodd;fill:#CFCCC7;}
	.st4{fill-rule:evenodd;clip-rule:evenodd;fill:#E54A0A;}
	.st5{fill-rule:evenodd;clip-rule:evenodd;fill:#876617;}
	.st6{fill-rule:evenodd;clip-rule:evenodd;fill:#A67812;}
	.st7{fill-rule:evenodd;clip-rule:evenodd;fill:#FFFFFF;}
	.st8{fill-rule:evenodd;clip-rule:evenodd;fill:#F5A308;}
	.st9{fill-rule:evenodd;clip-rule:evenodd;fill:#966912;}
	.st10{fill-rule:evenodd;clip-rule:evenodd;fill:#EBA605;}
	.st11{fill-rule:evenodd;clip-rule:evenodd;fill:#AB750A;}
	.st12{fill-rule:evenodd;clip-rule:evenodd;fill:#F7B508;}
	.st13{fill-rule:evenodd;clip-rule:evenodd;fill:#F5C40D;}
	.st14{fill-rule:evenodd;clip-rule:evenodd;fill:#F2BD0D;}
	.st15{fill-rule:evenodd;clip-rule:evenodd;fill:#E38700;}
	.st16{fill-rule:evenodd;clip-rule:evenodd;fill:#D9AB12;}
	.st17{fill-rule:evenodd;clip-rule:evenodd;fill:#855912;}
	.st18{fill-rule:evenodd;clip-rule:evenodd;fill:#FAC40A;}
	.st19{fill-rule:evenodd;clip-rule:evenodd;fill:#FCCC08;}
	.st20{fill-rule:evenodd;clip-rule:evenodd;fill:#E3B00F;}
	.st21{fill-rule:evenodd;clip-rule:evenodd;fill:#915C0F;}
	.st22{fill-rule:evenodd;clip-rule:evenodd;fill:#9E730D;}
	.st23{fill-rule:evenodd;clip-rule:evenodd;fill:#D18A0D;}
	.st24{fill-rule:evenodd;clip-rule:evenodd;fill:#D17D03;}
	.st25{fill-rule:evenodd;clip-rule:evenodd;fill:#C9960A;}
	.st26{fill-rule:evenodd;clip-rule:evenodd;fill:#FFD608;}
	.st27{fill-rule:evenodd;clip-rule:evenodd;fill:#C78A08;}
	.st28{fill-rule:evenodd;clip-rule:evenodd;fill:#E5570A;}
	.st29{fill-rule:evenodd;clip-rule:evenodd;fill:#BA870A;}
	.st30{fill-rule:evenodd;clip-rule:evenodd;fill:#F5B205;}
	.st31{fill-rule:evenodd;clip-rule:evenodd;fill:#785717;}
	.st32{fill-rule:evenodd;clip-rule:evenodd;fill:#F2A100;}
	.st33{fill-rule:evenodd;clip-rule:evenodd;fill:#EB9600;}
	.st34{fill-rule:evenodd;clip-rule:evenodd;fill:#F5AB03;}
	.st35{fill-rule:evenodd;clip-rule:evenodd;fill:#D6D9D9;}
</style>
<g>
	<path class="st0" d="M165,261.1l4.8,1c-1.4,2.5-6,1.5-9.8,1.4c-3.7,0-7.2-0.1-10.8,0.3l0.2,16.9c0.8,7.1,7.3,30.2-5.3,28.5
		c-10.3-1.4-4.2-21.5-3.3-28.9l-0.2-17.6c-4.1,1.3-10.1,0.9-14.9,0.3l0.1-10.3c3.9-0.4,7.9,0.2,11.4-0.2c9.3-0.9,2-7.8,13.8-0.3
		c2.8,1.8,1.7,1.1,4.2,3.6C158.6,259.5,160.3,259.5,165,261.1L165,261.1z M152.8,129.1c5.5,4.1,6,6.5,15.2,7.4
		c1.9,1.3,1.9-1.9,1.5,2.2l-20.3,0.3l0,16c0.6,7.3,7.5,29.6-4.3,29.5c-11.8-0.1-4.8-22.4-4.2-29.5l0-16.2l-15.2-0.3l0.1-10.7
		c3.9-0.4,8,0.2,11.5-0.2c8.4-0.8,3.4-7.5,11.8-1.4l3.2,2.4C152.2,128.4,152.6,128.9,152.8,129.1L152.8,129.1z M202,144.1
		c-1.1,3.1-8.7,14.2-11.1,15.8c2,4.9,3.7,2.8,1.2,6.1l-29.5,32.7c-1.7,2.2-2.2,3.5-4.2,5.3l7.6,0.1l17.1-0.2c3.9,1.2-4.5,3.8,22,5.2
		l3.7,1c0.2-0.3,0.5,0.4,0.8,0.6c-4.8,0.6-9.8,1.1-14.6,1.6c-16.8,1.6-6.7,2.8-11.9,4.3c-7.3-0.3-18.2-1.5-25,0.1
		c3.6,5.4,9.7,12.2,14,17.5c4.6,5.8,9,11.2,13.7,17.3c4.6,5.9,9.3,11.8,13.7,17.3c2.7,3.4,12.1,14.6,13.5,17.3
		c0.3,0.5,1.3-0.2,1.2,5c-7.5-1.6-6.1-3.4-10.1-7.9c-1.7-1.9-2.8-2.6-4.4-4.5L146,218.3c-5,3.8-27.1,30-33,36.8l-24.4,27.6
		c-4.7,4.9-5.1,6.6-9.4,7.9c-1.1-1.5-2.4,2.9-0.8-4.1c0.3-1.2,11.1-14.5,12.2-15.9l43.2-54c-3.8-3.4-47.7-0.3-53.4-2.7
		c-2.4-1-3.7-3.1-4.6-4.4c6.2-3.4,1.9-3.7,12.2-3.8c5-0.1,10.1-0.2,15-0.3c8.8-0.2,22.4-1.3,30.6-0.4c-1-3.8-11.3-13.2-14.3-17.2
		l-9.8-11.2c-16-17.3-10.7-10.9-8.6-16.3c-2.6-2.7-16.2-20.9-17-24.3c3.9,0.4,0.9-1,4.2,2c3.1,2.8,12.9,14.9,17.9,18.8
		c1.5-0.8,1.5-0.9,3-1.6c6.5,6.7,33.3,43,37,45.6l1.4-0.5c1.5-4.5,31.2-38.5,34.8-45.1c3.5,0.5,1.6,0.5,4.5,1.8
		c1.1-1.9,21-21.8,24.1-24.6C209,135.2,204,142.9,202,144.1L202,144.1z M83.9,136c-2.4-0.9,0.2,1.2-1.8-1c-0.7-0.8-0.6-1.6-0.7-2.4
		L83.9,136L83.9,136z M60,270.7c-1.8,8.4,6.8,22.2,10.4,25.9c17.1,17.7,62.4,16.9,73.7,34.6c0.1,0.2,0.4,0.9,0.5,0.7
		c0.1-0.2,0.3,0.5,0.5,0.7c1.8-2.4,2-3.9,4.6-6c4.4-3.7,12.9-6.7,18.5-8.5c15.5-5.2,41-10.7,51.5-21.4c3.5-3.6,12.1-17.2,10.2-25.1
		c-0.7-5.3,0.6-141.8,0-158l-169.6,0C58.1,135.6,61.9,258.1,60,270.7L60,270.7z"/>
	<path class="st1" d="M213.6,320.7c1.8-1.7,0.9-1.2,3.6-2.4c9.1-4.1,15.8-9.3,22.1-16.9l8.4-12.7c1-1.2,0.7-1,2.1-2
		c-2.3,7.1-9.5,15.6-14.8,20.3c-3.4,3,0.5,1.7-9,8C221.9,317.7,218.6,319.5,213.6,320.7L213.6,320.7z M76.4,320.7
		c-11.9-3-17.1-9.4-22.1-13.8c-3.6-3.1-12.4-15.7-14-20.1c2.8,1.5,5.7,7.6,7.5,10.5c3.5,5.5,7.9,9.3,12.5,13.5
		C67.3,317.1,73.1,317.4,76.4,320.7L76.4,320.7z M205.7,319c4-2.4,9.3-2.9,13.8-5.3c15-7.9,18.5-18.2,25.3-26.8c0.9-1.1,0.7-1,2-1.9
		c-6.8,14.4-13.4,18.1-16.2,21.7C225.6,313,212.3,319.2,205.7,319L205.7,319z M84.4,318.4c-8.8,2.9-24.5-10.4-30.1-16.5
		c-4.4-4.8-7.8-11-11-16.7c2.1,1.3,2.3,2,4.3,5.3C55.3,302.9,69.9,317.8,84.4,318.4L84.4,318.4z M37.5,101.9
		c-5.5,14.5-4.1,14.6,5.9,21.8c5.8,4.2,16.7,12.7,8.7,19.6c-2.3,2-12.8,7.3-14.4,3.8c-6.4,2.2-12.8,8.3-19.8,11.3v1.3
		c15.6,17,13.2,51.2,10.8,71.5c-1.1,0.5-2.6,0.2-5.2,2c0.6,36.3,1.3,28.9,10,57.3l-7.8,3.4c4,12.1,23.3,31.9,35.9,37.6
		c4.5,2,5.3,0.9,6.8,5c4.6,12.2-4.2,9.1,27.4,11.6l1.5,3.2c1.1-0.5,0.6-0.7,2.9-0.6c2,0.1,4.5,1.4,9.6,1.1
		c11.1-0.7,21.8-6.5,31.2-11.4c45-23.4,74.9-3.6,95.4-22.6c1.6-1.5,2.1-2.1,3.5-3.5c11.1-10.2,15.7-20.8,18.6-22.6
		c-1.5,4.9-8.8,13.3-11.3,16.8c-16.6,22.9-35.3,19.8-62.4,20.9c-42.5,1.7-57.4,30.2-87.3,22l4.6,15.7c33.8,0,34.8-11.9,68-21.3
		c8.5-2.4,44.8-4.6,49.8-2.7c2.8-15.9,0.7-3.1,23.7-22.3c6.5-5.4,15.6-16.3,20.4-25.7c-1-2.4,1.1-0.5-2.1-2.1
		c-2.6,7.4-8.4,13.2-12.1,18c-4.3,5.6-8.3,9.5-14.4,13.6c-3.6,2.4-8,4.9-12.5,6.7c2.5-3.7,4.4-2.5,11.6-7.6
		c3.5-2.5,12.7-10.6,15.3-13.7c4.2-4.9,7.7-12.2,11.6-16.7l-4.9-3.6c8.6-18.3,9.8-34.4,9.9-56.5c-1.1-0.8-0.6-0.5-2.4-1.1
		c-1.1-0.4-1.2-0.1-2.7-0.9c-2.4-20-4.9-54.4,10.7-71.4v-1.4c-6.8-3-13.2-8.9-19.6-11.3c-0.4,0.3,0.7,3.6-9.7-0.7
		c-2-0.8-5.6-3.4-6.5-4.6c-1.9-2.6-1.8-5.9-0.1-8.5c0.5-0.8,4.8-4.8,5.6-5.6c6.9-7.5,9.3-4.3,11.8-10.1c2.9-6.6,1.3-10.5-1.1-15.7
		c-7.5-5.5-19.6-12-32.2-10.7c-9.8,1-21.6,11.7-22.9,19.2c0.7,2.2-2.1,1,2.2,1.6c2.3-3.9,4.9-8.1,7.2-10.2c1.9-1.7,6.3-4.8,9.5-6.4
		c8.2-4.1,19-1.5,24.3,3.7c30.1,8.4-2.3,25.1-6.4,31.1c-8.2,11.9,5.6,18.1,16.5,20.2c-25.4,42.5-4.4,67.9-14.8,109.6
		c0.2,0.2,0.6,0.2,0.8,0.3l1.6,0.6c3.4,1.1,1.2-0.3,3.9,1.1c-1.4,8.2-3.3,13.7-7.1,20c-2.5,4.2-10,13.1-10.8,16.1l5.4,4.9
		c-6.3,8.5-18.2,9.9-29.5,15c-2.8,8.5,2,7.1-10,7.6c-22.6,0.8-22.6,2.7-42.4,9.2c-4.7,1.5-19.2-5.2-25.7-6.7
		c-10.6-2.4-20.9-1.3-30.8-3.1l-1.2-6.9c-11.7-5.7-22.5-6-29.5-15c1.5-2.8,2.6-2.4,5.3-5c-0.9-3.4-8.1-11.6-10.8-16
		c-3.3-5.5-6.1-12.4-7.1-20c2.5-1.3,0.8-0.2,3.1-0.9l2.4-0.8c0.1-0.3,0.6-0.2,0.8-0.3c-9.6-40.5,9.7-71.8-14.9-109.6
		c11-2.1,24.8-8.2,16.6-20.3c-3.6-5.2-36.6-22.7-6.5-31c5.4-5.2,16.3-7.8,24.4-3.8c3.1,1.5,8.5,5.2,10.1,6.8c2.1,2,4.6,6.1,6.7,9.7
		c4.3-0.6,1.4,0.7,2.2-1.6c-1.3-7.7-13.3-18.5-23.8-19.2C56.3,90.2,45.4,96.7,37.5,101.9L37.5,101.9z"/>
	<path class="st2" d="M177.6,107.7c3.8,1.2,2.4-1.7,3.3,3.3C177.7,110.6,178.6,111.8,177.6,107.7L177.6,107.7z M174.2,107.2
		c2.4,0.7,3.6,0.3,1.8,3.1C173.7,108.9,174.6,110.5,174.2,107.2L174.2,107.2z M112.2,107.7c4,1.3,2.3-0.6,2.6,3.2
		C109.9,109.1,113.3,109.4,112.2,107.7L112.2,107.7z M171,106.5c2.7,2,1.6-1.2,1.7,3.4C171,109.3,168.3,108.5,171,106.5L171,106.5z
		 M120,106c2.5,1.3,1.8,0.1,2.6,3.1C118,108.9,120.3,110.1,120,106L120,106z M117,106.9c1.6,1.2,2.3,0,1,3.3
		c-1.4-0.7-1.3,0.9-1.6-1.3C115.9,106.6,115.3,107.9,117,106.9L117,106.9z M166.3,106.4c3.3,0.3,1.8-0.7,2.7,3
		C164.5,107.9,167.2,109.7,166.3,106.4L166.3,106.4z M142.4,104.1c4.3,1.9,4.1-0.1,2.6,3.2C141.1,107.9,144,106,142.4,104.1
		L142.4,104.1z M138.4,104.1c3.2,1.4,3.7,0,2.7,3.4C136.2,106.6,140.4,106.1,138.4,104.1L138.4,104.1z M134.8,104.6
		c3.5,1.3,2.8-0.1,2.9,3.4C133.7,107.1,136.4,107.5,134.8,104.6L134.8,104.6z M131.4,105c3.2,1.2,1.9,0,2.7,3.2
		C128.8,107,132.3,108.9,131.4,105L131.4,105z M114.8,95.1c-3-0.7-2,0.9-2.7-3.1C115.6,93.2,114.4,91.8,114.8,95.1L114.8,95.1z
		 M103.3,92.3c0.1,5.8,1.1,3.5,1.8,8c3.8-0.4-2.2-0.3,1.8-0.1c0.1,0,0.6,0.5,0.7,0.2c0.1-0.2,0.4,0.3,0.6,0.4c0,0.1,2.7-0.6,0,2.4
		c-1.2,1.3-1,0.5-2.9,0.5c2.3,4,1.1,3.7,1.1,8.2c-5.3,0-10,1-13.6-1.6c-0.8,2.3,2.1,1-2.2,1.6c-6.2-0.7-0.1-2.5-12.5-11.7
		c2.3,2.1,3.4,2.5,5.6,5.3c6,7.6,1.7,6.3,1,6.6l-8.3,0c-5.4-2.4-3.2-7.6-12.4-11.7c3.8,2.5,7.2,5.8,8.8,11.5
		c-3.5-0.7-0.4,0.7-3.2-1.4c-0.2,2.4-0.1,1.5-10.9,1.5c-0.9,25.8-0.1,53.1-0.1,79.2l0,70c0,1.4,0,3.7,0.2,5l1.3,4.6
		c1.9-12.7-1.9-135.1,0.3-157.1l169.6,0c0.5,16.2-0.7,152.7,0,158l1.4-4.5c0.8-5.1,0.2-154.4,0.1-155.3l-11.3,0.1l1-3.1
		c-1.5,1.6,1.2-0.5-1.5,1.7c-1.6,1.3,0,0.8-2.4,1.3c1.9-5.9,4.8-8.7,8.8-11.5c-9,4.2-7.1,9.4-12.4,11.7l-8.2,0l-2.2-0.6
		c2.9-7.1,4.9-7.5,8.8-11.2c-9.6,7.6-8,10.6-12.5,11.8c-4.3-0.6-1.5,0.7-2.2-1.6c-3.7,2.5-8.4,1.5-13.7,1.6c0.1-4.3-1-4.3,1.1-8.2
		l-4.1-0.3l0.7-3.3c-2.3,1.5-1.4,0.4,0.1,4.6c0.9,2.4,0.2-2.8,1,2.7l-17.3-3c-0.3,1.3,0.4,2.7-1,4.6c-0.6-0.9-0.6-1-1.1-2.2
		l-0.7-2.5l-16.5-0.8l4.4-3.6c0.1-0.1,0.4-0.2,0.5-0.3c-4.2,1.1-6.5,2.9-11.9-0.1l-2.3-1.4c-0.2-0.4-0.5-0.4-0.8-0.5
		c2.4,3.4-0.4,0.7,3.7,2.8c1.3,0.7,0.9,0.3,2.3,1.1c2.7,1.7,0.4,0,2.3,1.9l-12.8,0.6l-23.4,3.3c0.7-5,0.2-1.3,1.1-3.6
		c0.9-2.3,0.3,2.1,1.1-2.8c-2.8-2.8-0.3,0.6-4.2-3.4c5.8-0.6,10.4-2.5,16.2-2.1c-3.4-6.4-2.3-2.6-3-2.5c-1.6,0.4,2.7,3.5-3.1-0.1
		c1.8-5,1.8,0.9,3.2-3c0.2-0.6,0.7-0.4,1.1-0.6l-2.5-0.3l-7,2.3c0,0.2,0,0.5,0,0.6l0.5,4l-2.8-0.7c-0.2,0-0.5,0-0.7,0
		c-2.4-0.2,1.8,2.1-2.7-0.2c1.1-2.9,0.1-0.2,1.8-1.4c5.4-3.8-0.7,3,2.5-1.8L103.3,92.3L103.3,92.3z"/>
	<path class="st3" d="M75.8,209.5c0.8,1.3,2.2,3.4,4.6,4.4c5.7,2.4,49.6-0.7,53.4,2.7l6.4-0.4c-1.1,2.3-45,53.8-46.1,55.1
		c-3.3,3.7-13.8,15.6-15,19.4c4.3-1.4,4.8-3,9.4-7.9l24.4-27.6c6-6.8,28-33.1,33-36.8l53.6,60.3c1.6,1.9,2.7,2.6,4.4,4.5
		c4,4.5,2.6,6.3,10.1,7.9c0.1-5.2-0.9-4.5-1.2-5c0.9,6.1,0.4,1.7-0.9,3.4c-1.6-3.3-56.2-68.1-60.3-73l6.3,0.1
		c6.8-1.6,17.7-0.5,25-0.1c5.3-1.5-4.8-2.7,11.9-4.3c4.8-0.5,9.8-0.9,14.6-1.6c-0.3-0.2-0.6-0.8-0.8-0.6l-3.7-1
		c-3.8,2.2-11,1.2-16,1C163.8,208.9,89.5,212.8,75.8,209.5L75.8,209.5z"/>
	<path class="st4" d="M102.2,367.1l1.2,5H116c4.2-1.8,9.9-2.5,14.6-4.3c22.5-8.6,7.2-8.4,27.3-0.6c4.9,1.9,11.2,2.8,15.4,4.9h13.3
		l7-24.1c4-0.4,20.5-0.7,23.1-1.5c4.3-1.3,0.8,0.5,3.3-3.4c-5-1.8-41.3,0.3-49.8,2.7C137,355.2,136.1,367.1,102.2,367.1L102.2,367.1
		z"/>
	<path class="st3" d="M133.6,205c6,0.2,28.6,0.6,32.3-1l-7.6-0.1c2-1.8,2.5-3,4.2-5.3L192,166c2.5-3.3,0.8-1.2-1.2-6.1
		c2.4-1.6,10-12.6,11.1-15.8c-4.5,2.8-9.2,10.6-11.5,12.6c-0.6,0.5-2,1.4-2.1,1.5c-1.3,1.2-0.2-0.1-1,1.2
		c-4.9,8-13.4,16.7-19.8,24.3c-2.2,2.7-4.5,5.4-6.8,8.2c-1.6,2-2.2,2.3-3.8,4.2c-1.3,1.6-1.6,2.4-3,4.1c-2.8,3.3-7.4,6.9-6.7,0.1
		l-1.4,0.5l1.2,3.4c-6.9,0.1-4.6,2.2-13.4-8.9l-20.2-23.7c-3-3.9-7.9-8.3-9.6-13l2-1.8c-4.9-3.9-14.8-16-17.9-18.8
		c-3.3-2.9-0.3-1.6-4.2-2c0.7,3.3,14.4,21.6,17,24.3c-2.1,5.4-7.4-1,8.6,16.3l9.8,11.2C122.3,191.8,132.7,201.3,133.6,205L133.6,205
		z"/>
	<path class="st5" d="M144.1,49.1c3.7,1.2,5.1,3.9-1,4.1C142.8,48.9,142.8,51.1,144.1,49.1L144.1,49.1z M145,48
		c-3.7,0.3-0.1,0.4-2.1-0.9c1.2-1.4,1.3-5.6,4,0C145.6,48,147.3,47.8,145,48L145,48z M149.6,22.3c-2.2-0.6-0.7-0.4-1.6-1.2
		c2.2-2.4,3.5-2.1,4,1C151.2,22.3,151.1,22.7,149.6,22.3L149.6,22.3z M141.5,21.1c-1.7,1.6-0.8,1.8-3.6,1l0.2-2.5L141.5,21.1
		L141.5,21.1z M144,14.2c3.7,0.7,2.2,1.6,1,3.9c-0.7-0.8-0.6,0.7-1.3-2.2C143.1,13.3,143.9,14.4,144,14.2L144,14.2z M139.7,32.7
		l3.2,1.8l1.1-3c4.6,0.9,3.4,3.8,2.5,8.3c3.6,8.1-0.9,1.8-1.5,5.3c-1.6-1.5-2.1-1.8-2.5-3.7c0-0.2,0.5-3.9,0.5-4.3
		c-3.2,2.2-3.7-3-3.1,4.3c0,0.2,0.2,0.6,0.2,0.8c0,0.2,0.2,1,0.3,0.8c0-0.2,0.2,0.6,0.2,0.9l-2.9-3.8l-0.1,10.8l-1.4-2.3
		c-4.3,3.1,2.2-0.4-0.9,0.1l-1.2,3.9c0.2,0.1,0.5,0.4,0.6,0.5l0.9,0.6c1.8,1-0.3,0.2,0.3,0c-2.9,4.6,3.1,11.6,0,16.2
		c-2.1-0.3-2.3,0.8-3.2-4.7l-2.2,2.6c-1,2-1-2.5-0.6,3.5c-2.2-0.4-4.3-1-4.9-2c-0.4-0.7-0.8-0.7-1.1-1l-0.5,2.4l-0.8,1.8
		c-0.4,3.6-0.3-3.9-0.1,2.7c3.3-0.3,3.6-1,5.6-2.4c1.1,4.1,0.1,1.7,2.4,4.4c-2.8,2.4-1.7,0-2.5,4.8c-0.6-0.6-0.2-0.8-1.1-1
		c-2.7-0.6-0.4-0.2-1.3,0.2l1.1,3.6c0,0.1,0.1,0.4,0.2,0.6c7.6,2.1,10.8,0.9,15-3.2c-0.4-3.6,0.9-3-3.1-4c4.3-1.6,3.7-0.1,6.1,2.9
		c2.7-3,1.1-4,5.9-3.1c-3.7,1.3-2.5,0.6-3,4.2c3.8,3.5,9.1,6.2,14.5,3.4c1.6-0.8,1.2-0.8,1.8-1.4c-0.9-1.2-0.6-0.5-1.4-1.9
		c-2-3.4,0.3-1-3.7-5.8c3.6-1.6,1.3-0.8,2.5-2.3l-2.6,0.3c-0.3,0.1-1.4,1.3-1.6,1.6c0.4-4.7,1.5-4.3,1.6-4c-4-5.5,0.9-1.3-1.2-0.8
		l-0.9,1.8c-1.5-2.1-3.2,2.8-0.7-2.9l-3.4-1.1l1.2-4.8c-1.4-3.6,1.2-2.1-2-2c-1.2,2.5-0.2,3.2-1.5,5.2l-0.5,3.6
		c2.3-1.2,0.4-0.8,0.3-0.8c-4.6,3-1.1,1.3-1.2,1.8c4.2,3,5.7-0.9,5.8-1.1l1.9,6.1c-2.2,1-0.6,0-1.9,1.9c-0.2,0.2-0.7,1.9-0.9,2.2
		c-5.2-3.7,2.3-3.8-7-7.4l0.7-4.8l-5.1-0.5L143,74c-9.9,3.3-0.8,3.4-7,7.3c-1.1-1.8-0.1-0.5-1.3-2.8l-1.4-2.8
		c-0.1-0.4-0.3-0.5-0.3-0.7c1.8-2,1.2-0.8,2-4.2L136,72c0.5,0.3,0.2,0.4,1.3,0.8c2.2,0.8-0.3,1,3.3-0.2c1.2-5.8,0-1.1-1.1-5.3
		c-3.1-2.4-2.5,2.5-2.5-2.3c5.1-2.2-0.1-0.6,0.6-5.7c0-0.2,0.1-0.5,0.2-0.6l0.3-1.3c0-0.2,0.1-0.5,0.1-0.7c0.9-3.9-0.4-2.1,2.7-4.7
		c-0.1,0.4-0.3,0.7-0.3,1.1l-0.2,2.1c0.3,1.6,1.4,2.8,2.5,3.9l-0.1-2c1.7-3-1.2-1.2,2.1-2.9c1.2,1.5,1.4,1.4,1.9,3.9
		c2.1,1.7,2.3,0.6,2.3,0.6c0.1,0,0.2-0.3,0.3-0.4l-1.5-6.2c4.2,1.6,1.5,0.1,2.8,1.6c1.2,1.3,0.3,2.5,0.2,4.4
		c3.1-3.5,2.2-5.5,2.3-7.1c-1.7-2.5-1.4-10.8-2.4-14.6c-1-4.1-1.8-7.2-3.2-12.4l6.1,1.4l0-8.1l-6,1.1l1-6.3h-7.5l0.9,6.3l-5.9-1.3
		l-0.2,8l6.2-1.1L139.7,32.7L139.7,32.7z"/>
	<path class="st6" d="M159.3,55.5l-3,14.7c-2.4,5.8-0.8,0.8,0.7,2.9l0.9-1.8c2.1-0.5-2.7-4.7,1.2,0.8c-0.1-0.3-1.2-0.7-1.6,4
		c0.2-0.3,1.3-1.5,1.6-1.6l2.6-0.3L162,73c2.9,3.9,5,2.1,5.5-1.1c0.8-4.7,0.9-0.4-0.5-1.8c2.9-1.1,2.7-2,5.4-2.4
		c0.1,0.1,0.3,0.1,0.4,0.3c0,0.2,0.3,0.3,0.4,0.3c1.7,2.3,1.3,0.2,1,2.4c0.9-0.1,2.1-0.4,2.4-0.5l3.5-2.5c-2.9,8-0.3,5.5,3,7.3
		c2.3-3.8,1.2,2.5,2-5c-3.5,3.4,0.2,1.2,1,2c2.4-4.7,0-3,4-5c-0.8,4.3-1.1,3.8-4,6c4.2,4.1-1.5,1,2.7,1.8c0.8,0.2,1.6-0.4,2.1-1.3
		l0.7-3.5c3.9-1.3,2.7,1.5,4.1-2.8c-2.1-4.4-0.4-2.3-1-6.3c-0.4-2.6-1.1-2.6-2.5-4.9c-2.9-4.8-0.9-9-8.3-8.5l-2.6,0.3
		c-1.5-1.9-0.9-2.4-1.3-3.7c-0.9,0.8-1.8,5.4-1.9,5.1c0-0.1,0,0.6-0.1,0.9c-1.6-1.8-1.7-1.2-1.9-3.2c-0.2-3.3-1-0.9,1.8-2.1
		c-2.4-0.2-2.1-0.3-3.7,0.3l-1.5,1.7c-0.2,0.2-1.3,0-1.3,3.2c0,0.2,0,0.5,0.1,0.7c0,0.2,0.1,0.4,0.2,0.6c0.5,2.6-1.3,5-2.7,7
		c-3.4-4-1.9,2.5,0.1-1.2l1.9-2c-6.2,1.1-2,0.7-6-3l-2.9,2.7C161.6,55.1,160,55.4,159.3,55.5L159.3,55.5z"/>
	<path class="st7" d="M133.6,205c-8.2-0.9-21.8,0.2-30.6,0.4c-5,0.1-10,0.2-15,0.3c-10.3,0.1-6,0.3-12.2,3.8
		c13.8,3.3,88.1-0.5,113.2,0.6c5.1,0.2,12.2,1.2,16-1c-26.6-1.4-18.2-4-22-5.2l-17.1,0.2C162.3,205.7,139.6,205.2,133.6,205
		L133.6,205z"/>
	<path class="st8" d="M241,142.8c-6.9-11.2,17.8-14.5,19.2-30.1c6.8,12.1-3.9,17.1-13.4,23.2C240.9,139.8,244,140.5,241,142.8
		L241,142.8z M252.4,147.1l-5.4-1c0.6-4.4,6.3-7.7,10-9.9c4.4-2.7,8.8-4.7,10.4-9.7c4-12.5-10.1-19.9-15-24.5
		c2.4,5.2,4,9.1,1.1,15.7c-2.5,5.8-5,2.6-11.8,10.1c-0.7,0.8-5,4.8-5.6,5.6c-1.7,2.6-1.7,5.8,0.1,8.5c0.8,1.2,4.5,3.8,6.5,4.6
		C253.1,150.7,252,147.4,252.4,147.1L252.4,147.1z"/>
	<path class="st9" d="M143.1,62.6c1.4-3.8,2-4.7,3.5-0.5L143.1,62.6L143.1,62.6z M153.3,51c-0.1,1.6,0.8,3.6-2.3,7.1
		c0.1-1.9,1-3.1-0.2-4.4c-1.3-1.4,1.4,0.1-2.8-1.6l1.5,6.2c0,0.1-0.2,0.3-0.3,0.4c0,0-0.3,1.1-2.3-0.6l-2.9,0.3
		c-1.5-1.5-0.8,2.5-1.1-1.3l0.1,2c-1.1-1-2.3-2.3-2.5-3.9l0.2-2.1c0-0.3,0.2-0.7,0.3-1.1c-3.1,2.7-1.8,0.8-2.7,4.7
		c0,0.2-0.1,0.5-0.1,0.7l-0.3,1.3c0,0.2-0.1,0.5-0.2,0.6c-0.7,5,4.5,3.4-0.6,5.7c0,4.8-0.6-0.1,2.5,2.3c4.3-1.8,3-0.5,5.5-3.7
		c2.4,3,1.5,2,5.5,3.8c1.2-2,0.2-2.7,1.5-5.2c3.2-0.1,0.6-1.5,2,2c0.3-6.9,3.7-16.4,4.6-22.4c1.6,3.6,1.2,9,0.6,13.6
		c0.7-0.1,2.3-0.4,2.9-0.7l2.9-2.7c3.9,3.7-0.2,4.1,6,3l-1.9,2c-2,3.8-3.6-2.8-0.1,1.2c1.4-2,3.2-4.4,2.7-7c0-0.1-0.2-0.4-0.2-0.6
		c0-0.2-0.1-0.5-0.1-0.7c0-3.2,1-3.1,1.3-3.2l1.5-1.7c1.6-0.6,1.3-0.5,3.7-0.3c-2.8,1.2-2-1.2-1.8,2.1c0.1,2,0.3,1.5,1.9,3.2
		c0.1-0.3,0.1-1.1,0.1-0.9c0.1,0.3,1-4.2,1.9-5.1c0.3,1.4-0.2,1.8,1.3,3.7l2.6-0.3l-1.6-3.9c-3.1-0.5-11.5-4.1-12.7-5.1
		C156.9,27.7,152.9,44.9,153.3,51L153.3,51z"/>
	<path class="st10" d="M115.8,70.4c-0.4,0.4-1.3,1.5-1.6,1.5l2.7,2.4c0.9-2.4,1.1-2,4.1-2c0.8,9.3-0.3-0.9-2,5.8l2.7,4
		c-3.3,1.2-0.8-1.9-3.4,2.2c-1.4,2.2-0.9,2.7-4.1,4.2c-4.5,2.2-9.2,1.6-13.4,0.3l1.3-4.3l1.6-0.2c2.5,0.3,2.2,0.8,3.2,1.9l0.8-7
		c-3.4-1.9-1.2,2.7-3.7-2.7c-0.2,0.1-0.3,0.4-0.4,0.5c-1.7,1.9-1.6,2.2-3.6,2.5c-2.2-2.8-0.7-0.4-1.4-2.6c-0.1-0.2-0.1-0.5-0.2-0.6
		L98,74.3c-7.3,0.8,0-1.6-6.7-1.1c-1.2,1-1.2-0.1-1.9,2.9c5,4.2,0.8-0.3,4.2,1c1.1,2.6-0.4,10.8,9.6,15.2l5.7-0.3
		c-3.1,4.8,2.9-2-2.5,1.8c-1.6,1.2-0.7-1.5-1.8,1.4c4.5,2.3,0.3,0,2.7,0.2c0.2,0,0.5,0,0.7,0l2.8,0.7l-0.5-4c0-0.1,0-0.4,0-0.6
		l7-2.3c0,0-0.1-3.5,2.5-4.4c1.3-0.4-1.8-1.6,2.4,0.2c7.2,3.1-1.5-1.9,2.5,2.1c5.8,1.7,11.1,1.6,16.3-1.1c2.1-3-2.7-1,2.9-2.4
		c1.4-0.3,4.6-0.3,5.6,1.6l0.8,1.6c11.7,1.6,9.3,1.6,19.1-2.1c1.8,5.7,5.9,4.2,10.7,7l6.4,0.3c4.1-1.4,2.5-0.4,4-3.4l-1.3-4.7
		c-2.9,5.2,0.5-5-0.6,2.3c-0.3,1.8,0,4.7-7.8,4c-5.1-0.5-9.4-2.4-9.9-7.2l-1-0.2c-2.1-0.7-1.4,0.2-2.8-2c-1.6,3.3-0.7,2.3-3.1,3.4
		c-0.6,0.6-0.1,0.6-1.8,1.4c-5.4,2.7-10.7,0-14.5-3.4c0.5-3.7-0.7-2.9,3-4.2c-4.9-0.9-3.2,0.1-5.9,3.1c-2.4-3-1.7-4.5-6.1-2.9
		c3.9,1,2.7,0.5,3.1,4c-4.2,4-7.4,5.3-15,3.2c-0.1-0.2-0.2-0.5-0.2-0.6l-1.1-3.6c0.9-0.4-1.4-0.9,1.3-0.2c0.9,0.2,0.5,0.3,1.1,1
		c0.8-4.8-0.4-2.4,2.5-4.8c-2.3-2.7-1.3-0.4-2.4-4.4c-2,1.4-2.3,2.1-5.6,2.4c-0.3-6.6-0.4,0.9,0.1-2.7l0.8-1.8
		c-2.5-2.4-2.8-2.7-6.2-3.1C117.1,73.6,116.9,69.9,115.8,70.4L115.8,70.4z"/>
	<path class="st7" d="M147.3,200.3c-0.6,6.9,3.9,3.2,6.7-0.1c1.4-1.6,1.7-2.5,3-4.1c1.5-1.9,2.2-2.2,3.8-4.2
		c2.2-2.8,4.6-5.6,6.8-8.2c6.3-7.6,14.8-16.3,19.8-24.3c0.8-1.3-0.3,0,1-1.2c0.1-0.1,1.5-1,2.1-1.5c2.3-2,7-9.7,11.5-12.6
		c2-1.2,7-8.9,8.9-11.7c-3.1,2.9-23,22.7-24.1,24.6c-2.9-1.4-1-1.3-4.5-1.8C178.6,161.7,148.8,195.8,147.3,200.3L147.3,200.3z"/>
	<path class="st11" d="M106.2,47.6c-7.3,0-5.1,3.3-8.2,8.5c-2.5,4.3-1.8,1.3-2.4,7c-0.2,1.9-1.1,5.4-1.2,5.7c3.2,1.2,2.7-3,2.6,1.3
		c1-2,0.7-2.4,2.1-3.3l1.1-0.5c0.1,0,0.4,0,0.6-0.1c-0.3-0.5-2.8-2.9-1.8-6c0.2,0,0.6-0.1,0.7,0.2c0.1,0.3,0.5,0.2,0.6,0.2
		c6.8,4.7-4.1-2.1,2.4,2.4c3.2,2.2,0.6,0.5,1,0.1c0,0.3-0.7,2.6-0.6,2.9l1.2,2.3c0.1,0.2,0.4,0.6,0.7,0.8c0.3-7.5,0-3.5,3-4.2
		c5.7,5.7,4.9-0.5,4,5.2l3.8,0.3c1.1-0.5,1.3,3.2,1.5-3c0.2-0.3,0.3-0.6,0.5-0.8l1.6-2.6c0.1-0.5,0.4-0.6,0.6-0.9l-1.2-1.2
		c0,0-0.3-0.3-0.3-0.3l0.5,0.4c0-0.7-2.2-5.9,4-1l-1.3-3.7c-2.3,0.8-1.4,1.9-2.9-1.6c-3.5-8,1.5-2.8,3.2-10.7l-3,2.8
		c-1.6,0.6-1.6-1.1-1.9-1.6l-0.5-1.2c-2.2-3.1,1.6-0.3-2.6-2.1l-0.7,2.8c-0.6,3.9,2.4-1.4-0.3,3.2l-0.1-3.2c-3,1.6-1-0.3-3,2.7
		L106.2,47.6L106.2,47.6z"/>
	<path class="st12" d="M28.8,112.6c0.8,1,0.6,0.6,1.4,2.1l3.4,6.8c4.2,6.3,22.2,12.9,15.4,21.5c-3.3-2.8,0.1-2.8-6-6.8
		c-2.6-1.7-6.4-4.1-8.4-5.6C27.6,125.4,27,122.6,28.8,112.6L28.8,112.6z M24.7,114.6l-1.2,4.5c6.7,6.7,0.1,6.4,9.2,12.2L38,136
		c-6.5-2.6-1.8-1-9-5c-2.2-1.2-1.9-0.9-2.9-3c-1.4-2.9,0.2-1.9-3-4.9l2.2,6.3c0.3,2-0.3,1,1.6,2.7c0.2,0.1,2.2,1.5,2.4,1.6
		c2,1.3,2.7,1.8,4.9,3.1c3.2,2,7.2,4.8,8.8,8.2c-0.2,0.2-0.5,0.4-0.6,0.4l-2.1,1c-0.7,0.3-1.8,0.4-2.6,0.5
		c1.5,3.5,12.1-1.9,14.4-3.8c8-6.8-2.9-15.3-8.7-19.6c-10-7.2-11.4-7.3-5.9-21.8C32.2,106.3,27.7,108.3,24.7,114.6L24.7,114.6z"/>
	<path class="st7" d="M106,156.8l-2,1.8c1.6,4.6,6.6,9.1,9.6,13l20.2,23.7c8.8,11.2,6.6,9,13.4,8.9l-1.2-3.4
		c-3.7-2.6-30.4-38.9-37-45.6C107.5,155.9,107.4,156,106,156.8L106,156.8z"/>
	<path class="st9" d="M116.9,74.2l1.2,3.2l-4.6,1.5l0.7,5.7c-1.4-1.3,1-0.2-3.9-4.5c0.5-1.5,1-2.7,1.6-4.9
		C113.6,77.6,115.3,77.7,116.9,74.2L116.9,74.2z M94.4,68.8l0.4,3.5l-3.5,0.8c6.7-0.5-0.6,1.9,6.7,1.1l0.4,2.1
		c0,0.1,0.1,0.5,0.2,0.6c0.7,2.2-0.7-0.3,1.4,2.6c2-0.3,1.9-0.6,3.6-2.5c0.1-0.1,0.2-0.4,0.4-0.5c2.5,5.3,0.4,0.7,3.7,2.7l-0.8,7
		c-1-1.1-0.7-1.6-3.2-1.9l-1.6,0.2l-1.3,4.3c4.2,1.3,8.8,1.9,13.4-0.3c3.1-1.5,2.6-2,4.1-4.2c2.7-4.1,0.2-1,3.4-2.2l-2.7-4
		c1.7-6.7,2.7,3.5,2-5.8c-3-0.1-3.2-0.4-4.1,2l-2.7-2.4c0.3,0,1.1-1.1,1.6-1.5l-3.8-0.3c0.9-5.7,1.7,0.5-4-5.2c-3,0.8-2.7-3.3-3,4.2
		c-0.3-0.2-0.6-0.6-0.7-0.8l-1.2-2.3c-0.1-0.3,0.6-2.5,0.6-2.9c-0.4,0.4,2.2,2.1-1-0.1c-6.5-4.5,4.4,2.3-2.4-2.4
		c-0.1-0.1-0.5,0-0.6-0.2c-0.1-0.3-0.4-0.2-0.7-0.2c-1,3.1,1.5,5.5,1.8,6c-0.2,0.1-0.5,0.1-0.6,0.1l-1.1,0.5c-1.5,1-1.1,1.3-2.1,3.3
		C97.1,65.8,97.6,69.9,94.4,68.8L94.4,68.8z"/>
	<path class="st7" d="M79.1,290.6c1.2-3.8,11.7-15.6,15-19.4c1.1-1.3,44.9-52.8,46.1-55.1l-6.4,0.4l-43.2,54
		c-1.1,1.4-12,14.7-12.2,15.9C76.7,293.5,78,289.1,79.1,290.6L79.1,290.6z"/>
	<path class="st13" d="M140.6,262.8c4.7-1.1,9.4-0.7,14.4-0.7c3.5,0,11.4-1.1,13,1c-6.2,0-0.5,0.4-3-2c-4.7-1.6-6.4-1.6-9.9-5.1
		c-2.5-2.5-1.3-1.8-4.2-3.6c-11.8-7.6-4.5-0.6-13.8,0.3c-3.5,0.3-7.5-0.3-11.4,0.2l-0.1,10.3C130.5,263.7,136.5,264.1,140.6,262.8
		L140.6,262.8z"/>
	<path class="st7" d="M212.9,286c-1.4-2.7-10.8-14-13.5-17.3c-4.4-5.6-9-11.4-13.7-17.3c-4.8-6.1-9.1-11.5-13.7-17.3
		c-4.3-5.4-10.4-12.1-14-17.5l-6.3-0.1c4.2,4.9,58.8,69.6,60.3,73C213.3,287.7,213.8,292.1,212.9,286L212.9,286z"/>
	<path class="st14" d="M149.3,155l-1.7,0.9c-0.1,0-0.4,0.2-0.5,0.2c-2.2,0.7-4-0.3-6.3-1.1c-0.5,7.1-7.6,29.4,4.2,29.5
		C156.7,184.5,149.8,162.2,149.3,155L149.3,155z"/>
	<path class="st14" d="M149.4,280.8c-3.8,0.9-4.8,0.4-4.9,0.4c-1.4,0.2-1.5,0.5-3.7-0.8c-0.9,7.4-7,27.5,3.3,28.9
		C156.7,311,150.2,287.8,149.4,280.8L149.4,280.8z"/>
	<path class="st15" d="M173,100.1c0.2,3.7-3.7,3.8-7,3c-3.4-0.7-3.7-1.8-4.8-4.1C163.8,94.8,172.8,96.2,173,100.1L173,100.1z
		 M159.5,100.8c-2.9,0.1-3.2-0.4-3.2-3.4C160.6,96.5,160.7,97.1,159.5,100.8L159.5,100.8z M143.8,93.5c-3.1,2.2,1.5-3.9-1.8,2.6
		c5.4-0.7,4.9,0.9,10,3c-3.6-3.7-1.3,0.5-1.4,0.7c-0.1,0.1-0.4,0.3-0.5,0.3l-4.4,3.6l16.5,0.8l0.7,2.5c0.5,1.2,0.4,1.4,1.1,2.2
		c1.4-1.9,0.7-3.4,1-4.6l17.3,3c-0.8-5.5-0.1-0.3-1-2.7c-1.5-4.2-2.4-3.1-0.1-4.6l2.1-1.6c0.1-0.3,0.3-0.3,0.5-0.5l-3.8-2
		c0.8-2.7,0.7-2.2,0.3-4.3l-2.3,0.1c0.1,0.5,0.5,2.4,0.5,2.8c0.1,1.8,0.3,0.4-0.5,2.1C167.1,94.4,155.2,93,143.8,93.5L143.8,93.5z"
		/>
	<path class="st16" d="M140.8,155c2.3,0.8,4.1,1.8,6.3,1.1c0.1,0,0.4-0.1,0.5-0.2l1.7-0.9l0-16l20.3-0.3c0.4-4,0.4-0.9-1.5-2.2
		c0.4,1.3-39.3,0.7-41,0.7l0-8l25.8,0c-0.2-0.2-0.6-0.7-0.7-0.5l-3.2-2.4c-8.4-6.1-3.4,0.6-11.8,1.4c-3.5,0.3-7.6-0.2-11.5,0.2
		l-0.1,10.7l15.2,0.3L140.8,155L140.8,155z"/>
	<path class="st17" d="M174.6,91.9c2.1,0.4,2.6,0.1,1.4,2.7C174,93.6,174.2,94.7,174.6,91.9L174.6,91.9z M171,90.8
		c2.3,1.5,1.3-1.1,1.7,3C170.8,93.4,168.6,93.2,171,90.8L171,90.8z M150.3,88.4c4.7,2,2.3-1.3,3.2,2.7
		C150.4,92.4,151.2,90.6,150.3,88.4L150.3,88.4z M141.3,91.5c-3.6,0-1.7,0-2.6-3.1C141.4,89.7,141.6,88.3,141.3,91.5L141.3,91.5z
		 M137,92.2c-2.1-0.9-0.7,0.5-1.5-1.3c-1.3-2.8,0.4-1.5,0.5-1.7C138.4,90.4,138.5,89.3,137,92.2L137,92.2z M129.9,92.8
		c-3.2-1.2-1.8-0.3-2.5-2.9C131.2,90.6,129.8,89.1,129.9,92.8L129.9,92.8z M150.5,86.8c-3.3,3.5,0.1,0.3-1.2,4.6
		c-5.3,0.2,1.3-2.1-5.3,0.2c-1.4-1.8-0.6-2.2-4-5.3l1.1-0.3c-5.1,2.7-10.5,2.8-16.3,1.1c1.7,1-0.7,1.6,2,4.9
		c-1.4,0.6-0.1,0.7-2.5,0.5c-0.2,0-1.5-0.9-1.9-1.1l0.5,3.6l8.8-1.3c0,0,0-0.7,0-0.5c0,0.1,0-0.6,0-0.8c0-3.7-1.6,1,0.2-3.3
		c1.8,1.1,1.9,2.9,3,4.7l8.8-0.4c11.4-0.5,23.4,0.9,34.2,3.3c0.9-1.7,0.6-0.3,0.5-2.1c0-0.4-0.4-2.3-0.5-2.8l2.3-0.1
		c-4.8-2.8-8.9-1.4-10.7-7C159.8,88.5,162.2,88.4,150.5,86.8L150.5,86.8z"/>
	<path class="st13" d="M49.4,99.2c10.5-1.8,16.4,6.2,20.2,11.3c2.8,2.1-0.4,0.7,3.2,1.4c-1.6-5.7-5-9-8.8-11.5
		c9.2,4,7,9.2,12.4,11.7C74,103.6,67.9,99,59.3,96.6c6.6-0.8,11.5,1,16,4.2c2.9,2.1,8.5,7,9.4,11.2c0.6-0.2,5,1-1-6.6
		c-2.2-2.8-3.3-3.2-5.6-5.3c12.4,9.3,6.3,11,12.5,11.7c-2.1-3.6-4.6-7.7-6.7-9.7c-1.7-1.6-7-5.3-10.1-6.8
		C65.7,91.4,54.8,94,49.4,99.2L49.4,99.2z"/>
	<path class="st13" d="M199.4,112c4.6-1.2,3-4.2,12.5-11.8c-3.8,3.8-5.9,4.1-8.8,11.2l2.2,0.6c1.1-5.5,12.4-17,25.4-15.4
		c-8.6,2.2-14.3,6.1-17.2,15.4c5.3-2.2,3.4-7.5,12.4-11.7c-4,2.7-6.9,5.6-8.8,11.5c2.3-0.4,0.8,0,2.4-1.3c2.7-2.2,0-0.1,1.5-1.7
		c5.1-3.5,7.9-11.6,19.4-9.7c-5.3-5.3-16.1-7.8-24.3-3.7c-3.2,1.6-7.6,4.7-9.5,6.4C204.3,103.9,201.7,108,199.4,112L199.4,112z"/>
	<path class="st18" d="M168,136.4c-9.3-0.8-9.7-3.3-15.2-7.4l-25.8,0l0,8C128.7,137.1,168.4,137.8,168,136.4L168,136.4z"/>
	<path class="st19" d="M97.5,351.3l0.1,0.1c30,8.2,44.9-20.3,87.3-22c27.1-1.1,45.8,2,62.4-20.9c2.6-3.6,9.9-12,11.3-16.8
		c-2.9,1.8-7.4,12.4-18.6,22.6c-1.4,1.3-2,2-3.5,3.5c-20.5,19-50.4-0.7-95.4,22.6c-9.4,4.9-20,10.7-31.2,11.4
		c-5.1,0.3-7.6-1-9.6-1.1C98.2,350.6,98.6,350.8,97.5,351.3L97.5,351.3z"/>
	<path class="st5" d="M120.3,38.6c-2.7,2.9,0.4,0-4,1.8L115,41c-2.1,1,0.4,0-1.9,1.1c-4.8,2.4-4.9,0.4-6.9,5.4l3.8,1
		c2-3-0.1-1.1,3-2.7l0.1,3.2c2.7-4.5-0.3,0.7,0.3-3.2l0.7-2.8c4.3,1.8,0.5-1,2.6,2.1l0.5,1.2c0.3,0.5,0.3,2.1,1.9,1.6l3-2.8
		c-1.7,8-6.7,2.7-3.2,10.7c1.5,3.6,0.6,2.4,2.9,1.6l-2.7,0.7l3.7-4.9c0.2-0.2,0.5-0.4,0.7-0.5c0.2-0.1,0.5-0.3,0.7-0.5l3.1,2.1
		c0.8,0.5-1.2,0.5,3.3,1.3c-0.1-4.9-1.6-11.2,1.6-13.9l1-3.5l-3.7,2.1c-0.4-0.3-0.9,0.6-1.3,0.9c2.8-3.3,1.5-3.2,1.5-4
		c0-0.6-0.4-0.6-0.5-1c-0.3,0.2-0.7,0.5-0.9,0.7c-0.2,0.2-0.6,0.4-0.8,0.6c-2.6,2.7-1.7,3.1-0.6,7.2c-4.6,0-3.9,0.3-7.7,1.5l2-1.4
		c0.2-0.1,0.6-0.3,0.8-0.4c1.8-0.9,0.7-0.1,1.2-0.2c0.3-4.8-0.3-2.3,1.9-7c-0.3,0.2-0.7,0.5-0.9,0.8l-2.2,2.5L120.3,38.6L120.3,38.6
		z"/>
	<path class="st20" d="M140.6,262.8l0.2,17.6c2.2,1.3,2.3,1,3.7,0.8c0.1,0,1.1,0.4,4.9-0.4l-0.2-16.9c3.6-0.5,7.1-0.4,10.8-0.3
		c3.7,0,8.4,1.1,9.8-1.4l-4.8-1c2.5,2.3-3.2,2,3,2c-1.6-2.1-9.6-1-13-1C150,262.1,145.3,261.7,140.6,262.8L140.6,262.8z"/>
	<path class="st21" d="M164.2,84.2c2.4-1.1,1.5-0.1,3.1-3.4c1.4,2.2,0.7,1.3,2.8,2l1,0.2c0.4,4.8,4.7,6.8,9.9,7.2
		c7.8,0.7,7.5-2.2,7.8-4c1.1-7.2-2.2,2.9,0.6-2.3l1.3,4.7l2.7-2.5c-4.2-0.8-2.8-1.2-1.4-5.4c-2.6,0.8-2.5,0.8-4.4-0.8
		c-2.4,3-2.7,5-4.2,6.1l-0.6-4.4l-1.4,1.3c-3.4,1.1,0.2-3.8-5.6,1.6l0.7-5.5c-0.6-0.2-1.5-0.3-2.5-0.8c-2.9-1.3-0.1,0.4-2-1.2l1-2.8
		c-1-2.2-0.4-1.5-4.4-2.1l0.7,2.4c1,2.8,1.1,0.3,1.5,3.1c0.5,3.2-1.3,2.5-2.6,3c-0.7-4.4,1.3-2.3-1.5-4.5c-2.2,1.4,0.8-3-1.3,1.3
		c-0.1,0.1-0.2,0.5-0.3,0.6c0,0.1,0,0.5,0,0.6c-0.1,0.8,0.9,0.5,0.3,2.4c0,0.1-0.1,0.3-0.2,0.4L164.2,84.2L164.2,84.2z"/>
	<path class="st22" d="M121.7,57.4l1.3,3.7c-6.2-5-4,0.3-4,1l-0.5-0.4c0,0,0.3,0.2,0.3,0.3l1.2,1.2c-0.2,0.3-0.5,0.3-0.6,0.9
		l-1.6,2.6c-0.1,0.2-0.3,0.6-0.5,0.8c3.4,0.5,3.7,0.7,6.2,3.1l0.5-2.4c0.4,0.3,0.8,0.3,1.1,1c0.5,1,2.6,1.6,4.9,2
		c-0.4-5.9-0.4-1.5,0.6-3.5l2.2-2.6l-2.4-9.5c-4.5-0.9-2.5-0.8-3.3-1.3l-3.1-2.1c-0.2,0.2-0.5,0.4-0.7,0.5c-0.2,0.1-0.5,0.4-0.7,0.5
		l-3.7,4.9L121.7,57.4L121.7,57.4z"/>
	<path class="st0" d="M43,136.1c6.1,4,2.7,4.1,6,6.8c6.8-8.5-11.2-15.2-15.4-21.5l-3.4-6.8c-0.8-1.5-0.6-1.2-1.4-2.1
		c-1.8,10.1-1.3,12.8,5.8,17.9C36.6,131.9,40.4,134.4,43,136.1L43,136.1z"/>
	<path class="st10" d="M133.6,97.3c0.3,3,0.9,3.6-3,3.5C128.7,97.3,130.4,97,133.6,97.3L133.6,97.3z M123,95.1l1,0.7
		c7.1-1.5,1.3-0.6,2.9,0.7c1.4,3.3,1.7,1.9,1.4,5.7c3.6,1.8-2.8-2.4,1.2,0.7c1.2,0.9,0.6,0.6,1.5,1.5l12.8-0.6
		c-1.9-1.9,0.3-0.2-2.3-1.9c-1.4-0.9-1-0.4-2.3-1.1c-4.1-2.1-1.4,0.6-3.7-2.8c0.3,0.2,0.7,0.1,0.8,0.5l2.3,1.4
		c5.4,2.9,7.7,1.2,11.9,0.1c0.1-0.2-2.2-4.3,1.4-0.7c-5.1-2.2-4.6-3.8-10-3c3.2-6.5-1.4-0.3,1.8-2.6l-8.8,0.4
		c-1.1-1.8-1.2-3.6-3-4.7c-1.8,4.4-0.3-0.4-0.2,3.3c0,0.2,0,0.9,0,0.8c0-0.1,0.1,0.5,0,0.5L123,95.1L123,95.1z"/>
	<path class="st0" d="M241,142.8c3-2.3-0.1-3,5.9-6.9c9.4-6.1,20.1-11.2,13.4-23.2C258.8,128.3,234.1,131.6,241,142.8L241,142.8z"/>
	<path class="st10" d="M139.5,67.4c1,4.2,2.3-0.5,1.1,5.3c-3.6,1.2-1.1,1-3.3,0.2c-1.1-0.4-0.8-0.5-1.3-0.8l-1.1-1.3
		c-0.7,3.4-0.1,2.2-2,4.2c0.1,0.3,0.3,0.4,0.3,0.7l1.4,2.8c1.1,2.3,0.2,0.9,1.3,2.8c6.2-3.8-2.9-3.9,7-7.3l-0.4-5.5l5.1,0.5
		l-0.7,4.8c9.3,3.6,1.8,3.7,7,7.4c0.2-0.3,0.7-2,0.9-2.2c1.3-1.9-0.2-0.9,1.9-1.9l-1.9-6.1c0,0.2-1.5,4.2-5.8,1.1
		c0.1-0.5-3.4,1.2,1.2-1.8c0.1,0,2-0.4-0.3,0.8l0.5-3.6c-4.1-1.8-3.1-0.8-5.5-3.8C142.5,66.8,143.8,65.5,139.5,67.4L139.5,67.4z"/>
	<path class="st21" d="M174.1,70.8c3.6,1.8,0.7,1.7-1,3.4l0,2.9c2.4-2.8,2.9-2.6,4.1-1.9l1.6,2.7c0.9,2.1,0.1,0.6,0.7,1.7l1,1.7
		c0.1,0.3,0.4,0.6,0.5,0.9c0.2-0.3,0.5-1,0.6-0.8c0.1,0.2,0.4-0.6,0.6-0.8l4.1-3.7l1.4,3l4.5-2.7c-0.6-2.8,0-0.7-0.9-2.5l4.8,0.2
		l-0.4-2.5l0-5.1c-1.4,4.3-0.2,1.5-4.1,2.8l-0.7,3.5c-0.5,0.9-1.3,1.4-2.1,1.3c-4.2-0.9,1.5,2.3-2.7-1.8c2.9-2.2,3.2-1.7,4-6
		c-4,2-1.6,0.3-4,5c-0.8-0.8-4.5,1.4-1-2c-0.8,7.5,0.3,1.2-2,5c-3.3-1.8-5.9,0.7-3-7.3l-3.5,2.5C176.2,70.4,175,70.7,174.1,70.8
		L174.1,70.8z"/>
	<path class="st18" d="M111.9,99.2l3.8,0c0.9,5.5,0.3,4.4-3.4,3.7L111.9,99.2L111.9,99.2z M131.1,104.3c-0.9-0.9-0.3-0.6-1.5-1.5
		c-4-3.1,2.4,1.1-1.2-0.7c-1.8,0.5-5.1,1.6-7.4,1.3c-6.9-1-5.8-7.1,5.9-7c-1.7-1.2,4.1-2.1-2.9-0.7l-2.1-0.1
		c-5.8-0.4-10.4,1.5-16.2,2.1c3.9,3.9,1.5,0.6,4.2,3.4c-0.9,5-0.2,0.5-1.1,2.8c-0.9,2.3-0.5-1.4-1.1,3.6L131.1,104.3L131.1,104.3z"
		/>
	<path class="st0" d="M76.4,112l8.3,0c-0.9-4.1-6.5-9.1-9.4-11.2c-4.5-3.2-9.5-5.1-16-4.2C67.9,99,74,103.6,76.4,112L76.4,112z"/>
	<path class="st0" d="M205.4,112l8.2,0c2.9-9.4,8.6-13.2,17.2-15.4C217.8,95,206.5,106.5,205.4,112L205.4,112z"/>
	<path class="st15" d="M130.4,55.5l2.4,9.5c0.9,5.6,1.1,4.5,3.2,4.7c3.1-4.6-2.9-11.5,0-16.2c-0.6,0.2,1.5,1-0.3,0l-0.9-0.6
		c-0.1-0.1-0.4-0.3-0.6-0.5l1.2-3.9c3.1-0.5-3.4,3,0.9-0.1l0.1-0.5l-3.7,0l-0.7-6.5C128.9,44.3,130.3,50.6,130.4,55.5L130.4,55.5z"
		/>
	<path class="st23" d="M161.6,74.2c-1.1,1.4,1.1,0.7-2.5,2.3c3.9,4.8,1.7,2.4,3.7,5.8c0.8,1.4,0.5,0.7,1.4,1.9l1.2-2.9
		c0-0.1,0.2-0.3,0.2-0.4c0.6-1.8-0.4-1.5-0.3-2.4c0-0.1,0-0.5,0-0.6c0-0.2,0.2-0.5,0.3-0.6c2.1-4.3-0.9,0.1,1.3-1.3
		c2.8,2.2,0.9,0.1,1.5,4.5c1.3-0.5,3.1,0.2,2.6-3c-0.4-2.8-0.5-0.3-1.5-3.1l-0.7-2.4c3.9,0.6,3.4-0.1,4.4,2.1c1.7-1.8,4.6-1.7,1-3.4
		c0.3-2.2,0.7-0.1-1-2.4c0-0.1-0.3-0.1-0.4-0.3c0-0.2-0.3-0.2-0.4-0.3c-2.7,0.4-2.5,1.2-5.4,2.4c1.5,1.4,1.3-2.9,0.5,1.8
		c-0.5,3.2-2.7,5-5.5,1.1L161.6,74.2L161.6,74.2z"/>
	<path class="st15" d="M154,64.3l-1.2,4.8l3.4,1.1l3-14.7c0.5-4.5,1-10-0.6-13.6C157.7,47.8,154.3,57.3,154,64.3L154,64.3z"/>
	<path class="st6" d="M120.3,38.6l1.5,1.7l2.2-2.5c0.3-0.3,0.6-0.5,0.9-0.8c-2.2,4.6-1.7,2.2-1.9,7c-0.5,0,0.5-0.7-1.2,0.2
		c-0.2,0.1-0.6,0.3-0.8,0.4l-2,1.4c3.8-1.3,3.1-1.5,7.7-1.5c-1-4.1-1.9-4.5,0.6-7.2c0.2-0.2,0.6-0.4,0.8-0.6
		c0.2-0.2,0.6-0.4,0.9-0.7c0.2,0.3,0.6,0.4,0.5,1c-0.1,0.8,1.2,0.8-1.5,4c0.4-0.3,0.9-1.2,1.3-0.9l3.7-2.1l-1,3.5l0.7,6.5l3.7,0
		c-0.9-7.4-2-10.3-7.3-13.2C124.6,34.9,122.3,35.5,120.3,38.6L120.3,38.6z"/>
	<path class="st24" d="M187.6,79.9c1.8,1.7,1.8,1.6,4.4,0.8c-1.4,4.3-2.8,4.6,1.4,5.4c5.8-2-0.8-0.2,3.2-9.4c1.8,0.4,1.9,1.1,4-0.6
		c-0.8-3.2-1.2-3.8-5.1-3.7l0.4,2.5l-4.8-0.2c0.9,1.8,0.3-0.2,0.9,2.5L187.6,79.9L187.6,79.9z"/>
	<path class="st25" d="M117.4,89.2l2.5,0.3c-0.3,0.2-0.9,0-1.1,0.6c-1.4,3.9-1.4-2-3.2,3c5.8,3.6,1.5,0.5,3.1,0.1
		c0.7-0.2-0.4-3.9,3,2.5l2.1,0.1l-1-0.7l-0.5-3.6c0.4,0.2,1.7,1.1,1.9,1.1c2.5,0.2,1.2,0.1,2.5-0.5c-2.8-3.3-0.3-3.9-2-4.9
		c-4.1-4,4.7,1-2.5-2.1c-4.2-1.8-1.2-0.6-2.4-0.2C117.3,85.7,117.4,89.2,117.4,89.2L117.4,89.2z"/>
	<path class="st26" d="M262,292.9l-0.5,0.2c-3.9,4.5-7.5,11.9-11.6,16.7c-2.7,3.1-11.8,11.2-15.3,13.7c-7.2,5.1-9,3.9-11.6,7.6
		c4.5-1.9,8.9-4.3,12.5-6.7c6.1-4.1,10.1-8.1,14.4-13.6C253.5,306.1,259.4,300.4,262,292.9L262,292.9z"/>
	<path class="st19" d="M205.7,319c6.6,0.3,20-6,24.9-12.3c2.8-3.6,9.4-7.3,16.2-21.7c-1.3,0.9-1.1,0.8-2,1.9
		c-6.8,8.6-10.3,18.9-25.3,26.8C215,316,209.7,316.5,205.7,319L205.7,319z"/>
	<path class="st15" d="M187.6,79.9l-1.4-3l-4.1,3.7c-0.2,0.2-0.5,0.9-0.6,0.8c-0.1-0.2-0.4,0.5-0.6,0.8c-0.2-0.3-0.4-0.6-0.5-0.9
		l-1-1.7c-0.5-1.1,0.2,0.5-0.7-1.7l-1.6-2.7c-1.2-0.7-1.7-0.9-4.1,1.9l0-2.9l-1,2.8c1.9,1.7-0.9-0.1,2,1.2c1,0.4,1.8,0.6,2.5,0.8
		l-0.7,5.5c5.8-5.3,2.2-0.4,5.6-1.6l1.4-1.3l0.6,4.4C185,84.9,185.2,82.9,187.6,79.9L187.6,79.9z"/>
	<path class="st26" d="M213.6,320.7c5-1.2,8.3-3,12.4-5.7c9.5-6.3,5.6-5,9-8c5.4-4.7,12.6-13.2,14.8-20.3c-1.4,1-1.1,0.7-2.1,2
		l-8.4,12.7c-6.3,7.6-13.1,12.8-22.1,16.9C214.5,319.5,215.4,319,213.6,320.7L213.6,320.7z"/>
	<path class="st26" d="M76.4,320.7c-3.3-3.3-9.1-3.7-16.1-9.9c-4.7-4.2-9-8-12.5-13.5c-1.8-2.9-4.7-8.9-7.5-10.5
		c1.6,4.4,10.4,16.9,14,20.1C59.3,311.3,64.5,317.7,76.4,320.7L76.4,320.7z"/>
	<path class="st26" d="M84.4,318.4c-14.6-0.6-29.2-15.5-36.8-28c-2-3.3-2.2-4-4.3-5.3c3.2,5.7,6.6,12,11,16.7
		C59.9,308,75.6,321.3,84.4,318.4L84.4,318.4z"/>
	<path class="st27" d="M141.1,86.1l-1.1,0.3c3.4,3.1,2.6,3.5,4,5.3c6.6-2.3,0,0,5.3-0.2c1.3-4.3-2.1-1.1,1.2-4.6l-0.8-1.6
		c-1-1.8-4.2-1.9-5.6-1.6C138.4,85,143.3,83.1,141.1,86.1L141.1,86.1z"/>
	<path class="st28" d="M25.3,129.4l-2.2-6.3c3.1,3.1,1.6,2,3,4.9c1,2.1,0.8,1.8,2.9,3c7.2,4,2.5,2.4,9,5l-5.3-4.7
		c-9.1-5.7-2.6-5.5-9.2-12.2l1.2-4.5c-1.2,1.8-2.4,4.1-2.6,7.5c-0.1,1.4,0,3,0.5,4.3C23.9,129.7,24.4,128.7,25.3,129.4L25.3,129.4z"
		/>
	<path class="st29" d="M137.7,40.1l2.9,3.8c0-0.3-0.2-1-0.2-0.9c0,0.2-0.2-0.6-0.3-0.8c0-0.2-0.2-0.6-0.2-0.8
		c-0.6-7.3-0.1-2.1,3.1-4.3c0,0.4-0.5,4.2-0.5,4.3c0.4,1.9,0.9,2.1,2.5,3.7c0.6-3.5,5,2.8,1.5-5.3l-2.5-0.7l-1.1-4.6l-3.2-1.8
		C139,35.9,139.1,36.4,137.7,40.1L137.7,40.1z"/>
	<path class="st22" d="M126.8,99.1c-1.6,3.3-6.4,3.1-8.9,2.1C118.1,96.6,123.7,97.3,126.8,99.1L126.8,99.1z M128.4,102.1
		c0.3-3.8-0.1-2.4-1.4-5.7c-11.7-0.2-12.8,6-5.9,7C123.3,103.7,126.6,102.6,128.4,102.1L128.4,102.1z"/>
	<path class="st9" d="M162.7,97.7c4.6-0.2,7.4-0.5,8.9,3.1c-1.8,1-2.3,1.4-5.4,1C160.7,101.1,163.3,101.2,162.7,97.7L162.7,97.7z
		 M161.2,99.1c1.1,2.3,1.5,3.3,4.8,4.1c3.3,0.7,7.1,0.6,7-3C172.8,96.2,163.8,94.8,161.2,99.1L161.2,99.1z"/>
	<path class="st30" d="M171.6,100.8c-1.5-3.6-4.3-3.2-8.9-3.1c0.5,3.5-2.1,3.3,3.4,4C169.3,102.2,169.8,101.8,171.6,100.8
		L171.6,100.8z"/>
	<path class="st31" d="M181.5,92.6c3.7,1.3,3.1-1,3.1,3.2C181.2,95.8,182.7,96.1,181.5,92.6L181.5,92.6z M181.2,100.2l3.7,0.2
		c0.5-5,1.6-2,1.8-8.3l-6.4-0.3c0.5,2.1,0.6,1.6-0.3,4.3l3.8,2c-0.2,0.2-0.5,0.2-0.5,0.5L181.2,100.2L181.2,100.2z"/>
	<path class="st10" d="M117.9,101.2c2.4,1,7.3,1.2,8.9-2.1C123.7,97.3,118.1,96.6,117.9,101.2L117.9,101.2z"/>
	<path class="st32" d="M142.9,34.5l1.1,4.6l2.5,0.7c0.9-4.5,2.2-7.4-2.5-8.3L142.9,34.5L142.9,34.5z"/>
	<path class="st14" d="M116.9,74.2c-1.6,3.5-3.3,3.4-5,0.9c-0.6,2.2-1.1,3.4-1.6,4.9c4.8,4.3,2.5,3.1,3.9,4.5l-0.7-5.7l4.6-1.5
		L116.9,74.2L116.9,74.2z"/>
	<path class="st10" d="M184.7,103.7c2.5-1.3,1.1-2.4,0.3-3.3l-3.7-0.2l-0.7,3.3L184.7,103.7L184.7,103.7z"/>
	<path class="st6" d="M112.2,102.9c3.8,0.6,4.4,1.7,3.4-3.7l-3.8,0L112.2,102.9L112.2,102.9z"/>
	<path class="st33" d="M105.3,103.7c1.9,0,1.7,0.8,2.9-0.5c2.8-3,0.1-2.3,0-2.4c-0.2-0.1-0.5-0.6-0.6-0.4c-0.1,0.2-0.6-0.2-0.7-0.2
		c-4-0.2,2-0.2-1.8,0.1C102.9,102.1,104.4,102.8,105.3,103.7L105.3,103.7z"/>
	<path class="st32" d="M143.1,53.2c6.1-0.2,4.7-2.9,1-4.1C142.8,51.1,142.8,48.9,143.1,53.2L143.1,53.2z"/>
	<path class="st22" d="M130.5,100.8c3.9,0.1,3.3-0.5,3-3.5C130.4,97,128.7,97.3,130.5,100.8L130.5,100.8z"/>
	<path class="st9" d="M156.4,97.4c0,3,0.3,3.5,3.2,3.4C160.7,97.1,160.6,96.5,156.4,97.4L156.4,97.4z"/>
	<path class="st10" d="M142.9,57.1c0.3,3.8-0.4-0.2,1.1,1.3l2.9-0.3c-0.5-2.6-0.7-2.5-1.9-3.9C141.7,55.9,144.6,54.1,142.9,57.1
		L142.9,57.1z"/>
	<path class="st34" d="M142.9,47.1c2,1.3-1.6,1.3,2.1,0.9c2.4-0.2,0.6,0,1.9-0.9C144.1,41.5,144,45.7,142.9,47.1L142.9,47.1z"/>
	<path class="st15" d="M148,21.1c0.9,0.9-0.6,0.6,1.6,1.2c1.5,0.4,1.6,0,2.5-0.2C151.6,19,150.3,18.7,148,21.1L148,21.1z"/>
	<path class="st33" d="M180.9,111c-1-5,0.5-2.1-3.3-3.3C178.6,111.8,177.7,110.6,180.9,111L180.9,111z"/>
	<path class="st33" d="M184.6,95.8c0-4.2,0.6-1.9-3.1-3.2C182.7,96.1,181.2,95.8,184.6,95.8L184.6,95.8z"/>
	<path class="st10" d="M145,18.1c1.2-2.3,2.7-3.2-1-3.9c-0.1,0.2-0.9-0.9-0.3,1.7C144.4,18.8,144.3,17.3,145,18.1L145,18.1z"/>
	<path class="st33" d="M142.4,104.1c1.6,1.9-1.3,3.8,2.6,3.2C146.6,104,146.8,106,142.4,104.1L142.4,104.1z"/>
	<path class="st33" d="M138.4,104.1c1.9,2-2.2,2.5,2.7,3.4C142.1,104.1,141.6,105.5,138.4,104.1L138.4,104.1z"/>
	<path class="st34" d="M146.6,62.1c-1.5-4.2-2.1-3.3-3.5,0.5L146.6,62.1L146.6,62.1z"/>
	<path class="st10" d="M171,106.5c-2.7,2,0,2.9,1.7,3.4C172.6,105.3,173.7,108.5,171,106.5L171,106.5z"/>
	<path class="st33" d="M153.5,91.1c-0.9-4,1.5-0.8-3.2-2.7C151.2,90.6,150.4,92.4,153.5,91.1L153.5,91.1z"/>
	<path class="st30" d="M138.1,19.6l-0.2,2.5c2.8,0.8,2,0.6,3.6-1L138.1,19.6L138.1,19.6z"/>
	<path class="st10" d="M122.6,109c-0.8-2.9-0.1-1.8-2.6-3.1C120.3,110.1,118,108.9,122.6,109L122.6,109z"/>
	<path class="st32" d="M141.3,91.5c0.3-3.1,0.2-1.7-2.6-3.1C139.6,91.5,137.7,91.5,141.3,91.5L141.3,91.5z"/>
	<path class="st10" d="M134.8,104.6c1.5,2.9-1.1,2.5,2.9,3.4C137.6,104.5,138.3,105.9,134.8,104.6L134.8,104.6z"/>
	<path class="st8" d="M117,106.9c-1.7,1-1.1-0.3-0.6,2c0.4,2.2,0.3,0.6,1.6,1.3C119.3,106.9,118.6,108.1,117,106.9L117,106.9z"/>
	<path class="st10" d="M131.4,105c0.8,3.9-2.6,2.1,2.7,3.2C133.3,105,134.6,106.2,131.4,105L131.4,105z"/>
	<path class="st10" d="M114.8,95.1c-0.4-3.2,0.7-1.9-2.7-3.1C112.8,95.9,111.8,94.4,114.8,95.1L114.8,95.1z"/>
	<path class="st32" d="M137,92.2c1.5-2.8,1.4-1.8-1-3.1c-0.1,0.2-1.8-1-0.5,1.7C136.3,92.7,134.9,91.2,137,92.2L137,92.2z"/>
	<path class="st32" d="M112.2,107.7c1.2,1.7-2.2,1.4,2.6,3.2C114.5,107.1,116.1,109,112.2,107.7L112.2,107.7z"/>
	<path class="st10" d="M166.3,106.4c0.9,3.3-1.8,1.6,2.7,3C168.1,105.7,169.6,106.7,166.3,106.4L166.3,106.4z"/>
	<path class="st10" d="M171,90.8c-2.4,2.4-0.2,2.6,1.7,3C172.3,89.7,173.3,92.3,171,90.8L171,90.8z"/>
	<path class="st33" d="M176,110.4c1.7-2.8,0.6-2.5-1.8-3.1C174.6,110.5,173.7,108.9,176,110.4L176,110.4z"/>
	<path class="st10" d="M129.9,92.8c-0.1-3.7,1.4-2.3-2.5-2.9C128.1,92.5,126.7,91.6,129.9,92.8L129.9,92.8z"/>
	<path class="st33" d="M176,94.7c1.2-2.6,0.7-2.3-1.4-2.7C174.2,94.7,174,93.6,176,94.7L176,94.7z"/>
	<path class="st35" d="M83.9,136l-2.5-3.5c0.1,0.9,0,1.6,0.7,2.4C84.1,137.2,81.5,135.1,83.9,136L83.9,136z"/>
</g>
</svg>
