<?xml version="1.0" encoding="utf-8"?>
<!-- Generator: Adobe Illustrator 22.1.0, SVG Export Plug-In . SVG Version: 6.00 Build 0)  -->
<svg version="1.1" id="Слой_1" xmlns="http://www.w3.org/2000/svg" xmlns:xlink="http://www.w3.org/1999/xlink" x="0px" y="0px"
	 viewBox="0 0 1144.5 239.4" style="enable-background:new 0 0 1144.5 239.4;" xml:space="preserve">
<style type="text/css">
	.st0{fill:#FFFFFF;}
</style>
<polygon class="st0" points="2.1,29.2 2.1,208.2 176.8,208.2 116,149.5 122.3,136.7 181,193.4 181,174.6 128.6,123.9 134.9,111.1 
	181,155.7 181,136.8 141.2,98.3 147.5,85.5 181,117.9 181,99 153.7,72.7 160,59.9 181,80.2 181,61.3 166.3,47.1 172.6,34.3 
	181,42.4 181,29.2 "/>
<path class="st0" d="M1137,208.2h-19.9l-38.9-50.3h-5.2v50.3h-19.9V93.1h19.9v49.4c1.6-0.2,3-0.5,4.3-0.9c2-0.6,3.7-1.5,5.1-2.7
	c1.5-1.2,2.8-2.7,4.1-4.4c1.3-1.8,2.4-3.9,3.4-6.2l1.2-3.2l1.1-3c0.5-1.3,1.2-3.9,1.7-5.1c1.5-4.4,3.3-8.2,5.3-11.2
	c2.1-3.2,4.4-5.7,7-7.5c2.6-1.8,5.6-3.1,9.1-4c3.4-0.8,7.2-1.3,11.5-1.3h7.1v18.3h-6.3c-2.8,0-5.1,0.3-6.9,0.8c-1.7,0.5-3,1.1-3.8,2
	c-1,1-2,2.4-2.9,4.4c-1,2.1-2.1,4.7-3,7.8c-1,3.4-2.2,6.3-3.3,8.8c-1.2,2.6-2.5,4.7-3.9,6.4c-1.4,1.7-2.9,3.2-4.4,4.6
	c-0.9,0.8-1.9,1.6-2.9,2.3l46.2,59.8H1137z M1000.8,210.2c-3.7,0-7.3-0.3-10.8-1c-3.5-0.6-6.8-1.6-10-2.8c-3.2-1.3-6.2-2.9-8.9-4.8
	c-2.8-1.9-5.3-4.1-7.6-6.7c-2.3-2.5-4.4-5.4-6.2-8.5c-1.8-3.1-3.3-6.6-4.5-10.3c-1.3-3.7-2.2-7.7-2.8-11.9
	c-0.6-4.2-0.9-8.7-0.9-13.5c0-4.7,0.3-9.1,0.9-13.3c0.6-4.2,1.5-8.1,2.7-11.6c1.2-3.6,2.7-6.9,4.5-10.1c1.8-3.1,3.9-6,6.2-8.7
	c2.3-2.6,4.9-4.9,7.6-6.9c2.8-2,5.7-3.7,8.9-5c3.2-1.4,6.5-2.4,10.1-3.1c3.5-0.7,7.2-1,11.1-1c1.9,0,3.7,0.1,5.5,0.2
	c1.8,0.1,3.5,0.4,5.3,0.6c1.7,0.3,3.3,0.6,4.8,1c1.6,0.4,3.1,0.8,4.5,1.2l0,0c1.2,0.4,2.5,0.8,3.7,1.3c1.2,0.5,2.5,1,3.8,1.6
	c1.2,0.5,2.5,1.1,3.8,1.8c1.2,0.6,2.5,1.3,3.8,2l1.4,0.8v21.8h-4.8l-3-2.7l-2.6-2.1c-1-0.8-2-1.5-3.1-2.3c-1.1-0.8-2.4-1.5-3.8-2.3
	c-1.4-0.7-2.8-1.4-4.2-1.9c-1.4-0.6-2.9-1.1-4.5-1.5c-1.6-0.5-3.2-0.8-4.9-1c-1.7-0.2-3.7-0.3-5.8-0.3c-4.3,0-8.4,0.9-12.2,2.6
	c-1.9,0.9-3.7,2-5.4,3.2c-1.7,1.3-3.2,2.8-4.7,4.5c-1.4,1.7-2.7,3.7-3.8,5.8c-1.1,2.2-2.1,4.6-2.9,7.3c-0.8,2.7-1.4,5.5-1.9,8.5
	c-0.4,3-0.6,6.3-0.6,9.7c0,3.7,0.2,7,0.6,10.1c0.4,3.1,1.1,5.9,1.9,8.4c0.9,2.6,1.9,4.9,3.1,7.1c1.1,2.1,2.5,4,3.9,5.8
	c1.4,1.7,2.9,3.1,4.6,4.4c1.6,1.2,3.4,2.3,5.3,3.1c1.9,0.8,3.8,1.5,5.8,1.9c2,0.4,4.1,0.6,6.2,0.6c2.1,0,4-0.1,5.8-0.3
	c1.8-0.2,3.5-0.6,5.2-1.1c1.7-0.5,3.3-1,4.8-1.6c1.5-0.6,2.9-1.3,4.2-2c1.3-0.7,2.5-1.4,3.6-2.2c1.1-0.7,2.1-1.5,3.1-2.2
	c0.9-0.7,1.7-1.4,2.5-2.1c0.8-0.7,1.4-1.3,1.9-1.8l0.8-0.8h4.8v21.7c-2.8,1.3-5.6,2.6-8.3,4c-2.2,1.1-5,2.1-8.1,3.2
	c-1.6,0.5-3.2,1-4.7,1.4c-1.5,0.4-3,0.7-4.5,1l0,0c-1.5,0.3-3.1,0.5-5,0.6C1005.1,210.1,1003,210.2,1000.8,210.2z M932.9,166.6
	h-44.2v-18.4h46.8v18.4H932.9z M823.6,205.5v-94.2h-36.9V93.1h93.7v18.3h-36.9v96.9h-19.9V205.5z M706.1,205.5V93.1h74v18.3H726
	v24.8h50.5v18.3H726v35.5h54.1v18.3h-74V205.5z M636.4,205.5v-94.2h-36.9V93.1h93.7v18.3h-36.9v96.9h-19.9V205.5z M583.9,208.2
	h-17.3v-79.8l-45.2,79.8h-19.1V93.1h19.9v78.5l44.5-78.5h19.7v115.1H583.9z M466,129.2c0-1.7-0.1-3.3-0.4-4.8
	c-0.3-1.4-0.7-2.8-1.3-3.9c-0.5-1.2-1.2-2.2-2-3.2c-0.8-0.9-1.8-1.8-2.9-2.5c-1-0.7-2.1-1.2-3.3-1.7c-1.2-0.5-2.5-0.9-3.8-1.1
	c-1.4-0.3-3-0.5-4.9-0.7c-1.8-0.1-3.8-0.2-6-0.2H432v38.2h7.3c2.9,0,5.5-0.1,7.7-0.3c2.2-0.2,4.2-0.6,5.9-1c1.6-0.4,3-1,4.3-1.7
	c1.3-0.7,2.5-1.6,3.5-2.7c0.9-1,1.8-2,2.4-3c0.7-1.1,1.2-2.1,1.7-3.2c0.4-1.1,0.8-2.4,1-3.7C465.9,132.3,466,130.8,466,129.2z
	 M486.5,128.8c0,2.5-0.2,5-0.7,7.5c-0.5,2.4-1.1,4.8-2.1,7.1c-0.9,2.3-2,4.4-3.2,6.4c-1.3,2-2.7,3.8-4.3,5.4l0,0
	c-2,2-4.2,3.8-6.6,5.3c-2.4,1.5-4.9,2.8-7.6,3.8c-5.4,2-12.2,3-20.3,3H432v41H412V93.1h30.2c3.3,0,6.4,0.1,9.3,0.4
	c2.9,0.3,5.6,0.7,7.9,1.3c2.4,0.6,4.7,1.3,6.8,2.3c2.2,1,4.2,2.1,6.1,3.4l0,0c2.2,1.5,4.1,3.2,5.9,5.2c1.7,1.9,3.2,4.1,4.5,6.4
	c1.3,2.4,2.2,5,2.8,7.8C486.2,122.6,486.5,125.6,486.5,128.8z M364,159.7l-13.3-40.5l-13.2,40.5H364z M302.5,204.7l37.7-111.7H362
	c13,38.4,25.9,76.8,38.9,115.1h-21l-9.9-30.5h-38.2l-9.9,30.5h-20.4L302.5,204.7z M287.5,208.2h-17.3v-96.9h-45v96.9h-19.9V93.1
	h84.9v115.1H287.5z"/>
<path class="st0" d="M1119.9,54.3V40h-5.3c-1.5,0-2.7,0.1-3.5,0.3c-0.9,0.2-1.7,0.5-2.4,1c-0.8,0.5-1.4,1.3-1.8,2.2
	c-0.4,1-0.7,2-0.7,3.1c0,1.4,0.2,2.5,0.5,3.4c0.3,0.9,0.8,1.7,1.5,2.4c0.8,0.7,1.7,1.3,2.8,1.5c1.1,0.3,2.4,0.4,3.9,0.4H1119.9z
	 M1125,73.7h-5.1V58.5h-5.7l-11.4,15.2h-6.1l12.2-15.9c-2.6-0.9-4.5-2.2-5.9-4c-1.4-1.8-2.1-4.3-2.1-7.3c0-1.9,0.4-3.6,1.2-5
	c0.8-1.4,1.9-2.6,3.2-3.5c1.2-0.9,2.6-1.5,4.2-1.8c1.6-0.3,3.4-0.5,5.4-0.5h10.1V73.7z M1072.6,73.7h-5.1V43.4l-17.1,30.3h-5.2V35.6
	h5.1v29.8l16.9-29.8h5.4V73.7z M1017.1,73.7h-5.1V55h-17.5v18.7h-5.1V35.6h5.1v14.9h17.5V35.6h5.1V73.7z M955.3,58.7l-5.9-17.9
	l-5.9,17.9H955.3z M933.6,73.7l12.9-38.1h6.3l12.9,38.1h-5.4l-3.4-10.6h-14.6l-3.4,10.6H933.6z M909.6,73.7h-5.1V40.1h-17.5v33.6
	H882V35.6h27.6V73.7z M853.9,73.7h-5.1V40.8l-9.9,22.4h-3.1L826,40.8v32.8h-4.7V35.6h6.9l9.5,21.2l9.2-21.2h7.1V73.7z M790.1,54.6
	c0-2.5-0.3-4.7-0.8-6.7c-0.5-1.9-1.3-3.6-2.3-4.8c-1-1.3-2.2-2.3-3.7-2.9c-1.4-0.7-3-1-4.8-1c-1.8,0-3.5,0.3-4.8,1
	c-1.4,0.6-2.6,1.6-3.7,3c-1,1.3-1.8,2.9-2.3,4.9c-0.5,2-0.8,4.2-0.8,6.6c0,5,1,8.8,3.1,11.5c2.1,2.6,4.9,4,8.5,4
	c3.5,0,6.3-1.3,8.4-4C789.1,63.4,790.1,59.6,790.1,54.6z M790.8,39.9c1.4,1.7,2.6,3.7,3.4,6.2c0.8,2.5,1.2,5.3,1.2,8.5
	c0,3.1-0.4,5.9-1.2,8.4c-0.8,2.5-1.9,4.6-3.4,6.3c-1.6,1.8-3.4,3.1-5.5,3.9c-2.1,0.8-4.4,1.3-6.9,1.3c-2.6,0-4.9-0.4-7-1.3
	c-2.1-0.9-3.9-2.2-5.3-3.9c-1.5-1.7-2.6-3.8-3.4-6.2c-0.8-2.5-1.2-5.3-1.2-8.4c0-3.2,0.4-6,1.2-8.4c0.8-2.4,1.9-4.5,3.4-6.2
	c1.5-1.7,3.2-3,5.3-3.9c2.1-0.9,4.4-1.3,7-1.3c2.6,0,4.9,0.5,7,1.4C787.6,37,789.4,38.3,790.8,39.9z M740.2,73.7h-6.5l-13.5-17.5
	H717v17.5h-5.1V35.6h5.1v17.2c2-0.1,3.6-0.6,4.8-1.5c1.2-0.9,2.1-2.3,2.8-4c0.3-0.8,0.6-1.5,0.8-2.2c0.2-0.7,0.4-1.3,0.6-1.8
	c1-2.9,2.3-4.9,3.9-6c1.6-1.1,3.8-1.7,6.6-1.7h1.6v4.5h-1.3c-2.1,0-3.5,0.4-4.4,1.2c-0.8,0.8-1.6,2.4-2.3,4.6
	c-0.7,2.3-1.5,3.9-2.3,5c-0.9,1-1.9,2-3.2,2.8L740.2,73.7z M641.5,54.3V40h-5.3c-1.5,0-2.6,0.1-3.5,0.3c-0.9,0.2-1.7,0.5-2.4,1
	c-0.8,0.5-1.4,1.3-1.8,2.2c-0.4,1-0.7,2-0.7,3.1c0,1.4,0.2,2.5,0.5,3.4c0.3,0.9,0.8,1.7,1.5,2.4c0.8,0.7,1.7,1.2,2.8,1.5
	c1.1,0.3,2.4,0.4,3.9,0.4H641.5z M646.6,73.7h-5.1V58.5h-5.7l-11.4,15.2h-6.1l12.2-15.9c-2.6-0.9-4.5-2.2-5.9-4
	c-1.4-1.8-2.1-4.3-2.1-7.3c0-1.9,0.4-3.6,1.2-5c0.8-1.4,1.9-2.6,3.2-3.5c1.2-0.9,2.6-1.4,4.2-1.8c1.6-0.3,3.4-0.5,5.4-0.5h10.1V73.7
	z M588.1,58.7l-5.9-17.9l-5.9,17.9H588.1z M566.4,73.7l12.9-38.1h6.3l12.9,38.1H593l-3.4-10.6H575l-3.4,10.6H566.4z M539.9,62.1
	c0-1.4-0.2-2.6-0.6-3.5c-0.4-0.9-1.2-1.7-2.5-2.4c-0.8-0.4-1.7-0.7-2.6-0.8c-0.9-0.1-2.3-0.2-4-0.2h-5.7v14h4.1c2.2,0,4-0.1,5.2-0.3
	c1.3-0.2,2.4-0.6,3.4-1.3c1-0.7,1.6-1.4,2.1-2.3C539.7,64.6,539.9,63.5,539.9,62.1z M538.1,44.9c0-0.9-0.2-1.7-0.5-2.4
	c-0.3-0.7-0.8-1.2-1.5-1.6c-0.8-0.5-1.7-0.7-2.7-0.8c-1-0.1-2.4-0.1-4.2-0.1h-4.8V51h5.7c1.6,0,2.8-0.1,3.5-0.2
	c0.7-0.2,1.5-0.5,2.3-1c0.8-0.5,1.3-1.1,1.6-1.9C537.9,47.1,538.1,46.1,538.1,44.9z M545.2,62c0,1.9-0.4,3.6-1.1,5
	c-0.7,1.5-1.7,2.6-2.9,3.6c-1.4,1.1-3,1.9-4.6,2.4c-1.6,0.5-3.8,0.7-6.3,0.7h-10.9V35.6h10.1c2.7,0,4.8,0.1,6.1,0.3
	c1.4,0.2,2.7,0.6,3.9,1.3c1.4,0.7,2.4,1.7,3,2.9c0.6,1.2,0.9,2.6,0.9,4.2c0,1.8-0.5,3.4-1.4,4.8c-1,1.4-2.3,2.5-3.9,3.3v0.2
	c2.3,0.6,4,1.7,5.3,3.4C544.6,57.5,545.2,59.5,545.2,62z M488.2,54.6c0-2.5-0.3-4.7-0.8-6.7c-0.5-1.9-1.3-3.6-2.3-4.8
	c-1-1.3-2.2-2.3-3.7-2.9c-1.4-0.7-3-1-4.8-1c-1.8,0-3.5,0.3-4.8,1c-1.4,0.6-2.6,1.6-3.7,3c-1,1.3-1.8,2.9-2.3,4.9
	c-0.5,2-0.8,4.2-0.8,6.6c0,5,1.1,8.8,3.1,11.5c2.1,2.6,4.9,4,8.5,4c3.5,0,6.3-1.3,8.4-4C487.1,63.4,488.2,59.6,488.2,54.6z
	 M488.9,39.9c1.5,1.7,2.6,3.7,3.4,6.2c0.8,2.5,1.2,5.3,1.2,8.5c0,3.1-0.4,5.9-1.2,8.4c-0.8,2.5-1.9,4.6-3.4,6.3
	c-1.6,1.8-3.4,3.1-5.5,3.9c-2.1,0.8-4.4,1.3-6.9,1.3c-2.6,0-4.9-0.4-7-1.3c-2.1-0.9-3.9-2.2-5.3-3.9c-1.5-1.7-2.6-3.8-3.4-6.2
	c-0.8-2.5-1.2-5.3-1.2-8.4c0-3.2,0.4-6,1.2-8.4c0.8-2.4,1.9-4.5,3.4-6.2c1.5-1.7,3.2-3,5.3-3.9c2.1-0.9,4.4-1.3,7-1.3
	c2.6,0,4.9,0.5,7,1.4C485.7,37,487.4,38.3,488.9,39.9z M437.5,73.7h-5.8l-9.3-15.2L413,73.7h-5.5l12.2-19.1l-11.8-19h5.8l9.1,14.9
	l9.3-14.9h5.5l-12,18.8L437.5,73.7z M377,58.7l-5.9-17.9l-5.9,17.9H377z M355.2,73.7l12.9-38.1h6.3l12.9,38.1h-5.4l-3.4-10.6h-14.6
	l-3.4,10.6H355.2z M328.9,47.2c0-1.3-0.2-2.4-0.7-3.4c-0.5-1-1.1-1.8-2-2.4c-0.8-0.5-1.7-0.9-2.8-1.1c-1.1-0.2-2.4-0.3-4-0.3h-4.2
	v15.1h3.4c2,0,3.7-0.2,4.9-0.5c1.3-0.3,2.3-0.9,3.1-1.8c0.7-0.8,1.3-1.6,1.6-2.5C328.7,49.4,328.9,48.4,328.9,47.2z M334.2,47
	c0,1.7-0.3,3.2-0.9,4.7c-0.6,1.5-1.4,2.7-2.4,3.8c-1.3,1.3-2.8,2.3-4.6,2.9c-1.8,0.7-4,1-6.7,1h-4.3v14.2h-5.1V35.6h9.6
	c2.3,0,4.2,0.2,5.7,0.6c1.6,0.4,3,1,4.2,1.8c1.4,1,2.5,2.2,3.3,3.7C333.8,43.1,334.2,44.9,334.2,47z M268.1,73.7V40.1h-12.8v-4.5
	H286v4.5h-12.8v33.6H268.1z M222.3,74.4c-2.5,0-4.8-0.4-6.9-1.3c-2.1-0.8-3.9-2.1-5.4-3.7c-1.5-1.7-2.7-3.7-3.5-6.2
	c-0.8-2.5-1.3-5.3-1.3-8.5c0-3.2,0.4-6,1.2-8.3c0.8-2.4,2-4.4,3.5-6.2c1.5-1.7,3.3-3,5.4-3.9c2.1-0.9,4.4-1.3,7-1.3
	c1.3,0,2.5,0.1,3.6,0.3c1.1,0.2,2.2,0.4,3.1,0.7c0.8,0.3,1.7,0.6,2.5,1c0.9,0.4,1.7,0.8,2.5,1.3v6.1h-0.4c-0.4-0.4-1-0.9-1.7-1.5
	c-0.7-0.6-1.6-1.1-2.6-1.7c-1-0.5-2-0.9-3.2-1.3c-1.1-0.3-2.5-0.5-4-0.5c-1.6,0-3.2,0.3-4.6,1c-1.4,0.7-2.7,1.6-3.8,2.9
	c-1.1,1.3-1.9,2.9-2.5,4.9c-0.6,1.9-0.9,4.2-0.9,6.6c0,2.6,0.3,4.8,0.9,6.7c0.6,1.9,1.5,3.5,2.6,4.8c1.1,1.3,2.3,2.2,3.7,2.8
	c1.4,0.6,3,1,4.6,1c1.5,0,2.8-0.2,4.1-0.5c1.2-0.4,2.4-0.8,3.3-1.4c0.9-0.5,1.7-1.1,2.4-1.6c0.7-0.6,1.2-1,1.6-1.4h0.4v6
	c-0.8,0.4-1.6,0.8-2.4,1.1c-0.7,0.4-1.6,0.7-2.7,1c-1.1,0.4-2.1,0.6-3.1,0.8C225,74.3,223.8,74.4,222.3,74.4z"/>
</svg>
