<svg xmlns="http://www.w3.org/2000/svg" width="172" height="155" fill="none"><path fill="url(#a)" d="M135.725 11H97.436v6.834h31.63v48.98h-6.484v-42.32H90.6v6.922h25.06V73.56h20.241V11h-.176Z"/><path fill="url(#b)" d="M97.435 24.494h-6.834v35.487h6.834V24.494Z"/><path fill="url(#c)" d="M84.116 66.814V37.46H77.28v36.1h19.98v-6.747H84.116Z"/><path fill="url(#d)" d="M84.116 17.834V11H36.188v20.416H49.33V73.56h20.941V31.416h13.844v-6.922H63.35v42.32h-7.185v-42.32H43.021v-6.66h41.095Z"/><path fill="url(#e)" d="M31.63 100.9v16.56h-2.978V100.9h-3.067v-2.804h9.2v2.804h-3.154Z"/><path fill="url(#f)" d="M37.063 117.46V98.096h8.587v2.804h-5.607v5.257h4.819v2.891h-4.82v5.52h5.52v2.804h-8.498v.088Z"/><path fill="url(#g)" d="m54.763 117.46-2.19-6.66-2.19 6.66h-3.33l3.943-10.164c-.614-1.578-1.227-3.067-1.84-4.644l-1.84-4.644h3.33c.35.964.612 1.927.963 2.891.263.964.613 1.84.964 2.892h.087l1.84-5.783h3.418l-3.68 9.2c.613 1.752 1.314 3.417 2.015 5.082.7 1.665 1.314 3.33 2.015 5.082l-3.505.088Z"/><path fill="url(#h)" d="M66.942 117.46v-8.412h-3.417v8.412h-2.98V98.096h2.98v8.061l3.417-8.061h2.98v19.364h-2.98Z"/><path fill="url(#i)" d="M82.713 112.552a5.668 5.668 0 0 1-1.139 3.768c-.963.964-2.365 1.402-3.68 1.227-1.314.175-2.628-.351-3.505-1.227-.788-1.051-1.226-2.278-1.139-3.592v-9.726c0-.701.176-1.402.35-2.103.176-.614.439-1.14.79-1.665.35-.438.876-.876 1.489-1.051.7-.263 1.402-.351 2.19-.351.789 0 1.49.088 2.191.35.613.176 1.051.526 1.49 1.052.35.438.613 1.051.788 1.577.175.701.263 1.402.175 2.191v9.55Zm-2.979-9.726c0-.525-.175-.963-.35-1.489a1.303 1.303 0 0 0-1.314-.613c-.263 0-.614.087-.79.262-.174.176-.35.351-.525.614-.175.263-.263.526-.263.788v10.515c0 .438.088.964.35 1.314.264.438.79.613 1.315.613.526 0 1.052-.175 1.314-.613.263-.438.438-.964.438-1.489l-.175-9.902Z"/><path fill="url(#j)" d="M95.858 98.096v19.364h-2.98V100.9h-2.89v7.447c0 1.315-.088 2.629-.176 3.943-.088.876-.263 1.84-.613 2.629-.263.701-.701 1.314-1.227 1.84a6.214 6.214 0 0 1-1.928 1.139l-1.139-2.191c.438-.262.876-.525 1.227-.963.263-.351.526-.789.7-1.227.176-.613.351-1.227.351-1.84 0-.701.088-1.577.088-2.629V98.096h8.587Z"/><path fill="url(#k)" d="M108.65 112.552a5.664 5.664 0 0 1-1.139 3.768c-.964.964-2.366 1.402-3.68 1.227-1.314.175-2.629-.351-3.505-1.227-.7-1.051-1.051-2.278-.876-3.592v-9.726c0-.701.087-1.402.263-2.103a5.8 5.8 0 0 1 .788-1.665c.351-.438.877-.876 1.49-1.051.701-.263 1.402-.351 2.19-.351.789 0 1.49.088 2.191.35.613.176 1.051.526 1.49 1.052.35.438.613 1.051.788 1.577.175.701.175 1.49.088 2.191v9.55h-.088Zm-2.979-9.726c0-.525-.088-.963-.35-1.489-.263-.438-.701-.613-1.315-.613a1.69 1.69 0 0 0-.876.262c-.175.176-.35.351-.526.614-.175.263-.263.526-.263.788v10.515c0 .438.088.964.351 1.314.263.438.788.613 1.314.613s1.052-.175 1.315-.613c.262-.438.438-.964.438-1.489l-.088-9.902Z"/><path fill="url(#l)" d="M115.133 100.9v16.56h-2.979V98.096h8.324v2.804h-5.345Z"/><path fill="url(#m)" d="m130.116 105.368-4.03 12.092h-2.892V98.096h2.892v12.267h.087l4.031-12.267h2.891v19.364h-2.979v-12.092Z"/><path fill="url(#n)" d="m143.524 105.368-4.031 12.092h-2.891V98.096h2.891v12.267h.088l4.03-12.267h2.892v19.364h-2.892v-12.092h-.087Z"/><path fill="url(#o)" d="M6.046 144.007v-16.473H2.979v16.473H0v-19.364h9.113v19.364H6.046Z"/><path fill="url(#p)" d="M16.21 124.645c1.402-.176 2.892.35 3.943 1.401.964 1.315 1.402 2.892 1.227 4.469 0 .789-.088 1.665-.263 2.454a5.853 5.853 0 0 1-.789 1.84c-.438.525-.964.963-1.577 1.226-.789.351-1.665.438-2.453.438H15.07v7.36h-2.98v-19.188h4.119Zm-1.227 2.803v6.221h1.052c.7.088 1.49-.175 1.927-.788a3.778 3.778 0 0 0 .526-2.366c0-.788-.175-1.577-.526-2.278-.438-.526-1.139-.876-1.84-.789h-1.139Z"/><path fill="url(#q)" d="m30.317 131.829-4.031 12.092h-2.892v-19.364h2.892v12.267h.175l4.03-12.267h2.892v19.364h-2.979v-12.092h-.087Z"/><path fill="url(#r)" d="M39.079 132.09h1.314c.877 0 1.665.088 2.454.438.613.263 1.139.614 1.577 1.139.438.526.7 1.14.788 1.84.176.789.263 1.665.263 2.541.088 1.578-.35 3.243-1.226 4.557-.964 1.051-2.454 1.665-3.856 1.489h-4.206v-19.451h8.5v2.803h-5.52l-.088 4.644Zm0 9.025h1.489c.702 0 1.315-.35 1.578-.964.263-.701.438-1.402.438-2.19a3.524 3.524 0 0 0-.526-2.278c-.438-.526-1.139-.789-1.84-.789h-1.051v6.221h-.088Z"/><path fill="url(#s)" d="M56.778 139.015a5.67 5.67 0 0 1-1.139 3.768c-.964.876-2.278 1.402-3.592 1.227-1.315.175-2.63-.351-3.505-1.227-.789-1.052-1.227-2.278-1.14-3.593v-9.725c0-.701.088-1.402.264-2.103a5.809 5.809 0 0 1 .788-1.665c.438-.438.876-.789 1.49-1.052.7-.262 1.402-.35 2.19-.35.789 0 1.49.088 2.19.35.614.176 1.052.526 1.49 1.052.35.438.614 1.051.789 1.577a8.64 8.64 0 0 1 .263 2.103l-.088 9.638Zm-3.067-9.638c0-.526-.087-.964-.35-1.49a1.303 1.303 0 0 0-1.314-.613c-.263 0-.614.088-.877.263-.175.175-.35.35-.525.613-.176.263-.263.526-.263.789-.088.263-.088.526-.088.788v9.726c0 .438.175.964.35 1.315.264.438.79.613 1.315.613.526 0 1.051-.175 1.314-.613.263-.439.438-.964.35-1.49l.088-9.901Z"/><path fill="url(#t)" d="M63.788 124.645c1.402-.176 2.891.35 3.943 1.401.964 1.315 1.402 2.892 1.227 4.469 0 .789-.088 1.665-.263 2.454a5.855 5.855 0 0 1-.789 1.84c-.35.613-.876 1.051-1.49 1.401-.788.351-1.664.439-2.453.439h-1.227v7.36h-3.154v-19.364h4.206Zm-1.314 2.803v6.221h1.051c.7.088 1.49-.175 1.928-.788a3.778 3.778 0 0 0 .525-2.366 5.12 5.12 0 0 0-.525-2.278c-.439-.613-1.14-.876-1.84-.789h-1.14Z"/><path fill="url(#u)" d="M80.173 139.015a5.67 5.67 0 0 1-1.14 3.768c-.963.876-2.278 1.402-3.592 1.227-1.314.175-2.629-.351-3.505-1.227-.788-1.052-1.226-2.278-1.139-3.593v-9.725c0-.701.088-1.402.263-2.103a5.811 5.811 0 0 1 .789-1.665c.438-.438.876-.789 1.49-1.052.7-.262 1.401-.35 2.102-.35.789 0 1.49.088 2.19.35.614.176 1.052.526 1.49 1.052.35.438.614 1.051.789 1.577.175.701.263 1.402.263 2.103v9.638Zm-2.98-9.638c0-.526-.087-.964-.35-1.49a1.303 1.303 0 0 0-1.314-.613 1.69 1.69 0 0 0-.876.263c-.176.175-.351.35-.526.613-.175.263-.263.526-.263.789v10.514c0 .438.088.964.35 1.315.263.438.789.613 1.315.613.526 0 1.051-.175 1.314-.613.263-.439.438-.964.35-1.49v-9.901Z"/><path fill="url(#v)" d="M87.446 124.469c.7 0 1.402.087 2.103.35a3.113 3.113 0 0 1 1.402.964c.35.438.7.876.876 1.402a6.68 6.68 0 0 1 .263 1.84l-2.892.701c0-.613-.087-1.227-.35-1.752-.263-.439-.789-.701-1.315-.701a1.69 1.69 0 0 0-.876.262c-.175.176-.438.351-.526.614-.087.263-.262.438-.262.701v11.215c0 .176.087.438.262.614.088.175.263.35.439.438.262.087.525.175.788.175 1.14 0 1.665-.789 1.665-2.366.438 0 1.051.175 1.49.263.525.088 1.05.088 1.489.263 0 1.227-.438 2.541-1.227 3.505-.876.876-2.103 1.402-3.417 1.226a4.673 4.673 0 0 1-3.505-1.226c-.788-.964-1.226-2.278-1.139-3.505v-9.726c0-.701 0-1.402.088-2.015a5.809 5.809 0 0 1 .788-1.665c.35-.526.877-.876 1.49-1.139.788-.351 1.577-.438 2.366-.438Z"/><path fill="url(#w)" d="M98.924 127.446v16.561h-2.98v-16.561h-3.066v-2.803h9.2v2.803h-3.154Z"/><path fill="url(#x)" d="M107.949 124.645c1.402-.176 2.891.35 3.943 1.401.963 1.315 1.402 2.892 1.226 4.469 0 .789-.087 1.665-.263 2.454a5.859 5.859 0 0 1-.788 1.84c-.351.613-.876 1.051-1.49 1.401-.788.351-1.664.439-2.453.439h-1.227v7.36h-3.242v-19.364h4.294Zm-1.139 2.803v6.221h1.051c.701.088 1.49-.175 1.928-.788a3.776 3.776 0 0 0 .525-2.366 5.12 5.12 0 0 0-.525-2.278c-.438-.613-1.139-.876-1.84-.789h-1.139Z"/><path fill="url(#y)" d="M124.334 139.015c.087 1.402-.263 2.716-1.139 3.768-.964.876-2.278 1.402-3.593 1.227-1.314.175-2.628-.351-3.505-1.227-.788-1.052-1.226-2.278-1.139-3.593v-9.725c0-.701.088-1.402.263-2.103a5.789 5.789 0 0 1 .789-1.665c.438-.438.876-.789 1.489-1.052.701-.262 1.402-.35 2.191-.35.788 0 1.489.088 2.19.35.526.176 1.052.526 1.49 1.052.35.438.613 1.051.789 1.577.175.701.262 1.402.262 2.103l-.087 9.638Zm-2.979-9.638c0-.526-.088-.964-.351-1.49a1.302 1.302 0 0 0-1.314-.613 1.69 1.69 0 0 0-.876.263c-.176.175-.351.35-.526.613-.175.263-.263.526-.263.789v10.514c0 .438.088.964.351 1.315.262.438.788.613 1.314.613s1.051-.175 1.314-.613c.263-.439.438-.964.438-1.49l-.087-9.901Z"/><path fill="url(#z)" d="M127.05 144.007v-19.364h8.674v2.803h-5.52v5.258h4.819v2.891h-4.906v5.52h5.52v2.804h-8.587v.088Z"/><path fill="url(#A)" d="M144.137 144.007v-8.412h-3.418v8.412h-2.979v-19.364h2.979v8.061h3.418v-8.061h2.979v19.364h-2.979Z"/><path fill="url(#B)" d="m156.841 131.829-4.031 12.092h-2.891v-19.364h2.891v12.267h.088l4.031-12.267h2.891v19.364h-2.979v-12.092Z"/><path fill="url(#C)" d="m162.011 144.007 1.139-6.134c.087-.613.35-1.226.613-1.84a3.093 3.093 0 0 1 1.139-1.226 3.135 3.135 0 0 1-1.84-1.665c-.35-.876-.526-1.753-.438-2.716-.088-1.578.351-3.067 1.314-4.294.964-.964 2.279-1.489 3.68-1.489H172v19.364h-2.892v-8.324h-.789c-.525 0-1.051.263-1.401.613a4.129 4.129 0 0 0-.964 2.191l-.964 5.52h-2.979Zm5.958-16.561c-.701-.087-1.402.263-1.84.877-.351.613-.613 1.402-.526 2.19-.087.701.175 1.314.701 1.84a3.156 3.156 0 0 0 1.753.526h1.226v-5.52l-1.314.087Z"/><defs><linearGradient id="o" x1="-.224" x2="170.344" y1="134.305" y2="134.305" gradientUnits="userSpaceOnUse"><stop stop-color="#1C8AE2"/><stop offset=".486" stop-color="#8B00B3"/><stop offset="1" stop-color="#6900B5"/></linearGradient><linearGradient id="a" x1="-.223" x2="170.345" y1="42.279" y2="42.279" gradientUnits="userSpaceOnUse"><stop stop-color="#1C8AE2"/><stop offset=".486" stop-color="#8B00B3"/><stop offset="1" stop-color="#6900B5"/></linearGradient><linearGradient id="c" x1="-.224" x2="170.344" y1="55.506" y2="55.506" gradientUnits="userSpaceOnUse"><stop stop-color="#1C8AE2"/><stop offset=".486" stop-color="#8B00B3"/><stop offset="1" stop-color="#6900B5"/></linearGradient><linearGradient id="d" x1="-.224" x2="170.345" y1="42.279" y2="42.279" gradientUnits="userSpaceOnUse"><stop stop-color="#1C8AE2"/><stop offset=".486" stop-color="#8B00B3"/><stop offset="1" stop-color="#6900B5"/></linearGradient><linearGradient id="e" x1="-.224" x2="170.344" y1="107.805" y2="107.805" gradientUnits="userSpaceOnUse"><stop stop-color="#1C8AE2"/><stop offset=".486" stop-color="#8B00B3"/><stop offset="1" stop-color="#6900B5"/></linearGradient><linearGradient id="f" x1="-.224" x2="170.344" y1="107.795" y2="107.795" gradientUnits="userSpaceOnUse"><stop stop-color="#1C8AE2"/><stop offset=".486" stop-color="#8B00B3"/><stop offset="1" stop-color="#6900B5"/></linearGradient><linearGradient id="g" x1="-.223" x2="170.345" y1="107.786" y2="107.786" gradientUnits="userSpaceOnUse"><stop stop-color="#1C8AE2"/><stop offset=".486" stop-color="#8B00B3"/><stop offset="1" stop-color="#6900B5"/></linearGradient><linearGradient id="h" x1="-.224" x2="170.345" y1="107.795" y2="107.795" gradientUnits="userSpaceOnUse"><stop stop-color="#1C8AE2"/><stop offset=".486" stop-color="#8B00B3"/><stop offset="1" stop-color="#6900B5"/></linearGradient><linearGradient id="i" x1="-.225" x2="170.344" y1="107.751" y2="107.751" gradientUnits="userSpaceOnUse"><stop stop-color="#1C8AE2"/><stop offset=".486" stop-color="#8B00B3"/><stop offset="1" stop-color="#6900B5"/></linearGradient><linearGradient id="j" x1="-.223" x2="170.345" y1="108.053" y2="108.053" gradientUnits="userSpaceOnUse"><stop stop-color="#1C8AE2"/><stop offset=".486" stop-color="#8B00B3"/><stop offset="1" stop-color="#6900B5"/></linearGradient><linearGradient id="k" x1="-.223" x2="170.345" y1="107.741" y2="107.741" gradientUnits="userSpaceOnUse"><stop stop-color="#1C8AE2"/><stop offset=".486" stop-color="#8B00B3"/><stop offset="1" stop-color="#6900B5"/></linearGradient><linearGradient id="l" x1="-.224" x2="170.344" y1="107.805" y2="107.805" gradientUnits="userSpaceOnUse"><stop stop-color="#1C8AE2"/><stop offset=".486" stop-color="#8B00B3"/><stop offset="1" stop-color="#6900B5"/></linearGradient><linearGradient id="m" x1="-.224" x2="170.344" y1="107.795" y2="107.795" gradientUnits="userSpaceOnUse"><stop stop-color="#1C8AE2"/><stop offset=".486" stop-color="#8B00B3"/><stop offset="1" stop-color="#6900B5"/></linearGradient><linearGradient id="n" x1="-.224" x2="170.345" y1="107.795" y2="107.795" gradientUnits="userSpaceOnUse"><stop stop-color="#1C8AE2"/><stop offset=".486" stop-color="#8B00B3"/><stop offset="1" stop-color="#6900B5"/></linearGradient><linearGradient id="b" x1="-.224" x2="170.346" y1="42.252" y2="42.252" gradientUnits="userSpaceOnUse"><stop stop-color="#1C8AE2"/><stop offset=".486" stop-color="#8B00B3"/><stop offset="1" stop-color="#6900B5"/></linearGradient><linearGradient id="p" x1="-.224" x2="170.344" y1="134.223" y2="134.223" gradientUnits="userSpaceOnUse"><stop stop-color="#1C8AE2"/><stop offset=".486" stop-color="#8B00B3"/><stop offset="1" stop-color="#6900B5"/></linearGradient><linearGradient id="q" x1="-.224" x2="170.344" y1="134.307" y2="134.307" gradientUnits="userSpaceOnUse"><stop stop-color="#1C8AE2"/><stop offset=".486" stop-color="#8B00B3"/><stop offset="1" stop-color="#6900B5"/></linearGradient><linearGradient id="r" x1="-.224" x2="170.344" y1="134.359" y2="134.359" gradientUnits="userSpaceOnUse"><stop stop-color="#1C8AE2"/><stop offset=".486" stop-color="#8B00B3"/><stop offset="1" stop-color="#6900B5"/></linearGradient><linearGradient id="s" x1="-.224" x2="170.344" y1="134.263" y2="134.263" gradientUnits="userSpaceOnUse"><stop stop-color="#1C8AE2"/><stop offset=".486" stop-color="#8B00B3"/><stop offset="1" stop-color="#6900B5"/></linearGradient><linearGradient id="t" x1="-.224" x2="170.345" y1="134.287" y2="134.287" gradientUnits="userSpaceOnUse"><stop stop-color="#1C8AE2"/><stop offset=".486" stop-color="#8B00B3"/><stop offset="1" stop-color="#6900B5"/></linearGradient><linearGradient id="u" x1="-.224" x2="170.344" y1="134.264" y2="134.264" gradientUnits="userSpaceOnUse"><stop stop-color="#1C8AE2"/><stop offset=".486" stop-color="#8B00B3"/><stop offset="1" stop-color="#6900B5"/></linearGradient><linearGradient id="v" x1="-.224" x2="170.345" y1="134.295" y2="134.295" gradientUnits="userSpaceOnUse"><stop stop-color="#1C8AE2"/><stop offset=".486" stop-color="#8B00B3"/><stop offset="1" stop-color="#6900B5"/></linearGradient><linearGradient id="w" x1="-.224" x2="170.344" y1="134.305" y2="134.305" gradientUnits="userSpaceOnUse"><stop stop-color="#1C8AE2"/><stop offset=".486" stop-color="#8B00B3"/><stop offset="1" stop-color="#6900B5"/></linearGradient><linearGradient id="x" x1="-.224" x2="170.344" y1="134.287" y2="134.287" gradientUnits="userSpaceOnUse"><stop stop-color="#1C8AE2"/><stop offset=".486" stop-color="#8B00B3"/><stop offset="1" stop-color="#6900B5"/></linearGradient><linearGradient id="y" x1="-.224" x2="170.344" y1="134.264" y2="134.264" gradientUnits="userSpaceOnUse"><stop stop-color="#1C8AE2"/><stop offset=".486" stop-color="#8B00B3"/><stop offset="1" stop-color="#6900B5"/></linearGradient><linearGradient id="z" x1="-.224" x2="170.344" y1="134.305" y2="134.305" gradientUnits="userSpaceOnUse"><stop stop-color="#1C8AE2"/><stop offset=".486" stop-color="#8B00B3"/><stop offset="1" stop-color="#6900B5"/></linearGradient><linearGradient id="A" x1="-.223" x2="170.345" y1="134.305" y2="134.305" gradientUnits="userSpaceOnUse"><stop stop-color="#1C8AE2"/><stop offset=".486" stop-color="#8B00B3"/><stop offset="1" stop-color="#6900B5"/></linearGradient><linearGradient id="B" x1="-.224" x2="170.344" y1="134.307" y2="134.307" gradientUnits="userSpaceOnUse"><stop stop-color="#1C8AE2"/><stop offset=".486" stop-color="#8B00B3"/><stop offset="1" stop-color="#6900B5"/></linearGradient><linearGradient id="C" x1="-.224" x2="170.344" y1="134.322" y2="134.322" gradientUnits="userSpaceOnUse"><stop stop-color="#1C8AE2"/><stop offset=".486" stop-color="#8B00B3"/><stop offset="1" stop-color="#6900B5"/></linearGradient></defs></svg>