<svg width="217" height="155" viewBox="0 0 217 155" fill="none" xmlns="http://www.w3.org/2000/svg">
<g clip-path="url(#clip0_1407_2468)">
<path fill-rule="evenodd" clip-rule="evenodd" d="M80.6 83.8958C76.1 83.8958 74.8 82.9958 74.8 76.9958C74.8 74.2958 75 72.3958 76 71.3958C76.9 70.3958 78.5 70.1958 80.5 70.1958H81.8L82 68.8958L82.2 67.9958L82.5 67.0958C82.8 66.1958 83.2 65.2958 83.7 64.3958H80.5C74.7 64.3958 71.4 65.3958 69.2 67.5958C67.3 69.5958 66.4 72.5958 66.4 76.9958C66.4 85.7958 70.6 89.5958 80.5 89.5958C81.9 89.5958 83.3 89.5958 84.7 89.3958H85.4C84 87.7958 82.9 85.8958 82.3 83.8958H80.6ZM37.1 83.4958L37.2 67.0958V66.5958C37.2 65.3958 36.9 64.1958 38.3 63.3958V57.3958H22.5L18.6 71.5958H18.3L14.4 57.3958H0V63.3958C1.4 64.1958 1 65.3958 1 66.5958V67.0958L1.09998 84.1958C1.09998 85.2958 1.49995 86.3958 0.199951 87.1958V93.1958H10.8V87.1958C9.40005 86.3958 9.80005 85.1958 9.80005 83.9958V78.0958V69.7958H10.4L15.7 89.8958H20.9C21.1 89.4958 26.4 69.7958 26.4 69.7958H27V81.6958V83.9958C27 85.1958 27.3 86.2958 26 87.1958V93.1958H38.1V87.1958C36.8 86.3958 37.1 85.2958 37.1 84.1958V83.7958V83.4958ZM52.9 79.0958L54.2 78.5958V82.5958L54.1 82.6958C53.3 83.2958 52.3 83.5958 51.3 83.6958C50.9 83.7958 50.6 83.5958 50.3 83.3958C49.9 82.9958 49.7 82.3958 49.7 81.8958C49.7 80.1958 51.4 79.6958 52.9 79.0958ZM41.4 67.4958V73.1958H49.9V72.3958C49.9 70.5958 50.6 69.5958 52.1 69.5958C52.6 69.5958 53.1 69.7958 53.4 70.0958C53.8 70.5958 54.1 71.2958 54.1 72.2958V73.3958L47.7 75.3958C43.6 76.6958 40.5 78.0958 40.4 82.9958C40.4 84.9958 41 86.6958 42.1 87.8958C43.3 89.1958 45.2 89.8958 47.4 89.8958C49.8 89.9958 52.1 89.0958 53.9 87.4958L54.4 87.0958V89.2958H64.3V84.0958C63.3 83.2958 63.1 82.2958 63.1 81.2958V80.5958V72.6958C63.1 69.8958 62.8 67.8958 60.5 66.1958C58.3 64.5958 55 64.2958 52.6 64.2958C48.1 64.4958 44.3 65.4958 41.4 67.4958ZM123.7 73.7958V73.3958C123.7 72.3958 123.7 71.0958 124.4 70.2958C124.8 69.8958 125.3 69.6958 125.9 69.6958C126.4 69.6958 127 69.8958 127.3 70.2958C128 70.9958 128 72.2958 127.9 73.2958V73.6958V81.0958C127.9 82.0958 127.9 83.2958 127.2 83.9958C126.8 84.3958 126.3 84.5958 125.7 84.4958C125.2 84.4958 124.7 84.2958 124.3 83.9958C123.6 83.2958 123.6 81.9958 123.6 81.0958V80.8958L123.7 73.7958ZM116.9 66.4958C114.6 68.2958 114.5 71.1958 114.5 73.6958V80.1958C114.5 83.4958 114.5 86.3958 117.5 88.2958C119.2 89.3958 121.9 89.8958 126 89.8958C129 89.8958 132.3 89.6958 134.5 87.7958C136.8 85.8958 136.8 82.5958 136.8 80.1958V73.6958C136.8 70.4958 136.6 67.6958 133.7 65.8958C132 64.8958 129.1 64.4958 125 64.4958C122.2 64.4958 119.2 64.6958 116.9 66.4958ZM158.4 57.7958C156.9 59.0958 156.2 61.1958 156.2 64.5958V65.5958H149.7V64.9958C149.7 63.8958 149.9 63.2958 150.4 62.7958C150.9 62.2958 151.8 62.0958 153.1 61.9958V56.8958C151.5 56.4958 149.9 56.2958 148.3 56.2958C145.6 56.1958 143.8 56.6958 142.6 57.6958C141.1 58.9958 140.5 61.0958 140.4 64.4958V65.4958H138.6V70.7958H140.4V81.1958C140.4 82.2958 140.4 83.2958 139.3 83.9958V89.2958H150.9V83.9958C149.7 83.4958 149.6 82.2958 149.6 81.4958V80.7958V70.7958H156.1V81.2958C156.1 82.3958 156.1 83.3958 155 84.0958V89.3958H166.6V84.0958C165.4 83.5958 165.3 82.3958 165.3 81.5958V80.8958V70.8958H168.7V65.5958H165.2V64.9958C165.2 63.8958 165.4 63.2958 165.9 62.7958C166.4 62.2958 167.3 62.0958 168.6 61.9958V56.8958C167 56.4958 165.4 56.2958 163.8 56.2958C161.3 56.2958 159.6 56.7958 158.4 57.7958ZM179.5 73.5958V72.5958C179.5 70.6958 180.2 69.7958 181.7 69.7958C182.3 69.7958 182.8 69.9958 183.2 70.3958C183.8 70.9958 183.8 71.9958 183.8 72.5958V73.7958H179.5V73.5958ZM181.3 64.6958C176.6 64.6958 173.8 65.4958 172.2 67.1958C170.9 68.5958 170.4 70.5958 170.4 73.8958V80.5958C170.4 83.6958 170.6 86.1958 173 87.9958C174.9 89.3958 178.7 90.0958 182.7 89.7958C186.8 89.4958 190.4 88.3958 192.4 86.7958V80.9958H183.4V81.5958C183.4 82.5958 183.4 84.5958 181.3 84.5958C180.8 84.5958 180.2 84.3958 179.9 83.9958C179.4 83.3958 179.3 82.4958 179.3 81.7958V78.8958H192.4V72.6958C192.4 70.0958 191.9 68.3958 190.7 67.1958C189.3 65.4958 186.2 64.6958 181.3 64.6958ZM204.5 73.5958V72.5958C204.5 70.6958 205.2 69.7958 206.7 69.7958C207.3 69.7958 207.8 69.9958 208.2 70.3958C208.8 70.9958 208.9 71.9958 208.9 72.5958V73.7958H204.6L204.5 73.5958ZM206.4 64.6958C201.7 64.6958 198.9 65.4958 197.3 67.1958C196 68.5958 195.5 70.5958 195.5 73.8958V80.5958C195.5 83.6958 195.7 86.1958 198.1 87.9958C200 89.3958 203.8 90.0958 207.8 89.7958C211.9 89.4958 215.5 88.3958 217.5 86.7958V80.9958H208.5V81.5958C208.5 82.5958 208.5 84.5958 206.4 84.5958C205.9 84.5958 205.3 84.3958 205 83.9958C204.5 83.3958 204.4 82.4958 204.4 81.7958V78.8958H217.5V72.6958C217.5 70.0958 217 68.3958 215.8 67.1958C214.3 65.4958 211.3 64.6958 206.4 64.6958ZM85.3 67.0958L85 67.9958L84.8 68.8958L84.5 70.6958L84.4 71.4958V71.5958L84.3 72.3958L84.1 75.9958C84.1 78.0958 84.3 80.0958 84.7 82.1958C86.5 90.7958 92.5 94.4958 104.9 94.4958C107 94.4958 109.1 94.3958 111.2 94.1958C111.2 94.1958 111.5 94.1958 111.7 94.1958V85.5958L110.8 86.0958C109.7 86.6958 108 86.9958 104.9 86.9958C97.7 86.9958 96.3 85.0958 96.3 75.9958C96.3 71.1958 96.6 68.4958 98.1 66.8958C99.3 65.5958 101.3 65.0958 104.9 65.0958L111.4 65.1958V57.5958H104.9C94.9 57.4958 87.9 59.1958 85.3 67.0958Z" fill="url(#paint0_linear_1407_2468)"/>
<path fill-rule="evenodd" clip-rule="evenodd" d="M106.6 47.3952C101.7 46.5952 98.6998 46.4952 96.5998 44.9952C89.4998 39.8952 101 34.2952 111.1 34.5952C99.6998 32.5952 88.1998 35.6952 90.1998 42.9952C91.3998 47.9952 97.6999 48.3952 103.3 49.1952C108.9 49.8952 110.1 50.6952 109.5 51.7952C109 52.8952 105.7 53.9952 102.2 54.7952C103.9 54.4952 105.4 54.3952 107 53.8952C108.6 53.4952 110.6 52.8952 111.8 51.4952C113 50.0952 113 48.3952 106.6 47.3952ZM101.7 51.3952C102.9 51.9952 103.2 52.6952 100.9 53.8952C100.9 53.8952 106.4 52.4952 103 51.0952C101.1 50.3952 97.2998 49.5952 95.4998 48.9952C93.5998 48.3952 91.8999 47.4952 90.2999 46.2952C91.6999 47.5952 93.3999 48.5952 95.2999 49.2952C98.4999 50.4952 100.3 50.7952 101.7 51.3952ZM101.3 43.9952C101.3 43.9952 96.5998 42.7952 97.0998 40.7952C97.3998 39.4952 101.7 35.9952 107.2 35.9952C107.2 35.9952 93.4999 39.6952 101.3 43.9952Z" fill="url(#paint1_linear_1407_2468)"/>
</g>
<defs>
<linearGradient id="paint0_linear_1407_2468" x1="-2.9727" y1="75.411" x2="215.413" y2="75.411" gradientUnits="userSpaceOnUse">
<stop stop-color="#1C8AE2"/>
<stop offset="0.4865" stop-color="#8B00B3"/>
<stop offset="1" stop-color="#6900B5"/>
</linearGradient>
<linearGradient id="paint1_linear_1407_2468" x1="-2.97328" y1="44.3429" x2="215.413" y2="44.3429" gradientUnits="userSpaceOnUse">
<stop stop-color="#1C8AE2"/>
<stop offset="0.4865" stop-color="#8B00B3"/>
<stop offset="1" stop-color="#6900B5"/>
</linearGradient>
<clipPath id="clip0_1407_2468">
<rect width="217" height="155" fill="white"/>
</clipPath>
</defs>
</svg>
