<?xml version="1.0" encoding="utf-8"?>
<!-- Generator: Adobe Illustrator 25.2.0, SVG Export Plug-In . SVG Version: 6.00 Build 0)  -->
<svg version="1.1" id="Слой_1" xmlns="http://www.w3.org/2000/svg" xmlns:xlink="http://www.w3.org/1999/xlink" x="0px" y="0px"
	 viewBox="0 0 1248 194.9" style="enable-background:new 0 0 1248 194.9;" xml:space="preserve">
<style type="text/css">
	.st0{fill:#FFFFFF;}
</style>
<g>
	<polygon class="st0" points="131,117 192.2,176.1 192.2,156.6 137.1,103.6 143.7,90.2 192.2,136.8 192.2,117.2 150.5,76.9 
		157.1,63.5 192.2,97.4 192.2,77.6 163.6,50 170.4,36.6 192.2,58 192.2,38.1 176.5,23.2 183.1,9.8 192.2,18.6 192.2,4.5 4.9,4.5 
		4.9,191.9 187.4,191.9 124.1,130.6 	"/>
</g>
<path class="st0" d="M1192.9,191.9h-20.8l-40.3-52.6h-5.5v52.6H1105V71.4h20.9v51.4c1.6-0.1,3.1-0.5,4.6-0.9
	c1.9-0.6,3.7-1.5,5.3-2.8c1.5-1.2,2.8-2.6,3.9-4.2c1.4-2,2.6-4.2,3.5-6.5l1.3-3.3l1.2-3.2c0.5-1.4,1.3-4.2,1.8-5.3
	c1.4-4.1,3.3-8.1,5.6-11.8c1.9-3.1,4.3-5.7,7.3-7.9c2.9-1.9,6.1-3.3,9.5-4.2c4-0.9,8-1.3,12.1-1.3h7.9v18.9h-6.6
	c-2.4,0-4.9,0.2-7.3,0.9c-1.5,0.4-2.9,1.1-4,2c-1.3,1.4-2.3,3-3.1,4.6c-1.3,2.5-2.3,5.2-3.2,7.9c-0.9,3.2-2.1,6.3-3.5,9.2
	c-1.1,2.4-2.5,4.6-4.1,6.7c-1.4,1.7-3,3.3-4.6,4.8c-0.9,0.8-2,1.7-3.1,2.4l48.4,62.6L1192.9,191.9z M1050.3,193.9
	c-7.4,0-14.8-1.3-21.8-3.9c-6.6-2.7-12.5-6.8-17.3-12c-2.5-2.7-4.6-5.8-6.5-9c-2-3.4-3.5-7-4.7-10.7c-1.4-4.1-2.4-8.3-3-12.5
	c-0.7-4.6-1-9.3-1-14c0-4.7,0.3-9.3,0.9-13.9c0.6-4.1,1.6-8.2,2.9-12.1c1.2-3.7,2.8-7.2,4.7-10.6c1.9-3.2,4.1-6.3,6.5-9.1
	c2.3-2.7,5-5.1,7.9-7.2c2.9-2.1,6-3.9,9.3-5.3c3.4-1.5,6.9-2.5,10.6-3.2c3.8-0.7,7.7-1.1,11.6-1.1c2,0,3.9,0,5.8,0s3.7,0,5.5,0.7
	s3.4,0.6,5,0.9l4.6,1.3l0,0l3.9,1.3l4,1.7l3.9,1.9l3.9,2l1.5,0.8v22.9h-5.1l-3.2-2.8l-2.7-2.2l-3.3-2.4c-1.2-0.8-2.5-1.7-3.9-2.4
	c-1.4-0.8-2.9-1.4-4.3-2s-3.2-1.2-4.7-1.7c-1.7-0.5-3.4-0.9-5.1-1c-2-0.3-4-0.4-6.1-0.4c-4.4,0-8.8,0.9-12.8,2.8
	c-4,1.8-7.6,4.5-10.6,7.9c-1.5,1.9-2.8,3.9-3.9,6.1c-1.2,2.5-2.3,5.2-3.1,7.9c-0.9,2.9-1.5,5.9-2,9c-0.4,3.4-0.6,6.8-0.6,10.2
	c0,3.5,0.2,7.1,0.7,10.6c0.4,3,1.1,5.9,2,8.8c0.9,2.5,2,5,3.2,7.3c1.1,2.2,2.5,4.2,4.1,6.1c1.4,1.7,3,3.2,4.8,4.6
	c1.7,1.3,3.5,2.4,5.5,3.3c2,0.8,4,1.5,6.1,2c2.2,0.4,4.3,0.6,6.5,0.6c2,0.1,4,0.1,6,0c1.9-0.2,3.7-0.6,5.5-1.2c1.7-0.5,3.4-1,5-1.7
	c1.6-0.6,3-1.3,4.4-2l3.8-2.4c1.1-0.7,2.2-1.5,3.2-2.4l2.6-2.1l2-1.9l0.8-0.8h5.1V183l-8.7,4.2c-2.7,1.3-5.6,2.4-8.5,3.3l-4.9,1.5
	l-4.7,1l0,0l-5.3,0.6c-1.8,0-3.5,0-6.3,0V193.9z M979.3,148.4h-46.3V129h49v19.3H979.3z M864.9,189.1V90.4h-38.6V71.4h98.1v19.1
	h-38.6v101.4h-20.9L864.9,189.1z M741.9,189.1V71.4h77.5v19.1h-56.7v26h52.8v19.1h-52.8v37.2h56.6v19.1h-77.5L741.9,189.1z
	 M669,189.1V90.4h-38.6V71.4h98v19.1h-38.5v101.4h-20.9L669,189.1z M613.8,191.9H596v-83.6l-47.3,83.6h-20V71.4h20.9v82.1L596,71.4
	h20.6v120.5H613.8z M490.5,109.1c0-1.7-0.1-3.3-0.5-5c-0.3-1.4-0.8-2.8-1.3-4.1c-0.5-1.2-1.2-2.3-2.1-3.3c-0.9-1-1.9-1.9-3.1-2.7
	c-1.1-0.7-2.2-1.3-3.4-1.8c-1.3-0.5-2.7-0.9-4-1.2c-1.7-0.3-3.4-0.6-5.1-0.7c-1.9,0-3.9,0-6.3,0h-9.8v40h7.9c2.6,0.1,5.3,0.1,7.9,0
	c2.1-0.2,4.1-0.6,6.1-1.1c1.6-0.4,3.1-1,4.6-1.7c1.3-0.8,2.5-1.7,3.6-2.8c1-1,1.8-2,2.6-3.2c0.7-1.1,1.2-2.2,1.7-3.4
	c0.5-1.2,0.8-2.5,1-3.9C490.5,112.6,490.6,110.8,490.5,109.1z M511.9,109.1c0,2.6-0.2,5.3-0.7,7.9c-0.5,2.5-1.2,5-2.1,7.3
	c-0.9,2.3-2,4.6-3.4,6.7c-1.3,2-2.9,3.9-4.6,5.7l0,0c-2.1,2.1-4.4,3.9-6.9,5.5c-2.5,1.6-5.1,2.9-7.9,3.9c-6.8,2.3-14,3.4-21.2,3.2
	h-10.2v42.9H434V71.4h31.5c3.2-0.2,6.5-0.2,9.7,0c2.8,0.2,5.6,0.7,8.3,1.3c2.5,0.6,4.9,1.4,7.2,2.4c2.2,1,4.4,2.2,6.4,3.5l0,0
	c2.3,1.6,4.4,3.4,6.2,5.4c1.8,2,3.4,4.3,4.6,6.7c1.4,2.5,2.4,5.1,3,7.9c0.7,3.3,1.1,6.7,1,10.2V109.1z M383.8,141.4l-13.9-42.3
	L356,141.5L383.8,141.4z M319.4,188.7l39.4-116.9h22.9l40.9,120h-22.1l-10.3-32h-40.3l-10.4,32h-21.4L319.4,188.7z M303.7,192.3
	h-18.1V90.4h-47.3v101.4h-20.6V71.4h88.7v120.5L303.7,192.3z"/>
<path class="st0" d="M1174.9,30.7v-15h-5.5c-1.2-0.1-2.5-0.1-3.7,0c-0.9,0.2-1.8,0.6-2.5,1.1c-0.8,0.6-1.5,1.4-1.9,2.3
	c-0.5,1-0.7,2.2-0.7,3.3c0,1.2,0.1,2.4,0.5,3.5c0.3,0.9,0.9,1.8,1.6,2.4c0.8,0.8,1.9,1.3,3,1.6c1.3,0.2,2.7,0.2,4,0L1174.9,30.7z
	 M1180.3,51h-5.4V35.3h-6L1157,51h-6.4l12.7-16.6c-2.5-0.8-4.6-2.2-6.2-4.3c-1.6-2.3-2.4-5.1-2.2-7.9c-0.1-1.8,0.4-3.7,1.3-5.3
	c0.8-1.5,1.9-2.7,3.3-3.7c1.4-0.9,2.9-1.5,4.5-1.8c1.8-0.4,3.7-0.6,5.6-0.6h10.6L1180.3,51z M1125.1,51h-5.3V19.5l-18,31.5h-5.4
	V11.1h5.3v31.5l18-31.5h5.6L1125.1,51z M1067.1,51h-5.4V31.5h-18.3V51h-5.3V11.1h5.3v15.8h18.3V11.1h5.4V51z M1002.4,35.3l-6.1-18.8
	l-6.1,18.8H1002.4z M979.7,51l13.8-39.9h6.5l13.6,39.9h-5.6l-3.6-11.1h-15.3L985.5,51L979.7,51z M954.6,51h-5.4V15.9H931V51h-5.3
	V11.1h28.9V51z M896.3,51H891V16.7l-10.4,23.6h-3.2L867,16.7V51h-5V11.1h7.3l10.3,22.2l9.5-22.2h7.4L896.3,51z M829.5,31.1
	c0-2.4-0.2-4.7-0.8-7c-0.5-1.8-1.3-3.5-2.4-5c-1-1.3-2.3-2.4-3.9-3.1c-3.2-1.4-6.8-1.4-10,0c-1.5,0.7-2.9,1.7-3.9,3.1
	c-1.1,1.5-2,3.3-2.4,5.1c-0.6,2.3-0.8,4.6-0.8,6.9c-0.2,4.3,1,8.5,3.5,12c2.1,2.7,5.4,4.3,8.9,4.2c3.4,0.1,6.7-1.4,8.8-4.2
	c2.4-3.5,3.6-7.7,3.3-12L829.5,31.1z M830.2,15.7c1.6,1.9,2.8,4.2,3.5,6.5c0.9,2.9,1.3,5.8,1.3,8.8c0.1,3-0.4,5.9-1.3,8.7
	c-0.7,2.4-1.9,4.7-3.5,6.6c-1.6,1.8-3.6,3.2-5.8,4.1c-2.3,0.9-4.7,1.4-7.2,1.3c-2.5,0-5-0.4-7.3-1.4c-2.2-0.9-4.1-2.3-5.6-4
	c-1.6-1.9-2.8-4.1-3.5-6.5c-0.9-2.9-1.3-5.8-1.3-8.8c-0.1-3,0.4-6,1.3-8.8c0.8-2.4,2-4.6,3.5-6.5c1.5-1.8,3.4-3.2,5.6-4
	c2.3-1,4.8-1.5,7.3-1.4c2.5,0,5.1,0.4,7.4,1.4c2.2,0.9,4.2,2.3,5.8,4L830.2,15.7z M777.2,51h-6.8l-13.8-18.3h-3.1V51h-5.3V11.1h5.3
	v18c1.8,0.1,3.6-0.5,5-1.6c1.3-1.1,2.3-2.6,2.8-4.3c0.3-0.7,0.6-1.5,0.9-2.3c0-0.7,0.5-1.3,0.7-1.8c0.6-2.5,2.1-4.7,4.1-6.3
	c2-1.3,4.4-1.9,6.9-1.7h1.7v4.7h-1.6c-1.7-0.2-3.4,0.2-4.7,1.3c-1.1,1.4-2,3-2.4,4.8c-0.5,1.9-1.3,3.6-2.4,5.2
	c-0.9,1.1-2.1,2.1-3.3,2.9L777.2,51z M674.2,30.7v-15h-5.5c-1.2-0.1-2.5-0.1-3.7,0c-0.9,0.2-1.8,0.6-2.5,1.1
	c-0.8,0.6-1.5,1.3-1.9,2.3c-0.5,1-0.7,2.2-0.7,3.3c0,1.2,0.1,2.4,0.5,3.5c0.3,0.9,0.9,1.8,1.6,2.4c0.8,0.8,1.9,1.4,3,1.6
	c1.3,0.2,2.7,0.2,4,0L674.2,30.7z M679.6,51h-5.4V35.3h-6L656.3,51h-6.4l12.8-16.6c-2.4-0.8-4.6-2.3-6.2-4.3
	c-1.6-2.3-2.4-5.1-2.2-7.9c0-1.8,0.4-3.7,1.3-5.3c1.7-2.9,4.6-5,7.9-5.5c1.9-0.4,3.8-0.6,5.7-0.6h10.6L679.6,51z M618.3,35.3
	l-6.1-18.8l-6.1,18.8H618.3z M596,51l13.2-39.9h6.5L629.1,51h-5.7l-3.9-11.1h-15L601,51H596z M567.8,39c0.1-1.3-0.1-2.5-0.6-3.7
	c-0.6-1.1-1.6-2-2.8-2.4c-0.9-0.5-1.8-0.8-2.8-0.9c-1.4-0.1-2.8-0.1-4.2,0h-6v14.5h4.3c1.8,0.1,3.7,0.1,5.5,0
	c1.3-0.2,2.5-0.7,3.5-1.4c0.9-0.6,1.7-1.4,2.1-2.4C567.6,41.5,567.9,40.3,567.8,39z M566,20.9c0-0.8-0.1-1.7-0.6-2.4
	c-0.3-0.7-0.8-1.3-1.5-1.7c-0.9-0.5-1.9-0.8-2.9-0.9h-4.3h-5v11.4h6c1.2,0.1,2.5,0.1,3.7,0c0.9-0.2,1.7-0.5,2.4-1
	c0.8-0.5,1.4-1.2,1.7-2C565.9,23.2,566.1,22.1,566,20.9z M573.4,38.8c0,1.8-0.3,3.5-1.1,5.1c-0.7,1.5-1.7,2.8-3,3.8
	c-1.4,1.1-3.1,2-4.8,2.5c-2.2,0.5-4.4,0.8-6.7,0.7h-11.5V11.1h10.6c2.1-0.1,4.3-0.1,6.4,0c1.4,0.2,2.8,0.7,4.1,1.3
	c1.3,0.7,2.3,1.7,3.1,3c0.8,1.5,1.1,3.1,1,4.8c0,1.8-0.5,3.6-1.5,5c-1,1.5-2.4,2.7-4.1,3.5l0,0c2.2,0.5,4.1,1.7,5.5,3.5
	C572.8,34.2,573.5,36.5,573.4,38.8z M513.8,30.9c0-2.4-0.3-4.7-0.9-7c-0.5-1.8-1.3-3.5-2.4-5c-1-1.3-2.3-2.3-3.8-3.1
	c-1.7-0.7-3.5-1-5.3-0.9c-1.7-0.1-3.5,0.3-5,1c-1.5,0.7-2.9,1.7-3.9,3.1c-1.1,1.6-1.9,3.3-2.4,5.1c-0.6,2.3-0.8,4.6-0.8,6.9
	c-0.3,4.2,0.9,8.4,3.2,12c2.1,2.7,5.4,4.3,8.9,4.2c3.4,0.1,6.7-1.4,8.8-4.2c2.5-3.5,3.8-7.7,3.5-12V30.9z M514.5,15.6
	c1.6,1.9,2.8,4.2,3.5,6.5c0.9,2.9,1.3,5.8,1.3,8.8c0.1,3-0.4,5.9-1.3,8.7c-0.7,2.4-1.9,4.7-3.5,6.6c-1.6,1.8-3.6,3.2-5.8,4.1
	c-2.3,1-4.8,1.4-7.3,1.4c-2.5,0-5-0.4-7.3-1.4c-2.2-0.9-4.1-2.2-5.6-4c-1.6-1.9-2.8-4.1-3.5-6.5c-0.9-2.9-1.3-5.8-1.3-8.8
	c0-3,0.4-6,1.3-8.8c0.8-2.4,2-4.6,3.5-6.5c1.6-1.7,3.6-3.1,5.8-3.9c2.2-0.9,4.7-1.4,7.1-1.4c2.7-0.1,5.4,0.4,7.9,1.4
	c2,1,3.8,2.3,5.2,4L514.5,15.6z M460.7,51h-6.1l-9.8-15.8L435,51h-5.7L442,31.1l-12.4-19.9h6.1l9.5,15.8l9.8-15.8h5.8l-12.5,19.6
	L460.7,51z M397.7,35.3l-6.6-18.7l-6.1,18.8L397.7,35.3z M374.9,51l13.2-39.9h6.5L408.1,51h-5.7l-3.5-11.1h-15.4L379.9,51H374.9z
	 M346.9,23.3c0-1.2-0.2-2.4-0.6-3.5c-0.6-1-1.5-1.9-2.5-2.4c-0.9-0.6-1.9-1-2.9-1.2c-1.3-0.3-2.7-0.4-4.1-0.4h-4.4v15.8h3.6
	c1.8,0.1,3.5-0.1,5.2-0.6c1.2-0.3,2.3-0.9,3.2-1.8c0.7-0.7,1.3-1.6,1.7-2.6C346.6,25.5,346.8,24.4,346.9,23.3z M352.5,23.3
	c0,1.7-0.3,3.3-0.9,4.9c-0.6,1.5-1.4,2.8-2.5,3.9c-1.4,1.3-3.1,2.4-4.9,3.1c-2.3,0.8-4.6,1.1-7,1h-4.5V51h-5.3V11.1h10
	c2.1-0.1,4.2,0.1,6.3,0.6c1.6,0.4,3.1,1,4.4,1.9c1.4,1,2.6,2.4,3.5,3.9c0.7,1.8,1,3.7,0.9,5.6V23.3z M283.4,51V15.9H270v-4.7h32.1
	v4.7h-13.5V51H283.4z M235.4,51.8c-2.5,0-4.9-0.4-7.3-1.3c-2.2-0.9-4.1-2.2-5.7-3.9c-1.7-1.9-2.9-4.1-3.7-6.5
	c-0.9-2.9-1.2-6-1.1-9.1c-0.1-2.9,0.4-5.9,1.3-8.7c0.8-2.4,2-4.6,3.7-6.5c1.6-1.8,3.5-3.1,5.7-4c2.3-1,4.8-1.5,7.3-1.4
	c1.2-0.1,2.5-0.1,3.7,0l3.3,0.8c0.9,0.3,1.8,0.6,2.6,1c0.9,0.4,1.8,0.8,2.7,1.3v6.7h-0.4l-1.8-1.6c-0.8-0.6-1.7-1.2-2.7-1.7
	c-1-0.6-2.2-1-3.3-1.3c-1.4-0.4-2.8-0.6-4.2-0.6c-1.7,0-3.3,0.4-4.8,1c-1.5,0.7-2.9,1.8-4,3.1c-1.2,1.5-2.1,3.3-2.6,5.1
	c-0.7,2.3-1,4.6-0.9,6.9c-0.1,2.4,0.3,4.8,1,7c0.5,1.8,1.4,3.5,2.7,5c1.1,1.3,2.4,2.3,3.9,3c1.5,0.7,3.1,1,4.7,1
	c1.4,0,2.9-0.2,4.3-0.6c1.2-0.3,2.4-0.8,3.5-1.4c0.9-0.5,1.8-1.1,2.6-1.7c0.6-0.5,1.1-1,1.7-1.5h0.4v6.4l-2.4,1.2l-2.8,1.1l-3.2,0.8
	C238.1,51.8,236.8,51.9,235.4,51.8z"/>
</svg>
