<?xml version="1.0" encoding="utf-8"?>
<!-- Generator: Adobe Illustrator 22.1.0, SVG Export Plug-In . SVG Version: 6.00 Build 0)  -->
<svg version="1.1" id="Слой_1" xmlns="http://www.w3.org/2000/svg" xmlns:xlink="http://www.w3.org/1999/xlink" x="0px" y="0px"
	 viewBox="0 0 2459 424.8999939" style="enable-background:new 0 0 2459 424.8999939;" xml:space="preserve">
<style type="text/css">
	.st0{fill:#FFFFFF;}
</style>
<g>
	<path class="st0" d="M0,9.2107477h149.5534058l61.3552551,61.9030609v100.2500839l-30.1298065,36.155777l41.0860901,40.5382843
		v109.5629272l-61.3552399,61.3552551H29.0341778V76.5919571L49.8511353,63.992218v-3.8347054H0V9.2107477z M131.4755249,186.154892
		l29.0341797-34.5123291V91.9307632l-31.7732544-31.7732506H79.4331284V186.154892H131.4755249z M79.4331284,368.577179h60.2596207
		l31.7732544-31.7732544v-65.7377625l-35.0601501-34.5123138H79.4331284V368.577179z"/>
	<path class="st0" d="M600.4813232,354.8818054l-61.9030151,65.7377625h-78.8853455l-61.3552551-65.7377625V65.0878448
		l61.9030762-61.9030609h78.3375244l61.9030151,61.9030609V354.8818054z M550.630188,335.708313V85.356987l-32.8688965-32.8688774
		h-37.2513733l-32.868866,32.8688774V335.708313l33.416687,35.6079407h36.1557617L550.630188,335.708313z"/>
	<path class="st0" d="M762.6981812,9.7585621h96.9631958l46.56427,146.8143311l44.9207764,171.4660187h1.6434326
		l-10.9562378-174.2050781V9.7585621h48.7554932v409.2175598h-53.1380615l-64.0942993-201.5958099L836.1053467,83.1657333
		h-1.6434326l6.5737915,138.5971069v197.2132874h-48.7555542V75.4963226l20.8169556-12.5997353v-3.8347015h-50.3989258V9.7585621z"
		/>
	<path class="st0" d="M1323.7368164,200.9458923v49.8511353h-92.0328369v168.1791077h-49.8510742V76.044136l20.8168945-12.5997353
		v-3.8347015h-49.8510742V10.3063765h196.6654053v96.41539h-48.7554932V59.6096992h-69.0246582v141.3361969H1323.7368164z"/>
	<path class="st0" d="M1575.7825928,8.115118v328.6888123l31.2254639,34.5123291h32.8688965l31.2253418-34.5123291V8.115118
		h49.8511963v347.3145142l-58.6162109,65.7377625h-77.2418213l-59.1640625-65.7377625V70.0181808l20.8170166-12.5997391v-3.8347054
		h-50.3989258V8.115118H1575.7825928z"/>
	<path class="st0" d="M1950.0164795,338.4473877l32.3210449,33.9645081h36.1557617l32.321167-33.9645081v-65.1899719
		l-147.3623047-102.989151V67.2791061l58.6162109-61.3552475h76.6940918l58.6162109,61.3552475v136.3851318l-49.3034668-31.5921631
		V87.5482483l-30.6774902-32.3210678h-34.5123291l-30.1298828,32.3210678v56.9727325l146.8143311,102.989151v110.6585693
		l-60.2595215,63.5465088h-78.3375244l-60.2596436-63.5465088V209.4561462l49.3033447,33.1717682V338.4473877z"/>
	<path class="st0" d="M2428.3222656,191.0852203v49.8511353h-92.5805664V369.125h73.4072266v-42.1817322H2459v92.0328674
		h-173.109375V74.9485092l20.8168945-12.5997353v-3.8347054h-49.8510742V8.6629324h197.2131348v96.9631958h-49.8510742V58.5140686
		h-68.4768066v132.5711517H2428.3222656z"/>
</g>
</svg>
